<?xml version="1.0" encoding="UTF-8" standalone="no"?>
<!-- Created with Inkscape (http://www.inkscape.org/) -->

<svg
   version="1.1"
   id="svg2"
   width="361"
   height="396"
   viewBox="0 0 361 396"
   sodipodi:docname="18.svg"
   inkscape:version="1.1.2 (0a00cf5339, 2022-02-04)"
   xmlns:inkscape="http://www.inkscape.org/namespaces/inkscape"
   xmlns:sodipodi="http://sodipodi.sourceforge.net/DTD/sodipodi-0.dtd"
   xmlns="http://www.w3.org/2000/svg"
   xmlns:svg="http://www.w3.org/2000/svg">
  <defs
     id="defs6" />
  <sodipodi:namedview
     id="namedview4"
     pagecolor="#505050"
     bordercolor="#eeeeee"
     borderopacity="1"
     inkscape:pageshadow="0"
     inkscape:pageopacity="0"
     inkscape:pagecheckerboard="0"
     showgrid="false"
     inkscape:zoom="1.3374318"
     inkscape:cx="82.247187"
     inkscape:cy="131.96935"
     inkscape:window-width="1920"
     inkscape:window-height="1043"
     inkscape:window-x="0"
     inkscape:window-y="0"
     inkscape:window-maximized="1"
     inkscape:current-layer="g8" />
  <g
     inkscape:groupmode="layer"
     inkscape:label="Image"
     id="g8">
    <path
       id="path12"
       style="fill:#000000"
       d="m 171.10938,30.488281 c -1.71558,0.06262 -3.66264,0.233299 -5.9668,0.496094 -9.23881,1.053709 -17.00646,4.586638 -21.64258,9.845703 -1.65,1.871705 -4.48619,5.019217 -6.30273,6.994141 -2.93963,3.195937 -3.23069,4.020845 -2.64454,7.490234 0.36221,2.143902 1.4869,4.725177 2.49805,5.736328 1.01115,1.011151 2.1487,3.496622 2.5293,5.525391 0.68998,3.677943 6.19735,12.249328 9.83789,15.310547 C 156.58527,87.913484 160,91.480513 160,92.941406 160,93.869138 157.975,96.14556 155.5,98 c -2.475,1.85444 -4.5,3.62604 -4.5,3.9375 0,0.31146 -2.0985,2.81563 -4.66406,5.56445 -2.56556,2.74882 -6.09486,7.24805 -7.8418,9.99805 -3.60667,5.67757 -6.07046,14.07976 -4.64844,15.84961 0.50824,0.63257 1.2431,2.64797 1.63477,4.47851 l 0.71289,3.32813 -4.30274,-0.32813 -4.30273,-0.32812 -1.75781,6.5 c -2.17262,8.0379 -2.17119,8 -0.2793,8 1.77175,0 4.44922,-5.69828 4.44922,-9.46875 0,-2.88038 1.62383,-3.42227 2.33984,-0.78125 1.35026,4.98051 1.49424,7.07797 0.71875,10.50586 -0.46727,2.06543 -0.4786,3.98434 -0.0234,4.26562 1.68747,1.04291 3.96646,-4.06759 4.00976,-8.99414 l 0.043,-5.02734 2.10938,4 c 1.24092,2.35322 2.08397,5.74764 2.04687,8.24609 -0.0347,2.33577 0.32243,4.48459 0.79297,4.77539 0.80038,0.49466 2.94473,-5.504 2.95703,-8.27148 0.006,-1.36834 0.8301,-1.54667 5.86719,-1.26562 2.41793,0.13489 3.23744,-0.18742 2.91406,-1.14844 -0.28238,-0.8392 -2.17716,-1.37004 -5.09375,-1.42774 -3.73233,-0.0738 -5.04201,-0.5961 -6.66406,-2.6582 -2.36359,-3.00482 -2.56231,-5.62351 -0.62891,-8.26758 1.08118,-1.4786 2.40988,-1.83601 6,-1.61523 5.68579,0.34964 6.1128,-1.37192 0.56055,-2.25977 l -4.05078,-0.64648 3.67187,-4.48047 c 2.0191,-2.46405 4.0105,-4.48047 4.42578,-4.48047 0.41529,0 4.0275,-2.93489 8.02735,-6.52148 6.62474,-5.94028 7.42205,-6.3856 8.95312,-5 0.92442,0.83659 2.23866,1.52148 2.91992,1.52148 0.84415,0 0.99511,0.7166 0.47461,2.25 -0.82958,2.44391 -0.65957,15.13166 0.24219,18.05664 0.84624,2.74486 3.92318,1.63383 3.70508,-1.33789 -0.44796,-6.10357 -1.26769,-12.7049 -1.90625,-15.34961 -0.5298,-2.19424 -0.37152,-2.77162 0.66601,-2.42578 0.74914,0.24971 1.70884,2.11528 2.13086,4.14648 0.42202,2.0312 1.41439,4.6974 2.20704,5.92578 0.79265,1.22837 2.86207,5.83438 4.59765,10.23438 1.73558,4.4 5.78692,11.90315 9.00195,16.67383 l 5.84376,8.67383 -3.9004,0.66015 c -2.14539,0.36246 -5.05277,1.56422 -6.46093,2.67188 -3.15669,2.48305 -4.67908,1.49634 -6.36328,-4.125 -1.3139,-4.38543 -2.77334,-5.81651 -4.33594,-4.25391 -0.70128,0.70128 -0.19956,2.82725 1.58203,6.71875 1.43353,3.13126 2.35652,6.09439 2.05273,6.58594 C 180.6935,172.30282 178,172.251 178,171.03906 c 0,-0.5287 -2.925,-6.98659 -6.5,-14.35156 -3.575,-7.36497 -6.53553,-14.47023 -6.57812,-15.78906 -0.12977,-4.01396 -3.50271,-12.39844 -4.98829,-12.39844 -1.0333,0 -1.31066,1.16135 -1.07031,4.49023 0.17835,2.47014 0.67363,5.17014 1.09961,6 1.41695,2.76045 2.18237,9.00977 1.10352,9.00977 -0.56375,0 -1.96989,1.85298 -3.125,4.11719 -2.98521,5.85149 -11.17962,13.14889 -16.25586,14.47851 -5.16264,1.35224 -7.53312,0.7142 -15.73243,-4.23632 l -6.45312,-3.89649 -0.30859,-5.42773 c -0.44766,-7.86216 0.23665,-9.67038 3.94531,-10.41211 3.09004,-0.61801 3.1229,-0.68023 1.35937,-2.62891 C 123.50308,138.89692 121.83699,138 120.79492,138 c -1.04207,0 -3.2392,-0.69498 -4.88281,-1.54492 -2.20239,-1.1389 -4.48961,-1.37769 -8.69922,-0.90625 -5.26855,0.59003 -5.9006,0.43787 -8.136718,-1.95508 C 97.742799,132.16686 96.055299,131 95.326172,131 92.674507,131 94.09404,129.17925 97.949219,127.63672 101.82296,126.08675 104,123.57815 104,120.66406 104,118.92729 97.721402,115 94.945312,115 91.807226,115 85.293436,121.60039 84.304688,125.78125 83.584731,128.82554 82.89973,129.58433 80.5,130 c -2.410294,0.4175 -3.08315,1.17247 -3.818359,4.28125 -0.490984,2.07609 -0.614765,5.26455 -0.273438,7.08398 0.717768,3.82603 5.500375,9.63477 7.931641,9.63477 1.293859,0 1.693247,1.04948 1.808594,4.75 0.190713,6.11841 0.344232,7.4264 1.083984,9.25 0.334665,0.825 1.149424,6 1.8125,11.5 0.663076,5.5 1.831913,12.86916 2.595703,16.375 0.76379,3.50584 1.847244,12.05584 2.408203,19 0.56096,6.94416 1.515055,17.8 2.119141,24.125 0.604086,6.325 1.306143,21.35113 1.560547,33.39258 0.441265,20.88595 0.378042,21.86157 -1.363282,21.19336 -4.165259,-1.59836 -18.467405,-2.73059 -26.865234,-2.12696 -6.056048,0.4353 -8.671323,0.31802 -7.994141,-0.36132 1.513041,-1.51784 18.937276,-4.08875 27.744141,-4.09375 7.913049,-0.004 10.256541,-1.29397 4.605469,-2.53516 -4.550117,-0.99937 -16.6247,-0.80311 -21.855469,0.35547 -2.475,0.5482 -9.225,1.29854 -15,1.66797 -5.775,0.36943 -12.075,1.06509 -14,1.54492 -1.925,0.47984 -4.7375,1.12506 -6.25,1.43555 -1.5125,0.31048 -2.75,1.04949 -2.75,1.64062 0,0.71764 1.694753,0.84163 5.101562,0.37305 2.806253,-0.38597 8.376076,-0.39638 12.376954,-0.0215 5.945137,0.55711 7.251901,0.98942 7.148437,2.35938 -0.147738,1.95618 0.7266,1.97894 14.373047,0.36914 6.207665,-0.73228 10.886246,-0.79599 13.5,-0.18164 2.2,0.5171 5.6875,0.95174 7.75,0.96484 L 98,292 v 6.94531 6.94727 l -5.25,-1.56446 c -5.223302,-1.55628 -8.820791,-1.51407 -27.5,0.33008 -5.352819,0.52847 -6.25,0.90119 -6.25,2.59571 0,1.57056 0.463945,1.85026 2.25,1.35351 9.070249,-2.52269 21.533206,-2.89291 33.21875,-0.98633 3.61761,0.59023 3.21048,0.11482 4.074219,4.73829 l 0.720703,3.86132 -4.25,-0.71875 C 80.309163,313.01764 57.451067,313.69728 59,316.57227 c 0.275,0.51043 1.175,0.80902 2,0.66406 0.825,-0.14497 6.45,-0.54026 12.5,-0.87891 8.507231,-0.4762 12.437628,-0.24651 17.341797,1.01563 3.487647,0.89758 6.75472,1.37659 7.259765,1.06445 0.532185,-0.3289 0.867109,2.82404 0.798829,7.49805 -0.133719,9.15328 -0.08731,9.11674 -8.431641,6.60547 -6.381916,-1.92068 -28.80981,-2.33256 -30.935547,-0.56836 -2.866004,2.37861 -0.384155,3.02743 9.277344,2.42968 9.576179,-0.59248 28.007954,1.08413 29.617187,2.69336 0.468582,0.46858 -1.832576,19.04926 -2.929687,23.6543 -0.504718,2.11851 -0.225014,2.25 4.783203,2.25 2.92548,0 5.76279,-0.44443 6.30664,-0.98828 1.13026,-1.13026 23.53582,-1.52099 27.67383,-0.48242 4.26703,1.07096 3.31769,-1.27124 -1.01172,-2.4961 -2.0625,-0.58352 -8.5875,-1.34785 -14.5,-1.69922 L 108,356.69531 v -2.86719 c 0,-2.44317 0.33212,-2.79766 2.25,-2.40234 1.2375,0.25509 6.03034,0.75117 10.65039,1.10156 4.62006,0.3504 9.49731,1.05403 10.83984,1.56446 2.04946,0.7792 2.52873,0.59362 2.98633,-1.15625 0.39694,-1.51785 1.12055,-1.94884 2.66016,-1.58594 1.16267,0.27405 5.71328,1.03605 10.11328,1.69336 4.4,0.65732 9.99225,1.81669 12.42773,2.57617 5.45077,1.69977 8.36703,1.76703 7.83789,0.17969 -0.88246,-2.64737 -31.84026,-8.81179 -34.24218,-6.81836 -0.78112,0.64827 -5.4707,0.74208 -13.11914,0.26367 L 108.5,348.5 v -2.99609 c 0,-2.88006 0.15539,-2.98467 4,-2.69141 2.2,0.16781 6.7,0.72469 10,1.23828 7.93912,1.23558 10.77536,1.20252 9.96094,-0.11523 -0.77399,-1.25234 3.52755,-0.61616 14.18164,2.09375 10.04937,2.55609 16.35742,3.40463 16.35742,2.20117 0,-0.54833 -1.0125,-1.21369 -2.25,-1.47852 -26.07226,-5.57965 -27.88545,-5.88495 -29.09766,-4.8789 -0.86367,0.71678 -2.41032,0.75622 -4.71875,0.11914 -1.88847,-0.52118 -6.57709,-1.29388 -10.41992,-1.71875 -5.71398,-0.63175 -7.05375,-1.1187 -7.35156,-2.66797 -0.3444,-1.79158 0.17005,-1.857 9.48633,-1.2207 23.43618,1.6007 50.09495,7.23702 48.90429,10.33984 -0.70624,1.84042 2.58604,3.21549 9.40039,3.92773 3.32537,0.34757 6.04688,0.98142 6.04688,1.40821 0,1.30756 -7.02869,5.20597 -10.87109,6.02929 -1.99587,0.42774 -5.51967,1.25497 -7.83008,1.83789 -2.97545,0.75075 -5.01726,0.74577 -7,-0.0156 -5.07472,-1.94885 -18.65142,-3.95991 -19.69336,-2.91797 -1.44023,1.44023 -0.54423,1.90258 5.98047,3.08984 8.47754,1.54262 15.501,3.97979 16.12109,5.59571 1.30726,3.40667 6.25435,4.47936 22.6543,4.91211 22.35721,0.58994 24.09727,-0.35656 20.52734,-11.17774 -2.34522,-7.11015 -2.3453,-7.69437 -0.004,-6.95117 4.2614,1.35251 19.32621,2.86321 29.86328,2.99414 7.25033,0.0901 11.6766,0.56723 12.45117,1.3418 0.66093,0.66093 2.3475,1.20589 3.75,1.21289 3.3206,0.0154 10.19007,1.95722 22.55078,6.37305 10.22581,3.65313 13.5,4.30948 13.5,2.70898 0,-1.34843 -16.16331,-7.1075 -29.75391,-10.60156 -11.02436,-2.8343 -12.40318,-3.5203 -9.35351,-4.64844 1.33562,-0.49408 6.12734,-0.20264 11.91992,0.72266 5.32803,0.85109 12.8375,2.04205 16.6875,2.64843 9.34598,1.47199 10.31942,2.06909 10.68945,6.53907 0.24364,2.94316 0.70962,3.7129 2.16797,3.58984 1.35708,-0.11451 1.55889,0.14033 0.75,0.94922 -1.48906,1.48906 -1.40476,4.43735 0.14258,4.96875 0.6875,0.23611 1.57492,-0.40641 1.97266,-1.42969 0.39773,-1.02327 1.74773,-2.25354 3,-2.73242 3.22002,-1.23138 6.12757,-4.74578 5.42968,-6.56445 -0.32488,-0.84663 -0.20635,-3.59736 0.26368,-6.11328 0.62693,-3.35582 0.48028,-5.32382 -0.54883,-7.38672 -1.04018,-2.08508 -1.13933,-3.50364 -0.38477,-5.48828 1.36862,-3.59977 1.28385,-4.54688 -0.41015,-4.54688 -2.54815,0 -4.21475,2.64587 -3.86524,6.13672 0.98325,9.82039 0.50743,15.83422 -1.50195,19.00781 l -2.04492,3.22852 -0.62305,-3.93555 c -0.34346,-2.16531 -2.18127,-8.79658 -4.08203,-14.73633 -4.5458,-14.20536 -4.50796,-15.40727 0.53515,-17.52539 2.19441,-0.92166 3.994,-2.16641 4,-2.76562 0.0111,-1.18452 4.2522,-3.41016 6.49805,-3.41016 4.41444,0 1.2679,-6.06382 -4.73633,-9.12695 -3.62759,-1.85066 -3.80035,-2.1179 -2.14257,-3.33008 1.66586,-1.21813 1.70173,-1.83559 0.47656,-8.17969 -0.72895,-3.77457 -2.54314,-8.88828 -4.03321,-11.36328 -1.49007,-2.475 -3.55185,-6.75 -4.58007,-9.5 -1.02823,-2.75 -2.90393,-6.97902 -4.16993,-9.39844 -1.266,-2.41942 -2.30273,-5.3677 -2.30273,-6.55078 0,-1.18308 -0.51988,-2.67027 -1.1543,-3.30469 -0.63443,-0.63443 -1.1138,-2.51562 -1.0664,-4.18164 0.0474,-1.66601 -0.33276,-3.28846 -0.84571,-3.60547 C 271.42085,254.14192 271,252.96588 271,251.8457 c 0,-1.12018 -0.62469,-3.23154 -1.38867,-4.6914 -1.43501,-2.74211 -6.0576,-17.36375 -7.16211,-22.6543 -0.82069,-3.93104 -3.36109,-12.46817 -4.46289,-15 -0.47869,-1.1 -1.17772,-3.55985 -1.55469,-5.4668 -0.37696,-1.90694 -1.02005,-4.15694 -1.42773,-5 -1.74668,-3.61195 -3.94489,-11.31881 -3.45508,-12.11132 0.61336,-0.99246 -3.47499,-11.10045 -4.87891,-12.0625 -0.51566,-0.35338 0.20418,-2.15032 1.60352,-4 2.99634,-3.96065 4.88508,-14.67139 4.42773,-25.11133 -0.1631,-3.72309 0.16637,-7.2152 0.73438,-7.78321 0.70694,-0.70694 0.40746,-1.19308 -0.95313,-1.54882 -1.57935,-0.41294 -1.96544,-1.33322 -1.90234,-4.52344 0.0563,-2.84669 -0.42669,-4.27605 -1.66992,-4.94141 -0.96201,-0.51485 -2.28166,-2.62664 -2.93164,-4.69336 -2.15454,-6.85065 -4.45656,-11.21388 -6.22852,-11.80664 -0.9625,-0.32198 -1.75,-1.24079 -1.75,-2.04101 0,-0.80023 -1.8,-3.40822 -4,-5.79493 -2.2,-2.38672 -4,-4.640317 -4,-5.009761 C 230,96.740338 218.29508,85.77761 216.13867,84.623047 215.23719,84.140384 212.925,82.26246 211,80.451172 204.14282,73.999051 203.12677,73.13846 201.07617,72.041016 199.93454,71.430033 199,70.389901 199,69.730469 c 0,-0.659431 -1.2375,-3.580246 -2.75,-6.490235 -2.36288,-4.546079 -2.53884,-5.422142 -1.25,-6.228515 0.825,-0.516167 1.52183,-1.29205 1.54883,-1.72461 0.027,-0.432561 0.41074,-1.847453 0.85156,-3.142578 0.64994,-1.909546 0.15046,-3.043988 -2.64062,-6 -1.89301,-2.004875 -4.17227,-5.25308 -5.06446,-7.21875 -1.11313,-2.452426 -2.96674,-4.229838 -5.9082,-5.666015 -4.45688,-2.17608 -7.53101,-2.959345 -12.67773,-2.771485 z m -6.91407,3.564453 c 0.47996,-0.0034 1.02895,0.229398 1.78125,0.699219 1.05914,0.661444 4.53497,1.172979 7.72461,1.136719 3.18963,-0.03626 6.99027,0.395152 8.44727,0.958984 2.48117,0.960172 5.85156,4.632218 5.85156,6.375 0,1.149915 -1.91783,0.837158 -7.5,-1.222656 -6.30358,-2.326012 -17.68627,-2.523631 -25.69922,-0.447266 -3.29384,0.853519 -6.43473,1.401964 -6.97851,1.220704 C 146.1671,42.221716 156.60848,36 159.18945,36 c 1.32566,0 2.96104,-0.550877 3.63477,-1.224609 0.47854,-0.478545 0.89114,-0.719255 1.37109,-0.722657 z m 5.61328,9.257813 c 6.06286,0.11199 11.60605,1.159967 14.69141,3.109375 1.1,0.695006 3.2375,1.568924 4.75,1.941406 3.03743,0.748026 3.87195,4.271207 1.25,5.277344 -1.9308,0.740917 -1.89719,1.821565 0.11914,3.83789 1.9719,1.971903 1.03434,3.310455 -1.08594,1.550782 -2.07096,-1.718744 -14.71415,-4.023991 -22.07226,-4.025391 -3.32195,-6.48e-4 -8.72195,0.69718 -12,1.550781 -3.27806,0.8536 -7.87344,2.671432 -10.21094,4.041016 L 141,63.083984 v -2.613281 c 0,-1.43747 -0.69831,-3.31159 -1.55078,-4.164062 -3.4029,-3.402902 -0.25965,-6.027696 12.55078,-10.486329 5.16322,-1.797043 11.74574,-2.621755 17.80859,-2.509765 z m -4.85351,13.880859 c 2.19377,-0.04477 3.33383,0.773163 6.74023,3.638672 4.78741,4.027229 6.76985,5.075085 15.30078,8.083984 2.98105,1.05143 4.62191,2.259932 4.86719,3.585938 0.36452,1.97073 0.33917,1.972819 -1.74609,0.0957 C 188.02757,70.714673 188,70.71781 188,72.845703 188,74.030947 188.34012,75 188.75586,75 c 0.41574,0 1.3542,1.352743 2.08594,3.005859 1.88281,4.253545 3.48996,2.687136 2.69336,-2.625 C 193.17376,72.970887 193.27983,71 193.77148,71 c 0.49165,0 2.32028,1.774923 4.06446,3.945312 l 3.17187,3.947266 -3.42383,2.611328 c -3.00805,2.294354 -3.6856,2.453734 -5.5625,1.304688 -1.17518,-0.719449 -2.84928,-2.797589 -3.7207,-4.617188 -1.12368,-2.346344 -1.89477,-2.9978 -2.65234,-2.240234 -0.75756,0.757567 -0.53021,2.010601 0.7832,4.308594 1.01855,1.782103 1.24792,2.677734 0.50977,1.990234 -1.83169,-1.70599 -3.00267,-1.572459 -2.29883,0.261719 0.41499,1.081445 0.12175,1.335026 -1.03125,0.892578 -2.15432,-0.826689 -2.078,1.384501 0.13867,4.017578 1.74572,2.073657 1.74531,2.072848 -0.48047,0.189453 -1.83724,-1.554614 -2.50295,-1.663491 -3.76367,-0.617187 -1.16541,0.967199 -1.26025,1.59792 -0.39648,2.638671 C 179.7335,90.384839 180.84959,91 181.58789,91 c 0.73831,0 1.83968,0.929152 2.44727,2.064453 0.85873,1.604547 1.72093,1.928192 3.875,1.455078 1.72393,-0.378637 3.16987,-0.119739 3.82617,0.685547 0.58023,0.711952 4.09011,7.257422 7.80078,14.544922 6.17509,12.12747 8.35923,14.84612 9.9082,12.33984 0.56748,-0.91819 -6.90108,-14.70009 -13.74219,-25.359371 -2.03651,-3.17318 -3.69554,-6.09818 -3.68554,-6.5 0.01,-0.401821 1.84221,-2.245545 4.07226,-4.097657 l 4.05469,-3.367187 3.125,2.867187 c 14.41592,13.227477 20.43651,20.341288 24.75195,29.249998 3.09721,6.39382 5.65827,8.23943 4.67188,3.36719 -1.21965,-6.02439 -8.3523,-15.9127 -19.11133,-26.494141 -6.00878,-5.909599 -10.65236,-11.019514 -10.31836,-11.353515 0.70933,-0.709324 1.88341,0.102793 11.53516,7.960937 3.96043,3.224451 7.20117,6.208912 7.20117,6.632813 0,0.423902 0.89686,1.00458 1.99219,1.291015 1.09532,0.286434 2.78282,1.981668 3.75,3.765621 0.96717,1.78396 2.93985,4.63946 4.38476,6.34571 3.87674,4.57794 11.76676,21.53152 13.14844,28.2539 1.5135,7.36379 1.37875,24.83498 -0.22851,29.70508 -0.889,2.69359 -2.26282,4.22278 -5.0918,5.66602 -5.51389,2.81297 -6.55987,2.44612 -2.69727,-0.94532 2.19321,-1.92564 3.92707,-4.82529 5.08789,-8.50781 1.88172,-5.96952 1.61026,-7.57031 -1.2832,-7.57031 -2.62614,0 -4.37626,2.58089 -3.79883,5.60156 0.38464,2.01209 -0.44943,3.75997 -3.63086,7.59571 -3.98123,4.80005 -10.63381,9.8986 -10.63281,8.15039 2.8e-4,-0.46651 0.93622,-3.31075 2.08008,-6.32032 2.2703,-5.97328 2.01368,-12.0102 -0.73633,-17.32812 -1.71318,-3.31293 -3.96799,-3.05788 -3.56055,0.40234 0.62863,5.3386 0.25059,14.05842 -0.77343,17.86133 -0.82954,3.08069 -1.58133,4.03711 -3.17579,4.03711 -1.8796,0 -2.02438,-0.40404 -1.44531,-4.02539 0.50917,-3.18414 0.30432,-4.1557 -0.97461,-4.64649 -2.28603,-0.87725 -3.34912,1.40979 -2.32226,4.99024 1.77842,6.20099 -2.03599,4.63909 -5.82032,-2.38281 C 202.46721,159.87667 195.31367,149.02221 192.47461,146 190.19841,143.57697 182,127.12651 182,124.98242 c 0,-0.58382 -0.93552,-2.89709 -2.08008,-5.14062 -1.25713,-2.46417 -1.72023,-4.44188 -1.16797,-4.99414 0.55225,-0.55225 1.60515,0.78172 2.66016,3.36914 1.82774,4.48259 2.65474,6.14548 8.33398,16.7832 4.11638,7.71034 5.19661,9.15365 6.33008,8.45312 0.46717,-0.28872 -0.0784,-2.19557 -1.21289,-4.23828 -4.30265,-7.74742 -5.88675,-10.92064 -8.8457,-17.71484 -1.67673,-3.85 -3.45905,-7.72917 -3.96094,-8.62109 -0.57695,-1.02531 -0.52189,-2.01523 0.15234,-2.68946 0.7552,-0.7552 2.32089,0.88674 5.36329,5.62305 2.36286,3.67843 5.48956,8.2625 6.94726,10.1875 1.4577,1.925 4.44754,6.0875 6.64453,9.25 2.5135,3.61811 4.70536,5.75 5.91406,5.75 2.42258,0 2.47821,-2.44367 0.10938,-4.8125 -1.77705,-1.77705 -10.66628,-13.24433 -18.79492,-24.24609 l -4.10742,-5.56055 2.26172,-2.83789 2.26171,-2.83594 3.84375,6.14649 c 3.76202,6.01834 5.34766,7.4536 5.34766,4.84179 0,-1.66333 -5.13264,-9.76332 -7.33008,-11.56836 C 189.75099,99.37211 189,98.080859 189,97.255859 c 0,-2.143984 -2.85775,0.330042 -4.27734,3.703121 -1.00678,2.39221 -1.12674,2.23341 -2.03711,-2.70898 -0.53186,-2.8875 -1.35353,-5.25 -1.82617,-5.25 -1.33388,0 -1.01676,3.377888 0.70312,7.49414 1.54485,3.69735 1.36346,6.50586 -0.41992,6.50586 -0.50615,0 -0.87145,-0.5625 -0.81055,-1.25 0.0609,-0.6875 -0.47349,-3.84843 -1.1875,-7.025391 -0.99964,-4.44785 -1.68197,-5.712757 -2.9707,-5.5 -1.11348,0.183825 -1.57635,-0.310326 -1.38086,-1.474609 0.21871,-1.302573 -0.38651,-1.75 -2.37109,-1.75 -1.97811,0 -2.41892,0.322624 -1.70704,1.25 0.63007,0.820786 0.50502,2.108427 -0.36328,3.75 -1.2986,2.455171 -1.32144,2.459654 -1.33594,0.25 C 169.00753,94.0125 168.55,93 168,93 c -1.03596,0 -1.30637,1.079511 -1.125,4.5 0.0885,1.669547 -0.0611,1.600687 -0.91406,-0.419922 -0.87908,-2.082535 -0.57132,-2.885481 2.20508,-5.75 C 170.31159,89.116409 172.33111,88 174.19531,88 c 3.25259,0 3.55018,-1.016588 0.97657,-3.345703 -2.48342,-2.247466 -3.86732,-2.087737 -7.35352,0.845703 -1.63409,1.375 -4.04388,2.5 -5.35352,2.5 -2.78383,0 -10.99424,-7.335106 -10.0039,-8.9375 1.23724,-2.001902 3.37709,-1.060634 5.53906,2.4375 1.18972,1.925 2.84495,3.5 3.67773,3.5 C 163.97617,85 169,81.74388 169,80.253906 c 0,-2.1183 -2.72158,-2.562732 -5.17578,-0.84375 C 162.57634,80.284211 161.23882,81 160.85156,81 160.46431,81 158.73073,78.525 157,75.5 153.9254,70.126165 153.75108,70 149.39453,70 c -3.70152,0 -4.6056,-0.382154 -5.32226,-2.25 -1.2719,-3.314932 0.72672,-4.826547 2.64453,-2 1.59479,2.350474 4.87486,3.17327 3.98632,1 -0.28105,-0.6875 -0.82824,-2.0375 -1.21484,-3 -1.11562,-2.77743 1.4061,-2.075235 2.69336,0.75 0.6265,1.375 1.7418,2.5 2.47852,2.5 1.70174,0 1.68218,-0.439384 -0.19141,-4.0625 -1.47157,-2.845711 -1.43984,-2.998502 0.83984,-3.865234 1.30544,-0.496329 4.44619,-1.212051 6.97852,-1.591797 1.08816,-0.163181 1.93671,-0.274138 2.66797,-0.289063 z m 15.36719,3.013672 c 0.20613,0.02613 0.50254,0.219344 0.86132,0.578125 0.65087,0.650834 0.95019,1.415053 0.66602,1.699219 C 181.18222,63.149813 180,61.967593 180,60.632812 c 0,-0.313302 0.11613,-0.453864 0.32227,-0.427734 z m 9.05273,0.337891 c 1.16602,-0.09917 3.06054,0.718149 3.85938,1.884765 1.31328,1.917958 0.74116,3.12453 -0.62696,1.322266 -0.73064,-0.9625 -1.70611,-1.75 -2.16797,-1.75 -0.46187,0 -0.29867,0.539219 0.36133,1.199219 0.66,0.66 1.19922,1.785 1.19922,2.5 0,0.715 -0.37813,1.300781 -0.83984,1.300781 -1.15128,0 -3.31446,-4.940973 -2.64063,-6.03125 0.15904,-0.257334 0.4668,-0.392726 0.85547,-0.425781 z m -26.52148,1.136719 c -0.86722,0.06742 -1.6343,0.230572 -2.16016,0.505859 -2.75755,1.443562 -3.6646,4.899382 -2.09375,7.974609 0.74721,1.46281 1.92994,2.849041 2.62891,3.082032 1.26547,0.421824 9.46993,-2.736547 11.15625,-4.294922 1.1301,-1.044348 -1.31544,-3.420806 -3.63477,-3.53125 -5.60109,-0.266719 -6.75,-0.522151 -6.75,-1.503907 0,-0.720741 1.39307,-0.85251 4.12695,-0.390625 2.64948,0.447628 3.90615,0.341319 3.51172,-0.296875 -0.67196,-1.087269 -4.18351,-1.747191 -6.78515,-1.544921 z m 22.40429,0.474609 c 0.16085,0.03561 0.42751,0.420533 0.86328,1.169922 0.58366,1.003751 0.87047,2.016251 0.63672,2.25 -0.70873,0.708729 -1.75886,-0.806155 -1.72656,-2.490235 0.0125,-0.650153 0.0657,-0.965296 0.22656,-0.929687 z M 177.98828,73 c -3.07471,0 -3.36055,2.285029 -0.78906,6.3125 2.32834,3.646652 4.80078,4.8365 4.80078,2.310547 0,-0.757656 -0.70409,-1.961748 -1.56445,-2.675781 -0.99294,-0.824051 -1.35074,-2.147775 -0.98047,-3.623047 C 179.92348,73.457963 179.63471,73 177.98828,73 Z m 19.36328,13.365234 c -0.66426,0.118431 0.14511,1.538083 2.82227,5.470704 5.74479,8.438842 6.42751,9.603752 9.3164,15.914062 2.7002,5.89816 4.50977,7.87977 4.50977,4.9375 0,-3.79422 -12.58061,-24.929461 -15.50781,-26.052734 -0.53475,-0.205204 -0.91921,-0.309008 -1.14063,-0.269532 z m -11.05664,0.0059 c 0.23861,-0.238606 1.17962,0.705491 2.0918,2.097656 0.91221,1.392164 1.30733,2.53125 0.87695,2.53125 -0.97362,0 -3.56195,-4.035706 -2.96875,-4.628906 z M 161.88281,98 c 0.55,0 1.27727,0.45 1.61719,1 0.33992,0.55 0.16719,1 -0.38281,1 -0.55,0 -1.27727,-0.45 -1.61719,-1 -0.33992,-0.55 -0.16719,-1 0.38281,-1 z m 11.8086,0.462891 c 0.22058,0.06136 0.42684,0.401718 0.66992,1.035156 1.08925,2.838543 0.74567,3.835643 -0.86133,2.501953 -1.03636,-0.8601 -1.5,-0.89856 -1.5,-0.12305 0,2.18191 -1.77321,1.08897 -2.24609,-1.38476 -0.40011,-2.09306 -0.24176,-2.31098 0.95898,-1.314456 1.12101,0.930356 1.61347,0.912686 2.22461,-0.07617 0.29839,-0.482804 0.53333,-0.700036 0.75391,-0.638671 z m -14.61914,2.082029 c 0.4792,0.29617 1.7885,2.61278 2.91015,5.14844 l 2.03906,4.60937 -4.26562,4.09961 c -2.34653,2.25406 -8.21199,7.90034 -13.0332,12.54688 l -8.76563,8.44726 0.38281,-5.16992 c 0.30718,-4.14531 1.30608,-6.53297 5.03125,-12.03515 5.75774,-8.50437 14.53402,-18.367823 15.70118,-17.64649 z m 6.97461,0.0977 c 1.47207,0.4171 3.31828,3.98255 4.58984,9.04883 0.86543,3.44816 -0.30175,2.80065 -3.18555,-1.76758 -3.53668,-5.60247 -3.80563,-6.57453 -2.00976,-7.26367 0.19225,-0.0738 0.39516,-0.0772 0.60547,-0.0176 z M 215.07617,103 c -0.40904,0 -0.99609,0.2539 -1.30664,0.56445 -0.59798,0.59797 6.5446,14.88865 8.71485,17.43555 0.70295,0.825 1.58772,2.5125 1.96484,3.75 0.80353,2.63677 4.55078,3.12557 4.55078,0.59375 0,-0.91058 -1.125,-3.13087 -2.5,-4.93359 -1.375,-1.80272 -2.5,-3.54201 -2.5,-3.86719 C 224,115.41843 215.81713,103 215.07617,103 Z M 95.132812,120.8125 c 4.495171,0.0109 5.497928,2.29359 0.617188,3.73047 -2.237914,0.65884 -3.350274,1.6577 -3.570312,3.20703 -0.20536,1.44596 -1.009401,2.25 -2.25,2.25 -3.846772,0 -0.952439,-8.52449 3.070312,-9.04297 0.77777,-0.10024 1.490645,-0.14609 2.132812,-0.14453 z M 85.75,133.44727 c 4.486578,0.34802 10.25,1.72556 10.25,2.44921 0,1.23178 6.42204,4.48701 9.98633,5.0625 3.46781,0.55992 3.52026,0.64387 4.02539,6.30469 0.57137,6.40313 0.30077,6.58105 -7.01172,4.61524 -6.912427,-1.85826 -11,-4.12192 -11,-6.0918 0,-1.68866 0.505642,-1.83307 4.380859,-1.25195 2.794635,0.41908 4.629721,0.25613 5.064451,-0.44727 0.70178,-1.13551 0.0533,-1.48162 -4.728513,-2.53125 -1.616547,-0.35485 -3.257998,-1.64836 -3.912109,-3.08398 C 92.002846,136.71281 90.884794,136 88.921875,136 85.673643,136 83,135.10141 83,134.00977 c 0,-0.4268 1.2375,-0.67982 2.75,-0.5625 z m 29.80859,6.66796 c 0.22853,-0.0489 0.50617,0.17903 0.83008,0.70313 0.28957,0.46854 0.17426,3.73964 -0.25586,7.26758 l -0.78125,6.41406 -0.42578,-6.84766 c -0.29422,-4.73663 -0.0528,-7.39044 0.63281,-7.53711 z m -27.642574,3.00782 c 0.347396,0.0143 0.646354,0.10729 0.8125,0.27343 0.332291,0.33229 -0.258334,0.56879 -1.3125,0.5254 -1.164943,-0.048 -1.401249,-0.28625 -0.603516,-0.60547 0.360938,-0.14446 0.75612,-0.20767 1.103516,-0.19336 z m 60.230464,0.0644 c -4.80479,-0.34494 -5.54102,1.67656 -1.07226,2.94531 3.46478,0.98371 5.42578,0.56984 5.42578,-1.14648 0,-1.03964 -1.30783,-1.58018 -4.35352,-1.79883 z M 181.68555,145 c -1.71093,0 -1.84076,0.50221 -1.23438,4.75 0.37293,2.6125 1.40693,7.1125 2.29688,10 1.57936,5.12429 3.25195,6.95247 3.25195,3.55273 0,-0.93396 -0.54099,-5.43396 -1.20117,-10 C 183.77351,146.21129 183.3198,145 181.68555,145 Z m -91.49805,5 c 0.912182,0 1.85621,2.17983 2.707031,6.25 0.718569,3.4375 1.931531,8.05 2.695313,10.25 0.763783,2.2 2.062825,11.425 2.888672,20.5 1.525534,16.76368 3.743924,37.41996 5.474604,51 0.9208,7.22497 1.6386,18.75525 2.55469,41 0.73199,17.77427 0.55141,43.72382 -0.41992,60.5 -1.0696,18.47331 -1.6399,20.87304 -4.58789,19.2832 -1.1,-0.59323 -2.127993,-1.17695 -2.285156,-1.29882 -0.157162,-0.12188 0.466287,-3.76902 1.386716,-8.10352 1.92893,-9.08375 2.07495,-18.61277 1.04883,-68.38086 -0.6053,-29.35757 -3.604916,-78.68022 -5.197265,-85.45898 C 96.189419,194.4184 94.661774,184.5 93.058594,173.5 91.455415,162.5 89.838448,152.7125 89.464844,151.75 89.01572,150.59294 89.261382,150 90.1875,150 Z m 73.13477,0.20508 c 0.20613,0.0261 0.50254,0.21934 0.86132,0.57812 0.65087,0.65084 0.95019,1.41506 0.66602,1.69922 -0.28417,0.28417 -0.81693,0.21823 -1.18359,-0.14844 C 163.29935,151.96732 163,151.20115 163,150.63281 c 0,-0.3133 0.11613,-0.45386 0.32227,-0.42773 z m -64.326176,4.08789 c 0.487071,-0.0316 1.194366,0.1555 2.144526,0.33008 4.23548,0.77818 9.76457,3.33679 22.17969,10.26172 8.44144,4.70848 9.73534,5.7659 9.22071,7.54492 -2.88058,9.958 -7.34805,54.57048 -7.4668,74.57031 -0.10691,18.00589 -1.09933,32.20719 -2.36133,33.79297 -0.71312,0.89609 -0.67374,1.64657 0.12891,2.44922 0.63669,0.63669 1.1582,1.74203 1.1582,2.45703 0,0.715 -0.3375,1.25702 -0.75,1.20312 -3.81189,-0.49793 -13.01322,-2.63531 -14.01562,-3.25586 -2.62444,-1.62464 0.0538,-2.86667 4.82031,-2.23437 2.76772,0.36716 5.05114,0.22405 5.39843,-0.33789 0.54712,-0.88522 -1.89838,-1.56548 -8.28124,-2.30469 -2.27989,-0.26403 -2.33024,-0.50031 -2.34376,-11.26953 -0.0125,-9.98662 -1.83492,-33.88337 -3.85156,-50.5 -0.43388,-3.575 -1.49456,-14.92755 -2.35742,-25.22852 -0.86286,-10.30097 -2.07785,-21.55097 -2.701171,-25 -1.864107,-10.31483 -2.38309,-12.38364 -0.921875,-12.47851 z m 66.728516,4.91601 c 0.52463,-0.01 1.31634,0.40229 2.01367,1.09961 1.80738,1.80739 0.72559,2.27014 -1.70898,0.73047 -0.80909,-0.51167 -1.13624,-1.26612 -0.72657,-1.67578 0.10242,-0.10242 0.247,-0.15111 0.42188,-0.1543 z M 166.37695,164 c 1.25527,0 7.59801,3.15067 8.1543,4.05078 0.36769,0.59493 0.51093,1.22054 0.31836,1.38867 C 174.12317,170.07366 166,166.0362 166,165.04102 166,164.46846 166.16911,164 166.37695,164 Z m -12.6582,0.11719 c 0.42383,-0.0271 0.76216,0.0317 0.91211,0.18164 0.29987,0.2999 0.39315,1.27821 0.20703,2.17383 -0.3018,1.45227 -0.55419,1.46721 -2.33789,0.14843 -1.88129,-1.39092 -1.89373,-1.52011 -0.20703,-2.17382 0.49311,-0.19112 1.00195,-0.30295 1.42578,-0.33008 z m 4.79297,1.35742 c 0.1678,-0.0701 0.49059,-0.0262 0.93555,0.14453 0.85357,0.32755 1.55273,0.77212 1.55273,0.98828 0,0.80991 -1.90493,0.35451 -2.49219,-0.5957 -0.17517,-0.28343 -0.16407,-0.46703 0.004,-0.53711 z M 197.80469,167 c 1.13715,0 3.19531,4.53927 3.19531,7.04688 0,1.07409 -0.45,1.95312 -1,1.95312 -0.55,0 -1,-1.15525 -1,-2.56641 0,-1.41116 -0.46581,-3.43616 -1.03516,-4.5 C 197.39549,167.86975 197.32362,167 197.80469,167 Z m -3.91797,1.42969 c 0.4686,0.2896 1.42574,1.90949 2.125,3.59765 1.17886,2.84603 1.06386,3.28398 -1.56445,6.02735 -2.18682,2.28254 -2.56383,3.22914 -1.64844,4.14453 0.91539,0.91539 1.82111,0.71825 3.96289,-0.86524 4.0731,-3.01137 7.23828,-3.84381 7.23828,-1.90234 0,0.9157 0.85567,1.56836 2.05859,1.56836 1.13246,0 1.8356,0.36085 1.5625,0.80273 -1.02598,1.66007 -2.04513,26.39668 -1.86328,45.19727 0.23687,24.48798 1.17708,34.5 3.24219,34.5 1.05449,0 1.36445,-0.74244 1.04492,-2.5 -0.24998,-1.375 -0.42211,-19.08707 -0.38281,-39.35938 0.0574,-29.60561 0.33368,-37.02071 1.40625,-37.68359 0.73444,-0.4539 1.64868,-0.63097 2.03125,-0.39453 0.38257,0.23644 0.44911,9.54382 0.14648,20.68359 -0.90146,33.18231 -0.92284,32.25391 0.74219,32.25391 2.11578,0 2.88846,-6.70533 3.22656,-28 0.2669,-16.81009 -0.25357,-25.13515 -1.71875,-27.50586 -0.35103,-0.56798 0.5945,-0.99414 2.20899,-0.99414 2.35742,0 3.1365,0.70107 4.71875,4.25 1.04215,2.3375 2.1037,6.85911 2.35937,10.04883 0.3744,4.67095 0.78007,5.74065 2.08985,5.49219 2.27528,-0.4316 2.67686,-8.72695 0.70312,-14.51954 -1.73882,-5.10316 -1.41394,-6.27627 1.73242,-6.26367 2.67484,0.0107 8.89343,9.16559 11.25,16.5625 2.53626,7.96089 4.36795,15.72648 4.40625,18.67969 0.0222,1.71124 0.57989,2.75 1.47657,2.75 2.46021,0 2.62302,-1.57779 0.94531,-9.16211 -0.89275,-4.03581 -1.944,-9.21964 -2.33594,-11.51953 -0.39195,-2.2999 -2.59471,-7.43195 -4.89453,-11.4043 -2.29982,-3.97235 -4.00674,-7.39755 -3.79297,-7.61133 0.21378,-0.21377 1.98023,-0.64717 3.92578,-0.96289 l 3.53711,-0.57422 0.63281,5.86719 c 0.80573,7.46899 2.16379,13.20233 5.06055,21.36719 1.26836,3.575 2.81553,8.975 3.4375,12 1.46378,7.11924 3.21087,13.23712 4.14063,14.50195 0.40533,0.55141 2.12491,5.72641 3.82226,11.5 1.69736,5.7736 3.50671,11.39805 4.01953,12.49805 0.51282,1.1 1.61336,4.25 2.44727,7 1.84098,6.07105 5.71221,16.73305 7.80664,21.5 0.84578,1.925 3.44933,7.72214 5.78516,12.88281 2.33584,5.16066 4.49084,11.18969 4.7871,13.39844 l 0.53711,4.01758 -5.32421,-0.70703 c -2.92854,-0.38849 -6.21069,-1.18145 -7.29493,-1.76172 -1.42124,-0.76063 -3.11816,-0.69688 -6.07812,0.23047 -5.46177,1.71118 -6.6958,2.92515 -3.05469,3.00195 4.80072,0.1012 11.69923,0.97757 15.45313,1.96289 4.52398,1.18745 10.8698,6.42638 9.49609,7.83984 -1.39279,1.4331 -21.13678,2.21173 -26,1.02539 -2.2,-0.53667 -6.25,-1.37667 -9,-1.86523 -2.75,-0.48856 -7.57585,-1.81917 -10.72461,-2.95703 -6.85683,-2.47783 -12.77039,-2.63823 -17.33398,-0.47266 -2.27248,1.0784 -5.07348,1.44885 -8.65039,1.14649 -5.086,-0.42991 -16.59868,-3.41237 -17.93555,-4.64649 -0.35499,-0.32771 -0.91909,-5.0957 -1.25195,-10.5957 -0.33287,-5.5 -0.83165,-12.025 -1.10938,-14.5 -0.27774,-2.475 -0.70975,-13.275 -0.95898,-24 -0.39373,-16.94285 -1.17679,-35.40398 -3.03321,-71.49414 -0.25443,-4.94637 -0.88294,-9.13351 -1.39648,-9.30469 -1.48012,-0.49337 -10.87626,4.75998 -11.52149,6.44141 -0.32094,0.83637 -0.5916,2.49693 -0.5996,3.68945 -0.008,1.19251 -0.49469,2.84297 -1.08008,3.66797 -1.09122,1.53788 -0.74878,-3.01893 0.69336,-9.25 0.48935,-2.11432 0.26807,-2.75 -0.95508,-2.75 -1.90921,0 -4.10895,3.9956 -5.71875,10.38867 -0.66935,2.65824 -1.6675,4.51801 -2.30274,4.29102 -1.68734,-0.60293 -0.95374,-4.5212 2.04493,-10.91797 2.56678,-5.47547 2.71049,-7.7312 0.40234,-6.30469 -0.58507,0.3616 -2.26698,3.11632 -3.73828,6.12109 -1.47131,3.0048 -3.34653,6.01718 -4.16797,6.69336 -1.28667,1.05914 -1.39409,0.81302 -0.77734,-1.77148 1.12472,-4.71315 7.37887,-13.15892 10.79101,-14.57227 1.68783,-0.69912 6.3973,-3.4666 10.46484,-6.14843 4.06757,-2.68183 7.7775,-4.63922 8.2461,-4.34961 z m 9.50586,0.27734 c 0.21332,0.15034 0.67612,0.8987 1.45703,2.29297 1.07802,1.92478 1.75116,3.83728 1.49609,4.25 -0.86063,1.39253 -2.34557,0.76297 -2.35937,-1 -0.008,-0.9625 -0.25679,-2.875 -0.55469,-4.25 -0.21579,-0.99602 -0.25231,-1.44331 -0.0391,-1.29297 z M 167.44336,169 c 0.71945,0 7.55664,4.16179 7.55664,4.59961 0,0.84309 -2.61129,0.25964 -5.25,-1.17188 C 167.42614,171.16703 165.96802,169 167.44336,169 Z m -21.83008,0.2793 c 0.21738,0.21737 -0.96251,29.99431 -2.04883,51.7207 -0.86067,17.21322 -2.5626,70.60964 -3.04492,95.5 -0.11724,6.05 -0.28309,12.4625 -0.36719,14.25 L 140,334 h -7.13672 -7.13672 l 0.67188,-10.25 c 0.36931,-5.6375 0.88053,-24.65 1.13672,-42.25 0.65127,-44.74149 2.07398,-68.91204 4.85546,-82.5 0.84443,-4.125 1.96642,-10.24081 2.49219,-13.5918 1.92861,-12.29191 2.78974,-14.22351 6.83985,-15.34179 2.01619,-0.5567 3.76648,-0.91126 3.89062,-0.78711 z m 4.55274,0.18359 c 0.5755,-0.0706 1.58107,0.3226 2.87109,1.36719 1.23537,1.00034 2.05187,2.40493 1.8125,3.12304 -0.31142,0.93425 -1.2525,0.60479 -3.30664,-1.1621 -2.10011,-1.80645 -2.33613,-3.2104 -1.37695,-3.32813 z m 9.56054,1.17969 c 0.40659,0.019 0.9989,0.18616 1.77344,0.53906 1.375,0.6265 2.5,1.7418 2.5,2.47852 0,1.67974 -0.0778,1.67406 -2.77734,-0.2168 -2.25935,-1.58251 -2.71587,-2.85782 -1.4961,-2.80078 z m -0.41015,4.3789 c 2.31705,-0.0284 5.68359,1.75715 5.68359,3.01368 0,1.55145 -2.30265,1.07474 -5,-1.03516 -2.10308,-1.64505 -2.21105,-1.95982 -0.68359,-1.97852 z m 9.42382,0.2168 c 0.15205,-0.0517 0.32387,-0.0502 0.50977,0.0117 0.6875,0.22917 1.25,1.01667 1.25,1.75 0,0.73333 -0.5625,1.52083 -1.25,1.75 -0.74359,0.24786 -1.25,-0.46111 -1.25,-1.75 0,-0.96667 0.2841,-1.60647 0.74023,-1.76172 z m -18.67773,0.35938 c 1.39146,0.071 4.9375,2.44215 4.9375,3.51757 0,1.07172 -0.79739,1.04032 -3.75,-0.14648 -2.23066,-0.89662 -2.8186,-2.06616 -1.63477,-3.25 0.0942,-0.0942 0.24849,-0.13123 0.44727,-0.12109 z M 210,178.12891 c 0.45312,0 0.90625,0.0703 1.25,0.20898 0.6875,0.27741 0.125,0.50391 -1.25,0.50391 -1.375,0 -1.9375,-0.2265 -1.25,-0.50391 0.34375,-0.1387 0.79688,-0.20898 1.25,-0.20898 z m -50.45508,2.28125 c 1.78997,0.003 5.45508,2.25908 5.45508,3.61328 0,1.52864 -2.27043,1.10938 -4.88672,-0.90235 -1.6457,-1.26541 -2.01895,-2.06144 -1.20508,-2.56445 0.16298,-0.10073 0.38101,-0.14688 0.63672,-0.14648 z M 199.87305,181 c -2.38041,1.5e-4 -2.98693,3.8308 -2.95313,18.67188 0.0526,23.10026 2.61159,53.64089 5.19336,61.97851 1.80308,5.8228 2.67492,13.77419 1.77149,16.15039 -0.93934,2.47066 2.04934,8.91189 6.58789,14.19922 1.18028,1.375 3.69566,4.8513 5.58789,7.72461 3.10731,4.71842 5.56427,6.31854 7.19726,4.68555 0.32492,-0.32493 -0.83823,-2.496 -2.58398,-4.82422 C 208.8769,283.85299 207.5342,281.56342 207.42969,277 c -0.0567,-2.475 -0.8203,-8.1 -1.69727,-12.5 -4.71016,-23.63208 -5.15416,-28.45302 -5.19336,-56.25 -0.0211,-14.98752 -0.32085,-27.25002 -0.66601,-27.25 z m -49.83789,1 c 1.84217,0 5.96484,3.18993 5.96484,4.61523 0,1.62306 -1.61009,1.67839 -4.75,0.16407 C 149.00763,185.69784 148.06767,182 150.03516,182 Z m 9.60546,5.2207 c 0.49022,-0.24688 1.31946,0.19157 2.67969,1.22266 1.71437,1.29952 1.72487,1.56677 0.17774,4.55859 -2.07955,4.02141 -1.29164,6.38225 1.92383,5.76758 2.01024,-0.38428 2.46439,0.002 2.81445,2.38672 0.52184,3.55552 -1.09812,3.6846 -4.24219,0.33789 -1.29495,-1.37842 -4.71126,-3.83722 -7.5918,-5.46289 -6.17017,-3.48223 -8.04779,-5.64912 -4.05078,-4.67578 1.45674,0.35475 3.77344,0.9226 5.14844,1.26172 2.26378,0.55832 2.5,0.3221 2.5,-2.5 0,-1.71613 0.15041,-2.64961 0.64062,-2.89649 z M 188.57812,189 c 0.81774,0 1.37496,3.39679 1.76563,10.75 1.00869,18.98563 2.60061,56.23699 3.17187,74.25 0.52952,16.69583 1.37127,26.21977 3.49219,39.5 0.52703,3.3 1.67338,12.075 2.54688,19.5 0.87351,7.425 1.96671,13.8887 2.42969,14.36328 1.12314,1.15127 3.03906,-0.10512 2.50781,-1.64453 -0.59287,-1.71796 -2.48504,-27.05989 -2.05274,-27.49219 0.19584,-0.19584 2.06763,-0.0351 4.16016,0.35742 4.57281,0.85787 12.8941,8.19488 13.85156,12.2129 0.35435,1.487 0.87811,3.49062 1.16406,4.45312 0.83582,2.81341 -1.9421,2.06983 -5.17773,-1.38672 l -2.9375,-3.13867 2.78125,1.77344 c 3.08613,1.96748 4.70223,1.39181 2.73828,-0.97461 C 218.32381,330.68514 218.12908,330 218.58594,330 c 0.45686,0 -1.15691,-2.025 -3.58594,-4.5 -2.42903,-2.475 -4.74808,-4.5 -5.15234,-4.5 -0.62309,0 -0.48825,6.48975 0.16601,8 0.1191,0.275 0.14004,1.26431 0.0469,2.19922 -0.0995,0.99779 1.55299,2.84029 4.00195,4.46094 2.29463,1.51851 3.69642,2.91955 3.11523,3.11328 -0.58119,0.19373 -2.20864,-0.40326 -3.61718,-1.32617 C 211.32645,335.98346 211,335.96623 211,337.30078 c 0,1.90371 9.58674,9.07232 10.98047,8.21094 0.58767,-0.3632 1.01953,0.41948 1.01953,1.84766 0,1.36245 0.27357,3.18861 0.60742,4.05859 0.70287,1.83166 -2.19215,2.01757 -7.10742,0.45703 -1.65,-0.52385 -12.225,-1.72269 -23.5,-2.66406 L 172.5,347.5 171.87695,336 c -0.70017,-12.92966 -3.39277,-29.87888 -5.51172,-34.69336 -0.77307,-1.75648 -2.40834,-6.93148 -3.63476,-11.5 -1.8969,-7.06615 -2.22209,-10.78299 -2.17969,-24.88867 0.0517,-17.19334 0.71888,-21.92208 5.21094,-36.91797 3.06073,-10.2177 4.64635,-13.62413 8.0293,-17.24023 2.92528,-3.12688 2.26174,-5.02248 -0.79102,-2.25977 -2.81463,2.54721 -3.30286,1.47467 -1.4082,-3.0957 2.04309,-4.92842 1.84117,-4.77435 4.2539,-3.26758 1.72976,1.08025 2.35809,0.9894 4.10742,-0.59375 1.13553,-1.02763 2.58331,-3.70712 3.21876,-5.95508 C 184.33471,191.47416 186.36544,189 188.57812,189 Z m -1.35351,7.96094 c -0.081,0.052 -0.17132,0.16313 -0.27344,0.33008 -0.60248,0.985 -1.20392,2.8047 -1.33594,4.04296 -0.13202,1.23827 -0.60091,2.83284 -1.04101,3.54493 -0.44009,0.71208 -1.03237,6.43184 -1.31641,12.70898 C 182.90656,225.35062 183.08459,229 183.8125,229 c 2.16364,0 2.52284,-2.26295 3.6582,-23 0.37514,-6.85178 0.32065,-9.40296 -0.24609,-9.03906 z m -37.32813,0.31054 c 1.13242,0.20861 3.5837,1.67562 8.5586,4.91602 4.02824,2.62381 6.84958,5.21236 7.20312,6.60938 0.78242,3.09182 0.0182,3.60865 -2.01562,1.36132 -0.92322,-1.02015 -4.58474,-3.83709 -8.13672,-6.25781 -3.55198,-2.42072 -6.46932,-5.01146 -6.48242,-5.75781 -0.0118,-0.66957 0.19359,-0.99626 0.87304,-0.8711 z m 0.004,7.36914 c 1.19762,0.23382 3.61979,1.71629 9.06836,5.23438 3.0427,1.96464 5.92433,3.45419 6.4043,3.30859 0.47998,-0.1456 0.59248,0.46496 0.25,1.35743 -0.34247,0.89248 -0.62305,2.26099 -0.62305,3.04101 0,2.19417 -1.35707,1.69978 -4.5625,-1.66211 -1.6154,-1.69426 -5.04112,-4.44817 -7.61133,-6.11914 -2.88359,-1.87471 -4.4712,-3.55927 -4.14844,-4.40039 0.22658,-0.59045 0.50409,-0.90004 1.22266,-0.75977 z m -0.99805,6.91993 c 1.07706,-0.66566 13.04131,8.12813 13.82032,10.1582 0.85965,2.2402 -1.00169,3.34186 -3.36719,1.99219 C 150.21105,218.49353 148,216.69453 148,214.46484 c 0,-1.29028 0.40594,-2.59751 0.90234,-2.90429 z m -0.3164,9.60156 c 0.5852,0.0562 1.75509,0.73297 4.09375,2.08789 8.9466,5.18329 8.76167,4.88624 7.25195,11.69141 -0.73933,3.33257 -1.59223,6.05859 -1.89648,6.05859 -0.30425,0 -1.08599,-0.85123 -1.73633,-1.89258 -0.65033,-1.04135 -2.99853,-3.17885 -5.21875,-4.75 -2.22022,-1.57115 -4.0469,-3.64492 -4.0586,-4.60742 -0.0299,-2.44646 1.05075,-2.2044 5.92188,1.32422 2.33368,1.69051 4.43705,2.87937 4.67383,2.64258 1.07321,-1.0732 -1.12236,-3.74614 -5.18555,-6.31446 C 149.86681,225.78124 148,223.84266 148,222.80078 c 0,-1.13032 7.4e-4,-1.69487 0.58594,-1.63867 z M 250.15234,227 l 1.94922,5.54688 c 3.24698,9.23822 5.00404,18.42537 5.57227,29.1289 l 0.54101,10.17774 -3.43359,-1.55664 -3.43164,-1.55469 2.32422,-2.32617 c 2.49339,-2.4934 2.99644,-6.52522 1.35156,-10.85157 -1.6374,-4.3067 -2.73422,-2.89981 -3.45703,4.43555 -0.68214,6.9226 -0.72195,7 -3.62891,7 -1.6167,0 -2.93945,-0.40026 -2.93945,-0.89062 0,-2.34153 -16.34319,-3.60289 -18.16992,-1.40235 -1.82436,2.19768 0.0144,2.98506 8.38476,3.58985 12.7829,0.9236 25.0547,7.75288 29.84766,16.60937 1.06995,1.97707 2.92669,4.82464 4.125,6.32813 1.19831,1.50348 1.87423,3.03787 1.50195,3.41015 -0.37228,0.37228 -3.20302,0.11055 -6.28906,-0.58008 -3.5867,-0.80267 -5.95635,-0.90888 -6.57031,-0.29492 -1.02663,1.02663 3.47498,3.15906 10.88476,5.1543 4.38529,1.18084 12.28516,5.84521 12.28516,7.2539 0,0.4523 0.675,0.82227 1.5,0.82227 2.43218,0 1.76934,-1.48348 -3.06055,-6.85547 -2.50782,-2.78931 -5.69644,-7.20898 -7.08593,-9.82226 -2.76269,-5.19589 -7.60829,-11.87861 -10.49414,-14.47266 -1.55758,-1.40006 -1.70348,-2.35878 -0.96485,-6.3125 1.0086,-5.39873 0.075,-14.87674 -2.86133,-29.03711 -2.79092,-13.459 -2.80895,-13.5 -5.52539,-13.5 z m -65.82812,6 c -1.2356,0 -1.409,2.85066 -1.14063,18.75 0.28217,16.71661 0.11094,19.17725 -1.57031,22.6875 -2.47797,5.17367 -2.40534,10.60649 0.24414,18.5625 4.85419,14.57646 6.08453,18.96403 8.13086,29 1.17752,5.775 2.54539,11.85 3.04102,13.5 0.49564,1.65 1.15464,4.25602 1.46484,5.79102 0.97513,4.82531 2.24189,2.02024 1.35742,-3.00586 -0.46319,-2.63209 -1.27955,-7.48516 -1.81445,-10.78516 -2.45197,-15.12737 -7.46238,-36.67771 -10.12305,-43.54297 -0.74189,-1.91429 -0.55369,-3.52104 0.75977,-6.5 1.39718,-3.16886 1.78268,-7.24389 1.93555,-20.45703 0.22269,-19.24845 -0.22968,-24 -2.28516,-24 z m -36.46484,3 C 149.6524,236 158,244.25264 158,246.02539 c 0,3.23544 -1.37107,2.74248 -6.25,-2.25 C 147.38939,239.31331 145.73163,236 147.85938,236 Z m -0.0391,8 c 1.53057,0 9.17969,7.14795 9.17969,8.57812 0,2.22084 -2.16439,1.62865 -6.25,-1.70898 C 147.40974,248.14035 145.64388,244 147.82031,244 Z m 84.86133,7.2168 c -2.13147,0.009 -3.68164,2.18351 -3.68164,5.71679 0,2.7848 0.95173,2.56915 4.4707,-1.01562 2.46359,-2.50966 2.71979,-3.18561 1.5,-3.95703 -0.80375,-0.50831 -1.57857,-0.74703 -2.28906,-0.74414 z m -84.98242,1.45117 c 2.38371,-0.16367 8.30078,5.07482 8.30078,7.91601 0,3.19262 -0.99056,3.05115 -5.83984,-0.83398 -4.2483,-3.40365 -4.70484,-4.34162 -3.23828,-6.6582 0.16875,-0.2666 0.43681,-0.40045 0.77734,-0.42383 z M 146.75195,261 c 1.89954,0 9.24805,6.52773 9.24805,8.21484 0,2.41102 -2.01751,2.24515 -6.10156,-0.49804 -2.21148,-1.48542 -3.50891,-3.23121 -3.71485,-5 -0.17403,-1.49474 0.0818,-2.7168 0.56836,-2.7168 z m -0.85547,9.84766 c 1.45466,-0.15871 5.7733,1.8083 6.64258,3.21484 0.31839,0.51518 1.45199,0.9375 2.51953,0.9375 1.40371,0 1.94141,0.692 1.94141,2.5 0,3.03003 -0.5149,3.01792 -5,-0.11914 -5.64018,-3.94499 -7.11942,-5.37763 -6.5332,-6.32617 0.0725,-0.11727 0.22188,-0.18436 0.42968,-0.20703 z M 218.05078,278 c -0.72528,0 1.88682,8.1843 5.82422,18.25 1.19964,3.06681 3.22595,3.53841 5.16406,1.20312 1.06613,-1.2846 0.92368,-2.00356 -0.84179,-4.25 -1.16872,-1.48709 -3.73932,-5.51562 -5.71094,-8.95312 -1.97162,-3.4375 -3.96739,-6.25 -4.43555,-6.25 z m -70.81055,0.33984 c 1.09458,0.0742 2.52222,0.76674 4.20313,2.04883 1.88269,1.43599 4.01897,2.61133 4.74609,2.61133 0.72711,0 1.81351,1.575 2.41602,3.5 0.60252,1.925 0.82653,3.45283 0.49609,3.39453 -1.80622,-0.31891 -6.33781,-3.33635 -10.20508,-6.79492 -3.72765,-3.33371 -4.12933,-4.03768 -2.63671,-4.62695 0.28811,-0.11375 0.61561,-0.15756 0.98046,-0.13282 z m -1.29296,7.59766 c 1.80103,0.0923 7.48408,3.49011 11.05273,6.77344 0.825,0.75904 2.24148,1.9237 3.14844,2.58594 0.90697,0.66221 1.95076,2.21562 2.31836,3.45312 0.83443,2.80904 -0.0447,2.73251 -4.4336,-0.38281 -6.80559,-4.83075 -13.29195,-11.13877 -12.60156,-12.25586 0.0814,-0.13171 0.25834,-0.18702 0.51563,-0.17383 z m -34.0918,1.15234 c 1.38974,-0.0449 3.44139,0.34071 6.86523,1.13672 4.80787,1.11778 5.2793,1.47496 5.2793,4 0,1.52493 -0.3375,2.7199 -0.75,2.6543 -6.49624,-1.03247 -13.62965,-2.86207 -14.48047,-3.71289 -0.77871,-0.77871 -0.72422,-1.51704 0.19531,-2.625 0.7731,-0.93153 1.50089,-1.40826 2.89063,-1.45313 z m -81.236329,4.05274 c -1.465749,0.0914 -1.929063,0.50035 -2.251953,1.3418 -0.386286,1.00661 -0.08481,2.07154 0.728515,2.57421 0.763075,0.4716 2.291915,0.63154 3.396485,0.35547 3.067489,-0.76669 7.492194,-1.25834 13.007812,-1.44726 4.910278,-0.16819 4.937195,-0.18566 1.5,-1 -1.925,-0.45607 -6.756101,-1.13709 -10.736328,-1.51368 -1.576056,-0.14911 -2.821612,-0.25275 -3.8125,-0.30078 -0.743166,-0.036 -1.343449,-0.04 -1.832031,-0.01 z M 145.61133,292 c 0.33617,0 2.89408,1.9125 5.68555,4.25 5.28514,4.42566 8.06009,6.29763 10.85351,7.32422 0.90791,0.33366 1.8811,1.80299 2.16211,3.26562 0.28103,1.46263 0.37903,2.79403 0.21875,2.95704 -0.36298,0.36916 -13.05583,-9.18154 -16.78125,-12.62696 C 145.2578,294.86504 144.0728,292 145.61133,292 Z M 1.6660156,294.79297 C 0.21849504,294.86953 0,295.29751 0,296.21289 c 0,1.53331 0.95692919,1.79624 6.75,1.8457 3.7125,0.0317 8.55,0.42972 10.75,0.88477 5.710478,1.18117 5.707206,1.18021 5.257812,-0.16797 -0.508865,-1.52659 -5.01637,-2.60324 -15.007812,-3.58594 -1.7647975,-0.17357 -3.1319911,-0.29768 -4.1894531,-0.36133 -0.7930966,-0.0477 -1.4120244,-0.0607 -1.8945313,-0.0351 z M 81.511719,295.0957 C 70.813171,295.13688 59,296.78308 59,298.77734 c 0,1.13726 0.741543,1.31588 3.25,0.78321 4.295343,-0.91211 27.5805,-2.51226 31.037109,-2.13282 4.702163,0.51617 2.938282,-1.12431 -1.925781,-1.79101 -2.839426,-0.38919 -6.283427,-0.55474 -9.849609,-0.54102 z M 112.87695,296 c 4.28344,0 11.12305,2.46799 11.12305,4.01367 0,0.93518 -2.71254,1.13314 -6,0.4375 -0.825,-0.17458 -3.1875,-0.59315 -5.25,-0.92969 C 107.53359,298.67029 107.62962,296 112.87695,296 Z m -80.072262,1.71875 c -1.573883,0.0371 -2.294571,0.39022 -3.078126,1.07813 -3.160273,2.77444 -1.343492,3.4707 8.81836,3.3789 5.475706,-0.0495 10.855078,0.30895 11.955078,0.79688 2.659826,1.17983 6.5,1.25345 6.5,0.125 0,-1.4987 -5.96841,-3.20177 -16,-4.56641 -4.195252,-0.5707 -6.621431,-0.84955 -8.195312,-0.8125 z m 112.777342,1.71875 c 0.89995,0.20037 3.18325,1.85432 8.96094,6.09766 3.87357,2.84488 7.96619,5.66699 9.0957,6.27148 1.34151,0.71796 2.08403,2.1561 2.14063,4.14648 0.0477,1.67584 -0.0229,3.04688 -0.15821,3.04688 -0.13532,0 -1.56819,-1.40933 -3.18359,-3.13086 -1.6154,-1.72153 -6.2,-5.56395 -10.1875,-8.53906 -3.9875,-2.97512 -7.25,-6.09193 -7.25,-6.92774 0,-0.68106 0.0421,-1.08506 0.58203,-0.96484 z M 0,301.72461 v 2.63867 c 0,2.58221 0.14155082,2.63837 6.75,2.71094 3.7125,0.0408 8.775,0.43461 11.25,0.875 2.475,0.44039 4.788922,0.85694 5.142578,0.92578 C 23.695502,308.98263 25,306.5824 25,305.45703 c 0,-0.88267 -8.117599,-2.40277 -16.25,-3.04297 z m 111.91992,0.77344 c 0.58365,0.0257 1.3423,0.11271 2.33008,0.24023 5.96166,0.76964 8.75,1.96034 8.75,3.73633 0,0.83861 -0.5625,1.44158 -1.25,1.33984 -0.6875,-0.10174 -3.6125,-0.34878 -6.5,-0.55078 -4.74153,-0.33171 -5.25,-0.59597 -5.25,-2.7207 0,-1.64036 0.16898,-2.12192 1.91992,-2.04492 z m 33.31641,3.69531 c 0.32327,-0.0142 1.04801,0.4584 2.48633,1.40234 1.59658,1.04781 6.81199,5.05114 11.58984,8.89649 6.28791,5.06069 8.6875,7.61526 8.6875,9.25 0,1.24215 -0.1125,2.22931 -0.25,2.19531 -1.92222,-0.47465 -22.34255,-18.7622 -22.58984,-20.23047 -0.1684,-0.99988 -0.24716,-1.49943 0.0762,-1.51367 z m -108.433596,0.93945 c -2.635827,0.009 -4.895396,0.24052 -6.236328,0.76563 -3.300445,1.29247 -0.200658,2.05765 6.835938,1.68945 3.767696,-0.19716 8.527908,0.22511 10.894531,0.96484 C 53.236161,312.09659 56,312.32336 56,311.18359 56,309.0887 44.710215,307.10664 36.802734,307.13281 Z M 113.45312,310 c 5.5418,0 9.54688,1.7451 9.54688,4.16016 0,1.01171 -0.5625,1.76211 -1.25,1.66601 -0.6875,-0.0961 -3.26626,-0.35359 -5.73047,-0.57031 C 111.23329,314.83491 109,313.60083 109,311.37695 109,310.41311 110.33752,310 113.45312,310 Z m -77.457026,2 C 29.577638,312 29,312.17229 29,314.08008 c 0,1.82977 0.390233,1.9908 3.25,1.3457 4.887078,-1.10243 13.746106,-0.59962 18.25,1.03516 4.59133,1.66652 7.372558,1.97564 5.949219,0.66211 C 53.993108,314.85641 42.589192,312 35.996094,312 Z M 0.94921875,312.75781 C 0.15343731,312.88881 0,313.30693 0,314.09375 c 0,1.40629 1.1621999,1.89004 5.75,2.39063 3.1625,0.34505 8,0.99894 10.75,1.45312 7.337303,1.2118 8.710124,1.19287 8.275391,-0.11133 C 24.378985,316.63695 16.245955,314.63599 5.75,313.14648 3.1831258,312.78221 1.7450002,312.62682 0.94921875,312.75781 Z M 145.04883,314.75586 c 1.117,-0.15471 3.88039,1.50314 9.10547,5.42578 4.62915,3.47526 9.63776,6.95784 11.13086,7.73828 1.97953,1.0347 2.71484,2.18566 2.71484,4.25 0,3.37883 -1.02054,3.57877 -3.5957,0.70508 -1.04775,-1.16921 -5.7293,-5.0749 -10.4043,-8.67773 -11.15316,-8.59531 -10.57646,-8.0212 -9.33203,-9.26563 0.0948,-0.0948 0.22129,-0.15368 0.38086,-0.17578 z M 114.25,318.01367 c 7.30746,0.0235 8.75,0.78288 8.75,4.60352 0,3.68834 0.16816,3.63946 -9.25,2.65429 -3.53048,-0.3693 -3.75,-0.59374 -3.75,-3.83203 0,-3.38208 0.0711,-3.43918 4.25,-3.42578 z m 123.66602,1.01953 3.29101,0.64063 c 1.81072,0.35238 3.51797,0.90992 3.79297,1.23828 0.95441,1.13959 11.53506,4.05561 18,4.96094 4.74281,0.66416 8.76099,0.51918 14.86328,-0.53516 4.59972,-0.79475 8.64972,-1.13364 9,-0.75391 0.35027,0.37974 0.15979,0.86331 -0.42383,1.07422 -0.58361,0.21091 -4.10964,2.67636 -7.83398,5.48047 -5.7027,4.29364 -7.6846,5.20633 -12.56055,5.78125 -3.1844,0.37547 -7.08532,1.53454 -8.66797,2.57617 -1.58264,1.04163 -5.26342,2.22009 -8.17968,2.61914 -4.28842,0.58681 -6.15438,1.51245 -9.75782,4.83399 -2.45046,2.25875 -5.60514,4.54334 -7.01172,5.07812 -4.73336,1.79962 -5.12805,1.38146 -5.87695,-6.21875 -0.38972,-3.95504 -1.56733,-10.59254 -2.61523,-14.75 -1.0479,-4.15745 -1.9119,-8.05912 -1.91993,-8.67187 -0.008,-0.61274 2.00976,-1.39324 4.48438,-1.73242 2.47462,-0.33919 5.54845,-0.87902 6.83203,-1.20118 2.32761,-0.58418 2.33446,-0.55751 2.55664,10.23047 0.12253,5.94908 0.57269,11.16908 1,11.59961 1.40696,1.41757 4.11133,-0.45215 4.11133,-2.84179 0,-1.28908 -0.42128,-4.50301 -0.93555,-7.14258 -0.51428,-2.63957 -1.20707,-6.47981 -1.54101,-8.53321 z m -200.408208,1.90039 c -9.421891,0.20356 -11.117517,2.04646 -1.957031,2.12696 3.917062,0.0344 9.349386,0.86347 12.449219,1.89843 3.025,1.00998 6.0625,1.8811 6.75,1.9375 2.242395,0.18404 1.315308,-1.81222 -1.5,-3.23046 -4.410129,-2.22165 -8.281688,-2.89362 -15.742188,-2.73243 z M 216.51172,321 c 0.21814,0.007 0.52972,0.0557 0.9375,0.13477 1.03691,0.20094 2.07187,0.92773 2.30078,1.61523 0.59396,1.78389 -1.2595,1.54603 -2.8457,-0.36523 -0.8699,-1.04816 -1.04699,-1.4052 -0.39258,-1.38477 z M 65.648438,321.99023 C 59.005003,321.87428 59,322.2896 59,323.94727 c 0,1.9772 0.344082,2.13406 3.25,1.48437 4.088194,-0.91402 18.501273,-0.65143 25.75,0.46875 7.733502,1.19509 9,1.22284 9,0.19727 0,-2.06802 -7.425601,-3.34922 -22.25,-3.83985 -3.93555,-0.13025 -6.887085,-0.22892 -9.101562,-0.26758 z M 145.125,322 c 0.61905,0 6.01905,3.70389 12,8.23047 8.22148,6.22229 10.875,8.78392 10.875,10.5 0,1.24842 -0.16763,2.26953 -0.37305,2.26953 -0.20542,0 -5.19944,-3.825 -11.09765,-8.5 C 150.63108,329.825 145.3987,326 144.90234,326 144.40597,326 144,325.1 144,324 c 0,-1.1 0.50595,-2 1.125,-2 z M 4.0839844,323.05859 C 1.5031831,322.96466 0,323.39178 0,324.35547 c 0,0.96626 2.0908508,1.514 7.2773438,1.90625 4.0021532,0.30269 8.8396532,1.23066 10.7500002,2.0625 C 22.147196,330.11816 24,330.34587 24,329.05859 c 0,-1.43938 -1.610535,-2.15588 -9.363281,-4.16992 -4.313998,-1.12071 -7.9719333,-1.73614 -10.5527346,-1.83008 z m 107.0781256,4.08399 c 0.90444,-0.20645 2.513,0.15136 5.8125,0.85156 4.7534,1.00874 6.02539,1.67244 6.02539,3.14258 0,1.93126 -2.35142,2.17893 -10.79688,1.13672 -2.86037,-0.35298 -3.20677,-0.69531 -2.625,-2.58985 0.47993,-1.56287 0.67955,-2.33457 1.58399,-2.54101 z m -75.402344,0.92578 c -2.477875,0.0486 -4.149026,0.4988 -5.31836,1.35937 -2.629497,1.93519 -1.162105,2.39712 9.558594,3.00782 4.675,0.26632 9.85,0.91485 11.5,1.43945 4.198067,1.33471 4.5,1.31123 4.5,-0.33984 0,-2.03723 -2.43777,-3.10354 -10.082031,-4.41016 -4.396124,-0.75142 -7.680329,-1.10524 -10.158203,-1.05664 z m 108.070314,2.53711 c 0.86729,-0.53602 10.55558,5.59016 11.65625,7.37109 0.34757,0.56241 0.49222,0.99288 0.32226,0.95508 -0.16996,-0.0378 -3.12109,-0.97801 -6.55859,-2.08789 -4.69413,-1.51563 -6.25,-2.4784 -6.25,-3.87109 0,-1.01987 0.37309,-2.08475 0.83008,-2.36719 z M 2.2167969,331.05859 C 0.458809,331.16902 0,331.75567 0,332.87109 c 0,1.62994 1.1274092,1.96473 8.75,2.59961 4.8125,0.40083 9.65,1.1004 10.75,1.55469 2.620739,1.08236 3.927573,0.68235 4.316406,-1.32227 0.341885,-1.76256 0.164102,-1.81698 -11.585937,-3.5996 -5.1994904,-0.78882 -8.2556843,-1.15535 -10.0136721,-1.04493 z m 275.4023431,5.1543 c 0.61554,-0.17035 1.6535,1.62431 2.30664,3.98828 0.65314,2.36397 1.42522,4.86133 1.71484,5.54883 0.63039,1.49622 -1.12841,1.43749 -8.64062,-0.29102 -3.025,-0.69603 -6.85,-1.31545 -8.5,-1.37695 -3.73887,-0.13926 -6.74488,-1.74755 -4.47266,-2.39258 0.80958,-0.22982 4.84766,-1.48512 8.97266,-2.79101 4.125,-1.30589 8.00359,-2.51521 8.61914,-2.68555 z m -245.332031,0.86523 c -1.711846,0.1092 -2.301209,0.38153 -2.148437,0.83985 0.238123,0.71437 3.052277,1.38379 6.882812,1.63867 3.563451,0.23711 8.503516,0.83515 10.978516,1.32813 6.220671,1.23907 9,1.28534 9,0.15039 0,-2.14275 -4.966372,-3.34099 -15.828125,-3.82032 -4.337245,-0.1914 -7.172919,-0.24589 -8.884766,-0.13672 z M 219,340 c 0.0516,-0.0516 0.45697,0.25111 1.25,0.87305 0.9625,0.75485 1.75,1.54235 1.75,1.75 0,0.82304 -0.82058,0.2927 -2.12695,-1.37305 C 219.25111,340.45697 218.94838,340.05162 219,340 Z m -147.189453,0.4375 c -6.068135,0.11335 -11.070508,0.8135 -11.541016,2.24023 -0.290463,0.88078 3.389025,1.07176 14.597657,0.75586 8.242483,-0.2323 16.032964,-0.004 17.310546,0.50782 1.277582,0.51224 2.434766,0.96119 2.572266,0.99609 0.1375,0.0349 0.25,-0.34365 0.25,-0.83984 0,-2.40996 -13.075895,-3.84908 -23.189453,-3.66016 z M 4.9511719,341 c -7.3094918,0 -6.5039488,2.30759 1.2988281,3.7207 3.4375,0.62254 8.05,1.56255 10.25,2.08985 2.2,0.52731 4.311365,1.01097 4.691406,1.07422 1.224848,0.20385 2.063138,-2.02866 1.117188,-2.97461 C 20.778713,343.38028 10.214259,341 4.9511719,341 Z M 211.69336,342.02734 C 211.0373,342.04214 212.075,343.37959 214,345 c 3.48556,2.93404 6,3.81441 6,2.09961 0,-1.07678 -6.60583,-5.11067 -8.30664,-5.07227 z M 35.962891,344 C 31.289365,343.89295 31,344.28465 31,345.70508 c 0,1.87373 0.728521,1.99066 13,2.07226 12.158692,0.0808 15.416176,-0.5789 11.25,-2.27734 -0.9625,-0.39239 -6.8125,-0.95292 -13,-1.24609 C 39.56651,344.12676 37.520732,344.03568 35.962891,344 Z m 213.548829,1.72266 c 3.4619,-0.14997 9.8098,0.69459 20.98633,2.63476 10.29455,1.78708 13.06394,2.60789 13.32226,3.94922 0.38902,2.02004 -1.74483,2.064 -9.82031,0.20508 -3.025,-0.69633 -10.76545,-1.84099 -17.20117,-2.54492 -10.33343,-1.13024 -11.59885,-1.47278 -10.82227,-2.92383 0.41878,-0.7825 1.45802,-1.23034 3.53516,-1.32031 z M 1.8496094,348.12305 c -1.67777262,-0.0117 -1.87245546,0.51828 -1.66796878,1.58007 0.22822786,1.1851 1.54096458,1.81227 4.32226558,2.06446 2.1975056,0.19925 5.3460938,0.74223 6.9960938,1.20703 1.65,0.4648 4.725651,0.88599 6.833984,0.93555 6.999451,0.16468 3.419973,-2.33026 -5.916015,-4.12305 -5.729624,-1.10024 -8.8905871,-1.65239 -10.5683596,-1.66406 z m 72.9179686,0.66015 c -11.708838,0.0767 -14.312569,0.52675 -13.224609,2.28711 0.332768,0.53843 5.302932,0.70885 11.767578,0.40235 6.15466,-0.2918 12.539453,-0.1068 14.189453,0.41211 4.017469,1.26346 7.5,1.3353 7.5,0.15429 0,-1.92114 -8.76067,-3.33098 -20.232422,-3.25586 z m -29.65625,1.28321 C 38.028817,349.89964 32,350.89067 32,352.56836 c 0,0.96498 0.97981,1.12673 3.75,0.61914 5.106841,-0.93575 14.053013,-0.86476 18,0.14258 2.548785,0.65049 3.25,0.51684 3.25,-0.61524 0,-0.95924 -1.555628,-1.65554 -4.638672,-2.07812 -2.410917,-0.33045 -4.889163,-0.51472 -7.25,-0.57031 z m 145.121092,1.13476 c 0.74426,0.0113 1.62533,0.10579 2.65235,0.2793 4.11259,0.69482 3.62371,-0.28455 7.24804,14.51953 0.30468,1.24449 -1.08071,1.5 -8.13281,1.5 -4.675,0 -12.55,-0.225 -17.5,-0.5 -13.25609,-0.73645 -14.95783,-2.73608 -4.69922,-5.52148 11.79853,-3.20352 13.74461,-3.87157 15.44922,-5.31055 0.9625,-0.81252 1.75,-2.05637 1.75,-2.76367 0,-1.52761 0.99964,-2.23712 3.23242,-2.20313 z m -147.289061,5.48828 c -13.63759,-0.27473 -12.969086,1.56892 1.056641,2.91407 6.325,0.6066 11.8375,1.1691 12.25,1.25 0.4125,0.0809 0.75,-0.51947 0.75,-1.33399 0,-2.0123 -2.945392,-2.60625 -14.056641,-2.83008 z M 1.3417969,357.13086 C -0.03604201,357.22327 0,357.77239 0,358.87695 c 0,1.58295 1.2952205,2.07719 8.25,3.14453 4.5375,0.69637 9.15,1.59607 10.25,2 2.436155,0.89459 4.198049,-1.4746 2.5625,-3.44531 -0.601981,-0.72534 -5.055271,-1.8264 -9.896484,-2.44726 -5.6554018,-0.72528 -8.4463803,-1.09046 -9.8242191,-0.99805 z m 71.8261721,0.13086 c -2.392504,-0.0483 -4.504075,0.0123 -5.88086,0.21875 -5.065829,0.75967 -5.64182,2.26305 -1.037109,2.70703 7.539929,0.72699 23.733355,0.25826 23.765625,-0.6875 0.03356,-0.98354 -9.670146,-2.09355 -16.847656,-2.23828 z m 151.875001,0.92969 c -2.45457,0.12418 -6.05535,1.27171 -5.75391,2.17773 0.20687,0.6218 1.93792,1.17622 3.84766,1.23242 5.95107,0.175 20.86032,3.2104 21.86328,4.45117 0.275,0.34021 3.45728,1.35305 7.07227,2.25 3.61499,0.89696 7.66499,2.06613 9,2.59961 3.10769,1.24187 9.92773,1.37642 9.92773,0.19532 0,-0.92595 -9.60022,-4.09238 -18.5,-6.10157 -2.75,-0.62083 -5.73954,-1.52285 -6.64258,-2.0039 -0.90305,-0.48105 -5.32956,-1.57447 -9.83789,-2.42969 -4.50833,-0.85521 -8.60003,-1.80348 -9.0918,-2.10742 -0.37669,-0.23281 -1.06657,-0.30507 -1.88476,-0.26367 z m -13.94531,4.30273 c -0.99688,0.10132 -2.00201,0.31757 -2.77735,0.62695 -2.52398,1.00715 -0.98662,1.47865 14.67969,4.48829 9.625,1.84904 18.5125,3.36698 19.75,3.375 1.2375,0.008 2.25,0.43172 2.25,0.9414 0,0.50967 0.7875,1.13325 1.75,1.38477 3.08237,0.80551 6.25,0.71686 6.25,-0.17578 0,-1.21584 -10.25456,-4.67656 -18,-6.07422 -3.575,-0.6451 -9.2,-1.79412 -12.5,-2.55274 -3.3,-0.75863 -7.20536,-1.63399 -8.67969,-1.94531 -0.73716,-0.15566 -1.72578,-0.1696 -2.72265,-0.0684 z m -168.996098,0.21875 c -5.511063,-0.0136 -8.382005,0.63039 -8.824218,1.95703 -0.259078,0.77723 2.881087,1.13356 10.279297,1.16406 5.859662,0.0242 10.916287,0.30496 11.236328,0.625 0.964316,0.96432 2.707031,-0.0289 2.707031,-1.54296 0,-1.07618 -2.1631,-1.54916 -9,-1.97071 -2.43134,-0.14991 -4.561416,-0.22789 -6.398438,-0.23242 z m 73.664058,2.3418 c -3.68998,-0.0167 -5.80694,0.26318 -4.76562,0.84765 0.825,0.46306 6.90075,1.14526 13.50195,1.51563 6.60121,0.37038 14.47621,0.88607 17.5,1.14648 5.70093,0.49095 22.45827,5.30931 21.56641,6.20117 C 163.12575,375.20827 77.760961,375.01086 43,374.48633 24.775055,374.21136 18.525949,374.15847 8.75,374.19727 L 0,374.23047 v 3.51953 3.51758 l 91.25,-0.73828 c 50.1875,-0.40546 103.4,-0.76237 118.25,-0.79297 26.2766,-0.0541 54.43117,0.86086 55.36914,1.79883 0.85826,0.85826 22.55737,0.4346 29.63086,-0.57813 9.73191,-1.39334 10.66913,-1.77585 10.30859,-4.21484 l -0.30859,-2.08594 -69.18555,-0.0234 c -39.98042,-0.0141 -69.10675,-0.4007 -69,-0.91601 0.23129,-1.11647 -19.90456,-8.57811 -23.36523,-8.65821 -1.4025,-0.0325 -2.99161,0.38224 -3.53125,0.92188 -0.64048,0.64089 -3.92094,0.64296 -9.44922,0.008 -5.25015,-0.60355 -10.51311,-0.91686 -14.20313,-0.93359 z m 91.17969,2.66211 c -0.77171,-0.0192 -1.32082,0.0811 -1.45898,0.30468 -0.44743,0.72396 5.60959,3.08806 11.01367,4.29883 3.64191,0.81596 8.5,0.69435 8.5,-0.21289 0,-0.49123 -2.5875,-1.38056 -5.75,-1.97656 -3.1625,-0.596 -7.44043,-1.4984 -9.50586,-2.00391 -1.03271,-0.25275 -2.02711,-0.39091 -2.79883,-0.41015 z" />
  </g>
</svg>
