<?xml version="1.0" encoding="UTF-8" standalone="no"?>
<!-- Created with Inkscape (http://www.inkscape.org/) -->

<svg
   version="1.1"
   id="svg2"
   width="335"
   height="396"
   viewBox="0 0 335 396"
   sodipodi:docname="19.svg"
   inkscape:version="1.1.2 (0a00cf5339, 2022-02-04)"
   xmlns:inkscape="http://www.inkscape.org/namespaces/inkscape"
   xmlns:sodipodi="http://sodipodi.sourceforge.net/DTD/sodipodi-0.dtd"
   xmlns="http://www.w3.org/2000/svg"
   xmlns:svg="http://www.w3.org/2000/svg">
  <defs
     id="defs6" />
  <sodipodi:namedview
     id="namedview4"
     pagecolor="#505050"
     bordercolor="#eeeeee"
     borderopacity="1"
     inkscape:pageshadow="0"
     inkscape:pageopacity="0"
     inkscape:pagecheckerboard="0"
     showgrid="false"
     inkscape:zoom="1.3374318"
     inkscape:cx="100.19203"
     inkscape:cy="102.80898"
     inkscape:window-width="1920"
     inkscape:window-height="1043"
     inkscape:window-x="0"
     inkscape:window-y="0"
     inkscape:window-maximized="1"
     inkscape:current-layer="g8" />
  <g
     inkscape:groupmode="layer"
     inkscape:label="Image"
     id="g8">
    <path
       id="path12"
       style="fill:#000000"
       d="M 33.537109,3.7285156 C 31.346472,3.6768626 28.46279,3.69499 25.414062,3.796875 L 14.328125,4.1679688 13.181641,16.333984 c -1.959889,20.801593 -2.612687,37.294442 -3.6796879,93.062496 -0.5274242,27.56644 -0.4002381,34.05216 0.6757809,34.73438 0.727695,0.46138 2.235048,0.84549 3.34961,0.85352 1.715765,0.013 2.030564,-0.63602 2.052734,-4.23438 0.279351,-45.334363 1.59594,-120.225534 2.128906,-121.087891 0.388145,-0.628032 0.724407,-3.396554 0.748047,-6.152343 L 18.5,8.5 22.851562,8.1875 c 2.853947,-0.2049156 4.928861,0.2088254 6.025391,1.2011719 1.186298,1.0735841 4.793807,1.6578061 12.416016,2.0136721 5.909278,0.275893 11.19747,0.78231 11.751953,1.125 1.07685,0.665529 10.175252,1.462746 21.21875,1.857422 3.719539,0.132929 7.296258,0.774773 7.949219,1.427734 1.760772,1.760772 3.192597,1.448267 4.300781,-0.939453 1.240631,-2.673095 8.757105,-3.498123 11.888672,-1.304688 2.521466,1.766104 9.276316,1.890798 9.851566,0.181641 0.32644,-0.969929 0.8002,-0.937526 2.11328,0.146484 1.29208,1.06667 2.25034,1.143492 4.05273,0.322266 1.72045,-0.783889 4.0178,-0.734044 8.4707,0.183594 3.36039,0.69249 6.10938,0.997029 6.10938,0.677734 0,-0.319295 1.2375,-0.654504 2.75,-0.746094 1.5125,-0.0916 5.675,-0.48807 9.25,-0.880859 3.575,-0.39279 7.175,-0.6738 8,-0.625 0.825,0.0488 3.75,0.271559 6.5,0.496094 2.75,0.224536 5.86785,-0.03998 6.92773,-0.587891 1.05988,-0.547916 4.41868,-0.974631 7.46485,-0.947266 3.04617,0.02737 6.38919,-0.40408 7.42969,-0.960937 1.30441,-0.698104 2.23099,-0.67331 2.98437,0.08008 C 180.90759,11.509148 184.01543,12 187.21289,12 c 3.19746,0 6.76725,0.5625 7.93164,1.25 1.58512,0.935909 2.22343,0.957798 2.54102,0.08594 0.2896,-0.795046 1.35385,-0.898276 3.35547,-0.324219 1.61243,0.462439 3.12775,0.524122 3.36718,0.136719 0.23943,-0.387412 3.0582,-0.577963 6.26368,-0.423829 3.20545,0.154134 6.72443,0.299336 7.82031,0.322266 1.09587,0.02293 3.02212,0.715339 4.27929,1.539063 1.25716,0.823722 2.6784,1.255522 3.15821,0.958984 0.47981,-0.296538 7.29639,-0.76108 15.14843,-1.03125 7.85207,-0.27017 15.11749,-0.759347 16.14649,-1.085938 1.02899,-0.32659 2.55158,-0.02775 3.38281,0.66211 1.21313,1.006805 2.82148,0.993215 8.15235,-0.06641 4.93729,-0.981378 6.73884,-1.025626 7.02343,-0.171876 0.4508,1.352409 5.18796,1.455688 10.47266,0.228516 2.38889,-0.554731 3.98043,-0.507575 4.375,0.13086 0.38038,0.615465 2.21487,0.709281 4.74414,0.240234 2.26843,-0.420673 10.94965,-0.833066 19.29102,-0.916016 10.64768,-0.10588 15.62579,-0.53234 16.70703,-1.429687 0.84704,-0.702978 2.00988,-0.987622 2.58398,-0.632813 C 334.57823,11.85659 335,11.081557 335,9.5585938 335,7.0093763 334.96458,6.9996791 325.75,6.8378906 320.6625,6.7485648 314.7,6.5411059 312.5,6.3769531 310.3,6.2128002 306.025,6.5868646 303,7.2089844 296.77069,8.4901001 287.34037,8.3750503 278.5,6.9101562 275.2,6.3633296 264.175,5.6600367 254,5.3457031 234.58294,4.7458571 146.10132,4.9161133 137.5,5.5703125 134.75,5.7794719 116.3,5.9635396 96.5,5.9785156 60.591536,6.0056753 39.394409,5.3237686 37.5,4.0820312 37.225,3.9017757 35.727747,3.7801688 33.537109,3.7285156 Z M 154.75,39.363281 c -1.1938,0.01393 -2.45038,0.0844 -3.78906,0.201172 -9.13172,0.796571 -15.20472,4.029491 -19.99805,10.646485 -2.42106,3.342185 -2.99505,5.056194 -2.75977,8.246093 0.21351,2.893831 0.78915,4.118848 2.04688,4.357422 1.37196,0.260242 1.76521,-0.384824 1.82031,-2.990234 0.0971,-4.590249 0.80895,-5.882877 5.61719,-10.191407 3.42745,-3.071238 5.39375,-3.953981 10.82227,-4.853515 6.01033,-0.995944 7.2613,-0.881436 13.3125,1.210937 7.8134,2.701705 9.39411,3.894607 12.13867,9.160157 C 175.99544,59.053668 176.81291,68 175.13477,68 c -0.47583,0 -1.97305,-0.871595 -3.32813,-1.9375 -1.35508,-1.065906 -3.77819,-2.253739 -5.38476,-2.638672 -1.6066,-0.384932 -3.44529,-1.110656 -4.08594,-1.613281 C 159.5013,59.586617 144.76247,61.06755 134.4668,64.611328 132.24841,65.374898 129.74875,66 128.91211,66 c -0.83663,0 -3.16864,1.507724 -5.18164,3.351562 -2.66047,2.436904 -3.84149,4.492436 -4.32617,7.523438 -0.36672,2.293352 -1.05741,4.411762 -1.53516,4.707031 -1.33883,0.827439 -1.03323,5.580564 0.68359,10.619141 1.20754,3.543936 2.65299,5.307093 6.49805,7.927738 2.71979,1.85369 4.94627,3.65054 4.94727,3.99218 0.001,0.34164 -2.16524,0.90834 -4.81446,1.25977 -9.83907,1.3052 -25.425245,14.30261 -29.177731,24.33203 -1.185745,3.16919 -2.518556,6.21871 -2.960937,6.77539 -1.10068,1.38506 -2.911802,11.09437 -4.199219,22.51172 -0.58917,5.225 -1.585486,12.65 -2.214844,16.5 l -1.144531,7 -14.765625,0.27734 c -14.398113,0.26997 -14.822508,0.21778 -16.994141,-2.08593 -2.522947,-2.6764 -11.09796,-8.28352 -18.943359,-12.38672 C 30.887339,166.26713 27.530462,165.40531 22,165.02148 L 14.5,164.5 14.191406,159.67188 c -0.170964,-2.68005 0.213856,-5.45382 0.863282,-6.23633 1.952052,-2.35208 0.476757,-4.16671 -2.97461,-3.66016 -3.7950347,0.557 -5.0246459,2.16417 -2.2167968,2.89844 1.8384178,0.48076 1.9005608,0.70491 0.5605468,2.04492 -1.2641745,1.26418 -1.4591451,4.8744 -1.2148436,22.56055 0.2174795,15.74438 0.6063209,21.16192 1.5410156,21.47265 0.794403,0.2641 1.25,-0.57143 1.25,-2.29101 0,-2.33135 0.214356,-2.5271 1.550781,-1.41797 0.944173,0.78359 1.433266,2.49306 1.25,4.37109 -0.252911,2.59171 -0.682401,3.04309 -2.689453,2.82227 -2.3317691,-0.25656 -2.373353,-0.12812 -1.734375,5.30859 0.835361,7.10761 0.831823,160.43824 -0.0039,170.50586 -0.6089711,7.33577 -0.5531328,7.60151 1.96875,9.25391 2.393186,1.56808 11.206841,1.73762 112.759763,2.16406 60.58968,0.25442 110.29095,0.58947 110.44922,0.74609 0.15827,0.15662 22.59996,0.43158 49.86914,0.60938 L 335,391.14648 V 385.57422 380 h -8.55859 c -5.67491,0 -8.34251,0.35091 -7.91602,1.04102 0.44074,0.71314 -3.71227,0.84331 -13.19141,0.41601 -19.21043,-0.86596 -23.55949,-1.41915 -25.64453,-3.26953 -1.31114,-1.16357 -2.01,-1.28749 -2.52929,-0.44727 -0.46603,0.75406 -4.21423,1.16388 -10.70313,1.17188 -9.89149,0.0118 -10.03004,-0.0202 -14.36328,-3.44922 -2.40635,-1.90421 -4.87428,-3.44799 -5.48437,-3.42969 -1.13427,0.034 1.08209,2.13559 5.44531,5.16407 l 2.44531,1.69726 -3.75,0.0527 c -2.63719,0.0369 -3.75,-0.37835 -3.75,-1.40039 0,-0.79933 -1.14129,-2.26183 -2.53516,-3.25 -6.71353,-4.75953 -9.96483,-7.57841 -9.96484,-8.63672 0,-0.83385 -5.13796,-1.19566 -18.25,-1.28516 -11.23205,-0.0766 -18.25,0.24957 -18.25,0.84766 0,0.53447 2.99883,4.07848 6.66406,7.875 L 211.32812,380 h -9.73437 -9.73633 l -7.42773,-6.72852 C 180.34369,369.5708 177,366.24507 177,365.88086 c 0,-0.93869 17.19118,-0.15542 17.91797,0.81641 0.33002,0.44128 1.9446,1.92773 3.58984,3.30273 l 2.99219,2.5 -2.25,-2.56445 c -1.2375,-1.41045 -2.25,-3.32295 -2.25,-4.25 0,-1.5348 -2.30293,-1.69294 -25.75,-1.77344 -14.1625,-0.0486 -33.93001,-0.27079 -43.92773,-0.49414 -9.99772,-0.22335 -19.22272,0.0113 -20.5,0.52344 -2.22764,0.89318 -2.23492,0.93529 -0.19727,0.99609 3.98519,0.11892 10.60719,3.05288 13.6875,6.06445 1.69122,1.65349 4.56038,4.01663 6.375,5.25196 1.81462,1.23534 3.30264,2.58359 3.30664,2.99609 0.0188,2.06376 -5.15019,0.20404 -12.88672,-4.63672 -4.73457,-2.96242 -10.02977,-6.1025 -11.76758,-6.97851 -1.73781,-0.876 -3.3285,-2.10077 -3.53515,-2.72071 -0.26219,-0.78659 -8.069309,-1.21432 -25.839846,-1.41601 -14.005545,-0.15895 -32.278647,-0.59553 -40.607422,-0.97071 -10.264372,-0.46237 -15.354248,-0.34118 -15.796875,0.375 -0.88593,1.43347 1.1805,5.09766 2.875,5.09766 0.751153,0 4.061038,2.025 7.353515,4.5 3.29248,2.475 6.373212,4.50923 6.847657,4.52148 0.474519,0.0122 1.941884,0.85197 3.259765,1.86524 l 2.396485,1.8418 -4.482422,0.67187 c -2.465418,0.36972 -8.661221,0.58144 -13.767578,0.46875 l -9.285157,-0.20508 0.75586,-7.58203 C 15.929094,369.91201 16.396877,362.675 16.552734,358 c 0.155857,-4.675 0.365024,-10.975 0.464844,-14 0.09982,-3.025 0.10554,-19.15264 0.01367,-35.83984 -0.149151,-27.09558 0.0091,-30.4694 1.474609,-31.54102 1.167224,-0.85349 3.858259,-0.97964 9.31836,-0.43945 4.222084,0.41771 11.050781,0.49797 15.175781,0.17969 6.424153,-0.49573 32.677938,-0.50216 45.5,-0.0117 l 4,0.15234 2.123047,-10 c 5.408223,-25.46862 10.251433,-40.02591 12.550783,-37.72656 0.68218,0.68216 0.65464,1.67602 -0.082,3.05273 -1.42611,2.6647 -1.37787,3.17383 0.29687,3.17383 0.79536,0 1.66886,-1.49543 2.04492,-3.5 0.74804,-3.98738 0.48697,-3.88419 5.95118,-2.32422 5.44795,1.55534 6.59138,2.53611 8.82421,7.57227 1.20769,2.72396 3.03144,4.8307 5.08594,5.87109 1.76224,0.89238 3.88008,2.18723 4.70508,2.87891 0.825,0.69169 3.72002,2.42468 6.43359,3.84961 3.35592,1.76224 5.04474,3.31955 5.2793,4.87109 0.35073,2.32005 0.7054,4.21294 4.28516,22.78125 2.62758,13.6293 4.01646,32.53318 3.08398,42 -0.40626,4.125 -0.43883,8.625 -0.0723,10 0.52882,1.98266 0.90673,1.13785 1.82812,-4.08203 2.52189,-14.28707 0.93948,-35.27451 -4.53906,-60.17383 l -3.6875,-16.75781 -3.14063,-0.86719 C 136.1556,245.09924 126,234.51388 126,228.9082 126,226.58919 123.0215,221 121.78516,221 c -1.12199,0 -0.98757,0.70695 0.78906,4.14258 0.86555,1.6738 1.40234,3.21485 1.19336,3.42383 -0.35357,0.35357 -7.91764,-1.45108 -8.55469,-2.04102 -0.53971,-0.49979 2.10532,-5.52539 2.9082,-5.52539 0.44029,0 1.63902,-0.89794 2.66211,-1.99609 1.28849,-1.38304 3.74755,-2.19554 8.00586,-2.64063 5.87617,-0.61418 6.27123,-0.51172 8.92969,2.29102 4.0435,4.26298 10.28125,7.92938 10.28125,6.04297 0,-0.8066 -1.1519,-2.22156 -2.56055,-3.14454 -1.51471,-0.99248 -2.40248,-2.36759 -2.17187,-3.36523 0.21446,-0.92778 -0.59346,-3.0375 -1.79492,-4.6875 C 138.58125,209.52915 135,202.43312 135,200.67578 c 0,-0.77191 -1.0594,-2.47656 -2.35352,-3.78906 -3.59166,-3.64266 -4.05321,-6.77526 -4.18554,-28.38672 l -0.12305,-20 -2.91016,0.32617 c -1.60154,0.17923 -2.95676,0.4042 -3.00976,0.5 -0.30007,0.54201 2.49508,27.62902 3.08789,29.92383 0.54826,2.1224 0.3579,2.75 -0.83789,2.75 -0.85217,0 -1.80596,-0.41513 -2.11914,-0.92188 -0.87947,-1.423 -16.21781,-6.26416 -18.69336,-5.90039 -3.29728,0.48452 -3.56411,2.82227 -0.32227,2.82227 4.09171,0 19.96197,5.37452 21.04492,7.12695 0.26507,0.42888 -3.29199,0.513 -7.90429,0.1875 -4.6123,-0.32549 -10.13746,-0.24337 -12.2793,0.18164 -3.63106,0.72052 -3.7235,0.8213 -1.36719,1.49219 1.3899,0.39573 5.83272,0.80233 9.87305,0.9043 5.03627,0.12709 8.48619,0.79198 10.97266,2.11133 l 3.62695,1.92382 -4.75,-0.59961 c -5.25589,-0.66346 -6.794,1.12242 -2,2.32227 3.8306,0.95873 8.10527,3.69669 10.00586,6.41016 1.4753,2.10624 1.47333,2.24244 -0.0137,1.67187 -3.63504,-1.39489 -9.97678,-2.8318 -10.44336,-2.36523 -1.11947,1.11947 0.943,2.49693 4.68359,3.1289 4.23734,0.71589 10.07953,4.14128 10.79883,6.33008 0.30462,0.92695 -0.72393,0.73579 -3.42187,-0.63281 -8.61393,-4.36959 -27.44811,-5.74409 -28.1504,-2.05469 -0.28477,1.49598 0.26009,1.51895 6.25782,0.26172 6.3389,-1.32874 6.80608,-1.28535 13.30078,1.20703 3.70243,1.42083 7.9796,3.04775 9.5039,3.61719 4.05055,1.51317 4.30361,2.75207 0.52149,2.54883 -1.81151,-0.0974 -5.43047,-0.0856 -8.04297,0.0254 -4.87795,0.20728 -5.35109,0.51328 -11.18359,7.22265 -1.64371,1.89083 -3.10694,2.85891 -3.32618,2.20118 -0.50479,-1.51437 4.80704,-11.30436 6.48243,-11.94727 1.38699,-0.53223 1.794,-4.27539 0.46484,-4.27539 -1.89651,0 -6.58644,6.26711 -8.1543,10.89844 l -1.69336,5.00781 -5.41992,-8.01953 c -6.32329,-9.35659 -6.655166,-9.93631 -11.488279,-20.13867 -2.56205,-5.40831 -3.373837,-8.12971 -2.683594,-9 1.257324,-1.58529 2.874265,-8.89673 4.367187,-19.74805 0.643186,-4.675 1.810913,-10.3 2.59375,-12.5 0.782837,-2.2 1.644819,-5.76653 1.916016,-7.92578 0.271197,-2.15926 0.916023,-4.71646 1.433594,-5.6836 0.517571,-0.96709 0.943316,-2.57555 0.945316,-3.57421 0.002,-0.99866 1.80237,-4.18728 4,-7.08594 2.19764,-2.89865 3.99609,-5.58455 3.99609,-5.9668 0,-0.38224 2.72342,-3.22211 6.05273,-6.3125 7.27484,-6.7528 15.82413,-10.2169 18.53321,-7.50781 0.87988,0.87987 3.26479,1.55664 5.48633,1.55664 2.20076,0 3.92773,0.48659 3.92773,1.10547 0,0.60763 -1.13647,3.36753 -2.52539,6.13281 -2.5748,5.12631 -2.53508,8.76172 0.0937,8.76172 0.78793,0 1.43164,-0.67328 1.43164,-1.49609 0,-1.16604 3.8784,-13.64625 4.38477,-14.10938 0.0631,-0.0577 2.29684,0.16728 4.96289,0.5 4.54864,0.56767 4.9401,0.85197 6.3457,4.60547 0.82384,2.2 1.96288,6.5606 2.53125,9.69141 0.60994,3.35983 1.64307,5.92659 2.52148,6.26367 1.25757,0.48258 1.37796,-0.30031 0.78321,-5.06055 -0.38712,-3.09836 -1.565,-7.643 -2.61719,-10.09765 C 157.60069,111.90376 157.60604,112 159.61328,112 c 3.27151,0 25.38676,14.81258 25.38672,17.00391 0,0.4786 -1.575,0.61511 -3.5,0.30273 -3.68955,-0.59873 -4.31602,0.25697 -2.53125,3.45703 1.327,2.37928 6.03125,26.32149 6.03125,30.69531 0,3.26878 -0.23134,3.54102 -3,3.54102 -1.65,0 -3,-0.361 -3,-0.80273 0,-1.42024 -11.35067,-8.86334 -19.19531,-12.58594 -7.88802,-3.74319 -12.8545,-4.45793 -17.20313,-2.47656 -2.5486,1.16122 -3.99649,3.41664 -3.11328,4.8457 0.27168,0.4396 1.95935,1.03057 3.75195,1.31445 1.7926,0.28387 6.63477,1.47766 10.75977,2.65235 4.39347,1.25114 8.79099,1.90336 10.61719,1.57421 2.6876,-0.48442 3.72175,0.0327 7.5,3.75586 2.4104,2.37525 5.14596,4.61166 6.07812,4.96875 3.44186,1.31851 3.06407,12.77926 -0.41992,12.73829 -0.70111,-0.008 -4.87539,-1.13334 -9.27539,-2.5 -4.4,-1.36672 -8.9,-2.49196 -10,-2.50196 -2.69109,-0.0234 -6.68333,-4.34056 -5.90039,-6.38086 0.68343,-1.781 1.98092,-2.08961 2.85351,-0.67773 0.31419,0.50837 -0.22216,1.11419 -1.1914,1.3457 -1.65602,0.39556 -1.65756,0.4653 -0.0371,1.17188 1.11509,0.48623 2.34768,0.12887 3.49023,-1.01368 1.0818,-1.08179 1.34105,-1.90845 0.66797,-2.13281 -2.19239,-0.73079 -4.86451,-3.14721 -4.20703,-3.80469 0.37045,-0.37046 2.30848,-0.0832 4.30469,0.63868 3.09887,1.12057 3.76456,1.09743 4.55273,-0.15821 0.73309,-1.16789 0.0527,-1.67656 -3.30468,-2.4707 -2.32526,-0.55 -4.83394,-1.39157 -5.57422,-1.86914 -2.3915,-1.54284 -4.14559,1.5846 -4.28516,7.63867 -0.11254,4.88178 0.20994,5.97479 2.25,7.63086 1.89267,1.53643 11.59083,5.09161 23.57813,8.64258 1.97751,0.58579 3.48446,7.85019 2.2832,11.00976 -0.60436,1.58957 -0.76752,5.21456 -0.38477,8.59766 L 178.25781,212 h -7.75976 -7.75977 l 0.56836,-3.5 c 0.48536,-2.99094 0.28624,-3.5 -1.36914,-3.5 -1.59332,0 -1.9375,0.70994 -1.9375,4 0,2.88889 -0.41667,4 -1.5,4 -1.0592,0 -1.51132,-1.102 -1.54102,-3.75 -0.0571,-5.10054 -3.33429,-18.36441 -4.50976,-18.25391 -1.35992,0.12783 -0.76894,9.18777 0.98437,15.0918 1.49073,5.01983 1.49018,5.02247 -0.7207,4.33399 -5.71829,-1.7808 -6.46388,-2.38926 -7.46094,-6.09376 -6.47283,-24.04899 -7.4501,-28.88744 -7.0625,-34.9746 0.30689,-4.81953 0.0842,-6.35352 -0.92383,-6.35352 -0.73079,0 -1.59051,0.68071 -1.91015,1.51367 -0.82111,2.13977 1.57457,24.18107 3.15039,28.98633 0.72146,2.2 1.62894,5.575 2.01562,7.5 1.49154,7.42523 5.8399,15.73986 9.16993,17.5332 1.76186,0.94883 3.65266,3.01666 4.20312,4.59571 1.4083,4.03986 3.10248,3.6224 2.41797,-0.59571 l -0.5625,-3.46484 3.375,0.99805 c 1.85644,0.54901 9.9,0.89242 17.875,0.76367 19.71182,-0.31821 30.60396,-0.12763 34.51172,0.60547 4.68061,0.87809 12.05631,8.65429 15.58008,16.42578 1.59998,3.52869 2.9082,7.01192 2.9082,7.74219 0,1.2389 2.08895,6.6202 4.13867,10.66015 0.97804,1.9277 3.53793,14.03363 3.64453,17.23633 0.16679,5.0108 6.48671,27.99526 11.41211,41.5 1.10327,3.025 2.99328,8.2 4.19922,11.5 1.20593,3.3 3.1724,7.86762 4.36914,10.15039 l 2.17578,4.15039 -3.58593,1.70117 c -4.17055,1.97906 -16.6623,5.08739 -23.81641,5.92578 -2.72955,0.31987 -5.30251,1.18983 -5.71875,1.9336 -0.41623,0.74378 -3.4836,1.9314 -6.81641,2.63867 -5.71302,1.21239 -7.90718,2.4268 -6.65039,3.68359 0.30328,0.30328 2.80912,-0.25974 5.56836,-1.25195 3.93658,-1.41557 5.50824,-1.5638 7.29883,-0.68945 4.06731,1.98611 12.01035,3.14268 25.28125,3.67969 7.15,0.28928 14.88423,0.81844 17.1875,1.17578 5.09847,0.79099 19.3125,-0.42535 19.3125,-1.65235 0,-1.16124 -9.69735,-7.4394 -18.5,-11.97656 -5.91397,-3.04824 -6.95869,-3.96882 -6.73438,-5.94141 0.14603,-1.28415 -0.33333,-3.05391 -1.06445,-3.93164 -2.52313,-3.02911 -11.332,-30.46068 -14.80273,-46.0957 -0.42732,-1.925 -2.3711,-7.97027 -4.32032,-13.43359 -1.94918,-5.46333 -3.43161,-10.0469 -3.29296,-10.18555 0.13865,-0.13865 3.61968,0.184 7.73437,0.7168 7.96687,1.03163 40.39037,1.28882 48.08789,0.38086 4.5141,-0.53246 4.60753,-0.48791 4.54883,2.23828 -0.0585,2.71513 1.35308,30.30814 1.80469,35.2832 0.12481,1.375 0.29671,4.1875 0.38281,6.25 0.0861,2.0625 0.6625,3.75 1.28125,3.75 0.69853,0 0.91376,-1.06009 0.56641,-2.79688 C 303.38373,310.66477 303.52236,308.77284 304,308 c 0.47764,-0.77284 0.64218,-1.76796 0.36719,-2.21289 -0.27498,-0.44493 -0.56519,-10.20551 -0.64649,-21.68945 l -0.14843,-20.88086 -6.25391,-4.85742 c -5.41385,-4.20657 -8.05657,-7.13318 -7.0918,-7.84961 0.15045,-0.11173 3.19844,0.11136 6.77344,0.49414 3.69243,0.39536 7.02183,0.29136 7.70703,-0.24024 0.6634,-0.5147 1.6759,-0.64582 2.25,-0.29101 0.57409,0.35481 1.04297,-0.006 1.04297,-0.80274 0,-0.85092 -1.33976,-1.68008 -3.25,-2.01172 -5.27557,-0.91592 -21.20536,-1.11322 -22.55469,-0.27929 -0.68431,0.42293 -2.46967,0.53097 -3.96875,0.24023 -3.26397,-0.63303 -18.56698,-1.58658 -33.72656,-2.10156 -7.81244,-0.26539 -11.19327,-0.75626 -11.66602,-1.69531 -0.36609,-0.72721 -1.45396,-4.47227 -2.41796,-8.32227 -1.43993,-5.7508 -2.45756,-7.64784 -5.69922,-10.62695 -6.885,-6.32738 -20.86996,-9.11672 -38.50391,-7.67969 -13.63509,1.11116 -22.937,1.4278 -23.51367,0.79883 -0.24803,-0.27052 -0.77753,-1.61719 -1.17774,-2.99219 -0.67426,-2.31655 -0.62494,-2.36413 0.68555,-0.64844 1.34433,1.75999 2.05424,1.78472 14.35352,0.5 13.01496,-1.35947 39.70612,-1.63968 48.90039,-0.51367 3.79229,0.46444 5.36307,0.22641 6.74414,-1.02344 1.41024,-1.27625 4.51052,-1.70694 14.29883,-1.98242 7.5844,-0.21346 12.49609,0.0271 12.49609,0.61133 0,1.77224 -7.40689,3.04478 -17.75,3.05078 -5.71488,0.003 -10.25,0.42205 -10.25,0.94531 0,0.54897 6.32944,0.88596 15.25,0.81446 12.39927,-0.0994 32.22771,1.38981 33.3418,2.5039 0.13872,0.13872 -0.0886,4.07595 -0.50391,8.74805 -0.81917,9.21521 0.39403,15.25609 3.17188,15.80078 1.31116,0.2571 1.49504,-0.66246 1.15039,-5.75 -0.22564,-3.33082 -0.59341,-8.75878 -0.81641,-12.06055 -0.31584,-4.67624 -0.0635,-6.1933 1.14063,-6.86718 3.43846,-1.92425 0.0479,-2.92887 -8.70118,-2.57618 -5.05724,0.20386 -9.2249,-0.0558 -9.55859,-0.5957 C 265.14917,215.43047 264.00895,215 262.94141,215 c -2.27591,0 -2.56334,-2.23971 -0.50586,-3.94727 0.95958,-0.79638 2.03795,-0.87952 3.25,-0.25195 0.99765,0.51659 5.85883,0.73031 10.80273,0.47461 4.94389,-0.2557 12.28327,-0.1565 16.3086,0.2207 6.75538,0.63303 7.29569,0.85069 7.01171,2.84375 -0.27791,1.95048 -0.91295,2.15939 -6.55859,2.15039 -3.4375,-0.005 -6.25,0.30599 -6.25,0.69141 0,1.42328 2.56177,2.19332 9.44336,2.83789 3.88062,0.36348 7.84414,1.00589 8.80664,1.42774 1.33645,0.58574 1.75,0.29682 1.75,-1.21875 0,-1.0915 -0.675,-2.54383 -1.5,-3.22852 -0.825,-0.68469 -1.5,-2.04791 -1.5,-3.0293 0,-1.57639 -2.35764,-7.33413 -7.74609,-18.91797 -0.90902,-1.95417 -3.81276,-7.55809 -6.45313,-12.45312 C 287.1604,177.70458 285,173.33332 285,172.88477 c 0,-0.44854 -2.475,-4.61315 -5.5,-9.25391 -3.025,-4.64076 -5.5,-8.932 -5.5,-9.53516 0,-1.41553 0.66753,-1.55629 -9.05859,1.9375 -9.40257,3.37757 -14.56502,5.74064 -17.21094,7.88086 -1.55653,1.25905 -2.0995,1.19288 -4.5,-0.54687 -4.77938,-3.46383 -9.49293,-4.83846 -15.73047,-4.5918 -7.24468,0.28649 -11.17444,0.71374 -14.5,1.58008 -2.64817,0.68988 -3.51479,-0.71322 -10.41406,-16.85547 -1.17537,-2.75 -2.99034,-6.35 -4.03321,-8 -2.18953,-3.46421 -8.25181,-9.5 -9.54101,-9.5 -0.48194,0 -1.84884,-1.36755 -3.03906,-3.03906 -1.98485,-2.78746 -8.41996,-7.98051 -18.99805,-15.33203 -2.64182,-1.83601 -3.78618,-3.21777 -3.17188,-3.83203 0.61431,-0.61433 1.66665,-0.52048 2.91602,0.25976 3.39215,2.11844 10.57322,0.36888 14.01563,-3.41406 4.71879,-5.18564 6.1023,-7.858129 6.2871,-12.14258 0.32629,-7.564594 -0.0285,-9.168813 -3.0371,-13.710938 -2.35302,-3.552368 -3.00605,-5.625208 -2.96485,-9.421874 0.13639,-12.576652 0.21689,-12.2201 -3.52539,-15.50586 C 168.40248,41.878738 163.10663,39.265806 154.75,39.363281 Z M 153.51953,65 c 2.22094,0 2.43948,0.311768 1.85742,2.630859 -0.49962,1.990652 -0.32037,2.51902 0.73243,2.171875 0.76508,-0.252288 1.53518,-1.436439 1.71093,-2.630859 C 157.99606,65.977455 158.60519,65 159.17578,65 c 0.58501,0 0.73596,0.763172 0.3457,1.75 -2.18499,5.525101 -1.82225,8.088099 1.58399,11.199219 3.08585,2.818492 3.73837,3.007709 8.28711,2.404297 4.57597,-0.607023 4.88088,-0.515503 4.16992,1.246093 -0.4219,1.045382 -1.23501,3.250391 -1.80664,4.900391 -0.57162,1.65 -1.58258,3.675 -2.24609,4.5 -0.66352,0.825 -1.4862,2.287912 -1.82813,3.251953 -0.34193,0.964042 -2.74831,3.101542 -5.34766,4.75 C 158.3716,101.51482 156.59018,102 151.30469,102 147.83737,102 145,102.3911 145,102.86914 c 0,1.01167 5.82697,2.10331 11.30859,2.11914 2.28235,0.007 3.56174,0.41252 3.19141,1.01172 -0.72266,1.16929 -4.42691,1.10374 -13.6875,-0.24414 l -6.68555,-0.97461 0.11524,-6.640625 c 0.086,-4.930659 -0.54439,-8.357384 -2.44531,-13.308594 -1.71423,-4.464922 -2.22713,-7.001386 -1.55469,-7.673828 0.67244,-0.672442 0.29681,-1.998514 -1.13672,-4.011719 -1.41612,-1.988756 -1.77403,-3.232409 -1.05664,-3.675781 1.10588,-0.68347 2.6377,0.875464 5.67773,5.779297 1.18425,1.910288 2.53651,2.75 4.42969,2.75 1.49896,0 3.00383,0.45 3.34375,1 0.95725,1.548862 5.10629,1.180051 6.57031,-0.583984 1.69565,-2.043132 0.1422,-4.697351 -2.8789,-4.919922 -2.91474,-0.214735 -3.43718,-0.869073 -3.73633,-4.671875 -0.19477,-2.475901 -0.0352,-2.824789 0.69531,-1.519531 C 148.45714,69.639724 151,69.43844 151,67 c 0,-1.4707 0.66715,-2 2.51953,-2 z m 10.05469,1 c 0.95617,0 1.44176,0.681722 1.23828,1.738281 -0.18414,0.956185 -1.18427,1.901964 -2.2207,2.101563 -1.41823,0.273126 -1.72439,-0.05352 -1.23828,-1.320313 C 161.70877,67.593765 162,66.647985 162,66.417969 162,66.187952 162.7089,66 163.57422,66 Z m -22.25195,0.205078 c 0.20613,0.02613 0.50254,0.219344 0.86132,0.578125 0.65087,0.650834 0.95019,1.415053 0.66602,1.699219 C 142.18222,69.149813 141,67.967596 141,66.632812 c 0,-0.313299 0.11613,-0.453864 0.32227,-0.427734 z M 136.85742,67 c 0.5105,0 1.21181,0.738858 1.5586,1.642578 0.95273,2.482764 -0.0978,2.822612 -1.3711,0.44336 C 136.43062,67.938107 136.34659,67 136.85742,67 Z m 16.42188,0.378906 c -0.10514,0.105141 -0.17717,0.454638 -0.20118,1.03711 -0.0434,1.054166 0.1931,1.644791 0.5254,1.3125 0.33225,-0.332292 0.36882,-1.194141 0.0801,-1.916016 -0.15961,-0.398866 -0.29916,-0.538734 -0.40429,-0.433594 z M 167,69 c 0.55,0 1,0.45 1,1 0,0.55 -0.45,1 -1,1 -0.55,0 -1,-0.45 -1,-1 0,-0.55 0.45,-1 1,-1 z m -38.57227,1.109375 c 0.25003,0.01421 0.0862,0.988043 -0.58593,2.916016 -1.49576,4.290738 -0.24203,9.66664 2.70508,11.597656 1.34925,0.884094 2.45312,2.005442 2.45312,2.492187 0,2.568779 -4.51525,-0.435936 -6.43359,-4.28125 -1.96446,-3.93793 -1.97334,-6.146263 -0.041,-9.882812 0.98772,-1.910037 1.65232,-2.856006 1.90234,-2.841797 z M 171.5,71 c 0.825,0 1.5,0.45 1.5,1 0,0.55 -0.675,1 -1.5,1 -0.825,0 -1.5,-0.45 -1.5,-1 0,-0.55 0.675,-1 1.5,-1 z m -7.5,1.128906 c 0.45312,0 0.90625,0.07028 1.25,0.208985 0.6875,0.277413 0.125,0.503906 -1.25,0.503906 -1.375,0 -1.9375,-0.226493 -1.25,-0.503906 0.34375,-0.138706 0.79688,-0.208985 1.25,-0.208985 z m 12.01367,0.894532 c 1.03812,-0.06785 1.97933,0.155043 1.95508,0.726562 -0.0175,0.4125 -0.63404,1.543119 -1.36914,2.511719 -1.16396,1.533672 -1.49421,1.570774 -2.55469,0.292969 -0.66973,-0.807008 -0.92707,-1.937626 -0.57226,-2.511719 0.36706,-0.593927 1.5029,-0.951684 2.54101,-1.019531 z M 147,75 c 0.55,0 1,0.45 1,1 0,0.55 -0.45,1 -1,1 -0.55,0 -1,-0.45 -1,-1 0,-0.55 0.45,-1 1,-1 z m 75.06055,3.039062 c 0.009,0.0101 0.0191,0.01916 0.0273,0.0293 l 0.002,0.002 c 0.034,0.01983 0.0663,0.04173 0.0977,0.06641 0.001,-0.0037 0.004,-0.01135 0.006,-0.01563 -0.0483,-0.01638 -0.0822,-0.07666 -0.13281,-0.08203 z m -70.82227,5.558594 c -0.40823,0.09499 -0.82611,0.404405 -1.26367,0.931641 -1.53546,1.850117 -0.48714,3.136685 3.02539,3.710937 2.17924,0.356276 7.99661,-0.134671 8.77344,-0.740234 0.15044,-0.117278 -0.0291,-1.000415 -0.39844,-1.962891 -0.52883,-1.378096 -1.42218,-1.628017 -4.20898,-1.175781 -1.94634,0.315847 -4.07141,0.132623 -4.72071,-0.40625 -0.40035,-0.33226 -0.7988,-0.452414 -1.20703,-0.357422 z m -65.679686,1.265625 c -0.02734,0.0016 -0.05472,0.0025 -0.08203,0.0039 0.02255,0.0496 -0.0085,0.08116 0.02344,0.132812 0.0032,0.0052 0.0065,0.0046 0.0098,0.0098 0.03597,-0.01457 0.07141,-0.0305 0.107422,-0.04492 -0.01898,-0.0342 -0.03962,-0.06736 -0.05859,-0.101563 z m 42.074216,3.681641 c 0.39386,0.03973 0.94243,0.228832 1.5586,0.558594 1.20538,0.6451 3.34288,1.52224 4.75,1.949218 1.95411,0.592957 2.0862,0.777804 0.55859,0.783204 -2.83992,0.0099 -7.5,-1.826726 -7.5,-2.955079 0,-0.267611 0.23895,-0.375664 0.63281,-0.335937 z m 19.29492,0.58789 c -0.92838,-0.08582 -0.98126,0.523427 -0.75781,2.480469 0.29673,2.598776 0.78,2.946492 4.83008,3.486328 8.63167,1.150518 8.7659,1.126334 8.26758,-1.480468 -0.36925,-1.931634 -1.23878,-2.484629 -4.61133,-2.935547 -2.28594,-0.305636 -5.205,-0.872123 -6.48633,-1.257813 -0.52633,-0.158429 -0.93272,-0.264361 -1.24219,-0.292969 z M 175.55859,90 C 176.35113,90 177,90.45 177,91 c 0,0.55 -0.92613,1 -2.05859,1 -1.13246,0 -1.78133,-0.45 -1.44141,-1 0.33992,-0.55 1.26605,-1 2.05859,-1 z m -47.4082,3.291016 c 0.0739,-0.04817 0.67098,0.22774 1.84961,0.789062 1.375,0.654842 2.68685,1.354188 2.91602,1.554688 1.37232,1.200659 -1.88161,0.0868 -3.47461,-1.189454 -0.91516,-0.733187 -1.36487,-1.106127 -1.29102,-1.154296 z m 44.76563,1.832031 c 0.34739,0.01431 0.64635,0.107292 0.8125,0.273437 0.33229,0.332292 -0.25834,0.568811 -1.3125,0.525391 -1.16495,-0.04798 -1.40125,-0.286243 -0.60352,-0.605469 0.36094,-0.144434 0.75612,-0.207669 1.10352,-0.193359 z M 152.05859,96 c -2.19765,0 -3.48189,1.506062 -2.55859,3 1.15259,1.86493 4.5,1.12106 4.5,-1 0,-1.313063 -0.6671,-2 -1.94141,-2 z m -26.86132,0.470703 C 125.72936,95.938606 135,99.793493 135,100.54688 c 0,0.82264 -1.44579,0.43425 -5.89844,-1.585942 -2.41939,-1.097696 -4.17619,-2.218338 -3.90429,-2.490235 z m 45.06445,1.574219 c 1.25364,0 2.75284,0.318235 3.73828,0.955078 1.11575,0.721055 0.53938,0.972985 -2.25,0.984375 C 169.6875,99.992797 168,99.55 168,99 c 0,-0.636843 1.00808,-0.955078 2.26172,-0.955078 z m -3.20899,2.089848 C 167.90347,100.24286 169,101.1737 169,102.05859 169,102.57613 168.57613,103 168.05859,103 c -1.17986,0 -2.44092,-1.9497 -1.72461,-2.66602 0.17908,-0.17907 0.43518,-0.23524 0.71875,-0.19921 z M 137.75,107.07031 C 138.9875,107.03165 140,107.45 140,108 c 0,0.55 -0.1125,0.96835 -0.25,0.92969 -0.1375,-0.0386 -1.15,-0.457 -2.25,-0.92969 -1.90836,-0.82005 -1.8969,-0.86259 0.25,-0.92969 z m 14.16602,2.05274 c 0.34739,0.0143 0.64635,0.10729 0.8125,0.27343 0.33229,0.3323 -0.25834,0.5688 -1.3125,0.5254 -1.16495,-0.048 -1.40125,-0.28625 -0.60352,-0.60547 0.36094,-0.14446 0.75612,-0.20767 1.10352,-0.19336 z M 147.51758,116 c -0.79421,0 -1.1425,2.47155 -1.0918,7.75 0.0409,4.2625 -0.28829,8.47951 -0.73242,9.37109 -0.5132,1.03024 -0.26062,2.16908 0.69336,3.12305 0.89147,0.89148 2.53836,1.30196 4.05664,1.01172 2.56102,-0.48957 3.43392,-2.59564 1.55664,-3.75586 -0.55,-0.33992 -1,-2.67713 -1,-5.19336 C 151,122.7117 149.10085,116 147.51758,116 Z m 19.69726,2 c -2.0668,0 -1.97873,1.53018 0.34766,6.12109 2.34145,4.62063 4.46412,6.36543 4.41602,3.62891 -0.0358,-2.03452 -3.80564,-9.75 -4.76368,-9.75 z m 160.44141,12.76172 c -0.0477,0.0908 -0.11268,0.15577 -0.1543,0.25586 -0.002,0.19737 -0.007,0.39375 -0.008,0.5918 3.9e-4,0.0438 -1.3e-4,0.0599 0,0.0996 0.0248,-0.21309 0.0509,-0.42581 0.0898,-0.63671 0.0103,-0.0555 0.0458,-0.20045 0.0723,-0.31055 z m -143.48437,1.24023 c 0.34779,-0.0163 0.87658,0.38045 1.54101,1.24805 2.39821,3.13155 5.3697,17.93459 5.65234,28.16016 0.12519,4.52894 -1.00576,6.61533 -2.67773,4.94336 -0.37813,-0.37813 -0.6888,-3.6487 -0.68945,-7.26954 -0.001,-6.343 -1.72956,-17.06311 -3.84375,-23.83398 -0.63918,-2.04704 -0.56217,-3.22082 0.0176,-3.24805 z M 11.292969,134.375 C 11.474219,134.2951 11.725,134.33 12,134.5 c 0.55,0.33992 1,0.81605 1,1.05859 C 13,135.80113 12.55,136 12,136 c -0.55,0 -1,-0.47613 -1,-1.05859 0,-0.29123 0.111719,-0.48648 0.292969,-0.56641 z m 181.041011,4.80273 c 0.6583,0.0441 2.26329,2.15815 4.57227,6.07227 2.77428,4.70288 4.71621,7.50223 12.91211,18.60938 2.51384,3.40674 2.20615,3.54739 -4.31836,1.97851 -2.2,-0.52902 -5.66626,-0.70814 -7.70312,-0.39648 l -3.70313,0.5664 0.56836,-4.80078 c 0.33363,-2.81691 -0.0992,-8.02877 -1.04688,-12.61133 C 192.72686,144.29999 192,140.35761 192,139.83398 c 0,-0.45505 0.11455,-0.67095 0.33398,-0.65625 z m 140.78516,7.45118 c -0.0255,0.1589 -0.0496,0.31824 -0.0781,0.47656 0.0191,-0.0532 0.0389,-0.0986 0.0762,-0.1543 7.8e-4,-0.10739 0.001,-0.21488 0.002,-0.32226 z m -184.31641,7.12695 c 3.9641,0.0285 11.73304,2.57123 14.16211,4.86328 1.71241,1.61582 1.62702,1.60963 -2.96484,-0.17187 -1.925,-0.74685 -6.2,-1.8955 -9.5,-2.55274 -5.49448,-1.0943 -5.75843,-1.26149 -3.13672,-1.98828 0.38434,-0.10655 0.87316,-0.15446 1.43945,-0.15039 z m 122.01563,5.75 c 1.49277,0.39962 2.90146,2.55027 7.24609,9.74219 7.13873,11.81715 8.23816,13.79004 10.73047,19.25195 1.00388,2.2 2.33182,4.9 2.94922,6 0.95738,1.70571 7.25578,14.64861 7.25586,14.91016 6e-5,0.24492 -28.91848,0.0483 -31.62305,-0.21485 -2.52884,-0.24608 -3.41965,-1.00647 -4.6875,-4 -11.44088,-27.01324 -15.16471,-37.14777 -14.02734,-38.18164 1.02078,-0.92788 16.79296,-6.65127 20.52344,-7.44726 0.6279,-0.13398 1.13522,-0.19396 1.63281,-0.0605 z m -47.22656,3.19531 c 5.16629,0.2146 15.29249,1.12615 16.97265,1.66016 1.50796,0.47927 3.91455,4.89958 8.92578,16.39648 3.77372,8.65779 7.23235,16.16891 7.68555,16.69141 0.4532,0.5225 0.82422,1.66535 0.82422,2.53906 0,0.87371 0.83796,3.23497 1.86328,5.2461 2.19996,4.3151 1.75384,4.597 -5.86328,3.69531 -3.025,-0.35809 -8.43879,-0.43236 -12.03125,-0.16407 -7.48049,0.55879 -7.54512,0.49401 -10.4043,-10.48632 -0.82781,-3.17912 -3.70525,-12.40385 -6.39648,-20.5 -2.69123,-8.09615 -4.75753,-14.85577 -4.5918,-15.02149 0.12322,-0.12321 1.29353,-0.12833 3.01563,-0.0566 z m -8.8418,0.30274 c 1.14893,0.002 2.41204,1.63392 3.67578,4.75 1.05867,2.61044 3.36504,7.89609 5.12695,11.74609 2.57009,5.61597 8.51079,26.50919 8.45899,29.75 -0.0129,0.80474 -4.66679,0.75166 -14.92774,-0.17188 -5.40281,-0.48625 -6.16953,-0.78012 -4.85937,-1.85937 2.19161,-1.80533 5.46618,-9.84676 6.29883,-15.46875 0.76524,-5.16686 2.47656,-6.49107 2.47656,-1.91602 0,2.78088 3.30091,13.96754 5.13867,17.41602 1.12101,2.10353 2.86133,2.30809 2.86133,0.33594 0,-1.53057 -3.35686,-10.83821 -11.08594,-30.74219 C 215.21094,169.88264 213,163.92017 213,163.59375 c 0,-0.32641 0.7875,-0.59184 1.75,-0.58984 z m 56.97461,0.92187 c -0.39875,0.0413 -1.42574,0.0742 -2.2832,0.0742 -0.85748,0 -1.28133,0.45 -0.94141,1 0.83428,1.34989 4.76077,1.28224 4.30859,-0.0742 -0.19708,-0.59125 -0.68523,-1.0413 -1.08398,-1 z M 262.05859,165 c -2.08723,0 -3.40782,1.31874 -2.36523,2.36133 0.78176,0.78176 0.77236,0.7806 2.72461,0.0312 C 264.62703,166.54508 264.39489,165 262.05859,165 Z m -33.67578,1 c -0.82497,0 -1.22273,0.45 -0.88281,1 0.33992,0.55 1.29219,1 2.11719,1 0.82497,0 1.22273,-0.45 0.88281,-1 -0.33992,-0.55 -1.29219,-1 -2.11719,-1 z m 8.49414,0 C 235.66606,166 235,166.71014 235,168 c 0,1.1 0.47613,2 1.05859,2 0.58246,0 0.8047,0.41426 0.49219,0.91992 -0.31252,0.50566 0.14238,1.63066 1.01172,2.5 0.86934,0.86934 2.42493,1.58008 3.45703,1.58008 1.67469,0 1.75869,-0.34961 0.7832,-3.25 -1.45754,-4.33365 -2.67121,-5.75 -4.92578,-5.75 z m -32.17968,1.73242 c 0.89095,0.063 2.01653,0.2691 3.3164,0.64844 6.04366,1.76369 8.4063,6.29342 8.4043,16.11914 -0.001,5.72939 -0.55876,8.17985 -3.06836,13.5 -4.11348,8.72022 -7.21004,11.45854 -13.17969,11.65234 -2.56827,0.0834 -7.03242,0.48295 -9.91992,0.88868 l -5.25,0.73828 -0.0156,-3.39063 C 184.97275,205.33241 184.73112,204.86868 184,206 c -0.53316,0.825 -0.97637,2.5125 -0.98438,3.75 -0.009,1.3839 -0.62711,2.25 -1.60546,2.25 -1.40791,0 -1.51372,-1.52215 -0.91993,-13.25 0.70472,-13.91903 2.18251,-29.75477 2.83789,-30.41016 0.21244,-0.2124 1.01308,-0.14659 1.7793,0.14649 1.11996,0.42838 1.35032,3.52128 1.17774,15.77344 -0.16195,11.49758 0.0466,14.62623 0.84765,12.74023 0.58403,-1.375 1.05488,-8.0125 1.04688,-14.75 L 188.16602,170 h 3.45312 c 1.8985,0 4.53963,0.71353 5.87109,1.58594 1.33146,0.8724 2.8196,1.34006 3.30665,1.03906 1.16844,-0.72214 7.24205,5.58734 7.69531,7.99414 0.19482,1.03451 0.38954,3.13417 0.43164,4.66602 0.0678,2.46812 0.30385,2.66335 2.07617,1.71484 2.63973,-1.41274 2.48608,-3.38819 -0.78125,-10 -1.74758,-3.53643 -3.73498,-5.98244 -5.56641,-6.85156 -3.18719,-1.5125 -2.62782,-2.60494 0.0449,-2.41602 z M 253.5,169 c -0.825,0 -1.5,0.66101 -1.5,1.46875 0,0.89501 0.58629,1.2432 1.5,0.89258 0.825,-0.31659 1.5,-0.97759 1.5,-1.46875 C 255,169.40143 254.325,169 253.5,169 Z m 12.16211,0.23047 c -1.58687,0.0444 -3.66211,0.92644 -3.66211,1.83789 0,0.51293 1.35,0.93164 3,0.93164 2.95131,0 3.96947,-1.28262 1.99023,-2.50586 -0.32556,-0.20121 -0.79917,-0.27846 -1.32812,-0.26367 z M 229.5,170 c -2.85343,0 -3.38032,1.62318 -0.75,2.31055 3.01232,0.78721 3.25,0.72804 3.25,-0.81055 0,-0.93333 -0.94444,-1.5 -2.5,-1.5 z m 43.94141,0 c -1.40746,0 -2.30801,0.40788 -2,0.90625 0.30801,0.49837 1.46108,0.67032 2.56054,0.38281 C 276.7535,170.56951 276.50546,170 273.44141,170 Z M 20.4375,170.13281 c 3.490698,0.007 7.402349,0.28628 9.421875,0.83008 C 35.29886,172.4276 73,197.6618 73,199.83789 c 0,0.36817 -3.4875,0.77246 -7.75,0.89844 -4.2625,0.12598 -11.8,0.47607 -16.75,0.77929 -4.95,0.30324 -11.051048,0.79237 -13.558594,1.08594 l -4.560547,0.53321 -8.939453,-8.3086 -8.941406,-8.30859 0.337891,-7.4961 c 0.18537,-4.12226 0.501801,-7.76288 0.705078,-8.09179 0.333171,-0.5391 3.403833,-0.80388 6.894531,-0.79688 z M 25.876953,173 c -3.593955,0 -3.621634,0.81446 -0.126953,3.67578 3.27414,2.68075 4.121112,2.82095 4.892578,0.81055 C 31.508154,175.23067 29.13815,173 25.876953,173 Z M 255.5,173 c -0.825,0 -1.5,0.45 -1.5,1 0,0.55 0.675,1 1.5,1 0.825,0 1.5,-0.45 1.5,-1 0,-0.55 -0.675,-1 -1.5,-1 z m 21.05859,0 c -0.79254,0 -1.71867,0.45 -2.05859,1 -0.33992,0.55 0.30895,1 1.44141,1 1.13246,0 2.05859,-0.45 2.05859,-1 0,-0.55 -0.64887,-1 -1.44141,-1 z m -45.61718,2 C 229.87387,175 229,175.45 229,176 c 0,0.55 1.15113,1 2.55859,1 1.45136,0 2.29193,-0.43284 1.94141,-1 -0.33992,-0.55 -1.49105,-1 -2.55859,-1 z M 268.5,175 c -1.62953,0 -2.5,0.55996 -2.5,1.60742 0,1.0545 0.54404,1.39831 1.58203,1 0.86998,-0.33385 1.99498,-0.60742 2.5,-0.60742 0.50501,0 0.91797,-0.45 0.91797,-1 0,-0.55 -1.125,-1 -2.5,-1 z m -29.375,1.26953 c -1.3095,0.0744 -1.61983,0.90362 -0.45898,2.06445 0.36666,0.36667 2.03283,0.66602 3.70117,0.66602 3.52856,0 2.57021,-1.50294 -1.61719,-2.53711 -0.64142,-0.15841 -1.1885,-0.21814 -1.625,-0.19336 z M 279.05859,178 c -1.06754,0 -2.21867,0.45 -2.55859,1 -0.35052,0.56716 0.49005,1 1.94141,1 1.40746,0 2.55859,-0.45 2.55859,-1 0,-0.55 -0.87387,-1 -1.94141,-1 z m -18.58789,0.11719 c -1.75429,0.0328 -4.4707,1.00387 -4.4707,1.90234 0,0.53952 0.7875,0.97282 1.75,0.96485 2.26894,-0.0199 4.88648,-1.68189 4.01758,-2.55079 -0.23494,-0.23493 -0.71211,-0.32733 -1.29688,-0.3164 z m 9.75391,1.02343 c -0.81359,0.0774 -1.22461,0.50731 -1.22461,1.28907 0,1.02102 0.90348,1.57031 2.58398,1.57031 3.13272,0 2.7894,-2.34923 -0.4121,-2.82031 -0.36057,-0.0531 -0.67607,-0.0649 -0.94727,-0.0391 z M 232.38281,180 c -1.41203,0 -2.23188,0.43519 -1.88281,1 0.33992,0.55 1.74219,1 3.11719,1 1.41203,0 2.23188,-0.43519 1.88281,-1 -0.33992,-0.55 -1.74219,-1 -3.11719,-1 z m -214.916013,1 c -0.672412,0 -1.752548,0.63932 -2.400391,1.41992 -0.930439,1.12111 -0.79725,1.63909 0.628906,2.46875 C 17.717053,186.06481 22,186.36322 22,185.32812 22,184.12857 18.72283,181 17.466797,181 Z m 224.468753,1 c -1.7447,0 -0.94607,1.68909 1.31445,2.7793 2.91564,1.40616 4.75,1.48132 4.75,0.19531 C 248,183.99979 243.92275,182 241.93555,182 Z m 20.72265,0.30859 c -1.41634,0.37492 -3.6582,1.81745 -3.6582,2.63282 0,1.08903 3.82233,0.15402 4.61523,-1.12891 0.32154,-0.5202 0.35337,-1.17797 0.0703,-1.46094 -0.17506,-0.17506 -0.55523,-0.16782 -1.02735,-0.043 z M 282.5,184.5 c -1.00833,0 -2.02083,0.5625 -2.25,1.25 -0.26389,0.79167 0.56111,1.25 2.25,1.25 1.68889,0 2.51389,-0.45833 2.25,-1.25 -0.22917,-0.6875 -1.24167,-1.25 -2.25,-1.25 z m -6.94141,0.5 c -1.93329,0 -2.89003,1.70073 -1.31445,2.33594 C 276.42718,188.21606 277,188.04198 277,186.5 c 0,-0.825 -0.64887,-1.5 -1.44141,-1.5 z m -195.429684,1.10938 c 4.169353,-0.0978 4.735005,0.16352 5.69336,2.64062 0.585165,1.5125 2.273656,5.9 3.753906,9.75 1.48025,3.85 4.682785,9.7 7.115234,13 l 4.421874,6 -2.691405,0.33008 c -1.47977,0.18114 -5.4778,-0.15636 -8.886719,-0.75 -7.635749,-1.32971 -17.227785,-1.35082 -29.035156,-0.0625 -10.244913,1.11783 -36.423939,1.94548 -41.148438,1.30078 -3.311623,-0.45191 -4.31122,-2.19681 -4.33789,-7.56836 -0.01507,-3.03523 1.097893,-3.52523 2.947266,-1.29688 2.623242,3.16087 20.549538,6.59365 32.039062,6.13477 4.125,-0.16474 7.5,-0.40002 7.5,-0.52148 0,-0.12147 1.35,-0.39763 3,-0.61329 8.852598,-1.15699 11.574402,-1.76391 12.162109,-2.71484 0.445256,-0.72044 -1.205184,-0.80887 -5.255859,-0.2832 -11.522455,1.49533 -17.017,1.57899 -26.072266,0.40234 -8.471202,-1.10076 -9.198752,-1.37373 -9.625,-3.60351 -0.253643,-1.32685 0.04455,-2.56574 0.664063,-2.75391 C 32.992564,205.31182 42.5,204.90488 53.5,204.5957 c 11,-0.30918 20.875011,-0.68132 21.945312,-0.82812 1.269318,-0.17409 2.660241,0.84861 4,2.94336 2.498402,3.90631 3.324897,4.05654 4.154297,0.75195 0.541554,-2.15772 -0.272182,-3.42406 -5.429687,-8.45508 -3.336071,-3.25425 -8.000939,-7.17147 -10.367188,-8.70508 L 63.5,187.51367 l 6,-0.64844 c 3.3,-0.35674 8.083132,-0.69616 10.628906,-0.75585 z m 153.750004,0.13085 c -2.2225,0.38565 -2.15008,0.51667 1.12109,2.00196 3.96898,1.80213 5.12343,1.45351 2.81836,-0.85157 -0.86727,-0.86725 -2.61957,-1.37941 -3.93945,-1.15039 z m 31.89062,1.79688 c -1.24733,0.0242 -2.8126,0.3374 -3.73047,0.91797 -1.05756,0.66893 -0.56542,0.89688 1.78516,0.83008 1.78538,-0.0508 3.48168,-0.47176 3.76953,-0.9375 0.35204,-0.56962 -0.57689,-0.83471 -1.82422,-0.81055 z m -20.3125,1.0918 C 244.4389,189.18875 244,189.601 244,190.43359 244,191.5168 244.9518,192 247.08398,192 c 3.82597,0 3.48298,-2.35553 -0.41015,-2.81641 -0.47357,-0.0561 -0.87742,-0.0746 -1.2168,-0.0547 z m 39.54297,2 c -0.45312,0 -0.90625,0.0703 -1.25,0.20898 -0.6875,0.27741 -0.125,0.50391 1.25,0.50391 1.375,0 1.9375,-0.2265 1.25,-0.50391 -0.34375,-0.1387 -0.79688,-0.20898 -1.25,-0.20898 z m -6.0332,0.20507 c -1.32122,0.0555 -2.9668,0.89267 -2.9668,1.77344 0,1.18349 3.72172,1.15085 4.45703,-0.0391 0.31644,-0.512 0.15973,-1.18716 -0.34961,-1.50195 -0.29556,-0.18267 -0.70022,-0.25091 -1.14062,-0.23243 z M 52.544922,194 c -3.47897,0 -3.780929,1.17593 -0.792969,3.0918 3.295205,2.11288 3.932554,2.22896 4.775391,0.86523 C 57.488165,196.40238 55.070858,194 52.544922,194 Z m 184.337888,0 c -1.74536,0 -2.74237,0.41821 -2.38281,1 0.33992,0.55 1.96719,1 3.61719,1 1.74536,0 2.74237,-0.41821 2.38281,-1 -0.33992,-0.55 -1.96719,-1 -3.61719,-1 z m 32.18164,0 c -2.25559,0 -6.12973,2.08656 -5.5664,2.99805 0.71399,1.15525 1.17695,1.19516 4.25195,0.37109 C 269.90781,196.79087 270.99658,194 269.06445,194 Z M 248,194.59961 c -2.0321,-0.20321 -1.03917,1.92255 1.19141,2.55078 C 252.74415,198.151 253,198.10717 253,196.5 c 0,-0.825 -0.9,-1.56789 -2,-1.65039 -1.1,-0.0825 -2.45,-0.195 -3,-0.25 z m -212.857422,1.50195 c -0.59751,-0.0421 -1.164956,0.27944 -2.142578,0.9336 -1.29833,0.86874 -1.238745,1.20249 0.441406,2.48437 1.067621,0.81455 2.503986,1.48047 3.191406,1.48047 2.214802,0 2.727435,-2.26353 0.828126,-3.65234 -1.093982,-0.79994 -1.720849,-1.20405 -2.31836,-1.2461 z m -16.765625,2.19922 C 18.994543,198.51139 19.5,200.17617 19.5,202 c 0,3.85073 2.200688,5.26984 2.677734,1.72656 0.308401,-2.29067 0.460903,-2.33595 3.572266,-1.05664 2.792366,1.14815 3.25,1.82733 3.25,4.83203 C 29,209.94384 28.547385,211 27.5,211 c -1.434366,0 -1.877327,-0.61482 -1.619141,-2.25 0.118271,-0.74907 -1.541094,-1.14909 -3.326171,-0.80273 -2.760382,0.5356 -5.094168,-2.17581 -5.195313,-6.03321 -0.06696,-2.5537 0.299995,-3.858 1.017578,-3.61328 z M 238.94141,199 c -1.7847,0 -2.80199,0.41658 -2.44141,1 0.33992,0.55 1.71605,1 3.05859,1 1.34254,0 2.44141,-0.45 2.44141,-1 0,-0.55 -1.37613,-1 -3.05859,-1 z m 43.11718,0 c -2.93548,0 -4.57543,1.15112 -3.36523,2.36133 0.77765,0.77745 1.18573,0.77643 4.05664,0.008 C 285.96835,200.5059 285.52842,199 282.05859,199 Z m 7.44141,0 c -0.825,0 -1.5,0.675 -1.5,1.5 0,0.825 0.675,1.5 1.5,1.5 0.825,0 1.5,-0.675 1.5,-1.5 0,-0.825 -0.675,-1.5 -1.5,-1.5 z m -42.38672,0.41602 c -0.6777,0.0447 -1.11328,0.19468 -1.11328,0.48046 0,0.5433 1.9125,1.16057 4.25,1.3711 2.3375,0.21054 4.45172,0.46249 4.69922,0.55859 0.2475,0.0961 0.0225,-0.22179 -0.5,-0.70508 -1.09904,-1.01656 -5.30283,-1.83923 -7.33594,-1.70507 z m 24.40234,1.20312 c -0.78966,0.1515 -1.73994,0.4453 -2.6621,0.8457 l -3.35352,1.45704 3,0.0234 c 3.42489,0.0272 6.25286,-1.36343 4.71094,-2.3164 -0.27595,-0.17055 -0.90563,-0.16035 -1.69532,-0.01 z M 186,201 c -0.55,0 -1,0.70113 -1,1.55859 0,0.85748 0.45,1.28133 1,0.94141 0.55,-0.33992 1,-1.04105 1,-1.55859 C 187,201.42387 186.55,201 186,201 Z m -108.441406,9 c -0.792541,0 -1.718675,0.45 -2.058594,1 -0.339919,0.55 0.308947,1 1.441406,1 C 78.073865,212 79,211.55 79,211 c 0,-0.55 -0.648865,-1 -1.441406,-1 z M 83.5,219.97852 c 15.993266,-0.0383 17.08037,0.0796 18.37109,1.99023 0.75459,1.11698 1.99209,2.03125 2.75,2.03125 1.79143,0 1.78572,2.66801 -0.01,3.70117 -2.25901,1.30058 -5.305816,9.12503 -7.621096,19.57422 l -2.166015,9.77539 -3.16211,-0.082 C 89.923901,256.9233 80.175,257.24732 70,257.68945 c -10.175,0.44213 -23.337112,0.80464 -29.25,0.80664 -5.912888,0.002 -10.750388,0.28837 -10.75,0.63672 0.0019,1.67664 6.748015,2.0566 33.75,1.89844 16.0875,-0.0942 29.241079,0.19742 29.230469,0.64844 -0.01061,0.45102 -0.601994,3.07031 -1.314453,5.82031 l -1.294922,5 -31.935547,0.082 C 40.871115,272.62753 24.1375,272.49092 21.25,272.2793 L 16,271.89453 15.880859,267.69727 c -0.203504,-7.20997 0.357178,-8.85962 2.335938,-6.88086 0.650833,0.65083 2.217422,1.18359 3.482422,1.18359 4.273824,0 2.14383,-3.1642 -2.949219,-4.38086 L 16,256.96094 V 240.5625 c 0,-9.01954 0.264115,-17.08524 0.585938,-17.92383 0.422784,-1.10176 1.185604,-1.29941 2.75,-0.71094 2.226437,0.8375 29.878719,0.51438 33.910156,-0.39648 4.626336,-1.04528 13.73507,-1.51323 30.253906,-1.55273 z m 112.93164,3.48242 c -0.75874,0.0934 -2.27784,1.20053 -4.30469,3.28906 -4.17394,4.30095 -9.90757,13.36941 -14.38476,22.75 -0.78752,1.65 -2.17769,3.61821 -3.08789,4.37305 -2.03279,1.68584 -2.13825,3.12695 -0.22852,3.12695 1.3489,0 4.06644,-4.19191 9.99805,-15.42188 2.94267,-5.57114 7.56331,-11.92497 8.20508,-11.2832 0.23484,0.23485 -0.0752,1.72763 -0.68946,3.31641 -3.03905,7.86062 -8.00122,40.19756 -9.49609,61.88867 -0.37904,5.5 -0.77902,10.9 -0.88867,12 -0.10964,1.1 -0.56191,5.7125 -1.00586,10.25 -0.44395,4.5375 -1.19875,8.25 -1.67774,8.25 C 178.39211,326 178,325.06154 178,323.91406 178,321.47068 174.98493,310.21709 170.92383,297.5 167.0855,285.48051 164,273.01377 164,269.52734 c 0,-2.77354 -0.0447,-2.7969 -2,-1.02734 -1.1,0.99549 -2,2.56085 -2,3.47852 0,0.91766 2.47899,8.83611 5.50977,17.5957 3.03077,8.75959 6.208,19.30078 7.05859,23.42578 2.45284,11.89529 5.39451,24.11707 6.98047,29 0.80387,2.475 1.46003,5.66315 1.45703,7.08398 -0.003,1.42084 0.2811,2.87094 0.63281,3.22266 0.35171,0.35166 1.06978,0.37396 1.59571,0.0488 1.15199,-0.71197 0.58653,-4.70868 -1.86133,-13.15625 -1.20957,-4.17426 -1.47746,-6.53714 -0.79688,-7 1.14103,-0.77603 2.22534,-9.46215 5.94141,-47.59375 1.38795,-14.24208 3.18931,-29.54208 4.0039,-34 2.49145,-13.63467 4.43087,-21.99674 5.6504,-24.35352 1.01634,-1.9642 1.0185,-2.88437 0.25976,-2.79101 z m -41.11914,4.11914 c -0.22279,0.22725 -0.43813,1.16472 -0.79297,2.96094 l -0.7832,3.95898 -1.32227,-3 c -0.72781,-1.65 -1.34188,-2.325 -1.36328,-1.5 -0.0214,0.825 0.64121,2.80411 1.47266,4.39844 1.83893,3.52621 1.28482,4.29071 -2.01953,2.78515 C 148.52171,236.28044 148,235.30884 148,232.52148 148,229.93168 147.56913,229 146.36914,229 c -1.37442,0 -1.50977,0.67004 -0.85742,4.25 0.42594,2.3375 0.87498,6.275 0.99805,8.75 0.12308,2.475 0.28402,4.8375 0.35742,5.25 0.0734,0.4125 0.80781,0.75 1.63281,0.75 1.11111,0 1.5,-1.16667 1.5,-4.5 0,-5.08798 0.43973,-5.37462 3.63477,-2.37305 3.75639,3.52895 5.23435,1.96955 4.22656,-4.45703 -0.47422,-3.02406 -1.24394,-6.53054 -1.71094,-7.79297 -0.38521,-1.04134 -0.6151,-1.52413 -0.83789,-1.29687 z m 54.44141,2.83984 c -0.98996,-0.98995 -3.97267,10.92706 -6.27344,25.0625 -1.34446,8.26013 -2.9031,17.18929 -3.46289,19.84375 -0.5598,2.65446 -1.01758,6.5836 -1.01758,8.73047 0,2.14687 -0.64145,7.40016 -1.42578,11.67383 -1.39499,7.60109 -2.8112,17.7478 -4.1543,29.76953 -0.36868,3.3 -0.423,5.77107 -0.12109,5.49219 0.76136,-0.70329 6.29653,-29.64525 7.64844,-39.99219 0.61083,-4.675 1.76196,-11.65 2.55859,-15.5 1.93202,-9.33716 6.80833,-44.51979 6.24805,-45.08008 z M 106.98047,236.5 c -1.81032,0 -3.35739,10.56792 -4.97852,34 -0.60882,8.8 -1.53373,18.44508 -2.054684,21.43359 C 99.426307,294.9221 99,303.43395 99,310.84961 c 0,7.41565 0.192449,13.29193 0.427734,13.05664 1.206836,-1.20684 3.650296,-20.45616 4.558596,-35.90625 1.44865,-24.64119 1.94254,-30.73213 2.99414,-37 1.65071,-9.83882 1.65053,-14.5 0,-14.5 z m 49.78906,8.51562 c -0.13456,0.0508 -0.274,0.15682 -0.42383,0.30665 -0.63181,0.63181 2.40094,20.31269 3.39258,22.01562 0.26811,0.46043 0.9403,0.38392 1.49414,-0.16992 0.67599,-0.67599 0.33387,-4.35314 -1.04297,-11.18555 -1.80836,-8.97374 -2.47801,-11.32259 -3.41992,-10.9668 z m 83.82617,3.33399 c 2.82768,0.0205 6.84132,0.20479 11.89649,0.55469 8.64071,0.59808 16.15204,0.81576 16.6914,0.48242 0.53935,-0.33338 4.27203,-0.29697 8.29493,0.0801 l 7.31445,0.68359 6.75976,6.43555 c 3.71776,3.53923 6.45434,6.73902 6.08204,7.11133 -0.67323,0.67322 -43.25747,1.08269 -51.40235,0.49414 -4.20088,-0.30355 -4.32065,-0.41784 -7.82422,-7.375 -2.29009,-4.54751 -3.21377,-7.40927 -2.59179,-8.03125 0.31098,-0.31099 1.95162,-0.45606 4.77929,-0.43555 z m -68.5625,11.90625 c -0.44013,0.0416 -0.95661,0.26454 -1.5039,0.71875 -1.23531,1.02521 -1.30494,1.58989 -0.34375,2.74805 1.04857,1.26345 1.38328,1.22044 2.51562,-0.32813 1.28618,-1.75897 0.65243,-3.2635 -0.66797,-3.13867 z m -2.75586,7.92383 c -1.17828,-0.1261 -3.28289,2.00271 -2.64843,3.02929 0.36126,0.58453 1.24449,0.34535 2.17968,-0.58984 0.86464,-0.86468 1.27272,-1.87181 0.90625,-2.23828 -0.11986,-0.11987 -0.26917,-0.18316 -0.4375,-0.20117 z M 221.1582,271 c -1.20317,0 -6.1582,9.40278 -6.1582,11.68555 0,1.05307 -0.35788,2.34273 -0.79492,2.86523 -0.7876,0.94162 -2.95845,7.78034 -5.2207,16.44922 -0.64591,2.475 -1.75872,5.85 -2.47266,7.5 -0.71394,1.65 -2.06658,6.375 -3.00586,10.5 -0.93928,4.125 -3.01075,11.49748 -4.60547,16.38281 -1.59473,4.88534 -2.90039,9.27284 -2.90039,9.75 0,0.47717 0.9,0.86719 2,0.86719 1.56138,0 2,-0.66589 2,-3.03906 0,-1.67191 0.81887,-4.70941 1.82031,-6.75 1.00143,-2.04059 2.31889,-5.51094 2.92774,-7.71094 0.60885,-2.2 2.04587,-6.925 3.19336,-10.5 1.78159,-5.55053 6.77675,-23.94048 10.15234,-37.37891 0.53601,-2.13388 1.63522,-4.82165 2.44141,-5.97265 C 222.15275,273.33901 222.46536,271 221.1582,271 Z m -129.957028,7 c -1.20043,0 -2.911684,5.50716 -4.66211,15 -2.951807,16.00819 -5.087789,25.5008 -6.185546,27.5 -0.604009,1.1 -1.406125,4.12688 -1.783204,6.72656 -0.377076,2.59968 -0.998183,4.91943 -1.378906,5.1543 -0.882819,0.54462 -17.850781,2.13962 -39.941406,3.75391 -12.766817,0.93295 -17.25,1.59412 -17.25,2.54882 0,2.06524 39.898907,0.36821 50,-2.12695 7.015983,-1.73308 7.000041,-1.73642 6.994141,1.17383 -0.0031,1.52298 -0.459839,4.40727 -1.015625,6.4082 -1.010299,3.63727 -1.011708,3.63789 -7.744141,4.21875 -8.205136,0.70792 -12.965308,1.36043 -20.484375,2.8086 -4.546561,0.87566 -5.75,1.49734 -5.75,2.9707 0,1.46552 0.800662,1.88932 3.75,1.98242 2.0625,0.0651 5.1,0.46101 6.75,0.88086 6.878307,1.75023 24.221787,0.61237 30,-1.96875 1.777192,-0.79387 7.013575,-1.7348 14.5,-2.60547 4.54619,-0.52876 23.14724,-0.45367 24.03906,0.0977 C 122.27514,353.28722 135,350.83091 135,349.82812 135,349.3732 133.85059,349 132.44531,349 c -2.49619,0 -2.45938,-0.10255 1.63477,-4.4707 2.30489,-2.45913 4.82975,-5.38413 5.61133,-6.5 0.78159,-1.11587 2.2463,-2.0293 3.2539,-2.0293 1.31189,0 2.0239,-1.02207 2.50781,-3.60156 0.86899,-4.63212 0.2694,-5.14867 -1.98437,-1.70899 -0.99141,1.51309 -4.87863,5.90556 -8.63672,9.76172 -3.75808,3.85616 -6.83203,7.55067 -6.83203,8.21094 0,0.90775 -3.96258,1.06482 -16.25,0.64062 -13.098385,-0.45219 -17.264237,-0.25695 -21.478516,1.00782 -8.277383,2.48417 -7.952864,0.91093 2.128907,-10.31055 4.745877,-5.28238 8.419459,-7.85985 10.445309,-7.33008 1.4502,0.37924 2.45877,-0.94974 4.94922,-6.51953 1.7205,-3.8478 3.43443,-8.26934 3.8086,-9.82422 0.37416,-1.55489 1.5171,-4.49652 2.53906,-6.53711 2.19796,-4.38877 2.24855,-4.79025 0.60742,-4.78125 -0.6875,0.004 -3.26403,4.16638 -5.72461,9.25 -5.37706,11.10917 -8.1737,15.71387 -9.554687,15.73047 -1.292029,0.0156 -12.414181,11.40891 -15.386719,15.76172 -2.397887,3.51133 -2.820452,3.70247 -5.058593,2.28711 -1.292879,-0.8176 -1.272162,-1.58629 0.175781,-6.23438 2.650764,-8.50931 5.498603,-21.00124 9.273437,-40.68554 C 92.091513,282.25644 92.593784,278 91.201172,278 Z m 225.107418,26.07422 c -10.18318,-0.0741 -13.63008,1.02516 -9.12304,2.91016 1.27283,0.53235 3.66445,0.74696 5.31445,0.47656 1.65,-0.27039 7.5,-0.79988 13,-1.17578 8.88076,-0.60696 9.49634,-0.7644 5.5,-1.41016 -2.475,-0.39993 -9.08637,-0.75998 -14.69141,-0.80078 z M 322.44141,311 c -8.11803,0 -12.3409,0.35361 -11.94141,1 0.35619,0.57633 5.67662,1 12.55859,1 7.29399,0 11.94141,-0.38916 11.94141,-1 0,-0.61358 -4.85258,-1 -12.55859,-1 z m -160.89649,5.33984 c -0.1104,-0.0486 -0.2455,-0.0247 -0.40234,0.0723 -0.47123,0.29124 -1.66387,5.23863 -2.65039,10.99414 l -1.79297,10.46484 -4.65625,-0.55273 -4.65625,-0.55078 -1.25781,3.86523 c -0.69198,2.12652 -1.48204,4.54219 -1.75586,5.36719 -0.5019,1.51224 1.57687,-0.78763 3.97265,-4.39453 1.22403,-1.84279 1.47466,-1.84636 9.16797,-0.13477 4.34995,0.96778 8.95235,2.44312 10.22852,3.2793 1.27618,0.83618 2.5562,1.28364 2.8457,0.99414 0.69254,-0.69254 -4.23166,-4.05408 -8.33789,-5.69141 -3.77765,-1.50632 -3.90952,-2.4405 -1.76758,-12.55273 1.47129,-6.94607 1.83533,-10.81981 1.0625,-11.16016 z m 142.03125,1.25782 c -1.118,-0.21798 -1.68953,0.94204 -0.97851,2.79492 0.47054,1.22621 2.17987,1.57729 7.75195,1.58789 3.93222,0.007 10.97539,0.64559 15.65039,1.41797 4.675,0.77239 8.6125,1.44755 8.75,1.50195 0.1375,0.0544 0.25,-0.57539 0.25,-1.40039 0,-1.08107 -1.10781,-1.5 -3.96484,-1.5 -8.26162,0 -24.57661,-2.30473 -26.18555,-3.69922 -0.46654,-0.40436 -0.90077,-0.63046 -1.27344,-0.70312 z m -88.53515,4.62304 c -1.00935,0.0129 -1.25208,1.44197 -2.0879,6.89649 -0.5379,3.51034 -1.90062,8.98358 -3.02929,12.16211 -1.12866,3.17853 -2.11862,6.65399 -2.19922,7.72461 -0.17386,2.30801 -4.23693,3.95262 -10.12305,4.0957 -2.25543,0.0548 -5.22656,0.46004 -6.60156,0.90039 -3.23805,1.03701 7.12954,1.12838 15.06836,0.13281 5.88455,-0.73796 14.00765,-5.30494 18.93164,-10.64453 1.375,-1.49106 5.12128,-4.50144 8.32617,-6.68945 3.20489,-2.18801 5.63132,-4.17532 5.39063,-4.41602 -0.93052,-0.93052 -13.26104,6.21726 -17.13672,9.9336 -2.2437,2.15145 -5.54258,5.03844 -7.33008,6.41601 l -3.25,2.50586 v -2.60937 c 0,-1.43515 1.57112,-6.77651 3.49219,-11.86914 3.89422,-10.32333 4.28017,-13.24909 1.86523,-14.17579 -0.55706,-0.21376 -0.97996,-0.36759 -1.3164,-0.36328 z m -71.125,2.90235 c -0.3474,-0.0143 -0.74259,0.0489 -1.10352,0.19336 -0.79773,0.31922 -0.56143,0.55744 0.60352,0.60547 1.05416,0.0434 1.64479,-0.19311 1.3125,-0.5254 -0.16615,-0.16612 -0.46511,-0.25913 -0.8125,-0.27343 z m 161.75586,0.26367 c -2.36717,0.25946 -2.50091,1.3721 0.50585,2.48437 3.08249,1.14029 22.82227,1.32761 22.82227,0.2168 0,-0.50493 -3.4875,-1.19074 -7.75,-1.52539 -4.2625,-0.33465 -9.8875,-0.83792 -12.5,-1.11914 -1.25216,-0.13479 -2.28907,-0.14329 -3.07812,-0.0566 z m 26.10156,1.67383 C 331.26578,327.06055 331,327.37354 331,328 c 0,0.55 1.0125,0.9928 2.25,0.98438 1.81944,-0.0124 1.96296,-0.20051 0.75,-0.98438 -0.96938,-0.62646 -1.71891,-0.93945 -2.22656,-0.93945 z m -86.00586,2.44922 c -0.32099,-0.0411 -0.54527,-0.0193 -0.63867,0.082 -0.34599,0.37546 -0.17891,0.84801 0.37109,1.05078 0.55,0.20278 2.35,1.23234 4,2.28906 3.19781,2.04799 5.5,2.57904 5.5,1.26758 0,-1.01473 -6.98551,-4.40156 -9.23242,-4.68945 z M 167.47461,330 C 166.66373,330 166,330.45 166,331 c 0,0.55 0.45,1 1,1 0.55,0 1,0.63274 1,1.40625 0,0.89761 -0.69839,1.22289 -1.93164,0.90039 -1.55355,-0.40627 -1.82692,-0.10038 -1.39258,1.56055 0.29712,1.13618 1.29774,2.30606 2.22266,2.59961 2.00088,0.63506 8.10156,10.89403 8.10156,13.62304 0,1.08765 0.69233,1.91016 1.60742,1.91016 1.14315,0 1.3947,-0.50511 0.87305,-1.75 -0.40333,-0.9625 -1.80643,-5.04343 -3.11719,-9.06836 C 171.3107,333.80808 169.32133,330 167.47461,330 Z m 115.52734,2.27734 c -9.27949,-0.0334 -17.85339,0.61274 -19.79492,1.65625 -0.71166,0.3825 6.48834,0.70003 16,0.70703 19.39148,0.014 22.04505,0.63256 24.12695,5.61524 1.18875,2.84508 5.73864,9.5823 14.16602,20.97656 1.9198,2.59567 3.5,3.53361 3.5,2.07617 0,-0.59361 -4.53463,-8.77144 -9.59766,-17.30859 -0.81545,-1.375 -2.65462,-4.80546 -4.08789,-7.62305 l -2.60547,-5.12304 -12.4121,-0.70703 c -3.03013,-0.17265 -6.20176,-0.25841 -9.29493,-0.26954 z M 186.30859,335 c -1.56814,0 -1.73573,4.33407 -0.27343,7.06641 1.56245,2.91947 3.72052,2.32259 4.5039,-1.24414 0.53909,-2.45442 0.28661,-3.47779 -1.11133,-4.5 C 188.43254,335.59457 187.02847,335 186.30859,335 Z m 131.58789,0.11133 c -1.63125,-0.001 -3.30263,0.049 -4.61718,0.15234 -2.62909,0.20667 -0.7293,0.37786 4.2207,0.38086 4.95,0.003 7.10021,-0.16528 4.7793,-0.375 -1.16045,-0.10509 -2.75157,-0.15714 -4.38282,-0.1582 z m 13.97266,0.008 c -0.725,-0.004 -1.48547,0.0542 -2.10742,0.17383 -1.24391,0.23919 -0.46172,0.44398 1.73828,0.45508 2.19996,0.0111 3.21781,-0.18526 2.26172,-0.43555 -0.47805,-0.12516 -1.16758,-0.1897 -1.89258,-0.19336 z m -204.44531,0.53906 c -2.09492,-0.008 -4.79115,0.0214 -8.26563,0.0742 -15.4251,0.23429 -23.761986,1.48308 -22.587888,3.38281 0.347229,0.56183 1.298932,0.76563 2.113282,0.45313 C 99.497944,339.25519 108.03396,339 117.6543,339 c 16.12044,0 17.46515,-0.13718 17.15429,-1.75 -0.22957,-1.19106 -1.10001,-1.56693 -7.38476,-1.5918 z m 184.90429,3.79102 c -0.70587,0.002 -1.1492,0.0447 -1.24414,0.13867 -1.01912,1.00908 1.50234,1.94738 6.74414,2.50977 8.81404,0.94564 17.17188,0.98639 17.17188,0.084 0,-0.73004 -17.73064,-2.74402 -22.67188,-2.73242 z m -52.70703,5.72656 c 1.7981,-0.14263 3.55812,0.83484 7.42579,3.29883 2.9995,1.91093 6.35312,3.49965 7.45312,3.53125 2.17527,0.0624 6.16721,2.66093 5.34766,3.48047 -1.82757,1.82757 -46.03393,0.73281 -47.95118,-1.1875 -1.67613,-1.6788 1.52546,-2.91018 12.28125,-4.7168 4.77325,-0.80175 10.03925,-2.16011 11.70118,-3.01953 1.57066,-0.81222 2.66332,-1.30114 3.74218,-1.38672 z m -104.02148,1.01758 c -0.43834,-0.10585 -1.20818,-0.0682 -2.34961,0.18555 -1.5125,0.33623 -5.225,1.10527 -8.25,1.70898 -5.35151,1.06802 -8,2.3655 -8,3.91992 0,2.18224 6.01947,4.53227 13,5.07617 12.20347,0.95084 16,0.96694 16,0.0645 0,-0.46882 -4.37237,-1.16143 -9.7168,-1.53711 -11.36574,-0.79893 -14.50255,-1.45133 -14.01367,-2.91797 0.36694,-1.10084 2.15679,-1.79525 9.48047,-3.67774 3.50353,-0.90053 5.16464,-2.5047 3.84961,-2.82226 z m -74.771485,4.37891 c 0.180273,0.13694 -1.386974,1.414 -3.482422,2.83789 -3.416589,2.32164 -4.6896,2.57524 -12.328125,2.45312 C 60.332752,355.78762 55.375,355.52597 54,355.2793 c -2.96024,-0.53106 -5.105069,-2.24281 -2.949219,-2.35352 0.7975,-0.0409 7.749219,-0.64301 15.449219,-1.33789 7.7,-0.69488 14.147851,-1.15256 14.328125,-1.01562 z m 241.283205,0.50585 c -4.77179,0.10436 -2.79539,0.82799 5.03711,1.84376 3.49335,0.45303 6.68906,0.88147 7.10156,0.95117 0.4125,0.0697 0.75,-0.26108 0.75,-0.73633 0,-0.98148 -7.47957,-2.17688 -12.88867,-2.0586 z m -143.91016,4.13282 c -0.13573,0.16483 0.32082,0.54477 1.25781,1.27929 2.06515,1.61892 3.57294,1.61285 3.86524,-0.0156 0.0962,-0.53625 -1.17422,-1.0981 -2.82422,-1.24805 -1.43449,-0.13037 -2.16309,-0.18053 -2.29883,-0.0156 z M 324,356.14062 c -2.83644,10e-6 -3.12082,0.16289 -1.5,0.85938 1.1,0.47269 3.575,0.85937 5.5,0.85938 2.83644,-10e-6 3.12082,-0.16289 1.5,-0.85938 -1.1,-0.47269 -3.575,-0.85937 -5.5,-0.85938 z m -132.31055,1.88086 c -2.47333,0 -4.5929,0.32574 -4.18945,0.97852 0.33992,0.55 3.17855,0.9928 6.30859,0.98438 4.04328,-0.0109 5.25712,-0.29567 4.19141,-0.98438 -1.01012,-0.65278 -3.83721,-0.97852 -6.31055,-0.97852 z m 16.14258,0.0742 c -1.24221,0 -2.92799,0.30096 -4.33203,0.9043 -1.61186,0.69264 -1.28326,0.87305 1.69141,0.92969 2.03004,0.0387 3.96867,-0.37969 4.30859,-0.92969 0.37288,-0.60334 -0.42576,-0.9043 -1.66797,-0.9043 z m 114.66797,3.97657 6,1.26367 c 3.3,0.69499 6.18685,1.1298 6.41602,0.96484 1.20567,-0.86787 -1.55837,-1.66867 -6.66797,-1.93164 z m -283.955078,2.10351 c 1.87142,0.13028 4.941865,1.75546 7.609375,4.19922 1.956718,1.79259 5.645962,4.57827 8.199219,6.19141 2.553258,1.61313 4.643547,3.27109 4.644531,3.68359 9.83e-4,0.4125 0.789453,0.75763 1.751953,0.76562 1.363772,0.0119 1.450318,0.20482 0.392578,0.875 -0.746513,0.47301 -3.376226,0.89972 -5.84375,0.94922 -3.447558,0.0692 -4.361953,-0.23225 -3.951172,-1.30273 0.506915,-1.321 -8.577814,-10.55867 -12.951172,-13.16992 -1.043401,-0.62299 -1.611271,-1.43256 -1.263672,-1.79883 0.29783,-0.31383 0.788303,-0.43601 1.41211,-0.39258 z m 205.640628,0.0859 c -1.41619,0.0692 -2.18555,0.26216 -2.18555,0.57226 0,1.33434 4.95901,1.98463 21,2.75 10.85376,0.51788 13.89203,0.9901 15.5,2.41016 1.1,0.97145 4.925,3.38163 8.5,5.35547 7.44108,4.10841 7,3.93698 7,2.72461 0,-0.50968 -2.3625,-2.03406 -5.25,-3.38672 -10.60538,-4.96815 -11.60636,-7.55144 -2.30664,-5.94922 3.05657,0.5266 5.55708,0.68838 5.55664,0.35938 -4.5e-4,-0.32901 6.29955,-0.50174 14,-0.38477 8.45265,0.1284 14,-0.1688 14,-0.75 0,-0.57505 -6.34178,-0.97268 -15.75,-0.98828 -14.04528,-0.0233 -27.40171,-0.65257 -54,-2.54297 -2.58525,-0.18374 -4.64827,-0.23914 -6.06445,-0.16992 z M 61.382812,365.0332 c 1.83804,0.0557 3.969191,0.48534 5.144532,1.25 1.084878,0.70581 3.772656,1.90025 5.972656,2.6543 3.758112,1.28809 13.655363,7.8876 14.935547,9.95898 0.338146,0.54713 -1.916514,0.95411 -5.386719,0.97071 -5.496261,0.0263 -6.440694,-0.31818 -11.898437,-4.33594 -3.260552,-2.40028 -6.247447,-4.87991 -6.636719,-5.50977 -0.389271,-0.62985 -1.789755,-1.55613 -3.111328,-2.05859 C 59.08077,367.46043 58,366.589 58,366.02539 c 0,-0.72902 1.544774,-1.04791 3.382812,-0.99219 z m -32.691406,0.002 c 3.666135,0.0274 5.521556,0.64187 7.808594,2.58203 1.65,1.39975 5.177955,4.30741 7.839844,6.46289 4.715179,3.81819 4.766676,3.91875 2,3.87304 -1.561889,-0.026 -4.189844,-1.09965 -5.839844,-2.38671 -1.65,-1.28706 -5.815427,-3.78726 -9.255859,-5.55664 -3.440432,-1.76938 -6.504066,-3.62055 -6.808594,-4.11329 -0.304527,-0.49273 1.6109,-0.88112 4.255859,-0.86132 z m 64.027344,0.33398 c 3.171791,0.038 4.844087,0.4517 6.28125,1.4082 3.96531,2.63912 8.00034,4.87248 15.20898,8.41993 3.69047,1.81612 6.728,3.64338 6.75,4.05859 0.0374,0.70499 -10.11915,0.65819 -17.89062,-0.082 -2.46487,-0.23481 -4.800005,-1.63863 -8.289063,-4.98242 -5.12283,-4.90954 -7.811139,-6.81879 -7.730469,-5.49024 0.0267,0.43983 2.532535,2.82383 5.56836,5.29883 4.644288,3.78633 5.188064,4.55102 3.429687,4.82227 -1.259416,0.19428 -4.650817,-1.50554 -8.535156,-4.27735 -3.545006,-2.52966 -8.372891,-5.45566 -10.728516,-6.50195 L 72.5,366.14062 77,365.96484 c 2.475,-0.0974 7.875,-0.33029 12,-0.51562 1.437163,-0.0646 2.661486,-0.0927 3.71875,-0.0801 z m 29.32813,0.46875 c 1.52678,-0.0269 3.57869,0.0246 5.78515,0.16211 7.38538,0.46023 8.48631,0.82318 13.8457,4.56836 3.20236,2.23783 8.29727,5.28905 11.32227,6.7793 l 5.5,2.70898 -10.64648,-0.16992 c -10.41486,-0.16622 -10.73639,-0.2419 -14.79688,-3.45508 -2.28298,-1.80659 -6.37791,-4.71247 -9.09961,-6.45898 -2.7217,-1.74651 -4.7689,-3.46769 -4.54883,-3.82422 0.11004,-0.17827 1.11189,-0.28368 2.63868,-0.31055 z M 51.166016,366 c 1.251694,0 8.994199,5.90502 10.136718,7.73047 0.441995,0.7062 2.597179,2.19723 4.78711,3.31445 2.189931,1.11722 3.713605,2.46523 3.386718,2.99414 -0.750065,1.21364 -2.18785,1.23837 -2.921874,0.0508 -0.309523,-0.50082 -4.403124,-3.44143 -9.097657,-6.5332 C 49.950791,368.61304 47.775448,366 51.166016,366 Z m 92.666014,0 c 2.65617,0 4.42651,0.50892 4.75586,1.36719 0.28857,0.752 3.19958,3.30548 6.46875,5.67383 3.26917,2.36834 5.94336,4.67815 5.94336,5.13281 0,1.46025 -1.32925,0.85674 -10.5,-4.76172 C 138.9542,366.33856 138.64999,366 143.83203,366 Z m 12.91797,0.0469 c 5.13903,-0.0333 7.26021,0.31708 7.28711,1.20312 0.0209,0.6875 1.70837,2.47609 3.75,3.97461 2.04163,1.49851 4.90387,3.68838 6.35937,4.86719 1.4555,1.17882 3.21986,1.95211 3.91993,1.71875 0.70008,-0.23336 -2.02902,-2.87321 -6.0625,-5.86719 l -7.33203,-5.44336 4.80273,-0.31055 c 4.28269,-0.27679 5.18007,0.0489 8.25391,3 1.89654,1.82078 4.75774,4.95075 6.35937,6.95508 2.87606,3.59921 2.88457,3.64573 0.66211,3.75 -1.23764,0.0581 -5.76521,0.30073 -10.0625,0.53906 l -7.81445,0.4336 -5.21875,-4.6836 c -2.87097,-2.57572 -6.78076,-5.90004 -8.6875,-7.38671 L 149.5,366.09375 Z m 46.54492,0.15429 c 0.68311,-0.0583 1.66785,0.009 2.95508,0.19922 2.3375,0.34551 7.96299,0.66527 12.5,0.70899 4.537,0.0437 8.50064,0.48609 8.80859,0.98437 0.30796,0.49828 1.31996,0.91197 2.25,0.91797 2.04491,0.013 14.43545,8.50188 14,9.5918 C 243.6392,379.02743 237.2,379.4032 229.5,379.4375 l -14,0.0625 -3.5,-3.34375 c -1.925,-1.8392 -4.9625,-4.48056 -6.75,-5.86914 -3.34078,-2.5952 -4.00439,-3.91097 -1.95508,-4.08594 z m 119.63281,1.41406 c -1.29429,-0.11737 -1.02485,0.80104 0.62891,3.16211 1.25167,1.787 2.52536,2.22266 6.5,2.22266 3.65894,0 4.94336,-0.37834 4.94336,-1.45508 0,-0.91316 -1.39599,-1.66629 -3.75,-2.02344 -2.0625,-0.31292 -4.9875,-0.96975 -6.5,-1.45898 -0.78555,-0.25409 -1.39083,-0.40814 -1.82227,-0.44727 z M 190.88672,368 c -1.08987,0 4.8072,7.2473 7.93359,9.75 C 200.53484,379.12251 202,379.38359 202,378.31641 202,377.1917 192.09832,368 190.88672,368 Z m -95.248048,1.0332 c -0.626569,0.0183 -0.07577,0.9183 1.222656,2 1.298431,1.0817 2.873427,1.9519 3.500002,1.9336 0.62657,-0.0183 0.0758,-0.9183 -1.222658,-2 -1.298431,-1.0817 -2.873431,-1.9519 -3.5,-1.9336 z m 39.367188,0.084 c -0.54895,-0.004 0.10464,1.11829 2.21875,3.36523 1.80164,1.91485 4.10461,3.4898 5.11914,3.5 1.3363,0.0134 0.69105,-0.94692 -2.34375,-3.48242 -2.69403,-2.25077 -4.44519,-3.37917 -4.99414,-3.38281 z m 39.57031,0.91406 c -0.50838,-0.0173 0.13208,1.09375 1.42383,2.46875 1.29175,1.375 2.51589,2.5 2.7207,2.5 0.8308,0 -3.28948,-4.93965 -4.14453,-4.96875 z m 117.92383,0.86328 2.4707,2.14063 c 1.56673,1.35822 2.61014,1.72036 2.85352,0.99023 0.47806,-1.43419 0.26742,-1.6158 -2.82422,-2.45312 z m -105,0.81445 2,2.39454 c 1.1,1.31753 2.45,2.72677 3,3.13086 0.55,0.40406 1.675,0.73251 2.5,0.72851 1.56415,-0.007 -1.58921,-2.95243 -5.5,-5.13672 z M 299.68945,372 c -0.55,0 -0.18494,0.9 0.81055,2 0.99549,1.1 2.26055,2 2.81055,2 0.55,0 0.18494,-0.9 -0.81055,-2 -0.99549,-1.1 -2.26055,-2 -2.81055,-2 z m 18.54688,0.60547 c -0.15235,0.0255 -0.23633,0.0968 -0.23633,0.2168 0,0.48007 1.0125,1.3602 2.25,1.95703 4.59445,2.21582 5.27245,1.05935 0.75,-1.2793 -1.2375,-0.63994 -2.30664,-0.9712 -2.76367,-0.89453 z m -154.62305,0.49023 c -0.53505,0.0165 0.0261,0.99944 2.15234,2.9336 1.79618,1.63388 3.82117,2.95208 4.5,2.92968 0.67886,-0.0224 -0.32428,-1.37235 -2.22851,-3 -2.25807,-1.93007 -3.88878,-2.87976 -4.42383,-2.86328 z m -61.59766,0.89649 c -0.0843,0.038 0.22267,0.44843 0.85743,1.25781 0.75485,0.9625 1.84169,1.75 2.41601,1.75 0.57436,0 0.85612,-0.12757 0.62696,-0.2832 -0.22917,-0.15563 -1.31602,-0.94313 -2.41602,-1.75 -0.925,-0.67851 -1.40004,-1.01264 -1.48438,-0.97461 z M 203.29297,374.375 C 203.11172,374.4549 203,374.65018 203,374.94141 c 0,0.58246 0.45,1.05859 1,1.05859 0.55,0 1,-0.19887 1,-0.44141 0,-0.24254 -0.45,-0.71867 -1,-1.05859 -0.275,-0.16996 -0.52578,-0.20493 -0.70703,-0.125 z m 104.90039,0.0977 c -0.3385,0.3385 0.71719,1.70427 2.3457,3.03515 4.26972,3.48939 5.57948,2.9971 1.61524,-0.60742 -1.84,-1.67303 -3.62243,-2.76623 -3.96094,-2.42773 z M 78.382812,375 c -0.824995,0 -1.222731,0.45 -0.882812,1 0.339919,0.55 1.292186,1 2.117188,1 0.824995,0 1.222731,-0.45 0.882812,-1 -0.339919,-0.55 -1.292186,-1 -2.117188,-1 z m 211.910158,8.375 c 0.18125,-0.0799 0.43203,-0.045 0.70703,0.125 0.55,0.33992 1,0.81605 1,1.05859 0,0.24254 -0.45,0.44141 -1,0.44141 -0.55,0 -1,-0.47613 -1,-1.05859 0,-0.29123 0.11172,-0.48648 0.29297,-0.56641 z" />
  </g>
</svg>
