<?xml version="1.0" encoding="UTF-8" standalone="no"?>
<!-- Created with Inkscape (http://www.inkscape.org/) -->

<svg
   version="1.1"
   id="svg2"
   width="335"
   height="396"
   viewBox="0 0 335 396"
   sodipodi:docname="20.svg"
   inkscape:version="1.1.2 (0a00cf5339, 2022-02-04)"
   xmlns:inkscape="http://www.inkscape.org/namespaces/inkscape"
   xmlns:sodipodi="http://sodipodi.sourceforge.net/DTD/sodipodi-0.dtd"
   xmlns="http://www.w3.org/2000/svg"
   xmlns:svg="http://www.w3.org/2000/svg">
  <defs
     id="defs6" />
  <sodipodi:namedview
     id="namedview4"
     pagecolor="#505050"
     bordercolor="#eeeeee"
     borderopacity="1"
     inkscape:pageshadow="0"
     inkscape:pageopacity="0"
     inkscape:pagecheckerboard="0"
     showgrid="false"
     inkscape:zoom="1.8914141"
     inkscape:cx="94.109479"
     inkscape:cy="162.57677"
     inkscape:window-width="1920"
     inkscape:window-height="1043"
     inkscape:window-x="0"
     inkscape:window-y="0"
     inkscape:window-maximized="1"
     inkscape:current-layer="g8" />
  <g
     inkscape:groupmode="layer"
     inkscape:label="Image"
     id="g8">
    <path
       id="path12"
       style="fill:#000000"
       d="M 76.794922,5.4121094 C 59.521898,5.5733747 44.541008,6.0586016 43.841797,6.7578125 c -2.137487,2.1374873 11.994411,4.5442085 27.40625,4.6660155 5.360969,0.04238 9.7485,-0.314369 9.75,-0.791016 0.0015,-0.476646 1.014453,-0.559165 2.251953,-0.183593 1.2375,0.375573 5.625,0.83683 9.75,1.023437 8.45757,0.382605 11.64981,0.845117 12.63672,1.832032 0.3731,0.373098 1.30304,0.161214 2.06445,-0.470704 1.04313,-0.865697 1.66876,-0.864407 2.54102,0.0078 1.48484,1.484835 11.0055,1.510128 12.48242,0.0332 0.83231,-0.832316 1.98703,-0.8005 4.44922,0.121094 1.82917,0.684656 8.72617,1.372489 15.32617,1.527344 6.6,0.154854 22.8,0.60725 36,1.005859 26.4414,0.798469 27.04708,0.798671 30.18945,0.01172 1.2038,-0.30147 2.43927,-0.142949 2.7461,0.353515 0.62344,1.008735 45.99539,0.609463 50.80664,-0.447265 5.26157,-1.155636 33.9735,0.436392 35.50586,1.96875 0.28828,0.288273 6.65122,0.316693 14.13867,0.06445 7.48745,-0.252232 15.75078,-0.440962 18.36328,-0.419922 4.7314,0.0381 4.75,0.02514 4.75,-3.320313 V 10.380859 L 292.25,10.210938 C 254.69784,10.060949 223.50412,9.4482988 207.5,8.546875 204.75,8.3919826 187.875,7.9510347 170,7.5664062 152.125,7.1817779 131.2,6.4842827 123.5,6.015625 113.63285,5.4150644 94.067946,5.250844 76.794922,5.4121094 Z M 7.1621094,6.4707031 C 4.0338574,6.4493882 1.7652219,6.5149108 1.25,6.7050781 0.5625,6.958833 0,8.4552652 0,10.029297 c 0,2.691557 0.28268575,2.884892 4.75,3.259765 7.133999,0.598649 21.564145,-0.202819 22.617188,-1.255859 0.508997,-0.508999 2.20235,-0.669687 3.763671,-0.357422 2.09585,0.41917 3.007778,0.125988 3.486329,-1.121093 C 34.973686,9.6256599 34.868342,8.4980705 34.382812,8.0488281 33.667127,7.3866329 16.546865,6.5346479 7.1621094,6.4707031 Z M 43.71875,10.400391 c -2.336096,0.312334 -4.286841,1.924615 -5.841797,4.830078 C 36.869459,17.112989 39.231415,23 40.994141,23 c 1.58205,0 -0.14515,3.268961 -4.169922,7.890625 C 34.721174,33.305559 33,36.270213 33,37.478516 c 0,2.038467 0.667141,2.262878 9.25,3.109375 7.509191,0.740605 9.16205,1.194402 8.779297,2.412109 -0.405371,1.289667 -0.608185,17.477649 -1.033203,82.41211 -0.04288,6.55188 -0.267188,12.21826 -0.498047,12.5918 -0.230859,0.37354 -3.165064,-0.63807 -6.519531,-2.24805 l -6.09961,-2.92774 0.542969,-17.16406 C 37.720013,106.22364 38.258057,87.25 38.617188,73.5 c 0.359127,-13.75 0.704238,-26.35 0.767578,-28 0.09104,-2.37172 -0.303619,-3 -1.884766,-3 -2.24996,0 -2.089147,-1.007185 -3.013672,18.9375 -0.329844,7.11571 -0.792843,13.247522 -1.027344,13.626953 -0.74076,1.198575 -0.595558,51.417007 0.154297,53.371097 0.659442,1.71848 0.317855,1.8124 -4.333984,1.19531 C 23.939352,128.9225 23,129.58899 23,134.08203 23,135.44909 23.701782,136 25.441406,136 c 2.868288,0 4.254089,1.7049 2.671875,3.28711 -1.817,1.817 -1.276794,5.36618 1.28125,8.40625 l 2.396485,2.84766 -0.308594,50.47851 C 31.17829,250.76674 32.259614,299.68077 33.835938,307.5 l 0.80664,4 -14.439453,-0.3457 C 9.9082132,310.90741 5.9583357,311.12268 6.4414062,311.9043 6.8783988,312.61137 11.889608,313 20.558594,313 c 7.392541,0 13.47934,0.3375 13.52539,0.75 0.04605,0.4125 0.15855,2.55 0.25,4.75 l 0.166016,4 -5,-0.27734 C 17.974411,321.58402 2.4117685,319.67031 1.25,318.74805 0.3313981,318.01882 0,318.3142 0,319.86523 c 0,1.93058 0.53300809,2.10419 6.25,2.03321 3.4375,-0.0427 9.175,0.42596 12.75,1.04101 3.575,0.61505 8.494034,1.23779 10.931641,1.38477 2.437608,0.14698 4.594121,0.75502 4.792968,1.35156 0.441247,1.32374 -3.961664,2.55444 -6.144531,1.7168 C 27.711373,327.05923 27,327.28374 27,327.89258 c 0,0.60885 1.35,1.16362 3,1.23242 5.880517,0.24502 5.538732,-0.11661 6.419922,6.78125 l 0.691406,5.40625 -11.828125,-0.63477 C 18.778612,340.32799 12.004297,339.75163 10.228516,339.39648 8.2817607,339.00713 7,339.15377 7,339.76758 c 0,1.76879 2.9278094,2.26717 17.148438,2.91406 C 36.901055,343.26176 38,343.46255 38,345.22266 c 0,1.42877 -0.484254,1.7591 -1.916016,1.30468 -1.053714,-0.33444 -2.204847,-0.14073 -2.558593,0.43164 C 33.134595,347.5913 34.055315,348 35.873047,348 c 2.917497,0 5.034183,2.72201 3.742187,4.8125 -0.282327,0.45682 0.363722,1.58228 1.435547,2.5 2.479095,2.12267 2.612173,5.01074 0.199219,4.32812 -0.9625,-0.27228 -4.225,-0.77178 -7.25,-1.10937 -4.430486,-0.49445 -5.132988,-0.38781 -3.613281,0.55273 1.03761,0.64217 4.687413,1.39313 8.111328,1.66797 l 6.226562,0.5 2.183594,4.49414 c 1.201137,2.4723 1.93008,4.74765 1.621094,5.05664 -0.841452,0.84145 -26.552345,-1.7461 -28.683594,-2.88671 -2.350151,-1.25776 -2.397799,0.20045 -0.0957,2.95898 1.525476,1.82794 3.032994,2.1369 11.75,2.40234 5.5,0.16749 12.555577,0.39857 15.679688,0.51368 L 52.861328,374 52.060547,371.25 c -0.439524,-1.5125 -2.422941,-5.6938 -4.408203,-9.29297 C 43.063756,353.63817 38.826616,342.51716 38.523438,338 38.394236,336.075 37.963245,325.275 37.566406,314 36.73363,290.33915 36.459553,284.23596 35.4375,266.75 34.765584,255.2544 34.85414,254 36.345703,254 c 2.082864,0 2.166801,-1.86658 0.119141,-2.65234 -1.328221,-0.50968 -1.463531,-2.93973 -1.001953,-18.00391 0.293487,-9.57833 0.592725,-31.23607 0.666015,-48.12891 L 36.263672,154.5 l 6.183594,2.97656 6.185546,2.97461 -0.183593,7.94727 c -0.192462,8.31745 0.799688,14.35745 1.90625,11.60156 0.33126,-0.825 0.724026,-4.74896 0.873047,-8.71875 0.216642,-5.7711 0.543182,-7.04896 1.625,-6.37695 1.070894,0.66523 1.373268,5.76791 1.449218,24.46875 0.07756,19.0972 0.354433,23.62695 1.44336,23.62695 1.097298,0 1.318316,-4.5916 1.199218,-24.75 -0.08042,-13.6125 0.237565,-24.58058 0.705079,-24.37305 0.467514,0.20752 1.299609,0.47666 1.849609,0.59766 1.576066,0.34672 15.960431,4.86826 16.341797,5.13672 0.550003,0.38718 -4.904658,18.79817 -5.861328,19.7832 -1.457793,1.50102 -2.268626,-4.12713 -1.083985,-7.52539 C 70.214791,178.08741 70.22108,178 69.199219,178 c -0.440404,0 -1.773801,2.00172 -2.962891,4.44922 l -2.162109,4.45117 3.46289,4.14453 C 69.441603,193.32445 71,195.50273 71,195.88477 c 0,0.38203 2.462858,1.77835 5.472656,3.10351 4.090517,1.80098 5.467502,2.92755 5.451172,4.46094 -0.01202,1.12826 0.527196,6.10078 1.199219,11.05078 0.672022,4.95 1.168991,13.26046 1.105469,18.4668 -0.109404,8.96708 0.83773,12.72803 2.884765,11.46289 C 87.600962,244.12829 88,240.52884 88,236.43164 c 0,-7.16272 0.07548,-7.4004 1.970703,-6.2168 1.656858,1.03473 2.852992,0.79769 7.498047,-1.48046 3.03932,-1.49065 7.28449,-2.99034 9.43359,-3.33399 3.41601,-0.54624 4.06334,-0.32908 5.15625,1.73633 0.68758,1.2994 3.04628,4.38828 5.24024,6.86328 5.22434,5.89359 8.94583,14.20378 13.09375,29.23828 5.81514,21.07754 9.75682,35.03112 11.70508,41.4336 1.03285,3.39418 2.51979,9.91917 3.30468,14.5 2.30075,13.4277 3.2874,16.35433 6.48243,19.23242 1.16312,1.04774 2.16427,1.72274 2.22461,1.5 0.0603,-0.22275 0.24794,-1.7543 0.41601,-3.4043 0.16807,-1.65 1.01421,-8.85 1.88086,-16 0.86665,-7.15 1.57898,-18.5125 1.58398,-25.25 0.008,-10.21819 0.25856,-12.25 1.50977,-12.25 0.88956,0 1.49905,-0.91565 1.49805,-2.25 -0.002,-1.77412 -0.59472,-2.2696 -2.80274,-2.3457 l -2.80078,-0.0977 -0.24609,17.08594 c -0.13515,9.39674 -0.66263,21.36437 -1.17188,26.5957 -0.50925,5.23134 -0.93697,9.84922 -0.95117,10.26172 -0.0142,0.4125 -0.51091,0.75 -1.10351,0.75 -0.73294,0 -0.97276,-4.3178 -0.75,-13.50195 0.1801,-7.42578 -0.009,-13.50078 -0.42188,-13.5 -0.4125,7.8e-4 -0.79983,1.23945 -0.86133,2.75195 -0.17707,4.35606 -0.85387,9.54919 -1.30273,9.99805 -0.22612,0.22613 -0.91821,-2.21186 -1.53711,-5.41797 -1.69987,-8.80601 -4.90294,-21.51644 -8.1211,-32.22656 -1.64797,-5.4845 -2.46508,-9.74714 -1.90625,-9.9375 1.39993,-0.4769 1.20954,-5.79082 -0.53125,-14.82813 -0.83038,-4.3108 -1.96441,-14.36289 -2.51953,-22.33789 -0.95252,-13.68437 -1.56488,-20.29799 -3.98047,-43 -0.55596,-5.225 -1.63246,-11.75 -2.39257,-14.5 -0.76011,-2.75 -1.66768,-7.025 -2.01758,-9.5 -0.86683,-6.13137 -3.47268,-13.94492 -5.7207,-17.1543 C 118.83674,148.38584 118,146.76398 118,146.24219 c 0,-0.52178 4.1625,-1.24095 9.25,-1.59961 5.0875,-0.35865 11.725,-0.95228 14.75,-1.31836 3.025,-0.36608 7.4125,-0.68975 9.75,-0.71875 2.3375,-0.029 4.25477,-0.51357 4.25977,-1.07813 0.0166,-1.74149 4.84936,-11.52675 5.69335,-11.52734 0.43782,-3.1e-4 0.51151,5.51219 0.16211,12.25 -0.40718,7.85196 -0.26617,12.70676 0.39258,13.52344 1.40079,1.7366 0.66498,2.23892 -3.87695,2.64648 -2.8079,0.25195 -3.85718,0.79577 -3.79688,1.96485 0.30871,5.9853 0.56216,6.73447 2.53125,7.46289 3.85248,1.42512 4.71202,6.68142 4.20313,25.68554 -0.32331,12.07377 -0.13516,17.4668 0.60742,17.4668 1.34506,0 1.20526,1.58357 1.66602,-19 0.35792,-15.98991 0.54423,-17.47967 2.15039,-17.26953 6.32367,0.82736 15.3134,2.94267 16.05078,3.77734 0.5075,0.57446 -0.30163,12.56922 -1.92188,28.49219 -1.53906,15.125 -3.0136,30.2 -3.27539,33.5 -0.66873,8.42934 -7.32905,34.72388 -11.08203,43.75 -0.48652,1.1701 -0.27321,1.75 0.64453,1.75 2.60418,0 13.45983,-38.79879 12.50391,-44.68945 -0.2955,-1.82094 -0.14772,-3.31055 0.32812,-3.31055 0.47585,0 1.14768,-2.5875 1.49219,-5.75 0.34451,-3.1625 1.24419,-9.125 2,-13.25 0.7558,-4.125 1.65271,-14.68351 1.99219,-23.46289 0.33947,-8.77938 0.76344,-16.10719 0.94141,-16.28516 0.17797,-0.17798 3.15423,0.0305 6.61523,0.46289 l 6.29297,0.78516 -0.1875,8 c -0.1029,4.4 -0.44639,9.87744 -0.76367,12.17188 -0.54613,3.94934 -0.39776,4.264 2.77539,5.91796 4.10137,2.13777 10.25259,3.61051 14.60156,3.4961 2.54288,-0.0669 3.25,0.32414 3.25,1.79297 0,2.44721 2.66396,8.79527 4.05078,9.65234 2.08916,1.2912 2.0973,-0.41073 0.0215,-5.10352 -1.15263,-2.6057 -1.95135,-4.88262 -1.77344,-5.06054 0.17792,-0.17791 3.79009,-0.83883 8.02539,-1.46875 7.08387,-1.05359 7.75031,-1.35517 8.32617,-3.77149 0.34429,-1.44467 1.02984,-3.1417 1.52344,-3.77148 0.4936,-0.62978 1.30098,-3.62918 1.79492,-6.66406 0.49394,-3.03488 2.08781,-8.48864 3.54102,-12.1211 2.89138,-7.22729 2.79936,-9.33821 -0.75782,-17.42383 -2.29931,-5.22644 -8.70883,-15.03552 -11.14648,-17.05859 C 230.72261,148.3552 230,147.08161 230,146.25781 c 0,-2.96449 -5.67304,-10.71388 -15,-20.48828 -12.52968,-13.13078 -14.61746,-16.52998 -15.3418,-24.97851 -0.57109,-6.66113 -0.56184,-6.69467 1.38282,-4.750004 1.49527,1.495268 3.31899,1.955049 7.70898,1.943359 3.1625,-0.0084 6.425,-0.451219 7.25,-0.984375 1.05201,-0.679858 -0.47879,-0.973635 -5.12695,-0.984375 -7.57084,-0.01749 -9.33804,-1.226592 -8.28516,-5.669922 C 203.29841,87.347183 206.68271,83 208.30664,83 c 1.23489,0 4.48369,3.729931 6.31445,7.25 0.78664,1.5125 2.1298,2.75 2.98438,2.75 1.52716,0 1.45608,-2.216325 -0.26563,-8.306641 C 216.70795,82.458107 213.06486,81 208.10938,81 c -4.23549,0 -7.63289,2.836622 -8.38477,7 -0.24831,1.375 -0.4607,-0.425 -0.4707,-4 -0.01,-3.575 0.26928,-7.835784 0.61914,-9.46875 l 0.63672,-2.96875 12.99414,0.287109 c 7.14755,0.1587 18.39609,0.762228 24.99609,1.339844 9.80437,0.858055 17.21547,1.26618 32.5,1.792969 0.27501,0.0095 0.3749,3.280187 0.22266,7.267578 -0.15223,3.987391 -0.38639,17.91045 -0.52149,30.93945 -0.13511,13.02901 -0.53562,23.97703 -0.88867,24.33008 -0.35305,0.35306 -1.54921,0.15511 -2.66016,-0.43945 -3.57292,-1.91217 -9.58538,-1.31883 -11.86328,1.16992 -3.334,3.6426 -3.59724,6.12973 -1.07031,10.12305 2.6632,4.20868 5.829,5.3735 10.25391,3.77343 C 266.21618,151.51601 268.8999,151 270.4375,151 c 2.45819,0 2.70295,0.27158 2.0332,2.25 -0.41893,1.2375 -0.72438,4.05 -0.67968,6.25 0.84952,41.84645 1.35011,58.97512 1.73632,59.36133 0.56047,0.56047 0.85454,-47.01534 0.37891,-61.36133 -0.18237,-5.5 -0.23498,-12.7 -0.11719,-16 0.71744,-20.09791 0.7605,-84.5 0.0566,-84.5 -0.97116,0 -0.91913,-0.307521 -1.24414,7.273438 -0.13611,3.174908 -0.73093,6.256325 -1.32226,6.847656 -0.76686,0.766862 -9.49183,0.757259 -30.42774,-0.0332 -34.05054,-1.285637 -39.85703,-1.783655 -39.83594,-3.410157 0.0399,-3.068941 1.48382,-3.478022 9.48438,-2.693359 10.68855,1.048296 53.40169,1.124332 51.5,0.0918 -2.56749,-1.394048 -10.70038,-2.020805 -34,-2.621094 -12.375,-0.318828 -23.10963,-0.78168 -23.85547,-1.027344 -0.91235,-0.30051 -1.14621,-1.283238 -0.71484,-3.001953 1.01376,-4.039141 -3.35271,-8.372247 -11.28711,-11.205078 -9.96808,-3.558915 -15.9729,-4.079722 -31.60156,-2.734375 -15.0712,1.297359 -22.52668,3.799763 -25.97071,8.716797 -2.07755,2.966122 -1.95635,7.738566 0.27149,10.634766 l 1.79882,2.335937 8.42969,-2.492187 c 4.63652,-1.370688 11.47969,-2.742895 15.20703,-3.050782 5.86001,-0.484048 7.85389,-0.163869 14.73438,2.373047 4.37643,1.613643 9.84813,3.847794 12.16016,4.964844 2.312,1.117049 4.86493,2.03125 5.67187,2.03125 2.91642,0 -1.94483,-3.859539 -9.71875,-7.716797 -7.32039,-3.632222 -8.09499,-3.796297 -19.39648,-4.117187 -9.88568,-0.28069 -12.76261,-2.31e-4 -17.94532,1.75 -7.8151,2.6392 -8.7832,2.611821 -8.7832,-0.242188 0,-3.970825 6.20295,-8.430519 15.46484,-11.121094 7.05496,-2.04946 18.66325,-2.324389 27.03516,-0.640625 9.15687,1.841636 8.82447,1.534204 6.53125,6.029297 C 183.86442,58.188954 183.42005,61 184.91797,61 186.15705,61 190,54.673257 190,52.632812 c 0,-2.089784 2.82163,-2.10264 5.11914,-0.02344 1.66434,1.506206 1.6766,1.871565 0.17188,5.75 -0.88375,2.277877 -2.0578,4.722784 -2.60743,5.433594 -0.67598,0.87421 -0.63121,1.659801 0.13672,2.427734 0.84702,0.847022 1.66129,-0.05298 3.20508,-3.542969 C 197.47071,59.410356 198.68254,58 200.04688,58 201.12114,58 202,58.212002 202,58.470703 c 0,1.157696 -5.1013,11.474824 -5.92578,11.984375 -0.50591,0.312669 -1.21515,1.912948 -1.57617,3.556641 -0.82152,3.740357 -1.41258,3.731405 -5.0586,-0.07422 -6.829,-7.127945 -19.86278,-9.593737 -34.08007,-6.447266 -4.32223,0.956563 -9.17698,2.415642 -10.78711,3.242188 -2.65586,1.363355 -3.0422,1.344794 -4.16407,-0.189453 -0.68014,-0.93015 -2.51253,-1.866169 -4.07226,-2.082031 C 134.77622,68.245077 129.9,67.535457 125.5,66.884766 118.7692,65.889386 100.85741,65.315479 68.25,65.050781 63.38366,65.011277 62,64.667922 62,63.5 c 0,-1.289545 2.981451,-1.486095 21.25,-1.396484 11.6875,0.05733 27.21362,0.394829 34.50195,0.75 9.43618,0.459839 13.251,0.326074 13.25,-0.464844 C 130.99919,60.344457 104.07621,58.5 74.25,58.5 H 59 c 0.136617,0 3.192738,-15.649174 3.316406,-16.982422 C 62.417569,40.426955 62.05,39.488521 61.5,39.431641 58.759965,39.14828 56.755531,37.384783 54.908203,33.632812 c -2.847372,-5.783079 -4.501987,-8.626986 -5.744141,-9.86914 -0.757846,-0.757847 -0.50222,-1.789997 0.882813,-3.550781 2.223388,-2.82658 2.546653,-6.489505 0.703125,-7.97461 -0.6875,-0.553834 -2.741967,-1.326473 -4.566406,-1.716797 -0.864018,-0.184849 -1.686145,-0.225205 -2.464844,-0.121093 z m 2.050781,4.072265 c 0.379069,0.03098 0.607365,0.346106 0.841797,0.957032 0.311256,0.811118 0.274162,1.945146 -0.08203,2.521484 C 45.616494,19.428114 42,19.25981 42,17.740234 c 0,-0.692699 0.910956,-1.826728 2.023438,-2.521484 0.837904,-0.52328 1.367024,-0.777075 1.746093,-0.746094 z m 238.326169,3.78125 c -0.33937,-0.06586 -0.69248,-0.0027 -1.05078,0.21875 -0.92113,0.569293 -0.95208,0.966433 -0.11719,1.482422 C 284.40102,20.865626 283.21121,24 281.39258,24 280.62643,24 280,23.351135 280,22.558594 c 0,-2.435646 -1.8356,-2.731651 -3.03516,-0.490235 -0.95119,1.777313 -0.79697,2.360906 0.94922,3.583985 1.44886,1.014822 2.08594,2.546122 2.08594,5.011718 0,2.664116 0.357,3.412831 1.42773,3.001954 0.78478,-0.301152 1.96354,0.10027 2.6211,0.892578 C 284.70639,35.350901 285.6404,36 286.12305,36 c 1.3443,0 5.01339,3.970033 4.47461,4.841797 -0.26167,0.423395 -2.04061,0.58851 -3.95313,0.365234 -2.66616,-0.311259 -3.61817,-0.966236 -4.08008,-2.80664 -0.75829,-3.021283 -2.17926,-3.097159 -2.81836,-0.150391 -0.26839,1.2375 -0.82004,3.0375 -1.22461,4 -0.66705,1.586936 0.0545,1.75 7.7461,1.75 8.46341,0 8.48395,0.006 8.99023,2.75 0.64605,3.501495 1.32916,49.00592 0.96875,64.52148 -0.22751,9.79468 -0.0175,11.87104 1.25,12.35743 1.89114,0.7257 2.00343,2.37109 0.16211,2.37109 -1.80894,0 -2.45698,6.51751 -2.08789,21 0.1612,6.325 0.36481,31.50588 0.45117,55.95703 l 0.15625,44.45703 -18.82812,-0.18945 c -10.35608,-0.1037 -23.46188,-0.47587 -29.12305,-0.82813 l -10.29297,-0.64062 -2.20703,-4.3418 c -1.48475,-2.92074 -2.61361,-4.09087 -3.44922,-3.57422 -0.95229,0.58879 -0.77731,1.68006 0.75,4.67578 1.09564,2.14905 1.99505,5.72411 1.99805,7.94532 0.003,2.22121 0.68123,8.51514 1.50586,13.98633 0.82463,5.47119 1.41811,12.92614 1.32031,16.5664 -0.17388,6.47292 0.55184,9.48592 2.05859,8.55469 0.87114,-0.5384 0.44333,-9.13067 -0.93359,-18.75977 -1.17178,-8.1942 -1.1791,-8.80859 -0.0957,-8.80859 0.47404,0 1.17314,2.8125 1.55273,6.25 1.17334,10.62549 1.46196,12.82276 3.58203,27.25 1.1315,7.7 2.55513,16.025 3.16407,18.5 0.60894,2.475 1.47249,6.75 1.91796,9.5 0.44552,2.75 1.36594,6.8 2.04688,9 0.68094,2.2 1.14845,4.36425 1.03711,4.81055 -0.11134,0.44631 0.48005,3.11214 1.31445,5.92187 0.8344,2.80973 1.31393,5.31108 1.06641,5.5586 -0.85691,0.85691 -5.60109,-0.84914 -7.41992,-2.66797 -1.4051,-1.4051 -1.98539,-4.11119 -2.51367,-11.72461 C 243.66653,320.81081 242.88017,315 241.98438,315 c -1.32573,0 -0.97949,17.33339 0.45507,22.77148 1.35789,5.14747 1.34624,5.22852 -0.83789,5.22852 -1.2201,0 -3.09253,-0.675 -4.16015,-1.5 -1.83823,-1.42049 -1.84864,-1.57124 -0.19141,-2.85938 0.9625,-0.74813 1.75,-1.64814 1.75,-2 0,-1.22057 -7.6282,-0.63395 -9.49414,0.73047 -1.75002,1.27964 -1.57882,1.5191 2.55859,3.57032 7.2577,3.59817 15.31666,8.03931 16.21289,8.93554 0.46059,0.46063 -1.77454,0.41825 -4.96875,-0.0937 -3.19421,-0.51213 -9.21194,-0.71427 -13.37109,-0.45117 -4.15916,0.2631 -10.88735,0.11233 -14.95312,-0.33398 C 207.0739,348.12956 197,348.74902 197,350.10352 c 0,0.45297 10.0125,0.99413 22.25,1.20312 22.77743,0.38899 39.4899,1.83015 42.53711,3.66797 1.23394,0.74421 0.31299,0.82193 -3.28711,0.2793 -7.83218,-1.18051 -33.75236,-0.46248 -34.63086,0.95898 -0.80573,1.3037 -5.4245,1.24981 -18.36914,-0.21094 -4.4,-0.49652 -12.725,-1.16884 -18.5,-1.49609 -5.775,-0.32724 -12.3,-0.80656 -14.5,-1.06445 -2.2,-0.2579 -7.6,-0.42565 -12,-0.37305 -4.4,0.0526 -8.9,0.0891 -10,0.0801 -1.1,-0.009 -4.41318,0.21797 -7.36328,0.5039 -11.03731,1.06976 -2.87212,2.13782 20.86328,2.72852 13.475,0.33535 33.275,1.46162 44,2.50195 10.725,1.04032 19.67671,1.72676 19.89258,1.52735 0.21588,-0.19941 -0.1815,-1.05341 -0.88281,-1.89844 -1.13311,-1.36531 -0.11894,-1.53463 9.10742,-1.51563 5.71044,0.0118 11.28281,-0.079 12.38281,-0.20312 1.79852,-0.20287 4.39922,0.053 17.95117,1.77344 5.07544,0.64432 5.28158,0.92335 3.2461,4.36914 -0.93359,1.58044 -1.67344,3.47861 -1.64454,4.21875 0.0288,0.74014 0.81635,0.24114 1.75,-1.10938 0.93365,-1.35053 3.54948,-4.73562 5.81446,-7.52148 2.26498,-2.78585 5.60139,-7.5313 7.41406,-10.54492 1.81267,-3.01361 4.19904,-6.48928 5.30273,-7.72461 1.10368,-1.23533 1.81728,-2.432 1.58594,-2.66016 -1.11392,-1.09866 -16.58155,-3.57832 -26.1875,-4.19727 -10.56477,-0.68072 -10.77927,-0.74253 -11.30859,-3.29492 -0.29673,-1.43085 -0.94528,-4.4166 -1.44141,-6.63476 -0.49613,-2.21817 -1.17947,-8.06817 -1.51758,-13 -0.3381,-4.93184 -1.00158,-10.3168 -1.47656,-11.9668 -0.47499,-1.65 -1.09804,-5.475 -1.38281,-8.5 -1.39096,-14.77587 -3.67812,-26.92347 -6.09961,-32.39453 -2.43007,-5.49046 -2.72308,-9.47719 -0.60156,-8.16602 1.02472,0.63335 43.88371,0.70809 51.40625,0.0899 5.99785,-0.49305 5.81596,0.86431 -0.65625,4.875 -4.5648,2.82871 -5.09435,2.9126 -20.41992,3.27148 C 251.25468,258.12002 244,258.80627 244,260.15625 c 0,0.66207 7.46311,0.90517 21.55078,0.70117 18.93276,-0.27415 21.74207,-0.52307 23.1211,-2.04687 1.36464,-1.50791 8.63078,-5.81055 9.8125,-5.81055 1.52809,0 2.57121,11.12053 3.50781,37.39453 1.09089,30.60204 1.70642,39.23889 2.72656,38.21875 0.68778,-0.68779 0.47653,-37.75261 -0.3457,-60.61328 -0.44998,-12.51086 -0.95298,-16.90769 -2.07813,-18.18359 -1.7456,-1.97948 -2.08194,-7.73472 -2.56836,-43.81641 -0.33117,-24.56549 0.49251,-76.30681 1.71094,-107.5 0.32706,-8.372993 0.13307,-18.313504 -0.4375,-22.5 -0.56219,-4.125 -1.10172,-13.045474 -1.19922,-19.824219 -0.14162,-9.85116 -0.48981,-12.565346 -1.73828,-13.515625 -0.85909,-0.653902 -4.21114,-4.024014 -7.44727,-7.490234 -4.38573,-4.697554 -5.59517,-6.590375 -4.75,-7.435547 2.28444,-2.284431 0.60612,-9.019466 -1.76953,-9.480469 z M 45.873047,29.083984 c 1.088279,-0.137565 2.032337,0.399549 2.396484,1.666016 0.276748,0.9625 0.828367,2.5375 1.22461,3.5 0.624802,1.517682 0.108677,1.75 -3.886719,1.75 -4.985877,0 -5.476593,-0.743475 -2.992188,-4.535156 0.937642,-1.431023 2.169534,-2.243294 3.257813,-2.38086 z m 6.419922,6.199219 C 52.515905,35.25186 52.891746,35.495194 53.5,36 c 0.825,0.684689 1.5,1.640391 1.5,2.123047 0,1.035519 -1.384298,1.160623 -2.333984,0.210937 C 52.299349,37.967318 52,37.011615 52,36.210938 c 0,-0.590323 0.07003,-0.896392 0.292969,-0.927735 z M 55.5,41.994141 c 0.596929,-0.0012 1.114483,4.930274 1.283203,12.234375 0.155456,6.729873 0.714153,12.66923 1.242188,13.197265 0.576671,0.576671 15.72428,0.983166 37.93164,1.017578 42.773399,0.06628 41.342119,-0.235767 39.273439,8.28711 -3.14784,12.96905 -3.47871,16.736765 -1.82227,20.701172 2.55916,6.124919 2.28804,6.581669 -2.96093,5.001949 -2.50403,-0.75359 -8.57903,-1.67344 -13.5,-2.04492 -5.44942,-0.411377 -8.95389,-1.107306 -8.96289,-1.781248 -0.011,-0.797186 -0.22071,-0.794931 -0.75,0.01172 -0.82027,1.25005 -8.75441,2.320519 -17.48438,2.357419 L 84,101 v 8.85742 c 0,4.87125 0.48295,14.65875 1.074219,21.75 0.752738,9.02783 0.760798,13.71703 0.02539,15.64258 -1.230778,3.2226 -2.711268,3.55076 -3.585937,0.79492 C 80.446705,144.68321 71.337649,137.36618 64.525391,134.39844 60.936216,132.83482 58,131.20495 58,130.77734 58,130.34972 57.07689,130 55.949219,130 c -2.040569,0 -2.048886,-0.2096 -1.75,-44.001953 C 54.393498,57.53239 54.853075,41.995455 55.5,41.994141 Z m 227.21484,3.167968 c -0.34821,-0.207748 -0.79152,0.140659 -1.33593,1 -0.98109,1.54855 -1.88105,30.087 -1.01953,32.332032 1.5839,4.12756 2.41847,0.02556 3.07226,-15.119141 0.51584,-11.94911 0.32784,-17.589646 -0.7168,-18.212891 z m -8.05859,0.0293 c -1.09746,-0.18394 -2.16894,2.549001 -1.85156,5.267578 C 273.03201,52.40614 273.57185,54 274.00391,54 c 0.83754,0 1.85968,-7.802428 1.11914,-8.542969 -0.15395,-0.153947 -0.31002,-0.239348 -0.4668,-0.265625 z M 168,67 c 1.57224,0 1.16741,2.721482 -0.5,3.361328 C 165.59558,71.092124 165.52998,74 167.41797,74 c 3.33087,0 4.57389,-1.1872 3.92969,-3.753906 -0.44654,-1.779155 -0.29521,-2.331024 0.50586,-1.835938 0.63021,0.389494 1.14648,1.566909 1.14648,2.617188 0,1.286574 0.48939,1.721793 1.5,1.333984 0.825,-0.316582 1.5,-1.202594 1.5,-1.96875 C 176,69.626422 176.58587,69 177.30078,69 c 2.12586,0 9.66335,5.307952 10.27539,7.236328 0.31154,0.981555 1.88312,2.467689 3.49414,3.300781 1.61102,0.833092 2.92969,1.983702 2.92969,2.556641 0,1.825834 -4.15234,-0.177731 -7.68164,-3.707031 -1.86218,-1.86218 -3.9324,-3.372959 -4.60156,-3.355469 -0.80926,0.02115 -0.71452,0.439721 0.2832,1.25 3.25726,2.645318 4.45274,6.573307 3.30664,10.867188 -0.8464,3.171013 -0.78201,4.631594 0.29883,6.703124 1.59039,3.048136 1.82441,6.148438 0.46289,6.148438 -0.51294,0 -1.21923,-0.9 -1.56836,-2 -0.84778,-2.671123 -1.94093,-2.522491 -3.29492,0.449219 -0.77674,1.704751 -0.82703,4.214001 -0.16602,8.250001 1.20436,7.35366 1.19794,8.56522 -0.0391,7.80078 -0.55,-0.33992 -1.00567,-2.05355 -1.01367,-3.80859 -0.0247,-5.7735 -0.99143,-7.82074 -3.35938,-7.10743 -3.29484,0.99252 -3.65459,1.71502 -2.69922,5.44532 0.48877,1.90844 1.17521,5.1582 1.52539,7.2207 0.35634,2.09844 0.22867,3.75 -0.29101,3.75 -1.25117,0 -2.13184,-3.5864 -2.14844,-8.75 -0.008,-2.3375 -0.47766,-4.25 -1.04492,-4.25 -1.75938,0 -2.18962,2.72178 -1.17969,7.45703 0.53297,2.49896 0.62621,4.54297 0.20703,4.54297 -1.05722,0 -1.96612,-3.78104 -1.98242,-8.25 -0.0108,-2.97439 -0.39489,-3.75 -1.85937,-3.75 -2.12416,0 -8.14298,-2.81358 -8.17578,-3.82227 -0.0121,-0.37222 -1.95583,-2.79338 -4.31836,-5.378902 -5.68108,-6.217284 -8.53963,-12.17562 -8.80469,-18.351562 -0.26926,-6.273676 0.23291,-7.093726 5.26562,-8.601563 3.20361,-0.959823 4.19556,-0.95014 4.81055,0.04492 0.4262,0.689597 1.8538,1.391929 3.17188,1.5625 1.31807,0.170571 3.23719,0.656838 4.26367,1.080078 1.64102,0.676626 1.73157,0.517664 0.75,-1.316406 C 162.59179,69.366335 162.69158,69 165,69 c 1.1,0 2,-0.45 2,-1 0,-0.55 0.45,-1 1,-1 z m -8.05859,2 C 160.52387,69 161,69.45 161,70 c 0,0.55 -0.19887,1 -0.44141,1 -0.24254,0 -0.71867,-0.45 -1.05859,-1 -0.33992,-0.55 -0.14105,-1 0.44141,-1 z M 58.042969,70.527344 C 56.993868,69.878964 56.009206,89.294219 56.003906,110.75 56.001039,122.25303 56.369697,129 57,129 c 0.602055,0 1.035466,-4.47688 1.089844,-11.25 0.04968,-6.1875 0.226598,-19.241094 0.392578,-29.007812 0.16598,-9.766718 -0.03175,-17.962873 -0.439453,-18.214844 z M 176.30859,74.119141 C 174.00355,74.054068 171.83992,74.45 171.5,75 c -0.69776,1.128994 1.56312,1.128994 6,0 2.83368,-0.72105 2.76723,-0.769104 -1.19141,-0.880859 z m -20.66406,0.08594 c -1.02092,-0.216399 -2.29289,0.04289 -2.82617,0.576172 -0.62614,0.626137 0.0306,0.766589 1.85547,0.394531 2.09296,-0.426728 2.34552,-0.67929 0.9707,-0.970703 z m -15.1875,0.228516 c 0.83372,-0.0038 1.78351,0.377259 2.43555,1.029297 C 144.2749,76.845207 144.10614,77 141.21484,77 c -3.43586,0 -4.30193,-1.368724 -1.53711,-2.429688 0.23726,-0.09105 0.5014,-0.135447 0.7793,-0.136718 z m -63.007811,2.023437 c -0.621,0.06845 -1.330748,0.241955 -2.238281,0.486328 -5.870875,1.580862 -8.397692,4.885979 -8.56836,11.208985 -0.138119,5.117079 -0.02465,5.351423 3.357422,6.978515 1.925,0.926106 4.85,2.127696 6.5,2.669922 4.089626,1.343934 4.0861,1.343807 6.833984,0.0918 1.817045,-0.827901 2.576856,-2.150622 3.015625,-5.25 0.3226,-2.278792 0.862424,-5.295283 1.199219,-6.705078 0.517093,-2.164506 -0.09519,-3.145188 -3.941406,-6.296875 -3.228368,-2.645405 -4.295203,-3.388938 -6.158203,-3.183594 z m 79.625001,1.117188 c -6.17864,-0.09139 -8.21362,1.509585 -5.5957,4.402343 1.95818,2.163776 5.97923,2.710542 7.06054,0.960938 0.36089,-0.583926 1.80957,-1.500596 3.22071,-2.037109 3.83449,-1.457869 1.32674,-3.237242 -4.68555,-3.326172 z m 19.58008,0.283203 c -1.04739,-0.118732 -2.08715,-0.106626 -3,0.08008 -4.04901,0.828112 -4.44982,3.107011 -0.92969,5.289062 1.52664,0.946337 3.31692,1.731454 3.97851,1.746094 2.28112,0.05046 6.29688,-2.297308 6.29688,-3.68164 0,-1.542899 -3.20355,-3.077399 -6.3457,-3.433594 z M 114.26562,78 c -4.26175,0 -5.82882,0.471403 -7.66406,2.306641 -3.15809,3.158094 -4.19833,9.13196 -2.13867,12.27539 1.37341,2.096091 2.34461,2.415765 7.31055,2.396485 6.98673,-0.02713 9.99494,-2.017742 11.21289,-7.417969 0.72179,-3.20031 0.51386,-4.318074 -1.24805,-6.701172 C 119.86966,78.33192 119.00039,78 114.26562,78 Z m 26.61719,1 c 1.1,0 2.27727,0.45 2.61719,1 0.33992,0.55 -0.28281,1 -1.38281,1 -1.1,0 -2.27727,-0.45 -2.61719,-1 -0.33992,-0.55 0.28281,-1 1.38281,-1 z M 158,79 c 1.1,0 2,0.45 2,1 0,0.55 -0.9,1 -2,1 -1.1,0 -2,-0.45 -2,-1 0,-0.55 0.9,-1 2,-1 z m 101.52344,0 C 252.09306,79 246,83.788937 246,89.628906 c 0,3.205232 0.66787,4.437968 4.10742,7.582032 3.81783,3.489832 4.25565,3.649222 6.22266,2.271484 C 257.49379,98.667329 259.45423,98 260.6875,98 263.42731,98 265,95.299064 265,90.595703 265,86.559113 261.42955,79 259.52344,79 Z M 75.460938,80 c 1.276127,0 5.70616,2.904509 6.773437,4.441406 0.965879,1.390889 0.978135,8.319142 0.01563,8.873047 -0.4125,0.237381 -2.785899,0.725899 -5.273438,1.085938 C 71.864977,95.140225 70,94.012331 70,90.185547 70,87.298618 73.913016,80 75.460938,80 Z m 102.597652,1 c 0.58246,0 0.78133,0.45 0.44141,1 -0.33992,0.55 -0.81605,1 -1.05859,1 C 177.19887,83 177,82.55 177,82 c 0,-0.55 0.47613,-1 1.05859,-1 z m -66.41015,0.164062 c 0.82579,0.05362 1.93908,0.365138 3.54101,0.949219 5.79997,2.114726 6.66602,3.861011 3.57227,7.199219 -2.3174,2.500521 -6.22049,3.389665 -9.26172,2.109375 -1.37702,-0.579693 -1.11306,-8.209211 0.33398,-9.65625 0.45079,-0.450789 0.98866,-0.655185 1.81446,-0.601563 z M 139.1875,82.625 c 0.4941,-0.208468 1.17049,0.0373 2.37891,0.587891 2.21669,1.009992 2.35479,1.289727 0.88671,1.804687 -1.49153,0.523213 -1.3293,0.912854 1.1543,2.763672 1.59073,1.185437 2.44258,2.105542 1.89258,2.044922 -4.00921,-0.441917 -8.57262,-1.410411 -8.60352,-1.826172 -0.0205,-0.275 0.43262,-1.734448 1.00586,-3.242188 0.48021,-1.263033 0.79106,-1.924344 1.28516,-2.132812 z m 50.50586,0.800781 c 0.1573,-0.01076 0.34272,0.04627 0.55664,0.167969 2.21808,1.261862 4.75,3.692161 4.75,4.560547 0,0.464756 -0.3375,0.783884 -0.75,0.708984 -4.90594,-0.890801 -5.25,-1.119479 -5.25,-3.492187 0,-1.278131 0.22147,-1.913025 0.69336,-1.945313 z M 256.14062,84 c 3.27844,0 4.06757,0.415807 4.88672,2.570312 1.37192,3.60843 0.156,7.408977 -2.71875,8.501954 -7.45084,2.832803 -11.91613,-2.162654 -7.69336,-8.607422 C 251.87594,84.540757 253.08862,84 256.14062,84 Z m -89.15624,4.556641 c -5.71511,0.05938 -7.77896,1.471121 -3.79297,2.59375 1.26996,0.357676 4.02999,0.69518 6.13281,0.75 3.1317,0.08165 3.76184,-0.216963 3.48437,-1.650391 -0.27516,-1.421534 -1.36907,-1.739649 -5.82421,-1.693359 z m 22.21484,1.988281 C 189.67836,90.503108 190.7625,90.860064 192,91.5 c 3.72524,1.926394 4.05886,4.42446 0.5,3.744141 -1.375,-0.262848 -2.5,-0.188669 -2.5,0.164062 0,0.35273 1.125,1.069023 2.5,1.591797 1.375,0.522774 2.5,1.64505 2.5,2.494141 0,1.147379 -0.64196,1.382359 -2.5,0.916019 -3.64814,-0.915637 -3.07957,1.05003 1,3.45703 3.69787,2.18179 5.12801,5.07408 1.56641,3.16797 -2.24422,-1.20107 -6.07044,-1.38121 -6.05664,-0.28516 0.005,0.4125 1.92054,1.58935 4.25585,2.61523 2.33531,1.02589 5.9627,3.83839 8.06055,6.25 3.97552,4.57011 3.8932,5.2942 -0.32617,2.89063 -1.375,-0.78327 -5.5375,-2.38081 -9.25,-3.54883 -3.7125,-1.16802 -6.75,-2.33331 -6.75,-2.58984 0,-0.25654 0.74863,-1.90583 1.66406,-3.66602 0.96908,-1.86336 1.77996,-6.1255 1.93946,-10.20117 0.15067,-3.85 0.30008,-7.348767 0.33398,-7.775391 0.008,-0.106656 0.10201,-0.165749 0.26172,-0.179687 z m -48.80274,1.646484 c 0.99332,0.02794 2.12837,0.13415 3.36524,0.328125 2.60575,0.408654 4.28828,0.872044 3.73828,1.029297 -3.01419,0.861799 -10.6103,1.082381 -11.08008,0.322266 -0.70213,-1.136078 0.99662,-1.763495 3.97656,-1.679688 z M 282.03516,93 c -1.94517,0 -2.04437,0.647211 -2.23047,14.75 -0.57284,43.40946 0.63959,109.5808 2.04687,111.75 0.88522,1.36449 1.72733,-28.69638 1.30274,-46.5 -0.54102,-22.68558 -0.341,-69.99491 0.31836,-75.25 0.5402,-4.305436 0.40654,-4.75 -1.4375,-4.75 z m -115.47657,3 c -5.96635,0 -8.35231,0.910142 -7.21093,2.75 0.2559,0.4125 3.43203,0.758971 7.05859,0.769531 5.6476,0.01645 6.59375,-0.23466 6.59375,-1.75 C 173,96.260375 172.05283,96 166.55859,96 Z m -22.67382,0.339844 C 146.24448,96.321787 148,96.976377 148,98.048828 c 0,1.27134 -1.11521,1.493465 -5.75,1.150391 -5.09326,-0.377011 -5.55333,-1.731596 -0.88477,-2.607422 0.87793,-0.1647 1.73296,-0.245934 2.51954,-0.251953 z M 152.25586,97 c 0.64405,0 0.79603,1.915697 0.41016,5.17383 -0.7737,6.53265 -2.67175,8.87612 -2.65235,3.27539 0.0173,-5.0137 0.9291,-8.44922 2.24219,-8.44922 z m -13.70508,3.35352 c 0.57769,-0.21312 2.82769,0.26312 5,1.05859 4.52671,1.65762 2.68716,1.9242 -2.55078,0.36914 -1.925,-0.5715 -3.0269,-1.2146 -2.44922,-1.42773 z m 27.45313,0.78906 c -0.68943,-0.0552 -1.33945,-0.0571 -1.85743,0.006 -0.69063,0.0837 -1.14648,0.28259 -1.14648,0.625 0,0.49153 0.18997,1.08138 0.42188,1.31054 0.23192,0.22917 2.0709,0.53102 4.08593,0.67188 2.57573,0.18006 3.54012,-0.1169 3.25,-1 -0.26409,-0.8039 -2.68563,-1.44772 -4.7539,-1.61328 z m 17.20117,0.35742 0.82031,3.49414 c 0.85548,3.63956 0.7664,4.46561 -0.35937,3.33984 -0.36667,-0.36666 -0.62076,-2.05416 -0.56446,-3.75 z m -43.81641,1.9707 c 0.27531,-0.0999 0.71254,0.0257 1.36133,0.35938 0.9625,0.49503 2.425,1.14918 3.25,1.45508 0.825,0.30589 0.0375,0.59328 -1.75,0.63672 -2.28961,0.0556 -3.25,-0.37551 -3.25,-1.45704 0,-0.56915 0.11337,-0.89422 0.38867,-0.99414 z m 16.19141,0.0488 c 0.26194,0.0236 0.52675,0.31697 0.76562,0.93945 0.34341,0.89491 -0.007,3.07028 -0.77929,4.83399 l -1.40235,3.20703 -0.0664,-3.5 c -0.0604,-3.19215 0.69659,-5.55112 1.48242,-5.48047 z m 64.66601,0.25977 c -2.30963,-0.005 -4.16581,0.07 -5.24609,0.24414 -4.21961,0.6803 -4.28225,0.7342 -0.99414,0.85156 1.92863,0.0688 5.07863,0.58889 7,1.15625 4.25653,1.25691 18.5469,3.32661 22.00976,3.1875 l 2.51368,-0.10156 -0.0137,15.6914 c -0.0163,17.20705 3.12897,101.38865 4.11719,110.19141 0.33959,3.025 0.83041,5.86732 1.0918,6.31641 0.2614,0.44896 0.64244,0.65052 0.8457,0.44726 0.8635,-0.86349 0.46598,-53.36978 -0.49414,-65.26367 -0.57718,-7.15 -1.3515,-25.88692 -1.7207,-41.63867 l -0.67188,-28.64063 -4.09179,-0.65429 c -6.40464,-1.02507 -17.41681,-1.77177 -24.34571,-1.78711 z M 87.5,103.84375 l 17.72852,0.0332 c 9.75018,0.0183 19.57434,0.53077 21.83203,1.13867 2.25769,0.60794 5.17229,0.96584 6.47656,0.79493 1.30426,-0.17092 2.39065,0.0269 2.41601,0.43945 0.3429,5.57589 -0.0394,6.74981 -2.20312,6.75781 -6.95642,0.0252 -22.77894,14.26821 -28.11328,25.30664 C 101.32819,147.23015 98,154.9824 98,156.10156 c 0,0.46634 2.92287,0.76215 6.49609,0.65625 5.45249,-0.16158 6.28088,-0.41053 5.14844,-1.54297 -0.74213,-0.74213 -2.17958,-1.47035 -3.19336,-1.61914 -3.03296,-0.44514 -2.82129,-2.44659 0.59375,-5.63672 2.34176,-2.18753 3.79882,-2.83149 5.33789,-2.35937 1.16447,0.35721 2.25808,0.77081 2.42969,0.91992 0.28674,0.24916 -1.0556,11.75922 -2.41797,20.73047 -0.45527,2.99801 -0.25189,3.75 1.01758,3.75 1.05098,0 1.60854,-0.92986 1.64844,-2.75 0.0968,-4.42117 0.90063,-12.55088 1.49804,-15.14453 0.80252,-3.48414 2.68698,-1.14352 2.88868,3.58789 0.0893,2.09416 0.25003,5.68616 0.35742,7.98437 0.10738,2.29822 0.86992,4.85235 1.69336,5.67579 2.27639,2.27639 4.36854,12.89544 5.05859,25.66601 0.34122,6.31471 1.45232,16.20547 2.46875,21.98047 1.01643,5.775 2.10848,13.425 2.42773,17 0.31928,3.575 1.20676,9.65 1.97071,13.5 0.76395,3.85 1.6921,10.0375 2.0625,13.75 1.09739,10.99906 -0.34327,8.40716 -4.30664,-7.75 -2.80326,-11.4278 -6.52978,-18.56966 -13.64844,-26.1582 l -6.22266,-6.63282 -6.90429,0.53125 c -6.753519,0.52031 -10.177297,1.52139 -13.605472,3.97266 -0.93612,0.66937 -1.983219,0.9367 -2.326172,0.59375 -0.849615,-0.84962 -3.969223,-23.6421 -3.324218,-24.28711 0.675053,-0.67505 13.227083,3.61075 18.595702,6.34961 3.8612,1.96985 4.11853,2.33974 3.12891,4.51172 -1.33661,2.93355 0.33792,6.61914 3.00781,6.61914 1.6075,0 1.79946,-0.92336 1.72266,-8.25 -0.0791,-7.55183 1.591,-26.45946 3.05468,-34.59766 0.514,-2.85784 0.33597,-3.29729 -1.20703,-3 -2.3419,0.45121 -3.01514,3.195 -3.77148,15.35938 -0.85253,13.71154 -1.53759,16.76785 -3.56641,15.93359 -2.33367,-0.95963 -20.601004,-7.0375 -27.490233,-9.14648 -3.232463,-0.98954 -6.105239,-2.3901 -6.382813,-3.11328 -0.277574,-0.72318 1.309763,-5.67318 3.527344,-11 3.790851,-9.10594 6.161464,-16.06984 7.634766,-22.43555 C 83.881996,157.67757 83.664308,157 82.519531,157 81.682542,157 81,157.87194 81,158.94141 c 0,1.06754 -0.45,2.21867 -1,2.55859 -0.55,0.33992 -1.007203,1.37855 -1.015625,2.30859 -0.03842,4.24249 -1.349696,4.20681 -12.515625,-0.34375 C 60.44309,161.00914 54.681863,159 53.664062,159 c -1.0178,0 -2.087343,-0.9 -2.375,-2 -0.314005,-1.20076 -1.375416,-2.00828 -2.65625,-2.02148 -2.379961,-0.0245 -9.101533,-3.04237 -12.060546,-5.41407 -3.584437,-2.87299 -0.822186,-2.69777 5.958984,0.37696 7.712187,3.49687 8.46875,3.63315 8.46875,1.5332 0,-0.83861 -1.2375,-1.96794 -2.75,-2.50977 -9.915177,-3.55196 -14.143749,-5.56619 -15.185547,-7.23437 -1.069642,-1.71277 -0.956589,-1.83496 1.123047,-1.20313 1.272181,0.38651 5.005063,2.00133 8.296875,3.58789 C 49.244487,147.37341 51,147.65888 51,145.5 c 0,-0.825 -0.815037,-1.5 -1.810547,-1.5 -2.113289,0 -15.809516,-6.5768 -16.701172,-8.01953 -1.185111,-1.91755 3.098713,-0.91087 9.011719,2.11719 8.796976,4.50494 15.715218,7.20746 18.097656,7.07031 1.474463,-0.0849 3.027503,1.31598 5.232422,4.71875 4.120502,6.35902 5.580787,7.47753 8.728516,6.6875 2.692425,-0.67576 2.882173,-3.27387 0.205078,-2.80664 C 71.806166,154.10923 66,147.54179 66,144.98633 c 0,-1.23888 -1.361262,-2.64419 -3.75,-3.86914 -2.0625,-1.05765 -4.840455,-3.09101 -6.173828,-4.51953 L 53.652344,134 h 2.238281 c 2.860585,0 4.866683,1.02181 14.359375,7.32031 4.2625,2.82821 7.75,5.69867 7.75,6.37696 0,1.62309 3.235486,3.30273 6.361328,3.30273 2.273947,0 2.566909,-0.50689 3.316406,-5.75 C 88.573709,138.9822 88.805639,111.22845 88,106.67188 Z m 71.25781,2.29102 c 0.21086,-0.0541 0.40429,0.28437 0.69141,0.98437 0.36513,0.89017 6.7e-4,3.14017 -0.81055,5 l -1.47461,3.38086 -0.0117,-3 c -0.006,-1.65 0.35824,-3.9 0.81055,-5 0.35568,-0.86501 0.58406,-1.31111 0.79492,-1.36523 z m -16.87304,1.5039 c 0.39768,0.0589 0.92903,0.23088 1.58398,0.5293 1.35776,0.61863 2.23162,1.50893 1.94141,1.97851 -0.73066,1.18223 -1.79741,1.06783 -3.21094,-0.3457 -1.49709,-1.49709 -1.50751,-2.33871 -0.31445,-2.16211 z m 23.61328,1.52539 c 0.67645,0.0879 1.00757,3.94501 0.21875,7.05274 -0.52827,2.08121 -1.3748,3.7832 -1.88282,3.7832 -0.86075,0 -0.40139,-4.85614 0.9004,-9.5 0.27334,-0.9752 0.53818,-1.36524 0.76367,-1.33594 z m 10.6582,0.0371 c 0.0509,-0.0465 0.12773,-0.0453 0.23047,0.002 0.13699,0.0631 0.32025,0.20796 0.55469,0.42579 0.66783,0.6205 1.0227,2.4205 0.78711,4 -0.23559,1.5795 -0.5019,2.19609 -0.5918,1.37109 -0.0899,-0.825 -0.44479,-2.625 -0.78711,-4 -0.27038,-1.08605 -0.34608,-1.65946 -0.19336,-1.79883 z m -13.50391,0.0488 c 0.28752,0 0.25604,0.75 -0.0937,2.25 -0.38493,1.65 -1.14923,3.45 -1.69921,4 -0.66669,0.66667 -0.76738,0 -0.30079,-2 0.38492,-1.65 1.14922,-3.45 1.69922,-4 0.16667,-0.16667 0.2987,-0.25 0.39453,-0.25 z M 149.75,112.74805 c 0.6875,0.22991 1.25,0.84037 1.25,1.35547 0,2.34437 5.16386,8.89648 7.01172,8.89648 2.35242,0 2.41296,0.35625 0.64062,3.8457 -3.69915,7.28307 -4.74654,9.91646 -4.46289,11.22461 0.25841,1.19173 -1.69293,1.37891 -11.68945,1.1211 -6.6,-0.17021 -15.15,0.15157 -19,0.71679 -3.85,0.56522 -8.96306,1.33371 -11.36328,1.70703 -4.25349,0.66157 -4.3452,0.61916 -3.60938,-1.69921 1.43187,-4.51141 16.69481,-18.81769 24.45508,-22.92188 3.33348,-1.76298 15.20353,-4.76913 16.76758,-4.24609 z m 35.25781,2.28906 3.7461,1.5918 c 2.06033,0.87599 5.09609,2.19416 6.74609,2.92968 1.65,0.73553 4.92354,1.88479 7.27539,2.55469 3.37273,0.96069 5.69688,2.82103 11,8.80274 3.69795,4.17114 7.28917,8.18173 7.98047,8.9121 1.59784,1.6882 3.51298,5.23703 3.06641,5.6836 -0.18732,0.18732 -3.2623,-0.29018 -6.83204,-1.06055 -5.2367,-1.13011 -28.66936,-2.91891 -43.34961,-3.31055 -1.57264,-0.042 -3.44427,-0.56407 -4.16015,-1.1582 -0.9366,-0.77736 -1.49885,-0.76045 -2.00391,0.0566 -1.25992,2.03859 1.25588,3.20227 7.69727,3.56055 3.47945,0.19353 9.31668,0.87653 12.9707,1.51758 l 6.64258,1.16601 1.60742,4.97266 c 0.88348,2.73552 1.60547,5.59753 1.60547,6.35937 0,1.38252 -1.1989,1.85383 -2.19141,0.86133 -0.28833,-0.28833 -3.73291,-1.41333 -7.65429,-2.5 C 181.753,153.92567 171,153.3059 171,154.93164 c 0,0.99715 -3.86315,2.53725 -4.57617,1.82422 -0.23441,-0.2344 -0.67645,-5.11153 -0.98242,-10.83984 -0.30597,-5.72831 -0.99257,-12.632 -1.52539,-15.33985 -0.6502,-3.30459 -0.63231,-5.26015 0.0566,-5.94922 0.70217,-0.70217 1.02734,0.10366 1.02734,2.55078 0,4.09679 2.52326,10.82227 4.06055,10.82227 0.64415,0 0.92163,-2.72465 0.73633,-7.22656 l -0.29688,-7.22656 3.56641,0.2871 c 3.11514,0.25143 4.09656,-0.28811 7.7539,-4.25586 z M 53,136.625 l 3.244141,2.9375 c 1.784752,1.6154 3.436053,3.05 3.667968,3.1875 1.36357,0.8085 -0.895264,0.76965 -3.662109,-0.0625 C 53.691844,141.91811 53,141.16918 53,139.16797 Z m 212.17383,2.60156 c 2.80857,0.26046 4.9804,1.69106 4.28711,4.08399 -0.34884,1.20401 -1.83178,3.19882 -3.29688,4.43359 -3.04338,2.56493 -2.67516,2.52659 -6.78906,0.72266 -3.98813,-1.74879 -4.61165,-3.45571 -2.30469,-6.30469 1.85077,-2.2856 5.29495,-3.19601 8.10352,-2.93555 z m -62.87305,7.00196 c 1.1674,0.0504 2.73497,0.1649 4.82422,0.31836 16.93147,1.24339 18.60345,1.80118 24.98828,8.32617 9.48759,9.69588 12.501,17.77043 9.57422,25.65625 -2.14304,5.77414 -4.47156,14.34708 -5.20508,19.16406 -0.35113,2.30584 -1.34596,4.77822 -2.21094,5.49609 -2.46645,2.04701 -22.51456,2.08416 -28.87109,0.0527 l -5.09766,-1.63086 0.46289,-12.05469 c 0.25518,-6.63078 0.8477,-12.47014 1.31641,-12.97461 1.1771,-1.26689 1.64716,0.55823 2.55274,9.91797 l 0.77343,8 0.78907,-12 c 0.98744,-15.02495 0.3437,-22.12611 -2.06446,-22.75586 -1.17505,-0.30729 -2.14798,-2.22677 -2.96289,-5.84961 -0.66727,-2.9665 -1.48445,-6.42161 -1.8164,-7.67773 -0.45165,-1.70913 -0.55494,-2.13934 2.94726,-1.98828 z m 1.28906,2.17187 c -0.73282,0.26177 0.31833,4.12643 3.15235,11.59961 2.11786,5.58468 2.48512,8.33063 2.61133,19.5 0.0808,7.15 -0.24185,15.1375 -0.7168,17.75 -0.5452,2.99892 -0.50576,4.75 0.10742,4.75 0.53417,0 1.65521,-3.4875 2.49219,-7.75 1.52204,-7.7513 1.10106,-24.17788 -0.81445,-31.75 -1.11636,-4.4129 -5.14602,-13.21211 -6.40821,-13.99219 -0.17746,-0.10967 -0.31914,-0.14482 -0.42383,-0.10742 z m -27.89062,8.63477 c 3.26665,-0.16026 11.62676,1.39458 18.38476,3.67578 9.05688,3.05719 10.24661,4.49197 9.71485,11.73047 L 203.5,176.5 l -7,0.17969 c -6.91195,0.17754 -13.10039,-0.96402 -14.94922,-2.75781 C 181.02828,173.41493 178.25087,173 175.38086,173 c -2.87002,0 -5.92885,-0.27357 -6.79883,-0.60742 -2.99162,-1.14799 -1.57666,-2.47237 2.39063,-2.23828 2.18502,0.12893 4.28437,-0.0793 4.66601,-0.46094 C 176.02032,169.31172 173.33268,169 169.66602,169 165.64097,169 163,168.58073 163,167.94141 c 0,-0.70909 3.05588,-0.87533 9.25,-0.50196 7.03073,0.42379 8.80346,0.29147 7.38867,-0.55273 -1.02376,-0.61087 -6.31126,-1.14711 -11.75,-1.19141 C 162.44992,165.65103 158,165.19445 158,164.67969 c 0,-0.552 4.51257,-0.74972 11,-0.48242 8.94942,0.36873 11,0.19317 11,-0.93946 0,-0.85726 0.6724,-1.19318 1.75,-0.87304 5.98038,1.77669 7.25,1.81709 7.25,0.22461 0,-1.14682 -0.93273,-1.61124 -3.25,-1.61524 -4.22996,-0.007 -10.48919,-1.76249 -11.37109,-3.18945 -0.29112,-0.47104 0.23143,-0.71612 1.32031,-0.76953 z M 89.136719,158 c -0.474699,0 -1.146485,2.8125 -1.492188,6.25 -0.345704,3.4375 -1.009749,8.38357 -1.476562,10.99219 -0.466813,2.60862 -0.610654,4.98114 -0.320313,5.27148 1.038132,1.03814 2.608955,-0.20306 3.275391,-2.58789 C 90.127384,174.33177 90.138503,158 89.136719,158 Z M 92.75,158.30469 c -1.071625,0.0383 -0.857619,1.09432 0.625,3.22265 0.755735,1.08488 2.563854,4.95684 4.019531,8.60352 2.041594,5.11448 2.431357,7.19788 1.703125,9.11328 -0.519237,1.36569 -0.916712,6.59401 -0.882812,11.61914 0.103614,15.35851 2.299136,10.70113 3.289066,-6.97656 0.38686,-6.90835 0.0873,-9.76078 -1.513676,-14.41406 -1.097771,-3.19073 -1.781419,-6.01546 -1.519531,-6.27735 0.261889,-0.26188 2.328347,1.1973 4.591797,3.24219 2.26345,2.04489 4.41238,3.4216 4.77539,3.05859 0.36302,-0.36301 -1.2581,-2.31087 -3.60351,-4.32812 -2.34543,-2.01725 -4.258505,-4.01378 -4.250005,-4.43555 0.0085,-0.42176 2.250705,0.36574 4.982425,1.75 5.50939,2.79183 6.0332,2.93092 6.0332,1.58985 0,-1.14214 -10.08464,-5.00927 -12.642578,-4.84766 -1.021374,0.0645 -2.869922,-0.21474 -4.107422,-0.62109 -0.643466,-0.21129 -1.142792,-0.31159 -1.5,-0.29883 z m 76.64258,1.45898 c 3.49538,0.0357 7.1293,0.43823 8.4043,1.18164 1.21583,0.70894 -1.00068,1.00174 -7.7461,1.02344 -7.42377,0.0239 -9.1905,-0.22942 -8.23437,-1.18555 0.72302,-0.72302 4.08079,-1.0552 7.57617,-1.01953 z M 141.75,163.01562 c -0.74916,-0.0153 -0.17893,30.00604 0.75,39.48438 0.26951,2.75 0.73457,11.075 1.0332,18.5 0.29863,7.425 1.00564,18.225 1.57227,24 0.56663,5.775 0.95568,14.1 0.86328,18.5 -0.0924,4.4 -0.12334,8.63685 -0.0684,9.41602 0.055,0.77916 0.30089,1.2167 0.54688,0.9707 0.99885,-0.99885 1.44254,-36.13953 0.58593,-46.38672 -0.50576,-6.05 -1.11652,-22.64091 -1.35937,-36.86914 -0.44074,-25.82329 -0.68618,-27.54922 -3.92383,-27.61524 z m 70.75,0.0215 2.36133,1.98242 c 1.29844,1.0897 3.02813,1.98047 3.84375,1.98047 2.72869,0 12.033,6.28877 13.8457,9.35742 1.20518,2.04021 1.74544,4.82479 1.64844,8.50977 -0.18389,6.98937 1.50462,5.62738 2.33203,-1.88086 0.50069,-4.54352 0.20676,-6.25979 -1.71289,-9.98633 -2.11478,-4.10533 -2.88843,-4.68319 -8.81836,-6.5918 -3.575,-1.15065 -8.075,-2.38087 -10,-2.73242 z m -32.58398,7.08594 c -0.3474,-0.0143 -0.74259,0.0489 -1.10352,0.19336 -0.79773,0.31922 -0.56143,0.55746 0.60352,0.60547 1.05416,0.0434 1.64479,-0.19311 1.3125,-0.5254 -0.16615,-0.16612 -0.46511,-0.25913 -0.8125,-0.27343 z M 71.388672,173.37891 C 71.269141,173.37661 71.1375,173.41502 71,173.5 c -0.55,0.33992 -1,1.29219 -1,2.11719 0,0.82497 0.45,1.22273 1,0.88281 0.55,-0.33992 1,-1.29219 1,-2.11719 0,-0.61872 -0.252734,-0.997 -0.611328,-1.0039 z M 49.984375,182 c -0.874648,0 -1.164931,52.36448 -0.302734,54.61133 0.293252,0.7642 0.960352,1.38867 1.484375,1.38867 0.583256,0 0.872309,-9.40491 0.74414,-24.25 C 51.690797,188.34291 51.306823,182 49.984375,182 Z m 36.019531,0.006 C 85.947837,181.9402 85.487112,182.28914 84.574219,183 79.846772,186.68122 75,191.41523 75,192.35156 c 0,0.86628 2.244426,-0.89819 7.447266,-5.85547 0.579512,-0.55216 1.727734,-1.90216 2.552734,-3 0.710862,-0.94595 1.059976,-1.42499 1.003906,-1.49023 z m 217.316404,5.0625 c -0.009,0.0163 -0.0182,0.0334 -0.0254,0.0508 -0.007,0.016 0.01,-0.0265 0.0254,-0.0508 z M 87.082031,190 c -1.742515,0 -6.161474,3.58657 -5.380859,4.36719 1.070852,1.07085 1.861433,0.7273 4.298828,-1.86719 1.360255,-1.44793 1.815599,-2.5 1.082031,-2.5 z M 68.326172,212.01367 C 65.671763,211.997 60,217.45071 60,220.01953 c 0,2.7811 4.000492,9.0357 6.400391,10.00586 6.647827,2.68738 11.88214,-1.05283 10.945312,-7.82031 -1.118883,-8.0826 -2.950863,-10.15331 -9.019531,-10.19141 z M 68.880859,213 C 70.201158,213 76,221.71313 76,223.69727 c 0,1.029 -1.306936,2.64431 -2.904297,3.58789 C 71.498342,228.22875 69.760061,229 69.232422,229 67.479526,229 63,223.75999 63,221.70898 63,219.63777 67.481975,213 68.880859,213 Z m 93.087891,0 c -0.77833,0 -0.25558,36.26561 0.55859,38.75 1.23472,3.76762 1.59703,-0.54792 1.37696,-16.41602 C 163.6492,216.94005 163.30782,213 161.96875,213 Z M 0.81445312,217.63672 c -0.005272,0.009 -0.00966,0.0187 -0.015625,0.0273 0.004223,0.006 0.008402,0.0155 0.0117188,0.0195 0.003827,0.005 0.007774,0.009 0.0117187,0.0137 0.003645,-0.0231 0.001221,-0.0435 -0.007813,-0.0606 z m 53.98046888,1.99023 c -0.698103,0.43145 -0.804226,3.06754 -0.3125,7.76367 0.409477,3.91068 0.695805,8.16638 0.634766,9.45899 -0.06104,1.29261 0.139452,2.75511 0.445312,3.25 1.567494,2.53626 2.53735,0.46943 2.041016,-4.34961 -0.297397,-2.8875 -0.813802,-7.84375 -1.146485,-11.01367 -0.385528,-3.67345 -0.988436,-5.52574 -1.662109,-5.10938 z m -52.6582032,2.02344 c 1.785e-4,0.0248 7.481e-4,0.0494 0,0.0742 0.0211,0.0129 0.042195,0.0255 0.0625,0.0371 0.00127,-0.0241 0.00264,-0.0482 0.00391,-0.0723 -0.021577,-0.0134 -0.04362,-0.027 -0.066406,-0.0391 z m 209.9628912,1.59766 c -1.02432,0.0868 -2.45185,0.44299 -4.50391,1.08984 -11.13015,3.50847 -20.66777,16.92443 -26.0625,36.66211 -1.27777,4.675 -4.22044,15.475 -6.54101,24 -4.53441,16.65798 -7.3155,25.44354 -11.55078,36.5 -1.47477,3.85 -3.72772,10.73485 -5.00782,15.30078 -2.25648,8.04856 -2.27163,8.32299 -0.4414,9 2.11166,0.78112 44.65792,0.95943 45.21289,0.18945 0.58443,-0.81084 3.79492,-8.02127 3.79492,-8.52343 0,-1.57557 -2.81315,0.008 -4.5,2.5332 -1.32435,1.98271 -2.84457,2.99881 -4.5,3.00781 -1.375,0.008 -4.24099,0.30273 -6.36914,0.6543 l -3.86914,0.63867 0.39453,-4.15039 c 0.44414,-4.65735 -0.7001,-5.48126 -2.18555,-1.57422 -1.83082,4.81545 -3.48917,5.68359 -9.24023,4.83594 -2.87666,-0.424 -7.53551,-0.66763 -10.35352,-0.54102 -6.44941,0.28976 -7.07891,-0.98283 -4.29297,-8.67578 7.3804,-20.37988 11.24155,-32.11563 13.88282,-42.19531 10.27968,-39.2296 11.76854,-44 13.73437,-44 0.77271,0 1.35154,1.3169 1.42774,3.25 0.3726,9.4503 0.0292,18.23478 -1.04493,26.75 -4.04116,32.03741 -4.104,46.49398 -0.20703,47.79297 0.94944,0.31648 1.14343,-0.15322 0.67383,-1.63281 -1.1898,-3.74872 -0.78809,-15.41905 1.02149,-29.66016 1.85657,-14.61091 2.56656,-46.39742 1.11718,-50.03906 -0.6569,-1.65048 0.32425,-3.27893 5.16211,-8.5586 5.31672,-5.80227 8.95535,-8.2201 15.56641,-10.34961 1.44871,-0.46665 1.63373,-0.89947 0.76172,-1.77148 -0.43601,-0.436 -1.05576,-0.62001 -2.08008,-0.5332 z m 6.24805,0.0176 c -0.81261,-0.005 -1.33249,0.13594 -1.32032,0.47266 0.0151,0.419 1.6574,1.88672 3.64844,3.26172 1.99103,1.375 4.77901,3.7375 6.19531,5.25 1.4163,1.5125 3.41122,2.75 4.4336,2.75 1.74541,0 1.72125,-0.2289 -0.375,-3.75 -1.22788,-2.0625 -2.95061,-4.48259 -3.83008,-5.37891 -1.24148,-1.26525 -6.31415,-2.59056 -8.75195,-2.60547 z M 273.6543,223.5 c -0.0977,-0.4039 -0.29904,0.69265 -0.67188,3 -0.44437,2.75 -0.79424,7.7 -0.77734,11 0.0231,4.50333 0.20495,5.25166 0.72656,3 0.38224,-1.65 0.73214,-6.6 0.77734,-11 0.038,-3.69176 0.043,-5.5961 -0.0547,-6 z m 8.3789,2.5 c -0.60569,0 -1.0332,2.6917 -1.0332,6.5 0,3.575 0.38523,6.5 0.85547,6.5 0.47023,0 0.9348,-2.925 1.0332,-6.5 0.10794,-3.92362 -0.23144,-6.5 -0.85547,-6.5 z m -72.08593,12.43555 c -0.62062,-0.001 -1.38752,0.16067 -2.28516,0.50195 -2.50778,0.95345 -3.56911,3.82347 -1.99609,5.39648 1.50011,1.50012 4.44833,0.50686 5.52734,-1.86132 1.16384,-2.55435 0.61575,-4.03316 -1.24609,-4.03711 z m 10.14843,2.13672 c -0.75395,0.75394 -0.92811,27.61389 -0.1875,28.92773 0.31003,0.55 1.18621,-4.11649 1.94727,-10.37109 1.13472,-9.32555 1.15439,-12.07167 0.10351,-15.25586 -0.70482,-2.13563 -1.54341,-3.62065 -1.86328,-3.30078 z m -110.02343,3.58398 c -0.0933,0.12246 0.25086,0.63454 0.95312,1.63672 0.81149,1.15806 3.29516,4.7161 5.51953,7.90625 3.84987,5.52138 6.75899,12.3758 9.46485,22.30078 0.67476,2.475 1.38328,5.0625 1.57617,5.75 0.19288,0.6875 0.8449,1.25 1.44922,1.25 0.60431,0 0.87112,-0.7875 0.59179,-1.75 -0.27933,-0.9625 -1.00629,-3.67712 -1.61523,-6.0332 -3.03019,-11.72428 -11.71005,-27.91414 -16.27539,-30.35742 -1.04129,-0.55729 -1.57075,-0.82559 -1.66406,-0.70313 z m -63.419926,2.08594 c -1.173381,0.0208 -1.977818,0.0884 -2.279297,0.21093 -1.800421,0.73205 -1.795238,0.79361 0.126953,1.58399 1.1,0.45231 5.15,0.90683 9,1.00977 3.85,0.10292 9.925,0.5307 13.5,0.95117 6.899908,0.81152 11.911406,0.49093 13.251953,-0.84961 0.945496,-0.9455 -25.385947,-3.0518 -33.599609,-2.90625 z m 53.476566,0.70703 c -0.572506,0.11914 0.48593,2.22952 3.85937,6.63086 2.77413,3.61941 5.70128,7.85424 6.50586,9.41015 0.80459,1.5559 2.03531,3.05858 2.73438,3.33985 4.65791,1.87409 3.54617,-0.88976 -4.26172,-10.5918 -4.67025,-5.80322 -8.10183,-8.94225 -8.83789,-8.78906 z M 84.25,248.01562 c -1.495547,0.0131 -1.531897,0.15595 -0.25,0.98438 1.887213,1.21961 2,1.21961 2,0 0,-0.55 -0.7875,-0.9928 -1.75,-0.98438 z m 9.015625,0.36524 c -0.648355,0.44072 -1.260537,2.77297 -1.589844,6.83008 -1.052045,12.96132 -3.45833,31.04257 -5.496093,41.28906 -1.093812,5.5 -2.285561,11.73286 -2.648438,13.85156 -1.321018,7.71292 -1.73196,2.48632 -0.554688,-7.05273 1.419123,-11.49863 3.8508,-50.41942 3.226563,-51.63672 -1.32477,-2.5834 -2.526957,2.52666 -2.761719,11.73828 -0.147312,5.78022 -0.492812,10.87182 -0.767578,11.31641 -0.274766,0.44458 -0.783701,5.07896 -1.132812,10.29687 -0.349112,5.21792 -1.369694,15.56133 -2.267578,22.98633 -0.897892,7.425 -1.64605,16.7625 -1.66211,20.75 -0.01716,4.26241 -0.458252,7.29743 -1.070312,7.36523 -0.572585,0.0634 -5.653516,0.0204 -11.291016,-0.0957 -6.075087,-0.12509 -10.25,0.18305 -10.25,0.75586 0,1.05236 15.802475,3.3766 17.474609,2.57031 0.564273,-0.27209 0.125391,0.24444 -0.974609,1.14649 -1.931598,1.58401 -1.897398,1.61572 1,0.93359 3.578643,-0.84251 8.151188,-3.05435 8.933594,-4.32031 0.308733,-0.49954 1.054991,-4.43899 1.65625,-8.75586 0.601259,-4.31687 2.171418,-12.79961 3.490234,-18.84961 5.022705,-23.04138 9.239548,-51.13383 8.496094,-56.59961 -0.47727,-3.50883 -1.162192,-4.96025 -1.810547,-4.51953 z M 163,254 c -0.55,0 -1,1.82613 -1,4.05859 0,2.45136 0.39607,3.81466 1,3.44141 0.55,-0.33992 1,-2.16605 1,-4.05859 C 164,255.54887 163.55,254 163,254 Z m -122.041016,1.30078 c -0.204193,0.18977 0.583802,0.98991 2.201172,2.18555 l 3.660156,2.70508 -0.0625,14.65429 c -0.121845,28.144 1.522105,56.91059 3.751954,65.6543 2.082514,8.16598 6.568033,21.43156 7.427734,21.96289 0.439328,0.27152 1.119329,3.73495 1.509766,7.69727 0.487855,4.95097 0.997405,6.75561 1.628906,5.77148 1.264878,-1.97119 0.18281,-14.6282 -1.523438,-17.82226 C 54.983129,349.55507 52.777674,341.3113 52.435547,331.5 52.243758,326 51.799661,316.775 51.447266,311 c -0.352394,-5.775 -0.969,-15.9 -1.371094,-22.5 -0.402093,-6.6 -0.460462,-12.54973 -0.128906,-13.22266 0.331551,-0.67294 0.353376,-4.19473 0.04883,-7.82422 l -0.552735,-6.59765 5.527344,0.61719 c 9.633747,1.07587 22.937146,1.01988 24.058594,-0.10157 0.752395,-0.75239 -2.685747,-1.24805 -11.732422,-1.6875 C 60.258562,259.3417 52.025,258.34414 49,257.46484 c -3.025,-0.8793 -6.4,-1.84407 -7.5,-2.14257 -0.294585,-0.0799 -0.472951,-0.0848 -0.541016,-0.0215 z m 113.578126,0.40625 c -0.50498,0.3209 -0.92377,3.65081 -2.13086,14.54297 -0.43704,3.94365 -0.28636,5.75 0.47852,5.75 0.61337,0 1.12948,-0.7875 1.14648,-1.75 0.017,-0.9625 0.46062,-5.06388 0.98633,-9.11328 0.54737,-4.21639 0.58424,-8.02582 0.0859,-8.91602 -0.21998,-0.39307 -0.39809,-0.62063 -0.56641,-0.51367 z M 162.97461,263 C 162.43836,263 162,264.64935 162,266.66602 c 0,4.28579 0.46455,4.14127 1.33203,-0.41602 0.35547,-1.86745 0.20281,-3.25 -0.35742,-3.25 z m 122.49219,2.46094 c -0.18087,-0.0674 -0.3086,0.50781 -0.3086,1.53906 0,1.375 0.2265,1.9375 0.50391,1.25 0.27741,-0.6875 0.27741,-1.8125 0,-2.5 -0.0693,-0.17188 -0.13502,-0.2666 -0.19531,-0.28906 z m 0.69922,4.49804 c -0.87903,-0.24748 -0.82537,3.14999 -0.0293,17.04102 0.52007,9.075 0.98048,17.175 1.02148,18 0.041,0.825 -0.0497,5.775 -0.19922,11 -0.14955,5.225 0.0635,11.4125 0.47266,13.75 0.40915,2.3375 1.17422,4.25 1.69922,4.25 1.39539,0 -1.07624,-62.27937 -2.5293,-63.73242 -0.16419,-0.16419 -0.30997,-0.27324 -0.43554,-0.3086 z m -168.84571,0.38672 c -0.28184,0.28184 0.81445,3.13274 2.4375,6.33399 1.62306,3.20126 4.45364,10.43281 6.28907,16.07031 1.8354,5.6375 3.75018,10.25 4.25585,10.25 1.20267,0 0.0521,-6.05111 -2.47265,-13 -1.09908,-3.025 -2.08435,-6.175 -2.18946,-7 -0.25758,-2.02202 -7.67358,-13.30103 -8.32031,-12.6543 z M 239.8457,291 c -0.90549,0 -0.59196,7.76912 0.75586,18.75 0.88806,7.23518 2.62567,4.99073 1.93555,-2.5 C 241.33627,294.21571 240.8039,291 239.8457,291 Z M 12.373047,304.08789 C 3.9970481,304.01543 2.0081278,304.29207 0.87304688,305.69141 0.11820227,306.62199 -0.05,307.12816 0.5,306.81641 c 0.55,-0.31175 1.9,-0.18687 3,0.27734 1.1,0.4642 3.35,0.62497 5,0.35547 1.65,-0.2695 7.725,-0.79939 13.5,-1.17578 9.552688,-0.62261 10.048899,-0.74725 5.5,-1.39063 -2.75,-0.38896 -9.556798,-0.74674 -15.126953,-0.79492 z M 130.31641,305 c -1.20829,0 -1.40066,0.70432 -0.88672,3.25 0.36088,1.7875 1.11243,10.225 1.67187,18.75 0.55945,8.525 1.2029,16.0625 1.42774,16.75 0.22484,0.6875 0.84348,1.25 1.375,1.25 1.21206,0 0.40248,-27.38026 -1.02735,-34.75 -0.70316,-3.62424 -1.49563,-5.25 -2.56054,-5.25 z m 200.17382,3.42188 c -0.22073,-0.008 -0.41252,0.0303 -0.5625,0.12304 -0.84072,0.51959 -0.48745,1.28977 1.18555,2.57617 2.60657,2.00425 3.88672,2.34381 3.88672,1.03321 0,-1.39591 -2.96462,-3.67986 -4.50977,-3.73242 z m -13.28125,0.75195 c -3.98218,0.0375 -7.48434,0.46368 -7.7832,0.94726 -0.29887,0.48358 0.19394,0.87891 1.0957,0.87891 2.26868,0 10.80283,5.86514 17.97852,12.35547 3.3,2.98481 6.16831,4.9683 6.375,4.4082 0.38879,-1.05363 -2.50502,-3.86972 -12.34961,-12.01367 -5.51441,-4.56179 -5.62813,-4.75 -2.87305,-4.75 1.67437,0 3.99085,1.04086 5.56446,2.5 1.48288,1.375 3.02473,2.5 3.42578,2.5 0.40106,0 1.76828,0.97608 3.03906,2.16992 1.27078,1.19384 2.58499,1.89743 2.91992,1.5625 0.33493,-0.33492 -1.09501,-2.09851 -3.17773,-3.91992 -2.08272,-1.82141 -4.50441,-4.07621 -5.38086,-5.00977 -1.22816,-1.30818 -3.25378,-1.6814 -8.83399,-1.6289 z m -4.13867,10.42187 c -0.2453,0.2453 1.53345,2.46231 3.95117,4.92578 3.90675,3.98073 5.97852,5.3782 5.97852,4.03321 0,-0.8457 -9.48512,-9.40356 -9.92969,-8.95899 z m -128.68359,0.34961 c -0.88136,-0.35836 -1.37473,3.06505 -1.34766,9.80469 0.0379,9.43454 0.0864,9.64071 1.5,6.38477 1.48052,-3.41009 1.96415,-11.65848 0.85352,-14.55274 -0.37489,-0.97694 -0.71207,-1.51726 -1.00586,-1.63672 z M 1.671875,325.38672 c -2.36715119,0.25946 -2.5009042,1.3721 0.5058594,2.48437 C 5.2602314,329.01138 25,329.1987 25,328.08789 c 0,-0.50493 -3.4875,-1.19074 -7.75,-1.52539 -4.2625,-0.33465 -9.8875,-0.83792 -12.5,-1.11914 -1.2521632,-0.13479 -2.2890746,-0.14325 -3.078125,-0.0566 z m 173.277345,2.55469 c -0.55947,0.1595 -0.88307,1.9496 -1.43555,6.80859 -0.45182,3.97376 -0.34674,6.25 0.28906,6.25 1.10407,0 2.76991,-11.76134 1.80274,-12.72852 -0.25602,-0.25601 -0.46976,-0.38324 -0.65625,-0.33007 z m 4.5625,1.87695 c -0.17095,-0.17733 -0.30111,0.44414 -0.31641,1.68164 -0.0204,1.65 0.18701,2.44656 0.46094,1.76953 0.27397,-0.67703 0.29068,-2.02703 0.0371,-3 -0.0634,-0.24324 -0.12466,-0.39206 -0.18164,-0.45117 z m 124.55469,0.18945 c -0.69399,0.21109 -1.62907,1.21702 -2.27539,2.74219 -0.64097,1.5125 -2.39004,4.1 -3.88868,5.75 -1.49864,1.65 -4.00335,5.0943 -5.56445,7.6543 -1.56111,2.56001 -5.94088,9.28938 -9.73437,14.95508 -7.66727,11.45125 -11.05246,18.27602 -10.18555,20.53515 0.74144,1.93218 -1.20533,5.60508 -2.53516,4.7832 -0.55912,-0.34556 -0.87344,-2.26999 -0.69922,-4.27734 0.28347,-3.26613 -0.023,-3.80804 -2.91211,-5.15039 -1.77559,-0.825 -3.2381,-1.91519 -3.25,-2.42188 -0.0119,-0.50668 -0.76553,-1.74419 -1.67578,-2.75 C 259.78439,370.10289 259.83151,370 262.18555,370 c 1.74101,0 3.29857,1.13011 5.15429,3.73828 2.80114,3.93689 3.48027,3.26476 1.45704,-1.4414 -0.66139,-1.53839 -1.28036,-2.92964 -1.37696,-3.0918 -0.0966,-0.16215 -2.70682,-0.44068 -5.79883,-0.61914 -6.83541,-0.39453 -7.09807,0.56593 -1.62109,5.91406 2.42964,2.37248 4,4.83063 4,6.26172 0,1.29584 -0.40788,2.10488 -0.90625,1.79687 -0.49833,-0.30801 -0.6876,-1.39827 -0.41992,-2.42187 0.56616,-2.16498 -2.29541,-3.6959 -4.10352,-2.19531 -1.43572,1.19154 -5.87509,-0.92678 -9.81054,-4.68164 -4.03245,-3.84741 -4.70136,-1.82493 -0.7461,2.25585 C 250.54917,378.1316 250.96851,379 249.69531,379 248.76242,379 248,378.64625 248,378.21484 c 0,-0.43142 -1.35,-1.58196 -3,-2.55664 -4.37022,-2.58155 -3.67132,-0.65867 1.5,4.12696 2.475,2.29042 4.5,4.93656 4.5,5.8789 0,1.4624 -0.29873,1.39341 -2.03906,-0.47461 C 247.83952,383.98574 246.40607,383 245.77539,383 c -0.63068,0 -3.20055,-1.72665 -5.71094,-3.83789 C 234.09301,374.14014 228.8313,371.29999 230.5,374 c 0.33995,0.55 0.30123,1 -0.0859,1 -1.19569,0 -9.41011,-5.45475 -9.41211,-6.25 -0.003,-1.33145 2.11828,-0.80001 5,1.25195 l 2.81055,2.00196 -1.11914,-2.375 c -0.97611,-2.06836 -2.026,-2.44993 -8.14453,-2.96289 -4.01986,-0.33701 -7.43592,-0.17737 -7.98633,0.37304 -0.61572,0.61572 0.2079,0.96094 2.28906,0.96094 2.41605,0 5.27567,1.52256 11.13867,5.93164 9.79873,7.36882 12.27704,8.76461 12.79688,7.20508 0.21077,-0.6323 0.82866,-0.87356 1.37305,-0.53711 0.56981,0.35216 0.0573,1.60517 -1.20899,2.95312 -1.92583,2.04995 -2.38139,2.15963 -3.65625,0.88477 -0.80088,-0.80088 -1.80678,-1.23888 -2.23437,-0.97461 -0.42759,0.26426 -2.9543,-1.51988 -5.61524,-3.96289 -5.20555,-4.77921 -7.53487,-5.29051 -3.12304,-0.68555 3.47895,3.63124 3.37609,4.26698 -0.57227,3.51953 -3.32822,-0.63005 -7.45902,-3.61495 -16.22852,-11.72851 C 201.52625,365.984 200,365.14027 200,367 c 0,0.55 0.3809,1 0.8457,1 0.46479,0 2.99252,2.925 5.61719,6.5 2.62467,3.575 5.16877,6.5 5.6543,6.5 0.48554,0 0.88281,0.38636 0.88281,0.85742 0,0.47107 -1.3493,0.8086 -2.99805,0.75 -1.64875,-0.0586 -2.999,-0.52842 -3,-1.04297 C 206.9989,380.31268 202.89842,376 201.71094,376 c -0.51772,0 -3.1275,-2.29094 -5.79883,-5.0918 -2.67133,-2.80086 -5.39465,-4.91402 -6.05078,-4.69531 -0.65613,0.21871 2.44528,4.1143 6.89062,8.65625 6.37775,6.51637 7.72939,8.38676 6.41407,8.87109 -0.91679,0.33758 -2.04539,1.09738 -2.50977,1.6875 -0.50767,0.64512 -0.61913,0.37214 -0.2793,-0.68359 0.40165,-1.24778 -0.51205,-2.48482 -3.15625,-4.27734 -2.04647,-1.38732 -6.15857,-4.31061 -9.13867,-6.49414 -2.9801,-2.18354 -5.6801,-3.70758 -6,-3.38672 -0.58186,0.5836 1.18487,2.27803 8.26563,7.92383 l 3.77539,3.00976 -8.28125,-0.375 c -7.94305,-0.36071 -8.64795,-0.59448 -17.31055,-5.74805 l -9.03125,-5.37304 5.25391,4.92773 c 5.12516,4.8072 5.50315,6.89976 0.98828,5.4668 -1.23191,-0.39099 -5.38957,-2.82969 -9.24024,-5.41992 -3.85067,-2.59023 -8.46445,-5.33412 -10.25195,-6.09766 -3.43929,-1.46911 -4.05389,-2.44616 -2,-3.17969 0.68748,-0.24554 1.00484,-0.71569 0.70508,-1.04492 -0.70831,-0.77794 -80.872371,-1.09052 -81.644533,-0.31836 -0.323064,0.32307 0.691218,1.07189 2.253906,1.66602 C 68.799598,367.25344 82,377.76692 82,379.11328 c 0,1.064 -16.664314,1.40624 -46.390625,0.95313 -17.318491,-0.26398 -21.731928,-0.0723 -21.121094,0.91601 0.599086,0.96934 -0.936874,1.16226 -6.8574216,0.86328 L 0,381.46094 v 4.79297 4.79101 l 23.75,0.0879 c 13.0625,0.0487 25.325,0.10149 27.25,0.11719 1.925,0.0156 5.075,-0.0126 7,-0.0625 1.925,-0.05 4.625,-0.0655 6,-0.0352 5.777255,0.12733 43.00581,0.0559 62,-0.11914 23.85415,-0.21984 24.0457,-0.21815 80.91797,0.45508 23.87964,0.28268 43.53286,0.62469 43.67383,0.76172 0.34648,0.3368 33.57212,0.25146 45.4082,-0.11719 5.225,-0.16274 16.1375,0.0118 24.25,0.38867 l 14.75,0.68555 v -5.04297 -5.04101 l -4.25,-0.51953 c -2.3375,-0.28504 -15.6673,-0.72552 -29.62109,-0.98047 -13.95378,-0.25495 -25.73702,-0.83675 -26.18555,-1.29297 -0.44852,-0.45621 0.72578,-2.50511 2.60937,-4.55274 2.43058,-2.64226 3.9355,-3.53105 5.18555,-3.0625 1.56731,0.58747 1.60369,0.46599 0.33399,-1.09375 -1.58344,-1.94514 -1.16934,-2.9319 5.5664,-13.29101 C 290.4874,355.48697 292,352.86359 292,352.5 c 0,-0.68658 5.17954,-8.94238 10.14062,-16.16406 1.57311,-2.28991 2.85938,-4.65241 2.85938,-5.25 0,-0.52891 -0.12884,-0.85863 -0.33984,-1.01367 -0.15826,-0.11629 -0.36242,-0.13474 -0.59375,-0.0645 z m -164.78711,0.3711 c -0.10514,0.10514 -0.17716,0.45463 -0.20118,1.03711 -0.0434,1.05416 0.1931,1.64479 0.5254,1.3125 0.33225,-0.33229 0.36885,-1.19415 0.0801,-1.91602 -0.15961,-0.39887 -0.29916,-0.53873 -0.40429,-0.43359 z m 167.06445,0.54687 c -0.87449,-0.0489 3.36079,5.11484 11.74609,13.82422 4.36865,4.5375 8.67103,8.25 9.5625,8.25 1.7794,0 -3.97045,-6.56537 -14.00976,-15.99609 -4.40894,-4.14166 -6.77414,-6.04881 -7.29883,-6.07813 z m 8.40234,0.22266 c -0.15874,0.0246 -0.29967,0.0949 -0.41406,0.21289 -0.45747,0.47176 0.29297,1.58959 1.66797,2.48437 1.375,0.89479 4.75,3.76091 7.5,6.36914 2.75,2.60823 5.13529,4.75178 5.30078,4.76368 1.02928,0.0738 -5.64003,-7.43466 -8.19726,-9.22852 -1.70715,-1.19754 -3.62896,-2.86661 -4.27149,-3.71094 -0.48198,-0.63336 -1.10971,-0.96438 -1.58594,-0.89062 z m -104.6914,0.91992 c -0.61185,0.1 -1.50182,0.60806 -2.61328,1.51367 -1.77628,1.44731 -1.7856,1.53223 -0.10938,1 1.00748,-0.3199 2.24498,-0.58203 2.75,-0.58203 0.50501,0 0.91797,-0.45 0.91797,-1 0,-0.72397 -0.33346,-1.03163 -0.94531,-0.93164 z M 0.04492187,332.5 0.0234375,337.50391 c -0.0232355115,5.1185 0.95606961,6.84324 13.4765625,23.73437 1.948879,2.62919 3.503594,3.52428 3.496094,2.01172 -0.0021,-0.4125 -0.966238,-2.325 -2.142578,-4.25 -2.049163,-3.35331 -4.280204,-7.32596 -11.5136722,-20.5 z M 326.04883,333.27344 c -0.30177,0.21225 1.55188,2.54225 4.95117,5.83594 1.925,1.86518 3.65389,3.31104 3.8418,3.21484 0.76123,-0.38989 -1.58508,-3.18481 -5.78907,-6.89649 -1.86528,-1.64685 -2.82284,-2.28165 -3.0039,-2.15429 z M 139.76367,333.5 139,336.5 c -0.41985,1.65 -0.78415,4.125 -0.81055,5.5 -0.0436,2.26846 0.0307,2.31477 0.81055,0.5 0.47269,-1.1 0.83695,-3.575 0.81055,-5.5 z m -125.867186,1.61133 c -1.63125,-0.001 -3.30264,0.049 -4.6171871,0.15234 C 6.6502016,335.47034 8.55,335.64153 13.5,335.64453 c 4.95,0.003 7.100202,-0.16528 4.779297,-0.375 -1.160453,-0.10509 -2.751563,-0.15714 -4.382813,-0.1582 z m 15.103516,0 c -0.996875,0 -1.99375,0.0573 -2.75,0.17187 -1.5125,0.22912 -0.275,0.41797 2.75,0.41797 3.025,0 4.2625,-0.18885 2.75,-0.41797 -0.75625,-0.11456 -1.753125,-0.17187 -2.75,-0.17187 z m 228.16211,1.74609 c 1.58562,0.003 3.71454,0.10067 6.00586,0.29102 4.58264,0.3807 11.59453,0.72778 15.58203,0.77148 5.60902,0.0615 7.25,0.40667 7.25,1.52149 0,0.79254 -0.4838,1.7386 -1.07422,2.10351 -0.59043,0.3649 -2.99765,3.66665 -5.34961,7.33594 -2.75443,4.29719 -4.95182,6.68805 -6.17578,6.71875 -1.04511,0.0262 -5.07838,-1.07481 -8.96289,-2.44727 l -7.0625,-2.49609 -1.68555,-6.42578 c -0.92704,-3.53452 -1.49842,-6.72925 -1.26953,-7.09961 0.11445,-0.18518 1.15657,-0.27685 2.74219,-0.27344 z M 303,337.4082 c 0,0.38389 2.52633,3.82387 5.61328,7.64453 3.08695,3.82066 6.04815,6.94727 6.58203,6.94727 0.53388,0 0.82201,-0.38494 0.63867,-0.85547 C 315.31144,349.80341 303,336.62637 303,337.4082 Z M 66.232422,343 C 64.828227,343 59,347.90755 59,349.08984 c 0,1.1393 1.239254,1.09551 13,-0.44726 10.741972,-1.40913 9.22897,-2.94819 -1.908203,-1.94141 L 63.5,347.29688 65.404297,345.14844 C 66.45204,343.96688 66.825466,343 66.232422,343 Z m 234.320308,1.92969 c -1.04366,-0.1826 -0.55018,1.16271 1.90235,3.61523 2.0947,2.09468 5.54492,3.36372 5.54492,2.03906 0,-0.22878 -1.8,-1.84155 -4,-3.58398 -1.6423,-1.30073 -2.82107,-1.96075 -3.44727,-2.07031 z M 331.81836,347 c -0.6631,0 -0.58758,0.57305 0.20117,1.52344 0.69572,0.83829 1.47096,1.3181 1.72266,1.0664 C 334.43568,348.89634 333.02691,347 331.81836,347 Z m -187.19141,0.20312 c -5.9159,-0.10953 -13.29055,0.29763 -19.12695,1.27735 -4.4,0.73859 -9.35,1.17387 -11,0.96875 -14.29255,-1.7768 -27.818027,-2.43097 -29.052734,-1.40625 -0.752345,0.62439 -4.421667,2.16408 -8.15625,3.42187 -5.788487,1.94954 -6.791016,2.6299 -6.791016,4.61524 0,1.63205 0.748045,2.53806 2.5,3.02539 3.737369,1.03956 6.48298,1.01107 7.572266,-0.0781 0.535002,-0.535 7.901835,-1.0975 16.36914,-1.25 10.793984,-0.1944 15.511964,-0.63304 15.789064,-1.46679 0.29341,-0.88283 -1.87513,-1.06208 -8.41797,-0.69922 -4.847178,0.26882 -11.590237,0.12729 -14.984375,-0.3125 L 83.158203,354.5 l 2.435547,-2.82422 2.4375,-2.82226 8.734375,1.50195 c 4.804055,0.82598 10.000515,1.98275 11.548825,2.57226 1.5483,0.5895 4.04238,1.07227 5.54102,1.07227 1.49864,0 5.18054,0.62111 8.18359,1.38086 10.1394,2.5652 12.96094,2.84775 12.96094,1.29492 0,-0.93782 -1.5342,-1.58794 -4.54883,-1.92773 -8.16188,-0.91996 -7.1107,-2.76875 2.67188,-4.69336 3.37968,-0.66491 6.57984,-0.79073 7.60547,-0.29883 2.12946,1.0213 14.27148,0.40176 14.27148,-0.72852 0,-1.08778 -4.45715,-1.71468 -10.37305,-1.82422 z m -126.339841,4.1504 c -4.283181,-0.025 -2.748982,0.58137 4.861329,1.56836 9.108845,1.1813 13.421291,1.24172 12.300781,0.16992 C 34.926719,352.59202 30,351.91907 24.5,351.59766 c -2.710825,-0.15842 -4.785164,-0.2358 -6.212891,-0.24414 z M 304.78906,353 c -2.11804,0 -0.11586,2.38291 6.96094,8.28516 4.2625,3.55505 9.55,8.07546 11.75,10.04687 2.2,1.97141 4.9,3.57736 6,3.56836 1.96976,-0.0169 1.97094,-0.0358 0.0547,-1.20898 C 325.86251,371.43101 318,363.72271 318,362.36328 318,361.61354 317.19545,361 316.21094,361 c -0.98452,0 -3.77997,-1.8 -6.21094,-4 -2.43097,-2.2 -4.77642,-4 -5.21094,-4 z m -10.34179,1.08008 c -0.17814,-0.0696 -0.28486,-0.0654 -0.3125,0.0176 -0.22116,0.66348 4.08732,5.63817 9.57617,11.05468 5.48886,5.41651 10.78392,9.84766 11.76562,9.84766 1.1356,0 -2.34896,-4.02149 -9.57812,-11.05469 -5.46822,-5.32 -10.20425,-9.37834 -11.45117,-9.86523 z m -214.546879,0.0117 c 1.667361,0.0174 1.769266,0.45981 1.404297,1.85547 -0.295368,1.12949 -0.598524,1.99427 -0.671876,1.92187 -0.07335,-0.0724 -1.61273,-0.4099 -3.421874,-0.75 -4.704324,-0.88436 -4.440607,-2.56517 0.458984,-2.92187 0.944751,-0.0688 1.674682,-0.11126 2.230469,-0.10547 z M 319.5,355.05469 c -0.55,-0.008 2.6,3.31247 7,7.3789 4.4,4.06643 8.225,7.16798 8.5,6.89063 0.63339,-0.63879 -14.15221,-14.25063 -15.5,-14.26953 z M 20,356.14062 c -2.836437,10e-6 -3.120821,0.16289 -1.5,0.85938 1.1,0.47269 3.575,0.85937 5.5,0.85938 2.836437,-10e-6 3.120821,-0.16289 1.5,-0.85938 -1.1,-0.47269 -3.575,-0.85937 -5.5,-0.85938 z m 311.46289,0.36524 c -0.16246,-0.0316 -0.29026,-0.0105 -0.37109,0.0703 -0.32334,0.32334 0.28481,1.22583 1.35156,2.00586 2.73989,2.00346 3.17522,1.75958 1.05078,-0.58789 -0.7489,-0.82753 -1.54385,-1.39347 -2.03125,-1.48828 z M 288.75,360.02344 c -1.84972,-0.0555 -0.33738,1.89238 4.85938,6.26172 3.08469,2.59355 5.88478,4.71484 6.2246,4.71484 0.87946,0 -10.17706,-10.94936 -11.08398,-10.97656 z m -268.314453,2.27148 c -0.411357,0.0733 0.532592,0.31718 2.564453,0.7793 2.475,0.5629 7.425,1.39312 11,1.84375 3.575,0.45063 7.0625,0.87887 7.75,0.95117 0.6875,0.0723 1.25,-0.26109 1.25,-0.74023 0,-0.97489 -5.807034,-1.85848 -17,-2.58789 -3.386434,-0.22069 -5.153097,-0.31942 -5.564453,-0.2461 z M 148.05859,364 c -0.51754,0 -1.21867,0.45 -1.55859,1 -0.33992,0.55 0.0839,1 0.94141,1 0.85746,0 1.55859,-0.45 1.55859,-1 0,-0.55 -0.42387,-1 -0.94141,-1 z m 5.8086,0.48828 c -1.31363,0.0772 -2.19891,0.24146 -2.3418,0.47266 -0.28578,0.4624 3.48196,0.99728 8.375,1.18945 l 8.89649,0.34961 6.02734,5.75 c 5.5108,5.25759 8.25932,6.94936 8.12305,5 -0.0288,-0.4125 -2.71941,-2.94633 -5.97852,-5.63086 -3.25911,-2.68452 -5.68408,-5.27202 -5.38867,-5.75 0.2954,-0.47797 -0.95153,-0.88073 -2.77149,-0.89453 -1.81996,-0.0139 -6.33672,-0.21123 -10.03711,-0.43945 -1.85019,-0.11411 -3.59067,-0.12399 -4.90429,-0.0469 z M 179.5,365 c -3.575,0 -6.5,0.3375 -6.5,0.75 0,0.4125 2.925,0.75 6.5,0.75 3.575,0 6.5,-0.3375 6.5,-0.75 0,-0.4125 -2.925,-0.75 -6.5,-0.75 z m -108.498047,0.11914 c 0.323532,0.0341 0.739837,0.1217 1.248047,0.25977 1.2375,0.33621 5.4,0.89567 9.25,1.24414 6.177474,0.55915 7.871467,1.20591 14.410156,5.51172 4.075122,2.68351 7.577354,4.71171 7.783204,4.50585 0.36627,-0.36626 -4.258855,-4.45528 -8.873048,-7.8457 -2.312989,-1.69952 -2.304689,-1.70675 2.179688,-1.74804 3.78153,-0.0348 5.77728,0.79784 12.5,5.20703 4.4,2.88581 7.89227,5.69609 7.75977,6.24609 -0.14354,0.59585 -6.20573,1.10407 -15,1.25781 L 87.5,380.01562 78.789062,373.25781 c -7.732607,-5.99845 -10.051829,-8.37737 -7.787109,-8.13867 z m 67.011717,0.625 6.74414,4.60156 c 3.70858,2.53082 7.86719,5.50298 9.24219,6.60547 1.375,1.10249 3.0625,2.01515 3.75,2.02735 0.6875,0.0122 1.25,0.69648 1.25,1.52148 0,0.825 0.64887,1.5 1.44141,1.5 0.79254,0 1.68723,0.39766 1.98828,0.88477 0.30105,0.48711 -0.57764,1.10229 -1.95313,1.36523 -1.89291,0.36185 -2.437,0.086 -2.23828,-1.13086 0.1862,-1.14024 -0.9526,-1.90167 -3.91601,-2.62109 -2.29806,-0.55789 -5.22306,-1.97355 -6.5,-3.14649 -3.56162,-3.27156 -12.67411,-8.56696 -13.98829,-8.1289 -0.64412,0.21471 1.04284,1.67309 3.74805,3.24218 2.70521,1.56909 6.18944,3.90585 7.74414,5.19336 L 148.1543,380 h -6.08985 c -5.41785,0 -6.71921,-0.42737 -11.82617,-3.87891 -6.80298,-4.5978 -12.23647,-7.45689 -12.9043,-6.78906 -0.26422,0.26422 2.22119,2.66039 5.52344,5.32422 4.0049,3.23064 6.02802,5.59294 6.07422,7.09375 0.0381,1.2375 -0.33938,2.25 -0.83789,2.25 -0.49851,0 -0.67047,-0.9 -0.38281,-2 0.42143,-1.61155 0.0308,-2 -2.01172,-2 C 122.15181,380 120,379.02459 120,377.41602 c 0,-0.75347 -1.2375,-2.12532 -2.75,-3.04883 -7.81262,-4.77027 -10.39488,-6.55435 -10.02344,-6.92578 0.22524,-0.22525 7.24351,-0.70059 15.59766,-1.05469 z m 59.90235,0.37891 c -0.3474,-0.0143 -0.74259,0.0489 -1.10352,0.19336 -0.79773,0.31922 -0.56143,0.55746 0.60352,0.60547 1.05416,0.0434 1.64479,-0.19311 1.3125,-0.5254 -0.16615,-0.16612 -0.46511,-0.25913 -0.8125,-0.27343 z M 8,367 c -4.4,0 -8,0.42607 -8,0.94727 0,0.52225 3.5911573,0.92538 8,0.89648 4.4,-0.0289 8,-0.45688 8,-0.94922 C 16,367.40219 12.4,367 8,367 Z m 278.37109,0.14062 c -0.43393,0.005 0.51942,1.13371 3.12891,3.38282 2.2,1.89617 4.59654,3.45294 5.32617,3.46094 0.72962,0.008 -0.73592,-1.55938 -3.25781,-3.48438 -2.94172,-2.24545 -4.76334,-3.3641 -5.19727,-3.35938 z M 239.94141,372 c -0.58246,0 -0.78133,0.45 -0.44141,1 0.33992,0.55 0.81605,1 1.05859,1 0.24254,0 0.44141,-0.45 0.44141,-1 0,-0.55 -0.47613,-1 -1.05859,-1 z M 14.236328,372.60547 C 14.083984,372.63102 14,372.70225 14,372.82227 c 0,0.48007 1.0125,1.3602 2.25,1.95703 4.594453,2.21582 5.272454,1.05935 0.75,-1.2793 -1.2375,-0.63994 -2.306641,-0.9712 -2.763672,-0.89453 z m 239.474612,0.50781 c -0.39738,0.10737 -0.32374,0.7417 0.28906,1.88672 0.5887,1.1 1.72951,2 2.53516,2 1.95701,0 1.849,-0.98736 -0.28516,-2.60742 -1.27327,-0.96656 -2.14168,-1.38667 -2.53906,-1.2793 z M 4.1933594,374.47266 c -0.3385004,0.3385 0.717197,1.70427 2.3457031,3.03515 4.2697215,3.48939 5.5794745,2.9971 1.6152344,-0.60742 -1.8400058,-1.67303 -3.6224372,-2.76623 -3.9609375,-2.42773 z M 232.88281,376 c 0.55,0 1.27727,0.45 1.61719,1 0.33992,0.55 0.16719,1 -0.38281,1 -0.55,0 -1.27727,-0.45 -1.61719,-1 -0.33992,-0.55 -0.16719,-1 0.38281,-1 z M 101,384 c 0.55,0 1,0.675 1,1.5 0,0.825 -0.45,1.5 -1,1.5 -0.55,0 -1,-0.675 -1,-1.5 0,-0.825 0.45,-1.5 1,-1.5 z m 162,1 c 0.55,0 1,0.45 1,1 0,0.55 -0.45,1 -1,1 -0.55,0 -1,-0.45 -1,-1 0,-0.55 0.45,-1 1,-1 z" />
  </g>
</svg>
