<?xml version="1.0" encoding="UTF-8" standalone="no"?>
<!-- Created with Inkscape (http://www.inkscape.org/) -->

<svg
   version="1.1"
   id="svg2"
   width="364"
   height="385"
   viewBox="0 0 364 385"
   sodipodi:docname="24.png"
   inkscape:version="1.1.2 (0a00cf5339, 2022-02-04)"
   xmlns:inkscape="http://www.inkscape.org/namespaces/inkscape"
   xmlns:sodipodi="http://sodipodi.sourceforge.net/DTD/sodipodi-0.dtd"
   xmlns="http://www.w3.org/2000/svg"
   xmlns:svg="http://www.w3.org/2000/svg">
  <defs
     id="defs6" />
  <sodipodi:namedview
     id="namedview4"
     pagecolor="#505050"
     bordercolor="#eeeeee"
     borderopacity="1"
     inkscape:pageshadow="0"
     inkscape:pageopacity="0"
     inkscape:pagecheckerboard="0"
     showgrid="false"
     inkscape:zoom="1.9454545"
     inkscape:cx="181.96262"
     inkscape:cy="192.5"
     inkscape:window-width="1920"
     inkscape:window-height="1043"
     inkscape:window-x="0"
     inkscape:window-y="0"
     inkscape:window-maximized="1"
     inkscape:current-layer="g8" />
  <g
     inkscape:groupmode="layer"
     inkscape:label="Image"
     id="g8">
    <path
       style="fill:#000000"
       d="m 341.74379,383.04141 c -2.06592,-0.40073 -13.54092,-0.82169 -25.5,-0.93547 C 304.2847,381.99216 293.6,381.70553 292.5,381.46897 c -7.39919,-1.59118 -49.9169,-2.30725 -129,-2.17259 -26.4,0.045 -52.275,0.0882 -57.5,0.0961 -5.225,0.008 -14.675,-0.32423 -21,-0.73806 -13.128993,-0.85901 -29.384425,-1.611 -39.25,-1.81573 -3.7125,-0.077 -6.75,-0.41402 -6.75,-0.74884 0,-0.33482 0.96588,-1.21196 2.1464,-1.94921 1.73097,-1.081 7.392229,-1.20569 29.25,-0.6442 33.18565,0.85247 47.78606,1.0596 144.28735,2.04695 l 76.18376,0.77947 6.81624,-7.27668 c 3.74894,-4.00218 7.64794,-8.57482 8.66445,-10.16143 1.55019,-2.4196 3.6518,-3.86451 3.6518,-2.5107 0,1.86777 -6.0222,10.35316 -9.10739,12.83249 C 296.77422,372.51617 296.03358,374 298.5,374 c 0.825,0 1.5,0.45 1.5,1 0,0.55 0.9,1 2,1 1.1,0 2,-0.41425 2,-0.92054 0,-0.5063 1.31752,-1.20993 2.92783,-1.56361 1.6103,-0.35368 6.6728,-2.48083 11.25,-4.727 6.46171,-3.17095 9.83116,-4.19277 15.07217,-4.57076 7.6051,-0.5485 8.51611,-1.83386 4.42606,-6.24479 -1.27817,-1.37845 -3.16749,-3.79368 -4.19848,-5.36718 l -1.87454,-2.8609 -8.80152,0.50184 C 315.89577,350.64081 314,350.46262 314,349.41976 c 0,-1.39144 3.4753,-2.23906 10.93083,-2.66602 l 4.43083,-0.25374 -0.14285,-7 c -0.15769,-7.7277 0.0144,-7.65362 1.74233,0.75 1.10742,5.38588 1.36361,5.75 4.04548,5.75 3.66107,0 6.78226,-1.2737 10.2551,-4.18491 l 2.76172,-2.31509 -4.08953,-4.75 c -2.24924,-2.6125 -3.60451,-4.75 -3.01172,-4.75 0.5928,0 1.07781,0.34767 1.07781,0.7726 0,0.42492 1.55899,1.61217 3.46443,2.63831 3.29158,1.77263 3.59527,1.77999 6.08677,0.1475 1.44228,-0.94502 2.88585,-1.45469 3.20793,-1.13261 0.85893,0.85893 1.54689,35.21879 0.76734,38.32475 -0.52081,2.07508 -0.85967,2.33311 -1.57235,1.1973 -0.49965,-0.79632 -0.68969,-2.15257 -0.42229,-3.01389 0.2674,-0.86133 -0.0108,-4.01133 -0.61821,-7 -1.35986,-6.69104 -1.34403,-6.20734 -0.43189,-13.19744 0.81538,-6.24856 0.87409,-6.20496 -4.98173,-3.69942 -1.1,0.47066 -4.3625,1.83527 -7.25,3.03247 -4.58925,1.90276 -6.87549,3.93043 -4.43165,3.93043 0.45009,0 2.47509,1.47393 4.5,3.2754 2.73125,2.42987 3.68165,4.06781 3.68165,6.34502 0,4.6366 -2.62736,6.37958 -9.61653,6.37958 -5.496,0 -22.33384,4.74078 -24.68534,6.95028 -0.92468,0.86885 23.22723,2.46854 34.21203,2.26602 4.07559,-0.0751 7.87809,-0.60455 8.45,-1.17646 2.24771,-2.24771 3.91502,-1.16572 3.2589,2.11485 -0.34701,1.73508 -1.13336,3.76008 -1.74744,4.5 -1.18726,1.43056 -5.96153,1.5828 -12.12783,0.38672 z M -2.3515419,377.31512 C -2.7081939,376.95847 -3,375.84167 -3,374.83333 -3,373.27542 -2.1648783,373 2.559017,373 9.094223,373 8.959045,372.02641 1.9292307,368.46414 -0.7818462,367.09033 -3,365.52389 -3,364.98315 c 0,-1.66901 1.3379241,-1.13978 8.890752,3.51685 7.574936,4.67026 12.525421,5.86022 11.932572,2.86827 C 17.645496,370.47081 12.8875,367.24495 7.25,364.19968 1.6125,361.15442 -3,358.3309 -3,357.92521 c 0,-0.40569 4.572008,1.71316 10.160018,4.70857 5.680706,3.04509 10.539653,5.06655 11.02111,4.58509 0.481458,-0.48146 -3.862923,-3.29064 -9.853965,-6.37183 -5.893283,-3.0309 -10.8715974,-5.98034 -11.0629214,-6.55432 -0.4551962,-1.36558 4.5575325,-2.30233 7.1851436,-1.34271 1.1278381,0.4119 6.0400898,0.35376 10.9161148,-0.12919 7.818872,-0.77443 9.508596,-0.63748 14.312865,1.16003 2.99605,1.12097 7.902813,3.60885 10.903917,5.52864 6.291191,4.02442 7.160771,4.20284 7.598167,1.55894 C 48.356202,360.00607 51.875,356.14862 56,352.49632 67.533133,342.2848 94.498325,330 105.37953,330 c 1.51357,0 3.66091,-0.48646 4.77186,-1.08102 3.4053,-1.82246 3.28248,-0.15344 -0.14195,1.92909 -1.76887,1.07571 -5.30712,2.26787 -7.86278,2.64925 -15.11437,2.2555 -35.032455,12.30914 -45.42198,22.92672 -3.726425,3.80822 -6.614697,7.40591 -6.418382,7.99485 0.196316,0.58895 3.245209,1.93445 6.77532,2.99 3.53011,1.05555 5.846319,2.11106 5.147131,2.34557 -0.699188,0.2345 -2.624367,-0.0453 -4.278177,-0.62185 -1.653809,-0.57652 -3.590297,-0.82435 -4.303307,-0.55075 -0.71301,0.27361 -3.437638,-0.42038 -6.054729,-1.54219 C 44.975445,365.91785 42.683198,365 42.498654,365 41.532539,365 37.75,372.4527 37.75,374.35622 c 0,2.19963 -0.123841,2.21596 -17.125,2.25807 -9.41875,0.0233 -18.2956939,0.33647 -19.7265419,0.69586 -1.4308481,0.35939 -2.8933481,0.36163 -3.25,0.005 z m 39.7239129,-9.50513 c 1.982022,-6.13697 1.912766,-6.24317 -6.996076,-10.72755 -7.030143,-3.53871 -12.02846,-4.15124 -10.872808,-1.33244 1.446446,3.52809 1.80466,10.44152 0.58023,11.19826 -0.745365,0.46066 -0.947329,1.74697 -0.533299,3.3966 0.6494,2.58742 0.863812,2.65514 8.406083,2.65514 h 7.739684 z M 18,362.14922 C 18,360.36509 15.769063,355 15.027175,355 14.599729,355 12.73125,354.74197 10.875,354.4266 L 7.5,353.8532 9.860784,355.9266 C 12.827166,358.53188 12.004273,358.55299 7,356 4.8438219,354.9 2.049249,354.01616 0.7898381,354.03592 -0.6388693,354.05833 1.3204966,355.37008 6,357.524 c 4.125,1.89869 8.175,3.88106 9,4.40527 1.918006,1.21872 3,1.29805 3,0.21995 z m 163.53928,9.05673 c -0.25451,-0.25451 1.07222,-2.33597 2.94828,-4.62547 l 3.41104,-4.16271 -2.1993,-1.37969 -2.1993,-1.37968 3,-1.2841 c 1.65,-0.70625 2.55,-1.31128 2,-1.34451 -0.55,-0.0332 -0.325,-0.51176 0.5,-1.0634 1.86804,-1.24908 0.54345,-2.14472 -9.5474,-6.45566 -7.72683,-3.30099 -16.85579,-8.44087 -16.18438,-9.11229 0.23388,-0.23388 6.6084,2.50579 14.1656,6.08816 13.68928,6.48919 15.57359,7.18723 15.55793,5.7634 -0.0104,-0.94748 -5.2228,-3.88283 -20.97902,-11.8143 -13.02895,-6.55861 -13.9663,-6.64631 -13.99742,-1.30957 -0.013,2.23092 1.00052,3.15937 6.73469,6.16943 5.89274,3.09329 10.17399,4.97138 20.13869,8.83438 1.31378,0.50931 2.14497,1.16973 1.8471,1.46761 -0.29788,0.29787 -2.72279,-0.32813 -5.38869,-1.39111 -2.66591,-1.06298 -7.5471,-2.95026 -10.8471,-4.19396 -3.3,-1.24369 -7.66585,-3.32234 -9.70189,-4.61922 -2.03604,-1.29688 -3.89007,-2.0284 -4.12007,-1.62561 -0.23,0.40279 -1.02954,3.16437 -1.77675,6.13684 -1.26504,5.03238 -1.22932,5.47991 0.51878,6.5 8.78363,5.1256 16.38149,10.94906 15.90506,12.19061 -0.86095,2.24361 -4.84873,2.72903 -7.97645,0.97094 -2.84721,-1.60042 -2.84739,-1.60118 -0.34868,-1.47295 4.17515,0.21426 5,-0.0334 5,-1.50129 0,-0.83389 -2.52064,-2.25943 -6.18071,-3.49545 -8.63218,-2.91513 -10.75756,-5.11717 -10.05899,-10.42177 0.30237,-2.29602 1.12755,-5.07458 1.83374,-6.17458 0.70618,-1.1 2.21598,-6.5 3.35511,-12 1.13912,-5.5 2.97141,-13.825 4.07174,-18.5 1.10034,-4.675 2.44892,-10.71551 2.99685,-13.42334 1.00716,-4.97734 7.07744,-15.79113 7.74317,-13.79394 0.3518,1.0554 -2.408,7.22177 -3.67769,8.21728 -1.02593,0.80439 -3.78,10.68894 -6.09487,21.87498 -1.18087,5.70623 -2.37458,10.96795 -2.65269,11.69269 -0.32454,0.84574 1.76342,2.45656 5.82934,4.49722 3.48425,1.74872 11.34881,6.04951 17.47681,9.5573 6.128,3.5078 11.4155,6.37781 11.75,6.37781 0.3345,0 0.60819,-0.80164 0.60819,-1.78142 0,-1.25085 -3.71866,-3.80396 -12.4856,-8.57219 -6.86708,-3.73493 -12.7807,-7.26826 -13.14137,-7.85184 -0.70094,-1.13414 17.13772,8.04518 21.51194,11.06949 4.80217,3.32021 5.08044,3.35713 6.05156,0.8029 0.51303,-1.34938 1.21821,-3.97484 1.56706,-5.83436 0.58902,-3.13979 0.39752,-3.46743 -2.68466,-4.59327 -3.73649,-1.36483 -16.83693,-9.23788 -15.37291,-9.23875 0.52031,-3.1e-4 4.86679,2.02444 9.65884,4.49944 4.79206,2.475 9.20385,4.5 9.80399,4.5 1.80543,0 1.2343,-2.05305 -1.15885,-4.16568 l -2.25,-1.98626 2.25,0.48235 c 1.76614,0.37862 2.25,0.0356 2.25,-1.59529 0,-1.1427 -0.70385,-2.85538 -1.5641,-3.80595 -1.42808,-1.57801 -1.40676,-1.71531 0.24521,-1.57874 1.44258,0.11925 1.85715,-0.68278 2.04538,-3.957 0.22433,-3.90245 0.0377,-4.19603 -3.75541,-5.90647 -5.36424,-2.41894 -4.2543,-3.14244 1.46816,-0.95701 4.2217,1.61228 4.56663,2.01045 4.63971,5.35591 0.0762,3.48609 0.1507,3.40821 2.10416,-2.19836 4.19765,-12.04749 2.83623,-1.54885 -1.85598,14.3125 -4.45243,15.05081 -6.47513,20.40058 -9.56116,25.28802 -1.66279,2.63341 -2.85287,4.93394 -2.64461,5.11229 0.20825,0.17834 7.68797,0.84685 16.62159,1.48557 21.65011,1.54789 22.25705,1.68742 22.25705,5.11668 0,1.5139 -0.675,3.31275 -1.5,3.99744 -1.27701,1.05983 -1.5,0.79597 -1.5,-1.7749 0,-2.92332 -0.19966,-3.05402 -6.25,-4.09124 -3.4375,-0.58929 -10.975,-1.359 -16.75,-1.71046 l -10.5,-0.63902 -4.34301,3.18146 c -2.38866,1.74981 -4.08523,3.43925 -3.77015,3.75433 0.31508,0.31508 4.06943,0.47958 8.34301,0.36555 11.13471,-0.29709 32.31327,1.03549 31.71975,1.99584 -0.2765,0.44738 -7.57827,0.58073 -16.22616,0.29633 -8.64789,-0.2844 -18.53548,-0.11031 -21.97242,0.38686 -3.43694,0.49718 -6.45722,0.69572 -6.71174,0.4412 z M 75,369.34198 c 1.375,-0.28749 4.81639,-1.12041 7.647534,-1.85093 4.762339,-1.22883 8.540418,-1.20143 17.204646,0.1248 6.17575,0.94532 2.47159,1.50161 -12.495631,1.87661 C 79.185447,369.69719 73.625,369.62947 75,369.34198 Z m 51,-2.23771 c 0,-0.94711 0.71174,-2.59552 1.58164,-3.66314 1.39687,-1.71438 1.51563,-1.73222 1.01665,-0.15274 -0.37933,1.20074 0.0905,2.03087 1.42999,2.52637 1.80357,0.66718 1.70603,0.84705 -1.01665,1.87475 C 126.38864,368.67958 126,368.60406 126,367.10427 Z m 27.5,-0.0419 c -1.1,-0.446 -5.375,-1.16667 -9.5,-1.6015 -5.64479,-0.59504 -6.8816,-0.97252 -5,-1.52603 4.85278,-1.42755 10.89632,-0.95673 14.96921,1.16618 2.21693,1.15553 4.03079,2.28053 4.03079,2.5 0,0.62686 -2.3063,0.3508 -4.5,-0.53865 z m 124.88116,0.22319 C 279.57188,366.09478 300,359.16049 300,359.94702 c 0,0.86263 -3.1475,2.36112 -11.86906,5.6507 -6.10044,2.30096 -11.25531,3.19332 -9.74978,1.68779 z m -8.49954,-0.73723 c -0.24845,-0.24844 -8.25289,-0.57614 -17.78764,-0.72821 -11.86723,-0.18927 -17.84981,-0.66765 -18.96495,-1.51648 -1.35938,-1.03473 -0.63587,-1.27306 4.37097,-1.43978 17.58516,-0.58559 35.69703,1.02794 37.10466,3.30553 0.52336,0.84682 -3.90025,1.20173 -4.72304,0.37894 z M 174,365 c 0,-0.55 0.47656,-1 1.05902,-1 0.58246,0 0.7809,0.45 0.44098,1 -0.33992,0.55 -0.81648,1 -1.05902,1 C 174.19844,366 174,365.55 174,365 Z m -77.811784,-3.94546 c -2.745258,-2.17 -6.643053,-4.63557 -8.661766,-5.47904 -2.018713,-0.84347 -3.432814,-1.91799 -3.142447,-2.38781 1.15687,-1.87186 6.75118,0.25246 11.628498,4.41566 2.832949,2.41816 5.307649,4.39665 5.499349,4.39665 0.46747,0 -1.17116,-5.63973 -2.05338,-7.0672 -0.51985,-0.84113 -0.15444,-0.84046 1.42085,0.003 1.42885,0.76469 2.12068,2.10217 2.12068,4.09976 0,1.70722 0.53022,2.96321 1.25,2.96101 2.85732,-0.009 18.43999,-2.89475 20.75,-3.84308 2.42401,-0.99514 2.39361,-1.03189 -1,-1.20892 -2.88622,-0.15057 -2.40028,-0.40092 2.77107,-1.42758 8.83006,-1.7534 23.22893,-2.81414 23.22893,-1.71161 0,0.79081 -4.52605,1.58954 -15.3852,2.71507 -1.58687,0.16447 -3.16187,0.72511 -3.5,1.24586 -0.56383,0.86832 -11.46187,3.28505 -21.88696,4.85361 -2.34969,0.35353 -4.51375,1.03368 -4.80902,1.51143 -1.03503,1.67471 -3.28225,0.83464 -8.230604,-3.07681 z M 177,362 c 0,-0.55 0.92656,-1 2.05902,-1 1.13246,0 1.7809,0.45 1.44098,1 -0.33992,0.55 -1.26648,1 -2.05902,1 C 177.64844,363 177,362.55 177,362 Z m 101.5,-2 c 0.33992,-0.55 1.29531,-1 2.12309,-1 0.82779,0 3.96457,-1.125 6.97062,-2.5 3.00606,-1.375 5.83471,-2.5 6.28589,-2.5 0.45118,0 2.68394,-1.35 4.9617,-3 2.27776,-1.65 4.70778,-2.98382 5.40004,-2.96404 2.23136,0.0638 -4.23743,4.60053 -10.58077,7.42065 -3.38832,1.50637 -7.43454,3.36987 -8.99161,4.14112 -3.27263,1.621 -7.07543,1.86897 -6.16896,0.40227 z m -115.38608,-2.55352 c -6.58079,-2.38933 -8.90973,-3.86032 -7.45105,-4.70618 0.87055,-0.50482 15.33713,5.86645 15.33713,6.75466 0,0.73206 -0.80059,0.5241 -7.88608,-2.04848 z M 247,359.49638 c 0,-2.69398 5.74591,-9.66404 14.0113,-16.99638 l 2.2545,-2 -0.77849,2.5 c -0.42818,1.375 -2.6811,4.17567 -5.00649,6.22371 -2.32539,2.04804 -4.98099,5.31054 -5.90132,7.25 C 250.65917,358.41317 249.25228,360 248.45308,360 247.65389,360 247,359.77337 247,359.49638 Z m -68.5,-2.03157 c -2.50062,-1.20445 -2.58385,-1.34326 -0.5,-0.83393 2.8335,0.69256 6.0185,2.31592 4.5,2.29361 -0.55,-0.008 -2.35,-0.66494 -4,-1.45968 z m -75.02756,-1.5094 c -0.26694,-0.43192 1.09256,-2.85248 3.02111,-5.37901 1.92855,-2.52654 3.50645,-4.88097 3.50645,-5.23206 0,-0.3511 1.47728,-2.4847 3.28284,-4.74135 1.80556,-2.25664 3.84741,-5.39864 4.53744,-6.98222 0.69003,-1.58357 1.51556,-2.61827 1.8345,-2.29932 0.97015,0.97014 -5.14822,13.03202 -8.61101,16.97592 -1.78802,2.03645 -2.81713,3.70263 -2.28691,3.70263 1.29364,0 8.09921,-4.59873 11.41279,-7.71198 1.46831,-1.37954 3.20811,-2.32877 3.86621,-2.1094 1.42739,0.4758 -8.26295,8.15069 -12.53833,9.93054 -5.64619,2.35053 0.87351,2.23922 8.92991,-0.15246 4.05609,-1.20412 7.98173,-1.98549 8.72364,-1.73637 1.30114,0.43691 -2.60015,1.92175 -8.48933,3.23106 -2.32729,0.51741 -2.62395,0.88923 -1.64787,2.06533 1.01832,1.227 0.0162,1.41912 -6.93286,1.32916 -4.46777,-0.0578 -8.34164,-0.45855 -8.60858,-0.89047 z m 65.71506,-1.63852 c -2.37188,-0.83887 -4.08953,-1.7482 -3.817,-2.02072 0.61117,-0.61117 7.77523,1.61757 9.0795,2.82463 1.33148,1.23225 -0.1416,1.00722 -5.2625,-0.80391 z M 312.5,355 c 0.33992,-0.55 1.49148,-1 2.55902,-1 1.06754,0 1.94098,0.45 1.94098,1 0,0.55 -1.15156,1 -2.55902,1 -1.45136,0 -2.2915,-0.43284 -1.94098,-1 z m -42.84836,-1.79367 c -0.57681,-0.98787 1.21811,-14.27787 2.25631,-16.70633 0.47027,-1.1 0.89979,-3.35 0.9545,-5 0.10247,-3.09069 0.78589,-8.03851 3.72939,-27 1.23046,-7.92643 1.73561,-17.78159 1.80788,-35.27061 0.0868,-20.99733 0.30258,-24.23244 1.60028,-23.98751 3.78091,0.71359 1.26243,52.12888 -4.01143,81.89399 -1.03646,5.84973 -2.19269,14.03703 -2.56938,18.19399 -0.44018,4.85749 -1.16196,7.74119 -2.02002,8.07046 -0.73432,0.28178 -1.52071,0.19449 -1.74753,-0.19399 z M -2.5081746,349.01323 C -2.1637599,348.45595 -0.5272407,348 1.1285346,348 2.78431,348 7.476759,346.6105 11.556199,344.91223 19.285724,341.69442 24.095202,341.35643 18,344.45939 c -1.925,0.97998 -4.175,2.34279 -5,3.02846 -1.876654,1.55971 -16.4130549,2.9895 -15.5081746,1.52538 z M 97,345.61803 c 0,-2.475 0.45,-4.77811 1,-5.11803 0.61008,-0.37705 1,1.13661 1,3.88197 0,2.475 -0.45,4.77811 -1,5.11803 -0.61008,0.37705 -1,-1.13661 -1,-3.88197 z m 182.06768,2.57938 c -0.0938,-3.19173 2.94961,-16.48808 4.03935,-17.64741 0.55305,-0.58837 0.89297,-0.45251 0.89297,0.35692 0,1.90958 -3.0584,15.25446 -4.03201,17.59308 -0.78487,1.88527 -0.83651,1.86791 -0.90031,-0.30259 z m -145.47267,-1.43762 c 1.04775,-1.23211 2.7248,-2.85526 3.7268,-3.60699 1.00199,-0.75174 2.21096,-2.33115 2.68661,-3.5098 0.55473,-1.37463 0.88753,-1.58932 0.92819,-0.59876 0.0349,0.84933 -1.70142,3.43683 -3.85842,5.75 -4.05632,4.35001 -6.8527,5.92801 -3.48318,1.96555 z M 303.6342,338.25 c 1.47235,-12.99105 1.87519,-14.75 3.37816,-14.75 0.8292,0 1.31484,0.66391 1.09722,1.5 -0.21473,0.825 -0.87109,5.4375 -1.45858,10.25 -0.72826,5.96565 -1.48189,8.75 -2.36832,8.75 -0.99168,0 -1.14554,-1.36421 -0.64848,-5.75 z M 2,341.61282 c 7.045401,-1.56225 11.681785,-4.03485 12.520438,-6.67721 0.364196,-1.14748 0.508587,-2.20615 0.320868,-2.3526 -0.187718,-0.14645 -4.160052,-1.89377 -8.8274082,-3.88294 -4.6673562,-1.98918 -8.6423883,-4.08554 -8.8334046,-4.65859 -0.3484798,-1.04544 4.5055983,0.81622 14.0976348,5.4068 5.560934,2.66137 6.823193,2.54486 4.94865,-0.45676 -0.993818,-1.59135 -0.944854,-1.82057 0.287855,-1.34753 C 17.512496,328.0269 18,327.58008 18,326.28255 18,324.87966 15.436009,322.93482 8.630472,319.17556 3.4772314,316.329 -1.2477686,314 -1.8695281,314 -2.4912877,314 -3,313.3395 -3,312.53222 c 0,-1.75459 0.2623691,-1.65651 12.909736,4.82558 8.137837,4.17084 9.53003,4.60777 10.29969,3.23246 2.691004,-4.80856 3.776249,1.11492 1.293093,7.05795 -1.649101,3.94686 -1.661795,3.94269 5.403853,1.775 3.97235,-1.21869 1.643604,1.079 -4.656403,4.59429 -3.162483,1.76461 -6.649969,3.99523 -7.749969,4.95692 -2.863657,2.5036 -8.0816923,4.03864 -13.3992233,3.94177 L -3.5,342.83238 Z m 184.5,-3.13284 c -2.75,-1.85775 -5.45,-3.41692 -6,-3.46482 -1.23109,-0.10721 -7.30719,-5.00328 -6.21773,-5.01019 1.6689,-0.0106 15.57425,8.53564 16.62458,10.21748 1.38765,2.22199 1.56615,2.29256 -4.40685,-1.74247 z M 22,340.07258 c 0,-0.51008 1.2375,-1.85026 2.75,-2.97817 1.5125,-1.12791 3.500788,-2.77564 4.418418,-3.66161 0.91763,-0.88598 2.445447,-1.4583 3.395149,-1.27184 1.240328,0.24354 0.124939,1.53622 -3.959627,4.58904 C 22.580994,341.25157 22,341.54388 22,340.07258 Z m 103.53978,-0.008 c -0.89309,-1.44505 0.77131,-3.46066 2.40733,-2.91532 0.78035,0.26011 0.7012,0.94966 -0.25986,2.26399 -1.02623,1.40346 -1.57901,1.57112 -2.14747,0.65133 z M 257.52168,335.5 c 0.38073,-3.3 1.3191,-9.06692 2.08528,-12.81538 0.76617,-3.74845 1.39304,-8.04141 1.39304,-9.5399 0,-1.49849 0.68679,-5.36129 1.5262,-8.58401 0.83942,-3.22272 1.98702,-10.17977 2.55023,-15.4601 1.07533,-10.08165 2.91103,-18.45529 4.34111,-19.80216 0.46628,-0.43915 0.54982,0.85105 0.18565,2.8671 -0.36417,2.01606 -1.74998,12.14106 -3.07958,22.5 -2.71097,21.12133 -7.09427,44.31833 -8.66087,45.83445 -0.70969,0.68682 -0.8165,-0.87909 -0.34106,-5 z m 60.90381,2 c 0.38972,-2.2 1.03763,-6.79672 1.43982,-10.21494 0.80206,-6.81687 2.18134,-9.63604 2.05569,-4.20173 -0.11758,5.08563 -2.29331,16.63083 -3.31387,17.58467 -0.51791,0.48404 -0.59387,-0.84088 -0.18164,-3.168 z M -3,339 c 0,-0.55 0.4234424,-1 0.940983,-1 0.5175407,0 1.2190983,0.45 1.559017,1 0.3399187,0.55 -0.083524,1 -0.940983,1 C -2.2984424,340 -3,339.55 -3,339 Z m 5.5,0 C 2.1600813,338.45 2.3585237,338 2.940983,338 3.5234424,338 4,338.45 4,339 4,339.55 3.8015576,340 3.559017,340 3.3164763,340 2.8399187,339.55 2.5,339 Z m 150.56351,-6.31775 c 0.35932,-3.40024 1.19322,-8.88225 1.85312,-12.18225 0.6599,-3.3 1.67637,-8.475 2.25881,-11.5 0.58245,-3.025 1.90268,-8.079 2.93386,-11.23111 1.03118,-3.15211 3.00224,-10.41047 4.38014,-16.12969 2.93894,-12.19858 2.5986,-18.28408 -1.31137,-23.44815 -3.95774,-5.22716 -7.28712,-6.42893 -17.65425,-6.3725 -5.02069,0.0273 -9.62247,0.19183 -10.22617,0.36557 -0.60371,0.17373 -1.25515,-0.11906 -1.44765,-0.65066 -0.1925,-0.53159 1.7875,-1.57025 4.4,-2.30812 3.50981,-0.99131 4.75,-1.83319 4.75,-3.22445 0,-1.03557 -0.40784,-2.13492 -0.90632,-2.44299 -0.49847,-0.30807 -1.21784,-2.82519 -1.59859,-5.59358 -0.58498,-4.25331 -1.47095,-5.83289 -5.7163,-10.19143 -4.58953,-4.71189 -5.13491,-5.00636 -6.30601,-3.40477 -1.42936,1.95476 -2.46822,11.04408 -2.64385,23.13188 -0.10097,6.94971 -4.7214,29.7258 -6.36335,31.36776 -1.34657,1.34656 -1.51993,-1.44461 -0.46839,-7.54122 2.27648,-13.1986 2.91844,-17.92995 3.97909,-29.32654 1.61422,-17.34471 1.91195,-18.69675 4.48897,-20.38527 2.22666,-1.45897 2.58074,-1.2589 9.67301,5.4658 C 143.60762,233.2146 156.18677,243 157.60277,243 c 0.27883,0 2.50728,0.91125 4.95212,2.02501 2.44484,1.11375 5.79515,2.295 7.44514,2.625 4.50133,0.90026 3.71984,2.72072 -0.85399,1.98933 -5.11054,-0.8172 -14.79577,-5.27611 -19.12388,-8.80429 -4.98695,-4.06523 -6.18199,-3.75298 -5.41519,1.41495 0.76499,5.15571 2.34352,6.54189 8.35825,7.33977 4.74073,0.62888 14.75073,6.4966 16.05332,9.41023 0.36884,0.825 1.19626,2.51554 1.83873,3.75676 0.87868,1.69756 0.88892,3.36556 0.0414,6.73155 -0.61972,2.46113 -0.88496,5.10493 -0.58942,5.87509 0.29554,0.77017 2.91359,1.97036 5.81789,2.66709 5.84173,1.40141 16.28305,5.89269 15.50594,6.6698 -0.27227,0.27227 -3.01797,-0.44891 -6.10155,-1.60262 -7.36041,-2.75389 -9.14803,-2.64848 -11.06321,0.65233 -0.87757,1.5125 -1.33109,1.89742 -1.00782,0.85538 0.632,-2.03736 -1.92414,-5.60538 -4.01575,-5.60538 -0.6849,0 -1.80054,2.3625 -2.4792,5.25 -0.67866,2.8875 -1.77615,6.375 -2.43887,7.75 C 162.58571,296.0271 154,331.71938 154,335.76124 c 0,1.1664 -0.3577,2.3418 -0.79489,2.612 -0.43719,0.27019 -0.50091,-2.29075 -0.1416,-5.69099 z M 2.0699595,334.69822 c -2.9865222,-1.143 -4.8819728,-2.26088 -4.2121123,-2.48417 0.6698605,-0.22329 2.6633787,0.23612 4.4300405,1.02091 C 4.0545495,334.01975 6.625,335.15747 8,335.76324 c 4.388739,1.9335 -0.291681,1.09291 -5.9300405,-1.06502 z M 130.91022,331.16776 C 131.99737,329.13639 135,326.37954 135,327.41274 c 0,0.36169 -0.72675,1.76679 -1.61501,3.12244 -1.87706,2.86476 -3.95344,3.3955 -2.47477,0.63258 z m 166.72362,-4.74774 c -1.98375,-6.29304 -2.29441,-7.11204 -5.65951,-14.92002 -5.85855,-13.59347 -6.17259,-18.00193 -1.72433,-24.20556 l 3.25,-4.53251 -0.28641,-21.13096 c -0.35197,-25.9685 -3.34915,-45.39852 -9.66114,-62.63097 -1.51092,-4.125 -3.5767,-10.31924 -4.59062,-13.76498 -2.95695,-10.04898 -7.07234,-21.35601 -9.6685,-26.56416 -1.32398,-2.65603 -2.20797,-5.35603 -1.96442,-6 0.51711,-1.36728 6.65708,11.51599 10.64174,22.32914 5.62162,15.25539 13.03757,42.93692 15.40439,57.5 2.8355,17.44691 4.24634,44.47864 2.63396,50.4666 -0.58915,2.18792 -2.40719,5.44079 -4.04009,7.22858 -3.53849,3.87415 -3.56654,4.23507 -0.85639,11.0178 3.95402,9.89579 9.02903,26.76924 8.70774,28.95163 -0.21439,1.45628 -0.93717,0.21839 -2.18642,-3.74459 z M 327.77714,328 c -0.39757,-2.475 -0.81118,-8.1 -0.91914,-12.5 -0.10795,-4.4 -0.7908,-9.20672 -1.51745,-10.6816 -0.72664,-1.47488 -2.07395,-6.42488 -2.99401,-11 -2.72364,-13.54364 -10.00684,-25.40961 -17.11761,-27.88844 -3.63231,-1.26623 -4.54552,-3.56945 -0.97893,-2.46899 5.9103,1.82362 11.0913,2.45953 20.75,2.54683 5.775,0.0522 13.49106,0.42784 17.1468,0.83477 l 6.6468,0.73987 0.45723,-6.54122 c 0.4901,-7.01138 0.30683,-28.60322 -0.74518,-87.79122 -0.65621,-36.91996 -0.64418,-37.25 1.35712,-37.25 1.11056,0 2.29731,-0.45 2.63723,-1 0.34944,-0.56541 -0.47488,-1 -1.89677,-1 h -2.5148 l 0.43242,-26.25 c 0.23783,-14.4375 0.70305,-41.595919 1.03382,-60.352043 l 0.6014,-34.102044 -5.82804,-0.791638 c -4.60521,-0.62554 -74.43066,-1.022713 -82.82803,-0.471134 -1.1,0.07225 -25.85,0.105528 -55,0.07394 -29.15,-0.03158 -62.45,0.180614 -74,0.471552 -11.55,0.290939 -24.375,0.518171 -28.5,0.504961 -7.984157,-0.02557 -32.156038,0.04994 -35.5,0.110895 -1.1,0.02005 -7.192039,-0.04066 -13.537864,-0.134921 -6.345825,-0.09426 -12.654761,0.253266 -14.019859,0.772276 -1.365098,0.519009 -3.823059,0.755113 -5.462136,0.524677 C 33.841063,14.126087 30.925,13.723006 29,13.460788 27.075,13.198569 19.273207,12.92203 11.662683,12.846256 0.8318555,12.738418 -2.2911418,12.404872 -2.710856,11.311114 -3.0057777,10.54256 -3.0254519,9.692119 -2.7545766,9.421243 -2.4837012,9.150368 37.734391,8.6909274 86.618962,8.4002643 135.50353,8.1096013 177.075,7.7267771 179,7.549544 c 6.73007,-0.619632 81.73572,-1.9850243 108.5,-1.9751189 31.66514,0.011719 64.82995,0.8934242 66.23348,1.7608544 0.62607,0.3869349 1.05047,20.8089265 1.16141,55.8872325 0.0962,30.402618 0.38405,57.752488 0.63976,60.777488 0.66632,7.88245 0.60603,99.91225 -0.0678,103.5 -0.3099,1.65 -0.59608,24.73714 -0.63597,51.30476 l -0.0725,48.30477 -2.62918,-0.30477 c -2.39483,-0.2776 -2.62149,-0.68358 -2.54287,-4.55476 0.0765,-3.76879 -0.16896,-4.25 -2.16821,-4.25 -1.23999,0 -3.07883,-0.33127 -4.08631,-0.73616 -1.43088,-0.57503 -1.06825,-0.84861 1.65686,-1.25 2.26539,-0.33367 3.60599,-1.12746 3.82332,-2.26384 0.29755,-1.55585 -0.60994,-1.75 -8.17963,-1.75 -5.163,0 -8.78449,-0.43716 -9.20072,-1.11065 -0.48314,-0.78173 1.35032,-1.03549 6.19098,-0.85686 9.14128,0.33732 11.3774,0.14849 11.3774,-0.96077 0,-0.80342 -2.29768,-1.43683 -12.5,-3.44588 -1.1,-0.21661 1.15,-0.49089 5,-0.60952 8.93548,-0.27532 5.1642,-1.7708 -4.83333,-1.91664 -4.99028,-0.0728 -6.72041,-0.43682 -6.41464,-1.34968 0.50069,-1.49481 16.13258,-1.12647 19.10533,0.45019 1.86903,0.99128 4.69679,-0.47937 3.4052,-1.77097 -0.92018,-0.92017 -7.86439,-2.37853 -11.45354,-2.40536 -1.75504,-0.0131 -3.50684,-0.53492 -3.89287,-1.15954 -0.5042,-0.81581 0.88744,-1.00388 4.94098,-0.66773 4.97428,0.41251 5.64287,0.25086 5.64287,-1.36432 0,-1.31373 -0.77826,-1.8538 -2.75,-1.90835 -1.5125,-0.0418 -4.325,-0.68261 -6.25,-1.42392 l -3.5,-1.34784 3.6849,-0.0761 c 2.0267,-0.0418 4.864,0.37221 6.30512,0.92012 2.52416,0.95969 2.60675,0.87838 2.25316,-2.2181 -0.40589,-3.55433 -1.17694,-3.85586 -14.69875,-5.74809 l -6.54443,-0.91583 8.5,0.35734 c 4.675,0.19654 9.5125,0.67333 10.75,1.05954 1.60268,0.50018 2.25,0.2959 2.25,-0.71004 0,-0.88004 -1.22476,-1.49784 -3.25,-1.63938 -1.7875,-0.12492 -5.275,-0.89828 -7.75,-1.71856 l -4.5,-1.49143 6,0.55941 c 3.3,0.30767 6.675,0.65155 7.5,0.76417 0.825,0.11262 1.62748,-0.24523 1.78328,-0.79523 0.29148,-1.02895 -13.86096,-3.26068 -21.64991,-3.41403 -4.85265,-0.0955 -4.85728,-0.0748 -1.64322,7.36852 1.62915,3.77287 1.62652,3.88769 -0.0572,2.5 -1.63735,-1.3495 -1.70844,-1.23793 -0.98485,1.54551 3.88497,14.94442 5.75416,28.40347 5.35023,38.52428 -0.27998,7.015 -0.34292,7.19839 -1.02123,2.97572 z M 349,272.5 c 0,-1.375 -0.3375,-2.5274 -0.75,-2.5609 -8.29237,-0.67334 -31.25,-0.72507 -31.25,-0.0704 0,2.79198 2.85561,3.27073 29.75,4.98768 1.77164,0.1131 2.25,-0.38787 2.25,-2.35636 z m -229.34495,53 c 0.76369,-5.5717 -0.75038,-5.92576 -3.20724,-0.75 -0.97905,2.0625 -1.94099,3.26799 -2.13766,2.67887 -0.50681,-1.5182 2.51947,-8.42887 3.69113,-8.42887 0.9704,0 0.84331,-4.14498 -0.21463,-7 -0.3057,-0.825 -1.73402,-6.675 -3.17405,-13 -4.10357,-18.0241 -5.22011,-21.48695 -10.09287,-31.30215 -5.17912,-10.4323 -13.632261,-22.2814 -16.558003,-23.21 C 85.67519,243.76213 85.323505,242 87.465204,242 c 2.278829,0 8.011924,5.51328 12.995726,12.49745 4.74534,6.65 9.6298,18.4764 12.18494,29.50255 0.82845,3.575 2.11673,7.85 2.86284,9.5 1.48397,3.28173 4.16237,13.15348 5.69176,20.97801 1.04971,5.37044 0.23004,15.52199 -1.2533,15.52199 -0.50194,0 -0.63274,-2.01491 -0.29212,-4.5 z m 49.09495,2.92803 c -1.51867,-0.8239 -2.75,-2.34669 -2.75,-3.40095 0,-2.81966 1.67436,-3.3531 2.4038,-0.76583 l 0.63117,2.23875 2.00752,-2.39166 c 2.46181,-2.93289 3.76776,-2.10322 1.58799,1.00884 -1.16187,1.6588 -1.28733,2.59136 -0.47956,3.56467 1.42502,1.71704 0.0416,1.6138 -3.40092,-0.25382 z M 30.547259,328.07647 C 29.447771,326.29746 40.762334,319.87728 48.5,317.88961 c 7.409148,-1.90328 9.003235,-2.16649 8.253088,-1.36274 -0.817924,0.87637 -9.914556,4.37488 -13.503088,5.1932 -1.2375,0.2822 -2.25,0.91062 -2.25,1.39651 C 41,323.60246 40.147232,324 39.10496,324 c -1.042272,0 -2.954772,1.11723 -4.25,2.48272 -2.555424,2.69407 -3.428118,3.01694 -4.307701,1.59375 z M 337.50779,327.0126 c -0.29723,-0.48092 -0.0817,-1.15787 0.47884,-1.50433 1.20643,-0.74562 10.35686,0.48158 9.55675,1.28169 -0.95004,0.95003 -9.46923,1.13904 -10.03559,0.22264 z M 3.5,322.93889 c -3.85,-2.14933 -6.6644021,-3.91485 -6.2542268,-3.92338 C -1.56147,318.99071 13,325.87737 13,326.46627 c 0,1.23169 -2.912215,0.15038 -9.5,-3.52738 z M 192,326 c -0.90129,-0.58246 -1.02463,-0.97549 -0.30902,-0.98469 0.65504,-0.008 1.4691,0.43469 1.80902,0.98469 0.7673,1.24153 0.42112,1.24153 -1.5,0 z M 32.456342,319 c 2.181224,-18.17731 12.396343,-65.02084 15.41511,-70.68915 0.783216,-1.47064 6.402805,-15.8514 12.333072,-31.56085 C 61.074106,214.44645 64,212.75607 64,214.55723 c 0,0.60636 -8.438215,18.8547 -10.024682,21.6792 C 53.438893,237.19147 53,238.66242 53,239.50521 c 0,0.84279 -1.163687,4.7864 -2.585971,8.76357 -5.227572,14.618 -12.472568,45.70616 -15.434973,66.23122 -1.336082,9.25706 -3.572185,13.24581 -2.522714,4.5 z M 175.5,323 c -0.33992,-0.55 -0.14148,-1 0.44098,-1 0.58246,0 1.05902,0.45 1.05902,1 0,0.55 -0.19844,1 -0.44098,1 -0.24254,0 -0.7191,-0.45 -1.05902,-1 z M 335,321 c 0,-1.15252 2.40127,-1.15252 6,0 2.12378,0.68015 1.86042,0.81564 -1.75,0.90032 C 336.9125,321.95514 335,321.55 335,321 Z m -169.13922,-1.95242 -2.36078,-1.95243 4,0.61861 c 3.64819,0.5642 3.87929,0.47206 2.62756,-1.04758 C 169.31759,315.68287 169.19094,315 169.81854,315 c 1.78086,0 2.33413,1.84622 1.19252,3.97933 -1.34717,2.51721 -2.17582,2.52819 -5.15028,0.0682 z M 194.5,320 c -0.33992,-0.55 -0.16803,-1 0.38197,-1 0.55,0 1.27811,0.45 1.61803,1 0.33992,0.55 0.16803,1 -0.38197,1 -0.55,0 -1.27811,-0.45 -1.61803,-1 z m -4,-2 c -0.33992,-0.55 -0.16803,-1 0.38197,-1 0.55,0 1.27811,0.45 1.61803,1 0.33992,0.55 0.16803,1 -0.38197,1 -0.55,0 -1.27811,-0.45 -1.61803,-1 z M 13.757743,314.1271 C 8.533115,310.65475 3.4045137,308.08804 -1.25,306.61616 -2.2125,306.3118 -3,305.6187 -3,305.07594 c 0,-1.25127 12.576905,4.06691 19.078554,8.06741 2.711581,1.66846 4.676632,3.44375 4.36678,3.9451 -0.714914,1.15676 -0.0449,1.45345 -6.687591,-2.96135 z m 8.425835,1.1229 C 22.364533,313.67733 21.857817,311.97846 21,311.2818 c -1.295003,-1.05171 -1.225428,-1.22254 0.509088,-1.25 1.683219,-0.0266 2.291541,-1.28884 3.750491,-7.7818 2.072064,-9.22159 2.142615,-10.89861 0.490421,-11.65744 -0.6875,-0.31575 -0.310254,-0.34602 0.838325,-0.0673 1.893438,0.45955 2.34703,-0.4512 4.86051,-9.75923 1.524702,-5.64634 3.133323,-12.29107 3.574714,-14.76607 0.44139,-2.475 1.490229,-6.525 2.330751,-9 0.840523,-2.475 3.168733,-10.34297 5.1738,-17.48438 C 47.039228,223.44843 55.119488,206 58.04898,206 c 1.926693,0 1.9368,0.097 0.286586,2.75 -0.940798,1.5125 -2.247945,3.425 -2.904773,4.25 -0.656827,0.825 -1.500741,2.625 -1.875363,4 -0.374622,1.375 -1.048977,3.4 -1.498567,4.5 -2.893301,7.07897 -4.231051,11.06577 -6.543126,19.5 -1.43233,5.225 -3.282918,11.975 -4.112417,15 -0.829499,3.025 -2.607169,9.1 -3.950376,13.5 -1.343208,4.4 -3.112559,10.96664 -3.931892,14.59253 -0.819332,3.62589 -2.587523,9.92589 -3.929312,14 -1.341789,4.07411 -3.207694,10.21997 -4.146454,13.65747 -1.722462,6.30722 -3.844934,8.58615 -3.259708,3.5 z M 59,315.47525 C 59,314.66386 59.411402,314 59.914226,314 c 0.502824,0 2.286294,-2.2299 3.963267,-4.95532 C 67.07745,303.84408 71.168868,301 75.45034,301 c 3.792057,0 3.083848,1.80916 -1.008762,2.57694 C 70.803991,304.25935 64,309.73715 64,311.9833 c 0,0.9196 1.444509,1.08557 5.5,0.63192 3.025,-0.33837 7.975,-0.89207 11,-1.23044 3.746608,-0.41909 5.5,-0.2597 5.5,0.5 0,0.61337 0.1125,1.38882 0.25,1.72322 0.1375,0.3344 -4.7,0.72496 -10.75,0.8679 -6.05,0.14295 -12.2375,0.75821 -13.75,1.36725 -2.257684,0.90911 -2.75,0.84324 -2.75,-0.3679 z M 197.5,316 c -0.33992,-0.55 -0.16803,-1 0.38197,-1 0.55,0 1.27811,0.45 1.61803,1 0.33992,0.55 0.16803,1 -0.38197,1 -0.55,0 -1.27811,-0.45 -1.61803,-1 z m 136.3125,-0.68311 c 0.72187,-0.28887 1.58438,-0.25335 1.91667,0.0789 0.33229,0.33229 -0.25834,0.56864 -1.3125,0.52522 -1.16495,-0.048 -1.4019,-0.28494 -0.60417,-0.60416 z m -162.35816,-2.39526 c -1.95205,-2.18487 -1.9517,-2.18661 0.29566,-1.48714 3.53876,1.1014 2.71281,-1.32988 -1,-2.94362 -2.24025,-0.97371 -2.62862,-1.40291 -1.25,-1.38144 1.1,0.0171 2.9,0.39576 4,0.8414 1.31527,0.53285 2.56515,0.3153 3.65072,-0.63543 3.06506,-2.68435 2.67738,0.15543 -0.54459,3.98914 l -3.19745,3.80453 z M 181.5,314 c -0.78218,-1.2656 0.54163,-1.2656 2.5,0 1.29269,0.8354 1.26629,0.97149 -0.19098,0.98469 C 182.87898,314.99311 181.83992,314.55 181.5,314 Z m 6.75535,-1.83245 c -6.78204,-2.89711 -8.5988,-4.90565 -2.48666,-2.74916 3.95257,1.39455 11.45461,5.63107 9.73131,5.49542 -0.55,-0.0433 -3.81009,-1.27911 -7.24465,-2.74626 z M 47.69736,310.2368 c -1.032398,-5.16199 0.17708,-17.71416 2.287185,-23.7368 1.156196,-3.3 2.322414,-6.63775 2.591597,-7.41722 0.344842,-0.99855 0.802651,-1.10399 1.549738,-0.3569 0.747088,0.74709 0.613744,1.75657 -0.451383,3.41722 -0.831435,1.29629 -2.044796,4.37755 -2.696358,6.84723 -1.23774,4.69154 -1.531464,18.69094 -0.462803,22.05799 C 50.93423,312.36814 50.667797,313 49.692388,313 c -0.793314,0 -1.691076,-1.24344 -1.995028,-2.7632 z m 156.22088,0.35294 c -1.23206,-1.24229 2.62519,-26.66425 5.55173,-36.58974 1.95568,-6.63281 4.40661,-17.86252 5.01983,-23 l 0.53713,-4.5 -3.01035,6 c -1.65569,3.3 -3.01452,6.9 -3.01962,8 -0.005,1.1 -0.68151,3.28894 -1.50312,4.86431 -0.82161,1.57537 -1.49384,3.32186 -1.49384,3.8811 0,0.55924 -1.83995,5.21219 -4.08879,10.33989 -3.85703,8.79466 -3.99873,9.45166 -2.5,11.5914 0.87384,1.24757 1.53555,3.40568 1.47048,4.79581 -0.11145,2.38073 -0.155,2.35808 -0.75,-0.39001 -0.82071,-3.79052 -2.86451,-4.41544 -4.0701,-1.2445 -0.52289,1.37531 -1.71384,2.92764 -2.64655,3.44961 -2.84073,1.58975 -0.58199,3.43838 3.70199,3.02984 3.94087,-0.37582 4.43428,-0.10954 3.11766,1.68255 -1.01959,1.38779 -6.98071,5.50335 -7.9442,5.48469 -0.43477,-0.008 -0.1281,-0.43422 0.68148,-0.94621 1.29597,-0.81958 1.29597,-0.98764 0,-1.40546 -3.98673,-1.28533 -4.18839,-1.56737 -0.97197,-1.35936 4.76669,0.30826 5.01473,-1.52708 0.38477,-2.84712 -2.34167,-0.66763 -3.30898,-1.35535 -2.55862,-1.8191 0.66356,-0.4101 0.97919,-1.11338 0.70141,-1.56285 -0.27779,-0.44946 0.41924,-1.05892 1.54895,-1.35435 1.93544,-0.50613 1.96661,-0.70618 0.53987,-3.46519 -1.76876,-3.4204 -4.30973,-5.21832 -10.89904,-7.71185 -5.84061,-2.21021 -7.1491,-3.74624 -1.97843,-2.32248 4.5191,1.24435 12.87095,5.36901 13.74934,6.79026 1.18983,1.9252 2.35848,1.013 3.49872,-2.73098 0.62815,-2.0625 1.75772,-5.325 2.51016,-7.25 0.75244,-1.925 2.71606,-7.1 4.3636,-11.5 1.64754,-4.4 4.1996,-10.6175 5.67123,-13.81667 1.65412,-3.59588 2.48523,-6.81306 2.17683,-8.42639 -0.28931,-1.51341 0.0872,-3.19574 0.89616,-4.00475 C 213.37962,241.47753 214,238.88171 214,236.415 c 0,-2.44317 0.4121,-5.22353 0.91577,-6.17857 0.78476,-1.48801 3.26194,-9.04795 5.56597,-16.98643 0.90093,-3.1041 -1.81364,-2.98996 -5.64931,0.23755 -2.74394,2.30887 -3.18527,2.38963 -6.14435,1.12441 C 201.9105,211.71406 200,210.64627 200,209.75615 c 0,-0.50755 0.33961,-0.77282 0.75468,-0.58948 0.41508,0.18333 2.94791,1.20405 5.62852,2.26827 l 4.87384,1.93494 4.12148,-4.65282 c 8.15775,-9.20944 10.79978,-12.68215 10.44906,-13.73433 -0.20217,-0.6065 -1.32513,-0.16785 -2.59214,1.01255 -1.22949,1.14545 -2.23544,1.64166 -2.23544,1.10269 0,-0.53896 0.45,-1.25805 1,-1.59797 1.64056,-1.01392 1.14102,-2.93084 -1.13402,-4.35162 -1.77988,-1.11156 -2.27519,-1.10999 -2.98469,0.009 -1.17645,1.8562 -1.09699,4.09351 0.11871,3.34217 0.55,-0.33992 1,-0.16803 1,0.38197 0,1.72431 -1.72348,2.15614 -2.90819,0.72866 -0.80389,-0.96863 -0.83693,-2.15082 -0.11331,-4.05409 C 217.35617,187.933 217.26648,187 215.54047,187 c -1.92547,0 -6.68489,5.17768 -6.11836,6.65604 0.24366,0.63583 -0.38197,1.90264 -1.39027,2.81515 -3.38161,3.06031 -3.44652,-0.42908 -0.0964,-5.18194 1.74801,-2.47992 2.98073,-4.70641 2.73938,-4.94776 -0.24135,-0.24136 -1.56991,-0.15494 -2.95235,0.19203 -3.43449,0.862 -6.17314,7.97554 -5.30339,13.7754 0.55394,3.694 0.2803,4.57449 -2.29948,7.39899 -2.1022,2.30162 -2.60261,3.46499 -1.77392,4.12407 2.37637,1.88998 7.62582,4.16802 9.60466,4.16802 1.12731,0 2.04966,0.24083 2.04966,0.53518 0,0.53267 -2.774,5.059 -4.26845,6.96482 -0.43128,0.55 -2.10106,3.025 -3.71061,5.5 -1.60956,2.475 -6.21023,8.00143 -10.22371,12.28096 -6.6753,7.11781 -7.70206,7.83253 -12.04723,8.38593 -5.77207,0.73513 -6.646,-1.234 -1,-2.2532 2.0625,-0.37232 4.56746,-1.09958 5.56658,-1.61613 2.34017,-1.2099 8.18184,-7.68313 11.80071,-13.07652 1.55773,-2.32157 4.6154,-6.52422 6.79481,-9.33923 l 3.96256,-5.11819 -5.48512,-2.77521 c -6.33496,-3.2052 -6.22919,-3.23391 -17.32855,4.70352 -8.81006,6.3003 -11.93943,9.66316 -12.68617,13.63277 -0.39385,2.09363 -0.97626,2.97386 -1.57292,2.3772 -1.06041,-1.06041 0.69151,-8.84597 2.48157,-11.02812 0.803,-0.97888 0.71192,-1.56414 -0.34777,-2.23468 -0.78964,-0.49966 -1.74054,-0.91537 -2.11312,-0.92379 -1.0777,-0.0244 -4.82258,5.11592 -4.82258,6.61955 0,0.75083 -0.45,1.36514 -1,1.36514 -1.71001,0 -1.09935,-3.60398 1.08013,-6.37474 1.14408,-1.45446 1.93158,-3.06749 1.75,-3.58453 C 166.18313,218.19838 154.72438,210 152.79635,210 c -2.92387,0 -1.59417,-2.44648 1.53077,-2.81642 1.47008,-0.17403 2.67288,-0.73653 2.67288,-1.25 0,-1.49813 2.23981,-1.08891 6.48065,1.18405 6.74477,3.61497 18.09313,0.92056 23.48474,-5.57593 1.2767,-1.53833 1.16412,-1.93928 -1.01468,-3.61377 -3.15003,-2.42091 -6.14296,-2.41148 -10.75259,0.0339 -2.03397,1.079 -5.02465,2.23492 -6.64597,2.56871 -1.99537,0.41079 -2.53371,0.86282 -1.66615,1.399 2.11811,1.30907 -1.0684,2.00055 -4.97465,1.07952 -2.8494,-0.67184 -2.99952,-0.82704 -0.91135,-0.94213 l 2.5,-0.1378 -2.33997,-1.2979 c -2.13234,-1.18273 -1.8214,-1.2979 3.50432,-1.2979 5.60835,0 10.33565,-1.48064 10.33565,-3.23723 0,-0.45845 -2.5875,-0.21463 -5.75,0.54181 -3.1625,0.75643 -6.83231,1.12126 -8.15514,0.81072 -1.32283,-0.31053 -2.69584,-0.0943 -3.05113,0.48061 -0.43804,0.70877 -1.74317,0.73055 -4.05453,0.0677 -5.18548,-1.48717 -5.87536,0.51274 -0.8267,2.39658 2.7465,1.02482 3.2371,1.39737 1.3375,1.01565 -6.97061,-1.4007 -14.76843,-2.24336 -16.08488,-1.73819 -2.33288,0.89521 -1.59988,2.32906 1.19064,2.32906 h 2.60575 l -3.0202,2.82129 c -5.65184,5.27961 -10.06719,9.00984 -11.8812,10.03762 -1.72595,0.9779 -1.7172,1.0942 0.18832,2.50157 3.05731,2.25807 1.4669,2.68316 -3.6886,0.9859 -4.6101,-1.5177 -4.64486,-1.56265 -4.35509,-5.63089 0.21077,-2.95912 1.02344,-4.73005 2.91868,-6.36027 C 123.81804,205.11261 125,203.17435 125,202.04797 125,200.43911 125.64325,200 128,200 c 1.65,0 3,0.27138 3,0.60307 0,0.33169 -2.025,2.85536 -4.5,5.60815 -2.475,2.7528 -4.5,5.63142 -4.5,6.39693 0,2.1334 2.8411,1.65556 5.29775,-0.89102 1.21124,-1.25557 3.48436,-3.09518 5.05138,-4.088 2.3941,-1.51684 2.78624,-2.3439 2.45531,-5.17849 -0.2166,-1.85534 -0.20415,-3.18369 0.0277,-2.95188 0.23181,0.23181 1.69207,-0.23558 3.24502,-1.03864 1.55296,-0.80307 3.85841,-1.50942 5.12322,-1.56969 1.26481,-0.0603 0.27466,-0.50639 -2.20034,-0.99141 -2.88166,-0.56471 -4.61988,-0.52531 -4.83333,0.10956 -0.18334,0.54528 -1.35099,0.99142 -2.59478,0.99142 -1.24379,0 -4.90814,0.87315 -8.14299,1.94034 -3.23486,1.06718 -6.04977,1.77212 -6.25536,1.56653 -1.67761,-1.6776 5.60381,-4.46772 11.82646,-4.5317 4.87247,-0.0501 1.9242,-1.65103 -4.64547,-2.52253 -4.67884,-0.62067 -5.19399,-0.4722 -7.19704,2.07428 -1.49921,1.90593 -2.15919,4.15095 -2.16307,7.35794 -0.007,5.97558 -1.6176,11.67545 -3.91914,13.87165 -3.47875,3.31952 -3.4253,5.71231 0.1662,7.44084 l 3.25852,1.56827 -2.75423,1.27963 c -3.32298,1.54388 -3.66509,1.26002 -4.85293,-4.02668 -0.87122,-3.87752 -0.70875,-4.40663 2.5888,-8.43086 4.09245,-4.99429 4.23755,-6.14632 1.44822,-11.49778 -2.90773,-5.5786 -1.91219,-12.53058 2.09084,-14.60064 4.36718,-2.25835 12.53779,-2.1065 24.4793,0.45495 7.97066,1.7097 12.30812,2.1631 15.75,1.64635 7.07731,-1.06255 5.73932,-2.59059 -2.26838,-2.59059 -6.35933,0 -17.08795,-2.18893 -24.45276,-4.98903 -1.60427,-0.60994 -5.13668,-0.80378 -8.17666,-0.44869 C 116.76391,182.98141 115,182.82699 115,182.09372 115,181.49217 115.675,181 116.5,181 c 0.825,0 1.5,-0.48575 1.5,-1.07946 0,-1.4858 -6.00926,-0.13097 -8.27103,1.86477 -3.05094,2.6921 -7.72897,10.45582 -7.72897,12.82712 0,3.3403 1.81684,3.88367 3.15626,0.94396 1.80398,-3.95929 2.39256,-3.09483 2.59733,3.81469 0.15368,5.18569 -0.17158,6.69722 -1.74815,8.124 -1.89127,1.71157 -1.91417,1.67349 -0.9712,-1.61448 1.3539,-4.72076 1.36864,-4.68543 -2.65636,-6.36718 -4.91254,-2.05259 -5.06364,-2.002 -5.803773,1.94325 -0.706255,3.76466 -4.3196,7.23811 -8.486589,8.158 -4.882626,1.07788 -5.593613,1.38646 -8.41793,3.65343 -2.224059,1.78517 -2.892643,3.23161 -3.120905,6.75188 -0.359345,5.54184 -0.179673,5.24788 -2.461235,4.02682 -1.775068,-0.94999 -1.81825,-1.38105 -0.600711,-5.99652 1.633353,-6.19175 5.142339,-9.3798 12.659624,-11.50176 7.578789,-2.13932 8.322943,-3.20151 5.841335,-8.33785 C 90.894463,195.94794 90,193.39987 90,192.54831 c 0,-2.03911 -2.868908,-1.97692 -5.17739,0.11223 -1.009179,0.91329 -2.101336,1.39407 -2.427015,1.06839 -0.857088,-0.85709 2.793783,-5.57348 4.854405,-6.27118 C 89.480653,186.70248 89.573963,183 87.362344,183 c -2.2409,0 -11.589632,7.74569 -14.296578,11.84512 -2.379432,3.60344 -3.248432,3.54123 -3.653875,-0.26156 -0.197262,-1.85019 0.670621,-3.03416 3.687699,-5.03077 2.170121,-1.43612 4.72299,-3.24816 5.673042,-4.02677 C 84.748174,180.62883 91.676243,176 93.030422,176 c 0.871336,0 4.600048,-1.51734 8.286038,-3.37187 4.1148,-2.07027 8.97975,-3.62958 12.60301,-4.03951 3.24568,-0.36721 6.44667,-1.32487 7.11332,-2.12813 0.66666,-0.80327 1.61594,-1.46049 2.10953,-1.46049 0.49358,0 2.75901,-1.17517 5.03429,-2.61149 2.27527,-1.43632 4.72831,-2.69829 5.45118,-2.80439 0.72288,-0.10609 1.62735,-0.50592 2.00993,-0.88851 0.99415,-0.99415 7.80093,-0.85953 10.61377,0.20991 1.30993,0.49803 4.71414,1.15715 7.56491,1.46471 2.85078,0.30756 6.05373,1.02508 7.11767,1.59449 3.05927,1.63727 3.55766,1.20791 0.95079,-0.81909 -2.70937,-2.1067 -12.18893,-4.62666 -14.32337,-3.8076 -0.77839,0.2987 -2.01009,-0.17364 -2.73711,-1.04963 -1.19461,-1.43943 -0.61562,-1.5422 6.0155,-1.06774 5.96911,0.42708 8.11333,1.06719 11.49873,3.43264 2.28876,1.59922 4.57558,3.83674 5.08182,4.97228 0.73217,1.64233 6.59892,5.05465 7.06115,4.10703 0.0624,-0.12794 0.63048,-1.43839 1.26239,-2.91213 0.7395,-1.72465 2.86069,-3.44212 5.95248,-4.81954 4.0877,-1.82111 5.35613,-1.97653 8.51157,-1.04292 5.28416,1.56345 5.95412,3.29398 1.16136,2.99987 -6.94969,-0.42647 -8.42213,-0.003 -11.97047,3.44317 l -3.50195,3.40105 3.19499,1.59387 c 2.96567,1.47947 3.29007,1.46863 4.51971,-0.15105 1.20646,-1.58915 1.32757,-1.59613 1.35654,-0.0783 0.0175,0.91666 -0.46883,1.83354 -1.0807,2.0375 -0.61188,0.20396 0.41618,1.92896 2.28456,3.83333 1.86839,1.90438 4.31162,4.74892 5.42941,6.32121 l 2.03234,2.85871 10.74941,-0.73268 10.74942,-0.73268 -0.57024,-6.12603 C 214.24877,174.25671 213.76573,167.675 213.48897,163 c -0.29559,-4.99318 -1.40105,-11.01219 -2.67946,-14.58918 -2.12714,-5.9517 -2.13824,-6.24329 -0.49171,-12.91548 0.92651,-3.75447 1.46179,-7.04908 1.18951,-7.32136 -0.27228,-0.27228 -1.29772,0.23135 -2.27875,1.11918 -1.92342,1.74067 -8.04235,2.55799 -10.01646,1.33793 -0.66665,-0.41202 -1.2121,-1.40882 -1.2121,-2.21511 0,-0.83272 -1.31141,-1.72826 -3.03588,-2.07316 -1.66973,-0.33394 -3.66314,-1.50272 -4.4298,-2.59729 -1.21534,-1.73514 -1.80201,-1.84786 -4.579,-0.8798 -3.13938,1.0944 -5.43028,0.71178 -4.52346,-0.75548 0.93398,-1.51121 -3.44175,-7.05293 -8.70913,-11.02984 -4.80199,-3.62554 -5.53014,-4.66567 -6.53176,-9.33041 -0.9912,-4.616158 -0.84889,-6.194684 1.17867,-13.074644 2.12347,-7.205405 2.64085,-8.024344 6.53753,-10.348044 2.83784,-1.692286 4.04403,-3.012091 3.6622,-4.007144 C 177.25621,73.504109 177,72.648229 177,72.418213 177,72.188196 176.50848,72 175.90773,72 c -0.60075,0 -2.23644,-0.9 -3.63486,-2 -1.39842,-1.1 -3.35954,-2 -4.35804,-2 -0.9985,0 -2.25315,-0.782129 -2.78812,-1.738065 -0.89892,-1.606285 -1.35705,-1.530465 -6.04236,1 C 156.29602,68.767871 153.1811,70 152.16231,70 c -2.50645,0 -4.25374,2.233538 -8.21414,10.5 -1.84451,3.85 -4.13175,7.675 -5.08276,8.5 -0.95101,0.825 -3.87409,5.775 -6.49573,11 -2.62164,5.225 -6.25231,11.688 -8.06815,14.36221 -1.81584,2.67422 -3.30153,5.60347 -3.30153,6.50946 0,2.76099 -3.41316,4.22887 -6.95894,2.9928 -5.75687,-2.00686 -6.51447,-6.56089 -2.06888,-12.43633 1.6347,-2.16048 2.9847,-4.2523 3,-4.6485 0.0731,-1.89378 5.64574,-12.788127 8.65154,-16.913617 C 125.48068,87.317336 127,84.949097 127,84.603271 c 0,-0.995334 8.39395,-17.810125 10.41291,-20.859172 1.46064,-2.205876 1.61785,-3.30357 0.7877,-5.5 C 137.63018,56.734845 137.18029,54.825 137.20085,54 c 0.0205,-0.825 -0.25794,-2.205574 -0.61887,-3.067942 -1.63374,-3.903505 8.21009,-10.86493 15.42747,-10.910096 2.44181,-0.01528 3.89986,-0.647091 4.79274,-2.076826 1.11223,-1.780968 1.91072,-1.96533 5.99055,-1.383145 6.22449,0.888224 7.02725,1.779859 4.87809,5.418111 l -1.7488,2.960479 3.66111,1.529709 C 171.59675,47.311631 173.78413,48 174.44399,48 c 0.65985,0 3.19239,0.637956 5.62787,1.417679 2.43548,0.779723 9.15314,2.900095 14.92814,4.711936 5.775,1.811842 12.975,4.75363 16,6.537307 3.025,1.783677 7.525,4.357062 10,5.718632 2.475,1.36157 7.49567,5.319327 11.15704,8.795014 3.66138,3.475688 7.53261,6.994432 8.60275,7.819432 1.07013,0.825 2.46507,2.48872 3.09986,3.697155 0.63478,1.208436 2.83855,4.152029 4.89725,6.541319 2.05871,2.38929 4.49605,5.900566 5.41632,7.802846 3.9331,8.13 6.94957,14.97428 7.34005,16.65431 0.23066,0.9924 2.00551,6.30437 3.94411,11.80437 1.9386,5.5 3.52876,11.4625 3.53368,13.25 0.005,1.7875 0.46903,3.25 1.03136,3.25 1.72471,0 11.81294,11.1192 16.50292,18.18944 2.44055,3.67919 4.88136,8.40419 5.424,10.5 0.54265,2.09581 2.41346,7.86056 4.15736,12.81056 2.87565,8.16242 6.55144,22.87026 8.99714,36 0.51225,2.75 1.59469,7.925 2.40543,11.5 2.46919,10.88799 4.49315,22.53962 4.44684,25.59978 -0.0421,2.77814 -0.10112,2.73979 -1.40324,-0.91109 -1.86785,-5.23705 -4.90126,-18.5138 -8.03975,-35.18869 -1.44927,-7.7 -3.10128,-16.025 -3.67114,-18.5 -3.27013,-14.20274 -12.66306,-37.74132 -12.7694,-32 -0.0526,2.84129 2.48939,15.3506 6.40112,31.5 3.96217,16.35762 6.52677,32.17361 6.40502,39.5 l -0.10801,6.5 -1.27287,-8 c -0.70008,-4.4 -2.00539,-11.375 -2.90069,-15.5 -1.52663,-7.03375 -3.5052,-17.16164 -8.49809,-43.5 -3.228,-17.0282 -4.67023,-21.25941 -9.28545,-27.2416 -5.57175,-7.22203 -8.12429,-8.8935 -11.34231,-7.42728 -2.20513,1.00473 -2.51072,0.86 -3.09438,-1.46548 -0.39898,-1.58966 -0.18056,-2.86896 0.5689,-3.33216 3.78396,-2.33861 -5.16357,-31.2734 -13.44582,-43.48149 -4.99168,-7.35777 -24.98625,-28.403896 -29.05183,-30.57973 -2.14446,-1.147677 -3.08731,-1.014776 -7.51575,1.059391 -2.78502,1.304433 -5.27385,2.71178 -5.53074,3.127435 -0.25689,0.415656 0.78514,1.430883 2.31562,2.256061 4.79375,2.584607 10.8927,8.457734 9.66748,9.30953 -0.61337,0.426428 -1.44809,1.841064 -1.85494,3.143636 -0.55167,1.766264 -0.39528,2.254772 0.61522,1.921672 0.74522,-0.245652 1.49874,-1.423893 1.67449,-2.618313 0.34691,-2.357576 1.64661,-2.844464 2.76453,-1.035633 0.40723,0.65892 -1.05056,2.660426 -3.47106,4.765662 l -4.17317,3.629623 4.53192,1.051455 c 3.92338,0.91027 4.49809,0.841028 4.28007,-0.515662 -0.15749,-0.98003 1.41971,-2.410032 4.21005,-3.817117 C 232.69619,90.862632 236,90.348859 236,92 c 0,0.55 -1.2375,1.014312 -2.75,1.031803 -2.59161,0.02997 -6.25,1.959879 -6.25,3.297055 0,0.334605 0.7875,0.336956 1.75,0.0052 1.40891,-0.48559 1.36049,-0.300502 -0.24843,0.949623 -2.32586,1.807189 -2.25215,1.903169 2.91886,3.800429 2.15623,0.79114 4.10303,1.98626 4.32622,2.65583 0.24548,0.73643 -1.6985,0.29176 -4.92042,-1.12552 -2.92943,-1.28861 -7.94162,-2.66487 -11.1382,-3.05839 -3.72533,-0.45859 -6.01789,-1.252083 -6.38553,-2.210145 -0.36262,-0.944963 -1.3543,-1.298741 -2.69634,-0.96191 -1.16753,0.29303 -2.73553,0.154081 -3.48445,-0.308776 -1.09116,-0.674376 -0.99018,-1.057385 0.50831,-1.927982 1.73724,-1.009307 1.70608,-1.088583 -0.43904,-1.116833 -1.26996,-0.01673 -2.04495,-0.457672 -1.72221,-0.979883 1.22926,-1.988976 -7.45732,-2.315554 -20.84604,-0.783723 -13.12302,1.501433 -17.19061,2.646162 -14.75388,4.152141 0.57371,0.354574 2.69288,-0.04463 4.70926,-0.887132 C 178.72584,92.798779 183.4379,92.482449 182.5,94 c -0.33992,0.55 -1.836,1 -3.32462,1 -3.36094,0 -9.57611,3.233448 -9.96344,5.18348 -0.15843,0.79765 2.31657,3.93584 5.5,6.97376 3.18343,3.03792 6.55463,6.94533 7.49155,8.68313 2.18154,4.04632 5.01139,4.07097 7.86142,0.0685 2.30384,-3.23545 2.3066,-3.23572 9.93509,-0.99084 3.31203,0.97465 3.21572,1.01217 -1.79321,0.69862 -4.40306,-0.27563 -5.53117,0.008 -6.70829,1.68898 -2.03144,2.90029 -0.85324,3.9292 2.50859,2.19072 1.59147,-0.82298 3.59094,-1.49633 4.44325,-1.49633 2.54487,0 1.75322,2.73209 -0.99124,3.42091 -3.07442,0.77163 -2.30359,2.57909 1.09992,2.57909 1.74957,0 2.44098,0.54978 2.44098,1.94098 0,3.00528 1.61413,3.34792 7.13425,1.51443 4.91193,-1.63148 5.06934,-1.79957 4.51645,-4.8229 -0.31507,-1.72288 -0.86786,-4.14501 -1.22841,-5.38251 -1.0352,-3.55304 1.14558,-2.64758 3.58622,1.489 2.11021,3.57653 2.14035,3.95672 0.69369,8.75 -3.89944,12.92012 -3.15617,16.69119 3.06555,15.55347 6.88353,-1.25874 13.80576,-5.82659 17.686,-11.67067 3.25412,-4.90105 5.54625,-6.75328 5.54625,-4.48181 0,0.4895 -2.05065,3.6756 -4.557,7.08024 -3.59719,4.88644 -5.70943,6.6999 -10.02851,8.61001 -3.00934,1.33087 -7.08183,2.41976 -9.04999,2.41976 -3.00424,0 -3.46776,0.28082 -2.88854,1.75 1.08207,2.74462 2.41486,19.21733 2.0025,24.75 -0.45483,6.10243 2.42194,10.95168 8.53528,14.38757 3.8043,2.13813 5.20442,4.11243 2.91644,4.11243 -0.58841,0 -3.06341,-1.37162 -5.5,-3.04804 C 219.98525,184.58179 219,184.2583 219,185.49741 c 0,1.70161 3.03452,5.04813 6.80311,7.50259 2.26661,1.47622 2.27576,1.55548 0.57771,5 -0.94898,1.925 -2.77288,4.89248 -4.05312,6.59439 -2.87414,3.82082 -2.89709,4.40561 -0.17286,4.40561 2.83774,0 9.53613,-7.11326 11.90716,-12.64464 1.02681,-2.39545 2.27404,-4.35536 2.77162,-4.35536 2.20207,0 3.05191,22.93508 1.07831,29.10078 -0.59844,1.86957 -1.28819,4.03697 -1.53278,4.81644 -0.31692,1.00995 -0.75337,1.10856 -1.51876,0.34317 -0.7654,-0.7654 -0.6259,-2.8969 0.48543,-7.41722 1.64209,-6.67916 2.55025,-20.28043 1.42901,-21.40168 -0.36262,-0.36261 -2.03044,1.52721 -3.70627,4.19961 -1.67584,2.67239 -4.59439,5.9839 -6.48568,7.3589 -3.36105,2.44355 -4.73172,5.55596 -5.94524,13.5 -0.25205,1.65 -1.36115,6.375 -2.46467,10.5 -1.19539,4.46844 -1.64258,7.87726 -1.10635,8.43333 1.13823,1.18033 1.24751,1.04377 3.74747,-4.68333 1.1404,-2.6125 2.5969,-4.75 3.23667,-4.75 0.71118,0 0.88777,0.68006 0.45441,1.75 -3.9,9.62879 -6.0584,15.84951 -7.54659,21.75 -0.97103,3.85 -2.9828,11.5 -4.47062,17 -4.53732,16.77314 -6.48896,25.43616 -7.25533,32.20527 -0.40295,3.55908 -0.99442,6.2071 -1.31439,5.88447 z m -27.75157,-87.5129 c 0.18333,-0.50774 5.17083,-4.34476 11.08333,-8.52672 10.48436,-7.41567 11.80688,-8.7789 9.75,-10.05012 -1.57414,-0.97287 -1.18816,-3.50944 0.43901,-2.88503 1.04603,0.4014 1.60231,-0.49471 2.03702,-3.28139 0.32891,-2.10847 1.01674,-5.3857 1.52851,-7.28273 0.51177,-1.89703 0.83262,-3.53722 0.71298,-3.64487 -0.11964,-0.10764 -2.97965,-0.46233 -6.35559,-0.78818 -6.60366,-0.6374 -7.4181,-0.23047 -9.26588,4.62957 -1.51854,3.99407 0.57067,4.47702 2.37212,0.54835 1.43131,-3.12146 1.45537,-1.96322 0.0603,2.90229 -0.50221,1.75151 -0.0105,2.51848 2.42065,3.77568 1.67799,0.86772 3.03601,1.90361 3.01783,2.30199 -0.0182,0.39838 -2.60568,1.96277 -5.75,3.47643 -3.14432,1.51367 -7.18803,3.69761 -8.98602,4.8532 -3.37692,2.17039 -11.10269,2.74067 -17.6493,1.3028 -2.50853,-0.55097 -1.71683,0.38303 4.70091,5.54584 4.24461,3.41461 7.71747,6.62186 7.71747,7.12722 0,1.1966 1.73429,1.19314 2.16667,-0.004 z M 121,191.69019 c 2.23758,-0.57393 5.24081,-0.49962 8.32629,0.20604 4.86362,1.11231 17.45761,1.55433 16.48175,0.57847 -0.4572,-0.45719 -11.58737,-2.61554 -21.58048,-4.18485 -3.89242,-0.61126 -8.91433,1.25635 -10.28998,3.82678 -0.54229,1.01328 -0.69856,2.9875 -0.34727,4.38716 l 0.63871,2.54483 1.63549,-3.23034 c 1.15398,-2.2793 2.66593,-3.49465 5.13549,-4.12809 z m -25.88438,1.21163 C 93.77936,189.06862 93.658701,185 94.881285,185 c 0.484707,0 1.391186,2.025 2.014398,4.5 0.623217,2.475 1.515497,4.5 1.982857,4.5 0.46736,0 1.64603,-2.1375 2.61928,-4.75 0.97324,-2.6125 2.68615,-5.76073 3.80646,-6.99606 1.12032,-1.23533 1.77863,-2.50436 1.46293,-2.82007 -0.31571,-0.3157 -3.77366,-0.25873 -7.68433,0.12662 -6.539914,0.64443 -7.161866,0.90603 -7.75293,3.26102 -1.016887,4.0516 2.672183,15.50969 4.428171,13.7537 0.260215,-0.26021 -0.02891,-1.91324 -0.642501,-3.67339 z M 167,194.78321 C 167,194.35245 166.46,194 165.8,194 c -0.89519,0 -0.91169,-0.28831 -0.0649,-1.13507 0.84675,-0.84675 2.28005,-0.84675 5.64282,0 2.47926,0.62429 6.10848,1.13507 8.06493,1.13507 3.03056,0 3.55718,-0.33574 3.55718,-2.26787 0,-1.24732 1.10237,-3.89014 2.44971,-5.87293 l 2.4497,-3.60507 -2.1997,-1.94245 c -3.93634,-3.47597 -7.16013,-5.04606 -11.72092,-5.70847 -6.88073,-0.99936 -8.89441,-0.91813 -10.51158,0.424 -1.30818,1.08569 -1.27512,1.3987 0.2717,2.57264 1.67504,1.27124 1.67229,1.3381 -0.0563,1.36835 -1.35763,0.0238 -1.6568,0.53775 -1.18261,2.0318 0.34913,1.1 0.19195,2 -0.34928,2 -0.54123,0 -1.15612,-0.5162 -1.36643,-1.14712 -0.27236,-0.81708 -1.89735,-0.64391 -5.64811,0.60189 -5.36283,1.78124 -8.5958,1.43088 -3.76043,-0.40753 3.33008,-1.2661 8.62425,-5.13513 8.62425,-6.30269 0,-1.36094 -4.06296,0.23011 -8.70279,3.408 C 146.66912,182.32242 141,183.95889 141,182.125 c 0,-0.61875 1.10934,-1.125 2.4652,-1.125 1.35587,0 3.9846,-1.33404 5.84163,-2.96454 4.53644,-3.98304 7.00835,-4.79442 17.1015,-5.61337 11.73021,-0.95179 11.36369,-3.30786 -0.5634,-3.62166 -4.46743,-0.11754 -6.72849,0.53413 -13.1108,3.77877 -18.11951,9.21156 -16.35425,8.59151 -19.96535,7.0129 l -3.26878,-1.42895 3.07186,-0.0816 c 4.41245,-0.11717 12.01309,-2.90261 18.84645,-6.90673 3.25506,-1.90736 7.98006,-4.0755 10.5,-4.81809 l 4.58169,-1.35017 -4.59093,0.45578 c -2.52502,0.25067 -5.00002,0.0668 -5.5,-0.40863 -1.06926,-1.01672 -10.53209,0.87244 -18.40907,3.6752 -8.63659,3.07305 -12.19665,4.10298 -16.5,4.7735 l -4,0.62324 3,-1.46697 c 1.65,-0.80683 9.44735,-3.38521 17.32745,-5.72973 11.02541,-3.28033 13.93171,-4.48425 12.61033,-5.22373 -2.76764,-1.54885 -12.75341,-0.003 -17.55705,2.71828 -8.44318,4.78273 -12.43415,6.38439 -18.82492,7.55486 -3.54431,0.64913 -7.33201,1.8021 -8.41713,2.56214 -1.91814,1.34353 -1.90011,1.40959 0.64934,2.37889 1.44226,0.54834 4.83162,0.73532 7.53192,0.41551 3.14751,-0.37278 5.15881,-0.17832 5.60387,0.5418 0.38182,0.61781 1.92252,1.12328 3.42377,1.12328 1.50124,0 4.39357,0.84837 6.4274,1.88528 7.67014,3.91046 16.31235,5.54099 23.84808,4.49943 3.82032,-0.52802 7.31312,-0.71809 7.76178,-0.42238 1.00835,0.66461 3.40028,5.10991 2.94618,5.47535 -0.18206,0.14651 -4.10726,1.22171 -8.72267,2.38933 -4.61541,1.16763 -8.63734,2.36865 -8.93764,2.66894 -0.30029,0.3003 4.26345,0.439 10.14165,0.30823 C 162.19056,195.67342 167,195.21398 167,194.78321 Z m -40.5,-19.49072 c 0.55,-0.52978 4.6,-1.95691 9,-3.17139 4.4,-1.21449 10.37867,-3.1474 13.28594,-4.29536 7.04287,-2.78094 7.89342,-1.57228 1.08595,1.54318 -9.37223,4.28924 -26.06828,8.52082 -23.37189,5.92357 z M 121.08617,113.25 c 1.78002,-3.1625 5.44065,-9.8 8.13474,-14.75 2.69409,-4.95 6.86856,-12.15 9.27658,-16 2.40803,-3.85 5.70073,-9.25 7.31711,-12 1.61638,-2.75 3.92102,-6.657387 5.12143,-8.683083 l 2.18256,-3.683083 -2.18955,-1.171808 c -3.68492,-1.972113 -6.49633,2.005512 -19.31985,27.334042 -1.89242,3.737838 -3.88604,7.337838 -4.43025,8 C 125.69633,94.099982 114,116.95907 114,118.05272 c 0,0.521 0.8662,0.94728 1.92489,0.94728 1.30145,0 2.97311,-1.86235 5.16128,-5.75 z m 76.2363,-24.605605 c 11.15885,-0.125661 12.98956,0.08266 14.11025,1.605605 0.70827,0.9625 1.74958,1.75 2.31402,1.75 1.46666,0 2.22643,-6.336586 0.87579,-7.304151 -1.68829,-1.209444 -34.64625,-0.165772 -38.04103,1.204637 -2.96706,1.197743 -5.72308,4.061413 -5.01358,5.209409 0.21481,0.347574 3.21241,-0.03248 6.66132,-0.844576 3.55743,-0.83764 11.819,-1.539008 19.09323,-1.620924 z M 176.79912,83.98109 c 2.88804,-1.760808 5.0997,-2.019242 17.75,-2.074104 7.94798,-0.03447 14.43674,-0.365142 14.41946,-0.734829 -0.0173,-0.369686 -1.25479,-1.572157 -2.75,-2.672157 -2.29099,-1.685428 -4.29144,-2 -12.71858,-2 -9.11111,0 -10.53333,0.266667 -16,3 -3.35224,1.676119 -6.14268,3.772264 -6.32332,4.75 -0.42561,2.303617 1.55869,2.208712 5.62244,-0.26891 z m 15.87854,-10.872727 c 6.39843,-0.477163 8.79173,-1.102311 11,-2.873289 1.55229,-1.244892 3.83484,-2.77929 5.07234,-3.409772 3.3296,-1.696368 2.7986,-2.549347 -2.82264,-4.534178 C 203.1374,61.306006 200.00622,59.7125 198.96917,58.75 197.93212,57.7875 196.34227,57 195.43616,57 c -3.12552,0 -13.93304,-3.185937 -14.62934,-4.312564 -0.81097,-1.312182 -0.55006,-1.567134 -4.74116,4.632839 -1.79214,2.651152 -3.48115,4.597564 -3.75336,4.325361 -0.76853,-0.768535 0.64796,-4.463036 2.37226,-6.187335 2.02134,-2.021339 0.88112,-3.164247 -1.34762,-1.350802 -1.49253,1.214415 -1.63425,1.186211 -1.10811,-0.220536 0.43163,-1.154068 -0.58211,-2.292218 -3.56277,-4 -8.18258,-4.688246 -9.12642,-4.89335 -12.65194,-2.749356 -2.07246,1.26034 -3.61283,1.621154 -4.35949,1.021163 -1.87378,-1.505713 -7.03684,-2.2308 -8.62567,-1.211369 -2.08408,1.337197 -0.90191,2.100979 4.00786,2.589424 4.31057,0.428832 5.73375,1.025941 4.76182,1.997866 -0.29408,0.29408 -2.50658,0.0894 -4.91666,-0.454837 -3.48603,-0.787207 -4.68137,-0.692069 -5.84627,0.465309 -1.28571,1.277418 -1.28571,1.463658 0,1.527171 6.73741,0.332818 15.96565,1.944334 15.95999,2.787072 -0.002,0.352327 -1.79546,3.003094 -3.98465,5.890594 L 149.03071,67 h 3.31033 c 2.23805,0 4.0711,-0.809797 5.65896,-2.5 1.29175,-1.375 3.28269,-2.502772 4.42431,-2.506161 1.14163,-0.0034 3.32718,-0.658958 4.85677,-1.456821 2.72156,-1.419615 2.77507,-1.39418 2.5,1.188475 -0.2272,2.133219 0.54057,3.196607 4.00509,5.547213 2.3574,1.599442 5.01146,4.015003 5.89792,5.367912 1.08985,1.663322 2.13052,2.236045 3.21383,1.768714 0.88114,-0.380117 5.28203,-0.965553 9.77974,-1.300969 z m 22.69505,-5.314325 c -1.09072,-1.76482 -4.60877,-0.601167 -8.1374,2.691577 l -3.73531,3.485616 6.18173,-2.691577 c 3.39994,-1.480368 5.96089,-3.048895 5.69098,-3.485616 z M 144.47185,56.161603 c -2.19239,-0.455604 -2.86109,0.385331 -2.02397,2.545269 0.65371,1.686695 0.78273,1.674416 2.17365,-0.206872 1.31878,-1.783698 1.30259,-2.036598 -0.14968,-2.338397 z M 154,43.5 c -1.35708,-1.63518 -4.56429,-2.014017 -5.4138,-0.63948 -0.84189,1.362206 0.50338,2.13948 3.70291,2.13948 2.51398,0 2.7697,-0.224206 1.71089,-1.5 z m 10.75854,-1.275618 c 0.44206,-1.326168 -4.12331,-2.73501 -5.7017,-1.759508 -1.74487,1.078388 -1.1992,2.369063 1.19316,2.822161 2.99432,0.567107 4.04808,0.318737 4.50854,-1.062653 z M 16,309 c -0.825,-0.53316 -1.05,-0.96937 -0.5,-0.96937 0.55,0 1.675,0.43621 2.5,0.96937 0.825,0.53316 1.05,0.96937 0.5,0.96937 -0.55,0 -1.675,-0.43621 -2.5,-0.96937 z m 39,-1.29176 c 0,-1.32539 0.394525,-3.71444 0.876722,-5.30902 0.482198,-1.59457 1.914089,-6.49922 3.181982,-10.89922 1.267892,-4.4 2.673367,-8.4275 3.123278,-8.95 C 62.631892,282.0275 63,280.84168 63,279.91483 63,276.34069 66.33806,268 67.768485,268 c 1.915491,0 1.162099,3.02138 -4.488371,18 -3.500049,9.27815 -5.319599,15.0805 -5.860791,18.68943 C 56.707954,309.43317 55,311.56434 55,307.70824 Z M 186,308 c 0,-1.17371 0.76862,-1.17371 3.5,0 1.77225,0.76156 1.68684,0.86743 -0.75,0.92971 C 187.2375,308.96837 186,308.55 186,308 Z M 12.901242,303.61519 C 9.271925,301.90184 4.2094245,299.66793 1.6512416,298.65094 -0.9069413,297.63396 -3,296.2602 -3,295.59814 c 0,-0.68248 4.4387403,1.02112 10.25,3.93397 5.6375,2.82574 10.925,5.3754 11.75,5.6659 0.825,0.2905 1.275,0.75412 1,1.03028 -0.275,0.27615 -3.469441,-0.89975 -7.098758,-2.6131 z M 125,303.74166 c 0,-3.10475 7.02417,-13.58745 12.46529,-18.6029 3.39952,-3.13357 5.28479,-4.12904 7.76237,-4.09872 l 3.27234,0.04 -3,1.57337 c -6.48456,3.40088 -18.5,17.49471 -18.5,21.70006 0,0.90557 -0.45,1.64649 -1,1.64649 -0.55,0 -1,-1.01625 -1,-2.25834 z m 54.49252,-0.76718 c -0.18319,-0.28904 0.70971,-1.52918 1.98424,-2.75586 1.85123,-1.78176 2.79057,-2.04079 4.67028,-1.28787 1.73406,0.69458 1.89266,0.95915 0.60296,1.00586 -2.22399,0.0806 -2.22611,0.99476 -0.006,2.6181 1.50416,1.09986 1.14843,1.25252 -2.58719,1.11024 -2.38213,-0.0907 -4.48102,-0.40143 -4.66422,-0.69047 z M 101.45,302.07109 c -1.62544,-1.58935 -11.391939,-6.19101 -13.472308,-6.34772 -3.426828,-0.25814 -2.256828,-2.72671 1.272308,-2.68444 3.863731,0.0463 14.1084,5.86804 14.5732,8.28154 0.35322,1.83411 -0.86957,2.22087 -2.3732,0.75062 z M 211.02196,300.75 c 0.0405,-2.30595 3.86751,-9.75 5.01248,-9.75 0.62273,0 0.96271,0.3375 0.75551,0.75 -0.20719,0.4125 -1.3537,2.8875 -2.54779,5.5 -2.15058,4.70514 -3.26261,5.91379 -3.2202,3.5 z m -89.99891,-0.58405 c -0.0127,-0.73373 1.64821,-5.57123 3.69086,-10.75 3.51956,-8.92321 5.32952,-11.56571 5.25073,-7.66595 -0.0421,2.08634 -8.90823,20.34676 -8.94159,18.41595 z M 10,297.37651 C 2.7669601,294.96713 -0.8771031,293 1.8926303,293 c 1.785467,0 16.3887587,5.12169 17.5573697,6.15775 1.627987,1.44334 -1.591453,0.8365 -9.45,-1.78124 z m 175.66667,-3.04318 C 185.3,293.96667 185,293.20167 185,292.63333 c 0,-0.6266 0.46577,-0.56756 1.18333,0.15 0.65084,0.65084 0.95084,1.41584 0.66667,1.7 -0.28417,0.28417 -0.81667,0.21667 -1.18333,-0.15 z M 117.01082,293.25 c 0.0211,-1.46284 3.04457,-10.79668 4.49651,-13.88136 0.81065,-1.72225 2.38753,-5.09725 3.50418,-7.5 1.94201,-4.17872 2.00802,-4.22388 1.51842,-1.0388 -0.28153,1.8314 -1.15105,4.7564 -1.93227,6.5 -0.78122,1.74359 -2.39697,6.20766 -3.59056,9.92016 -1.19359,3.7125 -2.58347,6.75 -3.08863,6.75 -0.50516,0 -0.9136,-0.3375 -0.90765,-0.75 z m 133.75373,-0.81878 c -0.33574,-0.33575 0.71189,-2.93262 2.32807,-5.77083 5.40998,-9.50058 8.6028,-17.08597 11.39816,-27.07931 3.20079,-11.44277 7.74518,-22.01574 8.30024,-19.31134 0.36807,1.79331 -2.44742,12.09791 -5.80067,21.23026 -1.00976,2.75 -2.56156,7.025 -3.44846,9.5 -2.4342,6.79296 -9.89741,21.40755 -11.10439,21.74479 -0.58438,0.16328 -1.3372,0.0222 -1.67295,-0.31357 z M 6.374345,289.67192 c -5.8417546,-2.07126 -9.8946346,-4.48496 -9.0123005,-5.3673 0.3862621,-0.38626 18.6593655,6.42894 19.5546225,7.29316 1.179709,1.13881 -5.170621,-0.0213 -10.542322,-1.92586 z m 320.292325,0.66141 C 326.3,289.96667 326,289.20167 326,288.63333 c 0,-0.6266 0.46577,-0.56756 1.18333,0.15 0.65084,0.65084 0.95084,1.41584 0.66667,1.7 -0.28417,0.28417 -0.81667,0.21667 -1.18333,-0.15 z M 19.5,288 c -0.782182,-1.2656 0.541628,-1.2656 2.5,0 1.292687,0.8354 1.266292,0.97149 -0.190983,0.98469 C 20.878976,288.99311 19.839919,288.55 19.5,288 Z m 318.76903,-1.69299 c 0.97297,-0.25354 2.32297,-0.23687 3,0.0371 0.67703,0.27393 -0.11903,0.48137 -1.76903,0.46099 -1.65,-0.0204 -2.20394,-0.2445 -1.23097,-0.49804 z M 97.49666,277.75 c -1.492128,-2.8875 -3.506662,-6.15 -4.476746,-7.25 -3.225776,-3.65778 -7.321767,-10.53148 -6.666253,-11.18699 0.355487,-0.35549 0.7635,-0.45884 0.906696,-0.22968 0.143197,0.22917 1.640057,2.21667 3.326356,4.41667 3.156241,4.11773 9.197917,13.36054 11.296717,17.28219 0.96866,1.80995 0.92388,2.21781 -0.24344,2.21781 -0.78671,0 -2.65121,-2.3625 -4.14333,-5.25 z m 97.70166,-2.5 c 3.13185,-8.02814 11.30539,-31.48853 12.80359,-36.75 0.46984,-1.65 1.33227,-4.35 1.91651,-6 0.90929,-2.56796 0.96935,-2.27994 0.41706,2 -0.35487,2.75 -0.7862,6.125 -0.95852,7.5 -0.42391,3.38246 -15.5264,41 -16.46047,41 -0.40784,0 0.61898,-3.4875 2.28183,-7.75 z m 131.61418,3.06689 c 0.72187,-0.28887 1.58438,-0.25335 1.91667,0.0789 0.33229,0.33229 -0.25834,0.56864 -1.3125,0.52522 -1.16495,-0.048 -1.4019,-0.28494 -0.60417,-0.60416 z M 130.00558,276.25 c 0.0179,-2.40618 2.25488,-8.25 3.15806,-8.25 0.6492,0 0.79552,0.88438 0.37226,2.25 -0.38355,1.2375 -0.9385,3.2625 -1.23321,4.5 -0.49084,2.06102 -2.31012,3.249 -2.29711,1.5 z M 113,263 c 0,-1.1 0.40787,-2 0.90638,-2 0.49851,0 0.67103,0.9 0.38337,2 -0.28766,1.1 -0.69553,2 -0.90638,2 C 113.17252,265 113,264.1 113,263 Z m 1.10051,-5 c -0.0341,-0.825 0.56415,-3.75 1.32936,-6.5 1.32023,-4.74461 1.39356,-4.82123 1.43561,-1.5 0.0424,3.34869 -2.63695,11.10093 -2.76497,8 z m -55.533685,-4.89187 c -0.870996,-1.40931 4.216531,-15.71727 7.794797,-21.92179 1.361237,-2.36031 2.219895,-3.00482 2.984527,-2.24019 0.764632,0.76463 0.607596,1.86214 -0.545828,3.81473 -2.898756,4.90721 -5.799301,13.65368 -5.799817,17.48912 -4.09e-4,3.04515 -0.36533,3.75 -1.941487,3.75 -1.067541,0 -2.189027,-0.40134 -2.492192,-0.89187 z m 44.777535,-5.27803 c -2.52999,-3.78358 -9.967535,-9.87116 -13.497953,-11.04796 -0.66028,-0.2201 -0.886008,-0.90905 -0.501617,-1.531 1.789391,-2.8953 13.88792,5.56519 17.32273,12.11376 2.60612,4.96865 -0.0621,5.34217 -3.32316,0.4652 z m 143.00297,-2.36735 c -0.32444,-0.84548 0.0466,-2.30798 0.82452,-3.25 2.11759,-2.56426 3.5807,-6.05166 5.33353,-12.71275 1.9485,-7.40467 3.02327,-38.11574 1.79097,-51.17611 -0.95216,-10.09141 -0.26482,-22.30454 0.94683,-16.82389 1.84964,8.36645 2.25492,14.89796 2.23377,36 -0.0217,21.67369 -0.18082,23.63432 -2.75909,34 -1.50483,6.05 -2.96553,12.0125 -3.24601,13.25 -0.59077,2.60655 -4.2049,3.10923 -5.12452,0.71275 z M 116.15384,237.5 c -0.0668,-5.74725 0.18715,-7.51946 0.90192,-6.29349 0.63846,1.09507 0.67178,3.9615 0.093,8 L 116.24684,245.5 Z m 54.51283,4.83333 C 170.3,241.96667 170,241.01157 170,240.21089 c 0,-1.18064 0.28349,-1.2205 1.5,-0.21089 0.825,0.68469 1.5,1.63979 1.5,2.12244 0,1.03552 -1.38365,1.16058 -2.33333,0.21089 z M 176.0318,239.75 c 0.0175,-1.7875 0.6296,-4.0375 1.36025,-5 1.9414,-2.55749 2.7413,-2.13678 1.426,0.75 -0.85211,1.87016 -0.85211,3.12984 0,5 1.00608,2.20811 0.90806,2.5 -0.83949,2.5 -1.57208,0 -1.97203,-0.66769 -1.94676,-3.25 z M 154,238.07755 c 0,-1.22347 6.51038,-3.33345 8.74191,-2.8332 1.24846,0.27986 0.63564,0.88133 -2.11403,2.07488 C 156.30365,239.19625 154,239.45982 154,238.07755 Z m -53.3931,-9.96597 c -3.897313,-4.06792 -4.572753,-9.94642 -1.6194,-14.09402 2.93656,-4.12402 3.67938,-3.14152 1.58407,2.09517 l -1.67879,4.19571 3.05361,4.91222 c 1.67949,2.70173 3.05361,5.10733 3.05361,5.34579 0,1.20057 -1.91756,0.12904 -4.3931,-2.45487 z M 273.91667,210.25 c -0.0458,-4.8125 -0.2204,-9.65 -0.38792,-10.75 -0.16752,-1.1 -0.80728,-6.14364 -1.42169,-11.20808 -1.17877,-9.71646 -5.92086,-25.52802 -9.33182,-31.11512 -1.46383,-2.39772 -1.72539,-3.62665 -0.9392,-4.41284 0.78619,-0.78619 1.37804,-0.33109 2.12523,1.63416 0.56957,1.49809 1.92786,4.83387 3.01843,7.41284 3.54153,8.375 7.97567,31.27346 9.57356,49.43904 0.59405,6.75339 0.47371,7.75 -0.93577,7.75 -1.3604,0 -1.63074,-1.39076 -1.70082,-8.75 z M 68,213.24617 c 0,-1.77334 4.922785,-11.00095 7.50769,-14.07294 4.866157,-5.7831 4.544364,-3.28815 -0.521372,4.04233 C 72.243843,207.18413 70,210.98257 70,211.65655 c 0,0.67398 -0.45,1.50353 -1,1.84345 -0.55,0.33992 -1,0.2257 -1,-0.25383 z m 102.60152,-6.97798 c -0.40249,-0.4025 1.41941,-1.28059 4.04868,-1.95133 5.85766,-1.4943 6.93287,-0.87625 2.03546,1.17001 -4.08121,1.70524 -5.03742,1.82804 -6.08414,0.78132 z M 147.75,203.20554 c -1.5125,-0.18611 -2.75,-0.80728 -2.75,-1.38037 0,-0.63718 1.06757,-0.77404 2.74795,-0.35229 4.64803,1.16658 4.64938,2.30452 0.002,1.73266 z M 181.5,202 c 0.33992,-0.55 0.81648,-1 1.05902,-1 0.24254,0 0.44098,0.45 0.44098,1 0,0.55 -0.47656,1 -1.05902,1 -0.58246,0 -0.7809,-0.45 -0.44098,-1 z m -71.9633,-13 c 0.72638,-2.63912 2.17128,-4.66159 2.81005,-3.93333 0.20905,0.23833 -0.49251,1.78333 -1.55902,3.43333 -1.77227,2.74186 -1.87991,2.78489 -1.25103,0.5 z m 128.73414,-7.5 c 0.55058,-6.04754 4.08024,-22.93648 5.59055,-26.75 1.16143,-2.93262 4.13861,-3.79236 4.13861,-1.19514 0,0.85518 -0.85481,3.44268 -1.89958,5.75 -1.04477,2.30733 -2.92849,8.92014 -4.18603,14.69514 -2.53465,11.63977 -4.3631,15.40352 -3.64355,7.5 z M 194,181.11925 c 0,-0.97515 3.88818,-4.61334 4.30668,-4.02979 0.16194,0.2258 -0.74082,1.40696 -2.00613,2.62481 -1.2653,1.21784 -2.30055,1.85009 -2.30055,1.40498 z m -2.67125,-6.74215 c 0.87513,-1.71759 2.62168,-3.39894 3.8812,-3.73634 C 198.69372,169.70754 202,169.88247 202,171 c 0,0.55 -1.59649,1 -3.54775,1 -2.57731,0 -4.25442,0.75222 -6.1312,2.75 l -2.58346,2.75 z m 10.59077,1.52903 c 1.60213,-0.64038 2.76764,-0.61897 3.45,0.0634 0.70731,0.70731 -0.0515,1.0106 -2.41952,0.96709 -3.24171,-0.0596 -3.30393,-0.12177 -1.03048,-1.03048 z m -9.18647,-9.62402 c -1.52183,-0.23002 -2.50777,-0.8376 -2.19099,-1.35017 1.11054,-1.79689 8.45794,-0.77613 8.45794,1.17505 0,0.90217 -1.22954,0.93653 -6.26695,0.17512 z m 54.68291,-6.41809 c -0.29497,-0.47727 0.60717,-1.30252 2.00477,-1.83388 1.60354,-0.60967 2.33849,-1.49403 1.992,-2.39698 -0.30199,-0.78697 -0.0385,-1.74644 0.58563,-2.13214 1.69804,-1.04945 2.08324,-0.15902 1.40286,3.24289 -0.44101,2.20505 -1.2902,3.19287 -3.03081,3.52561 -1.32998,0.25425 -2.65948,0.0718 -2.95445,-0.4055 z m 4.34888,-8.61402 c -0.77223,-1.63978 -0.17814,-8.25186 0.74789,-8.32388 1.30144,-0.10122 2.90988,5.53019 2.1472,7.5177 -0.62497,1.62864 -2.28949,2.09215 -2.89509,0.80618 z m 7.79106,-11.75 c -3.06724,-7.09191 -3.45466,-7.87907 -7.87487,-16 -2.95273,-5.42483 -4.86542,-7.91102 -5.94193,-7.72356 -1.87696,0.32683 -3.14023,-2.93722 -2.23754,-5.78137 0.41525,-1.30834 0.11551,-2.20478 -0.86273,-2.58017 -1.54497,-0.59286 -4.04136,-6.34571 -3.14334,-7.24372 0.27748,-0.27748 0.61853,-0.31701 0.75789,-0.0879 0.13936,0.22917 1.26436,1.86095 2.5,3.62618 1.23564,1.76523 2.24662,3.61814 2.24662,4.11758 0,0.49944 2.10335,4.00516 4.6741,7.79049 4.64831,6.84443 12.68906,24.85763 11.98209,26.84271 C 261.45253,143.03213 260.5074,141.7 259.5559,139.5 Z m -17.97295,-15.36579 c -0.43077,-0.697 -0.51316,-1.53733 -0.18309,-1.86741 0.89497,-0.89496 1.87077,0.4213 1.38739,1.87145 -0.33872,1.01617 -0.57427,1.01538 -1.2043,-0.004 z M 183.75,111.28375 c -1.5125,-0.22913 -2.75,-0.65973 -2.75,-0.95689 0,-0.29716 2.25,-2.6527 5,-5.23453 l 5,-4.69425 v 2.80096 c 0,1.82308 -0.52369,2.80096 -1.5,2.80096 -0.825,0 -1.5,0.49814 -1.5,1.10699 0,0.60884 0.675,0.84797 1.5,0.53138 1.77005,-0.67923 1.86422,-0.18744 0.46482,2.42737 -0.56935,1.06384 -1.58185,1.86684 -2.25,1.78443 -0.66815,-0.0824 -2.45232,-0.3373 -3.96482,-0.56642 z M 206,108.82874 c 0,-0.64419 0.76858,-2.02053 1.70796,-3.05854 1.29304,-1.42879 1.45043,-2.29819 0.64787,-3.57874 C 207.07002,100.13984 203,99.33355 203,101.13045 c 0,1.02488 -0.2409,1.02531 -1.25,0.002 -1.00151,-1.01539 -0.90188,-1.52452 0.50118,-2.561104 2.32598,-1.718454 6.45097,-0.834909 8.27763,1.773014 2.06416,2.94701 1.8369,4.96322 -0.84326,7.4811 C 207.09072,110.2634 206,110.56025 206,108.82874 Z M 181.55068,106.082 c -0.36779,-0.5951 -1.56871,-1.082 -2.66871,-1.082 -1.1,0 -1.72087,-0.45165 -1.3797,-1.00367 0.34116,-0.55202 1.78774,-0.71066 3.21461,-0.35254 1.85911,0.46661 2.95733,0.15466 3.87534,-1.10079 0.70456,-0.96355 1.78147,-1.5851 2.39312,-1.38122 0.61165,0.20388 -0.21047,1.63779 -1.82693,3.18646 -1.85155,1.77389 -3.18645,2.4154 -3.60773,1.73376 z M 173,100.07185 c 0,-0.51048 2.49188,-1.860484 5.53751,-3.000001 4.46202,-1.669455 7.61809,-2.044475 16.25,-1.930905 L 205.5,95.281888 194.86553,96.101121 c -6.44712,0.496657 -12.74715,1.622218 -16,2.858551 C 172.62652,101.33098 173,101.26017 173,100.07185 Z M 232,95 c 1.95653,-1.264409 4,-1.264409 4,0 0,0.55 -1.2375,0.993109 -2.75,0.984687 C 231.10706,95.972755 230.83113,95.755385 232,95 Z m -36.23834,-2.707261 c 1.24391,-0.239193 3.04391,-0.230112 4,0.02018 0.95609,0.250292 -0.0617,0.445996 -2.26166,0.434897 -2.2,-0.0111 -2.98225,-0.215885 -1.73834,-0.455077 z M 0,0 C 0,-0.55 1.35,-1 3,-1 4.65,-1 6,-0.55 6,0 6,0.55 4.65,1 3,1 1.35,1 0,0.55 0,0 Z m 106.5,0 c -0.35052,-0.56715814 0.48962,-1 1.94098,-1 1.40746,0 2.55902,0.45 2.55902,1 0,0.55 -0.87344,1 -1.94098,1 -1.06754,0 -2.2191,-0.45 -2.55902,-1 z"
       id="path32" />
  </g>
</svg>
