<?xml version="1.0" encoding="UTF-8" standalone="no"?>
<!-- Created with Inkscape (http://www.inkscape.org/) -->

<svg
   version="1.1"
   id="svg2"
   width="331"
   height="397"
   viewBox="0 0 331 397"
   sodipodi:docname="3.svg"
   inkscape:version="1.1.2 (0a00cf5339, 2022-02-04)"
   xmlns:inkscape="http://www.inkscape.org/namespaces/inkscape"
   xmlns:sodipodi="http://sodipodi.sourceforge.net/DTD/sodipodi-0.dtd"
   xmlns="http://www.w3.org/2000/svg"
   xmlns:svg="http://www.w3.org/2000/svg">
  <defs
     id="defs6" />
  <sodipodi:namedview
     id="namedview4"
     pagecolor="#505050"
     bordercolor="#eeeeee"
     borderopacity="1"
     inkscape:pageshadow="0"
     inkscape:pageopacity="0"
     inkscape:pagecheckerboard="0"
     showgrid="false"
     inkscape:zoom="1.8866499"
     inkscape:cx="165.3725"
     inkscape:cy="198.5"
     inkscape:window-width="1920"
     inkscape:window-height="1043"
     inkscape:window-x="0"
     inkscape:window-y="0"
     inkscape:window-maximized="1"
     inkscape:current-layer="g8" />
  <g
     inkscape:groupmode="layer"
     inkscape:label="Image"
     id="g8">
    <path
       style="fill:#000000"
       d="m 290.8125,395.31689 c 0.72187,-0.28887 1.58438,-0.25335 1.91667,0.0789 0.33229,0.33229 -0.25834,0.56864 -1.3125,0.52522 -1.16495,-0.048 -1.4019,-0.28494 -0.60417,-0.60416 z m -129.91208,-0.7498 c -0.2381,-0.2381 -4.4756,-0.72189 -9.41666,-1.07508 -4.94107,-0.3532 -10.78376,-1.03403 -12.98376,-1.51296 -2.2,-0.47892 -10.42784,-1.18792 -18.28408,-1.57555 -7.85625,-0.38763 -14.5248,-1.09425 -14.81899,-1.57028 -1.03061,-1.66755 46.37607,1.69675 59.10307,4.19436 2.75,0.53967 6.35,1.13682 8,1.32699 1.65,0.19017 -0.1875,0.41319 -4.08333,0.4956 -3.89584,0.0824 -7.27815,-0.045 -7.51625,-0.28308 z M 216,394.00247 c 0,-0.59099 3.7968,-1.04075 9.25,-1.09574 5.0875,-0.0513 14.14528,-0.18637 20.12841,-0.30016 5.98312,-0.1138 12.73312,0.0625 15,0.39178 3.62957,0.52721 3.16658,0.67996 -3.87841,1.27953 -12.55527,1.06854 -40.5,0.87851 -40.5,-0.27541 z m 59.76166,0.29027 c 1.24391,-0.23919 3.04391,-0.23011 4,0.0202 0.95609,0.25029 -0.0617,0.446 -2.26166,0.4349 -2.2,-0.0111 -2.98225,-0.21589 -1.73834,-0.45508 z M 265.75,393.33772 c 0.6875,-0.27741 1.8125,-0.27741 2.5,0 0.6875,0.27741 0.125,0.50439 -1.25,0.50439 -1.375,0 -1.9375,-0.22698 -1.25,-0.50439 z M 315,391.90681 c -1.925,-0.46225 -8,-1.57792 -13.5,-2.47927 -5.5,-0.90135 -11.125,-2.00575 -12.5,-2.45423 -2.39145,-0.78001 -2.36172,-0.81884 0.68476,-0.89436 7.31046,-0.18122 31.31524,4.4572 31.31524,6.05101 0,0.99638 -1.09025,0.95583 -6,-0.22315 z M -0.00189217,390.75 C -0.00332706,389.80209 2.902132,389.57471 12.020567,389.80915 27.423163,390.20516 26.948341,392 11.440983,392 2.9558724,392 -4.8885796e-4,391.67705 -0.00189217,390.75 Z M 73,388 c 0,-1.22973 18.638275,-1.22973 21.5,0 1.275925,0.54828 -2.253941,0.88488 -9.75,0.92971 C 77.536476,388.97286 73,388.61392 73,388 Z m 27.26903,0.30701 c 0.97297,-0.25354 2.32297,-0.23687 3,0.0371 0.67703,0.27393 -0.11903,0.48137 -1.76903,0.46099 -1.65,-0.0204 -2.203936,-0.2445 -1.23097,-0.49804 z m 108.45086,-1.92046 C 208.32395,385.99062 208,385.29167 208,384.83333 208,384.375 220.45,384 235.66667,384 c 15.21666,0 27.34818,0.31848 26.95892,0.70774 -0.38926,0.38926 -11.37676,0.75725 -24.41666,0.81776 -13.03991,0.0605 -24.84748,0.44098 -26.23904,0.84548 -1.39157,0.4045 -2.85407,0.41151 -3.25,0.0156 z M 0,384 c 0,-0.58769 3.4803277,-1 8.440983,-1 4.642541,0 8.719098,0.45 9.059017,1 0.39465,0.63856 -2.656282,1 -8.440983,1 C 3.686339,385 0,384.59308 0,384 Z m 174,-0.56584 c -6.325,-0.73262 -14.425,-1.63101 -18,-1.99644 -3.575,-0.36542 -6.73359,-0.80073 -7.01909,-0.96737 -0.67041,-0.39128 -40.14831,-1.85164 -45.73091,-1.69166 -3.02392,0.0867 -4.25,-0.28 -4.25,-1.27094 0,-1.40564 5.1328,-1.41604 35,-0.0709 15.65146,0.70488 51.07355,5.3034 52.59852,6.82836 0.40415,0.40415 0.32231,0.68221 -0.18185,0.61791 C 185.9125,384.8188 180.325,384.16677 174,383.43416 Z m 92.76791,0.84111 c 1.79735,-0.22256 4.49735,-0.21797 6,0.0102 1.50265,0.22818 0.0321,0.41027 -3.26791,0.40466 -3.3,-0.006 -4.52944,-0.1923 -2.73209,-0.41486 z M 305.5,381.47564 c -1.65,-0.74906 -5.5875,-1.67064 -8.75,-2.04795 -3.1625,-0.37731 -5.75,-1.10547 -5.75,-1.61813 0,-1.81712 19.10284,1.99896 19.75176,3.94571 0.52392,1.57176 -1.39913,1.46936 -5.25176,-0.27963 z m -289,-1.07976 c -3.85,-0.76112 -9.25,-1.71558 -12,-2.121 l -5,-0.73714 4.9748514,-0.33284 c 7.0109766,-0.46908 21.7423446,1.6343 23.4894346,3.35388 1.280104,1.25994 1.091431,1.42737 -1.5,1.3311 C 24.833929,381.82931 20.35,381.15701 16.5,380.39588 Z m 33,-2.09163 C 44.222582,377.16316 38,374.73277 38,373.81264 c 0,-0.58361 0.755155,-0.71789 1.75,-0.31118 7.540762,3.08284 10.541863,3.03582 25.483284,-0.39923 9.1269,-2.09829 21.122537,-3.07974 22.371871,-1.83041 0.400498,0.4005 -1.484322,0.73352 -4.188488,0.74005 C 80.7125,372.0184 76.025,372.73631 73,373.60722 c -3.025,0.87092 -6.85,1.82211 -8.5,2.11377 -1.65,0.29165 -3.45,0.86231 -4,1.26812 -1.348359,0.99489 -8.517205,1.85198 -11,1.31514 z M 282.5,378 c -2.56432,-0.65251 -2.23755,-0.78055 2.25,-0.88169 2.91221,-0.0656 5.25,0.32698 5.25,0.88169 0,1.13072 -3.05633,1.13072 -7.5,0 z M 211,377.00203 c 3.31133,-1.06316 20,-1.2267 20,-0.19599 0,0.44333 -5.0625,0.84939 -11.25,0.90235 -6.93077,0.0593 -10.29017,-0.21186 -8.75,-0.70636 z M 232,377 c 0,-0.55 1.54844,-1 3.44098,-1 1.89254,0 3.7191,0.45 4.05902,1 0.37325,0.60393 -0.98962,1 -3.44098,1 C 233.82656,378 232,377.55 232,377 Z m 12,0 c 0,-0.61827 4.48532,-0.94388 11.75,-0.85298 10.26394,0.12843 10.99116,0.24118 5.75,0.89147 C 252.5063,378.15437 244,378.13567 244,377 Z m 27.26903,-0.69299 c 0.97297,-0.25354 2.32297,-0.23687 3,0.0371 0.67703,0.27393 -0.11903,0.48137 -1.76903,0.46099 -1.65,-0.0204 -2.20394,-0.2445 -1.23097,-0.49804 z M 311.5,371.70928 c -6.04017,-1.67417 -18.51964,-3.30002 -27.75,-3.61534 -1.92525,-0.0658 -2.75,-0.62301 -2.75,-1.85804 0,-1.08108 -1.45192,-2.39737 -3.75,-3.39969 C 272.99997,360.98252 269,357.77572 269,356.22212 269,355.01838 259.00546,345 257.80459,345 c -1.4202,0 -9.05403,-7.72823 -8.16443,-8.26539 0.47291,-0.28556 2.65984,-0.16941 4.85984,0.2581 3.13404,0.60902 3.40465,0.80219 1.25,0.89229 -3.26602,0.13658 -3.57302,1.60416 -0.66153,3.16235 1.14866,0.61474 3.79721,2.66146 5.88566,4.54825 3.24352,2.93032 4.87098,3.56993 11.16153,4.38659 4.05039,0.52583 10.21434,0.96995 13.69767,0.98693 4.61835,0.0225 6.21736,0.36936 5.90504,1.28088 -0.31553,0.92089 -3.13115,1.16242 -10.69422,0.91734 -12.26102,-0.39731 -12.34009,-0.1482 -2.56559,8.08266 l 6.82837,5.75 14.09654,0.1821 c 7.75309,0.10016 17.02153,0.12387 20.59653,0.0527 l 6.5,-0.12942 -3.70895,1.6648 c -2.03992,0.91564 -3.83992,2.38807 -4,3.27206 -0.26287,1.45161 -0.96891,1.41937 -7.29105,-0.33295 z m -121.62398,-0.1666 c -0.5559,-0.5559 -21.24977,-1.53136 -32.62602,-1.53792 -5.41331,-0.003 -8.25,-0.38935 -8.25,-1.12329 0,-1.67387 36.92144,-0.48285 44,1.41936 l 5.5,1.47801 -4.08333,0.11058 c -2.24584,0.0608 -4.28913,-0.0952 -4.54065,-0.34674 z M 40.80811,369.75093 c 0.71946,-0.87774 3.546072,-2.16947 6.281359,-2.8705 3.046034,-0.78067 4.797622,-1.73228 4.520035,-2.45566 -0.249268,-0.64958 0.0349,-1.66917 0.63148,-2.26575 C 54.25199,360.14801 47.875499,358.70617 36,358.48662 23.090701,358.24797 10.018733,357.06017 9.9634984,356.12079 9.2462176,343.92186 9.1698769,334 9.7932966,334 12.150643,334 13,336.96149 13,345.18095 c 0,8.30004 0.123225,8.80672 2.25,9.25162 4.577299,0.9575 15.52674,1.84548 24.989452,2.02659 5.356698,0.10253 10.044198,0.49116 10.416666,0.86362 1.395342,1.39535 2.492971,0.56956 4.084349,-3.07278 1.517312,-3.47282 2.411086,-6.32132 6.667612,-21.25 0.862501,-3.025 1.576034,-7.3 1.585629,-9.5 0.0232,-5.31843 1.854516,-11.71184 3.129089,-10.92411 1.921516,1.18756 -1.4346,26.45947 -3.680756,27.71648 -1.959295,1.09648 -1.812759,2.39334 0.557959,4.938 2.58266,2.77216 2.591275,4.73701 0.01782,4.06404 -1.474815,-0.38567 -2.243019,0.16771 -3.00123,2.16195 -0.560478,1.47417 -2.143497,4.15453 -3.517821,5.95637 C 55.124447,359.21456 54,360.98381 54,361.34439 c 0,0.36059 3.0375,0.70885 6.75,0.77392 3.7125,0.0651 8.1,0.47913 9.75,0.92012 2.279743,0.60931 1.439443,0.77432 -3.5,0.68731 -3.575,-0.063 -7.4,0.39734 -8.5,1.02293 -1.1,0.62559 -4.925,2.08521 -8.5,3.2436 -11.38746,3.68984 -10.660873,3.55083 -9.19189,1.75866 z M 210,370 c 0,-0.57262 2.67112,-0.94943 6.25,-0.88169 4.9749,0.0942 5.63795,0.27406 3.25,0.88169 -4.46774,1.13685 -9.5,1.13685 -9.5,0 z M 89.916667,369.75 c -0.640391,-1.92117 -0.349663,-5.00279 0.493609,-5.2321 0.599348,-0.16297 4.914724,-1.43981 9.589724,-2.8374 10.74152,-3.21119 23,-4.38722 23,-2.20653 0,1.70155 -0.96852,1.93586 -14.06655,3.40312 C 98.461955,364.05013 92,366.201 92,368.51342 c 0,1.18662 -1.753125,2.22721 -2.083333,1.23658 z M 130.5,369 c -0.7236,-1.1708 9.39881,-1.1708 14,0 2.16194,0.55012 0.71183,0.79642 -5.19098,0.88169 C 134.79101,369.94695 130.8409,369.55158 130.5,369 Z m 97,0 c -0.33992,-0.55 0.11008,-1 1,-1 0.88992,0 1.33992,0.45 1,1 -0.33992,0.55 -0.78992,1 -1,1 -0.21008,0 -0.66008,-0.45 -1,-1 z m 5.05,0.10029 c 0.5225,-0.49484 6.575,-1.14158 13.45,-1.4372 l 12.5,-0.53749 -9,1.35123 c -10.7578,1.61514 -18.28964,1.89218 -16.95,0.62346 z M 2,368.60699 c 0,-0.94863 2.9933785,-1.42672 3.526992,-0.56332 C 5.8520651,368.56965 5.1914763,369 4.059017,369 2.9265576,369 2,368.82314 2,368.60699 Z m 25,-0.38646 c 0,-0.54639 2.066243,-1.30329 4.59165,-1.682 5.484532,-0.82246 7.058213,-0.0706 1.883965,0.90007 -1.989704,0.37327 -4.260686,0.92543 -5.046629,1.22702 C 27.643044,368.96722 27,368.76693 27,368.22053 Z M 259.5,367 c -0.33992,-0.55 -0.14148,-1 0.44098,-1 0.58246,0 1.05902,0.45 1.05902,1 0,0.55 -0.19844,1 -0.44098,1 -0.24254,0 -0.7191,-0.45 -1.05902,-1 z M 39.269032,365.30701 c 0.972967,-0.25354 2.322967,-0.23687 3,0.0371 0.677032,0.27393 -0.119032,0.48137 -1.769032,0.46099 -1.65,-0.0204 -2.203936,-0.2445 -1.230968,-0.49804 z M 45.75,364.33772 c 0.6875,-0.27741 1.8125,-0.27741 2.5,0 0.6875,0.27741 0.125,0.50439 -1.25,0.50439 -1.375,0 -1.9375,-0.22698 -1.25,-0.50439 z M 75,364 c 0,-0.55 1.4625,-0.96837 3.25,-0.92971 2.723527,0.0589 2.926017,0.2095 1.25,0.92971 -2.762702,1.18717 -4.5,1.18717 -4.5,0 z m 124.96847,-2.94104 c -4.40234,-1.33753 -7.16573,-3.46431 -8.49281,-6.5363 l -1.2862,-2.97735 -15.84473,0.28537 c -8.7146,0.15695 -16.63223,0.51458 -17.59473,0.79473 -0.9625,0.28015 -1.75,0.0791 -1.75,-0.44673 0,-1.77439 7.41605,-2.5539 25.5,-2.6803 12.08274,-0.0845 18.74147,-0.52833 20.25553,-1.35024 3.22897,-1.75286 14.22352,-2.54608 17.5124,-1.26346 1.52237,0.5937 3.18694,2.18151 3.69905,3.52847 0.74459,1.95841 1.89289,2.5903 5.73207,3.15423 2.64052,0.38787 5.92595,1.12552 7.30095,1.63924 2.33574,0.87265 2.37716,1.00276 0.6305,1.98026 -2.41917,1.35387 -11.54299,3.44544 -19.00753,4.35734 -4.77573,0.58343 -5.79158,0.45917 -5.421,-0.66313 0.30471,-0.92281 2.42077,-1.4725 6.37703,-1.65658 8.13718,-0.37859 9.5831,-1.00042 6.421,-2.76139 -1.375,-0.76574 -3.4375,-1.4082 -4.58333,-1.42768 -3.2437,-0.0552 -3.72257,-1.2961 -1.22666,-3.17876 1.25406,-0.94594 1.965,-2.035 1.57987,-2.42013 -1.03722,-1.03723 -10.89902,-0.75849 -15.37547,0.43457 -2.14192,0.57087 -5.07814,1.27848 -6.52492,1.57247 -1.59902,0.32493 -2.85451,1.39112 -3.20176,2.71901 -0.73434,2.8081 -0.057,3.8374 2.52527,3.8374 3.03873,0 9.807,2.17968 9.807,3.15829 0,1.01175 -3.53906,0.96176 -7.03153,-0.0993 z m -74.41899,-1.9789 c -1.04561,-1.69183 1.62754,-2.23061 5.99323,-1.20795 2.89604,0.67839 3.28685,0.95759 1.45729,1.04109 -1.375,0.0628 -3.46171,0.37217 -4.63714,0.68757 -1.17543,0.31541 -2.44145,0.0811 -2.81338,-0.52071 z M 141.5,359 c 0.33992,-0.55 1.26648,-1 2.05902,-1 0.79254,0 1.44098,0.45 1.44098,1 0,0.55 -0.92656,1 -2.05902,1 -1.13246,0 -1.7809,-0.45 -1.44098,-1 z m -70.497553,-1.18873 c -0.003,-0.85508 7.454095,-1.75956 11.497553,-1.39454 1.65,0.14895 4.2375,0.34112 5.75,0.42705 1.5125,0.0859 2.75,0.49542 2.75,0.91 0,0.41458 -4.498899,0.75208 -9.997553,0.75 -5.498655,-0.002 -9.998655,-0.31371 -10,-0.69251 z M 147,357.77446 c 0,-2.05074 2.4985,-5.10982 3.80773,-4.66206 0.83097,0.28419 0.8077,1.03352 -0.0872,2.80863 C 149.32457,358.69004 147,359.84805 147,357.77446 Z M 242,357 c 0,-0.55 0.47656,-1 1.05902,-1 0.58246,0 0.7809,0.45 0.44098,1 -0.33992,0.55 -0.81648,1 -1.05902,1 C 242.19844,358 242,357.55 242,357 Z m 8.5,0.08 -4,-0.63622 4.93421,-0.6198 C 256.57625,355.17807 259,355.5891 259,357.10702 c 0,0.96963 -2.2795,0.96238 -8.5,-0.027 z m -111.62634,-1.53964 c -0.718,-0.718 1.79925,-10.61324 3.00719,-11.82118 0.49138,-0.49138 1.12256,-0.51671 1.40263,-0.0563 0.65118,1.0705 -3.64511,12.64217 -4.40982,11.87746 z m 163.72848,-1.70717 c -0.62412,-2.08584 -2.56726,-22.37695 -3.09631,-32.33316 -0.26304,-4.95 -0.75543,-15.18527 -1.09422,-22.74504 -0.48622,-10.8498 -0.98195,-14.22002 -2.35348,-16 C 292.29235,277.86768 288,268.70885 288,265.56085 c 0,-5.67913 -1.00284,-5.93434 -24.59564,-6.25928 L 242,259.00678 v 2.37998 c 0,1.58735 0.74934,2.62064 2.25,3.10261 1.90551,0.61198 1.98206,0.79418 0.5,1.18995 -0.9625,0.25703 -1.75,1.08718 -1.75,1.84478 0,3.13619 3.42507,18.57579 5.54057,24.9759 0.72719,2.2 3.00485,10.075 5.06147,17.5 2.05663,7.425 4.74412,15.75 5.97221,18.5 3.67459,8.22833 3.87447,9.5 1.49314,9.5 C 259.93032,338 259,337.41245 259,336.69433 c 0,-0.71813 -1.60814,-5.2938 -3.57365,-10.16818 -3.90401,-9.68179 -11.20362,-37.34689 -16.8937,-64.02615 -1.99414,-9.35 -4.45542,-19.7 -5.4695,-23 -1.01408,-3.3 -2.14215,-7.299 -2.50682,-8.88667 -0.36467,-1.58767 -1.69748,-4.28767 -2.9618,-6 -1.26432,-1.71233 -2.57645,-3.9015 -2.91583,-4.86481 -0.33939,-0.96332 -2.18918,-2.50118 -4.11066,-3.41746 -3.00679,-1.43384 -4.24302,-1.49827 -8.87201,-0.46234 -2.95813,0.662 -6.39028,1.97486 -7.627,2.91746 -6.43398,4.90386 -7.96609,6.46672 -8.25395,8.41963 -0.17329,1.17564 -0.94127,2.34401 -1.70661,2.59637 -1.44323,0.47589 -1.26193,-2.15516 0.42736,-6.20186 0.70511,-1.68908 0.46994,-1.82158 -2.12141,-1.19526 C 188.0729,223.45439 187,225.59172 187,233.19113 187,237.56387 186.59791,240 185.87617,240 c -0.75188,0 -0.97171,-1.83437 -0.66421,-5.54247 0.2528,-3.04835 0.11785,-5.7537 -0.29988,-6.01187 C 184.28281,228.05675 180,237.81385 180,239.63638 c 0,0.30875 -0.63634,1.97937 -1.4141,3.71249 -1.7711,3.94668 -9.59932,30.62239 -9.58175,32.65113 0.0173,1.99904 -4.50434,22.13845 -7.6336,34 -1.37843,5.225 -3.22588,12.3125 -4.10543,15.75 -0.87956,3.4375 -1.97403,6.25 -2.43216,6.25 -2.0016,0 0.32105,-14.22844 3.70233,-22.68032 1.48237,-3.70532 3.73899,-11.93056 5.01472,-18.27831 2.59438,-12.90909 4.29287,-20.03122 7.40278,-31.04137 1.16514,-4.125 2.7484,-9.77307 3.51835,-12.55126 0.76995,-2.7782 2.75386,-7.9532 4.40869,-11.5 2.49276,-5.34275 2.74577,-6.50714 1.47526,-6.78924 -0.84343,-0.18728 -2.53487,0.60022 -3.75875,1.75 -1.22388,1.14977 -2.53374,2.0905 -2.91079,2.0905 -0.37705,0 -1.47305,0.71384 -2.43555,1.58631 -2.73374,2.47804 -17.31137,13.32552 -21.75,16.18458 -5.12341,3.30016 -22.30353,12.09225 -22.75214,11.64363 -0.18765,-0.18764 -2.45769,0.2958 -5.04452,1.07432 -6.92551,2.08427 -5.71989,0.38424 2.04666,-2.88597 13.53554,-5.69932 23.16359,-10.68877 27.30874,-14.15194 2.33164,-1.94804 6.75978,-5.19299 9.8403,-7.21102 3.08053,-2.01802 8.52596,-5.96932 12.10096,-8.78066 8.1464,-6.40623 17.62399,-10.96477 25.8749,-12.44533 3.5062,-0.62916 7.998,-2.01385 9.98178,-3.07709 1.98377,-1.06324 5.11069,-2.21528 6.94869,-2.5601 l 3.34182,-0.62693 -0.63336,-7.6249 c -1.208,-14.54266 -1.09956,-14.41006 -9.22681,-11.28309 -2.63286,1.013 -5.66175,2.15735 -6.73087,2.54301 -1.75298,0.63233 -1.63024,0.89191 1.25,2.64349 4.48189,2.7256 4.47929,5.26519 -0.003,2.86637 -2.23361,-1.19539 -2.23148,-1.49344 -0.0678,9.48925 0.40682,2.065 0.20849,2.76404 -0.69844,2.46173 -1.87269,-0.62423 -5.17502,-9.96301 -4.50474,-12.73913 0.56249,-2.32967 0.45274,-2.37632 -4.11674,-1.75 -2.58205,0.35391 -5.78715,0.64347 -7.12245,0.64347 -1.93719,0 -2.30493,0.38716 -1.81975,1.91584 0.33444,1.05372 0.13976,2.20527 -0.43261,2.55902 -0.57238,0.35375 -1.04068,1.58956 -1.04068,2.74626 0,2.08136 -2.47403,11.41717 -4.04897,15.27888 -0.78819,1.93263 -0.81795,1.92717 -0.88335,-0.16203 -0.0372,-1.18912 0.60724,-5.68912 1.43215,-10 2.26513,-11.83739 2.34079,-11.58568 -3.24983,-10.81197 -2.6125,0.36155 -8.575,0.80668 -13.25,0.98918 -4.675,0.1825 -8.725,0.36542 -9,0.4065 -0.275,0.0411 -0.36178,5.7005 -0.19285,12.5765 0.17583,7.15666 -0.0858,12.50182 -0.6119,12.50182 -1.35515,0 -2.30808,-11.6271 -1.54852,-18.89419 0.60647,-5.80243 0.50939,-6.28252 -1.20377,-5.9526 -2.53421,0.48805 -3.4932,5.33432 -3.23473,16.34679 0.1718,7.31949 -0.0613,9 -1.24849,9 -1.20891,0 -1.4414,-2.19087 -1.35299,-12.75 0.11337,-13.54057 -0.1284,-14.14674 -4.67249,-11.71482 -2.69334,1.44143 -2.50481,7.63831 0.50084,16.46187 2.49721,7.331 2.23193,8.49019 -1.9351,8.45583 -1.91372,-0.0158 -1.92144,-0.076 -0.17911,-1.39676 1.74294,-1.32119 1.70544,-1.62431 -0.87594,-7.08091 -2.20785,-4.66701 -2.59208,-6.58508 -2.11912,-10.57855 0.4691,-3.96079 0.25776,-5.04585 -1.12406,-5.77116 C 132.45682,201.68471 125,200.70946 125,201.79126 c 0,2.02713 -5.1956,12.20588 -5.98218,11.71975 -0.45418,-0.2807 0.0714,-3.00559 1.16806,-6.05532 1.09661,-3.04972 1.76649,-6.13742 1.48862,-6.86156 -0.6509,-1.69621 -4.79308,-2.84577 -4.52833,-1.25673 0.10654,0.63943 -0.16411,3.33506 -0.60143,5.99028 -0.8529,5.17847 -2.96402,7.81324 -8.29474,10.35224 -1.7875,0.85138 -3.25,1.93463 -3.25,2.40723 0,0.4726 4.21473,0.58241 9.36606,0.24403 9.15111,-0.60111 15.57327,0.0641 14.16732,1.46749 -0.38645,0.38573 -5.27704,0.72322 -10.868,0.74998 -15.18046,0.0726 -17.950325,0.86917 -27.341858,7.86266 -4.497062,3.34878 -9.222062,6.82032 -10.5,7.71454 -3.74163,2.61815 -8.673965,20.15821 -8.963139,31.87415 -0.130345,5.28094 -2.249667,18.87744 -2.881599,18.48689 -0.842189,-0.5205 -0.607739,-7.43284 0.494813,-14.58864 l 0.709029,-4.60176 -15.341313,-0.71039 c -8.437722,-0.39071 -17.258939,-0.89905 -19.602704,-1.12963 -4.073607,-0.40078 -4.67032,-0.0786 -13.541292,7.31214 -5.103946,4.25226 -10.08357,8.18139 -11.06583,8.73139 -2.9852217,1.67152 -1.3883848,3.01007 3.368513,2.82365 34.676852,-1.35898 48.76373,-1.51496 49.362234,-0.54656 0.368714,0.59659 0.220725,1.36262 -0.328865,1.70229 -0.54959,0.33966 -12.533342,0.82597 -26.63056,1.08069 -14.097219,0.25471 -26.0548106,0.72486 -26.5724263,1.04476 -0.5176158,0.3199 -0.8037038,1.26724 -0.6357511,2.10519 0.2599841,1.29712 3.7236614,1.58489 23.3053684,1.93625 23.120204,0.41486 27.5,0.75633 27.5,2.14403 0,0.83056 -25.615602,0.66411 -41.874144,-0.2721 l -10.3741448,-0.59737 0.6999189,2.78958 c 0.8606951,3.43038 3.1155889,19.55781 3.9304609,28.11141 0.534535,5.61094 0.409826,6.28476 -1.109035,5.99225 -1.674967,-0.32257 -2.7173026,-6.43699 -6.900685,-40.47993 l -0.6348096,-5.16587 6.4628759,-6.33413 C 12.755019,274.35036 20.03514,267.50123 25.378483,262.61384 l 9.71517,-8.88616 16.703173,-0.13761 16.703174,-0.1376 1.081248,-6.56528 c 0.594686,-3.61091 1.35209,-7.27109 1.683119,-8.13374 0.790977,-2.06125 34.893233,-26.63932 38.742603,-27.92244 0.58877,-0.19626 1.89176,-3.54963 2.89552,-7.45194 l 1.82504,-7.09511 -6.7208,-5.39198 c -3.69644,-2.96559 -7.65647,-6.80444 -8.800062,-8.53078 -2.009574,-3.03359 -2.391422,-3.1631 -11.392965,-3.86395 -10.173334,-0.79208 -12.806093,-1.67097 -12.828256,-4.28243 -0.008,-0.94315 -0.714649,-3.7256 -1.570321,-6.18321 -2.64682,-7.60206 -0.446452,-13.55297 9.440397,-25.53161 0.453955,-0.55 4.026598,-3.95685 7.939205,-7.57079 4.914076,-4.53895 10.014292,-8.00105 16.493692,-11.19616 C 117.81728,118.54108 129.34521,114 131.99661,114 c 0.96718,0 2.28651,-0.63621 2.93185,-1.4138 1.33372,-1.60703 9.40296,-5.58877 11.31064,-5.58119 1.01448,0.004 3.45938,6.46763 6.2779,16.59698 0.16865,0.60609 2.47467,1.39915 5.12449,1.76235 2.64982,0.3632 8.50096,1.83359 13.00254,3.26753 l 8.18469,2.60717 7.52125,-7.61952 C 190.89379,119.01633 194.68845,116 195.93561,116 197.07102,116 198,115.3801 198,114.62244 c 0,-0.75765 0.67005,-1.93364 1.48899,-2.6133 2.07556,-1.72256 1.22336,-2.59234 -3.77248,-3.8503 -10.23018,-2.57599 -17.50126,-11.885012 -16.41922,-21.021182 0.52356,-4.420676 0.39716,-4.870515 -1.24777,-4.440358 -1.45866,0.38145 -2.13921,-0.50379 -3.35133,-4.359326 -0.83654,-2.660886 -1.8008,-7.519173 -2.1428,-10.796193 -0.34199,-3.277021 -0.88065,-6.989521 -1.19701,-8.25 C 171.04202,58.031301 171.21074,57 171.7333,57 172.96366,57 175,63.814467 175,67.931761 175,71.854106 176.57342,75 178.53518,75 179.34083,75 180,75.45 180,76 c 0,0.55 0.66643,1 1.48095,1 1.61202,0 2.83481,-3.628706 2.94754,-8.747057 0.0714,-3.240869 0.90237,-4.144648 2.07151,-2.252943 1.00525,1.626529 2.5,1.142258 2.5,-0.809953 0,-1.939027 -12.5689,-10.954476 -13.69803,-9.825351 -0.34939,0.349388 1.02458,2.097763 3.05326,3.885278 3.53964,3.118842 3.65679,3.428492 2.90238,7.671446 C 180.06908,73.606041 178,73.401326 178,66.59911 c 0,-4.676619 -0.44006,-6.049699 -2.75,-8.580511 -1.5125,-1.657125 -3.875,-3.126724 -5.25,-3.265777 -2.2887,-0.231454 -2.49007,0.06744 -2.38246,3.536357 0.0742,2.393533 -0.29408,3.649475 -1,3.409882 C 166.00289,61.490448 165.5,59.266153 165.5,56.756183 c 0,-3.80681 -0.46476,-4.930112 -2.80266,-6.773886 -3.90915,-3.082932 -4.39753,-1.852803 -1.33747,3.3688 l 2.60286,4.441442 -2.4019,0.602838 C 158.32773,59.206833 156,58.184062 156,55.952028 156,54.943331 155.55,53.839919 155,53.5 c -0.55,-0.339919 -0.96954,-1.378976 -0.93232,-2.309017 0.0514,-1.283548 0.32914,-1.148855 1.15281,0.559017 1.03179,2.139374 2.77951,3.089166 2.77951,1.510507 0,-2.181612 -3.69157,-9.253549 -4.83206,-9.256759 -1.01446,-0.0029 -1.25289,1.66578 -1,6.998505 0.18263,3.851239 -0.005,7.001239 -0.41794,7 -0.4125,-0.0012 -0.75,-1.775695 -0.75,-3.943236 0,-4.613809 -1.61506,-6.189489 -2.94507,-2.873262 -0.8182,2.04008 -0.93567,1.860116 -0.99154,-1.519088 -0.0921,-5.56791 -2.48705,-4.180529 -2.86818,1.661502 -0.24073,3.689933 0.022,4.671831 1.25,4.671831 0.85513,0 1.55479,0.706298 1.55479,1.569551 0,1.055698 -0.73662,1.464934 -2.25,1.25 -1.96186,-0.278628 -2.20631,-0.814351 -1.90882,-4.183278 0.44578,-5.04832 -1.93667,-4.529473 -3.17119,0.690617 C 138.83247,58.868275 137,60.446017 137,57.625727 137,53.921851 140.37289,47.495899 144.18076,43.945115 146.50768,41.775302 148.73437,40 149.12897,40 c 1.09929,0 16.05831,8.117925 18.75589,10.178392 C 169.19653,51.180276 171.27334,52 172.5,52 c 1.22666,0 3.30347,0.838148 4.61514,1.862552 C 180.61831,56.598494 188,60.182746 188,59.147803 c 0,-0.491064 -2.59882,-3.31271 -5.77517,-6.270324 -5.45758,-5.081765 -7.62818,-6.402206 -19.72483,-11.999186 -7.76258,-3.591656 -2.83949,-3.447599 6.35563,0.185976 6.11064,2.414701 9.35556,4.463223 13.53761,8.546318 3.62856,3.542698 5.74653,4.972284 6.2234,4.200683 1.14877,-1.858743 -9.82223,-11.329967 -17.20608,-14.853956 -11.24252,-5.365561 -27.07697,-5.22115 -34.56533,0.315237 C 134.15735,41.25978 130,46.783798 130,48.368034 c 0,1.298417 2.06892,0.563047 4.08333,-1.451367 2.68118,-2.681181 3.55659,-1.822936 1.43825,1.410056 -1.92292,2.93475 -1.79198,12.322013 0.1666,11.943883 0.6535,-0.126167 2.29586,0.757235 3.64968,1.963116 2.23974,1.994987 2.31287,2.30558 0.81182,3.447591 -1.48384,1.128908 -1.43187,1.258277 0.51699,1.286884 1.19166,0.01749 2.34322,-0.49787 2.55901,-1.145248 0.2158,-0.647378 0.9283,-0.84582 1.58334,-0.440983 0.75953,0.469415 1.19098,3.612821 1.19098,8.677051 0,8.523763 0.0616,8.605173 6.15178,8.128619 0.90848,-0.07109 2.15228,0.473803 2.76399,1.21087 0.8959,1.079492 0.1307,1.470323 -3.93452,2.009593 -2.7757,0.36821 -5.48199,0.400461 -6.01399,0.07167 C 144.43527,85.150977 144,82.658524 144,79.940983 144,76.215665 143.63094,75 142.5,75 c -1.95525,0 -1.94127,3.699636 0.0318,8.421894 0.8425,2.016379 1.24782,4.125649 0.90072,4.687267 C 142.35271,89.856354 139,85.900284 139,82.878939 139,79.921405 136.13695,73 134.91356,73 c -1.08596,0 -4.86294,-6.790327 -6.63693,-11.931993 -0.86683,-2.512404 -1.69656,-7.195306 -1.84384,-10.406449 -0.24703,-5.385955 -0.0104,-6.122217 3.05329,-9.5 6.07086,-6.693244 22.46034,-11.247413 36.09168,-10.028845 10.68579,0.955253 12.97964,1.68562 18.63141,5.932275 2.85675,2.146521 5.44086,4.022521 5.74246,4.168889 1.27923,0.62081 7.04837,9.72308 7.04837,11.120584 0,0.840128 0.37667,1.760299 0.83704,2.044825 1.26041,0.778978 0.10736,16.716386 -1.4277,19.733544 -0.73673,1.448056 -2.48023,2.91913 -3.87443,3.269052 -3.47905,0.873187 -3.25336,3.71026 0.64871,8.154472 2.69886,3.073823 3.0034,3.91454 2,5.521227 -1.53654,2.460397 -1.44853,4.826009 0.29475,7.922419 1.2779,2.2698 1.21278,2.65045 -0.70721,4.13388 -2.05103,1.58466 -1.87611,1.70962 5.80706,4.14869 10.1317,3.21638 14.64014,4.96447 16.03515,6.21743 0.61236,0.55 3.02654,2.575 5.36486,4.5 5.18174,4.26583 12.1691,13.25231 13.99573,18 0.74062,1.925 1.72447,3.9275 2.18632,4.45 0.46184,0.5225 0.83972,1.80303 0.83972,2.84563 0,1.0426 0.84852,3.0901 1.88561,4.55 1.03708,1.4599 2.55245,4.22937 3.36748,6.15437 2.00029,4.72445 13.43497,17 15.8355,17 1.05128,0 1.91141,0.41732 1.91141,0.92738 0,1.02131 9.05374,5.54603 13.15905,6.5764 2.13378,0.53555 2.98351,0.10475 4.78579,-2.42631 1.20524,-1.69261 2.94821,-3.06316 3.87325,-3.04567 2.56801,0.0486 5.18191,2.4484 5.18191,4.75754 0,2.18201 2.30308,2.91227 16.38645,5.19578 6.67903,1.08295 6.87828,1.20141 7.18636,4.27211 0.12376,1.23352 2.2955,8.27112 4.8261,15.63911 2.5306,7.36798 4.60109,13.67993 4.60109,14.02656 0,0.34662 -1.9125,1.87355 -4.25,3.39317 -3.33078,2.16535 -5.2163,2.70033 -8.71767,2.47344 -5.12212,-0.33192 -4.89286,-0.0118 -10.59085,-14.78951 -2.01464,-5.225 -4.0419,-9.90625 -4.50502,-10.40278 -0.4975,-0.53341 -3.00938,-0.31338 -6.13924,0.53777 -5.61184,1.5261 -9.79722,1.3993 -9.79722,-0.29681 0,-0.5625 0.9,-2.16689 2,-3.56531 2.34461,-2.98069 2.62549,-6.27287 0.53518,-6.27287 -0.80565,0 -1.98464,1.0125 -2.61999,2.25 -0.63535,1.2375 -2.53946,3.7125 -4.23135,5.5 -2.91492,3.07963 -2.96105,3.25 -0.88001,3.25 1.20789,0 2.19617,0.45 2.19617,1 0,1.98996 -6.05969,0.91619 -18.85751,-3.34154 -9.75359,-3.24493 -14.2171,-5.2981 -17.67143,-8.12867 l -4.6217,-3.78713 -7.17468,2.82351 c -3.94607,1.55293 -7.26986,2.86852 -7.38619,2.92352 -0.11634,0.055 0.69811,3.84757 1.80987,8.42793 1.11176,4.58037 1.76059,9.00756 1.44184,9.83822 -0.33668,0.87736 1.02689,3.6547 3.25373,6.62723 3.63567,4.85314 9.74059,16.59619 12.01793,23.11693 0.57626,1.65 1.33277,5.55601 1.68115,8.68002 0.34838,3.12401 1.1786,6.13248 1.84494,6.68549 0.66634,0.55302 11.5504,1.50323 24.18679,2.11159 12.63639,0.60836 23.5736,1.31202 24.3049,1.56368 0.91738,0.3157 1.12673,1.38138 0.67521,3.43716 -0.55152,2.51101 0.0467,3.88717 3.80376,8.75082 2.45201,3.17418 5.63104,7.02693 7.06451,8.56167 2.52279,2.701 2.57979,3.03749 1.77858,10.5 -1.02031,9.50317 -0.44107,29.7429 1.30814,45.70957 1.55387,14.18353 1.49706,19.67906 -0.20931,20.24899 -0.68721,0.22953 -1.42899,-0.1826 -1.64839,-0.91583 z M 68.998127,260.38768 c 0.0018,-3.03242 -0.141074,-3.12912 -5.566485,-3.76677 -3.062596,-0.35995 -5.878459,-0.4628 -6.257473,-0.22855 -0.379013,0.23424 -5.365197,0.69733 -11.080409,1.02909 -8.215545,0.47689 -10.667558,0.96703 -11.710723,2.34087 -0.725687,0.95572 -1.333742,2.05462 -1.351234,2.44199 -0.04137,0.91618 10.579702,1.51465 24.716324,1.39271 l 11.248127,-0.097 0.0019,-3.11232 z M 306.12207,216.325 c -1.17884,-2.02721 -1.46351,-1.37835 -0.49853,1.13634 0.34294,0.8937 0.83419,1.41426 1.09166,1.15679 0.25747,-0.25747 -0.009,-1.28938 -0.59313,-2.29313 z m 10.02772,1.68865 c 1.46522,-0.0121 1.38752,-0.7688 -0.69453,-6.76365 -1.28939,-3.7125 -2.61353,-8.325 -2.94254,-10.25 -0.90274,-5.28181 -2.78596,-10.00678 -3.96361,-9.94467 -0.57701,0.0304 -2.10941,1.39682 -3.40534,3.03643 -2.63249,3.33062 -2.7132,2.91734 3.08543,15.79897 1.58223,3.5149 2.62124,7.05663 2.30892,7.87052 -0.43358,1.12989 -0.0323,1.33629 1.69702,0.87292 1.24567,-0.33377 3.00727,-0.61301 3.91465,-0.62052 z m -13.13333,-13.43434 c -1.15373,-5.5575 -2.28546,-6.92666 -3.37612,-4.08442 -0.62795,1.63638 3.06208,11.13602 3.97215,10.22595 0.30923,-0.30923 0.041,-3.07292 -0.59603,-6.14153 z m -118.42325,-7.04594 c 13.25277,-3.0134 37.11246,-11.16103 35.98522,-12.28827 -0.23884,-0.23884 -5.97919,0.9135 -12.75634,2.56076 -6.77715,1.64726 -17.94709,3.69521 -24.82209,4.551 -6.875,0.85579 -14.75,1.84725 -17.5,2.20324 -16.82273,2.17769 -36.00245,0.53393 -44,-3.77093 -5.89842,-3.17496 -11.50917,-7.90728 -13.16052,-11.10008 -1.12259,-2.17046 -2.0498,-2.74006 -4.06954,-2.5 -1.43863,0.171 -2.79103,0.84528 -3.00532,1.49841 -0.21429,0.65312 2.38294,3.96006 5.77163,7.34875 6.91635,6.91635 16.38069,11.9932 24.46375,13.12282 7.74329,1.08213 46.38841,-0.10117 53.09321,-1.6257 z M 270.66228,196.25 c 2.50196,-3.16643 5.06837,-8.72674 4.61558,-10 -0.5113,-1.43777 5.26471,-1.79915 6.13926,-0.38411 0.29433,0.47624 1.66257,0.65037 3.04054,0.38696 1.37796,-0.26342 3.68499,-0.18288 5.12674,0.17898 2.37588,0.5963 2.56042,0.98268 1.97071,4.1261 -0.52679,2.80802 -0.30843,3.57813 1.14713,4.0458 0.98877,0.3177 2.87063,1.09517 4.18191,1.72772 2.08988,1.00815 2.5836,0.84291 4,-1.33871 0.88872,-1.36885 2.6856,-3.49435 3.99306,-4.72334 1.75234,-1.64717 2.0152,-2.34716 1,-2.66301 C 301.79181,186.33536 294.74147,185 292.1162,185 c -1.64899,0 -3.27628,-0.45 -3.6162,-1 -0.33992,-0.55 -2.40718,-1 -4.59392,-1 -2.18674,0 -7.44768,-1.08168 -11.69099,-2.40373 C 267.97179,179.27421 260,176.96955 254.5,175.47479 c -13.60497,-3.69749 -16.20651,-4.47169 -22,-6.54705 -2.75,-0.98512 -5.97147,-2.06416 -7.15882,-2.39788 -1.18735,-0.33371 -5.01235,-3.43544 -8.5,-6.89273 -3.48765,-3.45728 -9.47901,-8.67126 -13.31414,-11.58662 -7.70523,-5.85732 -25.00153,-14.71826 -30.50107,-15.62579 -1.93928,-0.32002 -6.69785,-1.66836 -10.57458,-2.99631 -12.03866,-4.12377 -28.49481,-3.50792 -38.17083,1.42849 -7.27547,3.71171 -18.83318,11.98384 -20.47595,14.65512 -0.38989,0.63399 5.53781,1.03453 16.5439,1.1179 19.64635,0.14883 27.12219,1.52138 34.16122,6.27197 2.52479,1.70396 4.97811,3.09811 5.45181,3.09811 0.4737,0 3.62662,3.01788 7.00647,6.7064 5.15273,5.62329 6.04272,7.1172 5.51068,9.25 -0.74614,2.99108 -3.27723,6.0436 -5.01123,6.0436 -0.67242,0 -1.78277,0.675 -2.46746,1.5 -2.26391,2.72785 -6.24836,1.79926 -9.65426,-2.24996 l -3.15425,-3.75004 -0.70911,3.76105 c -0.88547,4.69648 -1.50233,5.07458 -5.23834,3.21081 -1.99641,-0.99594 -3.19875,-2.49541 -3.5968,-4.48565 -0.49385,-2.46925 -1.58618,-3.42668 -6.27563,-5.50057 -9.6578,-4.27114 -12.21312,-4.26481 -19.5145,0.0483 -3.49641,2.06544 -6.91961,3.76525 -7.60711,3.77735 -2.24489,0.0395 -1.32706,1.79216 3.28678,6.27629 4.81608,4.6807 8.80768,7.02217 18.16699,10.65674 5.17107,2.00812 7.468,2.24067 21.29623,2.15614 10.53622,-0.0644 17.58158,-0.60682 22,-1.69374 3.575,-0.87944 11.42707,-2.1269 17.44905,-2.77213 7.77311,-0.83286 14.02601,-2.25219 21.55684,-4.89314 9.51107,-3.33538 11.22224,-3.6447 16.55095,-2.99183 7.96995,0.97647 33.70035,6.9092 34.89316,8.04541 1.34556,1.28172 2.178,1.13407 4.02619,-0.71413 2.29043,-2.29043 2.55012,-1.44941 0.85533,2.77006 -0.82475,2.05336 -2.35616,3.88368 -3.49961,4.1827 -1.11823,0.29242 -1.73631,1.01196 -1.37351,1.59898 1.02519,1.65879 4.67074,1.25763 6.20388,-0.68269 z m 16.14966,-1.20951 C 288.96973,192.12193 289.7731,188 288.18414,188 287.23046,188 283,195.25144 283,196.88615 c 0,1.95648 1.55896,1.20166 3.81194,-1.84566 z M 262.4309,194.8882 c -0.37792,-0.6115 -0.08,-1.48703 0.66202,-1.94563 1.84781,-1.142 0.81739,-1.92059 -3.46055,-2.6148 -3.35961,-0.54519 -6.63237,0.74682 -6.63237,2.61831 0,0.38565 1.6875,1.17369 3.75,1.75119 5.16385,1.44587 6.48392,1.49024 5.6809,0.19093 z m -12.41084,-4.41237 c 1.56743,-1.88863 1.48639,-1.96666 -4.00904,-3.85999 -5.91423,-2.03762 -7.76639,-0.47939 -3.51102,2.95383 3.46194,2.79309 5.72748,3.06609 7.52006,0.90616 z M 286,178 c 0,-2.26671 -1.03701,-2.56299 -2.8,-0.8 -1.76299,1.76299 -1.46671,2.8 0.8,2.8 1.33333,0 2,-0.66667 2,-2 z m -124.59762,0.15796 c 0.28623,-0.46313 -1.93098,-3.72563 -4.92713,-7.25 -2.99615,-3.52438 -5.45378,-6.74546 -5.4614,-7.15796 -0.0348,-1.8828 3.08569,-0.47026 4.41821,2 2.5915,4.8042 8.14721,10.62806 9.40006,9.85375 1.17457,-0.72592 -2.39329,-5.949 -7.58212,-11.09965 -2.31641,-2.29936 -2.96189,-4.5041 -1.31867,-4.5041 0.51223,0 3.27971,2.7 6.14996,6 4.7083,5.41324 7.91871,7.48946 7.91871,5.12113 0,-0.48338 -3.20413,-3.90149 -7.12029,-7.5958 C 151.44123,152.73485 140.90534,149 121.90424,149 h -9.72844 l -0.66028,3.90812 c -0.36315,2.14946 -0.1899,5.61166 0.385,7.69377 1.18993,4.30955 0.81616,5.23779 -1.37635,3.41817 -1.76858,-1.46779 -2.07804,-9.11662 -0.48899,-12.0858 0.84437,-1.57771 0.70612,-1.93144 -0.75,-1.91895 -3.81243,0.0327 -4.61396,1.51013 -4.00745,7.38672 0.56236,5.44872 3.42692,13.59797 4.77986,13.59797 0.36998,0 1.74588,-0.83815 3.05755,-1.86255 1.31167,-1.0244 4.31091,-2.84046 6.66496,-4.03568 l 4.2801,-2.17313 6.99664,2.52383 c 10.61037,3.82737 12.66986,5.14975 14.07585,9.03795 2.14284,5.92589 5.69763,4.17628 4.0008,-1.96913 -1.91981,-6.95298 1.91611,-5.12671 8.16319,3.88648 1.84371,2.66007 3.18895,3.23352 4.1057,1.75019 z m -57.08664,-4.29341 c 1.20134,-0.6245 2.31319,-1.24093 2.47077,-1.36985 0.15758,-0.12891 -1.07992,-2.86805 -2.75,-6.08697 -3.38835,-6.53072 -3.72676,-9.11288 -1.56831,-11.9666 2.21765,-2.932 1.85073,-3.58038 -1.7182,-3.03622 -14.555233,2.2193 -17.966551,1.18488 -8.252634,-2.50245 3.336104,-1.26636 7.188299,-4.11351 11.961724,-8.84088 7.81821,-7.74278 17.58904,-12.96038 28.4849,-15.21088 C 136.74256,124.06611 139,123.09678 139,122.25026 139,120.41022 136.13565,115 135.16147,115 c -0.43294,0 -3.11918,1.125 -5.96941,2.5 -2.85024,1.375 -5.57847,2.5 -6.06273,2.5 -1.73221,0 -12.6857,5.2162 -15.62933,7.44289 -1.65,1.24814 -3.98948,2.58211 -5.19885,2.96438 -1.20936,0.38227 -2.477188,1.57202 -2.817385,2.64388 C 99.143568,134.12302 98.27349,135 97.550259,135 c -1.766846,0 -8.869273,7.20225 -12.715248,12.89395 -4.589041,6.79138 -7.094308,15.46748 -6.168031,21.36077 0.492425,3.13299 1.107019,3.9046 3.711583,4.65981 4.527214,1.31271 19.380887,1.27886 21.937177,-0.05 z m 147.30969,-4.45534 c -1.58102,-1.39017 -3.53032,-2.27595 -4.33179,-1.9684 -0.80147,0.30756 -2.32041,0.55919 -3.37543,0.55919 -5.95487,0 2.08162,3.61595 8.58179,3.86131 1.74988,0.066 1.64051,-0.24061 -0.87457,-2.4521 z M 244.25,165.82517 c 3.37912,-1.72922 1.91302,-3.10365 -2.75,-2.57806 -5.03739,0.56779 -6.14832,-0.72617 -1.5,-1.74711 1.65,-0.3624 3,-0.88709 3,-1.16598 0,-0.27888 -1.34002,-2.38063 -2.97782,-4.67054 -1.6378,-2.28992 -4.13731,-7.02735 -5.55446,-10.52763 -1.41715,-3.50028 -3.39805,-7.55028 -4.402,-9 -1.00395,-1.44972 -3.30523,-4.99835 -5.11396,-7.88585 -1.80872,-2.8875 -3.56978,-5.25 -3.91346,-5.25 -0.34367,0 -3.28439,-2.24872 -6.53493,-4.99715 -7.35231,-6.21662 -9.03162,-6.79467 -11.9029,-4.09724 C 201.37432,115.05752 199.8376,116 199.18555,116 198.5335,116 198,116.60181 198,117.33735 c 0,0.73554 -3.375,4.39395 -7.5,8.12979 -4.125,3.73585 -7.4934,7.07154 -7.48532,7.41266 0.008,0.34111 2.82057,1.69302 6.25,3.00424 3.42942,1.31122 8.5319,3.89872 11.33883,5.75 2.80692,1.85128 5.43833,3.36596 5.84757,3.36596 0.40924,0 0.58766,-2.46303 0.39649,-5.47339 -0.19706,-3.10326 0.0855,-5.59318 0.65243,-5.75 0.58115,-0.16076 1.12273,2.74379 1.29303,6.93466 0.26211,6.45034 0.57495,7.43302 2.96484,9.31291 2.53083,1.99075 2.70954,2.00599 3.38669,0.28874 0.39318,-0.99711 0.7465,-3.47386 0.78515,-5.5039 0.0648,-3.40245 1.4803,-5.73235 2.72588,-4.48676 0.28739,0.28739 0.004,3.81995 -0.6297,7.85013 l -1.15223,7.32761 4.08769,3.65763 c 5.83333,5.21961 11.68706,7.86539 17.03865,7.70117 2.475,-0.076 5.2875,-0.54109 6.25,-1.03363 z M 148.50521,119.59606 C 147.73698,114.50905 146.05959,111 144.39612,111 c -0.69626,0 -2.4491,0.44984 -3.8952,0.99965 l -2.62928,0.99965 1.97609,3.75035 c 1.08686,2.06269 2.21534,4.50847 2.50775,5.43507 0.35809,1.13472 1.54967,1.65578 3.64998,1.59606 3.07446,-0.0874 3.10962,-0.14627 2.49975,-4.18472 z m 40.37913,-35.21917 c -1.98751,-2.115616 -2.10374,-2.755378 -1.09669,-6.036651 1.12604,-3.668957 0.79753,-5.819937 -0.74339,-4.867596 -1.81304,1.120523 -2.09634,7.466257 -0.50111,11.224678 0.88771,2.091474 1.62115,5.377679 1.62987,7.302679 0.009,1.925 0.53585,4.135969 1.17141,4.913264 0.90929,1.112068 1.2203,0.178946 1.4593,-4.378352 0.25488,-4.859936 -0.0539,-6.172293 -1.91939,-8.158022 z m -3.86612,1.657149 c -3.03182,-5.665005 -4.21997,1.656424 -1.26822,7.814832 L 185.5,97.5 l 0.3034,-4.715961 c 0.16687,-2.593778 -0.18646,-5.631278 -0.78518,-6.75 z M 143,72.393011 C 143,72.176855 142.07344,72 140.94098,72 c -1.13246,0 -1.79305,0.430347 -1.46797,0.956326 C 140.00662,73.819731 143,73.341642 143,72.393011 Z M 195.24809,59.755718 C 197.18895,53.933149 180.19819,35 173.03212,35 172.46445,35 172,35.45 172,36 c 0,0.55 0.41818,1 0.92929,1 0.5111,0 3.63241,1.795469 6.93624,3.98993 5.94476,3.948616 9.46906,7.659683 8.60378,9.059731 -0.24601,0.398049 0.21953,1.277133 1.03452,1.95352 0.815,0.676388 1.95239,2.977376 2.52754,5.113307 1.04161,3.86824 2.42791,5.005664 3.21672,2.63923 z M 132,51.440983 C 132,49.790908 130.41956,49.512129 129.5,51 c -0.81551,1.319515 0.38021,3.192069 1.5691,2.457295 C 131.58109,53.140864 132,52.233524 132,51.440983 Z M 121.60419,347.75 c -1.04248,-3.4375 -2.72989,-8.07958 -3.7498,-10.31572 C 116.83448,335.19813 116,331.74697 116,329.76504 c 0,-3.45594 -1.82488,-12.21467 -4.14603,-19.89938 -0.60376,-1.99888 -0.89043,-4.24888 -0.63706,-5 0.77381,-2.29386 3.38973,3.96324 5.70014,13.63434 1.18254,4.95 2.7903,11.475 3.57279,14.5 0.78249,3.025 1.72536,7.8625 2.09527,10.75 0.6887,5.37604 1.20115,6.06374 3.10202,4.16287 1.72903,-1.72903 2.49754,0.58771 1.16506,3.51219 -1.83785,4.03364 -3.19936,3.08021 -5.248,-3.67506 z m 118.00673,1 c 0.83441,-2.51771 0.68323,-20.42715 -0.24058,-28.5 -0.36322,-3.17401 -0.21285,-5.25 0.38027,-5.25 0.53958,0 1.5296,5.57867 2.20004,12.39706 1.36256,13.85715 0.68817,23.60294 -1.63326,23.60294 -1.06023,0 -1.2509,-0.60727 -0.70647,-2.25 z m -46.32125,-4.65777 c -0.65528,-1.04927 -1.90111,-5.66177 -2.76852,-10.25 -0.86741,-4.58822 -1.97239,-9.80473 -2.45553,-11.59223 -0.48313,-1.7875 -0.52697,-3.25 -0.0974,-3.25 0.96803,0 5.55131,14.81645 7.50142,24.25 0.65754,3.18079 -0.45182,3.6094 -2.17995,0.84223 z M 161,340.92905 c 0,-1.33788 9.18636,-11.89924 10.36501,-11.91643 1.02967,-0.015 -1.51925,4.04596 -5.78662,9.21935 -3.11977,3.78214 -4.57839,4.6414 -4.57839,2.69708 z m -8.19017,-2.45255 c -0.81472,-0.81473 0.31384,-5.4765 1.3258,-5.4765 0.49636,0 0.6056,1.2375 0.24275,2.75 -0.77613,3.2352 -0.87974,3.4153 -1.56855,2.7265 z M 144.22797,334 c 0.55842,-2.2 1.52307,-3.98569 2.14367,-3.9682 1.76157,0.0497 4.62836,2.54486 4.62836,4.02844 0,1.04204 -0.26667,1.07309 -1.2,0.13976 -1.77798,-1.77798 -2.5128,-1.48045 -3.21064,1.3 -0.34511,1.375 -1.24604,2.5 -2.00208,2.5 -1.10627,0 -1.17642,-0.78086 -0.35931,-4 z m -49.670085,0.0937 c -0.308081,-0.49849 -0.977919,-3.53599 -1.488529,-6.75 -0.510609,-3.21405 -1.903775,-8.5437 -3.095923,-11.8437 -1.912668,-5.29448 -3.96436,-13.63218 -5.659701,-23 -0.298609,-1.65 -1.66273,-6.825 -3.03138,-11.5 -3.528281,-12.05182 -6.246215,-24.24945 -5.626725,-25.25181 1.200575,-1.94257 2.545386,0.0971 2.823355,4.28216 0.163279,2.45831 1.290733,7.39465 2.505453,10.96965 1.9526,5.74663 9.614516,34.67342 12.051708,45.5 0.495246,2.2 1.795759,6.88614 2.890028,10.41365 1.09427,3.52751 1.756979,6.79001 1.472688,7.25 -0.680845,1.10163 -2.139075,1.06571 -2.840974,-0.07 z M 181,330.44098 c 0,-0.85746 0.45734,-1.27636 1.01631,-0.9309 0.55897,0.34546 0.75742,1.04702 0.44098,1.55902 C 181.60006,332.45614 181,332.19751 181,330.44098 Z m 1.01531,-9.19098 c 0.01,-2.39037 0.31757,-3.27335 0.84897,-2.43535 0.77196,1.21735 0.38574,6.18535 -0.48086,6.18535 -0.21088,0 -0.37653,-1.6875 -0.36811,-3.75 z m 0.55719,-35.75 c 0.92822,-41.82139 0.90694,-41.5 2.74823,-41.5 1.01642,0 1.23853,1.90092 0.96396,8.25 -0.19623,4.5375 -0.73248,20.54442 -1.19167,35.57093 -0.57783,18.90915 -1.20371,27.68395 -2.03282,28.5 -0.93042,0.91577 -1.03933,-5.96697 -0.4877,-30.82093 z M 66,309.5 c 0,-0.825 0.435877,-1.5 0.968615,-1.5 0.532739,0 0.709594,0.675 0.393011,1.5 -0.316582,0.825 -0.752459,1.5 -0.968615,1.5 C 66.176855,311 66,310.325 66,309.5 Z m 80.5,-6.5558 c -2.75,-1.07923 -8.825,-2.40818 -13.5,-2.95322 -10.5433,-1.22919 -14.24113,-2.21438 -14.81905,-3.94812 -0.3501,-1.0503 0.40867,-1.19657 3.43484,-0.66212 2.13632,0.37729 7.79284,1.3432 12.57005,2.14647 9.84245,1.65496 17.94719,4.37187 18.5643,6.22321 0.54743,1.64228 -0.2846,1.53496 -6.25014,-0.80622 z M 65,295.45034 c 0,-0.94909 3.131922,-6.65353 3.455211,-6.29327 C 69.351121,290.15543 67.58423,296 66.386501,296 65.623925,296 65,295.75265 65,295.45034 Z m 59.84203,-9.239 c -4.76189,-3.14124 -12.18689,-7.90516 -16.5,-10.58649 C 92.303288,265.65404 87.625144,262.46811 87.234355,261.25 c -0.836795,-2.60832 3.004936,-1.04665 11.685082,4.75 4.941553,3.3 9.343723,6.00437 9.782603,6.00971 0.43888,0.005 2.77379,1.58033 5.18869,3.5 2.4149,1.91966 4.72389,3.49029 5.13108,3.49029 0.89753,0 16.97819,11.86937 16.97819,12.53185 0,1.4137 -3.42556,-0.21973 -11.15797,-5.32051 z m 126.61685,1.72213 c -0.36253,-0.58659 -0.40908,-1.31661 -0.10343,-1.62225 0.90618,-0.90618 19.64455,0.79372 19.64455,1.7821 0,1.30182 -18.73247,1.14857 -19.54112,-0.15985 z M 272,288 c 0,-0.55 0.64844,-1 1.44098,-1 0.79254,0 1.7191,0.45 2.05902,1 0.33992,0.55 -0.30852,1 -1.44098,1 C 272.92656,289 272,288.55 272,288 Z m -23.3569,-21.76846 c -0.34133,-0.55229 0.38683,-1.27418 1.61815,-1.6042 3.58654,-0.96127 11.56447,-0.71835 12.23875,0.37266 0.34698,0.56142 -0.44309,1 -1.80141,1 -1.3307,0 -4.44792,0.27803 -6.92717,0.61785 -2.63502,0.36117 -4.76554,0.20068 -5.12832,-0.38631 z M 270.5,266 l -5,-0.68579 6.75,-0.15711 c 3.93807,-0.0917 6.75,0.25948 6.75,0.8429 0,1.06765 -0.71595,1.06765 -8.5,0 z M 105.69777,246.36443 c -2.13926,-2.13926 -0.0927,-3.16026 8.55223,-4.26653 20.13827,-2.57706 25.5937,-3.63274 27.43928,-5.30976 1.03615,-0.94153 3.44245,-2.35749 5.34732,-3.14658 4.34885,-1.80152 14.9634,-2.94586 14.9634,-1.61319 0,0.5344 -0.3375,0.97424 -0.75,0.97742 -4.76057,0.0368 -13.07181,2.38366 -15.79372,4.45976 -1.82756,1.39395 -4.19766,2.53445 -5.26689,2.53445 -1.06923,0 -5.03676,0.63957 -8.81672,1.42126 -3.77997,0.7817 -10.25692,2.1062 -14.39322,2.94334 -4.13631,0.83714 -8.20981,1.78657 -9.05224,2.10984 -0.84242,0.32327 -1.84567,0.27376 -2.22944,-0.11001 z m 109.53906,-10.71554 c -3.87537,-1.27062 -3.7178,-2.9439 0.34567,-3.67076 2.87789,-0.51479 2.9175,-0.61198 2.9175,-7.15951 0,-3.6507 0.30432,-6.94517 0.67626,-7.32106 0.37195,-0.37588 1.42846,0.77116 2.3478,2.54897 2.44096,4.7203 0.62092,17.48895 -2.3965,16.81286 -0.34516,-0.0773 -2.09598,-0.62207 -3.89073,-1.2105 z M 98.5,227.06138 c 1.8685,-0.75847 21.35736,-1.55329 29.75,-1.21329 2.0625,0.0835 3.75,0.60191 3.75,1.15191 0,0.63149 -6.54108,0.97664 -17.75,0.93661 -10.13356,-0.0362 -16.89181,-0.41174 -15.75,-0.87523 z m 65.38393,-1.55001 c -4.18942,-2.7469 -5.28695,-4.88981 -3.86509,-7.54657 1.42875,-2.66965 4.13481,-1.42517 3.38626,1.55729 -0.83252,3.31702 3.12295,5.47498 5.14505,2.80696 0.76244,-1.00598 1.40055,-2.76139 1.41805,-3.90091 C 170.01495,215.38215 173.04109,207 174.094,207 c 1.26498,0 1.20095,0.442 -1.47091,10.15335 -3.3829,12.29575 -3.11878,12.04315 -8.73916,8.35802 z m -5.82828,-116.59174 c -2.66436,-3.31545 -3.72679,-3.968 -5.66736,-3.48095 -1.95654,0.49106 -2.38829,0.21525 -2.38829,-1.52571 0,-1.16882 -1.1095,-2.99786 -2.46556,-4.064536 -2.31791,-1.823271 -5.08856,-8.627646 -3.96895,-9.747256 0.2812,-0.281204 3.41901,-0.69643 6.97289,-0.922725 C 156.68102,88.78732 157,88.877249 157,91.000136 c 0,1.843406 -0.39267,2.118721 -2.25,1.577575 -5.90214,-1.719625 -9.0223,-1.894768 -8.55709,-0.480332 0.25373,0.771441 1.69217,1.547718 3.19654,1.725058 2.1674,0.255501 2.50277,0.602506 1.61552,1.671577 -0.8476,1.021296 -0.68724,1.854204 0.65991,3.427564 1.55294,1.813692 2.99314,2.095502 11.30736,2.212492 l 9.52776,0.13407 -7.25,0.96071 c -3.9875,0.52839 -7.25,1.39808 -7.25,1.93265 0,0.53457 1.125,2.44689 2.5,4.24961 1.375,1.80272 2.5,3.5727 2.5,3.93328 0,1.65689 -1.94112,0.31235 -4.94435,-3.42476 z m -3.23342,-35.091357 c -0.92278,-0.73055 -1.82278,-2.662507 -2,-4.293237 -0.25351,-2.332638 0.21093,-3.235874 2.17777,-4.235258 2.92357,-1.485516 5.65636,-1.664816 6.42475,-0.421532 0.29853,0.483036 -0.79991,1.146786 -2.44098,1.475 C 155.69328,67.011344 154.88378,69 157.90638,69 c 1.41405,0 1.77131,0.516507 1.38337,2 -0.40801,1.560239 -0.0307,2 1.71606,2 1.87691,0 2.03772,-0.242624 0.99419,-1.5 -1.57557,-1.898443 0.004,-1.948937 2.5573,-0.08176 2.49812,1.826672 1.79072,2.440576 -3.63633,3.15573 -2.94957,0.388683 -4.97937,0.140498 -6.09874,-0.745697 z"
       id="path50" />
  </g>
</svg>
