<?xml version="1.0" encoding="UTF-8" standalone="no"?>
<!-- Created with Inkscape (http://www.inkscape.org/) -->

<svg
   version="1.1"
   id="svg2"
   width="402"
   height="411"
   viewBox="0 0 402 411"
   sodipodi:docname="4.svg"
   inkscape:version="1.1.2 (0a00cf5339, 2022-02-04)"
   xmlns:inkscape="http://www.inkscape.org/namespaces/inkscape"
   xmlns:sodipodi="http://sodipodi.sourceforge.net/DTD/sodipodi-0.dtd"
   xmlns="http://www.w3.org/2000/svg"
   xmlns:svg="http://www.w3.org/2000/svg">
  <defs
     id="defs6" />
  <sodipodi:namedview
     id="namedview4"
     pagecolor="#505050"
     bordercolor="#eeeeee"
     borderopacity="1"
     inkscape:pageshadow="0"
     inkscape:pageopacity="0"
     inkscape:pagecheckerboard="0"
     showgrid="false"
     inkscape:zoom="1.8223844"
     inkscape:cx="200.83578"
     inkscape:cy="202.75634"
     inkscape:window-width="1920"
     inkscape:window-height="1043"
     inkscape:window-x="0"
     inkscape:window-y="0"
     inkscape:window-maximized="1"
     inkscape:current-layer="g8" />
  <g
     inkscape:groupmode="layer"
     inkscape:label="Image"
     id="g8">
    <path
       id="path12"
       style="fill:#000000"
       d="m 252.11914,9 c -0.78363,0 -6.57941,5.286802 -12.88086,11.748047 l -11.45898,11.748047 6.28125,5.632812 6.27929,5.634766 -5.91992,0.582031 c -8.28093,0.813828 -21.53261,2.021502 -23.91992,2.179688 -1.1,0.07289 -2.46499,0.208664 -3.0332,0.302734 -0.92597,0.153305 -0.94336,18.337159 -0.0801,83.171875 0.0623,4.675 -0.25496,13.34848 -0.70508,19.27344 l -0.81836,10.77148 10.81836,-0.43164 c 5.95012,-0.23811 15.09336,-0.70128 20.31836,-1.0293 12.01795,-0.75446 34.59088,-1.49362 47.22852,-1.54492 L 293.95703,157 293.75391,144.75 c -0.36055,-21.90351 1.28873,-66.845963 2.52539,-68.826172 0.85293,-1.365807 0.86529,-2.695949 0.0469,-5.132812 -0.64805,-1.929215 -0.94516,-7.750542 -0.71679,-14.072266 0.32889,-9.104452 0.14543,-10.875066 -1.17774,-11.382812 -0.8618,-0.330703 -1.99742,-0.170551 -2.52344,0.355468 -0.52602,0.526019 -1.22678,10.823302 -1.55859,22.882813 -0.33181,12.059512 -0.78222,22.125444 -1.00195,22.36914 -0.21973,0.243696 -15.98886,0.823653 -35.04102,1.289063 -25.18133,0.615135 -34.82813,0.541419 -35.32812,-0.267578 -0.70697,-1.143907 -2.26209,-21.015257 -1.68946,-21.587891 0.17555,-0.175551 10.42045,-0.546137 22.76563,-0.824219 31.15112,-0.701695 45.8519,-1.592275 46.61328,-2.824218 0.6787,-1.098169 -61.56326,-0.286302 -66.77735,0.871093 -2.48285,0.551134 -2.63755,0.344554 -3.16015,-4.259765 -0.30207,-2.66188 -0.47617,-4.907825 -0.38867,-4.990235 0.28349,-0.266913 58.01808,-1.557972 62.53125,-1.398437 5.59711,0.197852 10.31723,-0.835106 9.54297,-2.087891 -0.38226,-0.618509 -13.67012,-0.786708 -36.39258,-0.460937 l -35.79102,0.513672 -0.62304,-3.119141 c -0.3429,-1.714492 -0.50851,-3.211681 -0.36719,-3.328125 0.33441,-0.275552 20.14341,-1.423529 25.00781,-1.449219 2.32495,-0.01228 3.74809,-0.494548 3.74609,-1.269531 C 243.99374,45.0625 241.7456,42.025 239,39 c -4.58247,-5.048804 -6.14277,-7.988912 -4.25,-8.007812 1.372,-0.0137 11.29337,11.471352 11.88477,13.757812 0.50127,1.938012 4.36523,3.419602 4.36523,1.673828 0,-0.754733 -8.6131,-12.151294 -11.83203,-15.65625 -2.44178,-2.65875 -2.45972,-2.787406 -0.68359,-4.75 C 239.48844,24.9081 240.85829,24 241.5293,24 c 0.671,0 1.48741,-1.2375 1.8125,-2.75 0.32571,-1.51535 2.37853,-4.214167 4.57226,-6.011719 l 3.98047,-3.261719 7.62305,7.574219 c 6.59587,6.553189 7.4455,7.786751 6.30273,9.148438 -1.71503,2.043592 -8.73754,16.622422 -8.32812,17.289062 0.17259,0.281014 7.3451,0.377442 15.93945,0.212891 8.59435,-0.164552 15.38852,-0.682929 15.09961,-1.150391 -0.2889,-0.467461 -6.1505,-1.173671 -13.02734,-1.570312 C 268.62708,43.083828 263,42.419316 263,42.003906 c 0,-0.415409 1.20723,-3.397969 2.68164,-6.628906 1.47441,-3.230936 2.71717,-6.1 2.76367,-6.375 0.0465,-0.275 0.47123,-1.11037 0.94336,-1.855469 0.61177,-0.965457 -1.54031,-3.767038 -7.49219,-9.75 C 257.30306,12.77713 252.90277,9 252.11914,9 Z m -0.39258,10.191406 c -0.94439,0.165649 -2.19404,1.209669 -4.19336,3.208985 -2.91246,2.912454 -3.21959,3.646756 -2.13867,5.125 1.16543,1.593817 1.42059,1.524656 3.32813,-0.900391 1.13597,-1.444151 2.56911,-2.625 3.18554,-2.625 1.39295,0 5.17355,6.058256 4.48047,7.179688 C 256.10971,31.631047 256.32765,32 256.87305,32 c 2.10333,0 2.32999,-4.154681 0.3457,-6.335938 -1.08318,-1.190708 -2.49083,-3.176562 -3.12891,-4.414062 -0.77956,-1.511895 -1.41888,-2.224243 -2.36328,-2.058594 z M 248.5,31.017578 c -0.75097,0.05381 -1.5,0.387928 -1.5,0.949219 0,0.53134 0.75869,2.55634 1.68555,4.5 0.92687,1.94366 1.93937,3.508947 2.25,3.478515 0.31064,-0.03043 1.62974,-1.403953 2.93164,-3.050781 2.52295,-3.191358 2.24679,-5.064734 -0.41992,-2.851562 -1.33726,1.109831 -1.74871,1.092235 -2.50782,-0.107422 C 250.43979,33.145913 250.02363,32.1625 250.01562,31.75 250.00419,31.189529 249.25097,30.963765 248.5,31.017578 Z m 103.625,6.525391 c -0.0169,0.0022 -0.0338,0.0055 -0.0508,0.0078 l -0.008,0.05664 c 0.0189,-0.02051 0.0372,-0.03935 0.0586,-0.06445 z m -220.72461,0.228515 c -2.62221,-0.08976 -5.39514,-0.02457 -8.17773,0.21875 C 114.44772,38.757539 111,39.960617 111,42.253906 c 0,0.622659 1.43447,0.741466 3.75,0.310547 19.04723,-3.544684 30.83711,-1.241394 40.5,7.912109 2.27327,2.153439 2.75,3.456702 2.75,7.517579 C 158,62.993163 156.39648,68 154.79492,68 c -0.48664,0 -0.63647,-1.4625 -0.33203,-3.25 0.66734,-3.91814 -0.60014,-12.743225 -1.87305,-13.039062 -0.50093,-0.116423 -1.40093,1.228548 -2,2.988281 C 149.36072,58.309673 145.82855,62 143.60156,62 c -2.5902,0 -2.61896,-1.635008 -0.0703,-4.029297 C 145.98844,55.662248 147.1302,49 145.06836,49 c -0.92489,0 -1.33045,1.00843 -2.47852,6.183594 -0.62643,2.823834 -4.11136,4.693343 -5.73046,3.074218 -0.58684,-0.586857 -0.56951,-2.595343 0.0488,-5.347656 0.99531,-4.42958 0.22975,-6.731845 -1.82031,-5.464844 -0.59792,0.369538 -1.09717,2.108241 -1.10937,3.863282 C 133.96639,53.063635 133.07554,55.625 132,57 c -2.67271,3.416866 -2.48779,4.32889 0.75,3.697266 1.93001,-0.376504 3.40824,0.07641 4.95898,1.519531 2.27851,2.120377 7.7308,2.730109 12.07422,1.351562 1.85621,-0.589139 2.21453,-0.326696 2.20313,1.613282 C 151.95542,70.427095 150.91963,72 147.49414,72 c -1.79992,0 -4.33437,0.860565 -5.63281,1.912109 -1.94893,1.578361 -2.32963,2.747209 -2.17969,6.705079 0.0999,2.636831 -0.0359,5.148368 -0.30273,5.580078 -0.26681,0.43171 -2.09195,0.113055 -4.05469,-0.707032 -4.6972,-1.962615 -5.96649,-1.882727 -4.15625,0.259766 2.05029,2.42661 1.22135,5.614267 -1.25977,4.84375 C 128.85835,90.267719 127.1,89.721959 126,89.382812 c -1.19666,-0.368949 -2,-0.155642 -2,0.53125 0,0.631411 0.7875,1.401645 1.75,1.710938 4.99746,1.605899 7.25,2.709958 7.25,3.554688 0,0.515731 -0.5004,0.629529 -1.11133,0.251953 -0.61094,-0.377579 -2.11909,0.577377 -3.35156,2.123047 -2.0777,2.605692 -2.45804,2.720972 -5.22656,1.574218 -1.64224,-0.680237 -5.38536,-3.666832 -8.31836,-6.636718 -2.93299,-2.969893 -5.7487,-5.142775 -6.25781,-4.828126 -0.50912,0.314656 1.25329,2.786833 3.91796,5.492188 3.78828,3.846106 4.53765,5.107932 3.43555,5.789062 C 114.62694,99.84823 111,98.234666 111,96.681641 c 0,-0.46083 -1.8,-2.620706 -4,-4.798829 -5.49342,-5.438794 -5.15647,-6.593569 1.75,-6 1.2375,0.106359 2.25,-0.265832 2.25,-0.826171 0,-1.69816 -5.1008,-2.422408 -8.47266,-1.203125 -4.44157,1.6061 -5.417439,1.44071 -4.826168,-0.820313 0.879914,-3.364794 2.480638,-3.879453 7.798828,-2.503906 2.75,0.711285 5.19526,1.100775 5.43359,0.865234 1.00714,-0.995339 -1.70888,-2.316073 -5.25195,-2.554687 -2.16634,-0.145895 -4.19626,-0.923787 -4.69531,-1.798828 -0.71589,-1.255254 -1.819292,-0.559711 -5.953127,3.753906 C 89.675691,86.385434 88,86.686031 88,82.054688 c 0,-2.262226 0.718344,-3.167808 3.595703,-4.533204 2.897304,-1.374861 4.173685,-2.998846 6.568359,-8.363281 C 99.798643,65.4965 102.09712,60.475 103.27148,58 c 2.54341,-5.360328 2.9274,-8 1.16407,-8 -2.34429,0 -4.13751,2.780216 -7.013675,10.875 -2.017085,5.676974 -3.49535,8.292315 -5.095703,9.021484 C 89.370886,71.243002 84.994133,78.264058 84.25,82.849609 83.689406,86.304145 82.004554,89 80.408203,89 79.352702,89 69.927642,94.980979 67.126953,97.427734 63.751689,100.37645 57,109.64752 57,111.33398 c 0,0.78114 -0.602399,1.92084 -1.337891,2.53125 -0.735492,0.6104 -1.933769,3.70361 -2.664062,6.87305 -0.730292,3.16944 -1.741566,6.5886 -2.246094,7.59961 -0.504528,1.01101 -1.080537,7.53601 -1.28125,14.5 -0.932036,32.33816 -1.307197,35.9004 -4.416015,41.98633 -1.594837,3.1221 -4.0387,7.02578 -5.431641,8.67578 -1.39294,1.65 -5.194041,6.375 -8.445313,10.5 -3.251272,4.125 -7.321445,8.8221 -9.044922,10.4375 -5.325454,4.99151 -3.76931,12.44095 2.617188,12.53125 1.319199,0.0186 2.25,0.65178 2.25,1.53125 0,1.07018 1.08967,1.5 3.800781,1.5 2.09,0 4.265499,0.46668 4.835938,1.03711 0.716214,0.71622 1.898192,0.70939 3.820312,-0.0215 2.683117,-1.0201 2.764869,-0.95831 2.246094,1.7129 -0.630892,3.24852 1.891915,28.83057 3.015625,30.57812 0.422087,0.65642 0.864099,2.09336 0.980469,3.19336 0.116371,1.1 0.637306,4.25 1.158203,7 1.204002,6.35635 0.511035,9.95305 -2.208984,11.46484 -1.889317,1.05009 -9.907605,10.18581 -11.867188,13.52149 -1.611372,2.74294 -3.709198,21.43063 -3.884766,34.60937 -0.04832,3.62729 -0.382067,7.06131 -0.742187,7.63282 C 27.794178,341.30008 25.475,342.45693 23,343.29883 l -4.5,1.53125 0.326172,11.47851 c 0.211461,7.45244 -0.05163,11.71296 -0.75,12.14453 -1.76429,1.0904 -1.229452,3.77174 1.294922,6.49219 1.303822,1.4051 4.042784,5.02969 6.08789,8.05469 2.510751,3.71375 5.346301,6.40254 8.728516,8.27734 l 5.007812,2.77539 41.169922,-0.0176 c 30.050586,-0.0134 44.000336,-0.40563 51.652346,-1.44922 11.25256,-1.53463 16.14831,-1.12659 24.27148,2.01953 l 4.78906,1.85547 5.71094,-3.01367 c 6.46756,-3.41367 7.90886,-6.46773 4.03125,-8.54297 -2.40731,-1.28835 -3.24867,-1.43992 -13.82031,-2.48242 -4.31062,-0.42508 -7.7631,-1.45026 -10.25,-3.04493 -5.59467,-3.58746 -4.82315,-4.59139 3,-3.90429 12.82323,1.12629 27.54701,1.08328 27.94336,-0.0801 0.5344,-1.56842 -7.68596,-2.37457 -24.32031,-2.38477 -10.08805,-0.006 -14.41595,-0.36522 -15.13672,-1.25781 -0.55516,-0.6875 -1.32541,-3.1625 -1.71094,-5.5 -0.80645,-4.88959 -1.27455,-4.73568 9.97461,-3.28711 7.52463,0.96895 20.85302,1.72356 45.5,2.57422 28.34265,0.97821 50.83519,3.46939 54.80469,6.07031 1.30338,0.854 2.17718,1.74273 1.94336,1.97656 -0.23382,0.23382 -6.68454,-0.26761 -14.33594,-1.11523 -36.10947,-4.00016 -57.63377,-5.447 -79.41211,-5.33984 -21.09935,0.10381 -14.64679,1.3828 14.41797,2.85937 12.69518,0.6448 25.10703,1.32398 27.58203,1.50781 2.475,0.18382 12.375,0.85946 22,1.50196 16.42113,1.09617 35.08011,4.02653 30.38477,4.77148 -1.1636,0.18462 -8.8136,-0.13372 -17,-0.70508 -38.13982,-2.66194 -52.37161,-3.40966 -52.99415,-2.78711 -0.3711,0.37114 -0.10587,1.36093 0.58985,2.19922 0.99042,1.19338 3.68004,1.53196 12.39258,1.56446 6.12016,0.0228 22.37695,0.64498 36.12695,1.38281 13.75,0.73783 25.35638,1.13104 25.79297,0.87305 0.99066,-0.5854 3.70703,1.59141 3.70703,2.9707 0,0.9981 -8.06984,0.86619 -54.75,-0.89844 -9.93217,-0.37547 -17.24337,-0.27535 -17.23438,0.23828 0.0436,2.54159 2.58927,2.8998 21.48438,3.01563 17.36178,0.10642 50.60968,1.6935 55.7207,2.66015 0.94658,0.17903 2.07158,0.69992 2.5,1.15821 0.84692,0.90597 -65.70217,-0.0873 -70.52929,-1.05274 -3.25722,-0.65144 -4.90513,0.77289 -2.85938,2.47071 2.6886,2.23135 75.23296,4.17524 77.33594,2.07226 0.75788,-0.75788 2.19777,-0.58621 4.95117,0.58789 2.13488,0.91034 4.78086,1.76647 5.88086,1.9043 3.17156,0.39741 9.49994,2.66551 9.5,3.40429 3e-5,0.36987 -20.81247,0.58702 -46.25,0.48243 -25.43753,-0.10459 -52.775,-0.2177 -60.75,-0.25 -7.975,-0.0327 -42.85,-0.0346 -77.5,-0.006 -37.115503,0.0313 -66.903218,-0.37155 -72.5,-0.98242 -5.225,-0.57028 -11.212517,-1.04469 -13.306641,-1.05469 L 15.884766,397 16.193359,401.25 16.5,405.5 24,406.10547 c 4.125,0.33327 8.85,0.43246 10.5,0.2207 1.65,-0.21176 6.375,-0.61366 10.5,-0.89453 4.125,-0.28088 8.625,-0.77107 10,-1.08789 1.375,-0.31683 7.078221,-0.55857 12.673828,-0.53906 8.59858,0.03 10.274945,-0.22361 10.822266,-1.63477 0.587431,-1.51458 0.77633,-1.49251 2.048828,0.23633 1.325615,1.80101 3.07006,1.90632 31.679688,1.92187 18.22625,0.01 31.70694,-0.40172 33.87109,-1.0332 2.23372,-0.65178 4.21613,-0.69983 5.23633,-0.1289 1.02723,0.57487 2.36714,0.52998 3.58008,-0.11914 1.17187,-0.62717 5.42949,-0.80986 10.76367,-0.4629 4.85351,0.3157 10.84922,0.51838 13.32422,0.45118 35.32053,-0.95908 59.60407,-1.27401 86,-1.11719 7.425,0.0441 19.575,-0.0212 27,-0.14453 7.425,-0.12328 16.425,0.10403 20,0.50586 15.18619,1.70693 18.34709,1.89218 35.23828,2.05273 14.73655,0.14008 17.83788,0.42185 18.31836,1.66797 0.49029,1.27154 0.72774,1.23346 1.56055,-0.25 1.11983,-1.99473 4.05603,-2.26281 7.07617,-0.64648 1.54816,0.82855 2.25073,0.79586 2.82226,-0.12891 0.46394,-0.75065 1.29224,-0.90289 2.1211,-0.39063 0.7478,0.46216 4.73514,0.90222 8.86133,0.97852 4.12619,0.0763 8.96445,0.46653 10.75195,0.86719 3.197,0.7166 3.25,0.67151 3.25,-2.84961 V 400 h -9.43945 c -7.48198,0 -10.85307,-0.50701 -16.25,-2.44141 -3.74528,-1.3424 -9.84805,-3.19663 -13.56055,-4.12109 -6.54173,-1.62898 -8.97023,-3.4375 -4.61523,-3.4375 3.51369,0 26.56113,4.97396 30.3164,6.54297 1.91696,0.80096 4.73742,1.44845 6.26758,1.43945 l 2.78125,-0.0156 -3.09766,-1.98438 c -3.11216,-1.9942 -16.94307,-5.22714 -27.65234,-6.46289 -5.81757,-0.67129 -7.35122,-1.87614 -3.81641,-2.99805 2.81306,-0.89283 18.66443,1.26824 25.06641,3.41797 7.83122,2.62967 10.79778,3.19581 11.42578,2.17969 0.97387,-1.57577 -9.103,-4.15625 -26.92578,-6.89648 -2.75,-0.42281 -5,-1.20885 -5,-1.7461 0,-1.47285 8.17385,-1.79553 15.5,-0.61133 3.575,0.57787 8.975,1.30912 12,1.62305 5.29178,0.54917 5.38525,0.51717 2.4707,-0.81836 C 393.77529,381.97648 382.83953,380 377.16797,380 374.12967,380 373,379.59342 373,378.5 c 0,-2.00361 5.88662,-1.97364 17.90039,0.0898 5.08936,0.87423 9.48858,1.35517 9.77539,1.06836 0.62055,-0.62055 -9.64084,-3.78769 -10.54883,-3.25586 -1.12862,0.66106 -11.8247,-1.87727 -12.23047,-2.90234 -0.21772,-0.55 1.09191,-1.14358 2.91211,-1.31836 3.40533,-0.327 15.64755,1.28767 18.73047,2.4707 1.22276,0.46921 1.5946,0.25158 1.26367,-0.74218 -0.25812,-0.77514 -1.10533,-1.48658 -1.88476,-1.58008 C 390.56186,371.32739 382,369.53206 382,368.7832 c 0,-0.56037 3.55879,-0.6542 8.90039,-0.23632 9.56682,0.7484 11.99001,0.2305 10.02539,-2.13672 C 400.09996,365.41511 397.44456,365 391.91602,365 h -7.83985 l 4.86524,-9.75 c 6.3334,-12.69045 10.20444,-24.28782 11.59765,-34.75 0.56183,-4.21904 -2.32323,-27.28666 -3.93945,-31.5 -0.79531,-2.07331 -1.16299,-5.74194 -0.9043,-9 0.28793,-3.62621 -0.44373,-9.58827 -2.14453,-17.5 -3.59057,-16.70252 -3.63969,-16.88079 -4.98633,-18 -0.66177,-0.55 -3.87076,-5.5 -7.13086,-11 -6.68337,-11.27531 -14.53574,-19.757 -20.76171,-22.42578 -2.31037,-0.99034 -4.76355,-2.4781 -5.45118,-3.30664 -2.83117,-3.41135 -22.22436,-11.4594 -30.81836,-12.78906 -3.24607,-0.50223 -7.65005,-1.3444 -9.78711,-1.8711 -4.13451,-1.019 -18.21989,0.008 -27.11523,1.97852 -5.44544,1.20615 -19.42541,6.47245 -23.625,8.89844 -7.46139,4.31021 -23.57291,19.04907 -26.16016,23.93164 l -1.78515,3.36718 -2.24219,-2.10742 c -1.23403,-1.15931 -4.03246,-2.74382 -6.2168,-3.51953 -2.18434,-0.77572 -7.3457,-2.97122 -11.4707,-4.87891 -4.125,-1.9077 -9.23003,-4.03703 -11.3457,-4.73242 -2.11567,-0.69538 -5.04067,-1.88702 -6.5,-2.64844 -1.45933,-0.76141 -3.4027,-1.38762 -4.31836,-1.39062 -0.91566,-0.003 -3.29477,-2.2273 -5.28711,-4.94141 -2.33716,-3.18385 -4.82335,-5.33049 -7.00586,-6.05078 -1.8605,-0.61402 -3.92278,-1.7662 -4.58203,-2.56055 -0.65924,-0.79434 -2.93105,-1.96315 -5.04883,-2.59765 -3.73567,-1.11923 -10.28334,-7.60164 -13.23828,-13.10547 -0.6646,-1.23788 -1.98375,-3.40235 -2.93164,-4.81055 -3.82113,-5.6767 -4.82077,-11.77915 -4.57617,-27.93945 0.45139,-29.82347 0.34201,-31.27239 -2.78321,-36.6582 -1.54505,-2.66264 -5.16975,-7.12697 -8.05273,-9.91992 l -5.24024,-5.07813 4.83008,-5.064453 c 2.65705,-2.78575 5.73726,-5.353271 6.8457,-5.705078 1.17027,-0.371418 2.91157,-2.723165 4.15235,-5.607422 C 152.40255,78.515795 153.63194,77 154.94531,77 c 5.36721,0 8.01425,-4.098991 8.21485,-12.724609 0.10374,-4.460753 -0.40829,-6.68547 -2.24805,-9.775391 -3.27238,-5.49607 -8.4398,-10.5 -10.84375,-10.5 -1.09899,0 -2.45892,-0.863152 -3.02344,-1.917969 -1.27525,-2.382829 -7.77789,-4.041249 -15.64453,-4.310547 z m -6.19922,10.248047 c -0.71005,0.143893 -1.01749,2.105763 -0.76758,5.642578 0.27997,3.962163 -0.061,6.364165 -1.13281,8 -2.30709,3.521068 -3.00754,2.882492 -3.51172,-3.197265 -0.50921,-6.140361 -2.01153,-8.640806 -3.99804,-6.654297 -0.94642,0.946415 -0.83756,1.839216 0.5,4.103515 2.29427,3.883897 2.15428,8.629441 -0.37305,12.71875 -2.68204,4.33963 -3.30016,4.249318 -2.63867,-0.382812 0.66796,-4.677504 -1.32415,-11.75 -3.31055,-11.75 -0.99844,0 -1.34901,0.799562 -1.0957,2.5 0.6148,4.127019 0.51114,12.949795 -0.16016,13.621094 -0.34464,0.344644 -2.20948,-0.306709 -4.14258,-1.447266 -3.78247,-2.231713 -5.38277,-1.447744 -3.42969,1.679688 2.38175,3.813781 13.52915,3.637617 16.08204,-0.253907 0.46688,-0.711701 1.29783,-0.27915 2.35546,1.222657 0.89938,1.276993 2.60065,2.709902 3.7793,3.185546 3.28971,1.327564 7.75452,1.175722 7.56836,-0.257812 -0.0892,-0.6875 -0.11022,-2.123784 -0.0449,-3.191406 0.11728,-1.921506 0.13453,-1.921506 1.55273,0 1.13373,1.536089 1.69157,1.685316 2.67579,0.714844 0.99044,-0.976653 0.90142,-1.602948 -0.4336,-3.078126 -2.08022,-2.298618 -2.16032,-3.595522 -0.17578,-2.833984 0.825,0.316583 1.5,0.195863 1.5,-0.269531 0,-1.538711 -2.7697,-3.181096 -6.34766,-3.761719 -3.31104,-0.537308 -3.49432,-0.762982 -3.0039,-3.701172 1.09748,-6.575148 1.15203,-9.133267 0.23242,-10.851562 -0.68289,-1.275989 -1.25365,-1.844148 -1.67969,-1.757813 z m 87.58985,2.16211 c 0.33886,-0.108123 0.63753,-0.08708 0.8125,0.08789 0.34993,0.349934 0.82306,17.420195 1.05273,37.933594 0.22967,20.513395 0.5138,43.934265 0.63086,52.046875 0.19426,13.46231 0.0601,14.75019 -1.53711,14.75 -0.9625,-1.1e-4 -1.76536,-0.1125 -1.78516,-0.25 -0.0198,-0.1375 -0.35731,-16 -0.75,-35.25 -1.05701,-51.815731 -0.94256,-67.175271 0.51758,-68.634766 0.33917,-0.339015 0.71973,-0.57547 1.0586,-0.683593 z m 185.46484,1.277343 c -0.19861,0.07927 -0.38496,0.211488 -0.58008,0.316407 0.13278,0.04637 0.23899,0.06656 0.39258,0.132812 0.021,-0.05457 0.0907,-0.230953 0.10156,-0.261719 0.0297,-0.06198 0.0566,-0.12534 0.0859,-0.1875 z M 128.38281,66 c 1.375,0 2.77727,0.45 3.11719,1 0.34907,0.564809 -0.47078,1 -1.88281,1 -1.375,0 -2.77727,-0.45 -3.11719,-1 -0.34907,-0.564809 0.47078,-1 1.88281,-1 z m 28.59961,3.230469 c 0.35126,-0.0097 0.71732,0.08308 1.06641,0.298828 0.7168,0.443009 0.67746,1.095992 -0.12305,2.060547 C 156.41483,73.41043 155,73.394677 155,71.558594 c 0,-1.344271 0.92865,-2.298911 1.98242,-2.328125 z M 124,70 c 1.46667,0 2,0.666667 2,2.5 0,2.729605 -0.93666,3.164902 -2.80078,1.300781 C 121.35903,71.960593 121.7724,70 124,70 Z m 25.78711,4.048828 c 1.4178,0.0054 1.31188,0.52827 0.60547,2.369141 -0.33384,0.869983 -0.89634,1.520212 -1.25,1.445312 -0.35365,-0.0749 -1.68197,-0.333666 -2.95117,-0.576172 -3.263,-0.623464 -2.1543,-2.725409 1.63476,-3.099609 0.84509,-0.08346 1.48834,-0.140476 1.96094,-0.138672 z M 144.5,78 c 0.825,0 1.5,0.45 1.5,1 0,0.55 -0.675,1 -1.5,1 -0.825,0 -1.5,-0.45 -1.5,-1 0,-0.55 0.675,-1 1.5,-1 z m 134.29102,0.212891 C 262.11057,77.968079 228.22259,78.796574 224,79.914062 c -2.27916,0.603201 8.18518,0.815257 30,0.607422 18.425,-0.175539 33.6125,-0.364367 33.75,-0.419922 0.1375,-0.05555 0.25,-0.620553 0.25,-1.255859 0,-0.348982 -3.64884,-0.551208 -9.20898,-0.632812 z m 117.80859,3.166015 c -0.0349,0.08595 -0.0593,0.135428 -0.0918,0.212891 0.0436,0.852989 0.0446,1.266859 0.0918,2.158203 -10e-4,-0.790351 0.001,-1.580741 0,-2.371094 z M 143.29297,83.375 C 143.47422,83.29507 143.725,83.33004 144,83.5 c 0.55,0.339919 1,0.816053 1,1.058594 C 145,84.801135 144.55,85 144,85 c -0.55,0 -1,-0.476135 -1,-1.058594 0,-0.291229 0.11172,-0.486478 0.29297,-0.566406 z m -5.92774,5.609375 c 0.9654,0.08364 1.61122,0.635981 1.24219,1.597656 -0.33385,0.869984 -0.60742,1.769984 -0.60742,2 C 138,92.812048 136.875,93 135.5,93 c -2.72961,0 -3.1649,-0.93666 -1.30078,-2.800781 0.91442,-0.914427 2.20062,-1.298479 3.16601,-1.214844 z m -38.175777,0.138672 c 2.408747,-0.123319 2.934427,0.416423 4.197267,2.34375 2.17149,3.314112 1.35356,4.513126 -1.38672,2.033203 -1.10674,-1.001589 -2.296448,-1.537536 -2.642578,-1.191406 -1.05184,1.05184 2.473458,5.556718 6.800778,8.691406 4.29464,3.11102 18.11056,10 20.05469,10 1.6156,0 -3.18042,-4.91341 -6.46289,-6.62109 -5.38443,-2.80121 -1.82867,-5.336972 3.75195,-2.67579 3.02674,1.44336 3.79727,1.47473 6.08203,0.25196 2.27281,-1.21637 2.76716,-1.20181 3.76563,0.10937 0.63221,0.83022 2.55491,2.49497 4.27148,3.69922 3.93832,2.76291 8.38335,11.70373 8.37305,16.83985 -0.004,2.14358 0.0139,4.57148 0.0391,5.39648 0.0252,0.825 0.21535,9.15 0.42188,18.5 0.26981,12.2145 0.82008,18.23104 1.95898,21.375 0.87181,2.40665 1.58594,4.54415 1.58594,4.75 0,1.07396 -2.50672,0.0896 -5.41016,-2.125 -3.90598,-2.97923 -6.1617,-3.16799 -7.51953,-0.63086 -1.24538,2.327 -0.40782,3.25187 2.32813,2.57227 1.42886,-0.35492 3.22187,0.4721 5.60156,2.58203 3.26425,2.89421 3.33161,3.06865 1,2.5957 -6.32388,-1.28276 -12.99819,-1.79567 -12.99219,-0.99805 0.004,0.48336 3.4914,1.95961 7.75,3.28125 7.52625,2.33573 15.10345,7.02585 17.97461,11.125 1.22699,1.75177 1.17693,2.06251 -0.41992,2.61524 -7.41192,2.56555 -10.00733,4.33333 -12.76172,8.6914 -1.62222,2.56664 -3.31468,4.66602 -3.75976,4.66602 -1.71548,0 -7.34045,-5.82641 -12.89649,-13.35938 -6.46419,-8.76425 -6.45362,-7.75153 -0.16797,-16.2539 3.4526,-4.67021 7.28861,-14.7944 9.42969,-24.88672 2.29595,-10.82236 2.14847,-16 -0.45703,-16 -1.51056,0 -1.86081,1.04665 -2.17774,6.5 -0.20776,3.575 -0.85974,7.76614 -1.44921,9.31445 -0.58948,1.5483 -1.07227,4.12716 -1.07227,5.73047 0,5.19817 -5.1442,15.90072 -9.89453,20.58399 -5.14292,5.07026 -6.4775,5.44783 -5.71875,1.62109 1.62338,-8.18752 1.77764,-10.25 0.76953,-10.25 -0.58628,0 -1.35127,1.6875 -1.69922,3.75 -1.02592,6.08126 -1.51363,7.25 -3.02539,7.25 -0.78793,0 -1.43164,0.45 -1.43164,1 0,1.29502 -5.69282,1.30692 -6.49219,0.0137 -0.33535,-0.54262 -0.15298,-2.63797 0.4043,-4.65625 1.14114,-4.13288 0.7119,-5.53408 -1.44336,-4.70703 -0.89152,0.34208 -1.46875,1.89641 -1.46875,3.95703 0,3.7779 -0.18973,3.91569 -2.98828,2.16797 -1.383516,-0.86402 -2.274655,-0.91284 -3.023439,-0.16406 -0.606538,0.60654 -2.653752,0.80449 -4.77539,0.46094 -3.589646,-0.58125 -3.734676,-0.76866 -4.375,-5.58789 -1.235694,-9.30014 -0.839033,-20.9504 1.05664,-30.98438 3.181209,-16.83844 3.487592,-35.23741 0.601563,-36.15234 -0.548012,-0.17373 -1.629798,0.0864 -2.404297,0.57617 -1.197418,0.75724 -1.160001,1.4134 0.25,4.38476 1.843557,3.885 2.069836,6.49423 0.744141,8.58789 -0.68642,1.08405 -1.217569,0.74917 -2.38086,-1.5 -2.138673,-4.13503 -9.57074,-9.93121 -10.957031,-8.54492 -0.776608,0.77661 -0.612162,1.26365 0.583984,1.72266 C 76.24884,111.92597 77,112.76331 77,113.43359 c 0,0.67029 1.166295,2.3092 2.591797,3.64258 1.425503,1.33337 3.040903,3.25666 3.589844,4.27539 1.764212,3.27404 2.874596,14.43291 1.882812,18.92188 -2.015322,9.12168 -2.778568,23.05243 -1.845703,33.69922 0.413097,4.71468 0.267087,7.94108 -0.394531,8.73828 -1.556829,1.87586 -0.210599,4.28897 2.394531,4.29297 2.536632,0.004 8.78125,3.46248 8.78125,4.86328 0,0.49328 -1.6875,0.29464 -3.75,-0.44141 C 85.82778,189.84762 75.386604,189.56544 74.5,191 c -1.269026,2.05333 0.552611,2.74699 4.824219,1.83594 3.554896,-0.75818 5.385221,-0.54278 9.99414,1.18164 7.588153,2.83909 8.484409,4.47499 2.033203,3.71094 -2.728667,-0.32317 -5.599379,-0.19466 -6.378906,0.2871 -1.781774,1.10123 -0.828928,1.47852 7.429688,2.9336 6.037881,1.06381 12.022656,4.01407 17.511716,8.63281 1.69973,1.43023 2.86532,2.96444 2.58985,3.41016 -1.00201,1.62129 -11.13756,7.6993 -16.386722,9.82617 C 93.156343,224.01805 90.40705,225 90.007812,225 c -0.399231,0 -3.152264,-1.28184 -6.117187,-2.84961 -2.964922,-1.56778 -6.528219,-3.12794 -7.917969,-3.46484 C 72.447466,217.831 65.812773,211.87697 63.908203,207.85938 62.36675,204.60775 57.979196,188.56591 57.519531,184.5 c -0.124359,-1.1 -0.699891,-3.8 -1.277343,-6 -0.577456,-2.2 -1.145087,-10.75 -1.261719,-19 -0.116631,-8.25 -0.235655,-16.575 -0.265625,-18.5 -0.02997,-1.925 0.46087,-5.525 1.091797,-8 0.630927,-2.475 1.735035,-6.975 2.453125,-10 2.230633,-9.39669 6.590526,-16.82501 12.384765,-21.10547 2.851086,-2.106215 6.434918,-4.990315 7.964844,-6.408202 2.952937,-2.73669 7.902873,-5.276961 10.390625,-5.332031 0.825,-0.01826 4.000653,-0.338564 7.056641,-0.712891 1.318836,-0.161542 2.329897,-0.277253 3.132812,-0.318359 z m 188.699217,4.820312 c 1.02255,-0.326946 1.46873,0.786604 1.69727,4.226563 l 0.31054,4.669918 -7.19726,0.5586 c -3.95904,0.30752 -16.42422,1.0224 -27.69922,1.58789 -11.275,0.5655 -23.9875,1.25886 -28.25,1.54297 -4.2625,0.28411 -7.77308,0.16951 -7.80078,-0.25586 -0.0276,-0.42537 -0.2175,-2.71068 -0.42188,-5.07813 -0.32547,-3.770104 -0.0796,-4.415219 1.98243,-5.199216 1.32547,-0.503944 3.64357,-0.52522 5.30468,-0.04883 1.62927,0.467265 6.69808,0.449851 11.31836,-0.03906 4.60188,-0.486981 17.59219,-1.028557 28.86719,-1.203125 11.275,-0.174568 21.12526,-0.517619 21.88867,-0.761719 z m 1.26953,12.068361 -0.69336,8.54687 c -0.38069,4.70062 -0.76281,14.70847 -0.84961,22.24024 l -0.1582,13.69531 -5.47851,0.69531 c -3.01336,0.38228 -17.17852,1.17954 -31.47852,1.77344 -14.3,0.59389 -27.22362,1.34603 -28.71875,1.66992 -2.47543,0.53625 -2.70935,0.33337 -2.62305,-2.27148 0.0521,-1.5733 -0.24108,-11.46278 -0.65234,-21.97656 -0.50968,-13.02992 -0.41576,-19.32204 0.29883,-19.76368 0.57661,-0.35636 11.40551,-0.84284 24.0625,-1.08007 12.65698,-0.23723 24.72659,-0.85991 26.82226,-1.38477 2.09568,-0.52485 7.33277,-1.2219 11.63867,-1.54883 z M 122.07227,114 c -2.73298,0 -6.58867,8.71929 -7.95899,18 -0.60908,4.125 -1.51374,9.75 -2.01172,12.5 -0.81069,4.47688 -0.65805,8.61471 0.45313,12.25 0.21014,0.6875 1.00985,1.25 1.77539,1.25 1.07735,0 1.50417,-2.54474 1.88867,-11.25781 0.49908,-11.30925 3.34771,-23.16229 6.44531,-26.82031 C 124.71418,117.50084 124.36384,114 122.07227,114 Z m -26.064458,27.5 c -0.970044,0 -1.899883,1.75121 -2.654296,5 -2.257938,9.72354 -1.200918,19.31774 2.451172,22.24023 0.852035,0.68181 1.248437,1.54063 0.880859,1.90821 -0.367578,0.36758 -0.151449,1.29132 0.480469,2.05273 1.76286,2.12412 2.885564,0.19754 3.531254,-6.05859 0.49286,-4.77535 0.3327,-5.64258 -1.039067,-5.64258 -0.894918,0 -1.901608,1.11968 -2.248047,2.5 -1.181692,4.70824 -2.410747,2.5017 -2.367187,-4.25 0.03791,-5.87595 0.653419,-10.69149 2.074219,-16.25 0.213362,-0.83472 -0.278583,-1.5 -1.109376,-1.5 z m 287.859378,27.13672 c 0.0105,0.15155 0.0166,0.30354 0.0508,0.44922 0.0623,0.26591 0.15652,0.52301 0.24023,0.7832 0.0254,-0.0773 0.0461,-0.17203 0.0723,-0.24609 -0.10657,-0.29551 -0.24111,-0.65116 -0.36328,-0.98633 z M 109.98047,171 C 109.44095,171 109,172.8 109,175 c 0,3.95757 1.5246,5.40127 2.63867,2.49805 C 112.39329,175.53156 111.23695,171 109.98047,171 Z m -20.476564,11.09766 c 0.475261,-0.039 1.397783,0.31699 3.181641,1.0332 1.548305,0.62164 5.514453,1.6356 8.814453,2.25391 l 6,1.125 0.29883,6.89648 c 0.16452,3.79303 -0.0939,7.28921 -0.57422,7.76953 C 106.30105,202.09934 98,193.66288 98,191.80078 98,190.34 93.528682,186.3018 91.033203,185.50977 89.915478,185.15502 89,184.21958 89,183.43164 c 0,-0.86258 0.02865,-1.29499 0.503906,-1.33398 z M 51.841797,185 c 1.010184,0 3.145561,6.76737 3.191406,10.11523 0.01796,1.31119 0.872517,4.81974 1.900391,7.79688 l 1.86914,5.41406 -6.65039,6.60547 c -3.658329,3.63294 -7.784732,7.58915 -9.167969,8.79102 l -2.513672,2.18359 -3.986328,-2.22852 c -3.321407,-1.85734 -4.03438,-2.81451 -4.283203,-5.7539 -0.29334,-3.46529 1.018541,-5.51787 6.205078,-9.71289 C 39.283056,207.50176 40,205.58926 40,203.96094 40,202.33263 40.45,201 41,201 c 0.55,0 1,-0.57063 1,-1.26758 0,-0.69694 2.025,-3.58085 4.5,-6.41015 2.475,-2.82929 4.5,-5.86063 4.5,-6.73438 C 51,185.71413 51.378856,185 51.841797,185 Z m 62.376953,1.18555 c 2.47873,0.36352 3.0127,1.96197 5.36133,16.00781 0.892,5.33453 1.46472,10.16871 1.27148,10.74414 -0.48102,1.4324 -5.53123,-1.83145 -9.83984,-6.35938 -2.72536,-2.86403 -3.1875,-3.85171 -2.11328,-4.51562 0.78709,-0.48645 1.55324,-3.1388 1.79297,-6.20508 0.69134,-8.84256 1.12332,-10.02443 3.52734,-9.67187 z m 7.07031,2.1914 c 0.2241,-0.22411 2.01778,2.18659 3.98438,5.35743 1.96661,3.17079 5.96473,8.19568 8.88672,11.16601 4.85573,4.93604 5.31417,5.79621 5.32617,10 0.0152,5.33223 0.99055,5.76944 10.27539,4.60938 6.97197,-0.87109 5.88934,-1.91961 -2.03516,-1.97071 -4.85616,-0.0313 -6.25215,-0.38423 -6.5,-1.64258 -0.63733,-3.23569 21.18331,-5.41898 25.02344,-2.5039 2.96433,2.25024 2.02822,3.60675 -2.5,3.62304 -2.3375,0.008 -4.925,0.4661 -5.75,1.01758 -1.2671,0.84701 -1.06348,1.38775 1.30664,3.48438 2.57843,2.2809 3.59412,2.48242 12.54883,2.48242 5.53278,0 10.2026,-0.45846 10.80469,-1.06055 0.74718,-0.74718 2.50579,-0.0967 5.95117,2.20117 4.91246,3.27628 17.40374,12.94764 20.43359,15.82032 0.89292,0.84659 4.84788,4.15257 8.78906,7.34765 3.94118,3.19508 7.16602,6.1463 7.16602,6.5586 0,0.4123 -0.57726,1.54043 -1.2832,2.50586 -1.21974,1.6681 -1.40609,1.66241 -3.75,-0.1211 -1.35656,-1.03222 -8.38429,-5.11468 -15.61719,-9.07226 -14.36741,-7.86131 -38.66345,-16.64197 -54.84961,-19.82227 -7.899,-1.55202 -9.10589,-2.09878 -12.33594,-5.58984 -1.96907,-2.12818 -5.73525,-5.51333 -8.37109,-7.52344 C 124.83839,212.22833 124,211.0317 124,208.4043 c 0,-1.75122 -0.70116,-6.88235 -1.55859,-11.40235 -0.85743,-4.51999 -1.37645,-8.4009 -1.15235,-8.625 z m 39.76367,7.90625 c 1.83524,0.0786 3.85869,0.66443 6.26563,1.72657 12.88269,5.68488 15.59379,7.20686 17.20508,9.66601 l 1.7207,2.625 -3.74609,-0.60742 c -2.06017,-0.33432 -4.47876,-1.25696 -5.37305,-2.05078 -0.89428,-0.79381 -3.73616,-2.61361 -6.31641,-4.04297 -3.40331,-1.88531 -4.89403,-2.27175 -5.42773,-1.4082 -0.40463,0.65471 -0.24906,1.35252 0.3457,1.55078 0.59476,0.19825 2.36262,1.46256 3.92774,2.80859 1.56512,1.34604 3.33633,2.4466 3.93554,2.44727 0.59922,6.7e-4 1.63227,1.19562 2.29688,2.65429 0.66461,1.45866 0.85095,2.98566 0.41211,3.39454 -1.38701,1.29229 -5.28968,-0.89096 -6.28906,-3.51954 -0.52839,-1.38976 -1.30827,-2.5452 -1.73438,-2.5664 -0.42611,-0.0212 -4.31009,-0.15494 -8.63086,-0.29688 -7.17502,-0.23572 -7.97007,-0.46796 -9.16211,-2.69531 -1.19875,-2.23988 -1.02925,-2.70672 2.07617,-5.72266 2.90147,-2.81787 5.43542,-4.09389 8.49414,-3.96289 z m 146.22266,1.96485 c 11.50122,0.32758 23.59495,3.1456 34.12305,8.17578 5.44413,2.60113 10.5396,5.36969 11.32226,6.15234 0.78265,0.78266 1.81359,1.42383 2.29297,1.42383 1.86157,0 19.86681,16.36274 19.95508,18.13477 0.0174,0.34893 3.20495,6.63283 7.08398,13.96484 3.99696,7.5549 7.91856,16.56208 9.05079,20.78711 1.09882,4.10037 1.86261,8.80746 1.69726,10.46094 -0.2777,2.77695 -0.71238,2.32586 -5.69726,-5.91993 -7.53927,-12.4712 -14.96674,-21.30588 -22.85547,-27.18359 -3.71114,-2.76508 -8.00799,-6.20219 -9.54883,-7.63672 C 353.15838,235.17289 351.65386,234 351.35742,234 c -0.29644,0 -2.85954,-1.96219 -5.69726,-4.36133 -12.18236,-10.29954 -36.65922,-15.56605 -54.12891,-11.64648 -10.83302,2.43054 -22.61999,9.94499 -35.75977,22.79883 l -5.73046,5.60546 -5.4004,-5.53125 c -5.3871,-5.51766 -5.39669,-5.53747 -3.5996,-7.91992 0.99089,-1.31366 1.57368,-2.75793 1.29492,-3.20898 -0.99045,-1.60259 17.61891,-17.72413 22.41211,-19.41602 0.964,-0.34027 2.69457,-1.46539 3.84765,-2.5 2.8351,-2.54381 11.13478,-5.64352 21.4043,-7.99609 3.91926,-0.89784 8.08855,-1.41416 12.38867,-1.5625 1.61255,-0.0556 3.24369,-0.0605 4.88672,-0.0137 z m -159.72461,8.33203 c 1.06124,-0.0511 1.75986,1.10828 0.94922,2.41992 -0.76156,1.23222 -3.5,1.32864 -3.5,0.12305 0,-0.48265 0.63413,-1.40478 1.41016,-2.04883 0.39177,-0.32514 0.78688,-0.47712 1.14062,-0.49414 z M 180.27734,212 c 2.83892,0 6.72266,2.63235 6.72266,4.55664 0,2.43433 -5.50643,1.46558 -7.75,-1.36328 C 177.42319,212.88998 177.70952,212 180.27734,212 Z m -119.18359,0.0449 c 0.189805,0.003 0.360603,0.0774 0.509766,0.22656 0.358393,0.35839 -0.08127,2.88975 -0.976563,5.62696 C 58.819854,223.42343 58.629618,225 59.765625,225 c 0.420904,0 1.564303,-2.25 2.541016,-5 0.976714,-2.75 2.094493,-4.98625 2.484375,-4.96875 1.795185,0.0805 4.499908,3.11906 4.742187,5.32617 0.147436,1.34311 1.595061,5.29818 3.216797,8.79102 1.621736,3.49283 3.71291,8.03906 4.646484,10.10156 1.788169,3.95052 1.973392,4.04029 7.751954,3.77734 3.66203,-0.16664 5.822998,1.25458 3.804687,2.50196 -0.593932,0.36707 -2.848709,4.28475 -5.009766,8.70703 -2.161057,4.42228 -4.44905,8.6701 -5.085937,9.4375 -0.881417,1.06204 -0.854168,1.96433 0.117187,3.77929 2.340555,4.37336 -0.943887,20.61966 -5.076171,25.11133 C 72.853836,293.6999 72,295.76835 72,297.16016 c 0,3.52714 -5.296467,7.56472 -12.994141,9.90625 -2.467423,0.75059 -2.468783,0.76305 -0.1875,0.84765 1.910418,0.0709 2.206005,0.48108 1.685547,2.33594 -0.93133,3.31917 -11.948902,24.89303 -18.001953,35.25 -2.892991,4.95 -5.570784,10.0125 -5.949219,11.25 -0.378434,1.2375 -1.097398,2.25 -1.597656,2.25 -1.678713,0 -3.936184,-4.58824 -4.583984,-9.31445 C 29.84811,345.86997 30.011822,345 31.255859,345 c 1.807777,0 3.035796,-3.76708 3.259766,-10 0.270335,-7.52325 3.36038,-30.54503 4.503906,-33.55273 0.590673,-1.55359 1.953209,-3.44101 3.027344,-4.19336 C 43.121011,296.50155 44,295.27243 44,294.52148 c 0,-0.75096 1.9125,-3.00308 4.25,-5.0039 2.3375,-2.00081 4.257225,-3.94858 4.265625,-4.32813 0.0084,-0.37954 0.3498,-1.21413 0.757813,-1.85547 0.408011,-0.64135 0.27847,-2.38351 -0.28711,-3.87109 -0.56558,-1.48759 -1.48564,-5.68792 -2.044922,-9.33398 C 50.382125,266.48284 49.745318,262.375 49.527344,261 c -0.217973,-1.375 -0.703106,-9.025 -1.078125,-17 -0.431642,-9.1791 -1.166621,-15.2781 -2.003907,-16.62109 -1.17824,-1.88989 -1.024134,-2.40845 1.419922,-4.75 3.578358,-3.42828 4.445709,-3.31824 3.615235,0.46289 -0.56256,2.56132 -0.393453,3.0337 0.992187,2.75 1.002375,-0.20523 2.397599,-2.48321 3.478516,-5.6836 1.597423,-4.72967 3.813946,-8.13525 5.142578,-8.11328 z M 190,214.28711 l 7.86133,2.78125 c 11.47933,4.06221 24.44791,10.31932 31.1875,15.04687 l 5.89844,4.13672 -1.81055,2.30078 c -0.99516,1.26513 -2.61603,4.47008 -3.60352,7.12305 -2.42557,6.51642 -2.78564,6.75487 -5.5957,3.70703 -3.468,-3.76143 -30.8852,-25.7652 -34.45508,-27.65234 -2.52999,-1.33744 -2.71654,-1.6796 -1.23242,-2.25977 0.9625,-0.37625 1.75,-1.69629 1.75,-2.93359 z m -70.41406,2.17773 c 2.84514,0.0966 5.67576,1.49579 10.59179,4.65039 5.1742,3.32028 6.20559,5.20247 2.57227,4.69727 -2.03304,-0.2827 -2.221,0.0514 -1.95312,3.46289 0.16301,2.07651 1.17554,5.82545 2.25,8.33203 2.45703,5.73211 2.44924,6.68479 -0.0469,5.89258 -1.41932,-0.45047 -2,-0.18067 -2,0.93164 0,1.98213 -1.3851,2.014 -3,0.0684 -0.68469,-0.825 -1.6404,-1.5 -2.12305,-1.5 -0.48266,0 -0.87695,0.675 -0.87695,1.5 0,2.17437 -3.75692,1.84418 -4.4668,-0.39258 -0.33035,-1.04085 -2.02237,-2.48266 -3.76172,-3.20312 C 113.21046,239.42904 107,234.29817 107,232.83008 c 0,-0.52973 -1.16984,-2.49656 -2.59961,-4.3711 l -2.59961,-3.4082 3.59961,-2.125 c 1.97977,-1.1681 3.59961,-2.43915 3.59961,-2.82617 0,-0.38703 2.24811,-1.51379 4.99609,-2.50195 2.17015,-0.78038 3.88276,-1.19075 5.58985,-1.13282 z M 27.75,218.07031 C 28.9875,218.03165 30,218.45 30,219 c 0,0.55 -0.1125,0.96835 -0.25,0.92969 -0.1375,-0.0386 -1.15,-0.457 -2.25,-0.92969 -1.908356,-0.82005 -1.896901,-0.86259 0.25,-0.92969 z m 149.30273,0.0645 C 177.90347,218.24266 179,219.1737 179,220.05859 179,220.57613 178.57613,221 178.05859,221 c -1.17986,0 -2.44092,-1.9497 -1.72461,-2.66602 0.17908,-0.17907 0.43518,-0.23524 0.71875,-0.19921 z m -7.81054,0.0527 c 2.13505,0.20638 3.35393,0.90995 3.57226,2.0625 0.37536,1.98144 -2.2226,2.32515 -5.06445,0.66992 -2.80712,-1.63499 -2.02191,-3.0721 1.49219,-2.73242 z m -6.34961,0.1543 c 1.29466,-0.0327 2.10742,0.76443 2.10742,2.21679 0,1.79833 -1.08528,1.83012 -3.44922,0.10157 -1.71489,-1.25396 -1.72198,-1.38014 -0.10156,-2.00196 0.52659,-0.20207 1.0118,-0.30549 1.44336,-0.3164 z m 144.43554,2.21679 c 13.1909,0.10943 28.56624,3.45309 33.63672,8.09961 2.09983,1.92426 -0.0694,1.67471 -6.82617,-0.7832 -10.65182,-3.87485 -18.95025,-5.08526 -30.13867,-4.39648 -5.775,0.35552 -12.5193,1.02691 -14.98633,1.49218 -7.62749,1.43847 -2.03742,-1.5475 6.31445,-3.37304 3.44897,-0.75387 7.60308,-1.07554 12,-1.03907 z M 73.353516,222.3125 c 0.283028,-0.28303 2.231423,0.41177 4.330078,1.54297 5.530688,2.98112 10.823904,4.1084 16.257812,3.46484 4.588899,-0.54349 4.877727,-0.42414 7.593754,3.13672 3.10804,4.07485 2.99126,4.32882 -3.25391,7.10938 C 96.511415,238.3544 92.373659,239 89.083984,239 c -5.57825,0 -6.148017,-0.21896 -8.435546,-3.25 -3.410528,-4.51904 -7.91528,-12.81715 -7.294922,-13.4375 z m 210.548824,2.87695 c 0.062,0.16119 -0.40386,0.54072 -1.34375,1.28125 -2.35051,1.85195 -3.87463,1.9803 -3.31445,0.2793 0.22642,-0.6875 1.50206,-1.37563 2.83398,-1.5293 1.17258,-0.13528 1.76226,-0.19269 1.82422,-0.0312 z m 25.22266,2.19532 c 3.14048,0.10775 6.78494,0.36561 11.19727,0.74804 8.83069,0.76539 12.04388,1.51613 17.47461,4.08203 12.72183,6.01077 30.10082,18.52799 35.10351,25.28516 8.18432,11.0546 11.99415,16.99688 14.79297,23.07031 3.79017,8.22466 7.30664,19.61393 7.30664,23.66407 0,1.59352 0.39764,3.65569 0.88477,4.58203 1.25817,2.39264 -0.62268,22.84049 -2.54688,27.68359 -2.81999,7.09776 -8.52438,19.2487 -12.33789,26.28125 -2.21544,4.08552 -18.40747,19.60278 -22.74805,21.80078 -2.06389,1.04512 -4.42695,2.37565 -5.25195,2.95703 -2.12594,1.49814 -16.69129,7.16171 -21.72656,8.44727 -3.77252,0.96317 -21.88526,1.08771 -29.77344,0.20508 -8.31172,-0.93001 -20.90065,-4.51257 -28.5,-8.10938 -12.33785,-5.83956 -29.28115,-20.78884 -37.80469,-33.35742 C 232.20743,350.31877 229,341.65705 229,337.99609 c 0,-1.17031 -0.55003,-3.11116 -1.22266,-4.3125 -0.67263,-1.20134 -1.30469,-3.08359 -1.40429,-4.18359 -0.0996,-1.1 -0.71888,-6.05 -1.375,-11 -1.65564,-12.49078 -1.30755,-20.18615 1.11718,-24.7168 0.82252,-1.53689 3.83713,-10.36743 4.36329,-12.7832 0.0599,-0.275 1.66325,-3.12768 3.56445,-6.33984 1.90119,-3.21215 4.28363,-7.26215 5.29297,-9 1.00934,-1.73784 3.77286,-5.18516 6.14258,-7.66016 2.36971,-2.475 4.60495,-5.49098 4.96679,-6.70117 0.36185,-1.21019 2.20887,-3.15791 4.10547,-4.33008 1.8966,-1.17216 3.44922,-2.4422 3.44922,-2.82227 0,-0.80769 5.49475,-3.7243 8.75,-4.64453 1.2375,-0.34982 2.25,-1.08179 2.25,-1.625 0,-1.3276 10.43728,-5.87695 13.48242,-5.87695 1.33344,0 3.45733,-0.41 4.7207,-0.91016 7.60013,-3.00876 12.50043,-4.02833 21.92188,-3.70507 z m -173.44922,1.76367 c 4.99528,0.22306 22.51465,4.1814 29.48828,6.85156 4.30964,1.65013 11.54844,4.40806 16.08594,6.12891 16.74379,6.35009 35.84831,17.27162 49.4375,28.26171 0.1034,0.0836 -1.43093,4.98008 -3.41016,10.88086 -1.97923,5.90077 -3.86333,10.72713 -4.1875,10.72657 -0.32416,-5.6e-4 -1.90256,-2.36306 -3.50586,-5.25 C 212.17964,273.41563 201.74149,264.17286 182.7793,254.1543 171.9059,248.4094 163.07736,245.21817 145,240.5 l -8.5,-2.21875 -1.36133,-4.19531 c -0.74914,-2.30731 -1.09605,-4.46255 -0.76953,-4.78906 0.13519,-0.13519 0.59303,-0.18031 1.30664,-0.14844 z M 104.91211,238 c 1.08699,0 3.23808,1.12571 4.78125,2.50195 2.73662,2.44059 2.75853,2.53916 0.86523,4 -1.06762,0.82376 -3.09262,1.47743 -4.5,1.45313 C 103.58445,245.91235 96,242.49745 96,241.42578 96,240.5888 102.73426,238 104.91211,238 Z m 131.58789,0.0606 6.30078,6.11523 6.30078,6.11524 -5.63867,5.60351 c -3.10054,3.0827 -6.50686,7.29297 -7.57031,9.35547 -1.06345,2.0625 -2.09207,3.75 -2.28516,3.75 -0.19308,0 -2.168,-1.6875 -4.38867,-3.75 l -4.03711,-3.75 5.66016,-11.71875 z m -93.49219,4.27539 c 0.87094,0.0923 1.83342,0.46004 3.15039,1.13281 1.83778,0.93883 5.1418,2.30439 7.3418,3.03516 2.2,0.73076 7.15,2.51606 11,3.96679 3.85,1.45073 8.49196,3.09234 10.31641,3.64844 1.82444,0.55609 5.55766,2.33332 8.29492,3.94727 2.73726,1.61395 5.34094,2.93359 5.78515,2.93359 0.44421,0 3.91097,2.75326 7.70508,6.11719 3.79409,3.36393 8.40063,7.27243 10.23633,8.68554 1.8357,1.41311 5.80359,6.3147 8.81836,10.89258 l 5.48242,8.32227 -1.24805,5.74219 c -1.59405,7.33963 -1.18751,24.98056 0.75391,32.74023 1.98593,7.9376 7.45745,19.23717 11.87891,24.5293 1.95892,2.34468 4.03591,5.14799 4.61523,6.23047 0.99035,1.85049 0.79351,1.93482 -3.29297,1.39648 -4.75846,-0.62687 -59.11795,-3.88457 -62.3457,-3.73633 -1.68039,0.0772 -9.2394,-0.61755 -27,-2.47851 -1.65,-0.17288 -4.49184,-0.34186 -6.31641,-0.37696 -2.77027,-0.0533 -3.2212,-0.37122 -2.72656,-1.92968 0.32577,-1.02641 0.10099,-6.08891 -0.5,-11.25 C 134.35605,340.72344 133.7004,334.7 133.5,332.5 c -0.20039,-2.2 -1.08033,-7.15 -1.95508,-11 -3.40561,-14.98882 -3.69349,-17.54488 -2.70312,-23.90625 0.73535,-4.72329 0.62573,-7.74023 -0.44727,-12.38477 -1.02102,-4.41958 -1.15485,-7.33983 -0.47851,-10.42382 1.6751,-7.63813 0.14075,-19.51865 -2.87305,-22.2461 -2.12343,-1.92167 -3.52479,-0.63198 -2.57227,2.36914 0.85621,2.69774 0.931,25.63378 0.0879,26.99805 -0.38708,0.62631 0.0523,3.41633 0.97657,6.19922 1.3298,4.00365 1.50464,6.45058 0.83984,11.72656 -0.90675,7.19607 -0.9051,7.22928 0.55664,14.66797 1.23358,6.27764 3.53414,18.76682 6.07813,33 1.08135,6.05 2.26443,15.6125 2.6289,21.25 0.59335,9.1776 0.48742,10.25 -1.00976,10.25 -1.93162,0 -9.49289,-11.14449 -10.3125,-15.19922 -0.29999,-1.48408 -1.77619,-4.07422 -3.2793,-5.75781 -1.50311,-1.6836 -3.42714,-4.52041 -4.27539,-6.30274 -3.25694,-6.84345 -6.6653,-15.36411 -7.29688,-18.24023 -0.36233,-1.65 -0.89875,-4.125 -1.1914,-5.5 -0.6788,-3.18934 -0.63351,-8.97406 0.0762,-9.68359 0.29942,-0.29942 2.16753,0.45812 4.15039,1.68359 1.98286,1.22547 3.85634,1.97764 4.16211,1.67188 0.30577,-0.30577 -1.20559,-2.71882 -3.35742,-5.36329 -4.4703,-5.49373 -5.19025,-6.98051 -8.38867,-17.30859 -1.27744,-4.125 -2.86729,-8.4 -3.533208,-9.5 -0.665918,-1.1 -2.436787,-5.6 -3.935546,-10 -3.200519,-9.39596 -7.173415,-18.27929 -9.28711,-20.76758 -1.356457,-1.59685 -1.255456,-2.0307 1.044922,-4.5 1.400203,-1.50302 2.977212,-4.08242 3.503906,-5.73242 1.170917,-3.66819 3.748904,-4.3369 6.63086,-1.71875 3.953366,3.5915 11.373416,3.34274 15.861326,-0.5332 1.51171,-1.30557 2.00024,-1.23505 4.38477,0.64062 1.9777,1.55566 4.10249,2.11133 8.08008,2.11133 5.66652,0 12.33398,-2.14646 12.33398,-3.9707 0,-0.58986 1.08348,-1.56634 2.4082,-2.16992 0.94929,-0.43254 1.72868,-0.61577 2.59961,-0.52344 z m 152.04883,6.09961 c -1.56784,0.069 -3.16647,0.25304 -4.59961,0.57422 -20.14769,4.5152 -38.83226,25.79661 -42.61719,48.53906 -1.26621,7.60825 -1.49523,24.30024 -0.37304,27.22461 0.79328,2.06725 3.06755,0.82736 2.8125,-1.53321 -0.20161,-1.86585 0.47547,-2.08237 8,-2.57812 4.52113,-0.29788 10.4707,-0.97522 13.2207,-1.50391 11.68327,-2.24611 17.63085,-3.19815 21.64258,-3.46679 l 4.26758,-0.28711 1.04492,-5.35742 c 1.34127,-6.87739 4.13909,-9.13182 11.63476,-9.37305 6.25198,-0.2012 5.7754,1.9235 3.97266,-17.67383 -2.88416,-31.35323 -3.36416,-33.92576 -6.33984,-33.98438 -1.03005,-0.0203 -0.0239,10.73249 2.35351,25.14454 1.05799,6.41355 1.92383,14.34007 1.92383,17.61328 v 5.95117 l -5.58984,0.65625 c -5.28283,0.62089 -5.7088,0.50552 -7.72657,-2.11133 -2.44765,-3.17435 -5.73832,-6.47373 -10.74023,-10.76953 -1.92121,-1.65 -6.40746,-5.51106 -9.96875,-8.58008 -3.56129,-3.06902 -7.48711,-6.43193 -8.72461,-7.47265 C 268.0125,268.4063 267,267.21189 267,266.79102 267,264.66667 293.3307,251 297.42383,251 c 2.40382,0 2.57745,0.31722 2.59375,4.75 0.01,2.6125 0.67309,8.75209 1.47461,13.64258 0.80153,4.8905 1.75982,12.89214 2.1289,17.78125 0.36908,4.88912 1.00777,9.09683 1.41993,9.35156 1.76773,1.09251 1.88146,-3.59766 0.39648,-16.38477 -3.18542,-27.42939 -3.27967,-28.62534 -2.33008,-29.76953 1.08647,-1.30911 -3.34724,-2.14261 -8.05078,-1.93554 z m 22.05859,1.07812 c -1.24775,-0.034 -2.12814,0.0988 -2.46289,0.4336 -0.55088,0.55088 0.62597,1.17591 2.9668,1.57617 7.47861,1.27879 28.38086,9.33839 28.38086,10.94336 0,0.8543 -8.36599,11.56456 -15.64844,20.0332 -3.7837,4.4 -8.56637,10.31828 -10.6289,13.15234 l -3.75,5.15235 4.35546,3.84765 c 5.08286,4.48905 5.98645,7.65175 4.03711,14.12891 -1.77384,5.89404 -4.74525,9.03059 -9.27539,9.79102 -1.97454,0.33144 -4.35223,0.81042 -5.2832,1.06445 -1.92204,0.52446 -8.96191,-5.39928 -11.47656,-9.65625 l -1.61914,-2.74024 -4.48633,1.98438 c -4.28344,1.89478 -8.35757,2.90066 -32.22461,7.94922 -5.775,1.22157 -10.65006,2.32007 -10.83398,2.4414 -0.18392,0.12134 2.38365,5.32 5.70507,11.55274 8.40681,15.77563 17.19933,24.94333 29.4375,30.69336 4.84448,2.27615 9.79448,4.17304 11,4.21484 1.20551,0.0418 3.76641,0.68252 5.69141,1.42383 4.09767,1.57801 20.59662,1.9617 21.5,0.5 0.33992,-0.55 1.77942,-1 3.19922,-1 1.41979,0 4.43116,-0.85547 6.6914,-1.90039 2.26025,-1.04492 6.02642,-2.41424 8.36915,-3.04297 2.34272,-0.62872 5.55002,-2.36075 7.12695,-3.84961 1.57692,-1.48885 4.54049,-4.05703 6.58594,-5.70703 7.32811,-5.91137 16.09668,-20.39464 18.16406,-30 0.71026,-3.3 1.58214,-10.50994 1.9375,-16.02148 0.55815,-8.65676 0.34424,-11.03916 -1.57422,-17.5 -2.91701,-9.8237 -7.87189,-19.2637 -14.96875,-28.51954 C 352.53841,263.29488 344.03345,256 341.17383,256 c -0.73295,0 -4.19179,-1.14329 -7.68555,-2.54102 -5.57668,-2.23101 -12.62979,-3.84323 -16.37305,-3.94531 z M 230.80078,257 c -1.21356,0 -0.9579,2.44444 0.39844,3.80078 C 232.76953,262.37109 234,262.32561 234,260.69922 234,259.25827 232.047,257 230.80078,257 Z m 117.69922,5.92578 3.25195,3.70508 c 4.82775,5.50206 12.21589,17.76783 15.53711,25.79492 2.30006,5.55906 3.09127,9.39513 3.69336,17.91602 0.44486,6.29581 0.3702,12.37634 -0.17578,14.5 -0.51716,2.01156 -1.28194,5.245 -1.69922,7.18554 -0.41728,1.94055 -1.90986,5.99055 -3.31836,9 -4.61372,9.85788 -4.21833,9.79938 -13.11133,1.98828 -4.30185,-3.77848 -10.26435,-8.55307 -13.25,-10.60937 C 336.44208,330.34996 334,328.32974 334,327.91602 c 0,-0.41372 -1.59974,-1.741 -3.55469,-2.94922 -2.56343,-1.58429 -3.46957,-2.79245 -3.25,-4.33203 0.27368,-1.91904 1.16372,-2.20967 8.80469,-2.87305 16.32824,-1.4176 28.50523,-3.27552 28,-4.27344 -0.7447,-1.47092 -10.01896,-1.07137 -23.2832,1.00391 -7.1078,1.11206 -12.11953,1.4794 -12.63282,0.92578 -0.46797,-0.50475 -1.12951,-2.94297 -1.4707,-5.41797 -0.5899,-4.27908 -0.40986,-4.72092 3.66602,-9 2.35747,-2.475 5.92737,-6.75 7.93359,-9.5 2.00623,-2.75 6.37857,-7.68596 9.7168,-10.96875 5.70872,-5.61389 7.42767,-8.53125 5.02343,-8.53125 -1.39692,0 -4.69163,3.60146 -13.7207,15 -9.73723,12.29254 -15.08436,17.15017 -17.4707,15.87305 -2.69212,-1.44079 -2.17382,-2.82943 3.67969,-9.87305 2.97095,-3.575 9.37474,-11.80409 14.23047,-18.28711 z m -263.429688,2.67774 c 0.456171,-0.4966 1.887747,1.51324 3.205079,4.5 C 95.846114,287.26851 103,314.46344 103,326.07812 c 0,8.02743 3.0958,17.93331 8.45312,27.04883 2.38323,4.05509 4.12959,7.71055 3.88086,8.12305 -0.49872,0.82708 -1.75945,0.99055 -2.43359,0.31641 -0.62857,-0.62857 -18.99835,-1.47768 -45.835937,-2.11914 -12.890015,-0.3081 -23.804934,-0.78698 -24.253906,-1.06446 -0.448973,-0.27748 -0.363988,-1.34648 0.1875,-2.37695 C 43.549534,354.9754 44,353.1791 44,352.01562 c 0,-2.83258 2.597856,-7.69697 6.115234,-11.44921 1.581303,-1.68689 2.87836,-3.33573 2.88086,-3.66407 0.0025,-0.32834 0.947043,-1.67834 2.099609,-3 3.883588,-4.45334 6.893793,-10.53656 8.566406,-17.31445 1.214604,-4.92192 2.329424,-7.1913 4.134766,-8.41406 C 69.15639,307.25302 71.082445,305.6 72.078125,304.5 77.171362,298.87313 80,295.10605 80,293.94727 c 0,-0.70909 0.666708,-2.02463 1.480469,-2.92383 1.028492,-1.13647 1.675728,-5.1251 2.123047,-13.08008 0.353927,-6.29411 1.013407,-11.84626 1.466796,-12.33984 z m 179.300778,4.40234 c 1.20689,0.006 12.67511,10.18087 24.12891,21.4082 3.85,3.77388 7.96155,7.49186 9.13672,8.26367 1.83686,1.20639 1.97718,1.74801 1,3.85547 -1.27424,2.7481 -2.16107,3.06606 -3.33789,1.19727 -0.92349,-1.46649 -23.90171,-20.19313 -28.64844,-23.34766 C 261.34061,277.8541 260.56761,276.45809 262,273 c 0.68365,-1.65049 1.75032,-2.99714 2.37109,-2.99414 z M 258.26562,279 c 1.70171,0 33.16305,25.16616 36.4668,29.16992 2.53334,3.07009 -0.62577,4.45737 -15.23242,6.69141 -19.02825,2.91032 -29.04301,3.68591 -29.89062,2.31445 -0.59425,-0.96144 0.82156,-16.06057 1.82031,-19.41406 C 254.46144,287.58209 257.58846,279 258.26562,279 Z m 107.78321,26.0957 c -2.73344,0.10391 -6.98259,0.59056 -13.04883,1.47071 -5.775,0.8379 -13.2,1.72393 -16.5,1.96875 -6.85771,0.50877 -8.5,0.97924 -8.5,2.43359 0,1.39119 1.10784,1.33629 20.05664,-0.97656 C 367.38869,307.63256 370,307.14826 370,305.91992 c 0,-0.64954 -1.21773,-0.92813 -3.95117,-0.82422 z m -54.40821,4.41797 c -2.80002,-0.0137 -5.67539,2.22235 -4.93164,4.23828 0.3547,0.9614 1.12863,2.09034 1.71875,2.50782 0.59012,0.4175 2.19727,0.64248 3.57227,0.5 1.99865,-0.2071 2.56001,-0.88511 2.80273,-3.37891 0.24689,-2.53654 -0.12157,-3.23171 -1.97656,-3.7168 -0.38613,-0.10097 -0.78554,-0.14843 -1.18555,-0.15039 z m -0.82812,1.71485 c 0.65312,-0.21771 1.1875,0.31666 1.1875,1.1875 0,0.87083 -0.71315,1.58398 -1.58398,1.58398 -1.76593,0 -1.45774,-2.15341 0.39648,-2.77148 z m -15.04688,12.01953 c 1.7337,-0.0736 2.22899,0.44713 2.97657,2.08789 1.24769,2.73839 11.39788,8.20873 13.63672,7.34961 1.41728,-0.54386 1.39348,-0.80744 3.14843,35.31445 0.32256,6.63911 -0.15333,7.64808 -2.57226,5.45898 -1.50301,-1.36021 -1.86819,-3.27679 -1.96289,-10.31445 -0.22586,-16.78974 -1.39552,-28.45409 -2.9043,-28.95312 -1.19831,-0.39635 -1.31721,2.57643 -0.78906,19.63671 0.34227,11.05658 0.30284,20.28221 -0.0879,20.50196 -0.39068,0.21975 -1.83594,0.0675 -3.21094,-0.33789 C 288.12837,369.31266 284.99046,368.10764 281.24414,365.25 278.90076,363.4625 276.53743,362 275.99219,362 274.64947,362 263,350.27716 263,348.92578 c 0,-0.59134 -1.84903,-4.18941 -4.10938,-7.99414 -2.26035,-3.80474 -3.87445,-7.5333 -3.58593,-8.28516 0.30223,-0.78761 2.78548,-1.64779 5.85937,-2.02929 6.74041,-0.83653 23.69188,-4.45421 26.33594,-5.6211 1.1,-0.48546 3.82938,-1.15888 6.06445,-1.49609 0.9078,-0.13696 1.62331,-0.22741 2.20117,-0.25195 z m 30.14649,3.9375 c 1.82173,-0.24082 4.63065,1.73084 11.74023,7.56445 5.19482,4.2625 10.8858,8.79369 12.64649,10.06836 1.76069,1.27468 4.43068,3.57311 5.93359,5.10937 2.64976,2.70857 2.67682,2.84436 0.8711,4.47852 -1.77127,1.60297 -2.26513,1.35498 -10.11914,-5.10937 -19.57536,-16.1117 -23.81199,-20.06888 -22.6875,-21.19336 0.51078,-0.51079 1.00799,-0.8377 1.61523,-0.91797 z M 319.90039,331 c 1.02398,0 6.36294,3.9375 11.86523,8.75 5.50232,4.8125 12.73022,11 16.0625,13.75 3.33234,2.75 6.08434,5.33446 6.11524,5.74414 0.0896,1.188 -15.65298,8.66832 -24.93555,11.84766 -10.88251,3.72733 -11.24773,3.71504 -10.5,-0.3418 0.90409,-4.90523 0.70898,-10.12448 -1.03125,-27.44141 C 316.60754,334.66098 317.32849,331 319.90039,331 Z M 76.482422,345.49609 c 0.02526,0.11598 0.04737,0.19131 0.03906,0.10352 -0.0014,-0.0146 -0.0025,-0.0247 -0.0039,-0.0391 -0.01157,-0.0215 -0.02351,-0.043 -0.03516,-0.0645 z m -49.81836,1.64649 c 0.801529,0.0878 0.914025,0.64681 0.654297,2.05469 -0.238445,1.29252 0.805343,4.71555 2.378907,7.80273 2.150347,4.21877 3.392605,5.56823 5.335937,5.79492 l 2.533203,0.29688 -0.345703,10.20312 c -0.190201,5.61246 -0.528482,10.76758 -0.751953,11.45508 -0.828204,2.54793 -2.565872,1.05881 -7.558594,-6.48047 l -5.11914,-7.73047 1.251953,-5.2207 c 1.065859,-4.443 1.028594,-5.56121 -0.25586,-7.52148 -0.829856,-1.26653 -1.459537,-4.10038 -1.398437,-6.29883 0.09085,-3.26855 0.497722,-4.05326 2.232422,-4.30078 0.432344,-0.0617 0.775796,-0.084 1.042968,-0.0547 z m 28.914063,15.36133 c 4.361032,-0.011 10.11861,0.0185 17.736328,0.0605 17.151523,0.0947 34.110547,0.50369 37.685547,0.91016 6.43472,0.73163 10,2.57834 10,5.17969 0,1.33443 -4.10433,1.90738 -5.27539,0.73632 -1.28934,-1.28933 -29.753696,-3.0475 -40.22461,-2.48437 -13.784668,0.74135 -33.159965,0.77097 -33.878906,0.0508 -0.298455,-0.29902 -0.304762,-1.44893 -0.01563,-2.55469 0.385287,-1.47333 0.88956,-1.86553 13.972656,-1.89843 z m 12.177734,7.79687 c 20.576713,-0.10725 50.709181,0.44586 52.994141,1.19531 1.64248,0.53873 2.25,1.51627 2.25,3.6211 0,3.21642 -0.21084,3.25397 -10,1.83593 -15.811888,-2.29036 -44.381488,-2.78564 -61.5,-1.0664 -9.333938,0.93742 -10.5,0.67649 -10.5,-2.35156 0,-2.15504 0.456859,-2.27673 10.75,-2.88868 3.350244,-0.19918 9.146955,-0.30995 16.005859,-0.3457 z m 71.099611,6.46094 3.0293,2.15625 c 5.19457,3.69887 11.41812,5.95496 18.39648,6.66992 6.81439,0.69815 8.25107,1.89472 5.25781,4.37891 -2.2389,1.85812 -8.69239,2.14102 -12.03906,0.52734 -1.65,-0.7956 -5.34743,-2.15935 -8.2168,-3.03125 -4.97119,-1.51056 -5.43647,-1.48767 -9.87695,0.47656 C 127.48899,391.44163 125,390.34588 125,383.35938 c 0,-4.98499 1.15952,-6.06211 4.2207,-3.91797 3.0983,2.17013 6.3962,1.94391 8.15039,-0.56055 z m -55.455079,1.83398 c 22.292799,-0.0829 38.611619,0.60424 38.603519,1.82032 -0.002,0.32072 -0.004,1.70898 -0.004,3.08398 0,2.58814 -0.90762,3.15702 -2.55078,1.59961 -1.50847,-1.42975 -34.968854,-2.896 -58.19922,-2.55078 -17.133594,0.25462 -21.25,0.0585 -21.25,-1.00977 0,-1.99072 1.103101,-2.13857 19.5,-2.5957 8.375208,-0.20811 16.469457,-0.32001 23.900391,-0.34766 z m -2.837891,7.93946 c 38.16108,0.24143 40.64721,0.36681 41.96875,2.11132 0.7726,1.01989 1.42,2.08712 1.4375,2.37305 0.0175,0.28593 -19.09769,0.5109 -42.478516,0.5 -34.983683,-0.0163 -42.420184,-0.25558 -42,-1.35156 C 39.771057,389.43549 40,388.26019 40,387.55664 c 0,-1.02209 8.151231,-1.22653 40.5625,-1.02148 z m 273.9375,6.92382 7.92773,2.02149 c 4.35982,1.11123 8.10853,2.58203 8.33204,3.26953 0.31452,0.9674 -3.49368,1.25 -16.84375,1.25 -9.4875,0 -17.00846,-0.24156 -16.7129,-0.53711 0.29557,-0.29556 4.30936,-1.7683 8.91797,-3.27148 z" />
  </g>
</svg>
