<?xml version="1.0" encoding="UTF-8" standalone="no"?>
<!-- Created with Inkscape (http://www.inkscape.org/) -->

<svg
   version="1.1"
   id="svg2"
   width="450"
   height="473"
   viewBox="0 0 450 473"
   sodipodi:docname="9.svg"
   inkscape:version="1.1.2 (0a00cf5339, 2022-02-04)"
   xmlns:inkscape="http://www.inkscape.org/namespaces/inkscape"
   xmlns:sodipodi="http://sodipodi.sourceforge.net/DTD/sodipodi-0.dtd"
   xmlns="http://www.w3.org/2000/svg"
   xmlns:svg="http://www.w3.org/2000/svg">
  <defs
     id="defs6" />
  <sodipodi:namedview
     id="namedview4"
     pagecolor="#505050"
     bordercolor="#eeeeee"
     borderopacity="1"
     inkscape:pageshadow="0"
     inkscape:pageopacity="0"
     inkscape:pagecheckerboard="0"
     showgrid="false"
     inkscape:zoom="1.5835095"
     inkscape:cx="224.81709"
     inkscape:cy="233.34246"
     inkscape:window-width="1920"
     inkscape:window-height="1043"
     inkscape:window-x="0"
     inkscape:window-y="0"
     inkscape:window-maximized="1"
     inkscape:current-layer="g8" />
  <g
     inkscape:groupmode="layer"
     inkscape:label="Image"
     id="g8">
    <path
       id="path12"
       style="fill:#000000"
       d="m 202.60938,10.121094 c -1.75426,-0.05895 -2.58026,1.059396 -3.86719,3.308594 -2.4011,4.196452 -5.29071,8.836756 -10.50586,16.867187 -4.03865,6.218823 -5.7741,10.162867 -7.45899,16.947266 l -2.19726,8.841797 5.20508,15.707031 c 9.14803,27.611157 9.16264,27.873941 2.07031,34.732421 -2.82923,2.73594 -7.51725,7.89961 -10.41797,11.47461 -5.2466,6.4662 -14.92819,16.6573 -21.49609,22.62891 -1.89322,1.72134 -3.89141,3.6602 -4.44141,4.30664 -3.71508,4.36647 -11.59107,10.60017 -16.82617,13.31836 -5.43339,2.82116 -7.0735,3.19361 -13.67383,3.10351 -4.4017,-0.0601 -10.80485,-1.02533 -15.5,-2.33594 -4.4,-1.22823 -9.04793,-2.46876 -10.328125,-2.75781 C 91.89168,155.97461 87.539718,152.53436 83.5,148.61914 74.006576,139.41829 67.572914,134 66.140625,134 c -1.82883,0 -1.313272,-3.99707 0.609375,-4.72461 3.719163,-1.40736 11.262881,-7.55946 13.289062,-10.83789 1.652451,-2.67372 2.78693,-3.4375 5.109376,-3.4375 4.36407,0 9.239607,-4.25506 12.761718,-11.13672 C 99.609105,100.54379 101,97.270758 101,96.589844 c 0,-1.419897 15.19155,-17.570583 16.58203,-17.628906 1.12439,-0.04716 4.76934,-5.227523 7.00781,-9.960938 0.91035,-1.925 2.09948,-4.360601 2.64258,-5.412109 C 128.45115,61.228293 132,50.997096 132,49.84375 c 0,-1.801418 -3.8938,-0.702418 -7.9668,2.248047 -5.64244,4.087359 -16.54251,9.661059 -21.5332,11.011719 -2.2,0.595399 -4.675,1.632238 -5.5,2.304687 -0.825,0.67245 -4.875,2.503835 -9,4.068359 -13.219268,5.013785 -17.771903,10.610766 -17.822266,21.917969 -0.03228,7.247374 -0.922922,8.841429 -4.677734,8.361328 -1.430899,-0.182961 -2.440226,-1.64538 -3.544922,-5.136718 -0.930901,-2.942069 -2.717885,-5.826635 -4.5,-7.265625 -3.761794,-3.037503 -8.501757,-4.414089 -10.3125,-2.994141 C 46.1314,85.152321 45.432867,84.944796 44.412109,83.548828 43.49391,82.293115 41.91979,81.717194 39.644531,81.802734 37.415649,81.886527 35.635338,81.253909 34.46875,79.964844 33.490727,78.88414 31.74796,77.979348 30.595703,77.955078 24.083076,77.817885 14.594056,73.446555 13.529297,70.091797 12.287217,66.17835 3.5158572,62.150158 1.2246094,64.441406 0.14780588,65.51821 4.8520703,75.320008 10.648438,84.076172 c 9.100276,13.747148 11.941726,16.618698 17.175781,17.359378 2.788133,0.39455 4.101796,0.2537 3.701172,-0.39453 -0.411535,-0.66588 3.61584,-0.79042 11.927734,-0.36914 C 51.621246,101.08584 56,100.95747 56,100.30273 56,99.749562 52.267829,99.032798 47.707031,98.710938 35.999218,97.884704 26.234986,95.261125 21.703125,91.722656 c -2.087863,-1.630199 -3.632726,-3.127041 -3.433594,-3.326172 0.4449,-0.4449 5.793016,1.313424 11.46875,3.769532 C 32.069786,93.174947 34.882286,94 35.988281,94 37.094275,94 38,94.346343 38,94.769531 c 0,0.737573 15.084026,0.402084 15.892578,-0.353515 0.215875,-0.201737 -0.156061,-1.028503 -0.826172,-1.835938 -0.897809,-1.081794 -2.478938,-1.318335 -6.007812,-0.90039 -3.045384,0.36068 -5.040948,0.157678 -5.482422,-0.556641 C 41.194349,90.505244 39.516095,90 37.845703,90 29.686519,90 19.10845,84.910171 12.068359,77.595703 7.8736788,73.23754 8.6190632,71.843738 13.253906,75.378906 c 6.276425,4.787263 22.334863,11.092501 31.007813,12.173828 6.283375,0.783399 12.798173,2.85661 14.34375,4.564454 0.860081,0.950378 1.802076,3.507049 2.09375,5.68164 0.48061,3.583212 0.902277,4.064472 4.49414,5.140622 C 70.884073,104.64443 74,102.51916 74,96.931641 c 0,-2.907048 0.662633,-4.684118 2.388672,-6.410157 3.164459,-3.164459 9.090695,-4.303048 11.421875,-2.193359 0.951813,0.861379 2.811149,1.966386 4.130859,2.455078 2.346454,0.86801 2.298969,0.956356 -2.11914,3.996094 -5.566536,3.829877 -7.34903,6.480713 -9.888672,14.703123 -2.704515,8.7562 -5.509395,11.68657 -16.242188,16.97461 C 58.636246,128.9477 52.475,132.30329 50,133.91406 c -4.578422,2.9797 -9.611569,4.29907 -7.199219,1.88672 0.66,-0.66 1.199219,-1.52426 1.199219,-1.91992 0,-0.89681 -7.155114,0.97727 -8.449219,2.21289 C 34.321232,137.26724 30,137.27193 30,136.09961 c 0,-0.49476 2.1375,-1.66988 4.75,-2.61133 5.389051,-1.942 14.895904,-9.48233 11.960938,-9.48633 -0.984198,-10e-4 -4.109853,1.5612 -6.945313,3.47071 -2.835459,1.90951 -5.291605,3.33339 -5.458984,3.16601 -0.167379,-0.16738 3.760035,-4.44772 8.728515,-9.51172 4.968481,-5.06399 8.803086,-9.57951 8.521485,-10.03515 -0.2816,-0.45564 -2.691848,-1.11711 -5.357422,-1.47071 -2.665575,-0.35361 -5.714168,-1.32905 -6.773438,-2.16601 -1.775668,-1.40302 -1.476422,-1.49907 3.826172,-1.23828 4.085817,0.20095 5.750969,-0.0788 5.75,-0.9668 -0.002,-1.87479 -10.426995,-1.59899 -14.248047,0.37695 l -3.146484,1.62696 6.447266,2.5332 c 3.545197,1.39367 6.603968,2.65834 6.796874,2.80859 C 45.344687,112.97979 32.7718,125 31.876953,125 c -0.403275,0 -1.50378,0.7875 -2.445312,1.75 -0.941531,0.9625 -4.444135,3.1 -7.783203,4.75 -3.33907,1.65 -6.205031,3.46303 -6.369141,4.0293 -0.545037,1.8807 10.866559,6.22528 16.720703,6.36523 5.17968,0.12383 13.715078,-1.77119 18.748047,-4.16211 1.236672,-0.5875 2.507835,-0.81053 2.824219,-0.49414 0.592311,0.59231 -1.950485,6.17349 -3.947266,8.66406 -1.466002,1.82853 -1.650279,5.79245 -0.455078,9.80274 2.562903,8.59939 21.77763,19.05735 35.373047,19.25195 2.777104,0.0397 3.164608,-0.37151 4.449219,-4.70703 0.774079,-2.6125 1.575929,-5.3125 1.78125,-6 0.91852,-3.07559 -1.581298,-0.82368 -3.523438,3.17383 l -2.150391,4.42383 -5.298828,-1.50586 C 73.370067,168.51409 60,162.14842 60,160.91406 c 0,-0.48955 1.8,-1.1775 4,-1.52929 2.2,-0.35179 4,-0.82612 4,-1.05274 0,-0.22661 -0.908353,-2.193 -2.019531,-4.37109 -1.111178,-2.17809 -1.673678,-3.9598 -1.25,-3.95899 0.423678,8.1e-4 2.977873,2.25081 5.675781,5 4.973087,5.06762 7.91119,6.2172 8.953125,3.50196 0.392642,-1.02321 -0.675386,-2.13445 -3.378906,-3.51368 -2.597057,-1.32492 -4.670295,-3.42261 -6.042969,-6.11328 -1.951982,-3.8262 -2.299231,-4.0494 -5.263672,-3.39648 -6.049265,1.33235 -6.130378,1.28913 -6.68164,-3.48047 -0.64543,-5.58433 0.109552,-10.20168 1.757812,-10.75 1.5444,-0.51376 1.688652,4.06258 0.214844,6.81641 -0.907099,1.69493 -0.69057,1.93694 1.75,1.96484 1.531851,0.0175 3.65894,0.6925 4.726562,1.5 1.067621,0.80751 3.205121,1.46875 4.75,1.46875 C 72.962791,143 74,143.52818 74,144.43164 c 0,0.78794 0.912692,1.72239 2.027344,2.07617 1.114653,0.35377 2.785457,1.84758 3.71289,3.31836 2.273818,3.60598 9.430736,10.14266 11.125,10.16016 0.751183,0.008 3.561338,0.79324 6.244141,1.74609 4.110505,1.45992 4.782555,2.04983 4.269535,3.75 -0.68059,2.25547 -0.66626,2.08111 -0.48243,5.51758 0.20043,3.74686 2.06839,0.39192 2.0879,-3.75 0.0104,-2.21542 0.49312,-3.25 1.51562,-3.25 1.79799,0 1.83867,2.19473 0.20312,10.91797 -0.67874,3.62017 -1.79451,6.61454 -2.56054,6.86914 -1.06829,0.35505 -1.20958,-0.42757 -0.66211,-3.66797 C 101.90269,175.62002 101.7904,174 101.19531,174 c -2.500624,0 -3.052805,8.45645 -0.61328,9.39258 4.33671,1.66416 5.19987,0.82623 6.33203,-6.14258 0.60314,-3.7125 1.20749,-7.875 1.3418,-9.25 0.23762,-2.4326 0.4541,-2.5 8.06055,-2.5 7.79144,0 7.81678,0.009 7.34375,2.49219 -0.70377,3.69461 1.34217,14.00781 2.77929,14.00781 2.04267,0 2.48155,-1.07944 1.49219,-3.68164 -0.51789,-1.36215 -1.05301,-4.79636 -1.1875,-7.63086 -0.20069,-4.22948 0.0697,-5.21493 1.50586,-5.49414 1.48281,-0.28827 1.76243,0.47184 1.82812,4.98242 0.0908,6.23719 2.97781,15.21522 5.00782,15.57227 0.77784,0.13681 1.99283,-0.12414 2.69922,-0.58008 0.99836,-0.64441 0.6087,-2.33471 -1.75,-7.5918 C 132.79826,170.36173 131.95983,163 134.375,163 c 4.72516,0 19.65582,-13.05346 30.78125,-26.91016 2.38904,-2.97555 6.03125,-6.28177 8.09375,-7.34765 2.0625,-1.06587 3.75,-2.27759 3.75,-2.69336 0,-0.41576 1.15432,-2.05953 2.56445,-3.65235 1.41012,-1.59281 3.35267,-3.79648 4.31836,-4.89648 0.96568,-1.1 3.62705,-4.55523 5.91407,-7.67773 4.21665,-5.75716 6.51183,-7.99228 5.77539,-5.625 -1.49233,4.79705 -1.53684,6.80273 -0.15039,6.80273 0.80301,0 1.72753,-0.43354 2.05468,-0.96289 1.20686,-1.95273 -1.87857,-15.020691 -7.68359,-32.53711 -5.73201,-17.296129 -5.94741,-18.312832 -5.48633,-26 0.41601,-6.935983 1.0322,-9.052719 4.62695,-15.917969 7.6485,-14.607113 14.34167,-22.180679 16.50782,-18.675781 0.3081,0.498518 2.63176,1.612433 5.16211,2.474609 5.57568,1.899825 19.54685,11.77592 22.68359,16.035157 1.24878,1.695659 3.32035,6.423288 4.60351,10.503906 2.20588,7.014957 2.29916,8.377442 1.68165,25 -0.72262,19.451823 -1.00436,23.137483 -2.35743,30.861328 -0.54974,3.13801 -0.55828,5.50611 -0.0215,5.83789 1.58921,0.98219 3.80664,-0.49175 3.80664,-2.5293 0,-2.71052 1.78479,-3.57657 3.8125,-1.84961 0.92785,0.79022 4.3875,2.25251 7.6875,3.24805 3.3,0.99554 7.8872,3.15022 10.19336,4.78906 l 4.19336,2.98047 -2.3418,6.1211 c -1.28765,3.36678 -2.68497,7.02109 -3.10547,8.12109 -0.4205,1.1 -1.52873,3.125 -2.46289,4.5 -0.93416,1.375 -2.25234,4.20907 -2.92968,6.29688 -0.82597,2.54585 -2.44165,4.55867 -4.9043,6.11328 -2.01957,1.2749 -4.2482,3.01193 -4.95313,3.86132 -1.74005,2.09664 -15.74474,6.61966 -20.68945,6.68164 -2.2,0.0276 -5.89362,0.20966 -8.20703,0.4043 -6.30141,0.53017 -19.94854,-6.46427 -26.69727,-13.68359 C 184.14617,135.77453 177.22677,130 175.40625,130 c -1.87842,0 -1.8035,2.91059 0.0937,3.63867 2.10729,0.80865 1.86796,1.72644 -0.75,2.875 -1.56755,0.68772 -2.5289,2.31128 -3.16797,5.35547 -0.83782,3.99092 -0.70785,4.53128 1.5,6.22852 1.32951,1.02204 2.95768,1.86866 3.61719,1.88086 1.37606,0.0255 6.30078,-6.08846 6.30078,-7.82227 0,-0.63559 0.9,-1.15625 2,-1.15625 1.3214,0 2,0.66669 2,1.96484 0,1.08065 0.9,2.44646 2,3.03516 2.55149,1.36552 2.61862,3.33116 0.0859,2.52734 -2.2067,-0.70038 -5.09108,2.67424 -5.08008,5.94532 0.006,1.90332 4.25889,5.57264 8.16992,7.05078 2.28627,0.86407 5.23408,-3.65904 4.30078,-6.59961 -0.78171,-2.46297 0.42348,-2.0672 4.28125,1.40625 2.48373,2.2363 8.5685,4.63079 11.82617,4.6543 3.08251,0.0223 3.48043,0.95121 1.33204,3.0996 -1.05417,1.05417 -1.91602,3.0148 -1.91602,4.35743 0,2.07097 0.64448,2.57051 4.25,3.29687 4.10031,0.82603 4.23977,0.97753 3.94727,4.3086 -0.16675,1.89895 -0.75779,4.89315 -1.3125,6.65429 -1.53192,4.86371 0.53764,23.83868 3.54296,32.48047 1.36715,3.93124 2.25459,7.5231 1.97071,7.98242 -0.97368,1.57544 -7.65743,0.45427 -22.39844,-3.75976 -3.7856,-1.08219 -10.19655,-6.03096 -13,-10.03516 -1.375,-1.96393 -3.29884,-4.43759 -4.27539,-5.49609 -1.0688,-1.15849 -1.93548,-4.00355 -2.17773,-7.14844 -0.22134,-2.87345 -0.93732,-6.57461 -1.58985,-8.22461 -1.42459,-3.60227 -1.45968,-16.30923 -0.0625,-22.52734 0.58103,-2.58588 0.63332,-4.84516 0.12305,-5.35547 -1.42446,-1.4246 -3.96562,0.11357 -5.0957,3.08593 -0.57616,1.51543 -1.3864,2.99115 -1.80079,3.27735 -1.49425,1.03199 -7.00509,9.74841 -9.8457,15.57226 -3.76015,7.70909 -5.28128,10.31753 -8.02539,13.76954 -1.2375,1.55674 -2.25,3.22006 -2.25,3.69531 0,0.47524 -1.8,4.7423 -4,9.48242 -2.2,4.74012 -4,8.81318 -4,9.05078 0,0.2376 -1.41424,3.59362 -3.14258,7.45899 -3.53238,7.89999 -3.91252,7.822 -7.3164,-1.50977 -2.93633,-8.05 -10.60568,-20.4138 -16.41016,-26.45508 -2.12662,-2.21338 0.16066,-2.4734 5.5625,-0.63281 5.3366,1.81836 6.30664,1.92867 6.30664,0.72461 0,-1.55775 -12.33283,-6.94652 -20.8418,-9.10742 -6.78092,-1.72205 -15.603552,-4.61131 -16.925778,-5.54297 -0.147626,-0.10402 0.633297,-3.06885 1.736328,-6.58789 C 97.351648,169.29678 97.379492,169 95.693359,169 c -1.290682,0 -2.780748,2.97302 -6.134765,12.24023 -0.94348,2.60681 -2.130036,4.99545 -2.636719,5.3086 -1.812985,1.12048 -0.868166,2.24045 2.328125,2.75976 10.712189,1.74043 22.06936,6.13509 25.37891,9.82032 8.0395,8.95208 20.84497,36.39064 18.37304,39.36914 -0.55455,0.66818 -1.25214,3.27839 -1.54883,5.80078 -0.44495,3.78341 -0.15054,5.03508 1.6836,7.14453 1.22282,1.40637 3.01601,2.55664 3.98437,2.55664 0.96835,0 2.03899,0.45 2.37891,1 1.02354,1.65612 6.84565,1.06243 9.25,-0.94336 2.30289,-1.92114 3.05096,-6.44358 1.25,-7.55664 -0.55,-0.33992 -1,-1.2848 -1,-2.09961 C 149,242.03098 144.79373,237 142.8125,237 141.81593,237 141,236.77564 141,236.50195 c 0,-0.27369 2.31225,-4.66119 5.13867,-9.75 6.59112,-11.86696 15.55349,-29.43703 19.25586,-37.75195 1.59178,-3.57488 4.283,-8.525 5.98047,-11 l 3.08594,-4.5 0.76758,5 c 0.42233,2.75 0.55029,5.95512 0.2832,7.12305 -0.55848,2.44209 3.02081,14.14367 5.00976,16.37695 0.73475,0.825 1.38311,1.95 1.44141,2.5 0.0583,0.55 0.60544,2.66326 1.21484,4.69727 0.82463,2.75247 0.8089,4.42033 -0.0605,6.51953 -1.57176,3.79457 -2.75969,18.48138 -2.04492,25.2832 1.31456,12.5096 0.51182,22.12919 -2.81055,33.68164 C 174.46156,287.89518 172.9423,304 175.49609,304 c 1.93989,0 1.91473,0.97804 -0.0625,2.42383 -1.39541,1.02035 -1.41611,2.01334 -0.19921,9.11133 2.20178,12.8427 1.54457,21.06313 -3.03126,37.96484 -5.01474,18.52309 -5.42372,20.65129 -4.3125,22.37891 1.54706,2.40515 2.7987,0.36482 3.43555,-5.59766 0.69165,-6.47556 3.95392,-16.54063 5.53125,-17.06641 0.56686,-0.18895 0.78359,-0.98665 0.48242,-1.77148 -0.30117,-0.78483 0.072,-1.66296 0.82813,-1.95313 1.0941,-0.41985 1.33815,-3.63921 1.19922,-15.75976 -0.41466,-36.17679 -0.33149,-39.26457 1.19922,-45.23047 0.84671,-3.3 2.02344,-8.025 2.61718,-10.5 0.59375,-2.475 1.13001,-12.48827 1.19141,-22.25195 0.0702,-11.16178 0.47828,-17.63029 1.09766,-17.42383 1.14653,0.38217 5.53382,7.21014 8.78711,13.67578 5.46637,10.86395 8.54625,14.14503 18.45703,19.66602 9.9409,5.53776 10.77343,6.1373 10.40429,7.46875 -0.2083,0.75131 -0.97112,5.22587 -1.69531,9.94335 -1.94671,12.68116 -4.35717,21.73959 -7.42773,27.92188 -4.23931,8.53547 -5.67491,12.88974 -6.91993,20.98047 -1.17876,7.66031 -4.76224,16.68244 -7.54296,18.99023 -3.50175,2.9062 -8.72711,11.26698 -11.05664,17.68946 -2.88257,7.94722 -2.93454,8.33984 -1.08985,8.33984 0.81439,0 1.67604,-1.55085 2.08399,-3.75 0.91652,-4.94066 6.43684,-15.25 8.16601,-15.25 1.69119,0 1.90521,15.11344 0.32813,23.20117 -1.38736,7.11476 -6.95314,23.92949 -8.53907,25.79883 -0.69992,0.825 -1.59265,2.85 -1.98437,4.5 -0.39172,1.65 -1.4395,3.83801 -2.32813,4.86133 -1.29915,1.49605 -1.62299,4.33682 -1.65429,14.5 -0.0532,17.30288 0.0917,16.64828 -4.15625,18.66406 -3.19682,1.51699 -4.33148,1.58985 -8.42383,0.54102 -4.1588,-1.06587 -5.06108,-0.9948 -7.47656,0.58789 -3.76831,2.46909 -21.03627,2.9145 -23.63282,0.60937 -1.5559,-1.38127 -1.79065,-1.37944 -2.33203,0.0312 -0.3309,0.86234 -1.35148,1.5646 -2.26953,1.5586 -73.440093,-0.45156 -95.542437,-0.23597 -95.933592,0.9375 -0.263676,0.79102 -0.963632,0.89034 -2.076172,0.29492 -0.922642,-0.49378 -9.659981,-1.14647 -19.417968,-1.45117 L 0,458.08008 V 465.54102 473 h 56.912109 c 49.521511,0 56.883181,-0.19066 56.695311,-1.4707 -0.11875,-0.80908 -0.52952,-1.78539 -0.91211,-2.16797 C 111.67479,468.3408 111.84798,467 113,467 c 0.55,0 1,0.60595 1,1.3457 0,0.73976 0.82424,2.08993 1.83203,3.00196 1.69199,1.53123 13.34562,1.63965 152.14258,1.40625 L 418.28516,472.5 l 1.7832,-2.5 c 0.98109,-1.375 2.0838,-4.8625 2.45117,-7.75 l 0.66797,-5.25 -5.34375,-0.008 c -7.21353,-0.0102 -17.53972,-1.75934 -20.18555,-3.41992 -1.18754,-0.74532 -4.4082,-1.6343 -7.1582,-1.97461 -2.75,-0.34031 -8.375,-1.06345 -12.5,-1.60743 -26.20311,-3.45551 -105.80275,-6.99967 -111.5,-4.96484 -2.83843,1.01377 11.2796,2.13817 31.87695,2.53906 16.32482,0.31774 22.27388,0.58159 41.62305,1.85352 4.675,0.30731 13,0.8099 18.5,1.11719 21.64012,1.20907 24.38639,1.46793 31.51172,2.96679 4.05619,0.85325 7.53579,1.71156 7.73047,1.90625 0.19468,0.19468 -0.40093,1.10796 -1.32227,2.0293 -1.43493,1.43492 -3.69967,1.63821 -15.79687,1.42188 -7.76735,-0.13894 -21.45558,-0.14753 -30.41797,-0.0195 -13.36069,0.19068 -16.39858,0.50149 -16.86719,1.72266 -0.46898,1.22214 -0.84884,1.25954 -2.11523,0.21289 -1.18775,-0.98164 -9.80708,-1.27539 -37.41407,-1.27539 -28.81913,0 -36.03524,-0.26238 -36.70117,-1.33398 -0.66627,-1.07216 -0.94896,-1.02311 -1.4375,0.25 -0.72027,1.87699 -8.74737,2.09231 -20.66992,0.55468 -8.6404,-1.11434 -10,-2.28907 -10,-8.64062 0,-4.18042 0.0601,-4.26006 2.43555,-3.17774 2.70682,1.23331 6.05206,0.4472 5.04297,-1.18554 -0.35615,-0.57622 -1.44677,-0.79448 -2.42383,-0.48438 -0.99103,0.31455 -2.80878,-0.27143 -4.11133,-1.32617 -2.2815,-1.84744 -2.3091,-2.08263 -1.26367,-10.27344 0.58845,-4.61036 1.09761,-17.2103 1.13281,-28 0.0489,-15.00981 0.45868,-21.11672 1.74414,-26 1.40512,-5.33786 1.5471,-8.59216 0.87109,-19.88281 -1.15783,-19.33803 -1.25682,-34.725 -0.26562,-41.0332 1.89566,-12.06436 2.14828,-20.01695 0.72266,-22.69336 -1.08672,-2.04016 -1.1152,-2.69034 -0.13477,-3.01953 0.6875,-0.23083 1.25,-1.53486 1.25,-2.89649 0,-1.39581 -0.43619,-2.20587 -1,-1.85742 -0.55,0.33992 -1,-0.0309 -1,-0.82422 0,-0.79331 0.9,-1.67718 2,-1.96484 1.31935,-0.34502 2,-1.36396 2,-2.99414 0,-2.91333 0.89988,-3.75337 8.08594,-7.54688 5.44474,-2.87426 19.64886,-14.80536 19.8457,-16.66992 0.12297,-1.16492 5.36407,-9.30588 7.4043,-11.5 0.76714,-0.825 2.72537,-3.85145 4.35156,-6.72656 2.26825,-4.0103 3.23147,-4.95408 4.13477,-4.05078 0.64761,0.64761 1.17773,1.50657 1.17773,1.9082 0,0.40163 1.32875,3.60182 2.95312,7.11133 1.6244,3.50951 3.45918,8.602 4.07618,11.31836 1.36031,5.98873 0.47273,16.03194 -2.02539,22.93945 -0.99455,2.75 -4.05484,11.3 -6.80079,19 -2.7459,7.7 -6.33464,16.93004 -7.97656,20.51172 -6.66131,14.53097 -11.1057,30.5671 -11.0957,40.04101 0.004,4.09643 -0.094,8.12227 -0.21875,8.94727 -0.56793,3.75638 0.17596,20 0.91601,20 1.76989,0 3.43202,-11.16166 3.79688,-25.5 0.45165,-17.74931 1.55643,-24.65661 4.71289,-29.45703 1.28115,-1.9484 3.16692,-5.74675 4.18945,-8.44141 1.02253,-2.69467 3.1739,-7.41967 4.78125,-10.5 5.92256,-11.35 12.91623,-32.30027 14.22266,-42.60156 1.69992,-13.40392 1.71292,-15.47851 0.10937,-17.92578 C 287.73813,252.19712 287,250.64408 287,250.12305 c 0,-0.52104 -1.8,-4.06892 -4,-7.88477 -2.2,-3.81585 -4,-7.63657 -4,-8.49023 0,-0.85366 1.35,-2.02246 3,-2.59766 1.65,-0.57519 3,-1.47733 3,-2.00391 0,-0.81137 -1.66013,-3.06683 -7.92773,-10.76953 -0.50286,-0.618 -1.06342,-2.40452 -1.24415,-3.96875 C 275.49849,211.55531 270.286,207 267.35156,207 c -2.13992,0 -1.60141,1.45404 1.91602,5.18359 4.11869,4.36708 10.08511,15.45245 9.34961,17.36914 -0.30546,0.79599 -1.24152,1.44727 -2.08203,1.44727 -2.87639,0 -11.31555,10.01355 -14.22852,16.88281 -4.0655,9.58711 -14.83213,20.11533 -26.55078,25.96289 -7.92997,3.95703 -8.84882,4.20393 -10.28516,2.76758 -0.8675,-0.86749 -4.14033,-3.24895 -7.27343,-5.29101 -7.73668,-5.04254 -20.13829,-17.77939 -20.86915,-21.4336 C 197.01028,248.29945 196.41061,247 195.99609,247 c -0.41452,0 -1.35455,-1.4625 -2.08984,-3.25 -0.73529,-1.7875 -3.24724,-5.19525 -5.58203,-7.57227 -3.33802,-3.39842 -4.15578,-4.8941 -3.82422,-7 0.2319,-1.47298 0.69132,-4.80461 1.01953,-7.40429 0.32822,-2.59968 0.95197,-4.94616 1.38672,-5.21485 0.43474,-0.26869 3.74647,1.08154 7.35937,3 7.58306,4.02661 13.78767,6.05472 21.44727,7.01172 l 5.41797,0.67578 -0.60742,9.125 c -0.56585,8.51533 0.87985,26.09638 2.33203,28.35743 0.35408,0.55131 1.72422,1.33935 3.04492,1.75195 2.06699,0.64574 2.30152,0.49047 1.67383,-1.11524 -2.44535,-6.25551 -3.13786,-36.20669 -0.88867,-38.45312 0.65237,-0.65157 3.53897,-1.36896 6.41406,-1.5957 3.00094,-0.23666 6.39533,-1.24487 7.96875,-2.36524 1.50743,-1.07339 3.15015,-1.95117 3.65039,-1.95117 2.00692,0 15.08332,-9.54122 19.68555,-14.36328 4.22949,-4.43151 6.43103,-8.20002 10.59375,-18.13672 1.81956,-4.34345 3.00195,-8.93275 3.00195,-11.64844 0,-3.78506 1.66692,-3.64822 2.51367,0.20703 0.36954,1.68251 2.21884,4.60751 4.11133,6.5 1.89249,1.8925 3.19324,3.44141 2.89062,3.44141 -0.63623,0 3.26184,7.43336 7.3711,14.05664 1.55457,2.50566 6.0736,10.83066 10.04297,18.5 3.96937,7.66934 8.08573,14.69128 9.14648,15.60547 1.06074,0.91419 1.67095,2.33412 1.35547,3.15625 -0.31549,0.82213 0.57514,3.31677 1.98047,5.54297 2.5233,3.99716 2.53185,4.06494 0.57227,5.4375 -1.48729,1.04175 -1.88704,2.24244 -1.59571,4.79492 0.21378,1.87304 0.4385,3.86726 0.5,4.42969 0.0615,0.56242 1.57383,1.79453 3.36133,2.73828 2.86848,1.51448 3.83696,1.56196 8.25,0.41211 6.2098,-1.61801 8.14673,-4.52091 5.90625,-8.85352 C 333.54199,251.14901 332.13082,250 330.94141,250 c -1.9266,0 -1.90268,-0.18332 0.56836,-4.60938 3.35813,-6.01498 8.06706,-20.27716 9.57031,-28.98632 0.6554,-3.79713 2.21394,-10.0543 3.46484,-13.9043 1.2509,-3.85 2.12345,-7.15408 1.93946,-7.3418 -1.01057,-1.03087 -4.65725,1.38438 -6.43555,4.26172 -1.51728,2.45502 -2.04883,5.00959 -2.04883,9.83399 0,6.23574 -1.94774,14.9925 -4.28125,19.24609 -3.01057,5.48775 -4.74773,9.67424 -5.61523,13.53516 -0.52585,2.34041 -1.53657,4.61421 -2.2461,5.05273 -1.59365,0.98493 -3.85742,-0.7619 -3.85742,-2.97656 0,-0.90373 -0.90223,-3.21055 -2.00586,-5.12695 C 318.89052,237.06795 316.0357,231.675 313.65039,227 302.81462,205.76282 294.65426,191.69707 290.30078,186.74805 288.48508,184.68396 287,182.53455 287,181.97266 c 0,-0.5619 -1.9125,-4.04903 -4.25,-7.74805 -3.72837,-5.90002 -4.20815,-7.30761 -3.9082,-11.47461 0.27503,-3.82065 0.0305,-4.75 -1.25,-4.75 -0.93784,0 -1.65585,0.92447 -1.74805,2.25 -0.0861,1.2375 -0.24306,3.46534 -0.34961,4.95117 -0.47415,6.61216 -2.79952,18.64286 -4.30859,22.29883 -0.90808,2.2 -3.7792,7.34823 -6.38086,11.44141 -4.03906,6.35463 -5.98851,8.28422 -13.34766,13.19921 -4.74022,3.16589 -10.72121,6.52832 -13.28906,7.47266 -2.56784,0.94434 -5.09469,2.09365 -5.61719,2.55274 -2.13377,1.87484 -3.46467,0.5649 -4.50195,-4.43164 -0.60128,-2.89636 -1.82762,-6.60887 -2.72461,-8.25 -1.29838,-2.3755 -1.66549,-6.34858 -1.79883,-19.48438 l -0.16601,-16.5 2.57031,-2.16016 c 2.87795,-2.41852 2.33956,-4.08908 -0.7793,-2.41992 C 221.66052,170.78764 217,167.92681 217,163.91797 c 0,-1.43817 4.79251,-1.07649 8.04883,0.60742 3.49453,1.80709 3.78318,0.98863 0.77734,-2.21094 -1.1959,-1.27295 -1.75838,-2.33507 -1.25,-2.35937 0.50837,-0.0243 3.17383,-0.64433 5.92383,-1.37891 5.51496,-1.47317 7.21924,-1.14701 5.4082,1.03516 -0.96469,1.16239 -0.4545,2.08228 2.70118,4.86914 2.13998,1.88988 4.20292,3.45561 4.58398,3.47851 2.4439,0.14684 7.59644,-4.36747 8.55664,-7.49609 0.95421,-3.10911 0.83218,-3.77419 -1.00977,-5.49023 l -2.0957,-1.95313 3.92774,-3.46875 c 2.1604,-1.90752 4.24737,-3.48686 4.63867,-3.50976 0.3913,-0.0229 1.18399,1.7094 1.75976,3.84765 0.87127,3.23565 1.54506,3.9591 4.01953,4.32227 C 266.45197,154.71902 271,150.79544 271,147.30078 271,144.78567 265.84208,139 263.59961,139 c -2.52987,0 -1.73597,-3.06543 2.04492,-7.89258 0.16909,-0.21588 1.00789,0.18886 1.86524,0.90039 2.36171,1.96005 7.42655,1.39941 10.10742,-1.11914 2.77485,-2.60684 3.03424,-5.51416 0.77734,-8.73633 -1.38656,-1.97961 -2.15194,-2.19999 -5.60156,-1.61718 -3.84837,0.65018 -3.96784,0.58882 -3.26953,-1.67969 0.97552,-3.16901 1.30978,-3.42264 2.69336,-2.03906 1.47277,1.47277 4.7832,1.55534 4.7832,0.11914 0,-2.10411 -6.08869,-6.10583 -20.17383,-13.26172 L 242.5,96.394531 l 0.19141,-5.447265 c 1.31195,-37.147377 1.21047,-41.164673 -1.22266,-47.628907 -4.75361,-12.629193 -13.96549,-21.847338 -29.41602,-29.441406 -5.00636,-2.460671 -7.68912,-3.696912 -9.44335,-3.755859 z m 169.5371,31.234375 c -5.11394,0.172486 -9.31152,0.710303 -10.85546,1.554687 -0.98543,0.538936 -3.47852,1.250107 -5.54102,1.580078 -4.31937,0.691037 -4.92422,2.916795 -2,7.359375 3.20231,4.865062 4.19191,6.611793 6.60156,11.650391 C 363.00523,69.048846 367,82.754478 367,86.310547 c 0,1.258863 0.40861,2.717734 0.9082,3.240234 0.49959,0.5225 1.06209,4.837907 1.25,9.591797 0.27251,6.894302 0.0132,9.019142 -1.28125,10.500002 -0.89258,1.02111 -1.85315,4.02559 -2.13476,6.67578 -0.46902,4.41394 -0.30678,4.89672 1.9375,5.75 1.3475,0.51231 3.54556,0.93164 4.88476,0.93164 2.21246,0 2.43555,0.40338 2.43555,4.41797 0,6.20897 -0.60538,7.24411 -5.72461,9.80078 -4.83966,2.41704 -9.97676,7.84543 -10.91992,11.53906 -0.57631,2.25697 -1.77593,2.77022 -8.35547,3.57031 -4.89139,0.5948 -13.92762,3.22431 -17.5,5.0918 -1.65,0.86255 -3.54798,1.57122 -4.21875,1.57422 -0.67077,0.003 -2.87638,0.93545 -4.90039,2.07227 -4.07796,2.29045 -3.99712,2.33913 -7.33398,-4.33594 -1.03652,-2.07341 -3.15771,-5.41013 -4.71485,-7.41406 C 306.21686,142.73354 283.11328,120 281.53906,120 c -3.50311,0 -0.95879,3.87465 9.21094,14.03125 14.53933,14.52056 21.19981,22.11471 24.62891,28.07813 l 2.8789,5.00781 -2.79297,-0.3086 c -3.37597,-0.37223 -3.94472,1.28635 -4.97265,14.52539 -0.66534,8.5691 -0.75448,8.81699 -2.97461,8.25977 -1.41755,-0.35578 -2.76646,0.001 -3.54492,0.93945 -0.69131,0.83298 -1.08112,1.61807 -0.86524,1.74414 0.21587,0.12606 1.82142,1.22906 3.56836,2.45118 1.74695,1.22212 3.70899,2.34507 4.35938,2.49609 1.24081,0.28811 1.25929,0.16746 2.51367,-17.06445 0.59303,-8.14674 1.09108,-10.44837 2.35156,-10.85743 1.45795,-0.47313 5.52146,-2.2531 13.59961,-5.95703 1.65,-0.75655 3.675,-1.77035 4.5,-2.2539 0.825,-0.48354 3.975,-1.44231 7,-2.12891 3.025,-0.68659 6.12392,-1.48122 6.88672,-1.76562 1.08681,-0.40519 1.24392,0.22082 0.72461,2.89257 -0.36449,1.87524 -0.78425,4.09307 -0.9336,4.92774 -0.14935,0.83467 -0.59504,2.03754 -0.98828,2.67383 -0.39325,0.63628 0.0309,5.80337 0.94141,11.48242 0.91052,5.67904 1.64065,11.29893 1.62305,12.48828 -0.0176,1.18935 0.7061,2.40998 1.60742,2.71289 0.90132,0.30292 2.60918,1.27049 3.79492,2.14844 2.10578,1.55917 2.20523,1.46401 4.2832,-4.08985 1.17008,-3.12732 2.34685,-9.10996 2.61524,-13.29492 0.29492,-4.59873 1.041,-8.16404 1.88672,-9.00976 1.75072,-1.75072 12.14743,-2.3474 13.40429,-0.76953 0.87881,1.10325 2.19846,24.30218 2.25586,39.64062 0.035,9.34062 0.50298,11 3.09375,11 1.86592,0 2.01405,0.46563 1.58399,4.94141 l -0.47461,4.9414 3.87304,-0.15625 c 3.05694,-0.1219 3.74083,-0.47657 3.24415,-1.68945 -0.34608,-0.84508 -0.98887,-2.73084 -1.42774,-4.18945 -0.73971,-2.45848 -0.55604,-2.68037 2.5332,-3.04102 1.84445,-0.21533 3.25215,0.0504 3.15235,0.59375 -0.0992,0.53992 0.60781,1.15279 1.57031,1.36328 2.18212,0.47722 2.46955,-3.54922 0.3125,-4.37695 -0.79032,-0.30326 -1.18853,-1.19594 -0.88672,-1.98242 0.3018,-0.78649 -0.005,-2.09704 -0.68164,-2.91211 -0.67645,-0.81506 -0.99336,-2.38395 -0.70508,-3.48633 0.28828,-1.10238 0.17579,-2.21853 -0.24804,-2.48047 -0.42382,-0.26194 -0.80667,-4.19889 -0.85157,-8.75 -0.0448,-4.55111 -0.38288,-9.40039 -0.75195,-10.77539 -0.36906,-1.375 -0.82502,-6.72414 -1.01367,-11.88672 -0.29153,-7.978 -0.14631,-9.11446 0.97851,-7.57617 1.24649,1.70468 1.42685,1.65494 3.07813,-0.86523 1.35433,-2.06701 1.87085,-5.61362 2.27539,-15.5879 0.491,-12.10603 0.39145,-13.08175 -1.61524,-15.63281 C 394.9635,134.95471 394,133.11606 394,132.36523 394,131.47174 392.79078,131 390.5,131 c -4.75663,0 -4.9917,0.13894 -5.0625,3 -0.0505,2.04058 -0.5058,2.44822 -2.47852,2.2207 -3.41324,-0.39365 -3.64021,-0.85799 -4.40625,-9.02734 l -0.68554,-7.30859 4.8164,0.30859 c 4.49168,0.28678 5.01775,0.70457 4.15039,3.30664 -0.18333,0.55 0.11602,1.10693 0.66602,1.23828 0.55,0.13136 1,-0.54364 1,-1.5 0,-1.2308 0.94953,-1.82897 3.25,-2.05078 2.62928,-0.25351 3.25,-0.75093 3.25,-2.60352 0,-1.25947 0.29157,-5.08371 0.64844,-8.49804 l 0.64844,-6.20899 -2.75391,0.3125 L 390.78711,104.5 391.0293,93 c 0.24904,-11.823492 0.47648,-16.127969 0.90039,-17 0.13368,-0.275 0.37641,-2.525 0.53906,-5 0.30046,-4.572154 1.71203,-9.362058 4.16992,-14.154297 C 397.38741,55.385842 398,53.483487 398,52.619141 c 0,-0.864346 0.89815,-3.044913 1.99609,-4.845703 2.44003,-4.002018 2.45785,-4.312311 0.25391,-4.470704 -0.9625,-0.06917 -6.25,-0.659413 -11.75,-1.310546 -5.20856,-0.616634 -11.23957,-0.809206 -16.35352,-0.636719 z m -156.04492,1.792969 c -3.04234,-0.0041 -4.95244,0.983816 -7.70117,3.53125 -2.73197,2.5319 -2.91262,2.561607 -5.69141,0.966796 -3.52399,-2.02249 -5.01569,-2.055629 -8.60937,-0.197265 -3.34612,1.730346 -5.58057,4.907921 -6.54883,9.316406 -0.84319,3.839016 0.63473,4.316145 2.26758,0.732422 2.48823,-5.461073 11.32194,-8.189714 15.9707,-4.933594 2.11188,1.479213 2.36984,1.399964 4.76563,-1.447265 1.39333,-1.655874 3.46029,-3.304319 4.59375,-3.664063 2.51872,-0.79941 10.70563,1.295848 13.10156,3.353516 1.56149,1.341041 1.75,1.334897 1.75,-0.0625 0,-2.590645 -5.69458,-6.576645 -10.40625,-7.283203 -1.33912,-0.200815 -2.47807,-0.31114 -3.49219,-0.3125 z m 162.12891,3.083984 c 1.31186,-0.0125 2.23842,0.199795 3.07226,0.636719 1.20829,0.633124 4.56766,1.258944 7.46485,1.390625 6.54786,0.297608 6.79425,2.55619 0.47851,4.384765 -8.50309,2.461875 -27.0281,1.981802 -29.71875,-0.769531 -0.8949,-0.91508 6.11795,-3.507234 13.31836,-4.923828 2.37632,-0.467513 4.07291,-0.70625 5.38477,-0.71875 z m -156.82422,7.285156 c -0.40444,0.0098 -0.70084,0.151047 -0.87305,0.429688 -0.29185,0.472225 0.82387,1.330709 2.48047,1.908203 2.95549,1.030287 4.85746,3.607391 3.59375,4.871093 -0.35211,0.352115 -1.17338,0.107866 -1.82422,-0.542968 -1.52805,-1.528049 -5.04817,-1.520194 -6.58398,0.01563 -0.8223,0.822305 -1.52361,0.876782 -2.22852,0.171875 -0.70491,-0.704907 -0.34105,-1.901699 1.1543,-3.802735 1.94031,-2.46671 1.98198,-2.735648 0.38477,-2.421875 -0.98799,0.194088 -2.11208,1.028516 -2.49805,1.853516 -0.38597,0.825 -1.27525,2.592291 -1.97656,3.927734 -1.17055,2.228972 -0.99766,2.656832 2.0957,5.222657 1.85333,1.537262 3.50316,2.807465 3.66797,2.822265 1.16545,0.104624 6.20033,-3.319194 8.61523,-5.859375 l 2.91602,-3.066406 -2.85156,-2.273437 c -2.67855,-2.13632 -4.85894,-3.285145 -6.07227,-3.25586 z m 10.7832,1.333984 c -0.62729,-0.06695 -0.75,4.034681 -0.42578,12.53125 0.50565,13.251432 0.48965,13.381376 -2.37695,18.666016 -1.58763,2.926841 -4.28896,6.813579 -6.00391,8.636719 -2.61284,2.777694 -3.82809,3.314094 -7.5,3.308594 -5.02788,-0.0076 -8.67027,-2.066962 -13.04883,-7.378907 C 200.17536,87.389858 198,86.627868 198,88.921875 c 0,0.441672 2.09664,3.113584 4.66016,5.939453 L 207.32227,100 h 7.38085 c 8.08003,0 8.30037,-0.120369 14.14258,-7.695312 5.54222,-7.185975 7.79446,-21.905213 5.03125,-32.878907 -0.75355,-2.992623 -1.31112,-4.534049 -1.6875,-4.574219 z m -108.08789,2.308594 c 0.75308,0.0099 0.57744,1.364179 -0.54101,4.041016 -2.32983,5.57607 -6.76797,7.707149 -20.9961,10.085937 -4.704514,0.786543 -8.115099,1.86679 -8.37695,2.652344 -0.333455,1.000364 0.385815,1.175568 2.935547,0.712891 C 98.980616,74.315268 103.875,73.789857 108,73.486328 l 7.5,-0.550781 -4.98242,2.107422 c -2.74043,1.158961 -7.14117,2.361381 -9.7793,2.673828 -8.276765,0.980261 -6.823369,2.619435 1.6211,1.828125 C 106.56122,79.151177 110,79.08087 110,79.388672 c 0,0.982884 -5.64802,3.521693 -10.019531,4.503906 -2.859162,0.642411 -4.999308,0.600068 -6.603516,-0.130859 -2.881203,-1.312763 -11.933756,0.461769 -17.068359,3.345703 -5.133904,2.883541 -5.269134,2.696811 -2.28711,-3.148438 1.901612,-3.727467 6.802783,-7.653186 12.898438,-10.332031 C 88.339202,73.003224 90.625,71.748049 92,70.837891 c 1.375,-0.910158 5.2,-2.176009 8.5,-2.8125 10.94497,-2.111021 14.69728,-3.775405 21.24609,-9.427735 1.11806,-0.965006 1.90363,-1.443418 2.35547,-1.4375 z m 73.08203,0.246094 c -1.02592,-0.120904 -1.79585,0.118152 -2.80859,0.660156 -1.30626,0.699085 -2.375,1.835484 -2.375,2.525391 0,0.958205 0.69377,0.909384 2.93555,-0.208985 2.59426,-1.294187 3.36499,-1.283691 6.65234,0.08984 5.54188,2.315529 5.48847,0.891217 -0.0586,-1.5625 -2.03808,-0.901537 -3.31978,-1.383002 -4.34571,-1.503906 z m 179.56446,0.08203 c 5.89764,-0.0068 11.846,0.327623 12.04883,1.011719 0.16304,0.55 -0.46389,4.10103 -1.39258,7.890625 -1.3804,5.632849 -1.59081,9.985767 -1.1543,23.853516 l 0.5332,16.962889 -2.79882,-0.56055 c -1.5399,-0.30798 -4.18571,-0.16139 -5.87891,0.32422 -1.69321,0.4856 -3.29115,0.53729 -3.55078,0.11719 -0.44373,-0.71797 -0.68014,-2.86473 -2.10547,-19.08789 -0.75638,-8.609017 -4.23209,-23.853473 -6.02149,-26.408203 -0.78476,-1.120405 -1.42678,-2.499332 -1.42578,-3.064453 10e-4,-0.68433 5.84845,-1.032249 11.7461,-1.039063 z m -153.85157,2.703125 c 0.45925,0.02414 0.87545,0.180129 1.18946,0.494141 0.62722,0.627215 0.83829,1.628639 0.46875,2.226562 -0.92183,1.491541 -5.82773,1.408943 -5.32813,-0.08984 0.52967,-1.589002 2.29218,-2.703276 3.66992,-2.63086 z M 379.5,62.5 c -2.036,0 -3.07972,0.551389 -3.31055,1.75 -0.27122,1.408351 0.37583,1.75 3.31055,1.75 2.93472,0 3.58177,-0.341649 3.31055,-1.75 C 382.57972,63.051389 381.536,62.5 379.5,62.5 Z m -182.93164,0.248047 c -1.47075,0.02063 -2.5943,0.486475 -3.1543,1.392578 -0.30554,0.494364 -0.04,2.464659 0.5918,4.378906 C 194.63762,70.433779 195.57612,72 196.0918,72 197.88368,72 208,65.802941 208,64.705078 c 0,-0.805957 -0.29768,-0.805836 -1.10352,0 -0.80583,0.805836 -2.18461,0.621693 -5.0957,-0.68164 -1.94533,-0.870954 -3.76167,-1.296026 -5.23242,-1.275391 z M 200.18945,65 c 1.08699,0 1.80332,0.523635 1.58985,1.164062 C 201.23634,67.792929 197,70.486648 197,69.203125 197,66.775437 198.34703,65 200.18945,65 Z m 177.31446,4.263672 C 377.14817,69.423935 377,69.788562 377,70.382812 377,71.512405 377.90381,72 380,72 c 1.65,0 3,-0.45 3,-1 0,-0.55 -0.3375,-1.006162 -0.75,-1.013672 -0.4125,-0.0075 -1.7625,-0.28555 -3,-0.617187 -0.82706,-0.221646 -1.39036,-0.265732 -1.74609,-0.105469 z M 218.16797,73.03125 c -1.00513,0.01788 -2.18784,0.38901 -2.90039,1.101562 -0.62319,0.623194 -3.63936,1.07645 -6.70117,1.00586 C 204.36036,75.041708 203,75.357305 203,76.431641 c 0,0.782066 0.7875,1.627379 1.75,1.878906 3.66303,0.957251 6.89357,0.580775 11,-1.283203 2.3375,-1.06103 4.25,-2.401625 4.25,-2.978516 0,-0.69988 -0.8269,-1.035455 -1.83203,-1.017578 z M 379.5,77.228516 c -2.37376,-0.196458 -3.39927,1.540181 -1.83398,3.105468 C 379.05609,81.724057 382,80.966571 382,79.21875 c 0,-1.178843 -0.84608,-1.853351 -2.5,-1.990234 z m -162.43945,6.304687 c -3.70449,-0.233624 -9.94286,0.467561 -10.5918,1.517578 -0.26132,0.422825 -0.20085,1.484742 0.13477,2.359375 0.74875,1.951192 1.73887,1.96283 7.10937,0.0918 2.31752,-0.807398 4.90502,-1.201204 5.75,-0.876953 1.91106,0.733342 2.01708,-0.981035 0.15625,-2.525391 -0.37059,-0.307559 -1.32376,-0.488531 -2.55859,-0.566406 z m 162.61328,2.650391 C 377.77956,85.959345 377,86.323471 377,87.433594 377,88.516804 377.9518,89 380.08398,89 c 3.82597,0 3.48298,-2.355528 -0.41015,-2.816406 z m -286.224611,0.05664 c 0.872599,0.03293 2.007261,0.148681 3.433593,0.337891 5.444148,0.722191 6.554458,1.802866 2.867188,2.791016 -3.776574,1.012083 -6.442284,0.706656 -7.769531,-0.892579 -1.396561,-1.68275 -1.149047,-2.335106 1.46875,-2.236328 z M 215.60742,89 C 214.29716,89 213,91.030543 213,93.082031 213,93.587048 213.9,94 215,94 c 1.46667,0 2,-0.666667 2,-2.5 0,-1.470218 -0.57337,-2.5 -1.39258,-2.5 z M 83.984375,91.044922 c -1.833703,-0.2782 -5.533248,0.797285 -5.789063,2.148437 -0.230743,1.218745 0.327205,1.658286 1.992188,1.572266 C 82.755508,94.632952 85,93.256773 85,91.814453 c 0,-0.43311 -0.404391,-0.676798 -1.015625,-0.769531 z m 295.910155,4.09375 c -0.41671,-0.04158 -0.87793,0.02394 -1.36523,0.210937 -0.82649,0.317028 -1.15992,1.350939 -0.83594,2.589844 0.70071,2.679497 4.30664,2.779077 4.30664,0.119141 0,-1.702132 -0.85535,-2.795174 -2.10547,-2.919922 z M 98.662109,95.328125 C 98.894937,95.560954 97.680272,96.931563 95.964844,98.375 93.036893,100.83871 88,101.98522 88,100.1875 88,99.254492 98.021229,94.687246 98.662109,95.328125 Z M 225.1543,102.07422 c -1.31789,0.0939 -3.42555,0.54205 -6.58594,1.36523 -3.04123,0.79214 -7.09429,1.18717 -9.00586,0.87696 -1.91157,-0.3102 -4.26911,-0.25937 -5.24023,0.11328 -1.51395,0.58096 -1.55707,0.81997 -0.29493,1.67383 3.31338,2.24156 22.97266,-0.55134 22.97266,-3.26368 0,-0.598 -0.52782,-0.85952 -1.8457,-0.76562 z m -128.388675,0.0977 c 0.74001,0.25387 -0.263837,1.73454 -2.3125,2.66796 C 90.697532,106.55093 85,106.34604 85,104.5 c 0,-1.107 1.157335,-1.5 4.417969,-1.5 2.430016,0 5.130016,-0.27357 6,-0.60742 0.66006,-0.25329 1.100986,-0.30536 1.347656,-0.2207 z M 56.228516,106 c -2.646804,0 -4.210433,0.51127 -4.589844,1.5 -0.440976,1.14916 0.206,1.5 2.769531,1.5 1.840394,0 3.907108,-0.675 4.591797,-1.5 1.071417,-1.29098 0.684427,-1.5 -2.771484,-1.5 z m 28.939453,1.77539 c 0.641462,0.0444 1.427609,0.20877 2.357422,0.49414 1.938019,0.59479 3.176059,1.39478 2.75,1.77735 -1.834376,1.64704 -6.32496,1.98931 -6.886719,0.52539 -0.761785,-1.98519 -0.145089,-2.92999 1.779297,-2.79688 z m 302.111331,1.45117 c 1.57093,0.12287 1.86501,0.64934 2.23047,1.80078 0.50666,1.59634 0.0775,2.57917 -1.66407,3.8125 -2.33567,1.65408 -10.34765,2.94455 -14.55859,2.34571 -1.90889,-0.27147 -2.12817,-0.75119 -1.60547,-3.5 0.33314,-1.75198 0.65439,-3.23974 0.71289,-3.30664 0.0585,-0.067 3.77977,-0.43331 8.26953,-0.8125 1.94301,-0.1641 3.42553,-0.28218 4.56836,-0.33594 0.85713,-0.0403 1.52323,-0.0448 2.04688,-0.004 z m -177.25586,1.33203 c -0.75866,0.10877 -1.25216,0.46881 -1.74219,1.11914 -0.6699,0.88903 -1.01176,1.9497 -0.75977,2.35743 0.25199,0.40773 4.70452,0.67981 9.89454,0.60351 9.09883,-0.13369 9.3769,-0.20421 7.77148,-1.98047 -1.19512,-1.32263 -2.55378,-1.69723 -4.81641,-1.33008 -1.7337,0.28137 -4.88902,0.11171 -7.01171,-0.37695 -1.55279,-0.35746 -2.57729,-0.50134 -3.33594,-0.39258 z m -149.005862,0.0566 c -0.428548,0.0819 -1.0168,0.28694 -1.767578,0.60938 -3.624795,1.55674 -3.54894,1.48263 -2.791016,2.70898 0.973005,1.57435 2.643472,1.29896 4.148438,-0.68359 1.540506,-2.02936 1.695801,-2.88048 0.410156,-2.63477 z M 70.394531,111 C 69.28938,111 62,117.15129 62,118.08398 c 0,1.64295 2.03952,0.96922 5.552734,-1.83398 3.03611,-2.42252 4.567208,-5.25 2.841797,-5.25 z M 382,112 c -0.55,0 -1,0.45 -1,1 0,0.55 0.45,1 1,1 0.55,0 1,-0.45 1,-1 0,-0.55 -0.45,-1 -1,-1 z m -5.1543,0.25781 c -0.61545,0.0879 -1.30815,0.62758 -1.61718,1.55469 -0.21771,0.65313 0.31666,1.1875 1.1875,1.1875 0.87083,0 1.58398,-0.71315 1.58398,-1.58398 0,-0.88297 -0.53885,-1.24613 -1.1543,-1.15821 z M 195.5,113 c -0.825,0 -1.5,0.45 -1.5,1 0,0.55 0.675,1 1.5,1 0.825,0 1.5,-0.45 1.5,-1 0,-0.55 -0.675,-1 -1.5,-1 z m -123.966797,3.68164 c -0.436888,0.022 -0.969011,0.19699 -1.560547,0.56641 -1.063881,0.6644 -2.153516,1.78114 -2.421875,2.48047 -0.679787,1.77149 2.913458,1.62022 4.41211,-0.18555 1.337737,-1.61187 0.880977,-2.92742 -0.429688,-2.86133 z m 200.302737,6.60742 c 0.2384,-0.0317 0.49021,0.006 0.75976,0.10938 0.86233,0.33092 1.93274,0.60156 2.37891,0.60156 1.78042,0 1.99134,3.30692 0.29297,4.5957 -2.05733,1.56118 -4.90167,1.80403 -5.71485,0.48828 -0.31139,-0.50385 -0.10844,-2.1245 0.45313,-3.60156 0.52663,-1.38512 1.11488,-2.09829 1.83008,-2.19336 z m -220.886721,4.76563 c -0.855827,0.16107 -2.174561,1.00078 -3.732422,2.44531 -1.851599,1.7169 -2.221692,2.5 -1.179688,2.5 C 47.916412,133 52,130.22202 52,128.94336 c 0,-0.41669 -0.125345,-0.6875 -0.357422,-0.82031 -0.174057,-0.0996 -0.408084,-0.12201 -0.693359,-0.0684 z M 389,136 c 0.55,0 1,0.41296 1,0.91797 0,0.50502 0.27357,1.63002 0.60742,2.5 0.39831,1.03799 0.0545,1.58203 -1,1.58203 C 388.55996,141 388,140.12953 388,138.5 c 0,-1.375 0.45,-2.5 1,-2.5 z m -212.49609,3.0293 c 0.83865,0.0986 1.84331,0.50498 2.93164,1.30078 1.50634,1.10146 1.61901,1.70105 0.65625,3.5 -1.4171,2.64787 -2.28996,2.71478 -4.4375,0.3418 -2.68968,-2.97209 -1.66636,-5.4384 0.84961,-5.14258 z m 197.07812,0.36523 C 376.04995,138.76957 387,143.69146 387,145.42578 c 0,0.65549 -0.56828,1.96768 -1.26172,2.91602 -1.17355,1.60493 -1.49752,1.54922 -4.69336,-0.8086 C 377.17193,144.6758 376,144.39881 376,146.33984 c 0,0.73672 1.19367,1.88227 2.65234,2.54688 3.99433,1.81994 1.39947,3.59701 -5.39648,3.69531 -3.24257,0.0469 -5.80483,0.56285 -6.02148,1.21289 -0.5453,1.63586 4.22227,2.56751 6.60742,1.29102 3.80616,-2.037 4.44237,-1.4001 3.92968,3.93554 -0.2654,2.76209 -0.65988,5.18401 -0.87695,5.38086 -0.21707,0.19686 -4.29251,0.55305 -9.05664,0.79297 l -8.66211,0.4375 -0.42578,-3.5664 c -0.80135,-6.7008 8.61686,-21.098 14.83203,-22.67188 z m 19.31836,4.20508 c 0.66528,0.14909 1.09961,1.31524 1.09961,3.45312 0,2.29192 -0.90934,3.59361 -4.15039,5.94141 -2.28252,1.65345 -4.75752,3.00586 -5.5,3.00586 -2.32047,0 -1.47184,-2.41439 1.5625,-4.44727 1.59814,-1.07069 3.6255,-3.4566 4.50586,-5.30273 0.92106,-1.93148 1.81714,-2.79948 2.48242,-2.65039 z M 265.56836,144 c 3.17264,0 3.49315,0.23365 2.89844,2.10742 -0.36778,1.15879 -1.39951,2.95879 -2.29102,4 C 263.45393,153.28631 262,152.32046 262,147.33398 262,144.17913 262.19198,144 265.56836,144 Z m -211.185548,1.28711 c 1.703216,0.75167 8.525696,7.20774 8.679688,8.45117 0.04849,0.39151 -0.343711,0.85545 -0.871094,1.03125 C 60.999398,155.16686 54,147.11435 54,145.3457 c 0,-0.15726 0.139496,-0.16595 0.382812,-0.0586 z m -2.042968,3.05078 c 0.120491,-0.0826 0.285878,-0.0683 0.503906,0.0664 0.635854,0.39298 1.15625,1.20741 1.15625,1.81054 0,0.60312 1.147791,2.60199 2.550781,4.44141 2.757372,3.6151 1.169116,4.90184 -1.884765,1.52734 -1.761137,-1.94603 -3.169614,-7.26752 -2.326172,-7.8457 z M 159.86914,149 c -1.90584,0 -2.0661,0.39599 -1.51172,3.75 0.34091,2.0625 0.62486,4.9875 0.63086,6.5 0.009,2.13038 0.48919,2.75 2.12891,2.75 1.70702,0 1.99995,-0.43542 1.51367,-2.25 -0.33164,-1.2375 -0.60919,-4.1625 -0.61719,-6.5 -0.0118,-3.66605 -0.30647,-4.25 -2.14453,-4.25 z m 30.37305,4.1875 c 3.49783,0.33811 5.09128,3.35241 2.60547,4.92773 -1.9084,1.20941 -2.33098,1.11455 -4.19336,-0.94335 -2.6284,-2.90435 -2.05682,-4.33668 1.58789,-3.98438 z m 113.91992,2.01172 c -0.33171,-0.11034 -0.6072,-0.0862 -0.80273,0.10937 -0.34614,0.34613 0.10635,1.75218 1.00585,3.125 C 306.62746,161.88619 306.4159,163 303.5,163 c -2.42787,0 -3.19359,0.97438 -1.83398,2.33398 0.98363,0.98364 8.12769,0.80983 8.75976,-0.21289 1.08741,-1.75946 -3.94167,-9.1495 -6.26367,-9.92187 z m 87.7832,0.26367 c 1.351,0.14117 1.59161,1.08624 0.0215,2.05664 -2.21436,1.36857 -6.96327,2.29388 -7.48047,1.45703 -0.62194,-1.00632 1.77779,-2.4046 5.76367,-3.35742 0.67076,-0.16034 1.24498,-0.20331 1.69531,-0.15625 z M 354.79492,156 c 0.91611,0.005 1.10424,1.20654 1.58399,5.5 1.6465,14.73524 1.77475,19.44527 0.67187,24.75781 -0.65166,3.13904 -1.54184,5.92665 -1.97656,6.19531 -0.43471,0.26867 -1.7624,-1.41084 -2.95117,-3.73242 -1.69066,-3.30173 -2.19775,-6.19141 -2.32617,-13.26953 -0.0903,-4.97691 0.0851,-9.47691 0.38867,-10 0.30357,-0.5231 0.8607,-2.66249 1.23828,-4.7539 0.37759,-2.0914 1.35546,-4.05901 2.17383,-4.37305 0.50484,-0.19373 0.89189,-0.32592 1.19726,-0.32422 z m -108.44531,0.96875 c 1.51009,0.11505 2.65039,0.8005 2.65039,1.99609 0,1.08065 -0.86975,2.43065 -1.93359,3 -2.73276,1.46253 -4.61202,1.28842 -6.15625,-0.57226 -1.13401,-1.3664 -1.04883,-1.81748 0.56836,-3 1.48077,-1.08278 3.361,-1.53888 4.87109,-1.42383 z m -95.97852,3.50781 c -0.38263,0.0417 -0.86026,0.24961 -1.46679,0.57422 -1.63568,0.87539 -1.86075,1.69214 -1.3086,4.75391 0.36658,2.0328 0.87486,4.05705 1.12891,4.5 0.25404,0.44299 1.20792,0.65829 2.11914,0.47851 1.31373,-0.25919 1.58354,-1.25341 1.30273,-4.80468 -0.33609,-4.25034 -0.6275,-5.62701 -1.77539,-5.50196 z M 387,162 c 2.49071,0 3.87381,0.39517 3.5,1 -0.33992,0.55 -1.91492,1 -3.5,1 -1.58508,0 -3.16008,-0.45 -3.5,-1 -0.37381,-0.60483 1.00929,-1 3.5,-1 z m -0.30664,4.89648 0.0527,10.30274 c 0.0686,13.21997 1.0483,24.73371 2.7461,32.27734 0.73988,3.28745 1.12986,6.32495 0.86719,6.75 -0.77313,1.25094 -6.17157,0.88456 -7.01954,-0.47656 -0.66778,-1.07187 -1.36977,-17.93823 -1.73828,-41.75 -0.0973,-6.28361 -0.0157,-6.50923 2.49414,-6.80078 z m -67.25977,3.24219 c -0.28031,-0.0129 -0.62399,0.35994 -1.04492,1.04102 -0.84334,1.36454 -1.50286,28.82549 -0.72265,30.08789 0.28651,0.46355 1.26651,0.69281 2.17773,0.50976 1.19138,-0.23934 1.56574,-1.16713 1.33203,-3.30468 -0.17876,-1.6349 -0.4038,-8.71012 -0.5,-15.72266 -0.12438,-9.06272 -0.40124,-12.57255 -1.24219,-12.61133 z m -178.54297,71 c 1.48241,0.22618 3.05244,1.44085 4.23829,3.57227 1.77906,3.19765 1.77541,3.21896 -0.80664,5.25 -5.86964,4.61706 -10.34193,0.56748 -7.13868,-6.46289 0.83094,-1.82371 2.22466,-2.58556 3.70703,-2.35938 z M 328.72852,251.75 c 0.4008,-0.1375 0.82332,0.98524 0.93945,2.49609 0.2801,3.64408 -2.52185,5.24594 -5.51367,3.15039 C 322.96926,256.56645 322,255.01217 322,253.94336 322,252.4508 322.69585,252 325,252 c 1.65,0 3.32773,-0.1125 3.72852,-0.25 z m -56.14844,4.30664 C 271.72315,255.85472 271,256.12298 271,257 c 0,0.55 0.45,1 1,1 1.33618,0 1.28669,5.70485 -0.0566,6.53516 -0.58125,0.35919 -2.2032,0.36507 -3.60352,0.0137 -2.29055,-0.57489 -2.47962,-0.98533 -1.89648,-4.09375 0.76332,-4.06883 -0.23434,-4.37251 -3.37695,-1.02735 -2.77404,2.95283 -2.54897,3.7567 1.93359,6.92579 4.59647,3.24963 5.34544,3.21252 8.41016,-0.42969 2.81713,-3.34797 3.14337,-5.02173 1.55468,-7.99024 -0.5371,-1.00358 -1.52783,-1.67503 -2.38476,-1.87695 z m -77.23633,9.25586 c -0.50688,0.0509 -1.05906,0.17298 -1.70508,0.35742 -4.21007,1.20199 -4.57424,4.3709 -1.08203,9.41016 2.88935,4.16932 6.50546,5.17398 9.61328,2.66992 1.90599,-1.5357 3.12302,-4.75 1.79883,-4.75 -0.53274,0 -0.96875,0.45 -0.96875,1 0,1.41086 -6.35279,1.24877 -7.80078,-0.19922 -1.31023,-1.31023 -1.65851,-5.80552 -0.44922,-5.79492 0.4125,0.004 2.1,0.90139 3.75,1.99414 3.5191,2.33061 4.5,2.48003 4.5,0.6875 0,-0.72157 -1.39984,-2.34597 -3.11133,-3.61133 -1.92176,-1.42081 -3.02427,-1.91636 -4.54492,-1.76367 z m 60.79883,4.18555 c -0.78239,-0.0868 -1.72176,0.2639 -3.44141,0.98242 -5.54597,2.31725 -6.95203,6.90102 -3.45703,11.26953 1.82089,2.27598 6.50729,1.425 9.78125,-1.77539 3.44801,-3.37054 3.36428,-5.31928 -0.37695,-8.83399 -1.09755,-1.03109 -1.72347,-1.55576 -2.50586,-1.64257 z m 0.008,2.66601 c 1.43728,0.38831 1.77608,1.90264 0.76172,4.12891 -1.39911,3.07073 -3.76561,4.25379 -4.5293,2.26367 -0.98669,-2.57128 0.0805,-6.02977 1.97266,-6.39062 0.71353,-0.13608 1.31583,-0.13131 1.79492,-0.002 z m -43.10742,3.50977 c -1.83862,-0.10338 -2.59576,1.28051 -4.13672,5.63086 -1.15962,3.27378 -1.1424,3.93407 0.12305,4.73437 1.9865,1.2563 5.9707,1.2095 5.9707,-0.0703 0,-0.56727 -0.675,-1.29084 -1.5,-1.60742 -0.825,-0.31659 -1.5,-1.48498 -1.5,-2.59766 0,-1.80618 0.48242,-1.96846 4.5,-1.51562 6.41764,0.72336 5.69768,-1.71459 -1.18945,-4.0293 -0.92221,-0.30995 -1.65471,-0.51046 -2.26758,-0.54492 z M 240.38477,281 C 237.16024,281 233,283.77417 233,285.92383 c 0,0.97142 4.74598,7.05357 6.48438,8.31055 1.41911,1.02609 1.72449,0.94215 4.26562,-1.17774 2.75087,-2.29487 3.11708,-5.62818 0.5,-4.55078 -4.37754,1.80216 -5.20397,1.69006 -6.36914,-0.86719 -0.91785,-2.01443 -0.89748,-2.91488 0.0937,-4.10937 1.71316,-2.06423 3.35829,-1.92392 5.52539,0.4707 2.5596,2.82832 3.86491,2.48631 1.9082,-0.5 -1.21327,-1.85168 -2.51626,-2.5 -5.02343,-2.5 z m -21.45704,3.28906 c -1.19757,0.0726 -2.92773,0.98656 -2.92773,1.81836 0,1.13978 1.10084,1.11426 2.9707,-0.0684 0.80903,-0.51167 1.21043,-1.18995 0.89258,-1.50781 -0.19694,-0.19694 -0.53635,-0.26638 -0.93555,-0.24219 z m 7.18165,10.88867 c 0.38784,0.6276 0.55551,1.63255 0.37109,2.23243 -1.68114,5.46856 -2.38894,32.27033 -1.2168,46.08984 1.21407,14.31386 0.97067,26.37256 -0.70703,35 -0.85563,4.4 -1.55654,10.1375 -1.55664,12.75 -9e-5,2.6125 -0.3375,4.72587 -0.75,4.69727 -0.4125,-0.0286 -3.56702,-1.23403 -7.00977,-2.67969 l -6.25976,-2.62891 -4.13086,2.20508 c -2.2726,1.21305 -4.32299,2.01686 -4.55469,1.78516 -0.23171,-0.23171 0.0262,-3.05578 0.57227,-6.27539 0.54609,-3.2196 0.96228,-10.13134 0.92578,-15.35938 -0.0536,-7.67151 0.34632,-10.40933 2.06836,-14.18945 1.17355,-2.57611 2.53349,-4.93083 3.02148,-5.23242 0.48798,-0.30159 1.19882,-2.62747 1.58008,-5.16993 0.89267,-5.95271 6.62643,-23.64825 10.98633,-33.90234 1.87082,-4.4 3.9776,-10.80494 4.67969,-14.23242 0.70209,-3.42749 1.59258,-5.71746 1.98047,-5.08985 z m -36.47852,31.10743 c -0.52606,-0.0178 -1.0958,0.0439 -1.64063,0.21679 -1.2786,0.40581 -1.99023,1.51488 -1.99023,3.09766 0,1.3556 -0.63587,3.98908 -1.41406,5.85156 -0.77824,1.86247 -1.15385,3.64694 -0.83399,3.9668 1.08617,1.08617 2.30808,0.58775 2.86328,-1.16797 1.27761,-4.04018 3.89344,-9.79449 4.71485,-10.375 1.06518,-0.75278 -0.12104,-1.53644 -1.69922,-1.58984 z m 47.69531,5.7207 c -0.15465,-0.0502 -0.31974,-0.0442 -0.49414,0.0195 -0.19932,0.0728 -0.41247,0.22107 -0.63672,0.44531 -0.36921,0.36921 -0.78162,3.82438 -0.91797,7.67774 -0.2615,7.39033 1.18926,11.85908 4.47266,13.77148 3.72097,2.16726 4.50521,0.33529 1.25,-2.91992 -1.66419,-1.66419 -2,-3.33376 -2,-9.94141 0,-5.57975 -0.59123,-8.70113 -1.67383,-9.05273 z m -45.15234,11.0293 c -0.93943,-0.061 -2.14244,2.39697 -2.15821,4.76172 -0.0143,2.13805 -3.79779,6.63116 -6.28124,7.45898 -0.5992,0.19973 -0.75641,0.89769 -0.35157,1.55273 0.95724,1.54885 1.72868,1.50272 4.24219,-0.25781 2.153,-1.50802 6.09583,-12.16393 4.93164,-13.32812 -0.11919,-0.11919 -0.24861,-0.17879 -0.38281,-0.1875 z m 56.57422,0.25586 c -0.10816,-0.0949 -0.26368,-0.0901 -0.47266,0.0391 -0.57018,0.35239 -1.2574,1.65866 -1.52734,2.9043 -0.26995,1.2456 -0.8379,3.16562 -1.26172,4.26562 -0.69644,1.80762 -0.61425,1.85414 0.84961,0.48633 1.61646,-1.51044 3.16917,-7.03098 2.41211,-7.69531 z m -13.34375,25.00586 c -0.75466,-0.24825 -1.0664,3.07799 -1,10.66992 0.06,6.86566 0.4733,10.90664 1.0957,10.70117 2.33465,-0.77072 2.24592,-20.60081 -0.0957,-21.37109 z m -66.6543,9.97656 c -1.22467,0.43196 -1.44576,7.47107 -0.32617,10.38867 1.0518,2.74095 1.57617,1.16257 1.57617,-4.74609 0,-4.43515 -0.33867,-5.96402 -1.25,-5.64258 z M 255,390.5 c -0.55,0.33992 -1,1.04105 -1,1.55859 0,0.51754 0.45,0.94141 1,0.94141 0.55,0 1,-0.70113 1,-1.55859 0,-0.85748 -0.45,-1.28133 -1,-0.94141 z m -85.46484,0.79297 c -0.1158,0.0546 -0.2302,0.16545 -0.33985,0.33398 -0.41804,0.64281 -7.28795,1.33083 -17.19531,1.72266 -16.51575,0.65318 -23.96308,1.07157 -38,2.13281 -4.125,0.31186 -17.625,0.79205 -30,1.06641 -12.375,0.27436 -25.337001,0.59997 -28.804688,0.72461 l -0.970703,0.0351 c 0.579628,1.40803 1.062589,2.8864 1.431641,4.30469 6.663007,-0.52288 54.83945,-2.0137 59.34375,-1.83203 0.825,0.0333 6,-0.34021 11.5,-0.82813 12.07784,-1.07143 30.08775,-2.08284 37.1875,-2.08984 5.59269,-0.006 8.00683,-1.61258 6.87109,-4.57226 -0.20968,-0.54642 -0.4406,-0.88041 -0.67382,-0.99414 -0.11662,-0.0569 -0.23381,-0.0584 -0.34961,-0.004 z m 104.14062,3.26562 c -5.54483,0.0133 -12.08955,0.19538 -18.32617,0.54493 -1.52805,0.0856 -2.77688,1.46206 -4.31445,4.75781 -1.19007,2.5509 -3.70989,7.65981 -5.59961,11.35351 -1.88971,3.6937 -3.45075,7.5187 -3.46875,8.5 -0.018,0.9813 -0.90271,4.26016 -1.9668,7.28516 -1.06409,3.025 -1.9488,6.7375 -1.9668,8.25 -0.018,1.5125 -0.4832,2.75 -1.0332,2.75 -0.55,0 -1,1.62901 -1,3.62109 0,3.54028 0.0507,3.5888 2.25,2.10157 1.74134,-1.17756 2.18609,-2.31812 1.9668,-5.04297 -0.15584,-1.93644 0.16882,-3.8003 0.72265,-4.14258 2.06476,-1.27609 37.98005,-0.3794 62.56055,1.5625 7.7,0.60831 21.2,1.266 30,1.46094 8.8,0.19495 18.7,0.57811 22,0.85156 3.3,0.27345 9.375,0.77956 13.5,1.125 4.125,0.34544 8.85,1.07373 10.5,1.61719 3.68351,1.21322 15.45467,4.37568 25.5,6.85156 4.125,1.01669 8.85,2.55433 10.5,3.41602 1.65,0.86164 3.45,1.56164 4,1.55664 2.05212,-0.0188 3.68456,-1.77827 3.33789,-3.59766 -0.28217,-1.48088 -1.52345,-1.99847 -5.84766,-2.4375 -3.01958,-0.30658 -9.54023,-1.73903 -14.49023,-3.18164 -14.05148,-4.0951 -30.24298,-7.52835 -39,-8.26953 -4.4,-0.3724 -9.35,-0.81645 -11,-0.98633 -13.14648,-1.35347 -106.62905,-4.5459 -109.6875,-3.74609 -1.89039,0.49435 -1.86613,0.27798 0.47461,-4.3711 1.35399,-2.68924 4.34601,-10.3049 6.64844,-16.92578 l 4.18554,-12.03906 6.13672,-0.16992 c 3.37566,-0.0936 6.61089,0.20119 7.18946,0.65429 0.99587,0.77991 7.54479,1.61176 21.05273,2.67383 3.3,0.25946 10.05,0.89547 15,1.41406 4.95,0.51858 14.85,1.22632 22,1.57422 7.15,0.34791 13.34543,0.8442 13.76758,1.10157 0.42215,0.25736 3.12215,0.65444 6,0.88281 10.55013,0.83719 41.93861,5.67542 49.11719,7.57031 4.90645,1.29513 8.61523,0.43119 8.61523,-2.00586 0,-1.56397 -1.17341,-1.96413 -7.75,-2.63672 -15.39489,-1.57443 -19.93988,-2.27028 -22.75,-3.48242 -1.1,-0.47448 -5.15,-1.09378 -9,-1.37695 -3.85,-0.28316 -9.475,-0.96455 -12.5,-1.51367 -3.025,-0.54916 -7.13996,-1.19221 -9.14453,-1.42969 -2.00458,-0.23747 -4.08414,-0.70329 -4.62109,-1.03516 -0.53697,-0.33186 -4.52201,-0.86152 -8.85547,-1.17773 -4.33345,-0.31622 -8.55391,-0.81642 -9.37891,-1.11133 -0.825,-0.2949 -7.35,-0.75623 -14.5,-1.02539 -7.15,-0.26916 -15.475,-0.85504 -18.5,-1.30078 -2.23443,-0.32922 -6.77939,-0.484 -12.32422,-0.47071 z m -68.38476,1.79688 c 3.86752,-0.24664 9.17906,0.12576 14.95898,1.17969 3.31076,0.6037 3.75,1.02218 3.75,3.57422 0,1.5898 -0.3375,2.83392 -0.75,2.76562 -0.4125,-0.0683 -3,-0.75651 -5.75,-1.53125 -2.75,-0.77473 -8.0375,-1.68471 -11.75,-2.02148 -3.7125,-0.33678 -6.75,-0.98076 -6.75,-1.43165 0,-1.4225 2.42349,-2.28852 6.29102,-2.53515 z m -34.87305,0.95898 c -0.24635,0.0738 -0.47976,0.36849 -0.66797,0.92969 -0.23171,0.69093 -0.10406,2.67266 0.28516,4.4043 1.14792,5.10712 0.01,5.92118 -6.20508,4.43554 C 151.86711,404.22424 78,406.05653 78,409.21289 c 0,0.6157 2.876008,0.71337 7.75,0.26563 12.88719,-1.18386 17.78288,-1.35389 42.25,-1.47657 23.56465,-0.11815 25.18416,-0.0225 36.75,2.18555 l 6.25,1.19336 -0.0234,5.05859 c -0.0134,2.78279 -1.1152,8.88555 -2.44726,13.56055 -2.17025,7.61675 -2.93466,8.9676 -7.35547,13 -2.81953,2.5718 -6.8051,5.06019 -9.30274,5.80664 -6.21868,1.85852 -9.87109,3.54359 -9.87109,4.55469 0,0.47989 1.0125,0.58411 2.25,0.23242 1.2375,-0.35169 5.32078,-1.3995 9.07422,-2.32813 7.3682,-1.82292 10.28371,-4.29428 15.8164,-13.41406 3.3864,-5.58188 5.74661,-22.98973 3.98047,-29.35156 -0.61068,-2.19977 -1.11223,-5.43637 -1.11523,-7.19141 -0.004,-2.45658 -0.84885,-4.2154 -1.58789,-3.99414 z m 34.42187,5.89063 c 4.77213,-0.19379 9.26935,0.30266 13.125,1.44726 5.68223,1.68681 5.86123,1.84321 5.70118,5.03907 -0.1938,3.86978 -0.50437,3.94187 -5.66602,1.30859 -2.82136,-1.43935 -5.89455,-2 -10.96094,-2 -8.48789,0 -9.28203,1.46876 -1.28906,2.38281 3.1625,0.36166 8.5625,1.65726 12,2.87891 5.6197,1.99718 6.25,2.4978 6.25,4.97851 0,3.2181 -1.0127,3.38564 -7.125,1.17969 -9.67341,-3.49116 -22.875,-3.94596 -22.875,-0.78906 0,0.9595 0.71646,1.22816 2.25,0.8457 2.60271,-0.64909 19.90517,1.81888 24.0625,3.43164 2.39858,0.93049 2.76719,1.57045 2.5,4.3418 -0.35333,3.6647 -1.68814,3.84211 -7.7832,1.04102 -3.93599,-1.80885 -19.01296,-3.89568 -21.4336,-2.9668 -3.47307,1.33274 -1.2328,2.47363 6.1543,3.13281 8.24348,0.7356 19.03181,3.12812 20.8418,4.62305 0.6006,0.49605 1.3881,0.60603 1.75,0.24414 0.36189,-0.3619 0.6582,1.02244 0.6582,3.07617 0,3.08893 -0.30234,3.64383 -1.75,3.21094 -1.70635,-0.51026 -15.54703,-2.83651 -23.93945,-4.02344 -2.53066,-0.3579 -4.45065,-0.16896 -4.84961,0.47656 -1.01409,1.64084 -0.34095,1.87213 7.11133,2.44922 8.36438,0.64773 21.19057,2.91519 22.19921,3.92383 0.4012,0.40119 0.7945,1.92982 0.875,3.39648 0.34765,6.33193 1.31796,11.41901 2.43555,12.76563 0.66145,0.79694 0.97813,1.67422 0.70313,1.94922 -0.275,0.275 -1.02335,-0.13074 -1.66211,-0.90039 -0.63876,-0.76966 -3.06546,-1.71028 -5.39258,-2.08985 -4.81085,-0.78468 -30.76183,-0.78445 -35.08399,0 l -2.85156,0.51758 2.10156,-2.67383 C 184.05291,454.93218 185,452.93913 185,451.97266 c 0,-1.55226 1.37048,-1.80678 11.75,-2.18555 6.4625,-0.23582 12.2,-0.11852 12.75,0.25977 1.86099,1.27996 11.32369,2.04604 11.98828,0.9707 0.35068,-0.56741 0.0466,-1.19657 -0.67578,-1.39844 -11.03773,-3.08458 -29.50525,-3.94378 -32.45117,-1.50976 -1.53216,1.26589 -1.61776,1.1209 -0.94727,-1.60938 0.4052,-1.65 1.33208,-7.725 2.06055,-13.5 0.81756,-6.4812 2.62254,-14.13605 4.71484,-20 l 3.39063,-9.5 z m 60.45508,2.63672 c -4.71426,-0.13022 -7.79492,0.64407 -7.79492,2.13476 0,1.03886 1.18658,1.50949 4,1.58399 2.2,0.0582 11.2,0.42848 20,0.82422 8.8,0.39575 20.275,0.88951 25.5,1.0957 5.225,0.20619 13.55,1.07433 18.5,1.92969 4.95,0.85537 11.89756,1.56226 15.43945,1.57226 3.5419,0.01 8.9419,0.47372 12,1.03125 3.05811,0.55753 10.51055,1.71233 16.56055,2.56641 34.95322,4.93438 40.83178,6.0419 44.74805,8.42969 1.78851,1.09047 4.26445,1.98432 5.50195,1.98632 1.89707,0.003 2.25,-0.53355 2.25,-3.42773 0,-2.52432 -0.51605,-3.59785 -1.94922,-4.05274 -1.90539,-0.60475 -1.90711,-0.65933 -0.0742,-2.49218 2.14961,-2.14961 1.6622,-5.91558 -0.86523,-6.68164 -0.88618,-0.2686 -2.39262,-0.90422 -3.34766,-1.41407 -0.95504,-0.50985 -3.20504,-0.8763 -5,-0.8125 -1.98183,0.0704 -2.47818,0.2907 -1.26367,0.5586 1.1,0.24264 3.43303,1.17548 5.18359,2.07422 2.6237,1.34702 3.01022,1.95484 2.20313,3.46289 -0.53849,1.00619 -0.70594,2.2719 -0.37305,2.81054 1.38896,2.24737 -23.53441,0.34382 -34.01367,-2.59765 -4.48676,-1.25941 -34.01054,-5.20589 -39,-5.21289 -1.1,-0.002 -12.35,-0.73928 -25,-1.63867 -12.65,-0.89938 -27.275,-1.82758 -32.5,-2.0625 -5.225,-0.23492 -12.2,-0.78731 -15.5,-1.22852 -1.8809,-0.25147 -3.63366,-0.39605 -5.20508,-0.43945 z M 123.5,414.74805 c -29.240497,0.16225 -50.705236,1.35042 -51.195312,2.83203 -0.354693,1.07226 17.581832,1.00219 20.507812,-0.0801 1.52941,-0.56568 41.1812,-0.5909 52.1875,-0.0332 4.125,0.20902 8.85,0.82634 10.5,1.37109 3.82101,1.26151 9.22191,1.45757 7.94922,0.28906 -0.5225,-0.47973 -4.32422,-1.69042 -8.44922,-2.6914 -6.286,-1.52537 -11.3848,-1.79912 -31.5,-1.6875 z m 134.61133,3.80078 c -5.31741,0.0739 -7.53062,0.46711 -8.26367,1.20117 -0.99853,0.99992 1.94418,1.29244 14.70312,1.46289 8.7725,0.1172 18.19922,0.34537 20.94922,0.50781 2.75,0.16244 13.1,0.74492 23,1.29297 9.9,0.54805 21.6,1.33251 26,1.74414 10.89224,1.01897 15.5,1.11296 15.5,0.31446 0,-2.2322 -18.73672,-3.90703 -65,-5.81055 -13.14905,-0.54103 -21.57126,-0.78683 -26.88867,-0.71289 z M 114.89258,423.125 c -5.21912,-0.0417 -11.33598,0.027 -18.677736,0.18164 -25.030105,0.52715 -31.054061,1.18813 -29.056641,3.18555 0.289067,0.28907 4.759327,0.10574 9.933594,-0.40821 C 82.266064,425.57003 96.175,425.13524 108,425.11914 c 19.20503,-0.0261 22.56743,0.22399 31.5,2.3418 14.76741,3.50117 17.9331,3.37168 7,-0.28711 -8.36862,-2.80058 -15.95007,-3.92367 -31.60742,-4.04883 z m 237.57812,1.18164 c -2.43825,0.24934 -2.2255,1.47571 1.7793,2.14844 30.16382,5.06692 37.42119,6.47585 41.75,8.09961 1.925,0.72208 5.75,1.82907 8.5,2.46093 2.75,0.63189 7.025,2.19671 9.5,3.47852 5.91115,3.0614 8.40499,2.83445 8.82227,-0.80469 0.43719,-3.8128 -1.3473,-5.73523 -4.70118,-5.06445 -1.4872,0.29744 -4.93478,0.10277 -7.66211,-0.43359 -2.72734,-0.53636 -10.58398,-2.09886 -17.45898,-3.47266 -11.36379,-2.27078 -24.64954,-4.51078 -37.25,-6.2793 -1.35978,-0.19085 -2.46655,-0.21592 -3.2793,-0.13281 z M 5.7480469,430.49023 c 0.040769,0.1345 0.074444,0.20318 0.1152343,0.33399 0.00697,-0.009 0.01455,-0.0181 0.021484,-0.0273 -0.045526,-0.10224 -0.091063,-0.20447 -0.1367187,-0.30665 z m 97.2695331,3.08789 c -2.79648,-0.0552 -5.643394,-0.0505 -8.470705,0.0156 -3.769749,0.0882 -7.505799,0.28609 -11.046875,0.59961 -18.331696,1.62304 -19.880104,1.79301 -21.695312,2.36914 -3.641225,1.15567 -1.659568,2.21294 3.445312,1.83789 6.381864,-0.46887 28.475164,-1.63048 31.25,-1.64258 1.6384,-0.007 10.38692,0.0958 17.5,0.20508 3.12739,0.048 8.55838,0.75727 10,1.30664 0.825,0.31439 2.85,1.02212 4.5,1.57227 4.08386,1.36201 5.96052,1.36164 8.95312,-0.002 3.76823,-1.71691 3.10024,-2.83782 -1.70312,-2.85742 -2.3375,-0.01 -7.175,-0.62354 -10.75,-1.36523 -5.65076,-1.17235 -13.59298,-1.87354 -21.98242,-2.03907 z m 138.9707,9.5293 C 241.33676,442.9486 241,443.38001 241,444.41016 c 0,2.07932 5.79058,6.58984 8.46094,6.58984 1.37931,0 2.9911,1.04021 4.0039,2.58594 1.99209,3.04031 3.03861,2.55255 2.14649,-1.00196 -0.46099,-1.83671 -1.69134,-2.82806 -4.58594,-3.69531 -2.17506,-0.65166 -4.94859,-2.24329 -6.16406,-3.53711 -1.25524,-1.33614 -2.22153,-2.08532 -2.87305,-2.24414 z m 9.55274,0.60352 c -1.49631,0.0441 -2.60546,0.17632 -2.9043,0.41797 -0.47457,0.38375 -0.63054,1.07277 -0.34766,1.5332 0.66404,1.08083 15.71094,0.45051 15.71094,-0.6582 0,-0.77601 -7.97008,-1.42529 -12.45898,-1.29297 z M 93.181641,447.5332 c -14.338838,-0.0333 -29.155863,0.28585 -30.361329,0.98828 -1.118661,0.65185 8.171874,0.92948 27.816407,0.83008 16.222511,-0.0821 29.740781,-0.39508 30.041011,-0.69531 0.7036,-0.7036 -13.15725,-1.08972 -27.496089,-1.12305 z m -37.908203,2.58594 c -0.533578,0 -1.407748,0.294 -2.773438,0.88086 -1.77225,0.76156 -1.686844,0.86741 0.75,0.92969 C 54.7625,451.96835 56,451.55 56,451 c 0,-0.58686 -0.192985,-0.88086 -0.726562,-0.88086 z m -8.310547,2.01367 c -0.612922,-0.0934 -1.627172,-0.0667 -3.0625,0.10742 -2.419907,0.29359 -5.735824,1.05934 -7.367188,1.70313 -2.362011,0.93214 -2.667514,1.3612 -1.5,2.09961 1.853861,1.17251 1.266414,1.22794 7.044922,-0.66211 4.940743,-1.61604 6.723532,-2.96789 4.884766,-3.24805 z M 215.0293,460 c 0.43116,0 0.54742,0.9 0.25976,2 -0.53484,2.04524 -1.4432,2.51188 -2.61328,1.3418 C 211.94814,462.61415 213.78923,460 215.0293,460 Z M 150,461 c 0.55,0 1,0.45 1,1 0,0.55 -0.45,1 -1,1 -0.55,0 -1,-0.45 -1,-1 0,-0.55 0.45,-1 1,-1 z m 82,0 c 0.55,0 1,0.42387 1,0.94141 0,0.51754 -0.45,1.21867 -1,1.55859 -0.55,0.33992 -1,-0.084 -1,-0.94141 C 231,461.70113 231.45,461 232,461 Z m -37.32227,0.0879 c 0.46207,-0.10171 1.17068,0.16429 2.15625,0.78906 1.06402,0.67448 0.99666,0.97451 -0.33203,1.48438 C 194.17516,464.25418 194,464.1934 194,462.5 c 0,-0.84172 0.21567,-1.31039 0.67773,-1.41211 z m -39.23632,0.42773 c 0.27187,-0.0712 0.64609,-0.0352 1.05859,0.12305 0.825,0.31659 1.5,0.75259 1.5,0.96875 0,0.21615 -0.675,0.39258 -1.5,0.39258 -0.825,0 -1.5,-0.43601 -1.5,-0.96875 0,-0.26637 0.16953,-0.44439 0.44141,-0.51563 z M 134.5,462 c 0.825,0 1.5,0.45 1.5,1 0,0.55 1.0125,1.01376 2.25,1.03125 2.19371,0.031 2.20116,0.0685 0.30859,1.5 -2.71106,2.05054 -6.96638,1.97246 -6.16601,-0.11328 0.33385,-0.86998 0.60742,-1.99498 0.60742,-2.5 C 133,462.41296 133.675,462 134.5,462 Z m 180.94141,0 c 3.29057,0 3.87071,1.28906 1.49609,3.32227 C 314.1991,467.66696 313,467.41612 313,464.5 c 0,-1.98388 0.50436,-2.5 2.44141,-2.5 z m -190.71289,0.0566 c 0.46973,-0.0336 1.14955,0.2139 1.99023,0.74805 0.85546,0.54355 0.95576,1.66028 0.33594,3.73633 l -0.88281,2.95898 -0.0859,-2.75 C 126.03859,465.23758 125.55,464 125,464 c -0.55,0 -1,-0.45 -1,-1 0,-0.59426 0.25878,-0.90977 0.72852,-0.94336 z m 222.69726,0.36914 c 1.12152,-0.11415 2.57422,1.13018 2.57422,2.68164 0,1.04115 -0.3375,1.87637 -0.75,1.85547 -1.33351,-0.0676 -3.37045,-2.95934 -2.76953,-3.93164 0.23422,-0.37898 0.57147,-0.56742 0.94531,-0.60547 z m -144.96484,0.01 c 0.0643,0.0389 0.13182,0.14257 0.20117,0.31445 0.27741,0.6875 1.62891,1.25 3.00391,1.25 1.48538,0 2.34065,0.48194 2.10546,1.1875 -0.92146,2.76439 -5.80144,1.46857 -5.69336,-1.51172 0.0326,-0.89788 0.18992,-1.35687 0.38282,-1.24023 z M 285,462.5 c 0.55,-0.33992 1,0.084 1,0.94141 0,0.85746 -0.45,1.55859 -1,1.55859 -0.55,0 -1,-0.42387 -1,-0.94141 0,-0.51754 0.45,-1.21867 1,-1.55859 z m 36.98438,0.01 c 0.55896,-0.34546 1.01562,0.0742 1.01562,0.93164 0,1.75653 -0.5998,2.01399 -1.45703,0.62695 -0.31644,-0.512 -0.11756,-1.21313 0.44141,-1.55859 z M 16.25,462.51758 c 0.525186,0.13869 0.75,0.93065 0.75,2.51367 0,3.59154 -0.17698,3.64903 -1.626953,0.52148 -0.891882,-1.92376 -0.839622,-2.5428 0.25,-2.96093 0.244867,-0.094 0.451891,-0.12049 0.626953,-0.0742 z m 281.77148,0.83398 c 1.28045,0.0134 1.10151,0.90193 -0.41406,2.89844 -1.62372,2.13899 -2.01871,2.16437 -3.62695,0.22656 -1.49138,-1.797 -1.33972,-1.9896 2.26953,-2.85547 0.7554,-0.18122 1.34467,-0.27399 1.77148,-0.26953 z m -33.74218,0.0274 c 0.10514,-0.10514 0.24468,0.0347 0.40429,0.43359 0.28891,0.72187 0.25228,1.58373 -0.0801,1.91602 -0.33229,0.33229 -0.5688,-0.25834 -0.5254,-1.3125 0.024,-0.58248 0.096,-0.93197 0.20118,-1.03711 z M 64.984375,463.50977 C 65.543347,463.16431 66,463.58395 66,464.44141 c 0,1.75653 -0.599791,2.01399 -1.457031,0.62695 -0.316431,-0.512 -0.117565,-1.21313 0.441406,-1.55859 z m 34.109375,0.16015 c 0.162883,0.056 0.31174,0.17933 0.4375,0.38281 0.398263,0.64441 0.284089,1.4576 -0.253906,1.8086 -0.537994,0.35101 -1.186827,1.2907 -1.44336,2.08789 -0.401575,1.2479 -0.546351,1.24292 -1.039062,-0.041 -0.663679,-1.72952 1.158649,-4.63056 2.298828,-4.23828 z M 27.882812,464 c 0.485853,0 1.118595,0.9 1.40625,2 0.617565,2.36157 -0.800553,2.71405 -1.68164,0.41797 C 26.801877,464.31876 26.837347,464 27.882812,464 Z m 64.333985,0.0957 c 0.144109,-0.0398 0.404468,0.3661 0.884765,1.19141 0.572204,0.98322 0.887104,2.24884 0.699219,2.8125 -0.534315,1.60294 -1.803321,-0.20077 -1.769531,-2.51563 0.01404,-0.96179 0.04144,-1.44849 0.185547,-1.48828 z m 127.539063,0.0449 c 0.43596,-0.007 0.79465,0.0759 0.9707,0.25196 1.16661,1.16661 -1.17402,2.5666 -2.70703,1.61914 -1.24141,-0.76723 -1.19633,-1.00754 0.30078,-1.58203 0.48541,-0.18626 0.99959,-0.28232 1.43555,-0.28907 z m 163.32812,0.45899 c 0.58046,0.13134 0.87402,0.65816 0.37305,1.46875 -0.31643,0.51199 -1.27879,0.93164 -2.13867,0.93164 -1.27119,0 -1.33289,-0.27761 -0.32813,-1.48828 0.64558,-0.77787 1.5133,-1.04345 2.09375,-0.91211 z M 145.94141,465 c 0.51754,0 1.21867,0.45 1.55859,1 0.33992,0.55 -0.0839,1 -0.94141,1 C 145.70113,467 145,466.55 145,466 c 0,-0.55 0.42387,-1 0.94141,-1 z m 46,0 c 1.13246,0 2.05859,0.17643 2.05859,0.39258 0,0.94863 -2.99373,1.42785 -3.52734,0.56445 C 190.14758,465.43105 190.80895,465 191.94141,465 Z m -107.03516,0.19141 c 1.628439,0.0467 3.597197,0.66963 2.986328,1.1914 -0.21622,0.18468 -1.630078,0.63324 -3.142578,0.9961 -2.90706,0.6974 -3.947692,-0.98238 -1.25,-2.01758 0.359067,-0.13779 0.863437,-0.18548 1.40625,-0.16992 z m 247.49609,0.34179 c 0.35674,0.0242 0.57516,0.13004 0.56641,0.31055 -0.0654,1.35028 -2.6923,4.10066 -3.31836,3.47461 -1.288,-1.28801 -0.61177,-3.09451 1.34961,-3.60742 0.55,-0.14383 1.04561,-0.20191 1.40234,-0.17774 z m -172.98828,0.0156 c 1.60317,-0.0266 3.1037,0.5133 3.33399,1.20117 0.25674,0.76683 -0.15355,1.03043 -1.0625,0.68164 -0.81532,-0.31287 -1.77948,-0.0875 -2.14258,0.5 C 158.70951,469.2803 157,469.32622 157,468 c 0,-0.55 -0.1125,-1.31531 -0.25,-1.70117 -0.1375,-0.38586 1.06089,-0.7234 2.66406,-0.75 z m -113.525388,0.34961 c 0.192972,-0.02 0.430346,0.0885 0.699219,0.35742 0.323619,0.32362 0.423071,1.41044 0.220703,2.41602 -0.350243,1.74027 -0.403121,1.73769 -1.111328,-0.0645 -0.566228,-1.44079 -0.38751,-2.64903 0.191406,-2.70898 z M 76.5,466 c 0.825,0 1.5,0.45 1.5,1 0,0.55 -0.675,1 -1.5,1 -0.825,0 -1.5,-0.45 -1.5,-1 0,-0.55 0.675,-1 1.5,-1 z m 227.60742,0 c 0.49115,0 0.89258,0.675 0.89258,1.5 0,0.825 -0.66101,1.50002 -1.46875,1.5 -0.89501,0 -1.2432,-0.58629 -0.89258,-1.5 0.31659,-0.825 0.97759,-1.5 1.46875,-1.5 z m -27.99023,0.30078 c 1.33985,0.0825 2.88281,1.08698 2.88281,2.18945 0,0.70204 -1.125,1.49106 -2.5,1.75391 -1.9187,0.36678 -2.5,0.059 -2.5,-1.32422 0,-0.99128 0.40979,-2.05403 0.91016,-2.36328 0.33683,-0.20817 0.76041,-0.28336 1.20703,-0.25586 z m -243.828128,0.008 C 32.5105,466.2527 32.885746,466.49022 33.5,467 c 0.825,0.68469 1.5,1.4154 1.5,1.62305 C 35,468.83052 34.325,469 33.5,469 c -0.825,0 -1.5,-0.73071 -1.5,-1.62305 0,-0.6644 0.06763,-1.01262 0.289062,-1.06836 z M 168,466.5 c 0.55,-0.33992 1,0.084 1,0.94141 0,0.85746 -0.45,1.55859 -1,1.55859 -0.55,0 -1,-0.42387 -1,-0.94141 0,-0.51754 0.45,-1.21867 1,-1.55859 z m -163.984375,0.01 c 0.5589715,0.34546 0.7578372,1.04659 0.4414062,1.55859 C 3.5997914,469.45494 3,469.19794 3,467.44141 c 0,-0.85746 0.4566535,-1.2771 1.015625,-0.93164 z M 116.5,467 c 0.88992,0 1.33992,0.45 1,1 -0.33992,0.55 -0.78992,1 -1,1 -0.21008,0 -0.66008,-0.45 -1,-1 -0.33992,-0.55 0.11008,-1 1,-1 z m 69.5,1 c 0.55,0 1,0.42387 1,0.94141 0,0.51754 -0.45,1.21867 -1,1.55859 -0.55,0.33992 -1,-0.084 -1,-0.94141 C 185,468.70113 185.45,468 186,468 Z m -63.19336,0.47266 c 0.30789,0.30789 0.002,1.11658 -0.68164,1.79492 -0.98762,0.98026 -1.10323,0.86465 -0.56055,-0.56055 0.37553,-0.98622 0.9343,-1.54226 1.24219,-1.23437 z m 135.0918,0.4707 c 0.20854,-0.0216 0.45095,0.074 0.70508,0.32812 0.33229,0.33229 0.41519,1.1724 0.18359,1.86719 -0.33872,1.01621 -0.57505,1.01572 -1.20508,-0.004 -0.62552,-1.01212 -0.30923,-2.12657 0.31641,-2.19141 z M 133.88281,469 c 0.55,0 1.27727,0.45 1.61719,1 0.33992,0.55 0.16719,1 -0.38281,1 -0.55,0 -1.27727,-0.45 -1.61719,-1 -0.33992,-0.55 -0.16719,-1 0.38281,-1 z m 21.8086,1.01562 c 0.65504,-0.008 1.46867,0.43438 1.80859,0.98438 0.7673,1.24153 0.42112,1.24153 -1.5,0 -0.90129,-0.58246 -1.0242,-0.97537 -0.30859,-0.98438 z" />
  </g>
</svg>
