<?xml version="1.0" encoding="UTF-8" standalone="no"?>
<!-- Created with Inkscape (http://www.inkscape.org/) -->

<svg
   version="1.1"
   id="svg2"
   width="749.12"
   height="280.64001"
   viewBox="0 0 749.12 280.64001"
   sodipodi:docname="0250_KCA_Logo_Black_RGB_300dpi.vg.svg"
   inkscape:version="1.1.2 (0a00cf5339, 2022-02-04)"
   xmlns:inkscape="http://www.inkscape.org/namespaces/inkscape"
   xmlns:sodipodi="http://sodipodi.sourceforge.net/DTD/sodipodi-0.dtd"
   xmlns="http://www.w3.org/2000/svg"
   xmlns:svg="http://www.w3.org/2000/svg">
  <defs
     id="defs6" />
  <sodipodi:namedview
     id="namedview4"
     pagecolor="#505050"
     bordercolor="#eeeeee"
     borderopacity="1"
     inkscape:pageshadow="0"
     inkscape:pageopacity="0"
     inkscape:pagecheckerboard="0"
     showgrid="false"
     inkscape:zoom="2.2092589"
     inkscape:cx="433.40326"
     inkscape:cy="140.54487"
     inkscape:window-width="1850"
     inkscape:window-height="1009"
     inkscape:window-x="0"
     inkscape:window-y="0"
     inkscape:window-maximized="1"
     inkscape:current-layer="g8" />
  <g
     inkscape:groupmode="layer"
     inkscape:label="Image"
     id="g8">
    <path
       style="fill:#000000;stroke-width:0.32"
       d="m 374.64335,224.24559 c -0.24684,-0.59086 -1.59948,-4.47384 -3.00582,-8.62885 l -2.55699,-7.55456 1.12665,-0.21137 c 2.13786,-0.40106 2.50359,0.0362 3.95869,4.73373 0.72496,2.34043 1.57571,5.04733 1.89056,6.01533 l 0.57242,1.76 1.16803,-3.72473 c 1.32352,-4.22065 1.32963,-4.27935 0.69523,-6.66321 -0.51331,-1.9289 -0.35753,-2.23825 1.13162,-2.24716 1.50736,-0.009 1.85568,0.62516 3.49216,6.35792 0.87337,3.05956 1.64387,5.61872 1.71219,5.68704 0.0683,0.0683 0.72806,-2.07496 1.46608,-4.76283 1.92854,-7.02352 2.07472,-7.2944 3.9297,-7.28213 1.66502,0.011 1.64873,0.16043 -0.87402,8.01256 -1.32573,4.12639 -2.55984,7.97054 -2.7425,8.54254 -0.30816,0.96505 -0.43337,1.04 -1.7375,1.04 h -1.40541 l -1.33373,-4.24 c -1.24329,-3.95252 -1.88582,-5.45859 -1.88582,-4.42022 0,0.23528 -0.58221,2.28008 -1.29376,4.544 l -1.29376,4.11622 h -1.28256 c -1.15293,0 -1.32794,-0.10859 -1.73146,-1.07428 z m 41.82781,0.6776 c -0.40352,-0.19435 -1.52422,-1.6966 -2.49046,-3.33834 -1.46272,-2.48541 -1.8889,-2.98498 -2.54627,-2.98498 -0.78676,0 -0.78954,0.0113 -0.78954,3.2 v 3.2 h -1.76 -1.76 v -8.4604 -8.46039 l 1.46301,-0.21939 c 2.35693,-0.35344 6.26278,-0.005 7.6695,0.6836 1.68743,0.82636 2.70749,2.40749 2.70749,4.19665 0,2.20911 -0.96307,3.77167 -3.13213,5.08188 -0.0507,0.0306 0.84797,1.62078 1.99696,3.53372 1.81338,3.019 2.01562,3.5072 1.53216,3.69871 -0.82272,0.3259 -2.05817,0.26989 -2.89072,-0.13106 z m -2.10537,-9.56173 c 0.86976,-0.8171 1.15558,-2.20669 0.7143,-3.47259 -0.43005,-1.23365 -1.1239,-1.609 -2.97418,-1.609 h -1.46102 v 2.82666 c 0,1.55467 0.108,2.9351 0.24,3.06762 0.41178,0.41341 2.7591,-0.13463 3.4809,-0.81269 z m -205.6409,9.47742 c 0,-0.31958 20.51888,-41.18659 20.62293,-41.07424 0.0587,0.0634 4.73077,9.36723 10.38239,20.67523 l 10.27567,20.56 h -20.6405 c -11.35227,0 -20.64049,-0.0724 -20.64049,-0.16099 z m 45.65214,-9.19901 c -0.11602,-5.148 -0.21122,-14.508 -0.21155,-20.8 l -5.9e-4,-11.44 h 7.98425 c 4.64244,0 8.694,0.14928 9.68,0.35667 7.49761,1.57697 12.72419,9.11454 11.47379,16.54705 -0.80518,4.7861 -3.81319,8.75472 -8.22286,10.84886 -2.37053,1.12576 -2.68057,1.18918 -6.42297,1.31377 l -3.93221,0.13091 v 6.20137 6.20137 h -5.06844 -5.06845 z m 45.54786,-11.44 v -20.8 h 1.92 1.92 v 20.8 20.8 h -1.92 -1.92 z m 21.56135,20.30533 c 0.1044,-0.27207 1.45022,-4.08419 2.99071,-8.47137 2.6454,-7.53388 2.84994,-7.98748 3.68442,-8.17076 1.06543,-0.23401 2.64736,0.0751 3.05674,0.59737 0.27766,0.3542 5.82678,15.92069 5.82678,16.3454 0,0.10671 -0.78026,0.19403 -1.73391,0.19403 h -1.73391 l -0.69592,-2.09123 -0.69591,-2.09123 -3.07276,0.0912 -3.07276,0.0912 -0.63903,2 -0.63903,2 h -1.73262 c -1.43147,0 -1.69963,-0.086 -1.5428,-0.49467 z m 9.79865,-6.58192 c 0,-0.19613 -0.46039,-1.80891 -1.02309,-3.58397 -1.17099,-3.69389 -1.04867,-3.75515 -2.59671,1.30056 l -0.80836,2.64 h 2.21408 c 1.41418,0 2.21408,-0.12883 2.21408,-0.35659 z m 7.75478,-1.48341 0.0852,-8.56 1.18176,-0.0982 c 0.82186,-0.0683 1.36237,0.0824 1.77475,0.49473 0.32611,0.32613 2.02634,2.95271 3.77821,5.83685 l 3.18528,5.24389 0.16,-5.73862 0.16,-5.73862 1.02112,-0.0989 c 0.70026,-0.0678 1.22819,0.10818 1.68,0.56 0.63002,0.63002 0.65888,1.00917 0.65888,8.65887 v 8 l -1.52,-0.003 -1.52,-0.003 -3.59315,-5.51687 -3.59315,-5.51687 -0.007,5.52 -0.007,5.52 h -1.76522 -1.76525 l 0.0852,-8.56 z m 20.97133,1.44 -0.0861,-7.12 -2.64,-0.0929 -2.64,-0.0929 v -0.88306 c 0,-1.59202 0.26547,-1.65106 7.424,-1.65106 h 6.656 v 0.896 c 0,1.36036 -0.53722,1.664 -2.944,1.664 h -2.176 v 7.2 7.2 h -1.75389 -1.75385 z m 33.67389,-1.36 v -8.48 h 5.44 5.44 v 0.77714 c 0,1.47682 -0.71802,1.78286 -4.18285,1.78286 h -3.17715 v 2.08 2.08 h 2.72 2.72 v 1.44 1.44 h -2.72 -2.72 v 2.4 2.4 h 3.33715 c 3.63597,0 4.34285,0.29019 4.34285,1.78286 v 0.77714 h -5.6 -5.6 z m 28.48,0.0373 v -8.44268 l 0.72,-0.19295 c 1.35088,-0.36203 5.56042,-0.20271 7.15485,0.27078 2.89235,0.85895 4.12557,3.10636 3.50873,6.39438 -0.46425,2.47476 -3.31273,4.33315 -6.64166,4.33315 h -1.22192 v 3.04 3.04 h -1.76 -1.76 z m 6.69712,-0.66549 c 1.0648,-0.55063 1.30288,-1.05728 1.30288,-2.77255 0,-1.87882 -1.07757,-2.83928 -3.18544,-2.83928 h -1.61456 v 3.04 3.04 h 1.2959 c 0.71274,0 1.70327,-0.21068 2.20122,-0.46817 z m 7.38288,0.62043 v -8.48774 l 5.36,0.0877 5.36,0.0877 -0.0861,0.8 c -0.14096,1.30973 -0.89114,1.6 -4.13504,1.6 h -2.97886 v 2.08 2.08 h 2.72 2.72 v 1.44 1.44 h -2.72 -2.72 v 2.4 2.4 h 3.34186 c 3.09062,0 3.37929,0.0535 3.84,0.7112 0.27398,0.39116 0.49814,0.96716 0.49814,1.28 0,0.5234 -0.44701,0.5688 -5.6,0.5688 h -5.6 z m 13.51478,-0.0723 0.0852,-8.56 0.90067,-0.10325 c 0.49539,-0.0568 1.21539,0.10352 1.6,0.35625 0.38464,0.25273 2.21133,2.93918 4.05933,5.96991 l 3.36,5.5104 0.16,-5.86666 c 0.15901,-5.82999 0.16461,-5.86731 0.8985,-5.97133 0.40617,-0.0576 1.09017,0.12574 1.52,0.40738 l 0.7815,0.51205 v 8.15262 8.15263 h -1.43917 -1.43917 l -3.12083,-4.83261 c -4.67168,-7.23412 -4.21769,-7.16035 -4.23017,-0.68739 l -0.0107,5.52 h -1.60522 -1.60524 z m -68.23478,-15.09034 c -3.27242,-0.68718 -5.03379,-2.74485 -5.75523,-6.7233 -0.80877,-4.46009 0.77363,-8.52071 3.93424,-10.09571 3.16835,-1.57886 7.25379,-0.92112 9.38985,1.51173 1.40794,1.60353 1.85146,3.15501 1.85178,6.47768 0,4.15469 -1.27965,6.77649 -3.98064,8.15311 -1.34147,0.68371 -3.89405,1.00113 -5.44,0.67649 z m 4.33062,-3.5596 c 1.09165,-1.02553 1.55856,-2.65936 1.55181,-5.43 -0.01,-4.01457 -1.3496,-5.92 -4.16259,-5.92 -2.58042,0 -3.95984,2.13493 -3.95984,6.12869 0,2.85249 0.79795,4.93619 2.19162,5.72292 1.18387,0.66829 3.40448,0.41393 4.379,-0.50161 z m 14.01383,3.51922 c -3.99523,-0.80021 -6.18445,-3.92811 -6.18445,-8.83612 0,-5.53308 3.00422,-8.75193 8.16,-8.74295 2.51414,0.004 4.67485,0.77913 5.26899,1.88925 0.36714,0.68605 0.26931,1.04536 -0.54297,1.99377 -0.42266,0.49349 -0.54148,0.47562 -1.596,-0.24 -0.88224,-0.5987 -1.56,-0.77317 -3.00356,-0.77317 -1.61308,0 -2.01078,0.12871 -2.95248,0.95554 -1.33795,1.17471 -1.9424,3.13277 -1.75724,5.69242 0.0742,1.02615 0.4231,2.42095 0.77526,3.09956 1.04605,2.01568 3.52774,2.92901 5.70717,2.1004 0.75574,-0.28734 0.82083,-0.46495 0.82083,-2.24 v -1.92792 h -1.44 -1.44 v -1.28 -1.28 h 3.04 3.04 v 3.96319 c 0,3.7579 -0.0373,3.98746 -0.72,4.43149 -1.6527,1.0749 -4.99494,1.6313 -7.17555,1.19454 z m 26.81405,-0.005 c -2.70599,-0.54943 -3.57428,-1.7851 -2.4162,-3.43848 l 0.50228,-0.71712 0.98838,0.70379 c 1.46061,1.04004 3.98707,1.17619 5.12704,0.27627 0.96029,-0.75807 1.16902,-2.05621 0.48,-2.9852 -0.22,-0.29662 -1.60765,-1.03961 -3.08368,-1.65109 -3.15869,-1.30857 -3.76013,-1.78982 -4.24048,-3.39316 -0.73517,-2.45374 0.7271,-5.28088 3.14397,-6.07851 1.50937,-0.49815 5.41008,-0.23405 6.74019,0.45635 1.12525,0.58407 1.36538,1.55608 0.63213,2.55887 -0.38583,0.52764 -0.48531,0.52268 -1.84,-0.0918 -2.38013,-1.07963 -4.5345,-0.77586 -5.08685,0.71724 -0.46877,1.26709 0.24157,2.05723 2.81094,3.12687 3.05085,1.27007 3.80103,1.76398 4.38013,2.88384 0.58992,1.14076 0.59722,3.58346 0.0141,4.70427 -0.5736,1.10246 -1.72697,2.17725 -2.7504,2.56303 -1.31024,0.49388 -3.90333,0.66903 -5.4015,0.36484 z m 17.02595,0.005 c -3.68093,-0.73726 -5.67927,-3.18839 -6.07767,-7.45473 -0.40377,-4.32377 1.21812,-7.98889 4.13645,-9.34759 2.77104,-1.29011 6.77639,-0.95812 8.62506,0.7149 0.7152,0.64723 0.7159,1.33239 0.003,2.25932 l -0.55511,0.72112 -1.17747,-0.83779 c -1.53709,-1.09365 -3.99936,-1.20151 -5.29987,-0.23214 -1.61942,1.20708 -2.15619,2.55643 -2.14317,5.38769 0.0173,3.74634 1.23946,5.61614 3.97287,6.07795 1.1126,0.18798 2.69916,-0.28598 4.50128,-1.34469 0.0931,-0.0547 0.42358,0.33126 0.73452,0.8576 0.42128,0.71319 0.48247,1.11179 0.24013,1.56459 -0.66509,1.2427 -4.46182,2.13402 -6.95939,1.63377 z m 32.21555,0.0346 c -2.4465,-0.50108 -4.04358,-1.81951 -5.07283,-4.18779 -0.89616,-2.06209 -1.13757,-4.48897 -0.68506,-6.88718 0.80957,-4.29065 3.46224,-6.55588 7.66071,-6.54181 5.0344,0.0169 7.57616,3.10188 7.50828,9.11298 -0.0456,4.03613 -1.55184,6.8245 -4.2911,7.94363 -1.4689,0.60012 -3.7216,0.84659 -5.12,0.56017 z m 3.56394,-3.08652 c 2.82841,-1.46263 3.16876,-9.30727 0.48537,-11.1868 -1.97405,-1.38268 -4.55059,-0.66013 -5.63517,1.5803 -0.83705,1.72913 -0.90192,5.63704 -0.12572,7.57688 0.89833,2.2452 3.16918,3.11885 5.27552,2.02962 z m 14.38345,3.03536 c -3.44265,-0.67564 -5.4319,-3.38839 -5.70595,-7.78124 -0.40768,-6.53443 2.5943,-10.03326 8.35875,-9.74217 2.03747,0.10289 2.60506,0.26565 3.76215,1.07889 0.82252,0.57808 1.68675,1.58744 2.18019,2.54626 0.72425,1.4074 0.81747,1.97263 0.81747,4.95708 0,3.03017 -0.0887,3.54923 -0.88339,5.16737 -1.06483,2.16827 -2.61344,3.34163 -5.01027,3.79618 -0.94253,0.17874 -1.80205,0.30921 -1.91002,0.28993 -0.10797,-0.0193 -0.832,-0.15982 -1.60893,-0.3123 z m 4.29162,-3.58766 c 1.22333,-1.22333 1.7567,-2.8536 1.7592,-5.37723 0.004,-4.50282 -2.58573,-7.03138 -5.65539,-5.52075 -1.91056,0.94021 -2.505,2.30351 -2.49101,5.713 0.009,2.07612 0.16304,3.1624 0.5536,3.89174 1.37347,2.56477 3.98345,3.14338 5.8336,1.29324 z m -176.64759,2.73502 c 0.12094,-0.308 1.30485,-3.656 2.63091,-7.44 3.24753,-9.26702 3.05603,-8.85608 4.24913,-9.11813 1.7417,-0.38254 2.77692,0.30402 3.54762,2.3528 0.98273,2.61248 5.10092,14.3967 5.10092,14.59634 0,0.0929 -0.7762,0.16899 -1.72488,0.16899 h -1.72487 l -0.7343,-2.08 -0.73431,-2.08 h -2.95473 -2.95473 l -0.69218,2.08 -0.69218,2.08 h -1.76815 c -1.55438,0 -1.74156,-0.0677 -1.54825,-0.56 z m 9.62279,-7.04 c -0.50326,-2.05822 -1.86889,-6.17199 -2.00402,-6.03686 -0.0808,0.0808 -0.62515,1.67018 -1.20961,3.53191 l -1.06265,3.38495 h 2.24573 2.24572 z m 8.14579,-0.83813 v -8.43814 l 1.2,-0.19834 c 3.64522,-0.60252 7.33133,0.0332 8.98614,1.54967 1.04077,0.95379 1.14976,1.22266 1.27165,3.13721 0.11034,1.73272 0.0102,2.31299 -0.57993,3.36315 -0.95386,1.69715 -2.74,2.66152 -5.31184,2.86797 l -2.04602,0.16423 v 2.99619 2.99619 h -1.76 -1.76 z m 7.21456,-0.98733 c 0.60579,-0.60582 0.78544,-1.12143 0.78544,-2.25454 0,-2.03279 -1.0024,-3.04 -3.02544,-3.04 h -1.45456 v 3.04 3.04 h 1.45456 c 1.11766,0 1.63645,-0.18192 2.24,-0.78546 z m 12.62544,0.96702 c 0,-8.05218 0.0294,-8.46778 0.6128,-8.65293 0.89174,-0.28303 2.2359,0.13494 2.59565,0.80714 0.17136,0.32018 0.31155,1.81562 0.31155,3.32319 v 2.74104 h 3.2 3.2 v -3.35391 c 0,-3.28344 0.0163,-3.35799 0.77642,-3.54877 0.427,-0.10717 1.183,-5e-5 1.68,0.23805 l 0.90358,0.43291 0.0854,8.23586 0.0854,8.23586 h -1.76539 -1.76541 v -3.68 -3.68 h -3.2 -3.2 v 3.68 3.68 h -1.76 -1.76 z m 52.16,-0.0216 v -8.48 h 5.26112 c 3.14794,0 5.34022,0.12801 5.45808,0.3187 0.10832,0.17529 0.007,0.71529 -0.22467,1.2 -0.41475,0.86686 -0.47536,0.8828 -3.69808,0.9725 l -3.27645,0.0912 v 2.06881 2.0688 h 2.72 2.72 v 1.44 1.44 h -2.72 -2.72 v 2.4 2.4 h 3.34186 c 3.09062,0 3.37929,0.0535 3.84,0.71121 0.27398,0.39116 0.49814,0.96716 0.49814,1.28 0,0.52339 -0.44701,0.56879 -5.6,0.56879 h -5.6 z m 42.24,0.0216 c 0,-8.05218 0.0294,-8.46778 0.6128,-8.65293 0.89174,-0.28303 2.2359,0.13494 2.59565,0.80714 0.17136,0.32018 0.31155,1.81562 0.31155,3.32319 v 2.74104 h 3.2 3.2 v -3.33844 c 0,-3.00797 0.0607,-3.35769 0.6128,-3.53293 0.89174,-0.28303 2.2359,0.13494 2.59565,0.80714 0.17782,0.33227 0.31155,3.95643 0.31155,8.44319 v 7.86104 h -1.76 -1.76 v -3.68 -3.68 h -3.2 -3.2 v 3.68 3.68 h -1.76 -1.76 z m 53.12,-0.0316 c 0,-9.20013 -0.0192,-9.10508 1.73834,-8.66399 1.7255,0.43307 1.78166,0.67576 1.78166,7.69872 v 6.49897 l 3.07782,0.13461 c 3.31632,0.14505 3.96218,0.48457 3.96218,2.08289 v 0.7388 h -5.28 -5.28 z m -108.48,-65.89841 v -19.37159 h 3.04 3.04 v 1.82447 1.82446 l 1.33158,-1.38578 c 3.42093,-3.56016 9.20836,-4.1114 13.47738,-1.2837 1.9577,1.29672 3.62864,3.62169 4.65216,6.47301 0.73738,2.05428 0.82784,2.78168 0.82416,6.62754 -0.004,3.63987 -0.11725,4.64748 -0.72282,6.4 -1.90243,5.50592 -5.55219,8.32001 -10.79068,8.32001 -3.03258,0 -5.33664,-0.84426 -7.02484,-2.57407 l -1.26694,-1.29817 -0.16,6.81611 -0.16,6.81613 -3.12,0.0916 -3.12,0.0916 z m 15.55715,4.01622 c 2.60471,-1.18285 4.28285,-4.77221 4.28285,-9.16056 0,-4.62877 -1.38474,-7.86041 -4,-9.335 -1.4847,-0.83713 -3.78883,-0.96277 -5.3897,-0.29388 -1.45264,0.60695 -3.21174,2.76784 -3.84211,4.71968 -0.79273,2.45457 -0.71885,7.42834 0.14461,9.73618 0.7751,2.07163 2.24915,3.89326 3.64125,4.49983 1.38045,0.6015 3.63213,0.52899 5.1631,-0.16625 z m -60.27693,5.23775 c -4.77472,-1.28572 -7.64656,-4.27222 -9.23068,-9.59922 -0.81076,-2.72635 -0.75546,-7.95962 0.11225,-10.62574 2.05405,-6.31124 7.17629,-9.75083 13.80298,-9.26875 7.38915,0.53755 11.8792,5.39163 12.42115,13.42815 l 0.1888,2.8 h -10.48858 -10.4886 l 0.2223,1.68 c 0.63117,4.77002 3.18755,7.25801 7.4729,7.27298 2.94476,0.0103 5.27033,-1.35546 6.11801,-3.59298 0.33315,-0.8793 0.33594,-0.88 3.54131,-0.88 2.05002,0 3.20794,0.12266 3.20794,0.33982 0,0.86998 -1.71107,3.80639 -2.9473,5.05793 -3.26192,3.30234 -9.0359,4.70634 -13.93248,3.38781 z m 10.79978,-18.10843 c 0,-2.23803 -1.88707,-5.17303 -3.95779,-6.15565 -1.21178,-0.57502 -4.48567,-0.70203 -5.74583,-0.22291 -2.04006,0.77563 -3.71244,2.98505 -4.32579,5.71489 l -0.30256,1.34654 h 7.16599 c 7.10262,0 7.16598,-0.006 7.16598,-0.68287 z m -78.27184,17.1968 c -0.89751,-0.41792 -1.91948,-1.17251 -2.27105,-1.67688 -1.38232,-1.9831 -1.49207,-2.80702 -1.62293,-12.18354 l -0.12598,-9.0265 -2.2941,-0.0935 -2.2941,-0.0935 -0.094,-2.32 -0.094,-2.32 h 2.41402 2.41402 v -3.68 -3.679997 h 3.18952 3.18952 l 0.0905,3.599997 0.0905,3.6 2.64,0.0929 2.64,0.093 v 2.38706 2.38705 h -2.73967 -2.73966 l 0.0997,8.24 c 0.10663,8.8152 0.18433,9.25134 1.77748,9.97723 0.41377,0.18853 1.46553,0.34277 2.33725,0.34277 h 1.58482 v 2.36577 c 0,1.86207 -0.10777,2.40712 -0.50617,2.56 -0.2784,0.10683 -1.7544,0.19283 -3.28,0.19111 -2.24377,-0.003 -3.08566,-0.14833 -4.40567,-0.76296 z M 66.004898,112.67986 V 89.959863 h 47.520002 47.51999 v 22.719997 22.72001 H 113.5249 66.004898 Z m 139.975782,21.53039 c 0.2391,-0.66571 3.34648,-9.20239 6.90528,-18.97039 3.55881,-9.768 6.61253,-18.155997 6.78605,-18.639997 l 0.31549,-0.88 4.5287,0.002 4.52869,0.002 7.12008,19.598157 c 3.91605,10.77899 7.12005,19.70616 7.12,19.83816 -4e-5,0.132 -1.55298,0.24 -3.45096,0.24 l -3.45087,-1.5e-4 -1.73825,-5.28017 -1.73825,-5.28 h -8.3842 -8.38422 l -1.73274,5.2 -1.73274,5.20001 -3.56339,0.0904 -3.5634,0.0904 z m 21.73312,-24.65039 c -1.66242,-5.06 -3.06408,-9.344 -3.11479,-9.52 -0.0507,-0.175997 -0.92099,2.272 -1.93395,5.44 -1.01297,3.168 -2.4039,7.39601 -3.09096,9.39558 -0.68707,1.99956 -1.24921,3.69156 -1.24921,3.76 0,0.0684 2.79259,0.12442 6.20575,0.12442 h 6.20575 z m 20.37109,11.76 v -14.08 h 3.04 3.04 v 1.76 1.76 l 1.26672,-1.26672 c 1.57378,-1.57377 3.21765,-2.42876 5.4498,-2.83447 3.55642,-0.64639 8.06958,0.73193 9.79236,2.99061 0.41356,0.5422 1.08024,1.69789 1.48152,2.5682 0.70652,1.53233 0.73274,1.92398 0.82895,12.38238 l 0.0994,10.80001 h -3.03125 -3.03124 l -0.10815,-9.68001 c -0.10463,-9.36844 -0.13201,-9.72853 -0.85081,-11.18793 -1.00338,-2.03718 -2.46768,-2.91873 -4.84815,-2.91873 -2.57685,0 -4.28411,1.01221 -5.57724,3.30666 l -0.99191,1.76 -0.10168,9.36 -0.10167,9.36001 h -3.17833 -3.17832 z m 56.02268,12.88001 c -0.88151,-3.28522 -6.42268,-26.20564 -6.42268,-26.56668 0,-0.31959 0.71956,-0.39519 3.09233,-0.32491 l 3.09233,0.0916 1.38446,6.08 c 0.76145,3.344 1.90276,8.6 2.53623,11.68 0.63348,3.08 1.19473,5.64381 1.24723,5.69736 0.0525,0.0535 0.34088,-1.02646 0.64085,-2.4 0.29997,-1.37355 1.54016,-6.64725 2.75598,-11.71934 1.21583,-5.07208 2.21059,-9.28408 2.21059,-9.36 0,-0.0759 2.059,-0.13802 4.57555,-0.13802 h 4.57554 l 0.64843,2.8 c 1.07042,4.62224 4.33814,18.38644 4.69117,19.76 l 0.32897,1.28 0.57988,-2.88 c 0.31893,-1.584 1.47795,-6.948 2.5756,-11.92 l 1.99573,-9.04 h 3.13456 c 1.72401,0 3.13457,0.0854 3.13457,0.18982 0,0.1044 -1.512,6.38216 -3.36,13.95058 -1.848,7.56841 -3.36,13.819 -3.36,13.89018 0,0.0712 -2.07423,0.12943 -4.6094,0.12943 h -4.6094 l -2.24836,-9.20003 c -1.23659,-5.06 -2.49576,-10.3906 -2.79814,-11.84579 -0.30238,-1.45518 -0.60631,-2.58926 -0.67541,-2.52016 -0.0691,0.0691 -0.61925,2.3397 -1.22256,5.04579 -0.60331,2.70609 -1.85399,7.98016 -2.77929,11.72016 l -1.68236,6.80001 h -4.55521 -4.5552 z m 72.93732,-12.88001 v -14.08 h 2.88 2.88 v 1.96443 1.96443 l 1.36,-1.44431 c 0.748,-0.79438 1.8281,-1.68212 2.40019,-1.97275 1.45152,-0.73738 4.1729,-1.21094 5.59981,-0.97443 l 1.2,0.19889 v 2.78033 2.78033 l -1.33424,-0.12724 c -3.51958,-0.33565 -6.58861,1.39595 -7.96931,4.4964 -0.71773,1.61179 -0.76023,2.10124 -0.87648,10.09392 l -0.12218,8.40001 h -3.00889 -3.0089 z m -100.8,-31.343977 -1.44,-0.17602 -0.0923,-2.56 -0.0923,-2.56 2.11732,0.10841 c 2.61708,0.134 3.34872,-0.0417 4.61665,-1.10857 1.05218,-0.88535 2.25063,-2.92503 2.25063,-3.83041 0,-0.29484 -2.304,-6.86877 -5.12,-14.60874 -2.816,-7.73997 -5.12,-14.13334 -5.12,-14.20751 0,-0.0742 1.53628,-0.094 3.41397,-0.044 l 3.41396,0.0908 3.49937,10.5 c 1.92465,5.775 3.59001,10.40936 3.7008,10.29857 0.11079,-0.11078 1.80564,-4.83578 3.76633,-10.5 l 3.5649,-10.29857 3.24034,-0.0912 c 1.78218,-0.0502 3.24033,0.008 3.24033,0.12967 0,0.69135 -11.45555,31.04648 -12.39815,32.85287 -1.45016,2.77905 -3.7219,4.86943 -5.9583,5.4826 -1.99827,0.54789 -4.66654,0.75884 -6.60355,0.52208 z M 66.004898,62.439863 v -22.72 h 47.520002 47.51999 v 22.72 22.72 H 113.5249 66.004898 Z m 188.159992,17.5022 c -5.67074,-1.30454 -9.34111,-5.56973 -10.23954,-11.89896 -0.91649,-6.45644 1.28348,-12.56602 5.55975,-15.4401 3.9905,-2.68201 10.29548,-3.10801 14.78265,-0.99879 5.24787,2.46679 8.1958,8.95426 7.2821,16.02559 -0.80464,6.22719 -3.93187,10.43456 -8.89048,11.96126 -2.18988,0.67424 -6.34334,0.84586 -8.49448,0.351 z m 6.59327,-5.35831 c 2.66056,-1.28795 4.28673,-4.74635 4.28673,-9.11665 0,-4.72736 -1.38853,-7.88632 -4.12925,-9.39419 -2.85702,-1.57187 -6.69954,-0.72882 -8.49323,1.86341 -1.41079,2.03884 -1.86969,3.78326 -1.9003,7.22354 -0.0328,3.69143 0.52415,5.73647 2.07474,7.6176 2.00775,2.43574 5.33832,3.17288 8.16131,1.80629 z m 114.04673,5.29689 c -6.30397,-1.43209 -10.79277,-5.98006 -12.63424,-12.80078 -0.70346,-2.60553 -0.98179,-9.3049 -0.51155,-12.3125 1.63965,-10.48657 8.69568,-16.52283 18.58579,-15.89965 8.2057,0.51703 13.9416,5.39044 14.90662,12.66511 l 0.21584,1.62704 h -3.36931 -3.36931 l -0.38362,-1.59902 c -0.21097,-0.87946 -0.78304,-2.19377 -1.27123,-2.92068 -3.15549,-4.69841 -10.85955,-5.195 -14.82502,-0.95559 -2.78263,2.97487 -3.83735,6.2329 -3.84439,11.87529 -0.009,6.96305 2.13741,11.68552 6.27844,13.8157 1.84784,0.95054 5.65443,1.17082 7.81747,0.45237 2.94742,-0.97898 5.42467,-3.86477 6.01392,-7.00574 l 0.22182,-1.18233 h 3.47639 3.47638 l -0.18086,1.04 c -0.33476,1.92506 -1.13732,4.5317 -1.78788,5.80689 -0.85814,1.68208 -3.59129,4.53832 -5.30224,5.541 -3.36848,1.97405 -9.36201,2.79588 -13.51302,1.85289 z m 36.21642,0.1581 c -3.46775,-0.73575 -6.93716,-3.16106 -8.61328,-6.02116 -1.31156,-2.238 -2.00314,-5.24291 -2.00314,-8.70356 0,-6.2348 2.19286,-10.7321 6.44883,-13.22576 4.02141,-2.35624 10.87463,-2.3858 14.83117,-0.064 3.12173,1.83193 5.47318,5.3581 6.2553,9.38027 0.53558,2.7544 0.22902,7.71288 -0.62788,10.15531 -1.26604,3.60854 -4.09603,6.52093 -7.61708,7.83885 -2.09895,0.78564 -6.46813,1.10803 -8.67392,0.64002 z m 6.24384,-5.42142 c 2.96889,-1.3479 4.40364,-4.84016 4.1974,-10.21652 -0.11078,-2.88696 -0.25648,-3.64274 -0.96422,-5.00094 -1.15152,-2.2098 -2.47226,-3.36525 -4.42589,-3.87202 -4.56889,-1.18515 -8.31379,2.01057 -8.91152,7.60471 -0.43437,4.06517 0.50016,8.18814 2.29959,10.14554 1.73385,1.88602 5.26547,2.49203 7.80464,1.33923 z m 57.53974,5.51901 c -1.5663,-0.20825 -4.07514,-1.10256 -5.36166,-1.91125 -2.15892,-1.35706 -3.30045,-3.37913 -3.90471,-6.9166 l -0.20691,-1.21137 3.29184,0.0914 3.29184,0.0914 0.18995,1.17245 c 0.42109,2.59917 2.51635,4.09349 5.73965,4.09349 2.00304,0 4.24733,-0.87329 4.77418,-1.8577 0.668,-1.24815 0.42243,-3.05808 -0.53418,-3.93734 -1.07184,-0.98515 -1.78282,-1.26201 -6.47933,-2.52315 -4.18736,-1.12441 -6.21997,-1.94865 -7.30784,-2.96339 -2.24249,-2.09178 -2.7663,-6.19986 -1.16553,-9.14101 1.0294,-1.8914 2.4126,-3.05411 4.75046,-3.99324 1.31738,-0.52919 2.37021,-0.66211 5.32224,-0.67194 4.16131,-0.0139 5.65405,0.33163 7.89034,1.82617 1.85017,1.23648 3.24604,3.60386 3.52784,5.9831 l 0.19097,1.61256 h -3.04368 -3.04368 l -0.21008,-1.31381 c -0.39888,-2.49436 -3.13366,-4.104 -6.24761,-3.67718 -2.66644,0.36547 -4.16784,1.98495 -3.6752,3.96426 0.38192,1.53456 1.79481,2.32315 6.0911,3.3997 8.02093,2.00985 10.44605,3.87229 10.91123,8.37956 0.66957,6.48732 -5.87107,10.68993 -14.79123,9.50394 z m 29.44,-0.2205 c -2.48157,-0.60426 -4.5265,-1.77354 -6.19027,-3.53953 -2.69063,-2.85595 -3.89213,-6.36957 -3.88592,-11.36367 0.008,-6.5397 2.41545,-10.96098 7.27645,-13.36383 2.38342,-1.17816 2.53574,-1.20894 5.98272,-1.20894 2.71443,0 3.92691,0.14465 5.2135,0.62195 3.43629,1.27481 6.01869,3.96329 7.42989,7.73508 0.63369,1.69371 1.40073,7.04752 1.08355,7.56297 -0.0812,0.132 -4.828,0.24 -10.54842,0.24 h -10.4007 l 0.20406,1.52 c 0.32656,2.4326 1.91402,5.4043 3.41888,6.40016 1.51802,1.00458 4.59703,1.34664 6.49207,0.72123 1.48627,-0.49052 3.16557,-1.9493 3.68358,-3.19992 l 0.39824,-0.96147 h 3.16119 c 2.31728,0 3.16035,0.10679 3.15804,0.4 -0.003,0.22 -0.34937,1.14366 -0.77254,2.05257 -2.36051,5.06976 -9.38058,7.92324 -15.70432,6.3834 z m 10.52083,-18.51597 c -0.35181,-1.99733 -1.72995,-4.39696 -3.01289,-5.24596 -4.50269,-2.97974 -10.19786,-0.4172 -11.06036,4.97659 l -0.20937,1.30937 h 7.23289 7.2329 z m 120.4424,18.46149 c -5.07702,-1.23054 -8.55785,-4.93999 -9.70233,-10.33955 -1.28228,-6.04954 0.30352,-12.41035 3.92656,-15.74996 0.77968,-0.71868 2.36332,-1.74925 3.5192,-2.29015 2.91126,-1.36234 7.26809,-1.61202 10.57929,-0.60628 5.43408,1.65055 8.48378,5.51196 9.35811,11.84882 0.72848,5.27984 -0.81878,10.71982 -3.93536,13.83641 -3.22112,3.22111 -8.67276,4.53022 -13.74547,3.30071 z m 6.57267,-5.13731 c 3.6216,-1.82414 5.42932,-6.90467 4.39927,-12.36384 -0.84589,-4.48293 -3.35258,-7.01212 -6.98058,-7.0432 -4.89792,-0.042 -7.74595,4.17921 -7.36208,10.91166 0.24695,4.33116 1.86442,7.36271 4.56749,8.56069 1.33114,0.58995 4.14278,0.55579 5.3759,-0.0653 z m 61.6641,5.30558 c -5.03635,-1.05737 -8.51914,-4.59241 -9.91968,-10.06852 -1.0312,-4.03193 -0.81424,-7.8755 0.66899,-11.852 0.98135,-2.63087 4.15104,-5.81849 6.85069,-6.8894 2.73558,-1.08515 8.10742,-1.10186 10.78451,-0.0335 4.6928,1.87271 7.60176,6.47144 8.13453,12.85978 l 0.21299,2.55392 h -10.44601 -10.44602 v 1.06192 c 0,3.11822 2.08038,6.45756 4.62947,7.43107 3.35459,1.28112 7.44282,0.009 8.69517,-2.70587 l 0.59536,-1.29061 3.26058,-0.008 3.26057,-0.008 -0.49961,1.46632 c -1.02903,3.01999 -4.28695,6.03322 -7.60573,7.03451 -2.03069,0.61265 -6.28365,0.84618 -8.17581,0.44893 z m 10.24,-18.0189 c 0,-1.00526 -0.96963,-3.52308 -1.75155,-4.54824 -2.33914,-3.06676 -7.98592,-3.37833 -10.45117,-0.57667 -0.79514,0.90364 -1.79766,3.0442 -2.04618,4.36893 l -0.22233,1.18512 h 7.23561 c 5.83722,0 7.23562,-0.0829 7.23562,-0.42914 z m -405.28247,17.47236 c -3.73195,-1.333 -5.59753,-3.97787 -5.59753,-7.93572 0,-2.91902 0.85773,-4.6889 2.96243,-6.11278 2.62882,-1.77847 5.14479,-2.39781 14.27908,-3.51497 l 1.40152,-0.17141 -0.19126,-1.61486 c -0.43035,-3.63364 -2.16013,-5.21348 -5.7083,-5.21348 -1.66659,0 -2.33527,0.14725 -3.04,0.66942 -1.20738,0.89461 -2.34347,2.60975 -2.34347,3.5379 0,0.74029 -0.0529,0.75268 -3.2145,0.75268 h -3.2145 l 0.2028,-1.2 c 0.57012,-3.37339 2.89206,-6.1853 6.20081,-7.50931 2.43116,-0.97283 8.25935,-1.03906 10.88928,-0.12375 2.38641,0.83056 4.5927,2.94262 5.50233,5.26734 0.65569,1.67573 0.72181,2.53135 0.91851,11.88572 0.11658,5.544 0.32261,10.332 0.45785,10.64 0.22395,0.51002 -0.0106,0.56 -2.62834,0.56 h -2.87424 l -0.2,-1 c -0.11,-0.55 -0.2,-1.43796 -0.2,-1.97324 v -0.97325 l -1.22317,1.32493 c -1.87873,2.03503 -4.40174,3.04916 -7.89683,3.17416 -2.16236,0.0773 -3.2793,-0.0396 -4.48247,-0.46938 z m 9.38358,-4.94388 c 2.23494,-1.06296 3.55096,-3.72344 3.57107,-7.21934 0.009,-1.59153 0.27694,-1.53851 -4.47218,-0.88551 -4.40977,0.60635 -5.68308,0.99936 -6.77478,2.09106 -0.76029,0.76029 -0.90522,1.17023 -0.90522,2.56044 0,2.45158 1.02102,3.63651 3.68,4.27078 1.09799,0.26191 3.46004,-0.13205 4.90111,-0.81743 z m 263.84529,4.92657 c -2.29174,-0.81726 -3.64579,-1.94045 -4.72118,-3.91631 -1.25901,-2.31323 -1.32093,-5.26938 -0.15805,-7.5449 1.76864,-3.46081 5.41776,-4.80317 16.55961,-6.09158 l 1.38679,-0.16036 -0.21962,-1.65638 c -0.43542,-3.28432 -1.81113,-4.81716 -4.67571,-5.20979 -2.95917,-0.4056 -5.67622,1.16847 -6.25555,3.62402 l -0.28531,1.20939 -3.14656,0.092 -3.14656,0.0921 0.2255,-1.21204 c 1.06522,-5.7248 5.69181,-8.74017 12.77024,-8.32296 3.93254,0.23179 5.72563,0.9148 7.77085,2.96001 2.58969,2.58971 2.72448,3.26909 2.9815,15.0309 0.11927,5.456 0.32915,10.172 0.46647,10.48 0.22752,0.51032 -0.005,0.56 -2.62727,0.56 -3.22624,0 -3.25792,-0.0262 -3.26717,-2.70315 l -0.004,-1.26315 -1.36,1.38854 c -2.07059,2.11401 -4.28166,3.00597 -7.76,3.13036 -2.18934,0.0783 -3.27654,-0.0384 -4.5336,-0.48669 z m 7.60467,-4.26246 c 1.95264,-0.41878 4.23287,-2.30305 4.73056,-3.90914 0.53709,-1.73325 0.77117,-4.91918 0.37923,-5.16142 -0.38006,-0.23489 -5.17513,0.27534 -7.72323,0.8218 -3.33011,0.71419 -4.93241,2.84254 -4.09389,5.43798 0.48458,1.49983 1.56407,2.46147 3.19556,2.84667 1.53321,0.36199 1.66268,0.36066 3.51177,-0.0359 z m 24.77507,4.00518 c -0.70064,-0.25645 -1.73878,-0.91689 -2.30704,-1.46765 -1.84921,-1.79234 -2.0191,-2.8691 -2.0191,-12.79798 v -8.903 h -2.4 -2.4 v -2.56 -2.56 h 2.4 2.4 v -3.52 -3.52 h 3.04 3.04 v 3.50754 3.50754 l 2.8,0.0925 2.8,0.0925 v 2.4 2.4 l -2.8,0.0925 -2.8,0.0925 0.0141,7.10754 c 0.008,3.90915 0.13814,7.75135 0.28995,8.53822 0.40503,2.09943 1.4641,2.88932 3.87395,2.88932 h 1.90215 v 2.36 2.36 l -1,0.2 c -1.73053,0.34611 -5.50784,0.174 -6.83386,-0.31136 z M 210.32489,59.559863 v -19.84 l 8.56,0.005 c 9.22908,0.005 11.19231,0.24544 14.08613,1.72441 5.29799,2.70771 6.81398,10.02428 3.19666,15.42793 -0.80126,1.19693 -1.5395,1.8103 -3.1873,2.64815 l -2.14451,1.0904 1.26763,0.62718 c 1.87782,0.92907 3.21304,3.11264 5.03692,8.2372 0.53244,1.496 1.55248,4.34 2.26675,6.32 l 1.29866,3.6 h -3.64389 -3.64389 l -1.83096,-5.52 c -2.16412,-6.52448 -2.61973,-7.50033 -4.1146,-8.81284 -1.51683,-1.33179 -2.90759,-1.66326 -6.9876,-1.66537 l -3.44,-0.002 v 8 8 h -3.36 -3.36 z m 17.90762,-2.56 c 2.48542,-1.39277 3.57564,-3.9332 3.04449,-7.09427 -0.17152,-1.02072 -0.58045,-1.73298 -1.55248,-2.70404 -1.66564,-1.66398 -3.27428,-2.04169 -8.69538,-2.04169 h -3.98425 v 6.42872 6.42872 l 4.88,-0.10872 c 4.50264,-0.10031 4.9904,-0.17058 6.30762,-0.90872 z m 106.89238,2.56 v -19.84 h 3.04 3.04 v 19.84 19.84 h -3.04 -3.04 z m 99.52,5.58799 v -14.25201 l 2.96,0.092 2.96,0.092 0.0976,1.70456 0.0976,1.70456 1.44176,-1.32896 c 2.47961,-2.28562 5.56403,-3.16859 8.98662,-2.57257 3.4919,0.60809 5.64246,2.12307 7.07286,4.98257 1.11517,2.22937 1.34362,4.68585 1.34362,14.44862 v 9.38123 h -3.2 -3.2 l -0.003,-9.36 c 0,-5.5439 -0.13862,-9.85281 -0.33744,-10.56875 -0.82275,-2.96268 -3.87651,-4.59485 -7.0225,-3.75338 -1.78665,0.47788 -3.85545,2.52955 -4.40704,4.37051 -0.26809,0.89489 -0.39123,4.13925 -0.39123,10.30874 v 9.00288 h -3.2 -3.2 v -14.25201 z m 92.8,0.012 v -14.24 h 2.88 2.88 v 2.13725 2.13725 l 1.46058,-1.52435 c 2.15308,-2.24707 5.56752,-3.47504 8.10992,-2.91663 l 0.9895,0.21733 v 2.69458 2.69457 h -1.80288 c -2.57075,0 -4.21773,0.59295 -5.75309,2.07125 -2.13763,2.05816 -2.36403,3.29048 -2.36403,12.86683 v 8.10192 h -3.2 -3.2 z m 28.20762,12.40899 c -2.03645,-5.56057 -9.00762,-25.85129 -9.00762,-26.21813 0,-0.33218 0.72698,-0.43085 3.17427,-0.43085 h 3.17431 l 0.48976,1.52 c 1.92288,5.96769 4.78912,15.21553 5.62844,18.16 0.55188,1.936 1.08365,3.736 1.18176,4 0.0981,0.264 0.78404,-1.608 1.52432,-4.16 0.74026,-2.552 2.40749,-7.988 3.705,-12.08 l 2.35907,-7.44 h 3.30153 c 1.81584,0 3.30048,0.036 3.29917,0.08 0,0.044 -2.21369,6.416 -4.91645,14.16 l -4.91408,14.08 -4.16118,0.089 -4.16115,0.089 -0.67715,-1.84899 z m 103.70905,-12.32899 0.0833,-14.16 3.12,-0.0916 3.12,-0.0916 v 14.25159 14.25159 h -3.20333 -3.20333 z m 14.08,0 0.0833,-14.16 2.96,-0.092 2.96,-0.092 v 2.14961 2.14961 l 1.15587,-1.3504 c 1.95053,-2.27875 5.53232,-3.62216 8.28199,-3.10632 l 1.12214,0.21052 v 2.7855 2.7855 l -2.47856,0.0135 c -2.75347,0.015 -3.81306,0.4217 -5.44358,2.08943 -1.88909,1.93221 -2.09328,3.06111 -2.23872,12.37707 l -0.13117,8.4 h -3.17584 -3.17587 l 0.0833,-14.16 z m -13.94333,-19.65333 c -0.11734,-0.11733 -0.21334,-1.48533 -0.21334,-3.04 v -2.82667 h 3.2 3.2 v 3.04 3.04 h -2.98666 c -1.64268,0 -3.08268,-0.096 -3.2,-0.21333 z"
       id="path845" />
  </g>
</svg>
