<?xml version="1.0" encoding="UTF-8" standalone="no"?>
<!-- Created with Inkscape (http://www.inkscape.org/) -->

<svg
   version="1.1"
   id="svg2"
   width="184"
   height="194"
   viewBox="0 0 184 194"
   sodipodi:docname="b-palatinus.svg"
   inkscape:version="1.1.2 (0a00cf5339, 2022-02-04)"
   xmlns:inkscape="http://www.inkscape.org/namespaces/inkscape"
   xmlns:sodipodi="http://sodipodi.sourceforge.net/DTD/sodipodi-0.dtd"
   xmlns="http://www.w3.org/2000/svg"
   xmlns:svg="http://www.w3.org/2000/svg">
  <defs
     id="defs6" />
  <sodipodi:namedview
     id="namedview4"
     pagecolor="#505050"
     bordercolor="#eeeeee"
     borderopacity="1"
     inkscape:pageshadow="0"
     inkscape:pageopacity="0"
     inkscape:pagecheckerboard="0"
     showgrid="false"
     inkscape:zoom="3.8608247"
     inkscape:cx="91.949266"
     inkscape:cy="95.70494"
     inkscape:window-width="1854"
     inkscape:window-height="995"
     inkscape:window-x="0"
     inkscape:window-y="0"
     inkscape:window-maximized="1"
     inkscape:current-layer="g8" />
  <g
     inkscape:groupmode="layer"
     inkscape:label="Image"
     id="g8">
    <path
       id="path12"
       style="fill:#000000"
       d="m 85.445312,0.81835938 c 0.02903,0.0424716 0.06039,0.0837008 0.08398,0.12890624 0.298933,-0.003474 0.793685,-0.008902 1.207031,-0.0136719 0.007,-0.0145853 0.02704,-0.047145 0.0332,-0.0605469 -0.393279,-0.0156063 -0.786606,-0.0313858 -1.179687,-0.0488281 -0.06945,-0.003082 -0.07811,-0.002867 -0.144532,-0.005859 z M 46.994141,23.591797 c -1.1519,-0.155771 -3.847199,1.151289 -7.976563,3.896484 -6.596163,4.38512 -7.149509,4.568328 -10.736328,3.572266 C 21.04449,29.050896 17.134064,29.666718 13.400391,33.400391 10.702864,36.097918 10,37.601368 10,40.677734 10,50.194787 20.3447,54.924683 30.181641,49.90625 33.679312,48.121872 34.63233,48.00032 36.642578,49.076172 37.939364,49.770191 39,50.937861 39,51.669922 39,52.401983 39.414403,53 39.921875,53 40.977244,53 50.489957,42.130774 49.892578,41.607422 49.676816,41.418396 48.15,40.500939 46.5,39.568359 c -1.65,-0.932581 -2.1,-1.38925 -1,-1.015625 5.479013,1.860995 10.533851,2.574533 15.703125,2.21875 L 66.90625,40.378906 64.136719,42.0625 c -2.977304,1.810606 -7.795709,7.655471 -10.15625,12.318359 -1.855799,3.665849 -1.704991,12.383552 0.347656,20.076172 0.874303,3.276587 1.421467,6.127362 1.214844,6.333985 -0.748959,0.748959 -4.59193,-9.223133 -4.074219,-10.572266 0.934322,-2.434804 -1.067382,-0.873198 -6.414062,5.003906 -2.863583,3.147663 -4.91518,6.19377 -4.560547,6.767578 0.354632,0.573808 1.072181,0.778641 1.595703,0.455078 0.858077,-0.53032 3.882144,5.240991 4.335937,8.275391 0.359857,2.406273 1.592893,2.564052 3.435547,0.439453 C 50.891829,89.971979 51.91771,89 52.140625,89 c 0.703463,0 3.62772,6.311862 5.212891,11.25 1.582047,4.92841 0.460573,6.63183 -1.513672,2.29883 -2.270741,-4.98375 -11.043678,-7.048591 -16.015625,-3.769533 -5.279156,3.481663 -7.020914,6.732273 -6.273438,11.716793 1.219443,8.13183 9.032275,12.11745 14.21875,7.25391 l 2.400391,-2.25 1.914062,2.36133 C 53.137262,119.15977 54,121.11554 54,122.20898 c 0,5.85822 -6.897049,12.97912 -16.677734,17.21875 -6.082468,2.63656 -9.458044,6.58657 -10.03711,11.7461 -0.444028,3.95633 -0.131767,4.72657 3.650391,9.01953 3.454844,3.92144 4.903886,4.81015 8.800781,5.39453 5.432255,0.81462 15.414338,-0.82874 23.042969,-3.79297 5.07299,-1.97119 5.356752,-1.98095 7.25,-0.26758 C 71.112999,162.50807 72,163.91454 72,164.6543 c 0,1.91558 0.471921,1.75398 6.275391,-2.1543 5.573231,-3.75323 7.797184,-4.49583 5.626953,-1.88086 -1.161368,1.39936 -0.941825,1.93884 1.626953,3.99414 1.63382,1.30723 3.528033,2.37786 4.208984,2.38086 1.897004,0.008 12.229299,-7.23835 11.652339,-8.17187 C 101.11119,158.3701 100.09816,158 99.140625,158 97.33502,158 95,156.19609 95,154.80078 c 0,-1.40972 1.94493,-0.86502 5.77148,1.61914 2.05071,1.33128 5.75352,3.00023 8.22852,3.70899 2.475,0.70876 5.69222,2.54511 7.15039,4.08007 1.45817,1.53496 3.5808,2.79102 4.7168,2.79102 2.62594,0 9.13281,-6.43567 9.13281,-9.0332 0,-1.08167 0.36958,-1.9668 0.82031,-1.9668 0.93462,0 9.87332,-8.6266 15.3711,-14.83398 4.14255,-4.67721 5.27097,-5.04063 6.79687,-2.18946 2.64585,4.94381 7.84314,4.64966 11.10547,-0.6289 1.84152,-2.97964 1.95784,-3.81021 0.89063,-6.38672 C 163.92302,129.39883 163.23453,129 159.87891,129 H 156 v -7 c 0,-3.85 -0.19413,-7 -0.43164,-7 -0.23752,0 -3.02001,2.46685 -6.18359,5.48242 -3.16358,3.01557 -5.88138,5.35496 -6.03907,5.19727 -0.15769,-0.15768 -0.48267,-2.289 -0.72265,-4.73438 -0.23997,-2.44539 -0.74351,-6.08057 -1.11914,-8.08008 -0.40448,-2.15303 -0.2666,-3.89397 0.33789,-4.26757 1.46527,-0.90558 2.16541,0.6679 2.84179,6.3789 0.32725,2.7631 0.88556,5.02344 1.24024,5.02344 0.35468,0 3.08226,-2.46861 6.0625,-5.48633 l 5.41992,-5.48633 -2.125,-1.98046 c -1.22201,-1.1385 -2.61279,-4.33134 -3.27344,-7.513677 -0.63182,-3.043476 -1.45461,-5.530844 -1.82812,-5.527344 -0.3735,0.0035 -1.45876,1.375118 -2.41016,3.046875 -1.21837,2.140854 -1.44774,3.541926 -0.77539,4.742186 1.92004,3.42759 4.0171,9.52782 3.46484,10.08008 -0.77239,0.7724 -1.94788,-1.28673 -3.55859,-6.23242 -0.74204,-2.27845 -1.70484,-4.59258 -2.13867,-5.14258 -0.43383,-0.55 -2.24522,-2.869051 -4.02539,-5.154297 -3.64343,-4.677167 -11.25008,-10.751699 -14.84961,-11.857422 -4.431,-1.361132 -5.03517,-2.456944 -4.35547,-7.904297 1.08201,-8.671668 1.15891,-11.96081 0.36133,-15.529296 -0.42346,-1.894642 -0.50909,-3.867602 -0.18946,-4.384766 1.11622,-1.806062 3.29083,3.865641 3.09376,8.068359 -0.10931,2.330721 0.14823,4.266685 0.57031,4.302735 0.42207,0.03605 2.05629,-1.557218 3.63281,-3.541016 1.57653,-1.983799 4.02196,-4.516558 5.43359,-5.626953 C 136.92555,56.912877 137.92137,54 136.09961,54 c -1.36004,0 -3.40802,-9.709865 -2.74609,-13.019531 0.9542,-4.770991 -0.98532,-4.327075 -4.44727,1.015625 l -3.25,5.015625 -2.78711,-3.25586 c -1.53292,-1.790749 -2.80572,-3.556185 -2.82812,-3.923828 -0.0224,-0.367642 -1.69637,-1.691507 -3.71875,-2.941406 -4.36788,-2.699497 -2.89499,-3.755919 1.83007,-1.3125 5.80416,3.001451 9.26556,2.912208 12.89649,-0.332031 2.89693,-2.588408 3.13356,-3.196957 2.25976,-5.81836 C 132.48341,26.952214 131.80474,26.5 128.91602,26.5 c -2.72206,0 -3.47717,0.431729 -3.71875,2.125 -0.16677,1.168945 0.39465,2.824339 1.24804,3.677734 3.41456,3.41456 -2.03889,2.289918 -10.44531,-2.154296 -7.80607,-4.126831 -9.11229,-4.501486 -16,-4.572266 -5.351545,-0.05499 -8.492773,0.433738 -10.966797,1.705078 -2.140461,1.099926 -4.497407,1.556178 -6.158203,1.191406 -2.152753,-0.472824 -3.362189,0.08094 -6.054688,2.773438 -1.850627,1.850629 -4.122415,3.656229 -5.048828,4.011718 -1.453406,0.557725 -1.536572,0.319702 -0.601562,-1.732421 1.721265,-3.777765 0.321336,-7.258098 -3.234375,-8.039063 -3.033133,-0.666188 -6.388402,0.211302 -12.591797,3.296875 -2.907169,1.446029 -3.366147,1.431511 -5.828125,-0.181641 -1.544035,-1.01169 -2.447615,-2.339439 -2.138672,-3.144531 0.442362,-1.152775 0.308327,-1.771772 -0.382812,-1.865234 z M 61.486328,29 c 1.274966,0 1.374755,0.391051 0.513672,2 -0.76049,1.420989 -0.76049,2.579011 0,4 0.996383,1.861758 0.774144,1.992749 -3.214844,1.884766 C 54.132635,36.75882 51,36.143124 51,35.355469 51,33.636244 58.649778,29 61.486328,29 Z m 4.322266,0 C 67.089598,29 68,29.623052 68,30.5 68,32.309548 67.993,32.310013 65.558594,30.46875 63.66159,29.033923 63.667273,29 65.808594,29 Z m -24.060547,0.01367 c 0.796697,0.07011 2.171498,0.934727 3.845703,2.486328 1.483649,1.375 2.295546,2.487291 1.802734,2.472656 C 46.017264,33.931713 41,30.633375 41,29.767578 c 0,-0.552367 0.270029,-0.795974 0.748047,-0.753906 z m 61.835933,0.441406 c 0.0773,-0.01549 0.175,-0.01583 0.29297,0.002 0.15731,0.02345 0.34784,0.07674 0.57032,0.16211 0.85357,0.327544 1.55273,0.772125 1.55273,0.988281 0,0.809913 -1.90493,0.354501 -2.49219,-0.595703 -0.19706,-0.318859 -0.15571,-0.510171 0.0762,-0.556641 z M 34.5,33.03125 c 0.55,0 1.675,0.435594 2.5,0.96875 0.825,0.533156 1.05,0.96875 0.5,0.96875 -0.55,0 -1.675,-0.435594 -2.5,-0.96875 -0.825,-0.533156 -1.05,-0.96875 -0.5,-0.96875 z m -12.935547,2.509766 c 4.520073,-0.14142 9.892648,1.100464 11.480469,3.013672 C 33.70477,39.349756 34.919141,40 35.744141,40 c 2.100748,0 -0.154097,2.643537 -3.914063,4.587891 -5.133932,2.654859 -7.293832,3.090381 -11.140625,2.25 -6.407473,-1.399793 -7.844406,-2.578928 -7.498047,-6.154297 0.264022,-2.725428 0.884216,-3.374843 4.308594,-4.513672 1.145224,-0.380862 2.557762,-0.581766 4.064453,-0.628906 z M 105.5,36.033203 c 1.18928,-0.03172 7.32233,3.617209 8.89453,5.291016 C 117.34091,44.461012 121,50.028409 121,51.375 c 0,3.292388 -1.8325,2.351076 -3.39648,-1.744141 C 114.99633,42.80402 109,38.514849 109,43.476562 c 0,0.746942 -0.90372,3.465288 -2.00781,6.041016 l -2.00781,4.683594 2.43164,1.912109 c 1.33686,1.051573 2.725,3.25514 3.08593,4.898438 0.73087,3.327642 1.64769,3.717828 3.49805,1.488281 0.68469,-0.825 1.8327,-1.5 2.55078,-1.5 1.98382,0 2.94383,10.160643 1.46094,15.457031 -1.19131,4.254928 -1.32601,4.366118 -4.61719,3.832031 -4.40268,-0.714455 -14.636345,1.319604 -19.015624,3.779297 -4.652536,2.613174 -7.052985,2.431558 -8.671875,-0.658203 l -1.357422,-2.591797 -1.792968,2.734375 c -1.635783,2.496522 -1.650346,2.814324 -0.173829,3.640625 2.032337,1.137353 2.099276,3.684714 0.117188,4.445313 -1.53507,0.589061 -1.977623,3.951716 -0.892578,6.779297 0.939423,2.448101 2.169574,1.877791 2.875,-1.333985 0.741087,-3.374149 2.838796,-4.517238 5.589844,-3.044922 C 91.643001,94.879695 92,96.167721 92,101 c 0,5.20694 0.378363,6.36107 3.103516,9.46484 3.605087,4.10597 6.752834,4.52961 11.619144,1.5625 3.95097,-2.409 5.20094,-6.34999 2.83984,-8.95898 C 107.3874,100.6649 104,101.4852 104,104.41602 c 0,1.20085 0.46968,2.65325 1.04297,3.22656 1.66354,1.66354 -1.4044,3.55527 -4.50391,2.77734 -3.417376,-0.85771 -5.787664,-4.52357 -5.927732,-9.16797 L 94.5,97.580078 l 6.0918,-0.04102 c 5.48983,-0.03567 6.52712,-0.395529 10.50195,-3.652343 4.91718,-4.028936 6.51611,-3.947907 12.53711,0.644531 2.29407,1.749769 3.04331,3.000921 2.66406,4.451172 -0.78641,3.007248 0.61611,2.454408 4.1543,-1.638672 l 3.16016,-3.65625 3.69531,4.509766 c 3.41588,4.168624 4.57764,7.588374 3.08398,9.082034 -0.3366,0.33659 -2.0241,-1.47475 -3.75,-4.02344 -1.7259,-2.5487 -3.62244,-4.785337 -4.21484,-4.970704 -0.59239,-0.185366 -2.30167,1.911014 -3.79688,4.658204 -1.49521,2.74719 -3.14698,5.25958 -3.67187,5.58398 -1.63696,1.0117 -1.04535,2.3088 0.83008,1.81836 1.28827,-0.33689 2.26349,0.53396 3.5,3.12696 0.94277,1.97701 1.71484,4.2542 1.71484,5.06054 0,2.02423 0.97575,1.83893 3.68164,-0.70312 1.27078,-1.19384 2.55524,-1.92719 2.85352,-1.62891 0.87468,0.87469 0.92037,14.85835 0.0664,20.29883 -1.10776,7.05733 -2.53201,9.11849 -2.57031,3.71875 -0.0397,-5.5912 -1.94023,-9.94227 -6.13281,-14.03906 -3.13369,-3.06208 -3.74819,-3.26958 -7.89844,-2.67188 -5.80043,0.83534 -8.30168,2.49939 -10.39844,6.91797 -1.5848,3.33978 -1.5853,3.80536 -0.0332,7.07617 2.72846,5.7498 9.75048,6.50927 12.50976,1.35352 0.92478,-1.72795 0.75129,-2.46942 -0.9746,-4.19531 -1.98942,-1.98941 -2.18419,-2.00722 -3.83008,-0.36133 -1.4409,1.4409 -1.52535,2.06872 -0.4961,3.71679 1.40944,2.25686 0.45173,2.50194 -3.23046,0.82422 C 108.42046,136.04855 114.52557,126 122.34766,126 c 3.11611,0 8.15854,5.62192 9.7207,10.83594 0.94638,3.15875 0.85819,4.90408 -0.48242,9.51562 -0.90304,3.10637 -1.96615,5.62415 -2.36328,5.59375 -0.39714,-0.0304 -1.75751,-1.36576 -3.02149,-2.96679 -2.85754,-3.61953 -7.529,-4.96566 -17.26172,-4.97266 -6.26854,-0.005 -7.94422,-0.36163 -9.792966,-2.08398 l -2.228515,-2.07618 -5.050781,3.24024 c -2.777553,1.78235 -5.705045,3.89449 -6.50586,4.69531 -2.703176,2.70317 -2.740551,0.22403 -0.03906,-2.5957 C 87.925915,142.46791 88.819002,140 87.199219,140 c -0.44,0 -1.291625,0.49085 -1.892578,1.0918 -1.813656,1.81366 -5.552246,-0.74278 -4.75586,-3.25196 0.294296,-0.92724 0.356881,-1.406 0.07813,-1.57031 -0.218991,0.11311 -0.459671,0.19914 -0.732422,0.24414 -0.198366,0.0327 -0.400598,-0.0116 -0.601562,-0.0176 l 0.216797,0.0469 c 0.0044,0.005 0.01977,0.0117 0.01367,0.0137 -0.338816,0.12661 -0.648669,0.16357 -0.978516,0.13281 -1.178244,0.48313 -2.690766,1.45444 -3.591797,2.35547 -1.016454,1.01645 -3.263576,2.58071 -4.992187,3.47461 -3.02423,1.56389 -3.07728,1.69764 -1.398438,3.55274 0.959604,1.06035 2.521338,1.92773 3.46875,1.92773 0.947412,0 2.282108,0.675 2.966797,1.5 2.273293,2.73915 -1.808901,1.74414 -5.808594,-1.41602 C 67.161148,146.47978 63.925,144.30079 62,143.24219 57.762741,140.91204 48.496291,138.57492 47.046875,139.4707 46.470768,139.82676 46,139.64105 46,139.05859 46,138.47613 46.661385,138 47.470703,138 c 2.632106,0 12.660716,-4.91287 16.390625,-8.0293 9.347889,-7.81039 13.744687,-14.02131 16.570313,-23.41015 L 81.804688,102 h -2.5 -2.498047 l 0.347656,-9.421875 c 0.304236,-8.271418 0.635325,-9.729357 2.716797,-11.943359 2.295267,-2.441409 2.368599,-3.030605 2.318359,-18.484375 -0.06274,-19.298854 0.115059,-20.240033 3.666016,-19.53125 1.921937,0.383625 3.800421,-0.309652 6.871093,-2.535157 3.780412,-2.739889 4.519259,-2.937959 7,-1.880859 1.525418,0.650015 3.499678,2.059632 4.386718,3.132813 0.88703,1.07318 2.12453,1.634607 2.75,1.248046 1.72574,-1.066569 1.35908,-4.355111 -0.61328,-5.503906 -0.9625,-0.560605 -1.3,-1.032205 -0.75,-1.046875 z M 24.623047,39 c -2.66362,0 -5.137977,2.359083 -4.150391,3.957031 C 20.827465,43.531124 22.441053,44 24.058594,44 26.528976,44 27,43.599963 27,41.5 27,39.534334 26.492439,39 24.623047,39 Z M 80.5625,40.550781 c 0.307519,-0.0088 0.303789,1.104898 0.0039,3.449219 -0.316548,2.475 -0.610787,10.575 -0.654297,18 -0.04351,7.425 -0.296278,14.2875 -0.5625,15.25 -1.824011,6.594542 -2.239192,-6.18301 -0.83789,-25.820312 0.355981,-4.988597 1.093373,-9.713595 1.638672,-10.5 0.172169,-0.248295 0.309603,-0.37598 0.412109,-0.378907 z M 73.544922,43 c 0.456275,0 -0.448278,53.906271 -0.994141,59.24023 -0.210481,2.05675 -1.151128,6.10675 -2.089843,9 -1.766605,5.4449 -4.335353,9.45776 -3.046876,4.75977 C 70.074478,106.29972 70.933824,96.478308 70.9375,75.748047 70.940884,56.66085 72.028316,43 73.544922,43 Z M 40.75,43.015625 C 41.9875,43.007203 43,43.45 43,44 c 0,1.252922 -1.061241,1.252922 -3,0 -1.212959,-0.783874 -1.069438,-0.971993 0.75,-0.984375 z M 65.142578,44 c 0.51445,0 -0.03886,1.0125 -1.228516,2.25 -4.432496,4.610767 -6.160593,10.320679 -5.404296,17.851562 0.729468,7.263729 -0.0026,9.555675 -1.00586,3.148438 -0.322948,-2.0625 -0.77267,-4.934551 -0.998047,-6.382812 -0.629936,-4.047951 1.284453,-9.558717 4.652344,-13.394532 C 62.835175,45.56269 64.628129,44 65.142578,44 Z m 3.8125,0.667969 -0.996094,3.416015 c -0.548597,1.878667 -0.902865,9.011534 -0.787109,15.851563 0.150472,8.891417 -0.129144,12.550209 -0.980469,12.833984 -0.654912,0.218304 -1.198631,-0.202213 -1.207031,-0.935547 -0.0084,-0.733333 -0.431452,-1.991792 -0.939453,-2.794922 -0.790469,-1.249701 -1.220485,-1.190049 -2.984375,0.40625 C 59.276363,75.059978 59,75.094732 59,73.705078 c 0,-0.882914 0.629157,-1.96642 1.398438,-2.40625 1.134455,-0.648614 1.207394,-1.898144 0.388671,-6.615234 -1.211537,-6.980294 0.51985,-12.687212 5.208985,-17.179688 z m 58.392582,5.162109 c 0.51901,0.0839 1.69822,1.874538 2.46093,4.31836 0.81791,2.620694 0.94396,4.499402 0.34375,5.099609 -0.6002,0.600207 -1.19809,-0.283 -1.625,-2.398438 -0.3717,-1.841861 -0.89892,-4.137109 -1.16992,-5.099609 -0.39581,-1.40576 -0.31925,-1.970264 -0.01,-1.919922 z M 111.4043,50 C 111.94256,50 116,56.504089 116,57.367188 116,57.714768 115.55,58 115,58 c -0.55,0 -1,-0.169121 -1,-0.376953 0,-0.207832 -0.68129,-2.007832 -1.51367,-4 C 111.65395,51.630879 111.16678,50 111.4043,50 Z M 47.601562,76.664062 c 0.496424,0.16023 1.38739,1.507042 2.353516,3.632813 2.858379,6.289302 2.077321,8.489629 -0.898437,2.53125 -1.264417,-2.531749 -2.070613,-5.215312 -1.791016,-5.964844 0.03678,-0.0986 0.08685,-0.162849 0.148437,-0.193359 0.05389,-0.0267 0.116583,-0.02847 0.1875,-0.0059 z m 13.730469,1.671876 c 0.235714,-0.235715 0.727883,0.770815 1.095703,2.236328 0.367821,1.465513 0.47595,2.856082 0.240235,3.091796 -0.235714,0.235715 -0.727883,-0.770815 -1.095703,-2.236328 -0.367821,-1.465513 -0.47595,-2.856082 -0.240235,-3.091796 z m 5.253907,5.296874 c 0.066,-0.02189 0.121219,-0.01922 0.167968,0.0059 C 66.978303,83.758381 67,84.40642 67,85.464844 c 0,1.907035 -1.04554,4.019346 -2.978516,6.013672 l -2.980468,3.074218 1.6875,3.72461 c 2.12626,4.691056 3.566785,4.813356 2.707031,0.230468 -0.71711,-3.822522 0.198728,-7.71879 1.369141,-5.826171 C 68.045186,94.687593 66.937953,104 65.458984,104 c -0.899526,0 -1.451013,1.58194 -1.654296,4.75 -0.294678,4.59234 -0.349177,4.48573 -1.66211,-3.21875 -0.746903,-4.38294 -1.712405,-8.898578 -2.144531,-10.035156 -0.596155,-1.568008 0.152993,-3.383031 3.107422,-7.519532 2.044624,-2.862678 3.018484,-4.1905 3.480469,-4.34375 z m 42.283202,0.486329 c 0.725,0.0037 1.41453,0.06821 1.89258,0.193359 0.95609,0.250293 -0.0617,0.446647 -2.26172,0.435547 -2.2,-0.0111 -2.98219,-0.215885 -1.73828,-0.455078 0.62195,-0.119597 1.38242,-0.177486 2.10742,-0.173828 z m -7.29492,1.285156 c 0.11617,0.01 0.20155,0.03749 0.25,0.08594 C 102.1046,85.770589 101.89343,86 101.35547,86 100.81751,86 99.430273,86.881226 98.273438,87.958984 95.880595,90.188258 91,91.720694 91,90.242188 c 0,-1.045683 8.831578,-4.987853 10.57422,-4.837891 z m 17.21094,0.433594 c 0.93915,0.09686 2.82702,0.952177 6.21484,2.732421 3.85,2.023119 7,4.070862 7,4.552735 0,1.739759 -3.57992,0.679846 -7.39844,-2.191406 C 122.45728,89.319306 120.09478,88 119.35156,88 118.60833,88 118,87.300303 118,86.445312 c 0,-0.451408 0.22167,-0.665537 0.78516,-0.607421 z m -60.896488,0.06055 c 0.192972,-0.01999 0.430346,0.08855 0.699219,0.357421 0.323619,0.32362 0.423071,1.410468 0.220703,2.416016 -0.350243,1.740324 -0.403121,1.737587 -1.111328,-0.06445 -0.566228,-1.440793 -0.38751,-2.649027 0.191406,-2.708984 z M 106.26562,89 c 4.82824,0 4.97307,0.07893 3.38477,1.833984 -2.34085,2.586607 -7.70809,4.060652 -10.701171,2.939454 L 96.5,92.857422 98.861328,90.927734 C 100.49885,89.590194 102.76682,89 106.26562,89 Z m -60.294917,11 c 2.848995,0 7.57105,5.32575 9.253906,10.4375 C 56.050645,112.94662 56.585335,115 56.414062,115 56.242793,115 54.8899,113.875 53.40625,112.5 51.914139,111.11716 49.502676,110 48.009766,110 45.049808,110 42,112.70324 42,115.32812 c 0,3.77797 -3.511168,0.86011 -4.933594,-4.0996 C 35.51709,105.82637 40.137753,100 45.970703,100 Z m 85.656247,4.01172 c 0.64942,0.0459 1.72336,1.43745 2.83399,3.90039 0.97039,2.15193 1.57703,4.47592 1.34765,5.16406 -0.47723,1.4317 -4.80859,-5.4434 -4.80859,-7.63281 0,-1.00218 0.2373,-1.45918 0.62695,-1.43164 z m 28.76563,4.11523 c -0.40065,0.0459 -0.38822,0.1374 0.0117,0.33399 -0.003,-0.11117 -0.008,-0.22278 -0.0117,-0.33399 z M 46.058594,114 c 0.582459,0 0.781325,0.45 0.441406,1 -0.339919,0.55 -0.816053,1 -1.058594,1 C 45.198865,116 45,115.55 45,115 c 0,-0.55 0.476135,-1 1.058594,-1 z m 104.646486,9.2832 c 0.14859,-0.0707 0.23686,0.3477 0.3457,1.2168 0.13772,1.1 0.1475,3.35 0.0195,5 -0.12774,1.65 -0.64713,3.42672 -1.15234,3.94922 -1.12338,1.16179 -1.06438,-4.8688 0.082,-8.44922 0.34792,-1.08637 0.55649,-1.64612 0.70508,-1.7168 z m -6.35547,4.08399 c 0.97117,0.22354 -0.43451,7.78136 -2.35742,12.13281 -0.97219,2.2 -2.4949,4.9 -3.38477,6 -1.33151,1.64593 -1.28915,1.20333 0.23633,-2.5 1.01951,-2.475 2.41678,-6.86472 3.10547,-9.75391 0.6887,-2.8892 1.66807,-5.50848 2.17578,-5.82226 0.0864,-0.0534 0.15986,-0.0716 0.22461,-0.0566 z m 14.36133,5.17969 c 1.78679,-0.0786 3.28906,1.10496 3.28906,2.96874 0,2.16355 -2.79117,2.4728 -5.14062,0.57032 l -2.24024,-1.8125 2.25391,-1.20508 c 0.61345,-0.32831 1.24229,-0.4953 1.83789,-0.52148 z M 47.626953,143.10156 c 4.961413,-0.16236 12.963084,3.80962 20.660156,10.25586 l 2.789063,2.33594 -6.103516,2.73828 c -3.356328,1.50623 -8.885169,3.14067 -12.287109,3.63281 -10.851226,1.56979 -16.134594,0.7411 -20.316406,-3.1875 -4.644905,-4.36367 -1.698198,-12.07593 5.03125,-13.16797 4.309161,-0.69928 12.529307,1.3935 16.453125,4.1875 1.624909,1.15704 3.386466,2.10352 3.914062,2.10352 0.527596,0 2.091283,1.13226 3.47461,2.51562 C 63.793227,157.06663 67,157.05456 67,154.49414 67,152.75601 53.338437,145.30928 47.675781,143.96094 L 44.5,143.20508 Z m 28.865235,0.33594 c 0.472622,0.0352 1.285839,0.40947 2.080078,0.99023 1.058984,0.77435 1.698828,1.63321 1.423828,1.90821 -0.275,0.275 -1.364844,-0.13386 -2.423828,-0.90821 -1.058985,-0.77435 -1.700782,-1.63125 -1.425782,-1.90625 0.06875,-0.0687 0.188156,-0.0957 0.345704,-0.084 z m 17.113281,1.95312 c 1.401638,0.0673 5.377864,2.01635 5.386719,2.80079 0.0043,0.38004 -0.332797,0.89961 -0.748047,1.15625 -0.880601,0.54424 -5.7523,-3.17153 -5.0625,-3.86133 0.07606,-0.0761 0.223594,-0.10534 0.423828,-0.0957 z m 18.410151,1.26563 c 5.65511,0.0328 11.41047,1.96307 12.50391,5.4082 0.87793,2.76614 -0.15997,3.64152 -2.55078,2.14844 -2.79842,-1.74765 -4.77446,-1.49742 -6.20117,0.78711 -1.62409,2.60058 -3.07881,2.50399 -10.01953,-0.66406 -4.90215,-2.23757 -5.5669,-2.84924 -4.5,-4.13477 2.03236,-2.44885 6.3692,-3.57045 10.76757,-3.54492 z m -69.201167,2.01758 c -1.047401,0.074 -1.753827,0.86984 -3.251953,2.83398 C 38.153171,153.35553 37,155.1377 37,155.46875 c 0,0.33105 0.862993,0.13883 1.917969,-0.42578 1.054976,-0.5646 3.263895,-0.75661 4.908203,-0.42774 2.404684,0.48093 3.218436,0.16952 4.162109,-1.59375 1.361223,-2.54347 1.459838,-2.40451 -2.675781,-3.79882 -1.11818,-0.37699 -1.869606,-0.59322 -2.498047,-0.54883 z M 87.535156,149 C 88.656473,149 93,152.27088 93,153.11523 c 0,1.11606 -0.90882,1.03431 -3.75,-0.33593 C 87.30329,151.84043 86.014422,149 87.535156,149 Z m -9.199218,3.46289 c 0.407812,-0.0878 1.20879,0.23825 2.236328,1.01563 1.691865,1.27997 1.720976,1.46233 0.236328,1.49023 -0.930041,0.0175 -1.987076,-0.44857 -2.34961,-1.03516 -0.544667,-0.88129 -0.530859,-1.38294 -0.123046,-1.4707 z M 72.882812,156 c 0.55,0 1.277269,0.45 1.617188,1 0.339919,0.55 0.167186,1 -0.382812,1 -0.55,0 -1.277269,-0.45 -1.617188,-1 -0.339919,-0.55 -0.167186,-1 0.382812,-1 z m 18.328126,3.10352 C 92.398295,159.10524 94,160.00205 94,160.96875 c 0,1.2701 -1.034951,1.2946 -2.970703,0.0703 -0.809068,-0.51167 -1.16582,-1.23456 -0.792969,-1.60742 0.228773,-0.22877 0.57882,-0.3287 0.97461,-0.32812 z m 33.148442,0.0156 c 0.26425,-0.0181 0.49432,-0.002 0.67578,0.0586 0.8843,0.29477 0.75087,0.89366 -0.47266,2.11719 -1.75475,1.75475 -5.5625,2.35393 -5.5625,0.875 0,-1.05277 3.50952,-2.92376 5.35938,-3.05078 z" />
  </g>
</svg>
