<?xml version="1.0" encoding="UTF-8" standalone="no"?>
<!-- Created with Inkscape (http://www.inkscape.org/) -->

<svg
   version="1.1"
   id="svg2"
   width="184"
   height="194"
   viewBox="0 0 184 194"
   sodipodi:docname="p-palatinus.svg"
   inkscape:version="1.1.2 (0a00cf5339, 2022-02-04)"
   xmlns:inkscape="http://www.inkscape.org/namespaces/inkscape"
   xmlns:sodipodi="http://sodipodi.sourceforge.net/DTD/sodipodi-0.dtd"
   xmlns="http://www.w3.org/2000/svg"
   xmlns:svg="http://www.w3.org/2000/svg">
  <defs
     id="defs6" />
  <sodipodi:namedview
     id="namedview4"
     pagecolor="#505050"
     bordercolor="#eeeeee"
     borderopacity="1"
     inkscape:pageshadow="0"
     inkscape:pageopacity="0"
     inkscape:pagecheckerboard="0"
     showgrid="false"
     inkscape:zoom="1.9304124"
     inkscape:cx="39.88785"
     inkscape:cy="102.30975"
     inkscape:window-width="1854"
     inkscape:window-height="995"
     inkscape:window-x="0"
     inkscape:window-y="0"
     inkscape:window-maximized="1"
     inkscape:current-layer="g8" />
  <g
     inkscape:groupmode="layer"
     inkscape:label="Image"
     id="g8">
    <path
       style="fill:#000000"
       d="m 59.288321,176.2231 c -5.033159,-4.26748 -6.690208,-11.05219 -4.092023,-16.75458 0.657964,-1.44408 4.259768,-4.60734 8.004008,-7.02948 9.13997,-5.91261 11.001827,-9.01423 10.574397,-17.61559 -0.237664,-4.78261 -0.864072,-7.26472 -2.208229,-8.75 C 69.629535,123.93316 66,123.23323 66,125 c 0,0.55 1.125,1 2.5,1 3.042991,0 3.403698,2.87219 0.671259,5.34501 -2.371506,2.14619 -3.470694,2.08659 -5.63556,-0.30556 -1.771143,-1.95709 -1.774122,-5.28561 -0.0085,-9.45019 0.688568,-1.62409 0.475347,-1.8232 -1.421269,-1.32722 -3.0518,0.79806 -8.465447,-1.63229 -11.101878,-4.98396 -3.286984,-4.17873 -1.684402,-10.41423 5.272335,-20.514183 0.978235,-1.420223 0.826432,-2.105481 -0.834322,-3.766235 l -2.030132,-2.030132 -2.147717,2.000903 c -1.181245,1.100497 -2.564684,2.745982 -3.074311,3.656633 -1.425144,2.546592 -3.292359,0.774496 -2.202988,-2.090765 0.700462,-1.842355 0.444185,-2.987767 -1.110791,-4.964598 C 43.764437,86.156366 42.212501,85 41.42742,85 c -2.456356,0 -1.586951,-1.91513 3.185703,-7.017483 5.742887,-6.139612 6.625851,-5.793905 11.769188,4.607991 3.115465,6.300722 4.018184,7.445232 4.787736,6.070119 0.690356,-1.233598 0.388145,-2.406836 -1.110841,-4.312489 -2.663782,-3.386449 -2.600937,-5.49058 0.243809,-8.16308 2.11867,-1.990388 2.247814,-2.696885 1.613396,-8.826307 C 60.871134,57.259819 63.251705,50.78801 70.453627,44.14951 72.929555,41.867279 75.415368,40 75.977657,40 c 1.989575,0 0.980238,1.771046 -2.284081,4.007794 -1.818533,1.246079 -4.330215,4.044475 -5.581516,6.218658 -2.526478,4.38985 -3.771788,13.011714 -2.398436,16.60549 0.86448,2.262165 1.001787,2.189929 4.588761,-2.414109 4.351448,-5.585276 4.766995,-7.724334 1.33315,-6.862494 -1.643878,0.412587 -2.553206,0.101589 -2.983785,-1.020481 C 67.930083,54.654225 69.931932,51 71.683843,51 73.440465,51 76,55.064788 76,57.854472 c 0,2.947529 -3.470644,8.917739 -6.808283,11.711627 -2.298037,1.923651 -2.384384,2.320084 -1.25241,5.75 C 69.376601,79.671142 69.914209,79.81374 72.402724,76.5 74.634985,73.52749 76,73.291299 76,75.877555 c 0,1.032656 0.5625,2.344336 1.25,2.914845 0.988343,0.820159 1.25,-1.509124 1.25,-11.127555 0,-12.397202 1.704172,-21.271479 5.072575,-26.414845 2.439038,-3.724276 3.449279,-2.537107 1.701933,2 -1.251186,3.248793 -1.640073,7.783673 -1.650775,19.25 -0.01741,18.659349 1.271297,67.72836 1.792455,68.24952 1.211047,1.21105 3.508709,-21.869 2.392958,-24.03729 C 86.825519,104.8007 87.591519,101 88.960399,101 c 2.030574,0 1.958054,-3.457901 -0.118885,-5.668701 -1.709065,-1.819216 -1.943945,-2.628868 -1.02827,-3.544543 1.766569,-1.766569 1.440264,-4.247359 -0.828762,-6.300799 l -2.015517,-1.824019 2.015517,-2.14542 c 2.48926,-2.649695 2.488892,-2.671484 -0.09485,-5.613508 C 84.926962,73.668189 84.813268,72.660109 85.265208,61.5 85.578882,53.75422 86.35054,47.904668 87.441845,45 c 2.981153,-7.934768 2.979126,-7.896085 0.410551,-7.837201 -1.293818,0.02966 -4.054822,0.755238 -6.135565,1.612395 -2.882719,1.18753 -4.060891,1.280746 -4.95,0.391637 C 76.125074,38.525074 74.182517,38 72.450038,38 c -1.912983,0 -4.776265,-1.178088 -7.291341,-3 -4.522649,-3.276191 -5.674977,-3.591692 -6.752195,-1.848716 -0.415639,0.672518 0.703416,2.313127 2.690983,3.945158 L 64.5,39.890317 l -5,5.033089 c -5.45559,5.491693 -6.5,6.014044 -6.5,3.250908 0,-1.004127 -1.105786,-2.864518 -2.457303,-4.134202 -2.376184,-2.23231 -2.570989,-2.25457 -5.901129,-0.674314 -6.606411,3.134947 -15.461883,1.749754 -20.23527,-3.165247 -4.92307,-5.069123 -4.803391,-10.038752 0.366248,-15.208391 2.0749,-2.0749 5.501602,-4.249961 7.614894,-4.833469 5.013375,-1.38426 10.304261,1.000249 17.619712,7.940893 C 54.737961,32.58801 58,33.814157 58,31.103965 58,29.800799 53.059182,26 51.365141,26 49.265327,26 49.64948,25.293065 54.5,20.231106 c 2.5405,-2.651243 4.502015,-4.050601 4.504627,-3.213633 0.0047,1.519454 5.537734,8.000302 6.796059,7.960291 C 66.185309,24.965534 67.625,24.075541 69,23 c 2.765703,-2.163364 9.848912,-2.686411 13.065741,-0.964816 2.563296,1.371834 2.52415,6.120997 -0.0698,8.468492 -1.655908,1.498576 -2.437669,1.616088 -4.5,0.676427 C 74.410513,29.774289 74.049166,26 77,26 c 1.111111,0 2,0.666667 2,1.5 0,0.825 0.675,1.5 1.5,1.5 1.79439,0 1.988837,-3.111163 0.3,-4.8 C 78.715543,22.115543 73.996731,22.889831 68.406271,26.233631 65.432822,28.012129 63,29.82812 63,30.269169 c 0,1.920629 9.726149,5.013575 16.101445,5.12031 6.276605,0.105083 6.803368,-0.07188 10.70494,-3.596167 6.048231,-5.463369 11.738985,-8.101183 15.823985,-7.334832 2.12499,0.39865 3.36963,1.211404 3.36963,2.200377 0,1.290801 0.79216,1.449439 4.47786,0.896735 5.45184,-0.817555 14.40398,1.489527 22.23239,5.729575 5.80421,3.143696 8.74929,7.194756 6.32137,8.695289 -1.04576,0.646316 -0.64574,1.485101 1.75422,3.678387 2.68618,2.454863 3.20279,3.758912 3.79961,9.591157 0.58013,5.669132 0.98888,6.75 2.55264,6.75 2.24126,0 2.28955,-1.018963 0.35109,-7.408931 -1.95406,-6.441349 -1.94107,-6.505833 1.26082,-6.260747 2.2064,0.168886 2.76955,0.721281 2.84891,2.794496 0.1365,3.565894 1.26,10.343926 2.06024,12.429314 0.57671,1.502883 0.206,1.643152 -2.83487,1.072681 l -3.49834,-0.656292 -0.10839,7.264739 c -0.11781,7.8965 -0.25873,8.796954 -2.62228,16.755879 -0.87366,2.941943 -1.396,5.541468 -1.16074,5.776722 0.23525,0.235254 1.56277,-1.753775 2.95004,-4.420063 3.0348,-5.832796 3.27567,-4.647344 0.72252,3.555938 -1.0411,3.345059 -1.55739,5.874566 -1.14732,5.621127 0.41007,-0.253438 1.59938,0.191237 2.64291,0.988167 2.47139,1.88737 0.51726,3.35502 -3.79811,2.85257 -2.14713,-0.24999 -4.09418,0.45604 -6.66857,2.41812 -5.74811,4.38095 -10.84577,6.27141 -20.06356,7.44054 -7.61961,0.96642 -8.96615,1.45898 -12.1146,4.4315 -4.12881,3.89811 -4.55084,4.00862 -5.24028,1.3722 -0.36619,-1.40031 -1.70465,-2.16217 -4.616629,-2.62781 C 94.2266,114.62071 93.938547,113.60026 98,111.5 c 1.65,-0.85325 3,-1.75325 3,-2 0,-0.24675 -1.405943,-1.17568 -3.124318,-2.06429 -4.623744,-2.39103 -5.560873,-0.74771 -6.232936,10.92987 -0.489165,8.4996 -1.020336,10.7662 -3.836268,16.37004 -3.270576,6.5086 -9.768593,13.12018 -16.306478,16.59146 l -3,1.59284 3.5,0.19758 c 1.925,0.10866 4.175,0.14327 5,0.0769 2.475209,-0.19911 13.759744,3.81118 15.029542,5.3412 2.950936,3.55566 10.654958,4.99899 8.556098,1.60296 -0.778625,-1.25983 -6.200867,-3.85671 -9.026057,-4.32285 -1.667735,-0.27516 -1.281284,-1.0623 2.75,-5.60131 C 96.889312,147.30976 99,144.49826 99,143.96662 99,143.43498 99.675,143 100.5,143 c 0.9134,0 1.5,0.93126 1.5,2.38131 0,1.53753 1.21654,3.30921 3.43328,5 3.98417,3.03887 5.53382,3.20418 9.72408,1.03731 5.52823,-2.85875 10.35605,0.32291 9.65429,6.36243 -0.42989,3.69975 -5.35245,5.56743 -7.37687,2.79887 C 115.6725,158.16986 116.43937,157 119.78152,157 h 2.66349 l -2.27433,-1.593 c -2.13213,-1.49341 -2.62003,-1.4181 -7.80325,1.20437 -6.44128,3.25899 -6.31104,3.49836 4.63257,8.51489 3.575,1.63877 7.58306,3.51827 8.9068,4.17666 1.32373,0.65839 5.14873,1.17876 8.5,1.15638 7.30626,-0.0488 12.32103,-2.8638 15.65478,-8.78766 1.96554,-3.49264 2.04298,-4.22655 0.88308,-8.36928 -1.02366,-3.65618 -1.91522,-4.80994 -4.5759,-5.92164 -4.65998,-1.94707 -7.01633,-1.72197 -8.81206,0.84179 -2.02138,2.88593 -2.00755,7.3905 0.0251,8.1705 2.37777,0.91244 2.60509,0.77117 1.97146,-1.22523 -0.68547,-2.15972 3.00249,-6.04754 4.35798,-4.59415 1.97426,2.11683 2.09296,5.19962 0.28613,7.43097 -1.54101,1.90307 -2.44234,2.17202 -5.41196,1.61492 -9.28724,-1.7423 -6.15085,-15.95605 3.81581,-17.29286 3.67963,-0.49354 4.40823,-0.21135 7.26149,2.81238 1.74431,1.84853 3.67925,5.02924 4.29988,7.06825 1.01378,3.33069 0.83427,4.29572 -1.76709,9.5 -2.06277,4.12677 -4.18965,6.65549 -7.39549,8.79271 -4,2.66667 -5.33333,3 -12,3 -10.43609,0 -18.03478,-2.76787 -27.45339,-10.00007 C 103.14096,161.65273 102,161.59225 102,163.31194 c 0,0.72157 1.35,2.31004 3,3.52994 4.00262,2.95926 3.75217,5.09582 -0.99061,8.45088 C 99.698917,178.34199 98.5,178.65911 98.5,176.75 c 0,-0.6875 -1.8,-2.22809 -4,-3.42354 -3.643263,-1.97969 -4.207625,-2.03996 -6.328044,-0.67581 -4.857082,3.12476 -15.283289,6.34901 -20.444785,6.32245 -4.213589,-0.0217 -5.849936,-0.55493 -8.43885,-2.75 z M 78,174.75979 c 1.925,-0.58476 4.874222,-2.10601 6.553827,-3.38056 1.679604,-1.27454 4.717104,-3.01231 6.75,-3.86171 4.542,-1.89777 4.630637,-2.85298 0.446173,-4.8083 -8.322981,-3.88915 -11.743794,-4.89907 -18.25,-5.38788 -6.222242,-0.46748 -7.387412,-0.26111 -10.486798,1.85731 -4.849053,3.31432 -5.958123,6.91127 -3.524409,11.4304 3.248737,6.03254 8.465619,7.20231 18.511207,4.15074 z M 69.266655,167.975 C 65.907624,166.62403 67.452558,164 71.606989,164 c 3.432297,0 3.884711,0.55507 2.786022,3.41821 -0.675517,1.76037 -1.823706,1.88508 -5.126356,0.55679 z M 104,172.06809 c 0,-1.89258 -5.904167,-5.2211 -7.588877,-4.27829 -1.361312,0.76183 -1.086141,1.23351 1.735528,2.97494 C 101.81732,173.03015 104,173.51616 104,172.06809 Z m 2.33552,-14.73694 C 107.12891,156.53776 104.13792,153 102.67375,153 c -0.55895,0 -1.84983,-0.75437 -2.868638,-1.67637 -1.336087,-1.20914 -2.155956,-1.37279 -2.941608,-0.58713 -1.499914,1.49991 -0.360289,2.9903 3.962876,5.18261 4.35268,2.20728 4.6402,2.28097 5.50914,1.41204 z M 84.329557,134.76558 c 0.550854,-2.18576 0.519876,-2.19719 -0.879294,-0.32445 -1.606165,2.1498 -1.939527,3.97929 -0.57097,3.13347 0.483612,-0.29889 1.13623,-1.56295 1.450264,-2.80902 z M 80.662281,130.75 c -0.277413,-0.6875 -0.504386,-0.125 -0.504386,1.25 0,1.375 0.226973,1.9375 0.504386,1.25 0.277412,-0.6875 0.277412,-1.8125 0,-2.5 z m -4.657155,-13.72036 c -2.33815,-9.36092 -3.396651,-12.57294 -4.630162,-14.0502 -0.698315,-0.83631 -1.645521,-2.41131 -2.104903,-3.500003 -1.749209,-4.145461 -4.819648,-8.467043 -6.020061,-8.473114 -1.549083,-0.0078 -1.657845,3.623581 -0.136685,4.56371 4.283877,2.647581 6.773862,18.687177 3.468065,22.340047 C 64.353554,120.3718 64.596732,121 67.777494,121 c 3.874537,0 6.812501,2.34642 7.780738,6.21412 l 0.822582,3.28588 0.377858,-4.47036 c 0.207822,-2.45869 -0.131274,-6.50869 -0.753546,-9 z m 6.423849,5.69253 C 82.996386,118.18076 82.565528,112.2425 80.526392,96.5 80.312666,94.85 80.101805,91.925 80.057811,90 l -0.07999,-3.5 -2.561388,3.25 C 76.007669,91.5375 74.54389,93 74.16359,93 73.78329,93 72.359675,91.2 71,89 69.640325,86.8 68.184095,85 67.763932,85 67.343769,85 67,83.944744 67,82.654988 67,81.365231 66.109382,79.503977 65.020849,78.518868 61.744748,75.554037 61.281023,79.190817 64.411788,83.29546 65.835304,85.161787 67,87.026839 67,87.44002 c 0,0.413182 0.993553,2.146555 2.207895,3.851942 5.707365,8.015254 11.221232,24.213588 11.052614,32.469758 -0.135949,6.65662 1.292448,5.97186 2.168466,-1.03955 z M 64.509113,110.2122 C 63.84444,105.77985 59.786538,98 58.13933,98 c -0.45957,0 -1.615337,1.729189 -2.568372,3.84264 -3.241535,7.18844 0.72579,14.44305 7.272427,13.29828 2.176512,-0.3806 2.295129,-0.73157 1.665728,-4.92872 z m 63.373747,-2.32121 c 4.67194,-1.62865 8.62601,-6.09328 10.51718,-11.875202 1.88219,-5.75444 1.44572,-7.560924 -1.39774,-5.785153 -2.92188,1.824744 -7.16798,-0.149633 -9.4542,-4.396071 -1.59244,-2.957794 -1.7766,-4.321354 -1,-7.404071 1.23393,-4.898105 2.5492,-5.212729 4.97504,-1.190071 1.88235,3.121427 1.97997,3.160192 2.30325,0.914633 0.18568,-1.28972 -0.20987,-3.666649 -0.879,-5.282065 -1.64981,-3.982985 -0.57627,-4.654605 2.36579,-1.480071 1.91583,2.067217 2.45095,3.786656 2.55275,8.202511 0.14504,6.291443 0.95748,8.471506 2.27782,6.112193 0.5045,-0.901497 0.45132,-2.642471 -0.1272,-4.164093 -0.78911,-2.075506 -0.67321,-2.738051 0.56185,-3.21199 2.54357,-0.976057 3.27543,0.866716 2.44669,6.160581 -0.42983,2.745667 -0.47157,5.829972 -0.0927,6.854013 1.27835,3.455704 3.06746,-5.530109 3.1801,-15.972047 C 146.21541,65.829019 145.07212,60 143.097,60 c -1.21134,0 -0.19082,11.038384 1.181,12.774166 1.57751,1.996035 0.33282,2.341969 -2.15551,0.599078 -1.34779,-0.944032 -2.02382,-2.188003 -1.67832,-3.088339 0.40139,-1.046015 0.11744,-1.330657 -0.92743,-0.929701 -0.86621,0.332394 -3.63764,-1.000937 -6.52395,-3.13866 -3.20626,-2.37469 -4.47188,-3.83328 -3.5054,-4.039868 2.02351,-0.43253 1.87457,-2.782179 -0.50935,-8.03588 -2.78514,-6.137894 -2.49285,-6.770835 1.66298,-3.601035 l 3.64101,2.777138 -0.70392,-3.908449 c -0.38716,-2.149648 -1.28513,-4.360177 -1.9955,-4.912288 -0.71037,-0.552112 -1.62027,-2.039472 -2.02202,-3.305245 C 128.78513,38.74763 121.62024,33 119.34996,33 118.60748,33 118,32.325 118,31.5 c 0,-0.825 -0.45,-1.5 -1,-1.5 -0.55,0 -1,0.444695 -1,0.98821 0,0.543516 -0.7875,0.881016 -1.75,0.75 -0.9625,-0.131015 -1.8625,0.21179 -2,0.76179 -0.1375,0.55 0.0875,1.038865 0.5,1.086367 0.4125,0.0475 1.5375,0.385001 2.5,0.75 0.9625,0.364998 2.44222,0.881118 3.28827,1.146933 2.00134,0.628791 6.471,10.285451 5.7357,12.391932 -0.31194,0.893622 -1.64031,2.789134 -2.95195,4.212248 -2.01151,2.182468 -2.96189,2.493675 -6.07169,1.988192 C 108.15591,52.922506 106.71222,44.5 113.60899,44.5 c 2.23674,0 2.96333,0.509204 3.21056,2.25 0.21493,1.513375 -0.1943,2.25 -1.25,2.25 C 114.7063,49 114,49.47989 114,50.066422 c 0,0.586533 1.22922,0.924033 2.73159,0.75 1.89297,-0.219276 3.01161,-1.117592 3.64366,-2.92599 1.91546,-5.480476 -1.61338,-11.309381 -7.44965,-12.305254 -3.02414,-0.516024 -3.76435,-0.261636 -4.80827,1.652452 -1.95423,3.583186 -8.45742,7.090227 -13.316932,7.181552 L 90.5,44.5 90,52.5 c -0.275,4.4 -0.347876,10.840201 -0.161948,14.311558 0.296555,5.536776 0.634134,6.446462 2.75,7.410515 2.938435,1.338841 3.056548,2.884597 0.403852,5.285253 -1.899962,1.719443 -1.916099,1.918956 -0.299672,3.705088 1.423504,1.572954 1.518757,2.390265 0.571156,4.900747 -0.974081,2.580635 -0.859336,3.290891 0.799673,4.9499 C 96.512982,95.512982 96.503823,95.612529 93.5,99.182369 90.647681,102.57216 90.347097,104 92.485812,104 c 0.817196,0 2.676995,-1.8 4.132886,-4 1.455891,-2.2 2.907974,-4 3.226852,-4 0.31888,0 4.38885,1.886924 9.04438,4.19316 9.69667,4.8035 14.48431,5.29784 17.32566,1.78892 2.1371,-2.639205 2.29239,-5.315605 0.39956,-6.886511 -1.10481,-0.916917 -1.51309,-0.638362 -2.01905,1.377555 C 124.24729,97.862906 123.35057,99 122.60339,99 120.35101,99 118.72911,96.215466 119.40738,93.512986 119.92879,91.435558 120.63698,91 123.49337,91 c 2.81485,0 3.73805,0.546833 4.98095,2.95034 2.09877,4.058565 1.91447,6.48746 -0.72432,9.54625 -4.67177,5.41533 -13.71691,4.87159 -25.95364,-1.56018 -0.937,-0.4925 -1.931831,-0.52623 -2.210732,-0.075 -0.646218,1.0456 4.833142,5.12733 8.284202,6.17113 3.97372,1.20188 16.41157,1.11389 20.01303,-0.14159 z M 74.802137,83.690189 C 72.476764,80.04826 71,79.054637 71,81.131966 c 0,2.222446 4.240734,8.0273 5.178937,7.089097 0.567116,-0.567116 0.03412,-2.321129 -1.3768,-4.530874 z M 50.919904,82.887516 C 49.789053,81.299382 48.444454,80 47.931906,80 c -1.259146,0 -1.195875,0.378598 0.742624,4.443671 1.294655,2.71492 1.972495,3.264235 2.987998,2.421443 1.066296,-0.884948 0.926547,-1.633464 -0.742624,-3.977598 z M 134,84.5 c 0,-1.925 -0.1882,-3.5 -0.41821,-3.5 -0.23002,0 -1.07195,-0.250862 -1.87096,-0.557471 -1.95257,-0.749269 -2.87642,1.991748 -1.70753,5.066155 C 131.46272,89.347238 134,88.70688 134,84.5 Z m 4.49261,-19.75 c -0.15035,-1.7875 -0.35712,-3.25 -0.45949,-3.25 -0.10238,0 -0.34553,-0.846314 -0.54033,-1.880699 -0.41856,-2.222507 -2.21398,-4.23144 -3.04185,-3.403576 -0.49511,0.495114 0.63975,6.278683 2.06705,10.534275 0.85376,2.545544 2.23894,1.142562 1.97462,-2 z m 4.47195,-9 C 142.94508,55.0625 142.28602,53.375 141.5,52 c -1.49843,-2.621225 -1.93728,-1.2336 -0.86971,2.75 0.6365,2.375108 2.39461,3.128277 2.33427,1 z m -3.3486,-11.308413 C 139.3117,43.648714 138.63774,43 138.11825,43 c -0.54573,0 -0.45343,1.310222 0.21861,3.103203 0.78369,2.090833 1.27229,2.561127 1.49771,1.441586 0.18402,-0.913888 0.0856,-2.31033 -0.21861,-3.103202 z M 58.440416,42.096408 C 58.968768,41.241518 53.082228,35.143936 46.5,29.727911 42.505973,26.441524 35.966148,23 33.715149,23 c -2.958707,0 -7.186055,2.642861 -8.673771,5.422685 -1.238448,2.314061 -1.152581,3.064492 0.797419,6.968988 2.95367,5.914152 6.131705,7.179515 14.381882,5.726275 3.448337,-0.607413 7.491146,-2.007438 8.98402,-3.111167 3.321212,-2.455478 4.211817,-2.534587 3.353511,-0.297877 -0.434394,1.132011 0.120255,2.306038 1.643011,3.477764 2.617209,2.013885 3.44677,2.191911 4.239195,0.90974 z M 34.174834,35.409905 c -1.800895,-1.261396 -2.028296,-1.881546 -1.100062,-3 1.477391,-1.780147 3.029571,-1.785311 5.446352,-0.01812 1.61719,1.182519 1.702697,1.633599 0.568684,3 -1.656672,1.996168 -2.088639,1.99776 -4.914974,0.01812 z m 61.009045,4.085869 C 95.81143,38.11845 95.98999,36.656657 95.58068,36.247346 94.717798,35.384465 92,38.757374 92,40.69113 c 0,2.199375 1.97498,1.457888 3.183879,-1.195356 z M 137,40.292163 C 137,38.733952 129.47302,32 127.73131,32 c -1.02454,0 -2.75816,-0.479184 -3.85249,-1.064854 -1.09433,-0.585669 -2.52725,-0.860898 -3.18426,-0.61162 -0.65701,0.249278 0.38044,1.140924 2.30544,1.981435 1.925,0.840512 5.3,3.122009 7.5,5.069994 3.74017,3.311723 6.5,4.550339 6.5,2.917208 z m -35.60699,-1.87395 C 102.32857,35.980177 102.11241,33 101,33 c -0.55,0 -1.006145,0.5625 -1.013655,1.25 -0.0075,0.6875 -0.284994,2.2625 -0.616631,3.5 -0.680026,2.537508 1.082596,3.119632 2.023296,0.668213 z M 107,35.073324 c 0,-0.509672 0.7875,-1.155262 1.75,-1.434645 1.05349,-0.305793 0.78616,-0.434479 -0.67167,-0.323324 C 105.73904,33.493719 103.72099,36 105.91667,36 106.5125,36 107,35.582996 107,35.073324 Z m -6.57003,-5.186631 C 99.747499,28.782428 96,28.709091 96,29.8 c 0,0.44 0.529293,1.329293 1.176206,1.976206 1.334942,1.334942 4.213474,-0.336669 3.253764,-1.889513 z M 62.8,27.8 c 1.586992,-1.586992 1.531091,-2.864282 -0.098,-2.239142 -0.713899,0.273949 -2.36734,-0.640175 -3.674314,-2.031385 C 56.452693,20.788516 55,20.307304 55,22.195281 55,23.430293 59.900473,29 60.987091,29 61.324191,29 62.14,28.46 62.8,27.8 Z m 43.2,0.306989 c 0,-1.22681 -2.81728,-2.211647 -3.44079,-1.202795 -0.27766,0.449265 -0.21707,1.104612 0.13464,1.456326 C 103.64687,29.313535 106,29.133085 106,28.106989 Z M 152.58396,79.5 c 0.65861,-4.941123 3.11069,-10.5 4.63165,-10.5 1.25279,0 0.90815,1.652401 -0.6069,2.909777 -0.76521,0.635067 -1.67834,3.052667 -2.02918,5.372445 -0.96179,6.359428 -2.82339,8.428316 -1.99557,2.217778 z"
       id="path50" />
  </g>
</svg>
