<?xml version="1.0" encoding="UTF-8" standalone="no"?>
<!-- Created with Inkscape (http://www.inkscape.org/) -->

<svg
   version="1.1"
   id="svg2"
   width="318"
   height="392"
   viewBox="0 0 318 392"
   sodipodi:docname="1.png"
   inkscape:version="1.1.2 (0a00cf5339, 2022-02-04)"
   xmlns:inkscape="http://www.inkscape.org/namespaces/inkscape"
   xmlns:sodipodi="http://sodipodi.sourceforge.net/DTD/sodipodi-0.dtd"
   xmlns="http://www.w3.org/2000/svg"
   xmlns:svg="http://www.w3.org/2000/svg">
  <defs
     id="defs6" />
  <sodipodi:namedview
     id="namedview4"
     pagecolor="#505050"
     bordercolor="#eeeeee"
     borderopacity="1"
     inkscape:pageshadow="0"
     inkscape:pageopacity="0"
     inkscape:pagecheckerboard="0"
     showgrid="false"
     inkscape:zoom="1.9107143"
     inkscape:cx="159.1028"
     inkscape:cy="196"
     inkscape:window-width="1920"
     inkscape:window-height="1043"
     inkscape:window-x="0"
     inkscape:window-y="0"
     inkscape:window-maximized="1"
     inkscape:current-layer="g8" />
  <g
     inkscape:groupmode="layer"
     inkscape:label="Image"
     id="g8">
    <path
       style="fill:#000000"
       d="m 225.63205,391.2953 c -0.1936,-0.19042 -15.26774,-0.6683 -57.13205,-1.8112 -9.35,-0.25526 -30.05,-0.69946 -46,-0.98713 -15.95,-0.28766 -34.175,-0.71345 -40.5,-0.94621 -6.325,-0.23276 -22.26565,-0.74506 -35.423667,-1.13845 -13.158017,-0.39339 -25.034532,-0.7596 -26.392255,-0.81379 -2.782416,-0.11105 -4.791428,-2.57341 -3.930371,-4.81729 0.465764,-1.21376 1.470406,-1.32538 5.409148,-0.60097 13.542172,2.49065 34.398985,3.31866 108.837145,4.32082 21.45,0.28877 45.3,0.72165 53,0.96194 7.7,0.24029 23.225,0.68136 34.5,0.98017 44.46753,1.17844 62.52544,1.78672 63.09153,2.12524 0.32534,0.19454 8.76284,0.42034 18.75,0.50177 15.52632,0.12658 18.15847,0.36867 18.15847,1.6701 0,1.34624 -5.32287,1.47803 -46.07991,1.14088 -25.34396,-0.20965 -46.17357,-0.4733 -46.28804,-0.58588 z M 190.5,379.9518 c -5.5,-0.4165 -10.32985,-0.55422 -10.73299,-0.30604 -0.40314,0.24819 -2.37524,0.14316 -4.38243,-0.23339 -2.31211,-0.43376 -3.14285,-0.93813 -2.26701,-1.3764 2.05836,-1.02998 25.93751,0.61911 27.1966,1.8782 0.59721,0.59721 0.88333,1.02037 0.63583,0.94037 -0.2475,-0.08 -4.95,-0.48623 -10.45,-0.90274 z M 242,380 c 0,-0.55 0.42344,-1 0.94098,-1 0.51754,0 1.2191,0.45 1.55902,1 0.33992,0.55 -0.0835,1 -0.94098,1 C 242.70156,381 242,380.55 242,380 Z m -17,-3.11573 c -4.675,-1.63083 -10.6375,-3.43425 -13.25,-4.00758 -2.6125,-0.57333 -4.75,-1.50327 -4.75,-2.06654 0,-0.56327 0.59508,-0.79577 1.3224,-0.51668 1.65512,0.63513 28.48681,7.70653 29.24162,7.70653 0.30471,0 0.2759,0.45 -0.064,1 -0.93439,1.51188 -3.20055,1.12832 -12.5,-2.11573 z m 58.75,0.45345 c 0.6875,-0.27741 1.8125,-0.27741 2.5,0 0.6875,0.27741 0.125,0.50439 -1.25,0.50439 -1.375,0 -1.9375,-0.22698 -1.25,-0.50439 z M 293.5,377 c 1.65,-0.41985 6.15,-0.76337 10,-0.76337 5.17339,0 6.21717,0.1992 4,0.76337 -1.65,0.41985 -6.15,0.76337 -10,0.76337 -5.17339,0 -6.21717,-0.1992 -4,-0.76337 z M 102.28361,375.52326 C 99.19542,374.18055 84.295854,372.47414 77,372.62759 c -1.925,0.0405 -9.35,0.6184 -16.5,1.28424 -15.507586,1.44414 -20.178399,1.40041 -22.185534,-0.20773 -4.893362,-3.92061 -6.013405,-6.00092 -8.28038,-15.37954 -1.306121,-5.40351 -2.973113,-10.18442 -3.704426,-10.62425 -0.731313,-0.43983 -1.344351,-2.01483 -1.362306,-3.5 C 24.949399,342.71514 24.06409,339.025 23,336 c -2.471472,-7.02592 -2.462338,-7.5579 0.227511,-13.25 1.797422,-3.8036 2.745527,-4.75219 4.75857,-4.76101 4.328633,-0.019 9.995128,-1.21038 9.507687,-1.99907 -0.256585,-0.41517 0.377464,-1.82779 1.408997,-3.13918 1.031534,-1.31138 2.562306,-4.02805 3.401717,-6.03704 0.839411,-2.009 2.464298,-4.15477 3.61086,-4.76839 C 47.061904,301.43169 48,301.12384 48,301.3612 c 0,1.53693 -6.173582,15.19666 -6.991409,15.46927 C 40.453866,317.01538 40,317.77761 40,318.52432 c 0,2.08106 -1.869313,2.79568 -6.902402,2.63869 -7.307342,-0.22792 -7.621293,0.34308 -5.109793,9.29353 1.192513,4.24986 2.295906,8.69822 2.451985,9.88524 0.374073,2.84492 1.697999,7.91594 2.375643,9.0994 0.296404,0.51765 0.670115,3.37179 0.830468,6.34252 0.382348,7.08346 2.152388,11.77039 5.02592,13.30826 1.278841,0.68441 2.568637,1.00091 2.866214,0.70334 0.297577,-0.29758 -0.203223,-3.21804 -1.112887,-6.48993 l -1.653935,-5.94887 3.114394,-7.09587 c 3.473177,-7.91331 3.797262,-9.9632 1.650128,-10.43731 -1.147095,-0.25329 -0.943017,-0.97314 0.94216,-3.32332 1.323533,-1.65 3.303274,-4.125 4.399424,-5.5 1.947016,-2.44232 2.026241,-2.45523 3.433757,-0.55945 1.232948,1.66065 3.225555,2.04319 13.814841,2.65218 6.805746,0.39139 12.523042,0.56919 12.705103,0.39509 0.182061,-0.17409 -0.176248,-1.26437 -0.796244,-2.42284 -0.619995,-1.15847 -0.857786,-2.54234 -0.528423,-3.07526 0.526429,-0.85178 -3.437748,-14.05086 -6.303999,-20.98972 -0.567974,-1.375 -2.694744,-7.9 -4.726156,-14.5 -2.031412,-6.6 -4.022552,-12.35546 -4.424756,-12.78992 -1.131777,-1.22253 -4.590107,2.29261 -7.459169,7.58169 -2.238607,4.12685 -2.550607,5.75732 -2.248429,11.75 0.351095,6.96281 -0.66801,9.3847 -1.770779,4.20823 -1.252696,-5.88025 -0.920022,-12.81094 0.785166,-16.35758 3.613077,-7.51489 10.221352,-11.91284 13.289643,-8.84455 1.026859,1.02686 2.863329,0.55455 9.100619,-2.34056 1.236672,-0.57401 2.563938,-0.72821 2.94948,-0.34267 0.385543,0.38554 1.00763,6.08804 1.382415,12.67221 0.374786,6.58418 1.122971,12.53191 1.662633,13.21719 1.045603,1.32773 2.185285,5.342 2.908915,10.24596 0.243474,1.65 0.605513,3.49278 0.80453,4.09506 0.200713,0.60741 4.298812,1.4111 9.202692,1.80477 4.862463,0.39034 11.090842,0.9014 13.840842,1.13569 2.75,0.23429 8.49565,1.1765 12.7681,2.0938 4.27246,0.91729 8.01061,1.4253 8.30701,1.1289 0.2964,-0.29639 0.15644,-2.01487 -0.31101,-3.81884 -0.5611,-2.16535 -1.51498,-3.35212 -2.80701,-3.49233 -1.0764,-0.11682 -5.10709,-0.68777 -8.95709,-1.26879 -3.85,-0.58102 -12.175,-1.33717 -18.5,-1.68034 -6.325,-0.34317 -11.933458,-1.05154 -12.463239,-1.57417 -1.153329,-1.13775 26.253979,-0.21623 34.382559,1.15605 2.98062,0.50319 5.6406,0.69361 5.91106,0.42316 0.68734,-0.68734 -1.98841,-11.4826 -3.00127,-12.10858 C 121.3731,299.11255 121,298.06101 121,297.05761 c 0,-2.00408 2.77907,-3.08901 7.5,-2.92795 1.98361,0.0677 2.32241,0.25228 1,0.54489 -4.71109,1.04244 -4.87464,1.24439 -2.91265,3.5963 1.02277,1.22603 1.21902,1.66665 0.43612,0.97915 -3.71812,-3.26502 -3.99985,-0.16209 -0.53552,5.89793 1.36838,2.39364 2.49338,5.75832 2.5,7.47707 0.0206,5.35202 1.22876,9.52636 2.90424,10.03479 3.83398,1.16342 13.10781,5.77923 13.10781,6.52408 0,1.27281 -1.14684,0.98696 -6.07708,-1.51471 C 131.3897,323.8467 131,323.78296 131,326.3731 c 0,1.8054 0.82377,2.55713 3.7692,3.4396 4.35621,1.30516 8.02321,3.72822 7.07587,4.67557 -0.35849,0.35848 -2.57981,-0.27972 -4.93626,-1.41824 -5.2314,-2.52754 -5.18844,-2.52642 -4.42301,-0.11476 2.82523,8.90149 2.04612,19.4886 -1.95093,26.51103 -1.26276,2.21854 -2.54524,5.71406 -2.84995,7.76784 -0.51169,3.44877 -0.31067,3.84356 2.63052,5.16596 4.57566,2.05729 9.39458,2.50249 15.68456,1.44903 3.025,-0.50663 11.16029,-0.89669 18.07841,-0.8668 11.10543,0.048 12.7787,-0.16696 14.28873,-1.83552 1.64565,-1.81842 1.54088,-1.93254 -2.77123,-3.01834 -2.46485,-0.62066 -6.86978,-1.13144 -9.78873,-1.13506 -3.70353,-0.005 -6.21368,-0.62689 -8.30718,-2.05943 -1.65,-1.12906 -3.99473,-2.4582 -5.2105,-2.95364 -1.53202,-0.62432 -2.68853,-2.54513 -3.76789,-6.258 -1.5177,-5.22073 -1.49607,-5.47249 0.84912,-9.88319 1.32357,-2.48929 3.58162,-6.38751 5.01788,-8.6627 1.43626,-2.27519 2.60898,-4.48315 2.60604,-4.90658 -0.007,-1.0328 -9.84318,-8.14236 -15.68088,-11.3343 -2.57953,-1.41044 -4.88726,-3.15605 -5.12829,-3.87913 -0.63786,-1.91359 11.44405,5.07928 17.49251,10.12446 5.73999,4.78789 5.80227,5.23183 1.80404,12.86093 -3.78853,7.22899 -4.86155,13.50712 -2.88145,16.85914 1.62951,2.75856 6.98704,6.27585 10.2098,6.70288 3.76834,0.49933 14.79785,2.50463 16.34724,2.97213 2.52328,0.76135 2.93922,3.08286 0.98479,5.49648 -1.63816,2.02304 -3.24513,2.26191 -23.69986,3.52287 -12.0684,0.74397 -22.83385,1.0761 -23.92321,0.73807 -1.08936,-0.33802 -3.26143,-1.56151 -4.82682,-2.71885 -2.61658,-1.93452 -2.79239,-2.46293 -2.17941,-6.55056 0.36672,-2.44547 1.57063,-6.72278 2.67535,-9.50515 2.44175,-6.1498 2.95968,-8.71995 2.93389,-14.55884 -0.019,-4.29172 -1.78109,-18.11798 -2.35115,-18.44788 -1.46189,-0.84599 -19.21558,-3.57678 -26.2712,-4.04091 -4.95,-0.32562 -11.172119,-0.84584 -13.826931,-1.15604 l -4.826932,-0.56401 0.620918,4.85442 c 0.341505,2.66993 0.833559,6.24786 1.093453,7.95095 l 0.472534,3.09652 13.233479,0.61433 C 112.49097,335.92129 126,338.42412 126,340.26032 c 0,0.54929 -0.97972,0.66876 -2.25,0.27438 -5.8596,-1.81925 -47.273563,-5.4506 -66.647383,-5.84392 -7.289747,-0.14799 -9.506494,0.12358 -9.883881,1.21086 -0.351578,1.01293 0.105287,1.24689 1.647383,0.84362 C 50.297623,336.37092 51,336.65016 51,337.59362 c 0,0.97892 1.291757,1.42377 4.25,1.46361 2.3375,0.0315 6.95,0.23218 10.25,0.44601 3.3,0.21382 10.65175,0.6429 16.337222,0.9535 5.685472,0.3106 13.110472,1.19271 16.5,1.96024 3.389528,0.76754 11.112778,2.3817 17.162778,3.58704 13.47348,2.6843 13.5,2.69209 13.5,3.9646 0,1.45203 -3.03925,1.28164 -7.93225,-0.44472 -3.86335,-1.36307 -10.22623,-2.42097 -27.06775,-4.50032 -3.575,-0.44139 -9.2,-1.28126 -12.5,-1.86638 -3.3,-0.58512 -12.362906,-1.29881 -20.139792,-1.58597 -13.976547,-0.51608 -14.146679,-0.49641 -14.736345,1.70333 -0.882167,3.29092 -0.888821,3.28199 2.626137,3.52119 1.7875,0.12164 5.5,0.65723 8.25,1.1902 2.75,0.53297 9.5,1.43932 15,2.01413 11.297619,1.1807 27.076645,4.72458 21.799221,4.89597 -1.760428,0.0572 -5.360428,-0.33816 -8,-0.87852 C 83.659649,353.47717 76.775,352.51789 71,351.8858 c -18.992547,-2.07878 -22.481636,-2.55286 -24.10708,-3.27556 -2.199654,-0.978 -4.215182,4.06736 -3.847702,9.63173 0.154665,2.34192 0.28226,6.66045 0.283547,9.59675 l 0.0023,5.33872 4.084449,-0.54389 c 18.473387,-2.45992 27.09912,-2.83857 39.055415,-1.71442 12.82041,1.20538 19.618701,2.84988 20.306081,4.91201 0.49863,1.4959 -0.50261,1.4273 -4.49344,-0.30788 z M 81.068863,319.7278 C 79.906931,313.55251 78.291101,305.51061 77.478129,301.85692 76.665158,298.20322 76,291.29194 76,286.49851 v -8.71533 l -2.694627,0.67631 c -1.482045,0.37197 -4.205027,1.3074 -6.051072,2.07872 -2.74024,1.14495 -3.188736,1.72915 -2.44294,3.1821 0.502427,0.97883 2.301826,5.82969 3.998664,10.77969 1.696837,4.95 4.683743,13.46955 6.637567,18.93234 C 77.401416,318.89513 79,324.00212 79,324.78121 c 0,2.20411 3.338965,8.70189 3.784594,7.36501 0.21828,-0.65484 -0.553799,-6.24313 -1.715731,-12.41842 z M 314.5,376 c -0.33992,-0.55 0.30852,-1 1.44098,-1 1.13246,0 2.05902,0.45 2.05902,1 0,0.55 -0.64844,1 -1.44098,1 -0.79254,0 -1.7191,-0.45 -2.05902,-1 z M 228,368.79517 c -10.725,-2.60096 -20.85,-5.16995 -22.5,-5.70886 -1.65,-0.53891 -7.95,-1.68591 -14,-2.54889 -14.00073,-1.9971 -16.5,-2.52055 -16.5,-3.4558 0,-1.4992 26.45419,2.89519 44.39842,7.37517 7.50013,1.87249 17.90373,4.20145 23.11909,5.17548 5.21537,0.97402 9.48249,2.07776 9.48249,2.45276 0,1.87449 -6.22168,1.02164 -24,-3.28986 z m -37.46959,1.05875 c -3.83327,-0.4912 -7.41077,-1.33428 -7.95,-1.87351 -1.30712,-1.30712 2.81133,-1.20805 13.08914,0.31485 14.86894,2.20318 10.42021,3.55244 -5.13914,1.55866 z M 291,368.05424 c 0,-1.62964 1.24045,-1.83331 14.75,-2.4219 13.50248,-0.58829 16.77932,0.69774 4.5,1.76606 -4.2625,0.37084 -10.3375,0.92144 -13.5,1.22355 -3.89605,0.37219 -5.75,0.18914 -5.75,-0.56771 z m -174,-2.60479 -2.5,-1.47969 2.92288,0.26512 c 1.60759,0.14582 3.10759,0.82762 3.33333,1.51512 0.53443,1.62756 -0.66005,1.53198 -3.75621,-0.30055 z M 90,362.44039 C 78.725,361.17428 63.7625,360.10723 56.75,360.06918 48.427033,360.02402 44,359.62956 44,358.93312 c 0,-0.7241 3.373608,-0.88475 10.5,-0.5 5.775,0.31178 15.3375,0.81146 21.25,1.11038 9.872333,0.49913 21.251115,1.5693 32,3.00958 2.3375,0.3132 4.25,0.99189 4.25,1.50819 0,0.5163 -0.3375,0.88077 -0.75,0.80994 -0.4125,-0.0708 -9.975,-1.1647 -21.25,-2.43082 z m 159.5,0.62225 c -1.1,-0.44582 -4.925,-1.12113 -8.5,-1.50068 -6.77968,-0.71979 -22.40471,-3.50887 -34.64102,-6.18347 -3.92756,-0.85848 -14.91614,-1.85733 -24.41907,-2.21968 -12.20495,-0.46537 -17.39667,-1.01679 -17.68205,-1.87801 -0.30213,-0.91179 1.31635,-1.08915 6.41907,-0.70343 22.89036,1.73033 32.5893,2.87121 47.32307,5.56659 9.075,1.66017 20.96349,3.54444 26.41886,4.18727 6.14748,0.72438 10.07645,1.64405 10.33333,2.41877 0.46445,1.4007 -2.17929,1.55807 -5.25219,0.31264 z m 49.5,-2.78426 c 0,-0.54641 2.76601,-1.28257 6.14669,-1.63592 C 313.87363,357.73031 318,357.84509 318,359 c 0,0.55 -2.18719,1 -4.86043,1 -2.67323,0 -6.94823,0.28617 -9.5,0.63592 C 300.80679,361.0242 299,360.88496 299,360.27838 Z m -183.5,-1.78499 c -3.3,-0.68654 -8.475,-1.73113 -11.5,-2.3213 l -5.5,-1.07305 7,0.52645 c 11.89049,0.89423 13.09772,1.0983 16.0932,2.72038 3.38644,1.83378 2.15545,1.86358 -6.0932,0.14752 z m 53.08928,-2.34893 c -0.29082,-0.47055 0.58263,-0.64309 1.94098,-0.38343 1.35836,0.25967 2.46974,0.64466 2.46974,0.85555 0,0.77375 -3.89864,0.35644 -4.41072,-0.47212 z M 252,353.3747 c -5.225,-0.78598 -10.84489,-1.88085 -12.48864,-2.43305 -1.64375,-0.55219 -8.61875,-1.4353 -15.5,-1.96245 -33.73134,-2.58406 -53.81826,-5.50564 -51.79106,-7.53283 0.26331,-0.26332 5.38396,0.16784 11.37923,0.95811 5.99526,0.79028 16.07547,1.96307 22.40047,2.60619 23.90728,2.43089 55.79273,7.16887 60.22562,8.94915 2.00919,0.8069 1.86628,0.90936 -1.22562,0.87867 -1.925,-0.0191 -7.775,-0.67781 -13,-1.46379 z m 14.5,-4.94167 c -29.29385,-6.65121 -51.0965,-10.05544 -71,-11.08581 -19.16066,-0.99192 -25.13563,-0.89451 -26.73867,0.4359 -1.04495,0.86723 -2.14754,0.66023 -4.67708,-0.87808 -1.8204,-1.10705 -3.07788,-2.24474 -2.79441,-2.52821 0.28347,-0.28348 1.43876,0.0612 2.5673,0.76603 5.49943,3.43445 1.41028,-4.4871 -5.20047,-10.07444 -1.58234,-1.33737 -3.3899,-2.92211 -4.01682,-3.52166 -0.62692,-0.59954 -6.42735,-5.04399 -12.88985,-9.87655 -6.4625,-4.83257 -11.75,-9.12499 -11.75,-9.53873 0,-0.41374 1.04892,-3.42877 2.33094,-6.70008 1.28201,-3.2713 2.62111,-8.06488 2.97576,-10.6524 0.6046,-4.41103 0.29326,-5.31526 -4.9898,-14.49179 -3.09905,-5.38296 -6.68815,-11.17969 -7.97577,-12.8816 -1.28762,-1.70192 -2.35324,-3.50192 -2.36803,-4 -0.0148,-0.49809 -1.2992,-2.43978 -2.85422,-4.31487 l -2.82733,-3.40927 -2.09146,6.90927 c -3.0555,10.09404 -4.14812,15.37298 -4.17564,20.17436 -0.0281,4.90906 -2.94805,16.2349 -4.18552,16.2349 -0.45824,0 -2.57651,1.575 -4.70725,3.5 -2.130745,1.925 -4.383672,3.5 -5.006505,3.5 -0.622833,0 -2.811629,0.9 -4.86399,2 -2.052362,1.1 -4.638231,1.98632 -5.746376,1.96959 -2.004376,-0.0302 -2.004515,-0.0364 -0.02685,-1.18285 1.093375,-0.63385 2.443375,-1.547 3,-2.02922 0.556625,-0.48222 3.439007,-2.31244 6.405292,-4.06714 2.966285,-1.75471 6.226406,-4.31538 7.244719,-5.69038 1.0766,-1.45371 2.92453,-7.9407 4.41545,-15.5 1.41019,-7.15 3.70054,-16.74771 5.08967,-21.32825 l 2.52568,-8.32825 -2.22986,-5.49402 c -1.22642,-3.0217 -3.17689,-6.08598 -4.33437,-6.8095 -2.54726,-1.59223 -8.207793,-2.71042 -15.604535,-3.08254 -3.025,-0.15219 -5.95,-0.42987 -6.5,-0.61707 -0.55,-0.1872 -1.036459,-0.11537 -1.08102,0.15963 -0.04456,0.275 -0.561149,1.4 -1.147972,2.5 -0.586823,1.1 -1.36492,11.31762 -1.729104,22.70583 l -0.662154,20.70583 3.242106,0.84011 c 1.783158,0.46206 3.44546,1.45018 3.694005,2.19581 0.337954,1.01386 -0.149194,1.16782 -1.93198,0.61057 -1.311135,-0.40982 -3.67545,-0.98707 -5.254035,-1.28277 l -2.870154,-0.53765 0.686587,-10.61886 C 77.227152,251.04177 76.690736,248.08814 74.126445,250.3453 73.2319,251.13271 68.675,254.34908 64,257.49279 c -4.675,3.14372 -9.649623,6.7939 -11.054719,8.11153 C 51.540186,266.92194 49.595317,268 48.623351,268 c -0.971966,0 -3.786186,1.1832 -6.253821,2.62933 -7.904832,4.63254 -19.25384,2.76005 -16.334369,-2.69503 0.526717,-0.98418 0.694585,-2.475 0.37304,-3.31293 -1.121049,-2.92141 4.385906,-8.26794 12.879022,-12.50384 C 43.80425,249.86468 49.75,246.66827 52.5,245.01438 c 2.75,-1.65389 6.125,-3.50713 7.5,-4.11832 1.375,-0.6112 3.322762,-1.53868 4.328361,-2.06107 1.941272,-1.00847 3.275809,-0.30181 7.37389,3.90456 C 73.920768,245.0167 77,245.79188 77,244.07324 77,243.56352 75.7625,242.52131 74.25,241.75721 70.053768,239.6373 67,237.5881 67,236.89216 c 0,-0.34471 2.475,-3.16178 5.5,-6.26014 3.025,-3.09837 5.5,-5.87392 5.5,-6.16789 C 78,223.34333 74.729054,219 73.88499,219 73.398246,219 73,219.83429 73,220.85398 c 0,1.01968 -1.056126,2.99355 -2.346947,4.38637 -2.228988,2.40512 -2.618508,2.48088 -7.75,1.50726 -6.431207,-1.22022 -9.276539,-3.54024 -11.508071,-9.38343 -2.040867,-5.34393 -1.238154,-11.83776 1.872592,-15.149 1.430249,-1.52243 2.403642,-4.24755 2.861556,-8.01123 0.381689,-3.13717 0.953386,-7.05395 1.270438,-8.70395 0.317052,-1.65 0.802669,-5.3987 1.079147,-8.33045 0.276479,-2.93174 0.736921,-5.70944 1.023204,-6.17266 0.286284,-0.46321 0.950675,-3.11043 1.476425,-5.8827 1.240631,-6.54182 7.171884,-15.20208 17.191181,-25.10095 4.29399,-4.24238 8.493519,-9.35588 9.332285,-11.36333 1.619814,-3.87676 2.40657,-4.34153 4.242107,-2.50599 2.313034,2.31303 -4.301468,12.28461 -15.814898,23.84148 -1.96404,1.97145 -4.21139,5.03123 -4.994112,6.79953 C 70.152186,158.55322 69.171627,160 68.755889,160 68.34015,160 68,161.09844 68,162.44098 c 0,1.34254 -0.390891,2.68257 -0.868648,2.97784 -1.415587,0.87488 -2.473096,8.42701 -2.618704,18.7013 l -0.136337,9.62011 4.811845,1.73032 C 71.83467,196.42222 74,197.60567 74,198.10043 c 0,1.2854 -2.139184,1.11457 -6.848329,-0.54692 -2.301878,-0.81215 -4.34366,-1.05188 -4.655901,-0.54667 -0.499883,0.80883 2.021932,1.72739 9.50423,3.46188 2.254659,0.52266 2.758798,0.0129 5.137125,-5.19459 C 82.433074,183.67836 84,180.00452 84,179.18331 c 0,-3.39351 6.037216,-14.62728 10.749008,-20.00127 3.819405,-4.35618 5.626182,-7.30601 5.818792,-9.5 0.15363,-1.75012 0.54419,-7.23204 0.86791,-12.18204 0.96495,-14.75555 1.69699,-17.15378 4.86492,-15.93813 1.25698,0.48235 1.28372,0.97465 0.1767,3.25324 -1.65741,3.41145 -3.35301,25.55175 -2.31169,30.18489 0.43266,1.925 0.79738,5.38594 0.8105,7.69098 0.0319,5.60178 1.25422,6.03702 4.32918,1.54149 4.19104,-6.12722 7.1385,-13.87821 11.69278,-30.74875 3.42957,-12.70421 4.3527,-17.87107 4.49918,-25.18231 0.10136,-5.05923 -0.0847,-9.633852 -0.41349,-10.165835 -0.63778,-1.031952 -11.59253,5.974915 -16.58379,10.607295 -1.65,1.53137 -5.26131,5.29973 -8.02514,8.37414 -4.206531,4.67923 -5.235112,5.36506 -6.314067,4.21004 -1.065718,-1.14086 -0.575145,-2.28439 2.832847,-6.60343 6.43784,-8.15884 16.64955,-16.30691 26.50636,-21.14981 10.03269,-4.929317 21.5,-7.986981 21.5,-5.732799 0,0.462555 -3.15642,2.111686 -7.01427,3.664735 -3.85785,1.553049 -7.40968,3.312094 -7.89296,3.90899 -0.48327,0.596895 -1.12259,6.491524 -1.42071,13.099164 -0.29812,6.60765 -1.02129,13.27445 -1.60705,14.8151 -0.58575,1.54066 -1.06501,3.39894 -1.06501,4.12952 0,1.17507 7.29006,-5.87493 17.15582,-16.59089 C 146.69953,107.01854 157.56579,101 160.97148,101 c 3.50069,0 2.21303,1.53584 -2.29956,2.74278 -2.53067,0.67685 -5.98612,2.73561 -8.32055,4.9574 -2.19586,2.0899 -5.76072,5.37642 -7.92192,7.30337 C 137.25564,120.61658 127,132.09061 127,133.26604 c 0,0.50887 -1.0125,2.33835 -2.25,4.06551 -3.31977,4.63337 -4.7473,7.63466 -4.77196,10.03276 -0.0121,1.17463 -0.92499,4.12616 -2.02868,6.55895 -2.26209,4.98616 -2.03031,5.36312 4.38992,7.13959 5.05669,1.39917 10.98503,4.53304 13.19529,6.97535 0.97647,1.07899 2.26816,1.95883 2.87042,1.9552 0.60225,-0.004 3.22561,-3.71613 5.82967,-8.25 5.61123,-9.76955 8.37136,-13.47071 9.3305,-12.51157 0.62975,0.62975 -4.05871,11.53972 -5.48701,12.76817 -0.31973,0.275 -1.23781,1.77234 -2.04016,3.32743 -0.80236,1.55508 -2.26414,3.25842 -3.24841,3.78518 -1.93545,1.03583 -2.42745,2.88739 -0.76724,2.88739 1.63389,0 10.03739,-8.15022 12.6307,-12.25 2.27193,-3.59172 4.34696,-4.89293 4.34696,-2.72589 0,1.84953 -7.10177,11.41522 -10.65999,14.35839 l -3.48486,2.8825 2.82243,1.86091 c 1.55233,1.0235 3.12109,1.86388 3.48613,1.8675 0.36504,0.004 3.71756,-3.70591 7.45005,-8.24341 3.73248,-4.5375 7.59631,-9.05503 8.58629,-10.03896 2.63396,-2.61787 2.28397,-3.31388 -2.6963,-5.36198 -2.47294,-1.01699 -4.49794,-2.46404 -4.5,-3.21569 -0.002,-0.8362 0.67548,-1.16215 1.74625,-0.83979 3.41886,1.02926 19.87844,7.87893 28.26602,11.76293 4.68382,2.16892 9.20632,3.94349 10.05,3.94349 0.84369,0 1.96148,0.39564 2.48398,0.8792 2.81697,2.60703 8.15603,3.16016 15.03638,1.5578 3.80249,-0.88556 9.34868,-2.00938 12.32486,-2.49737 2.97618,-0.48799 7.21208,-2.07901 9.41312,-3.53558 2.5355,-1.67792 5.67962,-2.75393 8.58056,-2.93653 4.30579,-0.27102 4.61932,-0.48695 5.26072,-3.62304 0.63886,-3.12364 0.28573,-10.47739 -0.74884,-15.59448 -0.2502,-1.2375 -1.12133,-2.25 -1.93585,-2.25 -1.77439,0 -1.77353,-0.39571 -0.01,4.5 1.83651,5.0977 2.01733,14.50019 0.27884,14.49952 -0.8165,-3.1e-4 -1.33075,-1.86949 -1.48283,-5.38974 -0.49264,-11.40286 -1.97398,-12.24811 -14.38953,-8.21056 -4.0577,1.31957 -9.87546,2.97604 -12.92835,3.68105 l -5.55072,1.28184 0.40931,5.65861 c 0.4176,5.77331 -1.03271,10.26113 -4.15292,12.85067 -2.47762,2.05625 -2.83995,-0.44353 -0.61169,-4.22016 1.53935,-2.60899 1.98866,-4.84033 1.76157,-8.74816 -0.16766,-2.88523 -0.75817,-5.39485 -1.31224,-5.57693 -0.60825,-0.1999 -0.86824,1.41867 -0.65618,4.08498 0.2704,3.39981 -0.1739,5.12633 -1.93066,7.50247 -2.91839,3.94734 -4.00846,3.93131 -2.86888,-0.0422 2.23885,-7.80639 0.81403,-15.32202 -4.03688,-21.29375 -1.375,-1.6927 -6.55,-7.13798 -11.5,-12.10062 -4.95,-4.96264 -10.8,-11.22219 -13,-13.91012 C 172.78153,105.58016 169.33105,102 168.31586,102 c -0.48495,0 -1.99191,-0.88041 -3.34879,-1.95646 -2.66263,-2.111555 -6.4694,-4.834442 -14.72003,-10.528878 -5.12302,-3.535819 -5.23764,-3.721282 -4.63371,-7.498047 0.60915,-3.809381 0.56434,-3.877805 -2.74704,-4.194583 -3.15759,-0.302067 -3.35579,-0.539025 -3.197,-3.822032 0.16303,-3.370424 2.01543,-12.898867 3.11053,-16 0.43411,-1.229322 0.60523,-1.184209 0.94826,0.25 0.23021,0.9625 0.80291,1.75 1.27266,1.75 C 146.01441,60 150,55.109068 150,53.865141 c 0,-1.238865 -3.39599,-1.069152 -4.70002,0.234882 -1.59771,1.597712 -11.28218,-1.427413 -14.69492,-4.590236 -2.06236,-1.911334 -2.56432,-3.081606 -2.04645,-4.771149 1.07346,-3.502168 1.96671,-4.236937 10.72208,-8.819711 7.25175,-3.795744 8.94028,-4.287495 14.34392,-4.177382 3.56092,0.07256 9.22983,1.167189 13.54289,2.615037 4.08005,1.369628 8.07398,2.453809 8.87539,2.409291 4.66428,-0.259098 7.20098,0.499392 9.14406,2.734127 1.19555,1.375 2.76653,2.5 3.49107,2.5 0.72454,0 2.95003,1.540001 4.94554,3.422224 3.2612,3.076061 3.56031,3.784123 2.95701,7 -0.65421,3.487231 -1.86876,4.538519 -3.04486,2.635554 -0.9972,-1.613494 -9.54883,-2.389315 -13.37908,-1.213777 -2.30035,0.705997 -3.95304,0.759587 -4.56462,0.148013 -1.5598,-1.559807 -0.35476,-1.978121 9.50182,-3.29841 9.25031,-1.23908 9.3328,-1.274248 6.11499,-2.607106 -3.13755,-1.299616 -6.77932,-1.171851 -15.11431,0.530256 -2.15628,0.440339 -3.18152,0.333053 -2.79493,-0.292475 0.33582,-0.543354 3.82247,-1.561915 7.74812,-2.263468 4.66771,-0.834165 6.79799,-1.615118 6.15626,-2.256854 -1.38461,-1.384609 -10.05136,-1.356561 -11.44496,0.03704 -1.3965,1.396503 -4.759,1.542059 -4.759,0.206008 0,-0.90757 6.10503,-3.029626 8.75,-3.041427 C 180.4375,41.00251 181,40.55 181,40 c 0,-2.515942 -10.27247,0.213528 -12.95123,3.441237 -0.71061,0.856232 -4.27479,3.671738 -7.92039,6.256678 -3.64561,2.584941 -6.7643,5.018154 -6.93043,5.407141 -0.16613,0.388986 -1.60053,2.065979 -3.18755,3.726651 -1.58703,1.660671 -3.40882,4.965403 -4.04842,7.343848 -0.6396,2.378445 -1.58925,5.405402 -2.11032,6.726571 -1.85928,4.714147 0.7443,4.705622 6.86895,-0.02249 8.06673,-6.227368 9.6582,-7.127091 19.27939,-10.899466 7.13398,-2.797163 9.85263,-3.34461 16.91667,-3.406467 5.78929,-0.05069 8.54674,-0.463906 8.83334,-1.323701 0.63007,-1.890238 3.04697,-1.497863 4.21481,0.684259 1.85026,3.457252 1.27447,4.127641 -2.96317,3.450014 l -3.99835,-0.639362 0.64101,4.676716 c 0.41771,3.047516 0.19305,5.513749 -0.64489,7.079465 -0.84821,1.584878 -1.09939,4.459801 -0.73794,8.44597 l 0.54798,6.04322 -2.54946,-0.639875 c -2.35266,-0.590479 -2.49823,-0.435711 -1.88568,2.004859 C 188.92529,90.550498 188.70028,91 187.05044,91 c -1.29936,0 -1.80035,0.488151 -1.44673,1.409658 0.32742,0.853249 -0.29632,1.675392 -1.58023,2.08289 -1.88551,0.598437 -2.04742,1.164975 -1.45742,5.099425 C 183.1818,103.69799 182.08511,107 180.10566,107 c -1.24153,0 -0.52788,-12.786333 0.80316,-14.39014 1.10505,-1.331502 1.05749,-1.668378 -0.2962,-2.098027 -0.88694,-0.281508 -2.31614,-0.733655 -3.176,-1.00477 -3.24607,-1.023491 -0.17319,-2.720555 3.78116,-2.088229 2.97955,0.47645 3.86225,0.316627 3.54729,-0.642275 -0.23062,-0.702108 -1.6221,-1.418949 -3.09219,-1.592981 C 180.11892,84.999616 179,84.246068 179,83.383496 c 0,-1.14543 1.08286,-1.41525 4.75,-1.183578 L 188.5,82.5 188.18526,78.467165 c -0.22524,-2.886036 0.26111,-4.76491 1.71029,-6.607252 1.5439,-1.962753 1.88365,-3.445677 1.42996,-6.241448 -0.32729,-2.016868 -0.96223,-3.893946 -1.41098,-4.171286 -1.55107,-0.958615 -19.21214,2.849127 -20.67862,4.458327 -0.79919,0.876972 -2.51516,3.394494 -3.81328,5.594494 -2.25317,3.818598 -2.36163,3.87754 -2.39142,1.29969 -0.0179,-1.552245 0.70928,-3.114708 1.71046,-3.674997 2.57493,-1.441004 0.65159,-2.653799 -1.98744,-1.253217 C 151.64785,73.765824 148,77.133722 148,81.493387 148,84.002707 148.44339,85 149.55902,85 c 0.85746,0 1.30745,0.40704 0.99998,0.904533 -0.30747,0.497493 1.80348,2.268006 4.69098,3.934474 2.88751,1.666468 7.16252,4.893263 9.50002,7.170657 2.3375,2.277394 4.25,3.683436 4.25,3.124546 0,-0.558898 -0.45218,-1.295641 -1.00485,-1.63721 -0.55267,-0.341568 -2.85107,-3.339697 -5.10754,-6.662508 -3.75349,-5.527249 -4.34889,-5.992237 -6.99515,-5.462984 -3.32945,0.66589 -3.44387,0.396617 -1.36713,-3.217216 0.83893,-1.459861 2.14444,-4.679292 2.90113,-7.154292 1.2845,-4.20136 1.38236,-4.29242 1.47467,-1.372124 0.0544,1.720332 -0.57629,4.743772 -1.4015,6.718755 -2.0673,4.947753 0.50669,3.995989 3.12451,-1.155321 2.51384,-4.94672 2.37635,-4.808546 3.29905,-3.31559 0.57241,0.926176 1.94916,-0.550135 4.6327,-4.967732 2.10005,-3.457042 3.98986,-5.77074 4.19959,-5.14155 0.57266,1.717995 -4.49932,9.8357 -7.28639,11.661859 -2.99192,1.960382 -6.00225,6.374155 -5.01491,7.352911 0.3988,0.395336 1.80752,-0.631208 3.13049,-2.281208 1.36923,-1.707696 2.40754,-2.381612 2.41036,-1.564451 0.003,0.789552 -0.9718,2.475277 -2.16564,3.746057 -1.19384,1.270779 -1.84892,2.632196 -1.45575,3.025371 0.39318,0.393175 1.75732,-0.592497 3.03143,-2.190383 l 2.31656,-2.905246 1.17437,2.194326 C 169.5419,87.012553 170.7137,88 171.5,88 c 0.7863,0 1.92098,0.918096 2.52152,2.040214 0.87173,1.62883 0.65418,2.748443 -1.07888,5.552599 -1.19393,1.931812 -1.85571,3.826216 -1.47063,4.209786 0.70334,0.700581 3.98653,-2.755746 4.81221,-5.065978 0.24308,-0.680142 0.74686,-0.955835 1.11951,-0.612653 0.37265,0.343183 -0.27646,2.240873 -1.44245,4.217089 -1.99877,3.387663 -1.93573,6.379223 0.10782,5.116233 0.51199,-0.31643 0.9309,0.34638 0.9309,1.47291 0,1.29569 5.05193,7.12026 13.75,15.85291 7.5625,7.59258 16.06403,16.39317 18.89229,19.55687 5.85606,6.55062 5.90242,6.55471 17.03777,1.50571 3.42574,-1.55331 9.87804,-3.45751 14.33843,-4.23155 7.27866,-1.26311 10.75809,-3.04597 10.95654,-5.61414 0.0213,-0.275 1.60403,-1.56603 3.5173,-2.86896 3.71714,-2.53137 3.80361,-4.21589 0.20111,-3.91774 C 253.02108,125.43447 244,123.00907 244,122.0694 c 0,-0.36887 0.5625,-1.91907 1.25,-3.4449 1.15183,-2.55636 1.56413,-2.72245 5.25,-2.11487 2.2,0.36265 5.44673,0.89373 7.21496,1.18018 3.25732,0.52768 6.047,2.72881 4.5836,3.61657 -0.43921,0.26644 -3.63333,-0.21123 -7.09804,-1.06149 -4.62725,-1.13556 -6.59503,-1.25038 -7.41284,-0.43257 -1.5164,1.5164 2.63918,3.02393 11.65685,4.22879 3.88051,0.51848 10.8009,1.56427 15.37866,2.32398 10.86778,1.80357 9.23663,0.25363 -2.06372,-1.96097 l -8.74052,-1.71294 0.24052,-7.09559 C 264.8762,97.401946 261.02984,64.736136 256.53567,50 c -1.25803,-4.125 -2.58274,-9.550553 -2.94379,-12.056783 -0.58599,-4.067498 -0.32926,-4.980187 2.3909,-8.5 1.67606,-2.16877 3.99899,-5.429362 5.16208,-7.245761 1.45965,-2.279547 2.75207,-3.208829 4.17234,-3 1.71106,0.251585 2.26078,1.481592 3.26367,7.302544 0.66332,3.85 1.86696,9.025 2.67476,11.5 0.8078,2.475 1.54982,6.261324 1.64892,8.414054 0.0991,2.15273 0.41788,4.298625 0.70837,4.768655 0.48882,0.790926 0.99274,5.712838 1.87539,18.317291 0.19257,2.75 0.67657,8.375 1.07555,12.5 0.39898,4.125 0.70012,10.2 0.6692,13.5 -0.0309,3.3 0.43755,6.5968 1.04106,7.32622 0.79748,0.96387 0.79304,1.51424 -0.0162,2.01441 -0.63247,0.39088 -1.21513,4.13806 -1.34873,8.67378 -0.26574,9.02227 -1.35616,7.86107 10.39881,11.07383 5.37727,1.46966 5.78511,1.78478 5.5,4.24956 -0.19563,1.69124 -0.83016,2.54892 -1.73975,2.3516 C 286.37375,130.17104 277,129.48153 277,130.15459 c 0,0.43839 0.89832,2.27045 1.99626,4.07124 2.53056,4.1505 2.53161,5.77417 0.004,5.77417 -2.40272,0 -2.51706,0.77117 -0.45257,3.0524 1.34662,1.48801 1.36061,1.8967 0.10785,3.14947 -0.79177,0.79176 -1.60578,2.30258 -1.80891,3.35737 -0.20314,1.05479 -1.26417,2.08388 -2.35785,2.28688 -3.60262,0.66869 -4.39251,1.94798 -3.18235,5.15406 1.3253,3.51112 1.16404,3.71366 -3.30617,4.15249 -3.60142,0.35354 -4.10223,-0.53842 -2.89307,-5.15267 0.26673,-1.01789 -0.4908,-1.6017 -2.35693,-1.81642 -2.27497,-0.26177 -2.75,0.0701 -2.75,1.92126 0,1.23072 0.74474,3.06061 1.65499,4.06642 1.56534,1.72968 1.50549,1.82874 -1.10504,1.82874 -2.61694,0 -2.74025,-0.20737 -2.37856,-4 0.2098,-2.2 0.0846,-4 -0.27833,-4 -0.80644,0 -1.86082,3.72686 -1.87941,6.64301 -0.0149,2.33469 -1.76141,3.35699 -5.73519,3.35699 -1.40689,0 -3.09617,0.73603 -3.75397,1.63562 -0.65779,0.89958 -3.8574,2.22766 -7.11024,2.95127 -3.25284,0.72361 -7.71425,1.85184 -9.91425,2.50718 -6.04213,1.79984 -18.31916,2.24584 -24.5,0.89004 -4.99461,-1.0956 -19.10164,-7.07867 -28.02557,-11.88619 -2.90819,-1.56671 -3.82754,-1.6785 -5.25,-0.63837 -0.94844,0.69351 -1.72443,1.57885 -1.72443,1.96741 0,1.236 -5.22147,7.86922 -11.20653,14.23649 -3.18641,3.38989 -5.79171,6.53989 -5.78955,7 0.002,0.4601 1.17884,7.58655 2.61485,15.83655 3.6874,21.18442 4.06096,27.09142 1.86661,29.51616 -0.96397,1.06517 -2.14253,1.69573 -2.61903,1.40124 -1.53194,-0.94679 -0.90557,0.93137 2.65236,7.95299 1.91471,3.77872 3.48129,7.62878 3.48129,8.55568 0,0.9269 1.61174,5.68233 3.58165,10.56762 3.83062,9.49977 4.12661,14.19109 1.45155,23.00631 -0.66761,2.2 -1.61259,7.6 -2.09996,12 -0.48737,4.4 -1.10116,8.9 -1.36399,10 -0.46786,1.95813 0.0184,1.99907 23.22644,1.95536 13.03737,-0.0245 27.75431,0.30096 32.70431,0.72335 4.95,0.4224 14.625,1.24787 21.5,1.83439 6.875,0.58652 17.40617,1.48627 23.40261,1.99946 5.99643,0.51319 12.31094,1.39786 14.03224,1.96594 1.7213,0.56808 6.71513,1.43127 11.09739,1.91821 9.31917,1.0355 11.78833,1.57557 14.19671,3.10518 1.4226,0.90353 0.97801,1.01857 -2.25974,0.58471 -23.63709,-3.16739 -37.19172,-4.57533 -48.96921,-5.08653 -7.7,-0.33422 -23.225,-1.54869 -34.5,-2.69882 -13.21665,-1.34819 -26.6753,-2.05224 -37.88124,-1.98162 -9.55969,0.0602 -17.48255,0.23797 -17.60636,0.39495 -0.12382,0.15698 -0.50445,1.75264 -0.84586,3.5459 l -0.62073,3.26048 21.72709,-0.26048 c 19.59013,-0.23486 36.77458,0.3473 52.2271,1.7693 3.025,0.27837 14.13824,0.93485 24.69608,1.45884 23.54439,1.16851 53.1928,6.23542 51.11752,8.73598 -1.36973,1.65043 -2.94543,1.45921 -14.3136,-1.73698 -12.96202,-3.64431 -22.59543,-4.74362 -48,-5.47748 -13.2,-0.3813 -28.05,-1.02221 -33,-1.42425 -4.95,-0.40203 -18.3375,-0.83933 -29.75,-0.97178 -22.94889,-0.26634 -22.30119,-0.47868 -18.75,6.14707 1.1,2.05237 2,4.34396 2,5.09243 0,1.06908 3.77826,1.51527 17.6219,2.08104 9.69205,0.39611 25.32955,1.58581 34.75,2.64378 9.42046,1.05798 25.34528,2.81406 35.38849,3.90242 23.55577,2.55267 36.94497,4.73339 37.82728,6.161 1.17449,1.90036 -3.27957,2.08728 -12.45774,0.52279 -9.86082,-1.68085 -19.30002,-3.02703 -45.62993,-6.50753 -27.91558,-3.69011 -33.9669,-4.22779 -50,-4.44267 -13.64494,-0.18288 -16,0.006 -16,1.2843 0,1.82512 4.80295,2.4533 30,3.92375 18.79124,1.09662 32.14988,3.18928 63.92145,10.01342 10.40679,2.23525 19.06929,4.06409 19.25,4.06409 0.1807,0 0.32855,0.45 0.32855,1 0,1.26038 1.13315,1.43667 -16.5,-2.56697 z M 163.85289,322.10259 C 161.51305,318.19617 159.2747,315 158.87878,315 c -0.39593,0 -1.02755,1.40084 -1.40359,3.11297 -0.61609,2.80504 -0.15407,3.65026 4.67054,8.54434 6.76459,6.86199 7.45004,5.0332 1.70716,-4.55472 z m -6.21905,-10.25088 c 0.82715,-3.49344 1.88559,-11.07671 2.35208,-16.85171 0.47491,-5.87922 1.79167,-13.3002 2.99214,-16.86302 2.02045,-5.99641 2.05805,-6.6878 0.65252,-12 -4.12292,-15.58264 -27.85876,-68.71304 -31.194,-69.82479 -0.53699,-0.17899 -2.35973,0.91504 -4.05053,2.43118 C 124.01572,202.66225 119.25719,206 118.04049,206 117.46822,206 117,206.42894 117,206.95321 c 0,0.52426 -2.025,1.84895 -4.5,2.94377 -2.475,1.09481 -4.5,2.41401 -4.5,2.93157 0,0.51755 -2.50289,1.25372 -5.56197,1.63593 -6.250202,0.78091 -7.60325,2.38459 -5.355198,6.34717 1.129619,1.99115 7.627208,5.17832 12.558588,6.16019 0.0778,0.0155 0.89823,1.94066 1.82321,4.27816 2.53498,6.40607 9.42053,18.18874 20.89156,35.75 0.89815,1.375 2.59262,3.6964 3.76547,5.15867 4.00816,4.99721 3.47885,14.67039 -1.34661,24.60943 -1.1397,2.34746 -1.89283,4.38672 -1.67361,4.53169 0.21921,0.14498 3.07405,2.49933 6.34409,5.2319 6.65551,5.5616 15.88801,12.2803 16.36943,11.91241 0.17323,-0.13238 0.99173,-3.09896 1.81888,-6.59239 z M 40.457713,267.06842 C 41.37033,265.59178 36.864347,263 33.384483,263 c -3.624169,0 -5.212756,2.41579 -2.59295,3.94314 2.172543,1.2666 8.906865,1.35388 9.66618,0.12528 z M 47,264.13573 C 47,263.51666 38.421872,258 37.459242,258 c -1.682265,0 0.191355,2.92742 3.286079,5.1343 C 44.03188,265.47799 47,265.95321 47,264.13573 Z m 4.431239,-2.02447 c 0.819711,-1.32632 -5.944868,-6.11353 -8.614517,-6.09638 -2.101278,0.0135 -1.944741,0.33548 1.683278,3.46245 4.073559,3.51098 5.948782,4.22358 6.931239,2.63393 z m 3.214278,-2.59264 c -0.404198,-1.05333 0.03871,-1.41453 1.532779,-1.25 3.561976,0.39223 3.129874,-1.98711 -0.852285,-4.69306 C 50.322091,250.17531 47.835818,250.13188 51,253.5 c 2.8327,3.01527 0.904523,3.35666 -2.744933,0.486 -4.541331,-3.57222 -3.903862,-0.95185 0.745986,3.06644 4.757334,4.11117 6.58156,4.90821 5.644464,2.46618 z m 12.287263,-6.58489 4.232857,-3.06626 -4.759256,-3.38371 c -5.237212,-3.72352 -7.850321,-3.64967 -4.307272,0.12174 2.768512,2.94694 2.086091,3.02633 -2.541949,0.29572 -4.60491,-2.71696 -4.799549,-0.63165 -0.30716,3.29084 l 3.25,2.8377 -3.792698,-2.13885 c -2.085984,-1.17636 -4.110674,-1.82087 -4.499311,-1.43223 -0.875205,0.8752 5.324862,6.54132 7.157747,6.54132 0.733802,0 3.238971,-1.37982 5.567042,-3.06627 z m 6.499617,-5.82435 c 0.302737,-0.48983 -0.683205,-1.68855 -2.190983,-2.6638 C 63.501698,239.43941 64,239.66154 64,241.21745 c 0,0.79611 1.6875,2.60305 3.75,4.01544 4.249428,2.90998 4.909046,3.1278 5.682397,1.87649 z M 73.5,238 c -0.339919,-0.55 -1.068034,-1 -1.618034,-1 -0.55,0 -0.721885,0.45 -0.381966,1 0.339919,0.55 1.068034,1 1.618034,1 0.55,0 0.721885,-0.45 0.381966,-1 z m 3.5,-2.89301 c 0,-1.10907 -3.076417,-2.36391 -3.864168,-1.57616 -0.317851,0.31786 0.08406,0.99656 0.893128,1.50823 C 75.898823,236.2216 77,236.24677 77,235.10699 Z M 78,231 c 0,-0.55 -0.45,-1 -1,-1 -0.55,0 -1,0.45 -1,1 0,0.55 0.45,1 1,1 0.55,0 1,-0.45 1,-1 z m 76.5827,-11.88577 C 154.21658,215.4764 153.43403,210.7 152.84371,208.5 c -0.59033,-2.2 -1.82604,-9.39513 -2.74604,-15.98917 -1.43193,-10.26341 -1.97583,-12.1403 -3.77854,-13.03904 -1.1582,-0.57743 -2.8176,-1.6406 -3.68755,-2.36259 -1.35026,-1.12061 -1.72866,-0.96856 -2.58575,1.03904 -0.55221,1.29347 -1.6956,5.4481 -2.54086,9.23252 l -1.53684,6.88077 6.6262,13.61923 c 3.64442,7.49058 7.511,14.86203 8.59241,16.381 2.99899,4.21244 4.16074,2.45148 3.39596,-5.14753 z M 70,222.86786 c 0,-0.80568 -5.061404,-2.13979 -5.699019,-1.50217 -0.254662,0.25466 0.03683,1.39701 0.647768,2.53855 0.948174,1.77168 1.399223,1.8954 3.08102,0.8451 C 69.113396,224.0726 70,223.22594 70,222.86786 Z m 25,0.6893 c 0,-0.24356 -0.92507,-2.01072 -2.05571,-3.92701 -1.640523,-2.78048 -3.295483,-3.90285 -8.194172,-5.55716 C 81.373964,212.93285 78.228643,212 77.760515,212 c -1.046873,0 0.129567,7.118 1.404852,8.5 1.569166,1.70047 7.130605,3.34419 11.584633,3.42392 2.3375,0.0418 4.25,-0.1232 4.25,-0.36676 z m -33.685311,-9.4307 c -0.125638,-0.20544 -0.92284,-0.10707 -1.771561,0.21862 -1.865101,0.7157 -2.060732,5.73238 -0.293128,7.51685 1.002329,1.01189 1.35334,0.40757 1.771561,-3.05 0.286859,-2.37156 0.418767,-4.48002 0.293128,-4.68547 z m 8.473711,4.12103 c 2.665963,-0.57705 4.704077,-4.10301 5.634347,-9.74749 0.60934,-3.69722 0.447977,-4.09124 -2.131753,-5.20536 -5.594539,-2.41615 -12.405391,-3.44459 -14.007319,-2.11511 -1.415067,1.17441 -3.048265,4.52925 -3.807137,7.82047 -1.545742,6.70386 -1.643201,8 -0.601538,8 0.61875,0 1.125,-0.58899 1.125,-1.30887 0,-0.71988 0.626304,-2.16539 1.391787,-3.21225 1.20205,-1.6439 1.618143,-1.71553 3.052171,-0.52539 1.454444,1.20708 2.019012,0.98534 4.551841,-1.78775 C 67.697887,207.20734 71,205.93101 71,207.84501 c 0,0.46476 -0.962107,1.70226 -2.138016,2.75 C 66.98525,212.2672 64,217.78081 64,219.57487 c 0,0.35151 0.7875,0.30809 1.75,-0.0965 0.9625,-0.40457 2.77978,-0.95848 4.0384,-1.2309 z m 32.22557,-7.1608 c 2.76948,-1.05232 9.62541,-4.98982 15.2354,-8.75 5.61,-3.76018 11.4956,-7.30469 13.07913,-7.87669 2.4338,-0.87914 2.92545,-1.66097 3.17856,-5.05463 0.16468,-2.20804 1.0102,-6.40807 1.87893,-9.3334 0.86873,-2.92533 1.32954,-5.72323 1.02403,-6.21756 C 135.54795,172.45955 125.20294,165 124.1306,165 c -0.52514,0 -1.2519,1.7585 -1.61502,3.90777 -0.71019,4.2036 -2.92825,8.01289 -4.02633,6.91481 -0.37086,-0.37085 0.0423,-3.1394 0.91824,-6.15234 0.87588,-3.01293 1.5825,-5.8588 1.57027,-6.32415 -0.0409,-1.55767 -3.93298,4.13133 -3.95552,5.78179 -0.036,2.63648 -2.95435,8.87212 -4.15224,8.87212 -1.33927,0 -0.77224,-2.72534 2.0286,-9.75 2.38131,-5.97249 1.38496,-7.16486 -1.29353,-1.548 C 109.72413,174.8404 98.157366,193 96.854542,193 c -0.922657,0 4.898628,-11.76544 7.869868,-15.90584 1.6742,-2.33299 1.66667,-2.37332 -0.24897,-1.33208 -2.46705,1.34098 -7.415409,6.63238 -10.509363,11.23792 -1.293195,1.925 -5.439247,7.03084 -9.213448,11.3463 -3.774202,4.31547 -6.725035,8.5411 -6.557407,9.3903 0.366262,1.85548 9.769316,5.10394 15.044051,5.19725 2.056601,0.0364 6.005214,-0.79484 8.774697,-1.84716 z M 85.0101,193.30007 c 2.952943,-3.68496 8.665337,-10.40488 12.694208,-14.93316 l 7.325222,-8.23323 -1.80173,-6.57717 -1.80173,-6.57717 -3.713033,3.80249 C 95.670867,162.8732 94,164.88856 94,165.2604 c 0,0.37184 -2.755717,6.42786 -6.123815,13.45783 C 79.736856,195.70683 77.917232,200 78.856094,200 c 0.431761,0 3.201064,-3.01497 6.154006,-6.69993 z m 185.31746,-43.50839 c 1.00516,-0.51978 1.58441,-1.57869 1.28724,-2.35312 -0.30138,-0.78538 0.33327,-1.87559 1.43515,-2.46529 1.62771,-0.87113 1.78201,-1.41874 0.87651,-3.11069 -0.90529,-1.69155 -0.73129,-2.31098 0.98728,-3.51472 1.14744,-0.8037 2.08626,-1.81352 2.08626,-2.24405 0,-1.27845 -4.85249,-3.10265 -8.29705,-3.11912 -1.76162,-0.008 -3.86006,-0.43095 -4.66319,-0.93895 -1.24937,-0.79026 -1.19009,-1.22215 0.41054,-2.99082 2.78095,-3.07291 1.21421,-3.55636 -3.3011,-1.01862 -2.67063,1.50098 -4.43863,3.42809 -5.36784,5.85093 -1.23173,3.21164 -1.16953,4.35716 0.56018,10.31711 1.20004,4.13489 2.56139,6.86792 3.55211,7.13116 2.085,0.554 8.09751,-0.33562 10.43391,-1.54382 z M 274,129.5 c 0,-1 -1,-1.5 -3,-1.5 -1.65,0 -3,0.4187 -3,0.93045 0,0.8002 0.9636,1.15506 5.25,1.93337 0.4125,0.0749 0.75,-0.53882 0.75,-1.36382 z m 0,-11.32632 c 0,-2.10448 -0.42673,-8.51698 -0.94829,-14.25 C 272.53014,98.190655 271.37481,84.05 270.48429,72.5 269.59378,60.95 268.4187,49.025 267.873,46 267.32731,42.975 266.40492,37.2375 265.82326,33.25 265.2416,29.2625 264.40623,26 263.96688,26 c -1.02455,0 -6.42182,6.915683 -7.31799,9.376748 -0.37587,1.032212 -0.30931,2.382212 0.14791,3 2.36678,3.197966 6.87427,21.367881 7.72087,31.123252 0.33412,3.85 1.2694,12.175 2.07841,18.5 1.56552,12.23955 1.97002,27.36119 0.81258,30.37743 -0.8092,2.10873 0.96664,3.58429 4.34134,3.60726 1.94398,0.0132 2.25,-0.5051 2.25,-3.81101 z M 171.47432,95.04966 c 0.83912,-1.622687 1.51567,-3.310187 1.50344,-3.75 -0.0359,-1.29038 -3.93109,4.076854 -3.95552,5.45034 -0.0363,2.039591 0.82801,1.440266 2.45208,-1.70034 z m -1.176,-4.082419 C 170.58126,89.885258 170.567,89 170.26662,89 c -0.92807,0 -3.20125,3.423985 -3.23482,4.872445 -0.0461,1.991167 2.60199,-0.36405 3.26652,-2.905204 z m -3.25248,-1.052887 c 1.63452,-3.054128 0.50567,-3.405014 -1.43343,-0.445562 C 164.70022,90.860956 164.39844,92 164.94176,92 c 0.54333,0 1.49016,-0.938541 2.10408,-2.085646 z m -9.60172,-42.849669 c 1.06927,-1.183142 4.10677,-3.328227 6.75,-4.766855 C 166.83735,40.859202 169,39.321724 169,38.881213 c 0,-0.440512 -1.9125,-1.295267 -4.25,-1.899457 -2.3375,-0.60419 -5.48236,-1.481225 -6.98858,-1.948967 -4.14846,-1.288265 -15.71877,1.847282 -21.27923,5.766658 l -4.65542,3.281439 3.55708,2.826808 c 2.31354,1.838568 5.30101,3.058149 8.54551,3.488548 2.74364,0.363957 5.26353,1.10684 5.59975,1.650852 0.67193,1.087214 4.74907,-1.479298 7.91501,-4.982409 z M 141,47.156719 c 0,-1.453581 6.83885,-3.415653 10.44096,-2.995521 4.73347,0.552089 4.2204,2.593129 -0.64881,2.581016 -2.36068,-0.0059 -5.52965,0.327187 -7.04215,0.740132 C 141.98816,47.963367 141,47.84636 141,47.156719 Z M 313,347.45736 c 2.475,-0.78485 4.6125,-1.43383 4.75,-1.44218 0.1375,-0.008 0.25,0.58686 0.25,1.32269 0,0.91474 -1.50227,1.37085 -4.75,1.44218 l -4.75,0.10431 z m -153,-5.50267 c 0,-0.66178 1.37591,-0.79656 3.75,-0.36734 5.18939,0.9382 5.32933,1.41265 0.41667,1.41265 C 161.875,343 160,342.52961 160,341.95469 Z m 134.5,-8.75148 c -14.42659,-4.10066 -44.00273,-7.46657 -86,-9.78722 -16.5,-0.91175 -31.35,-1.779 -33,-1.92723 -1.65,-0.14823 -4.125,-0.33252 -5.5,-0.40954 -2.24643,-0.12583 -2.31634,-0.24687 -0.68926,-1.19331 0.9959,-0.5793 2.52939,-0.7775 3.40775,-0.44044 0.87836,0.33706 12.21353,1.03653 25.18926,1.55439 48.85275,1.94969 77.73746,4.64328 99.43647,9.27276 5.46289,1.16551 5.72389,1.34816 4,2.79934 -1.63301,1.37467 -2.41685,1.3897 -6.84422,0.13125 z m -172.62082,-2.65736 c -0.24979,-0.24979 -7.63729,-0.74347 -16.41667,-1.09706 C 96.68313,329.09519 89.05,328.34227 88.5,327.77564 c -0.685791,-0.70654 4.65576,-0.83565 17,-0.41093 18.86426,0.64906 23.68022,1.2718 21.33453,2.75871 -1.446,0.91661 -4.22432,1.15345 -4.95535,0.42243 z M 57.71745,321.74478 C 64.428124,315.04 67,313.25134 67,315.28906 c 0,0.74769 -1.792428,3.12602 -3.983173,5.28518 -2.190745,2.15917 -3.990745,4.26326 -4,4.67576 -0.0093,0.4125 1.895673,0.80324 4.233173,0.86831 2.3375,0.0651 5.6,0.4729 7.25,0.90627 1.90953,0.50154 -0.919351,0.7352 -7.78255,0.64282 L 51.934899,327.52226 Z M 71.205218,320.75 c -4.498976,-9.16113 -10.408665,-25.64634 -10.844156,-30.25 -0.410083,-4.33507 0.248035,-2.76336 7.118335,17 1.529564,4.4 4.078909,10.5875 5.66521,13.75 1.586301,3.1625 2.48948,5.75 2.007065,5.75 -0.482415,0 -2.258319,-2.8125 -3.946454,-6.25 z M 311,318.10428 c -2.19535,-0.6115 -2.27706,-0.78203 -0.67054,-1.39943 2.15555,-0.82838 6.67054,0.12162 6.67054,1.40356 0,1.01561 -2.34482,1.014 -6,-0.004 z M 57.574169,306.33268 c -0.351895,-0.91702 -0.854628,-4.40452 -1.117185,-7.75 L 55.979609,292.5 57.9859,299 c 1.103459,3.575 2.008047,7.0625 2.010195,7.75 0.0057,1.81984 -1.674549,1.53032 -2.421926,-0.41732 z M 173,150.41981 c -3.025,-1.87635 -6.5125,-3.4134 -7.75,-3.41567 -1.37457,-0.003 -2.25,-0.61398 -2.25,-1.57153 0,-1.16587 0.57638,-1.38833 2.25,-0.86842 4.49301,1.39576 15.24559,7.08239 15.075,7.97259 -0.33027,1.72348 -1.83427,1.28881 -7.325,-2.11697 z M 146.33362,149.75 c -0.43142,-0.6875 -0.95914,-5.86586 -1.17271,-11.50747 -0.35984,-9.50571 -0.19263,-10.65741 2.28154,-15.71444 3.49102,-7.13537 10.25114,-13.08749 16.33876,-14.38585 2.55884,-0.54575 5.00486,-0.77446 5.43561,-0.50824 1.65409,1.02228 0.67287,2.366 -1.72772,2.366 -4.15655,0 -10.82291,3.80316 -13.61867,7.76947 -4.76188,6.7556 -6.07565,12.50906 -5.3557,23.45444 0.61451,9.34247 -0.0467,11.92733 -2.18111,8.52609 z m 9.20909,0.3191 c -0.31644,-0.512 -0.11799,-1.21356 0.44098,-1.55902 1.19337,-0.73755 3.01631,0.19857 3.01631,1.54894 0,1.2168 -2.70662,1.22469 -3.45729,0.0101 z m 21.53624,-49.65243 c 0.048,-1.164946 0.28494,-1.401903 0.60416,-0.60417 0.28887,0.72187 0.25335,1.58437 -0.0789,1.91667 -0.3323,0.33229 -0.56864,-0.25834 -0.52522,-1.3125 z m 57.43113,-9.432982 c 0.34546,-0.558971 1.04702,-0.757414 1.55902,-0.440983 C 237.45614,91.399945 237.19751,92 235.44098,92 c -0.85746,0 -1.27636,-0.45734 -0.9309,-1.016312 z M 152.06339,79.05 c -0.0435,-2.368039 0.25978,-3.126828 0.96709,-2.419516 0.68236,0.682356 0.70377,1.847867 0.0634,3.45 -0.90871,2.273441 -0.97092,2.211227 -1.03048,-1.030484 z M 175.25,76.337719 c -2.92871,-1.18176 -0.97674,-3.361288 4.41381,-4.928362 4.2801,-1.24426 5.27667,-1.86316 4.0792,-2.533299 -0.94656,-0.529722 -2.64932,-0.481976 -4.2289,0.118578 -3.33097,1.266433 -4.80305,1.281891 -4.03699,0.04239 0.32733,-0.529635 2.21811,-1.411095 4.20174,-1.9588 6.48044,-1.789337 9.32706,1.930716 5.70613,7.456956 -1.24862,1.905634 -2.43967,2.446907 -5.25,2.38587 -1.99924,-0.04342 -4.19749,-0.305921 -4.88499,-0.583333 z m 4.93333,-2.554386 C 179.46577,73.065771 179,73.006729 179,73.633333 c 0,1.334781 1.18261,2.517391 1.85,1.85 0.28417,-0.284166 -0.0158,-1.049166 -0.66667,-1.7 z M 196.5,76 c 0.33992,-0.55 0.81648,-1 1.05902,-1 0.24254,0 0.44098,0.45 0.44098,1 0,0.55 -0.47656,1 -1.05902,1 -0.58246,0 -0.7809,-0.45 -0.44098,-1 z M 147,69.201673 C 147,68.198304 150.29503,65 151.32874,65 c 1.4002,0 0.51578,1.567418 -1.86016,3.296685 C 148.11086,69.284862 147,69.692106 147,69.201673 Z m 10.29663,-10.738136 c 3.54424,-3.340583 6.65278,-5.440686 8,-5.40473 2.06911,0.05522 2.09142,0.131391 0.36611,1.25 -1.0105,0.655156 -4.32714,3.103693 -7.37032,5.441193 -3.04318,2.3375 -5.81642,4.233592 -6.16274,4.213537 -0.34632,-0.02005 1.9788,-2.495055 5.16695,-5.5 z"
       id="path12" />
  </g>
</svg>
