<?xml version="1.0" encoding="UTF-8" standalone="no"?>
<!-- Created with Inkscape (http://www.inkscape.org/) -->

<svg
   version="1.1"
   id="svg2"
   width="361"
   height="411"
   viewBox="0 0 361 411"
   sodipodi:docname="16.svg"
   inkscape:version="1.1.2 (0a00cf5339, 2022-02-04)"
   xmlns:inkscape="http://www.inkscape.org/namespaces/inkscape"
   xmlns:sodipodi="http://sodipodi.sourceforge.net/DTD/sodipodi-0.dtd"
   xmlns="http://www.w3.org/2000/svg"
   xmlns:svg="http://www.w3.org/2000/svg">
  <defs
     id="defs6" />
  <sodipodi:namedview
     id="namedview4"
     pagecolor="#505050"
     bordercolor="#eeeeee"
     borderopacity="1"
     inkscape:pageshadow="0"
     inkscape:pageopacity="0"
     inkscape:pagecheckerboard="0"
     showgrid="false"
     inkscape:zoom="1.2886204"
     inkscape:cx="64.40997"
     inkscape:cy="95.062907"
     inkscape:window-width="1920"
     inkscape:window-height="1043"
     inkscape:window-x="0"
     inkscape:window-y="0"
     inkscape:window-maximized="1"
     inkscape:current-layer="g8" />
  <g
     inkscape:groupmode="layer"
     inkscape:label="Image"
     id="g8">
    <path
       id="path12"
       style="fill:#000000"
       d="M 1.0585938,0 C 0.4761341,0 0,0.45 0,1 0,1.55 0.19886559,2 0.44140625,2 0.6839469,2 1.1600813,1.55 1.5,1 1.8399187,0.45 1.6410531,0 1.0585938,0 Z M 88.441406,11.042969 C 87.923113,11.066786 85.025,14.457405 82,18.578125 78.975,22.698845 74.3625,28.708145 71.75,31.931641 69.1375,35.155137 67,38.268017 67,38.847656 67,39.427294 66.40684,40.261342 65.681641,40.701172 64.956442,41.141001 62.725087,43.975 60.722656,47 58.720226,50.025 54.597038,55.330925 51.560547,58.791016 46.026579,65.096989 40.376604,72.756044 38.496094,76.5 c -0.552507,1.1 -2.426157,2.675 -4.164063,3.5 -2.083509,0.989061 -3.354104,2.444182 -3.726562,4.271484 -0.310677,1.524199 -1.721984,3.999199 -3.136719,5.5 -2.113474,2.242049 -2.434195,3.263579 -1.802734,5.728516 0.422692,1.65 0.85106,29.1 0.953125,61 0.323525,101.11671 0.224731,95.91352 1.861328,98.05859 1.094478,1.43452 1.692784,1.62233 2.291015,0.72071 0.445224,-0.67102 0.887082,-36.39065 0.982422,-79.37891 0.09534,-42.98826 0.414096,-78.402375 0.708985,-78.697265 0.29489,-0.294889 0.874609,-0.19954 1.287109,0.212891 0.865349,0.865206 0.963176,7.623244 1.769531,122.083984 0.329345,46.75 0.919681,88.375 1.310547,92.5 0.818951,8.64279 0.543417,11 -1.28125,11 -3.26524,0 -3.545377,-2.61145 -3.5,-32.50391 0.04477,-29.49304 -0.377769,-33.56754 -3.18164,-30.76367 -0.798001,0.798 -1.062892,8.90256 -0.898438,27.44922 0.213564,24.08507 0.498136,36.33784 0.882812,37.92969 0.08122,0.33609 6.785938,0.67606 14.898438,0.75586 8.1125,0.0798 22.4,0.35037 31.75,0.60156 15.784584,0.42405 53.82608,0.78131 64.75,0.60742 2.6125,-0.0416 4.75,-0.4589 4.75,-0.92578 0,-0.46687 -6.8625,-1.1577 -15.25,-1.53516 -8.3875,-0.37747 -17.5,-0.89986 -20.25,-1.16211 -2.75,-0.26224 -14.225,-0.74719 -25.5,-1.07617 -11.275,-0.32899 -23.65,-0.71196 -27.5,-0.85156 -3.85,-0.1396 -9.25,-0.31417 -12,-0.38867 l -5,-0.13477 V 304.75 c 0,-8.93779 -0.20434,-32.45 -0.453125,-52.25 -0.442862,-35.24597 -0.411444,-35.99577 1.5,-35.80273 22.067661,2.22862 25.77414,2.44816 64.453125,3.8125 8.525,0.30071 17.75,0.77399 20.5,1.05273 14.93797,1.51411 17.34337,1.47021 17.81445,-0.32812 0.24986,-0.95386 0.52142,5.91562 0.60352,15.26562 0.0821,9.35 0.31684,23.075 0.52148,30.5 0.20463,7.425 0.47713,22.05 0.60547,32.5 0.30279,24.6542 0.61913,27.5 3.06055,27.5 1.93789,0 2.63779,-1.56502 0.96875,-2.16602 C 148.20965,324.52266 146.5,247.59131 146.5,209 c 0,-16.0573 0.0568,-16.50793 2.12305,-16.80273 2.11406,-0.30163 2.12264,-0.2051 2,22.5 -0.14389,26.63637 0.47708,39.80273 1.87695,39.80273 0.55,0 1.14456,-1.0125 1.32031,-2.25 0.40879,-2.87832 2.64182,-2.90205 14.00196,-0.14453 8.96806,2.17688 10.81621,3.05311 9.82421,4.6582 -0.34671,0.56099 -3.9109,0.21532 -8.86328,-0.86133 -10.1355,-2.20348 -13.51053,-2.31759 -15.31445,-0.51367 -1.92149,1.92149 -1.66695,70.60042 0.26172,70.60742 0.67702,0.002 1.52588,-1.1658 1.88476,-2.5957 0.64637,-2.57534 0.72279,-2.5945 8.26758,-2.08398 4.1891,0.28346 8.85469,0.82928 10.36719,1.21484 4.21771,1.07517 3.29889,-1.0531 -1,-2.31641 -2.0625,-0.60611 -6.7875,-1.22891 -10.5,-1.38476 -6.32261,-0.26541 -6.75,-0.43095 -6.75,-2.61524 0,-1.28257 0.40216,-2.08359 0.89453,-1.77929 0.49236,0.3043 1.15338,-0.11957 1.46875,-0.94141 0.74857,-1.95074 5.14574,-1.91298 14.63867,0.12695 l 7.54688,1.62305 0.28906,8.62695 c 0.15934,4.74554 0.61144,11.32891 1.00391,14.62891 0.39247,3.3 0.70054,10.12865 0.68554,15.17578 -0.0316,10.61648 -1.18168,12.93428 -8.75195,17.64258 -4.97275,3.09278 -17.17582,6.63716 -22.94336,6.66406 -5.65907,0.0264 -6.83203,0.82107 -6.83203,4.625 0,1.86615 0.45,3.39258 1,3.39258 0.55,0 1,-1.06986 1,-2.37695 0,-2.2582 0.48545,-2.43607 9.75,-3.56641 7.3863,-0.90118 11.62884,-2.06036 17.5,-4.78125 4.2625,-1.97538 7.75,-3.97033 7.75,-4.43359 0,-0.46327 0.675,-0.8418 1.5,-0.8418 0.825,0 1.5,0.41871 1.5,0.93164 0,0.51294 0.9,1.21923 2,1.56836 1.1,0.34913 2,1.30727 2,2.12891 0,1.19722 0.86742,1.36301 4.36914,0.83789 4.24593,-0.63672 4.40137,-0.56364 5.5,2.58789 1.58469,4.54585 1.41662,6.11811 -0.61914,5.7832 -0.9625,-0.15835 -2.25917,0.0313 -2.88086,0.42188 -0.62169,0.39056 -3.99203,-0.22856 -7.49023,-1.37696 -4.55771,-1.49624 -7.63785,-1.91475 -10.86914,-1.47265 -5.38233,0.7364 -12.9368,3.38527 -14.97461,5.25 -1.25682,1.15008 -1.07409,1.33984 1.2832,1.33984 1.51053,0 4.36144,-0.675 6.33594,-1.5 4.1021,-1.71397 12.19226,-1.92391 20.67187,-0.53516 6.7035,1.09786 11.59233,0.41056 12.41992,-1.74609 0.60951,-1.58836 -2.55564,-11.98411 -3.90234,-12.81641 -0.43819,-0.27082 -2.67428,0.013 -4.96875,0.63086 -3.82666,1.03041 -4.36138,0.93089 -6.46484,-1.20508 -2.25585,-2.29068 -2.27654,-2.51497 -1.26172,-13.83398 1.36912,-15.27092 -0.92236,-44.2649 -4.57617,-57.91797 -2.12826,-7.95263 -2.35319,-10.08937 -1.48047,-13.98242 0.5665,-2.52709 0.95944,-8.64375 0.87304,-13.59375 -0.23943,-13.71188 5.34897,-35.53226 9.50977,-37.12891 1.65477,-0.63499 14.03175,2.12464 19.24414,4.29102 1.84134,0.7653 6.91604,1.33789 11.86328,1.33789 h 8.64453 l -0.6914,4.75 c -0.97598,6.70047 -9.04903,20.19597 -17.31446,28.94531 -5.89339,6.23842 -4.47853,10.24402 3.63672,10.29102 1.2971,0.008 7.08691,1.61266 12.86524,3.5664 5.77832,1.95374 10.72291,3.33373 10.98828,3.06836 1.0227,-1.02271 -10.75472,-5.87705 -23.48828,-9.68164 -4.32667,-1.29274 -5.17034,-3.2023 -1.64454,-3.72265 1.62263,-0.23947 14.43085,3.64562 20.8086,6.3125 1.33845,0.55968 1.76153,0.41546 1.45703,-0.49805 -0.40562,-1.21685 -12.94048,-6.10224 -19.25977,-7.50586 l -2.91601,-0.64648 2.41601,-2.38868 2.41602,-2.39062 6.73242,1.88281 c 3.70316,1.03502 6.97427,1.49411 7.26758,1.01953 0.71307,-1.15378 -0.0464,-1.51281 -6.5,-3.0664 -3.025,-0.72822 -5.63558,-1.40939 -5.80078,-1.51367 -0.1652,-0.10429 1.5223,-2.79056 3.75,-5.97071 C 226.17692,259.27102 228,256.0678 228,255.33398 228,254.60016 228.41412,254 228.91992,254 c 0.93601,0 3.07256,5.88139 5.08594,14 2.87473,11.59184 8.43173,26.76556 10.98047,29.98047 1.53487,1.93605 5.05556,5.31953 7.82422,7.51953 4.42324,3.51475 7.91839,8.10505 6.92578,9.09766 -0.45702,0.45702 -11.26285,-2.94877 -16.23633,-5.11719 -4.30929,-1.87883 -17.33516,-3.70726 -18.99023,-2.66602 -0.5554,0.34941 0.56523,0.93499 2.49023,1.30078 10.88128,2.06769 14.67084,3.12476 21.23828,5.92579 4.65392,1.98491 8.21375,2.90837 9.91406,2.57226 2.19134,-0.43317 2.76089,-0.0986 3.26954,1.92774 0.33861,1.34917 3.65387,5.53979 7.36718,9.3125 7.31087,7.42783 12.19572,16.11234 16.84961,29.95117 3.11028,9.24875 3.91595,16.8121 2.56836,24.13086 -0.55045,2.98975 -0.77539,6.02725 -0.49805,6.75 0.81189,2.11575 6.62022,1.52135 10.08008,-1.03125 3.88331,-2.86502 6.42843,-6.11216 8.15039,-10.4043 0.71713,-1.7875 1.69837,-3.25 2.18164,-3.25 0.48327,0 0.87891,-1.63071 0.87891,-3.62305 0,-3.09883 -0.21515,-3.44265 -1.49219,-2.38281 -0.82106,0.68142 -1.98992,3.09962 -2.59765,5.37305 -0.60772,2.27343 -1.6065,4.74407 -2.21875,5.49023 -0.61225,0.74616 -1.59294,2.32116 -2.17969,3.5 -1.15053,2.31153 -8.3375,5.21719 -9.65234,3.90235 -0.44054,-0.44052 -0.13588,-3.01339 0.67773,-5.7168 0.81361,-2.70342 1.29287,-5.61851 1.06445,-6.47852 C 290.8308,367.3973 290.87789,367 293.43359,367 c 1.5158,0 3.80179,-1.36998 5.91407,-3.54492 2.89275,-2.97858 3.88647,-3.43401 6.22265,-2.84766 l 2.78125,0.69727 -2.34961,-3.80078 -2.34961,-3.80079 5.92383,0.67774 c 8.69819,0.99515 24.28355,6.1865 29.23438,9.73828 4.69403,3.36755 5.75462,3.2695 4.82226,-0.44531 -0.49801,-1.98421 -2.18216,-2.97421 -9.36914,-5.50586 -4.81959,-1.69772 -12.81367,-3.79185 -17.76367,-4.6543 -14.26219,-2.48496 -14.2586,-2.48503 -14.84375,-4.72265 -0.54036,-2.06635 -0.38389,-2.08475 11.64844,-1.45508 11.9907,0.6275 20.62624,2.87139 24.99609,6.49804 2.02626,1.68165 5.15526,0.42093 3.60156,-1.45117 C 341.27096,351.62204 340.29169,351 339.72461,351 c -0.56709,0 -3.55084,-1.19532 -6.62891,-2.65625 -4.61047,-2.18825 -7.93017,-2.83731 -18.8457,-3.67969 -9.3231,-0.71949 -13.25,-1.38962 -13.25,-2.26172 0,-0.68169 -0.27357,-1.95033 -0.60742,-2.82031 -0.52269,-1.36211 0.51874,-1.58203 7.49023,-1.58203 8.54264,0 20.5703,2.6932 27.32813,6.11914 4.33592,2.19813 5.79882,2.35839 5.76172,0.63086 -0.0328,-1.52621 -10.30221,-6.10586 -18.47266,-8.23828 -3.3,-0.86128 -9.9375,-1.84619 -14.75,-2.1875 -8.38389,-0.59461 -8.75,-0.71982 -8.75,-3.00781 v -2.38868 l 9.25,0.66993 c 6.31166,0.45643 12.55517,1.74083 19.65625,4.04492 5.72381,1.85721 10.63761,3.14755 10.91797,2.86719 0.83246,-0.83245 0.15346,-1.13617 -11.07227,-4.95899 -7.97991,-2.7175 -13.2403,-3.83917 -20.42968,-4.35547 -9.5382,-0.68498 -9.69425,-0.73732 -10.43165,-3.5039 -1.18133,-4.43225 -0.28851,-4.51375 18.60743,-1.67969 3.84923,0.57732 8.82948,1.93665 11.0664,3.01953 4.30479,2.08391 6.43555,2.47521 6.43555,1.18359 0,-1.35551 -5.29831,-3.91037 -10.5,-5.06445 -2.75,-0.61012 -9.70911,-1.60136 -15.46484,-2.20312 C 295.62589,317.75445 295,317.57176 295,315.44141 c 0,-3.28597 19.89526,-1.07062 32.39844,3.60742 3.15626,1.1809 5.97935,1.90735 6.27148,1.61523 1.31505,-1.31506 -1.43391,-2.78123 -10.94531,-5.84375 -8.36827,-2.69446 -11.81387,-3.29201 -18.97461,-3.29101 -4.8125,9e-4 -8.75,-0.29509 -8.75,-0.65625 0,-2.60447 26.02739,-2.78071 31.41211,-0.21289 1.87329,0.89331 4.12109,1.34944 4.99609,1.01367 2.18946,-0.84017 2.0629,-4.65205 -0.1582,-4.75781 -3.22223,-0.15344 -5.72136,-0.73935 -9.75,-2.28907 -2.2,-0.84629 -4.81329,-1.55988 -5.80664,-1.58398 -2.18333,-0.0531 -11.75618,-4.72367 -19.5957,-9.5625 -3.15192,-1.94547 -8.59829,-4.57062 -12.10352,-5.83203 -5.18779,-1.8669 -6.70248,-2.93047 -8.14062,-5.72071 -2.63027,-5.10316 -3.26704,-15.22943 -1.8711,-29.7539 l 1.2461,-12.96094 7.24414,-0.67773 c 3.98383,-0.37335 8.81968,-0.38283 10.74609,-0.0215 2.83118,0.53113 3.63429,0.30966 4.19531,-1.15234 0.43735,-1.1397 0.11536,-2.23182 -0.87109,-2.95313 -2.01449,-1.47303 -0.26022,-3.11475 4.30273,-4.02734 3.2493,-0.64987 3.52473,-1.12027 3.16211,-5.38086 -0.22629,-2.65874 -0.39009,-2.90597 -9.22656,-13.7793 C 281.67547,195.09401 277.8841,188 282.375,188 c 2.01093,0 9.79527,-8.89487 12.37109,-14.13672 2.23773,-4.55381 5.26086,-16.55338 5.25586,-20.86328 -0.004,-3.55166 -2.5533,-15.29411 -3.8457,-17.70898 -5.02562,-9.39046 -11.83779,-17.2092 -20.92969,-24.02149 C 269.89044,107.27133 264.95571,104 264.26172,104 263.56772,104 263,103.35015 263,102.55664 263,99.541197 253.5731,81.787291 251.54883,80.990234 250.42174,80.546444 247.475,78.064336 245,75.472656 c -4.98425,-5.21922 -14.61479,-10.256302 -16.33008,-8.541015 -0.56978,0.569755 -0.84185,1.176008 -0.60351,1.347656 0.23833,0.171648 3.13359,2.090607 6.43359,4.265625 3.3,2.175019 9.25504,7.330078 13.23438,11.455078 5.71217,5.921269 7.23823,8.13713 7.25,10.527344 0.008,1.665121 0.61215,3.915121 1.34179,5 0.72964,1.084876 2.34035,4.897656 3.57813,8.472656 1.23778,3.575 3.31497,8.75 4.61718,11.5 7.16611,15.13337 8.31515,22.55751 4.74219,30.63477 l -1.9707,4.45703 -7.89649,1.16601 c -4.34305,0.64142 -13.2934,1.44723 -19.89062,1.79102 -6.59723,0.34379 -12.24064,1.02373 -12.54102,1.50976 -0.30039,0.48604 -2.2354,0.61024 -4.29882,0.27539 -3.50845,-0.56934 -4.00268,-1.1138 -7.63477,-8.39257 -3.25357,-6.52019 -3.63334,-7.87955 -2.33203,-8.37891 2.20578,-0.84644 3.78186,0.7922 5.77148,6.00195 1.83716,4.81053 3.83285,5.41308 4.32618,1.30664 0.18199,-1.51502 -0.4968,-3.19399 -1.75,-4.32812 -1.12603,-1.01905 -2.02114,-2.34501 -1.99024,-2.94727 0.031,-0.60225 3.22986,-2.61087 7.10938,-4.46289 l 7.05468,-3.36719 2.63868,2.64844 c 2.10095,2.10745 2.35844,2.82358 1.26171,3.50586 -0.75798,0.47154 -1.06737,1.35725 -0.68945,1.96875 0.72995,1.18108 5.80639,1.53931 6.86133,0.48438 0.90053,-0.90053 -1.73552,-5.53377 -4.46485,-7.84766 -3.56681,-3.02393 -0.3343,-3.08131 6.37696,-0.11328 6.43777,2.84709 7.80382,4.37644 5.44726,6.09961 -2.15598,1.57648 -2.0838,2.18767 0.41211,3.52344 2.62848,1.40672 4.93555,-0.29709 4.93555,-3.64258 0,-4.55749 -4.85093,-8.41353 -12.99023,-10.32617 -7.39152,-1.73691 -7.44426,-1.77186 -9.07032,-6.15625 C 229.54774,113.06874 226,101.10904 226,98.146484 c 0,-2.606434 -0.36495,-3.21762 -1.75,-2.933593 -2.4034,0.492856 -1.97623,4.062598 1.91797,16.035159 1.74377,5.36115 2.86306,10.05295 2.48828,10.42773 -0.37478,0.37478 -2.04649,-0.32708 -3.71484,-1.56055 -1.66835,-1.23347 -8.36837,-5.82375 -14.88868,-10.20117 l -11.85351,-7.95898 -0.69531,-6.917971 C 197.12176,91.232077 197.07886,87.68132 197.4082,87.148438 198.19877,85.869264 197.0608,83 195.76367,83 c -0.64879,0 -0.85078,2.918852 -0.55664,8 0.25471,4.4 0.0911,8 -0.36328,8 -0.45435,0 -2.20143,-2.3625 -3.88086,-5.25 -1.67944,-2.8875 -3.45671,-5.925 -3.94922,-6.75 -0.49251,-0.825 -1.16822,-2.78709 -1.50195,-4.361328 -0.59792,-2.820405 -0.63694,-2.835024 -2.66602,-1 -4.23022,3.825648 -5.86005,8.33414 -15.95117,44.123048 -2.67693,9.49394 -5.88575,19.36795 -7.13086,21.9414 -2.25316,4.65711 -7.11727,9.27727 -8.4082,7.98633 -0.37256,-0.37256 -0.77401,-13.16798 -0.89258,-28.43359 -0.11856,-15.26561 -0.5513,-31.429278 -0.96094,-35.917969 l -0.74414,-8.160157 -7.34961,-8.082031 c -4.04223,-4.445165 -8.01911,-9.3237 -8.83593,-10.839844 -0.81682,-1.516144 -3.30316,-4.522475 -5.52735,-6.68164 C 124.82074,55.415054 123,53.337789 123,52.958984 123,52.580179 121.65449,50.746796 120.00977,48.884766 118.36505,47.022736 116.75876,44.7125 116.44141,43.75 116.12407,42.7875 115.48512,42 115.02148,42 c -0.46363,0 -2.67495,-2.899929 -4.91406,-6.445312 -2.23911,-3.545387 -5.54215,-8.092407 -7.33984,-10.103516 C 94.68571,16.409853 89.309947,11.003059 88.441406,11.042969 Z m 99.402344,1.238281 c -8.94045,-0.239005 -18.25225,0.87428 -23.13867,3.179688 -1.76288,0.831724 -4.55508,1.487301 -6.20508,1.457031 -1.65,-0.03028 -7.725,0.446904 -13.5,1.060547 -13.31462,1.414791 -13.99835,2.100735 -10.00391,10.013672 C 137.82723,33.600651 142.92334,39 145.38477,39 c 0.67695,0 2.02855,1.808829 3.0039,4.019531 2.861,6.4846 6.49542,10.22701 9.25977,9.533203 C 159.26929,52.145926 160,52.392701 160,53.347656 c 0,0.76192 2.19703,3.788057 4.88281,6.72461 2.68577,2.936553 5.72327,6.933997 6.75,8.882812 1.02672,1.948815 3.36692,5.056881 5.19922,6.908203 2.90803,2.938227 3.79771,3.296502 7,2.810547 2.55729,-0.388074 4.72818,0.01733 7.16797,1.341797 1.925,1.045007 3.75123,1.920306 4.05859,1.943359 0.95037,0.07128 12.3826,-6.978737 13.44141,-8.289062 2.01642,-2.495404 9.10464,-5.952513 12.90039,-6.291016 4.71587,-0.42056 5.46141,-1.0057 3.35547,-2.638672 -0.8793,-0.681818 -2.75607,-4.030466 -4.16992,-7.441406 l -2.57032,-6.203125 2.60938,-6.015625 c 1.65161,-3.808296 2.38697,-6.899565 2.00391,-8.425781 -0.3328,-1.325975 -3.08587,-4.931575 -6.11719,-8.011719 C 213.48039,25.562435 211,22.21124 211,21.195312 c 0,-2.563544 -3.74307,-5.640198 -8.5,-6.988281 -4.06177,-1.151079 -9.29198,-1.782378 -14.65625,-1.925781 z m -97.453125,2.068359 c 0.190546,0.02464 0.34276,0.130252 0.464844,0.306641 0.354244,0.511822 2.718796,4.060341 5.253906,7.886719 5.850875,8.831044 18.439035,25.414353 24.365235,32.099609 2.50754,2.828719 6.80693,8.003719 9.55469,11.5 2.74775,3.496281 7.03031,8.948064 9.51758,12.115234 5.56675,7.088567 6.28841,8.743735 3.81054,8.740235 C 141.54494,86.995463 128,72.058536 128,70.0625 128,69.532381 127.40684,68.738658 126.68164,68.298828 125.95644,67.858999 123.70921,65.025 121.6875,62 119.66579,58.975 116.44261,54.475 114.52539,52 112.60817,49.525 108.9278,44.575 106.34766,41 90.61465,19.200694 91.591576,20.108198 87.802734,23.759766 86.239271,25.266584 81.989965,30.775 78.359375,36 74.728785,41.225 70.73318,46.625 69.480469,48 68.227757,49.375 64.253366,55.225 60.648438,61 47.195008,82.552037 43.769326,87.769391 41.375,90.351562 39.982914,91.852865 37.837518,93 36.423828,93 c -2.2751,0 -2.388467,-0.198072 -1.296875,-2.25 0.658329,-1.2375 2.27573,-3.398169 3.59375,-4.800781 1.318019,-1.402612 2.932389,-3.462825 3.587891,-4.580078 C 42.964097,80.251889 46.425,74.846498 50,69.357422 53.575,63.868346 56.95,58.679208 57.5,57.826172 59.245273,55.1193 70.724913,38.881084 78.585938,28 85.882413,17.900348 89.056803,14.177133 90.390625,14.349609 Z M 181.5,15.419922 c 8.64772,-0.58722 21.02756,1.662326 23.66602,4.300781 1.87173,1.871729 1.78124,1.889658 -5.38086,1.054688 -4.00665,-0.4671 -10.8405,-0.570648 -15.18555,-0.230469 -4.34506,0.340178 -8.94187,1.014062 -10.21484,1.498047 -1.45593,0.553542 -2.54937,0.501232 -2.94727,-0.142578 -0.3479,-0.56291 -1.71359,-1.435039 -3.03516,-1.9375 -5.5133,-2.096154 -1.27194,-3.567207 13.09766,-4.542969 z m -34.72656,3.882812 c 1.51431,-0.05651 3.09332,-0.05329 4.68164,0 9.5299,0.319733 19.42617,2.462205 18.10156,4.605469 -0.28782,0.465707 -2.53506,1.351498 -4.99414,1.970703 -4.65397,1.171883 -11.73068,5.439876 -14.98438,9.035156 -1.91441,2.115395 -3.70048,2.63155 -4.9121,1.419922 -1.30385,-1.303851 -0.63354,-3.043814 1.58398,-4.113281 2.00732,-0.968095 1.79161,-1.091964 -2,-1.152344 -2.34785,-0.03739 -4.25,-0.554725 -4.25,-1.154297 0,-0.70354 2.28695,-0.967367 6.50195,-0.75 4.0334,0.208004 6.37736,-0.04376 6.17188,-0.664062 -0.18219,-0.55 -3.86064,-1.225 -8.17383,-1.5 -5.52065,-0.351985 -7.98088,-0.917701 -8.30859,-1.910156 -0.38886,-1.177631 1.15576,-1.303445 9.37304,-0.763672 8.65399,0.568459 9.66007,0.470617 8.36719,-0.822266 -0.9776,-0.977604 -3.89117,-1.534854 -8.70117,-1.664062 -8.15225,-0.218989 -9.46758,-1.261431 -2.75391,-2.181641 1.33296,-0.182702 2.78257,-0.298955 4.29688,-0.355469 z m 47.89844,3.792969 c 4.82964,0.126379 9.06076,0.718642 11.61718,1.814453 5.8544,2.509489 12.45943,9.233812 13.25977,13.5 0.6926,3.691852 -2.46815,11.237693 -5.13672,12.261719 -1.8646,0.715513 -2.13114,0.439399 -2.56445,-2.660156 -0.23705,-1.695651 0.12994,-2.4917 1.15234,-2.5 7.27178,-0.05935 -8.74886,-7.625279 -20,-9.445313 -13.56475,-2.194293 -23.57459,-0.712564 -31.28516,4.63086 -3.62686,2.513416 -6.3725,5.977099 -5.46093,6.888672 0.22851,0.228509 2.40152,-1.071703 4.83007,-2.890626 5.6866,-4.259115 12.98963,-6.711056 19.91602,-6.685546 6.52079,0.02402 6.92244,0.246355 10.35742,5.730468 C 194.08543,48.09564 204.46649,56.9989 206.81836,57 c 0.77226,3.69e-4 1.11729,-0.724189 0.83398,-1.75 -0.26583,-0.9625 -0.78023,-4 -1.14257,-6.75 l -0.66016,-5 2.25391,2.205078 c 1.77759,1.74052 2.30538,3.504416 2.5039,8.361328 0.19518,4.775163 0.75337,6.690126 2.49219,8.541016 1.23266,1.312104 2.05165,2.548841 1.82031,2.75 -0.23134,0.20116 -4.85224,3.352897 -10.26953,7.003906 C 199.23311,76.012338 194.19673,79 193.45898,79 c -2.93041,0 -2.33631,-2.052821 1.25391,-4.333984 4.16695,-2.647604 6.65321,-5.236368 7.60352,-7.916016 0.92319,-2.603205 -0.12544,-2.130419 -3.08985,1.392578 -3.45578,4.10696 -9.5623,6.808568 -15.45312,6.835938 -4.00946,0.01863 -4.98852,-0.376244 -6.44532,-2.59961 -1.64134,-2.504999 -1.63165,-2.685216 0.22657,-4.074218 1.40517,-1.050344 3.33204,-1.280494 6.94531,-0.828126 l 5,0.626954 -3.25586,-3.289063 c -2.8403,-2.868267 -3.50877,-3.129659 -5.23633,-2.050781 C 178.71005,64.198644 173,64.429695 173,63.087891 c 0,-0.501656 1.79702,-1.21669 3.99414,-1.587891 4.49549,-0.759508 5.27314,-1.450186 3.97852,-3.544922 -0.7676,-1.242003 -1.40602,-1.177636 -4.44141,0.457031 -1.9491,1.049661 -3.76386,1.689267 -4.0332,1.419922 -0.26935,-0.269346 -0.77258,-2.703622 -1.11914,-5.410156 -0.98689,-7.707204 -6.27951,-10.743269 -11,-6.308594 l -2.25,2.115235 -2.92969,-2.085938 c -3.31545,-2.360809 -4.7585,-7.823048 -3.05469,-11.5625 0.98034,-2.151619 11.21859,-7.957724 18.35547,-10.410156 6.4083,-2.202073 16.12244,-3.28485 24.17188,-3.074219 z M 89.441406,26 c 0.264445,0 3.045276,3.4875 6.181641,7.75 3.136365,4.2625 5.975673,7.975 6.308593,8.25 1.29316,1.068179 10.78982,13.18744 15.03516,19.1875 4.18929,5.920836 16.69615,21.484013 19.93945,24.8125 1.63432,1.677242 -3.32113,2.06764 -43.90625,3.455078 -11.275,0.385445 -23.65,0.86782 -27.5,1.072266 -3.85,0.204446 -9.927386,0.654796 -13.505859,1 -3.578473,0.345202 -6.82491,0.309886 -7.212891,-0.07813 -0.387981,-0.387981 0.783928,-2.561246 2.603516,-4.828125 C 53.164782,79.420262 60,69.06213 60,67.503906 60,66.676414 60.390369,66 60.867188,66 c 0.476818,0 2.93208,-3.07842 5.457031,-6.841797 2.524952,-3.763377 5.308138,-7.437499 6.183593,-8.164062 0.875456,-0.726564 2.46298,-3.231937 3.527344,-5.56836 1.064363,-2.336423 2.30845,-4.401753 2.765625,-4.58789 C 79.257956,40.651755 81.729781,37.2375 84.294922,33.25 86.860063,29.2625 89.176961,26 89.441406,26 Z m 106.531254,1.193359 c -7.66867,0.44325 -7.23413,2.2513 0.62109,2.587891 3.91759,0.167867 8.05611,1.032873 10.24023,2.140625 4.59641,2.331228 5.16602,2.407643 5.16602,0.693359 0,-2.370626 -10.04403,-5.76771 -16.02734,-5.421875 z m -22.35547,3 c -3.7055,0.131933 -7.95385,0.744864 -8.80274,1.59375 -0.66924,0.669236 0.93818,0.90658 4.8418,0.714844 3.2143,-0.157879 6.88238,-0.335611 8.15234,-0.394531 1.44041,-0.06683 2.04735,-0.530048 1.61329,-1.232422 -0.21049,-0.340575 -1.13466,-0.548306 -2.42579,-0.644531 -0.96834,-0.07217 -2.14374,-0.08109 -3.3789,-0.03711 z m 19.93359,0.81836 c -2.28625,-0.02856 1.41033,1.891703 7.44922,3.86914 3.575,1.170636 7.85,2.966746 9.5,3.990235 3.0391,1.885141 5.06736,1.857543 3.88672,-0.05273 -1.21706,-1.969253 -16.65673,-7.75443 -20.83594,-7.80664 z m -2.63476,0.111328 c -0.3474,-0.01431 -0.74259,0.04892 -1.10352,0.193359 -0.79773,0.319226 -0.56143,0.557489 0.60352,0.605469 1.05416,0.04342 1.64479,-0.193099 1.3125,-0.525391 -0.16615,-0.166147 -0.46511,-0.259128 -0.8125,-0.273437 z M 193.07617,39 C 194.13402,39 195,39.505702 195,40.123047 c 0,0.767597 0.48112,0.72247 1.52344,-0.142578 1.92917,-1.60107 2.0994,-1.386145 2.95117,3.769531 0.46686,2.825861 0.33663,4.25 -0.38672,4.25 C 198.48954,48 198,47.636284 198,47.191406 c 0,-0.444879 -0.70843,-1.682379 -1.57422,-2.75 C 195.56,43.373784 195.13612,43.0625 195.48438,43.75 c 0.34825,0.6875 0.19061,1.25 -0.35157,1.25 -0.54218,0 -1.6593,-1.35 -2.48242,-3 -1.40293,-2.812229 -1.37719,-3 0.42578,-3 z m -13.23633,2.078125 c -1.58638,0.0282 -2.88063,0.552561 -4.01172,1.576172 -2.08009,1.882464 -2.45924,6.924548 -0.57812,7.683594 C 177.54325,51.263236 184,51.013856 184,50 c 0,-0.55 -0.50571,-1 -1.12305,-1 -0.77948,0 -0.7444,-0.454831 0.11328,-1.488281 1.00083,-1.205926 0.92632,-1.607179 -0.39257,-2.113281 -0.89516,-0.343503 -2.59374,-0.371508 -3.77539,-0.0625 -1.95737,0.511862 -2.00867,0.422721 -0.57032,-1.015626 2.06395,-2.063952 6.76933,-0.953803 7.48047,1.765626 0.60532,2.314728 2.6151,2.030732 3.09375,-0.4375 0.22053,-1.137203 -0.82583,-2.168955 -3.21679,-3.167969 -2.30372,-0.962552 -4.18315,-1.430544 -5.76954,-1.402344 z m 21.44922,0.01758 c 0.35979,-0.02833 0.84568,0.01905 1.48633,0.09375 2.53314,0.295369 2.66546,0.582609 2.56836,5.607422 -0.0563,2.912859 -0.34522,5.538578 -0.64258,5.835937 -0.9414,0.941407 -3.43777,-3.982034 -4.02734,-7.943359 -0.40834,-2.743571 -0.46412,-3.50876 0.61523,-3.59375 z M 165,49 c 1.65,0 3,0.45 3,1 0,0.55 -0.41296,1 -0.91797,1 -0.50502,0 -1.54151,0.239146 -2.30273,0.53125 -0.76121,0.292104 -1.69826,0.217755 -2.08203,-0.166016 C 161.23338,49.901348 162.11074,49 165,49 Z m 50.89258,4 c 0.93267,0 1.75578,1.633558 3.13867,6.236328 1.0116,3.366994 -0.20453,4.33636 -2.39844,1.91211 C 214.92046,59.256321 214.35224,53 215.89258,53 Z M 181.5,70 c -0.825,0 -1.5,0.45 -1.5,1 0,0.55 0.675,1 1.5,1 0.825,0 1.5,-0.45 1.5,-1 0,-0.55 -0.675,-1 -1.5,-1 z m 3.5,18 c 0.55,0 1,0.871799 1,1.9375 0,2.96935 6.86456,12.15747 11.95117,15.99609 4.47571,3.3776 13.20321,9.313 24.07031,16.3711 5.87729,3.81725 10.74134,9.38036 9.33008,10.66992 -0.46873,0.4283 -3.45554,1.73441 -6.63867,2.90234 -7.29553,2.6768 -11.0022,2.55369 -19.71289,-0.65429 -8.70502,-3.20589 -13.74597,-7.74261 -19.27148,-17.3418 -3.17922,-5.52309 -4.82131,-11.31587 -5.45118,-19.236329 -0.56203,-7.067544 1.12349,-9.794654 2.13672,-3.457031 1.0258,6.41621 7.37254,16.3599 9.2461,14.48633 0.33622,-0.33621 -0.0555,-1.63792 -0.86914,-2.89258 C 188.8002,103.71126 184,91.552424 184,89.580078 184,88.711383 184.45,88 185,88 Z m -41.63867,2.109375 c 0.25418,-0.01239 0.54814,0.02264 0.88281,0.07031 1.57032,0.223658 2.43423,1.220551 2.88086,3.320312 0.35097,1.65 0.69076,16.97328 0.75586,34.05078 0.0875,22.95269 -0.19302,31.36294 -1.08008,32.25 -0.66,0.66 -1.4475,1.19731 -1.75,1.19531 -0.3025,-0.002 -0.67915,-8.66432 -0.83594,-19.25 C 144.05804,131.16047 143.49617,116.65 142.9668,109.5 141.71707,92.620479 141.58203,90.196128 143.36133,90.109375 Z M 134.63086,91 h 5.63086 l -0.61914,3.75 c -0.34091,2.0625 -0.62486,4.7625 -0.63086,6 -0.006,1.2375 -0.34922,2.22895 -0.76172,2.20312 -1.13599,-0.0712 -18.61131,-8.966611 -19.69922,-10.027339 -2.40518,-2.345073 4.21768,-0.59482 10.01367,2.646485 C 134.34603,98.805508 137,99.285447 137,97.09375 137,96.659741 135.2,95.492062 133,94.5 130.8,93.507938 129,92.314125 129,91.847656 129,91.381187 131.5339,91 134.63086,91 Z m -25.11524,1.476562 c 1.99027,-0.17139 7.57382,2.302409 15.48438,6.896485 1.375,0.798533 5.07931,2.503383 8.23242,3.789063 4.57142,1.86399 5.7364,2.79375 5.75,4.58789 0.0191,2.52313 -0.16106,2.67097 -1.5625,1.26953 -0.53952,-0.53952 -7.43566,-4.17378 -15.32422,-8.07617 -10.68876,-5.287623 -14.05378,-7.383725 -13.20898,-8.228516 0.13395,-0.133951 0.34464,-0.213797 0.6289,-0.238282 z m -22.853511,0.623047 c 1.697981,-0.01598 9.803911,3.666199 27.007811,12.152341 12.54116,6.18618 23.14611,11.3987 23.56641,11.58203 0.42031,0.18334 0.76367,-0.29369 0.76367,-1.05859 0,-1.39659 -10.027,-7.1611 -24,-13.79883 -10.34768,-4.915534 -13.76992,-6.794693 -14.488281,-7.957029 -0.94687,-1.532068 1.816111,-0.377065 15.988281,6.683589 19.54879,9.73937 23.41435,12.1113 24.08398,14.7793 0.32571,1.29766 0.44011,3.07785 0.25391,3.95508 -0.29813,1.40449 -0.75588,1.35368 -3.83789,-0.41602 -6.71124,-3.85361 -20.5399,-10.78625 -26,-13.03515 -8.92161,-3.67462 -21.3834,-10.003254 -23,-11.679689 -0.758398,-0.786469 -0.903884,-1.201705 -0.337891,-1.207032 z m -12.472656,0.84375 C 76.49973,93.735566 81.973577,95.579249 88.806641,99 c 5.493216,2.75 10.682143,5 11.531249,5 0.84912,0 1.79873,0.41141 2.10938,0.91406 0.31066,0.50265 3.82429,2.1695 7.80859,3.70313 3.9843,1.53364 11.58622,5.39722 16.89258,8.58593 5.30636,3.18874 10.36886,5.79688 11.25,5.79688 1.04222,0 1.60156,0.87365 1.60156,2.5 0,1.375 -0.3375,2.46222 -0.75,2.41602 -0.4125,-0.0462 -3.675,-1.86549 -7.25,-4.04297 -3.575,-2.17748 -10.775,-6.10146 -16,-8.72071 -5.225,-2.61924 -10.5125,-5.29994 -11.75,-5.95703 C 99.350867,106.59394 97.981369,106 96.876953,106 94.932902,106 73,95.761118 73,94.853516 c 0,-0.542638 0.419361,-0.840892 1.189453,-0.910157 z m -14.076172,0.261719 c 2.129638,-0.162926 7.018317,1.336592 12.046875,3.875 3.180572,1.605547 10.826098,4.971742 16.990235,7.480472 9.546576,3.88534 31.107029,13.69531 35.791019,16.28515 0.79227,0.43806 1.61597,1.32837 1.83203,1.97657 0.69644,2.08931 -6.04064,1.24717 -10.77344,-1.34571 -2.475,-1.35594 -6.075,-3.13393 -8,-3.95117 -1.925,-0.81723 -4.175,-1.94399 -5,-2.50391 -2.11088,-1.43261 -23.977659,-11.57501 -27,-12.52343 -5.720494,-1.79512 -17,-7.469884 -17,-8.552738 0,-0.446832 0.403402,-0.685925 1.113281,-0.740234 z m -8.912109,1.861328 c 1.358863,0.126705 3.234299,0.636248 5.296875,1.498047 2.058253,0.859992 10.471119,4.909997 18.695312,8.999997 C 83.417553,110.65446 90.573904,114 91.095703,114 c 0.976827,0 12.232417,5.20243 14.904297,6.88867 0.825,0.52066 2.9625,1.48825 4.75,2.15039 1.7875,0.66215 3.25,1.52766 3.25,1.92383 0,0.39616 -1.96771,0.75075 -4.37305,0.78711 -4.73251,0.0716 -13.864337,-4.31922 -14.968747,-7.19727 C 94.295504,117.60755 92.839491,117 90.935547,117 c -1.719858,0 -4.321346,-0.83449 -5.78125,-1.85352 C 81.833637,112.82861 72.629353,108.19126 68,106.50391 61.774625,104.23483 49,97.754826 49,96.865234 c 0,-0.669477 0.842308,-0.925533 2.201172,-0.798828 z m -12.615234,1.679688 c 0.621895,-0.09591 1.667626,0.03108 3.164062,0.439453 2.0625,0.562848 4.2,1.331507 4.75,1.708984 0.55,0.377479 3.5875,1.528939 6.75,2.558589 3.1625,1.02968 5.75,2.24832 5.75,2.70899 0,2.05984 -9.685253,0.64575 -15.25,-2.22656 -5.076617,-2.62036 -7.02975,-4.901725 -5.164062,-5.189456 z M 38.632812,103 c 0.347584,0 2.166827,0.9479 4.042969,2.10742 3.165711,1.95651 3.281293,2.20519 1.617188,3.43946 -1.712356,1.27003 -1.702873,1.39827 0.207031,2.85937 l 2,1.5293 -2,-0.0352 C 40.076269,112.82127 38,110.88804 38,106.84766 38,104.7317 38.285232,103 38.632812,103 Z m 225.910158,4.66016 c 0.53394,-0.0655 1.57852,0.43536 2.76562,1.36914 1.79801,1.41431 2.57075,2.7768 2.21289,3.90429 -0.32831,1.03442 0.30578,2.50287 1.57422,3.64844 5.27769,4.76645 10.77917,22.3564 9.72461,31.0918 -0.1792,1.48441 0.22994,2.83682 0.92969,3.07226 0.81936,0.27569 1.29441,-0.72716 1.37891,-2.91211 0.0709,-1.83333 0.23659,-4.68398 0.36718,-6.33398 0.37431,-4.7295 -1.53024,-12.55145 -4.38086,-18 -1.43877,-2.75 -2.95273,-5.15065 -3.36523,-5.33398 -0.4125,-0.18334 -0.75,-0.78361 -0.75,-1.33399 0,-2.01314 7.92568,5.34807 11.41016,10.59766 1.97177,2.9706 4.07398,5.56437 4.67187,5.76367 2.21434,0.73811 4.8978,15.73337 4.25,23.75195 -0.9596,11.87802 -3.44342,17.26406 -11.47656,24.90039 -7.9219,7.53057 -9.01993,8.07941 -21.85547,10.92188 -17.91464,3.96726 -37.27173,3.59523 -47,-0.9043 -7.85527,-3.63322 -15.88139,-9.02923 -20.4082,-13.7207 l -3.90821,-4.05078 3.69336,-4.50782 c 2.75098,-3.35721 4.64126,-4.67887 7.40821,-5.17968 2.04312,-0.36979 5.02494,-1.33653 6.62695,-2.14844 2.93991,-1.48996 4.8378,-1.39756 15.00977,0.72266 4.00064,0.83389 5.36131,0.73865 7.26367,-0.50782 1.77846,-1.16529 4.94937,-1.50258 13.20117,-1.40039 5.97325,0.074 11.70431,-0.30358 12.73633,-0.83984 1.03202,-0.53626 4.12695,-1.30158 6.87695,-1.70117 7.49472,-1.089 8.13885,-1.71964 10.05273,-9.83789 1.63968,-6.95512 1.63892,-7.73939 -0.0117,-15.26172 -0.95708,-4.36148 -2.97535,-9.95866 -4.48438,-12.43946 -3.01678,-4.95948 -5.41676,-11.40987 -4.86328,-13.07031 0.0508,-0.15232 0.17163,-0.23792 0.34961,-0.25976 z m -206.833986,0.42382 c 1.577967,-0.0551 3.228733,-0.0431 4.798828,0.0449 2.093463,0.11743 4.044564,0.37184 5.492188,0.78515 2.031044,0.57988 1.468298,0.83993 -3,1.39063 -7.684834,0.94713 -14.780548,0.85892 -15.429688,-0.19141 -0.678553,-1.09792 3.404773,-1.86384 8.138672,-2.0293 z M 175.64453,111 c 0.492,0 2.62934,7.0875 4.75,15.75 4.14582,16.93483 4.34135,17.53136 5.52344,16.80078 0.87369,-0.53997 -0.59454,-8.85035 -3.78906,-21.4375 -2.91928,-11.50266 -2.67197,-11.87366 1.73437,-2.58203 5.30154,11.17934 11.60065,16.2507 23.50391,18.92187 4.45638,1.00005 2.26079,1.9197 -6.35547,2.66016 -4.33744,0.37275 -9.15228,1.31246 -10.69922,2.08789 -1.54693,0.77544 -4.00913,2.19629 -5.4707,3.15821 -1.46157,0.96186 -2.89709,1.35904 -3.19141,0.88281 -0.47167,-0.76316 -1.79098,-7.76292 -4.66016,-24.74219 -0.46469,-2.75 -1.15901,-6.4625 -1.54296,-8.25 -0.38395,-1.7875 -0.29475,-3.25 0.19726,-3.25 z m -102.812499,1.37695 c 1.016664,0.194 2.442573,0.81273 4.75586,1.94727 3.001414,1.47203 6.06703,2.67578 6.8125,2.67578 0.745471,0 1.965835,0.73657 2.71289,1.63672 0.747054,0.90014 3.22702,2.43863 5.511719,3.41797 2.284699,0.97934 4.456168,2.26776 4.824219,2.86328 0.882079,1.42725 -6.669102,1.46182 -8.09375,0.0371 -0.5743,-0.5743 -5.40538,-3.20416 -10.736328,-5.8457 -8.457517,-4.19081 -9.489529,-4.97281 -8.091797,-6.13282 0.67903,-0.56354 1.288024,-0.79361 2.304687,-0.59961 z m -4.984375,0.22071 c 0.845249,0.6433 -3.37627,6.30805 -5.021484,6.73828 C 61.821606,119.59864 61,120.36046 61,121.0293 c 0,0.91965 0.334944,0.93681 1.376953,0.0723 1.072569,-0.89015 1.49783,-0.7517 1.914063,0.62696 0.294088,0.9741 1.498993,4.41832 2.677734,7.65429 1.178741,3.23597 1.838088,6.61097 1.466797,7.5 -0.37129,0.88903 -0.79464,2.86874 -0.941406,4.39844 -0.215802,2.24924 0.06781,2.67493 1.480468,2.22656 0.97752,-0.31025 2.799623,0.32201 4.136719,1.43555 l 2.388672,1.99023 -5.357422,0.0332 c -4.289165,0.0266 -5.244546,-0.25722 -4.796875,-1.42383 0.453009,-1.18052 0.08051,-1.27542 -1.958984,-0.5 -3.66785,1.39451 -7.474161,1.05604 -10.886719,-0.96875 -2.771791,-1.6446 -2.992016,-2.19138 -2.888672,-7.17774 0.06152,-2.9683 0.873595,-7.62137 1.804688,-10.34179 1.062868,-3.10542 1.467681,-6.28736 1.085937,-8.54688 l -0.609375,-3.59765 7.804688,-1.03907 c 4.291803,-0.57121 7.959302,-0.91887 8.15039,-0.77343 z m -29.708984,1.78515 c 0.578621,-0.23378 3.112322,0.81595 7.148437,3.33008 2.082782,1.29738 3.519148,2.79198 3.191407,3.32227 -0.783211,1.26727 -0.401855,1.41992 -5.759766,-2.28516 -3.783359,-2.61625 -5.158699,-4.13341 -4.580078,-4.36719 z m 30.859375,2.55274 c 0.934166,-0.12241 2.965242,0.91785 7.199219,3.55273 3.987939,2.48176 7.854983,4.51172 8.59375,4.51172 0.945925,0 1.23689,1.08785 0.984375,3.67969 -0.197215,2.02422 -0.78908,3.78084 -1.316407,3.90234 -2.423645,0.55844 -13.498947,-3.78663 -14.521484,-5.69726 -0.605032,-1.13051 -0.893772,-2.26249 -0.642578,-2.51368 0.251194,-0.25119 3.043274,0.68764 6.205078,2.08594 6.549982,2.89671 9.405775,3.33795 7.611328,1.17578 -1.014118,-1.22194 -11.099262,-5.0012 -13.597656,-5.0957 -1.207502,-0.0457 -1.885809,-3.12478 -1.125,-5.10742 0.108594,-0.28299 0.297986,-0.45334 0.609375,-0.49414 z m 104.046873,1.29101 c 0.51285,0.33783 1.4123,4.20633 2.29102,9.98633 3.2417,21.32299 3.30258,22.12307 1.89844,24.97852 -1.06398,2.16376 -1.07783,3.08537 -0.0762,4.68945 1.00073,1.60239 0.9872,2.47807 -0.0625,4.43945 -0.78811,1.47261 -1.04284,3.64442 -0.64258,5.4668 0.38947,1.77312 0.22627,3.2921 -0.39453,3.67578 -0.5822,0.35982 -1.05859,1.52538 -1.05859,2.58789 0,1.46471 -2.4785,3.11618 -10.25,6.83203 -12.77562,6.10851 -13.67567,6.35654 -16.75,4.60938 -1.375,-0.78142 -3.11266,-1.43753 -3.86133,-1.45703 C 142.58054,183.99459 133,176.2285 133,175.00586 c 0,-0.8042 4.19377,-3.69338 10.89453,-7.50586 1.93334,-1.1 6.61289,-5.03743 10.40039,-8.75 l 6.88672,-6.75 4.64258,3.9668 c 2.55291,2.18216 5.0013,3.6081 5.4414,3.16797 1.10983,-1.1098 -0.19471,-4.13477 -1.7832,-4.13477 -0.71726,0 -2.48367,-1.39979 -3.92383,-3.11133 -2.04642,-2.43203 -2.36567,-3.41496 -1.46679,-4.49805 0.95455,-1.15011 1.73086,-0.8766 4.56445,1.61133 3.98465,3.49856 6.61662,4.03286 3.68555,0.74805 -1.10423,-1.2375 -2.98414,-3.34824 -4.17578,-4.68945 C 166.97438,143.71934 166,142.19628 166,141.67383 c 0,-1.43428 5.96872,-21.79341 6.85156,-23.3711 0.0563,-0.10062 0.1201,-0.12425 0.19336,-0.0762 z m 21.05469,1.41992 c -0.23323,-0.0201 -0.39838,0.0271 -0.47461,0.1504 -1.14127,1.84659 8.79755,8.96439 15.875,11.36914 1.6317,0.55441 9.54014,0.44978 11.5,-0.15235 1.18061,-0.36272 -3.74652,-1.87926 -6.31445,-1.94336 -3.41033,-0.0852 -12.70967,-4.22286 -17.21875,-7.66211 -1.3562,-1.03442 -2.66751,-1.70136 -3.36719,-1.76172 z M 38.908203,120.55664 C 39.933966,119.92268 48,124.90971 48,126.17773 c 0,1.31735 -2.218921,0.84152 -6.25,-1.34179 -3.752379,-2.03237 -4.544464,-3.22699 -2.841797,-4.2793 z m 88.800777,6.82031 c 2.91823,2.91823 -27.66385,5.70658 -34.20898,3.11914 -1.639923,-0.6483 -1.776403,-0.54944 -0.757812,0.54883 0.683232,0.73668 3.244813,2.09864 5.691406,3.02735 4.191136,1.59089 5.073446,1.58574 15.257816,-0.0879 5.94518,-0.97704 12.09658,-2.10827 13.66992,-2.51563 2.66218,-0.68926 2.81096,-0.57612 2.16601,1.64453 -1.21283,4.17597 -4.06304,7.26158 -8.97461,9.71094 -5.79119,2.88803 -18.10525,3.80907 -23.501949,1.75781 C 92.830947,142.97814 89,137.65445 89,133.39453 c 0,-3.71533 2.06054,-4.62235 8.496094,-3.74023 2.267215,0.31076 9.889336,-0.17902 16.937496,-1.08789 7.04816,-0.90887 13.02145,-1.4434 13.27539,-1.18946 z m -88.011714,0.041 C 41.565687,127.55613 47,130.2095 47,131.18555 c 0,0.44814 -0.7875,0.80517 -1.75,0.79297 -2.097077,-0.0266 -6.978025,-3.58448 -6.109375,-4.45313 0.09513,-0.0951 0.289723,-0.12714 0.556641,-0.10742 z m 96.595704,2.30469 c 1.42461,-0.0426 2.92606,0.16233 3.41015,0.64648 0.25257,0.25257 0.3089,1.33861 0.12696,2.41406 -0.31354,1.85335 -0.50047,1.87537 -3.59961,0.39649 -1.79836,-0.85815 -3.09905,-2.03852 -2.89063,-2.6211 0.18032,-0.50401 1.52852,-0.79335 2.95313,-0.83593 z M 60.5,130 c -1.54641,0 -1.987512,1.18045 -0.861328,2.30664 C 60.437603,133.10557 62,132.20239 62,130.94141 62,130.42387 61.325,130 60.5,130 Z m 13.837891,2.07812 c 1.420812,0.12013 3.256815,0.61854 4.662109,1.42188 1.375,0.78602 3.463922,1.44536 4.642578,1.46484 2.094171,0.0346 3.357422,1.77148 3.357422,4.61719 0,0.78001 -0.3375,1.38967 -0.75,1.35547 -1.476153,-0.12236 -13.757355,-7.11193 -14.083984,-8.01562 -0.25521,-0.7061 0.751063,-0.96388 2.171875,-0.84376 z M 39.566406,133 C 41.79015,133 46,136.02003 46,137.61523 c 0,1.78993 -0.882112,1.71458 -4.226562,-0.35937 C 38.590004,135.28175 37.406661,133 39.566406,133 Z m 93.011714,1.58789 c 0.56248,0.047 1.32914,0.34615 2.41602,0.9082 1.58394,0.81904 3.58352,1.22059 4.44336,0.89063 1.17143,-0.44951 1.5625,0.0524 1.5625,2.00586 0,3.05833 -1.35887,3.19119 -5.5,0.53906 -1.65,-1.05672 -3.41785,-2.06134 -3.92773,-2.23437 -0.50988,-0.17303 -0.59695,-0.84894 -0.19336,-1.50196 0.27694,-0.44809 0.63678,-0.65442 1.19921,-0.60742 z m -57.976558,3.57227 c 1.242351,0.14115 3.367838,1.04514 6.898438,2.76953 3.3,1.61176 6.7875,3.17256 7.75,3.46875 0.9625,0.29619 1.75,1.02557 1.75,1.62109 0,0.67326 -2.088629,0.99827 -5.521484,0.85938 C 79.149863,146.62287 73,143.21592 73,139.96484 c 0,-1.32325 0.359212,-1.94584 1.601562,-1.80468 z m 56.341798,1.19531 c 2.49774,0.32606 10.01733,4.17985 10.03711,5.39453 0.0269,1.6549 -0.73656,1.54118 -5.45117,-0.81055 -4.51047,-2.2499 -6.15859,-3.6422 -5.3125,-4.48828 0.11534,-0.11534 0.36974,-0.14228 0.72656,-0.0957 z m -90.873048,0.61719 c 0.687695,0.0616 1.667174,0.3254 2.919922,0.85156 2.194406,0.92166 3.9944,2.23828 4,2.92578 0.01288,1.58308 -0.717188,1.50611 -4.740234,-0.49609 -3.681065,-1.832 -4.242765,-3.46618 -2.179688,-3.28125 z m 87.216798,3.00781 c 1.15015,-0.0439 2.10994,0.38158 3.89844,1.23828 2.02754,0.9712 3.89984,2.11201 4.16015,2.5332 0.56534,0.91474 -16.8144,1.44731 -17.71875,0.54297 -0.34467,-0.34468 1.73582,-1.57552 4.62305,-2.73437 2.54684,-1.02224 3.88696,-1.53617 5.03711,-1.58008 z M 207.71875,144 l 2.17578,6.63086 c 1.19718,3.64686 2.04793,6.74915 1.89063,6.89453 -0.1573,0.14539 -3.43516,1.20067 -7.28516,2.34375 -7.9569,2.36245 -14.05506,6.82452 -16.13672,11.80664 -1.59855,3.82585 -2.36328,4.22091 -2.36328,1.22461 0,-3.15369 2.92966,-8.69988 5.7793,-10.94141 1.3892,-1.09275 2.22453,-2.28914 1.85547,-2.6582 -1.19039,-1.19039 -8.40316,6.79696 -9.07422,10.04883 -0.55405,2.68482 -0.79679,2.89468 -1.64258,1.42187 -1.29938,-2.26265 1.13592,-7.13573 5.80469,-11.61718 2.65637,-2.5498 3.20686,-3.62056 2.3125,-4.5 -1.23172,-1.21119 -1.62278,-0.86172 -8.7461,7.80273 -2.66097,3.23667 -3.32427,3.61482 -3.86523,2.20508 -0.476,-1.24042 1.07108,-3.29772 5.71094,-7.5918 5.26476,-4.87241 6.14098,-6.12244 5.06445,-7.23047 -1.08054,-1.11217 -1.9019,-0.61848 -4.83399,2.91016 C 180.773,157.07309 179,158.04648 179,155.69336 c 0,-1.4701 7.62139,-7.29512 12.97852,-9.91797 2.13554,-1.04555 5.92525,-1.7341 9.63086,-1.75 z m -168.292969,1.32227 c 0.273637,-0.13527 0.669012,-0.1166 1.15625,0.0703 0.869984,0.33385 1.994984,0.60742 2.5,0.60742 0.505017,1e-5 0.917969,0.44444 0.917969,0.98828 0,0.54384 -1.125,0.897 -2.5,0.7832 -1.375,-0.1138 -2.5,-0.83181 -2.5,-1.5957 0,-0.42781 0.152144,-0.71825 0.425781,-0.85351 z m 46.796875,4.66015 C 141.08776,150.18399 141,150.18162 141,151.55859 c 0,0.86668 -2.58491,1.44583 -8.25,1.84961 -9.86886,0.7034 -84.647687,1.41902 -90,0.86133 -2.226906,-0.23204 -3.75,-0.92293 -3.75,-1.70117 0,-2.03951 12.326989,-2.71415 47.222656,-2.58594 z m 42.871094,5.98633 c 15.3077,-0.12567 13.01682,0.8526 10.58008,5.90625 C 138.42251,164.47016 128.0963,175 126.80273,175 126.36142,175 126,176.01735 126,177.26172 c 0,2.45704 -1.84,3.1115 -21.5,7.63476 -6.092966,1.40184 -9.548418,2.73839 -10.699219,4.13672 -3.553704,4.31807 1.448516,7.78391 8.494139,5.88672 3.56523,-0.96002 4.26865,-0.87074 5.40235,0.67969 2.82909,3.86901 0.72549,5.79185 -3.13868,2.86914 -2.58152,-1.95257 -5.240596,-1.85786 -6.408199,0.22852 -0.888212,1.58715 -1.216597,1.57731 -5.056641,-0.1543 -2.258172,-1.0183 -4.603736,-2.45156 -5.212891,-3.18555 C 86.317472,193.47366 85,194.63172 85,197.89062 c 0,2.60768 2.609591,4.9282 10.591797,9.41797 3.068873,1.72616 13.085193,2.40651 17.396483,1.18164 C 122.76569,205.71242 127.36236,205 135.51367,205 H 144 v 7 c 0,6.1591 -0.60812,8.0579 -2.10352,6.5625 -0.24066,-0.24065 -10.32945,-0.65256 -22.41796,-0.91602 -34.543295,-0.75285 -76.585276,-2.98247 -79.847661,-4.23437 -0.747032,-0.28666 -1.115703,-2.8628 -1.027343,-7.17969 0.07579,-3.70277 0.196358,-16.00633 0.267578,-27.3418 L 39,158.2793 55.75,157.63477 c 9.2125,-0.35513 32.398233,-0.93325 51.52344,-1.28321 9.65957,-0.17675 16.71774,-0.34092 21.82031,-0.38281 z m 31.41602,5.17969 C 160.17942,161.08066 160,161.13301 160,161.32031 c 0,1.89159 4.93479,6.32509 9,8.08594 7.56618,3.27728 6.61971,1.26186 -2.25,-4.78906 -2.90367,-1.98089 -5.24919,-3.26541 -6.24023,-3.46875 z M 62.3125,163 c -4.095767,0 -10.142151,2.39101 -10.875,4.30078 -0.293679,0.76532 0.146201,3.3633 0.976562,5.77344 0.830366,2.41014 1.240952,5.45541 0.91211,6.76562 -0.527097,2.10012 -0.335839,2.29752 1.623047,1.67578 1.927575,-0.61178 2.09284,-0.45958 1.242187,1.14063 -1.575162,2.96312 -1.87927,10.59787 -0.441406,11.08594 0.848482,0.28801 1.25,-0.74296 1.25,-3.20899 0,-3.39482 2.629768,-10.23741 3.572266,-9.29492 0.516072,0.51607 1.133169,5.67737 1.40625,11.76172 l 0.201172,4.5 0.988281,-3.43945 c 0.543042,-1.89139 0.840302,-8.97812 0.660156,-15.75 -0.180146,-6.77188 -0.0426,-12.31327 0.306641,-12.3125 0.349245,7.6e-4 1.403618,1.17643 2.34375,2.61133 1.607712,2.45366 1.608748,2.87191 0.01953,7.0332 -1.577714,4.13119 -1.579046,4.69901 -0.0293,8.57226 0.924545,2.31067 1.536901,6.14084 1.382812,8.64649 -0.170957,2.78005 0.172019,4.64653 0.898438,4.88867 1.823887,0.60796 2.668196,-4.636 1.591797,-9.89062 -0.535117,-2.61227 -0.602821,-4.51986 -0.150391,-4.24024 2.041048,1.26144 3.983415,7.08842 4.138672,12.41602 0.152036,5.21709 -0.142459,6.15135 -2.830078,8.98437 -5.480143,5.77662 -7.99374,7.12273 -11.095703,5.94336 -7.975828,-3.0324 -12.988142,-16.4872 -8.994141,-24.14258 C 52.697662,184.35257 52.573732,183 51.060547,183 c -0.333261,0 -1.44875,1.5644 -2.478516,3.47656 -1.500146,2.7856 -1.746103,4.67293 -1.242187,9.49414 0.848912,8.12195 2.886943,12.58793 6.849609,15.00391 2.064605,1.25875 5.063165,2.01948 7.966797,2.02148 3.872609,0.003 5.38591,-0.60074 9,-3.58789 7.893997,-6.52461 8.585523,-11.40574 3.183594,-22.43554 C 71.96667,182.12705 70.43039,177.29097 69.966797,173.2168 69.110924,165.69516 67.090662,163 62.3125,163 Z m -4.117188,3.07617 C 58.727888,165.96617 59,166.27294 59,167 c 0,0.55 0.866598,1.86659 1.925781,2.92578 1.19614,1.19614 1.719719,2.71167 1.382813,4 -0.586189,2.24159 -1.94569,2.58855 -4.300782,1.09961 -1.187955,-0.75105 -1.238854,-1.19473 -0.25,-2.18359 2.0036,-2.0036 1.433291,-3.10706 -1.257812,-2.43164 -2.947053,0.73967 -3.234236,-0.43696 -0.671875,-2.75586 1.040957,-0.94206 1.834612,-1.46813 2.367187,-1.57813 z M 140.75,172.01562 c -1.33606,-0.0285 -0.80822,1.12249 2.33398,5.08985 3.28683,4.14996 4.91602,4.90389 4.91602,2.27539 0,-1.54976 -5.69192,-7.33203 -7.25,-7.36524 z m 40.29297,1.79102 4.17773,3.77344 c 4.81513,4.35018 4.94908,5.8216 1.79688,19.89453 -2.48517,11.09494 -6.57824,19.53769 -13.29492,27.42969 -2.07703,2.44047 -3.63613,4.85727 -3.46485,5.37109 0.38614,1.15842 7.29687,3.72732 10.96485,4.07617 1.49712,0.14239 2.99978,0.5369 3.33984,0.87696 0.34006,0.34006 -0.51923,3.24082 -1.9082,6.44531 -1.38898,3.20448 -2.80848,6.83867 -3.15625,8.07617 -0.63231,2.24998 -1.60491,2.81109 -2.80078,1.61523 -0.79408,-0.79408 -17.39675,-4.32435 -20.44727,-4.34765 -2.61917,-0.02 -2.45321,2.38149 -2.25391,-32.45313 0.12268,-21.44062 0.70122,-26.56445 3,-26.56445 2.29983,0 16.01818,-7.32057 19.82618,-10.58008 z m -51.25586,3.58594 c 0.80875,0.18038 2.27757,1.02685 3.76562,2.21875 4.16656,3.33731 10.16401,7.11913 12.69727,8.00781 0.9625,0.33765 1.75,1.0122 1.75,1.49805 0,2.04606 -5.70054,-0.11928 -10.83984,-4.11719 -7.69089,-5.98283 -8.62141,-6.86914 -7.9375,-7.55469 0.0994,-0.0996 0.29487,-0.11304 0.56445,-0.0527 z m 115.71875,0.85351 c -0.46505,0.027 -1.03721,0.1286 -1.76172,0.28125 -4.49641,0.94738 -5.302,1.95251 -3.94726,4.92578 0.98455,2.16096 1.59782,2.42485 4.42382,1.89649 4.4462,-0.83127 5.02844,-1.56234 3.81055,-4.76563 -0.69807,-1.83607 -1.13024,-2.41886 -2.52539,-2.33789 z m -115.875,2.91993 4.64453,4.05273 4.64258,4.05273 -6.14258,5.86524 c -3.37888,3.22516 -6.62265,5.85144 -7.20898,5.83594 -0.58633,-0.0155 -3.09141,-1.1466 -5.56641,-2.51172 -2.475,-1.36513 -6.18332,-3.26383 -8.24023,-4.22071 -2.05691,-0.95689 -3.744,-2.30273 -3.75,-2.99023 -0.0135,-1.66414 -1.31851,-1.57814 -7.07618,0.4668 -4.212297,1.49609 -7.339179,1.35676 -5.726559,-0.25586 1.385648,-1.38565 11.948449,-4.68024 17.792969,-5.54883 3.575,-0.5313 8.7787,-1.81599 11.56445,-2.85547 z M 193.16211,183 c 1.81883,0 2.34445,3.45306 2.42383,15.94531 0.0645,10.15495 0.40618,13.55209 1.39844,13.88281 1.05806,0.3527 1.21031,-2.11727 0.78124,-12.69531 C 197.44135,192.13766 197.60373,187 198.18164,187 c 0.52212,0 1.82093,0.46581 2.88477,1.03516 1.53561,0.82184 1.93359,2.11734 1.93359,6.28906 0,2.8901 0.62894,7.71179 1.39648,10.71484 0.76754,3.00306 1.7071,7.37344 2.0879,9.71094 0.68816,4.22417 2.09267,5.51589 3.11132,2.86133 0.29297,-0.76348 -0.39601,-5.29818 -1.53125,-10.07813 C 206.08442,199.19621 205.3847,192 206.55469,192 c 0.63187,0 9.17638,3.64808 11.44531,4.88672 0.98049,0.53527 1.96945,3.96481 2.85547,9.90039 0.94478,6.32925 1.82081,9.25865 2.89258,9.66992 0.84571,0.32454 1.69248,0.43643 1.88086,0.24805 0.18839,-0.18839 -0.31745,-3.46138 -1.125,-7.27344 C 222.20732,198.5906 221.03866,199.5 237.25,199.5 c 11.54091,0 16.04533,-0.44271 23.69531,-2.32617 5.19524,-1.2791 10.68623,-2.9666 12.20117,-3.75 3.66108,-1.89322 3.61973,-1.90677 5.2129,1.82617 0.76285,1.7875 6.19794,9.20792 12.07812,16.49023 5.88017,7.28231 10.43161,13.66267 10.11328,14.17774 -0.31833,0.51506 -2.16488,1.45981 -4.10351,2.09961 -4.24562,1.40118 -5.61856,0.53555 -8.65625,-5.45117 -1.13497,-2.2368 -3.04418,-5.24014 -4.24219,-6.67383 -1.19802,-1.43368 -3.93125,-6.49618 -6.07227,-11.25 C 275.33555,199.88877 273.1924,196 272.71289,196 c -3.39736,0 8.01779,22.80558 17.67578,35.3125 1.5892,2.05798 2.61522,4.01759 2.2793,4.35352 -0.33593,0.33592 -2.57884,0.0583 -4.98438,-0.61524 -3.3834,-0.94726 -5.26036,-0.9576 -8.29297,-0.0488 -2.61797,0.78436 -5.57738,0.88807 -8.90624,0.3125 -2.74161,-0.47403 -7.68438,-0.73402 -10.98438,-0.57617 -16.23764,0.77668 -52.10661,1.32112 -52.62891,0.79883 -0.32605,-0.32605 -0.22483,-2.49202 0.22461,-4.81445 0.44944,-2.32244 0.83743,-5.75421 0.86133,-7.62696 0.0427,-3.33887 0.004,-3.37104 -1.95117,-1.60156 -1.67028,1.51158 -1.90987,2.67436 -1.47461,7.15625 0.28577,2.94276 0.39351,5.34961 0.23828,5.34961 -0.15524,0 -1.85402,-0.46007 -3.77539,-1.02148 -2.57567,-0.75259 -23.05846,-3.90231 -25.82031,-3.97071 -0.17933,-0.004 0.64419,-1.24531 1.83008,-2.75781 8.04492,-10.26063 12.15957,-20.35938 14.25781,-35 0.6503,-4.5375 1.50472,-8.25 1.90039,-8.25 z M 125.5,190 c -5.43962,0 -6.00803,1.72148 -0.75,2.27148 2.0625,0.21575 4.0875,0.46805 4.5,0.56055 0.4125,0.0924 0.75,-0.50703 0.75,-1.33203 0,-1.11111 -1.16667,-1.5 -4.5,-1.5 z m -13.25,0.0703 c -3.0082,0.0564 -3.35437,0.24027 -1.75,0.92969 2.77889,1.19413 5.5,1.19413 5.5,0 0,-0.55 -1.6875,-0.96839 -3.75,-0.92969 z m 31.75,0.87891 v 6.02539 c 0,3.31412 -0.3375,5.95323 -0.75,5.86523 -0.4125,-0.088 -2.325,-0.33089 -4.25,-0.53906 -6.12938,-0.66285 -6.34219,-0.97479 -3.30273,-4.85937 1.541,-1.96947 4.04023,-4.23614 5.55273,-5.03711 z M 111.80469,196 c 1.20789,0 2.19531,0.42446 2.19531,0.94336 0,0.51891 1.35,1.74016 3,2.71484 1.65,0.97468 3,2.12522 3,2.55664 0,1.97747 -3.9284,0.45424 -7,-2.71484 -3.1414,-3.2411 -3.22902,-3.5 -1.19531,-3.5 z m -22.320315,3.02539 c 0.845858,-0.13096 3.376017,0.9522 8.433594,3.54102 4.994671,2.55662 9.082031,4.82508 9.082031,5.04101 0,2.64219 -17.241541,-5.14956 -17.832031,-8.05859 -0.06149,-0.30292 0.03445,-0.47979 0.316406,-0.52344 z m 11.425785,0.44141 c 2.60167,0.56678 11.08984,4.81106 11.08984,5.74218 0,1.09504 -0.86222,0.93859 -5.7207,-1.03515 -4.48563,-1.82227 -7.010983,-3.77615 -6.08203,-4.70508 0.0895,-0.0895 0.34122,-0.0829 0.71289,-0.002 z m 1.9707,25.64453 c -0.50793,0.0653 -0.98106,0.68167 -1.92188,1.91406 -3.10932,4.07299 -4.229928,7.71191 -3.527339,11.45703 0.362851,1.93417 1.119499,3.51758 1.68164,3.51758 0.562138,0 0.779459,-0.7875 0.484375,-1.75 -0.76651,-2.50019 0.968354,-9.24428 2.865234,-11.14062 1.41994,-1.41955 1.72191,-1.43252 2.55859,-0.10938 1.49254,2.36031 1.13745,8.32808 -0.64648,10.875 -1.52472,2.17684 -1.51319,2.29778 0.19531,1.96875 1.00142,-0.19285 2.63774,-1.74792 3.63477,-3.45508 1.63096,-2.79258 1.66977,-3.44485 0.38672,-6.51562 -0.78435,-1.87721 -2.39844,-4.29251 -3.58594,-5.36719 -1.07542,-0.97324 -1.61707,-1.45982 -2.125,-1.39453 z M 83.15625,228 c -4.217752,0 -6.223404,2.05762 -6.857422,7.03516 -0.312796,2.4557 -1.041292,5.06159 -1.61914,5.79101 -0.758941,0.958 -0.652321,1.57814 0.384765,2.23438 C 77.469426,244.58236 78,244.14275 78,240.62305 78,236.40127 80.598122,230 82.3125,230 84.407379,230 86,232.21075 86,235.11914 c 0,4.25549 -0.921037,5.70876 -5.105469,8.06055 C 78.752337,244.38367 77,245.95987 77,246.68359 c 0,1.97349 1.038567,1.60472 6.25,-2.21875 C 87.71168,241.19145 88,240.70331 88,236.42383 88,230.39512 86.622717,228 83.15625,228 Z m 39.31836,2.17578 c -1.04239,0.2021 -2.29927,1.40867 -3.83789,3.62891 -2.09611,3.02469 -2.63672,4.97136 -2.63672,9.51172 0,3.1404 0.55793,6.60472 1.24023,7.69726 1.87725,3.00595 3.41899,2.42253 6.2168,-2.35156 2.71577,-4.63411 3.37141,-11.35527 1.56836,-16.09766 -0.68055,-1.78998 -1.50839,-2.59077 -2.55078,-2.38867 z m -0.0234,2.48633 0.74805,3.41992 c 0.41191,1.88034 0.52298,4.55159 0.24609,5.9375 -0.27689,1.3859 -1.63708,3.8609 -3.02343,5.5 l -2.52149,2.98047 0.35352,-6 c 0.21963,-3.73861 1.07735,-7.09926 2.27539,-8.91797 z m 144.49219,6.28125 c 3.27838,0.0533 5.50581,0.17378 5.70703,0.375 0.27294,0.27294 -0.20254,1.85046 -1.05859,3.50586 -2.03657,3.93831 -2.9399,31.59532 -1.24414,38.09375 0.89997,3.44881 2.91393,6.19157 9.17968,12.5 6.09405,6.13556 8.3443,9.16568 9.34571,12.58203 0.72548,2.475 1.91911,5.9102 2.65234,7.63477 1.53551,3.61154 4.79955,19.29612 6.375,30.63476 0.59375,4.27324 1.75499,8.80222 2.58203,10.06445 1.24185,1.8953 1.28864,2.75699 0.26172,4.94336 -0.6839,1.45606 -2.14414,3.08471 -3.24414,3.6211 -5.04087,2.4581 -6.40423,2.34395 -7.05078,-0.5918 -1.40872,-6.39653 -7.92973,-24.08962 -10.24805,-27.80664 -1.37215,-2.2 -5.5139,-6.925 -9.20312,-10.5 -5.03409,-4.87823 -7.123,-7.74752 -8.3711,-11.5 -1.60452,-4.82409 -6.51266,-10.1621 -10.81836,-11.76367 -0.93046,-0.3461 -2.42959,-1.75551 -3.33203,-3.13281 -2.51754,-3.84224 -7.35366,-17.40441 -8.59375,-24.10352 -0.61087,-3.3 -1.68559,-8.025 -2.39062,-10.5 -1.76834,-6.2077 -4.30611,-17.00096 -4.68164,-19.91797 -0.24997,-1.94168 0.26593,-2.57544 2.61328,-3.21094 2.39446,-0.64825 21.68438,-1.08777 31.51953,-0.92773 z M 137.45117,249 c -2.11909,0 -2.79718,2.02088 -1.11328,3.31641 1.85017,1.42346 1.29114,5.1977 -1.27344,8.59765 -2.40872,3.19331 -4.06138,1.88862 -4.08007,-3.22265 C 130.97314,254.61709 130.71109,253.89966 130,255 c -1.10334,1.7073 -1.34041,8.32756 -0.33398,9.33398 0.36666,0.36667 1.93286,0.66602 3.47851,0.66602 3.38424,0 5.35984,-2.74715 6.23633,-8.66992 C 140.08208,251.59174 139.39944,249 137.45117,249 Z m -38.712889,6.00586 c -1.419191,-0.0127 -8.127758,11.47869 -7.953125,13.62305 0.09537,1.17102 0.619919,3.30852 1.167969,4.75 C 92.901045,275.87212 96,277.11347 96,275 c 0,-0.55 -0.500832,-1 -1.113281,-1 -1.291733,0 -0.379982,-7.82196 1.355469,-11.63086 1.238742,-2.71875 3.262003,-3.10218 4.150392,-0.78711 1.02702,2.67637 0.6726,8.9524 -0.576174,10.20117 -0.650834,0.65084 -0.838776,1.52842 -0.417968,1.94922 1.281832,1.28184 3.295482,-2.47751 3.972652,-7.41797 0.53032,-3.8691 0.25206,-5.24544 -1.61523,-7.98828 -1.24055,-1.82223 -2.598248,-3.31631 -3.017579,-3.32031 z m 63.064449,2.39648 c 3.00038,0.1644 6.81372,0.77813 11.07618,1.82422 l 4.37695,1.07617 -0.5957,13.59766 c -0.32825,7.47945 -0.61171,13.71211 -0.62891,13.84961 -0.066,0.526 -2.66834,-0.0401 -6.03125,-1.3125 -1.925,-0.72833 -6.0875,-1.34986 -9.25,-1.38086 C 155.0403,285.0006 155,284.97896 155,282 v -3 l 6.25,0.043 c 3.4375,0.0241 7.9375,0.64677 10,1.38281 2.0625,0.73605 3.75,0.95802 3.75,0.49219 0,-1.5985 -3.70207,-2.82429 -11.42578,-3.7832 -4.25338,-0.52806 -7.93361,-1.16018 -8.17774,-1.4043 -0.24413,-0.24413 -0.15929,-1.18417 0.1875,-2.08789 0.48507,-1.26408 1.97354,-1.64258 6.45704,-1.64258 3.20535,0 7.05627,0.46671 8.55664,1.03711 1.81863,0.69148 3.06184,0.70384 3.72851,0.0371 1.54535,-1.54535 -3.82265,-3.24545 -12.07617,-3.82617 -6.34356,-0.44633 -7.25,-0.75498 -7.25,-2.45899 0,-1.79304 0.575,-1.91006 7.25,-1.48828 3.9875,0.25195 8.54658,0.80136 10.13086,1.2207 2.23856,0.59251 2.77925,0.45054 2.42578,-0.63086 -0.58654,-1.79448 -7.86733,-3.70775 -14.49805,-3.81054 -5.73234,-0.0889 -7.63492,-1.62289 -4.71093,-3.79883 1.01699,-0.75681 3.2047,-1.04331 6.20507,-0.87891 z m -39.29882,1.57618 c -0.9592,-0.24316 -3.1039,1.04517 -5.38477,3.39843 -3.59844,3.71265 -5.01549,8.18298 -4.35742,13.75586 0.40928,3.46594 0.60899,3.6366 4.29687,3.6875 2.88789,0.0399 4.61317,-0.64536 6.82227,-2.70898 l 2.95703,-2.76367 -1.88867,-6.92383 c -1.0396,-3.80829 -1.90392,-7.26133 -1.91992,-7.67383 -0.017,-0.43883 -0.20566,-0.69043 -0.52539,-0.77148 z m -49.986332,1.19531 c -1.570365,0.17371 -2.789231,0.94545 -4.529297,2.68555 -3.580839,3.58084 -3.807654,6.81456 -0.898437,12.82421 1.149065,2.37364 2.470976,4.31641 2.939453,4.31641 1.769077,0 2.030406,-2.07757 0.529297,-4.2207 -3.604317,-5.14588 -0.151868,-15.17709 4.029297,-11.70703 1.211573,1.00551 1.498619,2.46182 1.130859,5.72461 -0.362236,3.21368 -0.196245,4.081 0.621094,3.26367 0.612152,-0.61216 1.123544,-3.68776 1.136718,-6.83594 L 77.5,260.5 74.238281,260.18555 c -0.633463,-0.061 -1.197248,-0.0696 -1.720703,-0.0117 z m 48.455082,2.62305 c 0.23499,0.0314 0.47083,0.15591 0.7207,0.36328 2.09688,1.74025 1.64215,9.50433 -0.69336,11.83984 -2.21722,2.21722 -5.61536,2.65586 -6.23242,0.80469 -0.5061,-1.51832 1.1949,-6.37043 3.6875,-10.51758 1.10743,-1.84253 1.81259,-2.58432 2.51758,-2.49023 z M 200.69727,263 c -1.20967,0 -5.80055,12.48604 -5.61915,15.2832 0.0438,0.67572 0.31511,0.54938 0.60938,-0.2832 0.29159,-0.825 1.83187,-4.31298 3.42188,-7.75195 C 202.4261,263.07432 202.4422,263 200.69727,263 Z m -99.38477,19.44922 c -0.9699,0.0223 -2.066104,0.46602 -3.263672,1.35742 -5.03266,3.74603 -5.207393,9.47635 -0.460937,15.11719 3.081849,3.66257 3.707439,3.74792 6.373049,0.88672 1.45815,-1.56514 2.03906,-3.53929 2.03906,-6.9336 0,-6.77276 -1.77779,-10.49471 -4.6875,-10.42773 z m -18.513672,0.76758 c -0.861112,-0.13574 -1.896879,0.15669 -3.765625,0.77343 -3.022379,0.99748 -4.493878,2.28187 -6.066406,5.29883 -2.378687,4.56361 -2.062967,6.37057 1.222656,6.99805 5.773607,1.10264 9.235984,0.66232 11.496094,-1.46094 3.038697,-2.85471 2.96799,-6.86482 -0.173828,-9.8164 -1.165622,-1.09505 -1.851778,-1.65724 -2.712891,-1.79297 z m 124.707032,1.48242 c -0.52413,-0.049 -0.94792,0.14328 -1.37109,0.5664 C 204.431,286.9694 204.7624,288 207.01367,288 c 1.10746,0 2.79496,0.44132 3.75,0.98047 2.64941,1.49567 20.0215,8.01449 21.46485,8.05469 0.69934,0.0195 2.39648,0.67882 3.77148,1.46484 1.375,0.78602 3.4,1.43707 4.5,1.44727 3.77084,0.0351 -3.75968,-3.81659 -16.54883,-8.46485 -6.74518,-2.45156 -13.25797,-5.10841 -14.47265,-5.9043 -0.82359,-0.53962 -1.44854,-0.82994 -1.97266,-0.8789 z m -85.74024,1.15039 c -0.76215,0.0861 -1.55728,0.37654 -2.36523,0.91601 -3.40322,2.27241 -4.269,7.97872 -1.78516,11.76954 1.97162,3.00908 4.27502,3.12599 7.75,0.39257 5.41765,-4.26152 1.73561,-13.68103 -3.59961,-13.07812 z M 100.83984,286 c 1.67592,0 3.1603,2.56446 3.1543,5.44922 -0.004,1.6775 -0.85788,4.34159 -1.89844,5.91992 l -1.89258,2.87109 -1.533198,-2.37109 c -2.74603,-4.24268 -2.954796,-7.18687 -0.679688,-9.62891 C 99.138125,287.00811 100.42126,286 100.83984,286 Z m -19.166012,0.19141 c 5.12148,-0.35019 6.09485,3.35837 0.982422,7.25781 -4.010756,3.05915 -5.251631,3.17384 -6.623047,0.61133 -1.916616,-3.58123 -0.674432,-6.47695 3.199219,-7.45899 0.895377,-0.22699 1.709766,-0.36013 2.441406,-0.41015 z m 40.923832,1.875 c 2.07503,0.0758 3.36866,4.2602 1.36718,8 -1.03465,1.93326 -3.0415,2.5249 -4.29882,1.26757 -1.14572,-1.14571 -0.72849,-5.86553 0.68945,-7.80468 0.7723,-1.05619 1.55051,-1.48815 2.24219,-1.46289 z M 155,288.0918 l 6.75,0.51172 c 11.11131,0.84195 12.73929,1.67493 14.01367,7.16992 0.60301,2.60008 1.401,5.51406 1.77344,6.47656 0.77927,2.01392 -1.42692,2.26571 -5.52539,0.63086 -1.3682,-0.54576 -5.75447,-1.08063 -9.74805,-1.1875 -7.43056,-0.19886 -8.60774,-1.02638 -6.40234,-4.50391 0.80147,-1.26378 7.41501,-1.15438 12.63867,0.20899 7.24065,1.88979 7.1706,1.8888 5.03125,0.15625 -2.55208,-2.0668 -8.34845,-3.60484 -14.02344,-3.71875 C 155.24782,293.75044 155,293.58975 155,290.91797 Z M 205.0957,289 c -0.4975,0 -2.36225,2.5875 -4.14453,5.75 -1.78227,3.1625 -4.07547,6.33796 -5.0957,7.05664 -1.90899,1.34476 -2.5582,4.19336 -0.95508,4.19336 0.49568,0 1.85073,-1.60785 3.00977,-3.57227 2.5182,-4.26802 5.06717,-4.23869 6.31445,0.0723 5.08443,17.57253 5.23026,19.13388 2.89258,31 -2.52143,12.79879 -3.35168,15.5139 -7.0293,23 -2.16155,4.4 -4.23918,9.2375 -4.61719,10.75 -1.06478,4.26051 0.8884,3.24366 2.26953,-1.18164 0.67503,-2.16288 2.41933,-5.90711 3.87696,-8.32031 2.61383,-4.32737 2.84486,-4.45279 16.80273,-9.06836 13.9217,-4.60362 21.46951,-5.92984 19.97266,-3.50781 -0.39869,0.64506 0.21752,0.51365 1.36914,-0.29297 2.70398,-1.89395 9.65357,-1.11354 32.98828,3.70117 1.99324,0.41127 3.25,0.27281 3.25,-0.35742 0,-1.00671 -11.20799,-4.82912 -16.71289,-5.69922 -1.53256,-0.24224 -4.50845,-0.7105 -6.61133,-1.04102 -3.12444,-0.49109 -3.61073,-0.85583 -2.66601,-1.99414 0.93325,-1.1245 0.41625,-1.70639 -2.67774,-3.02344 -9.37633,-3.99131 -13.12472,-5.26429 -17.33203,-5.88086 -2.475,-0.3627 -6.3,-1.06602 -8.5,-1.56445 -2.2,-0.49843 -5.2375,-1.1659 -6.75,-1.48242 -3.03337,-0.63477 -3.59736,-1.9968 -1.20703,-2.91406 1.92859,-0.74007 20.74237,1.08998 25.45703,2.47656 4.5397,1.33512 10.65951,3.67893 14.75586,5.65234 3.20095,1.54205 5.50793,1.09853 3.67773,-0.70703 -1.91423,-1.88847 -16.19785,-6.96364 -22.45312,-7.97851 -3.56442,-0.57829 -9.75475,-1.0546 -13.75586,-1.0586 -7.00779,-0.007 -7.31375,-0.10873 -8.3418,-2.75781 -0.58698,-1.5125 -1.43802,-5.225 -1.89258,-8.25 -0.45457,-3.025 -2.2404,-8.29426 -3.96679,-11.70898 -2.50245,-4.94971 -2.92304,-6.60851 -2.08008,-8.1836 C 206.23724,289.6896 206.27068,289 205.0957,289 Z m 78.1543,1.00391 c 0.6875,0.002 3.725,1.55069 6.75,3.4414 3.025,1.8907 8.5375,5.13426 12.25,7.20703 3.7125,2.07276 6.75,4.03316 6.75,4.35547 0,0.32224 -3.16032,1.12717 -7.01953,1.78907 -9.14967,1.569 -8.72499,1.64441 -9.45508,-1.67969 -0.60234,-2.74241 -6.54146,-10.71287 -9.25195,-12.41602 -1.63236,-1.02568 -1.64743,-2.70226 -0.0234,-2.69726 z m -8.55859,13.02734 c -2.12586,-0.0377 -1.88406,0.46667 3.72265,7.71875 2.23237,2.8875 4.57819,5.25 5.21289,5.25 1.96449,0 -6.94672,-12.93345 -8.93554,-12.96875 z M 156,303.73633 l 7.75,0.73242 c 4.2625,0.402 9.4516,0.77468 11.53125,0.83008 3.10406,0.0827 3.88801,0.52655 4.37695,2.47461 1.04182,4.15097 1.02577,4.15231 -19.4082,1.6289 -3.7615,-0.46451 -4.25,-0.82089 -4.25,-3.0957 z m 111.63672,5.99219 c -0.21367,-0.0923 -0.3577,-0.0636 -0.41406,0.10546 -0.48965,1.46895 1.60577,4.82324 6.02343,9.63672 1.78177,1.94142 3.80479,3.5293 4.4961,3.5293 2.02692,0 1.44988,-1.64362 -1.1836,-3.36914 -1.34277,-0.87982 -3.90012,-3.72031 -5.68359,-6.3125 -1.33761,-1.94414 -2.59728,-3.31283 -3.23828,-3.58984 z m 92.50781,4.50195 c -0.20145,-0.002 -0.44307,0.0533 -0.72656,0.16211 -0.86998,0.33385 -4.01998,0.60742 -7,0.60742 -4.84325,0 -5.41797,0.22401 -5.41797,2.10742 0,1.5104 0.44808,1.93514 1.58203,1.5 0.86998,-0.33385 4.01998,-0.60742 7,-0.60742 4.84325,0 5.41797,-0.22401 5.41797,-2.10742 0,-1.1328 -0.25113,-1.65543 -0.85547,-1.66211 z m -137.24805,0.82422 C 220.49782,315.12448 219,315.42197 219,316 c 0,0.55 0.675,1.0562 1.5,1.125 12.57606,1.048 25.55321,2.94857 32.5,4.75977 4.125,1.07549 7.66821,1.99125 7.87305,2.03515 0.20485,0.0439 -0.1672,-0.56926 -0.82617,-1.36328 -0.65898,-0.79401 -3.97718,-2.35923 -7.37305,-3.47852 -7.27973,-2.3994 -22.58136,-4.23281 -29.77735,-4.02343 z M 360.25,324.68945 c -0.5794,-0.103 -1.64295,0.043 -3.45117,0.39258 -2.36456,0.45714 -4.86133,0.851 -5.54883,0.875 -0.6875,0.024 -1.25,0.76882 -1.25,1.65625 0,1.28483 0.66202,1.48368 3.25,0.97461 1.7875,-0.35161 4.15,-0.77664 5.25,-0.94531 1.1,-0.16867 2.13427,-1.00138 2.29883,-1.84961 0.12584,-0.64867 0.0306,-1.00052 -0.54883,-1.10352 z m -188.14844,3.74414 c -4.50444,-0.17071 -11.03661,0.1295 -18.76562,0.9336 C 137.87609,330.97557 135,331.56649 135,333.12695 c 0,0.50164 1.0125,0.66758 2.25,0.36914 8.08913,-1.95077 25.50363,-2.91524 38.64844,-2.13867 1.31934,0.0779 2.58213,-0.38527 2.80664,-1.0293 0.37743,-1.08271 -2.09907,-1.72381 -6.60352,-1.89453 z M 212.63867,330 c 3.20955,0 23.89377,5.33051 33.2793,8.57617 3.17008,1.09626 -1.09212,2.69099 -9.45899,3.53906 -9.07207,0.91954 -14.33252,2.22558 -23.24609,5.77735 C 207.64475,350.11131 206,350.4369 206,349.32031 206,347.69207 212.07915,330 212.63867,330 Z m -117.322264,1.24414 c -1.77841,0.10902 -2.267551,0.40887 -2.091797,0.93945 0.321044,0.96919 4.314001,1.48123 15.148441,1.94141 8.09099,0.34365 14.98257,0.89859 15.3164,1.23242 0.56481,0.5648 5.29342,-0.19331 6.22657,-0.99804 1.51659,-1.30787 -3.52805,-1.89995 -24.77149,-2.90626 -4.98152,-0.23595 -8.049714,-0.318 -9.828124,-0.20898 z m 264.228514,0.83398 c -0.38103,-0.0345 -0.85456,-0.0174 -1.43945,0.0469 -0.77986,0.0858 -1.75874,0.25565 -2.98047,0.5 -3.02507,0.60501 -4.27555,2.82489 -2.01562,3.57812 0.61011,0.20336 2.63508,0.19239 4.5,-0.0254 2.51902,-0.29408 3.39062,-0.88252 3.39062,-2.28711 0,-1.14193 -0.31199,-1.70893 -1.45508,-1.8125 z m -273.351561,0.17383 c -3.542883,-0.21093 -12.080586,0.60149 -23.693359,2.30469 -5.5,0.80666 -12.648288,1.70332 -15.884766,1.99219 -3.236478,0.28887 -6.61539,0.91587 -7.509765,1.39453 -0.894376,0.47868 -2.746089,0.66228 -4.115235,0.40625 -3.735458,-0.6985 -6.287756,1.6199 -5.451172,4.95312 l 0.683594,2.72266 3.257813,-2.01367 C 35.271523,342.90479 37.700815,342 38.880859,342 c 1.180044,0 2.927776,-0.41098 3.882813,-0.91211 2.616729,-1.37305 23.459841,-4.85941 39.486328,-6.60547 3.1625,-0.34455 5.75,-1.09799 5.75,-1.67383 0,-0.30247 -0.625679,-0.48633 -1.806641,-0.55664 z m -7.814453,6.84571 c -8.039077,0.63507 -23.261665,5.04305 -29.353515,9.21679 C 46.53687,350.01942 41.0125,355.00826 36.75,359.40039 29.265523,367.11248 29,367.55075 29,372.19336 29,374.83738 29.240805,377 29.535156,377 c 0.294351,0 1.664844,-0.74027 3.044922,-1.64453 2.054386,-1.34609 4.030559,-1.52621 10.902344,-0.99805 4.616272,0.35483 9.530094,1.07706 10.919922,1.60547 1.65506,0.6293 2.741385,0.61359 3.148437,-0.0449 1.229847,-1.98993 -1.79623,-3.80402 -7.371093,-4.41797 -8.586259,-0.94557 -11.466212,-1.62268 -10.529297,-2.47656 1.316843,-1.20013 21.454643,-6.03925 25.099609,-6.03125 2.316673,0.005 3.25,-0.45217 3.25,-1.59375 0,-1.38573 -0.959315,-1.50572 -7.123047,-0.88672 -3.917902,0.39346 -10.766041,1.99042 -15.21875,3.54883 -4.452708,1.55842 -8.290943,2.63874 -8.529297,2.40039 -0.238354,-0.23835 0.854315,-1.45206 2.429688,-2.69727 6.224214,-4.91972 11.878408,-7.44418 22.441406,-10.01953 8.796267,-2.1446 12.251925,-3.762 7.949219,-3.7207 -4.211079,0.0405 -16.185111,3.70992 -22.449219,6.8789 -7.430579,3.7591 -8.207666,3.81175 -5.505859,0.37696 3.557737,-4.52293 9.85489,-8.01151 20.443359,-11.32618 5.534022,-1.73239 10.843791,-3.55491 11.798828,-4.05078 C 75.191365,341.40634 77.805,341 80.044922,341 c 2.775959,0 3.84971,-0.35961 3.373047,-1.13086 -0.478982,-0.77501 -2.35937,-0.98317 -5.039063,-0.77148 z m 70.974614,0.92773 c -10.24597,0.19306 -19.91044,0.91432 -20.11914,1.99805 -0.24184,1.25576 0.84027,1.41773 6.64648,0.98633 3.81445,-0.28341 14.47917,-0.49601 23.70117,-0.47071 15.22713,0.0417 16.45562,-0.0801 13.37305,-1.33789 -2.52949,-1.03213 -13.3556,-1.36884 -23.60156,-1.17578 z m -60.125004,0.25195 c -0.637116,0.0127 -1.120888,0.21464 -1.515625,0.60938 -0.816667,0.81667 -0.06173,1.09315 2.83789,1.03516 3.906141,-0.0781 3.917322,-0.0912 1.111328,-1.11329 -1.006801,-0.36675 -1.796478,-0.54398 -2.433593,-0.53125 z M 114.53516,341 C 108.31478,341 104,341.40128 104,341.98047 c 0,1.29098 3.06983,1.93832 11,2.32031 3.575,0.17221 6.82169,0.39989 7.21484,0.50586 C 122.60799,344.91261 123.4113,344.1 124,343 c 1.03888,-1.9412 0.76047,-2 -9.46484,-2 z M 98.75,341.01562 C 96.283777,341.02724 95.861743,341.2644 97,342 c 1.965494,1.2702 5,1.2702 5,0 0,-0.55 -1.4625,-0.99236 -3.25,-0.98438 z m 259.11133,0.125 c -1.60901,0.0746 -3.29691,0.63373 -3.61719,1.60938 -0.277,0.84379 0.75303,1.25 3.17188,1.25 2.58306,0 3.58398,-0.43554 3.58398,-1.5625 0,-0.9608 -1.52966,-1.37148 -3.13867,-1.29688 z m 0.99805,8.02344 c -1.10961,0.0746 -2.29856,0.62435 -2.61524,1.58594 -0.25808,0.78365 0.55232,1.25 2.17188,1.25 1.6805,0 2.58398,-0.54929 2.58398,-1.57031 0,-0.94031 -1.03107,-1.3402 -2.14062,-1.26563 z m -199.97657,0.18164 c -3.28417,-0.11105 -6.79357,-0.10178 -10.38281,0.0469 -7.7,0.31866 -15.35,0.72606 -17,0.90625 -1.65,0.1802 -4.44669,0.41311 -6.21484,0.51562 -2.13991,0.12407 -3.59868,0.90336 -4.36328,2.33203 -1.05546,1.97212 -0.95683,2.08799 1.21484,1.42188 8.80809,-2.70166 43.07849,-3.37441 53.86328,-1.05664 2.61274,0.5615 3.23078,0.46209 2.43555,-0.39453 -1.87379,-2.01843 -9.70021,-3.43833 -19.55274,-3.77149 z m -69.853513,0.0918 c -7.174271,0.23332 -3.087103,1.42096 11.824223,2.42383 6.95604,0.46784 13.65898,0.91514 14.89648,0.99414 2.16795,0.1384 3.07501,-1.2265 1.47266,-2.2168 -0.42737,-0.26413 -8.18988,-0.74831 -17.250004,-1.07422 -4.910053,-0.17662 -8.551936,-0.20472 -10.943359,-0.12695 z m 150.058593,4.35156 c -9.17832,0.10165 -17.0148,1.03793 -19.74023,2.76563 -1.18422,0.75069 -3.12762,2.73205 -4.31836,4.40429 -2.67149,3.75176 -0.76564,4.11993 2.9414,0.56836 3.27279,-3.13553 11.81306,-4.44238 30.76563,-4.71093 10.80048,-0.15303 15.31592,0.21441 20.9707,1.70507 3.96352,1.04483 7.52538,1.5801 7.91602,1.18946 1.17908,-1.17908 0.26713,-1.49296 -10.75,-3.6836 -8.08673,-1.60796 -18.60684,-2.33993 -27.78516,-2.23828 z M 359.55859,356 c -1.67065,0 -2.79847,1.42809 -1.86523,2.36133 1.19516,1.19516 3.30664,0.6449 3.30664,-0.86133 0,-0.825 -0.64887,-1.5 -1.44141,-1.5 z M 83.5,358 c -0.825,0 -1.5,0.45 -1.5,1 0,0.55 0.675,1 1.5,1 0.825,0 1.5,-0.45 1.5,-1 0,-0.55 -0.675,-1 -1.5,-1 z m 55.01367,0.30664 C 125.1728,358.35266 114,360.14786 114,363.15234 c 0,0.65162 0.89427,0.81621 2.25,0.41602 1.2375,-0.36529 6.075,-1.46089 10.75,-2.43555 7.59091,-1.58257 9.89038,-1.6427 21.5,-0.55469 7.15,0.6701 14.57277,1.7146 16.49414,2.32032 4.54092,1.43153 6.27074,1.39424 5.76367,-0.12696 -0.22539,-0.67618 -3.75104,-1.82101 -7.83398,-2.54296 -7.62007,-1.34738 -16.40564,-1.94949 -24.41016,-1.92188 z M 106.25,358.44727 c -3.1625,0.1053 -9.125,0.27897 -13.25,0.38671 -4.132042,0.10792 -6.941446,0.55095 -6.255859,0.98633 0.684418,0.43463 6.084418,0.72674 12,0.64844 C 111.52497,360.29966 112,360.25261 112,359.12891 c 0,-0.47961 -2.5875,-0.78693 -5.75,-0.68164 z m 127.95312,3.99609 c -4.68608,0.11023 -8.25575,0.47056 -9.36523,1.15625 -0.47158,0.29145 -3.88969,1.08945 -7.5957,1.77344 -4.89828,0.90403 -6.82568,1.70585 -7.0625,2.93554 -0.4145,2.15234 0.17906,2.12411 6.58984,-0.3125 6.3061,-2.39681 25.68731,-3.2363 42.15039,-1.82617 6.20441,0.53144 10.78492,0.52581 11.32422,-0.0137 2.12485,-2.12485 -21.98269,-4.04357 -36.04102,-3.71289 z m 76.66993,0.27148 c -0.66115,0.0503 -1.10766,0.15658 -1.28516,0.32813 -1.29195,1.24859 2.75253,2.54843 10.30273,3.31055 7.1264,0.71934 19.70421,4.18153 20.62891,5.67773 0.72384,1.17119 3.17045,1.28026 3.85547,0.17187 0.91786,-1.48511 -0.85489,-2.70901 -7.375,-5.08984 -6.39256,-2.33426 -21.49895,-4.75035 -26.12695,-4.39844 z M 98.25,365.64453 c -4.8125,0.11107 -12.6875,0.2372 -17.5,0.2793 C 75.634335,365.96855 72,366.41535 72,367 c 0,0.56926 2.947459,1 6.84375,1 C 89.190405,368 107,366.7797 107,366.07031 c 0,-0.34453 -3.9375,-0.53686 -8.75,-0.42578 z M 360.05859,366 c -1.26098,0 -2.16416,1.5624 -1.36523,2.36133 C 359.81955,369.48751 361,369.04641 361,367.5 c 0,-0.825 -0.42387,-1.5 -0.94141,-1.5 z m -220.78906,1.28711 c -2.9786,-0.0917 -5.86274,-0.075 -8.25586,0.0879 -17.63329,1.20019 -25.92003,3.36723 -25.99805,6.79883 -0.008,0.37034 1.22188,0.0621 2.73438,-0.68555 1.5125,-0.74767 4.55,-1.61334 6.75,-1.92187 6.12216,-0.85855 13.82916,-2.33562 15.5,-2.97071 1.62438,-0.61744 12.60912,0.63328 20.24805,2.30469 4.66041,1.01971 7.75195,0.65867 7.75195,-0.9043 0,-1.18626 -9.79468,-2.43384 -18.73047,-2.70898 z m 95.77149,4.92187 c -2.94711,0.0521 -5.49854,0.29703 -7.04102,0.79102 -3.22492,1.0328 -3.1189,1.05607 7.44922,1.62891 4.92155,0.26677 10.54655,0.87244 12.5,1.3457 4.34444,1.05254 7.28212,0.86307 7.72851,-0.49609 0.60506,-1.84227 -11.7954,-3.42579 -20.63671,-3.26954 z M 99.707031,372.5332 c -0.855914,-0.14891 -2.131175,0.0142 -3.804687,0.49414 -1.860053,0.53345 -9.228993,1.17746 -16.376953,1.42969 -8.741941,0.30847 -13.125873,0.84441 -13.390625,1.63867 -0.293803,0.88141 2.111741,1.02612 9.486328,0.57227 C 93.021857,375.5971 101,374.73131 101,373.91406 c 0,-0.77111 -0.43705,-1.23194 -1.292969,-1.38086 z m 213.419919,0.0234 c -0.97091,0.0625 -1.74603,0.20744 -2.08984,0.41992 -2.36723,1.46303 1.15221,2.40647 11.44141,3.06641 15.74062,1.0094 17.21708,1.00992 15.50195,0.006 -1.37291,-0.8044 -10.71322,-2.28228 -21.58789,-3.41602 -1.1293,-0.11773 -2.29471,-0.13844 -3.26563,-0.0762 z M 222,374.12891 c -0.45312,0 -0.90625,0.0703 -1.25,0.20898 -0.6875,0.27741 -0.125,0.50391 1.25,0.50391 1.375,0 1.9375,-0.2265 1.25,-0.50391 -0.34375,-0.1387 -0.79688,-0.20898 -1.25,-0.20898 z M 213.22656,375 c -4.64305,0 -6.97723,0.91535 -5.66797,2.22461 0.56066,0.56067 9.48825,-0.93941 10.27539,-1.72656 C 218.10835,375.22368 216.03577,375 213.22656,375 Z M 128,376.17578 l -3.5,0.0606 3,0.76367 c 1.65,0.41985 5.025,0.76558 7.5,0.76758 l 4.5,0.002 -4,-0.82617 c -2.2,-0.45505 -5.575,-0.80098 -7.5,-0.76758 z m -6.94531,0.35938 c -1.35641,-0.16722 -5.45615,0.436 -10.05469,1.56445 -2.55952,0.62808 -1.75339,0.71081 3,0.31055 3.575,-0.30104 6.91153,-0.95103 7.41406,-1.44336 0.24071,-0.23582 0.0928,-0.37591 -0.35937,-0.43164 z M 343.44141,377 c -0.85748,0 -1.28133,0.45 -0.94141,1 0.33992,0.55 1.04105,1 1.55859,1 0.51754,0 0.94141,-0.45 0.94141,-1 0,-0.55 -0.70113,-1 -1.55859,-1 z m -239.28321,0.0156 c -0.73825,-0.008 -2.44757,0.85271 -3.79687,1.91407 -1.754172,1.37981 -3.397556,1.77554 -5.769533,1.39062 -1.82452,-0.29607 -4.181382,-0.0763 -5.236328,0.48828 -1.054946,0.56459 -7.528731,1.54198 -14.386719,2.17188 C 59.207435,384.42824 58,384.68804 58,386.63477 c 0,1.22288 0.644921,1.45569 2.75,0.99218 1.5125,-0.33303 6.575,-0.89663 11.25,-1.2539 4.675,-0.35726 9.715985,-1.2629 11.201172,-2.01172 C 84.686359,383.6125 87.632687,383 89.75,383 c 2.117313,0 4.390781,-0.53922 5.050781,-1.19922 C 95.734114,380.86745 96,380.94774 96,382.16211 c 0,1.11598 0.695313,1.42716 2.439453,1.09375 2.372877,-0.4536 6.774897,-4.24089 4.964847,-4.27148 -0.49775,-0.008 -0.2293,-0.45122 0.5957,-0.98438 1.13723,-0.73494 1.17585,-0.97277 0.1582,-0.98438 z m 131.28907,4.19532 C 227.20409,381.26636 213,382.19582 213,382.94531 c 0,0.39699 0.3375,1.0652 0.75,1.48438 0.4125,0.41915 2.775,0.43123 5.25,0.0273 2.475,-0.40366 8.68236,-0.84237 13.79492,-0.97461 9.643,-0.24944 11.91531,-0.80487 8.16211,-1.99609 -0.67603,-0.21457 -2.76204,-0.29383 -5.50976,-0.27539 z m -110.37305,2.42383 c -4.31604,-0.10377 -10.37573,0.20066 -16.79883,0.94531 -7.30103,0.84641 -13.72989,1.25649 -14.287109,0.91211 -0.557219,-0.34438 -3.369327,1.47394 -6.25,4.03906 L 82.5,394.19336 60,393.57812 C 47.625,393.23951 35.828837,392.74403 33.787109,392.47656 29.631015,391.93208 28,393.65301 28,398.57812 v 2.70704 l 9.832031,-0.67578 C 47.524454,399.94176 142.97637,399.84527 287.25,400.35742 L 361,400.61914 V 397.80859 395 l -11.25,-0.11328 c -46.9812,-0.47254 -220.45786,-0.4589 -225.25,0.0176 -3.3,0.32801 -9.5482,0.3707 -13.88477,0.0957 -4.33658,-0.275 -11.761567,-0.22222 -16.499996,0.11719 -4.738429,0.3394 -8.985893,0.28296 -9.439453,-0.125 -1.59974,-1.43893 8.364038,-5.15169 18.949219,-7.06055 5.89218,-1.0626 14.43697,-1.93164 18.98633,-1.93164 4.54936,0 8.5111,-0.38824 8.80469,-0.86328 0.54752,-0.88591 -2.02576,-1.39818 -6.3418,-1.50195 z M 155.25,388.07031 C 152.9125,388.03165 151,388.45 151,389 c 0,1.19837 3.71124,1.19837 6.5,0 1.54896,-0.66561 1.04154,-0.87529 -2.25,-0.92969 z" />
  </g>
</svg>
