<?xml version="1.0" encoding="UTF-8" standalone="no"?>
<!-- Created with Inkscape (http://www.inkscape.org/) -->

<svg
   version="1.1"
   id="svg2"
   width="361"
   height="396"
   viewBox="0 0 361 396"
   sodipodi:docname="17.svg"
   inkscape:version="1.1.2 (0a00cf5339, 2022-02-04)"
   xmlns:inkscape="http://www.inkscape.org/namespaces/inkscape"
   xmlns:sodipodi="http://sodipodi.sourceforge.net/DTD/sodipodi-0.dtd"
   xmlns="http://www.w3.org/2000/svg"
   xmlns:svg="http://www.w3.org/2000/svg">
  <defs
     id="defs6" />
  <sodipodi:namedview
     id="namedview4"
     pagecolor="#505050"
     bordercolor="#eeeeee"
     borderopacity="1"
     inkscape:pageshadow="0"
     inkscape:pageopacity="0"
     inkscape:pagecheckerboard="0"
     showgrid="false"
     inkscape:zoom="0.94570707"
     inkscape:cx="304.53405"
     inkscape:cy="94.638184"
     inkscape:window-width="1920"
     inkscape:window-height="1043"
     inkscape:window-x="0"
     inkscape:window-y="0"
     inkscape:window-maximized="1"
     inkscape:current-layer="g8" />
  <g
     inkscape:groupmode="layer"
     inkscape:label="Image"
     id="g8">
    <path
       id="path12"
       style="fill:#000000"
       d="m 252.54688,22.666016 c -6.90379,0.07482 -14.85388,2.077523 -23.91211,6.007812 -13.09482,5.681733 -14.51124,8.147771 -11.27149,19.625 2.03114,7.195563 2.06324,16.062237 0.0918,25.201172 -1.4296,6.627169 -2.48242,13.937096 -2.8086,19.5 -0.11892,2.028238 0.37246,2.559694 2.60352,2.816406 C 219.75408,96.104533 221.30373,98 219.03516,98 c -1.98173,0 -8.07662,6.33173 -10.9043,11.32812 -1.60968,2.84423 -3.92305,9.22188 -5.14063,14.17188 -1.21757,4.95 -2.39418,9.19282 -2.61328,9.42773 -0.21909,0.2349 -1.71503,-0.83525 -3.32422,-2.37695 -2.99771,-2.872 -4.93617,-4.15155 -11.05273,-7.29883 -7.58344,-3.90206 -11.83556,-7.28692 -14.35156,-11.42578 -3.88373,-6.38881 -7.57551,-10.1907 -12.88477,-13.261717 -6.59056,-3.812152 -8.01954,-2.728016 -2.43555,1.847657 4.82736,3.95566 14.67188,16.41377 14.67188,18.56641 0,0.67833 -1.125,2.56902 -2.5,4.20312 -1.375,1.63409 -2.5,3.61172 -2.5,4.39453 0,1.70347 0.3652,1.684 -6.20117,0.33399 -6.6835,-1.37409 -21.82539,-6.85008 -23.76367,-8.59375 -1.91971,-1.72698 -0.27646,-1.66565 4.96484,0.18359 4.92646,1.73816 8.61604,1.92879 9.50391,0.49219 0.73265,-1.18546 0.1862,-1.36646 -9.00391,-3.00586 -3.85,-0.68679 -8.125,-1.88161 -9.5,-2.6543 -1.85711,-1.04361 -1.98569,-1.28097 -0.5,-0.92383 10.06156,2.41871 21.5,3.32083 21.5,1.69532 C 153,114.11771 142.19827,112 137.16797,112 135.42552,112 134,111.49214 134,110.87109 c 0,-0.80289 1.80593,-0.90085 6.25,-0.33789 3.4375,0.43546 8.12697,0.83081 10.41992,0.87891 2.76103,0.0579 4.95623,0.80552 6.5,2.21289 2.25523,2.05596 6.10468,4.375 7.26367,4.375 1.73474,0 0.11699,-2.17834 -2.68359,-3.61328 -4.17673,-2.14005 -4.83482,-3.22132 -4.18945,-6.88672 0.44989,-2.55508 0.0821,-3.25028 -2.48047,-4.68359 -1.65487,-0.92559 -3.30475,-2.859405 -3.66602,-4.298832 -0.42389,-1.68891 -1.22958,-2.507668 -2.27344,-2.30664 -2.85424,0.549674 -2.33557,3.438684 1.31055,7.304682 4.67313,4.95503 4.53948,5.91237 -0.70117,5.04102 -13.05898,-2.17128 -14.27367,-2.23482 -17.41602,-0.92187 -1.75822,0.73463 -3.47914,1.79127 -3.82421,2.34961 -1.20164,1.94428 -2.11213,0.97624 -4.91602,-5.23438 -1.55192,-3.4375 -4.56663,-8.065427 -6.70117,-10.283203 l -3.88086,-4.03125 6.0625,-5.337891 c 8.39556,-7.390077 12.48868,-13.945253 14.35351,-22.990234 0.83829,-4.065931 1.7448,-7.611974 2.01368,-7.88086 1.07122,-1.071218 -1.71195,-4.323913 -5.22461,-6.105468 -7.12491,-3.613622 -25.55056,-4.437139 -34.175784,-1.527344 -2.49783,0.842666 -6.433812,2.635756 -8.746094,3.984375 -2.312282,1.34862 -4.562282,2.391899 -5,2.318359 -2.297759,-0.386029 -3.357904,0.444083 -4.925781,3.853516 -0.94847,2.0625 -2.605766,5.03173 -3.683594,6.597656 -1.077828,1.565925 -3.237702,6.270431 -4.798828,10.455078 -2.064446,5.533814 -3.731781,8.288479 -6.113281,10.101563 C 53.542834,90.931742 48.072974,98.58135 44.46875,109.5 c -2.631301,7.97127 -2.637853,8.07541 -1.923828,29 0.394128,11.55 0.80717,24.85884 0.917969,29.57422 0.110799,4.71537 0.516224,9.08423 0.902343,9.70898 0.663682,1.07386 -0.490011,3.86848 -2.980468,7.2168 -0.61363,0.825 -1.436273,2.85 -1.828125,4.5 -0.391852,1.65 -4.65414,11.1 -9.470703,21 -11.513672,23.66528 -11.746585,24.27397 -9.984376,26.00977 0.769202,0.75767 5.223438,3.03081 9.898438,5.05273 6.184294,2.67467 10.039446,3.70997 14.148438,3.79688 l 5.646484,0.11914 1.210937,5.50976 c 1.094306,4.98185 3.462178,12.27354 6.175782,19.01172 3.971091,9.86066 6.236398,21.77282 4.83789,25.45117 -0.723523,1.90301 -1.78458,2.41624 -5.705078,2.76367 -4.188749,0.37122 -24.335763,0.73674 -42.638672,0.77344 -5.0219046,0.0101 -5.7694972,0.25256 -5.4394529,1.76172 0.2104929,0.9625 0.8179354,1.67072 1.3496094,1.57422 0.5316735,-0.0964 12.5412925,-0.43992 26.6894535,-0.76367 L 62,300.97266 v 3.78515 3.78711 l -11.25,-0.89453 c -10.692049,-0.84983 -33.916514,0.32433 -38.089844,1.92578 -2.6671746,1.02349 -2.115876,3.79651 0.589844,2.9668 4.959942,-1.52097 23.000504,-2.63067 35.703125,-2.19727 13.71816,0.46804 14.491489,0.71283 14.976563,4.73828 0.03866,0.3208 -8.367188,0.44236 -18.679688,0.27149 -22.113743,-0.3664 -31.75,0.4365 -31.75,2.64453 0,1.00303 0.828284,1.41305 2.5,1.23828 1.375,-0.14375 13.124745,-0.40747 26.111328,-0.58594 20.899243,-0.2872 23.728308,-0.13778 24.623047,1.29493 1.092514,1.74939 2.679711,8.05273 2.027344,8.05273 -0.218874,0 -2.842752,-0.72993 -5.830078,-1.62109 -6.891189,-2.05573 -46.98878,-2.64578 -47.650391,-0.70118 -0.297767,0.87518 4.290716,1.19217 17.824219,1.22657 10.023449,0.0255 21.636809,0.52481 25.808593,1.11132 4.171786,0.58653 8.485938,1.16063 9.585938,1.2754 1.854511,0.1935 4.382734,3.06814 4.464844,5.07617 0.01949,0.47661 -1.202344,0.59595 -2.714844,0.26562 C 68.7375,334.30247 62.55,333.34206 56.5,332.5 43.343344,330.6688 17,331.38039 17,333.56641 c 0,0.97902 4.325833,1.22517 19.25,1.09765 19.817074,-0.16932 27.928418,0.41075 34.869141,2.49024 3.691894,1.10612 6.447626,3.8804 5.695312,5.73242 C 76.641283,343.31303 72.45,342.86662 67.5,341.89648 56.20077,339.68195 18,338.10386 18,339.85156 c 0,0.78238 3.104942,1.16275 9.75,1.19336 13.882896,0.064 21.851992,0.72503 37.472656,3.10547 l 13.722656,2.08984 2.027344,3.4375 c 2.413,4.08973 2.502545,4.71879 0.56836,3.97657 C 77.959637,352.28 56.892286,349.63259 39.892578,348.41992 30.121206,347.72288 19,348.5181 19,349.91406 c 0,0.4233 9.5625,1.08819 21.25,1.47852 11.6875,0.39033 23.5,1.09502 26.25,1.5664 20.061735,3.43882 18.784342,2.83117 18.458984,8.79102 -0.05771,1.05718 -1.871922,0.82573 -15.59375,-1.98438 -9.940424,-2.03568 -15.426042,-2.51943 -30.351562,-2.68359 -14.641099,-0.16103 -18.133859,0.055 -17.78125,1.10742 0.337326,1.00687 3.425178,1.25307 13.353516,1.0625 7.102938,-0.13634 16.739062,0.19766 21.414062,0.74219 4.675,0.54453 10.3,1.18857 12.5,1.43164 2.2,0.24308 5.96835,1.14658 8.375,2.00781 2.406649,0.86124 5.106649,1.57018 6,1.57618 0.89335,0.006 3.139933,1.57214 4.992188,3.47851 2.098821,2.16014 4.736322,3.7074 7,4.10742 1.997746,0.35302 6.090692,1.26369 9.093752,2.02344 7.2567,1.8359 8.90405,1.75327 13.57812,-0.68359 2.33858,-1.21924 6.33447,-2.18022 9.75586,-2.34571 3.18762,-0.15419 6.25131,-0.73568 6.80664,-1.29101 1.39888,-1.39888 -0.007,-6.34872 -1.98047,-6.97461 -7.22863,-2.29243 -19.14117,-8.17563 -21.46679,-10.60156 -2.33743,-2.43825 -2.73128,-3.52675 -2.20313,-6.09571 0.35362,-1.72004 0.89737,-4.59412 1.20703,-6.38672 0.30967,-1.7926 0.9639,-3.50622 1.45313,-3.80859 C 112.35469,335.6632 112.2258,333 110.94531,333 c -0.58043,0 -2.16693,2.42727 -3.52539,5.39453 l -2.4707,5.39453 2.08984,5.58399 c 1.98794,5.31325 5.7839,9.62695 8.47266,9.62695 0.68349,0 1.7427,0.60191 2.35351,1.33789 0.61081,0.73599 3.02902,1.91 5.37305,2.60938 2.34404,0.69938 5.58589,1.95417 7.20313,2.78711 2.83896,1.46213 2.87347,1.5641 1,2.94921 -1.44456,1.068 -3.43568,1.26293 -7.78711,0.76563 -6.74111,-0.77041 -11.24455,-3.21409 -16.90625,-9.17578 -2.20783,-2.32481 -4.38496,-3.99868 -4.83789,-3.71875 -1.49977,0.9269 0.27589,3.47558 4.46093,6.40625 5.47136,3.83144 9.7808,7.98557 9.22266,8.88867 -0.48009,0.77679 -2.97648,0.67175 -14.11328,-0.58984 -4.759853,-0.5392 -8.059113,-1.53566 -10.250001,-3.09571 C 88.289737,366.07007 88,365.39015 88,360.59766 c 0,-2.89588 0.281783,-5.54744 0.626953,-5.89258 0.345167,-0.34517 2.549184,0.44538 4.896485,1.75586 4.181641,2.33459 4.308793,2.34544 6.28125,0.50781 l 2.011722,-1.87695 -2.480472,-7.79492 c -2.56544,-8.06255 -2.57019,-9.16978 -0.06836,-18.14844 0.820132,-2.94332 1.274752,-6.18006 1.009762,-7.19336 -0.26498,-1.0133 0.26819,-5.58005 1.1836,-10.14844 1.3994,-6.98382 2.37044,-9.22286 6.10156,-14.05859 4.0388,-5.23451 4.4375,-6.25559 4.4375,-11.35938 0,-4.16585 -0.50195,-6.15757 -1.95312,-7.74805 -1.57747,-1.72885 -9.81821,-12.52812 -18.937505,-24.82031 -0.764393,-1.03035 -1.157573,-2.1061 -0.875,-2.38867 0.282573,-0.28257 3.789038,0.23191 7.792969,1.14258 6.193246,1.40863 8.339986,1.4763 14.376956,0.45508 11.3169,-1.91437 11.51014,-1.74203 16.97656,14.92968 6.16389,18.79886 6.90253,22.2759 5.35352,25.20508 -0.6793,1.28454 -3.52416,4.46616 -6.32227,7.07032 -4.3338,4.03338 -5.27506,5.58888 -6.35352,10.5 -1.30306,5.9338 -5.22186,14.28575 -8.30859,17.70507 -0.9625,1.06621 -1.75,2.35034 -1.75,2.85547 0,0.50514 0.7875,0.57629 1.75,0.15625 4.14696,-1.80974 22.98978,-2.5243 72,-2.73047 28.737,-0.12089 52.2495,-0.51543 52.25,-0.875 0.002,-1.54629 -24.77203,-2.09814 -70.26367,-1.5664 l -48.76367,0.57031 2.29687,-2.93555 c 2.28729,-2.92262 2.34918,-2.93656 14.76367,-3.3164 56.14491,-1.7178 68.9668,-1.85509 68.9668,-0.74219 0,0.8755 0.4517,0.88038 1.83008,0.0195 2.81942,-1.76075 31.18837,0.10767 32.26367,2.125 0.43974,0.825 2.20422,5.27953 3.92187,9.89844 2.48584,6.68458 2.85499,8.56841 1.80469,9.23437 -0.72574,0.46017 -0.85598,0.84356 -0.28906,0.85157 0.56692,0.008 1.55848,1.41779 2.20508,3.13085 l 1.17578,3.11329 -8.20508,-0.59766 c -14.02871,-1.02222 -103.59394,-1.72395 -115.62695,-0.90625 -8.3144,0.56501 -11.54482,1.15148 -11.87891,2.16016 -0.36616,1.1055 0.32503,1.22858 3.41992,0.60937 4.7774,-0.95586 65.02972,-0.70375 102.85743,0.42969 15.3882,0.46108 28.5507,0.61796 29.25,0.34961 C 248.616,349.93291 249,350.90318 249,353.48633 v 3.70117 l -4.75,-0.56641 c -6.71499,-0.80039 -68.17026,-1.97525 -96.75,-1.84961 -27.81265,0.12226 -26.95935,0.10121 -26.41211,0.64844 1.64859,1.6486 78.07614,4.10584 114.16211,3.66992 5.9125,-0.0714 10.75,0.25218 10.75,0.72071 0,1.01186 -7.91925,6.06591 -13.32617,8.5039 -7.21871,3.25526 -2.52868,5.55824 11.69726,5.74219 4.43954,0.0574 8.3406,-0.3699 8.94922,-0.97852 C 253.91379,372.48466 257.145,372 260.5,372 c 3.41111,0 6.62779,-0.52818 7.29883,-1.19922 1.68569,-1.68569 1.50368,-7.53132 -0.26563,-8.52148 -0.88429,-0.49486 -1.25088,-1.64391 -0.92382,-2.89453 0.50657,-1.93721 1.2201,-2.06692 10.8457,-1.97852 l 10.30469,0.0937 0.006,4.95117 c 0.004,4.24776 0.41132,5.27933 2.86915,7.2461 1.57596,1.2611 3.22628,2.29387 3.66796,2.29687 0.44168,0.003 2.30252,1.02448 4.13477,2.26953 l 3.33203,2.26367 -29.13476,0.12696 C 146.94989,377.20231 55.817068,377.14097 30.25,376.49023 L 0,375.7207 v 2.99805 2.99805 l 73.634766,0.11132 c 40.499394,0.0605 73.852424,0.32509 74.117184,0.58985 0.64482,0.64482 116.72533,-0.37471 140.74805,-1.23633 10.45,-0.37482 30.37853,-0.30189 44.28516,0.16211 13.90663,0.46401 25.94413,0.59049 26.75,0.28125 C 360.35121,381.31185 361,379.79198 361,378.19336 v -2.87109 l -15.75,0.21289 c -8.6625,0.11686 -20.7,0.48946 -26.75,0.82812 -9.85698,0.55175 -10.5324,0.48746 -6.5,-0.62305 5.43267,-1.49613 6.23105,-4.01113 2.95703,-9.30859 -1.20214,-1.94511 -1.96551,-3.75714 -1.69726,-4.02539 0.87966,-0.87966 27.74123,-0.48203 31.53515,0.4668 2.03761,0.50959 5.61758,1.20265 7.95508,1.53906 3.68181,0.52988 4.25,0.36554 4.25,-1.22852 0,-1.39698 -1.2642,-2.13692 -5.25,-3.07031 -7.00565,-1.64058 -32.1796,-2.5242 -37.44727,-1.31445 -3.34104,0.76729 -4.66598,0.64355 -6.5,-0.60938 -2.68375,-1.83343 -3.83513,-3.32898 -3.26953,-4.24414 0.22075,-0.35719 7.95314,-0.95902 17.1836,-1.33789 13.23191,-0.54311 18.47577,-0.36291 24.7832,0.85156 9.23473,1.77811 11.5,1.90065 11.5,0.6211 0,-0.50591 -3.2625,-1.69997 -7.25,-2.65235 -11.45664,-2.73634 -38.6604,-2.64545 -47.94727,0.16016 -1.17191,0.35404 -2.20218,-0.4611 -3.32421,-2.63086 -0.89414,-1.7291 -1.32993,-3.43939 -0.96875,-3.80078 1.5766,-1.57749 44.50087,-0.63561 49.49023,1.08594 5.09262,1.7572 8.96599,2.39737 10.13672,1.67383 2.14822,-1.32768 -0.009,-2.66799 -7.14063,-4.4336 -4.57501,-1.13269 -13.46575,-1.77728 -30.06836,-2.18164 -23.20928,-0.56528 -23.57056,-0.60673 -23.41992,-2.6875 0.14392,-1.9879 0.88975,-2.15564 12.57227,-2.82422 14.93029,-0.85443 35.22552,-0.22267 43.1875,1.34375 3.18642,0.62689 6.08823,0.84536 6.44726,0.48633 1.43243,-1.43242 -1.74235,-2.6843 -10.75976,-4.24609 -7.59031,-1.31462 -13.64583,-1.53161 -30.70508,-1.09375 -17.89663,0.45936 -21.25,0.32266 -21.25,-0.86719 0,-0.77703 -0.1125,-1.74961 -0.25,-2.16211 -0.4497,-1.3491 23.44833,-3.0275 36.9375,-2.59375 11.11522,0.35742 18.88907,1.48272 23.8125,3.44531 0.55,0.21924 1.14793,-0.0516 1.32812,-0.60156 0.18021,-0.55 -3.41977,-2.0367 -8,-3.30273 -9.49572,-2.62475 -28.06763,-3.36484 -45.07812,-1.79883 l -9.75,0.89648 v -3.0625 -3.0625 l 7.75,-0.83398 c 12.13058,-1.30747 47.08155,-0.89993 51.5918,0.60156 2.68933,0.89529 4.15775,0.96334 4.89453,0.22656 0.73677,-0.73677 0.33438,-1.20141 -1.3418,-1.54687 -1.31705,-0.27145 -5.73215,-1.26409 -9.8125,-2.20508 -6.36906,-1.46881 -10.51256,-1.61198 -29.28125,-1.01758 -12.0242,0.3808 -22.47049,0.92605 -23.21289,1.21094 -0.85503,0.3281 -1.76087,-0.6652 -2.47266,-2.70703 -0.61798,-1.77288 -0.93329,-3.41435 -0.69921,-3.64844 1.57505,-1.57504 55.8974,-2.28246 62.83398,-0.81836 3.07927,0.64994 3.75,0.5102 3.75,-0.78125 0,-0.97797 -1.45416,-1.96397 -3.84375,-2.60742 -6.16091,-1.65896 -30.53978,-1.98338 -47.76172,-0.63477 -14.23687,1.11486 -16.02213,1.08008 -17.11328,-0.33203 -2.03111,-2.62855 -1.44494,-3.72791 1.96875,-3.69531 1.7875,0.0171 9.96158,-0.53968 18.16406,-1.23633 13.75403,-1.16815 22.62446,-1.06226 41.08594,0.49024 8.04053,0.67616 8.17099,-0.0475 0.375,-2.07813 -11.35186,-2.9568 -44.02997,-2.98514 -62.125,-0.0527 -2.59929,0.42123 -3.00976,-0.0851 -7.5,-9.24805 -4.43144,-9.04297 -4.76561,-10.27487 -4.98828,-18.36524 l -0.23828,-8.67187 3.23828,-0.54297 c 1.78128,-0.29871 5.15078,-0.83758 7.48828,-1.19726 2.82046,-0.434 4.25,-1.15884 4.25,-2.1543 0,-1.19168 -0.80924,-1.3638 -3.93359,-0.83594 -4.67423,0.7897 -15.74239,1.7082 -18.56641,1.54102 -1.1,-0.0655 -6.05,-0.0932 -11,-0.0625 -10.8411,0.0673 -15.50833,1.77563 -18.12305,6.63086 l -1.82226,3.38281 -9.52735,-0.58789 c -8.13934,-0.50304 -11.106,-0.20998 -20.36523,2.00976 C 195.84967,272.7136 195,272.71006 195,269.36523 c 0,-4.047 1.78815,-10.22614 5.3125,-18.36523 1.4541,-3.35809 2.80603,-11.84515 6.21289,-39 4.83304,-38.52245 4.91856,-39 7.09375,-39 1.71762,0 1.69832,0.55208 -0.58203,16.5 -1.51133,10.5697 -2.2823,71.22981 -0.91602,72.07422 0.55629,0.3438 1.31941,0.3193 1.69532,-0.0566 0.37591,-0.37597 0.71756,-15.38496 0.75976,-33.35156 0.0951,-40.5201 1.4997,-50.12225 6.65039,-45.46094 2.04843,1.8538 2.27081,6.63226 0.7461,16.02734 -0.67145,4.13722 -0.67732,6.82712 -0.0176,8 2.88685,5.13205 5.90128,14.52346 6.50586,20.26758 2.62096,24.90176 5.06505,39 6.75976,39 1.12129,0 0.50661,-10.74189 -1.20117,-21 -3.50176,-21.03392 -3.61327,-23.99413 -0.80273,-21.18359 0.65083,0.65083 2.72046,1.18359 4.59961,1.18359 3.77356,0 3.75547,-0.23932 0.58203,8 -2.41757,6.27684 -2.61407,22.31252 -0.2793,22.77539 1.40471,0.27848 1.60724,-0.91161 1.52734,-8.97656 -0.0735,-7.40951 0.37369,-10.5409 2.20118,-15.41211 2.10748,-5.61754 2.62272,-6.21152 6.34961,-7.32813 2.244,-0.67232 6.2329,-3.25091 8.92968,-5.77343 C 261.48242,214.2111 262,213.2733 262,209.4668 c 0,-2.50628 -1.27237,-7.28647 -3.08984,-11.61328 -5.23702,-12.46765 -8.9814,-22.11742 -8.68946,-22.39258 0.40635,-0.38301 8.83713,-0.82899 11.92383,-0.63086 2.60616,0.16728 2.6513,0.30174 3.27344,9.41992 1.40629,20.61074 1.80535,23.51941 2.77344,20.25 0.48858,-1.65 0.75708,-8.81199 0.59765,-15.91602 -0.28072,-12.50776 0.17648,-14.62478 2.76172,-12.81836 0.57755,0.40356 1.80722,4.10938 2.73242,8.23438 0.92519,4.125 2.77724,11.57107 4.11719,16.54688 1.33994,4.97577 2.9244,12.55864 3.52149,16.85156 1.14607,8.23997 1.59663,9.60156 3.17187,9.60156 2.36597,0 -4.74168,-40.73592 -8.25195,-47.29492 -1.36144,-2.54387 -0.7756,-2.86691 3.55664,-1.9668 l 3.70117,0.76758 0.28906,7.49805 c 0.25854,6.70665 3.1016,21.49199 7.11524,36.99609 8.07982,31.21112 8.17264,31.48788 10.51562,31.83789 1.86533,0.27865 2.12212,0.0153 1.46875,-1.5 -0.43589,-1.0109 -1.28842,-4.08789 -1.89453,-6.83789 -0.60612,-2.75 -1.37863,-5.45 -1.7168,-6 -0.33818,-0.55 -0.93947,-2.8 -1.33593,-5 -0.39645,-2.2 -1.08895,-4.45 -1.54102,-5 -0.45206,-0.55 -1.28943,-3.25 -1.85938,-6 -0.56993,-2.75 -1.74089,-7.475 -2.60351,-10.5 -0.86263,-3.025 -2.03694,-9.775 -2.60742,-15 -0.57048,-5.225 -1.45896,-11.075 -1.97657,-13 -0.51758,-1.925 -0.94426,-4.74065 -0.94726,-6.25781 -0.005,-2.45621 0.20183,-2.63037 1.88672,-1.57813 1.51217,0.94436 3.26966,0.76528 8.75,-0.89844 3.77177,-1.145 8.11063,-2.36248 9.64258,-2.70312 1.82554,-0.40591 3.1211,-1.55579 3.75781,-3.33984 0.53431,-1.49714 1.58966,-3.84766 2.3457,-5.22266 2.02645,-3.68548 1.58788,-10.38269 -0.70898,-10.82422 -1.17972,-0.22679 -2.0136,0.3842 -2.36719,1.73633 -0.30016,1.14783 -1.15757,2.08789 -1.9043,2.08789 -0.74673,0 -2.06323,1.36521 -2.92578,3.0332 -1.59261,3.07977 -3.94059,3.17993 -3.11133,0.13282 0.24935,-0.91621 0.73254,-3.31722 1.07227,-5.33594 l 0.61719,-3.67188 -7.2793,-2.16992 c -4.00421,-1.19435 -8.2338,-2.54362 -9.39844,-2.99805 -1.48924,-0.58109 -2.60821,-0.3371 -3.76953,0.82422 -1.27108,1.27108 -2.05016,1.39946 -3.38281,0.5586 -2.25088,-1.42022 -2.50113,-11.29796 -0.42383,-16.69922 1.33106,-3.46093 1.31222,-3.98507 -0.20312,-5.5 -1.47137,-1.47098 -1.79176,-1.49152 -2.625,-0.17383 -0.52169,0.825 -0.96011,3.3 -0.97461,5.5 -0.0404,6.13612 -1.14978,11.52773 -2.23438,10.85742 -2.14675,-1.32677 -5.75076,-11.02418 -5.75976,-15.5 -0.009,-4.44452 -0.99631,-5.85742 -4.0918,-5.85742 -3.01953,0 1.16632,15.10096 6.49414,23.42969 1.93409,3.02346 3.19546,5.6826 2.80273,5.91015 -0.39272,0.22754 -3.86484,0.72264 -7.71484,1.09961 -3.85,0.37696 -9.87973,1.38665 -13.40039,2.24414 -7.28068,1.77327 -15.61569,1.23001 -18.02149,-1.17578 -2.12121,-2.12123 -2.00802,-13.73463 0.23438,-24 1.43813,-6.58355 2.4058,-8.69862 5.48438,-12 2.05549,-2.20428 4.62994,-5.79188 5.7207,-7.97265 3.1319,-6.26162 11.43633,-14.183695 17.83984,-17.015629 C 266.49178,91.133368 269.70511,90 270.49609,90 c 0.79098,0 2.94944,1.4625 4.79883,3.25 1.84938,1.7875 5.67189,5.027252 8.49414,7.19922 C 287.99608,103.68688 295,112.3169 295,114.26367 c 0,0.26642 2.24241,4.47958 4.98242,9.36133 2.74,4.88175 4.99557,9.775 5.01367,10.875 0.055,3.34589 3.67696,13.89102 4.91211,14.30273 0.63725,0.21242 1.82522,0.12932 2.64063,-0.18359 1.2618,-0.4842 1.18223,-1.12751 -0.53321,-4.32812 C 310.90708,142.22269 310,139.75826 310,138.81445 310,132.51171 301.99952,113.71824 296.56836,107.26367 295.15589,105.58504 294,103.90928 294,103.53906 c 0,-0.37024 1.9125,-0.53203 4.25,-0.35742 2.4801,0.18527 4.15029,-0.0981 4.01172,-0.68164 -0.13059,-0.55 -2.62752,-7.975 -5.54883,-16.5 -2.92132,-8.525 -5.88243,-18.2 -6.58203,-21.5 -1.29637,-6.114939 -3.65626,-15.554411 -5.26367,-21.054688 -0.95043,-3.252212 -6.01917,-8.506773 -14.6836,-15.222656 -4.8758,-3.779284 -10.73294,-5.631458 -17.63671,-5.55664 z M 91.5,23.839844 87.955078,27.181641 c -5.671273,5.345874 -9.572758,14.708777 -8.503906,20.40625 1.115094,5.94396 3.790184,3.848173 4.205078,-3.292969 0.333237,-5.735655 1.953133,-8.394553 7.835938,-12.861328 4.732642,-3.593466 5.388804,-3.795479 12.568362,-3.855469 6.81279,-0.05692 8.34368,0.317947 15.21289,3.712891 8.01848,3.962951 11.32655,7.348458 11.88867,12.164062 0.18563,1.590273 0.90039,3.075033 1.58789,3.300781 0.89092,0.292545 1.25,-1.063596 1.25,-4.720703 0,-4.158966 -0.46393,-5.560335 -2.44727,-7.398437 C 125.4396,28.971266 113.60004,24.976536 101,24.328125 Z m 162.54297,1.865234 c 1.25372,0.07216 2.86708,0.287857 4.54101,0.632813 4.67821,0.964064 7.25168,2.248673 11.21875,5.59375 2.8316,2.387646 5.42489,5.208277 5.76172,6.269531 0.33683,1.061254 1.93838,3.439818 3.5586,5.285156 2.98253,3.39691 4.76319,8.714094 6.87109,20.513672 0.63865,3.575 2.05451,8.525 3.14648,11 1.09196,2.475 3.03466,8.55 4.31641,13.5 1.28175,4.95 2.65047,9.7875 3.04297,10.75 0.3925,0.9625 0.32876,1.69797 -0.14258,1.63477 -3.36662,-0.45177 -8.1252,-1.624395 -9.14062,-2.251958 C 286.54799,98.219459 286,96.342309 286,94.460938 286,92.579566 285.33671,87.5432 284.52539,83.269531 283.71408,78.995862 282.32802,71 281.44531,65.5 279.72389,54.774196 277.17502,49.349826 270.17188,41.5 265.97541,36.796202 262.34561,34.396426 255.5,31.802734 c -4.96817,-1.88236 -4.97454,-1.890193 -1,-1.269531 2.2,0.34355 5.99252,1.499531 8.42773,2.568359 2.76779,1.214804 4.78071,1.590394 5.36915,1.001954 1.26074,-1.260757 -5.78208,-4.80036 -12.35938,-6.210938 -2.82853,-0.606611 -4.74749,-1.482971 -4.27734,-1.953125 0.23508,-0.235076 1.12909,-0.306537 2.38281,-0.234375 z m -21.72852,5.25586 c 0.98062,-0.07165 2.03521,-0.05613 3.24805,0.03516 1.61712,0.121709 3.51516,0.376937 5.89062,0.740234 10.07224,1.540423 20.73419,5.267294 24.56055,8.583984 1.38291,1.198702 3.53804,3.836748 4.78906,5.861329 2.60532,4.216317 4.06338,13.164912 2.32032,14.242187 -1.40408,0.867768 -1.45356,5.578994 -0.0957,9.150391 0.56538,1.487083 0.8043,2.928125 0.5293,3.203125 C 272.82822,73.505753 270.98747,68.327539 269.72656,62 269.12376,58.975 267.59963,55.082455 266.33984,53.349609 264.02646,50.167541 252.73645,42.004694 250.63672,41.996094 250.01189,41.993548 246.8,40.87893 243.5,39.519531 c -3.78189,-1.557909 -7.9905,-2.481133 -11.38281,-2.496093 -4.88974,-0.02156 -5.68994,0.302267 -8.75,3.546874 L 220,44.142578 v -4.044922 c 0,-3.533746 0.41114,-4.27129 3.25,-5.820312 3.85046,-2.101003 6.12261,-3.101465 9.06445,-3.316406 z m -0.79101,8.111328 c 0.39102,-0.125086 0.51724,0.633267 0.082,2.367187 -0.33665,1.341293 -0.13006,2.735566 0.45898,3.099609 0.59221,0.366009 1.31538,-0.27593 1.61914,-1.4375 C 233.98575,41.946224 234.68242,41 235.23242,41 c 0.55,0 0.77131,0.880277 0.49024,1.955078 -0.34598,1.323036 0.26712,2.463044 1.90039,3.533203 2.54323,1.66639 2.70094,1.540836 3.70312,-2.988281 0.2434,-1.1 0.4948,-0.176719 0.5586,2.050781 0.0638,2.2275 0.56573,4.499327 1.11523,5.048828 0.66546,0.665456 -0.14785,0.864733 -2.43555,0.597657 -3.27915,-0.382822 -3.46821,-0.231362 -4.14257,3.363281 -0.99539,5.305798 0.39554,6.984914 5.58398,6.738281 2.32575,-0.110555 4.48231,-0.453009 4.79102,-0.761719 0.3087,-0.30871 -0.36217,-1.810139 -1.49024,-3.335937 l -2.05078,-2.773438 2.37305,-1.121093 C 247.53466,52.407271 248,52.467031 248,53.603516 c 0,0.778015 1.3605,3.292269 3.02344,5.58789 1.66294,2.295621 4.17271,8.028118 5.57812,12.740235 1.4054,4.712117 3.41253,9.775516 4.45899,11.251953 l 1.90234,2.685547 -5.62695,1.634765 c -3.09522,0.899805 -8.71284,1.89491 -12.48242,2.210938 C 239.02344,90.203617 238,90.053058 238,88.705078 c 0,-1.108584 1.12463,-1.677409 3.74219,-1.894531 2.66792,-0.221299 3.8391,-0.8296 4.08398,-2.121094 0.29788,-1.570977 -0.13277,-1.7231 -3.24805,-1.138672 -6.11127,1.146486 -12.12313,-0.258252 -13.43554,-3.138672 -1.29772,-2.848184 -1.51252,-7.077426 -0.39258,-7.734375 1.82811,-1.07236 7.52968,0.678953 7.99414,2.455078 0.26863,1.027226 0.8872,1.867188 1.37305,1.867188 1.3442,0 1.07831,-0.916392 -1.18555,-4.095703 -1.68242,-2.36273 -2.80136,-2.904297 -6,-2.904297 -5.41985,0 -5.30513,-2.525434 0.1543,-3.398438 3.60722,-0.576817 4.32554,-0.349248 6.1289,1.94336 1.33937,1.702733 2.38034,2.258336 3.02539,1.613281 0.64506,-0.645056 -7e-5,-2.218049 -1.87695,-4.570312 C 235.35092,61.812539 234.5103,61.365301 233.5,63 c -0.79567,1.287434 -4.19915,1.296827 -4.99219,0.01367 -0.33535,-0.54261 -0.22326,-2.45511 0.24805,-4.25 0.47134,-1.794889 0.69011,-4.030141 0.48633,-4.966797 -0.37727,-1.734148 -3.72871,-3.383602 -5.99219,-2.949219 -1.68764,0.323872 -1.60334,-0.10793 0.98438,-5.066406 1.56098,-2.991098 2.3352,-3.754019 2.57226,-2.53125 0.5151,2.656872 1.87587,2.097929 3.04297,-1.25 0.62569,-1.794863 1.28281,-2.802649 1.67383,-2.927734 z m 15.14648,4.140625 c 0.10032,-0.07365 0.2595,-0.07045 0.47656,0.002 0.66129,0.220429 2.02302,2.814723 3.0254,5.763672 1.91569,5.635912 1.7239,8.34791 -0.24024,3.40039 -0.62867,-1.583574 -1.78212,-4.382234 -2.56445,-6.220703 -0.77039,-1.810403 -0.99821,-2.724356 -0.69727,-2.945312 z m -1.18554,3.171875 c 0.2593,0.132675 0.5749,0.73481 0.79492,1.576172 C 246.57264,49.082752 246.61577,50 246.375,50 c -0.71095,0 -1.666,-3.041038 -1.125,-3.582031 0.0683,-0.06827 0.14794,-0.07743 0.23438,-0.0332 z M 115.60938,47 c 1.21629,0 1.45495,0.60948 0.98046,2.5 -0.67089,2.673036 0.8089,3.508449 1.77149,1 0.98053,-2.555218 2.72717,-1.7027 2.04883,1 -0.35337,1.407956 -0.19332,2.5 0.36523,2.5 0.54548,0 1.2197,-0.871139 1.49805,-1.935547 0.35452,-1.355709 1.1029,-1.779412 2.5,-1.414062 1.3266,0.346913 1.83669,1.124363 1.52344,2.322265 -0.52571,2.01023 1.21281,3.629515 2.19335,2.042969 C 129.63767,53.159029 131,53.965162 131,56.5 c 0,1.965666 -0.50755,2.5 -2.37695,2.5 -2.39207,0 -4.90174,2.054435 -4.45117,3.644531 0.13327,0.470393 -0.0882,2.81058 -0.49219,5.201172 -0.60678,3.590736 -1.03384,4.223249 -2.45703,3.636719 -6.02727,-2.483978 -7.52878,-0.549994 -1.72266,2.21875 1.925,0.917968 3.5,2.169738 3.5,2.78125 0,1.468594 -6.68432,7.776806 -10.60352,10.007812 -3.09923,1.764243 -3.11234,1.762616 -11.44336,-2.333984 -4.587525,-2.255823 -8.542329,-3.899071 -8.789058,-3.652344 -0.913703,0.913703 2.339157,3.712952 6.029297,5.189453 4.259561,1.704338 4.717911,2.748963 1.873051,4.271485 -1.063849,0.569351 -2.076346,1.017684 -2.250004,0.996094 -0.581601,-0.07229 -12.312485,-10.199442 -12.572265,-10.853516 -0.141012,-0.355041 1.3005,-1.484083 3.205078,-2.509766 4.601519,-2.478082 11.004928,-10.203223 12.759761,-15.394531 0.9664,-2.858913 1.73775,-3.855998 2.43946,-3.154297 0.7017,0.701699 1.92274,0.684311 3.86133,-0.05273 3.70087,-1.407067 6.21332,-0.572643 4.49804,1.49414 -0.92611,1.115889 -1.69278,1.214425 -3.19922,0.408204 -1.08935,-0.583005 -2.24098,-0.798077 -2.56054,-0.478516 -0.6743,0.674295 -0.78284,0.575934 3.70117,3.322266 l 3.44726,2.111328 2.80274,-1.994141 c 3.19483,-2.274915 3.43071,-3.740277 1.27539,-7.908203 -1.00989,-1.952921 -2.27765,-2.939826 -3.75,-2.916016 -2.0962,0.03389 -2.05182,0.178661 0.77539,2.496094 l 3,2.458984 -2.5,-0.02734 c -3.61726,-0.03883 -6.28342,-2.258018 -4.71484,-3.923829 0.98029,-1.041057 0.6675,-1.192735 -1.61914,-0.787109 -2.50012,0.443496 -2.76725,0.251463 -2.26368,-1.625 0.31402,-1.170125 0.57599,-2.464453 0.58399,-2.876953 0.0289,-1.587113 2.01367,-0.659212 2.01367,0.941406 0,1.474655 0.18849,1.442653 1.46875,-0.25 1.32847,-1.756397 1.4712,-1.774863 1.5,-0.191406 C 112.01323,51.697607 114,51.453087 114,49 c 0,-1.171023 0.66762,-2 1.60938,-2 z m 139,0.130859 c 0.17331,-0.0075 0.3867,0.02653 0.64062,0.109375 0.6875,0.224311 2.25807,2.512463 3.49023,5.083985 2.43394,5.079662 3.84973,6.160608 2.84961,2.175781 -0.78016,-3.108389 0.9246,-3.33833 1.85352,-0.25 0.59603,1.981479 0.84846,10.491904 0.62891,21.25 -0.0393,1.925 -0.53569,3.5 -1.10157,3.5 -0.63534,0 -0.90557,-2.582048 -0.70703,-6.75 0.17684,-3.7125 0.0278,-8.55 -0.33008,-10.75 -0.64956,-3.992697 -0.64937,-3.990099 -0.79101,1.191406 -0.22721,8.311378 -1.84407,7.026708 -2.35938,-1.875 -0.39356,-6.798484 -0.82748,-8.433507 -2.62695,-9.890625 -2.0413,-1.652941 -2.76018,-3.742696 -1.54687,-3.794922 z M 101.90234,48 c 2.1806,0 2.92819,2.294377 2.11914,6.5 -0.47699,2.479564 -0.70284,2.681155 -1.30273,1.160156 -0.39919,-1.012133 -0.49084,-2.219277 -0.20508,-2.68164 0.28575,-0.462363 0.10298,-1.096635 -0.40429,-1.410157 -0.50731,-0.313522 -1.23889,1.793623 -1.62696,4.681641 -1.026839,7.641745 -2.464144,9.377013 -1.863279,2.25 C 99.384968,49.41633 99.828109,48 101.90234,48 Z m 120.98047,5 c 0.55,0 1.27727,0.45 1.61719,1 0.33992,0.55 0.16719,1 -0.38281,1 -0.55,0 -1.27727,-0.45 -1.61719,-1 -0.33992,-0.55 -0.16719,-1 0.38281,-1 z m 32.6543,1.230469 c 0.0518,0.04043 0.10838,0.210156 0.16797,0.519531 0.23836,1.2375 0.23836,3.2625 0,4.5 -0.23835,1.2375 -0.4336,0.225 -0.4336,-2.25 0,-1.85625 0.11023,-2.89082 0.26563,-2.769531 z M 84.863281,56.107422 C 84.912735,56.260386 84.621534,56.856601 84.027344,58 82.285179,61.352446 82,61.604764 82,59.789062 c 0,-0.849321 0.749016,-2.161171 1.664062,-2.916015 0.76092,-0.627701 1.149765,-0.918589 1.199219,-0.765625 z m 157.892579,1.310547 c 0.27779,0.06558 0.53042,0.235609 0.69141,0.496093 0.32198,0.520967 0.15964,1.211228 -0.36133,1.533204 -0.52097,0.321975 -1.21124,0.159639 -1.53321,-0.361328 -0.32198,-0.520969 -0.15964,-1.211228 0.36133,-1.533204 0.26049,-0.160987 0.56401,-0.200342 0.8418,-0.134765 z m -154.359376,0.0332 C 88.757491,57.60762 89,58.352881 89,59.441406 89,60.848865 88.55,62 88,62 87.45,62 87,61.126135 87,60.058594 87,58.991053 87.45,57.839919 88,57.5 c 0.14179,-0.08763 0.276149,-0.100973 0.396484,-0.04883 z m 178.005856,0.8125 c 0.275,-0.275 0.80211,0.698549 1.16993,2.164062 0.36782,1.465513 0.44296,2.891016 0.16796,3.166016 -0.275,0.275 -0.80014,-0.700503 -1.16796,-2.166016 -0.36782,-1.465513 -0.44493,-2.889062 -0.16993,-3.164062 z M 95.029297,58.537109 c 1.040692,-0.0032 0.960877,0.717848 0.480469,3.333985 -0.366445,1.99553 -1.087955,4.064843 -1.605469,4.597656 -0.590203,0.607651 -0.702622,-0.23103 -0.298828,-2.25 C 94.017325,62.159469 93.855753,61 93.154297,61 c -0.603025,0 -1.559185,1.4625 -2.123047,3.25 l -1.025391,3.25 0.498047,-3.375 C 90.777043,62.26875 91,60.40932 91,59.992188 c 0,-0.417133 1.164245,-0.98176 2.587891,-1.253907 0.622132,-0.118928 1.094509,-0.200117 1.441406,-0.201172 z m 129.152343,0.646485 c 0.57982,-0.05966 0.87677,2.59155 0.66211,8.509765 -0.42287,11.65882 1.44882,16.327646 7.50781,18.722657 l 4.14844,1.640625 -5,2.955078 c -5.47989,3.238549 -5.54845,3.249845 -10.26953,1.736328 -2.29473,-0.73566 -3.1262,-1.525741 -2.78711,-2.648438 C 218.7091,89.219777 219.40293,84.45 219.98438,79.5 c 1.47844,-12.586681 3.23089,-20.216974 4.19726,-20.316406 z M 78.078125,62 c 0.440245,0 -0.331244,3.2625 -1.712891,7.25 C 73.993353,76.095366 71,81.084535 71,78.191406 71,76.189722 77.203133,62 78.078125,62 Z m 199.531255,0.533203 c 0.79874,0.110779 1.27481,2.076325 1.71289,6.267578 0.33708,3.225043 0.90005,6.614227 1.25195,7.53125 C 280.92611,77.249055 280.80513,78 280.30469,78 c -0.50043,0 -2.05646,-2.5875 -3.45703,-5.75 -2.30182,-5.197567 -2.40649,-5.966117 -1.08789,-7.992188 0.77502,-1.190835 1.37036,-1.791076 1.84961,-1.724609 z M 84.511719,63.386719 c 0.626571,0.540475 -0.467308,6.379972 -2.087891,10.363281 -1.494195,3.672653 -3.021341,4.44685 -1.972656,1 0.376502,-1.2375 1.129642,-4.05 1.673828,-6.25 0.544187,-2.2 1.448509,-4.45 2.009766,-5 0.163229,-0.159955 0.287443,-0.190492 0.376953,-0.113281 z M 87.246094,64 c 0.5339,0 0.718481,1.0125 0.410156,2.25 -0.308326,1.2375 -0.866691,4.171794 -1.240234,6.521484 -0.373543,2.34969 -1.145574,4.561028 -1.716797,4.914063 -0.648002,0.400487 -0.785969,-0.01609 -0.367188,-1.107422 0.369162,-0.962019 0.956612,-4.185856 1.306641,-7.164063 C 85.988702,66.435857 86.712195,64 87.246094,64 Z m 39.222656,0.400391 c 0.22034,-0.0185 0.55416,0.368931 1.0625,1.041015 0.80751,1.067621 1.455,2.417621 1.4375,3 -0.0175,0.582378 -0.6925,1.932378 -1.5,3 -1.3539,1.790004 -1.4668,1.556442 -1.4375,-3 0.0184,-2.851307 0.0703,-4.010183 0.4375,-4.041015 z m 141.72852,2.480468 c 0.16961,-0.204273 0.51395,0.454454 0.90625,1.810547 0.50778,1.755306 2.17663,4.084647 3.70898,5.175782 C 275.07995,75.481753 284,91.057365 284,93.402344 c 0,1.155282 -2.52852,0.566193 -5.23828,-1.220703 -2.07138,-1.365935 -2.45647,-2.086494 -1.58203,-2.960938 0.87446,-0.874445 0.86117,-2.138975 -0.0527,-5.189453 -1.65583,-5.526669 -3.20162,-5.096248 -2.58398,0.71875 0.35379,3.330996 0.23078,4.152525 -0.41016,2.75 -1.85036,-4.048995 -6.13037,-18.300157 -6.04297,-20.121094 0.0128,-0.266106 0.0509,-0.429956 0.10743,-0.498047 z M 89.292969,68.375 C 89.474219,68.295072 89.725,68.33004 90,68.5 c 0.55,0.339919 1,0.816053 1,1.058594 C 91,69.801135 90.55,70 90,70 89.45,70 89,69.523865 89,68.941406 89,68.650177 89.111719,68.454928 89.292969,68.375 Z M 265.98047,71.5 267.95508,78 c 1.08595,3.575 1.99046,7.0625 2.00976,7.75 0.0435,1.545995 -1.60515,1.641778 -2.52929,0.146484 -0.37541,-0.607414 -0.85603,-4.094914 -1.06836,-7.75 z m -155.20703,2.34375 -2.88672,2.765625 C 106.29919,78.130324 105,79.7404 105,80.1875 c 0,1.253599 1.17018,0.968232 3.06445,-0.746094 1.55707,-1.409092 2.0774,-1.408945 5.43555,-0.0059 6.54084,2.732935 7.72812,-0.259001 1.38672,-3.494141 z M 78.869141,74.080078 C 78.93266,74.2 78.672468,74.729889 78.128906,75.75 76.888996,78.076958 76,78.650531 76,77.123047 c 0,-0.482656 0.749016,-1.495156 1.664062,-2.25 0.754302,-0.622243 1.14156,-0.912891 1.205079,-0.792969 z m 153.169919,2.09961 c -2.01118,-0.315096 -2.70525,0.820141 -1.33789,2.1875 0.97235,0.972357 3.40673,0.349909 3.39063,-0.867188 -0.007,-0.55 -0.93095,-1.144559 -2.05274,-1.320312 z M 74.941406,80 c 0.517541,0 1.218675,0.45 1.558594,1 0.339919,0.55 -0.08395,1 -0.941406,1 C 74.701135,82 74,81.55 74,81 c 0,-0.55 0.423865,-1 0.941406,-1 z m 5.5625,1.939453 c 1.754438,0.235036 4.848038,1.816771 7.375,4.101563 2.408235,2.177443 3.983235,3.95911 3.5,3.958984 -1.61417,-4.2e-4 -11.800683,-5.76533 -12.175781,-6.890625 -0.322522,-0.967567 0.248118,-1.310944 1.300781,-1.169922 z M 113,82 c -0.55,0 -1,0.45 -1,1 0,0.55 0.45,1 1,1 0.55,0 1,-0.45 1,-1 0,-0.55 -0.45,-1 -1,-1 z m -42.023438,2 c 0.438587,0 5.672008,2.29312 11.628907,5.095703 6.409144,3.015353 10.978243,4.651205 11.193359,4.005859 0.199936,-0.599807 2.809461,0.819611 5.798828,3.154297 2.989364,2.334726 5.766694,4.149061 6.169924,4.033201 0.40322,-0.11585 0.95742,-1.654495 1.23242,-3.419919 0.275,-1.765424 1.00674,-3.378059 1.625,-3.582032 3.62699,-1.1966 14.32522,14.876641 14.1875,21.314451 -0.0702,3.28123 2.20396,11.12825 5.70898,19.69922 l 2.37305,5.80078 -4.06836,3.69922 c -2.23737,2.03471 -4.46381,3.84987 -4.94726,4.0332 -0.48345,0.18334 -0.87796,-2.74166 -0.87696,-6.5 0.002,-7.36694 -2.68406,-24.24254 -4.10156,-25.76757 -1.56084,-1.67926 -2.26695,0.37949 -0.96484,2.8125 0.85396,1.59563 1.29635,7.26149 1.34765,17.24804 0.0745,14.50672 -0.006,15.08811 -3.24804,23.65235 -1.82819,4.82902 -3.70893,9.0196 -4.17969,9.31054 -1.97193,1.21872 -2.50412,-0.86833 -1.58399,-6.20898 0.94459,-5.48268 -0.40647,-33.78326 -1.86523,-39.0625 -0.51636,-1.86869 -3.15084,-3.9278 -3.95508,-3.0918 -0.14474,0.15045 0.3723,4.32344 1.15039,9.27344 2.52746,16.07915 3.36899,31.52772 1.92188,35.29883 -0.46807,1.21982 -0.85499,1.21826 -2.78321,-0.0176 -1.23189,-0.78954 -5.209945,-2.47263 -8.839839,-3.74023 -5.862823,-2.04735 -6.599616,-2.59809 -6.603516,-4.92383 C 87.287065,150.23129 85.650613,138 84.873047,138 c -1.606742,0 -2.049135,4.93825 -1.091797,12.1875 0.531172,4.02217 0.77969,7.51865 0.552734,7.76953 -0.226956,0.25088 -1.857259,-0.26908 -3.623046,-1.1543 -1.765789,-0.88522 -4.042795,-1.87958 -5.058594,-2.21093 C 73.91759,154.02593 73.850442,153.01708 74.53125,137.99414 75.157573,124.17346 75.053907,122 73.767578,122 c -1.668899,0 -2.736241,6.35883 -2.769531,16.5 -0.03379,10.2933 -0.854285,13.22047 -3.873047,13.82422 -3.992959,0.7986 -12.553595,7.64758 -11.222656,8.97851 1.101402,1.10141 2.845748,0.39435 11.289062,-4.58007 4.402952,-2.59402 5.49866,-1.95732 3.449219,2.00586 -1.865781,3.60802 -2.671298,19.37922 -1.019531,19.95898 0.746462,0.262 1.167995,-1.86088 1.265625,-6.36328 0.08058,-3.71625 0.590065,-7.19944 1.130859,-7.74024 0.540793,-0.54079 0.989647,-1.6807 0.998047,-2.5332 0.03994,-4.04319 1.460097,-4.3335 8.601563,-1.75195 7.083055,2.56044 25.244982,10.22936 25.990232,10.97461 0.23029,0.23029 -0.23608,1.98716 -1.03711,3.90429 -1.92306,4.60254 -3.24053,14.35432 -1.82031,13.47657 0.57661,-0.35636 1.6033,-3.01119 2.28125,-5.90039 0.67794,-2.88919 1.64005,-6.04141 2.13672,-7.00391 0.91841,-1.77979 3.34634,-2.36257 4.16601,-1 0.98526,1.63784 -3.55086,13.84125 -5.94726,16 -2.72586,2.45554 -7.979006,2.8494 -14.38672,1.07812 -1.925,-0.5321 -5.525,-1.32727 -8,-1.76757 C 59.953878,185.60488 48.943245,179.50283 47.542969,169.30469 47.180098,166.66192 46.796809,152.8 46.691406,138.5 L 46.5,112.5 l 3.009766,-6 C 54.935378,95.681281 59.14654,90.343402 64.839844,87.070312 67.776831,85.381833 70.537976,84 70.976562,84 Z m 190.636718,6.279297 c 0.21285,0.21285 -2.1139,1.696068 -5.16992,3.294922 -3.05603,1.598855 -6.95306,4.260819 -8.66016,5.916015 -1.7071,1.655196 -4.31477,5.661906 -5.79492,8.904296 -2.86989,6.28669 -4.19059,6.22047 -4.18359,-0.21094 0.002,-2.02603 -0.59095,-5.10892 -1.31641,-6.85156 -0.72546,-1.742638 -1.05619,-3.43014 -0.73633,-3.749999 C 236.07181,97.262173 238.24563,97 240.58398,97 245.38827,97 248,96.236859 248,94.832031 c 0,-0.563906 -1.83476,-0.678878 -4.48633,-0.28125 C 238.79726,95.258051 234,94.539546 234,93.126953 c 0,-0.458786 2.14507,-0.626803 4.76562,-0.375 2.62057,0.251802 8.74462,-0.289232 13.61133,-1.201172 4.86671,-0.911939 9.02348,-1.484334 9.23633,-1.271484 z m -153.90625,0.09375 c 0.14951,0.149511 -0.99424,1.486927 -2.54297,2.970703 -2.74661,2.631422 -2.85918,2.651884 -4.52734,0.808594 -1.644426,-1.81707 -1.545664,-1.932401 2.54492,-2.970703 2.33984,-0.593914 4.37588,-0.958105 4.52539,-0.808594 z m 123.81445,4.978515 C 232.64275,94.949666 235,105.87731 235,111.47461 c 0,5.40906 -1.58968,4.19077 -2.9043,-2.22461 -1.5817,-7.71872 -1.81849,-13.452454 -0.57422,-13.898438 z m 34.24024,0.888672 c -3.73451,0.248552 -12.13409,8.487986 -15.81445,16.105466 -1.07082,2.21635 -1.94727,4.17011 -1.94727,4.3418 0,0.90912 1.89848,0.13024 2.28516,-0.9375 0.35621,-0.98363 0.88855,-0.99332 2.49804,-0.0449 1.64938,0.97188 2.28,0.92348 3.25391,-0.25 0.96881,-1.16736 0.89981,-1.45508 -0.3457,-1.45508 -1.22718,0 -1.38254,-0.59044 -0.74414,-2.81641 0.91586,-3.19343 3.82269,-6.50335 9.34961,-10.64648 2.63724,-1.976969 3.4772,-3.163423 2.75195,-3.888672 -0.31576,-0.315761 -0.75361,-0.443711 -1.28711,-0.408204 z m -40.13477,2.054688 c 1.46988,1.469888 3.59685,13.144758 3.58985,19.705078 -0.0139,12.94121 -0.78131,22.41945 -1.99414,24.63281 -0.68741,1.25449 -2.5964,2.40276 -4.63477,2.78516 -3.51333,0.6591 -8.58789,5.44475 -8.58789,8.09961 0,0.75034 -0.40662,1.61625 -0.9043,1.92383 -1.06022,0.65525 -0.54154,-4.84604 1.45703,-15.44141 0.77808,-4.125 1.90172,-10.08159 2.49805,-13.23633 1.35754,-7.18177 1.3566,-7.20066 -0.40039,-7.56836 -2.13113,-0.44599 -4.3173,7.35134 -5.76367,20.55469 -0.67781,6.1875 -1.60349,11.25 -2.0586,11.25 C 208.37303,151 208,150.11675 208,149.03711 c 0,-1.07964 -0.85895,-4.14079 -1.9082,-6.80273 -1.49976,-3.80492 -1.72564,-5.791 -1.05664,-9.28711 0.93438,-4.88295 5.8314,-18.85369 8.24218,-23.51563 1.61018,-3.11374 11.47573,-12.010591 12.34961,-11.136718 z M 273.61719,115 c -0.825,0 -1.77727,0.45 -2.11719,1 -0.33992,0.55 0.0578,1 0.88281,1 0.825,0 1.77727,-0.45 2.11719,-1 0.33992,-0.55 -0.0578,-1 -0.88281,-1 z m -147.33203,0.38086 c 0.41577,-0.41577 2.66035,1.0487 4.98632,3.25391 3.74051,3.54631 6.00873,4.78433 15.5254,8.47461 1.26337,0.48989 3.54612,0.89062 5.07226,0.89062 1.52615,0 4.96401,0.74619 7.64063,1.6582 5.51282,1.87841 4.72205,2.61993 -4.12696,3.86719 -2.68513,0.37847 -8.15521,1.76591 -12.15429,3.08203 -3.99908,1.31612 -7.73431,2.39258 -8.30079,2.39258 -1.145,0 -2.32742,-2.65623 -6.53515,-14.68164 -1.57454,-4.49993 -2.52319,-8.52173 -2.10742,-8.9375 z m 30.00976,2.81641 c -0.75055,0.25259 0.0561,1.66618 1.95508,2.58203 3.19958,1.5431 4.75,1.45208 4.75,-0.2793 0,-0.825 -0.86296,-1.5 -1.91797,-1.5 -1.05502,0 -2.63002,-0.27357 -3.5,-0.60742 -0.61342,-0.23539 -1.03693,-0.27951 -1.28711,-0.19531 z m -1.5293,3.00585 c -0.22183,0.0292 -0.39955,0.0988 -0.51757,0.2168 -0.40931,0.40931 0.12856,1.38208 1.19531,2.16211 2.26674,1.65748 4.55664,1.85661 4.55664,0.39649 0,-1.19371 -3.68147,-2.97981 -5.23438,-2.7754 z m 17.3711,2.88672 c 0.18926,-0.0456 0.36861,-0.0399 0.53125,0.0234 0.62445,0.24341 0.67492,1.59574 0.13476,3.63672 -0.90893,3.43438 -3.80273,4.53135 -3.80273,1.44141 0,-2.01975 1.81191,-4.78242 3.13672,-5.10157 z m 5.3164,0.43946 c 1.17388,-0.16519 3.16789,0.6361 7.04688,2.2539 4.73313,1.97404 13.71316,8.7525 14.67969,11.08008 0.8735,2.10393 0.87134,14.33326 -0.004,20.05469 -0.70843,4.63138 -2.7077,6.46474 -3.83789,3.51953 -0.3647,-0.95041 -4.18942,-5.09654 -8.5,-9.21484 C 182.52739,148.10435 179,144.34421 179,143.86719 179,143.39016 180.26371,143 181.80859,143 c 1.54488,0 3.6698,-0.63068 4.72266,-1.40039 3.07088,-2.24549 0.46983,-5.88954 -5.34375,-7.48828 -2.57844,-0.70908 -5.19599,-1.43936 -5.81836,-1.62305 -0.83371,-0.24605 -0.84496,-1.40928 -0.043,-4.41406 0.60005,-2.24808 0.95308,-3.37974 2.12695,-3.54492 z M 164,135.52344 c 11.92426,0.0269 20,1.10039 20,2.6582 0,0.72732 -3.91514,0.83304 -12.5,0.33789 -6.875,-0.39654 -12.5,-0.48279 -12.5,-0.19141 0,0.2914 2.5875,1.04774 5.75,1.67969 5.98882,1.19671 11.25,3.08272 11.25,4.03321 0,0.30387 0.67009,1.43147 1.48828,2.50586 0.81814,1.07436 3.5273,4.78052 6.02149,8.23632 2.49419,3.4558 5.58947,6.68433 6.87695,7.17383 1.28748,0.4895 2.57496,1.79202 2.86328,2.89453 0.5445,2.08218 8.61219,5.14844 13.54492,5.14844 2.32615,0 2.40437,0.20681 1.78125,4.75 -1.79052,13.05467 -2.9528,20.37736 -4.24219,26.75 -0.77898,3.85 -2.05874,12.175 -2.84375,18.5 -0.785,6.325 -2.39411,15.1 -3.57812,19.5 -1.18402,4.4 -2.58863,10.475 -3.11914,13.5 -0.53052,3.025 -1.78232,8.73218 -2.7832,12.68164 -1.74988,6.90482 -1.75208,7.24182 -0.0274,8.80274 1.66003,1.50231 2.71617,1.42899 14.15625,-0.9961 6.7988,-1.44122 14.01804,-2.8718 16.04297,-3.17773 3.63327,-0.54892 3.68965,-0.50516 4.26172,3.3164 1.14895,7.67526 2.60377,12.48646 4.88086,16.14649 2.70234,4.34353 2.36592,8.77382 -0.54102,7.13281 -1.88889,-1.0663 -39.74496,-4.27847 -40.58008,-3.44336 -0.28586,0.28588 -1.06468,0.0659 -1.73242,-0.48828 -0.72079,-0.5982 -10.76196,-1.10149 -24.71289,-1.24023 l -23.5,-0.23438 0.48633,-3.625 c 0.35942,-2.68306 -0.17028,-4.76297 -2.03906,-8 -1.38894,-2.40587 -3.73551,-7.975 -5.21485,-12.375 -1.47933,-4.4 -3.18786,-9.04118 -3.79492,-10.31445 -1.20852,-2.53483 0.16039,-4.14022 3.55469,-4.16993 2.338,-0.0205 2.29495,-0.30316 -1.81055,-11.6621 -1.95875,-5.4194 -4.17528,-12.6118 -4.92383,-15.98243 -0.74853,-3.37064 -2.96901,-10.75824 -4.93554,-16.41797 -1.96653,-5.65971 -3.42441,-10.44083 -3.24024,-10.625 0.18418,-0.18415 2.50984,1.71974 5.16993,4.23243 3.78108,3.57156 5.34575,4.44171 7.16796,3.98437 1.37232,-0.34443 3.3502,0.0822 4.81055,1.03906 2.38987,1.56589 2.51616,1.53321 3.44141,-0.90039 1.33919,-3.52232 4.54337,-2.50465 9.40625,2.98633 3.71166,4.19108 5.95666,5.282 7.09179,3.44531 0.91029,-1.47288 -1.75437,-7.75177 -4.67773,-11.02148 C 147.91355,198.92118 147.25359,197 149,197 c 0.55,0 1,-0.92423 1,-2.05469 0,-2.31841 -10.78315,-13.42425 -14.03711,-14.45703 -2.97165,-0.94317 -2.04577,-2.47525 4.10938,-6.79297 2.98241,-2.0921 5.74661,-4.6796 6.14257,-5.75 0.39597,-1.07039 1.583,-1.94531 2.63672,-1.94531 1.05373,0 3.54358,-1.80163 5.53321,-4.00391 2.47125,-2.73538 5.04384,-4.38504 8.11718,-5.20703 C 168.35501,155.22361 168.23214,154 162.22266,154 157.20504,154 153,151.92248 153,149.44336 c 0,-1.98198 -1.69142,-1.81624 -2.86523,0.28125 -0.91223,1.6301 -1.16453,1.63235 -4.55079,0.0176 C 143.6127,148.80213 142,147.55301 142,146.9668 c 0,-2.70516 3.19002,-6.7101 7.15234,-8.97852 3.88477,-2.22402 5.46641,-2.48594 14.84766,-2.46484 z m 76.00195,0.57812 c -0.36154,-0.002 -0.72208,0.21818 -1.16211,0.65821 -1.32584,1.32584 -3.14108,12.94565 -2.24804,14.39062 1.09646,1.77411 2.90568,0.21694 3.16797,-2.72656 0.14325,-1.60758 0.78218,-4.62411 1.41992,-6.70313 0.88257,-2.87701 0.88093,-4.0607 -0.01,-4.95117 -0.44379,-0.44383 -0.80642,-0.66642 -1.16797,-0.66797 z M 137.97461,142 c 0.56448,0 1.02539,2.09776 1.02539,4.66211 0,3.52813 0.76909,5.8626 3.16211,9.5918 3.45471,5.38369 2.87316,7.07054 -2.11523,6.13867 -1.40093,-0.26169 -5.62752,-0.83234 -9.39258,-1.26758 -5.54844,-0.6414 -6.95059,-0.51943 -7.39649,0.64258 -0.83358,2.17226 1.15477,2.89645 9.98438,3.63281 11.84872,0.98815 12.00034,1.36906 2.94531,7.39453 -8.60443,5.72562 -10.20763,6.23578 -14.23828,4.54102 -4.27868,-1.79905 -7.96225,-5.18126 -7.90625,-7.25977 0.0873,-3.23864 4.68116,-14.93175 7.02539,-17.88086 3.23228,-4.06629 5.401,-5.00852 4.51367,-1.96093 -0.36269,1.24565 -0.903,3.84062 -1.20117,5.76562 l -0.54297,3.5 2.05859,-2.5 c 1.13234,-1.375 2.06984,-3.29841 2.08204,-4.27539 C 128.00214,150.83818 136.23981,142 137.97461,142 Z m 26.27539,0.0352 c -4.62287,0.0345 -4.68309,0.074 -2.25,1.46484 2.81795,1.61089 1.68394,1.74095 -5.25,0.59961 -3.52371,-0.58 -4.75,-0.46461 -4.75,0.45117 0,1.34324 2.18585,2.44922 4.8418,2.44922 0.92272,0 2.21983,0.86808 2.88281,1.92969 0.66298,1.0616 2.45841,2.12057 3.99023,2.35156 5.88268,0.88707 9.08441,0.66602 10.22071,-0.70313 1.85078,-2.23006 -1.5795,-5.54774 -5.90821,-5.71484 -2.33636,-0.0902 -2.76747,-0.28135 -1.27734,-0.56836 4.04186,-0.7785 2.36332,-2.29606 -2.5,-2.25976 z m 40.10547,2.98242 c 0.35898,0.39225 0.82547,3.1801 1.14648,7.50781 0.28005,3.77548 0.92076,7.11878 1.42383,7.42969 0.50308,0.31092 1.22529,1.7977 1.60352,3.30469 0.63699,2.53796 0.46323,2.74023 -2.36133,2.74023 -1.67717,0 -3.31421,-0.42739 -3.63672,-0.94922 -0.32252,-0.52184 -0.11711,-3.87918 0.45508,-7.46094 0.57219,-3.58175 0.9805,-6.86688 0.9082,-7.30078 -0.0723,-0.43391 -0.0788,-1.87591 -0.0137,-3.20508 0.0821,-1.67475 0.25922,-2.30175 0.47461,-2.0664 z M 164.38281,147 c 0.825,0 1.77727,0.45 2.11719,1 0.33992,0.55 -0.0578,1 -0.88281,1 -0.825,0 -1.77727,-0.45 -2.11719,-1 -0.33992,-0.55 0.0578,-1 0.88281,-1 z m 60.86328,1.01562 c 2.37977,0.0279 3.54771,1.46208 4.63477,4.9961 2.29916,7.47458 2.31622,7.48828 8.63867,7.48828 h 5.76758 l 1.92187,5.90039 c 2.23098,6.847 2.03218,7.12987 -5.6621,8.10938 -7.36879,0.93808 -11.3141,2.11489 -13.10547,3.90625 -0.87126,0.87126 -2.11546,1.56908 -2.76368,1.55078 -0.64821,-0.0183 -0.10056,-0.92994 1.21485,-2.02539 2.9731,-2.47595 2.04114,-3.66269 -1.63867,-2.08789 -2.55331,1.09271 -2.61203,1.06775 -0.8125,-0.3379 1.06762,-0.83394 2.30512,-1.51562 2.75,-1.51562 0.44488,0 0.80859,-0.675 0.80859,-1.5 0,-1.88869 -1.92047,-1.87544 -4.44141,0.0312 -1.06762,0.80751 -2.36082,1.46875 -2.87304,1.46875 -1.55893,0 1.57614,-3.14808 4.08398,-4.10156 3.34536,-1.27191 1.70305,-3.1432 -2.11523,-2.41016 -2.98307,0.5727 -3.04836,0.52148 -1.21289,-0.9414 1.06762,-0.85094 2.30512,-1.54688 2.75,-1.54688 0.44488,0 0.80859,-0.84696 0.80859,-1.88281 0,-1.08381 0.95521,-2.17478 2.25,-2.56836 1.23755,-0.37616 1.76007,-0.89187 1.16016,-1.14649 -0.59991,-0.25462 -3.89406,1.4093 -7.32032,3.69727 -6.67685,4.45863 -7.6471,4.36021 -8.69531,-0.88086 C 210.82875,159.38989 211.01104,159 212.90625,159 c 1.18602,0 2.41584,0.675 2.73242,1.5 0.72214,1.88185 3.36133,1.9786 3.36133,0.12305 0,-0.75765 -0.675,-1.93836 -1.5,-2.62305 -3.5826,-2.97329 0.5189,-4.91687 4.22461,-2.00195 2.72422,2.14286 5.27539,2.63214 5.27539,1.01172 0,-0.54494 -1.57009,-2.00744 -3.48828,-3.25 -4.09191,-2.65063 -4.46531,-4.4829 -1.08984,-5.33008 1.10465,-0.27726 2.03096,-0.42337 2.82421,-0.41407 z m -126.564449,0.16211 c -1.458743,-0.28106 -1.62054,0.4941 -1.253907,6 0.231566,3.47752 0.454264,6.43477 0.496094,6.57227 0.04183,0.1375 0.70197,0.25 1.466797,0.25 0.860835,0 1.561385,-1.4286 1.837895,-3.75 0.58675,-4.92601 -0.46471,-8.67109 -2.546879,-9.07227 z M 288.07617,151 c 0.4739,0 0.60174,0.675 0.28516,1.5 -0.31659,0.825 -0.96361,1.5 -1.4375,1.5 -0.4739,0 -0.60174,-0.675 -0.28516,-1.5 0.31659,-0.825 0.96361,-1.5 1.4375,-1.5 z m -144.40429,0.87891 c 0.5946,0.0312 1.68441,0.58408 3.30859,1.60937 2.18907,1.38189 4.43907,2.51172 5,2.51172 1.3062,0 1.29978,1.60847 -0.0156,4.06641 -1.92335,3.5938 -4.19455,2.42695 -7.33984,-3.76758 -1.56189,-3.0761 -1.94414,-4.47188 -0.95312,-4.41992 z M 293.53516,152 c 0.25565,0 0.46484,1.35 0.46484,3 0,2.93283 -1.27963,3.97396 -2.48633,2.02148 C 290.93277,156.08156 292.57565,152 293.53516,152 Z m 5.9375,0.5 0.33789,2.83398 c 0.18606,1.55896 0.0937,3.47146 -0.20508,4.25 -0.29876,0.77854 -0.98083,1.41602 -1.51563,1.41602 -1.97171,0 -2.1247,-2.02804 -0.39453,-5.2207 z m -21.82813,1.70312 c 2.21666,0.0613 3.49636,0.79438 5.01953,2.23047 1.55988,1.47069 7.27415,5.20012 12.69922,8.28907 l 9.86524,5.61718 -3.41016,1.75 c -6.0124,3.08454 -29.17493,3.07046 -39.10352,-0.0234 -2.08139,-0.64857 -4.60409,-0.91806 -5.60742,-0.59961 -1.54398,0.49004 -2.01711,-0.33341 -3.08203,-5.35157 -0.69198,-3.26095 -0.99263,-6.3602 -0.66601,-6.88867 0.3266,-0.52847 2.51705,-1.23043 4.86718,-1.56054 C 260.57669,157.33588 264.525,156.58569 267,156 c 5.27406,-1.24806 8.42788,-1.85819 10.64453,-1.79688 z m -28.80273,6.78321 c 0.94395,-0.21803 2.1582,1.59055 2.1582,3.50781 0,1.30673 0.43822,3.53061 0.97461,4.94141 0.82738,2.17617 0.6982,2.56445 -0.85938,2.56445 -1.46654,0 -1.96007,-1.04479 -2.45117,-5.19141 -0.33815,-2.85513 -0.43198,-5.37466 -0.20703,-5.59961 0.11948,-0.11948 0.24992,-0.19151 0.38477,-0.22265 z m -2.44336,15.28125 c 0.30458,-0.30458 0.7844,0.0736 1.0664,0.83984 0.28199,0.76622 1.38183,3.86758 2.44336,6.89258 1.06153,3.025 3.51272,9.2983 5.44727,13.94141 2.51469,6.03549 3.3553,9.31373 2.94726,11.5 -0.88611,4.74774 -4.64724,9.04551 -9.07812,10.37304 -6.89904,2.067 -15.2726,0.87918 -19.69727,-2.79297 -1.54115,-1.27904 -1.68886,-2.52193 -1.11718,-9.37695 0.36253,-4.34695 1.12005,-8.76538 1.68359,-9.81836 0.89894,-1.67968 0.4348,-13.16224 -0.59961,-14.83594 -0.76227,-1.23338 1.37673,-3.2539 2.84766,-2.68945 1.02134,0.39192 1.6485,2.19267 1.85156,5.31836 0.18938,2.91497 0.83646,4.89854 1.68945,5.17969 1.1107,0.36608 1.24276,-0.47883 0.66992,-4.29883 -0.39222,-2.61547 -0.95063,-5.37227 -1.24023,-6.12695 C 235.005,179.57172 235.4351,179 236.3457,179 c 1.21397,0 1.62565,1.38213 1.85742,6.24023 0.24731,5.18333 0.61534,6.30138 2.17969,6.59961 1.52623,0.29097 1.77731,-0.0866 1.32227,-1.99023 -0.30882,-1.29195 -0.86918,-4.48711 -1.2461,-7.09961 -0.56933,-3.94616 -0.41978,-4.75 0.88868,-4.75 1.00803,0 1.98367,1.52992 2.71093,4.25 0.62497,2.3375 1.60429,4.82052 2.17579,5.51758 0.57149,0.69705 1.00052,5.37587 0.95312,10.39844 -0.065,6.89161 0.19697,8.8499 1.06641,7.98046 2.21619,-2.21619 2.09991,-13.25776 -0.22657,-21.54882 -1.20006,-4.27677 -1.93348,-8.0255 -1.6289,-8.33008 z m -129.59571,2.95312 4.70899,0.88086 c 2.59013,0.48388 5.10045,0.63701 5.57812,0.3418 1.15705,-0.7151 4.93111,1.34809 7.41016,4.05078 1.1,1.19923 3.69226,3.19508 5.76172,4.43359 2.06946,1.23851 4.22276,3.11126 4.78516,4.16211 1.31422,2.45564 0.42009,2.42235 -2.79102,-0.10351 -4.06645,-3.19867 -3.85341,-1.48057 0.46289,3.72461 2.18463,2.63452 4.76891,6.02656 5.74219,7.53906 0.97329,1.5125 1.38005,2.73555 0.90429,2.71875 -0.84732,-0.0299 -9.59192,-9.4505 -12.17187,-13.11328 -0.71869,-1.02033 -1.73119,-1.85547 -2.25,-1.85547 -1.62909,0 -1.03108,2.27824 1.23047,4.68555 1.19589,1.27295 1.71688,2.31445 1.15625,2.31445 -0.56063,0 -1.83459,-0.9 -2.83008,-2 -1.92599,-2.12819 -4.5,-2.68202 -4.5,-0.96875 0,0.5668 1.575,2.41335 3.5,4.10352 1.925,1.69018 3.5,3.47573 3.5,3.96875 0,1.79178 -1.97655,0.82134 -5.30273,-2.60352 -3.94617,-4.06324 -5.64422,-4.59382 -3.3125,-1.03516 0.88826,1.35565 1.61523,2.69166 1.61523,2.96875 0,1.32405 -3.94779,-1.27791 -8,-5.27343 -2.475,-2.44038 -5.5125,-5.10219 -6.75,-5.91407 -2.72262,-1.78622 -2.78424,-3.47148 -0.32617,-8.88476 z m -67.439449,0.85157 c 0.64114,0.074 0.646526,0.64142 0.212891,2.07617 -0.390785,1.29298 -1.082766,3.70156 -1.53711,5.35156 -6.043142,21.9464 -10.780138,34.1678 -17.117187,44.16406 -2.36358,3.72839 -0.90602,5.55466 1.800781,2.25586 0.977155,-1.19086 2.504018,-2.89793 3.392578,-3.79297 0.88856,-0.89503 2.309038,-3.20195 3.15625,-5.12695 3.252264,-7.38966 7.914402,-19.58762 8.216797,-21.5 0.465493,-2.94383 4.601314,-18.83671 5.121094,-19.67773 C 53.170257,182.91474 60,186.87466 60,188.10742 c 0,0.5002 -1.132426,5.6988 -2.515625,11.55274 -1.3832,5.85394 -2.318716,10.83949 -2.080078,11.07812 1.094653,1.09466 4.362809,-8.27173 6.28125,-18 0.299597,-1.51923 0.991204,-3.03956 1.537109,-3.37695 0.873808,-0.54004 6.743245,0.78718 16.28125,3.67969 1.652387,0.50111 6.602387,1.4107 11,2.02148 4.397613,0.61079 8.123242,1.23627 8.279297,1.39062 0.156054,0.15436 0.562815,4.84096 0.902344,10.41407 C 100.16138,214.67756 100.62909,217 101.72656,217 c 1.18457,0 1.31418,-1.84835 0.77735,-11 -0.42878,-7.30973 -0.29895,-11 0.38671,-11 1.48457,0 2.82684,5.79916 4.51758,19.52344 0.81473,6.61342 1.75325,12.73458 2.08594,13.60156 0.33269,0.86698 1.14453,5.09493 1.80469,9.39453 1.44454,9.40822 3.70117,11.40732 3.70117,3.2793 0,-5.0632 -5.85412,-35.9196 -8.00586,-42.19727 C 106.44758,197.00698 106,195.55575 106,195.37695 c 0,-0.17881 1.33202,-1.01507 2.96094,-1.85742 2.72458,-1.40894 3.03845,-1.39075 3.9082,0.23438 1.48401,2.7729 5.13289,13.11371 7.14453,20.24609 3.57169,12.66369 4.16356,14.60736 7.55664,24.77734 1.88589,5.65254 3.42969,10.49004 3.42969,10.75 0,0.25996 -0.7875,0.47075 -1.75,0.46875 -1.13141,-0.002 -2.40415,-1.59307 -3.59961,-4.5 C 124.63341,243.02315 123.47221,241 123.06836,241 c -1.73101,0 -1.88798,1.44784 -0.45508,4.21875 0.84362,1.63138 1.37752,3.12443 1.18555,3.31641 -0.19198,0.19197 -3.26314,0.82068 -6.82422,1.39843 C 113.41353,250.51135 109.375,250.935 108,250.875 103.25144,250.66766 92.223297,248.11463 87.869141,246.21484 79.954208,242.76143 76.625348,242.08094 65,241.53125 c -21.639372,-1.0232 -28.504508,-1.75239 -34.802734,-3.69727 -3.466703,-1.07051 -6.510336,-2.48825 -6.763672,-3.14843 -0.253335,-0.66018 1.230542,-4.34716 3.298828,-8.19336 3.774132,-7.0184 5.871481,-11.75843 15.039062,-33.99219 3.39544,-8.23482 5.508935,-12.11078 6.732422,-12.35156 0.362706,-0.0714 0.645662,-0.10081 0.859375,-0.0762 z m 176.734379,2.88867 c 0.3804,-0.0742 0.82989,0.64128 1.27148,2.28906 0.90715,3.38502 0.75877,7.42138 -0.58984,15.99219 -1.51611,9.63538 -3.39946,10.47881 -2.25,1.00781 0.45057,-3.7125 0.72976,-9.5625 0.61914,-13 -0.12385,-3.84846 0.31522,-6.16541 0.94922,-6.28906 z m 38.54296,32.04687 c -1.17482,-0.012 0.20041,5.14321 1.86524,6.99219 4.61764,5.1284 7.49019,19.77911 5.55078,28.31445 -0.60176,2.64828 -0.83342,5.23578 -0.51562,5.75 0.31781,0.51422 0.75923,0.93555 0.98242,0.93555 1.19805,0 2.86704,-5.22 3.50586,-10.9668 0.57816,-5.20109 0.32057,-7.85788 -1.26758,-13.0332 -1.97529,-6.43691 -8.4664,-17.97529 -10.1211,-17.99219 z m 14.1211,11.14063 c -0.68613,0.1668 -0.70408,1.57653 0.12305,3.94922 0.61359,1.76015 1.11523,6.321 1.11523,10.13476 0,5.11036 0.32876,6.82138 1.25,6.50391 2.00934,-0.69245 1.52045,-17.39362 -0.57031,-19.48438 -0.85496,-0.85495 -1.50629,-1.20359 -1.91797,-1.10351 z M 70.892578,244.54883 c 3.084554,0.1443 7.258452,0.7309 10.857422,1.63867 l 4.25,1.07227 v 9.92773 c 0,5.45997 0.525179,12.00969 1.166016,14.55469 0.903125,3.58663 0.875814,6.66177 -0.117188,13.67773 -1.927192,13.61639 -1.943325,14.52438 -0.419922,22.08008 0.776249,3.85 1.683333,9.925 2.015625,13.5 0.778326,8.37372 1.816233,11.14383 3.88086,10.35156 1.00464,-0.38552 1.341484,-1.20594 0.914062,-2.23047 -0.371933,-0.89153 -0.902925,-4.81684 -1.179687,-8.72265 -0.475547,-6.71119 -0.380426,-7.13302 1.732422,-7.68555 2.224046,-0.5816 2.233302,-0.53323 1.830078,9.50586 -0.358482,8.92517 -0.650128,10.25488 -2.525391,11.5 -2.434603,1.61652 -2.201314,2.99698 2.152344,12.67383 1.458285,3.24133 2.516986,6.65578 2.351562,7.58594 -0.279824,1.57344 -0.579347,1.56519 -4.300781,-0.11719 -2.2,-0.99456 -4.794096,-1.82154 -5.763672,-1.83594 -1.176737,-0.0175 -2.870645,-2.303 -5.095703,-6.875 -1.833344,-3.76711 -5.81493,-10.86091 -8.847656,-15.76367 C 66.186936,317.09066 64.840153,311.84201 64.580078,293.5 64.404139,281.09174 64.007286,277.5497 62.287109,273 58.218219,262.2382 55.252035,253.43828 54.238281,249.12305 l -1.029297,-4.37696 6.324219,0.64649 c 3.748627,0.38406 6.568402,0.25282 6.923828,-0.32227 0.169493,-0.27424 0.809671,-0.44089 1.775391,-0.51367 0.724289,-0.0546 1.631972,-0.0559 2.660156,-0.008 z M 89.679688,258 C 92.312242,258 108,282.90468 108,287.08398 c 0,0.57153 -1.12723,3.42002 -2.50391,6.33008 l -2.50195,5.29102 h -7.029296 c -7.309743,0 -8.975829,-0.78025 -6.927735,-3.24805 C 89.84436,294.48435 92.197085,294 96.123047,294 99.355702,294 102,293.60625 102,293.125 102,292.15333 97.179373,290.999 93.125,291 L 90.5,291.00195 90.449219,280.25 C 90.420778,274.33704 90.0196,266.9125 89.558594,263.75 89.035797,260.16362 89.081382,258 89.679688,258 Z m 174.642582,2.73828 c 2.46886,0.0408 4.83587,0.23568 6.80859,0.61328 l 3.62891,0.69336 -0.11915,9.22852 c -0.1288,9.92695 0.0817,10.56847 8.5918,26.25 4.76699,8.78409 5.43386,10.8803 7.15625,22.47656 3.97337,26.75133 5.01681,32.80919 6.07031,35.25 0.90728,2.10203 -0.83353,2.29392 -4.38086,0.48438 -1.72692,-0.88093 -3.03002,-3.11796 -4.54492,-7.79883 -3.25855,-10.06855 -11.10035,-22.48069 -19.20117,-30.39453 -1.19254,-1.16502 -3.12922,-5.02649 -4.30273,-8.58008 -1.17351,-3.5536 -2.83392,-8.03594 -3.68946,-9.96094 -1.5361,-3.45629 -2.34432,-4.81497 -9.77343,-16.39844 -4.27955,-6.67268 -5.89043,-15.592 -3.4043,-18.85742 1.42027,-1.86544 9.75355,-3.12822 17.16016,-3.00586 z m -22.58594,7.9336 c 0.89062,0.19362 1.14053,1.76005 1.71679,5.82812 0.38956,2.75 1.9552,7.025 3.47852,9.5 3.6823,5.98276 8.75686,15.08619 12.6543,22.70312 2.88582,5.63989 3.09026,6.6391 2.26562,11 -0.54192,2.866 -0.54263,7.41313 -0.002,11.29688 0.49775,3.575 0.97239,10.325 1.05469,15 0.0823,4.675 0.3994,9.7375 0.70312,11.25 0.30372,1.5125 0.17886,2.69596 -0.27734,2.63086 -4.91199,-0.70066 -6.80213,-1.61496 -6.53711,-3.16406 0.1666,-0.97383 -0.33759,-1.7168 -1.16602,-1.7168 -1.49253,0 -2.67403,-2.7142 -6.96679,-16 -8.12708,-25.15274 -10.7774,-35.04976 -10.52735,-39.32812 0.11665,-1.99584 -0.9193,-5.02514 -2.79687,-8.17188 -3.01079,-5.04597 -5.70272,-11.69109 -6.78516,-16.75 -0.93069,-4.34972 0.82298,-3.19751 2.2832,1.5 2.25004,7.23833 4.23775,10.59795 7.48243,12.65234 3.27557,2.07394 5.68359,1.39527 5.68359,-1.60351 0,-1.1006 -0.73773,-1.29566 -3.01758,-0.79492 -2.89278,0.63536 -3.1212,0.42966 -5.5,-4.94922 -2.93586,-6.6385 -3.10006,-8.55255 -0.73242,-8.56055 0.9625,-0.003 2.97924,-0.64748 4.48242,-1.43164 1.20368,-0.62792 1.96953,-1.00681 2.50391,-0.89062 z M 70.332031,279 c -1.157521,0 -1.324515,0.96929 -0.818359,4.75 0.349757,2.6125 0.812616,5.3125 1.029297,6 C 71.457779,292.65257 73,290.66434 73,286.58203 73,281.16651 72.237916,279 70.332031,279 Z m 187.419919,1.04297 c -0.33737,0.0143 -0.66844,0.20749 -1.01757,0.55664 -1.10944,1.10943 6.70099,14.41529 9.75976,16.62695 1.23514,0.89308 4.53868,0.002 6.35156,-1.71484 1.02035,-0.96604 1.1411,-2.55083 0.5,-6.56055 -1.04952,-6.56406 -3.33643,-8.05159 -2.62109,-1.70508 0.36292,3.21981 0.0708,4.67953 -1.13672,5.68164 -2.2377,1.85712 -4.8288,-0.5873 -8.0293,-7.57812 -1.73223,-3.78369 -2.79453,-5.3496 -3.80664,-5.30664 z M 74.142578,292.24023 c -0.809331,0.14279 -0.621737,2.51833 0.65625,6.07227 1.639745,4.55994 2.553173,5.54529 3.587891,3.87109 0.623047,-1.00812 -1.665038,-7.8623 -3.105469,-9.30273 -0.487824,-0.48782 -0.868895,-0.68822 -1.138672,-0.64063 z m 67.871092,3.01758 c 1.06222,0.0258 2.34837,0.1027 3.93945,0.22266 4.15057,0.31293 15.87188,0.77353 26.04688,1.02148 10.175,0.24794 18.5,0.50191 18.5,0.56641 0,0.63235 39.82371,2.96358 41.50586,2.42969 1.79619,-0.57009 1.99414,-0.1735 1.99414,3.97851 v 4.61133 l -34.25,-0.29101 c -43.75618,-0.37133 -67.38251,-1.08986 -68.36719,-2.07813 -0.92954,-0.93293 2.15459,-6.49067 5,-9.01172 1.2806,-1.13461 2.4442,-1.52676 5.63086,-1.44922 z m -45.535154,5.90821 C 99.001088,301.12773 100,301.86918 100,303.55859 c 0,0.8751 -0.883582,1.37845 -2.25,1.28125 -9.646554,-0.68613 -11.679891,-2.27723 -4.320312,-3.38086 1.199072,-0.17981 2.20797,-0.2802 3.048828,-0.29296 z m 0.0039,5.64062 c 1.899134,0.24372 2.03741,1.27509 0.318359,2.99414 -1.445334,1.44533 -2.723095,1.47489 -5.050781,0.11914 -2.805962,-1.63432 -2.043527,-2.68234 2.25,-3.0918 1.021211,-0.0974 1.849377,-0.1027 2.482422,-0.0215 z m 13.888668,0.11133 c -0.97777,-0.26391 -1.89626,2.33747 -4.03711,10.83203 -0.82452,3.27159 0.24425,2.7656 3.13086,-1.48242 2.75757,-4.05813 3.21582,-7.18652 1.33204,-9.07031 -0.14584,-0.14583 -0.2861,-0.2416 -0.42579,-0.2793 z m 20.21485,2.22461 c 0.44857,0.0108 1.00541,0.0866 1.70898,0.20898 6.6761,1.16145 27.4746,1.80714 64.39844,2 21.00587,0.10971 38.3867,0.41304 38.625,0.67383 0.23831,0.2608 0.70808,1.37461 1.04492,2.47461 0.60473,1.9748 0.15069,2 -36.125,2 -20.20602,0 -45.40078,0.38916 -55.98828,0.86523 -19.03049,0.85572 -21.28349,0.56828 -17.84766,-2.2832 0.77103,-0.63991 1.69129,-2.31754 2.04493,-3.72656 0.42342,-1.68708 0.79295,-2.24526 2.13867,-2.21289 z m -53.703128,0.74219 c -0.743333,-0.39192 -1.460743,1.38552 -1.68164,5.02539 -0.271198,4.46871 -0.08146,4.97881 2,5.37695 1.264792,0.24193 2.464368,0.50127 2.666016,0.57617 0.201646,0.0749 0.0492,-0.87578 -0.337891,-2.11328 -0.387092,-1.2375 -1.008928,-3.825 -1.382813,-5.75 -0.361878,-1.86318 -0.817671,-2.88008 -1.263672,-3.11523 z M 265.99023,319 c 1.01246,0 7.93948,8.89275 7.98438,10.25 0.0307,0.92769 -7.38978,1.00277 -8.30859,0.084 C 264.6044,328.27234 264.89536,319 265.99023,319 Z m 4.60157,13.44531 C 276.11785,332.383 278,332.805 278,334.10742 278,334.59857 275.03685,335 271.41602,335 c -4.82713,0 -6.4685,-0.33346 -6.15625,-1.25 0.25938,-0.76134 2.34301,-1.27099 5.33203,-1.30469 z M 2.9414062,335.10938 c 1.502e-4,0.0319 -1.23e-4,0.0638 0,0.0957 0.015937,0.0114 0.030606,0.024 0.041016,0.0391 -0.013201,-0.0451 -0.027766,-0.0897 -0.041016,-0.13476 z m 0.068359,0.23437 c 0.00388,0.069 -0.014428,0.15261 -0.052734,0.25 0.1114913,0.27344 0.2195021,0.54798 0.3183594,0.82617 0.043709,0.123 0.057013,0.15992 0.078125,0.2207 0.00461,-0.004 0.016966,-0.002 0.021484,-0.006 -0.1194972,-0.43093 -0.2400261,-0.86154 -0.3652344,-1.29102 z m 139.2753944,1.09766 c -11.84422,0.0568 -20.62594,0.18153 -23.03516,0.38671 -9.17308,0.78126 -5.66807,2.09681 6.5,2.43946 20.94371,0.58977 118.24309,0.25231 118.24609,-0.41016 0.002,-0.35366 -0.78359,-1.02866 -1.74609,-1.5 -1.33213,-0.65235 -64.43219,-1.08658 -99.96484,-0.91601 z m 130.09765,1.27929 c 6.77579,0.0902 8.56355,0.92718 8.60157,4.0293 0.008,0.6875 -0.54688,1.16261 -1.23438,1.05664 -0.6875,-0.10597 -4.0625,-0.3516 -7.5,-0.54687 -4.63464,-0.26327 -6.25,-0.7297 -6.25,-1.80665 0,-0.79874 -0.1125,-1.76145 -0.25,-2.13867 -0.1375,-0.37722 2.8473,-0.64415 6.63281,-0.59375 z m 1.46289,6.81641 c 1.22491,0.014 2.54327,0.0816 3.92969,0.21484 4.26062,0.40939 5.22461,0.84768 5.22461,2.375 0,2.02547 -2.20165,2.19779 -12.42188,0.9668 -9.30047,-1.12022 -5.30673,-3.65478 3.26758,-3.55664 z m -1.2539,6.05273 c 1.60959,0.0159 3.55922,0.12796 5.89843,0.32422 5.81454,0.48784 7.05246,0.90672 7.35352,2.48828 0.38754,2.03589 1.19628,2.0354 -13.69922,-0.0117 -1.84535,-0.2536 -3.98285,0.0606 -4.75,0.69727 -1.11391,0.92446 -1.39453,0.75534 -1.39453,-0.83984 0,-1.90009 1.76302,-2.70595 6.5918,-2.65821 z m 27.68945,5.17969 c 0.49085,0.19014 1.12264,1.16523 1.77344,2.87695 0.51258,1.34817 2.39845,3.06409 4.18945,3.81446 1.791,0.75037 4.33412,2.51497 5.65234,3.92187 1.99019,2.12407 2.18087,2.81801 1.12696,4.08789 -0.86901,1.04709 -3.04344,1.52186 -6.89649,1.50586 -4.45052,-0.0185 -6.8296,-0.69509 -11.37695,-3.23828 -6.26378,-3.50313 -6.20353,-3.41348 -4.74414,-7.25195 l 1.00391,-2.64258 3.49609,2.16016 c 3.81811,2.35972 4.53404,1.85598 4.84961,-3.4043 0.0856,-1.42647 0.43493,-2.02022 0.92578,-1.83008 z m -46.26953,3.91211 c 0.91899,0.0109 2.03031,0.10954 3.48828,0.24805 l 6,0.57031 0.31055,4.32031 0.31054,4.32031 -4.40039,-0.66015 c -3.14303,-0.47133 -6.40981,-0.0624 -11.41992,1.42969 -7.18495,2.13977 -7.54057,2.18705 -10.55078,1.40039 -2.64826,-0.69206 -2.10506,-1.9906 1.33398,-3.18946 1.69626,-0.59131 5.18376,-2.80449 7.75,-4.91797 3.40137,-2.80124 4.42078,-3.55434 7.17774,-3.52148 z" />
  </g>
</svg>
