<?xml version="1.0" encoding="UTF-8" standalone="no"?>
<!-- Created with Inkscape (http://www.inkscape.org/) -->

<svg
   version="1.1"
   id="svg2"
   width="318"
   height="392"
   viewBox="0 0 318 392"
   sodipodi:docname="2.png"
   inkscape:version="1.1.2 (0a00cf5339, 2022-02-04)"
   xmlns:inkscape="http://www.inkscape.org/namespaces/inkscape"
   xmlns:sodipodi="http://sodipodi.sourceforge.net/DTD/sodipodi-0.dtd"
   xmlns="http://www.w3.org/2000/svg"
   xmlns:svg="http://www.w3.org/2000/svg">
  <defs
     id="defs6" />
  <sodipodi:namedview
     id="namedview4"
     pagecolor="#505050"
     bordercolor="#eeeeee"
     borderopacity="1"
     inkscape:pageshadow="0"
     inkscape:pageopacity="0"
     inkscape:pagecheckerboard="0"
     showgrid="false"
     inkscape:zoom="1.9107143"
     inkscape:cx="159.1028"
     inkscape:cy="196"
     inkscape:window-width="1920"
     inkscape:window-height="1043"
     inkscape:window-x="0"
     inkscape:window-y="0"
     inkscape:window-maximized="1"
     inkscape:current-layer="g8" />
  <g
     inkscape:groupmode="layer"
     inkscape:label="Image"
     id="g8">
    <path
       style="fill:#000000"
       d="m 243.67525,384.33509 c -0.0964,-0.0907 -18.85025,-0.485 -41.67525,-0.8762 -22.825,-0.39121 -41.83025,-0.90157 -42.23389,-1.13414 -0.40363,-0.23258 -20.87863,-0.61318 -45.5,-0.84579 C 75.401576,381.11178 19.750608,380.07746 9,379.5225 -0.19971752,379.04759 0,379.1122 0,376.61089 v -2.3891 l 11.25,0.36929 c 6.1875,0.20311 26.250379,0.569 44.584174,0.81309 30.088841,0.40059 33.456897,0.61163 34.594703,2.16768 1.164983,1.59321 1.303999,1.55764 1.834049,-0.46928 0.51612,-1.97364 1.057123,-2.14145 5.405298,-1.67662 2.657476,0.28409 23.506776,0.80548 46.331776,1.15864 22.825,0.35315 44.2,0.77943 47.5,0.94728 3.3,0.16784 20.625,0.568 38.5,0.88923 17.875,0.32123 41.08388,1.07068 51.57528,1.66544 10.49141,0.59476 19.71641,0.99028 20.5,0.87894 0.7836,-0.11135 4.68722,-0.14913 8.67472,-0.084 6.51602,0.10649 7.25,0.31869 7.25,2.09608 0,1.93867 -0.7299,1.97313 -37.07475,1.75 -20.39111,-0.12518 -37.15361,-0.30181 -37.25,-0.39251 z M 223.75,369.25669 c -4.57535,-0.20121 -7.75,-0.77479 -7.75,-1.40025 0,-1.06542 9.16931,-0.51112 19,1.14859 l 4.5,0.75973 -4,-0.0836 c -2.2,-0.046 -7.4875,-0.237 -11.75,-0.42445 z m -46.99803,-2.43114 c -0.68858,-0.43721 3.43553,-0.80182 9.1647,-0.81024 5.72916,-0.008 10.18243,0.21893 9.89613,0.50522 -0.88046,0.88047 -17.72986,1.1501 -19.06083,0.30502 z m 20.9088,0.42445 c -0.2515,-0.4125 3.09694,-0.82308 7.44098,-0.9124 4.34404,-0.0893 7.89825,0.24818 7.89825,0.75 0,1.08894 -14.67958,1.24436 -15.33923,0.1624 z M 135,362.21949 c -3.28329,-2.22039 -5.62199,-4.57445 -5.80269,-5.84079 -0.24198,-1.6959 -1.22252,-2.24737 -4.88957,-2.75 C 121.78496,353.28292 118.17116,353 116.2771,353 c -2.30847,0 -3.30771,-0.41209 -3.03104,-1.25 0.25113,-0.76059 3.31807,-1.52081 7.83333,-1.94169 9.06585,-0.84504 35.54724,-1.1571 36.71934,-0.4327 0.46684,0.28852 3.90394,0.74788 7.638,1.02078 9.30994,0.68043 9.52082,1.60361 0.3663,1.60361 -6.80286,0 -7.78498,0.25468 -10.16667,2.63636 -1.45,1.45 -2.63636,3.00935 -2.63636,3.46521 0,0.45586 -1.39662,2.4195 -3.10359,4.36363 -4.14226,4.71778 -7.6423,4.66005 -14.89641,-0.24571 z m 12.24907,-0.20077 c 2.39675,-1.88528 6.34445,-9.75853 5.37772,-10.72526 -0.25129,-0.25129 -4.53066,-0.13821 -9.5097,0.25129 -8.11947,0.63518 -9.219,0.96184 -10.66485,3.16848 -0.88662,1.35317 -1.43788,2.63446 -1.22501,2.84733 0.63554,0.63555 12.22144,6.41305 12.88791,6.42677 0.33833,0.007 1.7486,-0.87891 3.13393,-1.96861 z m 99.00093,2.24404 c -2.8875,-0.202 -5.25,-0.81782 -5.25,-1.36847 0,-0.86945 1.92331,-0.86316 12.25,0.0401 0.4125,0.0361 0.75,0.5156 0.75,1.0656 0,0.55 -0.5625,0.91676 -1.25,0.81502 -0.6875,-0.10174 -3.6125,-0.35026 -6.5,-0.55226 z M 35.5,363 c -1.504827,-0.64665 -0.823964,-0.87683 2.75,-0.92971 C 40.8625,362.03163 43,362.45 43,363 c 0,1.20123 -4.704596,1.20123 -7.5,0 z m -9.658265,-0.4916 c -0.27038,-0.27038 -6.19531,-0.60788 -13.166512,-0.75 C 5.7040214,361.61628 2.4083533e-4,361.10724 1.5537764e-4,360.6272 -7.1889508e-5,359.35057 29.968307,360.56831 31.298996,361.899 c 0.801339,0.80133 0.275407,1.101 -1.932329,1.101 -1.668334,0 -3.254553,-0.22122 -3.524932,-0.4916 z M 201,362 c -1.17369,-0.7585 -0.91593,-0.97271 1.1849,-0.98469 1.4767,-0.008 3.8573,-0.46106 5.29024,-1.00586 2.21988,-0.844 2.44705,-1.28631 1.53546,-2.98965 -1.71069,-3.19646 -5.83593,-4.7275 -16.27935,-6.04194 -5.37282,-0.67624 -10.03516,-1.66058 -10.36077,-2.18743 -0.99355,-1.60759 17.71463,0.32375 22.35023,2.30733 2.32139,0.99333 4.43557,1.45839 4.69818,1.03347 0.26262,-0.42491 -0.19325,-4.56577 -1.01303,-9.2019 -2.85718,-16.15825 -4.92439,-31.56881 -6.38019,-47.56279 -0.55736,-6.12341 -1.45133,-14.44841 -1.9866,-18.5 -0.53527,-4.0516 -1.45262,-14.56654 -2.03855,-23.36654 -1.00742,-15.13028 -2.21314,-24.83562 -5.52836,-44.5 -1.60644,-9.52866 -2.1146,-16.62215 -3.02089,-42.16944 l -0.62682,-17.66943 2.58778,-1.69558 C 194.83027,145.22597 194.68444,144 191,144 c -4.14312,0 -3.76201,-1.45514 0.67405,-2.57363 2.02073,-0.50951 3.87813,-1.54857 4.12756,-2.30904 0.36405,-1.10995 -0.48033,-1.24264 -4.28083,-0.67272 -2.90582,0.43576 -4.50855,0.34462 -4.14973,-0.23597 0.32155,-0.52027 2.3946,-1.23536 4.60679,-1.58911 2.47774,-0.3962 4.02216,-1.18149 4.02216,-2.04513 0,-1.14605 -0.91186,-1.06867 -4.99532,0.42389 -2.74743,1.00422 -5.2219,1.45926 -5.49882,1.01119 -0.64084,-1.03689 4.3063,-2.90976 11.99414,-4.54068 l 6,-1.27286 -4.92482,-0.098 c -2.92706,-0.0582 -7.94807,0.94551 -12.37763,2.4744 -4.75882,1.64252 -7.79965,2.22553 -8.41232,1.61286 -1.11986,-1.11986 -0.70665,-1.38391 4.95032,-3.16343 2.32955,-0.73281 4.98679,-2.1625 5.90499,-3.17709 1.58347,-1.74972 1.53024,-1.84471 -1.03386,-1.84471 -1.48681,0 -4.56608,0.9 -6.84282,2 -5.89812,2.84966 -7.70572,2.63147 -4.70055,-0.56739 1.32657,-1.41207 4.37404,-3.09218 6.77216,-3.73358 l 4.36022,-1.16618 -0.63229,-4.76642 c -0.6937,-5.22942 0.89617,-6.74164 1.85714,-1.76643 0.31871,1.65 0.84021,4.35 1.15892,6 0.62235,3.22213 1.85843,3.90722 2.76887,1.53464 0.65142,-1.69756 -0.77591,-15.13264 -1.90391,-17.92109 -0.55661,-1.37595 -0.38869,-1.76164 0.62053,-1.42523 2.94338,0.98112 5.22522,19.54239 2.76893,22.52349 -1.20848,1.46669 -0.86761,1.55543 3.62572,0.94394 2.72778,-0.37122 5.32915,-1.0445 5.78082,-1.49617 1.43362,-1.43362 -7.21201,-21.94328 -11.58878,-27.491559 C 185.09013,90.350222 178.28837,84 175.94063,84 c -1.65261,0 -1.99115,0.407733 -1.45304,1.75 5.70813,14.238395 10.39649,36.25 7.72108,36.25 -1.10697,0 -1.71876,-2.30914 -2.7819,-10.5 -1.43931,-11.08903 -5.24661,-23.5 -7.20908,-23.5 -1.95878,0 -2.02345,1.45615 -0.28248,6.361073 3.39406,9.562287 5.06499,16.115687 5.70854,22.388927 0.77136,7.51915 -1.14028,8.80542 -2.22927,1.5 -0.38944,-2.6125 -2.03499,-9.25 -3.65679,-14.75 C 170.1359,98 168.5712,92.470241 168.28058,91.211648 167.72357,88.799362 162.50713,86 158.56901,86 c -1.20271,0 -3.06026,-0.660688 -4.12788,-1.468197 -1.91132,-1.445648 -1.9098,-1.468685 0.0988,-1.5 1.12195,-0.01749 4.6314,0.643197 7.79879,1.468197 6.18284,1.610425 8.36477,1.870125 7.37209,0.877451 -0.87571,-0.875709 -17.58744,-4.291089 -21.21078,-4.334852 -2.7842,-0.03363 -9.82763,3.972727 -16.62672,9.457401 -2.61989,2.1134 -5.21165,6.185715 -6.84168,10.75 -0.61425,1.71998 -1.71014,2.75 -2.92586,2.75 -2.11218,0 -1.76488,-1.02616 -7.10741,21 -5.65794,23.32654 -6.02385,24.92315 -5.89262,25.71185 0.0721,0.43348 0.0382,1.01315 -0.0754,1.28815 -0.11361,0.275 -0.4169,4.35513 -0.67398,9.06695 -0.46591,8.53927 -0.45551,8.58452 3.21693,14 4.71787,6.95712 10.42653,18.23589 10.42755,20.60203 4.3e-4,1.00706 1.40073,4.75602 3.11177,8.33102 1.71105,3.575 4.17853,9.59526 5.4833,13.37836 1.30477,3.7831 2.79574,7.38856 3.31327,8.01214 0.51752,0.62359 1.90277,3.70447 3.07832,6.84641 1.17555,3.14194 4.10195,8.38131 6.5031,11.64305 2.40115,3.26173 4.09807,6.19809 3.77092,6.52523 -0.32714,0.32715 0.23226,0.59481 1.24312,0.59481 1.01086,0 2.69527,0.77588 3.74313,1.72419 1.04787,0.9483 3.2995,2.1858 5.00364,2.75 1.70413,0.56419 3.29197,1.61757 3.52854,2.34082 0.55507,1.69706 -6.07594,0.62096 -9.95518,-1.61556 -6.37406,-3.67486 -16.1705,-20.62367 -26.26322,-45.43799 -8.12071,-19.96585 -10.49628,-25.16002 -11.18981,-24.46648 -0.76001,0.76001 -0.54051,129.78394 0.24464,143.80623 0.40519,7.23639 0.26794,12.28317 -0.36479,13.4138 -1.87821,3.35616 -2.35199,-12.33689 -2.7015,-89.48032 -0.222,-48.99976 -0.6918,-75.58194 -1.33962,-75.79788 -0.94968,-0.31656 -2.72331,25.69595 -2.06345,30.26319 0.2533,1.75325 -0.18428,13.00072 -1.634,42 -0.21996,4.4 -1.05108,17.45 -1.84692,29 -0.79585,11.55 -1.50218,23.7 -1.56963,27 -0.0674,3.3 -0.56674,9.58819 -1.10953,13.97377 C 100.4441,324.85934 100,331.87709 100,336.06878 c 0,6.44291 -0.320799,7.91156 -2.074856,9.49896 l -2.074855,1.87772 0.628654,-5.97273 c 0.345759,-3.285 0.801448,-7.99773 1.01264,-10.47273 0.455346,-5.33627 2.353009,-43.45456 3.011907,-60.5 0.25512,-6.6 0.70756,-13.35 1.00542,-15 0.29785,-1.65 0.75244,-17.175 1.01018,-34.5 0.25775,-17.325 0.72118,-33.3 1.02984,-35.5 0.30866,-2.2 0.51723,-11.14595 0.46349,-19.87989 -0.0537,-8.73394 0.35185,-18.18394 0.90132,-21 0.54947,-2.81606 1.51289,-8.04511 2.14094,-11.62011 0.62804,-3.575 1.98554,-9.2 3.01667,-12.5 8.16588,-26.133899 6.69185,-23.124671 14.5748,-29.754421 6.90483,-5.807114 7.11901,-6.120791 6.12548,-8.970831 -1.32115,-3.789869 -0.19336,-15.054443 1.91766,-19.153839 1.70826,-3.317282 6.25913,-9.725555 7.60738,-10.712285 0.44442,-0.325257 -0.77446,-1.79841 -2.70863,-3.273674 -7.8836,-6.013113 -8.34895,-13.508523 -1.30378,-20.999863 6.52756,-6.940941 12.42239,-8.636409 30.00325,-8.62951 18.86764,0.0074 21.34993,0.762781 27.46249,8.357014 1.64724,2.046529 1.53116,6.521602 -0.25,9.637409 -1.97753,3.459318 -1.84145,5.711742 0.54778,9.067106 2.99771,4.209884 4.1413,12.768112 2.53408,18.964092 -1.58721,6.118854 -3.95001,8.782356 -11.11733,12.532161 C 182.27186,79.2337 180,81.095526 180,82.041627 c 0,0.890633 2.00747,3.060987 4.46104,4.823009 2.45357,1.762021 6.00195,5.100805 7.8853,7.419519 3.39611,4.181188 12.41899,21.901015 13.18969,25.902935 0.22069,1.14594 0.52786,2.20363 0.68261,2.35044 0.75808,0.71915 4.86503,0.74999 10.28136,0.0772 3.3,-0.4099 7.89442,-0.3178 10.20982,0.20466 3.80117,0.85773 4.57772,0.68292 8,-1.80092 4.87254,-3.53643 10.25304,-5.24926 16.48943,-5.24926 8.55887,0 8.70921,3.08882 0.36765,7.55386 L 247.5,125.5 l 6.41721,0.30206 c 3.52947,0.16613 7.66828,-0.21615 9.19735,-0.84951 2.24162,-0.92851 3.40119,-0.84175 5.98642,0.44794 1.76346,0.87973 3.94716,1.59951 4.85266,1.59951 4.54251,0 5.7346,7.27366 1.50772,9.19956 -1.39625,0.63617 -2.32739,1.70718 -2.06919,2.38002 0.55724,1.45216 -2.43693,2.38789 -7.70119,2.40677 -2.09496,0.008 -3.56004,0.4165 -3.25574,0.90887 0.3043,0.49236 -0.23164,1.19817 -1.19098,1.56844 -1.61894,0.62487 -21.64238,0.86312 -24.47944,0.29128 -0.94463,-0.1904 -1.18498,1.46399 -0.94944,6.53512 0.17346,3.73453 -0.1577,16.10953 -0.73592,27.5 -0.57822,11.39047 -1.14956,31.86031 -1.26965,45.48854 -0.18127,20.5719 -0.45221,24.68887 -1.59586,24.25 -0.75764,-0.29073 -1.45322,-0.52858 -1.54574,-0.52855 -0.49273,1.3e-4 0.23721,-52.20042 0.86697,-62.00005 1.24795,-19.41899 0.91072,-40.10304 -0.67015,-41.10458 -3.21099,-2.03428 -3.07905,-3.15256 -3.31598,28.10458 -0.29388,38.77153 -0.82208,59.35471 -1.42422,55.5 -0.92373,-5.91349 -0.67747,-93.37695 0.27519,-97.73361 0.75951,-3.4734 0.62544,-3.80621 -1.92389,-4.77546 -1.50716,-0.57303 -3.58121,-0.77497 -4.609,-0.44876 -1.96703,0.62431 -1.97022,0.8119 -0.28586,16.78988 0.44913,4.26048 0.29702,4.78849 -1.28594,4.46378 -1.36914,-0.28085 -1.74051,-1.19053 -1.5644,-3.83205 0.12701,-1.90508 -0.25537,-5.60128 -0.84974,-8.21378 -1.43789,-6.32011 -3.89941,-6.40954 -6.88119,-0.25 -1.19813,2.475 -2.58827,4.5 -3.08921,4.5 -1.40758,0 -1.09407,-1.13724 1.62465,-5.89327 1.38125,-2.4163 2.27773,-4.62689 1.99218,-4.91244 -1.00405,-1.00405 -5.48631,1.74979 -4.98297,3.06148 0.31918,0.83175 -0.70079,1.67153 -2.76971,2.28042 -3.01283,0.88667 -3.29493,1.32396 -3.52474,5.46381 -0.38449,6.92647 -2.26679,11.96606 -4.69719,12.57605 -2.05431,0.5156 -2.10291,0.95637 -1.78934,16.22697 0.17727,8.63334 1.20297,24.48856 2.27932,35.23383 1.07636,10.74527 1.95701,20.06456 1.95701,20.70954 0,1.51235 4.69402,5.95685 8.32748,7.88481 1.55511,0.82516 4.73659,2.95755 7.06996,4.73865 2.33336,1.7811 5.6735,3.83111 7.42252,4.55557 1.74902,0.72447 3.18004,1.71263 3.18004,2.1959 0,1.16631 -3.72502,1.13263 -4.44989,-0.0402 -0.31235,-0.5054 -3.37641,-2.49128 -6.80901,-4.41306 -3.43261,-1.92178 -7.31901,-4.6444 -8.63646,-6.05027 -1.31745,-1.40586 -2.68855,-2.37492 -3.04689,-2.15345 -0.69372,0.42874 -0.12005,8.06612 2.38538,31.75725 C 202.29941,269.31842 203,279.8133 203,284.54352 v 8.60039 l 5.75,-0.74407 c 3.1625,-0.40925 20.375,-0.68 38.25,-0.60168 17.875,0.0783 41.1625,0.16435 51.75,0.19119 16.1929,0.041 19.25,0.28078 19.25,1.50963 0,1.25379 -3.43724,1.39479 -24.25,0.99476 -13.3375,-0.25636 -29.36374,-0.73298 -35.61387,-1.05917 -6.25012,-0.32619 -20.98762,-0.26918 -32.75,0.12669 L 204,294.28102 v 3.28806 c 0,6.28133 0.55969,6.418 26.82143,6.54934 13.02321,0.0651 23.97952,0.0773 24.34736,0.0271 0.59215,-0.0809 27.10063,2.06026 46.33121,3.74226 3.85,0.33674 6.55,0.86867 6,1.18207 -0.99106,0.56472 -9.5653,0.13898 -39.5,-1.96135 -8.525,-0.59815 -26.22704,-1.26108 -39.33787,-1.47318 l -23.83788,-0.38564 0.67144,3.62517 c 0.36929,1.99385 1.10261,3.78144 1.62961,3.97243 0.54692,0.1982 0.41996,0.99575 -0.29582,1.85821 -1.02906,1.23994 -0.915,1.75884 0.63591,2.89289 1.48323,1.08457 5.84077,1.31823 20.2509,1.08589 13.72464,-0.22128 18.62172,0.0181 19.39348,0.94803 0.81981,0.9878 -2.89678,1.13216 -18.04363,0.70081 -10.49186,-0.29878 -19.76827,-0.27762 -20.61425,0.047 -1.20025,0.46058 -1.30496,1.02593 -0.47668,2.57359 0.99543,1.85998 2.10764,1.98059 17.88015,1.93895 17.44827,-0.0461 24.14464,0.60555 24.14464,2.3495 0,0.62732 -1.44266,0.76888 -3.75,0.36796 -2.0625,-0.35838 -11.53886,-0.93814 -21.05859,-1.28836 l -17.30858,-0.63676 0.69926,2.90752 c 0.3846,1.59913 0.76595,3 0.84746,3.11305 0.0815,0.11305 6.43748,0.26891 14.12438,0.34636 15.26851,0.15383 23.44607,0.81959 23.44607,1.9088 0,0.38533 -8.325,0.49199 -18.5,0.23704 L 210,333.73421 v 3.1329 c 0,3.11034 0.0378,3.13304 5.25,3.15161 12.94767,0.0461 36.46215,1.33785 38.56017,2.11825 3.3266,1.23738 1.80806,2.97115 -1.58227,1.80654 -2.95399,-1.01471 -35.29222,-2.76557 -38.9779,-2.11034 -1.5921,0.28304 -2.25,1.09691 -2.25,2.78343 0,2.31856 0.22451,2.38344 8.25,2.38426 10.92816,0.001 29.64219,1.81343 31.65044,3.06513 1.10223,0.687 -0.57686,0.79946 -5.40044,0.36172 -14.34907,-1.30219 -29.68021,-1.90572 -31.48098,-1.2393 -1.02308,0.37861 -1.75276,1.41997 -1.62153,2.31412 0.19868,1.35371 2.01665,1.69426 10.86521,2.03532 12.08771,0.46592 31.77353,3.14493 33.17063,4.51414 1.49726,1.46736 0.0507,2.08256 -2.56152,1.08939 -1.32306,-0.50303 -8.92297,-1.43696 -16.88869,-2.0754 -7.96572,-0.63844 -15.28073,-1.398 -16.25559,-1.6879 -0.97486,-0.28991 -3.11236,-0.23281 -4.75,0.12688 -2.28338,0.50151 -2.97753,1.20732 -2.97753,3.02751 0,1.89095 -0.76246,2.58529 -3.75,3.41497 -4.62873,1.28546 -6.32552,1.29628 -8.25,0.0526 z m 56,-221 c 1.13489,-0.73342 0.64808,-0.99736 -2,-1.08437 -3.52949,-0.11596 -9.35545,-1.57627 -7.5,-1.87992 0.55,-0.09 5.1625,-0.10849 10.25,-0.0411 5.91858,0.0784 9.25,-0.25868 9.25,-0.93603 0,-0.66177 -3.18629,-1.0586 -8.5,-1.0586 -5,0 -8.5,-0.41176 -8.5,-1 0,-0.6 4,-1 10,-1 6.04708,0 10,-0.3981 10,-1.00711 0,-0.61845 -3.34386,-0.90789 -8.66454,-0.75 -6.23163,0.18492 -8.78213,-0.0939 -9.08333,-0.99289 -0.30648,-0.91477 1.32482,-1.25 6.08275,-1.25 6.97875,0 9.66512,-0.61765 9.66512,-2.22221 0,-0.64364 -2.07206,-0.74935 -5.72987,-0.29234 -6.65863,0.83194 -15.93015,0.8427 -17.26126,0.02 -1.4707,-0.90894 0.35757,-4.50429 2.95426,-5.80962 1.30841,-0.65772 2.58029,-1.80583 2.82639,-2.55134 0.77065,-2.33448 -5.73757,-0.24287 -11.82553,3.80049 -3.04481,2.02223 -6.24333,3.9482 -7.10781,4.27994 -1.62302,0.62281 -2.85618,4.88894 -2.85618,9.881 0,3.48556 1.01576,3.78938 14,4.1876 5.225,0.16025 10.175,0.37787 11,0.4836 0.825,0.10572 2.175,-0.24399 3,-0.77715 z m -20,-11 c 0,-0.55 0.5625,-1.00614 1.25,-1.01365 0.6875,-0.008 2.2625,-0.285 3.5,-0.61664 1.65413,-0.44329 2.25,-0.17484 2.25,1.01366 0,1.18091 -0.94333,1.61663 -3.5,1.61663 -1.925,0 -3.5,-0.45 -3.5,-1 z M 136.87812,83.096491 c 0.78918,-0.499864 1.04893,-1.405516 0.6078,-2.119265 -0.88808,-1.436952 -0.82977,-9.426957 0.11661,-15.977226 0.50277,-3.479889 0.37787,-4.245019 -0.55098,-3.375206 -2.31173,2.164796 -3.54877,7.986086 -3.21949,15.150363 0.33719,7.336418 0.59587,7.873254 3.04606,6.321334 z m 38.14194,-1.620657 c 0.69572,-0.838291 0.97781,-1.811298 0.62687,-2.162238 -0.67462,-0.674623 5.4773,-3.869839 11.35307,-5.896609 l 3.5,-1.20728 -3.225,-0.104854 c -2.95632,-0.09612 -3.183,-0.33396 -2.72086,-2.854853 2.16246,-11.795924 2.18136,-12.137522 0.70299,-12.704826 -0.80555,-0.309118 -1.2197,-1.200339 -0.92033,-1.98049 0.60502,-1.576654 -1.98918,-4.24564 -3.07311,-3.161706 -0.37839,0.378388 -0.14251,1.561408 0.52416,2.628932 C 183.49991,56.773348 183.38185,64 181.625,64 178.49712,64 174,62.682768 174,61.766592 c 0,-0.551908 1.10659,-0.705673 2.52196,-0.350437 3.36389,0.844284 4.11118,-1.287382 2.74138,-7.819899 -1.15213,-5.494483 -0.18404,-8.136923 1.98291,-5.412449 1.39708,1.756517 6.75375,3.339436 6.75375,1.99576 0,-0.472195 -1.19346,-1.402312 -2.65213,-2.066926 -2.00154,-0.911963 -2.3695,-1.491014 -1.5,-2.360515 0.63367,-0.633669 1.13782,-1.849626 1.12033,-2.702126 -0.0252,-1.230638 -0.33431,-1.150049 -1.5,0.39113 -1.45336,1.921506 -1.46851,1.921506 -1.49861,0 -0.0282,-1.797864 -0.10564,-1.811971 -1.04969,-0.19113 -1.5449,2.652437 -3.23633,2.146881 -2.50926,-0.75 0.34753,-1.384639 0.19304,-2.5 -0.34627,-2.5 -0.53556,0 -1.26922,1.575 -1.63035,3.5 -0.40639,2.166256 -1.23246,3.5 -2.16776,3.5 -1.24051,0 -1.2846,0.27297 -0.2462,1.524166 0.69572,0.838291 1.08335,1.625791 0.86141,1.75 -0.22194,0.124209 -2.07618,1.767026 -4.12053,3.650705 -3.6683,3.380001 -3.74425,3.400204 -5.7975,1.542039 -2.36653,-2.14168 -4.68664,-1.30093 -6.55222,2.37436 -0.59883,1.179727 -1.90375,3.045487 -2.89982,4.146134 -1.28667,1.421752 -1.95051,4.174391 -2.29273,9.506886 -0.26493,4.12814 -0.085,7.543634 0.39982,7.589985 0.48483,0.04635 4.48151,0.882089 8.88151,1.857197 10.41969,2.309164 11.02564,2.335026 12.52006,0.534362 z M 165.5,79 c -0.3678,-0.595118 0.82295,-1 2.94098,-1 1.95746,0 3.55902,0.45 3.55902,1 0,0.55 -1.32344,1 -2.94098,1 -1.61754,0 -3.2191,-0.45 -3.55902,-1 z M 176,75 c 0,-0.55 0.675,-1 1.5,-1 0.825,0 1.5,0.45 1.5,1 0,0.55 -0.675,1 -1.5,1 -0.825,0 -1.5,-0.45 -1.5,-1 z m 3.5,-4 c -1.1,-0.472686 -3.6875,-0.891058 -5.75,-0.929715 -3.82262,-0.07165 -4.3456,-0.583488 -2.90908,-2.847129 0.63766,-1.00481 1.91271,-1.040419 5.98469,-0.167136 4.04728,0.867987 5.17439,1.527307 5.17439,3.026844 0,1.054425 -0.1125,1.885508 -0.25,1.846851 C 181.6125,71.891058 180.6,71.472686 179.5,71 Z m -38,7 c 0.90122,-4.103215 2.5,-4.780471 2.5,-1.059017 0,3.459634 0.0117,3.466431 3.35203,1.944481 2.01396,-0.917619 2.56898,-2.097699 3.1414,-6.679167 0.38239,-3.060547 1.38876,-6.62305 2.23637,-7.916672 0.84761,-1.293623 1.33519,-2.557964 1.08351,-2.809646 -0.74521,-0.745211 -4.97781,7.406873 -6.43767,12.399124 L 146.02436,78.5 l 0.33353,-5.17202 c 0.24112,-3.738833 1.23017,-6.569294 3.56926,-10.214447 2.08956,-3.256306 3.50176,-7.002931 3.98679,-10.577158 0.72065,-5.310474 1.55456,-7.401209 2.55358,-6.402189 0.25714,0.257136 -0.0312,2.092526 -0.64077,4.078644 -0.60955,1.986119 -0.78968,4.438235 -0.40027,5.449147 0.6812,1.768397 0.74649,1.769495 1.7235,0.02899 0.55851,-0.994968 1.22111,-3.466976 1.47244,-5.493349 0.29224,-2.356142 1.59486,-4.858319 3.61344,-6.940967 C 165.06033,40.342539 165.17766,40 163.35133,40 c -1.12256,0 -4.91522,1.4625 -8.42815,3.25 -6.0251,3.065784 -6.44484,3.510784 -7.40516,7.850841 -0.64126,2.898112 -1.47251,4.442867 -2.24606,4.173987 -0.88984,-0.3093 -1.20413,1.271588 -1.14123,5.740385 0.0516,3.665138 -0.40862,6.637365 -1.13435,7.326014 -0.95089,0.902303 -1.06564,0.64481 -0.51848,-1.163399 0.38648,-1.277194 0.38612,-3.527194 -7.9e-4,-5 -0.66021,-2.51309 -0.79213,-2.380554 -2.14452,2.154369 -1.10002,3.688632 -1.16668,5.162783 -0.28171,6.22911 0.86141,1.037931 0.87534,2.211576 0.0542,4.567026 -1.3447,3.857402 -1.43939,7.196296 -0.18205,6.419216 C 140.43075,81.233783 141.14037,79.637386 141.5,78 Z m 4.75686,-15.25 c 0.25896,-0.6875 1.49633,-4.073275 2.74971,-7.523945 1.25338,-3.45067 2.49036,-6.06246 2.74884,-5.803977 0.64752,0.647523 -1.81569,10.677132 -3.15046,12.827922 -1.24064,1.999107 -3.05857,2.386216 -2.34809,0.5 z M 190.5,65 c 0.33992,-0.55 -0.057,-1 -0.88197,-1 -0.825,0 -1.77811,0.45 -2.11803,1 -0.33992,0.55 0.057,1 0.88197,1 0.825,0 1.77811,-0.45 2.11803,-1 z m 0.62756,-4.66372 C 192.37204,58.827677 192.29022,58.78434 190.25,59.871464 187.92304,61.111374 187.35007,62 188.87756,62 c 0.48265,0 1.49515,-0.748674 2.25,-1.66372 z m 0.83726,-4.270539 C 193.55837,53.088157 193.20097,52.508151 191,54.5 c -2.14273,1.939141 -2.60438,3.5 -1.03518,3.5 0.53065,0 1.43065,-0.870416 2,-1.934259 z M 164.5965,50.495714 c -1.71767,-1.300033 -1.74185,-1.502706 -0.24776,-2.076043 0.91065,-0.349451 2.75215,-0.360182 4.09221,-0.02385 1.34006,0.336334 2.68647,0.207018 2.99202,-0.287369 0.74128,-1.19941 -1.17332,-1.796055 -5.43297,-1.693072 -3.0498,0.07373 -3.5407,0.438349 -3.81642,2.834617 -0.26541,2.30662 0.0571,2.744872 2,2.718197 2.23164,-0.03064 2.24676,-0.08453 0.41292,-1.472483 z M 191,49 c 0,-1.1 -0.40787,-2 -0.90638,-2 -0.49851,0 -0.67103,0.9 -0.38337,2 0.28766,1.1 0.69553,2 0.90638,2 C 190.82748,51 191,50.1 191,49 Z m -45.40499,-3.132801 c 1.04775,-1.173041 4.82545,-3.491394 8.39491,-5.151896 8.3079,-3.864819 21.95313,-4.944916 29.59132,-2.342322 5.6507,1.925386 6.78631,1.093001 5.96602,-4.372981 -0.28889,-1.925 -0.5302,-4.451364 -0.53625,-5.614142 -0.0158,-3.027871 -6.87798,-5.377538 -17.7651,-6.082884 -15.90973,-1.030746 -26.89252,2.369863 -33.67094,10.425564 -2.89558,3.441201 -2.57927,5.634013 1.73311,12.014629 2.57455,3.809312 3.70755,4.011879 6.28693,1.124032 z m 25.84028,-5.765238 c -0.62769,-0.627692 -2.41268,1.912097 -2.38817,3.398039 0.009,0.55 0.67253,0.13285 1.47435,-0.926999 0.80183,-1.05985 1.21305,-2.171818 0.91382,-2.47104 z M 216,361 c 0,-1.13427 4.04238,-1.13427 8.5,0 2.46904,0.62826 1.98233,0.78431 -2.75,0.88169 C 218.50446,361.94847 216,361.56444 216,361 Z m -26,-2.56862 c -2.475,-0.78916 -6.525,-1.49042 -9,-1.55835 -6.10393,-0.16755 -8,-0.74595 -8,-2.44042 0,-1.6254 1.14321,-1.86475 2.55,-0.53387 0.5225,0.49431 4.11955,1.06626 7.99345,1.27102 5.09306,0.26919 8.00059,0.98483 10.5,2.58441 3.94039,2.52178 2.49883,2.76322 -4.04345,0.67721 z M 45.5,354.40882 C 41.65,353.68215 29.8375,352.77158 19.25,352.38534 4.165107,351.83503 0,351.39281 0,350.34154 c 0,-0.73785 0.3375,-1.33746 0.75,-1.33248 22.552027,0.27253 53.25,3.83164 53.25,6.17378 0,0.44944 -0.3375,0.75642 -0.75,0.68218 -0.4125,-0.0742 -3.9,-0.72953 -7.75,-1.4562 z m 50.367736,-0.87442 c -0.319774,-0.31977 -0.377746,-1.64679 -0.128826,-2.94893 0.424895,-2.22269 0.614944,-2.2828 3.106835,-0.98265 1.459845,0.76167 5.016755,1.38763 7.904255,1.39102 2.8875,0.003 5.25,0.45616 5.25,1.00616 0,0.55 -2.5875,1.00614 -5.75,1.01365 -3.1625,0.008 -6.661443,0.25857 -7.775429,0.55791 -1.113985,0.29934 -2.287061,0.28262 -2.606835,-0.0372 z M 175,350.53518 c 0,-1.7249 3.60685,-3.8962 5.02067,-3.02241 1.6306,1.00777 1.11349,2.10507 -1.56772,3.32671 C 175.20502,352.31934 175,352.30127 175,350.53518 Z M 165.17165,348.25 c 0.18608,-0.4125 0.98898,-2.4375 1.78423,-4.5 1.61895,-4.19881 3.05115,-4.90771 3.03047,-1.5 -0.0262,4.30803 -1.17887,6.75 -3.18631,6.75 -1.08169,0 -1.81446,-0.3375 -1.62839,-0.75 z M 122.81361,335.33333 C 122.7111,329.375 122.54268,323.15 122.43935,321.5 c -0.10333,-1.65 -0.48076,-15.15 -0.83873,-30 -0.61265,-25.41522 -0.84769,-32.12531 -2.11684,-60.43104 -0.28189,-6.28707 -0.20783,-11.12635 0.16457,-10.75394 0.3724,0.3724 0.80689,2.14137 0.96553,3.93104 0.15863,1.78967 0.75185,7.75394 1.31825,13.25394 0.5664,5.5 1.25,21.475 1.5191,35.5 0.2691,14.025 0.92797,30.675 1.46415,37 1.33193,15.7121 0.9692,35.19964 -0.66538,35.74762 -0.94158,0.31565 -1.29599,-2.25396 -1.43639,-10.41429 z m 71.77687,8.04186 c -0.94719,-2.46835 -4.58465,-42.45292 -4.62231,-50.81049 -0.0175,-3.88559 -0.70232,-12.9147 -1.52181,-20.0647 -0.81948,-7.15 -1.92819,-21.325 -2.46379,-31.5 -0.5356,-10.175 -1.18324,-19.99278 -1.4392,-21.8173 -0.25596,-1.82451 -0.94142,-9.64371 -1.52323,-17.37599 -0.58181,-7.73228 -1.22529,-14.3395 -1.42994,-14.6827 -0.92158,-1.54547 -1.74187,-29.33578 -0.84963,-28.78435 0.94328,0.58298 1.23379,3.66545 3.26668,34.66034 1.09563,16.70488 1.33314,19.0878 2.89045,29 0.56168,3.575 1.28746,10.55 1.61287,15.5 0.3254,4.95 0.97229,11.925 1.43754,15.5 0.46524,3.575 0.81662,7.625 0.78085,9 -0.0358,1.375 0.49743,10.825 1.18488,21 0.68746,10.175 1.43854,23.225 1.66907,29 0.23053,5.775 0.91065,15.37053 1.51138,21.32341 1.05067,10.41164 0.88704,13.67628 -0.50381,10.05178 z M 0,342.62028 c 0,-1.06098 2.8899517,-1.54641 12.509636,-2.10125 14.591022,-0.84158 50.30464,0.28467 52.490364,1.65532 0.957342,0.60034 -2.117721,0.70524 -8.5,0.28998 C 42.535205,341.55571 15.428173,341.87124 8.3866782,343.02439 0.67690223,344.28697 0,344.25436 0,342.62028 Z m 176,0.62312 c 0,-0.41613 0.46782,-2.32863 1.0396,-4.25 1.57763,-5.30138 0.67162,-54.20827 -1.69031,-91.2434 -0.39082,-6.12815 -0.2575,-9.75 0.3589,-9.75 0.56146,0 1.26221,5.87798 1.6392,13.75 0.36217,7.5625 1.20814,22.75 1.87993,33.75 2.21905,36.33494 1.36053,58.5 -2.26586,58.5 C 176.43266,344 176,343.65953 176,343.2434 Z M 70,333.95728 c -1.925,-0.4609 -7.900278,-1.07118 -13.278395,-1.35617 -5.378117,-0.285 -10.195426,-0.77591 -10.705131,-1.09093 -1.327118,-0.8202 -40.0030571,-0.80264 -43.2793427,0.0197 C 1.1524259,331.92758 0,331.80523 0,331.23925 c 0,-3.21064 42.520289,-3.02615 72.693702,0.31542 3.960149,0.43856 5.062908,0.91602 4.643011,2.01025 -0.604869,1.57627 -2.065696,1.65439 -7.336713,0.39236 z m 6,-12.0605 C 67.058205,320.47578 35.791723,319.46201 17.5,320 c -9.35,0.275 -17.1875,0.3875 -17.41666667,0.25 -2.04624713,-1.22775 5.26804677,-1.61506 31.67741967,-1.67742 33.336889,-0.0787 53.548537,0.99864 52.94153,2.82197 -0.485454,1.45821 -2.100221,1.5514 -8.702283,0.50223 z m 226.5,-5.08871 c -4.95,-0.48184 -14.4,-1.43423 -21,-2.11643 -6.8157,-0.70449 -24.62935,-1.21561 -41.23291,-1.18308 -16.36823,0.0321 -28.85358,-0.32207 -28.37093,-0.80472 0.47409,-0.47409 12.0539,-1.07973 25.73291,-1.34588 20.36557,-0.39624 28.76565,-0.10695 46.37093,1.59697 20.74525,2.00781 34,3.81971 34,4.64772 0,0.51399 -4.34524,0.29124 -15.5,-0.79458 z M 0,312.90638 C 0,312.40787 0.9,312 2,312 c 1.1,0 2,0.17252 2,0.38337 0,0.21085 -0.9,0.61872 -2,0.90638 -1.1,0.28766 -2,0.11514 -2,-0.38337 z m 6,-0.74653 c 0,-1.82051 10.980786,-2.51345 41,-2.58729 29.886003,-0.0735 43,0.73037 43,2.63586 0,0.66928 -1.720114,0.83193 -4.75,0.44915 -9.359605,-1.18244 -21.89491,-2.01615 -30.25,-2.01189 -11.36191,0.006 -40.560148,1.27995 -45.25,1.97464 C 7.5129339,312.95169 6,312.76592 6,312.15985 Z M 309,309 c 0,-0.55 1.77344,-1 3.94098,-1 2.16754,0 4.2191,0.45 4.55902,1 0.3775,0.61081 -1.15628,1 -3.94098,1 C 311.05156,310 309,309.55 309,309 Z M 0,303.12883 c 0,-1.72526 27.265974,-4.09938 47,-4.09241 15.564647,0.005 41.124545,1.55944 45.45994,2.76379 5.171065,1.43649 0.999103,2.32002 -5.662218,1.19913 C 74.775866,300.97644 38.920766,300.64522 21.062617,302.3921 2.126817,304.24439 0,304.31879 0,303.12883 Z m 302.89057,-1.57159 c -0.24352,-0.24352 -7.74352,-0.5404 -16.66666,-0.65974 C 276.32925,300.76516 270,300.29427 270,299.69045 c 0,-0.6428 7.80418,-0.76714 22.25,-0.3545 12.2375,0.34956 23.0375,0.64198 24,0.64981 0.9625,0.008 1.75,0.46424 1.75,1.01424 0,0.96394 -14.17977,1.48689 -15.10943,0.55724 z M 209,299 c 0.825,-0.53316 3.075,-0.94464 5,-0.9144 2.85984,0.0449 3.13419,0.21216 1.5,0.9144 -1.1,0.47269 -3.35,0.88417 -5,0.9144 -2.29109,0.042 -2.64555,-0.17409 -1.5,-0.9144 z m 34.8125,0.31689 c 0.72187,-0.28887 1.58437,-0.25335 1.91667,0.0789 0.33229,0.33229 -0.25834,0.56864 -1.3125,0.52522 -1.16495,-0.048 -1.4019,-0.28494 -0.60417,-0.60416 z m 10,0 c 0.72187,-0.28887 1.58437,-0.25335 1.91667,0.0789 0.33229,0.33229 -0.25834,0.56864 -1.3125,0.52522 -1.16495,-0.048 -1.4019,-0.28494 -0.60417,-0.60416 z M 222.75,298.26276 c 2.8875,-0.202 7.6125,-0.202 10.5,0 2.8875,0.202 0.525,0.36728 -5.25,0.36728 -5.775,0 -8.1375,-0.16528 -5.25,-0.36728 z M 169.20097,276.75 c -0.1974,-19.84715 -0.92239,-28.75 -2.34119,-28.75 -0.50038,0 -1.18165,1.35936 -1.51394,3.02081 -0.33229,1.66144 -1.06129,3.30333 -1.61999,3.64862 -0.65249,0.40327 -0.77555,-0.40895 -0.34405,-2.27081 3.37884,-14.57935 3.79708,-22.21906 3.40406,-62.18084 -0.3349,-34.05242 -0.18167,-40.19991 0.99077,-39.75 0.76282,0.29272 5.4267,0.53222 10.36417,0.53222 5.73018,0 8.75369,0.3617 8.3592,1 -0.33992,0.55 -1.43899,1 -2.44239,1 -1.00493,0 -2.15833,1.0106 -2.56793,2.25 -0.70385,2.12978 -0.7655,2.14293 -1.15392,0.24614 -0.35287,-1.72317 -1.20823,-2.00331 -6.10663,-2 l -5.69629,0.004 0.43934,8 c 0.68088,12.39824 0.57146,39.95474 -0.24681,62.15989 -0.45477,12.34076 -0.36328,22.03715 0.23588,25 1.1701,5.78614 1.76998,13.0528 2.64914,32.09011 0.55665,12.05381 0.43568,14.25 -0.78492,14.25 -1.19798,0 -1.47381,-3.09876 -1.6245,-18.25 z M 5.866115,290.25017 c 0.8973393,-1.6767 2.5666137,-2.02719 12.335827,-2.59008 14.002292,-0.80681 62.197257,-0.67061 70.219332,0.19844 3.256701,0.35281 6.088381,1.14901 6.292622,1.76933 0.271446,0.82445 -11.246838,1.1549 -42.81533,1.22834 -23.752673,0.0553 -44.0604745,0.3778 -45.1284489,0.71676 -1.6667959,0.52902 -1.7948123,0.3417 -0.9040021,-1.32279 z M 149.46074,245.25 c 1.86896,-4.84745 5.15006,-24.85502 7.0927,-43.25 0.72604,-6.875 1.92158,-15.75876 2.65673,-19.74168 0.87738,-4.75342 1.0831,-9.56385 0.59874,-14 -2.0402,-18.68534 -2.08996,-19.55005 -1.0896,-18.93179 0.55957,0.34583 1.59039,4.95797 2.29071,10.2492 1.26755,9.57685 0.93305,20.282 -1.02876,32.92427 -0.51209,3.3 -1.42399,10.725 -2.02643,16.5 -0.60245,5.775 -1.71896,13.425 -2.48113,17 -0.76217,3.575 -1.66844,8.3 -2.01394,10.5 -0.95011,6.04998 -2.49461,10.5 -3.6443,10.5 -0.57079,0 -0.72883,-0.77969 -0.35472,-1.75 z m 75.26368,-3.00201 c -2.58772,-2.8594 -2.23012,-5.19813 0.39364,-2.57438 1.16493,1.16493 1.94092,2.64946 1.72442,3.29895 -0.25713,0.77138 -0.99163,0.52011 -2.11806,-0.72457 z M 221.06339,228.875 c -0.0349,-1.99375 -0.34464,-5.03125 -0.68839,-6.75 -0.37458,-1.87288 -0.21458,-3.125 0.39931,-3.125 1.28369,0 2.13548,8.80672 1.11228,11.5 -0.58266,1.53367 -0.7746,1.15478 -0.8232,-1.625 z M 207.52076,220.5 c 0.35191,-4.4 0.80172,-8.52897 0.99957,-9.17549 0.19784,-0.64653 -0.30999,-7.56233 -1.12852,-15.36846 -1.39369,-13.29132 -1.34008,-16.23765 0.26627,-14.63131 2.43234,2.43235 2.78937,43.63767 0.39864,46.00899 -0.90068,0.89338 -1.02609,-0.70562 -0.53596,-6.83373 z M 200,210.44098 c 0,-3.45136 0.37914,-5.32469 1,-4.94098 0.55,0.33992 1,1.97106 1,3.62476 0,1.6537 0.46583,3.87714 1.03518,4.94098 0.86584,1.61784 0.70225,1.93426 -1,1.93426 C 200.23234,216 200,215.36537 200,210.44098 Z M 219.56542,204.75 c -0.68381,-4.21063 -1.82927,-31.61809 -1.98472,-47.48844 -0.10068,-10.27817 1.83341,-11.19287 2.13109,-1.00787 0.47112,16.1191 1.01944,52.74631 0.78963,52.74631 -0.13519,0 -0.55639,-1.9125 -0.936,-4.25 z M 145.43466,171 c 0.71446,-14.23339 0.94008,-16.75858 2.14428,-24 0.67714,-4.07198 0.59452,-4.37314 -0.86866,-3.16627 -0.88934,0.73355 -3.50237,5.00855 -5.80673,9.5 -4.57575,8.91861 -10.8582,17.72952 -12.34105,17.30786 -2.12804,-0.60513 -1.47577,-2.73183 2.02702,-6.609 3.62177,-4.00887 11.71633,-17.27017 12.98891,-21.2797 0.60515,-1.90667 0.33585,-1.97522 -5.22018,-1.32876 -3.22204,0.37489 -7.32075,0.93291 -9.10825,1.24004 -2.02381,0.34773 -3.25,0.14632 -3.25,-0.53383 0,-1.48108 4.24034,-2.4376 11.22692,-2.53252 3.50199,-0.0476 5.62783,-0.47906 5.36196,-1.08833 -3.27674,-7.50897 -7.60165,-20.23389 -7.59383,-22.34282 0.0134,-3.60461 2.63739,0.36081 5.54695,8.38258 4.75653,13.11389 5.87911,15.89129 6.66137,16.48095 0.38685,0.2916 2.41185,0.48236 4.5,0.42389 3.4256,-0.0959 3.7622,-0.34318 3.44435,-2.5302 -0.19375,-1.33314 -0.70399,-3.09889 -1.13387,-3.92389 -0.42988,-0.825 -1.10748,-3.46621 -1.50578,-5.86935 -0.57345,-3.45982 -0.4415,-4.27661 0.63387,-3.92378 1.61636,0.53033 5.96144,16.61121 4.69916,17.39134 -0.48055,0.29699 -0.64397,0.91174 -0.36316,1.3661 0.63651,1.02989 -1.86342,2.03569 -5.05973,2.03569 -2.34415,0 -2.81267,0.76599 -2.49849,4.08483 0.38367,4.05284 -3.06054,32.44782 -4.04789,33.37185 -0.8183,0.76582 -0.93458,-2.54735 -0.43717,-12.45668 z m -16.65657,-19.27104 c 3.38126,-3.48858 8.86169,-6.12083 9.75028,-4.68305 0.29536,0.4779 -0.85162,1.58701 -2.54886,2.46468 -1.69723,0.87768 -3.96194,2.47184 -5.03269,3.54259 -1.07075,1.07075 -2.7101,1.94682 -3.64299,1.94682 -1.29442,0 -0.94524,-0.77476 1.47426,-3.27104 z m 32.84107,-9.53615 c -0.31325,-0.50686 1.55678,-2.69902 4.15564,-4.87147 7.1249,-5.95589 7.62704,-5.97647 3.90264,-0.15998 -3.22114,5.03052 -6.71183,7.21005 -8.05828,5.03145 z M 164.75589,128.25 c 0.5752,-5.35492 0.88464,-6.01274 2.20307,-4.68333 1.31118,1.32209 0.0491,9.43333 -1.46779,9.43333 -0.8908,0 -1.10019,-1.35273 -0.73528,-4.75 z m -4.29451,0.118 c -0.34977,-1.5774 -1.22692,-5.118 -1.94921,-7.868 -0.7223,-2.75 -1.61651,-7.17695 -1.98714,-9.83766 -0.60365,-4.33358 -0.48377,-4.80107 1.15055,-4.48661 2.00428,0.38565 1.93644,0.0849 3.23036,14.32427 0.91362,10.05432 0.73627,13.19324 -0.44456,7.868 z m -16.001,-6.85628 c -1.91942,-6.60258 -1.62865,-10.86791 0.7719,-11.32308 1.42539,-0.27027 1.69519,0.34828 1.52294,3.49145 -0.11515,2.10095 0.1454,5.95741 0.57899,8.56991 1.10621,6.6653 -0.86907,6.15785 -2.87383,-0.73828 z M 95.5,3 C 94.443236,1.2901204 95.988887,0 99.094201,0 101.76049,0 101.95892,0.20823934 101,2 99.875527,4.1010975 96.55378,4.7050515 95.5,3 Z"
       id="path12" />
  </g>
</svg>
