<?xml version="1.0" encoding="UTF-8" standalone="no"?>
<!-- Created with Inkscape (http://www.inkscape.org/) -->

<svg
   version="1.1"
   id="svg2"
   width="335"
   height="396"
   viewBox="0 0 335 396"
   sodipodi:docname="21.svg"
   inkscape:version="1.1.2 (0a00cf5339, 2022-02-04)"
   xmlns:inkscape="http://www.inkscape.org/namespaces/inkscape"
   xmlns:sodipodi="http://sodipodi.sourceforge.net/DTD/sodipodi-0.dtd"
   xmlns="http://www.w3.org/2000/svg"
   xmlns:svg="http://www.w3.org/2000/svg">
  <defs
     id="defs6" />
  <sodipodi:namedview
     id="namedview4"
     pagecolor="#505050"
     bordercolor="#eeeeee"
     borderopacity="1"
     inkscape:pageshadow="0"
     inkscape:pageopacity="0"
     inkscape:pagecheckerboard="0"
     showgrid="false"
     inkscape:zoom="1.8914141"
     inkscape:cx="77.190921"
     inkscape:cy="245.58344"
     inkscape:window-width="1920"
     inkscape:window-height="1043"
     inkscape:window-x="0"
     inkscape:window-y="0"
     inkscape:window-maximized="1"
     inkscape:current-layer="g8" />
  <g
     inkscape:groupmode="layer"
     inkscape:label="Image"
     id="g8">
    <path
       id="path68"
       style="fill:#000000"
       d="m 222.24219,2.1914062 c -10.15,0.043838 -16.67278,0.1588957 -17.11914,0.3359376 C 204.23032,2.8814272 183.475,3.3464549 159,3.5605469 134.525,3.7746388 89.75,4.2354363 59.5,4.5859375 29.25,4.9364387 3.4636343,5.2200635 2.1972656,5.2148438 c -2.07199975,-0.00854 -2.27220812,0.3923245 -1.99999998,4 L 0.5,13.222656 l 9,-0.05859 c 9.574112,-0.06181 21.009558,-0.75133 28.662109,-1.730468 2.656508,-0.339899 5.534912,-0.131565 6.689453,0.486328 1.114576,0.596503 2.265814,0.701038 2.556641,0.230469 0.290828,-0.470568 6.280496,-0.669051 13.310547,-0.441407 7.030051,0.227644 13.68125,0.434554 14.78125,0.460938 2.327522,0.05583 47.29452,-1.105497 52.55664,-1.357422 1.95567,-0.09363 3.98067,0.07867 4.5,0.382812 0.51933,0.304141 7.69336,0.363997 15.94336,0.132813 45.71777,-1.281122 71.26761,-1.4782222 94,-0.722656 6.05,0.201086 15.95,0.3698 22,0.375 6.05,0.0052 14.6,0.07287 19,0.15039 7.156,0.126084 14.22967,6.3e-5 18.5,-0.330078 0.825,-0.06378 4.32831,-0.04562 7.78516,0.04102 5.77954,0.14486 6.20573,0.307632 5.29687,2.005859 -0.68721,1.284051 -0.62172,2.21372 0.21485,3.050782 1.54601,1.546945 2.07035,29.961675 1.1621,62.912109 -0.26244,9.520948 -0.82021,18.970948 -1.24023,21 -0.743,3.589293 -0.88131,28.637833 -0.35547,64.189453 0.14236,9.625 0.0175,24.025 -0.27734,32 -1.62635,43.98677 -2.31417,93.0244 -1.38867,99 l 0.69726,4.5 -12.19726,-0.2793 c -6.70833,-0.1542 -21.64727,-0.19245 -33.19727,-0.084 -11.55,0.10866 -27.525,0.23575 -35.5,0.28125 l -14.5,0.082 0.2207,2.5 c 0.58454,6.61084 0.51186,11.88669 -0.21875,15.88281 -0.64514,3.52858 -0.53102,4.29419 0.58008,3.92383 0.75911,-0.25304 1.77336,-2.12971 2.25586,-4.16992 l 0.87891,-3.70899 3.32422,2.53516 c 3.03506,2.31496 5.45898,3.2386 5.45898,2.07813 0,-0.25296 -2.25,-2.56638 -5,-5.13868 -4.08178,-3.81803 -5,-5.29353 -5,-8.03906 0,-1.84974 0.41697,-3.36328 0.92773,-3.36328 0.51076,0 5.49789,3.40077 11.08204,7.55664 5.58415,4.15586 10.63852,7.39328 11.23242,7.19531 0.81508,-0.27169 -7.43315,-7.58269 -15.15821,-13.43554 -1.33164,-1.00892 1.2234,-1.2579 4.76172,-0.46289 3.82066,0.85844 9.33214,5.09453 15.48047,11.89648 2.21777,2.45354 3.67383,2.89575 3.67383,1.11523 0,-1.12349 -0.66182,-1.80903 -8.81836,-9.11523 l -4.1875,-3.75 h 3.05664 c 2.20175,0 4.97958,1.53442 9.9375,5.49023 3.78517,3.02012 7.16292,5.94512 7.50586,6.5 0.79253,1.28239 3.50586,1.32386 3.50586,0.0527 0,-0.52657 -3.25983,-3.55927 -7.24414,-6.73828 -5.17299,-4.12745 -6.74663,-5.87553 -5.50195,-6.11524 1.81199,-0.34895 13.69915,6.29398 14.97265,8.36719 0.39976,0.65079 1.84953,1.91798 3.22071,2.81641 4.98295,3.26496 1.54632,-1.08187 -4.76758,-6.03125 l -6.17578,-4.8418 3.35742,-0.32227 c 2.35073,-0.22515 3.90743,0.27011 5.19336,1.65039 1.00991,1.08401 4.54763,4.0576 7.86133,6.60743 3.3137,2.54984 6.47375,5.40663 7.02343,6.34961 0.64736,1.11056 1.0096,1.24817 1.0293,0.38867 0.0329,-1.43424 -2.92482,-4.55606 -9.89063,-10.43164 -4.49416,-3.7908 -4.92921,-5.90675 -0.83007,-4.03907 2.96874,1.35265 9.75195,7.38734 9.75195,8.67579 0,1.50218 5.17026,6.62109 6.6875,6.62109 0.7221,0 1.3125,-0.16611 1.3125,-0.36914 0,-0.20302 -3.15,-3.51309 -7,-7.35547 -3.85,-3.84238 -7,-7.27626 -7,-7.63086 0,-1.90762 3.74549,-0.13419 7.36719,3.48828 5.27789,5.27901 15.63281,13.26904 15.63281,12.0625 0,-0.94756 -7.36225,-8.07291 -12.25,-11.85547 -1.5125,-1.17051 -2.75,-2.40103 -2.75,-2.73437 0,-0.33334 1.2375,-0.58866 2.75,-0.56836 2.03271,0.0273 4.96431,2.11395 11.23828,8 C 305.75562,318.325 309,320.41589 309,318.13672 309,317.32943 303.20313,311.72415 296.44922,306 l -2.94922,-2.5 2.68945,-0.31055 c 2.57942,-0.29786 3.54893,0.32907 16.06055,10.38477 1.34341,1.07972 1.75,2.91869 1.75,7.91601 0,4.17914 -0.40611,6.50977 -1.13281,6.50977 -1.38778,0 -8.23907,-4.10738 -8.70508,-5.21875 -0.59207,-1.41199 -4.01362,-2.82957 -4.58789,-1.90039 -0.30141,0.48769 2.57142,3.25915 6.38476,6.1582 l 6.9336,5.27149 -0.12696,6.7832 c -0.14067,7.58715 -0.2785,7.63013 -7.44921,2.28125 -1.7508,-1.30599 -4.4508,-2.35964 -6,-2.33984 l -2.81641,0.0371 3,2.48632 c 1.65,1.36783 5.3625,3.69653 8.25,5.17383 4.43778,2.27043 5.25,3.11727 5.25,5.47656 0,1.5351 -0.25691,2.79102 -0.57031,2.79102 -0.82126,0 -8.92459,-5.6187 -16.15039,-11.19727 -5.67057,-4.37787 -9.33999,-5.98635 -9.24219,-4.05273 0.0409,0.80731 6.38044,5.59289 11.38672,8.5957 1.69197,1.01486 3.97617,2.64951 5.07617,3.63282 1.1,0.9833 3.4625,2.52622 5.25,3.42968 1.7875,0.90346 3.28523,2.41881 3.32812,3.36719 0.16472,3.63642 0.16381,8.84533 -0.002,11.72461 -0.17098,2.97915 -0.21504,2.95309 -6.4375,-3.75 -5.78894,-6.23608 -8.28737,-7.76732 -9.95508,-6.09961 -0.58184,0.58185 3.75945,5.34961 4.8711,5.34961 0.2481,0 2.05904,1.78052 4.02539,3.95703 1.96635,2.17652 4.44083,4.23281 5.49804,4.56836 1.32745,0.42131 1.92188,1.52863 1.92188,3.57813 0,2.52302 -0.26227,2.82423 -1.75,2.01367 -0.9625,-0.52439 -2.78196,-1.92499 -4.04297,-3.11328 -4.64559,-4.37766 -13.79806,-11.71356 -16.2168,-12.99805 -1.37015,-0.72763 -3.07819,-2.15134 -3.79687,-3.16406 C 284.62431,358.63022 283,358.44052 283,360.46875 c 0,0.80744 1.08576,2.04494 2.41211,2.75 2.62558,1.39572 15.88901,12.31725 21.28906,17.53125 l 3.36524,3.25 -7.28321,-0.008 c -4.00583,-0.004 -11.04977,-0.44132 -15.65429,-0.97071 -7.04394,-0.80984 -35.41584,-1.97563 -61.12891,-2.51367 -16.88018,-0.35322 -16.85374,-0.35068 -16.29883,-2.47265 0.28251,-1.08033 -0.65975,-4.31765 -2.09375,-7.19532 C 206.17341,367.96408 205,365.0805 205,364.4375 c 0,-0.64301 1.46378,-4.32697 3.25195,-8.1875 l 3.25,-7.01953 4.37696,3.88476 c 3.85454,3.4206 7.12109,4.95363 7.12109,3.3418 0,-0.29887 -2.47905,-2.88637 -5.50977,-5.75 l -5.51171,-5.20703 2.54296,-7 c 1.39826,-3.85 2.78566,-7.675 3.08399,-8.5 0.45011,-1.24475 0.82938,-1.15967 2.22265,0.5 4.06497,4.8422 12.17188,9.33184 12.17188,6.74023 0,-0.41837 -2.52454,-2.77478 -5.60938,-5.23632 -3.0848,-2.46154 -6.22402,-5.35528 -6.97656,-6.42969 -0.75255,-1.0744 -1.53511,-1.75548 -1.74023,-1.51367 -1.34519,1.58588 -5.88302,12.86335 -8.22461,20.43945 -1.52981,4.94965 -3.56193,10.79965 -4.51563,13 -3.06007,7.06007 -3.39053,12.0503 -1.01757,15.38281 4.76608,6.69334 2.23786,7.95783 -14.40235,7.20508 L 176.52734,379.5 l 5.08204,-3.25586 c 4.0218,-2.57587 5.73406,-3.12624 8.20117,-2.63281 C 193.52735,374.35469 200,373.30308 200,371.95508 200,371.43 197.3579,371 194.12891,371 h -5.8711 l 0.85352,-4.5625 c 0.46874,-2.50904 1.62524,-6.67154 2.57031,-9.25 1.3166,-3.59211 1.75194,-8.31111 1.86719,-20.1875 0.10988,-11.32437 0.59348,-16.84698 1.79101,-20.5 2.37372,-7.24093 2.05332,-12.56907 -1.40625,-23.36914 -2.79737,-8.7328 -3.08651,-10.89767 -3.27539,-24.60352 -0.14046,-10.1917 -0.77293,-17.4347 -1.96679,-22.50781 -0.96821,-4.11429 -1.83739,-11.76429 -1.92969,-17 -0.13905,-7.88454 0.30329,-11.02231 2.56836,-18.26953 1.50412,-4.8125 3.16885,-8.75 3.70117,-8.75 0.53233,0 1.00949,0.45 1.05859,1 0.11498,1.28778 0.54303,8.13665 0.75,12 0.10331,1.92857 0.69587,3 1.66016,3 0.825,0 1.5,-0.39696 1.5,-0.88281 0,-0.48585 0.87114,-1.11228 1.93555,-1.39063 1.24585,-0.32579 1.80067,-1.16749 1.55664,-2.36523 -0.20849,-1.0233 -0.90563,-4.89883 -1.54883,-8.61133 -1.06949,-6.17304 -1.37823,-6.75 -3.61328,-6.75 -3.03918,0 -11.13576,1.83598 -13.88477,3.14844 -1.13049,0.53972 -2.48049,0.89963 -3,0.79883 -3.52645,-0.68424 -12.55855,0.22995 -12.86719,1.30273 -0.19775,0.6875 -0.89037,3.95 -1.53906,7.25 -2.00685,10.20916 -3.16333,13.83744 -5.89844,18.5 -1.45186,2.475 -2.70259,5.4 -2.77929,6.5 -0.12029,1.72626 -1.78801,6.48056 -6.18945,17.64648 -1.00417,2.54745 -0.6901,3.85352 0.92773,3.85352 0.42127,0 1.07711,-0.98432 1.45898,-2.1875 0.38187,-1.20317 3.11143,-7.29027 6.06446,-13.52734 l 5.36914,-11.33985 2.9707,1.53516 c 3.4804,1.79978 6.05127,2.03506 11.55273,1.05469 l 4.01758,-0.7168 1.26368,9.27344 c 0.69461,5.10053 1.74964,9.86178 2.3457,10.58008 1.57467,1.89734 0.21852,7.66521 -3.4668,14.73632 -4.23462,8.12508 -15.10129,22.98877 -20.64844,28.24414 -5.08197,4.81467 -4.90502,6.88264 0.25196,2.94922 3.90223,-2.97638 4.7207,-3.17976 4.7207,-1.16601 0,0.78997 1.39825,4.95247 3.10742,9.25 1.70917,4.29753 3.65746,9.28918 4.33008,11.09179 0.92817,2.48748 2.64993,4.01727 7.14258,6.34375 3.25571,1.68595 6.48242,3.52747 7.16992,4.09375 1.46534,1.207 1.68609,4.78516 0.29492,4.78516 -1.24213,0 -11.37417,-5.95932 -12.10742,-7.12109 -0.30943,-0.49026 -1.59184,0.93983 -2.84961,3.17773 -1.66714,2.96641 -2.12102,4.95091 -1.67578,7.32422 0.33589,1.79046 0.12186,4.65615 -0.47461,6.36719 -0.59647,1.71103 -0.91351,4.38033 -0.70508,5.93164 l 0.37891,2.82031 0.76562,-3 c 1.77017,-6.93635 1.4781,-6.88194 9.46094,-1.73242 l 7.33789,4.73242 -0.59766,4.45898 c -0.32839,2.45278 -0.97094,4.83423 -1.42773,5.29102 -0.4568,0.4568 -4.14518,-1.21191 -8.19531,-3.70898 C 174.90495,354.04394 171.26818,352 170.87305,352 c -0.83046,0 -2.95239,6.01702 -3.06446,8.68945 -0.0418,0.99577 0.28358,2.66556 0.72266,3.71094 0.746,1.77611 0.44885,1.85502 -4.53906,1.19336 -7.44832,-0.98806 -9.32043,-2.11073 -7.91211,-4.74219 2.42875,-4.53817 0.51154,-28.95405 -2.14453,-27.3125 -0.53387,0.32994 -3.10017,-1.27439 -5.70313,-3.5664 -5.6454,-4.971 -7.90977,-6.30203 -8.66015,-5.08789 -0.65164,1.05438 11.62841,12.0788 13.58203,12.19335 0.86908,0.051 0.93874,0.24701 0.19726,0.55079 -0.84145,0.34475 -0.78968,1.19167 0.19336,3.16992 1.81254,3.64751 2.1445,15.66454 0.48828,17.66015 -1.66559,2.00692 -2.68428,1.94265 -5.11328,-0.32031 -5.26384,-4.90401 -12.87235,-9.27348 -15.59961,-8.96094 -2.70403,0.30987 -2.59446,0.46221 2.64063,3.69336 5.60171,3.45743 13.01288,9.23713 12.98828,10.12891 -0.008,0.275 -0.62885,1.3142 -1.38281,2.30859 -1.27806,1.68562 -1.91868,1.3661 -9.45313,-4.71679 -9.49646,-7.66692 -12.98668,-10.05239 -13.68555,-9.35352 -0.4844,0.48439 11.05061,11.09419 16.75977,15.41602 l 2.6875,2.03515 -3.4707,1.6543 c -4.26809,2.03532 -5.0004,2.07769 -3.44141,0.19922 1.35185,-1.62888 0.62206,-3.34998 -2.31641,-5.46485 -1.08624,-0.78176 -6.39611,-4.94427 -11.80078,-9.25 C 117.44102,351.5225 112.56503,348 112.00977,348 c -2.44436,0 -0.55182,2.79587 4.26562,6.30078 20.87963,15.19088 20.73546,15.02068 14.89453,17.63867 -6.15834,2.76026 -1.83899,4.34622 7.21094,2.64844 1.73729,-0.32591 5.53773,-2.67332 8.44531,-5.2168 l 5.28516,-4.625 3.90039,1.75977 c 2.71723,1.22529 5.41196,1.61197 8.89453,1.27734 l 4.99805,-0.48047 1.60156,4.00586 c 1.2142,3.03458 1.31473,4.18509 0.41016,4.74414 -0.79655,0.4923 -0.23214,1.25881 1.69531,2.30274 1.5891,0.86068 2.43867,1.59767 1.88867,1.63867 -7.86606,0.58698 -57.88589,-0.20951 -60.46094,-0.96289 -1.90392,-0.55703 -13.60392,-1.01839 -25.999998,-1.02539 C 76.642996,377.9989 61.55,377.80412 55.5,377.57422 46.796447,377.24348 7.0243332,376.79527 1.25,376.96289 0.42150476,376.98694 0,378.68602 0,382 c 0,4.74993 0.13753651,5.00756 2.75,5.15625 1.5125,0.0861 4.1,0.27825 5.75,0.42773 2.773181,0.25123 79.13033,1.68664 82.5,1.55079 14.79513,-0.59647 191.93355,2.4648 192.80078,3.33203 0.19803,0.19802 5.61103,0.21565 12.0293,0.0371 6.41828,-0.17844 14.17875,-0.36497 17.24414,-0.41407 L 318.64648,392 318.7832,358.25 c 0.20702,-51.573 0.84582,-84.84103 1.65625,-86.15234 0.40279,-0.65172 0.20525,-1.82085 -0.43945,-2.59766 -0.6447,-0.77681 -0.87206,-1.89771 -0.50586,-2.49023 0.36619,-0.59251 0.8021,-8.1489 0.96875,-16.79297 0.16665,-8.64408 0.34012,-17.5168 0.38672,-19.7168 0.0466,-2.2 0.57545,-7.375 1.17383,-11.5 0.59838,-4.125 1.07128,-11.2044 1.05078,-15.73242 -0.0205,-4.52801 0.42111,-9.44162 0.98242,-10.91797 0.64297,-1.69104 0.66814,-2.90162 0.0664,-3.27344 -0.57983,-0.35836 -0.62922,-2.35619 -0.125,-5.08398 1.00081,-5.41423 1.24084,-26.19066 0.48437,-41.99219 -0.3028,-6.325 -0.49799,-12.175 -0.43359,-13 0.0644,-0.825 0.21541,-6.68685 0.33594,-13.02539 0.12052,-6.33853 0.45237,-11.96353 0.73828,-12.5 0.286,-0.53646 0.38633,-5.47461 0.22265,-10.97461 -0.16367,-5.5 -0.26415,-19 -0.22265,-30 0.0415,-11 -0.005,-22.25 -0.10352,-25 -0.0987,-2.75 -0.15992,-10.374585 -0.13672,-16.943359 0.0264,-7.484307 -0.38212,-12.4534894 -1.09179,-13.3085941 -0.62286,-0.7505024 -2.74216,-2.0836529 -4.71094,-2.9628907 -3.09912,-1.3840342 -10.8791,-1.6520263 -57.95703,-2 -14.95364,-0.1105287 -28.73086,-0.137588 -38.88086,-0.09375 z M 171.75781,27.671875 c -9.70489,-0.0686 -12.18399,0.699497 -17.94531,5.560547 C 150.53812,35.995138 148.3412,41 150.40234,41 c 0.74404,0 1.96416,-0.736916 2.71094,-1.636719 2.90204,-3.496753 8.99776,-6.40573 14.64258,-6.988281 6.52698,-0.673591 15.70308,1.520502 19.45898,4.652344 2.55408,2.129712 3.10594,1.871534 -5.21484,2.429687 -8.20666,0.550497 -25.38337,2.662561 -26.30859,3.234375 -0.5531,0.341838 -2.60139,0.561642 -4.55274,0.488282 -1.95135,-0.07336 -3.79402,0.256247 -4.09375,0.734374 -0.29973,0.478128 -4.14492,2.780599 -8.54492,5.115235 -9.19919,4.881081 -10.49981,5.791025 -10.5,7.34375 -1e-4,0.777477 2.68358,1.014818 8.64453,0.767578 l 8.64649,-0.357422 -0.66407,4.144531 c -0.61781,3.863613 -0.45682,4.262081 2.35743,5.859375 2.10624,1.195452 2.79996,2.166459 2.29296,3.212891 -1.24173,2.56291 -0.37657,13.310772 1.39454,17.3125 1.5928,3.598985 4.14951,5.4358 10.82812,7.78125 2.39743,0.84195 8.5035,0.0404 10.25,-1.345703 0.6875,-0.54563 1.25,-1.580912 1.25,-2.298828 0,-0.979555 -1.33319,-1.167419 -5.33984,-0.753907 -7.8389,0.80905 -11.88955,-1.36589 -13.45704,-7.226562 C 152.16476,75.847172 152.43829,75 156.94141,75 c 2.16754,0 4.21867,0.45 4.55859,1 0.3611,0.584268 -0.66703,1 -2.47266,1 -3.48054,0 -4.93879,2.196351 -3.00586,4.525391 0.91392,1.101197 1.58975,1.21231 2.54688,0.417968 0.92793,-0.770117 1.88015,-0.775021 3.30273,-0.01367 1.099,0.588166 2.25134,1.070312 2.5625,1.070312 1.05345,0 0.57379,-3.736558 -0.94726,-7.376953 C 162.10229,72.310572 161.62921,72 157.94727,72 h -4.02735 l 0.29102,-6.244141 c 0.26224,-5.65473 0.0767,-6.336875 -1.96094,-7.236328 -2.9967,-1.322778 -2.84032,-2.316706 0.42383,-2.703125 1.47009,-0.174032 2.85023,-0.860751 3.06836,-1.52539 0.28364,-0.864269 -1.95883,-1.291474 -7.87305,-1.5 L 139.59961,52.5 l 6.45117,-3.125 c 8.00536,-3.878511 13.87531,-5.148755 29.7461,-6.4375 10.67563,-0.866887 13.15967,-0.780367 17.33203,0.605469 C 196.66085,44.716093 198,45.678363 198,47.044922 198,48.7858 200.666,51 202.76172,51 c 0.49082,0 0.94968,-3.0375 1.02148,-6.75 0.20809,-10.766594 -1.31871,-13.137165 -4.34961,-6.75 -0.91348,1.925 -1.83516,3.5 -2.04687,3.5 -0.2117,0 -2.1534,-1.717279 -4.31641,-3.816406 -2.16301,-2.099127 -5.76055,-5.082979 -7.99414,-6.63086 -3.71415,-2.573906 -4.85187,-2.821019 -13.31836,-2.880859 z m -9.39258,24.416016 c -1.97874,0.01338 -3.45024,0.114551 -3.93554,0.300781 -3.15817,1.211901 -0.0214,2.709161 6.50781,3.107422 3.42104,0.208673 7.53797,0.669291 9.15039,1.023437 l 2.93164,0.644531 -0.41601,8.300782 c -0.38314,7.624962 -0.17119,8.819451 2.60742,14.667968 1.66376,3.501944 3.35923,6.592188 3.76758,6.867188 0.40834,0.275 1.48189,1.942711 2.38476,3.705078 l 1.64063,3.203125 -3.75196,0.558594 c -2.06363,0.306577 -5.55195,1.029942 -7.75195,1.609375 -2.2,0.579434 -5.83462,1.392024 -8.07812,1.804687 -4.04742,0.74447 -9.41297,4.299991 -16.72852,11.087891 -4.68991,4.35164 -9.12027,13.26848 -11.19531,22.53125 -2.32209,10.36559 -4.6585,17.38803 -6.21485,18.67969 -1.62813,1.35122 -6.58767,-0.70829 -12.24804,-5.08594 -1.94408,-1.50353 -5.56016,-3.75572 -8.03516,-5.00391 -2.475,-1.24818 -5.625,-3.26826 -7,-4.49023 -1.375,-1.22196 -3.79471,-2.77353 -5.37695,-3.44727 -2.639536,-1.12395 -2.833388,-1.55262 -2.343753,-5.20312 0.293509,-2.18828 1.446569,-5.72795 2.560543,-7.86524 1.11402,-2.13729 1.79787,-4.11423 1.51954,-4.39257 -0.27837,-0.27834 0.20085,-1.87503 1.0664,-3.54883 0.86556,-1.6738 1.57422,-3.66267 1.57422,-4.41992 0,-1.77093 -9.610806,-3.58027 -25.453125,-4.79102 -11.116643,-0.84959 -12.254038,-0.76839 -16.25,1.16602 -4.556497,2.20577 -5.294417,3.83017 -2.712891,5.97265 0.871415,0.72321 2.896415,3.22201 4.5,5.55274 3.187986,4.63358 3.662576,9.17119 1.816407,17.37695 -1.896413,8.42908 -2.285953,7.84458 9.099609,13.64453 7.656792,3.90047 12.874072,5.80883 19.267578,7.04883 8.147712,1.58022 8.907772,1.93821 10.750002,5.06055 1.09031,1.84794 1.98242,4.0368 1.98242,4.86328 0,0.82649 2.25,3.88134 5,6.78906 2.75,2.90772 5,5.8051 5,6.43945 0,0.63436 0.42929,1.1543 0.95508,1.1543 0.5258,0 3.24651,1.35 6.04492,3 3.83199,2.25942 6.3279,3 10.10938,3 4.7161,0 5.31998,-0.30612 9.94335,-5.05273 l 4.92188,-5.05469 2.14258,4.80469 c 1.17823,2.64186 2.5207,5.47773 2.98437,6.30273 0.46368,0.825 1.62512,3.05566 2.58203,4.95703 0.9569,1.90136 3.51926,5.18308 5.69336,7.29297 4.05972,3.93982 4.87727,4.08268 11.92774,2.08984 2.91505,-0.82395 1.35599,-2.72911 -2.28125,-2.78711 -3.67581,-0.0586 -5.33244,-2.02824 -1.92188,-2.28515 2.75952,-0.20787 3.28751,-0.80954 2.50391,-2.85156 -0.48449,-1.26256 -1.44657,-1.54125 -3.93945,-1.13672 -2.53885,0.412 -3.57558,0.0966 -4.49219,-1.3711 -1.73886,-2.78435 -3.5156,-2.40415 -2.76367,0.5918 1.22923,4.89765 -0.5026,2.3523 -5.32618,-7.82422 -7.34571,-15.49755 -8.06655,-23.22724 -4.48046,-48.06055 0.56525,-3.91431 0.4323,-4.79449 -0.66797,-4.42773 -1.80497,0.60166 -5.91229,18.13426 -5.92969,25.3125 -0.0412,16.98546 0.0215,16.60117 -3.32227,20.58398 -3.84408,4.57873 -7.99407,5.6486 -13.30468,3.42969 -6.81322,-2.84675 -12.19998,-8.20866 -15.89063,-15.8164 l -3.45508,-7.12305 2.66992,-2.78711 c 1.46887,-1.53312 3.14978,-2.78754 3.73438,-2.78711 0.5846,4.3e-4 3.875,1.33276 7.3125,2.95898 5.80594,2.74667 6.25014,3.18951 6.24414,6.24805 -0.003,1.81085 -0.67839,4.58283 -1.5,6.1582 -1.96827,3.77398 -1.88502,4.63477 0.44727,4.63477 2.53559,0 3.12884,-1.10116 3.58007,-6.63867 0.20574,-2.52487 0.59037,-4.8052 0.85352,-5.06836 1.0599,-1.05989 3.63707,5.81246 3.05273,8.14062 -0.75368,3.00291 0.14027,4.66939 2.10352,3.91602 1.69657,-0.65104 2.0657,-7.86275 0.45313,-8.85938 -0.55897,-0.34546 -0.74539,-1.06742 -0.41407,-1.60351 0.33132,-0.53609 0.16121,-1.51629 -0.37695,-2.17969 -1.71392,-2.11279 -1.88175,-5.12153 -0.44922,-8.03711 C 139.65148,144.78797 143,134.13616 143,131.95117 c 0,-0.98378 0.66407,-3.06207 1.47461,-4.61914 0.81053,-1.55707 2.24645,-4.63203 3.19141,-6.83203 3.18133,-7.4066 6.18151,-11.24436 10.81836,-13.83594 5.58914,-3.12385 6.68648,-1.88008 3.6289,4.11328 -4.78236,9.3742 -6.29655,14.80153 -6.90039,24.72266 -1.20802,19.84807 -0.57319,30.5 1.81836,30.5 0.60478,0 0.73395,-1.66093 0.33203,-4.25 -0.648,-4.17424 -0.62309,-4.21881 1.31836,-2.5 2.93268,2.59636 5.31836,2.24591 5.31836,-0.78125 0,-3.05589 -2.50822,-4.25669 -5.27734,-2.52734 -1.97982,1.23642 -1.99909,1.10791 -1.27735,-8.0918 1.31845,-16.80592 2.03746,-22.32025 3.16016,-24.2168 1.06638,-1.80143 1.20305,-1.80502 3.83594,-0.0801 2.31417,1.5163 2.86647,1.57375 3.6289,0.36915 2.01489,-3.18345 0.618,-4.59816 -3.92578,-3.97266 -0.74584,0.10267 -1.15403,-0.40585 -0.90625,-1.13086 0.29252,-0.85588 1.73198,-1.20332 4.10547,-0.99024 3.34701,0.30053 3.65625,0.11063 3.65625,-2.25 0,-2.0832 -0.47978,-2.57812 -2.5,-2.57812 -2.79758,0 -2.94286,-0.3047 -1.46484,-3.06641 0.96783,-1.80839 1.19443,-1.82929 3.47656,-0.33398 2.34281,1.53506 2.48813,1.49355 3.63672,-1.02734 1.60571,-3.52416 -0.18137,-5.65789 -3.17383,-3.78907 -2.2248,1.38942 -2.44277,0.95938 -0.93945,-1.84961 0.59362,-1.10919 2.08657,-1.93359 3.5,-1.93359 1.57138,0 2.46484,-0.56911 2.46484,-1.568359 0,-1.022346 0.60854,-1.38682 1.75,-1.050782 1.77798,0.523426 10.6235,-1.420366 11.79492,-2.591797 0.35258,-0.352574 3.63531,0.848477 7.29688,2.667969 3.66158,1.819499 7.6707,3.615359 8.9082,3.992189 2.46772,0.75144 2.7545,2.09599 1.27539,5.98633 -0.62639,1.64752 -1.78896,2.60518 -3.25,2.67968 -1.69363,0.0864 -1.82833,0.23372 -0.52539,0.57422 2.33231,0.60949 2.20734,1.89358 -0.75391,7.73047 -1.37269,2.70571 -2.49609,5.68262 -2.49609,6.61524 0,2.66811 3.53148,6.50062 11.55469,12.53906 7.30084,5.49477 7.39536,5.62309 6.06445,8.2539 -0.74353,1.4698 -1.64774,4.30885 -2.00976,6.31055 -1.25954,6.96406 -6.80008,16.10451 -15.04688,24.82227 -9.66419,10.21609 -12.25292,12.31425 -18.8125,15.24804 -1.5125,0.67647 -2.75,1.80535 -2.75,2.50977 0,1.89822 1.11005,1.59788 6.33984,-1.71875 2.60178,-1.65 4.98957,-3 5.30664,-3 0.96356,0 10.58973,-8.15788 15.00391,-12.71484 4.53988,-4.68672 5.47894,-5.03847 7.36523,-2.76563 1.02602,1.23624 0.9663,1.84374 -0.32226,3.26758 -2.54916,2.81678 -5.64808,10.44459 -5.67188,13.96289 -0.0198,2.92497 -0.31603,3.25 -2.96289,3.25 -4.25082,0 -4.59058,1.53474 -1.27734,5.76758 1.60678,2.05274 3.22265,4.96992 3.58984,6.48242 0.70767,2.91501 2.62891,3.806 2.62891,1.21875 0,-0.84266 -0.675,-3.14855 -1.5,-5.12305 -1.72496,-4.1284 -1.86361,-5.3457 -0.60742,-5.3457 1.30399,0 2.25282,2.79907 2.97265,8.7793 0.34958,2.90407 1.08477,5.27362 1.63477,5.26562 1.68541,-0.0253 1.73259,-8.69507 0.0644,-11.91992 l -1.53906,-2.97852 6.34766,-5.57226 c 3.49166,-3.06551 6.8092,-5.57422 7.37304,-5.57422 2.42907,0 6.94144,12.7567 7.66993,21.68555 l 0.58593,7.18554 -3.96484,2.22852 c -2.1811,1.22585 -5.39733,4.00899 -7.14649,6.18555 -1.94092,2.41523 -5.36429,4.94994 -8.78515,6.50195 -6.01567,2.72925 -7.06595,3.69531 -7.08985,6.5293 -0.0126,1.49663 0.73363,1.21068 4.23438,-1.62696 4.13139,-3.34882 5.10681,-3.80136 11.10547,-5.14257 2.1638,-0.48384 2.7356,-1.08959 2.36523,-2.50586 -0.35311,-1.35029 0.72628,-2.74178 3.89258,-5.01563 2.40983,-1.73062 4.90044,-2.82587 5.53516,-2.43359 0.63472,0.39227 1.69256,-0.0213 2.34961,-0.91992 1.04715,-1.43209 1.7345,-1.47832 5.57226,-0.36719 l 4.37891,1.26953 0.33594,6.32226 c 0.29086,5.4933 -0.009,6.81775 -2.26954,10.08008 -2.21151,3.19121 -3.30883,3.84614 -7.30859,4.36328 -2.58885,0.33472 -5.71953,0.89873 -6.95703,1.25196 -2.09698,0.59856 -2.25,0.33385 -2.25,-3.89258 0,-2.49417 -0.27357,-5.24721 -0.60742,-6.11719 C 224.33016,229.81217 223,230.87806 223,234.5 c 0,2.66295 -0.41853,3.50277 -1.75,3.50977 -3.22894,0.018 -11.87834,4.70651 -15.43164,8.36523 -4.28103,4.40808 -5.1779,4.53845 -4.31836,0.625 0.39545,-1.80048 0.2517,-3 -0.35938,-3 -1.56245,0 -2.61955,8.92146 -1.22265,10.31836 0.88974,0.88974 2.07122,0.18684 4.96875,-2.95117 2.11202,-2.2873 6.71106,-5.50567 10.34961,-7.24219 7.59466,-3.6246 7.76367,-3.65539 7.76367,-1.48438 0,0.90186 0.78118,2.20975 1.73633,2.90821 1.64713,1.20438 1.64618,1.37087 -0.0332,3.22656 -0.97389,1.07617 -2.2157,4.71194 -2.75781,8.07813 -0.54211,3.3662 -1.42567,7.28109 -1.96484,8.69921 -0.5392,1.41811 -0.98047,3.89752 -0.98047,5.51172 0,1.61419 -0.42168,2.93555 -0.9375,2.93555 -1.04396,0 -1.15584,0.93001 -1.11133,9.33203 0.017,3.20746 0.37385,6.35746 0.79102,7 0.41718,0.64254 1.01047,-1.77608 1.32031,-5.375 0.63209,-7.34189 1.29981,-8.94428 3.74609,-8.98828 1.55122,-0.0279 1.54686,-0.1138 -0.0586,-1.04883 -2.35599,-1.37224 -2.23469,-2.67822 1.20312,-12.93945 4.75524,-14.19331 6.11669,-16.53378 9.41211,-16.17969 1.53885,0.16535 4.41109,-0.23209 6.38282,-0.88281 2.97183,-0.9808 3.7698,-0.93079 4.66797,0.28711 0.59592,0.80804 2.05305,1.98311 3.23632,2.61328 1.33624,0.71164 2.80723,3.23275 3.88282,6.65234 3.13155,9.95598 5.92108,9.35477 7.02148,-1.51367 0.79835,-7.88518 -1.3913,-17.45248 -4.49023,-19.62305 C 252.92995,232.53794 252,231.27532 252,230.52734 c 0,-0.74798 -0.54476,-1.54161 -1.21094,-1.76367 -1.19322,-0.39774 -2.02469,-7.75309 -0.8789,-7.77539 1.00883,-0.0197 3.92915,-7.21278 5.47461,-13.48828 2.88722,-11.72385 3.62279,-15.07753 4.72265,-21.5 1.86114,-10.86795 2.01616,-16.05172 0.56446,-18.86914 -0.74584,-1.44746 -2.299,-4.43086 -3.45313,-6.63086 -1.15413,-2.2 -3.69323,-7.375 -5.64063,-11.5 -1.94728,-4.125 -6.91125,-12.9 -11.03124,-19.5 -4.12004,-6.6 -7.80211,-12.63128 -8.1836,-13.40234 -2.00712,-4.05676 -16.28912,-15.07609 -19.55469,-15.08789 -1.48004,-0.005 -3.05328,-0.57227 -3.49609,-1.25977 C 208.86969,99.0625 208.48824,92.875 208.46484,86 208.42106,73.157905 207.81465,70 205.39258,70 204.62643,70 204,69.421163 204,68.712891 c 0,-3.318122 -5.82715,-7.711212 -15.5,-11.685547 -8.29409,-3.407836 -11.56119,-4.212463 -19.15234,-4.712891 -2.51693,-0.165924 -5.00368,-0.239946 -6.98243,-0.226562 z m 1.23829,5.617187 c -3.22012,0.231786 -4.75313,1.337708 -2.8125,2.029297 0.85045,0.30308 0.96733,0.854328 0.33984,1.613281 -0.52416,0.634015 -0.71614,2.389844 -0.42578,3.902344 0.48719,2.537843 0.89221,2.75 5.25586,2.75 3.46326,0 5.21517,-0.536503 6.54492,-2.005859 2.08839,-2.307647 1.63788,-3.022983 -2.80469,-4.458985 C 167.94034,60.965989 166.48831,59.825 166.47461,59 c -0.017,-1.025384 -0.9251,-1.434996 -2.87109,-1.294922 z m 17.50781,0.423828 c 0.52758,0.0086 1.2875,0.442032 2.37109,1.234375 1.8128,1.325556 1.80554,1.491787 -0.2539,5.873047 -2.34513,4.989065 -5.90264,7.666684 -4.18555,3.150391 C 179.56935,67.002241 180,64.099743 180,61.935547 c 0,-2.653688 0.23202,-3.820988 1.11133,-3.806641 z M 187.48047,60 C 188.49415,60 189,60.977054 189,62.935547 189,66.729158 190.63411,71 192.08594,71 c 0.75673,0 0.91784,-1.168598 0.48047,-3.5 -0.39479,-2.104403 -0.2575,-3.5 0.34375,-3.5 1.48131,0 2.54587,6.9443 1.26172,8.228516 -0.67728,0.677266 -0.74492,1.701418 -0.18165,2.753906 0.70113,1.310069 -0.004,2.369183 -3.22851,4.847656 C 188.49266,81.574012 186.25762,83 185.79492,83 c -1.3045,0 2.18133,-4.843403 3.73633,-5.191406 1.08445,-0.242695 0.98262,-0.832546 -0.48242,-2.761719 -1.66024,-2.186219 -2.14935,-2.321546 -4.48828,-1.255859 -2.45702,1.119494 -2.55527,1.067126 -1.55664,-0.798828 C 183.5905,71.896119 184.56076,71 185.16016,71 c 0.67758,0 0.86327,-1.134804 0.49023,-3 -0.3713,-1.856512 -0.18804,-3 0.48242,-3 0.65629,0 0.83712,-0.985586 0.45703,-2.5 -0.46304,-1.844865 -0.23035,-2.5 0.89063,-2.5 z m -13.42188,0.449219 c -0.005,0.01461 -0.0179,0.01503 -0.0215,0.03125 0.006,-0.0034 0.0117,-0.0064 0.0176,-0.0098 0.001,-0.0057 0.01,-0.01374 0.0117,-0.01953 -0.003,-5.71e-4 -0.005,-0.0013 -0.008,-0.002 z m 0.41602,1.259765 c -0.001,0.0019 -0.003,0.0039 -0.004,0.0059 0.003,4.31e-4 0.005,-4.48e-4 0.008,0 -0.001,-0.0018 -0.002,-0.0041 -0.004,-0.0059 z m 23.78906,6.396485 c 0.2008,-0.0702 0.58728,0.415576 1.3418,1.394531 0.84781,1.1 1.97484,2.7875 2.50391,3.75 0.69981,1.273167 0.59638,1.75 -0.375,1.75 -2.11081,0 -3.73773,-2.174171 -3.70313,-4.949219 0.0156,-1.248167 0.0316,-1.875115 0.23242,-1.945312 z M 0.58398438,74.748047 C 0.44524875,74.433295 0.346474,76.2 0.34375,79.5 c -0.003632,4.4 0.16793492,6.325306 0.3828125,4.277344 0.21487736,-2.047962 0.21905271,-5.647962 0.007813,-8 -0.0528113,-0.58801 -0.10414051,-0.92438 -0.15039062,-1.029297 z M 186.10742,76.042969 c 0.53069,-0.0835 0.89258,0.146106 0.89258,0.716797 0,0.417699 -0.9,1.320851 -2,2.007812 -2.18964,1.36745 -2.71264,0.343503 -0.80078,-1.568359 0.67724,-0.677247 1.37751,-1.072753 1.9082,-1.15625 z M 203.17188,81.5 l 0.91015,3 c 0.81286,2.680423 0.56403,3.289637 -2.33594,5.722656 C 198.37696,93.049287 196,93.763847 196,91.949219 c 0,-0.578064 1.575,-1.709355 3.5,-2.513672 2.941,-1.228828 3.51374,-1.979567 3.58594,-4.699219 z m -11.38477,0.597656 c 1.11952,0.06565 2.70057,0.696096 4.95117,1.902344 2.11065,1.131245 2.97749,2 1.9961,2 -0.95438,0 -2.67994,0.945566 -3.83594,2.101562 l -2.10156,2.101563 0.68164,-3.101563 C 194.00877,84.687337 193.81956,84 192.62891,84 c -0.84138,0 -1.98823,0.7875 -2.54883,1.75 -1.11272,1.910426 -1.44777,0.373122 -0.47266,-2.167969 0.40317,-1.05063 1.06017,-1.550024 2.17969,-1.484375 z M 161.75,84.189453 c -1.72374,-0.331962 -2.43634,1.79022 -1.0625,3.164063 1.04821,1.048207 2.8125,0.155024 2.8125,-1.423828 0,-0.771637 -0.7875,-1.554875 -1.75,-1.740235 z M 0.59960938,91.925781 C 0.4702218,91.61582 0.37890625,94.25625 0.37890625,99 c 0,6.325 0.16092433,8.9125 0.359375,5.75 0.19845066,-3.1625 0.19845066,-8.3375 0,-11.5 -0.0496127,-0.790625 -0.0955427,-1.220898 -0.13867187,-1.324219 z M 203.05273,92.107422 c 0.54649,0.0992 0.95298,0.802455 1.29883,2.125 0.78403,2.998158 -0.53001,4.087944 -2.86718,2.378906 -1.62174,-1.18584 -1.70836,-1.637345 -0.57422,-3.003906 0.90862,-1.094821 1.59609,-1.599204 2.14257,-1.5 z M 70.128906,105.31641 c 6.023711,-0.21304 17.865537,0.66177 21.871094,1.91797 4.373175,1.37148 4.41545,1.42265 1.5,1.83789 -3.803006,0.54165 -22.307419,-0.55881 -25.285156,-1.50391 -1.234348,-0.39177 -1.982861,-1.13456 -1.664063,-1.65039 0.209425,-0.33886 1.570222,-0.53055 3.578125,-0.60156 z m 144.052734,1.85742 3.45703,2.03906 c 2.07035,1.22153 5.42065,5.09801 8.35547,9.66406 2.69494,4.19286 5.93653,8.94238 7.20313,10.55469 1.26659,1.61231 3.60652,5.21231 5.19921,8 16.18694,28.33208 16.13426,28.19991 15.92774,40.62695 -0.16244,9.77519 -2.83494,25.55712 -5.3711,31.72071 -0.89546,2.17629 -1.07251,2.21033 -3.89648,0.75 -1.62702,-0.84137 -3.4305,-1.5293 -4.00781,-1.5293 -1.76349,0 -1.16552,2.82274 0.70117,3.31055 1.17669,0.30751 1.25859,0.46924 0.25,0.49414 -2.25703,0.0558 -4.36664,-0.94734 -5.64844,-2.6875 -0.74477,-1.01111 -1.13246,-6.61612 -1.10156,-15.94922 l 0.0488,-14.39063 3.87695,0.51954 c 2.13217,0.28595 5.65169,1.39873 7.82227,2.47265 C 251.1759,184.83642 252,184.70385 252,181.96875 252,179.8582 244.9256,177 239.70312,177 c -3.5745,0 -3.83532,-0.23848 -6.30468,-5.75 -4.50501,-10.05499 -8.2,-20.11939 -8.89258,-24.21875 -0.36913,-2.18487 -1.5335,-5.06972 -2.58789,-6.41016 C 220.86357,139.28065 220,137.77052 220,137.26562 c 0,-0.50486 -1.06796,-1.92042 -2.37305,-3.14648 -1.30508,-1.22606 -3.17597,-4.01125 -4.1582,-6.18945 -1.61145,-3.57354 -1.66444,-4.78003 -0.53711,-12.35742 z m -138.007812,5.48242 c 1.878614,0.0185 4.37337,0.0849 7.660156,0.17773 7.515975,0.21233 13.75394,0.46189 13.861328,0.55469 0.10739,0.0928 -0.938967,3.30635 -2.326171,7.14063 -1.387204,3.83427 -2.766276,7.7628 -3.064453,8.73047 -0.457443,1.4845 -1.580401,1.71886 -7.181641,1.5 -12.805229,-0.50036 -12.469116,-0.29102 -12.716797,-7.89649 -0.118884,-3.65052 -0.670569,-7.48845 -1.226562,-8.52734 -0.729428,-1.36295 -0.641702,-1.73517 4.99414,-1.67969 z m 133.429692,0.94727 c 0.30877,-0.12484 0.082,1.60376 -0.75196,5.21679 -1.02837,4.45515 -0.94416,5.64573 0.64063,9.16016 2.00091,4.43722 1.83821,5.46983 -0.58008,3.6875 -3.74278,-2.75851 -4.11557,-5.31461 -1.76758,-12.15625 1.30536,-3.8036 2.15021,-5.78337 2.45899,-5.9082 z m -46.41407,13.5 c -0.52069,0.0918 -1.02021,0.3288 -1.42773,0.73632 -0.56461,0.56461 -0.74401,1.76156 -0.39844,2.66211 0.90893,2.36865 5.13672,1.55539 5.13672,-0.98828 0,-1.65462 -1.74847,-2.68545 -3.31055,-2.41015 z m -81.101559,7.14453 c 0.131991,-0.20814 0.494013,0.0845 1.164062,0.75195 0.828204,0.825 1.741748,3.4125 2.03125,5.75 0.289498,2.3375 0.333893,4.25 0.09766,4.25 -0.621086,0 -2.433283,-5.00121 -3.080078,-8.5 -0.246775,-1.33491 -0.344881,-2.04382 -0.21289,-2.25195 z m 80.208989,0.12109 c -2.51268,-0.10979 -3.44318,2.95464 -0.54688,4.125 1.55487,0.6283 1.49912,0.80334 -0.5,1.57422 -2.13023,0.82143 -3.03183,3.81778 -1.58398,5.26562 1.01883,1.01884 3.1375,0.79383 3.88281,-0.4121 0.36656,-0.5931 0.8672,-3.01158 1.11328,-5.37305 0.34795,-3.33907 0.0821,-4.43289 -1.19727,-4.92383 -0.41694,-0.16 -0.80902,-0.24018 -1.16796,-0.25586 z m -72.605474,0.73047 C 90.896537,135.04479 92.160081,135.45 92.5,136 c 0.339919,0.55 0.478553,0.95521 0.308594,0.90039 C 92.638635,136.84557 91.375,136.44035 90,136 c -2.327257,-0.74532 -2.348186,-0.80759 -0.308594,-0.90039 z m -14.523437,0.72851 c 0.233757,-0.13005 0.760973,0.63049 1.386719,2.07227 0.811913,1.87072 1.338639,3.53832 1.171874,3.70508 -0.601967,0.60197 -2.725718,-3.61956 -2.6875,-5.3418 0.0055,-0.24918 0.05099,-0.39217 0.128907,-0.43555 z m 22.308593,0.26563 c 0.906099,-0.18235 4.337278,1.64511 8.267578,4.57813 l 3.24609,2.42187 -2.18359,2.95313 c -2.25596,3.05133 -3.16342,3.22411 -11.80664,2.23242 -3.127455,-0.35884 -6.914186,-3.35934 -6.978516,-5.5293 -0.01223,-0.4125 1.762711,-0.75 3.94336,-0.75 2.954878,0 4.240915,-0.51552 5.046875,-2.02148 0.594786,-1.11136 0.807503,-2.46136 0.474609,-3 -0.334589,-0.54138 -0.311451,-0.82399 -0.0098,-0.88477 z M 111,147 c 0.0516,0.0516 -0.25111,0.45697 -0.87305,1.25 -1.30637,1.66575 -2.12695,2.19609 -2.12695,1.37305 0,-0.20765 0.7875,-0.99515 1.75,-1.75 0.79303,-0.62194 1.19838,-0.92467 1.25,-0.87305 z m 49.38086,1.02344 C 159.58624,148.21757 159,149.24102 159,151 c 0,2.30293 0.45143,3 1.94141,3 2.59766,0 3.38757,-1.5172 2.07031,-3.97852 -0.83259,-1.5557 -1.83624,-2.19206 -2.63086,-1.99804 z m 14.47461,1.0664 c -0.003,-0.001 -0.006,5.4e-4 -0.008,0.002 0.032,0.0194 0.0638,0.0391 0.0957,0.0586 0.01,7.7e-4 0.021,6.5e-4 0.0312,0.002 -0.0455,-0.0247 -0.089,-0.0493 -0.11914,-0.0625 z m 45.97461,2.86328 c 0.66984,0.48877 2.66881,5.03126 4.82031,11.04688 3.63862,10.1736 4.57454,14.22153 5.0293,21.75 0.30731,5.0875 0.352,9.25 0.0996,9.25 -0.2523,0 -1.02061,-1.2375 -1.70899,-2.75 -2.08568,-4.58267 -9.71743,-15.56553 -12.97265,-18.66992 -2.09865,-2.00141 -2.75914,-3.28344 -2.09961,-4.07813 0.81588,-0.98308 1.98177,-3.88491 6.6289,-16.50195 0.038,-0.10313 0.10744,-0.11644 0.20313,-0.0469 z m -58.70703,11.27735 c -1.52644,0.21953 -2.93427,1.0992 -2.50391,2.2207 0.30209,0.78724 1.52384,1.62126 2.71484,1.85352 1.191,0.23226 2.50352,0.48369 2.91602,0.55859 1.01577,0.18444 0.92164,-2.04297 -0.1582,-3.74805 -0.299,-0.47212 -0.83795,-0.7502 -1.4668,-0.86914 -0.47164,-0.0892 -0.99314,-0.0888 -1.50195,-0.0156 z m -5.04688,5.22265 c -0.80378,0.49677 0.34315,7.79609 1.52539,9.70899 0.54005,0.87382 2.39844,1.17209 2.39844,0.38477 0,-0.24915 -0.41971,-1.48664 -0.93164,-2.75 -0.51194,-1.26339 -1.20011,-3.5529 -1.5293,-5.0879 -0.32919,-1.53499 -0.98675,-2.55007 -1.46289,-2.25586 z M 164.63281,170 c -2.73366,0 -4.13348,1.38063 -3.09765,3.05664 1.00522,1.62648 4.90218,0.66173 5.27734,-1.30664 0.24607,-1.29109 -0.32471,-1.75 -2.17969,-1.75 z m 74.04297,1.07617 c -3.12314,-0.0628 -3.76216,0.24432 -3.49023,1.67383 0.26103,1.37221 1.66343,1.85794 6.49218,2.25 3.38701,0.275 6.49436,0.8375 6.90625,1.25 1.33258,1.33455 2.5706,0.79545 2.23047,-0.9707 -0.38273,-1.98738 -6.45143,-4.08881 -12.13867,-4.20313 z M 165.45117,176 c -2.90394,0 -4.00844,1.62186 -2.41406,3.54297 1.44613,1.74248 3.15545,1.86604 4.68555,0.33594 C 169.39768,178.20389 168.10656,176 165.45117,176 Z m 50.40821,3.01758 c 0.35274,0.01 1.71819,1.15293 3.03515,2.54101 2.37203,2.50012 2.37662,2.5411 0.4375,4.34766 -1.07662,1.00302 -2.91338,2.33458 -4.08008,2.95898 -2.77326,1.4842 -3.25195,1.43222 -3.25195,-0.3457 0,-1.99905 3.05645,-9.52355 3.85938,-9.50195 z M 168.5,182.24414 c -3.39242,-0.43377 -4.8971,1.14761 -3.52734,3.70703 0.72519,1.35502 1.76051,1.98197 2.68554,1.62695 0.8278,-0.31764 1.94892,-0.57812 2.49219,-0.57812 1.9331,0 0.37252,-4.4972 -1.65039,-4.75586 z m 19.68945,19.9375 c 0.64183,-0.0749 0.5553,0.32779 -0.0879,1.48047 -0.56381,1.01057 -1.81738,4.65039 -2.78515,8.08789 -0.96778,3.4375 -2.13926,6.25 -2.60352,6.25 -2.30552,0 -4.67408,-2.36332 -5.75391,-5.74219 -1.8659,-5.83858 -3.30468,-6.5202 -2.65625,-1.25781 0.44685,3.62644 1.3183,5.17944 4.49415,8 2.45579,2.18106 4.16626,4.70983 4.53906,6.71094 0.32904,1.76617 0.27534,3.34117 -0.11914,3.5 -1.75244,0.70555 -12.7797,-0.43452 -14,-1.44727 -1.04329,-0.86586 -1.18783,-2.85608 -0.63086,-8.69336 0.3973,-4.16388 0.72737,-8.24013 0.73437,-9.05859 0.0165,-1.91704 2.11874,-4.01172 4.02539,-4.01172 0.81845,0 1.63698,-0.41722 1.82032,-0.92773 0.18333,-0.5105 2.57659,-1.18937 5.31836,-1.50782 2.74171,-0.31845 5.809,-0.83909 6.81445,-1.1582 0.38227,-0.12133 0.67668,-0.19965 0.89062,-0.22461 z m 9.24219,0.0781 c 0.23814,-0.0514 0.52163,1.60314 0.69727,4.99609 0.13395,2.58784 -0.0661,5.01535 -0.44336,5.39258 C 197.30832,213.02596 197,210.70833 197,207.5 c 0,-3.43087 0.1935,-5.18882 0.43164,-5.24023 z M 249.14062,234 c 1.32195,0 4.56086,7.1425 5.32813,11.75 0.38926,2.3375 0.49732,4.25 0.24023,4.25 -0.49051,0 -6.85066,-7.65119 -8.04296,-9.67578 C 245.89518,239.0153 247.8579,234 249.14062,234 Z M 0.9375,243.77148 c -1.02271484,-0.0242 -1.0067093,5.6402 -0.45117188,35.22852 0.37691955,20.075 1.12250898,38.51575 1.65624998,40.98047 0.6529171,3.01505 0.6345401,4.59447 -0.054687,4.82422 -1.89605987,0.63202 -2.43770925,6.98807 -0.7402344,8.68554 0.8564895,0.85649 3.6695619,4.24624 6.2519532,7.53321 C 10.551893,344.78124 13.040472,347 14.302734,347 c 2.283435,0 2.372973,0.13675 -5.6874996,-8.6875 -6.1369403,-6.71845 -6.6131871,-7.59673 -5.1757813,-9.5625 1.1008261,-1.50547 2.3480277,-0.5159 11.0624999,8.77734 C 20.071664,343.46696 25.119269,348 26.162109,348 27.173437,348 28,347.65239 28,347.22852 28,346.12436 6.5580789,324.99982 5.4355469,324.99805 4.8777141,324.99718 4.4388624,312.15158 4.3476562,293.17773 4.162037,254.56275 3.6680189,246.21596 1.4414062,244.07617 1.2514677,243.89364 1.0836021,243.77495 0.9375,243.77148 Z m 148.57031,15.32618 c -0.15374,-0.0163 -0.35157,0.0177 -0.59179,0.0976 -1.37427,0.45809 -3.6777,5.9668 -7.99805,19.12305 l -2.24024,6.81836 2.29297,6.68164 c 1.26122,3.67491 2.94602,7.73236 3.74219,9.01758 0.79618,1.28522 1.26612,2.51903 1.04492,2.74023 -0.2212,0.2212 -4.24522,0.56628 -8.9414,0.76758 -4.69618,0.2013 -8.94172,0.61667 -9.43555,0.92187 -0.49382,0.30521 -2.91843,0.17769 -5.38867,-0.28124 -2.59865,-0.48278 -4.88576,-0.45101 -5.42578,0.0742 -1.58282,1.5397 0.14568,2.21014 5.39843,2.0918 3.59303,-0.081 5.03516,0.26853 5.03516,1.22266 0,0.73541 2.5875,3.15323 5.75,5.37304 3.1625,2.2198 6.60655,4.98468 7.6543,6.14453 1.04774,1.15988 2.79094,2.10938 3.87304,2.10938 1.71557,0 1.79263,-0.21054 0.59766,-1.65039 -0.75374,-0.90819 -4.97121,-4.17069 -9.37109,-7.25 -6.76118,-4.73189 -7.63609,-5.6503 -5.65039,-5.93164 3.63461,-0.51496 6.33591,0.53309 10.14648,3.93945 1.925,1.72081 5.49492,4.8432 7.93359,6.9375 3.67584,3.15677 4.22427,4.05949 3.20703,5.28516 -1.09,1.31337 -0.79487,5.51085 0.55665,7.91992 0.23141,0.4125 1.074,0.75 1.87304,0.75 1.59194,0 1.61838,0.31905 -1.60156,-19.22461 -1.34935,-8.18993 -2.48946,-11.89888 -4.82422,-15.69336 -1.72872,-2.80952 -3.30144,-7.00373 -3.61914,-9.65039 -0.30905,-2.57452 -0.78039,-5.03635 -1.04883,-5.4707 -0.26844,-0.43435 -0.0531,-0.94052 0.48047,-1.125 0.80186,-0.27723 2.86115,-6.39257 6.80859,-20.22071 0.27951,-0.97908 0.20342,-1.46874 -0.25781,-1.51757 z m 37.7168,6.75195 c 0.11537,-0.0292 0.20401,0.002 0.27148,0.0937 0.32387,0.43864 0.13878,2.23584 -0.125,5.08984 -0.66589,7.20482 0.58768,14.8647 4.08399,24.96875 2.23134,6.44849 2.26045,13.15582 0.0801,18.24805 -1.06966,2.49794 -2.2877,2.19095 -9.01368,-2.27734 -3.2882,-2.18445 -6.4382,-3.9849 -7,-4 C 173.86707,307.92864 170,299.30974 170,295.66797 c 0,-3.60479 1.60231,-6.78585 9.67383,-19.20703 4.66658,-7.18136 6.74316,-10.40674 7.55078,-10.61133 z M 199.91797,269 c -0.65291,0 -0.89919,1.3454 -0.62305,3.39453 0.48996,3.63575 1.14176,5.09582 3.51172,7.85547 1.37955,1.60638 4.19336,2.44015 4.19336,1.24219 0,-0.27976 -1.35,-2.37263 -3,-4.65039 -1.65,-2.27776 -3,-4.97471 -3,-5.99219 C 201,269.83213 200.51284,269 199.91797,269 Z m -106.876954,0.42773 c -3.276981,-0.19533 -6.608971,0.009 -8.523438,0.70118 -3.734735,1.35049 -7.233141,6.56114 -6.205078,9.24023 0.775241,2.02024 2.6875,2.14956 2.6875,0.18164 0,-2.16383 5.972462,-6.20899 10.3125,-6.98437 4.690748,-0.83804 10.6875,0.9616 10.6875,3.20703 0,0.89029 1.2194,3.37787 2.70898,5.52734 2.92154,4.21578 3.38788,9.63782 1.26954,14.75195 -1.41291,3.41106 -8.48574,5.88833 -19.000004,6.6543 -7.111314,0.51806 -7.698278,0.39989 -10.75,-2.16797 C 73.501759,298.24465 73,297.14703 73,293.4707 c 0,-2.39365 0.409841,-4.60485 0.910156,-4.91406 0.500315,-0.30921 3.011747,0.3377 5.582032,1.43945 7.463648,3.1993 15.593206,2.30897 18.398437,-2.01562 L 99.5,285.5 l -2.714844,1.75 c -4.926764,3.17585 -11.563034,2.0895 -14.167968,-2.32031 C 80.752099,281.77235 79,281.07939 79,283.5 c 0,0.92264 -0.937858,1.5 -2.435547,1.5 -8.058731,0 -10.441695,5.42766 -5.560547,12.66016 C 72.652207,300.10247 74,302.2012 74,302.32422 c 0,0.12302 -8.310131,0.28852 -18.466797,0.36914 -10.156666,0.0806 -18.976879,0.46353 -19.601562,0.84961 -0.67643,0.41805 0.986109,1.86322 4.111328,3.57226 5.913019,3.23355 9.667842,5.96068 18.755859,13.62891 3.538447,2.98566 6.79262,5.00775 7.427734,4.61524 C 67.406002,324.63045 66.930758,324.17023 52.75,312.30469 48.4875,308.73811 45,305.63581 45,305.41016 45,305.18452 46.240673,305 47.755859,305 c 2.610977,0 11.394225,5.81605 21.595703,14.29883 5.338961,4.43947 8.440696,6.2429 9.285157,5.39844 0.799739,-0.79974 1.224821,-0.42935 -11.994141,-10.4961 -5.270937,-4.01402 -9.845603,-7.71909 -10.164062,-8.23437 -0.335797,-0.54336 1.055644,-0.7797 3.310546,-0.5625 3.175518,0.30586 5.887911,2.04359 14.798829,9.48437 C 80.588744,319.89949 86.130995,324 86.904297,324 c 2.134509,0 -1.101532,-3.2326 -10.882813,-10.875 -8.430513,-6.58701 -8.460282,-6.62645 -5.257812,-6.9375 3.416578,-0.33183 3.994845,0.049 18.388672,12.15039 4.333814,3.6436 7.514657,5.62093 8.460937,5.25781 1.099998,-0.42211 -0.217869,-2.03973 -4.798828,-5.88867 C 89.341392,314.78895 84.925,311.32154 83,310 c -4.653917,-3.19497 -6.523635,-6 -4,-6 0.55,0 0.8875,0.5625 0.75,1.25 -0.164387,0.82194 1.317207,1.35113 4.326172,1.54688 3.615582,0.23518 5.586644,1.13391 9.390625,4.27734 2.647966,2.18815 5.088615,3.68787 5.423828,3.33398 0.335213,-0.35389 -0.225965,-1.1524 -1.248047,-1.77539 -3.917516,-2.38786 -6.642309,-4.82212 -6.199219,-5.53906 0.621782,-1.00606 10.870101,0.35945 11.271481,1.50195 0.5993,1.70583 1.7909,2.90831 5.28516,5.33203 1.925,1.33524 5.075,3.53739 7,4.89454 2.29667,1.61918 1.3512,0.32216 -2.75,-3.77344 -3.4375,-3.43281 -6.25,-6.37387 -6.25,-6.53711 0,-0.16323 0.70743,-0.56851 1.57227,-0.90039 2.01166,-0.77194 4.15114,0.40395 13.25585,7.28515 4.07815,3.08217 8.24423,6.20878 9.25586,6.94922 1.01164,0.74043 2.39905,1.15995 3.08399,0.93164 1.59888,-0.53296 -7.32394,-9.1476 -11.55274,-11.15429 -1.73039,-0.82113 -4.19673,-2.61382 -5.48242,-3.98243 -2.04238,-2.17399 -3.14482,-2.47532 -8.72851,-2.39062 -5.98481,0.0908 -9.497785,-0.95573 -6.63672,-1.97656 0.6974,-0.24884 3.0599,-2.06126 5.25,-4.02735 3.61412,-3.24447 3.98242,-4.02708 3.98242,-8.47265 0,-8.65501 -3.69229,-16.93237 -8.76367,-19.64649 -1.695644,-0.90747 -4.918333,-1.50388 -8.195314,-1.69922 z m -4.332032,7.66797 C 87.212843,277.13935 87,277.66336 87,279.27344 c 0,1.31653 0.319494,2.71403 0.710938,3.10547 0.391441,0.39145 1.422356,-0.23121 2.291015,-1.38282 1.089232,-1.444 2.153116,-1.87313 3.425781,-1.38476 1.332844,0.51146 1.715813,0.31676 1.38086,-0.70117 -0.258543,-0.78572 -2.089167,-1.54767 -4.136719,-1.72071 -0.823457,-0.0696 -1.464177,-0.1088 -1.962891,-0.0937 z M 207.9668,289.91797 c -1.00885,0.11211 -2.50893,1.4441 -3.33203,3.41406 -0.76573,1.83265 -2.6099,4.28872 -4.09766,5.45899 -1.48775,1.17026 -2.41606,2.59588 -2.0625,3.16796 0.35356,0.57208 1.05301,1.04102 1.55273,1.04102 1.164,0 8.97266,-10.30583 8.97266,-11.8418 0,-0.93614 -0.4279,-1.3075 -1.0332,-1.24023 z M 218,295 c -0.55,0 -1,0.45 -1,1 0,0.55 0.45,1 1,1 0.55,0 1,-0.45 1,-1 0,-0.55 -0.45,-1 -1,-1 z m -8.10742,6 c -1.03628,0 -1.2114,3.34915 -0.22656,4.33398 C 210.63138,306.29935 212,306.15146 212,305.08203 212,303.35172 210.78575,301 209.89258,301 Z m 101.37304,1.0957 c 0.74449,0.0264 1.26937,0.10726 1.39649,0.23438 0.25425,0.25425 0.32231,2.35595 0.15039,4.67187 l -0.3125,4.21094 -3.79492,-4.35547 -3.79492,-4.35742 3.64453,-0.31641 c 1.00243,-0.087 1.96649,-0.11424 2.71093,-0.0879 z m -281.603511,0.95313 c -0.384393,-0.0587 -0.743494,-0.0428 -1.064453,0.0527 -0.427945,0.12743 -0.787158,0.39543 -1.044922,0.8125 -0.310886,0.50302 1.125481,1.95133 3.191407,3.2168 4.921836,3.01485 20.529259,15.65954 21.554687,17.46289 0.843258,1.4831 3.701172,1.96267 3.701172,0.62109 0,-0.77911 -11.445126,-10.64502 -17.353516,-14.95898 -1.690335,-1.23419 -4.042212,-3.37169 -5.226562,-4.75 -1.227593,-1.42864 -2.604633,-2.28103 -3.757813,-2.45703 z M 184,303.18555 c -3.025,-0.0251 -6.4,0.34176 -7.5,0.81445 -2.05483,0.88299 -1.91373,0.94833 3.22656,1.49023 1.22449,0.12909 3.24949,0.94845 4.5,1.82032 3.32176,2.31598 5.56694,2.22511 3.42774,-0.13867 -2.09547,-2.31546 -2.07845,-2.91427 0.0957,-3.48243 0.9625,-0.25153 -0.725,-0.4788 -3.75,-0.5039 z m -161.5,0.27734 -7.25,0.35156 C 9.8234033,304.07665 8,304.52071 8,305.58203 8,306.36814 8.9611781,307 10.158203,307 c 2.299685,0 8.868997,4.62487 18.34375,12.91602 C 33.984847,324.71397 37,326.1852 37,324.06055 c 0,-0.51721 -3.9375,-4.17665 -8.75,-8.13086 -8.983937,-7.3817 -10.939886,-9.61569 -7.634766,-8.72461 2.515783,0.67828 22.417166,15.71702 23.078125,17.43945 C 44.185041,325.92583 47,326.61763 47,325.45703 47,324.52806 36.550316,314.77034 29.357422,308.98242 Z M 140.59375,307 h 3.54297 c 2.82562,0 3.77744,0.51522 4.70312,2.54688 0.63829,1.40086 1.16016,3.20087 1.16016,4 0,2.33503 -1.33768,1.71573 -5.5,-2.54688 z m 84.28906,0 c -0.55,0 -0.72273,0.45 -0.38281,1 0.33992,0.55 1.06719,1 1.61719,1 0.55,0 0.72273,-0.45 0.38281,-1 -0.33992,-0.55 -1.06719,-1 -1.61719,-1 z M 7.984375,310.01172 c -0.2368812,-0.0722 -0.3478023,0.0197 -0.4824219,0.1543 -0.2787461,0.27875 2.2933865,3.50478 5.7167969,7.16992 3.768126,4.0342 7.024005,6.65673 8.251953,6.64453 1.572151,-0.0156 0.679745,-1.27311 -3.970703,-5.58985 -6.96711,-6.46712 -8.8049813,-8.16236 -9.515625,-8.3789 z m 168.216795,1.46094 c 0.16427,-0.16028 3.33633,1.52112 7.04883,3.73632 5.84004,3.48468 6.75,4.41687 6.75,6.91016 0,1.58497 -0.1125,2.84614 -0.25,2.80274 -1.82517,-0.57638 -3.34622,-1.35614 -3.75,-1.92188 -0.275,-0.38532 -2.3563,-1.8625 -4.625,-3.2832 -2.53382,-1.5867 -4.38497,-3.61862 -4.79883,-5.26758 -0.37008,-1.47642 -0.53927,-2.81628 -0.375,-2.97656 z m 53.29883,0.2539 1.97656,2.38672 c 1.08693,1.31274 2.61489,2.93559 3.39649,3.60547 0.78159,0.66997 1.82658,0.96651 2.32226,0.66016 1.25421,-0.77515 -0.96011,-3.20953 -4.62304,-5.08203 z m -128.16211,4.60156 c -0.29106,0.29105 0.97641,1.89924 2.81641,3.57227 2.81926,2.56344 5.8457,3.99607 5.8457,2.76758 0,-0.81824 -8.18964,-6.81231 -8.66211,-6.33985 z m 181.4668,4.56641 C 282.2773,320.88688 282,321.17555 282,321.77734 c 0,0.42756 3.88153,4.28721 8.625,8.57618 6.36412,5.75434 8.91793,7.50394 9.74414,6.67773 0.82621,-0.82621 -0.97602,-3.06171 -6.875,-8.5293 -5.28184,-4.89558 -9.1073,-7.58445 -10.68945,-7.60742 z M 251.25,321.02539 c -3.48137,-0.0398 -2.69105,1.57861 2.5,5.11719 2.6125,1.78086 5.875,4.25191 7.25,5.49219 1.375,1.24027 3.62189,3.13733 4.99414,4.21679 1.37225,1.07947 2.87403,1.73073 3.33594,1.44532 1.44548,-0.89338 -15.61053,-16.24329 -18.08008,-16.27149 z m 21.22266,0.12305 c -1.42501,0.27443 -0.66006,1.25624 3.38086,4.33789 2.87343,2.19131 5.89288,5.00447 6.70898,6.25 1.54675,2.36065 2.4375,2.8716 2.4375,1.40039 0,-0.47455 -2.40519,-3.4461 -5.34375,-6.60352 -3.53363,-3.79682 -5.9651,-5.61942 -7.18359,-5.38476 z m 20.46093,0.041 c -0.76493,0.25498 1.2669,2.56801 4.93555,5.6211 3.42932,2.85391 6.54391,5.18945 6.92188,5.18945 0.37796,0 -1.8433,-2.5308 -4.93555,-5.62305 -3.09226,-3.09226 -6.20684,-5.42585 -6.92188,-5.1875 z m -32.26757,0.004 c -2.53627,0.36443 -2.44385,0.46115 7.53906,7.87305 3.68773,2.73799 6.97636,5.41947 7.30859,5.95703 0.74185,1.20034 3.48633,1.3003 3.48633,0.12695 0,-0.46781 -2.55226,-2.83031 -5.67188,-5.25 -3.11959,-2.41969 -6.76525,-5.4386 -8.10156,-6.70703 -1.36165,-1.29247 -3.36616,-2.17161 -4.56054,-2 z M 239.04883,322 c -1.98351,0 -0.16942,1.86879 8.29492,8.54688 8.45249,6.66872 11.78756,8.36388 7.58008,3.85351 C 251.31962,330.53672 240.39063,322 239.04883,322 Z m -12.99805,1.00781 c -1.72926,-0.01 -1.79966,-0.0823 7.94922,8.38477 6.91955,6.00973 11,8.08549 11,5.59765 0,-1.35033 -17.10515,-13.97212 -18.94922,-13.98242 z m -97.91797,1.9336 c -0.33267,-0.0877 -0.54892,-0.0782 -0.625,0.0449 -0.3059,0.49496 3.61632,3.85096 8.71485,7.45703 9.93264,7.02513 13.67039,8.58744 7.5,3.13476 -5.24794,-4.63751 -13.26112,-10.0227 -15.58985,-10.63671 z m -8.34765,0.24804 c -1.64228,0.24548 0.20806,2.23876 8.81836,9.50196 5.99291,5.05529 11.23398,9.2178 11.64648,9.25 2.66856,0.20834 -0.53287,-3.72929 -8.81836,-10.84571 -6.53702,-5.61466 -10.22655,-8.1185 -11.64648,-7.90625 z m -107.000004,0.41602 c -0.669126,0.19633 1.594582,3.01748 6.1875,6.97265 5.181179,4.46175 6.745095,6.38995 6.337891,7.82227 -0.402982,1.41748 -0.146763,1.75044 1.009765,1.30664 0.976923,-0.37488 3.10101,0.86583 5.738282,3.34961 C 35.971127,348.74145 38,349.86807 38,348.35938 38,347.47707 22.451184,332.50024 17.287109,328.4082 c -2.643079,-2.09439 -4.100477,-2.92053 -4.501953,-2.80273 z m 10.591797,0.68555 c -0.370172,0.37017 4.005544,5.59298 9.724609,11.60742 C 42.47914,347.76035 46,350.56637 46,348.17969 c 0,-0.45082 -1.0125,-1.71115 -2.25,-2.80078 -1.2375,-1.08963 -3.644357,-3.53264 -5.349609,-5.42969 -6.178523,-6.87347 -14.365586,-14.31606 -15.023438,-13.6582 z m 84.951167,0.0469 c -0.25609,0.25609 0.73217,1.2979 2.19532,2.31445 1.46315,1.01655 3.39432,2.63516 4.29101,3.59766 1.68885,1.81278 3.23089,2.30669 3.12305,1 -0.0862,-1.04491 -9.03771,-7.48378 -9.60938,-6.91211 z m -11.837886,0.0723 c -0.189108,0.006 -0.333052,0.073 -0.445312,0.1914 -0.486975,0.51342 3.636699,4.87145 9.619138,10.16602 11.61663,10.2809 16.1665,11.79024 5.5586,1.84375 -9.90159,-9.28421 -13.408668,-12.24151 -14.732426,-12.20117 z M 35.767578,327 c -1.605662,0 -0.662477,2.19131 1.982422,4.60742 7.241587,6.61519 16.25,15.78861 16.25,16.54688 0,0.46555 0.962811,0.8457 2.140625,0.8457 1.659434,0 -0.304702,-2.47609 -8.730469,-11 -5.980338,-6.05 -11.220104,-11 -11.642578,-11 z m 29.148438,0 c -2.098524,0 -0.565711,1.93571 5.333984,6.73828 3.4375,2.79826 7.56783,6.47202 9.177734,8.16406 1.609903,1.69204 3.172743,2.82922 3.47461,2.52735 C 83.555532,343.7765 66.243237,327 64.916016,327 Z m 21.136718,0 c -2.261243,0 -0.812142,1.89451 4.853516,6.3457 3.248564,2.55222 7.861065,6.43189 10.25,8.6211 C 105.24511,345.71382 108,347.01245 108,345.19531 108,343.50719 88.0888,327 86.052734,327 Z m -10.804687,0.41797 c -0.399835,0.39983 3.691746,4.96917 9.091797,10.1543 9.151166,8.78694 12.391519,11.12182 11.429687,8.23632 -0.687456,-2.06237 -19.758768,-19.15334 -20.521484,-18.39062 z M 56.320312,328 C 55.593798,328 55,328.2622 55,328.58203 c 0,0.31983 3.9375,4.80989 8.75,9.97852 C 71.627734,347.02126 75,349.59777 75,347.1543 75,345.71665 57.722349,328 56.320312,328 Z m -10.138671,0.0391 c -1.020604,0.0243 2.392503,3.95316 8.689453,10 10.128708,9.72642 15.921422,13.68188 9.095703,6.21094 -7.989328,-8.74454 -16.221058,-16.24814 -17.785156,-16.21094 z m 130.033199,0.13477 7.47071,4.53515 c 7.05476,4.28304 9.34991,6.58955 7.94922,7.99024 -0.33712,0.33712 -2.89904,-0.80714 -5.69141,-2.54297 -2.79238,-1.736 -5.49631,-3.15625 -6.00977,-3.15625 -1.85314,0 -0.87761,1.70365 1.62891,2.8457 3.77083,1.7181 9.43747,6.46456 9.4375,7.9043 6e-5,2.65358 -7.56406,-0.32939 -12.76172,-5.0332 C 177.19519,339.77257 175.76632,339 175.0625,339 c -0.88085,0 -1.07511,-0.81603 -0.62305,-2.61719 0.36121,-1.43917 0.90919,-3.87405 1.2168,-5.41211 z M 119.83008,335 c -1.77867,0 -0.42453,1.70008 4.16992,5.23828 2.475,1.906 4.72339,3.2723 4.99609,3.03516 C 129.65126,342.7037 121.1164,335 119.83008,335 Z m 155.48242,4 c -2.51419,0 -1.286,2.68572 2.6875,5.87891 2.2,1.76797 4,3.75322 4,4.41015 0,0.65693 1.6875,2.82587 3.75,4.82032 6.77221,6.54844 7.2767,4.67389 0.75,-2.78711 -2.475,-2.82929 -4.5,-5.49853 -4.5,-5.92969 C 282,344.06316 276.70299,339 275.3125,339 Z m 7.35742,0.0879 c -0.46605,-0.0349 -0.66532,0.36257 -0.65625,1.16211 0.008,0.6875 2.26938,3.05 5.02539,5.25 2.75601,2.2 7.58765,6.12003 10.73633,8.71094 8.21514,6.75988 9.83627,5.89139 2.18359,-1.16992 -3.55215,-3.27764 -6.92998,-5.9776 -7.50586,-6 C 291.87725,347.01857 289.64824,345.2 287.5,343 c -2.53441,-2.59547 -4.05333,-3.85398 -4.83008,-3.91211 z M 262.10156,340 c -2.62901,0 -0.37749,3.00702 7.66211,10.23438 8.4224,7.57148 10.42405,8.79031 8.38086,5.10156 C 276.67609,352.68482 263.40661,340 262.10156,340 Z M 0.52539062,340.13281 c -0.18505773,0.0714 -0.30022942,0.2493 -0.36328124,0.52735 -0.18570921,0.81892 0.44584508,2.35499 1.40429682,3.41406 0.9584525,1.05908 2.9106338,1.91815 4.3378907,1.91016 C 8.425548,345.96983 8.386303,345.87335 4.5,342.57031 2.2591733,340.66578 1.0805639,339.91864 0.52539062,340.13281 Z M 239.03711,341 c -2.50665,0 -1.54164,2.01719 2.27734,4.75977 2.33793,1.67898 6.17795,4.92133 8.53321,7.20703 3.85094,3.73721 6.36392,4.82619 6.26562,2.71289 C 256.0649,354.64007 240.19815,341 239.03711,341 Z m 11.73828,0 c -2.28508,0 -2.30258,1.68834 -0.0254,2.45508 0.9625,0.32407 4.63779,3.2784 8.16797,6.5664 9.15368,8.5257 9.95007,7.40615 1.08203,-1.52148 -4.09747,-4.125 -8.24835,-7.5 -9.22461,-7.5 z m -33.86719,1 c -1.79647,0 -0.65897,1.4533 5.0918,6.50781 3.025,2.65876 6.09323,5.66448 6.81836,6.67969 0.72513,1.0152 1.80002,1.54739 2.38867,1.18359 C 232.35388,355.6623 218.76021,342 216.9082,342 Z m 9.65039,0 c -2.68991,0 -1.71595,1.50116 2.83985,4.38086 2.4187,1.52884 5.2312,3.53786 6.25,4.46484 1.0188,0.92697 3.16671,2.70459 4.77344,3.94922 1.97066,1.52655 3.25091,1.93268 3.93359,1.25 0.55658,-0.55661 0.81646,-1.16772 0.57812,-1.35937 C 237.77522,348.92936 227.73816,342 226.55859,342 Z m -141.505856,3.13477 c -0.283577,-0.036 -0.539671,0.0201 -0.71875,0.19921 -0.293482,0.29349 -0.237533,1.01302 0.125,1.59961 0.814708,1.31822 2.541016,1.40297 2.541016,0.125 0,-0.88489 -1.096534,-1.81573 -1.947266,-1.92382 z M 175.49023,346 c -1.28271,0 0.82472,2.17359 4.3418,4.47852 4.57398,2.99756 6.06809,3.17346 3.57617,0.41992 C 181.63903,348.94353 176.88106,346 175.49023,346 Z M 3.0761719,347.99219 c -0.6180863,-0.008 -0.8434362,0.38937 -0.4570313,1.25781 0.8827508,1.98397 22.4578674,20.18045 24.7812504,20.90039 1.154286,0.35768 2.212109,0.6952 2.349609,0.75 0.1375,0.0548 0.25,-0.2541 0.25,-0.68555 0,-0.43145 -2.5875,-2.95263 -5.75,-5.60351 -3.1625,-2.65088 -5.9878,-5.75733 -6.279297,-6.90235 -0.30274,-1.18917 -1.709587,-2.39659 -3.279297,-2.8164 -1.511415,-0.40421 -4.32518,-2.12101 -6.253906,-3.81446 -2.2087024,-1.93925 -4.3311843,-3.07334 -5.3613281,-3.08593 z m 57.8398441,0.13086 c -0.347396,-0.0143 -0.742579,0.0489 -1.103516,0.19336 -0.797733,0.31922 -0.561427,0.55744 0.603516,0.60547 1.054166,0.0434 1.644791,-0.19311 1.3125,-0.5254 -0.166146,-0.16612 -0.465104,-0.25913 -0.8125,-0.27343 z m -42.896485,0.9414 c -0.720627,-0.18139 -1.135654,0.0828 -0.853515,0.89063 0.183333,0.52491 5.16833,5.47491 11.078125,11 C 34.153936,366.48017 39.704587,371 40.578125,371 43.11951,371 42.05574,369.75706 32,360.98242 26.775,356.42308 21.694863,351.86131 20.710938,350.8457 c -0.944007,-0.97441 -1.970779,-1.59985 -2.691407,-1.78125 z m 11.533203,1.95703 C 29.173221,351.04063 29,351.31598 29,351.83008 c 0,0.45676 1.9125,2.2373 4.25,3.95703 2.3375,1.71972 7.175,5.82736 10.75,9.12695 3.816174,3.52219 7.429017,6.01747 8.75,6.04297 3.089167,0.0597 2.846911,-0.43411 -1.5,-3.05469 -2.0625,-1.24341 -7.415924,-5.55558 -11.896484,-9.58203 -5.674847,-5.0997 -8.662241,-7.35625 -9.800782,-7.29883 z m 11.222657,0.006 C 40.247548,350.96723 40,351.2574 40,351.86914 c 0,0.4778 4.508063,4.9778 10.017578,10 7.929836,7.22844 10.638852,9.13086 13,9.13086 3.808176,0 3.758237,-0.5466 -0.238281,-2.61328 -1.77152,-0.91609 -5.70902,-3.98937 -8.75,-6.82813 -7.55886,-7.0562 -11.670378,-10.35509 -13.253906,-10.53125 z m 23.927734,0.42774 c -0.319156,-0.0587 -0.578557,-0.0321 -0.769531,0.0859 -0.843943,0.52158 2.054596,3.91107 9.078125,10.61328 C 82.236974,370.9565 86,373.58431 86,371.22266 c 0,-0.71864 -8.499173,-9.18666 -17.164062,-17.10157 -1.692939,-1.54641 -3.175345,-2.48996 -4.132813,-2.66601 z m 11.330078,0.67383 c -1.413214,-0.3191 -0.527206,1.56944 2.496094,4.11914 2.121198,1.7889 7.032498,6.05061 10.914062,9.4707 C 96.163167,371.63826 99,373.20738 99,371 c 0,-0.55 -0.3375,-1.00286 -0.75,-1.00586 -0.4125,-0.003 -4.575,-3.43273 -9.25,-7.62305 -4.675,-4.19031 -9.526586,-8.29964 -10.78125,-9.13086 -0.987623,-0.65431 -1.714475,-1.00496 -2.185547,-1.11132 z M 96.5,352.72656 l 2,2.25782 c 1.1,1.24211 4.475,3.96484 7.5,6.05078 3.025,2.08594 7.075,5.16305 9,6.83789 3.42331,2.97842 7,4.08341 7,2.16211 0,-0.53065 -1.0125,-1.50487 -2.25,-2.16602 -1.2375,-0.66115 -5.4,-3.55031 -9.25,-6.41992 -3.85,-2.86961 -8.575,-6.00687 -10.5,-6.9707 z m -95.8359375,2.63282 c -0.27548421,0.0297 -0.41761403,0.26323 -0.48242188,0.6621 -0.21719898,1.33679 1.68886948,3.86326 5.99999998,7.95118 3.4750778,3.29516 7.1058594,5.99976 8.0683594,6.00976 0.9625,0.01 1.75,-0.15218 1.75,-0.35937 0,-0.2072 -3.4875,-3.79324 -7.75,-7.96875 -4.7334967,-4.63689 -6.7594849,-6.38424 -7.5859375,-6.29492 z m 170.9414075,0.33789 c 0.98407,-0.10913 2.87638,0.87136 6.76367,3.36718 3.64727,2.34173 6.63086,4.90873 6.63086,5.70313 0,0.79439 -1.18964,2.8585 -2.64258,4.58789 -1.45293,1.7294 -3.47586,3.73182 -4.49609,4.44922 -1.64351,1.15568 -1.97906,0.98469 -2.94141,-1.5 -0.59739,-1.5424 -1.9475,-4.46799 -3.00195,-6.50196 -2.04519,-3.94508 -2.42133,-7.45809 -1.0332,-9.64843 0.16672,-0.26308 0.39267,-0.42066 0.7207,-0.45703 z M 59.941406,358 c -0.582459,0 -0.781325,0.45 -0.441406,1 0.339919,0.55 0.816053,1 1.058594,1 C 60.801135,360 61,359.55 61,359 c 0,-0.55 -0.476135,-1 -1.058594,-1 z m 34.480469,0.9707 c -0.56259,-0.13513 0.430855,0.98419 3.078125,3.50782 2.75,2.62156 6.0731,5.612 7.38477,6.64453 2.16582,1.70488 5.11523,2.53251 5.11523,1.43554 0,-0.59682 -10.759146,-8.78951 -14.5,-11.04101 -0.529454,-0.31866 -0.890595,-0.50183 -1.078125,-0.54688 z M 247.30469,359 c -2.20873,0 -1.44129,2.74615 0.94531,3.38281 1.2375,0.33012 6.3,3.93951 11.25,8.01953 10.56622,8.70917 16.50983,10.6707 7.07227,2.33399 C 259.25499,366.27257 249.05447,359 247.30469,359 Z m 11.71484,0 c -2.4751,0 -0.55896,2.11215 5.23828,5.77344 3.44204,2.17385 8.95454,6.25952 12.25,9.08008 3.29545,2.82057 6.0907,5.13171 6.21094,5.13671 0.68966,0.028 -1.28744,-3.7246 -2.62891,-4.99023 -6.61262,-6.23873 -18.91958,-15 -21.07031,-15 z m 12.86524,0 c -2.05754,0 -0.58587,1.78998 3.69531,4.49609 2.51928,1.59242 5.10678,3.59596 5.75,4.45118 0.64322,0.85522 3.58036,3.69069 6.52734,6.30273 5.06456,4.48892 8.14258,5.92472 8.14258,3.79883 0,-0.52267 -0.62109,-1.31017 -1.38086,-1.75 -2.62076,-1.51714 -10.07453,-7.80717 -13.13086,-11.08203 C 278.57296,362.09302 273.79483,359 271.88477,359 Z m -35.56446,0.27148 c -0.24439,-0.01 -0.32265,0.12715 -0.20898,0.42969 0.21406,0.56974 3.76367,3.74859 7.88867,7.06445 4.125,3.3159 8.625,7.15187 10,8.5254 1.375,1.37352 3.4,2.53382 4.5,2.57812 1.58232,0.0637 1.13527,-0.69747 -2.14258,-3.64453 -8.51383,-7.65468 -18.32638,-14.8861 -20.03711,-14.95313 z m -11.64453,0.1875 c -0.34165,-0.0176 -0.59808,0.0649 -0.77539,0.24219 -0.70925,0.70925 0.31669,1.82536 3.2832,3.57031 2.3739,1.39636 6.9305,4.83059 10.125,7.63282 5.23529,4.59241 8.77378,6.37229 8.64258,4.3457 -0.0596,-0.92114 -8.59863,-7.91892 -15.73633,-12.89648 -2.72389,-1.89954 -4.51411,-2.8417 -5.53906,-2.89454 z M 218,360.67383 c 0,0.48441 1.0125,1.73329 2.25,2.77344 1.2375,1.04016 4.44974,3.85269 7.13867,6.25 2.68894,2.39732 5.12579,4.12031 5.41602,3.83007 0.29024,-0.29023 0.34049,-0.65734 0.11133,-0.8164 -0.22917,-0.15906 -3.67852,-3.13093 -7.66602,-6.60352 -3.9875,-3.47258 -7.25,-5.91799 -7.25,-5.43359 z M 209.17773,361 c -0.99985,0 0.84807,2.49016 4.82227,6.5 6.81393,6.87504 7,7.02287 7,5.58008 C 221,371.39712 210.82458,361 209.17773,361 Z m -146.710933,0.19922 c -0.331447,0.33145 1.340195,2.43502 3.714844,4.67578 6.002955,5.66451 7.344562,5.17854 1.589843,-0.57617 -2.585965,-2.58597 -4.97324,-4.43105 -5.304687,-4.09961 z m 62.197263,4.21289 c -0.22808,-0.0336 -0.39318,-0.017 -0.4707,0.0606 -0.29434,0.29434 0.48981,1.62588 1.74219,2.95898 1.99027,2.11854 5.07669,2.55213 5.05859,0.71094 -0.008,-0.83996 -4.7335,-3.49531 -6.33008,-3.73047 z M 0.32226562,366.20508 C 0.11612773,366.17895 0,366.31951 0,366.63281 c 0,0.56834 0.29934895,1.33451 0.66601562,1.70117 0.36666668,0.36667 0.89942708,0.43261 1.18359378,0.14844 0.2841667,-0.28416 -0.015182,-1.04838 -0.6660156,-1.69922 -0.35878189,-0.35878 -0.65519009,-0.55199 -0.86132818,-0.57812 z M 162.01172,374.33984 c -0.6133,-0.034 -1.01172,0.0256 -1.01172,0.2168 0,0.27898 1.0125,0.91469 2.25,1.41211 2.95141,1.18632 6.43909,1.2966 5.19922,0.16406 -0.8173,-0.74655 -4.59759,-1.69087 -6.4375,-1.79297 z m -6.07422,0.77539 c -0.7992,-0.10215 -2.32705,-0.0342 -4.80273,0.17579 -3.50111,0.29691 -6.87611,1.08336 -7.5,1.74804 -0.88232,0.94001 0.27909,1.08981 5.23046,0.66992 3.50111,-0.29691 6.87611,-1.08336 7.5,-1.74804 0.44116,-0.47001 0.37147,-0.74355 -0.42773,-0.84571 z" />
  </g>
</svg>
