<?xml version="1.0" encoding="UTF-8" standalone="no"?>
<!-- Created with Inkscape (http://www.inkscape.org/) -->

<svg
   version="1.1"
   id="svg2"
   width="335"
   height="396"
   viewBox="0 0 335 396"
   sodipodi:docname="22.svg"
   inkscape:version="1.1.2 (0a00cf5339, 2022-02-04)"
   xmlns:inkscape="http://www.inkscape.org/namespaces/inkscape"
   xmlns:sodipodi="http://sodipodi.sourceforge.net/DTD/sodipodi-0.dtd"
   xmlns="http://www.w3.org/2000/svg"
   xmlns:svg="http://www.w3.org/2000/svg">
  <defs
     id="defs6" />
  <sodipodi:namedview
     id="namedview4"
     pagecolor="#505050"
     bordercolor="#eeeeee"
     borderopacity="1"
     inkscape:pageshadow="0"
     inkscape:pageopacity="0"
     inkscape:pagecheckerboard="0"
     showgrid="false"
     inkscape:zoom="1.3374318"
     inkscape:cx="71.779363"
     inkscape:cy="259.07864"
     inkscape:window-width="1920"
     inkscape:window-height="1043"
     inkscape:window-x="0"
     inkscape:window-y="0"
     inkscape:window-maximized="1"
     inkscape:current-layer="g8" />
  <g
     inkscape:groupmode="layer"
     inkscape:label="Image"
     id="g8">
    <path
       id="path12"
       style="fill:#000000"
       d="m 17.066406,12 0.476563,7.205078 c 0.262059,3.962695 0.0507,8.575195 -0.470703,10.25 C 16.550858,31.129884 15.841286,41.5 15.496094,52.5 c -0.345191,11 -1.009133,27.2 -1.47461,36 -0.465476,8.8 -0.893231,28.375 -0.951172,43.5 -0.05794,15.125 -0.362303,33.35 -0.677734,40.5 -1.681703,38.11984 -2.15347,67.81748 -1.779297,112 0.402882,47.57241 0.702351,58.27429 1.939453,69.25 0.325458,2.8875 0.98469,5.25 1.464844,5.25 0.49169,0 0.66,-19.98289 0.386719,-45.75 -0.332242,-31.32627 -0.133275,-47.64164 0.628906,-51.75 0.612214,-3.3 1.311177,-17.7 1.554688,-32 0.243511,-14.3 0.6019,-30.5 0.796875,-36 0.194974,-5.5 0.653456,-21.475 1.017578,-35.5 0.364123,-14.025 0.943288,-31.125 1.287109,-38 0.343822,-6.875 0.534139,-14.8625 0.421875,-17.75 -0.145138,-3.733022 0.169677,-5.254735 1.091797,-5.265625 1.029913,-0.01216 1.037843,-0.178422 0.03906,-0.8125 C 20.315541,95.583573 20.110121,92.757021 20.458984,85.435547 20.719384,79.970595 20.944318,75.05 20.960938,74.5 c 0.01662,-0.55 -0.1558,-2.35 -0.384766,-4 -0.697019,-5.023064 -0.695225,-10.495616 0.0078,-22 0.36978,-6.05 0.867616,-16.0625 1.105469,-22.25 0.237853,-6.1875 0.67044,-11.25 0.962891,-11.25 0.292452,0 1.712939,0.929144 3.15625,2.064453 2.482257,1.952544 2.694103,1.968975 3.908203,0.308594 C 30.422785,16.407617 31,14.803473 31,13.808594 31,12.236535 30.08771,12 24.033203,12 Z m 25.898438,0.28125 c -3.18942,9.5e-5 -5.496538,0.07024 -6.013672,0.234375 -4.708381,1.494382 0.316225,2.462512 15.576172,3.001953 C 61.312684,15.828141 70.525,16.510405 73,17.033203 c 2.475,0.522799 6.075,0.873841 8,0.78125 4.225335,-0.203235 109.3839,1.23542 109.64648,1.5 0.10149,0.102255 8.88544,0.05865 19.51954,-0.0957 29.84251,-0.433156 98.92142,-0.3527 112.58398,0.130859 L 335,19.783203 v -2.931641 -2.933593 l -30.75,0.533203 C 231.67548,15.710301 73.49615,15.043301 70.945312,13.466797 70.037303,12.905616 52.533103,12.280964 42.964844,12.28125 Z m -9.076172,3.119141 C 32.626062,15.700876 31,16.982685 31,17.984375 c 0,0.406386 1.125,0.522614 2.5,0.259766 2.614562,-0.499805 3.232533,-1.674165 1.457031,-2.771485 -0.266542,-0.164732 -0.647489,-0.172457 -1.068359,-0.07226 z m 7.027344,2.722656 c -0.347396,-0.01431 -0.742579,0.04892 -1.103516,0.193359 -0.797733,0.319226 -0.561427,0.557489 0.603516,0.605469 1.054166,0.04342 1.644791,-0.193099 1.3125,-0.525391 -0.166146,-0.166147 -0.465104,-0.259128 -0.8125,-0.273437 z m 236.728514,6.021484 c -1.02838,-0.02228 -2.29562,0.03125 -3.96484,0.109375 -6.58387,0.308133 -6.95511,0.46633 -10.75,4.576172 C 260.76784,31.171343 259,33.435054 259,33.861328 c 0,0.426274 0.69033,3.097276 1.5332,5.935547 1.13566,3.824181 2.55989,5.986873 5.5,8.349609 3.67903,2.956543 3.96873,3.558404 3.98242,8.271485 0.0166,5.714219 2.3019,16.403419 4.33985,20.292969 1.20819,2.305925 1.08002,3.043599 -1.25391,7.179687 -2.36918,4.198545 -2.62908,4.386269 -2.9082,2.109375 -0.60488,-4.934269 -5.38145,-13.345265 -10.81055,-19.037109 -4.86218,-5.097488 -6.12335,-5.876429 -10.47265,-6.47461 -2.71973,-0.374056 -7.69199,-0.362463 -11.05078,0.02734 -5.33019,0.618632 -6.52449,1.172892 -9.39063,4.347656 -1.80609,2.000577 -5.57629,6.15428 -8.37695,9.232422 -5.16993,5.682142 -6.0278,8.286791 -3.98828,12.097656 0.83149,1.553662 0.79483,2.250265 -0.14649,2.832032 -0.68689,0.424546 -0.97528,1.487256 -0.64062,2.359375 0.38317,0.998506 -0.14159,1.986818 -1.41797,2.669922 -1.59831,0.855388 -1.89197,1.69871 -1.38867,3.990234 0.35106,1.598337 0.2749,3.480718 -0.16993,4.181638 -0.44483,0.70092 -0.81897,1.72344 -0.83007,2.27344 -0.0111,0.55021 -1.36833,0.80157 -3.01563,0.55859 -4.11365,-0.60679 -6.95678,-0.39277 -14.26367,1.07227 -4.80701,0.96381 -7.0236,0.98649 -9.5,0.10156 -3.65682,-1.30676 -14.24524,-2.75387 -22.73047,-3.10742 -3.74352,-0.15598 -3.84617,-1.61745 -0.25,-3.558594 4.09524,-2.210533 14.80002,-12.629896 16.50586,-16.066406 2.23481,-4.50216 0.9146,-12.361997 -2.8125,-16.746094 -5.84499,-6.875302 -17.11278,-11.966569 -26.83203,-12.125 C 138.32502,54.461251 132.70079,55.17025 128,57.224609 c -5.13916,2.245939 -11,8.842824 -11,12.382813 0,1.941285 -0.51804,2.393937 -2.75,2.398437 -1.5125,0.0031 -4.40841,0.466274 -6.43555,1.029297 C 102.1529,74.607606 96.073233,83 100.5957,83 c 2.01651,0 7.58249,3.903897 6.97266,4.890625 -0.25073,0.405699 -2.95599,0.606155 -6.01172,0.445313 C 98.500911,88.175093 96,88.454052 96,88.955078 c 0,1.627742 4.01305,2.240128 10.07031,1.53711 3.8491,-0.446737 5.92969,-0.327405 5.92969,0.341796 0,1.81107 -4.03726,2.398163 -11.62109,1.6875 C 95.315429,92.046999 93,92.169236 93,92.914062 c 0,0.596927 0.7875,1.093141 1.75,1.101563 0.9625,0.0084 2.419638,0.439443 3.238281,0.957031 1.238306,0.782921 0.944213,1.501528 -1.75,4.28125 C 94.457138,101.09158 93,102.98824 93,103.46875 c 0,0.48051 -0.625071,1.58481 -1.388672,2.45313 -0.763601,0.8683 -2.653954,4.95312 -4.201172,9.07812 -2.471296,6.58866 -2.81009,8.83663 -2.78125,18.5 0.02424,8.12338 0.581127,12.88423 2.126953,18.20703 C 88.922038,159.16592 97.461876,176 99.080078,176 c 1.890102,0 0.816723,3.35197 -2.158203,6.74023 -2.120582,2.41521 -2.754156,3.82788 -2.041016,4.54102 1.304584,1.30459 3.692008,-0.55406 5.699221,-4.43555 l 1.44726,-2.80078 3.48633,1.66406 c 4.04788,1.9303 4.17967,2.35358 1.48633,4.79102 -2.06563,1.86937 -2.69827,4.5 -1.08203,4.5 0.50502,0 1.63002,0.27357 2.5,0.60742 1.10318,0.42333 1.58203,0.0276 1.58203,-1.30859 0,-3.31414 2.19601,-5.23306 4.82031,-4.21289 1.85237,0.72008 2.16925,1.35609 1.57617,3.1582 -1.12433,3.41638 -1.02574,6.00795 0.24414,6.45117 0.6382,0.22274 1.5315,-1.27241 2.03126,-3.39843 0.70707,-3.00813 1.40393,-3.8514 3.35937,-4.05665 4.29526,-0.45085 5.38269,0.97773 3.97852,5.23243 -0.88042,2.6677 -0.92061,4.01689 -0.14063,4.79687 0.77999,0.77999 1.51259,0.0597 2.60742,-2.56055 0.83762,-2.00471 1.52344,-4.16897 1.52344,-4.80859 0,-0.7874 1.21103,-0.96263 3.75,-0.54297 2.0625,0.34091 5.14614,0.62486 6.85352,0.63086 2.99072,0.0106 3.18172,0.27702 5.21484,7.26172 2.24281,7.70508 2.64867,11.06426 2.36133,19.56836 L 148,223.13672 l -4.25,-0.46875 c -6.67151,-0.73572 -8.9285,-2.14131 -13.75,-8.55859 l -4.5,-5.98829 -6,-0.0547 c -6.33588,-0.0581 -27.307996,3.14984 -31.830078,4.86914 -5.804703,2.20694 -0.851958,11.82184 8.080078,15.68554 1.7875,0.77321 3.25,1.90176 3.25,2.50782 0,0.60606 1.52063,4.34831 3.37891,8.3164 1.85827,3.9681 3.71698,8.3038 4.13086,9.63477 0.95998,3.08708 3.64708,6.99712 9.61523,13.98633 l 4.75391,5.56445 -3.93946,5.20508 C 114.77287,276.69861 113,279.93068 113,281.01953 113,282.11983 112.32887,283 111.48828,283 c -2.32924,0 -8.43657,10.33994 -9.14062,15.47656 -0.414,3.02042 -1.10511,4.52344 -2.08204,4.52344 -1.578158,0 -2.467261,-0.38559 -21.205073,-9.19141 -6.84121,-3.21502 -14.94121,-6.54076 -18,-7.39257 C 58.001757,285.5642 54.15,284.48046 52.5,284.00781 50.85,283.53516 44.325,281.7167 38,279.9668 31.675,278.21691 25.610498,276.31305 24.523438,275.73633 21.895008,274.34186 16,273.04235 16,273.85742 c 0,1.68443 13.749012,6.95991 28,10.74414 5.996505,1.59232 17.174353,5.5687 23.5,8.35938 2.2,0.97057 5.785697,2.34279 7.96875,3.05078 2.183053,0.70799 8.708053,3.39208 14.5,5.96484 10.68307,4.74539 12.39342,6.43506 10.09961,9.98047 -1.041736,1.61014 -6.267361,-0.22111 -28.56836,-10.01562 -2.670608,-1.17292 -11.92329,-4.786 -17.5,-6.83399 -2.475,-0.90891 -4.95,-1.91808 -5.5,-2.24219 -0.55,-0.32412 -3.7,-1.38449 -7,-2.35742 -3.3,-0.97292 -7.983712,-2.40373 -10.408203,-3.17969 -2.898496,-0.92766 -4.745893,-1.07442 -5.394531,-0.42578 -0.648637,0.64864 0.0049,1.19785 1.908203,1.60157 6.918906,1.46759 22.620242,6.97246 35.25,12.35937 4.04509,1.72533 7.945131,3.13672 8.667969,3.13672 0.722836,0 2.589413,0.6412 4.146484,1.42383 3.44236,1.73023 9.875551,4.65063 17.609375,7.99414 5.456161,2.35882 5.742094,2.65542 5.109375,5.29101 -0.36862,1.53549 -0.768125,2.91627 -0.888672,3.06836 -0.479625,0.60511 -16.78122,-5.9541 -30.285156,-12.18554 C 59.358355,305.96639 52.696342,303 52.410156,303 c -0.286185,0 -2.524122,-0.9119 -4.972656,-2.02734 -5.863292,-2.67103 -24.450644,-8.97653 -26.404297,-8.95704 -2.600279,0.026 0.694096,1.70453 7.966797,4.0586 3.575,1.15718 7.85,2.69518 9.5,3.41797 1.65,0.72278 5.25,2.30393 8,3.51562 2.75,1.21168 6.35,2.76602 8,3.45313 2.706638,1.12712 7.418439,3.20869 16,7.06836 1.65,0.74211 5.25,2.3175 8,3.5 10.349472,4.45026 17.5,8.16948 17.5,9.10351 0,0.5315 -0.673111,2.26791 -1.496094,3.85938 -0.890709,1.72244 -1.111849,3.13204 -0.544922,3.48242 1.805259,1.11572 4.22311,-4.42228 6.628906,-15.18359 4.2388,-18.96044 5.26338,-22.36579 8.11719,-27.00977 1.5376,-2.50212 3.96003,-6.5564 5.38476,-9.01172 4.22802,-7.28639 8.52593,-10.69889 13.32618,-10.58008 l 4.08398,0.10157 -3.25,-1.39844 c -4.10182,-1.76452 -4.34246,-3.7919 -0.3457,-2.91406 1.60377,0.35225 3.18521,0.18759 3.52929,-0.36914 C 132.32197,265.67194 128.72326,264 124.74023,264 c -2.25863,0 -4.05863,-0.75154 -5.38867,-2.25 -4.1877,-4.71796 -13.84373,-21.92306 -16.88672,-30.08789 -1.59723,-4.2856 -2.4,-5.10051 -7.035152,-7.15039 -5.03509,-2.22676 -7.792081,-5.76071 -5.779297,-7.4082 2.801737,-2.29327 18.938909,-5.83629 27.417969,-6.01954 l 6.56836,-0.14062 4.93164,5.96094 c 2.71245,3.27903 5.89439,7.18885 7.07031,8.6875 2.03588,2.59464 8.36133,25.70551 8.36133,30.54882 0,1.17587 1.44754,4.43722 3.2168,7.24805 5.83551,9.27092 3.7071,17.91522 -5.33399,21.66016 -2.00512,0.83055 -2.88281,1.90009 -2.88281,3.51367 0,1.27582 -0.47369,2.61284 -1.05273,2.9707 -0.57905,0.35787 -0.8706,1.1715 -0.64844,1.8086 0.22217,0.6371 -0.65118,2.5082 -1.93945,4.1582 -1.28829,1.65 -3.13226,4.07286 -4.09961,5.38477 -0.96735,1.31192 -3.50417,4.34942 -5.63672,6.75 -2.13255,2.40059 -3.57456,4.36523 -3.20313,4.36523 0.37143,0 1.67816,-1.16469 2.90235,-2.58789 l 2.22461,-2.58789 23.9082,9.625 c 13.14863,5.29398 24.48467,9.40401 25.1914,9.13281 0.81474,-0.31265 1.65999,0.86349 2.3125,3.21289 1.62064,5.83526 1.11261,7.64837 -1.50976,5.38672 -0.5225,-0.45063 -4.32422,-2.07294 -8.44922,-3.60352 -6.75781,-2.50747 -31.10743,-13.38561 -38.38477,-17.14843 -1.587,-0.82082 -3.162,-1.19169 -3.5,-0.82422 -0.33801,0.36747 -0.009,0.88484 0.73243,1.14844 0.74171,0.26361 7.90327,3.80022 15.91406,7.86132 8.0108,4.0611 15.11079,7.38477 15.77734,7.38477 1.85511,0 12.19086,4.75497 12.92774,5.94727 0.35802,0.5793 1.43467,1.05273 2.39258,1.05273 2.75074,0 7.12381,2.36665 7.13281,3.85938 0.01,1.70375 -3.03672,1.00846 -10.45508,-2.38477 C 168.562,338.11376 165.51098,337 164.75586,337 c -0.75512,0 -2.24683,-0.66124 -3.31445,-1.46875 -1.06762,-0.8075 -2.54062,-1.4825 -3.27344,-1.5 -1.437,-0.0343 -12.66793,-4.76736 -20.5,-8.64063 C 135.01028,324.07628 132.37968,323 131.82227,323 c -0.55741,0 -2.35438,-0.95542 -3.99415,-2.12305 -2.05634,-1.46425 -3.30314,-1.80232 -4.01757,-1.08789 -1.53048,1.53048 -0.24812,2.91496 3.95312,4.26563 2.05484,0.66061 9.91988,3.86313 17.47656,7.11719 7.55669,3.25407 15.65669,6.49794 18,7.20703 9.02013,2.72949 19.72074,8.08044 19.74024,9.87109 0.0187,1.71576 -2.00953,2.38892 -3.30274,1.0957 -1.66213,-1.66213 -8.68367,-4.14718 -9.22851,-3.26562 -0.32737,0.52969 1.91355,2.11243 4.97851,3.51562 3.06496,1.40318 5.57227,2.97866 5.57227,3.50196 0,1.31761 -5.20052,3.17804 -5.91797,2.11718 -0.78944,-1.16731 -17.15147,-8.66502 -36.58203,-16.76367 -17.71008,-7.38156 -21.5,-8.70363 -21.5,-7.49609 0,1.14588 5.41981,3.5911 19.1875,8.6543 6.53155,2.40203 13.54853,5.25535 15.59375,6.34179 2.04522,1.08645 7.66748,3.85493 12.49414,6.15039 4.82666,2.29546 9.01529,4.56059 9.30859,5.03516 1.00583,1.62746 5.13899,0.86275 8.81641,-1.63281 3.49448,-2.37142 3.80381,-2.41557 6.16992,-0.86524 1.37023,0.89781 2.76165,1.3614 3.0918,1.03125 0.33015,-0.33015 1.49771,-0.11978 2.59375,0.4668 1.09604,0.58659 3.07574,1.18662 4.40039,1.33203 3.10993,0.34138 3.31741,0.59358 4.01758,4.9082 0.63693,3.92499 0.4337,4.04401 -6.17383,3.66016 -2.9958,-0.17404 -2.99639,-0.17123 -0.78906,1.42383 1.40768,1.01721 3.1327,1.36489 4.75,0.95898 1.42957,-0.3588 2.53906,-0.20768 2.53906,0.3457 0,0.9754 18.09907,10.23438 20.00586,10.23438 0.54673,0 0.99414,0.37501 0.99414,0.83398 0,0.45897 -12.77602,0.78297 -28.39062,0.71875 l -28.39063,-0.11718 -5.17578,-3.21875 C 159.1961,375.44709 156.72341,374 156.54688,374 c -0.17654,0 -4.98417,-2.18966 -10.6836,-4.86523 -11.55833,-5.42601 -23.58673,-9.74532 -24.52539,-8.80665 -0.33824,0.33824 0.68466,1.09303 2.27344,1.67579 5.04482,1.85042 17.23653,7.32437 28.23828,12.67968 l 10.65039,5.18555 -8.25,0.0644 c -5.9505,0.0475 -8.25936,-0.282 -8.28516,-1.18359 -0.0358,-1.24891 -26.35033,-14.77301 -28.71484,-14.75781 -0.6875,0.004 -1.25,-1.16427 -1.25,-2.59571 0,-1.43144 -1.09919,-4.69394 -2.44336,-7.25 -1.34417,-2.55606 -2.68019,-5.43398 -2.96875,-6.39648 -0.28857,-0.9625 -1.01873,-1.75 -1.62305,-1.75 -1.33439,0 -0.58147,2.65954 2.6875,9.47852 3.05242,6.36727 2.55153,7.82548 -2.38867,6.94726 -3.60625,-0.64108 -5.51181,-2.18899 -9.654295,-7.8457 C 98.569835,353.16085 97.302627,352 96.792969,352 c -0.509657,0 -2.471072,-1.17886 -4.359375,-2.61914 -5.57802,-4.25456 -4.49986,-8.7272 2.564453,-10.64063 1.132684,-0.3068 0.954094,-0.6952 -0.728516,-1.5957 -1.652115,-0.88421 -2.683545,-0.9038 -4.011719,-0.0742 -1.925944,1.20277 -3.395937,0.64385 -23.757812,-9.05078 -5.5,-2.61865 -12.1375,-5.7197 -14.75,-6.89062 -2.6125,-1.17092 -6.79291,-3.0873 -9.289062,-4.25782 -2.496154,-1.17051 -4.771594,-1.89442 -5.056641,-1.60937 -0.517477,0.51747 35.405484,18.54774 45.345703,22.75976 2.8875,1.22353 5.23624,2.5068 5.21875,2.85157 -0.01749,0.34477 -0.68333,1.48634 -1.478516,2.53711 -1.380796,1.8246 -1.633516,1.83729 -5.644531,0.26172 -2.309903,-0.90736 -4.408411,-1.44315 -4.662109,-1.18946 -0.253698,0.2537 0.682226,0.89628 2.080078,1.42774 1.397852,0.53146 2.830129,1.43124 3.18164,2 0.351518,0.56877 2.531294,1.57096 4.845704,2.22656 4.126781,1.16898 10.861838,6.52177 12.894531,10.24805 0.804861,1.47544 -0.242924,1.15991 -4.828125,-1.45313 -7.686871,-4.38065 -9.415493,-5.25509 -18.638672,-9.42383 C 68.239671,344.12726 65.016543,342.90465 44,335.47461 c -5.225,-1.84721 -12.30853,-4.474 -15.740234,-5.83789 -3.470195,-1.37919 -6.491181,-2.07022 -6.808594,-1.55664 -0.313893,0.50789 0.692685,1.41924 2.238281,2.02539 5.574603,2.18622 27.918547,10.07709 32.730469,11.55859 2.706486,0.83328 9.231486,3.73926 14.5,6.45703 5.268513,2.71778 11.267578,5.44829 13.330078,6.06836 2.0625,0.62007 3.75,1.43967 3.75,1.82227 0,0.3826 4.3875,2.65019 9.75,5.03906 5.3625,2.38888 11.32674,5.49253 13.25391,6.89649 4.80198,3.49829 6.66678,4.63461 12.74609,7.76562 2.8875,1.48715 5.25,3.06066 5.25,3.49609 0,1.05411 -4.34612,1.01549 -5.55078,-0.0488 -0.5225,-0.46169 -4.98746,-2.54429 -9.92383,-4.62891 -4.93637,-2.08462 -11.46137,-5.03581 -14.499999,-6.55859 C 95.98676,366.44975 91.25,364.20358 88.5,362.98242 c -2.75,-1.22117 -5.3375,-2.41794 -5.75,-2.66015 -0.4125,-0.2422 -0.75,-0.0208 -0.75,0.49218 0,0.51299 2.8125,2.32235 6.25,4.02149 3.4375,1.69914 9.902689,5.08639 14.36719,7.52734 4.46449,2.44095 8.92803,4.59522 9.91797,4.78711 0.98993,0.19189 1.97848,0.88779 2.19726,1.54492 0.58144,1.74636 -9.48682,1.38435 -10.1582,-0.36523 -0.28078,-0.73171 -1.5382,-1.33289 -2.79297,-1.33789 -1.25476,-0.005 -7.219239,-2.45547 -13.253906,-5.44531 -6.034666,-2.98985 -11.209666,-5.19809 -11.5,-4.90626 -0.828208,0.83252 3.994214,4.35938 5.960937,4.35938 0.971724,0 2.32703,0.675 3.011719,1.5 0.684689,0.825 2.315391,1.5 3.623047,1.5 2.843402,0 3.226115,2.59684 0.509765,3.45898 -1.843783,0.58519 -3.015413,0.25957 -10.382812,-2.88476 -4.872441,-2.07952 -4.872441,-0.51802 0,1.97266 l 3.75,1.91601 -3.707031,0.32617 c -2.039215,0.17941 -4.683722,-0.19539 -5.876953,-0.83398 -1.433516,-0.7672 -2.382099,-0.81836 -2.794922,-0.15039 -0.59299,0.95947 -11.639501,1.31213 -40.587891,1.29883 -11.124712,-0.005 -13.515674,0.24799 -12.449219,1.31445 0.839694,0.83969 74.532493,3.44347 77.277344,2.73047 0.474035,-0.1231 17.574042,-0.14618 38.000002,-0.0527 20.42597,0.0932 41.75117,0.15131 47.38867,0.12891 5.6375,-0.0224 10.25,0.28684 10.25,0.6875 0,0.40065 28.2375,0.62896 62.75,0.50781 89.91884,-0.31564 81.25,-0.0535 81.25,-2.4707 0,-1.95614 -0.49408,-2.03721 -10.82031,-1.78906 l -10.82031,0.25976 -11.66016,-5.79883 c -6.41283,-3.19004 -12.2314,-5.59472 -12.92969,-5.34375 -0.69828,0.25097 1.43047,1.66077 4.73047,3.13477 12.07869,5.39515 13.44931,6.1052 13.47461,6.96875 0.0555,1.89136 -9.28848,-0.31435 -16.38281,-3.86719 -5.97402,-2.99178 -7.31419,-4.06731 -6.69922,-5.37695 0.42273,-0.90026 1.52847,-3.15157 2.45703,-5.00195 1.51668,-3.02235 1.526,-3.30187 0.0879,-2.75 -0.88049,0.33788 -2.00822,0.61523 -2.50586,0.61523 -0.49763,0 -1.58859,1.63577 -2.42383,3.63477 -2.55401,6.11261 -8.37292,11.78328 -12.76562,12.43945 -4.7393,0.70795 -5.42631,-0.22084 -2.81055,-3.80274 2.971,-4.0684 5.35061,-16.50957 4.06836,-21.27148 -1.21177,-4.50019 -5.45327,-12.50993 -8.47266,-16 -1.18956,-1.375 -2.90662,-3.625 -3.8164,-5 -0.90977,-1.375 -3.22351,-4.74609 -5.14063,-7.49219 -1.91712,-2.7461 -4.21536,-6.7961 -5.10742,-9 -0.89206,-2.2039 -2.26175,-5.28082 -3.04297,-6.83789 C 243.63865,308.11265 243,306.30044 243,305.64258 c 0,-1.31485 -4.70406,-6.77515 -7.08789,-8.22656 -1.82227,-1.10951 -9.26491,-16.03536 -8.5625,-17.17188 0.7988,-1.29249 -2.13766,-13.87097 -4.80469,-20.58008 C 217.59379,247.20914 216.61888,237.38112 220,234 c 1.1,-1.1 2.3375,-2.03407 2.75,-2.07617 0.4125,-0.0421 1.59336,-0.23529 2.625,-0.42969 1.03164,-0.1944 2.69253,0.15476 3.68945,0.77734 2.15345,1.34485 5.02443,0.0668 9.94532,-4.42773 l 3.19335,-2.91602 -0.52148,-8.21289 c -0.28656,-4.5177 -1.19822,-11.36098 -2.02539,-15.20703 -0.82718,-3.84606 -1.38574,-7.11035 -1.24219,-7.2539 0.14354,-0.14355 3.02911,3.90259 6.41406,8.99218 3.38499,5.0896 6.79579,10.08549 7.57813,11.10157 1.62872,2.11538 0.88062,5.09936 -3.03516,12.10546 -1.72506,3.08647 -3.66627,4.81217 -7.35742,6.54102 -2.75749,1.29153 -5.01367,2.72174 -5.01367,3.17774 0,1.38095 1.69607,0.95442 7.44922,-1.86719 3.02182,-1.48204 5.79577,-2.39172 6.16406,-2.02344 1.11746,1.11747 -3.79808,4.44742 -9.36328,6.34375 -2.8875,0.98391 -5.25,2.1198 -5.25,2.52344 0,1.68195 1.84045,1.60164 5.99805,-0.25977 2.42571,-1.08603 5.33209,-1.84265 6.45703,-1.68164 1.96804,0.28166 2.04809,0.95447 2.12109,17.79297 0.0801,18.46958 -0.82451,29.91746 -2.44336,30.91797 -1.2486,0.77167 -2.60791,6.08203 -1.55664,6.08203 0.43668,0 1.74449,-0.89091 2.9043,-1.98047 l 2.10742,-1.98242 5.03711,5.73242 c 10.46644,11.91194 14.05971,18.60552 15.96094,29.73047 1.04136,6.09344 3.5476,11.90325 4.48242,10.39062 0.59902,-0.96922 2.84847,-0.35286 9.45703,2.5918 8.76045,3.90351 10.70854,5.68404 8.56445,7.82813 -0.90154,0.90154 -1.92488,0.73347 -4.38281,-0.72266 -7.33558,-4.34577 -12.20302,-6.49229 -12.97461,-5.7207 -0.45164,0.45164 0.16041,3.80868 1.35938,7.46093 1.62652,4.95471 3.03279,7.29243 5.54297,9.20704 C 287.23793,358.52069 288,358.7508 288,357.55078 288,356.69779 287.58717,356 287.08203,356 c -0.50514,0 -1.92024,-1.62061 -3.14453,-3.60156 -1.68771,-2.73078 -1.92538,-3.78907 -0.98047,-4.37305 0.90693,-0.56052 0.62265,-1.20699 -1.04492,-2.375 -1.26033,-0.88277 -1.99131,-1.90322 -1.625,-2.26953 0.36631,-0.36631 3.90568,1.20954 7.86523,3.50195 7.07379,4.09542 8.78133,4.19176 8.83204,0.50196 0.008,-0.61333 0.85232,-2.18833 1.875,-3.5 1.02267,-1.31167 2.17679,-4.53092 2.56445,-7.1543 0.69515,-4.70422 0.79872,-4.81734 7.59179,-8.23828 3.78826,-1.90773 8.43816,-4.82934 10.33204,-6.49219 C 323.68263,318.19384 327,311.23752 327,305.95508 c 0,-3.95886 -0.145,-4.13232 -5.52148,-6.59375 C 315.47812,296.61426 312,291.78629 312,286.20117 c 0,-2.12424 -0.67579,-3.18792 -2.57812,-4.05469 -3.00052,-1.36712 -2.76034,-3.35776 0.49804,-4.12695 l 2.27149,-0.53711 -2.09571,-1.89648 C 307.46205,273.20253 307.42982,272 310,272 c 2.82988,0 2.4794,-1.43574 -0.75,-3.07227 l -2.75,-1.39453 4.25,-0.32422 c 5.04389,-0.38499 5.56205,-1.78689 1,-2.70507 -1.7875,-0.35976 -3.97075,-0.85454 -4.85156,-1.09961 -1.403,-0.39036 -1.5889,0.92199 -1.5,10.57617 0.0897,9.74337 0.30162,11.01944 1.83203,11.01953 1.07606,7e-5 1.95883,1.04043 2.33203,2.75 1.71293,7.84652 5.2419,12.37043 11.17969,14.33008 2.79431,0.92221 3.25781,1.53991 3.25781,4.34765 0,1.80027 -0.4993,4.70501 -1.10938,6.45508 -1.31101,3.76079 -1.59384,3.71777 -13.28906,-2.03515 -4.34398,-2.13682 -8.07655,-3.70665 -8.29492,-3.48828 -0.45589,0.45589 5.75734,4.16645 13.51953,8.07226 4.41514,2.22162 5.12067,2.9257 4.12695,4.12305 C 318.29385,320.34914 317.23177,321 316.5918,321 314.98687,321 292.44894,309.32868 287.32031,305.8418 283.32098,303.1227 278,302.00967 278,303.89258 c 0,0.49141 4.8375,3.25933 10.75,6.15039 5.9125,2.89106 11.875,6.03119 13.25,6.97656 1.375,0.94538 3.625,2.06352 5,2.48633 1.375,0.42282 3.4918,1.54287 4.70312,2.48828 l 2.20118,1.71875 -2.35157,1.25977 C 309.1633,326.25144 308.83211,326.15366 301,321.90039 298.11912,320.33592 288.75332,316 288.25586,316 c -1.7823,0 2.56907,3.04397 6.49414,4.54297 2.59664,0.99167 6.22425,2.68885 8.0625,3.77344 l 3.3418,1.97265 -2.02149,2.02344 c -1.48424,1.48424 -2.37107,1.74124 -3.32812,0.9668 -2.20626,-1.78529 -26.74418,-14.33071 -27.47461,-14.04688 -0.37778,0.1468 -1.00544,-0.85742 -1.39453,-2.23242 -1.63569,-5.78042 -4.87291,-11.72032 -8.04493,-14.75781 -1.86468,-1.78561 -5.07792,-4.85318 -7.14062,-6.81641 -3.50249,-3.33359 -3.70584,-3.84582 -3.07812,-7.74805 0.80713,-5.01781 0.8244,-33.23337 0.0293,-47.17773 -0.48703,-8.5408 -0.29683,-10.53422 1.30274,-13.66211 3.11939,-6.09984 3.4669,-10.10101 1.0664,-12.27344 C 254.9316,209.53399 254,208.24052 254,207.69141 c 0,-0.54912 -2.21081,-3.33703 -4.91406,-6.19532 -2.93097,-3.09907 -5.42305,-6.88931 -6.17188,-9.38867 -0.95982,-3.20358 -1.62684,-4.03344 -2.83398,-3.52539 -0.8686,0.36557 -6.75508,0.86012 -13.08008,1.09961 -11.79929,0.44677 -22.82005,2.09848 -31.3125,4.69141 l -4.8125,1.46875 0.67969,-5.42774 c 0.42159,-3.37433 0.27491,-5.91371 -0.38672,-6.71094 -0.58542,-0.70536 -1.35758,-5.31619 -1.71485,-10.24414 -0.72396,-9.98712 1.8127,-25.41646 5.51954,-33.58593 C 197.36419,134.60236 197.48658,133 195.5,133 c -4.34291,0 2.50123,-3.7462 8,-4.37891 13.14237,-1.51221 19.46067,-5.43264 21.44336,-13.30664 0.61922,-2.45915 2.00863,-5.42149 3.08984,-6.58203 2.99367,-3.21333 2.37339,-3.87878 -1.99023,-2.13281 -3.2368,1.29512 -4.60262,1.37028 -7.5,0.41406 -3.77456,-1.24571 -4.48462,-2.98728 -2.04297,-5.01367 0.825,-0.68469 1.5,-2.059095 1.5,-3.054688 0,-0.995592 0.9,-2.096186 2,-2.445312 2.34434,-0.744066 2.4287,-1.350225 0.53516,-3.849609 -1.07703,-1.421619 -1.14968,-2.40441 -0.31055,-4.246094 0.87294,-1.915898 0.75768,-2.765935 -0.58008,-4.244141 -1.58156,-1.747606 -1.47527,-2.05902 1.93945,-5.679687 1.98687,-2.106695 4.70787,-5.566372 6.04688,-7.6875 3.06701,-4.858472 8.59347,-7.75929 11.41992,-5.994141 C 240.66024,65.80395 241,65.753004 241,64.507812 c 0,-0.829661 0.5625,-1.507159 1.25,-1.505859 1.09951,0.002 2.8971,3.321306 7.85352,14.498047 l 1.33007,3 0.34766,-3.269531 c 0.23559,-2.215471 -0.59403,-5.008024 -2.57422,-8.664063 -2.17941,-4.023851 -2.51319,-5.243353 -1.31445,-4.802734 1.43254,0.52656 8.64772,4.948386 10.17578,6.236328 0.32627,0.275 0.31623,3.3125 -0.0234,6.75 -0.62806,6.351689 -0.22565,7.378478 1.89258,4.826172 0.73792,-0.889138 0.92857,-2.767596 0.50977,-5 -0.92019,-4.905037 0.52114,-4.482311 3.92578,1.154297 2.64297,4.375626 2.82411,5.315326 2.4082,12.5 C 266.53366,94.503251 266.66788,98 267.08008,98 c 0.66583,0 5.18314,-5.978695 8.68945,-11.5 1.3315,-2.096668 3.47003,-6.690678 4.59961,-9.878906 0.53691,-1.515402 1.33846,-1.768498 4.14844,-1.3125 2.51428,0.408011 3.48242,0.196718 3.48242,-0.763672 0,-2.393257 -6.57684,-3.56769 -8.60742,-1.53711 -0.67582,0.675821 -1.79059,-0.05457 -3.39063,-2.21875 -1.92937,-2.609605 -2.46431,-4.778411 -2.81054,-11.375 -0.23528,-4.482694 -0.0382,-8.381733 0.43945,-8.666015 0.47765,-0.284282 2.73745,-0.827324 5.02148,-1.205078 4.04405,-0.668842 4.2322,-0.573552 7.15625,3.634765 1.65147,2.37681 3.95354,5.325726 5.11719,6.552735 1.16365,1.22701 2.3793,3.548889 2.70117,5.158203 0.32186,1.609313 2.11203,4.405775 3.97852,6.214844 C 300.29237,73.707765 301,75.183615 301,78.195312 301,81.022385 300.58692,82 299.39258,82 c -0.92128,0 -1.39039,0.564501 -1.09961,1.322266 0.27897,0.726972 -0.34746,1.855123 -1.39258,2.507812 -2.22155,1.387382 -2.45354,3.465737 -0.5625,5.035156 1.76386,1.463878 4.85059,-1.776728 7.58789,-7.964843 1.68314,-3.805011 1.84123,-5.149365 0.93945,-7.988282 -2.35209,-7.404617 -6.05517,-13.344022 -13.61523,-21.841797 -4.69783,-5.280515 -5.24355,-8.241748 -3.0918,-16.787109 l 1.16016,-4.601562 -4.41016,-3.873047 c -3.23751,-2.844352 -4.17854,-3.597237 -7.26367,-3.664063 z m -3.58594,2.248047 c 2.88207,0.15266 5.91479,1.686929 7.08789,3.878906 0.89781,1.67757 1.41735,14.602295 0.61329,15.253907 -0.14273,0.11567 -2.95977,0.467198 -6.25977,0.783203 -5.84768,0.559968 -6.06823,0.493108 -8.69922,-2.695313 -2.88903,-3.50114 -4.27413,-8.202892 -2.70312,-9.173828 0.52732,-0.325903 1.77201,0.413112 2.76757,1.642578 2.47028,3.050695 4.68188,1.682249 2.54688,-1.576172 -2.24894,-3.432308 -1.46389,-6.665814 1.88867,-7.777343 0.85302,-0.282817 1.79713,-0.386824 2.75781,-0.335938 z m -129.4375,32.199219 c 7.65833,-0.22424 16.67437,2.104844 13.98243,3.611328 C 157.66418,62.728807 157,64.396999 157,66.234375 c 0,1.797439 -0.88668,4.079555 -2.07617,5.345703 -2.81887,3.000555 -0.97434,3.833757 2.44726,1.105469 1.95493,-1.558806 2.91818,-3.428691 3.32227,-6.441406 C 161.00647,63.909723 161.56565,62 161.93555,62 c 0.3699,0 2.70544,1.287967 5.18945,2.863281 5.03337,3.192069 8.61799,7.269112 9.50586,10.806641 0.90126,3.590931 -0.50089,9.189983 -2.58008,10.302734 -1.78414,0.954845 -1.80376,0.77638 -0.46875,-4.238281 0.76645,-2.87901 1.39925,-5.346875 1.40625,-5.484375 0.007,-0.1375 -0.65806,-0.25 -1.47656,-0.25 -0.9597,0 -1.71199,1.403017 -2.11914,3.949219 -0.60545,3.786248 -0.79895,3.960727 -4.72852,4.25 -3.32455,0.244733 -4.48178,0.890795 -6.13086,3.429687 -1.11795,1.721178 -2.4832,3.839204 -3.0332,4.705078 -0.90613,1.426536 -1.26983,1.427169 -3.87891,0.01953 -2.39208,-1.290557 -3.03224,-1.324427 -3.77734,-0.203125 -0.68281,1.02757 -1.95326,0.156231 -5.32227,-3.650391 -4.5763,-5.170735 -4.72512,-5.942475 -2.375,-12.316406 0.61331,-1.663402 1.37906,-2.151857 2.7129,-1.728516 1.07221,0.340312 2.39188,-0.053 3.12109,-0.93164 C 148.67547,72.686026 150.03469,72 151,72 c 1.88011,0 4.65281,-2.681175 3.72852,-3.605469 -0.30627,-0.30627 -1.38298,-0.133287 -2.39258,0.384766 -1.00961,0.518053 -3.4759,1.194424 -5.48047,1.501953 -3.54923,0.544501 -3.68982,0.442649 -5.33203,-3.857422 -0.92751,-2.428639 -2.43238,-4.83262 -3.34571,-5.34375 -2.70409,-1.513283 -0.72621,-2.278352 6.44336,-2.488281 z m -10.75586,2.636719 c 0.62289,0.200552 1.68247,1.064484 2.71289,2.263672 2.02602,2.357821 2.46589,3.86131 2.32422,7.957031 C 138.71177,76.958626 137.26718,82 135.87891,82 c -2.08147,0 -0.33085,2.260037 8.54297,11.027344 l 9.42187,9.310546 -2.46484,3.23242 -2.46485,3.23242 3.03516,2.16211 c 3.21621,2.29015 5.02963,2.01414 5.08203,-0.77343 0.0175,-0.93004 0.66538,-2.52694 1.43945,-3.54883 1.24259,-1.64041 1.97133,-1.73625 6.21875,-0.81446 7.47386,1.62203 19.16129,3.43656 26.31055,4.08399 l 6.5,0.58789 -5.5,4.04883 c -3.025,2.22739 -6.8686,5.00429 -8.54102,6.16992 -2.40416,1.67562 -5.23046,2.26473 -13.5,2.81641 L 159.5,124.23438 154.05859,120.14062 C 146.2389,114.25862 137.96823,104.70081 132.09766,94.761719 129.29359,90.014339 127,85.736223 127,85.253906 c 0,-0.482316 -0.94609,-1.890609 -2.10156,-3.130859 -1.43886,-1.544434 -2.26615,-4.075812 -2.625,-8.033203 -0.49163,-5.421837 -0.3303,-5.98813 2.61328,-9.183594 l 3.13867,-3.40625 3.23633,3.75 C 134.28592,68.752658 138,70.268366 138,68 c 0,-0.55 -0.43924,-1 -0.97656,-1 -1.35362,0 -4.4493,-4.908113 -3.61914,-5.738281 0.0929,-0.09292 0.25331,-0.100072 0.46093,-0.0332 z m 15.41407,2.15039 c -0.10514,0.105141 -0.17712,0.454638 -0.20118,1.03711 -0.0434,1.054166 0.1931,1.644791 0.5254,1.3125 0.33225,-0.332292 0.36876,-1.194141 0.0801,-1.916016 -0.15961,-0.398867 -0.29916,-0.538734 -0.40429,-0.433594 z M 163.5,65 c -1.00973,0 -1.5,1.00964 -1.5,3.089844 0,2.177858 -0.88062,3.862731 -2.98242,5.707031 l -2.98242,2.617187 2.73242,1.210938 c 3.63141,1.610312 3.87997,1.609214 7.1543,-0.08398 1.55278,-0.802974 3.09073,-2.485004 3.41796,-3.736328 0.58736,-2.246056 0.61455,-2.248778 2.09571,-0.289063 1.46955,1.944274 1.5021,1.934373 1.5332,-0.40625 0.0321,-2.413198 -2.40045,-5.019535 -4.73828,-5.078125 -0.83729,-0.02098 -1.06792,0.769632 -0.67774,2.324219 0.64483,2.5692 -1.6333,5.644531 -4.18164,5.644531 -1.29228,0 -1.28234,-0.288948 0.0723,-2.222656 C 165.49287,70.850992 165.53079,65 163.5,65 Z m 117.79102,1.291016 c -1.07764,0.03558 -2.06408,0.197043 -2.76758,0.517578 -1.38746,0.632167 -2.52352,1.495631 -2.52344,1.919922 2.2e-4,1.140182 11.95623,0.896184 12.25,-0.25 0.32506,-1.268294 -3.72609,-2.294245 -6.95898,-2.1875 z m -39.01368,3.05664 c -0.20167,0.244375 -0.23109,1.175516 -0.24609,2.986328 -0.0218,2.632087 0.36046,3.701792 1.21875,3.416016 1.86173,-0.619882 2.00366,-3.029546 0.31055,-5.269531 -0.70721,-0.935635 -1.08153,-1.377187 -1.28321,-1.132813 z m -4.70507,0.673828 c -1.26063,-0.03248 -2.61502,0.239046 -2.98633,0.839844 -0.2925,0.473286 -0.23015,1.162427 0.13867,1.53125 0.36882,0.368818 1.29348,0.430776 2.05469,0.138672 C 237.54052,72.239146 238.57701,72 239.08203,72 239.58704,72 240,71.55 240,71 c 0,-0.610365 -1.16711,-0.946037 -2.42773,-0.978516 z m -122.58594,5.121094 c 1.84683,0.124623 2.69432,0.883492 4.42187,3.148438 1.42524,1.868584 2.5918,3.692149 2.5918,4.052734 0,1.054789 -4.82186,0.753502 -5.5,-0.34375 -0.33992,-0.55 0.33508,-1 1.5,-1 1.16492,0 1.83992,-0.45 1.5,-1 -0.33992,-0.55 -2.41719,-1 -4.61719,-1 -2.67007,0 -3.77314,-0.368391 -3.3164,-1.107422 0.46583,-0.75373 -0.0312,-0.879306 -1.5586,-0.394531 -1.65057,0.52387 -2.12698,0.354247 -1.79883,-0.642578 0.25377,-0.770889 2.20551,-1.485792 4.52735,-1.658203 0.90687,-0.06734 1.63439,-0.09623 2.25,-0.05469 z M 229.04883,77 c -1.51301,0 -1.29466,1.056826 0.70117,3.382812 1.73989,2.02771 1.73429,2.028993 -0.96484,0.328126 -3.76633,-2.373374 -4.2987,-2.198631 -5.52735,1.804687 -1.0071,3.281422 -0.90226,3.609694 1.58203,4.958984 1.46351,0.794875 3.34738,1.464306 4.1875,1.486329 2.33107,0.0611 5.97691,-2.864651 5.94141,-4.767579 C 234.93245,82.248342 230.61337,77 229.04883,77 Z m 10.42187,0.476562 c -0.18587,-0.06014 -0.36413,-0.04274 -0.53125,0.06055 -0.8015,0.495338 -0.81043,0.992548 -0.0273,1.775391 C 241.10547,81.506083 239.93035,89 237.39258,89 236.62643,89 236,89.423865 236,89.941406 c 0,1.468874 2.02251,2.362204 5.14453,2.273438 1.57074,-0.04466 2.85547,0.42952 2.85547,1.052734 0,0.704209 0.33092,0.772046 0.87305,0.181641 0.47977,-0.5225 1.15172,-3.48257 1.49414,-6.580078 0.48033,-4.345365 0.28033,-5.915825 -0.87305,-6.873047 C 244.24753,78.961501 244,79.10697 244,80.876953 c 0,3.12568 -1.64512,2.582461 -2.87695,-0.951172 -0.48287,-1.385143 -1.09472,-2.268793 -1.65235,-2.449219 z m -91.38086,0.472657 c -3.19325,-0.395618 -4.69913,2.657373 -2.68554,7.476562 1.67525,4.009425 3.06542,4.36738 6.3457,1.63086 2.8643,-2.389483 2.8758,-5.505032 0.0273,-7.5 -1.37193,-0.960939 -2.62308,-1.47555 -3.6875,-1.607422 z m -38.53711,1.11914 c 0.46483,-0.02674 0.36267,0.258073 0.008,0.833985 C 108.76725,81.184172 103,83.067832 103,82.044922 c 0,-0.467586 1.41637,-1.343462 3.14844,-1.947266 1.90827,-0.665226 2.93947,-1.002553 3.40429,-1.029297 z M 148.68555,81 c 1.13777,0 2.62976,0.675 3.31445,1.5 1.68978,2.036069 -0.73709,2.014192 -3.44141,-0.03125 C 146.65033,81.025413 146.65189,81 148.68555,81 Z m -37.44532,1.34375 c 0.43584,-0.09791 1.0587,0.277821 2.23243,1.046875 1.35108,0.885262 4.1649,1.609375 6.25195,1.609375 5.07188,0 7.37459,3.116633 4.0332,5.457031 -2.45067,1.716518 -7.31668,2.065206 -8.22851,0.589844 -0.32405,-0.524332 1.2248,-1.442191 3.4414,-2.039063 5.53632,-1.490774 5.0642,-2.40208 -0.83789,-1.61914 -6.62742,0.879159 -9.15669,-0.148304 -7.99804,-3.248047 0.42141,-1.127405 0.66963,-1.698963 1.10546,-1.796875 z m 141.85547,0.734375 c -0.87725,0.04342 -1.1457,0.268463 -0.5957,0.5 1.13468,0.477692 1.19434,6.784342 0.0957,10.171875 -1.00726,3.105767 -2.56508,2.822227 -2.74609,-0.5 l -0.14844,-2.75 -0.41015,2.677734 c -0.22524,1.472252 -1.05726,3.213501 -1.84961,3.871094 C 246.64906,97.706421 246,98.894735 246,99.689453 c 0,2.222617 4.06557,0.653077 7.03125,-2.714844 1.39205,-1.580872 3.11961,-4.504338 3.83984,-6.496093 1.15529,-3.194912 1.10439,-3.847229 -0.43554,-5.548828 -0.96002,-1.060806 -2.46259,-1.894983 -3.33985,-1.851563 z m -87.74804,2.966797 c 1.26316,0.127748 2.70463,0.809728 3.41992,1.955078 1.11307,1.782321 1.0029,1.992225 -1.00977,1.921875 C 164.48086,89.807325 163,89.026125 163,87.416016 c 0,-1.07301 1.0845,-1.498842 2.34766,-1.371094 z M 262.5,88 c -0.99742,0 -1.5,0.997056 -1.5,2.976562 0,2.090432 -0.76313,3.476585 -2.56055,4.654297 -1.84637,1.209789 -2.20857,1.893285 -1.30273,2.453125 1.58268,0.978151 4.50257,-0.542298 5.83984,-3.041015 C 264.53211,92.136395 264.25244,88 262.5,88 Z m 32.18555,4 C 291.60599,92 274,113.87647 274,117.70312 274,118.41644 273.33627,119 272.52539,119 c -1.73263,0 -4.13907,4.33518 -6.13281,11.04883 -1.80444,6.07619 -7.84856,18.38611 -11.26953,22.95117 -1.44256,1.925 -3.25187,4.625 -4.02149,6 -0.76961,1.375 -3.80711,5.71003 -6.75,9.63281 -2.94288,3.92278 -5.35156,7.7883 -5.35156,8.58985 0,1.09225 -2.3786,1.74835 -9.49609,2.62304 -8.25795,1.01484 -18.23735,3.7529 -17.25586,4.73438 0.18168,0.18168 5.26238,-0.3264 11.29101,-1.12891 C 236.0536,181.78529 240,182.1906 240,185.13867 c 0,1.18585 0.44217,1.70636 1.10156,1.29883 0.60578,-0.37442 0.85512,-1.908 0.55469,-3.41016 -0.44643,-2.23213 0.18173,-3.43992 3.44922,-6.6289 2.19745,-2.14466 4.64794,-5.13594 5.44531,-6.64844 0.79737,-1.5125 2.18702,-4.15758 3.08789,-5.87891 0.90087,-1.72133 2.36337,-3.35105 3.25,-3.62109 1.73575,-0.52866 11.16379,-18.7028 12.30078,-23.71094 2.27766,-10.0325 3.20647,-12.40851 5.03516,-12.88672 1.05787,-0.27664 2.16847,-1.4373 2.4668,-2.57812 0.29833,-1.14081 0.86833,-2.07422 1.26757,-2.07422 0.39924,0 1.58371,-1.6875 2.63282,-3.75 1.04911,-2.0625 2.5832,-4.47368 3.4082,-5.35742 1.75146,-1.87614 4.04132,-4.59653 9.33789,-11.099611 C 296.94834,94.360085 297.41641,92 294.68555,92 Z m -132.89844,0.101562 c 0.60626,-0.135407 1.19111,0.401506 1.66211,1.628907 0.46731,1.217783 -0.31426,2.540818 -2.64258,4.472656 -1.81867,1.50898 -3.75664,2.728635 -4.30664,2.710935 -1.20541,-0.0388 -6.61798,-6.128123 -5.99805,-6.748044 0.23997,-0.239975 1.55882,0.299716 2.93164,1.199218 3.50471,2.296378 5.46264,2.037905 6.56641,-0.865234 0.55367,-1.456265 1.18085,-2.263022 1.78711,-2.398438 z m 71.08789,0.476563 c -0.62676,-0.01932 -1.21326,0.03398 -1.66211,0.183594 -2.21393,0.737975 -1.25572,5.396913 1.94141,9.433591 l 3.15429,3.98242 -2.71679,2.16797 c -1.9858,1.5831 -2.52261,2.67359 -1.99414,4.05078 0.69924,1.82213 0.76773,1.82368 2.0625,0.0527 C 234.3967,111.44217 235,110.22245 235,109.73828 235,107.51562 240.597,104 244.13672,104 c 2.08538,0 1.95359,-0.32319 -1.63672,-4 -4.3738,-4.479182 -4.74354,-4.61388 -6.85742,-2.5 C 233.63289,99.509684 233,99.389895 233,97 c 0,-1.333333 0.66667,-2 2,-2 1.1,0 2,-0.39693 2,-0.882812 0,-0.763864 -2.24472,-1.481118 -4.125,-1.539063 z M 126.02539,93.5 c 0.96294,0.284601 2.11339,1.577459 3.80859,4.195312 1.71088,2.642058 4.49013,6.379688 6.17774,8.304688 1.6876,1.925 4.73687,5.66245 6.77539,8.30469 2.03851,2.64224 5.88404,6.20141 8.54687,7.91015 3.98776,2.55893 4.55643,3.26789 3.2168,4.01758 -2.41149,1.34954 -7.19756,-0.0458 -8.85937,-2.58203 -2.28694,-3.4903 -15.76385,-16.34053 -21.15821,-20.17578 -5.1805,-3.683204 -7.38702,-4.222359 -9.33398,-2.27539 -1.4296,1.4296 -1.60772,3.17253 -0.23828,2.32617 2.07565,-1.28282 12.67459,5.43175 18.7539,11.88086 3.41857,3.62652 6.63444,6.59375 7.14454,6.59375 1.53852,0 2.25339,3.15911 1.04492,4.61523 -1.31676,1.58659 -0.36147,2.09209 5.0957,2.69532 3.09002,0.34157 3.23644,0.47601 1.25,1.15429 -1.2375,0.42256 -2.25,1.1665 -2.25,1.65235 0,1.35552 3.31766,1.04773 5.54688,-0.51367 C 153.77649,130.04183 171.35116,126 175.91016,126 c 2.30397,0 3.28644,0.68644 4.51757,3.1543 0.86528,1.7345 1.57227,3.7378 1.57227,4.45312 0,0.71532 -5.98401,4.24748 -13.29688,7.84766 -17.03942,8.38864 -18.25374,8.43117 -30.84374,1.08398 -11.35596,-6.62701 -25.40665,-17.00562 -28.26368,-20.87695 -2.61124,-3.53828 -8.46757,-6.21557 -10.023434,-4.58203 -0.772705,0.81129 -0.540976,1.44782 0.828124,2.27344 1.04559,0.63054 5.32059,4.23091 9.5,8 4.1794,3.76908 9.39961,8.04408 11.59961,9.5 2.2,1.45591 5.17959,3.77148 6.62109,5.14648 4.4467,4.24157 8.22606,7.20037 10.54688,8.25781 2.38026,1.08452 2.60321,2.20905 3.87695,19.60157 0.41086,5.61017 0.18463,9.80281 -0.68554,12.75 -1.48062,5.01452 -2.08315,5.14571 -12.35938,2.70507 -3.3,-0.78376 -8.01054,-1.85363 -10.4668,-2.3789 -2.45626,-0.52526 -4.84027,-1.6259 -5.29882,-2.44532 C 113.27574,179.6708 111.65558,179 110.13477,179 c -2.18059,0 -3.12024,-0.7463 -4.44922,-3.5332 C 104.75869,173.52314 104,171.13736 104,170.16602 c 0,-0.97134 -0.4104,-2.1943 -0.91211,-2.7168 -1.20169,-1.25148 -3.77163,-15.82048 -4.621093,-26.19922 -0.680305,-8.31197 -1.528075,-9.87326 -3.431641,-6.31641 -2.029865,3.79283 -1.431468,7.7012 4.375,28.5293 1.374124,4.92906 2.349294,9.11164 2.166014,9.29492 -0.18328,0.18328 -1.45604,-1.60054 -2.828123,-3.96289 C 88.278183,150.76868 86.390733,139.0706 91.083984,121.29297 94.957352,106.62098 103.8552,94.389694 109.96094,95.34375 c 2.72517,0.425823 12.49996,-0.737188 15.15039,-1.802734 0.29269,-0.11767 0.59308,-0.135859 0.91406,-0.04102 z m 137.73438,4.791016 c -0.30016,-0.0216 -0.67225,0.06441 -1.14844,0.214843 -1.16099,0.366758 -4.23901,1.197856 -6.83985,1.845701 -2.60084,0.64787 -5.52584,2.01646 -6.5,3.04102 -1.71278,1.80139 -1.66585,1.84257 1.43946,1.26758 3.50259,-0.64854 5.50661,0.78834 2.27734,1.63281 -2.61006,0.68256 -2.56614,2.70703 0.0586,2.70703 1.22692,0 2.72873,-1.19937 3.75,-2.99414 0.93691,-1.64652 2.04062,-2.997 2.45312,-3 1.17598,-0.01 0.88348,1.43439 -0.71875,3.55273 -1.72527,2.28102 -1.91162,3.44141 -0.55469,3.44141 0.53686,0 1.86625,-1.6875 2.95508,-3.75 1.84846,-3.5014 1.98214,-3.57728 2.02344,-1.1543 0.0243,1.42726 -0.84461,3.39907 -1.93164,4.38282 -1.08703,0.98375 -1.71956,2.20398 -1.40625,2.71093 0.99563,1.61097 3.82444,0.37605 5.04297,-2.20117 0.68791,-1.45497 0.94532,-4.49339 0.61914,-7.31836 -0.37744,-3.268913 -0.61908,-4.314098 -1.51953,-4.378904 z M 237.94141,100 c 2.5151,0 3.50599,1.61351 1.4707,2.39453 -1.95224,0.74913 -1.93467,0.75118 -2.74609,-0.0606 C 235.41055,101.07882 236.00029,100 237.94141,100 Z m -81.09766,4 c 0.72755,0 0.53582,1.23367 -0.54492,3.5 -1.79534,3.76486 -3.31898,4.58067 -3.26758,1.75 0.0391,-2.15139 2.28938,-5.25 3.8125,-5.25 z m 88.05469,2.2207 c -2.05002,-0.39803 -5.3388,2.2571 -4.49219,3.62696 0.87735,1.41958 0.91179,1.42024 4.07227,-0.0195 2.67905,-1.22065 2.90121,-3.12566 0.41992,-3.60742 z m -35.31836,0.81055 c 1.59672,0.0264 1.42515,0.40436 -1.02149,2.25 -1.61737,1.22008 -3.8644,2.4626 -4.99414,2.76172 -1.12974,0.29911 -2.20816,1.34434 -2.39648,2.32226 -0.29109,1.51151 0.25011,1.38649 3.60547,-0.83398 5.09828,-3.37388 10.3478,-4.2609 13.23828,-2.23633 l 2.18359,1.5293 -2.32422,1.24414 c -2.48265,1.32867 -8.87109,2.99441 -8.87109,2.3125 0,-0.22516 1.4625,-1.30272 3.25,-2.39258 3.19242,-1.9465 3.20494,-1.98037 0.69141,-1.98437 -1.40738,-0.002 -3.33368,0.56298 -4.28125,1.25586 -1.46207,1.06909 -1.55231,1.75025 -0.59375,4.5 1.23655,3.54717 1.86545,3.87129 3.85937,1.99023 0.96551,-0.91085 1.43985,-0.93897 1.74805,-0.10547 0.23262,0.62937 1.30137,0.91357 2.375,0.63281 1.07363,-0.28074 1.95117,-0.24506 1.95117,0.0801 0,1.29803 -6.50232,3.83531 -12.16992,4.74805 -3.30096,0.5316 -8.41081,2.25091 -11.35547,3.82226 l -5.35352,2.85743 -1.06054,-3.04102 c -1.59483,-4.57493 -1.45424,-4.95536 3.92773,-10.53906 5.25234,-5.44921 14.34926,-11.22733 17.5918,-11.17383 z m 29.44336,3.03516 c -0.64469,0.11262 -1.64998,0.96063 -2.64453,2.47851 -1.44258,2.20164 -1.48465,2.88794 -0.3125,5.07813 1.44374,2.69765 3.2282,3.96182 6.39257,4.52734 1.73825,0.31066 1.92402,-0.15055 1.65821,-4.09766 -0.26686,-3.96266 -0.1254,-4.30509 1.28711,-3.13281 0.87198,0.72367 2.48691,1.07945 3.58984,0.79102 2.42845,-0.63505 2.44622,-0.46128 0.34766,3.58789 -1.8589,3.58672 -2.53467,6.08271 -5.32618,19.70117 -1.07102,5.225 -2.90566,12.875 -4.07812,17 -1.17247,4.125 -2.57412,9.4125 -3.11523,11.75 -0.97913,4.2296 -1.00617,4.25 -5.51368,4.25 -5.22996,0 -27.44826,6.62392 -28.54492,8.50977 -1.00533,1.72879 -5.91243,2.8664 -6.7207,1.55859 -1.03641,-1.67695 -0.13758,-23.22736 1.12891,-27.06836 0.63471,-1.925 1.26565,-4.4 1.40234,-5.5 0.25576,-2.05829 1.7649,-8.27386 2.97461,-12.25 0.50322,-1.654 0.27776,-2.25 -0.85156,-2.25 -1.65422,0 -3.23767,4.14568 -6.65625,17.4375 -2.74493,10.67263 -2.55937,23.78646 0.45507,32.3125 0.24307,0.6875 0.62365,1.25 0.84571,1.25 0.4078,0 6.88984,-2.06493 25.1582,-8.01367 5.5,-1.79097 11.85921,-3.26971 14.13086,-3.28711 l 4.12891,-0.0332 1.2207,-5.58204 c 0.67101,-3.07083 2.06225,-8.05898 3.0918,-11.08398 2.40458,-7.0651 4.48085,-16.42822 5.86523,-26.45117 0.6041,-4.37368 1.51594,-8.21054 2.02539,-8.52539 0.50945,-0.31486 1.35117,-2.46533 1.87109,-4.7793 0.89318,-3.97525 0.79877,-4.27831 -1.69531,-5.47656 -4.18657,-2.0114 -7.7256,-1.10267 -9.43164,2.41992 -1.39719,2.88488 -1.53131,2.94312 -2.16601,0.94336 C 239.16912,114.95912 239.15087,113.1 239.5,112 c 0.45166,-1.42304 0.16813,-2.04622 -0.47656,-1.93359 z M 183.5,124 c 0.825,0 1.5,0.61875 1.5,1.375 0,0.75625 0.28125,2.78125 0.625,4.5 0.90156,4.50779 -1.29505,3.97406 -2.57227,-0.625 C 181.69338,124.35519 181.7235,124 183.5,124 Z m 7.34961,11.67188 c 1.78953,0.46798 2.17239,1.0809 1.69141,2.71679 -0.34157,1.16176 -1.15641,4.23547 -1.81055,6.83203 -1.36499,5.41826 -0.96863,5.25087 -16.02149,6.7793 -8.28411,0.84115 -10.14877,0.75837 -12.1289,-0.53906 -2.21746,-1.45294 -2.47857,-1.37004 -4.96094,1.58008 -2.61363,3.10613 -3.16018,5.38412 -2.01172,8.37695 0.98782,2.57423 2.39258,1.80729 2.39258,-1.30664 0,-1.58906 0.88262,-3.95156 1.96094,-5.25 l 1.96094,-2.36133 -0.41016,4.41211 c -0.40697,4.38934 0.72587,8.08789 2.47656,8.08789 0.51724,0 0.65086,-2.24992 0.30664,-5.15625 l -0.61133,-5.15625 3.54688,0.57422 c 1.95008,0.31646 5.28397,0.20998 7.4082,-0.23633 2.12422,-0.44631 6.13956,-1.08838 8.92383,-1.42773 l 5.0625,-0.61719 -1.39844,8.25976 c -0.7689,4.54274 -1.62095,8.48477 -1.89453,8.75977 -0.27358,0.275 -5.89823,0.66065 -12.49805,0.85742 l -12,0.35742 -2.93945,-2.8164 c -1.61674,-1.54894 -3.44943,-4.52208 -4.07422,-6.60742 -1.84662,-6.16347 -2.88644,-4.35998 -2.49023,4.32031 0.37936,8.31122 -0.4675,15.27193 -2.45117,20.13867 -0.69562,1.70664 -1.87894,2.75 -3.11719,2.75 -1.65817,0 -1.89085,-0.46459 -1.38281,-2.75 2.69667,-12.13092 2.76876,-13.58991 1.19921,-24.32617 -0.86743,-5.93372 -1.57721,-10.93051 -1.57421,-11.10547 0.003,-0.17496 3.26518,-0.34912 7.25,-0.38672 6.99735,-0.0661 7.75935,-0.33025 22.26562,-7.7168 10.9019,-5.55121 15.65293,-7.48155 17.33008,-7.04296 z m -7.70508,36.83007 c 2.11052,-0.81578 2.82739,5.16099 3.11719,26 0.19653,14.13181 0.0725,15.21959 -2.10938,18.75 -1.27396,2.06131 -2.72294,3.74805 -3.2207,3.74805 -0.49776,0 -1.57202,1.4625 -2.38672,3.25 -2.16019,4.73955 -9.15194,15.92869 -11.4043,18.25 -1.06729,1.1 -2.25706,4.025 -2.64453,6.5 -0.38747,2.475 -1.37877,6.975 -2.20117,10 -2.50768,9.22395 -2.53283,9.63992 -0.81445,12.96289 1.61533,3.1237 1.60535,3.19837 -0.32422,2.58594 -3.26257,-1.0355 -3.41015,1.16578 -0.1543,2.30078 1.64934,0.57496 2.99805,1.53227 2.99805,2.125 0,0.66501 -1.14881,0.48268 -3,-0.47461 -2.37631,-1.22884 -3,-1.27593 -3,-0.22656 0,0.72864 1.60759,1.90678 3.57227,2.61718 2.19017,0.79199 3.381,1.78883 3.07812,2.57813 -0.2717,0.70803 0.0332,1.84921 0.67773,2.53516 0.92358,0.98289 0.58912,1.14329 -1.57812,0.75976 -1.5125,-0.26766 -2.75,-0.0987 -2.75,0.375 0,0.47373 0.84429,0.86133 1.87695,0.86133 1.03265,0 2.43836,0.675 3.12305,1.5 1.05626,1.27272 0.81027,1.51023 -1.62695,1.56445 l -2.87305,0.0625 3.25,1.61914 c 3.96871,1.97516 4.23626,3.47042 0.5,2.79493 l -2.75,-0.49805 2.75,1.17187 c 1.5125,0.64415 2.75,1.53469 2.75,1.97852 0,1.15215 -5.76063,1.00112 -6.48438,-0.16992 -0.33179,-0.53689 -0.87197,-3.23689 -1.19921,-6 C 159.98916,289.26034 159.39444,287 158.99414,287 c -0.40031,0 -1.96305,-1.86725 -3.47266,-4.14844 -2.23211,-3.37287 -2.64481,-4.89917 -2.20507,-8.17773 0.38949,-2.90385 -0.0263,-5.14387 -1.48633,-8.00586 -3.1989,-6.27036 -4.78655,-11.41089 -6.9082,-22.36719 -1.08619,-5.60904 -2.61366,-12.00744 -3.39454,-14.2207 l -1.41992,-4.02539 7.19727,0.45508 C 159.04243,227.24963 162,227.94371 162,229.96094 162,232.47451 165.89776,241 167.04688,241 c 1.21037,0 1.19662,-0.1223 -0.98243,-8.5 l -1.82031,-7 -6.71484,-0.67578 c -3.69308,-0.37201 -6.90049,-0.86142 -7.12696,-1.08789 -0.22647,-0.22647 0.0457,-2.82783 0.60547,-5.7793 1.0922,-5.75915 0.30718,-12.12508 -2.44531,-19.83203 -0.85953,-2.40665 -1.5625,-4.98016 -1.5625,-5.71875 0,-2.29366 2.40075,-0.54682 4.61914,3.36133 2.7239,4.79875 9.0434,20.76412 9.88867,24.98242 0.35818,1.7875 1.10031,3.25 1.65039,3.25 2.00769,0 -0.36693,-13.08064 -3.875,-21.3418 -1.90538,-4.48701 -3.71292,-9.0582 -4.01562,-10.1582 -0.3027,-1.1 -1.22354,-2.77829 -2.04688,-3.73047 -1.26644,-1.46463 -1.28852,-1.98405 -0.14062,-3.36719 2.01346,-2.42606 3.78431,-8.204 3.19922,-10.4414 -0.57293,-2.19088 0.69767,-2.58358 2.50781,-0.77344 2.11999,2.11999 17.21477,1.07531 24.35742,-1.68555 z M 209,185.10742 c -3.35364,0.0596 -15.2432,5.07168 -15.75781,6.64258 -0.57769,1.7635 0.55444,1.53411 6.25781,-1.27148 2.75,-1.35277 5.70121,-2.46375 6.55859,-2.46875 0.85738,-0.005 2.43238,-0.67101 3.5,-1.47852 1.87234,-1.41574 1.85282,-1.46673 -0.55859,-1.42383 z m 20.11328,7.45703 c 2.20889,-0.11317 3.76071,-0.11262 4.04883,0.0566 0.36464,0.21452 0.97824,2.30015 1.36328,4.63477 0.38504,2.33462 1.14182,4.79193 1.68164,5.46094 0.54016,0.66901 0.78715,1.79401 0.54883,2.5 -0.23832,0.70599 0.12503,2.6332 0.80859,4.2832 1.5452,3.72987 1.2449,16.0899 -0.43164,17.76367 -1.92032,1.91715 -10.25828,1.23866 -14.18359,-1.15429 -4.68162,-2.85402 -5.79229,-2.64824 -2.87305,0.53124 l 2.42383,2.64063 -5,-0.57031 c -2.75,-0.31319 -5.7875,-0.8732 -6.75,-1.2461 -1.00977,-0.39121 -1.75,-0.21954 -1.75,0.40821 0,0.59836 1.125,1.37168 2.5,1.71679 1.375,0.3451 2.5,1.0585 2.5,1.58594 0,0.52745 -0.7875,0.73207 -1.75,0.45508 -0.9625,-0.277 -3.66481,-1.05337 -6.00586,-1.72656 -2.34104,-0.67319 -4.52503,-0.95739 -4.85156,-0.63086 -1.16559,1.16559 0.62504,2.47157 5.10742,3.72656 2.50334,0.70089 4.79506,1.66904 5.09375,2.15234 0.2987,0.4833 -0.81235,2.33454 -2.4707,4.11328 -5.03831,5.40415 -22.40813,25.25096 -25.96485,29.66797 -3.48128,4.32332 -3.59973,7.06641 -0.30664,7.06641 1.35044,0 2.70842,1.69312 4.61328,5.75 3.73404,7.95259 4.10366,8.94171 5.87891,15.75 2.46186,9.4415 2.53772,10.16297 2.74414,25.76758 0.10744,8.12223 0.40821,15.87941 0.66797,17.23828 0.76198,3.98602 2.2709,1.76623 2.08789,-3.07227 -0.23246,-6.14586 0.68469,-6.4578 3.28125,-1.11328 2.4514,5.04572 1.8189,6.99066 -2.84961,8.76563 -2.04899,0.77902 -2.23317,1.32333 -1.66211,4.89453 l 0.64258,4.01953 -3.37891,-0.13672 c -6.93984,-0.27979 -7.43125,-0.63438 -9.22461,-6.66016 -0.93358,-3.13688 -2.11318,-8.29511 -2.62304,-11.46289 -0.50986,-3.16779 -1.57743,-6.99279 -2.3711,-8.5 -0.79367,-1.50722 -2.10904,-4.54023 -2.92382,-6.74023 -0.81479,-2.2 -2.47499,-6.57275 -3.68946,-9.7168 -1.21446,-3.14405 -2.60173,-8.09405 -3.08203,-11 -2.22843,-13.48282 -3.18743,-17.85092 -5.61719,-25.57617 l -2.60937,-8.29492 2.58203,-6.20508 c 1.42002,-3.41352 3.36371,-8.68203 4.31836,-11.70703 2.0141,-6.38204 6.38204,-13.53065 14.55273,-23.81641 6.16279,-7.7581 6.11949,-7.60983 6.26367,-21.18359 l 0.0469,-4.5 7.5,-1.23633 c 4.125,-0.68025 8.625,-1.6838 10,-2.23047 1.95997,-0.77922 14.48662,-2.12923 21.11328,-2.46875 z m 91.92188,29.69727 c -1.20598,-0.16164 -2.42919,0.40971 -4.4668,1.60547 -3.86984,2.27099 -4.19573,3.64375 -0.92969,3.91406 1.46258,0.12104 3.27876,0.73552 4.03516,1.36328 2.17349,1.80384 2.84273,0.0831 0.83203,-2.13867 -3.16646,-3.4989 -0.25064,-2.16155 3.70117,1.69726 3.10922,3.03607 3.79297,4.40561 3.79297,7.60547 0,5.33153 -2.50125,14.55318 -6.04883,22.29883 -1.62418,3.54616 -3.41774,8.34758 -3.98437,10.66992 -0.56664,2.32233 -1.32482,5.34766 -1.68555,6.72266 -1.21614,4.63559 -0.5114,13.71832 1.27539,16.44531 0.94324,1.43956 1.95144,2.38059 2.24024,2.0918 0.28879,-0.28879 -0.28694,-1.42298 -1.2793,-2.51953 -1.48568,-1.64166 -1.69704,-3.03421 -1.18946,-7.89063 0.70171,-6.71359 4.27211,-18.10294 8.14258,-25.97656 6.81693,-13.86756 6.79013,-27.0795 -0.0664,-33.09961 -1.97435,-1.7335 -3.16317,-2.62742 -4.36914,-2.78906 z m -8.96289,6.1875 c -0.49797,0.0506 -0.8962,0.26793 -1.1543,0.68555 -0.87173,1.41049 0.90062,3.09514 2.32812,2.21289 1.41452,-0.87422 5.61559,2.48471 7.39453,5.91211 0.92512,1.78232 1.8623,2.70881 2.08204,2.05859 1.17278,-3.47016 -7.16462,-11.22347 -10.65039,-10.86914 z m 10.46875,2.98437 c -0.72292,-0.1521 -0.72764,0.91514 0.0664,2.98438 0.33384,0.86999 1.00884,1.58203 1.5,1.58203 1.43081,0 1.02955,-2.64144 -0.60742,-4 -0.39755,-0.32994 -0.71801,-0.5157 -0.95898,-0.56641 z m -10.66797,3.78907 c -1.43827,-0.16703 -2.71928,0.21245 -3.55078,1.34961 -0.7277,0.99519 -1.32227,3.27566 -1.32227,5.0664 0,3.1597 0.11883,3.25082 4.00977,3.09571 2.94835,-0.11762 4.59538,0.42546 6.22265,2.05273 2.92452,2.92452 3.45474,2.80228 4.00196,-0.92578 0.6911,-4.70885 -5.04652,-10.13759 -9.36133,-10.63867 z m 0.79297,3.80859 c 3.07405,0.0345 6.33398,2.00439 6.33398,3.82813 0,1.33466 -0.3704,1.3095 -4.95508,-0.34571 -4.38377,-1.58268 -5.15322,-3.52482 -1.3789,-3.48242 z m -99.41407,1.01563 c 0.4915,-0.0723 0.74458,0.32426 0.73438,1.20312 -0.008,0.6875 0.87475,4.175 1.96289,7.75 1.08814,3.575 3.58829,11.80114 5.55469,18.28125 1.96641,6.48011 3.30857,12.21447 2.98242,12.74219 -1.54299,2.49661 4.16383,15.38725 8.62305,19.47656 6.59872,6.05136 7.89062,7.59451 7.89062,9.42578 0,1.99367 -0.17079,2.03765 -2.75,0.7168 -4.58926,-2.35022 -19.09351,-6.86417 -20.46484,-6.36914 -1.51907,0.54837 -0.0385,1.21633 14.18164,6.40625 8.35834,3.05055 10.77481,4.37943 12,6.5957 1.36141,2.46272 1.36435,2.88281 0.0332,3.73438 -1.28795,0.82393 -1.25888,0.9615 0.20898,0.97461 2.14045,0.0192 7.0372,5.16983 5.94922,6.25781 -0.4421,0.4421 -2.50066,0.0949 -4.57422,-0.77149 -6.89535,-2.88106 -5.99664,-0.92334 1.01758,2.2168 6.53814,2.927 11.37381,6.67112 10.16992,7.875 -0.3028,0.3028 -7.11787,-2.1453 -15.14257,-5.44141 -8.74338,-3.59132 -14.83759,-5.59116 -15.20899,-4.99023 -0.34083,0.55154 -0.4621,1.11232 -0.26953,1.24805 1.27685,0.89998 12.81509,5.62109 13.73828,5.62109 0.62619,0 1.91997,0.39698 2.875,0.88281 2.93814,1.49464 6.52218,2.88847 11.6543,4.53321 2.7044,0.86671 5.7419,2.32206 6.75,3.23437 2.39669,2.16897 2.452,4.80025 0.082,3.89453 -0.9625,-0.36786 -9.0875,-3.61577 -18.05664,-7.2168 -8.96914,-3.60099 -16.5894,-6.26412 -16.93359,-5.91992 -0.89104,0.89104 0.70006,2.07737 4.74023,3.53321 5.07919,1.83025 7.18941,2.65357 10,3.90234 4.1475,1.84277 16.24561,6.22837 20.33398,7.37109 2.84816,0.79608 4.24507,1.93185 5.42969,4.41602 0.87716,1.83941 1.33333,3.60611 1.01367,3.92578 -0.48009,0.48009 -12.22316,-4.22663 -30.60937,-12.26953 -1.83217,-0.80146 -3.5581,-1.23097 -3.83594,-0.95313 C 232.65093,343.01526 263.83824,358 265.9375,358 c 0.58406,0 1.0625,1.125 1.0625,2.5 0,2.93485 0.0431,2.92189 -3.58984,1.03711 -1.55025,-0.8043 -3.06512,-1.19285 -3.36524,-0.86328 -0.30011,0.32958 -0.006,0.79296 0.6543,1.02929 0.6599,0.23636 2.28219,1.28137 3.60547,2.32227 2.30378,1.81215 2.35298,2.09623 1.15234,6.68359 -0.77004,2.94212 -1.74558,4.67164 -2.5293,4.48243 -0.70191,-0.16946 -6.70994,-2.95747 -13.35156,-6.19727 -6.64163,-3.23979 -12.41543,-5.55257 -12.83008,-5.13867 -0.64576,0.6446 17.91127,10.08433 20.00782,10.17773 1.6051,0.0715 5.36354,3.96884 4.76367,4.93946 -1.08402,1.75397 -4.83437,1.01741 -9.23047,-1.8125 -2.31683,-1.49143 -8.27933,-4.70617 -13.25,-7.14258 C 229.8745,365.52645 228.15931,364 232.27734,364 234.79206,364 239,361.44136 239,359.91211 c 0,-2.05182 -2.9413,-1.97084 -5.05078,0.13867 -1.99781,1.99781 -2.77797,2.13111 -8.32617,1.42383 -3.36746,-0.42928 -9.46931,-0.82375 -13.5586,-0.87695 -7.29834,-0.0951 -7.47028,-0.15707 -9.35156,-3.36328 l -1.91601,-3.26758 3.60156,-3.98633 c 1.98088,-2.1926 3.60156,-4.20901 3.60156,-4.48242 0,-1.17487 -2.05855,-0.32028 -4.81836,2.00195 -4.94819,4.16363 -5.87142,2.66154 -1.5332,-2.49414 2.04292,-2.42787 3.18647,-3.01376 5,-2.55859 2.87485,0.72154 3.07151,-0.51621 0.35156,-2.21485 -1.1,-0.68696 -2,-1.85797 -2,-2.60156 0,-0.74359 -1.06598,-2.92343 -2.36914,-4.84375 -1.85647,-2.73566 -2.51601,-5.41686 -3.04688,-12.38867 -0.37265,-4.89394 -1.15044,-11.32006 -1.72851,-14.2793 -0.78024,-3.99419 -0.75289,-5.56475 0.10937,-6.09766 1.19206,-0.73673 0.82301,-1.66363 -8.32617,-20.85937 -2.19239,-4.59983 -3.56287,-8.63445 -3.05664,-9 0.50466,-0.36442 4.51082,-4.93711 8.90235,-10.16211 4.39151,-5.225 8.47554,-9.95 9.07617,-10.5 0.60062,-0.55 2.55805,-2.9125 4.34961,-5.25 2.03865,-2.65989 3.52263,-4.08258 4.34179,-4.20312 z m 95.34375,7.3164 c -2.55537,0.25362 -3.5957,1.92196 -3.5957,5.3711 0,3.40506 0.0795,3.4731 3.29883,2.86914 2.18763,-0.4104 3.95581,-0.12129 5.25,0.85742 2.41061,1.82298 3.74427,1.9424 3.22461,0.28906 -0.21608,-0.6875 -1.93978,-2.0355 -3.83203,-2.99609 -1.89225,-0.96058 -3.44141,-2.30445 -3.44141,-2.98633 0,-2.27944 3.2007,-1.89099 6.36719,0.77344 2.16187,1.81909 3.13281,2.19245 3.13281,1.20312 0,-2.22044 -3.11509,-4.42243 -7.32617,-5.17773 -1.20579,-0.21627 -2.22634,-0.28767 -3.07813,-0.20313 z m -1.91406,10.82617 C 305.48136,258.36032 304.5,259.175 304.5,260 c 0,1.14442 0.98271,1.42228 4.14453,1.17383 2.27933,-0.1791 4.44296,0.1584 4.80859,0.75 0.82782,1.33944 1.54688,1.38678 1.54688,0.10156 0,-1.48721 -5.85443,-4.18671 -8.31836,-3.83594 z M 150.16406,281 c 1.04266,0 8.77522,15.47863 8.83203,17.67969 0.003,0.0987 -3.03143,-0.68882 -6.74218,-1.75 -11.26279,-3.22087 -11.42199,-2.03155 -0.25391,1.90039 5.775,2.0332 10.78371,3.30055 11.13086,2.8164 0.83446,-1.16376 8.05725,1.23806 7.31836,2.4336 -0.31252,0.50568 -1.27098,0.91992 -2.13086,0.91992 -1.27633,0 -1.33465,0.27545 -0.31836,1.5 0.68469,0.825 1.81236,1.5 2.50586,1.5 0.69351,0 1.53165,1.0125 1.86328,2.25 0.94562,3.52855 0.7493,4.01297 -0.94141,2.32227 C 169.79228,310.93682 168,310.48352 168,311.70703 c 0,0.38931 1.66651,2.41431 3.70312,4.5 4.86835,4.98563 3.11168,4.80833 -8.70312,-0.88281 -8.14588,-3.92384 -19.7111,-8.87032 -23,-9.83594 -4.82692,-1.4172 -4.87053,-2.06774 -0.69922,-10.49219 C 142.89347,287.74022 148.12504,281 150.16406,281 Z m 184.05664,9.59766 c -0.7076,0.1348 -2.05046,0.87412 -4.59179,2.32812 -2.95445,1.69036 -6.21695,3.11903 -7.25,3.17383 -1.41716,0.0752 -1.26517,0.2963 0.62109,0.90039 1.375,0.44035 2.75331,0.84557 3.0625,0.90039 0.30919,0.0548 2.44669,-0.81099 4.75,-1.92383 2.89727,-1.3998 4.1875,-2.65593 4.1875,-4.07422 0,-0.96986 -0.0717,-1.43949 -0.7793,-1.30468 z m -315.945309,6.79296 c -1.059926,1.05994 0.861014,2.26374 8.224609,5.15235 3.85,1.51028 9.25,3.8305 12,5.15625 2.75,1.32575 9.725,4.37124 15.5,6.76758 5.775,2.39634 13.425,5.96314 17,7.92773 3.575,1.96459 7.625,4.06604 9,4.66992 1.375,0.60388 4.075,1.91273 6,2.90821 1.925,0.99547 4.0625,1.85839 4.75,1.91796 3.999763,0.34704 -1.259864,-2.7135 -22.5,-13.09765 -25.170254,-12.30554 -48.905894,-22.471 -49.974609,-21.40235 z m 121.865229,1.83008 c -0.38256,-0.0646 -0.63075,-0.0657 -0.70507,0.01 -0.52743,0.52744 7.32272,4.68977 9.8125,5.20312 0.68868,0.142 2.37695,0.71405 3.75195,1.26953 1.375,0.55555 3.175,1.26367 4,1.57422 2.29151,0.86258 3.17309,0.81302 2.58008,-0.14648 -0.29566,-0.47839 -2.0093,-1.42935 -3.8086,-2.11133 -1.7993,-0.68198 -6.08928,-2.38531 -9.5332,-3.78515 -2.58295,-1.04992 -4.94988,-1.81975 -6.09766,-2.01368 z m 163.22657,0.97266 c -0.35719,0.11631 -0.61256,0.39509 -0.86328,0.80078 -0.33814,0.54712 3.34627,2.98218 8.18945,5.41016 8.82013,4.42171 11.96325,5.46713 10.80664,3.5957 -0.33992,-0.55 -1.07604,-1 -1.63477,-1 -0.55873,0 -4.14474,-2.025 -7.9707,-4.5 -5.47393,-3.54107 -7.45578,-4.65558 -8.52734,-4.30664 z m -100.54883,0.17969 c -0.3745,-0.2229 -0.96666,0.0571 -1.31641,0.62304 -0.35161,0.56891 1.29485,1.88555 3.68164,2.94532 5.26809,2.33912 9.81641,2.63052 9.81641,0.6289 0,-0.93607 -1.98371,-1.83715 -5.75,-2.61133 -3.1625,-0.65008 -6.05715,-1.36304 -6.43164,-1.58593 z m 89.67383,0.73633 c -0.91403,-0.1919 -1.49219,0.0727 -1.49219,0.84179 0,0.52267 0.7875,1.40815 1.75,1.96875 0.9625,0.56061 2.65,1.02235 3.75,1.02735 1.82795,0.007 1.78493,-0.15997 -0.5,-1.94727 -1.34387,-1.0512 -2.59378,-1.69873 -3.50781,-1.89062 z m -159.86524,4.82812 c 2.45193,0.0284 9.87427,2.70264 26.87305,9.60352 4.95,2.00952 9.60744,4.15277 10.34961,4.76171 0.74216,0.60894 2.54216,1.12755 4,1.15235 2.13453,0.0363 2.71199,0.58035 2.9668,2.79492 0.17403,1.5125 -0.051,2.71041 -0.5,2.66211 -0.44903,-0.0483 -4.86641,-2.05062 -9.81641,-4.44922 -4.95,-2.39861 -9.68722,-4.38401 -10.52734,-4.41211 -0.84013,-0.0281 -2.41513,-0.66097 -3.5,-1.40625 -1.08488,-0.74528 -5.12266,-2.38974 -8.97266,-3.6543 -5.85523,-1.92318 -9.87272,-3.773 -12.4707,-5.74218 -0.25907,-0.19637 0.11763,-0.72087 0.83789,-1.16602 0.16085,-0.0994 0.40949,-0.14859 0.75976,-0.14453 z M 21.441406,308.55664 C 21.158599,308.61505 21,308.78199 21,309.06445 c 0,0.55046 1.0125,1.40688 2.25,1.9043 3.579141,1.43864 5.527188,1.25563 3.222656,-0.30273 -2.210308,-1.49464 -4.182829,-2.28462 -5.03125,-2.10938 z M 274.80273,309 c -1.72118,0 -0.0172,1.41968 4.68165,3.89844 2.19186,1.15625 4.44186,2.09243 5,2.08203 C 285.91117,314.95376 276.27276,309 274.80273,309 Z m -66.11718,2.27148 c -0.6411,0.2137 0.85474,1.08249 3.32422,1.93164 5.68852,1.95606 5.99023,1.99937 5.99023,0.83594 0,-1.10393 -7.56332,-3.35129 -9.31445,-2.76758 z M 31.941406,312 c -0.582459,0 -0.781325,0.45 -0.441406,1 0.339919,0.55 0.816053,1 1.058594,1 C 32.801135,314 33,313.55 33,313 c 0,-0.55 -0.476135,-1 -1.058594,-1 z m 191.921874,0 c -2.46056,0 0.65019,1.87666 8.13672,4.9082 4.125,1.67035 8.08863,3.04916 8.80859,3.06446 2.12396,0.0451 0.42725,-1.69565 -2.32617,-2.38672 -1.39484,-0.35008 -4.9702,-1.75049 -7.94531,-3.11133 C 227.562,313.11376 224.55852,312 223.86328,312 Z m -13.14648,3 c -2.04771,0 -0.25122,1.97949 3.0332,3.3418 4.30096,1.78395 6.25,2.03224 6.25,0.79492 C 220,318.35794 212.46486,315 210.7168,315 Z M 18.5,316.88672 21,318.4082 c 2.77955,1.69177 5.990036,2.16925 4.449219,0.66211 C 24.926719,318.55923 23.15,317.85898 21.5,317.51367 Z M 119,317 c -0.55,0 -1,0.45 -1,1 0,0.55 0.45,1 1,1 0.55,0 1,-0.45 1,-1 0,-0.55 -0.45,-1 -1,-1 z m 155.48242,1 c 0.26541,0 6.11541,2.78409 13,6.1875 11.58856,5.72882 12.51758,6.39667 12.51758,9 0,1.54659 -0.3375,2.77938 -0.75,2.73828 -1.56247,-0.15561 -13.98368,-6.69493 -19.5,-10.26562 -3.79342,-2.45545 -5.75,-4.39223 -5.75,-5.69141 0,-1.0831 0.21701,-1.96875 0.48242,-1.96875 z m -47.58008,1.7168 C 226.35549,319.692 226,319.7978 226,320.08398 c 0,0.53912 1.0125,1.38735 2.25,1.88477 2.96654,1.1924 5.00527,1.253 4.31055,0.12891 -0.655,-1.05981 -4.01765,-2.30656 -5.65821,-2.38086 z m -110.63476,0.30664 c -0.76718,0.0417 -2.05962,1.4738 -3.49805,4.0625 -1.24867,2.24722 -3.05593,5.50972 -4.01758,7.25 -0.96164,1.74028 -1.74914,4.45853 -1.75,6.04101 -0.002,2.84991 -0.0494,2.87237 -5.00195,2.39649 -2.75,-0.26424 -5,-0.20416 -5,0.13281 0,1.00653 4.28637,3.38668 7.5,4.16406 1.65,0.39914 3.28573,0.77183 3.63477,0.82813 0.34903,0.0563 0.63476,-2.16734 0.63476,-4.94141 0,-2.90655 0.60497,-5.76675 1.42774,-6.75 0.78527,-0.93843 2.25584,-3.61953 3.26757,-5.95703 1.01172,-2.3375 2.22104,-4.25 2.6875,-4.25 0.46647,0 0.84766,-0.675 0.84766,-1.5 0,-1.02558 -0.27211,-1.50158 -0.73242,-1.47656 z m -88.240236,0.41015 c -0.431711,-0.0773 -0.714018,-0.0801 -0.802735,0.01 -0.292428,0.29243 2.12405,1.6745 5.371094,3.07226 3.247043,1.39777 6.804297,2.94819 7.904297,3.44532 2.996226,1.3541 4.113919,1.211 2.464844,-0.31641 -1.626515,-1.50651 -11.915527,-5.66959 -14.9375,-6.21094 z M 210,321.57422 c 0,0.2561 2.3625,1.54407 5.25,2.86328 5.81995,2.65897 8.09856,3.10817 7.55859,1.48828 -0.19708,-0.59125 -0.79773,-1.10492 -1.33398,-1.14062 -0.53625,-0.0357 -3.33711,-0.87766 -6.22461,-1.8711 -2.8875,-0.99345 -5.25,-1.59594 -5.25,-1.33984 z m 124.54883,4.94531 c -0.42149,0.0533 -1.23476,0.64194 -2.79883,1.81445 -3.21037,2.40669 -10.4716,4.84133 -18.25,6.11719 -6.53121,1.07129 -7.448,1.54561 -9.08789,4.7168 -1.89335,3.66134 -2.52031,5.98852 -3.14649,11.6543 -0.52809,4.77847 -2.37793,6.21295 -5.49609,4.26562 -2.47839,-1.54777 -3.86438,-0.36219 -1.55273,1.32813 1.13539,0.83021 1.37726,1.58953 0.71875,2.24804 -0.65851,0.65851 -0.2848,1.89414 1.10742,3.66406 2.10831,2.6803 3.95703,3.4886 3.95703,1.73047 0,-0.51754 -0.45,-1.21867 -1,-1.55859 -0.55,-0.33992 -1,-1.71605 -1,-3.05859 0,-2.88611 1.95849,-3.17064 5.56641,-0.80664 3.46967,2.27341 3.7968,1.36332 0.96484,-2.6875 -2.25378,-3.22379 -2.32937,-3.75365 -1.17383,-8.19336 1.6125,-6.19538 3.01514,-7.63211 5.3711,-5.5 2.24148,2.02851 15.26554,7.91538 16.55859,7.48437 0.53145,-0.17715 -3.14068,-2.30709 -8.16016,-4.73242 C 312.10748,342.58054 308,340.30971 308,339.95898 c 0,-1.07496 4.5823,-2.8043 12.94922,-4.88671 C 331.06084,332.55563 335,330.55181 335,327.92383 c 0,-0.97464 -0.0297,-1.45762 -0.45117,-1.4043 z M 276.56641,327 c 0.31149,0 5.48782,2.5875 11.50195,5.75 6.89792,3.62724 10.842,6.27401 10.68359,7.16797 -0.35965,2.02956 -1.98384,2.30618 -4.27148,0.72851 -1.08975,-0.75155 -5.69297,-3.26947 -10.23047,-5.5957 C 278.27197,331.98603 276,330.29434 276,328.91016 276,327.85953 276.25492,327 276.56641,327 Z M 123.875,327.21484 c -0.26942,-0.003 -0.46247,0.0387 -0.55273,0.12891 -0.36106,0.36106 -0.46745,0.79796 -0.23829,0.9707 0.98021,0.73884 33.93822,13.55055 42.41602,16.48828 4.06633,1.40907 4.13769,1.40179 2.46484,-0.24023 -1.30542,-1.28135 -5.91401,-3.15837 -29.96484,-12.21094 -3.575,-1.34561 -8.19166,-3.17192 -10.25977,-4.05664 -1.55107,-0.66352 -3.05698,-1.07042 -3.86523,-1.08008 z M 103.29297,327.375 C 103.11172,327.4549 103,327.65018 103,327.94141 c 0,0.58246 0.45,1.05859 1,1.05859 0.55,0 1,-0.19887 1,-0.44141 0,-0.24254 -0.45,-0.71867 -1,-1.05859 -0.275,-0.16996 -0.52578,-0.20493 -0.70703,-0.125 z m -56.257814,0.66602 C 46.376639,328.05316 46,328.37383 46,329 c 0,0.55 0.477844,1 1.0625,1 0.584655,0 4.072155,1.38989 7.75,3.08789 9.70793,4.482 14.486091,6.61189 16.1875,7.21875 2.299901,0.82032 2.330282,0.79625 1,-0.80664 -0.684689,-0.825 -1.613784,-1.5 -2.064453,-1.5 -0.758135,0 -16.224096,-6.95451 -20.171875,-9.07031 -1.129499,-0.60533 -2.069998,-0.90082 -2.728516,-0.88867 z m 161.406254,0.4746 c -0.27188,0.0712 -0.44141,0.24926 -0.44141,0.51563 0,0.53274 0.675,0.96875 1.5,0.96875 0.825,0 1.5,-0.17643 1.5,-0.39258 0,-0.21616 -0.675,-0.65216 -1.5,-0.96875 -0.4125,-0.15829 -0.78672,-0.19428 -1.05859,-0.12305 z m 4.44336,1.7754 c -0.30552,-0.0211 -0.51421,0.006 -0.59961,0.0918 -0.50577,0.50576 4.56076,3.0727 9.71484,4.92188 3.06554,1.09985 4.50708,0.73606 2.47266,-0.62305 -2.56567,-1.71401 -9.44929,-4.24261 -11.58789,-4.39062 z m 118.83984,2.91796 c -0.17488,0.003 -0.31946,0.0519 -0.42188,0.1543 -0.40967,0.40966 -0.0825,1.16411 0.72657,1.67578 2.43457,1.53967 3.51636,1.07692 1.70898,-0.73047 -0.69733,-0.69729 -1.48904,-1.10916 -2.01367,-1.09961 z M 206.81445,334 c -2.73004,0 1.15024,2.04591 10.18555,5.37109 9.94555,3.66018 12,4.1471 12,2.83789 0,-0.43528 -3.9375,-2.07474 -8.75,-3.64257 -4.8125,-1.56783 -9.53129,-3.23711 -10.48633,-3.70899 C 208.80863,334.38553 207.48191,334 206.81445,334 Z m -90.29101,2 c -2.68792,0 -0.7552,1.79217 2.73828,2.53906 1.78119,0.38081 6.57502,2.43966 10.6543,4.57617 4.07928,2.1365 7.97501,3.88477 8.65625,3.88477 0.68125,0 2.9695,0.86798 5.08398,1.92773 7.51003,3.76391 12.97548,6.20346 23.34375,10.42383 9.08815,3.6993 11.47079,4.26898 17.72266,4.23438 4.7098,-0.0261 6.8822,-0.37952 6.24414,-1.01758 -0.53819,-0.53819 -3.53962,-0.919 -6.67188,-0.8457 -3.13227,0.0733 -6.61885,-0.37817 -7.74609,-1.00391 -1.12724,-0.62573 -2.62567,-1.02033 -3.33008,-0.87695 -0.70441,0.14339 -7.01993,-2.6183 -14.03516,-6.13672 C 145.77072,346.97798 119.31974,336 116.52344,336 Z m 206.99023,0.26758 C 323.19648,336.305 323,336.45351 323,336.70703 c 0,0.50706 2.1375,1.86085 4.75,3.00781 2.6125,1.14697 5.36821,2.13075 6.12305,2.18555 2.50625,0.18203 -0.82401,-2.79017 -4.23047,-3.77539 -1.72797,-0.49977 -3.93008,-1.22956 -4.89258,-1.62305 -0.48125,-0.19674 -0.91914,-0.2718 -1.23633,-0.23437 z m -295.183592,0.76367 c -2.837717,0.0472 -0.204392,1.26514 10.669922,4.9375 5.225,1.76453 10.124394,3.73038 10.886719,4.36914 0.762326,0.63876 3.237326,1.9237 5.5,2.85547 4.900845,2.01817 4.85644,2.00869 4.265625,1.05273 C 58.406136,348.22968 31.72925,336.97475 28.330078,337.03125 Z M 317.56641,339 c -2.88382,0 -0.81534,1.55064 4.43359,3.32422 2.475,0.83629 6.075,2.21259 8,3.05859 4.25007,1.86783 5.28433,1.97016 4.78516,0.47266 C 334.34135,344.52404 320.46655,339 317.56641,339 Z m -105.21485,4.31445 c -0.24993,0.24993 1.03209,1.0101 2.84766,1.68946 1.81558,0.67936 4.87578,1.83717 6.80078,2.57226 1.925,0.73509 4.4,1.34261 5.5,1.34961 1.78256,0.012 1.81713,-0.0925 0.31836,-0.9668 -2.45127,-1.43001 -14.93307,-5.17826 -15.4668,-4.64453 z m -97.43554,0.1211 c -0.92314,0.35645 14.34579,8.14263 23.58593,11.9414 3.84941,1.58256 8.79805,3.69883 10.99805,4.70117 2.2,1.00237 7.68391,3.17175 12.18555,4.82227 4.50163,1.65053 9.00163,3.426 10,3.94531 0.99836,0.51931 4.51445,2.33035 7.81445,4.02344 6.78952,3.48341 7.5,3.65543 7.5,1.82227 0,-1.15746 -3.72218,-3.12862 -18.5,-9.79883 -2.2,-0.99301 -10.3,-4.14329 -18,-7 -7.7,-2.85672 -18.1287,-7.1344 -23.17578,-9.50586 -5.04708,-2.37146 -10.44708,-4.5855 -12,-4.91992 -0.21205,-0.0457 -0.34666,-0.055 -0.4082,-0.0312 z m -83.802739,1.99414 c -1.138691,0.20307 1.681423,2.48861 5.962891,4.20703 2.982873,1.19721 5.536328,2.21813 5.673828,2.26953 0.1375,0.0514 0.25,-0.25476 0.25,-0.67969 0,-0.85286 -4.920845,-3.59659 -9.335938,-5.20703 -1.352034,-0.49317 -2.171217,-0.65753 -2.550781,-0.58984 z m 180.820309,0.59179 c -0.54808,0.0246 -0.62127,0.69243 0.0742,1.99219 1.2566,2.34797 7.70228,6.60958 12.88086,8.51563 3.53935,1.30271 9.11133,1.92067 9.11133,1.00976 0,-0.25369 -2.1375,-1.09798 -4.75,-1.875 -5.57676,-1.65868 -12.01435,-5.09968 -14.53906,-7.77148 -1.20652,-1.27682 -2.22927,-1.89571 -2.77735,-1.8711 z m 97.38282,1.32813 c -0.64393,0.64394 3.89732,3.18946 10.18359,5.70898 3.3,1.32263 7.35,3.19953 9,4.16993 1.65,0.97041 3.5625,1.76557 4.25,1.76757 2.00514,0.006 1.44308,-1.56187 -1,-2.78906 -4.70449,-2.36312 -22.0712,-9.21981 -22.43359,-8.85742 z m -76.49805,0.002 c -0.3745,-0.21142 -0.95374,0.0563 -1.28711,0.59571 -0.66114,1.06976 6.60201,5.02313 12.96875,7.05859 2.2,0.70335 4.88778,1.88998 5.97266,2.63672 1.95487,1.34557 5.52734,1.86692 5.52734,0.80664 0,-0.30306 -1.6875,-1.25299 -3.75,-2.11133 -3.45814,-1.43915 -17.86463,-8.10167 -19.43164,-8.98633 z M 20.941406,348 C 20.423865,348 20,348.45 20,349 c 0,0.55 0.701135,1 1.558594,1 0.857463,0 1.281325,-0.45 0.941406,-1 -0.339919,-0.55 -1.041053,-1 -1.558594,-1 z m 264.732424,1.08008 c -0.49081,-0.006 -0.46575,0.46572 0.32617,1.41992 0.68469,0.825 1.95168,1.5 2.81445,1.5 1.2558,0 1.18091,-0.2934 -0.37304,-1.46875 -1.26982,-0.96043 -2.27677,-1.44478 -2.76758,-1.45117 z m 20.82422,1.12304 c -0.24328,-0.0222 -0.46501,-0.003 -0.65039,0.0664 -0.88773,0.33054 -0.49379,0.86092 1.15234,1.55274 3.46257,1.45523 3.65884,1.40884 1.8125,-0.4375 -0.66663,-0.66663 -1.58464,-1.11513 -2.31445,-1.18165 z m -280.691409,0.84571 c -1.867609,0.0688 14.044738,7.57856 23.25,10.97265 4.276235,1.5767 10.850723,4.42156 14.609375,6.32227 3.758653,1.90071 7.020833,3.27649 7.25,3.05664 0.575534,-0.55217 0.513514,-0.59357 -7.916016,-5.09766 -4.125,-2.20408 -9.3,-4.57443 -11.5,-5.26757 -2.2,-0.69315 -8.586721,-3.23526 -14.193359,-5.64844 -5.606639,-2.41318 -10.781639,-4.36439 -11.5,-4.33789 z m 93.470699,0.34179 c -0.85027,0.85028 4.25709,3.44386 23.72266,12.04688 10.725,4.74003 22.65,10.36433 26.5,12.5 3.85,2.13568 7.39321,3.92356 7.87305,3.97266 1.87998,0.19249 -1.62977,-2.76377 -6.13086,-5.16407 -2.60804,-1.39079 -7.21719,-3.89303 -10.24219,-5.56054 -6.92704,-3.81849 -41.1171,-18.4005 -41.72266,-17.79493 z m -73.445309,0.83204 c -0.684201,0.22807 3.685075,2.76667 9.710938,5.64062 6.025863,2.87395 12.082031,5.86817 13.457031,6.6543 2.870673,1.64125 7.425082,1.97923 6.5,0.48242 -0.339919,-0.55 -1.01357,-1 -1.498047,-1 -0.484476,0 -5.295842,-2.06747 -10.691406,-4.59375 -5.395564,-2.52627 -11.256777,-5.2692 -13.023438,-6.0957 -1.766662,-0.8265 -3.770877,-1.31595 -4.455078,-1.08789 z M 67.5,354.03125 c -0.55,0 -0.325,0.43559 0.5,0.96875 0.825,0.53316 1.95,0.96875 2.5,0.96875 0.55,0 0.325,-0.43559 -0.5,-0.96875 -0.825,-0.53316 -1.95,-0.96875 -2.5,-0.96875 z m 249.5,1.50391 c 0,0.30927 1.9125,1.43115 4.25,2.49218 4.48357,2.03516 7.47702,2.62599 4.49023,0.88672 C 322.72569,357.15861 317,354.94516 317,355.53516 Z M 72.5,356.875 75,358.40234 c 2.90461,1.77441 5,2.02462 5,0.59766 0,-0.55 -0.5625,-1.00567 -1.25,-1.01367 -0.6875,-0.008 -2.375,-0.26054 -3.75,-0.5625 z m -48.042969,0.13672 c -0.505023,0.021 -0.229897,0.43717 1.070313,1.30664 2.643945,1.76804 12.243816,5.81668 15.972656,6.73633 1.65,0.40694 3.138635,0.78745 3.308594,0.84375 0.169959,0.0563 0.06203,-0.29804 -0.240235,-0.78711 -0.302262,-0.48907 -1.758225,-1.19352 -3.236328,-1.56445 -1.478102,-0.37098 -5.514591,-1.99638 -8.96875,-3.61133 -4.054508,-1.89563 -7.064545,-2.95883 -7.90625,-2.92383 z m 283.601559,0.0195 c -1.24626,0.0254 -1.16904,0.32623 0.38282,1.5 1.06762,0.80751 2.64262,1.455 3.5,1.4375 1.24626,-0.0254 1.16904,-0.32623 -0.38282,-1.5 -1.06762,-0.80751 -2.64262,-1.455 -3.5,-1.4375 z m 6.45899,3.28906 c -0.23807,0.0546 -0.0653,0.26411 0.48242,0.63477 0.825,0.55829 2.36185,1.02127 3.41602,1.0293 2.55844,0.0204 1.76091,-0.55253 -1.91602,-1.375 -1.09546,-0.24505 -1.74435,-0.34366 -1.98242,-0.28907 z M 13.5,361.23242 C 12.550391,361.48707 11.838585,378.64209 12.710938,380.25 12.934734,380.6625 13.514919,381 14,381 c 1.603615,0 1.751414,-1.41193 1.123047,-10.76758 -0.362767,-5.40118 -1.04028,-9.15628 -1.623047,-9 z m 231.62109,0.3125 c -0.71001,0.71001 3.14466,3.38723 4.92969,3.42383 0.8525,0.0175 2.00232,0.48474 2.55664,1.03906 0.55432,0.55432 3.00799,1.63408 5.45117,2.40039 5.46994,1.71564 5.94141,1.78282 5.94141,0.83594 0,-0.7934 -1.43021,-1.46696 -11.95117,-5.625 -3.54834,-1.40235 -6.66623,-2.33574 -6.92774,-2.07422 z m 62.48438,0.58008 c -0.38883,-0.0239 -0.5955,0.0452 -0.59375,0.2168 0.006,0.63655 3.49361,2.57031 7.75,4.29687 4.25639,1.72656 8.1056,2.91952 8.55469,2.65039 1.17068,-0.70157 0.99179,-0.8043 -8.08594,-4.63281 -3.66149,-1.54422 -6.4585,-2.4596 -7.625,-2.53125 z m -92.41797,0.72656 c 2.99521,0.10116 6.66521,0.6143 7.3125,1.13672 0.55,0.44391 7.68071,4.17663 15.8457,8.29492 l 14.84571,7.48828 -4.19336,0.4004 c -3.50622,0.33436 -6.10012,-0.52191 -15.84571,-5.23243 -11.79335,-5.7003 -22.33121,-11.85951 -20.59765,-12.03711 0.71152,-0.0729 1.63441,-0.0845 2.63281,-0.0508 z m -105.33789,1.15625 c 1.65911,-0.23076 5.66341,1.04697 11.04492,3.59961 C 136.08369,374.81217 145,379.25741 145,379.625 c 0,0.58791 -9.32512,0.28494 -11,-0.35742 -0.825,-0.31641 -5.775,-3.05819 -11,-6.0918 -5.225,-3.03361 -10.50898,-6.00164 -11.74219,-6.5957 -1.23321,-0.59406 -2.246,-1.41758 -2.25,-1.83008 -0.004,-0.42075 0.28876,-0.66527 0.8418,-0.74219 z m 95.95508,0.0664 c 1.27803,0.2265 4.77018,1.82054 9.79101,4.49805 5.99689,3.19802 13.4918,7.09746 16.6543,8.66406 3.1625,1.5666 5.75,3.05275 5.75,3.30469 0,1.20085 -7.78443,0.15646 -9.92578,-1.33204 -1.33448,-0.92763 -6.50948,-3.49457 -11.5,-5.70312 -10.80947,-4.78372 -13.54323,-6.42352 -11.88086,-7.12891 0.65657,-0.27861 0.92615,-1.20646 0.59766,-2.0625 -0.0917,-0.2389 0.0877,-0.31573 0.51367,-0.24023 z m 124.73437,0.21484 c -0.22263,0.0653 -0.43154,0.20303 -0.63867,0.41016 -0.82852,0.82852 -0.37301,1.51357 1.74023,2.62305 3.6622,1.92267 4.35557,1.23057 1.56446,-1.56055 -1.20985,-1.20984 -1.99813,-1.66857 -2.66602,-1.47266 z m -25.53125,0.70703 C 304.47386,365.15505 304,365.88643 304,366.96094 c 0,1.43869 1.05406,2.24565 3.95703,3.02734 3.45671,0.9308 7.15282,3.51123 3.99219,2.78711 -0.65963,-0.15113 -1.40612,0.28711 -1.6582,0.97461 -0.25209,0.6875 0.20041,1.25 1.0039,1.25 0.80349,0 2.02039,0.675 2.70508,1.5 1.73541,2.09104 3.3318,1.87414 2.74414,-0.37305 -0.37675,-1.44067 -0.0579,-1.75956 1.38281,-1.38281 1.21782,0.31847 1.87305,-0.0378 1.87305,-1.01562 0,-0.9096 -2.668,-2.6272 -6.75,-4.34571 -3.7125,-1.56295 -6.90065,-3.18739 -7.08398,-3.61133 -0.16687,-0.38585 -0.38473,-0.62441 -0.61914,-0.73437 -0.17582,-0.0825 -0.36108,-0.094 -0.53907,-0.041 z m 21.34961,5.48633 c -1.20232,-0.0136 0.67253,2.22837 4.19141,4.21289 2.14129,1.20761 4.12984,1.95805 4.41992,1.66797 0.61135,-0.61135 -2.2205,-2.85895 -6.33008,-5.02344 -1.13742,-0.59907 -1.88047,-0.8529 -2.28125,-0.85742 z M 199.60938,372 c -2.91069,0 -1.62524,1.4572 3.67382,4.16797 4.72225,2.41572 7.7168,3.38602 7.7168,2.5 C 211,377.83067 201.0395,372 199.60938,372 Z m -136.648442,1.39062 c -0.260157,0.052 0.301562,0.59365 1.539062,1.43165 3.351005,2.26919 4.5,2.60027 4.5,1.29492 0,-0.48585 -0.7875,-1.10997 -1.75,-1.38672 -0.9625,-0.27674 -2.65,-0.82577 -3.75,-1.2207 -0.275,-0.0987 -0.452344,-0.13646 -0.539062,-0.11915 z m 219.748042,1.625 c 0.92999,0.12717 2.00194,0.66065 3.79102,1.67774 l 4,2.27344 -7.30859,0.0176 c -7.5326,0.0169 -8.36224,-0.76119 -3.42188,-3.21094 1.2211,-0.6055 2.00947,-0.88495 2.93945,-0.75782 z" />
  </g>
</svg>
