<?xml version="1.0" encoding="UTF-8" standalone="no"?>
<!-- Created with Inkscape (http://www.inkscape.org/) -->

<svg
   version="1.1"
   id="svg485"
   width="318"
   height="386"
   viewBox="0 0 318 386"
   sodipodi:docname="23.svg"
   inkscape:version="1.1.2 (0a00cf5339, 2022-02-04)"
   xmlns:inkscape="http://www.inkscape.org/namespaces/inkscape"
   xmlns:sodipodi="http://sodipodi.sourceforge.net/DTD/sodipodi-0.dtd"
   xmlns="http://www.w3.org/2000/svg"
   xmlns:svg="http://www.w3.org/2000/svg">
  <defs
     id="defs489" />
  <sodipodi:namedview
     id="namedview487"
     pagecolor="#505050"
     bordercolor="#eeeeee"
     borderopacity="1"
     inkscape:pageshadow="0"
     inkscape:pageopacity="0"
     inkscape:pagecheckerboard="0"
     showgrid="false"
     inkscape:zoom="1.9404145"
     inkscape:cx="159.24433"
     inkscape:cy="190.42323"
     inkscape:window-width="1920"
     inkscape:window-height="1043"
     inkscape:window-x="0"
     inkscape:window-y="0"
     inkscape:window-maximized="1"
     inkscape:current-layer="g491" />
  <g
     inkscape:groupmode="layer"
     inkscape:label="Image"
     id="g491">
    <path
       id="path495"
       style="fill:#000000"
       d="M 20.986328,5.3339844 C 17.406641,5.3813578 13.70625,5.4933433 10.75,5.6582031 1.1509896,6.1935067 0,6.4562287 0,8.1171875 0,9.7849783 0.80131815,9.9596837 7.75,9.8105469 12.0125,9.7190626 30.8,9.9542288 49.5,10.332031 c 78.25626,1.581042 102.27908,1.894094 145.49805,1.898438 37.09842,0.0037 45.86345,0.259591 47.47265,1.386719 2.31675,1.622716 9.12242,1.848752 10.0586,0.333984 0.42113,-0.681402 1.05738,-0.710344 1.81445,-0.08203 0.64075,0.531769 2.73737,1.156757 4.66016,1.388671 8.72472,1.05233 15.35937,0.723696 17.0957,-0.847656 1.29383,-1.170904 2.23001,-1.324216 3.55273,-0.583984 1.20611,0.674975 2.4192,0.670193 3.69336,-0.01172 1.14466,-0.612608 8.39457,-0.875364 18.27539,-0.664062 L 318,13.5 V 11.25 C 317.99971,8.5673912 321.88466,8.7731048 267,8.5527344 245.825,8.4677135 214.325,8.0866024 197,7.7050781 179.675,7.3235538 137.15,6.7239418 102.5,6.3730469 67.85,6.0221519 35.45,5.5824503 30.5,5.3964844 28.025,5.3035015 24.566016,5.2866109 20.986328,5.3339844 Z M 169.1543,43.322266 c -3.89541,-0.06442 -5.50379,0.538944 -9.9043,2.626953 -4.31132,2.045687 -6.25,3.533817 -6.25,4.796875 0,1.007062 -0.90159,3.59965 -2.00391,5.761718 -1.98976,3.90282 -1.96036,8.60698 0.0801,12.574219 0.44743,0.869958 1.03193,4.7133 1.29883,8.541016 0.2669,3.827715 0.57042,7.390642 0.67383,7.917969 0.49679,2.533405 -0.3265,4.527002 -3.53906,8.568359 -1.91967,2.414902 -3.495,5.093664 -3.5,5.953125 -0.0157,2.53445 8.42238,11.23551 12.09961,12.47656 l 3.39062,1.14453 -3,1.57618 c -4.50172,2.36498 -17.9052,17.27406 -16.9375,18.83984 1.35158,2.18691 4.19683,0.39488 7.39844,-4.66016 1.90381,-3.00595 6.08364,-7.56926 9.28711,-10.13867 3.20347,-2.56941 5.62818,-5.18249 5.38867,-5.80664 -0.32235,-0.84006 0.64132,-0.85362 3.71289,-0.0566 6.13256,1.59106 7.38018,2.59275 4.92187,3.95508 C 169.93616,118.68666 159,131.39806 159,132.81836 159,134.24876 156.39087,135 151.41797,135 148.98796,135 147,135.44444 147,135.98828 c 0,0.54384 1.0125,0.96535 2.25,0.93555 1.2375,-0.0298 2.925,0.0454 3.75,0.16797 5.18167,0.76997 6.98,-0.15491 10.38281,-5.3418 4.50773,-6.87114 8.29942,-11.38608 8.99024,-10.70312 0.30433,0.30086 -0.27104,3.45086 -1.2793,7 -2.61388,9.20105 -4.20863,22.81642 -4.17383,35.62109 l 0.0293,11.05273 -5.39063,-2.10937 c -5.16544,-2.02236 -5.41898,-2.29538 -6.06054,-6.52149 -1.44015,-9.48643 -1.54687,-13.75058 -0.44727,-17.72265 1.11156,-4.01528 0.15616,-8.37019 -1.83594,-8.36719 -0.39315,5e-4 -0.85589,5.9534 -1.02734,13.22852 -0.17145,7.27512 -0.47359,13.38961 -0.67188,13.58789 -0.19827,0.19827 -1.93043,-0.70566 -3.8496,-2.00977 -2.47104,-1.67911 -3.25985,-2.79847 -2.70508,-3.83789 0.43087,-0.80729 1.0865,-3.26875 1.45898,-5.46875 0.37248,-2.2 1.36303,-6.12642 2.20117,-8.72656 1.89927,-5.89203 0.86462,-8.16674 -1.80078,-3.95703 -1.19583,1.88868 -2.14931,5.72659 -2.51953,10.14257 -0.32762,3.90783 -0.91546,7.30242 -1.30469,7.54297 -0.38922,0.24056 -3.58455,-0.22683 -7.10156,-1.03906 -3.51701,-0.81223 -8.18924,-1.88987 -10.38281,-2.39453 -2.71063,-0.62361 -4.41306,-0.5645 -5.31445,0.18359 -1.02157,0.84783 -2.23122,0.13946 -5.26563,-3.08203 C 109.2982,148.18919 96.116901,143.35319 89.964844,145.00977 84.284034,146.53945 82.342938,150 87.166016,150 88.581928,150 89,150.76841 89,153.37695 c 0,1.85765 -0.675,3.93836 -1.5,4.62305 -2.24774,1.86546 -1.819732,4.3283 1.25,7.19141 3.883868,3.62246 6.123732,4.60257 14.43359,6.32031 4.02379,0.83176 8.59955,2.03086 10.16797,2.66406 2.5845,1.0434 2.79676,1.49055 2.27149,4.77539 -0.99934,6.24955 1.72866,9.90483 9.37695,12.56445 3.575,1.24318 8.86637,3.20927 11.75977,4.3711 5.26201,2.11293 9.4984,2.83613 7.68945,1.3125 -0.5225,-0.44009 -3.64922,-1.86943 -6.94922,-3.17774 -3.3,-1.30832 -8.87276,-3.94828 -12.38281,-5.86523 l -6.38086,-3.48437 0.68359,-7.08594 C 120.8879,162.35668 121.45153,159.5 122.99219,159.5 c 1.54704,0 5.04707,6.37232 5.29297,9.63672 0.0772,1.02452 0.49478,1.86328 0.92773,1.86328 1.28844,0 0.89579,-3.88864 -0.70508,-6.98438 -1.39711,-2.7017 -1.36137,-2.92692 0.54883,-3.5332 1.12206,-0.35613 2.58108,-0.20378 3.24219,0.33789 0.6611,0.54166 3.12385,1.49894 5.47265,2.12696 2.34879,0.62802 5.77956,2.1344 7.625,3.34765 1.84543,1.21326 4.19775,2.74134 5.22852,3.39649 1.68338,1.06996 1.55731,1.1972 -1.25195,1.25 C 147.6529,170.97376 145.68469,170.325 145,169.5 c -0.68469,-0.825 -1.9779,-1.48545 -2.87305,-1.46875 -1.36198,0.0255 -1.32265,0.20609 0.24219,1.11523 1.50989,0.87722 1.60617,1.25434 0.5,1.95508 -0.75349,0.47732 -2.37088,0.87479 -3.5957,0.88282 -2.17599,0.015 -6.12779,4.49526 -4.97852,5.64453 0.31155,0.31155 2.87052,0.0725 5.68555,-0.53125 7.0969,-1.52201 10.09728,-1.37524 11.51562,0.56445 1.44611,1.97768 4.73625,1.10742 3.91407,-1.03516 -0.74457,-1.94032 -10.9984,-3.11311 -14.74805,-1.6875 -2.20342,0.83774 -2.74168,0.7965 -2.41602,-0.18164 0.84828,-2.54794 12.74066,-2.50479 20.03711,0.0723 3.18081,1.12342 8.24208,2.55175 11.24805,3.17578 4.71673,0.97919 5.54677,1.5021 6.05078,3.81445 0.3212,1.47366 0.99547,3.98356 1.5,5.57813 1.37419,4.34316 1.16878,4.81335 -1.83203,4.17773 -7.80016,-1.6522 -21.92765,-2.43394 -25.90039,-1.43359 -6.00659,1.51247 -7.55253,0.59716 -3.34961,-1.98438 1.98613,-1.21993 5.16871,-2.15229 7.35742,-2.15429 3.10541,-0.003 3.73871,-0.31238 3.25,-1.58594 -0.33385,-0.86998 -0.60742,-1.99498 -0.60742,-2.5 0,-1.47551 -9.73459,-1.05523 -13.67188,0.58984 -2.64392,1.1047 -3.95832,1.21536 -4.92382,0.41407 -1.69951,-1.41052 -3.4043,-0.34098 -3.4043,2.13671 0,2.29422 0.28768,2.32329 5.5,0.55469 2.2,-0.74648 6.475,-1.64145 9.5,-1.98828 l 5.5,-0.62891 -5.5,2.06446 c -3.025,1.13616 -6.5125,2.31486 -7.75,2.61914 -2.92836,0.72002 -2.8679,2.65188 0.13281,4.25781 1.71644,0.91861 3.60336,1.01945 6.75,0.36328 2.67142,-0.55704 8.15361,-0.53499 14.11719,0.0547 l 9.75,0.96289 v 4.90039 c 0,3.01182 0.3853,4.66115 1,4.28125 0.55,-0.33992 1,-2.39105 1,-4.55859 0,-3.46494 0.28295,-3.94141 2.33984,-3.94141 1.50261,0 2.73323,0.86406 3.43946,2.41406 0.60475,1.32729 1.97702,2.69045 3.05078,3.03125 2.29379,0.72802 3.3724,5.83316 2.00195,9.47266 -0.6454,1.714 -0.53499,2.65454 0.37891,3.23437 2.19176,1.39057 2.53995,0.99273 3.24414,-3.70312 C 189.3043,202.78619 191.00363,202 202.38867,202 h 8.25586 l 2.29297,4.58789 c 1.74274,3.48953 2.13996,5.52385 1.66406,8.5 -0.34411,2.15191 -0.21835,3.91211 0.2793,3.91211 2.4179,0 2.85093,-8.31193 0.70117,-13.45703 -1.22333,-2.92784 -1.22333,-3.46611 0,-3.93555 0.77963,-0.29926 2.04564,-0.30354 2.8125,-0.01 2.74799,1.05451 6.95212,13.90889 8.14453,24.90234 0.17897,1.65 0.85988,6.2625 1.51367,10.25 1.31991,8.0502 3.47511,10.14336 2.57422,2.5 -0.30792,-2.6125 -0.85208,-8.125 -1.21093,-12.25 -0.37364,-4.29506 -1.93313,-11.04785 -3.64844,-15.80273 -3.0114,-8.3477 -3.08148,-9.91555 -0.40039,-8.88672 1.29626,0.49742 2.20821,3.05707 5.5957,15.68945 1.37347,5.12184 2.12062,23.933 1.11133,28 -0.602,2.42579 -0.90176,2.80944 -0.97266,1.25 C 230.94415,243.79047 229,244.58324 229,248.10742 c 0,2.40654 0.35196,2.97041 1.5625,2.50586 2.24081,-0.85988 -1.0405,3.55736 -8.5332,11.48438 -4.94952,5.23642 -6.23417,6.12911 -7.04883,4.90234 -0.85207,-1.28311 -1.24761,-1.17967 -2.73828,0.7207 -1.93088,2.46158 -8.17483,7.2793 -9.43555,7.2793 -1.67882,0 -0.71213,-2.93022 1.55664,-4.71484 1.30034,-1.02284 3.11355,-3.3052 4.02734,-5.07227 0.91382,-1.76708 2.09889,-3.21289 2.63477,-3.21289 1.27991,0 1.25869,-2.70709 -0.0273,-3.50195 -0.55103,-0.34055 -1.44594,0.54814 -1.98828,1.97461 -1.13302,2.98007 -5.84957,8.02153 -6.70508,7.16601 -0.31593,-0.31593 -0.68196,-1.60251 -0.8125,-2.85742 -0.13055,-1.25491 -0.29504,-2.80978 -0.36524,-3.45508 -0.0702,-0.64531 -1.24809,-2.50379 -2.61718,-4.13086 -2.18818,-2.60052 -2.35759,-3.33597 -1.40235,-6.07617 1.37895,-3.95567 2.89258,-3.09678 2.89258,1.64063 0,4.31156 1.95422,3.23424 2.28906,-1.26172 0.16594,-2.22807 -0.46776,-3.22551 -3.01172,-4.73633 -3.99374,-2.37184 -5.56792,-1.65703 -4.21093,1.91211 1.13034,2.97283 0.69165,3.83049 -1.52344,2.98047 C 192.62165,251.30079 192,249.84098 192,248.03125 192,246.00336 191.50345,245 190.5,245 c -1.78623,0 -1.85043,0.47773 -0.41797,3.1543 0.91738,1.71417 0.80469,1.97098 -0.73828,1.67382 -1.00182,-0.19291 -1.98249,-1.24616 -2.17969,-2.33984 -0.48104,-2.66786 -1.73904,-3.86938 -3.14258,-3.00195 -0.82059,0.50715 -0.65472,1.26117 0.57422,2.61914 0.94917,1.04877 1.38915,2.24126 0.97852,2.65039 -0.41064,0.40913 -1.567,-0.26836 -2.57031,-1.50586 -2.14098,-2.6407 -2.85054,-2.73004 -6.53907,-0.81641 -3.97495,2.06223 -4.37191,3.21854 -2.89062,8.42188 0.7272,2.55442 2.05307,8.24453 2.94726,12.64453 0.89419,4.4 2.29999,10.20602 3.12305,12.90234 0.82306,2.69631 1.23031,5.95881 0.90625,7.25 -0.52256,2.08203 -0.24124,2.34766 2.48438,2.34766 2.02386,0 4.15174,1.00859 6.23242,2.95312 3.80433,3.55546 3.13898,4.82553 -1.32031,2.51954 -2.9167,-1.50825 -3.1783,-1.51614 -2.625,-0.0742 0.85999,2.2411 -1.74272,2.05957 -7.00586,-0.48828 C 173.99452,293.81793 172.68446,292 175.5,292 c 0.825,0 1.5,-0.49973 1.5,-1.10938 0,-0.67747 -0.95481,-0.86872 -2.45508,-0.49218 -2.82363,0.70869 -9.16234,-2.24862 -13.69726,-6.39063 C 157.72001,281.15115 151.70848,271.36959 148.55078,264 143.55588,252.34268 131.1656,235.35835 125.36719,232.21875 124.06502,231.51369 123,230.73245 123,230.48242 c 0,-0.91507 7.5342,-7.42888 8.62305,-7.45508 0.61759,-0.0149 3.09259,-0.88155 5.5,-1.92578 2.40742,-1.04423 5.83945,-2.20561 7.62695,-2.58008 l 3.25,-0.67968 0.0703,6.82812 c 0.0386,3.75621 0.4192,7.7243 0.84571,8.81641 0.55077,1.41033 -0.0835,3.37937 -2.1875,6.79883 -1.62928,2.64793 -2.71478,5.06256 -2.41211,5.36523 0.30267,0.30267 2.26823,-0.81381 4.36718,-2.48047 2.09895,-1.66665 6.96641,-4.23207 10.81641,-5.70117 3.85,-1.46911 9.7,-3.73871 13,-5.04297 6.92099,-2.73537 15.82327,-4.99978 23,-5.85156 l 5,-0.59375 7.44531,7.00976 c 10.67514,10.0512 13.24684,9.2388 3.32617,-1.05078 C 203.95905,224.35509 195.92084,218 193.64062,218 c -0.55859,0 0.27858,1.35 1.85938,3 l 2.875,3 h -2.50977 c -1.37992,0 -4.50202,0.63264 -6.9375,1.40625 -2.43548,0.77361 -9.15273,2.83093 -14.92773,4.57031 -5.775,1.73937 -13.07543,4.00681 -16.22266,5.04102 -3.14723,1.03421 -5.8818,1.56633 -6.07617,1.18164 -0.50339,-0.99626 -0.91304,-6.65169 -1.03125,-14.19922 -0.0851,-5.43342 0.57757,-8.19754 4.04297,-16.84766 3.88989,-9.70973 4.01163,-10.3042 1.9668,-9.6289 -1.1986,0.39584 -4.14992,0.9398 -6.5586,1.20898 -4.75408,0.53128 -3.90566,2.22394 1.12891,2.25196 1.5125,0.008 2.75667,0.35312 2.76367,0.76562 0.007,0.4125 -1.23007,4.02404 -2.75,8.02539 -2.23724,5.88975 -3.23976,7.37923 -5.26367,7.82617 -1.375,0.30364 -5.56267,1.64405 -9.30664,2.97656 -8.18679,2.91373 -8.69336,2.94523 -8.69336,0.54493 0,-2.7473 -2.55401,-4.41449 -5.99023,-3.91016 -3.25009,0.47702 -3.6569,-0.20296 -1.85157,-3.09375 C 122.62081,208.17588 119.00021,206 109.97461,206 c -3.28144,0 -4.05683,-0.47646 -5.91797,-3.63086 -2.11882,-3.59114 -2.19303,-3.62031 -6.849609,-2.83984 -6.749796,1.13131 -10.261769,0.9873 -13.917969,-0.57032 -3.762538,-1.60291 -5.22975,-0.69482 -3.458984,2.14063 1.085801,1.73864 0.857174,2.50811 -1.701172,5.73828 -1.624968,2.05169 -3.105502,5.04652 -3.291015,6.65625 -0.248114,2.15292 -0.9989,3.0893 -2.837891,3.53906 -2.927127,0.71588 -3.046381,4.15244 -0.251953,7.24024 1.601983,1.77017 1.600272,2.05562 -0.02344,4.88476 C 70.776242,230.81064 70,232.60386 70,233.14453 c 0,0.54067 -1.053672,3.31766 -2.341797,6.16992 -1.288124,2.85225 -3.105158,8.26916 -4.037109,12.03711 -2.234646,9.03486 -8.080945,19.97443 -14.416016,26.97461 -1.985436,2.19388 -8.913284,6.96431 -11.623047,8.00391 -1.333958,0.51178 -1.598641,1.0537 -0.871093,1.78125 1.671517,1.67151 10.477713,-3.38386 15.158203,-8.70117 8.224332,-9.34334 10.67221,-14.02017 14.601562,-27.91016 0.933539,-3.3 2.559315,-7.9125 3.613281,-10.25 4.303531,-9.54443 6.254668,-13.76819 6.511719,-14.09961 0.149158,-0.19232 1.857878,0.17387 3.798828,0.81445 3.204895,1.05771 3.476448,1.43417 2.94336,4.09961 C 82.966841,233.9197 83.163871,235 83.875,235 84.49375,235 85,234.12613 85,233.05859 c 0,-2.38387 1.279526,-3.27215 3.490234,-2.42382 1.052002,0.40369 1.484641,1.35349 1.167969,2.56445 -0.293148,1.121 0.09087,2.15061 0.919922,2.46875 0.782307,0.3002 1.421875,1.62329 1.421875,2.93945 0,2.99882 1.217597,3.08591 2.513672,0.17969 0.54292,-1.21741 3.461328,-3.49724 6.486328,-5.06445 3.025,-1.56721 5.65065,-3.26977 5.83398,-3.78516 0.62361,-1.75306 -2.86507,-0.94597 -6.60546,1.5293 -2.050779,1.35713 -4.853577,2.59463 -6.22852,2.75 -2.075221,0.2345 -2.5,-0.14149 -2.5,-2.2168 0,-2.13649 -0.662595,-2.66317 -4.558594,-3.625 -5.02682,-1.24101 -9.131823,-3.25106 -12.941406,-6.33594 -2.119917,-1.71664 -2.27195,-2.1744 -1,-3.01562 0.825,-0.54562 2.446135,-0.99979 3.601562,-1.00782 3.830648,-0.0279 8.552588,-2.16971 7.994141,-3.625 -0.341011,-0.88865 0.429347,-1.57141 2.189453,-1.94335 1.493087,-0.3155 4.379049,-1.17511 6.414063,-1.91016 2.732938,-0.98715 3.823835,-1.03687 4.173828,-0.1875 0.748724,1.817 2.593688,-1.43232 2.611328,-4.59961 0.0084,-1.5125 0.440165,-2.75 0.958985,-2.75 1.56475,0 4.05576,4.27583 4.0625,6.97266 0.004,1.75741 0.91844,3.04599 3,4.23046 2.39165,1.36092 2.99414,2.37799 2.99414,5.0586 0,1.84546 0.64368,4.22925 1.42969,5.29687 1.37056,1.8616 1.5788,1.76729 5.07812,-2.30859 4.22886,-4.92561 7.08549,-5.45272 8.5586,-1.57812 1.41893,3.73204 0.59718,5.13764 -4.30469,7.37109 -2.34399,1.068 -5.83672,3.29047 -7.76172,4.9375 -2.89216,2.47452 -3.2409,3.16342 -2.00977,3.96484 1.08388,0.70556 2.1739,0.33922 4,-1.34179 4.653,-4.28329 5.6292,-4.07653 12.5,2.65429 5.14533,5.04049 7.6597,8.74341 13.07422,19.24219 14.40471,27.9308 22.57678,36.98848 38.41016,42.57617 4.93372,1.74114 4.80378,1.47062 7.69922,15.92383 2.04917,10.22887 3.99521,14.47757 8.99414,19.62109 4.57167,4.70391 6.10788,5.59466 4.09961,2.37891 -0.68696,-1.1 -1.55814,-2 -1.93555,-2 -0.37742,0 -1.33807,-1.2375 -2.13476,-2.75 -0.79669,-1.5125 -2.23316,-4.25543 -3.19336,-6.0957 -0.9602,-1.84027 -2.11754,-6.66391 -2.57227,-10.71875 -0.82985,-7.39976 -1.87516,-10.42964 -4.7207,-13.69141 -2.02105,-2.31667 -1.07228,-3.07414 4.12109,-3.29297 4.55469,-0.19192 8.66797,-1.86144 8.66797,-3.51758 0,-1.02515 -0.69878,-1.35305 -5,-2.34179 -4.0708,-0.93577 -5.68057,-2.31162 -4.30859,-3.6836 0.89993,-0.89993 2.71741,-0.63109 7.76367,1.15039 6.0087,2.12125 6.72681,2.18725 8.16992,0.74414 1.44311,-1.44311 1.06242,-1.64299 -4.33594,-2.26953 -7.34872,-0.85291 -9.36441,-1.88772 -6.57812,-3.3789 1.25771,-0.6731 2.33203,-0.71291 2.9375,-0.10742 0.52476,0.52474 3.95856,1.06612 7.63086,1.20312 5.36259,0.20006 6.60012,0.54527 6.29101,1.75 -0.21168,0.825 -0.68446,2.83392 -1.05078,4.46484 -0.36632,1.63092 -1.5682,4.94839 -2.67187,7.3711 -1.41718,3.11092 -1.69416,4.71599 -0.94336,5.46679 0.5847,0.58466 1.24738,0.8692 1.47265,0.63086 1.4475,-1.53143 6.62002,-21.52982 6.60743,-25.54492 -0.008,-2.68904 -0.34595,-4.3725 -0.75,-3.74219 C 213.18582,279.28209 200,280.59557 200,279.06445 c 0,-0.64269 1.32152,-1.63003 2.9375,-2.19336 1.61597,-0.56333 4.63757,-1.8892 6.71289,-2.94726 2.07532,-1.05806 4.19443,-1.92383 4.70899,-1.92383 0.51455,0 3.00545,-1.6563 5.5371,-3.67969 2.53164,-2.0234 5.08745,-4.03634 5.67774,-4.47461 0.72597,-0.53901 0.92527,0.20759 0.61719,2.30664 -0.34133,2.32564 -0.1101,2.98921 0.92578,2.64844 0.7653,-0.25176 1.52435,-2.13633 1.69922,-4.2207 0.28319,-3.3753 0.55313,-3.70457 2.62109,-3.18555 2.17422,0.54569 2.34791,0.22121 3.01172,-5.6582 0.38731,-3.43035 0.94463,-7.44174 1.23828,-8.91406 l 0.5332,-2.67579 13.64063,0.29297 C 268.96747,244.85021 268,244.71397 268,246.99609 c 0,1.09781 0.83923,4.58531 1.86523,7.75 1.68706,5.20371 4.13477,16.37244 4.13477,18.86719 0,0.62894 -8.24349,0.97285 -22.5,0.93945 -14.28657,-0.0335 -22.50554,-0.41775 -22.51562,-1.05273 -0.009,-0.55 -0.41122,-1.62353 -0.89454,-2.38672 -1.23799,-1.95488 -4.70853,1.39204 -5.58593,5.38672 -0.36242,1.65 -1.05485,3.9 -1.53907,5 C 219.93056,283.84955 214,307.4299 214,309.19336 c 0,2.7861 1.91139,-1.01753 2.86133,-5.69336 0.55869,-2.75 1.98166,-8.15 3.16211,-12 1.18045,-3.85 2.58446,-8.8 3.11914,-11 1.19468,-4.91569 2.59193,-6.54837 3.85547,-4.50391 0.77197,1.24905 4.50153,1.44285 23.89648,1.23829 20.64952,-0.21785 27.12612,0.39191 22.59961,2.1289 C 271.1,280.282 271.77064,282 274.52344,282 h 2.52344 l -0.66407,-8.25 c -0.73488,-9.12537 -4.74578,-29.53176 -6.05078,-30.78516 -1.32856,-1.27603 -27.15771,-1.9214 -30.48437,-0.76172 -1.6227,0.56571 -3.15037,0.82621 -3.39649,0.58008 -0.24612,-0.24612 -0.71507,-4.01026 -1.04101,-8.36523 -0.5306,-7.08953 -3.41581,-24.50482 -4.97461,-30.02735 -0.4933,-1.74762 -0.0614,-2.21505 2.51562,-2.73046 3.38963,-0.67793 7.02868,-4.06797 9.2168,-8.58594 1.17075,-2.41734 1.19743,-5.02402 0.16797,-16.25586 -0.67431,-7.35693 -1.71595,-15.38842 -2.31446,-17.84766 -0.59852,-2.45924 -1.28224,-7.37338 -1.51953,-10.92187 -0.23729,-3.54848 -0.6949,-7.65378 -1.01757,-9.12305 -0.41403,-1.88502 -0.13001,-2.84745 0.96484,-3.26758 2.64529,-1.01509 1.72287,-4.1378 -2.43164,-8.23242 -2.19075,-2.15917 -3.991,-4.22941 -4,-4.59961 C 231.99771,122.03131 226.08357,116 225.32422,116 c -0.28703,0 -1.73687,-1.2375 -3.22266,-2.75 -4.69709,-4.78151 -7.35698,-6.57979 -17.10156,-11.56836 -8.71793,-4.462987 -14,-8.101874 -14,-9.642578 0,-0.336477 1.59233,-0.558733 3.53906,-0.49414 4.45897,0.14795 7.53239,-1.831046 5.71094,-3.677734 C 198.3526,85.943495 198.7413,85 201.43164,85 c 1.57025,0 3.20341,-1.082926 4.60742,-3.054688 2.08279,-2.924998 2.0992,-3.135784 0.41211,-5 -1.88962,-2.088008 -5.02889,-2.497927 -7.4414,-0.972656 -1.63622,1.034472 -4.64441,-0.499178 -9.11133,-4.646484 C 184.28491,66.114288 167.44305,62.435206 159.25,64.630859 156.64844,65.328051 156.21859,67 158.64062,67 c 0.90189,0 2.23616,0.7875 2.9668,1.75 1.23015,1.620513 1.33193,1.583517 1.36133,-0.5 C 162.99098,66.677268 163.60202,66 165,66 c 1.11111,0 2,0.666667 2,1.5 0,0.825 0.9,2.4 2,3.5 1.1,1.1 2.0072,2.7875 2.01562,3.75 0.0275,3.146904 1.5969,4.351402 6.26563,4.808594 7.14864,0.700041 7.22986,-1.985665 0.16602,-5.509766 -4.29694,-2.143716 -3.78761,-2.580712 1.30859,-1.11914 1.78387,0.511607 3.24414,0.747873 3.24414,0.52539 0,-1.159159 -6.58742,-3.576662 -8.66406,-3.179687 -1.67828,0.320824 -2.7241,-0.129983 -3.45313,-1.492188 -1.46009,-2.728208 -0.91526,-2.927907 4.97657,-1.810547 3.40742,0.646204 7.79455,2.705131 12.80078,6.00586 C 193.4949,76.8255 196.18051,78 199.13867,78 c 4.13987,0 4.17243,0.02435 3.25391,2.417969 -0.77865,2.029132 -3.42946,2.008165 -7.76758,-0.06055 -3.79383,-1.809153 -6.625,-1.299188 -6.625,1.191406 0,1.274402 0.63519,1.469814 3.04102,0.941406 3.45786,-0.759471 5.95898,0.757641 5.95898,3.613282 0,1.812839 -0.94772,2.232546 -7.19922,3.1875 -2.14415,0.327532 -2.76165,-0.02032 -3,-1.689454 C 186.41772,84.918987 183.5,84.829231 183.5,87.5 c 0,1.109789 0.99259,2.435341 2.23047,2.978516 2.29331,1.006288 3.76321,3.359827 2.73828,4.384765 -0.31786,0.317851 -1.03841,-0.08351 -1.60156,-0.892578 -0.75296,-1.081758 -0.85637,-0.676812 -0.39063,1.529297 0.85038,4.0281 0.92736,5.31169 0.60156,10 -0.24799,3.56904 -0.36374,3.73065 -1.07812,1.5 -0.44035,-1.375 -0.84559,-3.94796 -0.90039,-5.7168 C 184.98824,97.690035 182.13017,91 180.70703,91 c -0.50698,0 -0.64674,0.717654 -0.31055,1.59375 1.70256,4.436813 1.62856,5.938102 -0.35742,7.164062 C 178.83381,100.50183 178,100.60403 178,100.00781 178,99.453159 176.46598,99 174.5918,99 c -3.25158,0 -3.46471,0.228916 -4.6875,5 -0.7048,2.75 -1.64773,5 -2.09375,5 -1.19097,0 -0.98714,-5.8007 0.28711,-8.18164 0.86268,-1.611917 0.81118,-1.954638 -0.23633,-1.605469 -1.24747,0.415825 -1.74476,1.764279 -3.4336,9.287109 -0.37042,1.65 -0.88011,2.4385 -1.13281,1.75195 -0.25905,-0.70374 -1.40506,-1.03494 -2.62695,-0.75781 -2.37329,0.53828 -5.33968,-1.53647 -8.00195,-5.59961 -2.33222,-3.55941 -1.22739,-8.357682 2.54101,-11.041014 3.03936,-2.16422 3.12156,-2.930084 1.43555,-13.228516 -0.0788,-0.48125 0.43624,-1.086692 1.14453,-1.345703 0.91458,-0.334452 1.2224,0.508923 1.06055,2.912109 C 158.51099,86.19049 159.45761,87 165.64258,87 c 6.64785,0 7.03574,-2.181144 0.54492,-3.064453 -5.17624,-0.704413 -5.48408,-1.022961 -4.21484,-4.361328 C 162.53805,78.087135 163,75.584166 163,74.013672 163,71.66213 162.47662,71.04362 160.03711,70.507812 155.28443,69.463949 151.57271,60 155.91602,60 c 1.05416,0 2.15445,0.5625 2.44336,1.25 0.37939,0.902836 0.82504,0.777668 1.60546,-0.451172 2.06021,-3.243986 14.90305,-0.385126 28.03516,6.240234 12.64706,6.380646 14.28078,6.687637 17.02539,3.210938 1.74154,-2.206146 2.0817,-3.691992 1.71875,-7.509766 -0.52678,-5.541132 -2.15835,-7.641364 -9.6875,-12.470703 C 190.2649,45.913185 184.83853,44.339049 174,43.580078 c -1.9949,-0.139693 -3.54723,-0.23634 -4.8457,-0.257812 z m 4.24218,3.335937 c 6.01568,0.03245 8.8593,0.80284 13.19922,2.9375 5.96456,2.933762 8.47084,4.966049 11.64649,9.445313 l 1.74414,2.458984 -0.66016,-3 c -0.59146,-2.694239 -0.4899,-2.863232 0.98242,-1.650391 1.96543,1.619039 3.15558,7.168721 2.28321,10.644532 -0.78242,3.117375 -4.88947,3.385908 -8.56641,0.560547 -2.44532,-1.878996 -2.45152,-1.926741 -0.56641,-4.009766 1.74205,-1.924946 1.76991,-2.245718 0.32032,-3.695313 C 191.90024,58.470549 190,59.330047 190,62.058594 c 0,2.335492 -1.56016,2.440316 -6.37695,0.427734 -4.17259,-1.743421 -4.16616,-1.726935 -1.95117,-5.107422 1.424,-2.173304 1.46092,-2.682779 0.25,-3.449218 -2.31481,-1.465109 -2.7979,-1.109783 -3.48829,2.570312 -0.73848,3.936445 -0.57487,3.866029 -5.68359,2.447266 C 169.03843,57.916511 168.06475,56.696051 170,55.5 c 1.56417,-0.966711 1.17158,-4.5 -0.5,-4.5 -1,0 -1.5,1 -1.5,3 0,2.9697 -0.0556,3 -5.5,3 -4.73098,0 -5.5,-0.265143 -5.5,-1.894531 0,-3.229347 5.3831,-8.086224 9.15039,-8.25586 2.88317,-0.129825 5.24087,-0.202221 7.24609,-0.191406 z M 162.60742,51 C 161.55996,51 161,51.87047 161,53.5 c 0,1.375 0.45,2.5 1,2.5 0.55,0 1,-0.412952 1,-0.917969 0,-0.505016 0.27357,-1.630016 0.60742,-2.5 C 164.00573,51.544048 163.66194,51 162.60742,51 Z M 14.501953,69.935547 c -0.118182,0.02055 -0.155671,0.03818 0.150391,0.02539 0.0054,-0.0049 0.01919,-0.01425 0.02539,-0.01953 -0.06137,-0.0026 -0.117627,-0.004 -0.175781,-0.0059 z m -0.628906,1.755859 c -0.04256,0.328888 -0.09468,0.65627 -0.142578,0.984375 0.0026,0.01573 0.0071,0.03115 0.0098,0.04687 0.221215,-0.233017 0.438344,-0.46908 0.65625,-0.705078 -0.174722,-0.08835 -0.348903,-0.197303 -0.523437,-0.326172 z M 178,76 c 0.55,0 1,0.45 1,1 0,0.55 -0.45,1 -1,1 -0.55,0 -1,-0.45 -1,-1 0,-0.55 0.45,-1 1,-1 z m -13.22656,12.9375 c -2.47462,0.0168 -4.99686,0.652258 -6.1211,1.894531 -1.8046,1.994059 -1.29,3.349958 0.94532,2.492188 C 160.44214,93.00016 161,93.424783 161,94.392578 161,95.32436 161.82728,96 162.96875,96 c 1.33901,0 1.7841,-0.479711 1.39258,-1.5 -0.83215,-2.168537 1.36524,-1.842655 3.37109,0.5 0.94185,1.1 2.28747,2 2.99024,2 1.6627,0 1.58851,-4.005598 -0.11524,-6.25 -0.93242,-1.228313 -3.35936,-1.829297 -5.83398,-1.8125 z M 173.92383,93 c -0.4739,0 -0.60174,0.675 -0.28516,1.5 0.31659,0.825 0.96361,1.5 1.4375,1.5 0.4739,0 0.60174,-0.675 0.28516,-1.5 -0.31659,-0.825 -0.96361,-1.5 -1.4375,-1.5 z m 4.14453,1.189453 c -0.0979,0.22315 0.0722,1.014135 0.55469,2.271485 0.34294,0.893703 0.83432,1.413717 1.09179,1.15625 0.25747,-0.25747 -0.0101,-1.289218 -0.59375,-2.292969 -0.58942,-1.013609 -0.95483,-1.357916 -1.05273,-1.134766 z m 12.44141,2.376953 c 0.15351,-0.04104 0.35313,-0.01972 0.61132,0.05469 0.34425,0.09921 0.79291,0.293546 1.37891,0.560547 1.375,0.626492 2.5,1.447745 2.5,1.824218 0,1.219511 -3.64259,4.019521 -4.33203,3.330081 C 190.3001,101.96807 190,100.40201 190,98.855469 c 0,-1.482999 0.0492,-2.165935 0.50977,-2.289063 z m -35.5293,0.181641 c -0.51537,0.152326 -0.41911,0.737938 -0.19727,1.898437 0.24749,1.294639 0.85521,2.353516 1.35157,2.353516 0.49636,0 0.62827,1.09962 0.29101,2.44336 -0.33731,1.34375 -0.3159,2.92539 0.0488,3.51562 0.96774,1.56584 2.20422,0.45396 2.99414,-2.69336 1.00443,-4.00197 2.6004,-5.721227 3.76953,-4.0625 0.7153,1.01486 0.82923,0.98141 0.52149,-0.15429 -0.21637,-0.798499 -2.42629,-1.971831 -4.91016,-2.605471 -2.22651,-0.567988 -3.35377,-0.847638 -3.86914,-0.695312 z m 26.94141,3.912113 c 0.82031,-0.0766 1.08951,0.93313 1.5664,4.11328 0.38982,2.59948 0.6566,4.95156 0.5918,5.22656 -0.0648,0.275 -1.23507,0.79912 -2.59961,1.16406 -2.39288,0.63997 -2.48047,0.49037 -2.48047,-4.21484 0,-3.76024 0.43381,-5.11096 1.89062,-5.89063 0.42393,-0.22686 0.75781,-0.37289 1.03126,-0.39843 z m 16.48828,0.3457 c 1.82333,0.006 1.70835,0.26753 -0.91016,2.04883 -7.97186,5.42304 -11.75586,5.9707 -4.80273,0.69531 1.99352,-1.5125 4.56395,-2.74814 5.71289,-2.74414 z m -22.42578,0.13476 c 0.92542,0.20383 1.0056,1.32517 0.98437,5.03907 -0.0244,4.26465 -0.24248,4.95486 -1.09961,3.48047 -0.58806,-1.0115 -0.8609,-2.924 -0.60742,-4.25 0.25348,-1.326 0.0824,-2.41016 -0.38086,-2.41016 -1.14694,0 -2.23216,4.64098 -1.51953,6.49805 0.31705,0.82623 0.11561,1.50195 -0.44727,1.50195 -0.59701,0 -0.89655,-1.97903 -0.71875,-4.75 0.2601,-4.05349 0.63461,-4.79762 2.55469,-5.07031 0.52362,-0.0744 0.92588,-0.10694 1.23438,-0.0391 z m -13.23047,1.27735 c -0.15581,-0.20694 -0.41968,0.12323 -0.86719,0.89258 -0.57928,0.9959 -0.80571,2.4584 -0.50195,3.25 0.92433,2.40876 1.61608,1.61777 1.58398,-1.81055 -0.0129,-1.38086 -0.059,-2.12509 -0.21484,-2.33203 z m 38.58789,1.5625 c 1.70635,-0.23288 3.72631,1.24831 9.12695,5.20117 8.16612,5.97699 25.4394,24.17335 23.82813,25.10156 -0.43809,0.25235 -5.74688,0.77112 -11.79688,1.15235 -6.05,0.38123 -11.9,0.80492 -13,0.9414 -1.1,0.13648 -5.67186,0.0897 -10.16016,-0.10351 -9.31413,-0.40104 -8.45103,0.32963 -15.94531,-13.50586 l -4.1875,-7.73047 3.64649,-1.01367 c 2.00561,-0.55707 4.13993,-1.01458 4.74218,-1.01758 0.60226,-0.003 1.90881,-0.90586 2.9043,-2.00586 0.99549,-1.1 2.30204,-2.01254 2.9043,-2.02734 0.60225,-0.0148 2.64696,-1.31267 4.54297,-2.88477 1.45959,-1.21024 2.37072,-1.9677 3.39453,-2.10742 z m -25.22266,14.23437 c 1.69339,-0.32612 5.33929,4.78085 10.55469,14.78516 l 2.86719,5.5 8.98046,0.31836 c 7.75652,0.27478 25.49302,-0.96516 32.10352,-2.24414 2.06609,-0.39974 2.12958,-0.0742 2.27344,11.71875 0.101,8.27924 0.57637,12.78281 1.49804,14.18945 2.63507,4.02162 4.40951,23.8864 2.65625,29.73828 -0.6174,2.06069 -2.10542,4.27314 -3.30664,4.91602 -1.96488,1.05157 -40.06123,2.21415 -41.02343,1.25195 -0.18896,-0.18897 -1.40643,-0.50493 -2.70508,-0.70312 -2.02308,-0.30874 -2.59528,-1.35424 -3.99219,-7.29883 C 184.2734,182.93105 180.39544,174 178.91016,174 c -1.44275,0 -1.08744,1.43146 1.52148,6.125 2.74019,4.92967 4.6276,16.875 2.66602,16.875 -1.37912,0 -1.80796,-1.13707 -2.48828,-6.60547 -0.52683,-4.23466 -3.19156,-11.94173 -4.89063,-14.14453 -0.53029,-0.6875 -2.08696,-1.25 -3.45898,-1.25 h -2.49415 l 0.54493,-15.75 c 0.55565,-16.04874 2.24227,-29.78913 3.91992,-31.94922 0.51259,-0.65999 0.78493,-2.90531 0.60547,-4.98828 -0.24627,-2.85846 0.0675,-3.86354 1.2832,-4.09766 z M 205.5,143.11133 c -2.55385,-0.9904 -4.46816,8.57695 -2.64258,13.20898 0.39478,1.00167 0.47562,3.90831 0.17969,6.45899 -0.51812,4.46564 -0.69771,4.68454 -4.8457,5.88281 l -4.30664,1.24414 0.20898,-2.70313 c 0.1147,-1.48677 0.13962,-5.07915 0.0566,-7.98437 -0.1281,-4.48698 -0.48913,-5.41047 -2.40039,-6.13281 -3.2056,-1.21152 -3.82323,-0.45395 -2.1875,2.68164 0.78416,1.50318 1.42864,5.28444 1.43164,8.4043 0.006,5.61824 -0.0276,5.68363 -3.56055,6.8496 -1.96185,0.64744 -3.83366,0.91243 -4.1582,0.5879 -1.59411,-1.59414 -1.98573,-10.2326 -0.58789,-12.95313 1.84749,-3.59566 1.08458,-4.39226 -2.16406,-2.26367 -2.25678,1.4787 -2.47143,2.1313 -1.93164,5.88476 1.05635,7.34527 2.46643,11.80882 3.90625,12.36133 0.76679,0.29424 3.78234,-0.13904 6.69922,-0.96289 2.91688,-0.82386 7.18054,-1.79706 9.47656,-2.16211 3.61627,-0.57496 4.32886,-0.37767 5.32226,1.47852 0.63073,1.17852 1.01925,4.21749 0.86329,6.7539 -0.3629,5.90117 1.39504,6.54593 3.17187,1.16211 1.2174,-3.68878 1.17638,-4.48137 -0.36328,-7.16406 -2.52426,-4.39827 -1.3593,-4.46272 3.26562,-0.18359 3.32035,3.07211 4.06641,4.42816 4.06641,7.40039 0,2.00165 0.53922,4.17984 1.19922,4.83984 1.99846,1.99846 3.06071,-0.30662 2.27734,-4.94336 -0.57767,-3.41923 -1.787,-5.33833 -5.72656,-9.0957 C 210.00384,169.14249 207.08865,167 206.27148,167 c -0.81717,0 -1.27565,-0.5625 -1.01953,-1.25 0.25611,-0.6875 1.03653,-3.05 1.73438,-5.25 1.68267,-5.30472 3.85115,-9.50035 6.33203,-12.25 1.68442,-1.8669 1.76079,-2.25 0.44531,-2.25 -1.61144,0 -6.76367,5.39002 -6.76367,7.07617 0,0.5078 -0.46139,0.92383 -1.02539,0.92383 -0.94261,0 -0.84867,-7.04657 0.12695,-9.5 0.21872,-0.55 -0.0516,-1.17538 -0.60156,-1.38867 z M 94.458984,148.20117 C 98.406775,147.85525 108,151.37703 108,153.17188 c 0,0.45597 -0.5625,0.78502 -1.25,0.73242 -1.76886,-0.1353 -10.771242,-2.91126 -13.75,-4.24024 -2.411696,-1.07598 -2.360583,-1.1282 1.458984,-1.46289 z m -0.65625,4.76953 c 1.123085,0.0935 2.859461,0.41549 5.197266,0.96485 6.09334,1.43186 7.35264,2.11331 9.05469,4.91211 1.08719,1.78774 2.42327,2.97505 2.9707,2.63672 0.61796,-0.38194 0.42234,-1.43432 -0.51562,-2.77344 -2.95017,-4.21197 -1.52016,-4.85325 2.84375,-1.27735 2.39415,1.96182 4.91772,3.56641 5.60742,3.56641 0.78465,0 1.0003,0.65499 0.57812,1.75 -0.3711,0.9625 -1.18763,3.6625 -1.81445,6 -1.20746,4.5028 -1.37018,4.65048 -3.72461,3.37891 -0.825,-0.44556 -4.53562,-1.60684 -8.24609,-2.58008 l -6.746098,-1.76953 2.496098,-2.9668 C 102.87688,163.18083 104,161.50069 104,161.07812 c 0,-1.52465 -4.275079,-4.59957 -7.769531,-5.58789 -1.963232,-0.55525 -3.735041,-1.5059 -3.9375,-2.11328 -0.121607,-0.36482 0.386681,-0.49976 1.509765,-0.40625 z m -2.207031,3.94141 c 0.724272,-0.0209 2.218474,0.36896 4.404297,1.27734 2.75,1.14285 5,2.46668 5,2.94336 0,1.36517 -2.183251,0.94575 -6.25,-1.20117 -3.43016,-1.81084 -4.361417,-2.98474 -3.154297,-3.01953 z m -0.435547,5.19922 c 0.164644,-0.11261 0.749502,0.0357 1.847656,0.3789 1.370689,0.42842 3.379966,1.39362 4.464844,2.14454 1.08488,0.75091 1.534879,1.30341 1,1.22851 -3.802155,-0.53243 -5.496701,-1.18766 -6.642578,-2.56836 -0.579349,-0.69807 -0.834565,-1.07098 -0.669922,-1.18359 z m 122.500004,0.59961 c -2.79073,-0.12625 -5.09009,0.19725 -5.38672,1.03906 -0.29118,0.82637 0.61309,1.25 2.66797,1.25 3.62877,0 15.6872,5.81548 18.48437,8.91406 1.23662,1.36987 2.27165,1.7889 2.89063,1.16992 1.33739,-1.33739 -5.88932,-8.84225 -10.31641,-10.71289 -2.26666,-0.95777 -5.54911,-1.53391 -8.33984,-1.66015 z m -108.06055,0.67578 c -0.21415,0.0106 -0.37886,0.0605 -0.47656,0.1582 -0.34056,0.34056 0.25356,1.25708 1.32031,2.03711 2.14962,1.57184 4.55664,1.87697 4.55664,0.57813 0,-0.98839 -3.90134,-2.84749 -5.40039,-2.77344 z m 18.68164,6.13086 c -0.6332,0.37318 -1.18081,3.1451 -1.83594,8.98242 -0.47332,4.2174 -0.35776,5.7029 0.38867,5 1.387,-1.3061 3.06047,-12.05067 2.11524,-13.58008 -0.23741,-0.38413 -0.4569,-0.52673 -0.66797,-0.40234 z m 39.50391,25.94531 c -0.77545,0.0114 -1.60569,2.13339 -4.60352,11.03711 -3.10785,9.23047 -4.22576,15.02748 -3.54883,18.41211 0.89886,4.49431 2.36521,3.77821 2.37891,-1.16211 0.013,-4.67929 3.30592,-19.18403 4.78125,-21.0625 1.44623,-1.84143 2.31471,-6.50232 1.32617,-7.11328 -0.11468,-0.0709 -0.22321,-0.11296 -0.33398,-0.11133 z m -70.074222,7.98047 C 94.510002,203.74999 95.802015,204 96.582031,204 97.362048,204 98,204.40472 98,204.90039 98,206.18524 91.252063,210 88.978516,210 c -1.049424,0 -3.446926,1.35 -5.326172,3 -1.879246,1.65 -3.920265,3 -4.535156,3 -1.806997,0 -1.237372,-5.28636 0.861328,-8 1.720949,-2.2252 2.167961,-2.35591 4.074218,-1.18164 2.573818,1.58549 3.727158,0.82618 1.966797,-1.29492 -1.388508,-1.67305 -0.331897,-2.00774 1.892578,-0.59961 0.92218,0.58376 1.921085,0.38555 2.878907,-0.57227 0.806718,-0.80672 2.120854,-1.21483 2.919922,-0.9082 z m 14.978512,5.66602 c 3.05934,-0.11017 9.26838,0.51447 9.99219,1.23828 0.3763,0.37631 -0.23401,1.91446 -1.35547,3.41796 -1.12145,1.50352 -2.66493,2.82141 -3.43164,2.92774 C 112.57248,216.87671 107,211.05321 107,209.48828 c 0,-0.22351 0.66967,-0.34221 1.68945,-0.3789 z m 80.60352,4.26562 C 189.11172,213.4549 189,213.65018 189,213.94141 c 0,0.58246 0.45,1.05859 1,1.05859 0.55,0 1,-0.19887 1,-0.44141 0,-0.24254 -0.45,-0.71867 -1,-1.05859 -0.275,-0.16996 -0.52578,-0.20493 -0.70703,-0.125 z m -156.177736,0.17578 c -0.862502,-0.0795 -1.79724,0.25443 -3.441406,0.94141 -5.068737,2.11785 -5.084861,2.87528 -0.09961,4.66797 4.801192,1.72649 5.315721,1.47934 2.771484,-1.33204 -3.4266,-3.78633 0.413668,-1.64704 4.347656,2.42188 l 4.107422,4.25 -0.86914,6.12305 C 38.94662,237.5592 36.940304,243.99303 33.263672,252 c -1.389016,3.025 -2.579121,6.7368 -2.644531,8.24805 -0.06541,1.51125 -0.379227,2.749 -0.697266,2.75 C 29.310416,263.00046 27,272.15544 27,274.57617 27,275.35921 27.433788,276 27.964844,276 c 0.531057,0 1.266374,-2.25914 1.632812,-5.02148 0.366438,-2.76235 1.055698,-5.26544 1.533203,-5.56055 C 31.608365,265.12285 32,263.98197 32,262.88086 c 0,-1.10112 1.843468,-5.91249 4.097656,-10.69141 8.530012,-18.08385 8.539128,-31.0398 0.02344,-37.10351 -1.352532,-0.96309 -2.143357,-1.45569 -3.00586,-1.53516 z m 147.681646,1.14258 c -0.50876,-0.33907 -3.79411,2.46598 -9.5918,8.26367 -4.97353,4.97353 -8.74095,9.04011 -8.37305,9.03711 3.19423,-0.0294 11.32952,-6.84771 15.82422,-13.26172 1.75134,-2.49919 2.44586,-3.83562 2.14063,-4.03906 z m -15.69727,0.34766 c -0.24674,0.0134 -0.59256,0.14563 -1.0332,0.41796 -0.58659,0.36254 -1.05266,1.41957 -1.03516,2.34961 0.0279,1.48465 0.21026,1.45555 1.49023,-0.23632 1.16607,-1.54134 1.31834,-2.57151 0.57813,-2.53125 z m -67.367188,0.23632 c -0.2103,-0.01 -0.373032,0.0293 -0.470703,0.12696 -0.371317,0.37132 0.317769,0.93462 1.53125,1.25195 2.586231,0.67632 2.861081,1.87827 0.625,2.73633 -3.175498,1.21855 -4.673076,0.69143 -4.113281,-1.44922 0.342201,-1.30858 0.11229,-1.91604 -0.632813,-1.66797 -1.74505,0.58099 -2.037903,3.67164 -0.601563,6.35547 C 94.767501,223.93357 96.12856,225 97.095703,225 98.782932,225 103,220.63541 103,218.88867 c 0,-1.09885 -3.795481,-3.54157 -5.267578,-3.61133 z m 103.988278,0.44141 c -0.89997,-0.0765 -1.81267,-0.0661 -2.64843,0.0566 -3.34662,0.4917 -3.28114,0.54893 2.75,2.40039 3.39802,1.04314 6.17773,2.33128 6.17773,2.86133 0,0.53005 0.675,0.96289 1.5,0.96289 2.21211,0 1.82424,-2.10314 -0.5,-2.71094 -1.1,-0.28766 -2,-0.84852 -2,-1.24609 0,-1.08571 -2.57937,-2.09463 -5.2793,-2.32422 z m -83.92382,1.88477 c 0.3773,0.0782 0.18221,0.71685 -0.77735,1.87304 -0.69572,0.8383 -1.93336,1.52344 -2.75195,1.52344 -1.01389,0 -0.73713,-0.61025 0.87109,-1.91406 1.33116,-1.07919 2.28088,-1.56061 2.65821,-1.48242 z m -93.097661,1.91796 c -0.358872,-0.0693 -0.649193,-0.0523 -0.847657,0.0703 -1.423525,0.87979 -0.951519,2.4082 0.744141,2.4082 2.895187,0 7.029731,3.17073 8.208985,6.29492 1.471952,3.89966 2.557529,3.0435 1.173828,-0.92578 -0.916499,-2.62907 -6.767193,-7.36271 -9.279297,-7.84766 z M 35.392578,223 C 35.176422,223 35,223.675 35,224.5 c 0,0.825 0.436012,1.5 0.96875,1.5 0.532739,0 0.709161,-0.675 0.392578,-1.5 -0.316582,-0.825 -0.752594,-1.5 -0.96875,-1.5 z m -12.699219,3.18945 c -1.334724,-0.0502 -1.958899,0.43995 -2.662109,1.75391 -0.634624,1.1858 -1.015158,3.34911 -0.84375,4.80859 0.282358,2.40419 0.726346,2.66437 4.722656,2.75977 3.210834,0.0767 4.843227,0.67197 6,2.1875 2.048423,2.68372 3.098484,1.99493 3.058594,-2.00781 -0.02684,-2.69271 -0.222025,-2.94915 -1.25,-1.64063 -1.029999,1.3111 -1.604972,1.35093 -3.71875,0.26367 -1.375,-0.70725 -3.2875,-1.2908 -4.25,-1.29883 -1.729007,-0.0146 -2.4555,-2.46252 -0.998047,-3.36328 0.41394,-0.25583 2.535386,0.1479 4.712891,0.89649 2.177506,0.74859 4.085801,1.23255 4.242187,1.07617 0.798396,-0.7984 -4.711513,-4.67668 -7.412109,-5.2168 -0.631728,-0.12634 -1.156654,-0.20201 -1.601563,-0.21875 z m 56.695313,4.19336 C 79.269141,230.37752 79.1375,230.41502 79,230.5 c -0.55,0.33992 -1,1.04105 -1,1.55859 0,0.51754 0.45,0.94141 1,0.94141 0.55,0 1,-0.70113 1,-1.55859 0,-0.64311 -0.252734,-1.04272 -0.611328,-1.0586 z m -58.509766,7.94531 c -1.8178,-0.0923 -2.220758,0.44023 -2.898437,2.22266 C 17.440972,241.96976 17,244.03664 17,245.14453 c 0,1.70819 0.445716,1.91599 2.935547,1.36914 1.852512,-0.40688 3.974586,-0.0816 5.75,0.88086 3.603347,1.95333 3.552209,1.96399 2.072265,-0.43164 C 27.065652,245.84246 25.375,244.65484 24,244.32422 c -3.743817,-0.9002 -4.21069,-1.36584 -2.925781,-2.91406 1.667366,-2.00905 3.938209,-1.74784 6.607422,0.75976 1.270779,1.19384 2.625652,1.85678 3.009765,1.47266 1.334015,-1.33401 -3.216174,-4.40554 -7.460937,-5.03711 -0.983134,-0.14628 -1.745629,-0.24657 -2.351563,-0.27735 z m 88.140624,0.80079 c -1.16131,0.14376 -3.47109,1.8531 -7.5293,5.41601 -3.474064,3.05006 -6.58353,5.11443 -6.910152,4.58594 -0.87181,-1.41065 -14.51799,-2.46301 -18.511719,-1.42774 -1.887589,0.48931 -3.629157,1.47732 -3.86914,2.19727 -0.324407,0.97322 0.170829,1.10124 1.93164,0.49805 3.04871,-1.04438 17.036843,-0.66264 20.052735,0.54687 1.273588,0.51076 2.57727,0.95729 2.896484,0.99219 0.319215,0.0349 3.019212,-2.18502 6.000002,-4.93164 2.98079,-2.74662 5.75742,-4.997 6.16992,-5 0.4125,-0.003 0.75,-0.68086 0.75,-1.50586 0,-0.98009 -0.28368,-1.45735 -0.98047,-1.37109 z m -90.453124,10.125 C 17.278926,249.1252 17,249.52 17,250.69727 c 0,1.55278 0.634007,1.79419 3.882812,1.48437 2.136984,-0.20379 4.186531,0.12259 4.558594,0.72461 C 26.224222,254.17287 27,254.33882 27,253.24023 c 0,-1.16222 -3.204988,-2.90746 -6.783203,-3.69335 -0.680265,-0.14942 -1.221231,-0.25007 -1.650391,-0.29297 z m 158.794924,0.0508 c 0.47459,-0.47459 15.74145,5.53645 17.25781,6.79492 2.13156,1.76903 5.0882,7.82031 5.87891,12.03516 1.20263,6.41058 -4.50682,14.98944 -12.35743,18.57031 -4.17635,1.90494 -5.01002,1.54351 -5.66601,-2.45508 -0.33837,-2.0625 -1.30098,-6.65239 -2.14063,-10.19922 -1.3797,-5.82811 -3.57961,-24.13913 -2.97265,-24.74609 z m 28.45117,2.22461 c -1.00815,-0.26292 -1.62362,1.52239 -2.17969,5.84179 -0.52625,4.08774 -0.40475,4.68489 0.76172,3.7168 0.76437,-0.63437 1.94303,-2.48883 2.61914,-4.12109 0.98259,-2.37212 0.97366,-3.27766 -0.0488,-4.50977 -0.43529,-0.5245 -0.81629,-0.8401 -1.15234,-0.92773 z m -105.25195,0.60937 C 99.998416,251.99931 100,252.29493 100,252.88477 c 0,0.48656 2.3625,2.04518 5.25,3.46289 5.45892,2.68022 9.79978,3.05266 10.50586,0.90234 0.2809,-0.85545 -0.81119,-1.25 -3.46094,-1.25 -2.12955,0 -5.63733,-0.9 -7.79492,-2 -2.2515,-1.14789 -3.37733,-1.722 -3.93945,-1.86133 z m -28.271488,1.16602 C 72.079715,253.35367 72,253.64541 72,254.19336 c 0,0.97336 2.125194,1.86137 6.566406,2.74414 6.513423,1.29466 13.195229,3.55276 16.81836,5.68359 1.846409,1.08591 1.846409,1.15556 0,3.38282 -3.336405,4.02457 -23.674586,24.09906 -28.03711,27.67382 -2.323752,1.90414 -5.488799,3.80577 -7.035156,4.22461 -2.145474,0.58113 -2.737555,1.27631 -2.498047,2.93555 0.172625,1.19591 -0.614875,3.47813 -1.75,5.07227 C 54.929327,307.5043 54,309.232 54,309.75 c 0,1.34425 -8.900922,9.36675 -12.703125,11.44922 -1.761836,0.96495 -7.289057,2.5809 -12.283203,3.58984 -9.47764,1.91473 -12.184119,3.55747 -13.523438,8.21094 -0.698166,2.42578 -0.620592,2.40469 2.644532,-0.6875 3.465781,-3.28222 8.17598,-5.17089 18.044922,-7.23633 8.907223,-1.86416 16.314611,-8.43429 25.111328,-22.27734 2.016264,-3.17291 5.028419,-6.43032 6.791015,-7.3418 2.984785,-1.54349 23.841381,-21.87054 28.617188,-27.89062 l 2.201172,-2.77344 2.871089,2.04297 c 1.57892,1.12429 5.08775,2.58606 7.79883,3.24804 7.19545,1.75697 8.42969,2.61083 8.42969,5.82618 0,4.20737 2.74549,11.22381 5.01367,12.8125 1.09223,0.76503 1.98633,1.92805 1.98633,2.58593 0,1.14355 8.73976,6.98555 14,9.35743 1.375,0.62 5.0998,2.29854 8.27734,3.73046 3.17753,1.43191 5.96954,2.60352 6.20508,2.60352 0.23554,0 2.03817,1.09242 4.00586,2.42773 1.96769,1.33531 4.91319,2.7217 6.54492,3.08008 2.44785,0.53764 2.9668,1.1535 2.9668,3.51953 0,1.5772 -1.06767,4.875 -2.37305,7.33008 -2.4852,4.674 -3.80552,10.41434 -2.57031,11.17774 0.39799,0.24597 1.00745,-1.06157 1.35352,-2.90625 0.34606,-1.84468 1.52012,-4.16074 2.60937,-5.14649 1.08924,-0.98575 1.98047,-2.42826 1.98047,-3.20508 0,-0.97377 0.64345,-1.20739 2.07227,-0.7539 2.00703,0.63701 2.0228,0.56198 0.5,-2.38282 C 169.70745,318.46824 169,316.1968 169,315.09375 c 0,-2.3605 -10.22681,-8.68874 -22,-13.61328 -4.125,-1.72542 -9.525,-4.58943 -12,-6.36524 -2.475,-1.77581 -5.91555,-4.12055 -7.64453,-5.20898 -1.72897,-1.08843 -3.64147,-3.31121 -4.25,-4.94141 -0.60852,-1.63021 -1.63618,-4.3776 -2.28516,-6.10546 -1.15301,-3.06982 -1.62267,-11.36941 -0.75586,-13.35938 0.23957,-0.55 -0.0144,-1.13618 -0.56445,-1.30273 -0.55,-0.16655 -1.16552,0.49676 -1.36719,1.47461 -0.86159,4.17763 -6.73451,4.7067 -11.02148,0.99218 -0.88672,-0.76831 -5.66133,-3.41383 -10.61133,-5.8789 -6.599501,-3.28651 -10.707176,-4.65703 -15.398438,-5.13477 -3.518709,-0.35834 -7.006212,-1.15615 -7.75,-1.77344 -0.514949,-0.42737 -0.85315,-0.62128 -1.0625,-0.57226 z m -54.080078,1.63086 c -0.300582,0.0266 -0.508876,0.0877 -0.591796,0.19336 -0.159861,0.20376 -0.08814,3.64778 0.160156,7.65234 0.42693,6.88556 0.568469,7.24465 2.58789,6.625 3.155047,-0.96812 3.189581,-1.18653 0.63086,-3.91016 -2.32868,-2.47875 -1.870342,-3.07309 1.949218,-2.52539 1.209594,0.17345 1.231815,-0.0519 0.128907,-1.38086 C 22.348952,260.7159 21.134609,260 20.376953,260 19.619298,260 19,259.59974 19,259.10938 c 0,-1.09101 4.750062,-2.38107 5.976562,-1.62305 0.486703,0.3008 1.150961,0.11742 1.47461,-0.40625 0.472055,-0.76381 -6.138113,-2.33086 -8.242188,-2.14453 z m 86.507816,16.16406 c -0.0723,0.004 -0.16488,0.0654 -0.27539,0.16992 -1.41412,1.33715 -6.264927,17.47022 -6.984379,23.22852 -0.379836,3.0401 -0.978685,5.70663 -1.330078,5.92383 -0.351392,0.21717 -2.243276,-0.38562 -4.205078,-1.33985 C 88.58507,297.45894 78.812437,294 77.5625,294 c -1.649002,0 -0.218766,1.8686 1.822266,2.38086 1.311644,0.3292 5.474144,2.02643 9.25,3.76953 4.773512,2.20366 6.292578,3.30202 4.984375,3.60742 -1.034791,0.24157 -2.834791,-0.0119 -4,-0.5625 -6.164703,-2.9132 -14.161645,-5.49004 -17.328125,-5.58593 -4.754154,-0.14398 -5.393273,2.02735 -1.128907,3.83398 6.382173,2.70384 8.18485,7.37431 5.908203,15.3125 -1.152479,4.01847 -0.394193,4.2431 1.236329,0.36523 l 1.210937,-2.88086 6.759766,3.02149 6.759765,3.02148 -0.660156,3.60938 c -0.64582,3.53075 -0.617199,3.56987 1.310547,1.85742 1.083509,-0.9625 2.702888,-1.75 3.597656,-1.75 2.338549,0 8.977544,4.71904 7.726564,5.49219 -0.5741,0.35482 -0.85239,0.95733 -0.61719,1.33789 1.71982,2.78272 -8.00037,7.869 -16.751952,8.76562 -3.626367,0.37153 -6.352434,1.06362 -6.058594,1.53907 0.29384,0.47544 1.35332,0.86523 2.353516,0.86523 1.000196,0 2.377811,0.675 3.0625,1.5 1.813902,2.18562 4.272144,1.9322 3.542969,-0.36523 -0.476587,-1.50159 0.04535,-1.97148 2.68164,-2.41407 1.801026,-0.30237 4.062891,-0.86155 5.025391,-1.24218 1.227778,-0.48555 1.75,-0.21338 1.75,0.91406 0,2.47813 1.7614,1.93685 6.60156,-2.0293 3.44202,-2.82047 5.49882,-3.7116 9.16797,-3.97266 2.60181,-0.18511 5.72489,-0.57843 6.93945,-0.87304 3.26752,-0.79257 9.95827,2.26338 13.06641,5.9668 1.93138,2.30126 4.18092,3.59404 7.72461,4.43945 2.75,0.65607 6.125,1.82621 7.5,2.59961 3.62838,2.04087 4.58687,1.78507 2.4043,-0.64063 -1.04775,-1.16447 -5.56525,-3.81223 -10.03907,-5.88281 -4.47382,-2.07058 -8.56556,-4.53664 -9.09375,-5.48047 -1.04575,-1.86865 -12.64276,-5.02532 -14.42187,-3.92578 -0.58265,0.3601 -2.7005,0.87332 -4.70508,1.14063 -2.00457,0.26726 -4.92467,1.14419 -6.48828,1.94921 -1.56361,0.80501 -3.02763,1.27901 -3.25391,1.05274 -0.74637,-0.74637 2.71825,-6.73489 3.91993,-6.77539 1.90272,-0.0642 10.88221,-8.8217 10.1914,-9.93946 -1.0265,-1.6609 -3.40397,-1.17057 -4.74609,0.97852 -0.68696,1.1 -2.02884,2 -2.98242,2 -0.95357,0 -2.44697,1.37937 -3.31836,3.06445 -0.87139,1.68508 -1.95838,2.92258 -2.41602,2.75 -0.45764,-0.17258 -2.8554,-2.18914 -5.32812,-4.48047 -4.47393,-4.14573 -4.491579,-4.1883 -3.626957,-8.8164 0.477872,-2.55792 1.118562,-5.0549 1.423828,-5.54883 0.305266,-0.49393 0.585487,-3.47241 0.623047,-6.61719 0.03756,-3.14479 0.449784,-6.42312 0.916012,-7.28515 0.46624,-0.86203 1.58886,-5.16641 2.49414,-9.56641 2.18734,-10.63126 2.66979,-13.4274 2.16407,-13.40039 z m -86.917972,0.17969 c -0.219065,-0.0468 -0.373877,-0.0363 -0.447266,0.0371 -0.941873,0.94187 0.73722,4.68359 2.101563,4.68359 0.72463,0 2.081167,2.3625 3.015625,5.25 1.97892,6.11492 5.539481,10.26777 10.089844,11.76953 2.554009,0.8429 3.329475,1.73516 3.71875,4.27344 0.270579,1.76433 -0.122597,4.70316 -0.873047,6.53125 -1.469411,3.57946 -2.522466,3.64365 -8.648438,0.52734 -1.508767,-0.76751 -3.896475,-1.83494 -5.30664,-2.37109 -4.645993,-1.7664 -1.597873,0.91647 4.591797,4.04101 4.216659,2.12856 5.732285,3.40298 5.320312,4.47657 -1.02652,2.67507 -4.456115,1.6277 -18.027344,-5.51172 C 6.0002663,301.12826 0,298.37257 0,298.86328 c 0,1.42151 1.8096537,2.56136 13.787109,8.68164 6.208077,3.17222 11.521205,6.14558 11.806641,6.60742 0.285436,0.46185 -0.568661,1.33552 -1.898438,1.94141 -1.904824,0.86789 -3.104446,0.74625 -5.65039,-0.57031 -1.777349,-0.9191 -3.50638,-1.39401 -3.84375,-1.05664 -0.33737,0.33737 0.378316,0.87212 1.591797,1.18945 3.058873,0.79992 2.756668,2.58873 -0.792969,4.68555 -2.031317,1.19993 -3,2.56035 -3,4.21484 0,3.43731 1.629439,3.04616 2.351562,-0.56445 0.33086,-1.6543 0.94961,-2.89265 1.375,-2.75196 0.425391,0.14069 3.460897,-1.09329 6.746094,-2.74218 C 32.587178,313.42141 39,305.23283 39,297.39258 c 0,-3.37561 -1.427778,-4.73106 -9.5,-9.01367 -2.469413,-1.31012 -5.386732,-6.96224 -5.451172,-10.56055 -0.03254,-1.81683 -1.034137,-3.38446 -3.105469,-4.85938 -1.26125,-0.89808 -2.487336,-1.5394 -3.144531,-1.67968 z M 111.5,274.3125 c -0.77427,0.0936 -1.18855,2.45786 -1.37891,7.6875 -0.11011,3.025 -0.6285,9.325 -1.15234,14 -0.52384,4.675 -0.93742,10.075 -0.91992,12 l 0.0312,3.5 1.54492,-2.85156 c 1.09905,-2.0283 1.73561,-7.32055 2.20898,-18.34571 0.36593,-8.52247 0.37634,-15.67358 0.0215,-15.89257 -0.1257,-0.0776 -0.24486,-0.11096 -0.35547,-0.0977 z m -83.220703,4.06641 c -0.105141,0.10514 -0.177182,0.45463 -0.201172,1.03711 -0.04342,1.05416 0.193099,1.64479 0.525391,1.3125 0.332294,-0.33229 0.368945,-1.19415 0.08008,-1.91602 -0.159613,-0.39887 -0.299156,-0.53873 -0.404297,-0.43359 z m 200.423823,3.20312 c -0.11444,-0.1633 -0.3079,0.6024 -0.67773,2.16016 -0.75545,3.18213 -0.58705,15.28118 0.44922,32.38476 0.34476,5.69028 1.37304,10.88678 3.02344,15.27149 2.97576,7.90588 3.01352,8.34816 0.75195,8.82031 -1.35618,0.28313 -1.07489,0.70289 1.25,1.86328 3.52808,1.76093 4.04318,1.09756 2.58789,-3.32422 -1.7241,-5.23856 -6.94958,-44.35412 -7.18164,-53.75781 -0.0533,-2.16153 -0.0887,-3.25467 -0.20313,-3.41797 z m -16.30468,0.76367 c 1.21812,0.157 1.60156,0.50159 1.60156,1.08985 0,2.00998 -0.48776,2.10273 -9.31836,1.77148 -10.45828,-0.39232 -9.70479,-2.31845 1.10742,-2.83008 3.33841,-0.15797 5.39126,-0.18835 6.60938,-0.0312 z M 274.10742,283 c -2.60838,0 -3.07708,1.82398 -1.94531,7.57812 0.53238,2.70671 0.72062,7.62188 0.41797,10.92188 -0.30264,3.3 -0.13546,13.18842 0.37109,21.97461 0.63272,10.9747 0.59136,16.37042 -0.1289,17.23828 -1.25947,1.51756 -0.0923,2.05071 5.67773,2.59375 9.27346,0.87276 22.29594,-1.15091 24.5,-3.80664 0.67787,-0.81678 4.32903,-3.15812 8.11523,-5.20312 3.78621,-2.04503 6.88477,-4.07355 6.88477,-4.50782 0,-1.13127 -2.78866,-0.97398 -5.15234,0.29102 -1.11095,0.59456 -2.2232,0.87836 -2.47266,0.6289 -0.24946,-0.24945 1.36437,-7.47473 3.58594,-16.05664 C 316.1825,306.07042 318,297.06469 318,294.64062 c 0,-3.90712 -0.28377,-4.4611 -2.5,-4.88476 -2.86254,-0.54721 -3.18638,0.0215 -0.94531,1.66016 1.31485,0.96145 1.38477,1.90208 0.45508,6.10937 -2.57359,11.64664 -3.01972,12.7109 -5.07422,12.07422 -5.28059,-1.63644 -6.10561,-1.52286 -2.68555,0.37109 3.14596,1.74216 3.74545,2.59628 3.71875,5.30274 -0.0175,1.77436 -0.6675,4.06551 -1.44336,5.08984 -1.34783,1.77949 -1.80335,1.65306 -10.21875,-2.83398 -11.7566,-6.26855 -20.28685,-9.66994 -22.49609,-8.96875 C 275.16587,309.08255 275,308.39853 275,301.06836 275,296.57206 275.42505,293 275.96094,293 c 0.52883,0 8.17883,3.10187 17,6.89258 8.82117,3.79071 16.0362,6.60321 16.0332,6.25 -0.003,-0.35321 -7.40923,-4.24258 -16.45898,-8.64258 -16.21273,-7.88265 -16.45404,-8.04767 -16.49414,-11.25 -0.0314,-2.50779 -0.4729,-3.25 -1.9336,-3.25 z m 13.19727,1.44922 c -0.60388,-0.0832 -1.01606,-0.0718 -1.14453,0.0566 -1.34716,1.34716 5.03525,4.04846 21.33984,9.03125 0.55,0.16808 1.1125,0.34134 1.25,0.38477 0.1375,0.0434 0.25,-0.33913 0.25,-0.84961 0,-0.51048 -2.5875,-1.87178 -5.75,-3.02539 -3.1625,-1.15362 -6.65,-2.49967 -7.75,-2.99024 -2.83929,-1.26625 -6.38369,-2.35792 -8.19531,-2.60742 z m 20.91211,2.5957 c -0.7271,0 -1.11024,0.31849 -0.7168,0.95508 0.33992,0.55 1.60355,0.9928 2.80859,0.98438 1.78123,-0.0125 1.91089,-0.19629 0.69141,-0.98438 -0.98506,-0.63659 -2.05611,-0.95508 -2.7832,-0.95508 z m -185.5,3.33008 c -0.64391,-0.28927 -2.23243,1.93108 -4.31836,6.86328 -1.62362,3.83908 -1.93581,5.61176 -1.1543,6.55469 1.39925,1.68827 2.14794,0.74016 4.12305,-5.2207 1.69278,-5.10882 1.99352,-7.908 1.34961,-8.19727 z m -107.443362,1.07422 c -2.019435,0.77493 -1.589977,1.14474 5.925781,5.09375 C 28.155842,300.19819 29,300.46419 29,299 c 0,-0.55 -0.400389,-1 -0.888672,-1 -0.488283,0 -3.225867,-1.60818 -6.083984,-3.57422 -3.044735,-2.0944 -5.840608,-3.32702 -6.753906,-2.97656 z m -11.5273442,0.78516 c -0.2155641,0.0152 -0.3853595,0.0729 -0.4921876,0.17968 -0.4124639,0.41246 0.1226967,1.38794 1.1894532,2.16797 C 6.5871988,296.14964 9,296.46129 9,295.16992 9,294.06359 5.2550411,292.12808 3.7460938,292.23438 Z m 287.0058562,1.01953 c -1.8398,0.61984 7.80404,4.70763 14.74805,6.25195 7.19435,1.59999 8.48637,1.71328 6.5,0.56836 -3.09713,-1.78514 -20.04593,-7.22531 -21.24805,-6.82031 z m -218.4707,6.13281 c 0.525332,-0.52533 12.92528,4.02915 18.349609,6.74023 3.154059,1.57639 4.01292,2.51521 3.632813,3.96875 -0.27383,1.04712 -1.007508,1.89336 -1.63086,1.88086 -2.933715,-0.0588 -21.436515,-11.50488 -20.351562,-12.58984 z m -56.769531,0.0879 c -0.167798,0.0701 -0.17909,0.25368 -0.0039,0.53711 0.336025,0.5437 1.033241,0.98828 1.550782,0.98828 1.438432,0 1.121089,-0.71607 -0.611328,-1.38086 -0.444962,-0.17074 -0.767749,-0.21461 -0.935547,-0.14453 z m 15.179687,0.54101 C 29.97579,300.02481 30.098708,300.41754 31,301 c 1.921123,1.24153 2.267305,1.24153 1.5,0 -0.339919,-0.55 -1.153553,-0.99235 -1.808594,-0.98438 z m 248.253904,2.78711 c -0.47258,0.037 -0.84736,0.13719 -1.11523,0.30274 -1.93392,1.19523 -0.64249,1.8672 5.51367,2.86914 7.22027,1.17513 13.47873,4.06538 21.14453,9.76367 1.65604,1.231 3.43359,2.10288 3.94922,1.9375 2.81316,-0.90225 0.5761,-2.84711 -8.66406,-7.5332 -9.44117,-4.78804 -17.52007,-7.5991 -20.82813,-7.33985 z m -139.58203,1.27539 c -0.40581,-0.0725 -0.74851,-0.0249 -0.95703,0.1836 -0.37975,0.37976 -0.1215,1.37655 0.57422,2.21484 1.48781,1.7927 4.36266,2.05477 3.79297,0.34571 -0.41103,-1.23311 -2.19271,-2.52672 -3.41016,-2.74415 z m 24.88672,0.11719 c -0.17604,0.0666 -0.25,0.37471 -0.25,0.9375 0,0.84334 0.32747,1.86263 0.72852,2.26367 0.40104,0.40104 0.90244,0.21063 1.11328,-0.42187 0.21083,-0.6325 -0.11665,-1.64985 -0.72852,-2.26172 -0.40833,-0.40833 -0.68724,-0.58417 -0.86328,-0.51758 z m 132.26172,0.2793 c -0.1678,0.0701 -0.1789,0.25368 -0.004,0.53711 0.33602,0.5437 1.03324,0.98828 1.55078,0.98828 1.43843,0 1.1211,-0.71607 -0.61132,-1.38086 -0.44494,-0.17074 -0.76775,-0.21461 -0.93555,-0.14453 z M 0.359375,307.49414 c -0.45300487,0.10319 0.8461885,1.09727 4.2929688,2.89063 2.6662886,1.38727 5.5226562,2.51676 6.3476562,2.50976 0.825,-0.007 -1.1635205,-1.33361 -4.4199219,-2.94922 -3.5618286,-1.76715 -5.76769823,-2.55436 -6.2207031,-2.45117 z M 206.5,309 c -0.86218,0 -1.5,0.9031 -1.5,2.12305 0,1.77324 0.2468,1.91702 1.5,0.87695 0.825,-0.68469 1.5,-1.6404 1.5,-2.12305 C 208,309.39429 207.325,309 206.5,309 Z m -124.75,0.0332 c 2.311353,0.0435 11.498287,5.2097 12.013672,6.75586 0.544076,1.63222 -1.195772,1.42547 -8.013672,-0.95117 -4.302822,-1.49992 -5.75,-2.4876 -5.75,-3.92187 0,-1.17128 0.680575,-1.90292 1.75,-1.88282 z m 73.3125,0.23633 c -0.56906,0.12057 -1.42494,0.66203 -2.56641,1.73438 -1.61579,1.51795 -2.49323,3.42893 -2.49023,5.41992 l 0.004,3.07617 2.46484,-3 c 3.42826,-4.1739 4.29508,-7.59217 2.58789,-7.23047 z m 121.32617,1.00391 c 0.14223,-0.0236 0.30527,0.004 0.48828,0.0605 6.03837,1.86342 16.18184,6.09485 19.12305,7.97657 1.925,1.23157 5.1875,3.1173 7.25,4.1914 2.2576,1.1757 3.75,2.68248 3.75,3.78516 0,1.00739 -0.3375,1.65385 -0.75,1.4375 -0.4125,-0.21635 -3,-1.42143 -5.75,-2.67773 -2.75,-1.25633 -8.26546,-3.85202 -12.25586,-5.76954 -3.99041,-1.91752 -7.95554,-3.21752 -8.8125,-2.88867 -2.34848,0.9012 -0.89715,2.30196 3.17774,3.06641 1.99752,0.37474 6.84068,2.18459 10.76171,4.02148 3.92103,1.83688 8.34169,3.80949 9.82422,4.38477 l 2.69531,1.04687 -1.69531,4.17383 c -1.34547,3.31328 -2.62433,4.59747 -6.19531,6.2168 -4.71795,2.13944 -18.54998,3.48251 -20.61719,2.00195 -0.6999,-0.50128 -1.3085,-6.53534 -1.625,-16.13476 -0.39892,-12.09928 -0.36475,-14.7274 0.63086,-14.89258 z M 108,312 c -0.55,0 -1,0.92613 -1,2.05859 0,1.13246 0.45,1.78133 1,1.44141 0.55,-0.33992 1,-1.26605 1,-2.05859 C 109,312.64887 108.55,312 108,312 Z m 96.99609,1.93164 c -0.55534,0.021 -0.943,1.2424 -1.51757,4.31836 -0.45319,2.42615 -0.32443,3.75 0.36523,3.75 1.19261,0 2.74473,-6.74356 1.77539,-7.71289 -0.23542,-0.23542 -0.43793,-0.36247 -0.62305,-0.35547 z M 0.35546875,314 C 0.02530884,314 0.31531081,314.675 1,315.5 c 0.6846892,0.825 1.8532941,1.5 2.5976562,1.5 0.7443622,0 2.828113,0.89815 4.6289063,1.99609 C 11.951142,321.26697 12,321.28373 12,320.20898 12,319.48003 1.7227093,314 0.35546875,314 Z m 59.02148425,0 c -3.059341,0 -3.003478,0.92425 0.207031,3.48438 2.117529,1.68846 2.582032,2.90506 2.582032,6.74804 0,2.57859 -0.289287,5.15688 -0.642578,5.72852 -0.823234,1.33185 -4.104849,1.33363 -6.589844,0.004 C 53.823954,329.37077 53,329.3238 53,329.85547 c 0,0.50972 1.140702,1.21447 2.535156,1.56445 1.491015,0.37422 2.955513,1.74046 3.554688,3.31641 l 1.019531,2.67969 1.402344,-2.45899 c 3.670337,-6.43031 4.294716,-9.48894 3.052734,-14.95703 -1.036425,-4.56307 -2.279553,-6 -5.1875,-6 z m 83.066407,4.11328 c -0.63704,-0.63381 -0.34036,16.80518 0.30859,18.13672 0.20104,0.4125 0.6127,0.75 0.91407,0.75 0.73413,0 -0.43797,-18.10601 -1.22266,-18.88672 z M 54.292969,319.375 C 54.111719,319.45493 54,319.65018 54,319.94141 54,320.52387 54.45,321 55,321 c 0.55,0 1,-0.19887 1,-0.44141 0,-0.24254 -0.45,-0.71867 -1,-1.05859 -0.275,-0.16996 -0.525781,-0.20493 -0.707031,-0.125 z m 95.289061,1.24805 c -0.15588,0.0598 -0.38352,0.54451 -0.7207,1.37695 -0.55692,1.375 -0.78107,3.97692 -0.4961,5.78125 0.67447,4.27048 6.06913,15.65311 8.63282,18.2168 1.10131,1.10131 1.66445,2.0157 1.25195,2.0332 -0.4125,0.0175 0.12626,0.69587 1.19727,1.50586 1.88959,1.42906 1.84513,1.57446 -1.5,4.93555 -1.89601,1.90505 -4.00977,3.47859 -4.69727,3.49609 -0.6875,0.0175 -1.25,0.51423 -1.25,1.10352 0,1.68805 -2.27197,3.52791 -5.28906,4.28515 -2.0548,0.51572 -4.85804,-0.22363 -10.875,-2.86914 -4.4588,-1.96042 -8.55704,-3.41393 -9.10742,-3.23047 -0.55038,0.18346 2.65994,1.98333 7.13476,4 4.47482,2.01667 8.13672,4.13419 8.13672,4.70508 0,1.91923 -2.69614,1.0644 -13.625,-4.31836 -11.98581,-5.90334 -18.41844,-8.2831 -11.7793,-4.35742 3.98418,2.35581 6.48008,3.58275 22.6543,11.13672 4.2625,1.99074 7.75,3.89663 7.75,4.23633 0,1.6885 -10.50213,-0.95013 -16.60547,-4.17188 -5.87536,-3.1014 -6.41435,-3.24647 -3.64453,-0.99023 6.60226,5.37807 3.31346,5.57083 -7,0.41015 -3.1625,-1.58246 -5.75,-2.39605 -5.75,-1.80664 0,0.58942 1.35,1.58228 3,2.20508 1.65,0.62281 3,1.70769 3,2.41211 0,2.06169 -4.11611,1.31617 -9.5,-1.7207 -7.89478,-4.45316 -17.571927,-8.9888 -20.404297,-9.56446 -2.019197,-0.41039 -1.707353,-0.0249 1.404297,1.73829 2.2,1.24655 6.502807,3.40497 9.5625,4.79687 3.0597,1.39191 6.6597,3.29487 8,4.22852 l 2.4375,1.69726 -3.5,0.17188 c -10.222924,0.49963 -23.608426,-0.3798 -25.453125,-1.67188 -2.446986,-1.71393 -3.627034,-1.78035 -3.296875,-0.1875 0.149997,0.72366 -1.4678,1.45201 -4.044922,1.82227 -3.552428,0.51039 -4.849546,0.20576 -7.5,-1.76172 C 65.942491,368.95918 61.125,366.04685 57,363.79688 c -4.125,-2.25 -8.907335,-5.12978 -10.626953,-6.4004 C 43.462232,355.24571 42,355.16834 42,357.16602 42,357.62435 42.387132,358 42.861328,358 c 1.11568,0 20.918839,11.83339 21.572266,12.89062 0.273208,0.44203 -9.050642,0.63172 -20.71875,0.42188 -11.668108,-0.2098 -23.591479,-0.33831 -26.496094,-0.28711 -3.703225,0.0653 -6.960675,-0.67591 -10.9023438,-2.48047 -5.76390735,-2.6388 -7.5114804,-2.69014 -5.4101562,-0.1582 0.8118273,0.97819 0.8572767,1.64227 0.1425781,2.08398 C 0.47212112,370.82712 0,371.99105 0,373.05859 c 0,1.7646 0.74967055,1.94108 8.25,1.93946 4.5375,-9.8e-4 46.275,0.2423 92.75,0.54101 46.475,0.29871 104.63135,0.66918 129.23633,0.82227 24.60499,0.15309 44.93154,0.47229 45.16992,0.70898 0.23839,0.23654 3.73204,0.34492 7.76367,0.24219 4.03163,-0.10274 13.51758,-0.26277 21.08008,-0.35547 12.76931,-0.15649 13.75,-0.30294 13.75,-2.0625 C 318,373.32309 317.25274,373 313.61719,373 c -3.8147,0 -4.44254,-0.30729 -4.83594,-2.36523 -0.24863,-1.30062 0.0974,-3.11598 0.76953,-4.03516 1.18143,-1.6157 0.89992,-4.53689 -1.01172,-10.5 -0.72822,-2.27157 -0.58976,-2.36828 2.59571,-1.83399 1.85066,0.31043 4.15273,0.87523 5.11523,1.25586 1.19603,0.47299 1.75,0.21755 1.75,-0.80664 0,-0.82422 -1.0125,-1.7156 -2.25,-1.98046 -1.78817,-0.38277 -16.23849,-0.28563 -29.12305,0.19531 -3.45722,0.12904 0.13074,2.81202 11.00977,8.23242 5.8357,2.9076 10.03411,5.56745 9.55078,6.05078 -0.48333,0.48333 -3.46214,-0.60004 -6.77539,-2.46289 -3.25186,-1.82833 -9.17474,-4.8823 -13.16211,-6.78711 -3.98737,-1.90481 -7.24987,-3.80039 -7.25,-4.21289 -1.3e-4,-0.4125 -0.97435,-0.75 -2.16602,-0.75 -3.20386,0 -2.09969,0.72439 13.97461,9.16211 8.08047,4.24161 14.69141,8.30319 14.69141,9.02539 0,2.65228 -4.28902,1.80338 -10.06836,-1.99219 -3.26278,-2.14282 -10.96928,-6.32514 -17.12695,-9.29492 -6.15766,-2.96979 -11.07088,-5.84825 -10.91797,-6.39648 0.15291,-0.54824 7.66556,-1.93265 16.69531,-3.07618 17.21838,-2.18053 18.26278,-2.55259 27.25,-9.68164 1.55775,-1.23567 3.51827,-2.78095 4.35547,-3.43359 0.8372,-0.65265 1.35584,-1.68443 1.15234,-2.29492 -0.20535,-0.61605 -2.1441,0.39254 -4.35546,2.26758 -3.69602,3.13384 -10.80173,6.88241 -17.98438,9.48632 -1.65,0.59818 -8.4,1.58866 -15,2.20313 -6.6,0.61446 -13.7757,1.29043 -15.94531,1.50195 -2.1696,0.21152 -4.6446,0.0185 -5.5,-0.42968 C 256.15654,348.52848 249,347.74279 249,348.94336 c 0,0.61606 1.0125,1.52797 2.25,2.02539 1.2375,0.49741 1.63179,0.93385 0.87695,0.96875 -2.02737,0.0936 0.62404,3.05987 2.7461,3.07227 0.89516,0.005 4.45837,1.80523 7.91797,4 3.45961,2.19478 6.72211,3.99023 7.25,3.99023 0.5279,0 0.95898,0.3641 0.95898,0.80859 0,0.4445 1.78956,2.132 3.97656,3.75 4.47893,3.31364 4.81121,4.05657 2.18946,4.88868 -1.78503,0.56654 -12.32826,-5.33088 -29.89844,-16.72266 -3.97743,-2.5788 -11.06493,-6.50144 -15.75,-8.7168 -8.555,-4.04527 -11.26382,-6.80745 -5.55664,-5.66601 1.62867,0.32573 3.19572,0.21389 3.48242,-0.25 0.2867,-0.46389 -3.29557,-1.64594 -7.96094,-2.625 C 216.58887,337.43986 213,336.1845 213,335.49805 c 0,-0.65446 2.025,-3.03271 4.5,-5.28516 2.475,-2.25245 4.5,-4.60992 4.5,-5.23828 0,-1.70054 -8.10099,5.03411 -9.92383,8.25 -0.86697,1.52955 -2.25117,3.01224 -3.07617,3.29492 -0.825,0.28267 -2.61546,1.37334 -3.97852,2.42383 l -2.47851,1.91016 2.72851,2.14648 c 2.67079,2.10081 2.72852,2.37267 2.72852,12.96484 0,8.94433 -0.2745,10.926 -1.58203,11.42774 C 203.97986,368.32817 194,368.11177 194,367.12305 c 0,-1.50927 2.37939,-2.93295 5.49219,-3.28516 1.88175,-0.21293 3.1135,-0.98707 3.32226,-2.08789 0.45065,-2.37628 -2.09601,-2.24878 -7.33398,0.36719 l -4.24024,2.11719 -10.36914,-5.36719 c -5.70358,-2.95199 -10.6276,-5.71395 -10.9414,-6.13672 C 169.24069,351.80223 154,366.40759 154,367.99609 c 0,1.80324 6.03839,-2.21696 7.50391,-4.99609 0.72508,-1.375 2.65794,-3.77429 4.29687,-5.33203 2.94293,-2.79717 3.02205,-2.8121 6.33984,-1.16797 C 176.7614,358.78983 191,368.31429 191,369.11523 c 0,1.35122 -4.95053,1.52424 -7.91602,0.27735 C 181.27581,368.6323 180,368.50376 180,369.08008 c 0,0.54071 0.675,1.24201 1.5,1.55859 2.66406,1.0223 1.59378,2.36133 -1.88672,2.36133 -2.28538,0 -5.33208,-1.30024 -9.375,-4 C 163.58413,364.55653 163,364.35313 163,366.47461 c 0,0.81088 1.32237,2.15698 2.9375,2.99219 5.55076,2.87041 4.46109,3.47187 -5.65039,3.11718 -11.61867,-0.40756 -10.98224,-0.28729 -9.48633,-1.7832 1.70036,-1.70036 1.4953,-2.4894 -0.80078,-3.08984 -2.92996,-0.7662 -2.45774,-1.95852 1.66992,-4.21094 2.0158,-1.1 5.42375,-4.0901 7.57227,-6.64453 l 3.90625,-4.64453 -2.08008,-4.07813 c -1.14418,-2.24277 -3.35027,-5.55267 -4.90234,-7.35547 -3.74553,-4.35059 -6.15072,-10.74058 -6.22852,-16.54687 -0.0352,-2.62481 -0.0957,-3.70705 -0.35547,-3.60742 z m 131.24414,1.30078 c -0.82496,-0.12953 -1.41184,-0.13519 -1.67773,0.0137 -1.04211,0.58319 0.24768,1.32629 4.39258,2.53125 3.22759,0.93828 8.36406,2.99483 11.41406,4.57031 5.05502,2.61116 9.04492,3.70511 9.04492,2.47852 0,-1.75906 -17.39909,-8.68708 -23.17383,-9.59375 z M 0.44921875,322 C -1.3197459,322 1.0345236,324.25015 5,326.34961 c 4.8892599,2.58854 7.482624,3.23975 6.488281,1.63086 C 10.873002,326.98493 1.6712841,322 0.44921875,322 Z M 75.707031,322.35742 C 75.525781,322.28819 75.275,322.33004 75,322.5 c -0.55,0.33992 -1,1.06719 -1,1.61719 0,0.55 0.45,0.72273 1,0.38281 0.55,-0.33992 1,-1.06719 1,-1.61719 0,-0.275 -0.111719,-0.45616 -0.292969,-0.52539 z m -24.605469,0.20703 c -0.299221,0.29922 0.118664,0.96294 0.927735,1.47461 2.371276,1.49964 3.651343,1.03454 1.542969,-0.56054 -1.05985,-0.80183 -2.171481,-1.2133 -2.470704,-0.91407 z M 43.941406,324 c -0.582459,0 -0.781325,0.45 -0.441406,1 0.339919,0.55 0.816053,1 1.058594,1 C 44.801135,326 45,325.55 45,325 c 0,-0.55 -0.476135,-1 -1.058594,-1 z m 128.832034,0 c -0.60921,0 -0.80537,0.3001 -0.4375,0.66797 0.36786,0.36787 -0.12029,1.55931 -1.08399,2.64648 -1.70205,1.92011 -1.6873,1.94252 0.52149,0.78321 2.05298,-1.07754 2.86657,-0.67986 8.37695,4.10351 l 6.10352,5.29883 -4.37696,0.22852 C 173.58436,338.16137 164,340.1456 164,341.42969 c 0,1.54204 5.17777,8.4832 6.36523,8.5332 0.47576,0.02 0.13349,-1.07814 -0.75976,-2.44141 -1.56938,-2.39518 -1.53902,-2.50004 0.9043,-3.11328 2.92843,-0.73499 5.99166,0.32489 16.87304,5.83789 4.33571,2.19666 7.58662,3.51349 7.22461,2.92774 -0.36201,-0.58574 -4.69662,-3.19424 -9.63281,-5.79688 C 180.03841,344.77431 176,342.3298 176,341.94336 c 0,-1.42609 12.44372,-1.6922 15.16016,-0.32422 3.38169,1.70301 8.53416,7.915 10.0625,12.13086 1.87685,5.17719 2.70777,3.75972 1.07031,-1.82617 -1.70423,-5.81369 -4.32872,-8.58144 -18.01367,-19 -5.07143,-3.86096 -9.48508,-7.44918 -9.8086,-7.97266 C 174.14717,324.42769 173.38264,324 172.77344,324 Z m 30.99804,0.36719 C 203.62158,324.18588 203.3791,324.41339 203,325 c -0.53316,0.825 -0.97595,2.31363 -0.98438,3.30859 -0.008,0.99496 0.43438,1.53133 0.98438,1.19141 0.55,-0.33992 0.99238,-1.82855 0.98438,-3.30859 -0.006,-1.05238 -0.063,-1.64292 -0.2129,-1.82422 z m -120.941402,1.26953 c -1.451297,0.0665 -0.837371,1.29515 1.919922,2.79101 3.276687,1.77763 3.948068,1.86866 4.707031,0.64063 0.689314,-1.11534 -0.508852,-1.93629 -4.490234,-3.07813 -0.93954,-0.26945 -1.652953,-0.37567 -2.136719,-0.35351 z m 14.402344,0.95898 c -0.419747,0.0997 -0.07852,0.91749 1.261719,2.39844 0.998538,1.10337 2.532899,1.9905 3.410159,1.9707 1.10206,-0.0248 0.68058,-0.7851 -1.36524,-2.45703 -1.705873,-1.39411 -2.886891,-2.01179 -3.306638,-1.91211 z m -22.205078,0.30078 c -0.927553,-0.10768 -1.48925,0.2135 -2.277344,0.89649 -0.9625,0.83413 -1.75,1.89657 -1.75,2.36133 0,1.2954 1.781505,1.00314 2.238281,-0.36719 0.316451,-0.94935 1.280558,-0.94935 4.449219,0 6.37636,1.91041 7.281817,1.30521 1.8125,-1.21094 -2.251697,-1.03589 -3.545104,-1.572 -4.472656,-1.67969 z m -38.802735,1.30079 c -1.008321,0.19557 0.352598,1.10226 3.275391,2.18164 2.75,1.01556 7.25,2.90424 10,4.19726 4.654485,2.18849 7.5,2.96008 7.5,2.03321 0,-0.93323 -19.216976,-8.71437 -20.775391,-8.41211 z M 0.54101562,328.68555 C 0.18977722,328.65882 0,328.76768 0,329.02539 c 0,0.59219 1.4987946,1.70355 3.3300781,2.46875 4.6751012,1.95338 6.1259512,3.88158 4.1523438,5.51953 -1.2107522,1.0048 -2.0993809,1.02577 -4.140625,0.0957 -1.4297867,-0.65146 -2.81131236,-0.9719 -3.07031252,-0.7129 C -0.50289526,337.17088 1.0190062,339 2.4375,339 c 0.725196,0 1.8778108,0.675 2.5625,1.5 1.8432003,2.22092 2.7655201,1.84128 3.484375,-1.43164 0.3540537,-1.612 1.2904314,-3.46574 2.080078,-4.12109 C 11.354099,334.29192 12,332.82332 12,331.68555 c 0,-2.03259 -0.02513,-2.03422 -1.441406,-0.12696 -1.2042321,1.6217 -1.7390466,1.73876 -3.2500002,0.70508 -3.2058234,-2.19317 -5.7138629,-3.49794 -6.76757818,-3.57812 z M 29.083984,330 c -2.613374,0 0.171684,1.65433 6.416016,3.81055 3.3,1.13951 7.8,2.7525 10,3.58593 4.710082,1.78434 4.5,1.7315 4.5,1.12305 C 50,337.16665 32.404982,330 29.083984,330 Z m 139.919926,0 c -0.51339,0 -1.41011,0.88894 -1.99219,1.97656 -0.84894,1.58627 -0.77111,1.86888 0.38867,1.42383 C 169.08265,332.75485 170.38157,330 169.00391,330 Z m 115.42968,1.52734 c -1.47511,0.006 0.92236,1.42984 5.82032,3.0918 3.43515,1.16561 6.88294,2.1781 7.66211,2.25 3.81991,0.35247 -3.72772,-3.06697 -10.66602,-4.83203 -1.40348,-0.35704 -2.3247,-0.51175 -2.81641,-0.50977 z m -263.898434,0.52149 c -2.193027,-0.11035 2.436357,3.13801 7.025391,4.92969 2.71679,1.06071 5.389453,1.92675 5.939453,1.92578 1.222161,-0.002 -11.609713,-6.78727 -12.964844,-6.85547 z M 72.558594,334 c -1.985067,0 -1.97083,0.1446 0.52539,5.45508 1.336171,2.84258 3.040878,4.7842 4.75,5.41015 6.363468,2.33054 5.672116,0.12702 -2.085937,-6.64453 -1.513975,-1.32146 -2.50034,-2.81263 -2.191406,-3.3125 C 73.865576,334.40833 73.416053,334 72.558594,334 Z m -57.501953,1.92578 c -0.779825,0.11444 -2.025712,2.57524 -2.041016,4.32422 -0.02435,2.78291 1.697753,2.02731 2.279297,-1 0.290546,-1.5125 0.318838,-2.96163 0.0625,-3.2207 -0.08742,-0.0884 -0.189378,-0.11987 -0.300781,-0.10352 z m 267.550779,1.82031 c -1.04081,-0.13517 -2.09146,0.31641 -2.33398,1.00391 -0.32591,0.92386 1.4074,1.25 6.64258,1.25 7.80509,0 9.94275,-1.74764 2.33398,-1.9082 -2.6125,-0.0551 -5.60178,-0.21055 -6.64258,-0.34571 z m -258.996092,1.66602 c -0.435074,-0.0105 -0.236832,0.33485 0.337891,1.02734 0.712637,0.85868 2.028672,1.58654 2.923828,1.61914 0.895155,0.0326 5.226953,1.79429 9.626953,3.91407 8.775602,4.22779 9.5,4.46439 9.5,3.09961 0,-0.51048 -2.465733,-1.85129 -5.478516,-2.97852 -3.012782,-1.12723 -6.275282,-2.47522 -7.25,-2.99609 -0.974717,-0.52087 -3.76252,-1.6839 -6.195312,-2.58399 -1.961983,-0.72589 -3.02977,-1.09109 -3.464844,-1.10156 z M 58.5,340.06445 c -0.55,0 -0.126216,0.6593 0.941406,1.4668 1.067621,0.80751 2.391407,1.46875 2.941406,1.46875 0.550002,0 0.126215,-0.66124 -0.941406,-1.46875 C 60.373784,340.72375 59.05,340.06445 58.5,340.06445 Z m 154.79688,1.125 c 2.83725,-0.23855 4.89332,0.48052 8.94335,3.125 5.19786,3.39396 12.12406,7.23025 30.89063,17.11328 5.29659,2.78935 11.37159,6.52001 13.5,8.28907 l 3.86914,3.21679 -4.05078,0.0332 c -2.2275,0.0184 -4.64625,-0.5293 -5.375,-1.2168 -1.06,-1 -1.41654,-1 -1.7832,0 -0.46341,1.26384 -2.51608,1.69095 -3.48243,0.72461 -0.28885,-0.28885 -5.47264,-0.67965 -11.51953,-0.86914 l -10.99414,-0.3457 -8.39844,-5.42188 C 220.27805,362.85522 215.15,359.53348 213.5,358.45703 210.69018,356.6239 209.11543,353 211.12891,353 c 1.42554,0 19.94624,9.51572 24.23828,12.45312 2.12698,1.45567 4.06976,2.44391 4.3164,2.19727 0.76132,-0.76132 -5.74359,-5.19162 -15.66211,-10.66797 -11.33776,-6.25995 -13.94863,-8.0763 -13.99023,-9.73242 -0.0463,-1.84355 0.92365,-1.59755 8.77734,2.22461 7.03543,3.42394 12.19141,5.21888 12.19141,4.24414 0,-0.27405 -2.1375,-1.49642 -4.75,-2.7168 -2.6125,-1.22038 -7.42407,-3.85862 -10.69336,-5.86133 L 209.61133,341.5 Z m 48.75976,0.41797 c -5.28778,0.0863 -13.49212,1.17643 -13.81055,2.14258 -0.29203,0.88605 0.99388,1.24417 4.41993,1.23047 5.50224,-0.022 15.53255,-2.34708 13.30468,-3.08399 -0.71435,-0.23628 -2.15147,-0.31781 -3.91406,-0.28906 z m -166.046874,0.4668 c -0.895717,-0.0896 -0.885475,0.37005 -0.05469,1.37109 0.659674,0.79485 3.516926,2.21538 6.349612,3.15625 2.83268,0.94086 5.75486,2.31541 6.49414,3.05469 1.55914,1.55914 3.61387,1.82054 2.70117,0.34375 -0.372,-0.6019 0.94783,-1 3.31445,-1 2.16255,0 5.91916,-0.87997 8.34961,-1.95508 4.82131,-2.13269 6.33194,-1.88006 16.83594,2.80664 7.36809,3.28752 8.96329,2.41544 1.96484,-1.07422 -3.55554,-1.7729 -6.91484,-3.74282 -7.46484,-4.37695 -1.91616,-2.20925 -7.11028,-2.35719 -12.38867,-0.35156 -6.64619,2.52537 -14.64926,2.50675 -20.61133,-0.0488 -2.793407,-1.1974 -4.594517,-1.83617 -5.490234,-1.92578 z m -40.253907,1.09961 C 55.075167,342.96294 55,343.25753 55,343.89258 c 0,0.49117 1.6875,1.59373 3.75,2.44922 5.640693,2.33965 6.290588,1.94319 1.398438,-0.85352 -2.42516,-1.38639 -3.711887,-2.10356 -4.392579,-2.31445 z m 16.414063,0.32422 c -0.932477,0.93247 1.108659,4.21093 3.572266,5.73828 4.181157,2.59218 4.253224,2.1382 0.345703,-2.16406 -1.961928,-2.16012 -3.724296,-3.7679 -3.917969,-3.57422 z m 114.888668,0.5332 c -1.24626,0.0254 -1.16904,0.32623 0.38282,1.5 1.06762,0.80751 2.64262,1.455 3.5,1.4375 1.24626,-0.0254 1.16904,-0.32623 -0.38282,-1.5 -1.06762,-0.80751 -2.64262,-1.455 -3.5,-1.4375 z m -173.169918,0.75 c -0.400352,-0.20994 -0.600075,0.0799 -0.744141,0.79297 -0.198655,0.98325 0.675962,2.5365 1.984375,3.52344 3.223958,2.43183 3.485496,1.65448 0.708985,-2.11133 -0.947921,-1.28568 -1.548867,-1.99514 -1.949219,-2.20508 z m -7.7148439,0.35937 c -0.8629951,-0.1904 -1.4177414,0.65549 -0.7050781,1.8086 0.368079,0.59556 1.1275813,0.80113 1.6875,0.45508 0.6830031,-0.42212 0.6654449,-0.98298 -0.052734,-1.70118 -0.3208715,-0.32087 -0.6420216,-0.49901 -0.9296875,-0.5625 z m 233.2246119,0.18165 c -1.08185,0.26231 0.0754,1.87967 2.85156,3.09375 3.22708,1.41127 5.75,1.93731 5.75,1.19921 0,-0.6636 -4.39708,-3.29499 -6.75,-4.03906 -0.88097,-0.27859 -1.49095,-0.34134 -1.85156,-0.2539 z M 51.460938,347 C 51.206923,347 51,347.34972 51,347.77734 c 0,0.42761 3.0375,2.0734 6.75,3.65625 3.7125,1.58286 7.176719,3.25812 7.699219,3.72266 1.280217,1.13815 2.811235,1.07489 2.09375,-0.0859 C 67.029855,354.23999 52.602151,347 51.460938,347 Z m 44.730468,0.0156 C 94.734131,347.02886 94.707313,347.1646 96,348 c 1.958372,1.2656 3.282182,1.2656 2.5,0 -0.339919,-0.55 -1.378553,-0.99236 -2.308594,-0.98438 z m -7.640625,0.041 c -0.805351,0.0154 -1.567835,0.54626 -1.966797,1.58594 -0.802675,2.09174 -0.899883,2.01713 5.50586,4.29101 7.627721,2.70766 10.480536,2.42191 4.484375,-0.44921 -2.708782,-1.29706 -5.317781,-3.0623 -5.798828,-3.92188 -0.571436,-1.02112 -1.419259,-1.52127 -2.22461,-1.50586 z m -78.4375,0.0605 c -0.3481735,-0.20018 -0.9899028,0.15787 -1.9140622,1.08203 -1.8601024,1.8601 -1.4218091,4.53142 1.0234374,6.24414 2.8931678,2.02645 3.0681348,1.97031 1.7167968,-0.55469 -0.621686,-1.16163 -0.924894,-3.18663 -0.673828,-4.5 0.250685,-1.31137 0.195831,-2.0713 -0.152344,-2.27148 z M 175.2832,348 c -2.74001,0 -1.07511,1.99872 3.26368,3.91797 2.50111,1.10637 5.71171,2.9275 7.13476,4.04687 1.42305,1.11937 3.3148,2.01474 4.20313,1.99024 1.32849,-0.0366 1.26027,-0.31398 -0.38477,-1.56446 C 185.25147,353.16111 176.50646,348 175.2832,348 Z m -155.201169,0.37891 c -0.04199,0.11378 0.423004,0.47033 1.359375,1.16992 2.149798,1.60616 3.978628,1.94081 3.132813,0.57226 -0.298888,-0.48361 -1.562523,-1.13713 -2.808594,-1.45117 -1.092883,-0.27542 -1.641608,-0.4048 -1.683594,-0.29101 z m 108.333989,0.3164 c -0.3591,0.0223 -0.61919,0.10747 -0.76954,0.25781 -1.12512,1.12512 0.44504,1.84015 12.85352,5.85352 4.95,1.60101 9.42672,2.97502 9.94922,3.05274 2.19957,0.32699 -1.26272,-1.77525 -5.94922,-3.61133 -2.75,-1.07739 -7.45307,-2.92258 -10.45117,-4.10157 -2.58525,-1.01664 -4.55554,-1.51803 -5.63281,-1.45117 z m -92.724614,0.32031 C 34.97579,349.02483 35.098708,349.41754 36,350 c 1.921123,1.24153 2.267305,1.24153 1.5,0 -0.339919,-0.55 -1.153553,-0.99236 -1.808594,-0.98438 z m 31.5,0 C 65.734131,349.02882 65.707313,349.1646 67,350 c 1.958372,1.2656 3.282182,1.2656 2.5,0 -0.339919,-0.55 -1.378553,-0.99236 -2.308594,-0.98438 z m 53.330074,0.57032 c -0.40437,-0.03 -0.52148,0.0915 -0.52148,0.30664 0,0.48667 4.6125,2.56318 10.25,4.61328 5.6375,2.05011 10.67672,4.12535 11.19922,4.61133 0.5225,0.48599 1.62617,0.88281 2.45117,0.88281 2.53543,0 -0.0119,-1.54634 -7.40039,-4.49414 -10.96805,-4.37593 -14.76541,-5.82997 -15.97852,-5.91992 z m -48.830074,1.42968 C 70.97579,351.02483 71.098708,351.41754 72,352 c 1.921123,1.24153 2.267305,1.24153 1.5,0 -0.339919,-0.55 -1.153553,-0.99236 -1.808594,-0.98438 z m -23.552734,0.2168 c -0.996072,-0.14656 -1.586127,0.7207 -0.572266,1.72852 0.513333,0.51027 6.333594,3.63123 12.933594,6.93554 6.6,3.30431 12.3375,6.03046 12.75,6.05664 1.62324,0.1033 0.582267,-0.83103 -3,-2.6914 -10.596858,-5.50325 -19.888883,-10.59297 -21.023438,-11.51367 -0.377954,-0.30672 -0.755866,-0.46677 -1.08789,-0.51563 z M 150.5,353.03125 c -0.55,0 -0.325,0.43559 0.5,0.96875 0.825,0.53316 1.95,0.96875 2.5,0.96875 0.55,0 0.325,-0.43559 -0.5,-0.96875 -0.825,-0.53316 -1.95,-0.96875 -2.5,-0.96875 z m 107.30469,0.0176 c 2.18815,-0.0326 7.59557,2.17615 16,6.5332 14.19554,7.35929 21.74039,11.549 22.81054,12.66797 1.60444,1.67762 -9.2006,0.57658 -11.61523,-1.18359 -5.7931,-4.22295 -16.98011,-11.07786 -23.5,-14.40039 -6.5216,-3.32339 -6.77459,-3.57139 -3.69531,-3.61719 z m -238.478518,0.29101 c -0.218662,0.21867 1.306505,1.14494 3.388672,2.0586 2.082166,0.91367 4.910156,2.28296 6.285156,3.04101 2.551202,1.40651 6.86723,2.0938 5.677734,0.9043 -1.020949,-1.02094 -14.904628,-6.45084 -15.351562,-6.00391 z m 65.93164,0.0469 C 85.093289,353.38925 85,353.42983 85,353.51953 c 0,0.22883 1.2375,1.08765 2.75,1.9082 3.160355,1.71452 4.613902,1.96978 3.810547,0.66993 -0.512545,-0.82932 -5.151057,-2.72925 -6.302735,-2.71094 z m 24.253908,0.0879 c -0.1678,0.0701 -0.1789,0.25368 -0.004,0.53711 0.33602,0.5437 1.03324,0.98828 1.55078,0.98828 1.43843,0 1.1211,-0.71607 -0.61132,-1.38086 -0.44494,-0.17074 -0.76775,-0.21461 -0.93555,-0.14453 z m 186.98828,0.48437 4,0.65235 c 4.82198,0.7875 4.36535,0.43187 5.46094,4.25195 0.64859,2.26152 0.5699,3.10775 -0.28125,3.03125 -1.57329,-0.14142 -15.56431,-6.43196 -16.46875,-7.4043 -1.27749,-1.37339 4.16004,0.19998 10.28906,2.97657 6.47329,2.93256 6.70098,2.5903 0.75977,-1.14453 z M 120.88281,354 c -0.55,0 -0.72273,0.45 -0.38281,1 0.33992,0.55 1.06719,1 1.61719,1 0.55,0 0.72273,-0.45 0.38281,-1 -0.33992,-0.55 -1.06719,-1 -1.61719,-1 z m -17.5,1 c -0.82497,0 -1.22273,0.45 -0.88281,1 0.33992,0.55 1.29219,1 2.11719,1 0.82497,0 1.22273,-0.45 0.88281,-1 -0.33992,-0.55 -1.29219,-1 -2.11719,-1 z m -32.910154,1.69336 C 70.167969,356.63407 70,356.653 70,356.76172 c 0,0.43489 2.3625,1.97399 5.25,3.41992 5.407333,2.70776 6.75,3.171 6.75,2.33203 0,-0.26709 -2.7,-1.84784 -6,-3.51367 -2.475,-1.24937 -4.613281,-2.12876 -5.527344,-2.30664 z M 85.441406,357 c -0.857463,0 -1.281325,0.45 -0.941406,1 0.339919,0.55 1.041053,1 1.558594,1 C 86.576135,359 87,358.55 87,358 c 0,-0.55 -0.701135,-1 -1.558594,-1 z m 9.28125,0.0508 c -0.477976,0 -0.613747,0.31642 -0.222656,0.94922 0.339919,0.55 1.378553,0.9928 2.308594,0.98438 C 98.265869,358.97114 98.292687,358.8354 97,358 c -0.979186,-0.6328 -1.799368,-0.94922 -2.277344,-0.94922 z m -78.048828,1.13086 c -1.449533,0.25449 -0.279893,1.62224 3.076172,2.64648 2.0625,0.62946 5.1,2.01855 6.75,3.08594 3.601858,2.33006 5.5,2.57405 5.5,0.70899 0,-1.44861 -7.866129,-5.24706 -12.988281,-6.27149 -1.081389,-0.21628 -1.854713,-0.25475 -2.337891,-0.16992 z m 83.00586,1.12109 c -0.648872,0.23287 0.395312,1.1233 2.320312,1.97852 5.10693,2.26887 7.15273,1.97541 2.67969,-0.38477 -2.10113,-1.10865 -4.35113,-1.82661 -5.000002,-1.59375 z m -98.0937505,0.87696 c -0.2694949,-0.0538 -0.415119,-0.0207 -0.4941406,0.082 C 0.98643465,360.39866 1,360.65913 1,361 c 0,0.55 0.5625,1.00508 1.25,1.01172 0.6875,0.007 4.4,1.55576 8.25,3.4414 7.464197,3.65585 8.984201,4.13935 8,2.54688 -0.339919,-0.55 -1.030201,-1 -1.533203,-1 -0.503002,0 -4.150021,-1.575 -8.1054689,-3.5 -4.5476662,-2.21322 -6.466906,-3.15894 -7.2753906,-3.32031 z m 114.9726525,0.85547 c -0.58238,0.0195 0.0664,0.67882 1.44141,1.46484 3.23925,1.85173 4.02757,1.83609 1.55859,-0.0312 -1.06762,-0.80751 -2.41762,-1.45309 -3,-1.43359 z m -78.191402,0.41406 c -1.097164,0.0165 0.08915,1.85917 2.882812,3.5625 4.145656,2.52766 6.845841,2.62886 3.634766,0.13672 -1.311673,-1.018 -3.397266,-2.38381 -4.634766,-3.03516 -0.898476,-0.47291 -1.517092,-0.66956 -1.882812,-0.66406 z m 173.396482,0.2793 c 0.38146,-0.28964 1.00787,0.0563 2.23633,0.76757 1.375,0.79609 3.625,2.04115 5,2.76563 6.20151,3.26754 9.94957,6.01077 9.4082,6.88672 -0.34114,0.55197 -6.54416,0.84036 -14.74804,0.68554 -17.21935,-0.32496 -19.90839,-0.62485 -19.34375,-2.15625 0.23886,-0.64782 1.05234,-0.99889 1.80859,-0.77929 3.9005,1.13261 6.75332,1.11041 10.375,-0.082 3.54669,-1.1678 4.05666,-1.73989 4.5,-5.04297 0.24569,-1.83054 0.38221,-2.75529 0.76367,-3.04492 z M 245.61719,362 c -0.55,0 -0.12622,0.66124 0.9414,1.46875 1.06762,0.8075 2.39141,1.4668 2.94141,1.4668 0.55,0 0.12621,-0.6593 -0.94141,-1.4668 C 247.49097,362.66124 246.16719,362 245.61719,362 Z m -222.642581,2.0625 c -0.24319,0.007 -0.432836,0.0617 -0.548828,0.17773 -0.280421,0.28043 0.972646,1.45978 2.783203,2.61915 C 29.140194,369.37662 29,369.3474 29,367.62109 c 0,-1.22949 -4.323057,-3.60528 -6.025391,-3.55859 z m 52.31836,2.3125 C 75.111719,366.45493 75,366.65018 75,366.94141 75,367.52387 75.45,368 76,368 c 0.55,0 1,-0.19887 1,-0.44141 0,-0.24254 -0.45,-0.71867 -1,-1.05859 -0.275,-0.16996 -0.525781,-0.20493 -0.707031,-0.125 z" />
  </g>
</svg>
