<?xml version="1.0" encoding="UTF-8" standalone="no"?>
<!-- Created with Inkscape (http://www.inkscape.org/) -->

<svg
   version="1.1"
   id="svg2"
   width="364"
   height="385"
   viewBox="0 0 364 385"
   sodipodi:docname="25.svg"
   inkscape:version="1.1.2 (0a00cf5339, 2022-02-04)"
   xmlns:inkscape="http://www.inkscape.org/namespaces/inkscape"
   xmlns:sodipodi="http://sodipodi.sourceforge.net/DTD/sodipodi-0.dtd"
   xmlns="http://www.w3.org/2000/svg"
   xmlns:svg="http://www.w3.org/2000/svg">
  <defs
     id="defs6" />
  <sodipodi:namedview
     id="namedview4"
     pagecolor="#505050"
     bordercolor="#eeeeee"
     borderopacity="1"
     inkscape:pageshadow="0"
     inkscape:pageopacity="0"
     inkscape:pagecheckerboard="0"
     showgrid="false"
     inkscape:zoom="0.97272727"
     inkscape:cx="258.03738"
     inkscape:cy="71.448598"
     inkscape:window-width="1920"
     inkscape:window-height="1043"
     inkscape:window-x="0"
     inkscape:window-y="0"
     inkscape:window-maximized="1"
     inkscape:current-layer="g8" />
  <g
     inkscape:groupmode="layer"
     inkscape:label="Image"
     id="g8">
    <path
       id="path130"
       style="fill:#000000"
       d="m 28.408203,3.3261719 c -0.716451,0.0215 -1.148852,0.077411 -1.244141,0.171875 C 26.073035,4.5796461 22.655975,65.573304 21.421875,106 c -1.179733,38.64569 -1.24245,40.32829 -1.779297,47.5 -0.288196,3.85 -0.793891,25.45 -1.123047,48 -0.329156,22.55 -0.818283,47.2182 -1.085937,54.81836 -0.379797,10.78457 -0.768637,66.08187 -0.492188,69.99805 0.0317,0.449 1.296094,0.67403 2.808594,0.5 2.464458,-0.28356 2.762119,-0.73174 2.871094,-4.31641 0.944815,-31.07927 1.554504,-66.16634 1.96875,-113.46875 0.347013,-39.62518 0.837995,-57.67762 1.583984,-58.13867 0.595061,-0.36777 1.228903,-2.30457 1.408203,-4.30274 0.1793,-1.99817 0.67374,-4.18549 1.09961,-4.86132 0.425869,-0.67583 0.63044,-3.83232 0.453125,-7.01368 -0.177315,-3.18136 0.111136,-6.33136 0.640625,-7 1.540191,-1.94496 1.209491,-17.70645 -0.46875,-22.35546 C 28.178994,102.23554 28.080878,100.718 28.90625,99.175781 29.507914,98.051562 30,96.03149 30,94.6875 c 0,-1.343989 0.669646,-4.046605 1.488281,-6.005859 1.284885,-3.075168 1.294609,-3.756185 0.07031,-4.980469 -1.224289,-1.224284 -1.222573,-1.794742 0.01172,-4.173828 1.574243,-3.034355 1.952197,-5.90231 0.46875,-3.556641 -1.690843,2.673612 -2.448008,0.04616 -1.078124,-3.742187 2.070351,-5.725463 2.259038,-11.328095 0.447265,-13.330078 -1.141012,-1.260805 -1.300219,-2.229807 -0.585937,-3.564454 0.5396,-1.008253 1.038139,-2.167492 1.107422,-2.574218 0.06928,-0.406727 0.371522,-1.384078 0.673828,-2.171875 0.302306,-0.787796 0.0492,-2.366789 -0.5625,-3.509766 C 31.429317,45.935147 31.311718,45 31.779297,45 32.758681,45 32.82533,36.490649 31.853516,35.519531 31.49802,35.164293 31.390793,28.49034 31.615234,20.6875 31.918722,10.13651 32.340801,6.5549963 33.261719,6.7167969 33.942771,6.8364543 36.525,7.3799386 39,7.9238281 c 2.475,0.5438896 6.836365,1.0092501 9.691406,1.0332031 2.855041,0.023953 5.472279,0.4978766 5.816406,1.0546878 0.377713,0.611151 1.242621,0.66722 2.183594,0.140625 0.935781,-0.5236903 4.406364,-0.3244325 8.683594,0.498047 3.918529,0.753502 9.6,1.354392 12.625,1.335937 5.872014,-0.03583 15.14659,0.49021 26.5,1.501953 11.41492,1.017224 55.471,0.754343 62.5,-0.373047 7.73787,-1.241085 16.78752,-1.195149 19.32031,0.09961 1.0017,0.512067 8.4267,1.077613 16.5,1.255859 8.0733,0.178245 15.47386,0.646107 16.44336,1.039063 0.96951,0.392956 2.38929,0.193158 3.15625,-0.44336 1.01082,-0.838909 3.13857,-0.891499 7.73633,-0.191406 3.48854,0.531193 7.24375,0.979534 8.34375,0.996094 16.61649,0.25012 51.29659,1.306619 55.5,1.691406 3.025,0.276913 11.19938,0.601577 18.16602,0.720703 6.96663,0.119125 13.00044,0.551257 13.4082,0.958985 0.40776,0.407727 1.31169,0.267184 2.00781,-0.310547 0.89,-0.73863 2.54963,-0.67773 5.5918,0.203125 5.65612,1.637721 19.64801,1.771367 20.2539,0.193359 0.48309,-1.258176 4.22408,-0.702191 6.32227,0.939453 1.75281,1.371418 4.25,-0.915148 4.25,-3.890625 0,-2.363887 -0.0675,-2.377984 -11.75,-2.458984 C 336.36972,13.80786 303.76919,13.07527 291.5,12.552734 286,12.318493 274.975,11.867821 267,11.550781 259.025,11.233742 224.52079,10.802016 190.32422,10.591797 156.12764,10.381579 127.76382,9.9726457 127.29297,9.6816406 126.82211,9.3906354 115.42632,8.8711672 101.96875,8.5273438 88.511178,8.1835201 72.55,7.2747458 66.5,6.5078125 52.327074,4.7111696 33.423364,3.1756691 28.408203,3.3261719 Z M 175.32422,16.460938 c -1.37244,0.0062 -2.50231,0.113814 -3.1582,0.345703 -2.09081,0.739202 0.70962,2.156519 4.33398,2.193359 1.65,0.01677 4.8,0.589292 7,1.273438 3.96062,1.231656 12.67228,6.475403 13.35352,8.037109 0.19433,0.44548 1.41818,1.957987 2.71875,3.361328 1.30057,1.403341 2.64539,3.440848 2.99023,4.527344 0.90505,2.851573 -0.37016,8.513903 -2.06445,9.164062 -1.17432,0.450631 -1.36129,-0.335382 -0.99024,-4.154297 L 199.96484,36.5 l -1.08203,3.75 c -0.59489,2.0625 -1.4449,3.75 -1.88867,3.75 -0.44377,0 -2.38726,-2.201909 -4.32031,-4.892578 -3.01831,-4.201265 -4.4167,-5.191419 -9.89844,-7.015625 -5.3101,-1.767089 -6.92967,-1.933829 -9.63086,-0.992188 -4.18259,1.458061 -3.21895,2.339286 2.79492,2.556641 5.53287,0.19997 14.4272,4.290062 16.0918,7.400391 1.01933,1.90464 0.81466,1.873052 -2.71484,-0.423829 -5.82914,-3.793407 -11.59828,-4.929317 -21.04297,-4.142578 -6.15807,0.512964 -8.8489,1.199569 -10.52344,2.683594 -2.04951,1.816321 -2.07185,1.933676 -0.25,1.328125 7.45014,-2.476293 20.39719,-2.762781 18.94922,-0.419922 C 176.13696,40.587276 176.44823,41 177.14062,41 c 0.93774,0 0.97067,0.289102 0.12696,1.132812 -1.4075,1.407494 -4.65466,0.30272 -3.69141,-1.255859 0.42806,-0.692611 0.15889,-0.957967 -0.6875,-0.679687 -0.76406,0.251209 -1.52442,1.826715 -1.6914,3.5 -0.36034,3.6107 2.17656,4.765429 6.87109,3.128906 C 180.65226,45.925421 182.29353,43 180.21484,43 c -0.43215,0 -0.78711,-0.9 -0.78711,-2 0,-2.389965 0.5655,-2.447436 5.15625,-0.529297 3.35684,1.402576 3.48689,1.644191 2.86329,5.25 -1.29601,7.493834 -3.6133,14.273795 -5.17969,15.150391 -2.62919,1.471365 11.75551,10.524834 16.8164,10.583984 2.15063,0.02513 3.91011,0.382422 3.91211,0.794922 0.005,1.26964 -6.51571,0.830083 -10.96093,-0.738281 C 186.55207,69.577172 180,64.353454 180,61.916016 180,60.649154 179.30317,60 177.94336,60 c -1.97343,0 -1.98981,0.111126 -0.41992,2.75 0.8998,1.5125 3.14285,3.875 4.98437,5.25 1.84152,1.375 2.98117,2.875696 2.53321,3.335938 -1.08679,1.116572 -16.13531,2.109069 -19.4336,1.28125 -5.09412,-1.278543 -2.69008,-2.595455 3.54883,-1.94336 4.54654,0.475208 5.97028,0.340109 5.44141,-0.515625 C 174.20373,69.520814 171.953,69 169.5957,69 c -5.5193,0 -6.92683,-1.604253 -9.47461,-10.800781 -1.72636,-6.231532 -1.81018,-7.382385 -0.57226,-7.857422 C 160.34649,50.035709 161,49.139876 161,48.349609 c 0,-0.790266 0.5625,-1.36467 1.25,-1.27539 2.45251,0.318472 3.75,-0.09075 3.75,-1.183594 0,-1.182853 -5.07157,-0.809317 -8.38672,0.617187 -1.37118,0.590025 -1.76361,0.445143 -1.43945,-0.527343 0.52419,-1.57256 2.05147,-2.434506 6.82617,-3.851563 3.34645,-0.993174 3.25995,-1.029842 -1.98242,-0.833984 -4.46056,0.16665 -5.54398,-0.112173 -5.8125,-1.492188 -0.33646,-1.729173 4.82166,-4.619741 11.29492,-6.330078 2.03807,-0.538491 2.45727,-0.921884 1.30664,-1.195312 -0.93155,-0.221364 -4.51431,0.736749 -7.96094,2.128906 -6.87245,2.775922 -8.19434,2.293946 -6.82226,-2.490234 1.08542,-3.784607 3.87243,-7.38797 7.29492,-9.429688 3.29292,-1.964414 4.28103,-1.477525 2.76172,1.361328 C 161.70103,26.424399 161.67733,31 163.04297,31 c 0.57411,0 0.93113,-0.5625 0.79297,-1.25 -0.40769,-2.028733 1.11993,-6.75 2.18359,-6.75 0.53952,0 0.98047,1.548865 0.98047,3.441406 0,1.892541 0.42771,3.705783 0.95117,4.029297 0.5548,0.342885 0.88021,-1.196934 0.7793,-3.691406 -0.0952,-2.353555 0.15918,-5.516797 0.56641,-7.029297 0.94999,-3.528485 -0.88583,-3.620849 -7.81836,-0.392578 -5.98414,2.786634 -10.99548,7.549816 -13.00586,12.361328 -1.30224,3.1167 -1.2861,3.89967 0.15039,7.140625 3.07515,6.938038 4.15896,9.671935 6.39453,16.140625 1.23552,3.575 3.07279,8.143674 4.08398,10.152344 2.1349,4.240838 1.93775,4.52361 -5.64258,8.058594 -2.72718,1.271781 -7.06457,3.769734 -9.63867,5.550781 C 141.24622,80.542765 138.80859,82 138.4043,82 138,82 134.59488,84.337615 130.83594,87.195312 123.95582,92.425851 119.81741,97.379779 118.4707,102 c -1.18754,4.07413 -8.33278,18.79691 -9.46093,19.49414 -0.57253,0.35384 -1.67594,2.07433 -2.45313,3.82422 -0.77718,1.74989 -3.06387,4.98164 -5.08203,7.18164 -2.018165,2.2 -4.442876,5.22212 -5.388672,6.71484 -0.945798,1.49272 -3.489322,4.07311 -5.652344,5.73633 -6.606123,5.07966 -6.628832,5.10814 -5.488282,6.48242 0.575003,0.69283 5.658534,2.0634 11.298829,3.04688 5.640289,0.98347 11.380859,2.23747 12.755859,2.78711 1.375,0.54964 4.54954,1.11661 7.05469,1.25976 2.50516,0.14314 6.68358,0.98394 9.28515,1.86719 2.60157,0.88326 5.5884,1.60547 6.63672,1.60547 1.04832,0 2.17687,0.43989 2.50977,0.97852 1.73477,2.80692 -5.43035,8.42078 -14.84571,11.6289 -2.55195,0.86954 -4.64062,1.97222 -4.64062,2.45117 0,1.31025 2.99721,2.6253 7.79297,3.41993 l 4.29297,0.71093 -2.05664,3.48633 c -2.07136,3.51069 -4.57823,12.47476 -7.36133,26.32422 -1.56993,7.81241 -3.38598,16.71235 -4.2832,21 -0.32135,1.53564 0.49627,4.71803 2.11914,8.25 l 2.64257,5.75 h 11.88086 11.88282 l 0.45703,3.25 c 2.87302,20.37713 3.17932,26.3922 1.61328,31.75586 -1.4268,4.88679 -1.671,25.44353 -0.32227,27.13672 0.59472,0.7466 1.65647,3.14091 2.35938,5.32031 0.70291,2.17941 2.5621,5.73478 4.13086,7.90039 3.44052,4.7495 3.56715,5.83879 0.60156,5.15625 -3.14907,-0.72477 -51.815093,-1.74895 -92,-1.9375 -26.801573,-0.12576 -33.75,0.10476 -33.75,1.11914 0,0.70255 1.0125,1.30811 2.25,1.34571 1.2375,0.0376 17.55,0.27562 36.25,0.53124 60.90011,0.83248 86.95746,1.32896 89.33008,1.69922 2.22089,0.34659 4.12138,2.21941 4.1543,4.09375 0.009,0.49068 -6.86229,0.53436 -15.73438,0.0996 -19.70833,-0.96565 -118.20795,-1.21085 -117.640625,-0.29297 1.460688,2.36329 10.919446,2.78862 70.183594,3.16016 60.552991,0.37962 63.355001,0.47811 64.718751,2.2793 3.13603,4.14192 2.34553,4.37311 -15.76172,4.5957 -36.72935,0.45151 -69.549629,0.30157 -76.25,-0.34766 -3.85,-0.37304 -11.725,-0.94024 -17.5,-1.25976 -5.775,-0.31952 -13.2,-1.03427 -16.5,-1.58789 -8.067951,-1.35353 -8.593619,-1.24383 -4.476562,0.93359 2.704228,1.4302 6.539704,1.98919 16.5,2.4043 7.137235,0.29745 17.251562,1.01244 22.476562,1.58789 5.225,0.57546 19.4,0.94653 31.5,0.82617 12.1,-0.12035 31.1125,-0.22994 42.25,-0.24414 L 161,345.5 v -3.625 c 0,-1.99338 -1.575,-7.52973 -3.5,-12.30469 -1.925,-4.77496 -3.5,-9.4015 -3.5,-10.28125 0,-0.87974 -1.05961,-2.99339 -2.35547,-4.69531 -1.29587,-1.70191 -2.65928,-4.05192 -3.0293,-5.22266 -0.64718,-2.04774 -0.37527,-2.12881 7.1836,-2.13281 4.32161,-0.002 9.80337,-0.33289 12.17969,-0.73437 l 4.32031,-0.73047 -0.57813,3.5625 c -0.31792,1.95911 -1.33907,5.16245 -2.26758,7.11914 -1.43745,3.02924 -1.48432,3.80278 -0.32031,5.20898 0.96652,1.16762 1.30021,4.16941 1.14063,10.24414 -0.17442,6.63935 0.25057,9.8938 1.86523,14.32032 1.29952,3.56255 1.84224,6.70771 1.4375,8.32031 -0.58183,2.3182 -0.99071,2.52295 -3.86328,1.91797 -1.76717,-0.37218 -3.63961,-1.08022 -4.16211,-1.57227 -1.58035,-1.48827 -3.41647,-1.012 -4.5957,1.19141 -1.25834,2.35124 -0.32442,4.1301 1.02344,1.94922 0.73338,-1.18664 1.52563,-1.11073 5.05859,0.48242 3.92338,1.76919 4.37225,1.7839 7.04492,0.25 2.83551,-1.62736 2.87032,-1.61416 5.63477,2.04687 6.50748,8.61797 6.48808,10.78489 -0.0918,9.75391 -5.32409,-0.83421 -16.47871,-6.02171 -17.24609,-8.02148 C 161.64435,360.63259 160,360.51096 160,362.37109 c 0,1.66811 -9.50587,2.55325 -28.5,2.65235 -7.15,0.0373 -20.68532,0.38381 -30.07812,0.77148 C 79.848675,366.68532 72,366.31727 72,364.41211 72,363.63596 71.55,363 71,363 c -0.55,0 -1,0.45 -1,1 0,0.55 -1.8,1 -4,1 -2.2,0 -4,0.39195 -4,0.87109 0,1.80982 11.455867,2.22706 46.92383,1.71094 55.81227,-0.81215 51.30489,-1.00774 61.57617,2.68359 l 9,3.23438 -18,0.57617 c -34.39714,1.10135 -100.00386,0.2847 -112.5,-1.40039 -6.325,-0.85292 -14.543526,-1.85616 -18.263672,-2.23047 -3.720146,-0.37431 -7.022454,-1.09898 -7.33789,-1.60937 -0.31544,-0.51039 -0.871913,-7.54559 -1.236329,-15.63282 C 21.539527,339.38665 21.379281,338.5 19.5,338.5 c -1.893555,0 -2.014572,0.75857 -2.277344,14.26367 C 16.931685,367.71807 17.607845,371 20.984375,371 c 1.053076,0 3.878023,1.32409 6.277344,2.94336 l 4.363281,2.94531 16.4375,0.0723 c 9.040751,0.0394 47.4875,0.50074 85.4375,1.02734 37.95,0.52661 71.61363,0.96968 74.80859,0.98438 3.3455,0.0154 5.56353,0.42399 5.23047,0.96289 -0.35446,0.57351 0.58837,0.60131 2.4336,0.0723 2.91208,-0.83517 30.54875,-0.46354 63.52734,0.85352 8.8,0.35145 31.42402,0.63867 50.27539,0.63867 29.67431,0 34.23631,-0.19721 33.99023,-1.47461 -0.1911,-0.99223 -1.75504,-1.55821 -4.77539,-1.72461 -2.47008,-0.13608 -11.14386,-0.64389 -19.27539,-1.1289 -8.13154,-0.48503 -15.89674,-0.66802 -17.25586,-0.40821 -1.35912,0.25982 -3.07346,-0.0289 -3.81054,-0.64062 -0.94793,-0.78672 -2.92159,-0.82584 -6.74414,-0.13282 -7.10606,1.28831 -87.87878,0.58309 -102.68946,-0.89648 -6.46524,-0.64587 -12.01751,-0.75994 -13,-0.26758 -0.94321,0.47268 -2.83228,0.57365 -4.19922,0.22461 -2.06719,-0.52785 -2.7705,-1.7189 -4.17382,-7.08594 -0.92794,-3.54892 -1.5042,-6.63641 -1.28125,-6.85937 0.22295,-0.22295 1.84839,0.009 3.61328,0.51562 2.4001,0.68834 3.40877,1.69131 4.00195,3.98047 0.4362,1.68333 1.62469,3.81301 2.64063,4.73242 1.74333,1.57769 1.99762,1.50377 4.51562,-1.32226 1.46738,-1.64688 2.66797,-3.22415 2.66797,-3.50391 0,-1.15295 -3.4699,-0.39191 -5.15039,1.12891 -1.61305,1.45983 -1.87112,1.46926 -2.40039,0.0898 -0.32627,-0.85023 0.14048,-2.96741 1.03906,-4.70508 0.89858,-1.73766 2.78951,-6.61537 4.20117,-10.83984 1.41166,-4.22448 4.11046,-10.75903 5.9961,-14.51953 1.88564,-3.76049 3.28536,-7.57671 3.11133,-8.48047 -0.17405,-0.90375 -2.09594,2.02643 -4.27149,6.51172 -3.14499,6.48398 -4.47507,8.25531 -6.49023,8.64258 -1.39399,0.26793 -2.72112,0.30557 -2.94727,0.082 -0.96216,-0.95052 5.64376,-15.05713 9.71094,-20.73828 5.42244,-7.57422 8.79139,-14.7298 9.73828,-20.67969 1.02844,-6.46222 4.67358,-13.82792 9.34375,-18.88086 3.22891,-3.49356 3.85367,-4.7454 3.08398,-6.18359 C 228.434,275.94366 228,273.37148 228,271.2207 c 0,-2.15079 -0.93343,-6.56853 -2.07422,-9.8164 -1.14078,-3.24788 -2.50517,-8.3244 -3.0332,-11.28321 -0.52803,-2.95881 -1.38105,-6.16556 -1.89453,-7.125 -0.51348,-0.95944 -0.67213,-3.94462 -0.35352,-6.63476 0.46085,-3.89117 0.039,-6.218 -2.05859,-11.37695 -1.45014,-3.56661 -3.04173,-7.21187 -3.53711,-8.10157 -0.49537,-0.88971 -1.41967,-3.58971 -2.05469,-6 -1.01622,-3.85714 -3.25194,-9.23739 -7.46875,-17.97461 -0.93137,-1.92979 -1.00357,-4.22023 -0.28516,-8.96679 1.02077,-6.74424 -0.39689,-19.61797 -2.53711,-23.04493 -0.8437,-1.35098 -0.6478,-2.59257 0.85157,-5.4082 1.07027,-2.00983 2.26735,-3.85768 2.66015,-4.10742 0.39279,-0.24974 1.81908,1.29566 3.16993,3.43555 4.92434,7.80065 11.32515,11.96381 32.61523,21.20898 5.225,2.26895 9.92672,4.54215 10.44922,5.05078 0.5225,0.50863 1.93721,0.92383 3.14258,0.92383 1.54799,0 2.39156,0.79448 2.87109,2.70508 0.37339,1.48773 2.18937,4.07523 4.03711,5.75 1.84774,1.67477 3.64165,4.04271 3.98633,5.26172 l 0.62695,2.21679 -11.45117,-0.61523 c -11.3694,-0.6093 -15.86789,-0.0879 -14.08008,1.62891 0.50447,0.48443 9.46797,1.39139 19.91797,2.01562 10.45,0.62424 20.575,1.38886 22.5,1.69922 3.33923,0.53838 3.39039,0.60582 1.10547,1.47266 -1.31721,0.49971 -3.18561,0.65643 -4.15235,0.34961 -0.96672,-0.30684 -9.1144,-0.97919 -18.10546,-1.49415 -8.99106,-0.51495 -17.58516,-1.22598 -19.09766,-1.58007 -2.24878,-0.52647 -2.74914,-0.30372 -2.74414,1.22265 0.005,1.6438 0.99003,1.90599 8.24805,2.19727 4.53294,0.18192 8.41138,0.50121 8.61914,0.70898 0.42836,0.42836 -1.48059,5.38914 -5.17969,13.46094 -1.38628,3.025 -3.29039,7.975 -4.23047,11 -0.94007,3.025 -2.10355,5.92672 -2.58594,6.44922 -0.48239,0.5225 -0.87695,1.52943 -0.87695,2.23633 0,0.70691 -2.19047,6.35323 -4.86719,12.54883 -5.58228,12.92088 -8.0491,19.68989 -9.11133,24.99804 -0.41072,2.05244 -1.18493,4.30244 -1.7207,5 -0.91979,1.19755 -2.47756,5.08949 -7.41406,18.51758 -1.16262,3.1625 -2.70049,7.1 -3.41797,8.75 -2.26793,5.21559 -5.46822,13.96184 -5.46875,14.94922 -0.001,2.30458 2.06433,-1.6468 5.98242,-11.44922 2.30831,-5.775 4.54189,-10.95 4.96289,-11.5 0.421,-0.55 2.24948,-5.275 4.06446,-10.5 1.81497,-5.225 5.02971,-13.09845 7.14453,-17.49609 2.11483,-4.39765 3.8457,-8.49755 3.8457,-9.11133 0,-0.61378 1.30247,-3.99034 2.89453,-7.50391 4.26509,-9.41275 13.34319,-32.04798 17.08789,-42.60742 2.89457,-8.1622 3.47648,-9.10718 5.07813,-8.25 0.99486,0.53243 3.63688,0.96875 5.87304,0.96875 2.23616,0 4.06641,0.46412 4.06641,1.03125 0,0.56714 -2.19676,6.07964 -4.88281,12.25 -8.31915,19.11072 -10.36541,24.50727 -9.70117,25.58203 0.35252,0.57039 -0.27328,1.52415 -1.38868,2.1211 -1.11541,0.59692 -2.02734,1.63607 -2.02734,2.30859 0,0.67253 -1.125,3.33699 -2.5,5.91992 -1.375,2.58293 -2.5,5.12134 -2.5,5.64258 0,0.52124 -1.76096,4.70542 -3.91406,9.29687 -2.1531,4.59146 -5.05026,11.04766 -6.4375,14.34766 -1.38723,3.3 -9.97627,20.81482 -19.08594,38.92188 -15.4867,30.78255 -18.08111,36.63414 -15.55078,35.07031 1.57924,-0.97602 7.91444,-11.24748 11.27148,-18.27539 2.6242,-5.49372 3.32664,-6.27274 5.12891,-5.69141 1.1485,0.37045 8.83789,1.05451 17.08789,1.51953 8.25,0.46502 16.97609,1.13176 19.39062,1.48242 3.07865,0.4471 4.62621,0.25345 5.1836,-0.64843 0.60488,-0.97871 1.34958,-1.02566 3.11133,-0.19336 2.97749,1.40663 9.1072,2.97513 14.81445,3.78906 2.475,0.35297 6.75,1.04813 9.5,1.54492 2.75,0.49679 8.6,1.39471 13,1.99609 19.59636,2.67848 25.5,4.08781 25.5,6.0879 0,1.30554 -0.7008,1.89055 -2.25,1.87695 -2.74308,-0.0242 -14.26739,-1.57273 -21.75,-2.92188 -3.025,-0.54543 -9.775,-1.69522 -15,-2.55468 -5.225,-0.85946 -11.64283,-2.04428 -14.26172,-2.63477 -5.3587,-1.20825 -9.51397,-0.45032 -6.57617,1.19922 0.91384,0.51311 8.33884,2.02097 16.5,3.35156 13.24887,2.16009 20.62639,3.19335 36.56445,5.12305 5.31119,0.64305 6.26125,1.4377 4.49219,3.76172 -1.10003,1.44511 -1.9934,1.46193 -9.21875,0.16797 -22.65185,-4.05663 -58.2594,-7.35568 -84.39648,-7.81836 -15.66849,-0.27735 -19.07009,-0.1024 -17.69336,0.90429 1.17997,0.86282 6.75712,1.28093 18.1289,1.36133 9.03399,0.0638 17.58747,0.55766 19.00782,1.09766 1.42032,0.54001 6.85542,0.98242 12.07617,0.98242 5.22075,0 12.5026,0.42671 16.18359,0.94922 3.68095,0.52252 14.90586,1.95026 24.94336,3.17187 10.0375,1.2216 18.23625,2.48241 18.21875,2.80079 -0.0175,0.31837 -0.67258,1.4236 -1.45508,2.45703 -1.38934,1.83485 -1.76591,1.82694 -16.00781,-0.37696 -8.02131,-1.24128 -14.83263,-2.00919 -15.13672,-1.70507 -0.3041,0.30407 1.62615,0.85115 4.28906,1.21484 2.66291,0.3637 8.02116,1.52165 11.90625,2.57422 3.88508,1.05256 8.23032,1.91406 9.65625,1.91406 2.10669,0 2.4926,0.37842 2.06446,2.01562 -0.94716,3.62194 1.98849,1.19821 6.71484,-5.54492 2.84474,-4.05862 5.05175,-6.27416 6,-6.02148 0.825,0.21985 8.1375,0.70637 16.25,1.08008 12.80504,0.58987 14.75,0.47859 14.75,-0.83594 0,-1.71768 -11.18214,-3.01669 -25.75,-2.99219 -6.02366,0.0101 -8.25,-0.32952 -8.25,-1.25976 0,-0.70073 0.54122,-1.45514 1.20312,-1.67579 0.93701,-0.31231 0.94181,-3.46489 0.0176,-14.23437 -0.65296,-7.60786 -1.40898,-14.05351 -1.67968,-14.32422 -1.14251,-1.1425 -3.47152,2.05651 -2.65625,3.64844 0.46334,0.90474 1.10736,5.59395 1.43164,10.41992 0.52374,7.79446 0.42252,8.60613 -0.90821,7.27539 -2.00506,-2.00505 -6.52823,-3.13843 -21.94922,-5.5 C 298.33154,337.95929 286.875,336.187 280,335.11133 c -8.01914,-1.25469 -21.02738,-2.21316 -36.28711,-2.67383 -13.08254,-0.39495 -23.65754,-0.993 -23.5,-1.32812 0.68999,-1.46779 11.08159,-19.89469 12.75,-22.60938 C 235.78531,303.90762 242,291.34489 242,290.23242 c 0,-0.54344 0.62439,-1.50632 1.38867,-2.14062 0.76428,-0.63429 2.41376,-3.9525 3.66406,-7.37305 1.2503,-3.42055 2.59996,-6.66875 3,-7.21875 0.40005,-0.55 2.38525,-5.05 4.41211,-10 2.02686,-4.95 4.47231,-10.35364 5.4336,-12.00781 0.9613,-1.65417 2.93607,-6.44985 4.38867,-10.65625 1.4526,-4.2064 4.38852,-11.40277 6.52344,-15.99219 2.13492,-4.58943 4.68457,-10.53748 5.66601,-13.21875 l 1.78516,-4.875 6.9414,0.49609 c 6.6448,0.47543 6.98441,0.3927 7.8711,-1.93945 1.39465,-3.66822 1.15904,-4.30664 -1.58594,-4.30664 -2.38956,0 -2.48061,-0.20686 -1.86719,-4.25 0.35464,-2.3375 1.25987,-4.95981 2.01172,-5.82812 2.24726,-2.59533 1.64558,-7.3983 -1.35547,-10.81836 C 288.77986,178.39696 286.97082,177 286.25781,177 c -0.88344,0 -1.09558,-0.7963 -0.66797,-2.5 0.68548,-2.73118 -1.23374,-3.59234 -2.22851,-1 -0.63639,1.6584 -2.18133,1.90162 -4.15039,0.65234 -0.96124,-0.60986 -1.03169,-1.49512 -0.27539,-3.48437 1.20715,-3.17502 2.91005,-3.36442 6.30078,-0.69727 2.49374,1.96158 2.51386,1.96158 4.28906,0 0.98114,-1.08415 2.22791,-1.9707 2.76953,-1.9707 1.61169,0 3.63973,-3.31704 3.67383,-6.00977 0.0175,-1.38062 -1.11251,-3.74312 -2.50977,-5.25 -2.00065,-2.15761 -3.43495,-2.73667 -6.75,-2.72461 -6.65922,0.0242 -8.06182,1.81462 -9.19336,11.73633 -0.39215,3.43849 -1.11968,6.50308 -1.61718,6.81055 C 274.29308,173.55466 266,171.83497 266,170.50977 c 0,-1.36489 -15.95415,-14.6382 -22.51562,-18.73243 -2.20807,-1.37779 -4.66272,-3.28899 -5.45704,-4.24609 -0.79433,-0.9571 -2.45313,-2.12324 -3.68554,-2.5918 -1.47096,-0.55925 -2.61099,-2.22655 -3.31836,-4.85351 -0.59265,-2.20092 -1.45711,-4.23546 -1.91992,-4.52149 -0.46281,-0.28604 -1.13703,-2.37655 -1.5,-4.64648 -0.36298,-2.26992 -1.32356,-5.40771 -2.13282,-6.97266 C 224.66143,122.38036 224,119.5241 224,117.59766 c 0,-1.92643 -0.51562,-4.6369 -1.14648,-6.02149 -0.89789,-1.97066 -0.85349,-2.86944 0.20312,-4.14258 1.14479,-1.37939 1.1073,-1.76236 -0.24219,-2.51757 -0.87514,-0.48975 -1.89761,-2.11001 -2.27148,-3.59961 -0.37387,-1.489627 -1.99881,-4.210319 -3.61133,-6.046879 C 215.31912,93.432971 214,91.540988 214,91.064453 c 0,-1.012629 -4.3629,-3.796599 -16.5,-10.527344 -8.70376,-4.826753 -10.12741,-7.637724 -2.84375,-5.615234 6.51183,1.808172 11.56376,1.340063 14.07031,-1.304687 2.17088,-2.290571 2.17994,-2.392239 0.35156,-4.046876 -3.93252,-3.558929 -5.19193,-21.514138 -1.91796,-27.351562 1.63003,-2.906319 1.68527,-3.64885 0.47851,-6.5 -0.74931,-1.770371 -2.3241,-4.075303 -3.5,-5.123047 C 202.96276,29.54796 202,28.08787 202,27.351562 202,25.791512 194.3592,20 192.30078,20 c -0.76979,0 -2.7393,-0.691255 -4.375,-1.537109 -2.18965,-1.132311 -8.48424,-2.020677 -12.60156,-2.001953 z M 195.8457,47 c 3.70807,0 5.18191,3.261587 5.81446,12.861328 L 202.26172,69 199.38086,68.917969 C 196.1325,68.825999 190,66.40416 190,65.212891 c 0,-0.429985 0.9,-3.34296 2,-6.472657 1.1,-3.129698 2,-7.051103 2,-8.714843 C 194,47.751778 194.45897,47 195.8457,47 Z m -5.71679,3 c 1.34761,0 1.02876,5.685863 -0.52735,9.410156 -1.54709,3.70271 -2.48798,4.539581 -4.35156,3.871094 -1.86823,-0.670152 -1.50923,-1.980561 0.70117,-2.558594 1.48675,-0.388793 2.11284,-1.726857 2.62891,-5.617187 C 188.95264,52.296996 189.64977,50 190.12891,50 Z m -25.29102,3.148438 c -0.49167,-0.05569 -1.12056,0.118219 -1.99805,0.509765 l -2.31054,1.03125 2.98437,1.615235 c 3.9117,2.116402 9.36102,2.18596 10.15039,0.128906 1.02632,-2.674562 -1.26362,-3.986463 -4.20898,-2.410156 -2.20344,1.179225 -2.71292,1.179326 -3.44531,-0.0059 -0.32625,-0.527889 -0.6802,-0.813454 -1.17188,-0.86914 z m 6.7832,6.404296 c -0.79637,-8.79e-4 -1.74877,0.06979 -2.87109,0.207032 -2.93553,0.358972 -3.75,0.895527 -3.75,2.466796 0,1.59356 0.4637,1.883007 2.25,1.404297 1.2375,-0.331637 3.4875,-0.609687 5,-0.617187 1.67737,-0.0083 2.75,-0.556579 2.75,-1.40625 0,-1.406593 -0.98979,-2.052049 -3.37891,-2.054688 z M 170,65 c -0.55,0 -1,0.45 -1,1 0,0.55 0.45,1 1,1 0.55,0 1,-0.45 1,-1 0,-0.55 -0.45,-1 -1,-1 z m -10.58203,8.318359 c 0.28542,-0.114098 0.72373,-0.03467 1.33203,0.230469 0.9625,0.419524 6.7,0.914196 12.75,1.09961 11.66482,0.357482 13.5,0.673223 13.5,2.320312 0,1.358671 -20.39654,1.181708 -24.75,-0.214844 -1.7875,-0.573415 -3.25,-1.701579 -3.25,-2.505859 0,-0.508304 0.13254,-0.81559 0.41797,-0.929688 z m -3.23633,3.597657 c 0.84852,0.07788 1.66729,0.378497 2.68945,0.80664 2.33837,0.979445 8.07523,1.669532 16.12891,1.939453 14.00644,0.469429 19,1.053622 19,2.222657 0,0.436795 1.09037,1.289815 2.42188,1.896484 2.61375,1.190909 6.43396,4.341059 13.16015,10.845703 C 213.92976,98.831485 217,106.07629 217,112.13281 c 0,4.78235 5.62751,23.5095 7.88086,26.22461 1.1828,1.42519 0.78551,1.85751 -3.35156,3.63086 C 218.94707,143.09515 216.44336,144 215.96484,144 214.36209,144 210,146.31083 210,147.16016 c 0,1.46242 2.58679,0.92469 9.95117,-2.07227 3.93686,-1.60212 6.9862,-2.38962 6.77735,-1.75 -0.20885,0.63962 -3.04617,2.14871 -6.30469,3.35352 -3.25853,1.2048 -7.39538,2.2173 -9.19336,2.25 -3.0812,0.056 -3.22829,-0.0994 -2.55469,-2.69141 1.30865,-5.03562 0.91468,-30.4407 -0.55078,-35.48438 -1.21771,-4.19097 -1.18904,-5.0186 0.25,-7.21484 2.23182,-3.40619 2.03682,-5.814798 -0.67383,-8.361327 -2.80312,-2.633392 -9.21528,-4.229827 -8.51172,-2.119141 0.25194,0.755815 1.32555,1.612173 2.38477,1.902344 4.18754,1.147162 5.72655,2.696312 5.11133,5.146484 -0.32885,1.30964 -1.22653,3.23958 -1.99414,4.28906 -1.37326,1.87753 -1.43844,1.87753 -4.00196,0 -1.43293,-1.04948 -2.51064,-2.40835 -2.39648,-3.01953 0.40221,-2.153412 -12.2384,-18.158092 -14.86133,-18.816404 -3.6152,-0.907358 -4.42088,-0.02254 -3.35742,3.685546 C 181.29451,90.512704 181.25062,91 179.64453,91 c -0.95525,0 -1.55721,2.144188 -2.03125,7.25 -0.89454,9.63489 -2.27318,14.4383 -5.27734,18.37695 -3.58853,4.70481 -11.21214,9.25647 -16.7793,10.01953 l -4.78125,0.65625 0.69922,-3.18359 0.69922,-3.18359 -2.73242,2.53125 c -1.50294,1.39287 -3.23071,2.58303 -3.83789,2.64453 -0.60719,0.0615 -2.5925,0.28274 -4.41211,0.49219 l -3.3086,0.38086 2.59961,-4.74219 c 2.97484,-5.42637 9.75243,-10.74239 13.31836,-10.44727 2.87535,0.23797 9.66705,-4.8331 11.58789,-8.65234 1.8303,-3.639214 2.69695,-9.980643 1.63672,-11.982424 C 166.54203,90.247529 165.83622,88.6 165.45703,87.5 c -1.12279,-3.257182 -1.60489,-0.113944 -0.64062,4.177734 1.41164,6.282759 -1.32242,12.236376 -6.9043,15.031246 -4.4913,2.24881 -8.59414,2.84845 -10.43164,1.5254 -3.04585,-2.19312 -5.34532,-13.678695 -3.47656,-17.369146 0.65849,-1.300403 2.61563,-3.607561 4.34765,-5.125 2.19272,-1.921059 2.54103,-2.551046 1.14844,-2.078125 -3.93009,1.334652 -6.99464,4.563929 -8.22266,8.667969 -1.79889,6.011877 -1.60903,7.653817 1.60157,13.931642 l 2.87695,5.6289 -6.4082,6.73047 c -6.02979,6.33393 -8.47221,9.66571 -9.91211,13.52149 -0.63719,1.70625 -4.53048,2.85742 -9.66602,2.85742 -1.63936,0 -5.6836,0.70082 -8.98633,1.55664 -3.30273,0.85583 -6.25875,1.29984 -6.57031,0.98828 -0.31156,-0.31156 0.56735,-1.79793 1.95508,-3.30469 5.45362,-5.92144 10.7569,-14.65708 15.35156,-25.28711 5.3281,-12.326845 9.15713,-16.984766 19.86914,-24.173823 9.42761,-6.327063 12.24741,-8.096924 14.79297,-7.863281 z M 182.94336,85 c 1.84074,0 3.37089,2.170654 3.52344,5 0.0445,0.825 0.77493,1.386385 1.62304,1.248047 1.77302,-0.289203 8.03783,12.294383 9.9668,20.019533 0.65467,2.62185 1.5537,4.991 1.99805,5.26562 1.81252,1.1202 1.75721,-1.52266 -0.13477,-6.50195 -1.10325,-2.90352 -1.874,-5.40595 -1.71289,-5.56055 0.16112,-0.1546 2.0212,1.71149 4.13281,4.14649 2.97374,3.42915 3.99772,5.60529 4.54493,9.65429 0.8443,6.24726 -0.58739,27.82909 -1.93555,29.17774 C 204.42691,147.97172 204,149.12859 204,150.01953 204,152.0148 198.79111,158 197.05469,158 c -0.69655,0 -2.6242,1.14341 -4.28516,2.54102 -1.66096,1.3976 -3.22188,2.34062 -3.4668,2.0957 -0.24492,-0.24492 0.46642,-3.52583 1.58008,-7.29102 3.12058,-10.55031 4.22585,-19.59048 3.5586,-29.13086 -0.57245,-8.18479 -4.41771,-25.8744 -6.72461,-30.937496 -1.21411,-2.664686 -3.09539,-3.091179 -2.32618,-0.527344 4.34738,14.48983 4.81649,17.93324 4.74219,34.75 -0.0736,16.63407 -0.14821,17.21525 -3.48828,27 l -3.41406,10 -7.36524,0.21484 c -10.54611,0.30717 -18.7384,-3.03323 -24.86523,-10.13867 -2.475,-2.87032 -5.67718,-5.76054 -7.11523,-6.42187 -3.01732,-1.38761 -11.81673,-7.06022 -13.58204,-8.75586 -1.37304,-1.31886 -8.242,-0.017 -24.92578,4.72461 -14.665961,4.16811 -16.908601,3.80466 -7.37695,-1.19727 2.475,-1.29881 5.175,-2.87557 6,-3.5039 1.7139,-1.30548 14.85275,-3.46315 19.81836,-3.25391 2.82313,0.11897 3.99284,-0.62937 7.82812,-5.01367 2.47979,-2.83478 4.81182,-5.15239 5.18164,-5.15039 0.36986,0.002 0.6899,1.71179 0.7129,3.80078 0.0432,3.9264 2.28478,9.61814 5.70898,14.50195 1.08266,1.54416 2.17042,2.60693 2.41797,2.35938 0.61673,-0.61673 -2.58644,-11.69595 -4.0957,-14.16602 -2.96972,-4.86027 -2.75831,-5.23561 2.96875,-5.28711 5.78047,-0.0519 7.33334,1.45689 5.95898,5.78711 -0.34913,1.1 -0.19844,2 0.33398,2 0.53243,0 1.35482,-1.63733 1.82813,-3.63867 0.7974,-3.37175 1.25834,-3.7414 6.2832,-5.02735 7.91308,-2.02511 12.97075,-5.22205 16.57617,-10.48046 2.6814,-3.91075 3.34715,-6.09697 4.20704,-13.79883 0.7424,-6.64954 1.49313,-9.494879 2.74218,-10.408206 1.58343,-1.15783 1.59754,-1.550368 0.17578,-4.953125 C 181.19219,85.212752 181.2079,85 182.94336,85 Z m -27.52344,6.425781 c -0.20459,0.0064 -0.41342,0.06892 -0.62109,0.197266 -0.61536,0.380316 -0.57369,1.002489 0.11328,1.689453 1.30882,1.30882 1.44992,4.6875 0.19531,4.6875 -0.49116,0 -1.15216,-0.675 -1.46875,-1.5 C 152.95872,94.72807 151,94.484667 151,96.171875 c 0,0.644193 0.76078,2.010939 1.68945,3.037109 2.48422,2.745026 4.75587,1.843526 5.12891,-2.033203 0.29207,-3.035201 -0.96632,-5.795056 -2.39844,-5.75 z m 46.53906,6.826172 c -0.33871,-0.0051 -0.67626,0.07343 -0.9746,0.257813 -0.55897,0.345464 -0.75785,1.046591 -0.44141,1.558594 0.75067,1.21459 3.45703,1.20795 3.45703,-0.01 0,-1.012759 -1.02486,-1.791208 -2.04102,-1.806637 z M 153.77344,113.16602 C 153.63918,113.0926 153.40005,113.38098 153,114 c -0.53316,0.825 -0.94426,2.625 -0.91406,4 0.0503,2.28958 0.12697,2.33166 0.91406,0.5 0.47269,-1.1 0.88386,-2.9 0.91406,-4 0.0227,-0.82537 -0.006,-1.26057 -0.14062,-1.33398 z m -6.87891,6.23828 C 145.60066,119.68998 144,121.01103 144,122.12305 c 0,1.24117 1.20518,1.03766 3.31055,-0.5586 1.20148,-0.91094 1.43774,-1.60187 0.70507,-2.05468 -0.2922,-0.18059 -0.6898,-0.2007 -1.12109,-0.10547 z m 2.87305,20.16211 c -0.12713,-0.0683 -0.30964,-0.0528 -0.54492,0.0508 -0.31372,0.13803 -0.72308,0.43069 -1.22266,0.88281 -1.1,0.99549 -2,2.18954 -2,2.6543 0,1.4981 2.76545,0.89796 3.39258,-0.73633 0.64402,-1.67829 0.75639,-2.64654 0.375,-2.85156 z m -22.16016,4.59961 c 1.75914,0.0878 2.77628,0.5912 3.50781,1.47265 0.74778,0.90101 3.90927,2.82253 7.02539,4.27149 l 5.66602,2.63476 -2.6543,3.89844 c -3.08193,4.52752 -3.78027,4.82391 -7.15234,3.04102 -2.34182,-1.23823 -16.86768,-4.85317 -30.5,-7.58985 l -6,-1.20312 13,-3.32032 c 9.18037,-2.34361 14.17552,-3.35143 17.10742,-3.20507 z m 99.09375,3.98437 c 1.64033,-0.12789 2.27355,0.34213 2.66016,1.34961 0.31658,0.825 1.40253,1.5 2.41211,1.5 1.00959,0 3.96462,1.35 6.5664,3 2.60178,1.65 5.10872,3 5.57227,3 0.46356,0 1.41908,0.69475 2.12305,1.54297 0.70397,0.84823 4.32018,3.58175 8.03515,6.07422 10.1873,6.83493 10.49104,7.32271 6.96289,11.18554 -1.60609,1.75845 -3.50806,3.1633 -4.22656,3.1211 -0.7185,-0.0422 -3.51906,-1.42312 -6.22266,-3.06836 -2.70359,-1.64524 -6.97859,-3.68456 -9.5,-4.53125 -10.04584,-3.37343 -21.00866,-9.28764 -25.74218,-13.88672 l -4.8418,-4.70312 7.5,-2.34766 c 4.41371,-1.38174 7.06084,-2.10844 8.70117,-2.23633 z m -81.92187,9.27149 c 0.50675,0.0615 1.22039,0.57603 2.51172,1.59179 5.02376,3.95169 1.47879,9.03573 -10.51954,15.08789 -7.25259,3.65832 -13.95246,5.03307 -15.14257,3.10742 -0.26866,-0.43469 1.64198,-1.5458 4.24609,-2.4707 2.60411,-0.9249 5.903,-2.93302 7.33008,-4.46094 7.86725,-8.42312 9.38446,-10.14889 10.30078,-11.72265 0.46714,-0.80232 0.76668,-1.19435 1.27344,-1.13281 z m 140.59375,1.60937 c 3.48243,0.0521 5.49519,2.20759 4.91211,5.25781 -0.53604,2.8041 -1.61368,3.11658 -6.2793,1.81836 -4.48584,-1.24818 -3.34624,-7.14657 1.36719,-7.07617 z m -132.18164,3.31055 c 0.29794,-0.0878 0.56242,0.25594 0.96679,0.97851 0.50465,0.90174 4.7462,2.83261 9.42383,4.29102 6.93607,2.16289 9.78722,2.56025 15.46094,2.15429 5.14071,-0.36779 6.95703,-0.17518 6.95703,0.74219 0,0.68281 -1.40625,1.52344 -3.125,1.86719 -5.32097,1.06419 -10.83829,0.43287 -22.375,-2.5625 -4.4,-1.1424 -8.37835,-2.4199 -8.8418,-2.83789 -0.46345,-0.41798 -0.29823,-1.78035 0.36914,-3.02734 0.53477,-0.99922 0.86612,-1.5177 1.16407,-1.60547 z m 45.55859,0.29101 c 0.92033,-0.0729 1.82715,0.61112 2.01562,1.51953 0.24137,1.16325 -1.28011,2.41999 -5.14843,4.25 -6.29956,2.98017 -7.61719,3.17748 -7.61719,1.14063 0,-1.56299 7.97665,-6.69056 10.75,-6.91016 z m -48.64258,6.34766 c 1.16018,-1.6e-4 3.54906,0.59446 6.4043,1.63086 7.0618,2.5633 22.99706,4.80107 27.01367,3.79297 1.86445,-0.46795 2.47461,-0.22555 2.47461,0.98632 0,1.35124 -1.23917,1.58707 -7.75,1.47266 -9.68576,-0.1702 -10.92347,-0.38106 -20.75,-3.55273 -9.06557,-2.92606 -8.90622,-2.84516 -8.11523,-4.125 0.0852,-0.13788 0.33593,-0.20503 0.72265,-0.20508 z m 51.12305,0.19531 c 0.86949,-0.0165 0.76953,0.58497 0.76953,1.78516 0,1.47076 -1.18795,2.32131 -4.75,3.40234 -2.6125,0.79286 -5.47892,1.73614 -6.36914,2.0957 -1.0999,0.44425 -1.78144,0.0279 -2.12891,-1.30078 -0.43228,-1.65304 0.47722,-2.28019 5.88867,-4.05664 3.88096,-1.27402 5.72036,-1.90924 6.58985,-1.92578 z m -54.5957,4.25 c 1.27433,-0.004 2.46025,0.37276 4.48828,1.12891 9.92103,3.69904 14.83425,4.65551 24.87109,4.83984 9.35055,0.17172 10.53438,0.39561 10.85352,2.05274 0.32775,1.7019 -0.15738,1.8058 -5.69922,1.22656 -3.81607,-0.39886 -6.2937,-0.24719 -6.70117,0.41211 -0.99159,1.60442 -0.11887,1.98915 5.94726,2.61523 3.77598,0.38972 5.60547,1.02327 5.60547,1.93945 0,2.99999 -24.03608,1.27201 -35.65039,-2.5625 -2.8323,-0.9351 -6.7664,-1.51192 -8.74219,-1.28124 C 137.7069,184.2522 137.62188,186 141.5,186 c 1.31008,0 2.67017,0.46478 3.02148,1.0332 0.3513,0.56843 1.29861,9.00593 2.10547,18.75 0.80687,9.74408 1.54713,18.56996 1.64453,19.61328 0.21359,2.28746 5.04985,7.32646 7.48243,7.79493 1.77843,0.34249 1.56646,2.25416 -0.25391,2.28906 -0.55,0.0105 -1.17888,0.46953 -1.39648,1.01953 -0.30502,0.77096 6.82599,2.79418 7.55859,2.14453 0.52947,-0.46951 3.03946,-35.93871 3.31836,-46.89453 0.0105,-0.4125 4.70749,-0.75 10.4375,-0.75 5.73002,0 11.13002,-0.27357 12,-0.60742 C 188.60371,189.93757 189,188.36164 189,184.09961 v -5.68555 l 4.75,-1.31836 c 2.6125,-0.72516 5.5375,-1.54617 6.5,-1.82422 1.24302,-0.35909 1.75,0.0622 1.75,1.45313 0,1.52612 -1.33048,2.36188 -6.03125,3.78516 -3.31759,1.00448 -5.66321,2.19616 -5.21094,2.64843 0.45227,0.45227 2.3762,0.37671 4.27539,-0.16797 4.90853,-1.40775 5.9668,-1.24583 5.9668,0.91211 0,1.91157 -4.3159,4.09766 -8.08984,4.09766 -0.98546,0 -2.09866,0.49447 -2.47266,1.09961 -0.47335,0.7659 1.07063,0.99382 5.08008,0.75 4.35282,-0.2647 5.96288,0.0168 6.58789,1.15039 1.33416,2.41973 4.5948,10.28937 5.38672,13 0.40171,1.375 1.28176,3.85 1.95508,5.5 1.53799,3.76889 3.1574,8.4016 5.50585,15.75 1.99998,6.25799 1.35361,7.09442 -2.93554,3.79883 -1.95038,-1.49859 -2.78686,-1.65531 -3.90235,-0.72852 -0.88214,0.73292 -6.48762,1.31244 -14.80468,1.5293 l -13.38672,0.34766 0.58984,-10.84766 c 0.81412,-14.99008 1.28912,-17.63935 3.04688,-16.96484 1.68774,0.64765 4.43945,-0.23612 4.43945,-1.42579 0,-0.45462 -1.18053,-0.96854 -2.62305,-1.14257 l -2.62304,-0.31641 1.98242,-2.43359 1.98047,-2.4336 2.75976,2.16992 c 2.29387,1.80436 2.48531,2.27502 1.14063,2.79102 -2.80497,1.07637 -1.75802,2.40625 1.89453,2.40625 3.28008,0 3.66896,0.35034 5.85742,5.29883 1.28898,2.91461 2.92619,7.07711 3.63867,9.25 1.36745,4.1704 3.99991,8.77743 4.64649,8.13086 1.05344,-1.05345 -6.66735,-19.92756 -10.01953,-24.49414 -5.6867,-7.74684 -11.57111,-8.28751 -15.68946,-1.44141 -1.97649,3.28561 -2.31975,5.50124 -2.73633,17.67188 -0.39406,11.5124 -0.22055,14.10307 1.00196,15 2.14693,1.57516 27.98169,0.51261 28.54297,-1.17383 0.30237,-0.90849 1.22584,-0.68138 3.33203,0.81836 3.49578,2.48921 3.69459,3.53161 0.66406,3.47851 -1.2375,-0.0217 -2.25,0.41094 -2.25,0.96094 0,0.55 1.3143,1.02321 2.92188,1.05273 2.01795,0.0371 3.22862,0.73677 3.9082,2.25977 1.25715,2.81739 0.13486,3.95928 -2.36133,2.40039 -2.2581,-1.41021 -3.30506,-1.56459 -2.57227,-0.37891 0.80084,1.29579 -24.12615,3.16997 -42.14648,3.16797 C 159.08237,244.00105 153,244.3743 153,245 c 0,0.55 1.9125,1.02507 4.25,1.05664 5.27413,0.0712 12.98275,0.84409 13.49023,1.35156 0.20845,0.20845 0.46586,4.70024 0.57032,9.98242 0.17026,8.60891 0.38046,9.60543 2.03906,9.60743 1.67682,0.002 1.83,-0.81835 1.625,-8.74805 -0.29702,-11.4891 -0.3498,-11.25 2.44531,-11.25 1.91421,0 2.57039,0.67477 3.13086,3.22656 0.44638,2.03235 2.88894,5.39432 6.59961,9.08203 9.4956,9.43683 10.78376,14.67783 5.82227,23.69141 -1.66511,3.025 -4.61684,8.875 -6.5586,13 -3.42242,7.27045 -3.49842,7.68626 -2.47265,13.58203 1.36357,7.83729 1.33769,11.71228 -0.10157,14.87109 -0.97638,2.14293 -1.8292,2.54688 -5.375,2.54688 -3.92022,0 -4.25848,-0.21819 -4.83984,-3.125 -1.01868,-5.09342 -0.69313,-11.09919 0.8418,-15.50391 1.12174,-3.21905 1.1994,-4.98067 0.35156,-8 -1.36137,-4.84815 -1.60215,-19.17532 -0.43945,-26.12109 0.82302,-4.91657 0.7485,-5.25 -1.17774,-5.25 -1.76426,0 -2.1467,0.81803 -2.6875,5.75 -0.34678,3.1625 -1.19063,7.325 -1.875,9.25 -1.06816,3.00458 -0.97195,4.26017 0.67578,8.86914 2.3335,6.52716 2.16368,6.68245 -8.20507,7.58203 -4.18542,0.36311 -8.97912,0.89369 -10.65235,1.17774 l -3.04101,0.51562 0.16992,-12.41015 c 0.0935,-6.82541 0.66712,-13.33999 1.27539,-14.47657 0.75812,-1.41655 0.81544,-3.74753 0.18359,-7.41211 -0.50697,-2.94031 -1.20599,-8.2707 -1.55469,-11.8457 -0.34869,-3.575 -0.85641,-7.2875 -1.1289,-8.25 -0.36174,-1.27778 0.0839,-1.75 1.65429,-1.75 1.27557,0 1.98282,-0.50864 1.73633,-1.25 -0.29851,-0.89784 -4.04237,-1.31323 -13.28906,-1.47266 -7.0804,-0.12208 -13.45612,-0.44558 -14.16797,-0.71875 -2.2434,-0.86087 -1.40514,-2.55859 1.26367,-2.55859 1.47875,0 2.2946,-0.42835 1.93164,-1.01562 -0.34546,-0.55897 -1.04659,-0.75785 -1.55859,-0.44141 C 123.41965,238.8594 123,238.64105 123,238.05859 123,237.47613 123.70113,237 124.55859,237 c 0.85748,0 1.28133,-0.45 0.94141,-1 -0.33992,-0.55 -1.94105,-1 -3.55859,-1 C 120.32387,235 119,234.55 119,234 c 0,-0.62229 6.32667,-1.04363 16.75,-1.11523 11.65494,-0.08 15.53327,-0.36571 12.75,-0.94141 -2.2,-0.45505 -9.7375,-0.85307 -16.75,-0.88477 -7.0125,-0.0317 -12.75,-0.4305 -12.75,-0.88476 0,-7.65832 7.12345,-40.96001 10.21094,-47.73633 1.13117,-2.48264 1.50269,-2.6049 6.24609,-2.03125 4.63044,0.56 4.88379,0.48659 3.10156,-0.89844 C 137.49097,178.67813 136.16425,178 135.60938,178 c -2.12918,0 1.05033,-1.80668 6.01367,-3.41602 2.37464,-0.76996 3.73738,-1.1542 5.01172,-1.1582 z m 120.06835,1.4707 6.89844,1.26563 c 8.0112,1.47043 11.96016,4.42183 10.84766,8.10547 -1.15459,3.82299 -2.22386,4.10603 -4.68555,1.24414 -1.78947,-2.08038 -3.40042,-2.81267 -6.58203,-2.99219 -2.31701,-0.13073 -5.02809,-0.97637 -6.02539,-1.87891 C 265.31769,178.97677 263,178.44026 263,179.67773 c 0,0.37245 1.40958,1.85436 3.13281,3.29297 2.44511,2.04124 2.98029,3.09982 2.4336,4.82227 C 268.18112,189.00692 267.47875,190 267.00586,190 266.11618,190 260,182.98876 260,181.96875 c 0,-0.31679 1.50826,-2.03763 3.35156,-3.82422 z M 141.94141,181 c -0.58246,0 -0.78133,0.45 -0.44141,1 0.33992,0.55 0.81605,1 1.05859,1 0.24254,0 0.44141,-0.45 0.44141,-1 0,-0.55 -0.47613,-1 -1.05859,-1 z m 145.16406,1.48047 c 0.97349,-0.064 1.93537,1.46962 1.69922,3.89648 -0.23577,2.42288 -0.84013,3.19866 -2.69531,3.46094 -1.89241,0.26754 -2.25667,-0.0132 -1.7461,-1.34375 0.35476,-0.9245 0.90933,-2.73224 1.23242,-4.01953 0.33646,-1.34052 0.92568,-1.95577 1.50977,-1.99414 z m -153.87891,0.95508 c -0.28257,0.0799 -0.54406,0.2693 -0.71679,0.54883 -0.34546,0.55896 0.0742,1.01562 0.93164,1.01562 1.75653,0 2.01399,-0.5998 0.62695,-1.45703 -0.256,-0.15822 -0.55922,-0.18735 -0.8418,-0.10742 z m 140.49219,1.63476 c 0.66532,0.1344 1.41724,0.64739 2.31836,1.46289 2.0214,1.82934 2.6402,5.04305 1.08398,5.63282 -0.48376,0.18333 -1.72126,1.90898 -2.75,3.83398 -1.44883,2.71109 -2.39793,3.42443 -4.20898,3.16797 -1.98346,-0.28088 -2.24118,-0.73586 -1.69531,-3 2.04785,-8.494 3.25599,-11.50085 5.25195,-11.09766 z m -126.60742,1.31446 c 0.21685,-0.2625 0.81206,0.0487 1.99023,0.6875 1.31882,0.71505 4.64844,1.81211 7.39844,2.43945 l 5,1.14062 -0.5,9.42383 c -0.275,5.18298 -0.47564,15.16133 -0.44531,22.17383 0.0303,7.0125 -0.23125,12.75 -0.58203,12.75 -0.35077,0 -2.0836,-1.8 -3.85157,-4 -1.76797,-2.2 -3.86888,-4 -4.66797,-4 -1.1338,0 -1.46002,-1.59219 -1.48632,-7.25 -0.0373,-8.03385 -1.49486,-25.39088 -2.57032,-30.61523 -0.34028,-1.65303 -0.50201,-2.48751 -0.28515,-2.75 z M 132.75,188.01562 c -1.81944,0.0124 -1.96296,0.20051 -0.75,0.98438 1.93876,1.25292 3,1.25292 3,0 0,-0.55 -1.0125,-0.99238 -2.25,-0.98438 z m 8.16602,1.10743 c -0.3474,-0.0143 -0.74259,0.0489 -1.10352,0.19336 -0.79773,0.31922 -0.56143,0.55745 0.60352,0.60547 1.05416,0.0434 1.64479,-0.19311 1.3125,-0.5254 -0.16615,-0.16612 -0.46511,-0.25913 -0.8125,-0.27343 z m 139.60156,2.87109 c 0.85518,0.1296 1.96269,0.81711 3.48242,2.00586 l 2.5,1.95508 -3,0.0547 c -2.85526,0.0514 -2.90606,0.12412 -1.05859,1.52148 1.81911,1.3759 1.70743,1.46875 -1.76953,1.46875 -3.54017,0 -3.67993,-0.12603 -3.05274,-2.75 0.75028,-3.13896 1.47313,-4.47187 2.89844,-4.25586 z M 132,193 c -2.2,0 -4,0.45 -4,1 0,0.55 1.8,1 4,1 2.2,0 4,-0.45 4,-1 0,-0.55 -1.8,-1 -4,-1 z m 9.55859,0 c -1.34254,0 -2.71867,0.45 -3.05859,1 -0.36058,0.58342 0.65671,1 2.44141,1 1.68246,0 3.05859,-0.45 3.05859,-1 0,-0.55 -1.09887,-1 -2.44141,-1 z M 132.5,198 c -2.15738,0 -3.36852,0.40372 -3,1 0.33992,0.55 1.68992,1 3,1 1.31008,0 2.66008,-0.45 3,-1 0.36852,-0.59628 -0.84262,-1 -3,-1 z m 8.44141,0 c -1.68246,0 -2.84362,0.34899 -2.58008,0.77539 C 139.08155,199.94073 144,200.12635 144,198.98828 144,198.44444 142.62387,198 140.94141,198 Z m -8.25,4.04883 c -1.28165,0 -2.70997,0.31692 -3.69141,0.95117 -1.09674,0.70877 -0.342,0.97316 2.80859,0.98438 2.62138,0.009 4.06739,-0.37603 3.69141,-0.98438 -0.39199,-0.63425 -1.52695,-0.95117 -2.80859,-0.95117 z M 193.05859,203 C 191.37613,203 190,203.45 190,204 c 0,0.55 1.09887,1 2.44141,1 1.34254,0 2.71867,-0.45 3.05859,-1 0.36058,-0.58342 -0.65671,-1 -2.44141,-1 z M 141,203.12109 c -0.63438,0 -1.26875,0.0637 -1.75,0.18946 -0.9625,0.25153 -0.175,0.45703 1.75,0.45703 1.925,0 2.7125,-0.2055 1.75,-0.45703 -0.48125,-0.12576 -1.11562,-0.18946 -1.75,-0.18946 z M 185.5,204 c -1.375,0 -2.5,0.45 -2.5,1 0,0.55 1.125,1 2.5,1 1.375,0 2.5,-0.45 2.5,-1 0,-0.55 -1.125,-1 -2.5,-1 z m -55.05859,3 C 127.99887,207 126,207.45 126,208 c 0,0.55 2.27613,1 5.05859,1 3.11803,0 4.82232,-0.38367 4.44141,-1 -0.33992,-0.55 -2.61605,-1 -5.05859,-1 z m 11.11718,0 c -3.94111,0 -5.72831,1.68821 -2.32421,2.19531 C 144.17097,209.9307 145,209.82075 145,208.4375 145,207.46561 143.88447,207 141.55859,207 Z m 52.0586,0 c -0.825,0 -1.77727,0.45 -2.11719,1 -0.33992,0.55 0.0578,1 0.88281,1 0.825,0 1.77727,-0.45 2.11719,-1 0.33992,-0.55 -0.0578,-1 -0.88281,-1 z m -7.0586,5 c -0.79254,0 -1.71867,0.45 -2.05859,1 -0.33992,0.55 0.30895,1 1.44141,1 1.13246,0 2.05859,-0.45 2.05859,-1 0,-0.55 -0.64887,-1 -1.44141,-1 z m 8.32227,0.12695 c -0.54375,-0.007 -1.12484,0.0529 -1.61133,0.17969 -0.97297,0.25354 -0.41953,0.47765 1.23047,0.49805 1.65,0.0204 2.44656,-0.18701 1.76953,-0.46094 -0.33851,-0.13698 -0.84492,-0.21008 -1.38867,-0.2168 z M 130,213 c -3.92573,0 -5,0.3457 -5,1.60742 0,1.0545 0.54404,1.39831 1.58203,1 0.86998,-0.33385 3.11998,-0.60742 5,-0.60742 1.88001,0 3.41797,-0.45 3.41797,-1 0,-0.55 -2.25,-1 -5,-1 z m 11.55859,0 c -1.89254,0 -3.71867,0.45 -4.05859,1 -0.37325,0.60393 0.99005,1 3.44141,1 2.23246,0 4.05859,-0.45 4.05859,-1 0,-0.55 -1.54887,-1 -3.44141,-1 z m 55.11914,2.51953 c -0.66871,0.0109 -1.4141,0.0895 -2.21289,0.24219 -2.56348,0.49004 -2.67551,0.64694 -0.9375,1.32617 2.75484,1.07656 6.47266,1.08849 6.47266,0.0195 0,-1.04038 -1.31611,-1.62063 -3.32227,-1.58789 z m -7.76171,0.60352 c -0.3474,-0.0143 -0.74259,0.0489 -1.10352,0.19336 -0.79773,0.31922 -0.56143,0.55745 0.60352,0.60547 1.05416,0.0434 1.64479,-0.19311 1.3125,-0.5254 -0.16615,-0.16612 -0.46511,-0.25913 -0.8125,-0.27343 z M 130,218 c -2.75,0 -5,0.45 -5,1 0,0.55 2.25,1 5,1 2.75,0 5,-0.45 5,-1 0,-0.55 -2.25,-1 -5,-1 z m 11.5,0 c -1.86008,0 -3.66008,0.45 -4,1 -0.37794,0.61153 1.17595,1 4,1 2.82405,0 4.37794,-0.38847 4,-1 -0.33992,-0.55 -2.13992,-1 -4,-1 z m 45.94141,3 c -2.11803,0 -3.30921,0.40488 -2.94141,1 0.33992,0.55 1.94105,1 3.55859,1 1.61754,0 2.94141,-0.45 2.94141,-1 0,-0.55 -1.60113,-1 -3.55859,-1 z M 197,221 c -2.2,0 -4,0.45 -4,1 0,0.55 1.8,1 4,1 2.2,0 4,-0.45 4,-1 0,-0.55 -1.8,-1 -4,-1 z m -52.27539,2.92578 C 144.32586,223.96708 142.425,224 140.5,224 c -1.925,0 -3.5,0.45 -3.5,1 0,0.55 2.06315,1 4.58398,1 2.82429,0 4.44542,-0.4118 4.22461,-1.07422 -0.19708,-0.59125 -0.68523,-1.0413 -1.08398,-1 z M 129.5,224 c -4.22222,0 -5.5,0.34848 -5.5,1.5 0,1.6209 2.66496,1.91701 7.875,0.875 4.99275,-0.99855 3.61631,-2.375 -2.375,-2.375 z m 58.25,2.01562 c -2.46622,0.0116 -2.88826,0.24878 -1.75,0.98438 1.96549,1.2702 5,1.2702 5,0 0,-0.55 -1.4625,-0.99238 -3.25,-0.98438 z m 10.05859,0.11524 L 193.5,226.26367 197,227 c 1.925,0.40519 3.58637,0.79674 3.69141,0.86914 0.10504,0.0724 0.46867,-0.31914 0.80859,-0.86914 0.3797,-0.61436 -1.04411,-0.95004 -3.69141,-0.86914 z m -23.02343,6.35156 c -0.35828,-0.0386 -0.68884,-0.0131 -0.98243,0.0801 -2.6961,0.85571 -9.80273,5.65166 -9.80273,6.61523 0,1.13067 2.74759,1.039 3.46094,-0.11523 C 169.11589,236.38467 178,233.80327 178,236 c 0,0.55 0.7875,0.99872 1.75,0.99805 1.35639,-9.5e-4 1.09397,-0.56477 -1.16992,-2.51172 -1.38706,-1.19287 -2.7201,-1.88817 -3.79492,-2.00391 z M 199.94141,234 c -2.83705,0 -3.69999,0.90939 -2.24414,2.36523 0.38377,0.38377 1.32082,0.45812 2.08203,0.16602 0.76122,-0.29211 2.04886,-0.53125 2.86132,-0.53125 0.8125,0 1.1993,-0.45 0.85938,-1 -0.33992,-0.55 -1.94105,-1 -3.55859,-1 z M 190,234.09961 c -0.36667,0 -0.73255,0.23451 -1.19922,0.70117 C 187.86745,235.73411 188.13333,236 190,236 c 1.86667,0 2.13255,-0.26589 1.19922,-1.19922 -0.46667,-0.46666 -0.83255,-0.70117 -1.19922,-0.70117 z m -58.82031,0.99805 c -1.26216,0.008 -2.17969,0.28782 -2.17969,0.83593 0,0.51347 1.2375,1.08863 2.75,1.2793 3.88536,0.48981 6.1873,-0.33525 3.67773,-1.31836 -1.37827,-0.53991 -2.98589,-0.80437 -4.24804,-0.79687 z M 145.5,236 c -1.375,0 -2.5,0.45 -2.5,1 0,0.55 1.125,1 2.5,1 1.375,0 2.5,-0.45 2.5,-1 0,-0.55 -1.125,-1 -2.5,-1 z m -11.5,3 c -2.2,0 -4,0.45 -4,1 0,0.55 1.8,1 4,1 2.2,0 4,-0.45 4,-1 0,-0.55 -1.8,-1 -4,-1 z m 47.5,1 c -2.15738,0 -3.36852,0.40372 -3,1 0.33992,0.55 1.68992,1 3,1 1.31008,0 2.66008,-0.45 3,-1 0.36852,-0.59628 -0.84262,-1 -3,-1 z m -26.79297,0.10352 C 153.67939,240.10352 153,240.40294 153,241 c 0,0.55 1.6875,0.96835 3.75,0.92969 3.0082,-0.0564 3.35437,-0.24027 1.75,-0.92969 -1.38944,-0.59707 -2.76533,-0.89648 -3.79297,-0.89648 z m 59.4375,5.13671 c 1.04762,0.10262 1.81854,0.32245 2.13867,0.64258 0.59883,0.59883 1.87974,3.90817 2.84766,7.35352 0.96792,3.44534 2.90839,10.0191 4.31055,14.60937 2.78102,9.10426 2.57167,12.73409 -0.82032,14.28516 C 219.98402,283.33673 214,293.956 214,297.42969 c 0,2.55491 -0.0478,2.57011 -7.75,2.39648 C 194.80674,299.56821 190,299.00345 190,297.91797 190,296.3257 196.96297,283 197.79492,283 c 0.42301,0 1.38368,-2.08123 2.13477,-4.625 1.31344,-4.44834 1.25341,-4.83559 -1.53321,-10.11328 -1.59351,-3.01803 -6.01622,-8.57888 -9.83007,-12.35742 -3.81384,-3.77853 -6.73884,-7.02275 -6.5,-7.21094 0.37625,-0.29645 11.80268,-1.66763 28.28125,-3.39258 1.42513,-0.14918 2.74925,-0.16296 3.79687,-0.0606 z M 154,258.5 c -1.1173,-0.69053 -1.43729,8.73068 -0.33398,9.83398 0.36666,0.36667 1.51712,0.66602 2.55664,0.66602 1.7534,0 1.77815,-0.16083 0.33398,-2.22266 C 155.70046,265.55497 155,263.3311 155,261.83594 c 0,-1.49516 -0.45,-2.99602 -1,-3.33594 z m 203.80078,7.92578 c -1.18625,-0.0663 -2.47411,-0.0666 -3.80078,0.0137 -1.925,0.1165 -5.93155,0.29102 -8.9043,0.38672 -5.33808,0.1719 -5.38327,0.19859 -3.5957,2.17383 0.99549,1.1 1.34524,2 0.77734,2 -0.5679,0 -1.59265,-0.675 -2.27734,-1.5 -0.68469,-0.825 -1.77888,-1.5 -2.43164,-1.5 -2.25273,0 -10.37981,10.58525 -11.58398,15.08789 -0.64896,2.42654 -1.61796,4.94531 -2.15235,5.59766 -0.63946,0.7806 -0.54474,1.97711 0.27735,3.5 0.76141,1.4105 1.27741,6.49115 1.32031,13.01367 0.0469,7.14256 0.48591,11.11687 1.32031,11.95117 0.6875,0.68742 1.25,2.05883 1.25,3.04883 0,0.99 0.44282,1.80078 0.98438,1.80078 0.57161,0 0.79441,-1.99249 0.53124,-4.75 -0.2493,-2.6125 -0.7092,-8.4625 -1.02343,-13 L 327.91992,296 h 13.40039 C 357.83393,296 364,295.25637 364,293.26367 c 0,-1.24266 -2.56785,-1.41283 -16.92383,-1.11523 L 330.15234,292.5 329.7168,289.5293 c -0.45428,-3.09791 1.40375,-7.19944 5.97851,-13.19727 1.81259,-2.37642 3.34421,-3.33203 5.33985,-3.33203 1.53888,0 2.96693,-0.50823 3.17382,-1.12891 0.22851,-0.68552 4.1873,-1.32827 10.08399,-1.63671 C 361.1319,269.87666 364,269.357 364,268.47461 c 0,-1.05078 -2.64047,-1.85003 -6.19922,-2.04883 z M 157.5,274.33594 c -2.02589,0.65123 -1.61463,4.47075 0.65234,6.05859 1.2464,0.87301 2.64085,1.21071 3.09961,0.75195 1.03907,-1.03907 -2.38291,-7.25062 -3.75195,-6.81054 z m 32.625,25.70508 c 0.70834,0.0139 1.708,0.33533 2.87695,0.96093 1.02897,0.55069 5.38817,1.48356 9.68555,2.07422 4.29738,0.59065 8.23922,1.48939 8.76172,1.99805 1.07162,1.04326 -1.08848,1.03403 -9.45703,-0.0469 C 195.28994,304.1618 189,302.17334 189,300.92188 c 0,-0.6026 0.41666,-0.89481 1.125,-0.88086 z m -19.08008,2.1875 c 0.58906,0.0575 0.95508,0.22182 0.95508,0.47851 0,0.51338 -3.98844,1.46424 -8.86328,2.11328 C 152.62712,306.21957 148,306.31659 148,305.13867 c 0,-0.47372 3.9375,-1.14835 8.75,-1.49805 4.8125,-0.34969 10.2125,-0.91293 12,-1.25195 0.89375,-0.16951 1.70586,-0.21762 2.29492,-0.16015 z m 17.52735,1.65625 c 0.12745,-0.0271 0.26967,-0.0125 0.42773,0.0312 0.825,0.22834 6,1.54221 11.5,2.91992 5.5,1.37771 10.17324,2.63892 10.38477,2.80273 0.81449,0.63075 -2.39759,6.83505 -5.82227,11.2461 -4.11665,5.30231 -7.61815,12.82685 -8.66211,18.61523 -1.12073,6.21403 -1.22412,6.65771 -1.64844,7.08203 -0.21887,0.21888 -1.71432,0.64962 -3.32422,0.95899 -3.98501,0.76582 -7.43966,-1.74022 -6.85351,-4.97266 C 185.21077,339.05822 182.6123,337 177.54492,337 c -4.66734,0 -4.46765,0.4126 -3.6543,-7.57617 0.0776,-0.762 1.57519,-0.77612 5.125,-0.0488 5.97928,1.22483 6.09387,3.20186 0.16016,2.77344 C 176.6747,331.96773 175,332.27896 175,332.92383 c 0,0.59206 0.84375,1.07617 1.875,1.07617 1.03125,0 3.28125,0.28125 5,0.625 2.97766,0.59553 3.125,0.47389 3.125,-2.56641 0,-1.75491 0.5625,-4.17366 1.25,-5.375 0.78195,-1.36639 1.25,-6.11519 1.25,-12.68359 0,-7.74479 0.18009,-9.92557 1.07227,-10.11523 z M 19.027344,332.26953 c -0.518094,0.0925 -1.052102,0.33647 -1.552735,0.75195 -1.140052,0.94616 -1.227936,1.57184 -0.365234,2.61133 C 18.875451,337.7608 22,337.33658 22,334.96875 c 0,-1.89295 -1.418376,-2.97665 -2.972656,-2.69922 z m 155.124996,6.19922 c 2.09801,-0.01 6.44295,0.88416 7.58594,1.7832 1.59861,1.25741 0.64572,2.83261 -1.26953,2.09766 -0.80738,-0.30983 -1.46875,-0.0659 -1.46875,0.54297 0,0.60885 0.45,1.10742 1,1.10742 0.55,0 1,0.675 1,1.5 0,0.99469 -0.9949,1.5 -2.95312,1.5 -2.56058,0 -3.09113,-0.49838 -3.99415,-3.75 -0.57278,-2.0625 -1.04387,-4.05958 -1.04687,-4.4375 -0.002,-0.23721 0.44715,-0.34055 1.14648,-0.34375 z m 47.48633,1.6543 c -0.4196,0.0977 -0.45799,0.35996 -0.18555,0.80078 1.4656,2.37137 6.2289,3.51645 17.04688,4.10156 11.68036,0.63176 17.4,0.28648 18.94922,-1.14648 0.55694,-0.51515 -1.09805,-0.90687 -4,-0.94727 -2.7225,-0.0379 -6.07422,-0.21056 -7.44922,-0.38281 -1.375,-0.17224 -6.1,-0.61574 -10.5,-0.98633 -4.4,-0.37058 -9.52752,-0.93546 -11.39453,-1.25586 -1.24689,-0.21398 -2.0472,-0.28127 -2.4668,-0.18359 z m -23.59179,7.83398 c 1.45545,-0.18694 1.92977,0.91034 1.42773,3.29297 -0.37664,1.7875 -1.08803,3.67672 -1.58008,4.19922 -0.49206,0.5225 -0.89429,1.6475 -0.89453,2.5 -3.6e-4,1.25942 -1.41613,1.558 -7.55078,1.5918 -8.19367,0.0452 -10.0677,-0.93755 -9.10352,-4.77735 1.20685,-4.80622 2.76473,-5.77386 7.30469,-4.53515 3.49969,0.95487 4.55287,0.86775 6.71484,-0.54883 1.5814,-1.03617 2.80836,-1.61049 3.68165,-1.72266 z m -169.462896,0.39453 c -1.09266,0.0351 -1.806605,0.19869 -1.984375,0.48633 -1.186088,1.91913 12.415357,3.07711 36.400391,3.09961 20.860899,0.0196 61.86702,1.6794 62.79102,2.54102 0.16039,0.14954 2.63539,0.12498 5.5,-0.0547 2.86462,-0.17963 10.79861,-0.5762 17.63086,-0.88086 12.00855,-0.53547 14.89891,-1.0041 11.9707,-1.94141 -1.77723,-0.56888 -69.204997,-2.00801 -99.39258,-2.12109 -12.65,-0.0474 -25.544635,-0.4273 -28.654297,-0.84375 -1.697593,-0.22735 -3.169059,-0.32029 -4.261719,-0.28516 z M 177.33398,349 c 2.26624,0 2.51015,1.00599 0.98633,4.06055 C 176.421,356.86781 176,356.76573 176,352.5 c 0,-2.25 0.47684,-3.5 1.33398,-3.5 z m -139.843746,7.0332 c -1.890208,0.0117 -2.496414,0.35908 -1.810546,1.04492 0.593395,0.5934 5.745115,1.50254 11.449218,2.01954 5.704103,0.517 13.521094,1.28738 17.371094,1.71093 10.821068,1.19047 94.28529,1.42483 92.51367,0.25977 -0.87964,-0.57848 -13.52641,-0.99182 -31,-1.01172 C 94.525273,360.02079 57.671912,358.60026 47,357.00977 c -4.446131,-0.66261 -7.619557,-0.98825 -9.509766,-0.97657 z m 196.730466,0.86133 c -1.01511,-0.0985 -2.25228,-0.0722 -3.7207,0.0723 -1.56842,0.15428 -1.29869,0.50259 1.25,1.61718 1.7875,0.78171 3.25,1.83513 3.25,2.33985 0,1.64777 -5.7002,2.21882 -11.66211,1.16797 -5.13267,-0.90468 -16.5399,-1.60061 -20.08789,-1.22461 -0.6875,0.0729 -1.25,0.77405 -1.25,1.55664 0,1.14643 1.40859,1.32378 7.25,0.91406 4.85235,-0.34036 9.06891,-0.007 12.75,1.00977 3.025,0.8359 5.63769,1.54973 5.80664,1.58593 0.16895,0.0362 2.31186,-0.4378 4.76172,-1.05468 3.43026,-0.86375 4.59646,-1.68623 5.07031,-3.57422 0.67745,-2.69917 -0.37264,-4.11462 -3.41797,-4.41016 z m 8.25782,0.2168 c -3.01154,0.0707 -0.10996,1.10771 7.66992,2.31836 9.6522,1.50201 15.33547,1.67787 22.35156,0.6914 4.3823,-0.61615 3.57928,-0.78625 -6.5,-1.38671 -6.325,-0.37685 -14.65,-0.98069 -18.5,-1.3418 -2.35608,-0.22099 -4.01764,-0.30482 -5.02148,-0.28125 z m -210.765629,2.93164 c -0.976664,0 -1.607474,0.31858 -1.212891,0.95703 0.339919,0.55 1.828553,0.9928 3.308594,0.98438 C 35.91336,361.9724 36.173233,361.7582 35,361 c -0.987929,-0.63845 -2.310446,-0.95703 -3.287109,-0.95703 z m 7.566406,2.34375 c -0.475213,0.47521 4.867075,2.07469 9.720703,2.91016 4.510847,0.77647 6.428573,0.72979 5.449219,-0.13477 -1.149017,-1.01434 -14.490004,-3.45531 -15.169922,-2.77539 z m 324.046873,0.90039 c -0.86294,-0.15683 -2.36652,0.008 -4.18555,0.55273 -2.12986,0.63812 -6.06966,1.18028 -8.75585,1.20508 -2.68619,0.0248 -6.14997,0.58731 -7.69532,1.25 l -2.80859,1.20508 2.02539,2.17188 c 1.19101,1.27681 4.20472,2.59585 7.31055,3.19921 2.90597,0.56454 6.1832,1.22145 7.2832,1.46094 4.8547,1.05696 7.5,0.67566 7.5,-1.08203 0,-1.48 -0.96429,-1.75 -6.25,-1.75 -5.80124,0 -12.75,-1.85931 -12.75,-3.41211 0,-0.36855 4.05191,-1.14175 9.00391,-1.7168 4.95199,-0.57505 9.30134,-1.34431 9.66601,-1.70898 0.74093,-0.74093 0.51919,-1.21817 -0.34375,-1.375 z M 210.08984,365.125 C 208.31009,365.134 207,365.40965 207,365.94336 c 0,0.51838 1.9125,1.08263 4.25,1.25391 5.45102,0.39943 8.17538,-0.34667 4.75,-1.30079 -1.88098,-0.52392 -4.1304,-0.78073 -5.91016,-0.77148 z m 35.79297,0.21484 c -4.21831,-0.0321 -6.82565,0.0513 -6.58398,0.29297 0.9863,0.9863 17.65377,2.59198 30.20117,2.91016 18.40864,0.46681 29.54399,1.34326 37.5,2.94922 7.80953,1.5764 11,1.78072 11,0.70703 0,-1.09913 -9.10782,-2.85886 -24,-4.63867 -8.29967,-0.99192 -35.46225,-2.12448 -48.11719,-2.22071 z" />
  </g>
</svg>
