<?xml version="1.0" encoding="UTF-8" standalone="no"?>
<!-- Created with Inkscape (http://www.inkscape.org/) -->

<svg
   version="1.1"
   id="svg2"
   width="336"
   height="385"
   viewBox="0 0 336 385"
   sodipodi:docname="26.svg"
   inkscape:version="1.1.2 (0a00cf5339, 2022-02-04)"
   xmlns:inkscape="http://www.inkscape.org/namespaces/inkscape"
   xmlns:sodipodi="http://sodipodi.sourceforge.net/DTD/sodipodi-0.dtd"
   xmlns="http://www.w3.org/2000/svg"
   xmlns:svg="http://www.w3.org/2000/svg">
  <defs
     id="defs6" />
  <sodipodi:namedview
     id="namedview4"
     pagecolor="#505050"
     bordercolor="#eeeeee"
     borderopacity="1"
     inkscape:pageshadow="0"
     inkscape:pageopacity="0"
     inkscape:pagecheckerboard="0"
     showgrid="false"
     inkscape:zoom="0.97272727"
     inkscape:cx="239.53271"
     inkscape:cy="52.943925"
     inkscape:window-width="1920"
     inkscape:window-height="1043"
     inkscape:window-x="0"
     inkscape:window-y="0"
     inkscape:window-maximized="1"
     inkscape:current-layer="g8" />
  <g
     inkscape:groupmode="layer"
     inkscape:label="Image"
     id="g8">
    <path
       id="path12"
       style="fill:#000000"
       d="m 321.07422,0.04882812 c 0.0625,0.34495889 0.19724,0.63291219 0.46094,0.8203125 -0.14301,-0.25882902 -0.2681,-0.53565651 -0.39063,-0.81445312 -0.0281,-8.4048e-4 -0.0419,-0.0051088 -0.0703,-0.0058594 z m -1.09766,0.67773438 c 0.0579,0.14526881 0.12108,0.2965115 0.15625,0.4179687 -0.0401,-0.33440948 -0.0496,-0.43021062 -0.15625,-0.4179687 z M 0,3.8105469 v 2.8964843 2.8984376 l 9.8300781,0.033203 c 5.4060419,0.01791 10.3182119,0.3336602 10.9160159,0.7031251 0.597805,0.369464 2.152997,0.267277 3.457031,-0.228516 1.556145,-0.5916412 3.635721,-0.4669702 6.050781,0.363281 3.783109,1.300571 17.417158,1.526809 19.302735,0.320313 1.150217,-0.735972 2.957967,-0.525743 5.707031,0.664063 1.02927,0.44547 2.381578,0.250022 3.25,-0.470704 C 59.72609,9.9840227 60,10.054337 60,11.376953 c 0,2.124477 1.645572,2.078422 2.853516,-0.08008 0.751915,-1.3435965 1.253777,-1.4536414 2.376953,-0.521484 1.095869,0.909491 2.165636,0.902032 4.648437,-0.03516 2.699366,-1.0188915 3.684263,-0.953895 6.050782,0.404297 1.763281,1.011984 3.344033,1.298763 4.199218,0.761719 0.754163,-0.473604 2.158594,-0.615914 3.121094,-0.316406 0.991255,0.308455 1.75,0.02943 1.75,-0.644532 0,-0.904714 0.335257,-0.911991 1.396484,-0.03125 1.040661,0.863672 3.116123,0.882297 8.16211,0.07617 3.722048,-0.5946 7.030676,-0.722534 7.353516,-0.285156 0.32283,0.437379 5.98789,0.810908 12.58789,0.830078 6.6,0.01917 14.025,0.08445 16.5,0.144532 12.92555,0.313736 37.65753,-0.323819 38.72852,-0.998047 0.67614,-0.42565 2.14753,-0.282116 3.26953,0.318359 1.25258,0.670358 5.70069,0.91765 11.52148,0.640625 5.6659,-0.269653 9.72343,-0.05455 10.08789,0.535156 0.33539,0.54267 1.62017,0.733378 2.85352,0.423828 1.23334,-0.309551 2.54371,-0.260977 2.91211,0.107422 0.3684,0.368399 6.62268,0.778326 13.89843,0.91211 19.5805,0.360039 26.78765,0.902033 31.12305,2.339843 2.38359,0.790499 6.36045,1.093466 10.25,0.78125 3.49543,-0.28053 6.35547,-0.159213 6.35547,0.269532 0,0.428745 1.55475,0.428594 3.45508,0 1.90033,-0.428594 3.58783,-0.394863 3.75,0.07422 0.35303,1.021079 3.36034,1.128593 15.29492,0.548828 4.95,-0.240462 12.15,0.03328 16,0.607422 3.85,0.574143 9.78839,1.104928 13.19531,1.179688 3.40692,0.07476 6.5112,0.452612 6.89844,0.839844 0.38723,0.387233 1.64884,0.467458 2.80469,0.179687 1.15585,-0.28777 4.35156,-0.615754 7.10156,-0.730469 4.57255,-0.190742 5.02538,-0.430685 5.30078,-2.800781 l 0.30078,-2.591797 -14.80078,-0.667968 C 274.32633,11.530043 244.48647,10.068686 227,9.0292969 205.72732,7.7648572 157.96733,6.135148 151.5,6.453125 148.75,6.5883333 130.25761,6.3269502 110.40625,5.8710938 90.554887,5.4152373 57.59239,4.7645764 37.15625,4.4257812 Z M 154.05469,55.490234 c -9.1738,0.361519 -17.93108,3.268235 -22.97657,8.429688 -4.32853,4.428077 -5.56506,8.424243 -4.30664,13.904297 0.86547,3.768874 0.7965,4.981616 -0.3496,6.253906 C 125.63965,84.946432 125,86.601585 125,87.755859 125,89.879793 129.26733,94 131.4668,94 c 0.65789,0 1.77638,1.2375 2.48632,2.75 0.70995,1.5125 1.94645,4.0054 2.74805,5.53906 0.80159,1.53366 2.02949,3.89089 2.72852,5.23828 0.69904,1.34738 2.46255,3.38684 3.91992,4.53321 3.52947,2.77628 3.34129,4.28898 -0.7207,5.75781 C 138.76173,119.21675 125,132.23107 125,134.49023 c 0,0.82755 -1.35,4.36129 -3,7.85352 -1.65,3.49224 -3,7.2107 -3,8.26172 0,1.05101 -1.39969,5.95662 -3.10938,10.90234 -7.1217,20.60155 -8.68679,31.42777 -6.25,43.21094 0.90583,4.37998 1.18316,6.11218 0.88477,7.17773 0.0124,0.0905 0.001,0.18183 -0.008,0.27344 -0.006,0.0946 -0.002,0.0539 0,0.10938 v 0.002 c 0.0146,0.0635 0.0294,0.12622 0.0449,0.18945 8.3e-4,0.002 9e-4,0.004 0.002,0.006 0.005,0.0122 0.0102,0.0244 0.0137,0.0371 0.0109,0.0399 0.015,0.0655 0.0176,0.0879 0.005,0.0202 0.0104,0.0402 0.0156,0.0606 0.001,0.005 0.003,0.0104 0.004,0.0156 0.0138,0.0422 0.0267,0.0905 0.0352,0.12891 0.018,0.0121 0.0362,0.0235 0.0547,0.0371 0.006,0.004 0.008,0.0364 0.008,0.0723 0.0486,0.006 0.0703,0.0171 0.0195,0.0391 0.0115,0.0117 0.0153,0.0349 0.0254,0.0508 0.0679,0.0733 0.0771,0.0843 0.16016,0.24023 0.008,0.0154 0.031,0.0488 0.0137,0.0508 -0.0159,0.002 -0.0391,-0.0204 -0.0547,-0.0352 0.002,0.006 0.003,0.009 0.004,0.0137 0.0519,0.0565 0.15073,0.0754 0.1543,0.17383 0.004,0.009 0.008,0.017 0.0117,0.0254 0.009,0.0122 0.0167,0.024 0.0215,0.0371 v 0.002 c 0.006,0.0107 0.0162,0.0281 0.0234,0.041 0.004,0.003 0.008,0.007 0.0117,0.01 -0.002,-0.005 -0.004,-0.009 -0.006,-0.0137 0.0115,0.006 0.024,0.0106 0.0352,0.0176 0.10678,0.067 0.15539,0.11333 0.15039,0.11133 -0.026,-0.008 -0.0933,-0.0539 -0.1582,-0.0977 0.0285,0.0181 0.0444,0.0808 0.0547,0.125 0.0103,0.0105 0.0208,0.0206 0.0312,0.0312 0.008,0.008 0.0208,0.0205 0.0293,0.0293 0.12054,-0.008 0.26845,0.0572 0.4043,0.22851 0.0166,0.021 0.034,0.0415 0.0508,0.0625 0.002,0.001 0.005,0.003 0.008,0.004 -0.002,-8.3e-4 -0.005,-0.001 -0.008,-0.002 0.0147,0.0185 0.0301,0.0363 0.0449,0.0547 0.0177,0.006 0.0803,0.0293 0.14649,0.0645 0.57354,0.0811 1.26789,0.30074 2.3789,0.77343 1.77865,0.75675 5.72108,1.56291 8.75977,1.79102 4.53732,0.34062 5.8395,0.0662 7.28516,-1.53125 1.72276,-1.90363 1.64195,-1.94724 -3.78125,-2.07227 -9.82822,-0.22658 -11.9202,-2.4311 -13.42188,-14.14062 -0.94747,-7.38796 -0.85308,-9.5188 0.69141,-15.5293 1.44844,-5.63672 2.16402,-6.96679 3.74609,-6.96679 1.44257,0 2.02978,0.78675 2.24024,3 0.1569,1.65 0.69926,3.9 1.20507,5 1.75595,3.81877 4.00977,12.88153 4.00977,16.12304 0,1.79272 0.51627,3.5773 1.14648,3.9668 0.79155,0.4892 0.96222,-0.0341 0.55469,-1.69141 -0.32446,-1.31953 -0.88486,-4.87343 -1.24609,-7.89843 -0.36123,-3.025 -1.28712,-7.71932 -2.05664,-10.43164 C 121.68241,178.51976 121.67205,178 123.27148,178 c 0.78114,0 1.89564,2.99089 2.88672,7.75 0.88766,4.2625 2.89962,10.45 4.47071,13.75 1.5711,3.3 3.00981,6.3375 3.19726,6.75 0.18746,0.4125 -0.37135,0.75 -1.24219,0.75 -0.87083,0 -1.58398,0.37813 -1.58398,0.83984 0,1.09608 4.5648,3.16016 6.98828,3.16016 3.32632,0 3.00872,1.49896 -1.54492,7.30078 -6.94478,8.84836 -17.31589,13.43225 -31.1543,13.76953 -3.96567,0.0967 -8.403576,0.79543 -9.863279,1.55274 -1.459703,0.7573 -3.391384,1.38844 -4.291015,1.40234 -0.899631,0.0139 -4.109766,1.74001 -7.134766,3.83594 -6.130926,4.24792 -7.851259,7.59665 -7.943359,15.45703 -0.04809,4.10434 -0.315668,4.74027 -1.806641,4.30078 -4.05748,-1.19602 -25.396133,-1.6994 -33.226562,-0.7832 -8.474289,0.99155 -8.47661,0.99418 -13.09961,6.04883 -5.574493,6.09499 -9.35074,15.93066 -7.707031,20.07421 0.554433,1.39764 0.996792,7.03792 0.982422,12.53321 -0.01939,7.41371 0.387155,10.69088 1.578125,12.70703 1.351868,2.28853 1.401721,3.09953 0.3125,5.13476 -0.96888,1.81037 -1.017083,2.93182 -0.191406,4.47461 C 23.504583,319.94118 24,324.03761 24,327.91016 v 7.04101 l -2.75,-1.06055 C 18.109861,332.68134 4.7813304,330 1.9121094,330 0.55601199,330 0,330.70317 0,332.41992 c 0,2.67383 -0.92851203,2.36102 15.25,5.14063 8.304688,1.42683 9.75,1.95601 9.75,3.5664 0,1.70937 -0.551325,1.82802 -5.75,1.24805 -3.1625,-0.35282 -8.7875,-1.20259 -12.5,-1.89062 C 1.234545,339.46213 0,339.4702 0,340.5332 c 0,1.50373 6.2379441,3.00044 16.771484,4.02344 7.665906,0.7445 8.619947,1.19354 7.25,3.41016 C 23.184151,349.32165 18.631403,348.96698 3.75,346.38867 0.76230821,345.87103 0,346.04971 0,347.27344 c 0,1.20228 2.2810566,1.81582 10.5,2.82031 5.775,0.7058 10.486241,1.53487 10.46875,1.84375 -0.01749,0.30888 -0.639251,1.36234 -1.380859,2.33984 -1.252658,1.6511 -1.99633,1.68366 -10.4687504,0.44922 C 4.1032398,353.99574 0,353.71453 0,354.10156 c 0,1.09613 5.828552,2.8616 11.742188,3.55664 3.767998,0.44285 5.055472,0.94453 4.314453,1.68555 C 14.573108,360.82728 14.743287,362 16.443359,362 c 0.793874,0 3.606374,-3.13062 6.25,-6.95703 3.065899,-4.4376 5.349862,-6.81459 6.306641,-6.5625 0.825,0.21737 8.475,0.70196 17,1.07617 8.525,0.37422 16.153551,1.03208 16.951172,1.46289 1.986049,1.0727 -7.66556,3.94368 -15.451172,4.5957 -3.3,0.27637 -7.227455,0.97583 -8.726562,1.55469 -4.447674,1.7174 -1.927959,4.40105 6.492187,6.91602 7.084014,2.11589 13.328522,2.22948 25.234375,0.45898 1.65,-0.24537 6.949065,0.28548 11.775391,1.17969 5.733238,1.06224 9.115304,1.28508 9.755859,0.64453 1.616568,-1.61657 -0.918581,-12.23982 -2.904297,-12.16992 -4.167127,0.14663 -14.681758,-2.32873 -17.865234,-4.20703 -4.115429,-2.42816 -29.479423,-5.55578 -37.542969,-4.62891 -5.911918,0.67955 -8.251424,-0.0157 -6.628906,-1.9707 1.057682,-1.27443 0.731382,-18.09951 -0.492188,-25.39258 -0.39428,-2.35011 -1.101902,-10.58873 -2.111328,-24.57031 l -0.439453,-6.07227 13.226563,-0.15625 c 7.274442,-0.0858 17.373651,-0.66863 22.443359,-1.29687 10.124918,-1.25468 12.707116,-0.8566 11.888672,1.83984 -0.292968,0.96521 -0.629002,6.18038 -0.746094,11.58789 -0.207874,9.59999 0.371757,11.59069 3.390625,11.65235 0.4125,0.008 0.758641,-4.82188 0.769531,-10.73438 0.02374,-12.8863 2.088208,-31.26727 4.958985,-44.1543 C 82.357768,245.41515 82.534314,245 84.691406,245 c 1.929415,0 8.381081,-3.85301 9.978516,-5.95898 0.643163,-0.84791 2.443163,-1.60139 4,-1.67579 1.556828,-0.0744 5.523888,-0.90451 8.816408,-1.84375 4.485,-1.2794 6.42521,-1.43404 7.73633,-0.61523 C 117.64416,236.4185 119,236.27323 119,234.5 c 0,-2.19993 2.34526,-1.82899 4.74219,0.75 4.31427,4.64197 6.63766,13.63939 9.87695,38.25 1.52922,11.61826 1.40439,32.25067 -0.28516,47.13672 l -0.58203,5.13672 -5.12695,1.08984 C 108.53315,330.91753 95,335.58463 95,338.11523 c 0,1.38871 4.172373,1.03511 5.92188,-0.50195 0.8683,-0.76289 4.72812,-2.12062 8.57812,-3.01758 3.85,-0.89696 9.25,-2.28299 12,-3.07812 15.51678,-4.48648 20.44147,-5.69478 24.5,-6.01172 18.82754,-1.47028 27.13497,-2.97366 32.90039,-5.95508 1.80648,-0.93416 3.44482,-1.5376 3.64063,-1.3418 0.1958,0.19581 -0.10357,2.16889 -0.66602,4.38477 -0.6255,2.46425 -2.83897,5.99522 -5.69922,9.0918 -4.64131,5.02482 -4.74686,5.07302 -14.17578,6.63867 -11.28738,1.87423 -34.24087,3.23498 -49.32031,2.92383 -9.80448,-0.20231 -10.79039,-0.0584 -10.48633,1.51562 0.27932,1.4463 1.27078,1.68684 5.91406,1.44141 5.41346,-0.28614 5.68828,-0.17174 9.3125,3.83984 2.05404,2.27358 3.58852,4.27525 3.4082,4.44922 -0.18026,0.17398 -4.03265,-0.0599 -8.56054,-0.51953 C 98.53434,350.58053 90.657492,350.52752 90.224609,351.82617 90.009432,352.4717 90.342442,353 90.964844,353 c 0.622402,0 2.824123,0.81705 4.892578,1.81641 3.057456,1.47721 3.985637,1.57748 4.964848,0.52929 0.66242,-0.70913 2.43635,-1.09804 3.9414,-0.86328 1.50505,0.23475 8.07136,0.69364 14.5918,1.01953 10.65206,0.5324 11.99422,0.40959 13.21875,-1.20507 1.14052,-1.5039 1.36793,-1.54231 1.39453,-0.23438 0.0175,0.8596 -1.35948,2.8846 -3.05859,4.5 -2.74135,2.6063 -5.91016,7.37305 -5.91016,8.88867 0,0.30231 0.7875,0.52349 1.75,0.49219 1.91859,-0.0624 8.31575,-7.9166 10.95312,-13.44727 0.91714,-1.92326 2.27509,-3.49609 3.01758,-3.49609 1.03155,0 1.1015,-0.46308 0.29883,-1.96289 -0.57774,-1.07952 -1.63391,-1.73876 -2.34765,-1.46484 -0.71381,0.27391 -2.12759,-0.41772 -3.14063,-1.53711 -1.01304,-1.1194 -1.65829,-2.05919 -1.43555,-2.08789 3.66389,-0.47194 24.9043,-0.98324 24.9043,-0.59961 0,0.29094 -1.2375,1.85495 -2.75,3.47461 -3.64088,3.89882 -8.98092,6.51227 -12.99609,6.36132 -3.09544,-0.11637 -4.30422,1.05009 -2.34375,2.26172 1.44182,0.8911 5.30652,0.95359 8.83984,0.14258 2.9506,-0.67726 3.24909,-0.53283 3.24609,1.58203 -0.003,2.08315 -1.39102,4.76022 -5.19726,10.03125 -1.56437,2.16639 -0.54258,3.20652 2.40429,2.44727 2.84669,-0.73344 4.73897,-4.6162 5.4336,-11.14844 0.82894,-7.79528 0.63629,-7.60752 6.1875,-5.95898 6.70782,1.99201 122.15697,3.08856 123.375,1.17187 0.53688,-0.84483 0.77444,-0.70353 0.78516,0.46875 0.008,0.92544 1.00255,1.996 2.20898,2.37891 1.20643,0.3829 4.3523,2.21421 6.99023,4.06836 2.63793,1.85416 4.99799,3.37109 5.2461,3.37109 1.94371,0 17.47458,8.30708 17.97656,9.61523 0.58887,1.53456 -0.57528,1.597 -14.63281,0.78907 -8.39996,-0.48277 -44.74844,-0.89818 -80.77344,-0.92188 -65.46002,-0.0431 -80.36054,-0.42208 -119.5,-3.04297 -2.2,-0.14732 -14.35,-0.55622 -27,-0.9082 C 47.541681,368.72551 16.031114,367.13789 14.878906,366.42578 14.395245,366.12687 14,365.05996 14,364.05469 c 0,-1.45837 -1.322676,-2.07714 -6.5449219,-3.0625 -6.3579922,-1.19967 -9.3189696,-0.76095 -6.52343748,0.96679 C 1.6877155,362.42626 4.7138,363.10917 7.6542969,363.47656 16.081494,364.52947 14.162447,367 4.9179688,367 0.33854148,367 0,367.17221 0,369.5 c 0,2.48568 0.0529869,2.50058 9.25,2.51172 25.091891,0.0304 67.062531,1.23293 91.25,2.61523 15.14661,0.86563 38.788,1.3339 95,1.88282 53.24834,0.51999 117.83601,1.61555 118.30078,2.00585 1.15778,0.97231 10.99549,-0.0728 12.44922,-1.32226 2.88294,-2.47776 2.05944,-3.60736 -4.5,-6.17383 -7.91644,-3.09741 -15.53567,-7.18562 -23.5332,-12.62891 -3.45581,-2.35208 -7.16831,-4.55707 -8.25,-4.90039 -1.68005,-0.53323 -1.98478,-1.60007 -2.08594,-7.30859 -0.0651,-3.67543 -0.0734,-6.99228 -0.0195,-7.37109 0.0539,-0.37881 0.13739,-9.34694 0.18555,-19.92969 0.0629,-13.83739 0.48575,-20.38368 1.50585,-23.31055 1.96037,-5.62472 1.87604,-5.9891 -1.80273,-7.80078 -1.7875,-0.88029 -6.84356,-4.78898 -11.23633,-8.68555 C 272.12053,275.1874 268.19826,272 267.79688,272 c -0.40139,0 -2.34979,-1.61932 -4.32813,-3.59766 l -3.5957,-3.5957 -15.6875,0.42969 c -15.34389,0.42108 -15.69288,0.47895 -16.01563,2.67578 -0.32083,2.18382 -0.0997,2.24309 8,2.10547 C 258.20355,269.64319 261,269.79901 261,271.40039 c 0,0.84493 1.05632,2.1133 2.34766,2.81836 1.29135,0.70507 6.22525,4.20157 10.96484,7.77148 6.60865,4.97771 8.21782,6.6362 6.90234,7.11329 -2.14614,0.77834 -69.05978,0.38356 -69.85546,-0.41211 -0.32034,-0.3203 0.96937,-2.51908 2.86718,-4.88672 1.89781,-2.36765 5.1269,-7.11116 7.17578,-10.54102 2.04889,-3.42985 4.4793,-6.65836 5.40039,-7.17383 1.4004,-0.7837 1.65828,-2.54656 1.57618,-10.76367 -0.12277,-12.2854 -1.00547,-18.24785 -4.83399,-32.625 -1.73886,-6.52989 -1.87081,-7.77466 -0.79492,-7.5332 2.44854,0.5495 8.47565,-1.79293 12.20508,-4.74414 2.37947,-1.88294 4.66423,-3.42383 5.07617,-3.42383 1.3469,0 3.14807,-13.30544 3.00977,-22.23047 -0.11263,-7.2684 -0.54429,-9.44615 -2.57618,-13 -1.34242,-2.34794 -2.44612,-5.19281 -2.45312,-6.32031 -0.007,-1.1275 -0.42178,-2.4775 -0.92383,-3 -1.38337,-1.43972 -6.01393,-15.02489 -7.9082,-23.20508 -1.31233,-5.66716 -2.64535,-8.46402 -6.0918,-12.76758 -5.24481,-6.54914 -15.87124,-13.8222 -24.71289,-16.91406 -3.50557,-1.22588 -6.64718,-2.50068 -6.98047,-2.83398 -0.3333,-0.33329 0.82698,-2.60259 2.57813,-5.04102 1.78134,-2.480468 3.42306,-6.226584 3.72851,-8.503906 0.49164,-3.66544 0.21313,-4.374173 -2.80078,-7.126953 C 193.0596,84.375337 190.97071,83 190.25781,83 c -0.88805,0 -1.09607,-0.798279 -0.66015,-2.535156 0.51065,-2.034594 -0.0583,-3.210059 -2.88477,-5.955078 -2.3593,-2.29132 -3.74123,-4.721883 -4.1875,-7.363282 -0.6036,-3.572697 -1.23127,-4.243421 -6.68164,-7.148437 -5.21447,-2.779281 -11.51565,-4.251094 -17.8418,-4.505859 -1.31794,-0.05308 -2.63672,-0.05305 -3.94726,-0.002 z M 111.10352,213.56445 c 0,0 0,0.002 0,0.002 -0.002,-10e-4 -0.004,-0.001 -0.006,-0.002 0.005,0.009 0.01,0.0173 0.0156,0.0274 -0.003,-0.007 -0.005,-0.0144 -0.008,-0.0215 0.006,0.003 0.0135,0.006 0.0195,0.01 -0.008,-0.005 -0.0139,-0.0106 -0.0215,-0.0156 z m -0.006,0 c -0.002,-0.003 -0.004,-0.007 -0.006,-0.01 -0.004,-0.003 -0.009,-0.005 -0.0137,-0.008 0.002,0.003 0.004,0.006 0.006,0.01 0.005,0.002 0.009,0.006 0.0137,0.008 z M 157.90039,59.203125 C 168.05441,59.838119 179,65.735247 179,70.570312 c 0,0.755314 -3.20585,1.131705 -9.75,1.146485 -10.95735,0.02475 -25.548,2.457608 -32.12695,5.355469 C 134.71564,78.132671 132.57814,79 132.37305,79 132.16797,79 132,76.975368 132,74.501953 c 0,-9.533775 11.30501,-16.211569 25.90039,-15.298828 z m 10.41016,15.863281 c 5.8364,-0.148438 10.66049,0.205957 12.59179,1.199219 3.33324,1.714261 4.87631,4.356118 3.4043,5.828125 -0.86462,0.864619 -2.34297,0.738365 -5.97852,-0.507812 -6.59997,-2.262327 -21.48382,-3.146675 -28.33593,-1.683594 -6.2524,1.335029 -14.10425,4.81434 -15.29102,6.77539 -1.30025,2.14856 -3.70117,1.540671 -3.70117,-0.9375 0,-2.502123 2.20288,-4.182872 8.38281,-6.398437 6.65959,-2.387526 19.20039,-4.027994 28.92774,-4.275391 z M 171.875,81.5 173.40234,84 c 0.83998,1.375 1.54302,3.486365 1.5625,4.691406 C 174.98433,89.896447 174.55,91.160081 174,91.5 173.42495,91.855402 172.99433,90.923924 172.98633,89.308594 172.97882,87.763635 172.72579,85.375 172.42383,84 Z m -11.5,0.107422 C 161.98602,81.747739 163,82.193268 163,83.015625 163,83.915968 155.63218,87 153.48047,87 c -2.44337,0 -1.67551,3.662315 1.49609,7.134766 l 2.97461,3.257812 3.52539,-1.679687 c 2.44692,-1.166856 3.54495,-2.373704 3.59375,-3.947266 0.0386,-1.246399 0.42194,-3.165625 0.85157,-4.265625 0.68895,-1.763957 1.03308,-1.503846 2.92187,2.197266 1.17786,2.308005 2.73026,4.558005 3.44922,5 0.71897,0.441995 2.32733,2.263921 3.57422,4.050781 l 2.26758,3.250003 -4.54297,5.75 c -5.64517,7.14567 -10.85441,10.29457 -15.0918,9.12304 -1.65,-0.45618 -4.49097,-1.62551 -6.3125,-2.59961 C 147.3721,111.69636 140.5803,100 143.90039,100 c 0.49568,0 1.83102,1.575 2.9668,3.5 2.0192,3.42229 5.29886,4.65838 6.63281,2.5 0.33992,-0.55 1.37855,-1.00764 2.30859,-1.01562 0.93004,-0.008 2.33732,-0.42417 3.12696,-0.92383 1.18984,-0.7529 1.21108,-1.17809 0.12695,-2.48438 -1.70525,-2.054679 -3.9391,-1.998366 -6.32422,0.16016 -1.82626,1.65275 -1.9866,1.64322 -3.32812,-0.19141 C 148.63484,100.4846 148,98.444645 148,97.009766 c 0,-1.434878 -0.41615,-3.038047 -0.92383,-3.560547 -0.50768,-0.5225 -1.07018,-2.299219 -1.25,-3.949219 -0.17982,-1.65 -0.7718,-3 -1.3164,-3 -0.5446,0 -1.22192,1.35 -1.50586,3 -0.59496,3.457398 -4.30331,4.769113 -5.40039,1.910156 -0.35798,-0.9328 -0.5274,-1.779011 -0.37696,-1.880859 0.15045,-0.101848 1.86903,-1.3724 3.82032,-2.822266 4.29123,-3.18856 14.49506,-5.520559 19.32812,-5.099609 z m 8.02148,0.740234 c 0.10151,-0.06436 0.26046,-0.04412 0.46875,0.07422 0.27773,0.157786 0.64447,0.487596 1.08594,1.019531 0.68037,0.819799 1.08194,1.961236 0.89063,2.535156 -0.19131,0.573921 -0.94027,0.09453 -1.66407,-1.064453 -0.88079,-1.410385 -1.08577,-2.371375 -0.78125,-2.564453 z M 176.87109,84 c 0.97281,0 1.92988,5.59672 1.92188,11.25 -0.002,1.5125 -0.15537,2.75 -0.33985,2.75 -0.92841,0 -1.43126,-2.187629 -1.29882,-5.648438 C 177.23535,90.233651 176.97888,87.4875 176.58398,86.25 176.16333,84.931794 176.28164,84 176.87109,84 Z m -14.36132,3.123047 C 162.81558,87.27503 162.32694,87.741452 161,88.5 c -2.92581,1.672545 -4,1.838696 -4,0.617188 0,-0.485852 1.0125,-1.154692 2.25,-1.486329 1.85369,-0.496768 2.95395,-0.659796 3.25977,-0.507812 z m 27.73828,0.119141 c 0.6884,0.224941 1.77383,1.948341 2.41211,3.832031 0.9642,2.845587 0.87963,3.91353 -0.5,6.310547 -0.91328,1.58675 -2.60745,3.512174 -3.76563,4.277344 -1.82601,1.20638 -2.28122,1.17948 -3.42383,-0.19727 -1.12221,-1.35218 -0.92721,-1.948612 1.3125,-4.025387 3.23383,-2.998573 4.14571,-3.110953 2.6543,-0.324219 -0.90315,1.687546 -0.85965,2.024842 0.21484,1.667969 2.60454,-0.865049 3.44793,-5.674257 1.56836,-8.949219 -1.14436,-1.993937 -1.30382,-2.863397 -0.47265,-2.591796 z m -3.62696,0.146484 c 0.12148,-0.0041 0.25481,0.03473 0.39453,0.121094 0.55897,0.345464 0.75785,1.046597 0.44141,1.558593 C 186.5998,90.455403 186,90.197932 186,88.441406 c 0,-0.643094 0.25665,-1.040466 0.62109,-1.052734 z m -4.95117,0.115234 c 0.17508,0.006 0.39163,0.132613 0.66016,0.355469 1.04447,0.86683 1.10971,2.183622 0.30273,6.123047 C 182.06743,96.742451 181.19554,99 180.69531,99 180.19508,99 180.05874,98.287952 180.39258,97.417969 180.72643,96.547985 181,93.792283 181,91.294922 c 0,-2.749239 0.14468,-3.809009 0.66992,-3.791016 z M 186,91 c 0.55,0 1,0.648865 1,1.441406 0,0.792541 -0.45,1.718675 -1,2.058594 -0.55,0.339919 -1,-0.308947 -1,-1.441406 C 185,91.926135 185.45,91 186,91 Z m -42.75586,3 c 1.66439,0 1.79185,0.251704 0.75586,1.5 -0.68469,0.825 -2.14414,1.5 -3.24414,1.5 -1.66439,0 -1.79185,-0.251704 -0.75586,-1.5 0.68469,-0.825 2.14414,-1.5 3.24414,-1.5 z m 27.97461,4.341797 c -0.83143,-0.0333 -2.3613,0.333785 -3.92578,0.982422 -2.08599,0.864851 -3.00547,1.596701 -2.04297,1.625001 1.01157,0.0298 1.75,0.82503 1.75,1.88476 0,1.00834 0.29935,2.13334 0.66602,2.5 1.00053,1.00053 3.33398,0.80052 3.33398,-0.28515 0,-0.52267 -0.7875,-1.41321 -1.75,-1.98047 -1.52622,-0.89951 -1.55819,-1.15929 -0.25,-2.0332 0.825,-0.55112 1.95,-1.174173 2.5,-1.382816 0.55,-0.208643 0.68199,-0.720186 0.29297,-1.138672 -0.0973,-0.104622 -0.29708,-0.160777 -0.57422,-0.171875 z m 9.57617,5.316403 c 0.24276,0.0304 0.48473,0.15938 0.74219,0.37305 1.09363,0.90763 1.03134,1.45865 -0.35352,3.11133 -1.85797,2.21727 -5.18359,4.30801 -5.18359,3.25976 0,-0.36693 0.94636,-2.19798 2.10352,-4.07031 1.22268,-1.97836 1.96314,-2.76504 2.6914,-2.67383 z m -19.23242,1.75586 c -0.89221,0.11246 -2.29931,0.77812 -4.98438,2.0918 -3.06773,1.50091 -5.57812,3.17599 -5.57812,3.72266 0,0.61785 1.41894,0.70392 3.75,0.22851 2.0625,-0.42064 5.20863,-0.80823 6.99219,-0.86133 3.44551,-0.10253 3.81731,-0.95811 1.71679,-3.95703 -0.62768,-0.89614 -1.00427,-1.33706 -1.89648,-1.22461 z m 24.28516,3.16406 c 0.79468,-0.0865 1.15846,0.41226 1.85742,1.41016 0.7751,1.10661 2.32981,2.01172 3.45508,2.01172 1.12527,0 5.72839,1.72618 10.23046,3.83594 10.92681,5.12046 17.58217,11.6912 20.03711,19.7832 3.95842,13.04775 9.12114,25.67173 10.67383,26.09766 0.94854,0.2602 1.61567,1.52988 1.63477,3.11132 0.0177,1.46961 0.9768,5.22058 2.13086,8.33594 3.16001,8.53042 3.62114,18.49757 1.17578,25.45508 -1.09546,3.11678 -2.75182,6.50596 -3.67969,7.53125 -2.23506,2.46971 -7.11616,4.84961 -9.94726,4.84961 -2.03231,0 -2.18763,-0.3091 -1.45118,-2.87695 0.45373,-1.58205 0.58383,-5.88076 0.28907,-9.55274 -0.5211,-6.49193 -0.60778,-6.66748 -3.14453,-6.37304 -2.87782,0.33402 -2.85045,-0.068 -0.71094,10.27734 0.7933,3.83588 1.22655,7.32338 0.96289,7.75 -0.26366,0.42661 -0.78988,0.72632 -1.16992,0.66601 -5.45276,-0.86456 -10.19425,-2.19169 -13.56055,-3.79492 C 199.62359,204.71085 189.30899,202 185.24414,202 c -2.83173,0 -2.99372,-0.23828 -3.5957,-5.25 -0.34683,-2.8875 -0.65138,-7.5 -0.67578,-10.25 -0.0244,-2.75 -0.66253,-7.58712 -1.41797,-10.74805 -0.75547,-3.16093 -1.07542,-5.90574 -0.71289,-6.10156 1.57963,-0.85329 7.22223,1.59006 8.36718,3.62305 0.68994,1.22506 1.48623,5.04925 1.77149,8.49804 0.28525,3.44878 0.96953,6.37378 1.51953,6.5 0.55,0.12621 1.39099,-2.37639 1.86914,-5.56054 0.74106,-4.935 0.60707,-6.07934 -0.91016,-7.75586 -2.64864,-2.92672 -1.17958,-3.36312 3.42188,-1.01563 2.24124,1.1434 7.3481,2.75781 11.34766,3.58789 11.02165,2.28745 15.73498,5.07131 19.08398,11.26758 4.01001,7.41925 6.484,6.72191 3.26953,-0.92187 -2.53592,-6.03023 -8.90537,-10.64623 -17.83203,-12.92188 -5.69614,-1.4521 -6.17321,-2.91 -1,-3.05664 7.0273,-0.1992 7.71389,-0.39492 8.08398,-2.29492 0.33752,-1.73281 -0.10228,-1.849 -4.98242,-1.3125 -2.94376,0.32362 -6.81224,0.89793 -8.59765,1.27539 l -3.2461,0.68555 2.08008,-5.00391 c 1.16323,-2.79903 4.34529,-7.28133 7.22266,-10.17383 4.16559,-4.18748 4.86226,-5.34901 3.66601,-6.10547 -0.81247,-0.51377 -1.98647,-0.94121 -2.60937,-0.94922 -1.54088,-0.0208 -10.71149,14.60876 -12.50781,19.95313 -0.51366,1.52821 -0.69196,-3.08827 -0.45118,-11.64844 0.31966,-11.36468 0.12616,-14.28537 -0.97265,-14.70703 -2.40584,-0.9232 -2.93137,1.59025 -3.11133,14.88672 -0.0968,7.15 -0.54678,12.93376 -1,12.85156 -0.45323,-0.0822 -4.57464,-0.90803 -9.1582,-1.83398 -4.58356,-0.92595 -8.552,-1.46558 -8.81836,-1.19922 -0.26636,0.26636 0.23172,2.89223 1.10546,5.83398 1.64935,5.55304 4.06515,28.66143 3.09766,29.62891 -1.10831,1.10832 -1.79822,-0.80719 -2.15625,-5.98437 -1.08654,-15.71121 -1.39871,-18.53256 -2.53515,-22.9668 -0.98823,-3.85569 -2.26213,-5.69946 -6.2754,-9.08399 -8.48016,-7.15163 -14.66178,-10.36579 -21.27148,-11.05664 -6.77851,-0.7085 -12.72978,1.56482 -12.91602,4.9336 -0.0571,1.03196 -0.63811,3.19147 -1.29101,4.79883 -1.86446,4.59003 -0.88118,5.57348 5.61328,5.61328 5.64037,0.0346 11.5413,2.06758 9.55859,3.29296 -0.5458,0.33735 -3.64376,0.17919 -6.88476,-0.35156 -3.241,-0.53076 -5.95315,-0.9677 -6.02735,-0.9707 -0.0742,-0.003 -0.89135,1.14875 -1.8164,2.56055 -2.03942,3.11255 -0.94787,4.90339 3.53906,5.80078 3.54346,0.70869 3.13794,2.16097 -0.82617,2.95703 -1.51923,0.30508 -3.99922,0.85997 -5.51172,1.23242 -2.6179,0.64465 -2.75,0.5034 -2.75,-2.93945 0,-1.98912 0.48815,-3.61719 1.08398,-3.61719 0.59583,0 0.90845,-0.52273 0.69532,-1.16211 -0.21911,-0.65735 -2.53731,-1.2005 -5.33399,-1.25 -4.67108,-0.0826 -4.96333,-0.24582 -5.27148,-2.93945 -0.17945,-1.56864 0.82426,-6.29364 2.23047,-10.5 4.28147,-12.80702 5.5957,-17.16019 5.5957,-18.5293 0,-0.72054 0.9,-2.12365 2,-3.11914 1.1,-0.99549 2,-2.35131 2,-3.01367 0,-2.36701 6.89338,-9.85614 12.08398,-13.12891 2.9055,-1.83197 5.59409,-3.83548 5.97461,-4.45117 0.49013,-0.79304 1.7525,-0.61471 4.33203,0.60937 2.00276,0.95038 3.82935,2.03141 4.0586,2.40235 0.22926,0.37094 -0.49744,3.35421 -1.61524,6.62891 C 153.50474,134.37044 152.10596,151 153.86133,151 c 1.19576,0 1.31349,-0.41268 3.72461,-13 1.68715,-8.80784 2.18802,-11.73183 2.33008,-13.5918 0.0458,-0.60009 2.44648,-2.35038 5.33398,-3.89062 2.8875,-1.54025 6.6,-3.77806 8.25,-4.97266 1.65,-1.1946 5.20289,-3.38692 7.89648,-4.87109 2.42901,-1.33839 3.65649,-2.00918 4.45118,-2.09571 z M 159,112 c -0.55,0 -1,0.45 -1,1 0,0.55 0.45,1 1,1 0.55,0 1,-0.45 1,-1 0,-0.55 -0.45,-1 -1,-1 z m 68.875,2.88086 c -0.0475,0.0526 -0.14321,0.12672 -0.20898,0.1875 0.0227,-0.0151 0.0448,-0.0326 0.0684,-0.0449 0.44551,-0.12033 0.49587,-0.076 0.14062,-0.14258 z m -0.86914,0.75781 c -0.11916,0.0964 -0.23149,0.18877 -0.3418,0.28125 0.21398,-0.0131 0.40226,-0.0525 0.60742,-0.082 -0.0874,-0.0677 -0.1757,-0.13477 -0.26562,-0.19922 z M 182.60742,151 c -2.06756,0 -2.5048,2.05087 -1.88672,8.86719 C 181.60206,169.587 184,167.43033 184,156.91797 184,152.52602 183.64118,151 182.60742,151 Z M 146.5,155.03711 c 2.01291,0.0264 5.5,2.13256 5.5,3.32227 0,0.35185 -0.3375,0.56194 -0.75,0.46484 -0.4125,-0.0971 -3.9,-0.4403 -7.75,-0.76172 l -7,-0.58398 4,-1.23438 c 2.2,-0.67839 4.9,-1.22143 6,-1.20703 z m 8.38477,4.43555 c 0.44796,-0.032 1.2436,0.39791 2.79296,1.25976 1.7476,0.97214 5.42605,3.89325 8.17579,6.49024 4.39787,4.15355 5.20679,5.5707 6.71484,11.77539 0.9429,3.87943 1.53756,7.21701 1.32226,7.41797 C 173.67538,186.61698 172.6,186.20503 171.5,185.5 c -1.1,-0.70503 -5.60023,-2.06273 -10,-3.01562 -4.39976,-0.9529 -9.07287,-2.57548 -10.38477,-3.60743 C 149.46977,177.58264 147.10121,177 143.47656,177 c -3.81547,0 -5.90094,-0.55096 -7.61523,-2.01172 l -2.36133,-2.01172 8.85156,0.65821 c 9.9801,0.74122 10.60701,0.39571 10.63282,-5.83789 0.0142,-3.43166 -0.25916,-3.77903 -3.73438,-4.74415 -2.0625,-0.57278 -4.51137,-1.04387 -5.44141,-1.04687 C 142.87855,162.00279 141.83992,161.55 141.5,161 c -0.81276,-1.31508 -0.0412,-1.25573 6.5,0.5 3.025,0.81194 5.58044,1.48175 5.67969,1.48828 0.0993,0.007 0.32425,-0.89622 0.5,-2.00586 0.15581,-0.98376 0.25711,-1.47774 0.70508,-1.50976 z m -14.97071,3.5664 c 2.26281,0.0974 5.13718,0.74748 7.58594,1.90625 2.32344,1.09946 3.16172,1.84796 2,1.78516 -11.99907,-0.64877 -13.5,-0.90363 -13.5,-2.28125 0,-1.05333 1.65125,-1.50759 3.91406,-1.41016 z m 87.21875,8.45899 c -1.23655,-0.47451 -4.01916,1.99221 -4.10156,3.63672 -0.0175,0.34924 1.20625,1.43812 2.71875,2.41992 1.5125,0.9818 3.36408,2.64642 4.11523,3.69922 0.94918,1.33037 1.68431,1.59694 2.41016,0.87109 1.22595,-1.22595 -2.90829,-9.76958 -5.14258,-10.62695 z m -43.60937,2.76757 c -0.39888,-0.0175 -0.24374,2.4702 0.61523,6.62891 0.69361,3.3581 1.6109,6.10547 2.03711,6.10547 0.85105,0 0.20547,-4.63595 -1.36719,-9.81641 -0.60554,-1.99471 -1.04583,-2.90744 -1.28515,-2.91797 z m -38.06836,8.51172 c 1.52751,-0.2174 2.00526,0.37867 2.1875,2.72266 0.12829,1.65 0.70703,5.475 1.28515,8.5 0.57811,3.025 1.16916,6.61653 1.3125,7.98047 0.25809,2.45579 1.60111,3.22208 7.77344,4.44141 2.13007,0.42077 2.71504,1.3795 3.83789,6.2871 0.72865,3.1847 2.1974,7.78787 3.26367,10.22852 1.80771,4.13777 2.05095,4.32601 3.60157,2.77539 1.55062,-1.55062 1.40499,-2.17962 -2.16016,-9.29687 -3.09196,-6.17263 -3.55847,-7.80106 -2.43945,-8.50977 2.79777,-1.7719 8.79041,-0.33668 19.68554,4.71094 8.255,3.82448 9.19727,4.01253 9.19727,1.83398 0,-2.17276 2.85137,-7.45117 4.02539,-7.45117 0.53588,0 0.97461,2.44202 0.97461,5.42773 0,5.76123 1.97967,9.177 4.71094,8.12891 C 203.51,220.25001 204.57701,220 205.08203,220 205.58704,220 206,218.49935 206,216.66602 c 0,-3.91297 0.49926,-4.60938 2.85938,-3.99219 1.18796,0.31066 2.84214,3.70173 5.1914,10.64062 3.02662,8.93958 3.42489,11.27109 3.25,19.06446 -0.21795,9.71226 -2.38663,20.87057 -5.27148,27.12109 -4.2197,9.14273 -5.16737,11.69397 -4.56641,12.29492 1.63545,1.63545 4.26181,-2.31659 7.79492,-11.72656 3.14661,-8.38057 3.98919,-12.16265 4.56055,-20.50586 0.7465,-10.90078 0.0152,-18.10483 -2.35547,-23.21289 -1.82393,-3.92999 -1.82716,-4.802 -0.0215,-6.30078 1.62114,-1.34543 2.4758,1.07188 4.58007,12.95117 0.63326,3.575 1.61128,7.7239 2.17383,9.2207 0.56255,1.4968 1.00638,6.6718 0.98438,11.5 -0.0335,7.34724 -0.43696,9.51301 -2.47071,13.2793 -2.72273,5.04222 -11.04761,17.59997 -13.38281,20.1875 -1.65323,1.83186 -1.03875,3.8125 1.18164,3.8125 1.1262,0 10.01165,6.74294 15.10938,11.46484 0.61498,0.56965 4.18016,3.51016 7.92187,6.53516 3.74171,3.025 7.51546,6.175 8.38672,7 0.87126,0.825 5.10449,3.69126 9.40625,6.36914 4.30175,2.67788 8.97753,5.94038 10.39063,7.25 1.41311,1.30962 3.06664,2.38372 3.67382,2.38672 0.60719,0.003 2.45352,1.14837 4.10352,2.54687 2.38853,2.02446 1.26751,1.68089 -5.5,-1.6875 -12.75575,-6.34892 -24.36321,-14.5085 -41.11133,-28.89648 C 214.58605,296.83593 207.45823,291 207.05078,291 c -1.49498,0 -4.39436,4.05431 -3.47656,4.86133 0.5095,0.44801 3.85078,3.01633 7.42578,5.70703 3.575,2.69071 7.175,5.612 8,6.49219 5.74069,6.12476 24.55999,20.69834 33.5,25.9414 4.67657,2.74268 4.524,2.48487 -1.5,-2.5332 -5.71793,-4.76311 -3.89928,-4.19416 14.25391,4.46094 8.99524,4.28875 14.49548,6.40384 14.92382,5.73828 1.10747,-1.72083 5.82227,0.9599 5.82227,3.31055 0,1.11179 -0.3375,2.01576 -0.75,2.00976 -2.80406,-0.0405 -22.14168,-7.31533 -26,-9.78125 -1.2375,-0.79091 -2.25,-1.01958 -2.25,-0.50976 0,1.45517 5.96959,5.49765 9.39648,6.36328 2.7067,0.68372 12.0667,4.264 18.10352,6.92383 1.61414,0.71113 1.32474,0.8616 -1.5,0.7871 -7.09463,-0.18721 -10.25405,-0.97319 -14.89062,-3.70703 -2.60985,-1.53881 -6.29066,-3.53132 -8.17969,-4.42773 -1.88904,-0.8964 -7.34988,-4.66835 -12.13477,-8.38281 -4.78489,-3.71445 -11.75927,-8.88919 -15.49804,-11.49805 -3.73879,-2.60886 -8.39458,-6.20886 -10.34766,-8 -8.28596,-7.59893 -19.9467,-17.65571 -21.44141,-18.49219 -1.83955,-1.02947 -5.46433,-13.87373 -5.49023,-19.45508 -0.0168,-3.60918 -1.32907,-5.73172 -2.43555,-3.9414 -0.51502,0.83331 0.85206,15.02095 1.89649,19.68359 0.25258,1.12758 3.28563,4.3813 6.74023,7.23047 8.59938,7.09227 25.23709,23.24774 20.28125,19.69336 -2.2,-1.57786 -6.51046,-5.03056 -9.57812,-7.67188 C 208.8542,309.16141 205.9476,307 205.46094,307 c -1.81669,0 19.66331,20.48199 26.47851,25.24805 1.34181,0.93836 2.18185,1.96268 1.86719,2.27734 -0.31466,0.31466 -2.6272,-1.13705 -5.14062,-3.22656 -2.51342,-2.08951 -6.79959,-5.48553 -9.52344,-7.54688 -2.72385,-2.06136 -9.68907,-8.03061 -15.47852,-13.26562 -6.37722,-5.7665 -10.79273,-9.08591 -11.20312,-8.42188 -0.37257,0.60282 0.38256,1.82833 1.67968,2.72461 1.29715,0.89628 4.38438,3.59378 6.85938,5.99414 l 4.5,4.36524 -6.14453,-4.6543 -6.14453,-4.65234 -3.85547,2.46093 c -2.12029,1.35341 -4.98047,3.45717 -6.35547,4.67579 -4.00979,3.55378 -9.62711,6.0206 -13.71094,6.02148 -3.99434,8.6e-4 -17.88639,2.6437 -19.71484,3.75 -0.59033,0.35717 0.16328,-0.98631 1.67578,-2.98438 3.61438,-4.77474 3.49958,-5.85836 -0.24023,-2.27539 -1.64426,1.5753 -3.24631,2.6072 -3.56055,2.29297 -0.31423,-0.31424 0.42193,-3.83905 1.63476,-7.83203 1.67411,-5.51162 1.94192,-7.68017 1.11524,-9.0039 -0.87567,-1.40217 -0.72161,-1.83933 0.78906,-2.23438 1.26734,-0.33142 2.0849,-1.74684 2.50977,-4.35156 0.34638,-2.1235 1.09113,-4.98596 1.65625,-6.35938 1.20864,-2.93735 4.8457,-19.5592 4.8457,-22.14648 0,-1.69178 -3.66487,-4.52458 -4.61914,-3.57031 -0.41799,0.41798 -4.15394,20.165 -4.86524,25.71484 -0.17622,1.375 -0.77827,4.525 -1.33593,7 -1.35498,6.01367 -1.84807,8.23822 -3.68946,16.60938 -1.79787,8.17333 -2.88585,9.89415 -6.83593,10.81445 -2.8051,0.65355 -2.83626,0.60869 -2.30664,-3.13086 2.80874,-19.83209 2.97337,-23.45739 1.77734,-38.99024 -1.68267,-21.85284 -6.95019,-43.42303 -11.85352,-48.54101 -2.3872,-2.4917 -2.45655,-2.76375 -0.70898,-2.77734 1.0654,-0.008 3.7375,-0.64 5.9375,-1.4043 3.17713,-1.10375 4.47249,-2.3344 6.29688,-5.98438 1.26329,-2.52743 2.61329,-4.59569 3,-4.5957 0.38668,0 0.70312,9.20172 0.70312,20.44922 0,15.02664 0.3315,20.78266 1.25,21.70117 1,1.00002 1.27444,-0.94116 1.36914,-9.70117 0.0652,-6.0225 0.0346,-11.37435 -0.0664,-11.89453 -0.10098,-0.52017 -0.16718,-6.59517 -0.14648,-13.5 0.0207,-6.90482 -0.42078,-17.72969 -0.98242,-24.05469 -0.56164,-6.325 -0.99263,-12.7375 -0.95703,-14.25 0.0692,-2.93986 -0.94151,-3.36946 -4.03321,-1.71484 -1.75708,0.94037 -1.79944,1.24037 -0.46093,3.2832 1.81465,2.76951 3.66624,15.13091 2.66992,17.82422 -0.71794,1.94078 -0.757,1.94176 -2.45899,0.0605 -0.95152,-1.05142 -2.51946,-4.15459 -3.48437,-6.89453 -0.9649,-2.73994 -2.55634,-6.20627 -3.53711,-7.70312 -0.98077,-1.49684 -1.64363,-3.93329 -1.47266,-5.41406 0.29512,-2.55602 0.66491,-2.72885 7.31055,-3.41407 3.85,-0.39697 7.87982,-0.84697 8.95508,-1 z m 7.25586,0.48047 c 0.23561,-0.0303 0.55509,0.0775 0.97461,0.25781 0.99801,0.42886 4.80747,1.55842 8.46484,2.50977 9.07351,2.36017 11.50934,4.36029 12.15234,9.97461 0.28346,2.475 0.33404,4.68527 0.11133,4.91211 -1.04598,1.0654 -5.29765,-2.05796 -5.58789,-4.10547 C 168.64634,195.53807 167.825,194.5 167,194.5 c -2.37675,0 -1.35033,4.68419 1.5957,7.28125 l 2.58789,2.28125 -4.26562,-0.28125 c -4.87318,-0.32092 -6.77073,-1.79702 -7.5918,-5.90234 C 159.00943,196.29521 158.12603,195 157.36328,195 c -1.05897,0 -1.23486,0.95077 -0.74414,4.01953 0.54774,3.42545 0.40588,3.92672 -0.96094,3.40235 -1.67143,-0.64138 -2.15482,-2.66183 -3.17578,-13.30274 -0.42468,-4.42624 -0.47831,-5.77037 0.22852,-5.86133 z M 133.11719,190 c -0.55,0 -1.27727,0.45 -1.61719,1 -0.33992,0.55 -0.16719,1 0.38281,1 0.55,0 1.27727,-0.45 1.61719,-1 0.33992,-0.55 0.16719,-1 -0.38281,-1 z m 51.53515,15.33008 c 0.94432,-0.0417 1.87113,-0.0368 2.7168,0.0195 1.12756,0.0751 2.11285,0.24289 2.80859,0.51172 2.30793,0.89177 2.5763,1.41213 1.94532,3.77148 -0.40262,1.50543 -1.15773,2.853 -1.67774,2.99414 -0.52001,0.14113 -4.02908,-0.9115 -7.79883,-2.33789 -5.06819,-1.9177 -6.45491,-2.8173 -5.32226,-3.45117 1.49722,-0.83788 4.49518,-1.38275 7.32812,-1.50781 z m 16.25977,5.05469 c 0.95144,0.0671 2.31755,2.25634 2.75391,4.94531 0.47597,2.93306 0.27722,3.66992 -0.99024,3.66992 -1.53937,0 -3.3254,-5.5927 -2.52734,-7.91406 0.17513,-0.50942 0.44652,-0.72355 0.76367,-0.70117 z M 152.58398,214 c -0.77916,0 -1.61993,0.5625 -1.86718,1.25 -0.4386,1.21959 0.0719,7.00234 0.83789,9.5 0.21085,0.6875 0.84679,1.25 1.41406,1.25 0.59391,0 1.03125,-2.54495 1.03125,-6 0,-4.5098 -0.3512,-6 -1.41602,-6 z m 62.21875,0.15234 c 1.87076,-0.44728 3.09197,1.53166 2.45313,3.97461 -0.84737,3.24034 -2.14045,3.09446 -3.04492,-0.34179 -0.67428,-2.56173 -0.54433,-3.36119 0.59179,-3.63282 z m 32.22461,1.78125 C 247.0254,215.95892 247,215.9742 247,216 c 0,0.0227 0.0219,0.0363 0.0234,0.0586 4.6e-4,-0.0417 0.003,-0.0833 0.004,-0.125 z m -60.5957,13.19532 c -1.42191,-0.0122 -3.17522,0.0231 -5.38867,0.0859 -5.84055,0.16589 -10.05464,0.70412 -10.05664,1.28516 -0.002,0.56081 4.281,1.24464 9.7539,1.55664 5.36736,0.30599 11.05787,0.64349 12.64454,0.75 l 2.88476,0.19336 -2.58789,-2.03516 c -1.70948,-1.34467 -2.98427,-1.79932 -7.25,-1.83593 z m 1.18164,6.63476 c -2.38315,-0.0933 -5.11089,-0.0128 -8.4082,0.18164 -10.45102,0.61619 -11.37414,0.84205 -14.10156,3.45508 -3.09515,2.96534 -7.46763,11.93313 -8.45899,17.34961 -0.74013,4.0438 -0.24282,4.11339 1.7832,0.25 0.86528,-1.65 2.23667,-4.26313 3.04883,-5.80664 3.62459,-6.88854 7.88295,-10.43469 14.57422,-12.13867 7.85928,-2.00142 17.56583,-1.11231 19.94922,1.82812 1.47566,1.82055 13.13383,8.11719 15.0293,8.11719 2.34393,0 0.53413,-2.17884 -5.08594,-6.12109 -7.12094,-4.99506 -11.18062,-6.83543 -18.33008,-7.11524 z m -7.51367,8.43555 c -1.13853,-0.37951 -1.25153,0.6864 -0.63086,5.91992 0.41625,3.50974 1.13625,10.65586 1.59961,15.88086 0.46336,5.225 1.45669,12.9875 2.20898,17.25 0.75225,4.2625 1.11011,7.75765 0.79493,7.76562 -0.31518,0.008 0.10273,0.45122 0.92773,0.98438 2.74711,1.77532 3.23408,1.03896 2.47656,-3.75 -0.41325,-2.6125 -1.9312,-13.48775 -3.37109,-24.16797 -1.87131,-13.88034 -3.01355,-19.55204 -4.00586,-19.88281 z m -82.546876,3.82617 C 97.18111,248.09426 97,248.42066 97,249 c 0,0.55 0.416136,1 0.923828,1 1.955155,0 6.587272,5.84404 6.820312,8.60352 1.7703,20.96227 0.49632,41.93426 -3.57812,58.89648 -2.580252,10.74156 -2.571724,10.58872 -0.54493,9.87109 1.53889,-0.54486 1.65287,-0.42193 0.62891,0.68164 -0.6875,0.74095 -1.25,1.93149 -1.25,2.64649 0,0.715 0.5798,1.30078 1.28906,1.30078 2.18721,0 13.49688,-22.32628 13.66016,-26.9668 0.0465,-1.32101 -6.35442,7.80854 -7.28906,10.39649 -0.21252,0.58843 -0.74332,0.73699 -1.17969,0.33008 -0.43637,-0.4069 -0.11525,-4.9069 0.71289,-10 0.99276,-6.10549 1.44888,-15.16432 1.33984,-26.5918 -0.16042,-16.8129 -0.11297,-17.26216 1.61524,-15 0.97986,1.28261 2.29104,3.68203 2.91211,5.33203 0.62107,1.65 1.73133,4.575 2.46875,6.5 1.71402,4.4744 3.2876,11.97057 4.01172,19.11523 0.48504,4.78578 0.94763,5.7858 3.13671,6.78321 2.47702,1.12861 2.54635,1.07258 1.92774,-1.61328 C 124.25271,298.75357 123.5446,294.575 123.0332,291 121.76978,282.168 118.4181,271.706 115.45117,267.33398 114.10288,265.34717 113,263.10156 113,262.3457 c 0,-0.75586 -3.0375,-4.28755 -6.75,-7.84961 -4.75741,-4.56461 -7.582394,-6.6773 -8.697266,-6.4707 z M 35.626953,259.03125 C 36.247109,259.01376 37.315311,259.675 38,260.5 c 1.580792,1.90474 0.935072,1.91797 -1.558594,0.0312 -1.067622,-0.8075 -1.434608,-1.4825 -0.814453,-1.5 z m 30.322266,2.17187 c 2.778159,0.0215 4.96132,0.1212 5.876953,0.29297 3.297234,0.61856 3.323121,0.66506 2.599609,4.81446 C 74.023946,268.61511 73.426099,273.2 73.097656,276.5 l -0.597656,6 -13,0.19531 c -7.15,0.10741 -17.64347,0.37335 -23.318359,0.58985 -10.292278,0.39266 -10.316807,0.38726 -9.751953,-1.86328 0.312398,-1.24471 0.07289,-2.42036 -0.535157,-2.62305 -1.255168,-0.41839 1.638836,-6.03942 5.898438,-11.45508 2.023495,-2.57267 3.293934,-3.33368 5.035156,-3.01563 1.306767,0.2387 2.543681,-0.13108 2.816406,-0.84179 0.548485,-1.42933 0.46049,-1.41811 16.853516,-2.10938 3.299506,-0.13914 6.673012,-0.19532 9.451172,-0.17383 z m 151.380861,30.87305 c 0.65333,-0.16599 2.4976,1.22357 6.01758,4.46289 2.66571,2.45316 4.68314,4.46094 4.48437,4.46094 -0.84265,0 -10.72704,-7.56639 -10.77734,-8.25 -0.0288,-0.39033 0.0576,-0.6185 0.27539,-0.67383 z m 59.87695,0.66602 c 5.98105,0.10961 7.79297,1.72534 7.79297,6.94922 0,2.00077 -0.49416,3.29263 -1.25,3.26953 -1.56551,-0.0478 -11.99318,-8.41629 -11.84961,-9.50977 0.0581,-0.44277 2.44625,-0.76138 5.30664,-0.70898 z M 253.79492,293 c 0.57151,0 1.18776,0.3433 1.3711,0.76172 0.44955,1.026 13.53212,10.74329 23.08398,17.14648 4.2625,2.85741 7.75,5.62081 7.75,6.14258 0,1.81416 -1.56348,0.86239 -12.5,-7.61328 -6.05,-4.68868 -12.58258,-9.56953 -14.51562,-10.8457 C 254.97604,295.94559 252.24295,293 253.79492,293 Z m -9.49414,0.18555 c 1.96674,-0.23186 4.1549,0.89189 8.27734,4.25 3.08236,2.51087 5.94831,4.56445 6.36719,4.56445 0.41888,0 5.76938,3.56779 11.89063,7.92773 6.12126,4.35994 12.07855,8.22763 13.23828,8.59571 1.56954,0.49814 1.9613,1.21927 1.53125,2.82226 -0.31778,1.18448 -0.5838,2.7168 -0.5918,3.4043 -0.019,1.74475 -0.7185,1.57317 -7.44531,-1.83203 -13.81256,-6.9921 -37.18023,-22.8407 -38.40234,-26.04492 -0.73042,-1.91507 2.95249,-0.70861 6.04882,1.98047 9.59269,8.33098 34.50924,23.54607 37.56836,22.9414 1.5845,-0.31319 -4.16187,-4.27298 -12.61328,-8.6914 -4.30952,-2.25303 -13.11673,-8.12504 -21.10547,-14.07032 -6.8458,-5.09471 -7.22506,-5.55747 -4.76367,-5.84765 z m 15.95899,0.16992 c 0.0549,-0.12992 0.41337,-0.0348 1.09961,0.22851 0.90278,0.34643 1.64062,1.03228 1.64062,1.52344 0,1.28596 -0.5794,1.10438 -2.01953,-0.63086 -0.52839,-0.63667 -0.77563,-0.99117 -0.7207,-1.12109 z m -34.37305,0.80664 c 1.3128,-0.18562 2.6628,0.0929 3,0.61914 0.3372,0.52622 3.98828,3.67785 8.11328,7.00195 4.125,3.3241 8.85,7.19073 10.5,8.59375 1.65,1.40301 2.48569,2.56809 1.85742,2.58789 -0.62827,0.0198 -6.70327,-4.12734 -13.5,-9.21484 -10.33853,-7.73861 -11.9676,-9.30554 -9.9707,-9.58789 z m 45.00781,4.82422 c 0.2877,-0.0759 1.65893,0.69618 4.33203,2.39844 3.14983,2.00585 6.86233,4.07983 8.25,4.60742 1.55081,0.58962 2.52344,1.73789 2.52344,2.98242 0,1.11361 -0.17613,2.02539 -0.39062,2.02539 -0.87025,0 -12.24872,-8.85378 -14.10938,-10.97852 -0.56011,-0.6396 -0.77809,-0.9896 -0.60547,-1.03515 z m -33.57617,0.32226 c 0.21601,0.0378 0.9097,0.50178 2.18164,1.40821 1.65,1.17583 4.575,3.50209 6.5,5.16992 1.925,1.66782 3.275,3.03787 3,3.04687 -0.91169,0.0289 -9.4739,-6.57207 -11,-8.48047 -0.63598,-0.79527 -0.89765,-1.18228 -0.68164,-1.14453 z m -39.04492,1.08399 c -0.27725,0.27726 0.78537,1.61428 2.36133,2.9707 3.73216,3.21223 4.5142,2.43191 0.91015,-0.9082 -1.52241,-1.41093 -2.99422,-2.33975 -3.27148,-2.0625 z M 216,302.30664 c 0,-0.33655 2.5875,1.85283 5.75,4.86524 3.1625,3.01238 9.575,8.30379 14.25,11.75781 4.675,3.45402 8.65061,6.68348 8.83398,7.17578 0.49829,1.33804 -0.0385,1.06788 -3.33398,-1.67383 -1.65,-1.37273 -5.01376,-3.84632 -7.47461,-5.49805 C 229.51094,315.90347 216,303.44034 216,302.30664 Z m 16,1.98828 c 0,-0.29643 0.87123,0.0794 1.93555,0.83399 5.23263,3.70986 16.15458,10.91052 21.06445,13.88867 3.025,1.83486 6.4,4.10559 7.5,5.04492 1.1,0.93933 3.05463,2.02826 4.34375,2.41992 1.28912,0.39166 4.22371,1.9805 6.52148,3.53125 2.29778,1.55075 6.08064,3.5812 8.40625,4.51172 2.3256,0.93052 4.22852,2.3187 4.22852,3.08399 0,3.44103 -4.64387,1.30834 -21.125,-9.69532 -1.30588,-0.87188 -5.525,-3.55603 -9.375,-5.96484 -7.35123,-4.59941 -23.5,-16.73095 -23.5,-17.6543 z m 43.5,1.20508 2.25,1.9043 c 1.2375,1.04774 2.25,2.06024 2.25,2.25 0,0.80025 -0.80548,0.21014 -2.5957,-1.9043 z m -146.67773,1.92773 c -0.68598,-0.2839 -3.56344,3.62359 -6.9668,9.57227 -1.73066,3.025 -3.80694,6.5125 -4.61524,7.75 -2.35804,3.61014 0.31322,2.61577 3.5625,-1.32617 3.1761,-3.85315 8.21209,-13.46913 8.17579,-15.61133 -0.004,-0.21787 -0.0583,-0.34421 -0.15625,-0.38477 z M 193.31641,309 c 1.30044,0 8.61141,6.1999 24.18359,20.50586 7.09866,6.52145 13.9399,12.19937 23.11914,19.18945 2.50824,1.91006 2.62167,2.19786 0.88086,2.22266 -1.1,0.0157 -3.60362,-1.42269 -5.56445,-3.19531 -1.96083,-1.77262 -6.0095,-5.24766 -8.9961,-7.72266 -2.98659,-2.475 -9.03297,-7.67501 -13.43554,-11.55469 C 209.10134,324.56563 202.4625,319.01349 198.75,316.10547 192.14728,310.93352 190.6693,309 193.31641,309 Z m 56.84375,0.33789 c -0.0219,-0.13087 0.49375,0.10833 1.5332,0.61133 1.20687,0.58402 2.47246,1.5096 2.81055,2.05664 0.98306,1.59061 -0.0948,1.15687 -2.64258,-1.0625 -1.11831,-0.97416 -1.67927,-1.4746 -1.70117,-1.60547 z M 284.44141,312 c 0.85746,0 1.55859,0.45 1.55859,1 0,0.55 -0.42387,1 -0.94141,1 -0.51754,0 -1.21867,-0.45 -1.55859,-1 -0.33992,-0.55 0.084,-1 0.94141,-1 z m -212.558598,1 c -1.878281,0 -1.965299,0.49553 -1.476562,8.25 0.285982,4.5375 0.548665,10.05 0.585938,12.25 0.05756,3.39738 0.232928,3.71652 1.164062,2.11328 1.116243,-1.92196 2.951578,-20.49602 2.160156,-21.86328 C 74.077635,313.3375 72.981882,313 71.882812,313 Z m 119.761718,3.54102 c 3.3232,0.0852 8.54264,3.74436 16.11133,11.26757 3.1494,3.13048 6.92999,6.59141 8.40039,7.69141 8.04672,6.01974 10.35697,8.16934 10.48242,9.75 0.18107,2.28154 -0.90457,2.21774 -3.07422,-0.17969 -0.96024,-1.06106 -3.27603,-2.65538 -5.14648,-3.54297 -2.0431,-0.96951 -3.64711,-2.59423 -4.01758,-4.07031 C 214.06122,336.10568 213.227,335 212.54688,335 c -0.68013,0 -1.98558,-0.82703 -2.9004,-1.83789 -0.91482,-1.01087 -6.21817,-4.92924 -11.78515,-8.70703 -9.6224,-6.52981 -9.99288,-6.91188 -7.52539,-7.73438 0.39868,-0.13289 0.83385,-0.19185 1.30859,-0.17968 z m 77.51758,4.85742 c 0.32516,-0.0807 2.42966,0.86104 6.08789,2.88281 3.4375,1.89979 6.74466,3.27349 7.34961,3.05273 0.60496,-0.22077 1.67316,0.2895 2.37305,1.13282 2.6244,3.16221 -2.45933,1.43517 -11.22266,-3.8125 -3.45889,-2.07125 -4.91306,-3.17515 -4.58789,-3.25586 z m -82.49805,0.6875 c 1.30308,-0.38146 4.44554,0.81308 8.74219,3.40039 6.31567,3.8031 17.59375,13.17056 17.59375,14.61328 0,2.08443 -2.55046,0.56673 -7.69141,-4.57422 C 200.0216,330.2384 190.62898,324 187.95703,324 c -0.71449,0 1.00648,1.6875 3.82422,3.75 2.81774,2.0625 8.40819,6.57868 12.42187,10.03711 C 217.51145,349.25432 218.42716,350 219.2168,350 c 1.3436,0 0.88417,-0.82775 -2.2168,-4 -6.19666,-6.33909 -1.37343,-5.07199 6,1.57617 1.375,1.23975 3.625,2.45626 5,2.70313 1.375,0.24686 -0.90954,0.50908 -5.07617,0.58398 -6.96526,0.12521 -7.77102,-0.0728 -10,-2.4707 C 211.59046,346.95816 205.55,342.0302 199.5,337.44336 184.09821,325.76643 182.10538,324.01186 184.25,324.00586 185.2125,324.00313 186,323.55 186,323 c 0,-0.4839 0.2297,-0.78691 0.66406,-0.91406 z m 29.62891,2.28906 c 0.18125,-0.0799 0.43203,-0.045 0.70703,0.125 0.55,0.33992 1,0.81605 1,1.05859 0,0.24254 -0.45,0.44141 -1,0.44141 -0.55,0 -1,-0.47613 -1,-1.05859 0,-0.29123 0.11172,-0.48648 0.29297,-0.56641 z M 229,325.34961 c 0,-0.83027 11.0318,6.5773 14.56445,9.7793 1.13545,1.02917 2.49002,1.87109 3.00977,1.87109 0.51976,0 1.5008,0.88947 2.17969,1.97656 0.6789,1.08708 3.14932,2.94797 5.49023,4.13477 2.3409,1.1868 4.52226,2.57103 4.84766,3.07617 0.32539,0.50515 1.99538,1.09538 3.71093,1.3125 1.71555,0.21712 4.31888,1.02276 5.78516,1.79102 1.74551,0.91456 2.19049,1.54392 1.28906,1.82226 -3.24976,1.00347 -8.45677,-0.50258 -13.24023,-3.83203 C 250.18015,342.78727 229,325.97878 229,325.34961 Z m -46.63867,1.96484 c 0.80863,0.0724 3.21042,1.93164 9.47851,7.11524 4.03682,3.33837 9.6262,7.87031 12.41993,10.07031 2.79372,2.2 5.26439,4.5625 5.49218,5.25 1.03838,3.134 -1.59467,1.28645 -13.65625,-9.58008 -4.07215,-3.66868 -8.90965,-7.75474 -10.75,-9.08008 C 183.50534,329.7645 182,328.27587 182,327.78125 c 0,-0.31602 0.0918,-0.49092 0.36133,-0.4668 z m 37.13867,0.33008 3.5,2.4043 c 1.925,1.322 6.65,4.8312 10.5,7.79883 3.85,2.96762 9.3625,6.91046 12.25,8.76172 2.8875,1.8512 5.25,3.59707 5.25,3.8789 0,2.70275 -22.60845,-12.93346 -29,-20.05664 z m 116.5,2.04297 -16.14844,0.63477 c -11.08267,0.43632 -16.65062,1.05079 -17.75,1.95703 -0.88102,0.72626 -3.32108,2.19677 -5.42383,3.26953 -5.63165,2.87309 -6.393,4.16706 -3.2832,5.58398 2.0953,0.95468 2.93673,0.90337 4.35156,-0.26758 4.67682,-3.8707 30.25391,-8.04666 30.25391,-4.93945 0,0.56405 1.6875,1.91703 3.75,3.00586 4.94703,2.6116 3.71435,2.60259 -2.20508,-0.0156 -6.75352,-2.9874 -6.68424,-1.68877 0.12891,2.41601 3.2049,1.93088 5.93867,3.54643 6.07617,3.58985 0.1375,0.0434 0.25,-1.45303 0.25,-3.32422 0,-2.90837 -0.47172,-3.58821 -3.25,-4.68555 l -3.25,-1.2832 3.25,-0.37891 c 2.73413,-0.31759 3.25,-0.78903 3.25,-2.9707 z m -154.25586,1.45703 c 0.18662,0.0163 0.45401,0.10176 0.80469,0.23633 0.88819,0.34083 1.80318,0.61914 2.0332,0.61914 0.23001,0 0.41797,0.64887 0.41797,1.44141 0,2.60182 -1.68379,2.54834 -2.88672,-0.0918 -0.76828,-1.68621 -0.92899,-2.25403 -0.36914,-2.20508 z M 282.5,332.03125 c 0.55,0 1.675,0.43559 2.5,0.96875 0.825,0.53316 1.05,0.96875 0.5,0.96875 -0.55,0 -1.675,-0.43559 -2.5,-0.96875 -0.825,-0.53316 -1.05,-0.96875 -0.5,-0.96875 z m -94.75,3.98242 c 0.4125,0.008 4.11243,3.15798 8.22266,7 7.13363,6.66815 8.96984,9.90727 2.38476,4.20703 -1.72866,-1.49638 -4.99116,-4.20879 -7.25,-6.02734 -3.78466,-3.04696 -5.19004,-5.21509 -3.35742,-5.17969 z m -8.21094,1.55469 c 1.62817,0.39203 3.68464,1.46203 4.56836,2.37695 0.88371,0.91492 4.58824,3.43932 8.23242,5.60938 3.64417,2.17006 6.63258,4.28281 6.64258,4.69531 0.0557,2.39274 -5.62157,-0.31412 -13.44336,-6.41016 -6.81633,-5.31242 -8.25198,-6.81371 -6,-6.27148 z m 61.08789,1.46289 c 0.62015,-0.0175 1.68836,0.64375 2.37305,1.46875 1.58079,1.90474 0.93508,1.91797 -1.55859,0.0312 -1.06762,-0.8075 -1.43462,-1.4825 -0.81446,-1.5 z m -168.810544,0.6875 c -0.70317,0.0783 -1.036151,0.41094 -1.273437,1.0293 -0.578747,1.50819 -4.609698,1.38481 -8.792969,-0.26953 -2.648894,-1.04755 -2.194248,1.82777 0.5,3.1621 2.657895,1.31636 6.133792,1.6416 7.109375,0.66602 0.381205,-0.3812 7.657508,-0.60981 16.167969,-0.50781 C 98.083566,343.94932 101,343.72568 101,342.60938 c 0,-2.04348 -3.198832,-2.52749 -12.837891,-1.94141 -4.764152,0.28968 -10.547581,0.0864 -12.851562,-0.45117 -1.717752,-0.40076 -2.79097,-0.57631 -3.494141,-0.49805 z m 96.556644,0.30469 c 1.7058,-0.0474 13.65641,9.12112 13.08789,10.04101 -0.31807,0.51464 -0.88949,0.91789 -1.26953,0.89649 -1.07776,-0.0608 -12.80091,-10.9102 -11.81836,-10.9375 z m 7.06445,1.20508 c 0.5939,-0.59391 13.5625,7.9971 13.5625,8.98437 0,1.29663 -1.66726,0.89186 -3.01367,-0.73047 -0.69246,-0.83436 -3.4468,-2.93508 -6.1211,-4.66797 -2.6743,-1.73289 -4.66722,-3.34644 -4.42773,-3.58593 z M 162,342 c 0.55,0 1,0.45 1,1 0,0.55 -0.45,1 -1,1 -0.55,0 -1,-0.45 -1,-1 0,-0.55 0.45,-1 1,-1 z m 144.5,1 c -1.49071,0 -2.35191,0.4306 -2,1 0.33992,0.55 1.23992,1 2,1 0.76008,0 1.66008,-0.45 2,-1 0.35191,-0.5694 -0.50929,-1 -2,-1 z m -60.20703,0.375 c 0.18125,-0.0799 0.43203,-0.045 0.70703,0.125 0.55,0.33992 1,0.81605 1,1.05859 0,0.24254 -0.45,0.44141 -1,0.44141 -0.55,0 -1,-0.47613 -1,-1.05859 0,-0.29123 0.11172,-0.48648 0.29297,-0.56641 z m 72.75781,0.61719 c -2.40896,0.0134 -0.0101,1.58041 7.44922,4.86523 7.22147,3.18006 9.5,3.73696 9.5,2.32422 0,-0.93929 -14.76373,-7.20165 -16.94922,-7.18945 z m -153.4414,0.125 c 0.30206,-0.2014 1.4838,0.39127 3.39062,1.88281 1.375,1.07554 3.26137,1.96629 4.19141,1.97852 0.93004,0.0122 1.96867,0.47148 2.30859,1.02148 0.35722,0.578 -0.59394,1 -2.25391,1 -1.88566,0 -3.85895,-1.03025 -5.74609,-3 -1.61523,-1.68594 -2.19275,-2.68141 -1.89062,-2.88281 z m -38.91993,0.0254 c 0.50914,0.0331 1.46423,0.56044 2.56446,1.5625 1.23533,1.1251 3.25859,2.567 4.49609,3.20508 1.2375,0.63808 2.25,1.59435 2.25,2.125 0,0.53065 -0.41603,0.96484 -0.92383,0.96484 -0.97254,0 -7.08341,-4.76915 -8.27148,-6.45508 -0.68721,-0.97518 -0.62437,-1.43547 -0.11524,-1.40234 z M 228.5,344.6582 l 3.2207,2.21875 c 1.77087,1.21939 3.4845,2.64552 3.8086,3.16993 1.35695,2.19558 -1.37552,0.71534 -4.0918,-2.2168 z m -107.94531,1.3711 c 1.73521,0.0261 8.44531,5.15671 8.44531,6.45703 0,1.73871 -4.12696,-0.0221 -7,-2.98633 -2.86645,-2.95743 -3.08978,-3.4955 -1.44531,-3.4707 z m 41.24414,1.10547 c 0.48127,0.0338 1.24212,0.4765 1.93945,1.17382 1.55894,1.55895 1.56116,1.69141 0.0352,1.69141 -1.82294,0 -3.33379,-1.77362 -2.34961,-2.75781 0.0858,-0.0858 0.21457,-0.11869 0.375,-0.10742 z m 154.99219,0.44726 c -0.49635,-0.0322 -0.82826,0.0548 -1.0254,0.25195 -0.78852,0.78852 -0.42098,1.36266 1.32227,2.06641 1.32706,0.53573 5.78711,2.32597 9.91211,3.97852 7.82439,3.13458 9,3.47234 9,2.58789 0,-0.29335 -4.30797,-2.60155 -9.57227,-5.12891 -5.18645,-2.48998 -8.14767,-3.65942 -9.63671,-3.75586 z m -63.2793,1.89258 c 0.1678,-0.0701 0.49059,-0.0262 0.93555,0.14453 0.85357,0.32755 1.55273,0.77212 1.55273,0.98828 0,0.80991 -1.90493,0.35451 -2.49219,-0.5957 -0.17517,-0.28343 -0.16497,-0.46703 0.004,-0.53711 z m 60.0957,2.25 c -0.53552,-0.0138 -0.90768,0.1099 -1.18945,0.34375 -2.20461,1.82966 -1.73201,2.73078 2.58203,4.93164 4.3133,2.20048 5.02427,1.79431 2.25,-1.28516 -1.04029,-1.15473 2.1027,0.0774 7.75,3.03907 10.70155,5.61231 11.01688,5.7277 10.95898,3.99609 -0.023,-0.6875 -5.01021,-3.63702 -11.08203,-6.55469 -6.57861,-3.16122 -9.66297,-4.42925 -11.26953,-4.4707 z m -243.708982,0.51172 5.707031,1.88086 C 78.743535,355.15244 82.768046,356 84.548828,356 87.955144,356 89,357.29763 89,361.52344 c 0,3.21559 -0.927774,3.55114 -5.009766,1.81054 -3.795232,-1.61832 -10.975499,-1.98281 -26.490234,-1.34179 -8.48309,0.3505 -10.530918,0.12296 -13.5,-1.50391 l -3.5,-1.91797 7.958984,-0.82422 c 4.37721,-0.45263 10.991621,-1.87664 14.699219,-3.16601 z m 237.416012,6.19726 c -2.03127,0.77947 -1.55642,2.35778 0.93555,3.10938 2.54558,0.76777 6.61121,2.40817 11.75,4.74023 3.17184,1.43944 6.94523,2.28656 5.91602,1.32813 -2.0353,-1.8953 -17.58573,-9.56755 -18.60157,-9.17774 z m 15.12696,1.79102 c -0.68754,0.68753 7.22217,5.77539 8.97851,5.77539 0.80434,0 1.74016,0.45 2.08008,1 0.72114,1.16683 2.50109,1.34515 2.49609,0.25 -0.005,-0.96926 -12.91793,-7.66215 -13.55468,-7.02539 z m -182.71875,6.82617 c -0.47798,0 -0.61375,0.31642 -0.22266,0.94922 0.33992,0.55 1.37855,0.9928 2.30859,0.98438 1.45727,-0.0132 1.4841,-0.14898 0.19141,-0.98438 -0.97919,-0.6328 -1.79937,-0.94922 -2.27734,-0.94922 z m 194.63867,8.13867 c -0.85887,0.074 -1.79631,0.61445 -2.11133,1.56055 -0.24412,0.73318 0.44404,1.25 1.66602,1.25 1.22833,0 2.08398,-0.64659 2.08398,-1.57422 0,-0.91894 -0.77981,-1.31037 -1.63867,-1.23633 z" />
  </g>
</svg>
