<?xml version="1.0" encoding="UTF-8" standalone="no"?>
<!-- Created with Inkscape (http://www.inkscape.org/) -->

<svg
   version="1.1"
   id="svg2"
   width="336"
   height="385"
   viewBox="0 0 336 385"
   sodipodi:docname="28.svg"
   inkscape:version="1.1.2 (0a00cf5339, 2022-02-04)"
   xmlns:inkscape="http://www.inkscape.org/namespaces/inkscape"
   xmlns:sodipodi="http://sodipodi.sourceforge.net/DTD/sodipodi-0.dtd"
   xmlns="http://www.w3.org/2000/svg"
   xmlns:svg="http://www.w3.org/2000/svg">
  <defs
     id="defs6" />
  <sodipodi:namedview
     id="namedview4"
     pagecolor="#505050"
     bordercolor="#eeeeee"
     borderopacity="1"
     inkscape:pageshadow="0"
     inkscape:pageopacity="0"
     inkscape:pagecheckerboard="0"
     showgrid="false"
     inkscape:zoom="1.9454545"
     inkscape:cx="92.523364"
     inkscape:cy="172.96729"
     inkscape:window-width="1920"
     inkscape:window-height="1043"
     inkscape:window-x="0"
     inkscape:window-y="0"
     inkscape:window-maximized="1"
     inkscape:current-layer="g8" />
  <g
     inkscape:groupmode="layer"
     inkscape:label="Image"
     id="g8">
    <path
       id="path12"
       style="fill:#000000"
       d="m 26.541016,0.12304688 c -1.24067,0.11465582 -1.524111,0.43207341 -1.335938,0.99804692 0.296116,0.8906312 4.147993,1.9937218 10.876953,3.1152343 5.729815,0.9549855 11.19926,2.1924855 12.154297,2.75 C 49.191365,7.5438434 50.878865,8 51.986328,8 53.151649,8 54,8.6632102 54,9.5742188 c 0,1.2341312 1.025983,1.5379552 4.75,1.4101562 2.6125,-0.08965 4.975,-0.09843 5.25,-0.01953 2.947411,0.845647 9.472635,0.419943 10.583984,-0.691406 1.057288,-1.0572906 1.846895,-1.1131778 3.470704,-0.244141 1.155962,0.618653 2.727778,0.885129 3.492187,0.591797 0.764409,-0.293331 1.659616,-0.0955 1.990234,0.439453 0.330618,0.534951 1.06939,0.682374 1.642579,0.328125 1.907791,-1.179081 9.253468,-1.273368 10.623046,-0.136719 1.001441,0.831125 1.537875,0.814802 2.080078,-0.0625 0.979659,-1.5851168 6.050788,0.704502 6.224608,2.810547 0.0838,1.015273 0.27665,0.909964 0.5957,-0.324219 0.27722,-1.072133 1.05424,-1.599958 1.88477,-1.28125 0.7769,0.298122 1.41211,0.09115 1.41211,-0.460937 0,-0.666165 0.62204,-0.671534 1.84766,-0.01563 1.2583,0.673421 2.20019,0.633794 2.95703,-0.123047 0.81442,-0.814418 1.52151,-0.768585 2.65234,0.169922 1.14175,0.947569 1.54297,0.970639 1.54297,0.08984 0,-1.592158 4.10865,-0.349722 5.75,1.738281 0.6875,0.874585 1.25,1.124703 1.25,0.55664 C 124,13.264662 130.44766,11 133.53711,11 c 0.99288,0 2.67483,0.7875 3.73828,1.75 1.43095,1.295111 3.79219,1.778127 9.08008,1.859375 3.92986,0.06039 8.29248,0.578582 9.69531,1.150391 2.52097,1.027565 7.94914,0.599078 7.94922,-0.626954 5e-5,-0.684976 9.71209,-1.218934 19.75,-1.085937 3.49044,0.04625 6.25,-0.350581 6.25,-0.900391 0,-0.625859 1.18391,-0.66308 3.25,-0.09961 1.7875,0.487498 4.15,0.868753 5.25,0.845703 1.1,-0.02305 5.375,0.197316 9.5,0.490234 27.09137,1.923767 55.03793,2.582964 56.71094,1.337891 0.72392,-0.538749 2.53452,-0.510037 4.5,0.07031 1.80878,0.534097 5.08906,1.013916 7.28906,1.066406 2.2,0.05249 6.36564,0.281762 9.25781,0.509766 2.89218,0.228002 5.51198,0.0067 5.82031,-0.492188 0.30834,-0.498883 1.00637,-0.630646 1.55274,-0.292969 0.54638,0.337678 8.72852,0.75666 18.18164,0.931641 9.45313,0.174981 18.27494,0.731682 19.60352,1.236328 3.63035,1.378945 5.08398,1.116823 5.08398,-0.916016 0,-1.50237 -0.8575,-1.85722 -4.75,-1.96289 -2.6125,-0.07092 -5.875,-0.237138 -7.25,-0.369141 -3.37629,-0.324129 -24.08262,-1.422191 -37,-1.962891 -9.97959,-0.417728 -23.35883,-0.751035 -85.5,-2.126953 -46.88143,-1.03804 -51.3384,-1.195284 -52.375,-1.8359371 -0.55715,-0.344338 -6.32518,-0.837656 -12.81836,-1.0976563 C 129.81345,8.2185353 120.675,7.726541 116,7.3867188 99.752513,6.2057011 97.41705,6.0830578 82.792969,5.6289062 74.704514,5.3777189 67.617014,4.8821232 67.042969,4.5273438 66.468924,4.1725642 66,4.3589469 66,4.9414062 66,5.5238657 65.325,6 64.5,6 63.675,6 63,5.325 63,4.5 63,2.5335887 59.56794,2.5746387 57.578125,4.5644531 55.705219,6.4373593 53.327087,5.5151436 54.958984,3.5488281 56.088909,2.1873514 52.176811,1.5999004 33.623047,0.34375 29.979707,0.09708401 27.781686,0.00839156 26.541016,0.12304688 Z M 179.48438,1.6289062 c -0.40967,6.434e-4 -0.81898,0.00891 -1.22852,0.015625 0.3958,0.2093767 0.84438,0.3197746 1.3125,0.3085938 -0.0325,-0.1067681 -0.0602,-0.215305 -0.084,-0.3242188 z M 331.01953,2.96875 c 0.0319,0.06437 0.0293,0.1050503 0.0645,0.171875 0.0119,-0.049631 0.026,-0.097646 0.0312,-0.1523438 -0.0319,-0.00623 -0.0637,-0.013237 -0.0957,-0.019531 z M 26.228516,6.1113281 C 24.673438,5.6852115 24.424618,9.2405313 23.046875,33.5 c -0.593476,10.45 -1.33685,20.570226 -1.652344,22.488281 -0.511576,3.110145 -0.71077,3.299442 -1.84375,1.75 C 18.852062,56.782726 17.992492,56 17.640625,56 c -1.210075,0 -0.639603,2.757459 0.822266,3.970703 1.174121,0.974434 1.457335,4.310651 1.425781,16.871094 C 19.867038,85.453546 19.389734,96.775 18.828125,102 c -0.561608,5.225 -1.148518,10.85 -1.304687,12.5 -0.156173,1.65 -0.58533,12.45 -0.953126,24 -0.367795,11.55 -0.845649,23.25 -1.060546,26 -0.214896,2.75 -0.68566,13.1 -1.046875,23 -0.361215,9.9 -0.804541,18.24169 -0.986329,18.53711 -0.808984,1.31468 -2.697911,34.4376 -3.105468,54.46289 -0.6345267,31.17739 -0.9203783,37.46183 -2.3222659,51 C 7.365393,318.1 6.6677899,329.125 6.5,336 6.3322101,342.875 5.701402,352.31403 5.0976562,356.97461 4.4939105,361.63518 4,365.79306 4,366.21484 c 0,0.42178 3.2625,0.51671 7.25,0.21094 9.976588,-0.76503 15.181309,-0.58022 30.25,1.07227 7.15,0.7841 16.491881,1.66584 20.759766,1.96093 4.267885,0.29509 9.892885,1.02156 12.5,1.61329 2.679254,0.6081 19.740191,1.24079 39.240234,1.45507 18.975,0.20851 35.85,0.57514 37.5,0.81641 1.65,0.24127 9.3,0.94107 17,1.55469 7.7,0.61361 15.575,1.38332 17.5,1.70898 6.28785,1.06373 10.47256,1.60242 12,1.54492 8.75861,-0.32966 22.39799,-0.0244 23.28125,0.52149 0.61446,0.37976 10.14003,0.79792 21.16797,0.92969 11.02794,0.13177 23.20078,0.48057 27.05078,0.77539 3.85,0.29482 17.35,0.82825 30,1.18554 12.65,0.3573 23.18685,0.82703 23.41602,1.04297 0.22916,0.21594 3.26666,0.39258 6.75,0.39258 5.66666,0 6.33398,-0.21053 6.33398,-2 0,-1.55028 -0.66669,-2 -2.96484,-2 -1.79533,0 -3.33924,-0.69029 -3.91407,-1.75 -0.52211,-0.9625 -2.6754,-2.62923 -4.78515,-3.70312 -2.10974,-1.07392 -7.53615,-4.09512 -12.0586,-6.71485 C 302.48802,361.16136 296,357.79684 296,358.39062 c 0,0.4729 8.35185,5.86125 22.96094,14.8125 l 9.46289,5.79688 -7.96289,-0.004 c -7.35339,-0.004 -8.38116,-0.26901 -13.46094,-3.46679 -3.025,-1.90427 -8.98613,-5.54077 -13.24805,-8.08203 -4.26192,-2.54126 -8.12733,-5.29657 -8.58984,-6.12305 -0.46252,-0.82647 -1.2514,-1.48233 -1.75195,-1.45703 -1.99345,0.101 -5.41016,-1.13422 -5.41016,-1.95508 0,-0.47925 0.72737,-2.69212 1.61719,-4.91602 1.56522,-3.91185 1.73606,-4.02072 5.25,-3.38867 1.99768,0.35932 5.88281,1.49332 8.63281,2.52149 2.75,1.02816 5.45,1.86346 6,1.85547 1.85647,-0.0275 -1.96614,-1.92563 -7.23828,-3.59376 -2.88093,-0.91153 -5.74913,-2.27165 -6.37305,-3.02343 -2.53663,-3.05645 6.7319,-0.79043 20.51563,5.01562 7.11206,2.99578 4.68869,1.06483 -4.73242,-3.76953 -10.33317,-5.30236 -12.37059,-7.403 -10.5586,-10.88672 0.63707,-1.22483 1.27376,-2.36618 1.41602,-2.53711 0.42329,-0.50859 24.5429,11.79951 30.16015,15.39063 8.35196,5.33941 13.31274,7.64667 13.30274,6.18945 -0.005,-0.69867 -3.04214,-2.84453 -6.75,-4.76953 -3.70786,-1.925 -8.99219,-4.88122 -11.74219,-6.56836 -2.75,-1.68714 -9.275,-5.2316 -14.5,-7.87695 -10.1527,-5.14019 -11.71357,-6.17317 -10.75977,-7.12696 0.61846,-0.61846 12.20367,5.02696 30.42383,14.82618 C 335.04024,351.9101 336,352.29814 336,350.65234 336,348.70899 289.40215,325.66188 286.83203,326.33398 284.68753,326.89478 282,325.0421 282,323.00391 c 0,-0.66707 0.79381,-0.88743 1.91602,-0.53125 1.05372,0.33444 2.20276,0.14633 2.55273,-0.41993 0.41569,-0.6726 1.39813,-0.53324 2.83398,0.4043 1.20882,0.78931 6.35402,3.03852 11.4336,4.99805 9.78076,3.77309 11.40717,4.59848 23.26367,11.81054 6.93733,4.21984 15.51577,7.84697 10.65234,4.50391 -12.29911,-8.45424 -21.55054,-13.3372 -37.15234,-19.60937 -14.37933,-5.78072 -20.70593,-9.05036 -20.2168,-10.44727 0.23367,-0.66733 1.20928,-1.07076 2.16992,-0.89648 3.28157,0.59536 0.50096,-1.75031 -3.49414,-2.94727 C 273.78207,309.21692 272,308.11428 272,307.41797 c 0,-0.93877 1.43735,-0.76043 5.5625,0.68945 3.05976,1.07542 6.32226,2.38636 7.25,2.91406 2.45005,1.39356 19.03397,8.55828 31.1875,13.47461 5.775,2.33609 12.1642,4.97671 14.19727,5.86719 2.31515,1.01402 3.92497,1.24766 4.30859,0.62695 0.33688,-0.54509 -0.0175,-0.99023 -0.78711,-0.99023 -0.76961,0 -4.05824,-1.31237 -7.30859,-2.91602 C 315.64583,321.77311 301.12354,315 300.50195,315 c -0.33666,0 -2.49932,-0.86095 -4.80664,-1.91211 -2.30733,-1.05117 -7.73915,-3.52617 -12.07031,-5.5 C 279.29383,305.61405 275.27866,304 274.70312,304 273.41318,304 270,300.99478 270,299.85938 c 0,-0.45673 2.3625,0.12296 5.25,1.2871 6.60485,2.66285 13.64995,5.40048 16.25,6.31446 l 2,0.70312 -2,-1.67383 c -1.1,-0.92058 -4.475,-2.87021 -7.5,-4.33203 l -5.5,-2.6582 8.17188,-0.28906 8.17382,-0.28906 11.82618,6.18164 c 6.50513,3.40054 12.95312,6.94963 14.32812,7.88671 4.78967,3.26424 14.26249,8.08125 14.8125,7.53125 0.80472,-0.80473 -0.67989,-1.99451 -6.3125,-5.05273 -2.75,-1.49312 -7.25,-4.16254 -10,-5.93359 -2.75,-1.77105 -7.36111,-4.52795 -10.24805,-6.12696 -2.88694,-1.59901 -5.24944,-3.2457 -5.25,-3.6582 -0.002,-1.35307 13.6497,-0.78419 17.99805,0.75 2.3383,0.825 4.63016,1.5 5.09375,1.5 0.46359,0 0.58416,-0.675 0.26758,-1.5 -0.46032,-1.19957 0.34699,-1.5 4.03125,-1.5 3.42844,0 4.60742,-0.38373 4.60742,-1.5 0,-1.26703 -2.36858,-1.50338 -15.25,-1.51758 -8.3875,-0.009 -22.77458,-0.29978 -31.9707,-0.64648 -12.80599,-0.48281 -17.07833,-0.33372 -18.25,0.63867 -1.24154,1.03039 -1.8432,1.01229 -3.19336,-0.10156 -1.51752,-1.2519 -1.60636,-1.02174 -1.00782,2.62695 0.36091,2.2 2.17977,8.05 4.04102,13 2.88927,7.68398 4.02395,9.49246 7.75781,12.36523 6.55412,5.04262 6.26283,6.06064 -1.625,5.67383 -3.64069,-0.17854 -6.7056,-0.48502 -6.81054,-0.68164 -0.10495,-0.19661 -1.70629,-3.20729 -3.55664,-6.6914 -1.85036,-3.48411 -5.37486,-8.20911 -7.83399,-10.5 -4.7467,-4.42195 -14.00309,-8.56679 -20.80078,-9.3125 -3.80917,-0.41786 -3.68989,-0.30134 2.5,2.43164 13.03736,5.75629 18.28918,9.12957 21.78711,13.99414 4.34825,6.04711 4.74423,7.12453 6.62305,18.01172 1.56514,9.0695 1.32275,13.15024 -1.30664,21.9746 C 265.73713,363.35128 261.08199,373 260.23633,373 259.4093,373 255.3788,371.06836 223.90234,355.59766 210.92342,349.21851 199.80742,344 199.20117,344 c -0.60625,0 -1.46251,-0.61474 -1.90234,-1.36523 -0.89891,-1.53382 -7.2484,-5.01917 -7.91992,-4.34766 -0.23886,0.23886 1.26628,1.71136 3.34375,3.27148 2.07747,1.56012 4.00234,3.09533 4.27734,3.41211 1.21559,1.40025 5.9286,3.88224 11,5.79297 5.57816,2.10167 7.83306,3.24483 22.97266,11.64649 8.63045,4.78943 22.07345,10.58984 24.54296,10.58984 1.47344,0 2.99597,1.82045 2.19336,2.62305 -0.83206,0.83207 -19.39685,-6.51184 -36.20898,-14.32422 -8.8,-4.08925 -16.9,-7.80916 -18,-8.26563 -15.46107,-6.41591 -20.61388,-9.26746 -19.93555,-11.0332 0.31693,-0.825 0.82563,-2.7375 1.13086,-4.25 0.77647,-3.84758 4.74705,-3.65299 13.71289,0.66992 3.90021,1.88051 7.7668,3.67619 8.5918,3.99219 0.825,0.31599 2.175,0.99713 3,1.51172 2.08662,1.30149 10.48753,5.07617 11.29688,5.07617 0.82248,0 14.89098,6.60798 28.0664,13.18359 5.4248,2.70742 10.11165,4.67352 10.41602,4.36914 0.30437,-0.30437 0.36588,-0.66523 0.13672,-0.80273 C 251.58911,360.75386 224.7905,347.7777 210,341.58008 c -4.125,-1.72848 -8.625,-3.87333 -10,-4.76563 -1.375,-0.89231 -4.93714,-2.65221 -7.91602,-3.91211 -7.01358,-2.96636 -4.89049,-3.68267 2.91211,-0.98242 3.30667,1.14434 6.7108,2.08008 7.56446,2.08008 0.85366,0 4.22694,1.32723 7.49609,2.94922 3.26915,1.622 5.93955,2.6345 5.93555,2.25 C 215.98102,338.1853 208.38262,334 206.55273,334 205.6992,334 205,333.61213 205,333.13867 c 0,-0.47346 -3.57043,-2.49187 -7.93359,-4.48633 -7.58141,-3.46555 -10.68732,-5.685 -7.875,-5.625 0.71996,0.0154 5.12596,1.3368 9.79101,2.93555 13.21048,4.52732 12.05267,1.51 -1.38476,-3.60937 -7.13807,-2.71945 -10.47528,-4.80987 -9.39844,-5.88672 0.31941,-0.31941 4.7679,1.03559 9.88476,3.01172 5.11686,1.97614 9.90367,3.46396 10.63672,3.30664 0.73305,-0.15732 -3.4038,-2.67612 -9.19336,-5.59766 C 189.7525,312.25489 189,311.66581 189,308.9375 c 0,-4.51312 2.49561,-3.81834 16.40234,4.5625 6.84481,4.125 12.79116,7.5 13.21289,7.5 0.42173,0 10.01858,4.66887 21.32618,10.375 21.18949,10.69283 26.89418,13.15146 24.05859,10.36719 -1.60602,-1.57696 -3.16856,-2.39163 -27,-14.08203 -8.525,-4.1819 -16.625,-8.28652 -18,-9.1211 -2.15282,-1.30669 -7.12433,-4.1644 -23.78125,-13.66797 C 193.41452,303.8417 191.05202,303 189.96875,303 188.88548,303 188,302.39443 188,301.6543 c 0,-1.01651 2.99651,-1.51596 12.25,-2.04102 19.86807,-1.12737 22.60113,-2.56384 3.65625,-1.92187 -15.2542,0.5169 -16.64907,0.42001 -17.27344,-1.20703 -0.37353,-0.97351 -0.40777,-2.04318 -0.0742,-2.37696 0.33346,-0.33378 10.91919,-0.60742 23.52344,-0.60742 12.60425,0 22.91773,-0.31648 22.91797,-0.70312 0.001,-1.73589 -7.74474,-2.47085 -23,-2.1836 -9.075,0.17088 -17.93751,0.56743 -19.69531,0.88281 -2.54371,0.45639 -3.41826,0.15889 -4.28516,-1.46093 -0.59906,-1.11935 -0.96154,-2.08719 -0.80469,-2.15039 0.15685,-0.0632 2.76016,-0.24519 5.78516,-0.4043 15.74339,-0.82807 35.94466,-2.9362 35.20703,-3.67383 -0.46259,-0.46259 -6.43516,-0.34921 -13.27344,0.25195 -15.06653,1.32451 -24.93464,0.57724 -24.93164,-1.88867 0.002,-1.50125 1.88068,-1.66724 18.56446,-1.64844 l 18.56445,0.0195 5.18555,5.14453 c 2.8515,2.82885 6.32272,6.41883 7.71484,7.97851 3.85165,4.31524 12.14386,11.49287 12.66992,10.9668 0.25638,-0.25638 -2.03847,-3.31585 -5.10156,-6.79883 -3.0631,-3.48297 -6.8134,-7.78384 -8.33399,-9.55859 -3.09698,-3.61459 -11.38945,-9.61111 -15.39453,-11.13282 -1.75507,-0.6668 -7.33266,-0.65877 -16.77929,0.0254 -7.78286,0.5637 -14.80605,0.77356 -15.60547,0.46679 -2.12306,-0.81469 -0.85601,-3.39073 4.49023,-9.13281 5.32794,-5.72244 8.54006,-10.31737 7.75782,-11.09961 -0.29545,-0.29543 -3.17014,2.74042 -6.38672,6.74609 -3.21658,4.00568 -6.43797,7.97394 -7.16016,8.81836 -5.27286,6.16521 -7.25915,9.61095 -6.63086,11.5 0.37245,1.11987 1.00615,5.41016 1.4082,9.53516 0.40206,4.125 1.21898,9.3 1.81641,11.5 2.1667,7.97876 1.76912,12.94159 -2.43945,30.5 -2.61865,10.92513 -4.1376,14.31839 -7.7168,17.22852 -5.2486,4.26749 -8.75991,0.39195 -7.24023,-7.99219 0.96881,-5.34497 -0.0511,-21.60256 -2.39844,-38.23633 -0.50451,-3.575 -1.3377,-9.91065 -1.85352,-14.08008 -0.51582,-4.16944 -1.64754,-9.66959 -2.51367,-12.2207 -1.47455,-4.34318 -1.454,-4.9193 0.32031,-9.0586 1.0422,-2.43135 2.39012,-4.72705 2.9961,-5.10156 1.48637,-0.9186 6.06445,-10.06265 6.06445,-12.11328 0,-1.16613 0.50582,-1.43485 1.75,-0.92969 0.9625,0.39079 10.075,0.88721 20.25,1.10352 10.175,0.21631 21.83937,0.8887 25.91992,1.49219 4.08056,0.60349 9.7637,0.80354 12.63086,0.44531 5.13595,-0.64169 5.2293,-0.60579 6.2793,2.40625 0.58617,1.68148 1.76358,3.05664 2.61719,3.05664 0.85361,0 1.55273,0.60108 1.55273,1.33594 0,0.73485 4.03541,5.0697 8.9668,9.63281 6.17875,5.71727 9.32549,9.4213 10.125,11.91406 1.20374,3.75308 3.59679,7.11719 5.0625,7.11719 1.63809,0 0.80846,-3.07157 -2.68164,-9.91992 -3.57824,-7.02128 -5.95069,-9.47959 -15.91602,-16.48828 C 242.81683,262.96179 241,260.9988 241,259.58398 c 0,-3.47722 -2.91033,-4.59155 -15.92969,-6.09765 -2.43656,-0.28186 -4.52728,-0.6199 -4.64453,-0.75 -0.11725,-0.1301 0.39279,-3.16133 1.13281,-6.73633 0.74002,-3.575 1.54643,-8.075 1.79102,-10 0.24458,-1.925 1.16516,-6.79099 2.04687,-10.81445 1.8824,-8.58983 1.84825,-8.18555 0.70313,-8.18555 -0.49533,0 -1.34666,2.3625 -1.89063,5.25 -1.42376,7.55757 -6.29511,30.18841 -6.51953,30.28711 -0.1044,0.0459 -5.298,-0.36096 -11.54101,-0.9043 -8.56101,-0.74507 -11.82182,-0.69245 -13.27149,0.21289 -1.3564,0.84708 -2.48525,0.89956 -3.83398,0.17774 C 187.99179,251.46087 184.62757,251 181.56641,251 c -3.78551,0 -5.56588,-0.39982 -5.56641,-1.25 -0.001,-2.11853 3.07357,-17.72704 5.56641,-28.25 1.30293,-5.5 3.08868,-14.725 3.96679,-20.5 3.26134,-21.44857 7.62514,-42.54903 9.08008,-43.90234 0.35397,-0.32925 0.31953,3.22734 -0.0762,7.90234 -1.77181,20.94097 -0.16915,39.82637 4.08984,48.20117 1.62573,3.19682 1.76145,7.9705 0.36328,12.80469 -0.55571,1.92137 -1.42852,5.96914 -1.93945,8.99414 -0.51094,3.025 -1.23812,6.9625 -1.61523,8.75 -0.4066,1.92731 -0.28599,3.25 0.29687,3.25 0.95327,0 3.94434,-10.24361 6.56836,-22.5 1.19523,-5.58276 1.11773,-6.48134 -1.10156,-12.91797 -1.31469,-3.81301 -2.81974,-11.44268 -3.35352,-17 -1.22352,-12.73822 -1.18663,-10.97951 -0.53125,-25.24023 l 0.5586,-12.16016 -3.91407,-2.58984 C 191.80572,153.16674 189.28923,152 188.36719,152 c -1.55971,0 -1.55926,0.13179 0.0234,1.88086 1.57007,1.73487 1.58946,2.60275 0.24805,11.25 -0.79945,5.15355 -1.76119,12.06914 -2.13672,15.36914 -0.37553,3.3 -2.23731,13.2 -4.13867,22 -1.90136,8.8 -3.8481,18.25 -4.32617,21 -0.47808,2.75 -1.57084,7.925 -2.42773,11.5 -0.85691,3.575 -1.91835,8.525 -2.35938,11 -0.77286,4.33711 -0.94216,4.51166 -4.6582,4.81836 -5.00381,0.41299 -6.16926,-0.79885 -4.28321,-4.45313 0.81324,-1.57569 1.79713,-6.46523 2.1875,-10.86523 0.39038,-4.4 1.34383,-11.375 2.11719,-15.5 0.77336,-4.125 2.09731,-12.225 2.94336,-18 0.84605,-5.775 2.15858,-13.2 2.91602,-16.5 0.75743,-3.3 2.38424,-11.4 3.61523,-18 2.02346,-10.84894 4.01178,-17.12362 5.86328,-18.5 0.91031,-0.67671 5.409,-11.98741 4.92969,-12.39453 -0.2094,-0.17786 -1.61836,-0.62152 -3.13086,-0.98438 -2.11695,-0.50785 -2.75,-0.29682 -2.75,0.91797 0,0.86794 -0.4008,1.33204 -0.89062,1.0293 -2.26978,-1.4028 -4.64069,6.1433 -2.84376,9.05078 0.36855,0.59633 -0.0206,3.73841 -0.86328,6.98242 -2.92957,11.27837 -4.2658,16.93076 -5.29882,22.39844 -0.57152,3.025 -2.20533,11.575 -3.62891,19 -1.42357,7.425 -3.02662,18.50892 -3.5625,24.63086 -1.04394,11.9262 -3.25261,26.04361 -4.22852,27.01953 -1.22326,1.22326 -3.81527,-0.65898 -3.29687,-2.39453 0.2883,-0.96521 0.78319,-4.90586 1.09961,-8.75586 2.31662,-28.18765 6.70157,-53.49553 12.9082,-74.5 1.38142,-4.675 2.29651,-9.4 2.03516,-10.5 -0.95599,-4.02363 6.59198,-33.5 8.57812,-33.5 0.42359,0 1.05745,-1.53065 1.40821,-3.40039 0.57593,-3.06996 3.06371,-6.47735 4.00976,-5.49219 0.5954,0.62001 -2.15074,13.93873 -3.86914,18.76758 -0.85643,2.40665 -1.53245,5.10665 -1.50195,6 0.0305,0.89335 1.19319,-1.525 2.58203,-5.375 1.38884,-3.85 3.355,-9.025 4.37109,-11.5 1.01609,-2.475 2.36503,-6.75 2.9961,-9.5 0.63106,-2.75 2.04898,-6.4625 3.15234,-8.25 1.53734,-2.490536 1.68138,-3.25 0.61133,-3.25 -0.76799,0 -2.24413,1.6875 -3.2793,3.75 -1.72626,3.43947 -1.91357,3.55541 -2.26758,1.39844 -0.75299,-4.588012 0.5375,-6.879947 4.26953,-7.580081 C 197.42051,92.206265 199,91.528332 199,91.0625 c 0,-0.812067 9.3779,-3.286175 17.25,-4.550781 3.34806,-0.537847 3.879,-0.321959 4.94141,2.009765 0.80953,1.776728 1.76182,2.462702 2.97851,2.144532 3.6943,-0.966083 12.85861,15.996394 18.81836,34.833984 1.21805,3.85 2.57717,7.9 3.02149,9 0.44432,1.1 1.32102,7.4 1.94726,14 1.94949,20.54587 3.18987,29.6995 5.2168,38.5 2.81427,12.21891 4.70531,24.74802 4.08984,27.10156 -0.29183,1.11596 -0.0485,3.01349 0.54102,4.21485 0.58949,1.20136 1.28736,3.75859 1.55078,5.68359 0.62476,4.56561 2.1888,10.38213 5.86523,21.80859 1.6473,5.11986 2.77563,9.52907 2.50782,9.79688 -0.2678,0.26781 -2.57096,-0.52762 -5.11914,-1.76563 l -4.63282,-2.25 -1.54883,2.20899 c -1.71228,2.44463 -2.57818,2.382 -12.64648,-0.92188 C 236.89122,250.616 237,250.62182 237,252.52539 c 0,0.83861 1.22916,1.99171 2.73047,2.5625 1.5013,0.5708 3.02132,1.51125 3.37891,2.08984 0.36098,0.58408 5.70653,1.27621 12.01953,1.55665 8.7022,0.38654 12.10189,0.9456 14.48828,2.38476 5.83851,3.521 6.90304,1.78039 3.26758,-5.3457 -3.03121,-5.94167 -5.36095,-15.08809 -8.30665,-32.61914 -1.41811,-8.43984 -2.79011,-15.68687 -3.04882,-16.10547 -0.47926,-0.77545 -1.30505,-6.26498 -2.05664,-13.66211 -0.22986,-2.26224 -0.922,-5.41224 -1.53711,-7 C 257.32044,184.79896 255.05951,172.475 252.91016,159 250.76082,145.525 248.29276,131.575 247.42578,128 243.8995,113.45921 238.08927,100.98749 230.34375,91.332031 228.50468,89.039468 227,86.429251 227,85.53125 c 0,-0.914562 -1.50944,-2.263261 -3.43164,-3.066406 -4.46445,-1.865369 -4.9474,-2.812116 -2.54492,-4.986328 C 222.11047,76.494767 223,74.889803 223,73.912109 c 0,-0.977694 0.95931,-2.08129 2.13086,-2.453125 1.77584,-0.563629 0.84393,-1.334041 -5.60156,-4.632812 -4.25219,-2.176252 -7.97536,-3.714094 -8.27344,-3.416016 -0.29807,0.298077 0.19784,0.827038 1.10156,1.173828 2.55743,0.981379 1.93123,2.193242 -0.85742,1.660157 -1.375,-0.262848 -2.5,-0.02731 -2.5,0.523437 0,0.550744 2.50342,1.315059 5.5625,1.697266 6.16717,0.770538 7.29214,2.054665 5.5293,6.310547 C 218.49729,78.624876 212.44096,85 210.37695,85 c -0.94919,0 -5.08782,1.16041 -9.19531,2.578125 -6.01586,2.076393 -7.63068,2.319477 -8.30273,1.25 -0.6137,-0.976609 0.35111,-1.705281 3.64453,-2.753906 5.94879,-1.894096 5.68811,-3.124209 -0.50586,-2.390625 -5.90822,0.699741 -8.46275,-0.772516 -7.5625,-4.359375 C 188.91989,77.472237 188.63271,77 187.03906,77 c -1.3021,0 -2.22023,0.877592 -2.63086,2.513672 -0.6478,2.581054 0.91116,5.474063 2.96485,5.501953 0.62016,0.0084 1.76727,0.419421 2.54883,0.914063 1.20724,0.76411 1.1596,1.298112 -0.31641,3.550781 C 186.37097,94.416944 184.56191,96 182.16016,96 c -1.96252,0 -2.29194,0.390456 -1.82813,2.164062 0.97795,3.739668 -10.08219,24.726358 -12.30664,23.351558 -0.44844,-0.27714 -1.13851,-4.15257 -1.5332,-8.61132 -0.66828,-7.54941 -1.00296,-8.45503 -4.85547,-13.177738 -5.06544,-6.209614 -11.58676,-9.81556 -17.12891,-9.472656 -4.89093,0.302611 -5.46371,2.030262 -2.25586,6.796875 2.00534,2.979789 3.08361,3.563989 7.91797,4.294919 5.9735,0.90316 7.83008,2.84792 7.83008,8.20118 0,1.58719 0.56862,2.45312 1.60938,2.45312 1.25183,0 1.45789,-0.6096 0.93164,-2.75 -1.21584,-4.94513 -3.58513,-7.35227 -10.11329,-10.28125 -5.74926,-2.579521 -7.56224,-4.502214 -5.85742,-6.207031 0.31388,-0.313879 1.77638,0.0593 3.25,0.828125 1.47362,0.768824 3.15436,1.400897 3.73438,1.404297 0.58002,0.0034 2.67301,1.487619 4.65039,3.298828 C 160.17809,101.93211 163,109.47129 163,116.44531 c 0,3.50871 -0.61586,4.68102 -4.37109,8.32031 -2.40358,2.32941 -5.20476,4.23438 -6.22657,4.23438 -2.59339,0 -13.13962,-11.52726 -13.95898,-15.25781 -0.54808,-2.49539 -0.23659,-3.39616 1.69141,-4.87891 3.0837,-2.37153 3.11256,-2.36397 4.86523,1.4082 0.98454,2.11897 2.10137,3.12842 3.25,2.93555 1.26127,-0.21177 1.75,0.37375 1.75,2.09961 0,3.74063 2.04951,8.69336 3.59766,8.69336 1.77471,0 1.75798,-0.41286 -0.17578,-4.15234 -1.30297,-2.51957 -1.36661,-3.56491 -0.36524,-5.98243 1.3976,-3.37411 0.68033,-4.72183 -1.5332,-2.88476 -1.97666,1.64048 -4.08456,0.006 -6.04492,-4.68555 l -1.40625,-3.36523 -5.07422,2.57226 c -5.00891,2.53821 -5.06576,2.61973 -4.40235,6.28516 0.36968,2.04251 1.27255,4.89958 2.00586,6.34961 C 138.47672,121.8446 150.30713,132 152.75195,132 c 1.11702,0 4.28431,-2.025 7.03711,-4.5 7.83311,-7.04264 10.15057,-5.41545 3.41406,2.39648 -3.41202,3.95677 -4.00982,4.27787 -5.99609,3.21485 -2.74545,-1.46932 -2.83054,-0.17314 -0.20703,3.16211 1.1,1.39842 2,2.8077 2,3.13281 0,0.32512 1.82971,2.47648 4.06641,4.78125 9.62223,9.91505 9.8356,13.80776 0.33203,6.05469 -3.19773,-2.60874 -6.6196,-5.52969 -7.60547,-6.49219 -0.98588,-0.9625 -2.4596,-1.75 -3.27344,-1.75 -0.81385,0 -3.83852,-1.78579 -6.72265,-3.96875 -4.63033,-3.50456 -5.7952,-3.93507 -9.94922,-3.68164 -6.0397,0.36847 -7.84766,1.91289 -7.84766,6.70703 0,6.34589 1.35402,8.4943 6.4082,10.1582 4.33274,1.4264 4.96522,1.37619 12.23242,-0.98046 8.63921,-2.80156 8.68696,-2.79166 18.16993,4.3789 2.37134,1.79309 4.71521,3.40217 5.20703,3.57422 1.09834,0.38424 -0.4293,7.62266 -1.92383,9.11719 -1.73246,1.73246 -2.10849,0.33077 -0.99414,-3.70508 0.57518,-2.08315 0.78775,-4.04429 0.47266,-4.35938 -1.0032,-1.00319 -1.72449,0.47737 -2.29102,4.70118 -0.42395,3.16074 -0.92314,4.00276 -2.16602,3.65429 -0.88827,-0.24904 -4.99023,-0.75652 -9.11523,-1.1289 -9.11566,-0.82291 -13.4033,-3.47746 -14.42578,-8.92774 -0.777,-4.14178 -2.1625,-4.53736 -3.74219,-1.07031 -0.99535,2.18455 -0.69816,2.9885 2.57617,6.98437 l 3.69922,4.51563 -2.17969,2.26563 c -1.19866,1.24628 -3.30653,4.68745 -4.68554,7.64648 -2.25005,4.82805 -2.45387,6.25745 -1.97461,13.93945 0.49516,7.93679 0.73912,8.70948 3.33984,10.61914 4.09797,3.00908 11.3272,5.55961 15.76563,5.56055 3.32884,7e-4 3.69708,-0.21057 2.62695,-1.5 -0.68469,-0.825 -2.0699,-1.5 -3.07812,-1.5 -1.00823,0 -3.4914,-1.125 -5.51758,-2.5 -2.02617,-1.375 -4.22786,-2.5 -4.89258,-2.5 -0.66472,0 -1.99547,-1.74458 -2.95703,-3.87695 -1.52346,-3.37842 -1.59481,-4.63234 -0.5586,-9.75 1.3261,-6.54935 7.58786,-17.35134 10.06641,-17.36524 0.85919,-0.005 3.3956,0.87814 5.63672,1.96094 3.23555,1.56324 4.19371,2.64451 4.65039,5.25 0.31632,1.8047 1.12172,6.06305 1.79101,9.46289 1.06443,5.40652 0.98926,6.93883 -0.60937,12.21875 -1.35841,4.48651 -1.54333,6.3795 -0.71875,7.37305 0.81738,0.98488 0.76179,2.5067 -0.20898,5.78125 -1.52454,5.1425 -4.14501,38.26027 -3.1543,39.86328 0.36597,0.59214 2.41125,1.87732 4.54492,2.85547 l 3.87891,1.77734 -1.56055,3.22461 C 161.45362,260.54878 160.3563,262 159.875,262 c -0.48131,0 -0.875,0.81078 -0.875,1.80078 0,0.99 -0.49888,2.2977 -1.10742,2.90625 -0.6969,0.69688 -0.97451,4.28666 -0.75,9.69922 L 157.5,285 h -3.64258 c -2.31564,-9e-5 -3.85287,-0.54654 -4.21875,-1.5 -0.33264,-0.86685 -1.82876,-1.5 -3.54297,-1.5 -1.63145,0 -4.09582,-0.43013 -5.47656,-0.95508 -3.81899,-1.45198 -58.789332,-2.14807 -60.455078,-0.76562 -0.881172,0.73131 -8.504842,1.18424 -22.005859,1.30664 C 31.658746,281.8262 32,281.80626 32,283.08984 c 0,0.78093 10.835077,0.86516 38.25,0.29688 40.58426,-0.84126 66.67884,-0.64593 73.25,0.55078 3.35154,0.61037 2.37885,0.83806 -6,1.39648 -5.5,0.36656 -16.3,1.12596 -24,1.68946 -13.683392,1.00137 -60.089731,2.4294 -80,2.46094 -9.614552,0.0152 -10.013078,-0.0711 -10.320312,-2.23438 -0.303682,-2.13826 -2.556939,-3.10177 -3.507813,-1.5 -0.244877,0.4125 -0.77063,3.61719 -1.169922,7.12109 -0.587937,5.15932 -0.466453,6.28458 0.636719,5.92188 0.749209,-0.24631 1.503702,-1.64905 1.677734,-3.11914 0.300359,-2.53719 0.604953,-2.67819 6,-2.74219 3.125968,-0.0371 9.283594,-0.24022 13.683594,-0.45312 14.955349,-0.72367 31.961809,-1.44707 47.5,-2.02149 8.525,-0.31515 19.775,-1.06497 25,-1.66406 5.225,-0.59908 17.15,-1.17923 26.5,-1.29102 9.35,-0.1118 17.65486,-0.38405 18.45508,-0.60351 1.15023,-0.31546 1.7002,1.69598 2.625,9.60156 0.6434,5.5 1.49884,11.2375 1.90234,12.75 0.4035,1.5125 0.42685,2.75 0.0508,2.75 -0.37616,0 -3.76628,-1.8 -7.5332,-4 -3.76692,-2.2 -7.44479,-3.98746 -8.17383,-3.97266 -1.82316,0.037 4.83335,5.46159 9.41211,7.66993 2.05619,0.99171 3.744,2.14023 3.75,2.55273 0.006,0.4125 0.67767,0.75 1.49219,0.75 1.44351,0 3.27362,4.5799 2.24219,5.61133 -0.56431,0.56431 -10.2871,-4.17247 -23.01172,-11.21094 -10.1173,-5.59627 -13.84898,-5.37317 -4.21094,0.25195 8.14194,4.75194 21.7827,11.78069 25.75,13.26758 1.75518,0.65782 2.75,1.76239 2.75,3.05469 0,1.11361 -0.14798,2.02539 -0.32812,2.02539 -0.37426,0 -17.56992,-7.35453 -22.32227,-9.54688 C 140.61639,317.6536 138.9471,317 138.64062,317 c -0.30645,0 -5.31976,-2.29085 -11.14062,-5.0918 -11.31032,-5.44244 -13.74433,-6.07516 -18.78516,-4.87695 l -3.21484,0.76367 3.31445,0.10352 c 1.82274,0.0563 5.64774,1.16457 8.5,2.46289 2.85225,1.29833 9.44785,4.05894 14.65625,6.13672 5.20841,2.07778 13.94232,5.96672 19.41016,8.64062 5.46784,2.6739 10.76999,4.86133 11.78125,4.86133 1.29456,0 1.83789,0.73979 1.83789,2.5 0,2.09996 -0.47103,2.5 -2.94141,2.5 -1.61754,0 -3.19795,-0.41615 -3.51171,-0.92383 -0.3138,-0.50769 -2.0274,-1.23557 -3.8086,-1.61914 -1.78119,-0.38357 -8.84614,-3.17139 -15.69922,-6.19531 -6.85308,-3.02392 -14.05308,-6.07381 -16,-6.77734 -1.94692,-0.70354 -8.85318,-3.80154 -15.34765,-6.88282 C 95.024896,306.59197 95,306.58242 95,307.82031 c 0,3.05365 47.51965,24.01463 64,28.23047 6.01696,1.53919 5.95913,1.47468 4.78906,5.28711 -1.33479,4.34915 -7.56475,11.18268 -10.94531,12.00586 -1.4614,0.35586 -3.39244,0.93057 -4.29102,1.27539 -0.98895,0.37949 -1.51983,0.16537 -1.34375,-0.54102 0.17009,-0.68238 -3.86404,-2.54204 -9.71484,-4.47851 -8.58603,-2.84175 -22.18607,-8.2668 -39.371093,-15.70508 C 93.112636,331.72585 92,331.57398 92,333.05664 c 0,0.58093 2.1375,1.95984 4.75,3.06445 2.6125,1.10461 5.65,2.40812 6.75,2.89649 5.3433,2.37225 33.36588,12.9141 36,13.54297 1.65,0.39392 3.86317,1.16046 4.91797,1.70312 1.82779,0.94035 1.80431,1.0495 -0.5,2.32617 -1.3298,0.73677 -3.17934,1.3555 -4.10938,1.375 -0.93004,0.0195 -1.99218,0.52382 -2.36132,1.1211 -0.47124,0.76248 1.07547,0.88271 5.1914,0.40234 7.39961,-0.86361 13.89008,-2.97276 17.22461,-5.5957 2.52835,-1.98881 2.61315,-1.9929 3.44141,-0.13672 1.33896,3.00075 6.44063,5.54508 9.78125,4.87695 2.87062,-0.57413 2.91406,-0.51675 2.91406,3.89258 0,5.24245 -0.18399,5.28963 -9.06836,2.37305 -5.78444,-1.89894 -7.21845,-1.99663 -14.91602,-1.02735 -9.71959,1.22391 -16.80443,0.0714 -21.01562,-3.41797 -0.825,-0.68358 -5.325,-2.81887 -10,-4.74414 -7.96266,-3.2792 -19.56336,-8.40404 -21.25,-9.38867 -0.4125,-0.24077 -0.75,-0.22986 -0.75,0.0254 0,0.83942 8.35637,5.25573 16.5,8.72071 4.4,1.87213 10.25,4.70563 13,6.29492 8.32844,4.81321 13.73473,5.96363 24.53711,5.22656 7.38951,-0.5042 10.53063,-0.29805 13.95508,0.91016 2.4306,0.85757 6.46343,1.65728 8.96289,1.77929 L 180.5,369.5 l -0.27539,-5.92773 c -0.15114,-3.26008 -0.77669,-6.53173 -1.39063,-7.27149 -0.92485,-1.11438 0.0659,-1.23351 5.7754,-0.68945 3.79006,0.36117 7.96551,1.05922 9.27929,1.55078 1.31378,0.49155 2.61367,0.66953 2.88867,0.39453 0.58086,-0.58087 -4.03587,-2.45237 -8.02734,-3.25391 -1.5125,-0.30373 -2.75,-1.04253 -2.75,-1.64062 0,-0.59808 -1.19839,-2.04186 -2.66211,-3.20899 -4.47677,-3.56965 -1.97448,-4.80485 3.71094,-1.83203 2.72299,1.42382 4.95117,2.92088 4.95117,3.32618 0,0.4053 1.9125,1.29285 4.25,1.97265 2.3375,0.67979 10.55,4.33618 18.25,8.125 7.7,3.78881 17.15,8.21833 21,9.84375 3.85,1.62542 7,3.55268 7,4.28321 0,1.73167 -3.3015,1.20103 -6.5,-1.04493 C 233.68407,372.50073 225.73466,369 224.35742,369 c -1.55775,0 2.0541,2.88251 5.63672,4.49805 2.20316,0.99348 4.00586,2.22225 4.00586,2.73242 0,1.73579 -6.19713,-0.42316 -17.86719,-6.22461 -10.77784,-5.3579 -20.31291,-9.41032 -27.63281,-11.74414 -3.24544,-1.03475 -5.5,-0.6731 -5.5,0.88086 0,0.53663 0.41844,0.71636 0.92969,0.40039 0.80695,-0.49873 7.49039,2.09058 30.84375,11.94531 2.90016,1.22382 5.60016,2.55895 6,2.96875 0.81159,0.83185 -12.77186,-0.0409 -25.77344,-1.65625 -4.675,-0.58082 -12.325,-1.1593 -17,-1.28711 -4.675,-0.12781 -15.475,-0.73413 -24,-1.34765 -8.525,-0.61353 -27.53539,-1.32502 -42.24609,-1.58008 -14.710732,-0.25506 -27.10899,-0.6879 -27.550785,-0.96094 -0.441794,-0.27305 -4.831404,-0.7608 -9.753906,-1.08398 C 69.526717,366.21785 62.8,365.67748 59.5,365.33984 56.2,365.0022 52.825,364.74157 52,364.75977 51.175,364.77798 45.55,364.15095 39.5,363.36719 28.793881,361.98025 18.727514,358.67893 14.8125,355.27148 12.823557,353.54039 11,354.35618 11,356.97656 11,359.65967 9.9488936,362 8.7441406,362 c -1.1343385,0 -0.3873884,-23.40386 1.2597654,-39.5 0.506545,-4.95 1.413084,-14.175 2.015625,-20.5 0.602541,-6.325 1.503099,-13.975 2.001953,-17 2.100255,-12.73573 4.228082,-47.64407 5.394532,-88.5 0.23554,-8.25 0.492039,-15 0.568359,-15 0.07632,0 0.33112,-7.425 0.566406,-16.5 0.425277,-16.40295 1.402762,-32.09932 3.490235,-56 1.360809,-15.580689 1.779259,-26.754974 2.394531,-64 0.26803,-16.225 0.751692,-31.373376 1.074219,-33.662109 C 27.874617,8.7488108 27.673888,6.916838 26.980469,6.4882812 26.697882,6.3136328 26.45067,6.1722028 26.228516,6.1113281 Z M 191.84961,31.070312 c -2.39855,-0.06016 -2.97956,0.4779 -4.18164,2.3125 -0.94619,1.444066 -3.3951,3.412135 -5.44336,4.373047 -2.9791,1.397597 -3.78553,2.374677 -4.0293,4.88086 -0.23518,2.417812 0.30709,3.614028 2.37696,5.242187 2.1856,1.719187 2.45756,2.380818 1.46875,3.572266 -0.66734,0.804157 -0.96232,1.866085 -0.65625,2.361328 0.30608,0.495244 -0.31731,3.954802 -1.38477,7.6875 -2.08139,7.278235 -1.93765,8.5 1,8.5 1.03508,0 2.10502,0.360791 2.37695,0.800781 C 184.28629,72.272119 191,71.919316 191,70.400391 191,69.519091 189.9177,69 188.08203,69 183.28591,69 182,68.062919 182,64.570312 c 0,-2.576568 2.50743,-12.083896 3.52539,-13.367187 0.22175,-0.279542 6.88992,2.650444 15.97461,7.019531 3.25131,1.563648 3.62565,1.607922 2,0.242188 -1.1,-0.924124 -5.15,-3.200105 -9,-5.058594 -7.56218,-3.650451 -14.7936,-9.120771 -13.92188,-10.53125 0.96119,-1.555169 8.95488,-0.929292 15.01758,1.175781 3.24788,1.127717 7.4793,2.519301 9.4043,3.09375 3.81126,1.137335 15.99183,7.499078 22.09961,11.541016 l 3.83008,2.533203 -2.03125,3.978516 -2.0293,3.978515 2.31641,-0.71875 c 3.45942,-1.074459 4.21398,-3.125077 4.5332,-12.320312 l 0.28906,-8.363281 -3.91015,-3.910157 c -2.86254,-2.862544 -5.7427,-4.470358 -10.75391,-6.001953 C 215.57932,36.710788 209.8,34.888365 206.5,33.810547 c -3.3,-1.077819 -8.49914,-2.205302 -11.55469,-2.505859 -1.29396,-0.127283 -2.29618,-0.214322 -3.0957,-0.234376 z M 194.97852,34 c 5.03565,0 27.06239,7.337431 32.16601,10.714844 3.35149,2.217912 3.85547,3.048372 3.85547,6.359375 0,2.094453 -0.3375,4.011693 -0.75,4.261719 -0.4125,0.250025 -4.43241,-1.47661 -8.93359,-3.837891 -4.50117,-2.361281 -13.72617,-5.993426 -20.5,-8.070313 C 194.04259,41.350848 188.11789,39.32518 187.65039,38.925781 185.866,37.401327 190.92629,34 194.97852,34 Z m -6.76563,22.423828 c -0.7468,-0.01118 0.16191,0.577053 3.03711,2.09961 2.6125,1.383445 4.75,2.942646 4.75,3.464843 0,1.085127 -2.46503,0.323425 -5.74219,-1.773437 -2.06501,-1.321272 -2.31339,-1.247805 -3.15234,0.925781 -0.7286,1.887687 -0.47978,2.699818 1.24219,4.060547 2.32087,1.833988 6.13872,1.49922 8.53906,-0.748047 2.67859,-2.507765 -1.13284,-6.547707 -7.38672,-7.830078 -0.6053,-0.124119 -1.03818,-0.195491 -1.28711,-0.199219 z M 206.88281,60 c -0.55,0 -0.72273,0.45 -0.38281,1 0.33992,0.55 1.06719,1 1.61719,1 0.55,0 0.72273,-0.45 0.38281,-1 -0.33992,-0.55 -1.06719,-1 -1.61719,-1 z m -16.9414,3 c 0.51754,0 1.21867,0.45 1.55859,1 0.33992,0.55 -0.0839,1 -0.94141,1 C 189.70113,65 189,64.55 189,64 c 0,-0.55 0.42387,-1 0.94141,-1 z m 7.5,7 C 196.64887,70 196,70.45 196,71 c 0,0.55 0.92613,1 2.05859,1 1.13246,0 1.78133,-0.45 1.44141,-1 -0.33992,-0.55 -1.26605,-1 -2.05859,-1 z m 18.42382,1.164062 c -0.19376,-0.02043 -0.55665,0.161752 -1.11523,0.623047 -0.6875,0.567765 -2.79405,1.430621 -4.68164,1.917969 -1.88759,0.487348 -3.59514,1.373315 -3.79297,1.966797 -0.64085,1.922554 5.15537,1.186208 7.47461,-0.949219 1.75466,-1.615592 2.69652,-3.497297 2.11523,-3.558594 z m -17.71484,1.90625 c -0.28007,-0.06131 -0.54155,-0.01314 -0.74023,0.185547 -0.25135,0.251355 -0.17297,1.197842 0.17382,2.101563 C 198.36165,77.384 200,77.520119 200,75.558594 c 0,-1.125873 -1.00939,-2.30436 -1.84961,-2.488282 z m 26.70703,19.900391 c -0.94171,0.0338 -0.82933,2.362158 0.51367,5.833985 0.99879,2.581972 1.88892,5.595312 1.97852,6.695312 0.0896,1.1 0.43877,2.45 0.77539,3 0.33662,0.55 1.16042,2.8 1.83008,5 0.66966,2.2 1.87933,5.47367 2.68945,7.27539 0.81011,1.80172 1.20309,4.13174 0.87109,5.17773 -0.33197,1.04602 -0.0853,7.67235 0.54883,14.72461 0.63414,7.05227 1.31497,33.29727 1.51367,58.32227 0.3275,41.23781 0.56033,49.43957 1.45118,51 1.03308,1.80955 2.81489,-48.48415 2.90429,-82 0.0761,-28.53022 -0.32988,-31.98322 -5.88281,-50 -2.28846,-7.425 -4.75418,-15.67003 -5.47851,-18.322266 -0.72433,-2.652241 -1.81665,-5.3225 -2.42774,-5.933593 -0.54166,-0.541664 -0.9732,-0.784705 -1.28711,-0.773438 z M 188.13867,97.5 l -0.64648,2.98047 c -0.35568,1.63947 -3.08571,8.00062 -6.06836,14.13476 C 178.44117,120.74937 176,126.24279 176,126.82422 c 0,1.99158 -1.73172,2.12849 -3.41406,0.26953 -2.18762,-2.41729 -1.30644,-5.98772 2.82617,-11.44141 1.73065,-2.28388 4.48342,-6.31019 6.11719,-8.94726 1.63377,-2.63706 3.79018,-5.78706 4.79101,-7.000002 z m -36.62695,6.34766 c -0.164,-0.0943 -0.2793,0.70859 -0.2793,2.15234 0,1.925 0.2055,2.7125 0.45703,1.75 0.25152,-0.9625 0.25152,-2.5375 0,-3.5 -0.0629,-0.24062 -0.12307,-0.3709 -0.17773,-0.40234 z m -9.22266,9.46093 c -0.22143,0.0557 -0.28906,0.40396 -0.28906,1.06836 0,0.89234 0.675,1.62305 1.5,1.62305 0.825,0 1.5,-0.16929 1.5,-0.37695 0,-0.20765 -0.675,-0.93836 -1.5,-1.62305 -0.61425,-0.50979 -0.9895,-0.74714 -1.21094,-0.69141 z m 26.61914,12.75196 2.95703,2.95898 2.95899,2.95899 -1.40039,5.25976 c -0.77025,2.89341 -1.40511,6.69809 -1.41211,8.45313 -0.0145,3.89753 -1.23165,4.83475 -3.29102,2.53515 C 167.27293,146.60991 160,136.06114 160,135.57812 c 0,-0.12133 2.00356,-2.31262 4.45312,-4.86914 z m -33.10351,12.03515 c 2.21761,0.0396 5.49225,1.20887 9.96875,3.51172 l 7.34961,3.78125 -6.81055,2.25977 c -8.66346,2.87289 -8.42968,2.88353 -11.70312,-0.53321 -1.98375,-2.07058 -2.67251,-3.6946 -2.4375,-5.75 0.25359,-2.2183 1.41519,-3.30917 3.63281,-3.26953 z m 95.54297,1.14649 c -0.69977,0.24277 -2.24342,2.88831 -5.19141,8.75781 -2.90053,5.775 -6.59227,12.65386 -8.20508,15.28516 -1.6128,2.6313 -3.66644,7.02412 -4.5625,9.76367 -0.89606,2.73956 -2.02385,5.22629 -2.50781,5.52539 -0.48396,0.2991 -0.88086,1.89297 -0.88086,3.54297 0,4.03021 1.60157,2.82783 2.4707,-1.85547 0.38389,-2.06858 1.30043,-4.43672 2.03516,-5.26172 3.10658,-3.48822 17.62002,-33.07638 17.28125,-35.23047 -0.0665,-0.42287 -0.2062,-0.60827 -0.43945,-0.52734 z m -68.42578,30.77734 c 1.50191,-0.0412 3.08514,0.18965 3.41015,0.73047 0.2479,0.4125 -0.14117,3.60402 -0.86523,7.0918 -1.39086,6.69981 -2.15625,8.33816 -2.82813,6.05078 C 161.97489,181.63273 160,171.92755 160,170.92383 c 0,-0.54974 1.41994,-0.8631 2.92188,-0.9043 z M 229.13672,182.5 c -0.53915,0.55 -1.24595,5.95 -1.57031,12 -0.34945,6.51805 -0.2294,10.38883 0.29297,9.5 1.2812,-2.18089 2.50372,-22.75104 1.27734,-21.5 z M 227,206 c -0.55,0 -1,0.45 -1,1 0,0.55 0.45,1 1,1 0.55,0 1,-0.45 1,-1 0,-0.55 -0.45,-1 -1,-1 z m -0.74023,3.36719 c -0.13659,0.13658 -0.16747,0.96117 -0.19727,2.58203 -0.0435,2.36802 0.26144,3.12723 0.96875,2.41992 0.68237,-0.68236 0.70288,-1.84709 0.0625,-3.44922 -0.45436,-1.13672 -0.6974,-1.68932 -0.83398,-1.55273 z m -14.52344,47.66211 c -0.37243,0.0235 -0.7128,0.57552 -0.94727,1.7207 -0.48819,2.38439 2.52104,10.15396 5.01953,12.95898 3.1194,3.50209 3.38014,2.75005 0.75586,-2.18554 -1.30895,-2.4618 -2.68662,-6.2868 -3.06054,-8.5 -0.43999,-2.60429 -1.14687,-4.03335 -1.76758,-3.99414 z M 67.763672,269.46094 c -0.0072,0.002 -0.01428,0.004 -0.02148,0.006 -0.01734,0.005 -0.02422,0.007 -0.03906,0.0117 0.01572,9.6e-4 0.03673,0.003 0.05469,0.004 0.0018,-0.007 0.0038,-0.0145 0.0059,-0.0215 z m 81.152348,23.66211 c -0.3474,-0.0143 -0.74259,0.0489 -1.10352,0.19336 -0.79773,0.31922 -0.56143,0.55744 0.60352,0.60547 1.05416,0.0434 1.64479,-0.19311 1.3125,-0.5254 -0.16615,-0.16612 -0.46511,-0.25913 -0.8125,-0.27343 z m -8.36914,0.12695 c -1.42394,-0.0726 -3.15482,-0.0313 -4.89649,0.13867 -3.38239,0.33002 -16.93974,0.86473 -30.12695,1.1875 -13.187227,0.32277 -24.325702,0.80101 -24.751956,1.06445 -0.426254,0.26345 -11.135376,0.47666 -23.798828,0.47266 -12.663453,-0.004 -22.798619,0.36018 -22.521484,0.8086 0.277136,0.44841 9.836678,0.89514 21.242187,0.99414 11.405509,0.099 20.970362,0.41371 21.25586,0.69921 0.285498,0.28554 1.876383,0.28678 3.535156,0.004 1.658772,-0.28333 14.040625,-1.01432 27.515625,-1.625 33.02031,-1.49645 37.8627,-1.93249 35.5957,-3.20117 -0.50868,-0.28468 -1.62493,-0.47037 -3.04882,-0.54297 z m -114.630864,3.87305 c -0.347396,-0.0143 -0.742579,0.0489 -1.103516,0.19336 -0.797733,0.31922 -0.561427,0.55744 0.603516,0.60547 1.054166,0.0434 1.644791,-0.19311 1.3125,-0.5254 -0.166146,-0.16612 -0.465104,-0.25913 -0.8125,-0.27343 z m 132.228514,0.0996 c -0.55624,-0.084 -1.36947,-0.0335 -2.39453,0.15625 -1.7875,0.33082 -13.15,1.04233 -25.25,1.58203 -12.1,0.5397 -29.875,1.42105 -39.5,1.95703 -44.878752,2.49914 -69.899147,2.8638 -71.029297,1.03515 C 18.918133,300.25014 17,301.70875 17,304.21289 c 0,2.08419 0.119634,2.09337 22.25,1.43945 45.164189,-1.33454 72.23692,-2.59441 101.25,-4.71093 16.13116,-1.17678 18.5,-1.57109 18.5,-3.07227 0,-0.34449 -0.29923,-0.56249 -0.85547,-0.64648 z m 153.9375,4.15625 c -0.042,0.11378 0.42301,0.47033 1.35938,1.16992 2.1498,1.60616 3.97863,1.94081 3.13281,0.57226 -0.29889,-0.48361 -1.56251,-1.13713 -2.8086,-1.45117 -1.09287,-0.27542 -1.6416,-0.4048 -1.68359,-0.29101 z m -91.60156,0.8164 c -0.92251,-0.0395 -1.4695,0.12478 -1.45508,0.54297 0.0144,0.419 4.84262,3.01172 10.72852,5.76172 5.88589,2.75 14.76245,7.06622 19.72461,9.5918 9.43113,4.80014 11.52148,5.52247 11.52148,3.98047 0,-0.51014 -4.6125,-3.38136 -10.25,-6.38086 -5.6375,-2.9995 -13.175,-7.02623 -16.75,-8.94922 -4.59428,-2.47125 -10.75199,-4.42849 -13.51953,-4.54688 z M 203.16797,303 c -2.86764,0 -0.46983,1.82271 7.8457,5.96094 4.92927,2.45306 12.23063,6.35825 16.22461,8.67968 3.99398,2.32144 9.96172,5.46759 13.26172,6.99219 3.3,1.52461 9.6,4.68246 14,7.01563 8.62424,4.57314 9.88353,5.00018 9.26758,3.15234 -0.2197,-0.65912 -9.82036,-5.96374 -21.33399,-11.78906 C 230.91996,317.1864 217.63817,310.30151 212.91797,307.71094 208.19776,305.12037 203.81026,303 203.16797,303 Z m 9.38281,0.0312 c -2.04473,0.0317 -2.04554,0.0364 -0.0508,1.54492 1.8464,1.39624 13.71417,7.34764 37.5,18.80664 8.3198,4.00812 12.28268,5.53772 10.91602,4.21289 -0.22917,-0.22215 -10.31602,-5.45322 -22.41602,-11.625 -12.1,-6.17179 -22.42672,-11.61464 -22.94922,-12.0957 -0.5225,-0.48107 -1.8725,-0.86125 -3,-0.84375 z m 109.64063,1.98437 c -1.45727,0.0132 -1.4841,0.14898 -0.19141,0.98438 1.95837,1.2656 3.28218,1.2656 2.5,0 -0.33992,-0.55 -1.37855,-0.99237 -2.30859,-0.98438 z m -26.32618,0.19532 c -0.47781,0.15927 3.51945,2.61695 8.88282,5.46094 10.33021,5.47759 13.04244,6.50996 9.13672,3.47656 -3.21343,-2.49573 -16.93173,-9.30011 -18.01954,-8.9375 z m -217.132808,1.83984 c -0.548586,0.0804 -0.746274,0.40571 -0.550781,0.99219 0.246999,0.741 1.54365,1.64376 2.882812,2.00586 1.339162,0.36209 10.985547,4.81038 21.435547,9.88476 10.45,5.07439 19.9,9.62306 21,10.10743 4.64072,2.0435 20.53062,7.95898 21.37891,7.95898 0.50741,0 4.00455,1.33456 7.77148,2.96484 7.3975,3.20155 9.73244,3.68363 9.13477,1.89063 -0.20968,-0.62905 -6.43534,-3.32985 -13.83399,-6.00391 -7.39866,-2.67406 -15.30028,-5.76052 -17.56055,-6.85742 C 128.13044,328.89749 125.98716,328 125.62891,328 c -0.35825,0 -2.55912,-0.86416 -4.89063,-1.91992 -2.3315,-1.05577 -7.89143,-3.47091 -12.35742,-5.36719 -4.466,-1.89628 -11.884822,-5.56464 -16.486329,-8.15234 -6.722864,-3.78067 -11.516353,-5.7508 -13.162109,-5.50977 z m 248.091798,0.32617 c -0.31867,-0.0228 -0.54052,0.005 -0.63281,0.0977 -0.25801,0.25801 0.83114,0.93103 2.41992,1.49609 1.58878,0.56506 3.56367,1.45273 4.38867,1.97071 1.95328,1.22639 3,1.27885 3,0.15234 0,-0.88441 -6.94511,-3.55704 -9.17578,-3.7168 z M 70.078125,308 c -1.776731,0 -0.411424,1.67859 2.691406,3.30664 6.091063,3.19596 14.907428,8.01704 17.730469,9.69727 1.65,0.98206 6.15,3.02989 10,4.54882 3.85,1.51893 14.875,6.59231 24.5,11.27539 9.625,4.68311 20.425,9.5267 24,10.76368 7.69103,2.66117 8.28286,2.75874 7.78906,1.27734 -0.20737,-0.62211 -3.95606,-2.35958 -8.33203,-3.86133 C 144.08107,343.50606 134.875,339.57826 128,336.2793 c -6.875,-3.29896 -15.875,-7.46597 -20,-9.25977 -4.125,-1.79381 -14.07568,-6.80726 -22.113281,-11.14062 C 77.849118,311.54555 70.735483,308 70.078125,308 Z M 25.75,309.01562 c -1.819438,0.0124 -1.962959,0.20051 -0.75,0.98438 1.938759,1.25292 3,1.25292 3,0 0,-0.55 -1.0125,-0.9928 -2.25,-0.98438 z m 27.076172,0.1543 c -1.831146,0.25941 -1.262596,0.71931 2.673828,2.1582 5.811636,2.12435 6.399878,2.37215 17,7.19532 4.4,2.00205 11.15,4.78021 15,6.17383 3.85,1.39361 7.544984,2.97215 8.210938,3.50781 0.665952,0.53566 4.490962,2.268 8.500002,3.84961 6.72853,2.65447 13.45521,4.1609 7.78906,1.74414 -1.375,-0.58647 -7.08413,-3.25729 -12.6875,-5.9336 C 93.709132,325.18893 88.814141,323 88.435547,323 c -0.378594,0 -3.219463,-1.27002 -6.3125,-2.82227 -9.867027,-4.9518 -26.890932,-11.34864 -29.296875,-11.00781 z m -34.679688,0.11524 c -1.451176,-0.10932 -1.745904,0.95412 -1.925781,6.92187 -0.116881,3.87775 -0.684994,8.80351 -1.261719,10.94531 C 13.825016,331.36357 14.280935,333 16.587891,333 c 1.897823,0 17.043538,5.08034 25.412109,8.52344 3.575,1.47088 12.798528,4.87836 20.496094,7.57422 C 77.002595,354.17815 79,354.65694 79,353.04102 c 0,-0.5279 -2.9099,-1.86038 -6.466797,-2.95899 -3.556897,-1.09861 -7.796552,-2.6849 -9.421875,-3.52539 -1.625322,-0.84048 -5.127922,-2.24944 -7.783203,-3.13281 C 52.672844,342.54045 48.025,340.75002 45,339.44727 c -3.025,-1.30275 -9.775,-3.98126 -15,-5.95313 -13.508933,-5.09816 -12.553054,-4.14697 -12.152344,-12.10352 0.190875,-3.79003 0.510932,-7.06198 0.712891,-7.27148 0.201959,-0.2095 2.07213,0.38416 4.154297,1.31836 2.082166,0.9342 4.685156,2.05205 5.785156,2.48438 1.1,0.43232 4.150131,1.75117 6.777344,2.93164 2.627214,1.18048 5.46196,2.14648 6.300781,2.14648 0.838822,0 3.190644,0.85654 5.224609,1.90234 2.033965,1.0458 5.497266,2.44578 7.697266,3.11328 2.2,0.66751 5.35,1.77286 7,2.45508 4.820698,1.9932 18.777909,6.72228 21.5,7.28516 4.667968,0.96526 1.145138,-0.96274 -6.902344,-3.7793 -9.660111,-3.38097 -20.676998,-7.72475 -24.097656,-9.5 -3.099844,-1.60876 -7.720847,-3.52159 -15.5,-6.41601 -11.804908,-4.39232 -16.99636,-6.76856 -16.818359,-7.69922 0.09944,-0.51992 -0.592205,-1.00517 -1.535157,-1.07617 z m 19.826172,2.32812 c -1.404079,0.26305 15.134875,8.05803 26.527344,12.41016 5.5,2.1011 11.575,4.51286 13.5,5.35937 1.925,0.8465 4.625,1.52547 6,1.50977 l 2.5,-0.0274 -2.5,-1.05273 c -1.375,-0.5787 -3.4,-1.44055 -4.5,-1.91602 -1.1,-0.47546 -6.05,-2.26461 -11,-3.9746 -8.245526,-2.84846 -18.220568,-7.06019 -24.5,-10.34376 -1.375,-0.71899 -3.85,-1.57974 -5.5,-1.91406 -0.259936,-0.0527 -0.433738,-0.0683 -0.527344,-0.0508 z m 279.927734,2.88281 c -0.54808,-0.0779 -0.0782,0.5393 1.59961,1.93555 1.65,1.37312 3.36363,2.5134 3.80859,2.5332 0.44496,0.0198 0.53133,0.48516 0.19141,1.03516 -0.33992,0.55 0.25324,1 1.31836,1 1.06511,0 2.55396,0.74306 3.30859,1.65234 0.75463,0.90927 2.72284,2.24174 4.37305,2.96094 3.67624,1.60218 3.5,1.57809 3.5,0.48633 0,-0.49496 -3.4875,-3.10747 -7.75,-5.80664 -5.69439,-3.60591 -9.43614,-5.66708 -10.34961,-5.79688 z m -296.873046,8.19922 c -0.225986,0.0877 0.964215,0.69874 3.722656,1.86719 2.0625,0.87366 7.125,2.67801 11.25,4.00977 4.125,1.33175 8.154385,2.84174 8.953125,3.35742 0.79874,0.51568 1.900049,0.65972 2.449219,0.32031 0.58048,-0.35875 0.392229,-0.81376 -0.451172,-1.08789 -0.79791,-0.25934 -6.963672,-2.37563 -13.701172,-4.70313 -7.536044,-2.60336 -11.846014,-3.9099 -12.222656,-3.76367 z M 215,324.56445 c -2.00427,-0.37019 0.43647,1.04608 5.71094,3.31446 5.06587,2.17867 10.46587,4.64894 12,5.48828 2.66666,1.45894 11.879,5.78688 24.78906,11.64648 5.35698,2.43142 9.07981,2.99054 6.83789,1.02735 C 263.485,345.29417 248.33642,338.25425 233,331.47656 c -12.95691,-5.7261 -14.23209,-6.21616 -18,-6.91211 z m -1.625,4.72657 c -0.27089,0.27089 2.34666,2.18813 5.81641,4.25976 3.46975,2.07162 6.98359,4.32888 7.80859,5.01563 0.825,0.68676 8.925,4.63695 18,8.77929 16.66432,7.60653 19,8.4306 19,6.70118 0,-0.85918 -4.07542,-2.9288 -12.48242,-6.3379 -1.64033,-0.66517 -6.69607,-3.11166 -11.23438,-5.4375 -22.40706,-11.48335 -26.45294,-13.43573 -26.9082,-12.98046 z m 106.375,0.3164 c -0.26118,0.0695 -0.34552,0.23697 -0.19141,0.48633 0.30822,0.49871 1.20746,0.90625 2,0.90625 2.06975,0 1.77445,-0.68041 -0.56054,-1.29102 -0.55038,-0.14392 -0.98687,-0.17104 -1.24805,-0.10156 z M 288.62891,330 c 0.20615,0 -0.52589,1.68003 -1.62696,3.73438 -1.10107,2.05434 -2.00857,4.41683 -2.01757,5.25 -0.0175,1.60863 -2.22513,5.47205 -8.09766,14.16601 -3.89427,5.76524 -8.88672,10.88112 -8.88672,9.10742 0,-0.60028 0.9,-3.19161 2,-5.75781 2.45064,-5.71712 2.74987,-16.98453 0.53516,-20.14648 -1.95884,-2.79662 -1.09014,-3.39083 3.9414,-2.70118 3.0867,0.42308 5.49613,0.0111 8.9961,-1.53711 2.62952,-1.16316 4.9501,-2.11523 5.15625,-2.11523 z m 37.0625,2.01562 c -0.71561,0.009 -0.5927,0.40192 0.30859,0.98438 1.92112,1.24153 2.2673,1.24153 1.5,0 -0.33992,-0.55 -1.15355,-0.99235 -1.80859,-0.98438 z M 49.984375,333 c -3.073696,0 1.372939,2.25703 13.015625,6.60547 5.166184,1.92953 6.105217,1.55425 1.5,-0.59961 C 54.615618,334.38293 51.274644,333 49.984375,333 Z M 14,333.70703 v 3.52539 c 0,3.52123 0.0062,3.52601 6.75,5.17774 3.7125,0.90928 9.225,2.58578 12.25,3.72656 3.025,1.14077 10,3.78355 15.5,5.87109 C 61.417014,356.91051 65.034879,358 68.384766,358 c 1.508106,0 5.524889,1.27894 8.927734,2.8418 3.402844,1.56287 7.7625,3.55858 9.6875,4.43554 3.640304,1.65839 6,2.11856 6,1.16993 0,-0.47884 -5.545129,-3.15405 -16.5,-7.95899 -1.65,-0.72372 -8.625,-3.11211 -15.5,-5.30859 -6.875,-2.19649 -19.025,-6.28325 -27,-9.08203 -7.975,-2.79878 -14.633113,-5.09175 -14.796875,-5.09375 -0.163762,-0.002 -1.401262,-1.19508 -2.75,-2.65039 z M 332.5,334 c -4.0342,0 -4.464,0.67688 -1.25,1.96875 3.34629,1.34504 4.75,1.20658 4.75,-0.46875 0,-1.04762 -1.05556,-1.5 -3.5,-1.5 z m -243.210938,2.37891 c -0.565528,0.56553 22.237808,11.8448 27.710938,13.70703 1.375,0.46784 6.1,2.17291 10.5,3.78711 8.63858,3.16918 10.5,3.57771 10.5,2.30664 0,-0.45136 -5.2875,-2.76681 -11.75,-5.14453 -6.4625,-2.37773 -13.55,-5.17481 -15.75,-6.2168 -10.1235,-4.79484 -20.66241,-8.98797 -21.210938,-8.43945 z m 128.992188,3.91601 C 218.09874,340.27806 218,340.3087 218,340.39648 c 0,0.23308 2.8125,2.17891 6.25,4.32422 6.1556,3.84167 10.96091,6.42997 27.75,14.94141 9.0912,4.6089 10,4.90786 10,3.30469 0,-0.56776 -6.6375,-4.25214 -14.75,-8.1875 -8.1125,-3.93536 -16.51803,-8.25237 -18.67969,-9.59375 -3.67019,-2.27747 -9.01146,-4.7726 -10.28906,-4.89063 z m -148.324219,0.97656 c -0.338862,-0.0196 -0.5719,0.0114 -0.664062,0.10352 -0.31809,0.31809 0.04823,0.80841 0.814453,1.08984 0.76622,0.28143 3.192578,1.16037 5.392578,1.95313 4.836146,1.74269 5.794076,1.8672 5.046875,0.6582 -0.665045,-1.07606 -8.217811,-3.66751 -10.589844,-3.80469 z M 137.5,345 c -0.825,0 -1.5,0.43601 -1.5,0.96875 0,0.53273 0.675,0.70916 1.5,0.39258 0.825,-0.31659 1.5,-0.75259 1.5,-0.96875 C 139,345.17643 138.325,345 137.5,345 Z m -123.357422,0.0898 c -0.595993,0.13801 -1.198181,0.99797 -1.582031,2.52735 -0.361408,1.4399 -0.523642,2.73924 -0.359375,2.88672 0.630083,0.56568 18.42337,6.37207 20.798828,6.78711 11.009109,1.92352 8.734721,-0.22864 -4.912109,-4.64649 -8.900261,-2.88125 -12.033962,-4.33384 -12.404297,-5.75 -0.35519,-1.35825 -0.945023,-1.94269 -1.541016,-1.80469 z M 82.46875,346 C 82.210772,346 82,346.86354 82,347.91797 c 0,1.47405 1.097802,2.15702 4.75,2.95898 2.6125,0.57366 10.825,3.06539 18.25,5.53711 7.425,2.47173 13.8375,4.51582 14.25,4.54102 1.9904,0.12154 0.29221,-0.95846 -4,-2.54297 -2.6125,-0.96443 -10.95173,-4.15097 -18.53125,-7.08203 C 89.139227,348.39902 82.726727,346 82.46875,346 Z m 60.23633,1.11133 c -0.63286,0.0181 -0.22772,0.49768 1.79492,1.42383 v 0.002 c 1.65,0.75553 3.675,1.37591 4.5,1.37891 0.825,0.003 -0.0146,-0.65161 -1.86523,-1.45508 -2.12639,-0.92322 -3.79683,-1.36768 -4.42969,-1.34961 z M 281.44727,354 C 281.20174,354 281,354.41954 281,354.93164 c 0,0.51211 2.5875,2.26703 5.75,3.90039 5.8074,2.99937 7.25,3.54064 7.25,2.7168 C 294,361.07801 282.23034,354 281.44727,354 Z m 19.72851,0.20508 c -0.0735,0.0834 0.36984,0.39587 1.27539,0.99804 1.07327,0.71378 8.49827,4.75615 16.5,8.98438 8.00174,4.22822 14.99883,7.68941 15.54883,7.69141 1.09153,0.004 1.08492,-6.1e-4 -10.81055,-7.63282 -7.4744,-4.79561 -14.0755,-7.8796 -20.68945,-9.66601 -1.16014,-0.31336 -1.75071,-0.45841 -1.82422,-0.375 z M 80.097656,355 c -2.560652,0 -0.430376,1.93426 5.902344,5.35938 6.231714,3.37047 8,4.09091 8,3.25781 C 94,362.85457 81.328031,355 80.097656,355 Z m 241.240234,0.32812 c -0.2977,0.29771 2.54215,2.12488 6.31055,4.0586 7.3204,3.75638 8.35156,4.09693 8.35156,2.76172 0,-1.07408 -13.929,-7.55336 -14.66211,-6.82032 z m -231.61914,0.93165 c -1.923243,0.64108 5.664891,4.51029 10.28125,5.24218 2.475,0.3924 6.75,1.3095 9.5,2.03907 5.09712,1.35224 10.24904,1.87405 9.31836,0.94336 -0.28342,-0.28342 -3.17027,-1.19644 -6.41602,-2.0293 -3.24575,-0.83286 -9.43598,-2.6478 -13.755856,-4.0332 -4.319875,-1.38545 -8.337731,-2.35878 -8.927734,-2.16211 z m 187.4082,2.79101 3.39258,2.22461 c 16.37062,10.73114 23.73253,16.24562 22.10742,16.55859 -0.99312,0.19126 -2.80737,-0.59436 -4.03125,-1.74414 C 297.37182,374.94007 295.8933,374 295.30859,374 c -0.5847,0 -1.66229,-0.72122 -2.39453,-1.60352 -0.73224,-0.88229 -2.25044,-2.00307 -3.37304,-2.49023 -1.12261,-0.48715 -3.16602,-1.662 -4.54102,-2.61133 l -2.5,-1.72656 2,2.33789 c 1.1,1.28603 4.36249,3.6753 7.25,5.31055 2.8875,1.63526 4.99888,3.3814 4.69141,3.8789 -0.30747,0.49749 -0.86996,0.85227 -1.25,0.78907 -0.38004,-0.0632 -2.44655,-0.45357 -4.5918,-0.86719 -2.14525,-0.41362 -4.7138,-0.53954 -5.70899,-0.2793 -1.192,0.31172 -3.83743,-1.34622 -7.75195,-4.86133 l -5.94336,-5.33593 2.9668,-3.74414 z M 276.94141,367 c -0.58246,0 -0.78133,0.45 -0.44141,1 0.33992,0.55 0.81605,1 1.05859,1 0.24254,0 0.44141,-0.45 0.44141,-1 0,-0.55 -0.47613,-1 -1.05859,-1 z m 28.02929,2.01172 c -0.17617,-0.003 -0.17695,0.0986 0.0293,0.3164 0.825,0.87129 3.96248,2.92909 6.97266,4.57227 3.01018,1.64317 5.674,2.78695 5.91796,2.54297 0.58619,-0.58619 0.67443,-0.52705 -7.39062,-4.90234 -2.8875,-1.56647 -5.00078,-2.51884 -5.5293,-2.5293 z m -35.33203,0.28125 c 0.3283,-0.0303 0.6534,0.0117 0.98438,0.12305 1.88805,0.63515 8.37695,6.11197 8.37695,7.07031 0,0.28274 -0.3375,0.42608 -0.75,0.31836 -0.4125,-0.10772 -3.7875,-0.35447 -7.5,-0.54688 -3.7125,-0.19241 -6.73464,-0.66536 -6.71484,-1.05273 0.0198,-0.38737 1.08944,-1.99083 2.375,-3.5625 1.23671,-1.51196 2.24361,-2.25859 3.22851,-2.34961 z m 12.37695,2.69922 c -0.0843,0.038 0.22267,0.44843 0.85743,1.25781 0.75485,0.9625 1.84169,1.75 2.41601,1.75 0.57436,0 0.85612,-0.12757 0.62696,-0.2832 -0.22917,-0.15563 -1.31602,-0.94313 -2.41602,-1.75 -0.925,-0.67851 -1.40005,-1.01264 -1.48438,-0.97461 z" />
  </g>
</svg>
