<?xml version="1.0" encoding="UTF-8" standalone="no"?>
<!-- Created with Inkscape (http://www.inkscape.org/) -->

<svg
   version="1.1"
   id="svg2"
   width="336"
   height="385"
   viewBox="0 0 336 385"
   sodipodi:docname="29.svg"
   inkscape:version="1.1.2 (0a00cf5339, 2022-02-04)"
   xmlns:inkscape="http://www.inkscape.org/namespaces/inkscape"
   xmlns:sodipodi="http://sodipodi.sourceforge.net/DTD/sodipodi-0.dtd"
   xmlns="http://www.w3.org/2000/svg"
   xmlns:svg="http://www.w3.org/2000/svg">
  <defs
     id="defs6" />
  <sodipodi:namedview
     id="namedview4"
     pagecolor="#505050"
     bordercolor="#eeeeee"
     borderopacity="1"
     inkscape:pageshadow="0"
     inkscape:pageopacity="0"
     inkscape:pagecheckerboard="0"
     showgrid="false"
     inkscape:zoom="1.4711494"
     inkscape:cx="150.90241"
     inkscape:cy="156.00047"
     inkscape:window-width="1920"
     inkscape:window-height="1043"
     inkscape:window-x="0"
     inkscape:window-y="0"
     inkscape:window-maximized="1"
     inkscape:current-layer="g8" />
  <g
     inkscape:groupmode="layer"
     inkscape:label="Image"
     id="g8">
    <path
       id="path32"
       style="fill:#000000"
       d="M 3.4199219,0.09765625 C 0.75943969,0.20873718 -1.7452722e-4,0.52988746 0,1.109375 3.3660544e-4,2.2270154 2.4993432,2.4861838 12.75,2.4316406 19.762269,2.3943287 27.975,2.7704023 31,3.265625 c 3.025,0.4952227 7.525,1.1372923 10,1.4277344 2.475,0.290442 4.709522,0.7264948 4.966797,0.96875 0.407198,0.3834262 3.811111,-0.025147 9.810547,-1.1777344 C 56.725313,4.3022551 59.4125,4.1182531 61.75,4.0761719 64.0875,4.0340907 66,3.6157015 66,3.1464844 66,2.2993049 53.260557,1.5526737 18.25,0.34765625 10.642172,0.08580481 6.0804039,-0.01342468 3.4199219,0.09765625 Z M 310.13477,0.15625 c -0.0572,0.005598 -0.10519,0.0210846 -0.0723,0.0253906 0.0675,0.008785 0.13542,0.0112311 0.20312,0.0195313 -7.1e-4,-0.005215 -7e-4,-0.008443 -0.002,-0.0136719 -0.004,-0.0330749 -0.0717,-0.0368482 -0.1289,-0.03125 z m -88.72461,0.74414062 c -0.19151,-0.0460011 -0.4251,0.0248447 -0.70704,0.24999998 0.32661,-0.031167 0.65439,-0.056627 0.98243,-0.070312 -0.0807,-0.0885814 -0.17014,-0.15440138 -0.27539,-0.17968748 z M 70,3.03125 c -2.624543,0 -3.124804,0.2418459 -2,0.96875 0.825,0.5331559 1.725,0.96875 2,0.96875 0.275,0 1.175,-0.4355941 2,-0.96875 1.124804,-0.7269041 0.624543,-0.96875 -2,-0.96875 z m 25.5,1.0488281 c -5.34177,0.00177 -7.296053,0.3293855 -5.671875,0.9804688 2.002417,0.802708 8.638607,1.1177644 15.671875,0.7441406 3.07626,-0.1634184 27.43489,1.2946029 29.85547,1.7871094 1.17925,0.2399394 6.54997,0.5981976 11.93555,0.796875 5.38558,0.1986774 9.96144,0.530241 10.16796,0.7363281 0.64059,0.6392268 19.33593,0.4109124 19.99219,-0.2441406 C 178.07901,8.2541793 165.92806,7.210485 149.5,6.4804688 144.55,6.2605047 131.95,5.6162207 121.5,5.0488281 109.57153,4.4011605 100.84177,4.0783075 95.5,4.0800781 Z M 76.916016,4.1230469 C 76.56862,4.1087377 76.173438,4.171971 75.8125,4.3164062 75.014767,4.6356326 75.251073,4.873891 76.416016,4.921875 77.470182,4.9652961 78.060807,4.7287761 77.728516,4.3964844 77.56237,4.2303387 77.263411,4.137356 76.916016,4.1230469 Z m 7,0 C 83.56862,4.1087377 83.173438,4.171971 82.8125,4.3164062 82.014767,4.6356326 82.251073,4.873891 83.416016,4.921875 84.470182,4.9652961 85.060807,4.7287761 84.728516,4.3964844 84.56237,4.2303387 84.263411,4.137356 83.916016,4.1230469 Z M 180.73828,8.3183594 C 179.59635,8.4047233 179,8.6174862 179,8.9550781 c 0,0.5832907 2.31735,1.0783539 5.25,1.1210939 2.8875,0.04208 6.15,0.256332 7.25,0.474609 1.92062,0.381117 9.82712,1.127612 19.64648,1.857422 2.55573,0.189951 5.1236,0.64063 5.70508,1 0.58147,0.359371 2.13846,0.380737 3.46094,0.04883 1.32247,-0.33192 5.95657,-0.09385 10.29688,0.527344 4.3403,0.621189 11.94062,1.325252 16.89062,1.564453 20.92541,1.011189 27.52896,1.447279 37,2.447266 5.5,0.58071 17.37454,1.254314 26.38672,1.498047 9.01218,0.243734 16.62964,0.688246 16.92773,0.986328 0.80256,0.802559 8.1816,0.14384 8.1836,-0.730469 8.1e-4,-0.4125 -1.23555,-0.82016 -2.74805,-0.90625 -3.33153,-0.189623 -5.07539,-0.353172 -17.25,-1.611328 -5.225,-0.539965 -15.32918,-1.068347 -22.45312,-1.173828 -7.12397,-0.105481 -13.19896,-0.343579 -13.5,-0.529297 C 279.74576,15.343566 273.2,14.904798 265.5,14.554688 257.8,14.204572 250.15,13.711591 248.5,13.458984 246.85,13.206377 233.575,12.096152 219,10.990234 204.425,9.8843193 189.4625,8.7388483 185.75,8.4453125 183.56772,8.2727662 181.88021,8.2319955 180.73828,8.3183594 Z M 329.06055,22.158203 c -0.30137,-0.03944 -0.55569,0.0049 -0.69336,0.142578 -0.27535,0.275347 -0.71446,5.607383 -0.97461,11.84961 C 327.13242,40.392618 326.67827,46.175 326.38281,47 c -0.29545,0.825 -0.9184,15.675 -1.38476,33 -0.46635,17.325 -1.08051,37.8 -1.36328,45.5 -0.28276,7.7 -0.7888,21.65 -1.125,31 -0.33619,9.35 -0.79528,22.08047 -1.01954,28.28906 -0.70075,19.40112 -0.65096,103.44052 0.0645,109.07617 0.57252,4.5115 0.4513,5.22763 -0.75586,4.5 -8.60139,-5.18461 -16.75594,-10.87888 -15.95899,-11.14453 0.54769,-0.18256 3.77879,1.0723 7.17969,2.78907 3.40089,1.71677 6.41554,2.88914 6.69922,2.60546 0.28368,-0.28368 -2.91222,-2.21221 -7.10156,-4.28515 C 307.42762,286.25714 304,284.21065 304,283.78125 304,283.35186 306.50113,283 309.55859,283 c 3.05746,0 5.31073,-0.40049 5.00782,-0.89062 -0.56172,-0.90891 -24.45747,-0.5523 -25.38868,0.3789 -0.28139,0.2814 0.31308,0.51172 1.32032,0.51172 3.64625,0 27.79271,14.55167 31.25195,18.83398 0.6875,0.85108 1.25,3.49029 1.25,5.86329 v 4.31445 l -8.75,-4.59961 c -4.8125,-2.52959 -9.425,-5.15656 -10.25,-5.83789 -0.825,-0.68133 -3.3,-2.05327 -5.5,-3.04883 -9.66327,-4.37288 -23.5,-13.15769 -23.5,-14.91992 0,-1.06043 7.70937,1.69896 18.91797,6.77148 6.83001,3.09096 12.60307,5.43599 12.82812,5.21094 0.42709,-0.42709 -11.42409,-7.5725 -16.07031,-9.68945 C 289.20366,285.2277 288,284.07656 288,283.33984 c 0,-0.77378 -1.16139,-1.37618 -2.75,-1.42578 -15.57179,-0.48584 -19.24282,-0.48587 -19.19922,0.01 0.0279,0.31647 5.45462,3.72617 12.0586,7.57617 6.60394,3.85 13.44361,7.88324 15.19921,8.96289 9.29386,5.71544 20.15578,11.50255 24.56446,13.08789 l 4.98047,1.79102 0.32421,7.43359 c 0.17765,4.0877 0.052,7.86681 -0.27929,8.39844 -0.34109,0.54739 -2.24595,-0.1481 -4.39063,-1.60352 C 316.42484,326.15538 314.17863,325 313.51562,325 c -0.663,0 -2.02013,-0.9 -3.01562,-2 -0.99549,-1.1 -2.22145,-2 -2.72461,-2 -0.50316,0 -2.79661,-1.27474 -5.0957,-2.83203 -2.2991,-1.55729 -7.55469,-4.72091 -11.67969,-7.03125 -7.90438,-4.42712 -14.42386,-8.50288 -30,-18.75195 -5.225,-3.43804 -10.85,-6.7802 -12.5,-7.42774 -2.72131,-1.06797 -2.8146,-1.2454 -1.00391,-1.91601 2.82192,-1.04514 10.49329,-0.0162 12.40039,1.66406 6.50374,5.73008 34.38336,21.34907 35.72071,20.01172 0.25026,-0.25026 -1.02487,-1.15932 -2.83203,-2.01953 -3.77157,-1.79524 -21.93157,-13.42604 -26.04297,-16.67969 -1.51687,-1.20041 -2.52369,-2.5624 -2.23633,-3.02735 0.76831,-1.24315 -2.39787,-2.00102 -10.13672,-2.42578 -3.77777,-0.20735 -7.62664,-0.68156 -8.55273,-1.05273 -1.68068,-0.67362 -4.71389,-8.01642 -4.93164,-11.93945 -0.0633,-1.13952 -0.45291,-0.32282 -0.86524,1.81445 -0.86203,4.46831 0.42848,9.61726 3.58789,14.32812 1.18566,1.7679 2.4599,5.2554 2.83399,7.75 0.42297,2.82056 1.19449,4.53516 2.03906,4.53516 1.07629,0 1.15161,-0.74573 0.36523,-3.59375 -0.54578,-1.97658 -0.81238,-3.77356 -0.59375,-3.99219 0.21863,-0.21863 3.28831,1.60083 6.82227,4.04297 12.02879,8.31246 26.21727,16.91496 40.70703,24.68164 2.90471,1.55695 6.94696,3.96258 8.98242,5.34571 2.03546,1.38314 4.20355,2.51562 4.81836,2.51562 0.6148,0 2.8761,1.27315 5.02539,2.83008 2.14929,1.55694 5.14215,3.14098 6.65039,3.51953 1.50823,0.37854 2.74219,1.15654 2.74219,1.72851 0,0.57203 0.3481,0.82538 0.77344,0.5625 0.42534,-0.26287 3.01284,0.60626 5.75,1.93165 5.70166,2.76086 5.47656,2.69458 5.47656,1.58593 0,-1.19562 -9.56949,-6.25471 -10.35156,-5.47265 C 325.29185,332.04214 325,331.13268 325,329.66602 c 0,-3.26827 1.63505,-3.4053 6.48633,-0.54297 1.97992,1.16818 3.81851,1.90609 4.08594,1.63867 0.26742,-0.26743 -2.00141,-1.78479 -5.04102,-3.37305 -5.89336,-3.07941 -6.43481,-3.78399 -3.96875,-5.16406 1.41758,-0.79332 1.41758,-0.99539 0,-2.17188 -1.68449,-1.398 -2.15024,-5.05273 -0.64453,-5.05273 0.50441,0 3.01556,0.89989 5.58203,2 6.40835,2.74695 5.38241,0.26682 -1.24023,-2.99805 l -5.07422,-2.50195 0.28906,-5 c 0.15914,-2.75 0.3433,-6.02377 0.4082,-7.27539 0.11149,-2.14977 0.26935,-2.19853 2.86719,-0.87695 4.19088,2.13201 7.25,2.90015 7.25,1.82031 0,-0.53183 -2.21257,-1.76223 -4.91602,-2.73438 -3.65036,-1.31265 -5.03013,-2.36906 -5.36132,-4.10156 -0.52321,-2.73701 0.11623,-2.84404 4.93164,-0.83203 4.1478,1.73306 5.3457,1.86296 5.3457,0.58203 0,-1.28776 -8.61496,-4.43783 -9.92383,-3.62891 -0.59227,0.3661 -1.07617,-0.0109 -1.07617,-0.83593 0,-2.40709 1.46451,-2.68332 6.38281,-1.20313 2.53895,0.76411 4.61719,1.00232 4.61719,0.52735 0,-0.47498 -1.90858,-1.37802 -4.24023,-2.00586 -2.33165,-0.62785 -5.24493,-2.14728 -6.47461,-3.37696 -2.48901,-2.48902 -2.43309,2.8469 -0.73047,-69.55859 0.3298,-14.025 0.74708,-37.65 0.92578,-52.5 0.19473,-16.18263 0.94101,-32.00804 1.86523,-39.5 1.31456,-10.65612 3.32145,-55.217492 2.9043,-64.5 -0.0741,-1.65 0.31923,-5.356743 0.875,-8.236328 0.55577,-2.879586 0.64908,-5.804586 0.20703,-6.5 -0.44204,-0.695415 -0.65494,-5.14893 -0.47265,-9.896484 0.22282,-5.804108 -0.0487,-8.86668 -0.83008,-9.34961 -0.31958,-0.19751 -0.66738,-0.319938 -0.96875,-0.359375 z M 159.02734,23 c -5.32949,0 -9.69854,1.922749 -14.02734,6.171875 -1.925,1.889571 -5.055,4.209075 -6.95508,5.15625 -3.45188,1.720732 -3.45535,1.720471 -5.63086,-1.052734 -6.76094,-8.618425 -7.88193,-9.032831 -4.85937,-1.798829 C 129.61912,36.41744 133.62685,40 137.08984,40 c 1.55076,0 4.04857,1.100773 5.60352,2.46875 3.08503,2.714089 4.68013,3.212573 4.0957,1.28125 -0.20804,-0.6875 -2.25401,-2.15 -4.54687,-3.25 C 137.31364,38.135532 136.72369,36 141,36 c 1.84636,0 3,-0.517912 3,-1.345703 0,-0.739757 0.87426,-2.13599 1.94336,-3.103516 1.8526,-1.676577 2.15989,-1.67601 6.52344,-0.0098 2.51815,0.961692 4.8483,1.475921 5.17968,1.144531 0.33139,-0.331389 -1.28747,-1.358854 -3.59765,-2.283203 -3.69866,-1.479912 -4.02314,-1.855768 -2.72656,-3.152344 0.80983,-0.809838 3.55334,-1.70736 6.09765,-1.994141 C 163.29688,24.593651 164.43247,23 159.02734,23 Z m -37.1582,0.787109 c -2.51317,-0.214336 -6.61755,0.517007 -7.42773,1.625 -0.58492,0.799931 -3.02734,1.597294 -5.42579,1.771485 -4.77342,0.346676 -6.41685,2.237247 -2.9121,3.349609 3.3392,1.059822 13.30623,9.481214 14.04687,11.869141 1.32857,4.28347 0.93615,7.597615 -0.90039,7.603515 -4.1715,0.01329 -9.90028,2.445214 -12.95312,5.498047 -6.19999,6.199988 -3.99404,13.56471 7.71093,25.744141 3.83303,3.988402 7.22798,8.035972 7.54492,8.994141 0.52539,1.588335 0.83102,1.611734 3.44922,0.257812 1.57943,-0.816758 3.21538,-2.042868 3.63672,-2.724609 C 129.70983,86.042219 129.8329,83 128.83203,83 128.37395,83 128,83.675 128,84.5 c 0,0.825 -0.45,1.5 -1,1.5 -0.55,0 -1,-0.424797 -1,-0.943359 0,-1.494222 -4.19083,-8.197856 -4.76562,-7.623047 -0.28522,0.285193 -0.046,1.092179 0.5332,1.792968 0.57916,0.700795 1.34797,3.073438 1.70703,5.273438 l 0.65234,4 -2.1289,-2.443359 c -1.2177,-1.396685 -1.91879,-3.249496 -1.63672,-4.328125 0.34663,-1.325537 0.0737,-1.72548 -0.91602,-1.345704 -0.81833,0.31402 -3.45797,-1.434394 -6.30078,-4.171874 -4.01512,-3.866339 -5.09841,-5.678716 -6.03906,-10.105469 -0.95178,-4.479114 -0.89379,-5.778422 0.33789,-7.658203 C 108.6296,56.636822 114.10377,53 115.64258,53 c 0.184,0 0.62282,1.809294 0.97656,4.021484 0.61667,3.856387 1.89811,5.793302 3.0625,4.628907 0.49573,-0.495727 -0.18957,-2.975688 -2.18555,-7.900391 -0.58127,-1.434196 -0.17057,-1.75 2.27539,-1.75 4.72691,0 5.74288,-2.087219 3.66602,-7.525391 -1.18793,-3.110549 -3.47565,-6.06159 -7.0957,-9.154297 C 113.4036,32.810131 111,30.362096 111,29.878906 111,29.395717 112.37613,29 114.05859,29 c 1.68246,0 2.79552,-0.426814 2.47266,-0.949219 C 115.78856,26.849084 119.16445,25 122.10156,25 c 1.22782,0 1.93451,-0.2979 1.57032,-0.662109 -0.30268,-0.30267 -0.96502,-0.479336 -1.80274,-0.550782 z m 48.32422,0.529297 c -0.67493,0.365446 4.98142,2.470947 15.55664,5.707032 C 193.5875,32.42176 200,34.746871 200,35.191406 200,35.63594 199.50477,36 198.90039,36 c -0.60438,0 -2.64884,0.735941 -4.54297,1.634766 -2.47967,1.17668 -4.86818,1.465549 -8.53515,1.03125 -5.24043,-0.62065 -5.50382,-0.304187 -1.58985,1.919922 2.54049,1.443626 3.89859,1.313918 11.76758,-1.126954 3.025,-0.938321 7.4125,-1.9211 9.75,-2.183593 2.74781,-0.308569 4.25,-0.972241 4.25,-1.876953 0,-0.769619 -0.5625,-1.456424 -1.25,-1.527344 -0.6875,-0.07092 -2.375,-0.223714 -3.75,-0.339844 -2.32155,-0.196074 -15.21642,-3.899058 -24.5,-7.035156 -2.2,-0.743185 -5.56094,-1.616207 -7.46875,-1.941406 -1.68412,-0.287072 -2.61292,-0.360097 -2.83789,-0.238282 z m -4.14258,4.792969 c -0.77752,0.008 -0.65556,0.473252 0.94922,1.390625 1.375,0.786021 3.4,1.407992 4.5,1.382812 1.54837,-0.03544 1.32256,-0.354486 -1,-1.417968 -1.99468,-0.913352 -3.67169,-1.363491 -4.44922,-1.355469 z M 119.5,30 c -1.62953,0 -2.5,0.559967 -2.5,1.607422 0,1.054521 0.54404,1.398311 1.58203,1 C 119.45201,32.273578 120.57701,32 121.08203,32 121.58704,32 122,31.55 122,31 c 0,-0.55 -1.125,-1 -2.5,-1 z m 42,2.988281 3,1.414063 c 1.65,0.777283 3.18685,1.23002 3.41602,1.005859 0.70315,-0.687795 -0.28752,-1.219132 -3.41797,-1.832031 z m 18.5,0.04297 c -2.62454,0 -3.1248,0.241846 -2,0.96875 0.825,0.533156 1.725,0.96875 2,0.96875 0.275,0 1.175,-0.435594 2,-0.96875 1.1248,-0.726904 0.62454,-0.96875 -2,-0.96875 z m -5.5,2 c -0.55,0 -0.325,0.435594 0.5,0.96875 0.825,0.533156 1.95,0.96875 2.5,0.96875 0.55,0 0.325,-0.435594 -0.5,-0.96875 -0.825,-0.533156 -1.95,-0.96875 -2.5,-0.96875 z m 13.5,0.09766 c -0.45312,0 -0.90625,0.07028 -1.25,0.208985 -0.6875,0.277413 -0.125,0.503906 1.25,0.503906 1.375,0 1.9375,-0.226493 1.25,-0.503906 -0.34375,-0.138706 -0.79688,-0.208985 -1.25,-0.208985 z m -41.09375,0.994141 c -0.76667,-0.0563 -1.36782,0.0045 -1.59766,0.234375 -0.26742,0.267424 0.7924,1.176769 2.35352,2.021484 3.04772,1.649101 4.50145,1.628467 5.06836,-0.07227 0.26684,-0.800533 -3.52422,-2.01469 -5.82422,-2.183594 z M 158.5,37.070312 c -0.55,0 0.125,0.643667 1.5,1.429688 1.375,0.786021 2.95,1.429688 3.5,1.429688 0.55,0 -0.125,-0.643667 -1.5,-1.429688 -1.375,-0.786021 -2.95,-1.429688 -3.5,-1.429688 z m 13.67773,1.398438 C 172.06348,38.508529 172,38.593366 172,38.724609 c 0,0.524972 1.125,1.467258 2.5,2.09375 3.51692,1.602418 3.19546,3.511129 -0.5,2.96875 -1.65,-0.242168 -3,-0.06802 -3,0.386719 C 171,44.628572 171.43419,45 171.96484,45 c 0.53065,0 1.47461,0.953021 2.09766,2.117188 0.90841,1.697383 0.80359,2.440204 -0.5293,3.75 -1.53986,1.513173 -1.8067,1.455351 -3.63672,-0.777344 -1.08643,-1.325494 -2.39994,-3.125494 -2.91796,-4 -0.80289,-1.355401 -1.07913,-1.379431 -1.87696,-0.164063 -0.67767,1.032316 -0.13206,2.176991 1.98047,4.150391 1.6047,1.49901 2.91797,3.233872 2.91797,3.855469 0,2.160295 -2.95707,2.247292 -5.60547,0.164062 C 161.54371,51.853244 158.507,51.370642 157.5,53 c -0.33992,0.55 0.29293,1 1.40625,1 3.20251,0 8.78572,5.549422 9.51953,9.460938 0.77878,4.151268 6.63825,9.576095 14.31445,13.253906 2.88183,1.380737 5.03719,2.836064 4.79102,3.234375 -0.91914,1.487205 -8.00884,0.934895 -12.44141,-0.96875 -4.26365,-1.831103 -4.16059,-1.506343 0.57422,1.804687 1.6831,1.176986 1.62697,1.248783 -0.66406,0.876953 -1.375,-0.22316 -3.36134,-0.763931 -4.41406,-1.203125 -1.35246,-0.564241 -1.70232,-0.455579 -1.19141,0.371094 1.11508,1.80424 -1.98059,1.416685 -6.63086,-0.830078 -5.72907,-2.767986 -6.5149,-2.503999 -2.82031,0.947266 2.35273,2.197776 4.35008,3.042511 7.85547,3.320312 9.69111,0.768015 12.73831,0.702722 18.64062,-0.394531 9.41697,-1.750635 9.36513,-1.692961 4.50977,-4.914063 -2.44654,-1.623063 -4.79206,-2.952678 -5.21094,-2.955078 -1.82328,-0.01025 -10.76169,-6.726126 -11.9414,-8.972656 -0.71334,-1.35829 -2.08438,-3.27079 -3.04688,-4.25 -2.43539,-2.477671 -2.22123,-3.31931 1.5,-5.890625 4.63394,-3.201986 6.94813,-5.762054 6.24219,-6.904297 C 178.15667,49.443448 178.53197,49 179.32617,49 180.55216,49 184,45.026345 184,43.613281 c 0,-0.251697 -1.6875,-1.011452 -3.75,-1.6875 -2.0625,-0.676047 -4.7625,-1.888497 -6,-2.693359 -0.92812,-0.603647 -1.72949,-0.88301 -2.07227,-0.763672 z m -14.09179,3.791016 c -0.0401,0.06041 0.42346,0.438853 1.35547,1.185546 2.04026,1.634589 2.55859,1.855064 2.55859,1.089844 0,-0.255649 -1.0125,-0.954995 -2.25,-1.554687 -1.08032,-0.52352 -1.62392,-0.781113 -1.66406,-0.720703 z M 137.29297,42.375 C 137.11172,42.454928 137,42.650177 137,42.941406 137,43.523865 137.45,44 138,44 c 0.55,0 1,-0.198865 1,-0.441406 0,-0.242541 -0.45,-0.718675 -1,-1.058594 -0.275,-0.16996 -0.52578,-0.204928 -0.70703,-0.125 z m 2.97461,2.796875 c -0.19314,0.11218 -0.22128,0.775307 -0.23633,2.078125 -0.0175,1.5125 0.39262,2.75 0.91016,2.75 1.74272,0 2.00494,-1.692739 0.55859,-3.603516 -0.68039,-0.898859 -1.03929,-1.336789 -1.23242,-1.224609 z m 9.70312,0.01563 c -0.28876,-0.02414 -0.49687,0.0047 -0.59375,0.101562 -0.33143,0.331424 0.91024,1.524762 2.75977,2.652344 3.53406,2.154574 5.86328,2.63643 5.86328,1.210938 0,-0.981859 -6.00796,-3.795879 -8.0293,-3.964844 z M 131.44922,47 c -2.63629,0 3.54761,6.748974 6.77539,7.394531 2.03903,0.407806 3.17271,1.444449 3.91992,3.587891 C 143.14826,60.861733 145,61.276116 145,58.621094 145,57.2813 140.55067,53 139.1582,53 c -0.4549,0 -2.02984,-1.35 -3.5,-3 -1.47015,-1.65 -3.36477,-3 -4.20898,-3 z m 95.5918,2.308594 c -4.07476,0.02765 -7.91754,0.535179 -9.55274,1.507812 -1.60279,0.953353 -0.66874,1.05724 4.8125,0.539063 10.24803,-0.968813 18.71755,2.029311 26.26172,9.294922 4.78118,4.604653 6.07927,8.643451 5.01367,15.605468 C 253.21895,78.589688 252.03348,81.625 250.94336,83 l -1.98047,2.5 -4.86523,-5.193359 c -2.67517,-2.855832 -5.80792,-7.143456 -6.96289,-9.529297 C 234.43538,65.201147 228.87137,59.891387 222.2832,56.603516 216.30225,53.618678 216,53.554321 216,55.253906 c 0,0.689287 -1.31933,2.497763 -2.93164,4.019532 -3.33072,3.143661 -9.17765,14.855324 -11.63281,23.300781 l -1.65235,5.68164 3.77344,3.357422 c 2.0751,1.846118 4.59798,3.619068 5.60742,3.939453 1.00945,0.320386 1.83594,1.376387 1.83594,2.347657 0,0.97127 0.26888,2.034524 0.59766,2.363279 1.07166,1.07166 3.53054,-0.484551 2.99023,-1.892576 C 214.18179,97.312813 215.30988,97 219.53125,97 c 6.38605,0 7.50413,-1.944163 1.21875,-2.119141 -6.48707,-0.180592 -9.27803,-1.106296 -13.17773,-4.375 -4.17615,-3.500432 -4.35081,-5.100778 -1.50391,-13.734375 2.63033,-7.976803 4.46949,-10.63402 6.17773,-8.925781 0.80878,0.80878 0.88579,1.482506 0.22461,1.945313 C 211.42647,70.521933 209,75.48337 209,76.886719 209,77.722518 213.42355,80 215.04688,80 216.82,80 216.01395,78.237598 214,77.710938 c -2.43102,-0.635729 -2.57712,-3.441151 -0.3457,-6.626954 1.33981,-1.912845 1.42387,-2.727209 0.44726,-4.291015 -0.98266,-1.57348 -0.86303,-2.515217 0.64063,-5.089844 2.45651,-4.206126 6.67289,-4.630001 10.78906,-1.085937 1.633,1.406027 3.41875,2.853725 3.96875,3.21875 1.05632,0.701053 7.60564,8.758503 8.90625,10.957031 0.42109,0.711804 0.16476,2.036605 -0.57031,2.943359 -0.90161,1.112199 -0.93801,1.408468 -0.11133,0.91211 0.76047,-0.456606 2.92614,1.040888 5.71094,3.947265 3.50195,3.654835 4.28477,5.058117 3.5664,6.400391 -1.13024,2.111876 -1.64616,8.691728 -0.75195,9.585937 0.66116,0.661163 1.14477,-1.030821 2.23828,-7.832031 0.65684,-4.085341 1.78566,-4.724 3.53711,-2 1.01148,1.573155 1.06052,1.547892 0.47656,-0.25 -1.0962,-3.375037 -1.04998,-3.907968 0.3418,-3.955078 2.3731,-0.08032 4.71452,-9.168261 4.30078,-16.6875 C 256.99545,65.148143 248.78055,55 246.73633,55 c -0.59322,0 -1.78989,-0.598286 -2.65821,-1.330078 -0.8683,-0.731793 -3.60968,-2.078289 -6.09179,-2.992188 -2.56424,-0.94414 -6.87056,-1.396788 -10.94531,-1.36914 z M 144.32617,50 c -1.8281,0 -1.6771,0.550731 0.92383,3.359375 2.15613,2.328324 4.75,3.395839 4.75,1.955078 C 150,54.055829 145.67002,50 144.32617,50 Z m -18.39844,1 c -0.48457,0 -0.45497,1.116348 0.0684,2.492188 0.52096,1.370223 0.68755,3.170221 0.36914,4 -0.61344,1.598587 1.1354,2.126285 2.06446,0.623046 C 129.14923,56.950594 127.05708,51 125.92773,51 Z m 5.63086,6 c -0.24254,0 -0.71867,0.45 -1.05859,1 -0.33992,0.55 -0.14105,1 0.44141,1 C 131.52387,59 132,58.55 132,58 c 0,-0.55 -0.19887,-1 -0.44141,-1 z m 23.88282,0 c -0.85748,0 -1.28133,0.45 -0.94141,1 0.33992,0.55 1.04105,1 1.55859,1 C 156.57613,59 157,58.55 157,58 c 0,-0.55 -0.70113,-1 -1.55859,-1 z m -4.10938,2.576172 c -0.23605,0.02781 -0.44687,0.138281 -0.63672,0.328125 -0.75938,0.759376 -0.38341,1.797608 1.29297,3.582031 2.25528,2.400641 5.01172,3.365795 5.01172,1.753906 0,-0.41812 -1.17772,-2.031577 -2.61719,-3.583984 -1.39368,-1.503029 -2.34262,-2.163524 -3.05078,-2.080078 z m -14.12891,0.539062 c -0.86456,-0.278665 -1.22786,0.656148 -0.59374,2.308594 0.46511,1.212047 0.96636,1.398868 1.72265,0.642578 0.75629,-0.756289 0.72334,-1.411424 -0.11523,-2.25 -0.38109,-0.381091 -0.72547,-0.608283 -1.01368,-0.701172 z m -11.46874,3 c -0.10314,-0.01498 -0.206,0.0224 -0.30665,0.123047 -0.28882,0.288821 -0.18552,1.817133 0.22852,3.394531 0.555,2.11443 0.85233,2.391845 1.13281,1.058594 0.37504,-1.782677 -0.33272,-4.471299 -1.05468,-4.576172 z m 19.04101,1.185547 c -0.90719,-0.07049 -0.40904,1.122455 1.85938,3.117188 2.74816,2.416608 8.15029,3.661305 6.86523,1.582031 -0.33992,-0.55 -1.08416,-1 -1.6543,-1 -0.57013,0 -2.36897,-0.949375 -3.99804,-2.109375 -1.47657,-1.051403 -2.52795,-1.54755 -3.07227,-1.589844 z M 119.89844,65 c -1.59422,0 -1.82701,1.814428 -0.38672,3.009766 0.81894,0.679663 1.50283,2.193125 1.51953,3.363281 0.0267,1.86863 0.14897,1.922761 1.00977,0.447265 C 123.05556,70.081294 121.45926,65 119.89844,65 Z m 18.97656,1.259766 c -0.23162,-0.0693 -0.41315,-0.0556 -0.52344,0.05469 -0.44116,0.441156 1.11906,2.576314 3.4668,4.744141 C 144.1661,73.226403 146.79758,75 147.66602,75 c 1.29016,0 1.35116,-0.274377 0.33398,-1.5 -0.68469,-0.825 -1.7529,-1.495234 -2.37305,-1.490234 -0.62016,0.005 -2.3306,-1.4552 -3.80078,-3.244141 -1.10263,-1.341706 -2.25632,-2.297972 -2.95117,-2.505859 z M 114.22461,67 c -1.21157,0 -1.17223,0.43033 0.23633,2.580078 0.93005,1.419434 1.46249,3.175548 1.18359,3.902344 -0.27889,0.726795 -0.24907,1.578759 0.0644,1.892578 C 116.57336,76.239075 118,75.063871 118,73.488281 118,70.948813 115.70238,67 114.22461,67 Z m 49.22851,0.212891 c -0.275,0.275 -0.2094,1.260059 0.14649,2.1875 0.35589,0.927441 0.87344,1.460543 1.14844,1.185547 0.275,-0.275003 0.20745,-1.258106 -0.14844,-2.185547 -0.35589,-0.927441 -0.87142,-1.4625 -1.14649,-1.1875 z M 222.67578,69 c -1.41045,0 -2.95051,4.74727 -2.02539,6.244141 0.82607,1.336608 4.06462,0.806837 6.3418,-1.03711 2.10882,-1.707617 2.12912,-1.861253 0.42383,-3.25 -1.60445,-1.306625 -1.72266,-1.275713 -1.13477,0.292969 0.71676,1.912518 -0.021,2.200645 -2.16016,0.845703 -0.75798,-0.480086 -1.06737,-1.372883 -0.68945,-1.984375 C 223.81449,69.491865 223.47947,69 222.67578,69 Z m -91.6543,1.048828 c -1.00399,0.09744 -1.11047,1.139176 0.0254,2.507813 0.73267,0.882843 1.63154,3.929844 1.99609,6.771484 0.51444,4.010036 0.32455,5.413296 -0.84375,6.267578 C 131.28576,86.263645 131.01123,87.209159 131.5,88 c 0.64097,1.037107 1.04289,0.97836 1.9668,-0.285156 1.03908,-1.421026 1.46949,-1.340474 4.09765,0.759765 1.61503,1.29061 3.04003,2.24361 3.16797,2.119141 0.12793,-0.124469 -0.30773,-1.658925 -0.96875,-3.410156 C 139.03262,85.246809 137.86445,84 136.78125,84 c -1.27331,0 -1.78497,-0.783642 -1.79297,-2.75 -0.021,-5.246916 -1.28487,-10.427194 -2.67578,-10.960938 -0.52147,-0.200108 -0.95635,-0.272715 -1.29102,-0.240234 z m -4.33789,2.1875 c -0.76231,-0.203311 -0.75159,2.52446 0.35547,5.878906 C 127.74413,80.25162 128.68655,82 129.13477,82 c 0.97226,0 0.009,-5.673058 -1.44336,-8.498047 -0.41347,-0.80436 -0.75371,-1.197855 -1.00782,-1.265625 z m 11.50782,1.779297 c -1.30144,-0.06393 1.65961,2.449075 4.17773,3.544922 3.88468,1.690554 5.91617,1.797345 5.41211,0.285156 -0.29081,-0.872437 -7.43028,-3.723989 -9.58984,-3.830078 z M 154.88281,75 c -0.55,0 -0.72273,0.45 -0.38281,1 0.33992,0.55 1.06719,1 1.61719,1 0.55,0 0.72273,-0.45 0.38281,-1 -0.33992,-0.55 -1.06719,-1 -1.61719,-1 z m 7.47852,0 c -0.39022,0 0.34692,1.125 1.63867,2.5 2.39771,2.552242 4,3.199396 4,1.615234 C 168,78.199983 163.61557,75 162.36133,75 Z m 65.86719,0.269531 C 227.5835,75.174447 227,75.697493 227,76.916016 227,78.144353 227.64659,79 228.57422,79 c 0.93124,0 1.44138,-0.681205 1.25,-1.667969 -0.24328,-1.254384 -0.95069,-1.967416 -1.5957,-2.0625 z M 206.87695,80 c -1.86901,0 -0.75747,1.812849 1.45117,2.367188 1.28071,0.321437 2.87449,1.781253 3.54102,3.24414 1.15611,2.537366 1.27425,2.573651 2.58203,0.785156 0.75398,-1.031135 1.15642,-2.223491 0.89258,-2.65039 C 214.81648,82.892949 208.27764,80 206.87695,80 Z m 26.70703,1 C 232.71315,81 232,81.713151 232,82.583984 c 0,1.765927 2.15341,1.457739 2.77148,-0.396484 C 234.98919,81.534375 234.45482,81 233.58398,81 Z m 21.28321,4.080078 c -0.62626,0.06091 -0.53076,1.352236 0.36914,3.736328 0.97218,2.575601 0.9209,3.982374 -0.26758,7.361328 -0.80806,2.297383 -2.0755,4.373936 -2.81641,4.615236 -1.06307,0.34624 -1.11578,0.006 -0.25,-1.611329 0.60341,-1.127478 1.07006,-3.316577 1.03516,-4.865235 L 252.87305,91.5 251.87695,94 c -1.26324,3.167961 -4.8303,7 -6.51562,7 -2.0032,0 -3.48267,-3.661537 -2.71875,-6.728516 0.60967,-2.447711 0.50318,-2.618818 -0.90039,-1.46289 -1.35367,1.114841 -1.63523,1.00744 -1.91407,-0.72461 -0.24682,-1.533462 -0.69654,-1.799912 -1.82812,-1.08789 -1.30237,0.81952 -1.3144,1.242997 -0.0898,3.216797 0.77553,1.250275 1.73137,3.70001 2.125,5.445312 l 0.71679,3.173827 -9.49218,0.71094 c -5.2204,0.39139 -12.38235,0.48091 -15.91602,0.19726 l -6.42578,-0.51562 -6.70899,5.26953 c -7.0497,5.53687 -12.24678,11.51659 -9.98828,11.49219 0.70397,-0.008 4.2043,-2.51759 7.7793,-5.57813 5.60191,-4.79575 12.69149,-9.4082 14.46094,-9.4082 1.19533,0 0.36327,1.96747 -3.21094,7.5957 -2.0625,3.24777 -5.28355,9.2793 -7.1582,13.4043 -7.29969,16.06229 -9.39408,19.8211 -10.75,19.30078 -1.6447,-0.63113 -1.71164,0.79309 -0.19532,4.1211 1.45473,3.19273 2.01739,2.79772 5.97461,-4.19336 1.78352,-3.15088 4.17526,-7.07852 5.31641,-8.72852 1.14114,-1.65 2.22629,-3.88581 2.41211,-4.96875 0.18583,-1.08295 1.36191,-4.00795 2.61328,-6.5 1.25136,-2.49206 3.29647,-7.79375 4.54492,-11.78125 L 216.2793,106 h 10.73828 c 6.78545,0 11.97861,-0.50341 14.10937,-1.36914 1.85466,-0.75355 3.95876,-1.15961 4.67578,-0.90039 0.71702,0.25923 2.74202,0.19637 4.5,-0.14063 6.24401,-1.19695 10.67246,-13.042385 6.45313,-17.261715 -0.87763,-0.87763 -1.51292,-1.28459 -1.88867,-1.248047 z m -20.57031,1.265625 c -0.73377,0.07541 -1.08994,1.030172 -0.6211,2.251953 C 233.97173,89.368885 234.61626,90 235.10742,90 c 1.14261,0 1.16748,-2.712019 0.0312,-3.414062 -0.31221,-0.192955 -0.59721,-0.265371 -0.84179,-0.240235 z m -101.22461,3.587891 -2.64063,3.990234 c -5.06997,7.661252 -4.59513,22.884542 0.76758,24.626952 0.93436,0.30359 2.01067,1.54064 2.39258,2.75 0.38191,1.20937 2.20456,4.0461 4.05078,6.30274 3.80201,4.64722 3.95022,5.58222 1.85156,11.76367 -2.11483,6.2291 -1.21817,8.00344 3.65234,7.22461 2.27114,-0.36317 3.85352,-0.21307 3.85352,0.36523 0,0.5396 2.5875,2.63189 5.75,4.64844 3.1625,2.01656 7.02147,4.72896 8.57617,6.0293 2.48069,2.07485 3.85786,2.36523 11.25,2.36523 H 181 v 5.41797 c 0,2.98002 0.22609,6.01752 0.50195,6.75 0.2876,0.76366 -0.7865,2.06241 -2.51757,3.04492 -1.66042,0.9424 -3.30299,2.5174 -3.6504,3.5 -0.34741,0.9826 -1.57688,2.83687 -2.73242,4.12109 l -2.10156,2.33594 2.25,1.82617 c 2.3337,1.89325 2.9427,5.80126 1.375,8.82032 -0.48102,0.92634 -1.17524,11.13359 -1.54297,22.68359 -0.36772,11.55 -1.05755,23.25 -1.5332,26 -0.47565,2.75 -0.78202,8.27955 -0.68164,12.28906 0.1702,6.7979 0.0461,7.27042 -1.8418,7 -2.47914,-0.35513 -3.23328,-5.37143 -1.52148,-10.12109 0.96212,-2.66956 2.31636,-22.27648 3.50195,-50.66797 0.14928,-3.575 0.77176,-7.76614 1.38281,-9.31445 1.46416,-3.70994 1.40181,-4.68555 -0.30078,-4.68555 -0.89514,0 -1.64481,1.55591 -2.04687,4.25 -1.02864,6.89258 -2.7429,14.1751 -3.59375,15.25977 -0.43545,0.55512 -0.82067,10.27249 -0.85547,21.59375 -0.0598,19.46757 -0.20038,20.94658 -2.57813,27.26367 -1.38277,3.67367 -2.51367,7.3438 -2.51367,8.15625 0,1.76251 5.44276,2.01899 9.56641,0.45117 3.14475,-1.19563 7.56852,-0.29508 5.33398,1.08594 -1.74336,1.07745 17.80077,0.24717 25.09961,-1.06641 11.95034,-2.15071 10.64075,-2.64608 11.42578,4.32031 0.38335,3.40193 0.85148,9.1976 1.04102,12.87891 0.18954,3.6813 0.63294,7.15794 0.98437,7.72656 0.66141,1.07018 3.41236,17.05055 3.54297,20.58008 0.0407,1.1 0.39734,5.375 0.79102,9.5 0.43943,4.60434 0.25243,10.39566 -0.48243,15 -0.65836,4.125 -1.2209,9.61137 -1.25,12.19141 -0.0291,2.58004 -0.41759,4.91595 -0.86328,5.1914 -0.44569,0.27545 -2.7387,0.0104 -5.0957,-0.58789 -3.93729,-0.99939 -4.24165,-1.30542 -3.74805,-3.77344 0.74994,-3.7497 -2.75071,-24.46493 -4.61523,-27.31054 -2.38824,-3.64491 -5.64259,-15.62285 -6.18164,-22.75586 -0.66001,-8.73374 -3.33992,-27.80797 -4.07422,-28.9961 -1.44174,-2.33278 -2.34662,-0.57928 -1.95703,3.79102 0.23289,2.6125 0.65137,9.16 0.92969,14.55078 l 0.50585,9.80274 -2.72656,-1.85352 C 183.44627,293.0001 173.74816,288.36359 165.5,285.38672 L 157.5,282.5 164,282 c 3.575,-0.275 10.02919,-0.11497 14.34375,0.35547 5.18834,0.56572 8.19599,0.50518 8.87891,-0.17774 1.48718,-1.48718 -6.68795,-3.50046 -10.95899,-2.69921 -1.87955,0.3526 -8.10749,0.65698 -13.83984,0.67578 -5.73234,0.0188 -10.67442,0.4411 -10.98242,0.93945 -0.308,0.49835 0.0514,0.90625 0.79882,0.90625 0.74746,0 1.87069,0.51131 2.4961,1.13672 0.6254,0.6254 5.58515,2.81585 11.02148,4.86719 18.22786,6.87795 28.89044,12.68181 26.91992,14.65234 -0.20306,0.20306 -5.05105,-1.86503 -10.77343,-4.5957 -10.52831,-5.02402 -24.93043,-10.3684 -25.7461,-9.55274 -0.24441,0.24441 0.408,0.73656 1.44922,1.0918 4.79612,1.63633 29.14802,13.00339 31.25977,14.5918 1.30214,0.97944 2.76464,1.53628 3.25,1.23632 0.48535,-0.29997 0.88281,0.15622 0.88281,1.01368 0,0.85746 -0.24151,1.55859 -0.53711,1.55859 -0.2956,0 -5.27339,-2.25 -11.06055,-5 -5.78716,-2.75 -10.9679,-5 -11.51367,-5 -0.54578,0 -2.65744,-0.86358 -4.6914,-1.91992 -6.47459,-3.3626 -26.65171,-12.11546 -27.88868,-12.09766 -0.65504,0.009 -1.51218,-0.50496 -1.90625,-1.14258 -0.52981,-0.85726 1.01656,-0.99681 5.93946,-0.53711 6.08497,0.56823 8.32552,-0.15342 5.63476,-1.8164 -0.56269,-0.34775 -14.17519,-0.54862 -30.25,-0.44531 -16.07482,0.10333 -30.12656,0.19131 -31.22656,0.19531 -1.1,0.004 -9.2,-0.0293 -18,-0.0762 -8.8,-0.0469 -17.125,0.0657 -18.5,0.25 -1.375,0.18434 -12.9625,0.39269 -25.75,0.46289 C 1.6110597,280.99201 0,281.12464 0,282.79297 c 0,1.25992 3.0456597,3.37631 10.25,7.125 5.6375,2.9334 13.4,7.22028 17.25,9.52539 13.105291,7.84655 26.887178,14.29923 32,14.98242 2.75,0.36746 7.025,1.29847 9.5,2.06836 2.475,0.76989 9,2.60359 14.5,4.07617 5.5,1.47258 13.518332,3.97291 17.81836,5.55469 7.60375,2.79707 10.67085,3.53023 9.38672,2.24609 -0.34588,-0.34587 -5.30888,-2.53646 -11.027346,-4.86718 C 89.455517,319.33757 83.921063,317.75025 75,316.42383 61.086249,314.35508 41.033641,305.83167 23.5,294.53516 20.75,292.7634 16.138894,290.00721 13.251953,288.4082 10.365012,286.80919 8.0025123,285.1625 8.0019531,284.75 8.0001189,283.39693 21.651646,283.96581 26,285.5 c 2.338299,0.825 4.630161,1.5 5.09375,1.5 0.463589,0 0.584161,-0.675 0.267578,-1.5 -1.058382,-2.7581 8.835736,-1.8892 17.363281,1.52539 4.156461,1.66433 7.774703,2.80928 8.041016,2.54297 0.266312,-0.26632 -1.371973,-1.22704 -3.640625,-2.13477 -6.162116,-2.46559 -5.119649,-3.65364 2.720703,-3.10156 6.942449,0.48886 25.496261,6.7129 45.154297,15.14844 9.42395,4.04396 9.67823,3.40895 0.56055,-1.40039 -5.951308,-3.13915 -22.165306,-10.2467 -26.220706,-11.49414 -1.187832,-0.36537 -2.65525,-1.26144 -3.261719,-1.99219 -0.905354,-1.09088 0.197362,-1.24259 6.160156,-0.8457 6.030806,0.40141 8.529615,1.16334 14.734375,4.49023 4.109514,2.20345 8.511104,4.6873 9.781254,5.51953 1.27015,0.83224 2.527,1.29331 2.79492,1.02539 0.26792,-0.26792 -3.0999,-2.6561 -7.484377,-5.30664 -7.833094,-4.73531 -9.558404,-7.10568 -4.253906,-5.8457 1.478793,0.35126 7.087083,2.89431 12.460933,5.65039 5.37384,2.75608 10.00152,4.77973 10.28516,4.49609 0.28364,-0.28363 -3.09955,-2.39773 -7.51953,-4.69726 -8.41862,-4.37985 -9.889428,-5.70747 -5.28711,-4.77149 2.52362,0.51322 28.63369,12.55793 39.25,18.10547 2.475,1.29331 5.625,2.67899 7,3.08008 5.07998,1.48183 21.91852,8.87932 34.39258,15.10938 6.92431,3.45827 6.87874,2.23717 -0.0684,-1.82618 -5.95431,-3.48279 -10.44781,-5.67038 -25.22656,-12.27343 -4.62098,-2.06462 -11.30609,-5.29277 -14.85547,-7.17579 -3.54939,-1.88297 -9.21802,-4.47487 -12.59766,-5.75781 C 122.74621,290.19234 112,284.8877 112,283.87305 c 0,-3.01296 16.97445,3.17303 41.70703,15.19726 18.80023,9.14011 38.81988,17.91383 40.89453,17.92383 0.99435,0.005 2.54616,3.81614 8.51172,20.91016 1.03749,2.97287 1.88672,6.70117 1.88672,8.28515 0,3.52696 -2.64908,7.79775 -4.86523,7.84375 -0.89924,0.0187 -3.43477,0.90412 -5.63477,1.9668 -2.2,1.06268 -4.53637,1.9481 -5.19141,1.9668 -0.65504,0.0187 -1.49025,0.5192 -1.85742,1.11328 -0.46002,0.74434 0.87091,0.90925 4.28321,0.5293 5.85409,-0.65187 7.87099,-1.31632 11.38281,-3.7461 2.53598,-1.75461 2.74318,-1.74823 6.70117,0.16406 2.24653,1.0854 4.89375,1.98035 5.88281,1.98828 3.12947,0.0266 4.60453,1.60716 4.07617,4.3711 -0.5228,2.73483 1.38315,5.25041 3.15039,4.1582 1.31902,-0.8152 6.0311,1.64313 8.57422,4.47266 l 1.99805,2.22265 -6,-0.58789 c -3.3,-0.32353 -14.1,-0.87845 -24,-1.23242 -12.75478,-0.45604 -18.82925,-1.06939 -20.84375,-2.10547 -1.56361,-0.80418 -2.68861,-1.61494 -2.5,-1.80273 0.18861,-0.18779 2.36875,-0.63672 4.84375,-0.9961 2.475,-0.35937 6.3,-1.06648 8.5,-1.57226 2.2,-0.50578 8.725,-1.2466 14.5,-1.64648 10.41899,-0.72152 10.45371,-0.7322 4.5,-1.41211 -3.3,-0.37685 -8.475,-0.2831 -11.5,0.20898 -8.92235,1.45142 -15,1.18022 -15,-0.66797 0,-0.97754 -0.6627,-1.42724 -1.75,-1.18945 -0.9625,0.21049 -1.6375,0.91742 -1.5,1.57226 0.1375,0.65484 -0.65621,1.19141 -1.76367,1.19141 -1.10746,0 -2.83746,0.51415 -3.84375,1.14258 -1.48783,0.92917 -2.53513,0.66252 -5.60547,-1.42383 -2.07661,-1.41109 -4.39661,-2.32666 -5.15625,-2.03516 C 165.62122,360.97509 165,360.71626 165,360.10742 165,359.49857 164.31755,359 163.48242,359 161.72824,359 153.10943,354.65364 148,351.19141 c -4.34693,-2.94554 -13.73524,-7.317 -25.5,-11.87305 -4.95,-1.91695 -11.25,-4.35762 -14,-5.42383 -7.97155,-3.09068 -20.5,-6.79494 -20.5,-6.06055 0,0.36977 3.0375,1.72322 6.75,3.00782 14.55183,5.03524 28.39223,10.75046 42.75,17.65234 30.98066,14.89264 36.47078,17.74403 35.9082,18.6543 -0.67255,1.0882 -15.00052,0.55604 -17.82226,-0.66211 -1.35937,-0.58684 -1.70493,-0.48715 -1.19141,0.34375 0.53133,0.85971 -1.63227,1.16992 -8.1582,1.16992 -8.30142,0 -9.13677,-0.19441 -12.8086,-2.97266 -2.16048,-1.6347 -4.6891,-2.9847 -5.61914,-3 -0.93004,-0.0153 -1.94035,-0.43304 -2.24609,-0.92773 C 124.97328,360.14623 100.78202,348 99.472656,348 c -1.381169,0 5.798104,4.66294 17.753904,11.53125 6.44952,3.7051 11.47679,7.13944 11.17188,7.63281 -0.69263,1.12069 -7.38004,-0.012 -9.39844,-1.59179 -2.18171,-1.70766 -12.63179,-7.87745 -19,-11.21875 C 89.216789,348.69573 70.597041,342.06897 69.253906,343.41211 68.651511,344.01451 73.425281,346 75.476562,346 c 1.625614,0 15.55222,5.89516 21.644532,9.16211 2.408906,1.29176 7.451516,4.37159 11.207026,6.84375 6.52689,4.29647 6.69734,4.50658 3.87891,4.79687 -1.96331,0.20221 -4.4119,-0.66957 -7.32812,-2.61132 -5.8822,-3.91662 -10.973772,-6.56803 -19.546879,-10.17579 -8.925252,-3.75594 -10.353693,-3.82792 -3.832031,-0.19335 2.75,1.53259 5.9,3.29647 7,3.91992 1.1,0.62345 5.05892,2.52147 8.796875,4.21679 3.737955,1.69533 6.544455,3.48973 6.236325,3.98829 -0.30813,0.49848 -2.69204,0.71903 -5.296872,0.49023 C 95.6315,366.20871 89.675,365.96142 85,365.88672 c -6.581744,-0.1052 -9.105813,-0.5638 -11.185547,-2.0332 -6.953814,-4.91311 -47.465113,-24.53684 -48.505859,-23.4961 -0.294083,0.29409 5.7321,3.65056 13.392578,7.45899 7.660478,3.80842 15.803005,8.10859 18.09375,9.55468 2.290746,1.44608 4.37912,2.62891 4.640625,2.62891 0.261505,0 2.13398,1.125 4.160156,2.5 l 3.683594,2.5 h -7.835938 c -6.799794,0 -8.171449,-0.30698 -10.388671,-2.32422 -1.405097,-1.27837 -4.531665,-3.06654 -6.947266,-3.97461 -5.197209,-1.95372 -4.67494,-1.11055 1.11914,1.80664 6.667449,3.35691 5.906771,4.35782 -2.925781,3.85157 -6.011387,-0.34457 -8.144912,-0.8699 -9.300781,-2.29297 -0.825,-1.01572 -4.425,-3.41145 -8,-5.32227 -3.575,-1.91081 -8.89389,-4.89192 -11.820312,-6.625 C 6.3849109,346.09515 0,342.83618 0,343.39062 c 0,0.47292 8.3518438,5.86113 22.960938,14.8125 L 32.423828,364 h -7.875 C 16.313605,364 12.794594,362.66045 4.40625,356.33398 0.79393989,353.60959 0,353.45781 0,355.48828 c 0,0.8181 1.9125,2.71061 4.25,4.20703 3.3098828,2.11893 3.8425263,2.8058 2.4101562,3.10352 -1.011566,0.21025 -2.8495611,-0.56895 -4.0859374,-1.73047 l -2.24804692,-2.11133 -0.13085938,3.46485 c -0.12594349,3.35009 0.0102464,3.48344 4.0878906,3.98437 C 6.602789,366.6912 15.925,367.19375 25,367.52344 c 9.075,0.3297 20.325,0.79695 25,1.03906 16.113515,0.83446 33.572894,1.4188 58.5,1.95703 13.75,0.2969 27.25,0.74943 30,1.00586 2.75,0.25643 11.525,0.70587 19.5,1 7.975,0.29412 20.125,0.99995 27,1.56641 6.875,0.56647 12.95,1.03306 13.5,1.03906 0.55,0.006 5.15535,-0.0522 10.23438,-0.12891 5.07902,-0.0767 9.60692,0.0907 10.06054,0.3711 1.094,0.67614 11.27903,1.39049 30.20508,2.11914 8.525,0.32821 21.575,1.0151 29,1.52734 7.425,0.51224 20.25,1.21712 28.5,1.56641 8.25,0.3493 15.07772,0.69888 15.17383,0.77539 0.0961,0.0765 3.35861,0.24615 7.25,0.37695 6.89725,0.23182 7.07617,0.1754 7.07617,-2.20117 0,-2.26644 -0.4044,-2.45751 -5.75,-2.73633 L 324.5,376.5 l 0.27148,-4 c 0.14971,-2.2 0.25141,-10.4125 0.22461,-18.25 -0.0542,-15.843 -0.26389,-15.46284 6.75391,-12.27734 3.22189,1.46247 4.25,1.6092 4.25,0.60546 0,-1.38618 -10.9481,-6.65783 -12.25,-5.89843 -0.4125,0.24061 -0.75,5.12964 -0.75,10.86328 v 10.42383 l -3.75,-1.7168 c -2.0625,-0.94514 -5.40558,-3.0759 -7.42969,-4.73438 -3.7147,-3.04361 -7.0999,-5.12331 -34.32031,-21.08789 -20.26765,-11.88684 -25.48493,-15.41926 -25.57812,-17.31835 -0.0434,-0.88464 -0.28357,-1.1159 -0.53321,-0.51172 -0.64491,1.56082 1.35197,6.40234 2.64063,6.40234 0.98466,0 8.36537,4.54795 19.9707,12.30469 2.475,1.65423 9.225,5.4538 15,8.44336 5.775,2.98955 14.25343,7.98167 18.8418,11.09375 9.9134,6.72378 13.45083,9.05701 14.25,9.40234 0.32531,0.14058 0.87617,1.71836 1.22461,3.50586 0.78505,4.02744 -1.13566,4.3523 -5.72266,0.9668 -1.70191,-1.25613 -4.21875,-2.82199 -5.59375,-3.47852 -2.57249,-1.2283 -4.05249,-2.11076 -18.20898,-10.86523 -4.56011,-2.82001 -11.66602,-6.93197 -15.79102,-9.13672 -4.125,-2.20475 -10.65,-5.81063 -14.5,-8.01367 -7.22454,-4.13401 -8.5,-4.3395 -8.5,-1.36524 0,1.10883 1.36042,2.22111 3.75,3.06446 7.56809,2.67092 26.04365,12.48587 36.75,19.52343 6.05,3.97681 14.2629,8.97393 18.25,11.10352 3.9871,2.12959 7.43198,4.56513 7.65625,5.41211 1.69011,6.38254 1.69848,7.2938 0.0625,6.66601 C 320.57083,377.28239 319.42299,377 318.91797,377 318.41296,377 318,376.18369 318,375.18555 c 0,-1.10127 -1.424,-2.49431 -3.62305,-3.54297 -4.84514,-2.31049 -5.45429,-1.36127 -0.98437,1.53515 6.12948,3.97178 5.2358,4.32934 -7.23633,2.88477 -6.0246,-0.69779 -7.91042,-1.36937 -10.5,-3.73633 -3.52209,-3.21931 -9.80785,-8.03074 -13.75,-10.52539 -1.42628,-0.90257 -5.12055,-2.10876 -8.20898,-2.67969 C 267.86035,358.04208 260,353.65686 260,351.48047 c 0,-0.68904 -0.67253,-2.53987 -1.49414,-4.11524 -0.82161,-1.57537 -1.497,-3.65273 -1.5,-4.61523 C 257.00247,341.7875 256.55,341 256,341 c -0.55,0 -1,2.20143 -1,4.89258 0,3.42685 -0.44947,5.06562 -1.5,5.46875 -0.825,0.31658 -1.5,1.32086 -1.5,2.23047 0,1.35027 0.27226,1.42751 1.48633,0.41992 2.04646,-1.69841 4.80715,-0.8081 13.33008,4.30273 6.8734,4.12167 10.18359,7.82141 10.18359,11.38282 0,3.14853 2.51785,0.43817 2.81055,-3.02539 0.1707,-2.01998 0.4984,-3.67188 0.72851,-3.67188 0.23012,0 3.57778,2.30547 7.43946,5.12305 7.06906,5.15776 9.11627,8.35164 4.77148,7.44531 -1.2375,-0.25814 -5.96448,-0.74272 -10.50391,-1.07617 -9.54173,-0.70091 -17.82991,-3.87619 -21.1582,-8.10742 -3.05507,-3.88389 -6.94865,-6.27059 -20.08789,-12.31641 -23.95089,-11.02064 -22,-9.8069 -22,-13.70117 0,-2.49809 0.3541,-3.2851 1.25,-2.7793 1,0.56457 1,0.43675 0,-0.64062 -0.6875,-0.74068 -1.25,-2.8218 -1.25,-4.62305 0,-3.12753 0.14634,-3.25148 3.25,-2.78906 l 3.25,0.48242 -3.25,-1.51172 c -1.7875,-0.83165 -3.25,-2.18439 -3.25,-3.00781 0,-2.13684 1.1049,-1.90889 8.76758,1.82031 3.75081,1.82541 7.36166,3.13922 8.02539,2.91797 0.66373,-0.22124 1.20703,0.12023 1.20703,0.75976 0,0.78239 -1.06322,0.94415 -3.25,0.49414 -9.03923,-1.86014 -8.57221,-1.89726 -5.25,0.41407 1.65,1.14794 4.575,2.59103 6.5,3.20703 3.58462,1.14707 6.93892,4.36492 6.97852,6.69531 0.0147,0.86126 -1.42726,0.40729 -4.22852,-1.33008 -6.13257,-3.80348 -14.78207,-7.77847 -15.45703,-7.10351 -0.3185,0.31849 0.27323,0.855 1.31445,1.1914 2.56526,0.82877 9.02882,4.23841 13.89258,7.32813 2.2,1.39756 4.36249,2.55592 4.80664,2.57422 0.44416,0.0183 1.6461,1.8332 2.66992,4.0332 1.32515,2.84748 1.88576,3.4055 1.94336,1.9375 0.0445,-1.13419 -0.76863,-3.83419 -1.80664,-6 -1.03801,-2.16581 -3.79479,-7.98412 -6.125,-12.92969 -2.33021,-4.94556 -5.7565,-11.36691 -7.61328,-14.26953 -1.85678,-2.90261 -3.375,-5.65927 -3.375,-6.12695 0,-2.98826 -7.73091,-22.71441 -8.57227,-21.87305 -0.2225,0.2225 0.64825,3.52328 1.9336,7.33399 3.51431,10.41897 3.51491,9.89178 -0.0137,10.23437 -3.00892,0.29214 -3.18308,0.10981 -3.83399,-4 -0.3751,-2.36836 -1.28758,-6.78164 -2.02734,-9.80664 -2.02917,-8.29766 -2.23681,-12.5 -0.61719,-12.5 0.75282,0 1.87782,1.56998 2.5,3.48828 0.68358,2.10762 1.89811,3.63493 3.06836,3.85938 1.81653,0.34841 1.83988,0.22283 0.38086,-2.00391 -0.8555,-1.30566 -1.89289,-3.94243 -2.30469,-5.85937 -0.41181,-1.91693 -1.02406,-3.93438 -1.35937,-4.48438 -1.14012,-1.87015 -4.0883,-10.99263 -4.1211,-12.75 -0.0375,-2.0098 0.39643,-2.12565 2.91211,-0.7793 0.99726,0.53372 8.05452,1.15631 15.6836,1.38477 13.6126,0.40764 13.91925,0.37109 16.49414,-2.03516 2.54219,-2.3757 2.74029,-2.4044 6.36328,-0.89062 4.36494,1.82378 12.14602,2.33836 13.58594,0.89843 0.66486,-0.66485 0.32529,-2.56577 -1.01368,-5.68945 -1.10614,-2.58053 -3.18005,-9.06836 -4.60937,-14.41601 -1.42933,-5.34764 -3.44389,-12.04469 -4.47656,-14.88282 -1.03266,-2.83813 -2.80908,-8.91313 -3.94727,-13.5 -1.39853,-5.63599 -2.75603,-8.86124 -4.1875,-9.94922 -2.08512,-1.58475 -2.04209,-1.64722 2.76367,-4 5.36212,-2.62513 19.95965,-16.60794 21.46094,-20.55664 0.67153,-1.76625 0.39975,-4.68714 -0.94531,-10.15625 C 272.07886,163.95508 270.69136,156.9 270.0332,152.5 266.67123,130.02415 265.54136,126.78059 258.09961,118.23438 254.00863,113.53619 243.97448,105 242.54297,105 c -1.31878,0 -0.3008,1.98517 2.70703,5.2793 11.31896,12.39634 15.80079,19.11056 17.16797,25.7207 0.28439,1.375 1.44654,5.2 2.58398,8.5 1.13744,3.3 2.50961,8.925 3.04883,12.5 0.53922,3.575 1.61588,9.42382 2.39258,12.99805 1.3101,6.02883 1.27701,6.71556 -0.45313,9.5 -2.21226,3.56037 -7.93228,9.09041 -13.49023,13.04101 -2.2,1.56376 -5.03126,3.88256 -6.29102,5.15235 -3.40968,3.43682 -4.82891,2.87428 -6.16406,-2.44141 -0.65618,-2.6125 -2.89545,-8.00317 -4.97656,-11.97852 l -3.78516,-7.22656 2.20313,-1.44336 c 1.21107,-0.79352 3.61766,-2.85984 5.34961,-4.59179 3.44398,-3.44398 4.4802,-3.43265 11.5332,0.1289 2.12856,1.07486 4.14811,1.67807 4.48633,1.33985 0.77421,-0.77421 -3.18332,-3.85985 -8.17774,-6.375 l -3.82421,-1.92383 -0.20508,-10.83985 C 246.44326,141.52359 245.17075,137 242.33008,137 c -0.8662,0 -0.93706,0.88257 -0.25977,3.24414 0.5116,1.78387 0.92969,7.413 0.92969,12.50977 0,9.04635 -0.0878,9.39079 -3.66016,14.50586 -2.01267,2.88186 -5.27517,6.70636 -7.25,8.49804 -3.48766,3.16422 -3.51373,3.24106 -0.91211,2.66016 2.53426,-0.56585 2.89749,-0.14015 6.75,7.93164 2.44465,5.12207 4.07227,9.97954 4.07227,12.15625 0,5.22702 1.55569,7.61114 4.74609,7.27344 2.51692,-0.26639 2.75777,0.12906 5.01563,8.2207 1.30449,4.675 4.11199,14.125 6.23828,21 2.12629,6.875 4.15681,14.38752 4.51172,16.69336 0.35491,2.30584 1.28441,4.72208 2.0664,5.37109 3.93152,3.26285 -1.81399,4.00039 -9.60742,1.23243 -4.48985,-1.59463 -5.01246,-1.59792 -8.13476,-0.0352 -5.66915,2.83793 -12.91712,3.7791 -19.9668,2.59375 -9.67145,-1.62619 -14.8951,-1.68693 -16.39062,-0.19141 -0.7313,0.7313 -1.92593,1.10782 -2.6543,0.83594 -0.72836,-0.27189 -4.21077,0.38565 -7.73828,1.46094 -3.52751,1.0753 -6.68104,1.78982 -7.00782,1.58789 -1.24447,-0.76912 -0.27812,-41.1735 1.20899,-50.54883 1.66334,-10.48641 2.11473,-16.73583 1.13867,-15.75977 -0.34942,0.34942 -1.72068,6.8505 -3.04883,14.44727 -1.9097,10.92312 -2.4344,17.56195 -2.5039,31.74023 -0.0932,19.01624 -0.72432,21.73114 -4.59961,19.76954 -0.97549,-0.49377 -4.23797,-0.99203 -7.25,-1.10743 -3.01204,-0.1154 -5.57814,-0.31252 -5.70313,-0.4375 -0.12498,-0.12499 0.19905,-4.0348 0.72071,-8.68945 0.52165,-4.65464 1.38095,-16.75533 1.91015,-26.89062 1.2436,-23.81766 1.8398,-31.07649 3.23047,-39.32227 1.06614,-6.3215 1.30332,-6.74813 3.72852,-6.70703 1.42428,0.0241 4.38984,0.69375 6.58984,1.48633 2.2,0.79257 7.825,1.49158 12.5,1.55468 4.675,0.0631 9.625,0.42949 11,0.81446 2.36802,0.66299 2.24415,0.82862 -2.35938,3.13281 -4.66059,2.33277 -9.23566,6.7077 -8.15039,7.79297 0.28487,0.28487 1.58311,-0.48418 2.88477,-1.70703 1.30167,-1.22285 5.91242,-3.54912 10.24609,-5.16992 7.41451,-2.77304 7.95673,-2.8437 9.19141,-1.19727 0.72165,0.96231 1.56702,2.99753 1.87891,4.52148 0.31188,1.52394 0.96348,3.0162 1.44921,3.31641 1.35743,0.83893 -6.09476,9.36285 -8.77343,10.03516 -2.88179,0.72328 -3.13542,2.37695 -0.36524,2.37695 1.10061,0 3.72925,-1.78019 5.8418,-3.95703 2.90984,-2.99839 4.12087,-3.67796 4.99805,-2.80078 0.63684,0.63684 1.1582,1.94157 1.1582,2.90039 0,1.82416 3.55136,4.85742 5.6875,4.85742 3.00381,0 3.43771,-3.86517 1.25586,-11.19141 -2.01781,-6.77541 -4.73951,-12.34643 -5.60742,-11.47851 -0.21611,0.21611 0.74415,3.54724 2.13476,7.40234 2.72098,7.5432 3.23265,11.66805 1.36914,11.04688 -0.63793,-0.21264 -1.92753,-1.8202 -2.86718,-3.57227 -0.93964,-1.75208 -2.16133,-3.7517 -2.71289,-4.44531 -0.55155,-0.69362 -1.56575,-3.73672 -2.25586,-6.76172 -1.92283,-8.42845 -1.84913,-8.28156 -3.76172,-7.45117 -3.23699,1.4054 -8.26184,1.67973 -9.65039,0.52734 -0.75919,-0.63008 -3.6781,-1.4174 -6.48633,-1.75 C 204.29723,180.99382 202,180.33472 202,179.86133 202,179.38794 201.37585,179 200.61328,179 c -2.00164,0 -2.47735,-5.24747 -0.92773,-10.22461 2.86869,-9.21383 4.13229,-13.44373 5.24023,-17.52539 0.67268,-2.47813 1.7491,-4.25 2.58203,-4.25 0.88893,0 1.20211,-0.59455 0.82617,-1.57422 -1.08189,-2.81938 4.03295,-15.18879 9.6875,-23.42578 0.94392,-1.375 2.04675,-3.625 2.45118,-5 0.40443,-1.375 1.39293,-3.53951 2.19531,-4.81055 0.80239,-1.27104 1.28391,-2.83576 1.07031,-3.47656 -0.40514,-1.21543 -2.6121,2.3493 -9.76953,15.78711 -8.38879,15.74965 -11.7393,22.51593 -12.25391,24.74023 -0.28744,1.24241 -1.46669,5.40819 -2.61914,9.25586 -1.15245,3.84766 -2.28218,9.02266 -2.50976,11.5 -0.67816,7.38193 -1.65023,10.13693 -3.45703,9.79493 -1.10127,-0.20845 -1.73182,-1.56531 -1.94727,-4.18946 -0.1753,-2.13496 -1.01984,-4.95166 -1.87695,-6.25976 -1.52622,-2.32931 -1.38683,-8.30551 0.41601,-17.8418 0.31193,-1.65 0.22301,-2.68398 -0.19726,-2.29688 -0.9967,0.91805 -2.45891,8.68935 -3.10352,16.4961 -0.41011,4.96678 -0.10579,6.9941 1.52735,10.19531 1.38335,2.71159 1.68788,4.2134 0.94921,4.66992 -3.41693,2.11179 -6.36853,-7.69353 -5.36328,-17.81445 l 0.66992,-6.75 h -3.02539 c -1.66386,0 -5.33296,0.53235 -8.15429,1.18359 -5.9563,1.37488 -7.83051,0.59468 -16.77344,-6.98047 -5.91461,-5.00998 -6.00102,-5.42143 -3.28711,-15.70312 1.66997,-6.32668 2.07423,-6.97373 4.19336,-6.71875 1.28956,0.15517 3.9889,1.95517 6,4 3.63069,3.69161 3.64692,3.74348 2.16016,7.21875 -0.82354,1.925 -1.72978,4.0625 -2.01368,4.75 -0.2839,0.6875 -0.0667,1.25 0.48243,1.25 0.54913,0 1.71739,-1.8 2.59765,-4 1.12329,-2.80737 2.20002,-4 3.60938,-4 1.81955,0 2.00781,0.65726 2.00781,7 0,3.85 0.34113,7 0.75781,7 0.41667,0 1.45965,-3.12075 2.31836,-6.93359 1.76861,-7.85348 1.67864,-8.04401 -5.33984,-11.30079 C 167.68127,131.81203 166,130.59732 166,130.06641 c 0,-1.46003 -6.12691,-5.81825 -9.28906,-6.60743 -1.53418,-0.38289 -2.70244,-0.30373 -2.59571,0.17383 0.10672,0.47757 -1.37154,4.24219 -3.28515,8.36719 -1.9136,4.125 -3.89537,8.50104 -4.4043,9.72461 -0.64545,1.55179 -1.33978,1.96529 -2.29492,1.36719 -1.14471,-0.71679 -1.0848,-1.73771 0.37109,-6.22461 0.95784,-2.95199 3.0837,-7.92275 4.72266,-11.04688 1.63895,-3.12413 2.65536,-6.20636 2.25781,-6.84961 -0.55121,-0.8921 -0.20655,-0.89326 1.45313,-0.006 2.07362,1.10977 2.0544,0.98449 -0.38672,-2.65039 -3.10253,-4.61972 -3.02675,-4.42008 -4.37305,-11.59961 -0.59656,-3.18137 -2.0702,-7.006358 -3.27539,-8.499996 L 142.70898,93.5 143.45312,96 c 2.39573,8.0433 1.4456,21.5 -1.51757,21.5 -2.24416,0 -6.13445,-8.47554 -5.47461,-11.92578 0.40419,-2.11353 -0.006,-3.526 -1.47852,-5.09375 -1.22286,-1.30169 -1.78542,-2.831018 -1.4043,-3.82422 C 135.06176,92.790096 139,96.217235 139,101.375 c 0,1.3787 0.49928,2.81629 1.10938,3.19336 0.7829,0.48386 0.90714,-0.51246 0.42187,-3.38477 -0.44126,-2.611764 -1.9014,-5.356292 -4.07422,-7.660152 z m 97.81835,9.876953 c -1.04436,-0.03894 -2.53915,-0.0061 -4.23242,0.109375 -4.76638,0.325018 -5.48049,0.556928 -3.1582,1.025388 3.26724,0.65907 8.28922,0.2026 8.91992,-0.81054 0.10866,-0.17457 -0.48489,-0.285284 -1.5293,-0.324223 z M 132.05859,100 c 0.51754,0 0.94141,0.675 0.94141,1.5 0,1.54641 -1.18045,1.98751 -2.30664,0.86133 C 129.89443,101.5624 130.79761,100 132.05859,100 Z m -0.73437,7.01172 c 0.80048,0.34139 2.42666,2.34875 4.25586,5.7539 2.5656,4.77608 3.7892,5.9961 7.31836,7.30079 4.73639,1.75099 4.74866,1.77999 2.5957,5.94336 -1.54836,2.9942 -2.49414,3.78439 -2.49414,2.08203 0,-0.49953 -2.025,-2.99248 -4.5,-5.53907 -2.475,-2.54659 -4.50938,-5.1754 -4.52148,-5.84179 -0.0121,-0.66639 -0.89015,-3.12344 -1.95118,-5.46094 -1.47762,-3.25527 -1.5036,-4.57967 -0.70312,-4.23828 z m 59.5,15.27148 c -0.83302,0.0146 -1.80696,0.42929 -3.54883,1.25586 -4.16555,1.97668 -6.27539,3.78826 -6.27539,5.38867 0,1.57422 0.84876,1.35097 5.74023,-1.51562 2.429,-1.42349 4.68677,-2.31714 5.01758,-1.98633 0.33081,0.33082 -0.66783,4.08272 -2.2207,8.33789 -1.55287,4.25518 -3.04158,9.26049 -3.30664,11.12305 -0.61917,4.35085 1.34284,3.37405 2.30664,-1.14844 0.69907,-3.28029 2.7647,-8.43315 7.19727,-17.94531 0.18091,-0.38834 -0.80917,-1.4512 -2.20118,-2.36328 -1.18312,-0.77522 -1.87596,-1.16111 -2.70898,-1.14649 z M 195.70117,153 c -0.91337,0 -1.16873,1.1137 -0.85742,3.75 0.36104,3.0573 0.58959,3.38056 1.23047,1.75 1.21938,-3.10243 1.05648,-5.5 -0.37305,-5.5 z m 50.53321,15.43164 c -0.64278,0.64274 4.36151,7.4785 7.17187,9.79688 2.52835,2.08579 2.59703,2.099 2.58203,0.52148 -0.0143,-1.51241 -9.02636,-11.04592 -9.7539,-10.31836 z m -0.2168,10.5625 c -0.87467,0.0961 -0.17681,1.57395 2.23633,5.26367 2.70109,4.13003 4.74609,5.94071 4.74609,4.20313 0,-1.60076 -4.30776,-8.64157 -5.58789,-9.13282 -0.63579,-0.24395 -1.10298,-0.36601 -1.39453,-0.33398 z m -16.69531,3.21094 C 229.11613,182.17895 229,182.31951 229,182.63281 c 0,0.56834 0.29935,1.33451 0.66602,1.70117 0.36666,0.36667 0.89942,0.43261 1.18359,0.14844 0.28417,-0.28416 -0.0152,-1.04838 -0.66602,-1.69922 -0.35878,-0.35878 -0.65519,-0.55199 -0.86132,-0.57812 z m -32.92579,7.24609 c -0.12033,-0.0521 -0.25469,-0.0388 -0.39648,0.0488 -0.55,0.33992 -1,1.49105 -1,2.55859 0,1.06754 0.45,1.94141 1,1.94141 0.55,0 1,-1.15113 1,-2.55859 0,-1.08852 -0.24251,-1.83379 -0.60352,-1.99024 z m 19.6504,7.58008 C 214.51972,196.99781 208,202.80871 208,204.20312 c 0,0.44636 1.27775,-0.32694 2.83984,-1.71874 1.56209,-1.39188 3.69959,-3.17969 4.75,-3.97461 1.40606,-1.06408 1.52631,-1.45512 0.45704,-1.47852 z m -8.31446,1.75 c -0.5169,-0.0213 -1.72538,0.46327 -3.125,1.28906 -1.86617,1.10107 -3.98741,1.87196 -4.71289,1.71485 -0.91754,-0.1987 -1.379,1.08465 -1.51758,4.21484 l -0.19922,4.5 1.81836,-3.5 c 1.00007,-1.925 3.20901,-4.31304 4.91016,-5.30664 1.70115,-0.99359 3.09375,-2.21644 3.09375,-2.7168 0,-0.12509 -0.0953,-0.18823 -0.26758,-0.19531 z M 214.35156,202 C 213.32539,202 210,205.17453 210,206.1543 c 0,1.67126 1.80211,0.7969 3.4082,-1.6543 0.90095,-1.375 1.32524,-2.5 0.94336,-2.5 z m -7.59375,4.42383 c -0.33533,-0.33532 -1.96134,1.25668 -3.61328,3.53711 -2.98747,4.12409 -3.002,4.20217 -2.51367,14.84179 0.50492,11.00107 2.74341,25.59911 4.62109,30.13282 0.96955,2.34101 1.10336,2.39014 1.52735,0.56445 0.57113,-2.45928 -1.60335,-18.36554 -2.82813,-20.6875 -0.5419,-1.02735 -0.47059,-2.89487 0.1836,-4.77148 0.70598,-2.02514 0.73953,-3.50514 0.0957,-4.3125 -0.76432,-0.95845 -0.96421,-6.22852 -0.23633,-6.22852 0.0879,0 0.3153,-0.82268 0.50586,-1.82812 0.6375,-3.36371 1.4786,-4.80351 2.45312,-4.20118 1.30574,0.80696 5.04688,-1.6243 5.04688,-3.27929 0,-1.25496 -1.26453,-1.13295 -5.75,0.55273 -1.5828,0.59481 -1.62384,-0.96997 -0.0664,-2.52734 0.65086,-0.65084 0.90954,-1.45764 0.57422,-1.79297 z m 29.69336,3.89258 c -1.11501,0.84312 0.16197,14.20304 2.54688,25.68359 1.35237,6.51005 1.98112,12.26383 1.65234,15.14258 -0.29167,2.55371 -0.2578,4.91621 0.0762,5.25 3.34038,3.34038 2.78319,-6.53546 -2.29492,-40.66992 -0.39089,-2.62752 -1.16704,-5.0597 -1.72461,-5.4043 -0.096,-0.0593 -0.18152,-0.0582 -0.25586,-0.002 z M 251.94531,225 c -0.46068,0 -0.23418,2.1375 0.50391,4.75 0.73809,2.6125 1.63705,6.03979 1.99609,7.61719 0.35903,1.5774 0.85864,2.66284 1.11133,2.41015 C 256.29649,239.0375 252.86597,225 251.94531,225 Z m 4.45508,18.17969 c -0.0792,-0.0812 -0.14265,-0.068 -0.19141,0.0371 -0.065,0.14013 -0.10334,0.44471 -0.11914,0.9082 -0.0492,1.44375 0.19141,4.03125 0.53516,5.75 0.34375,1.71875 1.01875,3.125 1.5,3.125 1.14475,0 1.09666,-0.56541 -0.55469,-6.5 -0.55273,-1.98638 -0.93235,-3.07678 -1.16992,-3.32031 z M 335.69141,270 c -0.24811,0 -2.1106,2.025 -4.13868,4.5 -3.87495,4.72887 -3.4686,5.67854 1.17383,2.75 1.71086,-1.07924 2.89739,-2.80405 3.09571,-4.5 0.17686,-1.5125 0.11724,-2.75 -0.13086,-2.75 z m -131.55079,3.25781 c -0.34683,-0.056 -0.78632,0.0529 -1.3457,0.26758 -1.05153,0.40351 -1.46423,1.96037 -1.39453,5.27344 0.0544,2.58554 -0.26474,6.83867 -0.71094,9.45117 -0.6272,3.67225 -0.51395,4.75 0.50391,4.75 2.00471,0 4.15472,-6.8188 4.16992,-13.22852 0.0111,-4.69758 -0.18212,-6.3457 -1.22266,-6.51367 z m 32.63086,7.32422 c -0.77524,-0.0223 -1.87311,0.60944 -3.1621,1.89844 -1.38553,1.38551 -3.21446,2.51953 -4.06446,2.51953 -1.84965,0 -1.99221,1.15427 -0.3457,2.80078 0.66,0.66 1.6725,1.18537 2.25,1.16797 1.71266,-0.0516 6.55078,-4.74952 6.55078,-6.36133 0,-1.32601 -0.45327,-2.00312 -1.22852,-2.02539 z M 126.42969,282 c 0.78665,0 15.64421,6.075 33.01562,13.5 17.37142,7.425 32.26736,13.5 33.10157,13.5 0.83419,0 1.76321,0.64273 2.06445,1.42773 0.87435,2.27853 0.0408,5.84171 -1.11133,4.75196 -2.04369,-1.93301 -37.91404,-18.11532 -55,-24.8125 -4.95,-1.94025 -10.0125,-4.17732 -11.25,-4.97071 C 124.70855,283.76709 124.28149,282 126.42969,282 Z m -110.347659,4.37891 c -0.04199,0.11378 0.423004,0.47033 1.359375,1.16992 2.149798,1.60616 3.978628,1.94081 3.132813,0.57226 -0.298888,-0.48361 -1.562523,-1.13713 -2.808594,-1.45117 -1.092883,-0.27542 -1.641608,-0.4048 -1.683594,-0.29101 z m 10.109375,3.63671 C 24.734131,290.02882 24.707313,290.1646 26,291 c 1.958372,1.2656 3.282182,1.2656 2.5,0 -0.339919,-0.55 -1.378553,-0.99235 -2.308594,-0.98438 z m 33,0 C 57.734131,290.02882 57.707313,290.1646 59,291 c 1.958372,1.2656 3.282182,1.2656 2.5,0 -0.339919,-0.55 -1.378553,-0.99235 -2.308594,-0.98438 z m -58.90624975,0.36524 c -0.25096091,0.25096 0.36930078,0.89873 1.37890625,1.4375 C 2.673668,292.35714 6.875,294.61127 11,296.82812 c 8.173312,4.39252 10.61095,5.21428 6.884766,2.32032 -3.143125,-2.44113 -17.01512733,-9.35207 -17.59960975,-8.76758 z m 30.57812475,1.97852 c -0.322819,-0.0352 -0.539726,-0.015 -0.625,0.0703 -0.283228,0.28323 0.784268,0.98576 2.373047,1.5625 3.455775,1.25447 7.329273,2.93137 9.388672,4.06445 2.702967,1.48718 3.498836,0.98127 1.099609,-0.69922 -2.60227,-1.82269 -9.976595,-4.75148 -12.236328,-4.99804 z m 16.648438,1.11523 c -0.167798,0.0701 -0.179117,0.25368 -0.0039,0.53711 0.336026,0.5437 1.033241,0.98828 1.550782,0.98828 1.438432,0 1.121089,-0.71607 -0.611328,-1.38086 -0.444962,-0.17074 -0.767749,-0.21461 -0.935547,-0.14453 z m 59.501951,1.75391 c -0.27482,0.20072 1.82588,1.97289 5.48633,4.31445 3.025,1.93507 5.5,3.86656 5.5,4.29101 0,0.42445 2.28464,1.5919 5.07617,2.59571 2.79152,1.00382 13.70402,5.78129 24.25,10.61523 10.54597,4.83393 19.61161,8.8252 20.14649,8.8711 3.00591,0.25794 -11.83941,-7.30157 -39.47266,-20.09961 -6.93667,-3.21264 -14.16709,-6.89221 -17.75,-9.03516 -2.05121,-1.22683 -3.07144,-1.67317 -3.23633,-1.55273 z m 11.9961,0.23242 c -0.0637,0.19402 1.67064,1.30724 5.68164,3.5 3.19513,1.74674 6.48359,3.57494 7.30859,4.0625 8.73921,5.16481 14.15343,7.95252 30.5,15.69922 10.45,4.95229 22.825,10.82509 27.5,13.05273 9.40582,4.48187 10.43664,4.84389 7.5,2.625 -5.0305,-3.80097 -15.50978,-9.30702 -33.5,-17.60156 -10.725,-4.94486 -25.09147,-11.86783 -31.92578,-15.38477 -7.86027,-4.04489 -12.95826,-6.2765 -13.06445,-5.95312 z m -64.896489,0.74804 c -0.401719,-0.0252 -0.668171,0.0119 -0.77539,0.11914 -0.207202,0.20721 4.469607,2.31398 10.392578,4.68165 5.922971,2.36766 12.991597,5.35795 15.707031,6.64648 2.715435,1.28854 5.7268,2.34375 6.691406,2.34375 0.964607,0 2.031175,0.45 2.371094,1 0.339919,0.55 1.472357,1 2.517578,1 1.045222,0 5.40661,1.56181 9.691402,3.4707 7.92181,3.52917 10.49463,4.3004 8.74024,2.61914 -0.5225,-0.50073 -6.12422,-2.94956 -12.44922,-5.4414 -6.325,-2.49184 -16.225,-6.6325 -22,-9.20117 -8.588451,-3.82007 -18.074683,-7.06194 -20.886719,-7.23829 z m 254.037109,0.082 c -0.0738,0.0482 0.37586,0.42111 1.29102,1.15429 1.06762,0.85535 2.37946,1.55469 2.91601,1.55469 1.27054,0 0.70361,-0.46211 -2.35742,-1.91992 -1.17863,-0.56133 -1.77576,-0.83723 -1.84961,-0.78906 z m -226.818359,0.043 c -0.452572,0.45258 6.685538,3.99211 13.667969,6.77735 4.675837,1.86515 6,2.18735 6,1.45898 0,-0.4318 -7.763787,-4.20045 -11.5,-5.58203 -1.1,-0.40676 -3.295332,-1.26131 -4.878906,-1.90039 -1.583574,-0.63907 -3.063984,-0.97899 -3.289063,-0.75391 z M 0.70117188,299.25 C 0.2417741,299.32507 0,299.54475 0,299.9043 c 0,1.19292 6.1865334,4.15117 20,9.56445 4.675,1.83206 10.504419,4.24578 12.955078,5.36328 2.45066,1.1175 4.874807,1.7734 5.386719,1.45703 0.511913,-0.31638 -1.070041,-1.33534 -3.515625,-2.26367 -2.445583,-0.92832 -5.76973,-2.4254 -7.386719,-3.32617 C 22.024621,307.68281 5.4409624,300.14955 2.7050781,299.46289 1.8374242,299.24512 1.1605696,299.17493 0.70117188,299.25 Z m 21.23046912,0.23438 c -0.706784,-0.18118 -0.242156,0.44056 1.568359,1.94726 1.65,1.37312 3.363635,2.51342 3.808594,2.5332 0.444959,0.0198 0.531325,0.48516 0.191406,1.03516 -0.339919,0.55 0.253245,1 1.318359,1 1.065115,0 2.550529,0.74053 3.300782,1.64453 0.750253,0.90399 3.168455,2.44559 5.373047,3.42774 7.895921,3.51765 6.712539,1.82307 -3.056641,-4.37891 -6.891773,-4.37524 -11.325933,-6.90707 -12.503906,-7.20898 z m 227.593749,0.6582 c -0.82867,0.82866 0.69501,4.83993 1.62109,4.26758 0.5055,-0.31242 4.39225,1.63245 8.63672,4.32226 4.24447,2.68981 12.4418,7.21328 18.2168,10.05274 5.775,2.83945 15,8.10018 20.5,11.68945 5.5,3.58927 11.8,7.39387 14,8.45508 4.4335,2.13859 7.04861,2.62069 4.13086,0.76172 -1.0283,-0.65515 -3.7283,-2.45932 -6,-4.00782 -10.62611,-7.24328 -15.32776,-10.09256 -31.63672,-19.18359 -9.62221,-5.36366 -20.08893,-11.33841 -23.25976,-13.27734 -3.17084,-1.93894 -5.96415,-3.32492 -6.20899,-3.08008 z m -199.259765,1.25976 c -0.244405,0.24441 1.507691,1.33957 3.894531,2.43555 2.386839,1.09598 5.014844,2.02736 5.839844,2.06836 0.825,0.041 -0.927096,-1.05614 -3.894531,-2.4375 -2.967435,-1.38136 -5.59544,-2.31081 -5.839844,-2.06641 z m 60.425785,1.61328 c -0.71561,0.009 -0.5927,0.40192 0.30859,0.98438 1.92112,1.24153 2.2673,1.24153 1.5,0 -0.33992,-0.55 -1.15355,-0.99237 -1.80859,-0.98438 z m 216.56054,0.39844 c -0.24245,0.24246 1.28989,1.35329 3.4043,2.46875 4.30805,2.27273 5.76288,2.60452 4.83398,1.10157 -0.75541,-1.22227 -7.61394,-4.19466 -8.23828,-3.57032 z M 63,306.11523 c -0.825,0.0177 0.3,0.86635 2.5,1.88477 5.264793,2.43717 6.951638,2.43717 2.5,0 -1.925,-1.05389 -4.175,-1.90247 -5,-1.88477 z m 44.31445,1.31641 c -0.17753,0.0546 0.239,0.40215 1.12696,1.08203 1.06762,0.81744 2.53012,1.48633 3.25,1.48633 2.22995,0 1.45208,-0.75672 -1.94141,-1.88867 -1.48668,-0.49591 -2.25801,-0.73424 -2.43555,-0.67969 z m 143.74805,0.54688 c -0.20978,-0.0202 -0.43837,0.0653 -0.66211,0.28906 -0.33007,0.33008 -0.24913,1.17019 0.18164,1.86719 0.63003,1.01938 0.86636,1.01947 1.20508,0.004 0.36253,-1.08761 -0.0953,-2.09954 -0.72461,-2.16015 z m 77.21875,1.0625 c -0.43017,0.0231 0.79375,0.90509 2.71875,1.95898 3.63857,1.99203 5,2.38682 5,1.44922 0,-0.61142 -6.48366,-3.4744 -7.71875,-3.4082 z m -106.69531,0.01 c 1.37185,0.11956 2.90601,0.6112 3.97265,1.41797 1.80999,1.36901 1.66491,1.4703 -2.14257,1.5 -4.23161,0.033 -5.74488,-0.62724 -4.83008,-2.10742 0.41861,-0.67733 1.62814,-0.93011 3,-0.81055 z M 1.0410156,309.19727 C 0.0501015,308.96351 0,309.26066 0,309.87891 c 0,0.48295 2.8125,1.90613 6.25,3.16406 7.024629,2.57061 11.665652,4.97725 21.167969,10.97851 6.302187,3.98019 22.132337,9.85613 33.582031,12.46485 6.476263,1.47557 8,1.6768 8,1.05273 0,-0.2538 -1.9125,-0.95707 -4.25,-1.5625 -3.753142,-0.97209 -15.186065,-4.30367 -24.427734,-7.11718 -1.74811,-0.53222 -5.958861,-2.76365 -9.355469,-4.95899 -8.304398,-5.36739 -15.146248,-8.96014 -23.2421876,-12.20117 -3.7600406,-1.50525 -5.6926795,-2.2682 -6.6835938,-2.50195 z m 99.6328144,0.51367 c -0.24375,-0.0238 -0.31466,0.0267 -0.17188,0.16601 0.54937,0.53618 4.37305,2.33582 8.49805,3.99805 7.95333,3.2049 11.21378,3.97741 6.9082,1.63672 -3.42735,-1.86325 -13.52814,-5.63438 -15.23437,-5.80078 z m -27.482424,0.36328 c -2.372017,-0.13439 -0.157118,1.87622 3.107422,2.82031 5.313199,1.53655 6.452359,1.07342 2.201172,-0.89453 -2.2,-1.01842 -4.588635,-1.88499 -5.308594,-1.92578 z M 116.5,311.04688 c -0.55,0.0138 4.6041,2.26869 11.45312,5.01171 6.84905,2.74301 14.80809,6.10267 17.6875,7.46485 2.87944,1.36218 5.55119,2.47656 5.9375,2.47656 0.38633,0 2.55227,0.8838 4.8125,1.96484 2.26026,1.08104 9.05938,4.17249 15.10938,6.86914 6.05,2.69664 14.375,6.70932 18.5,8.91797 6.79224,3.63677 12.8592,5.44752 11.63867,3.47266 -1.12678,-1.82317 -27.17798,-14.01395 -42.13867,-19.71875 -5.5,-2.09725 -12.025,-4.68495 -14.5,-5.75 -2.475,-1.06504 -5.4,-2.31632 -6.5,-2.78125 -1.1,-0.46493 -4.25,-1.8148 -7,-3 -5.46367,-2.35475 -13.41685,-4.96763 -15,-4.92773 z m 185.75977,1.30859 c -0.0549,0.12992 0.19231,0.48442 0.7207,1.12109 1.44013,1.73524 2.01953,1.91682 2.01953,0.63086 0,-0.49116 -0.73784,-1.17701 -1.64062,-1.52344 -0.68624,-0.26333 -1.04469,-0.35843 -1.09961,-0.22851 z m -82.91602,1.95703 c 0.31267,-0.11662 0.89745,-0.0691 1.78711,0.20312 5.15345,1.57703 8.86914,3.43391 8.86914,4.4336 0,1.61065 -3.15492,1.25317 -6.96289,-0.78906 -3.11566,-1.67095 -4.63138,-3.4978 -3.69336,-3.84766 z m -172.751953,0.23438 c -0.830743,-0.11066 -1.357425,-0.11518 -1.484375,0.0117 -1.183402,1.1834 2.423319,2.55777 16.392578,6.24805 16.523167,4.36494 19.22864,4.83261 15.5,2.67774 -3.815919,-2.20534 -24.593004,-8.16303 -30.408203,-8.9375 z M 23.75,314.60742 c -0.261178,0.0695 -0.345515,0.23697 -0.191406,0.48633 0.308218,0.49871 1.207459,0.90625 2,0.90625 2.06975,0 1.77444,-0.68041 -0.560547,-1.29102 -0.55038,-0.14392 -0.986869,-0.17104 -1.248047,-0.10156 z M 0.75,315 c -1.54404547,-2.9e-4 -0.6781079,1.88741 1.1289062,2.46094 1.0335752,0.32804 6.5460774,3.10515 12.2499998,6.16992 16.16714,8.68672 27.784059,14.50976 30.701172,15.39062 8.473245,2.55849 3.8022,-0.36143 -18.429687,-11.52148 C 12.704892,320.62508 1.1625,315.00008 0.75,315 Z m 28.941406,2.01562 C 28.97579,317.02483 29.098708,317.41754 30,318 c 1.921123,1.24153 2.267305,1.24153 1.5,0 -0.339919,-0.55 -1.153553,-0.99235 -1.808594,-0.98438 z m 282.466794,1.52149 c -0.0478,0.2336 1.31009,1.22928 4.0918,2.89648 4.7966,2.87485 4.75,2.85773 4.75,1.76563 0,-0.44041 -2.025,-1.78388 -4.5,-2.98633 -2.84049,-1.38001 -4.29399,-1.90938 -4.3418,-1.67578 z m -275.488278,0.69531 c -4.004313,0.32595 -4.070593,0.3852 -1.669922,1.49024 1.375,0.63292 5.425,1.14753 9,1.14453 l 6.5,-0.006 -4.830078,-1.48438 c -2.656503,-0.81617 -6.706503,-1.33123 -9,-1.14453 z m 182.906248,0.27149 c 0.87412,-0.0624 2.58757,0.31289 5.01758,1.13476 2.69859,0.91271 5.44027,1.79328 6.0918,1.95508 0.65152,0.16179 1.67982,1.21855 2.28515,2.34961 0.60533,1.13107 0.74631,2.03687 0.31446,2.01367 -1.44316,-0.0777 -12.71368,-4.98516 -13.68946,-5.96094 -0.92903,-0.92903 -0.89383,-1.42978 -0.0195,-1.49218 z M 0.53125,320.02344 C 0.18683043,319.98863 0,320.05189 0,320.22461 c 0,0.72872 4.3875,3.48989 9.75,6.13672 5.3625,2.64682 12.9,6.76003 16.75,9.14062 3.85,2.38058 13.075,7.33152 20.5,11.00196 7.425,3.67043 16.425,8.19724 20,10.06054 6.503062,3.38941 8,3.92761 8,2.87305 0,-0.30949 -2.8125,-1.84069 -6.25,-3.40234 -3.4375,-1.56165 -7.375,-3.72491 -8.75,-4.80664 -1.375,-1.08173 -9.475,-5.49262 -18,-9.80274 C 33.475,337.11566 24.25,332.19089 21.5,330.48242 13.109613,325.26979 2.942187,320.26711 0.53125,320.02344 Z m 115.07813,0.56054 c -0.37082,0.0377 -0.60938,0.1703 -0.60938,0.42579 0,0.45267 0.5625,1.05071 1.25,1.32812 2.07592,0.83765 3.90234,0.71862 3.32422,-0.2168 -0.55731,-0.90174 -2.8524,-1.65031 -3.96484,-1.53711 z m 75.90234,2.89063 c -0.1678,0.0701 -0.17854,0.25368 -0.004,0.53711 0.33602,0.5437 1.03324,0.98828 1.55078,0.98828 1.43843,0 1.1211,-0.71607 -0.61132,-1.38086 -0.44494,-0.17074 -0.76775,-0.21461 -0.93555,-0.14453 z m 61.81055,0.73047 C 253.11613,324.17895 253,324.31951 253,324.63281 c 0,0.56834 0.29935,1.33451 0.66602,1.70117 0.36666,0.36667 0.89942,0.43261 1.18359,0.14844 0.28417,-0.28416 -0.0152,-1.04838 -0.66602,-1.69922 -0.35878,-0.35878 -0.65519,-0.55199 -0.86132,-0.57812 z m -122.63086,2.81054 c -0.71561,0.009 -0.5927,0.40192 0.30859,0.98438 1.92112,1.24153 2.2673,1.24153 1.5,0 -0.33992,-0.55 -1.15355,-0.99235 -1.80859,-0.98438 z m 39.49414,0.46485 c -0.26894,0.26895 1.04334,1.15292 2.91406,1.96484 3.91212,1.69792 3.90039,1.69401 3.90039,1.12696 0,-0.74331 -6.3032,-3.60304 -6.81445,-3.0918 z m -115.832034,0.74414 c -0.200033,0.10767 0.228391,0.44447 1.146484,1.08398 1.1,0.76623 3.35,1.70648 5,2.08985 5.266416,1.22362 39.77418,12.69888 46,15.29687 3.3,1.37707 6.675,3.071 7.5,3.76367 0.825,0.69267 2.4,1.51803 3.5,1.83399 1.1,0.31596 9.2,3.51238 18,7.10351 8.8,3.59112 16.36363,6.54591 16.80859,6.56641 2.0296,0.0934 -0.70875,-1.93747 -4.07226,-3.01953 -2.05484,-0.66106 -4.86133,-1.80603 -6.23633,-2.54492 -2.40375,-1.29171 -7.15614,-3.47739 -28.16797,-12.95703 -11.60741,-5.23676 -48.349816,-17.47058 -56.853514,-18.92969 -1.597076,-0.27404 -2.424968,-0.39478 -2.625,-0.28711 z M 309.81055,329 c -0.63326,0 1.28809,1.76112 4.26953,3.91406 4.8768,3.52159 7.91992,4.91228 7.91992,3.61719 C 322,335.76065 311.05794,329 309.81055,329 Z m -194.47852,0.24023 c -0.725,-0.10961 -1.43378,-0.11705 -1.95117,0.006 -1.7922,0.42282 -1.78599,0.47996 0.11914,1.1875 14.14099,5.25182 48.29441,20.95928 53.5293,24.61914 1.39065,0.97224 4.72501,2.93558 7.41015,4.36329 2.68514,1.4277 5.09819,2.38032 5.36328,2.11523 0.6614,-0.6614 -1.81311,-3.53125 -3.04492,-3.53125 -0.54821,0 -3.53,-1.53718 -6.62695,-3.41602 C 164.2765,351.03144 140.65534,339 139.53711,339 c -0.69077,0 -18.68087,-7.42812 -22.15625,-9.14844 -0.58261,-0.2884 -1.32383,-0.50171 -2.04883,-0.61133 z M 129.5,331.03125 c -0.55,0 -0.325,0.43559 0.5,0.96875 0.825,0.53316 1.95,0.96875 2.5,0.96875 0.55,0 0.325,-0.43559 -0.5,-0.96875 -0.825,-0.53316 -1.95,-0.96875 -2.5,-0.96875 z m 49,0 c -0.55,0 -0.325,0.43559 0.5,0.96875 0.825,0.53316 1.95,0.96875 2.5,0.96875 0.55,0 0.325,-0.43559 -0.5,-0.96875 -0.825,-0.53316 -1.95,-0.96875 -2.5,-0.96875 z M 0.19921875,331.4668 c -0.94545918,0.94546 1.01150405,2.2483 7.30078125,4.86328 5.548705,2.30672 8.427862,3.20034 7.416016,2.29883 C 13.258332,337.15197 0.65007395,331.01595 0.19921875,331.4668 Z M 142.5,332.03125 c -0.55,0 -0.325,0.43559 0.5,0.96875 0.825,0.53316 1.95,0.96875 2.5,0.96875 0.55,0 0.325,-0.43559 -0.5,-0.96875 -0.825,-0.53316 -1.95,-0.96875 -2.5,-0.96875 z m -55.5,1 c -1.333333,0 -1.333333,0.10708 0,0.96875 0.825,0.53316 2.175,0.96875 3,0.96875 1.333333,0 1.333333,-0.10708 0,-0.96875 -0.825,-0.53316 -2.175,-0.96875 -3,-0.96875 z m 48.11914,0.31445 c -0.44315,-0.0781 -0.72581,-0.073 -0.82422,0.0254 -0.46474,0.46475 10.39763,5.62891 11.83985,5.62891 0.49146,0 8.87432,4.03285 18.6289,8.96094 9.75457,4.92809 17.8227,8.9781 17.92774,9 0.10504,0.0219 0.46641,-0.40972 0.80468,-0.95703 1.03706,-1.67801 -41.72974,-21.48598 -48.37695,-22.65821 z m -42.666015,1.86719 c -0.210343,0.21034 5.339098,2.67569 12.332035,5.47852 12.23132,4.90244 38.57364,16.66998 42.71484,19.08203 2.0505,1.19432 3.5,1.53722 3.5,0.82617 C 151,360.03506 110.31443,340 109.16797,340 c -0.51734,0 -4.40408,-1.16238 -8.63672,-2.58398 -4.232639,-1.4216 -7.867783,-2.41348 -8.078125,-2.20313 z M 189,336.08594 c -0.98906,0.0362 -0.81874,0.34738 0.5,0.91406 2.74909,1.18132 4.32797,1.18132 2.5,0 -0.825,-0.53316 -2.175,-0.94426 -3,-0.91406 z M 0.72265625,337.05078 C 0.24468002,337.05078 0.10890888,337.3672 0.5,338 c 0.33991869,0.55 1.3785531,0.9928 2.3085938,0.98438 C 4.2658687,338.97118 4.2926874,338.8354 3,338 2.0208138,337.3672 1.2006325,337.05078 0.72265625,337.05078 Z M 162.0332,338 c -2.46132,0 -0.67221,1.78794 3.7168,3.71484 4.75557,2.08784 7.25,2.70883 7.25,1.80274 C 173,342.86405 163.33233,338 162.0332,338 Z m 96.75977,0 c -1.9672,0 1.46774,3.03159 11.07226,9.77539 12.67108,8.89698 15.3579,10.5654 23.63477,14.67578 9.48517,4.71043 11.58538,4.43848 3.25781,-0.42187 -3.70788,-2.16409 -13.53312,-8.45625 -21.83398,-13.98242 C 266.62297,342.52071 259.36407,338 258.79297,338 Z m -186.876954,0.12305 c -0.347396,-0.0143 -0.742578,0.0489 -1.103516,0.19336 -0.797733,0.31922 -0.561427,0.55744 0.603516,0.60547 1.054166,0.0434 1.644791,-0.19311 1.3125,-0.5254 -0.166146,-0.16612 -0.465105,-0.25913 -0.8125,-0.27343 z m 4,1 c -0.347396,-0.0143 -0.742578,0.0489 -1.103516,0.19336 -0.797733,0.31922 -0.561427,0.55744 0.603516,0.60547 1.054166,0.0434 1.644791,-0.19311 1.3125,-0.5254 -0.166146,-0.16612 -0.465104,-0.25913 -0.8125,-0.27343 z m -70.7402348,0.082 c -0.073506,0.0834 0.3698345,0.39582 1.2753907,0.99804 1.0732662,0.71378 8.4982661,4.75615 16.5000001,8.98438 8.001734,4.22822 14.998828,7.68941 15.548828,7.69141 1.091535,0.004 1.084926,-6.1e-4 -10.810547,-7.63282 C 20.215055,344.45066 13.613955,341.36649 7,339.58008 c -1.1601407,-0.31336 -1.7507131,-0.45841 -1.8242188,-0.375 z m 218.1835988,0.10351 c -0.6898,0.6898 9.95017,8.36927 13.14062,9.48438 3.77124,1.31812 4.50944,1.39425 4.46094,0.45703 -0.0477,-0.9209 -17.03025,-10.51273 -17.60156,-9.94141 z m -166.248052,1.05664 c -1.074954,0.078 -0.770322,0.56171 1.888672,1.37891 1.925,0.59162 4.85,1.07575 6.5,1.07617 2.38234,6.2e-4 1.970566,-0.28766 -2,-1.40234 -2.859178,-0.80268 -5.313718,-1.13072 -6.388672,-1.05274 z m 116.984372,4.08008 c -0.20403,0.22651 2.5276,1.87122 7.6543,4.49219 7.64229,3.90705 9.25,4.53023 9.25,3.58008 0,-0.55497 -7.71848,-4.54803 -13.25,-6.85352 -2.35229,-0.98041 -3.53188,-1.35465 -3.6543,-1.21875 z M 220.00586,346 c 0.46264,0 2.17841,1.125 3.8125,2.5 1.6341,1.375 3.31699,2.5 3.74023,2.5 0.42324,0 4.71919,2.025 9.54688,4.5 4.82768,2.475 9.73034,4.5 10.89453,4.5 2.1925,0 11.92443,8.40761 10.9082,9.42383 -0.55394,0.55395 -22.42166,-10.68935 -24.35742,-12.52344 -0.5225,-0.49505 -1.6475,-0.87977 -2.5,-0.85547 -0.8525,0.0243 0.0242,0.94281 1.94922,2.04102 12.51121,7.1376 21.46064,12.796 21.78711,13.77539 0.20891,0.62674 0.005,1.12593 -0.45313,1.11133 -0.91122,-0.0291 -21.25067,-10.58644 -28.11132,-14.5918 -2.47541,-1.44519 -5.05425,-2.25205 -6.11914,-1.91406 -1.63186,0.51793 -1.84468,-0.0417 -1.88868,-4.94141 C 219.18754,348.48633 219.54322,346 220.00586,346 Z m -152.123048,1 c -0.549998,0 -0.722731,0.45 -0.382812,1 0.339919,0.55 1.067188,1 1.617188,1 0.549998,0 0.722731,-0.45 0.382812,-1 -0.339919,-0.55 -1.067188,-1 -1.617188,-1 z m -26.501953,5.28711 c -0.318662,0.31866 1.602344,1.70938 4.269532,3.0918 2.667189,1.38241 6.874609,3.88529 9.349609,5.5625 4.641507,3.14536 7.549249,4.12237 4.964844,1.66797 -2.44602,-2.32302 -17.964087,-10.94217 -18.583985,-10.32227 z m -32.4101559,1.72461 c -0.1761718,-0.003 -0.1769537,0.0986 0.029297,0.3164 0.825,0.87129 3.962477,2.92909 6.972656,4.57227 3.010178,1.64317 5.673981,2.78695 5.917969,2.54297 0.586186,-0.58619 0.674421,-0.52705 -7.390625,-4.90234 -2.8875,-1.56647 -5.0007806,-2.51884 -5.5292969,-2.5293 z M 249,355 c -0.55,0 -1,0.45 -1,1 0,0.55 0.45,1 1,1 0.55,0 1,-0.45 1,-1 0,-0.55 -0.45,-1 -1,-1 z m -27.11523,3.02344 c 0.97169,0.1706 2.94513,1.34573 6.26562,3.58398 2.94277,1.98364 7.82685,4.85796 10.85352,6.38867 3.02667,1.53071 6.62667,3.71898 8,4.86133 4.38225,3.64521 -0.59848,2.44634 -9.14453,-2.20117 -14.58584,-7.93206 -15.61626,-8.57944 -16.23633,-10.19531 -0.68107,-1.77485 -0.70997,-2.6081 0.26172,-2.4375 z m -144.326176,3.00781 c -0.582378,0.0175 -0.18481,0.6925 0.882812,1.5 1.067621,0.80751 2.417621,1.455 3,1.4375 0.582378,-0.0175 0.18481,-0.6925 -0.882812,-1.5 -1.067621,-0.80751 -2.417621,-1.455 -3,-1.4375 z" />
  </g>
</svg>
