<?xml version="1.0" encoding="UTF-8" standalone="no"?>
<!-- Created with Inkscape (http://www.inkscape.org/) -->

<svg
   version="1.1"
   id="svg2"
   width="336"
   height="385"
   viewBox="0 0 336 385"
   sodipodi:docname="30.svg"
   inkscape:version="1.1.2 (0a00cf5339, 2022-02-04)"
   xmlns:inkscape="http://www.inkscape.org/namespaces/inkscape"
   xmlns:sodipodi="http://sodipodi.sourceforge.net/DTD/sodipodi-0.dtd"
   xmlns="http://www.w3.org/2000/svg"
   xmlns:svg="http://www.w3.org/2000/svg">
  <defs
     id="defs6" />
  <sodipodi:namedview
     id="namedview4"
     pagecolor="#505050"
     bordercolor="#eeeeee"
     borderopacity="1"
     inkscape:pageshadow="0"
     inkscape:pageopacity="0"
     inkscape:pagecheckerboard="0"
     showgrid="false"
     inkscape:zoom="1.9454545"
     inkscape:cx="104.34579"
     inkscape:cy="177.07944"
     inkscape:window-width="1920"
     inkscape:window-height="1043"
     inkscape:window-x="0"
     inkscape:window-y="0"
     inkscape:window-maximized="1"
     inkscape:current-layer="g8" />
  <g
     inkscape:groupmode="layer"
     inkscape:label="Image"
     id="g8">
    <path
       id="path112"
       style="fill:#000000"
       d="M 4.1347656,2.0820312 C 0.59134491,1.9755408 0,2.3224258 0,3.4121094 c 0,2.2025428 0.88815963,2.4077829 12.208984,2.8203125 5.340139,0.1945941 9.871617,0.5590198 10.070313,0.8105469 0.343602,0.4349603 -0.433947,14.9286022 -1.75,32.6035152 -0.3336,4.480335 -0.812099,16.630335 -1.064453,27 C 18.688717,98.538846 18.095873,118.01627 17.554688,129.5 16.082254,160.74446 15.517259,189.93185 15.574219,231.75 15.608868,257.1875 15.43414,278 15.185547,278 14.936954,278 11.642504,276.425 7.8652344,274.5 0.30528182,270.64724 0,270.55056 0,272.00781 0,273.104 10.20923,278.33383 14.404297,279.38672 16.106645,279.81398 17,280.72084 17,282.01953 c 0,2.8048 -0.837571,2.54499 -8.0722656,-2.50781 -6.0578968,-4.23092 -8.98857329,-5.4734 -8.87890628,-3.76172 0.02642881,0.4125 2.38892878,2.23726 5.24999998,4.05469 9.9723059,6.33466 11.8673059,8.36968 12.1035159,12.99609 0.117917,2.3095 -0.03667,4.19064 -0.34375,4.18164 C 16.751518,296.97323 12.7875,294.97337 8.25,292.53711 1.012069,288.65096 0,288.34109 0,290.01562 c 0,1.3846 2.0201157,2.88107 7.3554688,5.44727 C 11.400681,297.40856 15.450681,299 16.355469,299 17.638513,299 18,299.9903 18,303.5 c 0,2.475 -0.463613,4.5 -1.029297,4.5 -0.565684,0 -3.828184,-1.45515 -7.2499999,-3.23438 C 0.73474461,300.09326 -0.57751485,299.59851 0.984375,301.48047 1.6776738,302.31584 2.594098,303 3.0214844,303 3.4488707,303 6.1394619,304.575 9,306.5 c 2.860538,1.925 6.054878,3.5 7.099609,3.5 C 17.459087,310 18,310.71075 18,312.5 c 0,1.375 -0.121144,2.5 -0.269531,2.5 -0.265497,0 -7.254175,-3.74942 -13.652344,-7.32422 -1.7952668,-1.00305 -3.50308734,-1.58481 -3.79492188,-1.29297 -1.25520801,1.2552 0.89318658,3.52346 5.38671878,5.6875 2.6568226,1.2795 5.4244321,2.91176 6.1503901,3.62696 0.725961,0.71519 2.369723,1.56431 3.654297,1.88671 2.169626,0.54454 4.363155,4.41602 2.501953,4.41602 -0.459617,0 -3.545257,-1.8 -6.857421,-4 C 4.8595265,313.84225 4,313.45641 4,314.80859 4,315.75847 15.715936,324 17.066406,324 c 0.506264,0 0.887613,4.275 0.845703,9.5 -0.04417,5.50734 -0.490517,9.5 -1.060547,9.5 -1.607945,0 -5.035613,-2.01039 -10.4433589,-6.125 C 0.90937129,332.6911 0,332.31981 0,334.26172 c 0,0.69417 3.7125,3.70176 8.25,6.68359 9.191405,6.04015 9.712611,6.57031 9.734375,9.89063 0.01512,2.30682 -0.06886,2.28886 -6.734375,-1.41602 -3.7125,-2.06351 -7.803383,-4.43127 -9.0917969,-5.26172 -2.23907262,-1.44318 -2.32743543,-1.40332 -1.99999998,0.88868 0.25866623,1.8106 2.17329258,3.40514 7.81835938,6.50976 6.5103155,3.58048 7.5666425,4.55267 8.1738285,7.52148 0.383496,1.87512 0.526574,3.57889 0.318359,3.78711 -0.208216,0.20821 -1.784779,-1.02697 -3.501953,-2.74414 -2.944714,-2.94472 -7.449632,-4.97225 -8.5664064,-3.85547 C 4.1220747,356.54398 5.517141,357.77453 7.5,359 c 1.982859,1.22547 3.346061,2.48793 3.029297,2.80469 -0.316764,0.31679 -2.8155689,0.45582 -5.5527345,0.31054 C 0.30496116,361.86728 0,362.00015 0,364.27344 c 0,2.39398 0.14038689,2.43008 12.25,3.09375 31.231792,1.71168 70.640169,3.34099 100.25,4.14648 22.22004,0.60447 64.32417,2.16006 80.5,2.97461 5.775,0.29081 20.3635,0.77002 32.41797,1.06445 12.05446,0.29443 22.17946,0.69384 22.5,0.88672 0.32053,0.19288 6.88203,0.64207 14.58203,0.99805 27.77904,1.28425 42.50422,2.72457 47,4.5957 1.1,0.45781 3.0125,0.86124 4.25,0.89844 2.59657,0.0781 3.02691,-2.88917 1.10547,-7.61719 -1.47248,-3.62326 -1.11863,-23.40597 0.5957,-33.31445 0.7137,-4.125 1.33486,-8.85 1.38086,-10.5 0.0719,-2.57948 -0.19012,-2.29914 -1.87305,2 -1.07651,2.75 -1.95853,6.22845 -1.95898,7.73047 -6.4e-4,2.15224 -0.58274,2.87048 -2.75,3.39062 -3.55466,0.85312 -5.93082,3.34587 -10.30273,10.8086 -2.11605,3.61203 -4.33938,6.18533 -5.5,6.36719 -1.07148,0.16788 -2.84727,0.68815 -3.94727,1.15429 -5.43972,2.30516 -8.61016,2.98486 -15.5,3.32617 -6.90037,0.34183 -7.52678,0.55325 -7.83203,2.64063 -0.26164,1.78904 0.0555,2.16111 1.5,1.75781 1.00748,-0.28129 4.53203,-0.81288 7.83203,-1.17969 7.1811,-0.79823 17.97132,-3.654 22.3418,-5.91406 C 301.22623,362.34899 302,361.27401 302,359.19531 302,356.17008 308.12866,349 310.71484,349 c 1.23847,0 1.38071,1.21353 0.84961,7.25 -0.35082,3.9875 -1.04596,9.05 -1.54492,11.25 -0.49897,2.2 -1.16872,5.24686 -1.48828,6.77148 -0.47338,2.25853 -0.90137,2.60001 -2.31445,1.84375 -0.95389,-0.51051 -10.28148,-1.42917 -20.72657,-2.04296 -10.44509,-0.61379 -24.08826,-1.55277 -30.31835,-2.08594 -6.23011,-0.53317 -14.55511,-0.9968 -18.5,-1.0293 -3.9449,-0.0325 -24.27188,-0.71362 -45.17188,-1.51367 -20.9,-0.80005 -50.375,-1.87897 -65.5,-2.39844 -15.125,-0.51947 -29.525,-1.17022 -32,-1.44726 -2.475,-0.27704 -13.725,-0.7403 -25,-1.02735 -27.055964,-0.68883 -47.650488,-1.7318 -48.8125,-2.47265 -0.57258,-0.36505 -0.599332,-2.93489 -0.06836,-6.59766 0.478388,-3.3 0.591578,-11.0625 0.25,-17.25 C 19.769347,327.38493 19.817838,327 21.791016,327 c 1.503253,0 14.195191,5.89634 15.908203,7.39062 0.879399,0.76714 -2.708435,11.51349 -6.322266,18.93946 C 29.601248,356.97893 29.640406,358 31.552734,358 c 2.451281,0 7.549599,-11.99695 8.181641,-19.25195 0.83643,-9.60113 3.185537,-13.6202 10.375,-17.74805 4.299745,-2.46871 6.663798,-4.61031 8.023437,-7.26953 3.569131,-6.9806 4.730604,-27.35625 1.865235,-32.73047 -0.439865,-0.825 -1.026531,-2.93566 -1.302735,-4.68945 -0.276198,-1.75379 -0.837346,-3.73196 -1.248046,-4.39649 -0.562971,-0.9109 0.458281,-1.05573 4.152343,-0.59179 17.208952,2.16127 25.069912,2.82104 29.972657,2.51953 l 5.568359,-0.3418 -0.246094,11.43164 c -0.243312,11.27397 -0.213286,11.44562 2.179688,12.38672 2.445841,0.9619 5.090361,2.069 12.425781,5.19922 4.73247,2.01946 3.25794,3.06541 -2.18945,1.55273 -2.09529,-0.58184 -8.19805,-1.06145 -13.56055,-1.06445 L 86,303 85.888672,296.75 c -0.06087,-3.4375 -0.01878,-7.33862 0.09375,-8.66992 C 86.393217,283.22025 84.873019,275 83.5625,275 c -1.009257,0 -1.268706,3.46889 -1.177734,15.75 L 82.5,306.5 85,306.0293 c 4.008264,-0.75609 18.54064,-0.59881 31.38281,0.33984 8.7011,0.63598 11.69566,0.56905 11.18946,-0.25 C 127.19208,305.50397 125.69462,305 124.24414,305 c -1.45047,0 -4.38592,-1.21206 -6.52344,-2.69336 -2.13753,-1.48131 -6.88569,-3.42439 -10.55273,-4.31836 -5.63237,-1.3731 -6.81266,-2.03851 -7.603517,-4.28711 -0.514899,-1.46399 -0.697854,-2.8998 -0.40625,-3.1914 0.595844,-0.59585 4.843877,0.88687 15.841797,5.52929 9.33086,3.93872 13,5.06232 13,3.98438 0,-0.71129 -7.9978,-4.31693 -25.32227,-11.41602 -3.075486,-1.26026 -3.754976,-2.00878 -3.476558,-3.83594 0.190312,-1.24896 0.785315,-2.17928 1.322268,-2.0664 0.53694,0.11288 6.55299,2.71591 13.36914,5.78515 6.81614,3.06923 12.88245,5.41809 13.48047,5.21875 1.00632,-0.33544 -14.44434,-8.21783 -24.03125,-12.25976 -3.25483,-1.37227 -4.251018,-2.37282 -4.578128,-4.60156 C 98.533791,275.28139 98.472996,274 98.628906,274 c 0.970346,0 17.220504,8.37085 24.140624,12.43555 4.54853,2.67169 8.59744,4.5295 8.99805,4.1289 1.49017,-1.49018 -13.83362,-10.73309 -23.25,-14.02343 -3.64324,-1.27305 -6.90083,-2.59028 -7.23828,-2.92774 -0.33746,-0.33746 2.13004,-0.61328 5.48242,-0.61328 3.93392,0 6.59854,0.5048 7.51562,1.42188 0.78152,0.78151 3.18416,1.89466 5.33789,2.4746 2.15373,0.57994 6.09808,2.43915 8.76563,4.13086 4.70418,2.9833 6.57536,3.32999 5.10156,0.94532 C 132.64933,280.62469 120.48794,275 118.40625,275 117.63252,275 117,274.55 117,274 c 0,-0.5834 3.43694,-1.01355 8.25,-1.03125 5.61441,-0.0207 7.73894,-0.32935 6.64844,-0.9668 -0.88133,-0.51518 -11.45633,-0.99004 -23.5,-1.05664 C 94.695036,270.86952 76.209355,269.93032 59,268.4375 c -15.125,-1.31202 -28.175,-2.36103 -29,-2.33203 -1.333333,0.0468 -1.333333,0.11325 0,0.60351 0.825,0.30334 2.175,1.09688 3,1.76172 0.825,0.66484 4.65,2.50245 8.5,4.08399 3.85,1.58154 8.35,3.67646 10,4.65625 1.65,0.9798 3.725539,1.7831 4.613281,1.78515 1.655864,0.004 2.384016,3.0226 3.550781,14.73438 l 0.521485,5.23242 -15.34375,-7.41797 C 36.403362,287.46566 27.5875,283.5395 25.25,282.82031 21.89194,281.78713 21,281.03881 21,279.25586 c 0,-2.66106 0.227921,-2.7071 3.921875,-0.79688 1.552211,0.80268 7.941243,3.52483 14.199219,6.04883 6.257976,2.52399 12.861536,5.27348 14.673828,6.10938 1.812292,0.83589 3.798776,1.35157 4.414062,1.14648 1.329853,-0.44329 -4.009639,-3.69749 -9.916015,-6.04297 C 44.265806,284.12147 40.77829,282.58613 29.3125,277.36328 26.459059,276.06349 23.421559,275 22.5625,275 21.703441,275 21,274.35005 21,273.55469 c 0,-1.79715 5.535287,-0.31402 20.304688,5.44531 5.392189,2.10269 9.631228,3.3097 9.421874,2.68164 -0.209353,-0.62806 -2.369897,-1.89496 -4.802734,-2.81641 C 43.49099,277.94378 38.35,275.97928 34.5,274.5 c -3.85,-1.47929 -8.4625,-3.11895 -10.25,-3.64258 -1.7875,-0.52364 -3.25,-1.567 -3.25,-2.32031 0,-0.75332 -0.49443,-1.53526 -1.097656,-1.73633 C 18.81801,266.43933 18.683046,245.52879 19.552734,213 c 0.198514,-7.425 0.619763,-31.275 0.9375,-53 0.317737,-21.725 0.987208,-42.65 1.486328,-46.5 1.897799,-14.638764 1.959806,-15.81205 3.494141,-64.5 0.216657,-6.875 0.638874,-13.175 0.9375,-14 0.298625,-0.825 0.217524,-7.435396 -0.181641,-14.689453 L 25.5,7.1210938 40,7.515625 c 7.975,0.2166702 20.35,0.6392527 27.5,0.9394531 7.15,0.3002004 19.75,0.7831069 28,1.0722657 8.25,0.2891583 19.725,0.9614492 25.5,1.4941402 5.775,0.532691 18.6,0.872375 28.5,0.75586 30.91603,-0.363857 100.04047,2.541482 101.90234,4.283203 0.49675,0.464701 1.74438,0.395395 2.77149,-0.154297 1.02711,-0.549688 2.2418,-0.767076 2.69922,-0.484375 0.45742,0.282701 8.2098,0.773548 17.22851,1.091797 9.01871,0.31825 18.19844,0.773021 20.39844,1.009766 2.2,0.236744 8.95,0.674611 15,0.972656 12.75522,0.628367 14.86808,1.102338 14.07617,3.166015 -0.3909,1.018657 -0.0225,1.377624 1.17774,1.146485 C 325.95092,22.57807 326.5,21.533089 326.5,19.486328 V 16.5 l -9,-0.630859 c -4.95,-0.346464 -15.36903,-1.11734 -23.15234,-1.714844 -7.78331,-0.597504 -25.10831,-1.552269 -38.5,-2.121094 C 242.45597,11.464378 224.75,10.569373 216.5,10.044922 185.64513,8.0834846 180.67944,7.9046045 145.5,7.4921875 66.187415,6.5623869 41.393101,5.8158205 25.5,3.875 21.1,3.3376845 13.5625,2.6411243 8.75,2.328125 6.8255852,2.2029634 5.3159059,2.1175282 4.1347656,2.0820312 Z M 151.09961,16.107422 c -0.29324,-0.04099 -0.57014,0.03107 -0.78906,0.25 -0.3064,0.306355 -0.29029,1.250888 0.0351,2.099609 0.74736,1.947609 2.6543,2.020418 2.6543,0.101563 0,-1.194473 -1.02066,-2.3282 -1.90039,-2.451172 z m -0.9043,3.816406 c -0.20277,-0.09415 -0.4197,-0.03147 -0.64648,0.195313 -0.24835,0.248351 -0.69424,14.835199 -0.99024,32.416015 C 148.2626,70.115973 147.79758,87.875 147.52539,92 c -0.65193,9.88006 -2.50272,56.04707 -2.51562,62.75 -0.0116,6.02683 -0.5208,6.26081 -7.13282,3.27148 -8.46807,-3.82846 -8.63707,-4.2832 -8.77343,-23.54687 -0.0661,-9.33643 0.32588,-20.34961 0.87109,-24.47461 0.54522,-4.125 1.48536,-13.094801 2.08789,-19.933594 l 1.09375,-12.435547 -3.82813,-3.242187 C 127.22246,72.605119 121.9,69.80525 117.5,68.166016 103.79374,63.059705 87.675444,56.819945 83.5,55.003906 77.025632,52.187989 61.306578,46 60.626953,46 60.282644,46 60,46.906209 60,48.013672 c 0,1.107463 -0.41741,2.794963 -0.927734,3.75 -1.529815,2.86294 -3.014451,15.117043 -3.72461,30.746094 l -0.669922,14.726562 2.185547,-0.693359 c 2.476673,-0.786066 16.447512,5.656731 24.25586,11.185551 4.416234,3.12698 11.188155,5.76987 22.662109,8.8457 4.88209,1.30875 13.21875,4.98566 13.21875,5.83008 0,0.44224 -10.36802,-0.21771 -22.226562,-1.41602 -6.425541,-0.6493 -10.378736,-1.68765 -14.986329,-3.93555 C 76.345211,115.37354 72.950085,114 72.242188,114 c -0.707899,0 -4.819642,-1.77668 -9.136719,-3.94727 l -7.847657,-3.94531 -1.070312,7.19531 c -0.588076,3.95809 -1.019807,18.05664 -0.960938,31.32813 l 0.105469,24.12891 15.083985,0.6582 c 15.231686,0.6648 19.025069,1.05006 41.486324,4.21875 13.31379,1.87822 12.99406,1.7143 19.78711,10.20117 1.21469,1.51758 3.60204,2.66219 6.80078,3.25977 5.74768,1.07379 6.04223,1.32096 6.87305,5.75781 0.54836,2.9284 0.40666,3.25918 -1.11719,2.60351 -2.26682,-0.97535 -28.18768,-2.10232 -43.238278,-1.88086 -10.59859,0.15596 -12.061091,0.40047 -14.914062,2.50977 -1.739633,1.28616 -3.420712,3.36749 -3.736328,4.625 C 80.041806,201.9704 79.192143,203 78.470703,203 c -0.721439,0 -3.259189,2.11438 -5.640625,4.69922 -2.381435,2.58484 -6.692578,7.09501 -9.580078,10.02148 -2.8875,2.92648 -5.255872,5.6496 -5.263672,6.05078 -0.0078,0.40119 -1.695263,2.63525 -3.75,4.9668 -2.054736,2.33154 -5.761328,6.74751 -8.236328,9.8125 -2.475,3.065 -8.873915,10.14876 -14.21875,15.74024 -7.778648,8.13761 -9.410243,10.33759 -8.177734,11.02734 1.023234,0.57263 2.176742,0.2855 3.4375,-0.85547 2.10716,-1.90695 1.537214,-1.92059 38.458984,0.96094 11,0.85849 23.15,1.79111 27,2.07226 3.85,0.28114 9.025,0.72383 11.5,0.98438 2.475,0.26055 13.05,0.72937 23.5,1.04297 10.45,0.31361 27.82526,0.98935 38.61133,1.50195 C 190.878,272.20241 275,272.28875 275,271.13672 c 0,-1.46821 -16.96454,-2.13214 -56.5,-2.21094 -20.9,-0.0416 -44.75,-0.49117 -53,-0.99805 -8.25,-0.50688 -21.75,-0.94832 -30,-0.98242 -8.25,-0.0341 -21.075,-0.71416 -28.5,-1.50976 -12.142693,-1.30112 -62.86965,-4.40964 -72.25,-4.42774 -2.0625,-0.004 -3.75,-0.35635 -3.75,-0.78125 0,-0.42491 2.531511,-3.46241 5.625,-6.75 3.093488,-3.2876 6.805988,-7.57231 8.25,-9.52344 C 50.451143,236.41889 60.488537,226 62.171875,226 c 1.085968,0 1.562741,-0.52947 1.238281,-1.375 -0.587202,-1.53022 4.110252,-6.97688 6.855469,-7.94922 0.970754,-0.34384 2.170293,-1.6488 2.666016,-2.90039 0.495723,-1.2516 2.513352,-3.59109 4.484375,-5.19922 1.971023,-1.60812 3.61654,-3.40812 3.65625,-4 0.03971,-0.59187 1.659607,-2.39726 3.599609,-4.01172 l 3.527344,-2.93554 19.150391,0.25 c 10.53279,0.13776 27.70039,0.34945 38.15039,0.46875 26.26627,0.29988 57.52409,1.80374 56.94531,2.74023 -0.26424,0.42754 -5.3024,2.64103 -11.19726,4.91797 -5.89487,2.27694 -13.98686,6.2111 -17.98243,8.74219 -6.13694,3.88761 -7.26562,5.0273 -7.26562,7.3457 0,1.50943 -0.7875,4.15438 -1.75,5.87695 -1.72935,3.09499 -1.72008,3.15742 0.8125,5.3711 1.40955,1.23207 2.85806,3.00929 3.21875,3.94922 0.89355,2.32857 1.95521,2.15063 4.71875,-0.79102 3.65235,-3.88775 5.24177,-3.28737 4.83984,1.82812 -0.29085,3.7017 0.12565,4.85875 2.87305,7.99219 1.76682,2.01507 4.91682,4.29462 7,5.06641 2.08319,0.77179 6.16116,2.31638 9.0625,3.43164 5.71969,2.19864 9.81887,1.76373 13.32813,-1.41211 1.75404,-1.58738 3.1871,-1.56843 8.56054,0.10742 1.69767,0.52947 3.26163,-0.36148 7.26367,-4.13867 5.50397,-5.19473 7.05741,-8.83876 7.06641,-16.56836 0.004,-3.72008 -0.45515,-5.01609 -2.2168,-6.25 -1.22237,-0.85618 -3.02237,-1.55664 -4,-1.55664 -3.15949,0 -1.88582,-1.89423 1.97266,-2.93359 3.52252,-0.94886 16.13807,-8.5065 24.47461,-14.66211 4.04435,-2.98631 6.84952,-3.43289 13.77539,-2.19922 2.475,0.44087 13.49789,1.05987 24.49414,1.37695 12.23798,0.35288 20.50785,1.00346 21.32031,1.67774 1.03697,0.86061 1.20405,4.11282 0.76953,14.86718 l -0.55468,13.76563 -5.26563,4.80469 C 304.8683,244.33917 296.97279,252.125 290.2168,259 c -10.68255,10.87072 -11.98597,12.54647 -10,12.85156 1.25599,0.19294 2.59565,0.85416 2.97851,1.47071 0.51119,0.82323 1.91089,0.7976 5.26563,-0.0996 7.92208,-2.11883 14.53906,-1.10539 14.53906,2.22851 0,0.75982 0.4712,1.53858 1.04688,1.73047 1.59311,0.53104 2.45312,8.883 2.45312,23.81836 0,12.84463 -0.14004,13.78358 -2.875,19.35352 -2.397,4.88169 -3.89201,6.48802 -9,9.66406 -9.60342,5.97119 -15.67727,11.16398 -17.70508,15.13867 -2.39872,4.70173 -4.88755,11.85047 -4.90625,14.09375 -0.0273,3.28716 1.7179,1.75608 3.85352,-3.38281 1.17333,-2.82335 2.13281,-5.79135 2.13281,-6.59375 0,-2.8883 5.55474,-8.18554 15.5,-14.78321 4.30844,-2.85822 9.74329,-5.41763 11.58984,-5.45703 3.11043,-0.0664 4.8811,-10.06311 5.53321,-31.24609 0.37966,-12.3328 0.21735,-14.09068 -1.60157,-17.48438 C 307.90921,278.22741 307,275.96609 307,275.27734 c 0,-0.68874 -1.83989,-2.41366 -4.08984,-3.83398 -3.73361,-2.35693 -4.67227,-2.52309 -10.75,-1.89063 l -6.66016,0.69336 2.44727,-2.87304 c 2.17147,-2.54927 7.99662,-8.69009 20.4082,-21.51172 2.12077,-2.19083 4.02108,-3.81875 4.22265,-3.61719 0.20156,0.20157 0.45607,13.84317 0.56446,30.3125 0.22109,33.59148 0.89355,47.06285 2.33008,46.69531 0.59706,-0.15276 1.05337,-12.2972 1.18554,-31.5 0.11831,-17.18826 0.75327,-36.20195 1.41016,-42.25195 0.65688,-6.05 1.34994,-13.925 1.54102,-17.5 0.19105,-3.575 0.57837,-9.425 0.86132,-13 0.62602,-7.91243 0.6685,-8.87644 0.625,-14.25 -0.0189,-2.3375 0.17238,-5.825 0.42383,-7.75 1.535,-11.75119 2.03235,-26.52767 3.11133,-92.5 1.0848,-66.328163 1.03964,-74.683445 -0.39453,-75.236328 -0.69451,-0.267736 -1.96431,0.09459 -2.82227,0.80664 -1.22724,1.018513 -1.51112,3.123241 -1.33398,9.863282 0.33861,12.883842 -1.46888,97.736366 -2.58985,121.566406 -0.18111,3.85 -0.57596,12.4 -0.87695,19 -0.74899,16.42387 -1.34773,23.56844 -2.0332,24.25391 -0.31858,0.31858 -0.58008,1.45235 -0.58008,2.51953 0,1.45216 -0.44027,1.76074 -1.75,1.22851 -5.8935,-2.39491 -9.70674,-2.74809 -29.25,-2.71289 l -21.5,0.0391 0.35156,-5.5625 c 0.2701,-4.2784 -0.13902,-6.43332 -1.77148,-9.33789 -1.16719,-2.07673 -3.24739,-7.97203 -4.62305,-13.10156 -1.37567,-5.12952 -3.2055,-11.35117 -4.06641,-13.82617 -0.86089,-2.475 -1.86902,-5.85 -2.24023,-7.5 -0.3712,-1.65 -1.8678,-5.26894 -3.32422,-8.04102 -2.28947,-4.35766 -4.91131,-7.14686 -14.11133,-15.00586 -1.60576,-1.37164 -1.63096,-1.67959 -0.25,-3.06054 0.84464,-0.84465 1.53516,-2.81708 1.53516,-4.38281 0,-1.56573 0.24345,-3.48041 0.54102,-4.25586 0.29757,-0.77546 -1.06103,-3.73876 -3.01954,-6.58594 -3.4131,-4.96177 -3.49448,-5.27947 -1.95507,-7.62891 0.88335,-1.34816 1.34571,-2.87354 1.02734,-3.38867 -0.31837,-0.515122 -0.64386,-3.787197 -0.72266,-7.273437 -0.0788,-3.48624 -0.49851,-7.022107 -0.93359,-7.857422 -0.43509,-0.835315 -1.02188,-2.271357 -1.30273,-3.189453 -0.28084,-0.918096 -3.52938,-3.955596 -7.22071,-6.75 -5.37388,-4.068136 -7.52894,-5.104399 -10.8125,-5.199219 -2.25548,-0.06514 -4.55156,-0.02296 -5.10156,0.09375 -0.55,0.116714 -2.575,0.464505 -4.5,0.771485 -5.10673,0.81437 -11.96188,5.809382 -12.64258,9.21289 -0.30886,1.54427 -2.56772,5.101504 -5.01953,7.904297 -4.36674,4.991835 -6.29003,10.214425 -5,13.576169 0.84786,2.20949 3.86879,0.78525 3.14844,-1.484372 -0.8901,-2.804454 2.07968,-9.059048 3.95898,-8.33789 1.84574,0.708275 1.95083,2.921894 0.42969,8.962892 -1.11519,4.42884 -1.15181,4.45821 -4.65625,3.80078 l -3.5332,-0.66211 0.625,5.97266 c 0.8488,8.12086 1.34418,9.09152 5.8125,11.37109 3.467,1.76873 5.35758,4.9375 2.94531,4.9375 -0.51294,0 -1.1938,0.81864 -1.51172,1.82031 -0.31792,1.00167 -3.38477,3.12735 -6.81641,4.72266 -9.02521,4.19567 -13.71649,7.56434 -20.78906,14.92969 -8.14735,8.48461 -9.4488,8.5276 -8.46094,0.27734 0.80342,-6.70987 1.02938,-10.74204 1.95508,-34.75 0.9378,-24.321634 1.71333,-42.014979 2.10352,-48 0.43163,-6.621003 0.40714,-34.960722 -0.0352,-40.316406 -0.23083,-2.796191 -0.71005,-4.477325 -1.31836,-4.759766 z M 61.294922,51 c 0.551145,0 6.447727,1.982857 13.103516,4.40625 C 81.054224,57.829642 89.65,60.78776 93.5,61.980469 c 3.85,1.192708 10.96853,4.159852 15.81836,6.59375 C 114.16819,71.008118 119.00569,73 120.06836,73 121.13103,73 122,73.456726 122,74.015625 c 0,0.558898 1.62292,1.790916 3.60547,2.736328 3.57437,1.704498 3.59846,1.759645 3.0332,6.732422 -0.31353,2.758189 -1.06261,9.965625 -1.66601,16.015625 -0.60341,6.05 -1.40704,13.11846 -1.78516,15.70703 l -0.6875,4.70508 -4.25,-1.90625 c -4.18432,-1.87812 -5.40555,-1.55985 -3.05078,0.79492 1.69228,1.69228 -0.30275,1.43496 -2.65234,-0.3418 -1.07462,-0.81261 -3.32462,-1.88313 -5,-2.3789 C 99.901153,113.22582 86.390555,107.77216 83.496094,105.56445 79.668344,102.64488 60.35579,93 58.337891,93 57.601631,93 57,92.1 57,91 c 0,-1.1 0.475164,-2 1.056641,-2 0.581478,0 5.304674,2.025 10.496093,4.5 5.191419,2.475 9.736921,4.5 10.09961,4.5 0.362689,0 2.109318,1.106297 3.882812,2.45898 3.680402,2.80718 31.811764,15.90968 30.863284,14.375 -0.3424,-0.554 -5.41102,-3.29058 -11.26172,-6.08203 -13.496232,-6.43921 -15.65958,-7.81019 -13.974611,-8.851559 0.70439,-0.435337 0.967265,-1.105001 0.583985,-1.488282 -0.383281,-0.38328 -1.362893,-0.14534 -2.175782,0.529297 -1.205747,1.000683 -2.452754,0.596356 -6.773437,-2.197265 -2.912903,-1.883394 -9.001247,-5.183617 -13.529297,-7.333985 L 58.035156,85.5 58.017578,79.558594 C 57.990442,70.175178 60.190785,51 61.294922,51 Z m 11.964844,15.080078 c -2.623789,-0.154973 -4.91339,0.0539 -5.859375,0.685547 C 65.796503,67.836569 64,71.56743 64,73.828125 c 0,2.333371 1.695894,3.142905 5.181641,2.476563 3.9656,-0.758073 14.106025,2.261058 22.080078,6.574218 L 98.5,86.794922 l 0.06445,8.353516 c 0.05865,7.570402 0.24593,8.351562 1.999997,8.351562 1.24177,0 2.05012,-0.80018 2.25391,-2.23438 0.29992,-2.110704 0.49478,-2.160826 3.5,-0.89843 1.75031,0.73525 6.06317,3.20277 9.58594,5.48437 3.52277,2.28161 7.12277,4.12982 8,4.10742 2.60611,-0.0664 -3.93037,-5.05413 -12.85352,-9.80859 C 106.62269,97.791012 103,95.441199 103,94.929688 c 0,-1.358566 -0.0305,-1.368925 11.1875,4.068359 5.67139,2.748893 10.43783,4.999003 10.5918,5.000003 0.15396,10e-4 -0.67765,-1.29569 -1.84961,-2.88086 -1.29346,-1.749498 -5.63981,-4.547905 -11.0586,-7.123049 -8.00781,-3.805508 -8.84937,-4.462446 -8.16601,-6.369141 1.05682,-2.948725 0.53108,-15.789231 -0.69727,-17.017578 C 102.33156,69.931162 102,70.816494 102,73.300781 c 0,3.465214 -1.18198,4.830586 -2.431641,2.808594 C 98.90394,75.034323 89.361846,69.966393 87.105469,69.490234 86.222552,69.303914 83.53165,68.442946 81.125,67.576172 78.841568,66.753776 75.883554,66.235052 73.259766,66.080078 Z m -3.548828,3.148438 c 0.531311,-0.03698 1.226874,-0.03038 2.136718,0.01172 1.213126,0.05613 2.80734,0.175826 4.902344,0.339844 4.8125,0.376771 8.892751,0.806716 9.068359,0.955078 0.175608,0.148362 -0.269825,1.21363 -0.990234,2.367188 C 83.416831,75.162177 82.597936,75.331229 79.5,74 78.4,73.527314 75.3625,73.108972 72.75,73.070312 68.649251,73.009636 68,72.718933 68,70.947266 c 0,-1.105534 0.116996,-1.607807 1.710938,-1.71875 z M 88.830078,73 c 1.781602,0 11.674082,7.659865 11.986332,9.28125 0.46535,2.416344 -0.5306,2.150609 -7.06641,-1.888672 C 89.98111,78.063319 88,76.178137 88,74.919922 88,73.864145 88.374015,73 88.830078,73 Z m 116.478512,0.01953 c 5.20951,0.02362 13.29479,4.80629 14.79493,8.751953 0.56995,1.499071 1.64213,3.400557 2.38281,4.226563 0.74068,0.826007 1.90606,4.227096 2.58984,7.556641 0.78679,3.831124 0.90426,6.657712 0.32031,7.701172 -0.78358,1.40018 -1.29834,1.09318 -3.41015,-2.039063 C 215.51079,89.612223 205.44827,83.21211 195.1543,82.152344 L 188.81055,81.5 l 2.13867,-2.712891 c 1.25606,-1.593453 3.5686,-2.981163 5.60547,-3.363281 1.90724,-0.357801 3.71424,-1.049459 4.01562,-1.537109 0.30139,-0.48765 2.43324,-0.877633 4.73828,-0.867188 z M 81.507812,82 c -1.290919,0 -1.468351,1.029342 -1.048828,6.066406 0.277883,3.336447 0.764639,6.486447 1.082032,7 C 82.48952,96.601117 83.991775,96.124994 84.117188,94.25 84.695513,85.603368 83.927669,82 81.507812,82 Z m 112.894528,2.035156 c 2.53358,-0.103508 5.73121,0.526044 8.38672,1.941406 5.94869,3.170592 7.17369,4.452686 6.54688,6.84961 C 209.00273,94.100348 209.22859,95 209.88281,95 210.49696,95 211,94.247045 211,93.326172 c 0,-1.385935 0.43059,-1.270279 2.5,0.673828 2.93928,2.76131 3.37836,8.02743 0.84375,10.12695 -1.51012,1.2509 -1.5934,1.0287 -0.92969,-2.51562 l 0.72852,-3.888674 -2.33008,2.708984 -2.33203,2.71094 -2.26953,-3.07227 c -2.205,-2.982415 -1.81371,-4.27269 0.57226,-1.886716 1.60995,1.609946 2.79715,0.221661 1.32618,-1.550782 -2.17906,-2.625613 -4.98915,-2.600654 -7.08399,0.0625 -1.83076,2.32744 -1.86113,2.720037 -0.43164,5.484378 1.3906,2.68914 1.9457,2.94785 5.72266,2.65039 3.6757,-0.28949 4.15985,-0.0874 3.99218,1.66992 -0.56669,5.93936 3.68164,14.5 7.19532,14.5 3.33713,0 7.35957,-2.31826 7.92382,-4.56641 C 227.14016,113.59504 229,113.15611 229,115.82617 229,118.07703 224.97736,122 222.66992,122 c -1.62373,0 -7.91262,5.68862 -12.16992,11.00781 -7.5178,9.39294 -9.28286,12.14179 -11.76758,18.32617 -1.53404,3.81817 -2.58656,7.14392 -2.33984,7.39063 0.46433,0.46434 0.99968,-0.33853 6.63867,-9.94727 1.84718,-3.14757 4.43345,-6.97257 5.74805,-8.5 2.803,-3.25683 6.58508,-7.98789 8.54297,-10.6875 1.35724,-1.87142 1.47747,-1.86521 5.93164,0.29102 5.77685,2.79652 17.02341,13.0544 19.01367,17.3418 4.42953,9.54205 5.62919,12.62491 5.58789,14.36328 -0.076,3.19958 2.31958,14.85015 3.26172,15.86328 0.48589,0.5225 0.88281,1.99992 0.88281,3.2832 0,1.28329 1.0611,4.45657 2.35742,7.05078 4.31877,8.6428 4.27985,9.93538 -0.42969,14.28321 -2.29146,2.11545 -6.7001,5.47537 -9.79687,7.46484 C 235.26231,215.22869 221.94579,223 221.05273,223 c -0.44702,0 -2.63917,-2.3625 -4.87109,-5.25 -6.77088,-8.75968 -11.1065,-13.34842 -11.10352,-11.75 0.002,0.825 1.33525,3.05866 2.9629,4.96289 1.62765,1.90422 2.95898,4.04172 2.95898,4.75 0,0.70827 0.65919,1.28711 1.46484,1.28711 0.80565,0 1.9865,1.0125 2.62305,2.25 2.28783,4.44768 6.1334,7.73255 8.39063,7.16602 1.28906,-0.32353 3.07264,0.20981 4.46093,1.33398 2.07091,1.67692 2.16905,2.10106 0.94532,4.06055 -1.76835,2.83157 -3.23578,2.77046 -4.82618,-0.20117 -1.47481,-2.7557 -5.70017,-5.32598 -6.80664,-4.14063 -0.41333,0.44279 -0.10234,1.03546 0.69141,1.31641 2.27593,0.80558 6.05664,4.96919 6.05664,6.66992 0,0.97754 -0.90954,1.54492 -2.47461,1.54492 -1.77913,0 -2.94626,-0.91184 -4.15234,-3.24414 -1.67118,-3.2317 -1.67962,-3.2337 -2.70508,-0.93555 -0.78715,1.76409 -1.57602,2.16975 -3.34961,1.72461 C 210.04287,234.22479 209,234.38446 209,234.90039 c 0,1.42575 9.21917,3.52152 17.71484,4.02734 0.66815,0.0398 1.68899,0.95601 2.26758,2.03711 0.89262,1.66788 0.60167,2.19805 -1.91601,3.5 -1.63192,0.8439 -3.28313,1.53516 -3.66993,1.53516 -0.3868,0 -2.43527,-1.87451 -4.55078,-4.16602 -3.03959,-3.29247 -3.8457,-3.76044 -3.8457,-2.22851 0,1.0662 1.35682,3.58529 3.01562,5.59765 1.71307,2.07822 2.5874,3.92489 2.02344,4.27344 -1.34511,0.83132 -9.22931,-1.35837 -8.59375,-2.38672 0.91478,-1.48015 -3.36912,-9.05628 -4.80859,-8.5039 -0.83164,0.31913 -1.84156,-0.66752 -2.62891,-2.56836 C 202.59431,232.6051 198.57864,229 196.19141,229 c -1.20122,0 -1.06115,0.51069 0.64257,2.32422 1.20091,1.2783 1.85584,2.65196 1.45508,3.05273 -0.40077,0.40081 0.0413,0.43325 0.98242,0.0723 1.14994,-0.44127 1.93565,-0.0486 2.39454,1.19726 0.37555,1.01956 1.99786,3.20352 3.60546,4.85352 2.73652,2.80871 4.72852,6.41609 4.72852,8.56445 0,3.5996 -6.78077,-2.27806 -8.93164,-7.74218 -1.90155,-4.83075 -4.72005,-7.02073 -7.11133,-5.52735 -2.59803,1.62249 -5.17307,1.51825 -7.51562,-0.30469 -1.8781,-1.46151 -1.81848,-1.62151 1.86523,-4.90625 2.3573,-2.102 3.38891,-3.65475 2.70703,-4.07617 -2.05933,-1.27274 -5.90274,2.38248 -7.08594,6.73828 -2.03015,7.47374 -1.81009,7.09655 -3.39257,5.78321 -1.2446,-1.03293 -1.16424,-1.89841 0.59179,-6.35352 1.11808,-2.83658 2.36037,-5.38582 2.75977,-5.66601 4.29185,-3.01082 5.23274,-4.0064 4.66211,-4.92969 -1.194,-1.93193 -2.43384,-1.18486 -10.08399,6.08203 -5.06651,4.81269 -7.86962,6.83155 -8.54687,6.1543 -1.22433,-1.22433 9.92604,-12.39078 13.63086,-13.65039 2.30992,-0.78536 3.44239,-2.66602 1.60547,-2.66602 -1.29348,0 -12.47398,7.43514 -14.02735,9.32812 -0.75485,0.91991 -1.81388,1.67188 -2.35351,1.67188 -0.53963,0 0.44466,-1.62272 2.18554,-3.60547 3.08393,-3.51243 3.52625,-5.87179 0.6543,-3.48828 -0.81697,0.67803 -1.67811,0.79621 -2,0.27539 -1.10803,-1.79283 10.80478,-9.5593 16.38672,-10.68359 1.925,-0.38772 6.2,-1.97848 9.5,-3.53321 12.52999,-5.90328 12.09063,-5.92372 19.29297,0.94336 4.33836,4.13641 6.20703,5.02654 6.20703,2.95899 0,-1.24166 -5.23734,-6.45545 -8.98242,-8.94141 l -2.3711,-1.57226 2.33204,-2.33204 c 1.28241,-1.28241 4.49415,-3.15215 7.13671,-4.15625 4.12637,-1.56789 5.89272,-1.68926 12.51563,-0.84961 4.24137,0.53776 8.74436,1.65587 10.00586,2.48243 2.68519,1.75941 4.36328,1.9313 4.36328,0.44726 0,-1.75421 -11.07691,-6.25571 -15.63477,-6.35351 l -4.26367,-0.0918 3.19922,-1.68555 c 3.16161,-1.66513 9.88934,-1.75052 17.06836,-0.21679 2.14984,0.45929 2.75684,0.27369 2.42383,-0.74219 -0.24439,-0.74551 -2.88585,-1.96326 -5.86914,-2.70508 -4.727,-1.17541 -6.07776,-1.14328 -10.51172,0.25 -2.79834,0.87932 -5.49834,1.60081 -6,1.60156 -0.50166,7.5e-4 -0.78362,-2.36175 -0.62695,-5.25 0.15667,-2.88825 -0.0757,-7.24325 -0.51563,-9.67773 -0.66557,-3.6828 -1.55365,-4.97347 -5.28515,-7.6836 -2.46669,-1.79149 -5.27188,-3.28771 -6.23438,-3.32421 -3.30352,-0.12533 -1.74753,2.71374 2.60938,4.76171 5.01419,2.35696 5.61,4.19154 5.6289,17.3125 0.0106,7.38645 -0.0754,7.66435 -2.57226,8.29102 -1.42069,0.35657 -4.34569,1.76114 -6.5,3.12109 L 209,197.02539 v -5.5957 c 0,-6.52254 -2.07154,-7.20573 -2.67188,-0.88086 -0.52681,5.55049 -0.98684,6.45117 -3.29687,6.45117 -2.55781,0 -2.54411,-0.23357 0.44922,-7.5 1.35939,-3.3 2.48309,-6.7875 2.49609,-7.75 0.0439,-3.23843 -1.69074,-1.78492 -3.48828,2.92188 -0.98112,2.56899 -2.35656,5.77364 -3.05664,7.12304 -0.70011,1.34941 -1.03641,3.07351 -0.74609,3.83008 0.35912,0.93585 -0.25188,1.375 -1.91211,1.375 -3.01579,0 -4.06553,-0.94393 -2.77735,-2.49609 0.53836,-0.64868 2.10861,-6.51653 3.49024,-13.04102 2.63106,-12.4248 2.69281,-12.54966 12.98047,-26.46289 3.05009,-4.125 6.65419,-9.15738 8.00976,-11.18359 1.35557,-2.02621 3.26564,-4.13547 4.24414,-4.6875 1.35343,-0.76355 1.50082,-1.28476 0.61719,-2.17774 -1.38185,-1.39644 -7.97983,5.27904 -13.88672,14.04883 -2.03749,3.025 -5.02232,6.89794 -6.63281,8.60547 -2.99123,3.17146 -7.9556,17.09775 -10.03125,28.14453 -0.6548,3.48491 -1.47642,5.25 -2.44531,5.25 -0.80279,0 -1.21938,-0.38823 -0.92578,-0.86328 1.1748,-1.90086 2.69375,-20.30597 2.57031,-31.13672 -0.13606,-11.93793 -0.239,-13.22404 -1.92774,-24 -1.67555,-10.69184 -1.57386,-11.19534 2.19141,-10.88477 3.66021,0.30189 16.75,-2.98447 16.75,-4.20507 0,-1.73384 -2.09055,-1.89863 -5.57812,-0.44141 -5.15667,2.15459 -10.53413,1.90465 -15.44532,-0.7168 l -4.21094,-2.24804 0.52735,-6.00196 c 0.75821,-8.63569 2.70305,-16.622269 3.87109,-15.900388 0.59124,0.365415 0.72436,2.570696 0.33008,5.437498 -0.63722,4.63313 -0.54417,4.88504 2.37109,6.39258 3.7591,1.94391 5.13477,1.98344 5.13477,0.14844 0,-0.7813 -1.34459,-1.71712 -2.98828,-2.07813 -1.6437,-0.36102 -3.2158,-1.02154 -3.49219,-1.46875 -0.27639,-0.44721 0.64196,-2.85774 2.03906,-5.357419 2.18845,-3.915557 2.36109,-4.832191 1.25,-6.611328 C 192.09928,91.928657 191.12176,91 190.63672,91 c -0.48505,0 -0.32141,0.675 0.36328,1.5 1.04326,1.257048 0.88395,1.5 -0.98438,1.5 -1.48326,0 -2.05302,-0.462012 -1.70117,-1.378906 0.29086,-0.75798 0.0385,-1.867808 -0.56054,-2.466797 -0.78543,-0.78543 -0.62426,-1.267118 0.57812,-1.728516 C 189.249,88.073907 190,87.207312 190,86.5 c 0,-1.523852 1.86876,-2.361335 4.40234,-2.464844 z M 193,86 c -0.55,0 -1,0.45 -1,1 0,0.55 0.45,1 1,1 0.55,0 1,-0.45 1,-1 0,-0.55 -0.45,-1 -1,-1 z m 4.05859,1 C 196.47613,87 196,87.45 196,88 c 0,0.55 0.19887,1 0.44141,1 0.24254,0 0.71867,-0.45 1.05859,-1 0.33992,-0.55 0.14105,-1 -0.44141,-1 z m 6.13086,1 c -0.53699,0 -1.24976,0.713026 -1.58398,1.583984 -0.37373,0.973914 -0.14872,1.431083 0.58203,1.1875 C 203.68234,90.273205 204.50384,88 203.18945,88 Z M 56,98 c -0.55,0 -1,1.601152 -1,3.55859 0,2.11803 0.404882,3.30921 1,2.94141 0.55,-0.33992 1,-1.94105 1,-3.55859 C 57,99.323848 56.55,98 56,98 Z m 149.55859,2 c 0.24254,0 0.44141,0.45 0.44141,1 0,0.55 -0.47613,1 -1.05859,1 -0.58246,0 -0.78133,-0.45 -0.44141,-1 0.33992,-0.55 0.81605,-1 1.05859,-1 z m 13.52539,1.04492 c 0.50492,-0.0431 0.91602,0.39094 0.91602,1.33203 0,0.75765 -0.675,1.93836 -1.5,2.62305 -1.59021,1.31975 -1.9513,0.34101 -0.89258,-2.41797 0.37336,-0.97295 0.97165,-1.49402 1.47656,-1.53711 z m -37.83398,4.9707 c 1.20992,-0.0247 0.86068,4.47526 -0.44922,5.78516 -1.77735,1.77736 -3.25942,1.45592 -1.73828,-0.37695 1.08409,-1.30624 1.06285,-1.73443 -0.12695,-2.5 -1.23976,-0.7977 -1.23058,-1.05789 0.0644,-1.90821 0.825,-0.54156 1.8375,-0.992 2.25,-1 z m 40.32422,1.36133 c 0.46388,0.0862 0.28166,0.99066 -0.88086,2.65039 -0.83069,1.18597 -2.40089,2.78 -3.49024,3.54297 -1.77466,1.24303 -2.04033,1.16395 -2.54492,-0.76562 -0.30972,-1.18437 -0.14751,-2.86201 0.35938,-3.72852 0.74068,-1.26616 0.93457,-1.08535 0.98437,0.92383 l 0.0606,2.5 2.51953,-2.86523 c 1.41777,-1.61229 2.52831,-2.34405 2.99219,-2.25782 z M 224.48633,110 c 1.33783,0 0.29187,4.2218 -1.48633,6 -1.96018,1.96018 -5.0286,2.73181 -4.9707,1.25 0.0345,-0.88239 5.7057,-7.25 6.45703,-7.25 z M 188.75,111.01367 c -2.68673,-0.021 -2.07728,1.7003 1,2.82422 3.8985,1.42385 5.25,1.36733 5.25,-0.2207 0,-1.37288 -2.89065,-2.57732 -6.25,-2.60352 z m -131.292969,0.19531 c 0.286027,-0.28603 3.337529,0.87705 6.78125,2.58399 9.618378,4.7675 19.897211,9.20703 21.316407,9.20703 0.703051,0 2.201629,1.2375 3.330078,2.75 1.946892,2.60949 2.053924,2.63762 2.083984,0.55859 0.01742,-1.20504 0.36875,-2.39531 0.78125,-2.64453 0.4125,-0.24923 6.15,0.39247 12.75,1.42578 6.6,1.03332 13.893,1.88649 16.20703,1.89454 l 4.20703,0.0156 -0.0254,11.94336 c -0.0295,13.82602 0.38697,13.56331 -9.53125,5.99805 C 109.65076,140.58864 99.081117,136 94.761719,136 c -1.017316,0 -1.77678,-0.5625 -1.6875,-1.25 0.51224,-3.94469 -0.173023,-5.75 -2.183594,-5.75 -1.817692,0 -2.053516,0.47827 -1.705078,3.46289 0.422606,3.61993 -0.158627,4.12621 -6.935547,6.03711 -2.492893,0.70292 -2.754955,1.68869 -1.214844,4.56641 0.982,1.83489 0.63521,1.93426 -6.75,1.94726 -12.089502,0.0212 -12.539784,0.26077 -11.939453,6.375 0.276228,2.81332 0.182301,6.68945 -0.208984,8.61328 -0.511017,2.51253 -1.308283,3.58403 -2.830078,3.80469 -2.780333,0.40313 -3.104937,-0.34921 -2.71875,-6.30664 0.65337,-10.07913 0.593295,-28.04977 -0.09961,-29.76367 -0.391954,-0.96951 -0.182898,-2.40116 0.464844,-3.18164 0.849097,-1.0231 0.899859,-2.42691 0.179687,-5.03516 -0.949871,-3.44016 -0.804087,-7.18225 0.324219,-8.31055 z M 190.44141,116 c -0.85748,0 -1.28133,0.45 -0.94141,1 0.33992,0.55 1.04105,1 1.55859,1 0.51754,0 0.94141,-0.45 0.94141,-1 0,-0.55 -0.70113,-1 -1.55859,-1 z m 39.49609,6.00781 c 0.23974,0.0229 0.0964,0.45908 -0.23633,1.32617 -0.38603,1.00599 -0.70117,2.69303 -0.70117,3.74805 0,2.3011 -0.47109,2.32016 -5,0.20508 -3.32375,-1.55225 -3.37868,-1.65487 -1.07422,-2.05273 1.33467,-0.23046 3.56426,-1.1642 4.95313,-2.07422 1.1971,-0.78437 1.81885,-1.17529 2.05859,-1.15235 z m -106.6875,0.008 c 0.9625,-0.008 1.75,0.43438 1.75,0.98438 0,1.21961 -0.11279,1.21961 -2,0 -1.2819,-0.82843 -1.24555,-0.97127 0.25,-0.98438 z m 62.64453,9.42579 c 0.21498,-0.0397 0.39825,-0.0243 0.56055,0.043 0.2164,0.0897 0.3939,0.27258 0.55859,0.53906 1.57314,2.54539 1.47688,59.23395 -0.10156,59.81054 -0.50187,0.18334 -0.91211,1.42084 -0.91211,2.75 0,2.34055 -1.3617,3.25766 -2.38281,1.60547 -0.27545,-0.44569 -0.0315,-2.65645 0.54101,-4.91211 0.71622,-2.82191 0.71696,-4.67448 0.008,-5.93945 -1.25041,-2.22766 -1.69685,-1.22583 -2.66016,5.96094 l -0.64258,4.79687 -5.68164,-0.29687 c -5.27833,-0.27672 -5.68899,-0.47626 -5.79492,-2.79883 -0.0627,-1.375 -0.43182,-5.875 -0.81836,-10 -0.56695,-6.05033 -0.18184,-10.30269 1.98828,-22 1.47954,-7.975 2.78596,-15.6764 2.90234,-17.11328 0.20269,-2.50255 2.04675,-4.56837 9.38086,-10.50977 1.48203,-1.20058 2.40974,-1.8163 3.05469,-1.93554 z m -93.679686,7.66797 c 0.779662,0 1.903805,0.29703 3.285156,0.89062 1.676017,0.72021 1.473527,0.87079 -1.25,0.92969 C 92.4625,140.9674 91,140.55 91,140 c 0,-0.59358 0.435181,-0.89062 1.214844,-0.89062 z m 77.521486,1.95312 c 1.13137,0.26099 0.84962,2.81266 -0.21875,7.49219 -0.74667,3.27041 -1.92729,8.64531 -2.625,11.94531 -1.29043,6.10352 -3.53566,10.41205 -5.45508,10.46875 -0.5846,0.0173 -2.3846,1.43219 -4,3.14453 -1.6154,1.71235 -4.57082,4.15823 -6.56641,5.43555 -5.98591,3.83139 -10.17608,5.2531 -12.71875,4.3125 -3.06987,-1.13561 -19.96593,-16.69556 -20.72461,-19.08594 -0.55367,-1.74445 5.0943,-11.6826 6.67774,-11.75 0.33341,-0.0142 2.67025,1.54961 5.19141,3.47461 2.52108,1.925 4.85333,3.5 5.18359,3.5 0.33027,0 1.89511,0.95828 3.47851,2.12891 2.98777,2.20896 3.05537,3.83345 0.29102,7.05859 -1.56176,1.82208 -0.9418,3.8125 1.1875,3.8125 1.59103,0 4.02318,-5.44508 3.09961,-6.93945 -0.36043,-0.5832 0.0468,-1.06055 0.9043,-1.06055 2.07975,0 2.02039,3.83356 -0.0957,6.17188 -1.5613,1.72522 -1.51538,1.82812 0.83789,1.82812 3.47865,0 5.35103,-4.11832 3.56055,-7.83203 -1.25242,-2.5977 -1.00552,-2.95399 9.29297,-13.41797 7.45395,-7.57373 11.24459,-11.02306 12.69922,-10.6875 z m -74.791018,2.30469 c 0.783705,-0.0625 2.13984,-0.046 3.878907,0.0625 3.895681,0.24297 6.997071,1.00409 8.078121,1.98242 2.17694,1.97011 2.86057,1.99509 3.27344,0.11914 0.24276,-1.10303 1.14984,-0.74542 3.63867,1.4375 1.82315,1.59905 3.76867,3.05961 4.32227,3.24414 0.65882,0.21961 0.58905,2.05348 -0.20117,5.31055 -1.55652,6.41549 -1.91413,6.72565 -5.08203,4.40234 -1.45532,-1.06733 -4.39541,-2.55824 -6.53321,-3.3125 -2.13779,-0.75426 -6.533969,-3.22567 -9.769529,-5.49219 L 90.667969,147 h 3.736328 c 2.901812,0 4.796263,0.89345 8.480473,4 5.65999,4.77257 8.82342,5.40352 4.55273,0.9082 -2.76094,-2.90617 -8.4199,-6.4646 -12.9375,-8.13476 -0.55,-0.20334 -0.338388,-0.34372 0.445312,-0.40625 z M 74.339844,148 c 6.761891,0 9.625881,0.45111 12.654297,1.99609 4.120879,2.10232 4.094466,2.03953 5.523437,13.25391 0.458192,3.59583 0.285624,4.71328 -0.707031,4.59961 -0.7212,-0.0826 -6.549349,-0.81609 -12.953125,-1.63086 l -11.644531,-1.48242 -0.658203,-4.11719 c -0.362173,-2.26514 -0.523409,-4.16184 -0.357422,-4.21484 0.165987,-0.053 -0.323968,-0.85257 -1.089844,-1.77539 -0.765875,-0.92282 -1.167211,-1.9011 -0.892578,-2.17579 0.274633,-0.27464 6.076336,0.14749 12.892578,0.93946 6.816242,0.79196 12.587839,1.24602 12.826172,1.00781 1.321011,-1.32031 -2.666146,-2.50226 -11.96875,-3.54492 -5.755563,-0.6451 -10.891563,-1.55071 -11.414063,-2.01367 C 66.027198,148.37788 69.522972,148 74.339844,148 Z m 21.486328,6.65625 2.427734,1.58984 c 1.335113,0.8748 4.289964,2.0921 6.566404,2.70508 3.08246,0.83002 5.03627,2.29271 7.65821,5.72656 1.93633,2.53594 3.52148,5.22089 3.52148,5.9668 0,0.74591 -0.1125,1.30048 -0.25,1.23438 -0.1375,-0.0661 -4.19329,-0.80077 -9.01367,-1.63282 -9.662772,-1.6679 -9.007111,-0.98431 -10.269533,-10.66797 z M 125.16016,157 c -0.46172,0 -1.35202,1.125 -1.97852,2.5 -1.33858,2.93787 0.24482,3.44089 1.7832,0.56641 C 126.21952,157.72202 126.26518,157 125.16016,157 Z m 3.86132,3.51367 C 128.19188,160.00095 123,165.88989 123,167.34375 c 0,0.36059 0.60595,0.65625 1.3457,0.65625 2.56634,0 6.52732,-6.34201 4.67578,-7.48633 z M 206.56836,168 c -2.2373,0 -2.69609,2.87485 -1.5918,10 0.25975,1.67601 2.82692,-5.50952 2.94727,-8.25 0.0423,-0.9625 -0.56754,-1.75 -1.35547,-1.75 z m -42.61328,5.9707 0.6582,2.62305 c 0.36204,1.44249 0.70849,6.06055 0.77149,10.26367 L 165.5,194.5 l -9.14062,0.28516 -9.14258,0.28711 -0.44336,-4.28711 c -0.57378,-5.55606 -0.1957,-6.442 3.2539,-7.64454 1.57704,-0.54974 5.35514,-2.83915 8.39649,-5.08593 z m 12.79492,0.23633 c -1.52608,-0.30916 -1.75839,0.51851 -1.80859,6.46875 -0.0317,3.75282 -0.23416,8.51172 -0.45118,10.57422 -0.21701,2.0625 0.007,3.75 0.49805,3.75 1.48589,0 1.86892,-1.31992 2.48633,-8.56055 0.32545,-3.81675 0.68957,-8.05037 0.80859,-9.4082 0.14559,-1.6609 -0.35587,-2.5857 -1.5332,-2.82422 z m 77.58789,36.07227 c -0.77951,-0.14189 -1.7283,0.64525 -3.51562,2.7207 -6.59508,7.65829 -7.9399,10.41068 -7.23633,14.81055 0.86924,5.43595 4.24249,6.81425 9.33008,3.8125 2.78074,-1.64068 3.53669,-1.76503 3.9121,-0.63867 0.25599,0.76795 1.65551,2.5493 3.10938,3.95703 1.45386,1.40774 3.26316,3.79609 4.02148,5.30859 0.75832,1.5125 1.90787,2.75 2.55469,2.75 0.64682,0 1.95175,0.85801 2.90039,1.90625 1.35552,1.49783 2.83519,1.84408 6.90625,1.61523 2.8491,-0.16017 5.47836,-0.34315 5.84375,-0.40625 0.36539,-0.0631 2.58415,-1.85144 4.92969,-3.97461 l 4.26367,-3.86132 -1.42773,-6.84766 c -1.30621,-6.25929 -1.7906,-7.1004 -5.62305,-9.78906 -3.87831,-2.72082 -4.91586,-2.95409 -13.85937,-3.11328 -8.83297,-0.15723 -9.81884,-0.37148 -11.41407,-2.48633 -1.15821,-1.53546 -1.9835,-1.93324 -2.44922,-1.17969 -0.38619,0.62482 -0.40473,1.61548 -0.043,2.20117 0.36199,0.58568 0.36487,2.6202 0.01,4.51953 -0.48349,2.57723 -1.6401,4.0788 -4.55664,5.91993 -3.18925,2.01329 -6.99414,2.52176 -6.99414,0.93554 0,-1.26081 2.85781,-6.52009 5.20703,-9.58398 1.53665,-2.00415 2.79297,-4.09307 2.79297,-4.64258 0,-0.5495 0.751,-1.2868 1.66797,-1.63867 1.32915,-0.51005 1.41408,-0.88702 0.41797,-1.85742 -0.24698,-0.2406 -0.48821,-0.39021 -0.74805,-0.4375 z m -44.97656,5.80078 c -0.20317,-0.23134 -1.40891,0.55616 -2.67969,1.75 C 205.41086,219.02392 204.01469,220 203.57812,220 201.53025,220 193,224.63202 193,225.74414 c 0,1.74732 0.52638,1.61822 5.67383,-1.39844 4.35592,-2.55273 4.6382,-2.59128 7.33203,-1 1.541,0.9103 3.49466,1.6543 4.33984,1.6543 0.84518,0 1.86022,0.5625 2.25586,1.25 0.39565,0.6875 0.37471,0.94184 -0.0449,0.56445 -0.41973,-0.37738 -1.82602,-0.28293 -3.125,0.21094 -1.45399,0.55285 -2.58913,0.52741 -2.95508,-0.0644 -1.04969,-1.69845 -2.22951,-1.03042 -2.7207,1.53906 -0.54256,2.8382 -0.0317,2.96283 5.4375,1.32422 5.68336,-1.70278 6.44071,-3.8476 3.19726,-9.05469 -1.46261,-2.34818 -2.82613,-4.45811 -3.02929,-4.68945 z m -29.45508,0.0117 c -0.7097,0.16151 -1.7445,0.79164 -3.04492,1.875 -2.64543,2.20387 -2.20971,2.49724 1.57422,1.05859 1.41081,-0.53639 2.56445,-1.43639 2.56445,-2 0,-0.78742 -0.38405,-1.0951 -1.09375,-0.93359 z m 27.46289,4.10937 c 1.02751,-0.21599 2.5747,0.31494 3.43945,1.17969 2.28494,2.28494 1.15169,2.69128 -2.30859,0.82812 -2.50337,-1.34792 -2.68979,-1.68012 -1.13086,-2.00781 z m 59.48633,0.95703 c 1.02958,0.0159 2.26815,0.0844 3.79687,0.19336 8.54313,0.60873 10.46463,1.48317 13.28516,6.04688 3.15311,5.10185 2.00544,10.88831 -2.80664,14.1582 -5.73351,3.89603 -7.73772,3.2206 -9.94922,-3.35156 -1.6116,-4.78937 -4.71151,-8.75157 -8.8457,-11.30664 l -3.62891,-2.24219 2.35938,-1.91016 c 1.49632,-1.21164 2.70031,-1.63553 5.78906,-1.58789 z m -8.55664,5.96289 c 1.33578,-0.61852 6.89901,4.42447 9.66211,9.12891 1.67453,2.85103 1.8645,3.75 0.79297,3.75 -1.35039,0 -10.73775,-10.69931 -10.74805,-12.25 -0.002,-0.33695 0.10214,-0.54055 0.29297,-0.62891 z m -71.20508,10.47071 c 0.32858,0.0391 0.70148,0.13241 1.11719,0.28515 1.25857,0.46244 2.43179,1.79131 2.60547,2.95313 0.17368,1.16182 -0.0986,2.8516 -0.60352,3.7539 -0.78918,1.41019 -1.2318,1.19757 -3.1582,-1.50781 -2.39824,-3.36802 -2.26119,-5.75803 0.0391,-5.48437 z m 9.05664,1.49609 c 1.33515,-0.10136 2.79718,1.32382 3.66406,3.81055 1.12683,3.23243 0.69875,3.98271 -1.92578,3.3789 -2.13307,-0.49074 -4.31298,-5.25342 -3.0039,-6.5625 0.3903,-0.3903 0.82057,-0.59316 1.26562,-0.62695 z m -2.3418,6.75195 c 0.53064,0.0841 1.18967,0.32112 1.95899,0.72266 1.50318,0.78458 4.19492,1.70379 5.98242,2.04297 1.7875,0.33919 3.25,0.98003 3.25,1.42383 0,0.44381 0.27357,1.51869 0.60742,2.38867 0.61711,1.60818 -0.15567,1.77974 -4.10742,0.91015 -4.28963,-0.9439 -7.61993,-2.68497 -8.58398,-4.48632 -1.14309,-2.13588 -0.69934,-3.25417 0.89257,-3.00196 z M 5.171875,267.19727 c -4.75231569,-0.27776 -6.9466422,0.9201 -3.921875,2.14062 0.6875,0.27741 3.2006511,0.54056 5.5839844,0.58399 6.3939596,0.11648 4.8946326,-2.34138 -1.6621094,-2.72461 z M 36.5,267.9043 l 2,0.47656 c 1.1,0.26181 5.2625,0.77816 9.25,1.14844 3.9875,0.37028 7.25,0.74282 7.25,0.82812 0,0.0853 0.418081,1.61457 0.929688,3.39844 0.511606,1.78387 0.624107,3.23942 0.25,3.23242 C 55.181004,276.97035 40.836546,270.61414 38.5,269.1543 Z m 104.45312,4.45117 c -4.0586,-0.0138 -6.33664,0.0618 -5.70312,0.25586 0.9625,0.29479 1.74619,0.84072 1.74219,1.21289 -0.0334,2.99002 -2.3353,14.40528 -3.51367,17.42578 -0.80461,2.0625 -1.18555,3.75 -0.84766,3.75 0.33789,0 0.17028,0.5625 -0.37109,1.25 -0.54136,0.6875 -1.25679,3.34379 -1.58985,5.90234 l -0.60547,4.65235 4.71875,0.43359 c 2.59458,0.23856 16.40089,0.52951 30.68164,0.64649 14.28076,0.11698 26.05542,0.30315 26.16602,0.41406 0.14771,0.14811 41.06514,-0.0499 58.1875,-0.28125 0.79235,-0.0107 1.10034,-0.71508 0.77344,-1.76758 -0.5327,-1.71512 -0.86367,-4.56168 -2.1836,-18.83789 -1.05984,-11.46315 -0.87764,-11.35976 -20.92187,-11.86328 C 218.14379,275.31415 203.525,274.67387 195,274.125 c -13.67198,-0.88026 -41.87104,-1.72811 -54.04688,-1.76953 z m -0.54296,0.65234 c 0.59928,0.005 6.26484,0.46751 12.58984,1.02735 6.325,0.55984 14.09595,1.05486 17.26953,1.09961 l 5.77149,0.0801 -0.59961,5.14258 c -0.32977,2.82823 -1.01518,7.58766 -1.52149,10.57617 -0.50631,2.98848 -0.91992,7.65077 -0.91992,10.35938 0,4.90826 -0.009,4.92029 -2.75,4.08789 -1.5125,-0.45937 -8.7125,-0.78882 -16,-0.73242 -7.2875,0.0564 -13.25,-0.058 -13.25,-0.25586 0,-1.80519 5.39115,-25.25558 6.11914,-26.61524 0.60239,-1.12617 0.60158,-1.77734 -0.004,-1.77734 -1.09671,0 -3.71796,7.6099 -4.65039,13.5 -0.70318,4.44197 -2.0706,9.57788 -3.66015,13.75 -0.57625,1.5125 -1.33001,2.68818 -1.67578,2.61328 -0.34577,-0.0749 -1.64141,-0.33001 -2.87891,-0.56836 -1.2375,-0.23836 -2.25,-0.71543 -2.25,-1.05859 0,-0.34317 1.07926,-4.24862 2.39844,-8.67969 1.31919,-4.43108 2.96611,-11.31914 3.66015,-15.30664 0.69403,-3.9875 1.75229,-7.24719 2.35157,-7.24219 z M 63.816406,274 c -1.112697,0 -0.988893,1.48684 0.701172,8.5 1.863643,7.73344 1.361019,26.46041 -0.851562,31.75586 -1.07909,2.58263 -3.005933,4.57554 -6.271485,6.48633 -9.013871,5.27436 -10.99427,7.60398 -12.320312,14.48828 -1.760434,9.13949 -3.194108,14.77674 -4.837891,19.01953 -1.155311,2.98199 -1.995252,3.76491 -4.095703,3.82031 -1.974488,0.0521 -1.421996,0.44433 2.185547,1.55274 3.73008,1.14605 5.573496,1.23467 8.11914,0.39453 3.302775,-1.09001 12.971781,-7.85229 17.439454,-12.19727 1.620542,-1.57604 2.528227,-1.92382 2.830078,-1.08203 C 67.490408,348.90113 78.930942,357 81.210938,357 c 2.777158,0 2.038769,-0.74551 -6.71875,-6.79297 -3.756288,-2.59388 -6.963121,-5.16358 -7.126954,-5.71094 -0.163833,-0.54735 0.324241,-1.81647 1.083985,-2.82031 1.290048,-1.70452 2.052292,-1.29185 11.521484,6.25195 C 90.163839,356.04826 96,359.78619 96,358.19336 96,357.2548 74.652109,340.18662 72.394531,339.32031 c -2.05275,-0.78772 -1.695525,-3.09043 0.591797,-3.8164 1.928029,-0.61194 9.596147,3.71397 14.513672,8.1875 1.1,1.00068 4.693094,4.06759 7.984375,6.81445 3.291282,2.74686 6.862575,5.78164 7.937505,6.74414 2.95359,2.64469 4.40175,2.09893 1.55468,-0.58594 C 94.765102,347.03435 85.960167,339.02465 83,336.67383 c -3.301941,-2.62224 -3.358529,-2.76434 -1,-2.50781 1.375,0.14955 2.99354,-0.0349 3.595703,-0.41016 1.149009,-0.71602 1.534597,-0.38717 18.833987,15.99414 5.95345,5.6375 11.44232,10.25 12.19726,10.25 2.37767,0 1.47969,-2.40392 -1.86914,-5 C 110.22639,351.48714 95.081752,337.85265 91.5625,334.11719 89.9471,332.40254 88.083178,331 87.419922,331 c -1.610982,0 -2.437647,-2.35312 -1.410156,-4.01562 0.64087,-1.03695 1.602739,-0.6825 4.304687,1.58984 1.913457,1.60922 5.631268,4.72578 8.261719,6.92578 2.630448,2.2 6.408108,5.575 8.394528,7.5 1.98642,1.925 5.39288,5.00243 7.57032,6.83984 2.17743,1.8374 5.639,4.95869 7.6914,6.93555 2.05241,1.97686 4.0414,3.28281 4.42188,2.90234 C 127.86878,358.46324 89.888863,324 87.335938,324 c -1.774025,0 -1.695841,-1.45608 0.162109,-2.99805 1.240444,-1.02947 2.449585,-0.52651 7.019531,2.92383 3.036462,2.29255 5.972822,3.88838 6.525392,3.54688 0.55257,-0.34151 4.32854,1.17222 8.39062,3.36328 5.51822,2.97649 10.31672,6.90893 18.97657,15.55273 6.37469,6.36287 11.58984,11.9751 11.58984,12.47266 0,1.12439 4.0164,2.24713 5.26953,1.47265 0.84084,-0.51967 -4.02136,-5.51943 -18.11719,-18.625 C 124.31873,339.07444 122,336.77435 122,336.59766 c 0,-1.14856 6.096,1.08333 9,3.29492 1.925,1.46602 4.85,3.52282 6.5,4.57031 1.65,1.04748 7.13649,5.1968 12.19336,9.2207 9.29075,7.39293 10.30664,8.02756 10.30664,6.4375 0,-0.8722 -14.38862,-12.85847 -22.35352,-18.62109 -3.74305,-2.7081 -3.92756,-3.03185 -1.89648,-3.32031 4.11969,-0.58509 2.32218,-1.94117 -3.5,-2.64063 -7.31648,-0.87898 -12.01153,-2.47391 -20.75,-7.04883 -5.89691,-3.08726 -13.5,-9.4262 -13.5,-11.25585 0,-0.28281 2.5875,-0.19429 5.75,0.19726 3.1625,0.39154 7.775,0.85675 10.25,1.0332 9.38417,0.66907 12.31953,2.08473 15.53125,7.49414 1.63295,2.75032 3.32285,5.01059 3.75586,5.02149 0.43302,0.0109 2.71434,1.93203 5.06836,4.26953 2.35402,2.3375 6.48097,6.05 9.17187,8.25 8.8634,7.24645 15.76312,13.46919 17.18555,15.5 1.23428,1.76218 6.28711,2.91604 6.28711,1.43555 0,-0.77707 -4.6421,-4.64594 -15.81836,-13.18164 -5.21784,-3.98505 -10.15427,-8.19655 -10.96875,-9.35938 -1.38588,-1.97862 -1.34435,-2.07132 0.64649,-1.43945 1.6644,0.52826 1.99732,0.33412 1.52734,-0.89063 C 146.05634,334.70349 145.44432,334 145.02734,334 c -0.41698,0 -1.95981,-0.94535 -3.42968,-2.10156 -2.05518,-1.6166 -2.41633,-2.41261 -1.5625,-3.44141 0.90153,-1.08628 2.45932,-0.53886 8.28711,2.91016 3.94754,2.33624 9.1581,5.68564 11.57812,7.4414 2.42002,1.75577 4.89502,3.17851 5.5,3.16211 1.54129,-0.0418 -6.82679,-7.33418 -13.29297,-11.58398 -7.81513,-5.13639 -9.76307,-5.70519 -13.37304,-3.9043 -1.67322,0.8347 -3.41641,1.51758 -3.875,1.51758 -1.0408,0 -6.17365,-8.01777 -5.53907,-8.65234 0.25527,-0.25527 8.49289,0.23651 18.30664,1.09375 9.81374,0.85723 18.44302,1.55859 19.17578,1.55859 0.85479,0 1.12964,0.71687 0.76563,2 -0.31207,1.1 -0.80389,2.83743 -1.0918,3.86133 -0.4386,1.55978 0.49373,2.1462 5.75,3.61133 7.98035,2.22446 7.79432,2.0773 6.42969,5.01953 -1.56866,3.3821 -2.60484,3.16849 -7.14063,-1.47657 -3.82973,-3.922 -9.33993,-6.60384 -11.77343,-5.73046 -0.69705,0.25017 0.22361,1.27157 2.10156,2.33007 1.83927,1.03672 5.21427,3.34284 7.5,5.125 2.28572,1.78217 4.71875,3.245 5.40625,3.25 0.6875,0.005 1.25,0.35828 1.25,0.78321 0,0.42492 1.55358,1.60789 3.45312,2.63086 1.89953,1.02297 4.26205,2.60264 5.25,3.50976 0.98797,0.90711 3.59688,2.74812 5.79688,4.08985 2.2,1.34172 6.25,4.137 9,6.21289 4.7851,3.61214 7.5,4.69374 7.5,2.98828 0,-1.00171 -7.66392,-6.77667 -15.5,-11.67969 -7.85809,-4.9168 -9.8447,-6.69419 -8.44922,-7.55664 1.8811,-1.16259 8.95948,-0.19114 11.76758,1.61523 2.65002,1.70467 2.66134,1.70272 0.93164,-0.25781 -0.9625,-1.09095 -1.75,-2.22724 -1.75,-2.52539 0,-0.29816 2.7,-0.84735 6,-1.2207 3.3,-0.37335 6,-1.17393 6,-1.7793 0,-1.29915 -17.45066,-0.40455 -22.93359,1.17578 -4.46687,1.28748 -5.04612,0.54812 -1.97461,-2.52344 2.96257,-2.96255 4.22201,-3.24695 18.1582,-4.09765 L 210,330.69922 v 2.5918 c 0,1.42523 -0.45,2.86906 -1,3.20898 -1.9494,1.20479 -0.95979,2.5 1.91016,2.5 1.94288,0 4.63622,1.41266 8.10156,4.25 2.85486,2.3375 7.02738,5.48341 9.27344,6.99023 2.24607,1.50683 4.33942,3.14055 4.65039,3.63086 0.31096,0.4903 2.51867,2.5194 4.9082,4.50977 4.02364,3.3515 8.15625,4.75743 8.15625,2.77539 0,-0.76083 -26.29527,-20.83168 -31.75,-24.23437 -1.58606,-0.9894 -2.25,-2.36447 -2.25,-4.66211 0,-1.88437 -0.52734,-3.30394 -1.25,-3.36524 -0.6875,-0.0583 -8.3375,-0.0212 -17,0.082 l -15.75,0.1875 v -3.08203 c 0,-4.10318 -1.61571,-3.94048 -2.40039,0.24219 -0.56696,3.02217 -0.89588,3.28526 -3.61133,2.88672 C 169.34603,328.82329 169,328.38184 169,325.38672 V 322 h 18.55859 c 13.91522,0 18.37808,0.29272 17.83594,1.16992 -0.51246,0.82918 -0.16516,0.93319 1.19141,0.35547 1.05272,-0.44831 13.05156,-0.97184 26.66406,-1.16211 22.92804,-0.32048 27.09951,0.0673 23.65625,2.19531 -0.60181,0.37193 -0.8878,1.75839 -0.63477,3.08203 0.52475,2.74505 -0.90448,4.12677 -2.55859,2.47266 C 253.10081,329.5012 250.0374,329 246.90625,329 c -4.24054,0 -5.8461,-0.39799 -6.29297,-1.5625 C 239.83529,325.41009 238,326.54832 238,329.05859 c 0,1.53399 0.70147,1.94141 3.3418,1.94141 2.46221,0 4.42177,0.98626 7.45508,3.75 4.61922,4.2088 9.88817,8.53516 15.4414,12.67969 l 3.73828,2.79101 2.01172,-4.69336 C 272.4158,339.86417 272.47085,339 270.4082,339 c -0.87507,0 -3.43075,-1.575 -5.67968,-3.5 -2.24893,-1.925 -4.41396,-3.5 -4.81055,-3.5 -0.39658,0 -0.65146,-2.24865 -0.56836,-4.99805 0.0831,-2.7494 0.44121,-4.9994 0.79687,-5 0.35566,-6e-4 3.88263,2.49868 7.8379,5.55469 3.95526,3.056 7.84123,5.4185 8.63476,5.25 0.86002,-0.18262 -0.88527,-2.12058 -4.32031,-4.79687 -4.14445,-3.22901 -5.28086,-4.5823 -4.04492,-4.82032 0.94519,-0.18203 3.97463,1.57079 6.73047,3.89453 l 5.00976,4.22461 6.25391,-3.25195 c 6.26833,-3.26044 10.64949,-7.33252 10.71679,-9.96094 0.0266,-1.04042 -0.51128,-0.91068 -2.07031,0.5 -2.02579,1.83302 -4.18879,1.89348 -57.25,1.59375 -30.32958,-0.17132 -61.44453,-0.721 -69.14453,-1.2207 -37.96866,-2.464 -80.08359,-5.55135 -84,-6.1582 -2.224678,-0.34471 -2.228094,-0.3337 -2.394531,10.80078 -0.102921,6.88537 -0.17899,7.09738 -2.435547,6.66601 -4.230962,-0.8088 -9.334333,2.28658 -14.292969,8.67188 -4.726727,6.08668 -8.86043,9.3766 -17.630859,14.0293 -5.326875,2.8259 -6.495772,2.39759 -4.453125,-1.63477 0.792068,-1.56361 1.993649,-5.99375 2.669922,-9.84375 1.662257,-9.46318 3.402606,-13.15606 7.273437,-15.42773 12.627658,-7.41078 12.712801,-7.48245 13.273438,-11.07227 0.300635,-1.925 1.01527,-5.85802 1.58789,-8.74023 C 69.855664,297.41105 66.748576,274 63.816406,274 Z m 185.099614,1.12305 c -0.3474,-0.0143 -0.74259,0.0489 -1.10352,0.19336 -0.79773,0.31922 -0.56143,0.55744 0.60352,0.60547 1.05416,0.0434 1.64479,-0.19311 1.3125,-0.5254 -0.16615,-0.16612 -0.46511,-0.25913 -0.8125,-0.27343 z m 6.67187,0.32812 c -2.36266,0.0531 -3.33777,0.21464 -2.58789,0.47656 1.375,0.48027 4.89548,0.91786 7.82227,0.97266 2.92678,0.0548 5.91087,0.66211 6.63281,1.34961 2.66752,2.54029 28.12967,17.75 29.71484,17.75 3.47402,0 -3.59993,-5.1849 -20.16992,-14.7832 l -7.5,-4.34571 5.97656,0.59961 c 4.95838,0.49723 7.25175,1.44548 13.46289,5.56446 4.1175,2.73056 8.0092,4.96484 8.64844,4.96484 2.25522,0 2.70593,9.72111 0.99609,21.5 -0.50851,3.50306 -0.42075,4.55803 0.29297,3.52539 1.85258,-2.68043 3.38755,-15.34078 2.83594,-23.38867 -0.46672,-6.80924 -0.90904,-8.28775 -3.15234,-10.5293 -2.25148,-2.24973 -3.53351,-2.62765 -9.33594,-2.75976 -3.69888,-0.0842 -13.92461,-0.41124 -22.72461,-0.72461 -4.79922,-0.17091 -8.54945,-0.22498 -10.91211,-0.17188 z m -76.2832,0.28321 12.59765,0.71874 c 6.92869,0.39516 14.39766,0.88563 16.59766,1.08985 2.2,0.20422 10.68024,0.61515 18.8457,0.91406 8.16546,0.29891 15.19757,0.76196 15.62696,1.02735 1.27306,0.78678 2.81981,8.42614 3.54492,17.51562 l 0.67773,8.5 H 222.84766 198.5 l 0.16016,-8.35938 c 0.0879,-4.59791 -0.20994,-7.97289 -0.66211,-7.5 -1.24038,1.29733 -2.81692,13.35255 -1.82617,13.96485 0.47345,0.29262 0.60129,0.95406 0.2832,1.46875 -0.94603,1.53071 -20.5246,0.90997 -21.13086,-0.66992 -0.28078,-0.73171 0.20796,-4.18861 1.08398,-7.68164 0.87602,-3.49303 1.59752,-7.89725 1.60352,-9.78711 0.006,-1.88986 0.29959,-5.18286 0.65234,-7.31836 z M 256.86719,278 c -1.98239,0 -0.6054,1.67485 3.38281,4.11523 2.3375,1.43032 7.99634,4.91401 12.57422,7.74219 4.57787,2.82818 8.64731,5.14258 9.04492,5.14258 0.39762,0 3.17822,1.56369 6.17774,3.47461 C 293.71929,302.08838 295,302.58198 295,301.15039 295,300.4407 285.57211,294 284.5332,294 c -0.18323,0 -3.19087,-1.77283 -6.68359,-3.93945 C 266.60795,283.08708 257.75773,278 256.86719,278 Z M 291,278 c 3.43933,0 7,3.052 7,6 0,1.1 -0.1125,1.99475 -0.25,1.98828 -1.0199,-0.048 -9.75,-6.41203 -9.75,-7.10742 C 288,278.39595 289.35,278 291,278 Z m -102.98633,0.004 c -0.76451,0.0739 -1.1951,2.27543 -2.00586,8.56445 -0.5624,4.36254 -1.2398,9.20502 -1.50586,10.76172 -0.33341,1.95068 -0.10357,2.70379 0.74219,2.42187 1.54313,-0.51438 4.90079,-19.88676 3.67188,-21.18554 -0.35528,-0.37549 -0.64751,-0.58713 -0.90235,-0.5625 z m 65.82227,2.16797 c -0.15588,-0.0648 -0.30382,-0.0376 -0.43946,0.0976 -0.24265,0.24265 0.0374,4.21899 0.62305,8.83594 0.58564,4.61696 1.06831,9.06953 1.07031,9.89453 0.002,0.825 0.23287,3.39999 0.51368,5.72266 l 0.51171,4.22265 4.19141,-0.50586 c 2.30602,-0.27886 7.11836,-0.12801 10.69336,0.33594 5.67951,0.73707 22.88287,0.49033 23.84961,-0.3418 1.09198,-0.93994 -2.33608,-3.1251 -14.05859,-8.96289 -13.85323,-6.89888 -18.62809,-8.20128 -7.11719,-1.9414 3.75402,2.04152 8.04492,4.55817 9.53515,5.59179 1.49023,1.03362 3.25404,1.87891 3.91797,1.87891 0.66395,0 0.91707,0.288 0.56446,0.64062 -0.35262,0.35263 -3.8159,0.5609 -7.69727,0.4629 -6.47849,-0.1635 -7.57855,-0.523 -13.42383,-4.39063 -3.50201,-2.31716 -7.14423,-4.67555 -8.09375,-5.24219 -1.25243,-0.7474 -1.78027,-2.5319 -1.92383,-6.5 -0.15746,-4.35269 -1.62565,-9.34561 -2.71679,-9.79882 z M 0.75,280.19336 C 0.3375,279.99568 0,280.23297 0,280.7207 c 0,0.48773 1.6875,1.86508 3.75,3.06055 4.0590325,2.35271 5.25,2.67094 5.25,1.4043 0,-0.66616 -2.9595613,-2.45686 -8.25,-4.99219 z M 154.5,281 c -1.12605,0 -5.57504,7.93123 -6.87891,12.26367 -1.09953,3.65346 -1.14366,4.73633 -0.1914,4.73633 0.67889,0 1.70173,-1.4625 2.27343,-3.25 0.5717,-1.7875 1.99175,-5.6125 3.1543,-8.5 1.16254,-2.8875 1.90175,-5.25 1.64258,-5.25 z m -132.496094,3.13086 c 0.840093,0.0455 2.356793,0.70803 5.058594,2.01367 2.440806,1.17952 9.547119,4.33324 15.792969,7.00781 14.821803,6.34694 17.358615,8.14101 16.480469,11.66602 -0.367301,1.4744 -1.419865,4.03164 -2.337891,5.68164 -0.918026,1.65 -2.30589,3.10528 -3.083985,3.23438 -0.778089,0.12909 -8.050147,-3.35841 -16.162109,-7.75 C 29.639991,301.59278 22.552491,298 22.001953,298 21.451415,298 21,297.35582 21,296.56836 c 0,-1.41629 7.972424,1.88411 26.527344,10.98437 7.408111,3.6333 8.472656,3.96278 8.472656,2.61133 0,-1.26441 -26.841503,-13.91995 -34.615234,-16.32031 -0.613716,-0.1895 -0.836664,-1.12333 -0.494141,-2.07617 0.574587,-1.59839 0.855681,-1.61198 3.617187,-0.17578 1.646195,0.85616 7.942188,3.57773 13.992188,6.04882 6.05,2.4711 12.520135,5.38135 14.376953,6.4668 1.856817,1.08544 3.54258,1.80704 3.746094,1.60352 C 57.601874,304.73212 51.696664,301.01954 44.5,298.08789 28.017573,291.37357 21,287.70875 21,285.81641 c 0,-1.15941 0.163814,-1.73102 1.003906,-1.68555 z M 2.1914062,296.01562 C 0.7341316,296.02882 0.70731264,296.1646 2,297 c 1.9583724,1.2656 3.2821822,1.2656 2.5,0 -0.3399187,-0.55 -1.3785529,-0.9928 -2.3085938,-0.98438 z m 255.5117138,3.98633 c 0.83777,-0.16385 2.51303,0.67085 5.30469,2.44922 l 5.49219,3.49805 -5.23047,0.0254 c -4.73102,0.0232 -5.2899,-0.20937 -5.84765,-2.43164 -0.55609,-2.21562 -0.55652,-3.37716 0.28124,-3.54102 z m -237.292964,1.25391 c 0.511429,-0.51143 24.418609,10.92658 28.572266,13.66992 1.244535,0.82197 1.013503,1.46905 -1.4375,4.02734 -1.60574,1.67605 -3.172822,3.03923 -3.482422,3.03126 -0.925132,-0.0251 -22.482485,-11.10103 -23.511719,-12.08008 -1.355712,-1.28961 3.125633,-1.1493 5.601563,0.17578 1.110948,0.59456 2.248104,0.8515 2.529297,0.57031 0.281192,-0.28119 -1.298412,-1.4353 -3.511719,-2.56445 -3.712451,-1.89395 -6.169838,-5.42001 -4.759766,-6.83008 z m 9.820313,10.17969 c -0.816472,0.81647 -0.38089,1.10499 6.783203,4.49414 C 43.409468,318.95538 45,319.46918 45,318.51172 45,317.64765 30.814632,310.85139 30.230469,311.43555 Z M 20.818359,313 c 1.746006,0 20.438113,10.55512 20.365235,11.5 -0.143997,1.86693 -2.66914,1.40493 -8.183594,-1.49609 -3.025,-1.59138 -7.1875,-3.69828 -9.25,-4.6836 C 21.510835,317.2506 20,315.81703 20,314.76367 20,313.79341 20.367745,313 20.818359,313 Z m 71.830079,4.32617 c 1.342308,0.0572 4.653793,2.64878 6.755859,5.43555 C 102.24076,326.52211 100.83839,326.2082 96,322 c -2.451305,-2.13203 -4.159911,-4.17408 -3.796875,-4.53711 0.10209,-0.10209 0.253552,-0.14489 0.445313,-0.13672 z M 0.14648438,318.51953 C -1.0429215,319.70894 1.5834497,322.26996 6.703125,324.91211 13.500527,328.4201 13,328.2515 13,327.02344 13,325.95869 0.7872706,317.87875 0.14648438,318.51953 Z M 20.75,319.98242 c 1.960529,-0.0438 18.235988,8.67082 18.242188,9.76758 0.0094,1.67089 -0.173036,1.61034 -10.242188,-3.36328 C 23.9375,324.00961 20,321.6011 20,321.0332 c 0,-0.5679 0.3375,-1.04178 0.75,-1.05078 z m 253.75,2.08594 c 1.1,-0.003 3.297,1.135 4.88281,2.5293 1.68125,1.47821 2.51424,2.90568 1.9961,3.42382 -0.51815,0.51815 -2.55547,-0.5364 -4.88477,-2.52929 -3.22255,-2.75713 -3.60756,-3.41883 -1.99414,-3.42383 z m 8.08984,0.12891 c 0.62053,-0.008 1.42244,0.0851 2.38672,0.29687 2.54177,0.55827 2.90279,0.94672 1.94922,2.0957 -1.46331,1.76337 -2.06142,1.76342 -4.48242,-0.008 -1.94109,-1.41936 -1.71509,-2.36049 0.14648,-2.38476 z m -85.26757,2.38867 c -3.55419,0.0362 -8.32227,0.77168 -8.32227,1.51562 0,0.49462 2.925,0.89844 6.5,0.89844 6.06628,0 8.72515,-1.22665 4.75,-2.19141 -0.69355,-0.16832 -1.74301,-0.23474 -2.92773,-0.22265 z M 0.44921875,325.2168 c -0.19887135,0.19887 1.75541485,1.78536 4.34375005,3.52539 5.2608572,3.53667 5.5948192,3.69434 4.6816406,2.21679 -0.8110542,-1.31231 -8.53872327,-6.22885 -9.02539065,-5.74218 z M 262.25195,327.41406 c -0.34715,0.34716 1.57532,2.87206 4.27149,5.60938 4.9791,5.05512 5.94926,5.63896 6.8789,4.13476 0.65043,-1.05241 -10.28542,-10.6091 -11.15039,-9.74414 z m -47.11523,0.72656 c -1.30934,0.0395 -2.13672,0.21236 -2.13672,0.55469 0,1.6835 4.70973,3.2262 8.18359,2.67969 1.82438,-0.28701 5.11641,0.13405 7.31641,0.93555 5.11168,1.86227 5.5,1.90672 5.5,0.63867 0,-0.57806 -1.54704,-1.69839 -3.4375,-2.48828 -3.2369,-1.35248 -11.49778,-2.43886 -15.42578,-2.32032 z m 37.16406,4.01172 c 0.79515,-0.0943 2.09394,0.18025 3.54688,0.86524 1.45827,0.6875 3.66484,1.71579 4.90234,2.28515 1.2375,0.56935 2.25,1.33943 2.25,1.71094 0,0.37152 1.08414,1.93728 2.41016,3.48047 1.32603,1.5432 2.17939,3.4139 1.89453,4.15625 -0.28487,0.74236 -0.95434,1.34961 -1.48633,1.34961 -0.89995,0 -12.43344,-10.27206 -14.03516,-12.5 -0.56795,-0.79 -0.27757,-1.25331 0.51758,-1.34766 z m -240.964842,0.31055 c -0.407812,0.0878 -0.421621,0.58941 0.123046,1.4707 0.362534,0.58659 1.419569,1.05266 2.34961,1.03516 1.484648,-0.0279 1.455537,-0.21026 -0.236328,-1.49023 -1.02754,-0.77738 -1.828517,-1.10339 -2.236328,-1.01563 z m 209.000002,0.20117 C 220.12012,332.6119 220,332.63851 220,332.75781 c 0,1.21071 4.5063,5.19752 11,9.73047 3.025,2.11162 6.05998,4.62513 6.74414,5.58594 0.68416,0.9608 3.60916,3.45908 6.5,5.55273 2.89084,2.09364 5.48086,4.07341 5.75586,4.39844 0.275,0.32503 1.59763,1.3418 2.93945,2.25977 1.34181,0.91797 2.69016,1.41921 2.9961,1.11328 0.8191,-0.8191 -12.35291,-12.6856 -20.43555,-18.41016 -3.85,-2.72678 -8.9125,-6.33903 -11.25,-8.02734 -1.75313,-1.26623 -3.2666,-2.14038 -3.91406,-2.29688 z m 17.85742,0.87891 C 237.4883,333.57712 237,334.08023 237,335.03711 c 0,0.80513 11.47014,10.71597 20.78906,17.96289 3.21425,2.49958 3.21578,2.50067 1.75782,6.5 -0.80206,2.2 -1.47981,4.7875 -1.50391,5.75 -0.0869,3.46335 1.74461,1.63616 4.32617,-4.31641 3.00978,-6.93997 3.16695,-7.93359 1.25,-7.93359 -0.75974,0 -2.67224,-1.29884 -4.25,-2.88672 -1.57776,-1.58788 -6.01914,-5.24305 -9.86914,-8.12109 -3.85,-2.87805 -7.81527,-6.08849 -8.81055,-7.13477 -0.87015,-0.91473 -1.79103,-1.3486 -2.49609,-1.31445 z m -125.98242,3.97461 c -0.13477,-0.005 -0.21094,0.0477 -0.21094,0.16992 0,0.42922 5.0625,5.61906 11.25,11.5332 10.60181,10.13344 14.75,12.74286 14.75,9.2793 0,-0.825 -0.499,-1.5 -1.10938,-1.5 -0.61036,0 -3.63328,-2.3049 -6.71679,-5.12305 -3.08351,-2.81816 -7.30953,-6.19993 -9.39063,-7.51367 -2.0811,-1.31374 -3.79715,-2.7194 -3.81445,-3.125 -0.0376,-0.88221 -3.81443,-3.68809 -4.75781,-3.7207 z M 200.35352,340 C 200.15938,340 200,340.59348 200,341.31836 c 0,0.72488 3.0375,2.90657 6.75,4.84961 7.77123,4.06728 20.86502,12.40188 21.75977,13.84961 0.3341,0.54059 0.89088,0.98242 1.23632,0.98242 1.17919,0 -5.23755,-6.2206 -9.14257,-8.86328 C 216.29206,349.21897 200.91054,340 200.35352,340 Z m -32.54493,3.21875 c -0.22854,-0.007 -0.39573,0.0344 -0.48828,0.12695 -0.33405,0.33406 0.24589,0.93323 1.28711,1.33203 1.04122,0.39879 3.417,1.75929 5.28125,3.02344 4.15071,2.81459 6.56902,3.01817 3.11133,0.26172 -2.98862,-2.38251 -7.59157,-4.69866 -9.19141,-4.74414 z M 158.94141,344 c -0.58246,0 -0.78133,0.45 -0.44141,1 0.33992,0.55 0.81605,1 1.05859,1 0.24254,0 0.44141,-0.45 0.44141,-1 0,-0.55 -0.47613,-1 -1.05859,-1 z m 39.35156,0.375 C 198.11172,344.4549 198,344.65018 198,344.94141 c 0,0.58246 0.45,1.05859 1,1.05859 0.55,0 1,-0.19887 1,-0.44141 0,-0.24254 -0.45,-0.71867 -1,-1.05859 -0.275,-0.16996 -0.52578,-0.20493 -0.70703,-0.125 z m 3.82617,3.17188 c -0.33863,0.33863 0.28368,1.2709 1.38281,2.07031 1.09914,0.79941 4.24805,3.63377 6.99805,6.29883 2.75,2.66505 5.9,5.07284 7,5.3496 3.36312,0.84619 4.5,0.77845 4.5,-0.26562 0,-0.55 -0.5625,-1.02689 -1.25,-1.05859 -1.47253,-0.0679 -5.47933,-2.80875 -12.75,-8.72461 -2.89575,-2.35616 -5.54222,-4.00856 -5.88086,-3.66992 z m -32.77344,2.77343 c -0.2441,0.2441 3.28956,2.74763 7.85157,5.5625 7.063,4.35804 12.80273,6.43238 12.80273,4.62696 0,-0.75392 -20.14944,-10.69432 -20.6543,-10.18946 z" />
  </g>
</svg>
