<?xml version="1.0" encoding="UTF-8" standalone="no"?>
<!-- Created with Inkscape (http://www.inkscape.org/) -->

<svg
   version="1.1"
   id="svg2"
   width="336"
   height="385"
   viewBox="0 0 336 385"
   sodipodi:docname="31.svg"
   inkscape:version="1.1.2 (0a00cf5339, 2022-02-04)"
   xmlns:inkscape="http://www.inkscape.org/namespaces/inkscape"
   xmlns:sodipodi="http://sodipodi.sourceforge.net/DTD/sodipodi-0.dtd"
   xmlns="http://www.w3.org/2000/svg"
   xmlns:svg="http://www.w3.org/2000/svg">
  <defs
     id="defs6" />
  <sodipodi:namedview
     id="namedview4"
     pagecolor="#505050"
     bordercolor="#eeeeee"
     borderopacity="1"
     inkscape:pageshadow="0"
     inkscape:pageopacity="0"
     inkscape:pagecheckerboard="0"
     showgrid="false"
     inkscape:zoom="1.9454545"
     inkscape:cx="234.90654"
     inkscape:cy="91.752336"
     inkscape:window-width="1920"
     inkscape:window-height="1043"
     inkscape:window-x="0"
     inkscape:window-y="0"
     inkscape:window-maximized="1"
     inkscape:current-layer="g8" />
  <g
     inkscape:groupmode="layer"
     inkscape:label="Image"
     id="g8">
    <path
       id="path12"
       style="fill:#000000"
       d="m 13,-0.2578125 v 2.3789063 c 7.39e-4,2.3519787 0.115926,2.3787316 10.125,2.328125 5.568199,-0.028153 16.031111,0.5126835 23.25,1.2011718 7.21889,0.6884883 20.1,1.5320989 28.625,1.8769532 8.525,0.3448541 17.525,0.8052527 20,1.0214843 5.81602,0.5081245 37.03101,1.2436165 83.46289,1.9667969 20.32919,0.316628 37.07473,0.688012 37.21289,0.826172 0.43001,0.430007 78.76501,-0.175702 99.73828,-0.771485 C 334.53085,10.02727 337.0841,9.7520764 335.71289,8.3808594 335.3719,8.0398723 292.66003,7.644594 240.79688,7.5039062 154.09718,7.2687186 126.98768,6.8715559 102.5,5.4746094 97.55,5.1922272 83.825,4.5245284 72,3.9921875 52.559662,3.1170173 45.887484,2.6729668 35,1.5273438 33.075,1.3247878 27.3375,0.84089473 22.25,0.45117188 Z M 12.966797,14 13.076172,32.25 c 0.06068,10.0375 -0.204803,19.489744 -0.591797,21.005859 -0.386993,1.516115 -0.397348,4.397076 -0.02148,6.400391 l 0.683593,3.642578 2.001954,-2.001953 c 1.862207,-1.862207 2.025402,-3.58309 2.345703,-24.650391 L 17.837891,14 H 15.402344 Z M 289.84961,31.158203 c -1.46427,-0.167439 -3.003,0.999406 -2.44141,2.462891 C 288.06757,35.339397 284.47013,42 282.88281,42 c -1.09644,0 0.57607,-3.547821 2.12305,-4.503906 C 285.5529,37.158003 286,36.458947 286,35.941406 c 0,-2.128492 -2.0644,-0.647157 -6.00195,4.308594 -4.60923,5.801117 -6.64215,6.987211 -9.22266,5.376953 -2.11031,-1.316849 -4.34298,0.454559 -3.46289,2.748047 0.89712,2.33786 5.94472,5.355311 6.44531,3.853516 C 273.9831,51.552656 274.62644,51 275.18945,51 c 0.56301,0 0.75829,0.692951 0.4336,1.539062 -0.38181,0.994997 0.20005,1.858588 1.64453,2.447266 3.73441,1.521899 5.26688,0.761769 4.91797,-2.439453 -0.19107,-1.753072 0.49447,-3.975623 1.75,-5.673828 C 285.07082,45.337513 286,43.765526 286,43.378906 c 0,-0.38662 1.41466,-2.906879 3.14258,-5.599609 2.23959,-3.490094 2.83234,-5.204762 2.0664,-5.970703 -0.39076,-0.390764 -0.87128,-0.594578 -1.35937,-0.650391 z m -109.91602,7.103516 c -4.39379,0.189717 -8.55972,1.003934 -11.20898,2.347656 -6.60674,3.350975 -12.9331,8.926635 -14.94336,13.167969 -1.79965,3.796968 -1.88934,4.768087 -0.79687,8.669922 0.67667,2.417006 0.94226,4.86411 0.58789,5.4375 -0.35438,0.573389 0.27055,1.958065 1.39062,3.078125 1.12006,1.120061 2.09512,3.274609 2.16602,4.787109 0.0709,1.5125 0.21732,4.1 0.32617,5.75 0.11434,1.733108 -0.75598,4.430585 -2.0625,6.386719 -2.39816,3.590557 -17.72698,14.093371 -20.58594,14.105471 -2.12216,0.009 -13.43532,10.38748 -15.3418,14.07422 -0.7805,1.50932 -2.00084,3.34828 -2.71289,4.08789 -3.44282,3.57606 -5.84065,7.46254 -6.79687,11.01367 -1.53597,5.70416 -10.183425,21.14766 -14.738283,26.32226 -4.212892,4.78609 -6.092526,9.41674 -11.166016,27.50977 -6.762782,24.11737 -12.393079,40 -14.179687,40 -0.408856,0 -2.153926,2.8125 -3.878906,6.25 -1.724993,3.4375 -3.891645,6.83141 -4.814454,7.54297 C 59.795483,239.8588 59.5,241.94119 59.5,250.61328 c 0,8.30713 -0.31626,10.70837 -1.5,11.38867 -3.033852,1.74358 -7.852943,5.6399 -13.849609,11.19532 L 38,278.89453 l -0.01367,11.30274 c -0.0074,6.21652 0.516607,18.86007 1.164063,28.0957 l 1.177734,16.79101 2.585937,-0.19336 c 1.422495,-0.1061 7.988997,-0.12401 14.591797,-0.041 L 69.509766,335 l 2.136718,5.75 c 1.17462,3.1625 2.395072,6.5375 2.712891,7.5 0.961783,2.91272 2.640614,1.96343 2.652344,-1.5 0.0061,-1.7875 0.286518,-4.92512 0.625,-6.97266 l 0.615234,-3.72265 12.625,0.61133 c 6.942964,0.33652 12.848047,0.81273 13.123047,1.05859 0.275,0.24586 -0.53583,1.28732 -1.80273,2.31445 -2.208076,1.79013 -2.234121,1.97318 -0.63477,4.41406 0.91766,1.40052 2.02881,2.54688 2.4707,2.54688 0.44189,0 1.72998,1.49757 2.86133,3.32812 2.32273,3.75827 7.10547,6.60883 7.10547,4.23438 0,-0.76737 -0.40528,-1.54518 -0.90039,-1.72852 C 111.92147,352.39772 104,342.7639 104,341.76758 c 0,-1.97999 2.51433,-0.17998 9.4043,6.73242 4.11164,4.125 7.92576,7.5 8.47656,7.5 2.23961,0 2.00052,-1.98636 -0.44336,-3.6875 -1.43188,-0.99671 -4.7509,-3.6125 -7.37695,-5.8125 -2.62605,-2.2 -5.7709,-4.80998 -6.98633,-5.79883 -1.21543,-0.98884 -2.01873,-2.33884 -1.78711,-3 0.63726,-1.81912 3.87523,-0.81789 6.49219,2.00586 1.28252,1.38386 2.59551,2.25214 2.91797,1.92969 0.32245,-0.32246 -0.48927,-1.48267 -1.80469,-2.57813 l -2.39258,-1.99218 2.55078,-0.0332 c 1.4025,-0.0183 3.10812,0.52609 3.79102,1.20899 0.98886,0.98886 1.41694,0.95735 2.10156,-0.15039 0.65432,-1.05872 2.2098,-1.2324 6.51367,-0.72657 5.01328,0.58921 6.5225,1.37257 13.3125,6.90039 4.21206,3.42909 9.41546,7.92188 11.5625,9.98438 3.64127,3.49788 5.66797,4.61259 5.66797,3.11719 0,-0.72551 -2.28324,-2.78061 -7.07227,-6.36719 -1.83599,-1.375 -5.72442,-4.6375 -8.64257,-7.25 C 137.36701,341.1374 134.53441,339 133.99023,339 133.44606,339 133,338.55 133,338 c 0,-0.55 0.95381,-1 2.11914,-1 2.10313,0 7.86498,4.20574 20.89258,15.25 C 162.3667,357.63748 165,359.087 165,357.19922 165,355.86178 162.69587,354 161.04102,354 c -0.8577,0 -2.10192,-0.86613 -2.76368,-1.92578 -0.66176,-1.05965 -4.87586,-4.72316 -9.36523,-8.14063 -6.60213,-5.02576 -7.85395,-6.38594 -6.55078,-7.11523 1.1834,-0.66226 3.00866,0.11359 6.875,2.92187 2.89519,2.10289 6.38867,4.60175 7.76367,5.55469 1.375,0.95294 5.86802,4.39733 9.98438,7.65235 4.11634,3.25502 7.61433,5.788 7.77343,5.6289 C 175.64937,357.68462 173.49847,355 171.89258,355 170.85143,355 170,354.55586 170,354.01367 c 0,-0.5422 -1.9125,-2.22825 -4.25,-3.74805 -2.3375,-1.51978 -4.7,-3.25877 -5.25,-3.86328 -0.55,-0.60451 -3.19151,-2.629 -5.86914,-4.5 -5.40197,-3.77462 -4.16098,-5.33131 1.94141,-2.43554 1.8976,0.90048 3.84231,1.39428 4.32226,1.09765 1.77742,-1.0985 12.38296,3.31126 15.70313,6.5293 2.0325,1.96998 3.40234,2.73185 3.40234,1.89063 0,-0.77475 -1.2375,-2.42178 -2.75,-3.66016 l -2.75,-2.25195 3.27539,-0.0371 c 2.66515,-0.0293 4.36442,1.03548 9.125,5.71484 3.21738,3.1625 6.47511,6.2 7.24023,6.75 0.76518,0.55 3.85876,3.03562 6.875,5.52344 8.0248,6.61891 12.70947,9.97656 13.91797,9.97656 2.16312,0 0.84606,-1.60316 -4.72461,-5.75586 -3.14039,-2.34102 -7.28398,-5.63272 -9.20898,-7.31445 -1.925,-1.68174 -6.0875,-5.11975 -9.25,-7.64063 -3.1625,-2.52088 -5.75,-4.96863 -5.75,-5.4375 0,-2.12415 4.42491,-0.50046 8.27148,3.03321 6.91718,6.35456 22.13234,18.08321 23.47852,18.09961 2.25966,0.0275 1.27284,-1.43859 -3.01172,-4.47266 -7.39988,-5.24013 -18.77986,-15.63438 -18.17969,-16.60547 0.7088,-1.14686 5.44766,1.51249 9.9668,5.59375 6.84723,6.18376 27.51,20.5 29.58789,20.5 0.92174,0 -20.74306,-16.59764 -25.70312,-19.69141 -1.86233,-1.16155 -1.86005,-1.19144 0.0898,-1.24414 1.64364,-0.0444 12.32345,7.22289 19.70312,13.40821 0.93674,0.78512 2.99393,2.09592 4.57227,2.91211 1.57833,0.81619 3.45513,2.18756 4.16992,3.04882 0.71478,0.86127 2.70759,1.54022 4.42774,1.50782 2.8303,-0.0532 2.9446,-0.17202 1.21484,-1.25 -7.27376,-4.53295 -25.63507,-16.95943 -26.04883,-17.62891 -0.27822,-0.45017 0.87842,-1.09678 2.57227,-1.43555 3.14029,-0.62806 5.45727,0.84633 11.19336,7.12305 1.13091,1.2375 2.44292,2.25 2.91601,2.25 0.47308,0 2.08009,0.83046 3.57032,1.8457 13.22052,9.00665 18.22921,11.59501 18.19921,9.4043 -0.006,-0.4125 -4.16816,-3.33834 -9.25,-6.50195 C 232.25176,355.10563 225.1074,349 229.31641,349 c 1.1382,0 17.05814,11.03254 24.18359,16.75977 2.85665,2.29604 8.63335,5.3631 9.53516,5.0625 0.96619,-0.32206 -2.16553,-2.93901 -10.5586,-8.82227 -10.51438,-7.37023 -18.33729,-14.19653 -17.81836,-15.54883 0.85502,-2.22814 1.9006,-1.77877 5.51368,2.3711 1.83035,2.1023 6.02812,5.81207 9.32812,8.24414 3.3,2.43207 6.225,4.66732 6.5,4.96679 1.56329,1.70242 13.18179,9.9668 14.01172,9.9668 2.11796,0 0.78978,-1.80273 -3.70313,-5.0293 -2.58012,-1.8529 -6.81425,-5.19208 -9.41015,-7.41992 -2.59591,-2.22783 -6.38239,-5.17578 -8.41406,-6.55078 -2.03167,-1.375 -5.50236,-4.06538 -7.7129,-5.97852 -2.21054,-1.91314 -6.55221,-4.26811 -9.64648,-5.23437 -6.21582,-1.94103 -20.01019,-2.3538 -26.625,-0.79688 -2.49474,0.58705 -6.25789,0.58762 -10,0.004 -3.3,-0.51553 -11.175,-0.99455 -17.5,-1.06445 l -11.5,-0.12696 0.0801,-19.65234 c 0.097,-23.5929 1.12556,-47.24634 2.60742,-60.00586 0.89667,-7.72085 0.84546,-9.50511 -0.28711,-10.20508 -2.61614,-1.61686 -3.2832,2.49006 -3.50781,21.56055 -0.34356,29.16936 -0.23789,27.49703 -1.72656,26.92578 -0.99787,-0.38292 -1.21158,0.31638 -0.85352,2.78125 0.45351,3.12199 -0.0105,2.79545 -8.91797,-6.30664 -5.16738,-5.28028 -11.05412,-10.70382 -13.08203,-12.05078 -9.86804,-6.55444 -19.92699,-17.58448 -22.5918,-24.77149 -0.32197,-0.86837 -1.45167,-2.76513 -2.50976,-4.21679 -1.23845,-1.6991 -2.11165,-4.99393 -2.45313,-9.24805 -0.6353,-7.9145 1.37805,-14.23151 5.50781,-17.27734 5.61151,-4.13865 16.93982,-11.72969 23.06836,-15.45899 l 6.33204,-3.85351 10.00586,1.50195 c 9.10866,1.3681 22.67121,5.94551 25.27734,8.53125 1.28595,1.27588 4.55078,1.19912 4.55078,-0.10742 0,-0.57806 -1.6875,-1.74954 -3.75,-2.60352 -2.0625,-0.85398 -6,-2.5959 -8.75,-3.87109 -6.98999,-3.24132 -13.97229,-4.99906 -21.30859,-5.36133 -3.04652,-0.15044 -2.066,-1.5153 3.37695,-4.70508 2.9709,-1.74107 5.25451,-2.41839 6.82812,-2.02343 1.30055,0.32641 7.76712,4.64751 14.3711,9.60351 6.60399,4.956 12.28442,9.01172 12.62109,9.01172 0.33668,0 0.61133,-0.675 0.61133,-1.5 0,-0.825 -0.33726,-1.5 -0.75,-1.5 -0.41275,0 -2.77525,-1.86627 -5.25,-4.14844 -4.77454,-4.40299 -11.04797,-8.65164 -17.30859,-11.71875 l -3.81055,-1.86523 3.31055,-2.09961 c 1.82008,-1.15422 6.00859,-4.13582 9.30859,-6.62695 7.26636,-5.48527 13.15238,-9.47047 15.08203,-10.21094 1.56874,-0.60199 5.58828,7.42707 7.48633,14.95508 1.94262,7.70474 4.02086,21.17467 3.72461,24.14453 l -0.29297,2.92969 -3.74805,-3.54688 c -2.14821,-2.03214 -4.02356,-4.9205 -4.39257,-6.76562 -0.35419,-1.77073 -1.25516,-3.45366 -2.00196,-3.74024 C 191.43063,205.95018 191,203.95376 191,200.01758 c 0,-7.55344 -0.95149,-12.06113 -2.68555,-12.72656 -2.17546,-0.8348 -2.33847,-0.0879 -1.33398,6.08398 0.52453,3.22285 0.57435,7.68825 0.11328,10.15625 -0.92916,4.97352 -0.57944,5.79968 1.89648,4.47461 1.3503,-0.72266 1.97412,-0.37805 2.86719,1.58203 0.62807,1.37845 1.14921,3.04737 1.1582,3.70899 0.026,2.00172 7.35974,9.71103 9.23438,9.70703 1.1447,-0.002 1.75563,0.77433 1.76562,2.24609 0.008,1.2375 0.40013,2.85834 0.8711,3.60156 1.52287,2.40315 1.96423,-4.85135 0.82617,-13.58789 -0.59011,-4.53005 -0.76174,-8.54881 -0.38086,-8.92969 0.38088,-0.38088 2.01966,0.2879 3.64063,1.48633 1.62096,1.19844 3.30155,2.18064 3.73632,2.18164 0.7619,0.002 8.50422,4.95584 16.76368,10.72461 2.1847,1.52589 5.1097,3.26844 6.5,3.87305 4.77242,2.07541 14.20088,8.57393 18.10742,12.48047 7.135,7.135 16.75567,28.22988 25.27539,55.41992 1.37869,4.4 3.70332,11.15 5.16601,15 1.46269,3.85 3.00596,8.125 3.42969,9.5 0.42372,1.375 1.73373,4.29253 2.91016,6.48438 1.17643,2.19186 2.13867,4.49376 2.13867,5.11523 0,0.62147 0.84569,2.20605 1.87891,3.51953 1.03318,1.31347 2.80364,4.03553 3.93554,6.05078 1.77287,3.15646 1.84896,3.74614 0.54102,4.24805 -2.66599,1.02303 -5.86423,0.63548 -12.36328,-1.49805 -5.82102,-1.91094 -9.30429,-2.68929 -21.99219,-4.9082 -2.475,-0.43283 -6.975,-1.27592 -10,-1.87305 -3.025,-0.59714 -7.075,-1.33624 -9,-1.64258 -9.94209,-1.58213 -10.10893,-1.65589 -11.82617,-5.2832 -1.27802,-2.69953 -1.37817,-3.6349 -0.42383,-3.95703 1.69282,-0.5714 1.59094,-2.25586 -0.13672,-2.25586 -0.84928,0 -2.2584,-2.81234 -3.63281,-7.25 -1.23499,-3.9875 -3.34059,-10.71254 -4.67774,-14.94531 -2.05596,-6.50818 -2.23685,-8.05153 -1.17382,-10 1.76799,-3.24062 1.91229,-55.1604 0.1582,-56.91602 -2.3551,-2.35714 -3.05043,3.39194 -2.73633,22.61133 0.17078,10.45 -0.0435,20.575 -0.47656,22.5 l -0.78906,3.5 -1.21485,-3 c -0.66862,-1.65 -1.46253,-4.35 -1.76367,-6 -0.30113,-1.65 -2.00579,-8.175 -3.78906,-14.5 -3.5511,-12.59514 -3.55646,-16.31867 -0.0449,-31.41016 1.01873,-4.37846 1.25802,-7.25955 0.65429,-7.86328 -2.43081,-2.43081 -3.69995,1.69882 -4.76953,15.52344 -0.28722,3.7125 -0.88022,6.75 -1.31836,6.75 -0.43814,0 -1.397,-1.4625 -2.13086,-3.25 -0.73385,-1.7875 -2.13821,-4.12324 -3.12109,-5.18945 C 201.80404,230.49434 201,229.26849 201,228.83594 201,227.97081 192.77901,224 190.98828,224 c -0.61633,0 -2.10335,-0.54683 -3.30469,-1.21484 -1.20134,-0.66802 -3.30859,-1.30642 -4.68359,-1.41797 -1.375,-0.11155 -3.74243,-0.51687 -5.25977,-0.90235 -4.21211,-1.07009 -21.92558,0.48512 -21.44531,1.88282 0.21787,0.63408 1.92813,1.07542 3.80078,0.98242 17.08591,-0.8486 22.81911,-0.72251 25.5,0.55469 1.59756,0.76108 3.87094,1.82374 5.05274,2.36328 3.40203,1.55317 11.0246,9.54472 12.94726,13.57422 0.96494,2.02233 2.83638,6.60273 4.15821,10.17773 1.32183,3.575 3.75625,10.1 5.41015,14.5 1.6539,4.4 3.6535,11.375 4.44336,15.5 1.35822,7.09317 5.75169,24.04528 10.22852,39.46094 1.11174,3.82819 1.83379,7.26413 1.60351,7.63672 -0.23028,0.3726 -4.5865,-0.66732 -9.67968,-2.3125 -11.42054,-3.68901 -14.61782,-4.41146 -13.25977,-2.99024 0.55,0.57559 3.87898,2.0107 7.39844,3.1875 9.58904,3.20628 23.27294,9.93206 22.55859,11.08789 -0.34387,0.55639 -1.50305,0.73318 -2.57617,0.39258 -3.81241,-1.21001 -33.75574,-3.08552 -32.77344,-2.05273 0.33422,0.3514 8.41752,1.269 17.96289,2.03906 15.04567,1.21379 17.81456,1.20824 20.79883,-0.0391 3.45245,-1.44253 11.7767,-1.09161 15.15625,0.63867 0.83901,0.42956 7.81401,1.53854 15.5,2.46484 7.68599,0.9263 14.5429,1.99774 15.23633,2.38086 0.69342,0.3831 -4.48158,0.51238 -11.5,0.28711 -7.01843,-0.22527 -12.43461,-0.0686 -12.03516,0.34766 0.39945,0.4162 7.14945,1.37632 15,2.13476 23.99885,2.31851 25.36944,2.56425 24.2793,4.32813 -0.35833,0.57979 0.30893,0.89914 1.57617,0.75586 1.20882,-0.13667 2.39667,0.31445 2.64063,1.00195 0.66872,1.88449 -3.74523,1.56637 -17.24414,-1.24219 -14.36191,-2.98812 -29.63258,-3.3202 -29.42969,-0.64062 0.0709,0.93666 9.28451,8.13347 9.77929,7.63867 0.2328,-0.23277 -1.0473,-1.66027 -2.84374,-3.17188 l -3.26563,-2.74804 2.8457,-0.76172 c 2.06265,-0.55164 3.34938,-0.30622 4.67188,0.89062 1.64779,1.49124 1.97695,1.50157 3.375,0.10352 1.39804,-1.39804 2.32182,-1.35446 9.51172,0.45117 7.81485,1.96258 8.12161,2.15986 16.41992,10.5332 4.65108,4.69313 8.45703,8.9074 8.45703,9.36524 0,0.45783 0.9,0.83203 2,0.83203 1.1,0 2,-0.3518 2,-0.78125 0,-0.42945 -3.2625,-3.6468 -7.25,-7.15039 -10.23244,-8.99066 -10.50895,-9.51716 -5.15234,-9.78711 4.21953,-0.21266 4.59358,0.0277 12.37695,7.9375 4.41433,4.48606 8.02539,8.52171 8.02539,8.96875 0,0.44705 1.35,0.8125 3,0.8125 3.77339,0 3.82011,-1.27474 0.13477,-3.65234 -5.38812,-3.47614 -17.23945,-15.16497 -16.09375,-15.87305 0.61078,-0.37749 2.61859,0.38698 4.46289,1.69922 4.47199,3.18186 15.23074,13.49152 17.17382,16.45703 1.59908,2.44051 2.49801,2.85942 3.6543,1.70312 0.8411,-0.84109 -21.711,-23.7191 -26.08203,-26.45898 -1.7875,-1.12045 -3.25,-2.4447 -3.25,-2.94141 0,-1.21961 12.1742,0.10946 13.59766,1.48438 1.75612,1.69623 7.74499,6.88037 10.44922,9.04687 1.3494,1.0811 -0.22169,-0.81843 -3.49024,-4.22265 -3.26855,-3.40422 -5.65376,-6.47905 -5.30078,-6.83203 1.19001,-1.19001 6.7431,1.4694 11.57422,5.54296 2.63955,2.22571 5.10726,4.04688 5.48437,4.04688 1.66428,0 0.43166,-2.86799 -2.39062,-5.5625 l -3.07617,-2.9375 3.32617,-0.61914 3.32617,-0.61719 -4,-0.14648 c -6.57777,-0.23893 -8.5,-1.08326 -8.5,-3.73438 0,-2.83584 1.84948,-3.05366 7.875,-0.92773 2.26915,0.80056 4.125,1.13521 4.125,0.74219 0,-0.39302 -2.88031,-1.74733 -6.40039,-3.00977 -6.33282,-2.27119 -6.4053,-2.34061 -6.83984,-6.49219 -0.24154,-2.30765 -0.28921,-4.37918 -0.10743,-4.60351 0.18179,-0.22437 3.25806,-0.31316 6.83789,-0.19727 C 333.51392,324.02519 336,323.70358 336,323.05273 336,322.41589 333.23417,322 329,322 c -5.55556,0 -7,-0.30952 -7,-1.5 0,-1.19048 1.44444,-1.5 7,-1.5 4,0 7,-0.42857 7,-1 0,-0.5628 -2.80583,-1 -6.41797,-1 -3.53002,0 -7.20081,-0.29939 -8.15625,-0.66602 -1.61587,-0.62007 -1.68636,0.22665 -1.02539,12.12305 l 0.71094,12.78906 -8.80664,-0.71484 c -7.86331,-0.63826 -9.07784,-1.00915 -11.36133,-3.47266 -1.40637,-1.51724 -3.39006,-4.96343 -4.4082,-7.6582 -1.829,-4.84095 -7.78749,-18.27132 -9.59961,-21.63672 C 286.42131,306.80863 286,304.98535 286,303.71289 c 0,-1.27246 -0.38001,-2.74117 -0.84375,-3.26367 -0.46375,-0.5225 -1.61997,-3.64922 -2.57031,-6.94922 -0.95034,-3.3 -2.44654,-7.70246 -3.32422,-9.7832 -1.67774,-3.97751 -1.23333,-5.16888 2.23828,-6.00391 1.59299,-0.38317 1.47121,-0.50526 -0.5957,-0.59766 -1.42726,-0.0638 -3.28187,-0.90273 -4.1211,-1.86523 -2.16144,-2.47893 -6.0303,-13.4055 -5.07812,-14.3418 0.43683,-0.42955 6.64492,-1.05283 13.79492,-1.38476 7.15,-0.33193 13.7927,-0.84279 14.76172,-1.13477 2.00481,-0.6041 8.37123,5.6567 11.32031,11.13281 1.62689,3.02095 4.58569,4.97878 5.75586,3.8086 0.8364,-0.83639 -4.21818,-8.78647 -8.54883,-13.44727 L 304.5,255.26562 298,256.04297 c -3.575,0.42727 -11.43805,0.93008 -17.47266,1.11719 -10.32693,0.32021 -10.9923,0.22225 -11.3164,-1.66016 -1.36161,-7.90843 -11.64948,-21.52441 -20.21094,-26.74805 -1.925,-1.17451 -5.3,-3.55516 -7.5,-5.29101 -2.2,-1.73586 -6.92273,-4.68736 -10.49609,-6.5586 -3.57335,-1.87124 -6.94835,-3.91804 -7.5,-4.54882 -0.55164,-0.63078 -4.68968,-3.04755 -9.19532,-5.36914 -8.7173,-4.49181 -12.01103,-8.52608 -11.05273,-13.53907 0.2631,-1.37631 -0.0992,-2.55386 -0.875,-2.85156 -0.72707,-0.279 -1.62276,-1.76473 -1.99219,-3.30078 -0.36944,-1.53605 -1.50929,-4.46332 -2.53125,-6.50391 C 196.83547,178.74847 196,176.22071 196,175.17188 c 0,-1.84774 5.1462,-5.96644 11.34766,-9.08399 1.56608,-0.78729 3.07716,-2.0294 3.35742,-2.75977 0.74251,-1.93494 2.22745,-1.64755 6.39453,1.24024 2.03896,1.41299 5.88908,2.89869 8.55469,3.30078 4.49356,0.67783 5.14175,0.49356 8.89843,-2.52734 2.22849,-1.79202 5.10599,-5.4152 6.39454,-8.05078 1.28856,-2.63557 2.90503,-5.46602 3.59375,-6.29102 0.68871,-0.825 1.98825,-4.40206 2.88671,-7.94922 C 249.05306,136.63386 255.75466,126 258.17383,126 260.00779,126 273,112.71679 273,110.8418 c 0,-0.95662 -1.125,-2.9519 -2.5,-4.43555 -1.45256,-1.56734 -2.5,-3.8945 -2.5,-5.55273 C 268,98.456397 267.58857,98 265.43359,98 262.08013,98 259,96.307341 259,94.464844 259,93.659195 259.43419,93 259.96484,93 c 0.53065,0 1.48797,-0.975963 2.12696,-2.169922 0.96578,-1.804584 0.8485,-2.400434 -0.69532,-3.529297 -1.02142,-0.746885 -4.11624,-3.520676 -6.87695,-6.164062 -2.76071,-2.643387 -6.93064,-6.18021 -9.26562,-7.859375 l -4.24414,-3.052735 2.45898,-1.613281 C 244.82188,67.724724 246.31499,67 246.78516,67 c 0.47017,0 1.7726,-1.0125 2.89453,-2.25 2.63058,-2.901553 7.63527,-7.14034 12.45898,-10.550781 C 265.83028,51.589198 267.19249,49 264.87305,49 c -1.54047,0 -14.12628,9.263385 -20.98243,15.443359 -3.08554,2.781238 -6.79803,5.865339 -8.25,6.853516 -2.73998,1.864777 -3.41556,4.106589 -1.57812,5.242187 0.58466,0.36134 1.93466,-0.131581 3,-1.095703 2.20084,-1.991726 2.51189,-1.336489 0.72461,1.525391 -1.91498,3.066372 -0.25944,3.411787 2.60742,0.544922 2.55658,-2.556578 2.65432,-2.572124 5.0918,-0.810547 3.01692,2.180343 2.83978,4.320799 -0.4961,6.003906 -1.37013,0.691293 -2.3772,1.859471 -2.23828,2.595703 0.13892,0.736232 -4.1478,6.256293 -9.52734,12.267578 -26.92208,30.083658 -25.14054,28.334518 -26.55859,26.044918 -0.64174,-1.03618 -2.17852,-3.12436 -3.41602,-4.64257 -1.2375,-1.51822 -2.27554,-3.14658 -2.30664,-3.61719 -0.0588,-0.88853 -8.67459,-7.64618 -16.39063,-12.85547 -2.444,-1.65 -4.46814,-3.315095 -4.49804,-3.701172 -0.0299,-0.386078 2.05706,-2.155451 4.63867,-3.93164 6.2254,-4.283187 11.26553,-9.570208 13.21875,-13.867188 0.87502,-1.925 2.97828,-5.525 4.67578,-8 1.6975,-2.475 4.15518,-6.667929 5.46094,-9.318359 l 2.375,-4.820313 -2.21875,-4.179687 c -1.22054,-2.29957 -4.46204,-6.482059 -7.20117,-9.292969 -4.27707,-4.389147 -5.83059,-5.291528 -11.00977,-6.390625 -1.76396,-0.374338 -3.68191,-0.609111 -5.63867,-0.714844 -1.46757,-0.0793 -2.95728,-0.08472 -4.42188,-0.02148 z m 2.35157,3 c 4.62192,0.104874 9.50216,0.862617 11.33007,2.199219 1.58613,1.159801 0.91406,1.270317 -4.88671,0.804687 -7.87944,-0.632486 -9.50686,1.2293 -1.97852,2.263672 C 199.85573,48.329987 205,51.814948 205,58.888672 205,63.308423 203.22393,65 198.58789,65 c -2.8239,0 -5.06806,2.753785 -6.11328,7.5 -1.4918,6.774036 -1.22079,6.504638 -4.9668,4.939453 -2.32146,-0.969968 -3.60853,-1.085114 -4.05469,-0.363281 -0.75282,1.21813 -0.83298,1.14006 2.84376,2.720703 4.40643,1.894367 6.5893,1.50673 7.29296,-1.296875 C 194.16434,76.210987 196,74.919815 196,76.804688 c 0,1.719025 -5.82646,9.871731 -8.9082,12.464843 -3.91182,3.291579 -6.63719,3.411934 -13.21094,0.583985 -3.57121,-1.536295 -5.29561,-1.839161 -6.06836,-1.066407 -1.27282,1.272817 3.60694,6.053344 6.4375,6.306641 0.9625,0.08613 2.3125,0.2125 3,0.28125 0.6875,0.06875 1.25,0.646826 1.25,1.285156 0,1.376344 -6.85251,6.999014 -9.58789,7.867184 -2.28716,0.72592 -2.5697,3.47266 -0.35742,3.47266 0.85473,0 3.93875,-1.32747 6.85351,-2.94922 l 5.29883,-2.94726 3.25391,3.35742 c 3.13313,3.23256 3.20916,3.49872 2.03125,7.19726 -1.96554,6.17164 -8.36795,12.05913 -14.64063,13.46289 -6.37232,1.42607 -16.18942,0.10309 -22.72461,-3.06054 C 146.2852,121.92693 143.86624,121 143.25195,121 c -0.61429,0 -1.38132,-0.7875 -1.70507,-1.75 -0.76234,-2.26628 -7.55707,-9.57379 -8.25391,-8.87695 -1.27188,1.27189 0.96197,5.49302 5.23242,9.88672 2.53444,2.60758 4.94347,4.74023 5.35352,4.74023 0.41005,0 2.74278,1.0125 5.18359,2.25 3.74553,1.899 6.07549,2.25486 14.9375,2.28516 l 10.5,0.0371 0.1875,12.46289 c 0.10338,6.85525 0.009,13.01903 -0.21094,13.69726 -0.74232,2.28788 -3.42808,0.0966 -6.53515,-5.33398 C 165.85449,146.75097 164.216,145 162.89062,145 c -1.71368,0 -1.81269,0.28457 -0.79296,2.25 0.64206,1.2375 2.71245,4.1625 4.60156,6.5 l 3.43555,4.25 -2.81836,0.16992 c -8.88075,0.53501 -21.69375,-1.42977 -28.56641,-4.3789 -5.09866,-2.18788 -5.41711,-2.74153 -3.51562,-6.10743 1.38281,-2.44777 3.80931,-11.96832 3.20507,-12.57617 C 137.646,134.30922 135,137.30359 135,139 c 0,0.96531 -0.675,2.31531 -1.5,3 -0.825,0.68469 -1.5,1.62471 -1.5,2.08789 0,0.46317 -1.37598,2.76997 -3.05664,5.12695 -10.31423,14.4648 -12.60115,19.26041 -9.52148,19.96094 1.14215,0.2598 0.92705,1.48913 -1.0918,6.25586 -2.58259,6.09778 -4.30504,16.57844 -2.7207,16.55664 1.00458,-0.0138 8.40053,-22.42622 8.39453,-25.43945 -0.002,-1.07327 1.44073,-4.33561 3.20703,-7.25 2.62294,-4.32782 3.58503,-5.18584 5.25,-4.67578 3.04897,0.93404 3.04765,0.8827 0.20117,7.61523 -2.86582,6.77829 -5.088,14.05876 -6.11523,20.03906 -0.35694,2.07792 -1.51953,6.50583 -2.58399,9.83789 -2.22422,6.96242 -2.74232,10.11585 -3.59766,21.88477 -0.6869,9.45123 -2.05629,12 -6.45117,12 -1.99525,0 -3.42436,0.91483 -5.07422,3.25 -2.89473,4.09714 -5.52656,6.32191 -9.33984,7.89258 -1.65,0.67963 -4.391835,2.27564 -6.09375,3.54687 C 91.704335,241.96068 89.850812,243 89.287109,243 c -2.41185,0 0.587477,-19.91991 3.501953,-23.25781 0.843717,-0.96628 2.024218,-2.61239 2.623047,-3.66016 0.59883,-1.04777 2.550391,-3.9939 4.337891,-6.54492 1.7875,-2.55101 3.25,-5.14013 3.25,-5.75391 0,-0.61379 0.65366,-1.82808 1.45312,-2.69922 0.7995,-0.87114 2.48697,-2.70898 3.75,-4.08398 1.26306,-1.375 2.31434,-2.95 2.33594,-3.5 0.0216,-0.55 0.63073,-3.74228 1.35352,-7.09375 2.33929,-10.84696 0.92849,-10.67216 -4.79492,0.59375 -7.328955,14.42616 -13.938144,24.2744 -15.808598,23.55664 -6.520223,-2.50205 -9.113853,-0.63486 -2.789062,2.00781 4.153961,1.73563 4.31946,2.93483 1.023438,7.40235 C 86.452905,224.12867 84,232.32423 84,238.41797 c 0,4.91515 -1.272961,7.94263 -4.5,10.70117 -3.046787,2.60446 -3.039703,1.47587 0.0293,-4.58984 1.539858,-3.04347 2.479778,-5.8542 2.087891,-6.2461 -1.414164,-1.41416 -4.079803,1.48786 -5.789063,6.30274 -0.973134,2.7413 -1.763909,3.97142 -1.787109,2.78125 -0.04665,-2.39324 -2.321285,-3.30192 -6.003907,-2.39844 -3.019328,0.74075 -4.450067,6.14314 -3.121093,11.78125 0.859747,3.64744 0.886675,3.59393 0.984375,-1.94141 C 65.955609,251.67855 66.45,248.83992 67,248.5 c 0.55,-0.33992 1,-0.15504 1,0.41016 0,0.5652 0.675,0.76775 1.5,0.45117 1.162481,-0.44609 1.5,0.23588 1.5,3.03125 0,2.13877 0.487677,3.60742 1.199219,3.60742 0.933333,0 0.933333,0.26589 0,1.19922 -0.66,0.66 -1.199219,2.01 -1.199219,3 0,2.01144 -1.614292,2.45595 -2.228516,0.61328 -0.252125,-0.75638 -1.226575,-0.35741 -2.683593,1.09961 -2.385494,2.38549 -1.97344,3.63371 1.412109,4.27148 2.154779,0.40592 2.201595,0.97542 0.986328,12.06641 L 67.855469,284 60.677734,283.80664 C 46.972677,283.43876 41,282.89953 41,282.0293 c 0,-0.48123 2.5875,-3.0461 5.75,-5.70118 3.1625,-2.65501 5.975,-5.05923 6.25,-5.34179 0.275,-0.28256 2.778134,-2.39074 5.5625,-4.68555 L 63.625,262.12695 62.611328,256 c -0.753181,-4.55416 -0.705052,-6.62158 0.1875,-8.05078 C 63.459314,246.89161 64,245.32898 64,244.47461 c 0,-2.20896 3.650177,-9.07888 7.945312,-14.95117 2.020704,-2.7627 4.696912,-7.72344 5.945313,-11.02344 1.248401,-3.3 2.694276,-6.80101 3.214844,-7.7793 0.520569,-0.97828 1.640304,-5.42685 2.486328,-9.88672 0.846023,-4.45987 2.722578,-11.08386 4.169922,-14.7207 3.213425,-8.07459 14.477031,-31.33706 16.093751,-33.23633 2.91022,-3.41884 6.38136,-9.50637 7.79492,-13.66992 0.84856,-2.49938 2.17549,-5.17548 2.94727,-5.94726 0.77179,-0.77179 1.40234,-1.85103 1.40234,-2.39844 0,-0.54741 1.125,-2.46877 2.5,-4.27149 1.375,-1.80272 2.5132,-3.68551 2.5293,-4.18359 0.0512,-1.58192 5.98213,-7.51801 6.92773,-6.93359 0.49888,0.30832 1.04968,-0.65776 1.22461,-2.14649 0.22262,-1.89455 1.40757,-3.32366 3.94922,-4.76562 1.99723,-1.13309 6.04723,-3.54324 9,-5.35547 2.95277,-1.81223 6.26914,-3.825512 7.36914,-4.474611 10.06637,-5.940059 11.76983,-7.440829 10.95703,-9.646485 -0.28691,-0.778582 -0.73992,-3.784373 -1.00781,-6.679687 -0.42391,-4.58139 -0.2044,-5.461116 1.6914,-6.789063 1.82168,-1.275945 1.96824,-1.778935 0.89649,-3.070312 C 161.23247,71.575383 161.15464,71 161.82812,71 c 0.59004,0 1.48534,0.738406 1.99024,1.640625 C 164.95189,74.666125 167,73.572411 167,70.941406 167,69.873865 167.62196,69 168.38281,69 c 0.76085,0 1.6539,-0.7875 1.98438,-1.75 1.03945,-3.027324 5.33643,-9.651857 6.51562,-10.044922 C 178.73253,56.588507 177.06498,55 174.56836,55 c -1.27234,0 -5.80895,1.142235 -10.08203,2.537109 -4.27308,1.394875 -8.26736,2.329578 -8.87695,2.078125 -0.60965,-0.251454 -0.32188,-0.493689 0.64062,-0.537109 0.9625,-0.04342 1.75,-0.516858 1.75,-1.052734 0,-1.433298 4.88662,-3.687072 9.74414,-4.494141 2.33462,-0.387893 4.50021,-1.116998 4.81055,-1.619141 0.8636,-1.397344 -3.6009,-1.087477 -9.47266,0.65625 -5.95924,1.769704 -7.61826,1.223281 -4.07812,-1.341797 3.75346,-2.719647 11.1032,-5.140116 15.74609,-5.185546 2.3375,-0.02287 4.25,-0.522311 4.25,-1.109375 0,-0.587063 -0.83686,-0.801097 -1.85938,-0.476563 -2.18978,0.695013 -5.34769,-0.309627 -4.6289,-1.472656 0.78936,-1.277213 5.15152,-1.825578 9.77344,-1.720703 z m 97.92773,3.828125 c 0.17119,0.03614 0.32514,0.114206 0.45508,0.24414 0.21003,0.210032 -0.51392,1.458024 -1.60938,2.773438 -1.9613,2.355095 -1.99259,2.360245 -2.02539,0.25 -0.0255,-1.644544 1.98137,-3.520565 3.17969,-3.267578 z m -96.22656,5.519531 c -0.66108,0.02382 -1.14388,0.147784 -1.38867,0.392578 -1.04812,1.048118 -0.46357,1.300952 6.90234,2.984375 2.75,0.628492 6.575,1.995863 8.5,3.03711 4.14715,2.243223 5.3112,2.42044 4.76172,0.726562 -0.83221,-2.565435 -14.14784,-7.307354 -18.77539,-7.140625 z m -1.03711,4.035156 c -0.6038,-0.03172 -1.02717,0.03498 -1.21289,0.220703 -0.51149,0.51149 2.06411,1.606352 6.11719,2.59961 3.85101,0.943739 8.46407,2.794231 10.25195,4.113281 3.13081,2.309842 4.73233,2.586773 3.50781,0.605469 -1.42309,-2.302614 -14.43748,-7.317037 -18.66406,-7.539063 z M 279.25,57.015625 c -2.02787,0.0414 -3.44474,2.192521 -5.70508,8.662109 -1.35816,3.887376 -3.81495,9.262626 -5.45898,11.945313 -1.64403,2.682687 -3.28303,6.114453 -3.64453,7.626953 -0.65409,2.736613 0.0542,3.384962 2.16797,1.984375 C 267.83786,86.420292 273,77.036263 273,75.617188 c 0,-0.894656 3.00623,-7.719247 5.625,-12.771485 1.49887,-2.891681 1.81609,-5.854398 0.625,-5.830078 z m -98.2168,3.330078 c -1.14584,-0.0092 -2.20552,0.557873 -3.54492,1.828125 -2.88747,2.738394 -3.01382,3.630789 -0.93164,6.603516 1.84335,2.631751 5.98677,2.931152 9.2207,0.666015 3.88887,-2.723868 2.11111,-7.174223 -3.55664,-8.902343 -0.4148,-0.126475 -0.80555,-0.192255 -1.1875,-0.195313 z m -10.46875,1.0625 c 0.27041,-0.04415 0.43555,0.06874 0.43555,0.347656 0,0.55 -0.675,1.559452 -1.5,2.244141 -0.83674,0.694433 -1.5,0.801968 -1.5,0.244141 0,-0.55 0.675,-1.559452 1.5,-2.244141 0.41837,-0.347217 0.79405,-0.54765 1.06445,-0.591797 z m 10.57813,0.597656 c 1.53283,-0.0031 2.90776,0.683775 3.27344,1.636719 0.88543,2.307393 0.49404,2.338707 -2.91602,0.226563 l -3,-1.859375 z m -19.86328,2.373047 c 0.10514,-0.10514 0.24468,0.03473 0.40429,0.433594 0.28891,0.721875 0.25252,1.583724 -0.0801,1.916016 -0.3323,0.332291 -0.56878,-0.258334 -0.5254,-1.3125 0.024,-0.582472 0.096,-0.931969 0.20118,-1.03711 z M 180.29297,65.375 C 180.47422,65.29507 180.725,65.33004 181,65.5 c 0.55,0.339919 1,0.816053 1,1.058594 C 182,66.801135 181.55,67 181,67 c -0.55,0 -1,-0.476135 -1,-1.058594 0,-0.291229 0.11172,-0.486478 0.29297,-0.566406 z m -22.01367,0.0039 c 0.10514,-0.10514 0.24468,0.03473 0.40429,0.433594 0.28891,0.721875 0.25252,1.583724 -0.0801,1.916016 -0.3323,0.332291 -0.56878,-0.258334 -0.5254,-1.3125 0.024,-0.582472 0.096,-0.931969 0.20118,-1.03711 z m 40.09961,2.009766 c 0.36444,0.01227 0.62109,0.40964 0.62109,1.052734 0,1.756526 -0.5998,2.013997 -1.45703,0.626953 -0.31644,-0.511996 -0.11758,-1.213129 0.44141,-1.558593 0.13972,-0.08637 0.27305,-0.125184 0.39453,-0.121094 z M 12.25,67.517578 C 12.036354,67.65525 12,68.261579 12,69.427734 c 0,2.589647 1.349027,3.433088 2.503906,1.564454 0.342526,-0.554221 -0.07939,-1.710247 -0.939453,-2.570313 C 12.855281,67.712703 12.463646,67.379907 12.25,67.517578 Z M 16.933594,75 c -0.586158,0 -1.882815,0.437473 -2.882813,0.972656 -1.71496,0.917818 -1.833718,3.79889 -2.068359,50.750004 -0.590225,118.10256 -0.198962,173.48987 1.439453,203.77734 0.23802,4.4 0.731946,17 1.095703,28 0.363757,11 0.975692,20.33305 1.361328,20.74023 0.385636,0.40718 2.114646,0.33519 3.841797,-0.16015 3.268584,-0.93742 111.005097,-0.66322 124.279297,0.3164 4.125,0.30443 48.17352,0.77622 97.88672,1.04883 49.71319,0.27262 90.62699,0.73442 90.91797,1.02539 1.22014,1.22015 3.19531,0.39217 3.19531,-1.33984 0,-1.73515 -1.09712,-1.88597 -15.25,-2.08398 -8.3875,-0.11735 -20.425,-0.35227 -26.75,-0.52344 -36.21154,-0.97994 -174.30772,-2.87381 -207.5,-2.84571 -9.35,0.008 -25.775,0.0519 -36.5,0.0996 -10.725,0.0477 -21.75,-0.22039 -24.5,-0.5957 l -5,-0.68164 0.335938,-5.75 c 0.245007,-4.19327 -0.01141,-5.75 -0.949219,-5.75 -0.985964,0 -1.011459,-0.2737 -0.109375,-1.17578 0.801808,-0.80181 1.018695,-3.90734 0.68164,-9.75 C 20.18696,346.35893 19.742247,338.45 19.470703,333.5 19.199159,328.55 18.733832,293.675 18.4375,256 c -0.296332,-37.675 -0.628572,-75.25 -0.738281,-83.5 -0.109709,-8.25 -0.09412,-19.275 0.03516,-24.5 0.129273,-5.225 0.02171,-19.85 -0.240234,-32.5 C 17.080042,95.503852 16.810201,92.455628 15.423828,92.160156 13.558842,91.762679 14.234618,87.523534 16.578125,84.921875 18.225909,83.092578 18.515674,75 16.933594,75 Z m 163.525386,5 c -2.84454,0 -1.13106,3.441709 2.05274,4.123047 4.56718,0.977383 5.31953,0.959645 6.00195,-0.144531 C 189.16985,82.916797 183.26423,80 180.45898,80 Z m 70.32227,2.314453 c 0.50116,-0.07151 1.08839,0.210498 2.04297,0.806641 2.26839,1.416636 2.901,4.312662 1.17578,5.378906 -1.51136,0.934069 -1.19817,2.5 0.5,2.5 0.825,0 1.5,-0.675 1.5,-1.5 0,-0.825 0.45,-1.5 1,-1.5 0.55,0 0.9984,0.1125 0.99609,0.25 -0.0236,1.411089 -5.58499,10.621374 -8.39843,13.9082 C 245.66472,106.75297 245.21637,108 247.5,108 c 0.825,0 1.5,-0.35375 1.5,-0.78516 0,-1.18467 6.04055,-4.50828 6.80469,-3.74414 0.36621,0.3662 -0.39371,1.4655 -1.6875,2.44141 -1.68056,1.26764 -2.16737,2.35595 -1.70508,3.8125 0.4411,1.38976 0.12719,2.23874 -0.98633,2.66601 -0.89846,0.34477 -1.3889,1.26364 -1.08984,2.04297 0.87307,2.27519 -1.1388,7.79408 -4.16602,11.42774 l -2.80078,3.36133 -2.88672,-2.48438 -2.88867,-2.48437 3.05078,-3.05079 c 3.89343,-3.89342 6.07099,-8.88799 4.54297,-10.41601 -0.80131,-0.80131 -1.58928,-0.22169 -2.89453,2.12695 -4.37337,7.86935 -10.56223,15.09602 -17.04297,19.90039 -5.33884,3.95784 -7.14868,5.93091 -7.625,8.3125 C 216.72482,145.62786 216.8562,150 217.89258,150 219.0045,150 220,147.51155 220,144.73047 c 0,-2.92643 3.81257,-8.19473 7.45508,-10.30274 1.67514,-0.96945 4.31639,-2.81294 5.87109,-4.0957 3.2675,-2.69598 4.43509,-2.82681 7.11914,-0.79687 1.51037,1.14228 1.67834,1.73965 0.75,2.66796 -1.41291,1.41293 -1.60163,4.79688 -0.26758,4.79688 0.51072,0 1.60469,-0.675 2.42969,-1.5 0.825,-0.825 2.18386,-1.5 3.01953,-1.5 1.26201,0 1.34109,0.55058 0.47266,3.25 -2.12283,6.59867 -7.26083,15.64609 -11.82617,20.82422 -5.3103,6.02308 -8.21388,6.6812 -15.52344,3.51953 l -4,-1.73047 2.5,-1.89844 c 1.375,-1.04486 4.25353,-3.15137 6.39648,-4.68164 5.5969,-3.99674 14.02377,-12.19694 13.28907,-12.93164 -0.34369,-0.34368 -3.89977,2.02399 -7.90039,5.26172 -7.54707,6.10788 -12.22508,9.48164 -15.80664,11.39844 -1.78153,0.95344 -2.82261,0.56018 -7.03516,-2.65234 C 204.22403,152.28558 202,150.4324 202,150.24023 c 0,-0.45093 7.33978,-11.01339 9.82227,-14.13476 1.04712,-1.3166 2.41012,-2.07994 3.02929,-1.69727 0.71855,0.44408 0.91254,0.13774 0.53516,-0.8457 -0.3738,-0.9741 1.14935,-3.47461 4.14453,-6.80078 2.60569,-2.89364 5.45431,-6.38672 6.32813,-7.76172 0.87379,-1.375 3.53622,-4.51044 5.91796,-6.96875 2.38175,-2.45832 7.56962,-8.69483 11.52735,-13.857422 9.75915,-12.730148 10.04895,-13.152214 9.45117,-13.75 C 251.93848,83.60645 246.60925,88.908947 241.625,95.5 c -2.49551,3.3 -7.29424,9.375 -10.66406,13.5 -3.36982,4.125 -8.00095,9.86588 -10.29297,12.75781 -11.7718,14.85292 -20.76684,25.42592 -26.87891,31.59571 -3.73413,3.76939 -6.78906,7.5108 -6.78906,8.31445 0,0.80364 0.97699,3.73415 2.17188,6.51172 1.60292,3.72618 1.90364,5.47899 1.14257,6.68554 -1.77503,2.81401 -3.68486,1.82946 -4.55273,-2.34765 -1.30043,-6.259 -2.76172,-6.67387 -2.76172,-0.7832 0,8.71456 0.16594,8.51145 -15.38281,18.8496 -1.58525,1.05401 -3.67109,2.38313 -4.63672,2.95313 -0.96563,0.56999 -3.49502,2.20748 -5.61914,3.63867 -2.12412,1.43119 -8.36133,5.41273 -13.86133,8.84961 -5.5,3.43688 -11.8754,7.76189 -14.16797,9.61133 -5.89309,4.75405 -6.59805,4.46708 -5.84375,-2.38672 1.03577,-9.41125 4.36838,-26.47689 6.41016,-32.82422 1.04832,-3.25895 2.22101,-7.43411 2.60547,-9.27734 0.38446,-1.84322 1.79098,-5.73456 3.125,-8.64844 1.97392,-4.31161 2.79586,-5.20247 4.41406,-4.7793 3.28472,0.85897 3.34833,2.22991 0.39258,8.41407 -2.63711,5.51745 -2.71222,6.01631 -1.15235,7.57617 2.20138,2.20138 2.60202,1.63546 3.72266,-5.25 0.52032,-3.19699 1.34156,-6.20875 1.82422,-6.69141 0.48267,-0.48267 3.15612,-0.57456 5.9414,-0.20508 l 5.06446,0.67188 -0.65039,3.63086 c -1.24624,6.95522 -0.83585,11.55875 1.06445,11.93359 1.51733,0.29929 1.75234,-0.49393 1.76562,-5.97656 0.008,-3.47782 0.40377,-6.93755 0.87891,-7.6875 0.53026,-0.83696 3.97157,-1.67792 8.91016,-2.17578 10.00826,-1.00894 12.42821,-2.17294 12.00781,-5.7793 -0.24897,-2.13573 0.14533,-2.74742 1.9375,-3.00195 C 184.53375,152.78433 184.75268,150 182,150 c -2.74017,0 -2.53555,-1.78408 0.25,-2.17969 2.94287,-0.41796 2.98713,-3.34499 0.0488,-3.24609 -1.21015,0.0407 -1.96968,-0.29677 -1.68945,-0.75 0.28011,-0.45323 1.19483,-0.82422 2.0332,-0.82422 0.83837,0 1.33211,-0.5625 1.09765,-1.25 -0.23446,-0.6875 -1.42934,-1.10277 -2.65625,-0.92383 -1.91704,0.27955 -2.18634,-0.0723 -1.9082,-2.5 0.23425,-2.0447 0.94589,-2.91522 2.57422,-3.14648 1.2375,-0.17575 2.25,-0.97036 2.25,-1.76758 0,-1.04679 -0.69457,-1.27541 -2.5,-0.82227 -2.23101,0.55995 -2.5,0.31891 -2.5,-2.23828 0,-1.92239 1.48817,-4.67433 4.52344,-8.35937 2.4884,-3.0211 4.8585,-6.75669 5.26562,-8.30274 0.40713,-1.54605 1.18265,-2.8677 1.72266,-2.9375 0.54002,-0.0698 2.47975,1.86967 4.31055,4.31055 1.83081,2.44089 4.86829,6.19695 6.75195,8.34766 1.88365,2.15072 3.42578,4.26302 3.42578,4.69336 0,1.2407 -4.12396,7.89648 -4.89258,7.89648 -0.382,0 -2.02422,2.24138 -3.65039,4.98047 -1.62618,2.73908 -3.22363,4.9891 -3.54883,5 -0.3252,0.0109 -0.5502,-3.69297 -0.5,-8.23047 0.12016,-10.861 -1.71002,-11.76209 -2.53906,-1.25 -0.63411,8.0404 -1.63405,12.32376 -3.83984,16.44531 -0.65491,1.22377 -0.97458,2.4434 -0.70899,2.70899 0.67973,0.67972 12.46949,-11.80722 15.58985,-16.51172 1.42454,-2.14775 6.39601,-8.04385 11.04882,-13.10352 4.65282,-5.05967 9.19752,-10.40075 10.09766,-11.86914 0.90014,-1.46839 3.72951,-4.59257 6.28906,-6.9414 2.55954,-2.34882 4.6543,-4.5264 4.6543,-4.83985 0,-0.31345 1.9471,-2.890793 4.32617,-5.728514 2.37907,-2.83772 5.3285,-6.615167 6.55469,-8.392578 1.2262,-1.777411 2.62261,-3.127411 3.10352,-3 0.48088,0.127411 1.50087,-0.608905 2.26757,-1.636719 0.61136,-0.819572 1.02814,-1.2449 1.5293,-1.316406 z m 8.54687,15.222656 c 0.96173,0.08494 0.81657,0.91976 -0.52734,2.263672 C 257.20335,101.39821 256,101.31924 256,99.617188 c 0,-0.760852 0.9,-1.618595 2,-1.90625 0.56309,-0.147256 1.00756,-0.202142 1.32812,-0.173829 z m 3.40235,3.404301 c 0.79451,0.17803 0.41936,1.61426 -1.55859,3.40429 -2.01419,1.8228 -2.83535,2.03548 -3.48243,0.9043 -0.23597,-0.4125 0.8629,-1.79684 2.44141,-3.07617 1.22553,-0.99325 2.1229,-1.33924 2.59961,-1.23242 z m 1.58789,5.17578 c 0.67249,-0.14509 0.52852,0.30133 -0.23633,1.73047 -0.63333,1.1834 -1.52849,2.15234 -1.98828,2.15234 -0.4598,0 -1.13035,2.21873 -1.49023,4.93164 -0.49533,3.73401 -1.35282,5.51955 -3.5254,7.34766 -1.57846,1.32819 -3.5882,3.80488 -4.46679,5.5039 -1.9532,3.77706 -2.78514,4.34693 -4.65821,3.18164 -1.26705,-0.78824 -1.26599,-1.19401 -0.008,-3.18359 5.37991,-8.49449 8.05844,-13.37396 8.08594,-14.72266 0.0403,-1.9751 2.57765,-5.37593 4.21875,-5.65429 0.6874,-0.1166 2.09071,-0.54745 3.11719,-0.95899 0.41321,-0.16566 0.72701,-0.27976 0.95117,-0.32812 z M 268.01953,109 c 1.68997,0 1.07007,3.61686 -1.0918,6.36523 C 265.05381,117.74753 263,118.84363 263,117.46094 263,116.01685 267.1626,109 268.01953,109 Z m -107.76172,4.89648 c -2.01208,-0.022 -4.05723,0.21164 -6.00781,0.73438 -4.22159,1.13134 -2.43908,2.66621 2.33594,2.01172 5.90757,-0.80973 12.64211,0.90702 15.50195,3.95117 2.62076,2.78968 3.5748,2.51141 1.92969,-0.5625 -1.98548,-3.70991 -7.72351,-6.06888 -13.75977,-6.13477 z m 20.32617,1.47461 c -0.24239,0.0323 -0.60334,0.23002 -1.08398,0.62891 -0.825,0.68469 -1.48625,1.9779 -1.46875,2.87305 0.0267,1.36732 0.26656,1.3163 1.5,-0.31446 1.43323,-1.89492 1.77992,-3.28436 1.05273,-3.1875 z M 202.05859,127 C 201.47613,127 201,127.45 201,128 c 0,0.55 0.19887,1 0.44141,1 0.24254,0 0.71867,-0.45 1.05859,-1 0.33992,-0.55 0.14105,-1 -0.44141,-1 z m 97.29688,22.80859 c 0.007,0.003 0.0166,0.0184 0.0234,0.0215 0.0489,-0.007 0.0976,-0.0129 0.14648,-0.0195 -0.057,-0.002 -0.11327,-9.6e-4 -0.16992,-0.002 z m -99.31836,2.89063 c 1.39522,0.10499 3.03535,1.75328 6.84766,5.08984 2.49887,2.18703 2.53147,2.34385 0.73632,3.5 -1.03365,0.66571 -4.15792,3.12344 -6.9414,5.46094 -2.78349,2.3375 -5.4303,4.25 -5.88281,4.25 -0.45252,0 -1.81206,-2.03602 -3.02149,-4.52539 l -2.19922,-4.52734 5.07813,-5.07813 c 2.83623,-2.83623 3.98759,-4.27492 5.38281,-4.16992 z M 175.02734,167 c -0.6366,0 -0.77991,10.33222 -0.16406,11.83398 0.47021,1.14659 2.69233,-0.86584 2.95899,-2.67968 C 178.20338,173.56205 176.19993,167 175.02734,167 Z m -30.92187,10 c -1.38328,0 -2.16531,1.18165 -3.01367,4.55078 -0.63032,2.50321 -0.86732,5.00536 -0.52539,5.5586 0.34192,0.55323 1.56046,0.86621 2.70703,0.69726 1.76121,-0.25953 2.13209,-1.12126 2.39258,-5.55664 0.26842,-4.57033 0.0662,-5.25 -1.56055,-5.25 z M 115,194 c -0.55,0 -1,1.05421 -1,2.3418 0,1.28759 -0.67439,4.55009 -1.49805,7.25 -1.77126,5.80607 -3.03832,17.56536 -2.14453,19.89453 1.02553,2.67249 2.63963,0.68302 2.67383,-3.29492 C 113.04869,218.16137 113.71485,212 114.51172,206.5 116.25314,194.48064 116.27244,194 115,194 Z m -6.05859,5 c -0.58246,0 -0.78133,0.45 -0.44141,1 0.33992,0.55 0.81605,1 1.05859,1 0.24254,0 0.44141,-0.45 0.44141,-1 0,-0.55 -0.47613,-1 -1.05859,-1 z m 15.41601,33.0918 c -0.23685,-0.0444 -0.56018,-0.008 -0.97851,0.0723 -2.15157,0.41173 -3.18487,6.17169 -2.54688,14.19336 0.46754,5.87861 1.27319,5.29793 2.22852,-1.60742 0.39941,-2.88705 1.05807,-6.98109 1.46289,-9.09766 0.49142,-2.56934 0.54453,-3.42733 -0.16602,-3.56054 z m 3.51367,1.88672 c -0.1525,0.0305 -0.30247,0.12083 -0.45117,0.26953 -2.23647,2.23648 6.19717,23.57942 12.92383,32.70507 5.25885,7.13437 5.8848,5.03802 0.78711,-2.63671 -4.83004,-7.27176 -6.71612,-11.60231 -9.28516,-21.31641 -1.71798,-6.49605 -2.9071,-9.23498 -3.97461,-9.02148 z m -20.95117,2.57226 c 1.03802,-0.15335 1.12943,0.68188 1.25781,3.72461 0.0981,2.32389 0.17588,5.01211 0.17188,5.97461 -0.004,0.9625 0.3348,1.75 0.75391,1.75 0.41911,0 1.07907,1.0125 1.46679,2.25 0.38772,1.2375 1.54207,3.3231 2.56641,4.63477 3.13339,4.01231 2.45035,5.19835 -2.88672,5.00976 -2.6125,-0.0923 -10.15,0.079 -16.75,0.37891 -6.6,0.29988 -12.699009,0.82382 -13.552734,1.16601 C 75.805569,263.09955 75.846022,255.8804 80,252 c 1.65,-1.54133 3,-3.32414 3,-3.96094 0,-0.63677 0.45,-0.87898 1,-0.53906 0.55,0.33992 1,1.71605 1,3.05859 C 85,251.90113 84.55,253 84,253 c -1.905614,0 -0.989098,1.76936 1.214844,2.3457 2.647091,0.69223 3.91821,-0.9664 3.134765,-4.08789 C 87.946782,249.65282 88.224716,249 89.308594,249 c 0.838791,0 1.674088,-0.38459 1.857422,-0.85352 0.576084,-1.47349 11.778944,-10.1749 14.365234,-11.1582 0.59279,-0.22538 1.04267,-0.38638 1.38867,-0.4375 z M 156.93945,251 c -1.45149,0 -2.09126,3.92677 -1.50781,9.25977 0.31528,2.88182 0.78665,8.75132 1.04688,13.04296 0.42695,7.04107 1.90798,14.86161 3.22265,17.01368 0.97001,1.5879 1.00671,0.11581 0.14649,-5.81641 -0.47852,-3.3 -1.14675,-12.1875 -1.48633,-19.75 -0.33957,-7.5625 -0.97944,-13.75 -1.42188,-13.75 z m -88.660153,4.37891 c -0.105141,0.10514 -0.177182,0.45463 -0.201172,1.03711 -0.04342,1.05416 0.193099,1.64479 0.525391,1.3125 0.332294,-0.33229 0.368929,-1.19415 0.08008,-1.91602 -0.159613,-0.39887 -0.299156,-0.53873 -0.404297,-0.43359 z m 59.552733,5.72265 c -0.15579,-0.0149 -0.2919,0.0263 -0.39844,0.13282 -0.40168,0.40165 0.52318,2.53807 2.05469,4.74804 2.75168,3.97067 4.98868,5.42487 3.87305,2.51758 -0.31659,-0.825 -0.97759,-1.5 -1.46875,-1.5 C 131.40143,267 131,266.41129 131,265.69141 c 0,-1.67785 -2.07741,-4.48529 -3.16797,-4.58985 z m -89.548827,1.46289 c -0.0145,0.006 -0.02857,0.01 -0.04297,0.0156 0.01456,0.0192 0.01147,0.0483 0.02734,0.0664 0.0055,-0.029 0.01,-0.0524 0.01563,-0.082 z m 58.195313,0.89844 17.980464,0.0371 2.01954,3.36133 c 1.11149,1.84885 3.76012,5.32931 5.88476,7.73437 6.18034,6.99608 5.43444,7.40411 -13.58203,7.41211 -8.954757,0.004 -19.20625,0.26913 -22.78125,0.58985 -9.296156,0.83398 -10.376198,-0.19856 -10.837891,-10.36524 -0.321349,-7.07624 -0.158619,-7.99404 1.488282,-8.37695 1.017174,-0.23649 9.93962,-0.41318 19.828125,-0.39258 z m 52.183594,3.58594 c -0.38467,-0.28993 -0.41179,0.0417 -0.13672,0.95117 0.41585,1.375 1.70502,3.66767 2.86523,5.0957 3.3997,4.18444 3.02706,1.45752 -0.44726,-3.27343 -1.15494,-1.57267 -1.89658,-2.48352 -2.28125,-2.77344 z m -77.197266,1.43555 c 0.351452,-0.3433 0.907589,1.84637 1.550781,6.68554 0.462709,3.48127 1.15967,8.46758 1.548828,11.08008 0.640253,4.29815 0.52021,4.75 -1.261719,4.75 -1.083092,0 -2.257661,-0.28696 -2.609375,-0.63867 -1.115919,-1.11592 0.302031,-2.29555 2.087891,-1.73633 1.518516,0.4755 1.541673,0.38406 0.197266,-0.79297 -1.112363,-0.97388 -1.605108,-3.88432 -1.835938,-10.83203 -0.17594,-5.29558 -0.02919,-8.17233 0.322266,-8.51562 z m 180.064456,5.96289 c -0.18231,-0.0643 -0.33634,-0.068 -0.45118,0.004 -0.45903,0.2837 -1.12556,6.71188 -1.48046,14.28321 -0.3549,7.57132 -1.14148,18.30735 -1.74805,23.85742 l -1.10352,10.08984 -5.12304,-0.45703 c -3.78629,-0.33872 -4.84495,-0.16421 -4.0586,0.67187 1.26994,1.35025 15.50811,4.2282 23.93555,4.8379 3.3,0.23872 6.42672,0.84594 6.94922,1.3496 0.5225,0.50366 2.98522,0.91602 5.47266,0.91602 4.09383,0 4.33632,-0.12766 2.55078,-1.33984 C 274.35691,327.2228 255.61129,323 251.35352,323 c -2.23274,0 -2.48868,-0.32324 -1.95118,-2.46484 0.34033,-1.35598 1.30339,-8.89348 2.14063,-16.75 0.83724,-7.85652 1.99342,-16.67032 2.57031,-19.58594 0.87753,-4.43511 0.78374,-5.70577 -0.57617,-7.78125 -0.67049,-1.02331 -1.4609,-1.77775 -2.00781,-1.9707 z m 55.69726,0.43359 c -11.98044,-0.13233 -12.69757,-0.0951 -16.22656,0.83203 -1.98435,0.52132 -1.36557,0.80461 3,1.37305 3.025,0.39389 8.67621,0.76005 12.55859,0.81445 9.89321,0.13861 10.60683,0.86076 11.0625,11.17773 0.20458,4.63221 0.63852,12.11679 0.96289,16.63282 l 0.58985,8.21094 8.16211,0.33593 c 4.48991,0.18452 8.27656,0.4271 8.41406,0.53907 0.1375,0.11194 0.25,-0.47188 0.25,-1.29688 0,-1.19969 -1.49806,-1.5 -7.48242,-1.5 h -7.48242 l 0.13281,-15.94531 c 0.17975,-21.45068 0.46735,-21.01468 -13.94141,-21.17383 z m -70.15429,5.57422 c -1.23344,0.76231 -2.43736,26.09306 -1.58789,33.41211 1.3488,11.62159 2.48265,4.9855 2.46874,-14.45508 -0.008,-10.73457 -0.40361,-19.25198 -0.88085,-18.95703 z M 131.76758,280.5 134.2793,283 c 2.47766,2.46636 2.49917,2.63455 1.66406,12.5 -1.08908,12.86568 -1.07916,28.91491 0.0156,25.5 C 136.90484,318.05075 139,298.23197 139,292.23438 v -4.17383 l 3.67383,2.49218 c 2.02081,1.37136 5.17081,4.24192 7,6.37891 3.59443,4.19928 4.14047,7.80323 2.35937,15.56836 -1.24432,5.42493 -1.7417,8.3134 -2.56445,14.89844 L 148.76953,333 h -3.88476 c -4.45205,0 -4.81869,-1.06993 -1.88477,-5.5 2.21274,-3.34113 2.47471,-4.5 1.01953,-4.5 -0.53882,0 -1.89717,1.8 -3.01953,4 -1.99968,3.9197 -4.06349,4.88239 -6.77734,3.16016 -1.50477,-0.95495 -1.57835,-2.17348 -1.29688,-21.16016 0.11823,-7.975 -0.095,-17.65 -0.47266,-21.5 z M 129,283.94531 l 0.0801,9.77735 c 0.0436,5.37743 0.1561,16.30234 0.25,24.27734 l 0.16992,14.5 -3.03516,0.29688 c -1.66977,0.16356 -3.26336,0.0706 -3.54101,-0.20704 -0.27764,-0.27765 -10.0407,-0.57997 -21.69531,-0.67187 -14.302424,-0.11284 -21.488418,-0.53337 -22.107426,-1.29297 -0.557353,-0.68394 -0.535408,-3.47865 0.05664,-7.125 0.991996,-6.10959 0.499233,-29.33481 -0.748046,-35.26562 l -0.685547,-3.26758 5.376953,0.14062 c 2.958069,0.0767 14.491406,-0.15416 25.628906,-0.51172 z m -87.779297,1.86914 13.140625,0.54883 13.138672,0.55078 -0.269531,5.65625 c -0.234899,4.93638 -0.05636,5.57734 1.402343,5.01758 C 71.043934,296.66266 77,298.87274 77,300.69336 c 0,1.07796 -0.599219,1.35571 -2,0.92383 -1.1,-0.33915 -2.970245,-0.91376 -4.15625,-1.27539 -3.444545,-1.05032 -1.176861,1.62045 2.779297,3.27343 C 76.886643,304.97885 77,305.2161 77,310.59375 v 5.56445 l -3.25,-0.625 c -3.029072,-0.58399 -3.120631,-0.52552 -1.357422,0.88282 1.040496,0.83108 2.390496,1.69061 3,1.91015 2.134185,0.76871 0.08084,1.49169 -2.71289,0.95508 -2.632886,-0.50571 -2.785499,-0.79591 -2.285157,-4.37305 0.294818,-2.10777 0.101247,-4.10155 -0.429687,-4.42968 C 69.43391,310.15038 69,309.45895 69,308.94141 c 0,-1.34564 3.378379,-1.16459 4.800781,0.25781 C 74.528224,309.92666 75,309.99146 75,309.36133 c 0,-0.57172 -1.225803,-1.59835 -2.724609,-2.28125 -2.432838,-1.10847 -2.92295,-1.00041 -4.558594,1.01953 -1.314889,1.62388 -1.682381,3.27087 -1.304688,5.83203 0.289437,1.96269 0.817711,6.60586 1.173829,10.31836 l 0.646484,6.75 -11.365234,-0.0156 c -11.817085,-0.0159 -14.574621,-0.69756 -13.554688,-3.35547 0.332138,-0.86553 0.164709,-5.43302 -0.371094,-10.14844 -0.535803,-4.71542 -1.14235,-13.76856 -1.347656,-20.11914 z M 73.558594,293 C 75.33291,293 76,293.54623 76,295 c 0,2.11715 -2.41185,2.65831 -4.878906,1.0957 C 69.180089,294.86629 70.649965,293 73.558594,293 Z m 73.675786,3 c -0.84568,0 -2.56034,5.95987 -3.8125,13.25 -0.93585,5.44845 0.99452,4.61715 2.32226,-1 1.86229,-7.87862 2.39438,-12.25 1.49024,-12.25 z m 8.99414,7.39062 c 0.12397,-0.0548 0.25445,-0.0472 0.39648,0.0137 0.37875,0.16227 0.83446,0.7026 1.43555,1.43945 1.2872,1.57794 1.63768,2.8839 1.07422,4 -0.46014,0.91143 -1.39243,4.58125 -2.07227,8.15625 -0.67985,3.575 -1.71904,8.8625 -2.30859,11.75 -0.82566,4.04387 -1.49416,5.25 -2.91211,5.25 -2.02272,0 -2.32506,-1.2296 -0.9375,-3.82227 0.49753,-0.92965 1.64426,-6.8619 2.54687,-13.18359 1.3952,-9.77155 1.90955,-13.22012 2.77735,-13.60352 z m 4.9746,5.94727 c 0.56631,-0.15998 0.65987,3.09315 0.71485,13.41211 L 162,338 h -3.625 c -3.43458,0 -3.59288,-0.14446 -3.01953,-2.75 2.91694,-13.25568 3.65035,-17.08496 3.68945,-19.25 0.0248,-1.3752 0.66439,-3.85 1.41992,-5.5 0.30984,-0.67665 0.54953,-1.10878 0.73828,-1.16211 z m -89.85937,11.67773 c 1.942658,0.0257 3.354111,1.39329 3.337891,3.23438 -0.02262,2.5678 -2.004086,2.11792 -3.337891,-0.75781 -0.874553,-1.88557 -0.874553,-2.48812 0,-2.47657 z m 1.421875,7.08985 c 0.531322,-0.0124 1.360472,0.43306 2.548828,1.33398 1.582341,1.19962 1.672559,1.89561 0.710938,5.4668 C 75.419187,337.15752 74.824966,339 74.705078,339 74.279696,339 72,331.00713 72,329.51562 c 0,-0.9286 0.234303,-1.39778 0.765625,-1.41015 z M 331.05859,329 c -2.71754,0 -5.21867,0.45 -5.55859,1 -0.38371,0.62086 1.49005,1 4.94141,1 3.05746,0 5.55859,-0.45 5.55859,-1 0,-0.55 -2.22387,-1 -4.94141,-1 z m -135.11718,4 C 195.42387,333 195,333.45 195,334 c 0,0.55 0.70113,1 1.55859,1 0.85748,0 1.28133,-0.45 0.94141,-1 -0.33992,-0.55 -1.04105,-1 -1.55859,-1 z m 44.54101,6.97266 c -0.31543,0.0485 -0.45923,0.30615 -0.41992,0.77734 0.0344,0.4125 4.64691,4.45589 10.25,8.98633 5.60308,4.53045 11.3125,9.26311 12.6875,10.51562 1.375,1.25252 5.35762,4.40719 8.84961,7.01172 3.492,2.60454 6.7545,4.73633 7.25,4.73633 1.92326,0 0.75216,-1.93022 -2.34961,-3.87305 -1.7875,-1.11962 -4.375,-3.07423 -5.75,-4.34375 -1.375,-1.26951 -5.93795,-4.87797 -10.14062,-8.01953 -4.20268,-3.14155 -10.11619,-7.97411 -13.14063,-10.73828 -3.7915,-3.46522 -6.29003,-5.1981 -7.23633,-5.05273 z m -118.18164,1.45898 c -0.34335,0.10331 -0.37993,0.63123 0.1582,1.50195 0.36254,0.58659 1.13778,1.06641 1.72266,1.06641 0.6631,0 0.58758,-0.57305 -0.20117,-1.52344 -0.68577,-0.8263 -1.33633,-1.14822 -1.67969,-1.04492 z M 255.07422,342 c -2.28493,0 -2.35222,0.11283 -1.45117,2.46094 0.76147,1.98438 2.75842,1.48995 3.20117,-0.79297 0.21801,-1.12408 -0.35203,-1.66797 -1.75,-1.66797 z m -40.10742,0.0918 c 8.83485,-0.0413 18.02043,2.40784 14.02539,4.93359 -0.8204,0.51867 -5.99219,0.92138 -11.49219,0.89258 -13.27197,-0.0695 -18.87925,-2.60763 -10.75,-4.86524 2.36611,-0.6571 5.27185,-0.94717 8.2168,-0.96093 z M 164.23047,343 c -1.98233,0 2.35801,4.85016 8.16992,9.12891 4.41918,3.25342 4.27894,3.19916 5.06836,1.92187 0.32238,-0.52163 -2.01398,-2.85417 -5.19141,-5.18555 -3.17742,-2.33138 -5.92799,-4.60574 -6.11132,-5.05273 C 165.98268,343.3655 165.11253,343 164.23047,343 Z M 131,343.67188 c 0,1.08341 10.6548,11.45253 13.40234,13.04296 2.55039,1.47631 5.59766,1.64437 5.59766,0.3086 0,-1.36616 -4.71762,-4.31581 -5.81641,-3.63672 -0.49719,0.30728 -3.66595,-1.94203 -7.04297,-4.99805 C 133.76361,345.33266 131,343.20973 131,343.67188 Z m -4.6543,1.67968 c -0.11174,0.1084 0.0873,0.5288 0.53711,1.32227 0.5693,1.00413 2.23632,2.94063 3.70313,4.30273 l 2.66601,2.47656 -2.86718,1.17188 -2.86719,1.17188 2.49023,0.46484 c 4.16039,0.77649 5.43148,0.74552 6.87696,-0.16992 1.10664,-0.70085 0.95587,-1.10657 -0.75,-2.01953 C 134.96046,353.4438 134,352.45499 134,351.875 c 0,-1.11391 -3.26128,-4.18928 -6.32617,-5.9668 -0.79347,-0.46017 -1.21638,-0.66503 -1.32813,-0.55664 z m 57.16211,5.91602 c -0.49701,0.12605 -0.26022,1.01903 1.15821,2.5664 1.00833,1.1 2.49804,2.03624 3.31054,2.08204 0.96549,0.0545 0.54387,-0.85066 -1.21875,-2.61329 -1.52129,-1.52129 -2.75298,-2.16121 -3.25,-2.03515 z m 146.99219,5.44336 2.42383,2.64453 c 2.62124,2.85899 3.07617,3.11947 3.07617,1.75976 0,-0.48674 -1.2375,-1.67696 -2.75,-2.64453 z m -162.58398,1.41211 c -0.3474,-0.0143 -0.74259,0.0489 -1.10352,0.19336 -0.79773,0.31922 -0.56143,0.55744 0.60352,0.60547 1.05416,0.0434 1.64479,-0.19311 1.3125,-0.5254 -0.16615,-0.16612 -0.46511,-0.25913 -0.8125,-0.27343 z M 285.44336,363 c -1.59146,0 0.1114,1.98362 3.07226,3.57812 2.26338,1.21891 3.32096,2.4052 2.9668,3.32813 -0.30262,0.78861 0.0283,1.8 0.73438,2.24805 2.9224,1.85431 4.13714,0.31641 2.14843,-2.71875 C 293.07503,367.46646 286.88328,363 285.44336,363 Z m -4.93164,2.47461 c -0.1678,0.0701 -0.17818,0.25368 -0.004,0.53711 0.33602,0.5437 1.03324,0.98828 1.55078,0.98828 1.43843,0 1.1211,-0.71607 -0.61132,-1.38086 -0.44494,-0.17074 -0.76775,-0.21461 -0.93555,-0.14453 z m 19.38672,3.16992 c -1.20769,-0.18438 -1.20283,0.65264 0.30078,2.15625 1.37684,1.37684 3.80078,1.60559 3.80078,0.35938 0,-0.46172 -1.125,-1.35202 -2.5,-1.97852 -0.66167,-0.30147 -1.199,-0.47565 -1.60156,-0.53711 z" />
  </g>
</svg>
