<?xml version="1.0" encoding="UTF-8" standalone="no"?>
<!-- Created with Inkscape (http://www.inkscape.org/) -->

<svg
   version="1.1"
   id="svg2"
   width="323"
   height="385"
   viewBox="0 0 323 385"
   sodipodi:docname="34.svg"
   inkscape:version="1.1.2 (0a00cf5339, 2022-02-04)"
   xmlns:inkscape="http://www.inkscape.org/namespaces/inkscape"
   xmlns:sodipodi="http://sodipodi.sourceforge.net/DTD/sodipodi-0.dtd"
   xmlns="http://www.w3.org/2000/svg"
   xmlns:svg="http://www.w3.org/2000/svg">
  <defs
     id="defs6" />
  <sodipodi:namedview
     id="namedview4"
     pagecolor="#505050"
     bordercolor="#eeeeee"
     borderopacity="1"
     inkscape:pageshadow="0"
     inkscape:pageopacity="0"
     inkscape:pagecheckerboard="0"
     showgrid="false"
     inkscape:zoom="3.8909091"
     inkscape:cx="152.40654"
     inkscape:cy="86.226636"
     inkscape:window-width="1920"
     inkscape:window-height="1043"
     inkscape:window-x="0"
     inkscape:window-y="0"
     inkscape:window-maximized="1"
     inkscape:current-layer="g8" />
  <g
     inkscape:groupmode="layer"
     inkscape:label="Image"
     id="g8">
    <path
       id="path12"
       style="fill:#000000"
       d="M 12.376953,5.6542969 C 6.6499007,5.5848391 7.5443953,6.6970643 7.3632812,10 6.9186844,18.108014 7.0689196,33.361835 7.6640625,40.5 8.6930684,52.841933 8.9065156,74.308012 8.015625,75.972656 6.8925458,78.071149 6.6996125,90.888351 7.3476562,120.5 c 0.2888788,13.2 0.7549935,37.725 1.0351563,54.5 0.2801628,16.775 0.8270425,33.2 1.2148437,36.5 0.3878016,3.3 0.6469278,7.125 0.5781248,8.5 -0.09471,1.89272 -0.7025207,25.89819 -1.1523435,45.5 -0.012621,0.55 0.3320788,3.52991 0.765625,6.62305 0.4335455,3.09314 0.4957135,6.72211 0.1367187,8.06445 -1.0098856,3.7761 -0.3115614,22.8006 1.0156248,27.6582 0.861321,3.1525 0.894835,5.18449 0.123047,7.39844 -0.789883,2.26586 -0.751331,3.42912 0.150391,4.51563 1.392376,1.67771 1.794281,30.62394 0.625,45.02929 -0.918974,11.32161 -0.788715,11.43149 12.625,10.69532 C 29.983953,375.18146 38.55,375.2861 43.5,375.7168 c 10.972362,0.95471 55.356638,0.88661 72.5,-0.11133 10.88622,-0.63371 39.31227,-1.15309 107,-1.95508 9.625,-0.11404 17.97921,-0.50696 18.56445,-0.87305 0.58524,-0.36608 10.11246,-0.90314 21.17188,-1.19336 34.71103,-0.91086 50.53617,-1.5112 56.43555,-2.14453 0.1886,-0.53088 0.34114,-1.05768 0.46484,-1.55078 -13.19859,-0.52004 -128.11213,-0.46116 -148.63672,0.10742 -15.675,0.43418 -45.15,1.11533 -65.5,1.51172 -44.774689,0.87215 -44.565505,0.85894 -45.699219,2.88477 -1.158699,2.07048 -4.229515,2.16629 -3.439453,0.10742 0.498775,-1.29979 -1.876906,-1.5 -17.794922,-1.5 h -18.36914 l -0.730469,-11.68359 c -0.401525,-6.4262 -0.846553,-18.2387 -0.990235,-26.25 C 18.332881,325.05504 17.853954,299.825 17.412109,277 c -0.441846,-22.825 -0.746724,-43.3 -0.677734,-45.5 0.06899,-2.2 0.196273,-5.8 0.283203,-8 0.157649,-3.98955 -0.317837,-32.17118 -1.5,-89 -0.343235,-16.5 -0.624926,-41.161718 -0.625,-54.802734 -1.26e-4,-21.521139 -0.204393,-24.880282 -1.554687,-25.398438 -1.400687,-0.537493 -1.401745,-0.683038 -0.01172,-1.460937 1.317451,-0.737283 1.536754,-3.910876 1.496094,-21.601563 L 14.773438,10.5 l 10.363281,-0.002 C 30.83627,10.497304 38.425,10.795565 42,11.160156 c 8.09072,0.82512 33.388067,1.770404 63.5,2.373047 12.65,0.25317 27.275,0.700439 32.5,0.994141 25.12942,1.412547 78.63617,2.028415 85.5,0.984375 1.65,-0.250977 16.5,-0.69178 33,-0.980469 39.92345,-0.69851 54.5,-1.456482 54.5,-2.832031 0,-0.743135 0.38802,-0.709642 1.19922,0.101562 0.52134,0.521346 2.39565,0.886201 4.42773,1.050781 0.29611,-1.300497 0.59346,-2.6004 0.83985,-3.9101558 C 313.75326,8.7622247 307.83185,8.7482756 296.5,8.7988281 268.12202,8.9254249 260.5157,9.1512254 256.01367,10 c -2.71436,0.511746 -4.64789,0.480162 -4.84961,-0.080078 -0.18448,-0.512357 -0.78671,-0.6531459 -1.33789,-0.3125 C 247.99075,10.741773 202.73676,11.422398 194.5,10.439453 188.91135,9.7725251 139.04752,8.7341007 120.5,8.8984375 84.671379,9.2158903 69.566581,8.9176955 68.925781,7.8808594 68.437342,7.0905504 68.060382,7.0925605 67.568359,7.8886719 66.843286,9.0618645 61.913522,8.9181041 31.5,6.8378906 21.633526,6.163047 15.813185,5.6959715 12.376953,5.6542969 Z M 176,12 c 0.55,0 1,0.45 1,1 0,0.55 -0.45,1 -1,1 -0.55,0 -1,-0.45 -1,-1 0,-0.55 0.45,-1 1,-1 z M 24.779297,17.212891 c -1.489803,0.252298 -1.688384,2.53793 -2.210938,10.996093 -0.46773,7.570769 -0.310607,8.835235 1.197266,9.681641 1.581511,0.88774 1.760472,0.180248 2.023437,-8.025391 l 0.28711,-9 5.71289,0.623047 c 3.141374,0.34191 8.732263,1.048547 12.423829,1.570313 3.691567,0.521766 15.166567,1.261691 25.5,1.644531 19.220476,0.712094 28.794276,0.780118 66.121089,0.474609 11.73368,-0.09604 23.09618,0.106762 25.25,0.451172 3.85436,0.616336 5.35518,-0.622265 2.72461,-2.248047 -0.65517,-0.404916 -9.54267,-0.860986 -19.75,-1.013671 C 116.99589,21.962367 65.065781,20.814772 61,20.53125 59.075,20.397012 54.125,19.978803 50,19.601562 45.875,19.224323 39.575,18.750588 36,18.548828 32.425,18.347068 28.267141,17.867712 26.759766,17.484375 25.916119,17.26983 25.275898,17.128791 24.779297,17.212891 Z M 316.38086,20.708984 313.5,21.1875 l 0.13086,24.15625 c 0.0724,13.286044 0.1849,24.94375 0.25,25.90625 0.0651,0.9625 0.64349,1.75 1.28516,1.75 0.64166,0 0.87166,-0.296308 0.50976,-0.658203 -0.36189,-0.361895 -0.22071,-1.185259 0.31445,-1.830078 0.58435,-0.70411 0.88133,-10.460273 0.74219,-24.423828 l -0.22265,-22.326172 c -0.0972,-0.400694 -0.1543,-0.808872 -0.12696,-1.22461 0,-0.475325 -0.005,-0.950503 0.004,-1.425781 -5e-5,-0.134032 -0.004,-0.26831 -0.006,-0.402344 z m -20.21875,0.824219 c -9.13205,-0.01542 -22.08711,0.01826 -36.66211,0.101563 -52.7687,0.301611 -89.28816,1.115883 -90.75977,2.02539 -0.42512,0.262742 -0.53506,0.863267 -0.24414,1.333985 0.57633,0.932523 81.11929,0.361543 82.65235,-0.585938 0.51625,-0.319057 1.59363,-0.03579 2.39453,0.628906 1.12476,0.933459 1.78234,0.938057 2.88672,0.02148 1.44622,-1.20026 20.63663,-0.833361 25.93359,0.496094 1.33003,0.333814 2.68203,0.180961 3.00391,-0.339844 0.67618,-1.094081 5.39858,-0.403048 6.20898,0.908203 0.3122,0.505147 1.26828,0.509875 2.23438,0.01172 2.6247,-1.353402 8.56656,-2.183314 9.80859,-1.369141 0.81266,0.53271 0.86292,4.976957 0.18359,16.234375 -1.0775,17.855639 -1.43816,52.824637 -0.76562,74.24805 0.45487,14.48973 0.5023,14.748 2.71289,14.75 1.2375,0.001 2.25,-0.44805 2.25,-0.99805 0,-0.55 -0.50571,-1 -1.12305,-1 -0.79687,0 -0.77534,-0.41634 0.0723,-1.4375 1.14077,-1.37455 1.3616,-36.033447 0.56445,-88.259766 l -0.24609,-16.195312 2.61523,-0.388672 c 0.71948,-0.106707 -4.58865,-0.170125 -13.7207,-0.185547 z m -80.46094,34.759766 c -4.03123,0.08877 -8.50722,1.210273 -10.95117,2.919922 -3.09993,2.168535 -3.45587,5.063453 -1.34961,10.960937 l 1.31055,3.671875 -2.60547,-1.837891 C 198.89409,69.741506 195,68.536882 195,69.810547 c 0,0.520337 1.33504,1.499882 2.9668,2.175781 1.63177,0.675898 3.52916,1.90583 4.21679,2.734375 1.04188,1.255387 0.71148,1.945908 -1.98828,4.142578 -1.78183,1.449782 -5.18603,4.318065 -7.56445,6.373047 -2.37842,2.054983 -4.61937,3.443134 -4.97852,3.083984 C 187.29319,87.961163 187,85.057187 187,81.867188 c 0,-5.268293 0.31257,-6.113349 3.41602,-9.216797 2.04532,-2.04532 3.05295,-3.781024 2.50976,-4.324219 C 191.46458,66.864979 194.82498,63 197.55664,63 c 2.49203,0 3.26769,-1.373642 1.41992,-2.515625 -2.11026,-1.304211 -6.6198,0.640003 -8.375,3.611328 -1.47132,2.49075 -2.25261,2.924108 -4.44336,2.460938 -5.01857,-1.06103 -8.53203,0.698924 -9.95508,4.984375 -1.66576,5.016335 -3.8276,7.36968 -6.19726,6.75 -1.71848,-0.449394 -1.78708,-0.188257 -0.80078,3.02539 0.97725,3.184193 0.84232,3.736161 -1.43164,5.84961 -1.38113,1.283637 -2.83286,3.799498 -3.22461,5.591796 -0.39174,1.792301 -1.15501,2.985529 -1.69727,2.650391 -0.54226,-0.335138 -1.21945,0.281405 -1.5039,1.369141 -0.38703,1.48002 -1.25592,1.91894 -3.45313,1.746094 -1.61483,-0.127032 -3.22666,-0.521589 -3.58203,-0.876954 -0.35536,-0.355365 -2.48268,-0.644278 -4.72852,-0.642578 C 143.58404,97.008333 119,92.689114 119,91.630859 c 0,-0.504017 2.33172,-0.637185 5.25,-0.300781 2.8875,0.332857 9.075,0.853301 13.75,1.15625 l 8.5,0.550781 -4.5,-1.503906 c -2.475,-0.826731 -5.93637,-1.509278 -7.69141,-1.517578 -1.75504,-0.0083 -3.47615,-0.478572 -3.82617,-1.044922 -0.42672,-0.690452 1.77626,-0.833597 6.68946,-0.433594 14.71437,1.197965 17.53594,1.908478 12.78515,3.220703 -2.08397,0.575621 -1.77486,0.775758 2.04297,1.316407 4.2636,0.603776 10,-0.502264 10,-1.927735 0,-2.164553 -18.25814,-6.134578 -28.25,-6.142578 -5.43556,-0.0044 -6.00674,-1.21582 -2.05469,-4.359375 4.44726,-3.537465 10.40255,-4.642839 17.33203,-3.214843 5.81482,1.19829 10.97266,4.531389 10.97266,7.089843 0,0.643885 0.84491,1.935152 1.87695,2.869141 1.70073,1.539131 1.93408,1.546961 2.49024,0.09766 1.52426,-3.972164 -5.42956,-12.817329 -12.15821,-15.466797 -3.8846,-1.5296 -13.01195,-0.836501 -18.35156,1.394531 -3.82237,1.597088 -6.13261,4.42556 -7.21875,8.835938 -0.50648,2.05661 -1.28834,2.75 -3.09961,2.75 -1.33206,0 -2.69914,0.45 -3.03906,1 -0.33992,0.55 -1.82855,1.009254 -3.30859,1.021484 -1.48004,0.01223 -3.81641,0.894613 -5.19141,1.960938 -2.37836,1.84444 -2.42566,2.075222 -0.96875,4.728516 1.20846,2.200834 2.36661,2.857203 5.48828,3.113281 6.20692,0.509171 6.59049,1.295717 4.39453,8.974611 -2.46408,8.61641 -2.43057,9.00782 0.78711,9.38476 1.8263,0.21394 3.33421,1.40329 4.6543,3.67188 1.7932,3.08162 2.33105,4.89497 4.49414,15.14453 0.59786,2.83289 1.15773,3.45453 2.94336,3.26172 2.60628,-0.28142 2.82078,1.33136 0.71289,5.37305 -0.82161,1.57537 -1.497,3.32582 -1.5,3.88867 -0.003,0.56285 2.27598,3.48785 5.06445,6.5 2.78846,3.01215 4.551,4.42523 3.91797,3.14062 -1.26134,-2.55961 -0.78017,-3.77176 1.04688,-2.64258 0.68709,0.42467 0.932,1.88881 0.59765,3.56055 -0.3124,1.56197 -0.13159,3.10872 0.40039,3.4375 0.53199,0.32879 0.9668,1.02043 0.9668,1.53516 0,0.51473 -3.0375,-1.33817 -6.75,-4.11719 C 129.06417,151.06137 124.28737,148 122.74219,148 c -0.71369,0 -2.17553,-1.0125 -3.24805,-2.25 C 115.45595,141.09067 111,134.94941 111,134.04297 111,131.32452 88.456912,119 83.484375,119 c -2.540544,0 -2.589682,0.12202 -1.919922,4.75 0.735394,5.08152 1.915415,7.25 3.943359,7.25 2.858582,0 6.441899,9.15038 4.5,11.49023 -1.510529,1.82007 1.624895,9.5259 3.851563,9.4668 0.902781,-0.024 3.528999,-0.40886 5.835937,-0.85547 2.564028,-0.49637 4.577468,-0.42839 5.181638,0.17578 0.54359,0.54359 1.66597,0.72796 2.49414,0.41016 2.373,-0.91061 -3.12046,-11.64237 -5.97265,-11.66797 C 98.428791,139.99282 93,137.97759 93,136.90234 c 0,-1.4206 5.391235,-1.05377 9.45117,0.64258 2.03254,0.84925 4.53098,1.27743 5.55274,0.95313 1.44251,-0.45783 2.46612,0.4834 4.57421,4.20703 1.49323,2.63755 4.0377,5.93873 5.6543,7.33789 l 2.9375,2.54492 -4.5625,4.20508 C 111.86441,161.16493 110,161.96475 110,159.62695 c 0,-0.83507 -1.61855,-1.63084 -4.13477,-2.0332 -2.27407,-0.36364 -5.25966,-1.5453 -6.634761,-2.62695 C 96.59942,152.89721 94,152.37153 94,153.91016 94,155.24582 99.914145,160 101.57617,160 c 2.25038,0 1.65632,1.70386 -0.82617,2.36914 -6.839556,1.83293 -20.558206,-0.0934 -29.970703,-4.20898 -8.332057,-3.64314 -6.302055,-0.34388 2.408203,3.91406 l 8.3125,4.06445 9.5,-0.59765 c 5.225,-0.32878 10.9625,-0.86113 12.75,-1.18164 6.44642,-1.15594 3.07944,1.401 -5.5,4.17578 -4.8125,1.55647 -9.248741,3.42169 -9.859375,4.14648 -1.591642,1.8892 -5.155362,1.6258 -5.833984,-0.43164 -0.317469,-0.9625 -4.284313,-3.49781 -8.816407,-5.63477 C 64.409526,162.21563 62,160.43848 62,157.96094 c 0,-1.09107 -1.013727,-1.92238 -2.748047,-2.25391 -3.13078,-0.59849 -4.497299,0.84451 -3.59375,3.79297 0.725755,2.36828 7.317583,8.23845 11.724609,10.44141 3.44242,1.72077 4.771941,4.77164 6.621094,15.19726 0.620486,3.49834 1.667228,8.16133 2.326172,10.36133 1.255306,4.19106 2.528871,4.71501 7.496094,3.08203 2.242885,-0.73735 2.29728,-0.62777 1.537109,3.07617 -1.145426,5.58109 -0.885102,14.22037 0.46875,15.57422 1.257671,1.25767 1.243309,1.37283 1.615235,-13.4707 0.10663,-4.25561 0.496677,-8.03965 0.867187,-8.41016 0.849354,-0.84935 14.499847,1.53924 15.191407,2.65821 0.28173,0.45586 2.64635,1.31047 5.25391,1.90039 2.60755,0.58993 7.94861,1.94128 11.86914,3.00195 5.44616,1.47343 11.28407,2.0058 24.74218,2.25781 l 17.61524,0.33008 -0.64063,3.44727 c -0.3527,1.8959 -2.37568,7.59596 -4.49414,12.66601 -2.11845,5.07006 -3.85156,9.72649 -3.85156,10.34961 0,0.62311 -0.92735,3.025 -2.06055,5.33594 -1.1332,2.31093 -2.93328,6.67617 -4,9.70117 -1.06671,3.025 -2.96617,7.525 -4.2207,10 -2.0755,4.09466 -2.57196,4.47176 -5.51563,4.18555 -2.74769,-0.26716 -3.60885,-1.05099 -5.71289,-5.20313 -3.1274,-6.17162 -6.93453,-9.73871 -11.80273,-11.05859 -2.0969,-0.56852 -4.4594,-1.28256 -5.25,-1.58594 -1.08348,-0.41578 -1.4375,0.3218 -1.4375,2.99609 0,4.22789 -1.46789,5.458 -3.89258,3.26368 -2.66593,-2.41263 -4.72624,-1.93225 -6.11719,1.42578 -0.68885,1.66303 -1.98071,3.46635 -2.87109,4.00781 -1.397331,0.84975 -1.144707,1.39412 1.84375,3.97656 4.17977,3.6119 5.26788,3.76225 4.47852,0.61719 -0.51196,-2.0398 -0.2309,-2.375 1.98242,-2.375 2.70704,0 3.35689,1.56889 1.44336,3.48242 -3.96819,3.96819 7.41936,6.75344 23.17969,5.66797 9.81101,-0.67573 9.92177,-0.65823 10.82812,1.70899 1.12978,2.9508 -0.0423,4.39683 -2.51758,3.10742 C 141.33587,270.68465 136,270.02743 130.5,269.75586 119.58724,269.21704 110.00697,266.57436 103.94531,262.42969 101.99075,261.09326 100.09804,260 99.738281,260 c -0.359752,0 -1.885098,2.09839 -3.388672,4.66406 l -2.732421,4.66602 3.857421,3.33398 C 99.596634,274.4984 101.93266,276 102.66602,276 c 2.35494,0 1.4243,-2.83428 -1.49805,-4.56055 -1.557714,-0.92016 -3.410151,-2.59559 -4.115236,-3.72461 -0.805094,-1.28916 1.152422,-0.3171 5.261716,2.61524 5.92955,4.23124 7.07213,4.66992 12.17383,4.66992 6.19857,0 6.64738,-1.37693 0.80664,-2.47266 -3.89604,-0.7309 -9.77772,-3.37852 -9.07226,-4.08398 0.22504,-0.22504 1.95518,0.0407 3.84375,0.58984 4.71747,1.37171 31.97694,5.64713 37.68359,5.91016 0.6875,0.0317 1.25,0.98793 1.25,2.125 0,1.56167 -0.45596,1.92128 -1.86328,1.47461 -1.34427,-0.42665 -2.61142,0.39096 -4.55078,2.93359 -2.88118,3.77743 -5.56539,4.62472 -5.61719,1.77344 -0.0288,-1.58346 -0.17153,-1.56499 -1.5,0.19141 -1.4348,1.897 -1.46875,1.89132 -1.46875,-0.25 0,-2.52065 -2.48768,-2.96753 -3.39258,-0.60938 -1.17761,3.06881 -0.57259,4.27497 2.6836,5.34961 2.56009,0.84491 4.4508,0.74011 8.52148,-0.46875 2.87749,-0.85453 5.55867,-1.35077 5.95898,-1.10351 0.40033,0.24725 0.57637,2.68315 0.39063,5.41406 l -0.33789,4.96484 -4.16211,-0.0644 c -2.28926,-0.0355 -8.61671,0.31988 -14.06055,0.78906 -8.8459,0.76238 -10.03281,0.66765 -11.16797,-0.88477 -1.03704,-1.41822 -1.66166,-1.52638 -3.40429,-0.59374 -1.1739,0.62824 -2.85111,1.0004 -3.72852,0.82812 -1.29606,-0.25447 -1.07637,-0.9308 1.17578,-3.60547 3.91998,-4.65544 2.48489,-5.03298 -3.05273,-0.80469 -5.15616,3.93702 -5.64622,4.08457 -8.49024,2.5625 C 99.302823,294.09187 99,294.26378 99,296.05859 c 0,1.2878 -0.790119,2.33596 -2,2.65235 -1.1,0.28766 -2,0.8615 -2,1.27539 0,1.23597 5.9934,1.79282 14.39453,1.33789 10.86593,-0.5884 11.75066,-0.0996 7.58985,4.19336 -2.66102,2.74547 -4.02741,3.40371 -6.66407,3.2168 -2.40118,-0.17024 -3.31736,-0.71727 -3.31836,-1.98438 -0.003,-2.37632 -0.86018,-2.20032 -3.09179,0.63672 -1.03296,1.31319 -2.96017,2.66013 -4.283207,2.99219 -1.323033,0.33206 -2.665971,1.28353 -2.984375,2.11328 -0.718669,1.87282 3.761752,2.0279 11.558592,0.40234 5.58566,-1.16455 11.20404,-5.37424 12.8711,-9.64453 0.79521,-2.03697 1.56635,-2.25726 8.15234,-2.31836 7.43303,-0.069 12.60572,-0.51319 16.42187,-1.41211 1.86121,-0.43842 2.19261,-0.008 2.5,3.23828 0.48205,5.09165 -0.17751,15.24219 -0.99023,15.24219 -0.98375,0 -5.1612,-8.24135 -5.1582,-10.17578 0.002,-0.92217 0.78945,-1.88325 1.75195,-2.13477 0.9625,-0.25153 -0.14669,-0.51042 -2.46484,-0.57422 -4.85073,-0.1335 -6.28516,1.5298 -6.28516,7.28711 0,2.61723 -0.36258,3.39555 -1.39844,2.99805 -0.76937,-0.29523 -1.64342,-0.14232 -1.9414,0.33984 -0.29799,0.48215 1.34358,1.40385 3.64843,2.04883 4.88765,1.36775 10.31511,5.15296 7.44141,5.18946 -1.91885,0.0244 -2.38778,2.50907 -0.67383,3.56836 1.26386,0.78111 -2.7356,5.45312 -4.66797,5.45312 -2.51973,0 -12.01967,5.35621 -15.6582,8.82812 -6.40048,6.1074 -5.49936,7.05866 7,7.38868 12.19628,0.32202 13.11062,0.16336 15.42188,-2.66797 1.65933,-2.03274 1.68201,-2.02556 2.85351,0.95117 l 1.17969,3 1.00195,-2.5 1,-2.5 1.04883,2.25 c 1.29937,2.78582 3.1131,2.98786 2.24414,0.25 -0.86385,-2.72174 1.81168,-2.65656 4.38672,0.10742 3.38324,3.63148 4.30094,1.57693 1.05469,-2.36133 -3.37851,-4.09872 -3.23297,-4.4649 0.91797,-2.31836 1.78174,0.92139 3.26886,1.10234 4.19921,0.51368 0.79248,-0.50141 2.85417,-0.91777 4.58203,-0.92579 2.52317,-0.0123 3.2656,0.47651 3.76954,2.48438 0.93042,3.70705 2.58984,3.02899 2.58984,-1.05859 0,-3.92478 1.51516,-3.84679 3.03711,0.15625 0.50246,1.32157 1.64746,2.40234 2.54492,2.40234 1.14528,0 1.43026,-0.52171 0.95508,-1.75 -0.37236,-0.9625 -0.93497,-3.1 -1.25,-4.75 -0.66241,-3.46941 -2.75915,-7.86591 -5.55273,-11.64453 -1.66078,-2.24634 -1.88766,-3.82987 -1.50977,-10.5 0.24475,-4.32009 0.78973,-8.6398 1.21289,-9.59766 0.53088,-1.20168 0.25257,-1.94038 -0.90039,-2.38281 -2.6627,-1.02178 -3.25559,0.54769 -3.88672,10.29883 -0.56167,8.67782 -0.4319,9.5294 2.37891,15.72851 1.63439,3.60457 2.9707,6.78911 2.9707,7.07618 0,0.28708 -4.88363,0.52148 -10.85156,0.52148 -11.03865,0 -12.81889,0.34676 -23.95508,4.66406 -6.80011,2.63628 -14.69336,2.91776 -14.69336,0.52344 0,-1.3716 2.34872,-2.90997 8.88867,-5.81836 2.13898,-0.95123 6.10389,-3.39203 8.81055,-5.42578 4.68429,-3.5197 5.29837,-3.69982 12.76172,-3.73242 7.70959,-0.0337 12.03906,-1.24015 12.03906,-3.35352 0,-0.58951 -0.65919,-0.81891 -1.46484,-0.50976 -0.80564,0.30916 -4.92018,0.87501 -9.14454,1.25781 l -7.68164,0.69726 0.66602,-2.90234 c 1.18127,-5.15249 2.47342,-16.6398 3.08203,-27.40039 0.67179,-11.87754 1.62122,-17.50507 4.05078,-24 1.91424,-5.11731 1.47468,-12.88545 -0.99609,-17.62305 -2.61934,-5.02246 -1.6509,-17.37056 1.36328,-17.38476 1.54932,-0.007 22.23431,5.04961 22.98438,5.61914 0.45527,0.34568 -3.58687,6.108 -6.58008,9.3789 -2.93739,3.20991 -2.87069,6.13837 0.39062,17.03321 2.87733,9.61207 2.91469,8.94303 -1.24414,21.97656 -1.88655,5.91232 -1.80756,7 0.50391,7 1.53324,0 2.16282,-1.12863 3.07031,-5.5 0.62799,-3.025 1.30445,-5.5 1.50391,-5.5 0.19946,0 2.58361,1.37972 5.29687,3.06641 4.89219,3.04115 4.9835,3.0569 11.08399,1.79687 4.43375,-0.91578 6.57194,-1.91155 7.65625,-3.5664 1.66266,-2.53756 0.43197,-3.17419 -1.54102,-0.79688 -0.68469,0.825 -2.16833,1.5 -3.29688,1.5 -1.99089,0 -1.98227,-0.0742 0.29297,-2.49609 2.63307,-2.80279 1.95454,-4.57456 -1.04101,-2.7168 -1.07499,0.66668 -2.83517,1.7591 -3.91016,2.42578 -2.98852,1.8534 -3.52106,0.25956 -1.21875,-3.64258 1.25386,-2.12513 1.68083,-3.75761 1.08008,-4.1289 -1.15424,-0.71335 -3.90625,1.30687 -3.90625,2.86718 0,0.58471 -0.93731,2.06067 -2.08398,3.28125 -2.00128,2.13027 -2.20439,2.15291 -5.03516,0.56446 -2.16241,-1.2134 -2.80918,-2.18776 -2.42774,-3.6543 0.28613,-1.1 0.52521,-3.94887 0.53321,-6.33008 L 180,271.8418 l 3.1543,0.6914 c 1.73521,0.38112 5.44771,0.79918 8.25,0.92774 2.80228,0.12856 5.9957,0.60647 7.0957,1.0625 2.34078,0.97044 8.68371,5.51937 9.70898,6.96289 0.45768,0.64439 1.12992,0.57321 1.90235,-0.19922 0.92735,-0.92735 0.60156,-1.97488 -1.45703,-4.67383 -1.45963,-1.91367 -2.67056,-4.07267 -2.68946,-4.79687 -0.0687,-2.6337 -8.54645,-13.33469 -11.65625,-14.71289 -1.73343,-0.76822 -3.96382,-2.90572 -4.95703,-4.75 C 188.35835,250.50925 186.9995,249 186.33203,249 c -0.66747,0 -1.52247,-0.49984 -1.90039,-1.11133 -1.29846,-2.10096 1.75445,-2.61614 6.78125,-1.14258 2.99899,0.87913 7.40872,1.30404 10.91016,1.05079 3.23232,-0.23384 5.87695,-0.11286 5.87695,0.26757 0,0.38042 -0.68129,2.32033 -1.51367,4.3125 -1.54305,3.69304 -0.73275,4.82982 1.51367,2.12305 1.87872,-2.26372 3,-1.80932 3,1.21484 0,2.51387 0.12029,2.59261 1.63672,1.07618 1.18581,-1.18581 2.26293,-1.39945 3.9043,-0.7754 3.57919,1.3608 13.45898,11.06981 13.45898,13.22657 0,1.07161 0.92342,3.24607 2.05273,4.83203 1.1293,1.58597 3.34402,5.70536 4.91993,9.1543 1.57592,3.44894 5.62414,10.02122 8.99609,14.60351 5.08609,6.91171 6.37668,8.12568 7.58008,7.12695 0.79783,-0.66214 1.45117,-0.76901 1.45117,-0.23828 0,0.53074 1.575,1.81293 3.5,2.84961 1.925,1.03668 3.5,2.23133 3.5,2.65625 0,0.42493 1.125,0.77344 2.5,0.77344 1.375,0 2.5,0.45 2.5,1 0,0.55 -0.48339,1 -1.07422,1 -2.26526,0 -12.89233,11.4065 -15.58398,16.72656 -3.94805,7.80318 -6.95635,10.6036 -13.61719,12.67774 -4.62562,1.44038 -6.07108,1.55259 -7.26172,0.56445 -1.85445,-1.53906 -0.61821,-3.24711 3.62305,-5.00391 4.15323,-1.72032 7.1446,-7.8931 7.29492,-15.05078 0.11488,-5.47023 0.26327,-5.76028 4.61523,-9.08008 C 249.61127,310.31339 251.3709,307 248.625,307 c -0.83734,0 -2.72509,1.575 -4.19336,3.5 -3.20414,4.20084 -5.12661,4.43412 -6.51172,0.79102 -2.86384,-7.53248 -16.31523,-23.80978 -22.26367,-26.94141 -4.4598,-2.34793 -4.4062,-0.6827 0.10156,3.17578 4.4075,3.77266 10.7461,11.30469 10.07617,11.97461 -0.22445,0.22446 -2.37072,0.72219 -4.76757,1.10547 -4.30464,0.68834 -4.3502,0.66358 -3.84961,-1.95508 0.59716,-3.12384 -0.691,-3.50137 -2.2168,-0.65039 -1.135,2.12077 -3.47706,2.65451 -4.48633,1.02148 -0.33289,-0.53864 -0.10524,-1.91478 0.50586,-3.05664 2.20271,-4.11581 0.2847,-4.27866 -2.02344,-0.17187 -2.40136,4.27263 -3.39635,4.98896 -4.48437,3.22851 -0.37141,-0.601 -1.26337,-0.63375 -2.3086,-0.082 -6.61454,3.49075 -10.63444,5.06298 -12.98437,5.07617 -1.49557,0.008 -3.39375,0.45122 -4.21875,0.98438 -1.20147,0.77645 -1.00245,1.00413 1,1.14258 1.375,0.095 3.175,0.1054 4,0.0234 0.825,-0.0818 8.01972,-0.41697 15.98828,-0.74414 8.96106,-0.36794 15.78529,-1.13678 17.88867,-2.01563 3.91872,-1.63735 5.55357,-0.81242 6.5918,3.32422 0.36553,1.4564 1.64673,4.02543 2.84766,5.70898 1.83011,2.56557 2.18126,4.4114 2.16797,11.41016 -0.0151,7.92764 -0.16062,8.47382 -2.86133,10.79687 -1.56456,1.34578 -4.17432,2.71378 -5.80078,3.03907 -1.62646,0.32529 -3.65485,1.65431 -4.50586,2.95312 -0.851,1.2988 -2.3949,2.36133 -3.43164,2.36133 -1.03674,0 -1.88477,0.34044 -1.88477,0.75586 0,3.17589 27.12887,6.04185 30.52344,3.22461 0.76375,-0.63386 1.85949,-0.86262 2.43359,-0.50781 1.90508,1.17743 3.12576,-0.44995 1.96485,-2.61914 -1.61538,-3.01837 -0.0391,-3.70988 2.18945,-0.96094 2.36524,2.91752 3.29808,2.31443 1.9414,-1.25391 C 255.27374,339.58982 254.37405,339 252.02539,339 c -1.66361,0 -3.01681,-0.3375 -3.00781,-0.75 0.009,-0.4125 1.80925,-2.51661 4,-4.67578 2.19074,-2.15916 3.98242,-4.5924 3.98242,-5.4082 0,-0.81581 1.99693,-3.32419 4.4375,-5.57422 2.44057,-2.25003 5.57478,-5.7756 6.96484,-7.83399 l 2.52735,-3.74219 -2.75781,-1.42578 c -1.51628,-0.78409 -4.97854,-3.2628 -7.69532,-5.50781 -2.71677,-2.24501 -5.6239,-4.11033 -6.45898,-4.14453 C 252.41293,299.8718 243,286.30035 243,284.05273 c 0,-0.72453 -0.86593,-2.72062 -1.92383,-4.43554 -1.0579,-1.71491 -2.86785,-5.64278 -4.02148,-8.73047 -1.15362,-3.08769 -3.03295,-6.46203 -4.17774,-7.49805 -1.14478,-1.03601 -2.72304,-3.12292 -3.50586,-4.63672 C 228.58828,257.23815 227.3474,256 226.61328,256 c -0.73413,0 -2.99141,-1.125 -5.01758,-2.5 -2.02618,-1.375 -4.51647,-2.5 -5.5332,-2.5 -2.5043,0 -3.42195,-2.75303 -1.27539,-3.82617 0.94202,-0.47094 5.65039,-1.89063 10.46289,-3.15625 4.8125,-1.26562 8.73444,-2.80083 8.71484,-3.41016 -0.033,-1.02661 -0.74953,-3.95178 -4.37304,-17.85351 -0.75327,-2.88999 -1.85622,-6.48614 -2.45118,-7.99219 -1.2358,-3.12844 -1.56885,-2.9767 10.26172,-4.68164 C 246.60052,208.7545 261,201.7957 261,198.67578 c 0,-0.65371 -1.96718,-3.39223 -4.37109,-6.08594 -3.95205,-4.4285 -4.43331,-5.53029 -5.01953,-11.49414 -0.58476,-5.94843 -1.17952,-11.69794 -3.16602,-30.5957 -0.3469,-3.3 -1.23197,-8.63017 -1.96875,-11.84375 -0.73678,-3.21358 -1.11548,-6.43015 -0.83984,-7.14844 0.27563,-0.71829 0.0211,-1.60174 -0.56641,-1.96484 C 244.48087,129.17988 244,127.26655 244,125.29297 244,120.56615 240.10653,110 238.36523,110 237.61392,110 237,109.52387 237,108.94141 c 0,-0.58246 0.45,-0.78133 1,-0.44141 3.27846,2.0262 -3.20175,-21.575513 -11.71289,-42.658203 -3.242,-8.030665 -3.73487,-8.703277 -6.79492,-9.277344 -1.1534,-0.216379 -2.44727,-0.301073 -3.79102,-0.271484 z m -189.683592,0.05469 c -0.42586,-0.01678 -1.024977,0.103163 -1.810547,0.308594 -2.057024,0.537923 -2.217874,1.195635 -2.359375,9.710938 C 21.764186,71.390524 21.739409,77.975 21.792969,81 c 0.330249,18.650348 1.064826,112.83688 1.009765,129.5 -0.09696,29.34262 0.06667,46.09397 0.621094,63.5 0.271542,8.525 0.772918,31.7 1.113281,51.5 0.340363,19.8 0.794869,36.5625 1.009766,37.25 C 26.014757,364.24686 31,364.44685 31,362.96875 c 0,-0.56727 -0.708304,-1.30249 -1.574219,-1.63477 -1.014005,-0.38911 -1.388203,-1.3569 -1.050781,-2.71875 0.288143,-1.16295 0.608082,-6.06418 0.710938,-10.89062 0.102857,-4.82645 0.463365,-8.93732 0.800781,-9.13477 0.337416,-0.19744 3.763281,0.66425 7.613281,1.91407 9.305874,3.02093 18.353556,4.97651 19.183594,4.14648 1.278199,-1.2782 -3.220876,-3.54415 -11.183594,-5.63281 -15.978153,-4.19115 -16.5,-4.3875 -16.5,-6.17774 0,-0.94747 -0.454909,-2.00352 -1.011719,-2.34765 -0.556809,-0.34413 -0.663079,-1.24915 -0.236328,-2.01172 0.426752,-0.76256 0.368704,-4.67033 -0.128906,-8.68359 -1.334114,-10.75973 -1.614275,-68.18851 -0.326172,-66.9004 0.654498,0.65449 1.062777,11.18281 1.117187,28.81836 L 28.5,309.5 l 5.990234,0.5 5.992188,0.5 0.783203,5.47461 c 0.792363,5.53978 2.546253,8.72025 3.449219,6.25391 0.39844,-1.08829 5.318578,-4.22852 6.625,-4.22852 0.241743,0 1.339254,1.9125 2.439453,4.25 2.708376,5.75426 5.804769,8.49823 8.029297,7.11523 2.222997,-1.38205 6.699317,-14.25771 5.40625,-15.55078 -0.527992,-0.52799 -2.526514,-1.08455 -4.439453,-1.23633 -5.653532,-0.44857 -7.852666,-2.8024 -3.646485,-3.90234 3.152498,-0.8244 9.932437,2.18396 13.513672,5.9961 1.998259,2.12709 3.714422,3.12774 4.708984,2.74609 1.127415,-0.43263 1.738806,0.19311 2.189454,2.24023 1.034357,4.69867 1.344731,5.3418 2.576172,5.3418 0.866489,0 1.005686,-2.32432 0.52539,-8.75 -0.964038,-12.89749 -4.014254,-84.35441 -3.958984,-92.75 0.0072,-1.1 0.570681,-6.21392 1.251953,-11.36328 1.290505,-9.75421 0.662921,-12.70806 -2.195313,-10.33594 -0.983876,0.81654 -1.389836,4.67386 -1.519531,14.40625 C 75.894528,240.68341 74.994811,247 71.835938,247 c -0.505653,0 -1.885695,0.9 -3.066407,2 -2.694712,2.51051 -5.954348,2.55848 -8.160156,0.12109 -1.612305,-1.78158 -1.555248,-2.03338 1.095703,-4.88867 4.497695,-4.84439 5.039004,-5.71202 6.769531,-10.84961 0.904625,-2.68564 2.743919,-7.21687 4.085938,-10.07031 2.885437,-6.13511 2.926782,-6.63875 0.824219,-9.84766 C 71.72635,210.93377 69,210.10939 69,212.13867 c 0,0.62592 -2.693928,3.66342 -5.986328,6.75 L 57.027344,224.5 55.970703,235 c -1.822864,18.11266 -2.220725,40.24862 -0.992187,55.16016 0.648565,7.87204 1.255409,14.74262 1.349609,15.26757 0.321235,1.79005 -3.074107,1.67639 -3.855469,-0.1289 -1.211481,-2.79904 -1.630155,-33.83875 -0.605468,-44.88281 0.755639,-8.14429 0.671458,-10.0592 -0.47461,-10.7168 -1.113077,-0.63867 -1.276883,-2.86403 -0.810547,-11 0.321533,-5.60965 1.003493,-11.5261 1.517578,-13.14844 1.314635,-4.14872 -1.655805,-16.27583 -4.183593,-17.07812 -1.004492,-0.31881 -3.871831,-2.85304 -6.371094,-5.63282 -4.877655,-5.42512 -7.019288,-5.77842 -8.132813,-1.34179 -0.438393,1.7467 -0.103182,3.1853 1.03711,4.44531 1.998385,2.20819 4.465385,11.8653 4.515625,17.67773 0.03085,3.56948 0.503696,4.43952 3.529297,6.5 1.921242,1.30839 3.4962,3.2099 3.5,4.22657 0.0059,1.59704 -0.448044,1.46101 -3.333985,-1 -3.976403,-3.3909 -7.217579,-9.16121 -8.61914,-15.34766 -0.560719,-2.475 -1.668757,-6.525 -2.462891,-9 l -1.443359,-4.5 -0.06836,6.625 c -0.03679,3.64335 0.588069,8.48085 1.388672,10.75 0.800603,2.26915 1.239845,4.125 0.976563,4.125 -0.939723,0 3.132443,5.56658 6.841797,9.35352 3.110132,3.17519 4.033225,3.63678 5.25,2.62695 C 45.713642,236.99269 46,237.04486 46,238.25195 c 0,0.82359 0.287407,3.0168 0.638672,4.87305 l 0.638672,3.375 -2.888672,-2.63672 c -3.438642,-3.13984 -6.350555,-4.15559 -8.341797,-2.90625 -1.228286,0.77065 -1.24953,1.29621 -0.132813,3.38281 0.72694,1.35833 1.052545,2.90569 0.722657,3.43946 -0.329887,0.53377 0.02874,2.93952 0.798828,5.3457 0.770089,2.40617 1.637341,9.325 1.925781,15.375 0.288439,6.05 1.445955,15.5 2.572266,21 2.488641,12.15253 2.476014,11.5 0.203125,11.5 -1.024373,0 -3.567152,1.35657 -5.652344,3.01367 -2.085192,1.65711 -3.982738,2.82196 -4.214844,2.58985 -0.232107,-0.2321 -0.621358,-9.57422 -0.865234,-20.76172 C 31.160422,274.65431 30.750907,263.025 30.494141,260 29.590416,249.3531 29.962777,245.85031 32.1875,244.04883 l 2.082031,-1.68555 -2.384765,-4.17383 C 30.573277,235.89367 28.9375,234.01181 28.25,234.00781 27.5625,234.00358 27,232.875 27,231.5 c 0,-1.375 -0.505702,-2.5 -1.123047,-2.5 -0.823914,0 -0.819285,-0.36353 0.01367,-1.36719 0.86313,-1.04001 0.771398,-1.66837 -0.378906,-2.62304 C 23.866843,223.64464 23.455808,221 24.888672,221 c 1.01709,0 2.032543,-15.78521 2.603516,-40.5 0.830618,-35.95384 0.691352,-46.27416 -1.09961,-81.5 -0.377503,-7.425 -0.737007,-15.57319 -0.798828,-18.107422 -0.06182,-2.534233 -0.701407,-5.317437 -1.421875,-6.185547 -0.970368,-1.169222 -1.033662,-2.095078 -0.244141,-3.570312 0.586194,-1.095314 0.799788,-2.685803 0.47461,-3.533203 -0.325179,-0.847401 0.189929,-3.589046 1.146484,-6.09375 1.465326,-3.836902 1.746329,-5.111756 0.46875,-5.16211 z m 186.960942,3.865235 c 1.11982,-0.0028 2.23408,0.132525 3.19531,0.408203 l 3.17578,0.910156 -5.5293,5.941406 c -5.40967,5.811865 -5.55513,5.891188 -6.73242,3.691406 -0.6618,-1.236598 -1.06579,-3.902062 -0.89648,-5.923828 0.26685,-3.186438 0.74137,-3.800491 3.55859,-4.603515 0.98407,-0.280502 2.10869,-0.421052 3.22852,-0.423828 z M 221.11914,65 C 221.92735,65 225,72.482879 225,74.451172 c 0,0.776418 -1.37112,2.388789 -3.04688,3.582031 C 217.92435,80.901944 211,81.924231 211,79.650391 c 0,-0.886939 1.10654,-1.889075 2.45898,-2.228516 2.61089,-0.65529 5.19905,-3.095881 4.26954,-4.025391 -0.30565,-0.305655 -1.70429,0.196533 -3.10938,1.117188 -1.4051,0.920654 -3.13276,1.456723 -3.83789,1.191406 -0.71462,-0.268892 0.29316,-1.164727 2.27539,-2.02539 2.15888,-0.937361 4.31019,-2.945506 5.47656,-5.111329 C 219.5899,66.606189 220.75394,65 221.11914,65 Z m -37.48828,6 c 3.1357,0 3.2934,0.147858 2.13672,2 -1.20095,1.923016 -5.66583,2.767767 -7.0918,1.341797 C 177.34965,73.01567 180.33833,71 183.63086,71 Z m 42.21094,6.861328 c 0.85852,-0.116563 1.1582,0.543818 1.1582,1.945313 0,1.610877 -2.36713,3.798511 -5.5,5.082031 -4.64827,1.904367 -7.28872,2.105862 -7.86523,0.603516 C 213.25116,84.492514 213.68813,84 214.95508,84 c 1.04061,0 3.90975,-1.54057 6.37695,-3.423828 2.2333,-1.704714 3.65125,-2.598281 4.50977,-2.714844 z m -44.08789,0.121094 c 0.30923,-0.02712 0.52848,0.0091 0.625,0.123047 0.18374,0.216904 0.61287,1.857031 0.95312,3.644531 0.63546,3.338357 0.31218,4.101107 -0.9043,2.132812 -0.43609,-0.705617 -2.30325,-0.897459 -5.06054,-0.519531 C 174.00698,83.823848 173,83.639992 173,82.564453 c 0,-1.118751 6.58929,-4.392188 8.75391,-4.582031 z M 207.57227,79 c 0.23558,0 0.42677,0.5625 0.42578,1.25 -9.8e-4,0.6875 -1.91348,2.4546 -4.25,3.925781 -4.58569,2.887367 -10.48702,4.829371 -9.41797,3.09961 C 194.9183,86.323633 206.63751,79 207.57227,79 Z m 107.32421,1 c -1.51282,0 -1.77148,0.947059 -1.77148,6.5 0,3.575 0.22713,6.5 0.50391,6.5 0.27678,0 1.37333,-0.465805 2.4375,-1.035156 2.09861,-1.123139 2.71683,-6.361859 0.88476,-7.494141 -0.7268,-0.448985 -0.72752,-1.034239 -0.008,-1.902344 C 318.18682,81.070986 317.33229,80 314.89648,80 Z m -86.77539,4.095703 C 228.69629,83.989199 229,84.243148 229,84.863281 c 0,0.4752 -1.6875,2.008206 -3.75,3.40625 -2.0625,1.398044 -5.2125,2.84634 -7,3.216797 -2.79296,0.578838 -3.25,0.396482 -3.25,-1.292969 0,-1.55432 0.91413,-2.103568 4.36523,-2.621093 2.40074,-0.360012 5.21324,-1.297088 6.25,-2.082032 1.08425,-0.820896 1.93067,-1.288026 2.50586,-1.394531 z m -18.67187,0.390625 c 1.00384,0.0015 1.55173,0.608987 1.51953,1.822266 -0.0174,0.655041 -2.15488,2.483855 -4.75,4.064453 C 200.71556,93.724855 194,95.076416 194,92.832031 c 0,-0.78693 1.6875,-2.016643 3.75,-2.734375 2.0625,-0.717732 5.41121,-2.426699 7.44141,-3.796875 1.79393,-1.210718 3.25396,-1.815913 4.25781,-1.814453 z m -33.72461,2.394531 c 4.91417,-0.154247 6.57724,0.09672 7.67383,1.152344 1.4143,1.361457 -1.85231,5.482192 -6.08203,7.671875 -4.57035,2.366023 -8.7766,3.500742 -9.66797,2.609375 -1.18069,-1.180687 -0.67368,-4.048642 0.95508,-5.400391 0.88229,-0.732241 1.99747,-2.362942 2.47656,-3.623046 0.68196,-1.793676 1.68932,-2.317397 4.64453,-2.410157 z m 35.80078,3.246094 c 0.95747,-0.23424 1.47461,0.09453 1.47461,1.005859 0,1.69779 -3.79459,4.65562 -7.35352,5.732422 C 200.54595,98.408464 195,98.953564 195,97.912109 195,96.763548 199.31827,95 202.13086,95 c 1.10089,0 3.47658,-1.125 5.2793,-2.5 1.75901,-1.341665 3.15776,-2.138807 4.11523,-2.373047 z m 18.39453,0.07031 c 1.00142,0.111134 1.08223,0.938449 0.89649,2.552734 -0.27007,2.34719 -0.93893,2.881165 -4.56641,3.642578 -2.3375,0.490645 -4.25,1.292133 -4.25,1.78125 0,1.742553 2.82289,1.928072 6.42773,0.421875 2.77021,-1.157469 3.74886,-1.233714 4.02735,-0.3125 0.2024,0.669529 0.85859,2.745667 1.45703,4.615237 C 235.27476,107.15548 235.29028,107 233.5,107 c -0.825,0 -1.5,0.46886 -1.5,1.04297 0,0.57411 0.7875,0.91161 1.75,0.75 1.12383,-0.1887 1.85369,0.4357 2.04102,1.74414 0.23253,1.62417 -0.68028,2.38676 -4.5,3.75586 -2.63544,0.94461 -5.57852,1.71589 -6.54102,1.71289 -3.14847,-0.009 -1.83703,-2.49695 2.25,-4.26758 2.2,-0.95311 4,-2.18273 4,-2.73437 0,-1.292 -0.95365,-1.26545 -5.00391,0.14648 -2.84775,0.99273 -3.48308,0.90449 -4.61718,-0.64648 C 219.71174,106.22392 220.45668,105 223.51172,105 226.47128,105 231,103.01435 231,101.7168 c 0,-0.57885 -0.49784,-0.55031 -1.25,0.0703 -0.6875,0.56731 -3.275,1.17519 -5.75,1.35156 -4.36575,0.3111 -4.50499,0.23259 -4.67578,-2.6582 -0.0968,-1.638836 -0.32182,-3.829941 -0.5,-4.869142 -0.25209,-1.470275 0.78504,-2.286359 4.67578,-3.673828 3.49648,-1.246871 5.4185,-1.851369 6.41992,-1.740234 z m -44.51562,4.65039 c 0.57834,-0.101454 1.08317,0.262448 1.9414,1.015625 1.77895,1.561188 1.76093,1.644122 -0.5,2.279297 -1.29002,0.36241 -3.23579,0.702993 -4.32422,0.757813 -1.81657,0.0915 -1.77555,-0.09627 0.5,-2.279297 1.15284,-1.105966 1.80447,-1.671983 2.38282,-1.773438 z m 28.67578,1.421875 C 214.75771,96.189098 215,96.632084 215,97.732422 c 0,1.385757 -1.08088,2.266484 -3.75,3.056638 -5.12573,1.51752 -11.80153,2.32739 -12.60156,1.52735 -0.36238,-0.36238 2.38045,-1.65052 6.0957,-2.861332 3.71524,-1.210809 7.54336,-2.531924 8.50586,-2.935547 0.32968,-0.13825 0.6042,-0.223185 0.83008,-0.25 z M 135.69336,98 h 3.1543 c 1.73416,0 3.14472,0.3375 3.13672,0.75 -0.008,0.4125 -0.37845,1.32219 -0.82227,2.02148 -0.62074,0.97804 -1.34382,0.80497 -3.13672,-0.75 z m -4.46875,1.269531 c 0.89127,-0.08057 1.76109,0.288434 2.56641,1.093749 1.74902,1.74901 1.18107,1.88559 -2.79102,0.67383 -2.2274,-0.67951 -2.30014,-0.84715 -0.67188,-1.53711 0.29975,-0.127006 0.5994,-0.203613 0.89649,-0.230469 z m 57.91016,0.548828 c 3.24557,0.01794 9.7675,1.990241 7.00781,2.119141 -0.74631,0.0349 -1.12344,0.6719 -0.83789,1.41602 0.6279,1.63629 -2.38792,4.36552 -6.91211,6.25586 -1.83104,0.76502 -3.45617,1.34686 -3.61133,1.29296 -0.15517,-0.0539 -1.33299,-0.67816 -2.61914,-1.38672 -2.68554,-1.47947 -2.40181,-1.72521 4.16601,-3.61132 4.63902,-1.33221 7.54587,-3.3643 6.42188,-4.48828 -0.29439,-0.2944 -3.15009,0.56842 -6.3457,1.91601 -5.37587,2.267 -8.4043,2.52344 -8.4043,0.71289 0,-1.32852 7.68478,-4.24563 11.13477,-4.226561 z m -21.17969,1.417971 c 1.41877,-0.028 4.22247,1.38609 5.57812,3.45508 0.89456,1.36527 1.45692,2.6505 1.25,2.85742 -0.52718,0.52719 -6.41293,-3.14285 -7.27343,-4.53516 -0.75763,-1.22587 -0.40596,-1.76051 0.44531,-1.77734 z m -7.04688,0.47851 c 0.17591,-0.0312 0.69792,0.29133 1.54102,0.84375 1.31079,0.85886 2.60695,2.14558 2.88086,2.85938 0.27392,0.7138 1.9689,1.59143 3.76758,1.95117 3.25762,0.65152 6.90234,3.17796 6.90234,4.78516 0,1.45843 -1.61813,0.92514 -3.5,-1.1543 -2.1298,-2.3534 -4.70027,-2.68626 -3.86133,-0.5 0.36449,0.94984 -0.0137,1.5 -1.03125,1.5 C 166.72357,112 166,111.50227 166,110.89453 c 0,-0.60773 -1.33482,-3.08382 -2.9668,-5.50195 -1.74947,-2.59222 -2.41818,-3.6258 -2.125,-3.67774 z m -3.0957,0.20313 c 0.42826,-0.12442 1.02946,0.82667 4.07422,5.33203 2.32215,3.4361 2.79784,4.75 1.7207,4.75 -0.81897,0 -1.7803,-0.47212 -2.13672,-1.04883 -0.44555,-0.72092 -1.03712,-0.72583 -1.89062,-0.0176 C 158.02363,112.22541 153,107.31354 153,104.5 c 0,-1.56422 0.61533,-1.29529 3.56055,1.55469 2.55909,2.47634 3.3606,2.88246 2.8457,1.44531 -0.39411,-1.1 -1.16012,-2.57264 -1.70313,-3.27344 -0.54299,-0.70079 -0.69908,-1.5646 -0.3457,-1.91797 0.18864,-0.18863 0.31233,-0.34915 0.45508,-0.39062 z M 315.58203,102 c -0.90634,0 -1.1311,9.39924 -0.93945,39.25 0.1386,21.5875 0.27579,39.38863 0.30469,39.55859 0.0289,0.16996 0.52451,0.0168 1.10156,-0.33984 0.57706,-0.35664 1.02153,-3.19527 0.98633,-6.30859 -0.0352,-3.11332 0.12019,-17.36016 0.3457,-31.66016 0.46576,-29.53561 -0.022,-40.5 -1.79883,-40.5 z m -100.16406,0.21094 c 1.2659,-0.10401 1.58203,0.41764 1.58203,1.51172 0,1.10751 -1.06629,2.44162 -2.45898,3.07617 -1.35285,0.6164 -4.68563,1.41669 -7.4043,1.77734 -4.42783,0.58737 -5.06525,0.42547 -6.125,-1.55469 -1.0606,-1.98175 -0.97902,-2.14639 0.79297,-1.58398 1.08712,0.34504 3.93834,-0.0983 6.33593,-0.98633 3.79565,-1.40591 6.01145,-2.13623 7.27735,-2.24023 z m -74.45508,2.87304 c 1.21167,-0.18242 2.03711,0.0865 2.03711,0.87305 0,0.52681 1.97719,2.1177 4.39258,3.5332 3.96438,2.32329 5.55455,4.67175 5.59375,8.25977 0.008,0.6875 -0.43633,1.25 -0.98633,1.25 -0.55,0 -1,-1.125 -1,-2.5 0,-1.375 -0.45522,-2.5 -1.01172,-2.5 -0.60146,0 -0.81046,1.72347 -0.51562,4.25 0.29644,2.5403 0.20051,3.32155 -0.23828,1.94141 -1.29455,-4.07161 -2.74929,-2.34511 -2.39258,2.83984 0.21557,3.13345 -0.0615,4.96875 -0.75,4.96875 -0.60052,0 -1.0918,-1.32387 -1.0918,-2.94141 0,-1.61754 -0.45,-3.21867 -1,-3.55859 -0.61081,-0.3775 -1,1.15671 -1,3.94141 0,2.50746 -0.45,4.55859 -1,4.55859 -0.55,0 -1,-1.35 -1,-3 0,-1.65 -0.42601,-3 -0.94727,-3 -0.52126,0 -1.08376,2.3625 -1.25,5.25 -0.20244,3.51611 -0.55043,4.64479 -1.05273,3.41797 -0.4125,-1.00748 -0.75,-2.69498 -0.75,-3.75 C 137,127.86296 136.58548,127 136.07812,127 c -1.19855,0 -3.40209,-6.66601 -2.62109,-7.92969 0.32951,-0.53315 -0.31429,-1.45773 -1.42969,-2.05469 C 130.83208,116.37594 130,114.91754 130,113.46484 130,111.52794 129.48473,111 127.59375,111 c -1.91018,0 -2.29989,-0.41024 -1.88672,-1.99023 0.50386,-1.92675 1.82916,-2.02449 6.90039,-0.51172 0.60888,0.18163 2.40888,-0.52919 4,-1.57813 1.54627,-1.01937 3.1438,-1.65351 4.35547,-1.83594 z m 10.19141,1.17383 c 0.61545,0.0879 1.30815,0.62758 1.61718,1.55469 0.21771,0.65313 -0.31666,1.1875 -1.1875,1.1875 C 150.71315,109 150,108.28685 150,107.41602 c 0,-0.88297 0.53885,-1.24613 1.1543,-1.15821 z m 45.11914,1.82031 c 0.97963,0.0166 1.80014,0.39391 2.52734,1.1211 1.74356,1.74356 1.5085,2.3381 -1.45312,3.6875 -1.94293,0.88526 -2.35596,1.50537 -1.54297,2.31836 0.81299,0.81299 1.51152,0.77832 2.60937,-0.13281 1.81569,-1.50689 3.58594,-0.60457 3.58594,1.82812 0,1.10337 -1.85997,2.79511 -4.88477,4.44141 -5.82468,3.17019 -6.72812,3.25152 -8.07421,0.73632 -0.84172,-1.57276 -0.53043,-2.30368 1.71484,-4.03124 l 2.74414,-2.11133 -4,0.28125 c -5.23782,0.36966 -5.16191,-1.22981 0.24219,-5.14453 2.26004,-1.63717 4.03884,-2.58942 5.49609,-2.89063 0.36431,-0.0753 0.70861,-0.10905 1.03516,-0.10352 z m 20.47656,0.9668 c 3.15705,-0.0619 2.8486,2.59676 -0.5,4.31055 -3.87979,1.98565 -11.21182,3.10003 -11.40039,1.73242 -0.0825,-0.59835 -0.195,-1.59992 -0.25,-2.22656 -0.10215,-1.16383 8.0896,-3.73671 12.15039,-3.81641 z m -69.50195,3.55078 c -0.77285,-0.0952 -2.0315,0.93634 -3.24414,2.89844 -2.56743,4.1542 -3.71902,4.38539 -5.00391,1.00586 -0.52277,-1.375 -1.44915,-2.5 -2.05859,-2.5 -1.24659,0 -1.17481,0.21804 1.58203,4.74414 1.08665,1.78402 2.07419,3.247 2.19336,3.25 0.67425,0.0197 7.2832,-7.21144 7.2832,-7.96875 0,-0.90996 -0.28824,-1.37255 -0.75195,-1.42969 z m 8.48633,0.81055 c 0.25972,0.0381 0.59246,0.17678 0.99218,0.42383 0.74261,0.45895 0.84329,1.24908 0.27539,2.16797 -0.75077,1.21476 -1.00308,1.1649 -1.57226,-0.31836 -0.60795,-1.58429 -0.47462,-2.38772 0.30469,-2.27344 z m 23.9746,0.25781 c 0.52061,0.1216 0.95664,0.70456 1.69922,1.83789 0.87507,1.33552 1.5918,2.67571 1.5918,2.97852 0,0.89253 7.38889,11.92876 8.7168,13.01953 0.66958,0.55 1.95517,2.78464 2.85547,4.9668 1.36133,3.29961 1.83313,3.72049 2.80859,2.5 1.29415,-1.61924 8.94395,-5.9668 10.49805,-5.9668 0.54028,0 1.12503,1.0125 1.30078,2.25 0.37589,2.64667 -2.42187,4.44602 -8.40235,5.40234 -4.47428,0.71546 -4.39867,-0.31943 -0.92968,12.84766 2.0229,7.67822 3.5918,26.14845 2.2832,26.88281 -0.34678,0.1946 -2.31836,0.6591 -4.38086,1.03125 -4.43995,0.80115 -4.75668,-0.22522 -1.24023,-4.01953 1.38046,-1.48954 2.29752,-2.9212 2.03711,-3.18164 -0.87102,-0.87102 -7.44811,5.2582 -8.11719,7.56445 -0.36323,1.25201 -1.50818,2.73032 -2.54492,3.28516 -1.61015,0.86173 -1.88477,0.64708 -1.88477,-1.46289 0,-1.35854 0.47628,-3.72233 1.05859,-5.25391 0.5823,-1.53158 1.25237,-5.04773 1.48829,-7.81445 0.23589,-2.76673 0.69047,-8.18125 1.01171,-12.03125 0.32123,-3.85 0.80747,-7.7875 1.08008,-8.75 0.2726,-0.9625 0.0512,-1.75 -0.49219,-1.75 -1.09809,0 -1.47753,1.66631 -3.18945,14 -1.6399,11.81481 -1.71158,11.97689 -3.95117,9.00781 -1.02826,-1.3632 -2.17546,-2.17024 -2.55078,-1.79492 -0.37532,0.37532 0.20914,1.81585 1.29883,3.20117 1.08969,1.38531 2.26526,2.23279 2.61328,1.88477 1.2584,-1.25841 0.53495,6.24661 -0.76758,7.96289 -1.18345,1.55935 -1.4794,1.58799 -2.58984,0.25 -0.68975,-0.8311 -1.9578,-1.51172 -2.81836,-1.51172 -1.12973,0 -0.76924,0.83165 1.29882,2.99023 3.21731,3.35815 2.70069,5.38337 -0.61718,2.41993 -2.12576,-1.89868 -2.13513,-1.89555 -1.41211,0.42578 0.66718,2.14207 0.55089,2.24107 -1.41406,1.18945 -1.2902,-0.69048 -1.96442,-1.81888 -1.69532,-2.83594 0.24579,-0.92901 1.21149,-5.06445 2.14649,-9.18945 0.935,-4.125 2.84179,-9.975 4.23828,-13 1.39649,-3.025 2.67224,-7.04816 2.83398,-8.93945 0.16173,-1.8913 1.43905,-5.7163 2.83985,-8.5 2.82393,-5.61177 3.63543,-9.64431 2.05273,-10.21289 -1.3357,-0.47985 -8.82719,15.26234 -8.12891,17.08203 0.70836,1.84594 -1.55768,9.14404 -4.37109,14.07226 -1.25561,2.19944 -2.63868,6.17083 -3.07422,8.82617 -0.43554,2.65535 -2.58186,8.52519 -4.76953,13.04493 -2.18768,4.51973 -4.26899,9.37842 -4.625,10.79687 -0.54349,2.16543 -1.38,2.67999 -5.21094,3.20508 -5.29127,0.72525 -6.38174,0.68561 -11.7832,-0.43164 -2.2,-0.45505 -5.62251,-0.85307 -7.60547,-0.88477 -2.98,-0.0476 -4.75792,-1.114 -10.25,-6.14648 -6.25392,-5.73059 -7.99514,-6.30355 -5.60937,-1.8457 1.52289,2.84554 -0.5178,2.37237 -2.44336,-0.56641 -0.90094,-1.375 -2.52792,-2.5 -3.61524,-2.5 -2.28446,0 -2.29477,-0.0352 -1.00195,-3.43555 0.92705,-2.43834 1.34516,-2.56445 8.46484,-2.56445 4.17947,0 9.53759,-0.69514 12.1211,-1.57227 2.54637,-0.86453 4.90278,-1.29644 5.23828,-0.96093 0.33551,0.3355 0.0191,2.05575 -0.70313,3.82226 -2.65324,6.48987 -0.91649,10.08788 1.9043,3.94532 1.39857,-3.04554 1.75358,-3.22554 5.25,-2.66211 5.09556,0.82114 4.90057,-1.18537 -0.25,-2.57227 -2.35067,-0.63297 -4,-1.68021 -4,-2.53906 0,-1.84353 -0.0741,-1.85026 5.5,0.53906 5.13946,2.20303 6.5,2.43851 6.5,1.125 0,-0.48125 -1.2375,-1.14705 -2.75,-1.47852 -1.5125,-0.33146 -3.83405,-1.45553 -5.1582,-2.49804 -2.34886,-1.84926 -2.36809,-1.98915 -0.83399,-5.77149 1.23066,-3.03424 2.05065,-3.82006 3.77539,-3.61718 2.8051,0.32997 8.88239,-4.66298 16.32032,-13.40625 3.19885,-3.76024 1.35147,-4.91713 -1.94922,-1.22071 C 163.06346,157.7543 153.40021,165 152.24414,165 c -0.46306,0 -0.65204,-1.62695 -0.41992,-3.61523 0.23367,-2.00155 -0.0673,-3.91618 -0.67383,-4.29102 -1.10243,-0.68134 -0.48996,-5.96084 1.6582,-14.28125 1.28583,-4.98038 5.11101,-12.73025 7.79883,-15.80078 1.20931,-1.38149 3.74287,-4.53672 5.62891,-7.01172 2.80899,-3.68617 3.92841,-4.44527 6.1914,-4.19727 1.51943,0.16651 3.80352,-0.37901 5.07618,-1.21289 1.07999,-0.70763 1.68447,-1.04737 2.20507,-0.92578 z m 40.06055,1.46094 c 1.08045,0.0123 1.23047,0.58119 1.23047,1.7168 0,1.27162 -1.19591,2.20026 -3.86523,3 -5.12435,1.53531 -10.13482,1.48986 -10.13282,-0.0918 7.6e-4,-0.6875 2.6816,-2.0375 5.95703,-3 3.72013,-1.09319 5.73011,-1.63732 6.81055,-1.625 z m 16.97266,0.20703 c 0.42096,0.0222 0.7653,0.12873 1.05664,0.3125 2.39299,1.50946 2.61599,3.35547 0.40625,3.35547 -1.07867,0 -3.57627,0.675 -5.55078,1.5 -3.89695,1.62825 -7.26239,1.94079 -8.00196,0.74414 -0.25665,-0.41528 2.2385,-2.06869 5.54688,-3.67578 3.32148,-1.61345 5.28008,-2.30292 6.54297,-2.23633 z m -74.33985,3.75977 c 0.33887,0.32577 -0.66909,1.93798 -2.24023,3.58203 -3.07643,3.21918 -7.15539,11.37462 -8.91406,17.82617 C 148.4107,150.90867 148,153.04356 148,157.36523 148,159.91392 147.53559,162 146.9668,162 c -0.67947,0 -0.8432,-3.32218 -0.47657,-9.6875 0.76133,-13.21779 3.40676,-20.57455 10.06836,-27.99219 2.87481,-3.20108 5.50488,-5.55427 5.84375,-5.22851 z m 40.84766,2.10156 c 0.4125,-0.19813 0.75,0.56556 0.75,1.69726 0,1.26717 -1.13425,2.64443 -2.95117,3.58399 -3.1242,1.61559 -9.04883,2.0823 -9.04883,0.71289 0,-0.44694 2.3625,-1.89689 5.25,-3.22266 2.8875,-1.32578 5.5875,-2.57336 6,-2.77148 z m 16.38672,0.63672 c 1.08264,-0.10218 1.75879,1e-5 1.95312,0.31445 0.7085,1.14637 0.81058,1.05425 -3.08984,2.77149 -6.05578,2.66618 -8.56691,3.07301 -9.17578,1.48632 -0.72203,-1.88158 -0.89761,-1.77339 5.91406,-3.6582 1.82525,-0.50505 3.3158,-0.81188 4.39844,-0.91406 z m 17.64844,0.86914 c 1.07829,-0.0576 1.63325,0.1484 1.92382,0.60547 1.06473,1.67479 0.97818,3.92985 -0.125,3.24804 -0.50385,-0.31139 -1.96635,-0.17617 -3.25,0.30079 -1.28366,0.47695 -4.02148,1.17583 -6.08398,1.55273 -3.27043,0.59764 -3.75,0.43814 -3.75,-1.23828 0,-1.52253 1.29407,-2.24823 6.22461,-3.49024 2.38092,-0.59975 3.98225,-0.92092 5.06055,-0.97851 z m -149.625004,3.6289 c 0.407813,-0.0428 0.971094,0.0245 1.589844,0.20899 3.713153,1.10726 16.75,7.87775 16.75,8.69922 0,1.78325 -8.580296,-0.49267 -11.876953,-3.15039 C 92.680505,130.92298 90.4875,129.45665 89.25,128.82617 88.0125,128.19569 87,127.27026 87,126.77148 c 0,-0.24939 0.252344,-0.40058 0.660156,-0.44336 z m 133.349614,0.89844 c 1.48649,-0.10683 1.90266,0.33125 2.24609,1.64453 0.42414,1.62192 -0.11355,2.23915 -2.61133,2.9961 -7.47557,2.26547 -8.64453,2.29127 -8.64453,0.1875 0,-2.28946 2.04904,-3.59779 7.12891,-4.55078 0.77009,-0.14447 1.38536,-0.24174 1.88086,-0.27735 z m -15.09961,0.70313 c 0.34691,0.041 0.62425,0.14659 0.83984,0.31836 2.00243,1.59541 1.47376,2.45187 -2,3.23633 -9.73207,2.19763 -11.52458,1.25209 -4,-2.10938 2.45769,-1.09792 4.11942,-1.56833 5.16016,-1.44531 z m -71.21289,0.22265 c 0.27787,0.0776 0.63542,0.55247 0.90234,1.24805 0.35589,0.92744 0.42344,1.91055 0.14844,2.18555 -0.275,0.275 -0.79255,-0.25811 -1.14844,-1.18555 -0.35589,-0.92744 -0.42149,-1.9125 -0.14649,-2.1875 0.0687,-0.0687 0.15152,-0.0864 0.24415,-0.0605 z m 28.48828,0.15821 c -1.44954,0.61752 -5.21011,5.36382 -6.2461,8.13672 -0.62737,1.67921 -1.51587,3.95273 -1.97265,5.05273 -0.45678,1.1 -1.12156,4.19413 -1.47852,6.87695 -0.35695,2.68282 -0.92362,5.59474 -1.25976,6.47071 -0.76317,1.9888 9.28826,-6.53012 11.32421,-9.59766 0.82134,-1.2375 2.15839,-2.25 2.97071,-2.25 0.81232,0 1.47656,-0.675 1.47656,-1.5 0,-2.36828 -1.21095,-1.79666 -5.44922,2.57227 -2.1716,2.23855 -4.8008,4.52581 -5.84375,5.08398 -1.58946,0.85065 -1.80986,0.71849 -1.36133,-0.82031 0.29431,-1.00971 1.05956,-3.86094 1.69922,-6.33594 0.63966,-2.475 1.51403,-4.725 1.94336,-5 1.19231,-0.76371 5.17104,-8.17466 4.66211,-8.68359 -0.0981,-0.0981 -0.25777,-0.0937 -0.46484,-0.006 z m 74.56445,0.71289 c 4.92304,-0.0361 3.89409,1.44225 -2,2.87304 -2.8875,0.70094 -5.99981,1.48006 -6.91602,1.73047 -1.6407,0.44841 -3.52919,-1.26573 -2.51367,-2.28125 0.85671,-0.85671 7.94388,-2.29666 11.42969,-2.32226 z m -88.24609,0.16211 c 0.1643,0.17264 -2.24324,3.54549 -5.35157,7.49414 -7.07585,8.98877 -8.86641,9.76786 -5.52539,2.40625 1.37956,-3.03971 9.96717,-10.85637 10.87696,-9.90039 z m 91.75781,3.75 c 1.81325,0.0574 0.49475,1.8591 -4.69922,4.40234 -2.99038,1.46424 -6.11425,2.66211 -6.94141,2.66211 -2.28818,0 -2.9907,-1.93813 -0.93359,-2.57422 0.99736,-0.3084 3.73763,-1.43142 6.08984,-2.49414 3.18199,-1.4376 5.39643,-2.03055 6.48438,-1.99609 z m -18.59961,0.85156 c 0.82413,-0.0545 1.30023,0.13657 1.57227,0.5625 1.57531,2.4666 0.56943,3.63081 -4.41602,5.11133 -2.84983,0.84631 -5.27625,1.53906 -5.39258,1.53906 -0.11633,0 -0.49969,-0.751 -0.85156,-1.66797 -0.82493,-2.14971 -0.0429,-2.81791 5.42578,-4.63672 1.66615,-0.55414 2.83798,-0.85368 3.66211,-0.9082 z m 81.63281,0.22851 c -0.8626,-0.011 -1.08248,1.89868 -0.7793,6.73438 1.31581,20.98464 1.68974,35.53574 2.07618,80.75 0.23503,27.5 0.76688,61.7 1.18164,76 0.4963,17.11133 0.39199,28.27342 -0.30469,32.65039 -0.61698,3.87625 -0.75936,10.13366 -0.33984,15 0.57025,6.61477 0.42223,8.67941 -0.71485,9.93945 -1.22541,1.35792 -5.85573,1.68739 -31.67383,2.2461 -16.63167,0.35991 -33.61523,0.87033 -37.74023,1.13476 -4.125,0.26443 -11.325,0.74018 -16,1.0586 -6.60584,0.44992 -9.3696,0.21529 -12.40234,-1.05274 -3.04034,-1.27121 -5.69112,-1.49382 -12,-1.00781 -4.45371,0.34309 -24.29766,0.79757 -44.09766,1.00977 -23.69004,0.25389 -37.88069,0.81182 -41.5,1.6289 -3.77438,0.85209 -16.543974,1.26441 -40.699219,1.31641 -28.410828,0.0612 -35.449771,0.34063 -36.5,1.44531 -1.100645,1.15771 6.635433,1.26305 50.199219,0.68945 28.325,-0.37296 53.3,-0.83426 55.5,-1.02539 3.51575,-0.30545 102.91792,-1.51055 156.25,-1.89453 10.58744,-0.0762 19.24994,-0.47617 19.25,-0.88867 6e-5,-0.4125 -0.89256,-0.75 -1.98242,-0.75 -1.8125,0 -1.96308,-0.61868 -1.77149,-7.25 0.1152,-3.9875 -0.12577,-35.825 -0.53515,-70.75 -0.40939,-34.925 -0.95367,-81.91872 -1.20899,-104.42969 -0.47411,-41.80017 -0.54417,-42.50804 -4.20703,-42.55469 z m -63.21289,4.45508 c 0.44152,-0.0705 0.76271,-0.0657 0.91992,0.0312 1.42531,0.88089 1.23515,2.63533 -0.25195,2.32227 -0.6875,-0.14474 -2.39898,0.50381 -3.80273,1.4414 -3.11131,2.07822 -8.94727,3.38042 -8.94727,1.9961 0,-1.16763 8.99139,-5.29767 12.08203,-5.79102 z M 144.18945,140 c 0.1784,0 0.16554,2.1375 -0.0293,4.75 -0.19478,2.6125 -0.64865,5.05457 -1.00782,5.42578 C 142.57532,150.77216 137,148.44455 137,147.60742 137,147.16914 143.77525,140 144.18945,140 Z m -49.923825,0.40039 c 0.306227,-0.30623 1.83536,0.13445 3.396484,0.98047 3.141181,1.7023 2.184809,2.03178 -1.55664,0.53516 -1.317351,-0.52695 -2.146071,-1.2094 -1.839844,-1.51563 z m 115.666015,0.42578 c 0.67221,-0.0285 0.93908,0.33292 1.24805,1.06445 1.1088,2.62531 0.9323,3.11822 -1.42969,3.98829 -1.2375,0.45586 -3.4875,1.12812 -5,1.49414 -2.32542,0.56273 -2.75,0.34746 -2.75,-1.39453 0,-1.4717 1.21381,-2.57989 4.25,-3.87891 1.93188,-0.82655 3.00943,-1.24494 3.68164,-1.27344 z m 14.0293,0.87891 c 2.99487,-0.42084 2.20411,3.22327 -1.14258,5.26367 -3.48461,2.1245 -6.81836,2.66931 -6.81836,1.11328 0,-0.50502 -0.23029,-1.51856 -0.51172,-2.25195 -0.47035,-1.22571 4.27167,-3.53468 8.47266,-4.125 z M 242,143.58789 c 1.51193,-0.21166 2,0.99473 2,3.79297 0,2.85293 -0.54857,3.53821 -4.35938,5.44141 -4.4944,2.24462 -9.64062,2.90016 -9.64062,1.22851 0,-0.52154 2.7,-1.70492 6,-2.63086 3.3,-0.92593 6,-2.07325 6,-2.55078 0,-1.34108 -3.3676,-1.03146 -7.48633,0.68945 -2.05162,0.85722 -3.95202,1.33704 -4.22265,1.06641 -0.82807,-0.82807 0.73761,-2.625 2.2871,-2.625 0.80351,0 3.26899,-1.14034 5.47852,-2.53516 1.75995,-1.111 3.0362,-1.74995 3.94336,-1.87695 z M 97.441406,146 C 98.298865,146 99,146.45 99,147 c 0,0.55 -0.423865,1 -0.941406,1 -0.517541,0 -1.218675,-0.45 -1.558594,-1 -0.339919,-0.55 0.08395,-1 0.941406,-1 z m 128.859374,2.14453 c 0.65306,-0.0174 0.69922,0.56839 0.69922,1.74219 0,1.16203 -1.3049,2.50562 -3.40039,3.5 -4.21999,2.00251 -5.59961,2.03413 -5.59961,0.13281 0,-0.81382 1.78285,-2.38882 3.96094,-3.5 2.42759,-1.23846 3.68678,-1.8576 4.33984,-1.875 z m -15.42773,1.00586 C 212.53361,149.02492 213,149.34266 213,150.25 c 0,2.18889 -7.9213,4.11894 -8.68945,2.11719 -0.74777,-1.94867 -0.41706,-2.1667 4.47656,-2.94922 0.84589,-0.13526 1.53241,-0.22576 2.08594,-0.26758 z M 244.51953,153 c 0.26459,0 0.48047,0.92157 0.48047,2.04688 0,1.49115 -1.42374,2.70885 -5.25,4.49023 -10.36797,4.82698 -12.45428,1.71932 -2.23047,-3.32227 3.58542,-1.76805 6.73542,-3.21484 7,-3.21484 z m -32.1875,1.45117 c 1.32672,-0.0558 1.80513,0.40696 2.21094,1.68555 0.36039,1.13547 0.27377,2.41874 -0.19336,2.85156 -2.28137,2.11377 -5.21301,2.04647 -6.75586,-0.15625 -1.83035,-2.61319 -1.28614,-3.34563 3.09961,-4.16406 0.6594,-0.12305 1.19643,-0.1982 1.63867,-0.2168 z m -87.30664,0.53516 c 1.91451,0.27496 4.31801,1.95024 8.74414,5.24609 6.62992,4.93688 9.04719,6.48953 11.48047,7.36914 2.16473,0.78254 2.24426,0.26186 -0.89844,5.88477 -1.76036,3.14962 -3.76286,5.20527 -5.96875,6.12695 -4.15771,1.7372 -4.60985,1.73023 -6.41406,-0.10937 -0.80751,-0.82335 -4.95625,-4.78025 -9.21875,-8.79102 -4.2625,-4.01078 -7.75,-7.5958 -7.75,-7.9668 0,-0.37101 1.89552,-2.44188 4.21289,-4.60351 2.47136,-2.30525 3.89799,-3.43121 5.8125,-3.15625 z m 101.35547,0.77539 c 0.56232,-3.8e-4 0.70704,0.46258 0.94922,1.38867 0.35094,1.34199 -0.3364,2.31797 -2.36914,3.36914 -1.57408,0.81399 -3.5598,1.48047 -4.41211,1.48047 -2.9709,0 -1.51984,-2.96675 2.36914,-4.8457 1.92016,-0.92757 2.90057,-1.3922 3.46289,-1.39258 z M 204.36914,159 c 0.77928,0 4.68276,7.69013 5.69531,11.2207 0.70139,2.4456 0.52942,2.7793 -1.43359,2.7793 C 206.4152,173 204,171.33206 204,169.80078 c 0,-0.44 0.73071,-0.80078 1.62305,-0.80078 1.18221,0 1.34251,-0.33918 0.58984,-1.25 -1.18918,-1.43905 -2.72974,-8.75 -1.84375,-8.75 z m 39.26367,1.75586 c 1.97982,-0.19271 2.33506,1.45871 2.35157,5.48047 0.0135,3.30066 -0.37682,3.89982 -3.3418,5.13867 -5.68604,2.37578 -9.9487,3.04513 -9.4336,1.48047 0.38169,-1.15941 6.13801,-5.00134 9.29102,-6.20117 0.55,-0.2093 0.67602,-0.73005 0.2793,-1.15625 -0.39673,-0.42619 -2.77276,-0.19984 -5.2793,0.50195 -6.76754,1.89479 -6.52812,0.54699 0.53711,-3.01953 2.63437,-1.32983 4.40781,-2.10899 5.5957,-2.22461 z m -29.81054,0.56836 c 0.93314,-0.0719 1.48153,0.30542 1.82226,1.19336 0.39873,1.03907 -0.25395,2.54378 -1.75391,4.03906 l -2.39062,2.38281 -1.25,-2.66992 c -1.35784,-2.89944 -0.94065,-3.68516 2.50586,-4.72656 0.40305,-0.12179 0.75536,-0.19479 1.06641,-0.21875 z M 226.5,162.58984 c 0.86683,-0.0332 1.58884,0.11473 1.97461,0.50977 0.70623,0.72319 0.0917,1.80362 -1.97461,3.4707 -4.13505,3.33615 -6.5,3.12949 -6.5,-0.56836 0,-1.58139 3.89951,-3.31237 6.5,-3.41211 z M 131,164 c -2.2,0 -4,0.40345 -4,0.89648 0,0.49302 1.55599,2.26252 3.45703,3.93164 1.90103,1.66913 2.94529,3.20378 2.32031,3.41211 -0.65431,0.2181 -0.8438,1.14515 -0.44531,2.1836 0.49428,1.28809 1.3314,1.6315 2.92969,1.20312 1.23082,-0.32989 3.05191,-0.60528 4.04687,-0.61328 0.99496,-0.008 1.53133,-0.46367 1.19141,-1.01367 -0.33992,-0.55 -1.49105,-1 -2.55859,-1 C 136.87387,173 136,172.52387 136,171.94141 c 0,-0.58246 0.49283,-0.75541 1.0957,-0.38282 0.68065,0.42068 0.96027,-0.0292 0.73828,-1.18945 -0.23649,-1.23604 -1.53783,-2.08081 -3.8457,-2.49609 -3.13297,-0.56374 -3.25889,-0.70363 -1.23828,-1.36719 C 136.30835,165.33732 135.37449,164 131,164 Z m -19.01172,1.80273 c 1.07426,-0.0634 2.61482,1.32718 6.51172,5.41016 3.3,3.45758 6.9,6.82337 8,7.47852 1.7745,1.05689 1.53896,1.1978 -2.08398,1.25 -2.24584,0.0324 -4.31525,-0.17463 -4.59961,-0.45899 -0.28436,-0.28437 -4.07121,-0.62541 -8.41602,-0.75781 -7.07906,-0.21572 -8.20184,-0.52589 -10.80664,-2.99219 -1.598702,-1.5137 -2.723705,-2.9212 -2.5,-3.12695 0.223705,-0.20574 2.88125,-1.39767 5.90625,-2.64844 3.025,-1.25078 6.175,-2.89425 7,-3.65234 0.32474,-0.29841 0.63019,-0.48083 0.98828,-0.50196 z M 216.99805,169 c 1.66128,0 1.70833,3.95585 0.0644,5.44336 -1.99803,1.8082 -2.71574,1.92562 -3.54492,0.58398 C 212.86735,173.97492 215.73991,169 216.99805,169 Z m 11.05664,0.16992 c 0.28835,0.003 0.51258,0.0653 0.64648,0.19922 0.39996,0.39995 0.24813,1.49357 -0.33789,2.42969 -1.22699,1.96002 -5.86223,2.82094 -6.82226,1.26758 -0.66591,-1.07746 4.49517,-3.92015 6.51367,-3.89649 z m -72.88086,1.85352 c -0.95572,-0.12432 -1.01734,1.21431 0.54687,4.10937 3.89151,7.20246 5.21673,14.96838 3.0293,17.75196 -1.11894,1.42386 -0.98623,1.41995 1.25,-0.0332 2.20444,-1.43254 2.50005,-2.32599 2.49805,-7.56445 -0.002,-4.68938 -0.52872,-6.71086 -2.5,-9.59766 -2.01715,-2.95397 -3.86851,-4.5417 -4.82422,-4.66601 z m 91.40039,1.51172 c 0.46583,0.0906 0.42578,0.59202 0.42578,1.3789 0,1.15506 -1.21022,2.54365 -2.99023,3.43164 -4.43502,2.21248 -8.70896,2.9517 -9.51563,1.64649 -0.80052,-1.29528 -0.92186,-1.17684 3.00586,-2.91407 6.116,-2.70509 8.29783,-3.69392 9.07422,-3.54296 z M 205.92969,174 c 1.32427,0 7.97664,4.35068 8.02734,5.25 0.0598,1.05938 -0.92786,0.79965 -5.20703,-1.36719 C 205.28595,176.12872 203.73919,174 205.92969,174 Z m -113.714846,0.53125 c 1.317928,0.0214 2.986595,1.11734 7.292968,3.99609 3.845248,2.57049 7.131138,5.04446 7.300778,5.49805 0.16964,0.4536 -0.62621,2.6593 -1.76953,4.90039 -1.14332,2.24108 -2.34669,4.07422 -2.67383,4.07422 -0.32715,0 -2.03754,-1.575 -3.800777,-3.5 C 94.754604,185.34061 94,185.1754 94,188.5 c 0,2.24411 -0.402841,2.5 -3.943359,2.5 -5.277863,0 -9.423347,-3.49752 -9.640625,-8.13281 -0.08683,-1.85244 -0.328802,-4.02029 -0.53711,-4.81836 -0.289533,-1.10923 0.497757,-1.38608 3.341797,-1.17578 2.125582,0.15716 4.914725,-0.43004 6.507813,-1.3711 1.030496,-0.60873 1.695571,-0.98351 2.486328,-0.9707 z m 138.748046,0.10547 c 0.65786,-0.0268 0.89991,0.36622 1.2168,1.16016 1.08386,2.71548 0.93371,3.20312 -0.98828,3.20312 -0.99488,0 -2.68238,0.66124 -3.75,1.46875 -2.20312,1.66635 -2.83057,1.81005 -3.77539,0.86523 -1.64129,-1.64128 -0.34058,-3.57766 3.58398,-5.33593 1.98138,-0.88769 3.05503,-1.33449 3.71289,-1.36133 z M 179.83008,175 c -1.37877,0 -0.93627,2.22594 0.83008,4.17773 0.91329,1.00918 1.88876,1.60538 2.16796,1.32618 C 183.50938,179.82266 180.88233,175 179.83008,175 Z m 39.29297,3 c 0.48266,0 0.87695,0.675 0.87695,1.5 0,0.86218 -0.9031,1.5 -2.12305,1.5 -1.77324,0 -1.91702,-0.2468 -0.87695,-1.5 0.68469,-0.825 1.6404,-1.5 2.12305,-1.5 z m 26.54883,1.82812 c 1.09325,-0.0343 1.78068,0.0946 1.96484,0.39258 0.85117,1.37722 -0.50211,2.30343 -6.06445,4.14649 -6.35311,2.10506 -6.7748,2.06691 -6.39258,-0.58008 0.26368,-1.8261 1.32927,-2.41409 6.09375,-3.36523 1.80562,-0.36047 3.30514,-0.5594 4.39844,-0.59376 z m -36.86133,0.81055 c 1.29303,-0.26948 4.40575,0.76336 4.89453,2.03711 0.29777,0.77596 0.35862,1.5945 0.13476,1.81836 -0.6458,0.6458 -5.14352,-1.87706 -5.55078,-3.11328 -0.1379,-0.4186 0.0905,-0.65236 0.52149,-0.74219 z m 23.70507,0.59766 c 0.11466,0.14472 0.46225,2.85117 0.77344,6.01367 0.39969,4.06185 0.22064,5.75367 -0.61133,5.76367 -0.64776,0.008 -2.08913,0.25926 -3.20312,0.5586 -3.92355,1.05429 -4.79002,-2.12165 -0.97461,-3.57227 1.375,-0.52277 2.5,-1.411 2.5,-1.97461 0,-1.31075 -1.60551,-1.30818 -4.06641,0.01 -1.67466,0.89625 -1.93359,0.69699 -1.93359,-1.48633 0,-1.95698 0.81901,-2.86417 3.6543,-4.04883 2.00945,-0.8396 3.7467,-1.40839 3.86132,-1.26367 z m 82.21094,1.96484 c -0.42583,0.0993 -0.72656,0.56172 -0.72656,1.21485 0,0.87083 0.71315,1.58398 1.58398,1.58398 1.76593,0 1.45774,-2.15341 -0.39648,-2.77148 -0.16328,-0.0544 -0.31899,-0.06 -0.46094,-0.0274 z m -94.02344,0.22266 c 0.74202,0.14745 1.29688,0.70507 1.29688,1.59961 0,0.49819 -0.87283,1.37252 -1.93945,1.94336 -2.56396,1.37219 -3.86471,-0.59231 -1.77539,-2.68164 0.74624,-0.74625 1.67595,-1.00879 2.41796,-0.86133 z m -15.75781,0.51758 c 1.36638,-0.34199 3.39972,2.20877 5.9375,7.4707 2.86227,5.93474 3.47462,6.58789 6.16211,6.58789 1.64075,0 3.89068,-0.5625 5,-1.25 1.64672,-1.02055 2.17716,-0.99149 2.89258,0.1582 0.74485,1.19699 1.40078,1.1595 4.37109,-0.25 1.92189,-0.912 3.93631,-1.6582 4.47657,-1.6582 1.16587,0 2.17375,4.45984 1.31445,5.81641 -0.60827,0.96028 -15.14648,1.35939 -18.34961,0.5039 -0.9625,-0.25707 -1.75,-0.88486 -1.75,-1.39453 0,-0.50968 -1.2375,-0.93344 -2.75,-0.9414 -1.5125,-0.008 -3.27103,-0.34654 -3.9082,-0.75196 -1.27866,-0.81362 -4.75964,-13.14857 -3.94141,-13.9668 0.16745,-0.16745 0.34973,-0.27536 0.54492,-0.32421 z M 111.51953,184 c 2.98486,0 3.3053,2.78012 0.9668,8.37695 -0.83238,1.99216 -1.61988,3.6085 -1.75,3.5918 -2.21604,-0.28484 -3.6667,-2.46108 -3.17969,-4.77148 0.31268,-1.48339 0.77442,-3.70977 1.02539,-4.94727 0.32572,-1.60611 1.16654,-2.25 2.9375,-2.25 z m 87.62695,0.10156 c 1.20514,-0.14134 1.89959,0.16489 2.34571,0.88672 0.55229,0.89363 3.50781,11.4763 3.50781,12.56055 0,0.8669 -2.57812,0.25088 -13.25,-3.16797 -5.9125,-1.89413 -10.75,-3.87959 -10.75,-4.41211 0,-0.53253 0.1125,-0.98506 0.25,-1.00586 0.1375,-0.0208 2.00758,-0.2928 4.15625,-0.60351 2.14867,-0.31076 5.89955,-1.41939 8.33398,-2.4629 2.48633,-1.06576 4.20111,-1.65357 5.40625,-1.79492 z m 47.12891,2.00391 c 1.15791,-0.0546 1.72301,0.447 2.12109,1.48437 0.89448,2.33099 0.0628,3.10556 -4.13476,3.84961 -2.06858,0.36668 -4.49521,0.88246 -5.39258,1.14453 -0.90537,0.2644 -1.90162,-0.22346 -2.23633,-1.0957 -0.4438,-1.15652 0.60415,-2.09069 3.96485,-3.53125 2.7684,-1.18667 4.51982,-1.79696 5.67773,-1.85156 z M 316.05859,187 c -1.35037,0 -2.28637,1.82225 -1.54882,3.01562 0.34546,0.55897 1.04659,0.75785 1.55859,0.44141 1.21459,-0.75067 1.20795,-3.45703 -0.01,-3.45703 z m -102.03515,1 c 0.57192,0 1.30518,0.69425 1.63086,1.54297 0.90001,2.34537 -0.0714,2.62148 -1.45118,0.41211 C 213.43057,188.71801 213.36528,188 214.02344,188 Z m -42.4961,0.0742 c 0.88415,0.19013 2.00924,0.86121 2.97266,1.92578 0.99549,1.1 2.60688,2 3.58008,2 0.9732,0 5.13679,1.34948 9.2539,2.99805 6.30199,2.52344 13.35797,4.46519 27.41602,7.54687 1.2375,0.27127 2.25,0.93509 2.25,1.47461 0,1.16832 0.62732,1.23445 -10.19727,-1.07226 C 192.25441,199.84712 170,191.43332 170,189.0332 c 0,-0.85738 0.6432,-1.14911 1.52734,-0.95898 z m 50.77539,1.16797 c 0.20065,0.0261 0.37117,0.0977 0.49805,0.22461 0.34594,0.34594 0.14613,1.39591 -0.44336,2.33203 -1.41351,2.24465 -4.35742,2.79225 -4.35742,0.81055 0,-1.46943 2.89823,-3.55004 4.30273,-3.36719 z m -107.54882,2.90234 c 0.8681,-0.22769 2.5346,0.70793 5.24609,2.85547 2.08329,1.65 4.39868,3.0072 5.14453,3.01562 0.74586,0.008 2.03047,0.45122 2.85547,0.98438 1.56362,1.01049 -0.88558,1.08697 -9.5,0.29688 -5.80582,-0.53255 -7.09155,-1.10572 -5.66797,-2.5293 0.64197,-0.64197 1.16797,-1.9768 1.16797,-2.9668 0,-0.96315 0.23304,-1.51963 0.75391,-1.65625 z m 54.35156,0.37109 c 0.56329,0.0446 1.33768,0.35538 2.47265,0.94727 1.60732,0.83818 3.39109,1.52825 3.96485,1.53125 0.57377,0.003 1.47377,1.43809 2,3.18945 1.20918,4.02422 4.06348,5.36544 3.08008,1.44727 -0.76861,-3.06238 -0.5169,-3.14431 3.42578,-1.10547 1.6223,0.83892 6.88828,2.57199 11.70117,3.85156 8.63177,2.29487 8.74546,2.36581 8.39844,5.22461 -0.1935,1.59401 -0.756,3.65569 -1.25,4.58203 -0.49401,0.92634 -0.88469,3.17634 -0.86719,5 0.0287,2.98759 0.16419,3.14191 1.37305,1.54883 0.73791,-0.97243 1.87225,-4.45993 2.51953,-7.75 C 206.57111,207.69243 207.491,205 207.96875,205 c 2.69101,0 6.94633,3.7322 7.47656,6.55859 0.73801,3.93392 -1.10183,17.375 -3,21.91797 -0.79513,1.90301 -1.44531,4.283 -1.44531,5.29102 0,1.00801 -0.5625,3.04503 -1.25,4.52539 -0.6875,1.48036 -1.475,2.63084 -1.75,2.55664 -3.23716,-0.87342 -13.00362,-4.51417 -13.5293,-5.04297 -0.37858,-0.38084 0.16944,-1.95584 1.21875,-3.5 2.27072,-3.34157 4.32007,-7.9284 4.28907,-9.60352 -0.026,-1.40441 -3.92054,3.31205 -3.96094,4.79688 -0.015,0.55 -1.07618,2.31089 -2.35742,3.91211 C 191.3554,239.29252 189,239.325 189,236.47656 c 0,-0.77319 -0.9,-1.88786 -2,-2.47656 -1.1,-0.5887 -2,-1.72951 -2,-2.53516 0,-0.8056 -0.50012,-1.46484 -1.11133,-1.46484 -0.73626,0 -0.88137,1.22715 -0.42969,3.63477 0.60744,3.23796 0.48338,3.55739 -1.13867,2.93359 -1.00125,-0.38506 -4.63281,-1.60935 -8.07031,-2.7207 -4.61414,-1.49176 -6.25,-2.49461 -6.25,-3.82813 0,-0.99346 0.61062,-2.0396 1.35742,-2.32617 0.7468,-0.28658 1.62498,-1.85535 1.95117,-3.48633 0.3262,-1.63097 1.29057,-3.66361 2.14258,-4.51562 0.85201,-0.852 1.54883,-1.81455 1.54883,-2.14063 0,-2.00011 5.81156,-8.77358 9.5625,-11.14453 5.8199,-3.67873 5.65086,-4.85533 -0.35938,-2.48633 l -4.79882,1.89063 -1.39453,-3.1543 c -2.17751,-4.92366 -5.49703,-8.02319 -7.91602,-7.39063 -2.3769,0.62158 -3.32145,-0.27799 -2.19922,-2.09374 0.29582,-0.47865 0.64765,-0.70084 1.21094,-0.65626 z M 247.75977,193 c 0.68172,0 1.24023,0.65725 1.24023,1.46094 0,0.89569 -2.0056,2.05682 -5.18164,3 -6.21949,1.84699 -5.81945,1.82744 -5.81445,0.28906 0.004,-1.21467 7.26451,-4.75 9.75586,-4.75 z M 315,193 c -0.55,0 -1,0.675 -1,1.5 0,0.825 0.45,1.5 1,1.5 0.55,0 1,-0.675 1,-1.5 0,-0.825 -0.45,-1.5 -1,-1.5 z m -60.72266,2.16406 C 254.99057,195.0252 255,195.45347 255,196.3125 c 0,2.987 -8.78035,7.56415 -20.27734,10.57031 -4.27746,1.11844 -8.15301,2.26362 -8.61133,2.54688 C 224.96574,210.1377 224,209.00827 224,206.96094 c 0,-1.22524 1.16225,-1.89117 4.12695,-2.36524 5.43515,-0.86912 15.18239,-4.1691 21.20508,-7.17968 2.81492,-1.40709 4.23208,-2.11309 4.94531,-2.25196 z m -82.82031,2.83203 c 0.16514,-0.0713 0.27898,0.005 0.33008,0.25391 0.19767,0.96244 -0.30991,3.09073 -1.12695,4.72852 -0.81703,1.63778 -1.23528,3.93299 -0.92969,5.10156 0.32081,1.22677 -0.006,2.47103 -0.77344,2.94531 -1.09593,0.67736 -1.09836,1.09868 -0.0195,2.39844 0.71948,0.86692 0.90438,1.57617 0.41211,1.57617 -0.96567,0 -3.34679,4.246 -5.74805,10.25 -1.42059,3.55198 -2.5426,4.47692 -3.84765,3.17188 -0.31823,-0.31822 0.21488,-2.68075 1.18359,-5.25 0.96872,-2.56927 2.50087,-6.9718 3.4043,-9.78321 2.28838,-7.12124 5.95928,-14.89383 7.11523,-15.39258 z M 315,198 c -0.55,0 -1,0.45 -1,1 0,0.55 0.45,1 1,1 0.55,0 1,-0.45 1,-1 0,-0.55 -0.45,-1 -1,-1 z m -140.73438,2.35547 c 0.22089,-0.0918 0.62654,0.14006 1.23438,0.64453 0.825,0.68469 1.5,2.0904 1.5,3.12305 0,2.61153 -1.63851,2.3533 -2.36914,-0.37305 -0.58666,-2.18911 -0.73336,-3.24148 -0.36524,-3.39453 z M 314.7207,202 c -0.947,0 -0.78819,14.33914 0.86133,78 0.3064,11.825 0.73547,22.0625 0.95508,22.75 0.84344,2.64043 1.1957,1.06313 0.71484,-3.20312 -0.46233,-4.10184 -0.29705,-6.12926 0.76172,-6.72266 -0.0874,-0.2703 -0.1028,-0.322 -0.0488,-0.79688 0.0125,-0.11025 0.0848,-0.2084 0.0996,-0.31836 0.007,-0.0501 -0.0314,0.15972 -0.0742,0.13282 -0.0499,-0.0315 0.002,-0.11844 0.002,-0.17774 -10e-4,-0.10726 -0.004,-0.21501 -0.006,-0.32226 -0.067,-0.48816 0.0727,-0.89425 0.28125,-1.30664 -7.1e-4,-0.004 -9.1e-4,-0.008 -0.002,-0.0117 -0.77535,-1.26193 -0.85571,-4.56502 -1.04296,-14.93555 -0.24217,-13.41211 -0.0863,-15.24532 1.25,-14.70508 0.15769,0.0638 0.38079,0.15462 0.56836,0.23047 0.0203,-0.0621 0.055,-0.271 0.11523,-0.91797 0.0109,-0.11685 -0.0475,0.22897 -0.0859,0.33985 -0.0187,0.0539 0.0214,-0.11097 0.0254,-0.16797 0.0213,-0.33737 9.6e-4,-0.69349 -0.0215,-1.03711 -0.14719,-0.49358 -0.13618,-0.85134 -0.11524,-1.25 -0.0125,-0.11901 -0.0205,-0.19003 -0.0332,-0.31055 -0.69557,-1.41238 -0.87365,-4.79999 -1.27539,-14.0918 C 316.17578,209.06892 315.67298,202 314.7207,202 Z m -276.044919,2.01562 c 0.684779,-0.0474 1.774007,0.94579 2.705078,2.73438 0.787346,1.5125 2.610834,4.1 4.052735,5.75 2.038475,2.33267 2.55952,3.87207 2.34375,6.92188 -0.529118,7.4788 -4.888762,4.42215 -6.306641,-4.42188 -0.396793,-2.475 -1.339643,-5.38778 -2.095703,-6.47266 -0.75606,-1.08487 -1.375,-2.54737 -1.375,-3.25 0,-0.82979 0.264914,-1.23321 0.675781,-1.26172 z m 133.660159,0.1875 c 0.22686,0.0686 0.57204,1.08388 1.04297,3.04688 0.39164,1.63254 0.24558,2.75 -0.35938,2.75 C 172.45905,210 172,208.57565 172,206.83398 c 0,-1.82063 0.10907,-2.69943 0.33594,-2.63086 z M 219.08789,208 c 0.93887,0 3.41048,7.13629 6.4082,18.5 1.45089,5.5 3.36275,10.55841 4.24805,11.24023 2.0487,1.5778 2.17159,1.50428 -6.92578,4.08789 -4.22529,1.2 -8.46162,2.48217 -9.41406,2.84766 -1.08984,0.41809 -1.49154,0.27392 -1.08203,-0.38867 0.35798,-0.57922 3.80682,-2.08896 7.66406,-3.35352 3.85725,-1.26455 7.01367,-2.66554 7.01367,-3.11523 0,-1.30369 -2.17291,-0.92342 -6.85938,1.20312 -2.39757,1.08792 -4.53505,1.97852 -4.75,1.97852 -0.88784,0 -0.29296,-3.28767 1.07227,-5.92773 0.99322,-1.92069 1.54526,-6.71931 1.72266,-14.95118 C 218.32923,213.454 218.73572,208 219.08789,208 Z m -24.63867,4.53711 c -0.21319,-0.0704 -0.39348,-0.0722 -0.5293,0.0117 -1.38356,0.85508 -1.13054,1.91417 1.15235,4.8164 2.26192,2.87556 3.92773,3.41383 3.92773,1.26954 0,-1.72648 -3.05849,-5.60491 -4.55078,-6.09766 z m -3.08008,4.6582 c -0.39393,-0.10752 -0.61766,0.33427 -0.97266,1.24414 -0.48353,1.23929 -0.30672,2.09047 0.48829,2.35547 0.6845,0.22817 1.65345,1.49324 2.15429,2.81055 1.11001,2.91955 2.53392,3.06094 3.96094,0.39453 0.80451,-1.50325 0.76001,-2 -0.17773,-2 -0.68619,0 -2.24124,-1.2375 -3.45704,-2.75 -1.03675,-1.28975 -1.60216,-1.94716 -1.99609,-2.05469 z m -105.511718,3.13086 c -0.395482,0.0424 -0.746724,0.17536 -0.957031,0.39063 -1.33104,1.36242 -1.819226,17.6088 -0.914063,30.42773 0.47987,6.79592 1.131409,19.10547 1.447266,27.35547 0.315858,8.25 0.856438,20.30472 1.201172,26.78906 0.414524,7.7971 0.994319,11.66727 1.71289,11.42774 0.729647,-0.24321 0.983288,-4.60775 0.769532,-13.28907 -0.175073,-7.11015 -0.38676,-28.5584 -0.46875,-47.66211 -0.124248,-28.94915 -0.385224,-34.82583 -1.566407,-35.2832 -0.389735,-0.15091 -0.829127,-0.19866 -1.224609,-0.15625 z m -16.195313,0.99219 c 0.09561,0.1702 -0.388251,0.89306 -1.482421,2.42969 -1.166528,1.63823 -1.834272,3.26339 -1.484376,3.61328 0.349897,0.3499 -0.450649,2.87046 -1.779296,5.59961 -2.507174,5.14995 -3.867858,6.00565 -5.814454,3.66015 -2.189303,-2.63795 3.462056,-11.64383 9.298829,-14.81836 0.435751,-0.23699 0.761605,-0.40495 0.974609,-0.48046 0.159753,-0.0566 0.25524,-0.0603 0.287109,-0.004 z m 118.126951,0.3125 c -1.49077,0.92135 -0.78292,2.57284 2.36524,5.51367 2.1349,1.99432 3.48271,2.61885 4.16992,1.93164 1.13132,-1.13132 -5.1579,-8.2965 -6.53516,-7.44531 z m 13.59961,0.74805 c -0.11953,-0.002 -0.25117,0.0361 -0.38867,0.12109 -0.55,0.33992 -1,1.29219 -1,2.11719 0,0.82497 0.45,1.22273 1,0.88281 0.55,-0.33992 1,-1.29219 1,-2.11719 0,-0.61872 -0.25273,-0.997 -0.61133,-1.0039 z m -16.30469,4.06836 c -1.53497,0.94866 -1.34593,2.55273 0.30079,2.55273 0.76174,0 2.1225,1.125 3.02343,2.5 1.54578,2.35916 3.63968,3.39126 3.55078,1.75 -0.0922,-1.70103 -5.87351,-7.42169 -6.875,-6.80273 z m -19.32226,0.85742 c 0.1505,0.14164 0.19398,0.76583 0.20703,1.94531 0.0318,2.87574 -0.42894,3.43077 -1.46289,1.75781 -0.33722,-0.54564 -0.15288,-1.78314 0.41016,-2.75 0.43907,-0.75397 0.6952,-1.09477 0.8457,-0.95312 z m -8.42969,5.39843 C 159.60036,231.83268 191,241.03689 191,242.57227 c 0,1.12673 -17.29454,-3.01938 -22.51172,-5.39649 -1.32414,-0.60332 -4.67511,-1.39788 -7.44726,-1.76562 -4.93982,-0.65529 -6.3594,-1.68998 -3.70899,-2.70704 z m -37.95508,14.5879 c 1.06221,-1.06222 7.71062,7.11543 7.41211,9.11718 -0.55562,3.72597 -2.5415,2.61835 -5.25781,-2.93359 -1.50705,-3.0803 -2.4758,-5.86209 -2.1543,-6.18359 z m 62.97657,1.86328 c 0.33364,0.54505 3.48907,11.12914 3.97851,13.3457 0.2429,1.1 0.76586,2.7875 1.16211,3.75 0.63107,1.53292 0.0831,1.75 -4.41211,1.75 -4.58846,0 -5.23542,-0.27091 -6.10742,-2.56445 -1.88755,-4.96462 -1.12991,-9.7015 2.125,-13.28125 1.67303,-1.84 3.1376,-3.19 3.25391,-3 z m -140.94727,1.10547 c 0.505641,-0.50564 6.000061,1.77841 6.595703,2.74218 0.29831,0.48267 0.653721,7.54209 0.789063,15.6875 0.135342,8.14542 0.519485,18.74805 0.855468,23.56055 0.33598,4.8125 0.328372,8.75 -0.01758,8.75 -0.345941,0 -0.656133,-0.1125 -0.689453,-0.25 -0.03332,-0.1375 -0.680458,-4.525 -1.4375,-9.75 -0.757042,-5.225 -2.096243,-13.775 -2.976562,-19 -2.584287,-15.33864 -3.455257,-21.40411 -3.119141,-21.74023 z m 76.24805,1.18945 c 0.14523,-0.0154 0.29702,0.02 0.45117,0.11523 0.49237,0.3043 0.89453,1.8766 0.89453,3.49414 0,3.27792 -1.54235,3.95778 -2.45508,1.08203 -0.62986,-1.98451 0.0927,-4.58331 1.10938,-4.6914 z m -10.1875,0.004 c 1.06953,0.01 2.5332,0.81127 2.5332,1.6543 0,0.49115 -0.9,0.89258 -2,0.89258 -1.94919,0 -2.60611,-1.05991 -1.40234,-2.26367 0.20027,-0.20028 0.51263,-0.28641 0.86914,-0.28321 z m 43.89258,0.83399 c 2.08904,0.69637 3.87182,8.71234 3.17578,14.2832 -0.67904,5.43487 -1.92085,6.64556 -4.33594,4.23047 -0.66,-0.66 -1.19922,-2.04297 -1.19922,-3.07226 0,-1.02928 -0.675,-2.5461 -1.5,-3.3711 C 145.81395,262.67097 145.4451,257 147.02148,257 c 0.56179,0 1.5389,-1.13614 2.17188,-2.52539 0.63298,-1.38924 1.60767,-2.37361 2.16602,-2.1875 z m -79.583989,0.26367 c 0.481126,-0.004 0.293437,0.72674 -0.984375,2.19336 -0.841527,0.96587 -1.954014,3.07773 -2.472657,4.69336 -0.518643,1.61563 -1.540737,3.13727 -2.271484,3.38086 -2.176164,0.72539 -0.284321,-4.9198 2.701172,-8.05859 1.395908,-1.4676 2.546217,-2.20508 3.027344,-2.20899 z m -12.746094,1.03125 c 0.540938,-0.0992 1.194564,-0.0745 1.837891,0.0937 1.781533,0.46588 2.151176,1.07308 1.65625,2.71289 -0.350643,1.16176 -1.343755,5.03633 -2.207032,8.61133 -0.863277,3.575 -1.889795,10.55 -2.28125,15.5 -0.776209,9.81524 -0.918258,9.68342 -1.625,-1.5 -0.523379,-8.28189 0.33547,-22.97136 1.449219,-24.77344 0.199537,-0.32283 0.628983,-0.54529 1.169922,-0.64453 z m 17,1.41797 c 0.457473,0 0.883571,10.0125 0.947265,22.25 0.0637,12.2375 0.481542,25.4 0.927735,29.25 0.446192,3.85 0.719109,7.11756 0.607422,7.26172 -0.111686,0.14417 -2.305562,-1.59009 -4.876953,-3.85352 -3.840207,-3.38033 -5.150171,-3.99634 -7.330078,-3.44922 -2.33703,0.58656 -2.497702,0.47872 -1.341797,-0.91406 1.101025,-1.32665 1.012897,-1.91473 -0.550782,-3.64258 -1.603282,-1.7716 -1.86444,-3.76284 -1.86914,-14.23046 -0.0067,-14.96479 0.808044,-19.41873 3.802734,-20.78321 1.230368,-0.56059 2.667851,-1.80555 3.195313,-2.76562 C 72.080613,259.50011 75.281618,255 76.029297,255 Z m 115.408203,4.45703 c 0.38976,-0.05 1.12212,0.29737 2.49219,1.00586 1.61102,0.83309 3.21536,2.41936 3.5664,3.52539 0.35104,1.10603 0.98551,2.01172 1.41016,2.01172 0.42466,0 1.31182,1.18283 1.9707,2.62891 1.56652,3.43813 1.15401,3.67653 -2.51172,1.44726 C 194.53853,267.74861 191,263.31169 191,260.83984 c 0,-0.88441 0.0477,-1.33276 0.4375,-1.38281 z M 258.03125,274 C 257.46399,274 257,274.90989 257,276.02148 c 0,1.73269 3.2012,14.40827 4.79297,18.97852 0.28733,0.825 0.43989,2.02361 0.33984,2.66406 -0.16862,1.07937 5.27835,3.41918 8.82617,3.79102 8.62865,0.90434 13.57915,2.08305 15.0918,3.5957 0.98355,0.98355 2.83762,2.00817 4.11914,2.27539 3.00923,0.62748 10.08325,-0.18047 11.18164,-1.27734 1.06233,-1.06084 -1.30787,-1.7769 -8.2832,-2.50195 -6.003,-0.62399 -8.44494,-2.29521 -10.92578,-7.47461 -0.90303,-1.88531 -2.24933,-3.62442 -2.99024,-3.86524 -1.06304,-0.34552 -1.11575,-0.006 -0.25,1.61133 1.62455,3.0355 1.33464,5.18164 -0.70117,5.18164 -2.3804,0 -4.36713,-5.58825 -4.06445,-11.43555 0.24766,-4.78451 -0.32055,-6.18688 -2.07031,-5.10547 -1.35989,0.84047 -1.40419,12.21431 -0.0508,13.05079 1.1228,0.69393 0.38173,2.49023 -1.02734,2.49023 -0.49106,0 -2.44002,-1.59483 -4.33203,-3.54297 -3.19482,-3.28961 -5.55767,-9.06607 -6.2832,-15.36133 C 259.9765,275.65462 259.21583,274 258.03125,274 Z m -130.97852,5.04297 c -0.81127,-0.0865 -1.22354,1.07185 -0.62304,2.63672 0.57449,1.49711 0.8148,1.54219 1.58203,0.30078 0.54565,-0.88283 0.53087,-1.83823 -0.0371,-2.40625 -0.33627,-0.33627 -0.65145,-0.50243 -0.92188,-0.53125 z m 80.03125,9.45703 -1.50586,2.5 c -0.82844,1.375 -1.52346,2.92672 -1.54296,3.44922 -0.064,1.71712 1.71207,-0.84086 2.39453,-3.44922 z m 77.94141,1.5 c -1.67949,0 -1.6893,0.24764 -0.16016,4.5 1.54372,4.29293 4.12459,5.94384 5.58789,3.57617 C 291.37996,296.57654 286.95994,290 285.02539,290 Z m -164.18164,0.0918 c -0.61361,0.1527 -1.2469,0.79297 -1.84375,1.9082 -0.81262,1.51839 -0.76087,1.99599 0.21484,1.98438 2.14062,-0.0255 4.08413,-1.6909 3.35352,-2.87305 -0.51781,-0.83783 -1.111,-1.17223 -1.72461,-1.01953 z m -63.564453,1.28711 c 0.10514,-0.10514 0.244684,0.0347 0.404297,0.43359 0.288868,0.72187 0.252221,1.58373 -0.08008,1.91602 -0.332292,0.33229 -0.568811,-0.25834 -0.525391,-1.3125 0.02399,-0.58248 0.09603,-0.93197 0.201172,-1.03711 z m 265.337893,1.25781 c 0.0411,0.24918 0.0772,0.49931 0.10937,0.75 0.10327,-0.1192 0.13688,-0.29618 0.0352,-0.60156 -0.0162,-0.0486 -0.11785,-0.0987 -0.14453,-0.14844 z M 58.179688,296.5 l 0.96289,3.3418 c 1.015522,3.52709 0.810576,5.77932 -0.414062,4.55468 -0.401042,-0.40104 -0.688272,-2.34166 -0.638672,-4.3125 z m 55.562502,6.91016 c -0.2517,-0.2517 -1.02694,0.22811 -1.72266,1.0664 -0.78875,0.95039 -0.86427,1.52344 -0.20117,1.52344 1.20855,0 2.61732,-1.89634 1.92383,-2.58984 z M 41.058594,305 C 42.126135,305 43,305.45 43,306 c 0,0.55 -1.151135,1 -2.558594,1 -1.451367,0 -2.291929,-0.43284 -1.941406,-1 0.339919,-0.55 1.491053,-1 2.558594,-1 z m 276.496096,3.58594 c -0.15183,-0.22935 -0.26353,0.85156 -0.26953,2.91406 -0.007,2.74995 0.18062,3.99361 0.41796,2.76367 0.23731,-1.22994 0.24346,-3.47994 0.0137,-5 -0.0575,-0.38001 -0.1115,-0.60128 -0.16211,-0.67773 z m -179.06641,2.54883 c 1.70955,0.30134 4.52205,2.93069 6.42188,6.61523 1.0153,1.96909 0.91169,2.25 -0.83399,2.25 C 141.67311,320 137,315.21857 137,312.75977 c 0,-0.9471 0.31271,-1.459 0.82812,-1.60743 0.19329,-0.0557 0.41594,-0.0606 0.66016,-0.0176 z m -91.978514,2.60937 c 0.550962,-0.0413 1.097814,0.45194 1.300781,1.50586 0.210801,1.0946 -0.280589,1.75 -1.310547,1.75 -0.960727,0 -1.512861,-0.64675 -1.324219,-1.55273 0.226136,-1.08606 0.783022,-1.66187 1.333985,-1.70313 z m 9.458984,1.45703 c 0.310023,0.0101 0.736856,0.13185 1.289062,0.34375 1.631541,0.62608 2.998706,4.23103 2.134766,5.62891 -1.006891,1.62919 -2.214928,0.77334 -3.298828,-2.33594 -0.933733,-2.6785 -1.055068,-3.66701 -0.125,-3.63672 z m 261.31055,3.17774 c -0.10514,0.10514 -0.17717,0.45463 -0.20118,1.03711 -0.0434,1.05416 0.19311,1.64479 0.5254,1.3125 0.33225,-0.33229 0.36882,-1.19415 0.0801,-1.91602 -0.15961,-0.39887 -0.29916,-0.53873 -0.40429,-0.43359 z m -23.9668,0.53906 c -1.72514,-0.10092 -4.45723,0.0608 -9.3125,0.41797 -6.9425,0.51067 -7,0.53378 -7,2.74414 0,1.79026 0.41721,1.9872 3,1.41992 2.39252,-0.52549 3,-0.32299 3,1 0,1.32299 -0.60748,1.52549 -3,1 -2.31494,-0.50845 -3,-0.30953 -3,0.87305 0,1.34081 3.1988,3.32437 8,4.95898 0.825,0.28088 4.425,0.52914 8,0.55274 l 6.5,0.043 -2.75,-2.25195 c -4.23686,-3.46899 -3.61295,-5.03397 1.76562,-4.42773 2.4837,0.27995 4.77228,0.0954 5.08594,-0.41211 0.86215,-1.395 -1.67665,-3.94916 -3.60156,-3.62305 -0.93131,0.15777 -2.46596,-0.35539 -3.41211,-1.14062 -0.83113,-0.68978 -1.55025,-1.05338 -3.27539,-1.1543 z m -168.98242,0.10937 C 123.59067,319.00876 123,319.27866 123,319.84766 c 0,0.46595 1.0125,1.36665 2.25,2.00195 2.052,1.05343 1.97165,1.10489 -0.92188,0.58984 -2.82975,-0.50371 -3.11581,-0.3415 -2.63476,1.49805 0.7269,2.78014 -2.5136,2.77905 -6.04883,-0.002 C 112.38096,321.36861 111,322.12966 111,326.49609 c 0,3.06125 0.30442,3.41571 3.25,3.78125 v -0.002 c 1.7875,0.22183 3.7,0.4622 4.25,0.5332 2.27006,0.2932 16.20196,-1.87917 18.75,-2.92382 3.46327,-1.41987 3.53406,-4.1415 0.16406,-6.34961 -3.23674,-2.1208 -4.3479,-1.22687 -1.87304,1.50781 1.85654,2.05141 1.84842,2.05197 -3.08985,-0.0566 -2.72287,-1.16274 -5.37789,-2.53576 -5.90039,-3.05078 -0.59236,-0.58388 -1.48129,-0.88962 -2.2207,-0.90821 z m 165.17187,1.51368 C 290.9,320.4037 293,321.40843 293,322.61719 293,323.37804 292.12613,324 291.05859,324 c -2.14154,0 -3.48876,-1.49601 -2.61718,-2.90625 0.2064,-0.33397 0.59453,-0.50696 1.06054,-0.55273 z m 27.98633,2.63281 c -0.38128,-0.3707 -0.53569,7.76251 -0.3418,18.07031 l 0.35352,18.74219 2.75,0.008 c 0.16283,3.3e-4 0.27716,-0.0435 0.41797,-0.0625 0.0123,-0.0606 0.0294,-0.1397 0.0625,-0.27344 0.14706,-0.59414 0.33002,-1.17475 0.54297,-1.74804 -1.11026,-0.44536 -1.41207,-4.01433 -2.71094,-27.23633 -0.20998,-3.75427 -0.69287,-7.12927 -1.07422,-7.5 z M 286.87695,325 c 0.48265,0 1.40478,0.63413 2.04883,1.41016 1.27256,1.53334 0.32693,2.58948 -1.67578,1.87109 C 285.83946,327.77528 285.52383,325 286.87695,325 Z M 87.4375,329.49805 c -0.351367,-0.0575 -0.642018,0.0231 -0.787109,0.25781 -0.290182,0.46953 -0.826127,5.98393 -1.191407,12.25391 -0.778331,13.35992 -1.530377,16.04613 -4.291015,15.32421 -1.068116,-0.27932 -2.225061,-0.0508 -2.570313,0.50782 -0.732553,1.1853 7.724435,1.44664 17.152344,0.53125 7.15127,-0.69435 8.07487,-1.82638 2.25,-2.75782 -3.90889,-0.62506 -4,-0.73187 -4,-4.7207 0,-3.2408 -0.412075,-4.19022 -2,-4.60547 -1.768348,-0.46243 -2,-1.36328 -2,-7.7832 0,-5.03058 -0.432592,-7.62034 -1.410156,-8.43164 -0.388018,-0.32203 -0.800977,-0.51866 -1.152344,-0.57617 z M 61.138672,333.8418 C 61.047134,333.83759 61,333.87965 61,333.96875 c 0,1.51658 4.040802,8.37481 5.226562,8.87109 0.446304,0.18679 3.153301,2.09929 6.015626,4.25 C 78.009417,351.42326 80,351.94201 80,349.10938 c 0,-1.21371 -0.952713,-2.1325 -2.658203,-2.56055 -1.46193,-0.36692 -5.73693,-3.63856 -9.5,-7.27149 -3.292685,-3.17882 -6.062361,-5.4061 -6.703125,-5.43554 z m 197.664058,3.81445 c -0.20869,0.0167 -0.41195,0.0821 -0.60351,0.20313 -1.03982,0.65685 -1.05832,1.35529 -0.0898,3.48046 1.37745,3.02319 3.89062,3.57365 3.89062,0.85157 0,-2.37521 -1.73639,-4.65174 -3.19727,-4.53516 z M 197.03125,339 c -2.46066,0 -2.54233,0.82365 -0.38867,3.89844 1.47462,2.10531 1.73836,2.17313 2.58398,0.66211 C 200.5323,341.22731 199.45952,339 197.03125,339 Z m -11.14453,2.22656 c -0.29455,0.0109 -0.50894,0.0617 -0.61133,0.16406 -0.28764,0.28743 -0.28499,1.14194 0.006,1.89844 0.59988,1.56325 8.71875,2.25438 8.71875,0.74219 0,-0.93362 -6.05141,-2.88093 -8.11328,-2.80469 z m 59.27734,0.82227 c 1.02789,-0.0147 1.91013,0.26268 2.26563,0.83789 1.03136,1.66877 -1.81534,2.92693 -4.40625,1.94726 -2.01854,-0.76324 -2.20327,-1.10822 -1,-1.86914 0.93886,-0.59372 2.11274,-0.90132 3.14062,-0.91601 z m -206.685544,4.16015 c -0.576146,-0.0421 -1.033991,0.0145 -1.230469,0.21094 -0.415963,0.41596 1.376033,6.09053 2.339844,7.41016 0.13297,0.18206 1.161144,-0.16017 2.285156,-0.76172 1.67645,-0.89721 2.231176,-0.74367 3.085937,0.85352 1.73245,3.23709 1.308316,4.13025 -1.458984,3.07812 -1.929822,-0.73372 -2.5,-0.63102 -2.5,0.45117 0,0.77106 0.7875,1.57583 1.75,1.78906 0.9625,0.21322 4.795913,0.35962 8.517578,0.32422 5.666765,-0.0539 6.488791,-0.26763 5.058594,-1.31445 C 55.386885,357.5625 53.664757,357 52.5,357 c -2.179071,0 -6.790758,-2.83193 -5,-3.07031 3.482504,-0.4636 8.516706,0.5712 12.447266,2.55859 5.066409,2.56171 12.624638,4.01522 13.501953,2.5957 0.312995,-0.50644 -0.899107,-1.22385 -2.691407,-1.59375 -4.244206,-0.87594 -9.776215,-2.75084 -17.488281,-5.92578 C 49.84296,350.15378 46.13046,349 45.019531,349 43.908603,349 43,348.5997 43,348.10938 c 0,-0.76252 -2.793046,-1.77413 -4.521484,-1.9004 z" />
  </g>
</svg>
