<?xml version="1.0" encoding="UTF-8" standalone="no"?>
<!-- Created with Inkscape (http://www.inkscape.org/) -->

<svg
   version="1.1"
   id="svg2"
   width="323"
   height="385"
   viewBox="0 0 323 385"
   sodipodi:docname="35.svg"
   inkscape:version="1.1.2 (0a00cf5339, 2022-02-04)"
   xmlns:inkscape="http://www.inkscape.org/namespaces/inkscape"
   xmlns:sodipodi="http://sodipodi.sourceforge.net/DTD/sodipodi-0.dtd"
   xmlns="http://www.w3.org/2000/svg"
   xmlns:svg="http://www.w3.org/2000/svg">
  <defs
     id="defs6" />
  <sodipodi:namedview
     id="namedview4"
     pagecolor="#505050"
     bordercolor="#eeeeee"
     borderopacity="1"
     inkscape:pageshadow="0"
     inkscape:pageopacity="0"
     inkscape:pagecheckerboard="0"
     showgrid="false"
     inkscape:zoom="2.7512881"
     inkscape:cx="74.874019"
     inkscape:cy="141.57005"
     inkscape:window-width="1920"
     inkscape:window-height="1043"
     inkscape:window-x="0"
     inkscape:window-y="0"
     inkscape:window-maximized="1"
     inkscape:current-layer="g8"
     units="cm"
     height="4cm" />
  <g
     inkscape:groupmode="layer"
     inkscape:label="Image"
     id="g8">
    <path
       id="path12"
       style="fill:#000000"
       d="M 319.28906,3.8925781 306.75,4.4746094 C 289.54328,5.2722333 285.84741,5.4082837 255,6.3925781 238.2947,6.9256189 218.19386,7.8457329 185,9.59375 c -4.125,0.2172261 -15.6,0.622672 -25.5,0.900391 -9.9,0.277719 -21.15,0.739288 -25,1.027343 -3.85,0.288054 -13.3,0.492495 -21,0.453125 -7.7,-0.03937 -23,0.453974 -34,1.097657 -11,0.643683 -22.25,1.075476 -25,0.958984 -2.75,-0.116494 -5.9,-0.199444 -7,-0.183594 C 42.200535,13.92402 27.251932,13.816011 16,13.619141 1.442361,13.364431 0,13.590146 0,16.117188 0,17.752416 0.79052066,18 6,18 c 3.7696834,0 6,-0.417837 6,-1.123047 0,-0.816196 0.378237,-0.807687 1.386719,0.0293 1.024811,0.850517 15.187682,1.016951 54.25,0.636719 C 96.711435,17.259938 122.75,16.808658 125.5,16.541016 c 2.75,-0.267642 15.35,-0.749538 28,-1.072266 12.65,-0.322728 25.925,-0.756651 29.5,-0.962891 3.575,-0.20624 13.475,-0.637505 22,-0.958984 8.525,-0.32148 18.425,-0.823896 22,-1.117187 14.30793,-1.173827 19.66604,-1.386468 48.94922,-1.929688 16.74676,-0.310662 30.65557,-0.7708022 30.9082,-1.0234375 0.25264,-0.2526353 0.95018,-0.068909 1.55078,0.4082031 0.60061,0.4771124 3.5668,0.5349644 6.5918,0.1289064 1.51043,-0.2027523 3.02353,-0.3357281 4.24609,-0.3847658 -0.003,-1.7990782 0.003,-3.5983787 0.043,-5.3964843 1.6e-4,-0.1216629 0.002,-0.2298134 0,-0.3398438 z m -3.3457,13.2753909 c -2.57616,-0.100944 -3.82257,0.219136 -3.41602,0.876953 0.35205,0.569619 1.50292,0.762169 2.55664,0.427734 C 316.15496,18.132739 317,18.334958 317,18.931641 317,19.518705 316.06747,20 314.92773,20 c -2.03706,0 -2.06044,0.267574 -1.40039,15.75 0.3693,8.6625 0.7921,20.475 0.93946,26.25 1.40936,55.23163 1.73347,65.6636 2.07617,66.75 0.21687,0.6875 0.85851,1.25 1.42578,1.25 0.58779,0 1.07366,-2.68808 1.13086,-6.25 0.0552,-3.4375 0.29323,-9.175 0.52734,-12.75 0.39028,-5.95983 -1.2473,-50.8572 -2.08789,-57.244141 -0.19862,-1.509142 -0.6736,-8.305982 -1.05468,-15.103515 -0.60713,-10.829547 -0.49352,-12.435224 0.9121,-12.97461 C 318.27876,25.33917 319,24.148511 319,23.03125 c 0,-0.450302 0.0982,-0.796292 0.24219,-1.095703 v -4.203125 c -0.73121,-0.283881 -1.9057,-0.509865 -3.29883,-0.564453 z m -5.08594,0.253906 c -0.19265,-0.129266 -0.55237,-0.141776 -1.10742,0.03125 -0.6875,0.214313 -15.875,0.655668 -33.75,0.982422 -41.03156,0.750055 -50.4119,1.362689 -48.89258,3.193359 0.84584,1.019177 3.67475,1.244292 11.75391,0.933594 5.85161,-0.225033 18.51367,-0.689566 28.13867,-1.03125 9.625,-0.341685 21.3964,-0.764609 26.1582,-0.941406 4.7618,-0.176797 9.22237,0.02684 9.91211,0.453125 1.36273,0.842214 1.47828,7.692428 2.35742,139.457031 0.26055,39.05 0.5271,71.225 0.5918,71.5 0.2057,0.87375 -0.16923,16.25371 -0.55664,22.85547 -0.35923,6.12148 -0.55386,6.53155 -5.27344,11.05664 -2.69539,2.58431 -6.3539,5.40306 -8.13086,6.26367 l -3.23242,1.56445 2.71875,0.68165 c 2.81372,0.70618 4.24745,-0.17901 10.75586,-6.64063 1.54037,-1.52931 3.11537,-2.77984 3.5,-2.7793 0.38462,5.4e-4 0.63133,2.13804 0.54883,4.75 -0.0825,2.61196 -0.195,8.98851 -0.25,14.17188 l -0.0996,9.42383 -2.50586,-2.35352 -2.50586,-2.35352 0.64258,4.67969 c 0.74106,5.40664 -0.48701,6.07816 -4.44141,2.42969 l -2.4375,-2.25 0.69141,2.25 c 0.5093,1.65695 0.2874,2.25 -0.84375,2.25 -1.88611,0 -1.09091,2.70997 1.54883,5.27734 1.00528,0.97772 2.10598,2.89022 2.44726,4.25 0.77348,3.08177 2.07211,3.18184 2.89453,0.22266 1.14166,-4.10785 3.86484,-10.22518 5.33008,-11.97461 1.2423,-1.48325 1.43717,-17.52454 1.38867,-114.22266 -0.031,-61.8729 -0.28697,-112.868927 -0.56836,-113.324214 -0.28138,-0.455287 -0.63292,-11.335763 -0.78124,-24.179688 -0.26887,-23.277712 -0.26226,-23.354952 1.93554,-24.167969 1.70977,-0.632484 2.64047,-2.071185 2.0625,-2.458984 z m -97.41601,2.867187 c -2.29185,0.04138 -5.2702,0.134384 -9.14258,0.267579 C 195.11269,20.872607 187.32726,21.297745 187,21.5 c -0.57634,0.356199 -34.57831,0.995138 -106,1.992188 -33.964927,0.474149 -51.655486,1.072191 -61.5,2.082031 l -5,0.513672 0.130859,24.207031 c 0.0724,13.313313 0.1849,24.992578 0.25,25.955078 0.06511,0.9625 0.64349,1.75 1.285157,1.75 0.641666,0 0.87166,-0.296308 0.509765,-0.658203 -0.361895,-0.361895 -0.220699,-1.185259 0.314453,-1.830078 0.583981,-0.703655 0.881238,-10.392068 0.742188,-24.232422 L 17.5,28.21875 30.875,28.091797 c 7.355801,-0.06995 13.799681,-0.391122 14.320312,-0.712891 0.861602,-0.532497 66.090668,-1.600011 80.304688,-1.314453 5.79752,0.116472 12.98886,0.116697 24.5,0 3.025,-0.03067 11.575,-0.506757 19,-1.056641 7.425,-0.549883 22.1617,-1.114085 32.74805,-1.253906 17.60329,-0.2325 19.248,-0.403366 19.25,-2.011718 0.001,-1.223208 -0.6811,-1.577263 -7.55664,-1.453126 z M 3.171875,26.207031 C 0.43219666,26.280605 0,26.700863 0,27.943359 0,29.216747 0.55788288,29.678266 1.75,29.392578 5.5227182,28.488453 5.7762598,29.867332 4.8027344,46 3.7252363,63.855639 3.3645705,98.824631 4.0371094,120.24805 4.4919818,134.73778 4.5394121,134.99605 6.75,134.99805 7.9875,134.99911 9,134.55 9,134 c 0,-0.55 -0.5057023,-1 -1.1230469,-1 -0.7968916,0 -0.7752287,-0.41634 0.072266,-1.4375 1.140775,-1.37455 1.3615976,-36.033447 0.5644531,-88.259766 L 8.2675781,27.107422 10.882812,26.748047 C 12.321772,26.550577 10.4625,26.318992 6.75,26.232422 5.2544607,26.197547 4.0851011,26.182507 3.171875,26.207031 Z m 160.957035,10.322266 -2.31446,2.126953 c -1.27305,1.169556 -5.06761,3.50206 -8.43359,5.183594 -6.40599,3.200221 -7.34109,4.59825 -7.36719,11.017578 -0.0104,2.570053 -0.3653,3.221922 -1.51367,2.78125 -1.70877,-0.655717 -2.03776,1.423183 -0.47266,2.988281 0.70362,0.703626 -0.24243,2.470752 -3,5.603516 -4.47309,5.081703 -4.84482,6.444913 -2.27734,8.341797 1.40211,1.035895 1.50151,1.545164 0.5,2.560546 C 137.54661,78.859803 137.67026,82 139.44141,82 c 2.36576,0 2.73693,1.754455 1.05859,5 -1.7814,3.444841 -1.29692,5 1.55859,5 2.18131,0 2.49421,1.046813 0.81446,2.726562 -0.63651,0.636505 -0.84529,2.247602 -0.48047,3.701172 C 142.97099,100.73229 143.52636,101 147.70703,101 h 4.66797 l -2.6875,2.80469 c -1.4779,1.54259 -2.6875,3.28822 -2.6875,3.8789 0,0.96843 -2.06524,2.01724 -7.3125,3.71485 -0.99736,0.32267 -1.53372,1.03986 -1.19141,1.59375 0.99676,1.61278 4.02958,1.16921 6.77735,-0.99219 3.23707,-2.54628 4.54903,-2.51589 7.41211,0.17383 3.11205,2.92363 2.92874,4.91254 -1.15235,12.46875 l -3.46875,6.41992 4.71875,6.06641 c 7.3786,9.48616 9.2168,12.21199 9.2168,13.66406 0,0.74185 1.71875,3.45367 3.82031,6.02734 4.95372,6.06657 9.57541,15.14067 11.55078,22.67969 0.86466,3.3 1.88218,7.08326 2.25977,8.4082 l 0.68555,2.41016 -6.32813,-0.66211 c -3.47996,-0.36373 -6.38558,-0.77198 -6.45898,-0.9082 -1.18545,-2.19887 -7.71882,-23.9347 -8.64063,-28.74805 -1.13572,-5.93029 -3.13944,-10.08128 -4.30469,-8.91602 -0.87573,0.87573 6.80345,29.83171 9.07813,34.23047 1.90544,3.68471 1.45507,4.05115 -1.66211,1.34766 -4.39103,-3.8083 -9.82168,-11.08218 -11.90625,-15.94531 C 148.9816,168.12228 147.8297,166 147.53516,166 147.24061,166 147,167.46854 147,169.26367 c 0,2.58387 1.25008,4.64926 6,9.91211 6.69954,7.42302 7.49325,9.44727 3.25,8.29102 -1.5125,-0.41214 -4.325,-1.02944 -6.25,-1.37305 -3.25908,-0.58175 -3.65411,-1.07143 -5.73828,-7.10937 -1.23103,-3.5664 -2.244,-7.2198 -2.25,-8.11915 -0.0144,-1.99943 -2.0668,-8.95535 -6.82227,-23.11523 -4.53668,-13.50838 -6.79495,-14.45533 -3.46484,-1.45312 1.84107,7.18835 2.14854,9.9048 1.35937,11.98046 -1.16465,3.06326 -2.15307,2.93315 -8.83203,-1.16796 -4.50349,-2.76536 -4.86991,-3.89015 -4.3164,-13.25391 0.11848,-2.00433 -0.28241,-3.95223 -0.89063,-4.32813 -0.70274,-0.43431 0.72926,-3.01649 3.92578,-7.08398 2.76662,-3.52046 5.0293,-6.75965 5.0293,-7.19922 0,-0.9601 3.70562,-4.24414 4.78906,-4.24414 0.42134,0 1.78656,-0.71528 3.03516,-1.58984 1.80089,-1.26139 2.02979,-1.88154 1.10156,-3 -1.90523,-2.29566 -4.83903,-1.62566 -8.05273,1.83984 C 125.44039,121.95162 115,136.44466 115,137.50781 c 0,0.38649 -1.35,2.70165 -3,5.14649 -1.65,2.44483 -3,4.91711 -3,5.49218 0,0.57507 -0.76368,2.33753 -1.69727,3.91797 -0.93362,1.58044 -1.39719,3.17507 -1.02929,3.54297 0.3679,0.36791 2.96515,0.21505 5.77148,-0.33984 4.97723,-0.98411 5.12812,-0.9451 6.11524,1.61133 1.1986,3.10408 2.80837,12.44387 2.24609,13.03125 -0.21583,0.22546 -2.41037,-1.79954 -4.87695,-4.5 -2.46658,-2.70046 -4.49572,-4.502 -4.50782,-4.00391 -0.0227,0.93143 4.04164,6.59484 7.19922,10.0332 2.57137,2.80002 2.25256,4.25173 -2.23047,10.18946 -5.01003,6.63573 -6.33291,7.32681 -12.26757,6.41406 -4.23148,-0.6508 -7.584384,-2.92746 -7.69141,-5.22461 -0.01749,-0.37544 -0.886319,-0.95533 -1.931641,-1.28711 -1.045322,-0.33177 -2.161265,-1.63636 -2.478515,-2.90039 -0.31725,-1.26402 -1.935232,-4.00966 -3.597656,-6.10156 C 86.36101,170.43741 85,168.29636 85,167.77148 c 0,-1.03362 -3.188571,-5.48377 -6.6875,-9.33203 l -2.1875,-2.40429 3.347656,-1.58789 c 1.840542,-0.87339 4.13155,-2.45652 5.091797,-3.51758 C 85.524699,149.86863 86.61384,149 86.984375,149 c 0.370536,0 4.012029,2.68733 8.09375,5.97266 4.081721,3.28533 7.984375,5.9853 8.671875,6 1.81496,0.0387 1.50346,1.88627 -1.27148,7.52734 -1.35277,2.75 -2.46375,5.7875 -2.46875,6.75 -0.01719,3.29053 1.841,1.75266 4.5332,-3.75 1.48,-3.025 3.07295,-5.5 3.53906,-5.5 0.98207,0 2.92554,3.19998 4.55469,7.5 0.9187,2.42482 1.2705,2.67685 1.83203,1.31641 C 115.20216,173.03952 110.55154,164 108.9043,164 108.40656,164 108,163.49146 108,162.87109 108,161.49902 94.142922,148.27411 91.902344,147.50781 89.865528,146.8112 88,142.74569 88,139.00195 88,133.87947 85.802888,125.6464 83.46875,122.02148 80.272544,117.05776 74.386864,111.11214 68.25,106.64844 l -5.251953,-3.82032 -0.896485,2.33594 c -0.669696,1.74228 -0.401661,3.09801 1.054688,5.33594 4.213432,6.47465 4.22532,6.68844 0.775391,13.99023 l -3.232422,6.83789 1.822265,7.0254 c 2.001738,7.7178 4.838891,12.86197 8.087891,14.66406 1.160234,0.64354 2.845266,2.59026 3.744141,4.32617 1.81319,3.50165 2.482611,4.56181 7.896484,12.49414 2.0625,3.02195 3.75,6.07878 3.75,6.79297 0,0.7142 3.073847,4.46436 6.830078,8.33398 C 99.09118,191.415 99.999285,192 103.74219,192 c 4.02106,0 4.09387,0.0641 4.81836,4.25 0.40457,2.3375 0.84309,5.15 0.97656,6.25 1.93219,15.92439 2.83167,21.38994 3.45312,21.00586 0.41084,-0.25391 0.7461,-4.10203 0.7461,-8.55274 0,-4.4507 0.44626,-9.07437 0.99219,-10.27343 0.86231,-1.89393 4.94321,-14.78508 6.7832,-21.42969 1.53141,-5.53028 2.49056,-1.3287 2.50976,11 0.0252,16.22585 1.6001,41.10453 2.87891,45.4707 l 0.94336,3.21875 -4.17187,-0.53711 C 121.37747,242.10673 116.575,241.55906 113,241.18359 L 106.5,240.5 105.81836,226 c -0.37511,-7.975 -1.2042,-17.65 -1.8418,-21.5 -0.63759,-3.85 -1.23106,-7.63855 -1.31836,-8.41797 -0.0873,-0.77943 -0.7207,-1.60312 -1.4082,-1.83203 -1.588758,-0.52899 -1.628251,5.06108 -0.12109,17.25 1.35224,10.93621 1.64348,14.90407 1.77148,24.10352 l 0.0996,7.10351 11.45508,1.16211 c 6.30045,0.63875 12.01202,1.04216 12.6914,0.89648 0.67939,-0.14563 1.41834,0.57944 1.64258,1.61329 0.35913,1.6558 -0.0185,1.80019 -3.16992,1.20898 -1.96768,-0.36913 -7.07377,-1.0711 -11.34766,-1.56055 -4.27388,-0.48945 -8.51305,-1.17707 -9.41992,-1.52734 -1.8891,-0.72963 -3.10558,0.6736 -2.33203,2.68945 0.91154,2.37543 19.15682,5.28031 26.47266,4.21485 l 6.21093,-0.9043 -2.07421,-2.62305 -2.07422,-2.62304 3.66992,-0.59571 c 2.01882,-0.32763 3.90981,-0.3558 4.20312,-0.0625 0.2933,0.2933 0.70552,6.804 0.91602,14.46875 C 140.11294,268.86439 139.8963,273 139.11328,273 138.50087,273 138,273.7651 138,274.69922 c 0,0.93411 -1.17963,5.54661 -2.62109,10.25 -2.46656,8.04824 -2.57723,9.28655 -1.89063,21.05078 0.40125,6.875 0.65325,15.18089 0.56055,18.45703 -0.16767,5.92427 -0.20058,5.98748 -6.23438,11.64063 -3.92837,3.68056 -5.79722,6.12058 -5.30078,6.92382 0.54313,0.8788 1.67381,0.22533 3.87695,-2.24218 3.40943,-3.81846 7.52263,-6.61177 11.52344,-7.82422 1.73131,-0.52467 1.98557,-0.81164 0.76953,-0.86914 -1.58851,-0.0752 -1.79123,-0.93385 -1.61718,-6.83594 0.10948,-3.7125 -0.14565,-11.93119 -0.56641,-18.26367 -0.71769,-10.80127 -0.59951,-12.05409 1.90039,-20.25 2.40488,-7.88435 4.59961,-11.29747 4.59961,-7.15235 0,0.87084 0.54617,1.40038 1.21289,1.17774 1.45802,-0.486 1.2631,-5.7093 -0.8125,-21.76172 -0.81783,-6.325 -1.5799,-12.36155 -1.69336,-13.41406 -0.19352,-1.79516 0.61283,-1.919 13.04102,-2 14.54161,-0.0948 14.0196,-0.36186 12.33789,6.29687 -0.50229,1.98881 -1.46034,6.09219 -2.12891,9.11719 -0.66858,3.025 -1.65659,6.05583 -2.19726,6.73633 -0.54067,0.68049 -0.72682,1.90373 -0.41407,2.71875 0.31275,0.81502 -0.31764,4.05801 -1.40039,7.20508 -1.08276,3.14708 -2.43057,9.79255 -2.99414,14.76757 -0.56358,4.97502 -1.45839,9.47793 -1.98828,10.00782 -0.52988,0.52988 -0.96575,1.66117 -0.96875,2.51367 -0.003,0.8525 -0.67562,2.83487 -1.49414,4.4043 -2.10164,4.02963 -5.5,21.7542 -5.5,28.6875 0,5.12549 -0.26423,5.90805 -2.20312,6.52343 -2.78479,0.88385 -4.34499,2.43785 -5.22266,5.20313 -0.37977,1.19656 -2.57752,3.7928 -4.88281,5.76758 -3.5399,3.03237 -4.6966,3.49594 -7.44141,2.98242 -2.55833,-0.47862 -3.25,-0.27047 -3.25,0.98047 0,0.87404 0.5625,1.51703 1.25,1.42773 0.6875,-0.0889 2.15,-0.0933 3.25,-0.01 1.81495,0.13968 1.77093,0.28147 -0.46875,1.52148 l -2.4668,1.36719 2.4668,0.39258 c 1.35742,0.21632 5.39375,0.2884 8.96875,0.16015 3.575,-0.12824 25.625,-0.49604 49,-0.8164 23.375,-0.32035 51.5,-1.01411 62.5,-1.54297 11,-0.52886 21.575,-1.02933 23.5,-1.11133 2.55896,-0.10901 1.88679,-0.37729 -2.5,-1 -5.74077,-0.81491 -28.19793,-0.53607 -56,0.69726 l -13,0.57813 2.65039,-2.33203 c 6.90904,-6.07728 6.96407,-10.703 0.17969,-14.91797 -6.77423,-4.20867 -6.92163,-4.15316 -1.58008,0.59766 4.83583,4.30103 6.65575,7.49023 4.27539,7.49023 -0.53588,0 -1.67214,1.35 -2.52539,3 -1.32893,2.56987 -2.12089,3 -5.52539,3 -2.18588,2.4e-4 -3.97461,-0.45 -3.97461,-1 0,-0.55 -0.64941,-1 -1.44336,-1 -0.79394,0 -2.81379,-1.6875 -4.48828,-3.75 -1.67449,-2.0625 -3.95731,-4.875 -5.07227,-6.25 l -2.02734,-2.5 0.66211,2.89844 c 0.46952,2.05897 0.32655,2.69426 -0.49024,2.18945 -0.74485,-0.46035 -0.94573,-2.36395 -0.57031,-5.40039 1.63388,-13.21487 1.58558,-29.20352 -0.11133,-36.39844 -1.13566,-4.81524 -1.69684,-11.19114 -1.65234,-18.78906 0.0439,-7.49049 -0.58937,-14.81221 -1.81641,-21 -1.03612,-5.225 -2.05595,-12.08184 -2.26757,-15.23828 -0.37133,-5.53851 -0.30433,-5.72541 1.92968,-5.32031 1.27317,0.23087 2.76895,0.70175 3.32422,1.04492 0.55527,0.34318 5.04732,0.61737 9.98242,0.60937 4.9351,-0.008 9.16414,0.30509 9.39844,0.69532 0.2343,0.39024 -0.18928,5.42842 -0.9414,11.19726 -1.19419,9.15959 -1.17914,10.6764 0.10937,11.96484 1.29034,1.29035 1.47236,1.29238 1.45899,0.0117 -0.008,-0.80536 -0.41839,-2.10278 -0.91211,-2.88281 -0.59169,-0.9348 -0.11288,-3.19583 1.40625,-6.63086 1.26763,-2.86633 2.61909,-7.06394 3.00195,-9.33008 0.73769,-4.36634 1.59212,-4.80343 6.06836,-3.10156 2.25856,0.8587 2.58553,0.77305 2.08203,-0.53906 -0.3436,-0.89542 0.0335,-1.79759 0.88672,-2.125 3.01035,-1.15518 1.34967,-2.36636 -3.01758,-2.20117 -2.475,0.0936 -4.5,0.50472 -4.5,0.91406 0,0.40935 -1.575,0.26072 -3.5,-0.33008 -3.90317,-1.19792 -4.21703,-1.87672 -1.92773,-4.16601 2.21767,-2.21767 4.33961,-1.95162 5.39648,0.67773 0.69292,1.7239 0.92015,1.84081 0.96875,0.5 0.0429,-1.18332 0.953,-1.80509 2.8125,-1.91992 8.56492,-0.52893 13.25,0.94313 13.25,4.16406 0,1.71995 0.87456,1.95525 8.23828,2.21484 7.1725,0.25285 8.28729,0.53743 8.60352,2.19141 0.34569,1.80805 -0.24731,1.87341 -12.24024,1.35547 C 220.67036,248.45784 215,248.55152 215,248.9668 c 0,1.08782 9.04201,2.01529 19.75,2.02539 10.34591,0.01 10.77476,-0.38598 7.83594,-7.20899 -3.03012,-7.03502 -5.63665,-18.74852 -6.25,-28.08593 -0.35295,-5.37317 -1.0914,-10.04532 -1.64063,-10.38477 -1.53401,-0.94807 0.23867,17.12459 3.28516,33.49414 l 0.80078,4.30469 -6.43359,-0.39844 c -3.53872,-0.21968 -6.86428,-0.82912 -7.38868,-1.35351 -0.52441,-0.52441 -1.90509,-4.75691 -3.07031,-9.40626 -1.16521,-4.64928 -2.45469,-8.90312 -2.86523,-9.45312 -0.41053,-0.55 -2.44763,-5.4346 -4.52735,-10.85352 -2.8256,-7.36237 -3.47268,-10.04397 -2.55468,-10.61132 2.19108,-1.35417 8.1187,-17.2817 7.89062,-21.20313 -0.11732,-2.01729 0.26607,-4.26729 0.85156,-5 0.58548,-0.7327 1.36353,-3.40903 1.73047,-5.94726 0.36694,-2.53824 1.29154,-5.46324 2.05469,-6.5 2.61706,-3.55533 2.95842,1.14796 0.5918,8.15429 -1.80739,5.35076 -2.06344,7.6637 -1.49219,13.46094 0.37938,3.85011 1.13731,7 1.68359,7 0.64236,0 0.63167,0.44164 -0.0293,1.25 -0.98961,1.2104 -0.0816,10.55159 1.23242,12.67773 0.31735,0.51348 0.17868,1.18127 -0.3086,1.48243 -0.50117,0.30971 -0.52806,2.40227 -0.0605,4.81836 0.45436,2.34935 0.86721,6.74648 0.91601,9.77148 0.0488,3.025 0.70736,6.85 1.46289,8.5 1.67017,3.64753 1.60415,4.08816 1.8711,-12.5 0.11949,-7.425 0.56942,-14.0625 1,-14.75 0.43057,-0.6875 0.48321,-1.73405 0.11718,-2.32617 -0.36591,-0.59212 0.29685,-1.97502 1.47461,-3.07227 2.13635,-1.99031 2.15002,-1.99048 5.35743,-0.0117 1.76823,1.09082 6.22472,3.48622 9.90234,5.32227 6.1067,3.04878 6.71376,3.6339 7,6.75977 0.17238,1.88247 0.89398,3.61576 1.60547,3.8496 0.93681,0.3079 1.11502,-0.28948 0.64453,-2.16406 -0.47563,-1.89505 -0.20736,-2.75739 1,-3.2207 2.36343,-0.90694 2.68196,-0.16401 1.39258,3.25195 -1.13095,2.99623 -0.36543,9.23324 0.96875,7.89258 0.38573,-0.38761 0.70117,-2.08673 0.70117,-3.77539 0,-1.72885 0.60733,-3.27644 1.39062,-3.54297 1.05337,-0.35842 1.23198,0.16196 0.73438,2.14453 -0.36143,1.44006 -0.2335,3.41171 0.28516,4.38086 0.51866,0.96914 1.19112,2.55659 1.49218,3.52734 0.30105,0.97077 1.79568,2.21645 3.32227,2.76954 1.5266,0.5531 3.80096,1.52964 5.05469,2.16992 1.84653,0.94301 2.58194,0.86336 3.86718,-0.42188 1.44881,-1.44882 1.42281,-2.12937 -0.28125,-7.83593 -1.02636,-3.43712 -2.31523,-6.06829 -2.86523,-5.84766 -0.55,0.22063 -0.85938,0.82226 -0.6875,1.33789 0.17187,0.51562 0.56945,2.31562 0.88281,4 0.46517,2.50042 0.32835,2.83737 -0.74414,1.83203 -0.72246,-0.67724 -1.63221,-3.93297 -2.02148,-7.23437 -0.61062,-5.17873 -1.50596,-7.11021 -6.52149,-14.07618 -5.07662,-7.05081 -6.35849,-8.22088 -10.11132,-9.2246 C 252.35559,187.94758 251,187.04598 251,185.875 c 0,-0.94106 -1.6875,-2.71647 -3.75,-3.94531 -4.39869,-2.62074 -13.24686,-10.8933 -13.25586,-12.39258 -0.003,-0.57067 -0.7085,-2.38397 -1.56641,-4.0293 -2.2758,-4.36462 -6.49047,-21.28286 -6.59765,-26.48242 -0.0507,-2.46061 -0.44726,-5.16061 -0.88086,-6 -0.4336,-0.83939 -1.75924,-4.28213 -2.94531,-7.65234 -2.97036,-8.44024 -6.36509,-11.50604 -19.25391,-17.38477 -2.6125,-1.19159 -4.75,-2.36799 -4.75,-2.61328 0,-0.24529 0.73704,-1.56831 1.63672,-2.94141 C 201.63128,99.389537 202.85173,86 201.13477,86 200.51087,86 200,85.315308 200,84.478516 200,83.641724 198.8444,81.211 197.43164,79.076172 193.90359,73.74493 192.02426,67.129412 193.16602,64.064453 194.27003,61.100803 193.59122,59 191.53125,59 c -1.19272,0 -1.54122,-1.271607 -1.57422,-5.75 -0.0405,-5.498688 -0.1998,-5.85081 -3.66601,-8.064453 -1.99355,-1.273148 -6.11751,-2.776656 -9.16407,-3.339844 -3.04656,-0.563188 -7.21651,-1.989484 -9.26757,-3.169922 z m 5.17187,5.939453 c 0.11488,-0.0151 0.3456,0.01266 0.69922,0.08984 1.375,0.300107 4.20495,0.809208 6.28906,1.130859 7.03103,1.085136 14.20282,12.846354 8.96094,14.695313 -0.9625,0.339501 -2.2,0.817762 -2.75,1.064453 C 181.95,59.695934 179.925,59.044122 178,58 c -4.00691,-2.173354 -4.33659,-2.315501 -8.77539,-3.771484 -2.73199,-0.896129 -3.23028,-0.829139 -3,0.402343 0.20784,1.111425 -1.08528,1.599486 -5.22461,1.970703 -11.8755,1.065016 -11.4736,1.120579 -11.79688,-1.654296 -0.44245,-3.79809 3.62914,-7.551054 10.29297,-9.488282 5.24297,-1.524175 6.03171,-1.53011 9.88477,-0.05859 4.79371,1.830736 5.61914,1.938435 5.61914,0.734375 0,-0.475367 -1.6875,-1.596113 -3.75,-2.492188 -1.59129,-0.691352 -2.29385,-1.128534 -1.94922,-1.173828 z m -5.79297,3.681641 C 163.08102,46.330441 163,47.028437 163,48.355469 c 0,1.980622 0.83523,2.597678 5.25,3.882812 2.8875,0.840547 5.3625,1.580512 5.5,1.644531 0.1375,0.06402 0.25,-0.101521 0.25,-0.36914 0,-0.267619 -1.60769,-1.157661 -3.57227,-1.978516 -1.96458,-0.820855 -3.30264,-1.930914 -2.97265,-2.464844 0.32999,-0.533929 -0.28208,-1.441935 -1.36133,-2.019531 -1.38658,-0.742075 -2.15914,-1.080441 -2.58594,-0.90039 z M 172.94141,49 C 172.42387,49 172,49.45 172,50 c 0,0.55 0.70113,1 1.55859,1 0.85748,0 1.28133,-0.45 0.94141,-1 -0.33992,-0.55 -1.04105,-1 -1.55859,-1 z m -15.12305,9.285156 c 1.16475,0.02928 2.61236,0.114458 4.45312,0.242188 8.34265,0.578898 15.20506,2.061533 17.47852,3.77539 0.6875,0.518274 1.25,2.02235 1.25,3.341797 0,1.5865 0.84403,2.782265 2.49219,3.533203 1.63185,0.743499 2.17956,1.512824 1.58789,2.228516 -1.32185,1.5989 -5.09221,11.841817 -5.00391,13.59375 0.0416,0.825 0.60434,0.15 1.25,-1.5 2.06685,-5.281923 4.84822,-8.726013 6.06445,-7.509766 0.79062,0.79065 0.7643,1.296617 -0.0957,1.828125 -0.78324,0.484067 -0.87176,1.238149 -0.25781,2.208985 1.4458,2.286228 1.14872,2.834283 -1.20508,2.21875 -1.8248,-0.477197 -2.04483,-0.26402 -1.38672,1.34375 0.43017,1.050907 1.03382,2.810156 1.3418,3.910156 0.49454,1.766332 0.36463,1.83905 -1.11328,0.626953 C 183.20768,86.924493 183,87.008365 183,88.794922 c 0,1.121511 -0.51371,2.210299 -1.14258,2.419922 -0.85786,0.285955 -0.85786,0.914644 0,2.517578 0.62887,1.175052 1.14258,2.615014 1.14258,3.201172 0,1.852022 -1.48732,1.155598 -2.51367,-1.177735 C 179.33277,93.133344 176,92.102906 176,94.369141 c 0,0.834141 -0.82171,2.105531 -1.82617,2.824218 -1.5445,1.105076 -1.75728,2.348184 -1.38281,8.056641 0.24354,3.7125 0.80358,6.75 1.24609,6.75 0.4425,0 2.87473,-2.07005 5.4043,-4.59961 3.04476,-3.04477 5.13617,-4.39366 6.1875,-3.99023 1.43323,0.54999 1.41786,0.87693 -0.14649,3.34961 -2.16243,3.41803 -5.10157,5.90961 -8.98242,7.61132 -3.32908,1.45977 -9.45194,2.64768 -11,2.13477 -0.55,-0.18222 -2.29067,-0.61665 -3.86914,-0.9668 -2.74817,-0.60961 -2.84188,-0.8153 -2.19922,-4.83789 0.36912,-2.31046 1.15588,-4.65117 1.74805,-5.20117 0.76377,-0.70938 0.88289,0.28453 0.41015,3.41797 -0.81403,5.39565 0.0738,6.10971 5.92188,4.77148 l 4.38672,-1.0039 -0.33594,-4.5918 c -0.18547,-2.52619 -0.38742,-5.60625 -0.44922,-6.84375 -0.2015,-4.036145 -2.10863,-2.364266 -2.28125,2 -0.16329,4.12811 -0.17904,4.14709 -0.55078,0.66016 -0.35167,-3.29866 -0.65454,-3.60101 -3.73437,-3.7168 -1.84346,-0.0693 -4.85813,-0.966549 -6.69922,-1.994141 -2.96298,-1.653772 -3.37687,-2.401155 -3.60547,-6.50586 -0.22233,-3.992043 0.0896,-4.864948 2.24219,-6.27539 1.37529,-0.90113 3.20623,-1.366731 4.07031,-1.035157 3.27783,1.257819 9.50743,-3.853448 7.88867,-6.472656 -0.93804,-1.517781 -2.18081,-1.025366 -2.73242,1.083985 -0.54462,2.082618 -3.32925,3.71958 -4.43946,2.609375 -0.35351,-0.353507 -0.53628,-2.696907 -0.40625,-5.208985 0.30208,-5.835657 -0.97802,-7.413494 -5.42773,-6.691406 C 152.22478,70.224479 152,70.0832 152,67.537109 c 0,-2.708586 0.031,-2.720841 5.25,-2.029297 4.14972,0.549864 5.00278,0.436311 4.06836,-0.539062 -0.66707,-0.69632 -3.39032,-1.183571 -6.25,-1.119141 -5.49554,0.123812 -6.17695,-0.741022 -3.04688,-3.871093 1.35675,-1.356742 2.30262,-1.7812 5.79688,-1.69336 z M 187.5,61 c 3.0441,0 3.5,0.318378 3.5,2.441406 0,3.420298 -1.33624,3.869096 -4.38281,1.472656 C 183.0725,62.125813 183.32663,61 187.5,61 Z M 169,62.246094 c -0.61069,0.01172 -1,0.154015 -1,0.466797 0,0.479962 1.4625,1.353052 3.25,1.939453 1.7875,0.586401 3.90948,1.129694 4.71484,1.207031 1.28571,0.123465 1.28571,-0.03088 0,-1.259766 C 174.6596,63.352059 170.83207,62.210927 169,62.246094 Z M 167.57422,65 c -2.03415,0 -3.33092,3.290401 -2.7793,7.048828 0.31667,2.157625 1.0497,2.935122 3.06055,3.244141 5.29671,0.813975 6.69031,0.627928 9.0957,-1.220703 2.11687,-1.626894 2.26504,-2.106606 1.09571,-3.515625 -0.74459,-0.897174 -2.07092,-1.543277 -2.94922,-1.435547 -3.10693,0.38109 -6.98309,-1.255467 -6.42383,-2.712891 C 169.00312,65.550103 168.57302,65 167.57422,65 Z m -19.33399,1 c 0.4177,0 0.75977,0.9 0.75977,2 0,1.336146 -0.66601,2 -2.00781,2 -1.75815,0 -1.85312,-0.24927 -0.75977,-2 0.68696,-1.1 1.59011,-2 2.00781,-2 z M 146,72 c 3.74283,0 4,0.185801 4,2.886719 0,2.44271 -0.46124,2.953561 -3,3.326172 -3.12352,0.458435 -4.10725,-0.573725 -1.5,-1.574219 C 147.88961,75.721693 147.23716,74 144.5,74 c -1.375,0 -2.5,-0.45 -2.5,-1 0,-0.55 1.8,-1 4,-1 z m 11,0 c 0.55,0 1,0.45 1,1 0,0.55 -0.45,1 -1,1 -0.55,0 -1,-0.45 -1,-1 0,-0.55 0.45,-1 1,-1 z m 15.44141,0 c 0.79254,0 1.71867,0.45 2.05859,1 0.33992,0.55 -0.30895,1 -1.44141,1 C 171.92613,74 171,73.55 171,73 c 0,-0.55 0.64887,-1 1.44141,-1 z m 17.74023,4.5 c 0.17561,-0.167574 1.12706,0.776523 2.11524,2.097656 C 193.28543,79.918788 193.73049,81 193.28711,81 c -0.8718,0 -3.63102,-3.998491 -3.10547,-4.5 z M 155.51953,77 c 2.24074,0 2.44602,0.30383 1.86133,2.75 -0.36152,1.5125 -0.84671,3.0875 -1.07813,3.5 C 155.06404,85.457975 153,82.750596 153,78.917969 153,77.534673 153.70295,77 155.51953,77 Z m -5.09765,2.076172 c 0.45079,0.04855 0.57812,0.477069 0.57812,1.30664 0,1.577613 -3.72469,2.872945 -4.52734,1.574219 -0.29095,-0.47077 0.35434,-1.328654 1.43359,-1.90625 1.2904,-0.690599 2.06479,-1.023164 2.51563,-0.974609 z M 190.94141,82 C 191.52387,82 192,82.45 192,83 c 0,0.55 -0.19887,1 -0.44141,1 -0.24254,0 -0.71867,-0.45 -1.05859,-1 -0.33992,-0.55 -0.14105,-1 0.44141,-1 z M 15.896484,85 c -1.51282,0 -1.771484,0.947059 -1.771484,6.5 0,3.575 0.227124,6.5 0.503906,6.5 0.276783,0 1.373634,-0.465805 2.4375,-1.035156 2.098605,-1.123139 2.716836,-6.361859 0.884766,-7.494141 -0.726499,-0.448985 -0.728354,-1.034239 -0.0078,-1.902344 C 19.18599,86.070986 18.33229,85 15.896484,85 Z m 131.019536,0.123047 c 0.34739,0.01431 0.64635,0.107292 0.8125,0.273437 0.33229,0.332292 -0.25834,0.568811 -1.3125,0.525391 -1.16495,-0.04798 -1.40125,-0.286243 -0.60352,-0.605469 0.36094,-0.144434 0.75612,-0.207669 1.10352,-0.193359 z m 3.64843,0.970703 c 0.47418,-0.046 0.87765,0.01632 1.09571,0.234375 0.28065,0.280657 -0.39995,0.997701 -1.51368,1.59375 -1.218,0.651857 -2.25363,0.712161 -2.5996,0.152344 -0.45626,-0.738209 1.59504,-1.842465 3.01757,-1.980469 z M 161.86133,87 C 159.68298,87 156,89.574963 156,91.097656 c 0,0.73047 14.00836,0.05122 14.9043,-0.722656 C 171.60135,89.77292 164.17163,87 161.86133,87 Z m 28.52539,0.671875 c 0.34271,-0.05654 0.87148,0.09776 1.59375,0.548828 1.08938,0.680328 2.22487,1.872338 2.52344,2.650391 0.80661,2.101988 0.13166,2.26216 -2.31446,0.548828 -2.17806,-1.525574 -2.83087,-3.578434 -1.80273,-3.748047 z m -17.11719,2.439453 c -0.0843,0.08433 0.0236,0.469042 0.29492,1.181641 0.37553,0.986221 0.9343,1.542263 1.24219,1.234375 0.30789,-0.307887 0.002,-1.116588 -0.68164,-1.794922 -0.49381,-0.490134 -0.77114,-0.705426 -0.85547,-0.621094 z m -24.74219,1.058594 c 0.78577,-0.228482 1.57663,0.824176 2.75391,3.292969 0.908,1.904177 1.27868,3.691785 0.82422,3.972656 -1.21952,0.753704 -2.04736,-0.423591 -1.42969,-2.033203 C 150.97173,95.631115 150.71626,95 150.10742,95 149.49857,95 149,95.45 149,96 c 0,0.55 -0.675,1 -1.5,1 -1.75544,0 -1.91129,-1.363684 -0.46484,-4.066406 0.55064,-1.028885 1.02072,-1.626583 1.49218,-1.763672 z m 14.97461,1.287109 C 162.54135,92.487854 162,93.255358 162,94.666016 162,95.399349 162.9,96 164,96 c 2.27384,0 2.72472,-2.50799 0.59766,-3.324219 -0.40886,-0.156894 -0.7755,-0.229024 -1.09571,-0.21875 z M 190.2832,93 C 191.92568,93 196,97.14396 196,98.814453 196,100.87346 194.59033,100.11361 191.70703,96.5 189.89784,94.232564 189.39675,93 190.2832,93 Z M 188,97 c 0.55,0 1,0.648865 1,1.441406 0,0.792541 -0.45,1.718674 -1,2.058594 -0.55,0.33992 -1,-0.30894 -1,-1.441406 C 187,97.926135 187.45,97 188,97 Z m -29.19531,4.5 0.0664,3 c 0.0359,1.65 -0.53302,3.7875 -1.26367,4.75 -1.65584,2.18134 -1.91244,2.17668 -3.95312,-0.0781 -2.08175,-2.30035 -2.08651,-3.5673 -0.0234,-5.2793 1.46722,-1.21769 1.55856,-1.03075 0.91992,1.87695 -0.97699,4.44821 0.81962,4.1047 2.7168,-0.51953 z m 16.7539,0.5 c 0.24254,0 0.44141,0.45 0.44141,1 0,0.55 -0.47613,1 -1.05859,1 -0.58246,0 -0.78133,-0.45 -0.44141,-1 0.33992,-0.55 0.81605,-1 1.05859,-1 z m -9.93554,1.28906 C 165.86946,103.105 166,104.42858 166,107.27344 c 0,2.5342 -0.48561,4.90724 -1.07812,5.27344 -0.74829,0.46245 -0.8611,-0.81588 -0.3711,-4.18946 0.46348,-3.19106 0.82585,-4.88429 1.07227,-5.06836 z m 25.00195,3.04883 c 1.96578,-0.18439 5.75838,1.97323 9.70312,5.60938 3.14253,2.89668 5.78855,4.3127 9.57618,5.125 2.87869,0.61737 5.4783,1.75979 5.77734,2.53906 0.61101,1.59228 -1.26229,22.47031 -2.63672,29.38867 -0.49169,2.475 -1.43557,7.425 -2.09765,11 -0.66208,3.575 -1.97212,7.86406 -2.91211,9.53125 -0.93999,1.66719 -2.02012,4.97743 -2.40039,7.35547 C 204.6785,182.86694 202.36498,187 199.97461,187 c -2.31374,0 -2.45904,-1.52861 -0.47461,-5 1.83686,-3.21328 1.84026,-4 0.0195,-4 -1.43711,0 -4.50548,5.0523 -6,9.87891 -0.7313,2.36175 -0.69512,2.37343 4.87305,1.67773 3.64508,-0.45542 5.60742,-0.33964 5.60742,0.33203 0,1.13085 -4.90723,2.57324 -12.125,3.5625 -8.22081,1.12675 -25.2637,1.28848 -29.375,0.2793 -9.39043,-2.30504 -17.5,-5.07868 -17.5,-5.98633 0,-0.53757 0.7875,-0.72481 1.75,-0.41602 10.21616,3.27766 17.62584,4.65209 25.61914,4.75391 11.40872,0.14534 18.65491,-0.8548 18.02734,-2.49023 -0.25395,-0.66178 0.46277,-4.10433 1.5918,-7.64844 4.38971,-13.77961 7.54503,-38.87697 5.08008,-40.40039 -1.71688,-1.0611 -2.50184,1.89853 -2.77539,10.45703 -0.21601,6.75862 -5.51097,35.18268 -6.86328,36.8418 -0.153,0.18771 -1.19714,0.0498 -2.32031,-0.30664 -1.40676,-0.44648 -2.58927,-2.42012 -3.79883,-6.3418 -0.96576,-3.13123 -2.02193,-5.91836 -2.34571,-6.19336 -0.32377,-0.275 -0.61313,-1.4 -0.64453,-2.5 -0.0314,-1.1 -1.28987,-6.48217 -2.79687,-11.96094 -2.1614,-7.85787 -2.49882,-10.34803 -1.59766,-11.79101 0.62832,-1.0061 0.85165,-2.2996 0.4961,-2.875 C 172.40025,143.60176 184.70159,128 189.30273,128 c 1.64854,0 1.85116,-0.48053 1.32227,-3.125 -0.34375,-1.71875 -0.625,-5.85797 -0.625,-9.19922 0,-8.45167 -2.09582,-6.07683 -2.75391,3.1211 -0.49616,6.93438 -0.50006,6.94427 -5.45117,10.82226 -2.72543,2.1347 -5.90841,5.68086 -7.07226,7.88086 -1.57207,2.97166 -2.21451,3.54128 -2.5,2.21289 -0.6802,-3.16505 14.14406,-30.96767 17.67578,-33.15039 0.20139,-0.12447 0.44573,-0.19827 0.72656,-0.22461 z M 16.582031,107 c -0.906345,0 -1.131102,9.39924 -0.939453,39.25 0.138597,21.5875 0.275768,39.38863 0.304688,39.55859 0.02892,0.16996 0.524506,0.0168 1.101562,-0.33984 0.577055,-0.35664 1.021518,-3.19527 0.986328,-6.30859 C 17.999963,176.04684 18.155353,161.8 18.380859,147.5 18.846625,117.96439 18.358917,107 16.582031,107 Z m 50.65625,3.79492 c 0.291365,-0.22485 1.671722,0.59199 4.220703,2.38867 2.452031,1.72835 4.223944,3.51821 3.939454,3.97852 -1.065007,1.72322 -3.377084,0.73323 -5.847657,-2.50586 -1.807091,-2.36922 -2.603864,-3.63648 -2.3125,-3.86133 z M 181,114.53906 c 0,0.19872 -1.58128,2.97012 -3.51367,6.16016 -1.93238,3.19004 -3.97525,7.48828 -4.53906,9.55078 -1.62776,5.95454 -2.94824,4.37502 -2.92774,-3.5 l 0.0176,-7.25 5.48242,-2.66211 C 178.53401,115.37414 181,114.34035 181,114.53906 Z m -23.53516,3.66406 c 0.16223,-0.16298 1.74626,4.33705 3.51954,10 1.77323,5.66301 4.59068,14.02123 6.26171,18.57227 3.14067,8.55362 3.21663,11.51297 0.16797,6.56055 -5.46397,-8.87599 -9.20527,-14.2342 -12.14844,-17.40235 l -3.31445,-3.5664 2.60938,-6.9336 c 1.43486,-3.81323 2.74206,-7.06742 2.90429,-7.23047 z m 3.64844,1.13086 h 2.77149 c 2.76964,0 2.77463,0.0113 3.75781,9.58204 0.54146,5.27083 0.8962,9.71918 0.78711,9.88476 -0.25816,0.39181 -2.40927,-5.45781 -3.41992,-9.30078 -0.43393,-1.65 -1.48886,-4.61315 -2.34375,-6.58398 z m -83.820311,0.041 C 77.474219,119.2952 77.725,119.33 78,119.5 c 0.55,0.33992 1,0.81605 1,1.05859 C 79,120.80115 78.55,121 78,121 c -0.55,0 -1,-0.47613 -1,-1.05859 0,-0.29123 0.111719,-0.48648 0.292969,-0.56641 z m -4.259766,1.75781 c 1.637397,0.62401 5.941466,5.75763 8.095703,9.89063 1.201625,2.30537 2.400146,6.42212 2.66211,9.14844 0.438225,4.56066 0.20995,5.23188 -2.853516,8.39257 C 79.106213,150.45398 77.116307,152 76.515625,152 c -1.656312,0 -8.242021,-7.7759 -8.939453,-10.55469 -0.808509,-3.22135 0.523042,-3.08869 4.283203,0.42383 3.518997,3.28724 4.279655,3.07406 3.470703,-0.9707 -0.34925,-1.74625 0.106327,-4.29986 1.167969,-6.53711 1.680405,-3.54119 1.673973,-3.72702 -0.185547,-5.26563 -2.177854,-1.80201 -4.691428,-7.05076 -3.802734,-7.93945 0.111042,-0.11104 0.289523,-0.11282 0.523437,-0.0234 z m 145.720707,7.05469 c 0.95454,0.31493 2.28091,4.60618 3.64257,11.89062 2.09761,11.22149 2.02787,13.99135 -0.55468,21.85157 -2.56241,7.79893 -2.76024,8.0613 -5.3418,7.0957 -1.1,-0.41145 -2.63056,-0.51198 -3.40039,-0.22266 -1.09542,0.41169 -1.2372,-0.10777 -0.6582,-2.38867 1.11456,-4.39062 4.65769,-27.23787 5.08398,-32.78125 0.20582,-2.67645 0.5856,-5.07583 0.84375,-5.33398 0.1202,-0.12021 0.2484,-0.15632 0.38477,-0.11133 z m -149.496098,1.22266 c 0.2517,-0.2517 1.026937,0.22811 1.722657,1.0664 0.788749,0.95039 0.864265,1.52344 0.201172,1.52344 -1.208555,0 -2.617325,-1.89634 -1.923829,-2.58984 z m -2.714843,2.91015 c 0.593032,-0.0203 0.997083,0.75373 1.771484,2.92969 0.797576,2.24108 0.409225,2.20747 -1.724609,-0.15039 -1.034763,-1.1434 -1.323791,-2.14727 -0.72461,-2.51758 0.26017,-0.16079 0.480057,-0.25494 0.677735,-0.26172 z m -61.2480471,6.69531 c -0.8626454,-0.011 -1.0825068,1.89868 -0.7792969,6.73438 1.3157859,20.98464 1.689737,35.53574 2.0761719,80.75 0.2350355,27.5 0.7668838,61.7 1.1816406,76 0.4962965,17.11133 0.3919939,28.27342 -0.3046875,32.65039 -0.6169827,3.87625 -0.7593641,10.13366 -0.3398438,15 C 7.9259167,359.39566 6.8756942,362 2.3457031,362 c -1.56770408,0 -2.34555012928,0.58008 -2.34374997,1.75 0.00231617,1.50532 1.05095017,1.7594 7.49999997,1.8125 C 11.625472,365.59644 15,365.25894 15,364.8125 15,364.36607 14.107437,364 13.017578,364 c -1.812462,0 -1.96307,-0.61868 -1.771484,-7.25 C 11.361297,352.7625 11.12032,320.925 10.710938,286 10.301557,251.075 9.7572767,204.08128 9.5019531,181.57031 9.0278476,139.77014 8.9577826,139.06223 5.2949219,139.01562 Z m 111.0703081,3.75586 c 0.53743,-0.12825 0.61093,1.39681 0.61915,4.47852 0.0152,5.7256 0.003,5.75 -2.98438,5.75 -3.55008,0 -3.55648,-0.0269 -1.03906,-4.78906 1.86547,-3.52886 2.86687,-5.3112 3.40429,-5.43946 z m 200.88672,3.45313 C 316.60039,145.97496 316,146.91297 316,149.25 c 0,1.87917 0.29935,3.71732 0.66602,4.08398 1.58833,1.58834 2.43281,0.40549 2.14453,-3.00586 -0.20411,-2.41524 -0.90703,-3.85375 -1.5586,-4.10351 z m -0.0352,8.86328 c -0.28013,-0.1133 -0.51798,-0.12153 -0.64453,0.006 -0.2531,0.2531 -0.66517,25.1089 -0.91602,55.23633 -0.42057,50.51011 -0.32775,54.75218 1.19336,54.45508 1.18323,-0.23111 1.67603,-1.4467 1.74023,-4.30274 0.002,-0.10675 0.0128,-0.15469 0.0156,-0.25586 -0.008,-0.25299 -0.003,-0.49004 0.004,-0.65625 0.0521,-0.35051 0.0245,-0.70248 0.0195,-1.05664 0,-0.47868 0.002,-0.95686 0.002,-1.43555 -6e-4,-0.4162 -1.2e-4,-0.83182 0,-1.24804 3e-5,-0.69928 -10e-6,-1.39837 0,-2.09766 -0.0298,-0.212 0.0211,-0.42819 0,-0.64062 -0.0877,-0.88062 -0.0192,0.17699 -0.11133,-0.51758 -0.058,-0.43569 -0.0488,-0.52901 -0.0508,-0.92188 0.008,-0.10196 0.0101,-0.20305 0.0156,-0.30468 l -1.25586,-0.25196 0.44531,-13.29687 c 0.24419,-7.31385 0.82573,-18.69883 1.29297,-25.29883 1.14691,-16.20057 0.5622,-55.37139 -0.84766,-56.78125 -0.29846,-0.29847 -0.62222,-0.51755 -0.90234,-0.63086 z m -195.64453,4.00586 c 0.53379,-0.53378 8.37255,3.00874 9.03711,4.08398 0.28227,0.4568 -0.49726,2.6285 -1.73243,4.82618 -2.23316,3.97337 -4.51574,5.13373 -5.40429,2.74609 -0.8542,-2.29534 -2.3132,-11.24343 -1.90039,-11.65625 z M 134.88672,164 c 0.46926,0 1.40795,2.1375 2.08594,4.75 0.67799,2.6125 1.89453,6.87642 2.70312,9.47656 0.80815,2.60014 1.173,5.20847 0.81055,5.79492 -0.36244,0.58645 -0.13942,1.69324 0.49609,2.45899 0.84849,1.02232 0.86405,1.93642 0.0586,3.44141 -0.60331,1.12728 -1.51168,3.96909 -2.01954,6.31445 -0.50785,2.34537 -2.6379,11.76973 -4.73437,20.94336 -2.09646,9.17363 -4.08363,16.9508 -4.41602,17.2832 -0.85249,0.85249 -1.676,-7.91942 -2.85742,-30.46289 -0.56206,-10.725 -1.26901,-21.38461 -1.57031,-23.6875 -0.46078,-3.52195 -0.22117,-4.36088 1.50586,-5.28516 1.12925,-0.60436 3.18484,-3.33224 4.56836,-6.0625 C 132.90111,166.23459 134.41747,164 134.88672,164 Z m 93.96094,7.08008 c 0.43526,-0.0632 0.81917,0.43041 1.57031,1.41992 1.99919,2.63363 1.95289,3.23153 -0.35156,4.46484 -4.80339,2.57069 -6.47827,0.42435 -3.09375,-3.96484 0.95376,-1.23688 1.43973,-1.85677 1.875,-1.91992 z m -13.97657,0.5 c 0.49665,-0.30695 1.45901,0.1127 2.13868,0.93164 1.00476,1.21067 0.94306,1.48828 -0.32813,1.48828 -1.86688,0 -3.08702,-1.63102 -1.81055,-2.41992 z m -3.77929,3.32617 c 0.30297,-0.26944 1.33761,0.0908 2.9082,1.25195 1.65,1.2199 3,2.35773 3,2.5293 0,0.95932 -3.08714,0.0808 -4.42773,-1.25977 -1.3539,-1.35389 -1.78344,-2.25204 -1.48047,-2.52148 z m 24.39453,3.41016 c 1.03281,0.0488 1.65301,0.40519 2.41601,1.0957 0.96524,0.87353 2.16913,1.59551 2.67578,1.60351 0.50669,0.008 2.70389,1.52166 4.88086,3.36329 3.7386,3.1627 3.86176,3.44292 2.24219,5.0625 -0.94308,0.94308 -2.17644,2.57962 -2.74219,3.63671 -1.35998,2.54115 -3.20957,2.38455 -10.86328,-0.91796 -6.27288,-2.70669 -7.04635,-3.55558 -8.42773,-9.25586 -0.59678,-2.46261 -0.34428,-2.6585 4.92578,-3.83789 2.4147,-0.54039 3.85976,-0.7988 4.89258,-0.75 z M 208.67383,179 c 0.25144,0 1.32963,0.46721 2.39453,1.03711 1.90951,1.02196 1.90825,1.0906 -0.0859,5 -1.92899,3.78114 -4.19675,5.04318 -5.4414,3.0293 C 204.97148,187.14526 207.78614,179 208.67383,179 Z m 7.99805,2.70312 c 0.23544,-0.055 0.44094,0.009 0.62109,0.18946 0.72062,0.72062 -0.008,3.50871 -2.375,9.0664 -1.87936,4.41348 -3.73966,8.02821 -4.13281,8.03321 -0.39315,0.005 -1.17872,-0.85976 -1.7461,-1.91992 C 207.95228,195.04161 208.593,192 210.10742,192 210.59857,192 211,191.60573 211,191.125 c 0,-0.48072 1.18235,-2.9876 2.62695,-5.57227 1.36434,-2.44107 2.33859,-3.6847 3.04493,-3.84961 z m -98.16211,4.73829 c 0.5979,0.10261 0.42072,1.03711 -0.67579,2.77734 -0.79055,1.25467 -2.05642,4.21696 -2.8125,6.58203 -1.66468,5.20724 -3.01665,6.32366 -3.03515,2.50781 -0.008,-1.54496 -0.24972,-3.70859 -0.53711,-4.80859 -0.3791,-1.45105 0.46834,-2.78159 3.08398,-4.84766 2.00562,-1.58421 3.37866,-2.31355 3.97657,-2.21093 z m -102.355473,1.8164 C 15.538848,188.16989 15,188.53305 15,189.41602 15,190.28685 15.713151,191 16.583984,191 c 0.870834,0 1.405209,-0.53438 1.1875,-1.1875 -0.309037,-0.92711 -1.001738,-1.46677 -1.617187,-1.55469 z m 235.656253,0.69727 3.45312,2.03906 c 1.89972,1.12086 4.19937,2.85965 5.10938,3.86524 2.09036,2.30976 7.62695,13.07132 7.62695,14.82421 0,2.33717 -2.04613,1.40145 -3.79688,-1.73632 -1.0212,-1.83029 -2.78441,-3.27853 -4.40234,-3.61524 -3.36526,-0.70034 -5.20634,-2.76794 -6.75195,-7.58203 -0.66219,-2.0625 -1.61964,-3.75 -2.12695,-3.75 -1.11681,0 -1.11651,0.45658 -0.004,5.25 0.47895,2.0625 0.6749,3.75 0.43555,3.75 C 250.55695,202 245,197.63411 245,197.00781 c 0,-0.33909 1.53143,-2.28928 3.4043,-4.33398 z m -106.21485,1.45898 c 1.13305,0.0246 2.93552,0.69719 5.9043,2.0293 2.2,0.98714 5.8,2.35615 8,3.04297 3.96151,1.23675 3.99677,1.29061 3.62695,5.63086 -0.20537,2.41034 -0.65537,10.90781 -1,18.88281 -0.50749,11.74381 -0.89468,14.44178 -2.03906,14.19531 -0.77713,-0.16738 -4.37713,-0.41693 -8,-0.55469 -3.62287,-0.13775 -6.57801,-0.67544 -6.56641,-1.19531 0.0116,-0.51986 1.01129,-5.22031 2.22266,-10.44531 3.77329,-16.2753 5.49019,-27.16606 4.44531,-28.21094 -1.40483,-1.40483 -2.06192,0.15261 -2.66406,6.32422 -0.59156,6.06312 -1.63075,11.39624 -4.07422,20.88672 -0.92044,3.575 -1.89875,8.20266 -2.17187,10.2832 -0.49634,3.78095 -0.49782,3.78265 -4.88672,3.5 -2.41507,-0.15554 -4.44417,-0.5082 -4.50977,-0.7832 -0.43079,-1.80665 3.17735,-20.32273 4.56055,-23.4043 1.1923,-2.65627 3.40508,-10.36306 5.26172,-18.32226 0.2942,-1.26119 0.75757,-1.884 1.89062,-1.85938 z M 17.058594,192 c -1.350368,0 -2.286374,1.82225 -1.548828,3.01562 0.345464,0.55897 1.046597,0.75785 1.558593,0.44141 C 18.282976,194.70636 18.275399,192 17.058594,192 Z m 211.921876,1 c 0.59076,0 0.73384,1.88918 0.35937,4.75 C 228.49407,204.21151 228,204.36453 228,198.16602 228,195.32435 228.44099,193 228.98047,193 Z m -26.38477,0.31055 c 0.65697,-0.0124 1.19856,0.062 1.46485,0.22656 1.63728,1.0119 4.53775,7.63651 6.33203,14.46289 0.93967,3.575 2.13382,7.4 2.6543,8.5 1.01103,2.13682 5.75417,14.80599 6.66406,17.79883 0.57759,1.89982 0.85557,1.87537 -10.82227,0.89844 -3.58952,-0.30028 -3.61666,-0.3386 -4.71679,-6.5 -0.60869,-3.40886 -2.04495,-10.02227 -3.19141,-14.69727 -1.14645,-4.675 -2.33548,-11.02563 -2.64258,-14.11328 -0.54044,-5.43362 -0.47337,-5.63596 2.09766,-6.28125 0.73049,-0.18336 1.50319,-0.28255 2.16015,-0.29492 z M 193.35547,195 c 0.88327,0 1.81295,1.0125 2.06641,2.25 0.25342,1.2375 1.83583,9.225 3.51562,17.75 1.67978,8.525 3.33437,16.5125 3.67578,17.75 0.44319,1.6064 0.19178,2.25 -0.875,2.25 -2.64308,0 -3.58008,-2.34233 -5.21484,-13.02734 -1.75309,-11.45846 -2.99958,-18.71055 -4.07617,-23.72266 -0.56004,-2.60731 -0.38017,-3.25 0.9082,-3.25 z m -6.60547,1.1875 c 1.7875,-0.17235 3.25377,0.0526 3.25977,0.5 0.036,2.76166 4.22371,27.42127 5.47851,32.26367 0.83193,3.21055 1.51172,6.11025 1.51172,6.44336 0,0.63236 -2.61229,0.59444 -7.20312,-0.10547 -3.1786,-0.48461 -3.52022,-1.38395 -4.30274,-11.28906 -0.32589,-4.125 -0.91471,-9.975 -1.30859,-13 -0.39388,-3.025 -0.70918,-7.525 -0.70117,-10 0.0148,-4.34228 0.12953,-4.51012 3.26562,-4.8125 z M 174.95508,197 c 4.82242,0 4.96695,0.0868 5.44531,3.25 1.4208,9.39534 2.92088,24.58829 3.03516,30.75 0.0648,3.49209 0.0546,3.49977 -4.66993,3.67773 -2.60435,0.0981 -4.96479,-0.19058 -5.24414,-0.64257 -0.42183,-0.68254 -3.47026,-31.76339 -3.50976,-35.78516 -0.008,-0.83346 1.63973,-1.25 4.94336,-1.25 z M 16,198 c -0.55,0 -1,0.675 -1,1.5 0,0.825 0.45,1.5 1,1.5 0.55,0 1,-0.675 1,-1.5 0,-0.825 -0.45,-1.5 -1,-1.5 z m 151.11133,0 c 0.48923,0 0.89344,0.5625 0.89844,1.25 0.008,1.04342 0.52281,8.12744 2.30273,31.75 0.1591,2.11159 -0.29196,2.5463 -2.90039,2.80078 l -3.08789,0.30274 0.2207,-5.95118 C 165.16296,211.56031 166.31776,198 167.11133,198 Z M 16,203 c -0.55,0 -1,0.45 -1,1 0,0.55 0.45,1 1,1 0.55,0 1,-0.45 1,-1 0,-0.55 -0.45,-1 -1,-1 z m -0.28125,4 c -1.350393,0 0.843249,99.78739 2.226562,101.28516 0.398856,0.43186 0.523924,-1.64766 0.277344,-4.6211 -0.246581,-2.97344 -0.06066,-5.64479 0.414063,-5.9375 0.474725,-0.29271 4.013281,0.97386 7.863281,2.81641 14.614128,6.9941 29.346886,10.63558 65.5,16.18945 5.973314,0.91762 38.89009,0.70952 39.85156,-0.25195 1.75478,-1.75477 -4.3007,-2.45101 -21.41797,-2.46485 C 88.8908,313.99833 66.54056,311.13172 53,306.64844 c -4.125,-1.36579 -9.075,-2.77432 -11,-3.12891 -3.957008,-0.72887 -7.480298,-1.94304 -14,-4.82422 -2.475,-1.09374 -5.625,-2.29125 -7,-2.66211 l -2.5,-0.67578 -0.275391,-15.17773 C 18.072784,271.83115 18.200202,265 18.507812,265 c 0.307612,0 2.810163,1.14044 5.5625,2.53516 2.752339,1.39471 5.407063,2.28806 5.898438,1.98437 0.491374,-0.30368 1.150911,-0.13417 1.466797,0.37695 0.315886,0.51111 2.373194,1.23231 4.570312,1.60352 C 38.202977,271.8712 40,272.38369 40,272.63672 c 0,0.25304 -1.224919,1.51249 -2.722656,2.80078 l -2.72461,2.34375 3.330078,3.10937 c 3.263391,3.04846 8.316422,4.21301 9.558594,2.20313 0.308007,-0.49837 1.461095,-0.67032 2.560547,-0.38281 1.6509,0.43172 2.003037,0.0237 2.029297,-2.34375 C 52.065143,277.31225 54.022509,274 55.792969,274 57.406825,274 61,279.50763 61,281.98047 c 0,1.74565 -0.538784,2.13409 -2.75,1.98828 -4.726537,-0.31165 -4.819846,-0.0396 -0.904297,2.62109 4.222241,2.86908 4.442845,2.83958 4.994141,-0.65039 0.410169,-2.59656 1.506567,-2.76891 8.572265,-1.34961 2.614303,0.52513 3.705268,0.28636 4.660157,-1.01953 1.092031,-1.49344 1.960217,-1.57335 7.005859,-0.64062 3.167883,0.58562 5.924007,0.90216 6.123047,0.70312 0.967634,-0.96764 -5.354656,-3.81459 -9.507813,-4.28125 -3.637938,-0.40877 -5.437781,-1.29433 -8.005859,-3.93945 C 68.899551,273.05553 66.965812,272 64.9375,272 c -3.317538,0 -3.288747,0.0517 -1.962891,-3.43555 1.007123,-2.64893 5.004615,-3.68995 5.046875,-1.31445 0.0228,1.28164 3.916912,-3.14678 3.957032,-4.5 0.03955,-1.33396 -6.470231,-0.79441 -8.625,0.71484 -2.784087,1.95005 -3.214193,1.2808 -2.757813,-4.27734 0.835989,-10.18131 1.158416,-10.93004 5.121094,-11.86719 3.027344,-0.71595 4.072142,-1.68677 6.025391,-5.60351 1.29943,-2.60568 2.088186,-5.18448 1.751953,-5.72852 -0.988096,-1.59877 -6.097454,-1.13386 -8.376953,0.76172 -4.688201,3.89861 -7.207802,16.53764 -5.501954,27.59375 0.518906,3.36318 0.360091,3.79828 -1.259765,3.48633 -1.440139,-0.27735 -2.011563,-1.64601 -2.576172,-6.16602 -0.399148,-3.1954 -1.184399,-7.46399 -1.746094,-9.48633 -0.561695,-2.02233 -1.024244,-4.84453 -1.027344,-6.27148 C 52.998672,242.56291 49.077649,238 46.210938,238 c -1.663891,0 -2.631937,1.01043 -3.828126,4 -0.880262,2.2 -1.813821,4 -2.074218,4 -0.260396,0 -3.819635,-1.15455 -7.910156,-2.56641 -8.45383,-2.91786 -14.510395,-3.05168 -8.398438,-0.18554 1.925,0.90271 5.278347,1.92808 7.451172,2.27929 2.745409,0.44377 5.145084,1.83259 7.867187,4.55469 2.154381,2.15438 4.231149,3.91797 4.615235,3.91797 0.384087,0 1.712356,2.44472 2.951172,5.43359 2.31122,5.57623 5.124588,9.12552 5.105468,6.43946 -0.0054,-0.75484 -1.061443,-3.62886 -2.345703,-6.38672 -1.548168,-3.32457 -2.073361,-5.68343 -1.560547,-7 0.425398,-1.09214 1.066561,-3.33043 1.423828,-4.97266 0.919782,-4.22783 2.056935,-1.75427 3.447266,7.49414 2.395598,15.93542 2.1435,15.09491 4.431641,14.78125 C 58.72702,269.60533 59.5,270.04854 59.5,271 c 0,2.06164 -3.589839,1.31634 -5.279297,-1.0957 C 52.623228,267.62359 51,267.4202 51,269.5 c 0,2.23641 -0.599158,1.91883 -5.660156,-3 C 41.436953,262.70674 38,260.79517 38,262.41797 c 0,0.23002 -0.252566,1.07437 -0.560547,1.87695 -0.401689,1.04679 0.427143,1.64576 2.929688,2.11524 1.918735,0.35995 4.531847,1.56639 5.808593,2.68164 l 2.322266,2.02734 -5,-0.64648 c -4.734679,-0.61152 -9.008957,-1.93125 -19.611328,-6.06055 l -4.611328,-1.79688 -0.63086,-14.55664 C 17.172107,214.00825 16.672412,207 15.71875,207 Z m 132.87305,29.20117 c 1.30347,-0.0104 2.90442,0.0791 4.83203,0.25977 6.95135,0.6514 8.04228,1.14073 7.32617,3.28906 -0.46675,1.40025 -15.95857,0.86882 -16.50977,-0.56641 -0.7778,-2.02524 0.44116,-2.95134 4.35157,-2.98242 z m 26.24609,0.0332 c 0.20349,-0.009 0.44974,0.0452 0.74414,0.1582 0.86998,0.33385 3.00748,0.60837 4.75,0.60937 2.82881,0.002 3.18029,0.32342 3.27539,3 0.0926,2.60682 -0.2334,2.98859 -2.5,2.92969 C 176.83012,242.82063 174,240.95329 174,238.24023 c 0,-1.37028 0.22741,-1.97809 0.83789,-2.00585 z m -7.41016,0.51562 c 3.08946,0 3.26817,0.12741 3.72657,2.64648 0.18979,1.04294 -0.1043,1.98979 -0.6543,2.10547 -1.48528,0.3124 -5.89559,-0.57212 -6.70898,-1.3457 -1.32341,-1.25862 0.96995,-3.40625 3.63671,-3.40625 z M 135.5,237.23828 c 4.41134,-0.28774 7.60866,1.09832 5.99219,2.59766 -0.5454,0.50588 -3.15453,1.14796 -5.79688,1.42578 -4.4614,0.46908 -4.78254,0.35213 -4.5,-1.62891 0.24496,-1.71748 1.08433,-2.18447 4.30469,-2.39453 z m 52.90234,1.05078 c 0.71728,-0.0172 1.6462,0.0118 2.84766,0.0645 4.5486,0.19928 5.29223,0.52358 5.56641,2.41601 0.2961,2.0437 -0.0419,2.1689 -5.24219,1.95703 -4.97842,-0.20283 -5.55841,-0.45439 -5.56641,-2.41406 -0.006,-1.50203 0.24271,-1.9718 2.39453,-2.02344 z M 68.011719,239 c 2.10665,0 2.129136,2.46809 0.03711,4.16211 C 65.324266,245.36832 64,245.5029 64,243.57227 64,242.00252 66.633931,239 68.011719,239 Z m -21.896485,3 c 1.005703,0 1.193569,5.03033 0.277344,7.41797 C 45.483246,251.78765 42,251.42837 42,248.96484 42,246.67398 44.761734,242 46.115234,242 Z m 223.968746,2 c -0.46462,0 -0.78634,2.47414 -0.71484,5.49805 0.0733,3.10143 0.55872,5.3556 1.11328,5.17187 0.54069,-0.17914 1.55319,0.7741 2.25,2.11719 1.69356,3.26436 1.66481,3.30037 -1.35742,1.73242 -2.82255,-1.46436 -5.69007,-0.98376 -5.09375,0.85352 0.20115,0.61973 2.24587,2.17247 4.54297,3.45117 4.03795,2.24778 5.46946,5.25821 3.17578,6.67578 -0.55,0.33992 -1,-0.28281 -1,-1.38281 0,-3.35208 -1.88182,-3.41122 -4.62891,-0.14649 -2.58357,3.0704 -7.7046,6.36181 -8.5625,5.50391 -0.24462,-0.24462 -3.68227,0.17192 -7.63867,0.92578 -4.054,0.77245 -7.43164,0.98566 -7.74023,0.48633 C 243.37343,273.17766 242,274.02276 242,276.38281 c 0,1.54236 -0.70573,2.56779 -2,2.90625 -1.82146,0.47632 -2.00504,0.0186 -2.05664,-5.13281 l -0.0566,-5.65625 -6.01367,-4.37891 c -4.55422,-3.31698 -6.29338,-4.09919 -7.16993,-3.22265 -1.83251,1.83254 0.42543,4.39727 5.39649,6.13086 2.53816,0.88516 4.52304,2.25403 4.71484,3.25 0.40734,2.11514 -1.13574,2.24337 -2.80468,0.23242 -1.29115,-1.55573 -3.46874,-1.06453 -2.4668,0.55664 0.31643,0.51199 0.20602,0.93164 -0.24414,0.93164 -0.45015,0 -1.37945,-0.9 -2.06641,-2 -1.213,-1.94206 -5.23242,-2.84088 -5.23242,-1.16992 0,0.45676 2.02281,2.2844 4.49609,4.06054 4.52884,3.25239 7.19864,6.74669 6.03907,7.90626 -0.34457,0.34458 -1.49889,0.0827 -2.56641,-0.58399 -2.5269,-1.57803 -2.96875,-1.53027 -2.96875,0.32617 0,1.30535 1.35538,1.46834 8.92578,1.07422 4.90963,-0.2556 9.83623,-0.95031 10.94727,-1.54492 1.11105,-0.59462 4.74158,-1.45323 8.06836,-1.9082 5.32688,-0.72849 6.25757,-0.59895 7.79297,1.09765 3.01139,3.32756 5.23936,4.07534 7.10742,2.38477 1.50047,-1.35791 1.88914,-1.33857 3.73047,0.17187 1.13074,0.92755 2.8392,2.94453 3.79687,4.48438 1.27657,2.05262 2.26004,2.63603 3.68555,2.18359 2.52277,-0.8007 2.478,-0.48581 -0.92383,6.29688 -1.57827,3.14681 -3.18457,6.7332 -3.56836,7.9707 -0.39879,1.28589 -0.27359,2.25 0.29102,2.25 0.54336,0 1.29336,-1.38734 1.66601,-3.08398 C 279.3627,298.07707 286.94571,290 289.70703,290 c 1.12693,0 2.60828,0.675 3.29297,1.5 1.88704,2.27374 2.72297,1.82589 3.26758,-1.75 0.27223,-1.7875 0.4144,-3.34556 0.3164,-3.46289 -0.098,-0.11733 -2.36481,0.44517 -5.03906,1.25 -6.17016,1.85695 -7.54492,1.83887 -7.54492,-0.0937 0,-0.89092 1.99448,-2.43825 4.66406,-3.61914 3.90659,-1.72806 4.38312,-2.21771 2.94336,-3.02344 -1.40065,-0.78384 -1.48734,-1.24026 -0.47265,-2.46289 1.0846,-1.30686 0.73663,-1.40755 -2.69532,-0.78711 -5.13637,0.92858 -5.18945,0.96873 -5.18945,4.01953 0,1.43414 -0.72737,3.33675 -1.61719,4.22657 -2.58789,2.58787 -4.16539,0.0419 -3.93945,-6.35547 0.21469,-6.07876 -0.23837,-6.15049 -6.125,-0.97461 -3.50047,3.07781 -5.03247,2.82805 -5.16992,-0.84375 C 266.27173,274.23818 268.42424,273 274.43359,273 277.82536,273 279,272.61431 279,271.5 c 0,-1.68421 1.12313,-1.9493 2.55078,-0.60352 0.5599,0.52779 1.94969,0.51202 3.38477,-0.0371 l 2.43359,-0.93165 -3.16602,-2.21484 c -2.59823,-1.81582 -3.17134,-2.89212 -3.18554,-5.98828 -0.0147,-3.20781 -0.43061,-3.91979 -2.76758,-4.74805 -4.99424,-1.77005 -5.76364,-2.5936 -5.44141,-5.8125 C 273.12405,248.01278 271.59724,244 270.08398,244 Z m -98.14648,1.95898 c 1.19036,-0.1289 2.03392,3.64486 2.04688,9.58008 0.008,3.87195 0.69062,9.63144 1.51562,12.79883 1.84541,7.08502 1.96942,14.57967 0.25,15.10938 -6.26621,1.93046 -12.38024,0.91856 -11.97852,-1.98243 0.14971,-1.08109 0.41776,-4.30782 0.59375,-7.17187 0.17599,-2.86405 0.85449,-5.85145 1.50782,-6.63867 0.65334,-0.78722 2.00682,-5.76513 3.00976,-11.0625 1.00294,-5.29737 2.13996,-9.94856 2.52539,-10.33399 0.18281,-0.1828 0.35925,-0.28041 0.5293,-0.29883 z m 124.62109,16.55664 c -0.27187,-0.0712 -0.64609,-0.0352 -1.05859,0.12305 -0.825,0.31659 -1.5,0.75259 -1.5,0.96875 0,0.21615 0.675,0.39258 1.5,0.39258 0.825,0 1.5,-0.43601 1.5,-0.96875 0,-0.26637 -0.16953,-0.44439 -0.44141,-0.51563 z M 316,268 c -0.55,0 -1,1.35 -1,3 0,1.65 0.45,3 1,3 0.55,0 1,-1.35 1,-3 0,-1.65 -0.45,-3 -1,-3 z m -96.14844,5.10156 c -0.7143,-0.0533 -0.85156,0.35953 -0.85156,1.20508 0,0.71883 1.2375,1.79686 2.75,2.39453 6.47753,2.55959 8.65728,0.74669 2.41406,-2.00781 -2.30678,-1.01775 -3.5982,-1.53848 -4.3125,-1.5918 z m -174.306638,0.38282 c 0.407447,-0.0112 0.854534,0.0537 1.375,0.17773 4.085036,0.97318 4.238137,1.30617 2.029297,4.4082 C 47.47116,280.14605 46.025659,281 43.990234,281 c -3.944905,0 -4.478733,-1.42014 -1.865234,-4.95508 1.341541,-1.81453 2.197579,-2.5271 3.419922,-2.56054 z m 17.541016,1.39453 c 2.054845,0.0995 5.165986,1.27416 7.148437,3.05468 3.786332,3.40066 2.958996,5.25333 -1.765625,3.95508 C 65.295273,281.01664 61,277.60778 61,275.96094 c 0,-0.81429 0.853023,-1.14177 2.085938,-1.08203 z M 206.98828,276 c -0.40439,0 -0.43692,1.45996 -0.0723,3.24414 0.42774,2.09141 1.34853,3.3758 2.59179,3.61524 1.68268,0.32404 1.75565,0.16302 0.56836,-1.26758 -1.74714,-2.10516 -0.6223,-3.2914 1.47266,-1.55274 2.34797,1.94865 11.95193,5.79218 19.95117,7.98242 3.85,1.05416 7.9,1.71119 9,1.46094 1.1,-0.25024 3.9125,-0.46075 6.25,-0.46875 2.3375,-0.008 4.25,-0.46367 4.25,-1.01367 0,-0.57962 -3.25791,-1.00472 -7.75,-1.01172 -9.51477,-0.0146 -15.24751,-1.48553 -26.68164,-6.84375 C 211.70359,277.86471 207.39269,276 206.98828,276 Z m 108.96484,5.08203 C 315.3438,280.98222 315,281.42559 315,282.42578 c 0,0.78467 0.7875,1.63325 1.75,1.88477 0.52711,0.13775 0.84886,0.19963 1.22461,0.28125 0.0346,-0.16765 0.0828,-0.33297 0.11328,-0.5 0.0512,-0.10921 -0.005,-0.22535 0.0117,-0.33594 0.0177,-0.1158 0.0493,-0.22926 0.0742,-0.34375 0.0453,-0.0846 0.11246,-0.16061 0.13476,-0.25391 0.0192,-0.0804 -0.0206,-0.16359 -0.0156,-0.24609 0.002,-0.0325 0.008,-0.065 0.0117,-0.0977 -0.96645,-1.02736 -1.7836,-1.63938 -2.35157,-1.73242 z m -194.71093,1.38086 c -0.36079,-0.0323 -0.76377,-0.0218 -1.23047,0.0254 -0.62227,0.063 -1.35897,0.19394 -2.26563,0.38086 -2.3356,0.48152 -8.74609,0.56489 -14.24609,0.18555 -8.998521,-0.62063 -12.891387,-0.1121 -11.302734,1.47656 0.310327,0.31032 3.430586,0.94921 6.933593,1.41992 5.168891,0.69457 13.722391,0.73189 25.619141,0.11328 0.77407,-0.0403 0.48674,-0.82771 -0.75391,-2.06836 -0.96243,-0.96243 -1.67154,-1.43645 -2.7539,-1.5332 z m 82.03711,0.91602 c -0.10514,0.10514 -0.17717,0.45463 -0.20118,1.03711 -0.0434,1.05416 0.1931,1.64479 0.5254,1.3125 0.33225,-0.33229 0.36876,-1.19415 0.0801,-1.91602 -0.15961,-0.39887 -0.29916,-0.53873 -0.40429,-0.43359 z m 4.75976,0.6289 c -0.17348,0.0107 -0.0289,0.44909 0.29102,1.32422 0.36827,1.00748 0.66992,2.24498 0.66992,2.75 0,0.50501 1.37613,0.91794 3.05859,0.91797 1.7847,0 2.80199,-0.41658 2.44141,-1 -0.33992,-0.55 -1.11873,-1 -1.73047,-1 -0.61173,0 -2.01031,-0.7875 -3.10937,-1.75 -0.95469,-0.83605 -1.44761,-1.25287 -1.6211,-1.24219 z m 5.3125,0.30664 c -0.60884,0.60884 7.63356,6.06133 11.06055,7.31641 4.02143,1.4728 5.34437,1.57204 6.03711,0.45117 0.31226,-0.50524 -0.73159,-1.20574 -2.32031,-1.55469 -1.58872,-0.34894 -5.47602,-1.97628 -8.63868,-3.61718 -3.16267,-1.64089 -5.9253,-2.80909 -6.13867,-2.59571 z m -37.99218,1.20899 c 0.44926,0.22059 0.64634,1.38196 0.65234,3.66797 0.006,2.36996 0.70851,6.55859 1.5625,9.30859 0.85399,2.75 1.7831,9.8375 2.06445,15.75 0.58236,12.23793 0.88491,11.90565 -7.63867,8.41211 -3.025,-1.23985 -8.34965,-3.10502 -11.83203,-4.14258 -7.22649,-2.15312 -7.06033,-1.30209 -2.62695,-13.51953 1.49685,-4.125 2.99942,-9.75 3.33984,-12.5 l 0.61914,-5 6.07227,-0.58203 c 3.34017,-0.31989 6.60267,-0.90852 7.25,-1.30859 0.20813,-0.12865 0.38734,-0.15971 0.53711,-0.0859 z M 316.37109,287 c -1.121,0 -1.31628,5.87292 -1.11523,33.75 L 315.5,354.5 h -3.48633 -3.48633 l -0.26172,-20 c -0.26571,-20.20473 -0.4802,-22.5 -2.0957,-22.5 -1.68101,0 -1.93968,11.54905 -0.62695,28.02344 0.72213,9.06252 1.34536,16.56855 1.38476,16.67968 0.0394,0.11123 1.75977,0.0237 3.82227,-0.19335 1.82987,-0.19255 4.80273,-0.33986 7.09766,-0.40039 -0.012,-0.38949 -0.0276,-0.77914 -0.0391,-1.16797 -0.0194,-0.90211 -0.0114,-1.80462 -0.004,-2.70703 -0.059,-0.0532 -0.21352,-0.0887 -0.24805,-0.14454 -0.50501,-0.81713 -0.30627,-1.87964 0.25391,-2.72461 -2.3e-4,-0.42903 -0.002,-0.85805 -0.002,-1.28711 4e-4,-0.69283 1.1e-4,-1.3854 0,-2.07812 H 317.5 v -27 c 0,-14.85 0.225,-26.99814 0.5,-26.99414 0.0249,3.6e-4 0.12831,0.15036 0.16602,0.17383 -0.0151,-0.17033 -0.0174,-0.33924 -0.006,-0.51953 0.25873,-0.74464 0.0841,-0.1863 0.0215,-0.1543 -0.031,0.0159 4e-4,-0.0687 0,-0.10352 -0.001,-0.0682 -0.005,-0.13512 -0.008,-0.20312 -0.003,-0.14012 0.0204,-0.20134 0.082,-0.30078 -0.003,-0.0124 -0.007,-0.0247 -0.01,-0.0371 -0.003,-0.005 -0.004,-0.006 -0.006,-0.01 -0.008,-0.02 -0.017,-0.0854 -0.0117,-0.0645 0.006,0.0246 0.0114,0.0496 0.0176,0.0742 0.007,0.0135 0.01,0.0138 0.0176,0.0254 8.8e-4,-0.001 0.003,-0.004 0.004,-0.006 -0.0739,-0.19995 -0.17857,-0.39385 -0.17383,-0.61524 0.002,-0.0292 0.0144,-0.06 0.006,-0.0879 -0.0207,-0.0649 -0.0651,-0.11894 -0.0918,-0.18164 -0.0547,-0.12809 -0.10674,-0.25708 -0.15234,-0.38867 -0.22887,-0.65992 -0.40036,-1.34719 -0.36328,-2.05078 C 317.07248,287.23563 316.67567,287 316.37109,287 Z m -113.09179,3.37891 c -0.10514,0.10514 -0.17712,0.45463 -0.20118,1.03711 -0.0434,1.05416 0.1931,1.64479 0.5254,1.3125 0.33225,-0.33229 0.36876,-1.19415 0.0801,-1.91602 -0.15961,-0.39887 -0.29916,-0.53873 -0.40429,-0.43359 z m 115.04297,0.41601 c -0.002,0.003 -0.006,0.006 -0.008,0.01 -7.4e-4,0.001 -7.5e-4,0.005 -0.002,0.006 0.003,-0.005 0.006,-0.0105 0.01,-0.0156 z m -0.0449,0.10742 c -5.1e-4,0.002 -7.5e-4,0.002 -0.002,0.004 3.9e-4,-4e-4 0.007,0.01 0.006,0.008 -10e-4,-0.004 -0.003,-0.008 -0.004,-0.0117 z m -0.0117,0.0312 c -0.0164,0.0574 -0.0241,0.10236 0.002,0.0742 0.004,-0.004 0.008,-0.009 0.0117,-0.0137 -0.005,-0.0201 -0.009,-0.0405 -0.0137,-0.0606 z M 277.62305,291 c -0.78532,0 -1.94325,1.4625 -2.57422,3.25 -1.45116,4.11112 -2.39308,12.38461 -1.5625,13.72852 0.79302,1.28311 3.51367,1.34482 3.51367,0.0801 0,-0.51754 -0.47244,-1.23166 -1.04883,-1.58789 -1.31445,-0.81238 -0.22826,-8.91171 1.70508,-12.7207 1.20182,-2.36774 1.19617,-2.75 -0.0332,-2.75 z m -37.12305,1.06836 6.78516,1.75 c 9.78143,2.52125 25.71484,1.9873 25.71484,-0.86133 0,-0.50602 -1.43802,-0.58585 -3.25,-0.18164 -3.69238,0.82366 -7.46225,0.80898 -20.25,-0.0801 z M 202.63672,298 c -0.87138,0 -3.78658,9.90061 -4.71094,16 -0.45844,3.025 -1.70784,9.325 -2.77734,14 -1.0695,4.675 -1.73972,8.8375 -1.48828,9.25 1.28751,2.11221 2.88361,0.37549 2.97851,-3.24219 0.0576,-2.19607 0.68815,-4.69648 1.40039,-5.55469 1.30071,-1.56725 2.74893,-7.79658 3.39649,-14.61132 0.19124,-2.01254 0.66587,-6.40004 1.05468,-9.75 0.3888,-3.34996 0.45418,-6.0918 0.14649,-6.0918 z m 14.68359,4.03125 c -3.96155,0.033 -7.32031,1.8135 -7.32031,3.88086 0,0.80976 1.68382,1.09594 5.25,0.89062 4.5737,-0.26332 5.29192,-0.59257 5.57031,-2.55273 0.28415,-2.00076 -0.10355,-2.24705 -3.5,-2.21875 z m 12.63867,8.02344 c -1.58411,-0.17791 -2.17347,0.13121 -1.32812,0.97656 0.56702,0.56702 3.91874,1.88289 7.44922,2.92383 6.8761,2.02738 17.60231,2.77842 14.91992,1.04492 -0.825,-0.53316 -2.97415,-0.97638 -4.77539,-0.98438 -1.80124,-0.008 -5.83515,-0.91562 -8.96484,-2.01562 -3.13762,-1.10278 -5.71667,-1.76741 -7.30079,-1.94531 z m -14.25976,3.24219 c -0.65965,0.23689 0.82578,0.94439 3.30078,1.57031 2.475,0.62593 6.975,1.87144 10,2.76953 3.025,0.8981 10.675,2.01298 17,2.47656 6.325,0.46358 12.85,1.26453 14.5,1.7793 4.04786,1.26287 5.5,1.29642 5.5,0.12695 0,-0.53952 -1.0125,-1.16845 -2.25,-1.39648 -1.2375,-0.22802 -5.09449,-0.93534 -8.57031,-1.57227 -3.47582,-0.63694 -10.22582,-1.40163 -15,-1.69922 -4.77418,-0.29758 -11.96512,-1.42723 -15.98047,-2.51172 -4.01534,-1.08449 -7.84034,-1.77988 -8.5,-1.54296 z m -197.144532,0.28906 c -0.151946,-0.22935 -0.263907,0.85156 -0.269532,2.91406 -0.0075,2.75 0.180607,3.99361 0.417969,2.76367 0.237362,-1.22994 0.243539,-3.47994 0.01367,-5 -0.05746,-0.38001 -0.111462,-0.60128 -0.162109,-0.67773 z m 135.802732,6.10742 c 0.62877,-0.24129 4.29269,1.04938 8.14258,2.86914 3.84989,1.81976 9.42255,3.62314 12.38281,4.00586 l 5.38086,0.69531 -0.61133,6.11719 c -0.33694,3.36504 -0.90406,7.79615 -1.25976,9.8457 -0.5921,3.41175 -0.41126,3.81474 2.13086,4.78125 1.52714,0.58061 4.90906,2.84111 7.51562,5.02344 2.60655,2.18233 5.35094,3.9833 6.09961,4 0.89234,0.0199 0.74619,0.38741 -0.42383,1.06836 -1.07455,0.62543 -5.65092,0.84197 -11.5,0.54297 -5.34335,-0.27315 -16.8097,-0.10002 -25.48046,0.38672 -8.67081,0.48674 -17.33333,1.17948 -19.25,1.53906 -4.49498,0.84326 -4.47478,-0.57479 0.0566,-4.03125 2.06467,-1.5748 3.78102,-3.89731 4.11523,-5.56836 0.68747,-3.43738 3.1094,-5.81079 6.98633,-6.84766 2.72859,-0.72975 2.85864,-1.03266 2.90234,-6.69336 0.0648,-8.38528 1.46615,-17.21773 2.8125,-17.73437 z m -136.078123,3.68555 c -0.105141,0.10514 -0.177182,0.45463 -0.201172,1.03711 -0.04342,1.05416 0.193099,1.64479 0.525391,1.3125 0.332294,-0.33229 0.368937,-1.19415 0.08008,-1.91602 -0.159613,-0.39887 -0.299156,-0.53873 -0.404297,-0.43359 z m 214.785153,0.31054 c -1.33422,-0.0502 -3.11841,-0.0222 -5.31445,0.0996 -8.25836,0.45813 -10.5176,1.03665 -7.80078,1.99805 0.7971,0.28207 3.2721,2.24589 5.5,4.36523 3.181,3.026 4.58755,3.72996 6.55078,3.2793 5.86897,-1.3472 4.60644,-4.38641 -1.83398,-4.41602 -4.69659,-0.0216 -3.56439,-2.27501 1.6621,-3.30859 5.18558,-1.02549 5.23901,-1.86686 1.23633,-2.01758 z m 9.39649,0.0449 c -3.94386,0.42513 -4.03096,0.51594 -3.64063,3.85937 0.21987,1.88338 0.81049,3.67728 1.31055,3.98633 0.50006,0.30906 5.062,0.80378 10.13867,1.09961 5.07667,0.29582 9.41732,0.71465 9.64649,0.92969 0.22916,0.21501 1.66232,0.39062 3.18359,0.39062 1.92117,0 2.96631,-0.63467 3.42383,-2.07617 0.78972,-2.48819 0.72044,-2.57279 -2.78711,-3.45313 -2.27812,-0.57177 -2.6511,-0.41231 -2.14063,0.91797 1.04783,2.73061 -4.14189,2.00507 -6.42578,-0.89844 -2.64642,-3.36437 -7.78283,-5.2869 -12.70898,-4.75585 z m 3.8789,1.85937 c 3.04571,0.15303 6.66016,1.26733 6.66016,2.37109 0,1.97018 -8.35778,1.74915 -10.86133,-0.28711 -1.0886,-0.88541 -0.78784,-1.26324 1.5,-1.88085 0.73378,-0.19811 1.68594,-0.25414 2.70117,-0.20313 z m -227.851559,2.58008 c -0.381345,-0.37073 -0.535751,7.801 -0.341797,18.16015 L 18.5,365.16992 l 14,-0.57617 c 7.7,-0.31651 24.35,-0.80558 37,-1.08789 38.24988,-0.85361 57.47576,-1.79218 53,-2.58594 -5.79344,-1.02746 -28.597537,-1.38215 -38.5,-0.59961 -4.675,0.36944 -19.3,0.90449 -32.5,1.18946 -13.2,0.28498 -25.417313,0.77762 -27.148438,1.0957 l -3.146484,0.57812 -0.630859,-10.34179 c -0.346498,-5.68813 -0.801733,-13.4137 -1.011719,-17.16797 -0.209987,-3.75427 -0.692873,-7.12927 -1.074219,-7.5 z m -13.8242185,1.30469 c -5.728e-4,0.004 -0.00136,0.009 -0.00195,0.0137 0.00315,0.003 0.00661,0.005 0.00977,0.008 6.205e-4,-0.004 0.00332,-0.008 0.00391,-0.0117 -0.00488,-0.004 -0.00681,-0.006 -0.011719,-0.01 z M 142.05859,331 C 141.47613,331 141,331.45 141,332 c 0,0.55 0.19887,1 0.44141,1 0.24254,0 0.71867,-0.45 1.05859,-1 0.33992,-0.55 0.14105,-1 -0.44141,-1 z m 58.88282,2 c -0.58246,0 -0.78133,0.45 -0.44141,1 0.33992,0.55 0.81605,1 1.05859,1 0.24254,0 0.44141,-0.45 0.44141,-1 0,-0.55 -0.47613,-1 -1.05859,-1 z m 7.22461,3.52734 c -0.80232,0.38302 6.4043,4.06172 21.83398,11.15039 4.125,1.8951 8.61225,4.05738 9.97266,4.80469 2.42714,1.33328 4.02734,1.17822 4.02734,-0.39258 0,-0.92179 -10.54619,-5.86413 -20.17188,-9.45312 -3.66954,-1.36823 -7.71955,-3.15302 -9,-3.96484 -1.28039,-0.81181 -3.90312,-1.76039 -5.82812,-2.10743 -0.44087,-0.0795 -0.71937,-0.0918 -0.83398,-0.0371 z M 122,345 c -1.10443,0 -1.39593,7.27203 -0.33398,8.33398 C 122.84754,354.51551 123,354.0784 123,349.5 c 0,-2.475 -0.45,-4.5 -1,-4.5 z m 195.25977,20.12891 c -1.8466,0.0352 -4.28626,0.12646 -7.50977,0.25195 -7.2875,0.2837 -20.675,0.74941 -29.75,1.03516 -9.075,0.28576 -22.575,0.76332 -30,1.06054 -19.03881,0.76212 -56.00056,1.58984 -72.25,1.61914 -9.93697,0.0179 -13.75453,0.35528 -13.76562,1.21485 -0.0104,0.80332 -0.29067,0.75419 -0.86524,-0.15235 -0.65695,-1.03652 -4.55404,-1.33137 -17.10937,-1.29297 -8.94197,0.0273 -16.44933,0.2423 -16.6836,0.47657 -0.23427,0.23426 -1.97321,0.0767 -3.86328,-0.34961 -3.28097,-0.73998 -9.12207,-0.55436 -61.96289,1.98242 -19.799231,0.95052 -33.705697,1.40817 -58.25,1.91601 -4.0215516,0.0832 -5.25,0.47058 -5.25,1.6543 0,1.19604 0.73457363,1.41488 3.25,0.96485 1.7875,-0.31981 29.35,-0.78639 61.25,-1.03711 31.9,-0.25072 63.85,-0.67819 71,-0.94922 7.15,-0.27104 26.725,-0.76711 43.5,-1.10156 16.775,-0.33446 33.65,-0.79781 37.5,-1.0293 6.8796,-0.41365 68.56578,-1.62353 71.5,-1.40235 3.48781,0.2629 13.99876,0.12492 20.5,-0.26953 3.53592,-0.21453 7.58598,-0.42543 9.87305,-0.52539 -0.0244,-0.18544 -0.0229,-0.37019 0.0156,-0.57812 -0.3223,-0.30603 -0.54704,-0.69857 -0.42578,-1.0586 0.0649,-0.19262 0.19461,-0.33234 0.35742,-0.44336 -0.15375,-0.65649 -0.28807,-1.3175 -0.41015,-1.98046 -0.25217,0.003 -0.3719,-0.0112 -0.65039,-0.006 z m 1.4414,1.37109 c -0.37544,0.12939 -0.37653,0.49786 -0.27148,0.54883 0.0398,-0.0222 0.0784,-0.0446 0.12109,-0.0645 0.0534,-0.0786 0.10684,-0.23456 0.15039,-0.48438 z m -3.73242,0.0293 c 0.55113,0.12734 1.03125,0.50155 1.03125,1.02929 0,0.24254 -0.70113,0.44141 -1.55859,0.44141 -0.8575,0 -1.2771,-0.45666 -0.93164,-1.01562 0.2854,-0.4618 0.90785,-0.58243 1.45898,-0.45508 z m 8.02734,0.3789 c 1.1e-4,0.015 -7e-5,0.0299 0,0.0449 4e-5,-0.009 0.004,-0.0127 0.004,-0.0215 0,-0.01 -0.004,-0.014 -0.004,-0.0234 z" />
  </g>
</svg>
