<?xml version="1.0" encoding="UTF-8" standalone="no"?>
<!-- Created with Inkscape (http://www.inkscape.org/) -->

<svg
   version="1.1"
   id="svg2"
   width="417"
   height="473"
   viewBox="0 0 417 473"
   sodipodi:docname="5.svg"
   inkscape:version="1.1.2 (0a00cf5339, 2022-02-04)"
   xmlns:inkscape="http://www.inkscape.org/namespaces/inkscape"
   xmlns:sodipodi="http://sodipodi.sourceforge.net/DTD/sodipodi-0.dtd"
   xmlns="http://www.w3.org/2000/svg"
   xmlns:svg="http://www.w3.org/2000/svg">
  <defs
     id="defs6" />
  <sodipodi:namedview
     id="namedview4"
     pagecolor="#505050"
     bordercolor="#eeeeee"
     borderopacity="1"
     inkscape:pageshadow="0"
     inkscape:pageopacity="0"
     inkscape:pagecheckerboard="0"
     showgrid="false"
     inkscape:zoom="1.5835095"
     inkscape:cx="208.39786"
     inkscape:cy="233.34246"
     inkscape:window-width="1920"
     inkscape:window-height="1043"
     inkscape:window-x="0"
     inkscape:window-y="0"
     inkscape:window-maximized="1"
     inkscape:current-layer="g8" />
  <g
     inkscape:groupmode="layer"
     inkscape:label="Image"
     id="g8">
    <path
       id="path12"
       style="fill:#000000"
       d="m 169.55859,8.9375 c -4.4481,0.070403 -9.13507,0.3597659 -10.77148,0.8125 -4.20046,1.162111 -15.17474,10.342626 -17.03125,14.248047 -4.93805,10.387909 -4.97791,10.615283 -3.23242,18.460937 1.31965,5.931551 1.4057,8.093535 0.45898,11.609375 -1.14157,4.239501 -0.62123,13.499635 0.94727,16.841797 3.02493,6.445502 3.97149,7.747072 6.52539,8.97461 2.25183,1.082348 3.29364,1.127521 4.76758,0.207031 1.57653,-0.984556 2.19825,-0.800829 3.77734,1.115234 2.40141,2.913862 5.3891,11.812419 4.31445,12.84961 -0.44803,0.432412 -4.12208,1.464532 -8.16406,2.292968 -10.36057,2.123477 -22.28238,9.217881 -28.82227,17.150391 -2.72061,3.3 -5.25832,6.675 -5.63867,7.5 -1.31929,2.8616 -14.19985,18.30259 -16.18164,19.39844 -1.095645,0.60585 -3.249021,2.09818 -4.785154,3.3164 -2.776359,2.20177 -2.804558,2.20325 -4.757812,0.25 -2.776182,-2.77618 -5.785265,-2.53047 -6.554688,0.53516 -0.751322,2.99351 -2.78312,3.17208 -10.386718,0.91406 -3.876363,-1.15116 -7.176265,-1.40066 -12.041016,-0.91211 -6.273583,0.63003 -6.821132,0.52063 -8.591797,-1.7207 -1.04019,-1.31668 -4.26122,-3.68196 -7.158203,-5.25586 -2.896984,-1.57391 -5.668054,-3.34844 -6.158203,-3.94336 -0.49015,-0.59493 -1.109621,-6.18403 -1.376953,-12.41992 l -0.486328,-11.33789 10.144531,0.48242 c 5.579466,0.26502 11.310637,0.79293 12.736328,1.17383 3.098381,0.82777 6.379601,-1.82564 5.390625,-4.35938 -1.525567,-3.90849 -1.539488,-14.514084 -0.0332,-25.406246 0.895953,-6.478788 1.332423,-12.258475 0.970703,-12.84375 -0.431518,-0.698215 -5.517027,-0.944068 -14.789063,-0.716797 L 38.5,68.5 38.1875,65.25 37.873047,62 H 29.558594 C 19.843023,62 18.488346,62.897217 19.417969,68.714844 19.750584,70.796366 20.068707,77.9 20.126953,84.5 c 0.05825,6.6 0.483657,16.5 0.943359,22 0.459704,5.5 1.006758,13.7125 1.216797,18.25 0.339804,7.34081 0.188576,8.25 -1.371093,8.25 C 17.44401,133 16,134.20704 16,137.10742 16,138.69857 16.45,140 17,140 c 1.576897,0 1.164308,2.72282 -0.509766,3.36523 -1.895515,0.72737 -1.438166,8.26429 0.857422,14.13477 0.860287,2.2 1.585234,5.23164 1.609375,6.73633 0.03319,2.06858 1.036602,3.39366 4.119141,5.43359 3.816374,2.52555 4.034289,2.92243 3.414062,6.22852 -0.364405,1.94245 -1.298323,4.76338 -2.076172,6.26758 C 23.636214,183.67021 23,185.49411 23,186.21875 c 0,2.13764 -5.167138,9.1272 -5.886719,7.96289 -0.998161,-1.61505 -6.157412,-3.30238 -8.1562498,-2.66797 C 1.471333,193.88954 4.5288714,208 12.529297,208 c 2.226353,0 4.118477,-0.77362 5.503906,-2.25 l 2.111328,-2.25 2.201172,2.5 c 1.210006,1.375 3.898919,3.77839 5.976563,5.33984 l 3.777343,2.83789 -2.548828,2.36329 C 28.148293,217.8408 27,219.41993 27,220.04883 c 0,2.51264 3.473783,6.80222 5.912109,7.30078 1.423034,0.29096 3.712891,0.8034 5.087891,1.13867 2.028889,0.49472 3.013647,-0.0442 5.226562,-2.85742 2.361391,-3.00196 2.590438,-3.85895 1.703126,-6.4043 -0.563534,-1.61655 -2.127877,-3.53015 -3.476563,-4.25195 C 40.10444,214.25282 39,213.29258 39,212.8418 c 0,-1.25205 3.31083,-4.83994 4.472656,-4.84766 0.565267,-0.004 2.097854,-1.57876 3.40625,-3.5 C 49.2407,201.02609 53,199.73015 53,202.38477 53,203.81007 57.122675,207 58.964844,207 59.534195,207 60,206.24731 60,205.32812 c 0,-0.91918 0.744053,-2.49417 1.654297,-3.5 1.539983,-1.70165 1.539983,-1.9546 0,-3.65624 C 60.744053,197.16605 60,195.60687 60,194.70703 60,192.46183 56.905038,191 52.150391,191 c -3.595181,0 -4.31919,-0.46229 -7.482422,-4.77148 -1.926277,-2.62411 -4.062244,-5.99911 -4.746094,-7.5 C 39.238025,177.22764 38.275426,176 37.78125,176 c -0.494176,0 -0.621169,0.45 -0.28125,1 0.684677,1.10783 -2.739827,1.30983 -6.25,0.36914 C 27.450184,176.35083 28.75108,175 33.53125,175 c 3.442931,0 4.661393,-0.42036 5.072266,-1.75 1.380266,-4.46715 1.936372,-4.7582 8.511718,-4.46484 6.697864,0.29882 9.675059,-0.69799 8.373047,-2.80469 -0.565503,-0.91501 -2.847391,-1.07198 -8.628906,-0.58985 L 39,166.04688 v -2.47461 c 0,-1.36054 -0.721548,-2.87752 -1.603516,-3.3711 -1.383273,-0.77412 -1.417619,-1.19795 -0.25,-3.08789 1.049456,-1.69867 1.915214,-2.03652 3.853516,-1.50586 2.355034,0.64474 5.108101,0.79723 9.333984,0.51563 3.517278,-0.23438 0.985838,-2.57009 -3.003906,-2.77149 -2.432689,-0.12281 -5.564009,-1.25038 -7.925781,-2.85351 -3.249465,-2.20568 -4.599299,-2.54426 -8.048828,-2.02735 C 26.987556,149.12523 22,148.33233 22,146.98438 c 0,-0.43918 2.501964,-1.58484 5.560547,-2.54688 5.174147,-1.62747 5.799186,-1.63712 8.982422,-0.11914 3.680985,1.75534 6.64862,1.34289 5.822265,-0.81055 -0.280068,-0.72985 -1.602296,-1.60239 -2.9375,-1.9375 -2.475053,-0.6212 -3.449968,-3.5734 -1.177734,-3.5664 1.678716,0.005 7.659958,3.64647 10.75,6.54492 1.375,1.28975 4.184123,3.0485 6.242188,3.9082 l 3.742187,1.5625 -0.648437,13.49024 L 57.689453,177 h 2.789063 c 3.064039,0 10.421171,1.90439 12.058593,3.12109 1.949273,1.44843 17.887952,2.86756 23.009766,2.04883 5.637655,-0.90118 13.380805,-6.01844 19.701175,-13.01953 2.06107,-2.28305 4.00459,-4.15039 4.32031,-4.15039 0.31571,0 1.24922,-0.675 2.07422,-1.5 0.825,-0.825 2.2809,-1.5 3.23437,-1.5 1.38326,0 1.9946,1.56297 3.03125,7.73242 1.48512,8.83843 6.32899,19.31018 11.65821,25.20899 1.93343,2.14008 3.07867,4.16036 2.54492,4.49023 -0.53374,0.32987 -4.69361,8.13015 -9.24219,17.33398 -4.54858,9.20385 -9.01915,17.63438 -9.93555,18.73438 -0.91641,1.1 -2.48915,4.20943 -3.49609,6.91016 -1.00694,2.70073 -4.03262,8.24813 -6.72266,12.32812 -2.69003,4.07998 -4.73868,7.52941 -4.55273,7.66406 0.18595,0.13465 2.36289,0.73623 4.83789,1.33789 2.475,0.60166 8.0448,2.03227 12.37695,3.17774 4.33215,1.14547 8.75919,2.08203 9.83789,2.08203 1.762,0 1.88218,0.4318 1.1875,4.25 -1.28043,7.03761 -0.57494,25.19004 1.10352,28.4082 0.81544,1.56349 1.48528,3.84852 1.48828,5.07813 0.003,1.22961 0.45522,4.15461 1.00391,6.5 0.5487,2.34539 1.67217,7.90668 2.49804,12.35937 1.42574,7.68698 1.40008,8.39394 -0.51757,14 -1.1108,3.24731 -3.35257,8.0606 -4.98243,10.69532 -4.83857,7.82176 -6.30998,14.54725 -5.78125,26.43554 l 0.46094,10.36914 -10.08789,-0.50586 C 112.59152,386.1391 93.303514,385.72951 92,385.96094 c -0.275,0.0488 -3.875,0.27801 -8,0.50976 -11.801631,0.66305 -27.64736,2.31183 -38,3.95313 -5.225,0.82837 -9.8375,1.52161 -10.25,1.54101 C 35.3375,391.98419 35,392.675 35,393.5 c 0,1.71975 2.955801,1.94688 7.6875,0.58984 2.776841,-0.79638 13.907694,-1.71183 30.736328,-2.52734 2.792328,-0.13531 17.113672,-0.61414 31.826172,-1.06445 l 26.75,-0.81836 0.0137,2.41015 c 0.008,1.32579 0.23402,3.31016 0.50391,4.41016 0.31118,1.26831 -0.75765,3.68884 -2.92383,6.61523 l -3.41602,4.61329 -5.33984,-0.84375 c -5.06475,-0.80133 -44.5068,-1.15636 -57.33789,-0.51563 -5.914616,0.29535 -22.865767,2.28551 -27.25,3.19922 -2.360442,0.49194 -2.703506,1.19614 -1.484375,3.04492 0.505301,0.76628 2.451599,0.85776 6.234375,0.28906 16.252989,-2.44347 23.519952,-3.01109 44.5,-3.47461 20.13531,-0.44487 35.62399,0.36422 37.20312,1.94336 0.27013,0.27012 -0.25952,1.75997 -1.17773,3.31055 L 119.85547,417.5 94.177734,417.75195 C 80.054854,417.89075 61.4125,418.21116 52.75,418.46289 43.035906,418.74518 37,418.55306 37,417.96094 37,417.43292 36.540948,417 35.980469,417 c -0.877635,0 -0.455957,4.12285 0.623047,6.09766 0.179366,0.32828 2.479236,0.23694 5.111328,-0.20118 C 44.346936,422.45837 55.275,421.63906 66,421.07422 c 10.725,-0.56484 24.182438,-1.32225 29.90625,-1.68164 9.16058,-0.57521 10.33658,-0.46729 9.8125,0.89844 -0.50758,1.32272 0.24424,1.47964 5.09375,1.0625 5.28807,-0.45486 5.5506,-0.37943 3.74609,1.07812 -1.06762,0.86234 -2.46952,1.56836 -3.11523,1.56836 -0.64571,0 -2.35942,0.93235 -3.80859,2.07227 -2.25636,1.77486 -2.63477,1.83862 -2.63477,0.4414 0,-3.02832 -1.73245,-0.59001 -2.35742,3.31836 -0.64229,4.01666 1.20594,11.03662 3.81836,14.50195 3.13532,4.15895 14.47829,2.58412 16.0039,-2.22265 0.82525,-2.60016 3.88087,-3.2035 18.92774,-3.73633 7.09094,-0.25111 13.69819,-0.88865 14.68359,-1.41602 4.32211,-2.31312 36.99414,-0.71879 54.92383,2.67969 12.68186,2.40378 13.2939,2.72902 12.46094,6.61719 -0.8711,4.06624 -0.88235,4.0767 -3.11328,2.94726 -8.09058,-4.09588 -38.25173,-7.44775 -60.33399,-6.70507 -29.56279,0.99428 -36.2671,1.86213 -36.82617,4.76367 -0.27403,1.42221 0.8108,1.56034 9,1.15234 5.12138,-0.25515 13.85201,-0.93937 19.40039,-1.51953 10.61248,-1.10967 44.40028,0.25352 51.41211,2.07422 1.925,0.49985 7.16279,1.43066 11.63867,2.06836 l 8.13672,1.16016 0.61523,3.84375 c 0.57007,3.56501 0.92105,3.90745 4.86133,4.73632 2.5866,0.5441 4.98639,0.52351 6.13477,-0.0508 1.76503,-0.88261 4.57653,-0.76137 20.36523,0.86914 3.60244,0.37202 7.41685,0.20416 9,-0.39453 1.51122,-0.57149 4.02959,-1.32041 5.59571,-1.66406 2.33961,-0.51337 2.74705,-1.02097 2.28711,-2.85352 l -0.5586,-2.23047 16.21094,-0.23437 c 8.91676,-0.12835 17.79053,-0.47676 19.71875,-0.77344 5.04347,-0.77603 31.92969,1.67578 48.99414,4.4668 3.025,0.49476 10.18761,1.61602 15.91602,2.49219 5.72841,0.87616 10.64025,1.81799 10.91601,2.09375 0.87044,0.87044 5.02461,0.5439 5.63477,-0.44336 0.62,-1.00318 -5.48467,-3.03983 -9.14063,-3.04883 -1.19554,-0.003 -4.34554,-0.44403 -7,-0.98047 -36.35379,-7.34669 -49.58236,-8.82125 -75.32617,-8.39453 -7.01375,0.11626 -25.66101,1.16932 -27.89844,1.57617 -1.06858,0.19431 -4.52336,-1.50389 -7.60156,-3.73633 -1.65,-1.19666 -3.7875,-2.45194 -4.75,-2.79101 -3.49689,-1.2319 -1.63776,-2.68007 3.5,-2.72657 2.8875,-0.0261 10.875,-0.10282 17.75,-0.16992 6.875,-0.0671 16.325,0.16679 21,0.51953 4.675,0.35275 16.6,1.12551 26.5,1.71875 9.9,0.59323 23.85,2.14571 31,3.44922 7.15,1.30351 16.15,2.92174 20,3.59571 3.85,0.67396 8.70121,1.81906 10.7793,2.54492 2.87859,1.00547 4.36694,1.05134 6.25,0.19336 2.60798,-1.18828 3.10984,-2.29096 1.49804,-3.28711 -0.85735,-0.52987 -13.14186,-2.98453 -20.02734,-4.00196 -9.71542,-1.43558 -16.69074,-2.58907 -24.5,-4.04882 -11.25766,-2.10434 -11.87846,-2.16614 -29.5,-2.95118 -7.975,-0.35527 -16.075,-0.80176 -18,-0.99218 -7.4966,-0.74157 -40.81536,-0.47589 -46.5,0.37109 -5.67389,0.84538 -6.14947,0.75392 -8.75,-1.6875 -4.49614,-4.22105 -3.69947,-5.84178 3.25781,-6.62891 5.41081,-0.61214 29.27089,-0.17625 50.52735,0.92188 4.41926,0.22831 14.76926,0.49204 23,0.58594 8.23075,0.0939 18.11484,0.53374 21.96484,0.97851 3.85,0.44477 10.87373,1.25933 15.60742,1.81055 9.21726,1.07331 30.86129,5.54962 34.75196,7.1875 1.97599,0.83185 2.7606,0.56128 4.83203,-1.67383 2.83355,-3.05745 1.89648,-4.3435 -3.19141,-4.3789 -1.65,-0.0115 -4.575,-0.44088 -6.5,-0.95508 -1.925,-0.5142 -11.13726,-1.67226 -20.4707,-2.57227 -9.33343,-0.90001 -17.2328,-1.79912 -17.55469,-1.99804 -1.02782,-0.63523 -21.68957,-1.47352 -48.47461,-1.9668 -31.4186,-0.5786 -59.72617,-1.60336 -60.75,-2.19922 -0.4125,-0.24006 -0.75,-1.25756 -0.75,-2.26172 0,-1.46846 1.12529,-1.97474 5.75,-2.58203 9.86288,-1.29513 74.34201,-0.56863 92.97266,1.04687 22.66872,1.96565 43.10036,4.25198 44.22851,4.94922 0.49741,0.30742 5.17995,0.73356 10.40625,0.94727 7.46665,0.30532 9.61714,0.0905 10.03711,-1.00391 0.33462,-0.87202 -0.29309,-1.56523 -1.67969,-1.85351 -4.45244,-0.92567 -26.432,-3.48654 -34.21484,-3.98633 -4.4,-0.28256 -14.56411,-1.19034 -22.58594,-2.01563 -13.82955,-1.42278 -98.06215,-2.67035 -101.91211,-1.50976 -1.12437,0.33895 -1.49919,-0.38935 -1.5,-2.91406 -7.3e-4,-2.31362 -0.66408,-3.80865 -2.11914,-4.78321 -2.09281,-1.40173 -2.12978,-1.29637 -3.30469,9.36524 -1.01607,9.22077 -0.9625,11.64777 0.36719,16.74414 1.91138,7.32601 1.91261,7.53906 0.0547,7.53906 -1.98029,0 -1.92452,1.62257 0.082,2.39258 C 243.68319,447.58263 245,447.01871 245,444.5 c 0,-2.82783 1.16167,-3.21505 3,-1 0.68469,0.825 1.80969,1.5 2.5,1.5 0.69031,0 1.75382,0.60162 2.36328,1.33594 0.60947,0.73437 3.02767,1.94811 5.37305,2.69922 4.51186,1.44494 8.68002,3.94714 8.73242,5.24023 0.12277,3.0269 -17.94808,4.09416 -24.20508,1.42969 -2.8112,-1.19713 -5.51093,-1.44273 -10.9082,-0.99024 l -7.17188,0.60157 0.6836,-2.40821 c 0.376,-1.32456 0.95904,-4.53418 1.29492,-7.13281 0.33589,-2.59862 0.99958,-4.485 1.47461,-4.19141 0.47504,0.29359 0.86328,0.0832 0.86328,-0.46679 0,-0.55 -0.49812,-1.30704 -1.10742,-1.6836 -1.06199,-0.65635 -0.88829,-5.68454 0.77344,-22.43359 0.63164,-6.36629 0.62909,-7.58696 -0.0215,-14.96875 -0.26503,-3.00725 -0.0873,-6.2033 0.39453,-7.10352 0.70716,-1.32134 0.13928,-1.85845 -2.94726,-2.7832 -5.3315,-1.59736 -5.23218,-1.67863 -4.52344,3.66406 l 0.63867,4.81055 -35.10351,-0.0606 c -19.30686,-0.0326 -35.10343,-0.33637 -35.10352,-0.67578 -9e-5,-0.33942 1.82264,-1.82431 4.05078,-3.29883 3.58974,-2.37557 5.38371,-2.76082 15.75,-3.38281 14.9366,-0.89622 24.25976,-0.86342 36.44922,0.12695 6.82974,0.55492 9.75,0.46712 9.75,-0.29296 0,-3.2722 -17.48545,-4.87315 -40.87695,-3.74414 -9.00694,0.43473 -16.62054,0.54549 -16.91993,0.24609 -0.29938,-0.2994 0.34423,-1.55569 1.42969,-2.79102 C 164.802,383.13944 172,367.47104 172,364.17969 172,360.24946 172.90386,358 174.48242,358 c 0.6974,0 1.60569,-1.4625 2.01953,-3.25 0.41384,-1.7875 0.89571,-3.7 1.07032,-4.25 0.81581,-2.56966 2.4118,-13.486 2.2832,-15.61523 -0.17086,-2.82875 2.02994,-14.91769 2.98047,-16.3711 0.36477,-0.55775 0.75062,-2.36367 0.85742,-4.01367 0.2947,-4.55276 0.85786,-7.3852 1.61914,-8.14648 C 185.69037,305.97565 186,304.98643 186,304.1543 186,302.22581 191.27205,291 192.17773,291 c 0.37436,0 1.40911,2.50888 2.30079,5.57617 1.01826,3.5027 3.02922,7.129 5.40429,9.75 2.07983,2.29521 5.21897,6.29852 6.97657,8.89453 1.75756,2.59601 4.6901,5.86003 6.51757,7.25391 1.82746,1.39388 4.11447,4.44419 5.08203,6.7793 0.96755,2.33511 2.22278,5.37109 2.78907,6.74609 1.42793,3.46711 1.88686,28.12745 0.66797,35.90625 -1.16977,7.46527 -0.33207,8.99492 3.34375,6.10352 2.32925,-1.83218 2.62536,-2.80777 2.81445,-9.2793 0.79555,-27.2274 0.13295,-32.37992 -5.04297,-39.23047 -0.41555,-0.55 -1.06921,-2.31156 -1.45313,-3.91406 -0.3839,-1.60249 -2.62524,-4.75249 -4.98046,-7 C 211.55264,313.77166 203,303.63564 203,302.4707 c 0,-0.4474 -0.61604,-1.52426 -1.36914,-2.39258 C 199.52246,297.6472 195,285.50841 195,282.2793 c 0,-2.81167 0.18498,-2.91224 7.75,-4.21094 4.2625,-0.73175 10.9,-2.42534 14.75,-3.76367 6.85945,-2.38447 14.65295,-4.24272 19.375,-4.61719 2.01966,-0.16016 2.61872,0.56032 4.01172,4.8125 0.90089,2.75 2.14114,5.9 2.75586,7 0.61471,1.1 1.62597,4.25 2.24609,7 0.62012,2.75 1.74068,7.25 2.49024,10 0.74957,2.75 1.67466,9.95 2.05468,16 0.69135,11.00643 2.24322,18.58953 3.4336,16.77344 0.34813,-0.53112 1.9121,-1.2794 3.47461,-1.66211 2.05352,-0.50298 2.67043,-1.13475 2.23047,-2.28125 -1.32337,-3.44865 -3.69483,-16.7558 -3.27344,-18.36719 1.39409,-5.33103 -3.79736,-22.52943 -10.67383,-35.36133 -1.4439,-2.69442 -2.625,-5.07963 -2.625,-5.30078 0,-0.22114 1.575,-1.06091 3.5,-1.86523 1.925,-0.80431 3.5,-2.03198 3.5,-2.72852 0,-0.69654 2.25,-2.13988 5,-3.20703 5.4595,-2.11859 6.11014,-2.97653 2.89844,-3.81641 -3.44402,-0.90063 -1.2937,-2.40332 4.46679,-3.12304 l 5.39258,-0.67383 -3.49414,-7.0918 c -1.92161,-3.90061 -6.36737,-11.78578 -9.8789,-17.52148 C 250.87324,222.53774 248,217.52977 248,217.14453 c 0,-0.38523 -0.7875,-1.44303 -1.75,-2.35156 -3.08617,-2.91312 -4.34322,-4.76214 -5.48438,-8.06445 -0.61358,-1.77567 -2.41126,-5.34248 -3.99414,-7.92579 -2.75087,-4.4895 -2.80874,-4.82845 -1.32421,-7.69921 0.85422,-1.65188 1.55273,-4.06663 1.55273,-5.36524 0,-1.2986 0.83315,-3.25647 1.85156,-4.34961 1.307,-1.4029 1.74066,-3.07512 1.47266,-5.6875 C 240.1154,173.6656 240.22231,172 240.5625,172 c 0.34019,0 2.93959,1.96473 5.77734,4.36523 2.83772,2.40051 7.01153,5.43801 9.27344,6.75 2.26192,1.31199 6.28967,3.7179 8.95117,5.34766 9.57084,5.86069 24.95328,7.79737 31.15039,3.92188 1.21815,-0.76179 3.52478,-1.38477 5.12696,-1.38477 3.11816,0 7.80611,-1.85839 12.6582,-5.01758 4.07951,-2.65616 7.25846,-3.98242 9.54102,-3.98242 1.60991,0 1.81504,-0.51048 1.31445,-3.25 -0.32663,-1.7875 -1.21499,-4.5573 -1.97461,-6.1543 C 321.62124,170.9987 321,169.58005 321,169.44336 321,168.75588 327.67613,167 330.28906,167 c 1.64519,0 4.84133,-0.85484 7.10156,-1.90039 2.26025,-1.04554 7.48438,-3.4639 11.60938,-5.37305 4.125,-1.90915 9.12205,-3.99074 11.10352,-4.62695 3.56293,-1.14399 5.89648,-4.28079 5.89648,-7.92383 0,-0.95174 0.60975,-2.61825 1.35547,-3.70312 0.74572,-1.08488 1.60076,-4.76183 1.90039,-8.17188 0.50519,-5.74944 0.3698,-6.31557 -1.87305,-7.78516 -1.87897,-1.23112 -2.50477,-1.29894 -2.80469,-0.30078 -0.21233,0.70667 -0.62908,2.04418 -0.92578,2.97071 -0.2967,0.92652 -1.46464,2.17982 -2.5957,2.78515 -1.80242,0.96463 -2.05664,0.81037 -2.05664,-1.23632 0,-1.28436 -0.5032,-2.83914 -1.11914,-3.45508 -0.82653,-0.82653 -0.10613,-1.40031 2.75,-2.19336 2.12844,-0.59099 4.21236,-1.07708 4.63086,-1.08008 0.41849,-0.003 2.78099,-0.95465 5.25,-2.11524 5.3793,-2.52857 5.78251,-4.83195 1.39648,-7.95507 -2.68145,-1.90937 -3.90721,-2.11933 -9.25,-1.57617 -9.43627,0.95927 -19.54326,6.39257 -28.49609,15.3164 -4.04152,4.02842 -7.72819,7.32422 -8.19336,7.32422 -0.46517,0 -2.48553,2.65642 -4.49023,5.9043 -2.00471,3.24789 -4.57466,6.15011 -5.71094,6.44726 -1.9129,0.50023 -2.02326,1.05477 -1.48242,7.50586 0.32126,3.83199 1.40887,8.6942 2.41796,10.80469 1.00912,2.11049 1.96845,5.46199 2.13086,7.44727 0.27667,3.38217 0.0192,3.73899 -4.07617,5.66406 -2.4039,1.12996 -4.95883,2.76267 -5.67773,3.6289 -0.71891,0.86623 -1.69332,1.33707 -2.16602,1.04493 -0.4727,-0.29215 -3.23424,0.56185 -6.13672,1.89843 -8.92158,4.10832 -17.35214,4.2817 -26.27734,0.53907 -1.1,-0.46126 -4.2156,-1.5691 -6.92383,-2.46094 -2.70823,-0.89183 -6.08323,-2.40927 -7.5,-3.37305 -1.41677,-0.96378 -5.1307,-3.4457 -8.25195,-5.51562 -3.12126,-2.06992 -7.0916,-4.95091 -8.82422,-6.40039 L 239.84961,166.5 239.64062,152 c -0.20733,-14.41353 -0.49609,-16.05615 -4.89648,-27.75 -3.92838,-10.43949 -5.08656,-4.54315 -1.64453,8.37305 1.15448,4.33215 2.22416,9.22695 2.37891,10.87695 0.79412,8.46668 0.6854,13.40589 -0.38477,17.27344 -0.65033,2.35019 -0.95215,4.64684 -0.66992,5.10351 0.28224,0.45666 -0.44609,6.85843 -1.61719,14.22657 -1.86316,11.72234 -2.45126,13.68759 -4.7168,15.72265 -4.01392,3.60559 -6.30325,4.87648 -10.00195,5.5586 -3.17934,0.58633 -3.30906,0.51072 -1.91406,-1.12696 C 216.99714,199.29129 218.26884,196.925 219,195 c 0.73116,-1.925 1.86989,-4.175 2.53125,-5 1.41731,-1.76797 1.33225,-1.00921 1.99414,-17.5 0.59828,-14.90618 -0.10204,-18.8461 -3.43555,-19.33203 -1.97326,-0.28765 -2.17909,-0.0224 -1.53906,1.99414 0.40603,1.27929 0.72795,7.73909 0.71484,14.35547 -0.0244,12.33851 -2.26454,25.25725 -4.93164,28.4375 -0.71285,0.85 -1.86651,2.29432 -2.56445,3.21094 -2.66184,3.49586 -29.48166,4.39493 -45.41015,1.52148 -11.92152,-2.15059 -20.34034,-5.83026 -24.0918,-10.52734 -5.17277,-6.47665 -10.52493,-17.91723 -11.76563,-25.15039 -1.07442,-6.26372 -1.01694,-6.98005 0.67383,-8.42774 2.43593,-2.08571 2.53062,-2.0423 2.57422,1.16797 0.0205,1.5125 0.81214,5.225 1.75781,8.25 0.94567,3.025 2.38629,7.975 3.20117,11 0.81487,3.025 1.88886,5.92672 2.38672,6.44922 0.49787,0.5225 0.9192,1.6475 0.9375,2.5 0.0403,1.87803 3.78248,6.56713 4.59375,5.75586 0.3178,-0.31781 -0.57691,-3.02226 -1.99023,-6.00977 -3.92075,-8.28778 -6.63264,-19.45639 -6.79492,-27.99414 -0.14811,-7.79204 -1.14005,-9.45541 -3.75977,-6.29883 -0.63991,0.77103 -2.35611,1.70087 -3.8125,2.06641 -1.4564,0.36553 -4.01536,1.64673 -5.6875,2.84766 -3.03754,2.18156 -5.31443,3.61623 -9.08203,5.72265 -1.1,0.615 -2.9,2.54478 -4,4.28906 -2.42597,3.84688 -12.455482,8.91671 -17.5,8.84571 -1.925,-0.0271 -7.021156,-0.0555 -11.324219,-0.0645 -5.139873,-0.0102 -10.113988,-0.73853 -14.5,-2.12305 L 61.5,172.87891 l -0.0625,-12.04102 -0.06445,-12.03906 3.564453,0.64258 c 12.134753,2.18647 16.779845,2.70333 19.826172,2.20898 l 3.43164,-0.55664 -0.433593,5.70313 C 87.522977,159.93355 87.62979,163.85 87.998047,165.5 l 0.669922,3 0.824219,-4 c 0.506591,-2.45377 0.371031,-6.66485 -0.353516,-10.89453 -1.2702,-7.41501 -1.225484,-7.89551 0.640625,-6.74219 1.732423,1.0707 2.504122,19.68402 0.990234,23.88672 -0.895919,2.48707 -0.893584,3.52436 0.0078,4.42578 2.205605,2.2056 4.453609,-5.58906 4.066406,-14.09961 -0.295007,-6.48413 -0.104131,-7.58957 1.365234,-7.875 1.166532,-0.2266 2.182477,0.79901 3.199219,3.23242 0.819367,1.96101 1.962957,3.56641 2.541017,3.56641 1.66839,0 1.22013,-5.90011 -0.69922,-9.20508 -1.727506,-2.97464 -1.717866,-3.03331 0.75,-4.64062 4.19438,-2.73178 10.51113,-9.90268 16.43359,-18.6543 8.39405,-12.40388 10.74627,-15.5 11.77539,-15.5 0.60619,0 2.65445,-1.1825 4.55079,-2.62891 1.89633,-1.44641 7.06207,-4.42089 11.48046,-6.60937 l 8.03321,-3.978517 4.11328,1.990237 c 2.26219,1.09519 5.46328,2.30495 7.11328,2.6875 1.65,0.38254 3.675,1.27803 4.5,1.99023 1.84954,1.59664 11.545,3.94745 12.87891,3.12305 1.94949,-1.20485 3.23964,20.07542 1.77148,29.2207 l -0.84961,5.29297 2.84961,-0.68359 c 1.56745,-0.37664 2.92016,-0.73483 3.00586,-0.79492 0.0857,-0.0601 0.25631,-4.60938 0.37891,-10.10938 0.23525,-10.55466 -0.6332,-18.15054 -2.31836,-20.28125 -0.72552,-0.91735 -0.47444,-1.67727 0.88476,-2.67773 2.27597,-1.67525 1.99048,-1.80057 -8.03515,-3.49024 -3.81349,-0.6427 -8.76349,-1.97028 -11,-2.95117 -2.2365,-0.98089 -5.52891,-2.358923 -7.31641,-3.062501 C 158.89115,97.715031 157.88618,96 160.4707,96 c 0.80931,0 4.06561,1.146584 7.23633,2.548828 8.51752,3.766842 18.84692,4.330062 29.03125,1.582032 9.05757,-2.443995 10.04044,-2.263383 23.88281,4.39453 3.97296,1.91091 7.7078,3.47461 8.30079,3.47461 0.59297,0 1.07812,0.47412 1.07812,1.05273 0,0.57861 1.35,1.52247 3,2.09766 1.65,0.5752 3,1.38422 3,1.79883 0,0.4146 2.67315,3.78412 5.94141,7.48633 3.26825,3.70222 6.91952,8.6046 8.11328,10.89648 2.46913,4.74043 15.4359,21.3315 17.10742,21.88867 1.72551,0.57517 0.10003,4.18964 -2.37891,5.28907 -1.22902,0.54509 -2.76405,2.11523 -3.41211,3.49023 -3.88263,8.23785 -3.84508,8.08959 -2.35937,9.00781 C 260.81368,172.12149 263,170.39774 263,167.86328 263,164.30008 268.23572,157 270.79102,157 c 1.04989,0 1.23976,0.61218 0.69726,2.25 -2.50774,7.57087 -0.54313,20.75 3.09375,20.75 1.68654,0 1.65367,0.31072 0.42578,-3.9707 -0.6693,-2.33367 -0.64364,-5.4615 0.0801,-9.61719 l 1.07422,-6.1582 6.16797,-1.56641 c 3.39316,-0.8607 9.76992,-1.77556 14.16992,-2.03516 4.4,-0.2596 8.7875,-0.78675 9.75,-1.16992 1.40357,-0.55876 1.75,-0.16802 1.75,1.97266 0,5.22634 4.29304,21.54492 5.66797,21.54492 1.86616,0 1.72274,-6.85113 -0.28906,-13.77148 -1.06338,-3.65644 -1.43046,-7.43367 -1.06641,-10.96094 0.64184,-6.21883 -0.76113,-7.58639 -5.17383,-5.04883 -1.45119,0.83452 -6.01367,1.76755 -10.13867,2.07422 -4.125,0.30667 -10.18288,1.26663 -13.46094,2.13281 -9.12832,2.41203 -11.0653,2.1535 -12.58984,-1.67578 -0.71165,-1.7875 -2.37917,-4.44935 -3.70508,-5.91602 -4.18613,-4.63052 -5.71515,-6.46352 -6.74414,-8.08398 -0.55,-0.86615 -3.25,-4.87652 -6,-8.91211 -2.75,-4.0356 -5.225,-7.78789 -5.5,-8.33789 -5.02398,-10.04795 -15.18835,-16.7887 -34,-22.548828 -4.125,-1.263074 -7.85103,-2.592423 -8.2793,-2.953125 -0.42827,-0.360702 0.0662,-1.744446 1.09766,-3.076172 1.61419,-2.084128 2.42237,-6.167102 2.35937,-11.921875 -0.009,-0.825 -0.79194,-4.047437 -1.73828,-7.162109 -2.23239,-7.3474 -1.56897,-9.094365 3.3125,-8.728516 5.38941,0.403915 9.0487,-1.727712 10.21485,-5.951172 1.00165,-3.627656 0.44781,-5.141586 -2.91211,-7.947265 -1.28863,-1.076069 -1.31731,-1.431499 -0.16992,-2.140626 1.14201,-0.705804 1.01654,-1.925815 -0.74024,-7.208984 C 216.98117,37.362915 215.81282,33.375 215.54883,32 215.28484,30.625 212.69176,27.078916 209.78516,24.119141 203.95894,18.186319 193.3112,12.57706 184.82031,10.966797 182.08401,10.447868 179.415,9.7569264 178.88867,9.4316406 178.21529,9.0154654 174.0067,8.8670967 169.55859,8.9375 Z m 2.76563,2.814453 c 7.97938,0.0025 10.28429,0.43238 17.67578,3.291016 4.675,1.808043 9.175,3.94318 10,4.74414 1.58365,1.537506 1.82432,1.549417 -11,-0.542968 -9.0555,-1.477473 -16.34075,-0.662361 -24.24023,2.714843 -8.48366,3.626954 -12.74848,7.784936 -16.77344,16.347657 -2.80388,5.965008 -3.72046,6.50623 -5.08594,3.003906 -3.72049,-9.542709 2.92627,-21.174607 15.60547,-27.3125 3.78126,-1.830477 6.34523,-2.248394 13.81836,-2.246094 z m 10.05469,9.878906 c 3.98891,0.122459 7.97137,0.5603 10.62109,1.271485 2.475,0.664291 5.28218,1.210227 6.23828,1.214844 2.22616,0.01075 12.35743,9.229139 13.04883,11.873046 0.57122,2.184363 -0.75473,3.678991 -1.78516,2.011719 -0.35032,-0.566831 -2.52013,-1.99754 -4.82031,-3.179687 -5.66053,-2.90915 -20.32349,-3.076389 -34.07226,-0.388672 l -9.88868,1.933594 -4.77148,7.30664 c -2.81769,4.31627 -5.05218,9.053192 -5.45899,11.56836 -0.37884,2.342204 -1.54959,6.239613 -2.60156,8.662109 -1.05197,2.422495 -1.67663,4.64173 -1.38672,4.931641 0.28991,0.289907 2.05446,-0.951691 3.91993,-2.759766 2.76777,-2.682667 3.60778,-4.509654 4.56445,-9.931641 1.70798,-9.679993 1.72505,-9.716325 3.86328,-7.78125 3.35183,3.03336 4.56427,0.854818 1.44336,-2.59375 -1.23389,-1.363432 -1.43326,-2.323174 -0.7168,-3.458984 1.42131,-2.253257 8.92548,-4.953598 16.04688,-5.773438 l 6.12304,-0.703125 0.66016,3.521485 c 0.88473,4.715984 6.15441,8.140035 11.25391,7.3125 3.45724,-0.561033 3.51459,-0.515633 2.69922,2.128906 -0.45835,1.486539 -0.76761,5.065625 -0.6875,7.953125 0.14027,5.056677 0.0478,5.25 -2.51954,5.25 -1.46601,0 -4.2236,-0.447709 -6.1289,-0.994141 -2.72156,-0.780535 -3.78343,-0.6736 -4.95117,0.494141 -2.14035,2.140354 -0.47082,3.241291 5.92773,3.910156 3.025,0.316215 6.9625,0.996003 8.75,1.511719 3.1894,0.920192 3.25,0.878981 3.25,-2.291016 C 201,61.216894 202.48756,59 204.7793,59 c 1.94904,0 0.6635,5.2571 -2.38282,9.746094 C 201.07816,70.688746 200,72.890423 200,73.638672 c 0,2.102288 -1.60444,1.614024 -3.32617,-1.013672 -1.26181,-1.925764 -2.6566,-2.467839 -7.36524,-2.861328 -3.19466,-0.26697 -6.59609,-0.822117 -7.55859,-1.232422 -1.32035,-0.562852 -1.75,-0.27067 -1.75,1.1875 0,1.062971 -1.08756,2.953143 -2.41602,4.201172 -2.85274,2.68001 -4.22281,7.067094 -2.5332,8.111328 0.88158,0.544846 0.84692,1.609299 -0.14258,4.345703 C 174.18757,88.369824 173.31268,90 172.96484,90 171.51629,90 171.18485,88.645648 172.06445,86.332031 173.26594,83.17197 173.25736,81 172.04492,81 c -0.52507,0 -1.2502,1.575 -1.61133,3.5 -0.70811,3.774586 -1.5305,4.294207 -3.34375,2.109375 -0.87905,-1.059201 -0.81967,-2.365776 0.24805,-5.464844 1.38095,-4.008245 1.21462,-5.603797 -0.47656,-4.558593 C 166.38804,76.878445 166,78.189919 166,79.5 c 0,2.757433 -1.16354,3.75907 -3.38086,2.908203 -1.37641,-0.528178 -1.32364,-1.067787 0.44727,-4.539062 C 164.99309,74.092535 164.94883,72 162.94141,72 162.42387,72 162,72.654004 162,73.453125 162,75.446154 159.8519,80 158.91211,80 c -1.67655,0 -1.39344,-3.655721 0.48437,-6.257812 1.50963,-2.091895 1.71055,-3.035547 0.83008,-3.916016 -0.88047,-0.880469 -1.32755,-0.698916 -1.84961,0.755859 -1.53673,4.282231 -2.54256,4.634125 -5.4082,1.888672 l -2.7207,-2.607422 -0.67383,3.595703 c -0.80054,4.267223 -1.89009,3.860729 -4.58203,-1.710937 -3.81298,-7.891954 -1.96791,-22.438333 3.70117,-29.177735 C 150.51158,40.408814 152,38.252569 152,37.779297 c 0,-3.806082 13.18896,-14.192014 19.72266,-15.53125 2.6725,-0.547794 6.66734,-0.739646 10.65625,-0.617188 z M 192.36914,34 c 1.72027,0 3.07149,5.037513 2.13867,7.976562 -0.61572,1.939969 -2.42399,2.831435 -2.58398,1.273438 -0.0423,-0.4125 -0.29019,-2.6625 -0.55078,-5 C 191.0064,34.961002 191.2305,34 192.36914,34 Z m -4.80664,0.494141 c 1.18716,0.119168 1.4375,1.329809 1.4375,4.671875 0,5.681708 -2.21169,5.066736 -3.98242,-1.107422 -0.67775,-2.363178 -0.49544,-2.960738 1.02148,-3.357422 0.62958,-0.164638 1.12772,-0.246754 1.52344,-0.207031 z m 11.85156,1.664062 c 0.36938,0.103419 0.82852,0.342196 1.39453,0.701172 0.85185,0.540255 1.07423,1.75878 0.63868,3.494141 C 200.18856,45.368613 198,44.721878 198,39.333984 c 0,-2.572508 0.30593,-3.486037 1.41406,-3.175781 z M 44.976562,38.078125 c -0.242806,0.0356 -0.554256,0.16101 -0.925781,0.390625 -0.595563,0.368078 -0.794127,1.136316 -0.441406,1.707031 0.415239,0.67187 0.929595,0.568715 1.460937,-0.291015 0.743848,-1.203571 0.634677,-1.913452 -0.09375,-1.806641 z m 160.724608,1.300781 c 1.76741,0.300953 5.37791,3.683274 4.70899,4.765625 -0.55156,0.892448 -1.71919,0.934571 -4.66016,0.166016 -1.92217,-0.502314 -2.38131,-3.801392 -0.67578,-4.855469 0.15939,-0.09851 0.37446,-0.119169 0.62695,-0.07617 z m -33.38086,2.119141 c -0.99922,0.05484 -1.77502,0.409388 -2.81054,1.087891 -1.33752,0.876378 -2.70544,2.452732 -3.03907,3.503906 -0.6848,2.157605 2.16528,6.692547 6.20118,9.867187 3.13638,2.467078 2.80725,2.454838 8.05273,0.292969 4.52994,-1.866971 4.77677,-3.038345 1.67187,-7.964844 C 181.62875,47.067007 181,45.472465 181,44.742188 c 0,-0.730281 -2.03828,-1.872814 -4.5293,-2.539063 -1.92858,-0.515817 -3.15116,-0.759921 -4.15039,-0.705078 z m 1.65625,1.638672 c 0.52895,0.105417 1.06265,0.47476 1.71875,1.130859 C 177.33938,45.911647 177.31986,46 175.29688,46 c -1.17287,0 -2.90654,0.297513 -3.85157,0.660156 -2.19617,0.842748 -1.53121,-1.572943 0.84571,-3.072265 0.63287,-0.39921 1.1566,-0.556589 1.68554,-0.451172 z m 39.75782,2.021484 c 0.63614,-0.262301 1.20678,0.246043 1.69921,1.529297 0.41383,1.078441 -0.22432,2.558305 -1.76953,4.103516 -2.95457,2.954574 -3.85307,1.825283 -2.02148,-2.541016 0.75386,-1.797123 1.45562,-2.829496 2.0918,-3.091797 z m -11.72266,0.962891 c 2.46741,0.05919 5.98828,1.18683 5.98828,2.269531 0,0.888953 -1.42439,1.270619 -4.5,1.205078 -4.30536,-0.09175 -5.94287,-1.587112 -3.43555,-3.136719 0.41896,-0.258931 1.1248,-0.357619 1.94727,-0.33789 z M 174.85156,49 c 0.50312,0 1.14999,0.898595 1.4375,1.998047 0.61348,2.345946 -0.33329,3.210836 -2.23242,2.037109 C 172.64574,52.163175 173.26877,49 174.85156,49 Z m 25.89258,3.162109 c 0.22187,0.05755 0.56511,0.744903 1.23828,2.115235 1.02126,2.078915 1.07611,3.064512 0.22266,3.917968 -1.44093,1.440926 -2.53884,-0.992682 -1.97461,-4.373046 0.1913,-1.146115 0.2918,-1.717702 0.51367,-1.660157 z m 13.85352,2.09375 c 0.24762,0.116037 0.0578,0.454678 -0.45313,1.070313 -1.43961,1.734624 -5.97017,2.766553 -6.73242,1.533203 -0.56587,-0.915601 0.207,-1.275948 5.01172,-2.337891 1.23989,-0.274043 1.9262,-0.381661 2.17383,-0.265625 z m 3.8164,1.826172 c 0.31057,0.310569 0.008,1.311622 -0.67383,2.226563 -0.68182,0.91494 -2.81523,1.933005 -4.74023,2.261718 -2.6396,0.450742 -3.13126,0.335414 -2,-0.470703 0.825,-0.587884 2.266,-1.075584 3.20117,-1.083984 0.93517,-0.0084 2.13775,-0.799893 2.67383,-1.757813 0.53608,-0.957917 1.2285,-1.486349 1.53906,-1.175781 z m -51.57422,7.015625 C 166.34927,63.346777 166,64.12712 166,65.333984 c 0,1.283334 0.29935,2.633334 0.66602,3 1.23208,1.232082 3.31852,0.681481 5.43359,-1.433593 2.44576,-2.445758 1.12149,-5.159478 -1.46875,-3.009766 -0.98847,0.820358 -1.6608,0.871361 -2.10156,0.158203 -0.56771,-0.918573 -1.19888,-1.200293 -1.68946,-0.951172 z M 35.28125,65.060547 34.759766,76.03125 C 34.300718,85.716212 34.432175,87.000367 35.871094,87 c 1.304807,-3.34e-4 1.681231,-1.246519 1.888672,-6.25 0.312232,-7.531052 1.182017,-8.373597 9.585937,-9.263672 9.841214,-1.0423 14.097154,-0.394031 14.466797,2.203125 0.273904,1.924483 -0.210242,2.227074 -4,2.5 -5.484207,0.394955 -6.17872,3.180946 -0.8125,3.259766 3.042692,0.04469 3.539847,0.402741 3.810547,2.748047 0.297526,2.577721 0.173232,2.659303 -2.806641,1.804687 C 54.751801,83.069261 52,83.575766 52,85.107422 52,85.598578 54.025,86 56.5,86 c 4.168949,0 4.5,0.189246 4.5,2.576172 0,2.405349 -0.278063,2.556815 -4.175781,2.27539 -2.640121,-0.190623 -4.323824,0.149199 -4.582031,0.923829 -0.370703,1.112109 3.625026,1.803029 7.507812,1.298828 0.724471,-0.09408 1.25,0.945412 1.25,2.470703 0,2.501337 -0.190984,2.597662 -3.867188,1.976562 -3.035712,-0.512881 -4.001459,-0.307289 -4.484374,0.951172 -0.762983,1.988294 1.353867,2.900964 5.363281,2.312504 3.188393,-0.46796 3.820896,0.79186 2.052734,4.0957 -0.802519,1.49952 -2.410359,1.73959 -11.25,1.68359 L 38.5,106.5 l -0.128906,-4 C 38.171707,96.27175 38.094298,96 36.5,96 34.695181,96 34.729786,95.554657 34.601562,119.97461 L 34.5,139.44727 l -3.199219,0.25976 -3.197265,0.25977 -0.117188,-10.23242 c -0.06426,-5.62853 -0.09796,-11.57381 -0.07422,-13.21094 0.02374,-1.63714 -0.379332,-4.56214 -0.896484,-6.5 -1.726868,-6.4709 -4.077479,-42.455626 -2.839844,-43.476565 0.178358,-0.14713 2.750252,-0.541674 5.714844,-0.876953 z m 169.70117,8.697265 c 1.31941,-0.348804 1.9865,2.458802 2.00391,8.433594 0.018,6.195398 -1.31118,6.781927 -2.79492,1.234375 -1.54619,-5.78104 -1.50419,-7.921868 0.18554,-9.324219 0.21516,-0.178567 0.41699,-0.293919 0.60547,-0.34375 z M 189.00391,74 c 7.15924,0 11.03485,4.000734 12.375,12.775391 0.50769,3.324096 0.31531,4.40515 -0.86329,4.857421 C 199.68193,91.952744 199,93.270243 199,94.560547 c 0,1.859132 -0.77825,2.561423 -3.75,3.386719 -5.39126,1.497229 -15.73003,1.126023 -23.19531,-0.832032 -5.1418,-1.348636 -6.80882,-2.288878 -8.24414,-4.652343 -2.94855,-4.855224 -2.01296,-8.420668 1.36718,-5.207032 4.67574,4.445412 8.46836,6.79008 13.21485,8.169922 C 184.48751,97.197624 192,97.514597 192,96 c 0,-0.55 -0.39063,-1 -0.86719,-1 -0.47656,0 -0.6361,-3.20867 -0.35547,-7.130859 0.38832,-5.427322 0.21285,-7.033187 -0.73632,-6.716797 -0.68594,0.228646 -1.39303,2.361153 -1.57032,4.738281 -0.20736,2.78023 -1.12956,5.180352 -2.58398,6.728516 -2.93909,3.128474 -4.80425,1.619759 -2.89453,-2.341797 1.59219,-3.302881 1.99377,-10.438683 0.56054,-9.960938 -0.55003,0.183344 -1.06804,1.703802 -1.15234,3.38086 C 182.17823,88.114551 176,95.951918 176,91.816406 c 0,-0.651418 0.72839,-3.913918 1.61914,-7.25 C 179.75478,76.567916 182.52099,74 189.00391,74 Z m 0.22265,2.300781 c -0.62004,-0.07059 -1.24478,0.30286 -1.57226,1.15625 C 187.23952,78.537923 187.67712,79 189.11523,79 c 1.13951,0 1.87607,-0.528041 1.65625,-1.1875 -0.3086,-0.925804 -0.92488,-1.441131 -1.54492,-1.511719 z M 47,77 c -0.55,0 -1.031107,0.3375 -1.070312,0.75 -0.03921,0.4125 -0.278091,2.4375 -0.529297,4.5 C 45.047607,85.146502 45.292412,86 46.472656,86 47.616976,86 48,84.870009 48,81.5 48,79.025 47.55,77 47,77 Z m 148.75,3.291016 c -0.6875,0.252083 -1.08735,1.077734 -0.88867,1.833984 0.7845,2.986031 0.35023,9.063834 -0.72461,10.138672 -0.625,0.625 -1.13672,1.533698 -1.13672,2.019531 0,1.984382 2.49333,-0.14932 4.3457,-3.71875 1.5837,-3.051712 1.74689,-4.185846 0.81641,-5.675781 C 197.52262,83.864681 197,82.307984 197,81.429688 c 0,-0.878299 -0.5625,-1.390756 -1.25,-1.138672 z M 44.556641,94 C 43.373189,94 43,95.101376 43,98.583984 43,104.486 45.366916,104.13828 45.806641,98.171875 46.045584,94.929772 45.766907,94 44.556641,94 Z m 157.359379,2.123047 c 0.34739,0.01431 0.64635,0.107292 0.8125,0.273437 0.33229,0.332292 -0.25834,0.568811 -1.3125,0.525391 -1.16495,-0.04798 -1.40125,-0.286243 -0.60352,-0.605469 0.36094,-0.144434 0.75612,-0.207669 1.10352,-0.193359 z M 175.53906,112 c -1.50396,0 -3.56775,7.17341 -2.85156,9.91211 0.26787,1.02436 -0.002,2.16367 -0.59961,2.5332 -1.17478,0.72605 -1.55048,15.76007 -0.42187,16.88867 1.53555,1.53556 2.07713,0.31534 2.66796,-6.01171 0.34298,-3.6729 1.14143,-6.99807 1.77344,-7.38868 0.63202,-0.39061 0.85616,-1.18423 0.49805,-1.76367 -0.35812,-0.57945 -0.27258,-3.46376 0.18945,-6.41015 C 177.73299,113.77779 177.44522,112 175.53906,112 Z m 191.49024,4.06836 c 0.9096,-0.0153 1.02381,0.5108 0.80859,2.00391 -0.2694,1.86896 -1.84247,2.94931 -7.83789,5.38476 -4.125,1.67566 -9.2127,4.0582 -11.30664,5.29492 -2.09394,1.23672 -4.14402,2.24805 -4.55469,2.24805 -0.41067,0 -2.27289,1.575 -4.13867,3.5 -1.86578,1.925 -3.9782,3.5 -4.69531,3.5 -1.66823,0 -1.71893,1.96139 -0.0547,2.11914 2.72772,0.25855 4.35868,-0.38988 6.80469,-2.70312 1.40509,-1.32884 2.89115,-2.41602 3.30273,-2.41602 0.41159,0 2.40424,-1.125 4.42774,-2.5 4.60223,-3.12733 5.21484,-3.12159 5.21484,0.0508 0,1.97024 -0.79684,2.88421 -3.5,4.01367 -2.64754,1.10621 -3.5,2.05787 -3.5,3.90821 0,2.69726 -3.49752,6.40377 -8.67383,9.1914 -1.83673,0.98915 -3.17722,2.25588 -2.97851,2.81641 0.42685,1.20415 5.73291,0.79406 7.10156,-0.54883 0.5225,-0.51267 1.6994,-0.93164 2.61523,-0.93164 0.91583,0 2.7626,-0.8632 4.10352,-1.91797 1.34093,-1.05477 4.10151,-2.22989 6.13476,-2.61133 5.79631,-1.0874 4.78132,1.83139 -1.55273,4.46485 -2.8875,1.20052 -6.6,2.82023 -8.25,3.59765 -1.65,0.77741 -7.90481,3.67466 -13.89844,6.43946 -5.99362,2.7648 -11.50612,5.02734 -12.25,5.02734 -0.92237,0 -1.35623,-1.35161 -1.36523,-4.25 -0.008,-2.3375 -0.24785,-5.15 -0.53516,-6.25 -0.7246,-2.77425 11.28998,-19.11259 16.91406,-23 15.60567,-10.78676 22.61042,-14.52171 30.47266,-16.25195 0.4975,-0.10949 0.88821,-0.1746 1.19141,-0.17969 z m -3.89844,19.07812 c 0.78398,-0.0237 0.86914,0.59265 0.86914,1.82813 0,1.14419 -1.15628,2.56882 -2.75,3.38867 -6.99898,3.60046 -10.08267,4.51592 -10.60742,3.14844 -0.64366,-1.67735 1.63017,-3.62404 7.42383,-6.35742 2.79837,-1.32024 4.28047,-1.98407 5.06445,-2.00782 z m -340.181641,2.35157 c 1.189306,0.32056 2.12836,1.65555 1.722656,2.93945 -0.551206,1.74436 -2.181483,1.57793 -3.382813,-0.3457 -0.980052,-1.56932 -0.903198,-2.02638 0.427735,-2.53711 0.411866,-0.15805 0.835986,-0.16358 1.232422,-0.0566 z M 363,145 c 1.16492,0 1.83992,0.45 1.5,1 -0.33992,0.55 -1.01492,1 -1.5,1 -0.48508,0 -1.16008,-0.45 -1.5,-1 -0.33992,-0.55 0.33508,-1 1.5,-1 z m -202.36328,1.16992 c -0.4827,0.3416 -0.57403,1.5434 -0.23828,3.58008 0.34,2.0625 0.60519,5.1549 0.58789,6.87109 -0.0173,1.7162 0.62797,7.3412 1.43359,12.5 0.80561,5.15881 1.31634,13.31641 1.13477,18.12891 -0.25314,6.70972 -0.0248,8.75 0.97851,8.75 3.73296,0 2.54328,-43.85996 -1.30859,-48.25 -1.23107,-1.40306 -2.10519,-1.92168 -2.58789,-1.58008 z m -8.10742,0.80274 c -0.67648,-0.61047 -1.54632,1.33258 -2.375,6.03711 -1.30262,7.39511 0.36522,18.11695 4.89258,31.46484 1.68375,4.96423 3.24856,9.58789 3.47656,10.27539 0.4803,1.44824 2.47656,1.7016 2.47656,0.31445 0,-0.5142 -0.48134,-2.2017 -1.07031,-3.75 -2.69871,-7.09451 -6.0938,-26.3441 -6.1836,-35.06445 -0.0567,-5.50348 -0.54031,-8.66688 -1.21679,-9.27734 z m -131.888675,3.32031 3.179687,0.4668 C 26.104964,151.09509 27,151.75795 27,153.11328 c 0,2.41745 -0.319688,2.37631 -3.625,-0.4668 z m 11.185547,2.74805 c 0.77988,-0.11746 1.014554,1.89235 1.560547,8.70898 0.642623,8.02305 0.09166,9.73704 -2.228516,6.94141 -1.488305,-1.7933 -1.744249,-13.50576 -0.326172,-14.92383 0.412876,-0.41288 0.734181,-0.68741 0.994141,-0.72656 z m -5.626953,3.52343 c 0.310613,0 0.527333,0.15483 0.634765,0.4668 0.6608,1.9189 -0.295915,2.93002 -1.833984,1.9375 -1.333333,-0.8604 -1.333333,-1.0771 0,-1.9375 0.483447,-0.31197 0.888605,-0.4668 1.199219,-0.4668 z M 24.738281,162 c 1.126399,0 2.301505,0.66137 2.611328,1.46875 0.899852,2.34498 -0.917776,2.6662 -2.871093,0.50781 C 22.752315,162.06914 22.761769,162 24.738281,162 Z m 165.523439,9.26758 c -2.2232,-0.3279 -2.4872,2.306 -1.9668,12.65625 0.32152,6.39472 1.04942,12.8531 1.61914,14.35156 0.56972,1.49847 1.75463,2.72461 2.63282,2.72461 1.36754,0 1.48441,-0.82513 0.8164,-5.75 -0.42896,-3.1625 -0.71768,-9.65119 -0.64258,-14.41992 0.109,-6.9203 -0.17055,-8.78872 -1.38281,-9.25391 -0.40093,-0.15385 -0.75857,-0.26175 -1.07617,-0.30859 z M 148.39258,176 C 147.43791,176 147,177.23885 147,179.93555 c 0,4.57787 1.24334,8.27323 4.30859,12.80859 1.20556,1.78374 2.52891,3.246 2.94141,3.25 1.11973,0.0102 0.9436,-0.69434 -1.25,-4.99414 -1.1,-2.15618 -2,-5.70199 -2,-7.87891 C 151,178.1971 150.19509,176 148.39258,176 Z m 57.97265,0.37109 c -0.55991,-0.10018 -0.96986,-0.10036 -1.09375,0.0234 -0.24777,0.24777 0.22922,3.7472 1.0586,7.77735 0.98871,4.80438 1.2396,8.78215 0.72851,11.55078 -0.42872,2.32243 -0.52995,4.472 -0.22461,4.77734 0.30534,0.30534 1.33572,-0.24488 2.28907,-1.22266 1.75452,-1.79948 2.15274,-4.93635 1.97461,-15.55273 -0.0886,-5.28063 -0.32342,-5.85995 -2.73633,-6.77734 -0.72564,-0.27589 -1.43618,-0.47599 -1.9961,-0.57618 z m -31.86328,3.67188 c -0.82481,-0.12959 -1.51277,0.0807 -1.57031,0.70703 -0.14978,1.63042 -0.84512,6.96606 -1.43359,11 -0.65352,4.47988 0.24956,5.35785 2.84375,2.76367 2.19909,-2.1991 3.98884,-11.41021 2.55273,-13.14062 -0.60641,-0.73068 -1.56776,-1.2005 -2.39258,-1.33008 z M 35.904297,180.56836 C 36.582138,180.63315 37,180.80294 37,181.0625 37,181.57792 35.125651,182 32.833984,182 c -4.934835,0 -4.776512,-0.49365 0.416016,-1.29492 1.038637,-0.16028 1.976456,-0.20152 2.654297,-0.13672 z m 2.337891,4.03125 c 0.683171,-0.055 2.015135,1.54041 2.958984,3.54492 0.943849,2.0045 2.859832,4.54487 4.257812,5.64453 C 46.856963,194.88871 48,196.44978 48,197.25977 c 0,0.80998 -2.563594,4.23406 -5.697266,7.60742 -3.512806,3.78149 -6.508672,6.13281 -7.8125,6.13281 -2.605461,0 -13.375191,-7.96086 -13.441406,-9.93555 -0.02647,-0.78937 2.088672,-4.72029 4.701172,-8.73633 4.200156,-6.45661 5.126209,-7.32079 8,-7.46484 1.7875,-0.0896 3.809016,-0.20867 4.492188,-0.26367 z M 32.996094,187 c -0.419638,0 -2.429817,2.79989 -4.46875,6.22266 l -3.707032,6.22461 3.574219,3.27539 C 30.361105,204.52489 32.436852,206 33.005859,206 35.057738,206 42,200.94073 42,199.44531 42,197.75955 34.215694,187 32.996094,187 Z M 201,191 c -1.5431,0 -2,0.66643 -2,2.91797 0,1.60502 -0.27357,3.63002 -0.60742,4.5 -0.38135,0.9938 -0.0684,1.58203 0.8418,1.58203 0.81538,0 1.9555,-1.6893 2.60742,-3.86523 C 203.35452,191.08579 203.3405,191 201,191 Z m -167.445312,1.19141 c 0.889175,0.16454 1.947703,1.29216 3.402343,3.42773 2.387785,3.50553 2.403058,3.64543 0.558594,4.99414 -2.33381,1.70627 -3.512592,1.70472 -5.765625,-0.006 -2.055844,-1.5606 -2.158955,-2.61672 -0.589844,-6.06054 0.784262,-1.72129 1.505355,-2.52002 2.394532,-2.35547 z M 52.416016,195 c 2.480796,0 3.643067,1.53926 2.830078,3.75 -0.635701,1.72865 -1.651678,1.56567 -3.591797,-0.57812 C 49.405261,195.68672 49.57009,195 52.416016,195 Z m -37.933594,1.6543 c 1.263495,0.32017 1.776954,1.75565 1.339844,4.02539 -0.449341,2.33324 -3.153958,2.82871 -4.775391,0.875 -1.6427821,-1.97943 -0.785975,-4.12773 1.929687,-4.83789 0.5801,-0.1517 1.084695,-0.16923 1.50586,-0.0625 z m 130.124998,2.60351 c 1.33833,-0.20908 0.9887,2.75441 -1.02734,8.41016 -1.33949,3.75774 -2.96867,9.75703 -3.6211,13.33203 -1.88554,10.33201 -3.87867,16.60242 -6.51171,20.48242 -1.34576,1.98308 -2.44727,3.97634 -2.44727,4.42774 0,0.4514 -0.95814,2.03699 -2.12891,3.52539 -1.45939,1.85532 -1.80522,3.0307 -1.09961,3.73633 1.20432,1.20429 11.87359,-13.14073 12.77149,-17.17188 0.30627,-1.375 0.99525,-4.075 1.5332,-6 0.53794,-1.925 1.16981,-5.3 1.4043,-7.5 0.79852,-7.49198 3.9375,-20.13844 5.38086,-21.68359 0.35161,-0.3764 2.33276,0.10322 4.40429,1.0664 2.07158,0.96319 3.45501,2.06453 3.07227,2.44727 C 155.30415,205.36381 151,218.95751 151,221.18945 c 0,1.06047 0.45,1.65047 1,1.31055 0.55,-0.33992 1,-1.29057 1,-2.11328 0,-0.82272 0.86793,-3.40016 1.92773,-5.72656 1.0598,-2.32641 2.2326,-5.4519 2.60743,-6.94532 0.67746,-2.69924 1.91606,-3.24728 4.82031,-2.13281 1.7281,0.66313 1.54822,1.38449 -2.49414,10.06055 -1.57418,3.37863 -2.86133,6.41613 -2.86133,6.75 0,0.33387 1.09815,0.60742 2.43945,0.60742 2.14675,0 2.51935,-0.5687 3.1211,-4.75 0.37598,-2.6125 1.23603,-5.425 1.91015,-6.25 0.67412,-0.825 1.52339,-2.33838 1.88868,-3.36328 0.48178,-1.35186 1.27889,-1.69879 2.90234,-1.26367 1.23082,0.32989 4.42882,0.60528 7.10547,0.61328 4.57332,0.0128 4.82537,0.14928 4.20508,2.26367 -0.36303,1.2375 -1.06879,6.525 -1.57032,11.75 -0.50153,5.225 -1.2137,10.9625 -1.58203,12.75 -0.58875,2.85716 -0.41306,3.25 1.45508,3.25 1.34682,0 2.13514,-0.64085 2.15234,-1.75 0.0866,-5.59307 1.96596,-20.49775 3.03516,-24.06641 1.1383,-3.79933 1.55301,-4.18359 4.51367,-4.18359 1.79296,0 3.87272,-0.23431 4.6211,-0.52148 1.10412,-0.42369 1.39596,2.21696 1.54492,14.0039 0.10097,7.98928 0.71732,16.43608 1.37109,18.77149 0.65377,2.3354 1.28612,11.33359 1.4043,19.99609 l 0.21484,15.75 -3.61719,-0.0312 c -1.98882,-0.0167 -4.29023,-0.40553 -5.11523,-0.86523 -0.825,-0.4597 -3.525,-1.14184 -6,-1.51563 -2.475,-0.37379 -6.13122,-1.80662 -8.125,-3.18359 -3.31093,-2.28662 -5.00069,-2.58372 -19.5,-3.42774 -8.73122,-0.50826 -17.9,-1.40053 -20.375,-1.98242 -6.48937,-1.52568 -17.39288,-5.34844 -18.12695,-6.35547 -0.34519,-0.47356 0.87898,-3.39856 2.7207,-6.5 4.14472,-6.97971 9.21259,-17.42534 12.92578,-26.63867 1.55164,-3.85 4.54429,-10.42645 6.65039,-14.61523 2.1061,-4.18878 3.83008,-8.32516 3.83008,-9.19141 0,-0.86626 0.41965,-1.83396 0.93164,-2.15039 0.26013,-0.16077 0.48459,-0.25529 0.67578,-0.28516 z M 230.58984,200 c 1.0562,0 4.40857,4.42275 5.875,7.75 0.78781,1.7875 1.90632,3.25 2.48438,3.25 0.57807,0 1.05078,0.42054 1.05078,0.93555 0,0.51501 3.44301,6.70251 7.65039,13.75 8.69849,14.57027 11.73498,20.86819 10.99414,22.79883 -0.28256,0.73634 -2.11917,1.91983 -4.08008,2.6289 -2.92124,1.05634 -3.56445,1.78986 -3.56445,4.06445 0,1.94778 -0.8205,3.28621 -2.75,4.48438 -1.5125,0.93921 -3.65,2.46554 -4.75,3.39258 -1.1,0.92705 -3.502,1.66865 -5.33789,1.64843 -1.83588,-0.0203 -3.63588,0.37767 -4,0.88477 -0.81276,1.13194 -5.46103,2.67767 -14.66211,4.875 -3.85,0.91943 -8.62642,2.09259 -10.61523,2.60547 -5.04194,1.30022 -8.88665,1.16173 -8.86915,-0.31836 0.008,-0.6875 0.67134,-4.03678 1.47461,-7.44336 1.54475,-6.55109 1.27822,-21.00441 -0.44726,-24.22852 -0.51218,-0.95698 -1.19316,-4.85256 -1.51172,-8.6582 -0.31856,-3.80564 -0.95997,-9.61992 -1.42578,-12.91992 -0.46581,-3.3 -0.78213,-6.45213 -0.70313,-7.00586 0.33895,-2.37604 3.5373,-5.65321 5.20508,-5.33203 1.45657,0.28051 2.12267,2.40322 3.5625,11.3418 0.97417,6.04779 2.4331,12.57109 3.24219,14.49609 0.80909,1.925 1.75373,4.5125 2.09766,5.75 0.37283,1.34147 1.40634,2.25 2.55859,2.25 2.30571,0 2.28712,0.1657 0.53906,-5.21484 -1.25079,-3.84993 -4.57158,-17.01846 -6.03711,-23.94141 -0.30937,-1.4614 -0.81471,-3.32031 -1.125,-4.12891 -0.43965,-1.14573 0.71645,-1.62814 5.24414,-2.18945 3.19544,-0.39614 7.32894,-1.3517 9.1836,-2.12305 C 223.72772,202.631 225.78602,202 226.44727,202 c 1.82814,0 10.59427,21.49933 10.5625,25.9043 -0.0135,1.87338 4.43855,11.1939 7.5039,15.71093 2.70374,3.98419 2.50949,5.04539 -1.17773,6.44727 -1.79528,0.68255 -2.30926,1.44709 -1.88086,2.79688 0.48935,1.54178 -0.47622,2.23915 -5.6836,4.10937 -7.65041,2.74763 -8.82105,3.70714 -5.85937,4.80273 1.68277,0.6225 3.99856,-0.0122 9.16992,-2.51367 C 245.25429,256.27223 247.81185,254 245,254 c -2.15275,0 -0.84081,-1.8604 2.01367,-2.85547 1.65725,-0.57772 3.25605,-1.68192 3.55274,-2.45508 0.29669,-0.77316 -1.32309,-4.37423 -3.59766,-8.00195 -2.27458,-3.62772 -4.79484,-9.20487 -5.60156,-12.39258 -0.80672,-3.1877 -2.31785,-7.59492 -3.35742,-9.79492 -1.03957,-2.2 -2.80243,-6.10268 -3.91797,-8.67188 -1.11554,-2.56918 -2.49302,-4.95783 -3.06055,-5.30859 C 229.94806,203.85008 229.57214,200 230.58984,200 Z m -12.83203,10 c -0.63626,0 -0.4555,0.55249 0.40821,1.25 2.24404,1.81223 4.83398,9.16411 4.83398,13.7207 0,2.68796 0.55309,4.25209 1.75,4.94922 2.39214,1.39329 3.55661,1.32714 2.99219,-0.16992 -0.25921,-0.6875 -1.24674,-3.95 -2.19531,-7.25 -1.75912,-6.11985 -5.73492,-12.5 -7.78907,-12.5 z m -181.708982,5.05273 c 0.451775,-0.0409 0.819242,0.43538 1.521484,1.38868 0.786463,1.06762 1.429688,2.53012 1.429688,3.25 0,1.5372 -5.570386,1.81376 -6.492188,0.32226 -0.335518,-0.54288 0.345122,-2.00538 1.511719,-3.25 1.041673,-1.11134 1.577522,-1.66999 2.029297,-1.71094 z m 124.162112,33.2168 c -0.54262,-0.0301 1.22702,2.49661 5.00195,6.78516 3.63964,4.13484 5.5251,5.60284 6.25,4.86328 0.72179,-0.73637 0.27542,-1.65283 -1.46289,-3.00781 -1.375,-1.07179 -4.1875,-3.61544 -6.25,-5.65235 -2.05613,-2.03061 -3.21349,-2.97021 -3.53906,-2.98828 z M 142.64062,270.25 c 1.03534,-0.0817 2.38713,0.17271 4.11524,0.65039 2.60929,0.72126 7.79664,1.51616 11.52734,1.76758 6.86364,0.46254 22.30694,4.52178 24.12696,6.3418 0.54441,0.54441 2.24906,0.99023 3.78906,0.99023 1.54,0 2.80078,0.43893 2.80078,0.97461 0,2.46997 -8.53922,22.6218 -9.95703,23.49805 -0.49679,0.30704 -1.20382,3.13915 -1.57227,6.29296 -0.36845,3.15385 -1.08116,7.66748 -1.58398,10.0293 -0.50283,2.36182 -1.33826,9.48633 -1.85547,15.83203 -0.87693,10.75907 -1.21385,12.03456 -4.98633,18.90821 -3.36574,6.13255 -4.04492,8.31022 -4.04492,12.96093 0,5.21841 -0.29038,5.90258 -4.37695,10.29688 -2.40764,2.58894 -5.38023,6.73203 -6.60547,9.20703 -1.22523,2.475 -3.28758,6.525 -4.58203,9 -1.29446,2.475 -2.37183,5.75149 -2.39453,7.28125 -0.0259,1.74524 -0.69295,2.98858 -1.79102,3.33789 -0.9625,0.30618 -3.4375,1.44645 -5.5,2.5332 l -3.75,1.97657 -0.1582,-4.81446 c -0.0867,-2.64769 -0.0682,-5.48945 0.041,-6.31445 0.1092,-0.825 0.37409,-5.26775 0.58789,-9.87305 0.21379,-4.60531 0.94273,-9.7088 1.61914,-11.34179 0.91641,-2.21238 0.93805,-3.14921 0.0859,-3.67578 -2.16931,-1.34072 -0.0855,-19.82324 2.33984,-20.75391 0.6954,-0.26685 1.05861,-1.26663 0.8086,-2.22266 -0.25257,-0.96585 1.20762,-4.15882 3.28516,-7.18554 3.79997,-5.53618 5.98325,-14.53675 4.35351,-17.94727 C 147.63541,325.22178 146,319.37396 146,317.40234 c 0,-1.07607 -0.60855,-2.84481 -1.35352,-3.92968 -1.87344,-2.72825 -2.65471,-6.64005 -3.18945,-15.97266 -0.25212,-4.4 -0.77808,-10.925 -1.16797,-14.5 -1.00845,-9.24665 -0.75443,-12.50506 2.35156,-12.75 z M 3.625,281.07031 c 0.1606878,0.55482 0.3173596,1.11133 0.4785156,1.66602 0.093223,0.063 0.1881767,0.12598 0.2851563,0.1914 C 4.1681532,282.4068 3.8701715,281.66444 3.625,281.07031 Z M 298.55859,293 c -0.24254,0 -0.71867,0.45 -1.05859,1 -0.33992,0.55 -0.14105,1 0.44141,1 0.58246,0 1.05859,-0.45 1.05859,-1 0,-0.55 -0.19887,-1 -0.44141,-1 z M 9.1230469,296.79102 c 0.1516728,0.31858 0.2888611,0.61341 0.4355469,0.92578 9.072e-4,-0.0716 0.00586,-0.14329 0.00586,-0.21485 V 297.5 c 0,-0.0438 0.0072,-0.0799 0.00781,-0.12305 -0.1459702,-0.20035 -0.3015113,-0.38789 -0.4492187,-0.58593 z m 288.1523431,1.13476 c -0.39875,-0.0412 -0.905,0.465 -1.125,1.125 -0.22,0.66 0.13883,1.01883 0.79883,0.79883 1.28914,-0.42971 1.52187,-1.80014 0.32617,-1.92383 z M 0.03710937,302.81445 0.03125,303.75977 c 0.16217052,0.16234 0.31100297,0.33483 0.47460938,0.49609 0.0222234,-0.14752 0.0114711,-0.13045 0.0390625,-0.31641 0.66951962,-0.0314 1.10998262,-0.10534 1.61718752,-0.16797 l -0.2128906,-0.32812 c -0.019243,0.61716 -0.8881629,0.14426 -1.91210943,-0.62891 z M 220.08398,303.55859 c -0.19467,-0.004 -0.3648,0.0543 -0.5,0.18946 -1.08653,1.08653 -0.5937,3.58509 1.07032,5.42383 2.22132,2.45452 3.3457,2.30349 3.3457,-0.44922 0,-2.01231 -2.55332,-5.13842 -3.91602,-5.16407 z M 2.9082031,304.92773 c -0.087128,0.0332 -0.1736842,0.0672 -0.2617187,0.10157 0.1096285,0.008 0.230564,0.0197 0.3457031,0.0293 z m -0.2617187,0.10157 c -0.5548443,-0.0421 -1.0341121,-0.0579 -1.421875,-0.041 0.1340587,0.13312 0.2598797,0.27216 0.3925781,0.40625 0.3315136,-0.10566 0.6756961,-0.22738 1.0292969,-0.36523 z m -1.0292969,0.36523 c -0.3404419,0.10851 -0.66745889,0.19716 -0.95898438,0.23438 0.001419,0.0137 0.00792,0.0438 0.009766,0.0625 0.1428959,0.13579 0.25585065,0.22203 0.39257815,0.34765 0.3517475,-0.0323 0.7003159,-0.0891 1.0507812,-0.13281 -0.1636293,-0.17137 -0.3270491,-0.34287 -0.4941406,-0.51172 z m 0.4941406,0.51172 c 0.058778,0.0616 0.1195303,0.12162 0.1777344,0.18359 0.3362607,-0.0485 0.7272256,-0.12683 1.21875,-0.23437 l -0.076172,-0.11719 c -0.4396142,0.0606 -0.8799058,0.11301 -1.3203125,0.16797 z m -2.03906248,-0.24609 c 0.02593082,0.71024 0.09494264,1.38404 0.21289063,1.99414 0.0166065,-0.0348 0.0410925,-0.0708 0.0566406,-0.10547 -0.0159402,-0.45602 -0.0452459,-1.29724 -0.0429688,-1.54492 -0.0843237,-0.13663 -0.14547769,-0.21549 -0.2265625,-0.34375 z M 20.402344,321.77539 c 0.0018,1.00519 0.0017,2.01042 0.0039,3.01563 0.08863,-0.8802 0.0605,-1.92354 -0.0039,-3.01563 z M 163.53906,329 c -2.73779,0 -3.94171,2.37769 -2.53515,5.00586 1.21267,2.2659 1.32491,8.99414 0.15039,8.99414 -0.46476,0 -1.65881,-0.9 -2.6543,-2 -1.99589,-2.20543 -4.5,-2.66275 -4.5,-0.82227 0,0.64745 1.4625,2.42879 3.25,3.95899 1.7875,1.53021 3.30279,2.79986 3.36719,2.82226 0.85945,0.29824 5.19217,-8.29071 4.75586,-9.42773 -0.32847,-0.85597 -0.0593,-2.20448 0.59765,-2.99609 C 167.76565,332.37238 166.28393,329 163.53906,329 Z m 69.73828,10.17188 c -0.68597,-0.22965 -1.37973,0.24762 -2.30078,1.35742 -1.0484,1.26325 -0.91351,1.91566 0.78125,3.75 1.12844,1.22137 2.61535,4.1332 3.30469,6.4707 1.37478,4.66173 1.60745,4.81645 4.23438,2.82422 0.98804,-0.74937 2.7469,-1.11423 3.9082,-0.81055 1.59559,0.41726 1.10776,-0.45083 -1.99414,-3.55273 -2.25761,-2.25761 -4.81523,-5.47896 -5.6836,-7.15821 -0.88689,-1.71505 -1.56402,-2.65121 -2.25,-2.88085 z m -77.375,29.26757 c -1.2509,-0.77311 -7.80023,6.14676 -7.86523,8.31055 -0.0207,0.6875 0.63789,1.25 1.46289,1.25 0.825,0 1.5,-0.43398 1.5,-0.96484 0,-0.53087 1.36474,-2.51966 3.0332,-4.41993 2.07747,-2.36611 2.66739,-3.68244 1.86914,-4.17578 z m 124.58789,25.76172 c -3.00051,0.0361 -3.52404,0.95681 -2.89062,3.375 0.46355,1.7697 1.64075,1.94157 14.70312,2.15625 14.39138,0.23652 34.38832,0.89571 56.19727,1.85156 10.42471,0.45689 34.55635,2.39796 51.26758,4.12305 2.89765,0.29912 5.51326,0.93692 5.81054,1.41797 0.29731,0.48105 1.86293,0.875 3.48047,0.875 2.27431,0 2.94141,-0.45336 2.94141,-2 0,-1.36228 -0.71744,-2.0486 -2.25,-2.15234 -2.84476,-0.19258 -3.88096,-0.39538 -5.75,-1.12891 -2.95766,-1.16078 -20.60298,-3.43925 -33,-4.25977 -10.87055,-0.71949 -17.8699,-1.23094 -26,-1.90039 -3.575,-0.29438 -17.3,-0.75197 -30.5,-1.01757 -13.2,-0.26559 -26.76078,-0.76228 -30.13477,-1.10352 -1.59977,-0.1618 -2.87482,-0.24835 -3.875,-0.23633 z m -162.13476,1.18555 C 107.18821,395.28568 87.313464,396.03708 77.5,397.125 c -5.5,0.60973 -12.475,1.23154 -15.5,1.38086 -8.937592,0.44117 -27.430061,2.77249 -28.363281,3.57617 -0.474577,0.4087 -0.571392,1.21606 -0.214844,1.79297 0.396086,0.64088 1.510182,0.72913 2.863281,0.22852 1.970467,-0.72902 8.917087,-1.42529 26.714844,-2.68164 3.025,-0.21356 7.975,-0.60767 11,-0.875 19.575028,-1.7299 35.94978,-2.47753 45.32617,-2.06836 8.14665,0.3555 10.72488,0.17658 10.42383,-0.72657 -0.22002,-0.66005 -1.94034,-1.54283 -3.82422,-1.96093 -1.09221,-0.24241 -3.84789,-0.37062 -7.57031,-0.4043 z m 75.39453,7.84375 29.25,0.24219 v 3.83593 3.83594 l -5.75,-0.7207 c -3.1625,-0.39598 -9.35,-0.71499 -13.75,-0.70899 -4.4,0.006 -10.7,0.18569 -14,0.40039 -3.3,0.2147 -13.04342,0.2659 -21.65234,0.11329 -12.31442,-0.21829 -15.76816,-0.57669 -16.19141,-1.67969 -1.67445,-4.36352 8.10798,-5.59985 42.09375,-5.31836 z m 76.37109,1.83398 c -1.61465,0.0976 -2.10659,0.56336 -2.77148,1.47266 -1.23363,1.68709 -1.18913,1.99766 0.37305,2.57812 0.97715,0.36309 11.22734,0.70818 22.77734,0.76758 30.44286,0.15645 59.31837,1.08635 64.5,2.07617 2.475,0.47279 5.4,0.83309 6.5,0.80079 4.22132,-0.1238 34.28742,3.39662 40,4.68359 3.3,0.74345 6.3375,1.39868 6.75,1.45508 1.02782,0.14042 0.95158,-2.65515 -0.0898,-3.29883 -1.08259,-0.66907 -14.04716,-2.11751 -36.66016,-4.09375 -9.9,-0.8652 -21.92658,-2.01767 -26.72656,-2.56055 -4.79998,-0.54288 -18.97498,-1.20855 -31.5,-1.48047 -12.52502,-0.27192 -27.66599,-1.02297 -33.64649,-1.66992 -5.15312,-0.55745 -7.8912,-0.82811 -9.50586,-0.73047 z M 130.95312,407 c 0.35428,0 1.18218,1.48348 1.8379,3.29688 0.65571,1.81333 1.82927,4.16947 2.60937,5.23632 1.3133,1.79605 1.55576,1.82065 3.25977,0.32422 3.71215,-3.25994 7.70117,-4.66975 10.33984,-3.6543 1.43256,0.55132 14.24186,0.87508 30,0.75782 15.125,-0.1126 31.2125,-0.15117 35.75,-0.084 L 223,413 v 3.10742 3.10742 l -10.25,-0.80078 c -12.94508,-1.01219 -27.08668,-1.08108 -46.5,-0.22851 L 151,418.85547 v -2.42774 C 151,415.09271 150.56581,414 150.03516,414 148.6975,414 147,417.41464 147,420.10547 c 0,4.42336 -2.58662,5.85825 -9.41406,5.2207 l -6.19141,-0.57812 -6.03125,6.125 c -5.09112,5.1707 -6.56468,6.11973 -9.44726,6.08593 -3.84564,-0.0451 -8.4024,-2.17961 -9.22461,-4.32226 -0.76447,-1.99218 2.93552,-5.14864 8.66211,-7.38867 4.2773,-1.67312 5.26397,-2.6588 8.33203,-8.32227 C 127.15677,410.5181 129.73225,407 130.95312,407 Z m 65.99219,13.79102 c 14.20263,0.18562 24.16007,0.93874 25.2168,2.02734 0.36401,0.37498 0.92177,4.16914 1.24023,8.43164 0.31847,4.2625 0.24536,7.72039 -0.16211,7.68359 -0.40747,-0.0368 -2.76523,-0.70461 -5.24023,-1.48437 -13.74155,-4.32933 -49.10335,-6.0302 -73.23828,-3.52149 -7.55623,0.78547 -14.03294,1.13504 -14.39258,0.77539 -0.94799,-0.94799 1.51176,-3.58995 5.04297,-5.41601 2.39395,-1.23796 6.20446,-1.56743 17.57227,-1.51953 15.34933,0.0647 41.93123,1.57291 58.37109,3.3125 8.88439,0.9401 13.22939,0.71783 9.53711,-0.48828 -12.58488,-4.11092 -28.36088,-5.71192 -55.2207,-5.60547 -15.37114,0.0609 -16.79939,-0.0818 -16.49805,-1.64649 0.39791,-2.06619 1.14286,-2.12574 32.32617,-2.53711 5.50528,-0.0726 10.7111,-0.0736 15.44531,-0.0117 z M 79.191406,426.5 C 68.702487,426.47028 58.853429,426.96869 55,427.72461 51.425205,428.42587 46.214008,429 43.417969,429 c -5.802867,0 -6.404536,0.33341 -5.669922,3.14258 0.291486,1.1147 0.80443,1.5931 1.140625,1.0625 0.924823,-1.4596 15.003553,-2.73465 42.111328,-3.8125 9.075,-0.36084 16.686849,-0.82091 16.916016,-1.02344 1.530098,-1.3522 -3.199868,-1.82514 -18.72461,-1.86914 z m 9.984375,10.45508 c -17.458016,-0.0514 -48.741249,1.51138 -50.458984,3.02148 -0.43053,0.37849 -0.480206,1.47622 -0.111328,2.4375 0.473792,1.23468 1.291163,1.55653 2.783203,1.09766 5.46848,-1.68181 22.920441,-2.95572 40.861328,-2.98242 14.130273,-0.021 19.75001,-0.35411 19.75,-1.17188 0,-0.62866 -0.71204,-1.41616 -1.58203,-1.75 -1.140277,-0.43756 -5.42285,-0.63522 -11.242189,-0.65234 z m 18.291019,1.38672 c 0.28908,-0.10646 0.71669,-0.0638 1.2832,0.17187 0.9625,0.40044 3.8875,0.956 6.5,1.23438 5.34385,0.56943 5.93077,1.39336 2.20312,3.09179 -3.67488,1.67439 -6.90044,1.42973 -8.79882,-0.66796 -1.66996,-1.84529 -2.05474,-3.51073 -1.1875,-3.83008 z m -42.87305,10.19726 c -5.489684,0.0906 -9.969195,0.57322 -15.34375,1.47852 -5.703158,0.96065 -8.25,1.81786 -8.25,2.77734 0,1.10158 1.289518,1.26036 6.25,0.77149 5.319354,-0.52423 29.275469,-0.61602 48.75,-0.1875 4.27601,0.0941 5.5,-0.21273 5.5,-1.37891 0,-1.222 -2.872695,-1.70108 -15.5,-2.58789 -9.41671,-0.66134 -15.916566,-0.96359 -21.40625,-0.87305 z m 103.61133,3.97071 c -6.26037,0.006 -12.17286,0.34871 -20.70508,1.03125 -9.9,0.79195 -20.02194,1.55621 -22.49219,1.69921 -3.49534,0.20233 -4.5697,0.68037 -4.84961,2.1543 -0.34208,1.80131 0.21886,1.86231 11.49024,1.24414 23.33127,-1.27958 64.99636,-1.78365 72.85156,-0.88086 7.93152,0.91157 11.5,0.68746 11.5,-0.72265 0,-0.87703 -13.19956,-2.74381 -25,-3.53516 -9.92629,-0.66564 -16.53455,-0.99596 -22.79492,-0.99023 z m -79.67383,5.31835 c -3.89177,0.0257 -9.092692,0.1153 -16.03125,0.23438 -9.9,0.16989 -20.5875,0.30478 -23.75,0.30078 -4.687786,-0.006 -5.75,0.29865 -5.75,1.64844 0,0.91061 0.194159,1.84846 0.431641,2.08594 0.237482,0.23748 3.724982,0.18472 7.75,-0.11719 8.859276,-0.66455 44.727266,-0.63441 46.794921,0.0391 0.955343,0.31114 1.596203,-0.31347 1.81836,-1.76953 0.305358,-2.00142 0.411638,-2.49886 -11.263672,-2.42188 z M 0.43554688,463 c -1.04406844,0 -0.3137637,6.8395 0.81445312,7.62695 0.6875,0.47984 6.0447118,0.87305 11.904297,0.87305 5.859586,0 10.474912,0.2914 10.255859,0.64648 -0.563644,0.91363 41.828045,0.4567 43.308594,-0.46679 0.670681,-0.41833 3.820681,-0.69258 7,-0.60938 3.17932,0.0832 8.417608,-0.36202 11.640625,-0.99023 4.229899,-0.8245 6.225128,-0.8404 7.171875,-0.0547 0.955046,0.79262 1.912991,0.73324 3.521484,-0.21875 1.581575,-0.93606 2.324607,-0.98594 2.619141,-0.17969 0.27001,0.73912 2.374675,0.95164 6.121095,0.61914 7.12819,-0.63264 32.68647,-0.85469 40.70703,-0.35351 3.3,0.20621 6.55222,0.81083 7.22656,1.34375 0.68546,0.5417 3.33109,0.67877 6,0.31055 8.11017,-1.11902 28.55521,-0.64977 36.77344,0.84374 5.03039,0.9142 30.5,-1.52587 30.5,-2.92187 C 226,467.37249 220.6215,467 190.33594,467 c -16.17793,0 -33.55918,-0.45459 -38.625,-1.00977 -5.06583,-0.55518 -14.79239,-1.12335 -21.61524,-1.26367 -11.13787,-0.22907 -12.45289,-0.0745 -12.86718,1.50977 -0.60863,2.32741 -1.90646,2.23446 -3.22461,-0.22852 -0.92643,-1.73109 -1.97676,-1.96386 -8.03516,-1.78125 C 102.13556,464.3421 99,464.80485 99,465.25391 c 0,0.44906 -0.84612,0.36429 -1.880859,-0.18946 -1.247236,-0.66753 -5.533364,-0.68784 -12.716797,-0.0566 C 71.682797,466.12525 6.7935177,465.25212 3.2792969,463.91602 1.9537311,463.41204 0.67474205,463 0.43554688,463 Z M 404,466.625 c -34.5862,0.0103 -175.56182,1.63763 -175.9707,2.03125 -1.49924,1.44326 4.35381,1.92427 25.60742,2.10742 13.80603,0.11897 24.13922,0.61188 24.70703,1.17969 0.53683,0.53683 1.38888,0.72147 1.89258,0.41016 0.50371,-0.31131 6.16909,-0.76845 12.58984,-1.01758 6.42075,-0.24913 15.94486,-0.82538 21.16406,-1.2793 5.74028,-0.49924 10.47709,-0.44835 11.99024,0.12695 1.48689,0.56532 10.00765,0.68695 21.00976,0.30079 22.46742,-0.78859 44.56839,-0.67133 56.00977,0.29687 11.71707,0.99153 14.20108,0.62381 13.81055,-2.04297 C 416.51365,466.71096 415.96815,466.621 404,466.625 Z" />
  </g>
</svg>
