<?xml version="1.0" encoding="UTF-8" standalone="no"?>
<!-- Created with Inkscape (http://www.inkscape.org/) -->

<svg
   version="1.1"
   id="svg2"
   width="417"
   height="473"
   viewBox="0 0 417 473"
   sodipodi:docname="6.svg"
   inkscape:version="1.1.2 (0a00cf5339, 2022-02-04)"
   xmlns:inkscape="http://www.inkscape.org/namespaces/inkscape"
   xmlns:sodipodi="http://sodipodi.sourceforge.net/DTD/sodipodi-0.dtd"
   xmlns="http://www.w3.org/2000/svg"
   xmlns:svg="http://www.w3.org/2000/svg">
  <defs
     id="defs6" />
  <sodipodi:namedview
     id="namedview4"
     pagecolor="#505050"
     bordercolor="#eeeeee"
     borderopacity="1"
     inkscape:pageshadow="0"
     inkscape:pageopacity="0"
     inkscape:pagecheckerboard="0"
     showgrid="false"
     inkscape:zoom="1.5835095"
     inkscape:cx="208.39786"
     inkscape:cy="236.5"
     inkscape:window-width="1920"
     inkscape:window-height="1043"
     inkscape:window-x="0"
     inkscape:window-y="0"
     inkscape:window-maximized="1"
     inkscape:current-layer="g8" />
  <g
     inkscape:groupmode="layer"
     inkscape:label="Image"
     id="g8">
    <path
       style="fill:#000000"
       d="m 208,472.03978 c -1.51437,-0.86415 -41.68254,-1.8828 -100.5,-2.54865 -17.6,-0.19925 -43.25,-1.05946 -57,-1.91158 -15.297966,-0.94806 -29.948037,-1.30138 -37.75,-0.91042 L 0,467.30804 v -2.70076 -2.70076 l 21.25,0.53407 c 28.374415,0.71313 49.86328,1.45727 75.56584,2.61677 18.09993,0.81654 87.22251,1.1672 98.18416,0.4981 1.925,-0.1175 8.92079,-0.29055 15.5462,-0.38455 L 222.59241,465 l 5.04708,-7.75 c 7.70054,-11.82449 7.50039,-11.21278 6.34169,-19.3827 -0.56532,-3.98602 -1.12985,-7.3066 -1.25452,-7.37906 -0.12466,-0.0725 -4.27666,-0.6829 -9.22666,-1.35651 -9.44715,-1.28562 -31.48667,-1.45426 -40,-0.30607 -4.64682,0.62671 -5.02081,0.88625 -5.29459,3.67434 l -0.29459,3 14.07602,0.17416 c 12.54089,0.15517 15.2517,0.51774 24.85614,3.32451 11.53318,3.37043 14.02879,4.46289 12.8615,5.63018 -0.40568,0.40568 -4.66765,-0.26457 -9.47104,-1.48944 C 209.2181,440.33047 197.3715,439.00149 189,439.63556 c -10.54986,0.79907 -11,0.9846 -11,4.53381 v 3.13127 l 9.75,-0.61877 c 9.07512,-0.57594 25.85458,0.42783 31.70731,1.89677 2.86281,0.71852 3.49075,3.42438 0.79269,3.41578 -0.9625,-0.003 -3.325,-0.42755 -5.25,-0.9433 -7.92696,-2.12379 -33.4712,-2.24297 -36.79736,-0.17168 -0.54809,0.34131 -1.1554,1.70241 -1.34958,3.02466 l -0.35306,2.40411 15,0.1528 c 15.2302,0.15514 28.5,1.90892 28.5,3.76664 0,0.64314 -1.20548,0.73956 -3.25,0.25994 -1.7875,-0.41932 -12.475,-0.87246 -23.75,-1.00696 -11.275,-0.13451 -21.65428,-0.7049 -23.06507,-1.26753 -1.41078,-0.56264 -5.17275,-1.34878 -8.35991,-1.74699 l -5.79485,-0.72402 0.57099,-3.12105 c 0.31405,-1.71657 0.88585,-4.20944 1.27066,-5.53971 0.58637,-2.02702 0.41594,-2.3098 -1.05249,-1.74631 -0.96368,0.3698 -4.51555,-0.0437 -7.89304,-0.9189 -6.57524,-1.70382 -19.99378,-2.76751 -22.97516,-1.82126 -1.39729,0.44348 -1.74189,1.41342 -1.50643,4.24008 L 124.5,450.5 135,451.1337 c 11.2364,0.67814 20,2.47578 20,4.1025 0,0.62808 -2.69082,0.77722 -7.25,0.40183 -21.90822,-1.80388 -25.77378,-1.86357 -25.20805,-0.3893 0.70199,1.82935 -1.01015,3.10668 -6.1178,4.56415 -3.39403,0.96849 -4.78946,0.88273 -8.34176,-0.51265 l -4.26592,-1.6757 0.61356,-5.06227 c 0.33747,-2.78424 0.82735,-10.91226 1.08863,-18.06226 0.26128,-7.15 0.73878,-15.1017 1.0611,-17.67045 0.51067,-4.06983 0.31222,-4.81699 -1.54316,-5.80996 -3.50541,-1.87604 -12.916024,-3.27112 -30.0366,-4.4528 -11.096479,-0.76589 -58.614989,-0.73592 -67.1053136,0.0423 -6.0796916,0.55728 -6.6479601,0.44237 -7.14123795,-1.44392 -0.71379446,-2.72956 -0.0360128,-3.22312 2.89554255,-2.10854 1.7332659,0.65898 3.0838184,0.52195 4.6471773,-0.47152 1.649499,-1.04822 6.7313957,-1.44431 20.2038317,-1.57473 26.315827,-0.25475 53.343456,0.59992 58.5,1.84989 2.475,0.59995 5.85,1.1037 7.5,1.11945 1.65,0.0158 5.212925,1.15132 7.91761,2.5235 2.70469,1.37218 5.0884,2.32408 5.29714,2.11534 0.20875,-0.20874 0.58599,-3.24582 0.83833,-6.74906 0.25234,-3.50323 0.87202,-8.61952 1.37707,-11.36952 0.50504,-2.75 0.94748,-5.675 0.98319,-6.5 0.18437,-4.25939 1.26645,-21.94199 1.99682,-32.63058 0.4559,-6.67182 0.44829,-14.53836 -0.0169,-17.4812 -0.49356,-3.12222 -0.45771,-6.81612 0.0861,-8.86943 1.61016,-6.07991 3.20677,-21.05455 3.57381,-33.51879 0.64081,-21.76163 0.59952,-64.68069 -0.0629,-65.34308 -0.35758,-0.35758 -2.21218,1.14833 -4.12135,3.34647 -1.90916,2.19813 -4.12319,4.70936 -4.92005,5.5805 -0.79687,0.87114 -1.44885,1.9976 -1.44885,2.50325 0,0.50564 -1.32399,2.16899 -2.9422,3.69632 -1.61821,1.52733 -3.253819,3.75878 -3.634682,4.95877 -0.380863,1.2 -1.748246,3.01228 -3.03863,4.02729 -1.290384,1.01502 -2.242278,2.36564 -2.11532,3.00138 0.126957,0.63575 -0.75397,1.60465 -1.957617,2.15313 -1.203646,0.54847 -2.428082,1.68994 -2.720967,2.5366 -0.292886,0.84665 -0.94567,2.21437 -1.450633,3.03937 -1.361837,2.22495 -3.416375,12.97608 -3.258481,17.05121 0.131528,3.39466 -2.147269,7.20406 -4.84803,8.10431 -0.664522,0.22151 -1.05852,3.62069 -1.026036,8.85204 0.08082,13.01561 -0.0064,14.39145 -0.973878,15.35891 -1.296764,1.29677 -4.322151,-0.0904 -3.411335,-1.56418 1.170226,-1.89346 1.532056,-6.88709 0.8458,-11.67293 -0.991488,-6.91448 -2.544606,-3.49959 -2.768833,6.08794 -0.194309,8.30828 -0.268076,8.54613 -3.029692,9.76863 -1.909233,0.84517 -3.159898,0.92364 -3.842444,0.24109 -0.556551,-0.55655 -2.676481,-0.78864 -4.710956,-0.51576 -2.516007,0.33747 -4.085902,0.03 -4.908639,-0.96133 -2.396658,-2.88779 -0.810213,-30.64169 1.998114,-34.95579 0.821374,-1.26178 1.814055,-5.15584 2.205958,-8.65347 0.550281,-4.9111 1.807346,-8.33099 5.519939,-15.01719 2.644063,-4.76183 5.143115,-10.22514 5.553447,-12.14068 0.410333,-1.91554 1.20708,-4.0548 1.770549,-4.75391 C 74.218619,235.03385 89,206.18599 89,205.50125 c 0,-0.17485 -2.8125,0.53741 -6.25,1.58278 -3.4375,1.04538 -7.432544,1.90413 -8.877876,1.90833 -1.445332,0.004 -4.268006,0.69293 -6.27261,1.53051 -3.20079,1.33737 -3.713675,1.34321 -4.210737,0.0479 C 62.688318,208.74539 63.684178,207 65.426131,207 c 2.133133,0 6.025053,-6.91257 9.008324,-16 1.534735,-4.675 3.249175,-9.625 3.809867,-11 1.774062,-4.35058 3.471734,-16.17929 3.659796,-25.5 0.21888,-10.84812 3.388111,-23.94118 6.656491,-27.5 1.262785,-1.375 3.460851,-4.8305 4.884591,-7.67889 1.59601,-3.19304 3.92421,-6.00433 6.071708,-7.33156 3.894632,-2.40702 4.079672,-2.79613 2.082592,-4.37931 -0.85739,-0.67969 -1.669298,-4.15006 -2.093633,-8.948927 l -0.693128,-7.838688 8.210221,-8.02483 C 115.54283,74.470303 115.64594,74.27764 118.6883,61 c 0.31506,-1.375 1.14216,-3.175 1.83799,-4 0.69583,-0.825 2.01963,-3.75 2.94177,-6.5 0.92215,-2.75 2.29708,-5.686123 3.0554,-6.524717 1.19291,-1.319198 0.98019,-1.790968 -1.57817,-3.5 -1.62631,-1.086406 -3.19079,-2.703435 -3.47664,-3.593399 -0.28584,-0.889964 -1.40822,-2.422209 -2.49418,-3.404988 C 115.37884,30.222896 116.46559,29 122.95295,29 c 3.27412,0 6.98662,-0.412818 8.25,-0.917372 1.26338,-0.504555 5.67205,-1.663861 9.79705,-2.576235 4.125,-0.912374 9.87938,-2.524557 12.78751,-3.582628 8.18123,-2.976589 15.04399,-2.531775 25.91284,1.679556 5.11481,1.981827 9.29965,3.952565 9.29965,4.379418 0,0.426853 1.8407,2.672813 4.09045,4.991022 5.97369,6.155482 7.20256,9.809133 7.40833,22.026239 0.12844,7.625845 0.63887,11.389619 1.86471,13.75 1.60945,3.098995 1.60263,3.25 -0.14668,3.25 -1.009,0 -2.58266,0.5625 -3.49702,1.25 -1.54316,1.160298 -1.52665,1.550203 0.23014,5.433341 2.06547,4.565461 2.12278,14.319195 0.0985,16.758352 -0.60953,0.734435 -3.56977,1.642886 -6.57831,2.018778 C 189.46154,97.836364 187,98.625259 187,99.21357 c 0,0.739105 3.47656,0.84569 11.25,0.344919 22.32057,-1.437919 36.57004,-0.195839 41.39384,3.608171 0.72164,0.56907 3.30541,-0.055 7,-1.6908 11.20844,-4.96255 22.82971,-4.165939 32.22347,2.20884 3.26641,2.21665 3.68213,2.28438 4.78271,0.77925 0.66294,-0.90663 1.52019,-3.51195 1.905,-5.789601 1.03782,-6.142801 10.9409,-24.656625 13.19498,-24.668026 1.53978,-0.0078 1.54268,-0.782082 0.053,-14.179184 -1.3372,-12.025696 -0.39772,-18.311857 3.71264,-24.841819 4.94399,-7.854317 8.51435,-8.028137 9.77276,-0.47578 0.45735,2.744753 1.1964,5.359807 1.64234,5.81123 0.44595,0.451424 1.62913,-1.911076 2.62929,-5.25 1.7595,-5.873859 2.6881,-7.096352 3.90039,-5.134824 1.0083,1.631458 -1.20667,9.158033 -3.1032,10.544803 -1.63917,1.198594 -1.69834,1.794722 -0.58962,5.940126 2.12098,7.930098 1.6233,12.209988 -1.93464,16.637376 -3.66612,4.561988 -4.70612,4.530959 -2.32717,-0.06943 1.88461,-3.644424 1.34355,-11.220389 -1.1907,-16.67225 -0.81388,-1.750888 -1.33491,-4.86495 -1.15785,-6.920139 0.75937,-8.813971 -5.40351,-2.75289 -6.97436,6.859163 -1.13062,6.918257 -0.27834,15.71952 1.76006,18.175637 0.72724,0.87628 1.48693,3.007459 1.68818,4.735954 0.3062,2.629821 -0.42703,3.981136 -4.49276,8.280045 -2.67227,2.82553 -5.462,6.805803 -6.1994,8.84505 C 295.20155,88.331525 294.25901,90 293.84442,90 c -0.41458,0 -1.05786,1.6875 -1.4295,3.75 -0.37163,2.0625 -1.02491,4.2 -1.45172,4.75 -0.42682,0.55 -1.09424,3.1375 -1.48316,5.75 -0.61089,4.10354 -1.02389,4.75 -3.03457,4.75 -1.28009,0 -2.61009,-0.45734 -2.95555,-1.01631 -0.34546,-0.55897 -1.03343,-0.76582 -1.52881,-0.45966 -0.49537,0.30616 -4.43298,0.95953 -8.75024,1.45192 -4.31725,0.49239 -9.05584,1.19802 -10.53021,1.56806 -2.06534,0.51837 -2.68066,0.30798 -2.68066,-0.91655 0,-1.8462 2.44168,-2.57178 9.74283,-2.89521 2.88355,-0.12774 5.24605,-0.46359 5.25,-0.74635 C 275.0054,105.08452 267.0733,102 264.74277,102 c -1.23394,0 -5.39335,0.68443 -9.24314,1.52095 -15.73333,3.4187 -15.42968,3.40084 -21.39137,1.2578 -5.6332,-2.02497 -12.61992,-2.30652 -40.10826,-1.61626 -4.125,0.10358 -9.17823,-0.29112 -11.2294,-0.87712 l -3.72939,-1.06545 -2.52061,5.32811 c -1.38633,2.93047 -2.5206,5.75089 -2.5206,6.2676 0,0.51671 -0.60164,1.43879 -1.33697,2.04907 -1.73561,1.44042 -6.31223,13.51362 -7.03143,18.54899 -0.30744,2.15253 -1.06895,4.40253 -1.69225,5 -2.27134,2.17724 0.47914,-13.5371 3.39106,-19.37419 0.91827,-1.84073 1.66959,-3.9521 1.66959,-4.69193 0,-0.73984 1.62059,-4.52511 3.60131,-8.41172 1.98072,-3.88661 3.41906,-7.248813 3.1963,-7.471569 -0.89642,-0.896425 -12.74104,7.774269 -13.42686,9.828959 -0.40512,1.21372 -0.62704,4.97587 -0.49316,8.36035 0.2737,6.91905 -0.75182,8.31406 -4.36942,5.94372 -2.75829,-1.8073 -4.12542,-0.61917 -2.5896,2.25054 C 156.01031,126.88779 155.45098,128 153.33333,128 152.38188,128 152,126.40544 152,122.43261 c 0,-5.97195 -0.12057,-5.89461 5.75,-3.68839 0.71805,0.26985 1.25468,-0.3205 1.26101,-1.38723 0.006,-1.02135 0.30583,-3.65699 0.66618,-5.85699 0.55094,-3.36362 0.42987,-3.82218 -0.76101,-2.88232 -2.45175,1.93498 -11.59647,4.49436 -14.56715,4.07698 -3.13087,-0.43988 -3.34737,-2.24136 -0.74641,-6.21093 0.79351,-1.21105 1.16085,-2.93653 0.81631,-3.8344 -0.39048,-1.01757 -0.006,-1.87051 1.02044,-2.26444 2.42623,-0.93103 2.4828,-0.404722 0.57666,5.36511 -1.27841,3.86968 -1.412,5.25 -0.50811,5.25 1.56659,0 5.927,-6.58513 6.95268,-10.5 0.43229,-1.65 0.98406,-2.464325 1.22616,-1.80961 0.24209,0.654714 -0.0262,2.87941 -0.59619,4.94377 -0.57,2.06436 -0.81284,3.9769 -0.53966,4.25009 1.34887,1.34887 3.62539,-3.2752 5.13108,-10.422276 1.90678,-9.050909 2.08705,-9.453705 3.33051,-7.441756 0.49706,0.804263 1.68848,1.466231 2.6476,1.471039 1.4712,0.0074 1.70068,0.829567 1.46774,5.258743 -0.28194,5.36076 0.60867,6.47733 2.93282,3.67691 0.71805,-0.865196 3.13565,-2.49551 5.37244,-3.622918 2.2368,-1.127407 4.22974,-2.194854 4.42876,-2.372105 0.19902,-0.17725 -1.19845,-2.259436 -3.10548,-4.62708 C 165.43509,78.232169 159,62.797401 159,52.012658 159,48.421087 158.60937,47 157.62212,47 c -0.75783,0 -3.12033,-0.767293 -5.25,-1.705096 -2.12966,-0.937803 -4.54712,-1.806596 -5.37212,-1.93065 -0.825,-0.124054 -4.14005,-0.691721 -7.36677,-1.261482 -5.49121,-0.969615 -5.98127,-0.894525 -7.65547,1.173021 -1.77851,2.196371 -1.35646,4.75409 1.02762,6.22753 0.54704,0.338091 0.99462,2.306881 0.99462,4.375088 0,2.826905 -0.99296,5.091239 -4,9.121589 -4.44392,5.956203 -4.99019,8.550952 -2,9.5 1.1,0.349126 2,0.999857 2,1.446067 0,0.446211 1.35,1.370481 3,2.053933 3.84782,1.59382 3.92504,3.435008 0.11208,2.672415 -2.04307,-0.408614 -3.35953,-0.05646 -4.5,1.203741 -2.33866,2.584188 -2.10319,2.984405 3.05743,5.196503 4.62254,1.981453 4.64725,2.017171 2.45704,3.551256 -1.46296,1.024697 -2.62137,1.226328 -3.41951,0.595195 -0.66387,-0.524961 -3.52937,-1.711841 -6.36777,-2.63751 -4.58606,-1.49562 -5.54587,-1.522117 -8.61931,-0.237951 -1.90222,0.794796 -4.19239,2.492747 -5.08927,3.773224 -1.98673,2.836454 -2.07324,2.16526 -0.27282,-2.116677 1.06812,-2.540297 2.44061,-3.610722 6.43185,-5.016289 2.7907,-0.982776 5.2772,-1.583656 5.52557,-1.335288 0.24836,0.248367 1.93345,-0.901909 3.74463,-2.556169 l 3.29306,-3.007747 -2.92466,-1.111955 c -1.60856,-0.611575 -3.71298,-1.825377 -4.67649,-2.697339 -1.6303,-1.475398 -1.7562,-1.38385 -1.81488,1.319603 C 119.88677,75.907377 118.5436,77.622011 113.35286,82 106.25385,87.987471 103,93.600983 103,99.860665 c 0,2.464365 0.66986,4.268405 2.01143,5.417095 3.60427,3.08607 4.73792,2.18985 5.4964,-4.34525 0.49317,-4.249149 1.41218,-6.871405 3.06659,-8.750002 2.69089,-3.055539 3.06772,-1.970748 1.02314,2.945368 -0.77135,1.854668 -1.72569,5.979584 -2.12077,9.166474 -0.71026,5.72937 -0.77451,5.82283 -5.72888,8.33339 -2.75581,1.39648 -5.82147,3.29452 -6.812578,4.21788 C 97.807945,118.82758 93,125.75928 93,126.84441 c 0,0.41557 -0.525544,1.28113 -1.167875,1.92347 -2.995348,2.99534 -4.074243,8.98872 -4.272128,23.73212 -0.117416,8.748 -0.666951,15.86196 -1.318464,17.06804 -0.614424,1.13742 -1.36073,4.63585 -1.658457,7.77428 -0.590813,6.22793 -3.278245,16.59549 -4.693789,18.10768 C 79.400179,195.9725 79,197.14026 79,198.04501 c 0,0.90476 -0.9,2.4595 -2,3.45499 -1.739552,1.57427 -2.772649,4.5 -1.588984,4.5 0.226059,0 2.889457,-0.94845 5.918663,-2.10766 l 5.507648,-2.10765 1.689056,-6.89235 C 89.455363,191.10155 90.544733,188 90.947204,188 c 0.402471,0 1.352058,-1.2375 2.110194,-2.75 0.758135,-1.5125 1.530581,-3.05064 1.716546,-3.41809 0.185966,-0.36746 -0.910866,-0.531 -2.437404,-0.36342 -1.526537,0.16757 -3.689251,-0.0658 -4.806031,-0.51852 -2.094497,-0.84914 -1.495554,-0.98987 5.969491,-1.40265 1.1,-0.0608 2.904655,-0.42995 4.010345,-0.82028 3.077725,-1.08649 8.431465,-10.02332 9.151455,-15.27624 0.57663,-4.20697 2.49311,-6.62922 4.02947,-5.09287 0.33275,0.33276 -0.34838,3.19312 -1.51364,6.35636 l -2.11864,5.75135 3.00151,3.09678 c 2.69909,2.78476 2.98655,3.69329 2.85301,9.01718 -0.0817,3.25746 -0.99523,7.88918 -2.03101,10.29752 -1.03537,2.40741 -1.8825,4.76391 -1.8825,5.23665 0,1.22661 5.35147,8.80281 6.25,8.84828 1.11482,0.0564 1.21175,-15.30961 0.29309,-46.46205 -0.47982,-16.27118 -0.69947,-18.00518 -2.28695,-18.05398 -2.72926,-0.0839 -9.57726,-1.61716 -11.38857,-2.54991 -1.57754,-0.81237 -2.382745,-3.34099 -3.520659,-11.05614 -0.414951,-2.8134 -0.01137,-4.3748 1.744689,-6.75 1.25649,-1.69948 2.80874,-3.08997 3.44946,-3.08997 0.64072,0 6.29359,2.41979 12.56194,5.37732 l 11.397,5.37732 1.37372,4.87268 c 0.75554,2.67997 2.12134,6.22268 3.03511,7.87268 2.41149,4.35445 6.13757,17.59362 9.56908,34 2.1531,10.2942 3.13914,14.78993 4.65197,21.20992 0.95451,4.05069 0.9622,5.79257 0.0345,7.82855 -1.43302,3.14512 -3.7347,2.7232 -3.48958,-0.63968 0.0962,-1.31933 -1.10344,-8.47379 -2.6658,-15.89879 -1.56236,-7.425 -3.14577,-15.8625 -3.51869,-18.75 -0.37292,-2.8875 -0.97331,-5.25009 -1.3342,-5.2502 -0.67186,-2e-4 -0.59144,8.33393 0.30707,31.82217 l 0.50962,13.32198 4.64075,2.46751 c 5.15387,2.74034 6.10897,2.6072 4.3864,-0.61146 -1.75618,-3.28145 -0.51099,-3.48243 1.87511,-0.30266 3.34806,4.46168 3.93538,5.0728 5.3191,5.53453 1.70018,0.56733 1.70646,30.50606 0.009,42.76813 -0.64718,4.675 -1.37779,11.65 -1.62358,15.5 -0.68921,10.79542 -2.53294,25.88516 -4.643,38 -2.07722,11.92625 -2.4276,18.07851 -1.07714,18.91314 0.47271,0.29215 5.08521,0.77715 10.25,1.07777 5.1648,0.30063 10.51826,0.7748 11.89658,1.05372 1.37831,0.27891 5.34611,-0.42524 8.81732,-1.56478 C 181.83287,331.00703 186,331.04288 186,333.06739 186,333.58032 185.36918,334 184.59819,334 c -0.96929,0 -1.61668,1.85129 -2.09819,6 -0.57868,4.98597 -1.01779,6 -2.59819,6 -1.642,0 -1.90181,-0.76275 -1.90181,-5.58333 0,-7.17168 -2.12928,-6.91335 -3.39064,0.41137 -0.9509,5.52188 -2.60936,7.02381 -2.60936,2.36309 0,-3.38644 -2.25187,-6.77153 -3.8483,-5.78489 -0.63343,0.39149 -1.1517,2.03524 -1.1517,3.65278 0,1.61754 -0.48575,2.94098 -1.07946,2.94098 -0.68874,0 -0.83102,-1.13108 -0.3931,-3.12492 0.76618,-3.48842 -0.45614,-4.83437 -4.41336,-4.85977 -2.25943,-0.0145 -2.35271,0.22707 -1.75933,4.55622 0.54686,3.98976 0.40508,4.52938 -1.11408,4.24032 -1.18464,-0.22541 -1.90039,-1.57109 -2.24067,-4.21266 -0.51463,-3.99501 -3.337,-6.24502 -5.86995,-4.67957 -1.35794,0.83926 4.80059,11.90243 7.45156,13.38599 0.85083,0.47615 3.02329,4.10531 4.82769,8.06481 4.32457,9.48964 4.93285,17.55964 3.59011,47.62958 -1.05546,23.63663 -1.95458,33.33876 -3.93075,42.41588 -0.58863,2.70373 -0.83541,5.15071 -0.5484,5.43771 0.28701,0.28701 3.21236,0.71645 6.50079,0.95431 l 5.97895,0.43248 0.006,-7.37019 c 0.004,-4.0536 0.65663,-15.47019 1.4514,-25.37019 0.79476,-9.9 1.26116,-19.80461 1.03643,-22.01024 -0.48193,-4.72991 0.53995,-6.82241 3.09176,-6.33098 1.54453,0.29745 1.79751,1.14897 1.54779,5.20977 l -0.29851,4.8542 7.83238,-0.6383 c 4.30781,-0.35106 12.96478,-0.84608 19.23772,-1.10004 6.27293,-0.25396 11.61194,-0.66836 11.86447,-0.92089 0.25252,-0.25252 -0.47309,-2.39512 -1.61248,-4.76133 -1.13939,-2.3662 -2.72046,-6.77719 -3.5135,-9.80219 -0.79303,-3.025 -2.19214,-7.525 -3.10912,-10 -0.91698,-2.475 -1.93975,-5.4 -2.27283,-6.5 -1.35688,-4.48121 -10.62899,-20 -11.94952,-20 -1.47837,0 -7.48904,8.14597 -9.96126,13.5 -1.14282,2.475 -3.52988,9.45 -5.30456,15.5 -1.77468,6.05 -3.63616,11.4275 -4.13661,11.95 -1.22069,1.27445 -1.18018,0.577 0.61131,-10.52378 3.12897,-19.38834 5.71577,-24.91589 13.54566,-28.94471 4.78346,-2.46131 6.61458,-4.70003 5.09072,-6.22389 -1.51585,-1.51585 -1.4736,-2.76458 0.0924,-2.73009 0.6875,0.0151 2.375,1.62116 3.75,3.56893 1.375,1.94777 3.5125,4.81285 4.75,6.36683 1.2375,1.55398 2.25,3.36599 2.25,4.0267 0,0.6607 0.83602,2.39574 1.85782,3.85564 1.0218,1.4599 2.13119,3.77937 2.46531,5.15437 0.33412,1.375 1.26813,5.37253 2.07559,8.88341 0.80745,3.51087 1.89357,6.80888 2.4136,7.32891 0.52003,0.52003 2.77956,1.19151 5.02117,1.49217 3.05466,0.40972 4.96444,0.0223 7.62349,-1.54661 3.59792,-2.12282 6.80343,-2.00007 5.94852,0.2278 -1.11349,2.90169 -6.39044,4.80407 -11.41064,4.11361 -2.69648,-0.37086 -5.38157,-0.37832 -5.96688,-0.0166 -1.75472,1.08448 2.76126,6.51729 5.41745,6.51729 4.51017,0 16.41973,3.20623 16.93934,4.56032 0.96383,2.51169 -1.17888,2.49999 -7.93584,-0.0433 C 226.05297,394.10957 222,393.35271 222,394.56574 c 0,2.43762 2.53385,4.39177 6.4575,4.98016 4.80415,0.72042 8.52163,2.80831 7.25515,4.07478 -0.43131,0.43131 -2.78233,0.0436 -5.22448,-0.86148 -2.5423,-0.94224 -4.68353,-1.25211 -5.00935,-0.72494 -0.31298,0.50642 1.02625,3.41462 2.97606,6.46267 1.94982,3.04805 3.54512,6.39586 3.54512,7.43958 0,1.04372 0.82021,3.84749 1.8227,6.23058 1.00248,2.3831 2.42402,7.70791 3.15898,11.83291 0.73495,4.125 1.75355,8.33044 2.26356,9.34543 0.70599,1.40505 0.42942,2.19414 -1.15898,3.30671 -1.14744,0.8037 -2.08626,2.39896 -2.08626,3.54503 0,3.45413 -4.31172,11.01244 -7.33308,12.85467 -1.5582,0.95009 -2.4582,1.93828 -2,2.19599 0.45819,0.25771 5.78308,0.55823 11.83308,0.66782 9.29293,0.16833 11.73714,-0.12731 15.75,-1.905 4.11937,-1.82487 4.75,-2.49632 4.75,-5.05744 0,-3.10016 -1.67859,-3.87462 -3.8,-1.75321 -2.27863,2.27863 -3.49434,-0.61494 -1.3638,-3.24605 1.53684,-1.89792 1.72329,-2.91914 0.9421,-5.16008 -1.28005,-3.67194 -2.44488,-3.52762 -4.13276,0.51205 -0.75972,1.81826 -2.6072,4.62868 -4.10551,6.24539 l -2.72421,2.93946 -1.90791,-2.35617 C 240.85856,454.83871 240,452.85854 240,451.73423 c 0,-1.86096 0.15687,-1.90754 1.75,-0.51971 2.45673,2.14016 3.99183,1.25275 6.14614,-3.55295 3.02269,-6.74284 3.21063,-8.14027 1.54405,-11.48102 -1.31594,-2.63784 -1.59108,-7.51165 -1.63302,-28.92645 -0.0277,-14.16476 0.0576,-26.2041 0.18962,-26.7541 0.54534,-2.27179 -0.0557,-9.5 -0.78999,-9.5 -0.43627,0 -1.22377,1.4625 -1.75,3.25 -0.59971,2.03706 -2.01142,3.75044 -3.78258,4.59089 -3.70556,1.75836 -4.39245,0.88765 -1.8498,-2.34481 1.12884,-1.43508 2.77497,-4.78458 3.65806,-7.44333 1.583,-4.76597 1.57005,-4.88653 -0.91923,-8.55468 l -2.52485,-3.72058 -2.98666,6.45271 c -2.15448,4.65475 -4.11532,7.23486 -7.03732,9.25981 -5.56844,3.85893 -6.25601,2.35587 -1.26299,-2.76098 4.49077,-4.60214 10.25983,-15.73288 10.22555,-19.72903 -0.0118,-1.375 -0.88353,-3.62206 -1.93717,-4.99347 -2.19322,-2.85467 -2.53296,-2.3411 -3.42713,5.1807 -0.34825,2.92942 -1.87582,6.74855 -4.07333,10.1838 -3.82955,5.98656 -5.00241,7.07885 -6.56438,6.1135 -0.61455,-0.37981 0.11654,-2.10541 1.82562,-4.30902 1.56786,-2.02153 3.83392,-6.15051 5.03569,-9.17551 1.98314,-4.99182 2.09243,-6.23917 1.18283,-13.5 -1.38355,-11.04405 -1.88588,-13.43605 -3.73014,-17.76235 -1.59477,-3.74103 -1.58597,-3.7846 1.55359,-7.69136 1.73659,-2.16096 3.15744,-4.33566 3.15744,-4.83266 0,-0.49701 0.85953,-1.68152 1.91006,-2.63224 3.48309,-3.15215 3.54865,-6.51095 0.19473,-9.97595 -7.69701,-7.95193 -10.23704,-11.41911 -11.2493,-15.35544 -1.23368,-4.79738 -2.39797,-5.18432 -6.31896,-2.10008 -2.23098,1.75489 -2.89016,1.89593 -3.58753,0.76757 -0.67749,-1.09621 -1.48157,-0.78144 -3.88444,1.52066 -2.95684,2.83283 -3.07901,2.85875 -5.05346,1.0719 -2.34624,-2.12332 -2.1328,-2.2642 -4.9085,3.23995 -1.17879,2.3375 -2.76304,4.25 -3.52056,4.25 -1.08111,0 -1.34556,1.98921 -1.22967,9.25 0.0812,5.0875 -0.41931,14.23162 -1.11225,20.32027 -1.04606,9.19147 -1.02898,11.7372 0.10063,15 0.74828,2.16135 1.74836,3.92973 2.22239,3.92973 0.96681,0 3.02382,-12.12324 3.98736,-23.5 0.35586,-4.2018 1.54644,-9.47892 2.70734,-12 1.13968,-2.475 2.62791,-6.075 3.30717,-8 1.9034,-5.39413 5.13054,-5.22872 10.83268,0.55525 2.53127,2.56759 4.60231,5.29304 4.60231,6.05655 0,1.98295 -2.6504,1.71559 -4.1933,-0.42301 -0.71868,-0.99616 -1.93483,-2.18828 -2.70254,-2.64915 -1.93648,-1.1625 -1.13038,1.71733 4.83017,17.25606 4.06897,10.60752 9.06372,30.64424 7.89424,31.66817 -0.18071,0.15822 -1.30786,0.58836 -2.50478,0.95587 -2.12653,0.65294 -2.16479,0.50167 -1.6758,-6.62577 0.47276,-6.89105 0.24057,-7.95685 -4.20334,-19.29397 -5.08752,-12.9791 -6.95056,-18.36022 -7.94053,-22.93509 l -0.63513,-2.9351 -1.39528,2.4351 c -0.7674,1.3393 -1.71759,3.11009 -2.11155,3.93509 -0.39395,0.825 -1.16863,1.80225 -1.7215,2.17168 -0.55288,0.36942 -0.90146,2.94588 -0.77463,5.72546 0.12683,2.77958 -0.22457,5.90428 -0.78089,6.94377 -0.55632,1.03949 -1.19608,5.0127 -1.4217,8.82935 -0.43253,7.31698 -2.71892,13.2453 -5.18912,13.45474 -0.81088,0.0688 -2.0324,0.18125 -2.7145,0.25 -0.6821,0.0688 -1.47307,1.46951 -1.7577,3.11279 -0.3113,1.79716 -1.22378,3.1238 -2.28982,3.3291 -1.6195,0.31189 -1.72065,-0.37675 -1.17324,-7.98779 0.32947,-4.581 1.11952,-12.6041 1.75565,-17.8291 1.19153,-9.78686 1.40515,-21.35882 0.74765,-40.5 -0.29404,-8.56008 -0.0192,-11.83179 1.23887,-14.75 1.68611,-3.91097 2.30815,-4.29615 4.59689,-2.84649 0.88253,0.55899 1.06473,1.36259 0.50665,2.23469 -0.98867,1.54496 -1.13891,2.50047 -2.00235,12.73507 -0.50554,5.99234 -0.36549,7.28818 0.74777,6.91895 0.75339,-0.24987 1.83725,-2.63616 2.40856,-5.30285 1.24534,-5.81286 3.12458,-6.84158 4.7297,-2.58911 0.64352,1.70486 1.69509,3.09974 2.33685,3.09974 1.16246,0 4.3947,-5.81117 4.3947,-7.90113 0,-2.11536 1.78904,-1.07552 2.41064,1.40113 0.34511,1.375 1.28233,2.5 2.08273,2.5 1.54585,0 4.50663,-4.87413 4.50663,-7.41896 0,-2.47488 2.75393,-0.70175 3.48108,2.24132 0.74498,3.01524 5.24563,8.17764 7.12937,8.17764 0.92754,0 0.8675,0.7392 -0.24042,2.96008 -1.46021,2.92706 -1.42038,3.01608 3.57152,7.98178 2.77652,2.76194 7.0527,8.14891 9.50262,11.97105 4.78536,7.46564 4.83521,7.49135 16.55583,8.53909 1.925,0.17208 4.76679,0.81578 6.3151,1.43044 1.5483,0.61466 4.12168,1.11756 5.71861,1.11756 3.85131,0 3.08016,-1.83088 -2.21815,-5.26636 -3.40794,-2.20975 -3.82052,-2.79451 -2.3656,-3.35281 1.02706,-0.39412 3.65519,0.2434 6.29951,1.52811 6.01589,2.92274 7.40671,1.47747 3.19469,-3.31976 -3.6488,-4.15575 -3.37483,-5.28357 0.91978,-3.78645 1.63132,0.56868 3.22929,0.77071 3.55105,0.44895 0.93209,-0.93209 0.67694,-5.07683 -0.35167,-5.71254 -0.51517,-0.3184 -1.58241,-1.80745 -2.37164,-3.30902 -6.16287,-11.72522 -7.66795,-14.94375 -7.67901,-16.4211 C 270.0057,272.87898 269.55,271.83992 269,271.5 c -0.55,-0.33992 -1,-1.76097 -1,-3.15789 0,-2.29679 -1.63871,-6.94262 -4.08407,-11.57854 C 263.41217,255.80853 263,254.33993 263,253.5 c 0,-0.83993 -0.38379,-2.30853 -0.85286,-3.26357 -0.46908,-0.95504 -1.55019,-3.31143 -2.40248,-5.23643 -0.85229,-1.925 -2.94351,-6.58802 -4.64714,-10.36227 C 253.39388,230.86348 252,227.28028 252,226.67506 c 0,-0.60521 -1.84741,-4.82969 -4.10535,-9.38772 C 244.5523,210.54024 243.367,209 241.5171,209 c -3.144,0 -4.40151,-1.87656 -4.37624,-6.53059 0.0119,-2.18317 -0.68999,-5.93849 -1.55966,-8.34514 -2.07066,-5.73022 -2.00481,-6.32379 0.65943,-5.94382 2.92147,0.41665 4.50808,3.93702 5.03302,11.16727 0.4854,6.68568 1.96446,8.28879 5.36811,5.81833 1.96844,-1.42874 2.29987,-2.56566 2.32682,-7.98179 0.0173,-3.47366 -0.51423,-7.29866 -1.18113,-8.5 -0.6669,-1.20134 -1.53876,-7.35926 -1.93747,-13.68426 -0.98778,-15.66968 -1.92086,-22.36291 -3.23907,-23.23469 -0.611,-0.40408 -2.34841,-0.74158 -3.86091,-0.75 -1.5125,-0.008 -2.75,-0.42956 -2.75,-0.93585 0,-1.43438 5.62429,-2.31873 10.02173,-1.57579 3.59767,0.60782 3.97827,0.46938 3.97827,-1.44716 0,-3.02875 2.04406,-3.44181 10.67774,-2.15771 4.19266,0.62358 7.78849,0.9683 7.99075,0.76604 0.80887,-0.80887 -7.55632,-5.74439 -12.21118,-7.20469 -8.75095,-2.7453 -15.95731,-6.79918 -15.95731,-8.97666 0,-1.55856 1.26018,-2.32479 6,-3.64819 3.3,-0.92139 7.2375,-1.71126 8.75,-1.75528 2.94659,-0.0857 3.72112,-1.77014 1.25,-2.71839 -2.57317,-0.98742 -1.71037,-3.35625 1.25,-3.43192 4.40009,-0.11245 6.32714,-1.19229 5.22869,-2.92995 -0.52144,-0.82487 -0.95496,-1.83726 -0.96338,-2.24976 -0.0285,-1.39633 3.73109,-0.76049 5.0745,0.85821 1.13549,1.36819 1.04183,1.82242 -0.62756,3.04343 -1.07924,0.78937 -2.97475,1.68946 -4.21225,2.0002 -2.77848,0.69768 -2.85042,2.31513 -0.25,5.62103 1.1,1.39842 2,2.80911 2,3.13486 C 264,127.73348 261.32117,128 258.04705,128 252.39214,128 247,129.48316 247,131.03859 c 0,1.75125 12.48302,5.30611 18.08996,5.15158 6.62697,-0.18264 23.53145,-4.41839 28.84221,-7.22698 1.96231,-1.03777 4.73722,-2.1205 6.16647,-2.40608 3.51467,-0.70227 9.93469,-13.23676 12.32177,-24.05711 1.8363,-8.323715 2.70658,-10.98881 6.85751,-21 1.36828,-3.3 2.77407,-7.2375 3.12398,-8.75 0.41114,-1.777162 1.28928,-2.75 2.48229,-2.75 1.01535,0 2.99026,-0.9 4.38868,-2 1.39842,-1.1 2.94278,-2 3.43191,-2 1.83154,0 8.1864,-7.710969 11.12578,-13.5 3.36748,-6.632167 7.16815,-16.307549 7.16894,-18.25 10e-4,-3.241647 -2.45914,-0.589578 -5.32968,5.744758 -3.45089,7.614989 -4.66016,8.264844 -8.83948,4.750275 L 334.16068,42.5 l 4.01564,-12 c 6.58,-19.663119 6.60823,-20.257946 0.79847,-16.826038 -3.03471,1.792648 -6.64123,10.296558 -9.15043,21.576038 -0.80236,3.6068 -1.79388,5.75 -2.66015,5.75 -1.01088,0 -1.192,-0.737067 -0.67577,-2.75 0.38789,-1.5125 1.07029,-5.225 1.51643,-8.25 0.44615,-3.025 1.32015,-6.813044 1.94223,-8.417876 1.876,-4.839686 2.04441,-8.792844 0.34684,-8.141427 C 329.49231,13.748314 328.01045,14 327.00092,14 c -1.27846,0 -2.36441,1.441554 -3.57829,4.75 C 321.44377,24.143399 319,27.521488 319,24.863509 c 0,-8.677113 10.87495,-20.2962284 16.00042,-17.0953189 1.59144,0.9938696 2.4046,0.7618902 5.00794,-1.4286745 2.75864,-2.3212422 3.3765,-2.4715021 5.49678,-1.3367658 2.9642,1.5863927 3.78927,3.5786303 2.48857,6.0090042 -1.33892,2.5018 0.19746,3.313897 3.45848,1.828076 4.94356,-2.252438 6.52158,3.202246 3.04511,10.525916 -1.74869,3.683859 -1.75204,3.912189 -0.0712,4.852842 1.55632,0.870961 1.68082,1.945636 1.05818,9.134254 -0.75439,8.709752 -3.57414,16.100647 -8.69515,22.791062 C 345.25511,62.148052 344,64.269719 344,64.858721 c 0,0.589001 -0.98415,1.597613 -2.187,2.24136 -1.20285,0.643747 -2.99472,1.922953 -3.98194,2.84268 -0.98721,0.919727 -4.50306,2.966599 -7.81299,4.548604 C 324.23888,77.253561 324,77.516874 324,81.124852 c 0,2.066413 -0.45,4.035229 -1,4.375148 -0.55,0.339919 -1.00958,2.278976 -1.0213,4.309017 C 321.967,91.839058 320.6021,97.325 318.94561,102 c -1.65649,4.675 -3.40204,9.97371 -3.87901,11.7749 -0.47697,1.8012 -1.9852,4.74066 -3.35162,6.53214 -1.36643,1.79148 -2.65315,4.14277 -2.85939,5.2251 -1.01294,5.31604 -14.96423,10.88572 -35.85559,14.31437 l -4.5,0.73853 2.69338,1.78539 c 1.48136,0.98197 4.28829,3.73176 6.23762,6.11066 l 3.54423,4.32527 -4.23762,-0.55798 c -2.33068,-0.30688 -6.13186,-1.3645 -8.44706,-2.35026 -8.74637,-3.72399 -15.15324,-3.61385 -11.70071,0.20116 1.66905,1.84427 1.56704,1.90072 -3.43485,1.90072 -5.54731,0 -5.69884,0.11529 -4.09365,3.11462 0.98474,1.84 1.90363,8.51365 2.32493,16.88538 0.0969,1.925 0.51748,4.04847 0.93469,4.71883 0.4172,0.67036 0.88932,2.87935 1.04915,4.90887 0.20372,2.58681 1.09327,4.33005 2.97533,5.83076 2.31381,1.84496 2.58959,2.61639 1.99613,5.5837 -0.37873,1.89363 -1.73552,4.26648 -3.01508,5.27299 -3.09616,2.43543 -2.93384,3.31338 0.74875,4.0499 2.23351,0.4467 2.98366,1.09677 2.74063,2.375 -0.25937,1.36426 -1.51285,1.82791 -5.57524,2.06221 -2.88234,0.16624 -5.24063,0.66539 -5.24063,1.10921 0,0.44382 1.8,2.85186 4,5.35119 2.2,2.49933 4,5.39769 4,6.44079 0,1.0431 0.45536,2.35191 1.0119,2.90845 0.98241,0.98241 3.20787,4.92818 7.12806,12.6381 1.04869,2.0625 2.34622,3.75 2.88338,3.75 0.53716,0 0.97666,1.36412 0.97666,3.03138 0,1.66727 0.5625,3.25014 1.25,3.5175 0.6875,0.26736 1.31933,2.3076 1.40407,4.53387 0.0847,2.22627 0.87224,4.84133 1.75,5.81125 0.87776,0.96991 1.59593,2.42555 1.59593,3.23474 0,0.80919 0.48119,1.95245 1.0693,2.54056 0.58812,0.58812 1.19515,1.69062 1.34896,2.45 0.15381,0.75939 0.51957,2.0557 0.81279,2.8807 0.29322,0.825 1.10822,3.4125 1.8111,5.75 0.70288,2.3375 1.62019,4.25 2.03845,4.25 0.41827,0 1.0795,1.4625 1.4694,3.25 0.38991,1.7875 1.72833,4.46577 2.97427,5.95171 1.24594,1.48594 2.87487,4.07873 3.61985,5.76174 0.74497,1.68302 2.14231,3.31007 3.10519,3.61568 2.18231,0.69263 2.29824,3.99678 0.1689,4.81388 -0.86998,0.33385 -3.56998,0.60699 -6,0.60699 -3.26063,0 -4.41821,0.393 -4.41821,1.5 0,0.825 0.43434,1.5 0.9652,1.5 0.53087,0 2.44337,1.27408 4.25,2.83129 1.80664,1.5572 4.0723,3.11808 5.0348,3.46861 0.9625,0.35053 1.75,1.07113 1.75,1.60133 0,2.01444 -3.92738,2.0654 -10.09869,0.13103 -3.52072,-1.10355 -6.51381,-2.01226 -6.65131,-2.01936 -0.1375,-0.007 -0.25,0.63666 -0.25,1.43056 0,0.79391 1.2375,2.18189 2.75,3.08441 1.5125,0.90251 3.55851,2.72796 4.54668,4.05653 1.74436,2.34524 1.73916,2.4156 -0.17857,2.4156 -1.08639,0 -2.65235,-0.67709 -3.4799,-1.50465 -0.82756,-0.82756 -2.9972,-1.47242 -4.82143,-1.43302 -5.66307,0.1223 -14.17154,-1.16722 -17.46791,-2.64738 C 256.61575,314.63673 254.19387,314 252.9669,314 c -2.4023,0 -8.01013,-3.03837 -11.83398,-6.41177 -2.28714,-2.0177 -2.40535,-2.0254 -3.5,-0.22777 -0.62311,1.02325 -2.43446,3.8684 -4.02523,6.32257 -2.74899,4.24102 -2.83762,4.71865 -1.78877,9.63954 0.60694,2.84759 1.34082,6.67041 1.63085,8.49515 0.29002,1.82475 2.03213,5.19975 3.87135,7.5 1.83922,2.30026 4.40812,5.98228 5.70867,8.18228 1.30055,2.2 2.61466,4.225 2.92024,4.5 0.30558,0.275 1.75109,2.3 3.21225,4.5 4.08135,6.1451 5.58987,23.47742 3.56844,41 -0.21106,1.82961 0.45085,2.02744 7.76928,2.32209 31.82969,1.2815 45.02904,2.10611 52.41353,3.27443 3.62256,0.57315 8.16147,1.188 10.08647,1.36634 1.925,0.17834 7.325,1.24109 12,2.36165 4.675,1.12057 11.06432,2.25258 14.19848,2.51559 3.13417,0.263 6.28417,0.85645 7,1.31876 0.71584,0.46232 3.02296,0.86905 5.12693,0.90386 2.10398,0.0348 4.13001,0.55614 4.5023,1.1585 0.37228,0.60237 2.47584,1.41851 4.67458,1.81366 4.64331,0.83447 7.49771,2.98601 7.49771,5.65149 0,2.92849 -2.40649,3.17217 -9.21447,0.93307 -8.35054,-2.74644 -21.33307,-5.62411 -31.78553,-7.04549 -4.675,-0.63573 -10.975,-1.56421 -14,-2.0633 -3.025,-0.49908 -8.2,-1.18585 -11.5,-1.52615 -3.3,-0.3403 -11.4,-1.44654 -18,-2.45831 -14.50297,-2.22328 -40.31497,-4.54455 -41.15817,-3.70135 -0.33425,0.33425 -0.6604,2.31039 -0.72478,4.39144 L 251.5,412.5 l 11.52007,0.12087 c 12.69385,0.13318 21.40204,1.29637 36.47993,4.8728 5.5,1.30458 14.5,2.86694 20,3.47191 5.5,0.60497 15.85,2.66793 23,4.58436 7.15,1.91644 16.6,4.40292 21,5.52552 17.38186,4.43477 16.17326,3.95907 14.03363,5.52361 -2.78674,2.03771 -10.43244,1.73902 -14.75238,-0.57633 -2.02902,-1.08749 -6.74736,-2.72887 -10.48519,-3.64752 -3.73783,-0.91865 -7.97351,-2.25939 -9.41261,-2.97942 -1.43911,-0.72003 -5.26411,-1.77685 -8.5,-2.3485 -3.2359,-0.57165 -7.68345,-1.47689 -9.88345,-2.01166 -25.30763,-6.15165 -29.03489,-6.70809 -52.5,-7.83764 -18.21546,-0.87685 -19.65739,-0.69921 -20.46569,2.52132 -0.3474,1.38417 -0.46287,2.68545 -0.25659,2.89174 0.20628,0.20628 5.06569,0.83342 10.79867,1.39364 5.73299,0.56022 15.59861,1.88992 21.92361,2.95489 6.325,1.06498 14.2,2.22375 17.5,2.57506 14.07191,1.49805 48.14343,9.33949 58.5,13.46356 3.025,1.20458 8.01611,2.75209 11.09136,3.43891 3.07524,0.68681 6.11274,1.57099 6.75,1.96483 1.81286,1.12041 1.35826,4.39992 -0.70048,5.05334 -2.22946,0.7076 -2.76514,0.52615 -16.14088,-5.46732 -11.91897,-5.34072 -22.39407,-8.34681 -39,-11.19203 -22.75537,-3.89884 -27.47985,-4.7661 -28.87011,-5.29959 -2.15469,-0.82683 -18.28965,-2.44872 -31.0159,-3.11772 l -11.386,-0.59854 0.64399,2.56585 c 1.87879,7.4857 2.00817,7.59206 8.83659,7.26459 11.49785,-0.55141 33.04748,1.91616 50.79143,5.81596 3.575,0.78572 9.425,1.96853 13,2.62847 7.01824,1.29555 10.16828,2.13918 25.5,6.82929 5.5,1.6825 12.5875,3.77877 15.75,4.65838 3.1625,0.87961 5.75,2.05958 5.75,2.62217 0,1.54612 -9.38997,0.0164 -17.5,-2.85099 -10.10596,-3.57302 -29.10876,-8.31279 -33.35668,-8.31997 -2.00383,-0.003 -4.9168,-0.67037 -6.47328,-1.48218 -1.55648,-0.81181 -3.80648,-1.42485 -5,-1.36231 -1.19352,0.0625 -9.59504,-0.81785 -18.67004,-1.95642 -17.02683,-2.13624 -32.45605,-3.07022 -33.49849,-2.02778 -0.77343,0.77343 3.42338,8.83485 4.59946,8.83485 0.49447,0 0.89903,-0.49319 0.89903,-1.09597 0,-2.08005 40.57279,1.36341 66.5,5.64394 11.70148,1.93189 21,4.84955 21,6.58933 0,1.65274 -2.58243,1.39652 -11.5,-1.14098 -3.575,-1.01727 -11.45,-2.33377 -17.5,-2.92555 -9.45188,-0.92453 -21.8003,-2.26488 -33,-3.58197 -1.65,-0.19404 -8.08866,-0.67848 -14.30814,-1.07652 l -11.30813,-0.72373 0.60671,2.41734 c 0.33369,1.32954 -0.0962,4.09961 -0.95528,6.15572 -0.8591,2.05612 -1.44346,3.76767 -1.29858,3.80347 0.14488,0.0358 26.81342,0.14829 59.26342,0.25 l 59,0.18492 0.30191,3.60825 0.30192,3.60825 -55.80192,0.0663 c -39.52056,0.0469 -56.47737,-0.26295 -58.11695,-1.06204 -1.83122,-0.89249 -2.49916,-0.83035 -3.1961,0.29732 -0.73538,1.18987 -1.62877,1.22563 -5.40268,0.21626 -2.97058,-0.79451 -5.3577,-0.89146 -6.95903,-0.28263 -2.39987,0.91243 -7.80662,0.67349 -9.58147,-0.42343 -0.49912,-0.30847 -1.15153,-0.16598 -1.4498,0.31663 -0.75031,1.21403 -17.3851,1.3052 -18.13035,0.0994 -0.33205,-0.53727 -0.99896,-0.73258 -1.48203,-0.43403 -1.63807,1.01238 -9.47522,1.39026 -10.9835,0.52958 z m -90.96432,-17.16862 3.76771,-1.12883 0.47099,-16.62117 c 0.44762,-15.79648 2.52178,-37.14402 4.77269,-49.12116 3.00606,-15.99535 4.23149,-40.65839 4.5215,-91 0.16318,-28.325 0.56056,-53.975 0.88306,-57 1.74741,-16.39037 1.06771,-63.90954 -1.22077,-85.34608 l -0.73086,-6.84608 -4,-1.48534 c -2.2,-0.81694 -5.125,-1.74624 -6.5,-2.06512 -2.16979,-0.50319 -2.33065,-0.37473 -1.21784,0.97264 0.70519,0.85382 1.18775,3.28886 1.07236,5.41119 -0.1154,2.12234 0.15536,15.78379 0.60168,30.35879 0.44631,14.575 0.91066,33.7 1.03187,42.5 0.12122,8.8 0.5587,25.225 0.97219,36.5 0.53533,14.59766 0.32104,27.55401 -0.74429,45 -0.82283,13.475 -1.56169,26.3 -1.6419,28.5 -0.0802,2.2 -0.55885,5.575 -1.06365,7.5 -0.50479,1.925 -1.19245,11.15 -1.52813,20.5 -0.33569,9.35 -0.99976,18.8 -1.47573,21 -0.94474,4.36676 -1.21089,7.36416 -3.55169,40 -0.86787,12.1 -1.9312,24.35656 -2.36295,27.23679 -0.43175,2.88024 -0.55406,5.46774 -0.27179,5.75 0.83955,0.83955 4.19876,0.58783 8.21555,-0.61563 z m 42.13505,-18.88042 c 0.75566,-6.17688 0.53715,-6.82312 -1.68383,-4.97987 -1.26453,1.04947 -2.83783,1.06187 -8.27416,0.0652 C 145.52073,430.39922 138.45,429.9927 133.5,430.17271 l -9,0.32729 v 3.82357 3.82358 l 9.5,0.43599 c 5.225,0.2398 12.2,1.05274 15.5,1.80653 8.70356,1.98808 8.90031,1.89859 9.67073,-4.39893 z m 1.41605,-9.89853 c 1.23767,-2.89942 1.57818,-52.20497 0.4074,-58.98933 -1.712,-9.92052 -15.398,-33.65262 -18.68062,-32.39296 -1.25162,0.48029 -1.39814,-0.29821 -0.90692,-4.81854 0.32224,-2.96526 1.0641,-10.79138 1.64859,-17.39138 1.36064,-15.36411 1.88257,-20.40363 2.43385,-23.5 0.24481,-1.375 0.74079,-7.675 1.10217,-14 0.9145,-16.00555 1.07687,-18.02493 1.76891,-22 0.33514,-1.925 0.8719,-7.1 1.19281,-11.5 1.27903,-17.53687 1.01847,-22.5 -1.18124,-22.5 -0.89555,0 -3.97054,-1.34011 -6.83331,-2.97802 l -5.20504,-2.97802 -0.24062,24.22802 C 135.96042,250.59739 135.6165,266.675 135.3285,273 c -0.28801,6.325 -0.68628,22.975 -0.88504,37 -0.19876,14.025 -0.63261,31.8 -0.96411,39.5 -0.62485,14.51397 -4.26962,38.8198 -6.9681,46.46811 -1.23527,3.50112 -1.29202,4.54935 -0.28015,5.17472 0.69789,0.43132 1.2689,1.36127 1.2689,2.06655 0,0.98269 3.31758,1.28329 14.19821,1.28647 10.01946,0.003 14.56663,0.37204 15.45,1.25415 1.00157,1.00014 -0.63714,1.28419 -8.19821,1.42105 -5.1975,0.0941 -10.125,0.27124 -10.95,0.3937 -0.825,0.12246 -3.58936,0.27049 -6.14301,0.32895 -5.56085,0.12731 -5.81193,0.56119 -6.71625,11.6063 l -0.65501,8 17.7107,0.0922 c 15.30451,0.0797 17.80303,-0.12412 18.39035,-1.5 z M 148.5,417.39557 c -4.4,-0.68494 -10.475,-1.29282 -13.5,-1.35086 -8.33216,-0.15987 -3.7615,-2.13448 5.00484,-2.16219 10.346,-0.0327 20.74543,2.60794 17.24516,4.37891 -0.4125,0.20871 -4.35,-0.18093 -8.75,-0.86586 z m 82.12676,4.41935 c -0.82314,-2.37321 -2.4259,-6.20568 -3.56169,-8.51661 C 225.92928,410.98737 225,408.67302 225,408.15529 c 0,-0.51772 -0.77426,-1.23842 -1.72058,-1.60156 -1.91227,-0.73381 -39.03689,-0.58403 -40.98979,0.16537 -1.38708,0.53227 -2.81061,6.62893 -1.89407,8.11191 0.37015,0.59893 2.00811,0.62216 4.34911,0.0617 4.23442,-1.01378 29.15866,-1.25076 31.63428,-0.30078 3.56355,1.36746 0.0319,2.40836 -8.18797,2.41325 -4.78004,0.003 -13.03132,0.29262 -18.33619,0.64394 l -9.64521,0.63877 -0.63795,3.98956 c -0.35088,2.19426 -0.38367,4.24385 -0.0729,4.55465 0.3108,0.3108 4.26322,-0.20136 8.78316,-1.13814 10.52698,-2.18175 26.86862,-2.10306 36.21808,0.17441 3.85,0.93783 7.14026,1.38033 7.31169,0.98331 0.17144,-0.39701 -0.36178,-2.66355 -1.18493,-5.03675 z M 62.369714,307.75 c 0.331637,-1.2375 0.609651,-4.5 0.617809,-7.25 0.02792,-9.41041 4.324818,-26.43745 6.887237,-27.29159 1.368928,-0.45631 1.054022,1.38646 -2.026367,11.85792 -2.078934,7.06711 -2.33086,24.19733 -0.348393,23.68972 0.55,-0.14083 1.011894,-0.70605 1.026431,-1.25605 0.01454,-0.55 0.391474,-1.58334 0.837639,-2.29631 0.446165,-0.71297 0.939456,-6.33797 1.096204,-12.5 C 70.742428,281.6117 72.569159,274 74.948973,274 c 1.491653,0 1.301393,2.68151 -0.374997,5.28518 -0.784312,1.21815 -1.734393,3.90232 -2.11129,5.96482 -0.545016,2.9825 -0.375707,3.75 0.827247,3.75 2.482443,0 6.036668,-7.04305 6.81268,-13.5 0.396601,-3.3 1.047017,-8.79879 1.445367,-12.21954 0.715532,-6.14447 0.823838,-6.31949 8.972871,-14.5 C 97.715076,241.55844 111,223.00749 111,220.18355 c 0,-0.48047 0.9,-1.68806 2,-2.68355 2.38499,-2.15839 2.53522,-3.81092 0.5,-5.5 -0.825,-0.68469 -1.5,-2.08979 -1.5,-3.12244 C 112,207.8449 111.37314,207 110.60699,207 c -0.76616,0 -1.62529,-0.5625 -1.90919,-1.25 -0.2839,-0.6875 -1.19063,-2.825 -2.01496,-4.75 -1.28943,-3.01111 -1.3084,-4.05339 -0.13586,-7.46172 0.7496,-2.17894 1.21949,-4.10514 1.04419,-4.28044 -0.96392,-0.96392 -10.000189,8.7533 -11.768581,12.65544 -1.14325,2.52269 -2.358526,4.81172 -2.700613,5.08672 -1.351466,1.08643 -11.786974,25.05099 -15.562823,35.73916 -1.212272,3.43153 -2.509011,6.54403 -2.881642,6.91666 C 74.30488,250.02845 74,250.98107 74,251.77275 c 0,0.79167 -1.040389,2.25778 -2.311976,3.25801 -1.271587,1.00023 -3.165956,4.44 -4.20971,7.64392 -1.043753,3.20393 -2.201041,6.27532 -2.57175,6.82532 -0.37071,0.55 -1.858849,5.85843 -3.306976,11.79651 -3.28351,13.4641 -4.399657,25.03454 -2.621634,27.17693 1.751983,2.11101 2.685519,1.91189 3.39176,-0.72344 z M 95.555957,194.51552 C 97.017714,192.59906 99.692533,190.11708 101.5,189 c 1.80747,-1.11708 4.51948,-3.64782 6.02669,-5.62388 2.68514,-3.5204 2.70727,-3.66229 1.09761,-7.03778 -1.64041,-3.43998 -3.61332,-3.72714 -3.63663,-0.52932 -0.007,0.93004 -2.16588,3.94098 -4.79802,6.69098 -4.46329,4.66316 -10.185928,15.5 -8.185122,15.5 0.491529,0 2.089672,-1.56801 3.551429,-3.48448 z M 129,144.55721 c 0,-0.24353 -1.16192,-3.57747 -2.58204,-7.40876 -2.5807,-6.96235 -2.58508,-6.9671 -8.43658,-9.15542 -3.22,-1.20419 -6.33393,-1.89318 -6.91984,-1.53107 -0.58614,0.36226 -1.48648,-0.44944 -2.00173,-1.80465 -0.51504,-1.35467 -1.40727,-2.75402 -1.98272,-3.10967 -1.24264,-0.76799 -5.068,5.13918 -5.07335,7.83433 -0.005,2.57538 3.95989,8.79682 5.31785,8.34417 0.6055,-0.20184 1.6274,-2.58529 2.27087,-5.29656 1.27855,-5.38716 1.57183,-5.15174 1.77381,1.42382 l 0.13373,4.35341 6.67499,2.65492 c 3.67125,1.4602 7.00875,2.98867 7.41667,3.39659 0.79902,0.79903 3.40834,1.02785 3.40834,0.29889 z M 161.35796,103.25 c 1.658,-5.888641 1.75885,-8.25 0.35234,-8.25 -1.28078,0 -2.66167,4.47626 -2.69929,8.75 -0.0166,1.88381 1.78375,1.50026 2.34695,-0.5 z M 187,95.934259 c 0,-0.586158 -0.48447,-1.970989 -1.07661,-3.077401 -2.63558,-4.924624 -3.72475,-12.194396 -2.80259,-18.706061 0.50588,-3.572119 1.3821,-7.051827 1.94716,-7.732684 0.74231,-0.894424 0.3999,-1.677431 -1.23399,-2.82185 -2.00617,-1.405175 -2.35671,-1.413556 -3.10622,-0.07426 -0.46467,0.830316 -0.706,6.903392 -0.5363,13.495724 0.1697,6.592331 0.003,11.985206 -0.37055,11.984165 -2.60628,-0.0073 -3.20154,-22.324874 -0.72352,-27.126025 C 180.09822,59.936753 177.31723,57 174.48013,57 c -1.76256,0 -1.76814,-0.06892 -0.10407,-1.285714 1.62621,-1.189111 1.58421,-1.30436 -0.55887,-1.533867 -1.27445,-0.136484 -3.57851,-0.296291 -5.12013,-0.355127 -1.7871,-0.0682 -2.63087,-0.555399 -2.32815,-1.344278 C 166.96502,50.927589 165.1073,49 163.01408,49 c -1.27812,0 -1.53945,1.026175 -1.34648,5.287241 0.13169,2.907982 0.68738,6.395482 1.23486,7.75 l 0.99542,2.462759 0.66475,-2.238753 c 0.99429,-3.34857 2.16326,-1.860787 2.33289,2.969146 0.19688,5.605627 2.49475,14.066363 3.95226,14.5522 0.80687,0.268959 1.1821,-2.263464 1.2519,-8.44926 0.15824,-14.022943 1.65672,-15.560099 1.74276,-1.787742 0.0872,13.955035 1.43205,19.340132 5.29202,21.19014 1.44895,0.694455 3.37182,2.388011 4.27305,3.763457 C 185.08962,97.066411 187,97.829539 187,95.934259 Z M 165.73121,56.919841 c 0.35361,-1.352204 0.8069,-1.805497 1.05655,-1.056551 0.24048,0.721441 -0.0382,1.787158 -0.61931,2.36826 -0.74207,0.742068 -0.87221,0.351636 -0.43724,-1.311709 z m 28.67023,36.476405 c 0.36816,-0.959415 1.24663,-1.361537 2.18649,-1.000878 1.36976,0.525628 1.48802,-0.261914 0.92291,-6.146246 C 196.8206,79.061736 195.31967,74 193.87868,74 192.5639,74 192.25336,81.516785 193.34305,86.965228 193.67687,88.634353 193.52859,90 193.01354,90 c -1.56065,0 -3.14792,-7.786244 -2.84271,-13.944733 0.30691,-6.192813 -1.37085,-9.96408 -3.60714,-8.108121 -1.46871,1.218914 -1.93137,14.430658 -0.65791,18.78682 0.83426,2.853765 5.48776,8.148454 7.23723,8.234433 0.35366,0.01738 0.91995,-0.690088 1.25843,-1.572153 z m 1.81052,-27.405405 c -0.2429,-1.655037 0.0563,-3.609143 0.66489,-4.342458 0.79777,-0.961251 0.81754,-3.638159 0.0708,-9.593186 -0.98066,-7.820943 -2.44329,-11.49659 -6.00841,-15.099409 -0.85839,-0.867473 -2.20839,-2.485597 -3,-3.595833 -0.7916,-1.110236 -4.58928,-3.659172 -8.43928,-5.664302 -6.56384,-3.418531 -7.46732,-3.622495 -14.5,-3.273415 -4.125,0.204752 -8.57165,0.787823 -9.88144,1.295715 -2.2309,0.865062 -2.01785,1.095592 3.37016,3.646694 8.62785,4.085095 21.48621,12.768175 26.84842,18.13039 2.61622,2.616219 5.88347,7.062608 7.26055,9.880863 L 195.10148,62.5 191.92207,59 c -1.74867,-1.925 -5.59262,-6.238869 -8.54211,-9.586375 -2.99224,-3.396028 -7.68716,-7.339496 -10.62133,-8.921314 C 169.86638,38.933094 167.275,37.396963 167,37.078686 c -0.86767,-1.004217 -4.34383,-2.972159 -9,-5.09513 -2.475,-1.128471 -5.175,-2.487493 -6,-3.020049 -3.6233,-2.338916 -6.4727,-3.051704 -8.46164,-2.11671 -7.11144,3.34306 -15.09822,5.918123 -18.84738,6.076692 -4.92221,0.208182 4.03398,4.883158 11.67512,6.094211 19.56373,3.100677 37.29512,11.253365 48.88459,22.476563 8.47275,8.204981 11.69985,9.528816 10.96127,4.496578 z M 128.81398,60.7152 c 1.48539,-2.453417 1.50752,-2.897721 0.18602,-3.733744 -0.825,-0.521919 -1.94588,-0.807634 -2.49083,-0.634922 -1.73162,0.548795 -4.73573,6.620675 -4.09795,8.282713 0.52974,1.380472 0.89306,1.41245 2.66505,0.234565 1.12844,-0.750096 2.81041,-2.616972 3.73771,-4.148612 z m 0.60423,-7.322189 C 131.65261,52.535591 131.38425,51 129,51 c -1.11111,0 -2,0.666667 -2,1.5 0,1.683053 0.18315,1.750687 2.41821,0.893011 z M 345.09135,33.25 c 2.17888,-4.8125 4.58404,-9.953146 5.3448,-11.423658 C 351.95399,18.892431 351.59107,18 348.88013,18 c -2.00498,0 -5.679,7.234549 -6.60197,13 -0.30816,1.925 -1.17182,4.715153 -1.91923,6.20034 C 338.72481,40.447507 338.6297,42 340.06487,42 c 0.58568,0 2.84759,-3.9375 5.02648,-8.75 z m 27.72115,427.06689 c 0.72187,-0.28887 1.58438,-0.25335 1.91667,0.0789 0.33229,0.33229 -0.25834,0.56864 -1.3125,0.52522 -1.16495,-0.048 -1.4019,-0.28494 -0.60417,-0.60416 z M 57.521288,452.33432 c -2.462706,-0.88671 -7.606602,-1.40961 -13.5,-1.37233 -9.619458,0.0608 -11.879498,0.26013 -17.771288,1.56708 -2.509768,0.55673 -3.25,0.38899 -3.25,-0.73645 0,-1.09064 2.831028,-1.87997 11.25,-3.13663 13.987629,-2.08789 19.852927,-2.09747 27.919233,-0.0456 7.961987,2.02533 8.352514,2.27678 6.140608,3.95382 -2.245357,1.7024 -5.621738,1.63045 -10.788553,-0.22988 z M 71,445.48182 c -8.827671,-5.11054 -21.711011,-6.57449 -39.026234,-4.43459 -6.680376,0.82559 -8.818199,1.49506 -10.101211,3.16325 l -1.627445,2.11603 -1.168799,-2.18392 c -0.64284,-1.20116 -0.94396,-2.54772 -0.669157,-2.99236 1.724084,-2.78963 24.28863,-4.61438 40.592846,-3.28268 4.198821,0.34296 18.493436,3.75023 20.315143,4.84233 1.19644,0.71726 -2.353393,4.29616 -4.220131,4.25468 C 74.217756,446.94508 72.375,446.27784 71,445.48182 Z m 6.645748,-12.02478 C 69.226597,429.8642 59.451876,427.98498 49,427.9498 c -10.2951,-0.0347 -25.067725,1.70388 -30.304198,3.56638 -5.358356,1.90586 -5.541532,1.85715 -5.924241,-1.57533 -0.268137,-2.40491 -0.120256,-2.45033 11.728439,-3.60244 23.886978,-2.32265 38.829102,-1.10651 58.335657,4.74793 8.008016,2.40342 8.548067,2.74638 7.090457,4.50269 -1.641935,1.97841 -3.338678,1.68384 -12.280366,-2.13199 z M 100,423.86048 c -6.040888,-2.44715 -34.904529,-5.65012 -58.594309,-6.50214 -16.943046,-0.60937 -24.267601,0.0223 -31.077723,2.68006 -1.8543631,0.7237 -2.3303498,0.39352 -3.2545093,-2.25752 -0.5953622,-1.70786 -0.8266727,-3.361 -0.5140234,-3.67365 1.0231199,-1.02312 34.7230707,-0.50943 43.9405647,0.66979 4.95,0.63327 14.175,1.41866 20.5,1.74532 6.325,0.32667 14.65,1.03603 18.5,1.57638 7.37335,1.03485 15.89572,4.45197 14.94397,5.99193 -0.68102,1.10192 -1.22525,1.07373 -4.44397,-0.23017 z m 54.45888,-94.92701 c -0.78421,-1.26888 -1.08233,-0.99277 4.62898,-4.28713 2.52332,-1.45549 5.62296,-2.64634 6.88809,-2.64634 2.23486,0 2.28114,-0.18645 1.62813,-6.56021 -0.8132,-7.93723 0.0642,-13.66356 2.02863,-13.23987 1.039,0.22409 1.50649,2.86003 1.84606,10.40891 l 0.45472,10.10884 -5.04644,1.62981 c -2.77553,0.8964 -6.31753,2.53493 -7.87111,3.64117 -3.25098,2.3149 -3.65813,2.39931 -4.55706,0.94482 z M 182.88822,324.75 c -0.43098,-4.81936 -0.91854,-8.86296 -1.53735,-12.75 -3.381,-21.2377 -3.87703,-82.66816 -0.67607,-83.72767 0.88428,-0.2927 1.1608,7.60058 1.11819,31.9194 -0.0311,17.76955 0.4358,36.58327 1.03764,41.80827 1.73073,15.02567 2.14623,24 1.11119,24 -0.518,0 -0.99212,-0.5625 -1.0536,-1.25 z M 167.5,294 c -0.33992,-0.55 -0.34396,-1.44347 -0.009,-1.98548 0.33498,-0.54202 0.8022,-10.77952 1.03827,-22.75 0.39247,-19.90183 0.80546,-27.32115 1.90731,-34.26452 0.2182,-1.375 0.43422,-3.9955 0.48006,-5.82332 0.0655,-2.61097 0.45845,-3.24733 1.83333,-2.9688 1.20666,0.24446 1.65724,1.12105 1.45125,2.82333 -0.67535,5.58087 -2.51401,41.20239 -2.37276,45.96879 0.26593,8.97316 -1.03482,20 -2.35924,20 -0.74317,0 -1.62933,-0.45 -1.96925,-1 z m 70.5,-8 c 0,-0.55 0.47656,-1 1.05902,-1 0.58246,0 0.7809,0.45 0.44098,1 -0.33992,0.55 -0.81648,1 -1.05902,1 C 238.19844,287 238,286.55 238,286 Z m 4.9653,-1.54181 c -1.05784,-1.27463 -0.93951,-2.01113 0.68284,-4.25 1.07934,-1.48951 2.56414,-4.19359 3.29955,-6.00908 1.83609,-4.5327 4.80442,-4.0046 6.5747,1.16972 1.66298,4.86067 1.35034,5.61196 -3.48769,8.38117 -4.65651,2.66531 -5.3846,2.73824 -7.0694,0.70819 z M 160.72148,264.25 c -0.2181,-0.4125 0.009,-5.925 0.50508,-12.25 0.49589,-6.325 0.68746,-16.9 0.4257,-23.5 -0.41818,-10.54424 -1.08914,-14.43931 -4.17728,-24.25 -0.53736,-1.70713 -0.31222,-2.25 0.93314,-2.25 2.03951,0 4.49369,5.95538 6.28949,15.26224 0.70845,3.6716 1.66377,4.10363 5.94776,2.68978 l 3.60626,-1.19017 -3.12581,-1.97913 c -3.531,-2.23566 -3.51253,-2.19163 -2.05862,-4.90829 0.78441,-1.46568 0.63305,-4.29681 -0.57123,-10.68425 -0.90114,-4.7796 -2.02184,-9.59018 -2.49045,-10.69018 -0.46861,-1.1 -1.6122,-5.375 -2.5413,-9.5 -0.9291,-4.125 -2.71286,-11.325 -3.96389,-16 -2.97218,-11.10672 -3.8828,-17.29416 -2.47623,-16.8253 1.06249,0.35416 5.67131,11.96405 6.6792,16.8253 0.44613,2.1518 2.76802,11.06908 6.24912,24 4.01588,14.91739 4.35665,17.08633 3.25067,20.68994 -0.98748,3.2175 -0.86523,3.89169 1.0925,6.02487 2.43855,2.65708 6.4016,4.59037 7.7286,3.77024 0.471,-0.29109 0.38645,-1.87726 -0.18789,-3.52481 -0.57434,-1.64755 -0.71765,-4.2251 -0.31846,-5.72789 0.69436,-2.61399 0.79968,-2.51692 2.43132,2.24082 1.27023,3.70388 2.32386,5.12957 4.12818,5.58593 2.76565,0.6995 6.61038,-0.46651 9.16684,-2.78008 2.45256,-2.21954 12.39536,-6.31818 17.75582,-7.31934 6.39015,-1.19348 19,-1.16672 19,0.0403 0,0.55 -1.71399,1 -3.80887,1 -2.09488,0 -4.68238,0.66069 -5.75,1.4682 -1.06762,0.8075 -3.63395,1.4825 -5.70295,1.5 l -3.76182,0.0318 0.59668,4.25 c 0.32816,2.3375 1.02982,6.84595 1.55922,10.01878 0.52941,3.17283 0.70888,6.17924 0.39884,6.6809 -0.31005,0.50167 -0.13127,1.17939 0.39728,1.50605 0.92303,0.57047 0.94125,18.02037 0.0197,18.91774 -0.24646,0.24002 -1.24396,0.59167 -2.21666,0.78146 -1.60763,0.31368 -1.8076,-0.92861 -2.19793,-13.65493 -0.42714,-13.92599 -1.13977,-22.86428 -2.01315,-25.25 -1.08359,-2.95991 -9.11828,-0.55829 -14.34438,4.28763 -2.95512,2.74014 -10.47093,4.06113 -14.46536,2.54246 -2.06376,-0.78464 -4.45593,-0.63455 -9.61296,0.60313 -5.74819,1.37957 -6.86927,1.98697 -6.88865,3.73225 -0.0619,5.56893 -1.20463,19.92541 -2.15252,27.04151 -0.58295,4.37633 -0.80381,8.76383 -0.49082,9.75 0.3755,1.18307 0.056,1.79302 -0.93929,1.79302 -0.8296,0 -1.68681,-0.3375 -1.90492,-0.75 z m 80.89574,-13.19709 C 240.72775,246.19114 240,241.29189 240,240.16568 c 0,-1.1262 -0.45,-2.32576 -1,-2.66568 -0.55,-0.33992 -1,-1.639 -1,-2.88684 0,-1.24784 -1.575,-6.28069 -3.5,-11.1841 -1.925,-4.90342 -3.5,-9.7059 -3.5,-10.67218 0,-2.64072 3.66099,-2.21912 4.28209,0.49312 0.69895,3.05222 2.4913,7.98519 5.7226,15.75 1.48772,3.575 2.9837,8.61578 3.32438,11.20173 0.34069,2.58595 1.52533,7.27915 2.63252,10.42932 1.1072,3.15018 1.90629,5.7831 1.77575,5.85094 -0.13054,0.0678 -1.42209,0.86294 -2.87012,1.76692 l -2.63278,1.64358 z M 191.84904,241.25 c -0.083,-0.4125 -0.28152,-2.1 -0.4411,-3.75 -0.15957,-1.65 -0.42914,-4.125 -0.59904,-5.5 -0.23925,-1.9363 0.14206,-2.5 1.6911,-2.5 1.68802,0 2.08951,0.85794 2.57383,5.5 0.35794,3.43079 0.16983,5.7764 -0.5,6.23469 -1.39283,0.95294 -2.53477,0.95935 -2.72479,0.0153 z m 29.79892,-13.96232 c -1.16603,-7.05578 -0.84976,-9.4865 1.15168,-8.85127 1.55364,0.4931 1.74174,0.0752 1.37604,-3.05727 -0.67181,-5.75458 1.97949,-3.70436 3.47051,2.68371 0.69799,2.99043 1.28814,5.71225 1.31144,6.04848 0.0233,0.33623 -1.09169,0.39454 -2.47777,0.12957 -2.31555,-0.44264 -2.49821,-0.21697 -2.25,2.77986 0.38384,4.6344 -1.82243,4.86249 -2.5819,0.26692 z M 190.93708,205.75 c -0.23927,-0.95067 -2.03512,-17.64649 -2.07058,-19.25 -0.0243,-1.1 -0.88627,-7.175 -1.91543,-13.5 -1.02916,-6.325 -2.10905,-13.67219 -2.39976,-16.32708 -0.2907,-2.6549 -0.751,-5.18701 -1.02288,-5.62692 -0.27188,-0.43991 -0.73417,-6.5146 -1.02732,-13.49931 -0.49354,-11.75952 -0.40228,-12.67431 1.23295,-12.35944 1.36807,0.26342 1.94234,1.80144 2.54889,6.82639 0.43063,3.5675 1.50489,8.4005 2.38726,10.74001 1.1563,3.06583 1.42137,5.81002 0.94925,9.8271 -0.40588,3.4534 -0.0914,8.68228 0.82675,13.74635 0.815,4.49509 1.70415,10.6479 1.9759,13.6729 0.27175,3.025 0.71834,6.4 0.99243,7.5 0.73441,2.94743 1.37669,15.79901 0.8621,17.25 -0.36476,1.02852 -3.1244,1.85487 -3.33956,1 z M 198,204.45951 c 0,-0.29727 1.0125,-1.91271 2.25,-3.58987 1.77898,-2.41102 2.22686,-4.28662 2.13946,-8.95951 C 202.27898,186.0034 202.28062,186 205.23765,186 h 2.95872 l -0.65937,6.25 C 206.64167,200.7365 204.37971,205 200.7726,205 199.24767,205 198,204.75678 198,204.45951 Z M 226.79678,179.25 c -1.60022,-1.85064 -6.22708,-14.68363 -7.12076,-19.75 -0.42898,-2.43195 -2.5693,-7.82091 -5.49162,-13.82694 -0.2213,-0.45481 0.84974,-0.67981 2.38008,-0.5 2.46919,0.29013 3.05205,1.11502 5.17713,7.32694 2.0567,6.01203 4.41059,13.69938 7.17584,23.43484 0.38038,1.33916 1.17156,2.59483 1.75819,2.79037 1.26447,0.42149 3.32436,-7.11823 3.32436,-12.16803 0,-3.66974 1.32357,-4.76232 2.39301,-1.97539 1.0019,2.6109 0.68702,9.55489 -0.5939,13.09721 -1.01341,2.80253 -1.69174,3.321 -4.34501,3.321 -1.75128,0 -3.81447,-0.77525 -4.65732,-1.75 z m 4.74903,-25.5 c -2.71793,-5.25144 -5.98672,-10.47473 -7.82947,-12.51095 C 222.77235,140.19596 222,139.00152 222,138.58474 c 0,-0.41678 -1.43202,-2.75183 -3.18226,-5.189 -2.38184,-3.31666 -2.89555,-4.71793 -2.04238,-5.5711 1.78066,-1.78066 3.9425,0.63308 8.17328,9.12563 2.0686,4.15235 5.3825,9.98578 7.36423,12.96317 3.32368,4.99355 3.83819,7.08656 1.74205,7.08656 -0.45487,0 -1.58397,-1.4625 -2.50911,-3.25 z m -83.9943,1.14313 c -0.27256,-0.76622 -0.95358,-4.99313 -1.51338,-9.39313 -0.55979,-4.4 -1.68311,-12.5 -2.49626,-18 -1.81407,-12.27006 -1.85565,-13.77126 -0.36772,-13.27528 1.86304,0.62101 5.05008,19.99457 6.00158,36.48268 0.24592,4.2614 -0.71573,6.73964 -1.62422,4.18573 z M 233.8887,142.32332 C 233.8275,141.8705 233.66796,139.925 233.5342,138 c -0.13375,-1.925 -0.58615,-4.5125 -1.00533,-5.75 -1.22826,-3.62612 1.73743,-2.76788 3.82398,1.10662 2.18683,4.0607 1.87273,8.98868 -0.60285,9.45815 -0.9625,0.18253 -1.80009,-0.0386 -1.8613,-0.49145 z M 136.43039,137.75 c -0.38741,-1.2375 -1.99274,-4.13108 -3.56739,-6.43018 C 129.65027,126.62902 129.29894,125 131.5,125 c 0.825,0 1.5,0.50576 1.5,1.12391 0,0.61814 1.74944,3.74371 3.88764,6.94569 2.1382,3.20198 3.6382,6.07122 3.33333,6.37609 -1.25307,1.25307 -3.13034,0.41329 -3.79058,-1.69569 z m 91.0103,-11.84596 c -1.08384,-1.75369 2.01636,-4.06793 5.68394,-4.24296 4.75146,-0.22675 4.36772,2.17954 -0.62463,3.91684 -4.8278,1.68003 -4.24573,1.64251 -5.05931,0.32612 z M 201,118.43426 C 201,116.14501 203.4357,114 206.03518,114 c 3.99231,0 3.87477,2.48714 -0.1844,3.90217 C 202.33587,119.12748 201,119.27401 201,118.43426 Z m 90.46527,-3.8662 c -1.88627,-3.97502 -1.33454,-5.60226 1.33269,-3.93056 1.98832,1.24618 2.80959,5.15495 1.38289,6.58165 -0.65131,0.65131 -1.5776,-0.25298 -2.71558,-2.65109 z M 123.5,114.12186 c -1.65,-0.35282 -2.955,-1.19958 -2.9,-1.88168 0.055,-0.6821 0.1675,-2.36518 0.25,-3.74018 0.0825,-1.375 0.64878,-2.5 1.25841,-2.5 0.66878,0 0.87093,0.94619 0.50966,2.38558 -0.64627,2.57496 1.52139,5.2643 3.33813,4.14149 0.57409,-0.35481 1.0438,-2.89089 1.0438,-5.63575 0,-5.05895 2.38404,-11.39004 3.92939,-10.434958 0.46432,0.286965 0.22329,2.324009 -0.53562,4.526768 -0.75891,2.20275 -1.3092,5.80768 -1.22287,8.01094 0.13331,3.40215 0.48571,4.00593 2.33805,4.00593 2.78333,0 5.08159,-2.56885 6.2018,-6.93198 0.48462,-1.88759 1.41423,-3.60968 2.0658,-3.82687 0.79533,-0.26511 0.61814,1.13366 -0.53913,4.25614 -1.63968,4.42409 -1.63771,4.69919 0.0404,5.63833 0.97032,0.54301 1.50319,1.40964 1.18417,1.92584 -0.63888,1.03372 -12.21749,1.07495 -16.96202,0.0604 z M 115.48593,106.75 c 0.81045,-6.31648 2.17286,-11.720175 3.45943,-13.72104 1.78986,-2.783564 2.04616,-0.36036 0.45563,4.30761 -0.91328,2.68031 -1.44549,6.80718 -1.24709,9.6702 0.29881,4.31211 0.0942,4.99439 -1.49774,4.99385 -1.64314,-5.5e-4 -1.77051,-0.57207 -1.17023,-5.25062 z m -9.45552,-6.30887 c -0.0167,-2.232379 0.64403,-4.932379 1.46835,-6 1.37798,-1.78471 1.44778,-1.578511 0.86623,2.55887 -0.90486,6.43745 -2.29676,8.48909 -2.33458,3.44113 z M 122.05723,101.5 c -0.033,-3.718883 1.47285,-6.380973 2.82356,-4.991641 0.62198,0.639764 0.29678,2.233593 -0.91644,4.491641 l -1.88052,3.5 z m 9.97821,1.75 c 0.0195,-0.4125 0.67854,-1.875 1.46456,-3.25 1.02069,-1.785517 1.43926,-2.023236 1.46456,-0.831787 0.0499,2.348797 -1.01465,4.831787 -2.07155,4.831787 -0.49115,0 -0.87706,-0.3375 -0.85757,-0.75 z M 138,99.64282 C 138,97.498981 140.34266,90 141.01238,90 c 0.92523,0 -0.91551,8.088608 -2.15055,9.45 C 138.38782,99.9725 138,100.05927 138,99.64282 Z m 5.42993,-4.032386 c 0.37303,-1.589261 1.33187,-4.289261 2.13075,-6 L 147.0132,86.5 146.46026,91 c -0.30412,2.475 -1.26296,5.175 -2.13075,6 -1.42391,1.353684 -1.51165,1.21814 -0.89958,-1.389566 z M 135,94.059017 c 0,-1.067541 0.45,-2.219098 1,-2.559017 0.56716,-0.350523 1,0.489616 1,1.940983 C 137,94.848442 136.55,96 136,96 c -0.55,0 -1,-0.873442 -1,-1.940983 z M 154.36971,92.75 c 0.33164,-1.2375 0.60913,-4.0125 0.61664,-6.166667 0.0169,-4.853271 1.38012,-3.844378 1.64751,1.219309 C 156.87381,92.346635 156.20363,95 154.81598,95 c -0.6001,0 -0.79113,-0.96315 -0.44627,-2.25 z M 150,89.559017 C 150,87.051558 150.45,85 151,85 c 0.55,0 1,1.773442 1,3.940983 0,2.167541 -0.45,4.219098 -1,4.559017 -0.61081,0.377502 -1,-1.156282 -1,-3.940983 z m -26.50437,1.43392 c -0.79429,-1.285201 2.01458,-2.394864 4.06775,-1.606989 C 129.56715,90.154867 128.46364,92 126,92 c -1.03508,0 -2.16205,-0.453178 -2.50437,-1.007063 z M 167,90 c 0,-0.55 0.9,-1 2,-1 1.1,0 2,0.45 2,1 0,0.55 -0.9,1 -2,1 -1.1,0 -2,-0.45 -2,-1 z m -3.58882,-6.56219 c -0.56042,-3.059205 -0.6572,-5.785763 -0.21506,-6.059017 0.44213,-0.273255 0.80388,0.403173 0.80388,1.503173 0,1.1 0.45,2.278115 1,2.618034 1.17348,0.725252 1.36774,7.5 0.21506,7.5 -0.43172,0 -1.24347,-2.502986 -1.80388,-5.56219 z M 159.55214,86.75 C 158.05471,81.889396 158.03479,80 159.48095,80 160.58651,80 161,81.088814 161,84 c 0,3.922669 -0.68549,5.22465 -1.44786,2.75 z M 145.32067,67.899533 c -2.93104,-0.848237 -3.23153,-1.337917 -3.8478,-6.27035 -0.4979,-3.985115 -0.26078,-6.138637 0.92933,-8.440061 C 143.28099,51.489731 144,49.176973 144,48.04966 c 0,-2.673586 1.67752,-2.641073 2.53133,0.04906 0.36636,1.154296 2.42169,3.854296 4.56739,6 4.11744,4.117439 3.73797,4.902429 -1.14838,2.3756 -4.56038,-2.358265 -3.60662,0.0692 2.04966,5.216685 C 157.12516,66.355149 158.06317,68 155.59783,68 c -0.7712,0 -1.87279,-1.35 -2.44799,-3 -0.57519,-1.65 -1.69173,-3 -2.48119,-3 -1.97644,0 -2.9048,3.972151 -1.09103,4.66816 1.75426,0.673173 1.88437,2.365173 0.17238,2.241652 -0.6875,-0.0496 -2.6807,-0.504229 -4.42933,-1.010279 z M 321.8334,61.500071 c -0.29149,-0.291492 -0.16295,-2.885755 0.28564,-5.765029 C 322.99333,50.123481 326.3551,46 330.05576,46 c 2.64587,0 2.52764,0.274173 -2.05576,4.76703 -2.44964,2.40125 -4.00594,4.853522 -4.01531,6.326977 -0.0167,2.620072 -1.30292,5.254432 -2.15129,4.406064 z M 14.542705,31.069098 C 13.803164,29.872496 15.68433,28.686871 17.016312,29.510081 18.13467,30.201265 17.400479,32 16,32 15.514919,32 14.859136,31.581094 14.542705,31.069098 Z"
       id="path12" />
  </g>
</svg>
