<?xml version="1.0" encoding="UTF-8" standalone="no"?>
<!-- Created with Inkscape (http://www.inkscape.org/) -->

<svg
   version="1.1"
   id="svg2"
   width="417"
   height="473"
   viewBox="0 0 417 473"
   sodipodi:docname="7.svg"
   inkscape:version="1.1.2 (0a00cf5339, 2022-02-04)"
   xmlns:inkscape="http://www.inkscape.org/namespaces/inkscape"
   xmlns:sodipodi="http://sodipodi.sourceforge.net/DTD/sodipodi-0.dtd"
   xmlns="http://www.w3.org/2000/svg"
   xmlns:svg="http://www.w3.org/2000/svg">
  <defs
     id="defs6" />
  <sodipodi:namedview
     id="namedview4"
     pagecolor="#505050"
     bordercolor="#eeeeee"
     borderopacity="1"
     inkscape:pageshadow="0"
     inkscape:pageopacity="0"
     inkscape:pagecheckerboard="0"
     showgrid="false"
     inkscape:zoom="1.5835095"
     inkscape:cx="208.39786"
     inkscape:cy="233.34246"
     inkscape:window-width="1920"
     inkscape:window-height="1043"
     inkscape:window-x="0"
     inkscape:window-y="0"
     inkscape:window-maximized="1"
     inkscape:current-layer="g8" />
  <g
     inkscape:groupmode="layer"
     inkscape:label="Image"
     id="g8">
    <path
       id="path12"
       style="fill:#000000"
       d="M 245.24219,8.2910156 C 236.91241,8.4207091 229.64402,9.4819781 227,11.125 c -0.825,0.512663 -2.83952,1.707552 -4.47656,2.654297 -1.63704,0.946745 -4.42574,3.245979 -6.19727,5.109375 -2.67869,2.817556 -3.1176,3.911962 -2.60742,6.5 0.61671,3.128477 6.15489,9.118599 9.375,10.140625 0.94664,0.300452 1.97466,1.203749 2.2832,2.007812 C 225.78626,38.603753 225.18568,39 223.15625,39 c -1.74593,0 -3.7377,1.023859 -5.34766,2.75 -4.61623,4.949358 -5.89032,9.189712 -3.91015,13.013672 2.04226,3.94386 4.98479,11.01826 6.33594,15.236328 1.1157,3.483069 1.98632,4.577722 3.85351,4.841797 3.91318,0.553435 6.08109,3.115038 5.37109,6.347656 C 229.0495,83.053801 229.24575,84 230.04297,84 c 0.9312,0 0.93244,0.322917 0.01,1.435547 -0.87396,1.053053 -0.90287,1.976318 -0.10937,3.458984 0.97396,1.819863 0.68197,2.129044 -2.92969,3.101563 -2.207,0.594283 -4.01367,1.494168 -4.01367,1.998047 0,0.503879 -1.53031,1.201896 -3.40039,1.552734 -1.87008,0.350829 -4.37877,1.765446 -5.57617,3.142578 -1.40873,1.620177 -2.85841,2.324677 -4.10742,1.998047 -1.13888,-0.29782 -2.44073,0.19696 -3.17383,1.20508 -0.68337,0.93975 -2.64541,2.27851 -4.35938,2.97461 -1.71398,0.69611 -3.71369,2.47299 -4.44531,3.94922 -0.73162,1.47623 -3.20842,4.70859 -5.50391,7.18359 -2.91421,3.1421 -4.528,6.00878 -5.34765,9.5 -1.50916,6.42818 -5.98382,18.31968 -7.16992,19.05273 -0.50329,0.31105 -0.91602,1.90386 -0.91602,3.53907 0,1.6352 -0.60157,4.41961 -1.33789,6.18945 -0.73632,1.76983 -1.15493,3.76487 -0.92969,4.43164 0.22525,0.66678 -0.0263,1.99023 -0.55859,2.94141 -0.83487,1.49188 -2.38965,1.69558 -11.32031,1.48632 -11.81906,-0.27689 -22.11706,-1.7656 -26.05469,-3.76757 -4.29988,-2.18615 -4.83523,-1.72642 -3.24414,2.7832 0.80647,2.28579 1.24206,4.38099 0.96679,4.65625 -0.66156,0.66157 -8.12148,-2.62992 -12.5039,-5.51758 -1.91542,-1.26194 -4.22111,-2.29492 -5.125,-2.29492 -0.90389,0 -4.28664,-1.16875 -7.51758,-2.59766 -6.3268,-2.79807 -15.016758,-4.08761 -17.259766,-2.56054 -1.966832,1.33904 -0.685553,5.54048 2.646485,8.67578 2.536708,2.38692 6.223561,4.44083 10.488281,5.84375 4.0761,1.34087 0.21619,3.92778 -7.75,5.19336 -2.2,0.34952 -5.35,1.02831 -7,1.50976 -1.65,0.48145 -4.617535,1.1214 -6.595703,1.42188 -3.167332,0.48111 -3.741149,1.02577 -4.800781,4.5625 -1.166236,3.89255 -1.094383,4.14346 2.34375,8.16015 1.951017,2.27932 5.707694,5.32587 8.347656,6.76954 l 4.798828,2.625 6.45313,-1.63282 c 3.54898,-0.89774 7.35312,-2.12663 8.45312,-2.73047 1.1,-0.60384 4.25,-2.07684 7,-3.27343 2.75,-1.19659 6.86732,-3.11617 9.14844,-4.26563 3.78319,-1.90636 4.50835,-1.96984 8.26367,-0.73047 3.9035,1.28827 4.08601,1.52469 3.51758,4.55469 -0.49714,2.64996 -0.15137,3.54878 2.03125,5.26563 1.44764,1.13871 4.07426,2.37771 5.83594,2.75195 1.76166,0.37424 3.93384,1.32403 4.82812,2.11133 0.89429,0.78729 3.36929,1.69954 5.5,2.02734 2.13072,0.32781 4.47175,1.06676 5.20117,1.64258 0.92624,0.73118 1.52942,0.72523 2,-0.0215 0.37872,-0.60094 4.39612,-1.1353 9.17383,-1.2207 4.675,-0.0835 10.3,-0.61225 12.5,-1.17383 2.2,-0.56158 5.4284,-1.39021 7.17383,-1.84179 4.32741,-1.1196 8.24946,-4.0872 11.82617,-8.94532 1.65,-2.24114 3.2702,-4.08465 3.60156,-4.09765 0.33136,-0.013 0.90281,3.85992 1.26758,8.60547 0.51868,6.74782 0.36119,8.87275 -0.71875,9.75 -1.79878,1.46116 -7.43378,15.29505 -8.70703,21.37695 -0.5463,2.60947 -1.26488,9.13164 -1.59766,14.49414 -0.52447,8.45146 -0.39652,9.75 0.96485,9.75 2.29883,0 2.49078,-0.66723 3.12109,-10.93164 0.69501,-11.31828 1.73579,-15.3755 6.375,-24.84961 3.86951,-7.90223 5.41819,-9.73121 7.55274,-8.91211 1.14375,0.43891 1.04378,1.54724 -0.57422,6.36328 -1.07735,3.20678 -2.70592,6.66307 -3.61914,7.68164 -1.57366,1.7552 -1.53085,1.83357 0.83593,1.5 2.08621,-0.29402 2.88872,-1.4626 4.86719,-7.10156 2.02831,-5.78104 2.71018,-6.75 4.75,-6.75 2.88245,0 2.89225,0.31214 0.34375,10.94336 -2.8097,11.72073 -3.98076,20.60059 -4.5332,34.38476 -0.43781,10.92383 -0.3381,11.80141 1.29883,11.48633 1.54983,-0.29831 1.80279,-1.72107 2.01757,-11.32812 0.45724,-20.45229 4.99833,-43.62118 8.68946,-44.33203 1.6686,-0.32134 1.76557,0.25348 1.1875,6.99804 -0.34637,4.04124 -0.86973,16.49585 -1.16407,27.67774 -0.47551,18.06428 -0.36135,20.29383 1.02344,20 1.23936,-0.26298 1.66981,-2.37797 2.10352,-10.33008 0.29997,-5.5 0.71165,-12.7 0.91406,-16 0.20241,-3.3 0.39709,-7.39725 0.43359,-9.10547 l 0.0664,-3.10547 6.88672,0.0625 6.88867,0.0625 0.66992,9.04297 c 0.36895,4.97353 1.16383,11.96797 1.76758,15.54297 0.60375,3.575 1.17458,8.075 1.26758,10 0.093,1.925 0.46025,5.525 0.81641,8 0.35615,2.475 0.8963,9 1.19921,14.5 0.30292,5.5 1.00502,11.40157 1.56055,13.11523 0.55557,1.71366 0.90399,4.86366 0.77539,7 -0.1285,2.13634 -0.14351,7.37227 -0.0332,11.63477 0.12975,5.01376 0.60288,7.75 1.33984,7.75 1.50828,0 0.56558,-32.96103 -1.64453,-57.5 -1.4418,-16.00838 -4.25458,-34.30156 -5.91992,-38.5 -0.42843,-1.08011 0.12086,-1.54048 1.96289,-1.64648 2.3445,-0.1349 7.06955,-2.77382 13.46289,-7.51758 7.30782,-5.42228 10.10917,-6.84699 12.35547,-6.28321 2.54309,0.63828 5.64453,6.03088 5.64453,9.81446 0,1.26467 0.22842,2.52725 0.50781,2.80664 0.27939,0.27939 3.04251,-0.7693 6.14063,-2.33203 3.09812,-1.56272 6.16053,-2.8418 6.80468,-2.8418 0.64421,0 3.03382,-0.9 5.31055,-2 2.27674,-1.1 4.55368,-2 5.0586,-2 0.50492,0 3.56272,-0.84874 6.79687,-1.88672 5.22015,-1.67539 8.79649,-3.09321 15.96289,-6.33008 2.27622,-1.02811 4.14151,-6.83522 4.91016,-15.2832 0.25021,-2.75 0.74523,-6.2402 1.09961,-7.75586 0.35437,-1.51566 0.16064,-3.33752 -0.42969,-4.04883 -0.59034,-0.71131 -1.31072,-3.86461 -1.60156,-7.00781 C 334.89112,164.45755 334.02684,161 332.89062,161 332.40026,161 332,159.81929 332,158.37695 c 0,-2.11436 -0.26604,-2.40048 -1.37695,-1.47851 -1.0826,0.89848 -1.49294,0.71102 -1.90821,-0.87696 -0.30351,-1.16065 -0.0352,-2.03523 0.62891,-2.05273 0.63601,-0.0167 0.36875,-0.48822 -0.59375,-1.04883 -0.9625,-0.5606 -1.75,-1.84232 -1.75,-2.84765 0,-1.00532 -0.61741,-2.33936 -1.37109,-2.96485 -0.75367,-0.6255 -1.60903,-2.92645 -1.90235,-5.11328 -0.64073,-4.77702 -7.27781,-15.05105 -15.14648,-23.44922 C 305.51087,115.26918 303,111.83228 303,110.9082 c 0,-0.92409 -1.48621,-2.38604 -3.30273,-3.24804 -1.81653,-0.86199 -4.17903,-2.54055 -5.25,-3.73047 C 293.37629,102.73978 290.25,100.69234 287.5,99.378906 281.35282,96.44293 274,91.234 274,89.816406 c 0,-0.583936 1.12051,-0.834597 2.52344,-0.566406 1.38812,0.265358 2.79605,0.04052 3.1289,-0.498047 0.33285,-0.538563 2.54321,-1.835796 4.91016,-2.882812 3.58637,-1.586422 4.75287,-2.859103 7.00586,-7.636719 C 293.05531,75.079261 294.74033,71.6 295.3125,70.5 c 1.65822,-3.187883 1.70658,-13.554211 0.0664,-14.183594 C 294.62013,56.025223 294,55.115627 294,54.296875 c 0,-0.818753 -0.91256,-2.768424 -2.02734,-4.333984 l -2.02735,-2.847657 4.52344,-2.65039 c 4.46996,-2.619574 4.52024,-2.707844 4.30664,-7.617188 -0.11888,-2.732127 -0.79213,-5.447022 -1.49609,-6.03125 C 296.57535,30.232178 296,29.269176 296,28.675781 296,27.05579 288.0672,19.918684 282.32617,16.373047 274.16748,11.334274 266.73345,9.2791452 253.79297,8.484375 250.91232,8.3074531 248.01878,8.2477845 245.24219,8.2910156 Z m -6.63281,4.8808594 c 0.82668,-0.102499 1.97085,-0.02576 3.53906,0.220703 2.39317,0.376116 7.72656,0.82289 11.85156,0.992188 7.79879,0.320077 14.07338,1.512226 17.5,3.326172 1.1,0.582305 4.475,2.27409 7.5,3.757812 9.76032,4.787308 13.63344,9.369706 12.58398,14.886719 -0.43851,2.305281 -1.64489,3.743541 -4.52343,5.386719 l -3.92774,2.240234 -2.8164,-2.326172 c -3.90714,-3.22784 -12.79162,-7.186295 -19.14258,-8.529297 -6.62265,-1.400456 -17.38302,-1.416386 -22.67383,-0.0332 -2.2,0.575145 -4.95934,1.282074 -6.13086,1.570312 -1.60731,0.39546 -2.49381,-0.174519 -3.61328,-2.320312 C 227.9399,30.779736 226.53921,28.15 225.64258,26.5 c -3.58451,-6.596248 -1.97239,-8.50133 9.1875,-10.859375 0.73148,-0.15456 1.69809,-0.87679 2.14844,-1.605469 0.2951,-0.477492 0.80417,-0.760782 1.63086,-0.863281 z M 247,37 c 0.55,0 1,0.9 1,2 0,1.1 -0.45,2 -1,2 -0.55,0 -1,-0.9 -1,-2 0,-1.1 0.45,-2 1,-2 z m 5.10742,0 C 252.59857,37 253,38.125 253,39.5 c 0,2.471188 -1.35408,3.352335 -2.44336,1.589844 C 249.83388,39.920394 250.94115,37 252.10742,37 Z m 13.21289,0.5 0.86914,3.25 C 267.16434,44.398454 269,45.133321 269,41.875 c 0,-1.846667 0.40931,-2.043137 3.125,-1.5 1.71875,0.34375 3.51875,0.625 4,0.625 1.81989,0 0.76926,1.716129 -1.875,3.0625 C 268.45841,47.011384 264,50.320587 264,51.671875 264,53.013296 267.7139,61 268.33789,61 c 0.164,0 2.67601,-0.705941 5.58008,-1.568359 2.90408,-0.862417 5.45315,-1.394497 5.66601,-1.181641 0.21286,0.212856 -0.25265,3.447564 -1.03515,7.1875 -1.10529,5.282738 -2.29817,7.833771 -5.34766,11.431641 -2.1589,2.547127 -4.53277,4.630859 -5.27539,4.630859 -0.74262,0 -1.7894,-1.575 -2.32617,-3.5 -1.24282,-4.457016 -2.04926,-4.965715 -7.89844,-4.984375 -2.63981,-0.0084 -6.1341,-0.704189 -7.76367,-1.546875 -2.87464,-1.486534 -2.99115,-1.455465 -3.94922,1.064453 -2.01296,5.294483 -0.95726,5.942841 9.11133,5.599609 7.5545,-0.257525 7.65971,-0.225746 8.32422,2.421876 0.37046,1.475059 0.53927,2.762588 0.375,2.861328 -2.00652,1.206058 -5.73184,2.316989 -6.19922,1.849609 C 257.26974,84.935752 257,83.842318 257,82.833984 257,81.655967 256.27232,81 254.96289,81 c -1.62067,0 -1.97892,0.55608 -1.75,2.714844 0.36055,3.400008 -1.1356,3.687976 -7.62109,1.466797 -6.45977,-2.212369 -10.5757,-7.286196 -12.09961,-14.917969 -1.11164,-5.567183 -0.9302,-7.626696 1.51953,-17.263672 0.62915,-2.475 1.13435,-6.626999 1.12305,-9.226562 -0.0113,-2.599568 0.44293,-5.012212 1.00781,-5.361329 0.65372,-0.404038 0.9207,0.82355 0.73633,3.376953 -0.22283,3.086236 0.36888,4.960702 2.56445,8.128907 1.56958,2.264912 3.79934,4.306429 4.95508,4.535156 8.33607,1.64975 8.56831,1.614694 11.52929,-1.699219 l 2.86719,-3.208984 -2.4707,-2.935547 c -1.6149,-1.919199 -2.27805,-3.660516 -1.91211,-5.023437 0.30801,-1.147146 0.61153,-2.535938 0.67383,-3.085938 0.0623,-0.55 0.41817,0.09156 0.79101,1.425781 C 257.82939,43.334064 260,43.791737 260,40.583984 260,39.163151 260.45,38 261,38 c 0.55,0 0.94599,0.3375 0.88086,0.75 -0.0651,0.4125 -0.0651,1.7625 0,3 0.17597,3.343414 1.85208,2.722466 2.69922,-1 z m -36.13867,3.578125 c 0.44035,0.103925 0.58878,1.015569 0.18359,2.671875 -2.13834,8.741108 -2.95954,10.741553 -3.66015,8.919922 -0.77842,-2.023942 -0.13352,-5.967089 1.54101,-9.419922 0.76238,-1.572007 1.4952,-2.2758 1.93555,-2.171875 z m 12.28516,0.382813 c 0.0603,0.02246 0.12596,0.117187 0.19531,0.289062 0.27741,0.6875 0.27741,1.8125 0,2.5 -0.27741,0.6875 -0.50391,0.125 -0.50391,-1.25 0,-1.03125 0.12773,-1.606445 0.3086,-1.539062 z M 232.16602,42 c 1.37491,0 0.94514,6.443247 -0.74219,11.125 -0.86736,2.40665 -1.87986,7.228382 -2.25,10.714844 -0.70219,6.614397 -2.16969,7.451873 -2.17969,1.24414 C 226.98666,60.351665 231.09843,42 232.16602,42 Z m 14.375,2.054688 c 1.6153,-0.06841 3.55737,0.480314 5.55468,1.660156 C 254.91935,47.382815 255.91146,49 254.11133,49 c -0.48889,0 -0.82639,0.769509 -0.75,1.710938 0.0764,0.941425 -0.64883,1.875317 -1.61133,2.074218 -1.37388,0.283913 -1.75,-0.31704 -1.75,-2.798828 0,-3.145702 -0.0195,-3.158379 -4.08984,-2.470703 -3.92854,0.663723 -4.04589,0.60784 -2.96485,-1.412109 0.6924,-1.293758 1.9804,-1.98042 3.59571,-2.048828 z m 34.5332,1.996093 c 0.0409,0.2475 0.25988,1.438651 0.48633,2.648438 0.22645,1.209788 7.6e-4,2.454926 -0.50196,2.765625 -1.37155,0.847664 -2.42736,-3.49646 -1.1582,-4.765625 0.60464,-0.604637 1.13293,-0.895938 1.17383,-0.648438 z m -8.00977,1.5 c 0.7441,0.06764 1.48097,0.416018 2.47657,1.06836 1.35297,0.886501 2.45898,2.234348 2.45898,2.996093 0,1.686729 -0.26523,1.719144 -1.76367,0.220704 -0.63987,-0.639874 -2.75409,-1.102417 -4.69922,-1.029297 -4.14716,0.155908 -4.58531,-1.00722 -0.99609,-2.642579 1.02802,-0.468395 1.77934,-0.680918 2.52343,-0.613281 z m -50.59179,0.251953 c 0.35383,0.03604 0.39675,1.915683 0.44531,6.703125 0.0447,4.403631 0.52385,9.548653 1.06445,11.433594 1.34853,4.702057 0.66793,4.873164 -1.27539,0.320313 -2.36645,-5.544161 -2.94816,-13.187924 -1.27539,-16.759766 0.50405,-1.076286 0.82871,-1.71889 1.04102,-1.697266 z M 284.11719,53 c 0.48585,0 0.86269,0.7875 0.83789,1.75 -0.0248,0.9625 -0.66439,3.1 -1.41992,4.75 -1.34274,2.93247 -1.37346,2.943725 -1.43946,0.5 -0.092,-3.403125 0.94662,-7 2.02149,-7 z m -9.43946,1.181641 c 0.49065,-0.01826 0.90053,0.06266 1.11915,0.28125 0.35511,0.355123 -0.0171,1.064498 -0.82618,1.576171 -1.90294,1.203463 -3.9707,1.219172 -3.9707,0.0293 0,-0.875103 2.20579,-1.831928 3.67773,-1.886718 z m 12.1543,6.683593 c 0.10043,0.07788 0.14914,0.290807 0.15039,0.634766 0.004,1.1 -1.09869,3.35 -2.45117,5 -3.16676,3.863423 -3.18319,2.844786 -0.043,-2.648438 1.28364,-2.245406 2.04246,-3.219973 2.34375,-2.986328 z m -33.36719,1.228516 c -0.80177,-0.08227 -1.54019,0.570635 -1.98828,1.982422 -0.36229,1.141448 -0.50607,2.18915 -0.31836,2.330078 0.18772,0.140929 1.45458,1.008158 2.81446,1.925781 C 258.29404,71.248032 267,69.986868 267,66.445312 c 0,-1.054535 -0.72333,-1.333718 -2.5,-0.964843 -1.375,0.285479 -3.63042,0.753955 -5.01172,1.041015 -1.98168,0.41183 -2.75348,-0.01005 -3.66016,-2 -0.69676,-1.529264 -1.5615,-2.345462 -2.36328,-2.427734 z M 286.25,69.005859 c 1.70797,-0.01229 0.51001,2.298773 -3.37695,6.515625 C 279.30216,79.395441 276,81.272215 276,79.427734 c 0,-0.867251 9.39106,-10.415675 10.25,-10.421875 z M 289.05664,71.5 287.88672,75 c -1.38353,4.138827 -3.62362,6.941295 -6.38672,7.988281 -4.09812,1.552848 -8.04555,1.978458 -9.5,1.025391 -1.21358,-0.79523 -1.06355,-0.985657 0.78906,-0.998047 3.62733,-0.02426 9.74075,-3.62267 13.14258,-7.736328 z M 236.10938,84.089844 C 236.91386,83.964571 238.21195,84.601367 240,86 c 3.14145,2.457278 14.67421,2.731867 21,0.5 6.07503,-2.143395 7.75,-1.954688 7.75,0.875 0,2.111572 -0.56944,2.444815 -5.125,2.992188 -6.07241,0.72963 -18.50038,0.595308 -24.125,-0.259766 -3.43972,-0.522919 -4.04431,-0.992614 -4.31641,-3.357422 -0.18957,-1.647543 0.1213,-2.534884 0.92579,-2.660156 z m -0.36133,8.097656 c 0.2336,0.03185 0.53448,0.132391 0.91406,0.289062 1.0109,0.41726 2.96289,0.930113 4.33789,1.138672 2.50648,0.380177 21.33577,0.435354 25.96875,0.07617 1.56838,-0.12159 2.5879,0.392929 2.79492,1.410156 0.26383,1.29633 -0.96788,1.722703 -6.46875,2.242188 -8.50832,0.803498 -21.99279,0.678751 -25.29492,-0.234375 -1.59625,-0.441403 -2.62208,-1.540695 -2.83789,-3.041016 -0.2094,-1.455792 -0.11489,-1.976424 0.58594,-1.880859 z m -4.17188,3.957031 c 1.02236,-0.197044 1.64297,0.264561 2.0586,1.347657 0.82337,2.145685 8.88142,4.156722 15.86523,3.958982 8.89991,-0.25198 18.59173,-1.41152 22.07422,-2.640623 2.50641,-0.88461 3.56251,-0.767081 5.71094,0.640625 1.44975,0.949908 2.91555,2.475368 3.25586,3.388668 0.83373,2.23747 12.18461,11.42398 16.09179,13.02344 1.72299,0.70533 4.63621,3.3865 6.47461,5.95899 1.83841,2.57249 4.08007,5.35273 4.98047,6.17773 0.9004,0.825 2.22249,3.075 2.9375,5 0.71502,1.925 2.64263,6.425 4.2832,10 7.21801,15.72886 8.69141,19.29754 8.69141,21.03516 0,1.01627 0.41588,2.10407 0.92383,2.41796 0.87369,0.53999 4.22257,9.31751 4.78711,12.54688 1.45869,8.34423 1.41925,12.37169 -0.16406,16.51758 -0.94142,2.46507 -2.11016,4.48242 -2.59571,4.48242 -0.48555,0 -2.25744,1.34402 -3.9375,2.98633 -1.68005,1.6423 -4.28179,3.25441 -5.7832,3.58398 -2.58111,0.56657 -7.64927,2.36061 -13.23047,4.68164 -1.375,0.57181 -5.425,2.09618 -9,3.38867 -3.575,1.29251 -6.52544,2.35347 -6.55664,2.35547 -0.0312,0.002 -1.58037,-3.14706 -3.44336,-6.99804 -1.90374,-3.93524 -5.73306,-9.46231 -8.74219,-12.61914 -7.14089,-7.49138 -6.44103,-7.99179 3.97071,-2.84571 3.83721,1.89656 4.24438,0.29405 0.77148,-3.0332 -3.83747,-3.67653 -2.90001,-4.93726 1.83594,-2.46875 2.79419,1.45642 4.84224,3.86084 7.96289,9.3457 2.31065,4.0612 4.20117,7.88797 4.20117,8.50391 0,1.40009 2.66144,1.47543 3.51172,0.0996 2.02348,-3.27406 -6.7494,-16.59344 -12.49805,-18.97461 C 284.35655,187.31949 283,186.39872 283,185.96094 c 0,-0.43779 2.08864,-1.59375 4.64062,-2.56836 4.9702,-1.89813 14.80247,-2.41692 20.10938,-1.0625 5.08269,1.29718 3.931,-0.91043 -1.42773,-2.73633 -2.57298,-0.8767 -5.49798,-1.59375 -6.5,-1.59375 -2.19531,0 -2.35627,-1.31277 -0.36329,-2.9668 1.77116,-1.46993 6.72919,-0.5934 11.20704,1.98047 3.01318,1.73197 4.33398,1.67364 4.33398,-0.1914 0,-0.46431 -2.42219,-2.03235 -5.38281,-3.48438 l -5.38281,-2.64062 -4.76954,2.66601 c -2.62302,1.46603 -4.99256,2.44299 -5.26562,2.16992 -0.70316,-0.70316 4.77731,-8.40461 7.17773,-10.08593 2.5248,-1.76848 1.9127,-2.42252 -1.6289,-1.74219 -2.01846,0.38775 -3.45826,1.82941 -5.40821,5.41211 -1.46177,2.68576 -3.03545,4.88281 -3.49804,4.88281 -0.80987,0 -1.09058,-6.33465 -1.04688,-23.64258 0.0113,-4.47858 0.54791,-9.12991 1.19336,-10.33594 1.50734,-2.81649 1.15842,-3.08076 -3.14258,-2.38281 l -3.55078,0.57422 0.35352,8.91602 c 0.19418,4.90321 0.77729,10.81707 1.29492,13.14257 0.51763,2.3255 1.24104,7.60352 1.60937,11.72852 l 0.66993,7.5 -2.86133,1.23438 c -1.57382,0.67903 -4.88633,2.5114 -7.36133,4.07031 -4.37222,2.75392 -10.99653,5.53275 -11.64453,4.88476 -0.17625,-0.17625 0.0938,-1.64213 0.59961,-3.25586 0.50585,-1.61373 1.40423,-5.85859 1.99609,-9.43359 0.59185,-3.575 1.76344,-10.1 2.60352,-14.5 1.48478,-7.7767 1.86982,-16.00591 0.82812,-17.69141 -0.28243,-0.45698 -1.45786,-0.16925 -2.61133,0.63868 -1.87271,1.31169 -2.11932,2.5718 -2.30078,11.76171 -0.13219,6.69435 -0.94792,13.14501 -2.33593,18.45704 -1.17364,4.49164 -2.13477,9.54533 -2.13477,11.22851 0,2.08953 -0.71375,3.5067 -2.25,4.46875 -3.04854,1.90909 -15.73886,5.98186 -16.44336,5.27734 -0.31079,-0.31075 0.21048,-5.29243 1.1582,-11.07031 1.83989,-11.21723 1.79879,-12.98032 -0.27539,-11.6914 -0.72088,0.44796 -1.7587,4.04988 -2.30664,8.0039 -0.54795,3.95403 -1.57968,8.85947 -2.29101,10.90235 -0.71134,2.04289 -1.11918,4.2095 -0.90821,4.81445 0.21098,0.60496 -0.21258,1.59436 -0.9414,2.19922 -0.99033,0.8219 -3.92307,0.22851 -11.60742,-2.34961 C 221.47964,195.5519 216.23015,194 215.4707,194 c -0.82478,0 -1.61687,-1.51004 -1.96679,-3.75 -0.3222,-2.0625 -0.99338,-5.325 -1.49219,-7.25 -0.49881,-1.925 -1.43165,-8.43817 -2.07227,-14.47266 -1.19617,-11.26755 -2.18417,-13.42329 -6.18945,-13.49609 -2.29063,-0.0416 -2.23776,2.59004 0.14258,7.03125 1.16731,2.17793 2.16017,6.77311 2.58789,11.98438 l 0.69336,8.45312 -3.08594,2.9375 C 202.38998,187.0529 201,188.78373 201,189.28516 c 0,1.84404 -6.36178,6.81133 -8.41016,6.5664 -1.14954,-0.13745 -3.10516,0.30573 -4.3457,0.98633 -5.7717,3.16652 -24.43559,1.77034 -40.48242,-3.0293 l -3.73633,-1.11718 0.0684,-7.09571 c 0.0378,-3.90247 -0.65414,-9.74751 -1.53711,-12.98828 -0.88297,-3.24077 -1.46339,-6.03271 -1.29102,-6.20508 0.17241,-0.17237 2.18052,0.32889 4.4629,1.11524 3.01166,1.03765 7.17603,1.302 15.1875,0.96289 l 11.03906,-0.4668 1.57617,3.04688 c 0.86662,1.67587 1.8349,5.2397 2.15234,7.91992 l 0.57813,4.87305 -3.38086,0.32421 c -2.53125,0.24192 -3.38086,0.7953 -3.38086,2.20704 0,1.04172 1.00552,2.2591 2.24805,2.71875 1.78653,0.66088 2.86593,0.22894 5.25,-2.10157 3.41373,-3.33702 3.79516,-6.50462 1.54687,-12.87695 -1.68662,-4.7804 -0.57732,-5.38316 2.34766,-1.27539 2.5559,3.58943 4.11042,10.35019 3.39453,14.76172 -0.65732,4.05056 0.79531,4.43908 3.15234,0.84179 2.96661,-4.5276 0.74409,-13.03962 -5.08398,-19.46874 l -2.28125,-2.51758 2.96289,-5.875 c 1.62977,-3.23103 2.96289,-6.694 2.96289,-7.69727 0,-1.00328 0.61619,-3.75265 1.36914,-6.10937 0.75295,-2.35672 2.14031,-6.98516 3.08203,-10.28516 3.15247,-11.04691 5.7312,-16.41871 9.94922,-20.72461 4.96216,-5.06553 9.66658,-8.74302 11.20899,-8.76172 1.76678,-0.0214 11.5838,-5.25528 15.5,-8.26367 2.02133,-1.55278 3.44443,-2.408424 4.46679,-2.605469 z m 7.7168,13.507809 c -0.46954,0.0263 -1.03724,0.18543 -1.69336,0.48438 -2.06827,0.94237 -2.38253,1.91353 -2.82422,8.71094 -0.39347,6.05548 -0.28305,67.90296 0.12305,68.90234 0.0559,0.1375 0.8348,0.25 1.73047,0.25 1.41103,0 1.56424,-1.09556 1.15234,-8.21094 -0.26146,-4.51656 -0.11062,-9.80406 0.33594,-11.75 0.44655,-1.94595 1.07436,-14.78906 1.39453,-28.53906 0.32017,-13.75 0.81504,-25.78265 1.09961,-26.74023 0.61645,-2.07435 0.0903,-3.18617 -1.31836,-3.10743 z m 27.91601,8.88868 c -0.14124,0.0171 -0.2209,0.0769 -0.22265,0.18359 -0.007,0.42662 -0.20719,4.48789 -0.44336,9.02539 -0.45353,8.71345 0.377,10.37571 2.49609,5 0.70463,-1.7875 2.39334,-4.76225 3.75391,-6.60938 2.67591,-3.63285 2.69196,-3.59773 -3.04297,-6.70312 -1.13437,-0.61425 -2.11727,-0.94778 -2.54102,-0.89648 z m -48.23828,22.1289 c -1.45277,0.28948 -1.6772,2.15298 -2.37304,9.18946 -0.46301,4.6819 -0.0834,8.13613 1.96679,17.89062 0.2601,1.2375 1.17499,2.25 2.03321,2.25 1.26393,0 1.40428,-0.61749 0.73242,-3.25 -1.16905,-4.58059 -0.52836,-16.93629 1.12109,-21.61133 l 1.38867,-3.93555 -2.94336,-0.43164 c -0.82031,-0.12039 -1.44152,-0.19805 -1.92578,-0.10156 z M 107,161.71289 c 5.52312,2.35549 17.87943,6.30165 19.86523,6.34375 1.44964,0.0307 4.65977,0.8758 7.13477,1.87891 4.46962,1.81152 4.50154,1.8586 4.73633,7.05664 0.22567,4.99623 0.13505,5.20282 -2,4.55664 -1.23002,-0.37227 -4.17226,-0.9333 -6.53906,-1.24805 -3.6907,-0.49081 -4.68715,-0.2064 -7,2 -2.84485,2.71392 -13.62757,7.9469 -21.19727,10.28711 -5.334228,1.6491 -8,1.78594 -8,0.41211 0,-0.55 1.153912,-1 2.564453,-1 2.471542,0 12.004977,-3.51539 13.818357,-5.0957 0.48553,-0.42313 0.62825,-1.43073 0.31836,-2.23828 -0.47763,-1.24469 -1.52378,-1.12008 -6.88086,0.8125 -14.52344,5.23939 -18.194445,3.80173 -4.154294,-1.62696 10.655564,-4.12003 12.476944,-6.7163 2.294924,-3.27148 C 93.899924,183.30731 88,183.75436 88,181.63672 c 0,-0.85671 1.657529,-1.59289 4.457031,-1.97656 6.310322,-0.86493 16.726079,-4.52852 18.060549,-6.35352 1.00564,-1.37532 1.44182,-1.38112 4.05469,-0.0449 4.73596,2.42182 8.75588,2.95052 10.84375,1.42383 1.72712,-1.2629 1.50006,-1.4697 -2.84766,-2.56446 -2.59979,-0.65464 -5.75866,-2.30356 -7.01953,-3.66406 -1.26086,-1.36049 -3.90791,-3.03179 -5.88086,-3.71484 -1.97294,-0.68305 -3.49208,-1.69219 -3.37695,-2.24219 0.11514,-0.55 0.43398,-0.90439 0.70898,-0.78711 z m 121.37109,10.63672 c -0.12196,-0.10105 -0.2666,0.0686 -0.43554,0.49023 -1.1995,2.99337 -2.4096,18.48177 -1.60743,20.57227 0.3352,0.8734 1.34695,1.58789 2.24805,1.58789 1.08309,0 1.43253,-0.5363 1.03125,-1.58203 -0.33385,-0.86998 -0.63502,-6.38248 -0.66992,-12.25 -0.0343,-5.76636 -0.20053,-8.51521 -0.56641,-8.81836 z m -80.80468,1.08203 c -0.1983,-0.0619 -0.40024,-0.0328 -0.60547,0.0937 -1.01858,0.62952 -0.96891,1.83277 0.57422,13.75977 1.0651,8.23226 3.01649,6.87834 2.76953,-1.92188 -0.1861,-6.63136 -1.3502,-11.49821 -2.73828,-11.93164 z m 72.59961,2.9082 c -0.18887,0.0378 -0.45401,0.23568 -0.8125,0.46485 -0.59851,0.3826 -1.40896,3.73281 -1.80079,7.44531 -0.5899,5.58913 -0.46059,6.75 0.75391,6.75 1.11277,0 1.5768,-1.74967 1.91797,-7.25 0.38468,-6.20174 0.50803,-7.52365 -0.0586,-7.41016 z m 94.08398,7.47852 c -0.29732,0.019 -0.54246,0.11107 -0.71484,0.29102 -0.72322,0.75488 -0.29921,1.5802 1.4082,2.73632 1.344,0.91006 2.919,2.20061 3.5,2.86719 1.52098,1.74503 2.55896,1.55524 2.53906,-0.46289 -0.0208,-2.10669 -4.65121,-5.56461 -6.73242,-5.43164 z m -150.19727,8.31641 c -0.28357,-0.036 -0.53967,0.0201 -0.71875,0.19921 -0.29348,0.29349 -0.23753,1.01302 0.125,1.59961 0.81471,1.31822 2.54102,1.40297 2.54102,0.125 0,-0.88489 -1.09653,-1.81573 -1.94727,-1.92382 z m 104.32618,2.68359 c 2.23314,0.0911 6.62109,3.97129 6.62109,5.85547 0,0.72913 0.41702,1.32617 0.92773,1.32617 1.20265,0 4.07227,2.86962 4.07227,4.07227 0,0.51071 -1.8,0.92773 -4,0.92773 -4.13968,0 -4.76402,0.42406 -10.66211,7.22461 C 262.25968,217.77383 254,222.86745 254,221.2168 c 0,-0.45329 1.575,-2.35102 3.5,-4.2168 3.0176,-2.92438 4.56644,-6 3.02148,-6 -0.26368,0 -2.37891,2.05894 -4.69921,4.57617 -2.3203,2.51722 -5.457,5.21722 -6.97071,6 -5.51615,2.85251 -5.21254,1.29016 0.92383,-4.75195 4.54564,-4.47582 5.92138,-6.40962 4.99805,-7.02149 -0.86678,-0.57441 -2.712,0.71302 -5.77344,4.02735 -4.8921,5.29623 -9.69541,8.80848 -10.68945,7.81445 -0.34488,-0.34488 1.69421,-2.98518 4.53125,-5.86719 5.7451,-5.83616 6.39466,-7.77734 2.60156,-7.77734 -1.40645,0 -4.44395,-0.42 -6.75,-0.93359 -2.30605,-0.5136 -7.68421,-1.47761 -11.95117,-2.14258 C 218.7742,203.68209 214,200.92069 214,197.55273 c 0,-1.32219 0.75326,-1.24519 5.25,0.54493 2.8875,1.1495 6.825,2.43633 8.75,2.85937 1.925,0.42303 6.2,1.45906 9.5,2.30274 11.68535,2.9875 15.5,2.82058 15.5,-0.67969 0,-0.1409 -1.63778,-0.31728 -3.64062,-0.39258 -6.92728,-0.26042 -5.93452,-1.84978 2.33593,-3.73633 3.19218,-0.72816 7.82969,-1.86175 10.30469,-2.51758 2.475,-0.65583 5.34502,-1.15743 6.37891,-1.11523 z M 164.2793,206.37891 c -0.10514,0.10514 -0.17716,0.45463 -0.20118,1.03711 -0.0434,1.05416 0.1931,1.64479 0.5254,1.3125 0.33225,-0.3323 0.36885,-1.19415 0.0801,-1.91602 -0.15961,-0.39887 -0.29916,-0.53873 -0.40429,-0.43359 z m 72.96484,4.04101 c 0.56489,0.0235 1.2584,0.15393 2.09961,0.37891 l 2.67187,0.71484 -2.54492,3.74414 C 238.07183,217.31643 236.76664,219 236.57031,219 235.89868,219 235,215.83774 235,213.47656 c 0,-2.23084 0.54948,-3.12724 2.24414,-3.05664 z m 69.77344,6.89063 c -0.36049,-0.30151 -0.61123,0.0507 -0.79688,0.93554 -0.58866,2.80592 2.57952,19.99591 6.83594,37.0918 2.16871,8.71064 3.94336,16.82146 3.94336,18.02344 0,2.61295 4.60262,21.29373 5.94727,24.13867 0.51991,1.1 1.69055,5.375 2.60156,9.5 0.91101,4.125 2.10597,8.99206 2.65429,10.81641 0.54834,1.82435 0.83881,3.42204 0.64649,3.54882 -3.90785,2.57626 -11.24153,3.42857 -12.46484,1.44922 -0.40297,-0.65204 -0.61859,-3.62567 -0.48047,-6.60742 0.17015,-3.673 -0.0962,-5.20505 -0.82618,-4.75391 -0.5926,0.36627 -1.08379,2.10043 -1.09179,3.85547 -0.0322,7.52966 -1.76097,8.93216 -11.44141,9.27344 -3.15252,0.11114 -7.25429,-0.69032 -11.27344,-2.20312 -7.26936,-2.73619 -12.07175,-3.06376 -12.91015,-0.87891 -0.31659,0.825 -1.02902,1.5 -1.58399,1.5 -0.55497,0 -3.22741,1.62832 -5.93945,3.61914 -4.72705,3.46997 -6.97321,3.9869 -5.20312,1.19727 0.45948,-0.72409 0.7015,-15.49141 0.53711,-32.81641 -0.2365,-24.92465 0.0102,-32.96119 1.18359,-38.5 2.47774,-11.69569 2.40586,-19.80792 -0.13086,-14.83594 -2.63912,5.17267 -3.72132,21.62395 -3.60156,54.70117 l 0.12304,33.86329 -4.12304,-0.73438 c -2.26744,-0.40419 -9.07305,-0.87492 -15.12305,-1.04687 -6.05,-0.17195 -13.925,-0.57989 -17.5,-0.90625 -3.68335,-0.33624 -8.66665,-0.0915 -11.5,0.56445 -2.75,0.63662 -8.91566,1.29578 -13.70117,1.46484 -4.78552,0.16907 -9.66185,0.82086 -10.83594,1.44922 -2.91702,1.56114 -3.56784,0.54383 -2.1543,-3.36523 1.61468,-4.46532 1.57979,-4.55922 -1.55859,-4.22461 -1.53894,0.16407 -2.75,0.90456 -2.75,1.68164 0,0.76372 -0.5625,1.74767 -1.25,2.1875 -1.52744,0.97718 -1.65426,5.33401 -0.18164,6.24414 0.58777,0.36326 4.97527,0.84795 9.75,1.07812 4.77473,0.23017 10.48164,0.55378 12.68164,0.71875 2.87916,0.21589 4.84063,-0.31429 7,-1.89062 2.11123,-1.5412 5.10146,-2.37273 10.0918,-2.81055 3.90011,-0.34222 7.36103,-0.35179 7.6914,-0.0215 0.33037,0.33037 6.3637,0.53563 13.40821,0.45703 11.09255,-0.12376 13.33872,0.12869 16.76953,1.89062 2.17879,1.11894 4.29589,2.03516 4.70312,2.03516 0.40724,0 2.33985,-1.64709 4.29492,-3.66016 1.95507,-2.01307 3.72003,-3.47557 3.92383,-3.25 1.41496,1.56613 4.53328,9.24953 5.44141,13.41016 1.4233,6.52095 3.34391,18.88802 3.11719,20.07227 -0.21632,1.12989 -0.47478,0.22357 2.9375,10.30859 2.67465,7.90499 2.73116,8.40802 0.99023,8.86328 -2.2867,0.59798 -1.43878,2.25586 1.1543,2.25586 2.03093,0 3.97656,2.74231 3.97656,5.60547 0,0.95535 0.63237,2.44809 1.40625,3.31641 0.77388,0.86831 1.56138,2.70312 1.75,4.07812 0.32679,2.3822 0.11993,2.49216 -4.40625,2.33789 -2.6125,-0.0891 -4.75,0.22577 -4.75,0.69922 0,0.47344 2.5875,1.65913 5.75,2.63477 3.1625,0.97561 6.06271,2.22242 6.44531,2.77148 0.38259,0.54905 0.99062,0.70274 1.35157,0.3418 0.85538,-0.85538 -2.16573,-10.16852 -4.97071,-15.32227 -1.20828,-2.22005 -2.8013,-6.27005 -3.54101,-9 -0.73971,-2.72995 -1.72771,-5.46232 -2.19532,-6.07227 -1.92706,-2.51348 -3.82579,-11.36004 -3.9414,-18.36328 -0.14968,-9.0664 -1.87228,-16.05252 -5.94922,-24.1289 -2.92575,-5.79587 -2.98696,-6.15294 -1.26172,-7.46094 2.47177,-1.87398 8.37108,-1.78558 11.16016,0.16797 1.26126,0.88342 4.17402,1.70497 6.47265,1.82422 12.51406,0.64924 11.15779,-0.0299 11.36719,5.68164 0.10276,2.80269 0.84789,7.18668 1.65625,9.74219 5.01914,15.86739 4.97494,15.5805 4.19531,27.34179 -0.41211,6.21704 -0.73073,12.87969 -0.70703,14.80469 0.037,3.01094 1.79593,24.93666 2.07031,25.80859 0.0535,0.16996 0.61195,-0.008 1.24024,-0.39648 1.60422,-0.99147 0.41868,-21.44662 -1.30469,-22.51172 -0.98661,-0.60976 -0.83591,-2.34294 0.70313,-8.08789 1.29329,-4.8276 1.9432,-10.39702 1.9121,-16.39062 -0.0459,-8.84905 -1.07034,-13.4558 -6.91601,-31.09376 l -1.38281,-4.16992 6.67382,-0.42578 c 3.67006,-0.2336 9.48438,-1.02195 12.92188,-1.7539 7.0188,-1.49452 7.13864,-1.73503 4.76172,-9.57032 -0.81904,-2.69991 -1.494,-6.28148 -1.5,-7.95898 -0.006,-1.6775 -0.54673,-3.58384 -1.20117,-4.23828 -0.65443,-0.65443 -1.28003,-1.7581 -1.39063,-2.45117 -0.1106,-0.69306 -0.98263,-4.18477 -1.9375,-7.75977 -0.95487,-3.575 -1.89427,-7.85 -2.08789,-9.5 -0.43607,-3.71604 -7.26324,-36.00376 -8.98633,-42.5 -4.24164,-15.9914 -6.30914,-22.78494 -7.39062,-23.68945 z m -42.00196,2.88867 c -0.44675,-0.1296 -1.06298,0.17678 -1.97851,0.75586 -1.24221,0.7857 -1.27986,1.80884 -0.25,6.79492 0.66683,3.22844 1.21289,6.85615 1.21289,8.06055 0,1.55386 0.60633,2.18945 2.08789,2.18945 1.84312,0 2.02319,-0.43964 1.54102,-3.75 -0.30042,-2.0625 -0.8321,-6.1125 -1.18164,-9 -0.41228,-3.40577 -0.687,-4.83478 -1.43165,-5.05078 z m 30.61915,18.32617 c -0.43748,-0.0236 -0.9035,0.0387 -1.36915,0.20117 -0.92676,0.32345 -0.81154,1.22178 0.4629,3.60156 2.47504,4.62167 4.15606,9.62071 4.76562,14.17188 0.75043,5.60294 2.64264,12.77473 3.74805,14.20703 0.51206,0.6634 0.69907,1.58106 0.41601,2.03906 -0.28306,0.45801 0.31645,3.96438 1.33399,7.79297 1.22287,4.60118 2.0269,12.04614 2.37109,21.96094 0.2864,8.25 0.55355,15.225 0.59375,15.5 0.0402,0.275 0.4502,-0.093 0.91016,-0.81836 0.45996,-0.7254 0.7528,-7.9254 0.65039,-16 -0.15505,-12.22564 -0.71557,-17.15526 -3.35156,-29.47461 C 304.42505,263.57053 303,255.79312 303,254.42383 c 0,-1.36929 -1.125,-4.7104 -2.5,-7.42383 -1.375,-2.71343 -2.5,-5.57494 -2.5,-6.35938 0,-1.20348 -1.05281,-2.04427 -2.36523,-2.11523 z m -134.36524,21.58594 c -0.0843,0.0843 0.0236,0.46904 0.29492,1.18164 0.37553,0.98622 0.9343,1.54226 1.24219,1.23437 0.30789,-0.30789 0.002,-1.11658 -0.68164,-1.79492 -0.49381,-0.49013 -0.77114,-0.70542 -0.85547,-0.62109 z M 204.05859,271 C 203.47613,271 203,271.45 203,272 c 0,0.55 0.19887,1 0.44141,1 0.24254,0 0.71867,-0.45 1.05859,-1 0.33992,-0.55 0.14105,-1 -0.44141,-1 z m -3.22265,4 c -1.31505,0 -3.41613,0.71947 -4.66992,1.59766 -1.95343,1.36824 -2.25895,2.40559 -2.13086,7.25 0.0822,3.10931 -0.38442,8.57734 -1.03711,12.15234 -0.65269,3.575 -1.26654,8.0895 -1.36524,10.0332 -0.0987,1.9437 -1.18183,5.23337 -2.40625,7.3086 -2.31181,3.91822 -2.96861,7.23577 -1.21875,6.15429 0.55389,-0.34231 1.27551,0.0815 1.60547,0.94141 1.01352,2.64119 2.07516,1.76653 3.8711,-3.1875 2.77028,-7.64193 3.05403,-12.1145 0.87695,-13.86133 -1.78257,-1.43028 -1.77261,-1.46732 0.26953,-0.91015 2.58818,0.70616 2.83605,0.14908 5.5332,-12.47852 3.42354,-16.02844 3.37697,-15 0.67188,-15 z M 39.167969,287.08789 c -0.361662,0.0755 -0.549461,0.1066 -0.953125,0.19141 -0.01018,0.0483 -0.03161,0.0945 -0.04297,0.14258 0.504755,-0.0151 1.011266,-0.0262 1.515625,-0.041 -0.10336,-0.12839 -0.254961,-0.24477 -0.519531,-0.29297 z m 274.753911,9.46094 c -0.8049,0.49744 -0.25279,9.49459 0.76367,12.45117 0.40294,1.17205 0.68947,1.05164 1.31054,-0.55273 0.92656,-2.39353 -0.86123,-12.64811 -2.07421,-11.89844 z M 233.5,333 c -0.97493,0 -1.49252,0.96262 -1.47852,2.75 0.0468,5.96159 2.81042,20.00388 4.8379,24.58203 1.17715,2.65809 2.14062,5.68651 2.14062,6.72852 0,1.82359 5.23163,12.43531 7.09375,14.38867 0.49809,0.5225 0.90625,1.831 0.90625,2.90625 0,1.88897 -0.0676,1.89405 -1.99219,0.15234 -1.3401,-1.21278 -4.53029,-2.05693 -9.75,-2.57812 -4.26699,-0.42607 -11.58281,-1.25754 -16.25781,-1.84766 -4.675,-0.59011 -13.45,-1.05811 -19.5,-1.04101 -12.91891,0.0366 -36.49564,-0.8476 -41.5,-1.55664 -11.60501,-1.64423 -18.77777,-1.88946 -49,-1.67383 -18.425,0.13146 -35.75,0.3921 -38.5,0.58007 -2.75,0.18798 -10.4,0.64915 -17,1.0254 -18.627936,1.06191 -18.5,1.027 -18.5,5.23828 0,3.34365 0.161676,3.52254 2.617188,2.90625 1.439165,-0.36121 4.026665,-0.92218 5.75,-1.2461 1.723334,-0.32391 3.807812,-1.16292 4.632812,-1.86328 1.233752,-1.04736 11.86792,-2.46041 25,-3.32226 1.375,-0.0902 16.225,-0.38116 33,-0.64844 25.94893,-0.41346 30.66024,-0.26903 31.57617,0.9707 0.78884,1.0677 3.19427,1.44844 9,1.42774 4.35789,-0.0155 17.59883,0.2532 29.42383,0.5957 11.825,0.34251 22.175,0.61352 23,0.60351 13.59193,-0.16543 49.90475,4.41561 50.58203,6.38086 0.19737,0.57271 0.81057,2.27852 1.36328,3.79102 0.5527,1.5125 1.69069,2.75 2.5293,2.75 2.17722,0 1.89234,-1.41119 -0.97461,-4.81836 -1.375,-1.6341 -2.5,-3.56325 -2.5,-4.28711 0,-0.72386 -1.34606,-4.03372 -2.99023,-7.35547 -5.26223,-10.63137 -8.02663,-18.77657 -10.02735,-29.53906 -1.07356,-5.775 -1.95879,-11.7375 -1.9668,-13.25 -0.01,-1.77103 -0.5496,-2.75 -1.51562,-2.75 z m 61.80273,0.41992 c -0.18261,0.007 -0.42814,0.0743 -0.73828,0.19336 -0.86096,0.33038 -1.56445,0.97107 -1.56445,1.42383 0,0.45277 -1.46027,0.40419 -3.24414,-0.10742 C 285.84944,333.80935 286,333.8155 286,334.76758 c 0,0.42261 1.2375,1.53686 2.75,2.47461 1.5125,0.93776 2.975,1.71079 3.25,1.71679 1.23797,0.028 2.78804,-1.64695 3.42969,-3.70312 0.41615,-1.33357 0.42089,-1.85752 -0.12696,-1.83594 z m -45.15625,0.85156 c -0.15322,0.19506 -0.0611,1.04903 0.14844,2.72852 0.24016,1.925 0.23546,4.0625 -0.0117,4.75 -0.67803,1.88537 -4.14743,1.5014 -7.04687,-0.7793 -1.73978,-1.36851 -2.90912,-1.6983 -3.5918,-1.01562 -1.19186,1.19186 -1.36228,1.01918 4.33789,4.35547 3.90904,2.28794 4.74093,2.45396 6.5,1.29297 2.60697,-1.72061 3.16617,-7.41116 0.99219,-10.10352 -0.77493,-0.95971 -1.1749,-1.42357 -1.32813,-1.22852 z m 11.42774,1.22852 -0.36914,4 c -0.24095,2.60605 0.31997,5.39395 1.60937,8 1.0885,2.2 3.0156,6.475 4.28321,9.5 1.26761,3.025 2.91176,6.23542 3.65429,7.13477 1.21537,1.47206 1.79898,3.9615 2.13477,9.11523 0.0627,0.9625 0.39614,1.75 0.74219,1.75 0.346,0 0.31856,-2.8125 -0.0606,-6.25 -0.47102,-4.27263 -2.20961,-9.57199 -5.49805,-16.75 -2.64569,-5.775 -5.19076,-11.85 -5.65429,-13.5 z m 12.55469,40.5 c -1.29844,0 -2.67285,8.98463 -2.28711,14.94922 0.11588,1.79187 0.45562,2.15375 1.26562,1.34375 1.45,-1.45 2.38056,-16.29297 1.02149,-16.29297 z m 58.44336,3.35938 c -3.23009,0.005 -5.96361,0.0915 -7.69922,0.27539 -5.55729,0.58868 -8.81682,1.75542 -7.78516,2.78711 0.29165,0.29162 9.72827,0.68998 20.9707,0.88671 24.5257,0.42918 42.42488,2.73514 52.44141,6.75391 3.10854,1.24719 6.14558,1.0705 7.39062,-0.42969 0.92962,-1.12012 -0.54071,-1.75774 -8.1289,-3.52929 -5.09424,-1.18931 -12.41172,-2.6226 -16.26172,-3.18555 -3.85,-0.56294 -9.25,-1.43644 -12,-1.93945 -5.08008,-0.92919 -19.23747,-1.63477 -28.92773,-1.61914 z M 279.94141,381 C 279.42387,381 279,381.45 279,382 c 0,0.55 0.70113,1 1.55859,1 0.85748,0 1.28133,-0.45 0.94141,-1 -0.33992,-0.55 -1.04105,-1 -1.55859,-1 z m -2.53907,5.48242 c -1.48715,0.13093 -1.87083,0.71706 -0.94726,1.64063 0.82391,0.82392 13.54492,0.54138 13.54492,-0.30078 0,-0.4524 -1.6875,-0.87133 -3.75,-0.93165 -2.0625,-0.0603 -5.2125,-0.23246 -7,-0.38281 -0.73368,-0.0617 -1.35194,-0.069 -1.84766,-0.0254 z M 341,388.88672 c -11.825,-0.10233 -21.3875,0.10779 -21.25,0.46484 0.1375,0.35705 0.25,1.0932 0.25,1.63672 0,0.62195 7.31998,0.94058 19.75,0.85938 19.71896,-0.12881 27.08888,0.35232 32.75,2.14062 1.65,0.52123 5.384,1.20973 8.29688,1.5293 2.91284,0.31957 6.28782,0.98586 7.5,1.48047 2.97784,1.21506 5.20312,0.79004 5.20312,-0.99414 0,-0.89169 -1.37598,-1.72031 -3.5,-2.10547 -24.80818,-4.49859 -28.05129,-4.83045 -49,-5.01172 z m -133.5,1.92969 c -0.55,0.0342 -6.4,0.28727 -13,0.56054 -21.18073,0.87698 -28.5,2.12313 -28.5,4.85352 0,0.49076 1.9125,0.65722 4.25,0.36914 10.79324,-1.33019 14.41017,-1.58525 31.75,-2.22656 10.175,-0.37633 19.4,-0.63307 20.5,-0.57227 1.1,0.0608 6.275,0.33453 11.5,0.60938 l 9.5,0.5 -7.57422,-1.35547 C 229.54352,392.4122 210.8316,390.60924 207.5,390.81641 Z m 74.73633,1.23047 c -1.00432,0 -2.25358,0.31802 -3.23633,0.95312 -1.13826,0.7356 -0.71622,0.97276 1.75,0.98438 1.7875,0.008 3.25,-0.43438 3.25,-0.98438 0,-0.6351 -0.75936,-0.95312 -1.76367,-0.95312 z M 80.822266,392.7832 c -15.47726,0.0394 -31.353251,0.44467 -33.816407,1.17774 C 45.08449,394.53276 42.327692,395 40.878906,395 c -1.448787,0 -3.244975,0.73639 -3.992187,1.63672 -1.231471,1.48383 -0.986266,1.57598 2.626953,0.97461 11.496366,-1.91342 18.676187,-2.55102 35.986328,-3.18945 19.390022,-0.71518 28.86784,-0.0181 44,3.23242 11.11461,2.38755 15.66479,3.25594 20.7793,3.96679 2.62856,0.36534 5.0172,1.05 5.30859,1.52149 0.77205,1.24919 1.52194,1.068 3.68945,-0.89258 1.86408,-1.68611 1.59251,-1.79328 -7.42187,-2.95117 -14.38285,-1.84747 -16.96644,-2.42496 -17.53711,-3.91211 -0.29039,-0.75671 -1.02176,-1.0701 -1.625,-0.69727 -1.6199,1.00115 -8.90947,0.37688 -10.44141,-0.89453 -0.87304,-0.72456 -15.952425,-1.05116 -31.429684,-1.01172 z M 275.16602,393 c -2.1322,0 -2.97981,7.54828 -1.20899,10.76367 0.52598,0.95504 1.68071,4.38332 2.56641,7.61914 1.10074,4.02142 1.93545,5.55869 2.63672,4.85742 0.67236,-0.67239 0.69298,-1.66553 0.0605,-2.88281 -0.53065,-1.02155 -1.27529,-3.99492 -1.65429,-6.60742 -0.60435,-4.1658 -0.46547,-4.75335 1.12304,-4.78125 0.9962,-0.0175 2.68434,-0.6925 3.75196,-1.5 1.92151,-1.45336 1.92151,-1.46999 0,-1.58398 -1.06762,-0.0633 -2.70111,-0.0393 -3.62891,0.0527 -1.86286,0.18478 -4.25489,-3.41203 -3.29883,-4.95898 C 275.84669,393.43998 275.68963,393 275.16602,393 Z m 47.29882,3.34375 c -0.95337,0.14627 -1.07661,0.50599 -0.83007,1.14844 0.40653,1.05941 2.11033,1.52938 5.72265,1.58008 18.74184,0.26302 42.95542,3.3581 50.14258,6.41015 1.65,0.70067 3.675,1.518 4.5,1.81641 2.54939,0.92214 3.70974,0.75625 4.92578,-0.70899 1.4429,-1.73858 1.05114,-1.95226 -6.42578,-3.49804 -3.3,-0.68225 -7.575,-1.64687 -9.5,-2.14258 -5.12878,-1.32071 -21.59082,-3.04529 -42.72266,-4.47656 -3.07604,-0.20835 -4.85912,-0.27518 -5.8125,-0.12891 z M 255.37891,397 c -1.7796,0 -1.74691,0.33771 0.5,4.98828 1.53753,3.18232 1.62858,3.98684 0.5,4.41992 -2.24826,0.86273 -1.57178,2.5918 1.01367,2.5918 1.31616,0 2.67665,0.73886 3.02344,1.64258 0.34679,0.90372 0.91556,1.35788 1.26367,1.00976 0.34811,-0.34811 -0.0687,-2.32447 -0.92774,-4.39257 -0.85901,-2.06811 -2.11051,-5.22227 -2.77929,-7.00977 -0.66877,-1.7875 -1.83548,-3.25 -2.59375,-3.25 z m -40.8418,4.2793 c -16.87967,0.19115 -55.74922,3.83101 -56.33789,5.61132 -0.35046,1.05989 0.22593,1.24497 2.41992,0.77344 10.95934,-2.35535 29.75164,-3.80334 52.13086,-4.01758 8.3875,-0.0803 15.25,-0.44497 15.25,-0.81054 0,-0.36557 -3.4875,-1.00115 -7.75,-1.41211 -1.33808,-0.12901 -3.30151,-0.17184 -5.71289,-0.14453 z m -176.125001,0.006 c -2.053138,0.25208 -3.21763,1.74253 -2.664062,3.85937 0.470916,1.80078 1.010979,1.97224 4.146484,1.32422 C 41.877442,406.05851 50.475,405.57059 59,405.38281 c 8.525,-0.18778 16.175,-0.44704 17,-0.57617 1.319963,-0.2066 12.80335,0.67469 23,1.76563 6.66124,0.71268 15.56597,2.21648 20.02344,3.38085 10.29945,2.69045 18.96965,5.60177 18.97265,6.36915 0.002,0.45178 0.67891,0.14531 1.50391,-0.67969 2.10465,-2.10465 1.86513,-3.64258 -0.56641,-3.64258 -1.1362,0 -6.4237,-1.12357 -11.75,-2.49609 -10.45277,-2.69355 -12.29062,-3.02973 -25.18359,-4.60352 -9.751614,-1.19034 -17.66796,-1.62381 -41.505859,-2.27539 -9.353725,-0.25567 -18.247755,-0.77578 -19.763672,-1.15625 -0.851337,-0.21367 -1.63398,-0.26762 -2.31836,-0.18359 z m 194.037111,1.58789 c -1.07952,-0.0892 -1.83606,-0.0572 -1.9668,0.15429 -0.28767,0.46546 1.39945,1.27708 3.74805,1.80274 5.08792,1.13877 9.34773,1.41415 8.48242,0.54883 -0.87903,-0.87903 -7.02512,-2.23822 -10.26367,-2.50586 z m 95.1543,1.23828 C 324.7005,404.0581 323,404.29102 323,404.86719 c 0,1.37633 9.73075,3.00195 10.91016,1.82226 0.67262,-0.67234 1.43145,-0.67118 2.29687,0.008 2.21352,1.73533 5.89192,2.21391 8.36328,1.08789 1.68297,-0.76681 2.74324,-0.76844 3.65821,-0.01 1.56325,1.29739 14.63446,4.42701 15.71093,3.76172 0.4219,-0.26075 2.29597,0.0305 4.16407,0.64648 4.56857,1.50658 5.81435,1.80243 6.47656,1.53907 0.30791,-0.12245 1.00042,0.56484 1.53906,1.52734 1.20611,2.15519 3.22206,2.24882 4.90039,0.22656 1.81371,-2.18539 0.80947,-2.76095 -8.34375,-4.77539 -16.83881,-3.70587 -36.36321,-6.43141 -45.07226,-6.58984 z m -38.81446,1.55078 c -0.6616,-0.007 -1.14568,0.10469 -1.29101,0.33984 -0.29057,0.47016 0.49066,1.0516 1.73633,1.29102 6.32024,1.21479 7.59802,0.38014 1.91406,-1.25 -0.85889,-0.24631 -1.69777,-0.3735 -2.35938,-0.38086 z M 250.75,406.01562 c -1.81944,0.0124 -1.96296,0.20051 -0.75,0.98438 1.93876,1.25292 3,1.25292 3,0 0,-0.55 -1.0125,-0.99236 -2.25,-0.98438 z m 47.75,1.16211 c -0.55,0.17683 -0.9056,0.77227 -0.79102,1.32227 0.11459,0.55 0.33959,1.9 0.5,3 0.16042,1.1 0.62663,2.25043 1.03711,2.55664 0.41048,0.30621 0.94404,2.66389 1.18555,5.24024 0.2415,2.57634 0.70782,5.11879 1.03516,5.64843 0.32741,0.52965 0.32808,2.02618 0.002,3.32617 -0.49832,1.98544 -1.08706,2.29176 -3.67383,1.91211 -2.20592,-0.32376 -2.87022,-0.11553 -2.34375,0.73633 0.4146,0.67083 2.32955,1.05672 4.39258,0.88477 3.57298,-0.29782 3.64878,-0.39095 3.32813,-4.05469 -0.33653,-3.84504 0.51163,-4.66805 2.6289,-2.55078 0.66,0.66 1.19922,0.8232 1.19922,0.36133 0,-0.46186 -0.78372,-1.41439 -1.74219,-2.11524 -0.95847,-0.70085 -2.64597,-4.72003 -3.75,-8.93164 -1.10403,-4.21161 -2.45781,-7.51276 -3.00781,-7.33594 z m -88.34375,2.19727 c -13.81828,0.22727 -47.8383,3.90859 -49.60156,5.67188 -1.24126,1.24121 4.54167,1.27329 7.64843,0.043 5.03148,-1.99273 45.10933,-3.97916 55.79688,-2.76562 3.025,0.34347 7.75,0.85994 10.5,1.14844 2.75,0.2885 7.475,0.8085 10.5,1.15429 3.63837,0.41591 5.16152,0.29276 4.5,-0.36328 -1.73737,-1.72299 -9.63627,-3.14832 -21.00391,-3.78906 -6.04756,-0.34088 -12.26181,-0.77612 -13.80859,-0.96875 -0.99655,-0.12411 -2.55721,-0.16333 -4.53125,-0.13086 z m 103.41211,2.18945 c -0.37342,-0.23546 -0.49343,0.648 -0.47461,2.93555 0.0288,3.49852 0.15118,3.7071 0.9707,1.66211 0.59068,-1.47402 0.5783,-2.95231 -0.0332,-4 -0.1849,-0.3168 -0.33842,-0.51917 -0.46289,-0.59766 z m -20.87695,0.50586 c -2.68981,0.0592 -2.87729,0.20524 -1.19141,0.92969 2.79107,1.19936 5.74125,1.19936 5,0 -0.33992,-0.55 -2.05355,-0.96839 -3.80859,-0.92969 z m -5.81055,0.0566 c -0.54375,-0.007 -1.12484,0.0529 -1.61133,0.17969 -0.97297,0.25354 -0.41953,0.47765 1.23047,0.49805 1.65,0.0204 2.44656,-0.18701 1.76953,-0.46094 -0.33851,-0.13699 -0.84492,-0.21008 -1.38867,-0.2168 z m -29.89453,2.19922 C 253.69381,414.23063 251,414.51827 251,414.9668 c 0,1.18574 4.8481,2.21612 7.08594,1.50586 1.33062,-0.42232 1.91406,-0.13013 1.91406,0.95898 0,0.86207 0.675,1.56836 1.5,1.56836 0.825,0 1.5072,0.7875 1.51562,1.75 0.0122,1.39891 0.19294,1.46961 0.89844,0.35547 0.51285,-0.80988 0.50038,-2.48558 -0.0293,-4 -0.83449,-2.38614 -1.4176,-2.62006 -6.89844,-2.7793 z m 76.99023,1.08399 c -5.07236,-0.1824 -8.74464,0.0259 -9.52344,0.80468 -0.29493,0.29495 4.77031,0.78969 11.25586,1.09961 6.48556,0.30992 13.36602,0.80514 15.29102,1.10157 1.925,0.29642 5.75,0.73739 8.5,0.97851 2.75,0.24111 7.25,1.33003 10,2.41992 6.13079,2.42977 7.5,2.5787 7.5,0.81641 0,-2.62167 -27.80636,-6.67352 -43.02344,-7.2207 z m -44.73633,1.68945 c -1.04478,0.0287 -2.41937,0.32846 -3.74023,0.88867 -1.55503,0.65953 -1.16569,0.83018 1.75,0.76758 2.0625,-0.0443 3.75,-0.45709 3.75,-0.91797 0,-0.52398 -0.71498,-0.76694 -1.75977,-0.73828 z m -76.32421,0.22266 c -4.58366,-0.0723 -9.75368,0.003 -15.25977,0.23046 -22.57388,0.93271 -21.38511,0.84173 -22.22266,1.67969 -0.40293,0.4031 8.89624,0.55992 20.66602,0.34766 14.19875,-0.25608 24.09235,0.0383 29.40039,0.87695 4.4,0.69515 8.45,1.32057 9,1.38867 0.55,0.0681 1.62264,-0.2705 2.38281,-0.75195 1.90544,-1.2068 -0.10495,-1.71815 -12.22656,-3.11523 -3.15928,-0.36413 -7.15658,-0.58399 -11.74023,-0.65625 z m 82.2207,0.22461 c -0.6473,-0.0497 -1.18539,-0.006 -1.4707,0.17382 -0.71099,0.44874 0.005,0.99255 1.83398,1.39063 4.27323,0.92998 4.5,0.94687 4.5,0.36328 0,-0.7772 -2.92138,-1.77869 -4.86328,-1.92773 z M 96,417.71484 c -13.752418,-0.21912 -56.491839,1.10269 -58.732422,1.81641 -0.684576,0.21807 -0.956063,1.11608 -0.609375,2.01953 0.45157,1.17677 1.346122,1.4562 3.232422,1.00781 C 41.325381,422.21754 48.575,421.49091 56,420.94336 c 7.425,-0.54755 14.625,-1.20829 16,-1.46875 3.478259,-0.65889 29.79614,-0.67559 37.30664,-0.0234 5.06294,0.43955 5.6456,0.34919 3.19336,-0.49219 -1.65,-0.56613 -9.075,-1.12583 -16.5,-1.24414 z m 217.75977,1.40039 c -0.11309,-0.0329 -0.31237,0.43729 -0.6875,1.38477 -2.05536,5.19122 -2.82157,8.53599 -2.06446,9.00391 0.45658,0.28218 1.14567,-0.93087 1.53321,-2.69532 l 0.70507,-3.20703 3.28711,3.58594 c 1.8074,1.97221 4.56464,4.05012 6.12696,4.61914 1.56232,0.56901 4.18984,1.05056 5.83984,1.06836 2.86372,0.0309 2.78848,-0.0788 -1.6543,-2.39258 -2.55981,-1.33316 -5.55018,-3.56188 -6.64453,-4.95312 -1.09435,-1.39124 -2.93736,-2.5293 -4.0957,-2.5293 -1.49736,0 -2.12573,-0.65031 -2.17383,-2.25 -0.0321,-1.06592 -0.0588,-1.60188 -0.17187,-1.63477 z m -195.61524,0.53711 C 116.49225,419.49977 116,419.68284 116,420.13867 c 0,0.47373 1.0125,0.88145 2.25,0.90625 1.2375,0.0248 3.6,0.66439 5.25,1.41992 3.38787,1.55128 9.5,1.98325 9.5,0.67188 0,-0.47484 -2.5875,-1.35633 -5.75,-1.95899 -4.64088,-0.88439 -7.45319,-1.37281 -9.10547,-1.52539 z M 279.07227,420 C 277.78681,420 272,424.98302 272,426.08984 c 0,1.33544 3.4004,1.11134 4.83008,-0.31836 0.97262,-0.97262 1.73809,-0.60703 3.66406,1.75 1.33902,1.63871 2.4509,3.69167 2.4707,4.5625 0.0198,0.87084 0.33451,1.88334 0.70118,2.25 1.60439,1.6044 2.14849,0.41456 1.18164,-2.58398 -1.81789,-5.63791 -4.82162,-11.75 -5.77539,-11.75 z m -32.15625,2.12305 c -0.3474,-0.0143 -0.74259,0.0489 -1.10352,0.19336 -0.79773,0.31922 -0.56143,0.55744 0.60352,0.60547 1.05416,0.0434 1.64479,-0.19311 1.3125,-0.5254 -0.16615,-0.16612 -0.46511,-0.25913 -0.8125,-0.27343 z m 42.18554,0.99609 c -1.21121,0.0461 -2.22239,0.19435 -2.80859,0.4668 -1.28269,0.59614 -0.0873,1.00981 4.20703,1.45508 10.25717,1.06354 10.01126,1.06984 8.75977,-0.18164 -1.09758,-1.09758 -6.52458,-1.87865 -10.15821,-1.74024 z m -22.99414,0.12305 c -0.53637,0.10373 -0.98558,0.53687 -1.59765,1.3457 -0.79589,1.05173 -1.44525,2.58711 -1.44532,3.41211 -7e-5,0.93621 0.75564,0.48429 2.01367,-1.20117 1.25469,-1.68098 2.65887,-2.5184 3.71876,-2.21875 0.93646,0.26477 0.68075,-0.0547 -0.56836,-0.71094 -0.96064,-0.50468 -1.58473,-0.73068 -2.1211,-0.62695 z m -10.70117,0.33789 c -0.725,-0.13253 -1.34246,-0.10911 -1.67969,0.10351 -0.79666,0.50228 -0.1755,1.0036 1.77344,1.42774 4.77167,1.03846 5.18488,0.90914 2.22656,-0.69531 -0.76277,-0.41368 -1.59531,-0.70342 -2.32031,-0.83594 z M 332,424.13867 c -2.89948,0.0971 -2.47054,0.33474 2.5,1.38086 7.64298,1.60858 8.5,1.66995 8.5,0.61133 0,-1.04343 -6.13654,-2.15506 -11,-1.99219 z m -143.5,1.33399 c -31.77504,-0.1445 -39.76415,0.23649 -39.21875,1.86914 0.36756,1.10029 6.24781,1.14452 15.71875,0.11914 8.73364,-0.94556 50.22685,-0.0714 65,1.36914 9.84655,0.96018 10,0.96057 10,0.082 0,-2.15563 -16.87216,-3.28198 -51.5,-3.43945 z m 159.08398,0.57031 c -5.31438,-0.0583 -4.23902,0.62979 2.94141,1.88281 3.28608,0.57345 8.67461,1.67192 11.97461,2.43945 6.7265,1.56447 8.56221,1.59247 8.70312,0.13477 0.10589,-1.09502 -17.34588,-4.38823 -23.61914,-4.45703 z M 144,426.09961 c -0.36667,0 -0.73255,0.23451 -1.19922,0.70117 C 141.86745,427.73411 142.13333,428 144,428 c 1.86667,0 2.13255,-0.26589 1.19922,-1.19922 -0.46667,-0.46666 -0.83255,-0.70117 -1.19922,-0.70117 z m -73.058594,0.93164 c -1.957379,-0.0175 -4.432379,0.62999 -5.5,1.4375 -1.82503,1.38038 -1.728825,1.4701 1.617188,1.5 1.957379,0.0175 4.432379,-0.62999 5.5,-1.4375 1.82503,-1.38038 1.728825,-1.4701 -1.617188,-1.5 z M 79.5,427.08594 C 75.92179,427.0466 74.926536,427.30627 76,428 c 1.796671,1.1611 3.79798,1.1611 6.5,0 1.482393,-0.63701 0.705983,-0.87336 -3,-0.91406 z m 7.560547,0.01 c -0.851216,-0.0447 -1.510845,0.0206 -1.738281,0.24805 -0.298251,0.29825 0.970546,0.97802 2.818359,1.50977 4.464413,1.28474 4.651276,1.29161 5.304687,0.23437 0.452237,-0.73174 -3.831118,-1.85803 -6.384765,-1.99219 z m 10.357422,1.37696 c -1.37302,0.0416 -2.131183,0.18172 -1.851563,0.44726 0.513037,0.48722 2.958594,1.12584 5.433594,1.41797 7.70092,0.90898 16.15721,2.48729 16.80664,3.13672 1.07625,1.07625 7.51949,0.0835 7.94922,-1.22461 0.28036,-0.85344 -0.80465,-1.25186 -3.42188,-1.25586 -2.10833,-0.003 -5.40898,-0.40888 -7.33398,-0.90234 -3.80521,-0.97545 -13.46297,-1.74389 -17.582031,-1.61914 z M 246.3125,429 c -3.84842,0 -3.8955,1.15398 -0.0644,1.58203 3.79907,0.4245 7.90732,2.35876 7.2539,3.41602 -0.34056,0.55103 -1.18172,1.00195 -1.86914,1.00195 -0.68742,0 -2.12378,0.66124 -3.1914,1.46875 -3.32214,2.51274 0.27815,1.70273 6.58789,-1.48242 5.45324,-2.75279 8.11329,-4.7462 4.46875,-3.34766 -0.82612,0.31701 -3.30951,-0.14698 -5.51953,-1.03125 C 251.76836,429.72315 248.31803,429 246.3125,429 Z M 292,430 c -0.55,0 -1,0.45 -1,1 0,0.55 0.45,1 1,1 0.55,0 1,-0.45 1,-1 0,-0.55 -0.45,-1 -1,-1 z m 39.5,2.83594 3,2.54687 c 3.05952,2.59614 5.11791,3.42451 3.99609,1.60938 -0.34233,-0.55391 -2.05597,-1.71411 -3.80859,-2.58008 z m -28.48828,0.20312 c -0.57823,0.16634 -1.01147,1.10753 -0.82813,2.6875 0.19837,1.70947 1.24914,3.19741 2.81641,3.98633 2.89622,1.45787 2.80347,1.44589 5.75,0.65625 1.2375,-0.33163 2.25,-0.98649 2.25,-1.45508 0,-0.46859 -0.675,-0.59197 -1.5,-0.27539 -0.825,0.31659 -1.5,0.0776 -1.5,-0.53125 C 310,437.49857 308.92804,437 307.61719,437 c -1.54236,0 -2.56779,-0.70573 -2.90625,-2 -0.39709,-1.51849 -1.12099,-2.12727 -1.69922,-1.96094 z m -103.46875,0.82813 c -2.07604,0.0167 -3.95365,0.0824 -5.54297,0.20312 l -7.5,0.57031 6.5,0.22657 c 3.575,0.12513 8.525,0.3902 11,0.58984 2.475,0.19964 9.675,0.66356 16,1.0293 6.325,0.36574 13.3,1.02928 15.5,1.47461 5.75683,1.16533 8.41353,1.21435 6.5,0.12109 -3.63978,-2.0795 -27.92474,-4.33152 -42.45703,-4.21484 z m -40.24414,0.13672 c -2.14991,0.15536 -3.13991,0.49695 -3.74805,1.08203 -1.10489,1.06302 6.75812,1.0386 16.44922,-0.0508 l 6.5,-0.73047 -8.5,-0.26367 c -5.24224,-0.16232 -8.55127,-0.1925 -10.70117,-0.0371 z m 23.58203,0.12304 c -0.54375,-0.007 -1.12484,0.0529 -1.61133,0.17969 -0.97297,0.25354 -0.41953,0.47765 1.23047,0.49805 1.65,0.0204 2.44656,-0.18701 1.76953,-0.46094 -0.33851,-0.13699 -0.84492,-0.21008 -1.38867,-0.2168 z m 91.75391,2.77735 c -0.79767,0.10726 -1.5603,0.35993 -2.1543,0.73828 -1.11092,0.70761 -4.71092,1.5553 -8,1.88476 -8.3246,0.83383 -10.64869,1.39142 -10.02149,2.40625 0.68376,1.10634 7.53129,0.39697 14.04102,-1.45507 2.75,-0.78238 6.35,-1.72435 8,-2.09375 l 3,-0.67188 -2.5,-0.67969 c -0.7352,-0.19961 -1.56757,-0.23616 -2.36523,-0.1289 z m 67.07031,1.16211 c -2.77588,0.31968 -10.22937,5.28083 -9.37305,6.65625 0.26638,0.42787 1.7631,0.85055 3.32617,0.93945 2.24355,0.12764 3.32396,-0.58467 5.13086,-3.37891 1.25886,-1.94674 2.05997,-3.7662 1.78125,-4.04492 -0.16773,-0.16773 -0.46868,-0.21754 -0.86523,-0.17187 z m -299.164064,0.1875 c -2.313019,0.0659 -3.525472,0.31864 -4.066407,0.76757 -0.799189,0.66326 -1.184414,1.63964 -0.855468,2.17188 0.328946,0.53225 1.604262,0.71635 2.832031,0.4082 2.081078,-0.52232 44.689672,-0.73381 59.798828,-0.29687 3.71258,0.10737 6.75008,-0.14219 6.75,-0.55469 -7e-5,-0.4125 -2.1375,-0.78387 -4.75,-0.82617 -2.6125,-0.0423 -6.325,-0.20794 -8.25,-0.36719 -5.229974,-0.43263 -25.350301,-0.7751 -26.5,-0.45117 -0.55,0.15496 -6.977897,-0.0716 -14.285156,-0.50391 -4.94598,-0.29258 -8.36081,-0.41356 -10.673828,-0.34765 z M 108.94141,440 c -0.58246,0 -0.78133,0.45 -0.44141,1 0.33992,0.55 0.81605,1 1.05859,1 0.24254,0 0.44141,-0.45 0.44141,-1 0,-0.55 -0.47613,-1 -1.05859,-1 z m 7.11718,0 c -2.16754,0 -4.21867,0.45 -4.55859,1 -0.3775,0.61081 1.15671,1 3.94141,1 2.50746,0 4.55859,-0.45 4.55859,-1 0,-0.55 -1.77387,-1 -3.94141,-1 z m 26.78907,0.0449 c -5.33335,0.0796 -9.11529,0.57262 -9.84766,1.45508 -0.68469,0.825 -0.8529,1.50095 -0.37305,1.50195 9.06197,0.0265 42.17775,1.07265 45.87305,1.44922 2.75,0.28024 10.53533,0.69217 17.30078,0.91406 6.76546,0.2219 12.4657,0.56832 12.66797,0.76954 0.88318,0.87857 29.53125,0.9298 29.53125,0.0527 0,-1.25636 -19.29802,-2.58364 -54.5,-3.74805 -7.15,-0.23651 -16.825,-0.85326 -21.5,-1.37109 -6.93422,-0.76809 -13.81899,-1.103 -19.15234,-1.02344 z m 101.06836,0.27735 c -0.56644,0.12549 -1.11005,0.444 -1.61914,0.95312 -1.39772,1.39774 -1.09741,1.54172 3.08593,1.47852 2.54869,-0.0385 4.36829,-0.33679 4.04297,-0.66211 -0.32533,-0.32532 -0.8931,-0.63024 -1.25976,-0.67774 -0.36667,-0.0475 -1.48901,-0.44651 -2.49414,-0.88672 -0.60096,-0.26319 -1.18943,-0.33057 -1.75586,-0.20507 z m 73.35742,0.0703 c -0.30295,0.30295 0.74911,1.01306 2.33789,1.57812 1.58878,0.56506 3.56367,1.45273 4.38867,1.97071 1.83862,1.1544 7.77436,1.37897 6.44922,0.24414 -1.43157,-1.22598 -12.54383,-4.42491 -13.17578,-3.79297 z m -128.08985,13.77148 c -2.6069,-0.0742 -3.24688,0.26894 -2.99023,1.60156 0.23314,1.2106 1.26968,1.66706 3.62305,1.59766 2.5014,-0.0738 3.15948,0.25548 2.73437,1.36328 -1.75812,4.5816 -1.67992,6.13414 0.36133,7.22656 2.42634,1.29855 2.76373,3.04688 0.58789,3.04688 -0.825,0 -1.5,0.64999 -1.5,1.44336 0,0.98216 1.35629,1.54064 4.25,1.75 2.3375,0.16918 6.725,0.17492 9.75,0.0137 3.025,-0.1613 6.85,-0.22131 8.5,-0.13281 5.78688,0.31026 8.06794,0.3273 16.25,0.12695 8.22512,-0.2014 8.24367,-0.2075 6.26758,-2.18359 -1.70315,-1.70315 -2.37156,-1.81626 -4.75,-0.80664 -3.94527,1.67473 -4.58149,1.55859 -4.75977,-0.86133 -0.13635,-1.85067 0.0993,-1.98969 1.69727,-1 1.46692,0.90852 2.0564,0.83595 2.81054,-0.34961 1.58245,-2.48765 1.11209,-3.9968 -1.26562,-4.0625 -1.2375,-0.0342 -4.1625,-0.28053 -6.5,-0.54883 -3.38185,-0.38817 -4.25,-0.17283 -4.25,1.06055 0,0.8525 0.51905,1.55078 1.1543,1.55078 0.69104,0 0.4902,0.73397 -0.5,1.82812 -0.91025,1.00581 -1.6543,2.38879 -1.6543,3.07227 0,0.92915 -0.34429,0.8979 -1.36719,-0.125 C 215.70033,467.84291 214.60068,464 215.98047,464 c 0.61333,0 2.14999,-1.11828 3.41601,-2.48438 1.26601,-1.36603 2.58526,-2.20185 2.92969,-1.85742 0.34443,0.34443 1.35458,0.0211 2.2461,-0.71875 1.37756,-1.14327 1.76437,-1.0897 2.57421,0.35743 1.05319,1.88193 4.85352,2.34837 4.85352,0.5957 0,-0.60884 0.70547,-0.83504 1.56836,-0.50391 1.1833,0.45406 1.49052,0.0487 1.25,-1.64453 -0.30741,-2.1642 -0.74156,-2.25349 -12.06836,-2.5 -11.17951,-0.24331 -11.75,-0.15834 -11.75,1.75 0,1.18051 -0.66569,2.00586 -1.61719,2.00586 -1.12432,0 -1.45748,-0.60908 -1.09375,-2 0.29433,-1.12553 0.018,-2.04486 -0.63281,-2.10156 -4.69728,-0.40915 -6.22004,-0.27087 -6.65625,0.60156 -0.275,0.55 0.96593,1.14178 2.75781,1.31445 2.86729,0.27631 3.20389,0.61206 2.80664,2.80274 -0.5725,3.15715 2.00587,4.35306 3.875,1.79687 1.11689,-1.52743 1.60528,-1.62109 2.89258,-0.55273 C 215.05109,462.28802 214.50596,465 212.5,465 c -1.66164,0 -2.73787,2.75404 -1.26758,3.24414 2.02818,0.67606 -0.29278,2.75571 -3.04101,2.72461 -2.31074,-0.0261 -2.44413,-0.17357 -0.94141,-1.04883 0.9625,-0.5606 1.75,-1.47905 1.75,-2.04101 0,-1.52348 -2.98862,-4.22427 -3.78906,-3.42383 -0.38173,0.38172 0.0989,1.13909 1.06836,1.68164 1.99775,1.118 1.38568,3.0565 -0.71094,2.25195 -0.75176,-0.28847 -1.66847,-0.0379 -2.03711,0.5586 -0.91541,1.48117 -2.56988,0.31793 -1.92773,-1.35547 0.3205,-0.83521 -0.45301,-1.58923 -2.04297,-1.98828 C 198.15275,465.25018 197,464.51999 197,463.98047 197,463.44095 196.1,463 195,463 c -2.27483,0 -2.69149,-1.52064 -0.63281,-2.31055 0.75225,-0.28866 1.59217,-1.69459 1.86523,-3.12304 0.53591,-2.80342 -0.30798,-3.21039 -7.04883,-3.40235 z M 178.25,454.42383 c -5.29944,0.0599 -6.75,0.39852 -6.75,1.57617 0,0.95843 0.99287,1.51715 2.75,1.54688 1.5125,0.0255 2.75,-0.3501 2.75,-0.83399 0,-0.48391 0.5625,-0.6903 1.25,-0.45898 0.70147,0.23602 1.10819,1.58971 0.92773,3.08398 -0.17686,1.46451 0.16064,2.66211 0.75,2.66211 0.58937,0 1.07227,0.9 1.07227,2 0,1.3227 0.6668,2 1.96875,2 2.25609,0 1.74756,-2.64901 -0.90625,-4.71875 -1.39621,-1.08891 -1.37678,-1.2216 0.1875,-1.25 1.96856,-0.0358 2.44788,-2.0129 0.5,-2.0625 -0.76339,-0.0194 -0.56875,-0.55003 0.5,-1.36133 0.9625,-0.73064 1.75,-1.53666 1.75,-1.79297 0,-0.2563 -3.0375,-0.43252 -6.75,-0.39062 z m -27,0.32617 c -0.4125,-0.1375 -0.881,0.66383 -1.04102,1.78125 -0.22091,1.5426 0.50128,2.26479 3,3 1.81002,0.53258 3.29102,1.5483 3.29102,2.25586 0,0.70757 0.675,1.71285 1.5,2.23437 1.9874,1.25628 6,1.24191 6,-0.0215 0,-0.55 -0.45,-1 -1,-1 -2.32934,0 -0.75551,-2.79933 1.86914,-3.32422 1.75805,-0.35161 3.07966,-1.36866 3.4082,-2.625 0.50938,-1.94787 0.11263,-2.05078 -7.87109,-2.05078 -4.62351,0 -8.74375,-0.1125 -9.15625,-0.25 z m -105.607422,0.26367 c -6.579227,0.24242 -8.836921,2.55621 -6.074219,6.63477 1.06215,1.56804 1.939066,3.3545 1.947266,3.96875 0.0082,0.61425 1.391191,2.27523 3.074219,3.6914 2.299534,1.93493 4.407683,2.65112 8.484375,2.88282 2.983729,0.16957 8.125781,0.1923 11.425781,0.0508 3.3,-0.14158 7.013596,-0.25777 8.251953,-0.25977 1.855694,-0.003 2.075111,-0.31095 1.25,-1.74414 -0.55062,-0.95641 -1.476778,-3.07371 -2.058594,-4.70508 -0.789971,-2.21501 -1.2734,-2.61697 -1.908203,-1.58984 -0.467535,0.75649 -0.741393,1.86692 -0.607422,2.4668 0.133972,0.59987 0.06414,0.77808 -0.15625,0.39648 C 68.612627,465.66578 66,467.10395 66,468.60742 c 0,1.93054 -3.64766,1.75573 -4.402344,-0.21094 -0.351374,-0.91567 -1.253858,-1.35804 -2.105468,-1.03125 C 58.671824,467.68003 58,467.50148 58,466.96875 c 0,-0.53274 0.5625,-0.9764 1.25,-0.98437 2.716267,-0.0333 3.831611,-1.58741 2.916016,-4.0625 -0.492705,-1.33193 -1.294255,-2.29211 -1.78125,-2.13282 -0.486996,0.15929 -1.024196,-0.59913 -1.195313,-1.68554 -0.247609,-1.57205 -1.381414,-2.10774 -5.552734,-2.62891 -3.12775,-0.39079 -5.801065,-0.54174 -7.994141,-0.46094 z m 47.041016,0.10938 c -7.022301,0.0539 -9.268838,0.91063 -8.390625,3.19922 0.598791,1.56043 4.037987,1.29669 6.330078,-0.48438 1.546817,-1.20195 4.606011,0.12187 3.990234,1.72656 -0.275712,0.7185 0.03676,1.52391 0.69336,1.79102 2.384155,0.96991 2.917519,0.60014 2.474609,-1.7168 -0.251106,-1.31357 0.0313,-2.35229 0.634766,-2.34179 0.596654,0.0104 1.983984,-0.0816 3.083984,-0.20313 4.40313,-0.48637 -2.456484,-2.0195 -8.816406,-1.9707 z m 50.148436,0.041 c -3.15267,-0.12353 -3.83881,0.12241 -3.03711,1.08789 0.87968,1.05938 5.08153,1.48531 8.70508,0.88282 2.26764,-0.37705 -1.89071,-1.8227 -5.66797,-1.97071 z m -79.914061,0.11133 c -1.388697,0.11409 -2.195318,0.36251 -2.433594,0.74805 -0.473224,0.7657 0.07716,1.04741 1.652344,0.84375 C 65.245848,456.46523 67,457.64633 67,460.14258 c 0,2.55887 2.16688,1.96396 3.486328,-0.95703 C 71.458222,457.03397 73,456.2053 73,457.83398 c 0,0.45834 0.5625,0.87591 1.25,0.92774 0.6875,0.0518 2.199571,0.38692 3.361328,0.74609 1.605697,0.49644 2.244599,0.15389 2.658203,-1.42773 C 80.637853,456.67161 80.339651,456 79.347656,456 c -0.805968,0 -1.207056,0.41965 -0.890625,0.93164 0.316431,0.512 0.152112,1.19199 -0.365234,1.51172 -0.517347,0.31974 -1.0865,-0.1441 -1.265625,-1.03125 -0.255241,-1.26412 -1.981041,-1.7127 -7.978516,-2.07422 -2.569283,-0.15487 -4.540991,-0.17659 -5.929687,-0.0625 z m 56.914061,0.041 -14.23242,0.23047 0.0586,2.47656 c 0.0842,3.6388 1.4897,8.36619 2.7461,9.23437 0.72134,0.49845 0.31125,1.36501 -1.19922,2.53711 -1.26228,0.97951 -1.97544,2.1027 -1.58399,2.49414 1.03052,1.03053 6.15929,0.87323 6.82813,-0.20898 0.31252,-0.50566 -0.14168,-1.62997 -1.00977,-2.49805 -4.34306,-4.34306 -3.28493,-12.55932 1.61914,-12.57422 1.40738,-0.004 3.43238,0.65343 4.5,1.46094 1.06762,0.8075 2.65986,1.4825 3.53711,1.5 1.87293,0.0373 5.51699,3.75255 4.58985,4.67969 -0.35,0.35 -1.25252,0.12555 -2.00391,-0.49805 C 122.1558,462.88417 121,463.58842 121,465.7832 c 0,1.04525 0.62801,1.25472 2.25,0.74805 1.2375,-0.38657 3.05947,-0.69108 4.04883,-0.67578 1.28472,0.0198 1.63435,-0.4883 1.22461,-1.7793 -0.47923,-1.50989 -0.13113,-1.72359 2.11133,-1.29492 2.64357,0.50535 2.65975,0.47595 1.02539,-1.85742 C 129.62182,458.01369 129.56529,457 131.44141,457 c 0.79254,0 1.70586,-0.43054 2.03125,-0.95703 0.36868,-0.59654 -4.77125,-0.87011 -13.64063,-0.72656 z m 132.43945,0.37304 c -6.51276,-0.14036 -13.32209,0.21044 -14.51171,1.18164 -1.61281,1.31671 -1.61964,1.51082 -0.0879,2.63086 0.97747,0.71473 1.39463,1.88113 1.02148,2.85352 -0.7432,1.93677 1.3201,2.23263 3.10742,0.44531 0.93333,-0.93333 1.46511,-0.93333 2.39844,0 0.93335,0.93333 0.91818,1.19922 -0.0723,1.19922 -0.70033,0 -1.12277,0.77857 -0.93945,1.73047 0.19551,1.01521 1.25417,1.7387 2.56055,1.75 1.22492,0.0106 2.11869,0.46953 1.98828,1.01953 -0.13041,0.55 -0.9809,0.90097 -1.89063,0.7793 -0.90973,-0.12167 -1.90825,0.44083 -2.21875,1.25 -0.43005,1.12069 0.2621,1.4707 2.9043,1.4707 2.7725,0 3.46875,-0.39227 3.46875,-1.95117 0,-1.07267 0.7875,-2.39442 1.75,-2.9375 1.89814,-1.071 0.98823,-2.65242 -1.87695,-3.26367 -1.24208,-0.26498 -1.4261,-0.8798 -0.78125,-2.59766 0.62049,-1.65295 1.64739,-2.25 3.875,-2.25 1.66772,0 2.97916,0.3375 2.91406,0.75 -0.35064,2.22072 0.31763,3.01188 2.14062,2.53516 1.58798,-0.41527 1.77544,-0.82561 0.87696,-1.90821 C 258.2696,459.61922 257.99756,459 258.29492,459 c 0.29736,0 1.25307,-0.27357 2.12305,-0.60742 1.06662,-0.4093 1.58203,-0.0431 1.58203,1.12304 0,1.42391 0.26501,1.50933 1.5,0.48438 0.825,-0.68469 1.5,-1.82822 1.5,-2.54102 0,-0.99684 -6.21575,-1.62917 -12.72852,-1.76953 z M 269.16602,456 c -2.52234,0 -3.26954,0.97463 -1.88477,2.45703 0.92524,0.9905 1.42099,0.98315 2.43945,-0.0351 C 271.47663,456.66579 271.32434,456 269.16602,456 Z m -143.53321,0.10156 c 1.17361,-0.11081 1.25174,0.62336 0.71094,2.69141 -0.71134,2.72015 -1.94464,2.82201 -3.30859,0.27344 -0.84539,-1.57961 -0.65445,-2.05173 1.04101,-2.58985 0.65217,-0.20699 1.16544,-0.33806 1.55664,-0.375 z m 90.74219,0.16016 c 0.79843,-0.0272 1.625,1.40013 1.625,3.29687 0,1.34254 -0.39696,2.44141 -0.88281,2.44141 -1.07013,0 -2.22926,-4.0095 -1.5,-5.18945 0.2281,-0.36909 0.49167,-0.53976 0.75781,-0.54883 z m -81.0957,0.11719 c -0.10514,0.10514 -0.17716,0.45463 -0.20118,1.03711 -0.0434,1.05416 0.1931,1.64479 0.5254,1.3125 0.33225,-0.33229 0.36885,-1.19415 0.0801,-1.91602 -0.15961,-0.39887 -0.29916,-0.53873 -0.40429,-0.43359 z m 163.33593,0.1289 c -0.68607,0.0327 -1.45489,0.15609 -2.28125,0.37696 -3.87388,1.03541 -4.11881,4.82625 -0.50976,7.87695 l 2.67578,2.26172 -2.25,0.60547 c -2.62097,0.70443 -2.6415,0.77194 -1.00977,3.38476 1.32222,2.11721 4.22978,2.65307 5.26954,0.97071 0.34546,-0.55899 1.09838,-0.72748 1.67187,-0.37305 0.57349,0.35444 1.44119,0.0255 1.92969,-0.73242 0.75344,-1.16902 1.02458,-1.16698 1.78515,0.0137 0.64181,0.99623 2.20905,1.24379 5.51563,0.87109 2.54056,-0.28635 4.8749,-0.10735 5.1875,0.39844 0.31259,0.5058 1.40259,0.65359 2.42187,0.33008 1.92137,-0.60982 13.75588,-0.58952 66.72852,0.10937 l 31.25,0.41211 v -3.44726 c 0,-1.89631 -0.48997,-3.75156 -1.08789,-4.1211 -0.78285,-0.48382 -0.78285,-0.97496 0,-1.75781 C 416.51003,463.08949 417,461.40698 417,459.94922 v -2.65039 l -55.75,0.19531 c -30.6625,0.10731 -56.0875,0.26421 -56.5,0.34961 -0.4125,0.0854 -0.75,0.73082 -0.75,1.43359 0,0.70277 -0.91542,2.06051 -2.0332,3.01758 -1.56846,1.34295 -2.48143,1.50022 -4,0.6875 -1.08222,-0.57919 -1.9668,-1.46079 -1.9668,-1.95898 0,-1.39186 1.7866,-2.17824 2.46289,-1.08399 C 299.26548,461.23808 302,460.12538 302,458.5 c 0,-1.36914 -1.32655,-2.09016 -3.38477,-1.99219 z M 285.77734,457 c -2.99299,0 -3.05744,0.078 -1.21875,1.46875 2.47678,1.87334 3.09409,1.8781 3.80274,0.0312 0.4368,-1.1383 -0.18618,-1.5 -2.58399,-1.5 z m -7.69531,0.0859 c -1.69859,0.0678 -3.67586,0.73593 -5.71484,1.99609 -3.76489,2.32683 -4.34975,3.40763 -1.43164,2.64453 2.40106,-0.62789 3.46402,1.69744 1.51562,3.31446 -0.78625,0.65253 -1.19261,1.5694 -0.90234,2.03906 0.46939,0.75949 6.30497,0.18572 7.36914,-0.72461 0.22944,-0.19626 0.50267,-1.14324 0.60937,-2.10547 0.34857,-3.14345 1.65956,-5.25294 2.82813,-4.55273 0.62987,0.37742 0.52632,-0.0753 -0.22852,-1.00586 -0.92617,-1.14179 -2.34633,-1.67328 -4.04492,-1.60547 z M 51.283203,457.5 l -1.382812,2.25 c -0.76021,1.2375 -2.022276,2.25 -2.806641,2.25 -0.784366,0 -1.238932,-0.11641 -1.009766,-0.25977 0.229167,-0.14336 1.493184,-1.15586 2.808594,-2.25 z M 190,458 c -0.55,0 -1,0.45 -1,1 0,0.55 0.45,1 1,1 0.55,0 1,-0.45 1,-1 0,-0.55 -0.45,-1 -1,-1 z m 56.5,1 c 0.825,0 1.5,0.42387 1.5,0.94141 0,1.26098 -1.5624,2.16416 -2.36133,1.36523 C 244.51249,460.18045 244.95359,459 246.5,459 Z m 93.05859,0 c 0.24254,0 0.44141,0.45 0.44141,1 0,0.55 -0.47613,1 -1.05859,1 -0.58246,0 -0.78133,-0.45 -0.44141,-1 0.33992,-0.55 0.81605,-1 1.05859,-1 z M 376.5,459 c 0.825,0 1.5,0.45 1.5,1 0,0.55 -0.675,1 -1.5,1 -0.825,0 -1.5,-0.45 -1.5,-1 0,-0.55 0.675,-1 1.5,-1 z m -43.30273,0.11523 c 0.88598,-0.0884 1.73094,0.54073 2.57031,1.88477 1.48779,2.38233 5.23242,2.68962 5.23242,0.42969 0,-2.04389 3.92096,-1.52788 5.31641,0.69922 0.76349,1.21853 0.50339,2.28481 -1.03321,4.23828 l -2.05468,2.61133 -1.66407,-2.24024 -1.66406,-2.23828 0.45508,2.25 c 0.47389,2.33633 -0.87579,3.18902 -1.60156,1.01172 -0.32102,-0.96302 -0.98151,-0.97846 -2.97461,-0.0703 -2.23918,1.02024 -2.84686,0.86564 -4.81055,-1.22461 -2.14286,-2.28098 -2.17109,-2.51045 -0.58594,-4.92969 1.00095,-1.52765 1.92847,-2.33348 2.81446,-2.42188 z M 101.16211,459.2207 C 100.52266,459.00755 100,459.77018 100,460.91602 c 0,1.14583 0.63577,2.08398 1.41211,2.08398 1.65988,0 1.44713,-3.21359 -0.25,-3.7793 z m 38.11328,0.70508 c -0.39875,-0.0412 -0.905,0.465 -1.125,1.125 -0.22,0.66 0.13883,1.01883 0.79883,0.79883 1.28914,-0.42971 1.52187,-1.80014 0.32617,-1.92383 z M 56,460 c 1.1,0 2,0.39696 2,0.88281 0,0.48585 1.0125,1.16087 2.25,1.5 1.874471,0.5137 1.999647,0.77965 0.75,1.59375 -0.825,0.53745 -2.35037,0.71224 -3.388672,0.38867 -1.590905,-0.49577 -1.809315,-0.17701 -1.388672,2.02344 C 56.497187,467.82479 56.649277,469 56.560547,469 55.87907,469 54,466.36222 54,465.40625 c 0,-0.65616 -0.675,-1.45099 -1.5,-1.76758 -0.825,-0.31658 -1.5,-1.02617 -1.5,-1.57617 0,-0.55 0.675,-0.74041 1.5,-0.42383 0.825,0.31659 1.5,0.0776 1.5,-0.53125 C 54,460.49857 54.9,460 56,460 Z m 91.62891,0 c -1.58739,0 -1.79591,0.52078 -1.29883,3.25 0.32555,1.7875 0.86778,4.18929 1.20508,5.33789 0.50216,1.70994 0.20212,2.05864 -1.6543,1.92188 -1.24699,-0.0919 -2.45062,-0.71906 -2.67578,-1.39454 -0.56481,-1.69441 -5.08277,-6.11523 -6.25,-6.11523 -0.525,0 -0.95508,0.9 -0.95508,2 0,2.11807 -1.45597,2.68944 -2.50977,0.98438 C 132.78428,464.84213 131,465.61147 131,467.05859 c 0,0.51754 0.70113,0.94141 1.55859,0.94141 0.868,0 1.2608,0.48262 0.88672,1.08789 -0.48382,0.78285 -0.97496,0.78285 -1.75781,0 C 131.08958,468.48997 129.51007,468 128.17773,468 c -1.99004,0 -2.20983,0.25589 -1.23242,1.43359 0.99727,1.2016 0.63359,1.4039 -2.24609,1.25 -2.284,-0.12206 -3.27688,-0.60258 -2.96094,-1.43359 0.26137,-0.6875 -0.022,-1.25 -0.63086,-1.25 -0.60885,0 -1.14214,0.5625 -1.18554,1.25 -0.0434,0.6875 -0.53713,-0.002 -1.09571,-1.5332 -0.74011,-2.02856 -0.67883,-3.18916 0.22266,-4.27539 1.42705,-1.71949 0.67504,-2.93259 -1.33789,-2.16016 -0.83418,0.32011 -1.44179,2.23742 -1.54492,4.87305 -0.0935,2.39015 -0.6217,4.49716 -1.17383,4.68164 -0.55216,0.18448 -0.78321,0.69354 -0.51172,1.13281 0.68909,1.11498 18.51953,0.94762 18.51953,-0.17383 0,-0.50244 0.52695,-0.58609 1.17188,-0.1875 2.05466,1.26986 22.51925,1.70105 23.26757,0.49024 0.40586,-0.6567 -0.12698,-1.09766 -1.33007,-1.09766 -1.10517,0 -2.50794,-0.7875 -3.11719,-1.75 -0.79327,-1.25321 -1.25664,-1.39515 -1.63281,-0.5 -0.74471,1.77209 -2.69237,1.56007 -2.00977,-0.21875 0.30982,-0.80739 0.1334,-1.73352 -0.39258,-2.05859 C 148.43105,466.14758 148,465.17824 148,464.31836 c 0,-1.28735 0.26842,-1.34041 1.52344,-0.29883 2.1109,1.75189 2.88614,0.61038 1.30468,-1.92187 C 150.10775,460.9441 148.66857,460 147.62891,460 Z m 29.42968,0 c -0.51754,0 -1.21867,0.45 -1.55859,1 -0.33992,0.55 0.0839,1 0.94141,1 0.85746,0 1.55859,-0.45 1.55859,-1 0,-0.55 -0.42387,-1 -0.94141,-1 z m 220.5,0 c 0.24254,0 0.44141,0.45 0.44141,1 0,0.55 -0.47613,1 -1.05859,1 -0.58246,0 -0.78133,-0.45 -0.44141,-1 0.33992,-0.55 0.81605,-1 1.05859,-1 z m -76.19726,0.41797 c 2.07299,-0.30425 6.63867,1.50063 6.63867,2.625 0,1.12684 -3.24054,1.65708 -6,0.98047 -2.91407,-0.71452 -3.35552,-3.20672 -0.63867,-3.60547 z m 30.20898,0.18164 c 0.41248,0.01 0.81478,0.20749 1.15235,0.63867 1.38832,1.77336 2.24112,5.69076 1.60156,7.35742 -0.93235,2.42967 -2.88144,1.62003 -2.39258,-0.99414 0.0925,-0.49456 -0.10361,-1.60762 -0.43555,-2.47265 -0.52503,-1.36819 -0.72534,-1.38209 -1.53515,-0.10157 -0.74492,1.1779 -0.93299,1.04823 -0.94532,-0.65429 -0.0154,-2.13679 1.31725,-3.80207 2.55469,-3.77344 z m 31.35352,0.004 c 0.20873,-0.0395 0.42755,-0.022 0.65234,0.0645 1.12036,0.42993 1.20433,0.8916 0.34766,1.92383 -0.87587,1.05536 -0.43533,2.05099 1.97461,4.46093 1.70599,1.70599 3.10156,3.29075 3.10156,3.52344 0,0.70987 -2.3733,0.24152 -4.76367,-0.9414 -1.24505,-0.61614 -2.0677,-1.63156 -1.82813,-2.25586 0.23957,-0.62431 -0.0243,-1.5946 -0.58593,-2.15625 -1.30389,-1.30389 -0.35957,-4.3424 1.10156,-4.61914 z M 356.05859,461 c 0.58246,0 0.78133,0.45 0.44141,1 -0.33992,0.55 -0.81605,1 -1.05859,1 C 355.19887,463 355,462.55 355,462 c 0,-0.55 0.47613,-1 1.05859,-1 z m 4.33594,0.45898 c 0.65314,-0.14257 1.50291,0.30073 2.63086,1.35157 1.20619,1.12374 2.81928,1.80319 3.58399,1.50976 0.83161,-0.31912 1.39062,0.11103 1.39062,1.07227 0,0.88385 -0.3375,1.55599 -0.75,1.49219 -2.59726,-0.40172 -4.25,-1.15052 -4.25,-1.92579 0,-0.49241 -0.62907,-0.65461 -1.39844,-0.35937 -1.78739,0.68602 -3.15419,-1.44541 -1.79687,-2.80273 0.1765,-0.1765 0.37213,-0.29037 0.58984,-0.3379 z m 12.11524,0.35547 c 0.47803,0.13737 1.13276,1.88296 1.22461,4.18555 0.0877,2.2 -0.0412,4 -0.28711,4 C 373.20141,470 373,469.55 373,469 c 0,-0.55 -0.9,-1 -2,-1 -2.34321,0 -2.66715,-1.52971 -0.5,-2.36133 0.825,-0.31658 1.5,-1.26515 1.5,-2.10742 0,-1.30315 0.22295,-1.79922 0.50977,-1.7168 z M 392.46484,462 c 0.25565,0 0.94646,0.9 1.53516,2 0.85431,1.5963 0.76047,2 -0.46484,2 C 392.66665,466 392,465.13148 392,464 c 0,-1.1 0.20919,-2 0.46484,-2 z M 90.75,462.01562 c -1.819438,0.0124 -1.962959,0.20051 -0.75,0.98438 1.938759,1.25292 3,1.25292 3,0 0,-0.55 -1.0125,-0.9928 -2.25,-0.98438 z m 80.69141,0.0176 c -0.58238,-0.0183 -1.93238,0.66605 -3,1.51953 -1.89555,1.51534 -1.89042,1.5363 0.2207,0.95899 1.78787,-0.48892 2.27658,-0.0696 2.82422,2.42383 0.36423,1.65826 0.4013,3.43867 0.082,3.95507 -0.31918,0.51646 -0.0152,1.13601 0.67578,1.37696 2.72533,0.95045 5.02875,-1.36286 2.75586,-2.76758 -0.55,-0.33992 -1,-1.32176 -1,-2.18164 0,-1.27633 0.27545,-1.33465 1.5,-0.31836 1.15702,0.9602 1.5,0.96818 1.5,0.0332 0,-1.38308 -3.96509,-4.9499 -5.55859,-5 z m 116.75976,0.25 c -0.3414,-6.2e-4 -0.68664,0.0541 -1.0332,0.16407 -2.01375,0.63914 -2.01774,0.70296 -0.20703,2.51367 1.02192,1.02192 2.68677,2.02717 3.69922,2.23437 2.63402,0.53903 2.90681,-1.07364 0.57617,-3.40429 -1.00656,-1.00626 -2.01095,-1.50595 -3.03516,-1.50782 z M 75.953125,462.41016 C 75.46256,462.42524 74.965769,462.61345 74.5,463 c -0.825,0.68469 -1.5,1.72962 -1.5,2.32227 0,0.73594 0.359111,0.71705 1.134766,-0.0586 0.847619,-0.84762 1.481791,-0.78969 2.5,0.22852 1.790614,1.79057 1.733813,2.58618 -0.134766,1.86914 -1.581871,-0.60702 -1.982704,1.21582 -0.892578,4.05664 0.654461,1.7055 4.392578,2.21914 4.392578,0.60351 0,-0.59841 0.960019,-0.54178 2.470703,0.14649 1.848382,0.84222 2.824046,0.83327 3.875,-0.0391 C 88.166395,470.61799 88.188394,466 86.375,466 85.61875,466 85,466.69134 85,467.53516 c 0,2.50287 -5.428111,1.29488 -5.810547,-1.29297 -0.349933,-2.36787 -1.764634,-3.87729 -3.236328,-3.83203 z m 301.697265,0.58398 c 0.36143,-0.0516 0.66887,-0.009 0.84766,0.16992 0.22627,0.22626 -0.46798,0.96145 -1.54297,1.63282 -1.23707,0.77255 -1.95508,0.83784 -1.95508,0.17968 0,-0.81435 1.56611,-1.82763 2.65039,-1.98242 z m -73.40234,0.42383 c 0.17372,-0.17372 2.2154,0.16509 4.53515,0.75391 3.01917,0.76634 4.2168,1.58828 4.2168,2.89062 0,3.14534 -1.75794,3.08945 -5.47461,-0.17383 -1.9764,-1.7353 -3.45106,-3.29698 -3.27734,-3.4707 z m 99.15625,0.25391 c 0.34641,-0.0211 0.7384,0.0141 1.18554,0.0996 3.00077,0.57364 3.05603,1.66268 0.1875,3.67188 -3.61306,2.53058 -5.24616,1.67992 -3.62109,-1.88672 0.5691,-1.24904 1.20881,-1.82153 2.24805,-1.88476 z m -120.0918,0.84765 c -0.18676,-0.0216 -0.36224,0.0119 -0.51367,0.10547 -0.73889,0.45665 -0.55917,1.07848 0.54883,1.88867 0.90832,0.66418 1.65234,1.71882 1.65234,2.34571 0,1.54899 -3.71893,1.45418 -4.28516,-0.10938 -0.36034,-0.99501 -0.89454,-0.98821 -2.61914,0.0312 -1.83045,1.08218 -2.85934,0.97496 -6.63086,-0.69336 C 267.05446,466.1371 267,466.13623 267,468.05664 267,469.33374 266.31405,470 265,470 c -1.1,0 -2,-0.59895 -2,-1.33203 0,-0.77377 -0.94382,-1.25073 -2.25,-1.13672 -1.2375,0.10802 -2.88517,-0.30554 -3.66211,-0.91797 -1.05321,-0.8302 -1.52032,-0.79524 -1.83398,0.13672 -0.2314,0.6875 -1.05873,1.25 -1.83789,1.25 -1.70901,0 -1.75903,0.47827 -0.29883,2.81641 1.00557,1.61021 2.78119,1.77591 17.79687,1.66992 9.17398,-0.0648 17.20222,-0.43991 17.83985,-0.83399 1.47165,-0.90953 0.47545,-3.65234 -1.32618,-3.65234 -0.7468,0 -1.84641,-0.91193 -2.44335,-2.02734 -0.44773,-0.83655 -1.11161,-1.38825 -1.67188,-1.45313 z M 100,465 c -0.55,0 -1,0.45 -1,1 0,0.55 0.45,1 1,1 0.55,0 1,-0.45 1,-1 0,-0.55 -0.45,-1 -1,-1 z m 88.77344,0.0195 c -0.32151,0.0294 -0.75471,0.14306 -1.29297,0.34961 -0.88358,0.33906 -1.32917,1.06487 -0.99024,1.61328 0.39154,0.63353 1.10557,0.5457 1.96094,-0.24219 1.24253,-1.14447 1.28678,-1.80904 0.32227,-1.7207 z m 35.37695,0.0371 c 0.42945,0.19387 0.79102,1.06039 1.29297,2.69336 0.55822,1.81604 0.30461,2.25 -1.31641,2.25 -2.72609,0 -3.34154,-1.32349 -1.67578,-3.60156 0.77315,-1.05734 1.26977,-1.53567 1.69922,-1.3418 z m 188.71875,0.26367 c 0.32425,-0.12 0.67717,-0.10026 1.01953,0.11133 0.61149,0.37792 1.11133,1.55941 1.11133,2.62695 0,2.1942 -2.51372,2.65262 -3.30078,0.60157 -0.52677,-1.37274 0.19716,-2.97985 1.16992,-3.33985 z m -245.14844,0.66992 c -0.27553,0.0808 -0.44888,0.63223 -0.35937,1.75977 0.0879,1.1078 -0.68662,1.86571 -2.11133,2.06836 -1.2375,0.17602 -2.25,0.7402 -2.25,1.25195 0,0.51175 1.49642,0.92969 3.32617,0.92969 3.12763,0 3.30066,-0.17961 2.88672,-3 -0.28974,-1.97412 -1.03297,-3.14436 -1.49219,-3.00977 z M 90,466 c -0.55,0 -1,0.45 -1,1 0,0.55 0.45,1 1,1 0.55,0 1,-0.45 1,-1 0,-0.55 -0.45,-1 -1,-1 z m 301.29297,1.375 c 0.18125,-0.0799 0.43203,-0.045 0.70703,0.125 0.55,0.33992 1,0.81605 1,1.05859 0,0.24254 -0.45,0.44141 -1,0.44141 -0.55,0 -1,-0.47613 -1,-1.05859 0,-0.29123 0.11172,-0.48648 0.29297,-0.56641 z m -210.6582,0.10742 c -0.20559,-0.1005 -0.56383,-0.0638 -1.05079,0.12305 -0.87096,0.33422 -1.58398,1.04699 -1.58398,1.58398 0,1.31439 2.2732,0.49289 2.77148,-1.00195 0.12179,-0.36538 0.0689,-0.60458 -0.13671,-0.70508 z M 139.5,468 c 0.825,0 1.5,0.45 1.5,1 0,0.55 -0.675,1 -1.5,1 -0.825,0 -1.5,-0.45 -1.5,-1 0,-0.55 0.675,-1 1.5,-1 z m 19.44141,0 c -0.58246,0 -0.78133,0.45 -0.44141,1 0.33992,0.55 0.81605,1 1.05859,1 0.24254,0 0.44141,-0.45 0.44141,-1 0,-0.55 -0.47613,-1 -1.05859,-1 z m 237.34765,0.30859 c 0.22144,-0.0557 0.59668,0.18163 1.21094,0.69141 0.825,0.68469 1.5,1.4154 1.5,1.62305 0,0.20766 -0.675,0.37695 -1.5,0.37695 -0.825,0 -1.5,-0.73071 -1.5,-1.62305 0,-0.6644 0.0676,-1.01262 0.28906,-1.06836 z m -212.59765,0.48829 c -0.30888,0.0514 -0.61671,0.16243 -0.9336,0.33203 -2.70514,1.44775 -2.09457,2.70972 1.49219,3.08203 4.53509,0.47075 5.15307,-0.0649 2.5293,-2.18946 -1.22448,-0.99152 -2.16125,-1.37885 -3.08789,-1.2246 z M 99.841797,469 C 98.010055,469 96,470.36424 96,471.60742 96,472.53341 97.175598,473 99.507812,473 c 3.258148,0 3.419668,-0.1427 2.259768,-2 -0.68696,-1.1 -1.55306,-2 -1.925783,-2 z m 98.716793,0 c 0.24254,0 0.44141,0.45 0.44141,1 0,0.55 -0.47613,1 -1.05859,1 -0.58246,0 -0.78133,-0.45 -0.44141,-1 0.33992,-0.55 0.81605,-1 1.05859,-1 z m 123,0 c 0.24254,0 0.44141,0.45 0.44141,1 0,0.55 -0.47613,1 -1.05859,1 -0.58246,0 -0.78133,-0.45 -0.44141,-1 0.33992,-0.55 0.81605,-1 1.05859,-1 z M 89.441406,471 C 88.648865,471 88,471.45 88,472 c 0,0.55 0.926135,1 2.058594,1 1.132459,0 1.781325,-0.45 1.441406,-1 -0.339919,-0.55 -1.266053,-1 -2.058594,-1 z" />
  </g>
</svg>
