<?xml version="1.0" encoding="UTF-8" standalone="no"?>
<!-- Created with Inkscape (http://www.inkscape.org/) -->

<svg
   version="1.1"
   id="svg2"
   width="450"
   height="473"
   viewBox="0 0 450 473"
   sodipodi:docname="8.svg"
   inkscape:version="1.1.2 (0a00cf5339, 2022-02-04)"
   xmlns:inkscape="http://www.inkscape.org/namespaces/inkscape"
   xmlns:sodipodi="http://sodipodi.sourceforge.net/DTD/sodipodi-0.dtd"
   xmlns="http://www.w3.org/2000/svg"
   xmlns:svg="http://www.w3.org/2000/svg">
  <defs
     id="defs6" />
  <sodipodi:namedview
     id="namedview4"
     pagecolor="#505050"
     bordercolor="#eeeeee"
     borderopacity="1"
     inkscape:pageshadow="0"
     inkscape:pageopacity="0"
     inkscape:pagecheckerboard="0"
     showgrid="false"
     inkscape:zoom="1.5835095"
     inkscape:cx="224.81709"
     inkscape:cy="230.18492"
     inkscape:window-width="1920"
     inkscape:window-height="1043"
     inkscape:window-x="0"
     inkscape:window-y="0"
     inkscape:window-maximized="1"
     inkscape:current-layer="g8" />
  <g
     inkscape:groupmode="layer"
     inkscape:label="Image"
     id="g8">
    <path
       id="path12"
       style="fill:#000000"
       d="m 170.77734,12.835938 c -3.60034,0.026 -7.13203,0.244928 -10.14843,0.697265 l -4.63086,0.693359 0.46875,4.636719 c 1.12552,11.13009 1.54584,12.271962 4.39843,11.941407 2.13397,-0.247283 2.69238,-0.894454 2.9375,-3.410157 l 0.30274,-3.105469 9.69726,0.34375 c 12.8784,0.455533 21.53198,2.762845 27.10547,7.228516 4.99013,3.998262 4.22722,4.851225 -2.83008,3.158203 -8.48337,-2.035129 -16.86979,-1.544349 -23.45312,1.375 C 167.56865,39.523636 166,39.634179 166,37 c 0,-1.613849 -0.66691,-2 -3.45312,-2 h -3.45313 l 0.58203,5.25 c 0.31998,2.8875 0.86152,5.556033 1.20313,5.929688 0.72075,0.788367 9.51978,-1.370204 14.32617,-3.513672 C 181.72531,39.758235 185.42441,39 193.06836,39 201.12914,39 204,39.561505 204,41.136719 c 0,0.507336 -1.6875,3.143458 -3.75,5.859375 -2.0625,2.715916 -5.325,7.237576 -7.25,10.046875 -1.925,2.809299 -5.86058,8.112098 -8.74609,11.783203 -2.88552,3.671105 -5.96376,8.177064 -6.83985,10.013672 -0.87609,1.836607 -2.42154,4.167646 -3.43554,5.18164 -1.01399,1.013994 -2.47426,3.046213 -3.24414,4.515625 -1.19052,2.27217 -2.11197,2.700221 -6.16211,2.861329 -3.16862,0.126041 -5.06062,0.722353 -5.6543,1.783203 -0.49075,0.876913 -1.96584,1.864193 -3.27735,2.193359 -1.31146,0.329166 -4.05633,2.449276 -6.0996,4.71094 -3.47567,3.84715 -3.68645,4.44453 -3.26368,9.26367 0.24854,2.83307 0.76686,6.06992 1.15039,7.19336 0.5007,1.46664 -0.40742,3.72244 -3.2207,8 -2.15495,3.27656 -6.67713,10.23203 -10.04883,15.45703 -3.3717,5.225 -7.3641,11.2888 -8.87109,13.47461 -1.50698,2.18582 -4.02345,6.68582 -5.59375,10 l -2.85547,6.02539 -1.83984,-2.26367 c -1.01201,-1.24486 -2.0006,-2.74007 -2.19532,-3.32422 -0.40526,-1.21579 -5.80273,-0.1676 -5.80273,1.12695 0,0.45224 -1.0125,2.40976 -2.25,4.34961 -1.5184,2.38019 -3.02416,3.53976 -4.63086,3.56836 -2.157166,0.0384 -2.326904,0.37111 -1.812499,3.54102 0.453557,2.79494 0.178206,3.70704 -1.369141,4.53515 -2.024794,1.08364 -2.56376,3.8912 -1.058594,5.51758 0.483558,0.5225 1.403138,2.58962 2.042969,4.59375 1.207872,3.78339 0.609353,5.53727 -4.605469,13.49609 -1.59293,2.43112 -1.551032,2.59202 1.269532,4.95899 1.603267,1.34544 5.039114,4.24985 7.636722,6.45508 l 4.72265,4.00976 0.66602,-2.7832 C 109.10127,211.06112 113.34044,203 115.12109,203 c 2.7095,0 6.87891,2.16274 6.87891,3.56836 0,2.30131 5.43242,11.74934 8.82422,15.3457 1.84705,1.95844 3.74624,4.28312 4.21875,5.16602 2.59923,4.85669 28.79225,9.18982 32.92773,5.44726 1.11463,-1.00872 2.66162,-1.49981 3.59766,-1.14062 0.90305,0.34653 3.50718,0.14134 5.78711,-0.45703 2.27993,-0.59838 5.94453,-1.54616 8.14453,-2.10547 2.2,-0.55932 5.49309,-1.65625 7.31836,-2.4375 1.82527,-0.78127 3.73777,-1.16033 4.25,-0.84375 0.51223,0.31657 0.93164,0.10226 0.93164,-0.47656 0,-0.57882 1.125,-0.0745 2.5,1.12109 1.375,1.19555 2.5,2.94558 2.5,3.88867 0,0.94308 1.17098,2.77313 2.60156,4.06836 1.43058,1.29523 5.00961,4.71797 7.95508,7.60547 2.94547,2.8875 6.22787,5.25 7.29297,5.25 1.0651,0 2.19721,0.67805 2.51562,1.50781 0.3184,0.82976 1.82949,2.05268 3.35743,2.7168 1.52793,0.66412 4.16918,2.23606 5.87109,3.49219 1.70192,1.25612 4.08023,2.2832 5.28516,2.2832 2.79135,0 7.12109,2.80606 7.12109,4.61523 0,0.76174 -0.3638,1.38477 -0.80859,1.38477 -0.77945,0 -5.5009,9.77315 -8.21289,17 -0.72239,1.925 -1.63758,3.95 -2.03321,4.5 -0.39564,0.55 -1.0499,3.0071 -1.45508,5.46094 -0.40519,2.45385 -1.11141,5.15385 -1.56835,6 -0.45698,0.84616 -1.84169,3.78906 -3.07618,6.53906 -1.23449,2.75 -2.4175,5.3375 -2.6289,5.75 -0.21141,0.4125 0.60908,0.75 1.82226,0.75 1.62932,0 1.94491,0.32668 1.20899,1.25 -0.54797,0.6875 -1.30054,3.35044 -1.67188,5.91797 -0.37133,2.56753 -1.26199,5.15567 -1.98047,5.75195 -0.71847,0.59629 -1.86987,5.02084 -2.55859,9.83203 -1.62253,11.33441 -0.53982,15.88483 4.7207,19.83008 10.7854,8.08876 20.98371,18.66192 25.98242,26.93945 4.33354,7.17606 14.62798,18.47852 16.83008,18.47852 2.373,0 6.96263,6.60083 9.83008,14.13477 2.64064,6.93801 3.21993,7.71983 6.44922,8.71093 1.95136,0.59889 3.72246,0.91423 3.93555,0.70118 0.21308,-0.21308 -1.36242,-2.60189 -3.50196,-5.3086 -2.13953,-2.70672 -4.71619,-7.13024 -5.72656,-9.83008 -2.35812,-6.30123 -2.58793,-6.5661 -11.2793,-13.10742 -4.02506,-3.02935 -7.82064,-6.44868 -8.43554,-7.59766 -0.6149,-1.14893 -2.22148,-3.2401 -3.57032,-4.64648 -1.34883,-1.40637 -3.25205,-4.35664 -4.22851,-6.55664 -0.97645,-2.2 -4.1181,-6.25 -6.98047,-9 -18.67135,-17.93833 -19.61437,-19.15312 -20.17773,-26 -0.38509,-4.68026 1.52142,-13.2966 4.21679,-19.06641 1.04461,-2.23615 1.89844,-5.01735 1.89844,-6.18164 0,-2.82346 2.54626,-3.49088 10.1875,-2.66797 16.09796,1.73357 36.01642,0.27632 37.95312,-2.77734 0.62343,-0.98297 0.83223,-1.00026 0.84376,-0.0684 0.008,0.68121 -0.64056,2.03121 -1.44336,3 -0.8028,0.96879 -3.74838,4.91172 -6.54493,8.76172 -4.74017,6.5258 -10.12367,12.88822 -20.91406,24.7207 -3.11282,3.41344 -4.10275,5.15702 -3.35547,5.9043 1.48988,1.48988 6.13108,-1.70621 6.89453,-4.74805 0.67478,-2.68852 2.15714,-3.11923 3.01758,-0.87695 0.31659,0.825 1.18658,1.5 1.9336,1.5 0.74702,0 2.83594,1.2563 4.64257,2.79297 4.5495,3.86966 8.42421,6.20703 10.29297,6.20703 0.86846,0 1.44833,0.5753 1.28711,1.27734 -0.16121,0.70204 1.33008,3.51454 3.31446,6.25 1.98439,2.73546 5.82999,9.24766 8.54687,14.47266 2.71687,5.225 5.42871,10.4 6.02539,11.5 2.65771,4.89961 3.29783,7.03768 5.29688,17.68359 0.95966,5.11062 2.26686,8.00639 4.84765,10.74414 7.59226,8.05402 10.95446,13.69356 9.20508,15.4375 -0.72483,0.72258 -5.93336,1.16495 -14.33398,1.21875 -7.25805,0.0465 -16.79727,0.61326 -21.19727,1.25977 -16.77844,2.46531 -19.5,2.14431 -19.5,-2.30664 0,-2.16779 0.54084,-2.45623 5.75,-3.07031 3.1625,-0.37282 6.65,-1.23851 7.75,-1.92188 1.1,-0.68336 3.68149,-1.79325 5.73633,-2.4668 4.29627,-1.40818 6.44013,-3.68087 2.66211,-2.82226 -1.31924,0.29981 -4.86754,1.48961 -7.88477,2.64453 -3.01724,1.15493 -7.79903,2.09961 -10.62695,2.09961 -3.36324,0 -5.57564,0.5211 -6.39453,1.50781 -1.67617,2.01966 -0.59756,8.3271 1.71289,10.02149 2.03459,1.49208 15.74172,1.21781 22.06054,-0.44141 4.65716,-1.22288 15.5402,-1.51449 24.73438,-0.66211 5.99939,0.55619 7.46457,0.36086 10.25,-1.37305 1.7875,-1.11271 3.25,-2.72312 3.25,-3.57812 0,-2.90663 -4.23514,-9.95852 -9.07812,-15.11523 -2.6556,-2.82761 -5.10267,-6.42762 -5.4375,-8 -1.69007,-7.93654 -8.15186,-29.61549 -10.0918,-33.85938 -0.63596,-1.39124 -6.35621,-10.47112 -9.53125,-15.12891 -1.45116,-2.12885 -4.09637,-4.99609 -5.87891,-6.37109 -1.78254,-1.375 -5.18215,-4.3 -7.55469,-6.5 -2.37254,-2.2 -5.34041,-4.7268 -6.5957,-5.61523 l -2.2832,-1.61524 4.47656,-5.63867 c 2.46152,-3.10105 5.45582,-7.09926 6.6543,-8.88477 1.19848,-1.78552 3.27251,-4.59609 4.60937,-6.24609 1.33686,-1.65 3.12743,-4.36005 3.97852,-6.02148 2.37563,-4.63751 6.60678,-8.36414 10.27734,-9.05274 6.01818,-1.12902 10.66969,-11.07947 9.7832,-20.92578 -0.50562,-5.61611 -2.86958,-17.51856 -4.07226,-20.5 C 295.61594,258.93475 294,251.23089 294,247.47461 v -3.49805 l 4.25,0.60156 c 2.3375,0.33075 5.6,0.98586 7.25,1.45704 1.65,0.47118 5.1375,1.15838 7.75,1.52539 2.6125,0.36702 4.75,1.06518 4.75,1.55273 0,0.48755 0.69952,0.88672 1.55469,0.88672 1.56887,0 7.76385,2.56023 14.72656,6.08594 2.07944,1.05296 4.44194,1.91406 5.25,1.91406 1.81635,0 1.81486,0.10631 -0.0254,3.63477 -0.82161,1.57537 -1.50588,4.21523 -1.52148,5.86523 -0.0156,1.65 -0.90884,4.125 -1.98438,5.5 -2.33004,2.97878 -2.47447,4.36094 -0.61719,5.90234 0.76046,0.63113 2.37722,4.39933 3.59375,8.37305 1.21653,3.97372 2.59371,8.12461 3.06055,9.22461 0.46683,1.1 1.17155,4.025 1.56445,6.5 0.77329,4.87113 0.85268,5.52603 1.7793,14.48633 0.80974,7.82999 2.40994,12.51367 4.27539,12.51367 1.12874,0 1.34834,-0.70365 0.88086,-2.83203 -0.52616,-2.39563 -0.77495,-13.0493 -0.42383,-18.16797 0.20829,-3.03648 -3.40144,-15.57624 -7.19726,-25 -3.0637,-7.60616 -3.14416,-8.77759 -0.98633,-14.54492 C 343.06791,266.41299 344,263.04226 344,261.96289 344,260.22932 344.70466,260 350.04492,260 c 5.0853,0 6.4353,-0.39037 8.5,-2.45508 3.00016,-3.00015 3.10972,-5.48263 0.37891,-8.64258 -2.2498,-2.60336 -3.01858,-3.05092 -17.38086,-10.16015 -5.28709,-2.61708 -9.86877,-5.42958 -10.18359,-6.25 C 331.04453,231.67177 330.11018,231 329.28516,231 c -0.82503,0 -4.26395,-1.29713 -7.64258,-2.88281 -3.37863,-1.58568 -7.94258,-3.68414 -10.14258,-4.66407 -2.2,-0.97991 -4.9,-2.54125 -6,-3.46874 -1.1,-0.92753 -4.25,-2.47358 -7,-3.43555 C 283.0598,211.1477 284.37938,212.01699 282.48633,206 c -0.95172,-3.025 -2.01469,-5.725 -2.36328,-6 -0.34859,-0.275 -2.51724,-2.975 -4.81836,-6 -10.72904,-14.10412 -25.15478,-26.7908 -36.80469,-32.36914 -12.56539,-6.0167 -14.53535,-6.68178 -16.56836,-5.59375 -2.57698,1.37916 -3.53938,0.6819 -4.94531,-3.57813 -0.89484,-2.71137 -2.27242,-4.07762 -6.03906,-5.98632 C 208.26311,145.11249 205.18111,144 204.09961,144 c -1.51265,0 -1.94687,-0.65454 -1.88477,-2.83984 0.18235,-6.41364 -8.59159,-13.32618 -16.91406,-13.32618 -3.75567,0 -4.3457,-0.26182 -3.78125,-1.66796 2.00548,-4.99598 2.19283,-12.81999 0.44336,-18.48633 l -1.79687,-5.82031 2.72265,-2.679692 C 184.38661,97.705982 188.28144,92.225 191.54297,87 c 3.26153,-5.225 8.86093,-13.433706 12.44336,-18.242188 3.58243,-4.808478 7.78623,-10.77098 9.34179,-13.25 C 214.88374,53.028793 216.79622,51 217.57812,51 218.36003,51 219,50.48213 219,49.849609 c 0,-0.632522 1.35241,0.717478 3.00586,3 C 223.65931,55.13213 225.43931,57 225.96094,57 c 0.52163,0 1.25336,-1.6875 1.625,-3.75 0.37163,-2.0625 1.10416,-4.292742 1.6289,-4.955078 C 231.0844,45.935164 234,39.548899 234,37.8125 c 0,-1.459076 -1.25773,-2.629741 -5.79102,-5.384766 -0.15984,-0.09714 0.63195,-1.738868 1.75977,-3.65039 l 2.05078,-3.476563 -6.70703,-5.15039 C 221.62332,17.317596 218.09091,15 217.46289,15 c -0.62802,0 -1.65911,1.134539 -2.29101,2.521484 -1.04858,2.301303 -0.86555,2.69414 2.08984,4.496094 1.78115,1.085999 3.74507,1.976416 4.36523,1.978516 2.38594,0.0079 3.72753,2.92909 2.54102,5.533203 C 222.7181,32.711422 221.89801,32.641285 218,29 c -1.76633,-1.65 -3.60354,-3 -4.08203,-3 -0.4785,0 -2.2401,-1.505945 -3.91602,-3.347656 -3.88182,-4.265828 -10.16141,-6.354839 -13.04101,-4.337891 -1.79729,1.25887 -1.84211,1.538692 -0.44141,2.701172 0.85954,0.713349 3.90439,2.382452 6.76758,3.708984 2.86318,1.326531 5.88219,2.998708 6.70898,3.714844 0.82679,0.716135 3.52891,2.433018 6.00391,3.816406 14.70635,8.220043 14.22599,7.856162 12.29297,9.322266 -0.98563,0.747557 -2.15291,1.373135 -2.5918,1.390625 -0.43888,0.01749 -1.90281,1.26875 -3.2539,2.78125 -1.35109,1.5125 -2.20792,2.031578 -1.9043,1.154297 0.58734,-1.6971 -3.75946,-5.47929 -8.83008,-7.683594 -2.28921,-0.995166 -2.61105,-1.540418 -1.80273,-3.050781 0.84684,-1.582324 -0.15628,-2.594842 -7.18164,-7.253906 C 191.88643,21.725775 187.96122,20.56997 174.22461,20.53125 164.75135,20.50455 162.99443,20.260194 163.23633,19 c 0.50981,-2.655762 10.58484,-3.469931 19.84765,-1.603516 8.15593,1.643385 9.91602,1.508472 9.91602,-0.765625 0,-2.222808 -11.42163,-3.872921 -22.22266,-3.794921 z m 38.42578,29.185546 c 1.97024,-0.06102 5.42868,2.353518 6.4375,4.494141 1.05825,2.245462 0.82673,2.605684 -3.18554,4.957031 -3.20274,1.876931 -5.65229,4.677582 -9.4336,10.78125 C 200.21192,66.789007 196.10092,72.975 193.88672,76 c -2.21419,3.025 -4.75859,6.625 -5.6543,8 -0.89571,1.375 -4.20245,6.1 -7.34765,10.5 -6.54568,9.15711 -9.05643,11.20411 -10.94727,8.92578 -1.97142,-2.37541 0.33055,-6.300541 14.23633,-24.273436 4.01711,-5.192025 14.0197,-20.229904 20.32617,-30.558594 2.2,-3.603142 4.31651,-6.560296 4.70312,-6.572266 z m 214.44922,37.833985 c -7.3e-4,0.097 -9e-4,0.194002 -0.002,0.291015 0.47082,0.154094 0.90872,0.315276 1.36328,0.470704 -0.28434,-0.232901 -0.81239,-0.497296 -1.36133,-0.761719 z M 165.97266,95.048828 C 167.06243,94.947872 168,95.398895 168,96.474609 c 0,0.810876 -1.35,2.172143 -3,3.025391 -3.18454,1.64679 -3.79364,0.85075 -1.96484,-2.566406 0.60574,-1.13183 1.84773,-1.78381 2.9375,-1.884766 z m -7.98243,3.992188 c 1.08421,-0.155237 2.00642,0.04321 1.97852,0.708984 -0.0173,0.4125 -1.1147,1.53864 -2.43945,2.50195 -2.69165,1.95727 -4.5159,0.6435 -2.49219,-1.79492 0.62329,-0.75102 1.86892,-1.260777 2.95312,-1.416014 z m 5.42188,4.773434 c 1.19591,0.0721 2.49236,0.68903 3.91406,1.85938 3.28752,2.70629 4.94384,2.91068 6.67383,0.82617 0.68469,-0.825 1.8654,-1.5 2.62305,-1.5 1.05346,0 1.37695,1.85277 1.37695,7.875 0,10.72431 -0.80133,14.45948 -2.88672,13.46484 -0.88772,-0.4234 -3.63828,-0.78157 -6.11328,-0.79687 -2.475,-0.0153 -6.01624,0.35373 -7.86914,0.82031 l -3.36914,0.84766 1.86914,-3.20313 c 1.0279,-1.76184 3.23897,-4.41357 4.91211,-5.89258 l 3.04101,-2.68945 -3.79296,-5.46289 c -3.73308,-5.37742 -3.7562,-5.47115 -1.54102,-6.03906 0.37729,-0.0967 0.76347,-0.13339 1.16211,-0.10938 z M 152.75,105.00391 c 0.4125,0.002 2.90373,1.95775 5.53711,4.3457 4.17056,3.78185 4.58965,4.50733 3.25,5.61914 C 160.69123,115.67077 160,117.0904 160,118.12305 160,119.15571 159.58717,120 159.08203,120 c -0.50514,0 -1.83546,1.4625 -2.95508,3.25 -1.11962,1.7875 -3.0767,4.375 -4.34961,5.75 -1.27291,1.375 -5.86203,8.35 -10.19922,15.5 -13.06218,21.53352 -14.48142,23.76683 -16.46874,25.92578 -1.0503,1.14097 -2.12647,2.97422 -2.39258,4.07422 -0.2661,1.1 -0.53777,1.49054 -0.60157,0.86719 -0.0638,-0.62335 -1.06603,-1.3835 -2.22851,-1.6875 l -2.11328,-0.55274 2.11328,-2.96679 C 121.0492,168.52761 122,166.76199 122,166.23633 c 0,-0.52566 1.61321,-2.66806 3.58594,-4.75977 1.97273,-2.0917 4.84266,-6.39515 6.37695,-9.5625 1.53429,-3.16735 3.74607,-7.09994 4.91406,-8.74023 1.16799,-1.64028 2.12305,-3.28467 2.12305,-3.6543 0,-1.09082 9.94765,-15.62771 14.13672,-20.6582 C 155.2613,116.31 157,113.79753 157,113.2793 c 0,-0.51823 -1.125,-1.54342 -2.5,-2.2793 -2.30201,-1.232 -3.69569,-6.00729 -1.75,-5.99609 z m -2.53516,7.44726 c 0.275,-0.275 1.07841,0.19725 1.78516,1.04883 0.7068,0.85158 1.06016,1.77383 0.78516,2.04883 -0.275,0.275 -1.07841,-0.19725 -1.78516,-1.04883 -0.7068,-0.85158 -1.06016,-1.77383 -0.78516,-2.04883 z m 22.47461,15.97656 c 6.6049,0.18568 11.84062,3.27662 16.17774,9.37891 2.7607,3.88428 2.20672,5.12667 -1.27149,2.84766 -7.00582,-4.59039 -16.96962,-8.61243 -18.22461,-7.35742 -0.34064,0.34062 2.02304,1.7711 5.25391,3.17968 11.09382,4.83664 15.375,6.99711 15.375,7.75977 0,0.42016 0.675,0.76367 1.5,0.76367 0.825,0 1.5,0.49857 1.5,1.10742 0,0.60884 0.64565,0.8578 1.43555,0.55469 1.50907,-0.57909 6.56445,2.81725 6.56445,4.41016 0,1.61867 -2.22847,0.91873 -13.5,-4.2461 -6.05,-2.77223 -12.8,-5.86172 -15,-6.86523 -2.2,-1.00351 -7.27544,-2.92381 -11.2793,-4.26563 l -7.27929,-2.43945 5.27929,-2.04688 c 5.05082,-1.95815 9.50581,-2.89265 13.46875,-2.78125 z m 15.81641,3.36915 3.58594,1.70898 c 2.45918,1.1727 4.02717,2.85336 4.99218,5.35156 0.77376,2.00307 1.55808,3.98008 1.74414,4.39258 0.41875,0.92824 -2.24692,0.99911 -3.1621,0.084 C 195.29935,142.96707 195,141.87335 195,140.9043 c 0,-0.96905 -0.5625,-2.36937 -1.25,-3.11328 -0.6875,-0.7439 -2.14779,-2.3976 -3.24609,-3.67383 z m -36.84375,3.50195 c 0.69176,-0.26545 3.83498,0.41038 6.98437,1.5 5.46546,1.89092 5.78709,2.19594 7.09961,6.69726 0.75632,2.59382 1.16399,4.92781 0.9043,5.1875 C 165.96373,149.37007 161,141.8021 161,140.06836 c 0,-1.02329 -0.31834,-1.15041 -1.04883,-0.41992 -0.7305,0.7305 -0.67968,1.85131 0.16406,3.70312 0.66567,1.46099 0.90713,2.96005 0.53711,3.33008 -0.78303,0.78302 -3.06658,-1.99397 -4.87695,-5.93164 C 154.57908,138.14796 153,137.04553 153,138.8125 c 0,0.44669 0.93179,2.73924 2.07031,5.0957 2.25638,4.67016 2.24158,4.90547 -0.26367,4.34571 -3.03036,-0.67709 -5.76623,-11.94904 -3.14453,-12.95508 z m -4.07227,4.10742 c 0.74231,0.0524 1.41016,0.78321 1.41016,1.75977 0,0.45833 -0.42387,0.83398 -0.94141,0.83398 -1.35726,0 -2.24906,-1.76511 -1.21484,-2.4043 0.24175,-0.14941 0.49866,-0.20693 0.74609,-0.18945 z m 21.18164,1.77148 c 1.59891,-0.32127 4.60249,1.92343 4.79102,3.90625 0.12636,1.32903 0.5529,3.42852 0.94922,4.66602 0.5214,1.62806 0.32147,2.25 -0.72461,2.25 -1.47009,0 -6.56077,-9.56033 -5.60156,-10.51953 0.15882,-0.15882 0.35752,-0.25684 0.58593,-0.30274 z m -20.55468,1.90235 c 0.78209,0.26702 3.7832,4.09707 3.7832,5.03125 0,0.48907 -0.37813,0.88867 -0.83984,0.88867 -0.8197,0 -3.19306,-4.39995 -3.12696,-5.79688 0.006,-0.12604 0.0719,-0.16119 0.1836,-0.12304 z m -3.30469,0.33594 c 0.29756,0.19716 0.60798,0.82029 1.03125,1.93359 0.58158,1.52967 1.05664,3.20064 1.05664,3.71484 0,0.51419 -0.9,0.93555 -2,0.93555 -2.17449,0 -2.74689,-3.27272 -1.04297,-5.9668 0.37118,-0.58687 0.65752,-0.81435 0.95508,-0.61718 z m 33.07227,1.82226 c 2.14698,0.34257 8.00597,4.58585 8.46874,6.42969 0.30064,1.19778 2.15247,4.28215 4.11524,6.85351 1.96276,2.57136 3.3942,4.84799 3.18164,5.06055 -0.86629,0.86629 -8.80977,-8.10593 -9.9375,-11.22461 C 183.14482,150.5108 182.23834,149 181.79883,149 c -1.30823,0 -0.91126,2.39474 0.80273,4.8418 2.29647,3.27867 1.15497,3.6413 -1.88672,0.59961 -2.44026,-2.44026 -4.50943,-7.97886 -3.39648,-9.0918 0.12866,-0.12866 0.35929,-0.16027 0.66602,-0.11133 z M 205.44336,148 c 1.46329,0 7.46488,4.95924 8.625,7.12695 1.95441,3.65186 0.41108,2.92886 -4.5918,-2.15039 C 206.7804,150.23923 204.96595,148 205.44336,148 Z m -46.87695,2.33203 c 1.86214,-0.0451 3.3484,0.0798 3.99804,0.44336 1.64449,0.92031 1.41851,1.13679 -1.80859,1.74219 -5.27777,0.99012 -6.35144,2.64865 -4.78516,7.39453 1.16825,3.53982 1.62985,3.89763 5.75391,4.46289 4.36348,0.59809 10.27539,-1.47606 10.27539,-3.60547 0,-1.98357 -6.34462,-4.58971 -9.87695,-4.05664 -4.50709,0.68018 -3.16191,-1.35591 1.51367,-2.29101 2.51977,-0.50399 3.73121,-0.0379 6.71289,2.58007 2.878,2.52691 3.75732,2.88131 4.21094,1.69922 0.48442,-1.26239 1.49369,-1.09623 6.50586,1.06641 3.26307,1.40794 5.93359,2.93653 5.93359,3.39648 0,0.45996 0.675,0.83594 1.5,0.83594 0.825,0 1.50186,0.3375 1.50586,0.75 0.0148,1.62014 11.50958,8.03958 14.74414,8.23438 1.36774,0.0824 -0.61819,-2.98294 -4.5,-6.94727 -4.92774,-5.03251 -10.14382,-13.47727 -9.01953,-14.60156 0.3545,-0.3545 1.91015,-0.18301 3.45703,0.38086 1.5469,0.56387 2.25,1.06207 1.5625,1.10547 -2.22084,0.14026 -1.33513,2.71999 2.39258,6.97265 4.2849,4.88831 5.72261,4.76054 1.95898,-0.17383 -3.1083,-4.07519 -3.23301,-5.31277 -0.66797,-6.68554 3.94814,-2.11298 5.93817,-1.19677 9.69727,4.46484 2.00848,3.025 3.83039,5.5 4.04687,5.5 0.21649,0 1.51066,-0.73171 2.87696,-1.62695 3.42329,-2.24302 8.317,-1.27868 15.64062,3.08398 3.27089,1.94846 6.50678,3.54297 7.18946,3.54297 0.68268,0 2.56233,1.39073 4.17773,3.08984 1.6154,1.6991 4.2875,3.78593 5.9375,4.63868 4.98419,2.57593 17.83837,15.0799 24.4375,23.77148 2.08796,2.75 4.51788,7.17955 5.40039,9.84375 l 1.60547,4.84375 -4.1543,7.65625 c -2.28498,4.2108 -4.8609,9.02956 -5.72265,10.70898 -3.10362,6.04852 -8.52973,12.5571 -13.76758,16.51172 -2.93566,2.21644 -5.74867,3.77664 -6.25,3.4668 -0.50133,-0.30984 -1.16476,-0.15368 -1.47461,0.34766 -0.30984,0.50134 0.13746,1.18102 0.99414,1.50976 1.52313,0.58448 4.73178,-0.81446 9.11914,-3.97461 2.1457,-1.54584 2.18845,-1.50314 2.14062,2.25391 -0.0268,2.10711 0.54253,5.85703 1.26563,8.33203 0.72311,2.475 1.35309,5.175 1.40039,6 0.0473,0.825 0.61644,3.3 1.26367,5.5 2.38095,8.09316 4.24219,17.2263 4.24219,20.81445 0,3.35138 1.17853,4.82562 2.3457,2.93555 1.1163,-1.80768 -4.89712,-33.78614 -8.47461,-45.07031 -0.87106,-2.74751 -0.75059,-3.65446 0.69336,-5.25 0.96002,-1.06081 2.01565,-1.92969 2.34571,-1.92969 0.33006,0 1.64009,2.8125 2.91211,6.25 1.27202,3.4375 3.18341,8.0991 4.24609,10.35938 1.06268,2.26024 1.93164,4.62895 1.93164,5.26367 0,0.63472 0.40839,1.93558 0.9082,2.89062 1.20469,2.30191 4.29091,17.99768 4.22461,21.48633 -0.0355,1.86873 0.45678,2.75 1.53711,2.75 1.7051,0 1.68446,-0.52907 -0.60547,-15.21875 -1.02346,-6.56544 -7.1502,-24.10916 -11.17383,-31.99609 l -2.01953,-3.95704 5.41602,-8.16406 c 2.97867,-4.4904 6.4413,-10.33731 7.69336,-12.99414 1.25205,-2.65682 2.86757,-5.05803 3.5918,-5.33594 0.72423,-0.27791 3.25529,0.80747 5.62304,2.41211 2.36775,1.60464 4.97969,3.2248 5.80469,3.59961 0.825,0.37481 3.75,1.9234 6.5,3.44141 8.99543,4.96551 10.90853,5.97174 18.5,9.73242 4.125,2.04345 11.325,5.61745 16,7.94336 4.675,2.32591 10.14825,4.77037 12.16211,5.43164 4.55688,1.49629 5.58239,3.80628 2.88672,6.50195 -3.08226,3.08226 -8.35929,2.33371 -20.02344,-2.83789 C 327.36989,249.05107 321.98436,247 321.05859,247 c -0.92576,0 -3.54553,-0.9 -5.82226,-2 -2.27674,-1.1 -4.72344,-2.00567 -5.4375,-2.01367 -0.71407,-0.008 -3.25316,-0.69712 -5.64258,-1.5293 -6.81898,-2.37488 -10.2077,-1.23209 -12.95117,4.36328 l -2.29492,4.67969 2.89062,10.5 c 4.9943,18.14341 7.12489,34.05583 4.80078,35.85156 -0.60593,0.46817 -3.57656,1.6247 -6.60156,2.56836 -3.025,0.94366 -7.525,2.40825 -10,3.25586 -2.475,0.8476 -6.15789,1.69203 -8.18359,1.875 -2.02571,0.18297 -6.04502,1.0334 -8.93164,1.89063 -5.9694,1.77272 -6.47321,1.79636 -9.82618,0.45703 -1.34251,-0.53626 -3.59251,-0.86039 -5,-0.72071 -1.40749,0.13968 -5.30728,-0.10627 -8.66797,-0.54492 l -6.11132,-0.79687 2.22656,-7.66797 c 1.22465,-4.21741 2.7051,-9.91797 3.29102,-12.66797 0.58584,-2.75 2.66282,-9.69809 4.61328,-15.43945 1.95047,-5.74136 3.3342,-10.65017 3.07617,-10.90821 -0.25804,-0.25803 0.0168,-1.0516 0.60937,-1.76562 1.49045,-1.79588 0.25868,-3.38672 -2.62304,-3.38672 -2.08728,0 -6.27977,-1.67538 -12.70899,-5.08008 C 230.80863,247.41417 229.52377,247 228.9082,247 c -0.61556,0 -2.53428,-1.15032 -4.26367,-2.55664 C 219.37426,240.15766 201,222.82175 201,222.13477 c 0,-0.35444 1.4625,-1.13889 3.25,-1.74219 1.7875,-0.60329 4.0375,-1.43643 5,-1.85156 1.26378,-0.54507 1.75,-0.29671 1.75,0.89257 0,3.71883 4.36911,9.68309 13.45898,18.37305 5.28876,5.05608 10.29946,9.19336 11.13282,9.19336 0.83336,0 3.16986,1.125 5.19336,2.5 3.76884,2.561 7.90361,3.42397 6.64453,1.38672 -0.37844,-0.61232 -2.73858,-2.02166 -5.2461,-3.13086 -2.92119,-1.29218 -8.18591,-5.6525 -14.65234,-12.13672 -11.72763,-11.75989 -15.98731,-17.07103 -14.98828,-18.6875 0.39256,-0.63517 3.24385,-2.26747 6.33594,-3.62695 3.09209,-1.35948 6.57219,-3.35437 7.73437,-4.4336 1.16217,-1.07922 2.51217,-1.82862 3,-1.66601 1.56182,0.52061 1.71203,-1.59715 0.18164,-2.5625 -1.04147,-0.65694 -2.62022,-0.15372 -5.36719,1.71289 -2.14033,1.45439 -4.60987,2.64453 -5.48632,2.64453 -0.87645,0 -2.64966,1.125 -3.94141,2.5 -1.29175,1.375 -3.00493,2.5 -3.80664,2.5 -0.80171,0 -2.86125,0.8409 -4.57617,1.86914 -1.71491,1.02823 -5.25469,2.66523 -7.86719,3.63672 -2.6125,0.97148 -4.75,2.15558 -4.75,2.63086 0,0.47528 -1.32387,0.86328 -2.94141,0.86328 -1.61754,0 -3.18562,0.39824 -3.48632,0.88477 -0.30069,0.48654 -2.69129,1.2049 -5.31055,1.59765 -2.61927,0.39274 -5.66172,1.2119 -6.76172,1.82031 -1.1,0.60841 -2.7633,0.99171 -3.69531,0.84961 -0.93202,-0.1421 -3.58917,0.25108 -5.90625,0.875 -3.15838,0.85047 -6.27039,0.84291 -12.42969,-0.0312 -10.78047,-1.53029 -14.66408,-4.23616 -26.81055,-18.66992 -1.79388,-2.13169 -1.75026,-2.3287 2.26758,-10.29687 2.7113,-5.37705 4.4155,-10.38767 5.04297,-14.81836 0.87258,-6.16154 0.76285,-7.01019 -1.39844,-10.66992 l -2.34961,-3.97657 4.03711,-6.0332 c 6.73778,-10.07051 6.47564,-9.90469 9.77539,-6.14648 1.99038,2.26692 3.05647,4.81514 3.53907,8.45312 0.37995,2.8642 1.06214,5.43653 1.51562,5.7168 0.45349,0.28027 0.57154,1.16917 0.26172,1.97656 -0.37955,0.98907 0.088,1.46875 1.43555,1.46875 2.46249,0 3.34901,2.07917 2.5625,6.01172 -0.34692,1.73463 -0.1758,2.98828 0.4082,2.98828 0.55349,0 2.30741,1.32974 3.89648,2.95508 1.58907,1.62534 4.56795,3.65663 6.61914,4.51367 4.42216,1.8477 4.76449,3.27453 0.97852,4.07227 -1.5125,0.3187 -3.53129,1.00275 -4.48633,1.51953 -0.95504,0.51678 -2.36097,0.93945 -3.125,0.93945 -1.45983,0 -10.47943,-3.76674 -16.95508,-7.08203 -2.09874,-1.07447 -4.26487,-1.67755 -4.81445,-1.33789 -1.27442,0.78763 1.91324,4.41992 3.87891,4.41992 0.7905,0 2.58009,0.9 3.97851,2 1.39842,1.1 3.36138,2 4.36133,2 0.99994,0 2.92786,0.50552 4.2832,1.12305 2.10592,0.95952 2.3841,1.61363 1.91602,4.49804 -0.30124,1.85637 0.0314,5.51336 0.74023,8.12696 1.61438,5.95218 5.68573,14.25195 6.99024,14.25195 1.46245,0 1.18886,-1.58378 -0.51758,-3 -0.825,-0.68469 -1.5,-2.22422 -1.5,-3.42188 0,-1.19766 -0.44756,-2.62529 -0.99414,-3.17187 -0.54658,-0.54658 -1.27553,-3.69969 -1.62109,-7.00586 -0.5884,-5.62944 -0.47157,-6.11328 1.85351,-7.63672 l 2.48242,-1.62695 0.58594,6.97266 c 0.58708,7.00271 4.58987,17.89062 6.57813,17.89062 1.88075,0 2.19628,-1.94427 0.76367,-4.7207 -1.19515,-2.31621 -3.41704,-10.38823 -5.12305,-18.61133 -0.40978,-1.97517 2.99557,-3.82888 9.47461,-5.1582 4.64615,-0.95327 18.73253,-7.54202 24.26953,-11.35157 2.43274,-1.67377 5.57514,-3.33234 6.98242,-3.68554 1.40728,-0.35321 3.58011,-1.72817 4.82813,-3.05664 2.2742,-2.42077 7.91992,-3.41941 7.91992,-1.4004 0,0.5589 1.6875,1.79643 3.75,2.75 2.0625,0.95361 4.34774,2.29914 5.07812,2.99024 0.73038,0.6911 2.13373,1.68942 3.11915,2.2168 2.75134,1.47248 5.05273,7.29225 5.05273,12.77929 0,7.91409 1.48467,10.92871 5.7793,11.73438 4.04559,0.75895 6.61819,2.39911 14.62304,9.32617 8.05473,6.97022 11.07011,10.91319 9.6543,12.61914 -0.84412,1.01704 -0.85431,1.57615 -0.0391,2.08008 1.74954,1.08127 2.27608,-0.13707 1.60351,-3.71484 -1.41806,-7.54357 -19.96462,-25.32643 -25.4707,-24.42188 -2.28641,0.37561 -2.33302,0.2408 -1.6875,-4.92578 0.47014,-3.76282 0.18947,-6.71425 -0.96289,-10.12891 C 236.93626,186.68611 231.684,180 229.60742,180 c -0.55004,0 -2.66784,-1.15716 -4.70703,-2.57031 -2.91864,-2.02263 -5.05673,-2.60781 -10.04883,-2.75 -5.70397,-0.16247 -6.44196,0.0465 -7.33398,2.07031 -0.54545,1.2375 -1.45394,2.25 -2.01953,2.25 -0.56558,0 -3.04718,1.12841 -5.51367,2.50781 C 191.13868,186.45482 180.02344,192 178.95312,192 c -0.59971,0 2.54098,-3.5962 6.97852,-7.99219 7.07039,-7.00418 9.75867,-11.04199 7.31836,-10.99219 -1.1683,0.0239 -2.90846,1.37038 -3.34961,2.5918 -0.55291,1.53089 -11.84172,11.29088 -14.90039,12.88281 -2.40688,1.2527 -5.76652,1.85382 -9.07227,1.6211 -0.8648,-0.0609 -2.7918,-1.97598 -4.2832,-4.25391 l -2.71289,-4.14062 5.53516,0.65039 c 5.89905,0.69332 6.27833,0.36133 4.37304,-3.82031 C 167.69915,176.04329 165,174.99175 165,177.05078 c 0,1.65272 -8.1037,0.5162 -9.10742,-1.27734 -0.66623,-1.19049 -0.27593,-1.71185 1.64258,-2.19336 C 160.22677,172.90453 164,169.64785 164,168 c 0,-1.78151 -2.59443,-1.06133 -4.85938,1.34961 -1.34546,1.43217 -3.2688,2.3112 -4.92382,2.25 -2.55685,-0.0946 -2.74606,-0.42761 -3.2168,-5.70313 -0.42753,-4.79121 -0.97158,-6.00195 -3.75,-8.33984 -1.78746,-1.50405 -3.25,-3.32185 -3.25,-4.04102 0,-1.37824 8.97997,-3.04844 14.56641,-3.18359 z m 43.66015,3.71094 c -0.96347,0.11551 0.46042,2.94214 3.27344,6.22851 4.19634,4.90248 4.39554,6.16929 0.82617,5.27344 -2.34358,-0.5882 -2.51543,-0.47686 -1.3789,0.89258 1.73739,2.09342 3.37556,1.96877 5.53906,-0.42188 1.74708,-1.93047 1.67724,-2.11543 -2.55664,-6.75 -2.39423,-2.62081 -4.70715,-4.91627 -5.14063,-5.0996 -0.23801,-0.10067 -0.42486,-0.13955 -0.5625,-0.12305 z m -35.31054,6.08008 c 0.34739,0.0143 0.64635,0.10729 0.8125,0.27343 0.33229,0.33229 -0.25834,0.56879 -1.3125,0.5254 -1.16495,-0.048 -1.40125,-0.28625 -0.60352,-0.60547 0.36094,-0.14446 0.75612,-0.20767 1.10352,-0.19336 z m -55.02344,9.89257 c 0.99147,0.055 2.07287,0.28381 2.43164,0.64258 0.36189,0.3619 0.15749,1.2619 -0.45508,2 -1.62402,1.95682 -5.24505,1.76243 -4.47656,-0.24023 0.33385,-0.86998 0.60742,-1.76998 0.60742,-2 0,-0.33888 0.90111,-0.45729 1.89258,-0.40235 z M 5.1582031,173.22266 c -1.5717124,0.006 -1.8326922,1.25679 -2.6054687,5.92382 -0.5472242,3.30485 -0.3910597,3.64472 1.671875,3.63672 1.2516726,-0.005 3.3630904,0.33807 4.6933594,0.76368 2.0038542,0.64107 2.3092382,0.48919 1.7812502,-0.88672 -1.1004705,-2.86778 -0.292873,-2.42606 6.921875,3.78906 2.26666,1.9526 4.85416,3.55078 5.75,3.55078 C 24.266933,190 25,190.44156 25,190.98242 c 0,0.54086 3.537642,4.92836 7.861328,9.75 8.031273,8.95623 11.182981,14.11453 13.759766,22.51758 1.533544,5.00098 2.382559,5.65552 4.3125,3.33008 0.929464,-1.11993 0.552155,-2.65699 -1.789063,-7.29492 C 45.826712,212.7126 39.019982,202.11243 35.087891,197.39258 28.480678,189.46167 28.192685,189 29.839844,189 c 1.134263,0 13.572837,12.35025 19.210937,19.07422 2.50268,2.98468 5.755973,7.90078 7.230469,10.92578 3.94695,8.09736 10.103394,24.49228 12.203125,32.5 1.639082,6.25095 4.633219,11.5 6.560547,11.5 0.751054,0 -2.521558,-12.76142 -5.771484,-22.50391 -3.787009,-11.35253 -11.622282,-25.64859 -19.978516,-36.45117 -2.320489,-2.99983 -4.060127,-5.6137 -3.865234,-5.80859 1.281466,-1.28147 8.053963,3.57166 13.509765,9.67969 9.284597,10.39455 10.198319,11.8131 15.998047,24.82031 2.884941,6.47013 6.097264,13.65647 7.138672,15.9707 1.041409,2.31424 2.119883,5.91424 2.396484,8 1.663753,12.5459 1.915427,14.87855 1.691406,15.66797 -0.337091,1.18787 2.920616,4.6907 3.835938,4.125 0.815999,-0.50431 -1.462598,-16.05286 -3.150391,-21.5 -3.087415,-9.96424 -6.844388,-18.64508 -12.669921,-29.2793 -3.549285,-6.47903 -6.2389,-11.99352 -5.978516,-12.2539 1.237422,-1.23742 15.993242,19.85709 19.259766,27.5332 1.053222,2.475 2.435891,5.175 3.074218,6 1.745176,2.25554 4.521401,10.79979 5.523438,17 0.488881,3.025 1.33072,7.525 1.871094,10 0.540372,2.475 1.003393,6.77328 1.027343,9.55078 0.02395,2.7775 0.56507,5.57095 1.203129,6.20899 1.93639,1.93639 2.62087,0.51358 2.16015,-4.49415 C 101.33015,274.503 94.47348,248.64589 92.1875,247.05273 91.750953,246.74849 90.461053,243.8 89.320312,240.5 c -1.140735,-3.3 -2.425178,-6.9 -2.853515,-8 -0.428337,-1.1 0.623806,-0.27288 2.337891,1.83789 1.714083,2.11076 3.388848,4.69826 3.722656,5.75 0.749177,2.36044 3.0338,2.49777 3.902344,0.23438 C 97.12312,238.51521 96.129939,237.38509 76,217.08594 64.976233,205.96951 55.331244,197.77803 50,195.00586 c -1.375,-0.71498 -3.942721,-2.5518 -5.707031,-4.08398 -3.475965,-3.01867 -16.825967,-9.67271 -24.81836,-12.36915 -2.736054,-0.92307 -5.882167,-2.26581 -6.990234,-2.98437 -1.108067,-0.71855 -3.470113,-1.62665 -5.25,-2.01758 -0.8822944,-0.19378 -1.5522677,-0.33011 -2.0761719,-0.32812 z m 109.3398469,4.20312 c 0.33014,-0.0812 0.66487,-0.0786 1.00195,0.0117 1.1,0.29469 4.96886,0.54083 8.59766,0.54883 6.50699,0.0135 6.59824,0.0515 6.68164,2.76367 0.0465,1.5125 0.47739,3.80214 0.95703,5.08789 0.71164,1.90763 0.28745,2.97651 -2.30664,5.80859 -1.74842,1.90883 -3.97748,5.24419 -4.95508,7.41211 -0.9776,2.16792 -2.04799,3.89946 -2.37695,3.84766 -1.14375,-0.18025 -8.34829,-4.69506 -8.97071,-5.62109 -0.34449,-0.51254 -1.47482,-1.24524 -2.51172,-1.62891 -1.65748,-0.6133 -1.80673,-1.39053 -1.23828,-6.42773 0.74625,-6.61285 2.81012,-11.23449 5.1211,-11.80274 z m -10.67969,0.76953 c 0.36455,-0.29697 1.20586,0.10068 2.60937,1.12696 1.73568,1.26917 1.71716,1.5746 -0.44335,7.5 C 104.74565,190.2196 103.55672,193 103.3418,193 102.75552,193 101,188.07952 101,186.43555 101,185.64636 101.9,185 103,185 c 1.1,0 2,-0.11473 2,-0.25586 0,-0.14113 -0.41809,-1.71613 -0.92969,-3.5 -0.5044,-1.75873 -0.6165,-2.75185 -0.25195,-3.04883 z M 172,183 c -0.55,0 -1,0.45 -1,1 0,0.55 0.45,1 1,1 0.55,0 1,-0.45 1,-1 0,-0.55 -0.45,-1 -1,-1 z m -67.89453,13.16211 3.33594,2.16797 c 2.76881,1.79971 3.12907,2.42541 2.11523,3.66992 -0.67208,0.825 -1.98408,3.16789 -2.91602,5.20703 -2.29007,5.01087 -2.88791,5.18739 -6.125,1.80859 l -2.791011,-2.9121 3.189451,-4.97071 z M 252.12109,199 c -1.03138,0 -2.42503,0.66063 -3.0957,1.46875 -1.01712,1.22556 -0.58184,1.72916 2.62695,3.0332 2.11584,0.85987 5.64766,2.41173 7.84766,3.44922 4.97993,2.34849 5.57993,2.41947 4.87109,0.57227 C 263.55983,205.40931 254.34841,199 252.12109,199 Z m 16.42774,10 c -2.67564,0 -1.68831,2.03656 1.70117,3.50977 3.8642,1.67954 5.75,1.84802 5.75,0.51562 C 276,211.85137 270.72159,209 268.54883,209 Z m 13.1914,17.04688 c -0.62179,-0.0718 -1.12967,0.009 -1.41406,0.29296 -0.39208,0.39208 0.97873,2.35646 3.04688,4.36524 2.06814,2.00879 4.41641,4.92307 5.21875,6.47461 0.80233,1.55154 1.89771,2.82031 2.43359,2.82031 1.53143,0 1.14236,-2.9361 -0.77539,-5.84961 -0.9625,-1.46226 -2.24655,-3.55666 -2.85352,-4.6543 -0.90587,-1.63816 -3.79085,-3.23373 -5.65625,-3.44921 z m -31.36328,0.93945 c -1.0057,-0.1011 -0.28423,1.47423 2.81641,4.78906 2.45638,2.62607 5.27328,6.00904 6.26172,7.51758 1.41284,2.15627 2.09206,2.49772 3.17187,1.60156 2.2155,-1.83871 1.52861,-3.09764 -4.70703,-8.64453 -3.80616,-3.38575 -6.53727,-5.16257 -7.54297,-5.26367 z m -11.42383,2.52929 c -2.44454,0.77592 -2.54607,3.16257 -0.16601,3.91797 0.98338,0.31211 4.78724,3.49145 8.45117,7.06641 6.46865,6.31155 9.24971,7.96564 8.58594,5.10742 -0.17782,-0.76574 -3.60776,-4.83961 -7.6211,-9.05273 -5.66193,-5.9438 -7.73457,-7.52004 -9.25,-7.03907 z M 53.052734,230 c -1.408207,0 -2.10188,7.34931 -0.773437,8.19336 1.654988,1.05152 2.484656,0.99702 3.232422,-0.21289 C 56.265947,236.7601 54.182959,230 53.052734,230 Z m 226.419926,2.76562 c -0.30432,-0.10436 -0.56155,-0.0752 -0.75391,0.11719 -0.87156,0.87156 -0.69602,2.00408 0.7207,4.63477 1.0314,1.91521 2.201,3.48242 2.59766,3.48242 0.39667,0 1.27944,1.35 1.96289,3 1.54604,3.73248 2,3.77645 2,0.19531 0,-3.43866 -4.39714,-10.69902 -6.52734,-11.42969 z m -223.851566,7.52149 c -1.881282,0.61666 -1.90817,5.73759 -0.04102,7.80078 1.65717,1.83115 3.419922,2.53034 3.419922,1.35547 0,-2.68252 -2.495799,-9.44573 -3.378906,-9.15625 z M 99.296875,242 c -2.482241,0 -3.370208,2.70306 -1.849609,5.62891 2.563484,4.9325 7.651284,19.57998 9.160154,26.37109 1.77851,8.00469 3.33159,20.99627 2.70508,22.62891 -0.55059,1.43483 2.48321,6.37109 3.91602,6.37109 1.07755,0 0.95076,-1.08777 -1.64258,-14 -2.59562,-12.92357 -4.28133,-19.5983 -7.57617,-29.99609 -3.85196,-12.15594 -3.7724,-13.47171 0.52343,-8.50391 6.10211,7.05664 10.92394,19.14318 13.36328,33.5 0.60742,3.575 1.33388,7.85 1.61329,9.5 0.27941,1.65 0.53781,6.25587 0.57421,10.23633 0.037,4.03706 0.54322,7.53341 1.14649,7.90625 0.7644,0.47243 0.9045,-2.6749 0.47461,-10.73633 -0.62837,-11.78372 -1.70021,-18.56108 -4.76367,-30.14648 -1.24487,-4.70785 -1.45365,-6.94344 -0.69532,-7.41211 1.2962,-0.80109 5.74105,4.45371 5.74805,6.79492 0.003,0.90366 0.68086,1.90216 1.50586,2.21875 0.825,0.31658 1.5,1.62593 1.5,2.9082 0,1.28226 0.39456,2.75875 0.87695,3.28125 3.11377,3.37265 8.02732,27.74095 7.78321,38.60352 -0.1646,7.32476 0.0763,8.82356 1.57226,9.75781 1.60842,1.00448 1.78101,0.58569 1.9082,-4.6543 0.30531,-12.57749 -1.3905,-20.73146 -10.0332,-48.25781 l -1.09961,-3.5 2.53321,3 c 8.07263,9.56443 15.22685,23.15334 17.375,33 2.06478,9.46447 3.14666,11.85606 2.48828,5.5 -0.73043,-7.05157 -5.80975,-23.25624 -9.01172,-28.75 -1.36239,-2.3375 -2.18846,-4.25 -1.83594,-4.25 1.02677,0 6.44336,6.10796 6.44336,7.26562 0,0.57935 1.8,3.4377 4,6.35157 2.2,2.91388 4,5.7161 4,6.22851 0,0.51241 1.65883,6.04428 3.68555,12.29297 3.49616,10.77918 3.68899,12.07391 3.76757,25.28321 0.0537,9.02172 0.46331,14.04961 1.16407,14.2832 1.62297,0.54099 2.45111,-13.95384 1.35937,-23.78711 -0.91076,-8.20321 -3.36013,-18.32888 -6.39062,-26.41797 -4.16131,-11.10752 1.67254,-5.44819 9.48047,9.19727 3.95532,7.41905 4.57908,7.12319 2.25195,-1.07227 -1.2246,-4.31267 1.80273,-0.0403 6.11914,8.63477 5.49298,11.03976 7.75089,20.77153 7.86914,33.92773 0.0479,5.32812 0.44878,9.46448 0.89063,9.19141 1.69325,-1.04649 0.86846,-23.76744 -1.14063,-31.41993 -1.06926,-4.07272 -1.75635,-7.59325 -1.52539,-7.82421 1.75541,-1.75541 8.69039,11.32743 10,18.86523 1.40411,8.08162 0.64224,21.48566 -1.53516,27.00977 -2.46031,6.24187 -2.47677,6.99023 -0.14843,6.99023 1.55542,0 2.03189,-1.30789 3.00195,-8.25 1.40398,-10.04743 1.46025,-19.28407 0.16601,-27.1875 -0.53484,-3.26613 -0.82375,-6.08836 -0.64257,-6.26953 0.18117,-0.18118 1.71179,2.26715 3.40039,5.43945 4.21219,7.91329 6.16504,22.81065 4.33398,33.05664 -0.69137,3.8687 -1.88413,7.86183 -2.65039,8.87305 -2.02388,2.67085 -1.76726,3.82033 0.88672,3.97266 2.27066,0.13033 2.37553,-0.22062 3.45313,-11.5 0.61134,-6.39894 0.85585,-15.68477 0.54296,-20.63477 l -0.56836,-9 4.19922,4.75 c 2.30973,2.6125 4.66986,4.75 5.2461,4.75 1.51145,0 4.74072,3.97933 5.41797,6.67773 0.3187,1.26977 0.96042,2.07203 1.42773,1.78321 0.46731,-0.28881 0.59693,-1.1848 0.28711,-1.99219 -0.30983,-0.80738 -0.0722,-1.46875 0.52734,-1.46875 1.80013,0 6.01029,9.42814 7.75391,17.36328 1.30127,5.92207 1.44708,9.17105 0.7207,15.94727 -0.50172,4.68049 -0.7486,9.00029 -0.54883,9.59961 0.19977,0.59932 1.00209,1.08984 1.78125,1.08984 2.76526,0 2.34178,-18.20327 -0.68945,-29.67773 -1.21258,-4.59008 -1.87814,-8.67265 -1.48047,-9.07032 0.80851,-0.80851 3.62495,2.46552 6.66602,7.74805 1.81703,3.15628 1.95964,3.23494 1.46094,0.80273 -0.38815,-1.89309 -0.0571,-2.97503 1.11132,-3.6289 1.41252,-0.79049 1.01375,-1.40411 -2.64257,-4.05274 C 228.63988,361.40435 226.28738,360 225.7832,360 c -0.50418,0 -2.39064,-1.125 -4.19336,-2.5 -1.80272,-1.375 -4.02661,-2.5 -4.9414,-2.5 -0.91478,0 -6.04795,-4.5889 -11.40625,-10.19727 -5.3583,-5.60838 -10.97969,-11.49223 -12.49219,-13.07617 -1.5125,-1.58393 -2.75,-3.26418 -2.75,-3.73242 0,-0.46825 -2.925,-3.79018 -6.5,-7.38281 -3.575,-3.59264 -6.5,-6.9595 -6.5,-7.48242 0,-0.52292 -1.2375,-2.01732 -2.75,-3.32032 -1.5125,-1.303 -5.28355,-5.2795 -8.38086,-8.83789 -4.85065,-5.57274 -10.21773,-10.98139 -19.32031,-19.4707 -1.17946,-1.1 -3.24686,-2.56707 -4.59571,-3.25977 -1.34881,-0.6927 -4.47812,-2.84362 -6.95312,-4.78125 -4.59461,-3.59704 -5.10343,-4.01101 -13.51758,-10.95898 -2.66425,-2.2 -8.50895,-7.7125 -12.98828,-12.25 C 104.0148,245.7125 99.875502,242 99.296875,242 Z m -42.480469,9.11523 c -0.15735,-0.0128 -0.293939,0.0303 -0.402344,0.13868 -0.412463,0.41246 -0.149496,1.87387 0.585938,3.24804 1.440686,2.69194 3,3.30996 3,1.18946 0,-1.69787 -2.082144,-4.48657 -3.183594,-4.57618 z m 196.998044,6.78516 c -0.56858,0.24879 -0.95106,1.80848 -0.97461,4.24609 -0.0178,1.84401 0.0662,10.66602 0.1875,19.60352 0.20272,14.93139 0.72513,18.07874 2.51563,15.18164 1.20036,-1.94221 0.18687,-37.53383 -1.10547,-38.82617 -0.22463,-0.22464 -0.43352,-0.28801 -0.62305,-0.20508 z M 55.509766,259.2168 c -0.223806,-0.11211 -0.529769,-0.039 -0.931641,0.11523 C 53.620461,259.69952 52.131241,260 51.269531,260 c -1.347235,0 -1.481843,1.19911 -0.96289,8.55273 0.331929,4.70347 0.219913,9.54097 -0.248047,10.75 -2.837147,7.33009 -3.433652,10.84787 -1.994141,11.75782 0.789412,0.499 1.864307,0.77131 2.388672,0.60547 1.584057,-0.50101 4.454406,-13.56552 5.181641,-23.58399 0.473367,-6.52117 0.546416,-8.52891 -0.125,-8.86523 z m 10.189453,4.04492 c -0.396733,0.15598 -0.852186,0.46351 -1.271485,0.88281 -1.279798,1.2798 -1.358134,2.55429 -0.484375,7.93945 1.857942,11.45086 0.768556,26.99552 -2.146484,30.62305 -0.533107,0.6634 -0.663768,1.69962 -0.291016,2.30274 1.160405,1.87758 2.772816,0.5381 4.294922,-3.56641 1.066834,-2.87682 1.464103,-8.48092 1.470703,-20.71875 0.005,-9.22698 -0.289016,-17.07612 -0.654296,-17.44141 -0.182643,-0.18264 -0.521237,-0.1774 -0.917969,-0.0215 z m 8.939453,8.46875 c -0.217951,-0.0848 -0.362682,-0.0584 -0.414063,0.0957 -0.205522,0.61657 0.641142,3.94444 1.88086,7.39649 1.957879,5.4518 2.262996,8.32598 2.324219,21.87304 0.04886,10.81212 -0.301121,16.0435 -1.138672,17.05274 -0.664479,0.80069 -0.948942,2.44541 -0.632813,3.65429 0.941717,3.60113 2.807601,2.51149 4.373047,-2.55273 1.054054,-3.40987 1.394157,-8.5588 1.205078,-18.25 -0.411729,-21.10302 -0.426231,-21.18802 -4.226562,-25.98633 -1.407607,-1.77724 -2.717242,-3.02883 -3.371094,-3.2832 z m 12.730469,14.64844 c -0.308692,-0.0981 -0.297872,0.21197 -0.04883,0.90429 2.224582,6.18405 4.893015,16.27737 6.013672,22.75391 1.159837,6.70297 1.096282,8.62873 -0.568359,17.39062 -1.029554,5.41908 -1.626483,10.49279 -1.326172,11.27539 0.846241,2.20527 2.244348,0.69198 2.335938,-2.52929 0.04532,-1.5941 0.79036,-4.59051 1.654297,-6.65821 2.687858,-6.43295 1.262033,-30.94893 -2.011719,-34.59374 C 92.638062,294.05356 92,292.66902 92,291.8457 c 0,-0.82332 -1.197085,-2.58849 -2.660156,-3.92187 -1.033188,-0.9416 -1.662011,-1.44679 -1.970703,-1.54492 z m 210.804689,16.98632 c -0.32508,0.0146 -0.54352,0.43749 -0.78711,1.07227 -0.45131,1.1761 1.72737,6.52485 6.48437,15.91602 8.01647,15.82592 11.65167,22.66603 12.83203,24.14648 0.43852,0.55 1.44388,2.25386 2.23438,3.78516 0.7905,1.5313 2.8155,3.65778 4.5,4.72656 1.6845,1.06878 4.07011,3.02526 5.30273,4.34766 1.23261,1.32236 3.25761,2.63747 4.5,2.92382 4.87199,1.12293 22.26589,7.82613 30.27735,11.66797 4.64381,2.22691 8.73237,4.04883 9.08789,4.04883 0.67351,0 16.01662,9.02859 20.42578,12.01953 1.39188,0.94418 4.31688,2.63712 6.5,3.76367 3.48858,1.8002 5.41316,3.48698 12.58398,11.02149 0.88792,0.93295 2.14123,2.70781 2.78516,3.94531 0.64394,1.2375 1.8777,2.25 2.74219,2.25 0.9553,0 1.35447,0.5627 1.01953,1.43555 -0.30312,0.78989 0.22638,2.47739 1.17578,3.75 0.9494,1.2726 3.48383,5.79293 5.63086,10.04492 2.14704,4.252 4.07422,7.56054 4.2832,7.35156 0.20898,-0.20898 -0.0805,-2.11245 -0.64257,-4.23047 -0.56205,-2.11802 -1.28322,-5.37698 -1.60352,-7.24023 -0.72171,-4.19841 -2.06562,-6.76093 -5.16797,-9.86328 l -2.40625,-2.40625 2.55469,-2.00977 c 1.40465,-1.1049 3.24359,-3.34178 4.08594,-4.9707 1.5439,-2.98557 1.14417,-6.86133 -0.70704,-6.86133 -0.55,0 -0.71731,0.89158 -0.37109,1.98242 0.67768,2.1352 -3.29552,7.02392 -5.69922,7.01172 -1.91963,-0.01 -6.5187,-3.26609 -12.75586,-9.0293 C 401.52908,388.87354 385.46092,378 383.44727,378 c -0.58038,0 -3.28178,-1.44067 -6.00196,-3.20117 C 370.33375,370.19621 366.2038,368 364.6582,368 c -0.74249,0 -2.82757,-0.73615 -4.63281,-1.63672 -1.80524,-0.90058 -7.21845,-2.66267 -12.0293,-3.91601 -15.18351,-3.95569 -20.82671,-7.82869 -26.5664,-18.22852 -2.03949,-3.69538 -4.28379,-7.39375 -4.98633,-8.21875 -0.70254,-0.825 -4.72745,-8.25 -8.94531,-16.5 -6.41826,-12.5539 -8.34899,-16.17848 -9.32422,-16.13477 z m -194.4043,0.58399 c -0.68037,0.49171 -0.10273,4.41504 1.78516,12.70508 3.06712,13.46825 3.27405,21.08095 0.91601,33.65039 -0.42248,2.25204 -0.30422,3.69531 0.30274,3.69531 1.41578,0 3.86907,-8.13892 5.27539,-17.5 1.2007,-7.9924 1.19909,-8.01092 -2.57227,-19.5 -2.07622,-6.325 -4.15068,-11.92026 -4.60937,-12.43359 -0.5043,-0.56437 -0.87087,-0.78109 -1.09766,-0.61719 z m -59.496092,15.10351 c -0.38012,-0.0234 -0.710356,0.0522 -0.916016,0.25782 -0.306354,0.30635 -0.260971,1.03645 0.101562,1.62304 C 44.302991,322.29917 47,322.326 47,320.96875 c 0,-0.89788 -1.586214,-1.84578 -2.726562,-1.91602 z M 149.10352,320 c -1.19468,0 -1.98037,17.01618 -0.88868,19.25 1.458,2.98338 3.09506,2.04949 2.41016,-1.375 -0.34375,-1.71875 -0.625,-6.44375 -0.625,-10.5 0,-4.05625 -0.40292,-7.375 -0.89648,-7.375 z m 21.15625,3.2793 c -0.15558,0.27741 -0.0757,1.48301 0.33203,3.7207 1.10291,6.0535 1.15491,21.48491 0.0898,26.79297 -0.47378,2.36145 -0.61012,4.94895 -0.30273,5.75 0.9301,2.4238 2.33402,1.64236 2.99609,-1.66797 1.1327,-5.6635 0.62719,-23.2755 -0.82422,-28.72852 -1.12152,-4.2136 -2.03172,-6.32953 -2.29101,-5.86718 z m -48.75391,2.67382 c -0.13066,-0.078 -0.30866,0.6532 -0.55664,2.04688 -1.00349,5.63961 -1.1666,14.45059 -0.2832,15.33398 1.25626,1.25631 1.33391,0.64658 1.20898,-9.58398 -0.0646,-5.29083 -0.15138,-7.66689 -0.36914,-7.79688 z m -73.058594,1.29297 c -0.470274,0.52647 1.410139,14.43467 2.535156,18.75391 1.214566,4.66305 0.942555,19.18797 -0.416016,22.24219 -0.533931,1.20034 -0.275273,1.89958 0.830078,2.25 0.882065,0.27964 2.329854,0.73802 3.216797,1.01953 1.361319,0.43207 1.404657,0.76161 0.28125,2.11523 -1.146242,1.38114 -1.072343,1.55295 0.529297,1.23828 1.731366,-0.34016 1.847432,-1.50233 1.685547,-16.86523 -0.09563,-9.075 -0.66686,-19.08281 -1.269531,-22.24023 -0.933312,-4.88966 -1.546627,-5.96473 -4.13086,-7.25391 -1.668724,-0.83247 -3.136763,-1.39965 -3.261718,-1.25977 z m 301.814454,3.80664 c -1.04435,-0.0186 -1.24492,0.87901 -0.79102,2.6875 0.76646,3.05383 1.859,4.01041 5.5293,4.84571 1.375,0.31292 3.4,0.96683 4.5,1.45312 1.1,0.48629 4.475,1.3245 7.5,1.86133 5.87349,1.04234 15.47967,5.76188 18.48438,9.08203 1.00411,1.10953 2.33765,2.01758 2.96289,2.01758 0.62524,0 2.94521,1.9125 5.15625,4.25 3.74391,3.95805 5.98194,6.7674 17.16601,21.55469 2.34822,3.10477 5.2244,6.1571 6.39063,6.78125 1.16624,0.62415 2.67501,2.17167 3.35351,3.43945 1.01976,1.90545 2.13011,2.3358 6.40821,2.48633 7.17405,0.25242 8.36533,2.16443 9.33398,14.98828 1.49707,19.81969 1.38429,22.62536 -1.10352,27.72266 -1.26772,2.59743 -2.01915,5.18493 -1.66992,5.75 1.02994,1.66648 1.34022,1.32028 4.58985,-5.11719 3.83267,-7.59248 4.70133,-14.71796 2.54101,-20.85547 -1.93018,-5.48368 -2.12579,-11.79597 -0.36328,-11.73047 0.6875,0.0255 3.1625,-0.0247 5.5,-0.11133 3.53082,-0.13087 4.25,-0.49664 4.25,-2.1582 0,-1.74457 -0.67049,-2.00172 -5.25,-2.01172 -5.15132,-0.0113 -5.28645,-0.0886 -7.20312,-4.08789 -2.54031,-5.30056 -5.93485,-7.95666 -9.37891,-7.33984 -3.27666,0.58683 -11.28645,-5.00004 -14.11914,-9.84766 -6.70238,-11.46983 -24.44431,-31.6857 -30.13477,-34.33789 -3.60996,-1.68252 -12.76595,-4.15396 -18.35351,-4.95312 -2.71646,-0.38854 -6.9666,-1.99249 -9.44532,-3.56446 -2.92085,-1.85235 -4.80916,-2.78612 -5.85351,-2.80469 z m -222.8086,0.33594 C 127.09375,331.29888 127,331.6423 127,332.375 c 0,0.94818 0.59467,2.93864 1.32227,4.42383 2.90228,5.92424 1.77104,24.27396 -1.9336,31.35547 -0.76371,1.45986 -1.38867,2.92236 -1.38867,3.25 0,1.30785 1.98837,0.48717 2.88672,-1.19141 C 129.67525,366.871 132,351.80768 132,343.56445 c 0,-7.46994 -0.2268,-8.42889 -2.5,-10.56445 -1.06251,-0.99818 -1.6875,-1.52154 -2.04688,-1.61133 z M 138.75,343.92969 c -0.69934,0.0502 -0.78552,1.13472 0.32812,3.21289 0.6948,1.29655 1.35848,3.70742 1.47461,5.35742 0.11613,1.65 0.51814,6.15 0.89454,10 0.55836,5.7113 0.32047,7.96653 -1.29493,12.25 -1.48423,3.93565 -1.65593,5.25 -0.6875,5.25 0.71052,0 2.27163,-2.61922 3.46875,-5.82031 3.165,-8.46312 2.75956,-21.71184 -0.83398,-27.25391 -1.33712,-2.06214 -2.65027,-3.04624 -3.34961,-2.99609 z m -17.55469,1.53515 c -0.4138,0.29219 -0.88216,1.864 -1.03515,4.45704 -0.13147,2.22807 -0.89607,5.91504 -1.69922,8.1914 -0.80314,2.27635 -1.46094,4.34402 -1.46094,4.5957 0,0.25166 0.5625,0.27079 1.25,0.043 1.43788,-0.47666 3.51318,-8.4609 3.6543,-14.06054 0.0638,-2.53 -0.29518,-3.51876 -0.70899,-3.22657 z m -51.031248,1.3418 0.480469,4.3457 c 0.263959,2.39094 0.752408,5.47266 1.085938,6.84766 1.697315,6.99731 0.50808,14.8267 -3.4375,22.63477 -1.582523,3.13172 -2.327095,5.83143 -1.910157,6.91796 0.977599,2.54757 2.013057,1.02589 5.142579,-7.55273 2.110399,-5.78501 2.844158,-9.90099 3.210937,-18 0.463042,-10.22461 0.40899,-10.56206 -2.048828,-12.84766 z m 80.583988,8.42578 c -0.73935,0.19619 -0.52294,1.98148 0.63867,5.39063 2.32197,6.81462 1.9724,15.84244 -0.99219,25.62695 -0.29162,0.9625 -0.12368,1.75 0.37109,1.75 1.75435,0 3.3747,-7.64643 3.92188,-18.5 0.5205,-10.32439 0.42436,-11.11696 -1.57227,-12.91016 -1.13596,-1.02022 -1.92358,-1.47513 -2.36718,-1.35742 z m -68.564456,2.06055 c -1.333272,-0.17913 -1.431864,1.13003 -0.375,4.05273 1.507697,4.16947 1.543217,17.37345 0.0625,23.25391 -0.621153,2.46682 -1.957719,6.10676 -2.96875,8.08984 -1.011032,1.98308 -1.60019,3.99034 -1.310547,4.45899 1.291044,2.08896 3.317942,0.45104 5.443359,-4.39844 1.968795,-4.49212 2.351303,-7.30015 2.650391,-19.45508 0.33452,-13.59493 0.258517,-14.25502 -1.753906,-15.33203 -0.72145,-0.38611 -1.303623,-0.61021 -1.748047,-0.66992 z m 126.367186,3.50976 c -0.35146,0.33199 -0.57762,2.25843 -0.66211,5.69727 -0.27253,11.09278 -0.58898,13.12478 -3.0664,19.68945 -0.55827,1.47931 -0.71982,3.16681 -0.35938,3.75 0.84262,1.36344 2.23562,1.3552 3.08399,-0.0176 1.11707,-1.80753 2.34801,-27.29266 1.39648,-28.91602 -0.14452,-0.24655 -0.27543,-0.31379 -0.39258,-0.20313 z m -118.253905,2.20704 c -0.193223,0.0699 -0.29303,0.31345 -0.289063,0.74023 0.0038,0.4125 1.128834,4.05552 2.5,8.0957 3.909014,11.51803 3.128678,24.89769 -1.859374,31.90821 -1.921797,2.70101 -2.280963,3.85999 -1.375,4.43554 2.059567,1.30841 2.614839,0.95165 4.570312,-2.93945 3.426973,-6.81917 4.453892,-13.67377 3.681641,-24.56641 -0.616002,-8.68875 -1.094751,-10.66616 -3.371094,-13.88671 -1.870236,-2.64601 -3.277754,-3.99693 -3.857422,-3.78711 z m 71.281245,2.29492 c -0.33259,0.39407 -0.17053,1.62897 0.43946,3.75586 1.76444,6.15224 1.03378,17.00081 -1.57227,23.35351 -0.58183,1.41832 -0.45621,1.70948 0.48633,1.12696 2.30449,-1.42426 3.87272,-6.90896 4.58398,-16.04102 0.65192,-8.36949 0.552,-9.13347 -1.41406,-10.91016 -1.36442,-1.233 -2.19084,-1.67922 -2.52344,-1.28515 z m 56.38672,2.17383 c -0.68807,-0.42525 -0.97659,2.32032 -0.86132,8.1914 0.18295,9.3181 -1.44354,16.95201 -4.06446,19.08008 -1.36945,1.11194 -1.32504,1.41625 0.40625,2.75391 1.07044,0.8271 2.24485,1.16456 2.60938,0.75 2.45592,-2.79292 4.10843,-29.41677 1.91015,-30.77539 z m 19.38672,1.70117 c -0.66823,-0.24306 0.36009,1.39148 3.81836,6.5 1.5564,2.29909 2.84895,4.77409 2.87305,5.5 0.0241,0.7259 0.70807,3.12031 1.51953,5.32031 1.93647,5.25005 4.63904,20.36318 3.86523,21.61523 -0.33311,0.53893 -0.35325,1.63493 -0.0469,2.4336 0.30648,0.79866 1.0785,1.45117 1.7168,1.45117 1.48563,0 0.491,-9.40113 -2.16797,-20.5 -2.37841,-9.92777 -2.37973,-9.81157 0.1914,-8.43555 2.5016,1.33882 1.91653,0.0171 -1.79882,-4.06445 -1.25163,-1.375 -3.29861,-3.62902 -4.54883,-5.00977 -1.25023,-1.38074 -3.14677,-3.18074 -4.21485,-4 -0.57278,-0.43934 -0.98428,-0.72952 -1.20703,-0.81054 z m -3.22461,5.32031 -0.0644,2.58398 c -0.0349,1.42084 0.26497,2.91146 0.66602,3.3125 1.18747,1.18748 1.40338,-0.88067 0.36328,-3.48242 z m -60.91015,0.54492 c -0.8519,-0.12331 -1.24486,0.42412 -0.73828,1.70508 2.02624,5.12368 1.31959,11.7868 -2.1211,20 -0.81354,1.94201 1.45395,1.47128 2.52149,-0.52344 0.522,-0.97536 1.6983,-4.68786 2.61328,-8.25 0.91497,-3.56215 2.05816,-6.88484 2.54101,-7.38281 0.50989,-0.52586 -0.0472,-1.88069 -1.32812,-3.23242 -1.32628,-1.39961 -2.63638,-2.1931 -3.48828,-2.31641 z m -69.5918,1.66016 c -0.92711,0.17216 -0.56234,2.13191 1.19531,5.6582 2.45398,4.9233 4.11986,14.42979 3.59375,20.50781 -0.20809,2.40405 -1.49997,6.82151 -2.87109,9.81641 -2.48392,5.4256 -2.48529,5.44404 -0.35547,5.12891 3.11354,-0.46069 7.09541,-12.43867 6.42188,-19.31641 -1.70029,-17.3622 -1.71142,-17.40745 -4.94336,-20.12695 -1.46378,-1.23168 -2.48476,-1.77127 -3.04102,-1.66797 z m 133.05078,5.69922 c -0.25381,0.0746 -0.52327,0.3568 -0.79687,0.8457 -0.50432,0.90117 -0.22148,3.59816 0.70117,6.70508 1.87285,6.30654 1.62159,18.02998 -0.40235,18.80664 -0.96126,0.36887 -0.52915,1.18438 1.48243,2.79492 l 2.83984,2.27148 0.30859,-3.91796 c 0.33128,-4.21921 -2.33887,-25.34291 -3.42578,-27.10157 -0.21369,-0.34575 -0.45322,-0.47885 -0.70703,-0.40429 z m -52.96289,1.17968 C 183.10691,383.62223 183,385.19263 183,389.8125 c 0,3.88154 -0.42066,8.16528 -0.93555,9.51953 -0.51488,1.35425 -0.66553,2.73289 -0.33398,3.06445 1.32516,1.32516 1.97625,0.38566 3.09765,-4.47265 1.60715,-6.96256 1.47852,-12.42445 -0.32812,-13.92383 -0.32731,-0.27164 -0.58511,-0.42876 -0.78711,-0.41602 z m -68.91016,0.83399 c -0.27771,-0.0758 -0.48783,-0.0649 -0.60546,0.0527 -0.22603,0.22603 1.09878,3.01479 2.94531,6.19727 4.83376,8.33094 4.89212,8.57099 4.95312,20.22461 0.0502,9.57554 0.18903,10.35608 1.42188,8.0293 2.22057,-4.19095 1.85384,-19.49075 -0.57617,-24.03126 C 122.42384,393.92363 122,392.27293 122,391.22461 c 0,-1.53626 -5.25326,-6.27606 -7.19727,-6.80664 z m 193.0918,0.9375 c -0.33466,-0.007 -0.71987,0.071 -1.18164,0.21289 -3.35048,1.02933 -3.42318,1.41769 -0.71289,3.78906 6.21433,5.43722 11.39822,15.01947 13.0957,24.20703 0.60306,3.26406 1.30606,6.27305 1.56055,6.68555 0.66497,1.07781 2.34375,0.92541 2.34375,-0.21289 0,-4.53138 -4.916,-19.27514 -7.81641,-23.44141 -1.87759,-2.69704 -4.05413,-6.43357 -4.83593,-8.30468 -0.8897,-2.12934 -1.44914,-2.91519 -2.45313,-2.93555 z M 318.82617,387 c -1.68954,0 -1.30936,0.78035 2.38086,4.88477 7.62283,8.47842 12.79297,20.66925 12.79297,30.16406 0,1.9727 0.50399,2.95117 1.51953,2.95117 1.04453,0 1.37591,-0.70285 1.06055,-2.25 -0.25224,-1.2375 -0.72222,-4.57309 -1.04297,-7.41211 -0.63735,-5.64134 -5.34665,-16.98954 -9.13867,-22.02148 C 325.07906,391.56561 324,389.70168 324,389.17383 324,388.01697 321.58004,387 318.82617,387 Z m -64.94336,1.13086 c -0.5463,-0.10096 0.0831,1.59709 1.88281,5.11914 3.31856,6.49457 4.15645,18.88609 1.74024,25.73438 C 256.67783,421.33127 256,423.64415 256,424.125 c 0,0.48085 0.63912,0.875 1.41992,0.875 2.29308,0 4.97989,-9.63666 4.7793,-17.14062 -0.18445,-6.89984 -2.43439,-13.43737 -6.0625,-17.60938 -1.17416,-1.35018 -1.92612,-2.05856 -2.25391,-2.11914 z m 75.06836,1.04297 c -0.53865,0.17719 0.51285,1.37868 3.67188,4.45703 2.81745,2.74549 5.45696,6.08825 5.86523,7.42969 0.40826,1.34145 1.5132,3.33945 2.45703,4.43945 2.31243,2.69507 5.09506,11.71891 5.77344,18.72461 0.32769,3.38405 0.9566,5.47521 1.53906,5.11523 1.49069,-0.92129 0.015,-10.84014 -2.75586,-18.52148 -3.58827,-9.94754 -9.5376,-20.81613 -11.40429,-20.83203 -0.87849,-0.008 -2.72266,-0.31276 -4.09766,-0.67969 -0.5139,-0.13714 -0.86928,-0.19187 -1.04883,-0.13281 z M 5.859375,390.33789 c 0.2469797,0.43491 0.4553682,0.83785 0.6230469,1.16211 0.135052,-0.39453 -0.025238,-0.79659 -0.6230469,-1.16211 z m 335.464845,2.44336 c -0.5975,0.22544 0.30794,1.65278 2.71484,4.33398 1.67154,1.86203 3.83069,4.95977 4.79883,6.88477 0.96814,1.925 2.92487,5.525 4.34766,8 1.63793,2.84926 3.03969,7.52635 3.82226,12.75 0.78001,5.20656 1.69224,8.25 2.47071,8.25 0.97374,0 0.96403,-1.55027 -0.0469,-7.36328 -1.81395,-10.43125 -3.08489,-14.56569 -5.88086,-19.13672 -1.34568,-2.2 -3.36051,-5.65008 -4.47656,-7.66602 -1.11606,-2.01595 -3.38821,-4.34247 -5.05078,-5.17187 -1.43994,-0.71834 -2.34072,-1.01613 -2.69922,-0.88086 z m -210.22656,3.16797 c -1.13712,0.0268 -0.8697,2.00519 0.84375,5.65039 3.03801,6.46309 3.75535,16.49425 1.6875,23.60742 -0.89565,3.08093 -1.62891,5.86942 -1.62891,6.19727 0,1.74622 2.17092,0.17683 3.67188,-2.6543 3.45993,-6.52626 1.34303,-29.44498 -2.97071,-32.16602 -0.68943,-0.43488 -1.22448,-0.64369 -1.60351,-0.63476 z M 357.06641,397 c -2.03025,0 -1.0482,2.21377 3.03906,6.8457 6.6889,7.58035 10.76287,16.72009 11.28906,25.32618 0.24639,4.02996 0.48422,7.66562 0.52735,8.07812 0.0431,0.4125 0.75312,0.75 1.57812,0.75 2.08933,0 1.92145,-4.00663 -0.56836,-13.5625 C 370.74267,416.03625 366.23003,405 364.98438,405 c -0.40817,0 -1.30784,-1.36804 -2,-3.03906 C 361.77866,399.05007 359.33279,397 357.06641,397 Z m -135.85938,3.43164 c -0.79963,0.27852 -1.31866,1.57872 -0.70703,2.56836 0.33992,0.55 1.04105,1 1.55859,1 1.21682,0 1.22369,-2.70636 0.01,-3.45703 -0.29722,-0.1837 -0.59478,-0.20417 -0.86133,-0.11133 z m 147.31641,0.28125 2.73828,3.39453 C 374.78016,408.46645 382,420.28993 382,421.69336 c 0,0.59264 0.67253,2.36604 1.49414,3.94141 0.92206,1.76797 1.496,5.64022 1.5,10.11523 0.004,4.79259 0.39622,7.25 1.15625,7.25 0.82761,0 0.97278,-2.49535 0.51758,-8.9082 -0.54924,-7.73768 -1.19779,-10.0797 -4.92383,-17.80469 -5.04386,-10.45716 -7.43104,-13.7347 -10.77148,-14.79492 z m -224.31641,0.60156 c -1.29042,-0.17246 -1.60793,0.82293 -0.41992,2.48438 4.1053,5.74139 5.17247,17.65467 2.26562,25.30273 -1.1284,2.96888 -2.05245,5.51094 -2.05273,5.64844 -2.7e-4,0.1375 0.34556,0.25 0.76758,0.25 0.42202,0 1.81328,-2.63275 3.0918,-5.85156 1.8846,-4.74468 2.22589,-7.06325 1.80273,-12.25 -0.85094,-10.42989 -1.73466,-13.86679 -3.85938,-15.00391 -0.62694,-0.33553 -1.16556,-0.52259 -1.5957,-0.58008 z m 10.05469,4.01953 c -0.49549,-0.0769 -0.86262,-0.0671 -0.98047,0.0508 -0.52312,0.52311 2.66989,6.90082 3.83398,7.6582 1.46245,0.9515 2.80705,13.7383 1.81055,17.21289 -0.50954,1.77666 -0.92578,3.79715 -0.92578,4.48828 0,2.90057 1.83328,0.92659 2.99609,-3.22656 2.2741,-8.12227 -0.83572,-24.17379 -4.98047,-25.70703 -0.6339,-0.23449 -1.25842,-0.39968 -1.7539,-0.47657 z m 68.16211,1.74219 c -0.32408,0.17323 -0.43041,0.87334 -0.1211,2.17383 2.06981,8.7023 6.96998,16.79281 14.83204,24.48633 l 6.30273,6.16797 -2.32227,2.47461 c -1.27816,1.36053 -2.02789,2.95426 -1.66406,3.54297 0.45448,0.73534 1.52738,0.62334 3.42774,-0.35938 5.5306,-2.85998 5.51673,-3.78777 -0.15039,-9.29297 -8.9537,-8.69789 -14.32745,-16.56038 -17.78321,-26.01953 -0.83618,-2.28881 -1.98135,-3.46254 -2.52148,-3.17383 z m 161.95508,0.21289 c -0.28386,0.28386 1.18753,2.88717 3.26953,5.78516 4.4494,6.19324 7.9985,13.52655 8.91797,18.42773 0.36087,1.92362 1.02821,3.49805 1.48242,3.49805 1.46664,0 -0.0794,-7.28605 -3.35547,-15.81836 -2.54381,-6.62511 -3.86568,-8.73376 -6.49609,-10.36328 -1.81643,-1.12527 -3.5345,-1.81316 -3.81836,-1.5293 z m -215.38672,1.83203 c -0.3367,-0.0135 -0.69101,0.17734 -1.07227,0.5586 -0.77302,0.77302 -0.53711,2.3205 0.83008,5.44922 2.03969,4.66768 2.16997,15.28199 0.23242,18.90234 -0.54072,1.01033 -0.95748,2.42868 -0.92578,3.15234 0.0317,0.72366 1.15668,-1.10447 2.5,-4.0625 2.68275,-5.90754 3.03781,-10.77603 1.30664,-17.92773 -1.00345,-4.14544 -1.86101,-6.03163 -2.87109,-6.07227 z m 10.64062,2.06055 c -0.19114,0.0907 -0.28537,0.73615 -0.43554,2.00781 -0.17463,1.47873 0.34562,4.64164 1.15625,7.0293 2.67062,7.86613 2.96949,11.42819 1.24804,14.87891 -0.88049,1.76499 -1.60156,3.41393 -1.60156,3.66406 0,0.52097 5.26603,-0.69377 5.94336,-1.3711 0.67214,-0.67212 -3.99153,-22.58681 -5.29688,-24.89062 -0.53598,-0.94596 -0.82253,-1.40909 -1.01367,-1.31836 z m 13.64453,2.14844 c -0.47884,-0.10149 -0.85289,-0.0885 -1.00586,0.0644 -0.30593,0.30594 0.0265,3.37896 0.73829,6.83008 1.32176,6.40837 3.73562,12.12321 7.18945,17.02539 1.06563,1.5125 2.5816,2.75 3.36914,2.75 1.91518,0 1.80979,-0.65946 -0.65234,-4.11719 C 200.10477,431.93492 197,422.8431 197,418.56055 c 0,-2.51412 -0.5834,-3.80133 -2.08594,-4.60547 -0.57355,-0.30698 -1.15787,-0.52352 -1.63672,-0.625 z m 57.70704,0.17969 c -0.55897,0.34546 -0.75785,1.04659 -0.44141,1.55859 0.85723,1.38704 1.45703,1.12958 1.45703,-0.62695 0,-0.8575 -0.45666,-1.2771 -1.01562,-0.93164 z M 213.87305,414 c -2.00102,0 -0.0716,7.45919 3.62109,13.99219 1.92772,3.41048 3.50586,6.52462 3.50586,6.92187 0,1.14073 6.33879,7.7862 8,8.38672 3.17518,1.14782 3.05999,0.54834 -0.77734,-4.05078 C 223.80297,433.95292 215,418.25304 215,415.66797 215,414.75067 214.49335,414 213.87305,414 Z m -11.08985,0.29102 c -0.22637,-0.0811 -0.49665,0.022 -0.79297,0.31836 -1.10466,1.10464 3.42297,14.94639 5.60157,17.125 0.77491,0.7749 1.4082,1.80001 1.4082,2.27929 0,0.47927 0.94528,2.47325 2.09961,4.42969 2.10604,3.56947 4.90039,4.79033 4.90039,2.14062 0,-0.77916 -0.39219,-1.56666 -0.87109,-1.75 -2.69237,-1.03071 -9.34595,-14.40071 -11.82032,-23.75195 -0.11765,-0.44463 -0.29901,-0.70991 -0.52539,-0.79101 z m 195.93164,1.21875 c -0.44116,0.0381 0.0484,0.9896 1.21485,2.87695 4.24889,6.87485 6.89308,13.2052 7.98633,19.11914 0.596,3.22407 1.15955,6.11624 1.25195,6.42773 0.0925,0.31149 0.34723,-1.16748 0.56641,-3.28711 0.21913,-2.11964 -0.60501,-7.65402 -1.83204,-12.29882 -1.72063,-6.51328 -2.82225,-8.85416 -4.8164,-10.23243 -2.55706,-1.76734 -3.92994,-2.64353 -4.3711,-2.60546 z m -97.0039,2.55664 -3.00782,2.53125 c -2.22151,1.86928 -3.92657,2.45046 -6.52539,2.22656 -4.30271,-0.3707 -5.23783,1.4145 -1.44531,2.75976 3.24935,1.1526 7.826,0.67776 9.10156,-0.94336 0.49388,-0.62765 1.11767,-2.36314 1.38672,-3.85742 z m 111.10351,6.01953 c -0.63245,-0.12935 -0.57276,0.63167 0.56055,2.36133 3.36768,5.13972 6.19401,14.9288 5.93555,20.55273 -0.13903,3.025 0.0359,6.175 0.38867,7 0.35279,0.825 0.98222,-1.2 1.39844,-4.5 1.04164,-8.25856 -1.07475,-18.36816 -4.69532,-22.43164 -1.632,-1.83164 -2.95543,-2.85307 -3.58789,-2.98242 z M 398,441 c -0.55,0 -1,0.70113 -1,1.55859 0,0.85748 0.45,1.28133 1,0.94141 0.55,-0.33992 1,-1.04105 1,-1.55859 C 399,441.42387 398.55,441 398,441 Z m 47.5,10.08594 c -1.1,0.0302 -2.9,0.44137 -4,0.91406 -1.83166,0.78709 -1.78958,0.86376 0.5,0.91406 1.375,0.0302 3.175,-0.3809 4,-0.91406 1.23805,-0.80009 1.15073,-0.95946 -0.5,-0.91406 z m -8.52539,1.50586 c -0.57468,-0.0959 -1.45891,-0.0688 -2.6582,0.12304 -6.2308,0.99669 -8.66194,1.8237 -9.08399,3.08985 -0.51692,1.55076 4.15957,1.44388 8.70703,-0.19922 3.69687,-1.33576 4.7592,-2.72611 3.03516,-3.01367 z M 223.11719,454 c -0.55,0 -1.27727,0.45 -1.61719,1 -0.33992,0.55 -0.16719,1 0.38281,1 0.55,0 1.27727,-0.45 1.61719,-1 0.33992,-0.55 0.16719,-1 -0.38281,-1 z m -28.13477,0.66406 c -0.7312,0.10229 -0.9486,0.58048 -0.43945,1.4043 0.31643,0.51199 2.01058,0.89431 3.76562,0.84961 l 3.19141,-0.0801 -3,-1.32227 c -1.54162,-0.67937 -2.78637,-0.95385 -3.51758,-0.85156 z m -11.79101,3.33203 -27.3086,0.0781 0.3086,3.20508 c 0.32625,3.38483 2.49583,6.7207 4.37109,6.7207 0.61448,0 1.62936,-1.125 2.25586,-2.5 1.51315,-3.32101 3.10412,-3.18234 2.86914,0.25 -0.11916,1.7407 0.27127,2.65825 1.0625,2.5 1.48954,-0.29791 1.6748,1.36942 0.25,2.25 -0.55,0.33992 -1,0.9491 -1,1.35352 0,0.40442 2.89815,0.84183 6.44141,0.97265 l 6.44336,0.23828 -0.5586,-3.4414 c -0.47458,-2.92447 -0.27752,-3.41574 1.3086,-3.28125 2.50155,0.2121 3.40011,1.67006 2.71484,4.40039 -0.5374,2.14121 -0.2792,2.25781 4.98242,2.25781 3.05217,0 5.8457,-0.47785 6.20703,-1.0625 1.48427,-2.4016 -6.20074,-7.8434 -7.85547,-5.5625 -0.45411,0.62596 -0.53407,0.12792 -0.18164,-1.125 0.70187,-2.49521 -1.2295,-3.12206 -3.28515,-1.06641 -1.58281,1.58281 -2.80912,0.23547 -1.36719,-1.50195 0.62361,-0.7514 0.80031,-1.70096 0.39258,-2.11133 -0.40772,-0.40999 0.60781,-0.59417 2.25781,-0.4082 2.17683,0.24535 3.08371,0.92975 3.30664,2.49414 0.32301,2.26671 3.88472,3.78422 6.51367,2.77539 0.81307,-0.312 1.7798,-0.0808 2.14844,0.51563 0.36863,0.59647 1.09622,0.82198 1.61719,0.5 0.52097,-0.32197 0.68753,-1.00363 0.37109,-1.51563 -0.31643,-0.5119 0.57692,-0.93164 1.98438,-0.93164 2.98496,0 3.41496,1.59236 0.66601,2.46484 -1.92565,0.61117 -3.66779,4.53516 -2.01367,4.53516 0.49851,0 0.93385,-0.5625 0.96875,-1.25 0.0349,-0.6875 0.45415,-0.28581 0.92969,0.89258 0.82456,2.04321 1.50425,2.14437 14.68554,2.16797 7.60209,0.0136 12.95955,-0.30881 11.90625,-0.71485 -1.0533,-0.40603 -2.02965,-1.51887 -2.16992,-2.47461 -0.19677,-1.34061 0.35606,-1.66784 2.41602,-1.42968 1.46857,0.1698 2.72622,0.87109 2.79492,1.55859 0.0687,0.6875 0.1813,1.71195 0.25,2.27539 0.14725,1.20679 17.125,0.97056 17.125,-0.23828 C 247,471.35439 246.325,471 245.5,471 c -0.825,0 -1.5,-0.64294 -1.5,-1.42969 0,-0.78675 -0.95282,-1.57425 -2.11719,-1.75 -2.11513,-0.31926 -2.11462,-0.32212 0.16992,-2.32031 1.94234,-1.69888 2.19182,-1.74056 1.66016,-0.28125 -0.76493,2.09963 1.04054,3.42821 2.57422,1.89453 C 247.1043,466.29612 247.08036,466 246.19922,466 245.53922,466 245,465.56399 245,465.03125 c 0,-0.53276 0.58105,-0.7451 1.29102,-0.47266 1.51559,0.58158 3.88587,6.34729 3.11914,7.58789 C 249.12006,472.61588 294.13395,473 349.44141,473 H 450 v -7 -7 h -9.53125 c -7.62073,0 -9.64914,0.30573 -10.11719,1.52539 -0.47492,1.23763 -0.86899,1.2909 -2.08789,0.2793 -1.58555,-1.31589 -1.8519,-1.32896 -50.26367,-2.23828 -25.76232,-0.48389 -124.46331,-0.77212 -194.80859,-0.57032 z m -57.82813,0.78711 C 53.410193,458.87389 5.256502,459.22119 2.75,459.66797 c -3.23934746,0.57741 -3.52486596,2.58465 -0.7851562,5.52539 1.0809807,1.16029 1.7298463,2.49228 1.4414062,2.95898 -0.9613796,1.55555 -2.2632858,0.87398 -2.6796875,-1.40234 -0.2263726,-1.2375 -0.38545955,-0.3375 -0.35546875,2 0.0480557,3.7455 0.32583243,4.25 2.34179685,4.25 1.5003271,0 2.2984154,-0.60221 2.3183594,-1.75 0.028961,-1.66667 0.078084,-1.66667 1.0488281,0 0.9378829,1.61025 3.5100591,1.74455 32.2187499,1.67188 17.160171,-0.0434 30.587625,-0.32294 29.837891,-0.6211 -1.021445,-0.40621 -1.063125,-0.72802 -0.167969,-1.28125 0.657038,-0.40608 1.270581,-2.22693 1.363281,-4.04687 0.0927,-1.81994 0.730469,-3.49636 1.417969,-3.72461 1.157424,-0.38426 1.713222,1.50629 1.324219,4.50195 -0.08928,0.6875 0.334837,1.25 0.941406,1.25 0.60657,0 0.824294,-0.45 0.484375,-1 -0.339919,-0.55 -0.167186,-1 0.382812,-1 2.020415,0 2.113392,1.93068 0.144532,2.98438 -4.723663,2.528 -1.488141,3.01562 20.03125,3.01562 15.068526,0 21.854736,-0.32995 21.414066,-1.04297 -0.35481,-0.5741 -0.10616,-1.69438 0.55273,-2.48828 0.65886,-0.7939 0.97337,-2.03243 0.69727,-2.75195 -0.29593,-0.77116 0.27249,-1.36532 1.38672,-1.44922 2.10827,-0.15881 2.58884,1.33061 0.64062,1.98633 -0.97451,0.32799 -0.94691,0.78779 0.12305,2.08398 0.89221,1.08084 0.97969,1.66211 0.25,1.66211 -0.61734,0 -1.12305,0.45 -1.12305,1 0,0.55 2.50113,1 5.55859,1 3.51085,0 5.32833,-0.3738 4.93164,-1.01562 -0.34546,-0.55897 -1.04659,-0.75785 -1.55859,-0.44141 C 126.41965,471.8594 126,471.2408 126,470.16797 c 0,-1.27207 0.91487,-2.18113 2.62891,-2.61133 3.55142,-0.89135 8.37109,0.27418 8.37109,2.02344 0,1.99957 -2.70379,1.76989 -3.88867,-0.33008 -1.25038,-2.21606 -3.4833,-0.38368 -2.53711,2.08203 0.53754,1.40083 2.22091,1.66797 10.5332,1.66797 7.78942,0 9.89258,-0.29577 9.89258,-1.39258 0,-1.79415 -2.73388,-2.86954 -3.30664,-1.30078 -0.31344,0.85816 -0.93165,0.90119 -2.19922,0.15625 -2.38487,-1.40145 -2.38361,-2.52881 0.006,-3.85351 1.1,-0.60997 2.33029,-1.55938 2.73438,-2.10938 0.45903,-0.62481 0.74,-0.5442 0.75,0.21484 0.0145,1.1514 3.85292,3.81774 4.48437,3.11524 0.16365,-0.18206 0.57384,-1.68008 0.91211,-3.33008 1.18908,-5.80002 1.41969,-5.7552 -29.01758,-5.7168 z M 313.55859,460 c 0.24254,0 0.44141,0.45 0.44141,1 0,0.55 -0.47613,1 -1.05859,1 -0.58246,0 -0.78133,-0.45 -0.44141,-1 0.33992,-0.55 0.81605,-1 1.05859,-1 z m -107.35156,1.32617 c 0.34444,-0.003 0.60371,0.37303 1.02344,1.12305 0.52733,0.94238 0.54684,2.71901 0.0449,4.22461 l -0.86719,2.59961 -1.68945,-2.58008 c -1.56896,-2.39461 -1.57309,-2.69649 -0.0449,-4.22461 0.75896,-0.75896 1.18877,-1.13996 1.5332,-1.14258 z m 18.08594,0.0488 c 0.18125,-0.0799 0.43203,-0.045 0.70703,0.125 0.55,0.33992 1,0.81605 1,1.05859 0,0.24254 -0.45,0.44141 -1,0.44141 -0.55,0 -1,-0.47613 -1,-1.05859 0,-0.29123 0.11172,-0.48648 0.29297,-0.56641 z m 17.40625,0.0566 c 0.34335,0.10331 0.37993,0.63123 -0.1582,1.50195 -0.36254,0.58659 -1.13778,1.06641 -1.72266,1.06641 -0.6631,0 -0.58758,-0.57305 0.20117,-1.52344 0.68577,-0.8263 1.33633,-1.14822 1.67969,-1.04492 z m 38.28906,0.0762 c 0.56686,-0.35034 0.73407,0.0495 0.39258,0.93946 -0.66479,1.73242 -1.38086,2.04975 -1.38086,0.61132 0,-0.51754 0.44458,-1.21476 0.98828,-1.55078 z M 195.55859,462 c 0.24254,0 0.44141,0.45 0.44141,1 0,0.55 -0.47613,1 -1.05859,1 -0.58246,0 -0.78133,-0.45 -0.44141,-1 0.33992,-0.55 0.81605,-1 1.05859,-1 z m 87.43555,0.0352 c 0.42486,-0.12495 1.20667,0.47304 1.97266,1.90429 0.57084,1.06662 0.6527,2.17762 0.18164,2.46875 -0.47106,0.29114 -1.36184,-0.58169 -1.98047,-1.93945 -0.66558,-1.46078 -0.59869,-2.30864 -0.17383,-2.43359 z m -110.26367,0.0332 c 0.79139,-0.0827 1.2149,0.21102 0.76953,0.93164 -0.33992,0.55 0.13253,1 1.04883,1 1.10832,0 1.4624,0.52972 1.05859,1.58203 -0.33385,0.86998 -0.60742,1.76998 -0.60742,2 0,0.23001 -0.9,0.41797 -2,0.41797 -1.1,0 -2,-0.45 -2,-1 0,-0.55 -0.675,-1 -1.5,-1 -1.99013,0 -1.89632,-0.97814 0.25,-2.60742 1.02979,-0.78172 2.18907,-1.24148 2.98047,-1.32422 z m 206.54883,0.31055 c 0.10514,-0.10514 0.24468,0.0347 0.40429,0.43359 0.28891,0.72187 0.25231,1.58373 -0.0801,1.91602 -0.33229,0.33229 -0.5688,-0.25834 -0.5254,-1.3125 0.024,-0.58248 0.096,-0.93197 0.20118,-1.03711 z m -151.34961,0.20507 c 0.43584,0.0495 0.97216,0.17611 1.5039,0.36914 1.0635,0.3861 1.49288,0.97502 0.95313,1.3086 -1.03158,0.63756 -4.17068,-0.84162 -3.35742,-1.58203 0.12953,-0.11794 0.46454,-0.14524 0.90039,-0.0957 z M 259.89258,463 c 0.60885,0 1.10742,0.69081 1.10742,1.53516 0,1.20629 0.41251,1.31482 1.92773,0.5039 1.6195,-0.86673 2.16035,-0.5696 3.37305,1.86133 1.35333,2.71281 1.30391,2.95868 -0.77148,3.9043 -2.82181,1.2857 -4.81591,0.10732 -3.89258,-2.29883 0.48632,-1.26734 0.34161,-1.61096 -0.4668,-1.11133 -0.64347,0.39769 -1.16992,0.28358 -1.16992,-0.25391 0,-0.53746 -0.27357,-1.68861 -0.60742,-2.55859 -0.33384,-0.86999 -0.10884,-1.58203 0.5,-1.58203 z M 406.5,463 c 0.825,0 1.5,0.45 1.5,1 0,0.55 -0.675,1 -1.5,1 -0.825,0 -1.5,-0.45 -1.5,-1 0,-0.55 0.675,-1 1.5,-1 z m -155.83398,0.0391 c 0.31378,-0.18611 1.13292,0.16027 2.17578,1.20313 0.98886,0.98886 1.44784,0.93796 2.2539,-0.25 0.83508,-1.23073 0.95961,-1.15601 0.70899,0.42578 -0.43113,2.72103 -2.14984,2.96282 -4.28321,0.60547 -0.97838,-1.0811 -1.16925,-1.79827 -0.85546,-1.98438 z m -208.537114,0.20117 c 0.358485,0.0387 0.719192,0.20748 1.044922,0.53321 0.666669,0.66667 0.638827,1.22395 -0.08594,1.67187 C 41.503757,466.42424 41.757578,468 43.5,468 c 0.825,0 1.492797,0.7875 1.484375,1.75 -0.01276,1.45857 -0.169631,1.50612 -0.939453,0.28906 -0.796796,-1.2597 -1.182231,-1.22537 -2.8125,0.25 -3.009541,2.7236 -4.957502,2.2013 -4.458984,-1.19531 0.297699,-2.02837 0.01836,-2.85856 -0.923829,-2.75 -0.742296,0.0855 -1.468739,-0.29375 -1.613281,-0.84375 -0.441151,-1.67864 3.752033,-1.33974 4.759766,0.38477 0.856397,1.4655 0.945056,1.45864 0.972656,-0.0762 0.02906,-1.61609 1.084701,-2.68433 2.160156,-2.56836 z m 316.281254,0.0176 c 0.33617,-0.33616 1.21333,0.21237 1.94922,1.21875 0.73586,1.00637 1.85484,1.50867 2.48828,1.11719 0.63343,-0.39149 1.15234,-0.2348 1.15234,0.34766 0,0.58246 -0.7875,1.04238 -1.75,1.02148 -1.96442,-0.0427 -4.78264,-2.76228 -3.83984,-3.70508 z m -299.119144,0.0391 c 0.224926,-0.044 0.608587,0.20462 1.242187,0.73046 0.843318,0.69989 1.385286,1.71915 1.203125,2.26563 -0.18216,0.54649 -1.661499,1.13065 -3.285156,1.29687 -2.388387,0.24452 -2.617003,0.11214 -1.201172,-0.69336 0.9625,-0.54758 1.75,-1.70334 1.75,-2.56836 0,-0.6499 0.06609,-0.98721 0.291016,-1.03124 z M 47.292969,463.375 C 47.474219,463.2951 47.725,463.33 48,463.5 c 0.55,0.33992 1,0.81605 1,1.05859 C 49,464.80106 48.55,465 48,465 c -0.55,0 -1,-0.47613 -1,-1.05859 0,-0.29123 0.111719,-0.48648 0.292969,-0.56641 z m 81.691411,0.13477 c 0.55896,-0.34546 1.01562,0.0742 1.01562,0.93164 0,1.75653 -0.5998,2.01399 -1.45703,0.62695 -0.31644,-0.512 -0.11757,-1.21313 0.44141,-1.55859 z m -48.886724,0.0117 c 0.209186,-0.0599 0.466412,-0.0356 0.751953,0.084 0.380722,0.15944 0.81289,0.48854 1.251953,1.01758 0.730728,0.88047 2.060227,1.88731 2.953126,2.23828 1.355069,0.53265 1.15265,1.02331 -1.216797,2.96484 L 81,472.15234 v -2.14257 c 0,-1.17799 -0.450466,-2.98517 -1.001953,-4.01563 -0.727799,-1.35991 -0.527949,-2.29308 0.09961,-2.47266 z m 261.800784,0.42188 c 0.20854,-0.0216 0.45095,0.074 0.70508,0.32812 0.33229,0.33229 0.41519,1.1724 0.18359,1.86719 -0.33872,1.01621 -0.57505,1.01582 -1.20508,-0.004 -0.62552,-1.01212 -0.30923,-2.12657 0.31641,-2.19141 z M 137,464 c 0.55,0 1,0.675 1,1.5 0,0.825 -0.45,1.5 -1,1.5 -0.55,0 -1,-0.675 -1,-1.5 0,-0.825 0.45,-1.5 1,-1.5 z m 280.94141,0 c 0.58246,0 1.05859,0.45 1.05859,1 0,0.55 -0.19887,1 -0.44141,1 -0.24254,0 -0.71867,-0.45 -1.05859,-1 -0.33992,-0.55 -0.14105,-1 0.44141,-1 z m -184.39649,0.22852 c 1.75071,0.26726 4.45508,1.72682 4.45508,2.75 0,0.56179 -0.58871,1.02148 -1.30859,1.02148 -1.93376,0 -5.30625,-2.7172 -4.44336,-3.58008 0.23604,-0.23605 0.7133,-0.28049 1.29687,-0.1914 z M 99.4375,465.43359 c 0.09773,-0.0468 0.240322,-0.0347 0.435547,0.0293 0.260303,0.0854 0.612843,0.26285 1.074223,0.50977 1.10643,0.59214 3.14496,0.7913 4.53125,0.44336 1.91151,-0.47975 2.52148,-0.24518 2.52148,0.9746 0,0.88464 0.45,1.60938 1,1.60938 0.55,0 1,0.43822 1,0.97461 0,0.63366 -0.89778,0.63366 -2.56445,0 C 106.02475,469.43822 104.70577,469 104.50586,469 c -0.19991,0 -1.04187,0.67859 -1.87109,1.50781 -1.66399,1.66399 -2.04297,1.31211 -3.029301,-2.81054 -0.345982,-1.44615 -0.461159,-2.12319 -0.167969,-2.26368 z M 25,465.5 c 0.55,-0.33992 1,0.084 1,0.94141 C 26,467.29887 25.55,468 25,468 c -0.55,0 -1,-0.42387 -1,-0.94141 0,-0.51754 0.45,-1.21867 1,-1.55859 z m -5.53125,0.12695 c 0.113801,-0.13478 0.881507,0.42806 2.019531,1.51953 1.517365,1.45531 2.451438,3.14281 2.076172,3.75 -1.27215,2.05838 -3.723764,1.23538 -3.416015,-1.14648 0.159891,-1.2375 -0.09437,-2.925 -0.564454,-3.75 -0.117522,-0.20625 -0.153168,-0.32812 -0.115234,-0.37305 z m 104.04297,0.19141 c 0.057,0.0591 0.11825,0.20793 0.18164,0.45117 0.25359,0.97297 0.23678,2.32297 -0.0371,3 -0.27393,0.67703 -0.48134,-0.11953 -0.46094,-1.76953 0.0153,-1.2375 0.14546,-1.85897 0.31641,-1.68164 z m -10.39844,0.0684 c 1.01146,0.38466 1.38456,1.2518 1,2.32617 -0.40585,1.13386 -1.06878,1.43225 -1.96094,0.88086 -1.89811,-1.17309 -1.05862,-3.97508 0.96094,-3.20703 z M 13.582031,466 c 2.086132,0 1.726702,2.76478 -0.515625,3.96484 C 10.215749,471.49046 9,471.2345 9,469.10742 9,467.23744 10.82442,466 13.582031,466 Z m 355.228519,0.0703 c 0.21488,-0.10381 0.44966,-0.0747 0.65234,0.11328 0.40538,0.37591 0.44075,1.16341 0.0781,1.75 -0.36254,0.58659 -1.55821,1.06641 -2.65821,1.06641 -1.10009,0 -1.71853,-0.45664 -1.37304,-1.01562 0.34546,-0.55897 1.00958,-0.78155 1.47461,-0.49415 0.46501,0.2874 1.04628,-0.0434 1.29296,-0.73437 0.12334,-0.34547 0.31833,-0.58173 0.53321,-0.68555 z m 67.625,0.25977 c 0.76761,0.0426 1.56445,1.01796 1.56445,2.22851 0,0.79254 -0.40143,1.44141 -0.89258,1.44141 -1.10376,0 -2.17882,-2.5946 -1.39844,-3.375 0.21883,-0.21883 0.4707,-0.30911 0.72657,-0.29492 z m -104.15625,0.0488 c 0.10514,-0.10514 0.24468,0.0347 0.40429,0.43359 0.28891,0.72187 0.25231,1.58373 -0.0801,1.91602 -0.33229,0.33229 -0.5688,-0.25834 -0.5254,-1.3125 0.024,-0.58248 0.096,-0.93197 0.20118,-1.03711 z m 75,0 c 0.10514,-0.10514 0.24468,0.0347 0.40429,0.43359 0.28891,0.72187 0.25231,1.58373 -0.0801,1.91602 -0.33229,0.33229 -0.5688,-0.25834 -0.5254,-1.3125 0.024,-0.58248 0.096,-0.93197 0.20118,-1.03711 z M 31.5,467 c 1.555556,0 2.5,0.56667 2.5,1.5 0,1.53859 -0.237677,1.59776 -3.25,0.81055 C 28.119681,468.62318 28.646573,467 31.5,467 Z m 47.5,0 c 0.55,0 1,0.9 1,2 0,1.17029 -0.6671,2 -1.607422,2 -1.054521,0 -1.398311,-0.54404 -1,-1.58203 C 77.726422,468.54799 78,467.64799 78,467.41797 78,467.18796 78.45,467 79,467 Z m 315,0 c 0.55,0 1,0.45 1,1 0,0.55 -0.45,1 -1,1 -0.55,0 -1,-0.45 -1,-1 0,-0.55 0.45,-1 1,-1 z m 29.37695,0 c 0.89234,0 1.62305,0.675 1.62305,1.5 0,0.825 -0.16929,1.5 -0.37695,1.5 -0.20765,0 -0.93836,-0.675 -1.62305,-1.5 -1.01957,-1.22851 -0.95185,-1.5 0.37695,-1.5 z m -334.044919,0.0176 C 90.505179,467.10195 92,468.27125 92,469.46875 c 0,1.99604 -2.887392,1.98674 -3.654297,-0.0117 -0.325681,-0.84872 -0.330941,-1.80382 -0.01172,-2.12305 0.252262,-0.25226 0.606998,-0.34455 0.998047,-0.3164 z m 297.423829,0.40039 c 0.27779,0.0656 0.53042,0.23561 0.69141,0.49609 0.32198,0.52097 0.15964,1.21124 -0.36133,1.53321 -0.52097,0.32198 -1.21124,0.15964 -1.53321,-0.36133 -0.32198,-0.52097 -0.15964,-1.21124 0.36133,-1.53321 0.26049,-0.16099 0.56401,-0.20034 0.8418,-0.13476 z m -292.857422,0.52539 c 0.208545,-0.0216 0.450949,0.074 0.705078,0.32812 0.332291,0.33229 0.415188,1.1724 0.183593,1.86719 -0.338725,1.01621 -0.575043,1.01582 -1.205078,-0.004 -0.625522,-1.01212 -0.309234,-2.12657 0.316407,-2.19141 z M 189.55859,468 c 0.24254,0 0.44141,0.45 0.44141,1 0,0.55 -0.47613,1 -1.05859,1 -0.58246,0 -0.78133,-0.45 -0.44141,-1 0.33992,-0.55 0.81605,-1 1.05859,-1 z m 128.5,0 c 0.51754,0 0.94141,0.45 0.94141,1 0,0.55 -0.70113,1 -1.55859,1 -0.85748,0 -1.28133,-0.45 -0.94141,-1 0.33992,-0.55 1.04105,-1 1.55859,-1 z m 5.88282,0 c 0.58246,0 1.05859,0.45 1.05859,1 0,0.55 -0.19887,1 -0.44141,1 -0.24254,0 -0.71867,-0.45 -1.05859,-1 -0.33992,-0.55 -0.14105,-1 0.44141,-1 z m 31.5,0 c 1.34254,0 2.64935,0.3375 2.90429,0.75 0.25494,0.4125 -0.84392,0.75 -2.4414,0.75 -1.59748,0 -2.9043,-0.3375 -2.9043,-0.75 0,-0.4125 1.09887,-0.75 2.44141,-0.75 z m -104.38868,0.13477 C 251.90347,468.24286 253,469.1737 253,470.05859 253,470.57613 252.57613,471 252.05859,471 c -1.17986,0 -2.44092,-1.94968 -1.72461,-2.66602 0.17908,-0.17907 0.43518,-0.23524 0.71875,-0.19921 z m -92.52929,0.48632 c -0.59087,0.0389 -1.04624,0.50803 -1.84375,1.43946 -0.92386,1.07899 -1.67969,2.18246 -1.67969,2.45117 0,0.26871 1.125,0.48828 2.5,0.48828 1.375,0 2.5,-0.45 2.5,-1 0,-0.55 0.47613,-1 1.05859,-1 0.58246,0 0.78133,0.45 0.44141,1 -0.33992,0.55 0.0839,1 0.94141,1 2.39924,0 1.85547,-1.39301 -1.26172,-3.23438 -1.33902,-0.79097 -2.06538,-1.18337 -2.65625,-1.14453 z m -107.843752,0.006 c 0.489156,-0.0601 1.007368,-0.0583 1.517578,0.0117 0.680278,0.0934 1.347429,0.30971 1.917968,0.66602 3.296916,2.05896 2.319719,3.53482 -1.121093,1.69336 -1.252416,-0.67028 -2.077936,-0.67028 -2.492188,0 C 49.595507,472.46445 48,472.22178 48,470.61719 c 0,-1.07723 1.212214,-1.8098 2.679688,-1.99024 z M 257.55859,469 c 0.24254,0 0.44141,0.45 0.44141,1 0,0.55 -0.47613,1 -1.05859,1 -0.58246,0 -0.78133,-0.45 -0.44141,-1 0.33992,-0.55 0.81605,-1 1.05859,-1 z m 86.97266,0 c 0.80774,0 1.46875,0.675 1.46875,1.5 0,0.825 -0.40143,1.5 -0.89258,1.5 -0.49116,0 -1.15216,-0.675 -1.46875,-1.5 -0.35062,-0.91371 -0.002,-1.5 0.89258,-1.5 z m -128.23828,0.375 c 0.18125,-0.0799 0.43203,-0.045 0.70703,0.125 0.55,0.33992 1,0.81605 1,1.05859 0,0.24254 -0.45,0.44141 -1,0.44141 -0.55,0 -1,-0.47613 -1,-1.05859 0,-0.29123 0.11172,-0.48648 0.29297,-0.56641 z m -74.81836,0.22852 c 0.28422,0.10797 0.37403,0.35206 0.25,0.7246 -0.47887,1.43834 -3.72461,2.18892 -3.72461,0.86133 0,-0.52619 0.92524,-1.19827 2.05664,-1.49414 0.65429,-0.1711 1.13375,-0.19974 1.41797,-0.0918 z m 99.10937,0.004 c 0.27071,0.14713 0.41602,0.45926 0.41602,0.92383 0,1.6997 -0.0579,1.71768 -1.83398,0.5918 -1.07393,-0.68077 -1.02522,-0.96378 0.25,-1.45313 0.50102,-0.19226 0.89726,-0.20963 1.16796,-0.0625 z M 174.94141,470 c 0.58246,0 1.05859,0.45 1.05859,1 0,0.55 -0.19887,1 -0.44141,1 -0.24254,0 -0.71867,-0.45 -1.05859,-1 -0.33992,-0.55 -0.14105,-1 0.44141,-1 z m 10.11718,0 c 0.58246,0 0.78133,0.45 0.44141,1 -0.33992,0.55 -0.81605,1 -1.05859,1 C 184.19887,472 184,471.55 184,471 c 0,-0.55 0.47613,-1 1.05859,-1 z" />
  </g>
</svg>
