<?xml version="1.0" encoding="UTF-8" standalone="no"?>
<!-- Created with Inkscape (http://www.inkscape.org/) -->

<svg
   version="1.1"
   id="svg485"
   width="4cm"
   height="4cm"
   viewBox="0 0 151.18111 151.18111"
   sodipodi:docname="23.svg"
   inkscape:version="1.1.2 (0a00cf5339, 2022-02-04)"
   xmlns:inkscape="http://www.inkscape.org/namespaces/inkscape"
   xmlns:sodipodi="http://sodipodi.sourceforge.net/DTD/sodipodi-0.dtd"
   xmlns="http://www.w3.org/2000/svg"
   xmlns:svg="http://www.w3.org/2000/svg">
  <defs
     id="defs489" />
  <sodipodi:namedview
     id="namedview487"
     pagecolor="#505050"
     bordercolor="#eeeeee"
     borderopacity="1"
     inkscape:pageshadow="0"
     inkscape:pageopacity="0"
     inkscape:pagecheckerboard="0"
     showgrid="false"
     inkscape:zoom="1.9404145"
     inkscape:cx="159.24433"
     inkscape:cy="190.42323"
     inkscape:window-width="1920"
     inkscape:window-height="1043"
     inkscape:window-x="0"
     inkscape:window-y="0"
     inkscape:window-maximized="1"
     inkscape:current-layer="g491"
     units="cm"
     inkscape:document-units="cm" />
  <!-- Border -->
    <rect
       x="0"
       y="0"
       width="4cm"
       height="4cm"
       class="board-border"
       stroke-width="0.1cm"
       id="border"
       fill="none"
       stroke="#000000" />
  <g
     inkscape:groupmode="layer"
     inkscape:label="Image"
     id="g491">
    <path
       id="path495"
       style="fill:#000000;stroke-width:0.415216"
       d="M 13.975332,3.5145435 C 12.381756,3.5328905 10.734444,3.5762595 9.4184026,3.6401057 5.1451897,3.847416 4.6328011,3.949162 4.6328011,4.5924121 c 0,0.6458957 0.3567245,0.7135551 3.4500849,0.6557979 1.897547,-0.03543 10.261222,0.055644 18.585942,0.2019584 34.837516,0.6123002 45.531809,0.7335378 64.771695,0.7352201 16.515167,0.00143 20.417127,0.1005332 21.133497,0.5370435 1.03135,0.6284394 4.06105,0.7159778 4.4778,0.129344 0.18749,-0.2638908 0.47073,-0.2750993 0.80774,-0.031768 0.28526,0.2059414 1.21862,0.4479846 2.07459,0.5377993 3.884,0.4075426 6.83756,0.2802703 7.61053,-0.3282771 0.57597,-0.4534633 0.99274,-0.5128375 1.58158,-0.2261631 0.53692,0.2614018 1.07695,0.2595498 1.64416,-0.00455 0.50958,-0.2372485 3.73703,-0.3390077 8.1357,-0.2571754 l 7.29144,0.1353953 V 5.8056761 C 146.19744,4.7667653 147.92691,4.8464332 123.49377,4.761089 114.06725,4.7281625 100.04434,4.5805672 92.331734,4.4328118 84.619126,4.2850565 65.688176,4.052841 50.262958,3.9169478 34.83774,3.7810543 20.414158,3.6107684 18.210556,3.5387481 17.108754,3.5027381 15.56891,3.4961968 13.975332,3.5145435 Z m 65.96027,14.7119615 c -1.734129,-0.02495 -2.450133,0.20872 -4.40912,1.017356 -1.919279,0.792247 -2.782326,1.368563 -2.782326,1.857716 0,0.390012 -0.401362,1.394059 -0.892085,2.231377 -0.885785,1.51147 -0.872698,3.333279 0.03565,4.869697 0.199182,0.336915 0.459385,1.82535 0.578202,3.307733 0.118817,1.482384 0.253935,2.862221 0.299971,3.066442 0.221157,0.981128 -0.145349,1.7532 -1.575492,3.318323 -0.854583,0.935233 -1.555876,1.972654 -1.558102,2.305503 -0.0069,0.981534 3.749409,4.351247 5.38641,4.831877 l 1.50941,0.44325 -1.335517,0.610417 c -2.004041,0.9159 -7.970899,6.689833 -7.540105,7.296223 0.601687,0.846939 1.868312,0.152928 3.293581,-1.804769 0.847523,-1.164134 2.708267,-2.931396 4.134363,-3.926467 1.426095,-0.995071 2.505509,-2.007056 2.398887,-2.248774 -0.143503,-0.325336 0.285498,-0.330588 1.652875,-0.02192 2.730045,0.616178 3.285452,1.004109 2.19108,1.531708 -1.039629,0.501151 -5.908104,5.423974 -5.908104,5.974024 0,0.55396 -1.161512,0.844896 -3.375308,0.844896 -1.081773,0 -1.966759,0.172122 -1.966759,0.382738 0,0.210616 0.450737,0.373857 1.001638,0.362317 0.5509,-0.01154 1.302128,0.01758 1.669396,0.06505 2.306736,0.298191 3.107303,-0.05999 4.622139,-2.068752 2.006716,-2.66103 3.694671,-4.40956 4.002206,-4.145065 0.135479,0.116516 -0.120661,1.336436 -0.56951,2.710935 -1.163626,3.563348 -1.873566,8.836258 -1.858073,13.795204 l 0.01304,4.280461 -2.399759,-0.816909 c -2.299512,-0.783213 -2.412381,-0.888947 -2.697986,-2.525619 -0.641116,-3.67387 -0.688624,-5.325274 -0.199114,-6.863563 0.494838,-1.555023 0.06951,-3.241577 -0.817309,-3.240415 -0.175019,1.94e-4 -0.381017,2.305612 -0.457342,5.123093 -0.07632,2.817482 -0.21083,5.185479 -0.299103,5.262268 -0.08827,0.07679 -0.859375,-0.273286 -1.713735,-0.778336 -1.100039,-0.65028 -1.451195,-1.083782 -1.204226,-1.486325 0.191811,-0.312643 0.483678,-1.265908 0.649497,-2.117916 0.165817,-0.852008 0.606783,-2.372618 0.9799,-3.379591 0.845502,-2.281844 0.384903,-3.162785 -0.801657,-1.532464 -0.532351,0.731441 -0.956815,2.217774 -1.121625,3.927977 -0.145849,1.51341 -0.407538,2.828055 -0.580812,2.921214 -0.17327,0.09316 -1.595743,-0.08785 -3.161418,-0.402403 -1.565676,-0.314557 -3.645622,-0.731902 -4.622139,-0.927345 -1.206697,-0.24151 -1.964572,-0.218618 -2.365845,0.0711 -0.454775,0.328344 -0.993279,0.05401 -2.344112,-1.193597 -2.507852,-2.316195 -8.375801,-4.189064 -11.114526,-3.547509 -2.528939,0.592408 -3.39306,1.932597 -1.245961,1.932597 0.630326,0 0.816439,0.297588 0.816439,1.307814 0,0.719423 -0.300491,1.525233 -0.667758,1.790397 -1.000631,0.722448 -0.810094,1.676248 0.556465,2.785063 1.728991,1.402893 2.726116,1.782467 6.425435,2.447706 1.79128,0.322121 3.828281,0.786504 4.526497,1.031728 1.150548,0.404084 1.24504,0.577254 1.011205,1.849395 -0.444878,2.420303 0.769552,3.835906 4.174358,4.865914 1.591491,0.481453 3.947062,1.242874 5.235123,1.692824 2.342502,0.818287 4.228424,1.098366 3.423129,0.508299 -0.232593,-0.170436 -1.624521,-0.723986 -3.093589,-1.230663 -1.46907,-0.506682 -3.949908,-1.529076 -5.512485,-2.271464 L 57.490914,72.96786 57.79523,70.223643 c 0.653504,-5.89793 0.904416,-7.004255 1.590276,-7.004255 0.6887,0 2.246815,2.467849 2.356283,3.732073 0.03436,0.396773 0.220262,0.721604 0.412999,0.721604 0.573578,0 0.398781,-1.505978 -0.313882,-2.704884 -0.621954,-1.046305 -0.606044,-1.133528 0.244325,-1.368326 0.499509,-0.13792 1.149025,-0.07892 1.443333,0.130857 0.294302,0.209772 1.390651,0.580504 2.436271,0.823722 1.045616,0.243217 2.572899,0.826603 3.394439,1.296465 0.821533,0.469867 1.868722,1.061655 2.327591,1.31538 0.749396,0.414371 0.693273,0.463647 -0.557333,0.484095 -0.765763,0.01253 -1.641955,-0.238721 -1.94676,-0.558223 -0.304805,-0.319503 -0.880506,-0.57528 -1.279002,-0.568813 -0.606316,0.0099 -0.588808,0.07981 0.107816,0.431903 0.672161,0.339726 0.715022,0.485776 0.222586,0.757156 -0.335433,0.184855 -1.05545,0.338785 -1.600705,0.341895 -0.968692,0.0058 -2.727923,1.740908 -2.216299,2.185993 0.138692,0.120656 1.277875,0.02808 2.531049,-0.205741 3.159342,-0.589438 4.495028,-0.532598 5.126434,0.218599 0.643767,0.765908 2.108446,0.428877 1.742436,-0.400894 -0.331463,-0.751439 -4.896183,-1.205633 -6.565424,-0.653528 -0.9809,0.324437 -1.220519,0.308465 -1.075544,-0.07035 0.377631,-0.986757 5.671789,-0.970046 8.919964,0.028 1.41601,0.435074 3.669147,0.988233 5.00732,1.229904 2.099757,0.379218 2.469268,0.581728 2.69364,1.477247 0.142989,0.570714 0.443156,1.542738 0.667758,2.160277 0.611752,1.682003 0.520308,1.864097 -0.815569,1.617936 -3.472415,-0.639858 -9.761581,-0.942607 -11.530135,-0.555195 -2.673967,0.585744 -3.362175,0.231266 -1.491153,-0.768504 0.88417,-0.47245 2.300966,-0.833531 3.275319,-0.834305 1.382442,-0.0012 1.66437,-0.120978 1.44681,-0.614197 -0.148621,-0.336922 -0.270407,-0.772608 -0.270407,-0.96819 0,-0.571431 -4.333569,-0.408667 -6.08634,0.228431 -1.177,0.427824 -1.762135,0.47068 -2.191949,0.160358 -0.756575,-0.54626 -1.5155,-0.132052 -1.5155,0.827498 0,0.888496 0.128067,0.899755 2.448448,0.214818 0.979379,-0.289094 2.88249,-0.635695 4.229136,-0.770013 l 2.448446,-0.243562 -2.448446,0.799516 c -1.346646,0.440007 -2.899184,0.89649 -3.450086,1.014331 -1.303624,0.278846 -1.276708,1.02701 0.05912,1.648949 0.764112,0.355755 1.604116,0.394808 3.004913,0.14069 1.189242,-0.215728 3.629761,-0.20719 6.28458,0.02119 l 4.34043,0.372905 v 1.897805 c 0,1.166406 0.171524,1.805153 0.445173,1.658027 0.244844,-0.131643 0.445172,-0.925998 0.445172,-1.765435 0,-1.341889 0.125961,-1.526414 1.041631,-1.526414 0.66892,0 1.216758,0.33463 1.531153,0.934908 0.269218,0.514028 0.880115,1.041948 1.358122,1.173931 1.021132,0.281946 1.501299,2.259046 0.891213,3.668537 -0.287315,0.663792 -0.238162,1.028041 0.16868,1.252595 0.975711,0.538535 1.130715,0.384462 1.444203,-1.43413 0.378047,-2.193172 1.134542,-2.497646 6.202846,-2.497646 h 3.67528 l 1.020766,1.776781 c 0.775823,1.351412 0.952653,2.139257 0.740793,3.291849 -0.15319,0.833384 -0.0972,1.515066 0.12434,1.515066 1.07638,0 1.26915,-3.219013 0.31214,-5.211587 -0.54459,-1.133883 -0.54459,-1.342343 0,-1.524146 0.34707,-0.115896 0.91066,-0.117554 1.25204,-0.0038 1.22332,0.408386 3.09489,5.386584 3.62572,9.644086 0.0796,0.639006 0.38279,2.425318 0.67384,3.969583 0.58758,3.117655 1.54702,3.928285 1.14597,0.96819 -0.13708,-1.011759 -0.37933,-3.14662 -0.53908,-4.744135 -0.16632,-1.663374 -0.86057,-4.27857 -1.62418,-6.120022 -1.34058,-3.232867 -1.37178,-3.840059 -0.17824,-3.441616 0.57706,0.192638 0.98303,1.18393 2.49105,6.076152 0.61143,1.983566 0.94403,9.268683 0.49474,10.843736 -0.268,0.939458 -0.40144,1.088036 -0.43301,0.484098 -0.07,-1.339698 -0.93556,-1.032683 -0.93556,0.332149 0,0.931999 0.1567,1.150372 0.69559,0.970461 0.99754,-0.333011 -0.46321,1.377685 -3.79875,4.447612 -2.20337,2.02795 -2.77526,2.37367 -3.13793,1.89857 -0.379316,-0.49691 -0.5554,-0.45686 -1.219006,0.2791 -0.859574,0.95333 -3.639207,2.81911 -4.200445,2.81911 -0.747365,0 -0.31702,-1.13479 0.692974,-1.82595 0.578874,-0.39612 1.386065,-1.28002 1.79286,-1.96436 0.406807,-0.68435 0.934368,-1.24427 1.172926,-1.24427 0.569781,0 0.560333,-1.0484 -0.01215,-1.35624 -0.245303,-0.13188 -0.643693,0.21229 -0.885127,0.76472 -0.504389,1.15412 -2.604066,3.10655 -2.984915,2.77523 -0.140643,-0.12235 -0.30359,-0.62061 -0.361702,-1.10661 -0.05812,-0.48599 -0.131344,-1.08815 -0.162596,-1.33806 -0.03125,-0.24992 -0.555615,-0.96966 -1.165096,-1.5998 -0.974117,-1.00711 -1.049534,-1.291917 -0.624286,-2.35314 0.613869,-1.531938 1.287695,-1.199314 1.287695,0.635377 0,1.669753 0.869965,1.252533 1.019026,-0.48864 0.07387,-0.862873 -0.208233,-1.249156 -1.340735,-1.834265 -1.777901,-0.918557 -2.478683,-0.641732 -1.874588,0.740516 0.503196,1.151301 0.307903,1.483459 -0.678192,1.154265 -0.410164,-0.136907 -0.686907,-0.702258 -0.686907,-1.403118 0,-0.785361 -0.221049,-1.173939 -0.667758,-1.173939 -0.795181,0 -0.823759,0.185015 -0.186068,1.221592 0.408392,0.663852 0.358224,0.763314 -0.328662,0.648229 -0.445983,-0.07468 -0.88255,-0.482605 -0.970338,-0.906167 -0.214146,-1.033197 -0.774172,-1.498514 -1.398988,-1.162578 -0.365306,0.196406 -0.291464,0.488418 0.255625,1.014329 0.422545,0.406158 0.618411,0.867988 0.43561,1.026435 -0.182805,0.158437 -0.697584,-0.103936 -1.14423,-0.583191 -0.953105,-1.022678 -1.268981,-1.057274 -2.911012,-0.316168 -1.769538,0.798648 -1.946254,1.246463 -1.286824,3.261573 0.323729,0.98927 0.913969,3.19291 1.312038,4.89693 0.398069,1.70403 1.023892,3.95256 1.390296,4.99678 0.366402,1.04422 0.547699,2.3077 0.403437,2.80775 -0.23263,0.80633 -0.107395,0.9092 1.105976,0.9092 0.900967,0 1.84824,0.39059 2.774501,1.14367 1.693582,1.37695 1.397387,1.86882 -0.587766,0.97576 -1.298433,-0.58412 -1.414891,-0.58717 -1.168577,-0.0287 0.382845,0.86792 -0.775811,0.79763 -3.118815,-0.1891 -1.923985,-0.81027 -2.507187,-1.51432 -1.253787,-1.51432 0.367267,0 0.667759,-0.19353 0.667759,-0.42964 0,-0.26236 -0.425055,-0.33643 -1.092934,-0.1906 -1.257002,0.27445 -4.078819,-0.87085 -6.09764,-2.47494 -1.392342,-1.10633 -4.06851,-4.89449 -5.474229,-7.74855 C 68.539888,99.175281 63.024079,92.597645 60.442789,91.381752 59.8631,91.108699 59.388982,90.806144 59.388982,90.709313 c 0,-0.354385 3.354017,-2.877029 3.838742,-2.887176 0.274934,-0.0058 1.376736,-0.341403 2.448447,-0.745809 1.071716,-0.404404 2.599562,-0.854181 3.395306,-0.999203 l 1.44681,-0.263225 0.03129,2.64437 c 0.01718,1.45469 0.186615,2.991438 0.376485,3.414387 0.245188,0.546187 -0.03717,1.30875 -0.973814,2.633025 -0.725309,1.025485 -1.208545,1.960614 -1.073804,2.07783 0.134741,0.117215 1.009752,-0.315171 1.944148,-0.960631 0.934394,-0.645454 3.101251,-1.638979 4.815165,-2.207928 1.713914,-0.568951 4.31817,-1.447913 5.787239,-1.953023 3.081033,-1.059343 7.044081,-1.936296 10.238961,-2.266169 l 2.225861,-0.229946 3.314446,2.714714 c 4.752276,3.892597 5.897126,3.577969 1.480719,-0.406943 -3.255286,-2.937243 -6.833675,-5.398418 -7.848765,-5.398418 -0.248669,0 0.124016,0.522823 0.827744,1.161828 l 1.279871,1.16183 h -1.11728 c -0.614303,0 -2.004175,0.245006 -3.088383,0.544606 -1.084209,0.299601 -4.074541,1.096353 -6.645411,1.769974 -2.57087,0.673616 -5.820818,1.551743 -7.221877,1.952268 -1.401062,0.400524 -2.618416,0.606602 -2.704944,0.457621 -0.224095,-0.385828 -0.406459,-2.576042 -0.459084,-5.499023 -0.03789,-2.104234 0.257119,-3.174713 1.799818,-6.524699 1.731673,-3.760348 1.785866,-3.990572 0.875566,-3.729044 -0.533584,0.1533 -1.84743,0.363962 -2.919707,0.468208 -2.116384,0.205753 -1.738692,0.86128 0.502559,0.872131 0.673323,0.0031 1.227192,0.136755 1.230309,0.296506 0.0032,0.159753 -0.547593,1.558416 -1.224223,3.108045 -0.995957,2.28096 -1.442252,2.857801 -2.34324,3.03089 -0.612112,0.117592 -2.476346,0.636702 -4.143058,1.15275 -3.644531,1.128419 -3.870042,1.140619 -3.870042,0.211039 0,-1.063964 -1.136975,-1.709627 -2.666685,-1.514312 -1.44685,0.184738 -1.62795,-0.0786 -0.824267,-1.198136 1.096286,-1.527132 -0.515505,-2.369798 -4.533452,-2.369798 -1.460806,0 -1.805989,-0.184521 -2.634515,-1.406146 -0.943241,-1.390764 -0.976277,-1.40206 -3.049257,-1.099803 -3.004822,0.438129 -4.568254,0.382358 -6.195892,-0.220872 -1.67498,-0.620769 -2.32814,-0.269087 -1.539845,0.829016 0.483369,0.673335 0.38159,0.971331 -0.757314,2.2223 -0.723392,0.79457 -1.382484,1.954398 -1.465069,2.577808 -0.110454,0.833774 -0.444683,1.196413 -1.26335,1.370594 -1.303076,0.277243 -1.356165,1.608142 -0.112164,2.803973 0.71316,0.685545 0.712398,0.796093 -0.01043,1.891751 -0.422187,0.639952 -0.767749,1.334424 -0.767749,1.543812 0,0.209389 -0.469065,1.284851 -1.042502,2.389465 -0.573437,1.10461 -1.38233,3.202453 -1.797209,4.661689 -0.994802,3.498981 -3.597412,7.735621 -6.41761,10.446621 -0.883862,0.84963 -3.967947,2.69711 -5.174258,3.09972 -0.593841,0.19821 -0.711671,0.40808 -0.387786,0.68984 0.744112,0.64733 4.664387,-1.31049 6.74801,-3.36975 3.661245,-3.61846 4.750973,-5.42969 6.50021,-10.808947 0.415586,-1.278008 1.139338,-3.064321 1.608533,-3.969581 1.915813,-3.696332 2.784406,-5.332094 2.898836,-5.460445 0.0664,-0.07448 0.827077,0.06733 1.691133,0.315416 1.426731,0.409626 1.54762,0.555421 1.310303,1.587684 -0.165181,0.718493 -0.07747,1.136867 0.239106,1.136867 0.27545,0 0.500819,-0.338429 0.500819,-0.751862 0,-0.923216 0.569609,-1.267225 1.553755,-0.938687 0.468323,0.156339 0.660921,0.524174 0.519947,0.993151 -0.130501,0.434136 0.04045,0.83288 0.409524,0.956088 0.348262,0.11626 0.632978,0.628662 0.632978,1.138379 0,1.161373 0.542042,1.1951 1.119019,0.06959 0.241692,-0.471475 1.540886,-1.354398 2.887533,-1.961342 1.346646,-0.606943 2.515512,-1.266305 2.597126,-1.465902 0.277614,-0.678919 -1.275449,-0.366352 -2.940568,0.592262 -0.91295,0.525584 -2.160677,1.004838 -2.772764,1.065009 -0.92383,0.09082 -1.112931,-0.05479 -1.112931,-0.858514 0,-0.827412 -0.294969,-1.031383 -2.029358,-1.403877 -2.237802,-0.480614 -4.065236,-1.259058 -5.761156,-2.45376 -0.943728,-0.664813 -1.01141,-0.842093 -0.445173,-1.167878 0.367267,-0.211305 1.088952,-0.387195 1.603316,-0.390304 1.705299,-0.0108 3.807375,-0.840278 3.55877,-1.403877 -0.151809,-0.344153 0.191133,-0.60857 0.974683,-0.752614 0.664682,-0.122184 1.949432,-0.455092 2.855364,-0.739759 1.216627,-0.382301 1.702264,-0.401555 1.858072,-0.07261 0.33331,0.703681 1.154637,-0.554704 1.162491,-1.78132 0.0038,-0.585756 0.195949,-1.06501 0.426913,-1.06501 0.696584,0 1.805512,1.655927 1.808513,2.700345 0.0018,0.680605 0.408864,1.179641 1.335516,1.638358 1.064696,0.527052 1.332908,0.920939 1.332908,1.959076 0,0.714702 0.286549,1.637888 0.636458,2.051352 0.610135,0.720954 0.702838,0.68443 2.260639,-0.894062 1.88257,-1.907572 3.154262,-2.111709 3.810051,-0.611169 0.631668,1.445331 0.265848,1.989686 -1.916328,2.854649 -1.04348,0.413611 -2.598346,1.274321 -3.455304,1.912176 -1.287509,0.958324 -1.442758,1.225118 -0.894693,1.53549 0.482514,0.273246 0.96776,0.131371 1.78069,-0.519645 2.071385,-1.658817 2.505963,-1.578743 5.564652,1.027944 2.290558,1.952067 3.409885,3.386113 5.82028,7.452029 6.412577,10.81695 10.050556,14.32477 17.099138,16.48875 2.196354,0.6743 2.13851,0.56953 3.427479,6.16693 0.912233,3.9614 1.778556,5.60681 4.003941,7.59878 2.035181,1.82172 2.719058,2.16667 1.825033,0.92129 -0.305816,-0.426 -0.693641,-0.77455 -0.861654,-0.77455 -0.168016,0 -0.595672,-0.47926 -0.950336,-1.06501 -0.354664,-0.58576 -0.994141,-1.64803 -1.421596,-2.36072 -0.427453,-0.71269 -0.94267,-2.58078 -1.145102,-4.15112 -0.369425,-2.86575 -0.834769,-4.03915 -2.101525,-5.30236 -0.899714,-0.89719 -0.477348,-1.19054 1.834596,-1.27529 2.027622,-0.0743 3.858739,-0.72089 3.858739,-1.36228 0,-0.39701 -0.311077,-0.524 -2.225861,-0.90691 -1.812207,-0.36241 -2.528832,-0.89524 -1.918065,-1.42657 0.400625,-0.34853 1.209716,-0.24441 3.456171,0.44552 2.674906,0.82151 2.994588,0.84707 3.637022,0.28819 0.642432,-0.5589 0.47296,-0.6363 -1.930241,-0.87895 -3.271446,-0.3303 -4.168776,-0.73106 -2.928396,-1.30856 0.559897,-0.26068 1.038155,-0.2761 1.307693,-0.0416 0.233609,0.20322 1.762241,0.41288 3.397047,0.46594 2.387277,0.0775 2.93819,0.21117 2.800582,0.67773 -0.09423,0.31951 -0.304701,1.09752 -0.467777,1.72913 -0.163075,0.63162 -0.69812,1.9164 -1.189442,2.85465 -0.63089,1.20479 -0.754194,1.8264 -0.419958,2.11716 0.260293,0.22643 0.555299,0.33662 0.655583,0.24432 0.644387,-0.59309 2.947054,-8.33799 2.941444,-9.89295 -0.003,-1.0414 -0.154,-1.69336 -0.33388,-1.44926 -0.466788,0.63344 -6.33675,1.14211 -6.33675,0.54915 0,-0.2489 0.588304,-0.63126 1.307693,-0.84943 0.719385,-0.21816 2.064519,-0.73165 2.988393,-1.14141 0.923875,-0.40977 1.867243,-0.74506 2.096314,-0.74506 0.22907,0 1.33795,-0.64144 2.46496,-1.42505 1.12701,-0.78361 2.26479,-1.56319 2.52756,-1.73291 0.32319,-0.20875 0.41192,0.0804 0.27477,0.89331 -0.15195,0.90066 -0.049,1.15765 0.41213,1.02567 0.34067,-0.0975 0.67859,-0.82734 0.75644,-1.63457 0.12606,-1.30717 0.24623,-1.4347 1.16683,-1.23369 0.9679,0.21133 1.04522,0.0857 1.34074,-2.19129 0.17242,-1.328484 0.42052,-2.882002 0.55124,-3.452195 l 0.23736,-1.036267 6.07245,0.113458 c 8.50551,0.159077 8.07482,0.106319 8.07482,0.990124 0,0.425161 0.3736,1.775784 0.83035,3.00138 0.75104,2.01528 1.84069,6.34066 1.84069,7.30683 0,0.24357 -3.66977,0.37675 -10.01638,0.36381 -6.35999,-0.013 -10.01884,-0.16177 -10.02333,-0.40769 -0.004,-0.213 -0.18307,-0.62875 -0.39823,-0.92432 -0.55111,-0.75708 -2.09609,0.5391 -2.48668,2.08615 -0.16135,0.63901 -0.46959,1.51038 -0.68516,1.93638 -0.46043,0.90992 -3.100548,10.04204 -3.100548,10.72499 0,1.07898 0.850908,-0.39408 1.273788,-2.20492 0.24871,-1.065 0.88217,-3.15629 1.40768,-4.64731 0.5255,-1.49102 1.15053,-3.40802 1.38855,-4.26003 0.53183,-1.90373 1.15385,-2.53603 1.71635,-1.74426 0.34365,0.48372 2.00395,0.55878 10.63803,0.47956 9.19261,-0.0844 12.07581,0.15177 10.06072,0.82446 -1.06579,0.35581 -0.76725,1.02114 0.45823,1.02114 h 1.12335 l -0.29561,-3.19502 c -0.32715,-3.53405 -2.11269,-11.436944 -2.69365,-11.922359 -0.59143,-0.494172 -12.08986,-0.74411 -13.57079,-0.294995 -0.72238,0.219089 -1.40246,0.319975 -1.51201,0.224659 -0.10957,-0.09531 -0.31834,-1.553084 -0.46344,-3.239661 -0.23621,-2.745607 -1.52062,-9.490136 -2.21456,-11.628882 -0.21961,-0.67681 -0.0273,-0.857836 1.11989,-1.057442 1.50896,-0.262547 3.12896,-1.575428 4.10307,-3.325131 0.52117,-0.936179 0.53306,-1.945684 0.0747,-6.29551 -0.3002,-2.849164 -0.76391,-5.95957 -1.03033,-6.911975 -0.26645,-0.952406 -0.57083,-2.855536 -0.67647,-4.229782 -0.10563,-1.374241 -0.30934,-2.964128 -0.45299,-3.533141 -0.18431,-0.730023 -0.0578,-1.10275 0.42951,-1.265457 1.17763,-0.39312 0.76699,-1.602471 -1.08248,-3.188221 -0.97526,-0.836195 -1.77669,-1.63795 -1.7807,-1.78132 -0.009,-0.307831 -2.64165,-2.643613 -2.97968,-2.643613 -0.12779,0 -0.77321,-0.479256 -1.43465,-1.06501 -2.091,-1.851766 -3.27511,-2.548197 -7.61313,-4.480152 -3.88098,-1.728409 -6.232411,-3.137664 -6.232411,-3.734342 0,-0.13031 0.70886,-0.216384 1.57549,-0.191369 1.985011,0.0573 3.353212,-0.70912 2.542353,-1.4243 -0.844669,-0.745 -0.671632,-1.110393 0.526033,-1.110393 0.699033,0 1.426069,-0.419392 2.051097,-1.183009 0.927198,-1.132782 0.934505,-1.214414 0.18346,-1.936381 -0.841207,-0.808636 -2.238723,-0.967388 -3.312706,-0.376686 -0.7284,0.400627 -2.067562,-0.193321 -4.056111,-1.799474 -2.498988,-2.018439 -9.996517,-3.443261 -13.643835,-2.592936 -1.158143,0.270006 -1.349499,0.917512 -0.271279,0.917512 0.401497,0 0.995475,0.30498 1.320737,0.677734 0.547628,0.627586 0.592938,0.613258 0.606026,-0.193638 0.01,-0.609083 0.281913,-0.871373 0.904257,-0.871373 0.494634,0 0.890344,0.258185 0.890344,0.580915 0,0.319504 0.400654,0.929463 0.890345,1.355467 0.489689,0.426004 0.893549,1.079533 0.897297,1.452286 0.01224,1.218722 0.710896,1.685196 2.789285,1.862255 3.182377,0.271109 3.218533,-0.769001 0.0739,-2.133802 -1.912879,-0.830211 -1.686139,-0.999448 0.582548,-0.433416 0.794128,0.198133 1.4442,0.289634 1.4442,0.203472 0,-0.448916 -2.932536,-1.385158 -3.856998,-1.231418 -0.747124,0.124247 -1.212694,-0.05034 -1.537238,-0.577889 -0.649993,-1.056571 -0.407448,-1.133909 2.215431,-0.701182 1.516888,0.250259 3.469917,1.047632 5.698552,2.325926 2.597464,1.489846 3.793022,1.944703 5.109914,1.944703 1.842955,0 1.85745,0.0094 1.44855,0.936422 -0.346633,0.785835 -1.526701,0.777714 -3.45791,-0.02345 -1.688908,-0.700642 -2.949267,-0.503144 -2.949267,0.461404 0,0.493545 0.282769,0.569223 1.353778,0.364584 1.539343,-0.294125 2.652772,0.293417 2.652772,1.399338 0,0.702069 -0.4219,0.864613 -3.204893,1.234443 -0.954516,0.126846 -1.229409,-0.0079 -1.335517,-0.654285 -0.170527,-1.038897 -1.469415,-1.073657 -1.469415,-0.03933 0,0.429795 0.441873,0.943151 0.992944,1.153509 1.020917,0.389711 1.675275,1.301182 1.219006,1.698117 -0.141502,0.123095 -0.462271,-0.03234 -0.712971,-0.345675 -0.335196,-0.41894 -0.381232,-0.262114 -0.173897,0.59226 0.378565,1.559988 0.412834,2.057092 0.267798,3.872762 -0.110399,1.382206 -0.161927,1.444793 -0.47995,0.580915 -0.196032,-0.532504 -0.376432,-1.52895 -0.400828,-2.21398 -0.04957,-1.391548 -1.321912,-3.98244 -1.955455,-3.98244 -0.225693,0 -0.28791,0.277931 -0.138248,0.617221 0.757932,1.718274 0.724989,2.299687 -0.159114,2.774472 -0.536543,0.288141 -0.907732,0.32772 -0.907732,0.09681 0,-0.214802 -0.682904,-0.390301 -1.517236,-0.390301 -1.447515,0 -1.542394,0.08866 -2.086746,1.936383 -0.313757,1.065009 -0.733522,1.936381 -0.932078,1.936381 -0.530188,0 -0.439447,-2.246474 0.127812,-3.168556 0.384041,-0.624257 0.361115,-0.756985 -0.105206,-0.62176 -0.55534,0.161038 -0.77672,0.683263 -1.528544,3.596677 -0.164901,0.639006 -0.391802,0.944373 -0.504296,0.678488 -0.115323,-0.27254 -0.625493,-0.400806 -1.169446,-0.293481 -1.056522,0.208463 -2.377077,-0.595038 -3.562246,-2.168596 -1.038239,-1.378476 -0.546399,-3.236732 1.131188,-4.275924 1.353039,-0.838151 1.389632,-1.134752 0.639067,-5.12309 -0.03508,-0.186377 0.194203,-0.42085 0.509513,-0.521159 0.407145,-0.129526 0.544179,0.197094 0.472127,1.127791 -0.149875,1.936026 0.271534,2.249531 3.024911,2.249531 2.959438,0 3.132115,-0.844706 0.242582,-1.186791 -2.304319,-0.272802 -2.441359,-0.396168 -1.876329,-1.689039 0.251696,-0.575912 0.457342,-1.545253 0.457342,-2.153468 0,-0.910696 -0.232993,-1.150231 -1.318996,-1.357736 -2.11576,-0.404264 -3.768116,-4.069426 -1.834595,-4.069426 0.469283,0 0.959102,0.217842 1.087717,0.484094 0.168894,0.349647 0.367284,0.301173 0.714706,-0.174728 0.917149,-1.256318 6.634425,-0.14915 12.480475,2.416695 5.630121,2.471073 6.357407,2.589963 7.579231,1.243519 0.775285,-0.854386 0.926715,-1.42982 0.765141,-2.908354 -0.234509,-2.145948 -0.960839,-2.959318 -4.312608,-4.829608 -3.023493,-1.687109 -5.439163,-2.296734 -10.264175,-2.590665 -0.888075,-0.05411 -1.579129,-0.09153 -2.157172,-0.09985 z m 1.888501,1.291928 c 2.678013,0.01257 3.943914,0.310921 5.875926,1.137625 2.655257,1.136177 3.770983,1.923232 5.184694,3.657946 l 0.776443,0.952306 -0.293885,-1.161828 c -0.263302,-1.043416 -0.218089,-1.108863 0.437347,-0.639158 0.874955,0.627015 1.404776,2.776277 1.016421,4.122375 -0.348311,1.207285 -2.176656,1.311282 -3.813528,0.217087 -1.088588,-0.727691 -1.091349,-0.746182 -0.252149,-1.552888 0.775511,-0.745487 0.787914,-0.869714 0.142596,-1.431108 -0.836505,-0.727714 -1.682439,-0.394851 -1.682439,0.66185 0,0.904481 -0.69454,0.945077 -2.83884,0.165652 -1.857522,-0.675186 -1.854659,-0.668801 -0.868607,-1.977983 0.633924,-0.84167 0.65036,-1.038978 0.111292,-1.335802 -1.030488,-0.567402 -1.245547,-0.429792 -1.552889,0.995421 -0.328751,1.524492 -0.255918,1.497223 -2.530177,0.947769 -1.652287,-0.399188 -2.085744,-0.871842 -1.224223,-1.335044 0.696324,-0.374385 0.521554,-1.742744 -0.222588,-1.742744 -0.445171,0 -0.667758,0.387276 -0.667758,1.161829 0,1.150095 -0.02476,1.161829 -2.448447,1.161829 -2.1061,0 -2.448447,-0.102683 -2.448447,-0.733708 0,-1.250649 2.396407,-3.131602 4.073499,-3.197299 1.283508,-0.05028 2.33309,-0.07832 3.225759,-0.07412 z m -4.80299,1.681476 c -0.4663,0 -0.715578,0.337112 -0.715578,0.968191 0,0.532504 0.200326,0.96819 0.445171,0.96819 0.244846,0 0.445172,-0.159926 0.445172,-0.355507 0,-0.195581 0.121786,-0.631266 0.270407,-0.968191 0.177317,-0.401986 0.02428,-0.612683 -0.445172,-0.612683 z m -65.932445,7.333289 c -0.05261,0.008 -0.06931,0.01479 0.06695,0.0099 0.0023,-0.0019 0.0085,-0.0055 0.01131,-0.0076 -0.02732,-9.69e-4 -0.05236,-0.0015 -0.07824,-0.0023 z M 10.808696,29.2132 c -0.01895,0.127371 -0.04214,0.254159 -0.06347,0.381225 0.0011,0.0061 0.0032,0.01206 0.0044,0.01815 0.09848,-0.09024 0.195139,-0.181663 0.292145,-0.273061 -0.07778,-0.03422 -0.155322,-0.07641 -0.233021,-0.126317 z m 73.064766,1.668617 c 0.244845,0 0.445172,0.174274 0.445172,0.387276 0,0.213002 -0.200327,0.387275 -0.445172,0.387275 -0.244845,0 -0.445171,-0.174273 -0.445171,-0.387275 0,-0.213002 0.200326,-0.387276 0.445171,-0.387276 z m -5.888097,5.010386 c -1.101632,0.0065 -2.224463,0.252605 -2.724943,0.733708 -0.803359,0.772251 -0.574273,1.297359 0.42083,0.965165 0.375938,-0.125501 0.624283,0.03895 0.624283,0.413751 0,0.360856 0.368281,0.622515 0.876432,0.622515 0.596089,0 0.794232,-0.18578 0.619938,-0.580914 -0.370451,-0.839822 0.607768,-0.713617 1.500717,0.193639 0.419284,0.426003 1.018317,0.774552 1.331171,0.774552 0.740187,0 0.70716,-1.551273 -0.0513,-2.420476 -0.415088,-0.475697 -1.495494,-0.708444 -2.597128,-0.70194 z m 4.073499,1.573311 c -0.210966,0 -0.267878,0.261411 -0.126945,0.580914 0.140937,0.319503 0.428972,0.580914 0.639936,0.580914 0.210966,0 0.267878,-0.261411 0.126945,-0.580914 -0.140937,-0.319503 -0.428972,-0.580914 -0.639936,-0.580914 z m 1.84503,0.460647 c -0.04357,0.08642 0.03214,0.39275 0.246932,0.879692 0.152668,0.34611 0.371417,0.547499 0.486036,0.447789 0.114618,-0.09972 -0.0045,-0.499284 -0.264321,-0.888013 -0.262394,-0.392547 -0.425064,-0.525888 -0.468647,-0.439468 z m 5.538571,0.920537 c 0.06834,-0.0159 0.157204,-0.0077 0.272142,0.02119 0.153251,0.03842 0.352982,0.113683 0.613853,0.217085 0.612112,0.242627 1.112931,0.560679 1.112931,0.706478 0,0.472286 -1.621581,1.556664 -1.928501,1.28966 -0.163765,-0.142466 -0.297361,-0.748965 -0.297361,-1.347903 0,-0.574331 0.02191,-0.838815 0.226936,-0.886501 z m -15.816659,0.07034 c -0.229428,0.05899 -0.186575,0.285785 -0.08782,0.73522 0.110177,0.501383 0.380716,0.91146 0.601682,0.91146 0.220965,0 0.279688,0.425857 0.129549,0.946256 -0.150161,0.520402 -0.140629,1.132934 0.02173,1.361517 0.430811,0.606411 0.981258,0.175807 1.332908,-1.043075 0.447144,-1.549869 1.157626,-2.215697 1.678089,-1.57331 0.318432,0.39303 0.369151,0.380076 0.232153,-0.05975 -0.09632,-0.309238 -1.080115,-0.763642 -2.185865,-1.009037 -0.991182,-0.219967 -1.493007,-0.32827 -1.722435,-0.269277 z m 11.993568,1.515068 c 0.36518,-0.02966 0.485021,0.361379 0.697319,1.592976 0.173536,1.006718 0.292299,1.917623 0.263453,2.024123 -0.02884,0.106501 -0.549819,0.309481 -1.157275,0.450814 -1.065243,0.247844 -1.104237,0.189907 -1.104237,-1.632309 0,-1.456252 0.19312,-1.979353 0.841652,-2.281301 0.188722,-0.08786 0.337356,-0.144412 0.459088,-0.154303 z m 7.340126,0.133882 c 0.811695,0.0023 0.760509,0.103608 -0.405179,0.793463 -3.548851,2.100215 -5.233382,2.312311 -2.138041,0.269278 0.887459,-0.585756 2.031743,-1.064291 2.54322,-1.062741 z m -9.983336,0.05218 c 0.411971,0.07894 0.447665,0.513207 0.438215,1.951513 -0.01086,1.651598 -0.107947,1.918899 -0.489517,1.347904 -0.261787,-0.391731 -0.383249,-1.132396 -0.270406,-1.645925 0.112842,-0.513528 0.03668,-0.933397 -0.169548,-0.933397 -0.510586,0 -0.993695,1.797341 -0.676454,2.516539 0.141143,0.31998 0.05146,0.581671 -0.199111,0.581671 -0.265772,0 -0.399119,-0.766432 -0.319967,-1.839563 0.115789,-1.569821 0.282511,-1.858004 1.137276,-1.963611 0.233102,-0.02882 0.412177,-0.04142 0.549512,-0.01514 z m -5.889838,0.494687 c -0.06937,-0.08014 -0.18683,0.04772 -0.386049,0.345675 -0.257879,0.385689 -0.358679,0.952081 -0.223455,1.258649 0.411488,0.932856 0.719434,0.626524 0.705145,-0.701184 -0.0058,-0.534774 -0.02627,-0.822997 -0.09565,-0.90314 z m 17.178257,0.60513 c 0.759621,-0.09019 1.658851,0.48344 4.063065,2.01429 3.635332,2.314746 11.324902,9.361765 10.607612,9.72124 -0.19502,0.09773 -2.55836,0.298636 -5.25163,0.446277 -2.69329,0.147642 -5.297552,0.311726 -5.787242,0.364582 -0.489689,0.05286 -2.524954,0.03474 -4.523021,-0.04009 -4.146393,-0.155313 -3.762163,0.127658 -7.09841,-5.230499 l -1.864158,-2.993829 1.623316,-0.39257 c 0.892841,-0.21574 1.842982,-0.392923 2.111087,-0.394085 0.26811,-0.0012 0.849749,-0.350817 1.292913,-0.776821 0.443165,-0.426004 1.024804,-0.77941 1.292915,-0.785142 0.268104,-0.0057 1.178353,-0.508365 2.022403,-1.117202 0.649769,-0.468698 1.055379,-0.762044 1.51115,-0.816154 z m -11.228427,5.512634 c 0.753849,-0.126298 2.376903,1.85151 4.698654,5.725943 l 1.276394,2.130019 3.997852,0.123293 c 3.452987,0.106417 11.348774,-0.373783 14.291584,-0.869101 0.91977,-0.154811 0.94803,-0.02874 1.01207,4.538393 0.0449,3.206354 0.2566,4.95048 0.66688,5.495239 1.17307,1.557478 1.963,9.250636 1.18248,11.51693 -0.27484,0.798057 -0.93726,1.654887 -1.472,1.903859 -0.87471,0.407248 -17.834143,0.857488 -18.262488,0.48485 -0.08411,-0.07319 -0.626104,-0.195547 -1.204227,-0.272301 -0.900619,-0.119568 -1.155346,-0.524465 -1.777212,-2.826664 -0.779938,-2.887405 -2.506297,-6.346188 -3.167504,-6.346188 -0.642271,0 -0.484097,0.554369 0.677322,2.372067 1.219855,1.909144 2.060079,6.535287 1.186837,6.535287 -0.613945,0 -0.804853,-0.44036 -1.107712,-2.558141 -0.23453,-1.639984 -1.420794,-4.624749 -2.177172,-5.477842 -0.236072,-0.266253 -0.929058,-0.484096 -1.539843,-0.484096 h -1.110326 l 0.242588,-6.099602 c 0.247359,-6.215296 0.998196,-11.536624 1.745039,-12.373175 0.228191,-0.255599 0.34943,-1.125158 0.269539,-1.931843 -0.109633,-1.107013 0.03005,-1.496259 0.571245,-1.586927 z M 96.1157,56.872445 c -1.136904,-0.383559 -1.989102,3.321649 -1.176404,5.115525 0.175745,0.387923 0.211732,1.513595 0.07999,2.501414 -0.230653,1.729436 -0.310601,1.814212 -2.157172,2.278273 l -1.917196,0.481825 0.09302,-1.046857 c 0.05106,-0.575791 0.06216,-1.967035 0.0252,-3.092157 -0.05704,-1.737703 -0.217748,-2.095347 -1.068587,-2.375092 -1.427044,-0.469194 -1.701996,-0.175805 -0.973814,1.038535 0.349087,0.582146 0.63599,2.046538 0.637326,3.254786 0.0026,2.175811 -0.01228,2.201136 -1.585058,2.652688 -0.873361,0.250739 -1.706639,0.353362 -1.851115,0.22768 -0.709654,-0.617373 -0.883992,-3.962844 -0.261713,-5.01644 0.822452,-1.392514 0.482825,-1.701019 -0.963379,-0.876667 -1.004656,0.572666 -1.100212,0.825402 -0.859912,2.279029 0.470258,2.844649 1.097985,4.573276 1.738954,4.78725 0.341353,0.113953 1.683792,-0.05384 2.982306,-0.372904 1.298514,-0.319062 3.196577,-0.69596 4.218701,-0.837334 1.609864,-0.222669 1.927089,-0.146263 2.369323,0.572595 0.280783,0.456413 0.453742,1.633334 0.384313,2.615625 -0.161553,2.285383 0.621033,2.535084 1.412028,0.450058 0.541953,-1.428576 0.523692,-1.735528 -0.161721,-2.77447 -1.123731,-1.703346 -0.605124,-1.728305 1.453763,-0.0711 1.478127,1.189755 1.810257,1.714921 1.810257,2.865995 0,0.775192 0.24004,1.618753 0.53385,1.874355 0.88967,0.773958 1.36255,-0.118746 1.01381,-1.914445 -0.25716,-1.324187 -0.79552,-2.067408 -2.549301,-3.52255 -1.222497,-1.014365 -2.520259,-1.844101 -2.88404,-1.844101 -0.363782,0 -0.567885,-0.217842 -0.453867,-0.484096 0.114013,-0.266252 0.461435,-1.181191 0.772098,-2.033199 0.749077,-2.054393 1.714425,-3.679262 2.818844,-4.744136 0.749856,-0.723006 0.783856,-0.871371 0.198239,-0.871371 -0.717369,0 -3.010997,2.087426 -3.010997,2.740432 0,0.19666 -0.205399,0.357778 -0.456476,0.357778 -0.419624,0 -0.377803,-2.728969 0.05652,-3.679125 0.09737,-0.213002 -0.02297,-0.455197 -0.267796,-0.537799 z m -49.432379,1.971174 c 1.757447,-0.133966 6.028084,1.229935 6.028084,1.925039 0,0.176585 -0.25041,0.30402 -0.556466,0.283649 -0.787447,-0.0524 -4.795059,-1.127462 -6.121118,-1.642145 -1.07362,-0.416702 -1.050866,-0.436925 0.6495,-0.566543 z m -0.292145,1.847127 c 0.499965,0.03621 1.272953,0.160909 2.313679,0.373663 2.712586,0.554525 3.27319,0.818435 4.030896,1.902344 0.483987,0.69235 1.078772,1.152166 1.322474,1.021139 0.275098,-0.147916 0.188012,-0.555478 -0.229541,-1.074088 -1.313333,-1.631196 -0.676733,-1.879548 1.265959,-0.494687 1.06581,0.759767 2.189233,1.381187 2.496268,1.381187 0.349304,0 0.445306,0.253661 0.257363,0.677733 -0.165204,0.372753 -0.528699,1.418399 -0.807742,2.323658 -0.537528,1.743827 -0.609967,1.80102 -1.658093,1.308571 -0.367267,-0.172554 -2.019132,-0.622291 -3.67093,-0.999204 l -3.003177,-0.685297 1.111194,-1.148972 c 0.611209,-0.631906 1.111191,-1.282584 1.111191,-1.446235 0,-0.590462 -1.903147,-1.781306 -3.458781,-2.164059 -0.873975,-0.215035 -1.662736,-0.583199 -1.752867,-0.818422 -0.05414,-0.141287 0.172142,-0.193545 0.672107,-0.157331 z m -0.982508,1.526414 c 0.322425,-0.0082 0.987602,0.14289 1.96067,0.494684 1.224223,0.442598 2.225862,0.955287 2.225862,1.139893 0,0.528698 -0.971925,0.366266 -2.782327,-0.465185 -1.527012,-0.701295 -1.941581,-1.155919 -1.404205,-1.169392 z m -0.193894,2.013534 c 0.07329,-0.04361 0.333656,0.01382 0.822524,0.14674 0.610194,0.165917 1.504668,0.539715 1.987626,0.83053 0.482957,0.29081 0.683285,0.50478 0.445171,0.475772 -1.692613,-0.206198 -2.446978,-0.459952 -2.95709,-0.994665 -0.257911,-0.270345 -0.371526,-0.414765 -0.298231,-0.458377 z m 54.533601,0.232216 c -1.242355,-0.0489 -2.265966,0.07639 -2.398018,0.402403 -0.129624,0.320034 0.272932,0.484095 1.187706,0.484095 1.615427,0 6.983487,2.252198 8.228707,3.452204 0.55052,0.530519 1.01129,0.692799 1.28685,0.453084 0.59535,-0.517941 -2.62177,-3.424395 -4.59258,-4.14885 -1.00906,-0.370921 -2.47031,-0.594047 -3.712665,-0.642936 z m -48.105557,0.261713 c -0.09532,0.004 -0.168658,0.02343 -0.212152,0.06126 -0.151607,0.131891 0.112878,0.486838 0.587766,0.788925 0.956951,0.608736 2.02849,0.726906 2.02849,0.223896 0,-0.38278 -1.736769,-1.102766 -2.404104,-1.074088 z m 8.316548,2.374337 c -0.281884,0.144524 -0.525664,1.218023 -0.817311,3.478679 -0.210707,1.633299 -0.159264,2.208598 0.173026,1.936381 0.617454,-0.505821 1.362437,-4.666938 0.941646,-5.259244 -0.105689,-0.148764 -0.203398,-0.203989 -0.297361,-0.155816 z M 77.54541,77.146964 c -0.345209,0.0044 -0.714808,0.826211 -2.049359,4.274411 -1.383528,3.574743 -1.88119,5.819788 -1.57984,7.130575 0.400147,1.740539 1.052925,1.46321 1.059024,-0.450058 0.0058,-1.812178 1.471703,-7.429521 2.128479,-8.157008 0.643821,-0.713142 1.030446,-2.518193 0.590375,-2.754804 -0.05106,-0.02746 -0.09937,-0.04376 -0.148679,-0.04312 z m -31.195099,3.090647 c 0.355721,0.118751 0.930889,0.215574 1.278131,0.215574 0.347243,0 0.631241,0.156738 0.631241,0.3487 0,0.497592 -3.003995,1.974957 -4.016114,1.974957 -0.467176,0 -1.534476,0.522823 -2.371065,1.16183 -0.836588,0.639005 -1.745194,1.161828 -2.018925,1.161828 -0.804425,0 -0.550844,-2.047282 0.383439,-3.09821 0.766119,-0.861768 0.965117,-0.912389 1.813729,-0.457622 1.145792,0.614023 1.659227,0.31996 0.875563,-0.501491 -0.618125,-0.647933 -0.147752,-0.77755 0.842523,-0.232215 0.410529,0.226077 0.855214,0.149315 1.281609,-0.221627 0.359129,-0.312423 0.944146,-0.470474 1.299869,-0.351724 z m 6.668017,2.194315 c 1.361934,-0.04267 4.126027,0.199243 4.448246,0.479557 0.16752,0.145736 -0.104173,0.741425 -0.603416,1.323695 -0.499239,0.582278 -1.186354,1.092665 -1.527673,1.133844 -0.588539,0.07101 -3.069252,-2.184296 -3.069252,-2.790356 0,-0.08656 0.298117,-0.132531 0.752095,-0.14674 z m 35.88245,1.651974 c -0.08068,0.03094 -0.13042,0.106571 -0.13042,0.219358 0,0.225572 0.200326,0.409966 0.445171,0.409966 0.244846,0 0.445172,-0.07702 0.445172,-0.170948 0,-0.09393 -0.200326,-0.278324 -0.445172,-0.409966 -0.122422,-0.06583 -0.234062,-0.07937 -0.314751,-0.04841 z m -69.525994,0.06807 c -0.38396,-0.03079 -0.800081,0.09854 -1.532018,0.364586 -2.256461,0.820193 -2.263638,1.113527 -0.04435,1.807794 2.137357,0.668628 2.366413,0.572913 1.233789,-0.515868 -1.525428,-1.466356 0.184154,-0.637859 1.935456,0.937937 l 1.82851,1.645924 -0.386918,2.371312 c -0.438503,2.686207 -1.331659,5.17787 -2.968393,8.278785 -0.618352,1.17149 -1.148154,2.60899 -1.177273,3.19427 -0.02913,0.58526 -0.168821,1.06461 -0.310403,1.065 -0.272204,9.4e-4 -1.300738,3.54645 -1.300738,4.48393 0,0.30325 0.19311,0.55142 0.429522,0.55142 0.236412,0 0.563755,-0.87492 0.726884,-1.94471 0.163127,-1.06979 0.469967,-2.03916 0.682538,-2.15345 0.212572,-0.11431 0.386917,-0.55614 0.386917,-0.98258 0,-0.42643 0.820661,-2.28976 1.824164,-4.140512 3.797324,-7.003444 3.801381,-12.020976 0.01043,-14.369306 -0.60211,-0.372984 -0.954163,-0.563756 -1.338127,-0.594532 z m 65.743771,0.442493 c -0.226486,-0.131313 -1.689031,0.955016 -4.270003,3.200324 -2.214077,1.926131 -3.891228,3.501021 -3.727449,3.499858 1.421983,-0.01138 5.043588,-2.651955 7.044504,-5.135949 0.779647,-0.967877 1.088828,-1.485445 0.952948,-1.564233 z m -6.987989,0.13464 c -0.10984,0.0052 -0.263791,0.0564 -0.459952,0.161867 -0.261132,0.140403 -0.468614,0.549766 -0.460824,0.909948 0.01241,0.57497 0.0936,0.5637 0.663409,-0.09152 0.519102,-0.596925 0.586888,-0.995884 0.257367,-0.980295 z m -29.990002,0.09153 c -0.09362,-0.0038 -0.166064,0.01135 -0.209544,0.04917 -0.1653,0.143804 0.141462,0.361956 0.681671,0.484852 1.151317,0.261922 1.273673,0.727409 0.278231,1.059715 -1.413643,0.471915 -2.080323,0.267775 -1.831118,-0.561248 0.152339,-0.506783 0.04998,-0.742038 -0.281712,-0.645965 -0.776846,0.225004 -0.907217,1.421939 -0.267798,2.461322 0.310369,0.504509 0.916275,0.917512 1.34682,0.917512 0.751109,0 2.628429,-1.690303 2.628429,-2.366773 0,-0.425559 -1.689642,-1.371566 -2.344979,-1.398582 z m 46.292696,0.170948 c -0.400642,-0.02962 -0.806951,-0.0256 -1.179007,0.02192 -1.489823,0.190424 -1.460674,0.212588 1.224222,0.929613 1.512705,0.403984 2.750155,0.902849 2.750155,1.108126 0,0.205276 0.300491,0.372905 0.667758,0.372905 0.984769,0 0.812101,-0.814497 -0.222586,-1.049884 -0.48969,-0.111403 -0.890345,-0.328611 -0.890345,-0.48258 0,-0.420471 -1.148264,-0.811201 -2.350197,-0.900115 z m -37.360556,0.729926 c 0.167963,0.03029 0.08111,0.277618 -0.346055,0.725384 -0.309715,0.324653 -0.860678,0.589991 -1.225092,0.589991 -0.451356,0 -0.32815,-0.236335 0.387786,-0.741269 0.592594,-0.417946 1.015384,-0.604387 1.183361,-0.574106 z m -41.444496,0.742782 c -0.159758,-0.02684 -0.289002,-0.02025 -0.377352,0.02722 -0.633714,0.340722 -0.423591,0.932639 0.331271,0.932639 1.288857,0 3.129441,1.227949 3.654411,2.437873 0.655273,1.510247 1.138543,1.178675 0.522556,-0.358532 -0.408,-1.018176 -3.012567,-2.851403 -4.130886,-3.039213 z m 4.760387,1.347149 c -0.09623,0 -0.174764,0.26141 -0.174764,0.580914 0,0.319503 0.1941,0.580914 0.43126,0.580914 0.237162,0 0.315699,-0.261411 0.174765,-0.580914 -0.140933,-0.319504 -0.335034,-0.580914 -0.431261,-0.580914 z m -5.653339,1.235198 c -0.594182,-0.01944 -0.872048,0.170382 -1.185097,0.679248 -0.282517,0.459232 -0.451921,1.297031 -0.375614,1.862253 0.125697,0.931085 0.323348,1.031846 2.102395,1.068792 1.429374,0.02971 2.15607,0.260239 2.671034,0.847167 0.9119,1.039342 1.379358,0.77259 1.3616,-0.777576 -0.01196,-1.042823 -0.09884,-1.142136 -0.556465,-0.635377 -0.458527,0.507758 -0.714488,0.523183 -1.655484,0.102113 -0.612112,-0.273902 -1.463504,-0.499897 -1.891982,-0.503006 -0.769706,-0.0056 -1.09312,-0.953676 -0.444303,-1.302519 0.184274,-0.09908 1.128684,0.05728 2.098049,0.347189 0.969366,0.289911 1.818884,0.477337 1.888503,0.416775 0.355424,-0.309201 -2.097434,-1.811167 -3.299665,-2.020342 -0.281227,-0.04894 -0.514911,-0.07824 -0.712971,-0.08472 z m 25.23918,1.623989 c -0.05321,-0.002 -0.111815,0.01248 -0.173026,0.04539 -0.244844,0.131642 -0.445173,0.403173 -0.445173,0.603605 0,0.200431 0.200329,0.364585 0.445173,0.364585 0.244845,0 0.445172,-0.27153 0.445172,-0.603604 0,-0.249062 -0.11251,-0.403821 -0.272146,-0.409971 z m -26.046924,3.07703 c -0.809234,-0.03575 -0.988621,0.170491 -1.290304,0.860784 -0.240169,0.549538 -0.436478,1.349992 -0.436478,1.779046 0,0.661549 0.198421,0.742027 1.306823,0.53024 0.824687,-0.157576 1.769376,-0.03158 2.559742,0.341138 1.604109,0.756477 1.581344,0.760604 0.922514,-0.167164 -0.308129,-0.433916 -1.060762,-0.893859 -1.672874,-1.021893 -1.666643,-0.348625 -1.874482,-0.528962 -1.302475,-1.12855 0.742265,-0.778058 1.753182,-0.676897 2.941441,0.294239 0.565715,0.462343 1.168867,0.71908 1.339863,0.570329 0.593866,-0.516632 -1.431751,-1.706166 -3.321401,-1.950758 -0.437665,-0.05665 -0.777106,-0.09549 -1.046851,-0.107411 z m 39.237759,0.310127 c -0.516983,0.05567 -1.545232,0.717663 -3.351834,2.09749 -1.546558,1.181222 -2.930806,1.9807 -3.076208,1.776026 -0.388107,-0.546308 -6.463007,-0.953861 -8.240905,-0.552924 -0.840302,0.18949 -1.6156,0.572131 -1.722433,0.850947 -0.144417,0.376897 0.07606,0.426478 0.859912,0.19288 1.357202,-0.404459 7.58433,-0.25663 8.926922,0.211786 0.566966,0.19781 1.147328,0.370738 1.289433,0.384259 0.142107,0.01347 1.34407,-0.846215 2.671034,-1.909907 1.326966,-1.063706 2.563044,-1.935221 2.746678,-1.936382 0.183634,-0.0012 0.333879,-0.263681 0.333879,-0.583184 0,-0.379565 -0.126287,-0.564398 -0.436478,-0.530991 z m -40.26722,3.921166 c -0.57315,-0.04988 -0.697321,0.103056 -0.697321,0.558977 0,0.601362 0.282243,0.694852 1.72852,0.574862 0.951326,-0.07894 1.863728,0.04746 2.02936,0.28063 0.348488,0.490526 0.693842,0.554796 0.693842,0.129346 0,-0.450103 -1.426771,-1.125996 -3.019693,-1.430347 -0.302834,-0.05783 -0.543659,-0.09685 -0.734708,-0.113468 z m 70.691093,0.01967 c 0.211275,-0.183804 7.007656,2.144112 7.682698,2.631492 0.948911,0.68511 2.265125,3.02862 2.617127,4.66094 0.535379,2.48265 -2.00631,5.80504 -5.501184,7.19183 -1.859195,0.73773 -2.230322,0.59777 -2.522351,-0.95079 -0.150633,-0.79877 -0.57916,-2.57633 -0.952948,-3.94992 -0.614204,-2.2571 -1.593543,-9.348491 -1.323342,-9.583552 z m 12.665671,0.861537 c -0.4488,-0.101825 -0.72279,0.589582 -0.970337,2.262365 -0.234273,1.58308 -0.180184,1.81436 0.339097,1.43943 0.340276,-0.24567 0.864982,-0.96386 1.165968,-1.596 0.437422,-0.91866 0.433446,-1.269347 -0.02172,-1.746513 -0.193779,-0.20312 -0.363389,-0.325343 -0.512991,-0.359282 z m -46.855247,0.235991 c -0.250247,-0.05394 -0.249542,0.06054 -0.249542,0.288941 0,0.188426 1.051721,0.792033 2.337156,1.341073 2.430159,1.03799 4.36259,1.18222 4.676918,0.34946 0.125047,-0.33129 -0.36112,-0.4841 -1.540716,-0.4841 -0.948016,0 -2.509583,-0.34854 -3.470082,-0.774537 -1.002306,-0.444546 -1.503493,-0.666888 -1.753734,-0.720847 z m -12.585681,0.451557 c -0.0932,0.019 -0.128683,0.13195 -0.128683,0.34416 0,0.376957 0.946077,0.720857 2.923182,1.062727 2.899594,0.5014 5.87415,1.3759 7.487066,2.20113 0.821971,0.42053 0.821971,0.44752 0,1.31007 -1.485274,1.55863 -10.539268,9.333 -12.481343,10.71743 -1.034469,0.73742 -2.443461,1.47388 -3.131856,1.63609 -0.955104,0.22505 -1.218683,0.49429 -1.112061,1.13687 0.07685,0.46315 -0.273725,1.34699 -0.779052,1.96436 -0.505325,0.61737 -0.919036,1.28648 -0.919036,1.48709 0,0.52059 -3.962444,3.62752 -5.655079,4.43401 -0.784322,0.37369 -3.244887,0.99951 -5.468142,1.39026 -4.219182,0.74153 -5.424031,1.37773 -6.02026,3.1799 -0.310803,0.93944 -0.276269,0.93128 1.177273,-0.26626 1.54287,-1.27112 3.63972,-2.00256 8.0331,-2.80245 3.965248,-0.72195 7.262811,-3.2664 11.178866,-8.62748 0.897584,-1.2288 2.238512,-2.49031 3.023171,-2.8433 1.328743,-0.59776 10.61352,-8.46995 12.739577,-10.80138 l 0.979902,-1.07409 1.278129,0.7912 c 0.702892,0.4354 2.264925,1.00151 3.471822,1.25788 3.203214,0.68044 3.752665,1.01111 3.752665,2.25635 0,1.62942 1.222216,4.34671 2.231947,4.96198 0.486229,0.29627 0.884258,0.74669 0.884258,1.00147 0,0.44287 3.890699,2.70534 6.232413,3.6239 0.612112,0.24012 2.270288,0.89018 3.684841,1.44473 1.414548,0.55454 2.657474,1.00827 2.762329,1.00827 0.104856,0 0.907337,0.42307 1.783299,0.9402 0.875959,0.51714 2.187215,1.05406 2.913615,1.19285 1.089716,0.20821 1.320738,0.44672 1.320738,1.36303 0,0.61081 -0.475298,1.88797 -1.056417,2.83876 -1.106341,1.81013 -1.694111,4.03323 -1.14423,4.32887 0.177175,0.0952 0.44849,-0.41112 0.60255,-1.12552 0.154056,-0.7144 0.676714,-1.61134 1.161618,-1.99311 0.484899,-0.38176 0.88165,-0.9404 0.88165,-1.24125 0,-0.37712 0.286447,-0.4676 0.922517,-0.29196 0.893475,0.24669 0.900496,0.21763 0.222587,-0.92281 -0.384994,-0.64768 -0.699931,-1.52735 -0.699931,-1.95454 0,-0.91416 -4.552692,-3.36494 -9.79379,-5.2721 -1.836336,-0.66822 -4.240265,-1.77738 -5.342067,-2.46511 -1.1018,-0.68772 -2.633439,-1.59579 -3.403133,-2.0173 -0.769688,-0.42153 -1.62108,-1.28237 -1.891982,-1.9137 -0.270895,-0.63135 -0.728381,-1.69534 -1.017289,-2.3645 -0.513288,-1.18887 -0.722368,-4.4031 -0.336488,-5.17376 0.10665,-0.21301 -0.0063,-0.44003 -0.251279,-0.50454 -0.244843,-0.0645 -0.518856,0.1924 -0.608634,0.57108 -0.383555,1.6179 -2.998015,1.8228 -4.906457,0.38425 -0.394743,-0.29755 -2.520266,-1.3221 -4.723869,-2.27675 -2.937915,-1.27279 -4.766538,-1.80356 -6.854957,-1.98858 -1.566432,-0.13878 -3.118971,-0.44775 -3.450084,-0.686797 -0.229243,-0.16552 -0.379799,-0.24062 -0.472996,-0.22164 z M 12.738936,100.1793 c -0.13381,0.0103 -0.226537,0.034 -0.263451,0.0749 -0.07117,0.0789 -0.03923,1.41269 0.0713,2.96356 0.190057,2.66661 0.253066,2.80568 1.152056,2.5657 1.40454,-0.37493 1.419914,-0.4595 0.280842,-1.5143 -1.036664,-0.95996 -0.832625,-1.19013 0.867738,-0.97802 0.538477,0.0672 0.548369,-0.0202 0.05739,-0.53478 -0.322867,-0.33846 -0.86346,-0.61572 -1.200747,-0.61572 -0.337286,0 -0.612981,-0.155 -0.612981,-0.34491 0,-0.42252 2.114597,-0.92213 2.660599,-0.62857 0.216668,0.1165 0.512376,0.0455 0.656457,-0.15732 0.210145,-0.29581 -2.732519,-0.90269 -3.669195,-0.83053 z m 38.510879,6.25995 c -0.03219,0.002 -0.0734,0.0253 -0.122595,0.0658 -0.629528,0.51784 -2.788973,6.7658 -3.109251,8.99586 -0.169094,1.17736 -0.435684,2.21004 -0.592115,2.29416 -0.15643,0.0841 -0.998645,-0.14935 -1.871983,-0.5189 -1.485454,-0.62859 -5.835959,-1.96815 -6.392396,-1.96815 -0.73409,0 -0.0974,0.72366 0.811221,0.92205 0.583909,0.12748 2.436937,0.78478 4.117845,1.45984 2.125034,0.85344 2.801279,1.2788 2.218905,1.39708 -0.46066,0.0935 -1.261972,-0.005 -1.78069,-0.21786 -2.744354,-1.12821 -6.304371,-2.12615 -7.714,-2.16329 -2.116417,-0.0558 -2.400935,0.78514 -0.502558,1.48481 2.841167,1.04713 3.643668,2.85589 2.630168,5.93017 -0.513051,1.55626 -0.175485,1.64326 0.550381,0.14144 l 0.539074,-1.11568 3.00926,1.17016 3.00926,1.17015 -0.293883,1.39782 c -0.287501,1.36738 -0.274759,1.38252 0.583419,0.71933 0.482349,-0.37276 1.203251,-0.67773 1.601577,-0.67773 1.041056,0 3.996553,1.82758 3.439652,2.127 -0.255574,0.13741 -0.379461,0.37075 -0.274756,0.51813 0.765616,1.07768 -3.561543,3.04748 -7.457504,3.39472 -1.614358,0.14388 -2.827928,0.4119 -2.697118,0.59605 0.130809,0.18412 0.60246,0.33508 1.04772,0.33508 0.445258,0 1.058535,0.26142 1.363339,0.58091 0.8075,0.84644 1.901841,0.74829 1.577232,-0.14145 -0.212163,-0.58152 0.02018,-0.76351 1.193792,-0.93491 0.801766,-0.11709 1.808686,-0.33366 2.237165,-0.48107 0.546573,-0.18805 0.77905,-0.0827 0.77905,0.354 0,0.95972 0.784127,0.75009 2.938833,-0.7859 1.532292,-1.0923 2.447921,-1.43742 4.081325,-1.53852 1.158254,-0.0717 2.548562,-0.224 3.089251,-0.3381 1.454609,-0.30695 4.433145,0.87655 5.816803,2.3108 0.859796,0.89122 1.86123,1.39187 3.438782,1.7193 1.224224,0.25407 2.72668,0.70724 3.338791,1.00676 1.615255,0.79038 2.041948,0.69131 1.070328,-0.24809 -0.466429,-0.45098 -2.477495,-1.4764 -4.469116,-2.27829 -1.99162,-0.80189 -3.813149,-1.75693 -4.048285,-2.12245 -0.465537,-0.72369 -5.628205,-1.94619 -6.420215,-1.52036 -0.25938,0.13946 -1.202188,0.33821 -2.094571,0.44173 -0.89238,0.10351 -2.192327,0.44312 -2.888403,0.75489 -0.696075,0.31176 -1.347817,0.49532 -1.44855,0.4077 -0.332263,-0.28905 1.210089,-2.60826 1.745044,-2.62395 0.847038,-0.0249 4.844458,-3.41643 4.536928,-3.84931 -0.45697,-0.64324 -1.515353,-0.45334 -2.112828,0.37895 -0.305814,0.426 -0.903182,0.77456 -1.327689,0.77456 -0.424504,0 -1.089324,0.53419 -1.477243,1.18678 -0.387919,0.6526 -0.871816,1.13184 -1.075544,1.06501 -0.20373,-0.0668 -1.271145,-0.8478 -2.371932,-1.73518 -1.99167,-1.60554 -1.999526,-1.62202 -1.614621,-3.41438 0.212735,-0.99062 0.497953,-1.95764 0.63385,-2.14893 0.135895,-0.19129 0.260641,-1.34479 0.277363,-2.56267 0.01672,-1.21791 0.200231,-2.48754 0.407783,-2.82138 0.207558,-0.33384 0.707316,-2.00082 1.110323,-3.70484 0.973741,-4.11723 1.188514,-5.20011 0.963382,-5.18966 z m -38.693469,0.0695 c -0.09753,-0.0181 -0.16644,-0.014 -0.199109,0.0143 -0.419298,0.36475 0.328188,1.81383 0.935556,1.81383 0.322586,0 0.926478,0.91495 1.342473,2.03319 0.88096,2.36818 2.466023,3.97648 4.491719,4.55807 1.136973,0.32643 1.48219,0.67199 1.655483,1.655 0.120455,0.68328 -0.05459,1.82143 -0.388655,2.5294 -0.654141,1.38625 -1.122932,1.4111 -3.850045,0.20422 -0.671661,-0.29724 -1.734602,-0.71062 -2.36237,-0.91826 -2.068266,-0.68409 -0.711327,0.35493 2.044143,1.56499 1.877138,0.82434 2.551854,1.31789 2.368453,1.73367 -0.456978,1.03598 -1.983737,0.63037 -8.025273,-2.13455 -3.2647678,-1.49416 -5.9359199,-2.56137 -5.9359199,-2.37132 0,0.55051 0.8056077,0.99196 6.1376389,3.3622 2.763664,1.22852 5.128922,2.38003 5.255989,2.55889 0.127068,0.17887 -0.253152,0.51722 -0.845132,0.75186 -0.847975,0.33611 -1.382014,0.28901 -2.515396,-0.22086 -0.791227,-0.35595 -1.560944,-0.53987 -1.711132,-0.40923 -0.150188,0.13067 0.168416,0.33776 0.708624,0.46065 1.361726,0.30979 1.227193,1.00255 -0.353008,1.8146 -0.904286,0.4647 -1.335517,0.99157 -1.335517,1.6323 0,1.3312 0.725382,1.17972 1.046851,-0.21859 0.147289,-0.64067 0.42274,-1.12025 0.612113,-1.06577 0.189372,0.0545 1.540694,-0.42341 3.003173,-1.06198 4.502704,-1.96606 7.357515,-5.1373 7.357515,-8.17366 0,-1.30729 -0.635607,-1.83221 -4.229136,-3.49076 -1.099315,-0.50739 -2.398023,-2.69632 -2.426712,-4.08986 -0.0145,-0.70362 -0.460368,-1.31072 -1.382468,-1.88192 -0.561473,-0.3478 -1.107293,-0.59617 -1.399858,-0.65049 z m 41.713161,1.17468 c -0.344683,0.0362 -0.529109,0.95187 -0.613853,2.97718 -0.04901,1.17153 -0.27979,3.61137 -0.512989,5.42187 -0.233198,1.81052 -0.417313,3.90181 -0.409522,4.64733 l 0.01389,1.35546 0.687754,-1.10435 c 0.489268,-0.78551 0.772646,-2.83507 0.983377,-7.10485 0.162902,-3.30055 0.167536,-6.07 0.0097,-6.15481 -0.05596,-0.03 -0.109005,-0.043 -0.158246,-0.0379 z m -37.047547,1.57484 c -0.04681,0.0407 -0.07888,0.17606 -0.08956,0.40164 -0.01932,0.40824 0.08596,0.63698 0.23389,0.5083 0.147927,-0.12869 0.164244,-0.46247 0.03564,-0.74203 -0.07104,-0.15448 -0.133176,-0.20864 -0.179982,-0.16791 z m 89.22312,1.24048 c -0.051,-0.0632 -0.13708,0.2333 -0.30171,0.83659 -0.33631,1.23236 -0.26134,5.91804 0.19996,12.54185 0.1535,2.2037 0.61125,4.21618 1.34597,5.91427 1.32472,3.06176 1.34153,3.23305 0.33474,3.4159 -0.60372,0.10965 -0.47851,0.27222 0.55647,0.72161 1.57061,0.68196 1.7999,0.42505 1.15205,-1.2874 -0.76752,-2.02877 -3.09375,-17.17729 -3.19707,-20.81912 -0.0237,-0.8371 -0.0394,-1.26045 -0.0905,-1.3237 z m -7.258386,0.29575 c 0.542272,0.0608 0.71297,0.19427 0.71297,0.42207 0,0.77842 -0.217137,0.81434 -4.148276,0.68606 -4.655736,-0.15195 -4.320304,-0.89789 0.492993,-1.09601 1.486167,-0.0612 2.400039,-0.073 2.942313,-0.0121 z m 27.471116,0.2534 c -1.16118,0 -1.36984,0.70639 -0.866,2.93483 0.23699,1.04825 0.3208,2.95178 0.18606,4.22979 -0.13472,1.278 -0.0603,5.10756 0.16519,8.51023 0.28168,4.25024 0.26327,6.33987 -0.0574,6.67598 -0.56068,0.58771 -0.0411,0.79419 2.52757,1.00449 4.12829,0.33801 9.92554,-0.4457 10.90672,-1.47422 0.30178,-0.31631 1.92717,-1.22306 3.61267,-2.01504 1.68552,-0.79199 3.06491,-1.57758 3.06491,-1.74576 0,-0.43812 -1.24144,-0.3772 -2.29368,0.1127 -0.49455,0.23026 -0.98971,0.34017 -1.10076,0.24355 -0.11105,-0.0966 0.60739,-2.89477 1.59636,-6.21834 0.98899,-3.32358 1.79808,-6.81129 1.79808,-7.75007 0,-1.51314 -0.12632,-1.72768 -1.11293,-1.89175 -1.27432,-0.21192 -1.41848,0.009 -0.42082,0.64294 0.58534,0.37234 0.61646,0.73663 0.20258,2.36602 -1.14569,4.51046 -1.34429,4.92262 -2.25889,4.67606 -2.35077,-0.63377 -2.71805,-0.58977 -1.19554,0.1437 1.40049,0.67471 1.66737,1.00548 1.65549,2.05363 -0.008,0.68716 -0.29715,1.57447 -0.64255,1.97119 -0.60001,0.68915 -0.80279,0.64017 -4.5491,-1.09754 -5.23371,-2.42766 -9.03115,-3.74494 -10.01464,-3.47339 -0.73217,0.20216 -0.80601,-0.0628 -0.80601,-2.90155 0,-1.74131 0.18922,-3.12468 0.42779,-3.12468 0.23541,0 3.64098,1.20128 7.56793,2.66933 3.92693,1.46805 7.13887,2.55728 7.13753,2.42048 -0.001,-0.13679 -3.29837,-1.64305 -7.32708,-3.34707 -7.21746,-3.05276 -7.32488,-3.11667 -7.34273,-4.35686 -0.014,-0.9712 -0.21053,-1.25865 -0.86078,-1.25865 z m 5.87506,0.56124 c -0.26884,-0.0323 -0.45233,-0.0278 -0.50952,0.0219 -0.59972,0.52172 2.24156,1.56787 9.4999,3.49758 0.24486,0.0651 0.49525,0.1322 0.55647,0.14901 0.0613,0.0168 0.11129,-0.13133 0.11129,-0.32903 0,-0.19769 -1.15188,-0.72489 -2.55973,-1.17166 -1.40786,-0.44677 -2.9604,-0.96806 -3.45008,-1.15807 -1.26399,-0.49037 -2.84185,-0.91316 -3.64833,-1.00978 z m 9.30949,1.00526 c -0.32369,0 -0.49425,0.12334 -0.31911,0.36988 0.15133,0.21299 0.71387,0.38449 1.25031,0.38122 0.79297,-0.005 0.85067,-0.076 0.30779,-0.38122 -0.43851,-0.24654 -0.91532,-0.36988 -1.23899,-0.36988 z m -82.579444,1.28966 c -0.286651,-0.11203 -0.993816,0.74786 -1.922415,2.65798 -0.722789,1.48679 -0.861767,2.17331 -0.513862,2.53848 0.622907,0.65382 0.956204,0.28665 1.835468,-2.02186 0.753578,-1.97852 0.88746,-3.06257 0.600809,-3.1746 z m -47.830803,0.41602 c -0.898997,0.30012 -0.707814,0.44334 2.637993,1.97268 3.096896,1.41559 3.472692,1.51861 3.472692,0.95155 0,-0.213 -0.178242,-0.38727 -0.395613,-0.38727 -0.21737,0 -1.436067,-0.62282 -2.708421,-1.38421 -1.355431,-0.81112 -2.600076,-1.28847 -3.006651,-1.15275 z m -5.1316548,0.30407 c -0.095964,0.006 -0.1715514,0.0283 -0.2191083,0.0695 -0.1836175,0.15974 0.054621,0.53754 0.5295116,0.83962 0.9543777,0.60709 2.0284895,0.72778 2.0284895,0.22766 0,-0.42845 -1.6671514,-1.17802 -2.3388928,-1.13686 z m 127.7670318,0.39483 c -0.81902,0.24006 3.47414,1.82316 6.56541,2.42124 3.20274,0.61964 3.77792,0.66351 2.89363,0.22012 -1.37876,-0.69134 -8.9239,-2.79819 -9.45904,-2.64136 z m -97.257082,2.3751 c 0.233863,-0.20344 5.753976,1.5604 8.168737,2.61034 1.404101,0.61049 1.786441,0.97408 1.617228,1.537 -0.121901,0.40552 -0.448515,0.73325 -0.726014,0.72841 -1.306008,-0.0228 -9.542941,-4.45557 -9.059951,-4.87575 z m -25.272219,0.0341 c -0.07469,0.0271 -0.07973,0.0983 -0.0017,0.20801 0.149589,0.21057 0.45997,0.38274 0.690365,0.38274 0.640349,0 0.499077,-0.27732 -0.272147,-0.53477 -0.198084,-0.0661 -0.34178,-0.0832 -0.416479,-0.056 z m 6.757575,0.20952 c -0.318572,0.004 -0.263851,0.15565 0.137378,0.38123 0.855231,0.48081 1.009342,0.48081 0.667759,0 -0.151323,-0.213 -0.51353,-0.38431 -0.805137,-0.38123 z m 110.515736,1.07937 c -0.21038,0.0143 -0.37723,0.0532 -0.49648,0.11726 -0.86093,0.46288 -0.286,0.72313 2.45455,1.11115 3.21426,0.4551 6.00035,1.57442 9.41296,3.78123 0.7372,0.47674 1.52853,0.8144 1.75808,0.75035 1.25234,-0.34942 0.25645,-1.10261 -3.857,-2.91743 -4.20295,-1.85429 -7.79945,-2.94296 -9.27211,-2.84256 z m -62.138034,0.49394 c -0.180655,-0.0281 -0.333215,-0.0101 -0.426042,0.0711 -0.169054,0.14707 -0.05409,0.5331 0.255626,0.85775 0.662332,0.69427 1.942135,0.79577 1.688526,0.13388 -0.18298,-0.47754 -0.976134,-0.97853 -1.51811,-1.06274 z m 11.078879,0.0455 c -0.07837,0.0258 -0.111294,0.14512 -0.111294,0.36307 0,0.3266 0.145781,0.72135 0.324316,0.87666 0.178533,0.15532 0.401742,0.0816 0.495602,-0.16338 0.09385,-0.24495 -0.05192,-0.63894 -0.324317,-0.87592 -0.181777,-0.15812 -0.30594,-0.22622 -0.384307,-0.20043 z m 58.879235,0.10817 c -0.0746,0.0271 -0.0796,0.0983 -0.002,0.20801 0.1496,0.21056 0.45997,0.38273 0.69037,0.38273 0.64035,0 0.49908,-0.27732 -0.27215,-0.53477 -0.19807,-0.0661 -0.34178,-0.0831 -0.41649,-0.0559 z M 4.792785,120.534 c -0.2016654,0.04 0.3766996,0.42495 1.9111105,1.11947 1.1869578,0.53726 2.4585342,0.97469 2.8258002,0.97198 0.3672669,-0.003 -0.517966,-0.51648 -1.9676263,-1.14217 C 5.976442,120.7989 4.9944501,120.49404 4.792785,120.534 Z m 91.768086,0.58318 c -0.383818,0 -0.667758,0.34975 -0.667758,0.82222 0,0.68673 0.109868,0.74241 0.667758,0.33961 0.367267,-0.26516 0.667759,-0.63528 0.667759,-0.82221 0,-0.18692 -0.300492,-0.33962 -0.667759,-0.33962 z m -55.535237,0.0129 c 1.02895,0.0168 5.118717,2.0176 5.348153,2.61639 0.242208,0.63212 -0.532325,0.55205 -3.567465,-0.36837 -1.915496,-0.58088 -2.55974,-0.96339 -2.55974,-1.51884 0,-0.45361 0.302972,-0.73696 0.779052,-0.72918 z m 32.63669,0.0915 c -0.25333,0.0467 -0.634345,0.25639 -1.142495,0.67169 -0.719305,0.58788 -1.109916,1.32794 -1.108581,2.099 l 0.0018,1.19134 1.097278,-1.16183 c 1.526167,-1.61646 1.912052,-2.94027 1.152058,-2.8002 z m 54.011026,0.38879 c 0.0633,-0.009 0.1359,0.002 0.21737,0.0235 2.68812,0.72168 7.2037,2.3604 8.51305,3.08914 0.85696,0.47696 2.30935,1.20726 3.22751,1.62323 1.00502,0.45533 1.6694,1.03887 1.6694,1.4659 0,0.39015 -0.15025,0.6405 -0.33388,0.55672 -0.18363,-0.0838 -1.33552,-0.5505 -2.55975,-1.03702 -1.22422,-0.48655 -3.67955,-1.49181 -5.45597,-2.23441 -1.77642,-0.74261 -3.54159,-1.24607 -3.92308,-1.11871 -1.04548,0.34901 -0.39939,0.89149 1.41464,1.18755 0.88924,0.14513 3.04528,0.84603 4.79081,1.55742 1.74553,0.71137 3.71349,1.47532 4.37348,1.69811 l 1.19987,0.40543 -0.7547,1.61643 c -0.59897,1.28315 -1.16828,1.78049 -2.75798,2.40761 -2.1003,0.82856 -8.25794,1.3487 -9.1782,0.77531 -0.31158,-0.19413 -0.58251,-2.53098 -0.72341,-6.2486 -0.1776,-4.68577 -0.16237,-5.70358 0.28084,-5.76755 z m -74.961945,0.66866 c -0.244845,0 -0.445172,0.35867 -0.445172,0.79725 0,0.43857 0.200327,0.68986 0.445172,0.55821 0.244845,-0.13163 0.445172,-0.4903 0.445172,-0.79724 0,-0.30693 -0.200327,-0.55822 -0.445172,-0.55822 z m 43.179967,0.74808 c -0.247222,0.008 -0.419798,0.48116 -0.67558,1.67241 -0.201748,0.93959 -0.144427,1.45227 0.162591,1.45227 0.530916,0 1.221877,-2.61161 0.790353,-2.98702 -0.104801,-0.0911 -0.194953,-0.14037 -0.277364,-0.13766 z m -91.1003261,0.0264 c -0.146978,0 -0.017877,0.26141 0.2869274,0.58091 0.3048047,0.31951 0.8250351,0.58091 1.1564046,0.58091 0.3313693,0 1.2589973,0.34783 2.0606602,0.77304 1.6580805,0.87946 1.6798299,0.88595 1.6798299,0.46972 0,-0.2823 -4.5751646,-2.40458 -5.1838221,-2.40458 z m 26.2747291,0 c -1.361934,0 -1.337066,0.35794 0.09216,1.34942 0.942665,0.65389 1.149448,1.12507 1.149448,2.61335 0,0.99862 -0.128781,1.99714 -0.286056,2.21853 -0.366481,0.51579 -1.827366,0.51648 -2.933617,0.002 -0.49398,-0.23011 -0.860782,-0.24831 -0.860782,-0.0424 0,0.1974 0.507809,0.47033 1.128581,0.60587 0.663759,0.14492 1.315713,0.67403 1.582449,1.28436 l 0.453866,1.03778 0.624285,-0.9523 c 1.633932,-2.49031 1.911888,-3.67484 1.358993,-5.79251 -0.461387,-1.76716 -1.014794,-2.32366 -2.30933,-2.32366 z m 36.978858,1.59297 c -0.283593,-0.24545 -0.151519,6.50824 0.137375,7.02393 0.0895,0.15975 0.272757,0.29046 0.40692,0.29046 0.326814,0 -0.194973,-7.01203 -0.544295,-7.31439 z m -39.242108,0.48864 c -0.08068,0.0309 -0.130421,0.10657 -0.130421,0.21935 0,0.22559 0.200327,0.40998 0.445171,0.40998 0.244846,0 0.445173,-0.077 0.445173,-0.17096 0,-0.0939 -0.200327,-0.27832 -0.445173,-0.40996 -0.122421,-0.0658 -0.234062,-0.0793 -0.31475,-0.0485 z m 42.420045,0.48334 c -0.06939,0.0232 -0.170732,0.21087 -0.320834,0.53326 -0.247926,0.53251 -0.347712,1.54017 -0.220851,2.23893 0.300256,1.65386 2.701808,6.06208 3.843093,7.05494 0.490273,0.42652 0.740966,0.78064 0.557333,0.78741 -0.183635,0.007 0.05621,0.2695 0.532992,0.58319 0.841193,0.55344 0.821399,0.60974 -0.667759,1.91142 -0.844052,0.73778 -1.785038,1.34718 -2.091095,1.35395 -0.306055,0.007 -0.556464,0.19915 -0.556464,0.42738 0,0.65374 -1.011419,1.36626 -2.354544,1.65953 -0.914739,0.19973 -2.162664,-0.0866 -4.841248,-1.11115 -1.984934,-0.75922 -3.809357,-1.32213 -4.054371,-1.25109 -0.245013,0.0711 1.184132,0.7681 3.176198,1.54911 1.992065,0.781 3.622242,1.60107 3.622242,1.82216 0,0.74327 -1.200247,0.41222 -6.065473,-1.67239 -5.335749,-2.28623 -8.199378,-3.20785 -5.243816,-1.68753 1.773645,0.91235 2.884751,1.38751 10.085065,4.31299 1.897547,0.77096 3.450084,1.50907 3.450084,1.64062 0,0.65393 -4.675257,-0.36796 -7.392294,-1.61567 -2.615547,-1.20109 -2.855491,-1.25728 -1.622444,-0.38349 2.939144,2.0828 1.475061,2.15745 -3.116204,0.15885 -1.407859,-0.61285 -2.559741,-0.92793 -2.559741,-0.69967 0,0.22827 0.600982,0.61278 1.335517,0.85397 0.734533,0.2412 1.335517,0.66136 1.335517,0.93416 0,0.79844 -1.832378,0.50972 -4.229137,-0.66639 -3.514537,-1.7246 -7.822535,-3.48114 -9.083426,-3.70409 -0.898892,-0.15893 -0.760066,-0.0101 0.625153,0.6732 0.979378,0.48276 2.894869,1.31867 4.256959,1.85771 1.362094,0.53906 2.964713,1.27603 3.561378,1.63761 l 1.085107,0.65731 -1.558102,0.0665 c -4.550962,0.1935 -10.509816,-0.14709 -11.331025,-0.64747 -1.089331,-0.66377 -1.614655,-0.68949 -1.467677,-0.0727 0.06677,0.28025 -0.653423,0.56232 -1.800688,0.70571 -1.581442,0.19767 -2.158883,0.0797 -3.338792,-0.68227 -0.784655,-0.50671 -2.929267,-1.63459 -4.765602,-2.50596 -1.836336,-0.87136 -3.965299,-1.98663 -4.730826,-2.47871 -1.295814,-0.83295 -1.946759,-0.86291 -1.946759,-0.0893 0,0.1775 0.17234,0.32297 0.383439,0.32297 0.49667,0 9.312487,4.58281 9.603375,4.99224 0.121625,0.17119 -4.029095,0.24465 -9.223413,0.16338 -5.194317,-0.0812 -10.502272,-0.13101 -11.795325,-0.11119 -1.648575,0.0253 -3.0986999,-0.26177 -4.8534222,-0.96063 -2.5659316,-1.02194 -3.3439025,-1.04182 -2.4084513,-0.0613 0.3614029,0.37884 0.3816357,0.63601 0.063471,0.80707 -0.256734,0.13804 -0.4669092,0.5888 -0.4669092,1.00224 0,0.68338 0.3337325,0.75172 3.6726707,0.75111 2.019969,-4e-4 20.600348,0.0938 41.289729,0.20952 20.689379,0.11567 46.578971,0.25915 57.53241,0.31844 10.95346,0.0593 20.00227,0.1829 20.1084,0.27457 0.10613,0.0916 1.6614,0.13358 3.45617,0.0937 1.79478,-0.0398 6.01765,-0.10176 9.38425,-0.13765 5.68456,-0.0607 6.12113,-0.11733 6.12113,-0.79877 0,-0.60857 -0.33266,-0.73371 -1.9511,-0.73371 -1.6982,0 -1.97769,-0.11901 -2.15283,-0.91599 -0.11068,-0.5037 0.0433,-1.20675 0.34258,-1.56272 0.52594,-0.62573 0.40062,-1.75703 -0.45039,-4.06641 -0.32419,-0.87973 -0.26256,-0.91717 1.15553,-0.71025 0.82386,0.12021 1.84869,0.33896 2.27716,0.48636 0.53244,0.18317 0.77905,0.0843 0.77905,-0.31239 0,-0.3192 -0.45074,-0.66442 -1.00164,-0.76699 -0.79604,-0.14823 -7.22892,-0.11062 -12.96477,0.0757 -1.53905,0.05 0.0582,1.08903 4.90126,3.18822 2.59789,1.12605 4.46689,2.15613 4.25173,2.34332 -0.21516,0.18718 -1.54126,-0.23237 -3.01622,-0.95382 -1.44764,-0.70807 -4.08434,-1.89079 -5.8594,-2.62848 -1.77507,-0.73768 -3.22744,-1.4718 -3.22751,-1.63156 -5e-5,-0.15975 -0.43374,-0.29045 -0.96425,-0.29045 -1.42626,0 -0.93472,0.28054 6.22112,3.54827 3.5972,1.64267 6.5402,3.21562 6.5402,3.49532 0,1.02716 -1.90935,0.6984 -4.48216,-0.77153 -1.45248,-0.82986 -4.88322,-2.44958 -7.62443,-3.5997 -2.74123,-1.15013 -4.92846,-2.26489 -4.86039,-2.47721 0.0681,-0.21232 3.4125,-0.74847 7.43229,-1.19134 7.66515,-0.84446 8.13009,-0.98855 12.13094,-3.74946 0.69347,-0.47854 1.56625,-1.077 1.93894,-1.32975 0.3727,-0.25275 0.60359,-0.65234 0.51298,-0.88876 -0.0914,-0.23859 -0.95448,0.15201 -1.93891,0.87818 -1.64538,1.21365 -4.80863,2.66538 -8.00614,3.67383 -0.73454,0.23165 -3.73946,0.61524 -6.67759,0.85321 -2.93815,0.23797 -6.13256,0.49975 -7.09841,0.58167 -0.96585,0.082 -2.06765,0.007 -2.44845,-0.16641 -1.29017,-0.58803 -4.47607,-0.89232 -4.47607,-0.42737 0,0.23859 0.45074,0.59176 1.00164,0.7844 0.5509,0.19263 0.72642,0.36165 0.39039,0.37517 -0.90254,0.0362 0.2778,1.18502 1.22248,1.18981 0.39851,0.002 1.98475,0.69913 3.52487,1.54911 1.54012,0.84998 2.9925,1.54532 3.2275,1.54532 0.235,0 0.42692,0.14101 0.42692,0.31315 0,0.17215 0.79665,0.82568 1.77024,1.45228 1.99389,1.2833 2.14182,1.57101 0.97469,1.89328 -0.79464,0.21941 -5.48821,-2.06453 -13.30997,-6.47629 -1.77062,-0.99871 -4.92579,-2.51786 -7.01145,-3.37581 -3.80844,-1.56664 -5.01433,-2.63637 -2.47365,-2.19431 0.72503,0.12614 1.42263,0.0829 1.55026,-0.0969 0.12763,-0.17964 -1.46709,-0.63742 -3.54398,-1.0166 -2.17847,-0.3977 -3.77613,-0.88387 -3.77613,-1.14972 0,-0.25346 0.90147,-1.1745 2.00328,-2.04682 1.10179,-0.87232 2.00327,-1.78532 2.00327,-2.02865 0,-0.65859 -3.606335,1.94959 -4.417813,3.19502 -0.385951,0.59236 -1.002158,1.16657 -1.369426,1.27605 -0.367266,0.10946 -1.164329,0.53186 -1.771125,0.93869 l -1.103364,0.73976 1.214657,0.83128 c 1.18896,0.8136 1.214661,0.91888 1.214661,5.02097 0,3.46393 -0.1222,4.23139 -0.704277,4.4257 -1.085378,0.36232 -5.528135,0.27851 -5.528135,-0.10439 0,-0.5845 1.059238,-1.13586 2.444971,-1.27226 0.837701,-0.0825 1.386043,-0.38226 1.478976,-0.80859 0.200619,-0.92028 -0.933085,-0.87091 -3.264882,0.14221 l -1.887638,0.81993 -4.616053,-2.07858 c -2.539077,-1.14324 -4.731114,-2.21288 -4.870807,-2.37662 -0.306725,-0.35948 -7.091457,5.29684 -7.091457,5.91202 0,0.69835 2.688123,-0.85858 3.340533,-1.93487 0.322785,-0.53249 1.183241,-1.46169 1.912846,-2.06497 1.310112,-1.08327 1.345333,-1.08905 2.822321,-0.45231 2.057045,0.88678 8.395673,4.57538 8.395673,4.88556 0,0.5233 -2.203838,0.59032 -3.523993,0.10742 -0.804947,-0.29444 -1.372901,-0.34422 -1.372901,-0.12102 0,0.2094 0.300491,0.481 0.667758,0.6036 1.185966,0.39591 0.709507,0.91448 -0.839916,0.91448 -1.017387,0 -2.373695,-0.50355 -4.17349,-1.5491 -2.962243,-1.72085 -3.222281,-1.79962 -3.222281,-0.97802 0,0.31403 0.588682,0.83534 1.307693,1.15881 2.471045,1.11164 1.985954,1.34456 -2.515396,1.2072 -5.17231,-0.15783 -4.888989,-0.11126 -4.223051,-0.69059 0.756952,-0.65851 0.665666,-0.96408 -0.356486,-1.19662 -1.304335,-0.29673 -1.094116,-0.75849 0.743404,-1.63079 0.897377,-0.42601 2.414501,-1.584 3.370964,-2.57328 l 1.738954,-1.79871 -0.925995,-1.57937 c -0.509357,-0.86856 -1.491446,-2.15041 -2.182384,-2.8486 -1.667407,-1.68487 -2.73813,-4.15956 -2.772766,-6.4082 -0.01568,-1.01653 -0.0426,-1.43566 -0.158245,-1.39708 z m 58.42625,0.50376 c -0.36726,-0.0502 -0.62852,-0.0523 -0.7469,0.005 -0.46391,0.22586 0.11026,0.51364 1.95548,0.98029 1.43682,0.36338 3.72343,1.15983 5.08121,1.76997 2.25034,1.01124 4.02655,1.43492 4.02655,0.95988 0,-0.68123 -7.7456,-3.3643 -10.31634,-3.71543 z m -124.8160392,0.0295 c -0.7874938,0 0.2605615,0.87143 2.0258815,1.68452 2.1765635,1.00246 3.3310577,1.25467 2.8884027,0.63158 -0.2739051,-0.38555 -4.3702546,-2.3161 -4.9142842,-2.3161 z m 33.5026912,0.13842 c -0.08068,-0.0268 -0.192329,-0.0106 -0.314751,0.0552 -0.244845,0.13164 -0.445173,0.4133 -0.445173,0.6263 0,0.21301 0.200328,0.2799 0.445173,0.14826 0.244844,-0.13165 0.445173,-0.41331 0.445173,-0.6263 0,-0.1065 -0.04974,-0.17666 -0.130422,-0.20348 z m -10.953672,0.0802 c -0.133205,0.11589 0.05283,0.37292 0.413001,0.57108 1.055626,0.58078 1.625477,0.40066 0.686887,-0.21708 -0.471817,-0.31053 -0.966683,-0.46988 -1.099888,-0.354 z m -3.187504,0.55595 c -0.259295,0 -0.347824,0.17428 -0.196501,0.38729 0.151323,0.213 0.363284,0.38727 0.471257,0.38727 0.107972,0 0.196502,-0.17427 0.196502,-0.38727 0,-0.21301 -0.211964,-0.38729 -0.471258,-0.38729 z m 57.352447,0 c -0.271203,0 -0.358529,0.11623 -0.194763,0.2587 0.163761,0.14247 -0.05355,0.60388 -0.482562,1.02491 -0.757706,0.74362 -0.75114,0.7523 0.232153,0.30333 0.913929,-0.41731 1.276116,-0.26329 3.729185,1.58919 l 2.717118,2.0521 -1.948501,0.0885 c -3.691631,0.16763 -7.958322,0.93608 -7.958322,1.43337 0,0.5972 2.304999,3.28535 2.833624,3.30471 0.211794,0.008 0.05943,-0.41753 -0.338224,-0.9455 -0.698645,-0.92759 -0.68513,-0.9682 0.402568,-1.20569 1.303656,-0.28465 2.667322,0.12581 7.511411,2.26087 1.930136,0.85071 3.377352,1.36068 3.216194,1.13384 -0.161156,-0.22685 -2.090803,-1.23705 -4.288258,-2.24499 -2.19746,-1.00794 -3.995249,-1.95465 -3.995249,-2.10431 0,-0.55228 5.5396,-0.65535 6.748883,-0.12557 1.505435,0.65955 3.799171,3.06531 4.479546,4.69801 0.835521,2.005 1.205423,1.45605 0.476473,-0.70724 -0.758677,-2.2515 -1.927026,-3.32338 -8.019187,-7.35824 -2.257659,-1.49526 -4.222494,-2.88489 -4.366516,-3.08763 -0.144027,-0.20273 -0.484374,-0.36837 -0.755573,-0.36837 z m 13.799467,0.14222 c -0.06673,-0.0703 -0.174678,0.0179 -0.343442,0.24507 -0.237347,0.31949 -0.434466,0.89601 -0.438218,1.28133 -0.0036,0.38533 0.193373,0.59305 0.438218,0.46141 0.244845,-0.13165 0.44178,-0.70815 0.438219,-1.28134 -0.0026,-0.40756 -0.02804,-0.63627 -0.09478,-0.70647 z m -53.839755,0.49165 c -0.646078,0.0258 -0.372774,0.50158 0.854695,1.08089 1.458691,0.68843 1.757569,0.72369 2.095439,0.24811 0.306864,-0.43195 -0.226527,-0.74989 -1.998927,-1.19209 -0.418257,-0.10435 -0.735849,-0.14549 -0.951207,-0.13691 z m 6.411523,0.37139 c -0.186859,0.0386 -0.03496,0.35533 0.561682,0.92887 0.444521,0.4273 1.127576,0.77086 1.518108,0.7632 0.490607,-0.0101 0.302976,-0.30406 -0.607768,-0.95156 -0.759407,-0.5399 -1.285161,-0.77911 -1.472022,-0.74051 z m -9.885084,0.11648 c -0.412922,-0.0417 -0.662974,0.0828 -1.013811,0.3472 -0.428478,0.32304 -0.779052,0.73449 -0.779052,0.91448 0,0.50169 0.793078,0.3885 0.996422,-0.14219 0.140874,-0.36767 0.570068,-0.36767 1.980668,0 2.838578,0.73985 3.241663,0.50547 0.806875,-0.46898 -1.002393,-0.40117 -1.578182,-0.6088 -1.991102,-0.65051 z m -17.273902,0.50376 c -0.448876,0.0757 0.156967,0.42689 1.458114,0.8449 1.224224,0.39331 3.227499,1.12476 4.451722,1.62551 2.072048,0.84755 3.338793,1.14637 3.338793,0.78741 0,-0.36142 -8.554865,-3.37486 -9.248629,-3.25782 z M 4.8736464,128.7409 c -0.1563618,-0.0104 -0.2408453,0.0317 -0.2408453,0.13161 0,0.22935 0.6672218,0.65975 1.4824584,0.95609 2.0812253,0.75651 2.7271028,1.50325 1.8485082,2.13759 -0.5389933,0.38913 -0.934586,0.39726 -1.8432913,0.0371 -0.6365013,-0.25229 -1.2515184,-0.37638 -1.366818,-0.27608 -0.3447323,0.29991 0.332776,1.00828 0.9642501,1.00828 0.3228371,0 0.8359492,0.26141 1.1407538,0.58092 0.8205417,0.86011 1.2311329,0.71308 1.5511471,-0.55444 0.1576147,-0.6243 0.574464,-1.34221 0.9259927,-1.59601 0.3515287,-0.25379 0.6390659,-0.82255 0.6390659,-1.26318 0,-0.78717 -0.011179,-0.78781 -0.6416733,-0.0492 -0.5360912,0.62804 -0.7741757,0.67338 -1.4468105,0.27306 -1.4271436,-0.84936 -2.543653,-1.35467 -3.0127378,-1.38572 z m 12.7065376,0.50906 c -1.163401,0 0.07643,0.64068 2.856233,1.47573 1.469068,0.44131 3.472343,1.06598 4.451723,1.38875 2.096798,0.69103 2.003274,0.67056 2.003274,0.43494 0,-0.52395 -7.832813,-3.29942 -9.31123,-3.29942 z m 62.288469,0 c -0.228547,0 -0.627741,0.34427 -0.886869,0.76548 -0.377924,0.61432 -0.343275,0.72376 0.173026,0.5514 0.748896,-0.25 1.327139,-1.31688 0.713843,-1.31688 z m 51.386077,0.5915 c -0.65669,0.002 0.41061,0.55375 2.59105,1.19738 1.52923,0.45142 3.06409,0.84353 3.41096,0.87138 1.70052,0.13649 -1.65948,-1.18777 -4.74822,-1.87134 -0.6248,-0.13827 -1.0349,-0.19819 -1.25379,-0.19742 z m -117.480247,0.2019 c -0.976274,-0.0427 1.0846,1.21528 3.127509,1.90915 1.20944,0.41079 2.399236,0.74618 2.64408,0.74582 0.544073,-7.8e-4 -5.168322,-2.62856 -5.771589,-2.65497 z m 23.159392,0.75564 c -0.883698,0 -0.87736,0.0559 0.233887,2.11262 0.594828,1.10087 1.353717,1.85282 2.11457,2.09523 2.832839,0.90256 2.525069,0.0492 -0.928601,-2.57327 -0.673981,-0.51177 -1.113083,-1.08927 -0.975554,-1.28286 0.137528,-0.19358 -0.06259,-0.35172 -0.444302,-0.35172 z m -25.598274,0.74582 c -0.347158,0.0443 -0.901793,0.99733 -0.908604,1.67467 -0.01084,1.07774 0.755792,0.78512 1.01468,-0.38729 0.129342,-0.58575 0.141937,-1.14696 0.02783,-1.24729 -0.03892,-0.0342 -0.08431,-0.0464 -0.1339,-0.0401 z m 119.106159,0.70495 c -0.46333,-0.0523 -0.93105,0.12255 -1.03902,0.3888 -0.14508,0.35779 0.62654,0.48409 2.95709,0.48409 3.47462,0 4.42624,-0.67682 1.03903,-0.739 -1.16302,-0.0213 -2.49375,-0.0815 -2.9571,-0.13389 z m -115.29785,0.64524 c -0.193682,-0.004 -0.105431,0.12968 0.15042,0.39787 0.317246,0.33254 0.903108,0.61443 1.301607,0.62706 0.398498,0.0126 2.326893,0.69488 4.285652,1.51582 3.906655,1.63733 4.229136,1.72895 4.229136,1.20041 0,-0.19771 -1.097675,-0.71696 -2.438884,-1.15351 -1.341205,-0.43655 -2.793581,-0.9586 -3.227498,-1.16032 -0.433917,-0.20171 -1.674969,-0.65213 -2.757981,-1.00071 -0.873421,-0.28112 -1.348769,-0.42256 -1.542452,-0.42662 z m 15.531469,0.25264 c -0.244845,0 -0.05619,0.25533 0.419088,0.56806 0.475274,0.31273 1.064587,0.56882 1.309431,0.56882 0.244847,0 0.05619,-0.25609 -0.419087,-0.56882 -0.475276,-0.31273 -1.064587,-0.56806 -1.309432,-0.56806 z m 68.911275,0.43568 c 1.263066,-0.0924 2.178366,0.1861 3.981326,1.21024 2.31393,1.31441 5.39728,2.80011 13.75165,6.62758 2.35789,1.08025 5.06231,2.52504 6.00982,3.21015 l 1.72243,1.24579 -1.80329,0.0129 c -0.99163,0.007 -2.06839,-0.20497 -2.39281,-0.47123 -0.47187,-0.38727 -0.63059,-0.38727 -0.79383,0 -0.20629,0.48945 -1.12009,0.65487 -1.55027,0.28062 -0.1286,-0.11186 -2.43627,-0.26321 -5.12818,-0.33659 l -4.89428,-0.13388 -3.73876,-2.09977 c -2.05598,-1.15512 -4.33885,-2.44154 -5.073383,-2.85842 -1.250854,-0.70993 -1.951889,-2.11338 -1.055544,-2.11338 0.634611,0 8.879497,3.68521 10.790207,4.82279 0.94687,0.56375 1.81173,0.94647 1.92153,0.85095 0.33893,-0.29484 -2.55688,-2.01059 -6.97232,-4.13145 -5.047258,-2.42433 -6.209545,-3.12777 -6.228064,-3.76914 -0.02061,-0.71397 0.411183,-0.61869 3.907414,0.86154 3.13198,1.32602 5.42727,2.02115 5.42727,1.64365 0,-0.10613 -0.95155,-0.57952 -2.11456,-1.05215 -1.163,-0.47262 -3.30498,-1.49435 -4.76037,-2.26995 l -2.646691,-1.40992 z m 21.706486,0.16188 c -2.35398,0.0335 -6.00633,0.4556 -6.14808,0.82977 -0.13001,0.34314 0.44245,0.48184 1.96763,0.47653 2.44944,-0.009 6.91467,-0.90897 5.92287,-1.19435 -0.318,-0.0915 -0.95777,-0.12309 -1.74242,-0.11195 z m -73.919455,0.18078 c -0.398748,-0.0347 -0.394188,0.14331 -0.02435,0.53099 0.29367,0.30782 1.565638,0.85796 2.826674,1.22234 1.261029,0.36437 2.561903,0.89671 2.891009,1.18301 0.694087,0.60382 1.608795,0.70506 1.202486,0.13313 -0.165602,-0.23311 0.421949,-0.38728 1.475501,-0.38728 0.962708,0 2.635047,-0.3408 3.717016,-0.75716 2.146313,-0.82594 2.818804,-0.72809 7.494892,1.08695 3.28007,1.27318 3.990209,0.93544 0.874693,-0.41602 -1.582828,-0.68661 -3.078294,-1.44951 -3.323139,-1.69509 -0.853022,-0.85559 -3.165299,-0.91289 -5.515093,-0.13615 -2.9587,0.97802 -6.521444,0.9708 -9.175592,-0.0188 -1.243549,-0.46371 -2.045352,-0.71109 -2.4441,-0.7458 z m -17.919921,0.42585 c -0.303026,-0.0816 -0.336489,0.0325 -0.336489,0.27835 0,0.19022 0.75123,0.61723 1.669396,0.94853 2.51108,0.90609 2.800395,0.75256 0.622547,-0.33055 -1.079615,-0.53692 -1.65243,-0.81466 -1.955454,-0.89633 z m 7.307084,0.12557 c -0.415112,0.36111 0.493545,1.63079 1.590274,2.2223 1.861336,1.00388 1.893417,0.82807 0.153898,-0.83809 -0.873397,-0.83657 -1.657954,-1.45922 -1.744172,-1.38421 z m 51.145247,0.2065 c -0.5548,0.0101 -0.520424,0.12633 0.170421,0.58091 0.475275,0.31273 1.176421,0.56348 1.558103,0.5567 0.5548,-0.0101 0.520424,-0.12634 -0.170422,-0.58091 -0.475274,-0.31272 -1.17642,-0.56349 -1.558102,-0.5567 z m -77.090442,0.29044 c -0.178226,-0.0812 -0.267137,0.0309 -0.331272,0.3071 -0.08843,0.3808 0.30092,0.98234 0.88339,1.36455 1.435217,0.94179 1.551646,0.64075 0.315621,-0.81768 -0.421989,-0.4979 -0.689514,-0.77266 -0.867739,-0.85397 z m -3.4344349,0.13918 c -0.3841815,-0.0737 -0.6311391,0.25386 -0.3138812,0.70043 0.1638586,0.23065 0.5019679,0.31026 0.7512281,0.17625 0.3040541,-0.16349 0.2962376,-0.38069 -0.023476,-0.65883 -0.1428431,-0.12427 -0.2858102,-0.19326 -0.4138709,-0.21785 z m 103.8251119,0.0704 c -0.4816,0.10158 0.0336,0.72794 1.26944,1.19813 1.43659,0.54655 2.55973,0.75027 2.55973,0.46443 0,-0.257 -1.95745,-1.27608 -3.0049,-1.56424 -0.39219,-0.10789 -0.66373,-0.13219 -0.82427,-0.0984 z m -83.664546,0.64974 c -0.113081,0 -0.205197,0.13543 -0.205197,0.30105 0,0.16559 1.35221,0.80298 3.004913,1.41597 1.652701,0.61301 3.194875,1.2618 3.427478,1.4417 0.569916,0.44078 1.251483,0.41628 0.932079,-0.0333 -0.228424,-0.32158 -6.651238,-3.12545 -7.159273,-3.12545 z m 19.912763,0.006 c -0.648738,0.005 -0.660678,0.0578 -0.08521,0.38124 0.871813,0.49013 1.461136,0.49013 1.11293,0 -0.151322,-0.21301 -0.613694,-0.38433 -1.027721,-0.38123 z m -3.401394,0.0159 c -0.35852,0.006 -0.697957,0.21155 -0.875563,0.61419 -0.35733,0.81009 -0.400603,0.78118 2.451055,1.66181 3.395649,1.04861 4.665644,0.93795 1.996319,-0.17397 -1.205874,-0.50232 -2.367328,-1.18595 -2.581477,-1.51886 -0.254389,-0.39544 -0.631815,-0.58914 -0.990334,-0.58317 z m -34.9181999,0.0234 c -0.1549971,-0.0775 -0.4406773,0.0611 -0.8520872,0.41906 -0.828066,0.72036 -0.6329501,1.7549 0.455606,2.4182 1.2879581,0.7848 1.3658481,0.76305 0.7642708,-0.21482 -0.2767585,-0.44987 -0.4117376,-1.23411 -0.2999698,-1.74274 0.1115973,-0.50787 0.087175,-0.80217 -0.06782,-0.8797 z m 73.5290659,0.34194 c -1.219777,0 -0.478609,0.77406 1.4529,1.51733 1.113424,0.42847 2.542693,1.13375 3.176196,1.56725 0.633502,0.43351 1.475657,0.78027 1.871117,0.77078 0.591407,-0.0141 0.561036,-0.1216 -0.171289,-0.60588 -1.891328,-1.25071 -5.784363,-3.24948 -6.328924,-3.24948 z m -69.091254,0.14673 c -0.01869,0.044 0.18831,0.18215 0.605156,0.45309 0.957029,0.62203 1.771175,0.75163 1.394641,0.22162 -0.133057,-0.18729 -0.695592,-0.44038 -1.250308,-0.56201 -0.486521,-0.10666 -0.730799,-0.15676 -0.749489,-0.1127 z m 48.227286,0.12254 c -0.159862,0.009 -0.275646,0.0416 -0.342579,0.0999 -0.500872,0.43573 0.198121,0.71264 5.722031,2.26692 2.203602,0.62004 4.196514,1.15216 4.429116,1.18226 0.979188,0.12662 -0.562127,-0.68752 -2.648428,-1.39858 -1.224222,-0.41725 -3.317899,-1.13185 -4.65257,-1.58844 -1.150881,-0.39372 -2.028,-0.5879 -2.50757,-0.56201 z m -41.278424,0.12405 c -0.318574,0.004 -0.263854,0.15565 0.137376,0.38123 0.85523,0.48081 1.009341,0.48081 0.667758,0 -0.151322,-0.21301 -0.51353,-0.38432 -0.805134,-0.38123 z m 14.022924,0 c -0.648738,0.005 -0.660678,0.0578 -0.08521,0.38123 0.871813,0.49013 1.461136,0.49013 1.112929,0 -0.151321,-0.21301 -0.613693,-0.38432 -1.027719,-0.38123 z m 23.74107,0.22088 c -0.180016,-0.0116 -0.232148,0.0355 -0.232148,0.11875 0,0.18847 2.053357,0.99266 4.563015,1.78661 2.509658,0.79396 4.752978,1.59765 4.985582,1.78585 0.232602,0.18822 0.723925,0.3419 1.091192,0.3419 1.128703,0 -0.0053,-0.59886 -3.294448,-1.74048 -4.88267,-1.69468 -6.573151,-2.25781 -7.113193,-2.29263 z m -21.737795,0.55392 c -0.318572,0.004 -0.263852,0.15565 0.137378,0.38123 0.855231,0.48082 1.009341,0.48082 0.667759,0 -0.151323,-0.213 -0.51353,-0.38431 -0.805137,-0.38123 z m -10.485023,0.084 c -0.443424,-0.0567 -0.7061,0.27911 -0.254757,0.66942 0.228521,0.19762 2.81954,1.40629 5.757677,2.68596 2.938136,1.27969 5.492313,2.33547 5.675946,2.34561 0.722622,0.04 0.259209,-0.32185 -1.335516,-1.04233 -4.717428,-2.13127 -8.85398,-4.10239 -9.359052,-4.45896 -0.168254,-0.11879 -0.33649,-0.18078 -0.484298,-0.1997 z m 45.568423,0.69664 c -0.244846,0 -0.144681,0.1687 0.222585,0.37518 0.367267,0.20648 0.868086,0.37518 1.112932,0.37518 0.244844,0 0.14468,-0.1687 -0.222587,-0.37518 -0.367268,-0.20648 -0.868086,-0.37518 -1.11293,-0.37518 z m 47.769054,0.007 c 0.9741,-0.0126 3.38135,0.84277 7.12276,2.53015 6.31946,2.85008 9.67822,4.47265 10.15461,4.90601 0.71426,0.64971 -4.09585,0.2233 -5.17077,-0.45839 -2.57893,-1.63544 -7.55907,-4.29018 -10.46155,-5.57691 -2.90324,-1.28708 -3.01586,-1.38312 -1.64505,-1.40086 z M 13.236278,138.2894 c -0.09734,0.0847 0.581618,0.44341 1.508542,0.79725 0.926923,0.35384 2.185866,0.88413 2.797978,1.1777 1.135723,0.54471 3.057099,0.81088 2.527569,0.35022 -0.454498,-0.39539 -6.635128,-2.49826 -6.834089,-2.32517 z m 29.350937,0.0181 c -0.07324,9.7e-4 -0.114772,0.0166 -0.114772,0.0514 0,0.0886 0.5509,0.42121 1.224224,0.73899 1.406902,0.664 2.053981,0.76285 1.69635,0.25944 -0.228172,-0.32117 -2.293108,-1.05697 -2.805802,-1.04988 z m 10.797165,0.0341 c -0.07469,0.0271 -0.07965,0.0983 -0.0018,0.20801 0.149587,0.21055 0.45997,0.38273 0.690364,0.38273 0.640349,0 0.499083,-0.27731 -0.272142,-0.53477 -0.198075,-0.0661 -0.341781,-0.0831 -0.416481,-0.0559 z m 83.24198,0.18758 1.78069,0.25264 c 2.14661,0.30498 1.94333,0.16725 2.43106,1.64667 0.28874,0.87584 0.2537,1.20356 -0.12521,1.17394 -0.70038,-0.0548 -6.92879,-2.49095 -7.33143,-2.86751 -0.56869,-0.53188 1.85193,0.0775 4.5804,1.15275 2.88175,1.13571 2.9831,1.00317 0.33824,-0.44325 z m -78.179885,0.0159 c -0.244845,0 -0.32174,0.17428 -0.170417,0.38728 0.151323,0.213 0.475084,0.38728 0.719929,0.38728 0.244844,0 0.321738,-0.17428 0.170414,-0.38728 -0.151321,-0.213 -0.475082,-0.38728 -0.719926,-0.38728 z m -7.790515,0.38728 c -0.367254,0 -0.544326,0.17428 -0.393002,0.38728 0.151323,0.213 0.575246,0.38728 0.942514,0.38728 0.367254,0 0.544326,-0.17428 0.393003,-0.38728 -0.151323,-0.213 -0.575248,-0.38728 -0.942515,-0.38728 z m -14.650687,0.6558 c -0.135638,-0.023 -0.210413,-0.0156 -0.210413,0.0264 0,0.16843 1.051719,0.76448 2.337154,1.32446 2.407194,1.04865 3.004913,1.22805 3.004913,0.90314 0,-0.10344 -1.201965,-0.71563 -2.671033,-1.36076 -1.101802,-0.48385 -2.053706,-0.82443 -2.460621,-0.89331 z m 6.663672,0.11876 c -0.381718,0 -0.57041,0.17427 -0.419089,0.38727 0.151323,0.213 0.46345,0.38727 0.693844,0.38727 0.230395,0 0.419087,-0.17427 0.419087,-0.38727 0,-0.213 -0.312125,-0.38727 -0.693842,-0.38727 z m 4.131755,0.0196 c -0.212782,0 -0.273223,0.12255 -0.09912,0.36762 0.151323,0.213 0.613693,0.38449 1.02772,0.38122 0.64874,-0.005 0.660678,-0.0577 0.08521,-0.38123 -0.435906,-0.24507 -0.801028,-0.36762 -1.01381,-0.36762 z m -34.745174,0.43796 c -0.64529,0.0986 -0.124599,0.62826 1.369428,1.02492 0.918168,0.24377 2.270378,0.78173 3.004913,1.19512 1.603448,0.90237 2.448447,0.99686 2.448447,0.27456 0,-0.56101 -3.501783,-2.03205 -5.782023,-2.4288 -0.481404,-0.0838 -0.825666,-0.0987 -1.040765,-0.0657 z m 36.951907,0.43417 c -0.28886,0.0902 0.175982,0.43503 1.032938,0.76624 2.273464,0.87868 3.184198,0.76503 1.192924,-0.14901 -0.935365,-0.42935 -1.937002,-0.70741 -2.225862,-0.61723 z m -43.6686165,0.33963 c -0.1199716,-0.0209 -0.1847996,-0.008 -0.2199778,0.0318 -0.046905,0.0531 -0.040866,0.15392 -0.040866,0.28592 0,0.21301 0.2504095,0.38925 0.5564654,0.39182 0.3060559,0.003 1.9587579,0.60251 3.6726712,1.33277 3.3228547,1.41583 3.9995187,1.60308 3.5613787,0.98635 -0.151323,-0.213 -0.458617,-0.38727 -0.682539,-0.38727 -0.223922,0 -1.847475,-0.60996 -3.6083313,-1.35547 -2.0244943,-0.85698 -2.8788867,-1.22324 -3.2388017,-1.28573 z m 51.1826355,0.3313 c -0.25926,0.008 0.02956,0.26289 0.641676,0.5673 1.442024,0.71713 1.792962,0.71108 0.693841,-0.0121 -0.475275,-0.31274 -1.076258,-0.56275 -1.335517,-0.5552 z m -34.808642,0.16036 c -0.488427,0.007 0.03968,0.72001 1.283347,1.37967 1.845532,0.9789 3.047578,1.0181 1.618097,0.053 -0.583919,-0.39426 -1.512368,-0.92321 -2.063269,-1.17546 -0.399977,-0.18314 -0.675367,-0.2593 -0.838175,-0.25717 z m 77.1913,0.10817 c 0.169816,-0.11218 0.448677,0.0218 0.995554,0.29726 0.612116,0.3083 1.613756,0.79048 2.225856,1.07106 2.76073,1.26543 4.42926,2.32782 4.18827,2.66707 -0.15187,0.21375 -2.91328,0.32544 -6.565415,0.26549 -7.665577,-0.12585 -8.862662,-0.24199 -8.6113,-0.83507 0.106334,-0.25089 0.468473,-0.38684 0.805135,-0.3018 1.736394,0.43863 3.00639,0.43004 4.618661,-0.0318 1.578889,-0.45226 1.805913,-0.67382 2.003276,-1.95303 0.109373,-0.70893 0.17015,-1.06705 0.339963,-1.17922 z m 15.07064,0.10513 c -0.24485,0 -0.0562,0.25607 0.41908,0.56881 0.47527,0.31272 1.0646,0.56806 1.30944,0.56806 0.24484,0 0.0562,-0.25534 -0.4191,-0.56806 -0.47527,-0.31274 -1.06458,-0.56881 -1.30942,-0.56881 z m -99.11429,0.79875 c -0.108261,0.003 -0.192687,0.0239 -0.244323,0.0688 -0.124836,0.1086 0.432996,0.56534 1.239006,1.01434 1.750066,0.97487 1.687655,0.96355 1.687655,0.29499 0,-0.47615 -1.924505,-1.39624 -2.682338,-1.37816 z m 23.290683,0.89558 c -0.08068,0.031 -0.130422,0.10657 -0.130422,0.21936 0,0.22557 0.200328,0.40996 0.445173,0.40996 0.244844,0 0.445171,-0.077 0.445171,-0.17094 0,-0.0939 -0.200327,-0.27833 -0.445171,-0.40997 -0.122423,-0.0658 -0.234065,-0.0793 -0.314751,-0.0484 z" />
    <g
       aria-label="XXIII"
       id="text1087"
       style="font-size:40px;line-height:1.25;font-family:Hultog;-inkscape-font-specification:Hultog"
       transform="matrix(0.44517225,0,0,0.38727631,4.6328011,1.4488176)">
      <path
         d="m 53.088419,61.972546 q -0.513761,2.715596 -1.541284,2.422018 l -3.571866,-1.003058 q -4.30581,0 -4.892966,1.247706 L 41.418694,63.4649 q 0.954129,-2.07951 2.17737,-2.07951 0.293578,0 0.562691,0.09786 0.244649,-0.220184 0.244649,-0.562691 0,-0.513762 -0.538226,-1.394496 -1.712539,-1.223241 -4.50153,-6.776758 h -0.171253 q -0.513762,-0.02446 -0.75841,0.464832 -2.495413,5.333333 -4.4526,7.168195 l 0.195719,0.880734 q 2.2263,0.293578 2.2263,1.810398 0,0.611621 -0.415902,1.590214 -0.905199,-0.70948 -1.785933,-0.880734 -0.366973,-0.04893 -1.981651,-0.04893 -3.082569,0 -4.525994,0.733945 l -1.051988,-0.587156 v -1.932721 l 2.88685,-0.733945 q 0.685015,-0.171254 6.948012,-9.174312 1.247707,-0.391437 1.247707,-1.174312 0,-0.782875 -0.905199,-1.492355 Q 35.5716,48.345634 35.449275,48.17438 34.666401,47.097928 33.3453,44.773769 32.024199,42.44961 31.265789,41.397622 q 0,0 -1.834862,-1.639144 l -3.278288,-0.733945 0.978594,-2.103975 5.357798,0.685015 3.009174,-0.685015 1.370031,0.464832 v 1.663608 q -1.688074,0.318043 -1.663609,1.370031 v 0.171254 l 4.648318,6.874617 0.75841,-0.195718 q 0.929663,-3.571866 3.474006,-5.993884 v -1.247707 l -1.883792,-0.685015 -0.415902,-1.859327 1.051988,-0.538226 3.914373,0.66055 q 1.663608,-0.587156 2.88685,-0.587156 1.492355,0 1.810397,1.003058 -0.807339,2.152905 -3.180428,2.152905 -1.859327,2.422019 -3.718654,4.844037 -2.788991,3.743119 -3.107034,4.892966 1.541285,1.761468 4.40367,5.333334 0.489297,1.076452 1.614679,3.058104 0.954128,1.003058 2.788991,2.93578 z"
         id="path1697" />
      <path
         d="m 80.489008,61.972546 q -0.513761,2.715596 -1.541284,2.422018 l -3.571866,-1.003058 q -4.30581,0 -4.892966,1.247706 L 68.819283,63.4649 q 0.954129,-2.07951 2.17737,-2.07951 0.293578,0 0.562691,0.09786 0.244649,-0.220184 0.244649,-0.562691 0,-0.513762 -0.538227,-1.394496 -1.712538,-1.223241 -4.501529,-6.776758 h -0.171253 q -0.513762,-0.02446 -0.75841,0.464832 -2.495413,5.333333 -4.4526,7.168195 l 0.195719,0.880734 q 2.2263,0.293578 2.2263,1.810398 0,0.611621 -0.415902,1.590214 -0.905199,-0.70948 -1.785933,-0.880734 -0.366973,-0.04893 -1.981651,-0.04893 -3.082569,0 -4.525994,0.733945 l -1.051988,-0.587156 v -1.932721 l 2.88685,-0.733945 q 0.685015,-0.171254 6.948012,-9.174312 1.247707,-0.391437 1.247707,-1.174312 0,-0.782875 -0.905199,-1.492355 -1.247706,-1.027523 -1.370031,-1.198777 -0.782874,-1.076452 -2.103975,-3.400611 -1.321101,-2.324159 -2.079511,-3.376147 0,0 -1.834862,-1.639144 l -3.278288,-0.733945 0.978594,-2.103975 5.357798,0.685015 3.009174,-0.685015 1.370031,0.464832 v 1.663608 q -1.688074,0.318043 -1.663609,1.370031 v 0.171254 l 4.648318,6.874617 0.75841,-0.195718 q 0.929663,-3.571866 3.474006,-5.993884 v -1.247707 l -1.883792,-0.685015 -0.415902,-1.859327 1.051988,-0.538226 3.914373,0.66055 q 1.663608,-0.587156 2.88685,-0.587156 1.492355,0 1.810397,1.003058 -0.807339,2.152905 -3.180428,2.152905 -1.859327,2.422019 -3.718654,4.844037 -2.788991,3.743119 -3.107034,4.892966 1.541285,1.761468 4.40367,5.333334 0.489297,1.076452 1.614679,3.058104 0.954128,1.003058 2.788991,2.93578 z"
         id="path1699" />
      <path
         d="m 93.699995,62.437377 q -0.415903,2.470948 -1.46789,2.2263 l -4.525994,-1.027523 q 0,0 -3.327217,0.318043 -0.954129,0.66055 -1.663609,0.66055 -1.003058,0 -1.565749,-1.46789 l 1.247706,-1.810397 q 0.587156,0.195719 1.223242,0.195719 2.103975,0 2.103975,-3.400612 0,-0.66055 -0.09786,-1.981651 -0.09786,-1.321101 -0.09786,-1.981652 0,-1.932722 0.09786,-5.82263 0.09786,-3.889908 0.09786,-5.82263 0,-1.663608 -0.978593,-2.617737 -0.66055,0.244649 -1.321101,0.244649 -1.149847,0 -1.932721,-0.929664 0.415902,-2.446483 1.443425,-2.2263 l 4.477064,0.978594 4.256881,-1.027523 1.761467,0.905198 -0.513761,1.761468 q -0.489297,-0.122324 -0.831804,-0.122324 -2.250765,0 -2.250765,3.840979 0,0.391437 0.02446,1.027523 0.02447,0.61162 0.02447,0.831804 0,1.614679 -0.09786,15.437309 l 1.027522,1.100917 q 0.660551,-0.220183 1.198777,-0.220183 1.076453,0 1.688075,0.929663 z"
         id="path1701" />
      <path
         d="m 107.00886,62.437377 q -0.4159,2.470948 -1.46789,2.2263 l -4.52599,-1.027523 q 0,0 -3.327218,0.318043 -0.954128,0.66055 -1.663608,0.66055 -1.003059,0 -1.56575,-1.46789 l 1.247707,-1.810397 q 0.587156,0.195719 1.223241,0.195719 2.103976,0 2.103976,-3.400612 0,-0.66055 -0.09786,-1.981651 -0.09786,-1.321101 -0.09786,-1.981652 0,-1.932722 0.09786,-5.82263 0.09786,-3.889908 0.09786,-5.82263 0,-1.663608 -0.978593,-2.617737 -0.660551,0.244649 -1.321101,0.244649 -1.149847,0 -1.932722,-0.929664 0.415902,-2.446483 1.443425,-2.2263 l 4.477063,0.978594 4.25688,-1.027523 1.76147,0.905198 -0.51376,1.761468 q -0.4893,-0.122324 -0.83181,-0.122324 -2.25076,0 -2.25076,3.840979 0,0.391437 0.0245,1.027523 0.0245,0.61162 0.0245,0.831804 0,1.614679 -0.0979,15.437309 l 1.02752,1.100917 q 0.66055,-0.220183 1.19878,-0.220183 1.07645,0 1.68807,0.929663 z"
         id="path1703" />
      <path
         d="m 120.31773,62.437377 q -0.4159,2.470948 -1.46789,2.2263 l -4.52599,-1.027523 q 0,0 -3.32722,0.318043 -0.95413,0.66055 -1.66361,0.66055 -1.00306,0 -1.56575,-1.46789 l 1.24771,-1.810397 q 0.58716,0.195719 1.22324,0.195719 2.10398,0 2.10398,-3.400612 0,-0.66055 -0.0979,-1.981651 -0.0979,-1.321101 -0.0979,-1.981652 0,-1.932722 0.0979,-5.82263 0.0979,-3.889908 0.0979,-5.82263 0,-1.663608 -0.9786,-2.617737 -0.66055,0.244649 -1.3211,0.244649 -1.14985,0 -1.93272,-0.929664 0.4159,-2.446483 1.44343,-2.2263 l 4.47706,0.978594 4.25688,-1.027523 1.76147,0.905198 -0.51376,1.761468 q -0.4893,-0.122324 -0.83181,-0.122324 -2.25076,0 -2.25076,3.840979 0,0.391437 0.0245,1.027523 0.0245,0.61162 0.0245,0.831804 0,1.614679 -0.0979,15.437309 l 1.02752,1.100917 q 0.66055,-0.220183 1.19878,-0.220183 1.07645,0 1.68807,0.929663 z"
         id="path1705" />
    </g>
  </g>
</svg>
