<?xml version="1.0" encoding="UTF-8" standalone="no"?>
<!-- Created with Inkscape (http://www.inkscape.org/) -->

<svg
   version="1.1"
   id="svg2"
   width="4cm"
   height="4cm"
   viewBox="0 0 151.1811 151.1811"
   sodipodi:docname="26.svg"
   inkscape:version="1.1.2 (0a00cf5339, 2022-02-04)"
   xmlns:inkscape="http://www.inkscape.org/namespaces/inkscape"
   xmlns:sodipodi="http://sodipodi.sourceforge.net/DTD/sodipodi-0.dtd"
   xmlns="http://www.w3.org/2000/svg"
   xmlns:svg="http://www.w3.org/2000/svg">
  <defs
     id="defs6" />
  <sodipodi:namedview
     id="namedview4"
     pagecolor="#505050"
     bordercolor="#eeeeee"
     borderopacity="1"
     inkscape:pageshadow="0"
     inkscape:pageopacity="0"
     inkscape:pagecheckerboard="0"
     showgrid="false"
     inkscape:zoom="2.7512882"
     inkscape:cx="129.03047"
     inkscape:cy="103.76957"
     inkscape:window-width="1920"
     inkscape:window-height="1043"
     inkscape:window-x="0"
     inkscape:window-y="0"
     inkscape:window-maximized="1"
     inkscape:current-layer="g8"
     units="cm"
     inkscape:document-units="cm" />
  <!-- Border -->
    <rect
       x="0"
       y="0"
       width="4cm"
       height="4cm"
       class="board-border"
       stroke-width="0.1cm"
       id="border"
       fill="none"
       stroke="#000000" />
  <g
     inkscape:groupmode="layer"
     inkscape:label="Image"
     id="g8">
    <path
       id="path12"
       style="fill:#000000;stroke-width:0.406728"
       d="m 141.34414,1.0682369 c 0.0265,0.1347665 0.0835,0.2472623 0.19518,0.3204747 -0.0606,-0.1011178 -0.11352,-0.209267 -0.16541,-0.3181856 -0.0119,-3.283e-4 -0.0177,-0.002 -0.0298,-0.00229 z M 140.87935,1.33301 c 0.0245,0.056753 0.0513,0.1158393 0.0662,0.1632895 -0.017,-0.1306451 -0.021,-0.1680721 -0.0662,-0.1632895 z M 5.3880935,2.537842 v 1.1315806 1.1323437 l 4.1624599,0.012971 c 2.2891406,0.007 4.3691556,0.1303523 4.6222906,0.2746926 0.253135,0.14434 0.911668,0.1044182 1.46385,-0.089275 0.658936,-0.2311388 1.539514,-0.1824331 2.56215,0.1419244 1.601924,0.508099 7.375142,0.5964843 8.173573,0.1251379 0.487049,-0.287525 1.252525,-0.205394 2.416592,0.259432 0.435835,0.1740335 1.008458,0.097677 1.376183,-0.1838917 0.513388,-0.3931004 0.629373,-0.3656305 0.629373,0.151081 0,0.8299775 0.696803,0.8119851 1.208296,-0.031285 0.318392,-0.524908 0.530901,-0.5678996 1.0065,-0.2037301 0.464036,0.3553143 0.917019,0.3524003 1.96834,-0.013736 1.143022,-0.3980542 1.560068,-0.3726618 2.56215,0.1579482 0.746646,0.3953557 1.416001,0.5073928 1.778122,0.2975837 0.319343,-0.1850247 0.914037,-0.2406215 1.321599,-0.1236115 0.419739,0.1205053 0.741022,0.011497 0.741022,-0.2518018 0,-0.3534481 0.141962,-0.356291 0.591329,-0.012209 0.440659,0.3374141 1.319495,0.3446904 3.456174,0.029758 1.576068,-0.2322947 2.977078,-0.2822752 3.113781,-0.111403 0.1367,0.1708725 2.535519,0.3168005 5.330231,0.3242897 2.794712,0.00749 5.938763,0.032992 6.98678,0.056465 5.47321,0.1225684 15.945749,-0.1265076 16.39925,-0.3899108 0.286306,-0.1662904 0.909353,-0.1102154 1.384454,0.1243745 0.530394,0.2618913 2.413907,0.3585018 4.878669,0.2502754 2.399175,-0.1053464 4.1173,-0.021311 4.271628,0.2090714 0.142018,0.212007 0.686047,0.2865116 1.208298,0.1655786 0.522247,-0.1209335 1.077111,-0.1019569 1.233107,0.041967 0.155996,0.1439239 2.804315,0.3040716 5.885168,0.3563375 8.291187,0.1406578 11.342997,0.3524007 13.178777,0.9141154 1.00931,0.3088273 2.69328,0.4271886 4.34027,0.305214 1.48011,-0.1095958 2.69117,-0.0622 2.69117,0.1052991 0,0.1674994 0.65835,0.1674404 1.46303,0 0.80467,-0.1674405 1.51923,-0.1542627 1.5879,0.028996 0.14949,0.3989088 1.42291,0.4409117 6.4765,0.2144127 2.09603,-0.093942 5.14481,0.013002 6.77506,0.2373039 1.63025,0.2243026 4.14481,0.4316664 5.58744,0.4608732 1.44263,0.029207 2.75711,0.1768237 2.92108,0.3281051 0.16397,0.1512818 0.69819,0.1826236 1.18762,0.070199 0.48943,-0.1124242 1.84263,-0.240559 3.00709,-0.2853751 1.93621,-0.074518 2.12796,-0.1682574 2.24457,-1.0941919 L 147.70733,6.642205 141.44007,6.3812474 C 121.54916,5.553647 108.91373,4.9827331 101.50924,4.576671 92.501513,4.0826875 72.277967,3.4460028 69.539433,3.5702281 68.37497,3.6230504 60.54453,3.5209349 52.138647,3.3428437 43.732762,3.1647525 29.775084,2.9105563 21.12158,2.7781979 Z M 70.621194,22.727743 c -3.884565,0.141236 -7.592758,1.276814 -9.729226,3.293259 -1.832878,1.729933 -2.356476,3.291131 -1.823609,5.432045 0.366476,1.4724 0.337271,1.946187 -0.148035,2.443237 -0.331228,0.339225 -0.602082,0.98585 -0.602082,1.436794 0,0.829766 1.806963,2.439423 2.738309,2.439423 0.278578,0 0.752193,0.483459 1.05281,1.074353 0.300622,0.590894 0.824207,1.564805 1.163638,2.163966 0.339426,0.59916 0.85937,1.520069 1.155368,2.046459 0.296002,0.526386 1.042745,1.323149 1.659855,1.771006 1.494523,1.08462 1.41484,1.675592 -0.305174,2.249426 -1.637523,0.546314 -7.464806,5.630668 -7.464806,6.513263 0,0.323302 -0.571646,1.703842 -1.270324,3.068165 -0.698678,1.364326 -1.270323,2.817031 -1.270323,3.227637 0,0.410602 -0.592687,2.327096 -1.31664,4.259259 -3.015621,8.048487 -3.678345,12.278007 -2.646507,16.881383 0.383565,1.711144 0.500998,2.387869 0.374648,2.804152 0.0053,0.03536 4.23e-4,0.07104 -0.0034,0.106826 -0.0025,0.03696 -8.47e-4,0.02106 0,0.04273 v 7.82e-4 c 0.0062,0.02481 0.01245,0.04931 0.01901,0.07401 3.51e-4,7.81e-4 3.81e-4,0.0016 8.47e-4,0.0023 0.0021,0.0048 0.0043,0.0095 0.0058,0.01449 0.0046,0.01559 0.0064,0.02559 0.0075,0.03434 0.0021,0.0079 0.0044,0.0157 0.0066,0.02367 4.23e-4,0.002 0.0013,0.0041 0.0017,0.0061 0.0058,0.01649 0.01131,0.03536 0.0149,0.05036 0.0076,0.0047 0.01533,0.0092 0.02316,0.01449 0.0025,0.0016 0.0034,0.01422 0.0034,0.02825 0.02058,0.0023 0.02977,0.0067 0.0083,0.01528 0.0049,0.0046 0.0065,0.01364 0.01075,0.01985 0.02875,0.02864 0.03265,0.03293 0.06782,0.09385 0.0034,0.006 0.01313,0.01906 0.0058,0.01985 -0.0067,7.82e-4 -0.01656,-0.008 -0.02316,-0.01375 8.47e-4,0.0023 0.0013,0.0035 0.0017,0.0054 0.02198,0.02207 0.06383,0.02946 0.06534,0.06791 0.0017,0.0035 0.0034,0.0066 0.005,0.0099 0.0038,0.0048 0.0071,0.0094 0.0091,0.01449 v 7.81e-4 c 0.0025,0.0042 0.0069,0.01098 0.0099,0.01602 0.0017,0.0012 0.0034,0.0027 0.005,0.0039 -8.47e-4,-0.002 -0.0017,-0.0035 -0.0025,-0.0054 0.0049,0.0023 0.01016,0.0041 0.0149,0.0069 0.04521,0.02617 0.0658,0.04427 0.06368,0.04349 -0.01101,-0.0031 -0.03951,-0.02106 -0.06699,-0.03817 0.01207,0.0071 0.0188,0.03157 0.02316,0.04883 0.0044,0.0041 0.0088,0.008 0.01321,0.01219 0.0034,0.0031 0.0088,0.008 0.01241,0.01145 0.05104,-0.0031 0.113673,0.02235 0.171197,0.08927 0.007,0.0082 0.0144,0.01621 0.02151,0.02442 8.47e-4,3.91e-4 0.0021,0.0012 0.0034,0.0016 -8.47e-4,-3.24e-4 -0.0021,-3.91e-4 -0.0034,-7.82e-4 0.0062,0.0072 0.01275,0.01418 0.01901,0.02137 0.0075,0.0023 0.034,0.01145 0.06203,0.0252 0.242861,0.03168 0.536877,0.117491 1.007325,0.302159 0.753153,0.295642 2.422541,0.610588 3.709247,0.699704 1.921288,0.133072 2.472685,0.02586 3.084837,-0.598219 0.729487,-0.743698 0.695269,-0.760736 -1.601137,-0.809582 -4.161673,-0.08852 -5.047504,-0.949767 -5.683377,-5.52437 -0.401198,-2.886282 -0.361229,-3.718746 0.292772,-6.066891 0.613329,-2.202119 0.916335,-2.721742 1.586248,-2.721742 0.610844,0 0.859493,0.307362 0.94861,1.172021 0.06644,0.644612 0.296096,1.523628 0.510277,1.953369 0.743541,1.491894 1.697901,5.032477 1.697901,6.29885 0,0.700369 0.21861,1.397557 0.485467,1.549725 0.335175,0.191118 0.407444,-0.01332 0.234879,-0.66079 -0.13739,-0.515506 -0.374686,-1.903921 -0.527646,-3.08571 -0.15296,-1.181788 -0.54502,-3.015736 -0.870866,-4.075368 -0.726685,-2.36478 -0.731071,-2.567837 -0.05381,-2.567837 0.330767,0 0.802692,1.168463 1.222356,3.027722 0.375872,1.665248 1.227819,4.082542 1.893083,5.371765 0.665268,1.289224 1.274477,2.475896 1.353852,2.637049 0.07938,0.161153 -0.157245,0.293005 -0.525995,0.293005 -0.368745,0 -0.670722,0.147726 -0.670722,0.328104 0,0.428209 1.932924,1.234591 2.959125,1.234591 1.408501,0 1.274016,0.585605 -0.654182,2.852224 -2.940706,3.456823 -7.332261,5.247629 -13.192014,5.379395 -1.679228,0.03778 -3.55842,0.310754 -4.176519,0.606615 -0.618098,0.295857 -1.436051,0.542427 -1.816992,0.547857 -0.380941,0.0054 -1.740244,0.679777 -3.021154,1.498602 -2.596086,1.659551 -3.324546,2.967812 -3.363545,6.038655 -0.02036,1.60346 -0.133667,1.8519 -0.765006,1.6802 -1.718104,-0.46725 -10.753769,-0.66391 -14.069495,-0.30597 -3.588363,0.38737 -3.589346,0.3884 -5.546914,2.36311 -2.360471,2.38116 -3.959489,6.2237 -3.263475,7.84247 0.23477,0.54602 0.422083,2.74953 0.415998,4.8964 -0.0082,2.89634 0.163937,4.17665 0.668243,4.9643 0.572437,0.89407 0.593547,1.21091 0.132325,2.00602 -0.410263,0.70726 -0.430674,1.14539 -0.08105,1.74811 0.256667,0.44248 0.466447,2.04284 0.466447,3.55575 v 2.75074 l -1.164463,-0.41433 c -1.329664,-0.47244 -6.9735131,-1.51997 -8.1884594,-1.51997 -0.5742275,0 -0.8096659,0.27471 -0.8096659,0.9454 0,1.0446 -0.3931702,0.92239 6.4574783,2.00831 3.516547,0.55743 4.128552,0.76417 4.128552,1.3933 0,0.66781 -0.233454,0.71416 -2.434787,0.48758 -1.339133,-0.13783 -3.7209899,-0.46982 -5.2930153,-0.73861 -2.3354708,-0.39937 -2.858228,-0.39622 -2.858228,0.0191 0,0.58747 2.6414025,1.17219 7.1017373,1.57185 3.24606,0.29086 3.650041,0.46629 3.069949,1.33226 -0.354562,0.52931 -2.282383,0.39075 -8.5837818,-0.61653 -1.2651118,-0.20223 -1.5879045,-0.13242 -1.5879045,0.34566 0,0.46969 0.9658933,0.70939 4.4461324,1.10182 2.4453729,0.27573 4.4403059,0.59963 4.4328999,0.7203 -0.0074,0.12067 -0.270685,0.53223 -0.584713,0.91412 -0.530426,0.64504 -0.845328,0.65776 -4.4328996,0.17549 -2.123939,-0.28551 -3.8614197,-0.39537 -3.8614197,-0.24417 0,0.42823 2.468049,1.11796 4.9721263,1.38949 1.595525,0.17301 2.140695,0.369 1.826917,0.6585 -0.628189,0.57958 -0.556128,1.03773 0.163752,1.03773 0.336159,0 1.527087,-1.22305 2.646508,-2.71793 1.298228,-1.73366 2.265352,-2.66228 2.670491,-2.5638 0.349339,0.0849 3.588664,0.27424 7.1985,0.42043 3.609836,0.1462 6.840079,0.40321 7.177825,0.57151 0.840975,0.41908 -3.245914,1.5407 -6.542663,1.79542 -1.397356,0.10798 -3.060402,0.38124 -3.695186,0.60738 -1.883328,0.67094 -0.816377,1.71938 2.74906,2.70191 2.999663,0.82662 5.643845,0.871 10.685273,0.17931 0.698678,-0.0959 2.942521,0.11153 4.986186,0.46087 2.427689,0.41499 3.859795,0.50205 4.131032,0.25181 0.684522,-0.63156 -0.388965,-4.78178 -1.229799,-4.75447 -1.764533,0.0573 -6.216861,-0.90978 -7.564875,-1.64358 -1.742643,-0.94862 -12.482802,-2.1705 -15.89724,-1.80839 -2.503349,0.26548 -3.493992,-0.006 -2.806951,-0.7699 0.447866,-0.49789 0.309697,-7.07101 -0.208413,-9.92022 -0.166954,-0.91813 -0.466591,-4.13674 -0.894023,-9.59898 l -0.186083,-2.37228 5.600672,-0.061 c 3.080298,-0.0335 7.356719,-0.26121 9.503442,-0.50665 4.287307,-0.49017 5.380716,-0.33465 5.034153,0.71878 -0.124054,0.37708 -0.266345,2.41451 -0.315927,4.52708 -0.08802,3.75047 0.157418,4.52818 1.435731,4.55227 0.174669,0.003 0.32124,-1.88378 0.325851,-4.19364 0.01005,-5.03434 0.884233,-12.21531 2.099838,-17.24993 1.007474,-4.172609 1.08223,-4.334797 1.995632,-4.334797 0.816994,0 3.548895,-1.505271 4.225315,-2.328018 0.272341,-0.331256 1.034535,-0.625621 1.693764,-0.654687 0.659225,-0.02907 2.339042,-0.353369 3.733231,-0.720305 1.899133,-0.499828 2.720698,-0.560242 3.27588,-0.240354 1.025363,0.590796 1.599482,0.534043 1.599482,-0.158712 0,-0.859455 0.993079,-0.714538 2.008038,0.293006 1.82684,1.813496 2.810659,5.328552 4.182308,14.943267 0.647534,4.53895 0.594676,12.5995 -0.120749,18.41509 l -0.246455,2.00678 -2.170962,0.42577 c -8.084276,1.58389 -13.814769,3.4072 -13.814769,4.39584 0,0.54254 1.766755,0.40439 2.507568,-0.1961 0.367674,-0.29804 2.002081,-0.82847 3.632329,-1.17889 1.630249,-0.35041 3.916831,-0.8919 5.081295,-1.20254 6.570443,-1.75275 8.65576,-2.2248 10.374309,-2.34862 7.972355,-0.5744 11.490063,-1.16173 13.93138,-2.32649 0.764938,-0.36495 1.458678,-0.6007 1.541592,-0.52421 0.08291,0.0765 -0.04386,0.84733 -0.28202,1.71302 -0.264863,0.96271 -1.202137,2.34217 -2.413285,3.55192 -1.965321,1.96307 -2.010016,1.9819 -6.002609,2.59356 -4.779541,0.73221 -14.498994,1.26382 -20.88425,1.14226 -4.151621,-0.079 -4.569095,-0.0228 -4.440344,0.59212 0.118276,0.56503 0.538101,0.659 2.504257,0.56312 2.292282,-0.11179 2.408652,-0.0671 3.943296,1.50012 0.869765,0.88823 1.519527,1.67023 1.443172,1.7382 -0.07633,0.068 -1.70759,-0.0234 -3.624885,-0.20297 -5.81522,-0.54463 -9.150601,-0.56534 -9.333902,-0.058 -0.09111,0.25219 0.04989,0.45858 0.313446,0.45858 0.263551,0 1.19585,0.3192 2.071719,0.70963 1.294653,0.5771 1.687683,0.61628 2.102321,0.20678 0.280496,-0.27704 1.031651,-0.42898 1.668951,-0.33726 0.6373,0.0917 3.417746,0.27098 6.178769,0.3983 4.510521,0.20799 5.078847,0.16002 5.597363,-0.47079 0.482943,-0.58753 0.579238,-0.60254 0.590502,-0.0916 0.0074,0.33583 -0.57566,1.12694 -1.295133,1.75804 -1.160801,1.01821 -2.502605,2.88045 -2.502605,3.47257 0,0.1181 0.33346,0.20451 0.741022,0.19228 0.81241,-0.0244 3.521231,-3.09281 4.638002,-5.25349 0.388355,-0.75137 0.963367,-1.36583 1.277767,-1.36583 0.436801,0 0.466421,-0.18092 0.126537,-0.76685 -0.244639,-0.42174 -0.691864,-0.67929 -0.994091,-0.57228 -0.302257,0.10701 -0.90091,-0.16319 -1.329872,-0.60051 -0.428963,-0.43732 -0.702189,-0.80447 -0.607871,-0.81568 1.551442,-0.18438 10.545506,-0.38413 10.545506,-0.23425 0,0.11366 -0.524009,0.72468 -1.164463,1.35744 -1.541699,1.52316 -3.802892,2.54417 -5.50308,2.4852 -1.310737,-0.0455 -1.822584,0.41024 -0.99244,0.88359 0.610526,0.34813 2.246999,0.37254 3.743152,0.0557 1.249405,-0.26458 1.375798,-0.20816 1.374528,0.61806 -0.0013,0.81383 -0.589015,1.85969 -2.200734,3.91895 -0.662418,0.84635 -0.229751,1.2527 1.018076,0.95608 1.205405,-0.28653 2.006675,-1.80343 2.30081,-4.3554 0.351007,-3.04541 0.269431,-2.97206 2.620042,-2.32802 2.840367,0.77823 51.726285,1.20662 52.242055,0.45782 0.22733,-0.33005 0.32793,-0.27485 0.33247,0.18313 0.003,0.36154 0.42452,0.77978 0.93537,0.92938 0.51085,0.14959 1.84294,0.86503 2.95995,1.5894 1.11701,0.72437 2.11636,1.31699 2.22142,1.31699 0.82304,0 7.39945,3.24536 7.61201,3.75642 0.24935,0.59952 -0.2436,0.62391 -6.19613,0.30827 -3.55689,-0.1886 -18.94833,-0.35089 -34.202801,-0.36015 -27.718468,-0.0168 -34.027962,-0.1649 -50.601221,-1.18881 -0.93157,-0.0576 -6.076381,-0.2173 -11.432912,-0.35481 -12.262144,-0.31478 -25.605016,-0.93502 -26.092909,-1.21323 -0.204802,-0.11677 -0.372165,-0.53359 -0.372165,-0.92632 0,-0.56975 -0.560075,-0.81148 -2.7713892,-1.19644 -2.6922357,-0.46868 -3.9460355,-0.29728 -2.762292,0.3777 0.3201532,0.18256 1.601522,0.44935 2.8466495,0.59288 3.5684227,0.41134 2.7558187,1.37652 -1.158674,1.37652 -1.9391182,0 -2.0824706,0.0673 -2.0824706,0.97668 0,0.97109 0.022437,0.97691 3.916831,0.98126 10.6249403,0.0119 28.3970373,0.48168 38.6390083,1.02171 6.413698,0.33817 16.424436,0.52112 40.226912,0.73556 22.547533,0.20315 49.896613,0.63116 50.093423,0.78364 0.49025,0.37985 4.65594,-0.0284 5.27151,-0.51657 1.22075,-0.968 0.87205,-1.40931 -1.90549,-2.41196 -3.35214,-1.21008 -6.57844,-2.80723 -9.96492,-4.93378 -1.46334,-0.9189 -3.03536,-1.78033 -3.49339,-1.91446 -0.71141,-0.20832 -0.84044,-0.6251 -0.88328,-2.85527 -0.0276,-1.4359 -0.0311,-2.7317 -0.008,-2.87969 0.0228,-0.148 0.0582,-3.65161 0.0786,-7.78601 0.0266,-5.40591 0.20568,-7.96337 0.63764,-9.10682 0.8301,-2.19743 0.79439,-2.33979 -0.76335,-3.04756 -0.75691,-0.34391 -2.89785,-1.87093 -4.75793,-3.39322 -1.86025,-1.52229 -3.5211,-2.76753 -3.69106,-2.76753 -0.16996,0 -0.995,-0.63262 -1.83271,-1.40551 l -1.52257,-1.40474 -6.64273,0.16786 c -6.49723,0.16451 -6.64501,0.18712 -6.78167,1.04536 -0.13586,0.85316 -0.0422,0.87632 3.38753,0.82255 9.32994,-0.14626 10.51407,-0.0854 10.51407,0.54023 0,0.33009 0.44729,0.82561 0.9941,1.10106 0.54681,0.27545 2.63602,1.64144 4.64296,3.03611 2.79838,1.94467 3.47977,2.59259 2.92274,2.77898 -0.90877,0.30408 -29.242755,0.14985 -29.579678,-0.161 -0.135646,-0.12513 0.410471,-0.98414 1.214082,-1.90911 0.803611,-0.92498 2.17094,-2.77815 3.03852,-4.1181 0.867586,-1.33996 1.896716,-2.60125 2.286746,-2.80263 0.59299,-0.30617 0.70219,-0.99488 0.66742,-4.20508 -0.052,-4.799587 -0.42576,-7.128961 -2.04691,-12.745737 -0.736304,-2.551057 -0.792177,-3.037356 -0.336601,-2.943024 1.036811,0.214675 3.588941,-0.700451 5.168131,-1.853411 1.00757,-0.735615 1.97503,-1.337601 2.14946,-1.337601 0.57033,0 1.33302,-5.198087 1.27446,-8.684863 -0.0477,-2.839573 -0.23048,-3.690363 -1.09086,-5.078759 -0.56844,-0.917279 -1.03579,-2.028695 -1.03875,-2.46918 -0.003,-0.440485 -0.1786,-0.967894 -0.39119,-1.172022 -0.58577,-0.56246 -2.54654,-5.869831 -3.34866,-9.065617 -0.55569,-2.214011 -1.12015,-3.306671 -2.579514,-4.987959 -2.220869,-2.558578 -6.720537,-5.399972 -10.464456,-6.607881 -1.484402,-0.478919 -2.814689,-0.97695 -2.955818,-1.107162 -0.141133,-0.130207 0.350177,-1.016763 1.091686,-1.969394 0.754293,-0.969054 1.449465,-2.432564 1.578805,-3.322254 0.208181,-1.431991 0.09025,-1.708875 -1.185966,-2.784314 -0.779466,-0.656841 -1.663988,-1.194149 -1.965859,-1.194149 -0.376037,0 -0.464121,-0.311867 -0.279535,-0.990419 0.21623,-0.794863 -0.02469,-1.254086 -1.22153,-2.326493 -0.999025,-0.895159 -1.584191,-1.844717 -1.77316,-2.876642 -0.255589,-1.395759 -0.521371,-1.657793 -2.829282,-2.792707 -2.208021,-1.085793 -4.8762,-1.660791 -7.554953,-1.760321 -0.55807,-0.02074 -1.116495,-0.02073 -1.671432,-7.82e-4 z M 52.4339,84.483202 c 0,0 0,7.81e-4 0,7.81e-4 -8.47e-4,-3.9e-4 -0.0017,-3.9e-4 -0.0025,-7.81e-4 0.0021,0.0035 0.0042,0.0068 0.0066,0.0107 -0.0013,-0.0027 -0.0021,-0.0056 -0.0034,-0.0084 0.0025,0.0012 0.0057,0.0023 0.0083,0.0039 -0.0034,-0.002 -0.0059,-0.0041 -0.0091,-0.0061 z m -0.0025,0 c -8.47e-4,-0.0012 -0.0017,-0.0027 -0.0025,-0.0039 -0.0017,-0.0012 -0.0038,-0.002 -0.0058,-0.0031 8.47e-4,0.0012 0.0017,0.0023 0.0025,0.0039 0.0021,7.81e-4 0.0038,0.0023 0.0058,0.0031 z M 72.249622,24.178273 c 4.29963,0.248075 8.934443,2.551929 8.934443,4.440862 0,0.295081 -1.357488,0.442128 -4.128551,0.447902 -4.639793,0.0097 -10.818075,0.960123 -13.603874,2.092241 -1.019396,0.414273 -1.924502,0.753115 -2.011345,0.753115 -0.08684,0 -0.157965,-0.79097 -0.157965,-1.757269 0,-3.724596 4.787007,-6.333435 10.967292,-5.976851 z m 4.40809,6.197368 c 2.471372,-0.05799 4.514091,0.08046 5.331883,0.468504 1.411431,0.669717 2.06483,1.701821 1.44152,2.276896 -0.366115,0.337784 -0.99211,0.288459 -2.531551,-0.198389 -2.794699,-0.883832 -9.097134,-1.229324 -11.9986,-0.657736 -2.647523,0.521561 -5.97232,1.880836 -6.474847,2.646967 -0.55058,0.839386 -1.567228,0.6019 -1.567228,-0.366257 0,-0.977514 0.93279,-1.634138 3.549627,-2.499701 2.819944,-0.932744 8.130236,-1.573632 12.249196,-1.670284 z m 1.509335,2.513437 0.646739,0.976685 c 0.355682,0.537176 0.653378,1.362031 0.661627,1.832809 0.0083,0.470778 -0.175661,0.964447 -0.408553,1.097244 -0.2435,0.138847 -0.425843,-0.225058 -0.42923,-0.856125 -0.0032,-0.603575 -0.110323,-1.536752 -0.238186,-2.073928 z m -4.869574,0.04197 c 0.682173,0.05482 1.111534,0.228875 1.111534,0.550148 0,0.35174 -3.119839,1.556591 -4.030961,1.556591 -1.034624,0 -0.70948,1.430771 0.633506,2.787366 l 1.259572,1.272742 1.492795,-0.656209 c 1.036127,-0.455861 1.501078,-0.927345 1.521742,-1.542094 0.01635,-0.486935 0.178667,-1.236727 0.36059,-1.666468 0.29173,-0.689132 0.437449,-0.587513 1.23724,0.858414 0.498754,0.901677 1.156105,1.780694 1.460542,1.953369 0.304441,0.172676 0.985487,0.884455 1.513472,1.582535 l 0.960186,1.269691 -1.92368,2.246374 c -2.390398,2.791626 -4.596204,4.021819 -6.39049,3.564133 -0.698678,-0.178218 -1.901661,-0.635044 -2.672972,-1.0156 -2.039039,-1.006031 -4.914967,-5.575493 -3.509104,-5.575493 0.209891,0 0.775329,0.615311 1.256265,1.367358 0.855013,1.336999 2.243756,1.819907 2.808605,0.976685 0.143936,-0.214871 0.583735,-0.393659 0.977552,-0.396776 0.393818,-0.0031 0.989718,-0.165713 1.324084,-0.360917 0.503827,-0.294138 0.512821,-0.460249 0.05376,-0.970582 -0.722073,-0.802709 -1.667977,-0.780709 -2.677935,0.06257 -0.773314,0.645687 -0.841209,0.641964 -1.409263,-0.07478 -0.328303,-0.41424 -0.59712,-1.211197 -0.59712,-1.771766 0,-0.56057 -0.176215,-1.186886 -0.391188,-1.391013 -0.214972,-0.204127 -0.453158,-0.898245 -0.529301,-1.542856 -0.07614,-0.644612 -0.326812,-1.172022 -0.557418,-1.172022 -0.230606,0 -0.517411,0.52741 -0.637643,1.172022 -0.251931,1.350715 -1.822199,1.863167 -2.286748,0.746248 -0.151583,-0.364421 -0.223323,-0.695013 -0.15962,-0.734803 0.06371,-0.03979 0.791424,-0.536161 1.617681,-1.102585 1.817083,-1.245687 6.137805,-2.156738 8.184321,-1.992284 z m 3.396625,0.28919 c 0.04298,-0.02514 0.11029,-0.01724 0.198489,0.029 0.117602,0.06164 0.272895,0.190491 0.459831,0.398304 0.288097,0.320274 0.458138,0.766203 0.37713,0.990419 -0.08101,0.224216 -0.398149,0.03693 -0.704636,-0.415854 -0.372963,-0.551 -0.45976,-0.926434 -0.330814,-1.001865 z m 3.588499,0.645528 c 0.411928,0 0.817191,2.186492 0.813803,4.39508 -8.46e-4,0.590894 -0.06579,1.074353 -0.143906,1.074353 -0.393127,0 -0.606054,-0.854649 -0.549974,-2.206697 0.03432,-0.827412 -0.07428,-1.900261 -0.241497,-2.38372 -0.17812,-0.514989 -0.128023,-0.879016 0.121574,-0.879016 z m -6.081174,1.220092 c 0.129493,0.05938 -0.07742,0.241595 -0.639299,0.53794 -1.238908,0.653419 -1.693765,0.71833 -1.693765,0.241119 0,-0.18981 0.428735,-0.451108 0.952743,-0.58067 0.784929,-0.194074 1.250824,-0.257765 1.380321,-0.198389 z m 11.74553,0.04655 c 0.291497,0.08788 0.751113,0.761165 1.021387,1.497074 0.408282,1.111696 0.372471,1.528914 -0.211721,2.465365 -0.38672,0.619902 -1.104102,1.372115 -1.594523,1.671047 -0.773207,0.471301 -0.965962,0.460792 -1.44979,-0.07707 -0.47519,-0.528261 -0.392619,-0.761271 0.555766,-1.572613 1.369337,-1.171464 1.755465,-1.215368 1.12394,-0.126664 -0.382431,0.65928 -0.364011,0.791053 0.09097,0.651632 1.10287,-0.337952 1.459996,-2.216784 0.664109,-3.496226 -0.48457,-0.778979 -0.552092,-1.118654 -0.20014,-1.012546 z m -1.535804,0.05723 c 0.05144,-0.0016 0.107897,0.01357 0.16706,0.04731 0.236691,0.134964 0.320905,0.408878 0.186911,0.608902 -0.362986,0.541882 -0.616966,0.441294 -0.616966,-0.244934 0,-0.25124 0.108676,-0.406483 0.262995,-0.411276 z m -2.096529,0.04502 c 0.07414,0.0023 0.165832,0.05181 0.279538,0.138872 0.442272,0.338648 0.469897,0.853084 0.128189,2.392115 -0.239405,1.078271 -0.608599,1.960236 -0.820417,1.960236 -0.211818,0 -0.26955,-0.278179 -0.128189,-0.618058 0.141366,-0.33988 0.257207,-1.416461 0.257207,-2.392114 0,-1.074056 0.06126,-1.48808 0.283672,-1.481051 z m 1.833534,1.365832 c 0.232892,0 0.423441,0.253495 0.423441,0.56312 0,0.309625 -0.190549,0.671441 -0.423441,0.804239 -0.232893,0.132797 -0.423441,-0.120698 -0.423441,-0.56312 0,-0.442422 0.190548,-0.804239 0.423441,-0.804239 z m -18.104592,1.172022 c 0.704771,0 0.758743,0.09833 0.320062,0.586011 -0.289926,0.322305 -0.907917,0.58601 -1.373702,0.58601 -0.704772,0 -0.758743,-0.09833 -0.320063,-0.58601 0.289926,-0.322306 0.907918,-0.586011 1.373703,-0.586011 z m 11.845602,1.696226 c -0.352062,-0.01301 -0.999872,0.130401 -1.662337,0.383807 -0.883294,0.337874 -1.27264,0.623789 -0.865078,0.634845 0.428341,0.01164 0.741022,0.322318 0.741022,0.736327 0,0.393932 0.126757,0.83344 0.282021,0.976684 0.423665,0.390881 1.411744,0.312742 1.411744,-0.1114 0,-0.204194 -0.33346,-0.552105 -0.741022,-0.773718 -0.646264,-0.351415 -0.659802,-0.452905 -0.10586,-0.794318 0.349339,-0.215308 0.82571,-0.458719 1.058603,-0.54023 0.232892,-0.08151 0.288782,-0.281358 0.124055,-0.44485 -0.0412,-0.04087 -0.125796,-0.06281 -0.243148,-0.06715 z m 4.054945,2.07698 c 0.102794,0.01188 0.205254,0.06227 0.314273,0.145741 0.463088,0.354587 0.436712,0.569856 -0.149695,1.215515 -0.786741,0.866229 -2.194945,1.683027 -2.194945,1.273503 0,-0.14335 0.400728,-0.858693 0.890717,-1.590164 0.517733,-0.772893 0.831274,-1.080229 1.13965,-1.044595 z m -8.143799,0.685968 c -0.377799,0.04394 -0.973623,0.303991 -2.110592,0.817212 -1.299003,0.586366 -2.362006,1.240776 -2.362006,1.454346 0,0.241377 0.600838,0.275003 1.587905,0.08927 0.873347,-0.164334 2.205548,-0.315755 2.960781,-0.3365 1.458971,-0.04006 1.616406,-0.374308 0.72696,-1.545908 -0.265786,-0.350098 -0.42525,-0.522354 -0.803048,-0.478423 z m 10.283337,1.236116 c 0.3365,-0.03379 0.490539,0.161059 0.786508,0.550912 0.328209,0.432324 0.986537,0.785927 1.463023,0.785927 0.476486,0 2.425636,0.674373 4.331998,1.498601 4.626861,2.00043 7.445015,4.567446 8.484538,7.728778 1.676156,5.097415 3.862266,10.029273 4.519736,10.195673 0.40165,0.101653 0.68414,0.597684 0.69223,1.215511 0.007,0.574139 0.41362,2.039544 0.9023,3.256634 1.33807,3.332612 1.53333,7.226516 0.49787,9.944633 -0.46386,1.217645 -1.16524,2.541709 -1.55813,2.942263 -0.94642,0.964851 -3.01328,1.894615 -4.212083,1.894615 -0.860563,0 -0.926332,-0.120757 -0.614489,-1.123949 0.192128,-0.618065 0.247218,-2.297459 0.122404,-3.732005 -0.220655,-2.536227 -0.257359,-2.60481 -1.331523,-2.48978 -1.218588,0.130493 -1.206998,-0.02657 -0.301042,4.015088 0.335916,1.498578 0.519372,2.861053 0.407728,3.027722 -0.111645,0.166665 -0.334468,0.283754 -0.495393,0.260193 -2.308923,-0.337761 -4.316665,-0.856236 -5.742095,-1.482576 -2.120284,-0.931699 -6.487911,-1.990757 -8.209136,-1.990757 -1.199071,0 -1.267664,-0.09309 -1.522567,-2.051038 -0.146862,-1.12807 -0.275821,-2.930053 -0.286153,-4.004406 -0.01033,-1.074353 -0.280543,-2.964089 -0.600427,-4.198982 -0.319897,-1.234893 -0.455377,-2.307218 -0.301867,-2.38372 0.66888,-0.333358 3.05819,0.621195 3.543009,1.415431 0.292149,0.478599 0.629331,1.97261 0.750121,3.319962 0.120787,1.347348 0.410539,2.490069 0.643432,2.53938 0.232893,0.04931 0.589003,-0.928394 0.791471,-2.172358 0.313795,-1.927975 0.257058,-2.375039 -0.385399,-3.030011 -1.121544,-1.143393 -0.499483,-1.313883 1.448965,-0.39678 0.949033,0.446696 3.111488,1.077404 4.805066,1.401694 4.667021,0.893647 6.662839,1.981228 8.080938,4.401949 1.69801,2.898507 2.7456,2.626074 1.38446,-0.360151 -1.07381,-2.355853 -3.770902,-4.159203 -7.550817,-5.04824 -2.41198,-0.567297 -2.613991,-1.136861 -0.423441,-1.194149 2.975648,-0.07782 3.266378,-0.154285 3.42309,-0.896565 0.14292,-0.676964 -0.04331,-0.722356 -2.109762,-0.51276 -1.246509,0.12643 -2.884583,0.350798 -3.640599,0.498262 l -1.374532,0.267826 0.880791,-1.954896 c 0.49256,-1.093508 1.839975,-2.844625 3.058372,-3.97465 1.763882,-1.635938 2.058881,-2.089718 1.552339,-2.385247 -0.344033,-0.200716 -0.841153,-0.367706 -1.104914,-0.370835 -0.652472,-0.0081 -4.535686,5.70726 -5.296322,7.795165 -0.217505,0.597032 -0.293005,-1.206506 -0.191048,-4.55074 0.135357,-4.439883 0.05342,-5.58092 -0.41186,-5.745652 -1.018732,-0.36067 -1.241263,0.621269 -1.317466,5.815852 -0.04099,2.793318 -0.231529,5.052881 -0.423441,5.020768 -0.191916,-0.03211 -1.937091,-0.354744 -3.877959,-0.716488 -1.940868,-0.361744 -3.621269,-0.572564 -3.734057,-0.468504 -0.112787,0.10406 0.09812,1.129919 0.468098,2.279183 0.698402,2.169428 1.721352,11.197271 1.311676,11.57524 -0.469304,0.432992 -0.76144,-0.315348 -0.913045,-2.337937 -0.460085,-6.137958 -0.592271,-7.240186 -1.073487,-8.972527 -0.418457,-1.506317 -0.957879,-2.22663 -2.657262,-3.548877 -3.590849,-2.793955 -6.208402,-4.049643 -9.007221,-4.31954 -2.8703,-0.276793 -5.390313,0.611334 -5.469175,1.927428 -0.02418,0.40316 -0.270202,1.246824 -0.546667,1.874777 -0.789489,1.793205 -0.373127,2.177413 2.376894,2.192962 2.388365,0.01352 4.887062,0.807749 4.047501,1.286473 -0.231114,0.131794 -1.542918,0.07 -2.915291,-0.137345 -1.372373,-0.207354 -2.520809,-0.378055 -2.552228,-0.379227 -0.03142,-0.0012 -0.377434,0.448786 -0.769139,1.00034 -0.863574,1.215992 -0.401367,1.915626 1.498584,2.266213 1.500447,0.276866 1.328733,0.844234 -0.349834,1.155234 -0.643305,0.119187 -1.693435,0.335968 -2.33389,0.481474 -1.108526,0.251848 -1.164463,0.196665 -1.164463,-1.148366 0,-0.777097 0.206703,-1.413141 0.459002,-1.413141 0.252299,0 0.384675,-0.204217 0.294427,-0.454006 -0.09278,-0.25681 -1.074401,-0.469004 -2.258631,-0.488343 -1.977928,-0.03227 -2.101678,-0.09604 -2.232162,-1.148366 -0.07599,-0.612826 0.349026,-2.45876 0.944473,-4.102075 1.812951,-5.003368 2.36945,-6.704037 2.36945,-7.238913 0,-0.281496 0.381097,-0.829654 0.846882,-1.218566 0.465786,-0.388912 0.846883,-0.918595 0.846883,-1.177362 0,-0.924729 2.918941,-3.850536 5.116855,-5.129121 1.230308,-0.715703 2.368768,-1.498422 2.529895,-1.738956 0.207542,-0.30982 0.742081,-0.240151 1.83436,0.238065 0.848051,0.371288 1.621505,0.793619 1.718579,0.938535 0.09708,0.144917 -0.210637,1.310402 -0.683959,2.589742 -0.986297,2.665786 -1.578598,9.16252 -0.835302,9.16252 0.506334,0 0.556186,-0.161223 1.577154,-5.07876 0.714408,-3.440992 0.926497,-4.583319 0.986651,-5.30996 0.01939,-0.23444 1.035941,-0.918232 2.258627,-1.519964 1.222687,-0.601735 2.794712,-1.475989 3.49339,-1.942688 0.698678,-0.466699 2.203118,-1.323181 3.343695,-1.903007 1.028543,-0.522874 1.548308,-0.784934 1.884813,-0.818739 z m -11.368405,1.336839 c -0.232893,0 -0.423441,0.175803 -0.423441,0.390674 0,0.21487 0.190548,0.390673 0.423441,0.390673 0.232893,0 0.423441,-0.175803 0.423441,-0.390673 0,-0.214871 -0.190548,-0.390674 -0.423441,-0.390674 z m 29.164508,1.125476 c -0.0201,0.02055 -0.0606,0.04951 -0.0885,0.07325 0.01,-0.0059 0.019,-0.01274 0.029,-0.01754 0.18865,-0.04701 0.20997,-0.02969 0.0595,-0.0557 z m -0.36803,0.296057 c -0.0505,0.03766 -0.098,0.07375 -0.14473,0.109877 0.0906,-0.0051 0.17033,-0.02051 0.25721,-0.03204 -0.037,-0.02645 -0.0744,-0.05265 -0.11248,-0.07783 z M 82.711596,60.040909 c -0.87549,0 -1.060636,0.801221 -0.798915,3.464179 0.373204,3.797275 1.38859,2.954721 1.38859,-1.152183 0,-1.71582 -0.151939,-2.311996 -0.589675,-2.311996 z m -15.289369,1.577193 c 0.852349,0.01031 2.328927,0.833135 2.328927,1.297924 0,0.137459 -0.142912,0.219535 -0.317581,0.181601 -0.17467,-0.03793 -1.651421,-0.172014 -3.281669,-0.297584 l -2.964089,-0.228146 1.693765,-0.48224 c 0.931571,-0.265029 2.074862,-0.477181 2.540647,-0.471555 z m 3.550457,1.732853 c 0.189685,-0.0125 0.526591,0.155453 1.182654,0.492156 0.740006,0.379789 2.297613,1.520991 3.461966,2.535567 1.86224,1.622683 2.20477,2.176326 2.84334,4.600336 0.399263,1.515592 0.651066,2.819497 0.5599,2.898007 -0.09114,0.07851 -0.546502,-0.08243 -1.012287,-0.357865 -0.465786,-0.275437 -2.371368,-0.805855 -4.234412,-1.178124 -1.86304,-0.372273 -3.841827,-1.006173 -4.397339,-1.409328 -0.696756,-0.505653 -1.699702,-0.733276 -3.234528,-0.733276 -1.615627,0 -2.498701,-0.215245 -3.224602,-0.785926 l -0.999884,-0.785926 3.748115,0.257145 c 4.225985,0.289575 4.491445,0.154594 4.502374,-2.280711 0.006,-1.340659 -0.109739,-1.476368 -1.581291,-1.853415 -0.873347,-0.22377 -1.9103,-0.407813 -2.304117,-0.408985 -0.393817,-0.0012 -0.833616,-0.178092 -0.977552,-0.392963 -0.344156,-0.513767 -0.01745,-0.490581 2.752368,0.195337 1.280909,0.317204 2.362988,0.578881 2.405015,0.581432 0.04205,0.0027 0.1373,-0.35013 0.21172,-0.783637 0.06598,-0.384329 0.108871,-0.577314 0.29856,-0.589824 z m -6.339215,1.3933 c 0.958167,0.03805 2.175293,0.29202 3.212199,0.744722 0.98384,0.42953 1.338803,0.721949 0.846883,0.697415 -5.080901,-0.253458 -5.716456,-0.353025 -5.716456,-0.891225 0,-0.411508 0.699207,-0.588976 1.657374,-0.550912 z m 36.932011,3.304706 c -0.52361,-0.185379 -1.701878,0.778304 -1.73677,1.420771 -0.0074,0.136439 0.51078,0.561836 1.15123,0.945399 0.64045,0.383564 1.42449,1.033887 1.74256,1.445189 0.40192,0.51974 0.7132,0.623882 1.02056,0.340312 0.51912,-0.478947 -1.23149,-3.816719 -2.17758,-4.151671 z m -18.466004,1.081217 c -0.168902,-0.0068 -0.103209,0.965042 0.260514,2.589741 0.293703,1.311922 0.682121,2.385248 0.862596,2.385248 0.36037,0 0.087,-1.811145 -0.578924,-3.835015 -0.256411,-0.779281 -0.442848,-1.135861 -0.544186,-1.139974 z m -16.119711,3.325306 c 0.646811,-0.08493 0.84911,0.147936 0.926278,1.063672 0.05432,0.644612 0.299385,2.138939 0.544185,3.320727 0.244796,1.181789 0.49507,2.584905 0.555767,3.117761 0.109285,0.959413 0.677975,1.258782 3.291594,1.735143 0.901959,0.164384 1.14966,0.538934 1.625121,2.456205 0.30854,1.244179 0.930469,3.042517 1.381972,3.996015 0.765459,1.616519 0.868457,1.690059 1.525053,1.084272 0.656596,-0.605786 0.594931,-0.85152 -0.914701,-3.632043 -1.309263,-2.411485 -1.506802,-3.04767 -1.032963,-3.324545 1.184691,-0.692235 3.722221,-0.131532 8.335668,1.840441 3.495507,1.494124 3.894503,1.567591 3.894503,0.716488 0,-0.84884 1.207387,-2.910977 1.704516,-2.910977 0.226914,0 0.41269,0.954033 0.41269,2.120472 0,2.250762 0.838274,3.585214 1.994806,3.175753 0.338355,-0.119793 0.790171,-0.217465 1.004017,-0.217465 0.213842,0 0.388706,-0.586265 0.388706,-1.302499 0,-1.528695 0.211408,-1.800764 1.21078,-1.559644 0.503031,0.121367 1.203479,1.446169 2.198252,4.157012 1.281596,3.49246 1.45024,4.40332 1.376184,7.447985 -0.09229,3.794326 -1.010597,8.153583 -2.232162,10.595503 -1.786794,3.57182 -2.188077,4.56853 -1.933606,4.8033 0.692517,0.63893 1.804626,-0.90503 3.30069,-4.58126 1.332405,-3.27407 1.689188,-4.75163 1.931125,-8.011102 0.316099,-4.25865 0.0064,-7.073083 -0.997403,-9.068669 -0.772327,-1.535344 -0.773695,-1.876015 -0.0091,-2.46155 0.686458,-0.525624 1.048356,0.418756 1.93939,5.059684 0.268149,1.396659 0.682283,3.017525 0.920493,3.602286 0.2382,0.58476 0.42614,2.606497 0.41682,4.492751 -0.0142,2.87037 -0.18502,3.71648 -1.046197,5.18787 -1.152916,1.96987 -4.678013,6.87585 -5.666833,7.88673 -0.700045,0.71566 -0.439849,1.48945 0.500355,1.48945 0.47688,0 4.239345,2.63429 6.397935,4.47901 0.26041,0.22255 1.77005,1.37133 3.35444,2.55311 1.58439,1.18179 3.18236,2.41242 3.55128,2.73472 0.36893,0.32231 2.16145,1.44208 3.983,2.48826 1.82153,1.04618 3.80145,2.32075 4.39982,2.83238 0.59837,0.51164 1.29854,0.93126 1.55564,0.93243 0.25711,0.001 1.03892,0.44864 1.7376,0.995 1.0114,0.7909 0.53672,0.65668 -2.32892,-0.65926 -5.40131,-2.48036 -10.31639,-5.6681 -17.408229,-11.2891 -3.515662,-2.78661 -6.533875,-5.06655 -6.706406,-5.06655 -0.633036,0 -1.860753,1.58391 -1.472119,1.89919 0.215744,0.17503 1.630579,1.1784 3.144381,2.22959 1.513803,1.05119 3.038191,2.19246 3.38753,2.53633 2.430843,2.39278 10.399703,8.0863 14.185273,10.13462 1.98025,1.0715 1.91565,0.97078 -0.63516,-0.98965 -2.42121,-1.86083 -1.65112,-1.63855 6.03569,1.74277 3.80896,1.6755 6.13799,2.50181 6.31936,2.2418 0.46895,-0.67229 2.46539,0.375 2.46539,1.29334 0,0.43435 -0.14291,0.78751 -0.31758,0.78516 -1.18735,-0.0158 -9.3757,-2.85791 -11.00947,-3.82128 -0.52401,-0.30899 -0.95274,-0.39832 -0.95274,-0.19915 0,0.5685 2.52777,2.14779 3.97885,2.48597 1.14613,0.26711 5.10954,1.66583 7.66578,2.70496 0.68349,0.27782 0.56095,0.3366 -0.63516,0.3075 -3.00416,-0.0731 -4.34199,-0.3802 -6.3053,-1.44824 -1.10512,-0.60117 -2.66373,-1.3796 -3.46362,-1.7298 -0.7999,-0.3502 -3.11224,-1.8238 -5.13836,-3.27494 -2.02612,-1.45114 -4.97936,-3.47278 -6.56251,-4.49199 -1.58315,-1.01921 -3.55461,-2.42564 -4.381622,-3.12539 -3.508617,-2.9687 -8.446254,-6.89763 -9.079176,-7.22442 -0.778941,-0.40218 -2.313822,-5.4201 -2.32479,-7.60059 -0.0071,-1.41001 -0.562782,-2.23923 -1.031312,-1.5398 -0.21808,0.32555 0.360798,5.86829 0.803052,7.68986 0.106953,0.44052 1.391271,1.71166 2.854091,2.82476 3.641332,2.77076 10.686427,9.08228 8.587917,7.69368 -0.931571,-0.61643 -2.756797,-1.96531 -4.055771,-2.9972 -1.298982,-1.0319 -2.529756,-1.8763 -2.735828,-1.8763 -0.769261,0 8.326259,8.00177 11.212089,9.86375 0.56818,0.36659 0.92389,0.76677 0.79065,0.8897 -0.13324,0.12293 -1.11247,-0.44422 -2.17675,-1.26054 -1.06429,-0.81631 -2.879229,-2.14305 -4.032619,-2.94836 -1.15339,-0.80532 -4.102751,-3.13735 -6.554243,-5.18254 -2.700377,-2.25282 -4.570086,-3.54962 -4.743862,-3.2902 -0.157762,0.2355 0.161991,0.71428 0.711245,1.06443 0.549267,0.35015 1.856528,1.404 2.904544,2.34175 l 1.905486,1.70539 -2.601847,-1.81831 -2.601847,-1.81755 -1.632565,0.96142 c -0.897818,0.52874 -2.108936,1.35063 -2.691168,1.82671 -1.69791,1.38837 -4.076515,2.35209 -5.805776,2.35243 -1.691368,3.4e-4 -7.573835,1.03283 -8.348076,1.46503 -0.24997,0.13954 0.06914,-0.38533 0.709595,-1.16592 1.530477,-1.86537 1.481866,-2.28871 -0.101724,-0.88894 -0.696247,0.61543 -1.374621,1.01857 -1.507683,0.89581 -0.133058,-0.12277 0.178662,-1.49982 0.692225,-3.05977 0.708887,-2.15325 0.822289,-3.00044 0.472238,-3.51759 -0.370795,-0.54779 -0.305559,-0.71858 0.334121,-0.87291 0.536644,-0.12948 0.882832,-0.68245 1.06274,-1.70004 0.146671,-0.8296 0.462029,-1.94789 0.701324,-2.48445 0.511788,-1.14754 2.051869,-7.64126 2.051869,-8.65205 0,-0.66093 -1.551857,-1.76763 -1.955934,-1.39482 -0.176994,0.16329 -1.758949,7.87793 -2.060143,10.04611 -0.07462,0.53718 -0.329552,1.7678 -0.565688,2.73472 -0.573754,2.34938 -0.782549,3.21846 -1.562269,6.48885 -0.761292,3.1931 -1.221988,3.86538 -2.894614,4.22492 -1.187795,0.25533 -1.20099,0.2378 -0.976727,-1.22314 1.189336,-7.74788 1.259048,-9.16419 0.752599,-15.23247 -0.712512,-8.53733 -2.942996,-16.964243 -5.019268,-18.963703 -1.010839,-0.973442 -1.040205,-1.079725 -0.300212,-1.085034 0.451135,-0.0031 1.582612,-0.250032 2.514182,-0.548624 1.345328,-0.431206 1.893837,-0.911989 2.666359,-2.33794 0.534929,-0.987401 1.106574,-1.795416 1.270323,-1.79542 0.163736,0 0.29773,3.594871 0.29773,7.988975 0,5.870516 0.140371,8.119246 0.529302,8.478076 0.423441,0.39069 0.53965,-0.36768 0.57975,-3.78999 0.02761,-2.352833 0.01465,-4.443661 -0.02812,-4.646882 -0.04276,-0.203216 -0.07079,-2.57656 -0.06202,-5.274096 0.0088,-2.697533 -0.178176,-6.926526 -0.415997,-9.397538 -0.237822,-2.471012 -0.420321,-4.976208 -0.405246,-5.567102 0.0293,-1.148526 -0.398674,-1.31636 -1.707827,-0.669943 -0.74402,0.367378 -0.761957,0.48458 -0.195177,1.28266 0.768397,1.081975 1.552437,5.911251 1.130554,6.963456 -0.304005,0.758212 -0.320545,0.758595 -1.041238,0.02364 -0.402912,-0.410762 -1.066843,-1.623089 -1.475425,-2.693512 -0.408579,-1.070423 -1.08246,-2.424627 -1.497759,-3.009408 -0.415298,-0.584776 -0.69598,-1.536633 -0.623584,-2.115131 0.124966,-0.99857 0.28155,-1.06609 3.095588,-1.333788 1.630248,-0.155086 3.33664,-0.330889 3.791949,-0.390674 z m 3.07243,0.187707 c 0.09977,-0.01184 0.235048,0.03028 0.41269,0.10072 0.422598,0.167544 2.035681,0.608833 3.584362,0.980501 3.842098,0.922057 4.873528,1.703451 5.145801,3.896819 0.120029,0.966918 0.141446,1.830412 0.04714,1.919033 -0.442911,0.416224 -2.243244,-0.803991 -2.366143,-1.6039 -0.07615,-0.495597 -0.423937,-0.901144 -0.773276,-0.901144 -1.006414,0 -0.571785,1.829991 0.675685,2.844594 l 1.09582,0.891225 -1.80624,-0.109877 c -2.063505,-0.125375 -2.867005,-0.702049 -3.21468,-2.30589 -0.134121,-0.61871 -0.508189,-1.124715 -0.831169,-1.124715 -0.448411,0 -0.52289,0.371441 -0.315099,1.570325 0.231935,1.338234 0.171866,1.534067 -0.406902,1.329209 -0.707752,-0.25057 -0.912439,-1.039907 -1.344756,-5.197032 -0.179827,-1.729216 -0.202536,-2.254332 0.09676,-2.289868 z m -8.296801,2.633997 c -0.232892,0 -0.540849,0.175803 -0.684785,0.390674 -0.143936,0.214871 -0.07079,0.390674 0.162098,0.390674 0.232893,0 0.540849,-0.175803 0.684785,-0.390674 0.143936,-0.214871 0.07079,-0.390674 -0.162098,-0.390674 z m 21.822105,5.989061 c 0.399864,-0.01629 0.792314,-0.01438 1.150405,0.0076 0.477455,0.02934 0.894668,0.09489 1.189273,0.199916 0.977272,0.348391 1.090911,0.551682 0.823728,1.473418 -0.170486,0.588132 -0.49023,1.114593 -0.710424,1.169732 -0.220194,0.05514 -1.706078,-0.356099 -3.302346,-0.913352 -2.14608,-0.749195 -2.733274,-1.100645 -2.253664,-1.348282 0.633985,-0.327338 1.903445,-0.540204 3.103028,-0.589062 z m 6.885056,1.974735 c 0.402879,0.02621 0.981346,0.881493 1.166119,1.932003 0.201545,1.14587 0.117386,1.433742 -0.419308,1.433742 -0.651833,0 -1.408112,-2.184921 -1.07018,-3.091816 0.07416,-0.199017 0.189075,-0.282672 0.323369,-0.273929 z m -20.46412,1.412376 c -0.329929,0 -0.685945,0.219754 -0.790641,0.488342 -0.185721,0.476462 0.03045,2.735631 0.354797,3.711402 0.08928,0.268588 0.358566,0.488342 0.598771,0.488342 0.251486,0 0.436674,-0.994246 0.436674,-2.344043 0,-1.761861 -0.148713,-2.344043 -0.599601,-2.344043 z m 26.345981,0.05952 c 0.792157,-0.17474 1.309267,0.59838 1.038756,1.552776 -0.358811,1.265916 -0.906355,1.208925 -1.289344,-0.133528 -0.285518,-1.000801 -0.230492,-1.313129 0.250588,-1.419248 z m 13.645224,0.695888 c -8.2e-4,0.0099 -0.0116,0.01587 -0.0116,0.02595 0,0.0089 0.009,0.01418 0.01,0.02289 2e-4,-0.01629 0.001,-0.03254 0.002,-0.04883 z m -25.658712,5.155061 c -0.602095,-0.0048 -1.344519,0.009 -2.281785,0.03356 -2.473129,0.06481 -4.257549,0.275081 -4.258395,0.502078 -8.47e-4,0.219094 1.812751,0.486249 4.130203,0.608139 2.272761,0.119542 4.682357,0.251395 5.354218,0.293005 l 1.221527,0.07554 -1.09582,-0.795084 C 86.677012,90.75574 86.137214,90.57812 84.330928,90.563817 Z m 0.500355,2.592027 c -1.009124,-0.03645 -2.164161,-0.005 -3.560378,0.07096 -4.425392,0.240729 -4.816279,0.328967 -5.971181,1.349809 -1.310614,1.158481 -3.162102,4.661962 -3.581885,6.778045 -0.313402,1.5798 -0.10282,1.60699 0.75508,0.0977 0.366395,-0.64462 0.947098,-1.665501 1.291,-2.26851 1.534801,-2.691172 3.337966,-4.07656 6.171325,-4.74226 3.327943,-0.781903 7.438096,-0.434551 8.447322,0.714198 0.624855,0.711241 5.561404,3.171174 6.364024,3.171174 0.992517,0 0.226173,-0.851216 -2.153596,-2.39135 -3.0153,-1.951439 -4.734335,-2.670423 -7.761711,-2.779738 z m -3.181597,3.295549 c -0.482101,-0.148265 -0.52995,0.268158 -0.267132,2.312758 0.176257,1.371167 0.481135,4.162967 0.67734,6.204237 0.196206,2.04127 0.616823,5.07388 0.935373,6.73912 0.318534,1.66525 0.470067,3.03071 0.336606,3.03383 -0.13346,0.003 0.0435,0.17628 0.39284,0.38457 1.163239,0.69357 1.369442,0.40589 1.048677,-1.46503 -0.174987,-1.02063 -0.81775,-5.26931 -1.427458,-9.44179 -0.79239,-5.422687 -1.276061,-7.638472 -1.696246,-7.767695 z m -34.953747,1.494784 c -0.157361,0.02691 -0.23405,0.154422 -0.23405,0.380755 0,0.21487 0.176209,0.390674 0.391186,0.390674 0.827894,0 2.789323,2.283112 2.888001,3.361172 0.749618,8.18941 0.210163,16.38262 -1.515123,23.00931 -1.092585,4.19645 -1.088974,4.13674 -0.230746,3.85638 0.65163,-0.21286 0.699893,-0.16484 0.266307,0.2663 -0.291116,0.28947 -0.529302,0.75458 -0.529302,1.03391 0,0.27933 0.245511,0.50818 0.545841,0.50818 0.926155,0 5.715135,-8.72229 5.784275,-10.53522 0.01969,-0.51608 -2.690724,3.05059 -3.086489,4.06164 -0.08999,0.22988 -0.314752,0.28792 -0.499529,0.12895 -0.184777,-0.15897 -0.0488,-1.917 0.301867,-3.90674 0.420375,-2.38525 0.613515,-5.9243 0.567343,-10.38872 -0.06793,-6.56836 -0.04784,-6.74387 0.68396,-5.86011 0.414913,0.50109 0.97012,1.43848 1.233107,2.08309 0.262986,0.64461 0.733116,1.78733 1.04537,2.53938 0.725787,1.74803 1.392106,4.67659 1.698728,7.46782 0.205386,1.86968 0.401265,2.26036 1.328212,2.65002 1.048872,0.44092 1.078229,0.41903 0.816284,-0.63027 -0.149373,-0.59835 -0.449216,-2.23081 -0.665763,-3.62746 -0.534984,-3.45044 -1.954224,-7.53767 -3.210544,-9.2457 -0.570922,-0.77619 -1.037926,-1.65349 -1.037926,-1.94879 0,-0.29529 -1.286203,-1.67503 -2.858228,-3.06664 -2.014484,-1.783271 -3.210698,-2.608644 -3.682781,-2.527931 z m -26.221926,4.299701 c 0.2626,-0.007 0.71492,0.2515 1.004846,0.5738 0.669372,0.74414 0.395948,0.7493 -0.659973,0.0122 -0.452075,-0.31547 -0.607472,-0.57917 -0.344873,-0.58601 z m 12.839696,0.84849 c 1.176387,0.008 2.100827,0.0474 2.488544,0.11446 1.396185,0.24166 1.407146,0.25982 1.100782,1.88088 -0.170154,0.90033 -0.423307,2.69153 -0.562383,3.98076 l -0.253072,2.34404 -5.504736,0.0763 c -3.027604,0.042 -7.470971,0.14586 -9.873953,0.23044 -4.358175,0.1534 -4.368561,0.15129 -4.129379,-0.72794 0.132283,-0.48627 0.03087,-0.94557 -0.226607,-1.02475 -0.53149,-0.16346 0.69395,-2.35945 2.497641,-4.4752 0.856832,-1.00508 1.394788,-1.30238 2.132093,-1.17813 0.553339,0.0933 1.077099,-0.0512 1.192582,-0.32887 0.232251,-0.5584 0.194991,-0.55401 7.136473,-0.82407 1.397147,-0.0544 2.825628,-0.0763 4.002015,-0.0679 z m 64.100891,12.0613 c 0.276647,-0.0648 1.057587,0.47801 2.548091,1.74353 1.128769,0.95839 1.983029,1.74277 1.898869,1.74277 -0.35682,0 -4.542273,-2.95599 -4.563572,-3.22306 -0.0122,-0.15249 0.02439,-0.24163 0.116612,-0.26324 z m 25.35437,0.26019 c 2.53262,0.0428 3.29986,0.67405 3.29986,2.71488 0,0.78165 -0.20925,1.28635 -0.5293,1.27732 -0.6629,-0.0187 -5.07841,-3.28802 -5.01761,-3.71522 0.0246,-0.17298 1.03584,-0.29745 2.24705,-0.27698 z m -9.91366,0.10072 c 0.242,0 0.50295,0.13412 0.58058,0.29759 0.19036,0.40083 5.73006,4.19712 9.77471,6.69868 1.80492,1.11631 3.28167,2.1959 3.28167,2.39974 0,0.70875 -0.66204,0.33692 -5.29301,-2.97431 -2.56182,-1.83174 -5.32799,-3.73856 -6.14652,-4.23713 -1.69729,-1.0338 -2.85459,-2.18457 -2.19743,-2.18457 z m -4.02021,0.0725 c 0.8328,-0.0906 1.75936,0.34844 3.50497,1.66037 1.3052,0.98093 2.51876,1.78321 2.69613,1.78321 0.17737,0 2.44299,1.39384 5.03498,3.09715 2.592,1.70332 5.11456,3.21432 5.60564,3.35812 0.6646,0.19461 0.83049,0.47634 0.64839,1.10259 -0.13456,0.46274 -0.2472,1.06138 -0.25059,1.32997 -0.008,0.68163 -0.30424,0.61459 -3.15265,-0.71573 -5.84881,-2.73163 -15.74364,-8.92326 -16.26113,-10.17507 -0.30929,-0.74817 1.2502,-0.27683 2.56131,0.77372 4.06194,3.2547 14.61264,9.19883 15.908,8.9626 0.67094,-0.12235 -1.76231,-1.66934 -5.34099,-3.3955 -1.82483,-0.8802 -5.55416,-3.17424 -8.93692,-5.4969 -2.8988,-1.99037 -3.05939,-2.17116 -2.01714,-2.28453 z m 6.7577,0.0664 c 0.0232,-0.0508 0.17504,-0.0136 0.46562,0.0893 0.38227,0.13534 0.6947,0.40328 0.6947,0.59517 0,0.50239 -0.24534,0.43145 -0.85515,-0.24646 -0.22374,-0.24873 -0.32843,-0.38723 -0.30517,-0.43798 z m -14.55497,0.31513 c 0.5559,-0.0725 1.12754,0.0363 1.27033,0.24188 0.14278,0.20558 1.6888,1.43684 3.43549,2.73548 1.7467,1.29864 3.74746,2.80923 4.44614,3.35735 0.69867,0.54812 1.05254,1.00329 0.7865,1.01102 -0.26603,0.008 -2.83844,-1.61244 -5.71645,-3.59999 -4.37776,-3.02328 -5.06758,-3.63543 -4.22201,-3.74574 z m 19.05816,1.8847 c 0.12183,-0.0297 0.70246,0.27197 1.83436,0.937 1.33377,0.78364 2.9058,1.59389 3.49339,1.8 0.65668,0.23035 1.06853,0.67895 1.06853,1.16516 0,0.43505 -0.0746,0.79126 -0.1654,0.79126 -0.3685,0 -5.18662,-3.45894 -5.9745,-4.28902 -0.23717,-0.24987 -0.32947,-0.38661 -0.25638,-0.4044 z m -14.21753,0.12589 c 0.0915,0.0148 0.3852,0.19604 0.9238,0.55015 0.69867,0.45937 1.93724,1.36818 2.75236,2.01976 0.81513,0.65157 1.38677,1.18681 1.27033,1.19033 -0.38605,0.0113 -4.01164,-2.56754 -4.65786,-3.3131 -0.2693,-0.31069 -0.3801,-0.46188 -0.28863,-0.44714 z m -16.533226,0.42349 c -0.117399,0.10832 0.332558,0.63066 0.999884,1.16058 1.58035,1.25493 1.911498,0.95008 0.385395,-0.35481 -0.644651,-0.55122 -1.267876,-0.91408 -1.385279,-0.80577 z m 7.506155,0.74777 c 0,-0.13148 1.095654,0.72386 2.434787,1.90073 1.339134,1.17685 4.054444,3.24407 6.034034,4.59346 1.97959,1.3494 3.66303,2.61107 3.74067,2.80339 0.211,0.52274 -0.0163,0.4172 -1.41174,-0.65392 -0.69868,-0.53629 -2.12303,-1.50265 -3.16506,-2.14794 -1.9116,-1.18379 -7.632691,-6.05281 -7.632691,-6.49572 z m 6.775061,0.77677 c 0,-0.1158 0.36891,0.031 0.81959,0.32582 2.21571,1.44935 6.84051,4.26246 8.91955,5.42594 1.28091,0.71683 2.71003,1.60395 3.17581,1.97092 0.46579,0.36697 1.29346,0.79239 1.83933,0.9454 0.54586,0.15301 1.78849,0.77373 2.76146,1.37957 0.97297,0.60583 2.57479,1.39908 3.55955,1.76261 0.98476,0.36353 1.79053,0.90585 1.79053,1.20483 0,1.34432 -1.9664,0.51113 -8.94519,-3.78771 -0.55297,-0.34062 -2.33952,-1.38925 -3.96977,-2.3303 -3.11281,-1.79687 -9.95086,-6.53635 -9.95086,-6.89708 z m 18.41969,0.4708 0.95274,0.74396 c 0.52401,0.40932 0.95274,0.80488 0.95274,0.87901 0,0.31264 -0.34107,0.0821 -1.09912,-0.74396 z m -62.109392,0.75311 c -0.290472,-0.11091 -1.508907,1.41564 -2.95003,3.73963 -0.732833,1.18179 -1.612015,2.54427 -1.954282,3.02773 -0.998492,1.41038 0.13263,1.02191 1.508509,-0.5181 1.344891,-1.50533 3.477337,-5.26204 3.461966,-6.09894 -0.0017,-0.0851 -0.02469,-0.13447 -0.06616,-0.15032 z m 27.309475,0.61424 c 0.55066,0 3.646426,2.42214 10.240328,8.01111 3.005869,2.54776 5.902729,4.76597 9.789599,7.49681 1.06209,0.74621 1.11012,0.85865 0.37299,0.86834 -0.46579,0.006 -1.52592,-0.55581 -2.35622,-1.24833 -0.83029,-0.69251 -2.54467,-2.05012 -3.80932,-3.01704 -1.26464,-0.96691 -3.824929,-2.99842 -5.689158,-4.51411 -1.86423,-1.51569 -4.675388,-3.68477 -6.247413,-4.82085 -2.795864,-2.02055 -3.421701,-2.77593 -2.300806,-2.77593 z m 24.069987,0.13201 c -0.009,-0.0511 0.20907,0.0423 0.64922,0.23883 0.51104,0.22816 1.04694,0.58976 1.1901,0.80348 0.41627,0.6214 -0.0401,0.45195 -1.11898,-0.4151 -0.47354,-0.38057 -0.71107,-0.57608 -0.72034,-0.62721 z m 14.51609,1.04002 c 0.36308,0 0.65997,0.1758 0.65997,0.39067 0,0.21487 -0.17948,0.39067 -0.39863,0.39067 -0.21915,0 -0.51604,-0.1758 -0.65997,-0.39067 -0.14394,-0.21487 0.0356,-0.39067 0.39863,-0.39067 z m -90.006063,0.39067 c -0.795342,0 -0.832189,0.19359 -0.625237,3.22306 0.121096,1.77268 0.232327,3.92627 0.24811,4.78575 0.02437,1.32727 0.09863,1.45195 0.492912,0.82561 0.472663,-0.75086 1.249819,-8.00726 0.914699,-8.54141 -0.101106,-0.16116 -0.565093,-0.29301 -1.030484,-0.29301 z m 50.712043,1.38338 c 1.40718,0.0333 3.617306,1.46283 6.822201,4.40195 1.333585,1.22299 2.934443,2.57509 3.557071,3.00483 3.407308,2.35176 4.385568,3.19155 4.438688,3.80907 0.0767,0.89134 -0.38303,0.86641 -1.30175,-0.0702 -0.406606,-0.41453 -1.387207,-1.03739 -2.179233,-1.38415 -0.865132,-0.37876 -1.544336,-1.01349 -1.701209,-1.59016 -0.143618,-0.52794 -0.496861,-0.9599 -0.784852,-0.9599 -0.287995,0 -0.840776,-0.3231 -1.228149,-0.71801 -0.387372,-0.39492 -2.633029,-1.92573 -4.990318,-3.40161 -4.07452,-2.55103 -4.231397,-2.70029 -3.18656,-3.02162 0.168818,-0.0519 0.353087,-0.075 0.554111,-0.0702 z m 32.82413,1.89767 c 0.13769,-0.0315 1.02882,0.33639 2.57787,1.12624 1.45558,0.7422 2.85596,1.27887 3.11213,1.19262 0.25616,-0.0863 0.70848,0.1131 1.00484,0.44256 1.11128,1.2354 -1.04138,0.56069 -4.75213,-1.48944 -1.46464,-0.80918 -2.0804,-1.24045 -1.94271,-1.27198 z m -34.933066,0.26859 c 0.551778,-0.14903 1.882425,0.31765 3.701803,1.32844 2.674315,1.48577 7.449919,5.1454 7.449919,5.70903 0,0.81433 -1.07997,0.2214 -3.25686,-1.78703 -2.238729,-2.06549 -6.215951,-4.50267 -7.347365,-4.50267 -0.302545,0 0.426185,0.65926 1.619332,1.46503 1.193147,0.80576 3.560374,2.57012 5.259931,3.92123 5.635295,4.47994 6.023045,4.77126 6.357411,4.77126 0.568935,0 0.374394,-0.32338 -0.938685,-1.56269 -2.623921,-2.47652 -0.581566,-1.9815 2.540647,0.61576 0.582233,0.48434 1.534973,0.9596 2.117203,1.05605 0.58223,0.0964 -0.38513,0.19888 -2.149456,0.22814 -2.949378,0.0489 -3.29057,-0.0284 -4.234412,-0.96524 -0.564604,-0.56039 -3.122383,-2.48561 -5.684202,-4.27757 -6.521752,-4.56187 -7.365599,-5.24733 -6.457478,-5.24968 0.407562,-0.001 0.741022,-0.17809 0.741022,-0.39296 0,-0.18905 0.09726,-0.30743 0.28119,-0.3571 z m 12.546101,0.89427 c 0.07675,-0.0312 0.182939,-0.0176 0.299385,0.0488 0.232893,0.1328 0.423442,0.31881 0.423442,0.41356 0,0.0948 -0.190549,0.17245 -0.423442,0.17245 -0.232892,0 -0.423441,-0.18601 -0.423441,-0.41356 0,-0.11378 0.04731,-0.19006 0.124056,-0.22129 z m 5.380675,0.38076 c 0,-0.32437 4.67132,2.56958 6.16719,3.82052 0.4808,0.40207 1.05438,0.73098 1.27446,0.73098 0.22009,0 0.6355,0.34749 0.92297,0.77219 0.28748,0.4247 1.33355,1.1517 2.32479,1.61535 0.99124,0.46365 1.91491,1.00443 2.0527,1.20178 0.13778,0.19735 0.84493,0.42793 1.57136,0.51276 0.72644,0.0848 1.82879,0.39956 2.44968,0.6997 0.73912,0.3573 0.92754,0.60317 0.54584,0.71191 -1.37608,0.39203 -3.58095,-0.19634 -5.60646,-1.49707 -2.73398,-1.75568 -11.70253,-8.32232 -11.70253,-8.56812 z m -19.748729,0.76759 c 0.342407,0.0283 1.359424,0.75464 4.013591,2.77974 1.709356,1.30421 4.07613,3.07472 5.25911,3.93421 1.182976,0.85948 2.22916,1.78244 2.325616,2.05103 0.439692,1.22437 -0.675249,0.50259 -5.782619,-3.74268 -1.724316,-1.43326 -3.772713,-3.02958 -4.551993,-3.54735 -0.779284,-0.51778 -1.416707,-1.09935 -1.416707,-1.29258 0,-0.12346 0.03887,-0.19179 0.153002,-0.18237 z m 15.726042,0.12895 1.482044,0.9393 c 0.815123,0.51647 2.815883,1.88742 4.446133,3.0468 1.63025,1.15937 3.96447,2.69974 5.18715,3.42297 1.22269,0.72322 2.22307,1.40529 2.22307,1.51539 0,1.05589 -9.57335,-5.05276 -12.279794,-7.8356 z m 49.330897,0.79814 -6.83791,0.24799 c -4.69286,0.17046 -7.05056,0.41051 -7.51609,0.76456 -0.37306,0.28373 -1.40628,0.85822 -2.29667,1.27732 -2.38467,1.12244 -2.70706,1.62796 -1.39024,2.18151 0.88724,0.37297 1.24353,0.35293 1.84263,-0.10453 1.98036,-1.51219 12.81075,-3.14362 12.81075,-1.92972 0,0.22036 0.71456,0.74894 1.5879,1.17431 2.09478,1.02029 1.57281,1.01677 -0.93372,-0.006 -2.85972,-1.1671 -2.83038,-0.65976 0.0546,0.94387 1.35709,0.75434 2.51468,1.3855 2.5729,1.40246 0.0582,0.017 0.10586,-0.56766 0.10586,-1.29869 0,-1.13622 -0.19975,-1.40182 -1.37618,-1.83052 l -1.37619,-0.50131 1.37619,-0.14803 c 1.15774,-0.12407 1.37618,-0.30825 1.37618,-1.16057 z m -65.318283,0.56922 c 0.07902,0.006 0.192247,0.0398 0.340739,0.0923 0.376096,0.13315 0.763541,0.24188 0.860941,0.24188 0.0974,0 0.176986,0.2535 0.176986,0.56312 0,1.01647 -0.712986,0.99557 -1.222357,-0.0359 -0.325321,-0.65876 -0.393372,-0.88059 -0.156309,-0.86147 z m 42.664183,0.34642 c 0.23289,0 0.70926,0.17017 1.0586,0.37847 0.34934,0.20829 0.44461,0.37846 0.21172,0.37846 -0.23289,0 -0.70926,-0.17017 -1.0586,-0.37846 -0.34934,-0.2083 -0.44462,-0.37847 -0.21172,-0.37847 z m -40.121054,1.55583 c 0.174669,0.003 1.741372,1.23374 3.481813,2.73471 3.020672,2.60508 3.798199,3.87052 1.009805,1.64358 -0.731986,-0.5846 -2.113462,-1.64426 -3.069948,-2.35472 -1.602581,-1.19037 -2.197677,-2.0374 -1.42167,-2.02357 z m -3.47685,0.60737 c 0.689434,0.15316 1.560228,0.57118 1.934431,0.92862 0.3742,0.35743 1.94285,1.34365 3.485946,2.19143 1.543092,0.84779 2.808508,1.67319 2.812742,1.83434 0.02359,0.93478 -2.380404,-0.12272 -5.692472,-2.50428 -2.886315,-2.07543 -3.494228,-2.66194 -2.540647,-2.45011 z m 25.867124,0.57152 c 0.2626,-0.007 0.71492,0.25149 1.00485,0.5738 0.66937,0.74413 0.39595,0.7493 -0.65997,0.0122 -0.45208,-0.31547 -0.60748,-0.57918 -0.34488,-0.58601 z m -71.481332,0.26859 c -0.297751,0.0306 -0.438749,0.16054 -0.539226,0.40212 -0.245065,0.58921 -1.951936,0.54101 -3.723305,-0.1053 -1.121651,-0.40925 -0.929135,0.71406 0.211721,1.23535 1.125462,0.51427 2.5973,0.64133 3.010402,0.26019 0.161418,-0.14892 3.242504,-0.23823 6.846184,-0.19838 5.316821,0.0588 6.551759,-0.0286 6.551759,-0.46469 0,-0.79833 -1.354517,-0.98742 -5.436091,-0.75846 -2.017339,0.11317 -4.466281,0.0338 -5.441881,-0.17626 -0.727367,-0.15657 -1.181812,-0.22515 -1.479563,-0.19457 z m 40.886059,0.11903 c 0.722306,-0.0185 5.782687,3.56338 5.541952,3.92276 -0.134684,0.20106 -0.376647,0.3586 -0.537571,0.35024 -0.456368,-0.0238 -5.420433,-4.26233 -5.004381,-4.273 z m 2.991379,0.47079 c 0.251482,-0.23202 5.742921,3.12426 5.742921,3.50996 0,0.50656 -0.705986,0.34843 -1.276112,-0.28537 -0.293216,-0.32597 -1.459517,-1.14666 -2.591926,-1.82366 -1.132408,-0.67699 -1.976293,-1.30736 -1.874883,-1.40093 z m -5.689991,0.3014 c 0.232893,0 0.423442,0.1758 0.423442,0.39067 0,0.21488 -0.190549,0.39068 -0.423442,0.39068 -0.232892,0 -0.423441,-0.1758 -0.423441,-0.39068 0,-0.21487 0.190549,-0.39067 0.423441,-0.39067 z m 61.187255,0.39067 c -0.63123,0 -0.9959,0.16823 -0.84689,0.39068 0.14394,0.21487 0.52504,0.39067 0.84689,0.39067 0.32184,0 0.70294,-0.1758 0.84688,-0.39067 0.14901,-0.22245 -0.21566,-0.39068 -0.84688,-0.39068 z m -25.49414,0.14651 c 0.0768,-0.0312 0.18294,-0.0176 0.29938,0.0488 0.2329,0.1328 0.42345,0.31881 0.42345,0.41356 0,0.0948 -0.19055,0.17245 -0.42345,0.17245 -0.23289,0 -0.42344,-0.18601 -0.42344,-0.41356 0,-0.11378 0.0473,-0.19006 0.12406,-0.22128 z m 30.80865,0.24112 c -1.02005,0.005 -0.004,0.61742 3.15431,1.90072 3.05787,1.24236 4.02269,1.45993 4.02269,0.90801 0,-0.36696 -6.25157,-2.8135 -7.177,-2.80873 z m -64.973404,0.0488 c 0.127904,-0.0787 0.628302,0.15286 1.435728,0.73557 0.582231,0.42018 1.380998,0.76817 1.774815,0.77295 0.393818,0.005 0.833616,0.1842 0.977552,0.39907 0.151262,0.22581 -0.251498,0.39067 -0.954398,0.39067 -0.798466,0 -1.634038,-0.40249 -2.433131,-1.17202 -0.683955,-0.65865 -0.928501,-1.04756 -0.800566,-1.12624 z m -16.480302,0.01 c 0.215591,0.0129 0.620016,0.21895 1.085898,0.61043 0.52309,0.43955 1.379822,1.00286 1.90383,1.25214 0.524008,0.24928 0.952743,0.62287 0.952743,0.83019 0,0.20731 -0.176165,0.37693 -0.391188,0.37693 -0.411813,0 -2.999407,-1.86318 -3.502485,-2.52183 -0.290993,-0.38098 -0.264384,-0.5608 -0.0488,-0.54786 z m 43.110776,0.20144 1.36378,0.86681 c 0.74986,0.47638 1.47548,1.03353 1.61272,1.23841 0.57459,0.85775 -0.58245,0.27946 -1.73264,-0.86605 z m -45.708486,0.53565 c 0.73476,0.0102 3.576092,2.01459 3.576092,2.5226 0,0.67926 -1.747524,-0.009 -2.964088,-1.16669 -1.213773,-1.15539 -1.30834,-1.3656 -0.612004,-1.35591 z m 17.464468,0.43188 c 0.203789,0.0132 0.525964,0.18616 0.821243,0.45858 0.660119,0.60904 0.661059,0.66079 0.0149,0.66079 -0.771908,0 -1.411664,-0.69291 -0.994922,-1.0774 0.03633,-0.0335 0.09086,-0.0464 0.158791,-0.042 z m 65.630078,0.17473 c -0.21018,-0.0126 -0.35072,0.0214 -0.4342,0.0984 -0.33389,0.30806 -0.17826,0.53236 0.5599,0.8073 0.56194,0.20929 2.4505,0.90869 4.1972,1.5543 3.31317,1.2246 3.81097,1.35655 3.81097,1.01102 0,-0.1146 -1.82417,-1.01636 -4.05329,-2.00373 -2.19616,-0.97277 -3.45006,-1.42964 -4.08058,-1.46732 z m -26.79506,0.73939 c 0.071,-0.0274 0.20773,-0.0102 0.39615,0.0565 0.36143,0.12796 0.65749,0.30165 0.65749,0.38609 0,0.31641 -0.80663,0.1385 -1.0553,-0.23272 -0.0742,-0.11073 -0.0699,-0.18246 0.002,-0.20983 z m 25.44699,0.87901 c -0.22676,-0.005 -0.38435,0.0429 -0.50366,0.1343 -0.93353,0.7148 -0.73341,1.06684 1.09334,1.92666 1.82642,0.85967 2.12748,0.70099 0.95274,-0.50208 -0.4405,-0.45112 0.89037,0.0302 3.28167,1.18728 4.53147,2.19259 4.665,2.23767 4.64048,1.56117 -0.01,-0.26859 -2.12153,-1.42089 -4.69259,-2.56074 -2.78565,-1.23501 -4.0917,-1.7304 -4.77198,-1.74659 z m -103.196419,0.19992 2.416592,0.7348 c 1.328787,0.40444 3.03293,0.73556 3.786987,0.73556 1.442374,0 1.884809,0.50695 1.884809,2.15787 0,1.25624 -0.392858,1.38734 -2.121341,0.70733 -1.607058,-0.63224 -4.647478,-0.77463 -11.217056,-0.5242 -3.59209,0.13693 -4.459224,0.048 -5.716456,-0.58754 l -1.482044,-0.7493 3.370161,-0.322 c 1.853491,-0.17683 4.654305,-0.73316 6.224255,-1.23688 z m 100.531719,2.4211 c -0.86013,0.30452 -0.65906,0.92113 0.39615,1.21476 1.0779,0.29995 2.79946,0.94081 4.97543,1.85188 1.34309,0.56235 2.9409,0.8933 2.50509,0.51887 -0.86183,-0.74045 -7.44652,-3.73779 -7.87667,-3.58551 z m 6.40537,0.69971 c -0.29113,0.2686 3.05817,2.25629 3.80188,2.25629 0.34059,0 0.73685,0.17581 0.88079,0.39068 0.30536,0.45585 1.05906,0.52551 1.05694,0.0977 -0.002,-0.37866 -5.46998,-2.9934 -5.73961,-2.74463 z m -77.370638,2.6668 c -0.202396,0 -0.259887,0.12362 -0.09428,0.37084 0.143936,0.21487 0.583735,0.38786 0.977552,0.38457 0.617068,-0.005 0.628429,-0.0582 0.08105,-0.38457 -0.41463,-0.24722 -0.761928,-0.37084 -0.96432,-0.37084 z m 82.418028,3.17957 c -0.36368,0.0289 -0.76063,0.24005 -0.89402,0.60967 -0.10337,0.28643 0.18802,0.48834 0.70546,0.48834 0.52012,0 0.88244,-0.25261 0.88244,-0.61501 0,-0.359 -0.3302,-0.51193 -0.69388,-0.483 z" />
    <g
       aria-label="XXVI"
       id="text1087"
       style="font-size:40px;line-height:1.25;font-family:Hultog;-inkscape-font-specification:Hultog"
       transform="matrix(0.42344118,0,0,0.39067383,5.3880935,1.0491611)">
      <path
         d="m 245.85449,86.827125 q -0.51376,2.715597 -1.54128,2.422019 l -3.57187,-1.003058 q -4.30581,0 -4.89297,1.247706 l -1.6636,-1.174312 q 0.95412,-2.07951 2.17737,-2.07951 0.29357,0 0.56269,0.09786 0.24465,-0.220184 0.24465,-0.562691 0,-0.513762 -0.53823,-1.394496 -1.71254,-1.223241 -4.50153,-6.776758 h -0.17125 q -0.51377,-0.02446 -0.75841,0.464832 -2.49542,5.333333 -4.4526,7.168195 l 0.19572,0.880734 q 2.2263,0.293578 2.2263,1.810398 0,0.611621 -0.41591,1.590214 -0.9052,-0.70948 -1.78593,-0.880734 -0.36697,-0.04893 -1.98165,-0.04893 -3.08257,0 -4.52599,0.733945 l -1.05199,-0.587156 v -1.932721 l 2.88685,-0.733945 q 0.68501,-0.171254 6.94801,-9.174312 1.24771,-0.391438 1.24771,-1.174312 0,-0.782875 -0.9052,-1.492355 -1.24771,-1.027523 -1.37003,-1.198777 -0.78288,-1.076452 -2.10398,-3.400611 -1.3211,-2.324159 -2.07951,-3.376147 0,0 -1.83486,-1.639144 l -3.27829,-0.733945 0.97859,-2.103975 5.3578,0.685015 3.00918,-0.685015 1.37003,0.464832 v 1.663608 q -1.68808,0.318043 -1.66361,1.370031 v 0.171253 l 4.64832,6.874618 0.75841,-0.195718 q 0.92966,-3.571866 3.474,-5.993884 v -1.247707 l -1.88379,-0.685015 -0.4159,-1.859327 1.05199,-0.538226 3.91437,0.66055 q 1.66361,-0.587156 2.88685,-0.587156 1.49235,0 1.8104,1.003058 -0.80734,2.152905 -3.18043,2.152905 -1.85933,2.422019 -3.71866,4.844037 -2.78899,3.743119 -3.10703,4.892966 1.54128,1.761468 4.40367,5.333334 0.4893,1.076452 1.61468,3.058104 0.95413,1.003058 2.78899,2.93578 z"
         id="path1565" />
      <path
         d="m 273.25508,86.827125 q -0.51376,2.715597 -1.54129,2.422019 l -3.57186,-1.003058 q -4.30581,0 -4.89297,1.247706 l -1.66361,-1.174312 q 0.95413,-2.07951 2.17737,-2.07951 0.29358,0 0.5627,0.09786 0.24464,-0.220184 0.24464,-0.562691 0,-0.513762 -0.53822,-1.394496 -1.71254,-1.223241 -4.50153,-6.776758 h -0.17126 q -0.51376,-0.02446 -0.7584,0.464832 -2.49542,5.333333 -4.4526,7.168195 l 0.19571,0.880734 q 2.2263,0.293578 2.2263,1.810398 0,0.611621 -0.4159,1.590214 -0.9052,-0.70948 -1.78593,-0.880734 -0.36697,-0.04893 -1.98165,-0.04893 -3.08257,0 -4.526,0.733945 l -1.05198,-0.587156 v -1.932721 l 2.88685,-0.733945 q 0.68501,-0.171254 6.94801,-9.174312 1.24771,-0.391438 1.24771,-1.174312 0,-0.782875 -0.9052,-1.492355 -1.24771,-1.027523 -1.37003,-1.198777 -0.78288,-1.076452 -2.10398,-3.400611 -1.3211,-2.324159 -2.07951,-3.376147 0,0 -1.83486,-1.639144 l -3.27829,-0.733945 0.97859,-2.103975 5.3578,0.685015 3.00918,-0.685015 1.37003,0.464832 v 1.663608 q -1.68808,0.318043 -1.66361,1.370031 v 0.171253 l 4.64832,6.874618 0.75841,-0.195718 q 0.92966,-3.571866 3.474,-5.993884 v -1.247707 l -1.88379,-0.685015 -0.4159,-1.859327 1.05198,-0.538226 3.91438,0.66055 q 1.66361,-0.587156 2.88685,-0.587156 1.49235,0 1.8104,1.003058 -0.80734,2.152905 -3.18043,2.152905 -1.85933,2.422019 -3.71866,4.844037 -2.78899,3.743119 -3.10703,4.892966 1.54128,1.761468 4.40367,5.333334 0.4893,1.076452 1.61468,3.058104 0.95413,1.003058 2.78899,2.93578 z"
         id="path1567" />
      <path
         d="m 301.78105,62.435688 -0.4159,1.737003 -2.6422,1.443425 q -2.81346,7.241591 -3.74312,9.51682 -3.03364,7.363914 -4.28135,8.978593 l -1.68807,5.7737 q -2.2263,0 -2.66667,-1.712538 l -0.95413,-3.743119 -0.97859,-1.370031 -0.31804,-2.055045 q -0.0245,-0.04893 -1.59022,-3.03364 -1.02752,-1.957186 -0.97859,-3.180428 -0.66055,-1.027523 -1.95719,-3.082569 -0.19572,-0.562691 -0.53822,-1.614678 -0.95413,-2.593273 -1.8104,-3.865444 -1.3211,-1.957186 -3.08257,-1.859327 -0.0979,-0.513762 -0.0979,-1.027523 0,-1.443425 1.3945,-1.908257 l 3.57186,1.370031 3.6208,-1.027523 1.29663,0.880734 q 0.0489,0.269113 0.0489,0.342507 0,1.198777 -2.20183,2.201835 0.34251,1.321101 1.17431,3.767584 1.51682,2.837921 4.20795,8.611621 0,0 0.95413,4.159021 l 0.75841,1.027523 q 0.70948,-0.244648 0.70948,-0.587156 v -2.12844 l 6.263,-14.776758 q 0,-0.318043 -1.68808,-1.418961 -0.0979,-0.415902 -0.0979,-0.831804 0,-0.513761 0.29358,-0.905199 0.31804,-0.391437 0.83181,-0.293578 l 3.13149,0.636086 q 1.07646,-0.70948 1.93273,-0.70948 0.85627,0 1.54128,0.685015 z"
         id="path1569" />
      <path
         d="m 314.84528,87.291957 q -0.4159,2.470948 -1.46789,2.2263 l -4.526,-1.027523 q 0,0 -3.32721,0.318043 -0.95413,0.66055 -1.66361,0.66055 -1.00306,0 -1.56575,-1.46789 l 1.24771,-1.810397 q 0.58715,0.195719 1.22324,0.195719 2.10397,0 2.10397,-3.400612 0,-0.660551 -0.0979,-1.981651 -0.0979,-1.321101 -0.0979,-1.981652 0,-1.932722 0.0979,-5.82263 0.0979,-3.889908 0.0979,-5.82263 0,-1.663608 -0.97859,-2.617737 -0.66055,0.244649 -1.3211,0.244649 -1.14985,0 -1.93272,-0.929664 0.4159,-2.446483 1.44342,-2.2263 l 4.47707,0.978593 4.25688,-1.027522 1.76146,0.905198 -0.51376,1.761468 q -0.48929,-0.122324 -0.8318,-0.122324 -2.25077,0 -2.25077,3.840979 0,0.391437 0.0245,1.027523 0.0245,0.61162 0.0245,0.831804 0,1.614679 -0.0979,15.437309 l 1.02753,1.100917 q 0.66055,-0.220183 1.19877,-0.220183 1.07646,0 1.68808,0.929663 z"
         id="path1571" />
    </g>
  </g>
</svg>
