<?xml version="1.0" encoding="UTF-8" standalone="no"?>
<!-- Created with Inkscape (http://www.inkscape.org/) -->

<svg
   version="1.1"
   id="svg2"
   width="4cm"
   height="4cm"
   viewBox="0 0 151.1811 151.1811"
   sodipodi:docname="29.svg"
   inkscape:version="1.1.2 (0a00cf5339, 2022-02-04)"
   xmlns:inkscape="http://www.inkscape.org/namespaces/inkscape"
   xmlns:sodipodi="http://sodipodi.sourceforge.net/DTD/sodipodi-0.dtd"
   xmlns="http://www.w3.org/2000/svg"
   xmlns:svg="http://www.w3.org/2000/svg">
  <defs
     id="defs6" />
  <sodipodi:namedview
     id="namedview4"
     pagecolor="#505050"
     bordercolor="#eeeeee"
     borderopacity="1"
     inkscape:pageshadow="0"
     inkscape:pageopacity="0"
     inkscape:pagecheckerboard="0"
     showgrid="false"
     inkscape:zoom="2.9422988"
     inkscape:cx="33.30729"
     inkscape:cy="61.346591"
     inkscape:window-width="1920"
     inkscape:window-height="1043"
     inkscape:window-x="0"
     inkscape:window-y="0"
     inkscape:window-maximized="1"
     inkscape:current-layer="g8"
     units="cm"
     inkscape:document-units="cm" />
  <!-- Border -->
    <rect
       x="0"
       y="0"
       width="4cm"
       height="4cm"
       class="board-border"
       stroke-width="0.1cm"
       id="border"
       fill="none"
       stroke="#000000" />
  <g
     inkscape:groupmode="layer"
     inkscape:label="Image"
     id="g8">
    <path
       id="path32"
       style="fill:#000000;stroke-width:0.405842"
       d="M 3.0939798,3.411125 C 1.9205645,3.452607 1.5855339,3.572539 1.5856109,3.7889448 c 1.485e-4,0.4173757 1.1023444,0.5141605 5.6234337,0.4937916 3.0927864,-0.013934 6.7150424,0.1265084 8.0492294,0.3114462 1.334186,0.1849377 3.318929,0.4247145 4.410536,0.5331782 1.091607,0.1084637 2.077151,0.2713048 2.190624,0.3617735 0.179596,0.1431881 1.680904,-0.00939 4.326977,-0.4398175 0.418105,-0.068012 1.603298,-0.1367258 2.634261,-0.1524406 1.030963,-0.015715 1.874477,-0.1719599 1.874477,-0.347186 0,-0.3163737 -5.618776,-0.5951983 -21.0603097,-1.0452044 C 6.2793793,3.4066992 4.267395,3.3696426 3.0939798,3.411125 Z M 138.37167,3.4330064 c -0.0253,0.0021 -0.0464,0.00788 -0.0318,0.00949 0.0298,0.00328 0.0598,0.00419 0.0897,0.0073 -3.1e-4,-0.00195 -3.1e-4,-0.00315 -8.8e-4,-0.0051 -0.002,-0.012352 -0.0317,-0.01376 -0.0568,-0.01167 z M 99.239358,3.7109009 c -0.08449,-0.017179 -0.187487,0.00928 -0.311838,0.093361 0.144056,-0.011639 0.288617,-0.021147 0.433304,-0.026258 -0.03554,-0.03308 -0.07507,-0.05766 -0.121466,-0.067103 z M 32.459364,4.5066567 c -1.157564,0 -1.378206,0.090316 -0.882107,0.3617735 0.36387,0.1991037 0.760818,0.3617735 0.882107,0.3617735 0.12129,0 0.518238,-0.1626698 0.882107,-0.3617735 0.4961,-0.2714577 0.275457,-0.3617735 -0.882107,-0.3617735 z m 11.246867,0.3916781 c -2.356006,6.611e-4 -3.217951,0.1230069 -2.501601,0.3661498 0.883173,0.2997662 3.810089,0.417422 6.912137,0.2778946 1.356796,-0.061028 12.100258,0.4834611 13.167863,0.6673845 0.520113,0.089604 2.888888,0.2233931 5.264218,0.2975879 2.375329,0.074194 4.393529,0.1980151 4.484616,0.2749769 0.282534,0.2387152 8.528181,0.1534527 8.817626,-0.091172 C 80.128001,6.4571262 74.768781,6.0673651 67.523127,5.7947454 65.339911,5.7126012 59.782636,5.4719974 55.173625,5.2601084 49.91253,5.018241 46.062238,4.8976736 43.706231,4.8983348 Z m -8.196533,0.016047 c -0.153221,-0.00535 -0.327516,0.01827 -0.486709,0.072209 -0.351844,0.1192131 -0.24762,0.2081892 0.266183,0.2261085 0.464944,0.016216 0.72544,-0.072112 0.578882,-0.1962039 -0.07327,-0.062046 -0.205136,-0.096769 -0.358356,-0.1021136 z m 3.087376,0 c -0.153221,-0.00535 -0.327517,0.01827 -0.486711,0.072209 -0.351842,0.1192131 -0.247618,0.2081892 0.266183,0.2261085 0.464944,0.016216 0.725442,-0.072112 0.578884,-0.1962039 -0.07327,-0.062046 -0.205137,-0.096769 -0.358356,-0.1021136 z M 81.300883,6.481094 c -0.503653,0.032252 -0.766675,0.1117069 -0.766675,0.2377784 0,0.2178261 1.022076,0.4027045 2.315532,0.4186654 1.273542,0.015715 2.712479,0.095725 3.197638,0.1772396 0.847096,0.1423258 4.334287,0.4210995 8.665151,0.6936423 1.127215,0.070936 2.259782,0.2392393 2.516247,0.3734438 0.256458,0.1342046 0.943175,0.1421836 1.526455,0.018235 0.583285,-0.1239533 2.627169,-0.035047 4.541469,0.1969332 1.91432,0.2319791 5.26646,0.494907 7.44968,0.584235 9.22922,0.3776221 12.14175,0.540477 16.31898,0.9139153 2.42579,0.216863 7.6631,0.468416 11.63796,0.559437 3.97485,0.09102 7.33456,0.257021 7.46603,0.368338 0.35398,0.29971 3.60853,0.05372 3.6094,-0.27279 3.7e-4,-0.154045 -0.54494,-0.306283 -1.21203,-0.338433 -1.46938,-0.07081 -2.23852,-0.13189 -7.60818,-0.6017399 -2.3045,-0.2016464 -6.76098,-0.3989672 -9.90303,-0.4383585 -3.14204,-0.039391 -5.82144,-0.1283074 -5.95422,-0.1976625 -0.13281,-0.069361 -3.01984,-0.2332159 -6.41595,-0.3639622 C 115.28922,8.6792621 111.91517,8.4951616 111.18742,8.400827 110.45969,8.3064927 104.6047,7.8918862 98.176353,7.4788883 91.747996,7.0658915 85.148732,6.6381227 83.51132,6.5285036 82.548818,6.4640672 81.804534,6.4488417 81.300883,6.481094 Z m 65.418067,5.168401 c -0.13292,-0.01473 -0.24509,0.0019 -0.30581,0.05324 -0.12144,0.102826 -0.31512,2.094041 -0.42985,4.425161 -0.11475,2.331119 -0.31506,4.490514 -0.44537,4.798603 -0.13031,0.308092 -0.40506,5.853729 -0.61075,12.32364 -0.20569,6.469908 -0.47656,14.116167 -0.60128,16.991683 -0.12471,2.875516 -0.3479,8.085053 -0.49618,11.576751 -0.14829,3.491696 -0.35076,8.24581 -0.44969,10.564367 -0.30906,7.245225 -0.28709,38.62919 0.0284,40.73379 0.2525,1.6848 0.19904,1.95222 -0.33339,1.6805 -3.79367,-1.93616 -7.39026,-4.06265 -7.03877,-4.16186 0.24157,-0.0682 1.66665,0.40045 3.16663,1.04156 1.49997,0.64113 2.82961,1.07894 2.95472,0.973 0.12511,-0.10594 -1.28445,-0.82613 -3.13217,-1.60026 -1.84784,-0.77413 -3.35961,-1.53837 -3.35961,-1.69873 0,-0.16035 1.10313,-0.29176 2.45164,-0.29176 1.3485,0 2.34232,-0.14956 2.20872,-0.3326 -0.24775,-0.33942 -10.78706,-0.20625 -11.19778,0.14151 -0.12411,0.10509 0.1381,0.19109 0.58233,0.19109 1.6082,0 12.25808,5.43423 13.7838,7.03343 0.30323,0.31783 0.55131,1.30343 0.55131,2.18961 v 1.61121 l -3.85922,-1.7177 c -2.12257,-0.94465 -4.15693,-1.92568 -4.5208,-2.18012 -0.36386,-0.25445 -1.45547,-0.76678 -2.42579,-1.13857 -4.26203,-1.63302 -10.36475,-4.91366 -10.36475,-5.57174 0,-0.39602 3.40024,0.63446 8.34383,2.52876 3.0124,1.1543 5.55862,2.03003 5.65789,1.94599 0.18837,-0.15949 -5.03864,-2.82791 -7.08787,-3.61847 -0.64928,-0.25048 -1.18017,-0.68036 -1.18017,-0.95549 0,-0.28896 -0.51223,-0.51393 -1.21289,-0.53244 -6.86799,-0.18144 -8.48712,-0.18145 -8.46789,0.004 0.0123,0.11818 2.40577,1.39151 5.31849,2.82927 2.9127,1.43776 5.92935,2.94394 6.70367,3.34713 4.09909,2.13439 8.88977,4.29555 10.83424,4.88759 l 2.19666,0.66885 0.14299,2.77602 c 0.0784,1.52653 0.0229,2.93781 -0.12318,3.13635 -0.15045,0.20442 -0.99059,-0.0553 -1.93651,-0.59883 -0.91869,-0.52848 -1.90939,-0.95995 -2.20181,-0.95995 -0.29242,0 -0.89099,-0.3361 -1.33006,-0.74689 -0.43907,-0.41078 -0.97977,-0.74689 -1.2017,-0.74689 -0.22192,0 -1.23346,-0.47604 -2.24748,-1.0576 -1.01402,-0.58156 -3.33201,-1.763 -5.15136,-2.62577 -3.48625,-1.65328 -6.3617,-3.17535 -13.23162,-7.0028 -2.3045,-1.28392 -4.78542,-2.53202 -5.51317,-2.77384 -1.20024,-0.39882 -1.24137,-0.46508 -0.44277,-0.71552 1.24462,-0.3903 4.6281,-0.006 5.46923,0.62143 2.86851,2.13986 15.16491,7.97268 15.75476,7.47325 0.11037,-0.0935 -0.45202,-0.43294 -1.24908,-0.75419 -1.66347,-0.67042 -9.673,-5.01386 -11.48635,-6.22892 -0.66902,-0.44828 -1.11308,-0.9569 -0.98634,-1.13054 0.33887,-0.46425 -1.05759,-0.74727 -4.47084,-0.90589 -1.66619,-0.0774 -3.36375,-0.25453 -3.77222,-0.39314 -0.74126,-0.25156 -2.07906,-2.99367 -2.17511,-4.45871 -0.028,-0.42554 -0.19976,-0.12055 -0.38161,0.6776 -0.38021,1.66865 0.18898,3.5915 1.58245,5.35073 0.52294,0.66022 1.08495,1.9626 1.24994,2.8942 0.18656,1.05332 0.52683,1.69363 0.89934,1.69363 0.4747,0 0.50792,-0.27849 0.16108,-1.34207 -0.24072,-0.73814 -0.3583,-1.40921 -0.26187,-1.49085 0.0964,-0.0816 1.45031,0.59781 3.00898,1.50981 5.30534,3.10424 11.56322,6.31679 17.95398,9.2172 1.28113,0.58144 3.06398,1.47981 3.96173,1.99633 0.89776,0.51652 1.854,0.93944 2.12516,0.93944 0.27115,0 1.26851,0.47545 2.21647,1.05687 0.94795,0.58143 2.26795,1.17298 2.93317,1.31435 0.66521,0.14136 1.20946,0.4319 1.20946,0.6455 0,0.21363 0.15352,0.30823 0.34112,0.21007 0.18761,-0.0982 1.32883,0.2264 2.53606,0.72136 2.51474,1.03102 2.41545,1.00627 2.41545,0.59226 0,-0.4465 -4.22065,-2.33579 -4.56559,-2.04373 -0.15727,0.13315 -0.286,-0.20647 -0.286,-0.75418 0,-1.22052 0.72115,-1.2717 2.86083,-0.20277 0.87325,0.43625 1.68417,0.71181 1.80212,0.61194 0.11794,-0.0999 -0.88273,-0.66652 -2.22336,-1.25964 -2.59929,-1.14999 -2.8381,-1.4131 -1.75043,-1.92848 0.62522,-0.29626 0.62522,-0.37173 0,-0.81108 -0.74296,-0.52207 -0.94837,-1.8869 -0.28427,-1.8869 0.22246,0 1.33001,0.33605 2.46196,0.74689 2.82643,1.02582 2.37393,0.0996 -0.547,-1.11961 l -2.238,-0.93434 0.12748,-1.86721 c 0.0702,-1.02698 0.15142,-2.24954 0.18004,-2.71695 0.0492,-0.80283 0.11879,-0.82103 1.26459,-0.32749 1.8484,0.79618 3.19763,1.08303 3.19763,0.67977 0,-0.1986 -0.97585,-0.65808 -2.16822,-1.02113 -1.61001,-0.4902 -2.21855,-0.88471 -2.36463,-1.5317 -0.23077,-1.02212 0.0513,-1.06209 2.17512,-0.31072 1.8294,0.64721 2.35773,0.69571 2.35773,0.21736 0,-0.48092 -3.79965,-1.65729 -4.37694,-1.35519 -0.26122,0.13671 -0.47465,-0.004 -0.47465,-0.31218 0,-0.89891 0.64593,-1.00207 2.81517,-0.4493 1.11981,0.28535 2.03642,0.37431 2.03642,0.19694 0,-0.17738 -0.84177,-0.51462 -1.87016,-0.74908 -1.02839,-0.23447 -2.3133,-0.8019 -2.85565,-1.2611 -1.09779,-0.92951 -1.07312,1.06315 -0.32218,-25.97621 0.14546,-5.237546 0.32951,-14.06015 0.40832,-19.605788 0.0858,-6.043299 0.41504,-11.953197 0.82267,-14.751022 0.57979,-3.97946 1.46494,-20.620618 1.28095,-24.087111 -0.0326,-0.616182 0.1408,-2.000442 0.38592,-3.075804 0.24513,-1.075363 0.28628,-2.167686 0.0913,-2.427384 -0.19497,-0.259698 -0.28887,-1.922834 -0.20847,-3.695778 0.0983,-2.167507 -0.0214,-3.311205 -0.36611,-3.491551 -0.14095,-0.07375 -0.29435,-0.119479 -0.42727,-0.134207 z m -74.993755,0.314364 c -2.350592,0 -4.277578,0.718038 -6.18681,2.304846 -0.849028,0.705648 -2.229526,1.571853 -3.067563,1.925569 -1.522464,0.642596 -1.523995,0.642499 -2.483511,-0.393137 -2.981937,-3.218496 -3.476354,-3.373252 -2.143243,-0.671761 0.910524,1.845139 2.678149,3.183023 4.205512,3.183023 0.683969,0 1.785638,0.411076 2.471454,0.921939 1.360663,1.013559 2.064188,1.199715 1.806423,0.478474 -0.09176,-0.256742 -0.99414,-0.802903 -2.005414,-1.213692 -2.173754,-0.882995 -2.433954,-1.680496 -0.547872,-1.680496 0.814343,0 1.32316,-0.19341 1.32316,-0.502544 0,-0.276256 0.385596,-0.797671 0.857127,-1.158987 0.817095,-0.626108 0.952626,-0.625895 2.877187,-0.0037 1.110639,0.359138 2.13836,0.551173 2.284517,0.427418 0.14616,-0.123755 -0.567845,-0.507455 -1.586758,-0.852647 -1.631307,-0.552638 -1.77442,-0.692999 -1.202559,-1.177197 0.357179,-0.30243 1.567214,-0.637603 2.689391,-0.744699 2.592055,-0.247285 3.09291,-0.842423 0.708959,-0.842423 z m -16.388759,0.29394 c -1.108443,-0.08004 -2.918695,0.193073 -3.276027,0.606845 -0.257982,0.298729 -1.33522,0.5965 -2.393065,0.66155 -2.105334,0.129464 -2.830175,0.835486 -1.284391,1.250891 1.472765,0.395783 5.868761,3.540697 6.195422,4.432454 0.58597,1.599634 0.412892,2.83728 -0.397121,2.839484 -1.839854,0.0049 -4.366553,0.913149 -5.71302,2.053211 -2.734528,2.315345 -1.761585,5.065654 3.400933,9.613983 1.690573,1.489443 3.187928,3.000984 3.327715,3.358805 0.231725,0.593154 0.366525,0.601891 1.521291,0.09628 0.696614,-0.305013 1.418155,-0.762897 1.603989,-1.017488 0.472439,-0.647242 0.526719,-1.783338 0.08528,-1.783338 -0.202038,0 -0.366971,0.252073 -0.366971,0.560164 0,0.308092 -0.198473,0.560165 -0.441052,0.560165 -0.24258,0 -0.441054,-0.158636 -0.441054,-0.35229 0,-0.558008 -1.848381,-3.061438 -2.101894,-2.846778 -0.125798,0.106503 -0.02029,0.407867 0.23517,0.669572 0.25544,0.261707 0.594527,1.147756 0.752891,1.969331 l 0.287717,1.493775 -0.938958,-0.912456 c -0.537072,-0.521584 -0.846289,-1.213505 -0.721882,-1.616312 0.152882,-0.495013 0.0325,-0.644369 -0.404014,-0.502544 -0.360927,0.117269 -1.52515,-0.535665 -2.778982,-1.55796 -1.770883,-1.443859 -2.248673,-2.12068 -2.663549,-3.773822 -0.419785,-1.672697 -0.394209,-2.157914 0.149028,-2.859906 0.523195,-0.676099 2.937598,-2.034248 3.616295,-2.034248 0.08115,0 0.274696,0.67567 0.430715,1.501798 0.271986,1.440143 0.837168,2.163471 1.350727,1.728636 0.218643,-0.185126 -0.08361,-1.111252 -0.963944,-2.950351 -0.256372,-0.535591 -0.07523,-0.653526 1.003568,-0.653526 2.084821,0 2.532918,-0.779459 1.616912,-2.81031 -0.523942,-1.161614 -1.532948,-2.263661 -3.129585,-3.418613 -1.295903,-0.93741 -2.356019,-1.851614 -2.356019,-2.032057 0,-0.180446 0.606947,-0.328223 1.349002,-0.328223 0.742054,0 1.232974,-0.159391 1.090575,-0.35448 -0.327566,-0.448766 1.161383,-1.139293 2.456805,-1.139293 0.541535,0 0.853223,-0.111249 0.692597,-0.24726 -0.133497,-0.113035 -0.425624,-0.17901 -0.795104,-0.205691 z m 21.313572,0.197663 c -0.297681,0.136473 2.197073,0.922758 6.861312,2.131254 3.456758,0.895638 6.285014,1.763936 6.285014,1.929944 0,0.166008 -0.218423,0.301964 -0.484987,0.301964 -0.266564,0 -1.16828,0.274833 -2.003693,0.610493 -1.093668,0.439425 -2.147129,0.5473 -3.764459,0.385114 -2.311311,-0.231777 -2.427479,-0.113596 -0.701209,0.716983 1.120492,0.539113 1.719487,0.490674 5.190133,-0.420854 1.334187,-0.35041 3.26931,-0.717423 4.300272,-0.81545 1.211933,-0.115232 1.874479,-0.363076 1.874479,-0.700935 0,-0.287408 -0.248092,-0.543892 -0.551317,-0.570377 -0.303224,-0.02648 -1.047502,-0.08355 -1.65395,-0.126913 -1.02393,-0.07323 -6.711258,-1.456077 -10.805815,-2.627233 -0.970318,-0.277537 -2.452672,-0.603562 -3.294119,-0.725006 -0.742787,-0.107205 -1.152438,-0.134475 -1.251661,-0.08899 z m -1.8271,1.789903 c -0.342929,0.003 -0.289137,0.176733 0.418657,0.51932 0.606448,0.293534 1.499582,0.525805 1.984741,0.516402 0.682915,-0.01323 0.58332,-0.13238 -0.441054,-0.529531 -0.879761,-0.341086 -1.619411,-0.509186 -1.962344,-0.506191 z m -20.53139,0.332598 c -0.71871,0 -1.102634,0.209117 -1.102634,0.600281 0,0.393804 0.239952,0.52219 0.69776,0.373444 0.383708,-0.124672 0.879893,-0.226838 1.102634,-0.226838 0.222737,0 0.404874,-0.168049 0.404874,-0.373444 0,-0.205394 -0.496185,-0.373443 -1.102634,-0.373443 z m 18.524252,1.115954 1.323161,0.528073 c 0.727738,0.290271 1.405571,0.459343 1.506648,0.375632 0.310127,-0.256852 -0.126812,-0.455277 -1.507509,-0.68416 z m 8.159491,0.01604 c -1.157562,0 -1.378204,0.09032 -0.882107,0.361773 0.36387,0.199104 0.760818,0.361775 0.882107,0.361775 0.12129,0 0.518239,-0.162671 0.882108,-0.361775 0.496096,-0.271457 0.275455,-0.361773 -0.882108,-0.361773 z m -2.425795,0.746888 c -0.242579,0 -0.143342,0.16267 0.220528,0.361772 0.363868,0.199104 0.860054,0.361774 1.102634,0.361774 0.242579,0 0.143342,-0.16267 -0.220527,-0.361774 -0.363869,-0.199102 -0.860055,-0.361772 -1.102635,-0.361772 z m 5.954225,0.03648 c -0.199851,0 -0.399706,0.02624 -0.551317,0.07804 -0.303225,0.103598 -0.05513,0.188181 0.551317,0.188181 0.606449,0 0.854541,-0.08459 0.551316,-0.188181 -0.151612,-0.0518 -0.351466,-0.07804 -0.551316,-0.07804 z m -18.124547,0.371256 c -0.338143,-0.02103 -0.603282,0.0017 -0.704654,0.08752 -0.117947,0.09987 0.349491,0.439457 1.038029,0.754911 1.344207,0.615845 1.98538,0.60814 2.235418,-0.02699 0.117691,-0.298954 -1.55437,-0.752373 -2.568793,-0.815449 z m 5.113465,0.353748 c -0.242579,0 0.05513,0.240373 0.66158,0.533907 0.60645,0.293535 1.301108,0.533908 1.543688,0.533908 0.242579,0 -0.05513,-0.240373 -0.661581,-0.533908 -0.606448,-0.293534 -1.301107,-0.533907 -1.543687,-0.533907 z m 6.032613,0.522236 c -0.05039,0.01486 -0.07839,0.04654 -0.07839,0.09554 0,0.196047 0.496185,0.547938 1.102633,0.781898 1.551151,0.598414 1.40937,1.311209 -0.220526,1.10866 -0.727739,-0.09043 -1.32316,-0.0254 -1.32316,0.144419 0,0.169821 0.1915,0.308528 0.425545,0.308528 0.234045,0 0.650382,0.3559 0.925181,0.79065 0.400658,0.633877 0.354427,0.911278 -0.233449,1.400414 -0.679163,0.565084 -0.796853,0.543492 -1.60399,-0.290295 -0.479173,-0.494997 -1.058501,-1.167195 -1.286976,-1.493774 -0.354118,-0.506165 -0.475955,-0.515139 -0.82784,-0.06127 -0.298889,0.385512 -0.05824,0.812984 0.873493,1.549937 0.70776,0.559795 1.286982,1.207669 1.286982,1.439801 0,0.806747 -1.304227,0.839236 -2.472313,0.06127 -1.257365,-0.837432 -2.596718,-1.017657 -3.040858,-0.409184 -0.149922,0.205395 0.129198,0.373443 0.620232,0.373443 1.412478,0 3.874973,2.072397 4.198623,3.533128 0.343484,1.550264 2.927824,3.576131 6.31344,4.949586 1.271041,0.515628 2.221671,1.059111 2.113096,1.207857 -0.405389,0.555387 -3.532328,0.349131 -5.487328,-0.361774 -1.880498,-0.683814 -1.835044,-0.562534 0.253262,0.67395 0.742336,0.439537 0.717581,0.466349 -0.292886,0.327492 -0.60645,-0.08333 -1.482531,-0.285286 -1.946838,-0.4493 -0.596507,-0.210712 -0.750814,-0.170133 -0.525475,0.138583 0.49181,0.673781 -0.873547,0.529052 -2.924564,-0.309987 -2.526828,-1.033688 -2.873421,-0.935104 -1.243909,0.35375 1.03768,0.820745 1.918619,1.136206 3.464683,1.239949 4.274299,0.28681 5.618278,0.262428 8.221512,-0.147335 4.15339,-0.653764 4.130525,-0.632225 1.989052,-1.835126 -1.079056,-0.606121 -2.113556,-1.102658 -2.298305,-1.103554 -0.804164,-0.0038 -4.746481,-2.511829 -5.266796,-3.35078 -0.314621,-0.507246 -0.919325,-1.221457 -1.343838,-1.587136 -1.074137,-0.925271 -0.979681,-1.239576 0.66158,-2.199817 2.043817,-1.195761 3.064499,-2.151802 2.75314,-2.578365 -0.147981,-0.202734 0.01755,-0.368338 0.36783,-0.368338 0.540728,0 2.06141,-1.483936 2.06141,-2.011636 0,-0.09399 -0.744278,-0.37772 -1.653951,-0.630186 -0.909673,-0.252464 -2.100518,-0.705247 -2.646321,-1.005817 -0.409352,-0.225428 -0.762799,-0.329754 -0.913983,-0.285189 z m -6.215236,1.415732 c -0.01769,0.02256 0.186768,0.163888 0.597835,0.442735 0.899865,0.610427 1.128475,0.692761 1.128475,0.406995 0,-0.09547 -0.446567,-0.356637 -0.99237,-0.580588 -0.476478,-0.195505 -0.716236,-0.291702 -0.73394,-0.269142 z m -9.170814,0.04303 c -0.07994,0.02984 -0.129215,0.102763 -0.129215,0.211521 0,0.217515 0.198473,0.395324 0.441053,0.395324 0.242579,0 0.441054,-0.07426 0.441054,-0.164841 0,-0.09058 -0.198475,-0.268384 -0.441054,-0.395324 -0.121289,-0.06346 -0.231897,-0.07653 -0.311838,-0.04668 z m 1.311963,1.044474 c -0.08518,0.04189 -0.0976,0.289534 -0.104235,0.776063 -0.0077,0.564833 0.173166,1.02697 0.401429,1.02697 0.768633,0 0.884287,-0.632142 0.246369,-1.34571 -0.30009,-0.335673 -0.458383,-0.499215 -0.543563,-0.457323 z m 4.279596,0.0058 c -0.12736,-0.009 -0.219147,0.0018 -0.261876,0.03793 -0.146179,0.123768 0.401464,0.569414 1.217206,0.990501 1.558711,0.804612 2.586021,0.984557 2.586021,0.452217 0,-0.366669 -2.649833,-1.417546 -3.541351,-1.480645 z m -8.168966,0.676864 c -1.162745,0 1.564687,2.520361 2.98831,2.761441 0.899322,0.152292 1.399336,0.53942 1.728895,1.339875 0.442698,1.07526 1.259415,1.230008 1.259415,0.238507 0,-0.500336 -1.962392,-2.099161 -2.576546,-2.099161 -0.200637,0 -0.895269,-0.504149 -1.543689,-1.120331 -0.648414,-0.616181 -1.484043,-1.120331 -1.856385,-1.120331 z m 42.161095,0.86213 c -1.797173,0.01033 -3.492047,0.199859 -4.213258,0.563083 -0.706916,0.356024 -0.294949,0.394819 2.122572,0.201309 4.519926,-0.361796 8.255426,0.757833 11.582826,3.47113 2.10875,1.719578 2.68128,3.227841 2.2113,5.827761 -0.15756,0.871554 -0.68042,2.005072 -1.16121,2.518557 l -0.8735,0.933609 -2.14583,-1.939427 c -1.17989,-1.066492 -2.5616,-2.667679 -3.07101,-3.558655 -1.19058,-2.082395 -3.64461,-4.065291 -6.550335,-5.293125 -2.637915,-1.114669 -2.771223,-1.138702 -2.771223,-0.504003 0,0.25741 -0.581896,0.932774 -1.293011,1.501068 -1.469026,1.173981 -4.047835,5.547626 -5.130693,8.701528 l -0.728775,2.121772 1.66429,1.253808 c 0.91523,0.68942 2.027955,1.351517 2.473172,1.471163 0.445222,0.119646 0.809749,0.514003 0.809749,0.876717 0,0.362715 0.118589,0.759781 0.2636,0.882551 0.472659,0.400205 1.557157,-0.180952 1.318851,-0.706769 -0.179111,-0.395209 0.318437,-0.512027 2.180287,-0.512027 2.816588,0 3.309718,-0.726035 0.537534,-0.791379 -2.861145,-0.06745 -4.092109,-0.41314 -5.812085,-1.633816 -1.841905,-1.307214 -1.91894,-1.904853 -0.663305,-5.129014 1.160116,-2.978886 1.971285,-3.971207 2.72471,-3.333276 0.356715,0.302033 0.390681,0.553632 0.09907,0.726464 -0.460561,0.272957 -1.530765,2.125774 -1.530765,2.649844 0,0.312125 1.951023,1.162637 2.666999,1.162637 0.78204,0 0.42653,-0.658159 -0.461731,-0.854837 -1.07221,-0.237408 -1.136648,-1.285076 -0.152472,-2.474793 0.590929,-0.71434 0.628003,-1.01846 0.197267,-1.602452 -0.433407,-0.587607 -0.380643,-0.939292 0.282551,-1.90077 1.083452,-1.570751 2.943103,-1.729043 4.758545,-0.405536 0.72024,0.525072 1.50785,1.065705 1.75043,1.202022 0.46588,0.261803 3.3545,3.270806 3.92814,4.091833 0.18572,0.265818 0.0727,0.760557 -0.25154,1.099178 -0.39767,0.415343 -0.41372,0.525983 -0.0492,0.340622 0.33542,-0.170517 1.29059,0.388712 2.51883,1.47408 1.54455,1.364876 1.88982,1.888921 1.57298,2.390186 -0.49849,0.788667 -0.72604,3.245869 -0.33166,3.579807 0.29161,0.246906 0.50491,-0.384954 0.98721,-2.924822 0.2897,-1.525645 0.78757,-1.764149 1.56006,-0.746888 0.44611,0.587485 0.46774,0.578051 0.21019,-0.09337 -0.48348,-1.260385 -0.4631,-1.459405 0.15075,-1.476998 1.04666,-0.02999 2.07935,-3.423827 1.89687,-6.23184 -0.0658,-1.011763 -3.68897,-4.801521 -4.59057,-4.801521 -0.26165,0 -0.78944,-0.223427 -1.17241,-0.496709 -0.38298,-0.273284 -1.59207,-0.776124 -2.68681,-1.117413 -1.13097,-0.352584 -3.03029,-0.521623 -4.82747,-0.511298 z m -36.48167,0.258201 c -0.80629,0 -0.739691,0.205667 0.407459,1.254537 0.950969,0.869499 2.095004,1.268155 2.095004,0.730112 0,-0.470025 -1.909752,-1.984649 -2.502463,-1.984649 z m -8.114699,0.373443 c -0.213721,0 -0.200666,0.416894 0.03016,0.930693 0.229771,0.511701 0.303246,1.183897 0.162811,1.493774 -0.270561,0.596982 0.500771,0.794047 0.910537,0.232672 0.317338,-0.434927 -0.605412,-2.657139 -1.103516,-2.657139 z m 2.483512,2.240662 c -0.106973,0 -0.316972,0.16805 -0.466895,0.373445 -0.149923,0.205393 -0.06221,0.373443 0.194686,0.373443 0.256895,0 0.466894,-0.16805 0.466894,-0.373443 0,-0.205395 -0.08772,-0.373445 -0.194685,-0.373445 z m 10.533604,0 c -0.378195,0 -0.565136,0.16805 -0.415213,0.373445 0.149923,0.205393 0.459159,0.373443 0.687422,0.373443 0.228263,0 0.415213,-0.16805 0.415213,-0.373443 0,-0.205395 -0.309237,-0.373445 -0.687422,-0.373445 z m -1.812456,0.962078 c -0.104112,0.01039 -0.197094,0.05164 -0.280828,0.122535 -0.334928,0.283585 -0.169104,0.671306 0.570269,1.337687 0.9947,0.896505 2.210437,1.256935 2.210437,0.654985 0,-0.156144 -0.519437,-0.758678 -1.154322,-1.338415 -0.614687,-0.561297 -1.033221,-0.807955 -1.345556,-0.776792 z m -6.231608,0.201308 c -0.381317,-0.104064 -0.541552,0.245035 -0.261871,0.86213 0.205138,0.452631 0.426216,0.522399 0.75978,0.239967 0.333566,-0.282431 0.319033,-0.527086 -0.05082,-0.840248 -0.16808,-0.142316 -0.319971,-0.227159 -0.447087,-0.261849 z m -5.058328,1.120331 c -0.04549,-0.0056 -0.09085,0.0083 -0.13525,0.04595 -0.127385,0.107858 -0.08183,0.678597 0.10079,1.267666 0.244784,0.78962 0.375923,0.893219 0.49963,0.395324 0.165412,-0.665728 -0.146748,-1.669777 -0.46517,-1.708942 z m 8.398105,0.442735 c -0.400119,-0.02632 -0.180408,0.419174 0.820087,1.164094 1.212086,0.902468 3.594714,1.367292 3.027934,0.5908 -0.149923,-0.205395 -0.478173,-0.373444 -0.729634,-0.373444 -0.251459,0 -1.044844,-0.354538 -1.763351,-0.787732 -0.651247,-0.39264 -1.114961,-0.577923 -1.355036,-0.593718 z m -10.972069,0.26112 c -0.703136,0 -0.805809,0.677586 -0.170564,1.123978 0.361197,0.253816 0.66283,0.819008 0.670194,1.255995 0.01178,0.697828 0.0657,0.718042 0.445363,0.167029 0.447466,-0.649426 -0.256588,-2.547002 -0.944993,-2.547002 z m 8.369681,0.470451 c -0.102157,-0.02588 -0.182221,-0.02076 -0.230865,0.02043 -0.194576,0.164748 0.493565,0.962108 1.529044,1.771669 1.03548,0.809554 2.196103,1.471892 2.579132,1.471892 0.56903,0 0.595934,-0.102464 0.147303,-0.560164 -0.301985,-0.308092 -0.773122,-0.558387 -1.046642,-0.556519 -0.273524,0.0019 -1.027919,-0.543436 -1.676348,-1.211504 -0.48632,-0.501052 -0.995157,-0.858164 -1.301624,-0.935797 z m -10.872143,0.276435 c -0.534369,0 -0.517017,0.160704 0.104233,0.963514 0.410202,0.530079 0.645038,1.185888 0.522028,1.457305 -0.123006,0.271418 -0.109854,0.589578 0.0284,0.706771 0.38126,0.322683 1.010484,-0.116188 1.010484,-0.704583 0,-0.948348 -1.013373,-2.423007 -1.665148,-2.423007 z m 21.712411,0.0795 c -0.12129,0.102698 -0.09236,0.470562 0.06461,0.816909 0.156967,0.346346 0.385234,0.54543 0.506525,0.442734 0.121289,-0.102698 0.09149,-0.469831 -0.06547,-0.816179 -0.156967,-0.346345 -0.384344,-0.546161 -0.505666,-0.443464 z m 26.120367,0.667385 c -0.622085,0 -1.301331,1.772837 -0.893307,2.331833 0.36434,0.499149 1.79271,0.301309 2.79707,-0.387301 0.9301,-0.637698 0.93905,-0.695073 0.18693,-1.213692 -0.70765,-0.48795 -0.75978,-0.476407 -0.50049,0.109408 0.31612,0.714218 -0.01,0.821817 -0.95275,0.315822 -0.3343,-0.179284 -0.470758,-0.512694 -0.30407,-0.741051 0.16884,-0.231335 0.021,-0.415019 -0.333383,-0.415019 z m -40.424458,0.391665 c -0.442814,0.03639 -0.489778,0.425418 0.01121,0.936526 0.323147,0.329691 0.719597,1.467575 0.880383,2.528767 0.226896,1.497523 0.143144,2.02156 -0.372139,2.340587 -0.402885,0.249439 -0.523967,0.602534 -0.308393,0.897869 0.282702,0.3873 0.45997,0.365362 0.867464,-0.106489 0.45829,-0.530674 0.648124,-0.500592 1.807283,0.283729 0.712315,0.48197 1.340816,0.837862 1.397244,0.79138 0.05642,-0.04648 -0.135725,-0.619515 -0.42727,-1.273501 -0.322432,-0.72328 -0.837658,-1.188893 -1.315407,-1.188893 -0.561598,0 -0.787268,-0.292646 -0.790796,-1.02697 -0.0092,-1.959427 -0.566697,-3.893969 -1.180163,-4.093292 -0.229996,-0.07473 -0.421801,-0.101844 -0.569408,-0.08972 z m -1.913242,0.816907 c -0.33622,-0.07592 -0.331492,0.942743 0.156781,2.195439 0.310974,0.79782 0.726631,1.450742 0.924321,1.450742 0.428819,0 0.004,-2.118568 -0.636599,-3.173542 -0.182363,-0.300382 -0.332428,-0.447331 -0.444503,-0.472639 z m 5.075564,0.664467 c -0.574004,-0.02387 0.731978,0.914591 1.842603,1.323829 1.713353,0.631326 2.60935,0.671206 2.387032,0.106489 -0.128263,-0.325807 -3.277152,-1.390699 -4.229635,-1.430318 z m 7.361803,0.367608 c -0.24258,0 -0.318763,0.168051 -0.16884,0.373444 0.149923,0.205394 0.470689,0.373444 0.713269,0.373444 0.242579,0 0.318762,-0.16805 0.168838,-0.373444 -0.149922,-0.205393 -0.470688,-0.373444 -0.713267,-0.373444 z m 3.298429,0 c -0.172108,0 0.15301,0.420124 0.72274,0.93361 1.057519,0.953117 1.764215,1.194793 1.764215,0.603197 0,-0.341793 -1.933768,-1.536807 -2.486955,-1.536807 z m 29.050957,0.100655 c -0.28449,-0.03551 -0.54185,0.159819 -0.54185,0.614869 0,0.458715 0.28518,0.778251 0.69432,0.778251 0.41072,0 0.63573,-0.254392 0.55131,-0.622892 -0.10729,-0.468442 -0.41929,-0.734719 -0.70378,-0.770228 z m -9.417182,1.766564 c -0.824333,0 -0.334086,0.676997 0.640044,0.884011 0.56486,0.120039 1.267804,0.665198 1.561778,1.211503 0.509908,0.947563 0.562014,0.961114 1.138815,0.293211 0.332545,-0.38507 0.510043,-0.830348 0.393676,-0.989771 -0.232555,-0.318601 -3.116534,-1.398954 -3.734313,-1.398954 z m 11.779222,0.373443 c -0.38408,0 -0.69862,0.266322 -0.69862,0.591529 0,0.659474 0.94977,0.544383 1.22237,-0.148065 0.0961,-0.243906 -0.13966,-0.443464 -0.52375,-0.443464 z m 9.38704,1.523679 c -0.27621,0.02275 -0.23409,0.504984 0.16281,1.395308 0.42878,0.961842 0.40616,1.487192 -0.11802,2.74904 -0.35639,0.857944 -0.91541,1.633419 -1.24219,1.723531 -0.46887,0.129301 -0.49212,0.0023 -0.11026,-0.60174 0.26614,-0.42105 0.47196,-1.238556 0.45656,-1.816891 l -0.0284,-1.051769 -0.43934,0.933608 c -0.55715,1.183056 -2.13042,2.614106 -2.87374,2.614106 -0.88352,0 -1.53603,-1.367377 -1.1991,-2.512722 0.26888,-0.914082 0.22192,-0.977981 -0.39713,-0.546306 -0.59704,0.41633 -0.72123,0.376223 -0.84421,-0.270601 -0.10886,-0.572662 -0.3072,-0.672166 -0.8063,-0.406266 -0.57441,0.306044 -0.57972,0.46419 -0.0396,1.201292 0.34205,0.466908 0.76362,1.381746 0.93724,2.033518 l 0.31614,1.185245 -4.18656,0.265495 c -2.30248,0.146162 -5.461274,0.179594 -7.019811,0.07367 l -2.834113,-0.192555 -2.959025,1.967872 c -3.109296,2.067708 -5.401486,4.300796 -4.405367,4.291684 0.310489,-0.003 1.854322,-0.940177 3.431089,-2.083117 2.470742,-1.790942 5.597627,-3.513432 6.378049,-3.513432 0.527205,0 0.160222,0.734739 -1.416196,2.836566 -0.909672,1.212859 -2.330329,3.465295 -3.15715,5.005749 -3.219554,5.998359 -4.143293,7.402063 -4.741327,7.207753 -0.725401,-0.235691 -0.754924,0.296175 -0.08614,1.538998 0.641613,1.192305 0.889777,1.044791 2.635123,-1.565982 0.786628,-1.176676 1.841513,-2.643428 2.344822,-3.259611 0.503303,-0.616181 0.981913,-1.451131 1.063869,-1.855547 0.08196,-0.404422 0.600676,-1.496744 1.152598,-2.427383 0.551916,-0.930644 1.45392,-2.910526 2.004552,-4.399634 l 1.001832,-2.707465 h 4.736145 c 2.99275,0 5.2832,-0.187996 6.22298,-0.511297 0.81801,-0.281408 1.74603,-0.433049 2.06228,-0.336245 0.31624,0.09681 1.20937,0.07333 1.98473,-0.05252 2.75395,-0.446993 4.70713,-4.870595 2.84619,-6.446277 -0.38709,-0.327745 -0.66728,-0.479722 -0.83301,-0.466075 z m -9.07261,0.472639 c -0.32363,0.02816 -0.48073,0.384711 -0.27394,0.840978 0.13052,0.28801 0.41481,0.523696 0.63143,0.523696 0.50396,0 0.51492,-1.012786 0.0138,-1.27496 -0.13769,-0.07206 -0.2634,-0.0991 -0.37128,-0.08972 z m -44.645473,1.339875 -1.164659,1.490128 c -2.236128,2.861046 -2.026699,8.546085 0.338544,9.196777 0.412103,0.113374 0.886813,0.575342 1.055255,1.026971 0.168443,0.451631 0.97233,1.510989 1.786611,2.353717 1.676891,1.735474 1.74226,2.084644 0.816638,4.393068 -0.932754,2.326216 -0.537279,2.988831 1.610878,2.697983 1.001694,-0.135623 1.699608,-0.07957 1.699608,0.136393 0,0.201509 1.141227,0.982863 2.536059,1.73593 1.394832,0.753071 3.096845,1.766001 3.78255,2.251603 1.094117,0.77484 1.701523,0.883281 4.961854,0.883281 h 3.715361 v 2.023306 c 0,1.112869 0.09972,2.247205 0.221386,2.520744 0.126847,0.285184 -0.346889,0.770194 -1.110383,1.137106 -0.732335,0.351933 -1.456795,0.940107 -1.610022,1.307053 -0.153227,0.366944 -0.695489,1.05941 -1.205144,1.538995 l -0.926901,0.872341 0.992371,0.681971 c 1.029287,0.707023 1.297888,2.166444 0.606449,3.293891 -0.212156,0.345937 -0.518344,4.157769 -0.680533,8.471043 -0.162184,4.313273 -0.466436,8.682564 -0.676224,9.709533 -0.209787,1.026969 -0.344912,3.091945 -0.300639,4.58927 0.07506,2.53863 0.02034,2.71509 -0.812333,2.6141 -1.093433,-0.13262 -1.426049,-2.005918 -0.671054,-3.77965 0.424346,-0.996931 1.021639,-8.31901 1.544548,-18.92163 0.06584,-1.335059 0.340388,-2.900214 0.609893,-3.478421 0.645773,-1.385454 0.618273,-1.749788 -0.13266,-1.749788 -0.394805,0 -0.725449,0.581044 -0.902779,1.587134 -0.453685,2.573991 -1.209766,5.293602 -1.585037,5.698665 -0.192057,0.207304 -0.361959,3.836195 -0.377308,8.064046 -0.02638,7.270039 -0.08837,7.822367 -1.137094,10.181443 -0.609875,1.371911 -1.108663,2.742491 -1.108663,3.045901 0,0.65819 2.40055,0.75397 4.2193,0.16848 1.387004,-0.4465 3.338124,-0.11019 2.352571,0.40554 -0.768915,0.40237 7.851094,0.0923 11.070274,-0.39824 5.27074,-0.80318 4.693141,-0.98816 5.039381,1.61339 0.169079,1.27042 0.375548,3.43478 0.459146,4.80955 0.0836,1.37476 0.279161,2.67308 0.43416,2.88544 0.291717,0.39964 1.505034,6.36741 1.56264,7.68549 0.01795,0.41079 0.175248,2.00726 0.348882,3.54771 0.193812,1.71946 0.111335,3.88219 -0.212778,5.60166 -0.290371,1.54044 -0.538482,3.58929 -0.551317,4.5528 -0.01284,0.96349 -0.184179,1.83583 -0.380753,1.9387 -0.196573,0.10286 -1.207913,0.004 -2.247476,-0.21955 -1.736557,-0.37321 -1.870795,-0.4875 -1.653091,-1.40916 0.330764,-1.40031 -1.213211,-9.13628 -2.035565,-10.19895 -1.053342,-1.36116 -2.488684,-5.83425 -2.726434,-8.49803 -0.291099,-3.26156 -1.473084,-10.38471 -1.796949,-10.82841 -0.635885,-0.87116 -1.034986,-0.21632 -0.863155,1.41573 0.102717,0.97562 0.287289,3.42074 0.410042,5.43391 l 0.223107,3.66076 -1.202559,-0.69219 c -2.108364,-1.21365 -6.38575,-2.94513 -10.02363,-4.05682 l -3.52843,-1.07803 2.866848,-0.18672 c 1.576768,-0.1027 4.423411,-0.043 6.326363,0.13276 2.288336,0.21126 3.614872,0.18865 3.916076,-0.0663 0.655926,-0.55538 -2.949744,-1.30723 -4.833503,-1.00802 -0.828981,0.13168 -3.575836,0.24536 -6.10411,0.25237 -2.52827,0.007 -4.707992,0.16473 -4.843837,0.35084 -0.135844,0.1861 0.02267,0.33843 0.352323,0.33843 0.32967,0 0.825075,0.19094 1.100913,0.4245 0.275835,0.23355 2.463351,1.05156 4.861064,1.81762 8.039464,2.56853 12.742234,4.73594 11.873129,5.47182 -0.08956,0.0758 -2.227785,-0.69647 -4.751661,-1.71623 -4.643549,-1.87619 -10.995656,-3.87201 -11.35541,-3.56741 -0.107798,0.0912 0.17995,0.27507 0.639183,0.40773 2.115346,0.61108 12.85584,4.85603 13.787235,5.44921 0.574313,0.36576 1.219354,0.57372 1.433425,0.4617 0.214065,-0.11202 0.389366,0.0583 0.389366,0.37855 0,0.32021 -0.106519,0.58204 -0.236895,0.58204 -0.130376,0 -2.325847,-0.84024 -4.878295,-1.86722 -2.552448,-1.02697 -4.837433,-1.86721 -5.078147,-1.86721 -0.240717,0 -1.172073,-0.3225 -2.069158,-0.71698 -2.855641,-1.25575 -11.754832,-4.52445 -12.300403,-4.51779 -0.288907,0.003 -0.666952,-0.18857 -0.840759,-0.42669 -0.233674,-0.32014 0.448358,-0.37226 2.619621,-0.20058 2.683798,0.2122 3.672,-0.0573 2.485231,-0.67833 -0.248177,-0.12987 -6.252019,-0.20488 -13.341872,-0.1663 -7.089857,0.0387 -13.287427,0.0715 -13.772586,0.073 -0.485159,0.002 -4.057694,-0.011 -7.938966,-0.0285 -3.881271,-0.0176 -7.553043,0.0245 -8.159492,0.0933 -0.606449,0.0689 -5.717157,0.14664 -11.35713,0.17286 -9.5439334,0.0444 -10.2544971,0.094 -10.2544971,0.71699 0,0.47051 1.3432992,1.26087 4.5207995,2.66079 2.4864398,1.09546 5.9101186,2.69636 7.6081746,3.55719 5.780136,2.93025 11.858687,5.33996 14.113716,5.59509 1.212898,0.13723 3.098402,0.4849 4.19001,0.77242 1.091607,0.2875 3.969482,0.97229 6.395277,1.52222 2.425795,0.54992 5.962309,1.48366 7.858852,2.07436 3.353662,1.04455 4.706417,1.31834 4.140047,0.83879 -0.152552,-0.12917 -2.341501,-0.94723 -4.863651,-1.81762 -4.508545,-1.55589 -6.949536,-2.14867 -10.884203,-2.64401 -6.136711,-0.77257 -14.980987,-3.95557 -22.714261,-8.17419 -1.212898,-0.66165 -3.2466436,-1.69093 -4.5199393,-2.28807 -1.2732957,-0.59713 -2.3152848,-1.21209 -2.3155315,-1.36613 -8.089e-4,-0.5053 6.0202458,-0.29284 7.9381038,0.28008 1.031316,0.3081 2.04215,0.56017 2.246617,0.56017 0.204468,0 0.257646,-0.25207 0.118016,-0.56017 -0.466802,-1.02999 3.897034,-0.7055 7.658138,0.56965 1.833223,0.62154 3.429061,1.04911 3.546519,0.94965 0.117458,-0.0995 -0.605113,-0.45823 -1.605711,-0.79722 -2.717823,-0.92075 -2.258039,-1.36442 1.199977,-1.15825 3.061992,0.18257 11.245218,2.50689 19.915465,5.65709 4.156468,1.51018 4.268618,1.27305 0.247233,-0.52297 -2.624846,-1.17229 -9.776088,-3.82656 -11.564737,-4.2924 -0.523898,-0.13645 -1.171107,-0.47109 -1.438593,-0.74398 -0.399309,-0.40737 0.08705,-0.46404 2.71696,-0.31582 2.659908,0.1499 3.762017,0.43444 6.498649,1.67685 1.812515,0.82287 3.753852,1.75044 4.314057,2.06123 0.560203,0.3108 1.114543,0.48299 1.23271,0.38293 0.118166,-0.10006 -1.367223,-0.9919 -3.301012,-1.98174 -3.454815,-1.76837 -4.215769,-2.65357 -1.876201,-2.18304 0.652228,0.13119 3.125783,1.08087 5.49594,2.11011 2.370152,1.02924 4.411207,1.78496 4.536306,1.67904 0.125101,-0.10593 -1.367066,-0.89542 -3.316515,-1.75417 -3.713063,-1.63562 -4.361768,-2.13141 -2.331899,-1.78189 1.113052,0.19167 12.628992,4.68969 17.311355,6.76138 1.091607,0.48298 2.480926,1.00046 3.087374,1.15024 2.240544,0.55338 9.667243,3.31592 15.168972,5.6425 3.053992,1.29147 3.033893,0.83546 -0.03016,-0.68198 -2.62617,-1.30063 -4.608045,-2.11757 -11.126265,-4.58343 -2.038101,-0.77102 -4.986593,-1.97654 -6.552059,-2.67975 -1.565472,-0.70319 -4.065641,-1.67112 -5.556244,-2.15023 -3.924618,-1.26147 -8.664274,-3.24245 -8.664274,-3.62138 0,-1.12515 7.486643,1.18496 18.395038,5.67532 8.291908,3.41332 17.121647,6.68981 18.036679,6.69355 0.438561,0.002 1.122994,1.4251 3.754125,7.80877 0.457589,1.1102 0.832146,2.5025 0.832146,3.09403 0,1.31712 -1.168388,2.91202 -2.145829,2.92919 -0.396612,0.007 -1.514917,0.33764 -2.485235,0.7345 -0.970318,0.39684 -2.000783,0.72751 -2.289691,0.73449 -0.288906,0.007 -0.65728,0.19389 -0.819221,0.41574 -0.202893,0.27798 0.384118,0.33956 1.889125,0.19767 2.581967,-0.24345 3.471529,-0.49157 5.02043,-1.39896 1.118503,-0.65525 1.209889,-0.65287 2.955575,0.0613 0.99084,0.40534 2.158407,0.73955 2.594635,0.74252 1.380263,0.01 2.030844,0.60018 1.797809,1.63236 -0.230582,1.0213 0.61004,1.96073 1.389486,1.55285 0.581755,-0.30444 2.660025,0.61362 3.781675,1.67029 l 0.88125,0.83003 -2.64632,-0.21954 c -1.45546,-0.12082 -6.218841,-0.32806 -10.585271,-0.46024 -5.625541,-0.17031 -8.304708,-0.39936 -9.193211,-0.78627 -0.689635,-0.30033 -1.185821,-0.60309 -1.102634,-0.67322 0.08319,-0.0702 1.044746,-0.23778 2.136354,-0.37199 1.091607,-0.13421 2.778638,-0.39827 3.748956,-0.58715 0.970318,-0.18888 3.848192,-0.46554 6.395276,-0.61487 4.595333,-0.26944 4.610647,-0.27344 1.984742,-0.52734 -1.455477,-0.14074 -3.737929,-0.10572 -5.072116,0.0781 -3.935235,0.54204 -6.615805,0.44075 -6.615805,-0.24944 0,-0.36507 -0.292286,-0.533 -0.771843,-0.4442 -0.424515,0.0786 -0.722226,0.34261 -0.661581,0.58716 0.06064,0.24454 -0.289424,0.44492 -0.777873,0.44492 -0.488449,0 -1.251471,0.19201 -1.6953,0.4267 -0.656213,0.34698 -1.118129,0.2474 -2.472313,-0.53173 -0.915896,-0.52697 -1.93914,-0.86887 -2.274182,-0.76003 -0.335042,0.10887 -0.609033,0.0123 -0.609033,-0.21516 0,-0.22736 -0.300997,-0.41356 -0.669334,-0.41356 -0.773688,0 -4.575045,-1.62311 -6.828578,-2.91606 -1.917229,-1.09999 -6.057977,-2.73248 -11.246868,-4.43392 -2.183214,-0.71588 -4.961852,-1.62732 -6.17475,-2.02549 -3.51588,-1.1542 -9.041599,-2.53753 -9.041599,-2.26328 0,0.13809 1.339701,0.64353 2.977112,1.12326 6.418137,1.88037 12.522496,4.01469 18.855042,6.59215 13.664132,5.56156 16.085569,6.62639 15.837441,6.96633 -0.296629,0.40638 -6.616033,0.20764 -7.860571,-0.24727 -0.599556,-0.21915 -0.751967,-0.18192 -0.525477,0.12837 0.234346,0.32107 -0.719918,0.4369 -3.598203,0.4369 -3.661371,0 -4.029806,-0.0726 -5.649279,-1.11012 -0.952888,-0.61045 -2.068145,-1.1146 -2.478342,-1.12032 -0.410197,-0.006 -0.855798,-0.16172 -0.990647,-0.34646 -0.259877,-0.35604 -10.92952,-4.89196 -11.507019,-4.89196 -0.60917,0 2.557274,1.74134 7.830424,4.30627 2.844583,1.38363 5.061879,2.66617 4.927397,2.85042 -0.305487,0.41852 -3.254993,-0.005 -4.145215,-0.59444 -0.962252,-0.63772 -5.571297,-2.94179 -8.38002,-4.18958 -4.755974,-2.11285 -12.968281,-4.58758 -13.560675,-4.086 -0.265689,0.22497 1.8398,0.96644 2.744525,0.96644 0.716983,0 6.859363,2.2015 9.546399,3.42153 1.062456,0.4824 3.286518,1.63254 4.942899,2.55576 2.878708,1.60448 2.953886,1.68295 1.710808,1.79135 -0.865926,0.0755 -1.945886,-0.25005 -3.232095,-0.97517 -2.594365,-1.46264 -4.840021,-2.4528 -8.621221,-3.80009 -3.936514,-1.40263 -4.566534,-1.42952 -1.690131,-0.0722 1.212897,0.57234 2.602216,1.23105 3.087375,1.46388 0.485158,0.23282 2.231255,0.94161 3.879894,1.57473 1.648638,0.63311 2.886456,1.30322 2.750553,1.4894 -0.135901,0.18616 -1.187334,0.26851 -2.336205,0.18307 -1.148868,-0.0854 -3.776004,-0.17778 -5.837929,-0.20568 -2.902903,-0.0393 -4.016152,-0.21055 -4.933426,-0.75929 -3.067006,-1.83477 -20.93466,-9.16312 -21.393685,-8.77447 -0.129706,0.10983 2.528164,1.36328 5.906845,2.78552 3.378682,1.42223 6.969972,3.02809 7.980314,3.56813 1.010342,0.54002 1.931426,0.98176 2.046765,0.98176 0.115337,0 0.941199,0.42011 1.834851,0.9336 l 1.624663,0.93361 h -3.456068 c -2.999076,0 -3.604048,-0.11465 -4.581963,-0.86797 -0.619723,-0.4774 -1.998707,-1.14517 -3.064115,-1.48429 -2.292248,-0.7296 -2.0619,-0.41473 0.4936,0.67468 2.940702,1.25361 2.605202,1.6274 -1.290426,1.43834 -2.651344,-0.12867 -3.592343,-0.32485 -4.102144,-0.85629 -0.363869,-0.37932 -1.951662,-1.274 -3.528428,-1.98758 -1.576768,-0.71357 -3.9226832,-1.82685 -5.2133922,-2.47405 -2.996861,-1.50274 -5.812949,-2.71977 -5.812949,-2.51273 0,0.1766 3.6836109,2.1888 10.1270052,5.53163 l 4.173642,2.1648 h -3.473298 c -3.6321748,0 -5.1842473,-0.50023 -8.8839567,-2.86281 -1.5932225,-1.0174 -1.9433925,-1.0741 -1.9433925,-0.31582 0,0.30551 0.8435149,1.01225 1.8744779,1.57109 1.4598358,0.79129 1.69476,1.0478 1.063008,1.15898 -0.4461547,0.0786 -1.2568092,-0.21247 -1.8021175,-0.64622 l -0.9915091,-0.78847 -0.057716,1.29392 c -0.055548,1.25108 0.00452,1.30088 1.802979,1.48794 1.0230617,0.10641 5.1346566,0.29409 9.1372189,0.41721 4.002561,0.12312 8.964414,0.29761 11.026339,0.38803 7.106926,0.31162 14.807447,0.52984 25.801638,0.73084 6.064487,0.11088 12.018711,0.27987 13.231607,0.37563 1.212898,0.0958 5.083143,0.26361 8.600546,0.37344 3.517402,0.10984 8.876203,0.37343 11.908448,0.58497 3.032243,0.21155 5.711644,0.38579 5.954223,0.38803 0.24258,0.002 2.273787,-0.0195 4.51391,-0.0481 2.240121,-0.0286 4.237167,0.0338 4.437239,0.13859 0.482512,0.2525 4.97464,0.51926 13.32204,0.79137 3.75998,0.12257 9.51573,0.37908 12.79056,0.57039 3.27483,0.19129 8.93134,0.45451 12.57003,0.58495 3.63869,0.13044 6.65008,0.261 6.69246,0.28957 0.0425,0.0286 1.48133,0.0919 3.19765,0.14078 3.04205,0.0865 3.12096,0.0654 3.12096,-0.82203 0,-0.84638 -0.17835,-0.91774 -2.53605,-1.02185 l -2.53606,-0.11233 0.11974,-1.49378 c 0.0661,-0.82157 0.11089,-3.88848 0.0991,-6.81534 -0.0239,-5.91646 -0.11638,-5.77451 2.97884,-4.58489 1.42103,0.54614 1.87447,0.60094 1.87447,0.2261 0,-0.51766 -4.82869,-2.48633 -5.4029,-2.20274 -0.18193,0.0899 -0.33079,1.91565 -0.33079,4.05682 v 3.89273 l -1.65395,-0.64114 c -0.90967,-0.35295 -2.38415,-1.14867 -3.2769,-1.76802 -1.63838,-1.13661 -3.13142,-1.91326 -15.13709,-7.87514 -8.93911,-4.43905 -11.24022,-5.75822 -11.28132,-6.46742 -0.0192,-0.33037 -0.12507,-0.41673 -0.23517,-0.1911 -0.28444,0.58287 0.59629,2.39091 1.16465,2.39091 0.43429,0 3.68958,1.69841 8.80816,4.59511 1.09161,0.61776 4.06871,2.03668 6.6158,3.15312 2.54709,1.11642 6.28652,2.9807 8.31024,4.14289 4.37234,2.51094 5.93254,3.38228 6.28501,3.51124 0.14349,0.0525 0.38644,0.64171 0.54012,1.30925 0.34625,1.50402 -0.50088,1.62533 -2.524,0.36104 -0.75063,-0.4691 -1.86069,-1.05386 -2.46714,-1.29904 -1.13461,-0.4587 -1.78736,-0.78824 -8.03113,-4.05755 -2.01126,-1.05311 -5.14535,-2.5887 -6.96469,-3.41204 -1.81934,-0.82336 -4.69722,-2.16994 -6.39527,-2.99266 -3.18641,-1.54382 -3.74896,-1.62056 -3.74896,-0.50983 0,0.41408 0.60001,0.82945 1.65394,1.14439 3.33794,0.99745 11.48665,4.66278 16.20873,7.2909 2.66837,1.48511 6.29071,3.35126 8.04922,4.14654 1.75853,0.79529 3.27791,1.70482 3.37683,2.02111 0.74542,2.38353 0.74911,2.72383 0.0275,2.48939 -0.39603,-0.12868 -0.9023,-0.23413 -1.12504,-0.23413 -0.22273,0 -0.40486,-0.30485 -0.40486,-0.67759 0,-0.41127 -0.62807,-0.93149 -1.59797,-1.3231 -2.13697,-0.86284 -2.40563,-0.50836 -0.43415,0.57329 2.70342,1.48323 2.30926,1.61676 -3.19162,1.07729 -2.65717,-0.26058 -3.48892,-0.51138 -4.63106,-1.3953 -1.55343,-1.20223 -4.32579,-2.99904 -6.06448,-3.93065 -0.62907,-0.33705 -2.25844,-0.78749 -3.6206,-1.00071 -2.5744,-0.40295 -6.04124,-2.04058 -6.04124,-2.85334 0,-0.25731 -0.29662,-0.94849 -0.65899,-1.5368 -0.36238,-0.58832 -0.66026,-1.3641 -0.66158,-1.72353 -0.002,-0.35945 -0.20106,-0.65353 -0.44364,-0.65353 -0.24259,0 -0.44105,0.8221 -0.44105,1.8271 0,1.27973 -0.19824,1.89172 -0.66158,2.04227 -0.36387,0.11823 -0.66159,0.49326 -0.66159,0.83296 0,0.50424 0.12008,0.5331 0.65556,0.15681 0.90259,-0.63426 2.12021,-0.30178 5.87928,1.60683 3.03154,1.53921 4.4915,2.92085 4.4915,4.25084 0,1.1758 1.11051,0.16363 1.23961,-1.12981 0.0753,-0.75435 0.21982,-1.37124 0.32131,-1.37124 0.1015,0 1.57799,0.86096 3.28121,1.91317 3.11783,1.92613 4.02075,3.11886 2.10447,2.7804 -0.54581,-0.0964 -2.63066,-0.27736 -4.6328,-0.40189 -4.2084,-0.26175 -7.86393,-1.44754 -9.33188,-3.02766 -1.34746,-1.45042 -3.06473,-2.34172 -8.85985,-4.59948 -10.563606,-4.11559 -9.70316,-3.66233 -9.70316,-5.11663 0,-0.93288 0.156178,-1.22678 0.551317,-1.0379 0.441051,0.21083 0.441051,0.1631 0,-0.23924 -0.303224,-0.2766 -0.551317,-1.05378 -0.551317,-1.72645 0,-1.16794 0.06454,-1.21424 1.433423,-1.04155 l 1.433417,0.18015 -1.433417,-0.56454 c -0.78838,-0.31058 -1.433423,-0.81575 -1.433423,-1.12325 0,-0.79799 0.48732,-0.71286 3.86696,0.67978 1.65431,0.68169 3.24689,1.17233 3.53963,1.0897 0.29273,-0.0826 0.53236,0.0449 0.53236,0.28373 0,0.29219 -0.46893,0.35259 -1.43342,0.18454 -3.98678,-0.69466 -3.7808,-0.70852 -2.31554,0.15463 0.72775,0.42869 2.01782,0.9676 2.86686,1.19765 1.58101,0.42836 3.06043,1.63004 3.07789,2.50032 0.007,0.32163 -0.62949,0.15209 -1.865,-0.49672 -2.70479,-1.42038 -6.51967,-2.90482 -6.817369,-2.65276 -0.140472,0.11894 0.120515,0.31929 0.579739,0.44492 1.13142,0.3095 3.98219,1.58281 6.12736,2.73665 0.97033,0.52191 1.9241,0.95449 2.11999,0.96132 0.1959,0.007 0.72602,0.6846 1.17759,1.50617 0.58445,1.06338 0.83171,1.27176 0.85712,0.72356 0.0197,-0.42357 -0.33901,-1.43187 -0.79683,-2.24067 -0.45781,-0.80881 -1.6737,-2.98162 -2.70145,-4.82851 -1.02775,-1.84688 -2.53893,-4.2449 -3.35786,-5.32886 -0.81895,-1.08396 -1.48857,-2.11342 -1.48857,-2.28807 0,-1.11594 -3.409726,-8.48255 -3.780808,-8.16835 -0.09813,0.0831 0.285913,1.31574 0.85282,2.73883 1.549988,3.8909 1.550258,3.69402 -0.0058,3.82196 -1.327094,0.10909 -1.403909,0.041 -1.690995,-1.49378 -0.165439,-0.88445 -0.567891,-2.53255 -0.894166,-3.66223 -0.894972,-3.0987 -0.986552,-4.66803 -0.272213,-4.66803 0.332034,0 0.828219,0.58629 1.102634,1.30267 0.301495,0.78707 0.837168,1.35744 1.35331,1.44126 0.801181,0.13011 0.811485,0.0832 0.167977,-0.74835 -0.377318,-0.48759 -0.834861,-1.47228 -1.016488,-2.18814 -0.18163,-0.71587 -0.451665,-1.46927 -0.599555,-1.67467 -0.502854,-0.6984 -1.80316,-4.10512 -1.817626,-4.7614 -0.01654,-0.75055 0.174847,-0.79381 1.284396,-0.29103 0.439845,0.19932 3.552474,0.43182 6.917294,0.51713 6.00389,0.15224 6.13914,0.13858 7.2748,-0.76001 1.12125,-0.88719 1.20862,-0.8979 2.80655,-0.33259 1.92517,0.68107 5.35705,0.87324 5.99213,0.33551 0.29323,-0.24828 0.14346,-0.95816 -0.44709,-2.12469 -0.48787,-0.963683 -1.40258,-3.386521 -2.03299,-5.383566 -0.6304,-1.997042 -1.51893,-4.498013 -1.97439,-5.557895 -0.45546,-1.059881 -1.23896,-3.32855 -1.74096,-5.041488 -0.61682,-2.104724 -1.21556,-3.309173 -1.8469,-3.715472 -0.91966,-0.591816 -0.90067,-0.615144 1.21892,-1.493775 2.36498,-0.980337 8.80326,-6.202128 9.46542,-7.676745 0.29618,-0.659595 0.17631,-1.750383 -0.41692,-3.792786 -0.45796,-1.576922 -1.06992,-4.211596 -1.3602,-5.854748 -1.48282,-8.393462 -1.98114,-9.60475 -5.26336,-12.796276 -1.80434,-1.754509 -6.22993,-4.942295 -6.8613,-4.942295 -0.58167,0 -0.13268,0.74135 1.19395,1.971521 4.99226,4.629334 6.96898,7.136717 7.57198,9.60523 0.12544,0.513486 0.638,1.941907 1.13967,3.174271 0.50168,1.232364 1.10688,3.332984 1.34471,4.668045 0.23782,1.33506 0.71268,3.519265 1.05524,4.854038 0.57783,2.251429 0.56323,2.507883 -0.19985,3.547714 -0.97572,1.329598 -3.49856,3.394755 -5.94991,4.870082 -0.97031,0.583977 -2.21906,1.449917 -2.77467,1.924113 -1.50386,1.283457 -2.12981,1.07338 -2.71869,-0.91173 -0.2894,-0.975621 -1.27704,-2.988733 -2.19493,-4.473301 l -1.66946,-2.698712 0.9717,-0.539014 c 0.53415,-0.296335 1.59558,-1.067989 2.35947,-1.714775 1.51897,-1.286132 1.976,-1.281901 5.08675,0.04814 0.93882,0.4014 1.82954,0.626664 1.97872,0.500359 0.34147,-0.289125 -1.40401,-1.441437 -3.60683,-2.380703 l -1.68667,-0.718443 -0.0904,-4.048073 c -0.0905,-4.039258 -0.65175,-5.728564 -1.90462,-5.728564 -0.38205,0 -0.41331,0.32959 -0.11458,1.211503 0.22564,0.666175 0.41004,2.768338 0.41004,4.671694 0,3.378301 -0.0387,3.50693 -1.61432,5.417121 -0.8877,1.076211 -2.32663,2.504447 -3.19764,3.173539 -1.53825,1.181656 -1.54974,1.210352 -0.40229,0.993418 1.11774,-0.211313 1.27795,-0.05234 2.97711,2.96202 1.07822,1.912805 1.79609,3.726795 1.79609,4.539675 0,1.951997 0.68614,2.84233 2.09329,2.716219 1.11009,-0.09948 1.21632,0.0482 2.21216,3.069967 0.57534,1.74585 1.8136,5.27489 2.75141,7.842316 0.93781,2.567424 1.83337,5.372927 1.98991,6.234028 0.15654,0.861102 0.56649,1.76343 0.91139,2.005798 1.73401,1.21848 -0.80007,1.49392 -4.23738,0.460252 -1.98027,-0.595512 -2.21077,-0.596741 -3.58787,-0.01305 -2.5004,1.059798 -5.69715,1.411278 -8.80643,0.968608 -4.265616,-0.60729 -6.569524,-0.62997 -7.229129,-0.0715 -0.322542,0.27309 -0.849439,0.41371 -1.170689,0.31218 -0.321245,-0.10154 -1.857176,0.14402 -3.412997,0.54558 -1.55582,0.40156 -2.946696,0.66838 -3.090823,0.59298 -0.548878,-0.28722 -0.122667,-15.375975 0.533228,-18.877131 0.733623,-3.916084 0.93271,-6.249888 0.502216,-5.885386 -0.154114,0.130489 -0.758913,2.558276 -1.344698,5.395241 -0.842281,4.079169 -1.073701,6.558397 -1.104355,11.853185 -0.04109,7.101491 -0.319463,8.115351 -2.028674,7.382801 -0.430243,-0.18439 -1.869171,-0.37046 -3.197639,-0.41356 -1.32847,-0.0431 -2.460258,-0.11671 -2.515386,-0.16337 -0.05512,-0.0467 0.08779,-1.506768 0.317873,-3.245027 0.230075,-1.738246 0.609072,-6.25717 0.842477,-10.042129 0.548495,-8.894553 0.81145,-11.605316 1.424811,-14.68465 0.470225,-2.360723 0.574834,-2.520046 1.644477,-2.504698 0.628184,0.009 1.936155,0.259078 2.906473,0.555061 0.970319,0.29598 3.451245,0.557022 5.51317,0.580586 2.061926,0.02356 4.245141,0.16039 4.851589,0.304155 1.044424,0.247589 0.989791,0.309442 -1.040613,1.169927 -2.055569,0.871159 -4.07342,2.504947 -3.594758,2.910235 0.125643,0.106384 0.698236,-0.180814 1.272337,-0.63748 0.574107,-0.456664 2.607695,-1.325396 4.519077,-1.930673 3.270191,-1.035574 3.509337,-1.061962 4.053903,-0.447113 0.31829,0.359368 0.69112,1.119409 0.82869,1.688518 0.13756,0.569106 0.42495,1.126381 0.63917,1.238493 0.59871,0.313292 -2.688101,3.496495 -3.869533,3.747565 -1.271024,0.270104 -1.382889,0.887657 -0.16109,0.887657 0.485428,0 1.644794,-0.664801 2.576543,-1.477728 1.28339,-1.11973 1.81751,-1.37351 2.2044,-1.045933 0.28088,0.237824 0.51083,0.725066 0.51083,1.083133 0,0.68122 1.56634,1.813972 2.50849,1.813972 1.32483,0 1.51621,-1.443424 0.5539,-4.179361 -0.88996,-2.530234 -2.09037,-4.610695 -2.47317,-4.286576 -0.0953,0.0807 0.32821,1.324694 0.94155,2.764357 1.2001,2.816959 1.42576,4.357358 0.60385,4.125386 -0.28135,-0.07942 -0.85013,-0.679741 -1.26458,-1.334042 -0.41443,-0.654302 -0.95325,-1.401048 -1.19652,-1.660072 -0.24327,-0.259028 -0.69059,-1.395453 -0.99495,-2.52512 -0.84808,-3.147552 -0.81558,-3.092697 -1.65912,-2.782592 -1.427683,0.524837 -3.64391,0.627284 -4.256336,0.196932 -0.334844,-0.235299 -1.622239,-0.52932 -2.860819,-0.653527 -1.238584,-0.124099 -2.251787,-0.370235 -2.251787,-0.54702 0,-0.176784 -0.275283,-0.321658 -0.611617,-0.321658 -0.88283,0 -1.092644,-1.959635 -0.409179,-3.818315 1.265246,-3.440846 1.822562,-5.020475 2.311223,-6.544745 0.296687,-0.925442 0.771447,-1.587135 1.138813,-1.587135 0.392066,0 0.530195,-0.22203 0.364385,-0.587883 -0.477171,-1.052878 1.778747,-5.672155 4.272708,-8.748207 0.416319,-0.513485 0.902725,-1.353732 1.081099,-1.867218 0.178378,-0.513484 0.614353,-1.321807 0.968244,-1.796469 0.353896,-0.474661 0.566276,-1.058996 0.472066,-1.298299 -0.17869,-0.453895 -1.152072,0.877331 -4.30888,5.895596 -3.699907,5.881605 -5.177661,8.408429 -5.404632,9.23908 -0.126777,0.463969 -0.646889,2.019653 -1.155181,3.456542 -0.508292,1.436884 -1.006563,3.369454 -1.106939,4.294601 -0.299105,2.756734 -0.727841,3.785571 -1.524735,3.657853 -0.48572,-0.07785 -0.763826,-0.584555 -0.858851,-1.564527 -0.07731,-0.797287 -0.449804,-1.849165 -0.827836,-2.337667 -0.673144,-0.869866 -0.611666,-3.101639 0.183482,-6.662906 0.13758,-0.616181 0.09836,-1.002314 -0.087,-0.857755 -0.439599,0.34284 -1.084511,3.244982 -1.368819,6.160363 -0.180881,1.854812 -0.04666,2.611902 0.673643,3.807373 0.610132,1.012626 0.744446,1.573467 0.418653,1.743951 -1.50705,0.788635 -2.808863,-2.873099 -2.365494,-6.652691 l 0.295471,-2.520744 h -1.33436 c -0.733852,0 -2.352121,0.198801 -3.596478,0.442004 -2.627048,0.513439 -3.453675,0.222079 -7.397987,-2.606812 -2.608661,-1.870945 -2.646772,-2.024599 -1.449792,-5.86423 0.736547,-2.362658 0.914847,-2.604295 1.849497,-2.509074 0.568765,0.05795 1.759319,0.730146 2.646321,1.493775 1.601329,1.378607 1.608488,1.397978 0.952747,2.695795 -0.363225,0.718879 -0.762926,1.517115 -0.88814,1.773858 -0.125216,0.256742 -0.02942,0.466803 0.212776,0.466803 0.242196,0 0.757462,-0.672197 1.145703,-1.493774 0.495431,-1.048394 0.970328,-1.493773 1.591931,-1.493773 0.802519,0 0.885551,0.245449 0.885551,2.614104 0,1.437757 0.150457,2.614106 0.334235,2.614106 0.183774,0 0.643784,-1.165425 1.022521,-2.589305 0.780051,-2.932832 0.740371,-3.003984 -2.355156,-4.220208 -0.906391,-0.356112 -1.647922,-0.809738 -1.647922,-1.008002 0,-0.54524 -2.702295,-2.172789 -4.096973,-2.467503 -0.676655,-0.142988 -1.191921,-0.113426 -1.144847,0.06491 0.04707,0.178346 -0.604923,1.58422 -1.448927,3.124675 -0.844001,1.540453 -1.718067,3.174658 -1.942533,3.631593 -0.284678,0.579506 -0.590915,0.733925 -1.012183,0.510569 -0.504878,-0.267682 -0.478454,-0.648938 0.163671,-2.324542 0.422458,-1.102402 1.360077,-2.9587 2.082947,-4.125386 0.722864,-1.166686 1.171156,-2.317725 0.995815,-2.557943 -0.243114,-0.33315 -0.0911,-0.333583 0.640908,-0.0023 0.914577,0.414437 0.906101,0.367652 -0.170565,-0.989771 -1.368382,-1.725205 -1.334959,-1.650651 -1.928749,-4.3318 -0.263115,-1.188062 -0.913069,-2.61648 -1.444623,-3.174269 l -0.966529,-1.013788 0.328206,0.933608 c 1.056645,3.003719 0.637587,8.029037 -0.66933,8.029037 -0.989795,0 -2.705622,-3.165135 -2.414597,-4.453605 0.17827,-0.789285 -0.0027,-1.316762 -0.652106,-1.902229 -0.539347,-0.486107 -0.787466,-1.057226 -0.619372,-1.42813 0.654365,-1.443791 2.39134,-0.163948 2.39134,1.762187 0,0.514866 0.220209,1.051725 0.489296,1.192539 0.345301,0.180695 0.400098,-0.191375 0.186067,-1.26402 -0.194619,-0.975346 -0.838619,-2.000272 -1.796949,-2.860635 z m 43.143133,3.688486 c -0.46062,-0.01454 -1.11991,-0.0023 -1.86672,0.04085 -2.102234,0.121376 -2.417191,0.207983 -1.39294,0.382925 1.44103,0.246126 3.65599,0.07566 3.93417,-0.302691 0.0479,-0.06519 -0.21388,-0.106537 -0.67451,-0.121078 z m -43.59022,0.07075 c 0.228263,0 0.415212,0.252075 0.415212,0.560165 0,0.577497 -0.520642,0.742223 -1.017351,0.321659 -0.352372,-0.298355 0.04597,-0.881824 0.602139,-0.881824 z m -0.323897,2.618481 c 0.353055,0.127491 1.070287,0.877126 1.877063,2.148759 1.131567,1.783596 1.67124,2.239204 3.227789,2.726433 2.089002,0.653895 2.094413,0.664726 1.144842,2.21951 -0.682909,1.118163 -1.100048,1.413255 -1.100048,0.77752 0,-0.186546 -0.893134,-1.117523 -1.984743,-2.06853 -1.091607,-0.951008 -1.988878,-1.932721 -1.994214,-2.18158 -0.0053,-0.248858 -0.392605,-1.166428 -0.860576,-2.039353 -0.65171,-1.215659 -0.663167,-1.710247 -0.310113,-1.582759 z m 26.24269,5.703038 c -0.367406,0.0054 -0.796967,0.160315 -1.565224,0.468992 -1.837231,0.738178 -2.767783,1.414702 -2.767783,2.012364 0,0.587882 0.374348,0.504512 2.531748,-0.565997 1.07132,-0.531595 2.067117,-0.865321 2.213022,-0.741783 0.145905,0.123543 -0.294548,1.524666 -0.979448,3.113731 -0.684898,1.58907 -1.3415,3.458271 -1.458405,4.153832 -0.273087,1.624797 0.592265,1.260017 1.017352,-0.428877 0.308327,-1.225004 1.219381,-3.149306 3.174382,-6.701562 0.07979,-0.145023 -0.356888,-0.541941 -0.970838,-0.882551 -0.52182,-0.289501 -0.8274,-0.43361 -1.194806,-0.428149 z m 2.150996,11.470992 c -0.402845,0 -0.515472,0.415904 -0.378167,1.400413 0.159237,1.141729 0.26004,1.262448 0.542703,0.653525 0.537811,-1.158581 0.465964,-2.053938 -0.164536,-2.053938 z m 22.287851,5.762846 c -0.28351,0.240027 1.92365,2.792799 3.16317,3.658583 1.11514,0.778924 1.14544,0.783858 1.13882,0.194743 -0.007,-0.5648 -3.98111,-4.125028 -4.30199,-3.853326 z m -0.0957,3.944498 c -0.38577,0.03589 -0.078,0.587782 0.98635,1.965684 1.19132,1.542333 2.09329,2.21852 2.09329,1.569632 0,-0.597794 -1.89996,-3.227139 -2.46457,-3.410593 -0.28041,-0.0911 -0.48647,-0.136684 -0.61507,-0.124723 z m -7.36351,1.199106 c -0.0909,-0.0098 -0.14215,0.04273 -0.14215,0.159732 0,0.212243 0.13203,0.498365 0.29376,0.635291 0.16171,0.13693 0.39669,0.161556 0.52203,0.05544 0.12533,-0.106118 -0.007,-0.391511 -0.29377,-0.634562 -0.15823,-0.133985 -0.28896,-0.206138 -0.37987,-0.215895 z m -14.52204,2.706005 c -0.05308,-0.01946 -0.112332,-0.01449 -0.174869,0.01823 -0.242579,0.126941 -0.441054,0.556822 -0.441054,0.955489 0,0.398666 0.198475,0.725007 0.441054,0.725007 0.24258,0 0.441053,-0.429881 0.441053,-0.955488 0,-0.406501 -0.106959,-0.684817 -0.266184,-0.743243 z m 8.66688,2.830733 c -0.673559,-0.0125 -3.549106,2.157554 -3.549106,2.678288 0,0.166691 0.563556,-0.122093 1.252522,-0.641852 0.688966,-0.519789 1.631718,-1.187435 2.095005,-1.484293 0.620147,-0.397373 0.673184,-0.543406 0.201579,-0.552143 z m -3.667123,0.653526 c -0.22798,-0.0079 -0.760985,0.173006 -1.378293,0.48139 -0.82308,0.411189 -1.758661,0.699072 -2.078636,0.6404 -0.404685,-0.07421 -0.608213,0.405056 -0.669334,1.574005 l -0.08786,1.680497 0.801994,-1.307053 c 0.441085,-0.718879 1.415347,-1.610677 2.165644,-1.98173 0.750298,-0.37105 1.36451,-0.827715 1.36451,-1.014572 0,-0.04672 -0.04203,-0.07029 -0.118017,-0.07293 z m 2.919396,1.202021 c -0.452597,0 -1.919271,1.185508 -1.919271,1.551397 0,0.624121 0.794827,0.297597 1.503198,-0.617788 0.397368,-0.513485 0.584502,-0.933609 0.416073,-0.933609 z m -3.349251,1.652051 c -0.147899,-0.125223 -0.865056,0.4693 -1.59365,1.320911 -1.317634,1.540115 -1.324044,1.569274 -1.108664,5.542571 0.222697,4.108279 1.209992,9.559825 2.038149,11.252909 0.427624,0.874235 0.486642,0.892588 0.673644,0.210791 0.251898,-0.918404 -0.707164,-6.858495 -1.247358,-7.725616 -0.239006,-0.383656 -0.207556,-1.081069 0.08098,-1.781878 0.311375,-0.756275 0.326172,-1.308972 0.04221,-1.610475 -0.337106,-0.357927 -0.425269,-2.326 -0.104235,-2.326 0.03877,0 0.139065,-0.307226 0.223112,-0.6827 0.281172,-1.256156 0.652142,-1.793841 1.081957,-1.568905 0.575901,0.301355 2.225945,-0.606585 2.225945,-1.22463 0,-0.468656 -0.557725,-0.423092 -2.536059,0.206414 -0.698099,0.222128 -0.716199,-0.362229 -0.02928,-0.943819 0.287064,-0.243052 0.401156,-0.544346 0.253261,-0.669573 z m 13.096358,1.453659 c -0.49179,0.314858 0.0715,5.304034 1.12331,9.591372 0.59647,2.431136 0.87378,4.579848 0.72877,5.6549 -0.12865,0.953667 -0.1137,1.835927 0.0336,1.960578 1.4733,1.247442 1.22755,-2.440625 -1.01218,-15.18792 -0.1724,-0.98123 -0.51473,-1.889513 -0.76064,-2.018202 -0.0424,-0.02214 -0.08,-0.02174 -0.11285,-7.46e-4 z m 6.83375,5.483492 c -0.20319,0 -0.10329,0.798236 0.22225,1.773858 0.32553,0.975621 0.72202,2.255521 0.88038,2.844591 0.15836,0.589069 0.37871,0.99442 0.49015,0.900055 0.32632,-0.276289 -1.18672,-5.518504 -1.59278,-5.518504 z m 1.96492,6.789089 c -0.035,-0.03032 -0.0629,-0.0254 -0.0843,0.01385 -0.0286,0.05233 -0.0455,0.166073 -0.0525,0.339161 -0.0216,0.539158 0.0845,1.505445 0.23604,2.1473 0.15161,0.641856 0.44932,1.167011 0.66157,1.167011 0.5049,0 0.4837,-0.211148 -0.24464,-2.427383 -0.24379,-0.741801 -0.41122,-1.149003 -0.516,-1.239949 z m 34.9716,10.015871 c -0.10943,0 -0.93089,0.75623 -1.82538,1.68049 -1.70906,1.76597 -1.52984,2.12062 0.51772,1.02698 0.75458,-0.40304 1.27791,-1.04716 1.36538,-1.68049 0.078,-0.56485 0.0516,-1.02698 -0.0577,-1.02698 z M 91.622501,105.421 c -0.15297,-0.021 -0.346809,0.0198 -0.593525,0.0999 -0.463782,0.15069 -0.645805,0.73209 -0.615064,1.96934 0.024,0.96554 -0.116764,2.55385 -0.313562,3.52948 -0.276629,1.37136 -0.22668,1.77385 0.222251,1.77385 0.884186,0 1.832455,-2.54644 1.839159,-4.94011 0.0048,-1.75427 -0.08033,-2.36975 -0.539259,-2.43248 z m 14.391949,2.73518 c -0.34192,-0.009 -0.82614,0.22759 -1.39465,0.70896 -0.6111,0.51741 -1.41774,0.9409 -1.79264,0.9409 -0.8158,0 -0.87868,0.43106 -0.15249,1.04593 0.2911,0.24648 0.73767,0.44268 0.99238,0.43618 0.75537,-0.0193 2.88924,-1.77368 2.88924,-2.37559 0,-0.4952 -0.19991,-0.74807 -0.54184,-0.75638 z m -48.666636,0.52953 c 0.346956,0 6.899936,2.26866 14.561659,5.04149 7.661728,2.77282 14.231636,5.04149 14.599567,5.04149 0.367922,0 0.777671,0.24002 0.910533,0.53317 0.385636,0.85091 0.01799,2.18156 -0.490155,1.77459 -0.901378,-0.72186 -16.722125,-6.76505 -24.25795,-9.26607 -2.183215,-0.72457 -4.416049,-1.55999 -4.961852,-1.85628 -1.120917,-0.60848 -1.309273,-1.26839 -0.361802,-1.26839 z m -48.6692335,1.63527 c -0.018519,0.0425 0.1865674,0.17565 0.5995572,0.4369 0.9481763,0.59982 1.7547883,0.7248 1.3817383,0.21372 -0.131825,-0.18061 -0.6891562,-0.42466 -1.2387403,-0.54194 -0.48202,-0.10285 -0.7240372,-0.15117 -0.7425552,-0.10868 z m 4.4587765,1.35812 c -0.642736,0.005 -0.654564,0.0555 -0.08442,0.36761 0.863748,0.47263 1.447618,0.47263 1.102634,0 -0.149923,-0.2054 -0.608015,-0.37059 -1.018213,-0.36761 z m 14.554769,0 c -0.642736,0.005 -0.654565,0.0555 -0.08442,0.36761 0.863746,0.47263 1.447617,0.47263 1.102633,0 -0.149922,-0.2054 -0.608016,-0.37059 -1.018213,-0.36761 z m -25.9808143,0.13639 c -0.1106872,0.0937 0.1628815,0.33563 0.6081716,0.53683 0.4452902,0.2012 2.2983029,1.04299 4.1176491,1.87086 3.6048686,1.64036 4.6799976,1.94723 3.0365508,0.8665 -1.3862866,-0.91161 -7.5045834,-3.49246 -7.7623715,-3.27419 z m 13.4865933,0.73887 c -0.142381,-0.0132 -0.238049,-0.006 -0.275659,0.0263 -0.124918,0.10577 0.345904,0.36812 1.046642,0.58351 1.524181,0.46846 3.232601,1.09469 4.140907,1.51783 1.192153,0.55539 1.543175,0.36645 0.484986,-0.26112 -1.147741,-0.68066 -4.400213,-1.7744 -5.396876,-1.86648 z m 7.342853,0.41647 c -0.074,0.0262 -0.079,0.0948 -0.0018,0.20058 0.148205,0.20304 0.455714,0.36907 0.683978,0.36907 0.634425,0 0.494459,-0.26742 -0.269628,-0.51568 -0.196253,-0.0638 -0.338619,-0.0802 -0.412627,-0.054 z m 26.24355,0.65499 c -0.12121,0.075 0.805311,0.73676 2.419766,1.61119 1.334188,0.72265 2.425795,1.44395 2.425795,1.60246 0,0.15851 1.007649,0.59448 2.238863,0.96935 1.231211,0.37488 6.044208,2.15898 10.695551,3.96419 4.651337,1.8052 8.649771,3.29571 8.885681,3.31285 1.325768,0.0963 -5.221814,-2.72671 -17.409559,-7.50606 -3.059444,-1.19974 -6.248445,-2.57385 -7.828701,-3.37413 -0.904693,-0.45815 -1.35467,-0.62483 -1.427396,-0.57985 z m 5.290924,0.0868 c -0.0281,0.0725 0.736842,0.48819 2.505908,1.30706 1.409224,0.65231 2.85961,1.33504 3.22348,1.51711 3.85446,1.92877 6.242422,2.96983 13.452135,5.86278 4.609011,1.84939 10.067049,4.04256 12.128975,4.87445 4.14847,1.67372 4.603117,1.80892 3.307902,0.98029 -2.218721,-1.41944 -6.840645,-3.47564 -14.775297,-6.57318 -4.730299,-1.84664 -11.066683,-4.43197 -14.08098,-5.74535 -3.466801,-1.51054 -5.715288,-2.34393 -5.762123,-2.22316 z m -28.622831,0.27935 c -0.17718,-0.01 -0.294699,0.005 -0.341989,0.0445 -0.09139,0.0774 1.971336,0.86415 4.583685,1.74834 2.612348,0.88418 5.729991,2.00089 6.927643,2.48208 1.197652,0.4812 2.525824,0.87526 2.951269,0.87526 0.425443,0 0.895856,0.16806 1.045778,0.37344 0.149923,0.2054 0.649389,0.37345 1.110388,0.37345 0.460999,0 2.384604,0.58325 4.274427,1.29611 3.493943,1.31795 4.628695,1.60596 3.854915,0.9781 -0.23045,-0.18699 -2.701109,-1.10149 -5.490774,-2.03205 -2.789664,-0.93056 -7.156094,-2.47686 -9.703178,-3.43612 -3.787969,-1.42658 -7.971905,-2.63723 -9.212164,-2.7031 z m 112.043979,0.0306 c -0.0325,0.018 0.16577,0.15726 0.56941,0.43105 0.47087,0.31944 1.04947,0.5806 1.28612,0.5806 0.56038,0 0.31033,-0.17257 -1.03976,-0.71698 -0.51983,-0.20962 -0.7832,-0.31266 -0.81577,-0.29467 z m -100.03905,0.0161 c -0.199609,0.16901 2.94868,1.49082 6.028306,2.53094 2.062294,0.69654 2.646321,0.81686 2.646321,0.54486 0,-0.16126 -3.424246,-1.56863 -5.072116,-2.08457 -0.485159,-0.15191 -1.453417,-0.47103 -2.151859,-0.70969 -0.698441,-0.23866 -1.35138,-0.36561 -1.450652,-0.28154 z m -35.5625331,1.08896 c -0.202619,0.0281 -0.3092544,0.11008 -0.3092544,0.24435 0,0.44549 2.728593,1.55022 8.8210725,3.57178 2.061926,0.68417 4.633013,1.58555 5.713884,2.00288 1.080873,0.41733 2.150052,0.66226 2.375832,0.54412 0.225781,-0.11815 -0.471945,-0.49868 -1.550578,-0.84536 -1.078634,-0.34667 -2.544761,-0.90575 -3.25794,-1.24214 -2.388232,-1.12645 -9.7025142,-3.93969 -10.9091861,-4.19613 -0.3826818,-0.0813 -0.6812109,-0.10753 -0.88383,-0.0796 z m 9.3637751,0.0875 c -0.311729,-0.0677 -0.106803,0.16452 0.691732,0.72718 0.727738,0.51279 1.483542,0.93862 1.679794,0.94601 0.19625,0.008 0.234342,0.18118 0.08441,0.38658 -0.149922,0.20539 0.111696,0.37344 0.581468,0.37344 0.469773,0 1.12492,0.27655 1.455822,0.61413 0.330901,0.33759 1.397458,0.91329 2.369801,1.28007 3.482525,1.31365 2.96059,0.68082 -1.348142,-1.63527 -3.039641,-1.63391 -4.995345,-2.5794 -5.514894,-2.69214 z m 100.381028,0.2458 c -0.36548,0.30946 0.30655,1.80743 0.715,1.59369 0.22296,-0.11667 1.93722,0.60962 3.80926,1.61412 1.87203,1.0045 5.48749,2.69375 8.03458,3.75414 2.54709,1.06037 6.6158,3.02496 9.0416,4.36535 2.42579,1.34039 5.20442,2.76118 6.17475,3.15749 1.95541,0.79865 3.10881,0.97868 1.82193,0.28445 -0.45353,-0.24465 -1.64438,-0.91841 -2.64632,-1.49669 -4.68669,-2.70495 -6.76037,-3.76899 -13.95349,-7.16398 -4.24391,-2.00303 -8.86029,-4.23426 -10.2588,-4.95834 -1.39851,-0.72409 -2.63052,-1.24167 -2.73851,-1.15023 z m -87.884222,0.47045 c -0.107795,0.0912 0.664973,0.50024 1.717697,0.90952 1.052725,0.4093 2.211816,0.75711 2.575685,0.77243 0.363869,0.0153 -0.4089,-0.39441 -1.717697,-0.91027 -1.308799,-0.51586 -2.46789,-0.86296 -2.575685,-0.77168 z m 26.651012,0.60247 c -0.315623,0.003 -0.261413,0.15009 0.136104,0.3676 0.847317,0.46363 1.000001,0.46363 0.66158,0 -0.149922,-0.20539 -0.508778,-0.3706 -0.797684,-0.3676 z m 95.5148,0.14878 c -0.10693,0.0907 0.56892,0.50539 1.50148,0.92194 1.90008,0.84875 2.54174,0.97264 2.13205,0.41138 -0.33318,-0.45645 -3.35816,-1.56646 -3.63353,-1.33332 z m -116.549268,1.00874 c -0.36387,0.007 0.132315,0.32353 1.102633,0.70385 2.322056,0.91015 3.066044,0.91015 1.102634,0 -0.849028,-0.39356 -1.841399,-0.71046 -2.205267,-0.70385 z m 19.545046,0.4916 c -0.0783,0.0204 0.105412,0.15019 0.497051,0.40407 0.470877,0.30527 1.115919,0.55507 1.433425,0.55507 0.983526,0 0.640444,-0.28259 -0.856268,-0.7053 -0.655705,-0.18521 -0.995903,-0.27421 -1.074208,-0.25384 z m 63.400592,0.20422 c -0.0925,-0.008 -0.19335,0.0243 -0.29204,0.10796 -0.14556,0.12327 -0.10987,0.437 0.0801,0.69729 0.27787,0.38068 0.38212,0.38071 0.53151,0.002 0.1599,-0.40616 -0.0421,-0.78406 -0.31959,-0.8067 z m 34.05761,0.3968 c -0.18973,0.009 0.35008,0.338 1.19911,0.73156 1.60481,0.74392 2.20526,0.89135 2.20526,0.5412 0,-0.22832 -2.85963,-1.29748 -3.40437,-1.27276 z m -47.058351,0.004 c 0.60506,0.0446 1.281711,0.22826 1.752151,0.52954 0.7983,0.51125 0.73431,0.54907 -0.94499,0.56017 -1.866361,0.0124 -2.533794,-0.23425 -2.130318,-0.78702 0.18463,-0.25293 0.718096,-0.34733 1.323157,-0.30269 z m -97.2720939,0.0544 c -0.4370463,-0.0873 -0.4591437,0.0236 -0.4591437,0.25456 0,0.18036 1.2404632,0.71184 2.7565851,1.1816 3.098238,0.95997 5.1451779,1.85872 9.3362105,4.09985 2.779602,1.48637 9.761547,3.68071 14.811475,4.65492 2.85638,0.55105 3.52843,0.6262 3.52843,0.39314 0,-0.0948 -0.843516,-0.35741 -1.874479,-0.5835 -1.655336,-0.36303 -6.697868,-1.60718 -10.77394,-2.65787 -0.77101,-0.19876 -2.628177,-1.03207 -4.126264,-1.8519 -3.662645,-2.00442 -6.6802678,-3.34611 -10.2510112,-4.55645 -1.6583794,-0.56213 -2.5107769,-0.84705 -2.9478232,-0.93435 z m 43.9434129,0.19183 c -0.107506,-0.009 -0.138782,0.01 -0.07581,0.062 0.242302,0.20023 1.92875,0.87229 3.748096,1.49304 3.507845,1.19685 4.945878,1.48534 3.046886,0.61122 -1.511645,-0.69582 -5.966635,-2.10412 -6.719174,-2.16627 z m -12.121222,0.13566 c -1.046187,-0.0501 -0.06929,0.70066 1.37054,1.05323 2.343406,0.57382 2.845836,0.40087 0.970835,-0.33405 -0.970318,-0.38032 -2.023834,-0.70393 -2.341375,-0.71918 z m 19.101412,0.36324 c -0.242579,0.005 2.030655,0.84723 5.05144,1.87159 3.020797,1.02437 6.531161,2.27901 7.801135,2.78771 1.269988,0.5087 2.448373,0.92486 2.618757,0.92486 0.170392,0 1.125688,0.33004 2.12257,0.73374 0.996896,0.40372 3.995672,1.5582 6.664047,2.56524 2.668374,1.00705 6.340145,2.50556 8.159491,3.33036 2.995742,1.35813 5.671597,2.03434 5.133278,1.29684 -0.496971,-0.68085 -11.986947,-5.23342 -18.585413,-7.36384 -2.425795,-0.7832 -5.30367,-1.74956 -6.395277,-2.14729 -1.091608,-0.39774 -2.38169,-0.86503 -2.866849,-1.03864 -0.485158,-0.17364 -1.874477,-0.67774 -3.087375,-1.12033 -2.409771,-0.87937 -5.91755,-1.85514 -6.615804,-1.84024 z m 81.930012,0.48869 c -0.0242,0.0485 0.0847,0.18091 0.31787,0.41866 0.63516,0.64801 0.89071,0.71583 0.89071,0.23559 0,-0.18342 -0.32542,-0.43955 -0.7236,-0.56892 -0.30266,-0.0984 -0.46075,-0.13385 -0.48498,-0.0853 z m -36.570405,0.73084 c 0.137904,-0.0436 0.395824,-0.0258 0.788208,0.0758 2.272937,0.58894 3.911757,1.28238 3.911757,1.6557 0,0.60149 -1.39148,0.46799 -3.071,-0.29466 -1.374168,-0.62401 -2.042682,-1.30624 -1.628965,-1.43689 z m -76.192873,0.0875 c -0.366402,-0.0413 -0.598696,-0.043 -0.654689,0.005 -0.521943,0.44193 1.068815,0.95517 7.230006,2.33328 7.287602,1.63007 8.480862,1.80471 6.836331,0.99999 -1.683025,-0.82357 -10.846833,-3.04844 -13.411648,-3.33765 z m -10.074457,0.0226 c -0.115193,0.026 -0.15239,0.0885 -0.08442,0.18161 0.135941,0.18625 0.532555,0.33844 0.882108,0.33844 0.912869,0 0.782622,-0.25409 -0.247232,-0.48212 -0.242747,-0.0538 -0.435262,-0.0639 -0.550456,-0.038 z m -10.1442334,0.14661 c -0.6810068,-1.1e-4 -0.299082,0.70484 0.4979081,0.91902 0.4558621,0.12252 2.8871712,1.1596 5.4029068,2.30412 7.1305765,3.244 12.2542605,5.41857 13.5408625,5.74754 3.737156,0.95545 1.676975,-0.13499 -8.128479,-4.30264 -6.0404601,-2.56738 -11.1312738,-4.668 -11.3132084,-4.66803 z m 12.7647014,0.75274 c -0.315624,0.004 -0.261411,0.1501 0.136107,0.3676 0.847318,0.46364 1.000004,0.46364 0.661581,0 -0.149922,-0.2054 -0.508779,-0.37059 -0.797688,-0.3676 z m 124.582997,0.56818 c -0.021,0.0872 0.57782,0.45907 1.80471,1.08167 2.11555,1.0736 2.09499,1.06721 2.09499,0.65937 0,-0.16448 -0.89313,-0.66618 -1.98473,-1.11523 -1.25281,-0.51536 -1.89389,-0.71304 -1.91497,-0.62581 z m -121.505097,0.25966 c -1.766116,0.12173 -1.79535,0.14385 -0.736524,0.55652 0.606448,0.23636 2.392715,0.42854 3.969481,0.42743 l 2.866849,-0.002 -2.130322,-0.55434 c -1.171662,-0.30479 -2.957928,-0.49714 -3.969484,-0.42741 z m 80.671462,0.10139 c 0.385533,-0.0233 1.141252,0.11684 2.213015,0.42377 1.19023,0.34084 2.39946,0.66968 2.68681,0.73012 0.28736,0.0604 0.74089,0.45505 1.00788,0.87744 0.26698,0.42239 0.32915,0.76065 0.13868,0.75199 -0.6365,-0.029 -5.607398,-1.86168 -6.037771,-2.22608 -0.409753,-0.34694 -0.394227,-0.53394 -0.0087,-0.55724 z m -96.6105539,0.19405 c -0.1519075,-0.013 -0.2343097,0.0106 -0.2343097,0.075 0,0.27214 1.9351228,1.30328 4.3002727,2.29172 2.3651501,0.98843 5.6895919,2.52449 7.3876489,3.4135 1.698056,0.88902 5.766776,2.73791 9.041599,4.10862 3.274823,1.37069 7.244305,3.06121 8.821072,3.75703 2.868199,1.26576 3.528429,1.46675 3.528429,1.07294 0,-0.11558 -1.240463,-0.6874 -2.756586,-1.27059 -1.516121,-0.58319 -3.252769,-1.39104 -3.859219,-1.79502 -0.606448,-0.40396 -4.178982,-2.05117 -7.938965,-3.66076 -3.759982,-1.60959 -7.828701,-3.44872 -9.041599,-4.08673 -3.7006104,-1.94662 -8.1849905,-3.81484 -9.2483429,-3.90584 z m 50.7556659,0.20931 c -0.163552,0.014 -0.26877,0.0637 -0.26877,0.159 0,0.16905 0.248093,0.39238 0.551317,0.49598 0.915592,0.31282 1.721141,0.26837 1.466159,-0.081 -0.245803,-0.33676 -1.258062,-0.6163 -1.748706,-0.57402 z m 33.477,1.07948 c -0.07401,0.0262 -0.07874,0.0948 -0.0018,0.20057 0.148203,0.20305 0.455714,0.36907 0.683978,0.36907 0.634424,0 0.494464,-0.26741 -0.269625,-0.51567 -0.196243,-0.0638 -0.33862,-0.0802 -0.412628,-0.054 z m 27.261763,0.27279 c -0.0909,-0.01 -0.14213,0.0427 -0.14213,0.15973 0,0.21225 0.13201,0.49836 0.29374,0.6353 0.16172,0.13692 0.39669,0.16155 0.52202,0.0554 0.12534,-0.10612 -0.007,-0.39151 -0.29375,-0.63456 -0.15824,-0.13398 -0.28897,-0.20614 -0.37988,-0.21589 z m -54.086781,1.04958 c -0.315622,0.003 -0.261412,0.1501 0.136106,0.3676 0.847317,0.46365 1,0.46365 0.66158,0 -0.149923,-0.20539 -0.508777,-0.37058 -0.797686,-0.3676 z m 17.419034,0.17359 c -0.118617,0.10044 0.460169,0.43055 1.285257,0.73376 1.725455,0.63407 1.720281,0.63262 1.720281,0.42086 0,-0.27758 -2.780049,-1.34554 -3.005538,-1.15462 z m -51.088137,0.27789 c -0.08823,0.0402 0.100733,0.16599 0.505661,0.40481 0.485159,0.28614 1.47753,0.63728 2.205268,0.78044 2.322773,0.45695 17.542546,4.74232 20.288466,5.71252 1.455476,0.51426 2.944034,1.14684 3.307902,1.40553 0.36387,0.25867 1.058529,0.56689 1.543688,0.68488 0.485159,0.11799 4.057693,1.31168 7.938965,2.65275 3.881272,1.34109 7.217239,2.44454 7.41349,2.45219 0.895162,0.0349 -0.312598,-0.72353 -1.796086,-1.12762 -0.906294,-0.24687 -2.144106,-0.67445 -2.750555,-0.95039 -1.060183,-0.48237 -3.156242,-1.2986 -12.423586,-4.83872 -5.11949,-1.95563 -21.32486,-6.52427 -25.075447,-7.06917 -0.704396,-0.10233 -1.069541,-0.14742 -1.157766,-0.10722 z m 112.670244,0.28957 c -0.2793,0 0.56812,0.65768 1.88309,1.46169 2.15093,1.3151 3.49311,1.83445 3.49311,1.35081 0,-0.28777 -4.82604,-2.8125 -5.3762,-2.8125 z m -85.77545,0.0898 c -0.319764,-0.0409 -0.632374,-0.0438 -0.860571,0.002 -0.790456,0.1579 -0.787718,0.17924 0.05255,0.44347 6.236934,1.96125 21.300423,7.8271 23.60929,9.19386 0.613352,0.36307 2.083984,1.09627 3.268273,1.62944 1.184292,0.53316 2.248576,0.88892 2.365495,0.78991 0.291713,-0.24699 -0.799678,-1.31871 -1.342973,-1.31871 -0.24179,0 -1.55692,-0.57405 -2.92284,-1.27569 -2.582087,-1.32673 -13.000285,-5.81979 -13.493485,-5.81979 -0.304666,0 -8.239265,-2.77398 -9.772094,-3.41643 -0.256961,-0.1077 -0.583879,-0.18736 -0.903643,-0.2283 z m 6.248834,0.66884 c -0.24258,0 -0.143342,0.16267 0.220526,0.36177 0.36387,0.1991 0.860056,0.36177 1.102635,0.36177 0.242579,0 0.143343,-0.16267 -0.220527,-0.36177 -0.363869,-0.1991 -0.860055,-0.36177 -1.102634,-0.36177 z m 21.611627,0 c -0.24258,0 -0.143343,0.16267 0.220527,0.36177 0.363869,0.1991 0.860055,0.36177 1.102635,0.36177 0.242579,0 0.143341,-0.16267 -0.220527,-0.36177 -0.36387,-0.1991 -0.860056,-0.36177 -1.102635,-0.36177 z m -78.640204,0.16264 c -0.4169981,0.35308 0.4461276,0.83962 3.220036,1.81617 2.4472764,0.86142 3.7171389,1.19513 3.2708607,0.85848 -0.7311276,-0.55155 -6.2920453,-2.84302 -6.4908967,-2.67465 z m 62.762274,0.21079 c -0.242579,0 -0.143342,0.16267 0.220528,0.36178 0.363868,0.19911 0.860053,0.36177 1.102633,0.36177 0.242579,0 0.143342,-0.16266 -0.220527,-0.36177 -0.363869,-0.19911 -0.860054,-0.36178 -1.102634,-0.36178 z m -24.478475,0.37344 c -0.588072,0 -0.588072,0.0399 0,0.36177 0.363869,0.19911 0.959291,0.36179 1.32316,0.36179 0.588072,0 0.588072,-0.0399 0,-0.36179 -0.363869,-0.1991 -0.959291,-0.36177 -1.32316,-0.36177 z m 21.223119,0.11743 c -0.195452,-0.0292 -0.320121,-0.0273 -0.363524,0.01 -0.204976,0.17357 4.585912,2.10209 5.22201,2.10209 0.216758,0 3.91405,1.50605 8.216342,3.34641 4.302288,1.84036 7.860767,3.35281 7.907094,3.36098 0.04633,0.008 0.205713,-0.15299 0.354907,-0.35739 0.4574,-0.62664 -18.405052,-8.0238 -21.336829,-8.46156 z m -18.817999,0.6973 c -0.09278,0.0786 2.354828,0.99921 5.439089,2.04592 5.394667,1.83078 17.013043,6.22529 18.839535,7.12605 0.90438,0.44602 1.543687,0.57407 1.543687,0.30853 0,-0.21082 -17.944518,-7.69278 -18.450168,-7.69278 -0.228174,0 -1.942435,-0.4341 -3.809257,-0.96498 -1.866821,-0.53089 -3.470114,-0.90129 -3.562886,-0.82274 z m 42.582349,0.32604 c -0.43623,0.0134 -0.361109,0.12971 0.220526,0.34134 1.212497,0.44116 1.908867,0.44116 1.102633,0 -0.363868,-0.1991 -0.959291,-0.35262 -1.323159,-0.34134 z m -83.040404,0.3603 c -0.2108131,0 -0.2706955,0.11816 -0.098203,0.35448 0.1499224,0.2054 0.6080159,0.37075 1.0182137,0.36761 0.6427364,-0.005 0.6545649,-0.0557 0.084421,-0.36761 -0.4318735,-0.23632 -0.7936175,-0.35448 -1.0044313,-0.35448 z m 71.146599,0.35448 c -1.085575,0 -0.296481,0.6677 1.639308,1.38729 2.097461,0.77969 3.197639,1.01159 3.197639,0.67321 0,-0.24404 -4.263962,-2.0605 -4.836947,-2.0605 z m 42.67624,0 c -0.86765,0 0.64735,1.13213 4.88346,3.65056 5.58862,3.32252 6.77365,3.94558 10.42419,5.48058 4.18347,1.75908 5.10978,1.65752 1.43688,-0.15755 -1.63537,-0.80817 -5.96884,-3.15794 -9.62996,-5.22164 -3.66112,-2.06372 -6.86269,-3.75195 -7.11457,-3.75195 z m -82.42275,0.046 c -0.15322,-0.006 -0.327516,0.0183 -0.48671,0.0722 -0.351842,0.11922 -0.247619,0.20818 0.266183,0.22612 0.464944,0.0162 0.725441,-0.0721 0.578883,-0.19621 -0.07327,-0.0621 -0.205136,-0.0968 -0.358356,-0.10211 z m 1.764215,0.37344 c -0.15322,-0.006 -0.327516,0.0183 -0.48671,0.0722 -0.351843,0.11921 -0.24762,0.20817 0.266183,0.22611 0.464944,0.0162 0.725441,-0.0721 0.578883,-0.19621 -0.07327,-0.0621 -0.205136,-0.0968 -0.358356,-0.10211 z m -31.2002371,0.0306 c -0.03242,0.0311 0.1631169,0.14782 0.5625158,0.37272 0.4733679,0.26655 3.7481908,1.77615 7.2773853,3.35515 3.529193,1.57901 6.615287,2.87156 6.857867,2.87231 0.481425,0.002 0.478511,-2.4e-4 -4.768031,-2.85043 -3.296611,-1.79081 -6.2080501,-2.94258 -9.1251588,-3.6097 -0.5116841,-0.11702 -0.7721583,-0.17119 -0.8045783,-0.14004 z m 96.2306721,0.0387 c -0.304252,0.25761 4.38854,3.12545 5.79571,3.54189 1.66332,0.49223 1.9889,0.52066 1.96751,0.17067 -0.021,-0.3439 -7.51126,-3.9259 -7.76322,-3.71256 z m -73.324311,0.3946 c -0.474113,0.0291 -0.339753,0.20976 0.833006,0.51495 0.849028,0.22093 2.139109,0.40173 2.866848,0.40187 1.050741,2.4e-4 0.869125,-0.10741 -0.882107,-0.52369 -1.261051,-0.29975 -2.343634,-0.42225 -2.817747,-0.39313 z m 51.596379,1.52368 c -0.08999,0.0846 1.114808,0.69879 3.375958,1.67758 3.37066,1.45906 4.079746,1.69178 4.079746,1.33696 0,-0.20726 -3.404264,-1.69844 -5.843961,-2.55941 -1.037485,-0.36612 -1.557748,-0.50588 -1.611743,-0.45513 z m 20.248843,0.5806 c 0.204049,0 0.960798,0.42012 1.681509,0.9336 0.72073,0.5135 1.46297,0.93361 1.64964,0.93361 0.18667,0 2.08142,0.75623 4.21069,1.6805 2.12926,0.92428 4.2916,1.68051 4.80507,1.68051 0.96701,0 5.25931,3.13976 4.81111,3.51926 -0.24432,0.20686 -9.88917,-3.99187 -10.74294,-4.6768 -0.23045,-0.18487 -0.72663,-0.32855 -1.10262,-0.31947 -0.37601,0.009 0.0107,0.35208 0.8597,0.76221 5.51812,2.66549 9.4653,4.77858 9.60928,5.14433 0.0922,0.23406 0.002,0.42046 -0.19985,0.41502 -0.4019,-0.0109 -9.37268,-3.95344 -12.3986,-5.44922 -1.09178,-0.5397 -2.229194,-0.84101 -2.698861,-0.7148 -0.719739,0.19343 -0.813605,-0.0156 -0.833011,-1.84532 -0.01204,-1.13493 0.144834,-2.06343 0.348883,-2.06343 z m -67.09442,0.37343 c -0.242579,0 -0.318763,0.16806 -0.168841,0.37346 0.149923,0.20539 0.470687,0.37344 0.713266,0.37344 0.242579,0 0.318764,-0.16805 0.168842,-0.37344 -0.149922,-0.2054 -0.470687,-0.37346 -0.713267,-0.37346 z m -11.688782,1.97445 c -0.140547,0.11899 0.70672,0.63836 1.883092,1.15461 1.176374,0.51626 3.032072,1.45094 4.123679,2.07728 2.047154,1.17462 3.329623,1.53947 2.189762,0.6229 -1.078825,-0.86753 -7.923124,-4.08629 -8.196533,-3.85479 z m -14.2946171,0.64404 c -0.077701,-9.7e-4 -0.078045,0.0369 0.012921,0.11815 0.3638693,0.32539 1.7476649,1.09386 3.0753152,1.70749 1.3276498,0.61364 2.5025299,1.04077 2.6101419,0.94966 0.258539,-0.21891 0.297456,-0.19681 -3.2596622,-1.83075 -1.2735423,-0.58498 -2.2056123,-0.94064 -2.4387159,-0.94455 z m 105.8657781,0.36897 c -0.24257,0 -0.44105,0.16805 -0.44105,0.37345 0,0.20539 0.19848,0.37345 0.44105,0.37345 0.24259,0 0.44105,-0.16806 0.44105,-0.37345 0,-0.2054 -0.19846,-0.37345 -0.44105,-0.37345 z m -11.959262,1.12908 c 0.428566,0.0638 1.298962,0.50256 2.763472,1.33842 1.29791,0.74079 3.45206,1.81418 4.78698,2.38581 1.33493,0.57164 2.92272,1.38884 3.52843,1.81543 1.93281,1.36128 -0.26396,0.91358 -4.03323,-0.82201 -6.43313,-2.96218 -6.887601,-3.20394 -7.161078,-3.80738 -0.300388,-0.6628 -0.31314,-0.97398 0.115426,-0.91027 z M 35.79311,138.1995 c -0.25686,0.007 -0.08151,0.25861 0.389367,0.56016 0.470878,0.30156 1.0663,0.54336 1.32316,0.53682 0.25686,-0.007 0.08151,-0.2586 -0.389366,-0.56016 -0.470879,-0.30156 -1.0663,-0.54337 -1.323161,-0.53682 z" />
    <g
       aria-label="XXIX"
       id="text757"
       style="font-size:40px;line-height:1.25;font-family:Hultog;-inkscape-font-specification:Hultog"
       transform="matrix(0.44105362,0,0,0.37344359,1.5856109,3.3746559)">
      <path
         d="m 58.176527,195.2812 q -0.513761,2.71559 -1.541284,2.42201 l -3.571866,-1.00305 q -4.30581,0 -4.892966,1.2477 l -1.663609,-1.17431 q 0.954129,-2.07951 2.17737,-2.07951 0.293578,0 0.562692,0.0979 0.244648,-0.22018 0.244648,-0.56269 0,-0.51376 -0.538226,-1.3945 -1.712539,-1.22324 -4.501529,-6.77676 h -0.171254 q -0.513762,-0.0245 -0.75841,0.46484 -2.495413,5.33333 -4.452599,7.16819 l 0.195718,0.88074 q 2.2263,0.29357 2.2263,1.81039 0,0.61162 -0.415902,1.59022 -0.905199,-0.70948 -1.785933,-0.88074 -0.366972,-0.0489 -1.981651,-0.0489 -3.082569,0 -4.525994,0.73395 l -1.051988,-0.58716 v -1.93272 l 2.88685,-0.73394 q 0.685015,-0.17126 6.948012,-9.17432 1.247707,-0.39143 1.247707,-1.17431 0,-0.78287 -0.905199,-1.49235 -1.247706,-1.02752 -1.370031,-1.19878 -0.782874,-1.07645 -2.103975,-3.40061 -1.321101,-2.32416 -2.079511,-3.37615 0,0 -1.834862,-1.63914 l -3.278288,-0.73395 0.978594,-2.10397 5.357798,0.68501 3.009174,-0.68501 1.370031,0.46483 v 1.66361 q -1.688074,0.31804 -1.663609,1.37003 v 0.17125 l 4.648318,6.87462 0.75841,-0.19572 q 0.929664,-3.57186 3.474006,-5.99388 v -1.24771 l -1.883792,-0.68501 -0.415902,-1.85933 1.051988,-0.53823 3.914373,0.66055 q 1.663608,-0.58715 2.88685,-0.58715 1.492355,0 1.810397,1.00306 -0.807339,2.1529 -3.180428,2.1529 -1.859327,2.42202 -3.718654,4.84404 -2.788991,3.74312 -3.107034,4.89296 1.541285,1.76147 4.40367,5.33334 0.489297,1.07645 1.614679,3.0581 0.954128,1.00306 2.788991,2.93578 z"
         id="path2981" />
      <path
         d="m 85.577116,195.2812 q -0.513761,2.71559 -1.541284,2.42201 l -3.571866,-1.00305 q -4.30581,0 -4.892966,1.2477 l -1.663609,-1.17431 q 0.954129,-2.07951 2.17737,-2.07951 0.293578,0 0.562692,0.0979 0.244648,-0.22018 0.244648,-0.56269 0,-0.51376 -0.538226,-1.3945 -1.712539,-1.22324 -4.501529,-6.77676 h -0.171254 q -0.513762,-0.0245 -0.75841,0.46484 -2.495413,5.33333 -4.452599,7.16819 l 0.195718,0.88074 q 2.2263,0.29357 2.2263,1.81039 0,0.61162 -0.415902,1.59022 -0.905199,-0.70948 -1.785933,-0.88074 -0.366972,-0.0489 -1.981651,-0.0489 -3.082569,0 -4.525994,0.73395 l -1.051988,-0.58716 v -1.93272 l 2.88685,-0.73394 q 0.685015,-0.17126 6.948012,-9.17432 1.247707,-0.39143 1.247707,-1.17431 0,-0.78287 -0.905199,-1.49235 -1.247706,-1.02752 -1.370031,-1.19878 -0.782874,-1.07645 -2.103975,-3.40061 -1.321101,-2.32416 -2.079511,-3.37615 0,0 -1.834862,-1.63914 l -3.278288,-0.73395 0.978594,-2.10397 5.357798,0.68501 3.009174,-0.68501 1.370031,0.46483 v 1.66361 q -1.688074,0.31804 -1.663609,1.37003 v 0.17125 l 4.648318,6.87462 0.75841,-0.19572 q 0.929664,-3.57186 3.474006,-5.99388 v -1.24771 l -1.883792,-0.68501 -0.415902,-1.85933 1.051988,-0.53823 3.914373,0.66055 q 1.663608,-0.58715 2.88685,-0.58715 1.492355,0 1.810397,1.00306 -0.807339,2.1529 -3.180428,2.1529 -1.859327,2.42202 -3.718654,4.84404 -2.788991,3.74312 -3.107034,4.89296 1.541285,1.76147 4.40367,5.33334 0.489297,1.07645 1.614679,3.0581 0.954128,1.00306 2.788991,2.93578 z"
         id="path2983" />
      <path
         d="m 98.788103,195.74603 q -0.415902,2.47095 -1.46789,2.2263 l -4.525994,-1.02752 q 0,0 -3.327217,0.31804 -0.954129,0.66055 -1.663609,0.66055 -1.003058,0 -1.565749,-1.46789 l 1.247706,-1.8104 q 0.587156,0.19572 1.223242,0.19572 2.103976,0 2.103976,-3.40061 0,-0.66055 -0.09786,-1.98165 -0.09786,-1.3211 -0.09786,-1.98165 0,-1.93273 0.09786,-5.82263 0.09786,-3.88991 0.09786,-5.82263 0,-1.66361 -0.978594,-2.61774 -0.66055,0.24465 -1.321101,0.24465 -1.149847,0 -1.932721,-0.92967 0.415902,-2.44648 1.443425,-2.2263 l 4.477064,0.9786 4.256881,-1.02753 1.761468,0.9052 -0.513762,1.76147 q -0.489297,-0.12232 -0.831804,-0.12232 -2.250765,0 -2.250765,3.84097 0,0.39144 0.02447,1.02753 0.02446,0.61162 0.02446,0.8318 0,1.61468 -0.09786,15.43731 l 1.027523,1.10092 q 0.66055,-0.22019 1.198776,-0.22019 1.076453,0 1.688075,0.92967 z"
         id="path2985" />
      <path
         d="m 126.28657,195.2812 q -0.51376,2.71559 -1.54128,2.42201 l -3.57187,-1.00305 q -4.30581,0 -4.89296,1.2477 l -1.66361,-1.17431 q 0.95413,-2.07951 2.17737,-2.07951 0.29358,0 0.56269,0.0979 0.24465,-0.22018 0.24465,-0.56269 0,-0.51376 -0.53823,-1.3945 -1.71254,-1.22324 -4.50153,-6.77676 h -0.17125 q -0.51376,-0.0245 -0.75841,0.46484 -2.49541,5.33333 -4.4526,7.16819 l 0.19572,0.88074 q 2.2263,0.29357 2.2263,1.81039 0,0.61162 -0.4159,1.59022 -0.9052,-0.70948 -1.78594,-0.88074 -0.36697,-0.0489 -1.98165,-0.0489 -3.08257,0 -4.52599,0.73395 l -1.05199,-0.58716 v -1.93272 l 2.88685,-0.73394 q 0.68502,-0.17126 6.94801,-9.17432 1.24771,-0.39143 1.24771,-1.17431 0,-0.78287 -0.9052,-1.49235 -1.24771,-1.02752 -1.37003,-1.19878 -0.78287,-1.07645 -2.10398,-3.40061 -1.3211,-2.32416 -2.07951,-3.37615 0,0 -1.83486,-1.63914 l -3.278286,-0.73395 0.978596,-2.10397 5.3578,0.68501 3.00917,-0.68501 1.37003,0.46483 v 1.66361 q -1.68807,0.31804 -1.66361,1.37003 v 0.17125 l 4.64832,6.87462 0.75841,-0.19572 q 0.92966,-3.57186 3.47401,-5.99388 v -1.24771 l -1.8838,-0.68501 -0.4159,-1.85933 1.05199,-0.53823 3.91437,0.66055 q 1.66361,-0.58715 2.88685,-0.58715 1.49236,0 1.8104,1.00306 -0.80734,2.1529 -3.18043,2.1529 -1.85933,2.42202 -3.71865,4.84404 -2.78899,3.74312 -3.10704,4.89296 1.54129,1.76147 4.40367,5.33334 0.4893,1.07645 1.61468,3.0581 0.95413,1.00306 2.78899,2.93578 z"
         id="path2987" />
    </g>
  </g>
</svg>
