<?xml version="1.0" encoding="UTF-8" standalone="no"?>
<!-- Created with Inkscape (http://www.inkscape.org/) -->

<svg
   version="1.1"
   id="svg2"
   width="4cm"
   height="4cm"
   viewBox="0 0 151.1811 151.1811"
   sodipodi:docname="30.svg"
   inkscape:version="1.1.2 (0a00cf5339, 2022-02-04)"
   xmlns:inkscape="http://www.inkscape.org/namespaces/inkscape"
   xmlns:sodipodi="http://sodipodi.sourceforge.net/DTD/sodipodi-0.dtd"
   xmlns="http://www.w3.org/2000/svg"
   xmlns:svg="http://www.w3.org/2000/svg">
  <defs
     id="defs6" />
  <sodipodi:namedview
     id="namedview4"
     pagecolor="#505050"
     bordercolor="#eeeeee"
     borderopacity="1"
     inkscape:pageshadow="0"
     inkscape:pageopacity="0"
     inkscape:pagecheckerboard="0"
     showgrid="false"
     inkscape:zoom="3.890909"
     inkscape:cx="57.570095"
     inkscape:cy="95.992993"
     inkscape:window-width="1920"
     inkscape:window-height="1043"
     inkscape:window-x="0"
     inkscape:window-y="0"
     inkscape:window-maximized="1"
     inkscape:current-layer="g8"
     units="cm"
     inkscape:document-units="cm" />
  <!-- Border -->
    <rect
       x="0"
       y="0"
       width="4cm"
       height="4cm"
       class="board-border"
       stroke-width="0.1cm"
       id="border"
       fill="none"
       stroke="#000000" />
  <g
     inkscape:groupmode="layer"
     inkscape:label="Image"
     id="g8">
    <path
       id="path112"
       style="fill:#000000;stroke-width:0.414464"
       d="m 4.2710928,2.5686211 c -1.6041774,-0.040407 -1.8718911,0.091215 -1.8718911,0.5046848 0,0.8357327 0.4020883,0.913609 5.5272512,1.0701392 2.4175881,0.073837 4.4690781,0.2121144 4.5590321,0.3075538 0.155556,0.1650413 -0.196457,5.6645081 -0.79226,12.3710761 -0.151027,1.700018 -0.367653,6.310213 -0.481899,10.244878 -0.351368,12.101236 -0.619761,19.491749 -0.864766,23.849134 -0.6666003,11.855396 -0.9223848,22.930258 -0.8965979,38.797734 0.015686,9.652003 -0.063416,17.549099 -0.1759596,17.549099 -0.112543,0 -1.6040064,-0.59762 -3.3140519,-1.32804 -3.4225418,-1.46189 -3.5607489,-1.49857 -3.5607489,-0.94563 0,0.41593 4.6219226,2.40034 6.5211133,2.79985 0.770687,0.16212 1.175127,0.50622 1.175127,0.99899 0,1.06426 -0.3791854,0.96567 -3.6544764,-0.95156 -2.742531,-1.60538 -4.0693069,-2.07683 -4.0196585,-1.42735 0.011965,0.15652 1.0815159,0.84891 2.3767801,1.53851 4.5146623,2.40363 5.3725668,3.17579 5.4795038,4.93124 0.05338,0.87632 -0.0166,1.5901 -0.155623,1.58668 -0.1390191,-0.003 -1.9336093,-0.76231 -3.9878263,-1.68673 -3.2767561,-1.47456 -3.73494,-1.59214 -3.73494,-0.95675 0,0.52537 0.9145468,1.09319 3.3299678,2.06691 1.8313485,0.73826 3.6648645,1.34212 4.0744801,1.34212 0.5808594,0 0.7445124,0.37576 0.7445124,1.70748 0,0.93911 -0.209887,1.70748 -0.465984,1.70748 -0.2560961,0 -1.7330951,-0.55214 -3.2822196,-1.22725 -4.0681231,-1.77288 -4.6622092,-1.96061 -3.9551105,-1.24652 0.3138703,0.31697 0.7287539,0.57657 0.9222402,0.57657 0.1934864,0 1.4115708,0.59762 2.7065936,1.32804 1.2950228,0.73042 2.7411644,1.32804 3.214135,1.32804 0.6154633,0 0.8603453,0.26969 0.8603453,0.9486 0,0.52173 -0.05484,0.9486 -0.122022,0.9486 -0.120196,0 -3.2841105,-1.42268 -6.1806895,-2.7791 -0.8127533,-0.3806 -1.5859178,-0.60134 -1.7180371,-0.49061 -0.5682578,0.47628 0.4043634,1.33694 2.4386754,2.15807 1.2027967,0.48549 2.4557489,1.10484 2.7844046,1.37621 0.328657,0.27137 1.0728209,0.59356 1.6543733,0.71589 0.9822333,0.20662 1.9752873,1.67562 1.1326843,1.67562 -0.208078,0 -1.6050089,-0.68299 -3.1044918,-1.51776 -2.8338534,-1.57762 -3.2229775,-1.72402 -3.2229775,-1.21095 0,0.36042 5.3040385,3.48759 5.9154233,3.48759 0.229196,0 0.40184,1.6221 0.382867,3.60468 -0.02,2.0897 -0.222067,3.60468 -0.480131,3.60468 -0.727949,0 -2.2797229,-0.76282 -4.7279176,-2.32407 -2.4894311,-1.58754 -2.9011217,-1.72842 -2.9011217,-0.99158 0,0.26339 1.680723,1.40459 3.73494,2.53602 4.1611333,2.29187 4.3970933,2.49303 4.4069463,3.7529 0.0069,0.8753 -0.03117,0.86848 -3.0487863,-0.5373 -1.680723,-0.78298 -3.5327475,-1.6814 -4.1160383,-1.99651 -1.0136729,-0.5476 -1.0536766,-0.53247 -0.90544,0.33721 0.1171034,0.68701 0.983893,1.29204 3.5395277,2.47006 2.94735,1.35858 3.4255704,1.72746 3.7004556,2.85395 0.1736163,0.71149 0.2383906,1.35797 0.1441275,1.43698 -0.094264,0.079 -0.8080051,-0.38967 -1.5854042,-1.04124 -1.3331309,-1.11734 -3.3725973,-1.88667 -3.8781834,-1.46292 -0.1259992,0.10564 0.5055752,0.57254 1.4032551,1.03754 0.8976799,0.46499 1.5148287,0.94402 1.3714233,1.06421 -0.1434053,0.1202 -1.2746643,0.17295 -2.5138339,0.11783 -2.1149274,-0.0941 -2.2529894,-0.0437 -2.2529894,0.81891 0,0.90837 0.063556,0.92207 5.54582,1.17389 14.1392573,0.64948 31.9802173,1.26771 45.3851803,1.57334 10.059456,0.22936 29.120838,0.81962 36.443959,1.12869 2.614458,0.11034 9.218964,0.29217 14.676269,0.40389 5.45729,0.11172 10.04108,0.26327 10.1862,0.33646 0.14511,0.0732 3.11563,0.24363 6.60157,0.3787 12.57613,0.4873 19.24251,1.03381 21.27784,1.74379 0.49799,0.17371 1.36382,0.32679 1.92406,0.34091 1.17552,0.0296 1.37034,-1.09627 0.50047,-2.89027 -0.66662,-1.37481 -0.50643,-8.88116 0.26969,-12.64083 0.3231,-1.56519 0.60431,-3.35805 0.62514,-3.98412 0.0325,-0.97876 -0.0861,-0.87239 -0.84797,0.75888 -0.48736,1.04346 -0.88666,2.36332 -0.88687,2.93325 -2.9e-4,0.81664 -0.26382,1.08917 -1.24498,1.28653 -1.60926,0.32371 -2.685,1.26956 -4.66425,4.10122 -0.95798,1.37055 -1.96452,2.34696 -2.48996,2.41596 -0.48508,0.0637 -1.28902,0.26112 -1.78701,0.43799 -2.46267,0.87467 -3.89799,1.13257 -7.01716,1.26208 -3.12393,0.1297 -3.40752,0.20993 -3.54571,1.00196 -0.11845,0.67883 0.0251,0.82001 0.67908,0.66698 0.4561,-0.10673 2.05174,-0.30844 3.54571,-0.44762 3.25103,-0.30288 8.13598,-1.38647 10.11458,-2.24403 1.07948,-0.46786 1.42978,-0.87575 1.42978,-1.66449 0,-1.1479 2.77457,-3.86851 3.94538,-3.86851 0.56068,0 0.62508,0.46046 0.38464,2.75094 -0.15882,1.51301 -0.47353,3.43393 -0.69942,4.2687 -0.22589,0.83476 -0.5291,1.99086 -0.67377,2.56937 -0.21431,0.85697 -0.40807,0.98654 -1.0478,0.69959 -0.43184,-0.19371 -4.65463,-0.54229 -9.38333,-0.77518 -4.7287,-0.2329 -10.90524,-0.58919 -13.72572,-0.79149 -2.8205,-0.20231 -6.58939,-0.37823 -8.37532,-0.39056 -1.78594,-0.0123 -10.988371,-0.27077 -20.450219,-0.57435 -9.461848,-0.30357 -22.805769,-0.71295 -29.653159,-0.91006 -6.84739,-0.19711 -13.366558,-0.44403 -14.48704,-0.54915 -1.120482,-0.10512 -6.213582,-0.2809 -11.318,-0.38982 -12.248776,-0.26136 -21.572329,-0.65711 -22.098395,-0.93822 -0.259219,-0.13851 -0.271328,-1.11361 -0.03095,-2.50341 0.216575,-1.25215 0.267819,-4.19756 0.11318,-6.54534 -0.271537,-4.12264 -0.249586,-4.2687 0.643711,-4.2687 0.680553,0 6.426447,2.23731 7.201962,2.8043 0.398121,0.29108 -1.226163,4.36867 -2.862217,7.18638 -0.803896,1.38452 -0.786169,1.77196 0.07958,1.77196 1.109744,0 3.417855,-4.55213 3.703993,-7.30496 0.378669,-3.64305 1.442156,-5.16805 4.69697,-6.73432 1.94658,-0.93673 3.016835,-1.74934 3.63237,-2.75835 1.615817,-2.64872 2.141639,-10.38005 0.844429,-12.41925 -0.199135,-0.31304 -0.464729,-1.11391 -0.589774,-1.77936 -0.12504,-0.66546 -0.379083,-1.41606 -0.565015,-1.66821 -0.254868,-0.34563 0.207473,-0.40058 1.879849,-0.22455 7.790836,0.82008 11.34965,1.07042 13.569221,0.95601 l 2.520907,-0.12969 -0.111411,4.33762 c -0.110153,4.2778 -0.09656,4.34293 0.986788,4.70002 1.107281,0.36498 2.304508,0.78506 5.6254,1.97279 2.142483,0.76626 1.474934,1.16314 -0.991208,0.58917 -0.94858,-0.22077 -3.711421,-0.40276 -6.139132,-0.4039 l -4.41402,-0.002 -0.0504,-2.3715 c -0.02756,-1.30432 -0.0085,-2.78456 0.04244,-3.28971 0.185975,-1.84402 -0.502249,-4.96311 -1.095547,-4.96311 -0.456911,0 -0.574369,1.31624 -0.533184,5.97618 l 0.05217,5.97618 1.1318,-0.1786 c 1.814621,-0.28689 8.393718,-0.22721 14.207625,0.12895 3.939162,0.24131 5.294859,0.21592 5.065693,-0.0949 -0.17212,-0.23342 -0.85005,-0.42465 -1.506711,-0.42465 -0.656657,0 -1.985594,-0.4599 -2.953292,-1.02197 -0.967703,-0.56207 -3.11729,-1.29935 -4.777432,-1.63856 -2.549887,-0.52101 -3.084227,-0.77349 -3.442264,-1.6267 -0.233105,-0.55549 -0.315933,-1.1003 -0.183918,-1.21094 0.269751,-0.22609 2.19292,0.33651 7.171899,2.09803 4.224266,1.49451 5.88536,1.92085 5.88536,1.51183 0,-0.26989 -3.620764,-1.63801 -11.463899,-4.33169 -1.392326,-0.47819 -1.699952,-0.76221 -1.573907,-1.45551 0.08616,-0.4739 0.355524,-0.8269 0.598617,-0.78407 0.243084,0.0428 2.96667,1.03052 6.052477,2.19511 3.085803,1.16459 5.832143,2.05584 6.102879,1.98021 0.455581,-0.12728 -6.539242,-3.11818 -10.879428,-4.65185 -1.473526,-0.52069 -1.924521,-0.90034 -2.07261,-1.74601 -0.104072,-0.59431 -0.131595,-1.08052 -0.06101,-1.08052 0.439295,0 7.796066,3.17624 10.928943,4.71855 2.059211,1.01374 3.892233,1.71867 4.073597,1.56667 0.67463,-0.56544 -6.262756,-4.07257 -10.52574,-5.32105 -1.649367,-0.48305 -3.124143,-0.98286 -3.276914,-1.1109 -0.152775,-0.12805 0.964312,-0.23271 2.482001,-0.23271 1.780965,0 2.987291,0.19154 3.402472,0.53952 0.35381,0.29654 1.441533,0.71891 2.416569,0.93896 0.975037,0.22005 2.760723,0.92551 3.968376,1.56742 2.129677,1.13198 2.976797,1.26353 2.309579,0.35869 -0.377157,-0.51148 -5.882861,-2.64571 -6.825284,-2.64571 -0.350283,0 -0.636637,-0.17075 -0.636637,-0.37944 0,-0.22136 1.555971,-0.38458 3.73494,-0.3913 2.541755,-0.008 3.503572,-0.12496 3.009881,-0.36684 -0.398995,-0.19548 -5.186509,-0.37566 -10.63892,-0.40093 -6.203808,-0.0288 -14.572642,-0.38513 -22.363661,-0.95156 -6.84739,-0.49784 -12.755386,-0.89587 -13.12888,-0.88487 -0.603627,0.0178 -0.603627,0.043 0,0.229 0.373494,0.1151 0.984666,0.4162 1.35816,0.66846 0.373494,0.25227 2.105148,0.94953 3.84812,1.54963 1.742972,0.6001 3.780212,1.395 4.5272,1.76677 0.746988,0.37178 1.686626,0.67658 2.088524,0.67736 0.749643,0.002 1.079292,1.14689 1.60751,5.59081 l 0.236086,1.98539 -6.946422,-2.81467 c -3.820248,-1.54784 -7.811365,-3.03758 -8.869598,-3.31047 -1.520261,-0.39203 -1.92406,-0.67597 -1.92406,-1.35249 0,-1.00972 0.103184,-1.02719 1.775511,-0.30237 0.702717,0.30457 3.595159,1.33746 6.42827,2.29516 2.833111,0.95771 5.822675,2.00097 6.643136,2.31815 0.820461,0.31717 1.719782,0.51284 1.998334,0.43502 0.602051,-0.1682 -1.815244,-1.40298 -4.489178,-2.29295 -1.823178,-0.60681 -3.402046,-1.18938 -8.592838,-3.17114 -1.29181,-0.49319 -2.666947,-0.89672 -3.05586,-0.89672 -0.388914,0 -0.707375,-0.24661 -0.707375,-0.54841 0,-0.68191 2.505935,-0.11915 9.192338,2.06617 2.441152,0.79785 4.36025,1.25583 4.265471,1.01752 -0.09478,-0.23831 -1.0729,-0.71902 -2.174294,-1.06866 -1.101394,-0.34963 -3.428823,-1.09504 -5.171795,-1.65634 -1.742972,-0.5613 -3.831143,-1.18345 -4.64038,-1.38214 -0.809237,-0.19869 -1.47134,-0.59458 -1.47134,-0.88042 0,-0.28584 -0.223839,-0.58254 -0.496931,-0.65883 -0.4909,-0.13733 -0.552001,-8.071626 -0.158276,-20.414348 0.08987,-2.817342 0.280579,-11.866984 0.424425,-20.110317 0.143846,-8.243332 0.446929,-16.183113 0.672891,-17.643957 0.859171,-5.554531 0.887243,-5.999723 1.581867,-24.473875 0.09808,-2.60865 0.289231,-4.999122 0.424425,-5.31216 0.135194,-0.313037 0.09848,-2.821286 -0.08223,-5.573765 l -0.328929,-5.0046053 6.56444,0.1497009 c 3.610442,0.082213 9.212852,0.242558 12.4498,0.356466 3.236948,0.113908 8.94122,0.297142 12.67616,0.4068604 3.73494,0.1097182 8.929902,0.3648122 11.54436,0.5669365 2.614458,0.2021242 8.420592,0.3310139 12.902519,0.2868035 12.318883,-0.1215157 37.941427,0.7167415 44.500077,1.370282 -0.0332,-0.3402476 -0.081,-0.8362435 -0.12468,-1.4332751 C 109.24005,5.983171 103.3575,5.7469385 100.41308,5.5900599 86.444465,4.845812 84.196398,4.7779379 68.269962,4.6214504 32.363568,4.268647 21.138686,3.9853699 13.943562,3.2489451 11.951594,3.0450661 8.5392167,2.7807633 6.3605017,2.6619989 5.4892806,2.6145076 4.8058186,2.5820901 4.2710928,2.5686211 Z M 70.805017,7.8904145 c -0.132756,-0.015553 -0.258114,0.011789 -0.357223,0.09486 -0.138714,0.1162433 -0.13133,0.4746368 0.01589,0.7966755 0.338345,0.7390006 1.201655,0.7666272 1.201655,0.038537 0,-0.4532307 -0.462073,-0.883412 -0.860345,-0.9300725 z m -0.409395,1.4480968 c -0.0918,-0.035724 -0.190006,-0.011941 -0.292674,0.07411 -0.112433,0.094234 -0.314297,5.6290667 -0.448302,12.2999307 -0.134,6.670864 -0.344524,13.409348 -0.46775,14.974538 -0.295142,3.748889 -1.133031,21.266496 -1.138871,23.809856 -0.0053,2.28682 -0.235777,2.375601 -3.229171,1.24133 -3.833664,-1.452671 -3.910174,-1.625217 -3.971907,-8.934623 -0.02992,-3.542614 0.147532,-7.721455 0.39436,-9.286644 0.246832,-1.56519 0.672452,-4.968691 0.94523,-7.563602 l 0.495162,-4.718543 -1.733071,-1.230215 C 59.995372,29.327897 57.58577,28.265515 55.593802,27.643524 49.388704,25.705986 42.091629,23.338372 40.201322,22.649294 37.270246,21.580823 30.153916,19.232853 29.846236,19.232853 c -0.155876,0 -0.283834,0.343852 -0.283834,0.764067 0,0.420216 -0.18897,1.060521 -0.420004,1.4229 -0.692578,1.086314 -1.364702,5.73601 -1.686206,11.666296 l -0.303287,5.587846 0.989441,-0.263088 c 1.12124,-0.298265 7.446118,2.146389 10.981113,4.244244 1.999318,1.186501 5.065102,2.18932 10.25959,3.356412 2.21022,0.496592 5.984393,1.891759 5.984393,2.212165 0,0.167804 -4.69381,-0.08261 -10.06241,-0.537294 -2.90897,-0.24637 -4.698661,-0.640362 -6.78461,-1.493305 -1.558216,-0.637152 -3.095258,-1.158328 -3.415737,-1.158328 -0.32048,0 -2.181948,-0.674143 -4.136375,-1.497752 l -3.552792,-1.497008 -0.484551,2.730188 c -0.266234,1.501858 -0.461687,6.851411 -0.435036,11.887144 l 0.04775,9.155472 6.828821,0.249747 c 6.895689,0.252252 8.613037,0.398435 18.781689,1.600763 6.027419,0.712671 5.882671,0.650473 8.95802,3.870731 0.549915,0.57583 1.630716,1.010141 3.078849,1.236887 2.60209,0.407439 2.735439,0.501225 3.111568,2.184743 0.248253,1.111152 0.184103,1.236663 -0.505775,0.987875 -1.026234,-0.370086 -12.761126,-0.797704 -19.574833,-0.713673 -4.798193,0.05918 -5.460297,0.151954 -6.751894,0.952307 -0.787567,0.488021 -1.548625,1.27776 -1.69151,1.75491 -0.142886,0.477149 -0.527545,0.867821 -0.854156,0.867821 -0.32661,0 -1.4755,0.80228 -2.553623,1.783071 -1.078124,0.980792 -3.029864,2.692131 -4.337093,3.80255 -1.307229,1.110423 -2.379439,2.143684 -2.38297,2.295908 -0.0035,0.152227 -0.767479,0.999919 -1.6977,1.884602 -0.93022,0.884679 -2.608268,2.560275 -3.72875,3.723254 -1.120482,1.162984 -4.017399,3.850845 -6.437113,5.972476 -3.521549,3.087736 -4.260205,3.922496 -3.702224,4.184216 0.463239,0.21728 0.985455,0.10833 1.556225,-0.3246 0.953954,-0.72357 0.695928,-0.72875 17.411152,0.36462 4.97992,0.32575 10.480468,0.67962 12.22344,0.7863 1.742972,0.10667 4.085798,0.27465 5.20628,0.37351 1.120482,0.0989 5.907996,0.27675 10.63892,0.39575 4.730924,0.11899 12.597051,0.3754 17.480121,0.5699 11.212367,0.4466 49.296075,0.47937 49.296075,0.0422 0,-0.5571 -7.68018,-0.80902 -25.57868,-0.83892 -9.461845,-0.0158 -20.259217,-0.18637 -23.994157,-0.3787 -3.73494,-0.19233 -9.846659,-0.35983 -13.581599,-0.37277 -3.73494,-0.0129 -9.541074,-0.27098 -12.90252,-0.57286 -5.49724,-0.4937 -28.462348,-1.6732 -32.70902,-1.68006 -0.933735,-0.002 -1.6977,-0.13522 -1.6977,-0.29644 0,-0.16123 1.146065,-1.313782 2.54655,-2.561225 1.400484,-1.247446 3.081207,-2.873221 3.73494,-3.613573 2.524431,-2.858788 7.06856,-6.812131 7.830641,-6.812131 0.491639,0 0.707484,-0.200902 0.560594,-0.52173 -0.265838,-0.580626 1.860794,-2.647307 3.103608,-3.016251 0.43948,-0.130467 0.982535,-0.625621 1.206959,-1.100524 0.224424,-0.474907 1.137845,-1.362603 2.030166,-1.972792 0.892322,-0.610185 1.63728,-1.293177 1.655258,-1.51776 0.01798,-0.224579 0.751337,-0.909616 1.629615,-1.522206 l 1.596899,-1.113861 8.669765,0.09486 c 4.768405,0.05227 12.540521,0.132595 17.271445,0.177862 11.891265,0.113787 26.042305,0.684411 25.78028,1.039753 -0.119627,0.162225 -2.400502,1.002112 -5.069223,1.866074 -2.668726,0.863962 -6.332132,2.356739 -8.141006,3.317136 -2.778316,1.475114 -3.289292,1.907558 -3.289292,2.787252 0,0.572738 -0.356517,1.576338 -0.79226,2.229949 -0.782911,1.174363 -0.778714,1.198052 0.367835,2.03801 0.638132,0.467497 1.293901,1.141845 1.457193,1.498492 0.404528,0.883553 0.885163,0.816035 2.136272,-0.300145 1.653492,-1.475167 2.373055,-1.247359 2.191093,0.693662 -0.131674,1.404573 0.05688,1.843604 1.300687,3.032556 0.799875,0.764598 2.225943,1.629551 3.16904,1.922399 0.943102,0.292848 2.78928,0.878927 4.102775,1.302101 2.589418,0.834252 4.445199,0.669229 6.033911,-0.535811 0.794089,-0.602315 1.442864,-0.595125 3.875531,0.04076 0.76857,0.200902 1.4766,-0.13716 3.2884,-1.570376 2.49176,-1.971088 3.19503,-3.353779 3.19911,-6.286698 0.002,-1.411547 -0.20606,-1.903305 -1.00359,-2.371499 -0.55339,-0.324869 -1.36829,-0.590652 -1.81088,-0.590652 -1.43036,0 -0.85375,-0.718746 0.89306,-1.113121 1.59472,-0.360035 7.30603,-3.227706 11.08015,-5.56339 1.83096,-1.133125 3.10091,-1.302576 6.23639,-0.834472 1.12048,0.167284 6.11077,0.402157 11.08899,0.52247 5.54038,0.133897 9.28431,0.380753 9.65213,0.636601 0.46946,0.32655 0.5451,1.560569 0.34838,5.641202 l -0.25111,5.22323 -2.38386,1.823091 c -1.31079,1.002443 -4.88525,3.956697 -7.94382,6.565347 -4.8362,4.12479 -5.42629,4.76063 -4.5272,4.8764 0.56861,0.0732 1.1751,0.3241 1.34843,0.55804 0.23143,0.31237 0.8651,0.30263 2.38386,-0.0378 3.58648,-0.80397 6.58212,-0.41943 6.58212,0.84559 0,0.2883 0.21332,0.5838 0.47395,0.65661 0.72123,0.20149 1.11057,3.37056 1.11057,9.03763 0,4.87377 -0.0634,5.23004 -1.30157,7.3435 -1.08517,1.85231 -1.76199,2.46182 -4.07448,3.66693 -4.34766,2.26571 -7.09741,4.23606 -8.01544,5.74422 -1.08595,1.78402 -2.21269,4.49654 -2.22116,5.34773 -0.0124,1.24728 0.77773,0.66633 1.74457,-1.28357 0.53119,-1.07129 0.96556,-2.19747 0.96556,-2.50193 0,-1.09594 2.51474,-3.10593 7.01716,-5.60935 1.95052,-1.08452 4.41098,-2.05566 5.24695,-2.07061 1.40816,-0.0252 2.20978,-3.81835 2.505,-11.85601 0.17188,-4.67956 0.0984,-5.34657 -0.72506,-6.63428 -0.50355,-0.78747 -0.91517,-1.64549 -0.91517,-1.90683 0,-0.26134 -0.83295,-0.91584 -1.85155,-1.45477 -1.69028,-0.89431 -2.11523,-0.95736 -4.86674,-0.71738 l -3.01519,0.26309 1.10793,-1.09015 c 0.98307,-0.96729 3.62023,-3.297368 9.2392,-8.162406 0.96012,-0.831288 1.82042,-1.448986 1.91168,-1.372506 0.0913,0.07648 0.20647,5.252651 0.25554,11.501772 0.10009,12.74595 0.40453,17.85753 1.05487,17.71807 0.27031,-0.058 0.47689,-4.66605 0.53672,-11.95236 0.0536,-6.52191 0.34102,-13.736467 0.63841,-16.032079 0.29738,-2.295612 0.61115,-5.283701 0.69765,-6.640199 0.0865,-1.356498 0.26184,-3.576221 0.38994,-4.932719 0.28341,-3.002292 0.30264,-3.368076 0.28295,-5.407019 -0.009,-0.886941 0.078,-2.210238 0.19187,-2.94066 0.69493,-4.45887 0.92009,-10.065657 1.40857,-35.098194 0.0749,-3.839088 0.11577,-6.340903 0.16534,-9.18215 -0.0908,0.003 -0.18122,0.0049 -0.27234,0.0067 -0.14153,0.114926 -0.28119,0.135722 -0.86211,0.0541 -0.003,-4.55e-4 -0.007,-9.49e-4 -0.01,-0.0015 0.0239,-0.0011 0.0353,-0.0016 0.0654,-0.003 -0.0169,-0.01373 -0.0352,-0.02637 -0.0522,-0.04002 -0.42603,-0.01508 -0.86554,-0.03818 -1.30157,-0.08374 -0.24751,11.333716 -0.65261,25.301571 -0.96557,30.877665 -0.082,1.460844 -0.26075,4.705055 -0.39701,7.209359 -0.33909,6.231872 -0.61015,8.942807 -0.92047,9.202902 -0.14423,0.120882 -0.26262,0.55108 -0.26262,0.95601 0,0.551008 -0.19932,0.668095 -0.79226,0.466146 -2.6681,-0.908724 -4.39443,-1.042735 -13.24206,-1.029379 l -9.73348,0.01484 0.15916,-2.110634 c 0.12228,-1.623396 -0.0629,-2.441059 -0.80198,-3.543169 -0.52841,-0.787994 -1.47016,-3.024906 -2.09295,-4.971255 -0.62279,-1.946345 -1.45119,-4.307087 -1.84095,-5.246201 -0.38974,-0.939114 -0.84614,-2.219723 -1.01419,-2.845799 -0.16805,-0.626076 -0.84559,-1.999247 -1.50494,-3.051084 -1.03649,-1.653471 -2.22345,-2.711801 -6.38848,-5.693823 -0.72696,-0.520455 -0.73837,-0.637304 -0.11318,-1.161291 0.38238,-0.320494 0.69499,-1.068913 0.69499,-1.663013 0,-0.594101 0.11022,-1.320607 0.24493,-1.614843 0.13472,-0.294241 -0.48035,-1.418635 -1.367,-2.498969 -1.54518,-1.882694 -1.58202,-2.003242 -0.8851,-2.894713 0.39991,-0.511546 0.60923,-1.090336 0.4651,-1.285797 -0.14414,-0.195456 -0.29149,-1.437013 -0.32717,-2.759832 -0.0357,-1.322819 -0.22568,-2.664468 -0.42265,-2.98142 -0.19698,-0.316952 -0.46263,-0.861843 -0.58977,-1.210206 -0.12715,-0.348362 -1.59782,-1.500911 -3.26896,-2.561219 -2.432865,-1.543613 -3.408504,-1.936813 -4.895037,-1.972792 -1.021101,-0.02472 -2.060583,-0.0087 -2.309579,0.03557 -0.248996,0.04429 -1.165754,0.176252 -2.03724,0.292732 -2.311918,0.309005 -5.415382,2.204312 -5.723548,3.495739 -0.139828,0.585957 -1.162459,1.935714 -2.272442,2.999206 -1.976911,1.894101 -2.847622,3.875765 -2.2636,5.15134 0.383843,0.838369 1.751479,0.297955 1.425362,-0.56323 -0.402966,-1.064122 0.941512,-3.437364 1.792309,-3.163728 0.835604,0.268748 0.88318,1.10868 0.194529,3.400879 -0.504868,1.680478 -0.521447,1.691622 -2.107977,1.442167 l -1.59955,-0.251231 0.28295,2.266266 c 0.384268,3.081379 0.608537,3.449686 2.631435,4.314646 1.56958,0.671126 2.425483,1.873484 1.3334,1.873484 -0.232218,0 -0.540457,0.310625 -0.684386,0.690699 -0.143928,0.380073 -1.532353,1.186641 -3.085925,1.791965 -4.085893,1.592005 -6.209729,2.870213 -9.411623,5.664921 -3.688468,3.2194 -4.277661,3.235712 -3.830437,0.105234 0.363725,-2.545993 0.466021,-4.075959 0.885104,-13.185538 0.424561,-9.228599 0.775659,-15.94216 0.952306,-18.213116 0.195407,-2.512273 0.184393,-13.265494 -0.01594,-15.297655 -0.104169,-1.06091 -0.321122,-1.6987991 -0.596516,-1.8059685 z M 30.148639,21.130052 c 0.249514,0 2.919015,0.752376 5.932223,1.671908 3.013208,0.919531 6.904688,2.041959 8.64766,2.494521 1.742972,0.452561 4.965672,1.578414 7.161287,2.501932 2.195616,0.923518 4.385649,1.679318 4.86674,1.679318 0.481092,0 0.874493,0.1733 0.874493,0.385369 0,0.212068 0.734728,0.679545 1.632268,1.038272 1.618189,0.646754 1.629095,0.667679 1.37319,2.55455 -0.141941,1.046567 -0.481065,3.781356 -0.754236,6.076967 -0.273176,2.295612 -0.636995,4.977668 -0.808177,5.959875 l -0.311245,1.785295 -1.92406,-0.723307 c -1.894326,-0.712634 -2.447201,-0.59187 -1.38115,0.301624 0.766129,0.642119 -0.137061,0.544481 -1.200767,-0.129693 -0.486502,-0.308336 -1.505122,-0.714534 -2.2636,-0.902649 -4.366822,-1.08302 -10.483331,-3.152357 -11.793712,-3.99005 -1.732899,-1.107802 -10.476078,-4.767454 -11.389621,-4.767454 -0.33332,0 -0.60569,-0.341496 -0.60569,-0.75888 0,-0.417384 0.215116,-0.75888 0.478362,-0.75888 0.263247,0 2.401532,0.768366 4.751791,1.70748 2.35026,0.939114 4.408099,1.707479 4.572296,1.707479 0.164196,0 0.95493,0.41978 1.757826,0.933036 1.666192,1.065156 14.401822,6.036768 13.972426,5.454449 -0.155011,-0.21021 -2.449677,-1.248578 -5.098406,-2.307765 -6.110015,-2.443294 -7.089405,-2.963498 -6.326585,-3.358635 0.318891,-0.165185 0.4379,-0.419282 0.264381,-0.564714 -0.173519,-0.145432 -0.617009,-0.05515 -0.98502,0.200836 -0.545866,0.3797 -1.110411,0.226282 -3.06647,-0.83373 -1.31873,-0.714635 -4.075045,-1.966871 -6.124983,-2.782806 l -3.726983,-1.48367 -0.008,-2.254407 c -0.01228,-3.560442 0.983854,-10.836271 1.483719,-10.836271 z m 117.484371,2.897677 c -0.006,2.52e-4 -0.0124,4.93e-4 -0.0186,7.58e-4 -0.0598,0.0473 -0.12524,0.08673 -0.19276,0.122281 0.0694,0.03471 0.14114,0.06914 0.21133,0.103753 7e-5,-0.07559 -9e-5,-0.151183 0,-0.226775 z M 35.565363,26.852036 c -1.187842,-0.0588 -2.22439,0.02045 -2.652656,0.260124 -0.726113,0.406359 -1.539425,1.821997 -1.539425,2.679795 0,0.885374 0.767765,1.192543 2.345832,0.939707 1.795307,-0.287644 6.38608,0.857935 9.996093,2.49452 l 3.276915,1.485893 0.02918,3.169658 c 0.02655,2.872513 0.111343,3.168916 0.90544,3.168916 0.562174,0 0.928131,-0.30362 1.020391,-0.847813 0.135779,-0.800878 0.223996,-0.819907 1.58452,-0.3409 0.7924,0.278983 2.744918,1.215259 4.339746,2.080989 1.594829,0.865734 3.224621,1.567018 3.62176,1.558519 1.179838,-0.02519 -1.779357,-1.917739 -5.819045,-3.721771 -2.004685,-0.89524 -3.644749,-1.786855 -3.644749,-1.980943 0,-0.515494 -0.01381,-0.519424 5.064805,1.543698 2.567551,1.04304 4.725414,1.896822 4.795119,1.897201 0.0697,3.8e-4 -0.306785,-0.491636 -0.837355,-1.093113 -0.585575,-0.663833 -2.553255,-1.725657 -5.00645,-2.702769 -3.625295,-1.443962 -4.006286,-1.693231 -3.696916,-2.416707 0.478444,-1.118864 0.240431,-5.991065 -0.315668,-6.457149 -0.306152,-0.2566 -0.456255,0.07933 -0.456255,1.021968 0,1.314841 -0.535106,1.832918 -1.100853,1.065693 -0.300796,-0.407918 -4.620692,-2.330893 -5.642199,-2.511566 -0.399715,-0.0707 -1.61794,-0.397383 -2.707478,-0.726272 -1.033756,-0.31205 -2.372908,-0.508874 -3.560749,-0.567678 z m -1.606626,1.194643 c 0.240536,-0.01403 0.555431,-0.01153 0.967335,0.0044 0.549207,0.0213 1.270939,0.06672 2.21939,0.128951 2.178715,0.142962 4.025926,0.3061 4.105427,0.362395 0.0795,0.05629 -0.122155,0.460499 -0.448299,0.898205 -0.638921,0.857467 -1.009651,0.921615 -2.412148,0.416494 -0.497992,-0.179356 -1.873129,-0.338092 -3.05586,-0.352761 -1.856491,-0.02302 -2.15042,-0.133327 -2.15042,-0.805568 0,-0.419484 0.05297,-0.610066 0.774575,-0.652163 z m 8.655618,1.431052 c 0.806566,0 5.28509,2.906459 5.426452,3.521677 0.210673,0.916857 -0.240214,0.816027 -3.199105,-0.716638 -1.706252,-0.883814 -2.60314,-1.599127 -2.60314,-2.076544 0,-0.400604 0.169324,-0.728495 0.375793,-0.728495 z m 52.732151,0.0074 c 2.35845,0.009 6.018814,1.823699 6.697964,3.320841 0.25802,0.568807 0.74342,1.290307 1.07874,1.603727 0.33532,0.31342 0.86292,1.603929 1.17248,2.867291 0.35619,1.453682 0.40937,2.526202 0.14501,2.922133 -0.35475,0.531284 -0.58779,0.414796 -1.54385,-0.773703 -2.931604,-3.644357 -7.487108,-6.072817 -12.147394,-6.474934 l -2.871942,-0.247526 0.968218,-1.029379 c 0.568644,-0.604619 1.615577,-1.131172 2.537709,-1.276163 0.863445,-0.135764 1.68151,-0.398207 1.817951,-0.58324 0.136445,-0.185034 1.101577,-0.333008 2.145114,-0.329047 z M 39.299418,32.89268 c -0.584425,0 -0.664752,0.390574 -0.474825,2.301837 0.125803,1.265981 0.346167,2.461217 0.489857,2.65608 0.429407,0.58233 1.109506,0.40167 1.166285,-0.309777 0.261819,-3.280878 -0.0858,-4.64814 -1.181317,-4.64814 z m 51.109611,0.77222 c 1.147002,-0.03927 2.594633,0.199602 3.796836,0.736647 2.693091,1.203049 3.247673,1.689527 2.963903,2.599015 -0.150851,0.483474 -0.0486,0.824838 0.247579,0.824838 0.278038,0 0.505774,-0.285702 0.505774,-0.635118 0,-0.525879 0.194937,-0.481994 1.1318,0.255678 1.330669,1.047751 1.529449,3.045927 0.381983,3.842569 -0.683662,0.474641 -0.721364,0.39033 -0.420889,-0.954527 L 99.34583,38.858484 98.290956,39.886381 97.2352,40.91502 96.207738,39.749278 c -0.998247,-1.131644 -0.821103,-1.62123 0.259074,-0.715896 0.728856,0.610878 1.266325,0.08411 0.600388,-0.588428 -0.986504,-0.996263 -2.258688,-0.986792 -3.207064,0.02372 -0.828822,0.883123 -0.842571,1.032086 -0.195412,2.080992 0.629552,1.020367 0.880857,1.118532 2.590763,1.005664 1.664062,-0.109845 1.883247,-0.03316 1.807339,0.633634 -0.256552,2.25363 1.666752,5.501879 3.257464,5.501879 1.51079,0 3.33183,-0.879641 3.58727,-1.732678 0.32254,-1.07706 1.16452,-1.243607 1.16452,-0.23048 0,0.854066 -1.82113,2.342598 -2.86575,2.342598 -0.7351,0 -3.582204,2.158489 -5.509569,4.176803 -3.403458,3.564056 -4.202536,4.60708 -5.327418,6.95368 -0.694491,1.448767 -1.170988,2.710689 -1.059293,2.804301 0.210212,0.176189 0.452575,-0.128452 3.005459,-3.774392 0.836255,-1.194314 2.007111,-2.645671 2.602257,-3.225239 1.268974,-1.235772 2.981198,-3.030925 3.867574,-4.055265 0.61445,-0.710091 0.66888,-0.707735 2.68537,0.110425 2.6153,1.061111 7.70684,4.953361 8.60787,6.580171 2.00534,3.620635 2.54845,4.790395 2.52975,5.450002 -0.0344,1.214049 1.05012,5.63474 1.47665,6.019162 0.21997,0.198258 0.39966,0.75885 0.39966,1.245778 0,0.486931 0.48038,1.691 1.06725,2.675347 1.9552,3.279424 1.93758,3.76988 -0.19453,5.41962 -1.03739,0.802687 -3.03326,2.077574 -4.43523,2.832459 -4.01497,2.161836 -10.04363,5.110581 -10.44794,5.110581 -0.20237,0 -1.1948,-0.896426 -2.20524,-1.992059 -3.065309,-3.323773 -5.028131,-5.064924 -5.026782,-4.45842 9.05e-4,0.313038 0.604494,1.160578 1.341364,1.883119 0.73687,0.722537 1.339589,1.53359 1.339589,1.80234 0,0.268746 0.298429,0.488381 0.663163,0.488381 0.364734,0 0.899328,0.384183 1.187507,0.85374 1.035749,1.687627 2.776709,2.934038 3.798609,2.719074 0.58358,-0.12276 1.39104,0.07961 2.01955,0.506165 0.93754,0.63629 0.98197,0.797226 0.42797,1.540735 -0.80057,1.074411 -1.46491,1.051219 -2.18491,-0.07633 -0.66768,-1.045623 -2.58059,-2.02089 -3.08151,-1.57112 -0.18712,0.168012 -0.0463,0.392894 0.31302,0.499498 1.03036,0.305669 2.74196,1.885509 2.74196,2.530834 0,0.370918 -0.41176,0.586204 -1.1203,0.586204 -0.80545,0 -1.33384,-0.345988 -1.87985,-1.230956 -0.75658,-1.226236 -0.7604,-1.226995 -1.224645,-0.354985 -0.356359,0.669366 -0.713496,0.82329 -1.516436,0.654386 -0.577439,-0.12147 -1.049568,-0.06088 -1.049568,0.13488 0,0.540986 4.173699,1.336205 8.019859,1.528133 0.30249,0.0151 0.76464,0.362749 1.02658,0.772961 0.40411,0.63286 0.27239,0.834028 -0.86741,1.32804 -0.73881,0.320209 -1.48634,0.582501 -1.66145,0.582501 -0.17512,0 -1.1025,-0.711264 -2.06023,-1.580754 -1.37609,-1.249295 -1.741029,-1.426862 -1.741029,-0.845586 0,0.404559 0.614259,1.360413 1.365229,2.123972 0.77554,0.788559 1.17137,1.48926 0.91605,1.621514 -0.60895,0.315436 -4.178289,-0.51542 -3.890558,-0.905617 0.414139,-0.561628 -1.525268,-3.436315 -2.176945,-3.22672 -0.3765,0.121091 -0.833711,-0.253283 -1.19016,-0.974538 -0.63992,-1.294831 -2.457894,-2.66275 -3.53864,-2.66275 -0.543817,0 -0.480404,0.193776 0.290904,0.881902 0.543676,0.485038 0.840176,1.006259 0.658744,1.158328 -0.181437,0.152083 0.0187,0.164346 0.444761,0.02743 0.520601,-0.167435 0.876307,-0.01844 1.084056,0.454288 0.170019,0.386862 0.904471,1.215544 1.632264,1.84162 1.238877,1.065736 2.140695,2.43452 2.140695,3.249694 0,1.365832 -3.06979,-0.864387 -4.043532,-2.937692 -0.860869,-1.83298 -2.136861,-2.663946 -3.219441,-2.097298 -1.17618,0.615638 -2.341952,0.576085 -3.402471,-0.115611 -0.850254,-0.554555 -0.823263,-0.615266 0.844426,-1.861627 1.067197,-0.797583 1.534228,-1.386758 1.225527,-1.546662 -0.9323,-0.482928 -2.672288,0.904008 -3.207947,2.556772 -0.919089,2.835836 -0.819464,2.692715 -1.535884,2.194381 -0.563455,-0.391935 -0.527075,-0.720332 0.267915,-2.410779 0.506177,-1.076312 1.068587,-2.043595 1.249403,-2.14991 1.943007,-1.142426 2.368966,-1.520189 2.110631,-1.870522 -0.540548,-0.733051 -1.101848,-0.449583 -4.565224,2.307765 -2.293711,1.826127 -3.562735,2.592163 -3.869339,2.335188 -0.554279,-0.46456 4.493717,-4.701557 6.170963,-5.179503 1.045747,-0.297997 1.558439,-1.011595 0.726828,-1.011595 -0.585584,0 -5.64722,2.821189 -6.350462,3.539461 -0.341735,0.349051 -0.821179,0.634378 -1.065481,0.634378 -0.244301,0 0.201307,-0.615724 0.989438,-1.368059 1.396157,-1.332756 1.596404,-2.227992 0.296215,-1.323593 -0.369859,0.257272 -0.759714,0.302114 -0.90544,0.104494 -0.501628,-0.680271 4.89154,-3.62718 7.418595,-4.05378 0.871486,-0.147117 2.806864,-0.750715 4.30084,-1.340641 5.672577,-2.239941 5.47367,-2.247696 8.734314,0.357948 1.964065,1.569519 2.810045,1.90727 2.810045,1.122759 0,-0.471135 -2.37105,-2.449456 -4.06652,-3.392728 l -1.073444,-0.596578 1.055761,-0.884869 c 0.580573,-0.486598 2.034593,-1.196052 3.230933,-1.577048 1.86809,-0.59492 2.66775,-0.640972 5.66608,-0.322376 1.92015,0.204048 3.95874,0.628304 4.52985,0.941934 1.21564,0.66759 1.97534,0.732812 1.97534,0.169708 0,-0.665617 -5.01474,-2.373666 -7.07817,-2.410776 l -1.93025,-0.03483 1.44835,-0.639565 c 1.43133,-0.631817 4.4771,-0.664217 7.72719,-0.08226 0.97327,0.174273 1.24808,0.103849 1.09732,-0.281616 -0.11064,-0.282877 -1.30649,-0.74494 -2.65708,-1.026416 -2.14001,-0.445997 -2.75152,-0.433806 -4.75887,0.09486 -1.26686,0.333649 -2.48921,0.607411 -2.71632,0.607696 -0.22711,2.85e-4 -0.35476,-0.896142 -0.28383,-1.99206 0.0709,-1.095917 -0.0343,-2.748378 -0.23344,-3.672117 -0.30131,-1.397401 -0.70336,-1.887133 -2.39269,-2.915465 -1.11672,-0.679762 -2.386686,-1.247488 -2.822429,-1.261338 -1.495569,-0.04756 -0.791141,1.029702 1.181319,1.806783 2.27002,0.894325 2.53976,1.590453 2.54832,6.569054 0.005,2.802714 -0.0341,2.908161 -1.16452,3.145944 -0.64317,0.135297 -1.967379,0.668247 -2.942678,1.184266 l -1.772861,0.938215 V 74.41468 c 0,-2.474912 -0.937827,-2.734142 -1.209613,-0.334234 -0.238498,2.106078 -0.446762,2.447832 -1.492559,2.447832 -1.157972,0 -1.15177,-0.08863 0.203371,-2.845799 0.615423,-1.252152 1.124144,-2.575449 1.13003,-2.94066 0.01987,-1.22879 -0.765432,-0.67727 -1.579214,1.108678 -0.444173,0.974777 -1.066862,2.19075 -1.383803,2.702766 -0.316953,0.51202 -0.469203,1.166212 -0.337769,1.453285 0.16258,0.355099 -0.114031,0.52173 -0.865651,0.52173 -1.365308,0 -1.840547,-0.358165 -1.257362,-0.947116 0.243727,-0.246135 0.95461,-2.472632 1.580102,-4.948284 1.191133,-4.714465 1.219089,-4.761842 5.876518,-10.041077 1.380837,-1.56519 3.012489,-3.474676 3.626179,-4.243501 0.61369,-0.768825 1.47842,-1.569162 1.92141,-1.778625 0.61272,-0.289721 0.67945,-0.487489 0.27941,-0.826321 -0.62559,-0.529865 -3.612628,2.003078 -6.286795,5.330687 -0.922412,1.147806 -2.273705,2.617354 -3.002806,3.265259 -1.354189,1.203379 -3.601659,6.487569 -4.541347,10.679159 -0.296441,1.322314 -0.668405,1.992059 -1.107041,1.992059 -0.363439,0 -0.552038,-0.14731 -0.419119,-0.327563 0.531855,-0.721262 1.219515,-7.704896 1.163631,-11.814515 -0.0616,-4.529727 -0.1082,-5.017729 -0.872727,-9.106558 -0.758555,-4.056911 -0.712518,-4.247959 0.992095,-4.130117 1.657051,0.11455 7.58306,-1.132427 7.58306,-1.595571 0,-0.657888 -0.946451,-0.720416 -2.525326,-0.167489 -2.334528,0.817538 -4.769011,0.722701 -6.992405,-0.271982 l -1.906377,-0.852996 0.238742,-2.277384 c 0.343257,-3.276725 1.223725,-6.307151 1.75252,-6.033242 0.267666,0.138653 0.327932,0.975428 0.149433,2.063204 -0.288482,1.757995 -0.246356,1.853579 1.07344,2.4256 1.70182,0.737597 2.324613,0.752597 2.324613,0.05632 0,-0.296456 -0.608722,-0.651544 -1.352854,-0.788525 -0.744136,-0.136986 -1.455857,-0.387613 -1.580984,-0.557303 -0.125127,-0.169689 0.290628,-1.08434 0.923123,-2.032818 0.990755,-1.485719 1.068913,-1.833527 0.5659,-2.508602 -0.321119,-0.430967 -0.763661,-0.783336 -0.983249,-0.783336 -0.219592,0 -0.145508,0.256122 0.164464,0.56916 0.472305,0.476974 0.400182,0.56916 -0.445648,0.56916 -0.671502,0 -0.929443,-0.175306 -0.770154,-0.523212 0.131678,-0.287608 0.01743,-0.708721 -0.253767,-0.936002 -0.35558,-0.298023 -0.282615,-0.480795 0.261726,-0.655868 0.415131,-0.133515 0.755123,-0.462335 0.755123,-0.730718 0,-0.57821 0.846025,-0.895985 1.993028,-0.935261 z m -0.634868,0.74554 c -0.248996,0 -0.45272,0.170748 -0.45272,0.37944 0,0.208692 0.203724,0.37944 0.45272,0.37944 0.248996,0 0.45272,-0.170748 0.45272,-0.37944 0,-0.208692 -0.203724,-0.37944 -0.45272,-0.37944 z m 1.837405,0.37944 c -0.263691,0 -0.479245,0.170748 -0.479245,0.37944 0,0.208692 0.09003,0.37944 0.199836,0.37944 0.109802,0 0.325356,-0.170748 0.479244,-0.37944 0.153889,-0.208692 0.06386,-0.37944 -0.199835,-0.37944 z m 2.775563,0.37944 c -0.243106,0 -0.565791,0.270551 -0.717099,0.601027 -0.169195,0.369542 -0.06733,0.54301 0.263496,0.450585 0.676744,-0.189067 1.048654,-1.051612 0.453603,-1.051612 z m -66.635607,3.794399 c -0.248996,0 -0.45272,0.607547 -0.45272,1.350272 0,0.803665 0.183298,1.255646 0.45272,1.116088 0.248996,-0.128979 0.45272,-0.736512 0.45272,-1.350271 0,-0.613774 -0.203724,-1.116089 -0.45272,-1.116089 z m 67.708164,0.75888 c 0.109803,0 0.199835,0.170748 0.199835,0.37944 0,0.208692 -0.215553,0.37944 -0.479244,0.37944 -0.263692,0 -0.353724,-0.170748 -0.199836,-0.37944 0.153889,-0.208692 0.369443,-0.37944 0.479245,-0.37944 z m 6.123214,0.396485 c 0.22859,-0.01635 0.4147,0.148338 0.4147,0.505425 0,0.287483 -0.30559,0.735491 -0.67908,0.99529 -0.71992,0.500766 -0.88339,0.129393 -0.40409,-0.917474 0.16903,-0.369177 0.43989,-0.566891 0.66847,-0.583241 z m -17.128199,1.886082 c 0.547755,-0.0094 0.389647,1.698092 -0.20337,2.19512 -0.804642,0.674402 -1.475605,0.552435 -0.786955,-0.143029 0.49079,-0.49564 0.481174,-0.658112 -0.05747,-0.9486 -0.561264,-0.302679 -0.557018,-0.401406 0.02916,-0.724051 0.373494,-0.20549 0.831873,-0.376405 1.01862,-0.37944 z m 18.255579,0.516543 c 0.21001,0.03271 0.12752,0.375896 -0.39878,1.005664 -0.37607,0.450004 -1.08693,1.054843 -1.5801,1.344344 -0.803426,0.471655 -0.9237,0.441649 -1.152138,-0.290507 -0.140217,-0.449397 -0.06678,-1.085961 0.162698,-1.414749 0.33532,-0.480432 0.4231,-0.411826 0.44564,0.350538 l 0.0274,0.948599 1.14065,-1.087182 c 0.64185,-0.611767 1.14462,-0.889426 1.35463,-0.856707 z m 1.31837,0.99529 c 0.60567,0 0.13214,1.601919 -0.67289,2.276639 -0.88741,0.743771 -2.27655,1.036558 -2.25033,0.4743 0.0156,-0.334814 2.58308,-2.750939 2.92322,-2.750939 z m -16.178549,0.384637 c -1.216336,-0.008 -0.940426,0.645161 0.45272,1.071621 1.764929,0.540266 2.37678,0.51882 2.37678,-0.08374 0,-0.520926 -1.308655,-0.977938 -2.8295,-0.987879 z m -59.438952,0.07411 c 0.12949,-0.108531 1.510966,0.332788 3.070007,0.980469 4.354432,1.80898 9.007866,3.493515 9.650364,3.493515 0.318285,0 0.996721,0.469557 1.507593,1.04346 0.881397,0.990144 0.929852,1.000818 0.943461,0.211951 0.0079,-0.45724 0.166941,-0.908876 0.353688,-1.00344 0.186747,-0.09457 2.784228,0.148918 5.77218,0.540998 2.987952,0.392082 6.289639,0.715802 7.337246,0.718864 l 1.904607,0.0059 -0.0115,4.531788 c -0.01336,5.246144 0.175189,5.146461 -4.314988,2.275899 -2.583496,-1.651576 -7.368603,-3.39272 -9.324081,-3.39272 -0.460559,0 -0.804384,-0.213435 -0.763965,-0.4743 0.231901,-1.496773 -0.07833,-2.18178 -0.988557,-2.18178 -0.822905,0 -0.929667,0.181475 -0.771923,1.313959 0.191323,1.373546 -0.07181,1.565649 -3.13986,2.290721 -1.128583,0.266716 -1.247224,0.640756 -0.549985,1.732678 0.444571,0.696231 0.287573,0.733936 -3.05586,0.738868 -5.473159,0.008 -5.677011,0.09895 -5.405229,2.41893 0.125054,1.067486 0.08253,2.538244 -0.09461,3.268222 -0.231348,0.953355 -0.592286,1.359924 -1.281233,1.443652 -1.258712,0.152963 -1.405667,-0.132505 -1.230832,-2.392991 0.295793,-3.824425 0.268596,-10.643203 -0.0451,-11.293525 -0.177445,-0.367871 -0.0828,-0.911096 0.210444,-1.207242 0.384404,-0.388205 0.407385,-0.920866 0.08135,-1.910541 -0.430025,-1.305334 -0.364026,-2.725232 0.146781,-3.153354 z m 60.204688,1.817904 c -0.388199,0 -0.580084,0.170748 -0.426196,0.37944 0.153889,0.208692 0.471305,0.37944 0.705605,0.37944 0.234301,0 0.426195,-0.170748 0.426195,-0.37944 0,-0.208692 -0.317415,-0.37944 -0.705604,-0.37944 z m 17.880673,2.279603 c 0.10853,0.0087 0.0436,0.174194 -0.10699,0.503202 -0.17477,0.381713 -0.31744,1.021843 -0.31744,1.42216 0,0.873129 -0.21327,0.880361 -2.2636,0.07782 -1.50473,-0.588986 -1.5296,-0.627924 -0.48632,-0.778888 0.60423,-0.08745 1.61361,-0.441744 2.24238,-0.787042 0.54195,-0.297621 0.82343,-0.445952 0.93197,-0.437248 z m -48.299568,0.003 c 0.435743,-0.003 0.79226,0.164821 0.79226,0.373513 0,0.462769 -0.05106,0.462769 -0.90544,0 -0.580342,-0.31434 -0.563886,-0.368539 0.11318,-0.373513 z m 28.360431,3.576521 c 0.09733,-0.01506 0.180296,-0.0092 0.253772,0.01632 0.09797,0.03404 0.178327,0.103428 0.252885,0.204541 0.712192,0.965822 0.668613,22.475726 -0.04598,22.694507 -0.227207,0.06957 -0.412931,0.539124 -0.412931,1.04346 0,0.888098 -0.616468,1.236086 -1.078745,0.609179 -0.124702,-0.169112 -0.01426,-1.007963 0.244926,-1.86385 0.324247,-1.070746 0.324256,-1.773685 0.0036,-2.253665 -0.566086,-0.845263 -0.768198,-0.465129 -1.204308,2.261819 l -0.290909,1.820124 -2.572192,-0.112644 c -2.389606,-0.104999 -2.57552,-0.180712 -2.623476,-1.061988 -0.02839,-0.52173 -0.195494,-2.22921 -0.370488,-3.7944 -0.25667,-2.295736 -0.08232,-3.909252 0.900134,-8.347678 0.669817,-3.026034 1.26126,-5.948252 1.313947,-6.493462 0.09176,-0.949567 0.926605,-1.733422 4.246903,-3.987826 0.670945,-0.455548 1.090938,-0.689177 1.38292,-0.734422 z m -42.410667,2.909534 c 0.352968,0 0.86189,0.112705 1.487256,0.337937 0.758766,0.273276 0.667095,0.330412 -0.5659,0.352761 -0.809237,0.01395 -1.47134,-0.144141 -1.47134,-0.352833 0,-0.225228 0.197015,-0.337937 0.549984,-0.337937 z M 79.242233,55.3034 c 0.512194,0.09903 0.38464,1.067235 -0.09903,2.842836 -0.338032,1.240924 -0.872522,3.280376 -1.18839,4.532527 -0.584203,2.31592 -1.600664,3.950748 -2.469624,3.972262 -0.26466,0.0066 -1.079556,0.54343 -1.81088,1.193161 -0.731323,0.649734 -2.069301,1.577798 -2.972745,2.062464 -2.709941,1.453783 -4.606915,1.993236 -5.758032,1.636335 -1.389792,-0.430896 -9.038976,-6.334962 -9.382446,-7.241968 -0.250657,-0.661914 2.306292,-4.432845 3.023147,-4.458419 0.150941,-0.0054 1.208857,0.587984 2.350255,1.318406 1.141343,0.730422 2.1972,1.32804 2.346715,1.32804 0.14952,0 0.857954,0.363609 1.574791,0.807793 1.352623,0.838168 1.383227,1.454564 0.131751,2.678311 -0.70704,0.69137 -0.426372,1.446615 0.537605,1.446615 0.720291,0 1.821374,-2.066081 1.403255,-2.633105 -0.163174,-0.221289 0.02119,-0.402415 0.409395,-0.402415 0.941544,0 0.914652,1.454606 -0.04333,2.341858 -0.706831,0.654617 -0.686042,0.693662 0.37933,0.693662 1.574854,0 2.422518,-1.562655 1.611932,-2.971785 -0.566995,-0.985671 -0.455219,-1.120862 4.207113,-5.091314 3.374553,-2.873776 5.090651,-4.182589 5.749191,-4.055264 z m -33.85939,0.874491 c 0.354799,-0.02372 0.968749,-0.01745 1.756059,0.02372 1.763653,0.09219 3.167714,0.380992 3.657127,0.752209 0.985544,0.747539 1.295037,0.757017 1.481952,0.04521 0.109902,-0.418534 0.520555,-0.282842 1.647298,0.545445 0.825377,0.606743 1.706153,1.160938 1.956778,1.230956 0.298261,0.08333 0.266675,0.779172 -0.09107,2.015035 -0.704668,2.434293 -0.866565,2.55198 -2.300737,1.670423 -0.658852,-0.404987 -1.98989,-0.970698 -2.957715,-1.256894 -0.96782,-0.286197 -2.958058,-1.223948 -4.422861,-2.083957 l -2.663269,-1.563752 h 1.69151 c 1.313708,0 2.171357,0.339011 3.83928,1.51776 2.56239,1.810904 3.994538,2.050311 2.061112,0.344607 -1.249933,-1.102717 -3.811858,-2.452927 -5.857065,-3.086652 -0.248996,-0.07716 -0.153195,-0.130422 0.201601,-0.154148 z m -9.328507,1.757801 c 3.061243,0 4.357829,0.171169 5.728853,0.757396 1.865604,0.797705 1.853647,0.77388 2.50057,5.029063 0.207433,1.364402 0.129308,1.788407 -0.320087,1.745276 -0.326501,-0.03134 -2.965021,-0.309657 -5.864138,-0.618813 l -5.271712,-0.56249 -0.297982,-1.562226 c -0.163963,-0.859485 -0.236958,-1.579168 -0.161812,-1.599279 0.07515,-0.02011 -0.146667,-0.323499 -0.493394,-0.673654 -0.346727,-0.350154 -0.52842,-0.721353 -0.404088,-0.825581 0.124332,-0.10421 2.750879,0.05596 5.836728,0.356468 3.085849,0.300502 5.698766,0.47279 5.806664,0.382404 0.598048,-0.500979 -1.207017,-0.949458 -5.418492,-1.345084 -2.605659,-0.244777 -4.930829,-0.588402 -5.167375,-0.764067 -0.237036,-0.17603 1.345571,-0.319413 3.526265,-0.319413 z m 9.72729,2.525647 1.099084,0.603249 c 0.604432,0.331934 1.942152,0.793826 2.972742,1.026415 1.395492,0.314943 2.28002,0.869946 3.467025,2.172886 0.876615,0.962237 1.594245,1.981014 1.594245,2.264042 0,0.283028 -0.05093,0.493454 -0.11318,0.468373 -0.06225,-0.02508 -1.898387,-0.303844 -4.080669,-0.619557 -4.374534,-0.632868 -4.077699,-0.373486 -4.649223,-4.047854 z m 13.280083,0.889347 c -0.20903,0 -0.612086,0.42687 -0.895715,0.948599 -0.606002,1.114746 0.110835,1.305612 0.80729,0.214919 0.568019,-0.889555 0.58869,-1.163518 0.08843,-1.163518 z m 1.748097,1.333226 c -0.375577,-0.194546 -2.726044,2.039953 -2.726044,2.591605 0,0.136823 0.274325,0.249008 0.609225,0.249008 1.161833,0 2.955048,-2.406412 2.116819,-2.840613 z m 35.107023,2.840613 c -1.01287,0 -1.220574,1.090833 -0.720639,3.794399 0.117594,0.635945 1.279803,-2.090532 1.334288,-3.130379 0.01915,-0.365211 -0.256937,-0.66402 -0.613649,-0.66402 z m -19.291884,2.265522 0.297981,0.99529 c 0.163902,0.547338 0.320747,2.299615 0.349269,3.894446 l 0.05217,2.8999 -4.138141,0.108201 -4.139029,0.108941 -0.200718,-1.6267 c -0.259761,-2.108192 -0.0886,-2.444353 1.473106,-2.900644 0.713957,-0.208594 2.424379,-1.077287 3.801259,-1.929805 z m 5.792516,0.08967 c -0.690886,-0.117308 -0.796058,0.196743 -0.818784,2.454502 -0.01435,1.42397 -0.106009,3.229687 -0.204259,4.012281 -0.09824,0.782595 0.0032,1.4229 0.225478,1.4229 0.672692,0 0.846097,-0.50083 1.125611,-3.248214 0.147338,-1.448228 0.312182,-3.054632 0.366065,-3.569847 0.06591,-0.630212 -0.16111,-0.981118 -0.694111,-1.071622 z m 35.125589,13.68726 c -0.3529,-0.05384 -0.78243,0.244833 -1.59159,1.032342 -2.98572,2.905861 -3.59455,3.950228 -3.27603,5.619714 0.39352,2.062617 1.92066,2.585599 4.22391,1.446615 1.2589,-0.62254 1.60113,-0.669723 1.77109,-0.242337 0.11589,0.291391 0.74948,0.967306 1.40768,1.501455 0.65819,0.534153 1.4773,1.440388 1.8206,2.014291 0.34331,0.573903 0.86373,1.04346 1.15656,1.04346 0.29283,0 0.8836,0.325563 1.31307,0.723307 0.61367,0.568337 1.28354,0.699718 3.12659,0.612883 1.28985,-0.06077 2.48017,-0.130205 2.64559,-0.154147 0.16541,-0.02394 1.16989,-0.702511 2.23176,-1.508126 l 1.93025,-1.465139 -0.64636,-2.598276 c -0.59135,-2.375024 -0.81064,-2.694175 -2.54567,-3.71436 -1.75578,-1.032388 -2.2255,-1.1209 -6.27441,-1.181303 -3.99886,-0.05966 -4.44518,-0.140954 -5.16738,-0.943413 -0.52434,-0.582615 -0.89797,-0.733548 -1.10881,-0.447621 -0.17483,0.237082 -0.18316,0.612977 -0.0195,0.835212 0.16388,0.22223 0.16475,0.994208 0.005,1.71489 -0.21888,0.977904 -0.7425,1.547659 -2.06288,2.246258 -1.44384,0.763922 -3.16639,0.956856 -3.16639,0.354981 0,-0.478402 1.29379,-2.473983 2.35733,-3.636545 0.69567,-0.760454 1.26443,-1.553074 1.26443,-1.76158 0,-0.208502 0.34,-0.488263 0.75513,-0.621777 0.60173,-0.193533 0.64018,-0.336571 0.18922,-0.704779 -0.11181,-0.09129 -0.22102,-0.148062 -0.33866,-0.166005 z m -20.361787,2.201047 c -0.09198,-0.08778 -0.637842,0.21103 -1.21315,0.66402 -0.575307,0.452991 -1.207381,0.823355 -1.405025,0.823355 -0.927112,0 -4.788927,1.757573 -4.788927,2.179556 0,0.663003 0.238303,0.614017 2.568657,-0.530624 1.972012,-0.968608 2.099806,-0.983235 3.319356,-0.37944 0.697642,0.345404 1.582103,0.627707 1.964733,0.627707 0.38263,0 0.842159,0.213435 1.021273,0.4743 0.179118,0.260865 0.169602,0.357372 -0.02033,0.214175 -0.190021,-0.143193 -0.826676,-0.107355 -1.41475,0.08004 -0.658251,0.209773 -1.172151,0.200045 -1.337824,-0.02444 -0.475216,-0.64446 -1.009344,-0.390982 -1.231716,0.583981 -0.245627,1.076926 -0.01435,1.124216 2.461665,0.502462 2.572971,-0.646103 2.915835,-1.459933 1.447464,-3.435711 -0.662153,-0.890993 -1.279446,-1.691585 -1.37142,-1.779365 z m -13.334904,0.0044 c -0.321295,0.06128 -0.78977,0.30038 -1.378496,0.71145 -1.197639,0.836236 -1.00038,0.947552 0.712681,0.401671 0.638702,-0.203528 1.160977,-0.545024 1.160977,-0.75888 0,-0.298778 -0.173867,-0.415525 -0.495162,-0.354241 z m 12.432999,1.559259 c 0.465175,-0.08196 1.165619,0.119501 1.557108,0.447621 1.034438,0.866998 0.521393,1.02118 -1.045145,0.314222 -1.133325,-0.511454 -1.217721,-0.637504 -0.511963,-0.761843 z m 26.930652,0.363135 c 0.46611,0.006 1.02684,0.03203 1.71892,0.07337 3.86765,0.230976 4.73755,0.562774 6.01446,2.294428 1.42747,1.935845 0.9079,4.131459 -1.27062,5.372186 -2.59568,1.478309 -3.50303,1.222024 -4.50422,-1.271716 -0.7296,-1.817278 -2.13299,-3.320695 -4.00462,-4.29019 l -1.64288,-0.850777 1.06814,-0.724791 c 0.67741,-0.459744 1.22248,-0.620585 2.62082,-0.602509 z m -3.87376,2.262559 c 0.60473,-0.234691 3.12332,1.678821 4.37423,3.463873 0.75809,1.081795 0.8441,1.4229 0.35899,1.4229 -0.61135,0 -4.86119,-4.059746 -4.86585,-4.64814 -9.1e-4,-0.127852 0.0462,-0.205106 0.13263,-0.238633 z m -32.235966,3.973005 c 0.148755,0.01484 0.317574,0.05024 0.505774,0.108198 0.56978,0.175468 1.10092,0.679694 1.179549,1.120535 0.07863,0.440841 -0.04464,1.082011 -0.273226,1.42438 -0.357278,0.535082 -0.55766,0.454406 -1.42978,-0.572124 -1.085732,-1.277961 -1.023759,-2.184826 0.0177,-2.080989 z m 4.100122,0.567677 c 0.604449,-0.03846 1.266339,0.50231 1.658793,1.445875 0.510139,1.226513 0.316338,1.511199 -0.871839,1.282089 -0.965683,-0.186206 -1.952572,-1.993357 -1.359925,-2.490074 0.176696,-0.148096 0.371488,-0.225069 0.572971,-0.23789 z m -1.06018,2.561959 c 0.240232,0.03191 0.538588,0.121846 0.886874,0.274206 0.68052,0.297701 1.899124,0.646486 2.708361,0.775185 0.809237,0.128702 1.47134,0.371862 1.47134,0.540258 0,0.168399 0.123851,0.576251 0.274992,0.906356 0.279378,0.610208 -0.07048,0.675305 -1.859512,0.345348 -1.942001,-0.358154 -3.449694,-1.018785 -3.886139,-1.702289 -0.5175,-0.810438 -0.316605,-1.234762 0.404084,-1.139064 z M 4.740613,103.16393 c -2.1514684,-0.10539 -3.1448839,0.34913 -1.7755113,0.81224 0.311245,0.10526 1.4489988,0.20511 2.5279814,0.22159 2.8946734,0.0442 2.2158981,-0.88841 -0.7524701,-1.03383 z m 14.182869,0.26828 0.90544,0.18083 c 0.497992,0.0993 2.382439,0.29526 4.18766,0.43576 1.805221,0.1405 3.28222,0.28186 3.28222,0.31422 0,0.0324 0.189273,0.61263 0.420888,1.28951 0.231614,0.67687 0.282546,1.22916 0.11318,1.2265 -0.452124,-0.007 -6.946147,-2.4186 -8.003948,-2.97252 z m 47.288016,1.68895 c -1.837409,-0.005 -2.868724,0.0234 -2.581916,0.0971 0.435743,0.11185 0.790535,0.319 0.788724,0.46021 -0.01512,1.13454 -1.057237,5.46594 -1.590709,6.61204 -0.364263,0.7826 -0.536722,1.4229 -0.383753,1.4229 0.15297,0 0.07709,0.21344 -0.167999,0.4743 -0.245085,0.26087 -0.568974,1.26877 -0.719757,2.23958 l -0.274109,1.76529 2.136273,0.16452 c 1.174618,0.0905 7.425011,0.20092 13.890192,0.24531 6.465185,0.0444 11.79581,0.11502 11.84588,0.15711 0.06687,0.0562 18.591016,-0.0189 26.342646,-0.10672 0.35871,-0.004 0.49815,-0.27133 0.35015,-0.67069 -0.24116,-0.65079 -0.391,-1.73088 -0.98856,-7.14785 -0.47981,-4.34957 -0.39732,-4.31034 -9.47175,-4.5014 -4.22955,-0.0891 -10.847771,-0.33199 -14.707209,-0.54026 -6.189578,-0.334 -18.955857,-0.65571 -24.468103,-0.67143 z m -0.245809,0.24753 c 0.271306,0.002 2.836219,0.17739 5.699672,0.38981 2.863454,0.21243 6.381519,0.40026 7.818262,0.41724 l 2.612869,0.0304 -0.271455,1.9513 c -0.149294,1.07315 -0.459593,2.87906 -0.688809,4.01302 -0.229217,1.13395 -0.416467,2.90301 -0.416467,3.93077 0,1.86239 -0.0041,1.86695 -1.24498,1.5511 -0.684739,-0.1743 -3.944323,-0.2993 -7.24352,-0.2779 -3.299196,0.0214 -5.998539,-0.022 -5.998539,-0.0971 0,-0.68496 2.440681,-9.58297 2.770257,-10.09888 0.272714,-0.42732 0.27251,-0.6744 -0.0018,-0.6744 -0.496503,0 -1.683195,2.8875 -2.105325,5.12244 -0.318344,1.68546 -0.937402,3.63423 -1.657023,5.2173 -0.26088,0.5739 -0.602122,1.02 -0.758659,0.99158 -0.156537,-0.0284 -0.743099,-0.12521 -1.30334,-0.21565 -0.560241,-0.0904 -1.01862,-0.27147 -1.01862,-0.40168 0,-0.13021 0.488602,-1.61209 1.085822,-3.29342 0.597223,-1.68133 1.342817,-4.29493 1.657023,-5.80795 0.314201,-1.51301 0.793296,-2.74987 1.064602,-2.74797 z m -34.675524,0.37647 c -0.50374,0 -0.447692,0.56417 0.317435,3.22524 0.843708,2.93438 0.61616,10.04014 -0.38552,12.04944 -0.488525,0.97996 -1.360846,1.73615 -2.839226,2.46118 -4.08076,2.0013 -4.977326,2.88525 -5.577652,5.49743 -0.796984,3.46789 -1.446036,5.60688 -2.19021,7.21677 -0.523032,1.13148 -0.90329,1.42855 -1.854207,1.44958 -0.89389,0.0198 -0.643766,0.16859 0.989441,0.58917 1.688682,0.43485 2.523233,0.46848 3.675697,0.1497 1.495233,-0.4136 5.872585,-2.97948 7.89519,-4.62813 0.733652,-0.59802 1.144579,-0.72998 1.281233,-0.41057 0.351113,0.82067 5.530472,3.89371 6.562671,3.89371 1.257275,0 0.922992,-0.28288 -3.041712,-2.57753 -1.700547,-0.98422 -3.152344,-1.95927 -3.226515,-2.16696 -0.07417,-0.20768 0.146791,-0.68924 0.490742,-1.07013 0.584031,-0.64677 0.929114,-0.49018 5.216006,2.37224 4.614637,3.08125 7.256784,4.49957 7.256784,3.89519 0,-0.35613 -9.664618,-6.83248 -10.686668,-7.16119 -0.929321,-0.2989 -0.767598,-1.17264 0.267918,-1.4481 0.872857,-0.23219 4.344368,1.40923 6.57063,3.10667 0.497992,0.37969 2.124657,1.5434 3.614686,2.58567 1.490029,1.04227 3.106825,2.19379 3.593467,2.559 1.337149,1.0035 1.99276,0.79641 0.703835,-0.22233 -4.622928,-3.6539 -8.609102,-6.6931 -9.949228,-7.58509 -1.494855,-0.99499 -1.520474,-1.0489 -0.45272,-0.95157 0.62249,0.0567 1.355235,-0.0132 1.627846,-0.15563 0.52018,-0.27168 0.694739,-0.14691 8.526523,6.06882 2.695246,2.13909 5.180167,3.88926 5.521943,3.88926 1.076419,0 0.669886,-0.91215 -0.846197,-1.8972 -2.051464,-1.33292 -8.907745,-6.50639 -10.50098,-7.92378 -0.731324,-0.6506 -1.575159,-1.18278 -1.875428,-1.18278 -0.729324,0 -1.103572,-0.89287 -0.638406,-1.52369 0.290135,-0.39346 0.725592,-0.25897 1.948818,0.60325 0.86626,0.6106 2.549387,1.79315 3.740245,2.62792 1.190857,0.83477 2.901079,2.11538 3.800371,2.8458 0.899292,0.73042 2.441464,1.89812 3.427235,2.59531 0.985766,0.69718 2.552888,1.88152 3.482051,2.63162 0.929167,0.7501 1.829622,1.24563 2.001873,1.10126 0.54982,-0.46082 -16.644448,-13.53755 -17.800209,-13.53755 -0.803136,0 -0.767741,-0.5525 0.07339,-1.13758 0.561574,-0.39062 1.108977,-0.19978 3.177882,1.10942 1.374668,0.86988 2.704016,1.4754 2.954176,1.34582 0.250159,-0.12958 1.959617,0.44479 3.798601,1.27617 2.498209,1.1294 4.670586,2.62152 8.591073,5.90132 2.88595,2.41433 5.246953,4.54384 5.246953,4.73263 0,0.42664 1.818304,0.85265 2.385621,0.55878 0.380665,-0.19718 -1.82055,-2.09429 -8.202014,-7.06707 -1.282832,-0.99965 -2.332567,-1.87239 -2.332567,-1.93944 0,-0.43581 2.759781,0.41106 4.07448,1.25023 0.871486,0.55626 2.195692,1.3367 2.94268,1.73416 0.746988,0.39745 3.230831,1.97187 5.520177,3.4987 4.206109,2.80517 4.666022,3.04598 4.666022,2.44264 0,-0.33094 -6.514016,-4.87901 -10.119885,-7.06558 -1.694554,-1.02756 -1.778085,-1.15041 -0.858574,-1.25986 1.865066,-0.22201 1.051297,-0.73656 -1.58452,-1.00196 -3.312317,-0.33352 -5.43786,-0.9387 -9.39394,-2.67461 -2.66965,-1.17143 -6.11172,-3.57668 -6.11172,-4.27092 0,-0.10731 1.171413,-0.0737 2.60314,0.0748 1.431727,0.14857 3.519898,0.32509 4.64038,0.39204 4.248401,0.25387 5.577297,0.79103 7.031307,2.84357 0.739269,1.04359 1.504321,1.90122 1.700353,1.90536 0.196037,0.004 1.228836,0.73309 2.294548,1.62003 1.065712,0.88694 2.934065,2.29561 4.152289,3.13038 4.012638,2.74959 7.13628,5.11075 7.780242,5.88132 0.558783,0.66864 2.8463,1.10646 2.8463,0.5447 0,-0.29485 -2.101571,-1.76285 -7.161287,-5.00164 -2.362221,-1.51209 -4.597042,-3.1101 -4.965773,-3.55132 -0.627416,-0.75077 -0.608614,-0.78594 0.292679,-0.54619 0.753507,0.20045 0.904227,0.12678 0.691457,-0.33794 -0.149569,-0.32668 -0.426643,-0.59361 -0.615418,-0.59361 -0.188775,0 -0.887245,-0.35871 -1.552685,-0.79742 -0.930421,-0.6134 -1.093921,-0.91544 -0.707375,-1.30581 0.408141,-0.41217 1.113383,-0.20446 3.751741,1.10423 1.78713,0.88647 4.146055,2.15736 5.241646,2.82357 1.095591,0.66621 2.216073,1.20605 2.48996,1.19983 0.697773,-0.0159 -3.090624,-2.78288 -6.017993,-4.39542 -3.538066,-1.94896 -4.419937,-2.16478 -6.054243,-1.48145 -0.7575,0.31672 -1.546677,0.57583 -1.75429,0.57583 -0.471191,0 -2.794935,-3.04226 -2.507648,-3.28304 0.115566,-0.0969 3.844901,0.0897 8.287782,0.41501 4.442877,0.32526 8.349524,0.59139 8.681259,0.59139 0.386981,0 0.511411,0.27201 0.346616,0.75888 -0.14128,0.41738 -0.363937,1.07663 -0.494279,1.46514 -0.198563,0.59184 0.223521,0.81436 2.60314,1.37028 3.612864,0.84405 3.528644,0.78822 2.910849,1.90461 -0.710164,1.28331 -1.179263,1.20226 -3.232706,-0.56026 -1.733795,-1.48817 -4.228373,-2.50577 -5.330067,-2.17437 -0.315569,0.0949 0.101232,0.48248 0.951418,0.88412 0.832674,0.39337 2.360604,1.26841 3.3954,1.94463 1.034791,0.67623 2.136272,1.23128 2.447517,1.23318 0.311245,0.002 0.5659,0.13595 0.5659,0.29718 0,0.16123 0.703337,0.6101 1.563297,0.99826 0.859955,0.38815 1.929515,0.98754 2.37678,1.33174 0.447274,0.34419 1.628379,1.04274 2.624363,1.55185 0.995984,0.5091 2.8295,1.56974 4.07448,2.35742 2.166311,1.37059 3.3954,1.78099 3.3954,1.13387 0,-0.38009 -3.469609,-2.57134 -7.01716,-4.43174 -3.557514,-1.86563 -4.456892,-2.54004 -3.82513,-2.86729 0.851611,-0.44113 4.056135,-0.0725 5.327418,0.61288 1.199717,0.64682 1.204842,0.64608 0.421772,-0.0978 -0.435743,-0.41395 -0.79226,-0.8451 -0.79226,-0.95823 0,-0.11314 1.222344,-0.32152 2.71632,-0.46319 1.493976,-0.14166 2.71632,-0.44543 2.71632,-0.67513 0,-0.49295 -7.900262,-0.15351 -10.382494,0.44613 -2.022242,0.48853 -2.28448,0.20799 -0.893946,-0.95749 1.341215,-1.12411 1.911389,-1.23202 8.22058,-1.55481 l 4.86674,-0.24901 v 0.98343 c 0,0.54079 -0.203724,1.08864 -0.45272,1.21762 -0.882532,0.45714 -0.434516,0.9486 0.864768,0.9486 0.879581,0 2.09891,0.53602 3.667741,1.61262 1.29245,0.88694 3.18143,2.08062 4.19827,2.65237 1.01684,0.57175 1.96454,1.19165 2.10532,1.37769 0.14078,0.18604 1.14026,0.95596 2.22204,1.71119 1.82159,1.27169 3.6925,1.80516 3.6925,1.05309 0,-0.28869 -11.90439,-7.90437 -14.373859,-9.19548 -0.718041,-0.37542 -1.01862,-0.89718 -1.01862,-1.76899 0,-0.71501 -0.238737,-1.25365 -0.5659,-1.27691 -0.311245,-0.0221 -3.774553,-0.008 -7.69624,0.0311 l -7.13034,0.0712 v -1.16945 c 0,-1.55691 -0.731464,-1.49517 -1.086704,0.0919 -0.256674,1.14673 -0.405583,1.24656 -1.634921,1.09534 -1.1962,-0.14704 -1.352855,-0.31459 -1.352855,-1.45105 v -1.28506 h 8.401845 c 6.299699,0 8.320125,0.11107 8.074687,0.44391 -0.232001,0.31463 -0.07477,0.35409 0.539375,0.13488 0.476588,-0.1701 5.908702,-0.36875 12.071352,-0.44095 10.37998,-0.1216 12.26849,0.0255 10.70966,0.83299 -0.27245,0.14113 -0.40192,0.6672 -0.28737,1.16945 0.23756,1.04158 -0.40948,1.56586 -1.15833,0.93822 -0.2771,-0.23225 -1.66397,-0.42242 -3.0815,-0.42242 -1.91978,0 -2.64665,-0.15101 -2.84895,-0.59288 -0.35222,-0.76928 -1.18309,-0.33739 -1.18309,0.61511 0,0.58206 0.31757,0.73665 1.5129,0.73665 1.11469,0 2.00182,0.37422 3.37507,1.4229 2.09121,1.59698 4.47657,3.23858 6.99063,4.81118 l 1.69239,1.05902 0.91075,-1.78085 c 1.09898,-2.14883 1.12391,-2.47673 0.1901,-2.47673 -0.39616,0 -1.55317,-0.59762 -2.5713,-1.32804 -1.01814,-0.73042 -1.99829,-1.32804 -2.17783,-1.32804 -0.17954,0 -0.29493,-0.85323 -0.25731,-1.89646 0.0376,-1.04323 0.19974,-1.89697 0.36076,-1.8972 0.16101,-2.3e-4 1.75774,0.9481 3.54837,2.10767 1.79063,1.15957 3.54988,2.056 3.90913,1.99206 0.38935,-0.0693 -0.40078,-0.80463 -1.95589,-1.82012 -1.87628,-1.22522 -2.39075,-1.73871 -1.83122,-1.82903 0.42791,-0.0691 1.7994,0.59602 3.04702,1.47774 l 2.26802,1.60299 2.83127,-1.23392 c 2.8378,-1.23714 4.82124,-2.78225 4.8517,-3.77958 0.012,-0.39478 -0.23146,-0.34555 -0.93727,0.18972 -0.91711,0.69552 -1.89635,0.71846 -25.91822,0.60473 -13.730804,-0.065 -27.817165,-0.27357 -31.303109,-0.46318 -17.189171,-0.93494 -36.255442,-2.1064 -38.028479,-2.33667 -1.007157,-0.13079 -1.008703,-0.12661 -1.084052,4.09825 -0.04659,2.61259 -0.08103,2.69303 -1.102621,2.52935 -1.915441,-0.30689 -4.22584,0.86762 -6.470713,3.29046 -2.139884,2.30953 -4.011294,3.55786 -7.981843,5.32328 -2.411583,1.07226 -2.940766,0.90974 -2.016018,-0.6203 0.358585,-0.5933 0.902564,-2.27427 1.208727,-3.73511 0.752537,-3.59071 1.540427,-4.99194 3.29283,-5.8539 5.716793,-2.81195 5.755339,-2.83914 6.009151,-4.20126 0.136103,-0.73042 0.459633,-2.22277 0.718869,-3.31639 0.795886,-3.35756 -0.610755,-12.24065 -1.938207,-12.24065 z m 83.798295,0.42613 c -0.15727,-0.005 -0.33618,0.0186 -0.49958,0.0734 -0.36115,0.12113 -0.25417,0.21152 0.27322,0.22974 0.47724,0.0165 0.74463,-0.0733 0.5942,-0.19936 -0.0752,-0.063 -0.21057,-0.0983 -0.36784,-0.10375 z m 3.02049,0.1245 c -1.06962,0.0202 -1.51107,0.0814 -1.17159,0.18083 0.62249,0.18223 2.21628,0.34827 3.5413,0.36907 1.32501,0.0208 2.67597,0.25123 3.00281,0.51209 1.20764,0.96389 12.73486,6.73506 13.4525,6.73506 1.57276,0 -1.62976,-1.96736 -9.13133,-5.60934 l -3.3954,-1.64893 2.70571,0.22751 c 2.24476,0.18867 3.28301,0.54848 6.09492,2.11138 1.86407,1.03609 3.62593,1.88386 3.91532,1.88386 1.02099,0 1.22503,3.68858 0.45095,8.15796 -0.23021,1.3292 -0.19048,1.7295 0.13264,1.33767 0.8387,-1.01706 1.53361,-5.8209 1.28388,-8.87459 -0.21129,-2.5837 -0.41154,-3.14471 -1.42713,-3.99524 -1.01929,-0.85364 -1.59969,-0.99703 -4.22656,-1.04716 -1.67456,-0.032 -6.30395,-0.15604 -10.28789,-0.27495 -2.1727,-0.0649 -3.8705,-0.0854 -4.94013,-0.0652 z m -34.534929,0.10747 5.703208,0.27271 c 3.136756,0.14994 6.518108,0.33605 7.514092,0.41354 0.995984,0.0775 4.835159,0.23341 8.531829,0.34683 3.69666,0.11342 6.88024,0.28912 7.07463,0.38981 0.57634,0.29854 1.27659,3.19722 1.60486,6.64613 l 0.30682,3.22524 H 103.2868 92.264121 l 0.07251,-3.17188 c 0.03979,-1.74463 -0.09504,-3.02524 -0.29975,-2.8458 -0.561545,0.49226 -1.275276,5.06649 -0.826744,5.29882 0.21434,0.11103 0.272216,0.36201 0.12821,0.5573 -0.428286,0.58081 -9.291897,0.34528 -9.566363,-0.25419 -0.127114,-0.27764 0.09415,-1.58933 0.49074,-2.91472 0.396592,-1.3254 0.723229,-2.99654 0.725945,-3.71362 0.0027,-0.71709 0.135631,-1.96659 0.295328,-2.77688 z m 35.114099,0.85966 c -0.89747,0 -0.27408,0.63551 1.53146,1.56148 1.05824,0.54272 3.62011,1.86458 5.6926,2.9377 2.0725,1.07312 3.91481,1.9513 4.09482,1.9513 0.18001,0 1.43884,0.59333 2.79679,1.31841 2.56801,1.37121 3.14781,1.5585 3.14781,1.01529 0,-0.26928 -4.26819,-2.71314 -4.73853,-2.71314 -0.083,0 -1.44457,-0.67268 -3.02579,-1.49478 -5.08933,-2.64602 -9.096,-4.57626 -9.49916,-4.57626 z m 15.4526,0 c 1.55706,0 3.16904,1.15805 3.16904,2.27664 0,0.41739 -0.0509,0.75689 -0.11318,0.75443 -0.46173,-0.0182 -4.41402,-2.43298 -4.41402,-2.69683 0,-0.184 0.61117,-0.33424 1.35816,-0.33424 z m -46.62397,0.002 c -0.346109,0.028 -0.541046,0.86339 -0.908093,3.24969 -0.25461,1.65533 -0.561282,3.49276 -0.681733,4.08343 -0.150941,0.74017 -0.04689,1.02593 0.336005,0.91895 0.698605,-0.19517 2.218685,-7.54583 1.662333,-8.03864 -0.160842,-0.14247 -0.293141,-0.22278 -0.408512,-0.21343 z m 29.79906,0.82261 c -0.0706,-0.0246 -0.13755,-0.0143 -0.19895,0.037 -0.10986,0.0921 0.0169,1.60085 0.28206,3.35271 0.26513,1.75185 0.48365,3.44134 0.48455,3.75438 9.1e-4,0.31303 0.10543,1.29009 0.23256,2.1714 l 0.23166,1.60224 1.89753,-0.19194 c 1.04399,-0.10581 3.22263,-0.0486 4.8411,0.12747 2.57123,0.27967 10.35954,0.18605 10.7972,-0.12969 0.49436,-0.35665 -1.05759,-1.18579 -6.36461,-3.40088 -6.27163,-2.61771 -8.43331,-3.1119 -3.22209,-0.73665 1.69952,0.77464 3.64209,1.72956 4.31675,2.12175 0.67466,0.3922 1.47317,0.71294 1.77375,0.71294 0.30058,0 0.41517,0.10927 0.25554,0.24307 -0.15964,0.1338 -1.72754,0.21283 -3.48471,0.17564 -2.93294,-0.062 -3.43096,-0.19844 -6.07724,-1.66598 -1.58543,-0.87922 -3.23433,-1.77409 -3.6642,-1.98909 -0.567,-0.2836 -0.80596,-0.96071 -0.87096,-2.46636 -0.0713,-1.65159 -0.73596,-3.5461 -1.22994,-3.71806 z m -114.5770683,0.008 c -0.186747,-0.075 -0.33954,0.015 -0.33954,0.20009 0,0.18507 0.763965,0.70769 1.6977,1.1613 1.8376052,0.89271 2.37678,1.01346 2.37678,0.53285 0,-0.25277 -1.3398526,-0.93223 -3.73494,-1.89424 z m 69.6056993,0.30607 c -0.509785,0 -2.523932,3.00943 -3.11422,4.65333 -0.497779,1.38627 -0.517757,1.79715 -0.08665,1.79715 0.307347,0 0.770407,-0.55493 1.029227,-1.23318 0.25882,-0.67825 0.901705,-2.12961 1.428015,-3.22524 0.526305,-1.09563 0.86096,-1.99206 0.743628,-1.99206 z m -59.983631,1.18797 c 0.380327,0.0173 1.066967,0.26866 2.290127,0.76407 1.105001,0.44756 4.322171,1.64421 7.149793,2.65904 6.710126,2.40829 7.858592,3.08903 7.461037,4.42656 -0.166284,0.55944 -0.642801,1.52976 -1.05841,2.15584 -0.415608,0.62608 -1.04392,1.17827 -1.396181,1.22725 -0.352257,0.049 -3.644463,-1.27431 -7.31691,-2.94066 -3.672448,-1.66635 -6.881101,-3.02959 -7.13034,-3.02959 -0.24924,0 -0.453604,-0.24443 -0.453604,-0.54322 0,-0.5374 3.609275,0.71491 12.009459,4.16791 3.3538,1.37862 3.835741,1.50363 3.835741,0.99084 0,-0.47977 -12.151686,-5.28178 -15.671009,-6.19258 -0.277842,-0.0719 -0.378775,-0.42623 -0.223708,-0.78778 0.260127,-0.60649 0.387384,-0.61165 1.637573,-0.0667 0.745266,0.32486 3.595588,1.35754 6.334544,2.29517 2.738956,0.93763 5.668115,2.0419 6.508734,2.45376 0.840618,0.41186 1.603797,0.68566 1.695931,0.60844 0.443135,-0.3714 -2.230272,-1.78011 -5.488345,-2.89249 -7.461925,-2.54768 -10.63892,-3.93826 -10.63892,-4.65629 0,-0.43993 0.07416,-0.65682 0.454488,-0.63957 z m -8.9695149,4.50956 c -0.6597373,0.005 -0.6718788,0.0565 -0.086653,0.37351 0.8865944,0.48022 1.4859095,0.48022 1.1318,0 -0.153888,-0.20869 -0.6240984,-0.37671 -1.0451466,-0.37351 z m 115.6752649,1.51221 c 0.37927,-0.0622 1.1377,0.25455 2.40154,0.92933 l 2.48642,1.3273 -2.36794,0.01 c -2.14182,0.009 -2.39484,-0.0794 -2.64734,-0.92266 -0.25176,-0.8407 -0.25195,-1.28143 0.12732,-1.34361 z m -107.427273,0.47578 c 0.231535,-0.19405 11.054793,4.14598 12.935237,5.18692 0.563426,0.31189 0.458833,0.55741 -0.650785,1.52813 -0.726951,0.63596 -1.4364,1.15321 -1.576562,1.15018 -0.418826,-0.01 -10.178271,-4.21217 -10.644226,-4.58366 -0.613758,-0.48933 1.415037,-0.43609 2.53594,0.0667 0.502948,0.2256 1.017762,0.32309 1.145063,0.21639 0.127301,-0.10669 -0.587817,-0.54461 -1.589825,-0.97305 -1.680701,-0.71864 -2.793209,-2.05657 -2.154842,-2.59161 z m 4.445853,3.86258 c -0.369634,0.30981 -0.172437,0.41928 3.070891,1.70526 2.895505,1.14807 3.615571,1.34302 3.615571,0.97973 0,-0.32787 -6.422,-2.90664 -6.686462,-2.68499 z m -4.261051,0.59362 c 0.790452,0 9.252743,4.00503 9.219749,4.36356 -0.06519,0.70839 -1.208373,0.53309 -3.704876,-0.56768 -1.369478,-0.60383 -3.253925,-1.40327 -4.18766,-1.77714 -1.013715,-0.40589 -1.6977,-0.94985 -1.6977,-1.34953 0,-0.36816 0.166485,-0.66921 0.370487,-0.66921 z m 32.518913,1.64152 c 0.60769,0.0217 2.106866,1.00505 3.058513,2.06247 1.284123,1.42684 0.649242,1.30773 -1.541193,-0.28903 -1.109755,-0.80898 -1.883275,-1.58381 -1.718922,-1.72156 0.04622,-0.0387 0.114788,-0.055 0.201602,-0.0519 z m -41.8774839,0.45281 c -0.5384678,0.45131 0.6505429,1.42306 2.9683224,2.4256 3.0773198,1.33107 2.8507212,1.2671 2.8507212,0.80112 0,-0.40401 -5.5289469,-3.46986 -5.8190436,-3.22672 z m 9.3276239,0.55508 c 0.88757,-0.0166 8.255796,3.29005 8.258603,3.70621 0.0043,0.634 -0.07834,0.61103 -4.636843,-1.27616 -2.178715,-0.90197 -3.9613,-1.81586 -3.9613,-2.03134 0,-0.21549 0.152793,-0.3953 0.33954,-0.39871 z m 114.877698,0.79149 c 0.49799,-10e-4 1.49262,0.43066 2.21055,0.95971 0.76113,0.5609 1.13824,1.10254 0.90367,1.29914 -0.23457,0.19661 -1.15691,-0.20353 -2.21143,-0.95971 -1.45891,-1.04617 -1.63322,-1.29725 -0.90279,-1.29914 z m 3.66243,0.0489 c 0.28093,-0.003 0.64397,0.0323 1.08052,0.11265 1.15071,0.21183 1.31415,0.35922 0.88245,0.79519 -0.66247,0.66909 -0.93324,0.6694 -2.02928,-0.003 -0.87877,-0.53856 -0.77646,-0.89566 0.0663,-0.90487 z m -38.602331,0.90636 c -1.609052,0.0137 -3.767658,0.2928 -3.767658,0.57508 0,0.18768 1.324206,0.34091 2.94268,0.34091 2.746327,0 3.95005,-0.46544 2.15042,-0.83151 -0.313984,-0.0639 -0.789095,-0.0891 -1.325442,-0.0845 z m -89.128367,0.23938 c -0.090033,0.0755 0.7947114,0.67744 1.9665026,1.33768 2.3816952,1.34195 2.5328865,1.40178 2.1194723,0.84113 C 6.3213664,126.85973 2.822896,124.9942 2.602572,125.17886 Z m 118.523338,0.83373 c -0.15717,0.13173 0.71317,1.08977 1.93378,2.12842 2.25414,1.91812 2.69335,2.13965 3.11422,1.5689 0.29446,-0.39933 -4.65642,-4.02552 -5.048,-3.69732 z m -21.330013,0.27569 c -0.592764,0.015 -0.967336,0.0806 -0.967336,0.21047 0,0.63878 2.132189,1.22415 3.704879,1.01678 0.82593,-0.1089 2.3163,0.0509 3.31228,0.35498 2.31416,0.70662 2.48996,0.72349 2.48996,0.24234 0,-0.21934 -0.70037,-0.64444 -1.55622,-0.94415 -1.46541,-0.51319 -5.20528,-0.9254 -6.983563,-0.88042 z m 16.824913,1.5222 c 0.35998,-0.0358 0.94797,0.0684 1.60574,0.32831 0.66019,0.26086 1.65915,0.65104 2.21939,0.86708 0.56024,0.21603 1.01862,0.50823 1.01862,0.64919 0,0.14097 0.49081,0.73509 1.09113,1.32063 0.60032,0.58556 0.98665,1.29537 0.85769,1.57705 -0.12896,0.28168 -0.43205,0.5121 -0.67289,0.5121 -0.40743,0 -5.62887,-3.89763 -6.354,-4.743 -0.25712,-0.29976 -0.12566,-0.47556 0.23432,-0.51136 z M 7.5312076,127.92832 c -0.1846247,0.0333 -0.1908763,0.22364 0.055705,0.55804 0.1641264,0.22258 0.6426673,0.39942 1.0637155,0.39278 0.6721298,-0.0106 0.6589507,-0.0798 -0.1069904,-0.56545 -0.4651879,-0.29497 -0.8278062,-0.41867 -1.0124301,-0.38537 z m 94.6184824,0.0763 c -0.0977,-0.0198 -0.15209,-0.01 -0.15209,0.0356 0,0.45939 2.04009,1.97215 4.97992,3.69213 1.36948,0.80123 2.74348,1.75496 3.05321,2.11953 0.30973,0.36457 1.63394,1.31251 2.94268,2.10693 1.30874,0.79441 2.48129,1.54561 2.60579,1.66894 0.1245,0.12333 0.72328,0.50913 1.33075,0.85745 0.60746,0.34831 1.21789,0.5385 1.35639,0.42242 0.37083,-0.3108 -5.5924,-4.81342 -9.25158,-6.98555 -1.74297,-1.03465 -4.03486,-2.40528 -5.0931,-3.04589 -0.79367,-0.48046 -1.47885,-0.81215 -1.77197,-0.87153 z m 8.08441,0.33349 c -0.31919,0.013 -0.54026,0.20386 -0.54026,0.56694 0,0.3055 5.19276,4.06607 9.41163,6.81584 1.45515,0.94844 1.45584,0.94885 0.7958,2.46636 -0.36311,0.83476 -0.66994,1.81657 -0.68085,2.18178 -0.0393,1.31413 0.78982,0.62082 1.95854,-1.63782 1.36259,-2.6333 1.43374,-3.01032 0.5659,-3.01032 -0.34395,0 -1.20978,-0.49283 -1.92406,-1.09534 -0.71428,-0.6025 -2.72499,-1.98942 -4.46796,-3.08147 -1.74297,-1.09204 -3.53813,-2.31021 -3.98871,-2.70721 -0.39393,-0.34709 -0.81083,-0.51172 -1.13003,-0.49876 z m -57.034762,1.50813 c -0.06101,-0.002 -0.0955,0.0181 -0.0955,0.0645 0,0.16287 2.291895,2.1321 5.0931,4.37616 4.799651,3.84503 6.67762,4.83515 6.67762,3.52094 0,-0.31304 -0.225908,-0.56916 -0.502239,-0.56916 -0.276322,0 -1.644859,-0.87457 -3.040825,-1.94389 -1.395967,-1.06933 -3.309171,-2.3525 -4.251326,-2.85099 -0.942156,-0.49848 -1.719046,-1.03185 -1.726878,-1.18575 -0.01702,-0.33474 -1.726869,-1.39941 -2.153956,-1.41178 z m 39.903909,0.94193 c -0.08789,0 -0.160046,0.22519 -0.160046,0.50024 0,0.27504 1.375137,1.10286 3.05586,1.84013 3.518192,1.54329 9.446009,4.70577 9.851089,5.2551 0.15125,0.20512 0.40331,0.37277 0.5597,0.37277 0.53385,0 -2.37114,-2.36035 -4.13902,-3.36309 -1.95189,-1.10711 -8.915409,-4.60515 -9.167583,-4.60515 z m -14.733741,1.22132 c -0.103464,-0.003 -0.179155,0.013 -0.221054,0.0482 -0.151231,0.12676 0.11132,0.3541 0.582701,0.50543 0.471381,0.15131 1.546944,0.66754 2.390927,1.14721 1.87911,1.06797 2.973927,1.14521 1.408561,0.0993 -1.353008,-0.90402 -3.436855,-1.78286 -4.161135,-1.80012 z m -4.014349,0.29644 c -0.263692,0 -0.353724,0.17075 -0.199836,0.37944 0.153889,0.20869 0.369443,0.37944 0.479245,0.37944 0.109803,0 0.199835,-0.17075 0.199835,-0.37944 0,-0.20869 -0.215553,-0.37944 -0.479244,-0.37944 z m 17.815238,0.14229 c -0.08206,0.0303 -0.132634,0.10441 -0.132634,0.21492 0,0.221 0.203724,0.40167 0.45272,0.40167 0.248996,0 0.45272,-0.0755 0.45272,-0.16749 0,-0.092 -0.203724,-0.27269 -0.45272,-0.40167 -0.124498,-0.0645 -0.238031,-0.0778 -0.320086,-0.0474 z m 1.732183,1.20354 c -0.153304,0.12849 0.128428,0.48223 0.626026,0.78555 0.497603,0.30333 1.923177,1.3788 3.168157,2.39003 1.24498,1.01123 2.671049,1.92484 3.169039,2.02985 1.52255,0.32108 2.03724,0.29538 2.03724,-0.10078 0,-0.2087 -0.25465,-0.38965 -0.5659,-0.40167 -0.66664,-0.0258 -2.480601,-1.06576 -5.772179,-3.31047 -1.310964,-0.89402 -2.509073,-1.52101 -2.662383,-1.39251 z m -14.837191,1.05235 c -0.110509,0.0926 1.489249,1.04256 3.554563,2.11063 3.197561,1.65361 5.796051,2.4407 5.796051,1.75565 0,-0.28606 -9.122054,-4.05785 -9.350614,-3.86628 z" />
    <g
       aria-label="XXX"
       id="text1387"
       style="font-size:40px;line-height:1.25;font-family:Hultog;-inkscape-font-specification:Hultog"
       transform="matrix(0.45272,0,0,0.37943994,2.3992017,1.7786153)">
      <path
         d="m 265.72713,59.242512 q -0.51377,2.715596 -1.54129,2.422018 l -3.57186,-1.003058 q -4.30581,0 -4.89297,1.247706 l -1.66361,-1.174312 q 0.95413,-2.07951 2.17737,-2.07951 0.29358,0 0.56269,0.09786 0.24465,-0.220183 0.24465,-0.562691 0,-0.513762 -0.53823,-1.394496 -1.71253,-1.223241 -4.50153,-6.776758 h -0.17125 q -0.51376,-0.02446 -0.75841,0.464832 -2.49541,5.333333 -4.4526,7.168196 l 0.19572,0.880734 q 2.2263,0.293578 2.2263,1.810397 0,0.611621 -0.4159,1.590214 -0.9052,-0.70948 -1.78593,-0.880734 -0.36698,-0.04893 -1.98166,-0.04893 -3.08257,0 -4.52599,0.733945 l -1.05199,-0.587156 v -1.932722 l 2.88685,-0.733945 q 0.68502,-0.171254 6.94801,-9.174312 1.24771,-0.391437 1.24771,-1.174312 0,-0.782875 -0.9052,-1.492355 -1.2477,-1.027523 -1.37003,-1.198776 -0.78287,-1.076453 -2.10397,-3.400612 -1.3211,-2.324159 -2.07951,-3.376147 0,0 -1.83487,-1.639144 l -3.27828,-0.733945 0.97859,-2.103975 5.3578,0.685015 3.00917,-0.685015 1.37003,0.464832 v 1.663608 q -1.68807,0.318043 -1.66361,1.370031 v 0.171254 l 4.64832,6.874617 0.75841,-0.195718 q 0.92966,-3.571866 3.47401,-5.993884 v -1.247706 l -1.88379,-0.685016 -0.41591,-1.859327 1.05199,-0.538226 3.91437,0.66055 q 1.66361,-0.587156 2.88685,-0.587156 1.49236,0 1.8104,1.003058 -0.80734,2.152906 -3.18043,2.152906 -1.85932,2.422018 -3.71865,4.844036 -2.78899,3.74312 -3.10703,4.892967 1.54128,1.761467 4.40367,5.333333 0.48929,1.076453 1.61467,3.058104 0.95413,1.003058 2.78899,2.93578 z"
         id="path2129" />
      <path
         d="m 293.12771,59.242512 q -0.51376,2.715596 -1.54128,2.422018 l -3.57187,-1.003058 q -4.30581,0 -4.89296,1.247706 l -1.66361,-1.174312 q 0.95413,-2.07951 2.17737,-2.07951 0.29358,0 0.56269,0.09786 0.24465,-0.220183 0.24465,-0.562691 0,-0.513762 -0.53823,-1.394496 -1.71254,-1.223241 -4.50153,-6.776758 h -0.17125 q -0.51376,-0.02446 -0.75841,0.464832 -2.49541,5.333333 -4.4526,7.168196 l 0.19572,0.880734 q 2.2263,0.293578 2.2263,1.810397 0,0.611621 -0.4159,1.590214 -0.9052,-0.70948 -1.78594,-0.880734 -0.36697,-0.04893 -1.98165,-0.04893 -3.08257,0 -4.52599,0.733945 l -1.05199,-0.587156 v -1.932722 l 2.88685,-0.733945 q 0.68502,-0.171254 6.94801,-9.174312 1.24771,-0.391437 1.24771,-1.174312 0,-0.782875 -0.9052,-1.492355 -1.24771,-1.027523 -1.37003,-1.198776 -0.78287,-1.076453 -2.10397,-3.400612 -1.32111,-2.324159 -2.07952,-3.376147 0,0 -1.83486,-1.639144 l -3.27829,-0.733945 0.9786,-2.103975 5.3578,0.685015 3.00917,-0.685015 1.37003,0.464832 v 1.663608 q -1.68807,0.318043 -1.66361,1.370031 v 0.171254 l 4.64832,6.874617 0.75841,-0.195718 q 0.92966,-3.571866 3.47401,-5.993884 v -1.247706 l -1.8838,-0.685016 -0.4159,-1.859327 1.05199,-0.538226 3.91437,0.66055 q 1.66361,-0.587156 2.88685,-0.587156 1.49236,0 1.8104,1.003058 -0.80734,2.152906 -3.18043,2.152906 -1.85932,2.422018 -3.71865,4.844036 -2.78899,3.74312 -3.10704,4.892967 1.54129,1.761467 4.40367,5.333333 0.4893,1.076453 1.61468,3.058104 0.95413,1.003058 2.78899,2.93578 z"
         id="path2131" />
      <path
         d="m 320.5283,59.242512 q -0.51376,2.715596 -1.54128,2.422018 l -3.57187,-1.003058 q -4.30581,0 -4.89296,1.247706 l -1.66361,-1.174312 q 0.95413,-2.07951 2.17737,-2.07951 0.29358,0 0.56269,0.09786 0.24465,-0.220183 0.24465,-0.562691 0,-0.513762 -0.53823,-1.394496 -1.71254,-1.223241 -4.50153,-6.776758 h -0.17125 q -0.51376,-0.02446 -0.75841,0.464832 -2.49541,5.333333 -4.4526,7.168196 l 0.19572,0.880734 q 2.2263,0.293578 2.2263,1.810397 0,0.611621 -0.4159,1.590214 -0.9052,-0.70948 -1.78594,-0.880734 -0.36697,-0.04893 -1.98165,-0.04893 -3.08257,0 -4.52599,0.733945 l -1.05199,-0.587156 v -1.932722 l 2.88685,-0.733945 q 0.68502,-0.171254 6.94801,-9.174312 1.24771,-0.391437 1.24771,-1.174312 0,-0.782875 -0.9052,-1.492355 -1.24771,-1.027523 -1.37003,-1.198776 -0.78288,-1.076453 -2.10398,-3.400612 -1.3211,-2.324159 -2.07951,-3.376147 0,0 -1.83486,-1.639144 l -3.27829,-0.733945 0.9786,-2.103975 5.35779,0.685015 3.00918,-0.685015 1.37003,0.464832 v 1.663608 q -1.68807,0.318043 -1.66361,1.370031 v 0.171254 l 4.64832,6.874617 0.75841,-0.195718 q 0.92966,-3.571866 3.47401,-5.993884 v -1.247706 l -1.8838,-0.685016 -0.4159,-1.859327 1.05199,-0.538226 3.91437,0.66055 q 1.66361,-0.587156 2.88685,-0.587156 1.49236,0 1.8104,1.003058 -0.80734,2.152906 -3.18043,2.152906 -1.85933,2.422018 -3.71865,4.844036 -2.78899,3.74312 -3.10704,4.892967 1.54129,1.761467 4.40367,5.333333 0.4893,1.076453 1.61468,3.058104 0.95413,1.003058 2.78899,2.93578 z"
         id="path2133" />
    </g>
  </g>
</svg>
