<?xml version="1.0" encoding="UTF-8" standalone="no"?>
<!-- Created with Inkscape (http://www.inkscape.org/) -->

<svg
   version="1.1"
   id="svg2"
   width="4cm"
   height="4cm"
   viewBox="0 0 151.1811 151.1811"
   sodipodi:docname="33.svg"
   inkscape:version="1.1.2 (0a00cf5339, 2022-02-04)"
   xmlns:inkscape="http://www.inkscape.org/namespaces/inkscape"
   xmlns:sodipodi="http://sodipodi.sourceforge.net/DTD/sodipodi-0.dtd"
   xmlns="http://www.w3.org/2000/svg"
   xmlns:svg="http://www.w3.org/2000/svg">
  <defs
     id="defs6" />
  <sodipodi:namedview
     id="namedview4"
     pagecolor="#505050"
     bordercolor="#eeeeee"
     borderopacity="1"
     inkscape:pageshadow="0"
     inkscape:pageopacity="0"
     inkscape:pagecheckerboard="0"
     showgrid="false"
     inkscape:zoom="3.8909092"
     inkscape:cx="76.074765"
     inkscape:cy="88.796727"
     inkscape:window-width="1920"
     inkscape:window-height="1043"
     inkscape:window-x="0"
     inkscape:window-y="0"
     inkscape:window-maximized="1"
     inkscape:current-layer="g8"
     units="cm"
     inkscape:document-units="cm" />
  <!-- Border -->
    <rect
       x="0"
       y="0"
       width="4cm"
       height="4cm"
       class="board-border"
       stroke-width="0.1cm"
       id="border"
       fill="none"
       stroke="#000000" />
  <g
     inkscape:groupmode="layer"
     inkscape:label="Image"
     id="g8">
    <path
       id="path12"
       style="fill:#000000;stroke-width:0.414939"
       d="m 59.929874,2.0990355 c -0.124649,0.050621 -0.371089,0.2655244 -0.7585,0.6516467 -0.58332,0.581377 -1.30492,1.0570491 -1.603611,1.0570491 -0.298695,0 -0.543285,0.1729717 -0.543285,0.3843815 0,0.493498 2.256517,0.489142 3.135482,-0.00601 C 60.693283,3.8856655 60.713548,3.7418859 60.25707,3.4886606 59.931024,3.3078021 59.801059,2.8500191 59.956995,2.4316115 60.057443,2.1620206 60.054025,2.04841 59.929895,2.0990314 Z m 24.527448,1.0360282 c -0.539975,-0.023645 -1.172711,0.1240843 -1.680596,0.45345 -0.839879,0.5446646 -0.777416,0.5800846 1.048949,0.5915872 1.357162,0.00855 1.885638,-0.1325149 1.756712,-0.468465 C 85.445142,3.3540212 84.997297,3.1587082 84.457322,3.1350637 Z M 25.374831,3.2566844 c -0.129559,0.00482 -0.215798,0.137335 -0.33332,0.4001472 -0.147108,0.3289724 -0.267706,0.7570748 -0.267706,0.951194 0,0.4767739 1.220612,0.4498818 1.569491,-0.034534 C 26.496722,4.3604598 26.326678,3.9323574 25.965358,3.6222973 25.676706,3.374594 25.50439,3.2518645 25.374831,3.2566844 Z m 52.334732,0.036786 c -1.153069,0.050074 -2.751247,0.099663 -3.551915,0.1103596 -2.484014,0.033187 -1.598074,0.7417641 1.119815,0.8956389 1.416567,0.0802 2.978708,0.091538 3.471427,0.024774 0.492719,-0.066763 1.287245,-0.1239892 1.76546,-0.1268759 0.818948,-0.00494 0.823311,-0.033884 0.08048,-0.4999962 C 80.154652,3.421164 78.879693,3.2426555 77.709563,3.2934704 Z m 10.030219,0.0015 c -0.351523,-0.115757 -0.879521,0.038542 -1.174059,0.3430905 -0.443043,0.458072 -0.333172,0.5540485 0.638644,0.5540485 1.258937,0 1.587513,-0.5506878 0.535415,-0.8971404 z M 68.415098,3.3970751 C 67.20073,3.4723821 65.216812,3.55259 64.0067,3.5750017 c -1.210113,0.022412 -2.274667,0.2298014 -2.36561,0.4609575 -0.113719,0.2890391 1.202857,0.3921594 4.215929,0.3310786 5.402082,-0.1095107 5.164865,-0.07881 4.946434,-0.6411363 C 70.68417,3.4188204 69.870208,3.3068393 68.415098,3.3970751 Z m 21.52057,0.030781 c -0.38919,0.1093102 -0.520145,0.224387 -0.155726,0.3993964 0.04376,0.021017 0.143412,0.030313 0.196845,0.049549 -0.03489,-0.16166 -0.05257,-0.3101626 -0.04112,-0.4489456 z M 46.23576,3.7123867 c -2.126607,-0.0101 -5.336618,0.2278444 -5.336618,0.4797261 0,0.2348998 2.090321,0.3843815 5.375112,0.3843815 3.4243,0 5.375112,-0.1453508 5.375112,-0.4001471 0,-0.219974 -0.755875,-0.3695839 -1.679723,-0.3325801 -0.923847,0.037004 -1.881289,0.023445 -2.127648,-0.03003 -0.309208,-0.067117 -0.897366,-0.097984 -1.606235,-0.1013504 z m -7.859701,0.086336 c -1.180673,-0.025467 -3.21585,0.034648 -6.883364,0.1629117 -4.627644,0.1618423 -5.012159,0.2861247 -1.791704,0.5810767 2.012541,0.1843227 5.787008,0.20504 10.279552,0.055555 C 40.458331,4.582368 40.498547,4.4632088 40.131018,4.1478188 39.883134,3.9351002 39.556729,3.8241893 38.376059,3.7987227 Z m -17.659834,0.00901 c -0.23182,0 -0.42168,0.1729717 -0.42168,0.3843815 0,0.2114098 0.314056,0.3843815 0.698135,0.3843815 0.384078,0 0.573938,-0.1729717 0.42168,-0.3843815 C 21.262101,3.980703 20.948045,3.8077313 20.716225,3.8077313 Z M 16.432058,3.9894116 C 15.840563,3.9729612 15.238331,3.9786722 14.69547,4.0134355 13.710032,4.07654 10.589587,4.156866 7.7613646,4.1921128 4.9331447,4.2273596 2.4135589,4.3717074 2.1622895,4.512681 1.9110201,4.6536546 3.6204986,4.8667308 5.9609121,4.9864011 8.3013255,5.1060723 10.820909,5.114422 11.559987,5.0051698 12.299065,4.8959176 14.34818,4.7978726 16.11361,4.7874537 17.879041,4.7770348 19.447802,4.6618545 19.59991,4.5314496 19.886962,4.2853542 18.20654,4.038763 16.432058,3.9894116 Z m 6.512424,0.2499982 c -0.155607,-0.0055 -0.33262,0.018806 -0.494293,0.074324 -0.357326,0.1227047 -0.251478,0.2142869 0.27033,0.232731 0.472189,0.01669 0.736745,-0.074224 0.587903,-0.2019504 -0.07442,-0.063863 -0.208332,-0.099604 -0.36394,-0.1051046 z M 75.70177,7.1613096 c -0.277266,-0.00513 -1.732085,0.5899538 -1.787332,0.6666617 -0.02347,0.032596 0.01,0.042417 0.0061,0.066066 -0.229697,-0.00479 -0.483675,0.00177 -0.720879,0.06081 -0.508969,0.1266806 -2.096254,1.2509577 -3.17485,2.4219037 -1.869388,2.029456 -2.028196,2.333827 -1.468011,2.814544 0.183744,0.157676 0.540177,-0.14527 0.791745,-0.673419 0.507093,-1.064687 3.089373,-3.3288036 3.796859,-3.3288036 0.228567,0 1.152007,-0.7432485 1.305287,-1.0307732 0.729909,0.1729071 3.310442,0.2639437 4.711972,0.2147132 0.240809,0.2333458 1.591584,0.81606 2.024415,0.81606 0.449843,0 2.523919,1.3891966 3.026999,1.8686046 0.492736,0.46955 0.401229,0.778523 0.785622,0.778523 0.05832,0 0.0811,-0.0205 0.125979,-0.02853 -0.165478,0.11923 0.09453,0.898531 0.744502,2.259743 0.381324,0.798594 0.49395,2.452808 0.629018,3.014992 -0.0031,0.08958 0.0045,0.188985 -0.02101,0.254503 -0.08646,0.222579 -0.185351,1.443733 -0.0087,1.683171 -0.136931,-0.0017 -0.280317,0.09845 -0.495169,0.350597 -0.449498,0.527517 -0.938427,0.641638 -1.986798,0.461709 -1.082714,-0.185823 -1.338125,-0.119427 -1.150436,0.300298 0.132636,0.296603 0.523881,0.446423 0.869609,0.33258 0.393937,-0.129723 0.798459,0.175166 1.083071,0.817561 0.648996,1.464823 0.570017,1.564464 -0.426932,0.537534 -0.758858,-0.781679 -0.882996,-0.8121 -0.895852,-0.216215 -0.0082,0.380466 0.318382,1.244471 0.725255,1.919656 0.654496,1.086103 0.774079,1.142559 1.041957,0.487233 0.425368,-1.040611 1.006758,-0.117823 0.664014,1.054046 -0.212845,0.727735 -0.497027,0.882186 -1.357775,0.740986 -1.381982,-0.226705 -1.422439,0.490191 -0.146978,2.59007 0.517592,0.85215 1.048536,1.549538 1.180182,1.549538 0.399612,0 2.338653,-1.917842 2.000791,-1.978964 -0.173002,-0.0313 -0.663714,-0.07454 -1.090068,-0.09609 -0.426349,-0.02155 -0.769456,-0.21201 -0.762872,-0.42342 0.0066,-0.21141 0.487191,-0.3311 1.068196,-0.265764 1.297019,0.145855 1.916268,-0.582685 1.020958,-1.201192 -0.644109,-0.444968 -1.809384,-3.731049 -1.436512,-4.051021 0.103704,-0.089 0.390618,0.294251 0.63777,0.852096 0.247157,0.557844 0.756426,1.014257 1.132062,1.014257 0.78658,0 0.870822,-0.492631 0.246708,-1.446686 -0.240146,-0.367099 -0.747418,-1.344768 -1.127689,-2.172657 -0.312518,-0.68039 -0.495523,-1.035246 -0.66664,-1.150892 0.261329,-0.141451 0.339537,-0.828719 0.321947,-0.974467 -0.01604,-0.132941 -0.05425,-0.610663 -0.116353,-0.99774 0.253746,-0.714171 0.211121,-2.689231 -0.257208,-3.653877 C 86.266957,12.827089 85.339141,11.817353 85.170331,11.797161 85.91245,11.599354 84.488032,10.142832 82.745232,9.2911737 81.821645,8.8398502 81.078571,8.6040556 80.632455,8.406796 80.483766,8.3410518 80.238092,8.3099019 80.013932,8.2641544 c 0.0018,-0.00752 0.04372,-0.01202 0.03413,-0.020269 -0.378677,-0.3249553 -3.514495,-1.0671768 -4.34628,-1.0825747 z m -7.235057,7.1748714 c -0.06079,-0.01415 -0.113285,-0.0064 -0.152224,0.02703 -0.469771,0.403128 -0.167403,10.067888 0.370063,11.82874 0.275246,0.90176 0.992085,2.288271 1.593112,3.081058 0.736816,0.971892 1.419151,1.436794 2.094404,1.426416 0.958127,-0.01472 0.950946,-0.03952 -0.176721,-0.565312 -1.235949,-0.576279 -1.910821,-1.551898 -1.483755,-2.144878 0.337177,-0.468168 1.845841,-0.443387 2.915896,0.04805 0.751024,0.344925 0.866105,0.267821 0.866105,-0.579575 0,-0.906812 -0.140389,-0.972978 -1.944805,-0.914407 -2.593792,0.0842 -2.982381,-0.193233 -2.982381,-2.129863 0,-1.874864 0.324253,-2.337735 1.201176,-1.7132 0.336567,0.239701 0.679737,0.368261 0.761998,0.285283 0.321069,-0.323861 -0.293145,-3.033761 -0.687633,-3.033761 -0.230207,0 -0.359344,0.284843 -0.286955,0.632878 0.07239,0.348034 -0.136676,0.712927 -0.463671,0.810804 -0.458313,0.137145 -0.542407,-0.22847 -0.367442,-1.593831 0.124868,-0.974438 0.06282,-1.771759 -0.137352,-1.771759 -0.582788,0 -0.93011,-1.677222 -0.40506,-1.955691 0.333239,-0.17673 0.316957,-0.509807 -0.05337,-1.103595 -0.218812,-0.350859 -0.479025,-0.591945 -0.661389,-0.63438 z m 2.33149,0.716211 c -1.067501,0.160237 -0.917504,0.242154 1.679723,0.914407 1.004098,0.259897 1.379603,0.612576 1.485506,1.397137 0.162602,1.204569 0.978087,1.439349 0.978087,0.28153 0,-0.859893 0.985464,-1.025599 1.700721,-0.286034 0.256711,0.265445 0.615392,0.99021 0.796991,1.611099 0.314009,1.073637 0.348249,1.08829 0.693761,0.286784 0.405691,-0.941109 0.920389,-1.039424 2.251876,-0.427924 0.497624,0.228537 1.017693,0.318114 1.156563,0.198947 0.138866,-0.119168 -1.138319,-0.752617 -2.838032,-1.407647 -1.699714,-0.65503 -3.946887,-1.534525 -4.993677,-1.95494 -1.046794,-0.420416 -2.356977,-0.696599 -2.911519,-0.613359 z m 4.568496,4.984197 c -0.551921,8.84e-4 -0.997558,0.619255 -0.69201,1.302543 0.280174,0.626542 0.349074,0.629135 1.048076,0.02928 0.584404,-0.501499 0.629672,-0.744182 0.20734,-1.106598 -0.183632,-0.157582 -0.379434,-0.225517 -0.563406,-0.225224 z m 67.488981,0.743238 c -0.20764,1.879272 -0.51466,2.425464 -1.09794,2.096831 -0.0362,0.151471 -0.0753,0.277541 -0.0481,0.44369 0.003,0.03211 0.004,0.06411 0.006,0.0961 0.55562,0.155511 1.02847,0.352907 1.09182,0.530026 0.10933,0.305684 0.78044,31.364482 0.75674,35.020008 -0.0421,6.494621 -0.28227,8.878106 -0.93959,9.307737 -0.65094,0.425468 -0.64512,0.470909 0.0656,0.481979 0.59908,0.0093 0.79111,0.351832 0.8145,1.453443 0.0884,4.166034 -0.0786,8.381485 -0.46805,11.819731 -1.44843,12.787066 -1.87188,25.470958 -1.24405,37.285008 0.17976,3.38256 0.45645,9.00414 0.61415,12.49239 0.1577,3.48826 0.47678,6.54857 0.70951,6.80026 0.23273,0.25171 0.73256,0.35559 1.11019,0.23123 0.57285,-0.18864 0.63858,-0.74242 0.39806,-3.34082 -0.15855,-1.71291 -0.31399,-7.82756 -0.34557,-13.58848 -0.0444,-8.10108 -0.18429,-10.4744 -0.61765,-10.4744 -0.92657,0 -1.02051,-0.91068 -0.17847,-1.72971 0.69471,-0.67573 0.82044,-1.93231 1.03758,-10.385817 0.13587,-5.289559 0.34456,-9.873308 0.46455,-10.18611 0.4263,-1.111274 0.95161,-17.639755 0.88535,-27.860152 -0.0796,-12.28278 -0.34975,-16.731927 -1.03758,-17.09672 -0.35271,-0.187067 -0.29147,-0.421133 0.20297,-0.773264 0.61635,-0.43896 0.67386,-1.383924 0.44093,-7.268716 -0.14727,-3.720602 -0.48124,-7.240637 -0.74188,-7.822014 -0.33929,-0.756816 -0.33034,-1.357282 0.0324,-2.114098 0.41508,-0.86681 0.56853,-1.758917 0.60977,-4.736451 -0.38633,-0.02515 -0.77255,-0.05178 -1.15918,-0.07432 -0.0822,5.77e-4 -0.15713,-6.92e-4 -0.36919,7.69e-4 -0.18971,0.0013 -0.37982,0.0031 -0.56954,0.0038 -0.0821,2.69e-4 -0.22787,0.06802 -0.24583,-7.69e-4 -0.0598,-0.22876 -0.11894,-0.427266 -0.17759,-0.611106 z m -63.670237,0.09685 c -0.118033,-0.04723 -0.176818,0.02946 -0.182843,0.228226 -0.0096,0.317115 0.433207,1.048821 0.98421,1.626114 0.851664,0.892283 2.121525,1.433417 2.121525,0.903897 0,-0.589687 -0.636064,-1.376866 -1.112818,-1.376866 -0.313127,0 -0.886244,-0.389187 -1.272912,-0.864859 -0.242359,-0.29815 -0.419129,-0.469287 -0.537162,-0.516512 z m 64.093667,0.477474 c -0.0426,9.99e-4 -0.0851,7.68e-4 -0.12773,0.0015 -0.0394,6.53e-4 0.0787,1.5e-4 0.11811,0 0.003,-4.23e-4 0.006,-0.0011 0.01,-0.0015 z m -66.124205,0.903897 c -0.23182,0 -0.421682,0.172971 -0.421682,0.384381 0,0.21141 0.314054,0.384382 0.698133,0.384382 0.384088,0 0.573941,-0.172972 0.421682,-0.384382 -0.152259,-0.21141 -0.466313,-0.384381 -0.698133,-0.384381 z m 63.253805,0.728973 c -0.0187,0.02469 -0.038,0.04896 -0.0569,0.07357 0.0277,0.01074 0.0463,0.02177 0.0787,0.03228 -0.007,-0.03424 -0.0142,-0.07191 -0.0219,-0.105856 z m -69.157331,0.728974 c -0.248881,0.03616 -0.436616,0.123521 -0.503917,0.274021 -0.122709,0.274379 -0.102548,0.602601 0.04461,0.728974 0.517054,0.443705 2.884925,0.242347 2.701553,-0.229728 -0.204016,-0.525225 -1.495607,-0.881744 -2.242254,-0.773267 z m 10.05034,4.194413 c -0.271089,0.0438 -0.725327,0.234088 -1.459258,0.586332 -1.000057,0.479968 -2.655749,1.261552 -3.678767,1.737224 -1.45619,0.677086 -1.642142,0.864858 -0.856484,0.864858 1.479455,0 6.353199,-2.221893 6.353199,-2.896374 0,-0.233647 -0.0876,-0.335846 -0.35869,-0.29204 z m 5.989259,2.456438 c -0.11118,0.09541 0.414506,1.023536 1.167931,2.062297 0.753425,1.038758 1.752959,2.850901 2.221261,4.026996 0.468302,1.176096 1.130247,2.657037 1.470631,3.291267 0.340383,0.634229 0.859301,2.16642 1.15306,3.404628 0.293754,1.238208 0.692686,2.103067 0.88623,1.921908 0.608907,-0.569942 0.96701,-3.135738 0.47417,-3.397122 -0.253996,-0.134668 -0.461923,-0.669511 -0.461923,-1.18843 0,-0.51888 -0.201567,-1.287242 -0.447926,-1.707193 -1.079108,-1.839481 -1.246793,-2.196063 -1.538873,-3.27475 -0.297212,-1.097644 -4.510534,-5.49489 -4.924561,-5.139601 z m -4.931558,0.819062 c -0.117052,-0.100448 -0.882213,0.156897 -1.700721,0.571318 -0.818509,0.414421 -2.036635,0.871418 -2.706804,1.015758 -0.670245,0.14434 -1.218672,0.432253 -1.218672,0.639635 0,0.207381 0.122674,0.376874 0.272957,0.376874 0.563737,0 5.557163,-2.428591 5.35324,-2.603585 z m -7.830835,0.78528 c -0.283788,-0.0067 -0.482918,0.214672 -0.482918,0.668163 0,0.459854 -0.410686,1.296133 -0.912475,1.858094 -0.501793,0.561962 -2.233708,2.472022 -3.84849,4.244713 -2.503356,2.748149 -6.437186,8.832251 -6.437186,9.955633 0,0.191967 -0.42092,0.765242 -0.93522,1.273263 -0.514304,0.508022 -1.102453,1.179014 -1.307034,1.491731 -0.321925,0.492089 -0.486686,0.479162 -1.227421,-0.09609 -0.470725,-0.36557 -1.02984,-0.664411 -1.242296,-0.664411 -0.212456,0 -0.0301,0.223179 0.40506,0.496244 0.750155,0.470698 0.75149,0.581865 0.02885,2.130611 -0.418923,0.898461 -0.63485,1.741986 -0.480297,1.874613 0.154552,0.132624 0.633228,-0.478166 1.063824,-1.357347 0.430596,-0.87918 0.930118,-1.600534 1.110193,-1.60284 0.740203,-0.0088 0.822876,1.910284 0.134728,3.126102 l -0.730505,1.29053 0.918598,-0.907652 c 0.59089,-0.583583 0.917746,-1.4464 0.917746,-2.418147 0,-1.043442 0.588459,-2.453227 1.901935,-4.554771 1.545004,-2.471996 2.217699,-3.165186 3.583408,-3.693668 1.958184,-0.757751 2.173825,-1.302542 0.515289,-1.302542 h -1.16618 l 1.278162,-1.29053 c 0.703006,-0.709757 1.580516,-1.622971 1.950055,-2.029266 0.369539,-0.406288 1.473847,-1.589402 2.453971,-2.629108 3.130743,-3.321064 3.956347,-4.538263 3.499422,-5.159872 -0.339259,-0.46154 -0.707503,-0.696718 -0.991215,-0.703448 z m -38.896949,8.782217 c -0.887663,-0.06913 -1.451385,0.02333 -1.451385,0.339336 0,0.21141 0.399371,0.384382 0.887104,0.384382 1.102307,0 4.488009,1.138964 4.488009,1.509746 0,0.490494 -4.90501,-0.554135 -5.84491,-1.244734 -0.503705,-0.370102 -1.108042,-0.5705 -1.342903,-0.445941 -0.847788,0.449631 -0.394844,1.223379 1.251043,2.137369 1.505917,0.836264 1.663219,1.077172 1.535371,2.350585 -0.126648,1.261471 0.09504,1.613949 2.00167,3.181657 1.179462,0.969798 2.655424,1.863308 3.279833,1.984969 3.339518,0.650692 8.078416,2.551778 8.078416,3.240966 0,0.219209 1.566025,1.763869 3.480175,3.433161 3.629687,3.165374 6.735029,4.726647 10.406405,5.230441 2.041235,0.280102 2.104742,0.377028 0.952721,1.467707 -2.093127,1.981671 -4.140109,4.928147 -3.84674,5.537496 0.16877,0.350552 0.364204,1.242782 0.433929,1.982716 0.139202,1.477225 1.382232,4.231533 1.905432,4.222193 0.181464,-0.0031 0.589381,-0.147238 0.906352,-0.319821 0.456257,-0.248414 0.386273,-0.693786 -0.335945,-2.139621 -1.191174,-2.38468 -1.22308,-5.052868 -0.06649,-5.584045 0.717035,-0.329303 0.932882,-0.199486 1.417265,0.851348 0.314336,0.681935 0.86374,1.534919 1.220423,1.894877 0.567088,0.572429 0.555532,1.090118 -0.09448,4.125348 -0.40884,1.909092 -1.023694,6.025261 -1.36565,9.147077 -0.34196,3.121815 -1.050978,8.852571 -1.575616,12.73414 -0.524633,3.881573 -0.859126,7.268683 -0.743628,7.526963 0.115502,0.25829 -0.09105,1.72304 -0.458421,3.25523 -0.367371,1.5322 -0.593861,2.84848 -0.503917,2.92566 0.08994,0.0772 0.963659,-0.0185 1.942176,-0.21321 0.978521,-0.19469 2.557617,-0.35833 3.508174,-0.36336 1.569605,-0.008 1.705008,0.0704 1.478505,0.85585 -0.137172,0.47567 -0.466761,2.37513 -0.732256,4.22143 -0.750885,5.22184 -0.558147,5.02446 -4.976175,5.10807 -2.073298,0.0392 -5.382288,0.26044 -7.353163,0.49099 -5.037161,0.58924 -21.684986,1.11655 -41.544263,1.31606 -8.7114607,0.0875 -10.6375977,0.20302 -10.6382432,0.63963 -6.6e-4,0.44643 1.7295549,0.4941 10.6373682,0.29204 5.851034,-0.13272 16.786027,-0.34672 24.299986,-0.47522 l 13.661744,-0.23348 3.496797,1.00225 c 3.470038,0.9944 10.112123,4.29398 10.128203,5.03149 0.0046,0.21141 -0.273969,0.70359 -0.618523,1.09383 -0.667284,0.75578 -0.567339,0.79753 -5.680436,-2.39712 -0.470265,-0.29383 -0.939937,-0.46141 -1.043704,-0.37238 -0.268343,0.23027 4.929663,3.78977 5.534337,3.78977 0.773272,0 0.618097,0.33737 -0.947471,2.05854 -1.458698,1.60369 -2.570097,2.51942 -3.085615,2.54202 -0.15337,0.007 -1.564337,-0.87102 -3.135482,-1.95043 -2.517268,-1.72943 -8.007551,-4.49053 -8.007551,-4.027 0,0.19243 8.553452,5.20107 9.891116,5.792 0.472405,0.20869 0.859108,0.59787 0.859108,0.86486 0,0.82012 0.73455,0.54682 2.4216,-0.9009 1.399223,-1.20072 1.779906,-1.34226 2.844156,-1.05705 0.675831,0.18112 2.732313,0.31317 4.569369,0.2928 2.668564,-0.0296 3.518096,0.10567 4.227302,0.67266 0.488222,0.39033 1.488449,0.70946 2.222134,0.70946 0.733685,0 1.194686,0.11968 1.024456,0.26576 -0.421691,0.36187 3.764554,3.96243 4.606987,3.96243 0.389382,0 -0.311345,-0.85619 -1.662223,-2.03001 -1.284969,-1.11655 -2.33674,-2.15438 -2.33674,-2.30629 0,-0.15191 0.593874,-0.27628 1.320159,-0.27628 1.587409,0 5.452375,2.63213 8.989136,6.12158 1.301727,1.2843 2.740075,2.33482 3.195849,2.33482 0.455774,0 0.828489,-0.0519 0.828489,-0.11487 0,-0.063 -2.368409,-2.15328 -5.263131,-4.64561 l -5.263131,-4.5315 -3.012128,0.34235 c -2.796953,0.31779 -4.378651,0.1 -4.378651,-0.60285 0,-0.15901 0.692153,-0.30601 1.537994,-0.32658 2.473564,-0.0602 8.212509,-1.89208 9.566549,-3.05403 0.496535,-0.4261 0.903811,-0.37744 2.436471,0.29354 1.842355,0.80657 2.634647,0.76522 5.6017,-0.29279 0.309047,-0.1102 0.973061,0.41097 1.500377,1.17792 0.52002,0.75633 1.125939,1.2788 1.347277,1.16141 0.518299,-0.27489 -0.782944,-2.44893 -1.633353,-2.72896 -1.534922,-0.50545 0.01881,-8.97216 1.646477,-8.97216 0.448567,0 4.334692,3.37244 5.218513,4.5285 0.368701,0.48226 0.766041,0.79457 0.882731,0.69443 0.27528,-0.23623 -1.440954,-2.37729 -3.198473,-3.99021 -1.120747,-1.02852 -1.25955,-1.33047 -0.737506,-1.60734 0.782236,-0.41487 1.891946,0.0486 3.007756,1.25525 1.281953,1.38651 2.231063,1.70388 1.131183,0.37837 -0.54117,-0.65218 -0.984209,-1.37497 -0.984209,-1.6066 0,-0.83316 1.614829,-0.39895 2.364739,0.63589 1.30834,1.80545 4.63758,4.82003 5.15115,4.66438 0.2688,-0.0815 -0.60671,-1.24084 -1.94568,-2.57656 -1.33898,-1.33573 -2.43473,-2.67626 -2.43473,-2.97896 0,-0.97073 1.92213,-0.59323 3.45043,0.67792 0.81241,0.6757 1.47676,1.04306 1.47676,0.81607 0,-0.227 -0.30235,-0.62796 -0.67189,-0.89114 -0.36954,-0.26318 -0.67189,-0.63054 -0.67189,-0.81606 0,-0.69017 1.12187,-0.29994 2.54758,0.88588 1.56003,1.29754 2.64102,1.23967 1.26242,-0.0676 -0.44727,-0.42411 -0.67395,-0.77101 -0.50392,-0.77101 0.3915,0 2.55233,1.18011 3.3332,1.82056 0.91959,0.75421 1.52262,0.59503 0.98859,-0.26127 -0.25635,-0.41104 -0.66657,-0.85427 -0.9116,-0.98422 -0.74443,-0.39482 -0.49884,-0.95945 0.4173,-0.95945 0.47459,0 2.64143,1.46843 4.81521,3.26348 2.17377,1.79506 4.1197,3.26532 4.32441,3.26725 0.2047,0.002 -1.05419,-1.33678 -2.79779,-2.97521 -1.74361,-1.63842 -3.17045,-3.10868 -3.17135,-3.26724 -8.9e-4,-0.15856 0.45178,-0.2884 1.00608,-0.28828 0.59231,1.2e-4 1.88507,0.73227 3.13549,1.77551 2.19855,1.83428 2.991,1.82663 1.00783,-0.01 -0.6159,-0.57028 -1.11982,-1.20037 -1.11982,-1.40089 0,-0.89502 1.47625,-0.19947 3.71114,1.74924 3.09638,2.69988 3.69213,2.73173 1.02708,0.0548 -1.12766,-1.1327 -2.05066,-2.17053 -2.05066,-2.30629 0,-0.13577 0.45353,-0.2481 1.00783,-0.24925 0.68192,-0.002 2.20919,1.07018 4.72335,3.31379 2.0437,1.82377 3.83458,3.21386 3.97972,3.08931 0.14514,-0.12455 -1.17393,-1.59481 -2.93164,-3.26799 -1.75771,-1.67319 -3.19585,-3.14945 -3.19585,-3.28 0,-0.13055 0.55431,-0.23246 1.2318,-0.22673 0.97365,0.008 1.93582,0.68937 4.59124,3.24922 1.84769,1.7812 3.64019,3.24667 3.98322,3.25673 0.34302,0.0101 -0.86638,-1.28532 -2.68756,-2.87835 -1.82118,-1.59304 -3.37881,-3.0633 -3.46093,-3.26724 -0.60227,-1.49578 4.35708,1.46221 7.31292,4.36183 1.11071,1.08958 2.01916,1.73209 2.01916,1.42791 0,-0.594 -8.51353,-7.94859 -9.03288,-7.80324 -0.32507,0.091 -10.79922,0.69163 -18.51457,1.06155 -2.46359,0.11812 -4.98317,0.29124 -5.59907,0.38513 -0.6159,0.0939 -2.73235,0.26903 -4.70322,0.38889 -1.97088,0.11986 -3.885764,0.28232 -4.255303,0.36111 -3.050811,0.6505 -3.084817,0.6455 -3.837991,-0.60435 -0.636427,-1.05612 -0.661005,-1.56468 -0.188967,-3.94442 0.298032,-1.5025 0.640212,-3.46012 0.760247,-4.34981 0.120031,-0.88969 0.481072,-1.80428 0.802244,-2.03302 0.321177,-0.22874 3.041579,-0.60985 6.04525,-0.84684 3.63655,-0.28693 5.53468,-0.59552 5.68131,-0.92342 0.12111,-0.27083 -0.29067,-1.75688 -0.91509,-3.30177 -0.62443,-1.54489 -1.36699,-3.58691 -1.65086,-4.538256 -0.28387,-0.951344 -0.89892,-2.410722 -1.36652,-3.243219 -0.4676,-0.832409 -0.85036,-1.671494 -0.85036,-1.864096 0,-0.192602 -0.27966,-0.895371 -0.62115,-1.56155 -0.8168,-1.593419 -2.227649,-5.171496 -3.356821,-8.5142 -0.93221,-2.759644 -2.250645,-4.845295 -2.278998,-3.60508 -0.01841,0.804718 2.125207,7.001563 4.379519,12.662069 0.97345,2.444286 1.93117,5.730747 2.12853,7.303252 0.19736,1.5725 0.43782,2.55613 0.53454,2.18616 0.30097,-1.15124 0.80709,-0.74743 1.54499,1.23273 l 0.71038,1.90539 -1.40851,0.37387 c -1.60193,0.42529 -3.918773,0.74236 -7.376785,1.009 l -2.384856,0.18393 0.230086,-1.82431 c 0.126355,-1.00315 0.43008,-2.60193 0.675392,-3.55327 0.409341,-1.58747 0.383048,-5.524432 -0.121608,-18.371485 -0.15973,-4.066302 -0.09629,-4.662063 0.454927,-4.269486 0.352343,0.250928 0.740171,0.370832 0.861734,0.266514 0.358954,-0.308032 -0.989406,-5.225647 -2.454845,-8.952637 -0.748131,-1.902688 -1.362515,-3.935106 -1.365651,-4.516483 -0.0052,-1.019752 -1.351867,-2.594575 -2.218635,-2.594575 -0.23182,0 -0.562918,0.196212 -0.73575,0.436185 -0.202906,0.281736 -0.523966,0.111517 -0.906352,-0.480477 -0.861379,-1.333596 -0.760045,-1.606107 0.496043,-1.335576 0.615898,0.132654 1.119815,0.08169 1.119815,-0.113365 0,-0.195063 0.646119,-0.980965 1.435638,-1.74623 2.241892,-2.173024 3.353242,-4.907045 3.639399,-8.95489 0.1458,-2.06246 0.07374,-3.640477 -0.172348,-3.770994 -0.232711,-0.123417 -0.437073,-0.08394 -0.454049,0.08709 -0.148725,1.498569 -0.446847,2.512483 -1.016582,3.457931 -0.368777,0.61197 -0.913527,2.229843 -1.209924,3.59532 -0.296393,1.365481 -1.048541,3.401642 -1.671848,4.524739 -1.125898,2.028689 -1.144183,2.040305 -2.810037,1.798786 -1.362721,-0.197568 -1.79355,-0.100642 -2.299119,0.518766 -0.342149,0.419187 -1.57902,1.198978 -2.748797,1.732718 -1.169777,0.533741 -2.694302,1.380122 -3.387441,1.880618 -0.693138,0.500499 -2.249,1.23303 -3.457429,1.627613 -2.461071,0.803603 -6.168371,2.629293 -7.661111,3.772497 -0.559043,0.428143 -1.294112,0.652368 -1.699844,0.518761 -1.038503,-0.341961 -2.087393,-2.748631 -1.741836,-3.996964 0.400679,-1.447461 1.125356,-2.085715 5.770546,-5.07879 2.217234,-1.428654 4.422306,-2.973526 4.900064,-3.433158 0.680704,-0.654874 1.165289,-0.781124 2.23963,-0.585582 0.754039,0.137244 1.67325,0.473985 2.042789,0.748491 0.894132,0.664192 1.970422,0.846566 2.207259,0.373873 0.105204,-0.209973 -0.843297,-0.814559 -2.107524,-1.343083 -1.264226,-0.528525 -2.308046,-1.090683 -2.319244,-1.24924 -0.03722,-0.527633 1.560511,-0.297761 3.339324,0.480477 1.935359,0.846723 2.463593,0.938932 2.463593,0.430176 0,-0.186205 -1.108617,-0.820097 -2.463593,-1.408396 -1.354976,-0.5883 -2.463593,-1.116044 -2.463593,-1.173417 0,-0.05737 0.220801,-0.59179 0.490793,-1.186928 0.883964,-1.948507 1.748837,-5.130171 1.748837,-6.433885 0,-0.703042 0.30235,-2.013341 0.671889,-2.91214 0.369539,-0.898799 0.66573,-2.00134 0.657892,-2.450432 -0.01416,-0.812313 -0.01819,-0.81284 -0.720006,-0.04805 -1.409394,1.535877 -2.064334,3.526681 -2.241381,6.81151 -0.269352,4.99734 -2.233641,8.298812 -6.418816,10.788209 -1.850431,1.100664 -2.403123,0.872165 -2.129395,-0.879123 0.132178,-0.84564 0.05757,-1.537526 -0.165348,-1.537526 -0.222915,0 -0.405059,0.764135 -0.405059,1.698186 0,2.100898 -0.342261,2.914392 -1.225674,2.914392 -0.55249,0 -0.629967,-0.346001 -0.411182,-1.825812 0.148469,-1.004197 0.391402,-3.036614 0.54066,-4.516483 0.149258,-1.479869 0.480091,-3.163383 0.734881,-3.740962 0.254789,-0.57758 0.336992,-1.331694 0.182843,-1.676415 -0.43069,-0.963133 -1.574733,0.04868 -1.424261,1.259749 0.06731,0.54177 -0.05688,1.785333 -0.276456,2.763496 -0.219573,0.978166 -0.452786,3.255007 -0.517914,5.059271 -0.117657,3.259202 -0.395107,4.214682 -1.223922,4.214682 -1.503106,0 -1.379572,-4.714009 0.28695,-10.954873 0.338722,-1.268459 0.724834,-3.084662 0.858235,-4.036006 0.221549,-1.580011 0.200582,-1.629912 -0.241463,-0.576572 -0.266158,0.634229 -0.656678,1.499088 -0.867857,1.921907 -0.889908,1.781747 -1.508888,4.32179 -2.060285,8.456393 -0.404526,3.033293 -0.664691,3.651625 -1.537121,3.651625 -2.681939,0 -9.806466,-3.45348 -9.82725,-4.763479 -0.0064,-0.399972 -0.822065,-1.828114 -1.812698,-3.174149 -1.790061,-2.432266 -1.796708,-2.45551 -1.062951,-3.693668 0.406063,-0.685206 0.783821,-1.291729 0.838988,-1.348337 0.05517,-0.05661 0.987072,0.242475 2.070779,0.664411 4.166734,1.622282 3.979648,0.547513 -0.20734,-1.191433 -2.773849,-1.152041 -4.50386,-2.118234 -6.922731,-3.864837 -2.033542,-1.468368 -7.613937,-3.132671 -10.276928,-3.340064 z m 36.205021,0.723718 c -0.459411,0 -0.730007,0.653848 -1.11194,2.69067 l -0.251959,1.345335 0.878356,-1.537526 c 0.967373,-1.692162 1.124626,-2.498479 0.485543,-2.498479 z m -33.610199,2.43466 c 0.59181,0.02132 1.328906,0.343126 1.328906,0.681678 0,0.454915 -1.667056,0.442642 -1.996421,-0.01503 -0.141737,-0.196804 -0.07155,-0.456323 0.156599,-0.577322 0.132392,-0.07021 0.313646,-0.09644 0.510916,-0.08934 z m 4.81258,0.256006 c 0.454049,0 2.202153,1.024638 3.975342,2.330313 0.776793,0.571971 1.673331,1.11453 1.992048,1.205697 0.44066,0.126047 0.34321,0.597717 -0.406807,1.966953 -0.542465,0.990329 -1.035869,1.786936 -1.096195,1.770258 -0.06033,-0.01668 -0.613274,-0.180782 -1.229172,-0.364113 -0.615898,-0.183331 -1.976474,-0.522044 -3.023501,-0.753 -1.148022,-0.253219 -1.903685,-0.643205 -1.903685,-0.981971 0,-0.665488 -0.524351,-0.727204 -1.206426,-0.141891 -0.553921,0.475338 -1.835147,0.02741 -2.813535,-0.984228 -0.897523,-0.928032 -0.13835,-1.203133 1.303534,-0.47222 1.45541,0.737766 2.268501,0.833808 2.268501,0.268017 0,-0.21141 -0.290717,-0.384381 -0.646518,-0.384381 -0.780773,0 -3.386735,-1.892572 -2.629816,-1.909896 0.291911,-0.0067 1.013574,0.145792 1.604485,0.338586 1.064206,0.347208 2.12804,0.07295 2.27025,-0.585582 0.04055,-0.187774 0.325446,-0.317653 0.633395,-0.288286 0.307949,0.02937 0.559908,-0.186852 0.559908,-0.480477 0,-0.293625 0.156649,-0.533779 0.348192,-0.533779 z m 27.311239,2.33707 c -0.05392,-0.0095 -0.150373,0.175202 -0.335944,0.545791 -0.21173,0.42282 -0.39912,0.908536 -0.416433,1.07957 -0.01733,0.171035 0.170073,0.204234 0.416433,0.07357 0.246359,-0.130659 0.433767,-0.616375 0.416432,-1.07957 -0.01519,-0.405976 -0.02656,-0.60986 -0.08049,-0.619366 z m -27.785411,0.501499 c -0.932797,-0.103341 -0.997754,0.299706 0.06386,1.03828 1.203202,0.837071 1.100835,0.811856 2.041038,0.502248 1.102023,-0.362894 0.848353,-0.721872 -0.892353,-1.262001 -0.494199,-0.153361 -0.901617,-0.244082 -1.21255,-0.278527 z m 47.243949,2.927903 c -0.65214,7.69e-4 -0.765102,0.488584 -0.810119,3.511986 -0.05879,3.948175 0.416836,3.835659 1.434765,-0.339335 0.655652,-2.689122 0.560522,-3.173804 -0.624646,-3.172651 z m -35.858578,1.355848 c -0.142531,0.122307 0.0374,0.383648 0.399809,0.580324 0.948246,0.514614 1.072232,0.451925 0.426054,-0.216214 -0.311631,-0.322224 -0.683333,-0.48642 -0.825863,-0.36411 z m -4.42852,1.793528 c 0.07885,-0.0256 0.203784,0.04199 0.386686,0.198948 0.274072,0.235192 0.420759,0.626242 0.326323,0.869364 -0.222606,0.57307 -0.82499,0.05614 -0.82499,-0.707954 0,-0.216326 0.03315,-0.334762 0.111981,-0.360358 z m 2.046288,2.615597 c 0.261983,0 0.609233,0.184434 0.771624,0.409909 0.482089,0.669377 -0.06717,0.810902 -0.681515,0.175673 -0.353302,-0.365312 -0.387129,-0.585582 -0.09011,-0.585582 z m 21.092764,0.334831 c -0.230991,0.02356 -0.255322,0.531042 -0.03848,1.394886 l 0.288702,1.153145 0.153097,-1.092336 c 0.08416,-0.600704 0.03763,-1.191436 -0.104107,-1.313051 -0.121639,-0.104383 -0.222203,-0.150493 -0.299201,-0.142644 z m 14.371254,6.602056 c 0.272751,0.0012 0.414435,0.398815 0.610649,1.327316 0.134028,0.634229 0.744887,2.874278 1.356902,4.97819 0.612015,2.103916 1.0393,3.927156 0.950091,4.051019 -0.0892,0.123864 0.127471,1.861414 0.481172,3.861835 0.938758,5.309381 0.723293,21.087577 -0.310574,22.745326 -0.375784,0.602563 -0.353065,0.739103 0.09973,0.609603 0.990485,-0.283325 1.748206,-5.158224 2.020039,-12.990893 0.237212,-6.835171 -0.0887,-11.771994 -0.999959,-15.137274 -0.229262,-0.846661 -0.15402,-1.065571 0.319322,-0.930172 0.710388,0.203203 1.674983,4.48301 1.671848,7.418863 -8.96e-4,1.057049 0.188917,2.354336 0.422555,2.882861 0.432356,0.978055 0.333347,4.943277 -0.202091,8.072011 -0.162821,0.951345 -0.248675,3.372948 -0.190718,5.381341 0.104013,3.604511 -0.620279,11.846773 -1.075197,12.237143 -0.128877,0.1106 -0.944308,-0.0894 -1.811829,-0.44444 -1.984868,-0.81223 -5.329003,-0.82819 -7.873697,-0.036 -1.078002,0.3354 -3.26986,0.76203 -4.871196,0.94819 -7.762186,0.90233 -9.977964,1.11314 -10.243683,0.97221 -0.502886,-0.26671 0.277714,-9.048962 1.300912,-14.638027 2.290873,-12.513548 3.075505,-16.049946 3.854609,-17.372241 0.398014,-0.675512 0.594179,-1.516858 0.436553,-1.869355 -0.512391,-1.145845 -1.55192,0.117375 -2.113651,2.567545 -0.287317,1.253222 -0.696722,2.371184 -0.909849,2.484216 -0.213123,0.113035 -0.38884,0.757066 -0.390184,1.431671 -0.0013,0.674605 -0.222319,1.907708 -0.491671,2.740221 -0.269346,0.832513 -0.65682,2.735201 -0.860855,4.228197 -0.204039,1.492995 -0.804233,5.049811 -1.333279,7.903844 -1.045723,5.641329 -1.267151,8.997169 -0.742755,11.243159 0.250628,1.07344 0.187999,1.43981 -0.244084,1.43543 -1.044013,-0.0106 -1.615589,-0.55379 -1.816201,-1.72522 l -0.197715,-1.15164 -0.06649,1.24924 c -0.05375,1.00054 -0.257392,1.24924 -1.021831,1.24924 -0.856376,0 -0.924152,-0.14813 -0.66139,-1.44143 0.16107,-0.79279 0.497942,-4.03601 0.748874,-7.207155 0.250937,-3.171147 0.758111,-7.754896 1.126816,-10.186109 0.368706,-2.431213 0.860171,-5.715849 1.09182,-7.299494 0.23165,-1.583644 0.653891,-3.362592 0.938719,-3.952675 0.284822,-0.590087 0.425561,-1.151319 0.313198,-1.247737 -0.112357,-0.09642 0.02656,-1.17226 0.30795,-2.390373 0.415912,-1.800373 0.735651,-2.308564 1.711216,-2.716197 0.660055,-0.275797 1.201158,-0.708227 1.202054,-0.960954 8.96e-4,-0.252723 0.958365,-0.792452 2.127649,-1.199689 1.169284,-0.407241 2.22668,-0.863878 2.34986,-1.014256 0.21698,-0.264885 3.367902,-1.48131 3.827492,-1.477466 0.125164,0.0012 1.179111,-0.434632 2.342864,-0.967711 1.163747,-0.533076 2.660053,-1.13855 3.324453,-1.346085 1.461649,-0.456565 1.59975,-0.17637 1.680596,3.41739 0.052,2.311255 0.428678,3.066726 1.537121,3.083312 0.405977,0.0061 0.242677,-1.558302 -0.580029,-5.559271 -0.389606,-1.89474 -0.357557,-2.397345 0.18197,-2.860337 0.298019,-0.25574 0.508235,-0.397831 0.671889,-0.397143 z m 62.595037,1.221461 c -3.6e-4,0.0012 -3.3e-4,0.0019 -8.9e-4,0.0031 0.004,3.84e-4 0.009,0.0012 0.0131,0.0015 -0.004,-0.0015 -0.008,-0.0031 -0.0122,-0.0045 z m -60.022961,1.918152 c 0.05258,-0.02095 0.126405,-0.01614 0.222212,0.01126 0.290426,0.08307 0.800439,1.071963 1.132939,2.198182 0.396809,1.344017 0.453127,2.177952 0.163596,2.426408 -0.28953,0.248457 -0.541193,-0.133638 -0.731378,-1.112604 -0.159367,-0.820324 -0.470183,-1.980145 -0.691136,-2.577308 -0.21866,-0.590968 -0.25401,-0.883148 -0.09623,-0.94594 z m -23.34727,0.448946 c -0.160626,0.0061 -0.27383,0.15971 -0.27383,0.406906 0,0.329592 0.201566,0.599093 0.447926,0.599093 0.246359,0 0.447926,-0.162927 0.447926,-0.36186 0,-0.198933 -0.201567,-0.468435 -0.447926,-0.599093 -0.06159,-0.03267 -0.120555,-0.04708 -0.174096,-0.04505 z m 0.595778,1.390381 c -0.260899,0 -0.349978,0.172971 -0.197719,0.384381 0.152259,0.21141 0.36553,0.384382 0.47417,0.384382 0.10864,0 0.197719,-0.172972 0.197719,-0.384382 0,-0.21141 -0.213271,-0.384381 -0.47417,-0.384381 z m -3.903608,9.776955 c -0.126571,0.03071 -0.243699,0.103444 -0.321069,0.21096 -0.154741,0.214854 0.03324,0.390385 0.417305,0.390385 0.786796,0 0.902119,-0.230552 0.280828,-0.560055 -0.114669,-0.06082 -0.250489,-0.07201 -0.377064,-0.04129 z M 86.520232,107.0487 c 1.186108,-0.0604 2.293184,-0.003 2.75492,0.1982 0.369539,0.16154 1.346488,0.52068 2.171393,0.79879 l 1.500377,0.506 -0.280832,2.40689 c -0.154561,1.32367 -0.472665,2.83921 -0.706881,3.36784 -0.279797,0.63154 -0.253839,1.60143 0.07611,2.82806 0.287183,1.06765 0.35099,2.34104 0.148725,2.97445 -0.194525,0.60917 -0.402583,1.79924 -0.461924,2.64488 -0.162382,2.31396 -1.080765,6.04673 -1.626357,6.61181 -0.561717,0.581 -1.456292,0.58058 -3.165228,0.002 -1.126113,-0.38209 -1.219098,-0.5721 -1.149558,-2.3611 0.04157,-1.07024 0.03839,-2.62887 -0.007,-3.46394 -0.137971,-2.53704 -1.008806,-1.03067 -1.297409,2.24398 -0.299627,3.39972 -0.456146,3.44273 -4.17481,1.15014 -1.15925,-0.71469 -2.285152,-1.30027 -2.502087,-1.30104 -0.216935,-7.7e-4 -1.045173,-0.34201 -1.840699,-0.75825 -0.955851,-0.50012 -1.358049,-0.95585 -1.184553,-1.34384 0.378636,-0.84672 1.670374,-0.72579 4.257922,0.3994 1.248101,0.54274 2.357327,0.91101 2.465344,0.81831 0.108022,-0.0927 -1.120666,-0.75265 -2.730423,-1.46695 -1.609761,-0.7143 -2.927245,-1.41649 -2.928141,-1.5608 -8.96e-4,-0.14431 0.412526,-0.37568 0.918598,-0.51351 0.629712,-0.17151 1.781218,0.19009 3.64902,1.14489 1.501063,0.76732 3.05206,1.33923 3.446929,1.27101 0.465104,-0.0804 0.04783,-0.44957 -1.185427,-1.04879 -1.047027,-0.50875 -1.903685,-1.06625 -1.903685,-1.23873 0,-0.17248 0.755875,-0.31675 1.679722,-0.31982 2.699503,-0.009 2.975385,-0.33672 2.667435,-3.16665 -0.292146,-2.68265 -1.223926,-5.66815 -1.768971,-5.66815 -0.490435,0 -0.422601,0.46773 0.333319,2.30628 0.369539,0.8988 0.671889,2.54014 0.671889,3.64712 v 2.01275 l -2.981507,0.26201 c -1.639808,0.14417 -3.153592,0.11434 -3.363822,-0.0661 -0.211031,-0.1811 -0.116917,-1.09218 0.209966,-2.03452 0.341449,-0.98433 0.570944,-3.36436 0.542411,-5.62233 -0.04094,-3.24104 0.06987,-3.93994 0.643894,-4.05628 1.459715,-0.29583 2.234537,0.15506 2.521335,1.46696 0.159175,0.7281 0.502578,1.43701 0.762872,1.57506 0.290614,0.15413 0.367613,0.0142 0.19947,-0.36186 -0.150597,-0.33678 -0.407872,-1.22673 -0.572158,-1.97821 -0.272747,-1.24762 -0.187444,-1.40409 0.98159,-1.80254 0.777326,-0.26494 2.042108,-0.4426 3.228216,-0.503 z m -10.374038,1.85284 c 0.668126,0.008 1.132182,0.0507 1.196804,0.14039 0.335089,0.46526 0.3645,5.06458 0.04112,6.42863 -0.356858,1.50532 -2.923027,7.13829 -3.589532,7.87982 -0.999,1.11146 -4.774846,7.20976 -5.533458,8.93687 -0.498582,1.1351 -1.116178,1.23703 -3.509921,0.57807 -1.329835,-0.36605 -2.018749,-1.05855 -1.05333,-1.05855 0.506031,0 2.958292,-5.70081 2.588695,-6.01797 -0.149666,-0.12843 -0.0967,-0.51357 0.117231,-0.8566 0.213938,-0.34304 0.613945,-2.55461 0.888855,-4.91438 0.483236,-4.14799 1.939806,-10.01753 2.615816,-10.53971 0.393078,-0.30361 4.23334,-0.5992 6.23772,-0.57657 z M 61.90792,121.12442 c 0.374247,0.0108 0.809899,0.0438 1.29129,0.1006 2.053898,0.24241 2.203948,0.33459 2.238752,1.38438 0.0211,0.63702 -0.195806,1.12536 -0.500414,1.12536 -0.421561,0 -3.255217,-1.43492 -4.292045,-2.17341 -0.427339,-0.30438 0.13969,-0.46938 1.262417,-0.43693 z m -4.470508,0.38138 c 0.829241,0.0846 1.681577,0.35183 2.565075,0.80179 4.433048,2.25774 5.08466,2.69194 5.08466,3.38737 0,0.40193 -0.151175,0.71712 -0.335945,0.70044 -0.642604,-0.058 -1.681125,-0.47144 -1.903686,-0.7575 -0.207165,-0.26628 -5.025335,-2.25439 -7.614742,-3.14187 -1.065365,-0.36514 -1.076254,-0.39848 -0.223963,-0.69819 0.792941,-0.27884 1.599347,-0.37669 2.428601,-0.29204 z m 57.145558,1.26801 0.85299,0.86486 c 0.46931,0.47567 0.92283,0.86485 1.00783,0.86485 0.35846,0 0.0941,-0.30961 -0.85298,-0.99774 z m -6.38907,0.002 c -0.162,0.0442 -0.0995,0.31077 0.33332,0.75825 0.31164,0.32223 0.77445,0.58559 1.02883,0.58559 0.25438,0 0.0965,-0.3469 -0.35081,-0.77102 -0.46317,-0.43919 -0.84934,-0.61706 -1.01134,-0.57282 z m 3.61228,0.35661 c -0.15379,0.0397 -0.17018,0.24263 0.0709,0.57732 0.16239,0.22547 0.50964,0.40991 0.77163,0.40991 0.29702,0 0.26319,-0.22027 -0.0901,-0.58559 -0.30718,-0.31761 -0.59858,-0.44135 -0.75238,-0.40164 z m -71.978736,0.76951 c -0.307546,-0.018 -0.08008,0.18358 0.761124,0.81381 0.691226,0.51786 1.478028,0.94143 1.748836,0.94143 0.792521,0 -0.953892,-1.44044 -2.02704,-1.67191 -0.218388,-0.0471 -0.380405,-0.0773 -0.48292,-0.0833 z m 8.161524,0.34084 c -0.112949,-0.0221 -0.194202,-0.018 -0.233584,0.0158 -0.157536,0.13518 -0.202382,0.29888 -0.09974,0.36411 2.107653,1.33934 4.973045,2.95643 5.238638,2.95643 0.190722,0 1.737823,0.95135 3.438181,2.1141 3.206846,2.19293 4.738408,2.80408 2.962261,1.18167 -1.019426,-0.93181 -7.388003,-4.83332 -7.888573,-4.83332 -0.145384,0 -0.961926,-0.45625 -1.81445,-1.01426 -0.639392,-0.4185 -1.263886,-0.71811 -1.602738,-0.78453 z m -19.231946,0.33933 c -0.504014,0.14419 0.923302,1.19624 4.255297,3.13662 2.249679,1.31009 2.689819,1.28124 0.838987,-0.0548 -3.609101,-2.60527 -4.621,-3.21718 -5.094284,-3.08181 z m 95.568338,0.12384 c -0.18076,0.0218 -0.1462,0.42689 0.1601,1.11186 0.2736,0.61182 1.08422,0.85696 1.0577,0.31982 -0.008,-0.15856 -0.31019,-0.62416 -0.67189,-1.03453 -0.25156,-0.28541 -0.43744,-0.41022 -0.54591,-0.39715 z m -49.95337,0.0706 3.409308,1.61561 c 3.911716,1.85298 4.321926,2.22433 2.940393,2.66289 l -0.996461,0.31606 1.04545,0.62838 c 0.937796,0.56367 0.964233,0.65449 0.261585,0.88588 -0.430578,0.14179 -1.523249,0.0497 -2.428601,-0.20421 -0.905353,-0.25385 -1.948828,-0.5468 -2.318367,-0.65164 -0.369539,-0.10485 -0.09934,0.22719 0.600149,0.73873 1.08425,0.79292 1.161302,0.96703 0.523164,1.17717 -0.985437,0.3245 -0.976465,0.32601 -3.691891,-0.85135 -2.316087,-1.00421 -2.855945,-1.78115 -1.840694,-2.65238 0.392142,-0.33651 0.854876,-0.2536 1.903686,0.34234 l 1.385771,0.78753 -1.231797,-0.97747 c -1.441134,-1.14393 -1.50779,-1.6451 -0.386685,-2.89637 z m -50.185213,0.59985 c -0.440969,0.12613 2.729309,1.90575 5.066288,2.84382 1.452226,0.58292 1.783271,0.58735 0.747127,0.009 -0.451443,-0.25183 -1.840908,-1.02602 -3.087365,-1.72071 -1.246457,-0.6947 -2.473137,-1.20447 -2.72605,-1.13213 z m 87.310583,0.0435 c -0.16063,0.006 -0.27383,0.15971 -0.27383,0.40691 0,0.32959 0.20157,0.59909 0.44792,0.59909 0.24636,0 0.44793,-0.16293 0.44793,-0.36186 0,-0.19893 -0.20157,-0.46843 -0.44793,-0.59909 -0.0616,-0.0327 -0.12055,-0.0471 -0.17409,-0.0451 z m 16.72111,0.23724 c -0.2609,0 -0.34997,0.17297 -0.19772,0.38438 0.15226,0.21141 0.36553,0.38438 0.47417,0.38438 0.10864,0 0.19772,-0.17297 0.19772,-0.38438 0,-0.21141 -0.21327,-0.38438 -0.47417,-0.38438 z m -109.584401,0.14414 c -0.08119,0.0307 -0.131228,0.10578 -0.131228,0.21772 0,0.22389 0.201566,0.4069 0.447926,0.4069 0.246359,0 0.447926,-0.0764 0.447926,-0.16967 0,-0.0932 -0.201567,-0.27624 -0.447926,-0.4069 -0.12318,-0.0653 -0.235511,-0.0788 -0.316698,-0.0481 z m 27.660307,0.16441 c 0.02408,0.31613 5.613139,3.99113 6.655024,4.3761 0.39374,0.14548 1.723467,0.96559 2.955263,1.82205 3.235728,2.2498 4.889552,2.09428 1.772457,-0.16666 -1.890669,-1.37136 -11.412079,-6.41649 -11.382744,-6.03149 z m -25.281575,1.25525 c -0.104526,0.0911 1.958947,1.23242 4.585118,2.53602 4.611134,2.28891 5.895021,2.75658 5.893901,2.14638 -6.27e-4,-0.35225 -10.212098,-4.9151 -10.479019,-4.6824 z m 115.153739,0.14339 c -0.64867,-0.009 -0.19552,1.01969 1.14868,2.45944 1.33126,1.42591 2.12765,1.94213 2.12765,1.37912 0,-0.55688 -2.34799,-3.57712 -2.9299,-3.76874 -0.13824,-0.0455 -0.25377,-0.0685 -0.34643,-0.0698 z m -24.78029,0.21472 c -1.09298,0 -0.65015,0.58508 1.517,2.00373 1.17021,0.76604 2.61609,1.83926 3.21335,2.38512 0.59725,0.54586 1.40352,0.98668 1.7917,0.97973 0.85779,-0.0153 -5.64562,-5.36858 -6.52205,-5.36858 z m 10.94619,0 c -0.73836,0 -0.28456,0.54078 2.44085,2.90613 2.48899,2.16017 3.91935,2.97201 3.91935,2.22446 0,-0.35255 -5.92311,-5.13059 -6.3602,-5.13059 z m -4.06983,0.0999 c -0.081,-0.009 -0.13991,0.002 -0.17672,0.033 -0.15408,0.13222 0.30499,0.62872 1.02009,1.10284 0.71509,0.47412 2.20708,1.59662 3.3157,2.49473 1.95184,1.58121 3.13548,2.05941 3.13548,1.2665 0,-0.21141 -0.15117,-0.38781 -0.33594,-0.39188 -0.18477,-0.004 -1.14221,-0.62304 -2.12765,-1.37537 -2.62225,-2.00197 -4.26419,-3.06468 -4.83096,-3.12985 z m 14.18141,0.012 c -0.16171,0.13877 0.38959,0.91784 1.2248,1.73122 0.83522,0.81337 1.97128,1.94186 2.52396,2.50823 0.95997,0.98377 1.91141,1.35526 1.90106,0.74174 -0.009,-0.52788 -5.35092,-5.23769 -5.64982,-4.98119 z m -16.98881,0.009 c -0.23596,0.0598 -0.22269,0.35388 0.23883,0.83108 0.31163,0.32223 0.88842,0.58558 1.28254,0.58558 0.5759,0 0.52402,-0.16593 -0.26596,-0.84384 -0.53453,-0.4587 -1.01946,-0.6326 -1.25541,-0.57282 z m -11.26202,0.26355 c -0.99142,0 -0.62292,0.53212 1.11194,1.60434 2.33619,1.44388 2.7828,1.32722 0.99121,-0.25901 -0.83573,-0.73993 -1.78194,-1.34533 -2.10315,-1.34533 z m -92.547467,0.006 c -0.320543,0.004 -0.265485,0.1545 0.138227,0.37839 0.860521,0.47722 1.015585,0.47722 0.671889,0 -0.152258,-0.21141 -0.516706,-0.38144 -0.810116,-0.37838 z m 96.040767,0.006 -1.16618,0.012 1.34377,0.99924 c 0.73908,0.5493 2.33564,1.75402 3.54754,2.67791 1.91663,1.46115 2.94739,2.00367 2.94739,1.55029 0,-0.0714 -1.23897,-1.28225 -2.75317,-2.69067 -2.06138,-1.91739 -3.0461,-2.55789 -3.91935,-2.54878 z M 2.6040915,128.16191 c -0.1115999,-0.0227 -0.1998743,-0.0207 -0.2572075,0.01 -0.7243255,0.38415 -0.4571814,0.78274 0.8144905,1.21395 1.9527407,0.66216 2.1189988,0.56697 0.8179899,-0.46771 -0.5016743,-0.39898 -1.0404732,-0.68795 -1.3752729,-0.756 z m 126.5767185,0.0608 c -0.13322,0.0899 0.24077,0.61258 1.2318,1.49324 0.69939,0.62151 1.62886,1.60554 2.06641,2.18692 0.43756,0.58137 1.17597,1.05705 1.64035,1.05705 1.34582,0 1.47846,0.1542 -3.13023,-3.63361 -1.03523,-0.85083 -1.6751,-1.19349 -1.80833,-1.1036 z m -86.776917,0.12463 c -0.753592,0 0.466302,0.94888 3.422435,2.66289 3.91933,2.27248 7.035027,4.31296 8.25426,5.40462 0.833299,0.7461 2.517769,1.07596 2.475843,0.48498 -0.04059,-0.57229 -13.246147,-8.55249 -14.152538,-8.55249 z m 51.969915,0.38438 c -0.369525,0 -0.547692,0.17297 -0.395433,0.38438 0.152259,0.21141 0.578805,0.38438 0.948344,0.38438 0.369526,0 0.547693,-0.17297 0.395434,-0.38438 -0.152259,-0.21141 -0.578806,-0.38438 -0.948345,-0.38438 z m 3.147733,0.0616 c -0.653215,0.10796 -0.266449,0.53616 1.770706,1.9602 3.442753,2.4066 4.222383,2.32684 1.349903,-0.13814 -1.475009,-1.26576 -2.580912,-1.91125 -3.120609,-1.82206 z m 4.898319,0.44594 c -0.17885,0.15347 0.66363,1.14001 1.87131,2.19218 1.20768,1.05218 2.50303,1.9129 2.87915,1.9129 0.39452,0 -0.39675,-0.92755 -1.87044,-2.19218 -1.40496,-1.20565 -2.70118,-2.06637 -2.88002,-1.9129 z m -61.973019,0.65465 c -0.130445,0.001 -0.277201,0.0787 -0.456674,0.23274 -0.36572,0.31384 0.0764,0.73096 1.662225,1.5683 1.188283,0.62743 3.092569,1.81721 4.231676,2.64413 1.139105,0.82691 2.650635,1.88576 3.358569,2.35283 0.707934,0.46707 1.790831,1.19647 2.406729,1.62086 1.161907,0.80061 2.954807,1.09491 2.456597,0.40315 -0.377342,-0.5238 -10.433899,-7.02815 -11.863043,-7.67262 -0.615899,-0.27773 -1.262877,-0.69333 -1.437388,-0.92416 -0.11429,-0.15119 -0.228245,-0.22648 -0.358691,-0.22523 z m 55.74492,0.18919 c -0.121782,0.0274 -0.197719,0.0958 -0.197719,0.1982 0,0.20477 0.30235,0.37237 0.671889,0.37237 0.369539,0 0.671889,-0.0678 0.671889,-0.1509 0,-0.0831 -0.30235,-0.25068 -0.671889,-0.37237 -0.18477,-0.0608 -0.352393,-0.0747 -0.47417,-0.0473 z m -94.1685735,0.14715 c -0.07157,0.17836 2.1456676,2.24559 4.927186,4.59381 3.0617835,2.58482 5.4110275,4.26804 5.9533915,4.26573 0.787707,-0.003 0.746672,-0.0993 -0.337694,-0.79354 -0.678282,-0.43425 -3.2986497,-2.49997 -5.823038,-4.59005 -2.5243913,-2.09008 -4.6482754,-3.65432 -4.7198455,-3.47595 z m 68.5947975,0.42342 c 0.958311,0 4.369684,1.54768 4.133689,1.87536 -0.317588,0.44095 -5.633193,0.42325 -5.633193,-0.0188 0,-0.70459 0.930423,-1.85659 1.499504,-1.85659 z m 58.628445,0.11111 c -0.26039,0.0694 0.0469,0.65307 0.80749,1.35359 0.93031,0.85692 1.77421,1.10264 1.77421,0.51652 0,-0.3338 -1.13412,-1.26796 -2.12765,-1.753 -0.21708,-0.10597 -0.36726,-0.14024 -0.45405,-0.11711 z m -111.887025,0.0616 c -0.138053,0.0161 -0.166347,0.10629 -0.104983,0.26426 0.09353,0.24078 1.773486,1.1861 3.733008,2.10059 1.959523,0.91448 3.847673,1.66951 4.196682,1.67716 0.810043,0.0177 0.869116,0.0549 -3.097863,-1.97596 -2.913036,-1.4913 -4.312687,-2.1143 -4.726844,-2.06605 z m 21.060396,0.21171 c -1.143664,0 -0.712338,0.67585 1.015707,1.59233 0.919408,0.48762 3.772073,2.33671 6.339203,4.10883 2.567129,1.77211 5.291711,3.54882 6.054874,3.94817 0.763158,0.39934 1.205418,0.7267 0.982463,0.72747 -0.222951,7.7e-4 -0.04085,0.34744 0.405059,0.77026 0.646339,0.61288 1.364029,0.76577 3.540542,0.753 l 2.730422,-0.0165 -1.754087,-1.32882 c -0.9649,-0.73114 -1.670383,-1.39179 -1.567741,-1.46771 0.391595,-0.28962 4.430678,-0.60148 4.327037,-0.33408 -0.216751,0.55921 2.968482,3.16289 3.869485,3.16289 0.737748,0 0.475644,-0.34454 -1.303532,-1.71245 l -2.227384,-1.71245 1.407644,-0.0173 c 1.053208,-0.0129 1.971215,0.41796 3.64902,1.71245 1.233046,0.95135 2.615095,1.729 3.071617,1.72747 0.59722,-0.002 0.233454,-0.44156 -1.297409,-1.56756 -1.170207,-0.86072 -2.127648,-1.7247 -2.127648,-1.91965 0,-0.92973 2.049996,-0.15425 4.585992,1.73421 2.503754,1.86447 4.380895,2.66009 4.367278,1.85134 -0.0027,-0.15855 -1.033912,-0.89368 -2.292122,-1.63362 -1.258211,-0.73993 -2.89491,-1.83094 -3.637648,-2.42415 -0.742737,-0.59322 -1.634482,-0.98487 -1.980675,-0.87087 -0.346188,0.114 -3.085592,0.32257 -6.088116,0.46396 -5.012355,0.23606 -5.527156,0.33127 -6.286714,1.1599 -1.039622,1.13417 -1.144554,1.12817 -2.777665,-0.16441 -0.739078,-0.58497 -1.87109,-1.40606 -2.515208,-1.82431 -6.511673,-4.22811 -8.062939,-5.18088 -8.438858,-5.18088 -0.240073,0 -0.652279,-0.34595 -0.915973,-0.76877 -0.263695,-0.42282 -0.774692,-0.76876 -1.135563,-0.76876 z m 81.222459,0.0135 c -0.31915,0.008 0.0247,0.43958 0.76375,0.95945 1.74952,1.23062 2.37564,1.22214 0.93697,-0.012 -0.61589,-0.52853 -1.38157,-0.95505 -1.70072,-0.94744 z M 9.0963942,132.02224 c 0,0.31253 2.7498428,2.49906 5.2193878,4.15011 2.053555,1.37295 4.268275,1.83591 4.858948,1.01576 0.152258,-0.21141 -0.07152,-0.38438 -0.497793,-0.38438 -0.42627,0 -1.093943,-0.23827 -1.48288,-0.52927 -1.105905,-0.82744 -8.0976628,-4.49891 -8.0976628,-4.25222 z m 7.4170248,0.94969 c -0.260862,0.007 -0.08278,0.26618 0.395435,0.57657 0.478215,0.31039 1.082915,0.55928 1.343778,0.55255 0.260862,-0.007 0.08278,-0.26618 -0.395435,-0.57657 -0.478215,-0.31039 -1.082915,-0.55928 -1.343778,-0.55255 z m 68.330589,0.57207 c -0.344809,-0.0123 -0.667267,-0.001 -0.95359,0.0383 -1.66302,0.2282 -2.537779,0.91516 -1.165311,0.91516 0.339371,0 0.868242,0.25946 1.174932,0.57657 0.306691,0.31712 0.75885,0.57657 1.005209,0.57657 0.249867,0 0.201697,-0.25494 -0.109357,-0.57657 -0.796806,-0.82389 -0.01953,-0.71739 2.771543,0.37913 1.438814,0.56526 2.969579,1.54641 3.747882,2.40238 0.723584,0.7958 1.823905,1.87912 2.445219,2.40764 0.621318,0.52853 1.483544,1.43663 1.915936,2.018 0.711558,0.95674 1.661349,1.42337 1.661349,0.81607 0,-0.13265 -1.387666,-1.64615 -3.083868,-3.36334 -1.696202,-1.71719 -3.15795,-3.45789 -3.248337,-3.86784 -0.217902,-0.98831 -3.747931,-2.23608 -6.161607,-2.32206 z m -51.262158,0.0398 c -0.166593,-0.0318 -0.287013,-0.0179 -0.357816,0.0428 -0.283213,0.24303 0.554795,1.10138 2.387481,2.44593 1.553085,1.13942 2.924817,2.15963 3.047996,2.26725 0.218763,0.19111 2.688612,1.5844 4.927187,2.77925 0.615898,0.32874 1.215249,0.52072 1.33153,0.42643 0.295957,-0.23999 -4.57423,-3.93606 -5.213264,-3.95643 -0.287419,-0.009 -0.589769,-0.17007 -0.671889,-0.3581 -0.08212,-0.18803 -1.324784,-1.16055 -2.761044,-2.16065 -1.271122,-0.88511 -2.190397,-1.39115 -2.690181,-1.48647 z m -31.5236683,0.1997 c -0.09502,0.034 -0.1286038,0.15612 -0.1286038,0.34833 0,0.61631 0.9870931,1.76453 3.0235006,3.51799 2.7352074,2.35516 3.7858949,2.94559 3.7496308,2.10659 -0.00702,-0.16241 -1.5335379,-1.70009 -3.3926897,-3.41739 -2.1300533,-1.96753 -2.966777,-2.6577 -3.2518379,-2.55553 z m 17.1165483,0.69293 1.119815,0.77102 c 1.281639,0.88213 1.343778,0.90319 1.343778,0.46471 0,-0.17748 -0.554309,-0.52814 -1.231797,-0.77928 z m 74.695162,0.0428 c -0.196071,-0.0537 -0.451819,0.0108 -0.689385,0.21472 -0.399501,0.34283 0.832309,1.90828 3.794246,4.82353 1.431585,1.40903 2.602697,2.83604 2.602697,3.17115 0,0.39365 0.39632,0.60961 1.11981,0.60961 1.71307,0 1.36124,-0.84184 -1.231792,-2.94818 -3.078944,-2.50105 -5.26313,-4.7322 -5.26313,-5.37608 0,-0.26898 -0.136376,-0.44101 -0.332446,-0.49475 z m 30.105528,0.0811 c -0.2585,0.12733 0.86318,1.38298 3.16261,3.36784 1.95196,1.68493 3.73013,3.06379 3.95084,3.06379 0.42137,0 -0.0241,-0.53265 -2.06028,-2.46319 -0.67749,-0.64236 -1.2318,-1.27273 -1.2318,-1.40165 0,-0.12891 -0.81969,-0.80014 -1.82145,-1.49098 -1.19276,-0.82255 -1.84481,-1.15221 -1.99992,-1.07581 z m -6.42406,0.009 c -0.26955,0.0775 1.08871,1.4823 3.97447,4.09756 2.09405,1.89778 3.87484,3.28417 3.95697,3.08031 0.16411,-0.40735 -5.52903,-5.85512 -7.1152,-6.80851 -0.45523,-0.27361 -0.72639,-0.39518 -0.81624,-0.36936 z m 3.22821,0.0165 c -0.17643,0.1514 0.71682,1.1791 1.98505,2.28377 1.26824,1.10467 3.07052,2.73985 4.00509,3.63435 2.34112,2.24076 3.32978,2.0754 1.10407,-0.18468 -2.83084,-2.87454 -6.7421,-6.03559 -7.09421,-5.73344 z m 10.28043,0.0908 c -0.0848,-0.0192 -0.15182,-0.0141 -0.20384,0.0135 -0.32688,0.17336 1.69929,2.63357 3.55804,4.31979 0.31369,0.28457 0.868,1.01115 1.2318,1.61485 0.36379,0.60369 1.01412,1.27399 1.44526,1.48948 0.43113,0.21549 1.03582,0.39673 1.34377,0.40315 0.60511,0.0126 0.77464,-0.61077 0.22309,-0.82057 -0.18525,-0.0705 -1.33412,-1.1662 -2.55283,-2.43466 -3.00306,-3.12567 -4.45132,-4.45096 -5.04529,-4.58555 z m -24.58431,0.0481 c -0.13549,-0.0136 -0.24406,0.0188 -0.33245,0.0946 -0.35356,0.30341 0.74823,1.48251 3.97534,4.25297 2.45551,2.10804 4.61557,3.83475 4.80034,3.83706 0.758,0.01 0.21415,-0.73654 -2.01567,-2.76649 -1.29339,-1.17746 -3.23342,-2.9508 -4.31129,-3.94142 -1.06243,-0.97643 -1.70981,-1.436 -2.11627,-1.47671 z m -6.692651,0.11711 c -0.359667,0 -0.653515,0.079 -0.653515,0.17568 0,0.0967 1.813356,1.78319 4.029586,3.74772 2.21623,1.96453 4.03044,3.70177 4.03133,3.86033 9e-4,0.15856 0.42984,0.28829 0.95272,0.28829 0.83718,0 0.87808,-0.0803 0.34557,-0.67267 -0.33259,-0.36997 -1.31499,-1.28635 -2.18277,-2.03602 -0.86778,-0.74966 -2.5433,-2.26316 -3.72338,-3.36334 -1.18008,-1.10018 -2.43987,-1.99999 -2.799541,-1.99999 z m 2.683191,0 c -0.50328,0 0.89569,1.44246 3.87298,3.99322 4.45563,3.8173 5.33224,4.43974 5.33224,3.78601 0,-0.62756 -8.46262,-7.77923 -9.20522,-7.77923 z m 11.50347,0 c -0.23646,0 1.51818,1.71766 3.89923,3.81679 4.15381,3.662 5.00067,4.26188 5.00067,3.54277 0,-0.4461 -8.36043,-7.35956 -8.8999,-7.35956 z m 21.43484,0 c -1.04062,0 -1.09517,0.14692 -0.31233,0.83708 0.31688,0.27937 1.16241,1.20015 1.87919,2.04579 0.71678,0.84564 1.70145,1.92671 2.18889,2.40238 1.02707,1.00229 1.62636,1.10847 1.62636,0.28829 0,-0.31712 -0.18341,-0.57658 -0.40769,-0.57658 -0.22428,0 -1.23529,-1.12431 -2.24663,-2.49848 -1.25529,-1.70565 -2.12095,-2.49848 -2.72779,-2.49848 z m -104.374643,0.0158 c -0.184425,0.16462 1.231931,1.45764 3.903605,3.41289 2.418981,1.77031 4.700249,3.53667 5.069788,3.92565 0.70631,0.74346 1.587056,0.92803 1.959676,0.41065 0.227394,-0.31573 -5.657247,-4.81469 -8.798422,-6.72667 -1.337215,-0.81395 -2.023993,-1.12129 -2.134647,-1.02252 z m 96.194743,0.0293 c -0.52323,0.11764 0.13464,0.93957 1.95005,2.4129 1.36792,1.11016 3.05257,2.6543 3.7435,3.43166 0.69094,0.77735 1.35471,1.41365 1.47501,1.41365 0.92019,0 -5.0425,-6.80973 -6.25084,-7.13884 -0.43778,-0.11923 -0.74331,-0.15858 -0.91772,-0.11937 z m -56.997717,0.0293 c -0.22941,0.19687 2.935367,2.82408 5.82479,4.83555 2.531489,1.7623 2.859918,1.53543 0.590527,-0.40765 -2.517201,-2.15526 -6.145522,-4.65941 -6.415317,-4.4279 z m -30.557828,0.0841 c -0.23182,0.19893 1.067194,1.28387 5.037418,4.20868 0.739078,0.54446 1.494953,0.99555 1.679722,1.00224 0.670886,0.0242 0.315172,-0.96747 -0.504791,-1.4069 -0.462609,-0.24792 -1.991787,-1.25512 -3.397939,-2.23797 -1.406152,-0.98285 -2.67297,-1.68743 -2.81441,-1.56605 z m -11.433487,0.1921 c -0.218742,-0.0291 -0.326321,0.0602 -0.326321,0.26425 0,0.34912 2.55797,2.32804 5.980512,4.62684 1.688113,1.13384 3.197554,2.06154 3.354196,2.06154 0.156643,0 -1.614194,-1.55674 -3.9351,-3.45943 -2.759976,-2.26264 -4.41706,-3.40683 -5.073287,-3.49322 z m 83.078032,0.56229 c -0.29569,0.15682 1.06036,1.62005 3.40493,3.67415 3.8737,3.39378 4.56763,3.86057 4.56763,3.0728 0,-0.71504 -7.45315,-7.02242 -7.97256,-6.74695 z m -85.330785,0.31381 c -0.06715,0.002 -0.122932,0.0199 -0.163598,0.0548 -0.152332,0.13073 -0.02206,0.50135 0.289578,0.82357 0.62271,0.64388 1.352526,0.77797 1.352526,0.2485 0,-0.43009 -1.008468,-1.14261 -1.478506,-1.12687 z m 60.156814,0.31081 c -0.02311,0.0198 0.112479,0.17565 0.391062,0.48048 0.338117,0.36996 0.690859,0.67267 0.783871,0.67267 0.368661,0 0.131108,-0.31542 -0.615025,-0.81757 -0.355219,-0.23906 -0.536786,-0.35542 -0.559908,-0.33558 z m -17.019437,0.33708 c -0.110033,-0.0185 -0.189338,-0.003 -0.227466,0.0496 -0.417243,0.57934 0.05041,1.01823 2.829285,2.65764 1.401287,0.8267 3.215459,2.03703 4.031334,2.68917 1.379285,1.1025 2.797222,1.56457 2.752295,0.89714 -0.01066,-0.15856 -1.428956,-1.14112 -3.151227,-2.18392 -1.722379,-1.0428 -3.818542,-2.46952 -4.65861,-3.16964 -0.634689,-0.52896 -1.245516,-0.88448 -1.575611,-0.93994 z m -46.232616,0.56231 c -0.131817,-0.0239 -0.210429,0.0121 -0.284328,0.0788 -0.16135,0.14565 0.597317,0.89342 1.685847,1.6614 1.08853,0.76798 2.701063,1.95375 3.583408,2.63512 1.593386,1.23044 2.7243,1.59945 2.7243,0.88888 0,-0.20397 -0.392531,-0.55146 -0.872231,-0.77177 -0.4797,-0.22031 -1.763499,-1.048 -2.852903,-1.83932 -2.708927,-1.96773 -3.588631,-2.58154 -3.984093,-2.65314 z m -2.883524,0.80856 c -0.106966,0.0235 -0.157473,0.11083 -0.157473,0.2605 0,0.57979 1.325275,1.87537 1.918558,1.87537 0.239907,0 1.216975,0.6054 2.171391,1.34533 0.954416,0.73994 1.93624,1.34534 2.18189,1.34534 0.830522,0 0.453831,-0.67642 -0.755875,-1.3566 -0.661644,-0.37203 -1.88941,-1.21362 -2.7278,-1.87011 -1.482732,-1.16102 -2.309749,-1.67023 -2.630691,-1.59983 z m 8.682067,0.21396 c -0.23547,0 0.04742,0.34021 0.629021,0.756 1.368792,0.97856 1.634127,0.98408 0.609774,0.0128 -0.445904,-0.42282 -1.003326,-0.76876 -1.238795,-0.76876 z m 59.722887,0.23123 c -0.106682,0.091 0.249065,0.63829 0.789994,1.2162 0.540924,0.57792 1.433851,1.61132 1.985047,2.29578 0.66689,0.82814 1.371303,1.24617 2.104025,1.24924 1.040639,0.005 0.991457,-0.094 -0.895852,-1.79428 -2.524865,-2.2746 -3.736577,-3.17725 -3.983214,-2.96694 z m -71.457324,0.54204 c -0.711621,0.003 -0.369735,0.42242 1.551119,1.90464 3.217259,2.4826 4.413873,2.49241 1.567741,0.0128 -1.225237,-1.06747 -2.611931,-1.91971 -3.11886,-1.9174 z m 63.626489,0.76425 c -0.246359,0 0.442099,0.77838 1.530124,1.72972 1.088026,0.95135 2.179617,1.72972 2.425977,1.72972 0.246359,0 -0.442099,-0.77837 -1.530125,-1.72972 -1.088025,-0.95134 -2.179617,-1.72972 -2.425976,-1.72972 z m -78.5174047,0.10886 c -0.099859,0.012 -0.1312284,0.1297 -0.1312284,0.35661 0,0.30776 0.1340862,0.67512 0.2983258,0.81605 0.425389,0.36505 1.0454523,0.31696 1.0454523,-0.0811 0,-0.18552 -0.3023501,-0.55288 -0.671889,-0.81606 -0.2724525,-0.19404 -0.4408016,-0.28758 -0.5406607,-0.27553 z m 11.0905427,0.27553 c -0.858162,0 -0.491207,0.68604 0.906351,1.69518 1.324083,0.95608 2.653464,1.31054 2.653437,0.7072 -1.9e-5,-0.39483 -2.974811,-2.40238 -3.559788,-2.40238 z m 18.187372,0.0503 c -0.229204,-0.003 6.27e-4,0.36369 0.825863,1.10284 0.708082,0.63423 1.594444,1.15314 1.970175,1.15314 0.416781,0 0.07916,-0.44336 -0.866982,-1.13737 -1.011298,-0.74178 -1.699853,-1.11537 -1.929056,-1.11861 z m 72.532519,0.93618 c -0.48652,-0.12112 -0.35929,0.59083 0.51004,1.41515 0.50456,0.47843 0.83317,0.57503 0.94835,0.27853 0.097,-0.24965 -0.2507,-0.82023 -0.7725,-1.26801 -0.29381,-0.25213 -0.52371,-0.3853 -0.68589,-0.42567 z m 39.71494,2.87234 c -1.323,-0.0105 -1.90368,0.14555 -1.90368,0.51201 0,0.72362 -8.26061,1.05281 -27.21151,1.08333 -8.19144,0.0132 -14.890118,0.13153 -14.886543,0.26351 0.01742,0.6099 0.762373,1.13514 1.784703,1.25825 1.12151,0.13505 26.30175,0.0539 34.70115,-0.11186 4.01353,-0.0792 4.5624,-0.17757 5.42061,-0.97222 0.52519,-0.48629 1.63947,-1.13936 2.47671,-1.45119 l 1.52225,-0.56681 z M 6.6467988,145.11898 c -4.4293239,0.003 -4.5282566,0.15886 -4.6279856,0.75826 -0.1335039,0.80239 -0.053545,0.80877 9.6304098,0.76876 5.370767,-0.0222 13.796471,0.0459 18.723657,0.15165 4.927186,0.10571 20.125253,0.24551 33.773797,0.31081 24.217541,0.11583 27.368105,-0.007 27.368105,-1.06531 0,-0.29035 -26.751181,-1.00098 -32.922563,-0.87462 -4.936395,0.10107 -33.126174,0.0931 -45.912417,-0.0135 -2.599317,-0.0216 -4.556562,-0.0372 -6.0330032,-0.036 z m 89.2291382,0.59234 c -0.194798,-0.007 -0.406421,0.024 -0.625524,0.0961 -0.566474,0.18654 -0.594971,0.34022 -0.147847,0.80255 0.705672,0.72966 1.787328,0.74025 1.787328,0.018 0,-0.54556 -0.429566,-0.89683 -1.013957,-0.91665 z" />
    <g
       aria-label="XXXIII"
       id="text1286"
       style="font-size:40px;line-height:1.25;font-family:Hultog;-inkscape-font-specification:Hultog"
       transform="matrix(0.44792602,0,0,0.3843815,1.9295779,1.8858239)">
      <path
         d="m 228.94604,35.478073 q -0.51376,2.715596 -1.54128,2.422018 l -3.57187,-1.003058 q -4.30581,0 -4.89296,1.247707 l -1.66361,-1.174312 q 0.95413,-2.079511 2.17737,-2.079511 0.29358,0 0.56269,0.09786 0.24465,-0.220183 0.24465,-0.562691 0,-0.513761 -0.53823,-1.394495 -1.71254,-1.223242 -4.50153,-6.776759 h -0.17125 q -0.51376,-0.02446 -0.75841,0.464832 -2.49541,5.333334 -4.4526,7.168196 l 0.19572,0.880734 q 2.2263,0.293578 2.2263,1.810397 0,0.611621 -0.4159,1.590215 -0.9052,-0.709481 -1.78594,-0.880734 -0.36697,-0.04893 -1.98165,-0.04893 -3.08257,0 -4.52599,0.733945 l -1.05199,-0.587156 v -1.932722 l 2.88685,-0.733945 q 0.68502,-0.171254 6.94801,-9.174312 1.24771,-0.391437 1.24771,-1.174312 0,-0.782874 -0.9052,-1.492354 -1.24771,-1.027523 -1.37003,-1.198777 -0.78288,-1.076453 -2.10398,-3.400612 -1.3211,-2.324159 -2.07951,-3.376146 0,0 -1.83486,-1.639144 l -3.27829,-0.733945 0.9786,-2.103976 5.35779,0.685016 3.00918,-0.685016 1.37003,0.464832 v 1.663609 q -1.68807,0.318042 -1.66361,1.37003 v 0.171254 l 4.64832,6.874618 0.75841,-0.195719 q 0.92966,-3.571865 3.47401,-5.993884 V 13.53312 l -1.8838,-0.685015 -0.4159,-1.859328 1.05199,-0.538226 3.91437,0.660551 q 1.66361,-0.587156 2.88685,-0.587156 1.49236,0 1.8104,1.003058 -0.80734,2.152905 -3.18043,2.152905 -1.85933,2.422018 -3.71865,4.844037 -2.78899,3.743119 -3.10704,4.892966 1.54129,1.761468 4.40367,5.333333 0.4893,1.076453 1.61468,3.058104 0.95413,1.003058 2.78899,2.93578 z"
         id="path1896" />
      <path
         d="m 256.34663,35.478073 q -0.51376,2.715596 -1.54128,2.422018 l -3.57187,-1.003058 q -4.30581,0 -4.89296,1.247707 l -1.66361,-1.174312 q 0.95413,-2.079511 2.17737,-2.079511 0.29358,0 0.56269,0.09786 0.24465,-0.220183 0.24465,-0.562691 0,-0.513761 -0.53823,-1.394495 -1.71254,-1.223242 -4.50153,-6.776759 h -0.17125 q -0.51376,-0.02446 -0.75841,0.464832 -2.49541,5.333334 -4.4526,7.168196 l 0.19572,0.880734 q 2.2263,0.293578 2.2263,1.810397 0,0.611621 -0.41591,1.590215 -0.90519,-0.709481 -1.78593,-0.880734 -0.36697,-0.04893 -1.98165,-0.04893 -3.08257,0 -4.52599,0.733945 l -1.05199,-0.587156 v -1.932722 l 2.88685,-0.733945 q 0.68501,-0.171254 6.94801,-9.174312 1.24771,-0.391437 1.24771,-1.174312 0,-0.782874 -0.9052,-1.492354 -1.24771,-1.027523 -1.37003,-1.198777 -0.78288,-1.076453 -2.10398,-3.400612 -1.3211,-2.324159 -2.07951,-3.376146 0,0 -1.83486,-1.639144 l -3.27829,-0.733945 0.9786,-2.103976 5.35779,0.685016 3.00918,-0.685016 1.37003,0.464832 v 1.663609 q -1.68807,0.318042 -1.66361,1.37003 v 0.171254 l 4.64832,6.874618 0.75841,-0.195719 q 0.92966,-3.571865 3.474,-5.993884 V 13.53312 l -1.88379,-0.685015 -0.4159,-1.859328 1.05199,-0.538226 3.91437,0.660551 q 1.66361,-0.587156 2.88685,-0.587156 1.49236,0 1.8104,1.003058 -0.80734,2.152905 -3.18043,2.152905 -1.85933,2.422018 -3.71865,4.844037 -2.78899,3.743119 -3.10704,4.892966 1.54129,1.761468 4.40367,5.333333 0.4893,1.076453 1.61468,3.058104 0.95413,1.003058 2.78899,2.93578 z"
         id="path1898" />
      <path
         d="m 283.74722,35.478073 q -0.51376,2.715596 -1.54128,2.422018 l -3.57187,-1.003058 q -4.30581,0 -4.89297,1.247707 l -1.6636,-1.174312 q 0.95412,-2.079511 2.17737,-2.079511 0.29357,0 0.56269,0.09786 0.24465,-0.220183 0.24465,-0.562691 0,-0.513761 -0.53823,-1.394495 -1.71254,-1.223242 -4.50153,-6.776759 h -0.17125 q -0.51376,-0.02446 -0.75841,0.464832 -2.49542,5.333334 -4.4526,7.168196 l 0.19572,0.880734 q 2.2263,0.293578 2.2263,1.810397 0,0.611621 -0.41591,1.590215 -0.9052,-0.709481 -1.78593,-0.880734 -0.36697,-0.04893 -1.98165,-0.04893 -3.08257,0 -4.52599,0.733945 l -1.05199,-0.587156 v -1.932722 l 2.88685,-0.733945 q 0.68501,-0.171254 6.94801,-9.174312 1.24771,-0.391437 1.24771,-1.174312 0,-0.782874 -0.9052,-1.492354 -1.24771,-1.027523 -1.37003,-1.198777 -0.78288,-1.076453 -2.10398,-3.400612 -1.3211,-2.324159 -2.07951,-3.376146 0,0 -1.83486,-1.639144 l -3.27829,-0.733945 0.97859,-2.103976 5.3578,0.685016 3.00918,-0.685016 1.37003,0.464832 v 1.663609 q -1.68808,0.318042 -1.66361,1.37003 v 0.171254 l 4.64832,6.874618 0.75841,-0.195719 q 0.92966,-3.571865 3.474,-5.993884 V 13.53312 l -1.88379,-0.685015 -0.4159,-1.859328 1.05199,-0.538226 3.91437,0.660551 q 1.66361,-0.587156 2.88685,-0.587156 1.49235,0 1.8104,1.003058 -0.80734,2.152905 -3.18043,2.152905 -1.85933,2.422018 -3.71866,4.844037 -2.78899,3.743119 -3.10703,4.892966 1.54129,1.761468 4.40367,5.333333 0.4893,1.076453 1.61468,3.058104 0.95413,1.003058 2.78899,2.93578 z"
         id="path1900" />
      <path
         d="m 296.95821,35.942905 q -0.4159,2.470948 -1.46789,2.2263 l -4.526,-1.027523 q 0,0 -3.32721,0.318042 -0.95413,0.660551 -1.66361,0.660551 -1.00306,0 -1.56575,-1.46789 l 1.24771,-1.810398 q 0.58715,0.195719 1.22324,0.195719 2.10397,0 2.10397,-3.400612 0,-0.66055 -0.0979,-1.981651 -0.0979,-1.321101 -0.0979,-1.981651 0,-1.932722 0.0979,-5.82263 0.0979,-3.889909 0.0979,-5.82263 0,-1.663609 -0.97859,-2.617737 -0.66055,0.244648 -1.3211,0.244648 -1.14985,0 -1.93272,-0.929664 0.4159,-2.446483 1.44342,-2.226299 l 4.47707,0.978593 4.25688,-1.027523 1.76146,0.905199 -0.51376,1.761468 q -0.48929,-0.122324 -0.8318,-0.122324 -2.25077,0 -2.25077,3.840978 0,0.391438 0.0245,1.027523 0.0245,0.611621 0.0245,0.831804 0,1.614679 -0.0979,15.437309 l 1.02753,1.100918 q 0.66055,-0.220184 1.19877,-0.220184 1.07646,0 1.68808,0.929664 z"
         id="path1902" />
      <path
         d="m 310.26708,35.942905 q -0.41591,2.470948 -1.46789,2.2263 l -4.526,-1.027523 q 0,0 -3.32721,0.318042 -0.95413,0.660551 -1.66361,0.660551 -1.00306,0 -1.56575,-1.46789 l 1.2477,-1.810398 q 0.58716,0.195719 1.22325,0.195719 2.10397,0 2.10397,-3.400612 0,-0.66055 -0.0979,-1.981651 -0.0979,-1.321101 -0.0979,-1.981651 0,-1.932722 0.0979,-5.82263 0.0979,-3.889909 0.0979,-5.82263 0,-1.663609 -0.97859,-2.617737 -0.66055,0.244648 -1.3211,0.244648 -1.14985,0 -1.93272,-0.929664 0.4159,-2.446483 1.44342,-2.226299 l 4.47706,0.978593 4.25689,-1.027523 1.76146,0.905199 -0.51376,1.761468 q -0.4893,-0.122324 -0.8318,-0.122324 -2.25077,0 -2.25077,3.840978 0,0.391438 0.0245,1.027523 0.0245,0.611621 0.0245,0.831804 0,1.614679 -0.0979,15.437309 l 1.02753,1.100918 q 0.66055,-0.220184 1.19877,-0.220184 1.07646,0 1.68808,0.929664 z"
         id="path1904" />
      <path
         d="m 323.57594,35.942905 q -0.4159,2.470948 -1.46789,2.2263 l -4.52599,-1.027523 q 0,0 -3.32722,0.318042 -0.95412,0.660551 -1.6636,0.660551 -1.00306,0 -1.56575,-1.46789 l 1.2477,-1.810398 q 0.58716,0.195719 1.22324,0.195719 2.10398,0 2.10398,-3.400612 0,-0.66055 -0.0979,-1.981651 -0.0979,-1.321101 -0.0979,-1.981651 0,-1.932722 0.0979,-5.82263 0.0979,-3.889909 0.0979,-5.82263 0,-1.663609 -0.97859,-2.617737 -0.66055,0.244648 -1.3211,0.244648 -1.14985,0 -1.93273,-0.929664 0.41591,-2.446483 1.44343,-2.226299 l 4.47706,0.978593 4.25688,-1.027523 1.76147,0.905199 -0.51376,1.761468 q -0.4893,-0.122324 -0.8318,-0.122324 -2.25077,0 -2.25077,3.840978 0,0.391438 0.0245,1.027523 0.0245,0.611621 0.0245,0.831804 0,1.614679 -0.0979,15.437309 l 1.02752,1.100918 q 0.66055,-0.220184 1.19878,-0.220184 1.07645,0 1.68807,0.929664 z"
         id="path1906" />
    </g>
  </g>
</svg>
