<?xml version="1.0" encoding="UTF-8" standalone="no"?>
<!-- Created with Inkscape (http://www.inkscape.org/) -->

<svg
   version="1.1"
   id="svg2"
   width="4cm"
   height="4cm"
   viewBox="0 0 151.18111 151.1811"
   sodipodi:docname="34.svg"
   inkscape:version="1.1.2 (0a00cf5339, 2022-02-04)"
   xmlns:inkscape="http://www.inkscape.org/namespaces/inkscape"
   xmlns:sodipodi="http://sodipodi.sourceforge.net/DTD/sodipodi-0.dtd"
   xmlns="http://www.w3.org/2000/svg"
   xmlns:svg="http://www.w3.org/2000/svg">
  <defs
     id="defs6" />
  <sodipodi:namedview
     id="namedview4"
     pagecolor="#505050"
     bordercolor="#eeeeee"
     borderopacity="1"
     inkscape:pageshadow="0"
     inkscape:pageopacity="0"
     inkscape:pagecheckerboard="0"
     showgrid="false"
     inkscape:zoom="1.9454546"
     inkscape:cx="154.2056"
     inkscape:cy="202.26635"
     inkscape:window-width="1920"
     inkscape:window-height="1043"
     inkscape:window-x="0"
     inkscape:window-y="0"
     inkscape:window-maximized="1"
     inkscape:current-layer="g8"
     units="cm"
     inkscape:document-units="cm" />
  <!-- Border -->
  <rect
     x="0"
     y="0"
     width="4cm"
     height="4cm"
     class="board-border"
     stroke-width="0.1cm"
     id="border"
     fill="none"
     stroke="#000000" />
  <g
     inkscape:groupmode="layer"
     inkscape:label="Image"
     id="g8">
    <path
       id="path12"
       style="fill:#000000;stroke-width:0.417133"
       d="M 6.0094127,4.2107633 C 3.411806,4.1841176 3.8175197,4.610794 3.7353721,5.8778798 3.5337173,8.9883089 3.6018592,14.840043 3.8717969,17.578416 c 0.466724,4.734662 0.5635369,12.969569 0.1594574,13.608167 -0.5093927,0.805032 -0.5969009,5.722019 -0.3029692,17.081763 0.1310262,5.063838 0.3424408,14.47222 0.4695137,20.907514 0.1270728,6.435296 0.3751199,12.736321 0.5510141,14.002281 0.1758944,1.26596 0.2934257,2.733322 0.2622189,3.260805 -0.042957,0.726094 -0.3186409,9.935171 -0.5226661,17.454904 -0.00573,0.21098 0.1506203,1.35416 0.347263,2.54076 0.1966423,1.1866 0.2248397,2.57876 0.062011,3.09372 -0.4580517,1.4486 -0.141313,8.74685 0.4606548,10.61035 0.3906676,1.20937 0.4058685,1.98889 0.055811,2.83822 -0.3582656,0.86924 -0.3407796,1.31549 0.068212,1.7323 0.6315371,0.64362 0.8138283,11.74808 0.2834799,17.27432 -0.4168171,4.34325 -0.3577358,4.3854 5.7262956,4.10299 2.50329,-0.11621 6.388574,-0.0761 8.633735,0.0891 4.976712,0.36625 25.107994,0.34012 32.883673,-0.0427 4.93764,-0.24311 17.830784,-0.44235 48.531769,-0.75001 4.36559,-0.0437 8.15479,-0.19449 8.42024,-0.33492 0.26544,-0.14044 4.58668,-0.34648 9.60288,-0.45781 15.74381,-0.34942 22.92159,-0.57973 25.59736,-0.82269 0.0855,-0.20367 0.15472,-0.40575 0.21083,-0.59492 -5.98645,-0.1995 -58.107549,-0.17691 -67.416844,0.0412 -7.109677,0.16657 -20.478591,0.42787 -29.708698,0.57993 -20.308362,0.33458 -20.213483,0.32951 -20.727699,1.10667 -0.525549,0.79428 -1.918372,0.83104 -1.560025,0.0412 0.226228,-0.49863 -0.851304,-0.57543 -8.071206,-0.57543 H 9.5564557 l -0.3313172,-4.4821 C 9.0430193,137.41879 8.8411696,132.88723 8.7759995,129.8139 8.7108376,126.74055 8.493605,117.0617 8.2931978,108.30547 8.0927905,99.549247 7.954508,91.694546 7.9858,90.850574 8.0170858,90.0066 8.0748225,88.625553 8.1142518,87.78158 8.1857562,86.251143 7.970091,75.43999 7.4338991,53.639083 7.2782195,47.309285 7.1504533,37.848455 7.1504198,32.615433 7.1503619,24.359404 7.0577131,23.070756 6.4452633,22.871979 5.8099567,22.665784 5.8094787,22.609949 6.439948,22.311528 7.0375012,22.028688 7.1369699,20.811222 7.1185285,14.024648 L 7.0963846,6.0696919 11.796836,6.0689247 c 2.585134,-1.048e-4 6.027138,0.114153 7.648643,0.2540189 3.669691,0.316536 15.143756,0.6791697 28.801562,0.9103581 5.737634,0.097122 12.371065,0.2687053 14.740957,0.3813765 5.768758,0.2742625 14.264715,0.4161362 22.128268,0.4840255 0.08501,-0.3902447 0.167719,-0.7499081 0.223241,-0.9553139 0.110064,-0.4072047 0.2686,-0.8032191 0.407496,-1.2040702 C 79.637906,5.693077 62.399595,5.4002203 55.050557,5.4552939 38.799844,5.5770764 31.948793,5.4626817 31.658146,5.0649264 31.436606,4.7617448 31.265629,4.7625159 31.042464,5.0679235 30.713594,5.5179884 28.47761,5.4628384 14.683014,4.6648184 10.207898,4.4059321 7.5679773,4.2267507 6.0094127,4.2107633 Z M 113.59448,5.7422627 c -0.004,0.00113 -0.0237,0.00187 -0.0275,0.00299 0.0102,0.1148616 0.0189,0.2298126 0.0293,0.3446623 0.005,-0.088669 0.0107,-0.1773555 0.0169,-0.2659894 -0.005,-0.026373 -0.0125,-0.054721 -0.0186,-0.08167 z M 80.223576,6.6451281 c 0.249462,0 0.453568,0.1726309 0.453568,0.3836242 0,0.2109932 -0.204106,0.383624 -0.453568,0.383624 -0.249463,0 -0.453568,-0.1726308 -0.453568,-0.383624 0,-0.2109933 0.204105,-0.3836242 0.453568,-0.3836242 z M 11.634718,8.6449185 c -0.675727,0.096783 -0.765797,0.9736114 -1.002811,4.2183665 -0.212147,2.90433 -0.140881,3.38941 0.543042,3.714111 0.717322,0.340559 0.798494,0.06915 0.917766,-3.078733 l 0.130223,-3.452617 2.591185,0.239016 c 1.424826,0.131164 3.960674,0.402247 5.635049,0.602409 1.674377,0.200162 6.879069,0.484016 11.565982,0.630883 8.717791,0.273175 13.060176,0.299271 29.990404,0.18207 5.322021,-0.03684 10.475686,0.04095 11.45259,0.173081 1.748214,0.236441 2.428938,-0.238716 1.235795,-0.862406 -0.297163,-0.155334 -4.328249,-0.330294 -8.957966,-0.388867 -12.274772,-0.155303 -35.828603,-0.595545 -37.67271,-0.7043111 -0.873118,-0.051497 -3.11828,-0.211932 -4.989248,-0.35665 -1.870967,-0.144718 -4.728445,-0.326454 -6.34995,-0.403854 -1.621506,-0.077401 -3.507377,-0.261293 -4.191073,-0.408351 -0.382652,-0.082304 -0.673035,-0.13641 -0.898278,-0.1041474 z m 73.149343,2.1503935 c -4.26065,0.09807 -7.621774,0.201919 -7.853284,0.322933 -0.192821,0.100796 -0.242686,0.331171 -0.110734,0.511749 0.07536,0.103136 3.651035,0.138818 8.042861,0.152101 0.0079,-0.04343 0.01524,-0.08698 0.02304,-0.130373 0.31396,-0.326928 0.03819,0.0373 -0.08416,-0.712551 -0.0077,-0.04769 -0.01251,-0.09591 -0.01774,-0.143859 z m 54.269579,1.767517 c -0.0304,0.093 -0.0605,0.198577 -0.0921,0.303453 0.0306,-0.10087 0.0628,-0.201234 0.0939,-0.301954 -4.6e-4,-5.37e-4 -0.001,-9.58e-4 -0.002,-0.0015 z m -40.822884,11.07415 c -1.82844,0.03406 -3.858606,0.46429 -4.967103,1.120153 -1.406029,0.831902 -1.567472,1.942463 -0.61214,4.20488 l 0.594424,1.408619 -1.181758,-0.705059 c -1.456683,-0.869409 -3.222814,-1.331532 -3.222814,-0.842924 0,0.199614 0.605532,0.575391 1.345646,0.834682 0.740119,0.259291 1.600713,0.731123 1.912601,1.048972 0.472563,0.481598 0.322704,0.746499 -0.90182,1.589194 -0.808181,0.556171 -2.352217,1.656514 -3.430992,2.444854 -1.078775,0.788341 -2.095198,1.32087 -2.258097,1.183091 -0.162899,-0.137779 -0.295881,-1.251813 -0.295881,-2.475574 0,-2.021044 0.141772,-2.345228 1.549398,-3.535785 0.927691,-0.784634 1.38472,-1.450493 1.138346,-1.658876 -0.662753,-0.560548 0.861417,-2.043247 2.10041,-2.043247 1.130304,0 1.482119,-0.526963 0.644029,-0.965055 -0.957146,-0.500327 -3.002528,0.24552 -3.79863,1.385393 -0.667344,0.955511 -1.021712,1.121758 -2.015366,0.944075 -2.276262,-0.407037 -3.869855,0.268124 -4.515304,1.912126 -0.755536,1.924388 -1.736077,2.827187 -2.810878,2.589463 -0.779448,-0.172398 -0.810563,-0.07222 -0.363209,1.160613 0.44325,1.221533 0.382049,1.433281 -0.649346,2.244051 -0.626437,0.492434 -1.284894,1.457579 -1.46258,2.145148 -0.17768,0.68757 -0.523875,1.145321 -0.769827,1.016754 -0.245951,-0.128567 -0.553103,0.107954 -0.682121,0.525236 -0.175544,0.56777 -0.569644,0.736151 -1.566229,0.669843 -0.732434,-0.04874 -1.463509,-0.200094 -1.624694,-0.336421 -0.161179,-0.136326 -1.126063,-0.24716 -2.144704,-0.246508 -2.721381,0.0017 -13.871912,-1.655258 -13.871912,-2.06123 0,-0.193354 1.057593,-0.24444 2.381232,-0.115388 1.309677,0.127693 4.116128,0.327348 6.236558,0.443566 l 3.855328,0.211293 -2.041056,-0.576935 c -1.122581,-0.317153 -2.692548,-0.578995 -3.488577,-0.582179 -0.79603,-0.0032 -1.57667,-0.183592 -1.735428,-0.400857 -0.193546,-0.264875 0.805654,-0.319788 3.034125,-0.166337 6.673965,0.459568 7.953739,0.732138 5.798933,1.235538 -0.945222,0.220823 -0.805019,0.2976 0.926625,0.505007 1.933833,0.231623 4.53568,-0.192681 4.53568,-0.739526 0,-0.830375 -8.281306,-2.353372 -12.813293,-2.356442 -2.465396,-0.0017 -2.724465,-0.466418 -0.931942,-1.672361 2.017134,-1.357057 4.718263,-1.781104 7.861253,-1.233291 2.637415,0.459692 4.976847,1.73835 4.976847,2.719835 0,0.247009 0.383223,0.74237 0.851323,1.100671 0.771397,0.590448 0.877237,0.593438 1.129493,0.03747 0.691356,-1.523818 -2.462674,-4.917036 -5.514574,-5.933436 -1.76193,-0.586792 -5.901803,-0.320903 -8.323679,0.534976 -1.733704,0.612681 -2.781554,1.697751 -3.274193,3.389678 -0.229722,0.788965 -0.58435,1.054966 -1.405883,1.054966 -0.604179,0 -1.224244,0.172632 -1.37842,0.383625 -0.154178,0.210993 -0.829372,0.387174 -1.50067,0.391865 -0.671299,0.0047 -1.731002,0.343196 -2.354657,0.752264 -1.078748,0.707571 -1.100202,0.796102 -0.439394,1.813972 0.548118,0.844293 1.073418,1.096092 2.489307,1.194331 2.81526,0.195329 2.989235,0.49706 1.993218,3.442875 -1.117627,3.305463 -1.102428,3.455618 0.357008,3.600221 0.828351,0.08208 1.512291,0.538335 2.111041,1.408621 0.813338,1.182184 1.05729,1.877829 2.038398,5.809808 0.27117,1.086764 0.525109,1.32524 1.335013,1.251274 1.182125,-0.10796 1.279415,0.510742 0.323345,2.061232 -0.372656,0.604349 -0.678992,1.275865 -0.680353,1.491787 -0.0013,0.215923 1.032312,1.338023 2.297073,2.493557 1.264755,1.155533 2.064187,1.697625 1.777065,1.204817 -0.572103,-0.981928 -0.35386,-1.446938 0.474831,-1.013757 0.311642,0.162914 0.422725,0.724593 0.271075,1.365913 -0.141695,0.599209 -0.05969,1.19258 0.181604,1.318708 0.241293,0.126132 0.438509,0.391461 0.438509,0.588924 0,0.197463 -1.377712,-0.513354 -3.061583,-1.579453 -4.166397,-2.63785 -6.333001,-3.812265 -7.033845,-3.812265 -0.323707,0 -0.986751,-0.388419 -1.473211,-0.863154 -1.831593,-1.787432 -3.852669,-4.143367 -3.852669,-4.491099 0,-1.042863 -10.224821,-5.770846 -12.480205,-5.770846 -1.152309,0 -1.174597,0.04681 -0.870815,1.822214 0.333552,1.949393 0.868771,2.781275 1.788581,2.781275 1.296561,0 2.921839,3.510307 2.041056,4.407929 -0.685128,0.698224 0.737,3.654366 1.746946,3.631694 0.409471,-0.0092 1.60064,-0.156849 2.646993,-0.328179 1.162961,-0.19042 2.076193,-0.164341 2.350225,0.06743 0.246555,0.208534 0.75563,0.279263 1.131262,0.157347 1.076317,-0.349332 -1.415341,-4.466294 -2.709003,-4.476115 -1.34695,-0.01025 -3.809263,-0.783337 -3.809263,-1.195829 0,-0.544977 2.4453,-0.404252 4.286748,0.24651 0.921895,0.325792 2.055107,0.490052 2.518544,0.365643 0.654277,-0.175635 1.118553,0.185444 2.074715,1.613918 0.677282,1.011828 1.831372,2.27824 2.56461,2.814992 l 1.332355,0.976293 -2.069404,1.613169 c -2.151276,1.67719 -2.996913,1.984021 -2.996913,1.087184 0,-0.320353 -0.734122,-0.62563 -1.875399,-0.779984 -1.031445,-0.139502 -2.385613,-0.592815 -3.009315,-1.007762 -1.193359,-0.793945 -2.372373,-0.995608 -2.372373,-0.405353 0,0.512391 2.682475,2.336209 3.436308,2.336209 1.0207,0 0.751254,0.653643 -0.374725,0.90886 -3.102203,0.703156 -9.324542,-0.03583 -13.593748,-1.614667 -3.779154,-1.397596 -2.85841,-0.13192 1.092284,1.501529 l 3.770283,1.559221 4.308895,-0.229274 c 2.369891,-0.126127 4.972238,-0.33035 5.782991,-0.453305 2.923889,-0.443446 1.396735,0.537458 -2.494624,1.60193 -2.182796,0.597099 -4.194932,1.312643 -4.471896,1.590689 -0.721918,0.724744 -2.338307,0.623696 -2.646108,-0.165586 -0.143993,-0.369239 -1.943227,-1.341845 -3.998839,-2.161634 -4.23211,-1.687793 -5.324993,-2.369551 -5.324993,-3.319995 0,-0.418561 -0.459795,-0.737472 -1.246427,-0.864654 -1.420021,-0.229595 -2.03983,0.323974 -1.63001,1.455075 0.329179,0.908528 3.319022,3.160468 5.317907,4.005576 1.561371,0.660129 2.164399,1.830516 3.003116,5.830036 0.281433,1.342047 0.756201,3.130883 1.055077,3.974856 0.569366,1.607792 1.147015,1.808791 3.399987,1.182342 1.017301,-0.282866 1.041972,-0.240829 0.697184,1.180093 -0.519529,2.14104 -0.401454,5.455276 0.21261,5.974646 0.570439,0.482472 0.563924,0.526651 0.732618,-5.167686 0.04836,-1.632555 0.225278,-3.084204 0.393328,-3.22634 0.38524,-0.325831 6.576666,0.590489 6.890335,1.019753 0.127784,0.174879 1.200299,0.502728 2.383005,0.729036 1.182701,0.226311 3.605235,0.744722 5.383461,1.151621 2.470203,0.565242 5.118092,0.769473 11.222259,0.86615 l 7.989708,0.126626 -0.29057,1.322457 c -0.159973,0.727313 -1.077532,2.913993 -2.038398,4.858987 -0.96086,1.944997 -1.746943,3.731316 -1.746943,3.970359 0,0.239041 -0.420616,1.160464 -0.9346,2.046996 -0.513983,0.886528 -1.330441,2.56114 -1.814271,3.721603 -0.483826,1.160463 -1.34536,2.886767 -1.914375,3.83624 -0.941379,1.57081 -1.166558,1.71547 -2.501713,1.60568 -1.246264,-0.10249 -1.636857,-0.40318 -2.591183,-1.99604 -1.418487,-2.36759 -3.14528,-3.736011 -5.353339,-4.242349 -0.951087,-0.218098 -2.02264,-0.492021 -2.381231,-0.608405 -0.491432,-0.159503 -0.652005,0.12345 -0.652005,1.149372 0,1.621921 -0.665787,2.093821 -1.765549,1.252027 -1.20918,-0.925543 -2.143671,-0.741258 -2.774561,0.546963 -0.31244,0.637979 -0.898387,1.329779 -1.302234,1.537499 -0.633781,0.325983 -0.519198,0.534813 0.836266,1.525493 1.895809,1.38562 2.389341,1.44329 2.031312,0.23677 -0.232208,-0.78251 -0.104728,-0.91111 0.899163,-0.91111 1.227826,0 1.522577,0.60187 0.654662,1.33595 -1.799844,1.52229 3.365183,2.59078 10.513563,2.17437 4.449959,-0.25923 4.500196,-0.25252 4.911288,0.65561 0.512432,1.13199 -0.01919,1.68673 -1.141894,1.19208 -0.463342,-0.20414 -2.883522,-0.45627 -5.378146,-0.56046 -4.949676,-0.2067 -9.29498,-1.2205 -12.044355,-2.81049 -0.886525,-0.51268 -1.744998,-0.93209 -1.908173,-0.93209 -0.163172,0 -0.855019,0.805 -1.536993,1.78925 l -1.239338,1.78999 1.749602,1.279 c 0.962482,0.7037 2.022029,1.27975 2.354657,1.27975 1.068126,0 0.646018,-1.0873 -0.679466,-1.74954 -0.706534,-0.35299 -1.546736,-0.99573 -1.866539,-1.42885 -0.365165,-0.49455 0.522713,-0.12165 2.386545,1.00327 2.689453,1.6232 3.207692,1.79149 5.521659,1.79149 2.811472,0 3.015038,-0.52822 0.365865,-0.94857 -1.767118,-0.28039 -4.43486,-1.29607 -4.114885,-1.56671 0.102071,-0.0864 0.886806,0.0156 1.743401,0.22628 2.139693,0.52622 14.503714,2.16637 17.092067,2.26728 0.311828,0.0122 0.56696,0.37899 0.56696,0.8152 0,0.59909 -0.206809,0.73705 -0.845124,0.5657 -0.609718,-0.16368 -1.184457,0.14998 -2.064088,1.12539 -1.30681,1.44911 -2.524282,1.77416 -2.547777,0.68034 -0.01306,-0.60746 -0.0778,-0.60037 -0.680352,0.0735 -0.650779,0.72773 -0.666177,0.72555 -0.666177,-0.0959 0,-0.96698 -1.128332,-1.13841 -1.538766,-0.23377 -0.534126,1.17727 -0.259708,1.63998 1.217195,2.05223 1.161174,0.32413 2.01874,0.28393 3.86507,-0.17982 1.305136,-0.32782 2.521234,-0.51819 2.702802,-0.42333 0.181577,0.0949 0.261423,1.02932 0.177177,2.07696 l -0.153256,1.90463 -1.8878,-0.0247 c -1.038335,-0.0136 -3.908263,0.12272 -6.377414,0.30271 -4.012216,0.29245 -4.550561,0.25612 -5.065432,-0.33943 -0.470368,-0.54407 -0.753676,-0.58555 -1.544078,-0.22777 -0.532442,0.24101 -1.293171,0.38378 -1.691136,0.31769 -0.587851,-0.0977 -0.488207,-0.35708 0.533296,-1.38315 1.777977,-1.78594 1.127067,-1.93077 -1.38462,-0.30869 -2.338669,1.51033 -2.560945,1.56693 -3.8509,0.98303 -0.739648,-0.33508 -0.877015,-0.26896 -0.877015,0.41956 0,0.49404 -0.358373,0.89614 -0.907136,1.01751 -0.498925,0.11036 -0.907136,0.33049 -0.907136,0.48928 0,0.47415 2.718414,0.68776 6.528898,0.51325 4.928437,-0.22573 5.329721,-0.0382 3.442512,1.60866 -1.206954,1.05323 -1.826705,1.30576 -3.022609,1.23405 -1.089098,-0.0653 -1.504648,-0.27516 -1.505101,-0.76126 -0.0013,-0.91161 -0.39015,-0.8441 -1.402337,0.24426 -0.468518,0.50378 -1.342638,1.02049 -1.942725,1.14788 -0.600086,0.12738 -1.2092,0.49239 -1.353617,0.81071 -0.325965,0.71846 1.70621,0.77795 5.242606,0.15434 2.533477,-0.44675 5.081793,-2.06169 5.837918,-3.69987 0.360682,-0.78143 0.710446,-0.86594 3.69764,-0.88938 3.371383,-0.0265 5.71755,-0.19688 7.448433,-0.54172 0.844186,-0.16818 0.994498,-0.003 1.13392,1.24229 0.218643,1.95327 -0.08051,5.84726 -0.449137,5.84726 -0.446197,0 -2.340954,-3.16158 -2.339594,-3.90368 9.07e-4,-0.35376 0.35807,-0.72245 0.794628,-0.81894 0.43656,-0.0965 -0.06653,-0.19581 -1.117971,-0.22029 -2.200136,-0.0512 -2.850748,0.58687 -2.850748,2.79551 0,1.00404 -0.164455,1.30262 -0.634287,1.15013 -0.348961,-0.11325 -0.745403,-0.0546 -0.880557,0.13037 -0.135159,0.18497 0.609405,0.53855 1.654811,0.78598 2.216882,0.5247 4.678603,1.9768 3.375185,1.9908 -0.870329,0.009 -1.08302,0.96254 -0.305628,1.36892 0.573247,0.29964 -1.240781,2.09195 -2.117242,2.09195 -1.142868,0 -5.451736,2.05476 -7.102056,3.38667 -2.903053,2.34294 -2.494334,2.70787 3.174975,2.83448 5.531842,0.12354 5.946556,0.0627 6.99487,-1.0235 0.752619,-0.77981 0.762906,-0.77706 1.29426,0.36489 l 0.53507,1.15088 0.454452,-0.95906 0.453568,-0.95907 0.475716,0.86316 c 0.589352,1.0687 1.412002,1.14622 1.01787,0.096 -0.391815,-1.04413 0.821719,-1.01912 1.989675,0.0412 1.534529,1.39313 1.950769,0.60495 0.478374,-0.90587 -1.532384,-1.57235 -1.466372,-1.71283 0.416361,-0.88937 0.80814,0.35347 1.48265,0.42288 1.904627,0.19706 0.359443,-0.19236 1.29456,-0.35208 2.078262,-0.35515 1.144429,-0.005 1.481171,0.1828 1.709743,0.95306 0.422008,1.42211 1.174668,1.162 1.174668,-0.4061 0,-1.50564 0.687227,-1.47572 1.377536,0.06 0.227899,0.50698 0.747234,0.92159 1.154294,0.92159 0.519462,0 0.648719,-0.20014 0.433193,-0.67135 -0.168891,-0.36923 -0.424073,-1.18922 -0.56696,-1.82221 -0.300448,-1.33095 -1.251462,-3.01755 -2.51854,-4.46712 -0.753277,-0.86175 -0.856182,-1.46923 -0.684783,-4.02805 0.111011,-1.6573 0.358196,-3.31444 0.550128,-3.6819 0.24079,-0.46099 0.114557,-0.74437 -0.408388,-0.9141 -1.207716,-0.39198 -1.476632,0.21011 -1.762891,3.95088 -0.254757,3.32902 -0.195897,3.65571 1.078996,6.03384 0.741307,1.3828 1.347415,2.60446 1.347415,2.71459 0,0.11013 -2.215058,0.20005 -4.92192,0.20005 -5.006777,0 -5.814237,0.13303 -10.865255,1.78925 -3.084312,1.01134 -6.664436,1.11932 -6.664436,0.2008 0,-0.52618 1.065303,-1.11634 4.031614,-2.23206 0.970174,-0.36492 2.76853,-1.30127 3.996184,-2.08146 2.124643,-1.35024 2.40317,-1.41934 5.788306,-1.43185 3.496823,-0.0129 5.460532,-0.47575 5.460532,-1.28649 0,-0.22615 -0.298988,-0.31415 -0.664405,-0.19555 -0.365413,0.11859 -2.231636,0.33567 -4.14767,0.48253 l -3.484145,0.26748 0.302085,-1.11341 c 0.535786,-1.97662 1.121864,-6.38343 1.397909,-10.51145 0.304703,-4.55651 0.735334,-6.71537 1.837305,-9.20698 0.868238,-1.96313 0.668867,-4.94317 -0.451795,-6.76063 -1.188048,-1.926735 -0.748795,-6.663764 0.618341,-6.669211 0.702721,-0.0027 10.084769,1.937151 10.424976,2.155637 0.206496,0.132611 -1.626889,2.343176 -2.984512,3.597971 -1.332307,1.231403 -1.302054,2.354823 0.177172,6.534353 1.305064,3.68742 1.322009,3.43076 -0.564302,8.43074 -0.855679,2.26811 -0.819851,2.68537 0.228557,2.68537 0.695429,0 0.980986,-0.43298 1.392595,-2.10994 0.284836,-1.16046 0.591656,-2.10993 0.682125,-2.10993 0.09046,0 1.171842,0.5293 2.40249,1.17635 2.21894,1.16666 2.260355,1.1727 5.027342,0.68932 2.011007,-0.35131 2.980821,-0.73332 3.47263,-1.36815 0.754129,-0.97348 0.195927,-1.2177 -0.698958,-0.30571 -0.310553,0.31649 -0.983484,0.57544 -1.495358,0.57544 -0.903005,0 -0.899095,-0.0284 0.132881,-0.95756 1.194276,-1.07522 0.886516,-1.75491 -0.472169,-1.04223 -0.48758,0.25575 -1.285942,0.67483 -1.773523,0.93059 -1.355496,0.71101 -1.597039,0.0996 -0.552785,-1.39738 0.56871,-0.81526 0.76237,-1.44152 0.489888,-1.58395 -0.523526,-0.27366 -1.771748,0.50134 -1.771748,1.09992 0,0.22431 -0.425134,0.79052 -0.945227,1.25876 -0.907717,0.81723 -0.999841,0.82591 -2.283787,0.21654 -0.9808,-0.46548 -1.274154,-0.83927 -1.101145,-1.40187 0.129779,-0.42199 0.238218,-1.51489 0.241847,-2.42838 l 0.0062,-1.66037 1.430689,0.26524 c 0.787036,0.14621 2.470906,0.30658 3.741936,0.3559 1.271024,0.0493 2.719456,0.23266 3.218381,0.40761 1.061703,0.37228 3.938652,2.11736 4.403682,2.67113 0.207589,0.2472 0.512495,0.21989 0.862845,-0.0764 0.420616,-0.35576 0.272848,-0.75761 -0.660862,-1.793 -0.662041,-0.73413 -1.211281,-1.56237 -1.219853,-1.8402 -0.03116,-1.01035 -3.876395,-5.11551 -5.286901,-5.64422 -0.786228,-0.2947 -1.797861,-1.114703 -2.248349,-1.822213 -0.450489,-0.707502 -1.066819,-1.286488 -1.369562,-1.286488 -0.302743,0 -0.690544,-0.19175 -0.861956,-0.426332 -0.58894,-0.805979 0.795762,-1.003614 3.075757,-0.438321 1.360246,0.337255 3.360358,0.500261 4.948498,0.403108 1.466077,-0.08971 2.665596,-0.04329 2.665596,0.102646 0,0.145939 -0.309011,0.890135 -0.686552,1.654377 -0.699878,1.416743 -0.332352,1.852833 0.686552,0.81445 0.852128,-0.86841 1.360705,-0.6941 1.360705,0.466053 0,0.96438 0.05456,0.99459 0.742363,0.41285 0.537845,-0.45491 1.026392,-0.53687 1.770869,-0.29747 1.623395,0.52204 6.104555,4.24665 6.104555,5.07403 0,0.41109 0.41884,1.24528 0.93105,1.85369 0.51222,0.60841 1.51675,2.18871 2.23153,3.5118 0.71479,1.32311 2.55092,3.84439 4.08033,5.60226 2.30689,2.6515 2.89226,3.11722 3.43809,2.73407 0.36187,-0.25401 0.6582,-0.29501 0.6582,-0.0914 0,0.20361 0.71437,0.69549 1.58749,1.09319 0.87312,0.39769 1.58748,0.85598 1.58748,1.019 0,0.16301 0.51027,0.29671 1.13392,0.29671 0.62366,0 1.13392,0.17262 1.13392,0.38362 0,0.21099 -0.21924,0.38363 -0.48722,0.38363 -1.02746,0 -5.84755,4.3758 -7.0684,6.4167 -1.79071,2.9935 -3.15517,4.06781 -6.17632,4.8635 -2.09803,0.55256 -2.75364,0.59561 -3.29368,0.21653 -0.84112,-0.59043 -0.2804,-1.24567 1.6433,-1.91963 1.88377,-0.65994 3.24056,-3.02797 3.30873,-5.77383 0.0521,-2.09851 0.11942,-2.20979 2.09333,-3.48334 2.09329,-1.35059 2.89141,-2.62168 1.64595,-2.62168 -0.37978,0 -1.23601,0.60421 -1.90197,1.34269 -1.45329,1.61153 -2.32526,1.70103 -2.95351,0.30345 -1.29894,-2.88964 -7.40006,-9.13401 -10.098077,-10.33537 -2.022828,-0.90073 -1.998516,-0.26191 0.04601,1.2183 1.999097,1.44728 4.874087,4.33675 4.570227,4.59374 -0.1018,0.0861 -1.07528,0.27706 -2.16241,0.42409 -1.952456,0.26407 -1.973116,0.25457 -1.746071,-0.75002 0.270857,-1.19837 -0.313417,-1.34321 -1.005471,-0.2495 -0.5148,0.81358 -1.577083,1.01834 -2.034855,0.39187 -0.150989,-0.20663 -0.04773,-0.73456 0.229441,-1.17261 0.999079,-1.57892 0.129132,-1.64139 -0.917767,-0.0659 -1.08918,1.63909 -1.540475,1.91389 -2.033966,1.23854 -0.16846,-0.23056 -0.573024,-0.24323 -1.047107,-0.0314 -3.000143,1.33914 -4.823441,1.94228 -5.889293,1.94734 -0.678343,0.003 -1.539297,0.1731 -1.91349,0.37764 -0.544948,0.29786 -0.454679,0.38521 0.453568,0.43831 0.623656,0.0365 1.440078,0.0406 1.814272,0.009 0.374193,-0.0313 3.637487,-0.15996 7.25177,-0.28547 4.064449,-0.14115 7.159709,-0.4361 8.113729,-0.77324 1.77741,-0.62813 2.51892,-0.31167 2.98984,1.27525 0.16579,0.5587 0.74689,1.54425 1.2916,2.1901 0.83007,0.98422 0.98935,1.69232 0.98332,4.37721 -0.007,3.04123 -0.0728,3.25077 -1.29781,4.14194 -0.70963,0.51627 -1.89333,1.04108 -2.63104,1.16586 -0.73772,0.1248 -1.65772,0.63464 -2.04372,1.13289 -0.38598,0.49825 -1.08625,0.90587 -1.556481,0.90587 -0.470233,0 -0.854867,0.1306 -0.854867,0.28996 0,1.21835 12.304778,2.3178 13.844448,1.23704 0.34641,-0.24317 0.84341,-0.33092 1.1038,-0.19481 0.86408,0.45169 1.41774,-0.17261 0.8912,-1.00477 -0.73269,-1.15791 -0.0178,-1.4232 0.99306,-0.36864 1.0728,1.11924 1.4959,0.88788 0.88055,-0.48102 -0.35332,-0.78595 -0.76139,-1.01226 -1.82666,-1.01226 -0.75456,0 -1.36833,-0.12947 -1.36425,-0.28772 0.004,-0.15824 0.82061,-0.96543 1.81426,-1.79374 0.99365,-0.8283 1.80631,-1.76175 1.80631,-2.07471 0,-0.31297 0.90574,-1.27524 2.0127,-2.13841 1.10697,-0.86317 2.52855,-2.21566 3.15903,-3.0053 l 1.14632,-1.4356 -1.25084,-0.54697 c -0.68774,-0.30079 -2.25811,-1.25169 -3.49036,-2.11292 -1.23223,-0.86124 -2.55082,-1.57683 -2.92958,-1.58995 -0.72783,-0.0252 -4.99723,-5.23154 -4.99723,-6.09378 0,-0.27794 -0.39276,-1.0437 -0.87258,-1.70158 -0.47983,-0.65788 -1.30077,-2.1647 -1.82402,-3.34922 -0.52324,-1.18451 -1.37565,-2.47898 -1.89488,-2.87643 -0.51924,-0.39744 -1.23509,-1.19802 -1.59015,-1.77876 -0.35506,-0.58073 -0.91788,-1.05571 -1.25085,-1.05571 -0.33298,0 -1.35681,-0.431573 -2.27581,-0.959063 -0.919021,-0.52748 -2.04854,-0.959058 -2.509691,-0.959058 -1.135875,0 -1.552092,-1.056129 -0.578481,-1.467811 0.427273,-0.180664 2.562842,-0.725291 4.745642,-1.210814 2.18279,-0.485522 3.96166,-1.074466 3.95277,-1.30822 -0.0149,-0.393832 -0.33997,-1.515998 -1.98347,-6.849037 -0.34167,-1.10867 -0.84193,-2.48824 -1.11178,-3.065997 -0.56052,-1.200145 -0.71158,-1.141933 4.65438,-1.79599 4.172,-0.508524 10.70315,-3.178088 10.70315,-4.374964 0,-0.250779 -0.89226,-1.301342 -1.98259,-2.334714 -1.79253,-1.698879 -2.01081,-2.121552 -2.2767,-4.409429 -0.26522,-2.281961 -0.53499,-4.487612 -1.43601,-11.737249 -0.15733,-1.265959 -0.55877,-3.310741 -0.89295,-4.543548 -0.33418,-1.232807 -0.50595,-2.466761 -0.38093,-2.742314 0.12502,-0.275553 0.009,-0.614466 -0.2569,-0.75376 -0.26647,-0.13929 -0.48457,-0.87329 -0.48457,-1.630403 0,-1.813322 -1.76596,-5.866752 -2.55575,-5.866752 -0.34078,0 -0.61923,-0.182655 -0.61923,-0.4061 0,-0.223447 0.2041,-0.299738 0.45356,-0.169336 1.48701,0.7773 -1.45221,-8.276888 -5.31259,-16.364716 -1.47047,-3.080757 -1.69402,-3.338787 -3.081951,-3.559013 -0.52315,-0.08301 -1.11001,-0.115499 -1.719485,-0.104148 z m -86.034393,0.02099 c -0.193157,-0.0065 -0.464897,0.03957 -0.821206,0.118384 -0.933,0.20636 -1.005956,0.458673 -1.070137,3.725351 -0.03796,1.927058 -0.04909,4.453036 -0.0248,5.613499 0.14979,7.154724 0.48297,43.286948 0.457996,49.679323 -0.04398,11.256537 0.03024,17.682764 0.281708,24.360134 0.123164,3.27039 0.350571,12.16088 0.504949,19.75665 0.154378,7.59574 0.360527,14.02624 0.457997,14.28998 0.212219,0.57424 2.473364,0.65096 2.473364,0.084 0,-0.21763 -0.321263,-0.49967 -0.714015,-0.62714 -0.45992,-0.14927 -0.629644,-0.52054 -0.4766,-1.04298 0.130692,-0.44613 0.275806,-2.32636 0.322459,-4.1779 0.04665,-1.85154 0.210166,-3.42857 0.363208,-3.50431 0.153041,-0.0758 1.706903,0.25482 3.453139,0.73428 4.220847,1.1589 8.324584,1.9091 8.701063,1.59067 0.57975,-0.49035 -1.460886,-1.35962 -5.072519,-2.16088 -7.247178,-1.60782 -7.483871,-1.68314 -7.483871,-2.36992 0,-0.36348 -0.206332,-0.76861 -0.458883,-0.90062 -0.25255,-0.13202 -0.300752,-0.4792 -0.107191,-0.77175 0.193561,-0.29253 0.167232,-1.79165 -0.05847,-3.33123 -0.605111,-4.12768 -0.732182,-26.158752 -0.14794,-25.664603 0.296859,0.25109 0.482041,4.290003 0.50672,11.055423 l 0.03897,10.65906 2.716978,0.1918 2.717865,0.19182 0.355235,2.10019 c 0.359391,2.12519 1.154899,3.34529 1.564455,2.39914 0.180719,-0.41749 2.412337,-1.62216 3.004888,-1.62216 0.109647,0 0.607442,0.73368 1.106457,1.63041 1.228433,2.20747 2.632857,3.26013 3.641831,2.72957 1.008281,-0.53019 3.038596,-5.46961 2.452103,-5.96565 -0.239481,-0.20256 -1.145947,-0.41606 -2.013594,-0.47429 -2.564261,-0.17208 -3.561717,-1.07507 -1.653929,-1.49704 1.429872,-0.31625 4.505035,0.83782 6.129368,2.30026 0.906347,0.81599 1.684743,1.19987 2.135844,1.05346 0.51136,-0.16595 0.788667,0.0741 0.993066,0.85942 0.469151,1.80253 0.609926,2.04923 1.168469,2.04923 0.393012,0 0.456147,-0.89166 0.2383,-3.35671 -0.437256,-4.94777 -1.820736,-32.360379 -1.795668,-35.58113 0.0033,-0.421986 0.258843,-2.38381 0.567846,-4.359228 0.585331,-3.74195 0.30068,-4.875119 -0.995724,-3.965117 -0.446254,0.313245 -0.630385,1.793006 -0.68921,5.526586 -0.147943,9.38973 -0.556028,11.812926 -1.988788,11.812926 -0.229349,0 -0.855292,0.345262 -1.390825,0.767248 -1.222234,0.963092 -2.700701,0.981494 -3.701185,0.04646 -0.731289,-0.683457 -0.705411,-0.780054 0.496976,-1.875412 2.04001,-1.858424 2.285531,-2.191269 3.070442,-4.162171 0.410309,-1.030277 1.244554,-2.768566 1.853251,-3.863215 1.308741,-2.353576 1.327494,-2.546784 0.373839,-3.777799 -0.752204,-0.97098 -1.988789,-1.287232 -1.988789,-0.508751 0,0.240118 -1.22188,1.405376 -2.715206,2.589462 l -2.715207,2.152642 -0.479258,4.028053 c -0.826793,6.948453 -1.00725,15.440346 -0.450024,21.160776 0.294168,3.0199 0.569413,5.65562 0.612139,5.85701 0.145702,0.6867 -1.394316,0.6431 -1.748717,-0.0495 -0.549489,-1.07379 -0.739386,-12.98137 -0.274621,-17.21813 0.342734,-3.124353 0.304552,-3.858959 -0.215268,-4.111231 -0.504856,-0.245008 -0.579153,-1.09871 -0.367638,-4.219865 0.145837,-2.151997 0.455152,-4.42169 0.688324,-5.044059 0.596276,-1.591549 -0.75102,-6.243801 -1.897543,-6.551578 -0.455605,-0.122303 -1.756138,-1.094496 -2.889723,-2.160886 -2.212348,-2.081207 -3.183725,-2.216741 -3.688784,-0.514743 -0.198841,0.670076 -0.0468,1.221958 0.4704,1.705328 0.906403,0.847115 2.025355,4.551815 2.048143,6.781604 0.014,1.369339 0.22846,1.703107 1.600776,2.493557 0.871414,0.50193 1.585764,1.231394 1.587487,1.621414 0.0026,0.612663 -0.203218,0.560478 -1.512188,-0.383624 -1.803567,-1.300869 -3.273661,-3.514499 -3.909363,-5.887772 -0.254325,-0.949468 -0.756895,-2.503147 -1.117089,-3.452617 l -0.654661,-1.726308 -0.03101,2.54151 c -0.01669,1.397677 0.266729,3.253459 0.629857,4.12396 0.363127,0.870501 0.562354,1.582449 0.442938,1.582449 -0.426228,0 1.420775,2.135475 3.103219,3.588235 1.410656,1.21808 1.829342,1.395158 2.381232,1.007762 0.539838,-0.378936 0.669721,-0.358922 0.669721,0.104146 0,0.31595 0.130359,1.157318 0.289681,1.86942 l 0.289681,1.294732 -1.310209,-1.01151 c -1.559658,-1.204518 -2.880407,-1.594185 -3.783571,-1.114907 -0.557111,0.29564 -0.566747,0.497257 -0.06024,1.297727 0.329717,0.521088 0.477401,1.114693 0.327774,1.31946 -0.149626,0.204767 0.01303,1.127671 0.362323,2.050743 0.349288,0.923063 0.742645,3.577303 0.873472,5.898223 0.130827,2.32093 0.655839,5.94618 1.166697,8.05611 1.128768,4.662 1.123041,4.41167 0.09213,4.41167 -0.464622,0 -1.617945,0.52041 -2.563722,1.15612 -0.945775,0.6357 -1.806441,1.08257 -1.911717,0.99353 -0.105277,-0.089 -0.281829,-3.67291 -0.392442,-7.9647 -0.110614,-4.29179 -0.296358,-8.75307 -0.412818,-9.91354 -0.409901,-4.084409 -0.24101,-5.428163 0.768053,-6.119254 l 0.944343,-0.646618 -1.081653,-1.601182 c -0.59485,-0.880716 -1.336786,-1.602644 -1.648614,-1.604178 -0.311827,-0.0016 -0.566959,-0.434573 -0.566959,-0.962056 0,-0.527484 -0.22937,-0.959061 -0.509379,-0.959061 -0.3737,0 -0.371593,-0.139458 0.0062,-0.524487 0.391489,-0.398972 0.349882,-0.640027 -0.171859,-1.006261 -0.746053,-0.523697 -0.932494,-1.538245 -0.282593,-1.538245 0.461319,0 0.921897,-6.055587 1.180871,-15.536777 0.376742,-13.79276 0.313575,-17.751884 -0.498748,-31.265366 -0.171223,-2.848409 -0.334282,-5.974251 -0.362323,-6.946444 -0.02803,-0.972193 -0.318135,-2.039897 -0.644916,-2.372925 -0.440128,-0.448542 -0.468836,-0.803723 -0.110735,-1.369658 0.265879,-0.420189 0.362759,-1.030339 0.215268,-1.355422 -0.14749,-0.325083 0.08615,-1.376844 0.520009,-2.337709 0.664624,-1.471928 0.792079,-1.960994 0.21261,-1.98031 z m 84.799483,1.482798 c 0.507914,-0.0011 1.013306,0.05084 1.449289,0.156596 l 1.440434,0.349158 -2.507915,2.279266 c -2.453652,2.229571 -2.519629,2.260003 -3.053609,1.416113 -0.300172,-0.474389 -0.483409,-1.496925 -0.406615,-2.272523 0.121035,-1.222395 0.336262,-1.457961 1.614062,-1.76602 0.446342,-0.107607 0.956434,-0.161526 1.464354,-0.16259 z m 41.015114,1.584697 c -0.0617,-6e-6 -0.12346,0.0013 -0.18514,0.0015 -0.1643,6.557602 -0.18319,14.117796 0.0178,19.52662 0.20632,5.55861 0.22783,5.657689 1.23048,5.658456 0.56129,3.83e-4 1.02053,-0.171882 1.02053,-0.382877 0,-0.210993 -0.22937,-0.383623 -0.50938,-0.383623 -0.36143,0 -0.35179,-0.159718 0.0328,-0.55146 0.42111,-0.429157 0.54984,-9.5873 0.39422,-23.681298 -0.15155,-3.32e-4 -0.38214,-7.68e-4 -0.39156,-7.68e-4 -0.56923,0.07652 -1.00049,0.06761 -1.54939,-0.11164 -0.013,-0.0042 0.0268,-0.008 0.0398,-0.01199 -0.0331,-0.02084 -0.0669,-0.04209 -0.10006,-0.06294 z m -37.32279,0.251751 c 0.36658,0 1.76024,2.870614 1.76024,3.625698 0,0.297853 -0.6219,0.916397 -1.38198,1.374154 -1.827315,1.100518 -4.967977,1.492692 -4.967977,0.620392 0,-0.340251 0.50189,-0.724694 1.115314,-0.854913 1.184216,-0.251385 2.358122,-1.187655 1.936529,-1.544237 -0.138633,-0.117256 -0.773015,0.0754 -1.410318,0.428581 -0.637308,0.353185 -1.420919,0.558834 -1.740744,0.457052 -0.324129,-0.103153 0.132968,-0.446818 1.032044,-0.776988 0.979199,-0.359595 1.95496,-1.129968 2.483991,-1.960829 0.47929,-0.752737 1.007261,-1.36891 1.172901,-1.36891 z m 43.21297,0.370138 c -0.0458,0.0025 -0.0917,0.0047 -0.13731,0.009 -0.34511,0.03187 -0.68488,0.05825 -1.02407,0.04945 0.007,0.368229 0.0163,1.895914 0.0221,1.969071 0.0296,0.369238 0.29187,0.671342 0.58291,0.671342 0.29104,0 0.39536,-0.113671 0.23121,-0.252503 -0.16413,-0.138831 -0.10005,-0.454694 0.14263,-0.702062 0.0973,-0.09911 0.16974,-0.79587 0.22856,-1.738296 -0.0277,-0.0011 -0.0556,-9.6e-4 -0.0833,-0.0022 0.0123,-0.0012 0.0498,-0.0043 0.0372,-0.0037 z M 83.684689,29.27896 c 1.422253,0 1.493781,0.05672 0.969147,0.767249 -0.544712,0.737715 -2.569838,1.061781 -3.216613,0.514745 -0.60149,-0.508733 0.75408,-1.281994 2.247466,-1.281994 z m 19.145521,2.632172 c 0.3894,-0.04471 0.52533,0.208621 0.52533,0.746268 0,0.617972 -1.07365,1.457201 -2.49463,1.94959 -2.1083,0.730561 -3.305924,0.80786 -3.567411,0.231524 -0.173993,-0.3835 0.02421,-0.57244 0.59885,-0.57244 0.471991,0 1.77334,-0.591 2.892381,-1.313463 1.01295,-0.653969 1.65609,-0.996764 2.04548,-1.041479 z m -19.996846,0.04646 c 0.140257,-0.0104 0.239703,0.0035 0.28348,0.0472 0.08333,0.08321 0.277978,0.712402 0.432305,1.398129 0.288224,1.280675 0.141595,1.573284 -0.410162,0.818199 -0.197795,-0.270692 -1.044679,-0.344287 -2.295298,-0.199305 -1.524084,0.176685 -1.980817,0.106153 -1.980817,-0.306449 0,-0.42918 2.98869,-1.68495 3.970492,-1.757778 z m 11.710379,0.390368 c 0.106853,0 0.193571,0.215788 0.193121,0.479529 -4.44e-4,0.263742 -0.867894,0.941644 -1.927663,1.506025 -2.079922,1.107664 -4.756577,1.852663 -4.271689,1.189085 0.266797,-0.365117 5.582255,-3.174639 6.006231,-3.174639 z m 48.678827,0.383623 c -0.68617,0 -0.80349,0.363315 -0.80349,2.493558 0,1.371456 0.10302,2.493556 0.22856,2.493556 0.12554,0 0.62289,-0.178694 1.10557,-0.397111 0.95186,-0.430863 1.23226,-2.440562 0.4013,-2.874933 -0.32966,-0.172241 -0.32921,-0.396759 -0.004,-0.729785 0.56487,-0.574428 0.1765,-0.985285 -0.9283,-0.985285 z m -39.35854,1.571211 c 0.26089,-0.04085 0.39865,0.05657 0.39865,0.294462 0,0.182297 -0.7654,0.770395 -1.70088,1.306719 -0.93549,0.536323 -2.36423,1.091925 -3.174981,1.234042 -1.266793,0.222055 -1.474095,0.152099 -1.474095,-0.496015 0,-0.596274 0.414622,-0.806979 1.979935,-1.005514 1.088901,-0.13811 2.364561,-0.497595 2.834791,-0.798718 0.49179,-0.314916 0.87569,-0.494118 1.13658,-0.534976 z m -8.468962,0.149853 c 0.45531,5.76e-4 0.703815,0.233622 0.689211,0.699065 -0.0079,0.25129 -0.977385,0.952867 -2.154448,1.559222 -2.496071,1.285835 -5.542033,1.804326 -5.542033,0.943327 0,-0.301886 0.765396,-0.773634 1.70088,-1.048973 0.935483,-0.275339 2.454351,-0.93094 3.375184,-1.456572 0.813669,-0.464462 1.475892,-0.696629 1.931206,-0.696069 z m -15.296401,0.9186 c 2.22891,-0.05918 2.983226,0.0371 3.480604,0.442067 0.641481,0.522288 -0.840149,2.103101 -2.758614,2.943117 -2.072964,0.907663 -3.980784,1.342969 -4.385081,1.001018 -0.535523,-0.452939 -0.30556,-1.553156 0.433194,-2.07172 0.400178,-0.280905 0.905987,-0.906482 1.123288,-1.389888 0.309315,-0.688097 0.766221,-0.889009 2.106609,-0.924594 z m 16.238085,1.24528 c 0.434278,-0.08986 0.668836,0.03627 0.668836,0.385872 0,0.651313 -1.721104,1.786008 -3.33532,2.199095 -2.313437,0.59202 -4.828903,0.801134 -4.828903,0.401606 0,-0.440615 1.958629,-1.117155 3.23433,-1.117155 0.499328,0 1.576865,-0.431577 2.394521,-0.95906 0.797831,-0.514695 1.432258,-0.820498 1.866536,-0.910358 z m 8.343168,0.02697 c 0.45421,0.04264 0.49086,0.360011 0.40662,0.97929 -0.1225,0.900438 -0.42587,1.105285 -2.07118,1.397381 -1.06021,0.188223 -1.92766,0.495693 -1.92766,0.683331 0,0.668485 1.28037,0.739656 2.91541,0.161841 1.25648,-0.444033 1.70037,-0.473283 1.82668,-0.119883 0.0918,0.256848 0.38942,1.053305 0.66086,1.770517 0.61806,1.633104 0.6251,1.573458 -0.18692,1.573458 -0.37419,0 -0.68035,0.179866 -0.68035,0.400108 0,0.220243 0.35719,0.349716 0.79374,0.287719 0.50973,-0.07239 0.84078,0.167145 0.92574,0.669094 0.10547,0.623071 -0.30855,0.915619 -2.04105,1.440839 -1.19536,0.362374 -2.53024,0.658256 -2.9668,0.657105 -1.42804,-0.0034 -0.83322,-0.95789 1.02053,-1.637147 0.99785,-0.365635 1.81427,-0.837348 1.81427,-1.04897 0,-0.495642 -0.43254,-0.485457 -2.26961,0.05619 -1.29165,0.380835 -1.57981,0.346984 -2.09421,-0.248006 -0.75617,-0.874659 -0.41829,-1.344184 0.96738,-1.344184 1.34236,0 3.39644,-0.761744 3.39644,-1.259515 0,-0.222061 -0.2258,-0.211078 -0.56696,0.02697 -0.31183,0.217633 -1.48544,0.450832 -2.60802,0.51849 -1.98016,0.119346 -2.043311,0.08922 -2.120771,-1.019749 -0.0439,-0.628701 -0.14597,-1.469258 -0.2268,-1.86792 -0.11433,-0.564033 0.356071,-0.877103 2.120791,-1.40937 1.5859,-0.478329 2.45766,-0.710229 2.91187,-0.667595 z m -20.190855,1.784002 c 0.262315,-0.03892 0.49129,0.100684 0.880556,0.389618 0.806875,0.598909 0.798701,0.630725 -0.226784,0.874393 -0.585111,0.139029 -1.467651,0.269685 -1.961327,0.290715 -0.823938,0.0351 -0.805333,-0.03693 0.226783,-0.874393 0.522892,-0.424275 0.81845,-0.641413 1.080772,-0.680333 z m 13.006413,0.545465 c 0.307351,-0.03084 0.417246,0.139085 0.417246,0.561201 0,0.531611 -0.490253,0.869488 -1.700879,1.1726 -2.324868,0.582157 -5.352796,0.892843 -5.715664,0.585929 -0.164363,-0.139018 1.079695,-0.63318 2.764814,-1.097676 1.685113,-0.464496 3.421425,-0.971308 3.857985,-1.126147 0.149532,-0.05304 0.274046,-0.08562 0.376498,-0.09591 z m -35.553701,0.66385 h 1.430689 c 0.786559,0 1.426344,0.129474 1.422716,0.287719 -0.0037,0.158245 -0.171653,0.507224 -0.372955,0.775489 -0.281548,0.375199 -0.609514,0.308805 -1.422715,-0.287719 z m -2.026882,0.487024 c 0.404252,-0.0309 0.798774,0.110653 1.164042,0.419588 0.793299,0.670962 0.535696,0.723358 -1.265918,0.258497 -1.010276,-0.260676 -1.043269,-0.324987 -0.304742,-0.589672 0.135956,-0.04873 0.271868,-0.07811 0.406618,-0.08841 z m 26.266191,0.210543 c 1.472086,0.0069 4.430224,0.763505 3.178517,0.812954 -0.338501,0.01339 -0.509556,0.257757 -0.380039,0.543219 0.284794,0.627721 -1.083084,1.674719 -3.135112,2.399899 -0.830501,0.29348 -1.567607,0.516688 -1.637983,0.496011 -0.07038,-0.02067 -0.604601,-0.260158 -1.187958,-0.53198 -1.218075,-0.56756 -1.089385,-0.661832 1.889569,-1.385389 2.10411,-0.511068 3.422564,-1.290627 2.912758,-1.721813 -0.133526,-0.112938 -1.42878,0.21806 -2.878206,0.735028 -2.438322,0.869676 -3.811921,0.968052 -3.811921,0.273482 0,-0.509652 3.48557,-1.628726 5.050375,-1.621411 z m -9.606428,0.543968 c 0.643509,-0.01075 1.915177,0.531738 2.530056,1.325452 0.405744,0.523751 0.660812,1.016796 0.56696,1.096175 -0.239111,0.202243 -2.908699,-1.205673 -3.298994,-1.739796 -0.343637,-0.470273 -0.184131,-0.675375 0.201978,-0.681831 z m -3.196238,0.183568 c 0.07979,-0.01197 0.316554,0.111761 0.698956,0.323683 0.594533,0.329479 1.182429,0.823096 1.306666,1.096927 0.124242,0.273831 0.89303,0.610511 1.708853,0.748516 1.477552,0.249938 3.130681,1.219142 3.130681,1.835703 0,0.559489 -0.733932,0.354906 -1.587488,-0.442818 -0.966009,-0.902821 -2.131892,-1.030513 -1.751376,-0.191811 0.165322,0.364381 -0.0062,0.575436 -0.467742,0.575436 -0.400885,0 -0.729074,-0.190941 -0.729074,-0.424085 0,-0.23314 -0.605431,-1.183028 -1.345644,-2.110681 -0.793504,-0.994439 -1.096809,-1.390945 -0.963832,-1.41087 z m -1.404111,0.07793 c 0.194245,-0.04773 0.466931,0.317131 1.847936,2.045495 1.053253,1.318171 1.269011,1.822215 0.780454,1.822215 -0.371458,0 -0.807487,-0.181117 -0.969147,-0.402357 -0.202088,-0.276562 -0.470405,-0.278376 -0.857525,-0.0068 -0.705956,0.495651 -2.984513,-1.38873 -2.984513,-2.468072 0,-0.600073 0.279093,-0.496905 1.614951,0.596417 1.160722,0.949983 1.52426,1.10578 1.290718,0.554455 -0.178756,-0.421986 -0.526193,-0.986926 -0.772485,-1.255771 -0.246283,-0.26884 -0.31708,-0.600218 -0.156798,-0.73578 0.08556,-0.07236 0.141663,-0.133942 0.206409,-0.149849 z m 71.559191,0.03147 c -0.41108,0 -0.51302,3.605776 -0.4261,15.057248 0.0629,8.281485 0.12509,15.110428 0.1382,15.175628 0.0131,0.0652 0.2379,0.0065 0.49963,-0.130369 0.26174,-0.136816 0.46334,-1.225784 0.44737,-2.420128 -0.016,-1.194345 0.0546,-6.659776 0.15679,-12.145602 0.21127,-11.330572 -0.0102,-15.536777 -0.81589,-15.536777 z m -45.431199,0.08092 c 0.574177,-0.0399 0.717563,0.160217 0.717563,0.579932 0,0.424867 -0.483641,0.936664 -1.115318,1.180093 -0.61361,0.236467 -2.125252,0.543476 -3.358353,0.681831 -2.008322,0.225329 -2.297436,0.16322 -2.778104,-0.596417 -0.481054,-0.760247 -0.444052,-0.823407 0.359666,-0.607653 0.493082,0.132366 1.786305,-0.03771 2.873774,-0.37838 1.721585,-0.53934 2.726601,-0.819509 3.300772,-0.859406 z m -33.770434,1.102168 c 0.549574,-0.06998 0.923968,0.03318 0.923968,0.334923 0,0.202097 0.896789,0.8124 1.992333,1.35542 1.798116,0.89127 2.519366,1.792196 2.537146,3.168648 0.0037,0.263741 -0.197905,0.47953 -0.447369,0.47953 -0.249462,0 -0.453567,-0.431578 -0.453567,-0.959061 0,-0.527483 -0.206473,-0.95906 -0.458884,-0.95906 -0.272803,0 -0.367598,0.661164 -0.233869,1.630402 0.134457,0.974521 0.09094,1.274227 -0.108076,0.744772 -0.587166,-1.561968 -1.246989,-0.899641 -1.085197,1.089431 0.09778,1.202068 -0.02789,1.906133 -0.340177,1.906133 -0.272375,0 -0.495205,-0.507869 -0.495205,-1.128396 0,-0.620528 -0.204105,-1.234759 -0.453568,-1.365162 -0.277043,-0.144817 -0.453567,0.443742 -0.453567,1.512021 0,0.961922 -0.204106,1.748785 -0.453568,1.748785 -0.249462,0 -0.453568,-0.517892 -0.453568,-1.150873 0,-0.632979 -0.193225,-1.150872 -0.429651,-1.150872 -0.236427,0 -0.491559,0.906312 -0.56696,2.014027 -0.09183,1.348864 -0.249658,1.781853 -0.477485,1.311216 -0.187097,-0.386494 -0.340176,-1.03386 -0.340176,-1.438591 0,-0.404727 -0.188013,-0.73578 -0.418135,-0.73578 -0.543624,0 -1.543079,-2.557242 -1.188842,-3.04202 0.149455,-0.204529 -0.142552,-0.559221 -0.648461,-0.788229 -0.542132,-0.245396 -0.919537,-0.804874 -0.919537,-1.362165 0,-0.743041 -0.23371,-0.945572 -1.091397,-0.945572 -0.866397,0 -1.043157,-0.157378 -0.855756,-0.7635 0.228534,-0.739147 0.829648,-0.776643 3.129795,-0.196308 0.276168,0.06968 1.09259,-0.20301 1.814272,-0.605409 0.701338,-0.391054 1.425926,-0.634326 1.975501,-0.70431 z m 4.622497,0.450308 c 0.279148,0.03373 0.593334,0.240755 0.733501,0.596417 0.09874,0.250557 -0.143628,0.455554 -0.538613,0.455554 -0.39498,0 -0.718442,-0.273582 -0.718442,-0.607653 0,-0.338728 0.244405,-0.478046 0.523554,-0.444318 z m 20.464593,0.698315 c 0.444329,0.0063 0.816486,0.151114 1.14632,0.430081 0.790823,0.668872 0.684208,0.896952 -0.659088,1.414615 -0.881251,0.339607 -1.068588,0.577496 -0.699842,0.889379 0.368747,0.311882 0.685577,0.298582 1.183527,-0.05095 0.823538,-0.57808 1.626467,-0.231929 1.626467,0.70131 0,0.42328 -0.843622,1.072272 -2.215574,1.703832 -2.641889,1.216162 -3.05166,1.247369 -3.662203,0.282471 -0.381777,-0.603349 -0.240587,-0.883771 0.777796,-1.546482 l 1.244654,-0.809957 -1.814271,0.107895 c -2.375707,0.14181 -2.341278,-0.471785 0.109849,-1.973566 1.025082,-0.628058 1.831888,-0.993364 2.49285,-1.108915 0.165239,-0.02889 0.321403,-0.04183 0.469515,-0.03971 z m 9.287506,0.370888 c 1.431937,-0.02375 1.292036,0.99618 -0.226782,1.653631 -1.759746,0.761744 -5.085319,1.189246 -5.170848,0.664599 -0.03742,-0.229541 -0.08844,-0.613769 -0.113392,-0.854163 -0.04633,-0.446473 3.669183,-1.433491 5.511022,-1.464067 z m -31.523849,1.362165 c -0.35054,-0.03652 -0.921424,0.359203 -1.471438,1.111912 -1.164504,1.593652 -1.686828,1.682342 -2.269613,0.385872 -0.237112,-0.527483 -0.657288,-0.95906 -0.933711,-0.95906 -0.565412,0 -0.532856,0.08365 0.717559,1.819966 0.492869,0.684393 0.940786,1.245628 0.994837,1.246778 0.305818,0.0076 3.303426,-2.766482 3.303426,-3.057004 0,-0.349082 -0.130736,-0.526543 -0.34106,-0.548464 z m 3.849127,0.310947 c 0.117796,0.01462 0.268721,0.06782 0.450021,0.162591 0.336824,0.176065 0.382489,0.479178 0.124908,0.831686 -0.340525,0.466011 -0.454965,0.446884 -0.713127,-0.12213 -0.275747,-0.607773 -0.215273,-0.915988 0.138198,-0.872147 z m 10.874109,0.0989 c 0.236132,0.04665 0.433901,0.270286 0.770712,0.705058 0.396903,0.512338 0.721989,1.026467 0.721989,1.142632 0,0.342396 3.351363,4.576161 3.95366,4.994606 0.303701,0.210993 0.886803,1.068255 1.295151,1.905385 0.617454,1.265809 0.831448,1.427269 1.273886,0.959059 0.586984,-0.621179 4.056688,-2.289008 4.761578,-2.289008 0.245054,0 0.510278,0.388419 0.589992,0.863155 0.170491,1.015326 -1.098482,1.7056 -3.811036,2.072467 -2.02939,0.274468 -1.995096,-0.122541 -0.421673,4.928673 0.917522,2.94555 1.629125,10.031176 1.035586,10.312894 -0.157288,0.07465 -1.051534,0.252847 -1.987017,0.395612 -2.013819,0.307341 -2.157478,-0.0864 -0.562529,-1.541988 0.626132,-0.571423 1.042081,-1.120642 0.923968,-1.220554 -0.395068,-0.334144 -3.378224,2.017172 -3.681697,2.901906 -0.164749,0.480301 -0.684062,1.047416 -1.154295,1.260266 -0.730311,0.330581 -0.854871,0.248236 -0.854871,-0.5612 0,-0.521168 0.216026,-1.427975 0.480143,-2.015526 0.264113,-0.587552 0.568035,-1.936432 0.675041,-2.997812 0.106992,-1.061384 0.313175,-3.138525 0.458878,-4.615478 0.1457,-1.476953 0.366243,-2.987472 0.48989,-3.356711 0.123643,-0.369238 0.02322,-0.671342 -0.223241,-0.671342 -0.498058,0 -0.67016,0.639237 -1.446632,5.370738 -0.743807,4.532446 -0.776318,4.594624 -1.792125,3.455613 -0.466385,-0.522956 -0.986718,-0.832556 -1.156951,-0.688574 -0.170233,0.143981 0.09486,0.696603 0.589107,1.228045 0.494249,0.531439 1.02745,0.856553 1.1853,0.723043 0.57077,-0.482755 0.242636,2.396351 -0.348149,3.054758 -0.536775,0.598203 -0.671009,0.609191 -1.174669,0.09591 -0.312848,-0.31883 -0.887995,-0.579932 -1.278317,-0.579932 -0.51241,0 -0.348903,0.319042 0.589103,1.147125 1.459268,1.288267 1.224946,2.06519 -0.279933,0.928343 -0.964176,-0.728379 -0.968426,-0.727179 -0.640488,0.16334 0.302612,0.82175 0.249866,0.859729 -0.641372,0.456302 -0.585194,-0.264886 -0.890998,-0.697767 -0.768943,-1.087936 0.111483,-0.35639 0.549493,-1.942845 0.973579,-3.525294 0.424086,-1.58245 1.288945,-3.826651 1.922347,-4.987114 0.633404,-1.160463 1.212043,-2.703844 1.285403,-3.429389 0.07336,-0.725548 0.652707,-2.19291 1.288065,-3.260804 1.280844,-2.152811 1.648915,-3.699791 0.931052,-3.917911 -0.60583,-0.184083 -4.003729,5.855002 -3.687013,6.553078 0.32129,0.708147 -0.706513,3.507875 -1.982586,5.398459 -0.569504,0.843757 -1.19682,2.367313 -1.394367,3.385931 -0.197546,1.018656 -1.171049,3.270469 -2.163305,5.00435 -0.992262,1.733878 -1.936278,3.597788 -2.097753,4.14194 -0.246509,0.830711 -0.625923,1.028109 -2.363514,1.229546 -2.399951,0.278223 -2.894553,0.263016 -5.344481,-0.165587 -0.99785,-0.174569 -2.550191,-0.327259 -3.449597,-0.33942 -1.351633,-0.01826 -2.15804,-0.427357 -4.649072,-2.357938 -2.836577,-2.198392 -3.626339,-2.418194 -2.54423,-0.708055 0.690734,1.091618 -0.234857,0.910099 -1.10823,-0.217288 -0.408638,-0.527483 -1.146583,-0.95906 -1.639756,-0.95906 -1.036159,0 -1.040834,-0.01351 -0.454453,-1.31796 0.42048,-0.935406 0.610122,-0.983785 3.83938,-0.983785 1.895674,0 4.325945,-0.266672 5.497742,-0.603161 1.154952,-0.331654 2.223744,-0.497346 2.375916,-0.368636 0.152176,0.128706 0.0086,0.788636 -0.318918,1.466311 -1.203424,2.489671 -0.41569,3.869954 0.86373,1.51352 0.634346,-1.168342 0.795367,-1.237395 2.381231,-1.021249 2.311182,0.315009 2.222742,-0.454737 -0.113392,-0.986785 -1.066188,-0.242823 -1.814272,-0.64457 -1.814272,-0.974045 0,-0.707223 -0.03361,-0.709804 2.494624,0.206796 2.331094,0.845136 2.948192,0.935472 2.948192,0.431577 0,-0.184619 -0.561291,-0.440035 -1.247312,-0.567195 -0.686022,-0.127156 -1.739002,-0.558377 -2.339594,-0.958309 -1.065368,-0.70942 -1.07409,-0.763086 -0.378271,-2.214083 0.558187,-1.164008 0.930109,-1.465467 1.712396,-1.387637 1.272303,0.126585 4.028766,-1.788831 7.402373,-5.142961 1.450895,-1.442519 0.612983,-1.88633 -0.884104,-0.468294 -1.06173,1.005667 -5.44467,3.785293 -5.969026,3.785293 -0.21003,0 -0.295745,-0.624138 -0.190463,-1.38689 0.105986,-0.767843 -0.03052,-1.502341 -0.305627,-1.646139 -0.500027,-0.261379 -0.22223,-2.286722 0.752106,-5.478632 0.583211,-1.910594 2.318191,-4.883631 3.537299,-6.06156 0.548504,-0.529973 1.697646,-1.740396 2.553093,-2.689866 1.274068,-1.414103 1.781801,-1.705313 2.808221,-1.610174 0.689164,0.06387 1.725154,-0.145397 2.302392,-0.465294 0.489848,-0.271463 0.764021,-0.401796 1.000149,-0.35515 z m 18.17018,0.560451 c 0.49005,0.0047 0.5581,0.222958 0.5581,0.658606 0,0.487824 -0.54242,0.844073 -1.753147,1.150872 -2.324236,0.588982 -4.596825,0.571547 -4.595918,-0.03522 3.45e-4,-0.263741 1.216288,-0.781634 2.701917,-1.150872 1.687332,-0.419374 2.598987,-0.628115 3.089048,-0.623388 z m 7.69825,0.07942 c 0.19094,0.0086 0.34712,0.04939 0.47927,0.119883 1.08537,0.579065 1.18652,1.28724 0.18426,1.28724 -0.48926,0 -1.62209,0.258945 -2.51766,0.575436 -1.76753,0.624635 -3.29398,0.744534 -3.62943,0.28547 -0.11641,-0.159311 1.0153,-0.7936 2.51589,-1.410118 1.50651,-0.618959 2.39487,-0.883455 2.96767,-0.857911 z m -33.718167,1.442339 c 0.153701,0.124973 -0.303478,0.743456 -1.016096,1.374153 -1.39537,1.234955 -3.245455,4.363579 -4.043131,6.838549 -1.286932,3.993017 -1.473212,4.812012 -1.473212,6.46991 0,0.977739 -0.210641,1.778009 -0.468626,1.778009 -0.308186,0 -0.382449,-1.274469 -0.216157,-3.716359 0.345315,-5.070663 1.545197,-7.892894 4.566685,-10.738479 1.303922,-1.228011 2.496837,-2.130753 2.650537,-2.005783 z m 18.527188,0.806209 c 0.187097,-0.07601 0.340176,0.216962 0.340176,0.65111 0,0.486117 -0.514459,1.014467 -1.338556,1.374905 -1.417037,0.61978 -4.104259,0.798821 -4.104259,0.273482 0,-0.171457 1.071554,-0.727693 2.381232,-1.23629 1.309677,-0.508601 2.53431,-0.987203 2.721407,-1.063207 z m 7.432489,0.244262 c 0.49105,-0.0392 0.79774,3e-6 0.88587,0.12063 0.32136,0.439775 0.36765,0.404435 -1.401451,1.06321 -2.746705,1.022811 -3.885672,1.178882 -4.161837,0.570189 -0.327489,-0.721819 -0.407127,-0.680316 2.682428,-1.403374 0.827872,-0.193749 1.503939,-0.311457 1.99499,-0.350655 z m 8.00477,0.333422 c 0.48907,-0.02209 0.74078,0.05693 0.87258,0.232273 0.48293,0.64249 0.44367,1.507585 -0.0567,1.246027 -0.22854,-0.119456 -0.89188,-0.06758 -1.4741,0.11539 -0.58222,0.18297 -1.82402,0.451077 -2.7595,0.595665 -1.48336,0.229269 -1.70088,0.168081 -1.70088,-0.475034 0,-0.584079 0.58695,-0.862475 2.82328,-1.338941 1.07991,-0.230078 1.80622,-0.353287 2.29531,-0.37538 z m -67.865102,1.392134 c 0.18497,-0.01642 0.440457,0.0094 0.721102,0.08017 1.684167,0.424771 7.597262,3.022095 7.597262,3.33723 0,0.684098 -3.891746,-0.189 -5.387004,-1.208565 -0.654291,-0.44614 -1.648968,-1.008659 -2.210258,-1.250527 -0.561291,-0.241867 -1.020528,-0.596884 -1.020528,-0.788228 0,-0.09567 0.114455,-0.153672 0.299426,-0.170083 z m 60.483102,0.344663 c 0.67423,-0.04098 0.86299,0.127076 1.01876,0.630882 0.19238,0.622207 -0.0515,0.858992 -1.18441,1.149376 -3.390687,0.869089 -3.92089,0.878986 -3.92089,0.07193 0,-0.878292 0.929379,-1.380199 3.233449,-1.745789 0.349291,-0.05542 0.628351,-0.09274 0.853091,-0.106399 z m -6.848696,0.269738 c 0.157348,0.01572 0.28314,0.05623 0.380925,0.122131 0.908237,0.612037 0.668449,0.940592 -0.907136,1.241534 -4.414154,0.843064 -5.227179,0.480331 -1.814272,-0.809209 1.114729,-0.421189 1.868437,-0.601649 2.340483,-0.554456 z m -32.299881,0.08541 c 0.126032,0.02976 0.288206,0.211941 0.409272,0.478781 0.161421,0.355789 0.19206,0.732934 0.06733,0.838431 -0.124731,0.105497 -0.359474,-0.09902 -0.520895,-0.454806 -0.16142,-0.355788 -0.191174,-0.733681 -0.06644,-0.839178 0.03116,-0.02636 0.06873,-0.03314 0.110739,-0.02321 z m 12.921369,0.06069 c -0.657464,0.236896 -2.363138,2.057691 -2.83303,3.121443 -0.284555,0.644184 -0.68755,1.516361 -0.894731,1.938348 -0.207181,0.421987 -0.508703,1.60897 -0.670609,2.638164 -0.161901,1.029194 -0.418924,2.146278 -0.571387,2.482321 -0.34615,0.762952 4.212856,-2.505112 5.136298,-3.681895 0.372533,-0.474734 0.978976,-0.863153 1.347419,-0.863153 0.368442,0 0.669721,-0.258947 0.669721,-0.575437 0,-0.908529 -0.549249,-0.689242 -2.471592,0.986785 -0.984968,0.858762 -2.177489,1.73621 -2.650537,1.950337 -0.720928,0.326331 -0.820895,0.275631 -0.617456,-0.31469 0.13349,-0.387349 0.480582,-1.48115 0.770712,-2.43062 0.290129,-0.94947 0.686715,-1.812624 0.881445,-1.91812 0.540794,-0.292978 2.345418,-3.135998 2.114584,-3.331235 -0.04449,-0.03764 -0.116917,-0.0356 -0.210837,-0.0023 z m 33.820038,0.273482 c 2.23294,-0.01385 1.76624,0.553282 -0.90713,1.102167 -1.30968,0.268897 -2.72133,0.567787 -3.13689,0.66385 -0.74417,0.172022 -1.60073,-0.485564 -1.14011,-0.875142 0.38857,-0.328655 3.60308,-0.881054 5.18413,-0.890875 z m -40.02559,0.0622 c 0.07452,0.06623 -1.017462,1.360136 -2.427301,2.874933 -3.209378,3.448309 -4.021519,3.747187 -2.506139,0.923096 0.625724,-1.166107 4.520788,-4.164766 4.93344,-3.798029 z m 41.6184,1.438591 c 0.82243,0.02202 0.2244,0.713195 -2.13142,1.688844 -1.35633,0.561717 -2.77323,1.021249 -3.14839,1.021249 -1.03785,0 -1.35649,-0.743513 -0.42345,-0.987533 0.45236,-0.11831 1.69527,-0.549127 2.76215,-0.956812 1.44325,-0.551498 2.44765,-0.778968 2.94111,-0.765748 z m -8.43619,0.326679 c 0.3738,-0.0209 0.58975,0.05239 0.71313,0.215788 0.71451,0.946248 0.25828,1.392866 -2.00296,1.960829 -1.292598,0.324666 -2.393141,0.590421 -2.445904,0.590421 -0.05276,0 -0.226644,-0.288102 -0.38624,-0.639873 -0.374162,-0.824681 -0.01946,-1.081019 2.460953,-1.778758 0.755721,-0.212581 1.287221,-0.327492 1.661021,-0.348407 z m 37.02602,0.08766 c -0.39125,-0.0042 -0.49097,0.728379 -0.35346,2.58347 0.59681,8.050215 0.76641,13.632368 0.94169,30.977649 0.1066,10.549663 0.34783,23.669613 0.53595,29.155433 0.2251,6.56433 0.1778,10.84637 -0.1382,12.52548 -0.27983,1.48703 -0.34442,3.88752 -0.15413,5.75436 0.25865,2.53759 0.1915,3.32963 -0.32424,3.81301 -0.55581,0.52093 -2.65597,0.64733 -14.36623,0.86166 -7.54359,0.13807 -15.24679,0.33388 -17.11776,0.43533 -1.87097,0.10144 -5.13665,0.28395 -7.25708,0.4061 -2.996203,0.1726 -4.249757,0.0826 -5.62531,-0.40385 -1.379001,-0.48767 -2.58131,-0.57308 -5.442815,-0.38662 -2.02006,0.13161 -11.020639,0.30596 -20.001283,0.38736 -10.745042,0.0974 -17.181465,0.31144 -18.823068,0.62489 -1.711938,0.32688 -7.503816,0.48506 -18.459859,0.50501 -12.886241,0.0235 -16.078879,0.13067 -16.555229,0.55445 -0.499218,0.44413 3.00962,0.48454 22.768755,0.26449 12.84731,-0.14308 24.175168,-0.32004 25.173018,-0.39336 1.594632,-0.11718 46.680271,-0.57949 70.869991,-0.72679 4.80211,-0.0292 8.73115,-0.18267 8.73118,-0.34092 2e-5,-0.15824 -0.40484,-0.28771 -0.89916,-0.28771 -0.8221,0 -0.89039,-0.23734 -0.80349,-2.78128 0.0522,-1.5297 -0.0571,-13.74334 -0.24273,-27.1414 -0.18568,-13.398081 -0.43256,-31.426005 -0.54837,-40.061757 -0.21504,-16.035554 -0.24681,-16.307075 -1.90817,-16.325005 z m -28.67134,1.709075 c 0.20026,-0.02704 0.34595,-0.02521 0.41725,0.01197 0.64648,0.337931 0.56022,1.010976 -0.11427,0.890878 -0.31183,-0.05553 -1.0881,0.193275 -1.7248,0.552956 -1.41119,0.797256 -4.05819,1.296811 -4.05819,0.765752 0,-0.447931 4.0782,-2.032313 5.48001,-2.221575 z M 65.795331,55.74903 c 0.08092,0 0.07513,0.819997 -0.01329,1.822215 -0.08834,1.002218 -0.294207,1.939055 -0.457114,2.08146 -0.261673,0.228786 -2.7905,-0.664142 -2.7905,-0.985285 0,-0.168134 3.073036,-2.91839 3.260904,-2.91839 z m -22.643845,0.153599 c 0.138895,-0.117477 0.832461,0.05158 1.540536,0.376133 1.424739,0.653042 0.990959,0.779439 -0.706042,0.2053 -0.597508,-0.202156 -0.973388,-0.46396 -0.834494,-0.581438 z m 52.462392,0.16334 c 0.304893,-0.01094 0.425937,0.127716 0.566076,0.408348 0.502916,1.007137 0.422861,1.196225 -0.648462,1.530004 -0.56129,0.17488 -1.581817,0.432775 -2.267839,0.573189 -1.054736,0.215877 -1.247312,0.133294 -1.247312,-0.534975 0,-0.564579 0.550546,-0.989708 1.927664,-1.488044 0.876238,-0.317085 1.36498,-0.477589 1.669873,-0.488522 z m 6.363242,0.337171 c 1.35837,-0.161445 0.99971,1.236524 -0.51824,2.019271 -1.580511,0.81501 -3.09259,1.024011 -3.09259,0.427081 0,-0.193738 -0.104452,-0.582556 -0.232094,-0.863902 -0.21334,-0.470212 1.937494,-1.355989 3.842924,-1.58245 z m 8.18194,0.722291 c 0.68576,-0.0812 0.90714,0.381603 0.90714,1.455076 0,1.094452 -0.24882,1.357342 -1.97728,2.087455 -2.03852,0.861091 -4.37268,1.112571 -4.37268,0.471286 0,-0.200075 1.22463,-0.654048 2.72141,-1.009261 1.49677,-0.355209 2.72141,-0.795349 2.72141,-0.978541 0,-0.514471 -1.52744,-0.395692 -3.39556,0.264489 -0.93055,0.328851 -1.79251,0.512921 -1.91526,0.409101 -0.37559,-0.317667 0.33456,-1.007013 1.03735,-1.007013 0.36445,0 1.48272,-0.437461 2.48488,-0.972548 0.79826,-0.426207 1.37713,-0.671323 1.78859,-0.720044 z m -65.567142,0.925344 c 0.388916,0 0.706929,0.17263 0.706929,0.383624 0,0.210994 -0.192252,0.383624 -0.426992,0.383624 -0.23474,0 -0.552751,-0.17263 -0.706928,-0.383624 -0.154176,-0.210994 0.03807,-0.383624 0.426991,-0.383624 z m 58.446482,0.822694 c 0.29621,-0.0067 0.31714,0.218047 0.31714,0.668346 0,0.445782 -0.59186,0.961216 -1.54231,1.342684 -1.914051,0.768211 -2.539801,0.780341 -2.539801,0.05095 0,-0.312201 0.808651,-0.916409 1.796551,-1.342684 1.10108,-0.475103 1.67221,-0.712621 1.96842,-0.719296 z m -6.997529,0.385872 c 0.753178,-0.04813 0.964717,0.07376 0.964717,0.421837 0,0.83971 -3.592848,1.580125 -3.941255,0.812204 -0.339165,-0.747556 -0.189166,-0.831198 2.030424,-1.131391 0.383668,-0.05189 0.695051,-0.0866 0.946114,-0.10265 z m 15.260969,1.476803 c 0.12001,0 0.21792,0.353536 0.21792,0.785232 0,0.572041 -0.64576,1.039181 -2.38123,1.722561 -4.70258,1.851745 -5.64886,0.659572 -1.01167,-1.274503 1.62623,-0.678267 3.05497,-1.23329 3.17498,-1.23329 z m -14.599222,0.556704 c 0.601758,-0.02141 0.818749,0.15612 1.002811,0.646617 0.163462,0.435594 0.124174,0.927887 -0.0877,1.093927 -1.034755,0.810894 -2.364453,0.785076 -3.06424,-0.05994 -0.830189,-1.002483 -0.583352,-1.283464 1.405883,-1.597434 0.299082,-0.0472 0.542662,-0.07603 0.743248,-0.08317 z m -39.599489,0.2053 c 0.86836,0.105481 1.958511,0.748159 3.96606,2.012527 3.00712,1.893906 4.103516,2.48954 5.207173,2.82698 0.981853,0.300201 1.017925,0.100452 -0.407503,2.25754 -0.798443,1.20827 -1.706713,1.996866 -2.707234,2.350445 -1.885804,0.666432 -2.09088,0.663758 -2.909211,-0.04195 -0.366261,-0.315858 -2.247997,-1.83382 -4.18133,-3.372448 -1.933333,-1.538632 -3.515151,-2.913933 -3.515151,-3.056257 0,-0.142328 0.859748,-0.936764 1.910832,-1.766018 1.120929,-0.884349 1.768003,-1.316295 2.636364,-1.210813 z m 45.971591,0.297458 c 0.25505,-1.46e-4 0.32069,0.177457 0.43054,0.532727 0.15917,0.51482 -0.15259,0.88923 -1.07457,1.292484 -0.71396,0.312267 -1.61461,0.567944 -2.0012,0.567944 -1.347495,0 -0.689341,-1.138117 1.07457,-1.858928 0.87093,-0.355838 1.31561,-0.534081 1.57066,-0.534227 z m -9.983813,1.242283 c 0.353456,0 2.12395,2.950119 2.58321,4.304531 0.318128,0.938191 0.240128,1.066206 -0.650231,1.066206 -1.004952,0 -2.100409,-0.639861 -2.100409,-1.227297 0,-0.168795 0.331426,-0.3072 0.736164,-0.3072 0.536212,0 0.608919,-0.130116 0.267531,-0.479529 -0.539373,-0.552055 -1.238121,-3.356711 -0.836265,-3.356711 z m 17.808743,0.67359 c 0.89799,-0.07393 1.05911,0.559596 1.06659,2.102441 0.006,1.266212 -0.17091,1.496064 -1.51572,1.971317 -2.57902,0.911406 -4.51242,1.168186 -4.27878,0.567944 0.17312,-0.444777 2.784,-1.918635 4.2141,-2.378918 0.24947,-0.08029 0.30662,-0.280065 0.12669,-0.443566 -0.17995,-0.163497 -1.25764,-0.07666 -2.39453,0.19256 -3.06954,0.726887 -2.96094,0.209839 0.24362,-1.158364 1.19486,-0.510155 1.99924,-0.809059 2.53803,-0.853414 z m -13.521107,0.218036 c 0.423243,-0.02759 0.671974,0.117167 0.826524,0.457802 0.180848,0.398612 -0.115189,0.975855 -0.795523,1.549481 l -1.084307,0.914103 -0.56696,-1.024245 c -0.615874,-1.112296 -0.426649,-1.413717 1.136577,-1.813222 0.18281,-0.04672 0.342607,-0.07473 0.483689,-0.08392 z m 5.750207,0.485523 c 0.39318,-0.01274 0.72065,0.04402 0.89563,0.19556 0.32031,0.277433 0.0415,0.691912 -0.89563,1.331444 -1.87552,1.279828 -2.94818,1.200548 -2.94818,-0.218036 0,-0.60666 1.76868,-1.270705 2.94818,-1.308968 z m -43.315731,0.540971 c -0.997849,0 -1.814271,0.154774 -1.814271,0.343911 0,0.189135 0.705747,0.867958 1.567998,1.508272 0.862246,0.640319 1.335889,1.229047 1.052419,1.308968 -0.296775,0.08367 -0.382721,0.439307 -0.201979,0.837682 0.224189,0.494142 0.60388,0.625883 1.328813,0.461546 0.558261,-0.126555 1.384249,-0.2322 1.83553,-0.235269 0.451282,-0.003 0.694562,-0.177875 0.540386,-0.388868 -0.154177,-0.210993 -0.676292,-0.383625 -1.160494,-0.383625 -0.484202,0 -0.880562,-0.182654 -0.880562,-0.406101 0,-0.223445 0.223533,-0.289793 0.496975,-0.146859 0.30872,0.161384 0.435547,-0.0112 0.334859,-0.456301 -0.107263,-0.474175 -0.69751,-0.798249 -1.744285,-0.95756 -1.421015,-0.216265 -1.478128,-0.26993 -0.561644,-0.524487 1.613953,-0.44828 1.190384,-0.961309 -0.793745,-0.961309 z m -8.623105,0.691571 c 0.48725,-0.02432 1.185998,0.509138 2.953507,2.075468 1.496774,1.32641 3.129618,2.617609 3.628543,2.868941 0.804857,0.405448 0.698023,0.459505 -0.945227,0.47953 -1.01864,0.01243 -1.957258,-0.06699 -2.086234,-0.17608 -0.128977,-0.109091 -1.846571,-0.239922 -3.817238,-0.290714 -3.210834,-0.08275 -3.720091,-0.201744 -4.901544,-1.147876 -0.72512,-0.580692 -1.235385,-1.120643 -1.133921,-1.199574 0.101466,-0.07892 1.306843,-0.53618 2.678887,-1.016005 1.372042,-0.47983 2.800781,-1.110304 3.174975,-1.401126 0.147291,-0.114477 0.285834,-0.184458 0.448252,-0.192564 z m 47.629056,1.226549 c 0.753509,0 0.775059,1.517561 0.02926,2.088205 -0.906242,0.693669 -1.231772,0.738715 -1.607861,0.224029 -0.294697,-0.403734 1.007995,-2.312234 1.578647,-2.312234 z m 5.01494,0.06518 c 0.13079,0.0011 0.23249,0.02505 0.29323,0.07642 0.1814,0.15343 0.11254,0.57297 -0.15326,0.932088 -0.55653,0.751911 -2.65892,1.08218 -3.09436,0.486274 -0.30203,-0.41334 2.03886,-1.503865 2.95439,-1.494788 z m -33.056417,0.711055 c -0.433484,-0.0477 -0.461433,0.465839 0.248043,1.576453 1.765064,2.763038 2.366142,5.742232 1.373993,6.81008 -0.507515,0.546228 -0.447322,0.544693 0.566961,-0.01274 0.999862,-0.549557 1.133941,-0.892306 1.133034,-2.901906 -9.07e-4,-1.798959 -0.23981,-2.574448 -1.133919,-3.681894 -0.914914,-1.133215 -1.754632,-1.742305 -2.188112,-1.789993 z m 41.456287,0.579933 c 0.21128,0.03475 0.19312,0.227112 0.19312,0.528978 0,0.443109 -0.54892,0.975806 -1.35627,1.316461 -2.01158,0.848761 -3.95011,1.132343 -4.31599,0.631633 -0.36309,-0.496901 -0.41812,-0.451465 1.36336,-1.117908 2.77402,-1.037737 3.76363,-1.417076 4.11578,-1.359164 z m -18.435057,0.561948 c 0.600645,0 3.617947,1.669025 3.640943,2.014026 0.02712,0.406404 -0.420847,0.306765 -2.361742,-0.524487 -1.571182,-0.672911 -2.272742,-1.489539 -1.279201,-1.489539 z m -51.577405,0.2038 c 0.59777,0.0082 1.354628,0.428639 3.307856,1.532996 1.744081,0.986102 3.234456,1.935177 3.311399,2.109185 0.07695,0.174012 -0.284029,1.020172 -0.802602,1.879908 -0.518574,0.859733 -1.064384,1.562969 -1.212764,1.562969 -0.148385,0 -0.924162,-0.604208 -1.72391,-1.342685 -1.728026,-1.595642 -2.07029,-1.65902 -2.07029,-0.383623 0,0.860894 -0.182715,0.959059 -1.788581,0.959059 -2.393869,0 -4.274128,-1.341732 -4.372677,-3.119941 -0.03938,-0.710642 -0.149135,-1.542281 -0.243617,-1.84844 -0.131323,-0.425527 0.225766,-0.531733 1.515732,-0.451057 0.964096,0.0603 2.229161,-0.164974 2.951736,-0.525987 0.467399,-0.233524 0.769056,-0.377299 1.127718,-0.372384 z m 62.931662,0.04046 c 0.29838,-0.01028 0.40817,0.140491 0.5519,0.445066 0.4916,1.041724 0.4235,1.228794 -0.44825,1.228794 -0.45125,0 -1.21664,0.253668 -1.70088,0.563449 -0.99927,0.639251 -1.28386,0.694378 -1.7124,0.331922 -0.74443,-0.629635 -0.15447,-1.372476 1.62558,-2.046991 0.89869,-0.34054 1.38566,-0.511943 1.68405,-0.52224 z m -23.192203,0.139363 c -0.625366,0 -0.424662,0.853925 0.376498,1.602679 0.414239,0.387145 0.856681,0.615862 0.983316,0.508754 0.308998,-0.261344 -0.882547,-2.111433 -1.359814,-2.111433 z m 17.822032,1.150872 c 0.218921,0 0.397761,0.258947 0.397761,0.575437 0,0.330753 -0.409621,0.575436 -0.962959,0.575436 -0.80428,0 -0.869493,-0.09468 -0.397747,-0.575436 0.310553,-0.31649 0.744025,-0.575437 0.962945,-0.575437 z m 12.041691,0.701312 c 0.49586,-0.01315 0.80767,0.03629 0.89119,0.150603 0.38607,0.528335 -0.22773,0.883651 -2.75063,1.590694 -2.88157,0.807552 -3.07283,0.792916 -2.89947,-0.222533 0.1196,-0.700536 0.60291,-0.926103 2.76392,-1.290983 0.81898,-0.138286 1.49911,-0.2146 1.99499,-0.227781 z m -16.719112,0.310946 c 0.586476,-0.103379 1.998307,0.292844 2.220002,0.781485 0.135059,0.297677 0.162659,0.611688 0.06112,0.697567 -0.292915,0.247744 -2.332936,-0.720086 -2.517657,-1.194329 -0.06255,-0.160585 0.04105,-0.250262 0.236532,-0.284723 z m 10.751852,0.229277 c 0.052,0.05552 0.20967,1.093778 0.35081,2.306989 0.1813,1.558223 0.10006,2.207246 -0.27727,2.211083 -0.29381,0.003 -0.94757,0.09945 -1.45284,0.214293 -1.77959,0.404451 -2.1726,-0.813916 -0.44205,-1.370409 0.62365,-0.200548 1.13392,-0.541294 1.13392,-0.757508 0,-0.502836 -0.72821,-0.502644 -1.84439,0.0038 -0.75957,0.343822 -0.87701,0.267382 -0.87701,-0.570193 0,-0.750744 0.37147,-1.098764 1.65747,-1.553228 0.91142,-0.322091 1.69938,-0.540293 1.75136,-0.484775 z m 37.28825,0.75376 c -0.19314,0.03809 -0.32954,0.215489 -0.32954,0.466046 0,0.334071 0.32346,0.607653 0.71844,0.607653 0.80097,0 0.66119,-0.8261 -0.17984,-1.063206 -0.074,-0.02088 -0.14467,-0.02302 -0.20906,-0.01051 z m -42.64601,0.08541 c 0.33656,0.05657 0.58822,0.270481 0.58822,0.613649 0,0.191118 -0.39588,0.526532 -0.87968,0.74552 -1.162928,0.526405 -1.7529,-0.227224 -0.805251,-1.028743 0.33846,-0.286279 0.760151,-0.386996 1.096711,-0.330426 z m -7.147241,0.198556 c 0.619746,-0.131196 1.542004,0.847338 2.693059,2.865941 1.298234,2.276709 1.575977,2.527273 2.794933,2.527273 0.744198,0 1.764699,-0.215788 2.267839,-0.47953 0.7469,-0.391508 0.9875,-0.38036 1.31199,0.06069 0.33783,0.459194 0.63534,0.444811 1.98258,-0.09591 0.87171,-0.349865 1.78539,-0.636125 2.03043,-0.636125 0.5288,0 0.98595,1.710902 0.59619,2.231315 -0.27589,0.368387 -6.86995,0.521496 -8.322797,0.193309 -0.436559,-0.09862 -0.793739,-0.339454 -0.793739,-0.534976 0,-0.195525 -0.56129,-0.358125 -1.247312,-0.361143 -0.686021,-0.003 -1.483634,-0.132942 -1.772634,-0.288471 -0.579959,-0.312124 -2.15882,-5.044109 -1.787697,-5.358001 0.07595,-0.06424 0.158626,-0.105635 0.247158,-0.124375 z m -42.374936,0.02248 c 1.353837,0 1.499179,1.066521 0.43851,3.2136 -0.377541,0.76424 -0.734726,1.384308 -0.793743,1.377901 -1.005125,-0.109271 -1.663098,-0.94413 -1.442206,-1.830454 0.141821,-0.569065 0.351253,-1.423159 0.465084,-1.897893 0.147737,-0.616143 0.529105,-0.863154 1.332355,-0.863154 z m 39.744773,0.03896 c 0.546613,-0.05422 0.861593,0.06326 1.063939,0.340167 0.250501,0.342818 1.59103,4.402585 1.59103,4.81853 0,0.332563 -1.169353,0.09624 -6.009775,-1.21531 -2.68172,-0.726634 -4.875855,-1.488305 -4.875855,-1.692592 0,-0.204291 0.05102,-0.377893 0.113392,-0.385872 0.06237,-0.008 0.910574,-0.112325 1.885141,-0.231521 0.974568,-0.119215 2.675847,-0.544512 3.780027,-0.944828 1.127719,-0.408851 1.905488,-0.634349 2.452101,-0.688574 z m 21.376154,0.768747 c 0.5252,-0.02094 0.78151,0.171481 0.96206,0.569441 0.40572,0.894224 0.0285,1.191367 -1.87539,1.476803 -0.93824,0.140668 -2.03888,0.338533 -2.4459,0.43907 -0.41065,0.10143 -0.86251,-0.08573 -1.01433,-0.420337 -0.20129,-0.44367 0.27403,-0.80204 1.79833,-1.354673 1.25566,-0.455236 2.05005,-0.689357 2.57523,-0.710304 z m 31.65143,0.343164 c -0.61249,0 -1.03702,0.699059 -0.7025,1.156864 0.15669,0.214435 0.4747,0.29073 0.70693,0.169336 0.55089,-0.287975 0.5482,-1.3262 -0.004,-1.3262 z m -46.279872,0.383624 c 0.259404,0 0.591983,0.266331 0.739707,0.59192 0.40821,0.899741 -0.0324,1.005664 -0.65821,0.158096 -0.350404,-0.47457 -0.380018,-0.750016 -0.0815,-0.750016 z m -19.274868,0.02846 c 0.401022,0.07294 0.911327,0.330381 1.348304,0.738776 0.451522,0.421986 1.182396,0.767248 1.623809,0.767248 0.441412,0 2.329883,0.517693 4.197272,1.150124 2.85838,0.968053 6.058746,1.712955 12.435027,2.895162 0.56129,0.104065 1.020532,0.358723 1.020532,0.565695 0,0.448196 0.284529,0.473565 -4.625159,-0.411344 -6.598651,-1.189216 -16.692537,-4.417022 -16.692537,-5.337765 0,-0.328912 0.291735,-0.440827 0.692752,-0.367888 z m 23.03009,0.448062 c 0.091,0.01 0.16835,0.03748 0.22589,0.08617 0.15691,0.13271 0.0663,0.535505 -0.20109,0.894623 -0.64111,0.861101 -1.976381,1.071174 -1.976381,0.310946 0,-0.563709 1.314541,-1.361881 1.951581,-1.291735 z m -48.780695,1.113407 c 0.393742,-0.08735 1.149613,0.271579 2.379458,1.095427 0.944913,0.63298 1.9951,1.153635 2.333394,1.156865 0.338297,0.003 0.920956,0.173099 1.295149,0.377632 0.709208,0.387648 -0.401671,0.416953 -4.308895,0.113891 -2.633334,-0.2043 -3.2165,-0.424182 -2.57081,-0.970302 0.291177,-0.246274 0.529754,-0.758347 0.529754,-1.138136 0,-0.369487 0.1057,-0.582966 0.34195,-0.635377 z m 24.652123,0.14236 c 0.25549,0.0171 0.606742,0.136332 1.121515,0.363395 0.729029,0.321546 1.538089,0.586273 1.798329,0.587424 0.260243,0.0011 0.668454,0.551686 0.907135,1.22355 0.548445,1.543788 1.843064,2.058313 1.397025,0.555208 -0.348616,-1.174802 -0.234448,-1.206234 1.553825,-0.424085 0.735823,0.32183 3.124302,0.986678 5.307275,1.477551 3.915093,0.880368 3.96666,0.907582 3.809263,2.004287 -0.08776,0.6115 -0.342898,1.402411 -0.56696,1.757778 -0.224068,0.355365 -0.401267,1.21852 -0.39333,1.91812 0.01302,1.146112 0.07447,1.205312 0.622771,0.594168 0.334693,-0.373047 0.849193,-1.710936 1.142778,-2.973087 0.293586,-1.262043 0.710818,-2.294992 0.92751,-2.294992 1.220556,0 3.150633,1.431762 3.391129,2.516032 0.334739,1.509147 -0.499756,6.665469 -1.360705,8.408263 -0.360645,0.73004 -0.655545,1.643062 -0.655545,2.029762 0,0.386698 -0.255133,1.168148 -0.566961,1.73605 -0.311828,0.567901 -0.669013,1.009253 -0.793744,0.980788 -1.468271,-0.335064 -5.898024,-1.731745 -6.136456,-1.934605 -0.171712,-0.1461 0.07685,-0.750307 0.552786,-1.342685 1.029926,-1.281906 1.959445,-3.041524 1.945385,-3.684141 -0.01179,-0.538766 -1.778231,1.270582 -1.796556,1.840199 -0.0068,0.210993 -0.48812,0.886513 -1.06925,1.500779 -1.045364,1.104996 -2.113698,1.117456 -2.113698,0.02473 0,-0.296614 -0.408212,-0.724228 -0.907137,-0.950068 -0.498924,-0.22584 -0.907135,-0.663481 -0.907135,-0.972548 0,-0.309048 -0.226839,-0.561948 -0.504064,-0.561948 -0.333944,0 -0.399761,0.470764 -0.194894,1.394385 0.275516,1.24216 0.219246,1.364701 -0.516463,1.125396 -0.454136,-0.147718 -2.101295,-0.617386 -3.660435,-1.043726 -2.092825,-0.572276 -2.834798,-0.956993 -2.834798,-1.468563 0,-0.381116 0.276957,-0.78244 0.615681,-0.892375 0.338725,-0.109939 0.737039,-0.711757 0.884989,-1.337441 0.147953,-0.625679 0.585361,-1.405448 0.971805,-1.732301 0.386445,-0.326847 0.7025,-0.696104 0.7025,-0.821197 0,-0.76729 2.635936,-3.365757 4.337243,-4.27531 2.63972,-1.41125 2.563048,-1.862622 -0.163003,-0.953816 l -2.176591,0.725291 -0.632514,-1.210066 c -0.987649,-1.888834 -2.493277,-3.077889 -3.590452,-2.835224 -1.078087,0.238453 -1.506504,-0.106651 -0.997496,-0.803208 0.134173,-0.183623 0.293753,-0.26886 0.549243,-0.251758 z m 35.675072,0.185827 c 0.3092,0 0.56253,0.252137 0.56253,0.560451 0,0.343609 -0.90968,0.789046 -2.35023,1.150873 -2.82096,0.70855 -2.63951,0.70105 -2.63725,0.110891 0.002,-0.465978 3.29495,-1.822215 4.42495,-1.822215 z m 30.498,0 c -0.24946,0 -0.45356,0.258946 -0.45356,0.575436 0,0.31649 0.2041,0.575437 0.45356,0.575437 0.24947,0 0.45358,-0.258947 0.45358,-0.575437 0,-0.31649 -0.20411,-0.575436 -0.45358,-0.575436 z m -27.54184,0.830189 c 0.32349,-0.05327 0.32777,0.111024 0.32777,0.440569 0,1.145885 -3.98249,2.90179 -9.19715,4.055026 -1.94012,0.42906 -3.69794,0.868379 -3.90583,0.977044 -0.5196,0.27161 -0.95763,-0.161667 -0.95763,-0.947072 0,-0.470031 0.52717,-0.725498 1.87186,-0.907363 2.4652,-0.333416 6.88624,-1.599367 9.61794,-2.754299 1.27676,-0.539793 1.91953,-0.810632 2.24304,-0.863905 z m -37.56464,1.086444 c 0.0749,-0.02736 0.126536,0.0019 0.149714,0.09741 0.08965,0.369216 -0.140566,1.185679 -0.511149,1.813975 -0.370578,0.628292 -0.560283,1.50879 -0.421677,1.957081 0.145509,0.470618 -0.0027,0.947947 -0.350807,1.129892 -0.49708,0.259852 -0.498304,0.42148 -0.0088,0.920099 0.326333,0.332572 0.410198,0.604657 0.186919,0.604657 -0.437997,0 -1.517996,1.628869 -2.607131,3.932148 -0.644333,1.362625 -1.153241,1.717454 -1.745169,1.216809 -0.14434,-0.122076 0.09746,-1.0284 0.536837,-2.014026 0.439381,-0.985634 1.134315,-2.674551 1.544082,-3.753075 1.037935,-2.73188 2.702938,-5.713633 3.22724,-5.904965 z m 65.10648,0.0015 c -0.24946,0 -0.45356,0.17263 -0.45356,0.383624 0,0.210993 0.2041,0.383624 0.45356,0.383624 0.24947,0 0.45358,-0.172631 0.45358,-0.383624 0,-0.210994 -0.20411,-0.383624 -0.45358,-0.383624 z m -63.832594,0.903615 c 0.100186,-0.03522 0.284178,0.05373 0.559876,0.247257 0.374193,0.262664 0.680352,0.801928 0.680352,1.198077 0,1.001846 -0.743176,0.902783 -1.074566,-0.143111 -0.26609,-0.839795 -0.332629,-1.24351 -0.165662,-1.302223 z m 63.705924,0.630881 c -0.42953,0 -0.3575,5.50084 0.39066,29.922683 0.13898,4.53635 0.33359,8.46371 0.4332,8.72745 0.38255,1.01293 0.54233,0.40785 0.32423,-1.22879 -0.2097,-1.57357 -0.13474,-2.35134 0.34549,-2.57898 -0.0396,-0.10369 -0.0467,-0.12353 -0.0221,-0.30571 0.006,-0.0423 0.0385,-0.0799 0.0452,-0.12212 0.003,-0.0192 -0.0142,0.0613 -0.0336,0.051 -0.0226,-0.0121 9e-4,-0.0455 9e-4,-0.0682 -4.5e-4,-0.0411 -0.002,-0.0825 -0.003,-0.12362 -0.0304,-0.18727 0.033,-0.34306 0.12758,-0.50126 -3.3e-4,-0.002 -2.4e-4,-0.003 -9.2e-4,-0.004 -0.35167,-0.4841 -0.38812,-1.75125 -0.47304,-5.72963 -0.10985,-5.14521 -0.0391,-5.84847 0.56695,-5.64122 0.0715,0.0245 0.17271,0.0594 0.25779,0.0884 0.009,-0.0238 0.025,-0.10396 0.0522,-0.35215 0.005,-0.0449 -0.0215,0.0878 -0.039,0.13037 -0.008,0.0207 0.0102,-0.0425 0.0115,-0.0644 0.0102,-0.12944 4.4e-4,-0.26604 -0.0102,-0.39787 -0.0667,-0.18935 -0.0618,-0.32659 -0.0523,-0.47953 -0.006,-0.0457 -0.009,-0.0729 -0.015,-0.11914 -0.31549,-0.54181 -0.39626,-1.841383 -0.57848,-5.405951 -0.6678,-13.085592 -0.89615,-15.797332 -1.32806,-15.797332 z M 17.937717,80.306952 c 0.310594,-0.01818 0.804633,0.362828 1.226937,1.048975 0.357115,0.580231 1.18419,1.572858 1.838191,2.205839 0.924586,0.894868 1.160915,1.485419 1.063049,2.655399 -0.239991,2.869049 -2.217386,1.696444 -2.86049,-1.69634 -0.179973,-0.949469 -0.607619,-2.066882 -0.950544,-2.483068 -0.342924,-0.416182 -0.623656,-0.977233 -0.623656,-1.246779 0,-0.318327 0.120157,-0.473081 0.306513,-0.484026 z m 60.623959,0.07193 c 0.102896,0.02632 0.259458,0.415803 0.473057,1.168856 0.177635,0.626283 0.111387,1.054967 -0.163003,1.054967 -0.254216,0 -0.462426,-0.546415 -0.462426,-1.214562 0,-0.698437 0.04947,-1.035566 0.152372,-1.009261 z m 21.205183,1.456575 c 0.425851,0 1.546881,2.737653 2.906551,7.097046 0.65808,2.109933 1.52524,4.050461 1.92678,4.312023 0.92923,0.605283 0.98497,0.577078 -3.14131,1.568214 -1.916451,0.460349 -3.837918,0.95222 -4.269914,1.092431 -0.494317,0.160389 -0.676515,0.105082 -0.490775,-0.149104 0.162369,-0.222202 1.726649,-0.801375 3.476169,-1.28649 1.74953,-0.485113 3.18118,-1.022566 3.18118,-1.195078 0,-0.500127 -0.98556,-0.354246 -3.11119,0.461546 -1.087462,0.417353 -2.056958,0.759008 -2.154452,0.759008 -0.402698,0 -0.132878,-1.261229 0.486343,-2.27402 0.450496,-0.736824 0.700888,-2.577689 0.781348,-5.735634 0.0652,-2.557656 0.24954,-4.649942 0.40927,-4.649942 z M 88.59155,83.576002 c -0.0967,-0.027 -0.17847,-0.0277 -0.240073,0.0045 -0.627539,0.328028 -0.512778,0.734321 0.522668,1.847687 1.025935,1.103134 1.781492,1.309627 1.781492,0.487026 0,-0.662319 -1.387233,-2.150179 -2.064087,-2.33921 z m -1.397026,1.786997 c -0.178673,-0.04125 -0.28015,0.128234 -0.441167,0.477283 -0.219314,0.475421 -0.139118,0.801955 0.221473,0.903615 0.310467,0.08753 0.749951,0.572843 0.977116,1.078195 0.503466,1.12001 1.149305,1.17425 1.796556,0.151351 0.3649,-0.576683 0.344715,-0.767249 -0.08061,-0.767249 -0.311233,0 -1.016555,-0.474734 -1.568003,-1.054966 -0.470238,-0.494781 -0.72669,-0.746979 -0.905364,-0.788231 z m -47.856728,1.201074 c -0.179379,0.01627 -0.338691,0.06727 -0.434079,0.149855 -0.603717,0.522657 -0.825143,6.75516 -0.41459,11.672811 0.217654,2.607081 0.51317,7.329321 0.656433,10.494221 0.143263,3.1649 0.388453,7.78938 0.544814,10.27693 0.188014,2.99115 0.450991,4.47584 0.776911,4.38396 0.330945,-0.0933 0.445988,-1.76764 0.349036,-5.09802 -0.0794,-2.72761 -0.175423,-10.95569 -0.21261,-18.28433 -0.05635,-11.105591 -0.174726,-13.360027 -0.710473,-13.535486 -0.176771,-0.0579 -0.376065,-0.07621 -0.555442,-0.05994 z m -7.345675,0.380628 c 0.04336,0.0653 -0.176098,0.342599 -0.672378,0.932087 -0.5291,0.628465 -0.831967,1.251916 -0.673266,1.386142 0.158702,0.13423 -0.2044,1.101178 -0.807032,2.148145 -1.137173,1.975645 -1.754336,2.303913 -2.637249,1.404122 -0.992997,-1.011981 1.570278,-4.466854 4.21765,-5.68468 0.197643,-0.09092 0.34544,-0.155349 0.442051,-0.184316 0.07246,-0.02171 0.115769,-0.02279 0.130224,-0.0015 z m 53.578594,0.119883 c -0.676165,0.353451 -0.355108,0.987003 1.072796,2.115176 0.968323,0.76507 1.579646,1.004655 1.891342,0.741024 0.513131,-0.434002 -2.339458,-3.182737 -2.964138,-2.8562 z m 6.168347,0.286969 c -0.05421,-7.67e-4 -0.113924,0.01385 -0.176289,0.04646 -0.249462,0.130401 -0.453568,0.495715 -0.453568,0.812205 0,0.316478 0.204106,0.469068 0.453568,0.338667 0.249463,-0.130402 0.453568,-0.495716 0.453568,-0.812205 0,-0.237356 -0.11463,-0.382474 -0.277279,-0.385121 z m -7.395285,1.560721 c -0.696213,0.363929 -0.61047,0.979289 0.136429,0.979289 0.3455,0 0.962698,0.431577 1.371331,0.959061 0.701116,0.90503 1.650842,1.300969 1.61052,0.671342 -0.04182,-0.652557 -2.664035,-2.84714 -3.11828,-2.609692 z m -8.763956,0.328928 c 0.06826,0.05434 0.08799,0.293791 0.0939,0.746267 0.01442,1.103203 -0.194553,1.316127 -0.663519,0.674339 -0.152953,-0.209321 -0.06934,-0.684055 0.186035,-1.054966 0.199148,-0.289242 0.315321,-0.419981 0.383584,-0.36564 z m -3.823438,2.070967 c 1.028843,-0.333922 15.270711,3.197036 15.270711,3.786045 0,0.43224 -7.844248,-1.158307 -10.210594,-2.070224 -0.600587,-0.231448 -2.120479,-0.536261 -3.377838,-0.677335 -2.240544,-0.251385 -2.88442,-0.648316 -1.682279,-1.038486 z M 54.541177,96.90844 c 0.481784,-0.407493 3.49729,2.729647 3.361895,3.49757 -0.252011,1.42937 -1.152742,1.00446 -2.384773,-1.125393 -0.68355,-1.181678 -1.122943,-2.24884 -0.977122,-2.372175 z m 28.564152,0.714797 c 0.151328,0.209095 1.58253,4.269413 1.804524,5.119743 0.110171,0.42198 0.34737,1.06935 0.527096,1.43858 0.286233,0.58807 0.03769,0.67135 -2.001192,0.67135 -2.081178,0 -2.374618,-0.10393 -2.770129,-0.98379 -0.856133,-1.90455 -0.512491,-3.72173 0.963831,-5.095013 0.758833,-0.705866 1.423115,-1.223759 1.47587,-1.15087 z M 19.17617,98.047322 c 0.229343,-0.193975 2.721435,0.682245 2.9916,1.051965 0.135304,0.18517 0.296506,2.893333 0.357894,6.018113 0.06138,3.12478 0.235621,7.1922 0.388012,9.03839 0.15239,1.84619 0.148947,3.35671 -0.0079,3.35671 -0.156908,0 -0.2976,-0.0431 -0.312714,-0.096 -0.01511,-0.0527 -0.308634,-1.7359 -0.652004,-3.74034 -0.34337,-2.00444 -0.950788,-5.28442 -1.350073,-7.28886 -1.172149,-5.88427 -1.567193,-8.211134 -1.414742,-8.340078 z m 34.583668,0.456301 c 0.06587,-0.0059 0.13472,0.0077 0.204637,0.04421 0.223323,0.116737 0.40573,0.719904 0.40573,1.340434 0,1.257493 -0.699561,1.518303 -1.113546,0.415093 -0.285683,-0.761303 0.04204,-1.758266 0.503179,-1.799733 z m -4.620722,0.0015 c 0.485105,0.0038 1.148978,0.311224 1.148978,0.634634 0,0.18842 -0.408211,0.34241 -0.907136,0.34241 -0.88409,0 -1.182048,-0.4066 -0.636056,-0.868397 0.09084,-0.07684 0.232512,-0.109874 0.394214,-0.108647 z m 19.908265,0.319944 c 0.947522,0.26714 1.756133,3.342263 1.440433,5.479383 -0.307991,2.08494 -0.871236,2.5494 -1.966644,1.62291 -0.299355,-0.25319 -0.543928,-0.78373 -0.543928,-1.17859 0,-0.39486 -0.306158,-0.97675 -0.680352,-1.29324 -0.764738,-0.64735 -0.932037,-2.82252 -0.217041,-2.82252 0.25481,0 0.697996,-0.43585 0.985095,-0.968803 0.2871,-0.53295 0.729187,-0.91058 0.982437,-0.83918 z m -36.096743,0.10115 c 0.218223,-0.002 0.133094,0.27879 -0.446481,0.84143 -0.381689,0.370533 -0.886278,1.180683 -1.121517,1.800493 -0.235241,0.61979 -0.69883,1.20352 -1.030273,1.29697 -0.987039,0.27827 -0.128959,-1.88735 1.225165,-3.091473 0.633139,-0.56301 1.154882,-0.84592 1.373106,-0.84742 z m -5.781219,0.39561 c 0.245352,-0.0381 0.541816,-0.0286 0.833608,0.036 0.808046,0.17872 0.975705,0.41166 0.751223,1.040733 -0.159041,0.44568 -0.609486,1.93205 -1.00104,3.30352 -0.391555,1.37145 -0.857151,4.04723 -1.034702,5.94617 -0.352063,3.76536 -0.416492,3.71479 -0.737047,-0.57544 -0.237389,-3.17713 0.152158,-8.81236 0.657319,-9.503693 0.09051,-0.12385 0.285286,-0.20918 0.530639,-0.24725 z m 7.710655,0.54397 c 0.207494,0 0.400761,3.841033 0.429648,8.535643 0.02889,4.6946 0.218412,9.74405 0.420791,11.22101 0.202379,1.47695 0.326165,2.73046 0.275507,2.78576 -0.05066,0.0553 -1.045729,-0.60999 -2.212029,-1.4783 -1.741794,-1.29677 -2.335953,-1.5331 -3.324688,-1.3232 -1.060002,0.22502 -1.132877,0.18365 -0.608597,-0.35066 0.49939,-0.50893 0.459418,-0.73453 -0.249816,-1.39738 -0.727197,-0.67963 -0.845651,-1.44352 -0.847782,-5.45915 -0.003,-5.74085 0.366503,-7.4495 1.724798,-7.97294 0.558055,-0.21505 1.210051,-0.69265 1.449291,-1.06096 1.15188,-1.77385 2.603753,-3.499863 2.942877,-3.499863 z m 52.345456,1.709823 c 0.176782,-0.0192 0.508958,0.11409 1.130377,0.38588 0.730707,0.31959 1.458385,0.92812 1.617605,1.35242 0.159221,0.4243 0.446996,0.77174 0.639603,0.77174 0.192612,0 0.595,0.45376 0.893846,1.00851 0.710523,1.31895 0.523423,1.41041 -1.139235,0.55521 -1.735668,-0.8933 -3.340632,-2.59506 -3.340632,-3.54331 0,-0.33929 0.02164,-0.51128 0.198436,-0.5305 z m 30.20479,5.579 c -0.2573,0 -0.46774,0.34906 -0.46774,0.77549 0,0.6647 1.45195,5.52736 2.17394,7.28062 0.13032,0.31649 0.19951,0.77631 0.15413,1.02199 -0.0765,0.41408 2.3941,1.31169 4.00327,1.45433 3.91368,0.34693 6.15907,0.79911 6.84516,1.3794 0.4461,0.37732 1.28705,0.77038 1.86831,0.8729 1.36488,0.24071 4.57344,-0.0692 5.07163,-0.49002 0.48184,-0.40697 -0.5932,-0.68167 -3.757,-0.95982 -2.72276,-0.23937 -3.83035,-0.88049 -4.95558,-2.86743 -0.40958,-0.72325 -1.02022,-1.39042 -1.35627,-1.48281 -0.48217,-0.13254 -0.50607,-0.002 -0.1134,0.61815 0.73685,1.16449 0.60535,1.98781 -0.31802,1.98781 -1.07968,0 -1.98079,-2.14379 -1.84351,-4.38696 0.11234,-1.83546 -0.14538,-2.37343 -0.93902,-1.95858 -0.61681,0.32243 -0.63684,4.6857 -0.0231,5.0066 0.50927,0.2662 0.17315,0.95531 -0.46596,0.95531 -0.22273,0 -1.10672,-0.61182 -1.96487,-1.35916 -1.44907,-1.26198 -2.52078,-3.47797 -2.84987,-5.89299 -0.17983,-1.32008 -0.52487,-1.95483 -1.06216,-1.95483 z m -59.407655,1.93461 c -0.367967,-0.0332 -0.554959,0.41118 -0.282591,1.0115 0.26057,0.57433 0.369567,0.59163 0.717558,0.11539 0.247489,-0.33867 0.240744,-0.70519 -0.01683,-0.92309 -0.15252,-0.12901 -0.295476,-0.19275 -0.418135,-0.2038 z m 36.299606,3.62794 -0.68301,0.95906 c -0.375753,0.52748 -0.690992,1.12276 -0.699837,1.3232 -0.02903,0.65873 0.77654,-0.32257 1.086082,-1.3232 z m 35.351719,0.57544 c -0.76176,0 -0.76621,0.0949 -0.0726,1.72631 0.70019,1.64687 1.87078,2.2802 2.53449,1.3719 0.42038,-0.5753 -1.58439,-3.09821 -2.46185,-3.09821 z m -74.467519,0.0352 c -0.278314,0.0586 -0.565554,0.30421 -0.836266,0.73204 -0.368579,0.58247 -0.345106,0.76571 0.09744,0.76125 0.970917,-0.0101 1.852431,-0.64866 1.52105,-1.10217 -0.234862,-0.32141 -0.503915,-0.44969 -0.782227,-0.39112 z m -28.830796,0.49377 c 0.04769,-0.0403 0.11098,0.0133 0.183376,0.16634 0.131021,0.27691 0.114407,0.60755 -0.03632,0.73503 -0.150718,0.12748 -0.257995,-0.0991 -0.238301,-0.50351 0.01088,-0.22346 0.04356,-0.35753 0.09125,-0.39786 z m 120.348755,0.48251 c 0.0186,0.0956 0.035,0.19156 0.0496,0.28772 0.0468,-0.0458 0.062,-0.11362 0.016,-0.23077 -0.007,-0.0186 -0.0534,-0.0379 -0.0655,-0.057 z m -119.940367,1.48205 0.436737,1.282 c 0.460608,1.35308 0.367651,2.21708 -0.187806,1.74729 -0.1819,-0.15386 -0.312178,-0.89831 -0.289681,-1.65438 z m 25.201368,2.65092 c -0.114163,-0.0966 -0.465787,0.0875 -0.781344,0.40909 -0.357751,0.36459 -0.392004,0.58442 -0.09125,0.58442 0.54816,0 1.187133,-0.72748 0.872588,-0.99352 z m -32.966946,0.6099 c 0.484202,0 0.880559,0.17263 0.880559,0.38362 0,0.21099 -0.522117,0.38363 -1.160496,0.38363 -0.658293,0 -1.039545,-0.16605 -0.880559,-0.38363 0.154176,-0.21099 0.676294,-0.38362 1.160496,-0.38362 z m 125.409755,1.37565 c -0.0689,-0.088 -0.11953,0.32668 -0.12225,1.1179 -0.003,1.05496 0.0819,1.53205 0.18957,1.06022 0.10764,-0.47183 0.11035,-1.335 0.006,-1.91813 -0.0261,-0.14578 -0.0506,-0.23066 -0.0735,-0.25999 z m -81.218777,0.9778 c 0.775398,0.11559 2.051057,1.12427 2.912759,2.53775 0.460508,0.75539 0.413513,0.86317 -0.378271,0.86317 -1.089951,0 -3.209524,-1.83428 -3.209524,-2.77753 0,-0.36335 0.141836,-0.55971 0.375609,-0.61665 0.08767,-0.0214 0.188657,-0.0233 0.299427,-0.007 z m -41.718502,1.00102 c 0.249899,-0.0158 0.497934,0.17336 0.589993,0.57767 0.09561,0.41992 -0.127266,0.67135 -0.594422,0.67135 -0.435755,0 -0.686185,-0.24812 -0.600623,-0.59567 0.102568,-0.41664 0.355153,-0.63753 0.605052,-0.65335 z m 4.290292,0.55895 c 0.140617,0.004 0.334214,0.0506 0.584677,0.13187 0.740015,0.24017 1.360117,1.62312 0.968261,2.15938 -0.456693,0.625 -1.00462,0.29667 -1.496242,-0.89612 -0.423512,-1.02754 -0.478545,-1.40675 -0.0567,-1.39513 z m 118.522077,1.21905 c -0.0476,0.0403 -0.0803,0.1744 -0.0912,0.39786 -0.0197,0.4044 0.0876,0.63099 0.23831,0.50351 0.15069,-0.12748 0.16716,-0.4581 0.0364,-0.73503 -0.0724,-0.15302 -0.13569,-0.20667 -0.18337,-0.16634 z m -10.87057,0.2068 c -0.78247,-0.0387 -2.02165,0.0233 -4.22385,0.16034 -3.14889,0.19591 -3.17498,0.20476 -3.17498,1.05272 0,0.68678 0.18924,0.76234 1.36071,0.5447 1.08516,-0.20159 1.3607,-0.1239 1.3607,0.38363 0,0.50753 -0.27554,0.58523 -1.3607,0.38363 -1.04998,-0.19506 -1.36071,-0.11875 -1.36071,0.33492 0,0.51436 1.45088,1.2753 3.62855,1.90238 0.37419,0.10775 2.00704,0.20299 3.62854,0.21205 l 2.9482,0.0165 -1.24731,-0.8639 c -1.92171,-1.33078 -1.63872,-1.93114 0.80082,-1.69858 1.12653,0.1074 2.16456,0.0366 2.30682,-0.1581 0.39104,-0.53515 -0.76047,-1.51498 -1.63355,-1.38988 -0.42241,0.0606 -1.11848,-0.13634 -1.54763,-0.43757 -0.37697,-0.26461 -0.70314,-0.4041 -1.48561,-0.44282 z m -76.645002,0.0419 c -0.335372,-0.007 -0.603282,0.0965 -0.603282,0.31469 0,0.17874 0.459238,0.52428 1.020529,0.768 0.930721,0.40412 0.894277,0.42387 -0.418136,0.22628 -1.283484,-0.19323 -1.413231,-0.131 -1.195042,0.57469 0.329698,1.06653 -1.140089,1.06628 -2.743556,-7.7e-4 -1.48025,-0.98454 -2.106609,-0.69276 -2.106609,0.98231 0,1.17436 0.138075,1.31034 1.474095,1.45057 v -7.7e-4 c 0.810753,0.0851 1.678201,0.17731 1.927664,0.20455 1.029626,0.11247 7.348689,-0.7209 8.504398,-1.12165 1.570828,-0.54468 1.602936,-1.58877 0.07442,-2.43586 -1.468081,-0.81359 -1.972068,-0.47065 -0.849551,0.57844 0.842066,0.78697 0.838384,0.78705 -1.401457,-0.0217 -1.235006,-0.44606 -2.439238,-0.97278 -2.676228,-1.17036 -0.268675,-0.22399 -0.671865,-0.34127 -1.007238,-0.34841 z m 74.916662,0.58069 c 0.63411,-0.0527 1.5866,0.33276 1.5866,0.79647 0,0.29188 -0.39635,0.53047 -0.88056,0.53047 -0.97134,0 -1.58239,-0.57389 -1.18707,-1.1149 0.0937,-0.12811 0.26966,-0.19448 0.48103,-0.21204 z m 12.6937,1.01 c -0.17293,-0.1422 -0.24297,2.97788 -0.15503,6.93221 l 0.16034,7.18996 1.24731,0.003 c 0.0739,1.3e-4 0.12572,-0.0166 0.18959,-0.024 0.005,-0.0233 0.0133,-0.0536 0.0283,-0.1049 0.0667,-0.22793 0.14969,-0.45067 0.24627,-0.67059 -0.50357,-0.17085 -0.64046,-1.54 -1.22959,-10.44852 -0.0953,-1.44023 -0.31426,-2.73495 -0.48723,-2.87718 z m -13.88432,0.70057 c 0.21892,0 0.63717,0.24327 0.92928,0.54097 0.5772,0.58822 0.14829,0.99338 -0.76007,0.71779 -0.63978,-0.19411 -0.78294,-1.25877 -0.16921,-1.25876 z m -90.459332,1.72556 c -0.159369,-0.0221 -0.291199,0.009 -0.357008,0.0989 -0.131617,0.18011 -0.374704,2.29558 -0.540384,4.7009 -0.353025,5.12518 -0.69413,6.15568 -1.946266,5.87872 -0.484463,-0.10714 -1.009217,-0.0195 -1.165811,0.19482 -0.332263,0.45471 3.503556,0.55496 7.779753,0.2038 3.243585,-0.26637 3.662501,-0.70064 1.020527,-1.05797 -1.772947,-0.23978 -1.814272,-0.28076 -1.814272,-1.81097 0,-1.24325 -0.186904,-1.60747 -0.907136,-1.76678 -0.802065,-0.1774 -0.907135,-0.52298 -0.907135,-2.98582 0,-1.92985 -0.19621,-2.92334 -0.639602,-3.23457 -0.175992,-0.12353 -0.363298,-0.19897 -0.522666,-0.22103 z m -11.928304,1.66637 c -0.04152,-0.002 -0.0629,0.0145 -0.0629,0.0487 0,0.5818 1.832777,3.21278 2.3706,3.40316 0.202429,0.0717 1.430237,0.80535 2.728495,1.63041 2.61583,1.6624 3.518694,1.86136 3.518694,0.77474 0,-0.46561 -0.432119,-0.81807 -1.205674,-0.98229 -0.663086,-0.14076 -2.602088,-1.39584 -4.308896,-2.78951 -1.493456,-1.21948 -2.749692,-2.07392 -3.040322,-2.08521 z m 89.654066,1.46332 c -0.0947,0.006 -0.18684,0.0315 -0.27373,0.0779 -0.47162,0.25198 -0.48019,0.51992 -0.0407,1.33519 0.62477,1.15976 1.76466,1.37094 1.76466,0.32668 0,-0.91118 -0.78757,-1.78451 -1.45018,-1.73979 z m -28.017554,0.51549 c -1.116077,0 -1.15312,0.31597 -0.176289,1.49554 0.66884,0.80764 0.788465,0.83366 1.17201,0.25399 0.592243,-0.89508 0.105664,-1.74953 -0.995721,-1.74953 z m -5.054801,0.85416 c -0.133599,0.004 -0.230839,0.0237 -0.277281,0.0629 -0.130464,0.11027 -0.129833,0.43808 0.0027,0.72829 0.272086,0.5997 3.954546,0.86484 3.954546,0.28473 0,-0.35816 -2.744726,-1.10519 -3.679924,-1.07595 z m 26.886305,0.31545 c 0.46622,-0.006 0.86637,0.10079 1.02761,0.32142 0.46779,0.64019 -0.82338,1.12284 -1.99853,0.74703 -0.91555,-0.2928 -0.99933,-0.42515 -0.45357,-0.71705 0.42584,-0.22777 0.95827,-0.34577 1.42449,-0.3514 z m -93.745936,1.59593 c -0.261322,-0.0161 -0.468985,0.006 -0.558101,0.0809 -0.188667,0.15957 0.624124,2.33646 1.061278,2.84271 0.06031,0.0699 0.526658,-0.0615 1.036473,-0.29221 0.760385,-0.34419 1.01199,-0.28532 1.399683,0.32743 0.785784,1.24183 0.593409,1.58446 -0.661749,1.18083 -0.875305,-0.28146 -1.13392,-0.24207 -1.13392,0.17309 0,0.29579 0.357185,0.60452 0.793744,0.68632 0.43656,0.0819 2.175272,0.13796 3.8633,0.12437 2.570263,-0.0207 2.943107,-0.10266 2.294416,-0.50424 -0.426031,-0.26375 -1.207132,-0.47954 -1.735429,-0.47954 -0.988356,0 -3.08007,-1.08639 -2.267839,-1.17784 1.579552,-0.17785 3.862905,0.21912 5.645681,0.98153 2.297959,0.98274 5.72613,1.54034 6.124051,0.99578 0.141965,-0.19427 -0.407806,-0.46951 -1.220735,-0.61141 -1.925036,-0.33603 -4.434178,-1.05528 -7.932123,-2.27327 -1.554183,-0.54117 -3.238054,-0.98378 -3.741936,-0.98378 -0.503881,0 -0.915994,-0.15356 -0.915994,-0.34166 0,-0.29251 -1.266836,-0.6806 -2.0508,-0.72903 z" />
    <g
       aria-label="XXXIV"
       transform="scale(1.0873471,0.91966954)"
       id="text1255"
       style="font-size:16.6853px;line-height:1.25;font-family:Hultog;-inkscape-font-specification:Hultog;stroke-width:0.417133">
      <path
         d="m 92.506952,20.065799 q -0.214306,1.132764 -0.64292,1.010303 l -1.489941,-0.418408 q -1.796093,0 -2.041015,0.520458 L 87.63913,20.688309 q 0.397998,-0.867432 0.908252,-0.867432 0.122461,0 0.234717,0.04082 0.102051,-0.09185 0.102051,-0.234717 0,-0.214307 -0.224512,-0.58169 -0.714355,-0.510253 -1.877734,-2.826806 h -0.07144 q -0.214306,-0.01021 -0.316357,0.193896 -1.040918,2.224707 -1.857324,2.990088 l 0.08164,0.367383 q 0.928662,0.122461 0.928662,0.755176 0,0.255126 -0.173487,0.66333 -0.377588,-0.295948 -0.74497,-0.367383 -0.153076,-0.02041 -0.826612,-0.02041 -1.285839,0 -1.887939,0.306152 l -0.438818,-0.244922 v -0.806201 l 1.204199,-0.306152 q 0.285742,-0.07144 2.898242,-3.826904 0.520459,-0.163281 0.520459,-0.489844 0,-0.326562 -0.377588,-0.62251 -0.520459,-0.428613 -0.571484,-0.500048 -0.326563,-0.449024 -0.877637,-1.418506 -0.551074,-0.969482 -0.867432,-1.408301 0,0 -0.76538,-0.68374 l -1.367481,-0.306152 0.408203,-0.8776368 2.234912,0.2857422 1.255225,-0.2857422 0.571484,0.1938965 v 0.6939453 q -0.70415,0.132666 -0.693945,0.571484 v 0.07144 l 1.938965,2.867626 0.316357,-0.08164 q 0.387793,-1.489941 1.449121,-2.500244 v -0.520459 l -0.785791,-0.285742 -0.173486,-0.775586 0.438818,-0.2245117 1.632812,0.2755371 q 0.693945,-0.2449219 1.204199,-0.2449219 0.62251,0 0.755176,0.4184085 -0.336768,0.898046 -1.32666,0.898046 -0.775586,1.010303 -1.551172,2.020606 -1.163378,1.561376 -1.296044,2.041015 0.642919,0.734766 1.836913,2.224707 0.204102,0.449023 0.673535,1.275635 0.397998,0.418408 1.163379,1.224609 z"
         id="path90" />
      <path
         d="m 103.93663,20.065799 q -0.21431,1.132764 -0.64292,1.010303 l -1.48994,-0.418408 q -1.7961,0 -2.041017,0.520458 l -0.693946,-0.489843 q 0.397998,-0.867432 0.908252,-0.867432 0.122461,0 0.234721,0.04082 0.10205,-0.09185 0.10205,-0.234717 0,-0.214307 -0.22451,-0.58169 -0.71436,-0.510253 -1.877739,-2.826806 h -0.07144 q -0.214306,-0.01021 -0.316357,0.193896 -1.040918,2.224707 -1.857324,2.990088 l 0.08164,0.367383 q 0.928662,0.122461 0.928662,0.755176 0,0.255126 -0.173487,0.66333 -0.377587,-0.295948 -0.74497,-0.367383 -0.153076,-0.02041 -0.826611,-0.02041 -1.28584,0 -1.88794,0.306152 l -0.438818,-0.244922 v -0.806201 l 1.204199,-0.306152 q 0.285742,-0.07144 2.898242,-3.826904 0.520459,-0.163281 0.520459,-0.489844 0,-0.326562 -0.377588,-0.62251 -0.520459,-0.428613 -0.571484,-0.500048 -0.326563,-0.449024 -0.877637,-1.418506 -0.551074,-0.969482 -0.867432,-1.408301 0,0 -0.76538,-0.68374 l -1.367481,-0.306152 0.408203,-0.8776368 2.234912,0.2857422 1.255225,-0.2857422 0.571484,0.1938965 v 0.6939453 q -0.70415,0.132666 -0.693945,0.571484 v 0.07144 l 1.938965,2.867626 0.316357,-0.08164 q 0.387793,-1.489941 1.44912,-2.500244 v -0.520459 l -0.78579,-0.285742 -0.173486,-0.775586 0.438818,-0.2245117 1.632808,0.2755371 q 0.69395,-0.2449219 1.2042,-0.2449219 0.62251,0 0.75518,0.4184085 -0.33677,0.898046 -1.32666,0.898046 -0.77559,1.010303 -1.55117,2.020606 -1.163381,1.561376 -1.296047,2.041015 0.642919,0.734766 1.836917,2.224707 0.2041,0.449023 0.67353,1.275635 0.398,0.418408 1.16338,1.224609 z"
         id="path92" />
      <path
         d="m 115.36631,20.065799 q -0.21431,1.132764 -0.64292,1.010303 l -1.48994,-0.418408 q -1.7961,0 -2.04102,0.520458 l -0.69395,-0.489843 q 0.398,-0.867432 0.90826,-0.867432 0.12246,0 0.23471,0.04082 0.10205,-0.09185 0.10205,-0.234717 0,-0.214307 -0.22451,-0.58169 -0.71435,-0.510253 -1.87773,-2.826806 h -0.0714 q -0.2143,-0.01021 -0.31635,0.193896 -1.04092,2.224707 -1.85733,2.990088 l 0.0816,0.367383 q 0.92866,0.122461 0.92866,0.755176 0,0.255126 -0.17348,0.66333 -0.37759,-0.295948 -0.74497,-0.367383 -0.15308,-0.02041 -0.82661,-0.02041 -1.28584,0 -1.88794,0.306152 l -0.43882,-0.244922 v -0.806201 l 1.2042,-0.306152 q 0.28574,-0.07144 2.89824,-3.826904 0.52046,-0.163281 0.52046,-0.489844 0,-0.326562 -0.37759,-0.62251 -0.52046,-0.428613 -0.57148,-0.500048 -0.32657,-0.449024 -0.87764,-1.418506 -0.55108,-0.969482 -0.86743,-1.408301 0,0 -0.76538,-0.68374 l -1.36748,-0.306152 0.4082,-0.8776368 2.23491,0.2857422 1.25523,-0.2857422 0.57148,0.1938965 v 0.6939453 q -0.70415,0.132666 -0.69395,0.571484 v 0.07144 l 1.93897,2.867626 0.31636,-0.08164 q 0.38779,-1.489941 1.44912,-2.500244 v -0.520459 l -0.78579,-0.285742 -0.17349,-0.775586 0.43882,-0.2245117 1.63281,0.2755371 q 0.69395,-0.2449219 1.2042,-0.2449219 0.62251,0 0.75518,0.4184085 -0.33677,0.898046 -1.32666,0.898046 -0.77559,1.010303 -1.55118,2.020606 -1.16337,1.561376 -1.29604,2.041015 0.64292,0.734766 1.83691,2.224707 0.2041,0.449023 0.67354,1.275635 0.398,0.418408 1.16338,1.224609 z"
         id="path94" />
      <path
         d="m 120.87704,20.259696 q -0.17349,1.030712 -0.61231,0.928662 l -1.88793,-0.428614 q 0,0 -1.38789,0.132666 -0.398,0.275537 -0.69395,0.275537 -0.41841,0 -0.65312,-0.612304 l 0.52045,-0.755176 q 0.24493,0.08164 0.51026,0.08164 0.87763,0 0.87763,-1.418506 0,-0.275537 -0.0408,-0.826611 -0.0408,-0.551074 -0.0408,-0.826612 0,-0.806201 0.0408,-2.428808 0.0408,-1.622607 0.0408,-2.428808 0,-0.693945 -0.4082,-1.091943 -0.27554,0.10205 -0.55107,0.10205 -0.47964,0 -0.8062,-0.387793 0.17348,-1.0205072 0.6021,-0.9286615 l 1.86752,0.4082035 1.77569,-0.4286137 0.73476,0.3775877 -0.2143,0.734766 q -0.2041,-0.05103 -0.34698,-0.05103 -0.93886,0 -0.93886,1.602197 0,0.163282 0.0102,0.428614 0.0102,0.255127 0.0102,0.346972 0,0.673535 -0.0408,6.439404 l 0.42861,0.459228 q 0.27554,-0.09184 0.50005,-0.09184 0.44902,0 0.70415,0.387793 z"
         id="path96" />
      <path
         d="m 132.81698,9.8913373 -0.17349,0.7245607 -1.10215,0.602099 q -1.17358,3.020703 -1.56137,3.969775 -1.26543,3.071728 -1.78589,3.745264 l -0.70415,2.408398 q -0.92867,0 -1.11236,-0.714356 l -0.39799,-1.561376 -0.40821,-0.571485 -0.13266,-0.857226 q -0.0102,-0.02041 -0.66333,-1.26543 -0.42862,-0.816406 -0.40821,-1.32666 -0.27553,-0.428613 -0.8164,-1.28584 -0.0816,-0.234716 -0.22451,-0.673535 -0.398,-1.081738 -0.75518,-1.612402 -0.55107,-0.816406 -1.28584,-0.775586 -0.0408,-0.214306 -0.0408,-0.428613 0,-0.6020994 0.58169,-0.7959958 l 1.48994,0.5714838 1.51035,-0.4286128 0.54087,0.3673828 q 0.0204,0.112256 0.0204,0.142871 0,0.500049 -0.91846,0.918457 0.14288,0.551074 0.48985,1.571582 0.63271,1.183789 1.75527,3.592187 0,0 0.398,1.734863 l 0.31636,0.428613 q 0.29594,-0.10205 0.29594,-0.244922 v -0.887841 l 2.6125,-6.163867 q 0,-0.132666 -0.70415,-0.591894 -0.0408,-0.173487 -0.0408,-0.346973 0,-0.2143065 0.12246,-0.3775877 0.13267,-0.1632812 0.34698,-0.1224609 l 1.30625,0.265332 q 0.44902,-0.2959472 0.8062,-0.2959472 0.35717,0 0.64292,0.2857421 z"
         id="path98" />
    </g>
  </g>
</svg>
