<?xml version="1.0" encoding="UTF-8" standalone="no"?>
<!-- Created with Inkscape (http://www.inkscape.org/) -->

<svg
   version="1.1"
   id="svg2"
   width="4cm"
   height="4cm"
   viewBox="0 0 151.1811 151.1811"
   sodipodi:docname="35.svg"
   inkscape:version="1.1.2 (0a00cf5339, 2022-02-04)"
   xmlns:inkscape="http://www.inkscape.org/namespaces/inkscape"
   xmlns:sodipodi="http://sodipodi.sourceforge.net/DTD/sodipodi-0.dtd"
   xmlns="http://www.w3.org/2000/svg"
   xmlns:svg="http://www.w3.org/2000/svg">
  <defs
     id="defs6" />
  <sodipodi:namedview
     id="namedview4"
     pagecolor="#505050"
     bordercolor="#eeeeee"
     borderopacity="1"
     inkscape:pageshadow="0"
     inkscape:pageopacity="0"
     inkscape:pagecheckerboard="0"
     showgrid="false"
     inkscape:zoom="2.7512881"
     inkscape:cx="74.87402"
     inkscape:cy="141.57005"
     inkscape:window-width="1854"
     inkscape:window-height="995"
     inkscape:window-x="0"
     inkscape:window-y="0"
     inkscape:window-maximized="1"
     inkscape:current-layer="g8"
     units="cm"
     height="4cm"
     inkscape:document-units="cm" />
  <!-- Border -->
  <rect 
     x="0"
     y="0"
     width="4cm"
     height="4cm"
     class="board-border"
     stroke-width="0.1cm"
     id="border"
     fill="none"
     stroke="#000000" />
  <g
     inkscape:groupmode="layer"
     inkscape:label="Image"
     id="g8">
    <path
       id="path12"
       style="fill:#000000;stroke-width:0.413987"
       d="m 98.16226,3.5134314 c -0.2539,0.010635 -0.585237,0.025342 -0.842762,0.036193 2.97e-4,0.00227 4.21e-4,0.00529 8.87e-4,0.00754 0.06672,0.00414 0.133351,0.00938 0.198554,0.014326 0.207562,0.015739 0.384601,0.03764 0.551431,0.061077 0.0285,-0.041023 0.0592,-0.080682 0.0919,-0.1191382 z M 90.524498,3.8444547 C 88.899759,3.9164947 87.791963,3.959044 85.947388,4.043521 84.116198,4.1273855 79.02216,4.2839149 74.627303,4.3911333 70.232445,4.4983518 65.23829,4.6765489 63.529179,4.7877577 61.820068,4.8989662 57.624978,4.9778944 54.206756,4.9626948 50.788534,4.947495 43.996483,5.1379597 39.113308,5.386465 34.230135,5.6349706 29.235979,5.801672 28.015186,5.7566987 26.794392,5.7117264 25.396029,5.6796986 24.90771,5.6858167 22.555147,5.7152987 15.919089,5.673601 10.924076,5.5975967 4.461577,5.4992612 3.8212771,5.5864024 3.8212771,6.5620129 c 0,0.6313091 0.3509318,0.7268935 2.6635495,0.7268935 1.6734574,0 2.6635504,-0.1613131 2.6635504,-0.4335726 0,-0.3151069 0.167908,-0.3118272 0.615598,0.011312 0.45494,0.3283584 6.742191,0.3926131 24.082928,0.2458172 C 46.753893,7.0031881 58.313061,6.8289684 59.533855,6.7256399 60.754649,6.6223124 66.348103,6.436267 71.963753,6.3116729 77.579404,6.1870778 83.472507,6.0195531 85.059539,5.9399313 c 0.833247,-0.041811 3.24113,-0.1235491 5.127679,-0.1945429 -8.88e-4,-0.00328 -8.88e-4,-0.00575 -0.0018,-0.00903 -0.04919,-0.4547991 0.03746,-1.1140518 0.393634,-1.5608617 -0.02904,-0.1065531 -0.04696,-0.2166186 -0.05462,-0.3310232 z m 9.695252,4.5468563 c 0.0396,0.140356 0.11421,0.256228 0.23843,0.33027 -0.0464,-0.162953 -0.13522,-0.26464 -0.23843,-0.33027 z m -9.243527,0.01659 C 88.730935,8.498511 86.932151,8.588056 86.835238,8.640144 86.579387,8.777661 71.485064,9.024336 39.779196,9.409265 24.701318,9.592318 16.848039,9.823203 12.477814,10.21307 l -2.219626,0.198313 0.05809,9.345564 c 0.03214,5.139845 0.08208,9.648838 0.110982,10.020429 0.0289,0.37159 0.285661,0.675619 0.570513,0.675619 0.284852,0 0.386952,-0.114395 0.226297,-0.254112 -0.160654,-0.139716 -0.09797,-0.45759 0.139594,-0.706534 0.259244,-0.271659 0.391204,-4.012047 0.329476,-9.355366 l -0.103177,-8.902944 5.937495,-0.04902 c 3.265423,-0.02701 6.126022,-0.150999 6.357144,-0.275225 0.382486,-0.20558 29.339294,-0.617713 35.649252,-0.507468 2.573663,0.04496 5.766079,0.04505 10.876161,0 1.342872,-0.01184 5.13843,-0.195643 8.434574,-0.407935 2.811802,-0.181098 7.869785,-0.346553 12.246952,-0.430557 -0.0036,-0.01258 -0.01025,-0.02468 -0.01127,-0.03545 0.004,0.01182 0.0083,0.02358 0.01212,0.03545 0.03254,-6.17e-4 0.0664,-0.0016 0.09885,-0.0023 -8.88e-4,-0.02211 -0.0031,-0.03876 -0.0036,-0.06259 -0.03427,-0.0013 -0.04479,-0.0025 -0.07977,-0.0038 -8.88e-4,-3.2e-5 -8.88e-4,-0.0014 -0.0018,-0.0015 -0.0036,2.57e-4 -0.0069,5.02e-4 -0.01035,7.72e-4 -0.01368,0.001 -0.01745,0.01317 -0.01647,0.03016 -0.03041,-0.09084 -0.05699,-0.182672 -0.08671,-0.273717 -0.138018,-0.185832 -0.0245,-0.613578 -0.01651,-0.842973 z m -85.7468715,2.04948 c -1.2162115,0.0284 -1.4080744,0.190652 -1.4080744,0.67034 0,0.491614 0.2476581,0.669792 0.7768686,0.559498 1.6748036,-0.349055 1.7873571,0.183287 1.3551849,6.411597 -0.4783283,6.893493 -0.6384368,20.393903 -0.33988,28.664807 0.2019292,5.594023 0.2229846,5.693733 1.2043198,5.694505 0.5493571,4.1e-4 0.9988312,-0.172978 0.9988312,-0.385315 0,-0.212337 -0.224494,-0.386068 -0.4985487,-0.386068 -0.35376,0 -0.3441439,-0.160736 0.032081,-0.554974 0.5064177,-0.53067 0.6044467,-13.911366 0.2505743,-34.074284 L 7.4914611,10.804992 8.652429,10.666248 c 0.63879,-0.07624 -0.186587,-0.165644 -1.8346586,-0.199066 -0.6639072,-0.01347 -1.1830151,-0.01927 -1.5884189,-0.0098 z m 71.4528395,3.985097 -1.027447,0.821149 c -0.565138,0.451528 -2.249637,1.352034 -3.74388,2.001221 -2.843778,1.235503 -3.258893,1.775238 -3.270479,4.253536 -0.0046,0.992216 -0.162166,1.243881 -0.671956,1.073752 -0.758566,-0.253152 -0.904613,0.549445 -0.209826,1.15368 0.312355,0.271647 -0.107621,0.953878 -1.331775,2.163339 -1.985716,1.961884 -2.150736,2.488175 -1.010968,3.220502 0.622432,0.399926 0.666558,0.596539 0.221962,0.988545 -0.756176,0.666737 -0.701285,1.879066 0.08497,1.879066 1.050219,0 1.214991,0.67734 0.469934,1.930342 -0.790808,1.329943 -0.575735,1.93034 0.691897,1.93034 0.968338,0 1.107242,0.404141 0.361559,1.052639 -0.282563,0.245735 -0.375246,0.867728 -0.213293,1.428905 0.256771,0.889715 0.503314,0.993069 2.359218,0.993069 h 2.072228 l -1.193049,1.082802 c -0.656076,0.595545 -1.193048,1.269478 -1.193048,1.49752 0,0.37388 -0.916811,0.778792 -3.246201,1.434185 -0.442753,0.124572 -0.680856,0.401457 -0.528896,0.615296 0.442486,0.622643 1.78883,0.451395 3.008634,-0.383053 1.437016,-0.983037 2.019428,-0.971304 3.290421,0.06712 1.381517,1.12872 1.30014,1.896575 -0.511557,4.813787 l -1.539865,2.478527 2.094771,2.342048 c 3.275544,3.662303 4.091567,4.714659 4.091567,5.275258 0,0.286404 0.762996,1.333351 1.695931,2.326964 2.19908,2.34211 4.250763,5.84533 5.127679,8.755905 0.383844,1.274025 0.835547,2.734622 1.003169,3.24614 l 0.304332,0.930485 -2.809215,-0.25562 C 79.514167,73.419503 78.22429,73.261891 78.191706,73.2093 77.665456,72.360386 74.76513,63.968875 74.355916,62.110594 73.85174,59.821098 72.96224,58.218533 72.444956,58.668403 c -0.388759,0.338091 3.020221,11.517073 4.030008,13.215293 0.845873,1.42255 0.645942,1.564021 -0.737852,0.520289 -1.949288,-1.470263 -4.360088,-4.278477 -5.285481,-6.155976 -0.493712,-1.001661 -1.005069,-1.821006 -1.135822,-1.821006 -0.130758,0 -0.237571,0.566956 -0.237571,1.259999 0,0.99755 0.554942,1.794931 2.66355,3.826749 2.974092,2.865793 3.32644,3.647291 1.442756,3.200899 -0.671437,-0.159113 -1.919976,-0.397433 -2.774531,-0.53009 -1.446787,-0.224595 -1.622151,-0.413645 -2.547365,-2.744701 -0.546486,-1.376874 -0.996168,-2.787336 -0.998832,-3.134546 -0.0064,-0.771916 -0.917504,-3.457376 -3.028575,-8.924054 -2.013945,-5.215156 -3.016448,-5.580743 -1.538129,-0.561003 0.817297,2.775193 0.953791,3.823927 0.603459,4.625274 -0.517019,1.182627 -0.955803,1.132396 -3.920759,-0.450913 C 56.9806,59.927 56.817937,59.492755 57.063655,55.877705 c 0.05259,-0.773808 -0.12537,-1.525831 -0.395374,-1.670953 -0.311963,-0.167674 0.323737,-1.164571 1.742752,-2.734899 1.228171,-1.359138 2.232631,-2.609686 2.232631,-2.77939 0,-0.370664 1.645018,-1.638527 2.125983,-1.638527 0.187043,0 0.793099,-0.276147 1.347383,-0.613787 0.799461,-0.486982 0.901075,-0.726403 0.489011,-1.158204 -0.845779,-0.886282 -2.148166,-0.627615 -3.574808,0.710303 -1.523843,1.429078 -6.158593,7.024379 -6.158593,7.434827 0,0.149213 -0.599298,1.043022 -1.331774,1.986896 -0.732477,0.943872 -1.331775,1.89834 -1.331775,2.120357 0,0.222016 -0.339017,0.902445 -0.753461,1.512603 -0.414457,0.610157 -0.620247,1.225793 -0.456927,1.367828 0.16332,0.142038 1.316304,0.08303 2.562104,-0.131202 2.209516,-0.379933 2.2765,-0.364873 2.714707,0.622084 0.532089,1.198386 1.246706,4.804181 0.997096,5.03095 -0.09582,0.08704 -1.070024,-0.694745 -2.165,-1.737306 -1.094976,-1.042562 -1.995762,-1.73808 -2.001133,-1.545783 -0.01004,0.359596 1.794184,2.546058 3.195912,3.873499 1.141496,1.080999 0.999968,1.641457 -0.990161,3.933827 -2.224077,2.561843 -2.811337,2.828648 -5.44588,2.476263 -1.878467,-0.251252 -3.366897,-1.130199 -3.414408,-2.017055 -0.0077,-0.144945 -0.39346,-0.368822 -0.857504,-0.496912 -0.464044,-0.128086 -0.95944,-0.631746 -1.100275,-1.119749 -0.140834,-0.487997 -0.859098,-1.548002 -1.597089,-2.355617 -0.737993,-0.807612 -1.342179,-1.634204 -1.342179,-1.836843 0,-0.399048 -1.415486,-2.117109 -2.968748,-3.602799 l -0.971086,-0.928221 1.486108,-0.613034 c 0.817063,-0.337187 1.834098,-0.948384 2.260376,-1.358025 0.426277,-0.409641 0.909773,-0.744992 1.074263,-0.744992 0.164491,0 1.78104,1.037493 3.593018,2.305854 1.811977,1.268361 3.544463,2.310734 3.849661,2.316409 0.805706,0.01494 0.667423,0.728229 -0.564441,2.906066 -0.600529,1.061688 -1.093721,2.23437 -1.09594,2.60596 -0.0076,1.270369 0.817266,0.676646 2.0124,-1.447756 0.657009,-1.167856 1.36416,-2.123374 1.571077,-2.123374 0.435966,0 1.29872,1.23541 2.021941,2.895511 0.407833,0.936146 0.564007,1.033446 0.813283,0.508224 0.32558,-0.686 -1.738947,-4.175872 -2.470197,-4.175872 -0.22096,0 -0.401442,-0.196331 -0.401442,-0.435836 0,-0.529712 -6.151502,-5.635429 -7.14615,-5.931273 -0.904194,-0.268939 -1.732348,-1.838503 -1.732348,-3.283841 0,-1.977627 -0.975354,-5.156153 -2.011535,-6.55562 -1.418876,-1.916333 -4.031676,-4.211748 -6.755983,-5.93504 l -2.331473,-1.474905 -0.397972,0.901833 c -0.297294,0.672638 -0.178307,1.196042 0.468202,2.060036 1.870448,2.499657 1.875725,2.582194 0.344216,5.401182 l -1.434953,2.639892 0.808949,2.712284 c 0.888622,2.979596 2.148104,4.965596 3.590417,5.661326 0.515056,0.24845 1.263084,1.000017 1.662118,1.670196 0.80492,1.351876 1.102092,1.76117 3.505445,4.82359 0.915595,1.166679 1.664718,2.346823 1.664718,2.62255 0,0.275729 1.364558,1.723546 3.032043,3.217484 2.779458,2.490201 3.182585,2.716051 4.844158,2.716051 1.785049,0 1.817371,0.02475 2.13899,1.640789 0.179598,0.902434 0.374269,1.988251 0.433519,2.412927 0.857748,6.1479 1.257049,8.257974 1.532926,8.109693 0.182383,-0.09802 0.331213,-1.583663 0.331213,-3.30194 0,-1.718274 0.198106,-3.503325 0.440457,-3.966244 0.382802,-0.731187 2.194415,-5.708049 3.011232,-8.273321 0.679831,-2.135066 1.105622,-0.512969 1.114145,4.246749 0.01119,6.264284 0.710325,15.869151 1.278021,17.55479 l 0.41878,1.242656 -1.851997,-0.207361 c -1.018547,-0.11413 -3.150482,-0.325567 -4.737515,-0.470525 l -2.885512,-0.263912 -0.302596,-5.597988 c -0.166521,-3.078894 -0.534574,-6.814103 -0.817622,-8.300465 -0.283041,-1.486362 -0.546498,-2.949001 -0.585252,-3.24991 -0.03876,-0.300913 -0.319937,-0.618914 -0.625135,-0.707289 -0.70529,-0.204226 -0.722828,1.953922 -0.05375,6.659676 0.600293,4.222122 0.729582,5.753987 0.786404,9.305601 l 0.04422,2.742439 5.085196,0.448654 c 2.796927,0.246601 5.332435,0.402345 5.634029,0.346102 0.301598,-0.05622 0.629636,0.223704 0.729182,0.622841 0.159427,0.639251 -0.0083,0.694996 -1.407207,0.466748 -0.873502,-0.14251 -3.140223,-0.413518 -5.037509,-0.602478 -1.897282,-0.188962 -3.779155,-0.45443 -4.181737,-0.589658 -0.838619,-0.281687 -1.378645,0.260055 -1.035247,1.038311 0.404656,0.917078 8.50419,2.038563 11.751874,1.627219 l 2.757187,-0.349122 -0.920794,-1.012675 -0.920798,-1.012673 1.629169,-0.229985 c 0.896205,-0.126487 1.735662,-0.137363 1.86587,-0.02413 0.130203,0.113233 0.313198,2.626807 0.406645,5.585926 0.119522,3.78345 0.02333,5.38008 -0.324271,5.38008 -0.271864,0 -0.494212,0.29538 -0.494212,0.65601 0,0.36063 -0.523668,2.14138 -1.163567,3.9572 -1.094968,3.10717 -1.144096,3.58525 -0.839298,8.12704 0.178125,2.65422 0.289994,5.86085 0.248842,7.12567 -0.07443,2.28717 -0.08904,2.31157 -2.767597,4.49407 -1.743901,1.42094 -2.57353,2.36297 -2.353148,2.67307 0.241109,0.33927 0.743046,0.087 1.721074,-0.86564 1.513532,-1.47418 3.339484,-2.55259 5.115544,-3.02068 0.76857,-0.20255 0.881443,-0.31335 0.341613,-0.33555 -0.705179,-0.029 -0.795172,-0.36054 -0.717907,-2.63913 0.0486,-1.43328 -0.06466,-4.60626 -0.251443,-7.05102 -0.318601,-4.17003 -0.266138,-4.6537 0.84363,-7.81789 1.067587,-3.0439 2.041882,-4.36159 2.041882,-2.7613 0,0.3362 0.242458,0.54064 0.538432,0.45469 0.647251,-0.18763 0.560721,-2.20418 -0.360689,-8.4015 -0.363055,-2.441897 -0.701358,-4.772406 -0.751725,-5.178747 -0.0859,-0.693054 0.27205,-0.740864 5.789234,-0.772136 6.455383,-0.03659 6.22365,-0.139702 5.477097,2.431021 -0.22298,0.767816 -0.648281,2.351992 -0.945077,3.519862 -0.296799,1.16785 -0.735401,2.33795 -0.975418,2.60067 -0.240017,0.26272 -0.322654,0.73498 -0.183816,1.04963 0.138837,0.31465 -0.141008,1.56667 -0.621668,2.78165 -0.480664,1.21499 -1.07899,3.78059 -1.329173,5.70129 -0.250188,1.9207 -0.647416,3.65913 -0.882647,3.8637 -0.235228,0.20457 -0.428721,0.64132 -0.430053,0.97045 -0.0014,0.32912 -0.299924,1.09445 -0.663286,1.70035 -0.93297,1.55572 -2.441587,8.39861 -2.441587,11.07533 0,1.9788 -0.117298,2.28091 -0.978019,2.51849 -1.236238,0.34123 -1.928851,0.94118 -2.31847,2.00877 -0.168589,0.46195 -1.144225,1.46427 -2.167601,2.22668 -1.571449,1.17069 -2.084937,1.34967 -3.303427,1.15142 -1.135706,-0.18479 -1.442756,-0.10442 -1.442756,0.37852 0,0.33744 0.249708,0.58568 0.554906,0.55121 0.305199,-0.0343 0.954439,-0.0357 1.442756,-0.004 0.805702,0.0539 0.78616,0.10867 -0.20809,0.58739 l -1.095074,0.52783 1.095074,0.15156 c 0.602593,0.0836 2.39442,0.11135 3.981452,0.0618 1.587031,-0.0495 11.375577,-0.19151 21.752321,-0.31519 10.376746,-0.12369 22.862126,-0.39152 27.745306,-0.5957 4.88317,-0.20417 9.57768,-0.39739 10.43224,-0.42904 1.13598,-0.0421 0.83758,-0.14567 -1.10981,-0.38607 -2.54848,-0.31461 -12.51778,-0.20696 -24.8598,0.26919 l -5.771024,0.22319 1.176574,-0.90032 c 3.067095,-2.34624 3.091524,-4.13209 0.07977,-5.75936 -3.00725,-1.62483 -3.072684,-1.60339 -0.701437,0.23075 2.146745,1.66048 2.954653,2.89174 1.897951,2.89174 -0.23789,0 -0.742304,0.5212 -1.121083,1.1582 -0.589945,0.99214 -0.941515,1.1582 -2.452857,1.1582 -0.970368,9e-5 -1.764429,-0.17373 -1.764429,-0.38607 0,-0.21233 -0.288289,-0.38606 -0.640744,-0.38606 -0.352449,0 -1.249111,-0.65149 -1.99246,-1.44776 -0.743347,-0.79626 -1.756748,-1.88208 -2.251706,-2.41292 l -0.899987,-0.96518 0.293927,1.119 c 0.208432,0.79491 0.144964,1.04017 -0.21763,0.84528 -0.330657,-0.17772 -0.419833,-0.91265 -0.253174,-2.08493 0.72532,-5.10183 0.703878,-11.27454 -0.04942,-14.05226 -0.504148,-1.85902 -0.75327,-4.32055 -0.733515,-7.25387 0.01949,-2.89184 -0.261637,-5.71852 -0.806351,-8.10743 -0.459959,-2.0172 -0.912687,-4.664417 -1.00663,-5.883011 -0.164843,-2.138242 -0.1351,-2.210399 0.856633,-2.054003 0.565191,0.08913 1.229206,0.270924 1.475704,0.403412 0.246498,0.13249 2.240631,0.238347 4.431445,0.235258 2.190814,-0.0031 4.06819,0.117785 4.172201,0.268441 0.104014,0.150658 -0.08402,2.095736 -0.41791,4.322913 -0.530131,3.53622 -0.523449,4.12181 0.04856,4.61924 0.572814,0.49817 0.653617,0.49897 0.647682,0.004 -0.0036,-0.31093 -0.185734,-0.81182 -0.404909,-1.11296 -0.262665,-0.3609 -0.05011,-1.23381 0.62427,-2.55996 0.562733,-1.10661 1.16268,-2.72717 1.332641,-3.60206 0.327479,-1.685704 0.706782,-1.854452 2.693896,-1.197414 1.002632,0.331517 1.147782,0.298451 0.924262,-0.208113 -0.15253,-0.345694 0.0149,-0.693992 0.39364,-0.820395 1.33637,-0.445979 0.59915,-0.913577 -1.339579,-0.849802 -1.098714,0.03613 -1.997662,0.194857 -1.997662,0.352889 0,0.158038 -0.699182,0.100662 -1.553737,-0.127432 -1.732715,-0.462479 -1.872045,-0.724543 -0.855767,-1.608364 0.984478,-0.856172 1.926461,-0.753458 2.395631,0.261649 0.307604,0.665543 0.408478,0.710678 0.430052,0.193035 0.01905,-0.456843 0.423061,-0.696888 1.248539,-0.741221 3.802183,-0.204202 5.882003,0.364113 5.882003,1.607612 0,0.664017 0.38824,0.754859 3.65718,0.855079 3.18404,0.09761 3.67893,0.207485 3.81931,0.846034 0.15346,0.69803 -0.10978,0.723263 -5.43375,0.523303 -3.07693,-0.114554 -5.59414,-0.07879 -5.59414,0.08154 0,0.419972 4.01397,0.778039 8.76751,0.781938 4.59281,0.0039 4.78319,-0.149014 3.47858,-2.783162 -1.34515,-2.715996 -2.50225,-7.238206 -2.77454,-10.843083 -0.15668,-2.07441 -0.4845,-3.878178 -0.72831,-4.009229 -0.68098,-0.366019 0.10595,6.611259 1.45836,12.931022 l 0.35549,1.661904 -2.85603,-0.153826 c -1.57092,-0.08481 -3.04723,-0.320097 -3.28001,-0.522547 -0.23281,-0.202458 -0.84573,-1.836491 -1.363,-3.631458 -0.51726,-1.794939 -1.0897,-3.43721 -1.27194,-3.649548 -0.18225,-0.212338 -1.08657,-2.098126 -2.00981,-4.190198 -1.25435,-2.842377 -1.541605,-3.877658 -1.13408,-4.096693 0.97267,-0.522802 3.60409,-6.671915 3.50284,-8.185853 -0.0521,-0.778811 0.11811,-1.647466 0.37803,-1.930342 0.25991,-0.282871 0.60531,-1.316117 0.7682,-2.296047 0.1629,-0.979934 0.57334,-2.109183 0.91212,-2.509443 1.16179,-1.3726 1.31332,0.443191 0.26272,3.148112 -0.80235,2.065758 -0.91601,2.95871 -0.66242,5.19684 0.16842,1.486405 0.50488,2.702478 0.74738,2.702478 0.28516,0 0.28044,0.170502 -0.013,0.482584 -0.43931,0.467297 -0.0362,4.073634 0.5471,4.894468 0.14088,0.198238 0.0794,0.456051 -0.13699,0.572319 -0.22248,0.11957 -0.23449,0.92744 -0.0269,1.860216 0.2017,0.907009 0.38497,2.604601 0.40663,3.772457 0.0216,1.167856 0.31402,2.644567 0.64942,3.281579 0.74143,1.408195 0.71213,1.578308 0.83063,-4.825852 0.053,-2.866556 0.25278,-5.429083 0.44392,-5.694505 0.19114,-0.265422 0.21453,-0.669461 0.0521,-0.89806 -0.16243,-0.228599 0.13178,-0.762493 0.65462,-1.186106 0.94838,-0.768395 0.95445,-0.768492 2.3783,-0.0045 0.78496,0.421131 2.76331,1.345918 4.39589,2.054759 2.71092,1.177036 2.98041,1.402933 3.10748,2.609732 0.0765,0.726761 0.39686,1.39593 0.7127,1.486208 0.41588,0.11887 0.495,-0.111759 0.28613,-0.835475 -0.21114,-0.731618 -0.092,-1.06454 0.44392,-1.243409 1.04919,-0.350141 1.19059,-0.06332 0.61821,1.255474 -0.50206,1.156749 -0.16222,3.564659 0.43005,3.047074 0.17123,-0.149644 0.31127,-0.805621 0.31127,-1.457558 0,-0.667454 0.26961,-1.264929 0.61732,-1.367828 0.46762,-0.138375 0.54691,0.06253 0.32601,0.827935 -0.16044,0.555961 -0.10361,1.317152 0.1266,1.69131 0.23024,0.374154 0.52876,0.987019 0.66241,1.361794 0.13364,0.374783 0.79715,0.8557 1.47484,1.069231 0.6777,0.213535 1.68734,0.590545 2.2439,0.837737 0.81973,0.364066 1.14619,0.333316 1.71674,-0.162874 0.64317,-0.559344 0.63162,-0.822082 -0.12486,-3.025203 -0.45562,-1.326963 -1.02778,-2.342774 -1.27194,-2.257596 -0.24416,0.08518 -0.3815,0.317449 -0.3052,0.516517 0.0763,0.199064 0.25279,0.893988 0.3919,1.544273 0.2065,0.965332 0.14577,1.095418 -0.33035,0.707288 -0.3207,-0.26146 -0.72457,-1.518395 -0.89738,-2.79296 -0.27106,-1.999343 -0.66852,-2.745026 -2.89505,-5.434364 -2.25363,-2.722093 -2.82269,-3.17382 -4.48866,-3.561325 -1.30579,-0.303812 -1.90751,-0.651845 -1.90751,-1.103923 0,-0.363314 -0.74912,-1.048743 -1.66472,-1.523159 -1.95268,-1.011784 -5.88061,-4.205556 -5.88461,-4.784381 -10e-4,-0.220317 -0.31451,-0.920374 -0.69536,-1.555584 -1.01029,-1.68504 -2.88129,-8.216635 -2.92887,-10.224019 -0.0225,-0.949963 -0.19855,-1.992347 -0.39103,-2.316408 -0.19249,-0.324063 -0.78098,-1.653195 -1.3075,-2.954326 -1.31862,-3.258507 -2.82562,-4.442115 -8.547289,-6.711706 -1.159754,-0.460034 -2.108643,-0.914205 -2.108643,-1.008904 0,-0.0947 0.32719,-0.605474 0.726581,-1.135584 0.885434,-1.175206 1.427223,-6.344486 0.665021,-6.344486 -0.276964,0 -0.503752,-0.264338 -0.503752,-0.587397 0,-0.323058 -0.513,-1.261484 -1.140159,-2.085673 -1.56619,-2.058222 -2.400471,-4.612263 -1.893615,-5.795546 0.490097,-1.144171 0.188757,-1.955224 -0.725715,-1.955224 -0.529478,0 -0.684186,-0.490927 -0.698836,-2.219892 -0.01798,-2.122869 -0.0887,-2.258812 -1.627433,-3.113428 -0.884986,-0.490809 -2.715714,-1.071266 -4.068158,-1.288695 -1.352444,-0.217429 -3.203589,-0.768076 -4.114106,-1.223806 z m 2.295922,2.293034 c 0.051,-0.0059 0.153421,0.0049 0.310402,0.03469 0.610396,0.115861 1.866682,0.312409 2.791869,0.436588 3.12125,0.418937 6.304987,4.959569 3.977986,5.673392 -0.427278,0.131071 -0.976636,0.315712 -1.220794,0.410951 -0.244159,0.09525 -1.143107,-0.156393 -1.997663,-0.559495 -1.778767,-0.839062 -1.925119,-0.893942 -3.895614,-1.45605 -1.212798,-0.345967 -1.434001,-0.320104 -1.331775,0.155332 0.09226,0.429086 -0.481782,0.617512 -2.319334,0.760826 -5.271831,0.411168 -5.093417,0.43262 -5.23693,-0.638672 -0.196413,-1.466321 1.611066,-2.915221 4.569307,-3.663123 2.327485,-0.588436 2.677626,-0.590731 4.388096,-0.02261 2.128047,0.706789 2.494476,0.748367 2.494476,0.283518 0,-0.183524 -0.749123,-0.616208 -1.664719,-0.962154 -0.706413,-0.26691 -1.018297,-0.435691 -0.865307,-0.453178 z m -2.571644,1.421364 c -0.189463,0.06951 -0.225429,0.338986 -0.225429,0.851311 0,0.764655 0.370779,1.00288 2.330605,1.499029 1.281834,0.324509 2.380549,0.610187 2.441588,0.634901 0.06104,0.02472 0.110981,-0.03919 0.110981,-0.142513 0,-0.103318 -0.713694,-0.446936 -1.585819,-0.763841 -0.872127,-0.316907 -1.466125,-0.745465 -1.319634,-0.951598 0.146491,-0.206133 -0.125223,-0.556686 -0.604328,-0.779677 -0.615537,-0.286491 -0.958496,-0.417123 -1.147964,-0.347612 z m 4.18781,1.100143 c -0.229748,0 -0.417915,0.173731 -0.417915,0.386069 0,0.212337 0.311249,0.386068 0.691898,0.386068 0.380656,0 0.568813,-0.173731 0.417914,-0.386068 -0.150899,-0.212338 -0.462147,-0.386069 -0.691897,-0.386069 z m 63.672011,1.336158 c -0.0105,0.03007 -0.0306,0.08651 -0.0425,0.119893 0.0175,0.0251 0.0519,0.05876 0.0737,0.08596 0.0356,-0.0046 0.0711,-0.01027 0.10665,-0.01433 0.024,-0.110175 0.0105,-0.168429 -0.13786,-0.191526 z m -70.385509,2.248545 c 0.517062,0.0113 1.159692,0.04419 1.976851,0.0935 3.70351,0.223494 6.749905,0.795892 7.759151,1.457557 0.305198,0.20009 0.554905,0.780765 0.554905,1.290162 0,0.612497 0.374687,1.074143 1.106346,1.364057 0.724418,0.287042 0.967561,0.584053 0.704904,0.860359 -0.586803,0.617285 -2.260559,4.571748 -2.22136,5.248114 0.01846,0.318507 0.268281,0.05791 0.554906,-0.579102 0.917526,-2.039182 2.152245,-3.368836 2.69216,-2.899281 0.350976,0.305245 0.339292,0.500582 -0.04248,0.70578 -0.347699,0.186883 -0.386996,0.47801 -0.114448,0.852819 0.641827,0.88264 0.509946,1.094227 -0.534965,0.856589 -0.810074,-0.184231 -0.907751,-0.101935 -0.6156,0.518779 0.190964,0.405721 0.458939,1.084911 0.595659,1.509587 0.219538,0.681924 0.161869,0.709999 -0.494212,0.242046 -0.650861,-0.464232 -0.743055,-0.431851 -0.743055,0.257881 0,0.432981 -0.22805,0.853326 -0.50722,0.934255 -0.380825,0.110398 -0.380825,0.353115 0,0.971957 0.27917,0.453651 0.50722,1.009573 0.50722,1.235871 0,0.715006 -0.660259,0.446139 -1.115881,-0.454686 -0.512095,-1.012469 -1.991594,-1.410289 -1.991594,-0.535368 0,0.322035 -0.364778,0.812879 -0.810683,1.090341 -0.685641,0.426634 -0.7801,0.906559 -0.613864,3.110412 0.108115,1.433278 0.35673,2.60596 0.553171,2.60596 0.196437,0 1.276164,-0.79918 2.399103,-1.775762 1.351645,-1.17549 2.280074,-1.696253 2.746786,-1.540502 0.636246,0.212334 0.629424,0.338555 -0.06503,1.293178 -0.959956,1.319593 -2.264713,2.281513 -3.987519,2.938488 -1.477862,0.563571 -4.195952,1.022186 -4.883175,0.824167 -0.244158,-0.07035 -1.016885,-0.238069 -1.717608,-0.373251 -1.21998,-0.23535 -1.26158,-0.314761 -0.976288,-1.867755 0.163862,-0.891995 0.513124,-1.795669 0.776003,-2.008005 0.339056,-0.273869 0.391937,0.109848 0.182075,1.319569 -0.361368,2.083088 0.03276,2.358764 2.628871,1.842116 l 1.947374,-0.387574 -0.149133,-1.772747 c -0.08234,-0.975282 -0.171984,-2.164395 -0.199419,-2.642154 -0.08945,-1.558228 -0.936074,-0.912769 -1.012703,0.772135 -0.07249,1.593732 -0.07949,1.601061 -0.244506,0.254867 -0.156114,-1.273507 -0.290566,-1.390235 -1.65778,-1.434937 -0.818358,-0.02675 -2.156644,-0.373155 -2.97395,-0.769875 -1.315341,-0.638469 -1.499077,-0.927009 -1.600558,-2.511705 -0.0987,-1.541201 0.03977,-1.878201 0.995363,-2.422729 0.610526,-0.347897 1.423327,-0.52765 1.806913,-0.39964 1.45511,0.485603 4.220585,-1.487695 3.501977,-2.498887 -0.416419,-0.585967 -0.968116,-0.395861 -1.212989,0.418492 -0.241771,0.804032 -1.477938,1.436012 -1.970787,1.007396 -0.156932,-0.136477 -0.238068,-1.041189 -0.180345,-2.011022 0.134101,-2.252962 -0.434168,-2.862114 -2.409505,-2.58334 -1.426206,0.201278 -1.525992,0.146736 -1.525992,-0.836229 0,-1.045699 0.01376,-1.050429 2.330607,-0.783447 1.842164,0.212285 2.220858,0.168446 1.806046,-0.208115 -0.296129,-0.268826 -1.505047,-0.456939 -2.774531,-0.432064 -2.439608,0.0478 -2.742102,-0.286085 -1.352586,-1.494507 0.602296,-0.523794 1.022191,-0.687664 2.57338,-0.653752 z M 87.0572,23.889838 c 1.351352,0 1.553738,0.122915 1.553738,0.942549 0,1.320467 -0.593191,1.493734 -1.945639,0.568545 -1.573576,-1.076454 -1.460761,-1.511094 0.391901,-1.511094 z m -8.21261,0.481076 c -0.271101,0.0045 -0.443926,0.05946 -0.443926,0.180216 0,0.185298 0.649241,0.52237 1.442756,0.748762 0.793516,0.22639 1.735516,0.436138 2.093035,0.465995 0.57076,0.04766 0.57076,-0.01192 0,-0.486355 -0.579428,-0.48164 -2.278564,-0.922195 -3.091865,-0.908618 z m 60.19952,0.252604 c 4.4e-4,0.03101 0.001,0.124967 0.002,0.156086 0.0344,-0.04704 0.0702,-0.09348 0.10924,-0.138743 0,0 -8.9e-4,-7.73e-4 -8.9e-4,-7.73e-4 -0.0429,0.003 -0.0801,-0.0021 -0.11011,-0.01659 z M 78.21165,25.43411 c -0.903009,0 -1.478679,1.270319 -1.233801,2.721328 0.140578,0.83299 0.465988,1.133157 1.358655,1.252459 2.351341,0.31425 2.969995,0.242424 4.037808,-0.471274 0.939731,-0.628092 1.005508,-0.813293 0.486413,-1.357271 -0.330542,-0.34637 -0.919333,-0.59581 -1.309232,-0.554219 -1.379244,0.147127 -3.099968,-0.484696 -2.851698,-1.047361 0.14618,-0.331285 -0.04475,-0.543662 -0.488145,-0.543662 z m -8.58284,0.386068 c 0.185428,0 0.33728,0.347461 0.33728,0.772136 0,0.515844 -0.295658,0.772137 -0.891316,0.772137 -0.780486,0 -0.822646,-0.09624 -0.337281,-0.772137 0.304959,-0.424675 0.705889,-0.772136 0.891317,-0.772136 z m 74.7554,0.68693 c -0.0802,0.07193 -0.16214,0.141741 -0.25491,0.200575 -0.18573,0.117807 -0.39689,0.21849 -0.62426,0.306893 0.52684,17.835465 0.69547,22.639667 0.83755,23.031379 0.0963,0.265421 0.38112,0.482585 0.63295,0.482585 0.26093,0 0.47662,-1.037782 0.50201,-2.412926 0.0245,-1.327109 0.13017,-3.542175 0.2341,-4.922369 0.12266,-1.628868 -0.2055,-10.625691 -0.5393,-16.6605 -0.26266,-0.0051 -0.52535,-0.01555 -0.78814,-0.02564 z m -3.98231,1.051131 c -0.46978,0.028 -0.91904,0.04463 -1.32831,0.05504 0.098,7.374828 0.18712,15.456219 0.33467,34.690334 0.11567,15.075962 0.234,27.497705 0.26272,27.603874 0.0913,0.337327 -0.0752,6.27504 -0.24711,8.823773 -0.15947,2.36331 -0.24587,2.52162 -2.34101,4.26862 -1.19655,0.99772 -2.82066,2.08595 -3.60949,2.4182 l -1.43495,0.60398 1.20692,0.26317 c 1.24908,0.27263 1.88554,-0.0691 4.77479,-2.56373 0.68381,-0.59042 1.383,-1.07321 1.55374,-1.07301 0.17074,2.1e-4 0.28026,0.82544 0.24364,1.83383 -0.0366,1.00839 -0.0866,3.47018 -0.11098,5.47131 l -0.0442,3.63824 -1.11241,-0.90862 -1.11242,-0.90862 0.28527,1.80668 c 0.32896,2.08734 -0.21621,2.34659 -1.97166,0.93802 l -1.08207,-0.86865 0.30694,0.86865 c 0.22608,0.63971 0.12758,0.86867 -0.37457,0.86867 -0.83729,0 -0.48427,1.04622 0.68757,2.0374 0.44627,0.37747 0.9349,1.11583 1.0864,1.6408 0.34337,1.18977 0.91986,1.22841 1.28495,0.0859 0.50681,-1.58592 1.7157,-3.94762 2.36615,-4.62302 0.5515,-0.57263 0.638,-6.76567 0.61647,-44.097739 -0.0133,-23.079772 -0.12118,-41.445806 -0.24103,-42.873168 z m -71.767583,0.578349 c 1.661535,0 1.775699,0.07173 1.775699,1.114469 0,0.943053 -0.204756,1.140276 -1.331775,1.284129 -1.386608,0.176987 -1.82331,-0.221496 -0.665888,-0.607755 1.060808,-0.354017 0.771169,-1.018708 -0.443924,-1.018708 -0.610397,0 -1.109813,-0.173731 -1.109813,-0.386068 0,-0.212337 0.799065,-0.386067 1.775701,-0.386067 z m 4.883173,0 c 0.244159,0 0.443925,0.17373 0.443925,0.386067 0,0.212337 -0.199766,0.386068 -0.443925,0.386068 -0.244159,0 -0.443924,-0.173731 -0.443924,-0.386068 0,-0.212337 0.199765,-0.386067 0.443924,-0.386067 z m 6.854827,0 c 0.351828,0 0.76296,0.17373 0.913859,0.386067 0.150899,0.212337 -0.13715,0.386068 -0.639878,0.386068 -0.502727,0 -0.913859,-0.173731 -0.913859,-0.386068 0,-0.212337 0.28805,-0.386067 0.639878,-0.386067 z m 7.87533,1.737306 c 0.07796,-0.06469 0.50033,0.299791 0.939008,0.809838 0.438842,0.510047 0.636416,0.927469 0.439588,0.927469 -0.387014,0 -1.6119,-1.543691 -1.378596,-1.737307 z m -15.387374,0.193034 c 0.99472,0 1.085849,0.117299 0.826291,1.061687 -0.160488,0.583929 -0.375877,1.191986 -0.478609,1.351239 -0.549886,0.852429 -1.466164,-0.192804 -1.466164,-1.67246 0,-0.534046 0.312057,-0.740466 1.118482,-0.740466 z m -2.262975,0.801544 c 0.200117,0.01874 0.256643,0.184181 0.256643,0.504452 0,0.609066 -1.653483,1.109152 -2.009799,0.607756 -0.129161,-0.18175 0.1573,-0.512951 0.636406,-0.735943 0.57284,-0.266618 0.916611,-0.395011 1.11675,-0.376265 z m 17.987631,1.128796 c 0.258568,0 0.469934,0.173731 0.469934,0.386069 0,0.212337 -0.08828,0.386068 -0.195953,0.386068 -0.10767,0 -0.319036,-0.173731 -0.469935,-0.386068 -0.150899,-0.212338 -0.06262,-0.386069 0.195954,-0.386069 z m -77.706806,1.158205 c -0.671578,0 -0.786406,0.36563 -0.786406,2.509443 0,1.380194 0.100824,2.509444 0.223697,2.509444 0.122871,0 0.60979,-0.179833 1.082066,-0.399642 0.931623,-0.433608 1.206071,-2.456111 0.39277,-2.893249 -0.322511,-0.173339 -0.323358,-0.399286 -0.0035,-0.734434 0.551606,-0.578089 0.17265,-0.991562 -0.908664,-0.991562 z m 58.162837,0.04751 c 0.154215,0.0055 0.286931,0.04142 0.360689,0.105565 0.147512,0.128288 -0.114683,0.2196 -0.582651,0.202837 -0.517151,-0.01853 -0.62205,-0.11051 -0.267917,-0.233753 0.160229,-0.05576 0.335659,-0.08017 0.489879,-0.07465 z m 1.619629,0.374757 c 0.2105,-0.01776 0.389611,0.0063 0.486413,0.09049 0.124588,0.108353 -0.177547,0.385181 -0.67196,0.615296 -0.5407,0.251662 -1.000443,0.274943 -1.154027,0.05882 -0.202546,-0.284999 0.708077,-0.711317 1.339574,-0.764596 z m 5.014967,0.349875 c -0.967024,0 -2.60199,0.994111 -2.60199,1.581974 0,0.282011 6.21866,0.01977 6.61639,-0.278995 0.309437,-0.232443 -2.9888,-1.302979 -4.0144,-1.302979 z m 12.663131,0.259389 c 0.152138,-0.02182 0.386872,0.03775 0.707506,0.211885 0.483602,0.262653 0.987675,0.72285 1.120218,1.023231 0.358075,0.811512 0.05845,0.873349 -1.027447,0.211885 -0.966895,-0.588975 -1.256693,-1.381519 -0.800277,-1.447001 z m -7.598746,0.941795 c -0.03742,0.03255 0.01048,0.181082 0.130922,0.456194 0.166707,0.380749 0.414759,0.595419 0.551438,0.476553 0.13668,-0.118865 8.89e-4,-0.431079 -0.302596,-0.692962 -0.219215,-0.189225 -0.342329,-0.272343 -0.379764,-0.239785 z m -10.983676,0.40869 c 0.348824,-0.08821 0.699905,0.318187 1.22253,1.27131 0.403083,0.735143 0.567638,1.425281 0.365891,1.533717 -0.541375,0.29098 -0.908874,-0.163536 -0.634675,-0.784956 0.13138,-0.297747 0.01797,-0.5414 -0.252309,-0.5414 -0.270283,0 -0.491612,0.17373 -0.491612,0.386068 0,0.212338 -0.299649,0.386068 -0.665886,0.386068 -0.779284,0 -0.848469,-0.526475 -0.206355,-1.569909 0.244443,-0.39722 0.453123,-0.627972 0.662416,-0.680898 z m 6.647603,0.496912 c -0.426434,0.0119 -0.666753,0.308208 -0.666753,0.852819 0,0.283116 0.399533,0.515008 0.88785,0.515008 1.009414,0 1.209571,-0.968256 0.265316,-1.283375 -0.181503,-0.06058 -0.344264,-0.08841 -0.486413,-0.08445 z m 11.888864,0.209622 c 0.729139,0 2.537831,1.599851 2.537831,2.244775 0,0.794918 -0.625788,0.501564 -1.905757,-0.893536 -0.803145,-0.875384 -1.025591,-1.351239 -0.632074,-1.351239 z m -1.013569,1.544273 c 0.244159,0 0.443925,0.250506 0.443925,0.556481 0,0.305975 -0.199766,0.663526 -0.443925,0.794757 -0.244158,0.131233 -0.443925,-0.119271 -0.443925,-0.556481 0,-0.437205 0.199767,-0.794757 0.443925,-0.794757 z m -12.960525,1.737306 0.02947,1.158205 c 0.01593,0.637012 -0.236621,1.462233 -0.560975,1.833824 -0.735068,0.842146 -0.84898,0.840312 -1.754889,-0.03015 -0.92414,-0.888092 -0.926324,-1.37722 -0.01035,-2.03817 0.651336,-0.47011 0.691885,-0.397939 0.408376,0.724631 -0.43371,1.717312 0.363849,1.584694 1.206055,-0.200573 z m 7.437473,0.193035 c 0.10767,0 0.195953,0.17373 0.195953,0.386068 0,0.212338 -0.211366,0.386068 -0.469934,0.386068 -0.258569,0 -0.346853,-0.17373 -0.195954,-0.386068 0.150899,-0.212338 0.362265,-0.386068 0.469935,-0.386068 z m -4.410634,0.497665 c 0.109388,-0.07106 0.167338,0.439932 0.167338,1.538242 0,0.978374 -0.215575,1.894529 -0.478605,2.035908 -0.332184,0.178536 -0.382263,-0.314986 -0.16474,-1.617418 0.20575,-1.231966 0.366615,-1.885669 0.476007,-1.956732 z m 11.098989,1.177056 c 0.872659,-0.07119 2.556289,0.761801 4.307457,2.165603 1.395047,1.118316 2.569681,1.664997 4.251104,1.9786 1.277923,0.238347 2.431953,0.679399 2.564703,0.980249 0.27125,0.614729 -0.56036,8.675071 -1.1705,11.34603 -0.21828,0.955519 -0.637288,2.866556 -0.931202,4.24675 -0.293914,1.380194 -0.875473,3.036063 -1.292758,3.679712 -0.417285,0.643648 -0.896781,1.921628 -1.065593,2.839712 -0.424512,2.308773 -1.451542,3.904416 -2.512686,3.904416 -1.027127,0 -1.09163,-0.590148 -0.210691,-1.930341 0.815428,-1.240545 0.81699,-1.544272 0.0087,-1.544272 -0.637969,0 -2.000094,1.950532 -2.66355,3.813932 -0.324642,0.911797 -0.30858,0.916306 2.163269,0.647718 1.618142,-0.175823 2.489274,-0.131123 2.489274,0.128186 0,0.436586 -2.178442,0.993447 -5.382591,1.375369 -3.649421,0.435001 -11.215185,0.49744 -13.040294,0.107828 -4.168646,-0.889902 -7.768686,-1.960716 -7.768686,-2.311131 0,-0.207539 0.34959,-0.279827 0.776868,-0.160612 4.535209,1.2654 7.82455,1.796024 11.372975,1.835333 5.064615,0.05611 8.28138,-0.330011 8.002786,-0.961399 -0.112735,-0.255492 0.205435,-1.58455 0.706639,-2.952819 1.948703,-5.319868 3.349428,-15.00916 2.255175,-15.597303 -0.762167,-0.409658 -1.110629,0.732961 -1.232065,4.037126 -0.09589,2.609287 -2.446457,13.582912 -3.046781,14.223445 -0.06792,0.07247 -0.53144,0.01923 -1.030044,-0.118384 -0.624495,-0.172372 -1.149441,-0.93433 -1.686395,-2.448367 -0.428725,-1.208868 -0.897585,-2.28489 -1.041319,-2.391059 -0.14373,-0.106168 -0.272183,-0.540495 -0.286123,-0.96517 -0.01394,-0.424675 -0.572606,-2.502559 -1.241601,-4.617738 -0.959499,-3.033674 -1.109287,-3.995045 -0.709241,-4.552133 0.278927,-0.388424 0.378052,-0.887803 0.220232,-1.109947 -0.897399,-1.26294 4.563433,-7.286283 6.605993,-7.286283 0.731828,0 0.821777,-0.185517 0.586989,-1.206463 -0.152599,-0.663555 -0.277453,-2.261576 -0.277453,-3.551526 0,-3.26292 -0.930387,-2.34607 -1.22253,1.204958 -0.220257,2.677143 -0.221989,2.680961 -2.419909,4.178129 -1.209887,0.82414 -2.622891,2.1932 -3.139553,3.042549 -0.697882,1.147264 -0.983077,1.367176 -1.109812,0.854327 -0.301958,-1.221925 6.2789,-11.955632 7.846719,-12.798311 0.08941,-0.04805 0.19787,-0.07655 0.322538,-0.08671 z m -77.262012,0.255617 c -0.402349,0 -0.502124,3.628747 -0.417047,15.153175 0.06152,8.334246 0.122421,15.206695 0.13526,15.272312 0.01284,0.06562 0.232841,0.0065 0.48901,-0.131202 0.256169,-0.137688 0.453478,-1.233592 0.437856,-2.435546 -0.01562,-1.201953 0.05335,-6.702204 0.153465,-12.222979 0.206766,-11.402759 -0.0097,-15.63576 -0.798544,-15.63576 z m 22.487572,1.465097 c 0.129344,-0.0868 0.742119,0.228549 1.873675,0.92219 1.088518,0.667261 1.875114,1.358269 1.748822,1.53598 -0.472783,0.66528 -1.499172,0.283076 -2.59592,-0.967433 -0.802213,-0.914681 -1.155921,-1.40393 -1.026577,-1.490737 z m 50.501662,1.445493 c 0,0.07672 -0.701969,1.146669 -1.559805,2.378242 -0.857832,1.231573 -1.764713,2.890987 -2.015002,3.687252 -0.722603,2.298858 -1.308797,1.689056 -1.299696,-1.351238 l 0.0078,-2.798995 2.433782,-1.027755 c 1.338159,-0.565107 2.432908,-0.964221 2.432908,-0.887506 z m -10.447843,1.414577 c 0.07202,-0.06293 0.775208,1.674398 1.562411,3.860682 0.787181,2.186308 2.037917,5.41315 2.779729,7.170162 1.394222,3.30228 1.427943,4.444791 0.07457,2.532819 -2.425592,-3.426736 -4.086449,-5.495371 -5.392995,-6.718492 l -1.471367,-1.376874 1.158369,-2.676842 c 0.63697,-1.472167 1.217269,-2.728491 1.289287,-2.791455 z m 1.619633,0.43659 h 1.230334 c 1.229511,0 1.231727,0.0044 1.668185,3.69932 0.240367,2.0349 0.397846,3.752266 0.349418,3.816191 -0.114604,0.151266 -1.069535,-2.107086 -1.518188,-3.590735 -0.192632,-0.637012 -0.660943,-1.78099 -1.040449,-2.541865 z m -37.209925,0.01583 c 0.08046,-0.03078 0.191789,-0.01737 0.313868,0.04827 0.244159,0.131233 0.443925,0.315052 0.443925,0.408689 0,0.09364 -0.199766,0.170414 -0.443925,0.170414 -0.244159,0 -0.443925,-0.183819 -0.443925,-0.408688 0,-0.112434 0.04959,-0.187814 0.130057,-0.218673 z m -1.891016,0.678634 c 0.726881,0.24091 2.637564,2.222837 3.593884,3.818457 0.533431,0.89003 1.065485,2.479376 1.181776,3.531922 0.19454,1.760725 0.0932,2.019862 -1.266747,3.240104 -0.812953,0.729525 -1.696322,1.326363 -1.96298,1.326363 -0.735278,0 -3.658839,-3.002027 -3.968446,-4.074829 -0.358917,-1.243661 0.232191,-1.192445 1.901421,0.163627 1.56217,1.269099 1.899845,1.186797 1.540731,-0.374757 -0.15504,-0.67417 0.0472,-1.660038 0.518491,-2.523769 0.745974,-1.367141 0.743118,-1.438884 -0.08237,-2.032892 -0.966803,-0.695699 -2.082641,-2.722075 -1.688128,-3.065169 0.0493,-0.04287 0.128527,-0.04362 0.232368,-0.009 z m 64.689053,2.723591 c 0.42374,0.121584 1.01255,1.778299 1.61702,4.590589 0.93119,4.332261 0.90023,5.401615 -0.24623,8.436196 -1.13752,3.010918 -1.22534,3.112211 -2.37136,2.739424 -0.48831,-0.158848 -1.16777,-0.19766 -1.50951,-0.08596 -0.48629,0.15894 -0.54923,-0.04161 -0.2922,-0.92219 0.49479,-1.695078 2.06767,-10.515674 2.25691,-12.655796 0.0914,-1.033293 0.25996,-1.959616 0.37456,-2.05928 0.0534,-0.04641 0.11027,-0.06035 0.17081,-0.04298 z m -66.365044,0.47203 c 0.111736,-0.09717 0.455883,0.08807 0.764731,0.411703 0.350145,0.366916 0.383668,0.588152 0.0893,0.588152 -0.536509,0 -1.161896,-0.732117 -0.854036,-0.999855 z m -1.205186,1.123517 c 0.263261,-0.0078 0.44263,0.29099 0.786406,1.13106 0.354064,0.865209 0.181665,0.852234 -0.765597,-0.05806 -0.459357,-0.44143 -0.587665,-0.828992 -0.321673,-0.971957 0.115496,-0.06207 0.213109,-0.09842 0.300864,-0.101043 z M 6.1718249,54.009176 c -0.3829498,-0.0042 -0.4805517,0.733019 -0.3459493,2.599928 0.5841101,8.101502 0.7501163,13.719218 0.9216645,31.175005 0.1043386,10.616871 0.3404388,23.820401 0.5245596,29.341181 0.2203184,6.60614 0.174016,10.91546 -0.1352583,12.60528 -0.273894,1.49649 -0.3371007,3.91228 -0.1508651,5.79102 0.3538128,3.56934 -0.1124072,4.57476 -2.1233831,4.57476 -0.6959429,0 -1.0412482,0.22396 -1.0404491,0.67562 0.00103,0.58116 0.466543,0.67925 3.329437,0.69976 1.8305329,0.0131 3.3285709,-0.1172 3.3285709,-0.28956 0,-0.17235 -0.396232,-0.31368 -0.880047,-0.31368 -0.804597,0 -0.871456,-0.23886 -0.786406,-2.79899 0.05114,-1.53945 -0.05583,-13.83089 -0.23757,-27.31433 C 8.394396,97.271741 8.152776,79.128963 8.039432,70.438194 7.8289636,54.300479 7.7978601,54.027178 6.1718249,54.009183 Z m 49.3068781,1.450017 c 0.238578,-0.04951 0.271198,0.539264 0.274856,1.729014 0.0068,2.210472 0.0014,2.219892 -1.32484,2.219892 -1.575969,0 -1.57881,-0.01039 -0.461265,-1.848904 0.828128,-1.36238 1.272675,-2.050485 1.511249,-2.100002 z m 89.178627,1.333144 c -0.28925,-0.09634 -0.55578,0.265762 -0.55578,1.168014 0,0.725487 0.1329,1.435139 0.29567,1.576695 0.7051,0.613207 1.07998,0.156547 0.95201,-1.160467 -0.0906,-0.932447 -0.40266,-1.487811 -0.6919,-1.584235 z m -0.0156,3.42183 c -0.12436,-0.04374 -0.22995,-0.04714 -0.28613,0.0024 -0.11236,0.09772 -0.29528,9.693747 -0.40665,21.324989 -0.18669,19.500344 -0.14549,21.138074 0.52977,21.023364 0.52527,-0.0892 0.74403,-0.55852 0.77253,-1.66115 8.9e-4,-0.0412 0.005,-0.0597 0.007,-0.0987 -0.003,-0.0976 -0.001,-0.18919 0.002,-0.25336 0.0231,-0.13532 0.0109,-0.27121 0.008,-0.40794 0,-0.1848 8.9e-4,-0.36941 8.9e-4,-0.55422 -2.7e-4,-0.16068 -5e-5,-0.32114 0,-0.48183 1e-5,-0.26997 -1e-5,-0.53987 0,-0.80983 -0.0133,-0.0818 0.009,-0.16532 0,-0.24734 -0.0389,-0.339967 -0.008,0.0684 -0.0495,-0.199807 -0.0257,-0.168206 -0.0216,-0.204234 -0.0226,-0.355909 0.003,-0.03937 0.004,-0.07839 0.007,-0.117627 l -0.55751,-0.09727 0.19768,-5.133499 c 0.10841,-2.823644 0.36657,-7.219022 0.57399,-9.767073 0.50914,-6.254523 0.24957,-21.37713 -0.3763,-21.921431 -0.13249,-0.11523 -0.27622,-0.19981 -0.40057,-0.243555 z m -86.851535,1.546535 c 0.236963,-0.206076 3.716784,1.161579 4.011799,1.576694 0.125307,0.176356 -0.220746,1.01478 -0.769068,1.863234 -0.991356,1.533992 -2.00465,1.98197 -2.399099,1.060179 -0.379202,-0.886158 -1.026888,-4.340731 -0.843632,-4.500107 z m 5.910639,1.894154 c 0.208317,0 0.625024,0.825221 0.926001,1.833824 0.300977,1.008603 0.841029,2.654767 1.199983,3.658598 0.358757,1.003831 0.520723,2.010825 0.359822,2.237234 -0.160895,0.22641 -0.06189,0.653706 0.220227,0.949338 0.376666,0.394685 0.383574,0.74759 0.02601,1.328619 -0.267825,0.435207 -0.671073,1.532339 -0.896525,2.437808 -0.225447,0.905472 -1.171029,4.543918 -2.101705,8.085564 -0.930671,3.541646 -1.812824,6.544164 -1.960381,6.672493 -0.378442,0.32912 -0.744018,-3.057435 -1.26848,-11.760751 -0.249513,-4.140581 -0.563345,-8.255918 -0.6971,-9.14499 -0.204552,-1.359712 -0.09818,-1.683597 0.668489,-2.040431 0.501302,-0.233325 1.413829,-1.286473 2.028009,-2.340539 0.614183,-1.054062 1.287333,-1.916767 1.495646,-1.916767 z m 41.711596,2.733393 c 0.19323,-0.0244 0.36365,0.166168 0.69711,0.548187 0.88749,1.01676 0.86693,1.247591 -0.15606,1.723732 -2.13235,0.992462 -2.87588,0.163828 -1.3734,-1.530698 0.4234,-0.47752 0.63913,-0.71684 0.83235,-0.741221 z m -6.00599,0.154578 c 0.22732,0.01039 0.52457,0.161007 0.75086,0.398133 0.44604,0.467402 0.41865,0.574578 -0.14566,0.574578 -0.82876,0 -1.37041,-0.629685 -0.80375,-0.934254 0.0551,-0.02962 0.12278,-0.04192 0.19855,-0.03845 z m -1.876271,1.322585 c 0.134495,-0.104022 0.593801,0.03506 1.291021,0.483338 0.73248,0.470964 1.33178,0.910244 1.33178,0.976482 0,0.370363 -1.37046,0.0312 -1.96558,-0.486356 -0.601034,-0.522694 -0.791717,-0.869441 -0.657221,-0.973464 z m 10.829341,1.316555 c 0.45849,0.01884 0.73381,0.156431 1.07253,0.423014 0.42849,0.337242 0.96293,0.615976 1.18785,0.619064 0.22492,0.0031 1.20031,0.587465 2.16673,1.29846 1.65966,1.221018 1.71433,1.329202 0.99537,1.95447 -0.41866,0.364093 -0.96618,0.995909 -1.21733,1.404017 -0.60373,0.981058 -1.42481,0.920599 -4.82248,-0.354395 -2.78469,-1.044966 -3.12806,-1.372696 -3.74129,-3.573392 -0.26492,-0.950736 -0.15283,-1.026362 2.18668,-1.481688 1.07195,-0.208627 1.71345,-0.30839 2.17194,-0.28955 z m -11.902738,0.263911 c 0.11162,0 0.590255,0.180375 1.062991,0.400396 0.847677,0.394546 0.847047,0.421045 -0.03813,1.930341 -0.856327,1.459778 -1.863042,1.947011 -2.415573,1.169516 -0.252922,-0.355627 0.996647,-3.500253 1.390714,-3.500253 z m 3.550538,1.043589 c 0.10451,-0.02124 0.19574,0.0035 0.27571,0.07314 0.3199,0.278209 -0.004,1.354602 -1.05432,3.500249 -0.83429,1.703904 -1.660128,3.099436 -1.834656,3.101366 -0.174529,0.002 -0.523264,-0.331925 -0.775137,-0.74122 -0.48245,-0.783972 -0.198018,-1.958241 0.47427,-1.958241 0.218034,0 0.396239,-0.152215 0.396239,-0.33781 0,-0.18559 0.524874,-1.153417 1.166174,-2.151276 0.60566,-0.942419 1.03815,-1.422546 1.35172,-1.486212 z M 56.430698,72.31877 c 0.265423,0.03961 0.186768,0.400395 -0.3,1.072243 -0.350945,0.484388 -0.912896,1.628033 -1.248539,2.541112 -0.738993,2.010349 -1.339166,2.441363 -1.347378,0.968185 -0.0036,-0.596459 -0.110858,-1.431769 -0.238438,-1.856443 -0.168291,-0.560205 0.207908,-1.073884 1.369056,-1.871528 0.890345,-0.611613 1.499872,-0.893187 1.765299,-0.853569 z m -45.438146,0.701255 c -0.273213,-0.03395 -0.51242,0.106261 -0.51242,0.447147 0,0.3362 0.316585,0.611525 0.703169,0.611525 0.386585,0 0.623807,-0.206308 0.527161,-0.458457 -0.137189,-0.357927 -0.444696,-0.566273 -0.71791,-0.600215 z m 104.613688,0.269193 1.53293,0.787217 c 0.84333,0.432727 1.8642,1.104019 2.26818,1.492246 0.92796,0.891724 3.38579,5.04642 3.38579,5.723155 0,0.902307 -0.90832,0.541055 -1.68553,-0.670338 -0.45334,-0.706616 -1.23607,-1.265736 -1.9543,-1.395729 -1.49393,-0.270379 -2.31123,-1.068614 -2.99736,-2.92718 -0.29397,-0.796266 -0.719,-1.447756 -0.94422,-1.447756 -0.49578,0 -0.49548,0.176271 -0.002,2.026858 0.21262,0.796265 0.2996,1.447755 0.19335,1.447755 -0.3535,0 -2.82049,-1.685531 -2.82049,-1.927326 0,-0.130911 0.67984,-0.883818 1.51126,-1.673211 z m -47.151423,0.563266 c 0.50299,0.0095 1.30315,0.269163 2.621066,0.783448 0.976635,0.381103 2.574764,0.909634 3.5514,1.174794 1.758613,0.477469 1.774265,0.498263 1.610093,2.173895 -0.09116,0.930556 -0.290935,4.211158 -0.443924,7.290052 -0.225288,4.533911 -0.397172,5.575511 -0.905191,5.480357 -0.344987,-0.06462 -1.943117,-0.160963 -3.551399,-0.214148 -1.608283,-0.05318 -2.920142,-0.260766 -2.914993,-0.461471 0.0051,-0.200701 0.448937,-2.015396 0.986695,-4.032601 1.675056,-6.283376 2.437232,-10.487951 1.973383,-10.891346 -0.623639,-0.54236 -0.915338,0.05891 -1.182642,2.441579 -0.262609,2.340778 -0.723931,4.399726 -1.808648,8.063699 -0.408606,1.380193 -0.842903,3.166785 -0.964147,3.970015 -0.220338,1.459705 -0.220995,1.460361 -2.169337,1.351239 -1.07211,-0.06005 -1.972878,-0.1962 -2.002,-0.302369 -0.191238,-0.697489 1.410506,-7.845959 2.024542,-9.035654 0.529292,-1.025502 1.5116,-4.000848 2.335809,-7.073642 0.130603,-0.486905 0.336304,-0.727352 0.839293,-0.717847 z m -57.060824,0.612281 c -0.599462,0 -1.014979,0.703512 -0.687564,1.164234 0.15336,0.215801 0.464611,0.292582 0.691899,0.170415 0.539199,-0.28981 0.535835,-1.334649 -0.0043,-1.334649 z m 94.077417,0.386068 c 0.26225,0 0.32577,0.729352 0.15954,1.833824 -0.37546,2.494583 -0.59479,2.553659 -0.59479,0.160612 0,-1.097079 0.19577,-1.994436 0.43525,-1.994436 z m -11.712852,0.119893 c 0.291646,-0.0048 0.532071,0.02394 0.650284,0.08747 0.726829,0.390663 2.01442,2.948213 2.810946,5.583661 0.417143,1.380194 0.947252,2.856905 1.178312,3.281579 0.44882,0.824959 2.55442,5.716122 2.95834,6.871562 0.25641,0.73346 0.37981,0.724021 -4.804275,0.34686 -1.593478,-0.11593 -1.605527,-0.130724 -2.093901,-2.509444 -0.270213,-1.316051 -0.907804,-3.869278 -1.416747,-5.674146 -0.508937,-1.804869 -1.036777,-4.256645 -1.173107,-5.448689 -0.239915,-2.097747 -0.210141,-2.175864 0.931203,-2.424991 0.324283,-0.07079 0.667304,-0.109083 0.958945,-0.113858 z M 89.65659,75.62297 c 0.392105,0 0.804813,0.390893 0.91733,0.868653 0.1125,0.477758 0.814971,3.561478 1.560671,6.852709 0.745697,3.291231 1.480211,6.374951 1.631772,6.85271 0.196743,0.62018 0.08513,0.868653 -0.388435,0.868653 -1.173329,0 -1.589287,-0.904298 -2.314998,-5.02944 -0.77824,-4.423747 -1.331587,-7.223548 -1.809512,-9.158564 -0.248616,-1.0066 -0.168768,-1.254721 0.403172,-1.254721 z m -2.932333,0.458455 c 0.793516,-0.06654 1.44443,0.0203 1.447093,0.193034 0.01599,1.066189 1.875011,10.58648 2.432047,12.455976 0.369314,1.239491 0.67109,2.358973 0.67109,2.487576 0,0.244134 -1.15966,0.229494 -3.197644,-0.04072 -1.41106,-0.187092 -1.562713,-0.534299 -1.910094,-4.358347 -0.14467,-1.592531 -0.406062,-3.851029 -0.580916,-5.018885 -0.174853,-1.167856 -0.314822,-2.905163 -0.311266,-3.860682 0.0066,-1.676416 0.05751,-1.741214 1.44969,-1.857952 z m -5.236059,0.31368 c 2.140792,0 2.204952,0.03351 2.417309,1.254722 0.630728,3.627241 1.296651,9.492756 1.347383,11.871596 0.02876,1.348184 0.02424,1.35115 -2.073098,1.419855 -1.156136,0.03787 -2.203995,-0.07358 -2.328004,-0.248077 -0.187262,-0.263506 -1.540536,-12.262832 -1.55807,-13.81551 -0.0036,-0.321772 0.727917,-0.482586 2.19448,-0.482586 z m -70.564122,0.386068 c -0.244159,0 -0.443924,0.260596 -0.443924,0.579103 0,0.318506 0.199765,0.579102 0.443924,0.579102 0.244159,0 0.443925,-0.260596 0.443925,-0.579102 0,-0.318507 -0.199766,-0.579103 -0.443925,-0.579103 z m 67.082086,0 c 0.217181,0 0.396621,0.217164 0.398839,0.482586 0.0036,0.402831 0.232089,3.137745 1.02224,12.257664 0.07063,0.815218 -0.129609,0.983045 -1.287555,1.081291 l -1.370792,0.116879 0.09797,-2.297561 c 0.274367,-6.405654 0.787013,-11.640859 1.139298,-11.640859 z m -67.082086,1.930342 c -0.244159,0 -0.443924,0.17373 -0.443924,0.386068 0,0.212337 0.199765,0.386067 0.443924,0.386067 0.244159,0 0.443925,-0.17373 0.443925,-0.386067 0,-0.212338 -0.199766,-0.386068 -0.443925,-0.386068 z m -0.124854,1.544272 c -0.599473,0 0.37434,38.524733 0.988426,39.102973 0.177063,0.16673 0.232583,-0.6361 0.12312,-1.78406 -0.109462,-1.14795 -0.02693,-2.17927 0.183814,-2.29227 0.210742,-0.11301 1.781595,0.37597 3.490705,1.08732 6.487577,2.7002 13.027815,4.10606 29.077083,6.25024 2.651704,0.35426 17.26428,0.27391 17.691101,-0.0973 0.77899,-0.67746 -1.909188,-0.94626 -9.507971,-0.95159 -9.563374,-0.007 -19.48521,-1.11339 -25.496202,-2.84424 -1.831191,-0.52729 -4.028619,-1.07107 -4.883174,-1.20797 -1.756615,-0.2814 -3.320691,-0.75015 -6.214949,-1.86248 -1.098715,-0.42226 -2.497078,-0.88458 -3.107475,-1.02776 l -1.109811,-0.26089 -0.122254,-5.85965 c -0.0674,-3.2231 -0.01083,-5.86039 0.125722,-5.86039 0.136557,0 1.247501,0.44029 2.469332,0.97875 1.221832,0.53845 2.400329,0.88334 2.618464,0.7661 0.218133,-0.11724 0.510918,-0.0518 0.651147,0.14553 0.140229,0.19732 1.05352,0.47576 2.028875,0.61906 0.975356,0.14331 1.773099,0.34117 1.773099,0.43885 0,0.0977 -0.543772,0.58393 -1.208655,1.0813 l -1.209522,0.90484 1.478304,1.20043 c 1.448701,1.17692 3.691868,1.62652 4.243299,0.85056 0.136731,-0.1924 0.648617,-0.25879 1.13669,-0.14779 0.732876,0.16668 0.889198,0.009 0.900855,-0.90484 0.01505,-1.17943 0.88397,-2.45818 1.669921,-2.45818 0.716432,0 2.311532,2.12633 2.311532,3.08101 0,0.67394 -0.23918,0.82391 -1.220794,0.76761 -2.098228,-0.12032 -2.13965,-0.0153 -0.40144,1.01192 1.874358,1.10766 1.97229,1.09627 2.217023,-0.25109 0.182084,-1.00245 0.668803,-1.06899 3.805443,-0.52104 1.160554,0.20273 1.644861,0.11055 2.068759,-0.39361 0.48478,-0.57658 0.87019,-0.60742 3.110076,-0.24733 1.406302,0.2261 2.629814,0.3483 2.718173,0.27146 0.429557,-0.37358 -2.377065,-1.47269 -4.220755,-1.65286 -1.614972,-0.15781 -2.413967,-0.4997 -3.554001,-1.5209 -1.015676,-0.9098 -1.874112,-1.3173 -2.77453,-1.3173 -1.472738,0 -1.459957,0.0199 -0.871376,-1.32636 0.447087,-1.02266 2.221673,-1.42457 2.240433,-0.50747 0.01014,0.4948 1.738815,-1.21486 1.756625,-1.73731 0.01756,-0.515 -2.872297,-0.30669 -3.828852,0.27599 -1.235926,0.75284 -1.42686,0.49448 -1.224262,-1.65135 0.371116,-3.930682 0.51425,-4.219743 2.273382,-4.581546 1.343913,-0.276406 1.807725,-0.651209 2.674821,-2.163338 0.576848,-1.005969 0.926998,-2.001562 0.777735,-2.211598 -0.43864,-0.617234 -2.706811,-0.437748 -3.718738,0.294075 -2.08121,1.50513 -3.199724,6.384647 -2.442454,10.653077 0.230355,1.29841 0.159853,1.46638 -0.559242,1.34595 -0.639314,-0.10708 -0.892983,-0.63547 -1.143627,-2.3805 -0.177191,-1.23365 -0.525784,-2.88161 -0.775134,-3.662367 -0.249351,-0.780761 -0.454687,-1.870323 -0.456065,-2.421223 -0.0032,-1.290757 -1.74383,-3.052351 -3.016434,-3.052351 -0.738642,0 -1.168382,0.390095 -1.6994,1.544272 -0.390771,0.849351 -0.805201,1.544273 -0.920797,1.544273 -0.115596,0 -1.695632,-0.445735 -3.511516,-0.99081 -3.752865,-1.126492 -6.441526,-1.178156 -3.728276,-0.07163 0.854556,0.348507 2.34319,0.74437 3.307761,0.879961 1.218756,0.171325 2.284032,0.707505 3.492441,1.758421 0.956383,0.831737 1.878312,1.512594 2.048818,1.512594 0.170505,0 0.760157,0.94384 1.310099,2.09774 1.026007,2.15281 2.274932,3.52308 2.266444,2.48607 -0.0024,-0.29141 -0.471201,-1.40098 -1.041316,-2.4657 -0.687271,-1.28352 -0.920416,-2.19419 -0.692766,-2.702477 0.188844,-0.421644 0.473475,-1.285776 0.632073,-1.919789 0.408313,-1.632231 0.913124,-0.677268 1.530327,2.893246 1.063466,6.15216 0.951553,5.82767 1.967316,5.70658 0.594993,-0.0709 0.938138,0.10019 0.938138,0.4675 0,0.79593 -1.593619,0.5082 -2.343611,-0.42301 -0.70916,-0.88052 -1.42975,-0.95904 -1.42975,-0.1561 0,0.86342 -0.265982,0.74081 -2.512685,-1.1582 -1.732591,-1.46446 -3.258339,-2.20245 -3.258339,-1.57594 0,0.0888 -0.112121,0.41478 -0.248842,0.72463 -0.178319,0.40413 0.189619,0.63538 1.300561,0.81662 0.851775,0.13898 2.011801,0.60474 2.57858,1.0353 l 1.030912,0.7827 -2.219625,-0.24959 c -2.101842,-0.23609 -3.999301,-0.74559 -8.705957,-2.33978 l -2.047083,-0.69368 -0.280054,-5.619858 C 11.444404,82.961449 11.222577,80.255787 10.799222,80.255787 Z M 69.78488,91.529429 c 0.578643,-0.004 1.289345,0.03054 2.145059,0.100292 3.085878,0.251485 3.570169,0.440399 3.25227,1.269801 -0.207202,0.540593 -7.084407,0.335424 -7.329099,-0.218672 -0.345284,-0.781881 0.195843,-1.139419 1.93177,-1.151418 z m 11.651295,0.01282 c 0.09034,-0.0035 0.199651,0.01745 0.330342,0.06108 0.386205,0.128889 1.335095,0.234872 2.108643,0.235258 1.255779,7.73e-4 1.41181,0.124863 1.454027,1.158205 0.04111,1.006411 -0.103616,1.1538 -1.109812,1.13106 -1.8988,-0.04286 -3.155161,-0.763778 -3.155161,-1.811203 0,-0.529022 0.10095,-0.763686 0.371961,-0.774395 z m -3.289555,0.199064 c 1.371488,0 1.450821,0.04919 1.654317,1.021722 0.08425,0.402645 -0.0463,0.768195 -0.29046,0.812855 -0.659353,0.120607 -2.6172,-0.220878 -2.978283,-0.519532 -0.587495,-0.485914 0.430585,-1.315045 1.614426,-1.315045 z m -14.173516,0.188513 c 1.958304,-0.111088 3.377674,0.424026 2.660083,1.002874 -0.242117,0.195304 -1.400375,0.443191 -2.57338,0.550448 -1.980526,0.181097 -2.123089,0.135946 -1.997662,-0.62887 0.108744,-0.663064 0.481362,-0.843355 1.910959,-0.924452 z m 23.484668,0.405673 c 0.318418,-0.0067 0.730789,0.0045 1.264147,0.0249 2.019237,0.07694 2.349353,0.202137 2.471068,0.932743 0.131446,0.789008 -0.0186,0.837344 -2.327139,0.755547 -2.210045,-0.0783 -2.467516,-0.175424 -2.471068,-0.931991 -0.0026,-0.579886 0.107745,-0.761249 1.062992,-0.781185 z m -53.444398,0.274467 c 0.935195,0 0.945175,0.952851 0.01648,1.606858 -1.209504,0.851748 -1.797376,0.903705 -1.797376,0.15835 0,-0.606031 1.169267,-1.765208 1.780902,-1.765208 z m -9.720395,1.158204 c 0.446456,0 0.529855,1.94205 0.12312,2.863843 -0.403675,0.914857 -1.949975,0.77615 -1.949975,-0.174939 0,-0.884428 1.226003,-2.688904 1.826855,-2.688904 z m 99.425311,0.772137 c -0.20625,0 -0.34908,0.955187 -0.31733,2.122622 0.0325,1.197364 0.24803,2.067621 0.49421,1.996691 0.24003,-0.0692 0.6895,0.29886 0.99883,0.81738 0.75182,1.26027 0.73905,1.27418 -0.60259,0.66884 -1.25301,-0.56535 -2.52597,-0.37981 -2.26125,0.32952 0.0893,0.23925 0.997,0.83872 2.01674,1.33239 1.79255,0.86779 2.42803,2.03002 1.40981,2.5773 -0.24416,0.13123 -0.44392,-0.10919 -0.44392,-0.53386 0,-1.29413 -0.83539,-1.31696 -2.05489,-0.0566 -1.14691,1.18538 -3.42026,2.45608 -3.80111,2.12488 -0.1086,-0.0944 -1.63465,0.0664 -3.391,0.35741 -1.79967,0.29822 -3.29909,0.38054 -3.43608,0.18776 -0.4689,-0.65981 -1.0786,-0.33355 -1.0786,0.57759 0,0.59546 -0.31328,0.99134 -0.88785,1.12201 -0.80859,0.18389 -0.89008,0.007 -0.91299,-1.98162 l -0.0251,-2.18369 -2.66963,-1.69056 c -2.02172,-1.28058 -2.79378,-1.58257 -3.1829,-1.24416 -0.81351,0.70748 0.18885,1.69765 2.39563,2.36693 1.12675,0.34173 2.00789,0.87021 2.09303,1.25472 0.18084,0.81659 -0.50418,0.86609 -1.24506,0.0897 -0.57317,-0.60061 -1.53987,-0.41098 -1.09508,0.2149 0.14047,0.19766 0.0915,0.35968 -0.10837,0.35968 -0.19984,0 -0.61238,-0.34746 -0.91734,-0.77214 -0.53847,-0.74976 -2.3228,-1.09677 -2.3228,-0.45167 0,0.17635 0.89797,0.88193 1.99593,1.56765 2.01046,1.25565 3.19565,2.60468 2.68089,3.05235 -0.15296,0.13303 -0.6654,0.0319 -1.13929,-0.22545 -1.12175,-0.60923 -1.3179,-0.59079 -1.3179,0.12592 0,0.50396 0.60168,0.56688 3.96238,0.41472 2.1795,-0.0986 4.36654,-0.36688 4.85976,-0.59645 0.49322,-0.22956 2.10491,-0.56104 3.58175,-0.73669 2.36473,-0.28124 2.77787,-0.23123 3.45949,0.42377 1.33683,1.28466 2.32588,1.57336 3.15516,0.92068 0.6661,-0.52425 0.83864,-0.51677 1.65605,0.0663 0.50196,0.35809 1.26039,1.13679 1.68553,1.73127 0.56669,0.79245 1.00328,1.01769 1.6361,0.84302 1.11993,-0.30913 1.10005,-0.18756 -0.41011,2.43102 -0.70064,1.21489 -1.41371,2.59947 -1.58408,3.07724 -0.17704,0.49644 -0.12146,0.86865 0.12919,0.86865 0.24121,0 0.57415,-0.53561 0.73958,-1.19063 0.37421,-1.4821 3.74057,-4.6004 4.96639,-4.6004 0.50028,0 1.15789,0.26061 1.46183,0.57911 0.83771,0.87781 1.2088,0.70492 1.45057,-0.67562 0.12084,-0.6901 0.18395,-1.29162 0.14045,-1.33692 -0.0435,-0.0453 -1.0498,0.17188 -2.23696,0.4826 -2.73909,0.7169 -3.34938,0.70984 -3.34938,-0.0361 0,-0.34396 0.8854,-0.94134 2.07049,-1.39724 1.73424,-0.66714 1.94578,-0.85619 1.30663,-1.16725 -0.62178,-0.30262 -0.66027,-0.47882 -0.20981,-0.95084 0.48147,-0.50454 0.327,-0.54342 -1.19652,-0.30389 -2.28017,0.3585 -2.30373,0.374 -2.30373,1.55182 0,0.55367 -0.3229,1.28822 -0.71791,1.63174 -1.14883,0.9991 -1.84912,0.0162 -1.74882,-2.45364 0.0953,-2.34681 -0.10582,-2.37451 -2.71904,-0.37626 -1.55395,1.18823 -2.23404,1.09181 -2.29506,-0.32575 -0.0563,-1.30689 0.89931,-1.78483 3.56701,-1.78483 1.50568,0 2.02714,-0.1489 2.02714,-0.57911 0,-0.65021 0.49858,-0.75256 1.13235,-0.23299 0.24856,0.20375 0.86552,0.19767 1.50258,-0.0144 l 1.08034,-0.35968 -1.40548,-0.85508 c -1.15342,-0.70103 -1.40784,-1.11656 -1.41414,-2.31188 -0.006,-1.23844 -0.19116,-1.51331 -1.2286,-1.83308 -2.21706,-0.68336 -2.55862,-1.00131 -2.41557,-2.244019 0.14004,-1.216609 -0.53775,-2.765816 -1.20953,-2.765816 z m -43.569671,0.7563 c 0.528431,-0.04977 0.902908,1.407164 0.908661,3.698563 0.0036,1.49484 0.306583,3.7184 0.672822,4.94123 0.819223,2.73529 0.874274,5.62874 0.110981,5.83325 -2.781727,0.74528 -5.495897,0.35462 -5.317563,-0.76536 0.06646,-0.41737 0.185454,-1.66311 0.26358,-2.76883 0.07813,-1.10572 0.379329,-2.25906 0.669358,-2.56298 0.290034,-0.30392 0.890878,-2.22573 1.336108,-4.27088 0.44523,-2.045146 0.949982,-3.840822 1.121083,-3.989625 0.08116,-0.07057 0.15948,-0.108257 0.23497,-0.115368 z m 55.322411,6.392003 c -0.12069,-0.0275 -0.28681,-0.0135 -0.46994,0.0475 -0.36623,0.12223 -0.66588,0.29056 -0.66588,0.37401 0,0.0835 0.29965,0.15157 0.66588,0.15157 0.36625,0 0.6659,-0.16833 0.6659,-0.37401 0,-0.10284 -0.0753,-0.17156 -0.19596,-0.19906 z m 8.63052,2.11734 c -0.24415,0 -0.44391,0.52119 -0.44391,1.1582 0,0.63702 0.19976,1.15821 0.44391,1.15821 0.24417,0 0.44393,-0.52119 0.44393,-1.15821 0,-0.63701 -0.19976,-1.1582 -0.44393,-1.1582 z m -42.68269,1.96955 c -0.31709,-0.0205 -0.37802,0.1388 -0.37802,0.46524 0,0.27752 0.54935,0.69371 1.22079,0.92445 2.87554,0.98818 3.84318,0.28828 1.07166,-0.77515 -1.02404,-0.39292 -1.59733,-0.59396 -1.91443,-0.61454 z m -77.379057,0.14779 c 0.180876,-0.004 0.379349,0.0207 0.610397,0.0686 1.813449,0.37572 1.881415,0.50428 0.900855,1.70187 -0.656147,0.80138 -1.297841,1.13106 -2.201417,1.13106 -1.751242,0 -1.98822,-0.54827 -0.828024,-1.913 0.595544,-0.70053 0.975561,-0.97563 1.518189,-0.98854 z m 7.786894,0.53839 c 0.912198,0.0384 2.29331,0.49191 3.17337,1.1793 1.680847,1.3129 1.313572,2.02815 -0.783805,1.52694 -1.408786,-0.33666 -3.315564,-1.65272 -3.315564,-2.28851 0,-0.31437 0.378676,-0.4408 0.925999,-0.41773 z m 63.881836,0.43281 c -0.179518,0 -0.193888,0.56365 -0.0321,1.25246 0.189884,0.80743 0.598646,1.30329 1.15056,1.39573 0.746984,0.1251 0.779377,0.0629 0.252309,-0.48937 -0.775598,-0.81274 -0.276255,-1.27071 0.65375,-0.59947 1.042328,0.75232 5.305758,2.23618 8.856818,3.08176 1.70911,0.40698 3.50702,0.66063 3.99534,0.56403 0.48831,-0.0966 1.73686,-0.17789 2.77452,-0.18098 1.03768,-0.003 1.88668,-0.17901 1.88668,-0.39134 0,-0.22378 -1.44626,-0.38789 -3.44041,-0.39059 -4.22385,-0.005 -6.76876,-0.57352 -11.84465,-2.64215 -2.15951,-0.88017 -4.073294,-1.60008 -4.252822,-1.60008 z m 48.372217,1.96201 c -0.2705,-0.0385 -0.42311,0.13264 -0.42311,0.51878 0,0.30294 0.34958,0.63054 0.77686,0.72765 0.23399,0.0532 0.37683,0.0771 0.54364,0.10858 0.0154,-0.0648 0.0367,-0.12854 0.0503,-0.19303 0.0227,-0.0422 -0.002,-0.087 0.005,-0.1297 0.008,-0.0447 0.0219,-0.0885 0.0329,-0.13271 0.0201,-0.0326 0.05,-0.062 0.0598,-0.098 0.008,-0.031 -0.009,-0.0631 -0.007,-0.0951 8.8e-4,-0.0125 0.003,-0.0251 0.005,-0.0377 -0.42903,-0.39663 -0.79178,-0.6329 -1.04392,-0.66882 z m -86.437043,0.53311 c -0.160164,-0.0124 -0.339057,-0.008 -0.546236,0.0103 -0.276242,0.0243 -0.60328,0.0748 -1.00577,0.14704 -1.036831,0.18591 -3.882607,0.21809 -6.324194,0.0717 -3.994668,-0.2396 -5.722808,-0.0433 -5.017565,0.57006 0.137761,0.1198 1.522922,0.36646 3.077994,0.54819 2.294599,0.26815 6.091712,0.28256 11.372975,0.0437 0.343629,-0.0156 0.216077,-0.31956 -0.334679,-0.79853 -0.427246,-0.37156 -0.742038,-0.55457 -1.222525,-0.59193 z m 36.418318,0.35365 c -0.04667,0.0406 -0.07865,0.17551 -0.08931,0.40039 -0.01927,0.40697 0.08573,0.635 0.233238,0.50671 0.147494,-0.12828 0.163648,-0.46102 0.03556,-0.73971 -0.07086,-0.154 -0.132805,-0.20799 -0.179475,-0.16739 z m 2.112976,0.24279 c -0.07701,0.004 -0.01283,0.17338 0.129191,0.51125 0.163484,0.38895 0.297395,0.86671 0.297395,1.06167 0,0.19497 0.610898,0.35439 1.357783,0.3544 0.79227,0 1.24387,-0.16082 1.0838,-0.38606 -0.1509,-0.21234 -0.49663,-0.38607 -0.7682,-0.38607 -0.27156,0 -0.892422,-0.30403 -1.380322,-0.67561 -0.423811,-0.32277 -0.64263,-0.4837 -0.719647,-0.47958 z m 2.358349,0.11838 c -0.27028,0.23506 3.38873,2.34009 4.91005,2.82463 1.78522,0.56861 2.37251,0.60692 2.68003,0.1742 0.13862,-0.19506 -0.32477,-0.4655 -1.03004,-0.60023 -0.70527,-0.13471 -2.43094,-0.76298 -3.83493,-1.39647 -1.40399,-0.6335 -2.63039,-1.08451 -2.72511,-1.00213 z m -16.865673,0.46676 c 0.199437,0.0852 0.286926,0.53353 0.289589,1.41608 0.0026,0.91497 0.314526,2.53206 0.693633,3.59375 0.379107,1.06169 0.791563,3.79795 0.916461,6.08058 0.258524,4.72467 0.392834,4.59639 -3.390996,3.24765 -1.342873,-0.47867 -3.706617,-1.19875 -5.252533,-1.59932 -3.208019,-0.83126 -3.134257,-0.5027 -1.166168,-5.21946 0.664488,-1.59253 1.331517,-3.76416 1.482638,-4.82585 l 0.274851,-1.93034 2.695632,-0.22471 c 1.482785,-0.12349 2.93109,-0.35075 3.218457,-0.50521 0.0924,-0.0497 0.171949,-0.0617 0.238436,-0.0332 z m 62.598613,0.57005 c -0.49763,0 -0.58432,2.26735 -0.49507,13.0298 l 0.10837,13.02981 h -1.54766 -1.54767 l -0.11618,-7.72137 c -0.11796,-7.8004 -0.21318,-8.68653 -0.93034,-8.68653 -0.74625,0 -0.86107,4.45872 -0.27832,10.81895 0.32057,3.49876 0.59724,6.39661 0.61473,6.4395 0.0175,0.0429 0.78121,0.009 1.6968,-0.0746 0.81232,-0.0743 2.13205,-0.13122 3.15083,-0.15458 -0.005,-0.15037 -0.0122,-0.3008 -0.0173,-0.45091 -0.008,-0.34828 -0.005,-0.69672 -0.002,-1.0451 -0.0261,-0.0205 -0.0948,-0.0343 -0.11012,-0.0558 -0.22419,-0.31548 -0.13597,-0.72568 0.11271,-1.05189 -9e-5,-0.16563 -8.8e-4,-0.33125 -8.8e-4,-0.49691 1.7e-4,-0.26748 4e-5,-0.53487 0,-0.8023 h -0.13692 v -10.42384 c 0,-5.73311 0.0999,-10.42312 0.22197,-10.42157 0.0111,1.3e-4 0.057,0.0581 0.0737,0.0671 -0.006,-0.0658 -0.007,-0.13096 -0.003,-0.20057 0.11486,-0.28748 0.0373,-0.072 0.009,-0.0595 -0.0138,0.006 1.8e-4,-0.0265 0,-0.0399 -4.4e-4,-0.0263 -0.002,-0.0521 -0.003,-0.0784 -0.001,-0.0541 0.009,-0.0777 0.0364,-0.11612 -0.001,-0.005 -0.003,-0.009 -0.004,-0.0144 -0.001,-0.002 -0.002,-0.002 -0.003,-0.004 -0.003,-0.008 -0.007,-0.0329 -0.005,-0.0249 0.003,0.009 0.005,0.0192 0.007,0.0286 0.003,0.005 0.004,0.005 0.007,0.0103 3.9e-4,-3.9e-4 0.001,-0.002 0.002,-0.002 -0.0328,-0.0772 -0.0793,-0.15205 -0.0772,-0.23753 8.9e-4,-0.0113 0.006,-0.0232 0.003,-0.034 -0.009,-0.0251 -0.0289,-0.0459 -0.0408,-0.0701 -0.0243,-0.0495 -0.0474,-0.0993 -0.0676,-0.15005 -0.10163,-0.25477 -0.17772,-0.52011 -0.16127,-0.79174 -0.18538,-0.1231 -0.36228,-0.21474 -0.49749,-0.21474 z m -50.204265,1.30449 c -0.04667,0.0405 -0.07863,0.17552 -0.08931,0.4004 -0.01927,0.40697 0.08573,0.63499 0.233238,0.50671 0.147494,-0.12829 0.163648,-0.46102 0.03556,-0.73971 -0.07086,-0.15399 -0.132805,-0.20799 -0.179475,-0.1674 z m 51.070445,0.16061 c -8.9e-4,10e-4 -0.003,0.002 -0.003,0.004 -3.3e-4,3.8e-4 -2.5e-4,0.002 -8.9e-4,0.002 0.001,-0.002 0.003,-0.004 0.004,-0.006 z m -0.02,0.0415 c -2.3e-4,7.7e-4 -2.4e-4,7.7e-4 -8.9e-4,0.001 1.7e-4,-1.5e-4 0.003,0.004 0.003,0.003 -4.5e-4,-0.002 -10e-4,-0.003 -0.002,-0.004 z m -0.005,0.012 c -0.007,0.0222 -0.0107,0.0395 8.9e-4,0.0286 0.002,-0.002 0.003,-0.003 0.005,-0.005 -0.002,-0.008 -0.004,-0.0156 -0.006,-0.0234 z m -18.04227,0.0257 c -0.34862,0 -0.86266,0.56463 -1.14276,1.25473 -0.64421,1.58717 -1.06235,4.7813 -0.69364,5.30014 0.35205,0.49537 1.55981,0.51915 1.55981,0.0309 0,-0.19982 -0.20972,-0.47551 -0.4656,-0.61304 -0.58352,-0.31363 -0.10131,-3.44053 0.75692,-4.91106 0.53353,-0.91411 0.53102,-1.06168 -0.0147,-1.06168 z m -16.47985,0.41246 3.01211,0.67562 c 4.34221,0.97338 11.41545,0.76724 11.41545,-0.33253 0,-0.19535 -0.63837,-0.22618 -1.44276,-0.0701 -1.63913,0.31799 -3.31267,0.31236 -8.98947,-0.0309 z m -16.808455,2.29002 c -0.386828,0 -1.680958,3.82231 -2.091304,6.17709 -0.203513,1.16785 -0.758153,3.60008 -1.232931,5.40495 -0.474777,1.80488 -0.772304,3.41188 -0.660684,3.57114 0.571558,0.81545 1.280107,0.14496 1.322235,-1.25171 0.02557,-0.84784 0.305486,-1.81316 0.621668,-2.14449 0.577417,-0.60507 1.220318,-3.01001 1.507786,-5.64097 0.0849,-0.77697 0.295597,-2.47085 0.4682,-3.76416 0.172597,-1.29331 0.201621,-2.35185 0.06503,-2.35185 z m 6.518415,1.55634 c -1.75863,0.0127 -3.249672,0.70013 -3.249672,1.49827 0,0.31263 0.74749,0.42312 2.330602,0.34385 2.03038,-0.10163 2.34922,-0.22878 2.4728,-0.98553 0.12614,-0.77244 -0.046,-0.86751 -1.55373,-0.85659 z m 5.61061,3.09759 c -0.70322,-0.0687 -0.96485,0.0506 -0.58957,0.37702 0.25171,0.21891 1.73962,0.72693 3.30689,1.1288 3.05247,0.7827 7.8141,1.07266 6.62332,0.40341 -0.36623,-0.20584 -1.32029,-0.37695 -2.11991,-0.38003 -0.79962,-0.003 -2.59037,-0.3535 -3.97972,-0.77818 -1.39287,-0.42574 -2.53778,-0.68234 -3.24101,-0.75102 z m -6.33026,1.2517 c -0.29283,0.0915 0.36659,0.36461 1.4653,0.60625 1.09871,0.24166 3.09638,0.72251 4.43925,1.06924 1.34288,0.34672 4.7389,0.77714 7.54673,0.95612 2.80783,0.17896 5.70444,0.48819 6.43691,0.68692 1.79695,0.48756 2.44159,0.50051 2.44159,0.0491 0,-0.20829 -0.44947,-0.4511 -0.99884,-0.53913 -0.54935,-0.0881 -2.26157,-0.36112 -3.80457,-0.60701 -1.543,-0.24591 -4.53949,-0.54113 -6.65887,-0.65602 -2.11939,-0.11489 -5.31162,-0.55101 -7.09414,-0.96969 -1.7825,-0.41869 -3.48052,-0.68716 -3.77336,-0.59569 z m -87.517294,0.11163 c -0.06745,-0.0886 -0.117155,0.32876 -0.119652,1.12503 -0.0033,1.06168 0.08017,1.54179 0.185547,1.06696 0.10537,-0.47484 0.108116,-1.3435 0.0061,-1.93035 -0.02551,-0.1467 -0.04948,-0.23213 -0.07197,-0.26164 z m 60.286217,2.35788 c 0.279127,-0.0931 1.905633,0.40513 3.614695,1.10768 1.709061,0.70255 4.182904,1.39878 5.497037,1.54654 l 2.388698,0.26843 -0.271385,2.36165 c -0.149575,1.29914 -0.401334,3.00985 -0.559238,3.80112 -0.262848,1.31716 -0.182569,1.47274 0.945942,1.84589 0.677935,0.22415 2.179254,1.09686 3.336371,1.93938 1.157112,0.84254 2.375416,1.53783 2.707768,1.54427 0.396132,0.007 0.331253,0.14958 -0.188148,0.41246 -0.47702,0.24146 -2.508584,0.32506 -5.105137,0.20963 -2.372045,-0.10546 -7.462245,-0.0386 -11.311411,0.1493 -3.849189,0.18792 -7.694697,0.45536 -8.545555,0.59419 -1.995434,0.32555 -1.986396,-0.22192 0.02513,-1.55635 0.916558,-0.60797 1.678488,-1.50463 1.826852,-2.14976 0.305186,-1.32707 1.38034,-2.24336 3.101406,-2.64366 1.21129,-0.28174 1.269022,-0.39868 1.288421,-2.5841 0.02876,-3.23729 0.650861,-6.64722 1.24854,-6.84667 z m -60.40847,1.42287 c -0.04667,0.0405 -0.07866,0.17552 -0.0893,0.40039 -0.01928,0.40698 0.08573,0.635 0.233234,0.50672 0.147514,-0.12829 0.163777,-0.46103 0.03555,-0.73971 -0.07086,-0.15399 -0.132802,-0.20799 -0.179477,-0.1674 z m 95.348477,0.11989 c -0.59228,-0.0194 -1.38433,-0.008 -2.35921,0.0385 -3.66609,0.17687 -4.66903,0.40021 -3.46296,0.77137 0.35385,0.10891 1.45256,0.86707 2.44159,1.68528 1.41212,1.16824 2.03652,1.44003 2.90805,1.26604 2.60538,-0.52011 2.04491,-1.69346 -0.81415,-1.70488 -2.08493,-0.008 -1.58232,-0.87831 0.73785,-1.27735 2.30201,-0.39591 2.32573,-0.72073 0.54883,-0.77893 z m 4.17135,0.0173 c -1.75078,0.16413 -1.78944,0.19919 -1.61617,1.48999 0.0977,0.72711 0.3598,1.41968 0.58179,1.53899 0.22198,0.11932 2.24715,0.31031 4.5008,0.42453 2.25367,0.1142 4.18059,0.2759 4.28232,0.35892 0.10174,0.0831 0.73795,0.1508 1.41327,0.1508 0.85286,0 1.31682,-0.24502 1.51993,-0.80154 0.35058,-0.96061 0.31982,-0.99327 -1.23727,-1.33314 -1.01132,-0.22075 -1.17689,-0.15919 -0.95028,0.3544 0.46516,1.05419 -1.83868,0.77409 -2.85256,-0.34687 -1.17482,-1.29887 -3.455,-2.0411 -5.64183,-1.83608 z m 1.72194,0.71785 c 1.35206,0.0591 2.95661,0.48928 2.95661,0.9154 0,0.76063 -3.71023,0.67529 -4.82162,-0.11084 -0.48326,-0.34183 -0.34974,-0.4877 0.66589,-0.72614 0.32574,-0.0765 0.74843,-0.0981 1.19912,-0.0784 z m -101.148994,0.99609 c -0.169288,-0.14313 -0.237833,3.01171 -0.151732,7.01105 l 0.156935,7.27197 6.214948,-0.22244 c 3.418222,-0.1222 10.809572,-0.31101 16.425222,-0.42 16.980076,-0.32955 25.514923,-0.69191 23.528021,-0.99835 -2.571852,-0.39667 -12.69516,-0.53361 -17.091109,-0.23149 -2.07535,0.14263 -8.567752,0.3492 -14.42756,0.45921 -5.859809,0.11002 -11.283379,0.30022 -12.051869,0.42301 l -1.396802,0.2232 -0.280054,-3.99264 c -0.153819,-2.196 -0.355909,-5.1786 -0.449127,-6.628 -0.09322,-1.44941 -0.307584,-2.75238 -0.476873,-2.89551 z m -6.1369153,0.50369 c -2.543e-4,10e-4 -6.037e-4,0.003 -8.656e-4,0.005 0.0014,0.001 0.00294,0.002 0.00434,0.003 2.754e-4,-0.001 0.00147,-0.003 0.00174,-0.004 -0.00216,-10e-4 -0.00302,-0.002 -0.00521,-0.004 z m 60.9928553,0.58742 c -0.258569,0 -0.469934,0.17373 -0.469934,0.38606 0,0.21234 0.08828,0.38607 0.195953,0.38607 0.107669,0 0.319035,-0.17373 0.469933,-0.38607 0.1509,-0.21233 0.06262,-0.38606 -0.195952,-0.38606 z m 26.139552,0.77213 c -0.258569,0 -0.346853,0.17373 -0.195954,0.38607 0.1509,0.21234 0.362265,0.38607 0.469935,0.38607 0.10767,0 0.195953,-0.17373 0.195953,-0.38607 0,-0.21234 -0.211366,-0.38607 -0.469934,-0.38607 z m 3.207184,1.36179 c -0.35617,0.14787 2.843028,1.5681 9.692648,4.30481 1.83119,0.73164 3.82319,1.56643 4.42711,1.85493 1.07748,0.51475 1.78785,0.45488 1.78785,-0.15155 0,-0.35588 -4.68172,-2.26395 -8.95482,-3.64955 -1.62899,-0.52824 -3.42689,-1.21728 -3.99532,-1.53071 -0.56839,-0.31341 -1.732688,-0.67962 -2.587243,-0.8136 -0.195713,-0.0307 -0.319347,-0.0354 -0.370225,-0.0144 z m -38.251244,3.27103 c -0.490284,0 -0.619689,2.8075 -0.148262,3.21748 0.524506,0.45615 0.592186,0.2874 0.592186,-1.48017 0,-0.95553 -0.199765,-1.73731 -0.443924,-1.73731 z m 86.680682,7.77113 c -0.81975,0.0136 -1.90277,0.0489 -3.33377,0.0973 -3.2351,0.10953 -9.17815,0.28932 -13.20677,0.39964 -4.02862,0.11033 -10.0216,0.29469 -13.31774,0.40944 -8.45181,0.29423 -24.860056,0.61379 -32.073588,0.6251 -4.411268,0.007 -6.105979,0.13716 -6.110901,0.46901 -0.0046,0.31014 -0.129036,0.29117 -0.384102,-0.0588 -0.291636,-0.40016 -2.021652,-0.51399 -7.595275,-0.49917 -3.969564,0.0106 -7.302268,0.0935 -7.406267,0.18399 -0.103992,0.0904 -0.875957,0.0297 -1.715006,-0.13497 -1.456504,-0.28568 -4.049514,-0.21402 -27.506872,0.76535 -8.789371,0.36696 -14.962799,0.54366 -25.858626,0.73971 -1.7852671,0.032 -2.3306059,0.1816 -2.3306059,0.6386 0,0.46175 0.3260956,0.54624 1.442756,0.3725 0.7935158,-0.12347 13.0291969,-0.30361 27.1904019,-0.4004 14.161205,-0.0968 28.344606,-0.26183 31.518669,-0.36646 3.174064,-0.10465 11.863894,-0.29616 19.310735,-0.42528 7.44684,-0.12913 14.938071,-0.30801 16.647181,-0.39738 3.05403,-0.1597 30.43807,-0.62679 31.74064,-0.5414 1.54833,0.10152 6.21439,0.0482 9.10046,-0.10406 1.56969,-0.0829 3.36761,-0.16425 4.38289,-0.20284 -0.0109,-0.0716 -0.0105,-0.14292 0.007,-0.22319 -0.14308,-0.11815 -0.24285,-0.26969 -0.18902,-0.40869 0.0289,-0.0744 0.0864,-0.1283 0.15866,-0.17117 -0.0683,-0.25345 -0.12787,-0.50865 -0.18207,-0.76459 -0.11194,0.001 -0.1651,-0.004 -0.28872,-0.002 z m 0.63988,0.52933 c -0.16668,0.05 -0.16716,0.19221 -0.12053,0.21189 0.0177,-0.008 0.0348,-0.0173 0.0538,-0.025 0.0237,-0.0304 0.0475,-0.0905 0.0668,-0.187 z m -1.65692,0.0113 c 0.24465,0.0492 0.45779,0.19364 0.45779,0.39738 0,0.0936 -0.31124,0.17042 -0.69189,0.17042 -0.38066,0 -0.56694,-0.17632 -0.41358,-0.39211 0.12669,-0.17828 0.40302,-0.22486 0.64768,-0.17569 z m 3.56354,0.14628 c 5e-5,0.006 -3e-5,0.0115 0,0.0173 2e-5,-0.003 0.002,-0.005 0.002,-0.008 0,-0.004 -0.002,-0.005 -0.002,-0.009 z" />
    <g
       aria-label="XXXV"
       id="text4487"
       style="font-size:40px;line-height:1.25;font-family:Hultog;-inkscape-font-specification:Hultog"
       transform="matrix(0.42457662,0,0,0.37609027,9.7344271,-0.10758187)">
      <path
         d="m 231.27073,48.528168 q -0.51376,2.715596 -1.54128,2.422018 l -3.57186,-1.003058 q -4.30582,0 -4.89297,1.247706 l -1.66361,-1.174312 q 0.95413,-2.07951 2.17737,-2.07951 0.29358,0 0.56269,0.09786 0.24465,-0.220183 0.24465,-0.562691 0,-0.513762 -0.53823,-1.394496 -1.71253,-1.223241 -4.50153,-6.776758 h -0.17125 q -0.51376,-0.02446 -0.75841,0.464832 -2.49541,5.333333 -4.4526,7.168196 l 0.19572,0.880734 q 2.2263,0.293578 2.2263,1.810397 0,0.611621 -0.4159,1.590214 -0.9052,-0.70948 -1.78594,-0.880734 -0.36697,-0.04893 -1.98165,-0.04893 -3.08257,0 -4.52599,0.733944 l -1.05199,-0.587155 v -1.932722 l 2.88685,-0.733945 q 0.68502,-0.171254 6.94801,-9.174312 1.24771,-0.391437 1.24771,-1.174312 0,-0.782875 -0.9052,-1.492355 -1.2477,-1.027523 -1.37003,-1.198776 -0.78287,-1.076453 -2.10397,-3.400612 -1.32111,-2.324159 -2.07952,-3.376147 0,0 -1.83486,-1.639144 l -3.27828,-0.733945 0.97859,-2.103975 5.3578,0.685015 3.00917,-0.685015 1.37003,0.464832 v 1.663608 q -1.68807,0.318043 -1.66361,1.370031 v 0.171254 l 4.64832,6.874617 0.75841,-0.195718 q 0.92966,-3.571866 3.47401,-5.993884 v -1.247706 l -1.8838,-0.685016 -0.4159,-1.859327 1.05199,-0.538226 3.91437,0.66055 q 1.66361,-0.587156 2.88685,-0.587156 1.49236,0 1.8104,1.003058 -0.80734,2.152906 -3.18043,2.152906 -1.85932,2.422018 -3.71865,4.844036 -2.78899,3.743119 -3.10704,4.892967 1.54129,1.761467 4.40367,5.333333 0.4893,1.076453 1.61468,3.058104 0.95413,1.003058 2.78899,2.93578 z"
         id="path5209" />
      <path
         d="m 258.67132,48.528168 q -0.51376,2.715596 -1.54128,2.422018 l -3.57187,-1.003058 q -4.30581,0 -4.89296,1.247706 l -1.66361,-1.174312 q 0.95413,-2.07951 2.17737,-2.07951 0.29358,0 0.56269,0.09786 0.24465,-0.220183 0.24465,-0.562691 0,-0.513762 -0.53823,-1.394496 -1.71254,-1.223241 -4.50153,-6.776758 h -0.17125 q -0.51376,-0.02446 -0.75841,0.464832 -2.49541,5.333333 -4.4526,7.168196 l 0.19572,0.880734 q 2.2263,0.293578 2.2263,1.810397 0,0.611621 -0.4159,1.590214 -0.9052,-0.70948 -1.78594,-0.880734 -0.36697,-0.04893 -1.98165,-0.04893 -3.08257,0 -4.52599,0.733944 l -1.05199,-0.587155 v -1.932722 l 2.88685,-0.733945 q 0.68502,-0.171254 6.94801,-9.174312 1.24771,-0.391437 1.24771,-1.174312 0,-0.782875 -0.9052,-1.492355 -1.24771,-1.027523 -1.37003,-1.198776 -0.78287,-1.076453 -2.10398,-3.400612 -1.3211,-2.324159 -2.07951,-3.376147 0,0 -1.83486,-1.639144 l -3.27829,-0.733945 0.9786,-2.103975 5.3578,0.685015 3.00917,-0.685015 1.37003,0.464832 v 1.663608 q -1.68807,0.318043 -1.66361,1.370031 v 0.171254 l 4.64832,6.874617 0.75841,-0.195718 q 0.92966,-3.571866 3.47401,-5.993884 v -1.247706 l -1.8838,-0.685016 -0.4159,-1.859327 1.05199,-0.538226 3.91437,0.66055 q 1.66361,-0.587156 2.88685,-0.587156 1.49236,0 1.8104,1.003058 -0.80734,2.152906 -3.18043,2.152906 -1.85933,2.422018 -3.71865,4.844036 -2.78899,3.743119 -3.10704,4.892967 1.54129,1.761467 4.40367,5.333333 0.4893,1.076453 1.61468,3.058104 0.95413,1.003058 2.78899,2.93578 z"
         id="path5211" />
      <path
         d="m 286.07191,48.528168 q -0.51376,2.715596 -1.54128,2.422018 l -3.57187,-1.003058 q -4.30581,0 -4.89296,1.247706 l -1.66361,-1.174312 q 0.95413,-2.07951 2.17737,-2.07951 0.29358,0 0.56269,0.09786 0.24465,-0.220183 0.24465,-0.562691 0,-0.513762 -0.53823,-1.394496 -1.71254,-1.223241 -4.50153,-6.776758 h -0.17125 q -0.51376,-0.02446 -0.75841,0.464832 -2.49541,5.333333 -4.4526,7.168196 l 0.19572,0.880734 q 2.2263,0.293578 2.2263,1.810397 0,0.611621 -0.4159,1.590214 -0.9052,-0.70948 -1.78594,-0.880734 -0.36697,-0.04893 -1.98165,-0.04893 -3.08257,0 -4.52599,0.733944 l -1.05199,-0.587155 v -1.932722 l 2.88685,-0.733945 q 0.68502,-0.171254 6.94801,-9.174312 1.24771,-0.391437 1.24771,-1.174312 0,-0.782875 -0.9052,-1.492355 -1.24771,-1.027523 -1.37003,-1.198776 -0.78288,-1.076453 -2.10398,-3.400612 -1.3211,-2.324159 -2.07951,-3.376147 0,0 -1.83486,-1.639144 l -3.27829,-0.733945 0.9786,-2.103975 5.35779,0.685015 3.00918,-0.685015 1.37003,0.464832 v 1.663608 q -1.68807,0.318043 -1.66361,1.370031 v 0.171254 l 4.64832,6.874617 0.75841,-0.195718 q 0.92966,-3.571866 3.474,-5.993884 v -1.247706 l -1.88379,-0.685016 -0.4159,-1.859327 1.05199,-0.538226 3.91437,0.66055 q 1.66361,-0.587156 2.88685,-0.587156 1.49236,0 1.8104,1.003058 -0.80734,2.152906 -3.18043,2.152906 -1.85933,2.422018 -3.71865,4.844036 -2.78899,3.743119 -3.10704,4.892967 1.54129,1.761467 4.40367,5.333333 0.4893,1.076453 1.61468,3.058104 0.95413,1.003058 2.78899,2.93578 z"
         id="path5213" />
      <path
         d="m 314.59788,24.13673 -0.4159,1.737003 -2.6422,1.443425 q -2.81346,7.241591 -3.74312,9.51682 -3.03364,7.363914 -4.28134,8.978593 l -1.68808,5.773701 q -2.2263,0 -2.66666,-1.712539 l -0.95413,-3.743119 -0.9786,-1.37003 -0.31804,-2.055046 q -0.0245,-0.04893 -1.59021,-3.033639 -1.02753,-1.957187 -0.9786,-3.180429 -0.66055,-1.027523 -1.95718,-3.082568 -0.19572,-0.562692 -0.53823,-1.614679 -0.95413,-2.593272 -1.8104,-3.865444 -1.3211,-1.957186 -3.08257,-1.859327 -0.0979,-0.513761 -0.0979,-1.027523 0,-1.443425 1.3945,-1.908257 l 3.57187,1.370031 3.62079,-1.027523 1.29664,0.880734 q 0.0489,0.269113 0.0489,0.342507 0,1.198777 -2.20184,2.201835 0.34251,1.321101 1.17431,3.767584 1.51682,2.837921 4.20795,8.611621 0,0 0.95413,4.159022 l 0.75841,1.027523 q 0.70948,-0.244649 0.70948,-0.587156 v -2.128441 l 6.263,-14.776758 q 0,-0.318043 -1.68807,-1.41896 -0.0979,-0.415903 -0.0979,-0.831805 0,-0.513761 0.29358,-0.905198 0.31804,-0.391438 0.8318,-0.293578 l 3.1315,0.636085 q 1.07645,-0.70948 1.93272,-0.70948 0.85627,0 1.54128,0.685015 z"
         id="path5215" />
    </g>
  </g>
</svg>
