<?xml version="1.0" encoding="UTF-8" standalone="no"?>
<!-- Created with Inkscape (http://www.inkscape.org/) -->

<svg
   version="1.1"
   id="svg2"
   width="4cm"
   height="4cm"
   viewBox="0 0 151.1811 151.18112"
   sodipodi:docname="8.svg"
   inkscape:version="1.1.2 (0a00cf5339, 2022-02-04)"
   xmlns:inkscape="http://www.inkscape.org/namespaces/inkscape"
   xmlns:sodipodi="http://sodipodi.sourceforge.net/DTD/sodipodi-0.dtd"
   xmlns="http://www.w3.org/2000/svg"
   xmlns:svg="http://www.w3.org/2000/svg">
  <defs
     id="defs6" />
  <sodipodi:namedview
     id="namedview4"
     pagecolor="#505050"
     bordercolor="#eeeeee"
     borderopacity="1"
     inkscape:pageshadow="0"
     inkscape:pageopacity="0"
     inkscape:pagecheckerboard="0"
     showgrid="false"
     inkscape:zoom="2.2394206"
     inkscape:cx="188.88814"
     inkscape:cy="144.90355"
     inkscape:window-width="1920"
     inkscape:window-height="1043"
     inkscape:window-x="0"
     inkscape:window-y="0"
     inkscape:window-maximized="1"
     inkscape:current-layer="g8"
     units="cm"
     inkscape:document-units="cm" />
  <!-- Border -->
    <rect
       x="0"
       y="0"
       width="4cm"
       height="4cm"
       class="board-border"
       stroke-width="0.1cm"
       id="border"
       fill="none"
       stroke="#000000" />
  <g
     inkscape:groupmode="layer"
     inkscape:label="Image"
     id="g8">
    <path
       id="path12"
       style="fill:#000000;stroke-width:0.320763"
       d="m 58.487353,2.6234409 c -1.162373,0.00828 -2.302583,0.078056 -3.276431,0.2222109 l -1.495078,0.2209654 0.151337,1.477668 c 0.363375,3.5470294 0.499076,3.9109307 1.420037,3.8055862 0.688954,-0.078808 0.869238,-0.2850518 0.948375,-1.0867765 l 0.09774,-0.9896765 3.130771,0.1095492 c 4.157805,0.1451724 6.951621,0.8804862 8.751029,2.3036434 1.611069,1.2741991 1.364762,1.546029 -0.913695,1.0064817 -2.738863,-0.6485712 -5.446428,-0.4921655 -7.571864,0.4381963 -2.278149,0.997209 -2.784589,1.032438 -2.784589,0.192957 0,-0.5143154 -0.215313,-0.6373773 -1.114845,-0.6373773 h -1.114846 l 0.187908,1.6731133 c 0.103307,0.920214 0.278144,1.770644 0.388433,1.889723 0.232694,0.251243 3.07347,-0.436669 4.625219,-1.119766 2.105063,-0.926676 3.299321,-1.168317 5.767179,-1.168317 2.602431,0 3.529291,0.178945 3.529291,0.680948 0,0.161681 -0.544811,1.001784 -1.210691,1.867314 -0.665881,0.86553 -1.719182,2.30653 -2.340671,3.201822 -0.621488,0.895291 -1.892094,2.58523 -2.823683,3.755168 -0.931594,1.16994 -1.925407,2.605935 -2.208254,3.191241 -0.282846,0.585305 -0.781796,1.328181 -1.109167,1.651328 -0.327368,0.323148 -0.798817,0.970791 -1.047374,1.439077 -0.384361,0.724115 -0.681852,0.860529 -1.989444,0.911872 -1.022992,0.04017 -1.633826,0.230205 -1.825497,0.568286 -0.158439,0.279461 -0.634674,0.594097 -1.058095,0.698997 -0.423407,0.104902 -1.309591,0.780556 -1.969262,1.501322 -1.122124,1.226042 -1.190175,1.416421 -1.053683,2.952224 0.08025,0.902866 0.247581,1.934412 0.371405,2.292439 0.161651,0.467401 -0.131537,1.186298 -1.039806,2.549506 -0.695729,1.044203 -2.155719,3.260829 -3.244276,4.925976 -1.088557,1.665146 -2.377508,3.597608 -2.864042,4.2942 -0.486529,0.696596 -1.298974,2.130693 -1.805947,3.186884 l -0.921892,1.92022 -0.593993,-0.721405 c -0.326729,-0.396723 -0.645896,-0.873229 -0.708762,-1.05939 -0.130839,-0.387458 -1.873418,-0.05342 -1.873418,0.359146 0,0.144124 -0.326886,0.767961 -0.726414,1.386169 -0.490218,0.75854 -0.976353,1.128081 -1.495078,1.137196 -0.696443,0.01223 -0.751244,0.118268 -0.585168,1.128482 0.146431,0.890714 0.05753,1.181388 -0.442028,1.445299 -0.653708,0.345343 -0.827713,1.24008 -0.341769,1.758387 0.156118,0.166515 0.453005,0.825282 0.659575,1.463975 0.389962,1.205721 0.19673,1.764663 -1.486881,4.301046 -0.514278,0.774769 -0.500752,0.826047 0.409871,1.580372 0.517615,0.428776 1.626883,1.354377 2.465523,2.05716 l 1.524712,1.277863 0.215026,-0.886973 c 0.481028,-1.982284 1.849649,-4.551269 2.424534,-4.551269 0.874765,0 2.220863,0.689241 2.220863,1.137196 0,0.7334 1.753863,3.744376 2.848909,4.890494 0.596321,0.624132 1.209476,1.36498 1.362028,1.646351 0.839165,1.547769 9.295607,2.928688 10.630751,1.735977 0.359861,-0.321466 0.859308,-0.477971 1.161509,-0.363501 0.291551,0.110434 1.132297,0.04505 1.868375,-0.145651 0.736077,-0.190697 1.919198,-0.492743 2.62947,-0.670989 0.710272,-0.178249 1.773449,-0.527827 2.36274,-0.776802 0.58929,-0.248982 1.206743,-0.369783 1.372117,-0.268894 0.165374,0.100888 0.300781,0.03258 0.300781,-0.151874 0,-0.184463 0.363207,-0.02374 0.807127,0.357279 0.443921,0.381007 0.807128,0.938722 0.807128,1.239274 0,0.300549 0.378052,0.883763 0.839917,1.296538 0.461864,0.412775 1.617357,1.503562 2.568305,2.423774 0.950949,0.920212 2.010674,1.673115 2.354544,1.673115 0.343868,0 0.70937,0.216086 0.81217,0.48052 0.102796,0.264436 0.590652,0.654165 1.08395,0.865814 0.493293,0.211646 1.346024,0.712605 1.895487,1.112919 0.549467,0.400311 1.317306,0.727628 1.70632,0.727628 0.90119,0 2.299051,0.89426 2.299051,1.470821 0,0.242758 -0.117453,0.44131 -0.261054,0.44131 -0.251647,0 -1.775971,3.114588 -2.65154,5.4177 -0.233225,0.613472 -0.528695,1.258821 -0.656424,1.4341 -0.127733,0.175279 -0.338962,0.958326 -0.469774,1.740337 -0.130817,0.782009 -0.35882,1.642474 -0.506344,1.912129 -0.147536,0.269666 -0.594592,1.207529 -0.993148,2.083925 -0.398556,0.876394 -0.780493,1.700994 -0.848743,1.832455 -0.06825,0.131462 0.196642,0.239015 0.588319,0.239015 0.526027,0 0.627916,0.104107 0.390324,0.398365 -0.176913,0.219096 -0.419881,1.067746 -0.539768,1.885984 -0.119885,0.818237 -0.407436,1.643057 -0.639398,1.833077 -0.231959,0.19004 -0.603689,1.60008 -0.826042,3.13336 -0.523836,3.61214 -0.174283,5.06231 1.524082,6.31961 3.482078,2.57779 6.774613,5.94734 8.388452,8.58528 1.399087,2.28693 4.722659,5.88889 5.433609,5.88889 0.766125,0 2.247892,2.10361 3.173647,4.50459 0.852537,2.21107 1.039566,2.46022 2.082142,2.77608 0.630004,0.19086 1.201803,0.29135 1.270598,0.22345 0.06878,-0.0678 -0.439864,-0.82919 -1.130608,-1.69179 -0.690754,-0.86259 -1.522629,-2.27232 -1.848829,-3.13273 -0.761324,-2.00813 -0.835518,-2.09254 -3.641537,-4.17718 -1.299494,-0.96542 -2.524901,-2.05512 -2.723422,-2.42129 -0.198521,-0.36616 -0.717207,-1.03258 -1.152682,-1.48078 -0.435471,-0.44819 -1.049927,-1.38841 -1.365179,-2.08953 -0.315247,-0.70109 -1.329532,-1.99179 -2.253652,-2.86818 -6.028064,-5.71674 -6.33252,-6.10388 -6.5144,-8.28591 -0.124328,-1.49153 0.491191,-4.23746 1.361395,-6.07623 0.337253,-0.712638 0.612912,-1.598974 0.612912,-1.970022 0,-0.899798 0.822063,-1.112497 3.289045,-0.850248 5.197244,0.552467 11.627939,0.08808 12.253205,-0.885108 0.201278,-0.313253 0.268686,-0.318766 0.272408,-0.02181 0.0028,0.217097 -0.206805,0.64732 -0.465988,0.956062 -0.259186,0.308749 -1.21017,1.565314 -2.113039,2.792256 -1.530368,2.07969 -3.268437,4.10733 -6.752126,7.8782 -1.004977,1.08782 -1.324577,1.64348 -1.083318,1.88162 0.48101,0.47482 1.979427,-0.54375 2.225907,-1.51314 0.217854,-0.8568 0.696435,-0.99407 0.974229,-0.27947 0.102211,0.26292 0.383089,0.47803 0.624265,0.47803 0.241176,0 0.915586,0.40037 1.498858,0.89008 1.468812,1.23322 2.719766,1.97812 3.323096,1.97812 0.280383,0 0.467595,0.18333 0.415545,0.40706 -0.05204,0.22374 0.429417,1.12005 1.070074,1.99181 0.640667,0.87175 1.882222,2.94712 2.759368,4.61226 0.877146,1.66515 1.752668,3.31437 1.945308,3.66492 0.858045,1.56145 1.064705,2.24282 1.71011,5.63555 0.30983,1.6287 0.73186,2.55156 1.56506,3.42404 2.45118,2.56673 3.53666,4.36398 2.97187,4.91974 -0.23401,0.23029 -1.9156,0.37127 -4.62774,0.38842 -2.343266,0.0148 -5.423014,0.19543 -6.843563,0.40146 -5.416937,0.78567 -6.295595,0.68337 -6.295595,-0.73509 0,-0.69086 0.17461,-0.78278 1.856394,-0.97848 1.021016,-0.11881 2.146959,-0.3947 2.502095,-0.61248 0.355136,-0.21777 1.188573,-0.57148 1.85198,-0.78614 1.387058,-0.44877 2.079208,-1.17304 0.859462,-0.89942 -0.425916,0.0956 -1.571487,0.47472 -2.545603,0.84279 -0.974119,0.36805 -2.517925,0.66911 -3.430922,0.66911 -1.085826,0 -1.800101,0.16607 -2.064481,0.48053 -0.541153,0.64364 -0.192923,2.65374 0.553008,3.19372 0.65687,0.47552 5.082231,0.38812 7.122266,-0.14067 1.503574,-0.38972 5.017173,-0.48265 7.985519,-0.21101 1.93692,0.17726 2.40995,0.115 3.30923,-0.43756 0.5771,-0.35461 1.04927,-0.86783 1.04927,-1.14031 0,-0.92631 -1.36733,-3.17366 -2.93088,-4.81705 -0.85737,-0.90113 -1.6474,-2.0484 -1.7555,-2.5495 -0.54565,-2.52928 -2.631845,-9.43812 -3.258155,-10.79058 -0.205319,-0.44339 -2.052113,-3.33703 -3.077175,-4.82141 -0.468506,-0.67844 -1.322519,-1.59221 -1.898014,-2.03039 -0.575495,-0.4382 -1.673063,-1.37037 -2.439039,-2.07148 -0.765978,-0.70112 -1.724157,-1.50637 -2.129429,-1.78951 l -0.737134,-0.51476 1.445262,-1.79698 c 0.794704,-0.98827 1.761417,-2.26245 2.148348,-2.83148 0.386931,-0.56902 1.056533,-1.46472 1.48814,-1.99055 0.431607,-0.525827 1.009692,-1.389491 1.284473,-1.918965 0.766974,-1.477928 2.133002,-2.665557 3.318049,-2.885007 1.942973,-0.359803 3.444714,-3.530896 3.158514,-6.668799 -0.16324,-1.789791 -0.926449,-5.582963 -1.31473,-6.533113 -0.529456,-1.295536 -1.05116,-3.750664 -1.05116,-4.947748 V 76.28524 l 1.372114,0.19171 c 0.754676,0.105407 1.807976,0.314182 2.340676,0.464343 0.5327,0.150159 1.65864,0.369162 2.50209,0.486123 0.84346,0.116965 1.53355,0.339461 1.53355,0.494837 0,0.155377 0.22583,0.282588 0.50193,0.282588 0.50651,0 2.50657,0.815915 4.75449,1.939518 0.67135,0.335565 1.43408,0.609989 1.69496,0.609989 0.58641,0 0.58593,0.03387 -0.008,1.158357 -0.26526,0.502054 -0.48618,1.343345 -0.49121,1.86918 -0.006,0.525838 -0.29342,1.31459 -0.64066,1.752786 -0.75227,0.949307 -0.79888,1.389785 -0.19926,1.881011 0.24551,0.201131 0.76748,1.402014 1.16024,2.668385 0.39276,1.266381 0.83738,2.589224 0.9881,2.939781 0.15072,0.350558 0.37824,1.28272 0.50508,2.071472 0.24967,1.552374 0.27529,1.761083 0.57446,4.616629 0.26143,2.495321 0.77805,3.987961 1.38031,3.987961 0.36442,0 0.43532,-0.22424 0.28438,-0.90254 -0.16987,-0.76346 -0.25018,-4.15866 -0.13683,-5.789921 0.0672,-0.967685 -1.09815,-4.963968 -2.32364,-7.96721 -0.98912,-2.42399 -1.01509,-2.797314 -0.31844,-4.635291 0.36748,-0.969479 0.66841,-2.043692 0.66841,-2.387674 0,-0.55247 0.2275,-0.625551 1.95161,-0.625551 1.64179,0 2.07765,-0.124406 2.74424,-0.782404 0.96859,-0.956113 1.00396,-1.747251 0.12233,-2.754289 -0.72636,-0.829661 -0.97456,-0.972292 -5.61144,-3.237923 -1.70693,-0.834031 -3.18614,-1.730344 -3.28778,-1.991801 -0.10165,-0.261458 -0.4033,-0.475543 -0.66966,-0.475543 -0.26637,0 -1.37663,-0.413381 -2.46741,-0.918719 -1.0908,-0.505337 -2.56428,-1.174092 -3.27455,-1.486384 -0.71027,-0.312287 -1.58197,-0.809867 -1.9371,-1.105447 -0.35515,-0.295592 -1.37212,-0.7883 -2.259963,-1.094869 -4.984883,-1.721277 -4.558856,-1.444245 -5.170033,-3.361789 -0.307263,-0.964033 -0.650446,-1.824491 -0.762989,-1.91213 -0.112543,-0.08763 -0.812692,-0.948099 -1.555612,-1.912129 -3.463881,-4.494819 -8.121247,-8.537915 -11.882432,-10.315667 -4.056749,-1.917452 -4.692753,-2.129406 -5.349113,-1.782663 -0.831979,0.439523 -1.142691,0.217313 -1.596598,-1.140308 -0.2889,-0.864081 -0.733653,-1.29949 -1.949717,-1.907771 -0.866583,-0.43347 -1.86161,-0.788007 -2.210774,-0.788007 -0.48836,0 -0.628549,-0.208594 -0.6085,-0.905024 0.05887,-2.043952 -2.773804,-4.246897 -5.460721,-4.246897 -1.212523,0 -1.403015,-0.08343 -1.220781,-0.53156 0.647471,-1.592161 0.707958,-4.085581 0.14314,-5.891377 l -0.580122,-1.854865 0.87901,-0.853986 c 0.483612,-0.469653 1.741061,-2.216378 2.794051,-3.881524 1.052987,-1.665147 2.86076,-4.281166 4.01735,-5.813573 1.156592,-1.532406 2.513793,-3.432585 3.016007,-4.22262 0.502234,-0.790034 1.11968,-1.436587 1.372117,-1.436587 0.252441,0 0.459055,-0.165038 0.459055,-0.366615 0,-0.201578 0.436628,0.228652 0.970446,0.956065 0.533818,0.727411 1.108493,1.32268 1.276902,1.32268 0.168408,0 0.404648,-0.537786 0.524633,-1.195081 0.119981,-0.657295 0.356479,-1.368046 0.525892,-1.579126 0.603589,-0.752027 1.544894,-2.787255 1.544894,-3.340625 0,-0.464991 -0.40606,-0.8380677 -1.869637,-1.7160623 -0.0516,-0.030953 0.204025,-0.5541565 0.568144,-1.163336 L 78.25945,6.5958313 76.094079,4.9544622 c -1.191056,-0.9027786 -2.331499,-1.641369 -2.534256,-1.641369 -0.202757,0 -0.535645,0.3615638 -0.739655,0.8035669 -0.338535,0.7333983 -0.279444,0.8585912 0.674708,1.4328528 0.575046,0.3460954 1.209099,0.629861 1.409319,0.6305303 0.770303,0.00247 1.203436,0.9334662 0.82037,1.7633674 C 75.256473,8.957516 74.991706,8.9351646 73.73323,7.7747289 73.162968,7.2488938 72.569823,6.8186647 72.415342,6.8186647 c -0.154484,0 -0.723219,-0.4799277 -1.264291,-1.0668586 -1.25325,-1.3594697 -3.280622,-2.0252138 -4.210303,-1.3824352 -0.580258,0.4011869 -0.594727,0.4903631 -0.142511,0.8608314 0.277504,0.2273361 1.260537,0.7592601 2.184921,1.1820101 0.92438,0.42275 1.899071,0.9556529 2.166001,1.1838774 0.26693,0.2282236 1.139312,0.7753741 1.938369,1.2162434 4.74796,2.6196318 4.592875,2.5036678 3.968798,2.9708978 -0.318212,0.238237 -0.69507,0.437602 -0.836766,0.443177 -0.141693,0.0056 -0.614323,0.404336 -1.050525,0.886352 -0.436201,0.482015 -0.712828,0.647439 -0.614804,0.36786 C 74.743853,12.939773 73.340484,11.734434 71.70343,11.031948 70.964356,10.7148 70.86045,10.541035 71.121417,10.0597 71.39482,9.5554318 71.070965,9.2327543 68.802816,7.7479644 65.302437,5.4565187 64.035178,5.0881776 59.600299,5.0758379 c -3.058452,-0.00847 -3.625675,-0.086387 -3.547578,-0.4879914 0.164593,-0.8463609 3.417327,-1.1058269 6.407836,-0.5110218 2.633149,0.5237271 3.201396,0.4807323 3.201396,-0.2439957 0,-0.7083828 -3.687485,-1.234255 -7.174609,-1.2093976 z m 12.405803,9.3010931 c 0.636095,-0.01944 1.752656,0.750039 2.078355,1.432231 0.341657,0.715602 0.266911,0.8304 -1.028456,1.579747 -1.034007,0.598156 -1.824847,1.49069 -3.045647,3.435859 -0.907069,1.445282 -2.23431,3.416687 -2.949167,4.380719 -0.714854,0.964031 -1.536317,2.11131 -1.825496,2.549506 -0.289181,0.438197 -1.356766,1.943998 -2.372197,3.346228 -2.11328,2.918264 -2.923878,3.570618 -3.534337,2.844541 -0.636475,-0.757014 0.106718,-2.007909 4.596213,-7.73566 1.296929,-1.654638 4.526275,-6.447034 6.562326,-9.738667 0.710272,-1.148279 1.393588,-2.09069 1.518406,-2.094504 z m 69.235164,12.057249 c -2.4e-4,0.03092 -3e-4,0.06182 -6.5e-4,0.09275 0.152,0.04911 0.29338,0.100474 0.44014,0.150007 -0.0918,-0.07422 -0.26228,-0.158482 -0.43951,-0.242751 z m -83.192163,4.841946 c 0.351834,-0.03217 0.654529,0.111562 0.654529,0.45438 0,0.258416 -0.435848,0.692235 -0.968553,0.964156 -1.028132,0.524813 -1.22478,0.271125 -0.63435,-0.817884 0.195563,-0.360701 0.596542,-0.568478 0.948374,-0.600652 z m -2.577135,1.272263 c 0.350038,-0.04948 0.647775,0.01377 0.638767,0.225944 -0.0055,0.13146 -0.359882,0.490348 -0.787579,0.797344 -0.869003,0.623759 -1.457963,0.205075 -0.804607,-0.57202 0.20123,-0.239343 0.603384,-0.401796 0.953419,-0.451268 z m 1.750459,1.521238 c 0.386101,0.02297 0.804661,0.219586 1.263659,0.592562 1.061379,0.862464 1.596124,0.9276 2.154653,0.263292 0.221053,-0.262919 0.602246,-0.478034 0.846854,-0.478034 0.340111,0 0.44455,0.590457 0.44455,2.509671 0,3.417713 -0.25871,4.608067 -0.931981,4.291086 -0.286601,-0.134932 -1.174622,-0.249076 -1.973679,-0.253952 -0.799056,-0.0049 -1.942349,0.11273 -2.540559,0.261423 l -1.087731,0.270139 0.603454,-1.020799 c 0.331858,-0.561479 1.045705,-1.406554 1.58588,-1.877897 l 0.981792,-0.857096 -1.22456,-1.74096 c -1.205229,-1.71372 -1.212693,-1.74359 -0.497521,-1.924577 0.121809,-0.03081 0.246488,-0.04252 0.375189,-0.03486 z m -3.442273,0.379066 c 0.133175,6.39e-4 0.937472,0.623913 1.787662,1.384925 1.346469,1.20523 1.481773,1.436432 1.049265,1.790753 -0.273092,0.223726 -0.496257,0.676145 -0.496257,1.00524 0,0.329097 -0.133282,0.598161 -0.296367,0.598161 -0.163086,0 -0.592581,0.466081 -0.954051,1.035736 -0.361471,0.569657 -0.993317,1.394263 -1.404276,1.83246 -0.410961,0.438196 -1.892563,2.661047 -3.292829,4.939668 -4.217139,6.862481 -4.675342,7.57421 -5.316951,8.262243 -0.33909,0.363614 -0.686532,0.947849 -0.772446,1.298406 -0.08591,0.350557 -0.17362,0.475018 -0.194218,0.276363 -0.02059,-0.198654 -0.344169,-0.440905 -0.719476,-0.537787 l -0.682275,-0.176151 0.682275,-0.945481 c 0.375307,-0.520276 0.682274,-1.082957 0.682274,-1.250479 0,-0.167523 0.520827,-0.85028 1.157725,-1.516883 0.636897,-0.666601 1.563457,-2.03806 2.058805,-3.047457 0.495346,-1.009397 1.209422,-2.262668 1.586508,-2.78541 0.377088,-0.522737 0.685429,-1.046785 0.685429,-1.164582 0,-0.347632 3.21161,-4.980368 4.564056,-6.583527 0.685923,-0.813078 1.247263,-1.613774 1.247263,-1.778927 0,-0.165153 -0.363207,-0.49187 -0.807126,-0.726386 -0.743207,-0.392625 -1.193158,-1.914454 -0.56499,-1.910885 z m -0.818479,2.373356 c 0.08878,-0.08763 0.348166,0.06286 0.57634,0.33425 0.228192,0.271389 0.342275,0.565298 0.25349,0.652937 -0.08878,0.08763 -0.348165,-0.06287 -0.576341,-0.334249 -0.22819,-0.271389 -0.342274,-0.5653 -0.253489,-0.652938 z m 7.255952,5.091543 c 2.132398,0.05917 3.822756,1.044219 5.222999,2.988948 0.891295,1.237876 0.712442,1.633811 -0.410502,0.907516 -2.261835,-1.462904 -5.478658,-2.744681 -5.883834,-2.344723 -0.109976,0.108551 0.65314,0.564429 1.69623,1.013326 3.581652,1.541381 4.963836,2.229898 4.963836,2.472948 0,0.133901 0.217923,0.243372 0.484276,0.243372 0.266352,0 0.484276,0.158888 0.484276,0.352924 0,0.194029 0.208449,0.273369 0.46347,0.176772 0.487204,-0.184549 2.119339,0.897825 2.119339,1.405467 0,0.51585 -0.719464,0.292787 -4.35849,-1.353184 C 61.933033,44.441085 59.753788,43.4565 59.043517,43.136693 58.333244,42.816886 56.694633,42.20491 55.401983,41.777286 l -2.350127,-0.777423 1.704424,-0.652317 c 1.630662,-0.624039 3.068961,-0.921853 4.348401,-0.886351 z m 5.106344,1.073708 1.157724,0.544632 c 0.793949,0.373725 1.300176,0.909331 1.611731,1.705481 0.249809,0.638354 0.503028,1.268403 0.563097,1.399861 0.135194,0.29582 -0.725421,0.318406 -1.020887,0.02678 -0.11838,-0.116936 -0.215025,-0.465491 -0.215025,-0.774316 0,-0.308825 -0.181604,-0.75509 -0.403564,-0.992165 -0.221959,-0.237074 -0.693417,-0.764089 -1.048003,-1.170808 z m -11.895044,1.11603 c 0.223336,-0.08459 1.238128,0.130784 2.254911,0.478033 1.76453,0.602614 1.868369,0.699821 2.292117,2.134338 0.244179,0.826621 0.375796,1.570437 0.291954,1.653196 -0.221689,0.218772 -1.824233,-2.193051 -1.824233,-2.745574 0,-0.32611 -0.102777,-0.366622 -0.338617,-0.133822 -0.235842,0.232801 -0.219435,0.58999 0.05297,1.18014 0.214912,0.465602 0.292869,0.943333 0.173408,1.061258 -0.252803,0.249539 -0.990049,-0.635455 -1.574529,-1.890344 -0.38623,-0.82924 -0.896037,-1.180572 -0.896037,-0.617459 0,0.142355 0.300828,0.872964 0.668401,1.623939 0.728475,1.488327 0.723697,1.563317 -0.08512,1.384929 -0.978355,-0.215781 -1.861634,-3.808021 -1.015216,-4.128634 z m -1.314736,1.308988 c 0.239656,0.01671 0.455272,0.249599 0.455272,0.560817 0,0.146065 -0.136847,0.265779 -0.303936,0.265779 -0.438192,0 -0.726111,-0.562519 -0.392212,-0.766221 0.07805,-0.04762 0.160992,-0.06595 0.240876,-0.06038 z m 6.838515,0.56455 c 0.516209,-0.102385 1.485918,0.612975 1.546786,1.244876 0.04079,0.423545 0.178504,1.092629 0.306456,1.487005 0.168335,0.518844 0.103787,0.717049 -0.233941,0.717049 -0.47462,0 -2.118152,-3.046766 -1.80847,-3.352451 0.05128,-0.05061 0.115426,-0.08185 0.189169,-0.09648 z m -6.636101,0.606256 c 0.2525,0.08509 1.22141,1.305688 1.22141,1.603401 0,0.155861 -0.122079,0.283208 -0.271143,0.283208 -0.26464,0 -1.030883,-1.402213 -1.009542,-1.847399 0.0019,-0.04017 0.02322,-0.05137 0.05928,-0.03921 z m -1.066923,0.10706 c 0.09607,0.06284 0.196288,0.261417 0.332942,0.616212 0.187763,0.487489 0.341137,1.020006 0.341137,1.183876 0,0.163867 -0.290567,0.29815 -0.645703,0.29815 -0.702036,0 -0.886836,-1.042979 -0.336723,-1.901549 0.119835,-0.18703 0.21228,-0.259525 0.308347,-0.196689 z m 10.677417,0.580733 c 0.693155,0.109173 2.584737,1.461457 2.734143,2.049068 0.09706,0.381717 0.694927,1.36467 1.328609,2.184132 0.633679,0.819463 1.095821,1.544998 1.027196,1.612738 -0.279683,0.276077 -2.844244,-2.583265 -3.208333,-3.577151 -0.21556,-0.588497 -0.508219,-1.069971 -0.650115,-1.069971 -0.422364,0 -0.294201,0.763175 0.259162,1.543025 0.741418,1.044873 0.372883,1.16044 -0.609129,0.191089 -0.78784,-0.777682 -1.455874,-2.542769 -1.096558,-2.897451 0.04154,-0.04099 0.115997,-0.05107 0.215025,-0.03548 z m 8.865161,0.880128 c 0.472425,0 2.410045,1.580451 2.78459,2.271275 0.630984,1.163807 0.132719,0.933393 -1.482467,-0.685304 -0.870458,-0.872355 -1.456255,-1.585971 -1.302123,-1.585971 z m -15.134272,0.743189 c 0.601194,-0.01437 1.081034,0.02544 1.290772,0.141296 0.530924,0.293291 0.457967,0.362281 -0.583905,0.555214 -1.703934,0.31554 -2.05057,0.844094 -1.544895,2.356551 0.377171,1.128099 0.5262,1.242129 1.857656,1.422271 1.408754,0.190604 3.317421,-0.470403 3.317421,-1.149021 0,-0.63214 -2.048368,-1.462687 -3.188783,-1.292804 -1.45512,0.216766 -1.020827,-0.432113 0.488689,-0.730118 0.81351,-0.160616 1.204625,-0.01207 2.167263,0.822238 0.929166,0.805296 1.213055,0.918239 1.359506,0.541522 0.156396,-0.40231 0.482241,-0.349356 2.100425,0.339852 1.053485,0.448694 1.915665,0.935838 1.915665,1.082419 0,0.146583 0.217925,0.266404 0.484277,0.266404 0.266353,0 0.484877,0.107557 0.486169,0.239016 0.0047,0.51632 3.71588,2.562119 4.760161,2.6242 0.441576,0.02627 -0.199584,-0.950628 -1.45283,-2.214014 -1.590926,-1.603801 -3.274944,-4.295047 -2.911965,-4.653345 0.11445,-0.112976 0.616694,-0.05833 1.116106,0.121375 0.499417,0.179699 0.726415,0.338469 0.504454,0.352301 -0.717,0.04471 -0.431048,0.866828 0.772447,2.222101 1.383385,1.557848 1.847551,1.517128 0.632459,-0.05539 -1.003518,-1.298715 -1.043781,-1.693118 -0.215655,-2.130605 1.274661,-0.673381 1.917145,-0.381395 3.130774,1.422893 0.64844,0.964032 1.236646,1.752786 1.306537,1.752786 0.06989,0 0.487718,-0.233187 0.92883,-0.518489 1.105211,-0.714824 2.685151,-0.407501 5.04959,0.982828 1.056009,0.620952 2.10072,1.129103 2.321124,1.129103 0.220404,0 0.827251,0.443209 1.348785,0.984696 0.521533,0.541484 1.384224,1.206531 1.916927,1.478292 1.609152,0.82092 5.759137,4.805789 7.889673,7.575693 0.6741,0.876394 1.458603,2.288039 1.74352,3.137089 l 0.518328,1.543646 -1.341219,2.439957 c -0.737708,1.341933 -1.569346,2.877616 -1.847564,3.412827 -1.002006,1.927593 -2.753831,4.001801 -4.444877,5.262092 -0.947781,0.706354 -1.855963,1.203572 -2.017819,1.104829 -0.161855,-0.09874 -0.376044,-0.04899 -0.476079,0.110795 -0.100033,0.159771 0.04438,0.376377 0.32096,0.481143 0.491744,0.186267 1.527659,-0.259559 2.944122,-1.266662 0.692742,-0.492642 0.706544,-0.479033 0.691102,0.718295 -0.0087,0.671511 0.175156,1.866567 0.40861,2.65532 0.233458,0.788753 0.436847,1.649212 0.452118,1.91213 0.01527,0.262918 0.199019,1.051671 0.407976,1.752785 0.768693,2.579197 1.369596,5.489815 1.369596,6.633323 0,1.068041 0.38049,1.537864 0.757312,0.935522 0.360399,-0.576081 -1.58104,-10.767245 -2.736036,-14.363377 -0.281223,-0.875601 -0.24233,-1.164633 0.223851,-1.673114 0.309944,-0.338068 0.650754,-0.614969 0.757315,-0.614969 0.10656,0 0.529505,0.89631 0.940178,1.991802 0.410673,1.095489 1.027767,2.581087 1.370855,3.301412 0.343087,0.720313 0.623632,1.475192 0.623632,1.677471 0,0.202277 0.131849,0.616847 0.293212,0.921207 0.388937,0.733591 1.385323,5.735646 1.363924,6.847439 -0.01149,0.595543 0.147469,0.876395 0.496254,0.876395 0.550499,0 0.543832,-0.168614 -0.195477,-4.850038 -0.330423,-2.092332 -2.308449,-7.68331 -3.607482,-10.196781 l -0.652007,-1.261063 1.748567,-2.601792 c 0.961667,-1.431038 2.079579,-3.294379 2.483813,-4.14108 0.404225,-0.846697 0.9258,-1.611934 1.159615,-1.700502 0.233815,-0.08857 1.050977,0.257332 1.815406,0.768712 0.76443,0.511381 1.607698,1.027706 1.87405,1.147154 0.266352,0.119448 1.210685,0.612964 2.098525,1.096737 2.90419,1.58245 3.52184,1.903124 5.97274,3.101608 1.33178,0.651223 3.6563,1.790216 5.16563,2.531457 1.50932,0.74124 3.27637,1.52026 3.92655,1.730999 1.47119,0.47685 1.80228,1.213018 0.93197,2.072096 -0.9951,0.982281 -2.69879,0.743726 -6.46458,-0.904403 -1.82589,-0.799116 -3.56461,-1.452769 -3.8635,-1.452769 -0.29888,0 -1.14467,-0.286819 -1.87972,-0.637376 -0.73504,-0.350558 -1.52497,-0.639184 -1.75551,-0.641734 -0.23052,-0.0026 -1.05028,-0.222164 -1.8217,-0.48737 -2.20152,-0.756846 -3.295569,-0.392653 -4.181299,1.390526 l -0.740922,1.491364 0.933243,3.346226 c 1.612413,5.782088 2.300276,10.853192 1.54993,11.425473 -0.195623,0.149201 -1.154689,0.517773 -2.131316,0.818506 -0.976626,0.300732 -2.429456,0.76748 -3.228512,1.037602 -0.799056,0.27012 -1.988082,0.539233 -2.642081,0.597541 -0.654003,0.05827 -1.951641,0.329335 -2.883589,0.602523 -1.927228,0.564941 -2.089883,0.572482 -3.172393,0.145648 -0.433431,-0.170899 -1.159845,-0.274196 -1.614255,-0.229684 -0.45441,0.04455 -1.713461,-0.0339 -2.798463,-0.17366 l -1.973047,-0.253945 0.718849,-2.443699 c 0.395379,-1.344037 0.873343,-3.160736 1.062508,-4.03713 0.189139,-0.876396 0.859695,-3.090667 1.489402,-4.920372 0.629712,-1.829704 1.076451,-3.394085 0.993146,-3.476319 -0.08331,-0.08224 0.0054,-0.335132 0.196735,-0.562683 0.481193,-0.572325 0.08352,-1.079307 -0.846851,-1.079307 -0.67388,0 -2.02743,-0.533924 -4.103111,-1.618962 -0.308335,-0.161177 -0.723154,-0.293168 -0.921892,-0.293168 -0.198734,0 -0.818194,-0.366593 -1.37653,-0.814771 -1.701512,-1.365803 -7.633661,-6.890554 -7.633661,-7.109487 0,-0.112956 0.472169,-0.362951 1.049266,-0.555216 0.577096,-0.192261 1.303511,-0.457773 1.614255,-0.59007 0.408013,-0.173707 0.56499,-0.09456 0.56499,0.284451 0,1.185149 1.410572,3.085889 4.345246,5.855277 1.707481,1.611314 3.325191,2.929816 3.594241,2.929816 0.269052,0 1.023394,0.358525 1.676682,0.796721 1.216775,0.81616 2.55169,1.091179 2.145193,0.441931 -0.122179,-0.195139 -0.884152,-0.644278 -1.693708,-0.997768 -0.943109,-0.411803 -2.642829,-1.801386 -4.730523,-3.867831 -3.786278,-3.747739 -5.16152,-5.440338 -4.838983,-5.955488 0.12674,-0.20242 1.047281,-0.722616 2.045566,-1.155867 0.998285,-0.433249 2.121839,-1.068998 2.497049,-1.412935 0.375208,-0.343935 0.811057,-0.58276 0.968554,-0.530939 0.504235,0.165913 0.55273,-0.508992 0.05865,-0.816639 -0.33624,-0.209358 -0.845941,-0.04899 -1.732803,0.545879 -0.691008,0.463497 -1.488301,0.842781 -1.771264,0.842781 -0.282963,0 -0.855445,0.358525 -1.272489,0.79672 -0.417042,0.438196 -0.970145,0.796721 -1.228978,0.796721 -0.258832,0 -0.923756,0.267985 -1.47742,0.595673 -0.553661,0.327684 -1.696483,0.849378 -2.539931,1.158981 -0.843448,0.309598 -1.533543,0.686957 -1.533543,0.838423 0,0.151466 -0.427413,0.275117 -0.949637,0.275117 -0.522224,0 -1.028481,0.126915 -1.125561,0.281966 -0.09708,0.155055 -0.868887,0.383987 -1.714518,0.509153 -0.845634,0.125161 -1.827892,0.386219 -2.183028,0.580112 -0.355137,0.193893 -0.892135,0.316046 -1.193035,0.27076 -0.300903,-0.04527 -1.158767,0.08002 -1.906838,0.278852 -1.019687,0.271036 -2.024402,0.268626 -4.012939,-0.0099 -3.480486,-0.487686 -4.734313,-1.350015 -8.655815,-5.949885 -0.579155,-0.679345 -0.565072,-0.74213 0.732092,-3.281492 0.875345,-1.713604 1.425548,-3.31043 1.628127,-4.722438 0.281714,-1.963612 0.246288,-2.234065 -0.451487,-3.400379 l -0.758574,-1.267287 1.303385,-1.92271 c 2.175299,-3.209352 2.090667,-3.156508 3.155995,-1.958811 0.642596,0.722441 0.986784,1.534529 1.142593,2.693911 0.122666,0.912787 0.342912,1.732557 0.489319,1.821877 0.146409,0.08932 0.184522,0.372601 0.08449,0.629907 -0.122537,0.315205 0.02842,0.468072 0.46347,0.468072 0.795017,0 1.081231,0.662609 0.827306,1.915865 -0.112004,0.552808 -0.05676,0.95233 0.131787,0.95233 0.178695,0 0.74495,0.423773 1.257982,0.94175 0.513034,0.517977 1.474768,1.165326 2.136998,1.438454 1.427698,0.588841 1.53822,1.043556 0.315915,1.297785 -0.488312,0.101566 -1.14008,0.319565 -1.448416,0.484256 -0.308336,0.164692 -0.762242,0.299392 -1.00891,0.299392 -0.471307,0 -3.383295,-1.200416 -5.473964,-2.256959 -0.677581,-0.342422 -1.376919,-0.534617 -1.554351,-0.426371 -0.411448,0.251008 0.617692,1.408577 1.25231,1.408577 0.255213,0 0.832985,0.286819 1.284466,0.637376 0.451482,0.350556 1.085225,0.637377 1.408059,0.637377 0.322833,0 0.945264,0.161104 1.382837,0.357903 0.679898,0.305787 0.769709,0.514245 0.618589,1.433473 -0.09725,0.591603 0.01013,1.757043 0.238983,2.589967 0.521205,1.89689 1.835645,4.54193 2.256808,4.54193 0.472152,0 0.383824,-0.504733 -0.167101,-0.956066 -0.266353,-0.218202 -0.484278,-0.708832 -0.484278,-1.090512 0,-0.381681 -0.144495,-0.83665 -0.320959,-1.010838 -0.176464,-0.174188 -0.411807,-1.179048 -0.52337,-2.232685 -0.189966,-1.794036 -0.152247,-1.948233 0.598407,-2.433734 l 0.801452,-0.51849 0.189172,2.222105 c 0.189539,2.231681 1.481844,5.701532 2.123756,5.701532 0.607201,0 0.709071,-0.619616 0.246551,-1.504432 -0.385855,-0.738149 -1.103195,-3.310608 -1.653981,-5.931214 -0.132299,-0.629463 0.967122,-1.22022 3.058888,-1.643857 1.500013,-0.303797 6.047815,-2.403555 7.835442,-3.617614 0.785413,-0.53341 1.799939,-1.061977 2.254282,-1.174538 0.454341,-0.112564 1.155842,-0.550748 1.558766,-0.974115 0.734228,-0.771471 2.556955,-1.089727 2.556955,-0.446292 0,0.178115 0.544811,0.572501 1.210691,0.876394 0.66588,0.303903 1.403673,0.732708 1.639477,0.952954 0.235803,0.220246 0.688877,0.538398 1.007021,0.706468 0.888273,0.469262 1.631279,2.323955 1.631279,4.07261 0,2.522128 0.479328,3.482852 1.865853,3.73961 1.306123,0.241868 2.136689,0.764568 4.721064,2.972141 2.600477,2.221328 3.573997,3.477906 3.1169,4.021573 -0.272525,0.324119 -0.275814,0.5023 -0.01262,0.662896 0.564841,0.34459 0.734834,-0.04369 0.517694,-1.183876 -0.457822,-2.404047 -6.445597,-8.071236 -8.223241,-7.782967 -0.73817,0.119703 -0.753218,0.07675 -0.544811,-1.569788 0.151784,-1.199167 0.06117,-2.139754 -0.31087,-3.227966 -0.504843,-1.476881 -2.200541,-3.607665 -2.870966,-3.607665 -0.177581,0 -0.861315,-0.368774 -1.51967,-0.819129 -0.942286,-0.644588 -1.632571,-0.831078 -3.244275,-0.876393 -1.841533,-0.05177 -2.079794,0.01482 -2.367783,0.659784 -0.1761,0.394377 -0.469406,0.717048 -0.652008,0.717048 -0.182598,0 -0.983785,0.359612 -1.780093,0.799211 -2.855845,1.576555 -6.444411,3.343738 -6.789965,3.343738 -0.193617,0 0.820358,-1.146068 2.253022,-2.547018 2.282683,-2.232149 3.150597,-3.518953 2.36274,-3.503082 -0.377186,0.0076 -0.938998,0.436723 -1.081424,0.825976 -0.178508,0.487877 -3.823112,3.598273 -4.810608,4.105601 -0.777062,0.399221 -1.861726,0.590791 -2.928991,0.516626 -0.279202,-0.0194 -0.901336,-0.629722 -1.382835,-1.355672 l -0.875859,-1.319567 1.787031,0.207272 c 1.904515,0.220953 2.026965,0.115151 1.411841,-1.217488 -0.368273,-0.797865 -1.239697,-1.132979 -1.239697,-0.47679 0,0.526703 -2.616287,0.164507 -2.94034,-0.407072 -0.215093,-0.379396 -0.08908,-0.545549 0.530309,-0.699 0.868989,-0.215289 2.08718,-1.253155 2.08718,-1.778306 0,-0.567745 -0.837614,-0.338233 -1.568855,0.430106 -0.434383,0.456416 -1.055337,0.736552 -1.58966,0.717048 -0.825482,-0.03014 -0.88657,-0.136274 -1.038548,-1.81752 -0.138029,-1.526904 -0.313676,-1.912752 -1.210692,-2.65781 -0.577082,-0.479323 -1.049266,-1.058636 -1.049266,-1.287826 0,-0.439229 2.899193,-0.971503 4.702781,-1.014573 z m 14.095725,1.182635 c -0.311057,0.03681 0.148648,0.937625 1.056833,1.984952 1.354793,1.562364 1.419105,1.966082 0.266731,1.680584 -0.756627,-0.187452 -0.81211,-0.15197 -0.44518,0.284455 0.560919,0.667149 1.089802,0.627424 1.788291,-0.134447 0.564048,-0.61522 0.541499,-0.674163 -0.825413,-2.151147 -0.77298,-0.835221 -1.519708,-1.566757 -1.659658,-1.625182 -0.07684,-0.03209 -0.137167,-0.04448 -0.181604,-0.03921 z m -11.400044,1.93765 c 0.112155,0.0046 0.208674,0.03419 0.262316,0.08713 0.10728,0.105897 -0.08341,0.181267 -0.423742,0.16744 -0.376105,-0.01531 -0.452395,-0.09123 -0.194848,-0.192958 0.116531,-0.04604 0.244114,-0.06618 0.356274,-0.06163 z m -17.764376,3.152647 c 0.320097,0.01752 0.669229,0.09045 0.785058,0.204782 0.116837,0.115333 0.05084,0.402153 -0.146923,0.637377 -0.524317,0.623616 -1.69337,0.561666 -1.445263,-0.07657 0.107784,-0.277251 0.196106,-0.564072 0.196106,-0.637376 0,-0.107997 0.290925,-0.145733 0.611022,-0.128224 z M 5.0170416,53.736814 c -0.507429,0.0019 -0.5916866,0.400525 -0.8411783,1.887853 -0.1766719,1.053217 -0.126254,1.161529 0.5397666,1.15898 0.4041038,-0.0016 1.0857772,0.107739 1.5152559,0.243375 0.6469465,0.204303 0.74554,0.1559 0.5750785,-0.282586 -0.355288,-0.913929 -0.094555,-0.773157 2.2347347,1.207528 0.7317935,0.622271 1.567171,1.131593 1.856393,1.131593 0.289223,0 0.525895,0.140721 0.525895,0.313086 0,0.172365 1.142131,1.57061 2.538038,3.10721 2.592905,2.854247 3.610436,4.498136 4.442354,7.17609 0.495106,1.593753 0.769213,1.802349 1.392296,1.061257 0.300078,-0.356908 0.178263,-0.846751 -0.577601,-2.324805 -1.071162,-2.094598 -3.268722,-5.472748 -4.538202,-6.97691 -2.133145,-2.527488 -2.226123,-2.674616 -1.694337,-2.674616 0.366198,0 4.382005,3.935879 6.202271,6.078731 0.807993,0.951182 1.858322,2.517886 2.334364,3.481918 1.274278,2.580534 3.261892,7.805403 3.939792,10.357369 0.529181,1.992106 1.49584,3.664916 2.11808,3.664916 0.242479,0 -0.814088,-4.066916 -1.86333,-7.171733 -1.222639,-3.617919 -3.752266,-8.173906 -6.450085,-11.616561 -0.749172,-0.956011 -1.310815,-1.789021 -1.247895,-1.851131 0.413723,-0.408388 2.600231,1.138247 4.361642,3.084805 2.997542,3.31262 3.292538,3.764697 5.164987,7.909943 0.931406,2.061954 1.968508,4.352156 2.304727,5.089674 0.336221,0.737521 0.684407,1.8848 0.773708,2.549507 0.537144,3.998231 0.618398,4.74162 0.546072,4.993199 -0.10883,0.378559 0.942924,1.494874 1.238437,1.314588 0.263446,-0.160712 -0.472202,-5.115857 -1.017107,-6.851797 -0.996776,-3.175487 -2.209718,-5.941969 -4.090498,-9.330971 -1.14589,-2.064791 -2.014235,-3.822194 -1.93017,-3.905175 0.399503,-0.394351 5.163436,6.328223 6.218036,8.774509 0.340034,0.788754 0.78643,1.649212 0.992514,1.912131 0.563432,0.718814 1.45974,3.441766 1.783248,5.4177 0.157836,0.964033 0.429624,2.39813 0.604085,3.186882 0.17446,0.788751 0.323946,2.158563 0.331678,3.043726 0.0078,0.885155 0.182434,1.775395 0.388431,1.978732 0.625166,0.6171 0.846152,0.163673 0.697408,-1.432233 -0.319675,-3.429923 -2.533357,-11.670282 -3.271389,-12.178003 -0.14094,-0.09696 -0.557385,-1.036608 -0.925675,-2.088279 -0.368286,-1.051671 -0.782971,-2.198949 -0.921259,-2.549506 -0.13829,-0.350557 0.201396,-0.08696 0.75479,0.585714 0.553393,0.672674 1.094093,1.49728 1.201864,1.832457 0.241871,0.752244 0.979464,0.796011 1.259875,0.0747 0.223875,-0.575889 -0.09678,-0.936043 -6.595747,-7.405145 C 24.329356,64.172857 21.215461,61.562328 19.494263,60.678868 19.050342,60.45101 18.221351,59.865636 17.651742,59.377348 16.529522,58.415333 12.219461,56.294769 9.6391082,55.435445 8.7557703,55.141274 7.7400443,54.713358 7.3823038,54.484363 7.0245632,54.255368 6.2619742,53.965967 5.6873358,53.841383 5.4024862,53.779626 5.1861845,53.736181 5.0170416,53.736814 Z m 35.3004844,1.339485 c 0.106586,-0.02588 0.214654,-0.02505 0.32348,0.0037 0.355137,0.09392 1.604202,0.172356 2.775763,0.174906 2.10079,0.0043 2.13025,0.01641 2.157176,0.880749 0.01502,0.482015 0.154125,1.211697 0.308978,1.62145 0.229754,0.60794 0.09281,0.94858 -0.744702,1.85113 -0.564479,0.608322 -1.284132,1.671262 -1.599752,2.362153 -0.31562,0.690891 -0.661195,1.242712 -0.767401,1.226205 -0.369261,-0.05744 -2.695255,-1.496262 -2.896203,-1.791377 -0.111219,-0.16334 -0.476148,-0.396843 -0.810912,-0.519114 -0.535119,-0.195452 -0.583305,-0.443145 -0.39978,-2.048442 0.240928,-2.107438 0.907251,-3.580301 1.653353,-3.761396 z m -3.447949,0.24524 c 0.117695,-0.09464 0.389313,0.03209 0.842437,0.359149 0.560366,0.404471 0.554387,0.501808 -0.143135,2.390164 -0.399925,1.082689 -0.783773,1.96877 -0.85316,1.96877 -0.189282,0 -0.756053,-1.568099 -0.756053,-2.092014 0,-0.251507 0.290566,-0.457493 0.645703,-0.457493 0.355135,0 0.645702,-0.03656 0.645702,-0.08154 0,-0.04498 -0.134981,-0.546911 -0.300152,-1.115409 -0.162846,-0.560487 -0.199038,-0.876984 -0.08134,-0.971628 z m 22.012514,1.531199 c -0.177568,0 -0.322851,0.143411 -0.322851,0.318689 0,0.175279 0.145283,0.318688 0.322851,0.318688 0.177568,0 0.32285,-0.143409 0.32285,-0.318688 0,-0.175278 -0.145282,-0.318689 -0.32285,-0.318689 z m -21.91982,4.194611 1.077012,0.690906 c 0.893913,0.573547 1.010222,0.77295 0.682903,1.169562 -0.216982,0.262917 -0.640562,1.009569 -0.941441,1.659419 -0.739351,1.596906 -0.932364,1.65316 -1.977462,0.576377 l -0.90108,-0.928053 1.029717,-1.584107 z m 47.786998,0.904403 c -0.332983,0 -0.782924,0.210534 -0.999451,0.468072 -0.328378,0.390573 -0.187847,0.551065 0.848113,0.966646 0.683102,0.274031 1.823354,0.768591 2.533627,1.099225 1.607774,0.748437 1.801485,0.771059 1.572636,0.182378 -0.261916,-0.67375 -3.235833,-2.716321 -3.954925,-2.716321 z m 5.303713,3.186883 c -0.863833,0 -0.545073,0.649028 0.549224,1.118523 1.247561,0.535249 1.856394,0.588941 1.856394,0.164321 0,-0.374146 -1.70414,-1.282844 -2.405618,-1.282844 z m 4.25886,5.43264 c -0.200749,-0.02288 -0.364719,0.0029 -0.456537,0.09337 -0.126582,0.124952 0.315991,0.750976 0.983694,1.39115 0.667705,0.640178 1.425841,1.568926 1.684877,2.063382 0.259035,0.494458 0.612682,0.8988 0.785692,0.8988 0.49442,0 0.368806,-0.9357 -0.250343,-1.864202 -0.310738,-0.466005 -0.725298,-1.133465 -0.921259,-1.48327 -0.292458,-0.522063 -1.223877,-1.030553 -1.826124,-1.099224 z m -10.125671,0.299393 c -0.324691,-0.03222 -0.09176,0.46982 0.909281,1.526217 0.793044,0.836897 1.702484,1.915011 2.021603,2.395765 0.456136,0.687177 0.675423,0.795995 1.024042,0.510399 0.715276,-0.585976 0.493513,-0.987182 -1.51967,-2.75491 -1.228823,-1.079001 -2.110565,-1.645252 -2.435256,-1.677471 z m -3.688196,0.806054 c -0.789222,0.247277 -0.822001,1.007874 -0.0536,1.248612 0.317486,0.09946 1.545566,1.112684 2.72847,2.251982 2.088411,2.011418 2.986278,2.538557 2.771979,1.627675 -0.05741,-0.244033 -1.164768,-1.542327 -2.46048,-2.885 -1.827961,-1.894219 -2.497114,-2.396547 -2.986373,-2.243269 z m -60.018134,0.154367 c -0.454641,0 -0.678594,2.342139 -0.249706,2.611128 0.534316,0.335107 0.802175,0.317738 1.043592,-0.06785 0.243503,-0.388917 -0.428992,-2.543282 -0.793886,-2.543282 z m 73.099908,0.88137 c -0.09825,-0.03325 -0.181295,-0.02396 -0.243398,0.03735 -0.281385,0.277757 -0.224711,0.638677 0.23268,1.477048 0.332985,0.610354 0.710594,1.109806 0.838653,1.109806 0.128067,0 0.413072,0.430229 0.633725,0.956066 0.499145,1.189497 0.645702,1.20351 0.645702,0.06225 0,-1.09586 -1.419618,-3.409653 -2.107362,-3.642509 z m -72.27071,2.397012 c -0.607374,0.196522 -0.616055,1.828503 -0.01324,2.486017 0.535019,0.583567 1.104126,0.806389 1.104126,0.431973 0,-0.854888 -0.805772,-3.010244 -1.090883,-2.91799 z m 14.100771,0.545877 c -0.801394,0 -1.088074,0.861434 -0.597148,1.793868 0.827624,1.571931 2.470225,6.239911 2.957366,8.404157 0.574193,2.551005 1.075607,6.69127 0.873337,7.211566 -0.177758,0.457264 0.801708,2.030396 1.264292,2.030396 0.347888,0 0.306953,-0.346655 -0.530309,-4.461632 C 38.53935,86.515108 37.995117,84.38795 36.931374,81.074296 35.687765,77.20034 35.71345,76.78102 37.100363,78.3642 c 1.970072,2.248867 3.526806,6.100706 4.314349,10.676053 0.196106,1.139319 0.430645,2.501704 0.520853,3.02754 0.09021,0.525838 0.173632,1.993672 0.185384,3.262204 0.01195,1.286557 0.175379,2.400807 0.370146,2.519624 0.246787,0.15056 0.292018,-0.852459 0.153228,-3.421535 -0.20287,-3.755335 -0.548914,-5.915203 -1.537956,-9.607335 -0.401908,-1.500337 -0.469312,-2.212793 -0.224485,-2.362153 0.41848,-0.255297 1.853504,1.419345 1.855764,2.165461 9.86e-4,0.287986 0.219816,0.606196 0.486169,0.707091 0.266352,0.100889 0.484276,0.518167 0.484276,0.926805 0,0.408648 0.127385,0.879185 0.283124,1.045704 1.005284,1.07482 2.591629,8.840711 2.512818,12.302485 -0.05314,2.334316 0.02464,2.811956 0.507605,3.109696 0.51928,0.32012 0.575002,0.18666 0.616065,-1.48327 0.09857,-4.008294 -0.448924,-6.606868 -3.23923,-15.379197 l -0.355009,-1.115407 0.817849,0.956067 c 2.606258,3.048068 4.916005,7.378694 5.609537,10.516711 0.666616,3.016219 1.015902,3.778387 0.803345,1.75279 -0.235821,-2.247254 -1.875684,-7.411495 -2.909444,-9.162296 -0.439849,-0.744933 -0.706547,-1.354425 -0.592735,-1.354425 0.331493,0 2.080245,1.946541 2.080245,2.315474 0,0.18463 0.581132,1.095549 1.291405,2.024169 0.710271,0.92862 1.291403,1.821657 1.291403,1.98495 0,0.163301 0.535556,1.926241 1.189884,3.917627 1.128739,3.435197 1.190995,3.847817 1.216364,8.057457 0.01734,2.87512 0.14958,4.47746 0.375822,4.5519 0.523977,0.1724 0.791342,-4.44692 0.438873,-7.58068 -0.29404,-2.61427 -1.084821,-5.841193 -2.063218,-8.419097 -1.343483,-3.539838 0.539981,-1.73627 3.06078,2.931061 1.276978,2.364367 1.478361,2.270077 0.727044,-0.341712 -0.395363,-1.374401 0.582014,-0.01286 1.975571,2.751791 1.773414,3.518247 2.502383,6.619647 2.540561,10.812377 0.01546,1.698 0.144889,3.01622 0.28754,2.9292 0.546668,-0.33351 0.280383,-7.57441 -0.368253,-10.01317 -0.345212,-1.29793 -0.56704,-2.41989 -0.492475,-2.49348 0.566737,-0.55943 2.805701,3.60992 3.228511,6.01212 0.453318,2.57552 0.207348,6.84724 -0.495628,8.6077 -0.794313,1.98922 -0.799627,2.2277 -0.04792,2.2277 0.502168,0 0.655998,-0.4168 0.969182,-2.62919 0.453276,-3.20198 0.471444,-6.14559 0.0536,-8.66432 -0.172673,-1.04089 -0.265948,-1.94029 -0.207454,-1.99803 0.05849,-0.0577 0.552654,0.72252 1.09782,1.73349 1.35991,2.52187 1.990389,7.26949 1.39923,10.53476 -0.22321,1.23292 -0.608294,2.50548 -0.855682,2.82774 -0.653411,0.85117 -0.570561,1.21749 0.286279,1.26605 0.733085,0.0415 0.766943,-0.0703 1.114846,-3.66492 0.197373,-2.03927 0.276312,-4.99855 0.175295,-6.57606 l -0.183495,-2.86819 1.355723,1.51376 c 0.745698,0.83258 1.507669,1.51377 1.693708,1.51377 0.487974,0 1.530547,1.26817 1.749198,2.12812 0.102892,0.40465 0.310072,0.66033 0.460944,0.56828 0.150872,-0.0921 0.19272,-0.37758 0.0927,-0.63488 -0.10003,-0.25731 -0.0233,-0.46807 0.170252,-0.46807 0.581174,0 1.940428,3.00462 2.503358,5.53346 0.420116,1.88731 0.467192,2.92272 0.232679,5.08221 -0.161981,1.49162 -0.241687,2.8683 -0.17719,3.05928 0.0645,0.191 0.323525,0.34733 0.575078,0.34733 0.892767,0 0.756046,-5.80117 -0.222589,-9.45795 -0.391484,-1.4628 -0.60636,-2.76387 -0.477971,-2.8906 0.261028,-0.25766 1.170318,0.78574 2.15213,2.46921 0.586631,1.00588 0.632673,1.03094 0.471667,0.25582 -0.125315,-0.6033 -0.01843,-0.9481 0.35879,-1.15649 0.456034,-0.25192 0.32729,-0.44747 -0.853157,-1.29155 -0.765121,-0.54711 -1.524628,-0.99467 -1.687403,-0.99467 -0.162775,0 -0.77182,-0.35851 -1.35383,-0.79671 -0.582011,-0.43819 -1.299995,-0.79672 -1.595337,-0.79672 -0.295338,0 -1.952586,-1.46243 -3.682519,-3.24975 -1.729933,-1.78732 -3.544804,-3.66244 -4.033117,-4.16723 -0.488313,-0.50478 -0.88784,-1.04025 -0.88784,-1.18947 0,-0.14923 -0.94434,-1.20789 -2.098532,-2.35282 -1.154192,-1.144935 -2.098532,-2.217908 -2.098532,-2.384561 0,-0.166643 -0.399529,-0.642893 -0.887841,-1.058148 -0.48832,-0.415247 -1.705807,-1.682513 -2.705777,-2.816527 -1.566037,-1.775966 -3.298804,-3.499639 -6.237582,-6.205091 -0.38079,-0.350558 -1.048252,-0.818095 -1.48373,-1.038849 -0.435465,-0.220753 -1.445765,-0.906224 -2.244822,-1.523725 -1.483374,-1.146336 -1.647648,-1.278263 -4.364164,-3.4925 -0.860157,-0.701115 -2.747125,-2.457884 -4.193281,-3.903931 -1.446159,-1.446049 -2.782536,-2.62918 -2.969346,-2.62918 z m -13.714864,2.904918 c -0.0508,-0.0041 -0.0949,0.0096 -0.129896,0.0442 -0.133165,0.131446 -0.04826,0.597181 0.189169,1.035112 0.465128,0.857891 0.968554,1.054846 0.968554,0.379067 0,-0.541091 -0.672222,-1.429816 -1.027827,-1.458374 z m 63.601026,2.16235 c -0.183567,0.07928 -0.307051,0.576342 -0.314654,1.35318 -0.0057,0.587664 0.02137,3.399137 0.06053,6.247411 0.06544,4.758461 0.234109,5.76148 0.812173,4.838213 0.387538,-0.618957 0.06033,-11.961593 -0.356902,-12.373446 -0.07252,-0.07159 -0.139963,-0.09179 -0.201152,-0.06536 z m -64.022876,0.419526 c -0.07225,-0.03573 -0.171036,-0.01243 -0.300781,0.03672 -0.309183,0.117115 -0.789979,0.212873 -1.068183,0.212873 -0.434956,0 -0.478414,0.382144 -0.31087,2.725656 0.107164,1.498941 0.071,3.040596 -0.08008,3.425898 -0.915976,2.336013 -1.108559,3.457088 -0.643811,3.74708 0.254863,0.159027 0.601894,0.245804 0.771185,0.192952 0.511414,-0.159665 1.43811,-4.323172 1.672899,-7.515937 0.152827,-2.07822 0.176411,-2.718063 -0.04036,-2.825244 z m 3.289676,1.289068 c -0.128085,0.04971 -0.275129,0.147715 -0.410501,0.281342 -0.413183,0.407857 -0.438474,0.814023 -0.15638,2.530209 0.599838,3.649254 0.248129,8.603159 -0.692995,9.759206 -0.172114,0.211422 -0.214297,0.541652 -0.09395,0.733861 0.374638,0.598361 0.895207,0.171479 1.38662,-1.136577 0.344429,-0.916803 0.472688,-2.702766 0.474819,-6.602826 0.0017,-2.940527 -0.09331,-5.441955 -0.211241,-5.55837 -0.05896,-0.0582 -0.168282,-0.05654 -0.296367,-0.0069 z m 2.886112,2.698891 c -0.07036,-0.02702 -0.117093,-0.01862 -0.13368,0.0305 -0.06635,0.196494 0.206992,1.25705 0.607236,2.357178 0.632104,1.737422 0.730611,2.653388 0.750378,6.970684 0.01578,3.445692 -0.09722,5.112874 -0.367623,5.434507 -0.214526,0.25517 -0.306366,0.77932 -0.204304,1.16458 0.304035,1.14764 0.906437,0.80038 1.411843,-0.81353 0.340303,-1.086682 0.450105,-2.727586 0.38906,-5.816064 -0.132926,-6.725279 -0.137608,-6.752368 -1.364549,-8.281529 -0.454448,-0.566391 -0.877265,-0.96526 -1.088361,-1.046326 z m 4.110045,4.668292 c -0.09966,-0.03123 -0.09617,0.06751 -0.01577,0.288183 0.71821,1.970783 1.579716,5.187407 1.941521,7.251403 0.374455,2.136159 0.353935,2.749881 -0.183495,5.542181 -0.332393,1.72702 -0.525112,3.34394 -0.428156,3.59333 0.27321,0.7028 0.724591,0.22053 0.75416,-0.80603 0.01463,-0.50803 0.255169,-1.46295 0.534092,-2.12191 0.867778,-2.0501 0.407448,-9.863056 -0.649486,-11.024615 -0.251794,-0.276729 -0.457792,-0.717959 -0.457792,-0.980341 0,-0.26239 -0.38648,-0.824922 -0.858834,-1.249861 -0.333567,-0.300074 -0.536583,-0.461073 -0.636244,-0.49234 z m 68.058513,5.41334 c -0.104945,0.0048 -0.175473,0.139422 -0.25412,0.341713 -0.1457,0.374809 0.557688,2.079402 2.093488,5.072254 2.58813,5.04354 3.76175,7.2234 4.14283,7.6952 0.14159,0.17528 0.46616,0.71828 0.72138,1.20628 0.25521,0.48801 0.90898,1.1657 1.45282,1.5063 0.54385,0.34062 1.31405,0.96412 1.712,1.38556 0.39794,0.42141 1.05173,0.84054 1.45283,0.93178 1.57293,0.35787 7.18857,2.4941 9.77507,3.71845 1.49926,0.70968 2.81925,1.29032 2.93404,1.29032 0.21744,0 5.17098,2.8773 6.59448,3.83047 0.44938,0.3009 1.39371,0.84043 2.09853,1.19945 1.1263,0.5737 1.74766,1.11125 4.06275,3.51242 0.28667,0.29731 0.69131,0.86294 0.89919,1.25731 0.2079,0.39439 0.60623,0.71706 0.88532,0.71706 0.30842,0 0.4373,0.17932 0.32916,0.45749 -0.0978,0.25172 0.0731,0.78952 0.37961,1.19508 0.3065,0.40556 1.12476,1.84614 1.81792,3.20119 0.69318,1.35507 1.31537,2.40947 1.38284,2.34286 0.0675,-0.0666 -0.026,-0.67322 -0.20746,-1.34819 -0.18145,-0.67498 -0.41428,-1.71358 -0.51769,-2.30738 -0.233,-1.33798 -0.66689,-2.15463 -1.66849,-3.14331 l -0.77686,-0.76685 0.82478,-0.64049 c 0.4535,-0.35212 1.04721,-1.06499 1.31915,-1.58409 0.49845,-0.95149 0.3694,-2.18664 -0.22826,-2.18664 -0.17757,0 -0.23159,0.28413 -0.11981,0.63177 0.21879,0.68046 -1.06396,2.23844 -1.84001,2.23456 -0.61974,-0.003 -2.10455,-1.04087 -4.11823,-2.87754 -1.77891,-1.62253 -6.96653,-5.0878 -7.61663,-5.0878 -0.18738,0 -1.05953,-0.45912 -1.93774,-1.02018 -2.29599,-1.4668 -3.62934,-2.1667 -4.12833,-2.1667 -0.23972,0 -0.91289,-0.23461 -1.49571,-0.52161 -0.58283,-0.28701 -2.33049,-0.84855 -3.88367,-1.24799 -4.90201,-1.26063 -6.72393,-2.4949 -8.57699,-5.80921 -0.65846,-1.17768 -1.38303,-2.3563 -1.60985,-2.61922 -0.22682,-0.26292 -1.52625,-2.62917 -2.88799,-5.25836 -2.07215,-4.000781 -2.695487,-5.155888 -3.010348,-5.141957 z m -62.763631,0.186105 c -0.219658,0.156702 -0.03317,1.407021 0.576341,4.048965 0.990223,4.292167 1.057031,6.718247 0.295735,10.723977 -0.136398,0.71771 -0.09822,1.17766 0.09775,1.17766 0.457086,0 1.249133,-2.59378 1.703164,-5.57705 0.387648,-2.54708 0.387127,-2.55299 -0.83046,-6.214415 -0.670309,-2.015704 -1.340051,-3.798849 -1.48814,-3.962444 -0.162813,-0.179859 -0.281161,-0.248928 -0.354381,-0.196693 z m -19.208375,4.813312 c -0.122723,-0.008 -0.229339,0.0167 -0.295737,0.0822 -0.09891,0.0976 -0.08426,0.33031 0.03279,0.51724 0.272489,0.43519 1.143221,0.44374 1.143221,0.0112 0,-0.28615 -0.51211,-0.58823 -0.880274,-0.61062 z m 33.844502,0.30189 c -0.385704,0 -0.639364,5.42285 -0.286911,6.13475 0.470716,0.95076 0.999243,0.65315 0.778122,-0.4382 -0.11098,-0.54775 -0.201782,-2.05355 -0.201782,-3.34622 0,-1.29269 -0.130083,-2.35033 -0.289429,-2.35033 z m 6.830317,1.04507 c -0.05023,0.0883 -0.02444,0.47262 0.107197,1.18575 0.356076,1.92917 0.372863,6.84699 0.02899,8.5386 -0.152961,0.75256 -0.196978,1.57716 -0.09774,1.83245 0.300284,0.77245 0.753541,0.5234 0.967291,-0.53155 0.365694,-1.80489 0.202489,-7.41763 -0.2661,-9.15545 -0.362084,-1.34282 -0.655943,-2.01715 -0.739655,-1.8698 z m -15.740251,0.85212 c -0.04219,-0.0248 -0.09965,0.20815 -0.179711,0.65231 -0.323978,1.79728 -0.376638,4.60524 -0.09143,4.88677 0.405585,0.40038 0.430653,0.20604 0.390319,-3.05431 -0.02085,-1.68612 -0.04887,-2.44335 -0.119178,-2.48477 z m -23.587043,0.41206 c -0.151829,0.16777 0.455264,4.60015 0.818477,5.97665 0.392124,1.48605 0.304305,6.11498 -0.134311,7.08832 -0.17238,0.38253 -0.08887,0.60538 0.267992,0.71705 0.284776,0.0891 0.752196,0.2352 1.038546,0.32491 0.439503,0.1377 0.453495,0.24272 0.09081,0.6741 -0.370066,0.44015 -0.346207,0.4949 0.170883,0.39463 0.558975,-0.10842 0.596446,-0.47879 0.544181,-5.37475 -0.03088,-2.89211 -0.215296,-6.08148 -0.409869,-7.08771 -0.30132,-1.55827 -0.49933,-1.90089 -1.333652,-2.31174 -0.53875,-0.26529 -1.012707,-0.44605 -1.05305,-0.40146 z m 97.441109,1.21312 c -0.33716,-0.006 -0.40191,0.28013 -0.25537,0.85648 0.24744,0.97321 0.60017,1.27807 1.78514,1.54426 0.44392,0.0997 1.09768,0.30813 1.45283,0.46311 0.35513,0.15497 1.44475,0.42209 2.42138,0.59317 1.89626,0.33218 4.99763,1.83625 5.9677,2.89433 0.32417,0.3536 0.75471,0.64299 0.95657,0.64299 0.20186,0 0.95087,0.60948 1.6647,1.35442 1.20873,1.2614 1.93127,2.15669 5.54206,6.86923 0.75813,0.98946 1.68671,1.9622 2.06323,2.16111 0.37653,0.19891 0.86363,0.69208 1.08269,1.09611 0.32922,0.60724 0.68771,0.74438 2.06889,0.79237 2.31615,0.0804 2.70075,0.68977 3.01349,4.77659 0.48332,6.3163 0.44691,7.21043 -0.35627,8.83489 -0.4093,0.82776 -0.65189,1.65237 -0.53915,1.83244 0.33252,0.53111 0.43269,0.42076 1.48185,-1.63077 1.23738,-2.41964 1.51782,-4.69046 0.82036,-6.6464 -0.62316,-1.74758 -0.68631,-3.75924 -0.11729,-3.73837 0.22196,0.009 1.02103,-0.008 1.77569,-0.0355 1.13993,-0.0417 1.37211,-0.15828 1.37211,-0.68781 0,-0.55596 -0.21647,-0.63791 -1.69496,-0.6411 -1.66311,-0.004 -1.70674,-0.0283 -2.32554,-1.30277 -0.82014,-1.68922 -1.91607,-2.53569 -3.02799,-2.33911 -1.05787,0.18701 -3.64385,-1.59346 -4.55838,-3.13835 -2.16388,-3.65529 -7.89187,-10.09785 -9.72904,-10.94307 -1.16548,-0.5362 -4.1215,-1.32382 -5.92545,-1.5785 -0.87701,-0.12383 -2.24917,-0.63498 -3.04943,-1.13596 -0.943,-0.59031 -1.55265,-0.8879 -1.88982,-0.89382 z m -71.933987,0.10706 c -0.116022,-0.0286 -0.14629,0.0808 -0.14629,0.31434 0,0.30217 0.191989,0.9365 0.426897,1.40982 0.937004,1.88798 0.571782,7.73582 -0.624265,9.99262 -0.246564,0.46524 -0.448334,0.93132 -0.448334,1.03574 0,0.41679 0.641948,0.15525 0.931981,-0.3797 0.577429,-1.06501 1.327977,-5.86552 1.327977,-8.49254 0,-2.38058 -0.07322,-2.6862 -0.807128,-3.36677 -0.343032,-0.3181 -0.544811,-0.48489 -0.660838,-0.51351 z m 3.64721,3.99668 c -0.225783,0.016 -0.253606,0.36163 0.105934,1.02392 0.224317,0.41318 0.438586,1.1815 0.476079,1.70733 0.03749,0.52585 0.167282,1.95994 0.288803,3.18688 0.180268,1.82013 0.103465,2.53885 -0.418069,3.90394 -0.479186,1.25424 -0.534618,1.67312 -0.22196,1.67312 0.229393,0 0.733398,-0.83472 1.119889,-1.85486 1.021824,-2.6971 0.890928,-6.91932 -0.26925,-8.68552 -0.431691,-0.65717 -0.855643,-0.97079 -1.081426,-0.95481 z m -5.66755,0.48924 c -0.133596,0.0931 -0.284807,0.59403 -0.334199,1.4204 -0.04245,0.71007 -0.289298,1.88506 -0.548595,2.6105 -0.259295,0.72545 -0.471666,1.38439 -0.471666,1.4646 0,0.0801 0.181604,0.0862 0.403563,0.0137 0.464221,-0.15189 1.134235,-2.69637 1.179795,-4.48092 0.02059,-0.80629 -0.0953,-1.12138 -0.228898,-1.02827 z m -16.475492,0.42761 0.15512,1.38493 c 0.08522,0.76195 0.242916,1.74407 0.350596,2.18227 0.54798,2.22995 0.164035,4.72508 -1.1098,7.21342 -0.51092,0.99805 -0.751305,1.85843 -0.616696,2.20468 0.315619,0.81188 0.649917,0.32694 1.660287,-2.40696 0.681344,-1.84362 0.91824,-3.15534 1.036654,-5.73639 0.149493,-3.25847 0.132042,-3.366 -0.661466,-4.09441 z m 26.016626,2.68519 c -0.2387,0.0625 -0.168832,0.63148 0.206194,1.71793 0.749651,2.17174 0.636792,5.04881 -0.320329,8.16702 -0.09415,0.30673 -0.03993,0.55769 0.119807,0.55769 0.566393,0 1.089525,-2.43682 1.266182,-5.89573 0.168044,-3.29025 0.137006,-3.54285 -0.507608,-4.11431 -0.366746,-0.32514 -0.62103,-0.4701 -0.764246,-0.4326 z m -22.136107,0.65668 c -0.430449,-0.0572 -0.462279,0.36013 -0.12107,1.29156 0.486762,1.32877 0.498229,5.53671 0.02018,7.41075 -0.20054,0.78615 -0.632051,1.94615 -0.958465,2.57813 -0.326412,0.63199 -0.516623,1.27167 -0.42311,1.42103 0.416815,0.66573 1.0712,0.14375 1.757393,-1.40173 0.635628,-1.43159 0.759122,-2.32647 0.855681,-6.20011 0.108001,-4.33254 0.08347,-4.5429 -0.56625,-4.88614 -0.232921,-0.12304 -0.420875,-0.19446 -0.564359,-0.21349 z m 40.797778,1.11851 c -0.11347,0.10582 -0.186485,0.71975 -0.213763,1.81566 -0.08799,3.53513 -0.190153,4.18272 -0.98999,6.27479 -0.180238,0.47144 -0.232394,1.00923 -0.116027,1.19508 0.272042,0.43452 0.721773,0.4319 0.995671,-0.006 0.360646,-0.57603 0.758056,-8.69785 0.450855,-9.2152 -0.04666,-0.0785 -0.08893,-0.1 -0.126746,-0.0648 z m -38.178397,0.70336 c -0.06238,0.0224 -0.0946,0.0999 -0.09333,0.23591 0.0012,0.13146 0.364446,1.29244 0.807129,2.58002 1.262029,3.67065 1.010096,7.93459 -0.600301,10.16876 -0.620454,0.86078 -0.736412,1.23014 -0.44392,1.41355 0.664933,0.41699 0.844203,0.30328 1.475529,-0.93676 1.106403,-2.1732 1.437944,-4.35767 1.188622,-7.82903 -0.198877,-2.76901 -0.353442,-3.39918 -1.088362,-4.42554 -0.603807,-0.84325 -1.058225,-1.27377 -1.245372,-1.20691 z m 23.013224,0.73138 c -0.107377,0.12557 -0.05506,0.51914 0.141881,1.19694 0.569651,1.96065 0.333757,5.41795 -0.507609,7.4425 -0.187845,0.45199 -0.147288,0.54477 0.157012,0.35914 0.744007,-0.4539 1.250311,-2.20181 1.479942,-5.11209 0.210474,-2.66725 0.178215,-2.91072 -0.45653,-3.47693 -0.440504,-0.39295 -0.707314,-0.53515 -0.814696,-0.40956 z m 18.204513,0.69277 c -0.222145,-0.13553 -0.315293,0.73946 -0.27808,2.61049 0.05906,2.96958 -0.466047,5.40242 -1.312214,6.08061 -0.442128,0.35436 -0.427791,0.45134 0.131158,0.87763 0.345593,0.2636 0.724753,0.37115 0.842442,0.23902 0.792896,-0.89007 1.326411,-9.37477 0.616694,-9.80775 z m 6.259021,0.54214 c -0.215737,-0.0774 0.116257,0.44344 1.232762,2.07146 0.502486,0.73271 0.919787,1.52146 0.927568,1.75281 0.0078,0.23133 0.228601,0.99439 0.490582,1.6955 0.625191,1.67314 1.497719,6.48952 1.247894,6.88854 -0.107546,0.17174 -0.114048,0.52102 -0.01515,0.77554 0.09895,0.25453 0.348195,0.46248 0.554271,0.46248 0.479638,0 0.158521,-2.99603 -0.699931,-6.53312 -0.767872,-3.16385 -0.768298,-3.12682 0.06179,-2.68831 0.807645,0.42668 0.618754,0.006 -0.58075,-1.29528 -0.404089,-0.43819 -1.064959,-1.15653 -1.468594,-1.59656 -0.403638,-0.44003 -1.015939,-1.01366 -1.360769,-1.27476 -0.184923,-0.14001 -0.317776,-0.23248 -0.389691,-0.2583 z m -1.041067,1.69552 -0.02079,0.82348 c -0.01126,0.45281 0.08555,0.92785 0.215025,1.05566 0.383376,0.37844 0.453083,-0.28065 0.117285,-1.1098 z m -19.664906,0.17366 c -0.275038,-0.0394 -0.401905,0.13516 -0.238355,0.54338 0.654174,1.63287 0.426032,3.75634 -0.684799,6.37378 -0.262652,0.61889 0.469409,0.46887 0.814066,-0.16682 0.168528,-0.31083 0.548297,-1.49396 0.843699,-2.62918 0.2954,-1.13521 0.66448,-2.19411 0.820369,-2.35282 0.164618,-0.16759 -0.01524,-0.59934 -0.428786,-1.03014 -0.42819,-0.44603 -0.851158,-0.69891 -1.126194,-0.7382 z m -22.467787,0.52907 c -0.299318,0.0548 -0.181551,0.67942 0.385908,1.80321 0.792269,1.569 1.330102,4.5986 1.160246,6.53559 -0.06718,0.76615 -0.484267,2.17394 -0.926934,3.12838 -0.801936,1.72908 -0.802379,1.73495 -0.114764,1.63452 1.005209,-0.14681 2.290761,-3.96406 2.073312,-6.15591 -0.548942,-5.53313 -0.552535,-5.54755 -1.595971,-6.41423 -0.472583,-0.39252 -0.802206,-0.56447 -0.981797,-0.53156 z m 42.955585,1.81628 c -0.08194,0.0238 -0.168938,0.1137 -0.25727,0.26951 -0.16282,0.2872 -0.07151,1.14669 0.226373,2.13684 0.604651,2.00982 0.523531,5.74594 -0.129899,5.99344 -0.310344,0.11756 -0.170837,0.37746 0.478603,0.89071 l 0.916847,0.7239 0.09963,-1.2486 c 0.106954,-1.34462 -0.755107,-8.0765 -1.106017,-8.63696 -0.06898,-0.11018 -0.146323,-0.1526 -0.228265,-0.12884 z m -17.099125,0.37595 c -0.195641,0.0122 -0.230157,0.51265 -0.230157,1.98495 0,1.23701 -0.13581,2.60218 -0.302043,3.03376 -0.16623,0.43159 -0.214868,0.87095 -0.107826,0.97661 0.42783,0.42231 0.638034,0.12291 1.00008,-1.42538 0.518869,-2.21888 0.477342,-3.95953 -0.105934,-4.43737 -0.105673,-0.0865 -0.188904,-0.13663 -0.25412,-0.13257 z m -22.247717,0.26578 c -0.08966,-0.0242 -0.157496,-0.0206 -0.195474,0.0167 -0.07297,0.072 0.354743,0.96078 0.950896,1.97501 1.560586,2.65497 1.579427,2.73147 1.599121,6.44534 0.01621,3.05162 0.06102,3.30036 0.459056,2.55884 0.716913,-1.3356 0.598514,-6.21147 -0.186018,-7.65847 -0.167097,-0.30817 -0.303935,-0.83422 -0.303935,-1.16832 0,-0.48958 -1.69602,-2.0001 -2.323646,-2.16919 z m 62.339898,0.29877 c -0.10805,-0.002 -0.23242,0.0226 -0.3815,0.0677 -1.08171,0.32804 -1.10518,0.45181 -0.23016,1.20753 2.00631,1.73278 3.67993,4.78653 4.22797,7.7145 0.19469,1.0402 0.42165,1.99914 0.50382,2.13061 0.21469,0.34348 0.75667,0.29491 0.75667,-0.0678 0,-1.44409 -1.58713,-6.14275 -2.52352,-7.47049 -0.60619,-0.85953 -1.30888,-2.0503 -1.56129,-2.6466 -0.28724,-0.67861 -0.46786,-0.92904 -0.79199,-0.93553 z m 3.52928,0.5241 c -0.54547,0 -0.42272,0.24868 0.76867,1.55671 2.46103,2.70198 4.13022,6.58705 4.13022,9.61294 0,0.62868 0.16272,0.94049 0.49059,0.94049 0.33723,0 0.44421,-0.22398 0.34239,-0.71704 -0.0815,-0.39438 -0.23316,-1.4574 -0.33672,-2.36215 -0.20578,-1.79784 -1.72617,-5.41438 -2.95043,-7.01799 -0.42596,-0.55797 -0.77434,-1.15197 -0.77434,-1.3202 0,-0.36867 -0.78129,-0.69276 -1.67038,-0.69276 z m -20.967029,0.36038 c -0.176373,-0.0322 0.02683,0.50898 0.607868,1.63142 1.0714,2.06974 1.341914,6.01876 0.561838,8.20124 -0.26733,0.74793 -0.486169,1.48501 -0.486169,1.63826 0,0.15323 0.206341,0.27884 0.458423,0.27884 0.740324,0 1.607763,-3.07108 1.543002,-5.4625 -0.05954,-2.1989 -0.785945,-4.28234 -1.957284,-5.61191 -0.379079,-0.43028 -0.62185,-0.65604 -0.727678,-0.67535 z m 24.235899,0.33238 c -0.1739,0.0564 0.16558,0.43937 1.18548,1.42041 0.9096,0.87496 1.76178,1.94026 1.89359,2.36775 0.1318,0.42751 0.48854,1.06425 0.79325,1.41481 0.74657,0.85889 1.64495,3.73467 1.86397,5.96731 0.10579,1.07846 0.30883,1.74488 0.49688,1.63017 0.48127,-0.29361 0.005,-3.45463 -0.88973,-5.90258 -1.15847,-3.17017 -3.07923,-6.63385 -3.68189,-6.63893 -0.28362,-0.003 -0.87901,-0.0997 -1.32294,-0.21661 -0.1659,-0.0437 -0.28064,-0.0611 -0.33861,-0.0423 z M 5.2434156,122.92889 c 0.079737,0.1386 0.1470161,0.26703 0.2011513,0.37035 0.043602,-0.12573 -0.00815,-0.25386 -0.2011513,-0.37035 z M 113.5486,123.70757 c -0.19291,0.0718 0.0994,0.52672 0.87649,1.3812 0.53965,0.5934 1.23674,1.58061 1.5493,2.19408 0.31256,0.61348 0.9443,1.76076 1.40364,2.54951 0.52882,0.90802 0.98138,2.39856 1.23402,4.06327 0.25183,1.65928 0.54635,2.62919 0.79768,2.62919 0.31437,0 0.31124,-0.49405 -0.0152,-2.3466 -0.58564,-3.32431 -0.99597,-4.64191 -1.89864,-6.09864 -0.43445,-0.70111 -1.08494,-1.80061 -1.44527,-2.44307 -0.36032,-0.64246 -1.09388,-1.38389 -1.63065,-1.64822 -0.46488,-0.22893 -0.75569,-0.32383 -0.87144,-0.28072 z m -67.871873,1.0096 c -0.36712,0.009 -0.280783,0.63903 0.272406,1.80071 0.980825,2.05971 1.212419,5.25652 0.544811,7.5234 -0.289162,0.98187 -0.525895,1.87052 -0.525895,1.97501 0,0.55649 0.700883,0.0563 1.18547,-0.8459 1.117042,-2.07985 0.433599,-9.38376 -0.959097,-10.25094 -0.222583,-0.13859 -0.395325,-0.20514 -0.517695,-0.20228 z m 72.954243,0.33486 c -0.65546,0 -0.33841,0.70552 0.98117,2.18165 2.15952,2.41577 3.4748,5.32849 3.64468,8.07116 0.0795,1.28429 0.15634,2.44294 0.17027,2.57441 0.014,0.13145 0.24314,0.23902 0.50949,0.23902 0.67454,0 0.62034,-1.27689 -0.1835,-4.32222 -0.7067,-2.67738 -2.16362,-6.19451 -2.56578,-6.19451 -0.13178,0 -0.42223,-0.43597 -0.6457,-0.96851 -0.38927,-0.92767 -1.17892,-1.581 -1.91063,-1.581 z m -43.862339,1.09363 c -0.258161,0.0888 -0.42573,0.50312 -0.228265,0.81851 0.109743,0.17528 0.336104,0.31868 0.503192,0.31868 0.392852,0 0.395071,-0.86249 0.0032,-1.10172 -0.09596,-0.0586 -0.192026,-0.0651 -0.278081,-0.0355 z m 47.561259,0.0896 0.88406,1.08178 c 1.13593,1.38918 3.46687,5.15719 3.46687,5.60444 0,0.18887 0.21712,0.75403 0.48238,1.25608 0.29768,0.56344 0.48298,1.79748 0.48427,3.22361 9.1e-4,1.52734 0.12792,2.3105 0.3733,2.3105 0.2672,0 0.31406,-0.79525 0.16711,-2.83895 -0.17733,-2.46591 -0.38672,-3.21228 -1.58966,-5.67415 -1.62843,-3.33257 -2.39914,-4.37708 -3.4776,-4.71496 z m -72.420788,0.19169 c -0.416615,-0.0549 -0.519123,0.26227 -0.135573,0.79175 1.3254,1.82971 1.669938,5.62635 0.731458,8.06369 -0.364304,0.94615 -0.662636,1.75626 -0.662726,1.80009 -8.6e-5,0.0438 0.111565,0.0796 0.247813,0.0796 0.136251,0 0.585421,-0.83902 0.998192,-1.86481 0.608446,-1.51209 0.718632,-2.25099 0.582013,-3.90394 -0.274727,-3.32389 -0.560037,-4.41919 -1.246005,-4.78157 -0.202408,-0.10694 -0.376302,-0.16655 -0.515172,-0.18488 z m 3.246167,1.28099 c -0.159971,-0.0244 -0.278498,-0.0215 -0.316547,0.0162 -0.16889,0.16671 0.861977,2.19921 1.237805,2.44059 0.472154,0.30322 0.906259,4.37822 0.584538,5.48553 -0.164506,0.56621 -0.298889,1.21011 -0.298889,1.43037 0,0.92438 0.591876,0.29528 0.967291,-1.02827 0.734195,-2.58847 -0.269814,-7.70391 -1.60795,-8.19253 -0.204656,-0.0748 -0.406283,-0.12736 -0.566248,-0.15188 z m 22.006208,0.55522 c -0.10463,0.0552 -0.138958,0.27832 -0.0391,0.69277 0.66824,2.77332 2.250266,5.35168 4.788541,7.8035 l 2.034842,1.96567 -0.749748,0.78863 c -0.412655,0.43358 -0.654705,0.94149 -0.537243,1.12911 0.14673,0.23433 0.493116,0.19864 1.10665,-0.11454 1.78556,-0.91144 1.781082,-1.20712 -0.04856,-2.96157 -2.890711,-2.7719 -4.625633,-5.2776 -5.741329,-8.29211 -0.269961,-0.72941 -0.63968,-1.10348 -0.814063,-1.01146 z m 52.287373,0.0678 c -0.0916,0.0905 0.38339,0.92011 1.05556,1.84365 1.4365,1.97372 2.58233,4.31076 2.87918,5.87272 0.11651,0.61303 0.33196,1.11478 0.47861,1.11478 0.4735,0 -0.0256,-2.32198 -1.08332,-5.04112 -0.82127,-2.11135 -1.24804,-2.78335 -2.09726,-3.30267 -0.58645,-0.3586 -1.14113,-0.57783 -1.23277,-0.48736 z m -69.537835,0.58385 c -0.108702,-0.005 -0.223093,0.0565 -0.346182,0.17802 -0.249571,0.24634 -0.173408,0.73951 0.267991,1.73659 0.658517,1.48755 0.700578,4.87019 0.07503,6.02395 -0.174571,0.322 -0.309123,0.77401 -0.298889,1.00463 0.01024,0.23062 0.373435,-0.35199 0.807128,-1.29468 0.866128,-1.88267 0.980759,-3.43419 0.42185,-5.71335 -0.323965,-1.32111 -0.600829,-1.92221 -0.926934,-1.93516 z m 3.435336,0.65667 c -0.06171,0.0289 -0.09213,0.2346 -0.140615,0.63987 -0.05638,0.47124 0.111584,1.47924 0.373297,2.24015 0.862212,2.50685 0.958703,3.64204 0.402931,4.74173 -0.284267,0.56249 -0.517065,1.08799 -0.517065,1.1677 0,0.16602 1.700143,-0.22109 1.91882,-0.43696 0.217002,-0.21419 -1.28867,-7.19815 -1.710103,-7.93234 -0.173042,-0.30147 -0.265555,-0.44907 -0.327265,-0.42015 z m 4.405151,0.68468 c -0.154594,-0.0323 -0.275356,-0.0283 -0.324743,0.0205 -0.09877,0.0975 0.0086,1.07683 0.238357,2.17666 0.426732,2.04227 1.20605,3.86352 2.321122,5.42579 0.34404,0.48203 0.833472,0.87639 1.087731,0.87639 0.618317,0 0.584292,-0.21016 -0.210609,-1.31209 -0.907615,-1.25814 -1.909993,-4.1556 -1.909993,-5.52039 0,-0.80121 -0.188352,-1.21143 -0.673448,-1.46771 -0.185172,-0.0977 -0.37382,-0.16684 -0.528417,-0.19919 z m 18.630779,0.0573 c -0.180465,0.11008 -0.244674,0.33354 -0.14251,0.49671 0.276758,0.44202 0.470404,0.35998 0.470404,-0.19981 0,-0.27328 -0.147434,-0.40699 -0.327894,-0.2969 z m -11.981432,0.15622 c -0.646031,0 -0.02312,2.37717 1.169072,4.45916 0.622366,1.08689 1.131871,2.0793 1.131871,2.20592 0,0.36353 2.046485,2.48137 2.582809,2.67274 1.02511,0.3658 0.98792,0.17476 -0.250966,-1.29093 -1.426901,-1.68811 -4.26895,-6.69148 -4.26895,-7.51533 0,-0.29232 -0.163572,-0.53156 -0.363836,-0.53156 z m -3.58037,0.0927 c -0.07308,-0.0259 -0.160344,0.007 -0.256012,0.10145 -0.35664,0.35204 1.10511,4.76324 1.808474,5.45753 0.250179,0.24696 0.454638,0.57365 0.454638,0.72639 0,0.15273 0.305185,0.7882 0.677862,1.41168 0.679937,1.13755 1.582096,1.52664 1.582096,0.68221 0,-0.24831 -0.126619,-0.49929 -0.281232,-0.55771 -0.869236,-0.32848 -3.01735,-4.58934 -3.816203,-7.56947 -0.03798,-0.1417 -0.09653,-0.22624 -0.169623,-0.25208 z m 63.256731,0.38839 c -0.14242,0.0122 0.0156,0.31538 0.39223,0.91685 1.37175,2.19094 2.22542,4.20834 2.57839,6.09305 0.19242,1.02747 0.37436,1.94918 0.40419,2.04845 0.0298,0.0993 0.11211,-0.37207 0.18287,-1.04757 0.0707,-0.67551 -0.19533,-2.43925 -0.59148,-3.91949 -0.5555,-2.0757 -0.91117,-2.82172 -1.55498,-3.26095 -0.82555,-0.56324 -1.26878,-0.84247 -1.41122,-0.83034 z m -31.3178,0.81478 -0.971083,0.80668 c -0.717217,0.59571 -1.267698,0.78094 -2.106724,0.70958 -1.389144,-0.11814 -1.691042,0.45078 -0.466627,0.8795 1.049061,0.36733 2.526639,0.21598 2.938454,-0.30064 0.15945,-0.20002 0.36084,-0.7531 0.4477,-1.22932 z m 35.86988,1.91835 c -0.20419,-0.0412 -0.18492,0.20131 0.18098,0.75253 1.08725,1.63797 1.99973,4.75764 1.91629,6.54991 -0.0448,0.96403 0.0116,1.9679 0.12548,2.23083 0.11391,0.26292 0.31712,-0.38243 0.45149,-1.43411 0.33629,-2.63191 -0.34698,-5.85371 -1.51589,-7.1487 -0.52689,-0.58372 -0.95416,-0.90924 -1.15835,-0.95046 z m -4.78286,5.39031 c -0.17757,0 -0.32285,0.22346 -0.32285,0.4967 0,0.27328 0.14528,0.40836 0.32285,0.30002 0.17756,-0.10832 0.32285,-0.33178 0.32285,-0.49671 0,-0.16493 -0.14529,-0.30001 -0.32285,-0.30001 z m 15.33542,3.21428 c -0.35513,0.01 -0.93627,0.14065 -1.2914,0.2913 -0.59135,0.25083 -0.57777,0.27527 0.16143,0.2913 0.44392,0.01 1.02504,-0.12139 1.29139,-0.2913 0.39971,-0.25498 0.37152,-0.30578 -0.16142,-0.2913 z m -2.75243,0.47989 c -0.18553,-0.0305 -0.47101,-0.022 -0.85819,0.0393 -2.01163,0.31763 -2.79653,0.58117 -2.93278,0.98468 -0.1669,0.49421 1.34292,0.46014 2.81107,-0.0635 1.19354,-0.4257 1.53651,-0.86878 0.9799,-0.96043 z m -69.044091,0.44879 c -0.177568,0 -0.412368,0.14341 -0.522112,0.31868 -0.109743,0.17528 -0.05399,0.31869 0.123592,0.31869 0.177568,0 0.412367,-0.14341 0.522111,-0.31869 0.109744,-0.17527 0.05399,-0.31868 -0.123591,-0.31868 z m -9.08334,0.21163 c -0.236069,0.0325 -0.306256,0.18499 -0.141877,0.44753 0.10216,0.16315 0.649117,0.285 1.215734,0.27075 l 1.030351,-0.0255 -0.968553,-0.4214 c -0.497714,-0.2165 -0.899584,-0.30398 -1.135655,-0.27137 z m -3.80674,1.06186 -8.816611,0.0248 0.09963,1.02143 c 0.10533,1.07871 0.805781,2.14181 1.411211,2.14181 0.198385,0 0.52604,-0.35852 0.728307,-0.79672 0.488522,-1.05837 1.002168,-1.01418 0.926304,0.0796 -0.03848,0.55475 0.08758,0.84716 0.34303,0.79672 0.480899,-0.0949 0.540711,0.43642 0.08071,0.71705 -0.177568,0.10833 -0.322851,0.30248 -0.322851,0.43136 0,0.12888 0.935671,0.26827 2.079616,0.30996 l 2.080245,0.076 -0.180345,-1.09674 c -0.153218,-0.93199 -0.0896,-1.08854 0.422483,-1.04569 0.807628,0.0675 1.09773,0.53222 0.87649,1.40235 -0.173501,0.68237 -0.09014,0.71954 1.608579,0.71954 0.985397,0 1.88729,-0.15229 2.003946,-0.33861 0.479199,-0.76537 -2.001916,-2.4996 -2.536147,-1.77271 -0.146609,0.1995 -0.172425,0.0408 -0.05865,-0.3585 0.226599,-0.79521 -0.396945,-0.99497 -1.060615,-0.33987 -0.511011,0.50442 -0.906927,0.075 -0.441398,-0.47864 0.201333,-0.23947 0.258381,-0.54209 0.126745,-0.67287 -0.131632,-0.13066 0.196231,-0.18936 0.728936,-0.13009 0.702793,0.0782 0.99558,0.2963 1.067553,0.79486 0.104283,0.72237 1.254186,1.20599 2.102945,0.88448 0.2625,-0.0994 0.57461,-0.0257 0.693625,0.16432 0.119013,0.19009 0.353916,0.26196 0.522111,0.15935 0.168196,-0.10261 0.221971,-0.31984 0.119808,-0.48302 -0.102159,-0.16314 0.186259,-0.2969 0.640659,-0.2969 0.963697,0 1.102523,0.50748 0.215022,0.78552 -0.621698,0.19478 -1.18415,1.4453 -0.650115,1.4453 0.160944,0 0.301494,-0.17925 0.312762,-0.39837 0.01126,-0.21909 0.146623,-0.0911 0.300151,0.28447 0.26621,0.65114 0.485649,0.68339 4.741242,0.69091 2.454343,0.005 4.184005,-0.0984 3.843946,-0.22781 -0.340059,-0.1294 -0.655276,-0.48406 -0.700561,-0.78864 -0.06353,-0.42724 0.114954,-0.53152 0.780014,-0.45562 0.474129,0.054 0.880163,0.2776 0.902343,0.49669 0.02218,0.21912 0.05854,0.5456 0.08071,0.72516 0.04754,0.38458 5.528825,0.3093 5.528825,-0.076 0,-0.13789 -0.217925,-0.25083 -0.484277,-0.25083 -0.266352,0 -0.484277,-0.2049 -0.484277,-0.45562 0,-0.25073 -0.30762,-0.50169 -0.683538,-0.5577 -0.682871,-0.10175 -0.682706,-0.10267 0.05486,-0.73947 0.627086,-0.54141 0.707631,-0.55469 0.535985,-0.0896 -0.246959,0.66913 0.335939,1.09254 0.83109,0.60377 0.26383,-0.26042 0.2561,-0.3548 -0.02838,-0.3548 -0.213081,0 -0.387169,-0.13894 -0.387169,-0.30872 0,-0.16978 0.187593,-0.23745 0.416808,-0.15063 0.489309,0.18535 1.254557,2.02281 1.007016,2.41818 -0.09365,0.14958 14.439122,0.272 32.295188,0.272 h 32.46544 v -2.23083 -2.23081 h -3.07717 c -2.46035,0 -3.11523,0.0974 -3.26634,0.48613 -0.15332,0.39442 -0.28056,0.4114 -0.67408,0.0891 -0.5119,-0.41936 -0.59789,-0.42353 -16.22768,-0.71332 -8.3174,-0.15421 -40.183102,-0.24607 -62.894149,-0.18176 z m -18.669872,0.25086 c -23.23013,0.0288 -38.7765995,0.13957 -39.5858264,0.28196 -1.0458267,0.18401 -1.1380066,0.8237 -0.2534885,1.76088 0.3489958,0.36976 0.5584828,0.79426 0.4653596,0.94298 -0.3103825,0.49575 -0.7307042,0.27853 -0.8651399,-0.44691 -0.073085,-0.39437 -0.1244461,-0.10755 -0.1147635,0.6374 0.015515,1.19364 0.1051953,1.3544 0.7560515,1.3544 0.4843823,0 0.7420459,-0.19191 0.7484848,-0.55769 0.00935,-0.53115 0.025209,-0.53115 0.3386152,0 0.3027965,0.51316 1.1332263,0.55596 10.4018572,0.53281 5.540179,-0.0138 9.875247,-0.10292 9.633195,-0.19794 -0.329775,-0.12945 -0.343231,-0.23201 -0.05423,-0.40832 0.212125,-0.12942 0.410208,-0.70971 0.440136,-1.28968 0.02992,-0.58 0.235833,-1.11426 0.457793,-1.187 0.373676,-0.12246 0.553116,0.48003 0.427525,1.43472 -0.02882,0.2191 0.108103,0.39835 0.303934,0.39835 0.195831,0 0.266125,-0.14341 0.156382,-0.31868 -0.109743,-0.17528 -0.05398,-0.31869 0.12359,-0.31869 0.652293,0 0.682312,0.61528 0.04667,0.95108 -1.52504,0.80565 -0.480449,0.96104 6.46711,0.96104 4.864889,0 7.055824,-0.10514 6.913554,-0.33237 -0.114551,-0.18296 -0.03427,-0.53998 0.178449,-0.79299 0.212713,-0.25301 0.314253,-0.64771 0.225114,-0.877 -0.09554,-0.24577 0.08797,-0.43513 0.447704,-0.46186 0.680657,-0.0506 0.83581,0.42406 0.206824,0.63301 -0.314621,0.10454 -0.305711,0.25107 0.03973,0.66415 0.28805,0.34445 0.316293,0.52969 0.08071,0.52969 -0.199309,0 -0.362577,0.14341 -0.362577,0.3187 0,0.17527 0.807492,0.31867 1.794595,0.31867 1.133483,0 1.720258,-0.11911 1.592186,-0.32366 -0.111532,-0.17814 -0.337892,-0.24152 -0.503192,-0.14066 -0.165297,0.10084 -0.300781,-0.0963 -0.300781,-0.4382 0,-0.4054 0.295366,-0.69511 0.848746,-0.83221 1.14658,-0.28406 2.702615,0.0874 2.702615,0.64485 0,0.63724 -0.872922,0.56404 -1.255461,-0.10519 -0.403686,-0.70623 -1.124586,-0.12227 -0.819108,0.66352 0.173545,0.44642 0.717022,0.53155 3.400654,0.53155 2.514822,0 3.19383,-0.0943 3.19383,-0.44378 0,-0.57179 -0.882637,-0.9145 -1.067552,-0.41455 -0.101194,0.27349 -0.300785,0.2872 -0.710021,0.0498 -0.769957,-0.44664 -0.769551,-0.80591 0.0019,-1.22807 0.355134,-0.1944 0.752335,-0.49697 0.882797,-0.67223 0.148198,-0.19912 0.238909,-0.17344 0.242138,0.0684 0.0046,0.36694 1.243919,1.21667 1.447783,0.9928 0.05283,-0.058 0.185266,-0.53543 0.294476,-1.06125 0.383896,-1.84841 0.458348,-1.83413 -9.368356,-1.82188 z m 60.759043,0.38777 c 0.0782,0 0.14252,0.14341 0.14252,0.3187 0,0.17527 -0.15372,0.31868 -0.34177,0.31868 -0.18805,0 -0.25224,-0.14341 -0.1425,-0.31868 0.10974,-0.17529 0.26346,-0.3187 0.34175,-0.3187 z m -34.658554,0.42263 c 0.111203,-9.4e-4 0.194908,0.11888 0.330419,0.3579 0.170249,0.30035 0.176548,0.86653 0.01449,1.34635 l -0.279973,0.82847 -0.545441,-0.82225 c -0.50654,-0.76313 -0.507873,-0.85935 -0.01449,-1.34634 0.245031,-0.24187 0.383796,-0.36328 0.494995,-0.36413 z m 5.839064,0.0156 c 0.05852,-0.0254 0.139483,-0.0144 0.228266,0.0399 0.177568,0.10833 0.322851,0.26008 0.322851,0.33737 0,0.0773 -0.145283,0.14066 -0.322851,0.14066 -0.177568,0 -0.322851,-0.15173 -0.322851,-0.33736 0,-0.0927 0.03606,-0.15502 0.09458,-0.1805 z m 5.619627,0.0181 c 0.110851,0.0329 0.122661,0.20117 -0.05107,0.47866 -0.117046,0.18694 -0.367333,0.33985 -0.556163,0.33985 -0.214081,0 -0.1897,-0.18263 0.06494,-0.4855 0.221401,-0.26333 0.431436,-0.36592 0.542289,-0.33301 z m 12.361662,0.0243 c 0.183017,-0.11164 0.236998,0.0159 0.126745,0.29941 -0.214624,0.5521 -0.445811,0.65323 -0.445811,0.19481 0,-0.16493 0.143529,-0.38712 0.319066,-0.49422 z m -27.258213,0.15688 c 0.07831,0 0.14251,0.1434 0.14251,0.31868 0,0.17529 -0.153719,0.31869 -0.341767,0.31869 -0.188048,0 -0.252253,-0.1434 -0.14251,-0.31869 0.109744,-0.17528 0.263463,-0.31868 0.341767,-0.31868 z m 28.228663,0.0112 c 0.137163,-0.0399 0.389577,0.15076 0.636874,0.60688 0.184293,0.33992 0.210727,0.69399 0.05865,0.78676 -0.152085,0.0927 -0.439671,-0.18538 -0.639398,-0.61809 -0.214879,-0.46552 -0.193289,-0.73573 -0.05609,-0.77555 z m -35.598745,0.0106 c 0.255501,-0.0264 0.392232,0.0672 0.248443,0.29691 -0.109743,0.17526 0.04279,0.31868 0.338616,0.31868 0.357822,0 0.472138,0.16881 0.341766,0.50416 -0.107782,0.27726 -0.196106,0.56408 -0.196106,0.63739 0,0.0733 -0.290565,0.13319 -0.645702,0.13319 -0.355135,0 -0.645701,-0.1434 -0.645701,-0.31868 0,-0.17528 -0.217925,-0.31869 -0.484277,-0.31869 -0.642516,0 -0.612229,-0.31172 0.08071,-0.83095 0.332469,-0.24912 0.706743,-0.39565 0.962248,-0.42201 z m 66.684506,0.099 c 0.0339,-0.0336 0.079,0.011 0.13053,0.13818 0.0933,0.23005 0.0815,0.50473 -0.0259,0.61062 -0.10728,0.1059 -0.18364,-0.0824 -0.16963,-0.41828 0.007,-0.18563 0.031,-0.29702 0.0649,-0.33052 z m -48.863381,0.0654 c 0.140712,0.0158 0.313863,0.056 0.485536,0.11764 0.343352,0.12305 0.481978,0.31073 0.30772,0.41703 -0.333047,0.20318 -1.346509,-0.26821 -1.083948,-0.50417 0.04183,-0.0376 0.149978,-0.0463 0.290692,-0.0304 z m 10.319253,0.13257 c 0.196568,0 0.357532,0.22014 0.357532,0.48923 0,0.38443 0.133179,0.41903 0.622369,0.16059 0.522859,-0.27621 0.697472,-0.18152 1.088994,0.59318 0.436923,0.86455 0.420968,0.94291 -0.249074,1.24426 -0.911025,0.40974 -1.554821,0.0343 -1.256724,-0.73262 0.15701,-0.40388 0.110291,-0.51339 -0.150706,-0.35416 -0.207746,0.12674 -0.377709,0.0904 -0.377709,-0.0809 0,-0.17128 -0.08832,-0.53814 -0.196107,-0.81539 -0.107781,-0.27725 -0.03514,-0.50418 0.161425,-0.50418 z m 47.332358,0 c 0.26636,0 0.48428,0.14341 0.48428,0.31868 0,0.17528 -0.21792,0.31869 -0.48428,0.31869 -0.26635,0 -0.48427,-0.14341 -0.48427,-0.31869 0,-0.17527 0.21792,-0.31868 0.48427,-0.31868 z m -50.311163,0.0125 c 0.101305,-0.0594 0.365765,0.0511 0.702454,0.38343 0.319254,0.31514 0.467437,0.29891 0.727673,-0.0796 0.269607,-0.3922 0.309812,-0.3684 0.228898,0.1357 -0.139191,0.86715 -0.694078,0.94422 -1.382838,0.19296 -0.315872,-0.34454 -0.377493,-0.5731 -0.276187,-0.63241 z m -67.326425,0.0641 c 0.115737,0.0124 0.232191,0.0661 0.337354,0.16993 0.215234,0.21245 0.206246,0.39006 -0.02775,0.5328 -0.511437,0.31195 -0.429492,0.81413 0.133051,0.81413 0.266352,0 0.481951,0.25098 0.479232,0.55771 -0.0041,0.46483 -0.05476,0.47998 -0.303304,0.0921 -0.257246,-0.40144 -0.381684,-0.3905 -0.908018,0.0796 -0.971633,0.86798 -1.600535,0.70154 -1.439588,-0.38093 0.09612,-0.64642 0.0059,-0.91099 -0.298259,-0.8764 -0.239651,0.0273 -0.474184,-0.0936 -0.520849,-0.26889 -0.142427,-0.53496 1.211348,-0.42695 1.536695,0.12262 0.276489,0.46704 0.305113,0.46486 0.314023,-0.0243 0.0094,-0.51502 0.350197,-0.85547 0.69741,-0.81852 z m 102.111738,0.006 c 0.10852,-0.10711 0.39173,0.0676 0.62931,0.38841 0.23757,0.32072 0.59884,0.48079 0.80334,0.35603 0.20451,-0.12475 0.37203,-0.0749 0.37203,0.11081 0,0.18561 -0.25424,0.33218 -0.56498,0.32553 -0.63422,-0.0136 -1.54409,-0.8803 -1.2397,-1.18078 z m -96.570933,0.0125 c 0.07262,-0.014 0.196482,0.0653 0.401041,0.23279 0.272266,0.22305 0.447242,0.54788 0.38843,0.72204 -0.0588,0.17415 -0.536416,0.36031 -1.060616,0.41329 -0.771092,0.0779 -0.844902,0.0357 -0.3878,-0.22097 0.310745,-0.17451 0.56499,-0.54283 0.56499,-0.81851 0,-0.20711 0.02133,-0.3146 0.09395,-0.32864 z m -3.873582,0.0248 c 0.05852,-0.0254 0.139481,-0.0144 0.228266,0.04 0.177568,0.10834 0.322851,0.26007 0.322851,0.33737 0,0.0773 -0.145283,0.14067 -0.322851,0.14067 -0.177568,0 -0.322852,-0.15173 -0.322852,-0.33737 0,-0.0928 0.03606,-0.15503 0.09458,-0.1805 z m 26.374158,0.0429 c 0.18046,-0.11008 0.327894,0.0236 0.327894,0.29692 0,0.55978 -0.193647,0.64181 -0.470404,0.19978 -0.102163,-0.16315 -0.03795,-0.3866 0.14251,-0.4967 z m -15.783131,0.004 c 0.06753,-0.019 0.150583,-0.0113 0.24277,0.0267 0.122916,0.0508 0.262442,0.1557 0.404193,0.3243 0.235917,0.28059 0.665148,0.60145 0.95342,0.7133 0.437486,0.16975 0.372135,0.32612 -0.392844,0.94486 l -0.916217,0.74134 v -0.68282 c 0,-0.37541 -0.145432,-0.95134 -0.323481,-1.27973 -0.23497,-0.4334 -0.170449,-0.73078 0.03216,-0.78801 z m 84.522668,0.13445 c 0.0673,-0.007 0.14558,0.0236 0.22763,0.10457 0.10728,0.1059 0.13404,0.37364 0.0593,0.59505 -0.10937,0.32386 -0.18566,0.32374 -0.38906,-9.4e-4 -0.20195,-0.32255 -0.0998,-0.67772 0.10216,-0.69838 z m -66.151686,0.0181 c 0.177568,0 0.322851,0.21511 0.322851,0.47802 0,0.26293 -0.145283,0.47805 -0.322851,0.47805 -0.177568,0 -0.322851,-0.21512 -0.322851,-0.47805 0,-0.26291 0.145283,-0.47802 0.322851,-0.47802 z m 90.702236,0 c 0.18805,0 0.34176,0.14341 0.34176,0.31868 0,0.17529 -0.0642,0.3187 -0.1425,0.3187 -0.0782,0 -0.23203,-0.14341 -0.34177,-0.3187 -0.10975,-0.17527 -0.0455,-0.31868 0.14251,-0.31868 z m -59.532607,0.0728 c 0.565218,0.0852 1.438326,0.55032 1.438326,0.8764 0,0.17903 -0.190065,0.32553 -0.422479,0.32553 -0.624317,0 -1.713129,-0.86593 -1.434543,-1.14093 0.07621,-0.0753 0.230289,-0.0894 0.418696,-0.061 z m -43.296722,0.38405 c 0.03155,-0.015 0.07758,-0.011 0.140617,0.01 0.08404,0.0273 0.197857,0.0838 0.346815,0.16247 0.357211,0.18869 1.015354,0.25217 1.462918,0.14128 0.617133,-0.15289 0.814063,-0.0782 0.814063,0.3106 0,0.28193 0.145283,0.51288 0.322851,0.51288 0.177567,0 0.32285,0.13966 0.32285,0.3106 0,0.20194 -0.289848,0.20194 -0.827934,0 -0.455479,-0.17094 -0.881313,-0.3106 -0.945854,-0.3106 -0.06455,0 -0.336369,0.21627 -0.604084,0.48053 -0.53722,0.5303 -0.659575,0.41815 -0.978013,-0.89568 -0.111701,-0.46088 -0.148885,-0.67663 -0.05422,-0.7214 z m -24.032224,0.0211 c 0.177567,-0.10832 0.32285,0.0268 0.32285,0.30003 0,0.27325 -0.145283,0.4967 -0.32285,0.4967 -0.177569,0 -0.322852,-0.13509 -0.322852,-0.30001 0,-0.16494 0.145283,-0.38837 0.322852,-0.49672 z m -1.7857704,0.0405 c 0.036741,-0.0429 0.2845955,0.13642 0.6520074,0.48425 0.489883,0.46379 0.79145,1.00158 0.670295,1.19508 -0.410715,0.65599 -1.2022215,0.3937 -1.1028644,-0.36537 0.051621,-0.39437 -0.030467,-0.93217 -0.1822346,-1.19507 -0.037942,-0.0657 -0.04945,-0.10458 -0.037203,-0.11889 z m 33.5903824,0.061 c 0.0184,0.0188 0.03817,0.0662 0.05865,0.14378 0.08188,0.31009 0.07645,0.74031 -0.01197,0.95607 -0.08843,0.21576 -0.155401,-0.038 -0.148815,-0.56393 0.0049,-0.39437 0.04696,-0.59243 0.102154,-0.53592 z m -3.357147,0.0219 c 0.32655,0.12257 0.447006,0.39892 0.32285,0.74132 -0.131029,0.36134 -0.345056,0.45644 -0.633091,0.28072 -0.612807,-0.37385 -0.341777,-1.26681 0.310241,-1.02204 z m -32.1337688,0.0361 c 0.6735099,0 0.5574676,0.8811 -0.16647,1.26355 -0.9203377,0.48619 -1.3128435,0.40462 -1.3128435,-0.27325 0,-0.59594 0.5890159,-0.9903 1.4793135,-0.9903 z m 114.6858968,0.0224 c 0.0695,-0.0331 0.14518,-0.0238 0.21061,0.0361 0.13088,0.1198 0.1423,0.37077 0.0251,0.5577 -0.11705,0.18694 -0.50308,0.33985 -0.85821,0.33985 -0.35517,0 -0.55484,-0.14553 -0.44329,-0.32367 0.11153,-0.17813 0.32595,-0.24906 0.47608,-0.15748 0.15013,0.0916 0.33779,-0.0138 0.41743,-0.23402 0.0398,-0.1101 0.10277,-0.18539 0.17215,-0.21849 z m 21.83281,0.0829 c 0.24782,0.0136 0.50508,0.32441 0.50508,0.7102 0,0.25257 -0.12961,0.45936 -0.28816,0.45936 -0.35636,0 -0.70344,-0.82689 -0.4515,-1.07558 0.0707,-0.0698 0.15197,-0.0985 0.23458,-0.094 z m -33.62696,0.0156 c 0.0339,-0.0336 0.079,0.011 0.13053,0.13818 0.0933,0.23004 0.0815,0.5047 -0.0258,0.61061 -0.10728,0.10589 -0.18364,-0.0824 -0.16963,-0.41828 0.007,-0.18563 0.031,-0.29701 0.0649,-0.33051 z m 24.21384,0 c 0.0339,-0.0336 0.079,0.011 0.13051,0.13818 0.0933,0.23004 0.0815,0.5047 -0.0258,0.61061 -0.10727,0.10589 -0.18364,-0.0824 -0.16963,-0.41828 0.007,-0.18563 0.031,-0.29701 0.0649,-0.33051 z m -121.320752,0.19795 c 0.502214,0 0.807127,0.18059 0.807127,0.47802 0,0.49033 -0.07673,0.50919 -1.049265,0.25831 -0.849201,-0.21905 -0.679094,-0.73633 0.242138,-0.73633 z m 15.335426,0 c 0.177568,0 0.32285,0.28681 0.32285,0.63736 0,0.37296 -0.215374,0.63738 -0.518958,0.63738 -0.340453,0 -0.451446,-0.17338 -0.322851,-0.50418 0.107782,-0.27724 0.196107,-0.56407 0.196107,-0.63737 0,-0.0732 0.145283,-0.13319 0.322852,-0.13319 z m 101.698076,0 c 0.17758,0 0.32285,0.14341 0.32285,0.31868 0,0.17527 -0.14527,0.31868 -0.32285,0.31868 -0.17756,0 -0.32285,-0.14341 -0.32285,-0.31868 0,-0.17527 0.14529,-0.31868 0.32285,-0.31868 z m 9.48439,0 c 0.28809,0 0.524,0.2151 0.524,0.47802 0,0.26292 -0.0546,0.47804 -0.1217,0.47804 -0.067,0 -0.30295,-0.21512 -0.52401,-0.47804 -0.32916,-0.3915 -0.3073,-0.47802 0.12171,-0.47802 z m -107.84676,0.006 c 0.378753,0.0269 0.861357,0.39951 0.861357,0.78115 0,0.63611 -0.932197,0.63316 -1.179794,-0.004 -0.105146,-0.27047 -0.106845,-0.57484 -0.0037,-0.67657 0.08145,-0.0803 0.195971,-0.10981 0.322222,-0.10084 z m 96.0236,0.12759 c 0.0897,0.0209 0.17125,0.0751 0.22322,0.15811 0.10394,0.16602 0.0515,0.386 -0.11666,0.48861 -0.1682,0.10261 -0.39105,0.0508 -0.495,-0.11515 -0.10394,-0.16602 -0.0515,-0.38601 0.11666,-0.48862 0.0841,-0.0514 0.18209,-0.0639 0.27178,-0.0429 z m -94.54933,0.16743 c 0.06733,-0.007 0.145588,0.0236 0.227635,0.10459 0.10728,0.10588 0.134043,0.37362 0.05928,0.59503 -0.109358,0.32387 -0.185653,0.32374 -0.389062,-9.4e-4 -0.20195,-0.32255 -0.09984,-0.67772 0.102154,-0.69837 z m 30.883979,0.0181 c 0.07831,0 0.142511,0.14342 0.142511,0.31868 0,0.17528 -0.15372,0.3187 -0.341768,0.3187 -0.188047,0 -0.252253,-0.14342 -0.142509,-0.3187 0.109743,-0.17526 0.263463,-0.31868 0.341766,-0.31868 z m 41.486361,0 c 0.16709,0 0.30394,0.14342 0.30394,0.31868 0,0.17528 -0.22636,0.3187 -0.5032,0.3187 -0.27683,0 -0.41367,-0.14342 -0.30393,-0.3187 0.10975,-0.17526 0.33609,-0.31868 0.50319,-0.31868 z m 1.89928,0 c 0.18804,0 0.34176,0.14342 0.34176,0.31868 0,0.17528 -0.0643,0.3187 -0.14251,0.3187 -0.0782,0 -0.23201,-0.14342 -0.34177,-0.3187 -0.10975,-0.17526 -0.0455,-0.31868 0.14252,-0.31868 z m 10.16981,0 c 0.43343,0 0.85534,0.10756 0.93765,0.23902 0.0823,0.13145 -0.27246,0.23902 -0.78821,0.23902 -0.51575,0 -0.93765,-0.10757 -0.93765,-0.23902 0,-0.13146 0.35476,-0.23902 0.78821,-0.23902 z m -33.702003,0.0429 c 0.274663,0.0344 0.628679,0.33109 0.628679,0.61311 0,0.16493 -0.136848,0.30001 -0.303936,0.30001 -0.380919,0 -0.788054,-0.62134 -0.556792,-0.84963 0.05781,-0.057 0.140499,-0.0749 0.232049,-0.0636 z m -29.873178,0.155 c -0.190763,0.0124 -0.33778,0.16189 -0.595256,0.45873 -0.29827,0.34386 -0.542289,0.69552 -0.542289,0.78115 0,0.0855 0.363206,0.15562 0.807126,0.15562 0.44392,0 0.807128,-0.14341 0.807128,-0.31869 0,-0.17528 0.153719,-0.31869 0.341767,-0.31869 0.188048,0 0.252253,0.14341 0.14251,0.31869 -0.109744,0.17528 0.02709,0.31869 0.303935,0.31869 0.774598,0 0.59904,-0.44394 -0.407348,-1.03077 -0.432303,-0.25206 -0.66681,-0.37712 -0.857573,-0.36473 z m -34.817469,0.002 c 0.157925,-0.0191 0.325231,-0.0186 0.489952,0.004 0.219629,0.0298 0.435018,0.0987 0.619219,0.21225 1.064412,0.65616 0.748923,1.12651 -0.361947,0.53965 -0.404344,-0.21361 -0.670863,-0.21361 -0.804605,0 -0.292647,0.46729 -0.807758,0.38995 -0.807758,-0.12141 0,-0.3433 0.391365,-0.57677 0.865139,-0.63427 z m 66.79107,0.11884 c 0.07831,0 0.142511,0.1434 0.142511,0.31869 0,0.17528 -0.153719,0.3187 -0.341767,0.3187 -0.188048,0 -0.252254,-0.14342 -0.14251,-0.3187 0.109743,-0.17529 0.263463,-0.31869 0.341766,-0.31869 z m 28.07922,0 c 0.26077,0 0.47419,0.21512 0.47419,0.47804 0,0.26291 -0.1296,0.47803 -0.28818,0.47803 -0.15857,0 -0.37197,-0.21512 -0.47419,-0.47803 -0.11319,-0.29119 -6.4e-4,-0.47804 0.28818,-0.47804 z m -41.401867,0.11952 c 0.05852,-0.0254 0.139481,-0.0144 0.228265,0.0399 0.177568,0.10833 0.322851,0.26007 0.322851,0.33736 0,0.0773 -0.145283,0.14068 -0.322851,0.14068 -0.177568,0 -0.322851,-0.15175 -0.322851,-0.33736 0,-0.0929 0.03606,-0.15505 0.09458,-0.18051 z m -24.155187,0.0728 c 0.09176,0.0344 0.120756,0.11218 0.08071,0.23092 -0.154604,0.45838 -1.202495,0.69759 -1.202495,0.27449 0,-0.16768 0.298715,-0.38187 0.663989,-0.47615 0.211237,-0.0545 0.366032,-0.0637 0.457793,-0.0292 z m 31.997565,9.5e-4 c 0.08741,0.047 0.134312,0.14637 0.134312,0.29443 0,0.54167 -0.01869,0.54739 -0.592103,0.1886 -0.346719,-0.21696 -0.330993,-0.30716 0.08071,-0.46311 0.161756,-0.0612 0.289682,-0.0668 0.377078,-0.0199 z m -21.192773,0.12509 c 0.188048,0 0.341767,0.14341 0.341767,0.31868 0,0.17529 -0.0642,0.3187 -0.14251,0.3187 -0.0783,0 -0.232023,-0.14341 -0.341767,-0.3187 -0.109744,-0.17527 -0.04553,-0.31868 0.14251,-0.31868 z m 3.266342,0 c 0.188048,0 0.252253,0.14341 0.14251,0.31868 -0.109744,0.17529 -0.263463,0.3187 -0.341768,0.3187 -0.0783,0 -0.142508,-0.14341 -0.142508,-0.3187 0,-0.17527 0.153718,-0.31868 0.341766,-0.31868 z" />
    <g
       aria-label="VIII"
       id="text825"
       style="font-size:40px;line-height:1.25;font-family:Hultog;-inkscape-font-specification:Hultog"
       transform="matrix(0.32285105,0,0,0.3186883,6.364563,6.5821689)">
      <path
         d="m 318.09715,67.275211 -0.4159,1.737004 -2.6422,1.443425 q -2.81346,7.24159 -3.74312,9.516819 -3.03364,7.363915 -4.28135,8.978593 l -1.68807,5.773701 q -2.2263,0 -2.66667,-1.712538 l -0.95413,-3.74312 -0.97859,-1.37003 -0.31804,-2.055046 q -0.0245,-0.04893 -1.59022,-3.033639 -1.02752,-1.957187 -0.97859,-3.180428 -0.66055,-1.027523 -1.95719,-3.082569 -0.19571,-0.562691 -0.53822,-1.614679 -0.95413,-2.593272 -1.8104,-3.865444 -1.3211,-1.957186 -3.08257,-1.859327 -0.0979,-0.513761 -0.0979,-1.027523 0,-1.443425 1.3945,-1.908257 l 3.57186,1.370031 3.6208,-1.027523 1.29663,0.880734 q 0.0489,0.269113 0.0489,0.342508 0,1.198776 -2.20183,2.201834 0.34251,1.321101 1.17431,3.767585 1.51682,2.83792 4.20795,8.61162 0,0 0.95413,4.159022 l 0.75841,1.027523 q 0.70948,-0.244649 0.70948,-0.587156 V 84.88989 l 6.263,-14.776758 q 0,-0.318043 -1.68808,-1.41896 -0.0979,-0.415902 -0.0979,-0.831805 0,-0.513761 0.29358,-0.905198 0.31805,-0.391438 0.83181,-0.293578 l 3.1315,0.636085 q 1.07645,-0.70948 1.93272,-0.70948 0.85627,0 1.54128,0.685015 z"
         id="path1157" />
      <path
         d="m 331.16138,92.131481 q -0.4159,2.470948 -1.46789,2.226299 l -4.526,-1.027523 q 0,0 -3.32721,0.318043 -0.95413,0.660551 -1.66361,0.660551 -1.00306,0 -1.56575,-1.46789 l 1.24771,-1.810398 q 0.58715,0.195719 1.22324,0.195719 2.10397,0 2.10397,-3.400612 0,-0.66055 -0.0979,-1.981651 -0.0979,-1.321101 -0.0979,-1.981652 0,-1.932721 0.0979,-5.82263 0.0979,-3.889908 0.0979,-5.822629 0,-1.663609 -0.97859,-2.617737 -0.66055,0.244648 -1.3211,0.244648 -1.14985,0 -1.93272,-0.929664 0.4159,-2.446483 1.44342,-2.226299 l 4.47707,0.978593 4.25688,-1.027523 1.76147,0.905199 -0.51377,1.761468 q -0.48929,-0.122325 -0.8318,-0.122325 -2.25076,0 -2.25076,3.840979 0,0.391437 0.0245,1.027523 0.0245,0.611621 0.0245,0.831804 0,1.614679 -0.0978,15.437309 l 1.02752,1.100917 q 0.66055,-0.220183 1.19878,-0.220183 1.07645,0 1.68807,0.929664 z"
         id="path1159" />
      <path
         d="m 344.47025,92.131481 q -0.41591,2.470948 -1.46789,2.226299 l -4.526,-1.027523 q 0,0 -3.32721,0.318043 -0.95413,0.660551 -1.66361,0.660551 -1.00306,0 -1.56575,-1.46789 l 1.2477,-1.810398 q 0.58716,0.195719 1.22325,0.195719 2.10397,0 2.10397,-3.400612 0,-0.66055 -0.0979,-1.981651 -0.0979,-1.321101 -0.0979,-1.981652 0,-1.932721 0.0979,-5.82263 0.0979,-3.889908 0.0979,-5.822629 0,-1.663609 -0.97859,-2.617737 -0.66055,0.244648 -1.3211,0.244648 -1.14985,0 -1.93272,-0.929664 0.4159,-2.446483 1.44342,-2.226299 l 4.47707,0.978593 4.25688,-1.027523 1.76146,0.905199 -0.51376,1.761468 q -0.48929,-0.122325 -0.8318,-0.122325 -2.25077,0 -2.25077,3.840979 0,0.391437 0.0245,1.027523 0.0245,0.611621 0.0245,0.831804 0,1.614679 -0.0979,15.437309 l 1.0275,1.100917 q 0.66055,-0.220183 1.19877,-0.220183 1.07646,0 1.68808,0.929664 z"
         id="path1161" />
      <path
         d="m 357.77912,92.131481 q -0.41591,2.470948 -1.46789,2.226299 l -4.526,-1.027523 q 0,0 -3.32722,0.318043 -0.95412,0.660551 -1.6636,0.660551 -1.00306,0 -1.56575,-1.46789 l 1.2477,-1.810398 q 0.58716,0.195719 1.22324,0.195719 2.10398,0 2.10398,-3.400612 0,-0.66055 -0.0979,-1.981651 -0.0979,-1.321101 -0.0979,-1.981652 0,-1.932721 0.0979,-5.82263 0.0979,-3.889908 0.0979,-5.822629 0,-1.663609 -0.97859,-2.617737 -0.66055,0.244648 -1.3211,0.244648 -1.14985,0 -1.93273,-0.929664 0.41591,-2.446483 1.44343,-2.226299 l 4.47706,0.978593 4.25688,-1.027523 1.76147,0.905199 -0.51376,1.761468 q -0.4893,-0.122325 -0.8318,-0.122325 -2.25077,0 -2.25077,3.840979 0,0.391437 0.0245,1.027523 0.0245,0.611621 0.0245,0.831804 0,1.614679 -0.0979,15.437309 L 354.8923,91.422 q 0.66055,-0.220183 1.19877,-0.220183 1.07645,0 1.68808,0.929664 z"
         id="path1163" />
    </g>
  </g>
</svg>
