<?xml version="1.0" encoding="UTF-8" standalone="no"?>
<!-- Created with Inkscape (http://www.inkscape.org/) -->

<svg
   version="1.1"
   id="svg2"
   width="4cm"
   height="4cm"
   viewBox="0 0 151.18111 151.1811"
   sodipodi:docname="01.svg"
   inkscape:version="1.1.2 (0a00cf5339, 2022-02-04)"
   xmlns:inkscape="http://www.inkscape.org/namespaces/inkscape"
   xmlns:sodipodi="http://sodipodi.sourceforge.net/DTD/sodipodi-0.dtd"
   xmlns="http://www.w3.org/2000/svg"
   xmlns:svg="http://www.w3.org/2000/svg">
  <defs
     id="defs6" />
  <sodipodi:namedview
     id="namedview4"
     pagecolor="#505050"
     bordercolor="#eeeeee"
     borderopacity="1"
     inkscape:pageshadow="0"
     inkscape:pageopacity="0"
     inkscape:pagecheckerboard="0"
     showgrid="false"
     inkscape:zoom="1.9107143"
     inkscape:cx="159.1028"
     inkscape:cy="196"
     inkscape:window-width="1854"
     inkscape:window-height="995"
     inkscape:window-x="0"
     inkscape:window-y="0"
     inkscape:window-maximized="1"
     inkscape:current-layer="svg2"
     units="cm"
     inkscape:document-units="cm" />
  <!-- Border -->
  <path
     id="border"
     class="board-border"
     style="fill:none;stroke:#000000;stroke-width:0.1cm"
     d="M 0,0 H 151.18111 V 151.18111 H 0 Z" />
  <g
     inkscape:groupmode="layer"
     inkscape:label="Image"
     id="g8">
    <path
       style="fill:#000000;stroke-width:0.433798"
       d="m 103.08693,147.80594 c -0.093,-0.0746 -7.330959,-0.26192 -27.432554,-0.70983 -4.489501,-0.10005 -14.428824,-0.27413 -22.087384,-0.38687 -7.65856,-0.11274 -16.409486,-0.27961 -19.446501,-0.37084 -3.037015,-0.0913 -10.691087,-0.29199 -17.009047,-0.44616 -6.31796,-0.15418 -12.0205941,-0.29771 -12.6725187,-0.31894 -1.3360061,-0.0435 -2.3006547,-1.00855 -1.8872089,-1.88795 0.2236411,-0.47569 0.7060311,-0.51943 2.5972586,-0.23553 6.502416,0.97612 16.517035,1.30063 52.259302,1.69338 10.299443,0.11318 21.751271,0.28282 25.448507,0.377 3.697237,0.0942 11.151727,0.26703 16.56554,0.38414 21.351556,0.46184 30.022246,0.70023 30.294066,0.8329 0.15622,0.0763 4.20757,0.16474 9.00301,0.19665 7.45512,0.0496 8.71899,0.14449 8.71899,0.65453 0,0.52761 -2.55584,0.57926 -22.12576,0.44713 -12.16917,-0.0821 -22.17073,-0.1855 -22.2257,-0.22961 z m -16.869022,-4.44565 c -2.640882,-0.16324 -4.959986,-0.21721 -5.153558,-0.11995 -0.193571,0.0973 -1.140497,0.0561 -2.104269,-0.0915 -1.110185,-0.16999 -1.509073,-0.36766 -1.088529,-0.53942 0.988343,-0.40366 12.454169,0.24263 13.058734,0.73608 0.286756,0.23407 0.424139,0.39991 0.3053,0.36855 -0.11884,-0.0314 -2.376795,-0.19055 -5.017678,-0.35379 z m 24.728282,0.0189 c 0,-0.21554 0.20331,-0.39191 0.45181,-0.39191 0.2485,0 0.58537,0.17637 0.74858,0.39191 0.16321,0.21556 -0.0401,0.39192 -0.45182,0.39192 -0.41172,0 -0.74857,-0.17636 -0.74857,-0.39192 z m -8.16275,-1.22109 c -2.24475,-0.63913 -5.107703,-1.34591 -6.362117,-1.57061 -1.254425,-0.2247 -2.280767,-0.58915 -2.280767,-0.8099 0,-0.22075 0.285734,-0.31187 0.63497,-0.20249 0.794714,0.24891 13.678244,3.02028 14.040674,3.02028 0.14631,0 0.13248,0.17636 -0.0307,0.3919 -0.44865,0.59253 -1.53679,0.44221 -6.00201,-0.82918 z m 28.20945,0.17772 c 0.3301,-0.10872 0.87028,-0.10872 1.20039,0 0.33011,0.10872 0.06,0.19767 -0.6002,0.19767 -0.66021,0 -0.9303,-0.0889 -0.60019,-0.19767 z m 4.68155,-0.13236 c 0.79227,-0.16454 2.953,-0.29917 4.80161,-0.29917 2.48406,0 2.98524,0.0781 1.92064,0.29917 -0.79226,0.16454 -2.95298,0.29918 -4.8016,0.29918 -2.48406,0 -2.98524,-0.078 -1.92065,-0.29918 z m -91.81456,-0.57874 c -1.482827,-0.52623 -8.63701,-1.195 -12.140192,-1.13485 -0.924309,0.0158 -4.4895,0.24236 -7.922649,0.5033 -7.44613,0.56598 -9.688871,0.54884 -10.652618,-0.0815 -2.349599,-1.53653 -2.887399,-2.35183 -3.9759104,-6.02741 -0.6271479,-2.1177 -1.4275723,-3.9914 -1.7787191,-4.16377 -0.3511479,-0.17237 -0.6455045,-0.78964 -0.6541257,-1.37169 -0.00862,-0.58205 -0.4337114,-2.02826 -0.9446458,-3.21379 -1.1867037,-2.75354 -1.1823177,-2.96203 0.1092418,-5.19284 0.8630508,-1.49067 1.3182939,-1.86243 2.2848774,-1.86589 2.0784388,-0.008 4.7992648,-0.47436 4.5652158,-0.78346 -0.123202,-0.16271 0.181243,-0.71633 0.676545,-1.23028 0.495301,-0.51394 1.230317,-1.57864 1.633369,-2.36598 0.403053,-0.78736 1.18326,-1.6283 1.733793,-1.86879 0.550534,-0.24048 1.000971,-0.36113 1.000971,-0.26811 0,0.60234 -2.964311,5.95575 -3.356999,6.06258 -0.266357,0.0725 -0.484286,0.3712 -0.484286,0.66384 0,0.81559 -0.89757,1.09567 -3.314261,1.03413 -3.5086965,-0.0893 -3.6594436,0.13446 -2.4535203,3.64225 0.5725976,1.66557 1.1024034,3.40893 1.1773466,3.87413 0.1796147,1.11497 0.8153117,3.10235 1.1406897,3.56617 0.142321,0.20287 0.321763,1.32144 0.398758,2.4857 0.183588,2.77609 1.033492,4.61295 2.413248,5.21566 0.614049,0.26823 1.233358,0.39227 1.376243,0.27565 0.142885,-0.11662 -0.09758,-1.26118 -0.534365,-2.54348 l -0.794154,-2.33143 1.495409,-2.78095 c 1.667683,-3.10132 1.823295,-3.90469 0.792327,-4.0905 -0.55079,-0.0993 -0.452799,-0.38139 0.452388,-1.30245 0.635509,-0.64666 1.586101,-1.61664 2.11243,-2.15551 0.93488,-0.95718 0.97292,-0.96223 1.648754,-0.21926 0.592014,0.65083 1.548784,0.80075 6.633341,1.03942 3.267851,0.15339 6.013071,0.22308 6.100489,0.15484 0.08742,-0.0682 -0.08463,-0.49552 -0.382324,-0.94953 -0.297698,-0.45402 -0.411875,-0.99638 -0.253728,-1.20523 0.25277,-0.33383 -1.650671,-5.5067 -3.026931,-8.22612 -0.27272,-0.53888 -1.293911,-3.0961 -2.269315,-5.68272 -0.975403,-2.58661 -1.93147,-4.84225 -2.124593,-5.01251 -0.543434,-0.47912 -2.203988,0.8985 -3.581599,2.97135 -1.07489,1.61736 -1.2247,2.25636 -1.079605,4.60496 0.168581,2.72881 -0.320753,3.67797 -0.850259,1.64925 -0.601496,-2.30454 -0.441758,-5.02076 0.377006,-6.41072 1.734856,-2.94518 4.90789,-4.66878 6.381162,-3.46628 0.493057,0.40244 1.374858,0.21734 4.369758,-0.91729 0.5938,-0.22497 1.231102,-0.2854 1.416224,-0.1343 0.185122,0.15109 0.483824,2.38597 0.663781,4.96639 0.179958,2.58041 0.539206,4.91139 0.79833,5.17997 0.502058,0.52035 1.049288,2.09358 1.396747,4.01551 0.116907,0.64664 0.290743,1.36885 0.386303,1.60489 0.09637,0.23806 2.06412,0.55303 4.41877,0.70731 2.334762,0.15298 5.325384,0.35327 6.645825,0.4451 1.320443,0.0918 4.079276,0.46107 6.130738,0.82058 2.051467,0.35949 3.846379,0.55859 3.988699,0.44243 0.14232,-0.11616 0.07511,-0.78965 -0.149335,-1.49665 -0.269418,-0.84862 -0.727433,-1.31373 -1.347815,-1.36869 -0.516845,-0.0458 -2.452223,-0.26954 -4.300842,-0.49725 -1.848618,-0.22771 -5.845954,-0.52405 -8.882969,-0.65854 -3.037015,-0.1345 -5.729975,-0.41211 -5.984355,-0.61694 -0.553784,-0.44589 12.606123,-0.0847 16.509147,0.45307 1.431176,0.19721 2.708393,0.27183 2.838258,0.16584 0.330033,-0.26937 -0.954756,-4.50016 -1.441092,-4.74549 -0.218957,-0.11045 -0.398106,-0.52256 -0.398106,-0.91581 0,-0.78542 1.3344,-1.21062 3.601204,-1.14749 0.952452,0.0265 1.11513,0.0989 0.480161,0.21354 -2.26208,0.40855 -2.340609,0.4877 -1.39854,1.40944 0.491094,0.48049 0.585326,0.65317 0.209408,0.38373 -1.785294,-1.2796 -1.92057,-0.0636 -0.257135,2.31147 0.657041,0.9381 1.197222,2.25675 1.200401,2.93035 0.0099,2.09752 0.590002,3.73349 1.394501,3.93275 1.840926,0.45596 6.293853,2.26495 6.293853,2.55686 0,0.49883 -0.550668,0.3868 -2.917974,-0.59363 -3.617154,-1.49807 -3.804273,-1.52305 -3.804273,-0.50794 0,0.70756 0.395542,1.00217 1.809821,1.34802 2.09168,0.51151 3.852428,1.46114 3.397554,1.83241 -0.172133,0.14049 -1.238723,-0.10963 -2.370198,-0.55582 -2.511911,-0.99058 -2.491284,-0.99013 -2.123755,-0.045 1.356565,3.4886 0.982466,7.63781 -0.936759,10.38998 -0.606328,0.86947 -1.222124,2.23941 -1.368434,3.0443 -0.245693,1.35161 -0.149172,1.50634 1.263073,2.0246 2.19705,0.80628 4.510905,0.98075 7.531106,0.56789 1.452486,-0.19855 5.358731,-0.35142 8.680538,-0.33971 5.33239,0.0189 6.135828,-0.0654 6.860885,-0.71936 0.790176,-0.71266 0.739869,-0.75739 -1.330636,-1.18292 -1.183523,-0.24324 -3.298596,-0.44342 -4.700162,-0.44484 -1.778288,-0.002 -2.983563,-0.24569 -3.988779,-0.80712 -0.792265,-0.44249 -1.918112,-0.9634 -2.501876,-1.15756 -0.735617,-0.24468 -1.290926,-0.99747 -1.809192,-2.45258 -0.728741,-2.04607 -0.718355,-2.14473 0.407714,-3.87334 0.635525,-0.97558 1.719752,-2.50334 2.409388,-3.39501 0.689635,-0.89168 1.252728,-1.757 1.251317,-1.92295 -0.0033,-0.40476 -4.726306,-3.19108 -7.52934,-4.44204 -1.238588,-0.55277 -2.34667,-1.23689 -2.462403,-1.52027 -0.306274,-0.74996 5.494982,1.99063 8.399213,3.96789 2.756117,1.87643 2.786022,2.05041 0.86623,5.04035 -1.819103,2.83312 -2.334325,5.29359 -1.383559,6.60728 0.782426,1.08111 3.354901,2.45958 4.902343,2.62694 1.809408,0.1957 7.105343,0.98159 7.849299,1.16481 1.21158,0.29839 1.411297,1.20821 0.472857,2.15414 -0.786579,0.79285 -1.558183,0.88646 -11.379737,1.38065 -5.79477,0.29157 -10.963913,0.42173 -11.486981,0.28926 -0.523068,-0.13247 -1.566009,-0.61198 -2.317649,-1.06555 -1.256378,-0.75816 -1.340795,-0.96525 -1.046466,-2.56724 0.176084,-0.95841 0.754155,-2.63473 1.284597,-3.72517 1.172432,-2.41019 1.421122,-3.41745 1.408739,-5.70579 -0.0092,-1.68197 -0.85521,-7.10064 -1.12893,-7.22993 -0.701941,-0.33156 -9.226563,-1.40178 -12.614393,-1.58368 -2.376795,-0.12762 -5.364411,-0.3315 -6.639147,-0.45307 l -2.317702,-0.22104 0.29814,1.90251 c 0.163978,1.04637 0.400243,2.4486 0.525033,3.11606 l 0.226892,1.21357 6.354195,0.24076 c 6.349858,0.2406 12.836362,1.22149 12.836362,1.94112 0,0.21527 -0.470424,0.26209 -1.080362,0.10752 -2.813548,-0.71298 -22.698899,-2.13615 -32.001443,-2.2903 -3.500248,-0.058 -4.564643,0.0484 -4.74585,0.47455 -0.168814,0.39699 0.05055,0.48868 0.791009,0.33063 0.687352,-0.14671 1.024606,-0.0373 1.024606,0.33248 0,0.38366 0.62025,0.55799 2.040681,0.57361 1.122375,0.0123 3.337116,0.091 4.921646,0.17479 1.58453,0.0838 5.11455,0.25197 7.844489,0.37369 2.72994,0.12173 6.295131,0.46744 7.922649,0.76824 1.627518,0.30081 5.335918,0.93342 8.240888,1.40581 6.469433,1.052 6.482168,1.05505 6.482168,1.55377 0,0.56907 -1.459328,0.50229 -3.808754,-0.1743 -1.855027,-0.5342 -4.910232,-0.9488 -12.996865,-1.76372 -1.716574,-0.17298 -4.417476,-0.50214 -6.002007,-0.73146 -1.584529,-0.22932 -5.936179,-0.50902 -9.670332,-0.62156 -6.710986,-0.20226 -6.792677,-0.19454 -7.075812,0.66756 -0.423582,1.28974 -0.426777,1.28624 1.260967,1.38 0.858287,0.0476 2.640883,0.25757 3.961325,0.46645 1.320442,0.20888 4.561525,0.56408 7.202407,0.78935 5.424672,0.46273 13.001137,1.85163 10.467126,1.91879 -0.845288,0.0224 -2.573866,-0.13252 -3.841285,-0.3443 -1.267417,-0.21177 -4.573155,-0.58773 -7.346081,-0.83545 -9.119472,-0.8147 -10.794795,-1.0005 -11.575268,-1.28373 -1.056188,-0.38329 -2.023964,1.59404 -1.847515,3.77478 0.07427,0.91783 0.13553,2.61031 0.136148,3.76108 l 0.0011,2.09231 1.961191,-0.21316 c 8.870192,-0.96407 13.011929,-1.11247 18.75287,-0.6719 6.155855,0.4724 9.420125,1.1169 9.750179,1.92507 0.239421,0.58627 -0.241334,0.55938 -2.157574,-0.12065 z M 33.673395,119.75778 c -0.557914,-2.42016 -1.333771,-5.57188 -1.724129,-7.0038 -0.390356,-1.43193 -0.709738,-4.14054 -0.709738,-6.01914 v -3.41563 l -1.293854,0.26504 c -0.71162,0.14578 -2.019088,0.51239 -2.905486,0.81468 -1.315756,0.44872 -1.531105,0.67767 -1.173004,1.2471 0.241246,0.38362 1.105247,2.28472 1.920002,4.22469 0.814753,1.93996 2.248948,5.27887 3.187097,7.4198 0.93815,2.14093 1.705726,4.14241 1.705726,4.44775 0,0.86381 1.60324,3.41037 1.817213,2.88643 0.104808,-0.25664 -0.265913,-2.44675 -0.823827,-4.86692 z M 145.75782,141.8115 c -0.16321,-0.21554 0.14814,-0.39191 0.6919,-0.39191 0.54377,0 0.98867,0.17637 0.98867,0.39191 0,0.21556 -0.31136,0.39191 -0.69191,0.39191 -0.38055,0 -0.82545,-0.17635 -0.98866,-0.39191 z m -41.53389,-2.82365 c -5.149721,-1.01935 -10.011351,-2.02617 -10.803609,-2.23737 -0.792269,-0.21121 -3.81728,-0.66073 -6.722252,-0.99894 -6.722598,-0.78268 -7.922648,-0.98783 -7.922648,-1.35437 0,-0.58755 12.702258,1.13466 21.318369,2.89041 3.60126,0.73385 8.59667,1.64661 11.10087,2.02833 2.50422,0.38173 4.55312,0.8143 4.55312,0.96127 0,0.73463 -2.9874,0.40039 -11.52385,-1.28933 z m -17.99142,0.41493 c -1.840585,-0.19251 -3.558359,-0.52292 -3.817276,-0.73424 -0.627628,-0.51228 1.34989,-0.47345 6.284888,0.12338 7.139476,0.86346 5.00337,1.39225 -2.467612,0.61086 z m 48.24154,-0.70531 c 0,-0.63868 0.59561,-0.7185 7.08236,-0.94917 6.48336,-0.23056 8.05677,0.27345 2.16073,0.69213 -2.04668,0.14535 -4.96366,0.36112 -6.48217,0.47953 -1.87073,0.14586 -2.76092,0.0742 -2.76092,-0.22249 z m -83.547941,-1.02085 -1.200401,-0.57991 1.403452,0.1039 c 0.771901,0.0571 1.492141,0.32436 1.600533,0.5938 0.256612,0.63786 -0.31693,0.6004 -1.803584,-0.11779 z m -12.964334,-1.17926 c -5.41381,-0.4962 -12.598212,-0.91439 -15.965338,-0.9293 -3.99636,-0.0177 -6.122046,-0.17229 -6.122046,-0.44524 0,-0.28378 1.619873,-0.34674 5.041685,-0.19595 2.772927,0.12219 7.364462,0.31802 10.203411,0.43517 4.740305,0.19561 10.203947,0.61502 15.365138,1.17948 1.122375,0.12276 2.040682,0.38874 2.040682,0.59109 0,0.20234 -0.162055,0.34518 -0.360121,0.31742 -0.198066,-0.0277 -4.789601,-0.45646 -10.203411,-0.95267 z m 76.585615,0.24387 c -0.52818,-0.17472 -2.36479,-0.43938 -4.08137,-0.58813 -3.25534,-0.28209 -10.757864,-1.37517 -16.633253,-2.42337 -1.885862,-0.33646 -7.162144,-0.72791 -11.725076,-0.86992 -5.860335,-0.18239 -8.353195,-0.3985 -8.490222,-0.73602 -0.145072,-0.35734 0.632059,-0.42685 3.082183,-0.27568 10.991048,0.67814 15.648097,1.12526 22.722672,2.18161 4.357456,0.65064 10.065846,1.3891 12.685296,1.64104 2.95178,0.28389 4.83832,0.64432 4.96166,0.94795 0.22301,0.54894 -1.04641,0.61062 -2.52189,0.12252 z m 23.76794,-1.09118 c 0,-0.21415 1.32813,-0.50266 2.9514,-0.64114 4.19033,-0.35748 6.17166,-0.3125 6.17166,0.14012 0,0.21556 -1.05021,0.39192 -2.33379,0.39192 -1.28358,0 -3.33627,0.11215 -4.56153,0.24922 -1.36019,0.15218 -2.22774,0.0976 -2.22774,-0.14012 z m -88.109462,-0.69956 c -1.584529,-0.26906 -4.06936,-0.67845 -5.521845,-0.90974 l -2.640883,-0.42054 3.361124,0.20632 c 5.709343,0.35045 6.289007,0.43043 7.727319,1.06615 1.626035,0.71867 1.034962,0.73036 -2.925715,0.0578 z m 25.491378,-0.92057 c -0.139641,-0.18442 0.279756,-0.25203 0.931982,-0.15027 0.65223,0.10176 1.185871,0.25264 1.185871,0.3353 0,0.30324 -1.871973,0.13969 -2.117853,-0.18503 z m 40.050534,-1.08551 c -2.50883,-0.30803 -5.20728,-0.73712 -5.99655,-0.95353 -0.78926,-0.21641 -4.13838,-0.56251 -7.44248,-0.76911 -16.196467,-1.01272 -25.841414,-2.15772 -24.868032,-2.9522 0.126431,-0.1032 2.585165,0.0658 5.463857,0.37549 2.878688,0.30973 7.718807,0.76935 10.755821,1.0214 11.479324,0.95269 26.789464,2.80956 28.917964,3.50727 0.96474,0.31623 0.89612,0.35639 -0.58849,0.34436 -0.92431,-0.008 -3.73325,-0.26564 -6.24209,-0.57368 z m 6.96234,-1.93669 c -14.06575,-2.60668 -24.534539,-3.94084 -34.091408,-4.34466 -9.200194,-0.38874 -12.069139,-0.35057 -12.838855,0.17084 -0.501743,0.33987 -1.031164,0.25875 -2.245749,-0.34414 -0.874084,-0.43386 -1.477877,-0.87973 -1.341766,-0.99083 0.136112,-0.1111 0.690837,0.024 1.232717,0.30022 2.640608,1.346 0.67716,-1.75855 -2.497061,-3.94829 -0.759777,-0.52413 -1.627696,-1.14521 -1.928718,-1.38018 -0.301022,-0.23497 -3.08616,-1.9768 -6.189197,-3.87073 -3.103038,-1.89394 -5.641887,-3.57619 -5.641887,-3.73834 0,-0.16215 0.50365,-1.34377 1.119226,-2.62583 0.61557,-1.28206 1.258554,-3.16073 1.428842,-4.1748 0.290305,-1.72874 0.140812,-2.08311 -2.395905,-5.67951 -1.488041,-2.109639 -3.211385,-4.381443 -3.82965,-5.048443 -0.618264,-0.667 -1.129933,-1.37244 -1.137034,-1.567643 -0.0071,-0.195213 -0.623824,-0.95618 -1.370484,-1.69105 l -1.357572,-1.336138 -1.004237,2.70783 c -1.46713,3.955972 -1.991763,6.024842 -2.004977,7.906564 -0.01349,1.92392 -1.415537,6.36264 -2.009722,6.36264 -0.220029,0 -1.237138,0.61726 -2.260236,1.37169 -1.023099,0.75444 -2.104866,1.37169 -2.403925,1.37169 -0.299061,0 -1.350034,0.35273 -2.335497,0.78383 -0.985463,0.4311 -2.227096,0.77846 -2.759182,0.7719 -0.962423,-0.0119 -0.96249,-0.0143 -0.0129,-0.46357 0.524997,-0.24841 1.173213,-0.60629 1.440482,-0.79528 0.26727,-0.18898 1.651276,-0.90627 3.075568,-1.59395 1.424294,-0.6877 2.989675,-1.69125 3.478629,-2.23013 0.516941,-0.56973 1.404243,-3.11206 2.120125,-6.07463 0.677117,-2.802167 1.776853,-6.563626 2.443858,-8.358789 l 1.212732,-3.263933 -1.07069,-2.153176 c -0.588879,-1.184234 -1.525418,-2.385157 -2.081194,-2.668719 -1.223094,-0.624011 -3.941059,-1.062247 -7.492682,-1.208076 -1.452485,-0.05968 -2.856955,-0.168476 -3.121043,-0.241837 -0.264089,-0.07338 -0.497667,-0.04519 -0.519063,0.06259 -0.0214,0.107778 -0.269442,0.548677 -0.551211,0.979779 -0.281769,0.431102 -0.655381,4.435512 -0.830247,8.898676 l -0.317941,8.114865 1.556732,0.32924 c 0.856202,0.18109 1.654373,0.56834 1.773714,0.86056 0.162273,0.39735 -0.07164,0.45769 -0.92766,0.23929 -0.629555,-0.16061 -1.764806,-0.38684 -2.52278,-0.50273 l -1.378134,-0.21071 0.329671,-4.161657 c 0.374942,-4.733151 0.117376,-5.890716 -1.113895,-5.00611 -0.429525,0.308599 -2.617569,1.569131 -4.862319,2.801185 -2.244751,1.232063 -4.633368,2.662609 -5.30804,3.179007 -0.674671,0.516389 -1.60852,0.938889 -2.07522,0.938889 -0.4667,0 -1.817977,0.463711 -3.002838,1.030466 -3.795588,1.81555 -9.2449341,1.0817 -7.843119,-1.056212 0.2529084,-0.385712 0.3335122,-0.969981 0.1791191,-1.298369 -0.5382838,-1.144942 2.1059393,-3.240308 6.1839969,-4.900401 2.168899,-0.882926 5.023813,-2.135633 6.344255,-2.783807 1.320441,-0.648183 2.940983,-1.374491 3.601204,-1.614024 0.660221,-0.239533 1.595459,-0.603027 2.078307,-0.807756 0.932123,-0.395227 1.572915,-0.118284 3.540652,1.530244 1.065244,0.89244 2.543769,1.196248 2.543769,0.522687 0,-0.199762 -0.594198,-0.608217 -1.320441,-0.90768 -2.014865,-0.83081 -3.481163,-1.63392 -3.481163,-1.906664 0,-0.135099 1.188397,-1.23914 2.640882,-2.453426 1.452486,-1.214287 2.640883,-2.302057 2.640883,-2.417261 0,-0.439256 -1.570579,-2.141458 -1.975865,-2.141458 -0.233715,0 -0.424937,0.326972 -0.424937,0.726593 0,0.399631 -0.507111,1.173213 -1.126912,1.719071 -1.070271,0.942592 -1.257304,0.972285 -3.721244,0.590713 -3.088012,-0.478221 -4.454228,-1.387457 -5.525721,-3.677474 -0.979944,-2.094347 -0.594513,-4.639353 0.899145,-5.937066 0.686749,-0.596659 1.154134,-1.664664 1.374006,-3.139693 0.183272,-1.229494 0.457778,-2.764524 0.610014,-3.411179 0.152236,-0.646653 0.38541,-2.115812 0.518164,-3.264799 0.132754,-1.148983 0.35384,-2.237594 0.491302,-2.419136 0.137462,-0.181537 0.456477,-1.219013 0.708921,-2.305498 0.595702,-2.563813 3.443655,-5.957869 8.254526,-9.837349 2.061805,-1.662638 4.078254,-3.666677 4.480995,-4.453421 0.777772,-1.519346 1.155541,-1.701495 2.036893,-0.982125 1.110627,0.906502 -2.065395,4.814479 -7.593689,9.343749 -0.943056,0.772634 -2.022144,1.971797 -2.397977,2.664814 -0.375832,0.693013 -0.846657,1.260023 -1.046278,1.260023 -0.199621,0 -0.362948,0.430491 -0.362948,0.956648 0,0.526157 -0.18769,1.05133 -0.417091,1.16705 -0.679708,0.342875 -1.187482,3.302641 -1.257397,7.329254 l -0.06546,3.770232 2.310459,0.678131 c 1.270751,0.37297 2.310457,0.836779 2.310457,1.030681 0,0.503762 -1.027151,0.436813 -3.288297,-0.214345 -1.105271,-0.31829 -2.085654,-0.412243 -2.23558,-0.214245 -0.240024,0.316989 0.970852,0.676983 4.563556,1.35675 1.082598,0.204836 1.324666,0.0051 2.466645,-2.03582 2.542906,-4.544515 3.295282,-5.984335 3.295282,-6.306177 0,-1.329956 2.898832,-5.732598 5.161249,-7.838727 1.833928,-1.707237 2.701471,-2.863309 2.793955,-3.723159 0.07377,-0.685892 0.261298,-2.834319 0.416736,-4.774281 0.463331,-5.78287 0.814827,-6.722764 2.335942,-6.246337 0.603552,0.189039 0.616391,0.381977 0.08485,1.274982 -0.795823,1.336987 -1.609983,10.014024 -1.109982,11.829806 0.207745,0.754429 0.382869,2.110811 0.38917,3.014183 0.01532,2.195401 0.602227,2.365977 2.0787,0.604127 2.012373,-2.401327 3.427626,-5.439029 5.614412,-12.050788 1.646744,-4.978925 2.089995,-7.003877 2.160329,-9.869236 0.04866,-1.982771 -0.04067,-3.775617 -0.198541,-3.984107 -0.306237,-0.404435 -5.566276,2.341637 -7.962882,4.15712 -0.792265,0.600162 -2.526274,2.077025 -3.853356,3.281922 -2.019809,1.833844 -2.513694,2.102629 -3.031765,1.649963 -0.511717,-0.447116 -0.276163,-0.895279 1.36022,-2.58796 3.091198,-3.197543 7.994458,-6.390865 12.727309,-8.288853 4.817302,-1.931857 10.323451,-3.13019 10.323451,-2.24675 0,0.18128 -1.515588,0.827594 -3.367975,1.436251 -1.852388,0.608658 -3.557836,1.298048 -3.789888,1.531979 -0.232047,0.23393 -0.539023,2.544103 -0.68217,5.133712 -0.143145,2.589614 -0.490383,5.202409 -0.771641,5.806208 -0.281254,0.603802 -0.511375,1.332084 -0.511375,1.618406 0,0.460524 3.500399,-2.302453 8.237546,-6.50216 1.70155,-1.508502 6.9191,-3.867238 8.554378,-3.867238 1.680893,0 1.062609,0.601914 -1.104159,1.074927 -1.215127,0.265266 -2.874298,1.072117 -3.995199,1.942862 -1.054365,0.819057 -2.766071,2.107081 -3.803793,2.862275 -2.48426,1.8079 -7.408614,6.304703 -7.408614,6.765368 0,0.199432 -0.486162,0.916426 -1.080361,1.59332 -1.594022,1.815871 -2.279465,2.992111 -2.291306,3.931954 -0.0058,0.460351 -0.444144,1.617089 -0.974093,2.570528 -1.086166,1.954133 -0.974874,2.101868 2.107867,2.798087 2.428022,0.548351 5.274578,1.77655 6.335858,2.733719 0.468862,0.42287 1.08908,0.767689 1.378262,0.766266 0.289176,-0.0016 1.548811,-1.456394 2.799177,-3.23327 2.694291,-3.828798 4.019596,-5.279326 4.480138,-4.903428 0.302381,0.246806 -1.948832,4.522549 -2.634645,5.003992 -0.153523,0.107776 -0.594348,0.694601 -0.979605,1.304059 -0.385261,0.609454 -1.087151,1.277012 -1.559758,1.483455 -0.929327,0.405954 -1.165566,1.131602 -0.368398,1.131602 0.784529,0 4.819558,-3.194165 6.064763,-4.800916 1.090891,-1.407636 2.087239,-1.917596 2.087239,-1.068307 0,0.724851 -3.40999,4.473755 -5.118507,5.627217 l -1.673292,1.129685 1.355219,0.729312 c 0.745368,0.401121 1.498625,0.730476 1.673902,0.731895 0.175278,0.0016 1.785026,-1.452389 3.57722,-3.230688 1.79219,-1.778297 3.647449,-3.548769 4.122798,-3.934383 1.264723,-1.025973 1.096672,-1.298747 -1.294657,-2.101422 -1.187408,-0.39857 -2.159733,-0.965685 -2.160722,-1.260265 -9.61e-4,-0.327717 0.324338,-0.45546 0.83848,-0.329123 1.641602,0.403378 9.544842,3.087843 13.572228,4.610027 2.248985,0.850024 4.42051,1.545499 4.825613,1.545499 0.405107,0 0.941825,0.155055 1.192709,0.344568 1.352601,1.021725 3.916204,1.238503 7.219877,0.61052 1.825806,-0.347061 4.488856,-0.787499 5.917906,-0.978748 1.42905,-0.191249 3.46296,-0.814788 4.51981,-1.385634 1.21745,-0.657597 2.72713,-1.079297 4.12005,-1.15086 2.06747,-0.106216 2.21802,-0.190842 2.52599,-1.419911 0.30675,-1.224191 0.13719,-4.10621 -0.35956,-6.111656 -0.12014,-0.48499 -0.53842,-0.8818 -0.92952,-0.8818 -0.852,0 -0.85158,-0.155084 -0.004,1.763601 0.88182,1.997847 0.96864,5.68279 0.13389,5.682528 -0.39205,-1.21e-4 -0.63898,-0.732675 -0.71199,-2.1123 -0.23655,-4.468912 -0.94783,-4.800176 -6.9093,-3.217813 -1.94834,0.517155 -4.7418,1.166344 -6.20768,1.442646 l -2.665236,0.502367 0.196537,2.217674 c 0.200513,2.262627 -0.495868,4.021454 -1.994063,5.036326 -1.189652,0.805868 -1.363629,-0.173825 -0.293707,-1.653929 0.739132,-1.022493 0.954868,-1.896982 0.845837,-3.428505 -0.08048,-1.130754 -0.36405,-2.114304 -0.63009,-2.185663 -0.292058,-0.07835 -0.416895,0.555993 -0.315071,1.60095 0.129836,1.332425 -0.0835,2.009068 -0.927029,2.940305 -1.401294,1.547008 -1.9247,1.540725 -1.377527,-0.01654 1.075008,-3.059414 0.390866,-6.004875 -1.938347,-8.345265 -0.660221,-0.663388 -3.145052,-2.797456 -5.521847,-4.742372 -2.376794,-1.944915 -5.185733,-4.398105 -6.242086,-5.451535 -2.745683,-2.738184 -4.402467,-4.14129 -4.889921,-4.14129 -0.232854,0 -0.956437,-0.345043 -1.607957,-0.766759 -1.27849,-0.827543 -3.106351,-1.894673 -7.067978,-4.126388 -2.459872,-1.385728 -2.514907,-1.458414 -2.224924,-2.93857 0.29249,-1.492941 0.270973,-1.519757 -1.319021,-1.643906 -1.51615,-0.118383 -1.611318,-0.21125 -1.535073,-1.497898 0.07828,-1.320908 0.96773,-5.055214 1.493554,-6.270584 0.208442,-0.481785 0.290608,-0.464105 0.455317,0.09798 0.110538,0.377215 0.385525,0.685845 0.611081,0.685845 0.486724,0 2.400448,-1.916812 2.400448,-2.404321 0,-0.485525 -1.630621,-0.419013 -2.256764,0.09205 -0.767158,0.626161 -5.417258,-0.55942 -7.055921,-1.798966 -0.990265,-0.749074 -1.231285,-1.207718 -0.982625,-1.869869 0.515434,-1.372539 0.944337,-1.660504 5.14832,-3.4565453 3.482004,-1.487596 4.292769,-1.680319 6.887384,-1.6371641 1.709814,0.028439 4.4318,0.4574343 6.502761,1.0248626 1.95908,0.5367734 3.876807,0.9616761 4.261612,0.9442289 2.239604,-0.1015429 3.457627,0.1957175 4.390618,1.0715358 0.574055,0.5388791 1.328378,0.9797781 1.676273,0.9797781 0.347895,0 1.416488,0.603545 2.374653,1.341209 1.5659,1.205545 1.70952,1.483042 1.41984,2.743381 -0.314126,1.366686 -0.897306,1.778698 -1.462022,1.032904 -0.478816,-0.632347 -4.584971,-0.9364 -6.424105,-0.475693 -1.104538,0.276688 -1.898094,0.29769 -2.191752,0.058 -0.748954,-0.611306 -0.170341,-0.775248 4.5624,-1.292685 4.441634,-0.48561 4.481242,-0.499393 2.936177,-1.021755 -1.506529,-0.509334 -3.255163,-0.459262 -7.257295,0.207814 -1.035361,0.172574 -1.527641,0.130527 -1.342016,-0.114625 0.161248,-0.212946 1.835399,-0.612133 3.720341,-0.887079 2.241251,-0.326918 3.264127,-0.632983 2.955994,-0.884486 -0.664835,-0.542645 -4.826267,-0.531653 -5.495418,0.01451 -0.670544,0.547305 -2.285084,0.604351 -2.285084,0.08074 0,-0.355686 2.931394,-1.187345 4.201404,-1.19197 0.330111,-0.0012 0.600201,-0.178545 0.600201,-0.394097 0,-0.9860262 -4.932435,0.08368 -6.21867,1.348661 -0.341207,0.335566 -2.052585,1.438996 -3.803058,2.452063 -1.750479,1.013068 -3.24795,1.966672 -3.32772,2.11912 -0.07977,0.152448 -0.768511,0.809681 -1.530535,1.460518 -0.762029,0.650836 -1.63678,1.945998 -1.943891,2.878138 -0.307111,0.93214 -0.763095,2.118439 -1.013293,2.63622 -0.892753,1.847529 0.357384,1.844188 3.298199,-0.0088 3.873326,-2.440577 4.637486,-2.79319 9.257202,-4.271626 3.425456,-1.096241 4.730845,-1.310791 8.122717,-1.335034 2.779789,-0.01987 4.103808,-0.18181 4.241422,-0.518773 0.302534,-0.740806 1.463034,-0.587031 2.023785,0.268168 0.888422,1.354938 0.61195,1.61767 -1.422797,1.352101 l -1.91985,-0.250574 0.307788,1.832859 c 0.200567,1.194357 0.0927,2.160901 -0.309652,2.774523 -0.407276,0.621132 -0.527882,1.747848 -0.354329,3.310073 l 0.263119,2.368408 -1.224151,-0.250775 c -1.129654,-0.231415 -1.199551,-0.17076 -0.905429,0.785728 0.264554,0.860335 0.156514,1.0365 -0.635675,1.0365 -0.623901,0 -0.864457,0.191312 -0.694663,0.552461 0.157215,0.334399 -0.142281,0.656606 -0.758763,0.816309 -0.905347,0.234534 -0.983091,0.456567 -0.699796,1.998523 0.295654,1.609195 -0.230932,2.903291 -1.181386,2.903291 -0.596135,0 -0.253468,-5.011111 0.385645,-5.639661 0.530601,-0.521831 0.507765,-0.653857 -0.142223,-0.822242 -0.425874,-0.110326 -1.11212,-0.287527 -1.52499,-0.39378 -1.558635,-0.401117 -0.08316,-1.066216 1.815563,-0.818401 1.430663,0.186726 1.854501,0.12409 1.703269,-0.251715 -0.110734,-0.275164 -0.778868,-0.556102 -1.484747,-0.624308 -0.746151,-0.0721 -1.283413,-0.36742 -1.283413,-0.705473 0,-0.448906 0.519947,-0.554652 2.280763,-0.463857 l 2.280763,0.117605 -0.151126,-1.580513 c -0.108151,-1.131071 0.125375,-1.867424 0.821214,-2.589458 0.74132,-0.769226 0.904454,-1.350401 0.686611,-2.446096 -0.157153,-0.790433 -0.462026,-1.526082 -0.677498,-1.634774 -0.744762,-0.375693 -9.224911,1.116605 -9.929057,1.747268 -0.38374,0.343696 -1.20768,1.330342 -1.830986,2.192548 -1.081884,1.496552 -1.133961,1.519652 -1.148266,0.509362 -0.0086,-0.608341 0.340568,-1.22069 0.821296,-1.440273 1.23638,-0.564746 0.312867,-1.040054 -0.954291,-0.49115 -5.332845,2.310063 -7.084399,3.629981 -7.084399,5.338583 0,0.983432 0.212898,1.374282 0.74858,1.374282 0.411719,0 0.627786,0.159524 0.480152,0.354497 -0.147636,0.194974 0.865959,0.888857 2.252423,1.541966 1.386467,0.653108 3.439159,1.917725 4.561534,2.810263 1.122375,0.892536 2.040683,1.443581 2.040683,1.224544 0,-0.219038 -0.21712,-0.507776 -0.48249,-0.641641 -0.26537,-0.133864 -1.368971,-1.308865 -2.452439,-2.611113 -1.802278,-2.166193 -2.088165,-2.348427 -3.358795,-2.141006 -1.59867,0.26097 -1.65361,0.155439 -0.656441,-1.260864 0.40282,-0.572136 1.029675,-1.833868 1.393007,-2.803849 0.616766,-1.646561 0.663756,-1.682249 0.708078,-0.537752 0.02612,0.674219 -0.276711,1.85914 -0.672944,2.633158 -0.992636,1.939081 0.243293,1.566074 1.500266,-0.452784 1.207047,-1.938676 1.14103,-1.884524 1.584073,-1.299418 0.27485,0.362979 0.935911,-0.215604 2.224441,-1.946911 1.008361,-1.354854 1.915772,-2.261619 2.016477,-2.015032 0.274969,0.673302 -2.160396,3.854723 -3.498637,4.570416 -1.436602,0.768297 -2.882043,2.498104 -2.407962,2.88169 0.191488,0.154937 0.8679,-0.247377 1.503138,-0.894031 0.657451,-0.669266 1.156006,-0.933381 1.15736,-0.613126 0.0014,0.309434 -0.46662,0.970089 -1.039856,1.468122 -0.573234,0.498033 -0.887778,1.031589 -0.698993,1.185678 0.188789,0.15409 0.843795,-0.232207 1.455573,-0.858436 l 1.112321,-1.138599 0.563886,0.859981 c 0.310136,0.47299 0.872788,0.859982 1.250338,0.859982 0.37755,0 0.922379,0.359812 1.210734,0.799583 0.41857,0.638357 0.314112,1.077146 -0.518035,2.176127 -0.573278,0.757099 -0.891039,1.499538 -0.706139,1.649863 0.337716,0.274566 1.914175,-1.080008 2.310634,-1.985414 0.116717,-0.266556 0.358613,-0.374603 0.537544,-0.240106 0.178932,0.134498 -0.132745,0.878224 -0.692608,1.652726 -0.95973,1.327664 -0.929461,2.500091 0.05177,2.00511 0.245837,-0.124013 0.446982,0.13575 0.446982,0.57725 0,0.507796 2.425737,2.790512 6.602207,6.212937 3.631214,2.97562 7.713316,6.424673 9.071332,7.664562 2.811856,2.567263 2.834114,2.568867 8.180871,0.590106 1.64491,-0.60876 4.74305,-1.355038 6.88475,-1.658393 3.49493,-0.495027 5.16561,-1.193751 5.2609,-2.200246 0.0108,-0.107776 0.77019,-0.613745 1.68887,-1.124378 1.78482,-0.992074 1.82635,-1.652257 0.0965,-1.535408 -1.28315,0.08668 -5.61472,-0.863863 -5.61472,-1.23213 0,-0.144565 0.27009,-0.752106 0.60019,-1.350096 0.55307,-1.001867 0.75104,-1.06696 2.52085,-0.828842 1.05635,0.142127 2.6153,0.350263 3.46434,0.462526 1.56403,0.206803 2.90353,1.069452 2.20086,1.417376 -0.21088,0.10442 -1.74458,-0.08278 -3.4082,-0.416011 -2.22182,-0.445039 -3.16667,-0.490038 -3.55935,-0.169529 -0.72811,0.594295 1.26723,1.185113 5.59716,1.657312 1.86327,0.203197 5.18617,0.613054 7.38423,0.910794 5.21827,0.70684 4.43506,0.0994 -0.99092,-0.768527 l -4.19685,-0.671321 0.11549,-2.780842 c 0.29613,-7.130298 -1.55074,-19.932404 -3.70867,-25.707666 -0.60406,-1.616635 -1.24013,-3.742971 -1.41349,-4.7251914 -0.28137,-1.5940986 -0.1581,-1.951792 1.14801,-3.3312476 0.80478,-0.8499658 1.92016,-2.1278289 2.47863,-2.8396963 0.70087,-0.8933812 1.32143,-1.2575769 2.0034,-1.1757351 0.82158,0.0986 1.08553,0.5806534 1.56708,2.8619517 0.3185,1.508859 0.89644,3.5370004 1.28431,4.5069817 0.38787,0.96998 0.74416,2.453885 0.79175,3.297564 0.0476,0.843679 0.20065,1.68468 0.34013,1.868891 0.23471,0.309972 0.47667,2.238927 0.90049,7.178757 0.0924,1.077756 0.32486,3.282258 0.51643,4.898893 0.19158,1.616635 0.33618,3.997497 0.32133,5.290805 -0.0149,1.293307 0.21009,2.585362 0.49988,2.871229 0.38291,0.377752 0.38078,0.593449 -0.008,0.789471 -0.3037,0.15319 -0.58346,1.621753 -0.64761,3.399354 -0.12761,3.535931 -0.65117,3.080844 4.99309,4.339961 2.58195,0.575976 2.77779,0.699475 2.64089,1.665451 -0.094,0.662816 -0.39862,0.998951 -0.83536,0.921619 -2.25412,-0.399107 -6.75502,-0.669334 -6.75502,-0.405553 0,0.17181 0.43133,0.889815 0.95852,1.595565 1.21508,1.626628 1.21559,2.262964 0.002,2.262964 -1.1537,0 -1.2086,0.30223 -0.21731,1.19627 0.64659,0.583168 0.6533,0.743338 0.0518,1.234313 -0.38017,0.3103 -0.77102,0.902408 -0.86856,1.315792 -0.0975,0.413384 -0.60701,0.816697 -1.13215,0.896254 -1.72983,0.262068 -2.10911,0.763437 -1.52804,2.019936 0.63636,1.376049 0.55893,1.455427 -1.58749,1.627408 -1.72926,0.138557 -1.96973,-0.211012 -1.38914,-2.01939 0.12808,-0.398923 -0.23566,-0.627725 -1.1317,-0.711876 -1.09235,-0.10259 -1.32045,0.02748 -1.32045,0.752964 0,0.482333 0.3576,1.199488 0.79466,1.593677 0.75162,0.677882 0.72289,0.716704 -0.53059,0.716704 -1.25655,0 -1.31576,-0.08127 -1.14209,-1.567646 0.10074,-0.862205 0.0406,-1.567646 -0.13365,-1.567646 -0.38721,0 -0.89349,1.460599 -0.90242,2.603472 -0.008,0.914992 -0.84575,1.315643 -2.7538,1.315643 -0.67554,0 -1.48666,0.288459 -1.80252,0.641019 -0.31583,0.352555 -1.85217,0.873045 -3.41405,1.156636 -1.56189,0.283591 -3.70409,0.725757 -4.76043,0.982592 -2.9012,0.705378 -8.796143,0.880171 -11.763939,0.348817 -2.398222,-0.429378 -9.171861,-2.774212 -13.45678,-4.658334 -1.396398,-0.614011 -1.837834,-0.657823 -2.520843,-0.250184 -0.455404,0.271794 -0.828003,0.618769 -0.828003,0.77105 0,0.484403 -2.507144,3.084037 -5.380934,5.579444 -1.529988,1.328537 -2.78095,2.563058 -2.779913,2.74338 9.6e-4,0.180319 0.566032,2.973256 1.255548,6.206526 1.770544,8.302417 1.949912,10.617439 0.896272,11.567729 -0.46286,0.417446 -1.028758,0.66457 -1.257555,0.549153 -0.735577,-0.371055 -0.434819,0.36502 1.273559,3.116869 0.919368,1.480927 1.671578,2.989808 1.671578,3.353068 0,0.363271 0.773894,2.226975 1.719768,4.14158 1.839312,3.723068 1.981435,5.561642 0.696976,9.016442 -0.320559,0.8622 -0.774302,2.97852 -1.008318,4.70293 -0.234015,1.72441 -0.528734,3.48801 -0.654934,3.91912 -0.224648,0.76741 0.0088,0.78346 11.15242,0.76632 6.260031,-0.01 13.326527,0.11796 15.703322,0.2835 2.376796,0.16554 7.022346,0.48904 10.323466,0.71891 3.3011,0.22987 8.35775,0.58249 11.23701,0.78361 2.87924,0.20113 5.91122,0.54784 6.73772,0.77048 0.82651,0.22263 3.22434,0.56092 5.32854,0.75176 4.47469,0.40583 5.66028,0.61749 6.81669,1.21696 0.68307,0.35411 0.4696,0.39919 -1.08504,0.22916 -11.34959,-1.24134 -17.858,-1.79313 -23.51308,-1.99347 -3.69723,-0.13099 -11.15173,-0.60695 -16.565551,-1.0577 -6.346112,-0.52837 -12.808425,-0.80429 -18.189076,-0.77662 -4.590185,0.0236 -8.39443,0.0933 -8.453878,0.15479 -0.05945,0.0615 -0.242218,0.68687 -0.406149,1.38967 l -0.29805,1.27782 10.432491,-0.10208 c 9.406407,-0.092 17.657704,0.13611 25.077403,0.69341 1.45249,0.1091 6.78862,0.36638 11.85808,0.57173 11.30509,0.45795 25.54109,2.44373 24.54462,3.42374 -0.65769,0.64682 -1.41428,0.57187 -6.87283,-0.68075 -6.22385,-1.42825 -10.84943,-1.85908 -23.0477,-2.14669 -6.33812,-0.14944 -13.46851,-0.40061 -15.845305,-0.55817 -2.376795,-0.15756 -8.804951,-0.32894 -14.284782,-0.38086 -11.019152,-0.10438 -10.708152,-0.1876 -9.00301,2.40911 0.528176,0.80434 0.960321,1.70245 0.960321,1.99578 0,0.41898 1.814172,0.59385 8.461341,0.81558 4.653739,0.15525 12.16225,0.6215 16.685585,1.03613 4.52333,0.41464 12.16981,1.10287 16.99216,1.52941 11.31055,1.00041 17.73952,1.85506 18.16317,2.41456 0.56394,0.74477 -1.57473,0.81803 -5.98172,0.20489 -4.73477,-0.65875 -9.2671,-1.18633 -21.90969,-2.55038 -13.403963,-1.4462 -16.309575,-1.65691 -24.008037,-1.74113 -6.551762,-0.0716 -7.682568,0.002 -7.682568,0.50334 0,0.71527 2.306187,0.96146 14.404815,1.53775 9.022814,0.42978 15.43712,1.24992 30.69257,3.92437 4.99693,0.87603 9.15632,1.59277 9.24309,1.59277 0.0867,0 0.15776,0.17636 0.15776,0.39192 0,0.49395 0.54409,0.56304 -7.92265,-1.00603 z m -49.287102,-10.3192 c -1.123498,-1.53097 -2.198266,-2.78358 -2.388371,-2.78358 -0.190111,0 -0.493389,0.54899 -0.673949,1.22 -0.295821,1.09932 -0.07398,1.43058 2.24261,3.34862 3.248088,2.6893 3.577214,1.97257 0.81971,-1.78504 z m -2.986143,-4.01744 c 0.397165,-1.36912 0.905387,-4.34109 1.129377,-6.60438 0.228033,-2.30413 0.860288,-5.2125 1.436708,-6.60881 0.97014,-2.35006 0.988193,-2.62103 0.313314,-4.702939 C 71.33661,92.647931 59.939596,71.82552 58.338146,71.389813 c -0.257841,-0.07015 -1.133049,0.358615 -1.944905,0.952807 -2.09846,1.535854 -4.383318,2.843957 -4.96753,2.843957 -0.274781,0 -0.499602,0.168106 -0.499602,0.373574 0,0.205463 -0.972325,0.724624 -2.160722,1.153697 -1.188398,0.429069 -2.160723,0.946078 -2.160723,1.148916 0,0.202834 -1.201788,0.491347 -2.670638,0.64114 -3.0011,0.306048 -3.65078,0.934548 -2.571354,2.487524 0.542398,0.780357 3.662284,2.029449 6.030138,2.414257 0.03735,0.0058 0.431294,0.760559 0.875433,1.676656 1.217198,2.510615 4.523367,7.128375 10.031303,14.010843 0.431256,0.53887 1.244874,1.448656 1.80803,2.021746 1.92456,1.95845 1.670406,5.74949 -0.646589,9.64471 -0.547239,0.91999 -0.908863,1.71921 -0.803602,1.77603 0.105261,0.0568 1.476038,0.97951 3.046182,2.05043 3.195714,2.17966 7.628795,4.8128 7.859954,4.66861 0.08318,-0.0519 0.47619,-1.21451 0.873354,-2.58363 z M 14.173525,99.11999 c 0.438202,-0.578709 -1.725393,-1.594459 -3.396287,-1.594459 -1.7401817,0 -2.5029589,0.946781 -1.2450311,1.545367 1.0431691,0.496396 4.2767241,0.530598 4.6413181,0.04908 z m 3.141347,-1.149352 c 0,-0.242614 -4.118878,-2.404667 -4.581095,-2.404667 -0.807757,0 0.09188,1.147291 1.577845,2.0122 1.578076,0.918517 3.00325,1.104759 3.00325,0.392467 z m 2.127706,-0.793413 c 0.393593,-0.5198 -2.854491,-2.395965 -4.136351,-2.389239 -1.00895,0.0049 -0.933787,0.131473 0.808243,1.356967 1.955963,1.376 2.856371,1.655276 3.328108,1.032272 z m 1.54337,-1.01609 c -0.19408,-0.41281 0.01858,-0.554372 0.735979,-0.489884 1.710321,0.153721 1.502843,-0.778772 -0.409233,-1.83927 -2.402684,-1.332591 -3.596495,-1.349609 -2.077179,-0.02964 1.36015,1.181717 0.434315,1.315514 -1.318009,0.19046 -2.180568,-1.399984 -1.87448,-0.373038 0.358193,1.201778 2.284284,1.611216 3.160205,1.923586 2.710249,0.966522 z m 5.899859,-2.580691 2.03245,-1.2017 -2.285207,-1.326118 c -2.514702,-1.459292 -3.769414,-1.430348 -2.068182,0.04772 1.329331,1.154941 1.001659,1.186052 -1.220543,0.115894 -2.211096,-1.064804 -2.304554,-0.247552 -0.147486,1.289718 l 1.560522,1.112127 -1.821105,-0.838235 c -1.001607,-0.461028 -1.973783,-0.713624 -2.160391,-0.561312 -0.420239,0.343005 2.556788,2.563624 3.436867,2.563624 0.352343,0 1.555227,-0.540775 2.673075,-1.20171 z m 3.120859,-2.282628 c 0.145362,-0.191967 -0.328048,-0.661761 -1.052024,-1.043975 -3.716306,-1.961976 -3.47704,-1.87492 -3.47704,-1.265138 0,0.312001 0.81027,1.020162 1.800602,1.573689 2.040407,1.140459 2.357129,1.225824 2.728462,0.735424 z m 0.03246,-3.570072 c -0.163215,-0.215556 -0.512827,-0.391913 -0.776915,-0.391913 -0.264089,0 -0.346621,0.176357 -0.183405,0.391913 0.163215,0.215556 0.512827,0.391913 0.776915,0.391913 0.264089,0 0.346621,-0.176357 0.183405,-0.391913 z m 1.680562,-1.133801 c 0,-0.434659 -1.477173,-0.926448 -1.855421,-0.617713 -0.152619,0.124573 0.04036,0.390562 0.428845,0.591092 0.897834,0.463447 1.426576,0.473312 1.426576,0.02663 z M 32.19985,84.98436 c 0,-0.215546 -0.216073,-0.391903 -0.480161,-0.391903 -0.264089,0 -0.48016,0.176357 -0.48016,0.391903 0,0.215556 0.216071,0.391914 0.48016,0.391914 0.264088,0 0.480161,-0.176358 0.480161,-0.391914 z m 36.77199,-4.658166 c -0.175797,-1.425708 -0.551547,-3.297633 -0.834995,-4.159838 -0.283453,-0.862206 -0.876793,-3.68206 -1.31854,-6.26634 -0.687556,-4.022348 -0.948715,-4.757922 -1.814305,-5.110149 -0.556123,-0.226302 -1.352901,-0.64297 -1.770617,-0.925926 -0.648341,-0.43918 -0.830034,-0.37959 -1.241575,0.407212 -0.265149,0.506925 -0.81416,2.135172 -1.220021,3.61833 l -0.737929,2.696652 3.18164,5.337533 c 1.749906,2.935644 3.606485,5.824596 4.125736,6.419906 1.439996,1.6509 1.997823,0.960758 1.630606,-2.01738 z m -40.613274,1.471095 c 0,-0.315763 -2.430287,-0.838615 -2.736445,-0.588721 -0.122278,0.0998 0.01768,0.547501 0.311033,0.994883 0.455276,0.69434 0.671852,0.74283 1.479384,0.331206 0.520315,-0.265222 0.946028,-0.59704 0.946028,-0.737368 z m 12.004013,0.270139 c 0,-0.09544 -0.444182,-0.788025 -0.987071,-1.539039 -0.787714,-1.089702 -1.582361,-1.529572 -3.934518,-2.177915 -1.621096,-0.446833 -3.131354,-0.812429 -3.356131,-0.812429 -0.502668,0 0.06221,2.789627 0.674554,3.33125 0.753451,0.666436 3.423835,1.310625 5.562483,1.341873 1.122375,0.01642 2.040683,-0.0483 2.040683,-0.14374 z M 24.188221,78.37143 c -0.06032,-0.08052 -0.443112,-0.04196 -0.850634,0.08568 -0.895547,0.280492 -0.989482,2.246591 -0.140748,2.945946 0.481278,0.396569 0.64982,0.159728 0.850634,-1.195336 0.137737,-0.929442 0.201075,-1.755771 0.140748,-1.836289 z m 4.068742,1.615079 c 1.280089,-0.226153 2.258712,-1.608017 2.705391,-3.820153 0.292581,-1.448983 0.2151,-1.603404 -1.023584,-2.040041 -2.686277,-0.946916 -5.956579,-1.349974 -6.725762,-0.828935 -0.679459,0.460264 -1.463657,1.775064 -1.828037,3.064931 -0.742204,2.62732 -0.789,3.135292 -0.288834,3.135292 0.297098,0 0.54018,-0.230831 0.54018,-0.512961 0,-0.282129 0.300726,-0.848641 0.668281,-1.258918 0.577177,-0.644263 0.776969,-0.672336 1.465532,-0.205906 0.698367,0.473069 0.96945,0.386166 2.185615,-0.70064 1.297435,-1.159431 2.88298,-1.659639 2.88298,-0.909521 0,0.182145 -0.461966,0.667136 -1.026591,1.077757 -0.901134,0.655351 -2.334532,2.816197 -2.334532,3.51931 0,0.137762 0.378125,0.120744 0.84028,-0.03782 0.462154,-0.158555 1.334741,-0.375639 1.939081,-0.482403 z m 15.473446,-2.8064 c 1.329795,-0.412416 4.621742,-1.955568 7.315438,-3.429225 2.693701,-1.473658 5.519733,-2.862792 6.280082,-3.086966 1.168614,-0.344545 1.404685,-0.650953 1.526219,-1.980967 0.07907,-0.865357 0.485059,-2.511396 0.902188,-3.657867 0.41713,-1.14647 0.638393,-2.242999 0.491699,-2.436733 -0.413932,-0.546661 -5.381198,-3.470144 -5.896093,-3.470144 -0.252152,0 -0.601113,0.689175 -0.775468,1.531499 -0.341006,1.647439 -1.40603,3.140344 -1.933285,2.709993 -0.178073,-0.14534 0.02031,-1.230366 0.440902,-2.411172 0.420563,-1.180802 0.759854,-2.296131 0.753981,-2.478507 -0.01964,-0.610469 -1.888461,1.619115 -1.899284,2.26595 -0.01728,1.033267 -1.418562,3.477085 -1.993741,3.477085 -0.643065,0 -0.3708,-1.068091 0.974053,-3.821137 1.143411,-2.340687 0.665003,-2.80799 -0.621102,-0.606678 -1.863474,3.189532 -7.417378,10.306488 -8.042942,10.306488 -0.443024,0 2.352127,-4.611011 3.7788,-6.233682 0.803885,-0.914325 0.800269,-0.930131 -0.119546,-0.522057 -1.184581,0.525546 -3.560587,2.599306 -5.046182,4.404269 -0.620941,0.75443 -2.611712,2.755468 -4.423933,4.446746 -1.812223,1.691282 -3.229097,3.347355 -3.148608,3.680166 0.175864,0.727184 4.690839,2.000293 7.223559,2.036862 0.987499,0.01427 2.883467,-0.311507 4.213263,-0.723923 z m -8.164587,-6.97078 c 1.417886,-1.444179 4.160753,-4.077792 6.095257,-5.852477 l 3.517283,-3.226697 -0.865119,-2.577669 -0.86512,-2.577669 -1.782852,1.49024 c -0.98057,0.819632 -1.782854,1.609475 -1.782854,1.755203 0,0.145729 -1.323186,2.519152 -2.940414,5.274278 -3.908184,6.658027 -4.781896,8.34057 -4.331092,8.34057 0.207315,0 1.537024,-1.181602 2.954911,-2.625779 z M 124.54796,53.157891 c 0.48264,-0.203707 0.76077,-0.618707 0.61808,-0.922215 -0.14471,-0.307799 0.16002,-0.735065 0.6891,-0.966175 0.78156,-0.341406 0.85566,-0.556021 0.42087,-1.219116 -0.43469,-0.662937 -0.35114,-0.905699 0.47405,-1.377458 0.55095,-0.31498 1.00174,-0.71074 1.00174,-0.87947 0,-0.501039 -2.32997,-1.215963 -3.98391,-1.222418 -0.84587,-0.0031 -1.85346,-0.168895 -2.23909,-0.367985 -0.5999,-0.309713 -0.57143,-0.478975 0.19713,-1.172137 1.3353,-1.204309 0.58301,-1.393779 -1.58506,-0.399209 -1.28233,0.588251 -2.13126,1.343508 -2.57743,2.293047 -0.59142,1.258679 -0.56155,1.70762 0.26898,4.043394 0.57621,1.62051 1.22989,2.691616 1.70559,2.794783 1.00113,0.217119 3.8881,-0.131533 5.00995,-0.605041 z m 1.76336,-7.952542 c 0,-0.391912 -0.48016,-0.587868 -1.44049,-0.587868 -0.79226,0 -1.44048,0.164094 -1.44048,0.364655 0,0.313607 0.46269,0.452681 2.52084,0.757709 0.19807,0.02935 0.36013,-0.211169 0.36013,-0.534496 z m 0,-4.438915 c 0,-0.82477 -0.2049,-3.337902 -0.45533,-5.584739 -0.25044,-2.246838 -0.80518,-7.788722 -1.23277,-12.3153 -0.4276,-4.526578 -0.99182,-9.200122 -1.25385,-10.385654 -0.26202,-1.185532 -0.70491,-3.4341252 -0.9842,-4.9968721 -0.27929,-1.5627469 -0.68041,-2.8413583 -0.89136,-2.8413583 -0.49195,0 -3.08351,2.7103357 -3.51381,3.6748557 -0.18048,0.4045358 -0.14851,0.9336163 0.071,1.1757341 1.13644,1.2533196 3.30077,8.3743186 3.70727,12.1975606 0.16043,1.508859 0.60951,4.771522 0.99797,7.250362 0.75169,4.796819 0.94593,10.723164 0.39017,11.905263 -0.38855,0.826436 0.46414,1.404724 2.08454,1.413726 0.93342,0.0052 1.08036,-0.197954 1.08036,-1.493578 z M 77.082528,31.703865 c 0.402912,-0.635949 0.727765,-1.2973 0.721893,-1.469668 -0.01724,-0.505714 -1.887555,1.597766 -1.899286,2.136051 -0.01743,0.799339 0.397578,0.564456 1.177393,-0.666383 z m -0.564669,-1.599946 c 0.135857,-0.424042 0.12901,-0.770985 -0.01522,-0.770985 -0.445623,0 -1.537114,1.341899 -1.553233,1.909568 -0.02214,0.78036 1.249373,-0.142677 1.568453,-1.138583 z M 74.956147,29.69128 c 0.784831,-1.196948 0.242802,-1.334464 -0.688277,-0.174621 -0.437997,0.545605 -0.582901,0.992009 -0.32202,0.992009 0.260886,0 0.715517,-0.367825 1.010297,-0.817388 z M 70.34578,12.898003 c 0.513421,-0.463687 1.971909,-1.304371 3.241083,-1.868185 1.269175,-0.563816 2.307594,-1.1663706 2.307594,-1.3390115 0,-0.1726419 -0.918307,-0.5076299 -2.040683,-0.7444195 C 72.731399,8.7095984 71.221362,8.3658785 70.498134,8.1825647 68.506208,7.6776786 62.950601,8.9065357 60.280688,10.442585 l -2.235349,1.286033 1.707969,1.107859 c 1.110871,0.720555 2.545336,1.198523 4.103218,1.367201 1.317386,0.142639 2.527339,0.433783 2.688778,0.646988 0.322634,0.426091 2.280316,-0.579753 3.800476,-1.952663 z m -7.895818,0.03607 c 0,-0.569675 3.283746,-1.338634 5.013337,-1.173979 2.272825,0.21637 2.02647,1.016277 -0.311533,1.011529 -1.133505,-0.0023 -2.65512,0.128229 -3.381362,0.290067 -0.845966,0.188518 -1.320442,0.142661 -1.320442,-0.127617 z M 145.03758,130.62535 c 1.1884,-0.3076 2.21474,-0.56195 2.28076,-0.56521 0.066,-0.003 0.12005,0.23 0.12005,0.51837 0,0.3585 -0.72134,0.53726 -2.28077,0.56521 l -2.28076,0.0409 z m -73.464567,-2.15657 c 0,-0.25935 0.660657,-0.31218 1.800602,-0.14396 2.49174,0.36769 2.558933,0.55363 0.200068,0.55363 -1.10037,0 -2.00067,-0.18435 -2.00067,-0.40967 z m 64.581597,-3.4298 c -6.92708,-1.6071 -21.12837,-2.92624 -41.293809,-3.83573 -7.922652,-0.35732 -15.053035,-0.6972 -15.845301,-0.7553 -0.792265,-0.0581 -1.980661,-0.13032 -2.640883,-0.1605 -1.078647,-0.0493 -1.112214,-0.0968 -0.330955,-0.46768 0.478192,-0.22703 1.214513,-0.30471 1.636268,-0.17261 0.421753,0.1321 5.864454,0.40623 12.094887,0.60919 23.457173,0.7641 37.326463,1.81975 47.745473,3.6341 2.62306,0.45677 2.74839,0.52835 1.92064,1.09709 -0.7841,0.53874 -1.16048,0.54463 -3.28632,0.0514 z m -82.885711,-1.04145 c -0.119939,-0.0979 -3.667125,-0.29138 -7.882637,-0.42996 -4.215512,-0.13857 -7.88064,-0.43365 -8.144728,-0.65572 -0.32929,-0.2769 2.235513,-0.3275 8.16273,-0.16105 9.057872,0.25437 11.370306,0.49844 10.243998,1.08117 -0.694312,0.35924 -2.028351,0.45206 -2.379363,0.16556 z m -30.807931,-3.44924 c 3.222202,-2.62769 4.457115,-3.32868 4.457115,-2.53008 0,0.29303 -0.860653,1.22513 -1.912563,2.07133 -1.051909,0.8462 -1.916198,1.67082 -1.920642,1.83248 -0.0044,0.16167 0.910227,0.3148 2.032603,0.3403 1.122375,0.0256 2.688898,0.18534 3.481164,0.35518 0.91688,0.19656 -0.441437,0.28814 -3.736873,0.25193 l -5.177356,-0.0569 z m 6.476295,-0.38987 c -2.160231,-3.59035 -4.997831,-10.05109 -5.206936,-11.85532 -0.196905,-1.69897 0.119097,-1.08299 3.417944,6.66249 0.734436,1.72442 1.958531,4.14937 2.72021,5.38879 0.761679,1.23942 1.19535,2.25349 0.963713,2.25349 -0.231636,0 -1.084356,-1.10226 -1.894931,-2.44945 z m 115.139997,-1.03688 c -1.05412,-0.23966 -1.09336,-0.30649 -0.32197,-0.54846 1.03501,-0.32465 3.20294,0.0476 3.20294,0.55007 0,0.39804 -1.1259,0.3974 -2.88097,-0.002 z M 22.392171,114.50811 c -0.168966,-0.35939 -0.410359,-1.72619 -0.536428,-3.03732 l -0.229218,-2.38387 0.963343,2.54743 c 0.529837,1.40108 0.964184,2.76787 0.965217,3.03731 0.0027,0.71321 -0.804053,0.59975 -1.162914,-0.16355 z M 77.815099,53.404062 c -1.452485,-0.735363 -3.127045,-1.33775 -3.721244,-1.33864 -0.660014,-0.0012 -1.080361,-0.240626 -1.080361,-0.6159 0,-0.456919 0.276755,-0.544103 1.080361,-0.340344 2.157366,0.547014 7.320331,2.775669 7.23842,3.124549 -0.158583,0.675452 -0.880744,0.505099 -3.517176,-0.829665 z M 65.010956,53.141556 c -0.207151,-0.269438 -0.460541,-2.298898 -0.563089,-4.50991 -0.172781,-3.725396 -0.09249,-4.176761 1.095506,-6.158669 1.676249,-2.796433 4.922192,-5.129138 7.845227,-5.63798 1.228654,-0.213886 2.403136,-0.303519 2.609965,-0.199184 0.794229,0.400643 0.323086,0.927262 -0.829582,0.927262 -1.995812,0 -5.196735,1.490502 -6.539148,3.044944 -2.286467,2.647598 -2.917288,4.902445 -2.571596,9.192065 0.295064,3.661421 -0.02242,4.674458 -1.047283,3.341472 z m 4.421841,0.125059 c -0.151942,-0.200659 -0.05666,-0.475607 0.211742,-0.610998 0.573009,-0.289054 1.448313,0.07782 1.448313,0.607048 0,0.476877 -1.299612,0.47997 -1.660055,0.004 z M 79.77365,33.807258 c 0.02305,-0.456556 0.136817,-0.549422 0.290094,-0.236781 0.138704,0.282909 0.121649,0.620932 -0.03788,0.751165 -0.159558,0.130228 -0.273039,-0.101247 -0.25219,-0.514384 z m 27.57616,-3.696893 c 0.16588,-0.219068 0.50274,-0.29684 0.74859,-0.172827 0.666,0.335962 0.54182,0.57113 -0.3016,0.57113 -0.41172,0 -0.61286,-0.179236 -0.44699,-0.398303 z m -39.587645,-4.67695 c -0.02089,-0.928062 0.124737,-1.22544 0.464359,-0.948236 0.327642,0.267423 0.337923,0.7242 0.03045,1.352094 -0.436326,0.890988 -0.466197,0.866606 -0.494795,-0.403858 z M 78.89546,24.370441 c -1.406251,-0.463146 -0.468992,-1.317328 2.119338,-1.931482 2.055135,-0.48764 2.533648,-0.730194 1.958671,-0.992828 -0.454501,-0.207605 -1.272099,-0.188893 -2.030551,0.04647 -1.5994,0.496329 -2.306235,0.502387 -1.938404,0.01661 0.157172,-0.207569 1.06505,-0.553024 2.01751,-0.767676 3.111652,-0.701261 4.478487,0.75667 2.739858,2.922468 -0.599537,0.746839 -1.171433,0.95897 -2.520842,0.935049 -0.959956,-0.01702 -2.015469,-0.119894 -2.34558,-0.228615 z m 2.368791,-1.001093 c -0.344545,-0.281221 -0.568189,-0.304361 -0.568189,-0.05878 0,0.523116 0.567843,0.986594 0.888297,0.725036 0.136447,-0.111368 -0.0075,-0.411181 -0.320108,-0.666249 z m 7.83462,0.868737 c 0.163217,-0.215551 0.392042,-0.391912 0.5085,-0.391912 0.116458,0 0.211741,0.176361 0.211741,0.391912 0,0.215551 -0.228825,0.391911 -0.508499,0.391911 -0.279674,0 -0.374957,-0.17636 -0.211742,-0.391911 z M 65.330926,21.573743 c 0,-0.393232 1.582143,-1.646684 2.078489,-1.646684 0.672321,0 0.247657,0.614289 -0.893175,1.292008 -0.651924,0.387278 -1.185314,0.546882 -1.185314,0.354676 z m 4.944035,-4.2084 c 1.701804,-1.309212 3.194402,-2.132266 3.841284,-2.118175 0.993505,0.02164 1.004217,0.05149 0.175792,0.489889 -0.485202,0.256764 -2.077723,1.216374 -3.538938,2.132466 -1.461214,0.916093 -2.792815,1.659194 -2.959103,1.651334 -0.16629,-0.0079 0.950141,-0.97784 2.480965,-2.155514 z"
       id="path12" />
    <g
       aria-label="I"
       id="text1483"
       style="font-size:40px;line-height:1.25;font-family:Hultog;-inkscape-font-specification:Hultog">
      <path
         d="m 26.730457,21.495665 q -0.1997,0.968393 -0.704823,0.872513 L 23.85243,21.96548 q 0,0 -1.597598,0.124645 -0.458135,0.258877 -0.798799,0.258877 -0.481629,0 -0.751811,-0.575284 l 0.5991,-0.709514 q 0.281929,0.07671 0.587351,0.07671 1.010247,0 1.010247,-1.332738 0,-0.258878 -0.04698,-0.776633 -0.04698,-0.517754 -0.04698,-0.776632 0,-0.757456 0.04698,-2.281956 0.04698,-1.524499 0.04698,-2.281955 0,-0.651987 -0.469883,-1.025921 -0.31717,0.09588 -0.63434,0.09588 -0.552111,0 -0.928016,-0.364345 0.199699,-0.958805 0.693075,-0.872513 l 2.149709,0.383522 2.043987,-0.402698 0.845787,0.354758 -0.246688,0.690339 q -0.234941,-0.04793 -0.399399,-0.04793 -1.080729,0 -1.080729,1.505323 0,0.153409 0.01174,0.402697 0.01174,0.239702 0.01174,0.325994 0,0.632811 -0.04698,6.050059 l 0.493376,0.431462 q 0.31717,-0.08629 0.575605,-0.08629 0.51687,0 0.810546,0.364345 z"
         id="path2871"
         style="stroke-width:0.433798" />
    </g>
  </g>
</svg>
