<?xml version="1.0" encoding="UTF-8" standalone="no"?>
<!-- Created with Inkscape (http://www.inkscape.org/) -->

<svg
   version="1.1"
   id="svg2"
   width="4cm"
   height="4cm"
   viewBox="0 0 151.18111 151.1811"
   sodipodi:docname="02.svg"
   inkscape:version="1.1.2 (0a00cf5339, 2022-02-04)"
   xmlns:inkscape="http://www.inkscape.org/namespaces/inkscape"
   xmlns:sodipodi="http://sodipodi.sourceforge.net/DTD/sodipodi-0.dtd"
   xmlns="http://www.w3.org/2000/svg"
   xmlns:svg="http://www.w3.org/2000/svg">
  <defs
     id="defs6" />
  <sodipodi:namedview
     id="namedview4"
     pagecolor="#505050"
     bordercolor="#eeeeee"
     borderopacity="1"
     inkscape:pageshadow="0"
     inkscape:pageopacity="0"
     inkscape:pagecheckerboard="0"
     showgrid="false"
     inkscape:zoom="1.9107143"
     inkscape:cx="159.1028"
     inkscape:cy="196"
     inkscape:window-width="1920"
     inkscape:window-height="1043"
     inkscape:window-x="0"
     inkscape:window-y="0"
     inkscape:window-maximized="1"
     inkscape:current-layer="svg2"
     units="cm"
     inkscape:document-units="cm" />
  <!-- Border -->
  <path
     id="border"
     class="board-border"
     style="fill:none;stroke:#000000;stroke-width:0.1cm"
     d="M 0,0 H 151.18111 V 151.18111 H 0 Z" />
  <g
     inkscape:groupmode="layer"
     inkscape:label="Image"
     id="g8">
    <path
       id="path12"
       style="fill:#000000;stroke-width:0.424411"
       d="m 78.862936,2.9778087 c -7.975831,-0.0027 -10.649521,0.670195 -13.61085,3.426043 -3.196151,2.974381 -2.985514,5.9504313 0.591004,8.3378933 0.877466,0.585742 1.430593,1.170552 1.228974,1.299693 -0.611654,0.391774 -2.676249,2.936371 -3.451228,4.253473 -0.957696,1.627635 -1.469477,6.100331 -0.870117,7.60507 0.450731,1.131587 0.353783,1.25608 -2.778701,3.561751 -3.576222,2.632292 -2.907238,1.437296 -6.611816,11.813565 -0.467788,1.31024 -1.084052,3.543604 -1.368972,4.963031 -0.284924,1.419427 -0.721854,3.495197 -0.97113,4.613293 -0.249276,1.118095 -0.433722,4.870147 -0.409361,8.337892 0.02436,3.467746 -0.06997,7.020053 -0.209997,7.893547 -0.140028,0.873493 -0.350025,7.216247 -0.466957,14.095008 -0.116928,6.878765 -0.32297,13.042845 -0.458094,13.697965 -0.135128,0.65512 -0.340584,3.335157 -0.456324,5.955637 -0.298921,6.76776 -1.159739,21.90234 -1.366314,24.02107 -0.09581,0.98268 -0.303009,2.85381 -0.459868,4.15809 l -0.285313,2.3714 0.941887,-0.74523 c 0.795755,-0.63027 0.941002,-1.2138 0.941002,-3.77191 0,-1.66427 0.201196,-4.45012 0.447464,-6.19138 0.246245,-1.74126 0.472705,-4.23827 0.503283,-5.54851 0.03062,-1.31024 0.35135,-6.13431 0.7124,-10.72015 0.361045,-4.58584 0.738426,-9.767237 0.838214,-11.514227 0.657688,-11.513948 0.855664,-15.979671 0.74075,-16.675786 -0.299356,-1.813388 0.505737,-12.141651 0.936574,-12.015963 0.293894,0.08574 0.507126,10.64037 0.60784,30.095359 0.15856,30.629217 0.373348,36.860077 1.225427,35.527537 0.287048,-0.4489 0.349518,-2.45279 0.165697,-5.32595 -0.356196,-5.56744 -0.456438,-56.795587 -0.111647,-57.097343 0.31463,-0.275365 1.39307,1.787068 5.077157,9.714359 4.578718,9.852337 9.022345,16.581547 11.914035,18.040617 1.759878,0.888 4.768093,1.31512 4.516277,0.64132 -0.107323,-0.28716 -0.827133,-0.70501 -1.600237,-0.92902 -0.77311,-0.22401 -1.794714,-0.71535 -2.270097,-1.09187 -0.475378,-0.37652 -1.239995,-0.68474 -1.698587,-0.68474 -0.458593,0 -0.711951,-0.10663 -0.563539,-0.23652 0.148417,-0.12989 -0.621676,-1.29504 -1.710995,-2.59008 -1.089318,-1.29505 -2.416404,-3.37589 -2.94971,-4.62337 -0.533306,-1.24749 -1.161655,-2.47045 -1.396437,-2.71804 -0.234785,-0.24759 -0.911727,-1.67894 -1.503656,-3.180991 -0.591929,-1.502052 -1.71094,-3.892569 -2.487185,-5.311996 -0.77624,-1.419427 -1.412192,-2.90755 -1.412388,-3.307396 -4.53e-4,-0.939458 -2.589481,-5.418197 -4.729816,-8.180469 -1.666059,-2.150176 -1.671603,-2.168142 -1.460236,-5.558595 0.116628,-1.870793 0.255038,-3.490564 0.306579,-3.59975 0.05154,-0.109187 0.06638,-0.339702 0.03366,-0.511812 -0.05954,-0.313147 0.106448,-0.946708 2.67326,-10.208336 2.423722,-8.745321 2.266168,-8.337892 3.224391,-8.337892 0.551531,0 1.048662,-0.408962 1.327326,-1.091867 0.739488,-1.812215 1.915335,-3.429097 3.103889,-4.268207 3.084512,-2.177649 6.279978,-3.768196 7.543073,-3.754843 1.643785,0.01737 9.225392,1.373082 9.622671,1.720776 0.450346,0.394133 -0.539957,0.291219 -3.344898,-0.348188 -1.436936,-0.32756 -3.02907,-0.590101 -3.53806,-0.583156 -0.911233,0.01243 -0.911401,0.02158 -0.04432,0.595564 0.484343,0.320615 1.326627,0.583156 1.872255,0.583156 1.786589,0 4.153706,1.111183 4.406402,2.068964 0.131845,0.499714 0.841446,2.695546 1.577196,4.879279 0.735755,2.183734 1.48204,4.819104 1.658715,5.856377 0.494037,2.900563 1.361826,2.389859 1.011887,-0.595563 -0.291956,-2.490743 -1.0502,-5.092618 -2.589967,-8.889255 -0.789787,-1.947463 -0.761006,-2.525717 0.127625,-2.525717 0.890305,0 2.618384,4.927682 3.27135,9.330498 0.48231,3.25212 0.759564,4.168947 1.261757,4.168947 1.213742,0 -0.913033,-8.739543 -3.502615,-14.392791 -0.244122,-0.532937 -0.09049,-0.694824 0.659235,-0.694824 1.065088,0 4.150776,2.521299 7.127506,5.823807 1.98559,2.202903 5.90741,10.34636 5.257027,10.915568 -0.204908,0.179332 -1.385255,0.446621 -2.622754,0.594011 -2.038469,0.242788 -2.192783,0.20701 -1.644537,-0.375328 1.114334,-1.183623 0.07886,-8.553216 -1.256441,-8.942763 -0.457848,-0.133569 -0.533397,0.01977 -0.280882,0.566095 0.511734,1.107134 1.158558,6.441745 0.86303,7.115748 -0.413034,0.942016 -0.973216,0.669799 -1.255555,-0.609523 -0.144588,-0.65512 -0.381736,-1.727135 -0.526325,-2.382255 -0.435959,-1.97537 -1.157354,-1.375276 -0.842647,0.701026 l 0.287084,1.892932 -1.977695,0.462959 c -1.087945,0.254663 -2.471058,0.921278 -3.072877,1.48193 -1.363342,1.270083 -0.543015,1.357099 2.132759,0.225663 1.032878,-0.436747 2.430259,-0.794085 3.104773,-0.794085 1.163243,0 1.187098,0.03732 0.468728,0.732047 -0.416551,0.402835 -1.621737,0.970737 -2.678573,1.261694 -2.566373,0.706545 -2.754218,0.811638 -2.246175,1.25627 0.277947,0.243256 1.657371,0.01159 3.816284,-0.640541 2.009539,-0.607034 4.287089,-1.005633 5.614995,-0.982525 l 2.234656,0.03879 -2.721993,0.50561 c -3.487708,0.647544 -5.732055,1.391288 -5.441327,1.802978 0.125629,0.177903 1.247861,-0.0028 2.494276,-0.401696 1.852525,-0.59261 2.266553,-0.623309 2.266553,-0.168279 0,0.342902 -0.700341,0.654612 -1.824407,0.81192 -1.003594,0.140454 -1.944356,0.424665 -2.090232,0.631235 -0.162783,0.230518 0.564619,0.266848 1.882889,0.09383 1.724155,-0.226283 2.106528,-0.173933 1.941371,0.266765 -0.113158,0.301938 -0.955519,0.714311 -1.872254,0.916608 -2.012489,0.444068 -2.185285,1.022055 -0.305694,1.022055 1.671503,0 1.737607,0.48648 0.186959,1.375688 l -1.174035,0.673115 0.284425,7.015709 c 0.411152,10.14336 0.641959,12.959967 1.370745,16.74325 1.504002,7.807599 2.050532,11.661029 2.507564,17.668399 0.265816,3.49397 0.682218,7.669107 0.925052,9.277757 0.242833,1.60866 0.648273,4.91404 0.901129,7.34529 0.660446,6.35029 1.598571,12.46882 2.894775,18.88433 0.371907,1.84075 0.578125,3.48455 0.458983,3.65326 -0.119137,0.16871 -1.077855,-0.0158 -2.130989,-0.41022 -2.103012,-0.78757 -10.589986,-1.55412 -10.139247,-0.91584 0.147718,0.20918 2.262231,0.60004 4.699694,0.86853 4.737818,0.52189 6.609275,1.12941 7.385356,2.39854 0.413556,0.6763 0.310634,0.85215 -0.696449,1.18725 -0.650076,0.21631 -1.729536,0.39619 -2.399465,0.39937 -0.953074,0.005 -1.070305,0.0897 -0.537843,0.39084 0.87307,0.49379 1.642845,0.48944 3.742741,-0.0209 1.355344,-0.32941 1.701242,-0.60474 1.701242,-1.35553 0,-0.72269 0.31448,-1.00286 1.35037,-1.20198 0.74294,-0.14281 1.71265,-0.16551 2.15491,-0.0504 0.44225,0.1151 3.76095,0.41652 7.37472,0.67001 3.61377,0.25348 7.06158,0.62382 7.6618,0.82354 1.18508,0.39434 1.84177,0.15067 1.16252,-0.43193 -0.63381,-0.54364 -9.56427,-1.60791 -15.04804,-1.7929 -4.01429,-0.13541 -4.839049,-0.27056 -4.929183,-0.80804 -0.05953,-0.35502 0.271293,-0.76861 0.735433,-0.91894 0.81695,-0.26459 7.77192,-0.0246 14.2816,0.49243 2.1883,0.1738 2.95001,0.12931 2.44997,-0.14346 -0.91107,-0.49699 -9.40096,-1.21711 -14.35869,-1.21751 -3.640885,-3.3e-4 -3.742738,-0.0255 -3.742738,-0.94608 0,-0.66962 0.298467,-0.99267 1.020748,-1.10505 1.67207,-0.26015 16.34308,0.43463 17.6832,0.83751 1.53808,0.4624 2.22688,-0.22602 0.71772,-0.71731 -0.95179,-0.30985 -11.61968,-0.82231 -17.49359,-0.84061 -2.364594,-0.007 -2.381743,-0.0167 -2.381743,-1.25162 v -1.24385 l 8.392813,0.18378 c 4.61604,0.10123 8.39281,0.0592 8.39281,-0.0938 0,-0.43246 -3.70954,-0.69656 -10.63633,-0.75764 -3.48728,-0.0307 -6.371049,-0.0931 -6.408023,-0.13803 -0.03698,-0.0449 -0.210074,-0.60118 -0.384554,-1.23611 l -0.317213,-1.1539 7.85232,0.2528 c 4.31877,0.13906 8.61787,0.36874 9.55355,0.51104 1.04676,0.15918 1.70125,0.10328 1.70125,-0.14579 0,-0.69242 -3.03787,-0.9512 -10.95354,-0.93289 -7.155447,0.0165 -7.66034,-0.0316 -8.111933,-0.77005 -0.375761,-0.61449 -0.328313,-0.83843 0.216199,-1.0213 0.383792,-0.12889 4.592624,-0.13724 9.352414,-0.0186 6.87161,0.17126 8.55739,0.1138 8.18548,-0.27839 -0.35012,-0.36923 -2.57135,-0.46474 -8.79774,-0.37689 -6.53738,0.0922 -8.514727,-3.9e-4 -9.187618,-0.43116 -0.703594,-0.45026 -0.754817,-0.65616 -0.287968,-1.14847 0.324724,-0.34244 0.381913,-0.65878 0.133794,-0.73748 -0.239081,-0.0758 -0.571445,-0.78567 -0.738979,-1.57731 l -0.304805,-1.43928 10.814426,0.15277 c 5.94793,0.0842 13.97874,0.34799 17.84624,0.58548 13.58035,0.83392 17.47018,1.00279 17.91979,0.77857 0.24952,-0.12443 -0.97538,-0.33546 -2.72199,-0.46916 -8.72425,-0.66782 -20.75061,-1.51793 -21.01924,-1.48581 -0.16688,0.0199 -5.13662,0.015 -11.04481,-0.0108 -11.914043,-0.0522 -12.168336,-0.10699 -12.168336,-2.60094 v -1.30512 l 9.702416,-0.28615 c 5.33619,-0.15718 12.02208,-0.17992 14.85754,-0.0504 2.83547,0.12951 10.10576,0.3193 16.15653,0.42108 9.44202,0.15883 11.00138,0.10232 11.00138,-0.39549 0,-0.4879 -1.3869,-0.58239 -8.73307,-0.59867 -4.80317,-0.0106 -15.36791,-0.0449 -23.47718,-0.076 -8.10927,-0.0311 -15.917988,0.0764 -17.352705,0.23884 l -2.608576,0.29546 v -3.41518 c 0,-1.8781 -0.317729,-6.04515 -0.706194,-9.259937 -1.136628,-9.40638 -1.396605,-12.4382 -1.081889,-12.60842 0.162568,-0.0879 0.784583,0.29638 1.382265,0.85457 0.597682,0.55819 2.360036,1.63939 3.917293,2.40242 1.557256,0.76303 2.948006,1.5519 3.089716,1.75257 0.32884,0.46566 2.01845,0.47858 2.01845,0.0155 0,-0.19188 -0.64904,-0.58398 -1.44251,-0.87163 -0.79347,-0.28764 -2.30937,-1.10201 -3.367939,-1.80918 -1.058569,-0.70717 -2.501166,-1.55367 -3.20667,-1.8813 -1.648375,-0.7655 -3.778181,-2.53014 -3.778181,-3.130607 0,-0.256084 -0.39953,-3.956016 -0.887837,-8.222345 -0.488303,-4.266329 -0.953619,-10.561743 -1.03404,-13.989546 -0.142255,-6.063078 -0.120334,-6.237919 0.811635,-6.442634 1.102589,-0.242192 1.95656,-2.243171 2.13099,-4.993274 0.104256,-1.643697 0.23253,-1.816954 1.599347,-2.169 0.938598,-0.241755 1.401242,-0.575513 1.25644,-0.905753 -0.228347,-0.520797 1.80485,-1.614593 2.260353,-1.215943 0.129544,0.113376 -0.277159,0.991717 -0.903783,1.951091 -1.23339,1.888346 -1.375778,2.339605 -0.737207,2.339605 0.227259,0 0.858204,-0.804011 1.401753,-1.786692 1.352731,-2.445599 2.469289,-2.410091 3.121609,0.09926 0.26965,1.037274 0.44306,2.504469 0.38544,3.260867 -0.0799,1.048795 0.0886,1.409969 0.70974,1.521478 0.71813,0.128924 0.78767,-0.08037 0.58391,-1.771957 -0.76413,-6.343937 -0.763,-6.418093 0.12937,-6.66597 0.46628,-0.129519 1.40737,-0.04994 2.09111,0.177581 1.15654,0.384834 1.21734,0.516949 0.87278,1.896033 -0.43219,1.729783 -0.544,36.456796 -0.12494,38.804706 0.27317,1.53049 0.51262,-6.641917 0.64595,-22.035862 0.10748,-12.410413 0.0478,-11.966762 1.50453,-11.159066 0.71719,0.397654 0.87008,8.610454 0.30393,16.320618 -0.28571,3.89087 -0.61696,24.61669 -0.39342,24.61664 0.0419,-1e-5 0.35805,0.0947 0.70176,0.21015 0.51884,0.17426 0.64169,-1.46036 0.72392,-9.62828 0.0544,-5.410987 0.31363,-13.53828 0.57594,-18.060781 0.26232,-4.522501 0.41186,-9.435902 0.33316,-10.918669 -0.10686,-2.013454 0.003,-2.670333 0.43151,-2.594736 1.28709,0.227045 10.37061,0.131778 11.10506,-0.116322 0.43522,-0.147013 0.67856,-0.427217 0.54051,-0.622705 -0.13805,-0.195492 0.52665,-0.357418 1.47707,-0.360594 2.38821,-0.0075 3.74655,-0.378815 3.49375,-0.955384 -0.11713,-0.267146 0.30492,-0.692716 0.93835,-0.945302 1.91758,-0.764665 1.37673,-3.652482 -0.68405,-3.652482 -0.41079,0 -1.40096,-0.285823 -2.20099,-0.635113 -1.17283,-0.512062 -1.69884,-0.546243 -2.71579,-0.177585 -0.69368,0.251471 -2.57128,0.403292 -4.17248,0.337331 l -2.91161,-0.120197 1.84479,-0.864651 c 3.78428,-1.772811 3.71628,-2.998759 -0.16658,-2.998759 -2.82924,0 -5.27055,0.679586 -7.48105,2.083699 -1.55257,0.98619 -1.90487,1.056316 -3.62933,0.715761 -1.05041,-0.207439 -3.13437,-0.244174 -4.63146,-0.08143 -2.4572,0.267126 -4.320331,0.254516 -4.664245,-0.03101 -0.07021,-0.05829 -0.210003,-0.477908 -0.310122,-0.932895 -0.34964,-1.588932 -4.442905,-8.624997 -5.983603,-10.285107 -0.85441,-0.920628 -2.463943,-2.245651 -3.577043,-2.945249 -1.1131,-0.699605 -2.023775,-1.561808 -2.023775,-1.915427 0,-0.375643 1.030805,-1.114965 2.47921,-1.778161 3.251566,-1.488832 4.323422,-2.545994 5.043485,-4.975439 0.729141,-2.460068 0.209847,-5.858346 -1.15011,-7.529849 -1.083912,-1.332222 -1.145238,-2.226253 -0.248101,-3.599749 0.808051,-1.2371083 0.860713,-3.0136283 0.113417,-3.8261873 -2.773057,-3.015233 -3.899368,-3.315314 -12.458965,-3.318252 z m -0.352653,1.238432 c 0.833002,-0.004 1.700162,0.01941 2.60237,0.07057 4.93911,0.280052 8.052486,1.213407 8.059653,2.4156 0.0027,0.461673 0.111721,1.464405 0.242785,2.228712 0.372136,2.1702273 -0.14252,2.5007453 -2.706048,1.7362853 -3.465182,-1.0333403 -9.65577,-0.604704 -13.424778,0.929793 -1.619341,0.65929 -3.33298,1.579952 -3.808308,2.0457 -1.170176,1.146597 -1.684261,1.066561 -2.852245,-0.445898 -1.956379,-2.533376 -2.100449,-3.4044113 -0.786824,-4.7707143 2.690744,-2.798649 6.842374,-4.182049 12.673395,-4.210046 z m -0.979105,7.0971353 c 0.828543,0 0.775423,0.135688 -0.505942,1.292714 -0.91576,0.8269 -1.506641,1.820545 -1.639221,2.756034 -0.114019,0.804556 -0.414718,1.786362 -0.668094,2.181407 -0.443237,0.691054 -0.47336,0.690496 -0.782397,-0.01163 -0.176662,-0.401375 -0.09488,-1.374997 0.181644,-2.163571 0.276541,-0.788573 0.407287,-1.517095 0.290631,-1.619189 -0.453221,-0.396653 -0.831156,0.433519 -1.15809,2.542003 -0.220041,1.41912 -0.860499,2.906297 -1.80846,4.199189 -1.061165,1.447281 -1.510339,2.571252 -1.619726,4.055728 l -0.151516,2.053455 0.613157,-1.834771 c 0.662287,-1.982136 2.582395,-5.218587 2.920471,-4.922706 0.114179,0.09993 -0.106348,0.601508 -0.490879,1.115131 -0.384533,0.513622 -0.841069,1.928603 -1.014547,3.14377 -0.259686,1.819037 -0.512016,2.287011 -1.425679,2.651344 -1.515393,0.604279 -1.520487,0.602026 -1.520487,-0.771596 0,-1.477576 -0.725312,-1.208844 -1.134165,0.420307 -0.163151,0.650112 -0.484718,1.283681 -0.715053,1.40826 -0.570412,0.308534 -0.527641,-1.016654 0.0824,-2.548207 0.372522,-0.935213 0.36598,-1.40173 -0.02481,-1.813832 -0.40148,-0.423377 -0.371448,-1.008442 0.127593,-2.472986 0.613533,-1.800557 0.673385,-1.853151 0.9729,-0.855347 0.175527,0.584766 0.176222,1.478112 9.07e-4,1.985212 -0.248228,0.717936 -0.196583,0.820435 0.234804,0.462183 0.329238,-0.273423 0.538214,-1.453587 0.514806,-2.908802 -0.02854,-1.774302 0.11377,-2.401922 0.51746,-2.279117 0.350933,0.106757 0.72806,-0.506514 1.018977,-1.657187 0.435664,-1.723188 0.62658,-1.900158 3.35996,-3.117404 1.593696,-0.709714 3.314105,-1.290388 3.823371,-1.290388 z m 6.674729,0 c 0.244667,0 0.3145,0.442845 0.156838,0.992606 -0.329847,1.150185 0.437723,1.350912 1.138591,0.297782 0.428283,-0.643543 0.463024,-0.637832 0.475818,0.076 0.01366,0.76292 0.02114,0.76292 0.680498,0 0.528834,-0.611913 0.669066,-0.64371 0.680498,-0.155095 0.0079,0.338479 -0.221125,0.820887 -0.508599,1.07248 -0.394462,0.345229 -0.227531,0.57546 0.680498,0.937548 0.661748,0.26388 1.203275,0.63297 1.203275,0.820451 0,0.533497 -2.430209,-0.09512 -3.064016,-0.792534 -0.98307,-1.081732 -1.422037,-0.0327 -0.899356,2.148838 0.621431,2.593686 0.282044,3.440213 -1.244037,3.104996 -0.642104,-0.141044 -1.143908,-0.08032 -1.143908,0.13881 0,0.363761 2.040189,0.887142 3.4592,0.887142 0.797022,0 0.850246,-2.86955 0.07354,-3.958018 -0.302446,-0.423852 -0.40913,-0.893551 -0.237467,-1.043787 0.491741,-0.430368 1.668259,0.629493 1.393782,1.255491 -0.135813,0.309754 0.05277,0.663598 0.418221,0.786331 0.670686,0.225244 0.662052,0.360973 -0.318981,5.044456 -0.209657,1.000901 -0.106892,1.095579 1.234288,1.133742 l 1.462894,0.0411 -1.587829,0.479243 c -2.665634,0.804714 -5.456752,2.074076 -5.1507,2.34193 0.159208,0.139338 0.03122,0.525613 -0.284427,0.85845 -0.677966,0.71494 -0.952624,0.704356 -5.679678,-0.21248 -1.996128,-0.387159 -3.808989,-0.719073 -4.028939,-0.737476 -0.219947,-0.0184 -0.301834,-1.374443 -0.181644,-3.01349 0.155253,-2.117227 0.456524,-3.209734 1.040241,-3.77423 0.451883,-0.437004 1.044139,-1.177929 1.315808,-1.646331 0.846349,-1.459246 1.898249,-1.793314 2.971863,-0.942976 0.931488,0.737771 0.966547,0.730156 2.630728,-0.611848 0.927452,-0.747901 1.768025,-1.40082 1.868712,-1.450136 0.100689,-0.04932 -0.07513,-0.361987 -0.390755,-0.694824 -0.471087,-0.496779 -0.451134,-0.60487 0.111642,-0.60487 0.424317,0 0.799168,-0.529553 0.983533,-1.389649 0.163832,-0.764306 0.4969,-1.389648 0.739864,-1.389648 z m -3.135785,0.0023 c 0.04938,-0.0049 0.09288,0.0068 0.128483,0.038 0.135751,0.118804 -0.05092,0.560169 -0.414682,0.980975 -0.363759,0.420805 -0.664897,0.586723 -0.668975,0.368349 -0.0097,-0.516234 0.609563,-1.353199 0.955174,-1.387322 z m -2.337439,2.545089 c 1.932456,-0.04089 2.801326,0.196118 2.465032,0.672335 -0.138617,0.196293 -0.749509,0.247534 -1.357448,0.113995 -0.607939,-0.133538 -1.443178,-0.129441 -1.856309,0.0093 -0.677817,0.227639 -0.667605,0.30816 0.111643,0.824329 0.83195,0.551076 0.825458,0.572541 -0.186961,0.584707 -0.881426,0.01059 -1.027738,-0.163633 -0.90733,-1.079459 0.125085,-0.951421 0.347784,-1.095939 1.731373,-1.125213 z m 10.930503,0.231908 c 0.226157,0 0.411135,0.357338 0.411135,0.794085 0,0.436747 -0.07801,0.794085 -0.173669,0.794085 -0.09566,0 -0.280632,-0.357338 -0.411133,-0.794085 -0.130501,-0.436747 -0.05249,-0.794085 0.173667,-0.794085 z M 72.270608,15.05426 c -0.117263,-0.102628 -0.678964,0.934645 -1.24758,2.304708 -0.568615,1.370063 -1.129214,2.714158 -1.246695,2.987125 -0.32232,0.748907 0.502216,0.595209 1.065052,-0.198522 0.605539,-0.853955 1.72298,-4.836216 1.429223,-5.093311 z m 18.668512,1.587395 c 0.07498,0.106494 -0.06562,0.459653 -0.427085,1.050767 -0.258294,0.422391 -0.666594,0.767719 -0.90733,0.767719 -0.711893,0 -0.502467,-0.619728 0.469616,-1.389649 0.499254,-0.395424 0.789817,-0.535331 0.864799,-0.428837 z m -0.447464,2.267485 c 0.0544,0.02522 -0.07745,0.178977 -0.359743,0.478467 -0.342449,0.363312 -0.801785,0.660704 -1.020747,0.660704 -0.69297,0 -0.432756,-0.35297 0.622906,-0.845267 0.462788,-0.215817 0.703181,-0.319124 0.757584,-0.293904 z m -24.64325,0.859225 c 0.183018,0.0045 0.171953,0.434825 9.07e-4,1.471073 -0.429339,2.600735 -0.455167,5.772843 -0.05228,6.343374 0.200125,0.283389 0.08246,0.642922 -0.275566,0.841389 -1.111567,0.616179 -1.229293,0.403438 -1.382265,-2.509432 -0.149382,-2.844523 0.411485,-5.155833 1.460237,-6.015349 0.105346,-0.08634 0.187981,-0.132559 0.248985,-0.131055 z m 23.598582,1.074031 c 0.37426,0 0.55471,0.178669 0.4005,0.397042 -0.15421,0.218374 -0.586222,0.397043 -0.960497,0.397043 -0.37426,0 -0.554709,-0.178669 -0.4005,-0.397043 0.15421,-0.218373 0.586222,-0.397042 0.960497,-0.397042 z m -7.745101,0.967015 c -0.411687,0.01006 -0.628004,0.11304 -0.772646,0.312516 -0.6517,0.898762 -0.414841,1.102192 1.31935,1.130641 0.935684,0.01535 2.109545,0.181449 2.608577,0.369125 0.499031,0.187677 0.958368,0.353777 1.020747,0.369126 0.06238,0.01535 0.113416,-0.314947 0.113416,-0.733599 0,-0.595379 -0.511077,-0.85658 -2.347188,-1.201208 -0.923659,-0.173365 -1.530567,-0.256663 -1.942256,-0.246601 z m 2.247949,3.00341 c -0.374274,0 -0.680498,0.178669 -0.680498,0.397042 0,0.218374 0.306224,0.397043 0.680498,0.397043 0.374275,0 0.680499,-0.178669 0.680499,-0.397043 0,-0.218373 -0.306224,-0.397042 -0.680499,-0.397042 z m -4.109569,1.58817 c -0.960877,0 -1.501275,0.160755 -1.334417,0.397042 0.154211,0.218374 0.880588,0.397043 1.61441,0.397043 0.733822,0 1.334416,-0.178669 1.334416,-0.397043 0,-0.218373 -0.726378,-0.397042 -1.614409,-0.397042 z M 74.522985,37.57169 c -0.315253,0.08018 -0.293997,0.507083 -0.08861,1.797547 0.168141,1.056414 0.573446,2.814193 0.901129,3.90606 0.327678,1.091867 0.725615,2.497314 0.884294,3.123609 0.535702,2.114346 0.616499,0.868383 0.202021,-3.123609 -0.587007,-5.653635 -0.55628,-5.534205 -1.465552,-5.687324 -0.185359,-0.03121 -0.3282,-0.04301 -0.433287,-0.01628 z m -4.820195,1.605227 c -0.101184,-0.02744 -0.229978,-0.02215 -0.391641,0.0046 -1.089047,0.180722 -1.220768,1.873918 -0.349994,4.495423 0.909491,2.738057 1.805248,2.939536 1.303399,0.293128 -0.196705,-1.037273 -0.314512,-2.56861 -0.262273,-3.402777 0.05861,-0.93598 0.0041,-1.308124 -0.299491,-1.390427 z m -4.825514,1.846403 c -0.133077,0.004 -0.209362,0.173404 -0.210882,0.531203 -0.0036,0.837335 1.959364,5.890038 3.445908,8.871418 0.120616,0.241906 -0.844403,0.413039 -2.433135,0.431939 -3.169571,0.03768 -5.093104,0.417736 -5.093104,1.005788 0,0.270048 0.55628,0.349766 1.474413,0.211703 0.810927,-0.121944 2.669994,-0.343577 4.131723,-0.492424 2.520579,-0.256672 2.642991,-0.229709 2.368451,0.52732 -0.577321,1.591954 -4.249262,6.857869 -5.892334,8.449561 -1.589095,1.539401 -1.885153,2.383164 -0.919734,2.623426 0.672717,0.167421 3.523188,-3.330404 5.599048,-6.871471 1.045409,-1.783297 2.23081,-3.480654 2.634273,-3.771904 0.663794,-0.479179 0.700608,-0.359705 0.393409,1.257044 -0.546304,2.875152 -0.647884,3.87776 -0.97201,9.52902 -0.225658,3.934425 -0.173645,5.250034 0.197589,4.945971 0.447927,-0.36688 2.010873,-11.64137 1.836815,-13.25052 -0.142533,-1.31772 0.06982,-1.621513 1.133279,-1.621513 1.450056,0 2.584559,-0.399135 2.295797,-0.808045 -0.127394,-0.1804 -0.05321,-0.424911 0.164808,-0.542829 0.572652,-0.309745 -1.398588,-6.694256 -2.131875,-6.904819 -0.487857,-0.140089 -0.548127,0.184232 -0.287972,1.557927 0.180694,0.954149 0.488134,2.002738 0.683156,2.330298 0.195021,0.32756 0.426909,1.028614 0.514806,1.557928 0.144197,0.868339 -0.009,0.966159 -1.563023,1.004235 -0.947321,0.02323 -1.86599,-0.0525 -2.041495,-0.168274 -0.354879,-0.23412 -0.863607,-1.336676 -3.02148,-6.543447 -0.989975,-2.388739 -1.907187,-3.871208 -2.306431,-3.859535 z m 52.019134,1.333042 c 0.27079,0.0274 0.38955,0.149034 0.30215,0.380756 -0.11165,0.295999 -0.68856,0.751625 -1.28214,1.012768 -1.17803,0.518271 -2.00693,1.946147 -1.33973,2.307035 0.60388,0.326647 4.80936,0.322561 7.83016,-0.0077 1.65942,-0.181464 2.59971,-0.140021 2.59971,0.115531 0,0.637079 -1.21911,0.882491 -4.38513,0.882491 -2.15851,0 -2.89826,0.1331 -2.75921,0.496303 0.13664,0.356937 1.29401,0.467363 4.12109,0.393941 2.41381,-0.06269 3.93058,0.05223 3.93058,0.297782 0,0.241803 -1.7933,0.400144 -4.53665,0.400144 -2.72199,0 -4.53665,0.158817 -4.53665,0.397042 0,0.233557 1.58783,0.397043 3.85615,0.397043 2.41065,0 3.85616,0.157554 3.85616,0.420305 0,0.268937 -1.51135,0.402581 -4.19641,0.371453 -2.30802,-0.02676 -4.40055,-0.01946 -4.65007,0.01628 -0.84176,0.120562 1.80128,0.70074 3.4025,0.746781 1.20134,0.03454 1.42219,0.139187 0.90732,0.430386 -0.37427,0.211687 -0.98671,0.350613 -1.36099,0.308637 -0.37427,-0.04198 -2.61992,-0.128689 -4.99032,-0.192315 -5.8905,-0.15811 -6.35132,-0.2787 -6.35132,-1.662616 0,-1.98206 0.55912,-3.675839 1.29543,-3.923121 0.39218,-0.131715 1.84395,-0.896153 3.22527,-1.699064 2.07143,-1.204039 4.24972,-1.972039 5.0621,-1.889827 z m -38.100817,1.905339 c -0.304047,-0.04956 -0.431622,0.496077 -0.627333,2.090675 -0.165548,1.348861 -0.07097,1.885952 0.333158,1.885952 0.688161,0 1.261159,-3.22061 0.666322,-3.745536 -0.149529,-0.131961 -0.270798,-0.214574 -0.372147,-0.231091 z m 34.778067,2.060433 c -0.13087,0.0074 -0.28821,0.03355 -0.47581,0.07755 -0.56141,0.131675 -1.27594,0.241874 -1.58783,0.245051 -0.3119,0.0032 -0.56709,0.184096 -0.56709,0.40247 0,0.218373 0.71453,0.397042 1.58783,0.397042 1.15988,0 1.58783,-0.173221 1.58783,-0.642093 0,-0.353912 -0.15232,-0.502171 -0.54493,-0.480016 z M 81.361638,48.16931 c -0.249788,0.009 -1.114692,0.60277 -2.730853,1.785143 -1.179012,0.862555 -2.027658,1.732785 -1.885547,1.93403 0.610838,0.864997 2.194584,-2.9e-4 3.655904,-1.99762 0.844817,-1.154699 1.210284,-1.730514 0.960496,-1.721553 z m -15.737406,5.500437 c -0.941238,0.118032 -2.627712,0.965762 -3.778186,2.0046 -1.097643,0.991129 -1.255323,1.298916 -0.668089,1.298916 0.42322,0 1.16675,-0.348015 1.652512,-0.773149 0.485763,-0.425133 1.513414,-1.058229 2.283389,-1.406705 0.769979,-0.348473 1.290311,-0.788126 1.156317,-0.977872 -0.100782,-0.142717 -0.332197,-0.185137 -0.645943,-0.14579 z m 36.924118,0.954605 c -0.23053,0.09542 -0.4384,1.206473 -0.41556,3.24691 0.0705,6.301204 0.59002,17.183067 0.90023,18.854866 0.17222,0.928087 0.36398,1.68743 0.42532,1.68743 0.10426,0 -0.14513,-14.542471 -0.35886,-20.942439 -0.0675,-2.021939 -0.3206,-2.942184 -0.55113,-2.846767 z m -27.266006,0.0442 c -0.287053,0.0028 -0.168359,1.077108 0.64151,7.568622 0.219738,1.76134 0.126904,3.671286 -0.271134,5.558595 -0.333511,1.581389 -0.876557,5.108822 -1.205937,7.838489 -0.881309,7.303589 -2.369418,15.247445 -3.217301,17.172095 -0.169721,0.38525 -0.09768,0.69482 0.161265,0.69482 0.521575,0 1.221476,-1.76685 1.652508,-4.16895 0.156742,-0.87349 0.568652,-2.74952 0.914422,-4.16894 0.345771,-1.419432 0.851993,-4.456807 1.125304,-6.749728 0.273306,-2.29292 0.686532,-5.240961 0.918849,-6.551201 0.890006,-5.019518 1.042001,-9.269743 0.466958,-13.07216 -0.317711,-2.100843 -0.785499,-3.932376 -1.039356,-4.069685 -0.05673,-0.03069 -0.106081,-0.05234 -0.147088,-0.05196 z m 4.256657,0.505609 c -0.531896,-0.178633 -0.602051,2.262182 -0.450118,15.78244 0.1783,15.866532 -0.01157,18.899362 -1.544414,24.687982 -0.195756,0.73924 -0.139179,1.06199 0.156833,0.90187 0.253463,-0.13709 0.5838,-0.78892 0.734548,-1.44858 0.150749,-0.65967 0.459694,-1.19966 0.686704,-1.19966 0.643661,0 0.972836,3.53481 1.06239,11.414967 0.06836,6.01569 0.193723,7.24603 0.737206,7.24603 0.553745,0 0.608733,-0.87198 0.3562,-5.65786 -0.398845,-7.558617 -0.671557,-10.443677 -1.20239,-12.741027 -0.271818,-1.17637 -0.313529,-5.02625 -0.107215,-9.92606 0.37122,-8.816389 0.421423,-19.757598 0.112531,-24.680226 l -0.199367,-3.17634 2.58377,-0.0016 c 2.222235,-0.0012 2.61064,0.109914 2.770725,0.794085 0.176214,0.753107 0.20435,0.747905 0.523662,-0.09771 0.185822,-0.492094 0.70839,-0.893345 1.164292,-0.893345 0.455208,0 0.954258,-0.17867 1.108468,-0.397043 0.178967,-0.253432 -1.192778,-0.397042 -3.792363,-0.397042 -2.239955,0 -4.355396,-0.09471 -4.701462,-0.210929 z m 5.880816,3.125158 c -0.404779,-0.218941 -0.03266,10.81454 0.385439,11.428157 0.09284,0.136265 0.384654,2.759966 0.6486,5.83001 0.263948,3.070043 0.575013,6.174979 0.691133,6.899387 0.11612,0.724412 0.410046,4.62214 0.653029,8.66205 0.242983,4.0399 0.746447,9.667977 1.118217,12.506827 0.371774,2.83886 0.682304,6.4237 0.690243,7.96644 0.0171,3.31831 1.666722,19.19391 2.096429,20.17395 0.630981,1.43908 0.705259,0.14328 0.228606,-3.99059 -0.27253,-2.36354 -0.581231,-6.1737 -0.685814,-8.46662 -0.104584,-2.29292 -0.444824,-7.47432 -0.756701,-11.51423 -0.311873,-4.03991 -0.554079,-7.79196 -0.537838,-8.337887 0.01624,-0.54594 -0.143363,-2.15396 -0.354426,-3.57338 -0.211069,-1.41943 -0.504523,-4.1888 -0.652145,-6.15416 -0.147627,-1.96536 -0.47619,-4.73474 -0.731005,-6.154165 C 87.507086,79.639546 87.399255,78.693426 86.902206,72.060878 85.979953,59.75459 85.847751,58.53079 85.419817,58.299322 Z m 11.971634,8.97611 c -0.484216,-0.131206 -0.433618,1.34117 0.119617,5.958739 0.371339,3.099365 0.601012,5.845502 0.511259,6.102201 -0.08976,0.256696 -0.293132,1.896188 -0.452782,3.643175 -0.222354,2.433119 -0.165823,3.068089 0.242784,2.713379 1.084592,-0.94151 0.922711,-17.302082 -0.180758,-18.267829 -0.09109,-0.07972 -0.17095,-0.130924 -0.24012,-0.149665 z m -2.780476,9.748478 c -0.281663,-0.15235 -0.453665,0.591613 -0.453665,1.961949 0,1.955192 0.105396,2.206997 0.923282,2.206997 0.772252,0 0.846467,-0.125366 0.453666,-0.767718 -0.258295,-0.422389 -0.469617,-1.30536 -0.469617,-1.961949 0,-0.65659 -0.204149,-1.304317 -0.453666,-1.439279 z m 8.970525,5.360073 c -0.2785,0 -0.35069,0.497145 -0.18076,1.240758 0.15595,0.682415 0.29607,1.888435 0.3119,2.680045 0.0221,1.10369 0.10959,1.25412 0.37392,0.64519 0.46419,-1.06935 0.0773,-4.565993 -0.50506,-4.565993 z m -45.87692,0.521893 c -0.168945,-0.147863 -0.202316,1.77353 -0.07443,4.26976 0.575771,11.23858 0.682554,13.903007 0.960492,23.993927 0.162399,5.89608 0.333244,11.25616 0.380122,11.91128 0.04687,0.65512 0.123619,3.12696 0.170125,5.49267 0.0637,3.24 0.224096,4.26016 0.651259,4.13483 0.741552,-0.21757 0.906401,-7.95512 0.30215,-14.19349 -0.243247,-2.5113 -0.542471,-9.12205 -0.664552,-14.69057 -0.122081,-5.568527 -0.432402,-11.911277 -0.689358,-14.095007 -0.256956,-2.18374 -0.52613,-4.55179 -0.598095,-5.26237 -0.07197,-0.710577 -0.268769,-1.413172 -0.437713,-1.56103 z m 25.432733,7.02192 c -0.27964,0 -0.340336,1.43803 -0.163035,3.87116 1.071527,14.704517 1.482162,34.122927 0.766445,36.227797 -0.259396,0.76287 -0.471385,1.52221 -0.471385,1.68743 0,0.16523 0.196047,0.30011 0.435946,0.30011 1.645168,0 2.034539,-8.80047 1.027833,-23.22698 -0.304767,-4.36747 -0.688088,-10.397547 -0.852392,-13.400187 -0.171028,-3.12552 -0.488698,-5.45933 -0.743412,-5.45933 z m 21.720117,0.22489 c -0.49276,-0.12511 -0.36389,0.61029 0.51658,1.46176 0.51103,0.4942 0.84384,0.59398 0.9605,0.28771 0.0983,-0.25788 -0.25391,-0.84725 -0.78239,-1.30978 -0.29758,-0.26044 -0.53043,-0.39799 -0.69469,-0.43969 z M 28.627456,109.43483 c -6.71506,-0.0166 -13.769822,0.05 -16.946001,0.21015 -4.4319553,0.22349 -5.1892976,0.36256 -5.5963895,1.02828 -0.4041299,0.66087 -0.3459196,0.73504 0.4102482,0.525 0.4845032,-0.13459 9.6976603,-0.26265 20.4734283,-0.2846 14.321535,-0.0292 19.547472,-0.16044 19.424326,-0.48778 -0.09266,-0.24629 -1.37745,-0.56172 -2.854903,-0.7018 -1.81967,-0.17253 -8.195648,-0.27264 -14.910709,-0.28925 z m 71.881174,4.34963 c -0.873309,-0.012 -1.894056,0.15123 -2.268331,0.36292 -0.519696,0.29393 -0.35889,0.3796 0.680499,0.36292 0.748548,-0.012 1.769292,-0.17524 2.268332,-0.36292 0.74137,-0.27882 0.61691,-0.34509 -0.6805,-0.36292 z m 6.35131,0.0101 c -0.86338,0 -1.72676,0.0204 -2.38174,0.0605 -1.30996,0.0802 -0.23818,0.14579 2.38174,0.14579 2.61992,0 3.69171,-0.0656 2.38175,-0.14579 -0.65498,-0.0401 -1.51836,-0.0605 -2.38175,-0.0605 z m -82.11345,0.36758 c -8.952647,-0.003 -21.322279,0.93962 -21.322279,1.62462 0,0.47246 0.9648104,0.44308 9.555329,-0.29236 8.101626,-0.69358 24.367518,-0.562 29.821419,0.24117 3.022011,0.44505 4.914637,0.0942 2.568703,-0.47614 -1.966819,-0.47818 -13.562029,-1.09531 -20.623172,-1.0973 z m 103.75649,0.0318 c -1.70432,0.0237 -2.58909,0.10038 -2.58909,0.22799 0,0.23974 2.87169,0.4267 7.36055,0.47924 4.04812,0.0474 7.45032,0.16465 7.5608,0.26134 0.42175,0.3691 6.8546,0.1617 6.8546,-0.22102 0,-0.21838 -0.35726,-0.3993 -0.79391,-0.40247 -0.43666,-0.003 -5.33625,-0.11945 -10.88797,-0.25824 -3.27679,-0.0819 -5.80066,-0.11062 -7.50498,-0.0868 z m -13.96882,0.002 c -0.15761,-0.006 -0.33688,0.0194 -0.50063,0.0768 -0.3619,0.12674 -0.2547,0.22133 0.2738,0.24039 0.47823,0.0172 0.74618,-0.0767 0.59544,-0.2086 -0.0754,-0.066 -0.21101,-0.10289 -0.36861,-0.10857 z m 4.53665,0 c -0.1576,-0.006 -0.33689,0.0194 -0.50062,0.0768 -0.3619,0.12674 -0.25471,0.22133 0.27379,0.24039 0.47824,0.0172 0.74618,-0.0767 0.59543,-0.2086 -0.0754,-0.066 -0.21099,-0.10289 -0.3686,-0.10857 z m 26.32412,3.52446 c -0.98333,0 -1.78808,0.17867 -1.78808,0.39705 0,0.21837 0.93053,0.39704 2.06808,0.39704 1.26332,0 1.95933,-0.15453 1.78808,-0.39704 -0.15421,-0.21838 -1.08474,-0.39705 -2.06808,-0.39705 z m -120.64844,0.62426 c -13.618682,0.0293 -18.600286,0.30468 -18.600286,1.0275 0,0.24064 0.6863659,0.31458 1.7012456,0.18301 2.127624,-0.27582 15.3738574,-0.78162 20.5283644,-0.784 3.790416,-0.002 9.477251,0.32926 13.723381,0.79874 1.374554,0.15198 2.154911,0.0874 2.154911,-0.17836 0,-0.75656 -5.949368,-1.07607 -19.507616,-1.04689 z m 92.54333,0.64674 c -1.78132,8e-4 -3.75179,0.0227 -6.06157,0.062 -6.2057,0.10567 -11.458839,0.34607 -11.673918,0.5343 -0.218962,0.19163 5.445288,0.33224 12.870988,0.3195 7.53246,-0.0129 15.61368,0.19022 18.70573,0.46994 2.99419,0.27086 7.28133,0.6493 9.52697,0.84061 5.06053,0.43111 7.03182,0.51969 7.03182,0.31562 0,-0.32876 -6.01322,-1.04844 -15.42463,-1.84563 -5.99018,-0.5074 -9.63144,-0.69873 -14.97539,-0.69638 z M 4.331542,119.30893 c -0.499032,0 -0.907331,0.16189 -0.907331,0.35982 0,0.19793 0.408299,0.26621 0.907331,0.15199 0.499032,-0.11421 0.907331,-0.2761 0.907331,-0.35982 0,-0.0837 -0.408299,-0.15199 -0.907331,-0.15199 z m 13.501865,2.60947 c -11.9810213,0.0248 -15.2994069,0.17866 -14.3710952,0.66613 0.103965,0.0546 3.659273,0.01 7.9010452,-0.0993 8.298324,-0.2136 22.482848,0.18879 26.539432,0.75299 2.995127,0.41656 3.728073,0.37967 3.948307,-0.1993 0.275379,-0.72394 -8.893892,-1.1518 -24.017689,-1.12056 z m -3.053381,4.11621 c -6.5335772,-0.0248 -11.355815,0.27536 -11.355815,0.91274 0,0.22472 0.5224515,0.27345 1.2413777,0.11555 1.4863377,-0.32651 19.0322563,-0.33341 19.6343233,-0.008 0.231236,0.12508 2.416659,0.32033 4.856525,0.43349 2.439867,0.11315 5.151053,0.35518 6.024359,0.53818 2.391278,0.50108 3.053653,0.46997 3.328062,-0.15587 0.190492,-0.43446 -0.309595,-0.62384 -2.106178,-0.79796 -6.844318,-0.66338 -15.089078,-1.01355 -21.622654,-1.03836 z m 65.523651,4.43882 c -0.252614,-0.10134 -0.67867,0.39966 -1.137707,1.4416 -0.360777,0.8189 -0.724559,1.62291 -0.808976,1.78669 -0.08441,0.16378 0.24825,0.29779 0.738975,0.29779 0.910707,0 1.433289,-0.96957 1.445175,-2.68004 0.0036,-0.50738 -0.0859,-0.78524 -0.237467,-0.84604 z m -64.830748,0.0442 c -2.465294,-0.004 -4.718608,0.0312 -6.3734688,0.11477 -4.364119,0.22029 -5.6752492,0.41315 -5.6752492,0.83441 0,0.6488 0.3071056,0.66105 3.804765,0.15975 3.194483,-0.45785 15.491991,-0.58255 21.827336,-0.22179 2.895419,0.16488 4.29047,0.12282 3.856157,-0.11554 -0.743691,-0.40816 -10.04366,-0.76129 -17.43954,-0.7716 z m 69.338164,2.81497 c -0.742891,-0.058 -1.99542,0.67718 -1.99542,1.27643 0,0.70121 0.09309,0.70854 1.566561,0.12097 1.216377,-0.48504 1.451258,-0.9205 0.71151,-1.32063 -0.08017,-0.0434 -0.176525,-0.0685 -0.282651,-0.0768 z m -37.600187,0.57695 c -0.18696,0.0517 -0.25716,0.27839 -0.35354,0.71964 -0.112927,0.51701 -0.08659,1.044 0.05848,1.17097 0.14507,0.12698 0.67752,0.13358 1.182896,0.0147 0.505378,-0.11885 2.09271,-0.21861 3.527427,-0.22179 1.434718,-0.003 2.608577,-0.1841 2.608577,-0.40247 0,-0.21837 -1.071785,-0.39818 -2.381744,-0.39937 -1.309959,-0.001 -2.923625,-0.24972 -3.585907,-0.55214 -0.565243,-0.2581 -0.869229,-0.38133 -1.05619,-0.32957 z m 20.814564,0.0915 c -3.583998,0.037 -7.614975,0.15173 -9.671404,0.31949 -2.048418,0.16711 -3.440082,0.46884 -3.554012,0.77082 -0.125515,0.33269 0.327901,0.49631 1.375175,0.49631 0.859269,0 2.499002,0.11241 3.643501,0.2497 1.663613,0.19956 2.108046,0.41852 2.217824,1.09187 0.08198,0.50279 1.142984,1.43707 2.632499,2.31866 3.290939,1.9478 4.878819,1.97087 6.758019,0.0977 0.774394,-0.7719 1.40796,-1.55141 1.40796,-1.73241 0,-0.18099 0.538373,-0.79998 1.196189,-1.37569 1.08049,-0.94563 1.525745,-1.04689 4.611967,-1.04689 4.15309,0 4.057907,-0.3665 -0.165692,-0.63666 -1.694014,-0.10836 -3.253611,-0.29102 -3.465401,-0.40557 -0.26587,-0.14381 -3.402627,-0.18431 -6.986625,-0.14734 z m -64.2610099,0.002 c -0.187137,-0.002 -0.3402491,0.23592 -0.3402491,0.52888 0,0.4174 1.8895653,0.59265 8.733061,0.81114 4.803184,0.15336 10.162107,0.51487 11.908719,0.80339 1.746613,0.28852 3.328771,0.54904 3.515908,0.5785 0.187137,0.0295 0.340249,-0.0922 0.340249,-0.27064 0,-0.92993 -13.926611,-2.34306 -24.1576879,-2.45127 z m 67.5483109,0.86156 c 0.781956,-0.0181 1.296022,-0.005 1.353021,0.045 0.438572,0.38383 -1.352014,3.51037 -2.439337,4.2589 -0.628476,0.43266 -1.268648,0.78446 -1.422136,0.78168 -0.302355,-0.005 -5.558823,-2.29974 -5.847146,-2.55208 -0.09657,-0.0845 0.154224,-0.59338 0.556448,-1.13064 0.655937,-0.87613 1.154398,-1.00563 4.837921,-1.25782 1.129409,-0.0773 2.179278,-0.12693 2.961229,-0.14501 z m 10.934935,0.74522 c -0.209435,0.0384 -0.339364,0.22326 -0.339364,0.54594 0,0.67277 0.860181,0.90282 3.629324,0.96934 1.122821,0.027 2.960167,0.3055 4.082989,0.61883 2.968007,0.82823 3.621775,0.73216 1.834156,-0.26909 -1.133896,-0.6351 -2.452942,-0.91907 -4.763487,-1.02595 -1.757455,-0.0813 -3.388741,-0.30857 -3.625782,-0.50484 -0.319103,-0.2642 -0.608401,-0.3726 -0.817836,-0.33423 z m -76.6898495,2.79636 c -1.2840074,0.0177 -2.1336712,0.0827 -2.1336455,0.20938 3.88e-5,0.1906 2.5879711,0.39257 5.7505645,0.449 3.1625945,0.0564 5.8503055,0.19043 5.9729675,0.29778 0.122662,0.10735 0.842482,0.19542 1.599348,0.19542 1.001573,0 1.239859,-0.1192 0.876319,-0.43737 -0.452766,-0.39625 -8.213531,-0.7673 -12.0655535,-0.71421 z m 97.0277035,0.0194 c -0.71125,1e-5 -1.1696,0.11294 -1.1696,0.33812 0,0.2241 1.13619,0.37625 2.60857,0.34973 2.1469,-0.0387 2.3677,-0.10029 1.24758,-0.34973 -1.01113,-0.22518 -1.97529,-0.33811 -2.68655,-0.33811 z m -81.808643,0.76307 c -1.621384,0.021 -1.930269,0.11238 -1.24758,0.36913 1.268177,0.47694 3.402491,0.47694 3.402491,0 0,-0.21837 -0.96971,-0.38448 -2.154911,-0.36913 z m 93.002303,0.0714 c -0.80373,-0.002 -1.02162,0.0833 -1.02162,0.2559 0,0.21864 1.07178,0.46341 2.38174,0.54361 1.30996,0.0802 2.63693,0.17829 2.94883,0.21868 0.3119,0.0404 0.56708,-0.10499 0.56708,-0.32337 0,-0.21837 -0.15311,-0.40907 -0.34025,-0.42341 -2.34243,-0.17931 -3.73203,-0.26911 -4.53578,-0.27141 z m -26.011325,1.49511 c -2.599128,0.003 -4.469808,0.14823 -4.157423,0.32182 0.603816,0.33554 8.247679,0.22861 8.647113,-0.12097 0.129885,-0.11367 -1.890568,-0.20402 -4.48969,-0.20085 z m 8.703817,0.12795 c -1.970742,0.0355 -3.490003,0.19837 -3.375907,0.36215 0.299261,0.42959 6.959155,0.36799 6.959155,-0.0644 0,-0.19925 -1.612507,-0.33324 -3.583248,-0.29779 z m 5.663728,0.40325 c -0.45966,0.0285 -0.71948,0.0935 -0.71948,0.1993 0,0.24833 1.44023,0.47612 3.5159,0.55601 1.93375,0.0744 4.33251,0.15079 5.33058,0.16906 l 1.81466,0.0334 -2.0415,-0.30166 c -3.34488,-0.49423 -6.52116,-0.74172 -7.90016,-0.65605 z m -98.711229,2.72734 v 0.94841 c 0,0.99312 -0.090605,0.96767 4.0829895,1.15623 4.8771795,0.22034 30.1238835,0.63046 47.7553805,0.77625 11.169865,0.0924 20.458671,0.24343 20.641779,0.33578 0.183123,0.0923 8.805367,0.29522 19.160281,0.45055 10.354909,0.15532 18.863129,0.31217 18.906869,0.34819 0.0437,0.036 7.6483,0.10616 16.89904,0.15587 16.4884,0.0886 16.81929,0.0749 16.81929,-0.69483 0,-0.7057 -0.33298,-0.79058 -3.28908,-0.83286 -1.80899,-0.0258 -3.57952,-0.0109 -3.93501,0.0334 -0.35549,0.0442 -4.54056,-0.11281 -9.30015,-0.34896 -4.75959,-0.23614 -15.28905,-0.53316 -23.39833,-0.6607 -8.109266,-0.12754 -15.96902,-0.28698 -17.466117,-0.35362 -1.497096,-0.0666 -11.194195,-0.23589 -21.54911,-0.3761 -10.354915,-0.14022 -19.813641,-0.34706 -21.019244,-0.45986 -1.972617,-0.18456 -2.217597,-0.11748 -2.451743,0.66614 -0.240466,0.80477 -0.303503,0.81868 -0.832016,0.18611 -0.516184,-0.61782 -2.044608,-0.70173 -15.694877,-0.86078 -8.317409,-0.0969 -17.41916,-0.24196 -20.2262152,-0.3226 z" />
    <g
       aria-label="II"
       id="text1876"
       style="font-size:40px;line-height:1.25;font-family:Hultog;-inkscape-font-specification:Hultog"
       transform="matrix(0.45366549,0,0,0.3970425,3.424211,-4.5683243)">
      <path
         d="m 269.7728,89.785747 q -0.4159,2.470948 -1.46789,2.2263 l -4.526,-1.027523 q 0,0 -3.32721,0.318043 -0.95413,0.66055 -1.66361,0.66055 -1.00306,0 -1.56575,-1.46789 l 1.24771,-1.810397 q 0.58715,0.195718 1.22324,0.195718 2.10397,0 2.10397,-3.400611 0,-0.660551 -0.0979,-1.981652 -0.0979,-1.321101 -0.0979,-1.981651 0,-1.932722 0.0979,-5.82263 0.0979,-3.889908 0.0979,-5.82263 0,-1.663609 -0.97859,-2.617737 -0.66055,0.244648 -1.3211,0.244648 -1.14985,0 -1.93272,-0.929663 0.4159,-2.446484 1.44342,-2.2263 l 4.47707,0.978593 4.25688,-1.027523 1.76146,0.905199 -0.51376,1.761468 q -0.48929,-0.122324 -0.8318,-0.122324 -2.25077,0 -2.25077,3.840978 0,0.391438 0.0245,1.027523 0.0245,0.611621 0.0245,0.831805 0,1.614678 -0.0978,15.437308 l 1.02752,1.100918 q 0.66055,-0.220184 1.19877,-0.220184 1.07646,0 1.68808,0.929664 z"
         id="path3000" />
      <path
         d="m 283.08167,89.785747 q -0.41591,2.470948 -1.46789,2.2263 l -4.526,-1.027523 q 0,0 -3.32721,0.318043 -0.95413,0.66055 -1.66361,0.66055 -1.00306,0 -1.56575,-1.46789 l 1.2477,-1.810397 q 0.58716,0.195718 1.22325,0.195718 2.10397,0 2.10397,-3.400611 0,-0.660551 -0.0979,-1.981652 -0.0979,-1.321101 -0.0979,-1.981651 0,-1.932722 0.0979,-5.82263 0.0979,-3.889908 0.0979,-5.82263 0,-1.663609 -0.97859,-2.617737 -0.66055,0.244648 -1.3211,0.244648 -1.14985,0 -1.93272,-0.929663 0.4159,-2.446484 1.44342,-2.2263 l 4.47706,0.978593 4.25689,-1.027523 1.76146,0.905199 -0.51376,1.761468 q -0.48929,-0.122324 -0.8318,-0.122324 -2.25077,0 -2.25077,3.840978 0,0.391438 0.0245,1.027523 0.0245,0.611621 0.0245,0.831805 0,1.614678 -0.0979,15.437308 l 1.02753,1.100918 q 0.66055,-0.220184 1.19877,-0.220184 1.07646,0 1.68808,0.929664 z"
         id="path3002" />
    </g>
  </g>
</svg>
