<?xml version="1.0" encoding="UTF-8" standalone="no"?>
<!-- Created with Inkscape (http://www.inkscape.org/) -->

<svg
   version="1.1"
   id="svg2"
   width="4cm"
   height="4cm"
   viewBox="0 0 151.1811 151.1811"
   sodipodi:docname="03.svg"
   inkscape:version="1.1.2 (0a00cf5339, 2022-02-04)"
   xmlns:inkscape="http://www.inkscape.org/namespaces/inkscape"
   xmlns:sodipodi="http://sodipodi.sourceforge.net/DTD/sodipodi-0.dtd"
   xmlns="http://www.w3.org/2000/svg"
   xmlns:svg="http://www.w3.org/2000/svg">
  <defs
     id="defs6" />
  <sodipodi:namedview
     id="namedview4"
     pagecolor="#505050"
     bordercolor="#eeeeee"
     borderopacity="1"
     inkscape:pageshadow="0"
     inkscape:pageopacity="0"
     inkscape:pagecheckerboard="0"
     showgrid="false"
     inkscape:zoom="1.8866499"
     inkscape:cx="165.37249"
     inkscape:cy="198.5"
     inkscape:window-width="1920"
     inkscape:window-height="1043"
     inkscape:window-x="0"
     inkscape:window-y="0"
     inkscape:window-maximized="1"
     inkscape:current-layer="svg2"
     units="cm"
     width="4cm"
     inkscape:document-units="cm" />
  <!-- Border -->
  <path
     id="border"
     class="board-border"
     style="fill:none;stroke:#000000;stroke-width:0.1cm"
     d="M 0,0 H 151.18111 V 151.18111 H 0 Z" />
  <g
     inkscape:groupmode="layer"
     inkscape:label="Image"
     id="g8">
    <path
       style="fill:#000000;stroke-width:0.423159"
       d="m 132.40642,147.78077 c 0.32276,-0.11569 0.7084,-0.1015 0.85698,0.0316 0.14857,0.13308 -0.11551,0.22774 -0.58685,0.21034 -0.52087,-0.0193 -0.62682,-0.11411 -0.27013,-0.24195 z m -58.086484,-0.30028 c -0.106461,-0.0954 -2.001137,-0.28911 -4.210391,-0.43055 -2.209259,-0.14145 -4.821651,-0.41411 -5.805318,-0.60591 -0.983668,-0.1918 -4.662512,-0.47574 -8.175206,-0.63098 -3.512697,-0.15524 -6.49435,-0.43822 -6.625888,-0.62886 -0.460808,-0.66782 20.735737,0.67951 26.426252,1.67976 1.229584,0.21613 2.839222,0.45527 3.576971,0.53143 0.737751,0.0761 -0.08384,0.16547 -1.825744,0.19848 -1.741914,0.033 -3.254217,-0.018 -3.360676,-0.11337 z m 24.636203,-0.22612 c 0,-0.23668 1.697631,-0.4168 4.135881,-0.43882 2.27473,-0.0206 6.32465,-0.0746 8.99984,-0.12021 2.67518,-0.0456 5.69325,0.0251 6.70682,0.1569 1.62286,0.21113 1.41585,0.27231 -1.73412,0.51242 -5.61373,0.42793 -18.108421,0.35183 -18.108421,-0.11029 z m 26.720721,0.11624 c 0.55618,-0.0958 1.361,-0.0921 1.78849,0.008 0.42748,0.10028 -0.0276,0.17862 -1.01124,0.17418 -0.98367,-0.004 -1.33343,-0.0864 -0.77725,-0.18226 z m -4.47643,-0.38246 c 0.3074,-0.1111 0.81041,-0.1111 1.11781,0 0.30739,0.1111 0.0559,0.202 -0.5589,0.202 -0.6148,0 -0.86631,-0.0909 -0.55891,-0.202 z m 22.02074,-0.57305 c -0.86071,-0.18512 -3.57697,-0.63193 -6.03614,-0.99289 -2.45918,-0.36098 -4.97423,-0.80326 -5.58902,-0.98287 -1.06927,-0.31238 -1.05598,-0.32794 0.30617,-0.35817 3.26867,-0.0726 14.00171,1.78501 14.00171,2.4233 0,0.39903 -0.48747,0.38278 -2.68272,-0.0894 z M 2.3770559,145.95182 c -6.416e-4,-0.37962 1.2984516,-0.47068 5.3754998,-0.37679 6.8868313,0.15859 6.6745283,0.8774 -0.2591446,0.8774 -3.7938751,0 -5.1157278,-0.12935 -5.1163552,-0.50061 z m 32.6407131,-1.10131 c 0,-0.49248 8.333574,-0.49248 9.613113,0 0.570493,0.21957 -1.007786,0.35437 -4.359435,0.37232 -3.225322,0.0173 -5.253678,-0.12647 -5.253678,-0.37232 z m 12.192569,0.12295 c 0.435037,-0.1015 1.038651,-0.0949 1.341365,0.0149 0.302715,0.1097 -0.05322,0.19278 -0.790971,0.18462 -0.737751,-0.008 -0.985428,-0.0979 -0.550394,-0.19945 z m 48.490709,-0.76911 c -0.177032,-0.15857 -0.321877,-0.43848 -0.321877,-0.62203 0,-0.18355 5.56666,-0.33373 12.37036,-0.33373 6.8037,0 12.22796,0.12755 12.05391,0.28343 -0.17404,0.15589 -5.08679,0.30326 -10.91722,0.32749 -5.83041,0.0243 -11.109833,0.17661 -11.732028,0.33861 -0.6222,0.16199 -1.276116,0.1648 -1.453145,0.006 z M 2.3779019,143.24859 c 0,-0.23537 1.5561293,-0.40048 3.7741449,-0.40048 2.0757798,0 3.8984962,0.18022 4.0504812,0.40048 0.176456,0.25573 -1.1876809,0.40048 -3.774145,0.40048 -2.4022397,0 -4.0504811,-0.16296 -4.0504811,-0.40048 z m 77.7991371,-0.22661 c -2.828044,-0.2934 -6.449727,-0.65318 -8.048186,-0.79953 -1.598459,-0.14635 -3.010734,-0.32068 -3.138387,-0.38741 -0.299754,-0.1567 -17.951171,-0.74155 -20.447271,-0.67748 -1.35206,0.0348 -1.900267,-0.11213 -1.900267,-0.50899 0,-0.56293 2.294985,-0.56709 15.649252,-0.0284 6.998104,0.28229 22.836081,2.1239 23.517928,2.73462 0.180704,0.16185 0.144111,0.27321 -0.08131,0.24745 -0.225424,-0.0258 -2.723716,-0.28687 -5.551759,-0.58027 z m 41.478521,0.33685 c 0.80364,-0.0892 2.01087,-0.0873 2.68273,0.004 0.67186,0.0914 0.0143,0.16431 -1.46115,0.16205 -1.4755,-0.002 -2.02521,-0.077 -1.22158,-0.16613 z m 17.31795,-1.1212 c -0.73775,-0.29998 -2.49829,-0.66906 -3.91231,-0.82016 -1.41403,-0.1511 -2.57095,-0.44272 -2.57095,-0.64802 0,-0.72772 8.54129,0.80054 8.83144,1.58017 0.23425,0.62945 -0.62559,0.58845 -2.34818,-0.11199 z M 9.7554064,141.80521 C 8.0339887,141.50039 5.6195327,141.11816 4.3899486,140.9558 l -2.2356074,-0.29521 2.2243629,-0.1333 c 3.1347582,-0.18786 9.7214689,0.6545 10.5026309,1.34316 0.572362,0.50458 0.488002,0.57163 -0.670682,0.53308 -0.728969,-0.0243 -2.733829,-0.2935 -4.4552466,-0.59832 z m 14.7550086,-0.83765 c -2.359647,-0.45698 -5.141897,-1.4303 -5.141897,-1.7988 0,-0.23372 0.337646,-0.2875 0.782463,-0.12463 3.371636,1.23462 4.713493,1.21579 11.394123,-0.15987 4.080834,-0.84033 9.44434,-1.23337 10.002944,-0.73305 0.179071,0.1604 -0.663672,0.29377 -1.872763,0.29638 -1.209091,0.003 -3.304973,0.29012 -4.657516,0.6389 -1.352541,0.34878 -3.062781,0.72972 -3.800532,0.84652 -0.737751,0.1168 -1.542569,0.34534 -1.788486,0.50786 -0.60288,0.39844 -3.808225,0.74168 -4.918336,0.52669 z m 104.179295,-0.12185 c -1.14655,-0.26131 -1.00045,-0.31259 1.00604,-0.3531 1.3021,-0.0263 2.34738,0.13095 2.34738,0.3531 0,0.45283 -1.36655,0.45283 -3.35342,0 z m -31.969177,-0.39966 c 1.480568,-0.42578 8.942427,-0.49127 8.942427,-0.0785 0,0.17754 -2.26355,0.34016 -5.03011,0.36137 -3.098899,0.0237 -4.600959,-0.0849 -3.912317,-0.28288 z m 9.389547,-8.2e-4 c 0,-0.22027 0.69234,-0.40047 1.53854,-0.40047 0.84619,0 1.66289,0.1802 1.81487,0.40047 0.1669,0.24186 -0.44247,0.40048 -1.53853,0.40048 -0.99818,0 -1.81488,-0.18021 -1.81488,-0.40048 z m 5.36546,0 c 0,-0.2476 2.00549,-0.378 5.25368,-0.3416 4.58923,0.0515 4.91438,0.0966 2.57094,0.35702 -4.02127,0.44688 -7.82462,0.43939 -7.82462,-0.0154 z m 12.19257,-0.27753 c 0.43504,-0.1015 1.03865,-0.0949 1.34136,0.0149 0.30272,0.1097 -0.0533,0.19278 -0.79097,0.18462 -0.73774,-0.008 -0.98542,-0.0979 -0.55039,-0.19946 z m 17.98813,-1.8413 c -2.70069,-0.67046 -8.28052,-1.32158 -12.40762,-1.44786 -0.86082,-0.0264 -1.22958,-0.2495 -1.22958,-0.7441 0,-0.43296 -0.64919,-0.9601 -1.67671,-1.36152 -1.90028,-0.74236 -3.68875,-2.02662 -3.68875,-2.6488 0,-0.48207 -4.46877,-4.49423 -5.00571,-4.49423 -0.635,0 -4.04825,-3.095 -3.65049,-3.31012 0.21145,-0.11435 1.18927,-0.0679 2.17294,0.10337 1.4013,0.2439 1.52229,0.32126 0.5589,0.35735 -1.46031,0.0547 -1.59757,0.64243 -0.29579,1.26645 0.5136,0.24619 1.69782,1.06586 2.63161,1.82148 1.45025,1.17354 2.17792,1.42969 4.99056,1.75673 1.81102,0.21059 4.56705,0.38845 6.12453,0.39525 2.06496,0.009 2.7799,0.14792 2.64026,0.51297 -0.14108,0.3688 -1.40001,0.46553 -4.78162,0.36738 -5.48216,-0.15912 -5.51751,-0.0593 -1.14712,3.23693 l 3.05311,2.30276 6.30287,0.073 c 3.46656,0.0402 7.61069,0.0496 9.20914,0.0211 l 2.9063,-0.0519 -1.65835,0.66672 c -0.9121,0.3667 -1.71692,0.95637 -1.78849,1.31039 -0.11754,0.58134 -0.43322,0.56843 -3.25999,-0.13334 z m -54.380691,-0.0668 c -0.248556,-0.22262 -9.501229,-0.61327 -14.587794,-0.6159 -2.420408,-0.001 -3.688753,-0.15592 -3.688753,-0.44985 0,-0.67035 16.508369,-0.19337 19.673345,0.56842 l 2.459168,0.59192 -1.825744,0.0442 c -1.004163,0.0243 -1.917763,-0.0381 -2.030222,-0.13887 z m -66.651465,-0.7175 c 0.321687,-0.35152 1.585526,-0.86882 2.808531,-1.14958 1.361946,-0.31263 2.145119,-0.69374 2.021005,-0.98344 -0.111454,-0.26014 0.01561,-0.66846 0.282348,-0.90738 0.899164,-0.80537 -1.951902,-1.3828 -7.261693,-1.47072 -5.772025,-0.0956 -11.6167824,-0.57127 -11.641479,-0.94747 -0.3207116,-4.88542 -0.3548452,-8.85892 -0.076101,-8.85892 1.0540202,0 1.4337859,1.18601 1.4337859,4.47774 0,3.32399 0.055096,3.5269 1.0060234,3.70508 2.0466087,0.38346 6.9423387,0.73908 11.1733207,0.81161 2.395095,0.0411 4.490977,0.1967 4.657515,0.34586 0.623888,0.55881 1.114661,0.2281 1.8262,-1.23059 0.678423,-1.39079 1.078048,-2.53155 2.981233,-8.51018 0.385643,-1.21145 0.704679,-2.92349 0.708969,-3.80455 0.01037,-2.12992 0.829194,-4.69035 1.399083,-4.37488 0.85915,0.4756 -0.641441,10.59647 -1.645746,11.09987 -0.876043,0.43912 -0.810523,0.95848 0.249476,1.97757 1.154762,1.1102 1.158615,1.89707 0.008,1.62756 -0.659422,-0.15444 -1.002902,0.0672 -1.341915,0.86582 -0.250602,0.59038 -0.958403,1.66381 -1.572893,2.38541 -0.614489,0.72159 -1.117253,1.43014 -1.117253,1.57455 0,0.1444 1.358131,0.28388 3.01807,0.30993 1.659938,0.0261 3.621684,0.19188 4.359434,0.36849 1.019322,0.24401 0.643606,0.3101 -1.564925,0.27526 -1.598459,-0.0253 -3.308699,0.15912 -3.800533,0.40966 -0.491833,0.25053 -2.202073,0.83508 -3.800532,1.29899 -5.091578,1.47771 -4.766705,1.42204 -4.109891,0.70431 z m 75.649328,0.0998 c 0,-0.22932 1.194315,-0.38023 2.79451,-0.3531 2.224378,0.0377 2.520848,0.10976 1.453138,0.3531 -1.997614,0.45528 -4.247648,0.45528 -4.247648,0 z m -53.691837,-0.10008 c -0.286332,-0.76939 -0.156342,-2.00351 0.220703,-2.09535 0.267981,-0.0653 2.197479,-0.57661 4.287772,-1.13632 4.802764,-1.28602 10.283793,-1.757 10.283793,-0.88367 0,0.68144 -0.433045,0.77527 -6.289456,1.36288 -4.68203,0.46977 -7.571309,1.33116 -7.571309,2.25723 0,0.47522 -0.78386,0.89196 -0.931503,0.49523 z m 18.14568,-0.30036 c -0.323538,-0.46888 4.202409,-0.46888 6.259701,0 0.966649,0.22031 0.318274,0.31895 -2.321,0.3531 -2.020099,0.0261 -3.786278,-0.13221 -3.938701,-0.3531 z m 43.370785,0 c -0.15199,-0.22027 0.0493,-0.40048 0.44712,-0.40048 0.3979,0 0.59911,0.18021 0.44712,0.40048 -0.15198,0.22026 -0.35319,0.40048 -0.44712,0.40048 -0.0939,0 -0.29514,-0.18022 -0.44712,-0.40048 z m 2.25796,0.0401 c 0.23362,-0.19817 2.93982,-0.45717 6.01379,-0.57557 l 5.58902,-0.21526 -4.0241,0.54115 c -4.81005,0.64683 -8.17769,0.75778 -7.57871,0.24968 z M 3.2721449,137.084 c 0,-0.3799 1.3384038,-0.57137 1.5769938,-0.2256 0.1453472,0.21065 -0.1500162,0.383 -0.656363,0.383 -0.506347,0 -0.9206308,-0.0708 -0.9206308,-0.1574 z m 11.1780371,-0.15477 c 0,-0.21881 0.923861,-0.52194 2.053025,-0.6736 2.452252,-0.32937 3.155879,-0.0282 0.842361,0.36046 -0.889639,0.14948 -1.905044,0.37062 -2.256456,0.49139 -0.351412,0.12079 -0.63893,0.0406 -0.63893,-0.17825 z m 103.955738,-0.48879 c -0.15198,-0.22027 -0.0632,-0.40048 0.19717,-0.40048 0.26044,0 0.47352,0.18021 0.47352,0.40048 0,0.22026 -0.0888,0.40048 -0.19717,0.40048 -0.10845,0 -0.32153,-0.18022 -0.47352,-0.40048 z m -98.469991,-0.678 c 0.435035,-0.10151 1.038649,-0.0949 1.341365,0.0149 0.302716,0.1097 -0.05322,0.19278 -0.790972,0.18461 -0.737751,-0.008 -0.985428,-0.0979 -0.550393,-0.19945 z m 2.89778,-0.38819 c 0.307397,-0.1111 0.810408,-0.1111 1.117804,0 0.307396,0.11109 0.05589,0.202 -0.558902,0.202 -0.614792,0 -0.866298,-0.0909 -0.558902,-0.202 z M 35.912013,135.239 c 0,-0.22026 0.653915,-0.38781 1.453145,-0.37233 1.217747,0.0236 1.308284,0.0839 0.558902,0.37233 -1.235265,0.47544 -2.012047,0.47544 -2.012047,0 z M 91.7881,134.06117 c -1.968381,-0.53564 -3.203952,-1.38737 -3.797318,-2.61765 l -0.575088,-1.19236 -7.084518,0.11428 c -3.896486,0.0629 -7.436628,0.20608 -7.866982,0.31827 -0.430355,0.11219 -0.782463,0.0317 -0.782463,-0.1789 0,-0.71061 3.315875,-1.02279 11.401598,-1.07341 5.402452,-0.0338 8.379713,-0.21158 9.056682,-0.54074 1.443742,-0.70198 6.359645,-1.01965 7.830168,-0.50599 0.680681,0.23776 1.424951,0.87365 1.653931,1.41308 0.33292,0.7843 0.84635,1.03736 2.56293,1.2632 1.18063,0.15533 2.64962,0.45075 3.26441,0.65648 1.04436,0.34948 1.06288,0.40159 0.2819,0.79306 -1.08165,0.5422 -5.16111,1.37982 -8.498662,1.74503 -2.135335,0.23365 -2.589543,0.18388 -2.423849,-0.26558 0.136242,-0.36957 1.082383,-0.5897 2.851304,-0.66342 3.638307,-0.15162 4.284817,-0.40065 2.870977,-1.10589 -0.6148,-0.30665 -1.53699,-0.56394 -2.04932,-0.57175 -1.45032,-0.0221 -1.664433,-0.51906 -0.548453,-1.27303 0.560703,-0.37883 0.878583,-0.81497 0.706383,-0.96921 -0.46376,-0.41538 -4.87318,-0.30376 -6.874698,0.17404 -0.957698,0.22862 -2.270545,0.51201 -2.917431,0.62974 -0.714956,0.13013 -1.276313,0.55711 -1.431576,1.08891 -0.328339,1.12458 -0.02549,1.5368 1.129102,1.5368 1.358682,0 4.384921,0.87292 4.384921,1.26482 0,0.40519 -1.58239,0.38517 -3.143948,-0.0397 z m -33.274329,-0.79251 c -0.467515,-0.67753 0.727708,-0.89331 2.679701,-0.48375 1.294883,0.27168 1.469622,0.38349 0.651586,0.41693 -0.614791,0.0252 -1.547804,0.14905 -2.073364,0.27536 -0.525561,0.12632 -1.091625,0.0325 -1.257923,-0.20854 z m 7.13182,-0.0321 c 0.151985,-0.22026 0.56627,-0.40047 0.920632,-0.40047 0.354362,0 0.644294,0.18021 0.644294,0.40047 0,0.22027 -0.414286,0.40049 -0.920633,0.40049 -0.506347,0 -0.796279,-0.18022 -0.644293,-0.40049 z m -31.52097,-0.47606 c -0.0014,-0.34244 3.332886,-0.70466 5.140802,-0.55849 0.737751,0.0596 1.894678,0.13661 2.570949,0.17103 0.676272,0.0344 1.229585,0.19841 1.229585,0.36444 0,0.16603 -2.011555,0.30119 -4.470122,0.30036 -2.458566,-8.1e-4 -4.470612,-0.12564 -4.471214,-0.27734 z m 33.980138,-0.0148 c 0,-0.82128 1.117134,-2.04638 1.702518,-1.86705 0.371545,0.11381 0.36114,0.41389 -0.03899,1.12479 -0.624164,1.10893 -1.663529,1.57269 -1.663528,0.74226 z m 42.476541,-0.31016 c 0,-0.22026 0.21308,-0.40047 0.47351,-0.40047 0.26043,0 0.34916,0.18021 0.19717,0.40047 -0.15199,0.22027 -0.36507,0.40049 -0.47351,0.40049 -0.10845,0 -0.19717,-0.18022 -0.19717,-0.40049 z m 3.80053,0.032 -1.78849,-0.25479 2.2062,-0.24822 c 2.29912,-0.25867 3.38282,-0.0941 3.38282,0.51383 0,0.38832 -1.01921,0.38542 -3.80053,-0.0108 z m -49.910532,-0.61659 c -0.321034,-0.28754 0.804483,-4.25039 1.344579,-4.73414 0.219707,-0.19679 0.501921,-0.20693 0.627147,-0.0225 0.291155,0.42871 -1.629807,5.06293 -1.971726,4.75667 z m 73.206512,-0.68369 c -0.27905,-0.83533 -1.14787,-8.9615 -1.38442,-12.94875 -0.11761,-1.98238 -0.33776,-6.0814 -0.48925,-9.10892 -0.2174,-4.34513 -0.43905,-5.69483 -1.05229,-6.40767 -1.68376,-1.95727 -3.60296,-5.625194 -3.60296,-6.8859 0,-2.274371 -0.44839,-2.376577 -10.99724,-2.506715 l -9.57035,-0.118053 v 0.953132 c 0,0.635703 0.33504,1.049518 1.00602,1.242535 0.85199,0.245083 0.88622,0.31805 0.22356,0.47655 -0.43035,0.102929 -0.78246,0.435389 -0.78246,0.738795 0,1.255977 1.53143,7.439216 2.47731,10.002326 0.32514,0.88105 1.34353,4.03483 2.26309,7.00839 0.91956,2.97355 2.1212,6.30754 2.67031,7.40886 1.64298,3.29528 1.73235,3.80456 0.66761,3.80456 -0.50841,0 -0.92438,-0.2353 -0.92438,-0.52289 0,-0.2876 -0.71903,-2.12006 -1.59785,-4.07215 -1.74557,-3.87735 -5.00938,-14.95666 -7.55353,-25.641141 -0.89163,-3.744481 -1.99212,-7.889447 -2.44554,-9.211023 -0.45342,-1.321587 -0.9578,-2.923099 -1.12086,-3.558934 -0.16305,-0.635825 -0.75898,-1.717119 -1.32428,-2.40287 -0.5653,-0.685761 -1.15198,-1.56247 -1.30372,-1.94826 -0.15176,-0.385789 -0.97884,-1.001671 -1.83797,-1.368617 -1.344397,-0.574231 -1.897144,-0.600035 -3.966866,-0.18516 -1.322644,0.265118 -2.857232,0.790891 -3.410195,1.168385 -2.876772,1.963893 -3.561811,2.589782 -3.690519,3.371879 -0.07749,0.470823 -0.420862,0.938731 -0.763063,1.039795 -0.645299,0.190582 -0.564235,-0.863094 0.191083,-2.483714 0.31527,-0.676447 0.210119,-0.729511 -0.948528,-0.478681 -1.941187,0.420236 -2.420904,1.276196 -2.420904,4.319599 0,1.751197 -0.179783,2.72681 -0.502488,2.72681 -0.336182,0 -0.434472,-0.734627 -0.296983,-2.219646 0.113033,-1.220797 0.05269,-2.304231 -0.134082,-2.407628 -0.281361,-0.155749 -2.196297,3.751767 -2.196297,4.481655 0,0.123647 -0.284521,0.792695 -0.632274,1.486772 -0.791897,1.58057 -4.292063,12.263639 -4.284207,13.076104 0.0077,0.800575 -2.013987,8.865985 -3.413147,13.616295 -0.616325,2.0925 -1.44236,4.93089 -1.835626,6.30754 -0.39327,1.37665 -0.882631,2.503 -1.08747,2.503 -0.894958,0 0.143548,-5.6982 1.655391,-9.083 0.6628,-1.4839 1.671783,-4.77793 2.242189,-7.32008 1.160003,-5.16982 1.919434,-8.022083 3.309942,-12.431424 0.52096,-1.651977 1.228869,-3.913916 1.57313,-5.026516 0.344261,-1.11261 1.23131,-3.185098 1.97122,-4.605516 1.114566,-2.139657 1.227693,-2.605976 0.65962,-2.718953 -0.377115,-0.07501 -1.133395,0.240385 -1.680617,0.700844 -0.547223,0.460459 -1.13289,0.837199 -1.301477,0.837199 -0.168588,0 -0.658632,0.285877 -1.088987,0.635285 -1.222314,0.992407 -7.740286,5.336597 -9.724892,6.481594 -2.290787,1.321637 -9.972388,4.842691 -10.172971,4.663024 -0.0839,-0.07511 -1.098885,0.11847 -2.255513,0.430243 -3.096544,0.834712 -2.557486,0.153884 0.915106,-1.155769 6.05203,-2.282453 10.356939,-4.280628 12.210324,-5.667559 1.042526,-0.78015 3.022443,-2.079683 4.399809,-2.887858 1.377371,-0.808175 3.81214,-2.39059 5.410599,-3.516479 3.642431,-2.565558 7.880065,-4.391159 11.569224,-4.984091 1.567697,-0.251971 3.576078,-0.806503 4.463069,-1.232313 0.886986,-0.42581 2.285098,-0.887175 3.106913,-1.025263 l 1.494197,-0.251075 -0.28319,-3.053617 c -0.540128,-5.824034 -0.49164,-5.77093 -4.125507,-4.518643 -1.177208,0.405685 -2.531489,0.863973 -3.009516,1.018423 -0.783795,0.253234 -0.728915,0.357191 0.558902,1.058662 2.003949,1.091546 2.002787,2.1086 -0.0014,1.147922 -0.998695,-0.478728 -0.997743,-0.598091 -0.03032,3.800252 0.181898,0.826988 0.09322,1.106934 -0.312287,0.985865 -0.83732,-0.249985 -2.313863,-3.989976 -2.014166,-5.101754 0.251501,-0.932985 0.202429,-0.951667 -1.840684,-0.70084 -1.154489,0.141734 -2.587558,0.257697 -3.184599,0.257697 -0.866159,0 -1.030584,0.15505 -0.81365,0.767255 0.149536,0.421993 0.06248,0.883164 -0.193429,1.024834 -0.255923,0.14167 -0.46531,0.636585 -0.46531,1.09982 0,0.833542 -1.106192,4.572336 -1.810382,6.118878 -0.352416,0.773974 -0.365723,0.771793 -0.394965,-0.06492 -0.01663,-0.476215 0.27151,-2.278377 0.640345,-4.004789 1.012789,-4.74063 1.046618,-4.639826 -1.453069,-4.32997 -1.168104,0.144792 -3.834066,0.323058 -5.924358,0.396145 -2.090294,0.07309 -3.901136,0.146344 -4.024094,0.162795 -0.122959,0.01646 -0.16176,2.282933 -0.08623,5.036627 0.07862,2.8661 -0.03836,5.006725 -0.273594,5.006725 -0.605916,0 -1.031992,-4.656421 -0.692376,-7.56674 0.271166,-2.323749 0.22776,-2.516015 -0.538231,-2.383889 -1.1331,0.195454 -1.561885,2.136289 -1.446317,6.546547 0.07681,2.931312 -0.02741,3.604314 -0.558227,3.604314 -0.54053,0 -0.644481,-0.877392 -0.604951,-5.106107 0.05069,-5.422718 -0.05741,-5.665477 -2.08917,-4.691543 -1.204251,0.577263 -1.119955,3.058989 0.223936,6.592639 1.116556,2.935908 0.997943,3.400148 -0.865226,3.38638 -0.855664,-0.0061 -0.859116,-0.03047 -0.08008,-0.559373 0.779305,-0.529105 0.762539,-0.6505 -0.391652,-2.835751 -0.987177,-1.869046 -1.158974,-2.637191 -0.947503,-4.236491 0.209744,-1.586218 0.11525,-2.020761 -0.502592,-2.311233 -1.2273,-0.577006 -4.561404,-0.967574 -4.561404,-0.534336 0,0.811824 -2.323064,4.888207 -2.674761,4.693519 -0.203073,-0.112417 0.03192,-1.203677 0.522264,-2.425035 0.490319,-1.221347 0.789836,-2.457907 0.665595,-2.747909 -0.291032,-0.679297 -2.143089,-1.139672 -2.024714,-0.503295 0.04764,0.256079 -0.07338,1.335623 -0.268912,2.398984 -0.38135,2.073874 -1.325278,3.129037 -3.708757,4.145852 -0.799229,0.34097 -1.453144,0.77478 -1.453144,0.964046 0,0.189267 1.884496,0.233252 4.187766,0.09773 4.091658,-0.240731 6.963144,0.02568 6.334513,0.587703 -0.17279,0.154475 -2.359478,0.289628 -4.859316,0.300349 -6.78751,0.02904 -8.025975,0.348083 -12.225132,3.148828 -2.010733,1.341123 -4.123382,2.731407 -4.694775,3.089518 -1.672963,1.048519 -3.878317,8.072945 -4.007613,12.764932 -0.05828,2.114913 -1.005874,7.560021 -1.288425,7.403621 -0.37656,-0.20845 -0.271732,-2.9767 0.221243,-5.842444 l 0.317022,-1.842916 -6.859431,-0.284492 c -3.772687,-0.156472 -7.716842,-0.360057 -8.76479,-0.452398 -1.821398,-0.160497 -2.0882,-0.03149 -6.054603,2.928368 -2.2820835,1.702942 -4.5085803,3.276462 -4.9477698,3.496732 -1.3347567,0.6694 -0.6207767,1.20547 1.5061345,1.13081 15.5047653,-0.54424 21.8033113,-0.60671 22.0709143,-0.21888 0.164861,0.23892 0.09869,0.54569 -0.147042,0.68172 -0.245733,0.13603 -5.603927,0.33079 -11.907095,0.4328 -6.30317,0.10201 -11.6496657,0.29029 -11.8811027,0.41841 -0.2314372,0.12811 -0.3593533,0.5075 -0.284258,0.84308 0.1162445,0.51947 1.664929,0.63472 10.4203297,0.77543 10.33754,0.16614 12.295841,0.30289 12.295841,0.85864 0,0.33262 -11.453286,0.26596 -18.722829,-0.10898 l -4.6385025,-0.23923 0.3129489,1.11718 c 0.3848352,1.37379 1.3930467,7.83249 1.7573934,11.25803 0.2390021,2.24706 0.183242,2.51692 -0.4958734,2.39977 C 6.2222708,121.41892 5.7562201,118.97022 3.88574,105.33672 l -0.283837,-2.06882 2.8896906,-2.53668 c 1.5893298,-1.395186 4.8444274,-4.138118 7.2335524,-6.095417 l 4.34386,-3.55872 7.468348,-0.05513 7.468348,-0.05513 0.483449,-2.629261 c 0.265897,-1.44609 0.604548,-2.911919 0.752558,-3.257394 0.353664,-0.825489 15.601514,-10.668495 17.32265,-11.182355 0.263252,-0.07857 0.845847,-1.42156 1.294649,-2.98435 l 0.816015,-2.841445 -3.005014,-2.159376 c -1.652758,-1.187657 -3.423372,-2.725038 -3.934697,-3.416401 -0.898523,-1.21489 -1.069255,-1.266756 -5.094039,-1.547431 -4.548716,-0.317213 -5.72588,-0.66919 -5.735789,-1.715026 -0.0036,-0.377711 -0.319534,-1.492025 -0.702124,-2.476247 -1.18345,-3.044467 -0.199618,-5.427683 4.221004,-10.224881 0.202974,-0.220264 1.800378,-1.584637 3.54979,-3.031944 2.197188,-1.817755 4.477604,-3.204255 7.374683,-4.48383 4.707679,-2.079277 9.862065,-3.897885 11.047563,-3.897885 0.432447,0 1.022347,-0.25479 1.310893,-0.566197 0.596334,-0.643583 4.204265,-2.238188 5.05723,-2.235152 0.453595,0.0016 1.546763,2.590152 2.806984,6.646747 0.07541,0.242726 1.106478,0.560331 2.291269,0.705784 1.184791,0.145454 3.800962,0.734315 5.813716,1.308578 l 3.65955,1.044118 3.362913,-3.05146 c 2.031639,-1.843482 3.728313,-3.05146 4.285945,-3.05146 0.507666,0 0.923033,-0.248256 0.923033,-0.551684 0,-0.303423 0.299594,-0.774382 0.665759,-1.046572 0.928028,-0.68985 0.546991,-1.038179 -1.686756,-1.541965 -4.574134,-1.031631 -7.825189,-4.759701 -7.341386,-8.418549 0.234095,-1.770388 0.177578,-1.95054 -0.557906,-1.778271 -0.652197,0.152763 -0.956486,-0.201758 -1.498451,-1.74582 -0.374034,-1.065629 -0.805176,-3.011273 -0.958091,-4.323651 -0.152912,-1.31238 -0.393758,-2.799159 -0.535209,-3.303955 -0.141452,-0.504796 -0.06602,-0.91781 0.167634,-0.91781 0.55012,0 1.460612,2.729053 1.460612,4.377944 0,1.570818 0.70351,2.830682 1.580655,2.830682 0.360224,0 0.654953,0.180216 0.654953,0.40048 0,0.220264 0.297975,0.400479 0.662164,0.400479 0.720769,0 1.267504,-1.453221 1.317909,-3.503015 0.03193,-1.2979 0.403469,-1.659845 0.926216,-0.902257 0.449469,0.651391 1.117804,0.45745 1.117804,-0.32437 0,-0.776539 -5.619825,-4.38704 -6.124683,-3.934849 -0.156221,0.139923 0.458111,0.84011 1.365177,1.555974 1.58265,1.249031 1.635029,1.373039 1.297717,3.072255 -0.531418,2.677052 -1.456547,2.595068 -1.456547,-0.129079 0,-1.872888 -0.196761,-2.422779 -1.229585,-3.436317 -0.676271,-0.663643 -1.732596,-1.252188 -2.347387,-1.307875 -1.023327,-0.0927 -1.113364,0.02701 -1.06525,1.416237 0.03317,0.95856 -0.131489,1.461539 -0.447121,1.365587 -0.274823,-0.08355 -0.499676,-0.974329 -0.499676,-1.97952 0,-1.524549 -0.207804,-1.974408 -1.25313,-2.7128002 -1.747865,-1.2346512 -1.96623,-0.7420102 -0.598011,1.3491342 l 1.163795,1.778705 -1.073942,0.241424 c -1.445588,0.324972 -2.486366,-0.08463 -2.486366,-0.97851 0,-0.403962 -0.201205,-0.845856 -0.447121,-0.981987 -0.245918,-0.136131 -0.433503,-0.552252 -0.416861,-0.9247131 0.02298,-0.5140339 0.147166,-0.4600921 0.515447,0.2238741 0.461335,0.856776 1.242777,1.237148 1.242777,0.604927 0,-0.8736903 -1.650579,-3.7058547 -2.160517,-3.7071397 -0.453587,-0.00112 -0.560194,0.6671105 -0.447122,2.8027562 0.08166,1.5423405 -0.0022,2.8038515 -0.186869,2.8033545 -0.184438,-4.81e-4 -0.335341,-0.711129 -0.335341,-1.579184 0,-1.847735 -0.722128,-2.4787624 -1.316804,-1.1506814 -0.365836,0.8170094 -0.418359,0.7449374 -0.443339,-0.6083636 -0.04118,-2.2298327 -1.112014,-1.6742155 -1.282425,0.665397 -0.107635,1.477742 0.0098,1.870972 0.558901,1.870972 0.382348,0 0.69518,0.282857 0.69518,0.628572 0,0.422785 -0.329358,0.586675 -1.006022,0.500599 -0.87719,-0.111585 -0.986489,-0.32613 -0.853475,-1.675316 0.199318,-2.0217477 -0.865927,-1.8139598 -1.417907,0.276578 -0.374473,1.418251 -1.19381,2.050104 -1.19381,0.920637 0,-1.483327 1.508092,-4.0567864 3.210672,-5.4788018 1.040416,-0.8689652 2.036017,-1.5799367 2.212451,-1.5799367 0.491516,0 7.180016,3.2510603 8.386161,4.076235 0.586476,0.401234 1.515062,0.7295155 2.063528,0.7295155 0.548466,0 1.477052,0.335661 2.063528,0.745913 1.566343,1.095688 4.866855,2.531107 4.866855,2.116634 0,-0.196661 -1.161988,-1.326672 -2.582202,-2.511135 C 81.414314,8.6055516 80.443793,8.0767429 75.03512,5.835268 71.564304,4.3968849 73.765524,4.454576 77.87686,5.909744 c 2.732198,0.9670382 4.183071,1.7874281 6.052956,3.4226235 1.622406,1.4187765 2.569397,1.9912955 2.782615,1.6822855 0.51364,-0.744388 -4.39173,-4.5374162 -7.693208,-5.9487005 C 73.992452,2.917149 66.912529,2.9749828 63.564322,5.1921909 c -1.201809,0.795844 -3.060649,3.0080983 -3.060649,3.6425529 0,0.5199885 0.925058,0.2254886 1.825744,-0.5812424 1.198813,-1.073758 1.590228,-0.730049 0.643072,0.5646973 -0.859779,1.1753071 -0.801232,4.9347113 0.07449,4.7832773 0.292195,-0.05053 1.026529,0.303257 1.631851,0.786187 1.001436,0.798951 1.034134,0.923337 0.362982,1.380689 -0.663456,0.452104 -0.64022,0.503914 0.231158,0.515371 0.532816,0.007 1.047704,-0.199386 1.144188,-0.458648 0.09649,-0.259261 0.415063,-0.338734 0.707946,-0.176604 0.339601,0.18799 0.532512,1.446859 0.532512,3.474978 0,3.413591 0.02755,3.446194 2.750593,3.255344 0.406201,-0.02847 0.96233,0.189749 1.235839,0.484928 0.400577,0.432315 0.05844,0.588834 -1.759208,0.804801 -1.241075,0.14746 -2.451116,0.160375 -2.688984,0.0287 -0.237864,-0.131675 -0.432482,-1.12985 -0.432482,-2.218169 0,-1.491912 -0.165016,-1.978762 -0.670683,-1.978762 -0.874234,0 -0.867984,1.481629 0.01422,3.372795 0.376699,0.807517 0.557926,1.652236 0.40273,1.877153 -0.482806,0.699715 -1.981874,-0.884609 -1.981874,-2.094595 0,-1.184432 -1.280131,-3.956311 -1.827135,-3.956311 -0.485556,0 -2.174326,-2.719386 -2.967514,-4.778516 -0.387579,-1.006166 -0.758569,-2.881571 -0.824421,-4.1675666 -0.110452,-2.1569641 -0.0047,-2.4518217 1.365192,-3.8045537 2.714412,-2.6805052 10.0425,-4.5043559 16.137365,-4.0163447 4.777846,0.3825591 5.803476,0.6750565 8.330503,2.3757533 1.277315,0.8596374 2.432726,1.6109367 2.567578,1.6695542 0.571971,0.2486211 3.151477,3.8938919 3.151477,4.4535625 0,0.336454 0.168418,0.704964 0.374259,0.81891 0.563557,0.311965 0.048,6.694566 -0.638355,7.902876 -0.329408,0.579917 -1.108965,1.169051 -1.732341,1.309188 -1.555558,0.349693 -1.454648,1.485882 0.290052,3.265697 1.206718,1.231002 1.342885,1.567692 0.894242,2.211137 -0.687019,0.985338 -0.647668,1.932716 0.13179,3.172764 0.571377,0.909008 0.54226,1.06145 -0.316209,1.655534 -0.917059,0.634623 -0.838849,0.684667 2.596462,1.661464 4.5301,1.288094 6.545923,1.988167 7.169661,2.489951 0.273798,0.220264 1.353237,1.031235 2.398737,1.802158 2.31687,1.708376 5.44107,5.307275 6.25779,7.208627 0.33116,0.770922 0.77106,1.572883 0.97755,1.782133 0.20651,0.20925 0.37547,0.722076 0.37547,1.139615 0,0.41754 0.37939,1.237521 0.84309,1.822182 0.4637,0.584659 1.14126,1.693775 1.50567,2.464697 0.89438,1.892044 6.00707,6.808147 7.08039,6.808147 0.47005,0 0.85464,0.167129 0.85464,0.371397 0,0.409014 4.04812,2.221071 5.88369,2.633712 0.95406,0.214477 1.334,0.04195 2.13983,-0.971687 0.53889,-0.677855 1.31821,-1.226732 1.73182,-1.219727 1.14821,0.01946 2.31694,0.980533 2.31694,1.905296 0,0.873849 1.02975,1.166303 7.32673,2.080802 2.98634,0.433699 3.07543,0.48114 3.21318,1.710891 0.0553,0.494 1.02637,3.312412 2.15785,6.26314 1.13149,2.950719 2.05724,5.478529 2.05724,5.617341 0,0.138821 -0.85511,0.750321 -1.90026,1.358895 -1.48926,0.867181 -2.33232,1.081426 -3.89786,0.990563 -2.29021,-0.132921 -2.1877,-0.0051 -4.73539,-5.922894 -0.9008,-2.092499 -1.80723,-3.967242 -2.0143,-4.166093 -0.22244,-0.213619 -1.34555,-0.125502 -2.74498,0.215366 -2.50918,0.611171 -4.38055,0.560391 -4.38055,-0.118866 0,-0.22527 0.40241,-0.867795 0.89424,-1.427833 1.04833,-1.193705 1.17392,-2.512154 0.2393,-2.512154 -0.36023,0 -0.88738,0.405485 -1.17146,0.901078 -0.28408,0.495593 -1.13544,1.486779 -1.89192,2.202636 -1.30333,1.233328 -1.32395,1.301558 -0.39347,1.301558 0.54006,0 0.98194,0.180215 0.98194,0.400479 0,0.796937 -2.70941,0.366915 -8.43159,-1.338218 -4.36104,-1.299527 -6.35677,-2.121779 -7.90128,-3.255363 l -2.06646,-1.516667 -3.20795,1.130757 c -1.76437,0.621916 -3.25051,1.148782 -3.30252,1.170809 -0.052,0.02202 0.31214,1.540871 0.80923,3.375211 0.49709,1.834343 0.7872,3.607339 0.64468,3.940003 -0.15055,0.351364 0.45914,1.463628 1.45481,2.654067 1.62558,1.943582 4.35523,6.646433 5.37347,9.25785 0.25766,0.660793 0.59591,2.225068 0.75168,3.476173 0.15577,1.251095 0.52698,2.455924 0.82491,2.677394 0.29794,0.221481 5.16443,0.602012 10.81443,0.845647 5.65001,0.243636 10.54027,0.525437 10.86725,0.626226 0.41018,0.126429 0.50379,0.553217 0.3019,1.376515 -0.2466,1.005605 0.0209,1.556723 1.70075,3.504514 1.09634,1.271192 2.51775,2.81415 3.15869,3.42877 1.12799,1.08169 1.15347,1.21646 0.79524,4.20503 -0.45621,3.80582 -0.19722,11.91142 0.5849,18.30574 0.69477,5.6802 0.66937,7.88106 -0.0936,8.1093 -0.30727,0.0919 -0.63894,-0.0731 -0.73703,-0.36677 z M 33.228446,93.744418 c 8.05e-4,-1.214428 -0.06308,-1.253154 -2.488895,-1.508519 -1.369352,-0.144151 -2.628385,-0.185333 -2.79785,-0.09152 -0.169465,0.09386 -2.398895,0.279263 -4.954289,0.412133 -3.673346,0.190979 -4.769694,0.387268 -5.236116,0.937468 -0.32447,0.382743 -0.596344,0.82283 -0.604165,0.977967 -0.01849,0.366906 4.730412,0.606588 11.051199,0.557752 l 5.029278,-0.03883 8.5e-4,-1.246418 z M 139.25165,76.098221 c -0.52708,-0.811854 -0.65436,-0.551994 -0.2229,0.455089 0.15334,0.357907 0.37298,0.566373 0.48811,0.463271 0.11512,-0.103112 -0.004,-0.516377 -0.26521,-0.91836 z m 4.48362,0.676274 c 0.65512,-0.0051 0.62038,-0.30789 -0.31055,-2.708701 -0.57651,-1.486782 -1.16856,-3.33399 -1.31567,-4.104913 -0.40364,-2.115256 -1.24566,-4.007509 -1.77221,-3.982634 -0.258,0.01218 -0.94317,0.559397 -1.52261,1.216027 -1.17704,1.333844 -1.21312,1.168334 1.37957,6.327159 0.70744,1.407649 1.17201,2.826039 1.03236,3.151977 -0.19386,0.4525 -0.0144,0.535159 0.75878,0.349592 0.55697,-0.133665 1.34461,-0.245501 1.75033,-0.248507 z m -5.8722,-5.380175 c -0.51586,-2.225664 -1.02188,-2.773983 -1.50953,-1.635725 -0.28078,0.655337 1.36911,4.459748 1.77603,4.095278 0.13826,-0.123841 0.0183,-1.230642 -0.2665,-2.459553 z M 84.913491,68.572568 c 5.925598,-1.206805 16.593769,-4.469762 16.089769,-4.921198 -0.1068,-0.09565 -2.673424,0.365838 -5.703638,1.025532 -3.03021,0.659693 -8.024529,1.479854 -11.098489,1.822581 -3.073961,0.342725 -6.595042,0.739785 -7.824626,0.882352 -7.521805,0.872119 -16.097469,0.213828 -19.673346,-1.51018 -2.63731,-1.271506 -5.145997,-3.166701 -5.884351,-4.445352 -0.501934,-0.869224 -0.916509,-1.097337 -1.819579,-1.001198 -0.643242,0.06848 -1.247929,0.338517 -1.343742,0.600082 -0.09582,0.261561 1.065463,1.585922 2.580619,2.943022 3.092449,2.769854 7.324158,4.803028 10.938269,5.255418 3.46219,0.43337 20.741254,-0.04052 23.739114,-0.651059 z m 38.483329,-0.513964 c 1.11868,-1.26809 2.26618,-3.494878 2.06372,-4.004792 -0.22861,-0.575797 2.35397,-0.720522 2.745,-0.153829 0.1316,0.190724 0.74337,0.26046 1.35949,0.154969 0.61611,-0.105494 1.64764,-0.07324 2.29228,0.07168 1.0623,0.238806 1.14481,0.393543 0.88114,1.652418 -0.23553,1.124553 -0.1379,1.432966 0.51291,1.620258 0.4421,0.127232 1.28352,0.438593 1.86982,0.691917 0.93444,0.403743 1.15518,0.337568 1.78849,-0.536126 0.39736,-0.548196 1.20079,-1.399415 1.78538,-1.8916 0.7835,-0.659657 0.90104,-0.939989 0.44712,-1.06648 -1.82667,-0.509021 -4.97903,-1.043805 -6.15284,-1.043805 -0.7373,0 -1.4649,-0.180216 -1.61688,-0.40048 -0.15199,-0.220264 -1.07631,-0.400479 -2.05404,-0.400479 -0.97774,0 -3.33002,-0.433191 -5.2273,-0.962644 -1.89727,-0.529458 -5.46162,-1.452426 -7.92079,-2.051047 -6.08308,-1.480768 -7.24628,-1.790819 -9.83667,-2.621958 -1.22959,-0.39452 -2.66998,-0.826653 -3.20087,-0.960301 -0.53089,-0.133643 -2.24113,-1.375823 -3.800531,-2.760395 C 97.772846,52.01134 95.093981,49.92325 93.379213,48.755708 89.934039,46.409973 82.200491,42.86135 79.74153,42.497903 78.874435,42.369742 76.746776,41.82976 75.013408,41.297943 69.630664,39.646458 62.272766,39.893094 57.94641,41.870023 c -3.253019,1.486463 -8.42072,4.79928 -9.155237,5.869073 -0.174329,0.2539 2.476073,0.414307 7.397133,0.447696 8.784305,0.05961 12.126913,0.60928 15.274215,2.511793 1.128887,0.682401 2.225819,1.240729 2.437621,1.240729 0.211802,0 1.62154,1.208598 3.132743,2.685774 2.303897,2.252012 2.70183,2.850291 2.463944,3.704434 -0.333616,1.197866 -1.465321,2.420337 -2.240629,2.420337 -0.300653,0 -0.797115,0.270323 -1.103254,0.600719 -1.012243,1.092447 -2.793776,0.720566 -4.316627,-0.901063 l -1.410334,-1.501814 -0.317058,1.506224 c -0.395912,1.880842 -0.671724,2.032263 -2.342174,1.285863 -0.892638,-0.398854 -1.43023,-0.999361 -1.608207,-1.796411 -0.220811,-0.988883 -0.709215,-1.372314 -2.805969,-2.202864 -4.318209,-1.710503 -5.460747,-1.707968 -8.725352,0.01934 -1.563319,0.827166 -3.093905,1.507905 -3.401302,1.512751 -1.003738,0.01582 -0.593357,0.717722 1.46959,2.513524 2.153373,1.874523 3.938103,2.812233 8.122851,4.267803 2.312097,0.804211 3.339104,0.897342 9.522003,0.86349 4.71097,-0.02579 7.861101,-0.243019 9.836672,-0.678308 1.598459,-0.352198 5.109289,-0.85178 7.801845,-1.11018 3.475525,-0.333544 6.27133,-0.901956 9.63853,-1.959602 4.252596,-1.335751 5.017696,-1.459627 7.400286,-1.198166 3.56353,0.391056 15.06815,2.766992 15.60148,3.22202 0.60162,0.513302 0.97383,0.454172 1.80019,-0.285994 1.02411,-0.91727 1.14022,-0.580458 0.38244,1.109351 -0.36877,0.822329 -1.0535,1.555334 -1.56475,1.675085 -0.49999,0.117109 -0.77634,0.405269 -0.61413,0.640358 0.45839,0.664312 2.08839,0.503656 2.77389,-0.273402 z m 7.22086,-0.484383 c 0.9648,-1.168824 1.32399,-2.81957 0.61354,-2.81957 -0.42641,0 -2.31794,2.904051 -2.31794,3.558718 0,0.78353 0.69704,0.48124 1.7044,-0.739148 z m -10.90129,-0.06099 c -0.16898,-0.244893 -0.0358,-0.595525 0.296,-0.779185 0.82621,-0.457347 0.36548,-0.769157 -1.54728,-1.047173 -1.50215,-0.218337 -2.96548,0.299086 -2.96548,1.048578 0,0.154446 0.75452,0.470039 1.67671,0.701316 2.30887,0.579041 2.8991,0.59681 2.54005,0.07646 z m -5.54915,-1.767064 c 0.70083,-0.756357 0.6646,-0.787606 -1.79253,-1.545845 -2.64438,-0.816025 -3.47252,-0.191986 -1.56985,1.182948 1.5479,1.118574 2.56088,1.227905 3.36238,0.362897 z m 16.08741,-4.996311 c 0,-0.90777 -0.46367,-1.026424 -1.25194,-0.320383 -0.78827,0.706041 -0.6558,1.121342 0.35769,1.121342 0.59616,0 0.89425,-0.266987 0.89425,-0.800959 z m -55.710277,0.06326 c 0.12798,-0.185474 -0.863383,-1.492038 -2.203027,-2.903475 -1.339643,-1.411441 -2.438501,-2.701417 -2.441908,-2.866615 -0.01556,-0.754022 1.379678,-0.188329 1.975477,0.800959 1.158714,1.923982 3.642792,4.256318 4.202968,3.946223 0.525175,-0.290716 -1.070092,-2.382451 -3.390128,-4.44518 -1.035717,-0.920846 -1.324325,-1.803799 -0.589606,-1.803799 0.229029,0 1.466428,1.081294 2.749779,2.402876 2.105182,2.16789 3.540626,2.999373 3.540626,2.050906 0,-0.193584 -1.432636,-1.562465 -3.183636,-3.04196 C 70.090528,50.63168 65.379705,49.13595 56.883906,49.13595 h -4.349795 l -0.295225,1.565121 c -0.162373,0.860814 -0.08491,2.247354 0.172141,3.081196 0.532044,1.725885 0.364923,2.097626 -0.615395,1.368906 -0.79077,-0.58782 -0.929136,-3.651018 -0.218637,-4.840113 0.377535,-0.63184 0.31572,-0.773501 -0.335342,-0.7685 -1.70462,0.0131 -2.063,0.604777 -1.791817,2.958229 0.251443,2.182099 1.532249,5.445705 2.137178,5.445705 0.165426,0 0.78062,-0.335661 1.367096,-0.745912 0.586476,-0.410251 1.927501,-1.137546 2.980047,-1.616207 l 1.913724,-0.870293 3.128349,1.010741 c 4.744125,1.532783 5.664966,2.062369 6.293615,3.619512 0.958109,2.373196 2.547532,1.672514 1.788843,-0.788596 -0.858388,-2.784524 0.856734,-2.053141 3.649938,1.556455 0.824362,1.065303 1.425848,1.294958 1.835747,0.700915 z M 49.019709,59.093687 c 0.537146,-0.250099 1.034278,-0.496967 1.104735,-0.548597 0.07045,-0.05163 -0.482855,-1.148594 -1.229584,-2.437705 -1.515005,-2.615417 -1.666314,-3.649519 -0.701225,-4.792375 0.991559,-1.174206 0.827501,-1.433869 -0.768244,-1.215944 -6.507957,0.888784 -8.033231,0.474521 -3.68993,-1.002178 1.491643,-0.507151 3.214042,-1.647376 5.348344,-3.540589 3.495689,-3.100824 7.864437,-5.190365 12.73621,-6.091643 1.698423,-0.314212 2.707772,-0.702409 2.707772,-1.041423 0,-0.736897 -1.280712,-2.903579 -1.716289,-2.903579 -0.193576,0 -1.394652,0.450539 -2.669051,1.001199 -1.274403,0.550659 -2.494254,1.001198 -2.710777,1.001198 -0.774508,0 -5.672049,2.08898 -6.98821,2.980723 -0.73775,0.499854 -1.783782,1.034082 -2.324516,1.187173 -0.540731,0.153091 -1.107604,0.629562 -1.259714,1.058819 -0.152109,0.429262 -0.54114,0.780474 -0.864512,0.780474 -0.789995,0 -3.965643,2.884352 -5.68526,5.16376 -2.05186,2.719807 -3.172018,6.194405 -2.75786,8.554546 0.220174,1.254698 0.494973,1.563711 1.659529,1.866157 2.024214,0.525713 8.665611,0.512157 9.808582,-0.02003 z m 65.865321,-1.784271 c -0.70691,-0.556734 -1.57848,-0.911471 -1.93683,-0.788304 -0.35835,0.123172 -1.0375,0.223944 -1.50923,0.223944 -2.66255,0 0.93074,1.448114 3.83711,1.546375 0.78241,0.02643 0.7335,-0.09636 -0.39105,-0.982015 z m -3.29771,-1.435334 c 1.51088,-0.692516 0.85536,-1.242947 -1.22959,-1.03246 -2.25231,0.227388 -2.74904,-0.290816 -0.67067,-0.699681 0.73774,-0.145134 1.34136,-0.355261 1.34136,-0.46695 0,-0.111686 -0.59915,-0.953394 -1.33145,-1.870455 -0.73229,-0.917066 -1.84988,-2.814308 -2.48352,-4.216097 -0.63364,-1.401791 -1.51933,-3.023732 -1.96823,-3.604315 -0.44888,-0.580583 -1.47784,-2.001735 -2.28655,-3.158119 -0.80873,-1.156384 -1.59613,-2.102516 -1.74979,-2.102516 -0.15367,0 -1.468528,-0.900566 -2.921913,-2.001255 -3.287377,-2.489628 -4.038233,-2.721125 -5.322043,-1.64086 -0.548239,0.461316 -1.235339,0.838759 -1.526884,0.838759 -0.291547,0 -0.530086,0.241013 -0.530086,0.535582 0,0.294568 -1.509034,1.759685 -3.353411,3.255812 -1.844376,1.496131 -3.35046,2.832006 -3.346847,2.968617 0.0036,0.136608 1.261137,0.67802 2.794509,1.203135 1.533368,0.525117 3.814796,1.561357 5.069834,2.302757 1.255035,0.741399 2.431595,1.347997 2.614575,1.347997 0.182979,0 0.262756,-0.986393 0.177279,-2.191979 -0.08811,-1.242792 0.03823,-2.239953 0.291716,-2.302757 0.259844,-0.06438 0.501996,1.098832 0.578141,2.777188 0.117195,2.583228 0.257073,2.976771 1.325644,3.729628 1.131592,0.797254 1.211498,0.803358 1.514266,0.115634 0.175799,-0.399321 0.333777,-1.391209 0.351051,-2.204197 0.02897,-1.362611 0.661877,-2.295688 1.218799,-1.796855 0.1285,0.115094 0.002,1.52981 -0.281553,3.143815 l -0.515184,2.934556 1.827687,1.464805 c 2.60822,2.090346 5.22554,3.149925 7.61835,3.084158 1.10663,-0.03044 2.36416,-0.216694 2.79451,-0.413947 z M 68.77777,37.36029 c -0.343491,-2.037243 -1.093488,-3.442544 -1.837261,-3.442544 -0.311313,0 -1.095046,0.180151 -1.741628,0.400338 l -1.175608,0.400339 0.883553,1.501939 c 0.485958,0.826064 0.990526,1.805548 1.121269,2.176632 0.160109,0.454432 0.69289,0.663106 1.631984,0.639189 1.374657,-0.03501 1.390378,-0.05858 1.117691,-1.675893 z M 86.832147,23.255742 c -0.888658,-0.847261 -0.940627,-1.103472 -0.490353,-2.417554 0.503476,-1.469341 0.356592,-2.330764 -0.332386,-1.949372 -0.810649,0.448747 -0.937319,2.990082 -0.224057,4.495251 0.396914,0.837593 0.724851,2.153649 0.72875,2.924572 0.004,0.770922 0.239589,1.65637 0.523762,1.96766 0.406563,0.445361 0.545623,0.07166 0.652484,-1.753439 0.113963,-1.946304 -0.0241,-2.471876 -0.8582,-3.267118 z m -1.728625,0.663653 c -1.355592,-2.268717 -1.886839,0.663364 -0.567049,3.129679 l 0.782463,1.462201 0.135656,-1.888644 c 0.07461,-1.038754 -0.08337,-2.255211 -0.35107,-2.703236 z M 66.316274,18.456447 c 0,-0.08656 -0.414286,-0.157394 -0.920632,-0.157394 -0.506348,0 -0.801712,0.172346 -0.656362,0.382989 0.238588,0.345776 1.576994,0.154311 1.576994,-0.225595 z m 23.361242,-5.060975 c 0.867801,-2.331818 -6.729134,-9.9141515 -9.933237,-9.9141515 -0.253817,0 -0.461483,0.1802152 -0.461483,0.4004789 0,0.2202637 0.186978,0.4004799 0.415505,0.4004799 0.228525,0 1.624129,0.7190479 3.101343,1.5978841 2.65803,1.5813391 4.233819,3.0675443 3.846934,3.6282346 -0.109996,0.1594103 0.09816,0.511465 0.462557,0.782344 0.364403,0.270879 0.872954,1.192378 1.130117,2.047774 0.465726,1.549149 1.085571,2.004664 1.438264,1.056956 z M 61.397937,10.065594 c 0,-0.6608209 -0.706648,-0.7724662 -1.117804,-0.1766048 -0.364631,0.5284378 0.17,1.2783568 0.701579,0.9840958 0.228922,-0.126725 0.416225,-0.490096 0.416225,-0.807491 z m -4.64819,118.665616 c -0.466115,-1.37665 -1.220592,-3.2357 -1.676616,-4.13123 -0.456024,-0.89553 -0.829138,-2.27765 -0.829138,-3.07137 0,-1.38403 -0.815942,-4.89172 -1.853779,-7.96929 -0.269954,-0.80051 -0.39813,-1.70158 -0.284843,-2.0024 0.345987,-0.91864 1.515621,1.5872 2.548655,5.46027 0.528739,1.98237 1.247603,4.5955 1.597471,5.80695 0.349868,1.21146 0.771445,3.14877 0.93684,4.30515 0.307933,2.153 0.53706,2.42841 1.38698,1.66714 0.773086,-0.69243 1.116704,0.23538 0.520923,1.40656 -0.821742,1.6154 -1.430502,1.23357 -2.346493,-1.47178 z m 52.763343,0.40048 c 0.37308,-1.00829 0.30548,-8.18065 -0.10756,-11.41365 -0.16241,-1.27113 -0.0952,-2.10252 0.17002,-2.10252 0.24126,0 0.68391,2.23413 0.98368,4.96477 0.60924,5.54949 0.3077,9.45248 -0.73026,9.45248 -0.47405,0 -0.55931,-0.24319 -0.31588,-0.90108 z m -20.711225,-1.86534 c -0.29299,-0.42021 -0.850027,-2.26742 -1.237865,-4.10491 -0.387838,-1.83749 -0.881898,-3.92659 -1.09792,-4.64245 -0.216018,-0.71586 -0.23562,-1.30155 -0.04355,-1.30155 0.432828,0 2.48211,5.93367 3.354046,9.71162 0.294001,1.27383 -0.202018,1.44549 -0.974702,0.33729 z M 74.36446,125.99956 c 0,-0.53579 4.107418,-4.76539 4.634418,-4.77228 0.460388,-0.006 -0.679289,1.62032 -2.587322,3.69216 -1.394916,1.51466 -2.047096,1.85878 -2.047096,1.08012 z m -3.662002,-0.98219 c -0.364278,-0.32629 0.140325,-2.19323 0.592794,-2.19323 0.221934,0 0.270778,0.49559 0.108539,1.10132 -0.347025,1.29563 -0.393351,1.36775 -0.701333,1.09191 z m -3.837133,-1.79275 c 0.249681,-0.88105 0.680997,-1.59618 0.958481,-1.58918 0.787636,0.0199 2.069439,1.01917 2.069439,1.61331 0,0.41731 -0.119234,0.42975 -0.536546,0.0559 -0.794973,-0.71204 -1.123526,-0.59289 -1.435546,0.52062 -0.154306,0.55066 -0.557131,1.0012 -0.895173,1.0012 -0.494637,0 -0.526002,-0.31272 -0.160655,-1.60192 z m -22.208561,0.0375 c -0.13775,-0.19963 -0.43725,-1.41608 -0.665554,-2.70323 -0.228304,-1.28716 -0.851219,-3.42158 -1.384254,-4.74315 -0.855195,-2.12034 -1.772551,-5.45941 -2.530573,-9.21102 -0.133515,-0.6608 -0.743443,-2.73328 -1.355396,-4.60552 -1.57757,-4.826496 -2.792817,-9.711398 -2.51583,-10.112821 0.536803,-0.777959 1.138098,0.03893 1.262383,1.714917 0.07301,0.9845 0.577115,2.961396 1.120242,4.393117 0.87305,2.301407 4.298857,13.885977 5.388577,18.221797 0.221436,0.88106 0.802923,2.75776 1.292194,4.17046 0.489271,1.41269 0.785583,2.71926 0.658471,2.90347 -0.304421,0.44119 -0.956427,0.4268 -1.27026,-0.028 z m 38.650126,-1.46283 c 0,-0.3434 0.204486,-0.51116 0.454413,-0.37281 0.249928,0.13836 0.338659,0.41931 0.197172,0.62435 -0.383286,0.55549 -0.651585,0.45191 -0.651585,-0.25154 z m 0.453967,-3.6808 c 0.0045,-0.95729 0.141992,-1.3109 0.379592,-0.97531 0.34516,0.48753 0.172473,2.4771 -0.215003,2.4771 -0.09429,0 -0.168354,-0.6758 -0.164589,-1.50179 z m 0.249131,-14.31713 C 84.425015,87.052758 84.4155,87.18147 85.23878,87.18147 c 0.454464,0 0.553774,0.761276 0.431008,3.303955 -0.08774,1.817174 -0.327508,8.227614 -0.532821,14.245415 -0.258361,7.57272 -0.538205,11.08684 -0.908918,11.41366 -0.41601,0.36675 -0.464707,-2.38964 -0.218061,-12.34314 z m -52.122068,9.6115 c 0,-0.33039 0.194889,-0.60072 0.433088,-0.60072 0.238199,0 0.317274,0.27033 0.175723,0.60072 -0.141551,0.33039 -0.33644,0.60072 -0.433088,0.60072 -0.09664,0 -0.175723,-0.27033 -0.175723,-0.60072 z m 35.993278,-2.62546 c -1.229583,-0.43221 -3.945846,-0.96443 -6.03614,-1.18271 -4.714135,-0.49226 -6.367514,-0.8868 -6.625915,-1.58114 -0.156537,-0.42062 0.182725,-0.4792 1.535791,-0.26517 0.955194,0.15111 3.484345,0.53794 5.620339,0.85962 4.40077,0.66278 8.024574,1.75084 8.300497,2.49227 0.244768,0.6577 -0.12725,0.61472 -2.794572,-0.32287 z m -36.4404,-3.00114 c 0,-0.38009 1.40035,-2.6646 1.544899,-2.52032 0.400581,0.39982 -0.389434,2.74045 -0.924964,2.74045 -0.340965,0 -0.619935,-0.099 -0.619935,-0.22013 z m 26.756657,-3.70003 c -2.129144,-1.258 -5.44902,-3.16585 -7.377505,-4.239658 -7.171266,-3.993111 -9.262964,-5.269011 -9.437694,-5.756832 -0.37415,-1.044586 1.343571,-0.419166 5.224651,1.902278 2.209474,1.321576 4.177779,2.404622 4.374012,2.406762 0.196232,0.002 1.240221,0.632891 2.319974,1.401678 1.079754,0.768782 2.112153,1.397782 2.294216,1.397782 0.401306,0 7.591314,4.75344 7.591314,5.01875 0,0.56616 -1.531642,-0.088 -4.988968,-2.13076 z m 56.613115,0.68968 c -0.1621,-0.23492 -0.18291,-0.52728 -0.0462,-0.64968 0.40517,-0.3629 8.7835,0.31788 8.7835,0.71369 0,0.52136 -8.37569,0.45998 -8.73725,-0.064 z m 9.18437,0.0266 c 0,-0.22026 0.28994,-0.40047 0.64429,-0.40047 0.35437,0 0.76865,0.18021 0.92064,0.40047 0.15199,0.22027 -0.13794,0.40049 -0.64429,0.40049 -0.50635,0 -0.92064,-0.18022 -0.92064,-0.40049 z m -10.44337,-8.717805 c -0.15262,-0.221185 0.17296,-0.510283 0.72351,-0.642449 1.60362,-0.384975 5.17072,-0.287692 5.47221,0.149236 0.15514,0.224844 -0.19811,0.400485 -0.80545,0.400485 -0.59499,0 -1.98876,0.111337 -3.09729,0.247437 -1.17817,0.144641 -2.13077,0.08041 -2.29298,-0.154709 z m 9.77269,-0.09274 -2.23561,-0.274647 3.01808,-0.06288 c 1.76079,-0.03669 3.01806,0.103917 3.01806,0.337566 0,0.427572 -0.32011,0.427572 -3.80053,0 z m -73.686615,-7.86357 c -0.956509,-0.856725 -0.04144,-1.265618 3.823886,-1.70866 9.004253,-1.032051 11.443492,-1.454833 12.268691,-2.126449 0.463285,-0.377056 1.539193,-0.944123 2.390901,-1.260135 1.944465,-0.72147 6.690458,-1.179759 6.690458,-0.646047 0,0.214011 -0.150903,0.390162 -0.335341,0.391435 -2.128553,0.01478 -5.844687,0.954599 -7.061711,1.786041 -0.817141,0.558251 -1.876864,1.01499 -2.35494,1.01499 -0.478076,0 -2.252043,0.25614 -3.942144,0.569187 -1.690106,0.313056 -4.58609,0.843487 -6.435518,1.178749 -1.849433,0.335253 -3.670783,0.715478 -4.047452,0.844945 -0.376663,0.129466 -0.825238,0.109634 -0.99683,-0.04403 z m 48.977266,-4.291349 c -1.73276,-0.508856 -1.662308,-1.178974 0.154554,-1.470069 1.286775,-0.206164 1.304475,-0.245083 1.304475,-2.867232 0,-1.462028 0.13607,-2.781392 0.30237,-2.931934 0.16631,-0.150531 0.6387,0.308838 1.04976,1.02081 1.0914,1.890386 0.27762,7.003963 -1.07153,6.733199 -0.15433,-0.03098 -0.937157,-0.249118 -1.739629,-0.484774 z M 46.419367,80.397927 c 0.835446,-0.303752 9.549334,-0.622067 13.301865,-0.485906 0.922187,0.03343 1.676705,0.241058 1.676705,0.461326 0,0.252899 -2.924658,0.391119 -7.936406,0.375089 -4.530933,-0.01447 -7.552691,-0.16489 -7.042164,-0.350509 z m 29.234559,-0.620753 c -1.873179,-1.100075 -2.363908,-1.958267 -1.728164,-3.022246 0.638825,-1.069135 1.848763,-0.570746 1.51407,0.623667 -0.372238,1.328394 1.396338,2.19262 2.300462,1.124126 0.340903,-0.402869 0.626216,-1.105874 0.634041,-1.562236 0.0209,-1.21985 1.373955,-4.576727 1.844733,-4.576727 0.5656,0 0.536971,0.177007 -0.657675,4.0662 -1.512567,4.924199 -1.394474,4.823033 -3.907467,3.347216 z M 73.047978,33.084601 c -1.191293,-1.327769 -1.666328,-1.589103 -2.533999,-1.394049 -0.874811,0.196659 -1.067856,0.0862 -1.067856,-0.611016 0,-0.468088 -0.496081,-1.20058 -1.102405,-1.627762 -1.036387,-0.730182 -2.275203,-3.455193 -1.774602,-3.903574 0.125731,-0.112616 1.528712,-0.278906 3.117729,-0.369532 2.746506,-0.15664 2.889129,-0.120626 2.889129,0.729547 0,0.738245 -0.175571,0.848503 -1.006023,0.631785 -2.638974,-0.688674 -4.034065,-0.758815 -3.826059,-0.192363 0.113448,0.308947 0.756605,0.61983 1.429242,0.690851 0.969091,0.102322 1.119041,0.24129 0.722333,0.669432 -0.37898,0.409007 -0.30728,0.742569 0.29506,1.372667 0.694353,0.726347 1.338297,0.839206 5.055764,0.886058 l 4.260065,0.0537 -3.24163,0.384744 c -1.782897,0.21161 -3.241631,0.559903 -3.241631,0.773987 0,0.214084 0.503012,0.979928 1.117804,1.701881 0.614792,0.721952 1.117804,1.430792 1.117804,1.575196 0,0.663551 -0.867917,0.125091 -2.210725,-1.371544 z M 71.602246,19.031239 c -0.412595,-0.292571 -0.815004,-1.066279 -0.894242,-1.719352 -0.11335,-0.934174 0.09431,-1.295901 0.973727,-1.696134 1.307191,-0.594918 2.52908,-0.666724 2.872643,-0.168814 0.13348,0.193445 -0.357656,0.459263 -1.091414,0.590707 -1.471248,0.263554 -1.833194,1.059969 -0.481724,1.059969 0.632252,0 0.791991,0.206851 0.618534,0.800959 -0.18243,0.624844 -0.01372,0.800959 0.767288,0.800959 0.839206,0 0.911108,-0.09716 0.444523,-0.600719 -0.704471,-0.760287 0.0018,-0.780509 1.143424,-0.03274 1.116963,0.731544 0.800669,0.977399 -1.625881,1.263804 -1.318817,0.15566 -2.226383,0.05626 -2.726878,-0.298635 z"
       id="path50" />
    <g
       aria-label="III"
       id="text2077"
       style="font-size:40px;line-height:1.25;font-family:Hultog;-inkscape-font-specification:Hultog"
       transform="matrix(0.44712148,0,0,0.40047928,2.3779019,-10.535455)">
      <path
         d="m 64.041071,73.918643 q -0.415903,2.470948 -1.46789,2.2263 L 58.047187,75.11742 q 0,0 -3.327217,0.318043 -0.954129,0.66055 -1.663609,0.66055 -1.003058,0 -1.565749,-1.467889 l 1.247706,-1.810398 q 0.587156,0.195719 1.223242,0.195719 2.103975,0 2.103975,-3.400612 0,-0.66055 -0.09786,-1.981651 -0.09786,-1.321101 -0.09786,-1.981652 0,-1.932721 0.09786,-5.82263 0.09786,-3.889908 0.09786,-5.82263 0,-1.663608 -0.978593,-2.617737 -0.66055,0.244649 -1.321101,0.244649 -1.149847,0 -1.932722,-0.929664 0.415903,-2.446483 1.443426,-2.2263 l 4.477064,0.978594 4.25688,-1.027523 1.761468,0.905198 -0.513761,1.761468 q -0.489297,-0.122324 -0.831804,-0.122324 -2.250765,0 -2.250765,3.840979 0,0.391437 0.02446,1.027523 0.02446,0.61162 0.02446,0.831804 0,1.614679 -0.09786,15.437309 l 1.027523,1.100917 q 0.660551,-0.220183 1.198777,-0.220183 1.076453,0 1.688074,0.929663 z"
         id="path3729" />
      <path
         d="m 77.349939,73.918643 q -0.415902,2.470948 -1.46789,2.2263 L 71.356055,75.11742 q 0,0 -3.327217,0.318043 -0.954128,0.66055 -1.663609,0.66055 -1.003058,0 -1.565749,-1.467889 l 1.247707,-1.810398 q 0.587156,0.195719 1.223241,0.195719 2.103976,0 2.103976,-3.400612 0,-0.66055 -0.09786,-1.981651 -0.09786,-1.321101 -0.09786,-1.981652 0,-1.932721 0.09786,-5.82263 0.09786,-3.889908 0.09786,-5.82263 0,-1.663608 -0.978594,-2.617737 -0.66055,0.244649 -1.3211,0.244649 -1.149848,0 -1.932722,-0.929664 0.415902,-2.446483 1.443425,-2.2263 l 4.477064,0.978594 4.256881,-1.027523 1.761468,0.905198 -0.513762,1.761468 q -0.489296,-0.122324 -0.831804,-0.122324 -2.250764,0 -2.250764,3.840979 0,0.391437 0.02446,1.027523 0.02446,0.61162 0.02446,0.831804 0,1.614679 -0.09786,15.437309 l 1.027523,1.100917 q 0.66055,-0.220183 1.198777,-0.220183 1.076452,0 1.688073,0.929663 z"
         id="path3731" />
      <path
         d="m 90.658807,73.918643 q -0.415902,2.470948 -1.46789,2.2263 L 84.664924,75.11742 q 0,0 -3.327218,0.318043 -0.954128,0.66055 -1.663608,0.66055 -1.003058,0 -1.565749,-1.467889 l 1.247706,-1.810398 q 0.587156,0.195719 1.223242,0.195719 2.103975,0 2.103975,-3.400612 0,-0.66055 -0.09786,-1.981651 -0.09786,-1.321101 -0.09786,-1.981652 0,-1.932721 0.09786,-5.82263 0.09786,-3.889908 0.09786,-5.82263 0,-1.663608 -0.978593,-2.617737 -0.660551,0.244649 -1.321101,0.244649 -1.149847,0 -1.932722,-0.929664 0.415902,-2.446483 1.443425,-2.2263 l 4.477065,0.978594 4.25688,-1.027523 1.761468,0.905198 -0.513761,1.761468 q -0.489297,-0.122324 -0.831805,-0.122324 -2.250764,0 -2.250764,3.840979 0,0.391437 0.02447,1.027523 0.02446,0.61162 0.02446,0.831804 0,1.614679 -0.09786,15.437309 l 1.027523,1.100917 q 0.660551,-0.220183 1.198777,-0.220183 1.076453,0 1.688073,0.929663 z"
         id="path3733" />
    </g>
  </g>
</svg>
