<?xml version="1.0" encoding="UTF-8" standalone="no"?>
<!-- Created with Inkscape (http://www.inkscape.org/) -->

<svg
   version="1.1"
   id="svg2"
   width="4cm"
   height="4cm"
   viewBox="0 0 151.18111 151.1811"
   sodipodi:docname="04.svg"
   inkscape:version="1.1.2 (0a00cf5339, 2022-02-04)"
   xmlns:inkscape="http://www.inkscape.org/namespaces/inkscape"
   xmlns:sodipodi="http://sodipodi.sourceforge.net/DTD/sodipodi-0.dtd"
   xmlns="http://www.w3.org/2000/svg"
   xmlns:svg="http://www.w3.org/2000/svg">
  <defs
     id="defs6" />
  <sodipodi:namedview
     id="namedview4"
     pagecolor="#505050"
     bordercolor="#eeeeee"
     borderopacity="1"
     inkscape:pageshadow="0"
     inkscape:pageopacity="0"
     inkscape:pagecheckerboard="0"
     showgrid="false"
     inkscape:zoom="1.8223844"
     inkscape:cx="200.83578"
     inkscape:cy="202.75634"
     inkscape:window-width="1920"
     inkscape:window-height="1043"
     inkscape:window-x="0"
     inkscape:window-y="0"
     inkscape:window-maximized="1"
     inkscape:current-layer="svg2"
     units="cm"
     inkscape:document-units="cm" />
  <!-- Border -->
  <path
     id="border"
     class="board-border"
     style="fill:none;stroke:#000000;stroke-width:0.1cm"
     d="M 0,0 H 151.18111 V 151.18111 H 0 Z" />
  <g
     inkscape:groupmode="layer"
     inkscape:label="Image"
     id="g8">
    <path
       id="path12"
       style="fill:#000000;stroke-width:0.367902"
       d="m 91.892159,3.817058 c -0.293186,0 -2.461651,1.9125624 -4.81931,4.2499942 l -4.287327,4.2499948 2.350104,2.037736 2.34936,2.038441 -2.214903,0.210557 c -3.098276,0.294413 -8.056331,0.731302 -8.949532,0.788528 -0.41156,0.02637 -0.922265,0.07549 -1.134859,0.109517 -0.346448,0.05546 -0.352952,6.633684 -0.02996,30.088404 0.02331,1.691236 -0.09539,4.828969 -0.263801,6.972393 l -0.306186,3.89671 4.047639,-0.156151 c 2.226211,-0.08614 5.647114,-0.253696 7.602024,-0.372361 4.496453,-0.272935 12.942021,-0.540335 17.670332,-0.558893 l 3.63989,-0.01413 -0.076,-4.431583 c -0.1349,-7.923852 0.48217,-24.182312 0.94486,-24.898676 0.31912,-0.494096 0.32374,-0.975291 0.0175,-1.856854 -0.24247,-0.697916 -0.35363,-2.803851 -0.26819,-5.090809 0.12306,-3.293642 0.0544,-3.934182 -0.44064,-4.117866 -0.32245,-0.119636 -0.74732,-0.06169 -0.94414,0.128596 -0.1968,0.190293 -0.45899,3.915456 -0.58313,8.278126 -0.12416,4.36267 -0.29267,8.00414 -0.37488,8.092299 -0.0823,0.08816 -5.98215,0.297967 -13.110435,0.466334 -9.421478,0.222532 -13.030785,0.195865 -13.217854,-0.0968 -0.264509,-0.413822 -0.84635,-7.602517 -0.632103,-7.809674 0.06568,-0.0635 3.898764,-0.19757 8.517655,-0.29817 11.65505,-0.253846 17.155277,-0.576024 17.440137,-1.021694 0.25394,-0.397275 -23.033602,-0.103573 -24.98443,0.315128 -0.928947,0.199379 -0.986827,0.124647 -1.182355,-1.54102 -0.113019,-0.962967 -0.178158,-1.775462 -0.14542,-1.805276 0.106066,-0.09656 21.707195,-0.563614 23.395765,-0.505901 2.09414,0.07158 3.86015,-0.30211 3.57046,-0.755319 -0.14301,-0.223753 -5.1146,-0.284601 -13.616109,-0.16675 L 78.465283,20.42771 78.232176,19.299324 c -0.128295,-0.620238 -0.190256,-1.161863 -0.137383,-1.203989 0.125118,-0.09968 7.536567,-0.514978 9.356562,-0.524271 0.869864,-0.0044 1.402323,-0.178908 1.401576,-0.459267 -8.9e-4,-0.248712 -0.842021,-1.347563 -1.869276,-2.441893 -1.714509,-1.826463 -2.298289,-2.890082 -1.590111,-2.89692 0.513325,-0.005 4.225356,4.149897 4.446624,4.97705 0.18755,0.701099 1.63323,1.237082 1.63323,0.605527 0,-0.273032 -3.222547,-4.395873 -4.426898,-5.663831 -0.91354,-0.961829 -0.920249,-1.008371 -0.255726,-1.7183636 0.375672,-0.4013662 0.888193,-0.7298823 1.139248,-0.7298823 0.251054,0 0.556511,-0.4476803 0.678133,-0.9948449 0.12187,-0.5481953 0.889917,-1.5245246 1.71069,-2.1748096 l 1.489279,-1.1799656 2.85213,2.7400635 c 2.467818,2.3706925 2.785698,2.8169485 2.358141,3.3095545 -0.64167,0.739294 -3.269114,6.013356 -3.115936,6.254522 0.0646,0.101659 2.748141,0.136543 5.963682,0.07701 3.215529,-0.05953 5.757539,-0.247056 5.649449,-0.416167 -0.10809,-0.169109 -2.30118,-0.424589 -4.87412,-0.568079 -2.572936,-0.143489 -4.678281,-0.383884 -4.678281,-0.534164 0,-0.150279 0.451677,-1.229255 1.00332,-2.398085 0.551648,-1.168829 1.01662,-2.206746 1.034022,-2.306231 0.01741,-0.09948 0.176301,-0.401689 0.352949,-0.671237 C 98.582367,10.031786 97.777175,9.0182809 95.550304,6.8538741 93.831698,5.1834793 92.185356,3.817058 91.892159,3.817058 Z m -0.14688,3.6868614 c -0.353343,0.059928 -0.820889,0.4376114 -1.56893,1.160887 -1.089679,1.0536152 -1.204591,1.3192575 -0.800167,1.8540286 0.436038,0.576582 0.531501,0.551563 1.245201,-0.325727 0.425021,-0.5224378 0.961223,-0.9496239 1.191852,-0.9496239 0.521174,0 1.935663,2.1916449 1.676348,2.5973369 -0.104365,0.163285 -0.02288,0.296758 0.181232,0.296758 0.786949,0 0.871751,-1.503005 0.129346,-2.2921006 C 93.394895,9.4147252 92.868227,8.6963194 92.629491,8.2486392 92.337816,7.7016936 92.098621,7.4439929 91.745279,7.5039194 Z m -1.207205,4.2782566 c -0.280973,0.01947 -0.56122,0.140337 -0.56122,0.343391 0,0.192218 0.283865,0.924785 0.630642,1.627928 0.346785,0.703141 0.725606,1.269402 0.84183,1.258393 0.116223,-0.01102 0.609756,-0.507896 1.096857,-1.103656 0.943955,-1.154511 0.840634,-1.832226 -0.157113,-1.031585 -0.500327,0.401493 -0.654263,0.395128 -0.93828,-0.03886 -0.186946,-0.285659 -0.342651,-0.64142 -0.345646,-0.790648 -0.0038,-0.202756 -0.286095,-0.284429 -0.56707,-0.264961 z m 38.770816,2.360636 c -0.007,7.96e-4 -0.0127,0.0019 -0.019,0.0028 l -0.003,0.0205 c 0.007,-0.0075 0.0139,-0.01423 0.0219,-0.02332 z m -82.583096,0.08267 c -0.981089,-0.03247 -2.018567,-0.0088 -3.059661,0.07913 -3.283104,0.277581 -4.573051,0.71281 -4.573051,1.542433 0,0.225254 0.5367,0.268234 1.403044,0.112344 7.126435,-1.282331 11.537564,-0.449089 15.15289,2.862299 0.850533,0.779032 1.0289,1.250503 1.0289,2.719572 0,1.808455 -0.59995,3.619737 -1.199166,3.619737 -0.182074,0 -0.238132,-0.529076 -0.124228,-1.175725 0.249683,-1.417434 -0.224539,-4.610012 -0.700793,-4.717034 -0.18742,-0.04212 -0.52415,0.444441 -0.74829,1.081046 -0.45987,1.306123 -1.781416,2.641143 -2.614633,2.641143 -0.969111,0 -0.979871,-0.591484 -0.0263,-1.457645 0.919342,-0.835112 1.346526,-3.245258 0.575098,-3.245258 -0.346043,0 -0.497782,0.364812 -0.927327,2.236988 -0.234376,1.021555 -1.538247,1.697871 -2.144025,1.112134 -0.219564,-0.212302 -0.213079,-0.938895 0.01826,-1.934577 0.372391,-1.602452 0.08596,-2.435323 -0.68106,-1.976971 -0.22371,0.133684 -0.410502,0.76268 -0.415066,1.397587 -0.0045,0.634907 -0.337839,1.561511 -0.740247,2.058933 -0.999983,1.236091 -0.930795,1.566028 0.280609,1.33753 0.722105,-0.136205 1.275178,0.02764 1.855379,0.549708 0.852495,0.767071 2.892444,0.987649 4.517514,0.488943 0.694493,-0.213127 0.828557,-0.118186 0.824291,0.583624 -0.01156,1.897604 -0.3991,2.466621 -1.680732,2.466621 -0.673432,0 -1.621684,0.31132 -2.10749,0.691728 -0.729183,0.570991 -0.871621,0.993836 -0.815521,2.425642 0.03738,0.953903 -0.01342,1.862481 -0.113264,2.018658 -0.09983,0.156176 -0.782694,0.0409 -1.517044,-0.255777 -1.757437,-0.709999 -2.232335,-0.681098 -1.555042,0.09398 0.767106,0.877855 0.456963,2.031027 -0.471338,1.752285 -0.392796,-0.117947 -1.050675,-0.315382 -1.462234,-0.438072 -0.447726,-0.133472 -0.748292,-0.05631 -0.748292,0.192187 0,0.228419 0.294639,0.507061 0.654754,0.618951 1.869777,0.580953 2.712556,0.980359 2.712556,1.28595 0,0.186571 -0.187223,0.22774 -0.4158,0.09115 -0.22858,-0.136594 -0.792847,0.208873 -1.253971,0.768037 -0.777361,0.94264 -0.919664,0.984343 -1.955493,0.569492 -0.614436,-0.246083 -2.014908,-1.32652 -3.112276,-2.400911 -1.097365,-1.074393 -2.15085,-1.860458 -2.341332,-1.746632 -0.190484,0.113831 0.468913,1.00817 1.465888,1.986865 1.417367,1.391373 1.697741,1.847854 1.285394,2.09426 -0.546608,0.326642 -1.903609,-0.257084 -1.903609,-0.818909 0,-0.16671 -0.673463,-0.948071 -1.496582,-1.736033 -2.055339,-1.967547 -1.92927,-2.385301 0.654754,-2.170571 0.463005,0.03848 0.841828,-0.09616 0.841828,-0.298876 0,-0.61433 -1.908441,-0.876336 -3.170007,-0.435245 -1.661794,0.581025 -2.026911,0.521193 -1.805689,-0.296758 0.329216,-1.217254 0.928119,-1.403438 2.917896,-0.905817 1.028899,0.257316 1.943782,0.398218 2.032952,0.313009 0.376817,-0.360077 -0.63937,-0.837867 -1.964992,-0.924188 -0.810527,-0.05278 -1.570013,-0.334192 -1.75673,-0.650748 -0.267846,-0.454103 -0.680679,-0.202481 -2.227335,1.35802 -2.004489,2.022433 -2.631441,2.131178 -2.631441,0.455735 0,-0.818387 0.268765,-1.145992 1.345317,-1.63994 1.084013,-0.497373 1.561565,-1.084867 2.45752,-3.025515 0.611572,-1.324664 1.471537,-3.141251 1.910918,-4.036611 0.951605,-1.939162 1.095273,-2.894094 0.435531,-2.894094 -0.877105,0 -1.54803,1.005775 -2.624134,3.934159 -0.754683,2.053712 -1.30777,2.999842 -1.906534,3.263628 -1.105707,0.487118 -2.743249,3.027068 -3.021662,4.685945 -0.209745,1.24972 -0.840124,2.224976 -1.437392,2.224976 -0.394911,0 -3.921254,2.16369 -4.969118,3.048831 -1.26284,1.066734 -3.788953,4.420653 -3.788953,5.030749 0,0.282586 -0.225385,0.694886 -0.500567,0.915709 -0.27518,0.22082 -0.72351,1.339825 -0.996746,2.486406 -0.273235,1.146583 -0.6516,2.383504 -0.840366,2.749249 -0.188766,0.365745 -0.404279,2.726241 -0.479373,5.245546 -0.348717,11.698709 -0.489082,12.987391 -1.652232,15.189048 -0.596701,1.129456 -1.511062,2.541658 -2.032223,3.138565 -0.521163,0.596907 -1.943328,2.306231 -3.1597769,3.798499 -1.2164477,1.492267 -2.7392848,3.191498 -3.3841159,3.775888 -1.992494,1.805738 -1.4102695,4.50066 0.9792088,4.533327 0.4935725,0.0067 0.8418276,0.235789 0.8418276,0.553947 0,0.387151 0.4076945,0.542643 1.4220451,0.542643 0.7819632,0 1.5959163,0.168827 1.8093443,0.375187 0.267968,0.259101 0.7102,0.25663 1.429352,-0.0078 1.003876,-0.369033 1.034464,-0.34668 0.840366,0.619662 -0.236045,1.17519 0.707851,10.429796 1.128282,11.061991 0.157922,0.23747 0.323299,0.757296 0.366838,1.155233 0.04354,0.397938 0.238445,1.537492 0.433336,2.532336 0.450472,2.29948 0.191202,3.60063 -0.826481,4.14753 -0.70688,0.37988 -3.706885,3.68483 -4.4400544,4.89155 -0.6028869,0.9923 -1.3877789,7.75279 -1.4534675,12.52035 -0.01808,1.31222 -0.1429486,2.55451 -0.2776861,2.76128 -0.1347365,0.20676 -1.0024459,0.62526 -1.9284566,0.92983 l -1.6836544,0.55394 0.1220365,4.15249 c 0.079116,2.696 -0.019315,4.23731 -0.2806092,4.39342 -0.660101,0.39448 -0.4599937,1.36449 0.4844885,2.34864 0.4878194,0.50832 1.5125891,1.81954 2.2777567,2.91387 0.9393857,1.3435 2.0002937,2.31621 3.2657335,2.99444 l 1.873651,1.00403 15.403538,-0.006 c 11.243289,-0.005 16.462525,-0.14674 19.325488,-0.52427 4.210094,-0.55517 6.041817,-0.40756 9.081063,0.73059 l 1.791805,0.67124 2.136723,-1.09022 c 2.419807,-1.23494 2.959064,-2.33979 1.508273,-3.09053 -0.900684,-0.46608 -1.215474,-0.52091 -5.170805,-0.89805 -1.612799,-0.15378 -2.904529,-0.52465 -3.834991,-1.10153 -2.09322,-1.29781 -1.804559,-1.661 1.122436,-1.41243 4.797753,0.40746 10.306587,0.39189 10.45488,-0.029 0.199943,-0.56739 -2.875666,-0.85903 -9.099332,-0.86272 -3.774397,-0.002 -5.393662,-0.13212 -5.663334,-0.45502 -0.207711,-0.24872 -0.495897,-1.14407 -0.640141,-1.98969 -0.30173,-1.76887 -0.476868,-1.71319 3.731955,-1.18915 2.815305,0.35052 7.802062,0.62352 17.023616,0.93125 10.604274,0.35389 19.01975,1.25509 20.504932,2.196 0.487646,0.30896 0.814581,0.63046 0.7271,0.71505 -0.08748,0.0846 -2.500999,-0.0967 -5.363733,-0.40345 -13.510195,-1.4471 -21.563413,-1.97051 -29.711679,-1.93175 -7.894226,0.0375 -5.480029,0.50025 5.394416,1.03442 4.749845,0.23326 9.393682,0.47897 10.319691,0.54547 0.92601,0.0665 4.63005,0.31091 8.2312,0.54333 6.14389,0.39656 13.125071,1.45665 11.368324,1.72616 -0.435349,0.0668 -3.297566,-0.0483 -6.360465,-0.25508 -14.269849,-0.96298 -19.594608,-1.23349 -19.827528,-1.00827 -0.138846,0.13426 -0.03961,0.49234 0.22069,0.7956 0.370561,0.43172 1.37687,0.5542 4.636628,0.56596 2.28983,0.008 8.372232,0.23333 13.516732,0.50025 5.1445,0.26691 9.48698,0.40916 9.650323,0.31583 0.370656,-0.21177 1.386972,0.57572 1.386972,1.07469 0,0.36107 -3.019293,0.31336 -20.484467,-0.32502 -3.716076,-0.13584 -6.451527,-0.0997 -6.448164,0.0861 0.01631,0.91945 0.968764,1.04904 8.038283,1.09094 6.49583,0.0385 18.935379,0.61265 20.84765,0.96235 0.354155,0.0648 0.775073,0.2532 0.935363,0.41899 0.316876,0.32775 -24.582171,-0.0315 -26.388216,-0.38084 -1.218675,-0.23566 -1.835232,0.27961 -1.069824,0.89381 1.005927,0.80722 28.148071,1.51045 28.934895,0.74967 0.283559,-0.27418 0.822286,-0.21207 1.852453,0.21267 0.79875,0.32933 1.78875,0.63905 2.20031,0.6889 1.18661,0.14377 3.55435,0.96428 3.55437,1.23155 2e-5,0.1338 -7.786891,0.21236 -17.304228,0.17452 -9.517337,-0.0378 -19.745527,-0.0788 -22.729337,-0.0905 -2.98381,-0.0118 -16.032131,-0.0124 -28.996269,-0.002 -13.886595,0.0113 -25.031533,-0.13441 -27.1255436,-0.3554 -1.9549105,-0.20631 -4.1951126,-0.37792 -4.9786187,-0.38154 l -1.4249681,-0.006 0.1154591,1.53749 0.1147278,1.53748 2.8060912,0.21903 c 1.5433493,0.12057 3.3111866,0.15646 3.9285263,0.0798 0.617341,-0.0766 2.385177,-0.222 3.928527,-0.32361 1.543351,-0.10161 3.227005,-0.27894 3.741454,-0.39355 0.514451,-0.11462 2.648284,-0.20208 4.741855,-0.19501 3.217119,0.0108 3.844324,-0.0809 4.049102,-0.5914 0.219784,-0.54792 0.29046,-0.53994 0.766559,0.0855 0.495973,0.65153 1.148649,0.68963 11.85281,0.69525 6.819269,0.004 11.863007,-0.14532 12.672714,-0.37377 0.835735,-0.23579 1.577445,-0.25317 1.959148,-0.0467 0.384333,0.20796 0.885655,0.19172 1.33947,-0.0432 0.43845,-0.22687 2.03142,-0.29297 4.027179,-0.16745 1.815918,0.11421 4.059186,0.18752 4.985196,0.16322 13.215014,-0.34696 22.300592,-0.46089 32.176517,-0.40416 2.778029,0.0159 7.323899,-0.008 10.101929,-0.0522 2.77801,-0.0446 6.14533,0.0376 7.4829,0.18299 5.68184,0.61751 6.86447,0.68452 13.18424,0.7426 5.51361,0.0507 6.67396,0.15261 6.85372,0.60341 0.18346,0.46 0.27229,0.44622 0.58388,-0.0905 0.41898,-0.72162 1.51754,-0.81861 2.64751,-0.23388 0.57924,0.29974 0.84211,0.28792 1.05595,-0.0467 0.17357,-0.27155 0.48347,-0.32664 0.79359,-0.14132 0.27978,0.1672 1.77162,0.32639 3.31543,0.354 1.54379,0.0276 3.354,0.16876 4.02279,0.31371 1.19614,0.25924 1.21598,0.24293 1.21598,-1.03088 v -1.29514 h -3.53173 c -2.79935,0 -4.06063,-0.18341 -6.07987,-0.88321 -1.40128,-0.48563 -3.6846,-1.15641 -5.07362,-1.49085 -2.44755,-0.5893 -3.35617,-1.24356 -1.72677,-1.24356 1.31464,0 9.93774,1.7994 11.34275,2.36701 0.71722,0.28975 1.77248,0.52399 2.34498,0.52073 l 1.0406,-0.006 -1.15898,-0.71787 c -1.1644,-0.72143 -6.33917,-1.89099 -10.346,-2.33803 -2.17661,-0.24285 -2.75043,-0.67871 -1.42788,-1.08458 1.05249,-0.32299 6.9832,0.45881 9.37848,1.2365 2.93001,0.95131 4.03993,1.15611 4.2749,0.78852 0.36436,-0.57006 -3.40585,-1.50357 -10.07415,-2.49488 -1.0289,-0.15295 -1.87074,-0.43732 -1.87074,-0.63168 0,-0.53282 3.05821,-0.64956 5.79926,-0.22115 1.33758,0.20905 3.35795,0.47359 4.48974,0.58716 1.9799,0.19866 2.01487,0.18709 0.92441,-0.29606 -1.38263,-0.61263 -5.47419,-1.32764 -7.59618,-1.32764 -1.13677,0 -1.55943,-0.14708 -1.55943,-0.54264 0,-0.72483 2.20245,-0.71398 6.69735,0.0325 1.90416,0.31626 3.55012,0.49024 3.65742,0.38649 0.23217,-0.22449 -3.60707,-1.37025 -3.9468,-1.17786 -0.42226,0.23916 -4.42415,-0.67912 -4.57597,-1.04995 -0.0814,-0.19897 0.40853,-0.4137 1.08956,-0.47693 1.27409,-0.11829 5.85445,0.46583 7.00791,0.89381 0.4575,0.16974 0.59662,0.091 0.4728,-0.26849 -0.0965,-0.28041 -0.41355,-0.53779 -0.70517,-0.57162 -3.12641,-0.36272 -6.32978,-1.0122 -6.32978,-1.28311 0,-0.20272 1.3315,-0.23666 3.33003,-0.0855 3.57938,0.27074 4.48601,0.0834 3.75096,-0.77299 -0.30898,-0.35996 -1.30249,-0.51013 -3.37096,-0.51013 h -2.93325 l 1.82032,-3.52718 c 2.36961,-4.59092 3.81794,-8.78641 4.3392,-12.57122 0.2102,-1.52629 -0.86922,-9.87127 -1.47392,-11.3955 -0.29757,-0.75005 -0.43513,-2.07721 -0.33835,-3.25585 0.10773,-1.31182 -0.16601,-3.468663 -0.80237,-6.330825 -1.34339,-6.042331 -1.36177,-6.106822 -1.86561,-6.51171 -0.2476,-0.198968 -1.44823,-1.98969 -2.66798,-3.979378 -2.50054,-4.078977 -5.43847,-7.147329 -7.7679,-8.11279 -0.86441,-0.358268 -1.78225,-0.896483 -2.03953,-1.196216 -1.05927,-1.234097 -8.31515,-4.145574 -11.53054,-4.626593 -1.21451,-0.181688 -2.86224,-0.486353 -3.66181,-0.676892 -1.54691,-0.368636 -6.81689,0.0028 -10.14504,0.715752 -2.03738,0.436339 -7.267928,2.341485 -8.839187,3.219116 -2.791649,1.559269 -8.819695,6.891225 -9.787703,8.657552 l -0.667911,1.218116 -0.838902,-0.762384 C 84.53434,83.049532 83.487326,82.476317 82.670065,82.195694 81.852804,81.915069 79.921705,81.12082 78.378355,80.43069 76.835006,79.740558 74.924981,78.970248 74.133414,78.718683 73.341845,78.46712 72.24747,78.036031 71.701468,77.760578 71.155466,77.485129 70.428363,77.258591 70.085773,77.257506 69.743184,77.256394 68.85305,76.451753 68.107627,75.469891 67.233188,74.318097 66.302991,73.541524 65.486415,73.280951 64.790318,73.058823 64.018725,72.642008 63.77207,72.354643 63.525419,72.067281 62.675431,71.64445 61.883073,71.414912 60.485384,71.009325 58.035603,68.664238 56.930027,66.673163 56.68137,66.225344 56.187815,65.442323 55.833167,64.932889 54.403508,62.879276 54.029497,60.671644 54.121014,54.825465 54.289899,44.036474 54.248975,43.512311 53.079689,41.56393 52.501615,40.600689 51.14545,38.985665 50.066796,37.975283 l -1.960611,-1.837073 1.807153,-1.832127 c 0.994122,-1.007777 2.146568,-1.936607 2.561286,-2.063878 0.437851,-0.134364 1.08935,-0.985137 1.553583,-2.028551 0.555449,-1.248439 1.015419,-1.796798 1.506811,-1.796798 2.008117,0 2.998495,-1.482858 3.073548,-4.603276 0.03881,-1.613729 -0.152759,-2.418548 -0.841098,-3.536362 -1.224345,-1.988269 -3.157712,-3.798498 -4.057138,-3.798498 -0.411182,0 -0.919995,-0.312256 -1.131206,-0.693849 -0.47713,-0.862016 -2.910062,-1.461969 -5.85333,-1.55939 z m -2.31941,3.707352 c -0.265661,0.05206 -0.380689,0.761784 -0.287186,2.041268 0.10475,1.433359 -0.02283,2.302312 -0.423836,2.894094 -0.863188,1.273788 -1.125258,1.042775 -1.313894,-1.156648 -0.190518,-2.221348 -0.752605,-3.125913 -1.495848,-2.40727 -0.354098,0.342376 -0.313369,0.665357 0.187073,1.484494 0.85839,1.405046 0.806013,3.121802 -0.139575,4.601158 -1.003474,1.569912 -1.23474,1.53724 -0.987247,-0.138487 0.249914,-1.692142 -0.495424,-4.250701 -1.238627,-4.250701 -0.373561,0 -0.504726,0.28925 -0.409951,0.904405 0.230025,1.492997 0.19124,4.68474 -0.05993,4.92759 -0.128946,0.12468 -0.826666,-0.110955 -1.549928,-0.523565 -1.415193,-0.807349 -2.013938,-0.523738 -1.283202,0.607647 0.89112,1.37968 5.061869,1.315951 6.017022,-0.09186 0.17468,-0.257467 0.485577,-0.100986 0.881284,0.442311 0.336499,0.461967 0.973021,0.980338 1.414008,1.152408 1.230829,0.480263 2.901318,0.425332 2.831667,-0.09327 -0.03337,-0.248712 -0.04124,-0.768304 -0.01679,-1.154529 0.04387,-0.695128 0.05034,-0.695128 0.580947,0 0.424179,0.555698 0.632892,0.609682 1.001134,0.258603 0.370569,-0.353315 0.337261,-0.579885 -0.16223,-1.113548 -0.778304,-0.831551 -0.808273,-1.300722 -0.06576,-1.025227 0.308671,0.114528 0.561218,0.07085 0.561218,-0.09751 0,-0.556647 -1.03627,-1.150799 -2.374947,-1.360846 -1.238811,-0.194377 -1.307384,-0.276018 -1.123896,-1.338942 0.410617,-2.378638 0.431026,-3.304067 0.08696,-3.92568 -0.2555,-0.461604 -0.469048,-0.667142 -0.628448,-0.63591 z m 32.771342,0.782168 c 0.126783,-0.03912 0.238528,-0.0315 0.303992,0.0318 0.130925,0.126594 0.307944,6.30196 0.393875,13.722923 0.08593,7.420962 0.192236,15.893737 0.236033,18.828569 0.07269,4.87015 0.02248,5.336054 -0.575103,5.335986 -0.360115,-4e-5 -0.660501,-0.0407 -0.667908,-0.09045 -0.0073,-0.04973 -0.133687,-5.788188 -0.28061,-12.752102 -0.395476,-18.744948 -0.352655,-24.301442 0.19365,-24.82943 0.126899,-0.122644 0.269283,-0.208183 0.396071,-0.247296 z m 69.390824,0.462093 c -0.0743,0.02867 -0.14403,0.07651 -0.21703,0.114464 0.0497,0.01678 0.0894,0.02408 0.14687,0.04805 0.008,-0.01974 0.0339,-0.08355 0.038,-0.09468 0.0111,-0.02242 0.0211,-0.04535 0.0322,-0.06783 z m -100.97177,5.26038 c 0.514451,0 1.039103,0.162792 1.166283,0.361761 0.130602,0.204327 -0.17614,0.361762 -0.704445,0.361762 -0.514451,0 -1.039103,-0.162791 -1.166283,-0.361762 -0.130602,-0.204325 0.176141,-0.361761 0.704445,-0.361761 z m 10.700412,1.16866 c 0.131424,-0.0035 0.268383,0.03006 0.398993,0.108104 0.268188,0.160265 0.253469,0.396489 -0.04604,0.745428 -0.565315,0.658618 -1.094667,0.652919 -1.094667,-0.01131 0,-0.486305 0.34745,-0.831657 0.741712,-0.842225 z m -12.34022,0.278387 c 0.548747,0 0.748291,0.241175 0.748291,0.904404 0,0.987467 -0.350448,1.14494 -1.0479,0.470573 -0.688498,-0.665709 -0.533838,-1.374977 0.299609,-1.374977 z m 9.648129,1.46471 c 0.530463,0.0019 0.490834,0.191109 0.226534,0.857066 -0.124905,0.314726 -0.335362,0.549955 -0.467682,0.522859 -0.132316,-0.0271 -0.629302,-0.120708 -1.104166,-0.208438 -1.220837,-0.225545 -0.806022,-0.985948 0.611637,-1.121319 0.316186,-0.03019 0.556855,-0.05082 0.733677,-0.05017 z m -1.978149,1.429384 c 0.308671,0 0.561219,0.162792 0.561219,0.361762 0,0.198969 -0.252548,0.361761 -0.561219,0.361761 -0.308668,0 -0.561217,-0.162792 -0.561217,-0.361761 0,-0.19897 0.252549,-0.361762 0.561217,-0.361762 z m 50.244378,0.07701 c -6.240924,-0.08856 -18.919954,0.211154 -20.499816,0.615419 -0.852737,0.218214 3.062453,0.294928 11.224363,0.219742 6.893635,-0.0635 12.575963,-0.131815 12.627413,-0.151912 0.0514,-0.02009 0.0935,-0.224492 0.0935,-0.454321 0,-0.126249 -1.36519,-0.199407 -3.44549,-0.228928 z m 44.07755,1.145343 c -0.013,0.0311 -0.0222,0.049 -0.0344,0.07701 0.0164,0.308578 0.0167,0.458301 0.0344,0.780755 -3.8e-4,-0.285918 3.7e-4,-0.571852 0,-0.857771 z m -94.773532,0.72211 c 0.06781,-0.02892 0.161642,-0.01627 0.264532,0.04522 0.205781,0.122969 0.374145,0.295216 0.374145,0.382959 0,0.08774 -0.168364,0.159683 -0.374145,0.159683 -0.205779,0 -0.374145,-0.172247 -0.374145,-0.382959 0,-0.105356 0.0418,-0.17599 0.109613,-0.204903 z m -2.217837,2.029258 c 0.3612,0.03026 0.602831,0.230073 0.464761,0.577971 -0.124909,0.314726 -0.227265,0.640312 -0.227265,0.723523 0,0.08321 -0.420913,0.151206 -0.935363,0.151206 -1.021271,0 -1.184133,-0.338848 -0.486681,-1.013216 0.342127,-0.330805 0.823351,-0.469741 1.184548,-0.439484 z m -14.283291,0.05016 c 0.901221,-0.04461 1.097902,0.150646 1.570388,0.847879 0.812452,1.198919 0.506427,1.632677 -0.518836,0.735535 -0.414082,-0.362336 -0.859204,-0.556222 -0.988707,-0.431005 -0.393542,0.380515 0.925432,2.010207 2.544478,3.144219 1.606821,1.125447 6.775984,3.617616 7.503371,3.617616 0.60447,0 -1.189939,-1.777482 -2.41806,-2.395257 -2.01456,-1.01337 -0.684189,-1.930712 1.403775,-0.967998 1.13244,0.522153 1.420731,0.533501 2.275564,0.09115 0.850361,-0.440036 1.035319,-0.43477 1.408893,0.03956 0.236538,0.300342 0.955907,0.902585 1.598154,1.338236 1.473505,0.999514 3.136592,4.233962 3.132738,6.092014 -0.0015,0.775465 0.0051,1.653787 0.01462,1.952239 0.0095,0.298454 0.08057,3.310121 0.157843,6.692593 0.100948,4.418739 0.30683,6.595293 0.732944,7.732657 0.326184,0.870634 0.593371,1.643901 0.593371,1.718369 0,0.388518 -0.937877,0.03241 -2.024186,-0.768743 -1.461404,-1.077773 -2.305371,-1.146058 -2.813397,-0.228222 -0.465953,0.84182 -0.152585,1.176402 0.871059,0.930549 0.534602,-0.128396 1.205448,0.170789 2.095798,0.93408 1.221304,1.047015 1.246507,1.11012 0.374145,0.939025 -2.36605,-0.464053 -4.863213,-0.649604 -4.860968,-0.361056 0.0015,0.17486 1.306291,0.708911 2.899627,1.18703 2.815912,0.844979 5.650887,2.541684 6.725118,4.024599 0.459073,0.633724 0.440343,0.746138 -0.157111,0.946095 -2.773136,0.928117 -3.744198,1.567633 -4.774739,3.144216 -0.606946,0.928512 -1.240173,1.687988 -1.406697,1.687988 -0.64184,0 -2.746396,-2.107773 -4.825163,-4.832913 -2.418547,-3.170571 -2.414592,-2.804207 -0.06285,-5.88004 1.291775,-1.689504 2.727,-5.352048 3.528075,-9.003063 0.859019,-3.915116 0.803841,-5.788188 -0.170996,-5.788188 -0.565168,0 -0.696214,0.378638 -0.814791,2.351451 -0.07774,1.293298 -0.321668,2.809493 -0.542215,3.369612 -0.220552,0.560116 -0.401185,1.493048 -0.401185,2.073065 0,1.880499 -1.924679,5.752273 -3.701993,7.4465 -1.9242,1.834226 -2.423527,1.970816 -2.139645,0.586448 0.607382,-2.961932 0.665096,-3.708058 0.287917,-3.708058 -0.219354,0 -0.505572,0.610473 -0.635756,1.356607 -0.383843,2.199967 -0.566317,2.622773 -1.131936,2.622773 -0.2948,0 -0.53564,0.162792 -0.53564,0.361762 0,0.468487 -2.129943,0.472793 -2.429024,0.005 -0.12547,-0.196299 -0.05723,-0.954317 0.151266,-1.684454 0.426953,-1.495117 0.266355,-2.002018 -0.540027,-1.702823 -0.333557,0.123752 -0.549524,0.686049 -0.549524,1.431503 0,1.366699 -0.07099,1.416547 -1.118051,0.784288 -0.517637,-0.312569 -0.851053,-0.330231 -1.131207,-0.05935 -0.226934,0.219423 -0.992889,0.291034 -1.78669,0.166751 -1.343051,-0.210275 -1.397313,-0.278072 -1.636886,-2.021485 -0.46233,-3.364435 -0.313921,-7.579054 0.395337,-11.208963 1.190234,-6.091504 1.304866,-12.747548 0.225072,-13.078535 -0.205036,-0.06284 -0.609782,0.03126 -0.899556,0.208436 -0.44801,0.273941 -0.43401,0.511314 0.09354,1.58624 0.689759,1.405444 0.77442,2.349363 0.278417,3.106769 -0.256821,0.392168 -0.455548,0.27102 -0.890788,-0.542642 -0.800174,-1.495896 -3.580848,-3.592733 -4.099523,-3.091225 -0.290565,0.280947 -0.229038,0.457139 0.218495,0.623191 0.343005,0.12724 0.624048,0.430158 0.624048,0.672639 0,0.242486 0.436365,0.835381 0.96971,1.317747 0.533345,0.482362 1.137739,1.178135 1.343123,1.546671 0.660071,1.184423 1.075517,5.221275 0.704445,6.845214 -0.754023,3.299874 -1.039589,8.339487 -0.690561,12.191089 0.154559,1.70559 0.09993,2.872778 -0.147612,3.161175 -0.582481,0.678614 -0.07879,1.551585 0.895902,1.553032 0.949071,0.0015 3.285465,1.252593 3.285465,1.759349 0,0.17845 -0.631371,0.106589 -1.403044,-0.159686 -1.654555,-0.570918 -5.561073,-0.672999 -5.892791,-0.15403 -0.474801,0.742816 0.206757,0.993755 1.804959,0.664173 1.330048,-0.274282 2.014855,-0.196357 3.739261,0.427471 2.839073,1.027074 3.174403,1.618881 0.760714,1.342477 -1.020918,-0.116912 -2.094982,-0.07042 -2.386638,0.103861 -0.666643,0.398384 -0.31014,0.534873 2.779784,1.061264 2.259046,0.384846 4.498221,1.452137 6.551927,3.123021 0.635947,0.517403 1.072048,1.072421 0.968982,1.233666 -0.374898,0.586521 -4.167067,2.785311 -6.131018,3.554732 -1.107787,0.434002 -2.136422,0.789234 -2.285795,0.789234 -0.14937,0 -1.179405,-0.463721 -2.288718,-1.03088 -1.109312,-0.567163 -2.442503,-1.131568 -2.96247,-1.253446 -1.318935,-0.309144 -3.801274,-2.463084 -4.513861,-3.916495 -0.576728,-1.176316 -2.218311,-6.97964 -2.390292,-8.45053 -0.04653,-0.397938 -0.261861,-1.374695 -0.477912,-2.170571 -0.216053,-0.795875 -0.42843,-3.888938 -0.472067,-6.873473 -0.04364,-2.984534 -0.08817,-5.996201 -0.09939,-6.692592 -0.01122,-0.696391 0.172432,-1.998734 0.40849,-2.894094 0.236059,-0.895361 0.649156,-2.523289 0.917826,-3.617618 0.834581,-3.399362 2.465816,-6.086645 4.633703,-7.635152 1.066722,-0.761947 2.407596,-1.805305 2.980011,-2.318243 1.104827,-0.990029 2.956823,-1.909002 3.887604,-1.928924 0.30867,-0.0066 1.496827,-0.12248 2.64021,-0.257897 0.493437,-0.05845 0.87172,-0.100299 1.172128,-0.11517 z m 70.60095,1.743804 c 0.38258,-0.118276 0.54952,0.284564 0.63503,1.52901 l 0.11619,1.689397 -2.69283,0.20208 c -1.48126,0.111249 -6.145046,0.369866 -10.363533,0.574437 -4.218494,0.204577 -8.974818,0.455408 -10.569613,0.558189 -1.594796,0.102779 -2.908263,0.06132 -2.918626,-0.09257 -0.01033,-0.153883 -0.08138,-0.980621 -0.157844,-1.837074 -0.121773,-1.36388 -0.02978,-1.597257 0.741717,-1.880878 0.495919,-0.182307 1.363225,-0.190004 1.984721,-0.01767 0.609583,0.169038 2.506058,0.162738 4.234713,-0.01413 1.721774,-0.176171 6.582041,-0.372093 10.800528,-0.435244 4.218497,-0.06315 7.903917,-0.187255 8.189547,-0.275562 z m 0.47499,4.365873 -0.25941,3.09193 c -0.14244,1.700504 -0.2854,5.320962 -0.31788,8.045669 l -0.0591,4.954438 -2.04976,0.251537 c -1.12743,0.138294 -6.427258,0.426712 -11.777546,0.641563 -5.350277,0.214846 -10.185591,0.486941 -10.744987,0.604112 -0.926172,0.193995 -1.013691,0.120601 -0.981403,-0.821734 0.0195,-0.56916 -0.09019,-4.146796 -0.24407,-7.950278 -0.190695,-4.713728 -0.155555,-6.989975 0.111806,-7.149744 0.215737,-0.128918 4.267319,-0.304908 9.002877,-0.390729 4.735553,-0.08583 9.251343,-0.311081 10.03543,-0.500956 0.784087,-0.189871 2.743513,-0.442037 4.354553,-0.560308 z m -62.51444,2.889853 c -1.022531,0 -2.46512,3.154306 -2.97782,6.511713 -0.227884,1.492266 -0.566358,3.527175 -0.752676,4.52202 -0.303315,1.619564 -0.246205,3.116473 0.169537,4.431582 0.07863,0.248711 0.377831,0.452202 0.664255,0.452202 0.403086,0 0.562778,-0.920589 0.706637,-4.072644 0.186728,-4.091255 1.25253,-8.379231 2.411483,-9.702563 0.767043,-0.875839 0.635964,-2.14231 -0.221416,-2.14231 z m -9.751897,9.948457 c -0.362937,0 -0.710832,0.63352 -0.993093,1.808808 -0.844797,3.517606 -0.449317,6.988419 0.917095,8.045665 0.318784,0.246652 0.467096,0.55734 0.329569,0.690317 -0.137528,0.132976 -0.05666,0.46715 0.179766,0.742599 0.659566,0.768425 1.079619,0.07146 1.321203,-2.191766 0.1844,-1.727539 0.124477,-2.04127 -0.388764,-2.04127 -0.334829,0 -0.711477,0.405058 -0.841096,0.904405 -0.442124,1.703261 -0.90197,0.90502 -0.885671,-1.537488 0.01419,-2.125693 0.244474,-3.867772 0.776059,-5.878629 0.07983,-0.301969 -0.104231,-0.542641 -0.415068,-0.542641 z m 107.701267,9.817027 c 0.004,0.05483 0.006,0.109809 0.019,0.16251 0.0232,0.0962 0.0586,0.189205 0.0899,0.283332 0.0101,-0.02796 0.0172,-0.06224 0.0271,-0.08903 -0.0399,-0.106905 -0.0902,-0.235565 -0.13592,-0.356817 z M 38.711629,62.422462 c -0.20186,0 -0.366838,0.651171 -0.366838,1.447047 0,1.431697 0.570422,1.953974 0.987245,0.903698 0.282338,-0.7114 -0.150301,-2.350745 -0.620407,-2.350745 z m -7.661213,4.01471 c 0.177817,-0.01411 0.522974,0.114674 1.190396,0.373772 0.579292,0.224885 2.063207,0.591697 3.297887,0.815378 l 2.244874,0.406981 0.111805,2.494883 c 0.06155,1.372173 -0.03513,2.636958 -0.214841,2.810719 -0.345546,0.334109 -3.451347,-2.71788 -3.451347,-3.391517 0,-0.528454 -1.672923,-1.98932 -2.606594,-2.275846 -0.418192,-0.128335 -0.760714,-0.466742 -0.760714,-0.751788 0,-0.312049 0.01072,-0.468479 0.188534,-0.482582 z M 16.95931,67.487127 c 0.377956,0 1.176898,2.448175 1.194051,3.659303 0.0067,0.474339 0.326448,1.743597 0.711022,2.820612 l 0.69933,1.958601 -2.488213,2.389606 c -1.368747,1.314259 -2.912622,2.745465 -3.430153,3.180254 l -0.940479,0.78994 -1.491466,-0.806194 C 9.9707124,80.807336 9.7039566,80.461068 9.6108607,79.397709 9.501109,78.1441 9.9919433,77.401555 11.932462,75.883957 c 0.328053,-0.256555 0.596294,-0.948424 0.596294,-1.537488 0,-0.58906 0.168366,-1.071155 0.374146,-1.071155 0.20578,0 0.374146,-0.206431 0.374146,-0.458562 0,-0.252126 0.757645,-1.295414 1.683654,-2.318946 0.92601,-1.02353 1.683654,-2.120152 1.683654,-2.436241 0,-0.316094 0.141747,-0.574438 0.314954,-0.574438 z m 23.338052,0.428886 c 0.927405,0.131508 1.127188,0.709765 2.005917,5.791013 0.333737,1.929829 0.548019,3.67865 0.475718,3.88682 -0.179971,0.518186 -2.069484,-0.662549 -3.681531,-2.300581 -1.01968,-1.036097 -1.192588,-1.393401 -0.790674,-1.633579 0.294487,-0.175979 0.581138,-1.135498 0.670832,-2.24476 0.258662,-3.1989 0.420285,-3.626455 1.319738,-3.498913 z m 2.645324,0.792765 c 0.08384,-0.08108 0.754943,0.791025 1.490738,1.938113 0.735798,1.147071 2.231676,2.964884 3.324925,4.039435 1.81675,1.785671 1.988273,2.096847 1.992762,3.617618 0.0056,1.928998 0.37061,2.087163 3.844491,1.667498 2.60853,-0.315128 2.203469,-0.694443 -0.761446,-0.712928 -1.816911,-0.01133 -2.339213,-0.139 -2.431945,-0.594222 -0.238455,-1.17055 7.925638,-1.96038 9.362405,-0.905816 1.10909,0.814051 0.758848,1.304785 -0.935364,1.310677 -0.874565,0.0028 -1.842666,0.168617 -2.151336,0.368122 -0.474079,0.306416 -0.397896,0.502035 0.488873,1.260515 0.964708,0.825143 1.344724,0.898044 4.695088,0.898044 2.070064,0 3.817255,-0.165853 4.042525,-0.383665 0.279554,-0.270301 0.937529,-0.03499 2.226603,0.796299 1.837974,1.185233 6.51153,4.68396 7.645134,5.723186 0.334082,0.306264 1.813813,1.502241 3.288387,2.658099 1.474574,1.155858 2.681133,2.223496 2.681133,2.372651 0,0.149155 -0.215979,0.557267 -0.480103,0.906527 -0.456361,0.603448 -0.526083,0.601396 -1.403045,-0.04381 C 79.35496,93.251705 76.725567,91.774829 74.01941,90.343128 68.64391,87.499206 59.553658,84.3227 53.49768,83.172188 50.542305,82.610727 50.090753,82.412931 48.882245,81.149998 48.145526,80.380104 46.736427,79.155487 45.75024,78.428305 44.270651,77.3373 43.956972,76.904406 43.956972,75.953912 c 0,-0.633523 -0.262336,-2.489769 -0.583139,-4.124933 -0.320804,-1.635159 -0.514993,-3.039124 -0.431147,-3.120195 z m 14.877395,2.860179 c 0.686647,0.02843 1.443711,0.240365 2.344257,0.624607 4.82,2.056571 5.834345,2.607166 6.437201,3.496793 l 0.643793,0.949624 -1.401582,-0.219741 c -0.770804,-0.120944 -1.675708,-0.45472 -2.010302,-0.741894 -0.334592,-0.287171 -1.397867,-0.945504 -2.363256,-1.462592 -1.273333,-0.682032 -1.831079,-0.821831 -2.030761,-0.509433 -0.15139,0.236849 -0.09318,0.48929 0.129342,0.561013 0.222527,0.07172 0.883964,0.529098 1.469546,1.01604 0.585583,0.486947 1.248273,0.885086 1.472464,0.885329 0.224196,2.43e-4 0.610706,0.432529 0.859367,0.960221 0.248661,0.527687 0.31838,1.080097 0.15419,1.228014 -0.518944,0.467501 -1.979109,-0.322315 -2.353023,-1.273235 -0.197694,-0.502761 -0.489483,-0.920756 -0.648911,-0.928425 -0.159428,-0.0077 -1.6126,-0.05605 -3.229196,-0.107401 -2.684501,-0.08527 -2.981965,-0.169289 -3.427962,-0.97506 -0.448507,-0.810302 -0.385089,-0.979186 0.776789,-2.070238 1.085573,-1.019398 2.033638,-1.481013 3.178044,-1.433622 z m 54.708539,0.710808 c 4.30314,0.118506 8.82795,1.137957 12.76699,2.957684 2.03689,0.940989 3.94334,1.942548 4.23617,2.225681 0.29283,0.283137 0.67854,0.515087 0.8579,0.515087 0.6965,0 7.43308,5.919413 7.4661,6.560467 0.007,0.12623 1.19912,2.399504 2.65045,5.051944 1.49544,2.733074 2.96268,5.991529 3.38631,7.519983 0.41111,1.48336 0.69688,3.186199 0.63502,3.784359 -0.10391,1.0046 -0.26654,0.84141 -2.13161,-2.141592 -2.82077,-4.51161 -5.59974,-7.707658 -8.55126,-9.833987 -1.38852,-1.000301 -2.99616,-2.243716 -3.57266,-2.762674 -0.57649,-0.518958 -1.13941,-0.943264 -1.25032,-0.943264 -0.11091,0 -1.06989,-0.709845 -2.13159,-1.577763 -4.55799,-3.72598 -13.71589,-5.631201 -20.2521,-4.213251 -4.05313,0.879277 -8.463159,3.597716 -13.379353,8.247746 l -2.144029,2.02784 -2.020531,-2.000995 c -2.015554,-1.996078 -2.019144,-2.003245 -1.346772,-2.865124 0.370733,-0.475231 0.588786,-0.997714 0.484487,-1.160886 -0.37057,-0.579756 6.592033,-6.411913 8.385393,-7.023974 0.360674,-0.123097 1.00816,-0.530122 1.439575,-0.904404 1.060745,-0.920253 4.16603,-2.041609 8.00832,-2.89268 1.46638,-0.324803 3.0263,-0.511588 4.63517,-0.565253 0.60333,-0.02011 1.21361,-0.02189 1.82834,-0.005 z m -59.760231,3.014209 c 0.397058,-0.01849 0.658442,0.400933 0.355145,0.875434 -0.284934,0.445771 -1.309509,0.480652 -1.309509,0.04451 0,-0.174604 0.237258,-0.508195 0.527606,-0.741188 0.146579,-0.117622 0.294407,-0.172604 0.426758,-0.17876 z m 12.244492,1.96072 c 1.062169,0 2.515252,0.952284 2.515252,1.648418 0,0.880648 -2.060205,0.530191 -2.899627,-0.493182 -0.683492,-0.833276 -0.576363,-1.155236 0.384375,-1.155236 z m -44.591995,0.01624 c 0.07102,0.0011 0.134919,0.02799 0.190726,0.08196 0.134092,0.129653 -0.03041,1.045402 -0.365376,2.03562 -0.676117,1.998737 -0.747293,2.56908 -0.322262,2.56908 0.15748,0 0.585277,-0.813965 0.95071,-1.80881 0.365433,-0.994844 0.783646,-1.803833 0.929517,-1.797504 0.671661,0.02912 1.683621,1.128358 1.774269,1.926806 0.05516,0.485886 0.596784,1.916679 1.203549,3.180255 0.606765,1.263573 1.389169,2.908224 1.73846,3.654357 0.669036,1.429148 0.738336,1.461623 2.900359,1.366499 1.370132,-0.06029 2.178649,0.453858 1.423507,0.905112 -0.222217,0.132792 -1.065832,1.550059 -1.874382,3.149871 -0.80855,1.599815 -1.664592,3.13651 -1.90288,3.414132 -0.329778,0.384203 -0.319583,0.710611 0.04385,1.367199 0.875707,1.582113 -0.353152,7.459389 -1.899228,9.084319 -0.390832,0.41076 -0.710291,1.15903 -0.710291,1.66255 0,1.27598 -1.981649,2.73662 -4.861698,3.5837 -0.923175,0.27153 -0.923684,0.27604 -0.07016,0.30664 0.714775,0.0257 0.825368,0.17404 0.63064,0.84506 -0.348452,1.20074 -4.470627,9.00534 -6.735348,12.7521 -1.082399,1.79072 -2.084283,3.62214 -2.225874,4.06983 -0.141588,0.44766 -0.410586,0.81395 -0.597754,0.81395 -0.628084,0 -1.4727064,-1.65985 -1.7150775,-3.36961 -0.1956719,-1.38033 -0.1344197,-1.69507 0.3310307,-1.69507 0.6763712,0 1.1358288,-1.36278 1.2196258,-3.6176 0.101144,-2.72163 1.257271,-11.05003 1.685116,-12.1381 0.220999,-0.56202 0.730784,-1.24481 1.132668,-1.51699 0.401883,-0.27217 0.730752,-0.71682 0.730752,-0.98849 0,-0.27167 0.715554,-1.0864 1.590119,-1.81022 0.874564,-0.72382 1.592821,-1.42844 1.595964,-1.56576 0.0031,-0.1373 0.130876,-0.43922 0.283531,-0.67123 0.152656,-0.23201 0.104189,-0.86226 -0.10742,-1.40041 -0.211609,-0.53815 -0.555846,-2.057662 -0.765098,-3.376674 -0.209253,-1.319003 -0.447512,-2.805065 -0.529065,-3.302491 -0.08156,-0.497418 -0.263065,-3.264898 -0.403376,-6.149947 -0.161497,-3.320649 -0.436486,-5.527033 -0.749752,-6.012876 -0.440833,-0.68369 -0.383175,-0.871285 0.531258,-1.718368 1.338826,-1.240221 1.663341,-1.200412 1.352623,0.167457 -0.210479,0.926587 -0.147209,1.097475 0.371222,0.994844 0.375034,-0.07424 0.89705,-0.898331 1.30147,-2.056109 0.597669,-1.711014 1.426971,-2.943023 1.924072,-2.935075 z m 48.229683,0.811145 2.941281,1.00615 c 4.294938,1.469552 9.147074,3.733135 11.66866,5.443381 l 2.206875,1.496508 -0.677406,0.832334 c -0.372341,0.457676 -0.978779,1.617103 -1.348244,2.576847 -0.907516,2.357392 -1.042233,2.443653 -2.093605,1.341062 -1.297537,-1.360742 -11.555556,-9.320864 -12.89121,-10.00356 -0.946584,-0.483835 -1.016382,-0.607613 -0.461105,-0.817497 0.360116,-0.136113 0.654754,-0.613653 0.654754,-1.061261 z m -26.345098,0.78782 c 1.064497,0.03495 2.123559,0.541119 3.96287,1.682333 1.935903,1.20115 2.321794,1.882054 0.962403,1.699292 -0.760652,-0.10227 -0.830976,0.0186 -0.73075,1.252741 0.06099,0.751202 0.439822,2.107425 0.841826,3.01421 0.919287,2.073658 0.916373,2.418301 -0.01755,2.13171 -0.531032,-0.162963 -0.748291,-0.06536 -0.748291,0.337031 0,0.717059 -0.518228,0.728589 -1.122436,0.02475 -0.256174,-0.298454 -0.613748,-0.542642 -0.79433,-0.542642 -0.180584,0 -0.328106,0.244188 -0.328106,0.542642 0,0.786605 -1.405635,0.667154 -1.671233,-0.14202 -0.1236,-0.37654 -0.756661,-0.898131 -1.407431,-1.158767 -1.332331,-0.533706 -3.655946,-2.389859 -3.655946,-2.920958 0,-0.191636 -0.43769,-0.90316 -0.972632,-1.581297 l -0.972631,-1.232961 1.346778,-0.768744 c 0.740721,-0.422575 1.346778,-0.882392 1.346778,-1.022401 0,-0.140012 0.841119,-0.547632 1.869264,-0.90511 0.811951,-0.282311 1.452717,-0.430768 2.091416,-0.40981 z M 7.945475,79.450696 c 0.463005,-0.01399 0.8418268,0.137357 0.8418268,0.336326 0,0.19897 -0.042094,0.350312 -0.09354,0.336327 C 8.6423168,80.109391 8.2634949,79.958023 7.8519346,79.787022 7.1379321,79.490359 7.142218,79.47497 7.945475,79.450696 Z m 55.860932,0.02334 c 0.318302,0.03901 0.728563,0.375829 0.728563,0.695949 0,0.187228 -0.15859,0.340567 -0.352225,0.340567 -0.441438,0 -0.913258,-0.705327 -0.645254,-0.964464 0.067,-0.06478 0.16282,-0.0851 0.268916,-0.07207 z m -2.922277,0.01907 c 0.798819,0.07467 1.254858,0.329185 1.336545,0.746134 0.140439,0.716809 -0.831576,0.841151 -1.894842,0.242351 -1.05027,-0.591477 -0.756488,-1.111368 0.558297,-0.988485 z m -2.375678,0.05582 c 0.484391,-0.01183 0.788482,0.276542 0.788482,0.80195 0,0.650567 -0.406052,0.662067 -1.290509,0.03674 -0.641619,-0.453635 -0.644272,-0.499281 -0.038,-0.724232 0.197022,-0.0731 0.378562,-0.110515 0.540027,-0.114462 z m 54.039908,0.80195 c 4.93532,0.03959 10.68792,1.249196 12.58501,2.930129 0.78565,0.696124 -0.0259,0.605846 -2.55397,-0.283332 -3.98533,-1.401772 -7.09015,-1.839652 -11.27625,-1.590477 -2.16069,0.128613 -4.68403,0.371496 -5.60707,0.539813 -2.85378,0.520384 -0.76229,-0.559827 2.36252,-1.220238 1.29042,-0.272721 2.84467,-0.389089 4.48976,-0.375895 z M 25.007822,80.98537 c 0.105893,-0.10239 0.834876,0.148963 1.620078,0.558187 2.069282,1.078456 4.049715,1.486262 6.082786,1.253448 1.716916,-0.196615 1.82498,-0.153438 2.841169,1.134744 1.162859,1.474125 1.119166,1.566002 -1.217436,2.571902 -0.662175,0.285066 -2.210297,0.518618 -3.441114,0.518618 -2.087077,0 -2.300252,-0.07922 -3.156121,-1.175725 -1.276034,-1.634816 -2.961466,-4.636755 -2.729362,-4.861174 z m 78.775878,1.04077 c 0.0231,0.05832 -0.1511,0.195612 -0.50276,0.463508 -0.87942,0.669964 -1.44966,0.716397 -1.24008,0.101036 0.0847,-0.24871 0.56199,-0.49765 1.06032,-0.553241 0.43872,-0.04895 0.65935,-0.06972 0.68252,-0.01129 z m 9.43694,0.794184 c 1.175,0.03898 2.53856,0.132263 4.18941,0.270612 3.30397,0.276888 4.50617,0.548477 6.53805,1.476721 4.75982,2.174467 11.26208,6.702719 13.13382,9.147199 3.06212,3.999133 4.48755,6.148827 5.53472,8.345954 1.41808,2.97536 2.73374,7.09557 2.73374,8.56075 0,0.57647 0.14878,1.32249 0.33104,1.6576 0.47074,0.86556 -0.23298,8.26282 -0.95291,10.01486 -1.05508,2.5677 -3.18935,6.96345 -4.61617,9.50755 -0.82889,1.47799 -6.88706,7.09155 -8.51107,7.88669 -0.77219,0.37809 -1.65632,0.85942 -1.96499,1.06975 -0.79541,0.54197 -6.24497,2.59083 -8.1289,3.05589 -1.41146,0.34845 -8.18827,0.39349 -11.13959,0.0742 -3.10979,-0.33644 -7.81989,-1.63247 -10.663145,-2.93366 -4.616154,-2.11253 -10.95541,-7.52062 -14.144458,-12.06744 -1.117904,-1.59387 -2.317946,-4.72734 -2.317946,-6.05174 0,-0.42337 -0.205792,-1.1255 -0.457452,-1.56009 -0.251663,-0.43461 -0.488144,-1.11553 -0.525409,-1.51347 -0.03726,-0.39793 -0.268966,-2.18866 -0.514451,-3.97938 -0.61945,-4.51869 -0.489214,-7.30258 0.417989,-8.94159 0.307741,-0.55599 1.435643,-3.75054 1.632504,-4.62446 0.0224,-0.0995 0.622301,-1.13148 1.333618,-2.293503 0.711327,-1.162042 1.602708,-2.627169 1.980342,-3.255857 0.377644,-0.628687 1.411598,-1.875795 2.298222,-2.77116 0.886615,-0.895358 1.722922,-1.986423 1.858298,-2.424223 0.135385,-0.437801 0.82644,-1.142412 1.536044,-1.566459 0.709604,-0.424042 1.290512,-0.883494 1.290512,-1.020989 0,-0.292191 2.055839,-1.347309 3.273775,-1.680213 0.46301,-0.126552 0.841831,-0.39135 0.841831,-0.587863 0,-0.480275 3.905056,-2.126055 5.044386,-2.126055 0.4989,0 1.29354,-0.148324 1.76622,-0.329262 2.84356,-1.088454 4.67698,-1.457296 8.20197,-1.340351 z m -64.895228,0.638028 c 1.868961,0.08069 8.423753,1.512669 11.032904,2.478631 1.612433,0.596955 4.320796,1.594669 6.018482,2.217206 6.264612,2.29722 13.41248,6.248212 18.496813,10.224002 0.03868,0.03026 -0.535376,1.801599 -1.275895,3.936279 -0.740521,2.13467 -1.445448,3.88066 -1.566735,3.88046 -0.121282,-2e-4 -0.711833,-0.85486 -1.311701,-1.89925 C 76.94898,99.472524 73.043595,96.128851 65.948978,92.504515 61.880745,90.42623 58.577588,89.271766 51.814025,87.564911 L 48.633789,86.76225 48.124455,85.244547 c -0.280288,-0.834696 -0.410083,-1.614379 -0.287918,-1.732498 0.05059,-0.04891 0.22188,-0.06523 0.488875,-0.0537 z m -11.510086,3.202156 c 0.406691,0 1.211512,0.407238 1.788883,0.905109 1.023893,0.882912 1.03209,0.918571 0.32372,1.447048 -0.399445,0.298005 -1.157089,0.534477 -1.683654,0.525686 C 36.318587,89.522895 33.4809,88.28751 33.4809,87.89982 c 0,-0.302787 2.519593,-1.239315 3.334426,-1.239315 z m 49.233005,0.02193 2.357411,2.212256 2.357401,2.212259 -2.109678,2.027136 c -1.160055,1.115195 -2.434516,2.638323 -2.832393,3.384458 -0.397888,0.746136 -0.782739,1.356599 -0.854982,1.356599 -0.07227,0 -0.811154,-0.610463 -1.642006,-1.356599 l -1.510466,-1.356608 2.117724,-4.239401 z m -34.979674,1.546657 c 0.325858,0.03339 0.685965,0.166426 1.178703,0.409808 0.687598,0.339633 1.923782,0.83364 2.746902,1.098006 0.82312,0.26436 2.67514,0.910213 4.1156,1.435032 1.440459,0.524819 3.177226,1.11869 3.859837,1.319866 0.682605,0.201171 2.079373,0.844105 3.103506,1.427975 1.024133,0.58386 1.998289,1.061255 2.164488,1.061255 0.166199,0 1.463271,0.996023 2.88282,2.212971 1.419541,1.21694 3.143057,2.630882 3.829877,3.142092 0.686817,0.51121 2.171385,2.28441 3.299348,3.94051 l 2.051223,3.01067 -0.466953,2.07732 c -0.596407,2.6552 -0.444301,9.03701 0.282072,11.84416 0.743027,2.87152 2.790171,6.95927 4.444437,8.87376 0.73292,0.84822 1.510019,1.86234 1.72677,2.25395 0.370532,0.66943 0.296891,0.69994 -1.232051,0.50518 -1.780354,-0.22676 -22.118708,-1.40528 -23.326356,-1.35165 -0.628711,0.0279 -3.45688,-0.22342 -10.101928,-0.89663 -0.617339,-0.0626 -1.680601,-0.12368 -2.363256,-0.13637 -1.036483,-0.0193 -1.205196,-0.1343 -1.020129,-0.69808 0.121885,-0.37132 0.03779,-2.20274 -0.187072,-4.06982 -0.224855,-1.86719 -0.470163,-4.04625 -0.545142,-4.84212 -0.07497,-0.79587 -0.4042,-2.5866 -0.731485,-3.97938 -1.274192,-5.42238 -1.381901,-6.34707 -1.011359,-8.64838 0.275129,-1.70869 0.234114,-2.80011 -0.167344,-4.48033 -0.38201,-1.59883 -0.432082,-2.65526 -0.179031,-3.77093 0.62673,-2.763174 0.05266,-7.061097 -1.07494,-8.047784 -0.794471,-0.695187 -1.318784,-0.228625 -0.962403,0.857065 0.320347,0.975943 0.34833,9.273319 0.03289,9.766859 -0.144825,0.22657 0.01957,1.23589 0.365379,2.24264 0.497539,1.44836 0.562954,2.33356 0.314222,4.24221 -0.339255,2.60327 -0.338639,2.61528 0.208265,5.30632 0.461538,2.271 1.322282,6.78912 2.274104,11.93814 0.404582,2.18866 0.847226,5.648 0.983591,7.68744 0.221999,3.32009 0.182366,3.70805 -0.377798,3.70805 -0.722707,0 -3.551721,-4.03165 -3.858374,-5.49849 -0.112239,-0.53689 -0.664553,-1.47391 -1.226935,-2.08297 -0.562381,-0.60906 -1.282248,-1.63531 -1.599618,-2.28009 -1.218568,-2.47569 -2.49379,-5.55814 -2.730094,-6.59861 -0.135564,-0.59691 -0.336263,-1.49227 -0.445757,-1.98969 -0.253969,-1.15378 -0.237024,-3.24647 0.02852,-3.50315 0.112027,-0.10832 0.810972,0.16572 1.55285,0.60906 0.741878,0.44332 1.442832,0.71543 1.557234,0.60481 0.114402,-0.1106 -0.451065,-0.98355 -1.256163,-1.94023 -1.672542,-1.98742 -1.941908,-2.52528 -3.138583,-6.26158 -0.477948,-1.49227 -1.072783,-3.0388 -1.321933,-3.43674 -0.24915,-0.39793 -0.911712,-2.02587 -1.472467,-3.61761 -1.19746,-3.399101 -2.6839,-6.612742 -3.47473,-7.512911 -0.507512,-0.577679 -0.469723,-0.73463 0.390954,-1.62793 0.523879,-0.543735 1.11391,-1.476863 1.31097,-2.07377 0.438093,-1.327011 1.402635,-1.568925 2.480906,-0.621778 1.479134,1.299267 4.255311,1.209275 5.934442,-0.192892 0.565599,-0.472305 0.748381,-0.446794 1.640541,0.231752 0.739948,0.562779 1.534929,0.763799 3.023126,0.763799 2.120101,0 4.614702,-0.776507 4.614702,-1.436447 0,-0.213389 0.405379,-0.566643 0.901016,-0.784995 0.355174,-0.156477 0.646778,-0.222763 0.972632,-0.18936 z M 107.95703,90.4357 c -0.5866,0.02496 -1.18472,0.09155 -1.72092,0.207731 -7.53817,1.633426 -14.528915,9.33223 -15.94503,17.559559 -0.473749,2.75238 -0.559432,8.7909 -0.139569,9.84883 0.296805,0.74786 1.147709,0.29931 1.052283,-0.55466 -0.07542,-0.67499 0.177892,-0.75332 2.993162,-0.93266 1.691558,-0.10776 3.917567,-0.3528 4.946469,-0.54407 4.371245,-0.81254 6.596495,-1.15695 8.097465,-1.25415 l 1.5967,-0.10385 0.39096,-1.93811 c 0.50183,-2.48799 1.54862,-3.30355 4.35309,-3.39081 2.33916,-0.0728 2.16084,0.69583 1.48635,-6.39371 -1.07909,-11.342403 -1.25869,-12.273047 -2.37203,-12.294252 -0.38538,-0.0074 -0.009,3.882604 0.88057,9.096337 0.39584,2.320165 0.71979,5.187675 0.71979,6.371795 v 2.15291 l -2.09141,0.23741 c -1.97656,0.22461 -2.13593,0.18288 -2.89088,-0.7638 -0.91576,-1.14837 -2.14695,-2.34195 -4.0184,-3.89601 -0.71881,-0.5969 -2.39733,-1.99368 -3.72975,-3.10394 -1.33245,-1.110252 -2.801277,-2.326818 -3.264286,-2.70331 -0.463,-0.376609 -0.841821,-0.808695 -0.841821,-0.96095 0,-0.768505 9.851507,-5.712589 11.382937,-5.712589 0.89937,0 0.96434,0.114759 0.97043,1.71837 0.004,0.945104 0.25184,3.166169 0.55172,4.935364 0.29989,1.769194 0.65843,4.663875 0.79653,6.432575 0.13808,1.76869 0.37705,3.29087 0.53126,3.38302 0.66138,0.39524 0.70394,-1.30149 0.14834,-5.92737 -1.19181,-9.9229 -1.22708,-10.35555 -0.8718,-10.769473 0.4065,-0.473587 -1.25234,-0.775115 -3.01216,-0.700205 z m 8.25312,0.390023 c -0.46684,-0.0123 -0.79623,0.03574 -0.92148,0.15686 -0.20611,0.199287 0.23421,0.425399 1.11002,0.570199 2.79808,0.462616 10.61856,3.378269 10.61856,3.958887 0,0.309058 -3.13009,4.18362 -5.85478,7.247241 -1.41565,1.59175 -3.20506,3.73276 -3.97676,4.75801 l -1.40304,1.86393 1.62957,1.39192 c 1.90173,1.62398 2.23981,2.76812 1.51047,5.1113 -0.66367,2.13225 -1.77541,3.26692 -3.47035,3.54202 -0.73876,0.1199 -1.62837,0.29318 -1.97668,0.38508 -0.71912,0.18973 -3.35307,-1.95325 -4.2939,-3.49327 l -0.6058,-0.9913 -1.67853,0.71787 c -1.60263,0.68546 -3.12695,1.04935 -12.056701,2.87572 -2.160693,0.44191 -3.984669,0.83932 -4.053487,0.88321 -0.06882,0.044 0.891832,1.92457 2.134526,4.17934 3.145374,5.70701 6.435057,9.02354 11.013912,11.10368 1.81254,0.82342 3.66457,1.50965 4.1156,1.52477 0.45104,0.0152 1.40919,0.24691 2.12941,0.51508 1.53313,0.57087 7.70613,0.70967 8.04413,0.18089 0.12718,-0.19897 0.66576,-0.36176 1.19698,-0.36176 0.53121,0 1.6579,-0.30948 2.50355,-0.6875 0.84566,-0.378 2.25476,-0.87337 3.13128,-1.10082 0.87652,-0.22745 2.07652,-0.85403 2.66652,-1.39265 0.59,-0.53861 1.6988,-1.46767 2.4641,-2.06458 2.74177,-2.13851 6.02249,-7.378 6.796,-10.85286 0.26574,-1.19381 0.59195,-3.80209 0.72491,-5.79595 0.20882,-3.13169 0.12878,-3.99355 -0.589,-6.33083 -1.09139,-3.55385 -2.94523,-6.96887 -5.60048,-10.317271 -2.05513,-2.591721 -5.23722,-5.230727 -6.30713,-5.230727 -0.27424,0 -1.56834,-0.413599 -2.87551,-0.919245 -2.0865,-0.807094 -4.72538,-1.390334 -6.12591,-1.427262 z m -32.294155,2.708253 c -0.454049,0 -0.358395,0.884303 0.149075,1.374971 0.587523,0.568081 1.0479,0.551627 1.0479,-0.03675 0,-0.521289 -0.730708,-1.338237 -1.196975,-1.338237 z m 44.036625,2.143721 1.21671,1.340351 c 1.80627,1.990433 4.57051,6.427722 5.81313,9.331612 0.86057,2.01106 1.15659,3.3988 1.38186,6.48132 0.16643,2.27759 0.13851,4.4773 -0.0658,5.24556 -0.1935,0.7277 -0.47963,1.89743 -0.63575,2.59945 -0.15613,0.70202 -0.71457,2.16715 -1.24155,3.25586 -1.72621,3.5662 -1.57827,3.54503 -4.90555,0.71927 -1.60953,-1.3669 -3.84036,-3.09416 -4.95743,-3.83806 -1.11707,-0.74389 -2.03075,-1.47473 -2.03075,-1.62439 0,-0.14967 -0.59854,-0.62983 -1.32998,-1.06691 -0.95909,-0.57314 -1.29812,-1.01021 -1.21597,-1.56718 0.10239,-0.69423 0.43541,-0.79937 3.29423,-1.03935 6.10914,-0.51283 10.6651,-1.18496 10.47608,-1.54597 -0.27862,-0.53212 -3.74855,-0.38757 -8.71131,0.36318 -2.65935,0.4023 -4.53447,0.53519 -4.72651,0.33492 -0.17509,-0.18261 -0.4226,-1.06466 -0.55026,-1.96002 -0.2207,-1.54801 -0.15334,-1.70785 1.37163,-3.25586 0.88205,-0.89536 2.2177,-2.4419 2.96832,-3.43674 0.75062,-0.99484 2.38651,-2.78047 3.6355,-3.96806 2.13588,-2.03089 2.77902,-3.086277 1.87949,-3.086277 -0.52265,0 -1.75535,1.302867 -5.13354,5.426417 -3.64314,4.44697 -5.64374,6.20427 -6.53658,5.74227 -1.00725,-0.52124 -0.81333,-1.02359 1.37674,-3.5717 1.11156,-1.2933 3.50751,-4.27026 5.32427,-6.615573 z m -98.561012,0.968702 c 0.170674,-0.179655 0.706291,0.547432 1.199165,1.627922 2.832551,6.209629 5.509145,16.047709 5.509145,20.249459 0,2.90402 1.158279,6.48759 3.162696,9.78524 0.891676,1.46698 1.545068,2.78938 1.452007,2.9386 -0.186595,0.29921 -0.658291,0.35836 -0.910518,0.11447 -0.235176,-0.22739 -7.108145,-0.53456 -17.149305,-0.76662 -4.82274,-0.11146 -8.906508,-0.28471 -9.074488,-0.38508 -0.167981,-0.10036 -0.136185,-0.48711 0.07014,-0.85989 0.206336,-0.37278 0.374876,-1.02261 0.374876,-1.44353 0,-1.02471 0.971976,-2.78445 2.287987,-4.14188 0.591638,-0.61025 1.076925,-1.20673 1.07786,-1.32552 9.36e-4,-0.11878 0.354333,-0.60716 0.78556,-1.08527 1.453026,-1.61105 2.579281,-3.81174 3.205082,-6.26372 0.454438,-1.78056 0.871543,-2.60154 1.547004,-3.04388 0.508656,-0.33312 1.22928,-0.93111 1.601809,-1.32905 1.905612,-2.03559 2.963933,-3.39838 2.963933,-3.81757 0,-0.25653 0.249446,-0.73245 0.553911,-1.05773 0.384805,-0.41113 0.626967,-1.85406 0.794329,-4.73188 0.13242,-2.276957 0.379161,-4.285517 0.548794,-4.464071 z m 67.084565,1.592596 c 0.451553,0.0019 4.742337,3.683045 9.027727,7.744665 1.44046,1.36525 2.97878,2.71027 3.41846,2.98947 0.68726,0.43643 0.73976,0.63237 0.37414,1.39477 -0.47674,0.99415 -0.80855,1.10918 -1.24886,0.43313 -0.3455,-0.53053 -8.942711,-7.3051 -10.718677,-8.44629 -1.986633,-1.27656 -2.275847,-1.78158 -1.739924,-3.032582 0.255782,-0.597084 0.654875,-1.084245 0.887134,-1.083163 z m -2.284337,3.253735 c 0.63669,0 12.407804,9.10416 13.643894,10.55256 0.94784,1.11064 -0.23414,1.6125 -5.69914,2.42069 -7.119338,1.05285 -10.866314,1.33342 -11.183448,0.83728 -0.22233,-0.34781 0.307391,-5.81011 0.681062,-7.02326 1.134318,-3.68261 2.30428,-6.78727 2.557632,-6.78727 z m 40.326594,9.44043 c -1.02269,0.0376 -2.6125,0.21363 -4.88215,0.53204 -2.16069,0.30311 -4.93872,0.62365 -6.17341,0.71221 -2.56578,0.18405 -3.18023,0.35425 -3.18023,0.88039 0,0.50328 0.4145,0.48341 7.5041,-0.35329 7.233,-0.85363 8.21001,-1.02882 8.21001,-1.47319 0,-0.23498 -0.4556,-0.33576 -1.47832,-0.29816 z m -20.35658,1.59825 c -1.04761,-0.005 -2.12342,0.80396 -1.84515,1.53325 0.13271,0.34779 0.42228,0.7562 0.64307,0.90722 0.22079,0.15104 0.82209,0.23243 1.33655,0.18088 0.74778,-0.075 0.95782,-0.32019 1.04862,-1.22235 0.0924,-0.91763 -0.0454,-1.16911 -0.73952,-1.3446 -0.14447,-0.0366 -0.2939,-0.0538 -0.44357,-0.0545 z m -0.30983,0.62036 c 0.24435,-0.0788 0.4443,0.11455 0.4443,0.42959 0,0.31504 -0.26683,0.57302 -0.59265,0.57302 -0.6607,0 -0.5454,-0.77902 0.14835,-1.00261 z m -5.62973,4.3482 c 0.64866,-0.0266 0.83397,0.16176 1.11368,0.75533 0.46682,0.99064 4.26446,2.9696 5.10211,2.6588 0.53028,-0.19675 0.52137,-0.29211 1.17797,12.77542 0.12068,2.40177 -0.0573,2.76678 -0.9624,1.97484 -0.56234,-0.49206 -0.69897,-1.18541 -0.7344,-3.73136 -0.0845,-6.07389 -0.52213,-10.2936 -1.08664,-10.47413 -0.44833,-0.14339 -0.49282,0.93205 -0.29521,7.10381 0.12805,3.99985 0.1133,7.33733 -0.033,7.41682 -0.14616,0.0794 -0.6869,0.0244 -1.20136,-0.12224 -5.93829,-1.69286 -7.11232,-2.12881 -8.514,-3.16258 -0.87676,-0.64666 -1.76098,-1.17573 -1.96498,-1.17573 -0.50238,0 -4.86097,-4.24087 -4.86097,-4.72976 0,-0.21391 -0.691811,-1.51556 -1.537507,-2.89198 -0.845698,-1.3764 -1.449607,-2.72525 -1.341662,-2.99724 0.113075,-0.28493 1.042176,-0.5961 2.192259,-0.73412 2.521895,-0.30263 8.8642,-1.61136 9.85347,-2.0335 0.41156,-0.17561 1.43275,-0.41924 2.26899,-0.54122 0.33964,-0.0495 0.60735,-0.0823 0.82355,-0.0912 z m 11.27917,1.42444 c 0.6816,-0.0871 1.73254,0.62615 4.39256,2.73653 1.94362,1.54201 4.07287,3.18123 4.73163,3.64235 0.65875,0.46112 1.65771,1.29261 2.22002,1.84838 0.99139,0.97985 1.00152,1.02897 0.32592,1.62015 -0.66271,0.57989 -0.84749,0.49018 -3.78603,-1.84838 -7.32403,-5.82859 -8.90914,-7.26015 -8.48843,-7.66694 0.19111,-0.18478 0.37715,-0.30305 0.60433,-0.33209 z m -2.24925,1.37992 c 0.38312,0 2.38066,1.42444 4.43933,3.16542 2.05866,1.74098 4.76294,3.97938 6.0097,4.97422 1.24678,0.99485 2.27643,1.92981 2.28799,2.07801 0.0335,0.42977 -5.85649,3.13587 -9.32952,4.28603 -4.07164,1.34841 -4.20829,1.34397 -3.92853,-0.12364 0.33827,-1.77454 0.26527,-3.66266 -0.38583,-9.92725 -0.32514,-3.12838 -0.0554,-4.45279 0.90686,-4.45279 z m -91.073722,5.24414 c 0.0095,0.0419 0.01773,0.0691 0.01462,0.0374 -5.25e-4,-0.005 -9.36e-4,-0.009 -0.0014,-0.0142 -0.0043,-0.008 -0.0088,-0.0155 -0.01315,-0.0233 z M 7.5391761,126.1441 c 0.2998886,0.0317 0.3419782,0.23399 0.2448021,0.74331 -0.089214,0.46759 0.3013157,1.7059 0.8900573,2.82272 0.8045428,1.5262 1.2693279,2.01438 1.9964165,2.09639 l 0.947787,0.1074 -0.129344,3.6911 c -0.07116,2.03038 -0.197728,3.8953 -0.281339,4.14401 -0.309868,0.92174 -0.96001,0.38303 -2.8280138,-2.34438 l -1.9153028,-2.7966 0.4684117,-1.88865 c 0.3987865,-1.60731 0.3848441,-2.01183 -0.095728,-2.72099 -0.3104868,-0.45817 -0.5460786,-1.48336 -0.5232186,-2.27867 0.033988,-1.18244 0.1862203,-1.4663 0.8352502,-1.55585 0.1617601,-0.0223 0.2902609,-0.0303 0.3902222,-0.0197 z m 10.8180649,5.55715 c 1.63166,-0.004 3.785832,0.007 6.635966,0.0219 6.417163,0.0343 12.762305,0.18223 14.099875,0.32927 2.407521,0.26467 3.741454,0.93275 3.741454,1.87381 0,0.48276 -1.535618,0.69003 -1.973764,0.26637 -0.482399,-0.46643 -11.132209,-1.10246 -15.049853,-0.89874 -5.15747,0.2682 -12.406649,0.2789 -12.675638,0.0184 -0.111665,-0.10817 -0.114025,-0.52416 -0.0058,-0.92419 0.144152,-0.53298 0.332824,-0.67487 5.227804,-0.68677 z m 4.556243,2.8206 c 7.698683,-0.0388 18.972608,0.16129 19.827515,0.43243 0.614527,0.19488 0.841827,0.54852 0.841827,1.30997 0,1.16357 -0.07888,1.17716 -3.741454,0.66417 -5.915945,-0.82857 -16.605131,-1.00774 -23.009944,-0.38579 -3.49225,0.33912 -3.928526,0.24474 -3.928526,-0.8507 0,-0.77962 0.170932,-0.82363 4.022064,-1.04502 1.253477,-0.0721 3.422291,-0.11212 5.988518,-0.12506 z m 26.601594,2.33732 1.133399,0.78005 c 1.943524,1.33811 4.272037,2.15428 6.882958,2.41293 2.549573,0.25256 3.0871,0.68543 1.967186,1.58412 -0.837675,0.6722 -3.252218,0.77454 -4.504359,0.19077 -0.617341,-0.28781 -2.000716,-0.78117 -3.074279,-1.09659 -1.859947,-0.54647 -2.03403,-0.53818 -3.695414,0.1724 -2.962208,1.26696 -3.893451,0.87056 -3.893451,-1.65689 0,-1.80338 0.433829,-2.19305 1.579155,-1.41738 1.159214,0.78508 2.393108,0.70324 3.049431,-0.20278 z m -20.748265,0.66346 c 8.34075,-0.0299 14.446362,0.2186 14.443331,0.65853 -7.48e-4,0.11602 -0.0015,0.61824 -0.0015,1.11567 0,0.93629 -0.339582,1.14209 -0.954363,0.57867 -0.564387,-0.51722 -13.083436,-1.04766 -21.774971,-0.92277 -6.410456,0.0922 -7.950591,0.0211 -7.950591,-0.3653 0,-0.72016 0.412721,-0.77365 7.295836,-0.93902 3.133546,-0.0753 6.161972,-0.11576 8.942222,-0.12578 z m -1.061784,2.87219 c 14.277795,0.0873 15.207969,0.13271 15.702417,0.76381 0.289065,0.36895 0.531287,0.75503 0.537834,0.85847 0.0065,0.10344 -7.145313,0.18483 -15.893143,0.18088 -13.088983,-0.006 -15.871317,-0.0925 -15.714107,-0.48893 0.105068,-0.26499 0.190726,-0.69017 0.190726,-0.94468 0,-0.36976 3.049746,-0.44372 15.176273,-0.36955 z m 102.492461,2.50479 2.96613,0.73129 c 1.6312,0.402 3.03377,0.93408 3.11739,1.1828 0.11768,0.34996 -1.30715,0.45219 -6.30202,0.45219 -3.54969,0 -6.36362,-0.0873 -6.25304,-0.1943 0.11059,-0.10692 1.61233,-0.6397 3.33662,-1.1835 z" />
    <g
       aria-label="IV"
       id="text1681"
       style="font-size:40px;line-height:1.25;font-family:Hultog;-inkscape-font-specification:Hultog"
       transform="matrix(0.37414542,0,0,0.36176176,-2.4370605,0.56120233)">
      <path
         d="m 340.87979,113.3803 q -0.4159,2.47095 -1.46789,2.2263 l -4.52599,-1.02753 q 0,0 -3.32722,0.31805 -0.95413,0.66055 -1.66361,0.66055 -1.00305,0 -1.56575,-1.46789 l 1.24771,-1.8104 q 0.58716,0.19572 1.22324,0.19572 2.10398,0 2.10398,-3.40061 0,-0.66055 -0.0979,-1.98165 -0.0979,-1.3211 -0.0979,-1.98166 0,-1.93272 0.0979,-5.822625 0.0979,-3.889908 0.0979,-5.82263 0,-1.663609 -0.9786,-2.617737 -0.66055,0.244648 -1.3211,0.244648 -1.14984,0 -1.93272,-0.929663 0.4159,-2.446484 1.44343,-2.2263 l 4.47706,0.978593 4.25688,-1.027523 1.76147,0.905199 -0.51376,1.761468 q -0.4893,-0.122324 -0.83181,-0.122324 -2.25076,0 -2.25076,3.840978 0,0.391438 0.0245,1.027523 0.0245,0.611621 0.0245,0.831805 0,1.614679 -0.0979,15.437308 l 1.02752,1.10092 q 0.66055,-0.22019 1.19878,-0.22019 1.07645,0 1.68807,0.92967 z"
         id="path2687" />
      <path
         d="m 369.50365,88.524029 -0.41591,1.737003 -2.6422,1.443425 q -2.81345,7.24159 -3.74312,9.516823 -3.03364,7.36391 -4.28134,8.97859 l -1.68808,5.7737 q -2.2263,0 -2.66666,-1.71254 l -0.95413,-3.74312 -0.97859,-1.37003 -0.31805,-2.05504 q -0.0245,-0.0489 -1.59021,-3.03364 -1.02752,-1.95719 -0.97859,-3.18043 -0.66056,-1.027524 -1.95719,-3.08257 -0.19572,-0.562691 -0.53823,-1.614679 -0.95413,-2.593272 -1.8104,-3.865443 -1.3211,-1.957187 -3.08256,-1.859327 -0.0979,-0.513762 -0.0979,-1.027523 0,-1.443425 1.39449,-1.908257 l 3.57187,1.37003 3.62079,-1.027523 1.29664,0.880734 q 0.0489,0.269114 0.0489,0.342508 0,1.198777 -2.20184,2.201835 0.34251,1.321101 1.17432,3.767584 1.51681,2.837921 4.20795,8.611621 0,0 0.95412,4.15902 l 0.75841,1.02752 q 0.70948,-0.24464 0.70948,-0.58715 v -2.12844 l 6.263,-14.776761 q 0,-0.318042 -1.68807,-1.41896 -0.0979,-0.415902 -0.0979,-0.831804 0,-0.513762 0.29358,-0.905199 0.31804,-0.391437 0.8318,-0.293578 l 3.1315,0.636086 q 1.07645,-0.70948 1.93272,-0.70948 0.85627,0 1.54129,0.685015 z"
         id="path2689" />
    </g>
  </g>
</svg>
