<?xml version="1.0" encoding="UTF-8" standalone="no"?>
<!-- Created with Inkscape (http://www.inkscape.org/) -->

<svg
   version="1.1"
   id="svg2"
   width="4cm"
   height="4cm"
   viewBox="0 0 151.1811 151.18112"
   sodipodi:docname="05.svg"
   inkscape:version="1.1.2 (0a00cf5339, 2022-02-04)"
   xmlns:inkscape="http://www.inkscape.org/namespaces/inkscape"
   xmlns:sodipodi="http://sodipodi.sourceforge.net/DTD/sodipodi-0.dtd"
   xmlns="http://www.w3.org/2000/svg"
   xmlns:svg="http://www.w3.org/2000/svg">
  <defs
     id="defs6" />
  <sodipodi:namedview
     id="namedview4"
     pagecolor="#505050"
     bordercolor="#eeeeee"
     borderopacity="1"
     inkscape:pageshadow="0"
     inkscape:pageopacity="0"
     inkscape:pagecheckerboard="0"
     showgrid="false"
     inkscape:zoom="1.5835095"
     inkscape:cx="208.39787"
     inkscape:cy="233.34246"
     inkscape:window-width="1920"
     inkscape:window-height="1043"
     inkscape:window-x="0"
     inkscape:window-y="0"
     inkscape:window-maximized="1"
     inkscape:current-layer="svg2"
     units="cm"
     inkscape:document-units="cm" />
  <!-- Border -->
  <path
     id="border"
     class="board-border"
     style="fill:none;stroke:#000000;stroke-width:0.1cm"
     d="M 0,0 H 151.18111 V 151.18111 H 0 Z" />
  <g
     inkscape:groupmode="layer"
     inkscape:label="Image"
     id="g8">
    <path
       id="path12"
       style="fill:#000000;stroke-width:0.330256"
       d="m 62.255728,2.9266391 c -1.547435,0.022073 -3.177971,0.1127935 -3.747257,0.2547343 -1.461285,0.364344 -5.279094,3.2426111 -5.924949,4.4670351 -1.717884,3.2568085 -1.73175,3.3280945 -1.124517,5.7878565 0.459089,1.859655 0.489024,2.537478 0.159673,3.639761 -0.397137,1.329165 -0.216118,4.232394 0.329543,5.280225 1.052333,2.020788 1.381629,2.428856 2.270098,2.813712 0.783382,0.339337 1.145814,0.3535 1.658579,0.06491 0.548454,-0.308678 0.764742,-0.251076 1.314087,0.349647 0.835419,0.91355 1.874798,3.703419 1.500941,4.028598 -0.155864,0.135569 -1.434018,0.459158 -2.84017,0.718889 -3.604307,0.665751 -7.751746,2.889981 -10.026892,5.376975 -0.946461,1.034613 -1.829301,2.09274 -1.961619,2.351394 -0.458964,0.897166 -4.939943,5.738211 -5.629382,6.081781 -0.38116,0.189946 -1.130292,0.657819 -1.664692,1.039755 -0.965859,0.690297 -0.97567,0.69076 -1.655181,0.07838 -0.965798,-0.870385 -2.012618,-0.793351 -2.280291,0.167783 -0.261375,0.938523 -0.968211,0.994508 -3.613403,0.286576 -1.348536,-0.360911 -2.496529,-0.439134 -4.188913,-0.285964 -2.182497,0.197526 -2.372982,0.163227 -2.988974,-0.539473 -0.361868,-0.412804 -1.482422,-1.154365 -2.490245,-1.647812 -1.007823,-0.493451 -1.971842,-1.049801 -2.142358,-1.236319 -0.170517,-0.186522 -0.386023,-1.938811 -0.479024,-3.893882 l -0.169188,-3.554645 3.52915,0.151247 c 1.941024,0.08309 3.934823,0.248599 4.430803,0.368019 1.077886,0.259521 2.21938,-0.572374 1.875328,-1.366749 -0.530725,-1.225387 -0.535569,-4.550443 -0.01155,-7.965343 0.31169,-2.031225 0.463532,-3.843267 0.337695,-4.026762 -0.15012,-0.218904 -1.919302,-0.295983 -5.144922,-0.224729 l -4.915943,0.108384 -0.108714,-1.018937 -0.109394,-1.018937 h -2.89249 c -3.379921,0 -3.8511952,0.281294 -3.527792,2.105232 0.115713,0.652597 0.226384,2.879722 0.246647,4.948948 0.02026,2.069226 0.168258,5.173066 0.328182,6.89742 0.159925,1.724355 0.350238,4.299131 0.423308,5.721724 0.118213,2.301484 0.0656,2.586533 -0.476986,2.586533 -1.207865,0 -1.7102173,0.37843 -1.7102173,1.287755 0,0.498855 0.1565492,0.906878 0.347887,0.906878 0.5485819,0 0.4050475,0.853656 -0.177341,1.055065 -0.6594249,0.228043 -0.5003191,2.591012 0.298286,4.431519 0.2992826,0.689743 0.5514822,1.640219 0.5598805,2.111969 0.011546,0.648539 0.3606198,1.063977 1.4329958,1.703534 1.327666,0.791809 1.403476,0.916238 1.187707,1.95276 -0.126772,0.608995 -0.451669,1.493411 -0.722273,1.965006 -0.270603,0.471593 -0.491934,1.04342 -0.491934,1.270609 0,0.670191 -1.7975795,2.861551 -2.0479123,2.496518 -0.3472472,-0.506349 -2.1420833,-1.03536 -2.8374529,-0.83646 -2.6041767,0.744881 -1.5404991,5.168779 1.2427446,5.168779 0.7745192,0 1.4327644,-0.242544 1.9147371,-0.705418 l 0.7345035,-0.705418 0.765759,0.783798 c 0.420945,0.431089 1.356383,1.184598 2.079168,1.674143 l 1.314089,0.889732 -0.886704,0.740937 c -0.487908,0.407505 -0.887384,0.902593 -0.887384,1.099765 0,0.787761 1.208484,2.132626 2.056746,2.288934 0.495055,0.09122 1.291666,0.251881 1.770011,0.356995 0.705824,0.155104 1.048408,-0.01385 1.818253,-0.895856 0.821497,-0.941172 0.901179,-1.209855 0.592495,-2.00787 -0.196046,-0.50682 -0.740261,-1.10677 -1.209451,-1.333068 -0.46919,-0.226295 -0.85341,-0.527349 -0.85341,-0.668677 0,-0.392541 1.151794,-1.517414 1.555978,-1.519834 0.196649,-0.0013 0.729816,-0.494971 1.18499,-1.097316 0.821638,-1.087301 2.129449,-1.493603 2.129449,-0.661328 0,0.446859 1.434225,1.446963 2.075091,1.446963 0.19807,0 0.360118,-0.235984 0.360118,-0.524166 0,-0.288181 0.258846,-0.781971 0.575508,-1.097318 0.53574,-0.5335 0.53574,-0.612808 0,-1.146301 -0.316662,-0.31535 -0.575508,-0.804179 -0.575508,-1.086296 0,-0.703914 -1.076697,-1.162225 -2.730777,-1.162225 -1.250716,0 -1.50259,-0.144937 -2.603037,-1.49595 -0.670126,-0.822709 -1.413201,-1.880836 -1.651104,-2.351394 -0.237902,-0.470555 -0.572778,-0.855443 -0.744695,-0.855443 -0.171918,0 -0.216097,0.141084 -0.09784,0.31352 0.238191,0.347325 -0.95315,0.410656 -2.174293,0.115731 -1.321907,-0.319259 -0.869342,-0.74277 0.793617,-0.74277 1.197751,0 1.621638,-0.131791 1.764575,-0.548658 0.480177,-1.400537 0.673639,-1.491787 2.961116,-1.399813 2.330099,0.09369 3.365827,-0.218833 2.912874,-0.879324 C 22.375429,51.87574 21.58159,51.82653 19.570277,51.977684 l -2.734174,0.20575 v -0.775837 c 0,-0.426556 -0.251017,-0.902158 -0.557843,-1.056905 -0.481222,-0.242702 -0.493171,-0.37558 -0.08697,-0.968112 0.365092,-0.532565 0.666278,-0.638488 1.340588,-0.472117 0.819285,0.202139 1.777041,0.249948 3.247171,0.161661 1.223615,-0.07348 0.34296,-0.805773 -1.04502,-0.868916 -0.846301,-0.0385 -1.935646,-0.392017 -2.757276,-0.894629 -1.130446,-0.691524 -1.600036,-0.797674 -2.800082,-0.635613 -1.51954,0.205207 -3.254646,-0.04339 -3.254646,-0.46599 0,-0.137692 0.870401,-0.496877 1.934442,-0.798496 1.800019,-0.510243 2.017461,-0.513268 3.124868,-0.03735 1.280566,0.550334 2.312968,0.421022 2.02549,-0.254122 -0.09743,-0.228822 -0.557418,-0.50238 -1.021918,-0.607444 -0.861039,-0.194758 -1.200199,-1.120328 -0.409718,-1.118134 0.584003,0.0015 2.664799,1.143238 3.739784,2.051957 0.478345,0.404362 1.455602,0.955764 2.171576,1.225296 l 1.301858,0.489873 -0.225583,4.229448 -0.224903,4.229446 h 0.970278 c 1.065939,0 3.62539,0.597062 4.195027,0.97852 0.678127,0.454111 6.222985,0.899036 8.004798,0.642348 1.961266,-0.282537 4.655007,-1.886896 6.853781,-4.081871 0.71702,-0.71578 1.393145,-1.301227 1.50298,-1.301227 0.109831,0 0.434587,-0.211625 0.721594,-0.470279 0.287007,-0.258653 0.793495,-0.470278 1.125195,-0.470278 0.481218,0 0.693895,0.490021 1.054532,2.424261 0.516654,2.771017 2.201773,6.054111 4.055739,7.9035 0.672616,0.670956 1.07103,1.304353 0.885345,1.407773 -0.185681,0.10342 -1.632846,2.548957 -3.215237,5.434534 -1.582392,2.885583 -3.137645,5.528715 -3.456449,5.873586 -0.318807,0.344871 -0.865942,1.319736 -1.216244,2.166467 -0.350301,0.846731 -1.402896,2.585947 -2.338725,3.865101 -0.935827,1.279152 -1.648525,2.360614 -1.583836,2.40283 0.06469,0.04222 0.822019,0.230821 1.683039,0.419454 0.86102,0.188632 2.798681,0.637155 4.305779,0.996282 1.507099,0.359127 3.047208,0.652756 3.422474,0.652756 0.612977,0 0.654786,0.135378 0.413116,1.332457 -0.445445,2.206425 -0.200014,7.897558 0.3839,8.906506 0.283681,0.490191 0.51671,1.206592 0.517753,1.592091 10e-4,0.38551 0.158365,1.302559 0.349247,2.037883 0.190886,0.735325 0.581726,2.478886 0.869036,3.874886 0.495996,2.41002 0.487069,2.63167 -0.180056,4.38927 -0.386433,1.01809 -1.166315,2.52716 -1.733322,3.35319 -1.683276,2.45227 -2.19516,4.56084 -2.011222,8.28805 l 0.160355,3.25092 -3.509445,-0.1586 c -3.12972,-0.14131 -9.839765,-0.26972 -10.293241,-0.19717 -0.09567,0.0153 -1.348062,0.0872 -2.783095,0.15982 -4.105634,0.20788 -9.618156,0.7248 -13.219705,1.23939 -1.817709,0.2597 -3.422337,0.47705 -3.565841,0.48313 -0.143503,0.006 -0.260915,0.22265 -0.260915,0.4813 0,0.53918 1.028285,0.61039 2.674381,0.18493 0.966027,-0.24968 4.838305,-0.5367 10.692767,-0.79237 0.971415,-0.0424 5.953623,-0.19255 11.07191,-0.33372 l 9.305976,-0.25658 0.0048,0.75563 c 0.0028,0.41566 0.08141,1.0378 0.175304,1.38267 0.108255,0.39764 -0.263577,1.15652 -1.017162,2.074 l -1.188389,1.44635 -1.857661,-0.26453 c -1.76196,-0.25123 -15.483335,-0.36254 -19.947104,-0.16166 -2.057617,0.0926 -7.954701,0.71656 -9.479919,1.00302 -0.821167,0.15423 -0.940514,0.37502 -0.516395,0.95465 0.175788,0.24023 0.85288,0.26892 2.168858,0.0907 5.654203,-0.76607 8.182284,-0.94404 15.480969,-1.08936 7.004812,-0.13948 12.393122,0.11419 12.94248,0.60928 0.09398,0.0847 -0.09028,0.55178 -0.409717,1.03792 l -0.580953,0.88361 -8.93295,0.079 c -4.913165,0.0435 -11.398597,0.14396 -14.412168,0.22289 -3.379406,0.0885 -5.479219,0.0283 -5.479219,-0.15738 0,-0.16554 -0.159698,-0.30127 -0.354682,-0.30127 -0.305317,0 -0.158621,1.29259 0.21675,1.91173 0.0624,0.10293 0.862494,0.0742 1.778165,-0.063 0.91567,-0.13736 4.717401,-0.39423 8.448488,-0.57132 3.731088,-0.17709 8.412755,-0.41454 10.403995,-0.52722 3.186846,-0.18034 3.595961,-0.1465 3.41364,0.28168 -0.17658,0.4147 0.08497,0.4639 1.772049,0.33311 1.839651,-0.1426 1.930982,-0.11896 1.303216,0.33801 -0.371411,0.27036 -0.859114,0.49171 -1.083748,0.49171 -0.224634,0 -0.820811,0.29231 -1.324958,0.6497 -0.784959,0.55645 -0.916603,0.57645 -0.916603,0.13839 0,-0.94944 -0.602696,-0.18498 -0.820115,1.04036 -0.223444,1.25931 0.419531,3.46019 1.328357,4.54665 1.090737,1.30391 5.036809,0.81016 5.567548,-0.69684 0.287094,-0.81521 1.350104,-1.00437 6.584714,-1.17142 2.466846,-0.0787 4.765422,-0.27861 5.108229,-0.44395 1.503606,-0.72521 12.869779,-0.22535 19.107284,0.84014 4.411854,0.75363 4.624775,0.8556 4.334999,2.07462 -0.303045,1.27484 -0.306958,1.27812 -1.08307,0.92401 -2.814607,-1.28413 -13.307278,-2.33501 -20.989408,-2.10216 -10.284508,0.31173 -12.61685,0.58381 -12.811344,1.4935 -0.09533,0.44589 0.282067,0.48919 3.130983,0.36128 1.781661,-0.08 4.818933,-0.29451 6.749142,-0.4764 3.691944,-0.34791 15.446278,0.0795 17.885603,0.65031 0.669682,0.15671 2.491841,0.44854 4.048941,0.64847 l 2.830659,0.36373 0.21403,1.20508 c 0.19832,1.11771 0.320421,1.22506 1.691193,1.48493 0.899845,0.17058 1.7347,0.16414 2.134207,-0.0159 0.614031,-0.27671 1.592115,-0.2387 7.084798,0.2725 1.253242,0.11663 2.580225,0.064 3.130982,-0.1237 0.525734,-0.17917 1.401842,-0.41396 1.946675,-0.52171 0.813919,-0.16096 0.955663,-0.3201 0.795655,-0.89463 l -0.194329,-0.69929 5.639571,-0.0735 c 3.10202,-0.0403 6.18909,-0.14948 6.8599,-0.24249 1.75455,-0.2433 11.10792,0.52538 17.04442,1.40042 1.05236,0.15512 3.54413,0.50665 5.53697,0.78135 1.99284,0.27469 3.70161,0.56997 3.79754,0.65643 0.30282,0.2729 1.748,0.17052 1.96026,-0.139 0.21569,-0.31452 -1.90804,-0.95305 -3.1799,-0.95587 -0.41591,-9.4e-4 -1.51176,-0.13921 -2.43521,-0.30739 -12.64701,-2.30333 -17.24906,-2.76564 -26.20499,-2.63185 -2.43999,0.0365 -8.92713,0.36661 -9.705502,0.49416 -0.371745,0.0609 -1.573618,-0.4715 -2.644484,-1.17141 -0.574013,-0.37518 -1.317622,-0.76873 -1.652463,-0.87503 -1.216522,-0.38623 -0.569755,-0.84026 1.217604,-0.85484 1.004524,-0.008 3.783271,-0.0322 6.174994,-0.0533 2.391721,-0.0211 5.679251,0.0523 7.305621,0.16289 1.62637,0.11059 5.77493,0.35286 9.21901,0.53886 3.44408,0.18599 8.2971,0.67271 10.78449,1.08139 2.48739,0.40868 5.61838,0.91603 6.95774,1.12732 1.33937,0.21131 3.02704,0.57031 3.74998,0.79789 1.00142,0.31523 1.5192,0.32962 2.17429,0.0606 0.90728,-0.37255 1.08187,-0.71826 0.52115,-1.03058 -0.29826,-0.16612 -4.57188,-0.9357 -6.96725,-1.25469 -3.37987,-0.45008 -5.80649,-0.81172 -8.52323,-1.26937 -3.91639,-0.65975 -4.13236,-0.67913 -10.26267,-0.92526 -2.77439,-0.11138 -5.59228,-0.25137 -6.26196,-0.31106 -2.60797,-0.2325 -14.199129,-0.14921 -16.176741,0.11633 -1.973872,0.26505 -2.13932,0.23638 -3.04401,-0.52906 -1.564149,-1.32338 -1.286998,-1.83151 1.133349,-2.07829 1.88235,-0.19191 10.182962,-0.0552 17.577802,0.28903 1.5374,0.0715 5.13803,0.15427 8.0014,0.18371 2.86337,0.0294 6.30192,0.16733 7.64128,0.30677 1.33937,0.13945 3.78283,0.39483 5.42962,0.56765 3.20656,0.3365 10.73624,1.73991 12.08975,2.25341 0.68742,0.26081 0.96038,0.17597 1.681,-0.52477 0.98576,-0.95857 0.65976,-1.36177 -1.11025,-1.37287 -0.57401,-0.004 -1.59158,-0.13823 -2.26126,-0.29944 -0.66968,-0.16121 -3.87451,-0.52428 -7.12149,-0.80645 -3.24698,-0.28217 -5.99507,-0.56406 -6.10705,-0.62643 -0.35756,-0.19915 -7.54552,-0.46197 -16.86368,-0.61662 -10.930121,-0.18141 -20.777955,-0.50269 -21.134132,-0.6895 -0.143504,-0.0753 -0.260915,-0.39427 -0.260915,-0.70909 0,-0.4604 0.391473,-0.61913 2.00035,-0.80952 3.431167,-0.40605 25.862607,-0.17828 32.343967,0.32821 7.88616,0.61628 14.99406,1.33308 15.38653,1.55168 0.17304,0.0964 1.80203,0.22998 3.62019,0.29699 2.59755,0.0958 3.34568,0.0284 3.49178,-0.31475 0.11641,-0.2734 -0.10196,-0.49073 -0.58434,-0.58111 -1.54894,-0.29021 -9.19535,-1.0931 -11.90289,-1.24979 -1.53071,-0.0886 -5.06667,-0.3732 -7.85736,-0.63194 -4.81112,-0.44606 -34.114537,-0.83721 -35.453888,-0.47334 -0.391154,0.10627 -0.521549,-0.12207 -0.521831,-0.91361 -2.54e-4,-0.72537 -0.231024,-1.19409 -0.737221,-1.49963 -0.728061,-0.43947 -0.740919,-0.40644 -1.149658,2.93618 -0.353478,2.89089 -0.334842,3.6518 0.12774,5.24961 0.664944,2.29685 0.665369,2.36364 0.01903,2.36364 -0.688917,0 -0.669505,0.5087 0.02853,0.75012 1.078867,0.37311 1.536961,0.19631 1.536961,-0.59336 0,-0.88657 0.40413,-1.00798 1.043661,-0.31351 0.238195,0.25865 0.629568,0.47027 0.869718,0.47027 0.24015,0 0.610131,0.18863 0.822154,0.41885 0.212027,0.23023 1.053287,0.61077 1.869214,0.84625 1.569617,0.45302 3.019666,1.23751 3.037895,1.64292 0.04271,0.94899 -6.243903,1.2836 -8.420632,0.44823 -0.977979,-0.37532 -1.91718,-0.45232 -3.79482,-0.31046 l -2.495003,0.18861 0.237815,-0.75502 c 0.130806,-0.41528 0.333638,-1.42156 0.450486,-2.23627 0.116852,-0.81472 0.347741,-1.40614 0.512997,-1.31409 0.165261,0.092 0.300324,0.0261 0.300324,-0.14635 0,-0.17243 -0.173289,-0.40978 -0.385257,-0.52784 -0.369452,-0.20578 -0.309024,-1.78221 0.26907,-7.03336 0.219739,-1.99596 0.218856,-2.37866 -0.0075,-4.69299 -0.0922,-0.94282 -0.03037,-1.94485 0.137252,-2.22709 0.246012,-0.41427 0.04845,-0.58266 -1.025313,-0.87259 -1.854759,-0.5008 -1.820207,-0.52628 -1.573646,1.14876 l 0.222185,1.5082 -12.212053,-0.019 c -6.716604,-0.0102 -12.212025,-0.10546 -12.212056,-0.21187 -3.2e-5,-0.10641 0.634072,-0.57196 1.409213,-1.03425 1.248824,-0.74478 1.872923,-0.86557 5.47922,-1.06058 5.196248,-0.28098 8.439654,-0.27069 12.680208,0.0398 2.375977,0.17398 3.391897,0.14645 3.391897,-0.0918 0,-1.02589 -6.08296,-1.52782 -14.220557,-1.17386 -3.133397,0.13629 -5.782069,0.17102 -5.886223,0.0771 -0.10415,-0.0938 0.119753,-0.48774 0.497371,-0.87503 1.102526,-1.13073 3.606613,-6.04308 3.606613,-7.07499 0,-1.23219 0.314441,-1.93744 0.863602,-1.93744 0.242616,0 0.558598,-0.45853 0.702568,-1.01895 0.143969,-0.56041 0.311606,-1.16001 0.37235,-1.33245 0.28381,-0.80564 0.839034,-4.22812 0.794296,-4.89567 -0.05944,-0.88687 0.706189,-4.67699 1.036866,-5.132651 0.126899,-0.17487 0.261131,-0.74106 0.298285,-1.25836 0.102523,-1.427378 0.298439,-2.315407 0.563278,-2.554082 0.131456,-0.118469 0.239172,-0.428605 0.239172,-0.689495 0,-0.604624 1.834078,-4.124131 2.149152,-4.124131 0.130235,0 0.490211,0.786589 0.800415,1.748241 0.354239,1.098164 1.053826,2.235081 1.880082,3.056812 0.723546,0.71959 1.815608,1.974705 2.427058,2.788606 0.611432,0.813901 1.631624,1.83723 2.267377,2.27424 0.63575,0.437 1.431371,1.39333 1.767972,2.12543 0.336598,0.7321 0.773276,1.68395 0.970281,2.11503 0.496758,1.08701 0.656414,8.8185 0.232378,11.2573 -0.406948,2.3405 -0.115523,2.82007 1.163247,1.91357 0.810316,-0.57443 0.913329,-0.88029 0.979111,-2.90924 0.276761,-8.53631 0.04625,-10.15172 -1.754384,-12.2995 -0.144564,-0.17244 -0.371964,-0.72472 -0.505525,-1.22714 -0.133554,-0.50241 -0.913287,-1.48999 -1.732637,-2.19463 -1.755097,-1.509365 -4.730448,-4.687197 -4.730448,-5.052431 0,-0.140268 -0.214313,-0.477881 -0.476306,-0.750124 -0.733485,-0.762135 -2.30679,-4.567876 -2.30679,-5.580265 0,-0.881511 0.06435,-0.913042 2.696124,-1.320209 1.482868,-0.229418 3.791968,-0.760391 5.131332,-1.179983 2.386314,-0.747577 5.09757,-1.330173 6.74031,-1.447577 0.702613,-0.05021 0.911019,0.175671 1.395625,1.50881 0.313408,0.862178 0.744875,1.849763 0.958728,2.194634 0.213849,0.344871 0.565654,1.332456 0.781385,2.194634 0.215732,0.862176 0.60556,2.273016 0.866322,3.135189 0.260766,0.862173 0.582593,3.119519 0.714797,5.016311 0.240511,3.450721 0.780387,5.828171 1.194504,5.258781 0.12111,-0.16651 0.665195,-0.40111 1.208772,-0.5211 0.714392,-0.15769 0.929007,-0.35576 0.775951,-0.71521 -0.460383,-1.08122 -1.285383,-5.253266 -1.138787,-5.75846 0.484986,-1.671384 -1.321052,-7.06341 -3.713286,-11.086457 -0.502314,-0.844752 -0.913203,-1.59256 -0.913203,-1.661895 0,-0.06933 0.547922,-0.332616 1.217604,-0.584786 0.669682,-0.252166 1.217604,-0.637064 1.217604,-0.855443 0,-0.218379 0.782746,-0.670893 1.739435,-1.005465 1.899289,-0.664218 2.125638,-0.933199 1.008329,-1.196517 -1.198129,-0.282365 -0.450061,-0.753487 1.553938,-0.979133 l 1.876009,-0.211259 -1.215566,-2.223414 c -0.668526,-1.222938 -2.215148,-3.695089 -3.436763,-5.493341 -1.221616,-1.798251 -2.221179,-3.368345 -2.221179,-3.489125 0,-0.120777 -0.273961,-0.452418 -0.608802,-0.73726 C 87.862031,66.553026 87.42472,65.973324 87.027725,64.937986 86.814268,64.38128 86.188879,63.263017 85.638216,62.4531 84.681224,61.045556 84.661092,60.939289 85.17754,60.03925 c 0.297172,-0.517895 0.540175,-1.274966 0.540175,-1.682105 0,-0.407136 0.289842,-1.020965 0.644133,-1.363686 0.454689,-0.439836 0.605553,-0.964109 0.51232,-1.78314 -0.07265,-0.63819 -0.03545,-1.160387 0.08289,-1.160387 0.118348,0 1.022645,0.61598 2.009861,1.368583 0.987206,0.752605 2.43922,1.70492 3.226109,2.116254 0.786893,0.411334 2.188094,1.165633 3.113995,1.676594 3.329571,1.837438 8.680917,2.444624 10.836817,1.229584 0.42378,-0.238836 1.22622,-0.434152 1.7836,-0.434152 1.08477,0 2.71564,-0.582641 4.40362,-1.573108 1.41921,-0.832757 2.52513,-1.248564 3.3192,-1.248564 0.56007,0 0.63143,-0.160045 0.45728,-1.018937 -0.11363,-0.560415 -0.42268,-1.428801 -0.68694,-1.929491 -0.26426,-0.50069 -0.48039,-0.945464 -0.48039,-0.988319 0,-0.215538 2.32254,-0.766039 3.23155,-0.766039 0.57234,0 1.68423,-0.268009 2.47054,-0.59581 0.78631,-0.327796 2.60372,-1.085998 4.03875,-1.684553 1.43503,-0.598555 3.17344,-1.251174 3.86277,-1.450638 1.2395,-0.358662 2.05131,-1.342108 2.05131,-2.484272 0,-0.298388 0.21212,-0.820871 0.47155,-1.160998 0.25942,-0.340131 0.55688,-1.492925 0.66112,-2.562041 0.17575,-1.802559 0.12865,-1.980051 -0.65161,-2.440796 -0.65367,-0.38598 -0.87138,-0.407242 -0.97572,-0.0943 -0.0739,0.221554 -0.21884,0.640889 -0.32206,0.931374 -0.10322,0.290482 -0.50953,0.683415 -0.90301,0.873198 -0.62704,0.30243 -0.71548,0.254066 -0.71548,-0.38761 0,-0.402672 -0.17506,-0.890124 -0.38934,-1.083234 -0.28753,-0.259133 -0.0369,-0.439024 0.95669,-0.68766 0.74046,-0.185287 1.46543,-0.337685 1.61102,-0.338625 0.14559,-9.42e-4 0.96747,-0.299302 1.82641,-0.663169 1.87138,-0.792755 2.01166,-1.514908 0.48581,-2.494066 -0.93284,-0.598625 -1.35926,-0.664451 -3.21795,-0.49416 -3.28276,0.30075 -6.79885,2.004193 -9.91342,4.801984 -1.40599,1.262987 -2.68854,2.296283 -2.85036,2.296283 -0.16183,0 -0.86469,0.832838 -1.56209,1.851111 -0.69742,1.018275 -1.59147,1.928177 -1.98677,2.021339 -0.66547,0.156831 -0.70386,0.330691 -0.51571,2.35323 0.11176,1.201403 0.49013,2.725798 0.84118,3.387477 0.35106,0.661679 0.68479,1.712439 0.74129,2.334862 0.0963,1.060374 0.007,1.172244 -1.41804,1.775791 -0.83629,0.354264 -1.72511,0.866149 -1.97521,1.137729 -0.2501,0.27158 -0.58908,0.419198 -0.75353,0.327606 -0.16445,-0.09159 -1.12515,0.17615 -2.13488,0.595194 -3.10371,1.288037 -6.03659,1.342394 -9.141548,0.169008 -0.382676,-0.1447 -1.466553,-0.49203 -2.408711,-0.771638 -0.942157,-0.279606 -2.116276,-0.755353 -2.609152,-1.057516 -0.492875,-0.302163 -1.784903,-1.080293 -2.870745,-1.729252 -1.085846,-0.64896 -2.467076,-1.552204 -3.069831,-2.006645 l -1.09598,-0.82605 -0.0727,-4.546027 c -0.07213,-4.518917 -0.172583,-5.03391 -1.703421,-8.700155 -1.366632,-3.27298 -1.769548,-1.424364 -0.572111,2.625111 0.401629,1.358211 0.773756,2.892825 0.827592,3.410131 0.276264,2.654467 0.238442,4.203003 -0.133857,5.415554 -0.226241,0.73683 -0.33124,1.456873 -0.233056,1.600047 0.09819,0.143173 -0.155189,2.15025 -0.562599,4.460303 -0.648169,3.675177 -0.852762,4.291321 -1.640913,4.92935 -1.396391,1.130422 -2.192819,1.52887 -3.479548,1.742728 -1.106051,0.183825 -1.151179,0.16012 -0.665877,-0.353324 0.286419,-0.303022 0.728827,-1.044899 0.983188,-1.648423 0.254361,-0.603525 0.65051,-1.308942 0.880589,-1.567596 0.493063,-0.554293 0.463472,-0.316407 0.693735,-5.486584 0.208134,-4.673373 -0.0355,-5.908613 -1.195183,-6.060961 -0.686471,-0.09018 -0.758077,-0.007 -0.535419,0.625201 0.141253,0.401082 0.253244,2.426352 0.248684,4.500713 -0.0085,3.868359 -0.787804,7.918631 -1.715654,8.915701 -0.247991,0.266491 -0.649334,0.719312 -0.892138,1.006691 -0.92602,1.096018 -10.256285,1.377894 -15.797599,0.477012 -4.147341,-0.674251 -7.076139,-1.827898 -8.381223,-3.300522 -1.799539,-2.030553 -3.661486,-5.617394 -4.093109,-7.885128 -0.373777,-1.963795 -0.35378,-2.188378 0.234417,-2.642257 0.847428,-0.65391 0.880369,-0.6403 0.895537,0.366181 0.0071,0.474198 0.282533,1.638137 0.611519,2.586532 0.328987,0.948396 0.83016,2.500316 1.113646,3.448711 0.283482,0.948395 0.657109,1.858139 0.830308,2.021953 0.173203,0.163814 0.319778,0.516523 0.326144,0.783798 0.01402,0.588799 1.315876,2.05892 1.598106,1.804572 0.110559,-0.09964 -0.200699,-0.947536 -0.692375,-1.884178 -1.363978,-2.598377 -2.307409,-6.099949 -2.363864,-8.776697 -0.05153,-2.442953 -0.396608,-2.964452 -1.307975,-1.974804 -0.222616,0.241733 -0.81966,0.533255 -1.326319,0.647859 -0.506662,0.114601 -1.396891,0.516281 -1.978607,0.892796 -1.05672,0.683961 -1.848821,1.133757 -3.15952,1.79416 -0.382675,0.192814 -1.008872,0.797837 -1.391547,1.344702 -0.843964,1.206071 -4.3331,2.79556 -6.088022,2.7733 -0.669682,-0.0085 -2.442569,-0.0174 -3.939548,-0.02023 -1.788095,-0.0032 -3.518524,-0.231544 -5.044361,-0.665617 l -2.322417,-0.660701 -0.02174,-3.77509 -0.02242,-3.774475 1.240027,0.201461 c 4.221522,0.685501 5.837489,0.847546 6.897266,0.692558 l 1.193823,-0.174518 -0.150841,1.788041 c -0.08306,0.983406 -0.0459,2.211288 0.08221,2.728593 l 0.233057,0.940558 0.286735,-1.254076 c 0.176236,-0.769304 0.129077,-2.089558 -0.122984,-3.415644 -0.441886,-2.324747 -0.426329,-2.475392 0.222866,-2.113805 0.602687,0.335685 0.871151,6.171316 0.344489,7.488943 -0.311679,0.779745 -0.310862,1.104955 0.0027,1.387567 0.767301,0.691497 1.549352,-1.752277 1.414649,-4.420498 -0.102629,-2.032898 -0.03623,-2.379474 0.474947,-2.468963 0.405821,-0.07105 0.759255,0.250506 1.112967,1.013426 0.285048,0.614814 0.682888,1.118138 0.883987,1.118138 0.580412,0 0.424468,-1.849797 -0.243249,-2.885969 -0.600978,-0.932606 -0.597624,-0.951 0.260915,-1.454923 1.45917,-0.856465 3.656685,-3.104679 5.717032,-5.84848 2.92018,-3.888852 3.738487,-4.859545 4.096504,-4.859545 0.210886,0 0.923449,-0.370737 1.583161,-0.824213 0.659708,-0.453478 2.456802,-1.386035 3.993902,-2.072164 l 2.794649,-1.247342 1.430956,0.623978 c 0.786987,0.343363 1.900604,0.722645 2.474617,0.842582 0.574014,0.119934 1.278485,0.400687 1.565492,0.623975 0.643431,0.500578 4.016355,1.237601 4.480404,0.979136 0.678203,-0.377743 1.127029,6.294027 0.616275,9.161248 l -0.295568,1.659447 0.991342,-0.214318 c 0.545296,-0.118084 1.015886,-0.230383 1.0457,-0.249223 0.02981,-0.01885 0.08917,-1.445128 0.131817,-3.169484 0.08184,-3.309087 -0.220282,-5.690541 -0.806527,-6.358559 -0.252399,-0.287607 -0.165051,-0.525856 0.307797,-0.839519 0.79178,-0.525224 0.692462,-0.564514 -2.795324,-1.094258 -1.326663,-0.201499 -3.048704,-0.61772 -3.826757,-0.925248 -0.778049,-0.307528 -1.923435,-0.739567 -2.545283,-0.960152 -1.168493,-0.414497 -1.518113,-0.952192 -0.618992,-0.952192 0.281549,0 1.414373,0.359476 2.517425,0.799106 2.963134,1.180977 6.556597,1.357558 10.099593,0.495998 3.15101,-0.76624 3.492938,-0.709614 8.308518,1.377769 1.382141,0.599107 2.681443,1.089356 2.887736,1.089356 0.206287,0 0.375064,0.148646 0.375064,0.330051 0,0.181405 0.469648,0.477324 1.043661,0.657657 0.574014,0.180336 1.043661,0.433979 1.043661,0.563967 0,0.129986 0.929954,1.186395 2.066939,2.347108 1.136981,1.160716 2.407211,2.697706 2.822504,3.416254 0.858978,1.486216 5.369948,6.687833 5.951448,6.862517 0.600283,0.180326 0.0348,1.313532 -0.827591,1.658225 -0.42756,0.170895 -0.961577,0.663164 -1.187029,1.094253 -1.350716,2.582723 -1.337653,2.536241 -0.820794,2.824121 0.626878,0.349159 1.387471,-0.191269 1.387471,-0.985871 0,-1.117131 1.821438,-3.405845 2.710394,-3.405845 0.365243,0 0.431296,0.191929 0.242567,0.705418 -0.87241,2.373612 -0.188947,6.505521 1.076276,6.505521 0.586725,0 0.57529,0.09742 0.148123,-1.244891 -0.232841,-0.73165 -0.223921,-1.712284 0.02787,-3.015172 l 0.373707,-1.930713 2.14576,-0.4911 c 1.18043,-0.269846 3.39882,-0.556672 4.92952,-0.638062 1.5307,-0.08139 3.05706,-0.246661 3.3919,-0.366792 0.48828,-0.175182 0.6088,-0.05267 0.6088,0.618467 0,1.638557 1.49349,6.754744 1.97181,6.754744 0.64922,0 0.59932,-2.14796 -0.10056,-4.317622 -0.36993,-1.146364 -0.49763,-2.330598 -0.37099,-3.436464 0.22329,-1.949723 -0.26478,-2.378479 -1.7999,-1.582905 -0.50485,0.261638 -2.09208,0.554161 -3.52712,0.650308 -1.43503,0.09615 -3.54248,0.397113 -4.68288,0.668676 -3.175619,0.756218 -3.849469,0.675164 -4.379837,-0.525389 -0.247573,-0.560415 -0.827682,-1.394956 -1.288949,-1.854785 -1.4563,-1.451757 -1.988226,-2.026437 -2.346198,-2.534483 -0.191338,-0.271554 -1.130632,-1.528882 -2.087322,-2.794117 -0.95668,-1.265229 -1.8177,-2.441643 -1.913369,-2.614079 -1.747777,-3.150225 -5.283829,-5.263578 -11.828156,-7.069488 -1.435034,-0.395999 -2.731271,-0.812775 -2.88026,-0.925862 -0.14899,-0.113086 0.02303,-0.546917 0.381861,-0.964438 0.561556,-0.653415 0.842711,-1.933505 0.820794,-3.737736 -0.0031,-0.258653 -0.275505,-1.268949 -0.604725,-2.245458 -0.776619,-2.303551 -0.545824,-2.851257 1.152376,-2.736556 1.874905,0.126635 3.147924,-0.541671 3.553613,-1.865807 0.348461,-1.137339 0.155787,-1.611985 -1.013085,-2.491619 -0.448298,-0.337369 -0.458275,-0.448802 -0.05911,-0.671128 0.39729,-0.221282 0.353641,-0.603779 -0.25752,-2.260153 C 78.753421,11.83855 78.346974,10.588262 78.255136,10.157174 78.163296,9.7260849 77.261198,8.6143196 76.25003,7.6863733 74.223161,5.8263206 70.518952,4.0677111 67.565082,3.5628625 66.613159,3.4001683 65.684645,3.1835449 65.501542,3.0815616 65.267281,2.9510827 63.803168,2.9045663 62.255728,2.9266391 Z m 0.962127,0.8823848 c 2.775922,7.838e-4 3.57777,0.1355594 6.149173,1.0317959 1.626372,0.5668568 3.191863,1.2362632 3.47887,1.4873789 0.550931,0.4820374 0.634657,0.4857717 -3.826757,-0.1702305 -3.15029,-0.4632163 -5.684733,-0.2076634 -8.432859,0.8511545 -2.951355,1.1371197 -4.43503,2.4407268 -5.835261,5.1253043 -0.975434,1.870143 -1.2943,2.039827 -1.769332,0.941782 -1.29431,-2.991822 1.018011,-6.6386447 5.428939,-8.5629916 1.315451,-0.5738897 2.207423,-0.7049146 4.807227,-0.7041935 z m 3.497895,3.0972258 c 1.38769,0.038395 2.773136,0.175665 3.694939,0.3986344 0.86102,0.2082687 1.837602,0.3794299 2.170216,0.3808771 0.774452,0.00338 4.298989,2.8935118 4.539518,3.7224278 0.19872,0.684839 -0.262561,1.153433 -0.621034,0.630712 -0.121872,-0.177712 -0.87672,-0.626267 -1.676923,-0.996892 -1.969224,-0.912075 -7.070277,-0.964508 -11.853294,-0.121857 l -3.440143,0.606219 -1.659936,2.290771 c -0.980237,1.353233 -1.757587,2.838349 -1.899111,3.626902 -0.131794,0.734326 -0.539082,1.956238 -0.905049,2.715736 -0.365967,0.759499 -0.583278,1.455272 -0.482422,1.546165 0.100856,0.0909 0.71472,-0.298374 1.363693,-0.865241 0.962871,-0.841066 1.255099,-1.413861 1.587912,-3.113758 0.594184,-3.034863 0.600123,-3.046254 1.343985,-2.439571 1.166058,0.951016 1.58785,0.268002 0.502126,-0.81319 -0.429254,-0.427462 -0.498612,-0.72836 -0.249365,-1.084458 0.494455,-0.706438 3.105058,-1.553048 5.5825,-1.810082 l 2.130126,-0.220444 0.229661,1.104053 c 0.307786,1.478551 2.141039,2.552056 3.915088,2.292609 1.202729,-0.175895 1.22268,-0.161662 0.939024,0.667452 -0.159454,0.466059 -0.267042,1.588171 -0.239173,2.493457 0.04879,1.585365 0.01663,1.645975 -0.876515,1.645975 -0.510006,0 -1.469335,-0.140365 -2.132164,-0.311682 -0.946795,-0.244712 -1.316206,-0.211187 -1.722448,0.154922 -0.744599,0.671042 -0.163792,1.016208 2.06218,1.225909 1.052358,0.09914 2.422163,0.312267 3.044011,0.473953 1.109551,0.288497 1.130633,0.275577 1.130633,-0.718278 0,-1.070342 0.517502,-1.765381 1.314769,-1.765381 0.678045,0 0.230823,1.648201 -0.828952,3.055586 -0.458626,0.609059 -0.833704,1.299327 -0.833704,1.533917 0,0.659108 -0.558164,0.506028 -1.157131,-0.317805 -0.438968,-0.603765 -0.924197,-0.773715 -2.562271,-0.897081 -1.111381,-0.0837 -2.294694,-0.25775 -2.629535,-0.386388 -0.459333,-0.176465 -0.608802,-0.08486 -0.608802,0.372304 0,0.333262 -0.378348,0.925867 -0.840502,1.317147 -0.992431,0.840235 -1.469061,2.215669 -0.881267,2.543056 0.30669,0.170821 0.294632,0.504547 -0.0496,1.362462 -0.250698,0.624803 -0.555061,1.135894 -0.67607,1.135894 -0.503931,0 -0.619235,-0.424615 -0.313234,-1.149978 0.417983,-0.99074 0.414998,-1.671693 -0.0068,-1.671693 -0.182665,0 -0.434928,0.493792 -0.56056,1.097316 -0.246343,1.183405 -0.532441,1.346316 -1.163247,0.66133 -0.30581,-0.33208 -0.285153,-0.741717 0.08629,-1.713334 0.480414,-1.256661 0.42255,-1.756897 -0.165789,-1.429205 -0.164652,0.09171 -0.299646,0.502878 -0.299646,0.913613 0,0.864509 -0.40478,1.178541 -1.176157,0.911777 -0.478835,-0.165593 -0.460477,-0.334771 0.1556,-1.423082 0.670267,-1.184038 0.654869,-1.840088 -0.04349,-1.840088 -0.180046,0 -0.327504,0.205043 -0.327504,0.455583 0,0.624852 -0.747296,2.05257 -1.074237,2.05257 -0.58325,0 -0.48476,-1.146139 0.168506,-1.961944 0.525181,-0.655849 0.595078,-0.951702 0.288774,-1.227745 -0.306304,-0.276044 -0.461837,-0.219124 -0.643455,0.236976 -0.534608,1.342561 -0.884524,1.452887 -1.881442,0.592135 l -0.946496,-0.817478 -0.234417,1.127323 c -0.278497,1.337856 -0.657538,1.210412 -1.594029,-0.536412 -1.326485,-2.474278 -0.68461,-7.034846 1.287589,-9.147777 0.632535,-0.677671 1.150337,-1.353695 1.150337,-1.502075 0,-1.193279 4.588267,-4.4494679 6.861256,-4.8693438 0.929728,-0.1717444 2.319481,-0.2318939 3.70717,-0.1935005 z m 3.475471,3.8779623 c 0.59846,0 1.068531,1.579357 0.744016,2.500805 -0.214201,0.608217 -0.843275,0.887709 -0.898933,0.399246 -0.01472,-0.129326 -0.100954,-0.834744 -0.19161,-1.567595 -0.127552,-1.031164 -0.04959,-1.332456 0.346527,-1.332456 z m -1.672167,0.154923 c 0.412997,0.03736 0.500087,0.41692 0.500087,1.464722 0,1.781324 -0.769418,1.588519 -1.385432,-0.347198 -0.23578,-0.740902 -0.172357,-0.928248 0.35536,-1.052616 0.219023,-0.05161 0.392319,-0.07736 0.529985,-0.06491 z m 4.123003,0.521715 c 0.128502,0.03242 0.288231,0.107285 0.485139,0.219831 0.296347,0.16938 0.37371,0.551411 0.222188,1.09548 -0.437889,1.572328 -1.19926,1.369565 -1.19926,-0.319643 0,-0.806531 0.106429,-1.092939 0.491933,-0.995668 z m -53.72679,0.601933 c -0.08447,0.01116 -0.192819,0.05048 -0.322067,0.122468 -0.207189,0.1154 -0.276267,0.356257 -0.15356,0.535187 0.144456,0.210643 0.323394,0.178302 0.508241,-0.09123 0.258775,-0.377343 0.220796,-0.599905 -0.03261,-0.566417 z m 55.913993,0.407819 c 0.614859,0.09435 1.870905,1.154777 1.638197,1.494115 -0.191881,0.279799 -0.598084,0.293005 -1.621209,0.05205 -0.668698,-0.157485 -0.828427,-1.191809 -0.235095,-1.522283 0.05545,-0.03088 0.130269,-0.03736 0.218107,-0.02388 z m -11.612765,0.664391 c -0.347616,0.01719 -0.617506,0.128351 -0.97775,0.341075 -0.465306,0.274761 -0.941188,0.768978 -1.057253,1.098541 -0.238233,0.676451 0.753272,2.098241 2.157309,3.093552 1.091106,0.773476 0.976606,0.769639 2.80144,0.09185 1.575907,-0.585331 1.661776,-0.952579 0.581622,-2.49713 -0.267083,-0.381913 -0.485817,-0.881832 -0.485817,-1.110788 0,-0.228958 -0.709091,-0.587163 -1.575685,-0.796045 -0.670927,-0.161719 -1.096247,-0.23825 -1.443866,-0.221055 z m 0.576188,0.513755 c 0.184014,0.03305 0.369682,0.148846 0.59793,0.354546 0.571951,0.515447 0.56516,0.543147 -0.138608,0.543147 -0.408026,0 -1.011148,0.09327 -1.339911,0.206972 -0.764019,0.264217 -0.532688,-0.493148 0.294211,-0.963214 0.220167,-0.125159 0.402366,-0.174501 0.586378,-0.141451 z m 13.831226,0.633774 c 0.221305,-0.08224 0.419823,0.07714 0.591133,0.479464 0.143966,0.338112 -0.07804,0.802077 -0.615596,1.28653 -1.027856,0.926316 -1.340433,0.572261 -0.703247,-0.796657 0.262258,-0.563432 0.506392,-0.8871 0.72771,-0.969337 z m -4.07816,0.301885 c 0.85838,0.01856 2.083244,0.372094 2.083244,0.711541 0,0.278704 -0.495526,0.398363 -1.565491,0.377815 -1.497778,-0.02877 -2.067447,-0.49759 -1.195183,-0.983421 0.145751,-0.08118 0.391303,-0.11212 0.67743,-0.105935 z m -9.448665,0.902592 c 0.175029,0 0.400066,0.281726 0.500087,0.626425 0.213422,0.735499 -0.115947,1.006659 -0.77663,0.638673 -0.490833,-0.273383 -0.274089,-1.265098 0.276543,-1.265098 z m 9.00769,0.991381 c 0.07719,0.01804 0.196595,0.233541 0.430782,0.663167 0.355283,0.65178 0.374364,0.960783 0.07746,1.228357 -0.50128,0.451759 -0.883229,-0.311224 -0.686941,-1.371033 0.06655,-0.359328 0.101514,-0.538532 0.178699,-0.520491 z m 4.819459,0.656431 c 0.08614,0.03638 0.02011,0.14255 -0.157638,0.335564 -0.500821,0.543838 -2.076944,0.867367 -2.342121,0.480688 -0.196859,-0.287058 0.07201,-0.400034 1.743512,-0.732973 0.431342,-0.08591 0.6701,-0.119658 0.756247,-0.08328 z m 1.327676,0.57254 c 0.108043,0.09737 0.0028,0.411218 -0.234417,0.69807 -0.237196,0.286851 -0.979382,0.606034 -1.649064,0.709091 -0.918282,0.141317 -1.089324,0.10516 -0.695774,-0.147574 0.287007,-0.184313 0.788312,-0.337215 1.113645,-0.339849 0.325334,-0.0026 0.743696,-0.250782 0.930191,-0.551109 0.186495,-0.300325 0.427379,-0.465998 0.535419,-0.368629 z m -17.941998,2.199533 c -0.170663,0.0781 -0.29217,0.322755 -0.29217,0.701131 0,0.402349 0.10414,0.825601 0.2317,0.940557 0.428625,0.386282 1.15447,0.213658 1.890275,-0.449459 0.850848,-0.766792 0.390152,-1.617595 -0.510959,-0.943619 -0.343876,0.257198 -0.57777,0.273188 -0.731105,0.0496 -0.197499,-0.287991 -0.417075,-0.376315 -0.587741,-0.298211 z m -45.767517,0.615403 -0.181417,3.439525 c -0.159697,3.036421 -0.113965,3.439028 0.386616,3.438913 0.453926,-1.05e-4 0.584879,-0.390807 0.657045,-1.959494 0.108621,-2.361129 0.411208,-2.625283 3.334822,-2.904339 3.42363,-0.326781 4.904216,-0.123536 5.03281,0.690722 0.09529,0.603362 -0.07314,0.69823 -1.391548,0.783798 -1.907884,0.123826 -2.149496,0.997287 -0.282658,1.021999 1.058513,0.01401 1.231466,0.126267 1.325639,0.861565 0.103506,0.808165 0.06027,0.833742 -0.976393,0.565803 -1.131365,-0.292416 -2.088681,-0.133617 -2.088681,0.346586 0,0.153987 0.704471,0.279841 1.565491,0.279841 1.450323,0 1.565492,0.05934 1.565492,0.807679 0,0.754123 -0.09673,0.80161 -1.4527,0.713378 -0.918464,-0.05976 -1.504202,0.04678 -1.594029,0.289638 -0.128963,0.348668 1.261099,0.565284 2.61187,0.407208 0.252034,-0.02949 0.434859,0.296404 0.434859,0.774612 0,0.784217 -0.06644,0.814416 -1.345345,0.61969 -1.056084,-0.160798 -1.392055,-0.09634 -1.560055,0.298211 -0.265432,0.623368 0.470993,0.909507 1.865816,0.725014 1.1092,-0.146714 1.32924,0.248263 0.714119,1.28408 -0.279186,0.470128 -0.838532,0.545395 -3.913728,0.527838 l -3.588264,-0.02021 -0.04484,-1.254076 c -0.06936,-1.952676 -0.09629,-2.037874 -0.65093,-2.037874 -0.627873,0 -0.615834,-0.139624 -0.660441,7.516498 l -0.03533,6.105051 -1.112967,0.08144 -1.112287,0.08145 -0.04077,-3.20806 C 12.98223,39.034115 12.9705,37.170157 12.97876,36.656885 12.98706,36.14361 12.846795,35.226568 12.666885,34.619011 12.06613,32.59026 11.248383,21.308361 11.67894,20.988277 c 0.06205,-0.04613 0.956777,-0.169825 1.98812,-0.274942 z m 59.036823,2.726759 c 0.459005,-0.109357 0.691077,0.770881 0.697134,2.644093 0.0063,1.942375 -0.456143,2.126264 -0.972316,0.387 -0.5379,-1.812467 -0.523288,-2.483657 0.06455,-2.923321 0.07485,-0.05598 0.145065,-0.09215 0.210635,-0.107772 z m -5.558715,0.07593 c 2.490606,0 3.83888,1.254306 4.305101,4.005329 0.176618,1.042168 0.109692,1.381099 -0.300328,1.522895 -0.290026,0.100305 -0.527264,0.513365 -0.527264,0.917901 0,0.582873 -0.270743,0.803055 -1.304576,1.061801 -1.875549,0.469409 -5.472272,0.35303 -8.069346,-0.260858 -1.788765,-0.422824 -2.3687,-0.717607 -2.868029,-1.458599 -1.025762,-1.522205 -0.700282,-2.64004 0.475624,-1.632504 1.626629,1.393722 2.946032,2.128821 4.597274,2.561427 2.120347,0.555507 4.733844,0.654884 4.733844,0.180029 0,-0.172436 -0.135895,-0.313519 -0.301684,-0.313519 -0.165789,0 -0.221291,-1.00598 -0.123663,-2.235661 0.135091,-1.701569 0.07405,-2.205038 -0.256156,-2.105844 -0.23863,0.07168 -0.484617,0.740266 -0.546294,1.485541 -0.07214,0.871656 -0.392959,1.62414 -0.898933,2.109519 -1.022471,0.980836 -1.671336,0.507825 -1.006969,-0.734198 0.553902,-1.035516 0.693606,-3.272727 0.195004,-3.122945 -0.191348,0.05748 -0.371557,0.534175 -0.400884,1.059964 -0.07729,1.384904 -2.226612,3.842068 -2.226612,2.545506 0,-0.204232 0.253397,-1.227088 0.563278,-2.273013 0.742961,-2.50768 1.705289,-3.312771 3.960613,-3.312771 z m 0.07746,0.721339 c -0.215704,-0.02213 -0.433043,0.09495 -0.546969,0.362506 -0.144297,0.338881 0.0079,0.483751 0.508238,0.483751 0.396421,0 0.652661,-0.165551 0.576188,-0.372304 -0.107358,-0.290257 -0.321754,-0.451822 -0.537457,-0.473953 z m -49.478768,0.219218 c -0.191337,0 -0.358708,0.105813 -0.372347,0.235139 -0.01364,0.129327 -0.09674,0.764203 -0.184136,1.410836 -0.122729,0.908109 -0.03756,1.175697 0.373027,1.175697 0.398094,0 0.531343,-0.354274 0.531343,-1.410837 0,-0.775959 -0.156549,-1.410835 -0.347887,-1.410835 z m 51.748184,1.031796 c -0.239172,0.07903 -0.378275,0.337891 -0.309156,0.574989 0.272917,0.936178 0.12184,2.841685 -0.252083,3.178668 -0.217429,0.195949 -0.39545,0.480843 -0.39545,0.633161 0,0.622142 0.867397,-0.04681 1.511812,-1.165899 0.550949,-0.95677 0.607721,-1.312343 0.284019,-1.779465 -0.22247,-0.321042 -0.404283,-0.809096 -0.404283,-1.084458 0,-0.275364 -0.195687,-0.436029 -0.434859,-0.356996 z m -52.598196,4.298028 c -0.411708,0 -0.541535,0.345303 -0.541535,1.437167 0,1.850394 0.823419,1.741378 0.976393,-0.129204 0.08313,-1.016461 -0.01382,-1.307963 -0.434858,-1.307963 z m 54.743274,0.665616 c 0.120853,0.0044 0.224857,0.03364 0.282658,0.08573 0.1156,0.104179 -0.08987,0.178333 -0.456601,0.16472 -0.405271,-0.01504 -0.487477,-0.08975 -0.209957,-0.189826 0.125566,-0.04528 0.263044,-0.06511 0.3839,-0.06062 z m -9.1762,4.977728 c -0.523208,0 -1.241174,2.249001 -0.992021,3.107636 0.09319,0.321157 -6.95e-4,0.678352 -0.208596,0.794207 -0.408691,0.227631 -0.539392,4.941083 -0.146763,5.29492 0.534198,0.481428 0.722606,0.09887 0.928148,-1.884785 0.119319,-1.151525 0.397089,-2.194029 0.616957,-2.316493 0.219871,-0.122463 0.297847,-0.371278 0.173265,-0.552943 -0.124585,-0.181669 -0.09483,-1.085956 0.06591,-2.009705 0.326343,-1.875465 0.226231,-2.432837 -0.436897,-2.432837 z m 66.616954,1.275509 c 0.31644,-0.0048 0.35617,0.160146 0.2813,0.628264 -0.0937,0.585955 -0.64098,0.924666 -2.7267,1.688225 -1.43504,0.525352 -3.20498,1.272323 -3.93344,1.660059 -0.72845,0.387735 -1.44165,0.704807 -1.58451,0.704807 -0.14287,0 -0.79071,0.493792 -1.43979,1.097316 -0.64908,0.603524 -1.38397,1.097317 -1.63344,1.097317 -0.58036,0 -0.59799,0.614934 -0.019,0.664391 0.94894,0.08106 1.51633,-0.122235 2.36726,-0.84748 0.48882,-0.416617 1.0058,-0.757468 1.14898,-0.757468 0.14319,0 0.8364,-0.352709 1.54035,-0.783798 1.60106,-0.980477 1.81418,-0.978685 1.81418,0.01593 0,0.617707 -0.27721,0.904254 -1.21761,1.258362 -0.92104,0.346818 -1.2176,0.645182 -1.2176,1.225299 0,0.845642 -1.21674,2.007704 -3.01751,2.881679 -0.63898,0.310117 -1.10532,0.707262 -1.03619,0.882998 0.1485,0.377524 1.99441,0.248953 2.47054,-0.172068 0.18177,-0.160732 0.5912,-0.292087 0.90981,-0.292087 0.3186,0 0.96107,-0.27063 1.42756,-0.60132 0.46649,-0.330691 1.42686,-0.699113 2.1342,-0.818703 2.01646,-0.34092 1.66336,0.574176 -0.54017,1.399816 -1.00453,0.376386 -2.29606,0.884197 -2.87007,1.127933 -0.57402,0.243733 -2.74998,1.152076 -4.83509,2.018894 -2.0851,0.866816 -4.00283,1.576167 -4.26161,1.576167 -0.32088,0 -0.47182,-0.423756 -0.47495,-1.332457 -0.003,-0.732851 -0.0862,-1.614623 -0.18617,-1.959494 -0.25208,-0.869781 3.92763,-5.992162 5.88418,-7.21094 5.42901,-3.381855 7.86587,-4.552834 10.60104,-5.095297 0.17307,-0.03433 0.30899,-0.05474 0.41447,-0.05633 z m -1.35622,5.981355 c 0.27274,-0.0074 0.30236,0.185807 0.30236,0.573153 0,0.358727 -0.40225,0.805375 -0.95669,1.062414 -2.43485,1.128813 -3.50762,1.415827 -3.69018,0.987095 -0.22392,-0.52588 0.56712,-1.136205 2.58266,-1.993171 0.97351,-0.413922 1.48911,-0.622045 1.76185,-0.629491 z M 11.252241,43.232828 c 0.413744,0.100502 0.740429,0.519047 0.59929,0.921574 -0.191758,0.54689 -0.75891,0.494711 -1.176837,-0.108383 -0.340947,-0.492012 -0.31421,-0.635309 0.148804,-0.795433 0.143283,-0.04955 0.290828,-0.05129 0.428743,-0.01774 z m 118.299229,2.352005 c 0.40526,0 0.64008,0.141083 0.52183,0.313519 -0.11826,0.172435 -0.35308,0.313519 -0.52183,0.313519 -0.16876,0 -0.40358,-0.141084 -0.52183,-0.313519 -0.11826,-0.172436 0.11657,-0.313519 0.52183,-0.313519 z m -70.399544,0.366793 c -0.167925,0.107097 -0.199697,0.483885 -0.08289,1.122422 0.118281,0.646634 0.210538,1.616161 0.204519,2.154219 -0.006,0.538061 0.218463,2.301606 0.498727,3.918989 0.280262,1.617385 0.457938,4.174948 0.394772,5.68376 -0.08806,2.103625 -0.0086,2.743291 0.340411,2.743291 1.298648,0 0.884774,-13.750935 -0.455242,-15.127297 -0.428273,-0.439885 -0.732368,-0.602483 -0.900293,-0.495384 z m -2.820465,0.251673 c -0.235339,-0.191393 -0.537945,0.41779 -0.826232,1.892749 -0.453164,2.318509 0.127052,5.680011 1.702065,9.86483 0.585755,1.55638 1.130132,3.005986 1.20945,3.221531 0.16709,0.45405 0.861563,0.533483 0.861563,0.09858 0,-0.161211 -0.167452,-0.690274 -0.372347,-1.175696 -0.938846,-2.224265 -2.119954,-8.259379 -2.151194,-10.993375 -0.01973,-1.725446 -0.187967,-2.717233 -0.423305,-2.908624 z m -45.882349,1.040981 1.106171,0.146351 c 0.794801,0.10513 1.106172,0.312948 1.106172,0.737871 0,0.757916 -0.111215,0.745018 -1.26109,-0.146352 z m 3.891306,0.861567 c 0.27131,-0.03683 0.35295,0.593287 0.542894,2.730431 0.22356,2.51538 0.03189,3.052748 -0.775272,2.176265 -0.517762,-0.562234 -0.606802,-4.234314 -0.113471,-4.678906 0.143634,-0.129446 0.255412,-0.215517 0.345849,-0.22779 z m -1.957544,1.104662 c 0.108058,0 0.183452,0.04854 0.220826,0.146351 0.229884,0.601611 -0.102945,0.918617 -0.638019,0.607443 -0.463849,-0.269752 -0.463849,-0.337692 0,-0.607443 0.168185,-0.09781 0.309134,-0.146351 0.417193,-0.146351 z m -0.508241,1.704149 c 0.391859,0 0.800663,0.207352 0.908447,0.460481 0.313046,0.735196 -0.319283,0.835904 -0.998816,0.159208 -0.600523,-0.598012 -0.597234,-0.619689 0.09037,-0.619689 z m 57.583444,2.905564 c -0.773422,-0.102804 -0.865264,0.722974 -0.684224,3.967975 0.111853,2.004867 0.36508,4.029693 0.563278,4.499488 0.198198,0.4698 0.610413,0.854218 0.915924,0.854218 0.475745,0 0.516406,-0.258694 0.284014,-1.802735 -0.149229,-0.991504 -0.249671,-3.025833 -0.223545,-4.520921 0.03792,-2.169646 -0.05933,-2.755431 -0.481061,-2.901277 -0.139479,-0.04823 -0.263897,-0.08206 -0.374386,-0.09675 z M 54.89235,55.303925 c -0.332117,0 -0.484461,0.388404 -0.484461,1.23387 0,1.43525 0.432542,2.593816 1.498903,4.015738 0.419398,0.559237 0.879774,1.017683 1.023278,1.018937 0.389539,0.0032 0.328266,-0.217689 -0.434859,-1.565758 -0.382676,-0.676004 -0.695774,-1.787683 -0.695774,-2.470189 0,-1.543765 -0.280017,-2.232598 -0.907087,-2.232598 z m 20.167928,0.116344 c -0.194785,-0.03141 -0.337401,-0.03145 -0.380501,0.0073 -0.0862,0.07768 0.07974,1.174816 0.368273,2.438348 0.343959,1.506265 0.431241,2.753372 0.253439,3.621391 -0.149146,0.728126 -0.184363,1.402057 -0.07814,1.497787 0.106224,0.09573 0.46468,-0.07677 0.796338,-0.383328 0.610374,-0.564171 0.74891,-1.54764 0.686941,-4.876078 -0.03082,-1.655578 -0.112514,-1.837206 -0.951934,-2.124825 -0.25244,-0.08649 -0.499628,-0.149232 -0.694417,-0.180644 z m -11.084819,1.151204 c -0.286941,-0.04062 -0.526273,0.0253 -0.54629,0.221668 -0.05211,0.511168 -0.294007,2.183993 -0.498728,3.44871 -0.227351,1.404528 0.08682,1.679788 0.989304,0.866463 0.765035,-0.689459 1.387665,-3.577318 0.888061,-4.119835 -0.210962,-0.229082 -0.545403,-0.376379 -0.832347,-0.417006 z m -48.216315,0.16472 c 0.235812,0.02031 0.381181,0.07355 0.381181,0.154923 0,0.161593 -0.652062,0.293924 -1.449303,0.293924 -1.716765,0 -1.661686,-0.154768 0.144727,-0.405983 0.361328,-0.05025 0.687583,-0.06318 0.923395,-0.04286 z m 0.813322,1.263875 c 0.237666,-0.01724 0.701039,0.482947 1.029392,1.111399 0.328353,0.62845 0.994898,1.424904 1.481237,1.769669 0.486339,0.344761 0.883986,0.834186 0.883986,1.088133 0,0.253944 -0.891841,1.327459 -1.982004,2.385071 -1.22206,1.18557 -2.264282,1.922754 -2.717867,1.922754 -0.906406,0 -4.653055,-2.495882 -4.67609,-3.114985 -0.0092,-0.247482 0.726622,-1.479898 1.635476,-2.739006 1.46118,-2.024271 1.783342,-2.295208 2.783096,-2.34037 0.621848,-0.02809 1.325107,-0.06542 1.562774,-0.08267 z m -1.825048,0.752568 c -0.145986,0 -0.845301,0.877819 -1.55462,1.950922 l -1.289628,1.951535 1.243424,1.026896 c 0.684146,0.565034 1.406271,1.027509 1.604221,1.027509 0.713822,0 3.128945,-1.586178 3.128945,-2.05502 0,-0.528518 -2.708059,-3.901842 -3.132342,-3.901842 z m 58.446367,1.254076 c -0.536825,0 -0.695774,0.208938 -0.695774,0.914839 0,0.503204 -0.09517,1.138081 -0.211314,1.410836 -0.132666,0.311575 -0.02379,0.495997 0.292852,0.495997 0.28366,0 0.680292,-0.529628 0.907087,-1.211824 0.526255,-1.582952 0.521378,-1.609848 -0.292851,-1.609848 z m -58.252039,0.373529 c 0.309332,0.05158 0.67758,0.405118 1.183631,1.074659 0.830679,1.099051 0.835992,1.142912 0.194327,1.565759 -0.811902,0.534948 -1.221985,0.534506 -2.005786,-0.0018 -0.715201,-0.489278 -0.751072,-0.820391 -0.205199,-1.900096 0.272835,-0.53966 0.523694,-0.790074 0.833027,-0.738484 z m 6.56161,0.880548 c 0.863036,0 1.267375,0.482586 0.984547,1.175696 -0.221152,0.541965 -0.574597,0.490864 -1.249539,-0.181252 -0.782411,-0.779144 -0.725069,-0.994444 0.264992,-0.994444 z M 8.3067531,61.779443 c 0.4395535,0.100379 0.6181792,0.55043 0.4661143,1.262036 -0.1563199,0.731516 -1.0972208,0.886855 -1.6612962,0.27433 -0.5715025,-0.620589 -0.2734305,-1.294123 0.6713129,-1.516771 0.2018092,-0.04756 0.3773512,-0.05306 0.523869,-0.0196 z m 45.2687889,0.81625 c 0.465588,-0.06555 0.343956,0.863561 -0.357398,2.636746 -0.465991,1.178123 -1.032762,3.059015 -1.259734,4.179846 -0.655954,3.239283 -1.349338,5.205176 -2.265339,6.42163 -0.468172,0.621734 -0.851373,1.246659 -0.851373,1.388181 0,0.141522 -0.333324,0.638636 -0.74062,1.105277 -0.507703,0.581679 -0.628012,0.950183 -0.38254,1.171411 0.418967,0.377565 4.130667,-4.11987 4.443035,-5.383713 0.106547,-0.431088 0.346234,-1.27759 0.53338,-1.881114 0.187142,-0.603524 0.406962,-1.661651 0.488538,-2.351393 0.277795,-2.348879 1.369805,-6.313786 1.871931,-6.79822 0.12232,-0.118008 0.81154,0.03236 1.532195,0.334336 0.720679,0.301979 1.201953,0.64727 1.068802,0.767267 -0.359624,0.324094 -1.856982,4.585978 -1.856982,5.285734 0,0.332478 0.156549,0.517454 0.347887,0.410883 0.191338,-0.106572 0.347887,-0.404618 0.347887,-0.662554 0,-0.257938 0.301942,-1.066015 0.670632,-1.795386 0.368691,-0.729374 0.776693,-1.709275 0.907091,-2.177491 0.23568,-0.846263 0.666572,-1.018084 1.676923,-0.668676 0.601183,0.207903 0.538606,0.434064 -0.867679,3.154174 -0.547636,1.059265 -0.995419,2.01158 -0.995419,2.116254 0,0.104675 0.382032,0.190438 0.848653,0.190438 0.746826,0 0.876449,-0.178298 1.08579,-1.489216 0.130798,-0.819068 0.429998,-1.70084 0.664516,-1.959494 0.234517,-0.258653 0.529967,-0.733127 0.657047,-1.054452 0.167602,-0.423835 0.444909,-0.532603 1.009686,-0.396185 0.428186,0.103427 1.540729,0.189767 2.471901,0.192275 1.590998,0.0041 1.678683,0.0468 1.462892,0.709704 -0.126293,0.387979 -0.371818,2.045711 -0.546294,3.683849 -0.174476,1.638137 -0.42223,3.436953 -0.550367,3.997369 -0.204819,0.895774 -0.143699,1.018937 0.506203,1.018937 0.468541,0 0.742787,-0.200919 0.748771,-0.548659 0.03013,-1.753534 0.683932,-6.426436 1.055892,-7.545279 0.396,-1.191163 0.540272,-1.311636 1.570247,-1.311636 0.623748,0 1.347269,-0.07346 1.607621,-0.163493 0.384109,-0.132836 0.485636,0.695059 0.537457,4.390489 0.03513,2.504793 0.249547,5.153026 0.476985,5.885222 0.227438,0.732192 0.447424,3.553297 0.488537,6.269156 l 0.07474,4.937926 -1.258373,-0.0098 c -0.691884,-0.0052 -1.492515,-0.127121 -1.779522,-0.271247 -0.287006,-0.144124 -1.226301,-0.357988 -2.087321,-0.475179 -0.861021,-0.117189 -2.132972,-0.566409 -2.826582,-0.998116 -1.151829,-0.716899 -1.739675,-0.810045 -6.783795,-1.074661 -3.037478,-0.159349 -6.227177,-0.439093 -7.088197,-0.621527 -2.257567,-0.47833 -6.050756,-1.676838 -6.306129,-1.992562 -0.120087,-0.148469 0.305785,-1.065513 0.946496,-2.037873 1.441894,-2.188273 3.204939,-5.463177 4.49671,-8.351732 0.539795,-1.207049 1.580899,-3.268892 2.313584,-4.582154 0.732684,-1.313262 1.332435,-2.610097 1.332435,-2.881683 0,-0.271589 0.14599,-0.574982 0.324105,-0.674188 0.0905,-0.05041 0.168583,-0.08003 0.235095,-0.0894 z m 29.912162,0.232691 c 0.367438,0 1.533684,1.386616 2.043836,2.429773 0.274069,0.560415 0.663184,1.018937 0.864283,1.018937 0.201103,0 0.365553,0.131847 0.365553,0.293312 0,0.161467 1.197778,2.101366 2.661471,4.310889 3.026091,4.568057 4.082446,6.542572 3.824717,7.147868 -0.0983,0.230857 -0.737231,0.601904 -1.419406,0.824211 -1.016261,0.331182 -1.240026,0.561155 -1.240026,1.274282 0,0.610666 -0.285441,1.03029 -0.956689,1.405939 -0.526179,0.29446 -1.269787,0.772994 -1.652463,1.063639 -0.382676,0.290647 -1.2183,0.523156 -1.856982,0.516814 -0.638679,-0.0064 -1.264875,0.118407 -1.391548,0.277392 -0.282749,0.354885 -1.899821,0.839501 -5.100757,1.528406 -1.339364,0.288259 -3.001019,0.656067 -3.6929,0.816864 -1.754025,0.407644 -3.091549,0.364225 -3.085461,-0.09981 0.0028,-0.215544 0.23355,-1.265608 0.512997,-2.333636 0.537399,-2.053892 0.444676,-6.58528 -0.155596,-7.596103 -0.17818,-0.300029 -0.415084,-1.521371 -0.525907,-2.714512 -0.110823,-1.19314 -0.333961,-3.016029 -0.496011,-4.050642 -0.162049,-1.034613 -0.272092,-2.022866 -0.244609,-2.196471 0.117916,-0.744934 1.23058,-1.772389 1.810779,-1.671693 0.506722,0.08794 0.738449,0.753456 1.239347,3.555871 0.338901,1.896098 0.846444,3.941277 1.127916,4.544802 0.281472,0.603524 0.6101,1.414754 0.729749,1.802734 0.129702,0.420576 0.489247,0.705418 0.8901,0.705418 0.802126,0 0.795659,0.05195 0.187532,-1.634952 -0.435134,-1.207026 -1.590393,-5.335612 -2.100232,-7.506089 -0.107626,-0.458177 -0.283427,-1.040981 -0.391373,-1.294493 -0.152949,-0.359208 0.249244,-0.510453 1.824368,-0.686434 1.111652,-0.124197 2.549642,-0.423784 3.194854,-0.665617 0.645216,-0.24183 1.361272,-0.43966 1.591312,-0.43966 0.635986,0 3.685608,6.740451 3.674556,8.121493 -0.0047,0.58734 1.544113,3.509502 2.610509,4.925677 0.940596,1.249119 0.873018,1.581826 -0.409717,2.021342 -0.624555,0.213992 -0.803362,0.453691 -0.654327,0.876875 0.170239,0.483375 -0.165671,0.702017 -1.97725,1.288366 -2.661478,0.861434 -3.068728,1.162259 -2.038399,1.505748 0.585414,0.195166 1.391047,-0.0039 3.190096,-0.788083 2.147249,-0.936037 3.03699,-1.648425 2.058784,-1.648425 -0.748913,0 -0.292506,-0.583271 0.70053,-0.895244 0.576536,-0.181126 1.132737,-0.527314 1.235952,-0.769714 0.103214,-0.242401 -0.460286,-1.371405 -1.251579,-2.508765 -0.791297,-1.137359 -1.668062,-2.885902 -1.94871,-3.88531 -0.280647,-0.999405 -0.806349,-2.381152 -1.168002,-3.070895 -0.361653,-0.689742 -0.974929,-1.913307 -1.363011,-2.7188 -0.388082,-0.805484 -0.867289,-1.554374 -1.064725,-1.664344 -0.376828,-0.209885 -0.507606,-1.416959 -0.153561,-1.41696 z m -4.464096,3.135191 c -0.221346,0 -0.158462,0.173216 0.142011,0.391899 0.780672,0.568168 1.681679,2.873124 1.681679,4.301702 0,0.842726 0.192412,1.33311 0.608802,1.551675 0.832194,0.436823 1.237298,0.416083 1.040944,-0.05327 -0.09018,-0.215544 -0.433725,-1.238401 -0.76372,-2.273013 -0.611975,-1.918692 -1.995104,-3.91899 -2.709716,-3.91899 z m -63.214183,1.584127 c 0.157166,-0.01282 0.285003,0.1365 0.529304,0.435378 0.2736,0.334719 0.49737,0.793241 0.49737,1.018937 0,0.481941 -1.937865,0.568648 -2.258548,0.101034 -0.116722,-0.170202 0.120064,-0.628725 0.525908,-1.018936 0.362384,-0.348426 0.548799,-0.523574 0.705966,-0.536413 z m 43.194378,10.414101 c -0.18877,-0.0095 0.426864,0.782735 1.740113,2.127278 1.266183,1.296351 1.92211,1.756598 2.174294,1.524732 0.251101,-0.230867 0.09582,-0.518194 -0.508921,-0.943007 -0.478344,-0.336026 -1.456776,-1.133509 -2.174293,-1.772119 -0.715301,-0.636636 -1.117931,-0.931218 -1.231193,-0.936884 z m -6.112485,6.891298 c 0.360181,-0.02561 0.830451,0.05415 1.431638,0.20391 0.907738,0.226129 2.71235,0.475345 4.010211,0.55417 2.387771,0.145015 7.760294,1.417664 8.393455,1.988275 0.189393,0.170683 0.782419,0.310456 1.318164,0.310456 0.535746,0 0.974355,0.137613 0.974355,0.305559 0,0.774383 -2.970683,7.09237 -3.463921,7.367085 -0.172826,0.09625 -0.418793,0.984185 -0.546972,1.972967 -0.128179,0.988791 -0.376121,2.403898 -0.551046,3.144377 -0.174928,0.74048 -0.465563,2.97414 -0.645493,4.96365 -0.305073,3.37317 -0.422283,3.77306 -1.73468,5.92808 -1.170897,1.92267 -1.407175,2.60542 -1.407175,4.0635 0,1.63607 -0.101019,1.85057 -1.522683,3.22827 -0.837587,0.81168 -1.871712,2.11061 -2.297957,2.88657 -0.426242,0.77596 -1.143706,2.04572 -1.594029,2.82167 -0.450325,0.77596 -0.825128,1.80321 -0.833025,2.28282 -0.009,0.54717 -0.241069,0.93698 -0.623073,1.04649 -0.334841,0.096 -1.195861,0.4535 -1.913378,0.79421 l -1.304576,0.61969 -0.05504,-1.50942 c -0.03016,-0.8301 -0.02373,-1.72105 0.01426,-1.9797 0.03799,-0.25865 0.130141,-1.65155 0.204519,-3.09539 0.07438,-1.44385 0.327963,-3.0439 0.563278,-3.55587 0.318807,-0.69363 0.326349,-0.98734 0.02988,-1.15243 -0.754675,-0.42034 -0.02974,-6.21497 0.814,-6.50675 0.241924,-0.0837 0.368276,-0.39711 0.281301,-0.69684 -0.08787,-0.30281 0.420112,-1.30387 1.142864,-2.25281 1.32196,-1.7357 2.081495,-4.55754 1.51453,-5.62681 -0.461778,-0.87103 -1.030734,-2.70443 -1.030734,-3.32257 0,-0.337362 -0.211706,-0.891898 -0.470872,-1.232031 -0.651745,-0.855357 -0.923538,-2.081782 -1.109568,-5.007729 -0.08771,-1.379483 -0.270683,-3.425199 -0.406321,-4.54603 -0.350827,-2.899002 -0.262456,-3.920575 0.818077,-3.997369 z M 4.5295977,88.245474 c 0.055901,0.173948 0.1104053,0.348424 0.1664694,0.52233 0.032431,0.01975 0.065464,0.0395 0.099202,0.06001 -0.076716,-0.16332 -0.1803795,-0.396064 -0.2656715,-0.582336 z m 1.9126988,4.928744 c 0.052765,0.09988 0.100491,0.192315 0.1515211,0.290249 3.156e-4,-0.02249 0.00204,-0.04489 0.00204,-0.06739 v -6.08e-4 c 0,-0.01371 0.0025,-0.0251 0.00272,-0.03862 -0.050781,-0.06285 -0.1048919,-0.121616 -0.1562773,-0.183704 z m -3.1608791,1.888461 -0.00204,0.296379 c 0.056417,0.05088 0.1081939,0.104972 0.1651104,0.155532 0.00773,-0.04624 0.00399,-0.04094 0.013589,-0.0992 0.2329172,-0.0098 0.3861485,-0.03302 0.5625985,-0.05262 l -0.074062,-0.102877 c -0.00669,0.193493 -0.3089803,0.04518 -0.665198,-0.197171 z m 76.5514346,0.233297 c -0.06772,-9.65e-4 -0.126909,0.01699 -0.173943,0.05938 -0.37799,0.340644 -0.206541,1.123989 0.37235,1.700472 0.772768,0.76954 1.163926,0.722195 1.163926,-0.140837 0,-0.630896 -0.888267,-1.610997 -1.362333,-1.619039 z M 4.2802334,95.725228 c -0.030311,0.01043 -0.060423,0.02105 -0.091048,0.03186 0.038138,0.0029 0.08021,0.0058 0.1202656,0.0097 z m -0.091048,0.03186 c -0.1930231,-0.01323 -0.3597541,-0.01815 -0.4946517,-0.01284 0.046637,0.04171 0.090409,0.08534 0.1365728,0.12737 0.1153292,-0.03311 0.2350658,-0.07125 0.3580789,-0.114511 z m -0.3580789,0.114501 c -0.1184353,0.03398 -0.2322003,0.06179 -0.3336182,0.07347 4.937e-4,0.0039 0.00276,0.01371 0.0034,0.0196 0.049712,0.04257 0.089007,0.06961 0.1365729,0.108997 0.1223683,-0.01014 0.2436307,-0.0279 0.365553,-0.04161 -0.056925,-0.05368 -0.113776,-0.107492 -0.1719052,-0.160436 z m 0.171905,0.160436 c 0.020448,0.01931 0.041583,0.03813 0.061831,0.05754 0.1169807,-0.01516 0.2529923,-0.03978 0.4239872,-0.07347 l -0.026499,-0.03678 c -0.152936,0.01902 -0.3061078,0.03543 -0.4593194,0.05262 z m -0.7093632,-0.07714 c 0.00902,0.222669 0.033029,0.433916 0.074062,0.625198 0.00578,-0.01091 0.014295,-0.02221 0.019705,-0.03311 -0.00555,-0.142971 -0.01574,-0.406709 -0.014948,-0.484359 -0.029335,-0.04287 -0.05061,-0.06758 -0.078818,-0.107772 z m 7.0725687,5.052425 c 6.26e-4,0.31515 5.92e-4,0.63031 0.0014,0.94547 0.03083,-0.27596 0.02104,-0.60307 -0.0014,-0.94547 z m 49.795397,2.26506 c -0.952442,0 -1.37127,0.74545 -0.881946,1.56944 0.421872,0.71039 0.460919,2.81983 0.05232,2.81983 -0.161684,0 -0.577079,-0.28217 -0.923397,-0.62704 -0.694344,-0.69145 -1.565491,-0.83482 -1.565491,-0.2578 0,0.20299 0.508785,0.76148 1.130633,1.24122 0.621848,0.47975 1.148997,0.87781 1.171401,0.88483 0.298992,0.0935 1.806288,-2.5993 1.654502,-2.95578 -0.114271,-0.26836 -0.02063,-0.69114 0.207914,-0.93933 0.62444,-0.67806 0.108969,-1.73537 -0.845935,-1.73537 z m 24.261037,3.18908 c -0.23864,-0.072 -0.47999,0.0776 -0.800411,0.42557 -0.364725,0.39605 -0.317798,0.6006 0.271786,1.1757 0.39257,0.38292 0.909847,1.29584 1.149659,2.02869 0.478268,1.46154 0.559211,1.51005 1.473085,0.88544 0.343727,-0.23494 0.955611,-0.34932 1.359612,-0.25412 0.555085,0.13083 0.385376,-0.14134 -0.693735,-1.11384 -0.785393,-0.70781 -1.675156,-1.71776 -1.97725,-2.24424 -0.308538,-0.53771 -0.544102,-0.83121 -0.782746,-0.9032 z m -26.917753,9.17594 c -0.435171,-0.24238 -2.713598,1.92713 -2.736211,2.60552 -0.0072,0.21554 0.221914,0.3919 0.508921,0.3919 0.287006,0 0.52183,-0.13606 0.52183,-0.3025 0,-0.16643 0.474775,-0.78996 1.055211,-1.38573 0.722725,-0.74182 0.92795,-1.15452 0.650249,-1.30919 z m 43.342502,8.07679 c -1.043839,0.0113 -1.225968,0.29998 -1.00561,1.05813 0.16126,0.55483 0.5708,0.60871 5.11502,0.67602 5.00657,0.0742 11.96325,0.28083 19.5503,0.5805 3.62662,0.14324 12.0217,0.75181 17.83532,1.29266 1.00805,0.0937 1.91799,0.29374 2.02141,0.44456 0.10343,0.15082 0.64809,0.27433 1.21081,0.27433 0.7912,0 1.02328,-0.14214 1.02328,-0.62704 0,-0.4271 -0.24959,-0.64227 -0.78275,-0.6748 -0.98965,-0.0603 -1.35013,-0.12396 -2.00035,-0.35394 -1.02893,-0.36392 -7.16751,-1.07826 -11.48027,-1.33551 -3.78172,-0.22558 -6.2167,-0.38593 -9.04506,-0.59581 -1.24369,-0.0923 -6.01844,-0.23576 -10.61055,-0.31903 -4.59211,-0.0833 -9.30973,-0.23898 -10.48349,-0.34597 -0.55654,-0.0507 -1.00011,-0.0778 -1.34806,-0.0742 z m -56.404568,0.37169 c -3.884944,-0.0317 -10.799109,0.2039 -14.213085,0.54499 -1.913378,0.19116 -4.339889,0.38611 -5.392247,0.43292 -3.109272,0.13832 -9.542561,0.86923 -9.867216,1.1212 -0.165099,0.12813 -0.19878,0.38126 -0.07474,0.56214 0.137793,0.20092 0.525372,0.22859 0.996098,0.0716 0.6855,-0.22857 3.102138,-0.44686 9.293746,-0.84075 1.052358,-0.067 2.774398,-0.19052 3.826756,-0.27433 6.809897,-0.54235 12.506459,-0.77675 15.768383,-0.64847 2.834113,0.11146 3.731046,0.0554 3.626314,-0.22779 -0.07654,-0.20694 -0.675018,-0.48371 -1.330396,-0.61479 -0.379965,-0.076 -1.33863,-0.1162 -2.633612,-0.12676 z m 26.228773,2.45917 10.175694,0.076 v 1.20263 1.20265 l -2.00035,-0.22595 c -1.100193,-0.12416 -3.252743,-0.22417 -4.783446,-0.22228 -1.530703,0.002 -3.72239,0.0582 -4.870417,0.12552 -1.148027,0.0673 -4.537636,0.0834 -7.532567,0.0355 -4.284026,-0.0685 -5.485537,-0.18081 -5.63278,-0.52662 -0.582519,-1.36804 2.82066,-1.75565 14.643866,-1.6674 z m 26.568506,0.57499 c -0.561716,0.0306 -0.732855,0.17662 -0.964162,0.46171 -0.429164,0.52893 -0.413683,0.6263 0.129779,0.80829 0.339938,0.11383 3.905842,0.22202 7.923932,0.24064 10.59068,0.049 20.63609,0.3406 22.43871,0.65093 0.86102,0.14822 1.87859,0.26119 2.26127,0.25106 1.46854,-0.0388 11.92814,1.06491 13.91547,1.46839 1.14803,0.23309 2.20474,0.43852 2.34824,0.4562 0.35757,0.044 0.33103,-0.83244 -0.0312,-1.03425 -0.37662,-0.20977 -4.88682,-0.66388 -12.75359,-1.28347 -3.44408,-0.27125 -7.62797,-0.63258 -9.29782,-0.80277 -1.66985,-0.17021 -6.60115,-0.37891 -10.95844,-0.46417 -4.35729,-0.0853 -9.62463,-0.32072 -11.70517,-0.52354 -1.792704,-0.17478 -2.745246,-0.25964 -3.306965,-0.22902 z m -48.414721,0.60683 c 0.12325,0 0.411265,0.4651 0.639382,1.03363 0.228113,0.56852 0.636379,1.30721 0.907765,1.64169 0.45688,0.5631 0.541229,0.57081 1.134032,0.10165 1.291408,-1.02205 2.679136,-1.46405 3.597095,-1.14569 0.498369,0.17285 4.954558,0.27436 10.436609,0.23759 5.26179,-0.0353 10.858421,-0.0474 12.436958,-0.0264 l 2.870068,0.0386 v 0.97424 0.97424 l -3.565842,-0.25107 c -4.503424,-0.31734 -9.423102,-0.33893 -16.176743,-0.0716 l -5.305276,0.21004 v -0.76115 c 0,-0.41856 -0.151049,-0.76114 -0.335655,-0.76114 -0.465355,0 -1.055893,1.07056 -1.055893,1.91419 0,1.3868 -0.899851,1.83666 -3.275028,1.63678 l -2.153911,-0.18125 -2.098193,1.92031 c -1.771134,1.62111 -2.283767,1.91865 -3.286579,1.90805 -1.337848,-0.0141 -2.923085,-0.68335 -3.209121,-1.35511 -0.265949,-0.62459 1.021229,-1.6142 3.013435,-2.31648 1.488017,-0.52456 1.831266,-0.83359 2.898604,-2.6092 1.207593,-2.00893 2.103569,-3.11192 2.528293,-3.11192 z m 22.957822,4.32374 c 4.94091,0.0582 8.404973,0.29432 8.772596,0.63562 0.126633,0.11756 0.320671,1.3071 0.431459,2.64348 0.110792,1.33637 0.08536,2.42049 -0.0564,2.40895 -0.141753,-0.0116 -0.961987,-0.22091 -1.823007,-0.46537 -4.780506,-1.35734 -17.082415,-1.89059 -25.478642,-1.10406 -2.628714,0.24626 -4.881877,0.35585 -5.006991,0.2431 -0.329793,-0.29722 0.525922,-1.12552 1.754384,-1.69803 0.832824,-0.38812 2.15845,-0.49142 6.113163,-0.47639 5.339832,0.0203 14.587328,0.49313 20.306541,1.03853 3.090763,0.29473 4.602332,0.22505 3.317836,-0.15309 -4.378116,-1.28885 -9.86638,-1.7908 -19.210561,-1.75743 -5.347419,0.0191 -5.844289,-0.0257 -5.739457,-0.51619 0.138428,-0.6478 0.397587,-0.66646 11.245853,-0.79544 1.915215,-0.0228 3.726252,-0.0231 5.373222,-0.004 z m -40.965047,1.78988 c -3.648958,-0.01 -7.075316,0.14694 -8.415874,0.38394 -1.243625,0.21986 -3.056532,0.39986 -4.029237,0.39986 -2.018742,0 -2.228055,0.10453 -1.972492,0.98526 0.101404,0.34948 0.27985,0.49947 0.396808,0.33311 0.321734,-0.45761 5.219541,-0.85736 14.649982,-1.19529 3.157074,-0.11313 5.805137,-0.25737 5.884861,-0.32087 0.532301,-0.42394 -1.113192,-0.57221 -6.514048,-0.58601 z m 3.473434,3.27787 c -6.073416,-0.0161 -16.956444,0.47385 -17.554022,0.94729 -0.149776,0.11867 -0.167057,0.46283 -0.03873,0.76421 0.164826,0.38709 0.449178,0.488 0.96824,0.34413 1.902412,-0.52727 7.973722,-0.92668 14.215122,-0.93505 4.915738,-0.007 6.870771,-0.11101 6.870768,-0.3674 0,-0.1971 -0.24771,-0.444 -0.550368,-0.54866 -0.396688,-0.13718 -1.886539,-0.19915 -3.91101,-0.20452 z m 6.363207,0.43477 c 0.100567,-0.0334 0.249327,-0.02 0.446409,0.0539 0.334841,0.12554 1.35241,0.29972 2.261265,0.387 1.859055,0.17852 2.063237,0.43684 0.766436,0.96933 -1.278442,0.52496 -2.400573,0.44825 -3.060994,-0.20941 -0.580958,-0.57854 -0.714817,-1.10069 -0.413116,-1.2008 z m -14.914975,3.19703 c -1.909789,0.0284 -3.468152,0.17972 -5.33789,0.46354 -1.984054,0.30118 -2.870067,0.56994 -2.870067,0.87075 0,0.34537 0.448606,0.39515 2.174293,0.24188 1.850534,-0.16436 10.184554,-0.19314 16.959489,-0.0588 1.487568,0.0295 1.913378,-0.0667 1.913378,-0.43232 0,-0.38312 -0.999373,-0.53332 -5.392248,-0.81135 -3.27595,-0.20735 -5.537165,-0.3021 -7.446955,-0.27372 z m 36.04503,1.24489 c -2.177901,0.002 -4.234779,0.10933 -7.203027,0.32332 -3.444081,0.24829 -6.965372,0.4879 -7.82474,0.53273 -1.215983,0.0634 -1.589739,0.21332 -1.687116,0.67542 -0.119005,0.56474 0.07614,0.58387 3.997305,0.39006 8.116644,-0.40117 22.611385,-0.55921 25.344107,-0.27617 2.759271,0.2858 4.000699,0.21554 4.000699,-0.22656 0,-0.27497 -4.591955,-0.86024 -8.697174,-1.10834 -3.453227,-0.20869 -5.752154,-0.31226 -7.930054,-0.31046 z m -27.717486,1.66741 c -1.353896,0.008 -3.163229,0.0361 -5.577062,0.0735 -3.444081,0.0533 -7.162123,0.0956 -8.262315,0.0943 -1.63082,-0.002 -2.00035,0.0936 -2.00035,0.51682 0,0.28549 0.06755,0.57953 0.150162,0.65398 0.08262,0.0744 1.295872,0.0579 2.696124,-0.0368 3.082026,-0.20835 15.560032,-0.19891 16.279342,0.0123 0.332351,0.0976 0.555298,-0.0983 0.632584,-0.55479 0.10623,-0.62747 0.143203,-0.78343 -3.918485,-0.7593 z m -30.6473464,1.62148 c -0.3632178,0 -0.1091543,2.14431 0.2833376,2.3912 0.2391723,0.15043 2.1028763,0.27372 4.1413496,0.27372 2.0384735,0 3.6440852,0.0913 3.5678792,0.20268 -0.196084,0.28644 14.551431,0.14318 15.066495,-0.14635 0.233321,-0.13115 1.329165,-0.21714 2.435209,-0.19105 1.106044,0.0261 2.928376,-0.11351 4.049621,-0.31046 1.471527,-0.2585 2.165641,-0.26348 2.495002,-0.0172 0.332248,0.2485 0.665505,0.22989 1.225078,-0.0686 0.55021,-0.29346 0.808701,-0.3091 0.911165,-0.0563 0.09393,0.23173 0.826119,0.29836 2.129449,0.19411 2.479805,-0.19834 11.371197,-0.26796 14.161445,-0.11083 1.148027,0.0647 2.279432,0.25421 2.514026,0.42129 0.238462,0.16983 1.158843,0.21281 2.087322,0.0974 2.821422,-0.35084 9.933984,-0.20372 12.792999,0.26453 1.750008,0.28662 10.610552,-0.4784 10.610552,-0.91607 0,-0.65721 -1.87111,-0.774 -12.407061,-0.774 -5.62809,0 -11.6748,-0.14252 -13.437133,-0.31658 -1.762336,-0.17406 -5.14608,-0.35219 -7.51966,-0.39619 -3.87472,-0.0718 -4.332198,-0.0234 -4.476324,0.47335 -0.211734,0.72968 -0.663233,0.70055 -1.1218,-0.0716 -0.322293,-0.54273 -0.687689,-0.61571 -2.795327,-0.55846 -1.333517,0.0362 -2.424337,0.18131 -2.424337,0.3221 0,0.14079 -0.294354,0.11421 -0.654327,-0.0594 -0.433897,-0.20928 -1.924985,-0.21566 -4.424007,-0.0178 -4.424965,0.35033 -26.9990983,0.0766 -28.2216499,-0.34229 -0.461147,-0.15802 -0.9060906,-0.2872 -0.9893035,-0.2872 z m 140.3948014,1.13649 c -12.03209,0.003 -61.075661,0.51342 -61.217905,0.63684 -0.521566,0.45249 1.514634,0.60329 8.908488,0.66071 4.802937,0.0373 8.397719,0.19183 8.595257,0.36985 0.18675,0.16832 0.48317,0.2262 0.6584,0.1286 0.17523,-0.0976 2.14615,-0.24093 4.37984,-0.31903 2.23369,-0.0781 5.54701,-0.25878 7.3627,-0.40109 1.99697,-0.15652 3.64484,-0.14056 4.17125,0.0398 0.51726,0.17724 3.48153,0.21537 7.30902,0.0943 7.81612,-0.24724 15.50476,-0.21048 19.48506,0.0931 4.07622,0.31086 4.94038,0.19556 4.80451,-0.64052 -0.10328,-0.6356 -0.29306,-0.66381 -4.45662,-0.66255 z" />
    <text
       xml:space="preserve"
       style="font-size:13.2102px;line-height:1.25;font-family:Hultog;-inkscape-font-specification:Hultog;stroke-width:0.330256"
       x="109.95875"
       y="84.915611"
       id="text1945"
       transform="scale(1.0533848,0.9493207)"><tspan
         sodipodi:role="line"
         id="tspan1943"
         x="109.95875"
         y="84.915611"
         style="stroke-width:0.330256">V</tspan></text>
  </g>
</svg>
