<?xml version="1.0" encoding="UTF-8" standalone="no"?>
<!-- Created with Inkscape (http://www.inkscape.org/) -->

<svg
   version="1.1"
   id="svg2"
   width="4cm"
   height="4cm"
   viewBox="0 0 151.1811 151.18112"
   sodipodi:docname="06.svg"
   inkscape:version="1.1.2 (0a00cf5339, 2022-02-04)"
   xmlns:inkscape="http://www.inkscape.org/namespaces/inkscape"
   xmlns:sodipodi="http://sodipodi.sourceforge.net/DTD/sodipodi-0.dtd"
   xmlns="http://www.w3.org/2000/svg"
   xmlns:svg="http://www.w3.org/2000/svg">
  <defs
     id="defs6" />
  <sodipodi:namedview
     id="namedview4"
     pagecolor="#505050"
     bordercolor="#eeeeee"
     borderopacity="1"
     inkscape:pageshadow="0"
     inkscape:pageopacity="0"
     inkscape:pagecheckerboard="0"
     showgrid="false"
     inkscape:zoom="1.5835095"
     inkscape:cx="208.39787"
     inkscape:cy="236.5"
     inkscape:window-width="1920"
     inkscape:window-height="1043"
     inkscape:window-x="0"
     inkscape:window-y="0"
     inkscape:window-maximized="1"
     inkscape:current-layer="svg2"
     units="cm"
     inkscape:document-units="cm" />
  <!-- Border -->
  <path
     id="border"
     class="board-border"
     style="fill:none;stroke:#000000;stroke-width:0.1cm"
     d="M 0,0 H 151.18111 V 151.18111 H 0 Z" />
  <g
     inkscape:groupmode="layer"
     inkscape:label="Image"
     id="g8">
    <path
       id="path12"
       style="fill:#000000;stroke-width:0.342465"
       d="m 133.45953,2.6307403 c -0.28776,0.057904 -0.60576,0.250527 -1.12507,0.6120772 -0.98013,0.6823925 -1.28623,0.7543646 -1.8854,0.4447599 -1.92969,-0.9971296 -6.02386,2.6225123 -6.02386,5.3255586 0,0.8279989 0.91977,-0.2242536 1.6648,-1.9043756 0.45702,-1.0306288 0.8658,-1.4796936 1.34714,-1.4796936 0.38007,0 0.93796,-0.078183 1.23977,-0.1740102 0.63913,-0.2029257 0.57615,1.0282902 -0.13016,2.5359223 -0.2342,0.499928 -0.56369,1.6799879 -0.73165,2.6223181 -0.16797,0.942331 -0.42458,2.098829 -0.57063,2.569994 -0.19435,0.627058 -0.12615,0.856665 0.25444,0.856665 0.32613,0 0.69943,-0.667637 1.00152,-1.791208 0.94469,-3.5137202 2.3025,-6.1628527 3.44504,-6.7212885 2.18733,-1.0690889 2.17656,-0.88375 -0.30074,5.2415945 l -1.51186,3.738174 1.00521,0.699082 c 1.57347,1.094839 2.02889,0.892486 3.32813,-1.479693 1.08073,-1.973238 2.0071,-2.799204 2.00673,-1.789384 -3e-4,0.605102 -1.43159,3.619124 -2.69942,5.685139 -1.10665,1.803367 -3.49891,4.205445 -4.18848,4.205445 -0.18415,0 -0.76548,0.280363 -1.29197,0.623029 -0.5265,0.342666 -1.27003,0.623029 -1.6523,0.623029 -0.44916,0 -0.77983,0.303053 -0.93462,0.856664 -0.13174,0.471166 -0.66138,1.697754 -1.17653,2.725752 -1.5628,3.11863 -1.89041,3.948846 -2.58177,6.541803 -0.89872,3.370696 -3.31525,7.275223 -4.63849,7.493991 -0.5381,0.08896 -1.5834,0.426301 -2.32219,0.749581 -1.99946,0.874917 -8.3637,2.194283 -10.8587,2.251178 -2.11096,0.04814 -6.810667,-1.058881 -6.810667,-1.604421 0,-0.484539 2.030027,-0.946711 4.159057,-0.946711 1.23267,0 2.2413,-0.08288 2.2413,-0.184354 0,-0.101476 -0.33885,-0.540895 -0.75299,-0.976523 -0.97903,-1.029835 -0.95194,-1.533717 0.0942,-1.751054 0.46591,-0.0968 1.17979,-0.377129 1.58611,-0.623029 0.62852,-0.380362 0.66354,-0.522325 0.23604,-0.948536 -0.50578,-0.504249 -1.92112,-0.702076 -1.9104,-0.267099 0.003,0.1285 0.16621,0.443949 0.36253,0.700908 0.41355,0.541306 -0.3119,0.877611 -1.96849,0.912641 -1.11455,0.02358 -1.439394,0.761409 -0.47062,1.069004 0.93036,0.295395 0.63875,0.820234 -0.47061,0.846931 -0.569446,0.01371 -2.051882,0.259949 -3.294304,0.546976 -1.784503,0.412257 -2.25895,0.651027 -2.25895,1.136541 0,0.678317 2.713029,1.941128 6.007694,2.796328 1.75251,0.454905 4.90184,1.991901 4.5973,2.243876 -0.0761,0.06301 -1.42975,-0.04425 -3.00825,-0.238501 -3.250506,-0.400017 -4.020074,-0.27119 -4.020074,0.67231 0,0.597029 -0.143386,0.64019 -1.497879,0.450845 -1.655599,-0.231436 -3.773004,0.04416 -3.773004,0.491 0,0.157717 0.465909,0.288942 1.035352,0.291434 0.569444,0.0025 1.223722,0.107762 1.453759,0.233636 0.496295,0.271575 0.847294,2.356514 1.219185,7.237845 0.150111,1.970329 0.478371,3.888401 0.729453,4.262636 0.251082,0.374235 0.451391,1.565777 0.444878,2.647873 -0.01013,1.687203 -0.134683,2.041569 -0.875784,2.486642 -1.281446,0.769584 -1.838687,0.270183 -2.021436,-1.812503 -0.197636,-2.252327 -0.795054,-3.349192 -1.894963,-3.478984 -1.003063,-0.118366 -1.027392,0.06701 -0.247806,1.85205 0.327424,0.749706 0.591276,1.91911 0.586796,2.599198 -0.0096,1.449798 0.4642,2.034579 1.64789,2.034579 0.696471,0 1.1425,0.479735 2.400868,2.581555 0.850095,1.419892 1.545675,2.736174 1.545675,2.924705 0,0.188535 0.524838,1.304823 1.16624,2.480556 0.6414,1.175734 1.42848,2.628039 1.74936,3.227703 0.32088,0.599666 0.72785,1.333685 0.90446,1.631193 0.1766,0.297509 0.32134,0.75503 0.32134,1.01668 0,0.261651 0.15522,0.719172 0.34488,1.01668 0.92065,1.444157 1.53759,2.891272 1.53759,3.606756 0,0.43516 0.16942,0.877935 0.37649,0.983825 0.20706,0.105889 0.37827,0.429437 0.3809,0.719159 0.004,0.460216 0.57107,1.463077 2.89134,5.115652 0.29714,0.467761 0.69874,0.931488 0.8927,1.030674 0.38726,0.198033 0.48328,1.489289 0.13235,1.779648 -0.12113,0.100232 -0.72265,0.03721 -1.33684,-0.139939 -1.61688,-0.466374 -1.72008,-0.114837 -0.34634,1.179735 1.5858,1.494406 1.06266,1.9442 -1.20227,1.033717 -0.99557,-0.400204 -1.98552,-0.598561 -2.37219,-0.475781 -0.54777,0.173918 -0.39184,0.3563 0.89122,1.044661 1.99477,1.070206 2.2846,1.640318 0.83461,1.640318 -0.60123,0 -1.57014,-0.156538 -2.15306,-0.348018 -0.58293,-0.191471 -1.6526,-0.392366 -2.37734,-0.445976 -4.412714,-0.326388 -4.431787,-0.33439 -6.233436,-2.66004 C 94.67996,94.127194 93.070266,92.449184 92.02493,91.5888 90.14552,90.041913 90.130242,90.01459 90.68,89.102768 c 0.417122,-0.691835 0.440393,-0.922375 0.09118,-0.922375 -0.709212,0 -2.40423,-1.60819 -2.68471,-2.547481 -0.273766,-0.916809 -1.310368,-1.469435 -1.310368,-0.698474 0,0.79275 -1.114419,2.311411 -1.696419,2.311411 -0.301343,0 -0.654669,-0.350454 -0.784601,-0.778785 -0.234027,-0.771513 -0.907405,-1.095208 -0.907405,-0.436242 0,0.651052 -1.216848,2.461085 -1.654504,2.461085 -0.241617,0 -0.637916,-0.434485 -0.880197,-0.965573 -0.604313,-1.324706 -1.311387,-1.004017 -1.780248,0.806773 -0.215093,0.830712 -0.623021,1.574042 -0.906667,1.65188 -0.419133,0.11502 -0.471966,-0.288955 -0.281634,-2.155655 0.325077,-3.188226 0.381495,-3.485666 0.753721,-3.966944 0.210112,-0.271671 0.141813,-0.521905 -0.190452,-0.696039 -0.861692,-0.451589 -1.096175,-0.331846 -1.730981,0.886477 -0.473653,0.909065 -0.576906,1.92825 -0.466202,4.594838 0.247543,5.962754 0.166966,9.567587 -0.281635,12.616326 -0.239497,1.62766 -0.537024,4.12668 -0.661067,5.55372 -0.206095,2.37095 -0.167791,2.58563 0.441937,2.48847 0.401356,-0.064 0.744611,-0.47692 0.861813,-1.03676 0.10716,-0.51191 0.404999,-0.9484 0.661804,-0.96983 0.256806,-0.0215 0.716825,-0.0565 1.022116,-0.0779 0.930009,-0.0652 1.79094,-1.91211 1.953784,-4.19145 0.08494,-1.18894 0.325876,-2.42628 0.535326,-2.75008 0.20945,-0.323824 0.341147,-1.2977 0.293396,-2.163577 -0.04775,-0.865878 0.08377,-1.668218 0.291928,-1.783295 0.208151,-0.115086 0.499514,-0.419565 0.647833,-0.676571 0.148323,-0.256996 0.506713,-0.808767 0.795632,-1.225977 l 0.52503,-0.758707 0.238985,0.914464 c 0.372715,1.425135 1.074462,3.101576 2.989872,7.144743 1.673094,3.53168 1.760433,3.86399 1.582443,6.01065 -0.184101,2.2203 -0.169704,2.26719 0.630917,2.06378 0.45063,-0.11448 0.874661,-0.24822 0.942697,-0.29752 0.4403,-0.31897 -1.440291,-6.56124 -2.972225,-9.865632 -2.244097,-4.840531 -2.547549,-5.737581 -1.818481,-5.375445 0.289037,0.143568 0.747126,0.515313 1.017702,0.825639 0.580889,0.666203 1.578766,0.749137 1.578766,0.131417 0,-0.237847 -0.779447,-1.086889 -1.732449,-1.88673 -2.146808,-1.80179 -3.362294,-1.853144 -4.078908,-0.172794 -0.255735,0.599665 -0.815842,1.721114 -1.244922,2.492112 -0.43707,0.785358 -0.885197,2.429253 -1.019174,3.738172 -0.362765,3.544031 -1.137558,7.320581 -1.501555,7.320581 -0.178468,0 -0.555092,-0.55085 -0.836812,-1.22414 -0.425289,-1.01642 -0.431336,-1.80945 -0.0375,-4.67273 0.260887,-1.896693 0.448978,-4.745232 0.418407,-6.330059 -0.04364,-2.261841 0.05623,-2.881509 0.463262,-2.881509 0.2852,0 0.882007,-0.595771 1.325812,-1.323936 1.045027,-1.714623 0.964556,-1.670823 1.847897,-1.009378 0.743363,0.556629 0.789084,0.548439 1.90231,-0.334028 0.904661,-0.717138 1.207514,-0.814841 1.462584,-0.473355 0.262553,0.3515 0.510865,0.30756 1.35081,-0.239113 1.476221,-0.960785 1.91434,-0.840395 2.378811,0.65406 0.381107,1.226223 1.337671,2.306309 4.235531,4.783449 1.262723,1.079395 1.237822,2.125904 -0.07353,3.107837 -0.395516,0.296169 -0.71916,0.664732 -0.71916,0.819558 0,0.154817 -0.535224,0.832687 -1.189036,1.505853 -1.182018,1.217011 -1.185012,1.230601 -0.584593,2.395981 0.694348,1.3477 0.883595,2.09265 1.40449,5.53303 0.342457,2.26185 0.301024,2.65042 -0.445611,4.20545 -0.452457,0.94233 -1.30541,2.22864 -1.895697,2.85839 -0.643454,0.68645 -0.91891,1.22387 -0.687537,1.34218 0.588069,0.30072 1.029667,-0.0394 2.47146,-1.90437 0.827345,-1.07013 1.402797,-2.25978 1.533911,-3.17233 0.336647,-2.34316 0.464048,-2.50343 1.289778,-1.61416 0.396686,0.42721 0.72501,1.12741 0.729452,1.55574 0.01291,1.24486 -2.158744,4.71209 -3.849481,6.14572 -1.87983,1.59397 -1.621444,2.06242 0.475028,0.86032 1.100108,-0.6308 1.838269,-1.43453 2.649412,-2.88455 l 1.125063,-2.01025 0.950055,1.15906 c 0.937193,1.14268 0.942328,1.18023 0.346342,2.66491 -0.332476,0.82823 -0.952284,1.87166 -1.377282,2.3187 -0.957286,1.00696 -0.69875,1.27848 0.696363,0.73073 0.666827,-0.26181 1.198557,-0.79584 1.424343,-1.43041 0.198121,-0.55684 0.494609,-1.01242 0.658861,-1.01242 0.276454,0 0.50239,2.25169 0.297074,2.95938 -0.0497,0.17133 -0.08175,3.9217 -0.07132,8.33424 0.01578,6.67101 0.1193,8.18907 0.61474,9.01079 0.627454,1.04069 0.557102,1.47645 -0.580915,3.57694 -0.81108,1.49705 -1.38916,1.77342 -2.314099,1.10673 -0.5998,-0.43233 -0.658861,-0.41787 -0.658861,0.16184 0,0.35024 0.32335,0.9671 0.718422,1.37079 l 0.718425,0.73376 1.025055,-0.91568 c 0.564101,-0.50364 1.260381,-1.37873 1.54641,-1.94515 0.635473,-1.25841 1.073306,-1.30388 1.555238,-0.16001 0.29411,0.69809 0.22417,1.01623 -0.354433,1.60746 -0.80213,0.81963 -0.344622,1.72104 0.513263,1.01121 0.79869,-0.66086 1.43096,-0.41938 1.43096,0.54637 0,0.79782 -0.23743,1.00673 -1.78833,1.57521 -1.510812,0.55378 -2.431036,0.64627 -5.929747,0.59383 -2.277775,-0.0341 -4.28289,-0.12781 -4.455395,-0.20809 -0.172509,-0.0803 0.166334,-0.3879 0.752983,-0.68387 1.137514,-0.57388 2.761179,-2.92865 2.761179,-4.00466 0,-0.35701 0.353338,-0.85394 0.785339,-1.1043 0.598019,-0.34658 0.702586,-0.59237 0.436787,-1.03007 -0.192015,-0.31618 -0.57555,-1.62631 -0.852253,-2.91131 -0.276706,-1.285 -0.812345,-2.94348 -1.189771,-3.68586 -0.377428,-0.74236 -0.686068,-1.61635 -0.686068,-1.94149 0,-0.32512 -0.600543,-1.36798 -1.334633,-2.31749 -0.734088,-0.94952 -1.238485,-1.85491 -1.12065,-2.01267 0.122668,-0.16423 0.928977,-0.0678 1.886132,0.22573 0.91945,0.28194 1.804638,0.40266 1.967023,0.2683 0.476819,-0.39452 -0.923049,-1.04475 -2.731772,-1.26917 -1.477221,-0.18329 -2.431018,-0.79213 -2.431018,-1.55149 0,-0.37788 1.526151,-0.14213 3.934045,0.60782 2.543939,0.79227 3.350542,0.79581 2.987669,0.0134 -0.195629,-0.42183 -4.679525,-1.42069 -6.377566,-1.42069 -1.000034,0 -2.700459,-1.69249 -2.039822,-2.03032 0.220365,-0.11268 1.231249,-0.11005 2.246452,0.006 1.890063,0.21509 3.87661,-0.37804 4.29583,-1.28195 0.321866,-0.69402 -0.884511,-0.73187 -2.239098,-0.0706 -1.00111,0.48875 -1.719961,0.60952 -2.870015,0.48188 -0.843948,-0.0937 -1.694758,-0.30284 -1.890545,-0.46483 -0.195787,-0.162 -0.604876,-1.18974 -0.908874,-2.28343 -0.304002,-1.09369 -0.655867,-2.33879 -0.78166,-2.76712 -0.125794,-0.42834 -0.543297,-1.15086 -0.927996,-1.60565 -0.3847,-0.45478 -0.699303,-0.99521 -0.699303,-1.20103 0,-0.20582 -0.381198,-0.77049 -0.847107,-1.25458 -0.465909,-0.48408 -1.270659,-1.37671 -1.788336,-1.98347 -0.517675,-0.60676 -1.153005,-1.10689 -1.411843,-1.1116 -0.589586,-0.0108 -0.605267,0.37838 -0.03456,0.85059 0.57372,0.4747 -0.116083,1.17232 -1.917017,1.93906 -2.947888,1.25503 -3.921522,2.97652 -5.099553,9.01626 -0.674482,3.45806 -0.689737,3.67522 -0.230157,3.27821 0.188415,-0.16276 0.889288,-1.8377 1.557441,-3.72236 0.668148,-1.88465 1.566905,-4.05747 1.997167,-4.82847 0.930771,-1.66785 3.193617,-4.20544 3.750212,-4.20544 0.497168,0 3.987927,4.83432 4.498782,6.23029 0.125401,0.34266 0.510696,1.25384 0.855931,2.02484 0.345235,0.77099 0.871348,2.17281 1.169918,3.11514 0.298573,0.94233 0.893897,2.31659 1.322868,3.0537 0.42897,0.7371 0.702457,1.40467 0.607386,1.48334 -0.09507,0.0787 -2.105454,0.20745 -4.467161,0.28657 -2.361709,0.0791 -5.620463,0.23318 -7.242318,0.34254 l -2.949432,0.19896 0.112507,-1.51195 c 0.09402,-1.26499 -7.54e-4,-1.53061 -0.582384,-1.62327 -0.960735,-0.15309 -1.34548,0.49908 -1.164037,1.97251 0.08461,0.68709 -0.09124,3.77237 -0.390463,6.85636 -0.299224,3.084 -0.544848,6.64071 -0.546353,7.90347 l -0.0023,2.29559 -2.250863,-0.13446 c -1.238066,-0.0741 -2.339873,-0.20811 -2.44793,-0.29752 -0.108057,-0.0894 -0.01498,-0.85161 0.20663,-1.69386 0.744065,-2.82765 1.08291,-5.85005 1.480283,-13.2132 0.50553,-9.36723 0.276619,-11.88094 -1.351545,-14.8371 -0.679342,-1.23344 -1.497421,-2.36447 -1.817751,-2.51279 -0.998068,-0.46216 -3.316557,-3.90811 -2.805304,-4.16955 0.953635,-0.48766 2.015928,0.21328 2.209683,1.45779 0.128112,0.82289 0.397421,1.24215 0.843428,1.31237 0.571951,0.09 0.625767,-0.078 0.419878,-1.32089 -0.223402,-1.34859 -0.188856,-1.42398 0.661801,-1.41946 1.48986,0.008 1.950317,0.42707 1.661857,1.51376 -0.164873,0.62112 -0.111502,0.97349 0.147803,0.97349 0.223527,0 0.406642,-0.41241 0.406642,-0.91629 0,-0.5039 0.195365,-1.01581 0.433845,-1.13776 0.601043,-0.30735 1.448613,0.74724 1.448613,1.80216 0,1.45188 0.624403,0.98395 0.98241,-0.7362 0.474887,-2.28176 1.27654,-2.36246 1.27654,-0.12838 0,1.50168 0.09802,1.7395 0.716215,1.7395 0.595008,0 0.76013,-0.31589 0.977997,-1.86909 0.181285,-1.29238 0.424822,-1.86908 0.789753,-1.86908 0.290271,0 0.527968,-0.13044 0.527968,-0.29023 0,-0.63067 -1.568558,-0.64194 -3.831096,-0.0274 -1.306882,0.35498 -2.801117,0.57424 -3.32004,0.48735 -0.518925,-0.0868 -2.534422,-0.2349 -4.478926,-0.32855 -1.944504,-0.0937 -3.681068,-0.24423 -3.859039,-0.33525 -0.508441,-0.25999 -0.376153,-2.1768 0.405903,-5.891989 0.79442,-3.77395 1.488411,-8.474621 1.747893,-11.83755 0.09254,-1.19933 0.367407,-3.372144 0.611061,-4.828474 0.63908,-3.819811 0.636429,-13.145987 -0.0037,-13.322718 -0.52096,-0.143836 -0.741802,-0.334402 -2.002319,-1.724279 -0.898347,-0.990545 -1.367109,-0.927914 -0.705922,0.0943 0.648534,1.002658 0.288826,1.044092 -1.651563,0.190437 L 55.516943,66.731383 55.32502,62.581307 c -0.338192,-7.316923 -0.368308,-9.913156 -0.115357,-9.913093 0.135871,3.4e-5 0.361831,0.735953 0.502232,1.635451 0.140401,0.899497 0.736862,3.527901 1.325077,5.840895 0.588216,2.312995 1.039216,4.541603 1.002997,4.952594 -0.09228,1.047585 0.774522,1.179312 1.314043,0.199562 0.34927,-0.634237 0.346131,-1.177334 -0.01326,-2.439183 -0.569609,-2.000187 -0.94025,-3.400379 -1.750874,-6.607171 -1.291935,-5.110824 -2.69524,-9.235017 -3.603146,-10.591492 -0.344027,-0.513998 -0.858254,-1.617719 -1.142709,-2.452568 l -0.516923,-1.518023 -4.29068,-1.675 c -2.359982,-0.921314 -4.488451,-1.674997 -4.729677,-1.674997 -0.241226,0 -0.825544,0.433117 -1.298602,0.962529 -0.661144,0.739909 -0.812882,1.226308 -0.656656,2.102723 0.428415,2.403381 0.731144,3.191238 1.325075,3.444302 0.681943,0.290565 3.260196,0.767862 4.28774,0.793998 0.597673,0.01521 0.68043,0.555589 0.861078,5.624297 0.345867,9.704434 0.309419,14.49143 -0.110301,14.47386 -0.338289,-0.01418 -2.353073,-2.374674 -2.353073,-2.75678 0,-0.147265 0.319054,-0.88125 0.708862,-1.631193 0.389963,-0.750232 0.73399,-2.192877 0.764749,-3.207623 0.05027,-1.658469 -0.05813,-1.941614 -1.074323,-2.809107 l -1.130268,-0.965165 0.797839,-1.791208 c 0.43871,-0.985395 0.695165,-1.876769 0.569888,-1.980428 -0.578427,-0.478595 -1.299902,0.276245 -1.516998,1.586777 -0.271071,1.63636 -2.287044,4.420047 -3.445782,4.758504 -0.416283,0.121593 -1.095503,0.236599 -1.509644,0.255542 -2.810527,0.128587 -3.035745,0.172329 -2.247185,0.436849 0.420459,0.141028 1.234197,0.214042 1.808926,0.161841 0.574729,-0.05221 0.987713,-0.0013 0.917698,0.113167 -0.07001,0.114466 -0.360928,0.593581 -0.646359,1.064747 -0.285432,0.471166 -0.642636,0.856665 -0.794163,0.856665 -0.151527,0 -0.561327,0.966253 -0.911081,2.147138 l -0.636065,2.147138 -2.073645,0.656492 c -1.140471,0.361111 -2.143692,0.656491 -2.228802,0.656491 -0.445639,0 -0.05636,-0.911407 0.598564,-1.401814 0.414141,-0.31011 0.752982,-0.794462 0.752982,-1.076308 0,-0.281843 0.150433,-0.645832 0.334578,-0.808598 0.532941,-0.471069 1.54531,-3.700632 1.767746,-5.640722 0.112092,-0.977667 0.392975,-2.067217 0.6243,-2.421539 0.24529,-0.375711 0.452146,-2.591913 0.496352,-5.317041 0.0745,-4.592782 0.480454,-6.459899 1.608178,-7.392992 0.241833,-0.200098 0.439731,-0.469845 0.439731,-0.599301 0,-0.338033 1.810232,-2.497128 2.611176,-3.114536 0.373141,-0.28764 1.52731,-0.879178 2.56485,-1.314202 1.865279,-0.782076 1.88933,-0.810766 2.156736,-2.595547 0.148745,-0.992763 0.50817,-2.278199 0.798577,-2.855954 0.769768,-1.531441 0.627781,-1.869353 -0.385316,-0.917508 -0.622872,0.58521 -0.968804,1.40208 -1.154479,2.725751 -0.285561,2.035778 -0.712254,2.315104 -2.069232,1.353749 -0.50509,-0.357834 -0.757396,-0.919482 -0.757396,-1.687166 0,-1.949982 1.225297,-3.698878 3.898014,-5.564062 1.954272,-1.363807 2.459923,-1.897725 2.478815,-2.61806 0.0221,-0.842165 0.06933,-0.870904 0.683125,-0.411296 0.362753,0.271629 1.154783,0.649722 1.760392,0.840237 l 1.101535,0.346195 -1.239775,0.936977 c -0.681894,0.515325 -1.31687,0.8738 -1.410375,0.79643 -0.09351,-0.07737 -1.029588,0.110015 -2.080264,0.416164 -1.502668,0.437854 -2.019321,0.7711 -2.42146,1.56244 -0.677843,1.333884 -0.645039,1.54313 0.102949,0.659534 0.337668,-0.398887 1.200112,-0.92789 1.916283,-1.17548 1.157124,-0.400036 1.51842,-0.391679 3.245034,0.07423 1.068634,0.288359 2.147252,0.657842 2.397194,0.821376 0.300494,0.196606 0.736779,0.133638 1.287572,-0.18557 0.824596,-0.47789 0.815297,-0.488869 -0.925052,-1.106119 -1.94293,-0.689102 -2.03202,-0.813404 -1.151533,-1.618416 0.429377,-0.392571 0.925013,-0.502689 1.694212,-0.375399 1.435548,0.237558 1.406757,-0.33583 -0.04191,-0.832327 -0.621212,-0.212906 -1.129476,-0.501065 -1.129476,-0.640065 0,-0.139001 -0.338843,-0.341478 -0.752984,-0.450237 -1.125781,-0.295641 -0.920114,-1.103943 0.752984,-2.959386 1.132126,-1.255512 1.505967,-1.960731 1.505967,-2.841353 0,-0.644276 -0.16833,-1.257555 -0.374285,-1.362876 -0.897586,-0.458998 -1.05638,-1.256071 -0.386786,-1.940272 0.630322,-0.64407 0.814382,-0.667105 2.881777,-0.365056 1.214833,0.177489 2.463081,0.35379 2.773686,0.392435 0.310605,0.03864 1.22111,0.309595 2.022909,0.601735 0.801802,0.292138 1.691265,0.531156 1.976581,0.531156 0.371691,0 0.518411,0.442396 0.518411,1.561222 0,3.359604 2.422562,8.168012 5.93195,11.773056 0.71798,0.737555 1.244113,1.386146 1.169183,1.441363 -0.07493,0.05522 -0.824871,0.388034 -1.667007,0.739239 -0.842133,0.351203 -1.752565,0.859109 -2.022905,1.128629 -0.875023,0.872371 -1.210624,0.524288 -1.104476,-1.145666 0.0877,-1.379752 0.0015,-1.635579 -0.552234,-1.637884 -0.361101,-0.0015 -0.809977,-0.208215 -0.997116,-0.458754 -0.468152,-0.626751 -0.53586,-0.500775 -1.253747,2.318714 -0.566881,2.226418 -1.423888,3.666758 -1.931727,3.246566 -0.102849,-0.08511 -0.01163,-0.680859 0.202952,-1.323937 0.214597,-0.643077 0.316159,-1.336584 0.225014,-1.540538 -0.09115,-0.203953 -0.299036,0.05001 -0.461789,0.564012 -0.386161,1.219539 -2.027988,3.270902 -2.617796,3.270902 -0.340308,0 -0.290125,-0.42999 0.191186,-1.635451 0.717646,-1.797386 0.696533,-1.961377 -0.216923,-1.671347 -0.386446,0.122715 -0.531591,0.388178 -0.384579,0.705166 0.129716,0.2797 -0.0079,0.817688 -0.306634,1.194951 -0.97924,1.236578 -0.897849,1.797765 0.280897,1.934794 1.118437,0.130021 4.561069,-0.667619 5.484133,-1.270393 0.448356,-0.29278 0.494201,-0.149779 0.286777,0.898037 -0.135669,0.685331 -0.248488,1.506506 -0.250748,1.824671 -0.0023,0.332302 -0.204686,0.516046 -0.475026,0.431983 -2.210221,-0.687269 -2.164828,-0.711639 -2.164828,1.148709 0,1.237595 0.14402,1.734625 0.502233,1.734625 0.797277,0 1.00739,-0.346529 0.596359,-0.981999 -0.578223,-0.893957 -0.06342,-1.263908 0.975053,-0.700908 1.361997,0.738395 1.747991,0.303941 1.644945,-1.851442 -0.0504,-1.054315 0.03351,-2.226583 0.186039,-2.604675 0.258206,-0.640066 4.7172,-3.340853 5.054699,-3.061603 0.08386,0.06939 -0.457287,1.116497 -1.203011,2.327232 -0.745725,1.210736 -1.355958,2.390024 -1.355958,2.620494 0,0.230468 -0.28299,0.888025 -0.628711,1.461439 -1.096313,1.818338 -2.131684,6.713834 -1.276544,6.035592 0.234667,-0.18612 0.521053,-0.887028 0.636802,-1.557572 0.270772,-1.56859 1.993764,-5.329517 2.647207,-5.778229 0.276846,-0.19011 0.503705,-0.477274 0.503705,-0.638236 0,-0.160963 0.427374,-1.039558 0.949316,-1.952442 l 0.948586,-1.65979 1.404487,0.331596 c 0.772249,0.182547 2.674416,0.305448 4.227444,0.273182 10.349133,-0.215026 12.979258,-0.12703 15.100111,0.503778 2.244527,0.667588 2.130661,0.673145 8.054123,-0.39183 1.44941,-0.260587 3.01504,-0.473962 3.47961,-0.473962 0.87742,0 3.86377,0.961006 3.85904,1.241799 -0.002,0.08808 -0.89095,0.192625 -1.97659,0.232418 -2.74882,0.100753 -3.66785,0.32657 -3.66785,0.901688 0,0.381458 0.23131,0.44744 1.00888,0.285961 0.55509,-0.115273 2.33952,-0.33518 3.96493,-0.488567 1.62541,-0.153386 3.1078,-0.357294 3.2943,-0.452668 0.18651,-0.09537 0.4457,-0.03053 0.57577,0.143589 0.13005,0.174128 0.63061,0.316381 1.11256,0.316381 0.75701,0 0.91271,-0.201382 1.14271,-1.479694 0.14643,-0.813831 0.39743,-1.619875 0.55812,-1.791208 0.16069,-0.171333 0.40643,-0.837195 0.54635,-1.479693 0.13993,-0.642499 0.38219,-1.168179 0.53827,-1.168179 0.15609,0 0.51138,-0.51954 0.78902,-1.154794 0.27762,-0.635255 1.32786,-1.875371 2.33395,-2.755564 1.53072,-1.339173 1.80655,-1.759894 1.69127,-2.579121 -0.0757,-0.538451 -0.36153,-1.202461 -0.63533,-1.475434 -0.76744,-0.765116 -1.08821,-3.506882 -0.66254,-5.662019 0.59142,-2.994293 2.91179,-4.882474 2.62589,-2.136795 -0.0667,0.640222 0.1289,1.610229 0.43532,2.155656 0.95411,1.698333 1.1581,4.058239 0.44855,5.19353 -0.89566,1.433088 -0.50448,1.443029 0.87578,0.0219 1.33954,-1.379196 1.52725,-2.712847 0.72872,-5.183187 -0.41742,-1.291353 -0.39507,-1.476846 0.22208,-1.850225 0.71402,-0.431999 1.54806,-2.776673 1.16845,-3.284896 -0.45643,-0.6110434 -0.80604,-0.230237 -1.46847,1.599553 -0.37656,1.040124 -0.82187,1.776077 -0.98976,1.635452 -0.1679,-0.140625 -0.44624,-0.955039 -0.61842,-1.81007 -0.47378,-2.3526673 -1.81825,-2.2988848 -3.67962,0.147848 -1.54751,2.034177 -1.90132,3.992401 -1.39787,7.738579 0.56085,4.17339 0.55986,4.414747 -0.0198,4.417176 -0.84865,0.0036 -4.5772,5.770858 -4.96793,7.68443 -0.14488,0.709521 -0.46736,1.521556 -0.71695,1.803984 -0.41437,0.46887 -0.57107,0.447759 -1.80084,-0.24276 -3.53667,-1.985838 -7.91167,-2.234039 -12.131554,-0.688132 -1.390983,0.509576 -2.36375,0.703565 -2.635443,0.526291 -1.81612,-1.185006 -7.181187,-1.571699 -15.584696,-1.123766 -2.926636,0.155996 -4.235531,0.12255 -4.235531,-0.107692 0,-0.183267 0.926967,-0.428663 2.059672,-0.545758 1.132691,-0.117096 2.247129,-0.400327 2.476611,-0.629114 0.762126,-0.759832 0.740131,-3.798093 -0.0375,-5.2203 -0.661416,-1.209654 -0.667023,-1.331194 -0.08604,-1.692643 0.344248,-0.214166 0.936372,-0.389393 1.316252,-0.389393 0.6586,0 0.661093,-0.04704 0.05515,-1.012423 -0.461533,-0.735291 -0.653902,-1.907761 -0.702258,-4.283322 -0.07747,-3.805805 -0.540085,-4.943706 -2.78913,-6.861227 -0.847012,-0.722155 -1.53979,-1.422167 -1.53979,-1.5551375 0,-0.1329713 -1.575249,-0.746725 -3.500933,-1.364093 -4.092029,-1.3118902 -6.676261,-1.4504973 -9.756426,-0.5232466 -1.094887,0.3296045 -3.261213,0.8316363 -4.814241,1.1158537 -1.553028,0.2842183 -3.212788,0.6453393 -3.688443,0.8025154 -0.475649,0.157175 -1.873378,0.28596 -3.106057,0.28596 -2.442434,0 -2.851601,0.380846 -1.497876,1.394514 0.408855,0.306149 0.831406,0.783859 0.939023,1.061096 0.10762,0.277236 0.696604,0.780465 1.308895,1.118896 0.963202,0.532388 1.043275,0.679351 0.594153,1.090301 -0.285501,0.261234 -0.802883,1.176089 -1.150064,2.032753 -0.347179,0.856665 -0.846177,1.767845 -1.108151,2.024844 -0.261974,0.256999 -0.573333,0.817725 -0.691951,1.246058 -1.145423,4.136176 -1.183761,4.195908 -4.391422,6.790041 l -3.09135,2.500025 0.261044,2.442225 c 0.159759,1.494917 0.465479,2.57547 0.78828,2.787203 0.751884,0.493181 0.682429,0.614877 -0.783868,1.364699 -0.808515,0.413451 -1.685273,1.288748 -2.286157,2.283425 -0.536027,0.887315 -1.363646,1.964002 -1.839074,2.392335 -1.230518,1.108624 -2.423617,5.187301 -2.506023,8.566647 -0.0708,2.903536 -0.710099,6.588349 -1.378018,7.943618 -0.211096,0.428333 -0.856825,1.97033 -1.43464,3.426659 -1.123176,2.830866 -2.58826,4.984231 -3.391366,4.984231 -0.655832,0 -1.030672,0.543571 -0.766955,1.112203 0.187139,0.403508 0.380312,0.40201 1.585383,-0.01461 0.754716,-0.260918 1.817741,-0.47576 2.361897,-0.477006 0.544155,-0.0012 2.047908,-0.268785 3.342099,-0.594435 1.29419,-0.325648 2.353073,-0.547293 2.353073,-0.492825 0,0.213306 -5.564914,9.199504 -5.927538,9.57177 -0.212142,0.217783 -0.512463,0.88419 -0.66695,1.480908 -0.154486,0.596719 -1.095089,2.298603 -2.090557,3.781982 -1.397761,2.082848 -1.870882,3.148314 -2.078059,4.67819 -0.147548,1.089562 -0.521687,2.302877 -0.830928,2.695939 -1.057312,1.343905 -1.65457,9.98942 -0.752248,10.889008 0.309753,0.308816 0.900642,0.404475 1.847898,0.299352 0.765963,-0.08502 1.564092,-0.01269 1.773628,0.160617 0.256974,0.212629 0.72833,0.18845 1.44714,-0.07483 1.039725,-0.380835 1.067349,-0.455209 1.140505,-3.043356 0.08442,-2.986651 0.669419,-4.050424 1.042706,-1.896463 0.25837,1.490862 0.12218,3.046726 -0.3184,3.636564 -0.342915,0.459104 0.795674,0.891316 1.283895,0.487351 0.364248,-0.301382 0.397361,-0.730123 0.366932,-4.784668 -0.01222,-1.629642 0.135865,-2.688386 0.386051,-2.75739 1.016815,-0.28044 1.874622,-1.467484 1.825103,-2.52497 -0.05944,-1.269462 0.714554,-4.61846 1.227274,-5.311564 0.190115,-0.257 0.435351,-0.682968 0.54562,-0.946712 0.110268,-0.263746 0.571894,-0.61949 1.025057,-0.790346 0.453163,-0.17086 0.784604,-0.472443 0.736806,-0.670488 -0.0478,-0.198042 0.310549,-0.618957 0.796368,-0.935151 0.485819,-0.31619 1.00079,-0.880757 1.144182,-1.254574 0.143392,-0.373815 0.759214,-1.069012 1.368457,-1.544797 0.609243,-0.475785 1.107417,-0.993629 1.107417,-1.151143 0,-0.157517 0.245604,-0.508631 0.54562,-0.780004 0.30001,-0.271373 1.133525,-1.053523 1.852308,-1.738272 0.718787,-0.684753 1.416931,-1.154236 1.551557,-1.042844 0.249395,0.206343 0.26479,13.576459 0.02353,20.355521 -0.138188,3.882796 -0.739448,8.547841 -1.34566,10.441821 -0.20474,0.63963 -0.218177,1.79025 -0.03234,2.76286 0.17514,0.91674 0.178261,3.36705 0.0066,5.44542 -0.274978,3.32965 -0.682101,8.83812 -0.751515,10.16498 -0.01344,0.25701 -0.180463,1.16818 -0.370606,2.02485 -0.190148,0.85666 -0.423411,2.45034 -0.518415,3.54165 -0.095,1.09131 -0.236866,2.0377 -0.315458,2.10272 -0.07859,0.065 -0.975934,-0.23147 -1.994228,-0.65893 -1.018291,-0.42745 -2.359838,-0.78116 -2.981049,-0.78608 -0.621212,-0.005 -1.891871,-0.16234 -2.823689,-0.34924 -1.941395,-0.38938 -12.117073,-0.65553 -22.024763,-0.57618 -5.0722603,0.0406 -6.9852861,0.16447 -7.6063088,0.491 -0.5885916,0.30948 -1.0975379,0.35191 -1.7500981,0.14663 -1.1037062,-0.34721 -1.3585046,-0.19319 -1.0897669,0.65711 0.185715,0.5876 0.3994326,0.62322 2.6883859,0.44963 3.1965369,-0.24244 21.0869189,-0.25198 25.2646519,-0.0134 6.445754,0.36811 9.988964,0.80279 11.308722,1.38721 0.698535,0.30932 0.773178,0.54225 0.580915,1.81007 -0.12135,0.8002 -0.300918,3.27711 -0.399289,5.50444 -0.09837,2.22733 -0.283261,4.75939 -0.410315,5.62672 l -0.230895,1.57705 1.605971,0.52202 c 1.337411,0.43468 1.862795,0.46111 3.140619,0.15941 1.922987,-0.45402 2.567364,-0.85202 2.303071,-1.4219 -0.212993,-0.45924 1.242708,-0.44024 9.490971,0.12169 1.716493,0.11694 2.729565,0.0703 2.729565,-0.12533 0,-0.50675 -3.299423,-1.06705 -7.529834,-1.27831 l -3.953186,-0.1971 -0.114713,-1.14203 c -0.08865,-0.88054 0.04088,-1.18213 0.566945,-1.32028 1.122464,-0.29477 6.174226,0.0363 8.649749,0.56705 1.271597,0.27264 2.608673,0.40177 2.971491,0.28657 0.552852,-0.17553 0.617107,-0.0875 0.396344,0.54393 -0.144878,0.4144 -0.35973,1.19077 -0.477968,1.72551 l -0.21545,0.97226 2.181739,0.22573 c 1.199939,0.12405 2.616824,0.36865 3.14797,0.54393 0.531152,0.17526 4.438631,0.35297 8.683574,0.39486 4.244944,0.0419 8.268699,0.18333 8.941679,0.31396 0.769744,0.1494 1.223597,0.11942 1.223597,-0.0809 0,-0.5787 -4.995969,-1.12532 -10.730013,-1.17365 l -5.647375,-0.0474 0.133097,-0.74897 c 0.0731,-0.4119 0.301762,-0.83613 0.508113,-0.94246 1.252272,-0.64523 10.869285,-0.60804 13.85372,0.0536 0.724746,0.16067 1.614208,0.29294 1.976581,0.29387 1.015798,0.003 0.779278,-0.8403 -0.298547,-1.06413 -2.203504,-0.4576 -8.520726,-0.7702 -11.937433,-0.59078 l -3.670794,0.19286 v -0.97531 c 0,-1.10563 0.169475,-1.16383 4.141409,-1.41276 3.1518,-0.19752 7.612296,0.2165 11.759484,1.09152 1.808433,0.38157 3.412905,0.59061 3.56564,0.46423 0.439476,-0.36363 -0.500037,-0.70415 -4.842183,-1.7541 -3.615993,-0.87435 -4.637072,-0.9872 -9.358613,-1.03554 l -5.29956,-0.0542 0.111034,-0.93454 c 0.103076,-0.86853 0.244004,-0.94922 1.993493,-1.14445 3.205199,-0.35768 11.502895,-0.30558 15.059668,0.0949 1.863634,0.20984 3.42679,0.40028 3.473723,0.42286 0.04694,0.0226 0.259249,1.05693 0.472087,2.29863 0.436241,2.54506 0.511555,2.35453 -2.387634,6.03803 l -1.900106,2.41424 -4.534812,0.0536 c -2.494412,0.0293 -5.128524,0.0826 -5.853271,0.11925 -4.12697,0.20843 -30.150833,0.0992 -36.965307,-0.15515 -9.676819,-0.36137 -17.767412,-0.5927 -28.450143,-0.81485 l -8.0004486,-0.16672 v 0.84146 0.84145 l 4.8002691,-0.19895 c 2.9373745,-0.12179 8.4530035,-0.0118 14.2125605,0.28353 5.176761,0.26544 14.833773,0.53297 21.460027,0.59503 22.144286,0.20743 37.267268,0.5248 37.837416,0.794 0.567854,0.26812 3.518808,0.15049 4.135527,-0.16488 0.181872,-0.093 0.432366,-0.0323 0.557381,0.13507 0.280581,0.37562 6.543633,0.34777 6.826118,-0.0304 0.112297,-0.15035 0.357705,-0.19527 0.545619,-0.0992 0.668217,0.34171 2.704024,0.41627 3.607555,0.13203 0.602888,-0.18966 1.501604,-0.15928 2.620006,0.0882 1.42085,0.31443 1.75707,0.30312 2.03393,-0.0675 0.26239,-0.35129 0.51431,-0.37051 1.20375,-0.0925 0.61728,0.24892 7.00147,0.34559 21.88064,0.33098 l 21.00853,-0.0207 -0.11325,-1.12437 -0.11397,-1.12375 -22.21301,-0.0578 c -12.21716,-0.0316 -22.25774,-0.0668 -22.31228,-0.0779 -0.0546,-0.0112 0.16555,-0.54409 0.489,-1.18461 0.32343,-0.6405 0.48521,-1.50359 0.35957,-1.91776 l -0.22868,-0.75262 4.25758,0.22512 c 2.34159,0.124 4.76586,0.27479 5.38707,0.33524 4.2166,0.4103 8.86568,0.82785 12.42423,1.11586 2.27777,0.18434 5.24264,0.59453 6.58861,0.91142 3.35739,0.79047 4.32965,0.87017 4.32965,0.35532 0,-0.54197 -3.50082,-1.45041 -7.90633,-2.05222 -9.76138,-1.33345 -25.0367,-2.40632 -25.0367,-1.75836 0,0.18778 -0.15209,0.34133 -0.33825,0.34133 -0.44278,0 -2.0229,-2.51098 -1.73171,-2.75191 0.39246,-0.32474 6.20127,-0.034 12.61173,0.63155 3.41666,0.35467 6.57972,0.6285 7.02907,0.60903 0.44935,-0.0194 1.29645,0.1718 1.88246,0.42469 0.586,0.25289 1.68247,0.46085 2.4369,0.46178 1.59931,0.002 8.75399,1.47886 12.5588,2.5919 3.05335,0.89323 6.5886,1.36934 6.5886,0.8877 0,-0.17526 -0.97418,-0.5425 -2.16483,-0.81651 -1.19066,-0.27401 -3.85904,-0.92698 -5.92974,-1.4511 -5.77227,-1.46103 -6.95823,-1.72408 -9.60055,-2.12767 -1.34595,-0.20557 -3.54842,-0.57418 -4.89439,-0.81894 -6.68044,-1.21484 -14.79355,-1.98306 -19.12239,-1.81128 -2.570843,0.10201 -2.620043,0.0686 -3.327392,-2.26335 l -0.241922,-0.79947 4.286264,0.18679 c 4.79133,0.2084 10.86664,0.71347 11.67787,0.97104 0.52342,0.16619 2.30178,0.43673 10.86898,1.65127 6.252,0.88633 10.19579,1.82258 14.68318,3.48629 5.03586,1.86705 5.23744,1.92341 6.07681,1.70298 0.7751,-0.20355 0.94651,-1.22497 0.26399,-1.574 -0.23993,-0.12268 -1.38351,-0.39812 -2.54132,-0.61207 -1.1578,-0.21396 -3.03709,-0.6962 -4.17597,-1.07144 -3.89916,-1.2847 -16.72681,-3.72722 -22.02476,-4.19389 -1.24242,-0.10944 -4.2073,-0.47076 -6.58861,-0.80251 -2.38131,-0.33176 -6.09572,-0.74603 -8.25414,-0.92055 -2.15842,-0.17452 -3.988005,-0.36955 -4.065668,-0.43381 -0.07767,-0.0642 -0.03374,-0.46989 0.09707,-0.90108 0.304318,-1.00324 0.846873,-1.05863 7.704838,-0.78548 8.83442,0.35188 10.2377,0.52529 19.76581,2.44162 0.82829,0.16659 2.50251,0.4486 3.7208,0.62668 1.21828,0.17807 2.65837,0.50764 3.20018,0.73193 0.54181,0.22431 2.13706,0.64168 3.54432,0.92786 1.40726,0.28617 3.18337,0.79777 3.94728,1.13654 1.62642,0.72126 4.5048,0.81426 5.55399,0.17948 0.80555,-0.48738 1.26074,-0.33914 -5.28339,-1.72063 -1.65656,-0.34971 -5.21441,-1.12424 -7.90632,-1.72124 -2.69193,-0.59699 -6.5886,-1.24013 -8.65931,-1.42858 -2.0707,-0.18846 -5.45913,-0.67478 -7.52984,-1.08118 -5.6767,-1.1141 -8.95546,-1.47654 -13.73459,-1.51802 l -4.337005,-0.0377 0.04412,-1.17852 c 0.02425,-0.64828 0.146967,-1.26423 0.27281,-1.36836 0.317458,-0.26266 10.035465,0.46039 15.495715,1.15297 2.48485,0.31518 5.53443,0.65999 6.77685,0.76601 1.24242,0.10601 3.19077,0.31972 4.32965,0.47518 1.13889,0.15548 3.5108,0.44507 5.27089,0.64311 3.93527,0.44278 8.82294,1.33904 11.96685,2.19459 2.56315,0.69752 3.46931,0.62144 3.46931,-0.29082 0,-0.83034 -1.07479,-1.50023 -2.82295,-1.76018 -0.82781,-0.1231 -1.6195,-0.37758 -1.75966,-0.56524 -0.14017,-0.18764 -0.90281,-0.34995 -1.69495,-0.36079 -0.79212,-0.0109 -1.66074,-0.13768 -1.93025,-0.2817 -0.2695,-0.14402 -1.45546,-0.32876 -2.63545,-0.41069 -1.17998,-0.0819 -3.58579,-0.43458 -5.34589,-0.78365 -1.7601,-0.34907 -3.79314,-0.68004 -4.5179,-0.73559 -0.72474,-0.0556 -2.4334,-0.24736 -3.79726,-0.4259 -2.7802,-0.36395 -7.74985,-0.62051 -19.73346,-1.01972 -2.755329,-0.0918 -3.004626,-0.15347 -2.925165,-0.72343 0.761045,-5.45853 0.193137,-10.85779 -1.343457,-12.77209 -0.550115,-0.68533 -1.094579,-1.31614 -1.209627,-1.40181 -0.115048,-0.0857 -0.609679,-0.71648 -1.099325,-1.40181 -0.489647,-0.68533 -1.456937,-1.83214 -2.149388,-2.5487 -0.69245,-0.71656 -1.348242,-1.76793 -1.457433,-2.33636 -0.109193,-0.56843 -0.385498,-1.75959 -0.614005,-2.64666 -0.394884,-1.53293 -0.361406,-1.68144 0.673566,-3.002587 0.598912,-0.764507 1.280931,-1.650716 1.515526,-1.969468 0.412126,-0.559992 0.456632,-0.557972 1.317721,0.07059 1.439648,1.050856 3.550953,1.997465 4.455399,1.997465 0.461948,0 1.374078,0.198069 2.026588,0.440494 1.24105,0.461095 4.444,0.863126 6.5761,0.825036 0.68681,-0.0123 1.50397,0.18878 1.81554,0.44657 0.31156,0.2578 0.90061,0.46849 1.30963,0.46849 0.72201,0 0.72439,-0.022 0.0677,-0.75262 -0.37204,-0.41386 -1.14243,-0.982552 -1.71187,-1.263698 -0.56945,-0.281147 -1.03535,-0.713388 -1.03535,-0.960709 0,-0.247311 0.0423,-0.447543 0.0942,-0.44536 0.0518,0.0019 1.1783,0.28534 2.50382,0.629107 2.32344,0.602582 3.80242,0.586155 3.80242,-0.04136 0,-0.165156 -0.29649,-0.389106 -0.65887,-0.498296 -0.36236,-0.1092 -1.21551,-0.595474 -1.89569,-1.080565 -0.68018,-0.48509 -1.40022,-0.882217 -1.60009,-0.882217 -0.19986,0 -0.36325,-0.210273 -0.36325,-0.467269 0,-0.344854 0.43573,-0.467279 1.66332,-0.467279 0.91489,0 1.93141,-0.08521 2.25896,-0.18922 0.80168,-0.254535 0.75838,-1.283396 -0.0632,-1.49916 -0.36251,-0.09521 -0.8887,-0.602522 -1.16917,-1.126807 -0.28049,-0.524282 -0.89423,-1.331967 -1.36332,-1.794859 -0.46908,-0.462892 -0.97238,-1.297043 -1.11918,-1.853875 -0.14679,-0.556833 -0.39623,-1.012422 -0.5537,-1.012422 -0.15748,0 -0.50233,-0.595772 -0.76696,-1.323936 -0.26463,-0.728166 -0.572,-1.534209 -0.68239,-1.791208 -0.11039,-0.257001 -0.248,-0.66087 -0.3059,-0.89743 -0.0579,-0.236558 -0.28669,-0.57976 -0.50812,-0.762967 -0.22141,-0.183205 -0.40223,-0.539488 -0.40223,-0.791562 0,-0.252074 -0.2703,-0.705415 -0.60077,-1.007556 -0.33046,-0.302144 -0.62696,-1.117162 -0.65886,-1.810678 -0.0319,-0.693514 -0.26986,-1.328871 -0.52871,-1.412157 -0.25883,-0.08329 -0.4706,-0.576398 -0.4706,-1.095777 0,-0.519376 -0.16544,-0.944278 -0.36768,-0.944278 -0.20223,0 -0.69052,-0.525681 -1.08535,-1.168179 -1.47591,-2.401751 -2.31411,-3.631094 -2.68397,-3.937128 -0.20953,-0.173371 -0.3809,-0.581006 -0.3809,-0.90595 0,-0.324937 -0.67769,-1.228011 -1.505971,-2.006589 -0.828282,-0.778577 -1.505966,-1.528224 -1.505966,-1.666481 0,-0.138256 0.887725,-0.293801 1.972902,-0.345588 1.529455,-0.07299 2.001735,-0.217511 2.099375,-0.642498 0.0915,-0.398187 -0.19077,-0.600693 -1.03167,-0.739846 -1.386461,-0.229437 -1.448044,-0.503206 -0.28236,-1.261877 0.48173,-0.313543 0.99276,-1.052249 1.13535,-1.642142 0.22343,-0.924361 0.11961,-1.164762 -0.75151,-1.739494 -0.70858,-0.467492 -1.043952,-1.010932 -1.120651,-1.816761 -0.06017,-0.632225 -0.237804,-1.320149 -0.394877,-1.528976 -0.157075,-0.208826 -0.315006,-0.870294 -0.351488,-1.469958 -0.158616,-2.607915 -0.505037,-4.686664 -0.875783,-5.25985 -0.604342,-0.934334 -0.547254,-0.970439 1.541262,-0.970439 1.883167,0 1.921837,-0.01748 1.293447,-0.592 -1.299843,-1.18843 1.11246,-1.222743 4.4054,-0.06267 0.87165,0.307079 2.30284,0.63634 3.18033,0.731938 l 1.59493,0.174009 -1.33389,-1.347665 c -0.7339,-0.741061 -1.79094,-1.597262 -2.34866,-1.90316 l -1.01403,-0.5561 1.69421,-0.230595 c 7.86542,-1.068074 13.11792,-2.803134 13.49929,-4.459158 0.0776,-0.337162 0.56208,-1.069469 1.07653,-1.627541 0.51444,-0.558073 1.08226,-1.47348 1.26184,-2.034579 0.17957,-0.561096 0.83671,-2.211874 1.46037,-3.668204 0.62366,-1.45633 1.13757,-3.165412 1.14198,-3.797799 0.004,-0.632388 0.17751,-1.2363 0.38457,-1.34219 0.20708,-0.10589 0.37649,-0.719157 0.37649,-1.362875 0,-1.123938 0.0897,-1.205753 2.26558,-2.066217 1.24616,-0.492818 2.57039,-1.130518 2.94207,-1.417026 0.37168,-0.286508 1.04576,-0.685332 1.49861,-0.885869 0.45287,-0.200536 0.82358,-0.514383 0.82358,-0.697865 0,-0.183483 0.47252,-0.844421 1.05006,-1.468742 1.92801,-2.084161 2.98969,-4.386517 3.27372,-7.099731 0.23442,-2.239357 0.18738,-2.574294 -0.39856,-2.84561 -0.63282,-0.2930277 -0.63115,-0.3643655 0.0272,-1.5119406 1.30887,-2.2814291 0.71482,-3.980478 -1.14638,-3.278811 -1.22776,0.4628547 -1.80638,0.2098595 -1.30228,-0.5694873 0.48969,-0.7570967 0.17918,-1.3779447 -0.93682,-1.8721289 -0.39915,-0.1767434 -0.65715,-0.2532087 -0.94492,-0.195305 z m 2.21557,4.2443842 c 1.02064,0 1.15677,0.2779522 0.58533,1.1919079 -0.28643,0.4580858 -1.19155,2.0595236 -2.01189,3.5586866 -0.82033,1.499164 -1.67224,2.725751 -1.89275,2.725751 -0.54033,0 -0.5042,-0.483364 0.11104,-1.494904 0.2814,-0.462657 0.60608,-1.332089 0.7221,-1.931754 0.34749,-1.7960205 1.73131,-4.0496875 2.48617,-4.0496875 z M 68.067632,8.8397344 c 1.328526,0.021909 1.983558,0.2569289 3.836981,1.0556196 1.449493,0.624627 2.879352,1.418583 3.177383,1.764437 0.298035,0.345854 0.806298,0.849883 1.129475,1.120113 1.342238,1.12233 1.892684,2.26741 2.261894,4.703747 0.281142,1.855076 0.273879,2.689148 -0.02647,2.988591 -0.229129,0.228438 -0.341463,0.836965 -0.250013,1.352533 0.278069,1.567615 -0.937518,1.155372 -4.127437,-1.400599 -4.36334,-3.496187 -11.039128,-6.035868 -18.40471,-7.001773 -2.876825,-0.37726 -6.248268,-1.83344 -4.395096,-1.898291 1.411527,-0.0494 4.418586,-0.851404 7.095983,-1.8928146 0.74882,-0.2912643 1.821332,-0.069681 3.185474,0.6589266 0.310605,0.165898 1.327133,0.5897 2.25895,0.941235 1.753009,0.661335 3.061755,1.273948 3.388425,1.586777 0.103536,0.09915 1.07886,0.577811 2.167768,1.063529 1.10469,0.492759 2.872936,1.721381 3.99949,2.779293 1.110459,1.042797 2.55726,2.386493 3.215623,2.986158 l 1.197123,1.0903 -0.942698,-1.596511 c -0.518454,-0.877927 -1.748253,-2.26304 -2.733238,-3.078031 -2.018828,-1.670407 -6.860341,-4.37485 -10.108656,-5.647416 -2.028541,-0.7947045 -2.108368,-0.866452 -1.268452,-1.1359312 0.493124,-0.158216 2.167033,-0.340212 3.720061,-0.403995 0.661936,-0.027189 1.179307,-0.043203 1.622149,-0.035894 z m 60.520298,6.7577936 c -1.39327,0 -2.65924,1.284316 -2.9884,3.032398 -0.16889,0.896936 -0.2171,1.705272 -0.10736,1.796076 0.31941,0.264279 0.80332,-0.55642 0.8096,-1.372611 0.003,-0.459002 0.58959,-1.222669 1.51186,-1.970694 1.7256,-1.399589 1.77045,-1.485169 0.7743,-1.485169 z m -69.692871,0.01947 c -0.198072,-0.0032 -0.355901,0.202339 -0.355901,0.61877 0,0.351174 -0.270649,1.071994 -0.601506,1.601379 -0.448066,0.716927 -0.537472,1.387591 -0.350017,2.629011 0.232021,1.536524 0.345097,1.689421 1.448609,1.953658 0.658344,0.157642 1.408903,0.299106 1.667741,0.314557 0.64455,0.03848 0.595753,-0.488771 -0.06471,-0.698474 -0.682866,-0.216817 -0.333794,-1.454139 0.410319,-1.454139 0.297225,0 0.718057,0.420544 0.934611,0.934542 0.216558,0.513999 0.631027,0.934544 0.921376,0.934544 0.92818,0 0.575092,-0.51227 -1.354489,-1.965218 -2.129542,-1.603516 -2.488312,-2.359742 -0.771367,-1.625107 1.83967,0.787143 1.98256,0.542794 0.432379,-0.739848 -0.807837,-0.668415 -1.582017,-1.509504 -1.719949,-1.869083 -0.160728,-0.419008 -0.399016,-0.631413 -0.597093,-0.634589 z m 6.802588,0.915074 c 0.788079,0 1.487737,0.600301 1.263306,1.084216 -0.113972,0.245747 0.203694,0.397961 0.876522,0.419206 0.580407,0.01833 1.447494,0.0676 1.927314,0.110125 0.806851,0.0715 0.823293,0.107798 0.211039,0.478223 -0.626509,0.37905 -0.624616,0.400345 0.03898,0.400345 1.068145,0 2.115143,0.914571 1.738335,1.518633 -0.932955,1.495628 -0.709172,8.448164 0.272071,8.450437 0.140638,3.12e-4 0.203606,-1.679699 0.139716,-3.733305 -0.06389,-2.053607 0.02725,-3.945573 0.202218,-4.204228 0.282184,-0.417211 0.413873,-0.414612 1.169179,0.02312 0.615147,0.356504 0.744207,0.60055 0.464735,0.879177 -0.212741,0.212097 -0.542672,1.295994 -0.733132,2.408761 -0.347185,2.028477 0.06293,4.293419 1.055209,5.82751 0.222936,0.344664 0.405169,0.775675 0.405169,0.958272 0,0.590408 -0.718982,0.353142 -1.352283,-0.446585 -0.339306,-0.428471 -1.063393,-0.956106 -1.608911,-1.172438 -1.453246,-0.576304 -1.95993,-2.254234 -1.992759,-6.601429 -0.03238,-4.290289 -0.596344,-3.811031 -0.65592,0.557318 -0.02628,1.926965 -0.167569,2.715839 -0.471349,2.632054 -0.54874,-0.151345 -1.413463,-2.787153 -1.487587,-4.533387 -0.06387,-1.504593 -0.504382,-1.967936 -0.878723,-0.924809 l -0.250013,0.697257 -0.375024,-0.767226 c -0.206121,-0.421951 -0.41515,-1.508358 -0.46473,-2.414237 -0.07265,-1.327383 0.02544,-1.64701 0.506645,-1.64701 z M 52.891782,17.1551 c 0.897651,0 0.998596,0.478224 0.157362,0.745323 -0.841481,0.267178 -0.910345,0.246244 -0.910345,-0.278051 0,-0.259596 0.33466,-0.467272 0.752983,-0.467272 z m 14.143442,1.408508 c -0.0939,-0.03896 -0.214876,0.11971 -0.314725,0.435634 -0.163762,0.518156 -0.114668,0.640027 0.164715,0.408862 0.218783,-0.181021 0.32364,-0.513282 0.233101,-0.738022 -0.02349,-0.05832 -0.0518,-0.09348 -0.08309,-0.106474 z m -15.080993,0.25676 c 0.20517,-0.0538 0.626946,0.03576 0.937551,0.198347 0.497534,0.260432 0.489379,0.398428 -0.06985,1.162702 -0.34912,0.477129 -0.982583,1.058633 -1.407431,1.292299 -0.667139,0.366928 -0.803554,0.357026 -1.002997,-0.07301 -0.240118,-0.517749 0.890795,-2.40938 1.542735,-2.580337 z m 22.91452,3.477157 c 0.683359,-0.136081 1.154105,0.974468 1.052998,2.662476 -0.114908,1.918458 0.483077,4.344166 1.070648,4.344166 0.193912,0 0.249954,-0.425539 0.124273,-0.945495 -0.410259,-1.697269 -0.293521,-4.038736 0.201483,-4.038736 0.542521,0 1.107853,1.577077 1.367723,3.816052 0.21276,1.833054 0.167889,2.07785 -0.347814,1.914109 -0.35385,-0.11235 -0.684233,0.01325 -0.822842,0.312124 -0.127435,0.274775 -0.341138,0.495197 -0.474289,0.489783 -0.658661,-0.02679 -2.410326,-1.676138 -2.724418,-2.565127 -0.479448,-1.357008 -0.30515,-5.472746 0.247806,-5.852455 0.105245,-0.07227 0.206808,-0.117456 0.304432,-0.136897 z m -8.985064,3.064037 c -0.03618,-0.01314 -0.07604,-0.01033 -0.117654,0.01095 -0.166462,0.08513 -0.129371,0.934352 0.08163,1.887339 0.21099,0.952986 0.516174,1.732799 0.678713,1.732799 0.433974,0 0.36092,-2.110432 -0.08089,-2.336358 -0.207071,-0.10589 -0.376492,-0.472625 -0.376492,-0.815292 0,-0.256999 -0.07677,-0.440024 -0.185305,-0.47944 z m -1.516261,0.82746 c -0.544467,0 -0.536564,0.588574 0.02723,2.102723 0.287011,0.770889 0.54487,0.365303 0.54487,-0.856665 0,-0.906876 -0.155856,-1.246058 -0.57209,-1.246058 z m -1.41699,1.082391 c -0.141689,-0.08676 -0.271835,0.212684 -0.275016,0.968615 -0.0031,0.671054 -0.107507,1.535304 -0.232367,1.920804 -0.129837,0.400872 -0.05754,0.700907 0.168393,0.700907 0.522439,0 0.774937,-0.826533 0.684598,-2.242053 -0.05033,-0.788705 -0.203919,-1.261508 -0.345608,-1.348273 z m -1.775837,0.475181 c -0.207069,0 -0.376491,0.638958 -0.376491,1.420068 0,0.867475 0.146527,1.345403 0.376491,1.227805 0.207071,-0.105889 0.376492,-0.744847 0.376492,-1.420068 0,-0.67522 -0.169421,-1.227805 -0.376492,-1.227805 z m -1.500819,0.467272 -0.547088,0.969224 c -0.300772,0.532919 -0.661808,1.374009 -0.802251,1.869086 -0.23044,0.812338 -0.197101,0.854283 0.338989,0.432592 0.326716,-0.257 0.687753,-1.098089 0.802252,-1.869087 z m 8.27767,0.778786 c -0.414141,0 -0.752983,0.140181 -0.752983,0.311515 0,0.171333 0.338842,0.311514 0.752983,0.311514 0.414141,0 0.752984,-0.140181 0.752984,-0.311514 0,-0.171334 -0.338843,-0.311515 -0.752984,-0.311515 z m -16.208261,0.03833 c -0.609517,0.01245 -1.147863,0.281996 -0.923583,0.582264 0.128881,0.172543 0.553002,0.313948 0.942702,0.313948 0.92754,0 1.34267,-0.574545 0.588267,-0.814074 -0.193249,-0.06136 -0.404212,-0.08629 -0.607386,-0.08214 z m 5.670906,0.273184 c -0.252144,0 -1.133887,2.335965 -1.133887,3.003802 0,0.12973 0.145823,0.102532 0.324283,-0.06024 0.464982,-0.424093 1.157946,-2.943568 0.809604,-2.943568 z m -1.737599,0.452061 c -0.0453,-0.01625 -0.09589,-0.01209 -0.149272,0.01521 -0.20707,0.10589 -0.376492,0.464485 -0.376492,0.79704 0,0.332554 0.169422,0.604775 0.376492,0.604775 0.20707,0 0.376492,-0.358595 0.376492,-0.797038 0,-0.339092 -0.09131,-0.571252 -0.22722,-0.619987 z m -6.174611,0.130811 c -0.09445,0.02845 -0.227141,0.144017 -0.39561,0.360798 -0.484383,0.623298 -0.99715,2.306522 -1.302277,4.274197 -0.226,1.457435 -0.178163,1.635279 0.440465,1.63545 0.599352,1.69e-4 0.676503,-0.212462 0.564004,-1.555747 -0.07469,-0.891871 0.1253,-2.177364 0.469142,-3.012319 0.449117,-1.090606 0.507635,-1.787727 0.224276,-1.702379 z m -4.265677,0.507428 c -0.04405,-0.107669 -0.180332,0.01528 -0.439731,0.293261 -0.31035,0.332581 -0.558526,1.173669 -0.552238,1.869088 0.01423,1.572513 0.538052,0.933311 0.878724,-1.072048 0.109476,-0.644427 0.157294,-0.982631 0.113245,-1.090301 z m 19.970971,0.467272 c 0.52954,0 0.491127,0.735597 -0.133097,2.569994 -0.21204,0.623109 -0.889386,0.742591 -0.883136,0.155757 0.01415,-1.331332 0.534031,-2.725751 1.016233,-2.725751 z m -14.058143,0.365056 c -0.449019,-0.115372 -0.88224,0.646113 -0.87137,1.659788 l 0.01028,0.934543 0.708127,-1.0903 c 0.456767,-0.703415 0.579044,-1.200086 0.344874,-1.399382 -0.06356,-0.0541 -0.127777,-0.08817 -0.191923,-0.104649 z m 2.238364,0.07849 c -0.561571,0.199726 -1.248601,1.881613 -1.248601,3.260557 0,0.855066 -0.176529,1.645391 -0.39267,1.75592 -0.683987,0.349771 -1.500737,-0.488334 -1.257422,-1.290471 0.136016,-0.448391 0.0606,-0.742891 -0.191186,-0.742891 -0.229524,0 -0.443232,0.350454 -0.474293,0.778787 -0.03106,0.428332 -0.07342,0.952652 -0.09412,1.165135 -0.0207,0.212484 0.470761,0.476007 1.091972,0.585915 1.786276,0.316047 6.145854,0.30316 6.386388,-0.01885 0.120108,-0.160804 -0.08103,-0.430753 -0.44635,-0.599909 -0.631795,-0.292555 -0.632032,-0.377751 -0.01472,-1.755919 0.435702,-0.972697 0.502387,-1.408958 0.202951,-1.326372 -0.24531,0.06766 -0.595527,0.604506 -0.777982,1.192518 -0.42175,1.359178 -1.286789,2.159305 -2.33469,2.159305 -0.69739,0 -0.830009,-0.188064 -0.880195,-1.247883 -0.0325,-0.686348 0.174594,-1.809578 0.460317,-2.495766 0.285724,-0.686191 0.376296,-1.32033 0.201484,-1.409725 -0.07273,-0.03719 -0.150673,-0.03887 -0.230896,-0.01034 z m 1.614795,0.636414 c -0.08862,0.04164 -0.224057,0.199508 -0.4162,0.477615 -0.29593,0.428332 -0.544158,0.883922 -0.5515,1.012422 -0.0074,0.1285 0.137898,0.233636 0.322811,0.233636 0.397914,0 0.798977,-0.773562 0.780189,-1.505248 -0.0048,-0.185577 -0.04668,-0.260071 -0.1353,-0.218425 z m 58.956235,3.589108 c -0.44876,-0.01909 -0.43261,0.498053 0.10001,1.426762 0.42844,0.747045 0.77765,1.028527 1.02286,0.825635 0.53714,-0.444438 0.22796,-1.662195 -0.52063,-2.050398 -0.25104,-0.130192 -0.45264,-0.195637 -0.60224,-0.201999 z m -32.06355,1.249709 c -0.978683,0 -1.895696,0.667993 -1.895696,1.381127 0,0.261595 0.503238,0.21621 1.826572,-0.165492 1.528245,-0.440802 1.572196,-1.215635 0.06913,-1.215635 z m -23.849868,0.04685 c -0.362953,0.03826 -0.276269,0.814084 0.321344,4.158597 0.306144,1.713329 0.729735,4.236596 0.940491,5.60726 0.21076,1.370664 0.466533,2.687235 0.56915,2.925924 0.342039,0.795581 0.704385,0.02364 0.611799,-1.303859 -0.358231,-5.136284 -1.558265,-11.171347 -2.259684,-11.364801 -0.07002,-0.01931 -0.131249,-0.02859 -0.1831,-0.02311 z m -13.40737,2.304114 c 0.216653,0.11079 0.553195,0.547222 0.747103,0.969222 0.193987,0.422166 0.533041,0.675036 0.753718,0.562187 0.22059,-0.112803 1.392255,0.101276 2.604558,0.476398 2.203042,0.681694 2.205036,0.683432 3.176649,2.852304 0.534663,1.193503 0.972112,2.231898 0.972112,2.307762 0,0.227081 -0.982334,0.155819 -1.283158,-0.09309 -0.153579,-0.127073 -1.409875,-0.603179 -2.792071,-1.058053 l -2.513375,-0.826853 -0.05,-1.356181 c -0.07604,-2.048381 -0.187056,-2.121722 -0.66842,-0.443543 -0.242261,0.8446 -0.626493,1.587175 -0.854459,1.650051 -0.511261,0.141007 -2.004201,-1.79693 -2.002318,-2.599198 0.0019,-0.839578 1.44182,-2.680246 1.909663,-2.441006 z m 47.456338,0.03529 c -1.380813,0.05452 -2.547881,0.775811 -2.139824,1.32211 0.306306,0.410075 0.08689,0.421748 1.904517,-0.101609 1.879578,-0.541191 2.024192,-1.291137 0.235307,-1.220501 z m -38.260969,1.040409 c -0.82868,0 -0.696302,0.507616 0.513264,1.968867 0.592843,0.716203 1.196867,1.617443 1.342724,2.002942 0.248575,0.656978 0.955513,0.918463 1.427284,0.528114 0.114781,-0.09497 -0.450202,-0.988442 -1.255216,-1.985904 -0.805015,-0.997464 -1.463317,-1.971613 -1.463317,-2.164173 0,-0.192562 -0.254132,-0.349846 -0.564739,-0.349846 z m 19.665811,0.05841 c -0.615654,-0.09809 -0.649814,0.186865 -0.464,3.850125 0.110368,2.175838 0.284428,4.068407 0.386789,4.205445 0.10236,0.137036 0.275133,0.925836 0.384579,1.752876 0.10945,0.827037 0.516256,3.115509 0.903727,5.085839 0.387469,1.970328 0.712217,3.862778 0.721365,4.205444 0.01337,0.499517 0.689372,5.700505 0.779455,5.996653 0.08101,0.266305 1.120093,0.0088 1.257422,-0.311514 0.193738,-0.452005 -0.04852,-4.455457 -0.325018,-5.373625 -0.103193,-0.342665 -0.27124,-1.394027 -0.373548,-2.336358 -0.102315,-0.942331 -0.437321,-2.85931 -0.744162,-4.259595 -0.345675,-1.577532 -0.463857,-3.206322 -0.311046,-4.282106 0.177749,-1.251379 0.07796,-2.105944 -0.357373,-3.060994 -0.332205,-0.728791 -0.736452,-2.234412 -0.898581,-3.34574 -0.22836,-1.565344 -0.444546,-2.044391 -0.959609,-2.12645 z m 12.979401,0.659535 c -0.195468,-0.03383 -0.372133,0.02318 -0.539735,0.161842 -0.321211,0.265774 -0.127582,0.702651 0.769161,1.735838 0.658951,0.759214 1.197861,1.486149 1.197861,1.615982 0,0.129833 0.290957,0.501915 0.646361,0.826853 0.69378,0.634312 1.923944,2.261681 2.947222,3.897581 0.348308,0.556832 0.773653,1.012422 0.944908,1.012422 0.789179,0 0.595418,-0.65181 -0.65592,-2.207372 -0.746106,-0.927501 -1.993403,-2.744611 -2.772214,-4.038128 -1.194642,-1.984163 -1.951237,-2.903548 -2.537644,-3.005018 z m 5.436336,0.834762 c -0.169959,0.05482 -0.218267,0.282179 -0.04486,0.705773 0.157818,0.3855 0.328342,1.191543 0.378698,1.791209 0.05036,0.599665 0.110052,1.205997 0.133094,1.347057 0.02304,0.141069 0.338401,0.209575 0.700774,0.152713 0.932036,-0.146246 1.050544,-1.681034 0.227221,-2.946001 -0.490983,-0.754351 -1.111671,-1.142124 -1.394932,-1.050751 z m -43.480378,4.381269 c 0.06488,-0.04288 0.284229,-0.01327 0.692684,0.0651 0.517677,0.09934 1.618915,0.38862 2.447196,0.643109 l 1.505968,0.46301 0.275015,2.132537 c 0.861594,6.677792 1.117469,21.480582 0.459584,26.586419 -0.121419,0.942331 -0.270935,8.932676 -0.332371,17.756323 -0.109186,15.682138 -0.570546,23.365028 -1.702299,28.347808 -0.847454,3.73106 -1.628636,10.38109 -1.797162,15.30193 l -0.177218,5.17771 -1.418458,0.35167 c -1.512288,0.37489 -2.776739,0.45319 -3.092823,0.19166 -0.106273,-0.0879 -0.06034,-0.89398 0.102213,-1.79121 0.162551,-0.89724 0.56301,-4.71518 0.889756,-8.48451 0.881292,-10.16654 0.981152,-11.10027 1.336839,-12.46058 0.179199,-0.68533 0.429529,-3.62915 0.555913,-6.5418 0.12638,-2.91266 0.384985,-5.78638 0.575034,-6.38605 0.190053,-0.59967 0.370562,-1.65102 0.400757,-2.33635 0.0302,-0.68534 0.308628,-4.68051 0.618417,-8.878168 0.401088,-5.434673 0.48171,-9.470763 0.280163,-14.018145 -0.155676,-3.512325 -0.32056,-8.628949 -0.366198,-11.370277 -0.04563,-2.741327 -0.220225,-8.69904 -0.388258,-13.239363 -0.168035,-4.540324 -0.269929,-8.796243 -0.226481,-9.457386 0.04345,-0.661133 -0.138937,-1.419362 -0.404435,-1.685339 -0.209485,-0.209865 -0.298721,-0.325222 -0.233836,-0.368098 z m 37.42489,0.350454 c -0.57616,-0.05601 -0.979692,0.01408 -0.896374,0.155758 1.100228,1.870964 1.906256,3.549464 2.067763,4.307051 0.336463,1.578248 2.078562,5.575909 2.681035,6.15241 0.317327,0.303649 1.093694,0.545151 1.753036,0.545151 0.998938,0 1.254583,-0.161296 1.636124,-1.034325 0.482256,-1.103484 0.600748,-3.266777 0.223542,-4.08011 -0.402636,-0.868169 -0.900787,-0.528057 -0.900787,0.615119 0,1.573086 -0.775479,3.921799 -1.251541,3.790499 -0.220861,-0.06091 -0.51859,-0.451665 -0.6618,-0.868833 -1.041094,-3.032736 -1.927292,-5.427677 -2.701622,-7.300512 -0.800075,-1.935103 -1.019747,-2.191828 -1.949376,-2.282208 z m -22.416696,0.934544 c -0.529562,-0.146057 -0.186597,1.781691 0.932404,5.241594 0.471002,1.456331 1.142932,3.699234 1.492729,4.984232 0.349799,1.284997 0.780245,2.616721 0.956674,2.959387 0.176427,0.342665 0.598279,1.841003 0.93755,3.329917 0.453401,1.989781 0.510045,2.872124 0.214721,3.328704 -0.547385,0.846279 -0.55435,0.832535 0.775042,1.528975 l 1.177271,0.616338 -1.358164,0.37053 c -1.612887,0.440435 -1.972369,0.305955 -2.239094,-0.837802 -0.676103,-2.899222 -1.599924,-4.754246 -2.367783,-4.754246 -0.468867,0 -0.5538,0.169111 -0.351489,0.700907 1.16266,3.056172 1.41544,4.269542 1.572882,7.554225 0.09855,2.055996 0.02639,5.350261 -0.160304,7.32059 -0.18677,1.970328 -0.272564,3.687552 -0.190452,3.816052 0.08212,0.128499 0.40535,0.233636 0.717688,0.233636 0.374718,0 0.495071,-0.189993 0.353698,-0.558536 -0.117837,-0.307206 -0.0349,-1.673976 0.184568,-3.037266 0.356873,-2.216768 0.787033,-6.688863 0.810338,-8.423665 0.0073,-0.54368 0.429386,-0.73295 2.593531,-1.162707 1.94158,-0.385554 2.842332,-0.432428 3.61932,-0.188001 1.50387,0.473087 4.333314,0.06142 5.445892,-0.792173 1.967583,-1.509573 4.99234,-2.257551 5.400304,-1.335496 0.328819,0.743187 0.597314,3.527593 0.758129,7.86574 0.146957,3.964433 0.221995,4.351227 0.827254,4.253512 0.366214,-0.05912 0.741817,-0.168602 0.834607,-0.243371 0.346956,-0.279544 0.340156,-5.715511 -0.0074,-5.893221 -0.198994,-0.101759 -0.266003,-0.31282 -0.149271,-0.469097 0.116727,-0.156274 0.04931,-1.092437 -0.15001,-2.08082 -0.199314,-0.988382 -0.463981,-2.393063 -0.58753,-3.121229 l -0.224281,-1.323935 1.416257,-0.0097 c 0.778962,-0.0055 1.745231,-0.215724 2.147181,-0.467271 0.401951,-0.251552 1.376123,-0.457537 2.164828,-0.457537 0.788705,0 1.433902,-0.140182 1.433902,-0.311515 0,-0.376004 -4.747503,-0.384564 -7.153342,-0.01277 -2.018168,0.311875 -5.761566,1.588966 -6.684934,2.280385 -0.962486,0.72071 -2.409686,1.083693 -3.45093,0.865789 -0.679308,-0.142163 -1.076266,-0.586286 -1.554497,-1.740098 -0.614299,-1.482105 -0.654071,-1.512163 -0.915492,-0.697868 -0.150292,0.468141 -0.09637,1.271282 0.11986,1.784517 0.216234,0.513236 0.247919,1.006924 0.07059,1.097603 -0.499604,0.255479 -1.991628,-0.346548 -2.909723,-1.174267 -0.737068,-0.664516 -0.782832,-0.874698 -0.411053,-1.876995 0.416392,-1.122577 0.288351,-1.798081 -1.223599,-6.445063 -1.310604,-4.028168 -2.185104,-6.80603 -2.353073,-7.476346 -0.379461,-1.51435 -2.114825,-5.13127 -2.514843,-5.241595 z m -19.134897,7.915629 c 0.263993,0.0318 0.604484,0.32208 0.913286,0.857882 0.606024,1.051514 0.597673,1.096113 -0.413259,2.192769 -0.567453,0.615571 -1.588747,1.403675 -2.269244,1.751661 -0.680497,0.347987 -1.687286,1.12119 -2.237625,1.718196 -0.55034,0.597011 -1.152519,1.085434 -1.337575,1.085434 -0.753287,0 1.401398,-3.375832 3.081788,-4.828474 0.99098,-0.856665 1.804085,-1.79475 1.80672,-2.08447 0.0044,-0.498084 0.191917,-0.724792 0.455909,-0.692998 z m 37.287384,3.867769 c -1.113297,0 -1.11445,9.34e-4 -1.072855,1.841101 0.03291,1.455672 -0.13542,2.039784 -0.805192,2.790851 -0.465908,0.522459 -0.847105,1.025682 -0.847105,1.118287 0,0.0926 0.470053,0.168535 1.044176,0.168535 1.358047,0 2.209382,-1.328142 2.546466,-3.971809 l 0.248545,-1.946965 z m -36.763089,1.014855 c 0.066,0.05461 -0.111185,0.654899 -0.393404,1.333671 -0.441455,1.061744 -0.433989,1.386186 0.05148,2.324191 0.310354,0.599664 0.651249,1.265527 0.758134,1.479693 0.106886,0.214166 0.430703,0.389393 0.719156,0.389393 0.288449,0 0.524294,0.263008 0.524294,0.584697 0,0.321686 0.254132,0.759584 0.564739,0.972876 0.766243,0.526172 0.709682,1.040959 -0.188247,1.713329 -0.414141,0.310109 -0.752983,0.686303 -0.752983,0.835977 0,0.879698 -5.001425,6.65882 -7.709992,8.908584 -3.068043,2.548347 -3.108737,2.602868 -3.37813,4.51696 -0.149976,1.065612 -0.394831,2.778318 -0.544148,3.806317 -0.292162,2.011432 -1.630966,4.205444 -2.565585,4.205444 -0.452902,0 -0.516241,-0.239087 -0.311047,-1.168179 0.141899,-0.642498 0.499611,-1.478663 0.794898,-1.858134 0.631147,-0.811081 0.70278,-1.646404 0.141185,-1.646404 -0.895981,0 -1.583573,2.370978 -1.689801,5.826293 -0.05901,1.919561 -0.245281,3.671834 -0.413259,3.893928 -0.167977,0.222103 -0.30925,0.54418 -0.314723,0.715511 -0.0055,0.171331 -0.179717,0.347346 -0.386787,0.391222 -0.746382,0.158125 -0.651812,-5.1781 0.13089,-7.379607 1.159741,-3.26201 1.278668,-3.835908 0.763278,-3.69376 -0.964729,0.266077 -2.582281,5.570068 -2.592792,8.50155 -0.0031,0.856664 -0.108243,1.872971 -0.233102,2.25847 -0.265894,0.820943 -0.616935,0.882738 -1.276542,0.225123 -0.66941,-0.667386 -0.249394,-4.271388 0.98682,-8.465646 0.545207,-1.849801 1.105354,-3.503566 1.244923,-3.674898 0.139568,-0.171333 0.575473,-1.12838 0.968436,-2.126451 0.392965,-0.998067 1.105906,-2.069188 1.584648,-2.380774 0.478742,-0.311586 0.870637,-0.768238 0.870637,-1.014855 0,-0.24662 0.114869,-0.543456 0.255162,-0.659535 0.140292,-0.11608 0.628209,-1.086076 1.084619,-2.155047 1.421577,-3.32952 5.350336,-10.794553 5.859152,-11.132991 0.128794,-0.08566 0.586545,-0.79849 1.016969,-1.584344 0.665785,-1.215572 4.068224,-4.242879 4.431132,-3.942604 z m 47.180584,6.771787 c -0.373812,-0.03561 -0.718421,0.137491 -0.718421,0.548802 0,0.30101 0.592973,1.796959 1.31772,3.324444 0.724746,1.527484 1.317721,3.09513 1.317721,3.48385 0,0.388721 0.169422,0.793365 0.376492,0.899255 0.207071,0.105891 0.376492,0.479676 0.376492,0.830504 0,0.35083 0.27398,1.876856 0.608859,3.391368 l 0.608857,2.753741 0.991232,-0.512295 c 0.545171,-0.281603 1.031794,-0.528899 1.080941,-0.55002 0.04915,-0.02112 -0.252302,-0.841518 -0.669153,-1.822845 -0.416848,-0.981324 -0.862968,-2.443438 -0.991235,-3.248999 -0.12826,-0.80556 -0.691423,-2.375662 -1.251538,-3.489326 -1.216558,-2.418851 -1.891385,-3.955542 -2.154533,-4.906353 -0.11692,-0.422451 -0.519619,-0.666506 -0.893434,-0.702126 z m -3.133262,0.317599 c -0.168017,0.04539 -0.249271,0.375475 -0.154422,1.047714 0.137683,0.975809 0.06653,1.105794 -0.51841,0.952187 -0.753526,-0.197883 -0.872113,0.559412 -0.433112,2.757389 0.285934,1.431586 1.116625,1.360935 0.972112,-0.08275 -0.09345,-0.933555 -0.02469,-1.004288 0.847107,-0.866399 0.521847,0.08254 0.941176,0.06458 0.932404,-0.04015 -0.0088,-0.104741 -0.230624,-0.952736 -0.493411,-1.884298 -0.350846,-1.243734 -0.872241,-1.959332 -1.152268,-1.883691 z m -33.22613,0.320642 1.959669,0.927242 c 1.077809,0.510232 2.235036,0.927851 2.572203,0.927851 0.828173,0 0.926422,1.546087 0.444877,7.009075 -0.12082,1.370664 -0.323112,2.982751 -0.449286,3.582417 -0.260547,1.238291 -0.321178,1.867357 -0.665479,6.853317 -0.136056,1.970329 -0.323297,3.93287 -0.415466,4.361202 -0.207552,0.964564 -0.403957,2.534448 -0.916226,7.320592 -0.220056,2.055981 -0.499304,4.493701 -0.620624,5.417421 -0.18494,1.40815 -0.129296,1.6506 0.341929,1.50099 1.23588,-0.39241 6.388195,7.00098 7.032748,10.09137 0.44079,2.11342 0.312289,17.47249 -0.153683,18.37569 -0.221121,0.42861 -1.161161,0.49211 -6.923182,0.46728 l -6.668022,-0.0286 0.246335,-2.49212 c 0.340473,-3.4407 0.435206,-3.57561 2.528819,-3.61527 0.961428,-0.0183 2.002025,-0.0647 2.312631,-0.10282 0.310606,-0.0382 2.165474,-0.093 4.12229,-0.12229 2.84668,-0.0426 3.464021,-0.13138 3.086938,-0.44294 -0.332581,-0.27479 -2.044993,-0.38968 -5.817237,-0.39061 -4.096467,-9.4e-4 -5.345154,-0.0948 -5.345154,-0.40096 0,-0.2197 -0.215218,-0.50934 -0.477968,-0.6437 -0.380961,-0.19482 -0.359181,-0.52109 0.105889,-1.61173 1.015955,-2.38256 2.387691,-9.95437 2.622942,-14.47568 0.124807,-2.39866 0.288423,-7.93584 0.363254,-12.304821 0.07483,-4.36899 0.224672,-9.555705 0.333105,-11.526035 0.10843,-1.970328 0.237695,-6.978891 0.287519,-11.129949 z m 13.387518,4.094103 c -0.261142,0.05727 -0.349174,0.320876 -0.367667,0.930893 -0.01725,0.569392 -0.09801,1.385996 -0.180159,1.814328 -0.414837,2.16296 -0.57066,4.473921 -0.718422,10.673628 -0.08888,3.728978 -0.265084,6.918107 -0.3912,7.086954 -0.12611,0.168844 -0.124299,0.447438 0.0037,0.618771 0.127977,0.171332 0.46142,0.311514 0.741218,0.311514 0.498633,0 0.988404,-3.43502 0.888283,-6.230289 -0.05318,-1.484803 0.639169,-12.581408 0.893433,-14.31993 0.07756,-0.530285 -0.09206,-0.803632 -0.546353,-0.879784 -0.129407,-0.02168 -0.235767,-0.02517 -0.322811,-0.0061 z m 3.306068,0.649191 c -1.205135,0.330052 -1.01776,19.466792 0.255159,26.082643 0.232977,1.210866 0.416449,2.4705 0.578709,3.9718 0.02316,0.21417 0.201325,0.3894 0.396348,0.3894 0.389684,0 0.233199,-2.79563 -0.418406,-7.476343 -0.226588,-1.627665 -0.402173,-7.48851 -0.390464,-13.023982 0.01604,-7.575663 -0.08842,-10.034699 -0.421346,-9.943518 z m 4.452454,0.382701 c -0.583201,0 -0.726877,0.175601 -0.636802,0.778786 0.06397,0.428333 0.165672,1.199331 0.225748,1.713329 0.06008,0.513999 0.134939,1.03968 0.166188,1.168179 0.07154,0.294085 0.501403,0.29199 1.025793,-0.0049 0.252186,-0.142767 0.323007,-0.873359 0.188245,-1.942099 -0.182342,-1.446069 -0.333647,-1.71333 -0.969172,-1.71333 z M 98.545078,85.7333 c -0.449109,-0.06611 -0.901494,0.245579 -1.247128,0.951581 -0.276876,0.565551 -0.83562,1.408123 -1.241982,1.872126 -0.610801,0.697441 -0.655638,0.926872 -0.25737,1.323937 0.634314,0.63239 0.90878,0.609425 2.661917,-0.220857 1.821475,-0.862649 1.938665,-1.096591 1.312571,-2.610759 C 99.439838,86.24339 98.994184,85.799413 98.545078,85.7333 Z m -4.21715,4.316179 c -0.219292,0 -0.398551,0.140182 -0.398551,0.311514 0,0.171334 0.07487,0.311515 0.166187,0.311515 0.09132,0 0.270573,-0.140181 0.39855,-0.311515 0.127978,-0.171332 0.0531,-0.311514 -0.166186,-0.311514 z m -26.13823,5.357801 c -0.739592,-0.131984 -1.070174,1.651965 -0.76401,4.124528 0.245852,1.985512 0.228869,2.043702 -0.612538,2.043702 -0.476311,0 -1.643517,0.37101 -2.593527,0.82442 -2.15026,1.02623 -2.037995,0.94022 -1.742746,1.33549 0.338439,0.45309 0.491574,0.42664 1.715537,-0.29448 0.58491,-0.34461 1.91844,-0.85486 2.963403,-1.1341 l 1.900106,-0.50804 -0.171331,-3.148604 c -0.127845,-2.35158 -0.303719,-3.1731 -0.694894,-3.242916 z m 12.486731,32.36039 c 3.676178,-0.0123 7.350749,0.0336 7.710727,0.14784 0.356281,0.11313 0.647829,0.33763 0.647829,0.49891 0,0.16128 0.349633,0.8821 0.777248,1.60199 0.427616,0.71989 1.031347,1.91345 1.341252,2.65274 0.309909,0.73929 0.510896,1.44546 0.446349,1.56914 -0.06455,0.12367 -1.303602,-0.0139 -2.753095,-0.30605 -3.519994,-0.70946 -9.672738,-0.7344 -13.636059,-0.0547 -1.701719,0.29182 -3.189787,0.45153 -3.306801,0.35471 -0.117003,-0.0968 -0.10416,-0.73531 0.02793,-1.41885 l 0.239716,-1.24302 3.631823,-0.19895 c 1.997239,-0.10944 5.103684,-0.19925 6.903329,-0.20018 3.094713,-0.002 4.424173,-0.32603 3.082526,-0.75201 -0.93205,-0.29593 -10.316005,-0.22211 -11.910228,0.0937 -0.881367,0.17459 -1.4975,0.1671 -1.636858,-0.0194 -0.34507,-0.46197 0.190316,-2.36099 0.712541,-2.5268 0.367625,-0.11672 4.045579,-0.18668 7.721757,-0.19895 z m -71.623133,2.34731 c -1.2978686,0.024 -2.1633865,0.0737 -2.2596855,0.15332 -0.1177099,0.0974 -0.03002,0.61243 0.1941286,1.14445 0.3479383,0.82584 0.5269162,0.92878 1.2250686,0.70334 2.5639543,-0.82793 5.3217393,-1.0252 11.7006553,-0.83537 8.919006,0.26542 19.785716,1.26374 22.060061,2.02606 1.211821,0.40619 1.416489,0.41445 1.672887,0.0712 0.358326,-0.47972 -2.850045,-1.54367 -5.62605,-1.86605 -1.449493,-0.16832 -4.583786,-0.38984 -6.965097,-0.49161 -2.38131,-0.10176 -5.854446,-0.34605 -7.71808,-0.54332 -2.602732,-0.27551 -10.390283,-0.43425 -14.283888,-0.36201 z m 47.981367,0.0834 c -3.300454,0.009 -5.020919,0.62373 -1.883931,0.67353 1.138888,0.0181 3.426075,0.20765 5.082638,0.42102 1.656564,0.21337 3.139,0.33456 3.294302,0.26954 1.317824,-0.55168 -2.597826,-1.37428 -6.493009,-1.36409 z m -34.521054,3.54895 c -2.693527,-0.0567 -5.59274,0.0596 -8.965208,0.33099 -4.4609354,0.35889 -4.5166403,0.37338 -4.415689,1.12254 0.1440868,1.06927 0.2128956,1.0841 2.230272,0.49039 1.971489,-0.58019 7.533443,-1.12179 11.409463,-1.11098 3.935045,0.011 7.615423,0.59654 10.785164,1.71576 3.366471,1.18869 4.004878,1.28071 4.623052,0.6644 0.548779,-0.54711 0.345685,-0.65433 -2.669267,-1.40303 -4.590035,-1.13984 -8.508575,-1.71543 -12.997787,-1.81007 z m 41.594979,1.5162 c 0.362565,-0.0954 0.355296,0.37849 0.141919,1.82163 -0.290057,1.96177 -0.363826,1.9901 -3.640645,1.37079 -1.242423,-0.23482 -3.868452,-0.4881 -5.835621,-0.5628 l -3.576671,-0.13629 v -1.19069 -1.19129 l 3.388425,-0.10222 c 1.863634,-0.0561 4.525762,0.0709 5.915773,0.28169 2.046733,0.31048 2.638796,0.30686 3.114881,-0.02 0.209043,-0.14356 0.371085,-0.23895 0.491939,-0.27075 z m -42.457528,2.26882 c -5.009385,0.0256 -9.910078,0.50851 -10.396905,1.16027 -0.103461,0.13851 0.0102,0.55794 0.25222,0.93211 l 0.43973,0.68022 0.61327,-0.65892 c 0.483043,-0.51967 1.288048,-0.72847 3.803154,-0.98565 6.519038,-0.66662 11.369191,-0.21027 14.692735,1.38174 0.517677,0.24796 1.211719,0.45572 1.541998,0.46178 0.702811,0.013 2.038774,-1.10232 1.588325,-1.32576 -0.685858,-0.3402 -6.067402,-1.40145 -7.648223,-1.50828 -1.534601,-0.10371 -3.216508,-0.14604 -4.886304,-0.13751 z m 1.659653,3.00746 c -1.58995,0.002 -3.458406,0.16579 -6.091518,0.49099 -3.169673,0.39148 -4.235531,0.63739 -4.235531,0.97714 0,0.3506 0.27869,0.40281 1.223597,0.22937 2.21821,-0.40713 3.06917,-0.46901 6.690816,-0.48795 2.218815,-0.0116 4.15545,0.15089 5.082638,0.42711 1.945263,0.57952 3.216635,0.60212 4.061992,0.0718 0.832765,-0.52242 0.685728,-0.60053 -2.311894,-1.23146 -1.518449,-0.31959 -2.830151,-0.47915 -4.4201,-0.477 z m 121.789917,4.06307 c -0.1308,-0.005 -0.27958,0.0152 -0.41547,0.0602 -0.30034,0.0994 -0.21138,0.17365 0.22722,0.18861 0.39689,0.0136 0.61925,-0.0601 0.49414,-0.16368 -0.0625,-0.0517 -0.17511,-0.0807 -0.30589,-0.0852 z" />
    <text
       xml:space="preserve"
       style="font-size:13.6986px;line-height:1.25;font-family:Hultog;-inkscape-font-specification:Hultog;stroke-width:0.342465"
       x="110.82072"
       y="71.907974"
       id="text1549"
       transform="scale(1.0993567,0.90962289)"><tspan
         sodipodi:role="line"
         id="tspan1547"
         x="110.82072"
         y="71.907974"
         style="stroke-width:0.342465">VI</tspan></text>
  </g>
</svg>
