<?xml version="1.0" encoding="UTF-8" standalone="no"?>
<!-- Created with Inkscape (http://www.inkscape.org/) -->

<svg
   version="1.1"
   id="svg2"
   width="4cm"
   height="4cm"
   viewBox="0 0 151.1811 151.18112"
   sodipodi:docname="07.svg"
   inkscape:version="1.1.2 (0a00cf5339, 2022-02-04)"
   xmlns:inkscape="http://www.inkscape.org/namespaces/inkscape"
   xmlns:sodipodi="http://sodipodi.sourceforge.net/DTD/sodipodi-0.dtd"
   xmlns="http://www.w3.org/2000/svg"
   xmlns:svg="http://www.w3.org/2000/svg">
  <defs
     id="defs6" />
  <sodipodi:namedview
     id="namedview4"
     pagecolor="#505050"
     bordercolor="#eeeeee"
     borderopacity="1"
     inkscape:pageshadow="0"
     inkscape:pageopacity="0"
     inkscape:pagecheckerboard="0"
     showgrid="false"
     inkscape:zoom="3.167019"
     inkscape:cx="98.831109"
     inkscape:cy="83.832778"
     inkscape:window-width="1920"
     inkscape:window-height="1043"
     inkscape:window-x="0"
     inkscape:window-y="0"
     inkscape:window-maximized="1"
     inkscape:current-layer="svg2"
     units="cm"
     inkscape:document-units="cm" />
  <!-- Border -->
  <path
     id="border"
     class="board-border"
     style="fill:none;stroke:#000000;stroke-width:0.1cm"
     d="M 0,0 H 151.18111 V 151.18111 H 0 Z" />
  <g
     inkscape:groupmode="layer"
     inkscape:label="Image"
     id="g8">
    <path
       id="path12"
       style="fill:#000000;stroke-width:0.343308"
       d="m 82.955747,2.5118521 c -3.12,0.04081 -5.842434,0.3747574 -6.832778,0.8917634 -0.309011,0.1613185 -1.063568,0.5373116 -1.676737,0.8352217 -0.613168,0.2979102 -1.6577,1.0214052 -2.321242,1.6077556 -1.003328,0.8865938 -1.167725,1.230968 -0.976633,2.04534 0.230995,0.9844305 2.30537,2.8693302 3.511497,3.1909282 0.354565,0.09454 0.739624,0.378781 0.855193,0.631793 0.153305,0.335639 -0.07169,0.460325 -0.831785,0.460325 -0.653958,0 -1.399992,0.322176 -2.003018,0.865336 -1.729049,1.557403 -2.206272,2.891707 -1.464583,4.094983 0.764948,1.241006 1.867099,3.467092 2.373185,4.794381 0.417895,1.09601 0.743993,1.440462 1.443373,1.523558 1.46571,0.174148 2.277716,0.980201 2.011785,1.997402 -0.153371,0.58665 -0.0799,0.884389 0.218733,0.884389 0.348793,0 0.349257,0.101611 0.0032,0.45172 -0.327351,0.331361 -0.338185,0.621883 -0.04099,1.088431 0.364806,0.572651 0.255445,0.669941 -1.097337,0.975961 -0.826659,0.187002 -1.503363,0.470167 -1.503363,0.628722 0,0.158554 -0.573187,0.378197 -1.273642,0.488594 -0.700456,0.110395 -1.640109,0.55553 -2.088606,0.988869 -0.527651,0.509817 -1.070642,0.7315 -1.538471,0.62872 -0.426577,-0.09371 -0.914196,0.06198 -1.188786,0.379201 -0.255961,0.295708 -0.990863,0.716972 -1.632845,0.936013 -0.641987,0.219043 -1.390997,0.778171 -1.665032,1.242692 -0.274033,0.464522 -1.20174,1.481641 -2.061536,2.260445 -1.091546,0.988717 -1.696004,1.890768 -2.003011,2.989343 -0.565271,2.022741 -2.241294,5.764612 -2.685557,5.99528 -0.188514,0.09787 -0.343105,0.599083 -0.343105,1.11363 0,0.514545 -0.225323,1.390709 -0.50112,1.947621 -0.275795,0.556909 -0.432588,1.184683 -0.348223,1.394494 0.08438,0.209814 -0.0098,0.626261 -0.209225,0.925567 -0.312707,0.469447 -0.895064,0.533544 -4.240123,0.467697 -4.426933,-0.08712 -8.284142,-0.555577 -9.759018,-1.185533 -1.610558,-0.687911 -1.811078,-0.543248 -1.215123,0.875783 0.302072,0.719265 0.465227,1.378557 0.362121,1.465172 -0.247792,0.208175 -3.041973,-0.827551 -4.683447,-1.736204 -0.717439,-0.397092 -1.581055,-0.722137 -1.919615,-0.722137 -0.338559,0 -1.6056,-0.367769 -2.815777,-0.817401 -2.36976,-0.880462 -5.624662,-1.286239 -6.4648,-0.805719 -0.736694,0.421353 -0.256781,1.74341 0.991264,2.729989 0.950147,0.751086 2.331092,1.397385 3.92848,1.838838 1.52674,0.42193 0.08098,1.235947 -2.902831,1.634184 -0.824031,0.109983 -2.003891,0.323576 -2.621913,0.475073 -0.618024,0.151496 -1.72954,0.352868 -2.47048,0.44742 -1.186353,0.151389 -1.401282,0.322776 -1.798177,1.435671 -0.436823,1.22486 -0.40991,1.303813 0.877873,2.567736 0.730772,0.717229 2.137869,1.67588 3.126689,2.130156 l 1.797446,0.826003 2.417076,-0.513796 c 1.329303,-0.28249 2.754177,-0.669182 3.166194,-0.859191 0.412013,-0.190009 1.591873,-0.653515 2.621913,-1.030042 1.030035,-0.376529 2.572215,-0.980559 3.426627,-1.342257 1.41703,-0.59987 1.688645,-0.619845 3.095233,-0.229856 1.46209,0.405377 1.530452,0.479771 1.317541,1.433214 -0.186207,0.833858 -0.0567,1.116688 0.760824,1.656924 0.542225,0.358316 1.52605,0.748189 2.185904,0.865951 0.659845,0.11776 1.473455,0.416629 1.808415,0.664367 0.334966,0.247734 1.261998,0.534791 2.060074,0.637938 0.79808,0.103152 1.674935,0.335675 1.948145,0.516868 0.346931,0.230078 0.572858,0.228206 0.749117,-0.0068 0.141854,-0.189097 1.646607,-0.357243 3.43614,-0.384115 1.751065,-0.02628 3.857959,-0.192655 4.681988,-0.369366 0.82403,-0.176711 2.033256,-0.437455 2.687024,-0.579552 1.620868,-0.352302 3.089908,-1.28611 4.429598,-2.814804 0.618021,-0.705214 1.224883,-1.285307 1.348995,-1.289398 0.124114,-0.004 0.338156,1.214592 0.474783,2.707864 0.194277,2.123321 0.135286,2.791968 -0.269214,3.06801 -0.673748,0.45978 -2.784388,4.812859 -3.261296,6.726637 -0.20462,0.821115 -0.473771,2.873432 -0.598418,4.560838 -0.196443,2.659402 -0.148519,3.068011 0.361394,3.068011 0.861047,0 0.932945,-0.209956 1.169032,-3.439835 0.260322,-3.561498 0.650156,-4.838174 2.387813,-7.81937 1.449359,-2.486578 2.029432,-3.062098 2.828947,-2.804354 0.428402,0.138111 0.390957,0.486866 -0.21508,2.002319 -0.40353,1.00907 -1.013525,2.096653 -1.355581,2.417164 -0.589429,0.552305 -0.573393,0.576966 0.313105,0.472002 0.781411,-0.09252 1.081996,-0.460233 1.82305,-2.234632 0.759722,-1.819107 1.015124,-2.124007 1.779151,-2.124007 1.079648,0 1.083325,0.09822 0.12876,3.443522 -1.0524,3.688136 -1.491029,6.482341 -1.697952,10.819775 -0.163987,3.437376 -0.126639,3.713523 0.486489,3.614377 0.580502,-0.09387 0.675251,-0.541565 0.755699,-3.564594 0.171265,-6.435675 1.872169,-13.726178 3.254719,-13.94986 0.624988,-0.101115 0.661309,0.07976 0.44479,2.202058 -0.129743,1.271648 -0.325772,5.190712 -0.43602,8.709292 -0.178099,5.684246 -0.135345,6.385814 0.383339,6.293355 0.464209,-0.08275 0.625442,-0.748271 0.787894,-3.250543 0.112358,-1.730672 0.266549,-3.99628 0.34237,-5.034683 0.07579,-1.038405 0.148731,-2.327677 0.162399,-2.865198 l 0.02487,-0.977192 2.579475,0.01967 2.58022,0.01967 0.250925,2.845531 c 0.13819,1.565009 0.435923,3.765934 0.662063,4.890871 0.226132,1.124937 0.439946,2.540942 0.474775,3.146677 0.03481,0.605736 0.172401,1.73854 0.3058,2.517342 0.133399,0.778803 0.335718,2.83201 0.449169,4.562682 0.113468,1.730673 0.37644,3.587707 0.584522,4.12694 0.208096,0.539234 0.338597,1.530437 0.290426,2.202675 -0.04811,0.67224 -0.05373,2.319817 -0.01245,3.661086 0.04867,1.577666 0.225817,2.438666 0.50185,2.438666 0.564943,0 0.211846,-10.371763 -0.615969,-18.093386 -0.540041,-5.037321 -1.593597,-10.793595 -2.217362,-12.114708 -0.160473,-0.339876 0.04531,-0.48474 0.735214,-0.518094 0.87816,-0.04245 2.647963,-0.872831 5.042658,-2.36554 2.7372,-1.706216 3.786475,-2.154527 4.62785,-1.977124 0.952531,0.200847 2.114207,1.897724 2.114207,3.088294 0,0.397951 0.08553,0.795244 0.190197,0.883159 0.10467,0.08791 1.139606,-0.242074 2.300042,-0.733814 1.16042,-0.491738 2.30748,-0.894223 2.54875,-0.894223 0.2413,0 1.13633,-0.283201 1.98911,-0.629335 0.85277,-0.346135 1.70561,-0.629336 1.89475,-0.629336 0.18912,0 1.33445,-0.267071 2.54582,-0.593689 1.95526,-0.527192 3.2948,-0.973334 5.97905,-1.991873 0.85256,-0.323513 1.55124,-2.150823 1.83915,-4.80913 0.0938,-0.865336 0.27911,-1.963589 0.41185,-2.440519 0.13274,-0.476929 0.0602,-1.050209 -0.16093,-1.274037 -0.22112,-0.223826 -0.49095,-1.216067 -0.59988,-2.205131 -0.25083,-2.275028 -0.57455,-3.363009 -1.00015,-3.363009 -0.18366,0 -0.33359,-0.37153 -0.33359,-0.825388 0,-0.665321 -0.0999,-0.755354 -0.51574,-0.46524 -0.4055,0.282723 -0.55919,0.223735 -0.71473,-0.275951 -0.11368,-0.365219 -0.0131,-0.640421 0.23556,-0.645928 0.23821,-0.0053 0.13811,-0.153627 -0.2224,-0.330032 -0.3605,-0.176403 -0.65547,-0.57972 -0.65547,-0.896064 0,-0.316342 -0.23126,-0.736121 -0.51356,-0.932942 -0.28229,-0.196826 -0.60268,-0.92086 -0.71253,-1.608985 -0.24,-1.503174 -2.72598,-4.736081 -5.67327,-7.378713 -1.14958,-1.03077 -2.09006,-2.112252 -2.09006,-2.403029 0,-0.290782 -0.55667,-0.750811 -1.23706,-1.022055 -0.6804,-0.27124 -1.5653,-0.799428 -1.96644,-1.173858 -0.40115,-0.374426 -1.572122,-1.018689 -2.602157,-1.431985 -2.302482,-0.923857 -5.056553,-2.562939 -5.056553,-3.00901 0,-0.183746 0.419703,-0.26262 0.945178,-0.17823 0.519939,0.0835 1.047285,0.01275 1.171959,-0.156719 0.124673,-0.169469 0.952586,-0.577666 1.839146,-0.907128 1.343311,-0.499196 1.780228,-0.899668 2.624107,-2.403029 0.55696,-0.992198 1.18809,-2.08701 1.40241,-2.433144 0.62109,-1.003124 0.63921,-4.265073 0.0248,-4.46312 -0.28421,-0.09163 -0.51648,-0.377846 -0.51648,-0.635481 0,-0.257635 -0.34181,-0.871134 -0.75936,-1.363765 l -0.759376,-0.896066 1.694306,-0.833992 c 1.67427,-0.824295 1.6931,-0.852071 1.61311,-2.396883 -0.0445,-0.859712 -0.29671,-1.7140023 -0.56039,-1.8978406 -0.26368,-0.1838373 -0.47916,-0.486863 -0.47916,-0.6735856 0,-0.5097582 -2.971315,-2.7555754 -5.121668,-3.8712728 C 93.789471,3.4694693 91.004982,2.8227866 86.158019,2.572698 85.079041,2.5170262 83.99524,2.4982507 82.955245,2.5118537 Z M 80.471362,4.047701 c 0.309649,-0.032253 0.738208,-0.0081 1.325587,0.069449 0.896389,0.1183516 2.894055,0.2589376 4.439112,0.3122101 2.92111,0.100722 5.271306,0.4758472 6.554778,1.0466388 0.412014,0.1832331 1.676153,0.7155826 2.809195,1.1824628 3.655813,1.5064098 5.106526,2.9483444 4.713446,4.6843693 -0.16424,0.725397 -0.616109,1.177971 -1.694297,1.695026 l -1.471163,0.70493 -1.054907,-0.731971 C 94.629651,11.995118 91.301889,10.749521 88.923081,10.326921 86.442513,9.8862431 82.412117,9.8812292 80.430402,10.316475 79.606371,10.497454 78.572831,10.719902 78.134031,10.810601 77.532,10.93504 77.199946,10.755684 76.780644,10.080475 76.475015,9.5883293 75.950374,8.7608361 75.614535,8.2416341 74.271925,6.1660077 74.875755,5.5665392 79.0558,4.8245385 c 0.273977,-0.048633 0.636026,-0.2758984 0.804717,-0.5051899 0.110531,-0.1502507 0.301206,-0.2393929 0.610845,-0.271646 z m 3.142784,7.497942 c 0.206008,0 0.37456,0.283202 0.37456,0.629336 0,0.346135 -0.168552,0.629335 -0.37456,0.629335 -0.206009,0 -0.37456,-0.2832 -0.37456,-0.629335 0,-0.346134 0.168551,-0.629336 0.37456,-0.629336 z m 1.913031,0 c 0.183972,0 0.334325,0.354002 0.334325,0.78667 0,0.777603 -0.50718,1.054872 -0.915183,0.500272 -0.270712,-0.367987 0.144028,-1.286942 0.580858,-1.286942 z m 4.949005,0.157335 0.325545,1.022669 c 0.365152,1.148051 1.052724,1.37929 1.052724,0.354002 0,-0.581087 0.153305,-0.642909 1.170487,-0.472002 0.64378,0.108167 1.317986,0.196667 1.498237,0.196667 0.681658,0 0.288132,0.540011 -0.702298,0.96367 -2.169286,0.927919 -3.839223,1.969219 -3.839223,2.394425 0,0.422102 1.391071,2.93526 1.624792,2.93526 0.06141,0 1.002325,-0.222136 2.090072,-0.493511 1.087745,-0.271375 2.042527,-0.438804 2.122249,-0.371825 0.0797,0.06698 -0.0946,1.084837 -0.387718,2.261675 -0.414005,1.662306 -0.860805,2.465034 -2.003016,3.597169 -0.808633,0.801498 -1.69779,1.457181 -1.975941,1.457181 -0.278162,0 -0.670239,-0.495602 -0.871293,-1.101337 -0.465508,-1.402479 -0.767568,-1.56255 -2.958436,-1.568422 -0.988765,-0.0026 -2.297583,-0.221585 -2.907949,-0.486752 -1.076718,-0.467764 -1.120358,-0.457988 -1.479218,0.33495 -0.753973,1.666002 -0.358545,1.87002 3.412729,1.762016 2.82961,-0.08103 2.869023,-0.07104 3.117915,0.762086 0.138762,0.464153 0.201985,0.869297 0.14046,0.900367 -0.751563,0.379508 -2.146916,0.729082 -2.321977,0.582013 -0.123548,-0.103801 -0.224585,-0.447869 -0.224585,-0.765159 0,-0.370684 -0.27256,-0.577096 -0.763023,-0.577096 -0.607027,0 -0.741215,0.174981 -0.655468,0.854274 0.135041,1.069873 -0.425359,1.160487 -2.854556,0.461553 -2.419562,-0.69616 -3.961224,-2.29273 -4.532017,-4.694203 -0.416372,-1.751813 -0.348413,-2.399875 0.569161,-5.43232 0.235645,-0.778803 0.42487,-2.085304 0.420643,-2.903302 -0.0043,-0.818 0.165903,-1.577181 0.37749,-1.687037 0.244848,-0.127138 0.344856,0.259144 0.275795,1.062618 -0.08348,0.971138 0.138166,1.560973 0.960533,2.557905 0.587908,0.712695 1.423076,1.355094 1.855971,1.427067 3.122347,0.519124 3.209337,0.508093 4.318397,-0.534689 l 1.073939,-1.009765 -0.925424,-0.923721 c -0.604874,-0.60391 -0.853268,-1.151846 -0.716205,-1.580714 0.115375,-0.360969 0.229062,-0.797977 0.252396,-0.971044 0.02335,-0.173069 0.156625,0.02881 0.296274,0.448647 0.356749,1.072477 1.169773,1.216491 1.169773,0.207115 0,-0.44709 0.168552,-0.813097 0.37456,-0.813097 0.206007,0 0.354327,0.106201 0.329934,0.236001 -0.02443,0.129801 -0.02443,0.554602 0,0.944003 0.06585,1.052065 0.693714,0.856672 1.011018,-0.314668 z m -13.53606,1.12592 c 0.164942,0.0327 0.220529,0.319566 0.06877,0.840753 -0.800935,2.750545 -1.108519,3.38002 -1.370938,2.806812 -0.291559,-0.63687 -0.05006,-1.877651 0.577195,-2.964146 0.285557,-0.49466 0.560043,-0.716121 0.724983,-0.683419 z m 4.601512,0.120459 c 0.02259,0.0071 0.04715,0.03687 0.0732,0.09095 0.103914,0.216334 0.103914,0.570336 0,0.78667 -0.103915,0.216334 -0.188751,0.03933 -0.188751,-0.393335 0,-0.324502 0.04778,-0.505496 0.11559,-0.484293 z m -3.483682,0.169625 c 0.514986,0 0.354004,2.027482 -0.278,3.500679 -0.324875,0.757295 -0.704117,2.274538 -0.84276,3.371616 -0.263012,2.081337 -0.812676,2.344864 -0.816417,0.39149 -0.0032,-1.489108 1.537292,-7.263785 1.937177,-7.263785 z m 5.384279,0.646544 c 0.605026,-0.02153 1.332443,0.15114 2.080556,0.522398 1.057622,0.524856 1.42923,1.033733 0.754968,1.033733 -0.183116,0 -0.309531,0.24214 -0.280908,0.538376 0.02865,0.296237 -0.24303,0.590103 -0.603544,0.65269 -0.514598,0.08934 -0.655479,-0.09976 -0.655479,-0.880701 0,-0.989851 -0.0076,-0.99384 -1.531888,-0.777451 -1.471464,0.208852 -1.515418,0.191268 -1.110508,-0.444344 0.259349,-0.407105 0.741776,-0.623175 1.346803,-0.644701 z m 12.934721,0.628106 c 0.01536,0.07788 0.09732,0.452698 0.182166,0.833378 0.08477,0.380682 2.8e-4,0.772486 -0.188016,0.870253 -0.513731,0.266733 -0.909193,-1.100223 -0.433813,-1.499588 0.226466,-0.19026 0.424341,-0.281923 0.439663,-0.204043 z m -3.00013,0.472002 c 0.278714,0.02129 0.554714,0.130908 0.927618,0.336179 0.50677,0.278953 0.921034,0.703076 0.921034,0.942774 0,0.530759 -0.09937,0.540958 -0.660594,0.06944 -0.239668,-0.201348 -1.031573,-0.346896 -1.760137,-0.323887 -1.55336,0.04906 -1.717468,-0.31694 -0.373099,-0.831534 0.385059,-0.147389 0.666476,-0.214263 0.945178,-0.19298 z m -18.94961,0.07928 c 0.132535,0.01135 0.148603,0.602804 0.1668,2.109258 0.01675,1.38568 0.196212,3.004653 0.398695,3.597783 0.505103,1.479586 0.250178,1.533427 -0.477703,0.100792 -0.886381,-1.744568 -1.104266,-4.149814 -0.477715,-5.273758 0.188797,-0.338672 0.310402,-0.540879 0.389923,-0.534075 z m 23.089507,1.635413 c 0.181983,0 0.323134,0.2478 0.313845,0.550668 -0.0097,0.302868 -0.248859,0.97547 -0.531844,1.494672 -0.50294,0.922754 -0.514446,0.926295 -0.539165,0.157334 -0.0345,-1.070854 0.354568,-2.202674 0.757164,-2.202674 z m -3.535627,0.371823 c 0.183775,-0.0058 0.337297,0.01972 0.419183,0.0885 0.133011,0.111746 -0.0066,0.334963 -0.309453,0.49597 -0.712756,0.378691 -1.487263,0.383634 -1.487263,0.0092 0,-0.275367 0.826203,-0.576449 1.377533,-0.59369 z m 4.552495,2.103112 c 0.03762,0.02451 0.0559,0.09151 0.05633,0.19974 0.001,0.346134 -0.411528,1.054137 -0.918113,1.573339 -1.186133,1.215694 -1.192287,0.895162 -0.01612,-0.833378 0.480796,-0.706557 0.765023,-1.013221 0.877869,-0.939701 z M 86.035612,19.44184 c -0.300308,-0.02588 -0.576892,0.179561 -0.74473,0.623804 -0.135701,0.359178 -0.18955,0.688856 -0.119244,0.733201 0.07029,0.04435 0.544831,0.317235 1.054183,0.605981 1.618606,0.917572 4.879513,0.520724 4.879513,-0.593689 0,-0.331828 -0.270941,-0.419679 -0.936399,-0.303606 -0.51502,0.08983 -1.359811,0.237246 -1.877187,0.327575 -0.742252,0.129589 -1.031348,-0.0031 -1.370948,-0.629336 -0.260981,-0.48121 -0.58487,-0.738041 -0.885188,-0.76393 z m 12.279977,2.175018 c 0.639735,-0.0038 0.19103,0.723349 -1.264873,2.050257 -1.337503,1.219009 -2.57436,1.80957 -2.57436,1.229171 0,-0.272896 3.517506,-3.277477 3.839233,-3.279428 z m 1.051252,0.784826 -0.438203,1.101337 c -0.51822,1.302355 -1.357259,2.184202 -2.392206,2.513655 -1.534991,0.48863 -3.013537,0.622556 -3.558314,0.322656 -0.454554,-0.250233 -0.398358,-0.310154 0.29555,-0.314052 1.358654,-0.0077 3.648494,-1.139937 4.922677,-2.434373 z m -19.831867,3.961618 c 0.301323,-0.03942 0.787526,0.16096 1.457256,0.601064 1.176661,0.773226 5.496367,0.859631 7.865747,0.157334 2.275459,-0.674458 2.902833,-0.615077 2.902833,0.275334 0,0.664444 -0.213294,0.769304 -1.919615,0.941545 -2.274474,0.229591 -6.929488,0.187324 -9.036233,-0.08174 -1.288382,-0.164545 -1.514836,-0.312344 -1.616758,-1.056472 -0.07105,-0.518428 0.04542,-0.797646 0.34677,-0.837065 z m -0.135346,2.548071 c 0.08748,0.01 0.200191,0.04166 0.342371,0.09096 0.378646,0.131298 1.109782,0.292676 1.62479,0.358303 0.938832,0.119629 7.991512,0.136991 9.726834,0.02396 0.587454,-0.03826 0.969324,0.123642 1.046861,0.443731 0.09883,0.407912 -0.362523,0.542079 -2.422923,0.705543 -3.18687,0.252836 -8.237603,0.213581 -9.474438,-0.07375 -0.59789,-0.138895 -0.982127,-0.484807 -1.062964,-0.956909 -0.07841,-0.458091 -0.04303,-0.621917 0.219469,-0.591846 z m -1.562616,1.24515 c 0.382939,-0.062 0.615395,0.08324 0.771068,0.424064 0.308407,0.675178 3.326614,1.307987 5.942463,1.245763 3.333546,-0.07929 6.963702,-0.444159 8.268095,-0.830918 0.9388,-0.278358 1.33438,-0.241376 2.139088,0.201584 0.543012,0.298906 1.09205,0.778918 1.219512,1.066304 0.312277,0.70406 4.563862,3.594758 6.027312,4.098057 0.64537,0.221945 1.73654,1.065622 2.42513,1.875102 0.68861,0.809479 1.52823,1.684332 1.86548,1.943932 0.33727,0.259601 0.83247,0.967604 1.10029,1.573339 0.2678,0.605736 0.9898,2.02174 1.6043,3.146677 2.70357,4.949365 3.25544,6.072314 3.25544,6.619087 0,0.319787 0.15577,0.662083 0.34602,0.760854 0.32726,0.169917 1.58162,2.93192 1.79306,3.948098 0.54637,2.625661 0.53159,3.892972 -0.0613,5.19755 -0.35261,0.775678 -0.79037,1.410473 -0.97224,1.410473 -0.18186,0 -0.84556,0.42292 -1.47483,0.939701 -0.62928,0.51678 -1.60378,1.024059 -2.16615,1.127763 -0.96676,0.178282 -2.86509,0.742808 -4.95559,1.473162 -0.51502,0.17993 -2.03199,0.6596 -3.37103,1.066305 -1.33904,0.40671 -2.444153,0.740561 -2.455843,0.74119 -0.01169,6.3e-4 -0.591943,-0.990279 -1.289743,-2.202057 -0.713067,-1.238293 -2.147368,-2.977484 -3.274462,-3.970837 -2.674684,-2.357295 -2.412546,-2.514758 1.487259,-0.895453 1.437265,0.596787 1.589771,0.09253 0.288965,-0.95445 -1.437359,-1.156885 -1.086221,-1.553597 0.687669,-0.776836 1.046593,0.458289 1.813705,1.214882 2.982575,2.940791 0.86547,1.277928 1.57358,2.482089 1.57358,2.675906 0,0.440563 0.99687,0.464269 1.31535,0.03134 0.75792,-1.030242 -2.52805,-5.221421 -4.681261,-5.970698 -0.620683,-0.215975 -1.128794,-0.505712 -1.128794,-0.643468 0,-0.137758 0.782315,-0.501501 1.738188,-0.808179 1.861637,-0.59728 5.544397,-0.760527 7.532147,-0.334336 1.90377,0.408182 1.47239,-0.286482 -0.53476,-0.861034 -0.96373,-0.275869 -2.05932,-0.501501 -2.43465,-0.501501 -0.82226,0 -0.88254,-0.413087 -0.13607,-0.933557 0.6634,-0.462539 2.52048,-0.186723 4.1977,0.62319 1.12861,0.544995 1.62335,0.526641 1.62335,-0.06023 0,-0.146103 -0.90728,-0.639516 -2.01619,-1.096423 l -2.01619,-0.830917 -1.78647,0.838907 c -0.98247,0.461312 -1.87001,0.76873 -1.97228,0.682804 -0.26337,-0.221261 1.78937,-2.644659 2.68847,-3.173717 0.9457,-0.556484 0.71643,-0.762289 -0.61011,-0.548211 -0.75602,0.122013 -1.29532,0.575657 -2.02569,1.703017 -0.54753,0.845122 -1.13696,1.536462 -1.31022,1.536462 -0.303348,0 -0.408494,-1.99331 -0.392123,-7.439557 0.004,-1.409264 0.205219,-2.872888 0.446983,-3.252386 0.56459,-0.88626 0.43389,-0.969417 -1.177082,-0.749794 l -1.329979,0.180688 0.132416,2.805584 c 0.07278,1.542882 0.291137,3.403784 0.485023,4.135543 0.193886,0.73176 0.464836,2.392583 0.602798,3.690587 l 0.250935,2.360008 -1.071743,0.38842 c -0.589488,0.213669 -1.830216,0.790256 -2.757249,1.280795 -1.637648,0.86657 -4.118844,1.740978 -4.361561,1.537076 -0.06607,-0.05546 0.03514,-0.516725 0.224595,-1.024514 0.189463,-0.507788 0.525961,-1.843509 0.747648,-2.968446 0.221686,-1.124937 0.660517,-3.178144 0.975173,-4.562683 0.55614,-2.447076 0.700351,-5.036543 0.310179,-5.566915 -0.105751,-0.143797 -0.546052,-0.05326 -0.978094,0.200971 -0.701443,0.412747 -0.793818,0.809263 -0.861777,3.701031 -0.04953,2.106496 -0.355053,4.13631 -0.87495,5.807836 -0.439598,1.413373 -0.799593,3.003607 -0.799593,3.533249 0,0.657508 -0.267349,1.103446 -0.842759,1.406171 -1.141865,0.60073 -5.895135,1.882299 -6.159013,1.660609 -0.116401,-0.09778 0.07884,-1.665357 0.433815,-3.483469 0.689149,-3.5297 0.673751,-4.084488 -0.103155,-3.678906 -0.27001,0.140958 -0.658733,1.274366 -0.863973,2.518568 -0.205241,1.244206 -0.591682,2.78779 -0.858124,3.430618 -0.26643,0.642832 -0.419195,1.324594 -0.340174,1.514953 0.07904,0.190361 -0.07959,0.501693 -0.352609,0.692023 -0.370938,0.258625 -1.469422,0.0719 -4.347668,-0.739347 -2.118177,-0.597025 -4.08442,-1.085358 -4.368877,-1.085358 -0.30893,0 -0.605615,-0.47516 -0.73668,-1.180004 -0.120683,-0.649002 -0.372079,-1.675606 -0.558914,-2.281341 -0.186833,-0.605736 -0.536236,-2.65522 -0.776186,-4.55408 -0.448037,-3.545533 -0.818101,-4.223875 -2.318315,-4.246784 -0.857975,-0.01309 -0.838172,0.815003 0.0534,2.212509 0.437228,0.685323 0.809112,2.131279 0.969318,3.771097 l 0.259704,2.659924 -1.155867,0.924337 c -0.635967,0.508314 -1.156597,1.05295 -1.156597,1.210734 0,0.58026 -2.382861,2.143306 -3.1501,2.066234 -0.430571,-0.04325 -1.163067,0.09621 -1.62772,0.310367 -2.161843,0.996402 -9.15257,0.557069 -15.163054,-0.953223 l -1.399477,-0.351541 0.02562,-2.232791 c 0.01415,-1.227981 -0.245014,-3.067227 -0.575738,-4.086993 -0.330725,-1.019765 -0.548127,-1.898299 -0.483563,-1.952538 0.06459,-0.05424 0.816733,0.103491 1.671619,0.350929 1.128044,0.326515 2.687847,0.409698 5.688614,0.302992 l 4.134779,-0.146888 0.590367,0.958755 c 0.324603,0.527343 0.687281,1.648765 0.806181,2.492144 l 0.216542,1.533391 -1.266331,0.102019 c -0.948103,0.07612 -1.266331,0.250255 -1.266331,0.694484 0,0.327796 0.376628,0.710866 0.842027,0.855503 0.66916,0.207958 1.073459,0.07204 1.966435,-0.661296 1.278643,-1.050053 1.421511,-2.046794 0.579395,-4.051962 -0.631741,-1.504237 -0.216242,-1.693906 0.879337,-0.401324 0.957334,1.129479 1.539594,3.256871 1.27145,4.645038 -0.246205,1.274581 0.297891,1.396835 1.180738,0.264884 1.11117,-1.42469 0.278706,-4.103148 -1.904252,-6.126184 l -0.854461,-0.792201 1.109776,-1.848674 c 0.610447,-1.016701 1.109779,-2.106385 1.109779,-2.422083 0,-0.315699 0.230799,-1.180837 0.512824,-1.92242 0.282023,-0.741585 0.801669,-2.198005 1.1544,-3.236409 1.180785,-3.476106 2.146673,-5.166438 3.726569,-6.521367 1.858622,-1.593958 3.620705,-2.751145 4.198428,-2.75703 0.661765,-0.0068 4.338819,-1.653667 5.805664,-2.60031 0.757111,-0.488611 1.290144,-0.757853 1.673084,-0.819858 z m 2.890398,4.250472 c -0.175871,0.0083 -0.388506,0.05835 -0.634261,0.152418 -0.774693,0.296534 -0.892402,0.602127 -1.057839,2.741052 -0.147382,1.905464 -0.106075,21.366871 0.04606,21.681344 0.02096,0.04327 0.312675,0.07867 0.648157,0.07867 0.528514,0 0.585899,-0.344738 0.431619,-2.583718 -0.09797,-1.421216 -0.04142,-3.085022 0.12583,-3.697346 0.167254,-0.612327 0.402414,-4.653641 0.522329,-8.980321 0.119926,-4.326682 0.305281,-8.112969 0.411875,-8.414289 0.230898,-0.652731 0.03384,-1.002584 -0.493804,-0.977807 z m 10.456197,2.79698 c -0.05288,0.0054 -0.08271,0.0242 -0.08337,0.05777 -0.0021,0.134243 -0.07764,1.412193 -0.166064,2.839999 -0.169872,2.741841 0.141205,3.264901 0.934938,1.573338 0.263922,-0.562469 0.896444,-1.498526 1.406057,-2.079759 1.002283,-1.143141 1.008293,-1.13209 -1.139779,-2.109255 -0.424882,-0.193284 -0.793039,-0.298236 -0.951751,-0.282094 z m -18.068084,6.963251 c -0.544149,0.09109 -0.628212,0.677474 -0.888844,2.891627 -0.173423,1.473243 -0.03124,2.560178 0.736678,5.629601 0.09742,0.389402 0.440105,0.708002 0.761558,0.708002 0.473416,0 0.525986,-0.194303 0.274334,-1.022669 -0.437878,-1.441365 -0.197901,-5.329305 0.419916,-6.800389 l 0.520137,-1.238391 -1.102462,-0.135823 c -0.307254,-0.03788 -0.539935,-0.06232 -0.721317,-0.03195 z m -41.93963,6.621541 c 2.068735,0.741197 6.696901,1.982926 7.4407,1.996174 0.542975,0.0097 1.74536,0.275586 2.672391,0.591233 1.674138,0.570026 1.686093,0.584841 1.774036,2.220496 0.08452,1.572153 0.05059,1.63716 -0.749117,1.433828 -0.460716,-0.117141 -1.562758,-0.29368 -2.449264,-0.392722 -1.382387,-0.154442 -1.755616,-0.06495 -2.621913,0.629336 -1.065564,0.853983 -5.104329,2.500634 -7.939628,3.237022 -1.997984,0.518919 -2.996471,0.561977 -2.996471,0.129677 0,-0.173067 0.432206,-0.314667 0.960537,-0.314667 0.92574,0 4.496572,-1.106179 5.175789,-1.603452 0.181861,-0.133146 0.235319,-0.450205 0.119245,-0.704315 -0.178899,-0.391663 -0.570745,-0.352454 -2.577287,0.255668 -5.439885,1.648667 -6.814892,1.196281 -1.556027,-0.511953 3.991136,-1.29644 4.673352,-2.113402 0.859584,-1.029429 -3.019326,0.858172 -5.229194,0.998844 -5.229194,0.332491 0,-0.26958 0.62084,-0.501231 1.66942,-0.62196 2.363586,-0.272165 6.264903,-1.424978 6.76474,-1.999247 0.376673,-0.432769 0.540047,-0.434595 1.51872,-0.01412 1.773897,0.762069 3.279595,0.928434 4.061624,0.448033 0.646908,-0.397394 0.561861,-0.462467 -1.066616,-0.806952 -0.973776,-0.205995 -2.156958,-0.724856 -2.629229,-1.152962 -0.472265,-0.428103 -1.463742,-0.954007 -2.202729,-1.168941 -0.738981,-0.214933 -1.307989,-0.532477 -1.264866,-0.705544 0.04313,-0.173067 0.162551,-0.284583 0.265555,-0.247678 z M 76.636518,54.1358 c -0.04563,-0.0318 -0.09981,0.02159 -0.163135,0.154259 -0.449276,0.941917 -0.90253,5.815617 -0.602072,6.47343 0.125548,0.274831 0.504508,0.499658 0.842021,0.499658 0.405691,0 0.536572,-0.168757 0.386271,-0.497813 -0.125052,-0.273755 -0.237852,-2.008361 -0.250925,-3.854681 -0.01288,-1.814488 -0.07514,-2.679461 -0.21216,-2.774853 z m -30.266112,0.34048 c -0.07427,-0.01948 -0.149914,-0.01033 -0.226786,0.02948 -0.381517,0.19809 -0.362913,0.576714 0.215081,4.329756 0.398941,2.590426 1.129852,2.164392 1.037351,-0.604753 -0.0697,-2.086676 -0.50573,-3.618117 -1.025646,-3.754502 z m 27.192833,0.915117 c -0.07074,0.01189 -0.170052,0.07416 -0.304328,0.146273 -0.224177,0.120392 -0.527738,1.174595 -0.6745,2.342798 -0.220954,1.75872 -0.172521,2.124009 0.282383,2.124009 0.416797,0 0.590604,-0.550566 0.718393,-2.281342 0.144084,-1.951488 0.190287,-2.36745 -0.02196,-2.331738 z m 35.240001,2.353248 c -0.11136,0.006 -0.20318,0.03496 -0.26774,0.09158 -0.2709,0.237537 -0.11209,0.497239 0.52745,0.861032 0.5034,0.286367 1.09332,0.692461 1.31095,0.902212 0.5697,0.549105 0.95848,0.489384 0.95104,-0.145657 -0.007,-0.662907 -1.74217,-1.751002 -2.5217,-1.709162 z m -56.257735,2.616907 c -0.106216,-0.01133 -0.202139,0.0064 -0.269214,0.06269 -0.109928,0.09235 -0.08897,0.318764 0.04681,0.503345 0.305157,0.414802 0.951762,0.441469 0.951762,0.03933 0,-0.278446 -0.410716,-0.571352 -0.729367,-0.605364 z m 39.076306,0.844439 c 0.836444,0.02866 2.479984,1.249637 2.479984,1.842527 0,0.229434 0.156205,0.417303 0.347495,0.417303 0.450467,0 1.525303,0.902977 1.525303,1.281412 0,0.160705 -0.674206,0.291927 -1.498237,0.291927 -1.55055,0 -1.784402,0.133438 -3.993588,2.273352 -1.15297,1.116824 -4.246707,2.719623 -4.246707,2.200216 0,-0.142635 0.589931,-0.739789 1.310958,-1.32689 1.130263,-0.920208 1.710398,-1.888007 1.131724,-1.888007 -0.09872,0 -0.891051,0.647882 -1.760138,1.439973 -0.869088,0.792088 -2.043965,1.641691 -2.610941,1.888006 -2.06612,0.897594 -1.952401,0.405973 0.346035,-1.495285 1.702602,-1.408396 2.217901,-2.016901 1.872061,-2.209437 -0.324657,-0.180748 -1.015809,0.224365 -2.162496,1.267278 -1.832378,1.666553 -3.631494,2.771744 -4.003828,2.458956 -0.12918,-0.108523 0.634578,-0.93934 1.697218,-1.846216 2.151879,-1.836452 2.39518,-2.447278 0.974438,-2.447278 -0.526795,0 -1.664519,-0.13216 -2.528266,-0.293771 -0.863756,-0.161613 -2.878191,-0.464956 -4.476425,-0.674201 -2.98448,-0.390735 -4.772699,-1.259659 -4.772699,-2.319447 0,-0.41605 0.282141,-0.391822 1.966436,0.171472 1.081537,0.36171 2.556365,0.766634 3.277391,0.899751 0.721027,0.133114 2.322268,0.45912 3.558314,0.724598 4.376852,0.94007 5.805659,0.887546 5.805659,-0.213876 0,-0.04434 -0.613448,-0.09983 -1.363627,-0.123532 -2.594678,-0.08194 -2.222823,-0.582066 0.874947,-1.175704 1.19566,-0.229127 2.932679,-0.585832 3.859714,-0.792201 0.927034,-0.206367 2.002022,-0.364205 2.389275,-0.350926 z m -38.991444,3.637732 c -0.03939,0.03309 -0.06636,0.143058 -0.07535,0.326345 -0.01625,0.33171 0.07233,0.517563 0.196794,0.413002 0.124448,-0.104564 0.138155,-0.375761 0.03001,-0.602911 -0.05978,-0.125511 -0.112052,-0.16952 -0.151429,-0.136436 z m 27.329642,1.271576 c 0.211576,0.0074 0.471345,0.04843 0.786422,0.119231 l 1.000767,0.224936 -0.953212,1.17816 c -0.523961,0.647782 -1.012834,1.177547 -1.086374,1.177547 -0.251562,0 -0.588167,-0.995061 -0.588167,-1.738049 0,-0.701972 0.205812,-0.984041 0.840564,-0.961825 z m 26.134251,2.168258 c -0.13501,-0.09487 -0.22893,0.01595 -0.29847,0.294385 -0.22048,0.882932 0.96619,6.292068 2.56046,11.671593 0.81231,2.740957 1.47703,5.293171 1.47703,5.671395 0,0.822211 1.72395,6.70045 2.22759,7.595661 0.19476,0.346134 0.63322,1.691335 0.97445,2.989345 0.34121,1.298001 0.78881,2.82951 0.9942,3.403575 0.20537,0.574069 0.31417,1.076809 0.24213,1.116699 -1.46372,0.81066 -4.2106,1.07885 -4.66881,0.45602 -0.15095,-0.20518 -0.23171,-1.14088 -0.17996,-2.079138 0.0637,-1.155777 -0.036,-1.637868 -0.30947,-1.495908 -0.22196,0.11526 -0.40593,0.660936 -0.40893,1.2132 -0.012,2.369336 -0.65958,2.810656 -4.28549,2.918046 -1.18081,0.0349 -2.71715,-0.21723 -4.22256,-0.69326 -2.722811,-0.86098 -4.521582,-0.96405 -4.83561,-0.27655 -0.118586,0.25959 -0.385437,0.472 -0.593305,0.472 -0.207868,0 -1.208851,0.51238 -2.224669,1.13882 -1.770562,1.09189 -2.611882,1.25455 -1.948878,0.37675 0.172098,-0.22786 0.262755,-4.874652 0.201185,-10.326269 -0.08855,-7.842983 0.0043,-10.371823 0.443319,-12.114708 0.928062,-3.680256 0.901137,-6.232913 -0.04897,-4.668392 -0.988506,1.627673 -1.393849,6.80436 -1.348997,17.212694 l 0.04607,10.655685 -1.544323,-0.23109 c -0.84929,-0.12719 -3.398392,-0.27531 -5.664474,-0.32941 -2.266073,-0.0541 -5.215728,-0.18248 -6.554778,-0.28517 -1.379631,-0.10581 -3.246172,-0.0288 -4.307429,0.17761 -1.030037,0.20032 -3.339439,0.40775 -5.131895,0.46094 -1.792462,0.0532 -3.618935,0.2583 -4.0587,0.45602 -1.092595,0.49125 -1.336366,0.17113 -0.806911,-1.05892 0.60479,-1.4051 0.591724,-1.43465 -0.583785,-1.32935 -0.576423,0.0516 -1.030037,0.28463 -1.030037,0.52915 0,0.24032 -0.210689,0.54994 -0.468198,0.68834 -0.572116,0.30748 -0.619617,1.67844 -0.06803,1.96483 0.220155,0.11431 1.863534,0.26682 3.651953,0.33925 1.788416,0.0724 3.925991,0.17425 4.750022,0.22617 1.078415,0.0679 1.8131,-0.0989 2.621911,-0.59492 0.790781,-0.48497 1.910798,-0.74663 3.779973,-0.88439 1.460826,-0.10769 2.757143,-0.1107 2.880885,-0.007 0.123744,0.10396 2.383578,0.16854 5.022166,0.14381 4.154808,-0.039 4.996141,0.0405 6.281179,0.59492 0.816083,0.35209 1.609059,0.6404 1.761597,0.6404 0.152527,0 0.876409,-0.51829 1.608702,-1.15174 0.732283,-0.63345 1.393363,-1.09364 1.469701,-1.02266 0.529987,0.49281 1.697985,2.91053 2.038127,4.21974 0.53311,2.05193 1.252492,5.94345 1.167578,6.3161 -0.08099,0.35553 -0.17784,0.0703 1.100258,3.24378 1.001817,2.48744 1.022988,2.64572 0.370904,2.78899 -0.856502,0.18816 -0.538904,0.70984 0.432355,0.70984 0.7607,0 1.489454,0.86292 1.489454,1.76386 0,0.30062 0.23686,0.77033 0.52672,1.04357 0.28986,0.27323 0.58482,0.85059 0.65547,1.28325 0.1224,0.7496 0.045,0.7842 -1.650387,0.73566 -0.978535,-0.028 -1.779156,0.071 -1.779156,0.22002 0,0.14898 0.969173,0.52208 2.153713,0.82908 1.18453,0.30699 2.27084,0.69932 2.41414,0.87209 0.14331,0.17277 0.37104,0.22114 0.50623,0.10756 0.3204,-0.26916 -0.81118,-3.19971 -1.86182,-4.82142 -0.45257,-0.69858 -1.04924,-1.97299 -1.326296,-2.83202 -0.277071,-0.85903 -0.647132,-1.71881 -0.822279,-1.91075 -0.721794,-0.7909 -1.432982,-3.57464 -1.476287,-5.77833 -0.05611,-2.8529 -0.701283,-5.05121 -2.228336,-7.59258 -1.095868,-1.82378 -1.118791,-1.93613 -0.47259,-2.34772 0.925824,-0.58968 3.135464,-0.56187 4.180144,0.0528 0.472415,0.27798 1.563414,0.53649 2.424374,0.57401 4.68726,0.20431 4.17926,-0.009 4.25768,1.78783 0.0383,0.88192 0.31759,2.26142 0.62036,3.06556 1.87997,4.99296 1.8634,4.90268 1.57139,8.60358 -0.15435,1.95631 -0.2737,4.05283 -0.26481,4.65855 0.0138,0.94746 0.67268,7.84677 0.77545,8.12113 0.02,0.0534 0.22919,-0.002 0.46454,-0.12475 0.60086,-0.31199 0.15682,-6.74856 -0.48869,-7.08372 -0.36954,-0.19186 -0.31309,-0.73724 0.26337,-2.54499 0.48439,-1.51909 0.72784,-3.2716 0.71619,-5.1576 -0.0172,-2.78451 -0.4009,-4.2341 -2.59045,-9.78421 l -0.51794,-1.31213 2.49974,-0.13398 c 1.37466,-0.0735 3.55245,-0.32158 4.84,-0.5519 2.62895,-0.47027 2.67384,-0.54596 1.78353,-3.011462 -0.30677,-0.84958 -0.55958,-1.976585 -0.56183,-2.504441 -0.002,-0.527856 -0.20478,-1.127712 -0.44991,-1.333652 -0.24512,-0.205923 -0.47943,-0.553213 -0.52087,-0.7713 -0.0415,-0.218083 -0.36805,-1.316812 -0.72571,-2.441749 -0.35764,-1.124937 -0.70951,-2.470141 -0.78203,-2.989343 -0.16333,-1.169318 -2.72051,-11.329222 -3.36591,-13.373379 -1.58875,-5.031978 -2.36314,-7.169686 -2.76824,-7.454306 z m -15.732197,0.908972 c -0.16734,-0.04078 -0.398152,0.05563 -0.741073,0.237844 -0.46528,0.247235 -0.479379,0.569185 -0.09365,2.138143 0.249768,1.015886 0.454303,2.157409 0.454303,2.536395 0,0.48895 0.227105,0.688949 0.782035,0.688949 0.690361,0 0.757801,-0.138341 0.577203,-1.180004 -0.11253,-0.649002 -0.311672,-1.923407 -0.442594,-2.83201 -0.154419,-1.071686 -0.257326,-1.521349 -0.536233,-1.589317 z m 11.468677,5.766654 c -0.16386,-0.0075 -0.33842,0.01217 -0.51282,0.0633 -0.34714,0.101779 -0.30398,0.384455 0.17338,1.133295 0.92704,1.454291 1.55667,3.027327 1.785,4.459433 0.28108,1.763065 0.98984,4.019796 1.40386,4.470494 0.19181,0.208751 0.26185,0.497509 0.15582,0.641626 -0.10597,0.144122 0.11854,1.247464 0.49966,2.452198 0.45803,1.447842 0.75919,3.790531 0.88812,6.910399 0.10726,2.596008 0.20734,4.790818 0.2224,4.877346 0.015,0.08658 0.16863,-0.0293 0.34091,-0.257513 0.17227,-0.228256 0.28196,-2.493864 0.2436,-5.034678 -0.0581,-3.847015 -0.26802,-5.398208 -1.25536,-9.27471 -0.6521,-2.560294 -1.18588,-5.007594 -1.18588,-5.438465 0,-0.430872 -0.42135,-1.482212 -0.93638,-2.33604 -0.51502,-0.853829 -0.93639,-1.754254 -0.93639,-2.001092 0,-0.378697 -0.39434,-0.643266 -0.88592,-0.665596 z m -50.327709,6.792399 c -0.03157,0.02653 0.0088,0.147592 0.110466,0.371824 0.140658,0.310332 0.34995,0.4853 0.465272,0.388417 0.115323,-0.09688 7.51e-4,-0.351352 -0.255314,-0.564804 -0.18496,-0.154227 -0.288836,-0.221973 -0.320424,-0.195437 z m 16.027028,3.426314 c -0.218167,0 -0.396506,0.1416 -0.396506,0.314667 0,0.173067 0.07448,0.314668 0.165335,0.314668 0.09085,0 0.269185,-0.141601 0.396504,-0.314668 0.127319,-0.173067 0.05284,-0.314667 -0.165333,-0.314667 z m -1.207072,1.258671 c -0.492565,0 -1.279543,0.226394 -1.749162,0.502732 -0.731675,0.430541 -0.846109,0.756961 -0.798133,2.281341 0.0308,0.9784 -0.143987,2.699012 -0.38846,3.823949 -0.244468,1.124937 -0.474393,2.545505 -0.511362,3.157121 -0.03697,0.611625 -0.442664,1.646779 -0.901282,2.299784 -0.86591,1.23294 -1.111919,2.276866 -0.456493,1.936556 0.207463,-0.10771 0.477752,0.0257 0.601343,0.29623 0.379623,0.8311 0.777269,0.55587 1.449956,-1.002998 1.037633,-2.404669 1.143913,-3.812049 0.328467,-4.361716 -0.667676,-0.450063 -0.663945,-0.461719 0.100951,-0.286396 0.969427,0.222205 1.062269,0.04692 2.072509,-3.926587 1.282318,-5.043633 1.264876,-4.720016 0.251662,-4.720016 z M 5.7687979,90.240236 c -0.1354642,0.02376 -0.2058055,0.03354 -0.3570014,0.06023 -0.00377,0.01519 -0.011841,0.02973 -0.01609,0.04487 0.1890605,-0.0047 0.3787784,-0.0083 0.567691,-0.0129 -0.038711,-0.0404 -0.0955,-0.07702 -0.1945958,-0.09219 z M 108.68035,93.217288 c -0.3015,0.156528 -0.0947,2.987644 0.28602,3.917984 0.15093,0.368802 0.25826,0.330918 0.49087,-0.173925 0.34706,-0.753172 -0.32258,-3.979955 -0.77689,-3.744059 z M 78.557606,104.6873 c -0.365174,0 -0.559039,0.3029 -0.553794,0.86533 0.01751,1.87592 1.052669,6.29457 1.812082,7.73517 0.440906,0.83642 0.801787,1.78937 0.801787,2.11725 0,0.57383 1.959549,3.91299 2.657026,4.52765 0.186565,0.16441 0.339439,0.57616 0.339439,0.9145 0,0.5944 -0.0253,0.596 -0.746189,0.0479 -0.501947,-0.38162 -1.69686,-0.64725 -3.651954,-0.81125 -1.598235,-0.13407 -4.338443,-0.39571 -6.089504,-0.5814 -1.751064,-0.18569 -5.03782,-0.33295 -7.303902,-0.32758 -4.838893,0.0115 -13.669769,-0.2667 -15.544198,-0.48982 -4.346759,-0.51739 -7.033381,-0.59455 -18.353388,-0.5267 -6.901249,0.0414 -13.390483,0.12338 -14.420521,0.18253 -1.030037,0.0591 -3.895414,0.20426 -6.367501,0.32267 -6.9772608,0.33414 -6.9293414,0.32315 -6.9293414,1.64831 0,1.05214 0.060553,1.10843 0.9802913,0.9145 0.5390519,-0.11365 1.5082232,-0.29018 2.1537141,-0.39211 0.6454894,-0.10192 1.4262508,-0.36593 1.7352605,-0.58631 0.4621126,-0.32957 4.4452365,-0.77421 9.3639735,-1.04541 0.515019,-0.0284 6.077219,-0.11993 12.360447,-0.20404 9.719404,-0.13011 11.484068,-0.0847 11.827137,0.30544 0.295467,0.33598 1.196443,0.45579 3.371032,0.44927 1.632287,-0.005 6.5918,0.0797 11.020958,0.18744 4.429161,0.10779 8.305846,0.19306 8.614857,0.18991 5.090979,-0.052 18.692275,1.38946 18.945957,2.00785 0.07396,0.18022 0.303604,0.71698 0.510629,1.19292 0.207012,0.47594 0.633258,0.86534 0.947373,0.86534 0.815489,0 0.708786,-0.44407 -0.365054,-1.51619 -0.51502,-0.51419 -0.936399,-1.12124 -0.936399,-1.34901 0,-0.22778 -0.504175,-1.26928 -1.120013,-2.31454 -1.971021,-3.34534 -3.006455,-5.90838 -3.755833,-9.29498 -0.40211,-1.81721 -0.733689,-3.69342 -0.736684,-4.16935 -0.0032,-0.55729 -0.205856,-0.86533 -0.567688,-0.86533 z m 23.148764,0.13213 c -0.0684,0.002 -0.16037,0.0233 -0.27652,0.0608 -0.32248,0.10396 -0.58599,0.30556 -0.58599,0.44804 0,0.14246 -0.54695,0.12718 -1.21512,-0.0338 -1.463181,-0.35254 -1.406791,-0.3506 -1.406791,-0.051 0,0.13299 0.463517,0.48361 1.030039,0.77868 0.566517,0.29508 1.114312,0.53833 1.217322,0.54022 0.46368,0.009 1.04427,-0.51824 1.28462,-1.16525 0.15586,-0.41963 0.15764,-0.5845 -0.0476,-0.57771 z m -16.913683,0.26796 c -0.05742,0.0614 -0.02292,0.33009 0.05558,0.85858 0.08996,0.60573 0.08824,1.27833 -0.0044,1.49466 -0.253962,0.59327 -1.553457,0.47245 -2.639464,-0.24522 -0.65165,-0.43063 -1.089639,-0.5344 -1.345343,-0.31958 -0.446421,0.37505 -0.510261,0.32071 1.624793,1.37053 1.464166,0.71994 1.775761,0.77218 2.434634,0.40686 0.976461,-0.54143 1.185919,-2.33206 0.37163,-3.17926 -0.290251,-0.30199 -0.440064,-0.44795 -0.497458,-0.38657 z m 4.28037,0.38657 -0.138266,1.25867 c -0.09029,0.82004 0.11984,1.6973 0.602798,2.51734 0.407713,0.69227 1.129528,2.03747 1.604323,2.98935 0.474785,0.95187 1.090624,1.96208 1.368742,2.24508 0.455223,0.46321 0.673828,1.24656 0.799594,2.86826 0.02346,0.30288 0.148385,0.55068 0.277999,0.55068 0.129593,0 0.119322,-0.88501 -0.02271,-1.96667 -0.176435,-1.34446 -0.827632,-3.012 -2.059353,-5.27069 -0.990961,-1.81721 -1.944239,-3.72882 -2.117861,-4.24801 z m 4.70247,12.74404 c -0.486342,0 -1.001146,2.82718 -0.856664,4.70404 0.04335,0.56385 0.170661,0.67772 0.47405,0.42283 0.54311,-0.45627 0.891665,-5.12687 0.382614,-5.12687 z m 21.890493,1.05709 c -1.20986,0.002 -2.23373,0.0288 -2.88382,0.0867 -2.08153,0.18524 -3.30241,0.55237 -2.91601,0.87702 0.10924,0.0917 3.64381,0.21711 7.85477,0.27901 9.18633,0.13505 15.89062,0.86066 19.64241,2.12524 1.16432,0.39246 2.30187,0.33685 2.76821,-0.13521 0.3482,-0.35246 -0.20253,-0.5531 -3.04475,-1.11056 -1.90809,-0.37423 -4.64891,-0.82524 -6.09098,-1.00238 -1.44204,-0.17714 -3.46467,-0.452 -4.49471,-0.61028 -1.90277,-0.29239 -7.20557,-0.51441 -10.83512,-0.5095 z m -19.713367,0.51626 c -0.193853,0 -0.352619,0.1416 -0.352619,0.31466 0,0.17307 0.262612,0.31467 0.583789,0.31467 0.321176,0 0.479931,-0.1416 0.352609,-0.31467 -0.127322,-0.17306 -0.389936,-0.31466 -0.583779,-0.31466 z m -0.951039,1.72513 c -0.557027,0.0412 -0.70073,0.22564 -0.354803,0.51626 0.3086,0.25926 5.073377,0.17035 5.073377,-0.0947 0,-0.14235 -0.632071,-0.27418 -1.404599,-0.29315 -0.772529,-0.019 -1.952391,-0.0731 -2.621915,-0.12047 -0.2748,-0.0194 -0.50638,-0.0217 -0.69206,-0.008 z m 23.821076,0.75656 c -4.42916,-0.0322 -8.01087,0.0339 -7.95937,0.14627 0.0515,0.11235 0.0937,0.34399 0.0937,0.51502 0,0.19571 2.74177,0.29597 7.39755,0.27042 7.38591,-0.0405 10.14637,0.11087 12.2668,0.67359 0.61803,0.16401 2.01663,0.38066 3.10767,0.48122 1.09102,0.10052 2.35515,0.31022 2.80918,0.46586 1.11539,0.38234 1.94889,0.2486 1.94889,-0.31283 0,-0.28058 -0.5154,-0.54133 -1.31097,-0.66252 -9.29211,-1.41556 -10.50685,-1.51999 -18.35338,-1.57703 z m -50.00362,0.60721 c -0.206009,0.0107 -2.39718,0.0904 -4.869269,0.17639 -7.933431,0.27595 -10.674929,0.66808 -10.674929,1.52725 0,0.15442 0.716342,0.20679 1.591876,0.11614 4.042704,-0.41856 5.397458,-0.49882 11.892246,-0.70061 3.811138,-0.11843 7.266445,-0.19922 7.678459,-0.18008 0.412015,0.0191 2.350359,0.10527 4.307432,0.19174 l 3.558303,0.15734 -2.836984,-0.42652 c -2.390541,-0.3595 -9.399254,-0.92684 -10.647134,-0.86165 z m 27.993167,0.38719 c -0.376182,0 -0.8441,0.10011 -1.212203,0.29992 -0.426344,0.23147 -0.268269,0.3061 0.655478,0.30975 0.669526,0.002 1.217318,-0.13668 1.217318,-0.30975 0,-0.19985 -0.284423,-0.29992 -0.660593,-0.29992 z m -75.44145,0.2317 c -5.797145,0.0124 -11.7436392,0.13992 -12.6662379,0.37059 -0.719665,0.17994 -1.7522486,0.32697 -2.2949045,0.32697 -0.5426568,0 -1.2154353,0.23171 -1.4953104,0.51501 -0.4612582,0.46692 -0.3694145,0.49591 0.9839494,0.30668 4.3060674,-0.60208 6.9953334,-0.80272 13.4790014,-1.00361 7.262707,-0.22505 10.812709,-0.006 16.480594,1.01713 4.163078,0.7513 5.867388,1.02455 7.783074,1.24823 0.98455,0.11495 1.879239,0.3304 1.98838,0.47876 0.289179,0.39308 0.570056,0.33606 1.381915,-0.28086 0.698209,-0.53057 0.596489,-0.56429 -2.779927,-0.92865 -5.387224,-0.58134 -6.354932,-0.76305 -6.568681,-1.23101 -0.108769,-0.23811 -0.382709,-0.33672 -0.608658,-0.2194 -0.606749,0.31502 -3.337122,0.11859 -3.910924,-0.28149 -0.327005,-0.22799 -5.975124,-0.33077 -11.772271,-0.31835 z m 72.793194,0.0682 c -0.79863,0 -1.11611,2.3752 -0.452833,3.38698 0.19701,0.30052 0.629528,1.37928 0.961266,2.39749 0.412298,1.26541 0.724942,1.74914 0.98761,1.52848 0.251845,-0.21158 0.259562,-0.5241 0.02271,-0.90713 -0.198763,-0.32145 -0.477671,-1.25708 -0.619635,-2.07914 -0.226355,-1.31085 -0.174345,-1.49572 0.420645,-1.5045 0.373143,-0.005 1.005449,-0.21791 1.405332,-0.47201 0.719719,-0.45732 0.719719,-0.46256 0,-0.49843 -0.399883,-0.0199 -1.01172,-0.0123 -1.359236,0.0166 -0.697758,0.0582 -1.593705,-1.07366 -1.235615,-1.56043 0.12476,-0.16945 0.06597,-0.3079 -0.130197,-0.3079 z m 17.716199,1.05217 c -0.3571,0.0461 -0.40324,0.15921 -0.31092,0.36137 0.15227,0.33337 0.79046,0.48125 2.14349,0.49721 7.01991,0.0827 16.08932,1.05668 18.78135,2.01707 0.61802,0.22047 1.3765,0.47766 1.68552,0.57155 0.95487,0.29018 1.38951,0.23798 1.84499,-0.22309 0.54045,-0.54707 0.39371,-0.61431 -2.40684,-1.10072 -1.23604,-0.21469 -2.83728,-0.51822 -3.55832,-0.6742 -1.92103,-0.41559 -8.08702,-0.95825 -16.00214,-1.40863 -1.15216,-0.0656 -1.82003,-0.0866 -2.17713,-0.0405 z m -25.12764,0.2065 c -0.666563,0 -0.654311,0.10626 0.18728,1.56965 0.575895,1.00137 0.609999,1.25453 0.187279,1.3908 -0.842098,0.27148 -0.58872,0.81556 0.379685,0.81556 0.492982,0 1.002562,0.2325 1.132457,0.51687 0.129897,0.28437 0.342931,0.42728 0.473314,0.31773 0.130394,-0.10954 -0.02573,-0.73143 -0.347494,-1.38219 -0.321749,-0.65077 -0.790511,-1.64328 -1.041002,-2.20575 C 87.473567,125.2862 87.036562,124.826 86.75254,124.826 Z m -15.297658,1.34656 c -6.322432,0.0601 -20.88137,1.20549 -21.101861,1.7657 -0.13127,0.33352 0.08462,0.39175 0.9064,0.24337 4.10492,-0.74115 11.143744,-1.19678 19.526082,-1.2642 3.141614,-0.0252 5.712026,-0.14002 5.712026,-0.25505 0,-0.11503 -1.306276,-0.31503 -2.902832,-0.44434 -0.501191,-0.0406 -1.236611,-0.0541 -2.139815,-0.0455 z m -65.9691987,0.002 c -0.7690209,0.0793 -1.2051923,0.54831 -0.9978482,1.21442 0.1763857,0.56664 0.3786715,0.6206 1.5531032,0.41669 0.7427164,-0.12914 3.9630097,-0.28267 7.1561237,-0.34176 3.193117,-0.0591 6.058491,-0.14067 6.367503,-0.1813 0.494402,-0.065 4.795609,0.2123 8.614856,0.55559 2.495027,0.22425 5.830374,0.69745 7.499959,1.06384 3.857751,0.8466 7.105252,1.7627 7.106376,2.00417 7.5e-4,0.14216 0.254292,0.0458 0.563302,-0.21388 0.788317,-0.66226 0.698602,-1.1462 -0.212152,-1.1462 -0.425573,0 -2.406057,-0.35355 -4.40107,-0.78544 -3.915178,-0.84757 -4.60356,-0.95336 -9.432738,-1.44858 -3.652555,-0.37456 -6.617693,-0.51097 -15.546393,-0.716 -3.50352,-0.0804 -6.8348591,-0.2441 -7.4026593,-0.36383 -0.318876,-0.0672 -0.6120216,-0.0842 -0.8683624,-0.0578 z m 72.6783427,0.49966 c -0.404349,-0.0281 -0.687712,-0.018 -0.736684,0.0485 -0.107696,0.14646 0.524178,0.40186 1.403862,0.56726 1.905734,0.35834 3.501276,0.445 3.177171,0.17271 -0.329255,-0.27661 -2.631324,-0.7043 -3.844349,-0.78851 z m 35.640884,0.38964 c -1.08733,-0.0168 -1.72428,0.0565 -1.72428,0.2378 0,0.43309 3.64475,0.94462 4.08651,0.57341 0.25192,-0.21157 0.53615,-0.2112 0.86031,0.002 0.82908,0.54605 2.20687,0.69665 3.13252,0.34232 0.63038,-0.24128 1.02751,-0.2418 1.37022,-0.003 0.58554,0.40826 5.48148,1.39305 5.88468,1.1837 0.15802,-0.082 0.85998,0.0101 1.55968,0.20343 1.7112,0.47407 2.17783,0.56716 2.42586,0.48429 0.11534,-0.0385 0.3747,0.17774 0.57648,0.48061 0.45175,0.67817 1.20685,0.70763 1.83546,0.0713 0.67935,-0.68768 0.3032,-0.86878 -3.12522,-1.50266 -6.30712,-1.16612 -13.62015,-2.02376 -16.88222,-2.07361 z m -14.538292,0.48798 c -0.24781,-0.002 -0.429123,0.0329 -0.483565,0.10694 -0.108833,0.14794 0.183786,0.3309 0.650364,0.40624 2.367303,0.38226 2.845913,0.11962 0.716933,-0.39333 -0.321707,-0.0775 -0.635922,-0.11754 -0.883732,-0.11985 z m -14.247875,0.1112 c -0.681485,0.004 -0.735245,0.063 -0.280919,0.30974 0.726183,0.39426 1.123678,0.39426 1.123678,0 0,-0.17306 -0.379241,-0.31226 -0.842759,-0.30974 z m 17.885187,0.36567 c -0.20599,0.0557 -0.33919,0.24301 -0.29627,0.41608 0.0429,0.17307 0.12719,0.59787 0.18728,0.944 0.0601,0.34613 0.23471,0.70813 0.38845,0.80449 0.15376,0.0964 0.35361,0.83825 0.44406,1.64894 0.0905,0.81069 0.26513,1.61072 0.38772,1.77738 0.12265,0.16666 0.12289,0.63757 7.6e-4,1.04664 -0.18665,0.62475 -0.40717,0.72113 -1.37607,0.60167 -0.82625,-0.10187 -1.07506,-0.0364 -0.87787,0.2317 0.15529,0.21109 0.87255,0.33252 1.64528,0.27842 1.33829,-0.0937 1.36667,-0.12303 1.24659,-1.27589 -0.12606,-1.2099 0.19162,-1.46888 0.98467,-0.80264 0.2472,0.20768 0.44918,0.25903 0.44918,0.11369 0,-0.14533 -0.29355,-0.44506 -0.65256,-0.66559 -0.35901,-0.22054 -0.99107,-1.48524 -1.4046,-2.8105 -0.41351,-1.32527 -0.92059,-2.36403 -1.1266,-2.30839 z m -33.08994,0.69141 c -5.175758,0.0715 -17.918264,1.22991 -18.578707,1.78476 -0.464926,0.39057 1.701121,0.40066 2.864787,0.0135 1.884587,-0.62705 16.896104,-1.25211 20.899222,-0.87025 1.133042,0.10808 2.902834,0.2706 3.932872,0.36138 1.030039,0.0908 2.799821,0.25441 3.932862,0.36321 1.362786,0.13088 1.933296,0.0921 1.685517,-0.11431 -0.650743,-0.54217 -3.609349,-0.99067 -7.867205,-1.19229 -2.265164,-0.10726 -4.592766,-0.24422 -5.172126,-0.30484 -0.373267,-0.0391 -0.957826,-0.0514 -1.697222,-0.0412 z m 38.73394,0.68896 c -0.13987,-0.0741 -0.18482,0.20389 -0.17777,0.92372 0.0108,1.10087 0.0568,1.1665 0.36359,0.523 0.22123,-0.46382 0.2166,-0.92899 -0.0124,-1.25867 -0.0692,-0.0997 -0.12674,-0.16336 -0.17336,-0.18805 z m -7.81965,0.15917 c -1.007497,0.0186 -1.077722,0.0646 -0.44626,0.29254 1.04542,0.37741 2.15044,0.37741 1.87281,0 -0.12733,-0.17307 -0.76918,-0.30471 -1.42655,-0.29254 z m -2.176396,0.0178 c -0.203672,-0.002 -0.421325,0.0167 -0.603545,0.0566 -0.364428,0.0798 -0.157134,0.1503 0.460889,0.15672 0.618025,0.006 0.916386,-0.0589 0.662789,-0.14504 -0.126793,-0.0431 -0.316473,-0.0661 -0.520133,-0.0682 z m -11.197271,0.69202 c -1.233234,-0.03 -2.24223,0.0605 -2.24223,0.2016 0,0.37311 1.815899,0.69734 2.654105,0.47385 0.49839,-0.13289 0.716929,-0.0409 0.716929,0.30176 0,0.27126 0.252828,0.4935 0.561839,0.4935 0.309011,0 0.564533,0.24781 0.567689,0.55068 0.0043,0.44019 0.07223,0.46243 0.33652,0.11186 0.192091,-0.25485 0.18742,-0.78214 -0.01093,-1.25867 -0.312567,-0.75085 -0.530978,-0.82446 -2.583874,-0.87457 z m 28.837377,0.3411 c -1.8999,-0.0574 -3.27538,0.008 -3.56708,0.2532 -0.11047,0.0928 1.78675,0.24849 4.21598,0.34602 2.42923,0.0975 5.00638,0.25335 5.7274,0.34663 0.72101,0.0932 2.15371,0.23203 3.18373,0.3079 1.03004,0.0759 2.71555,0.41852 3.7456,0.76147 2.29635,0.76458 2.80921,0.81143 2.80921,0.2569 0,-0.82495 -10.41515,-2.09994 -16.11484,-2.27212 z m -16.756388,0.53162 c -0.39133,0.009 -0.906197,0.10336 -1.400933,0.27963 -0.582448,0.20753 -0.436626,0.26124 0.65548,0.24154 0.772527,-0.014 1.404601,-0.14383 1.404601,-0.28887 0,-0.16487 -0.267812,-0.24132 -0.659148,-0.2323 z m -28.587915,0.07 c -1.716851,-0.0227 -3.653327,9.5e-4 -5.715683,0.0725 -8.455249,0.2935 -8.009984,0.26487 -8.323696,0.52856 -0.15092,0.12683 3.332166,0.17618 7.740643,0.10939 5.318269,-0.0806 9.024006,0.012 11.01218,0.27595 1.648061,0.21874 3.165027,0.41554 3.371033,0.43697 0.206008,0.0214 0.607774,-0.0852 0.892498,-0.23662 0.713707,-0.37974 -0.03925,-0.54065 -4.57956,-0.98026 -1.183342,-0.11458 -2.680567,-0.18376 -4.397415,-0.2065 z m 30.796503,0.0707 c -0.24246,-0.0157 -0.44399,-0.002 -0.55086,0.0547 -0.26631,0.1412 0.002,0.31233 0.68693,0.43759 1.60056,0.29263 1.68551,0.29794 1.68551,0.11431 0,-0.24456 -1.09423,-0.5597 -1.82158,-0.6066 z m -74.588447,0.0528 c -5.151091,-0.0689 -21.1595236,0.34698 -21.9987539,0.57157 -0.2564142,0.0686 -0.3581021,0.35119 -0.2282466,0.63548 0.1691389,0.37029 0.5042018,0.45822 1.2107317,0.31713 0.5374008,-0.10732 3.2528109,-0.33597 6.0339118,-0.50827 2.781099,-0.1723 5.477925,-0.38021 5.992943,-0.46217 1.302813,-0.20732 11.160411,-0.21259 13.973536,-0.007 1.89637,0.1383 2.114609,0.10987 1.196101,-0.15488 -0.618021,-0.17814 -3.399121,-0.35427 -6.180223,-0.3915 z m 81.563867,0.44066 c -0.0424,-0.0103 -0.11699,0.1376 -0.2575,0.43574 -0.76984,1.63351 -1.05685,2.686 -0.77326,2.83324 0.17102,0.0888 0.42912,-0.29291 0.57427,-0.84813 l 0.26411,-1.00914 1.2312,1.12838 c 0.67696,0.62058 1.70974,1.27444 2.2949,1.45348 0.58519,0.17905 1.56936,0.33059 2.18738,0.33618 1.07263,0.0101 1.04444,-0.0247 -0.61964,-0.75286 -0.95881,-0.4195 -2.07885,-1.12082 -2.48877,-1.55859 -0.40989,-0.43778 -1.10021,-0.79589 -1.53408,-0.79589 -0.56085,0 -0.79621,-0.20463 -0.81422,-0.708 -0.012,-0.33541 -0.0221,-0.50406 -0.0644,-0.51441 z m -73.269434,0.16901 c -0.618875,-0.048 -0.803253,0.0101 -0.803253,0.15303 0,0.14907 0.379243,0.27736 0.842757,0.28517 0.463518,0.008 1.348414,0.20906 1.966436,0.44681 1.268958,0.48813 3.558309,0.62406 3.558309,0.21141 0,-0.14941 -0.969171,-0.42679 -2.153713,-0.61643 -1.738284,-0.27829 -2.791659,-0.43198 -3.410536,-0.47999 z m 60.276933,0.1094 c -0.481489,0 -2.648991,1.568 -2.648991,1.91627 0,0.42022 1.273653,0.34971 1.809152,-0.10022 0.364309,-0.30605 0.651023,-0.191 1.372407,0.55067 0.501546,0.51565 0.918008,1.16166 0.925424,1.43568 0.0076,0.27402 0.1253,0.59262 0.262635,0.708 0.600939,0.50485 0.804741,0.13045 0.442594,-0.8131 -0.680911,-1.77407 -1.805984,-3.69734 -2.163221,-3.69734 z m -12.044417,0.66806 c -0.130124,-0.004 -0.278142,0.0153 -0.413335,0.0608 -0.298795,0.10042 -0.210291,0.17541 0.226053,0.19053 0.394845,0.0136 0.616077,-0.0607 0.49161,-0.16533 -0.06229,-0.0522 -0.174207,-0.0815 -0.304328,-0.0861 z m 15.800975,0.31343 c -0.453667,0.0145 -0.832422,0.0611 -1.051988,0.14689 -0.48044,0.18758 -0.03265,0.31775 1.575783,0.45786 3.841908,0.33467 3.749798,0.33665 3.281058,-0.0572 -0.41111,-0.34536 -2.44384,-0.59115 -3.804853,-0.54759 z m -8.612659,0.0387 c -0.200905,0.0326 -0.369165,0.16893 -0.59842,0.42344 -0.298112,0.33095 -0.541326,0.81408 -0.541359,1.07369 -2.1e-5,0.2946 0.283039,0.15239 0.754243,-0.37798 0.469952,-0.52894 0.995903,-0.79245 1.392888,-0.69816 0.35076,0.0833 0.254991,-0.0172 -0.212885,-0.22371 -0.359808,-0.15881 -0.593575,-0.22992 -0.794467,-0.19728 z m -4.008229,0.10632 c -0.271556,-0.0417 -0.502821,-0.0343 -0.629137,0.0326 -0.298394,0.15804 -0.06575,0.31579 0.664259,0.44926 1.787265,0.32677 1.942041,0.28608 0.833976,-0.21879 -0.285698,-0.13017 -0.597543,-0.22135 -0.869098,-0.26305 z m 28.688881,0.17577 c -1.08602,0.0305 -0.92537,0.10533 0.93639,0.43452 2.86275,0.50617 3.18376,0.52547 3.18376,0.19236 0,-0.32833 -2.29851,-0.67813 -4.12015,-0.62688 z m -53.749212,0.41977 c -11.901627,-0.0455 -14.894019,0.0745 -14.689733,0.58816 0.137671,0.34622 2.340172,0.36014 5.887596,0.0375 3.271265,-0.29754 18.81292,-0.0224 24.346338,0.43082 3.688111,0.30213 3.745581,0.30226 3.745581,0.0258 0,-0.67831 -6.319618,-1.03274 -19.289782,-1.08228 z m 59.586342,0.17945 c -1.99054,-0.0184 -1.58778,0.19818 1.1017,0.59246 1.23085,0.18045 3.24917,0.5261 4.48521,0.76762 2.51949,0.49229 3.20706,0.5011 3.25983,0.0424 0.0397,-0.34456 -6.49705,-1.38084 -8.84674,-1.40249 z m -76.254215,0.0179 c -0.13734,0 -0.274384,0.0738 -0.449179,0.22063 -0.349587,0.29369 -0.249999,0.37736 0.449179,0.37736 0.699178,0 0.798765,-0.0837 0.449178,-0.37736 -0.174795,-0.14684 -0.311839,-0.22063 -0.449178,-0.22063 z m -27.364753,0.29316 c -0.733152,-0.005 -1.660186,0.19823 -2.060073,0.45233 -0.683581,0.43436 -0.647548,0.46259 0.605732,0.47201 0.733154,0.005 1.660187,-0.19825 2.060075,-0.45234 0.683581,-0.43436 0.647546,-0.4626 -0.605734,-0.472 z m 3.2057,0.0172 c -1.340251,-0.0124 -1.713033,0.0693 -1.310957,0.28763 0.672959,0.36536 1.422568,0.36536 2.434632,0 0.555245,-0.20044 0.264433,-0.27482 -1.123675,-0.28763 z m 2.83187,0.003 c -0.318832,-0.014 -0.565902,0.006 -0.651089,0.0781 -0.111713,0.0939 0.363527,0.30776 1.055642,0.47507 1.672185,0.40428 1.742177,0.40644 1.986918,0.0737 0.16939,-0.23024 -1.43498,-0.58466 -2.391471,-0.62687 z m 3.879466,0.43329 c -0.514277,0.013 -0.798255,0.0572 -0.693521,0.14074 0.192163,0.1533 1.108168,0.35426 2.035202,0.44618 2.884449,0.28603 6.051827,0.78267 6.295078,0.98703 0.403119,0.33865 2.816491,0.0263 2.97745,-0.38535 0.105019,-0.26855 -0.301389,-0.39392 -1.281695,-0.39518 -0.789694,-9.4e-4 -2.025982,-0.12866 -2.747008,-0.28393 -1.425275,-0.30695 -5.042677,-0.54875 -6.585506,-0.50949 z m 55.769778,0.16585 c -1.441459,0 -1.459095,0.36313 -0.02411,0.49782 1.422979,0.13358 2.961765,0.74222 2.717014,1.07491 -0.12756,0.17339 -0.442616,0.31528 -0.700103,0.31528 -0.257478,0 -0.795474,0.20807 -1.195368,0.46217 -1.244329,0.79068 0.104238,0.53579 2.467562,-0.46647 2.042558,-0.86622 3.038904,-1.49348 1.673806,-1.0534 -0.309435,0.0997 -1.239603,-0.0463 -2.067387,-0.3245 -0.827857,-0.27825 -2.120206,-0.50581 -2.871402,-0.50581 z m 17.112674,0.31467 c -0.20601,0 -0.37456,0.1416 -0.37456,0.31467 0,0.17307 0.16855,0.31467 0.37456,0.31467 0.206,0 0.37455,-0.1416 0.37455,-0.31467 0,-0.17307 -0.16855,-0.31467 -0.37455,-0.31467 z m 14.79506,0.89238 1.12368,0.80142 c 1.14598,0.81692 1.91697,1.07758 1.49678,0.50642 -0.12823,-0.1743 -0.77007,-0.53937 -1.42654,-0.81187 z m -10.67054,0.064 c -0.21657,0.0523 -0.37885,0.3485 -0.31017,0.84567 0.0742,0.53792 0.46787,1.00612 1.05491,1.25436 1.08481,0.45875 1.05006,0.45498 2.15372,0.20651 0.4635,-0.10436 0.84275,-0.31042 0.84275,-0.45787 0,-0.14745 -0.25282,-0.18628 -0.56184,-0.0867 -0.30902,0.0996 -0.56183,0.0244 -0.56183,-0.16717 0,-0.19159 -0.40152,-0.34848 -0.89251,-0.34848 -0.57771,0 -0.9618,-0.22206 -1.08856,-0.62933 -0.14874,-0.47782 -0.41988,-0.66938 -0.63647,-0.61704 z m -38.755138,0.26058 c -0.7776,0.005 -1.480876,0.026 -2.076167,0.064 l -2.809194,0.17946 2.434634,0.0713 c 1.339048,0.0394 3.193114,0.12278 4.120148,0.18561 0.927031,0.0628 3.623858,0.2088 5.992942,0.32388 2.369087,0.11509 4.981639,0.32388 5.805668,0.46401 2.156268,0.36669 3.151361,0.38212 2.434626,0.0381 -1.363303,-0.65435 -10.459457,-1.36299 -15.902657,-1.32628 z m -15.073804,0.043 c -0.805267,0.0489 -1.176082,0.15636 -1.403866,0.34047 -0.413847,0.33451 2.531315,0.32682 6.161204,-0.016 l 2.434634,-0.22985 -3.183752,-0.0829 c -1.963527,-0.0511 -3.202955,-0.0606 -4.00822,-0.0117 z m 8.832862,0.0387 c -0.203667,-0.002 -0.421319,0.0167 -0.603538,0.0566 -0.364436,0.0798 -0.157139,0.15031 0.460883,0.15672 0.618022,0.006 0.916381,-0.0588 0.662792,-0.14504 -0.12679,-0.0431 -0.316472,-0.0661 -0.520137,-0.0682 z m 34.367252,0.87395 c -0.298783,0.0337 -0.584427,0.11326 -0.806915,0.2323 -0.416101,0.22266 -1.764515,0.48941 -2.996473,0.59308 -3.118055,0.26237 -3.988559,0.43783 -3.753637,0.75716 0.256102,0.34814 2.820914,0.12492 5.259194,-0.45785 1.030027,-0.2462 2.378442,-0.54261 2.996465,-0.65884 l 1.123677,-0.21142 -0.936398,-0.21387 c -0.275373,-0.0628 -0.587141,-0.0744 -0.885913,-0.0405 z m 25.121798,0.36567 c -1.03974,0.10062 -3.8315,1.66171 -3.51078,2.09451 0.0999,0.13464 0.66039,0.26764 1.24585,0.29561 0.84035,0.0402 1.24502,-0.18398 1.92182,-1.06323 0.47151,-0.61257 0.77158,-1.1851 0.66717,-1.2728 -0.0627,-0.0528 -0.17555,-0.0685 -0.32406,-0.0541 z m -112.0545974,0.059 c -0.8663622,0.0207 -1.320497,0.10021 -1.5231093,0.24152 -0.2993437,0.2087 -0.4436333,0.51594 -0.3204235,0.68342 0.12321,0.16748 0.6008911,0.22542 1.0607632,0.12844 0.7794856,-0.16434 16.738918,-0.2309 22.398186,-0.0934 1.390581,0.0337 2.528303,-0.0448 2.528274,-0.17454 -2.6e-5,-0.12981 -0.80062,-0.24667 -1.779155,-0.25998 -0.978534,-0.0133 -2.369085,-0.0655 -3.090111,-0.11554 -1.958935,-0.13614 -9.495183,-0.2439 -9.925814,-0.14196 -0.206006,0.0488 -2.613635,-0.0225 -5.350633,-0.15857 -1.8525593,-0.092 -3.1316152,-0.13013 -3.9979774,-0.10939 z m 24.8708624,0.54943 c -0.218166,0 -0.292655,0.1416 -0.165333,0.31466 0.12732,0.17308 0.305658,0.31468 0.396504,0.31468 0.09085,0 0.165333,-0.1416 0.165333,-0.31468 0,-0.17306 -0.178339,-0.31466 -0.396504,-0.31466 z m 2.665804,0 c -0.81187,0 -1.580141,0.1416 -1.70746,0.31466 -0.141396,0.19221 0.433256,0.31468 1.47629,0.31468 0.939191,0 1.707461,-0.1416 1.707461,-0.31468 0,-0.17306 -0.664419,-0.31466 -1.476291,-0.31466 z m 10.034086,0.0141 c -1.997654,0.0251 -3.414213,0.18019 -3.68853,0.45788 -0.256456,0.25959 -0.319461,0.47229 -0.139728,0.47262 3.394242,0.008 15.798054,0.33752 17.182163,0.45601 1.030037,0.0882 3.946101,0.2178 6.480161,0.28763 2.534064,0.0698 4.669139,0.17884 4.744902,0.24215 0.330804,0.27645 11.0612,0.29258 11.0612,0.0166 0,-0.39533 -7.228252,-0.81298 -20.413469,-1.17939 -2.678095,-0.0745 -6.301955,-0.26849 -8.053019,-0.43144 -2.597274,-0.24169 -5.176025,-0.34708 -7.17368,-0.32205 z m 37.856057,0.0873 c -0.212159,0.0395 -0.415777,0.13972 -0.606464,0.29991 -0.523528,0.43984 -0.41104,0.48514 1.155868,0.46525 0.954631,-0.0121 1.636178,-0.10597 1.514327,-0.20834 -0.12185,-0.10237 -0.334518,-0.19832 -0.471853,-0.21326 -0.137334,-0.015 -0.55772,-0.14051 -0.934202,-0.27902 -0.225093,-0.0828 -0.445516,-0.10403 -0.657676,-0.0646 z m 27.476688,0.0221 c -0.11347,0.0954 0.28058,0.31877 0.87567,0.49657 0.5951,0.17782 1.3348,0.45713 1.64382,0.62013 0.68866,0.36325 2.91196,0.43391 2.41561,0.0768 -0.53619,-0.38577 -4.6984,-1.39237 -4.9351,-1.19352 z m -47.977207,4.33343 c -0.976438,-0.0233 -1.216146,0.0847 -1.120017,0.50397 0.08732,0.38093 0.47557,0.52456 1.357044,0.50273 0.936924,-0.0232 1.183413,0.0804 1.024184,0.42897 -0.658518,1.44169 -0.629228,1.93023 0.135341,2.27397 0.908806,0.40861 1.03518,0.95875 0.220199,0.95875 -0.309013,0 -0.561839,0.20454 -0.561839,0.45418 0,0.30906 0.508011,0.4848 1.591875,0.55068 0.875533,0.0532 2.518909,0.0551 3.65195,0.004 1.133042,-0.0507 2.565729,-0.0696 3.183753,-0.0418 2.167527,0.0976 3.021919,0.10299 6.086583,0.0399 3.080795,-0.0633 3.087737,-0.0653 2.347581,-0.68711 -0.637929,-0.53592 -0.88829,-0.57152 -1.779156,-0.25382 -1.477735,0.52698 -1.716042,0.49044 -1.782821,-0.27104 -0.05103,-0.58234 0.03719,-0.62609 0.635733,-0.31466 0.549447,0.28588 0.770237,0.26305 1.052714,-0.11002 0.592721,-0.78278 0.416545,-1.25766 -0.474051,-1.27833 -0.463516,-0.0108 -1.559103,-0.0883 -2.434634,-0.1727 -1.266703,-0.12215 -1.591877,-0.0543 -1.591877,0.33372 0,0.26826 0.194415,0.48798 0.432354,0.48798 0.258838,0 0.183609,0.23096 -0.187279,0.57525 -0.340941,0.3165 -0.619631,0.75168 -0.619631,0.96674 0,0.29238 -0.128959,0.28255 -0.512095,-0.0393 -0.723829,-0.60809 -1.135712,-1.81732 -0.618898,-1.81732 0.229727,0 0.805298,-0.3519 1.279498,-0.78176 0.474194,-0.42985 0.968331,-0.69286 1.097339,-0.58447 0.129014,0.10838 0.507368,0.007 0.841292,-0.22617 0.515981,-0.35975 0.660864,-0.34289 0.964198,0.11247 0.394478,0.59219 1.817932,0.73896 1.817932,0.18745 0,-0.19158 0.264235,-0.26275 0.587445,-0.15857 0.443211,0.14288 0.558283,0.0154 0.4682,-0.51748 -0.115147,-0.681 -0.277762,-0.70909 -4.520317,-0.78666 -4.187386,-0.0766 -4.401067,-0.0498 -4.401067,0.55067 0,0.37147 -0.249341,0.63117 -0.605733,0.63117 -0.421124,0 -0.545913,-0.19165 -0.409673,-0.62933 0.110242,-0.35417 0.0068,-0.64345 -0.237027,-0.66129 -1.759406,-0.12875 -2.32977,-0.0853 -2.493158,0.18929 -0.103009,0.17306 0.361799,0.35928 1.032964,0.41361 1.073968,0.087 1.200045,0.1926 1.051251,0.88193 -0.214435,0.99346 0.751317,1.36977 1.451416,0.56542 0.418342,-0.48063 0.601272,-0.51011 1.083443,-0.17393 0.643889,0.44894 0.439705,1.30231 -0.311646,1.30231 -0.622382,0 -1.025493,0.86661 -0.474783,1.02083 0.759674,0.21273 -0.109663,0.86713 -1.139038,0.85734 -0.865507,-0.008 -0.915471,-0.0546 -0.352612,-0.33002 0.360513,-0.17641 0.655476,-0.46542 0.655476,-0.64225 0,-0.47938 -1.119414,-1.32924 -1.419225,-1.07737 -0.14298,0.12012 0.03704,0.35843 0.400163,0.52916 0.748276,0.3518 0.51902,0.96179 -0.266287,0.70862 -0.281579,-0.0908 -0.624941,-0.0119 -0.763021,0.17577 -0.342872,0.46608 -0.96257,0.10002 -0.722048,-0.42653 0.120049,-0.2628 -0.169677,-0.50007 -0.765211,-0.62565 -0.527305,-0.11117 -0.959077,-0.34094 -0.959077,-0.51071 0,-0.16977 -0.337103,-0.30853 -0.749119,-0.30853 -0.852056,0 -1.008121,-0.47849 -0.237024,-0.72705 0.281763,-0.0908 0.596361,-0.53324 0.69864,-0.98272 0.200728,-0.88215 -0.115358,-1.01021 -2.640204,-1.07061 z m -4.095274,0.0817 c -1.984952,0.0189 -2.528273,0.12541 -2.528273,0.49598 0,0.30159 0.37189,0.47739 1.030037,0.48674 0.56652,0.008 1.030036,-0.11015 1.030036,-0.26242 0,-0.15227 0.210692,-0.21722 0.4682,-0.14442 0.262741,0.0743 0.415083,0.50022 0.34749,0.97042 -0.06624,0.46084 0.06018,0.83768 0.280919,0.83768 0.220755,0 0.401629,0.28321 0.401629,0.62934 0,0.41621 0.249755,0.62933 0.737411,0.62933 0.84504,0 0.654566,-0.83355 -0.339442,-1.48483 -0.522964,-0.34265 -0.515687,-0.3844 0.07022,-0.39334 0.73734,-0.0113 0.916873,-0.6334 0.187278,-0.64901 -0.285935,-0.006 -0.21303,-0.17307 0.187278,-0.42836 0.360514,-0.22991 0.65548,-0.48354 0.65548,-0.56419 0,-0.0806 -1.137723,-0.1361 -2.528273,-0.12292 z M 47.750127,142.998 c -0.154505,-0.0432 -0.329986,0.20889 -0.389923,0.56051 -0.08273,0.48541 0.187758,0.71265 1.123676,0.944 0.677959,0.16759 1.232681,0.4872 1.232681,0.70985 0,0.22265 0.252828,0.53898 0.561838,0.70309 0.744399,0.39531 2.247356,0.39078 2.247356,-0.007 0,-0.17306 -0.168552,-0.31466 -0.374559,-0.31466 -0.872476,0 -0.282984,-0.88086 0.700103,-1.04602 0.658492,-0.11064 1.153514,-0.43068 1.27657,-0.82601 0.190794,-0.61293 0.04219,-0.64531 -2.948186,-0.64531 -1.731778,0 -3.27505,-0.0354 -3.429556,-0.0787 z m -39.5562066,0.083 c -2.4643085,0.0763 -3.3099477,0.80436 -2.2751529,2.08775 0.3978375,0.49341 0.7262938,1.05555 0.7293657,1.24883 0.00303,0.19329 0.5210829,0.71595 1.1514756,1.16157 0.8613113,0.60885 1.6509366,0.83422 3.1778992,0.90713 1.117582,0.0533 3.043584,0.0605 4.279628,0.016 1.236045,-0.0446 2.627005,-0.0811 3.090844,-0.0817 0.695066,-9.5e-4 0.777251,-0.0979 0.468198,-0.54882 -0.206239,-0.30096 -0.553142,-0.9672 -0.771065,-1.48054 -0.295891,-0.69699 -0.476963,-0.82347 -0.714734,-0.50027 -0.175119,0.23804 -0.277696,0.58746 -0.227515,0.77622 0.05017,0.18876 0.02403,0.24484 -0.05851,0.12476 -0.246781,-0.35899 -1.225362,0.0935 -1.225362,0.56664 0,0.60748 -1.366264,0.55247 -1.648938,-0.0664 -0.13161,-0.28813 -0.469643,-0.42732 -0.788623,-0.3245 -0.307274,0.0991 -0.558912,0.0428 -0.558912,-0.12475 0,-0.16764 0.210691,-0.30724 0.4682,-0.30976 1.017401,-0.0105 1.435164,-0.4995 1.092219,-1.27833 -0.184546,-0.41912 -0.484775,-0.72126 -0.667182,-0.67113 -0.18241,0.0501 -0.383623,-0.18853 -0.447715,-0.53039 -0.09275,-0.49467 -0.517422,-0.66324 -2.079826,-0.82723 -1.171528,-0.12297 -2.172841,-0.17047 -2.9942784,-0.14504 z m 17.6196346,0.0344 c -2.630265,0.017 -3.471726,0.28654 -3.142784,1.00669 0.224281,0.49101 1.512464,0.40802 2.370986,-0.15242 0.579376,-0.37821 1.725224,0.0383 1.49458,0.5433 -0.10328,0.22608 0.01377,0.47952 0.259705,0.56356 0.893006,0.30521 1.09278,0.18885 0.926885,-0.54022 -0.09405,-0.41333 0.01173,-0.74019 0.237757,-0.73688 0.223483,0.003 0.743119,-0.0257 1.155134,-0.064 1.649232,-0.15305 -0.920097,-0.63547 -3.302263,-0.62011 z m 18.783546,0.0129 c -1.180862,-0.0389 -1.43786,0.0385 -1.137578,0.34232 0.329493,0.33335 1.903335,0.46738 3.260566,0.2778 0.849366,-0.11864 -0.708181,-0.57355 -2.122988,-0.62012 z m -29.932528,0.035 c -0.52015,0.0359 -0.822277,0.11407 -0.911526,0.23539 -0.177249,0.24094 0.02891,0.32959 0.618902,0.2655 1.164551,-0.12648 1.821584,0.24517 1.821584,1.03066 0,0.80519 0.811624,0.61799 1.305837,-0.30114 0.36403,-0.67704 0.941517,-0.9378 0.941517,-0.4253 0,0.14423 0.21069,0.27562 0.468198,0.29193 0.25751,0.0163 0.823871,0.12175 1.259017,0.23477 0.601428,0.15621 0.840734,0.0484 0.995654,-0.44926 0.137958,-0.4432 0.02627,-0.65453 -0.345296,-0.65453 -0.301883,0 -0.452114,0.13205 -0.333593,0.29315 0.118523,0.16112 0.05697,0.37509 -0.1368,0.47569 -0.193778,0.10062 -0.406959,-0.0454 -0.474052,-0.32449 -0.09561,-0.39779 -0.742017,-0.53894 -2.988425,-0.6527 -0.962349,-0.0487 -1.70087,-0.0556 -2.221017,-0.0197 z m 21.317671,0.0129 -5.33088,0.0725 0.02196,0.7793 c 0.03154,1.14502 0.557981,2.63257 1.028576,2.90576 0.270184,0.15684 0.116582,0.42952 -0.449179,0.79834 -0.472799,0.30822 -0.739918,0.66165 -0.593298,0.78482 0.385991,0.32428 2.307018,0.27478 2.557538,-0.0658 0.117058,-0.15912 -0.05307,-0.5129 -0.378218,-0.78606 -1.626733,-1.36662 -1.230401,-3.95201 0.606463,-3.9567 0.527147,-0.001 1.285629,0.20561 1.685516,0.45971 0.399887,0.2541 0.996273,0.46649 1.324856,0.47201 0.701523,0.0117 2.066437,1.1808 1.71917,1.47254 -0.131097,0.11014 -0.469144,0.0395 -0.750585,-0.15672 -0.571518,-0.39842 -1.004435,-0.17683 -1.004435,0.5138 0,0.32891 0.235227,0.39482 0.842759,0.23539 0.463517,-0.12164 1.145951,-0.21746 1.516525,-0.21265 0.481204,0.006 0.61216,-0.15365 0.458688,-0.55989 -0.1795,-0.47511 -0.04912,-0.54235 0.790818,-0.40746 0.990172,0.15901 0.996234,0.14976 0.384068,-0.58447 -0.763478,-0.91573 -0.78465,-1.23471 -0.08193,-1.23471 0.296853,0 0.638947,-0.13548 0.760824,-0.30115 0.138092,-0.1877 -1.787115,-0.27378 -5.109221,-0.22862 z m 49.606384,0.11739 c -2.439417,-0.0442 -4.989911,0.0663 -5.435491,0.37182 -0.604096,0.41432 -0.606647,0.4754 -0.03298,0.82785 0.366126,0.2249 0.522371,0.59192 0.382605,0.89791 -0.278367,0.60943 0.494453,0.70254 1.163913,0.14012 0.349593,-0.29369 0.548766,-0.29369 0.898358,0 0.349593,0.29369 0.343916,0.37736 -0.02703,0.37736 -0.262323,0 -0.420547,0.24498 -0.351885,0.54452 0.0732,0.31946 0.469756,0.54712 0.959073,0.55067 0.458814,0.003 0.793581,0.14775 0.744728,0.32082 -0.04887,0.17306 -0.367401,0.2835 -0.708148,0.24521 -0.340748,-0.0383 -0.714756,0.13872 -0.831047,0.39334 -0.161082,0.35264 0.09818,0.46278 1.087821,0.46278 1.038471,0 1.299258,-0.12343 1.299258,-0.61397 0,-0.33753 0.294965,-0.75344 0.65548,-0.92434 0.71096,-0.33701 0.370146,-0.83463 -0.703035,-1.02697 -0.465226,-0.0833 -0.534157,-0.27685 -0.292618,-0.8174 0.2324,-0.52013 0.617039,-0.70801 1.451416,-0.70801 0.624652,0 1.115872,0.10621 1.091489,0.23601 -0.131345,0.69879 0.118963,0.94775 0.801787,0.79773 0.594786,-0.13067 0.665005,-0.25979 0.328465,-0.60045 -0.235517,-0.23843 -0.337417,-0.43327 -0.226034,-0.43327 0.111374,0 0.469345,-0.0861 0.795204,-0.19113 0.399515,-0.1288 0.59257,-0.0135 0.59257,0.35338 0,0.44806 0.09927,0.47493 0.561838,0.15242 0.309011,-0.21546 0.561839,-0.57529 0.561839,-0.79959 0,-0.31367 -2.328171,-0.51264 -4.767586,-0.5568 z m 6.327996,0.0977 c -0.944755,0 -1.224625,0.30668 -0.705951,0.77314 0.346553,0.31168 0.532243,0.30937 0.913723,-0.011 0.657694,-0.5526 0.600657,-0.7621 -0.207772,-0.7621 z m -53.761645,0.0319 c 0.439587,-0.0348 0.468851,0.19615 0.266288,0.8469 -0.266438,0.85595 -0.728381,0.88799 -1.239263,0.0861 -0.316648,-0.49706 -0.245128,-0.64561 0.389921,-0.81495 0.244276,-0.0652 0.436527,-0.10637 0.583054,-0.118 z m 33.988302,0.0504 c 0.299059,-0.008 0.608658,0.44057 0.608658,1.03742 0,0.42245 -0.148685,0.76823 -0.330666,0.76823 -0.400825,0 -0.834989,-1.26166 -0.561837,-1.63296 0.08544,-0.11613 0.184158,-0.16984 0.283845,-0.17269 z m -30.375123,0.0369 c -0.03939,0.0331 -0.06636,0.14306 -0.07535,0.32634 -0.01625,0.33171 0.07233,0.51756 0.196794,0.413 0.124447,-0.10456 0.138156,-0.37575 0.03001,-0.60291 -0.05979,-0.12551 -0.112053,-0.16952 -0.151433,-0.13643 z m 61.178942,0.0406 c -0.25698,0.0103 -0.54494,0.0491 -0.85446,0.11861 -1.451,0.32582 -1.54275,1.51867 -0.19094,2.47862 l 1.00223,0.71169 -0.84275,0.19053 c -0.98171,0.22166 -0.9894,0.2429 -0.37822,1.06507 0.49525,0.66622 1.5843,0.83484 1.97375,0.30545 0.1294,-0.17589 0.41143,-0.22891 0.62621,-0.11738 0.2148,0.11153 0.53981,0.008 0.72279,-0.23047 0.2822,-0.36785 0.38376,-0.36721 0.66864,0.004 0.24041,0.31348 0.82742,0.39138 2.06594,0.27411 0.95158,-0.0901 1.82592,-0.0337 1.943,0.12538 0.11709,0.15915 0.52536,0.20566 0.90714,0.10386 0.71967,-0.19189 5.1524,-0.1855 24.99378,0.0344 l 11.70496,0.12968 v -1.08475 c 0,-0.59671 -0.18352,-1.18049 -0.40747,-1.29677 -0.29324,-0.15224 -0.29324,-0.30679 0,-0.55313 0.22395,-0.18818 0.40747,-0.71761 0.40747,-1.17633 v -0.83399 l -20.88166,0.0614 c -11.48492,0.0337 -21.00807,0.0831 -21.16259,0.11001 -0.1545,0.0269 -0.28091,0.22996 -0.28091,0.45111 0,0.22113 -0.34287,0.64838 -0.76156,0.94953 -0.58748,0.42258 -0.92943,0.47207 -1.49824,0.21634 -0.40535,-0.18226 -0.73667,-0.45967 -0.73667,-0.61644 0,-0.43797 0.66918,-0.68541 0.9225,-0.34109 0.30061,0.40864 1.32484,0.0585 1.32484,-0.45294 0,-0.43084 -0.49685,-0.65772 -1.26778,-0.62688 z m -4.80855,0.15487 c -1.121051,0 -1.145197,0.0246 -0.456489,0.46217 0.927693,0.58948 1.158917,0.59098 1.424341,0.0101 0.16361,-0.35818 -0.06974,-0.472 -0.967852,-0.472 z m -2.882344,0.0271 c -0.636223,0.0213 -1.376831,0.23157 -2.140547,0.62811 -1.410177,0.73218 -1.629235,1.07227 -0.536234,0.83215 0.899342,-0.19758 1.297474,0.53413 0.567689,1.04295 -0.2945,0.20533 -0.446704,0.49384 -0.337981,0.64162 0.17582,0.239 2.361585,0.0585 2.760182,-0.228 0.08597,-0.0617 0.188273,-0.35974 0.228238,-0.66253 0.130566,-0.98914 0.621602,-1.65292 1.059308,-1.4326 0.235918,0.11877 0.19713,-0.0237 -0.08563,-0.31651 -0.346912,-0.35929 -0.878842,-0.52652 -1.515064,-0.50519 z m -84.949538,0.13031 -0.5179454,0.708 c -0.2847426,0.3894 -0.7574626,0.708 -1.0512518,0.708 -0.2937925,0 -0.4640535,-0.0367 -0.3782179,-0.0817 0.085836,-0.0452 0.5592854,-0.36372 1.0519846,-0.708 z m 51.957619,0.15733 c -0.206008,0 -0.374559,0.1416 -0.374559,0.31467 0,0.17306 0.168551,0.31467 0.374559,0.31467 0.206008,0 0.374559,-0.14161 0.374559,-0.31467 0,-0.17307 -0.168551,-0.31467 -0.374559,-0.31467 z m 21.162579,0.31467 c 0.309011,0 0.56184,0.13338 0.56184,0.29623 0,0.39679 -0.585208,0.68099 -0.884454,0.42959 -0.421823,-0.35438 -0.256602,-0.72582 0.322614,-0.72582 z m 34.855924,0 c 0.0908,0 0.16535,0.1416 0.16535,0.31467 0,0.17306 -0.17834,0.31466 -0.39651,0.31466 -0.21816,0 -0.29266,-0.1416 -0.16534,-0.31466 0.12733,-0.17307 0.30567,-0.31467 0.3965,-0.31467 z m 13.83674,0 c 0.30902,0 0.56185,0.1416 0.56185,0.31467 0,0.17306 -0.25283,0.31466 -0.56185,0.31466 -0.30901,0 -0.56182,-0.1416 -0.56182,-0.31466 0,-0.17307 0.25281,-0.31467 0.56182,-0.31467 z m -16.21943,0.0363 c 0.33187,-0.0278 0.64834,0.17016 0.96274,0.59308 0.55727,0.74965 1.95985,0.84634 1.95985,0.13521 0,-0.64314 1.46864,-0.48078 1.9913,0.22003 0.28599,0.38343 0.18857,0.71895 -0.38699,1.33365 l -0.7696,0.82169 -0.62329,-0.70493 -0.62328,-0.7043 0.17046,0.70799 c 0.17748,0.73517 -0.32805,1.00348 -0.59989,0.31836 -0.12024,-0.30304 -0.36764,-0.30789 -1.11417,-0.0221 -0.83871,0.32103 -1.06633,0.27239 -1.80183,-0.38534 -0.80264,-0.71776 -0.81321,-0.78996 -0.21947,-1.55122 0.37492,-0.4807 0.72231,-0.73427 1.05417,-0.76209 z m -86.910842,0.0332 c -0.23951,-0.0671 -0.435277,0.1729 -0.435277,0.53346 0,0.36055 0.238133,0.65576 0.528917,0.65576 0.621724,0 0.542035,-1.01121 -0.09364,-1.18922 z m 14.275671,0.22186 c -0.149356,-0.0129 -0.338975,0.14633 -0.421379,0.354 -0.08241,0.20768 0.052,0.3206 0.29921,0.25137 0.482858,-0.13522 0.570029,-0.56644 0.122169,-0.60537 z m -31.191543,0.0233 c 0.412014,0 0.749117,0.12491 0.749117,0.27779 0,0.15288 0.379241,0.36528 0.842757,0.472 0.7021,0.16165 0.748986,0.24534 0.28092,0.5015 -0.30901,0.16912 -0.880352,0.22412 -1.269258,0.12231 -0.595888,-0.15601 -0.677694,-0.0557 -0.52014,0.63671 0.102821,0.45189 0.159797,0.82169 0.126561,0.82169 -0.255252,0 -0.959074,-0.83002 -0.959074,-1.13083 0,-0.20648 -0.252829,-0.45658 -0.56184,-0.5562 -0.30901,-0.0996 -0.561838,-0.3229 -0.561838,-0.49597 0,-0.17307 0.252828,-0.23298 0.561838,-0.13337 0.309011,0.0996 0.56184,0.0245 0.56184,-0.16717 0,-0.19158 0.337103,-0.34846 0.749117,-0.34846 z m 34.320431,0 c -0.594573,0 -0.672676,0.16387 -0.486491,1.02266 0.121938,0.56247 0.325036,1.31824 0.451375,1.67967 0.188088,0.53806 0.0757,0.64779 -0.619633,0.60475 -0.467073,-0.0289 -0.917902,-0.22626 -1.002238,-0.43882 -0.211554,-0.53317 -1.903796,-1.92426 -2.340993,-1.92426 -0.196643,0 -0.357735,0.2832 -0.357735,0.62933 0,0.66649 -0.545346,0.84629 -0.940057,0.30976 -0.264419,-0.35943 -0.932737,-0.11735 -0.932737,0.33801 0,0.16286 0.262614,0.29624 0.583783,0.29624 0.325118,0 0.472244,0.15186 0.332129,0.34232 -0.181219,0.24634 -0.36518,0.24634 -0.658402,0 -0.223957,-0.18815 -0.815576,-0.34232 -1.314617,-0.34232 -0.745387,0 -0.827712,0.0805 -0.461613,0.45111 0.373536,0.37809 0.237316,0.44176 -0.841294,0.39333 -0.855493,-0.0384 -1.227386,-0.18962 -1.109046,-0.45111 0.0979,-0.21633 -0.0082,-0.39333 -0.236295,-0.39333 -0.22805,0 -0.427797,0.177 -0.444056,0.39333 -0.01625,0.21634 -0.201186,-6.2e-4 -0.410407,-0.48244 -0.277214,-0.63833 -0.254261,-1.00354 0.0834,-1.34533 0.534513,-0.54107 0.252842,-0.9228 -0.50112,-0.67973 -0.312451,0.10072 -0.540035,0.70404 -0.578664,1.53339 -0.03503,0.7521 -0.232862,1.41511 -0.439669,1.47316 -0.206816,0.0581 -0.293359,0.21823 -0.191669,0.35645 0.258106,0.35085 6.936656,0.29819 6.936656,-0.0546 0,-0.15811 0.197375,-0.18442 0.438938,-0.059 0.769593,0.39958 8.434787,0.53526 8.715078,0.15426 0.152018,-0.20664 -0.04757,-0.3454 -0.498189,-0.3454 -0.413952,0 -0.939373,-0.24779 -1.167572,-0.55067 -0.297126,-0.39434 -0.470686,-0.439 -0.611584,-0.15733 -0.278938,0.55762 -1.00845,0.49091 -0.752776,-0.0688 0.116044,-0.25406 0.04997,-0.54549 -0.147046,-0.64778 -0.197009,-0.10228 -0.358464,-0.40731 -0.358464,-0.67788 0,-0.40509 0.100547,-0.42178 0.570618,-0.0941 0.790657,0.55127 1.081029,0.19207 0.488681,-0.60474 -0.269822,-0.363 -0.808878,-0.66007 -1.198292,-0.66007 z m 11.023149,0 c -0.193848,0 -0.456464,0.1416 -0.583783,0.31466 -0.12732,0.17307 0.03142,0.31467 0.352613,0.31467 0.321169,0 0.583784,-0.1416 0.583784,-0.31467 0,-0.17306 -0.158764,-0.31466 -0.352614,-0.31466 z m 82.590254,0 c 0.0907,0 0.16533,0.1416 0.16533,0.31466 0,0.17307 -0.17834,0.31467 -0.39651,0.31467 -0.21817,0 -0.29265,-0.1416 -0.16534,-0.31467 0.12734,-0.17306 0.30567,-0.31466 0.39652,-0.31466 z m -28.54037,0.13152 c 0.77645,-0.0958 2.48657,0.47219 2.48657,0.826 0,0.35458 -1.21377,0.52143 -2.24735,0.30852 -1.09149,-0.22484 -1.25682,-1.00904 -0.23922,-1.13452 z m 11.31504,0.0572 c 0.15451,0.003 0.30519,0.0653 0.43163,0.20097 0.52001,0.55802 0.83944,1.7907 0.59989,2.31514 -0.34924,0.76455 -1.07927,0.50978 -0.89616,-0.31282 0.0346,-0.15562 -0.0388,-0.50586 -0.16315,-0.77806 -0.19667,-0.43052 -0.27168,-0.4349 -0.57501,-0.0319 -0.27902,0.37065 -0.34946,0.32985 -0.35408,-0.20589 -0.005,-0.67237 0.49338,-1.19639 0.95688,-1.18738 z m 11.74374,0.001 c 0.0782,-0.0124 0.16014,-0.007 0.24434,0.0203 0.41964,0.13528 0.45111,0.28056 0.13022,0.60536 -0.32807,0.33209 -0.16305,0.64538 0.73961,1.40371 0.63899,0.53682 1.16172,1.0355 1.16172,1.10871 0,0.22338 -0.88895,0.076 -1.78428,-0.29622 -0.46633,-0.19388 -0.77446,-0.5134 -0.68474,-0.70984 0.0897,-0.19646 -0.008,-0.50178 -0.21947,-0.67851 -0.48837,-0.41029 -0.13465,-1.36641 0.4126,-1.4535 z m -10.06261,0.12473 c 0.21815,0 0.29265,0.14161 0.16535,0.31467 -0.12733,0.17307 -0.30567,0.31466 -0.39651,0.31466 -0.0908,0 -0.16534,-0.14159 -0.16534,-0.31466 0,-0.17306 0.17834,-0.31467 0.3965,-0.31467 z m 1.62407,0.14442 c 0.24464,-0.0448 0.56293,0.0947 0.9854,0.4253 0.4518,0.35361 1.05601,0.56741 1.34243,0.47508 0.31149,-0.10042 0.52087,0.035 0.52087,0.3374 0,0.27813 -0.12643,0.48962 -0.28093,0.46955 -0.97282,-0.1264 -1.59187,-0.36204 -1.59187,-0.60598 0,-0.15495 -0.23563,-0.20599 -0.5238,-0.11309 -0.66948,0.21587 -1.18144,-0.45482 -0.67303,-0.88193 0.0661,-0.0556 0.13938,-0.0913 0.22093,-0.10633 z m 4.53787,0.11186 c 0.17905,0.0432 0.42428,0.59251 0.45868,1.31706 0.0329,0.69227 -0.0155,1.25867 -0.10759,1.25867 -0.0923,0 -0.16752,-0.1416 -0.16752,-0.31467 0,-0.17306 -0.33711,-0.31466 -0.74912,-0.31466 -0.87765,0 -0.99899,-0.48136 -0.18728,-0.74304 0.30901,-0.0996 0.56184,-0.3981 0.56184,-0.66314 0,-0.41005 0.0834,-0.56615 0.19095,-0.54022 z m 7.47435,0.0584 c 0.0957,0 0.35451,0.28321 0.57501,0.62934 0.31999,0.5023 0.28484,0.62933 -0.17411,0.62933 -0.32532,0 -0.57502,-0.27329 -0.57502,-0.62933 0,-0.34613 0.0784,-0.62934 0.17412,-0.62934 z m -113.010001,0.005 c -0.681486,0.004 -0.735244,0.0631 -0.280919,0.30976 0.72618,0.39426 1.123677,0.39426 1.123677,0 0,-0.17307 -0.379241,-0.3124 -0.842758,-0.30976 z m 30.223694,0.005 c -0.218139,-0.006 -0.723792,0.20958 -1.123678,0.47815 -0.709996,0.47682 -0.708075,0.48342 0.08266,0.30176 0.669662,-0.15384 0.852713,-0.0219 1.057837,0.7627 0.136424,0.5218 0.150308,1.08204 0.03072,1.24453 -0.119552,0.16251 -0.0057,0.35747 0.253119,0.43329 1.020797,0.29907 1.883564,-0.42885 1.032235,-0.87087 -0.20601,-0.10696 -0.374561,-0.41592 -0.374561,-0.68649 0,-0.40162 0.103175,-0.41997 0.561837,-0.10022 0.433374,0.30215 0.561839,0.30465 0.561839,0.0104 0,-0.43521 -1.48516,-1.55758 -2.082019,-1.57334 z m 43.733409,0.0787 c -0.127874,-1.9e-4 -0.257184,0.0171 -0.386995,0.0516 -0.754263,0.20111 -0.755757,0.22119 -0.07752,0.79096 0.382767,0.32157 1.006349,0.63789 1.385572,0.70309 0.986591,0.16962 1.088771,-0.33784 0.215811,-1.07122 -0.377021,-0.31664 -0.753218,-0.47387 -1.136848,-0.47447 z m -79.499405,0.0399 c -0.183745,0.005 -0.369823,0.0639 -0.544281,0.1856 -0.309012,0.21546 -0.561839,0.54426 -0.561839,0.73075 0,0.23158 0.134509,0.22563 0.425037,-0.0185 0.317483,-0.26672 0.555019,-0.24849 0.936397,0.0719 0.670691,0.56343 0.649417,0.81378 -0.05048,0.58816 -0.592504,-0.19101 -0.74264,0.38258 -0.334323,1.27649 0.245134,0.53666 1.645279,0.69829 1.645279,0.1899 0,-0.1883 0.359585,-0.17048 0.925425,0.0461 0.692328,0.26502 1.057771,0.2622 1.451414,-0.0123 0.681958,-0.47543 0.690197,-1.92856 0.01099,-1.92856 -0.283263,0 -0.515019,0.21754 -0.515019,0.48306 0,0.78757 -2.033149,0.40745 -2.176393,-0.40686 -0.131072,-0.74509 -0.66096,-1.22005 -1.212196,-1.20581 z m 113.003423,0.18376 c 0.13536,-0.0163 0.25053,-0.003 0.31748,0.0534 0.0847,0.0712 -0.17528,0.30254 -0.57792,0.51381 -0.46335,0.24309 -0.73228,0.26363 -0.73228,0.0566 0,-0.25625 0.58659,-0.57509 0.99272,-0.6238 z m -27.49351,0.13337 c 0.0652,-0.0547 0.82979,0.0519 1.69868,0.23722 1.13086,0.24115 1.57944,0.49978 1.57944,0.90959 0,0.98973 -0.65844,0.97216 -2.05057,-0.0546 -0.74027,-0.54605 -1.29263,-1.03746 -1.22755,-1.09212 z m 37.13986,0.0799 c 0.12976,-0.007 0.27658,0.004 0.44406,0.0313 1.12396,0.18051 1.14466,0.52319 0.0703,1.15543 -1.35331,0.79629 -1.96501,0.52861 -1.35632,-0.5937 0.21316,-0.39302 0.45277,-0.57317 0.84204,-0.59306 z m -44.981459,0.26672 c -0.06996,-0.007 -0.135681,0.004 -0.192394,0.0331 -0.276768,0.1437 -0.209448,0.33936 0.205565,0.5943 0.340217,0.209 0.618899,0.54086 0.618899,0.73812 0,0.48742 -1.392965,0.45758 -1.605048,-0.0344 -0.134967,-0.3131 -0.335062,-0.31096 -0.981024,0.0101 -0.685604,0.34053 -1.070986,0.30679 -2.48365,-0.21817 -1.651945,-0.61384 -1.672335,-0.61411 -1.672335,-0.0101 0,0.40186 -0.256937,0.61152 -0.74912,0.61152 -0.412016,0 -0.74912,-0.18847 -0.74912,-0.41915 0,-0.24348 -0.353516,-0.39357 -0.842758,-0.35769 -0.463516,0.034 -1.080663,-0.0962 -1.371683,-0.28885 -0.394488,-0.26124 -0.56944,-0.25024 -0.686933,0.043 -0.08673,0.21634 -0.396553,0.39334 -0.688394,0.39334 -0.640124,0 -0.658863,0.1505 -0.111923,0.88624 0.376634,0.50668 1.041714,0.55882 6.665966,0.52547 3.436204,-0.0204 6.443253,-0.13843 6.682078,-0.26243 0.551219,-0.28621 0.178089,-1.14928 -0.496735,-1.14928 -0.279719,0 -0.691583,-0.28696 -0.915172,-0.63794 -0.167698,-0.26323 -0.416362,-0.43683 -0.626219,-0.45725 z m -68.66134,0.15119 c -0.206009,0 -0.37456,0.1416 -0.37456,0.31467 0,0.17307 0.168551,0.31466 0.37456,0.31466 0.206006,0 0.374558,-0.14159 0.374558,-0.31466 0,-0.17307 -0.168552,-0.31467 -0.374558,-0.31467 z m 33.250888,0.006 c -0.120425,0.009 -0.282684,0.0451 -0.484294,0.11 -0.330953,0.1067 -0.497853,0.33508 -0.370903,0.50766 0.146654,0.19935 0.4141,0.17171 0.734487,-0.0762 0.465401,-0.36012 0.481975,-0.56924 0.12071,-0.54144 z m 13.250757,0.0116 c 0.160853,0.061 0.296274,0.33367 0.484289,0.84752 0.209088,0.57144 0.114098,0.708 -0.493067,0.708 -1.021088,0 -1.25161,-0.41647 -0.627683,-1.1333 0.289594,-0.33272 0.475599,-0.48322 0.636461,-0.42222 z m 70.686294,0.0829 c 0.12146,-0.0378 0.25365,-0.0315 0.38188,0.035 0.22904,0.11892 0.41626,0.49069 0.41626,0.82661 0,0.69045 -0.94154,0.8347 -1.23635,0.1893 -0.19731,-0.43196 0.0738,-0.93766 0.43821,-1.05094 z m -91.822545,0.2108 c -0.103197,0.0255 -0.16813,0.19894 -0.134604,0.55374 0.03292,0.34859 -0.257181,0.58708 -0.790819,0.65085 -0.463516,0.0554 -0.842756,0.23291 -0.842756,0.39395 0,0.16103 0.560496,0.29254 1.245845,0.29254 1.171482,0 1.236294,-0.0565 1.081247,-0.944 -0.108524,-0.6212 -0.386908,-0.98943 -0.558913,-0.94708 z m -29.110985,0.003 c -0.206007,0 -0.37456,0.14159 -0.37456,0.31466 0,0.17307 0.168553,0.31467 0.37456,0.31467 0.206009,0 0.37456,-0.1416 0.37456,-0.31467 0,-0.17307 -0.168551,-0.31466 -0.37456,-0.31466 z m 112.85199,0.43267 c 0.068,-0.0252 0.16181,-0.0141 0.26481,0.0393 0.206,0.10696 0.37457,0.25678 0.37457,0.3331 0,0.0763 -0.16857,0.1389 -0.37457,0.1389 -0.206,0 -0.37455,-0.14983 -0.37455,-0.3331 0,-0.0916 0.0419,-0.15309 0.10974,-0.17823 z m -78.903924,0.0337 c -0.07701,-0.0316 -0.211187,-0.0201 -0.393582,0.0387 -0.326226,0.10517 -0.593294,0.32945 -0.593294,0.49843 0,0.4136 0.851447,0.15509 1.038083,-0.31528 0.04562,-0.11498 0.0258,-0.19024 -0.0512,-0.22187 z m -15.407398,0.16287 c 0.309013,0 0.56184,0.1416 0.56184,0.31466 0,0.17307 -0.252827,0.31468 -0.56184,0.31468 -0.30901,0 -0.561836,-0.14161 -0.561836,-0.31468 0,-0.17306 0.252826,-0.31466 0.561836,-0.31466 z m 7.281955,0 c -0.218165,0 -0.292654,0.1416 -0.165333,0.31466 0.12732,0.17307 0.305658,0.31468 0.396504,0.31468 0.09085,0 0.165333,-0.14161 0.165333,-0.31468 0,-0.17306 -0.178338,-0.31466 -0.396504,-0.31466 z m 88.900697,0.0971 c 0.0829,-0.0175 0.22347,0.0572 0.45356,0.21755 0.30901,0.21546 0.56184,0.44538 0.56184,0.51073 0,0.0654 -0.25283,0.11861 -0.56184,0.11861 -0.30901,0 -0.56184,-0.22992 -0.56184,-0.51072 0,-0.20906 0.0252,-0.31863 0.10828,-0.33617 z m -79.630361,0.15365 c -0.115694,0.0162 -0.230996,0.0511 -0.34969,0.10448 -1.013233,0.45555 -0.78454,0.85266 0.558913,0.96981 1.69866,0.14813 1.93013,-0.0204 0.947374,-0.68895 -0.458641,-0.31201 -0.809517,-0.43389 -1.156597,-0.38534 z m -31.406625,0.064 c -0.686097,0 -1.438981,0.42928 -1.438981,0.82047 0,0.29138 0.440332,0.4382 1.313883,0.4382 1.220369,0 1.280868,-0.0449 0.846418,-0.62934 -0.257309,-0.34613 -0.581714,-0.62933 -0.72132,-0.62933 z m 36.97526,0 c 0.09084,0 0.165334,0.1416 0.165334,0.31467 0,0.17306 -0.178339,0.31466 -0.396503,0.31466 -0.218168,0 -0.292656,-0.1416 -0.165336,-0.31466 0.12732,-0.17307 0.305659,-0.31467 0.396505,-0.31467 z m 46.070746,0 c 0.0908,0 0.16534,0.1416 0.16534,0.31467 0,0.17306 -0.17833,0.31466 -0.3965,0.31466 -0.21818,0 -0.29266,-0.1416 -0.16533,-0.31466 0.12733,-0.17307 0.30565,-0.31467 0.39649,-0.31467 z m -86.941567,0.62933 c -0.296853,0 -0.539889,0.14161 -0.539889,0.31467 0,0.17307 0.346889,0.31467 0.771063,0.31467 0.424173,0 0.66721,-0.1416 0.539892,-0.31467 -0.12732,-0.17306 -0.474212,-0.31467 -0.771066,-0.31467 z" />
    <g
       aria-label="VII"
       id="text955"
       style="font-size:40px;line-height:1.25;font-family:Hultog;-inkscape-font-specification:Hultog"
       transform="matrix(0.37455898,0,0,0.31466774,-8.9019162,-0.09706311)">
      <path
         d="m 77.719302,95.184933 -0.415902,1.737003 -2.642202,1.443425 q -2.813455,7.241589 -3.743119,9.516819 -3.033639,7.36391 -4.281346,8.97859 l -1.688073,5.7737 q -2.2263,0 -2.666667,-1.71253 l -0.954128,-3.74312 -0.978593,-1.37003 -0.318043,-2.05505 q -0.02447,-0.0489 -1.590214,-3.03364 -1.027523,-1.95719 -0.978594,-3.18043 -0.66055,-1.02752 -1.957186,-3.08257 -0.195719,-0.56269 -0.538226,-1.61467 -0.954129,-2.59328 -1.810398,-3.865448 -1.321101,-1.957187 -3.082569,-1.859327 -0.09786,-0.513762 -0.09786,-1.027523 0,-1.443425 1.394495,-1.908257 l 3.571866,1.37003 3.620795,-1.027523 1.296636,0.880734 q 0.04893,0.269113 0.04893,0.342508 0,1.198777 -2.201835,2.201835 0.342507,1.321101 1.174312,3.767581 1.516819,2.83792 4.207951,8.61162 0,0 0.954128,4.15903 l 0.75841,1.02752 q 0.70948,-0.24465 0.70948,-0.58716 v -2.12844 l 6.262997,-14.776757 q 0,-0.318042 -1.688073,-1.41896 -0.09786,-0.415902 -0.09786,-0.831804 0,-0.513762 0.293578,-0.905199 0.318043,-0.391437 0.831805,-0.293578 l 3.131498,0.636086 q 1.076453,-0.70948 1.932722,-0.70948 0.856269,0 1.541285,0.685015 z"
         id="path1433" />
      <path
         d="m 90.783529,120.0412 q -0.415902,2.47095 -1.46789,2.2263 l -4.525994,-1.02752 q 0,0 -3.327217,0.31804 -0.954128,0.66055 -1.663609,0.66055 -1.003058,0 -1.565749,-1.46789 l 1.247707,-1.8104 q 0.587156,0.19572 1.223241,0.19572 2.103976,0 2.103976,-3.40061 0,-0.66055 -0.09786,-1.98165 -0.09786,-1.3211 -0.09786,-1.98165 0,-1.93272 0.09786,-5.82263 0.09786,-3.88991 0.09786,-5.82263 0,-1.66361 -0.978594,-2.617738 -0.66055,0.244648 -1.3211,0.244648 -1.149848,0 -1.932722,-0.929663 0.415902,-2.446484 1.443425,-2.2263 l 4.477064,0.978593 4.256881,-1.027523 1.761468,0.905199 -0.513762,1.761468 Q 89.511358,97.09319 89.16885,97.09319 q -2.250765,0 -2.250765,3.84098 0,0.39144 0.02446,1.02752 0.02447,0.61162 0.02447,0.83181 0,1.61467 -0.09786,15.4373 l 1.027523,1.10092 q 0.66055,-0.22018 1.198776,-0.22018 1.076453,0 1.688075,0.92966 z"
         id="path1435" />
      <path
         d="m 104.0924,120.0412 q -0.4159,2.47095 -1.46789,2.2263 l -4.525997,-1.02752 q 0,0 -3.327217,0.31804 -0.954128,0.66055 -1.663608,0.66055 -1.003058,0 -1.565749,-1.46789 l 1.247706,-1.8104 q 0.587156,0.19572 1.223242,0.19572 2.103975,0 2.103975,-3.40061 0,-0.66055 -0.09786,-1.98165 -0.09786,-1.3211 -0.09786,-1.98165 0,-1.93272 0.09786,-5.82263 0.09786,-3.88991 0.09786,-5.82263 0,-1.66361 -0.978593,-2.617738 -0.660551,0.244648 -1.321101,0.244648 -1.149847,0 -1.932722,-0.929663 0.415902,-2.446484 1.443425,-2.2263 l 4.477065,0.978593 4.256884,-1.027523 1.76146,0.905199 -0.51376,1.761468 q -0.48929,-0.122324 -0.8318,-0.122324 -2.25077,0 -2.25077,3.84098 0,0.39144 0.0245,1.02752 0.0245,0.61162 0.0245,0.83181 0,1.61467 -0.0979,15.4373 l 1.02753,1.10092 q 0.66055,-0.22018 1.19877,-0.22018 1.07646,0 1.68808,0.92966 z"
         id="path1437" />
    </g>
  </g>
</svg>
