<?xml version="1.0" encoding="UTF-8" standalone="no"?>
<!-- Created with Inkscape (http://www.inkscape.org/) -->

<svg
   version="1.1"
   id="svg2"
   width="4cm"
   height="4cm"
   viewBox="0 0 151.1811 151.18112"
   sodipodi:docname="09.svg"
   inkscape:version="1.1.2 (0a00cf5339, 2022-02-04)"
   xmlns:inkscape="http://www.inkscape.org/namespaces/inkscape"
   xmlns:sodipodi="http://sodipodi.sourceforge.net/DTD/sodipodi-0.dtd"
   xmlns="http://www.w3.org/2000/svg"
   xmlns:svg="http://www.w3.org/2000/svg">
  <defs
     id="defs6" />
  <sodipodi:namedview
     id="namedview4"
     pagecolor="#505050"
     bordercolor="#eeeeee"
     borderopacity="1"
     inkscape:pageshadow="0"
     inkscape:pageopacity="0"
     inkscape:pagecheckerboard="0"
     showgrid="false"
     inkscape:zoom="2.2394206"
     inkscape:cx="141.55447"
     inkscape:cy="134.63304"
     inkscape:window-width="1920"
     inkscape:window-height="1043"
     inkscape:window-x="0"
     inkscape:window-y="0"
     inkscape:window-maximized="1"
     inkscape:current-layer="svg2"
     units="cm"
     inkscape:document-units="cm" />
  <!-- Border -->
  <path
     id="border"
     class="board-border"
     style="fill:none;stroke:#000000;stroke-width:0.1cm"
     d="M 0,0 H 151.18111 V 151.18111 H 0 Z" />
  <g
     inkscape:groupmode="layer"
     inkscape:label="Image"
     id="g8">
    <path
       id="path12"
       style="fill:#000000;stroke-width:0.327024"
       d="M 72.417974,3.8898241 C 71.817322,3.8714151 71.534503,4.2207195 71.093863,4.9232427 70.271736,6.2339765 69.282345,7.6833456 67.496698,10.1916 66.11388,12.134009 65.51967,13.365906 64.942769,15.484968 l -0.752332,2.761678 1.782198,4.905991 c 3.13225,8.624166 3.137252,8.706244 0.708867,10.848446 -0.968718,0.854554 -2.573877,2.467392 -3.567072,3.58402 -1.796415,2.019676 -5.111353,5.2028 -7.360176,7.067994 -0.648231,0.537649 -1.332404,1.143239 -1.520722,1.345151 -1.272028,1.363839 -3.968736,3.310895 -5.761214,4.159903 -1.86037,0.881172 -2.421938,0.997504 -4.681865,0.969362 -1.507124,-0.01878 -3.699538,-0.320256 -5.307138,-0.729616 -1.506543,-0.383629 -3.097976,-0.771101 -3.536309,-0.861384 -0.438334,-0.09029 -1.928429,-1.164826 -3.311612,-2.387719 -3.250511,-2.873827 -5.453371,-4.566194 -5.943782,-4.566194 -0.626183,0 -0.449658,-1.248459 0.208649,-1.475702 1.273426,-0.43958 3.856366,-2.361148 4.550121,-3.385145 0.565793,-0.835118 0.954235,-1.073679 1.749431,-1.073679 1.49424,0 3.163604,-1.329041 4.369561,-3.478484 0.581714,-1.036821 1.05795,-2.059131 1.05795,-2.271811 0,-0.443495 5.201527,-5.488058 5.677622,-5.506275 0.384986,-0.01473 1.633003,-1.632781 2.399446,-3.111233 0.3117,-0.601262 0.718854,-1.362006 0.904809,-1.690438 0.417289,-0.737004 1.632401,-3.932653 1.632401,-4.292893 0,-0.562662 -1.333222,-0.219395 -2.727801,0.702163 -1.931949,1.27666 -5.66409,3.017569 -7.372883,3.439439 -0.753271,0.185968 -1.6007,0.509819 -1.883177,0.719854 -0.282477,0.210035 -1.669181,0.782056 -3.081565,1.270726 -4.526224,1.566023 -6.085029,3.314204 -6.102273,6.845936 -0.01106,2.26367 -0.316005,2.761562 -1.601638,2.611606 -0.489934,-0.05715 -0.835523,-0.513925 -1.213767,-1.604421 -0.318737,-0.918936 -0.930593,-1.819912 -1.540782,-2.26937 -1.288024,-0.948745 -2.910968,-1.378713 -3.530959,-0.935201 -0.346224,0.247671 -0.585398,0.182853 -0.934902,-0.253169 -0.314388,-0.392214 -0.85336,-0.5721 -1.6324,-0.545382 -0.76316,0.02618 -1.372732,-0.171422 -1.772166,-0.574053 -0.334872,-0.337551 -0.931588,-0.620157 -1.326117,-0.627737 -2.229896,-0.04285 -5.4789001,-1.408209 -5.8434694,-2.456045 -0.4252832,-1.222339 -3.428562,-2.480519 -4.2130762,-1.764863 -0.3686933,0.336333 1.2420283,3.397862 3.2266816,6.132793 3.1158987,4.293832 4.0888,5.190742 5.880919,5.422088 0.954646,0.123235 1.404439,0.07924 1.267267,-0.123229 -0.140908,-0.207982 1.238049,-0.246881 4.084009,-0.115298 2.796732,0.129298 4.296,0.0892 4.296,-0.115302 0,-0.172778 -1.277881,-0.396655 -2.83948,-0.497185 -4.008709,-0.258069 -7.351942,-1.077527 -8.903634,-2.182745 -0.7148763,-0.509182 -1.2438314,-0.976711 -1.1756494,-1.038909 0.152333,-0.138961 1.9835074,0.41024 3.9268544,1.17739 0.798299,0.315133 1.761287,0.572833 2.139976,0.572833 0.378688,0 0.688804,0.108178 0.688804,0.240358 0,0.230375 5.164711,0.125589 5.441556,-0.110419 0.07392,-0.06301 -0.05344,-0.321246 -0.282878,-0.573442 -0.307406,-0.337891 -0.848779,-0.411774 -2.057051,-0.281231 -1.042727,0.112655 -1.726,0.04925 -1.87716,-0.173864 -0.130734,-0.192967 -0.705362,-0.350776 -1.277297,-0.350776 -2.793673,0 -6.4155614,-1.589775 -8.8260607,-3.874403 -1.4362419,-1.361243 -1.1810252,-1.796589 0.4059266,-0.692401 2.1490228,1.49527 7.6473681,3.46467 10.6169521,3.802416 2.151403,0.244689 4.382044,0.892243 4.911243,1.425677 0.294489,0.296845 0.617024,1.095405 0.716892,1.774625 0.164559,1.119191 0.308937,1.26951 1.538776,1.605639 1.948478,0.53254 3.015359,-0.131275 3.015359,-1.8765 0,-0.907998 0.226883,-1.463055 0.817871,-2.002171 1.083499,-0.988399 3.112619,-1.344029 3.910805,-0.685082 0.325897,0.269047 0.962527,0.614189 1.41439,0.766828 0.803417,0.271117 0.787158,0.298711 -0.725585,1.248154 -1.90596,1.196238 -2.516279,2.024209 -3.385843,4.592426 -0.926015,2.734942 -1.886394,3.650224 -5.56126,5.30191 -1.730867,0.777944 -3.840453,1.826041 -4.687883,2.329154 -1.567633,0.93069 -3.290963,1.342787 -2.464984,0.589305 0.225981,-0.206147 0.410608,-0.476093 0.410608,-0.599675 0,-0.280113 -2.449883,0.305245 -2.89298,0.691182 -0.420992,0.366532 -1.900565,0.367997 -1.900565,0.0018 0,-0.154535 0.731871,-0.521577 1.626381,-0.815632 1.84519,-0.606571 5.100299,-2.961744 4.095378,-2.962994 -0.336986,-3.12e-4 -1.407198,0.487631 -2.378048,1.084054 -0.97085,0.596423 -1.811824,1.041163 -1.869134,0.988883 -0.05731,-0.05228 1.287421,-1.389217 2.988609,-2.970925 1.701188,-1.581704 3.014142,-2.992097 2.917723,-3.134413 -0.09642,-0.142316 -0.921678,-0.348922 -1.834361,-0.459368 -0.912682,-0.110448 -1.956508,-0.41512 -2.319198,-0.676539 -0.607982,-0.438224 -0.505521,-0.468224 1.310066,-0.386769 1.398967,0.06277 1.96911,-0.02462 1.968778,-0.301972 -6.85e-4,-0.58558 -3.570162,-0.499435 -4.878475,0.117737 l -1.077344,0.508171 2.207518,0.791227 c 1.213862,0.435304 2.261172,0.830316 2.327223,0.877245 0.168844,0.119969 -4.136063,3.874404 -4.442455,3.874404 -0.138079,0 -0.514888,0.245971 -0.837264,0.5466 -0.322377,0.300631 -1.521655,0.968266 -2.664938,1.483633 -1.1432854,0.515367 -2.1245787,1.081654 -2.1807693,1.258526 -0.1866185,0.587424 3.7206673,1.944425 5.7251023,1.988138 1.773502,0.03868 4.695988,-0.553219 6.419257,-1.300008 0.423432,-0.183502 0.858673,-0.253164 0.967002,-0.154342 0.202805,0.185004 -0.667839,1.928249 -1.351528,2.706164 -0.501954,0.57113 -0.565049,1.809233 -0.155817,3.061821 0.877528,2.685965 7.456574,5.952441 12.111591,6.013223 0.950869,0.0124 1.083549,-0.116039 1.523395,-1.47021 0.265041,-0.815998 0.539591,-1.659325 0.609892,-1.874061 0.314498,-0.960642 -0.54143,-0.257272 -1.20641,0.991324 l -0.736287,1.381755 -1.814297,-0.470346 c -2.201851,-0.570873 -6.779709,-2.559149 -6.779709,-2.944692 0,-0.152909 0.616313,-0.367785 1.369584,-0.477665 0.753272,-0.109879 1.369585,-0.258033 1.369585,-0.328816 0,-0.07078 -0.311017,-0.684969 -0.69148,-1.365283 -0.380463,-0.680312 -0.57306,-1.236817 -0.427995,-1.236563 0.145065,2.52e-4 1.019612,0.703025 1.943365,1.561717 1.702765,1.582838 2.70876,1.941903 3.065515,1.093814 0.134438,-0.319593 -0.23125,-0.666681 -1.156924,-1.097475 -0.889223,-0.413831 -1.599091,-1.069031 -2.069089,-1.909444 -0.668351,-1.195089 -0.787248,-1.264803 -1.80226,-1.060869 -2.071245,0.416152 -2.099018,0.402652 -2.287767,-1.087102 -0.220993,-1.744228 0.03751,-3.186427 0.601867,-3.357692 0.528797,-0.16047 0.578188,1.26892 0.07356,2.129062 -0.310587,0.5294 -0.236448,0.60499 0.599193,0.613704 0.5245,0.0055 1.252807,0.216298 1.618357,0.468516 0.365548,0.25222 1.09742,0.458754 1.62638,0.458754 0.606515,0 0.961652,0.164974 0.961652,0.447163 0,0.246109 0.312502,0.537978 0.694155,0.648479 0.381652,0.110497 0.953729,0.57708 1.271279,1.036468 0.778545,1.126305 3.229045,3.167994 3.809154,3.173461 0.257203,0.0024 1.219389,0.247763 2.137971,0.545379 1.407419,0.455997 1.637527,0.640252 1.461871,1.171289 -0.233031,0.704481 -0.228125,0.650022 -0.165182,1.72338 0.06863,1.170308 0.708209,0.122414 0.714889,-1.171288 0.0035,-0.691972 0.168842,-1.015117 0.518942,-1.015117 0.615625,0 0.629553,0.68551 0.06954,3.410158 -0.232397,1.130736 -0.614433,2.066008 -0.876719,2.145531 -0.365777,0.110897 -0.414154,-0.133549 -0.226703,-1.145666 0.144566,-0.780585 0.106118,-1.286588 -0.09764,-1.286588 -0.856204,0 -1.045268,2.641317 -0.209984,2.933712 1.484872,0.51979 1.780415,0.258068 2.168062,-1.918595 0.206512,-1.159575 0.413439,-2.459705 0.459426,-2.889178 0.08136,-0.759807 0.155483,-0.780858 2.759901,-0.780858 2.667758,0 2.676434,0.0028 2.514471,0.77842 -0.240969,1.153987 0.459553,4.375248 0.951617,4.375248 0.699403,0 0.849673,-0.337157 0.510921,-1.149937 -0.177324,-0.425458 -0.360547,-1.498111 -0.406596,-2.38345 -0.06872,-1.321051 0.02387,-1.628849 0.515601,-1.716058 0.507708,-0.09004 0.603449,0.147376 0.625941,1.556226 0.03108,1.948146 1.01959,4.752376 1.714658,4.863898 0.266329,0.04274 0.682336,-0.03877 0.924202,-0.181184 0.341835,-0.201278 0.208416,-0.729232 -0.599193,-2.37125 -1.108302,-2.253383 -1.395378,-4.552772 -0.568433,-4.552772 1.617876,0 6.730075,-4.077165 10.539378,-8.405215 0.817999,-0.929394 2.065077,-1.96207 2.771268,-2.29499 0.706193,-0.332918 1.283986,-0.711391 1.283986,-0.841254 0,-0.12986 0.395234,-0.643282 0.878057,-1.140788 0.48282,-0.497504 1.147941,-1.185807 1.478589,-1.529383 0.330646,-0.343579 1.241888,-1.422797 2.024955,-2.39809 1.443763,-1.798212 2.229624,-2.496338 1.97747,-1.756933 -0.510967,1.498328 -0.526208,2.124789 -0.05149,2.124789 0.274947,0 0.5915,-0.135413 0.703515,-0.300752 0.413223,-0.609922 -0.643215,-4.691615 -2.630832,-10.162756 -1.962617,-5.402334 -2.036369,-5.719895 -1.878497,-8.120932 0.14244,-2.166409 0.353421,-2.827557 1.584249,-4.971875 2.618817,-4.562437 4.910532,-6.9279918 5.652213,-5.8332598 0.105492,0.1557094 0.901104,0.5036335 1.767486,0.7729282 1.90909,0.5933984 6.692763,3.6781336 7.766771,5.0084776 0.427577,0.529629 1.136875,2.006274 1.576224,3.280828 0.755284,2.191077 0.787223,2.616639 0.57579,7.808588 -0.247423,6.075651 -0.343889,7.226844 -0.807175,9.639336 -0.188229,0.980137 -0.191153,1.719799 -0.0074,1.823427 0.544139,0.306782 1.303378,-0.153595 1.303378,-0.790011 0,-0.846612 0.611105,-1.117117 1.305385,-0.577712 0.317692,0.246819 1.502262,0.703556 2.632169,1.014507 1.129907,0.310951 2.700546,0.98395 3.490166,1.495832 l 1.43579,0.930931 -0.801822,1.911885 c -0.440887,1.051593 -0.919324,2.192991 -1.063301,2.53657 -0.143978,0.343578 -0.523431,0.976073 -0.843284,1.405545 -0.319853,0.429473 -0.771193,1.314677 -1.003111,1.966791 -0.282809,0.79518 -0.836011,1.423871 -1.679213,1.909443 -0.691492,0.398207 -1.454566,0.940756 -1.695932,1.206058 -0.595786,0.654872 -5.390936,2.067609 -7.083985,2.086967 -0.753272,0.0086 -2.017953,0.06549 -2.810055,0.126281 -2.157578,0.165595 -6.830301,-2.019073 -9.14104,-4.273981 -2.208286,-2.154951 -4.577462,-3.958589 -5.2008,-3.958589 -0.643163,0 -0.617511,0.909105 0.03208,1.136515 0.721527,0.252577 0.639582,0.539243 -0.256798,0.897988 -0.536722,0.214805 -0.865885,0.721913 -1.0847,1.672747 -0.286867,1.246538 -0.242365,1.415315 0.513594,1.945438 0.455219,0.319227 1.012698,0.583663 1.238511,0.587474 0.471158,0.008 2.157362,-1.901691 2.157362,-2.443236 0,-0.198522 0.308157,-0.361148 0.684793,-0.361148 0.452442,0 0.684792,0.208237 0.684792,0.613706 0,0.337534 0.308156,0.764137 0.684791,0.948013 0.873621,0.426511 0.896606,1.040466 0.02941,0.789397 -0.755565,-0.218759 -1.743166,0.835282 -1.7394,1.856983 0.002,0.59449 1.458227,1.740578 2.797349,2.202266 0.78281,0.269886 1.792128,-1.142878 1.472569,-2.061346 -0.267653,-0.769293 0.144999,-0.645676 1.465883,0.439233 0.85042,0.698494 2.933821,1.446398 4.049235,1.453741 1.055439,0.0069 1.191685,0.297104 0.456085,0.968141 -0.360944,0.329261 -0.656038,0.941652 -0.656038,1.361015 0,0.646853 0.220667,0.80288 1.455183,1.029755 1.40393,0.258004 1.45168,0.305325 1.35153,1.345764 -0.0571,0.593124 -0.259465,1.528343 -0.449395,2.078424 -0.524523,1.519147 0.184085,7.445857 1.213096,10.145064 0.468106,1.227897 0.771962,2.349792 0.674763,2.493257 -0.333384,0.492079 -2.621874,0.141889 -7.669138,-1.174336 -1.296174,-0.338015 -3.491258,-1.883732 -4.451148,-3.134418 -0.470794,-0.613421 -1.12951,-1.386053 -1.463876,-1.716667 -0.365953,-0.361847 -0.662702,-1.250484 -0.745647,-2.23277 -0.07578,-0.897503 -0.320935,-2.053536 -0.544358,-2.568903 -0.487774,-1.125145 -0.499788,-5.094083 -0.0214,-7.03627 0.198942,-0.807683 0.216845,-1.513353 0.04213,-1.672746 -0.487729,-0.444965 -1.357812,0.03547 -1.744748,0.963871 -0.197275,0.473335 -0.474698,0.934267 -0.616583,1.023659 -0.511625,0.322335 -2.398515,3.044853 -3.371129,4.863894 -1.287459,2.407884 -1.808289,3.222614 -2.747861,4.300828 -0.423715,0.486237 -0.770391,1.005764 -0.770391,1.154206 0,0.148437 -0.616313,1.481226 -1.369584,2.961772 -0.753272,1.480545 -1.369585,2.752739 -1.369585,2.826952 0,0.07421 -0.484229,1.122444 -1.076006,2.329768 -1.209474,2.46751 -1.339632,2.443151 -2.505106,-0.471567 -1.005388,-2.514366 -3.631344,-6.376119 -5.618774,-8.263074 -0.728146,-0.691334 0.05501,-0.772549 1.904577,-0.197653 1.827231,0.567953 2.159369,0.602407 2.159369,0.226327 0,-0.486553 -4.222712,-2.1697 -7.13615,-2.844643 -2.32176,-0.537872 -5.342594,-1.440314 -5.795319,-1.731312 -0.05055,-0.03249 0.216839,-0.958535 0.594511,-2.057684 0.815927,-2.37433 0.82546,-2.467027 0.248135,-2.467027 -0.441924,0 -0.952118,0.928603 -2.10052,3.823157 -0.323043,0.814219 -0.729315,1.560296 -0.902802,1.658107 -0.620759,0.349975 -0.297256,0.699789 0.797141,0.861992 3.667812,0.543613 7.556461,1.916256 8.689638,3.067314 2.752694,2.796124 7.137236,11.366381 6.290857,12.296697 -0.189876,0.2087 -0.428728,1.023983 -0.530313,1.811835 -0.15235,1.181724 -0.05154,1.572675 0.576457,2.231548 0.418689,0.439271 1.03267,0.79855 1.364233,0.79855 0.331559,0 0.698142,0.140555 0.814529,0.312343 0.350457,0.517278 2.343923,0.331843 3.167164,-0.294652 0.7885,-0.600056 1.044637,-2.01261 0.427994,-2.360268 -0.188317,-0.106171 -0.342395,-0.401299 -0.342395,-0.6558 0,-0.740069 -1.440211,-2.311462 -2.118576,-2.311462 -0.341221,0 -0.620593,-0.07008 -0.620593,-0.155565 0,-0.08549 0.791706,-1.455892 1.759461,-3.045348 2.256773,-3.706568 5.325453,-9.194466 6.593129,-11.791577 0.54502,-1.116591 1.466483,-2.662728 2.04769,-3.435779 l 1.056614,-1.405547 0.262816,1.561719 c 0.144603,0.858944 0.188417,1.860043 0.09697,2.224838 -0.191221,0.762772 1.034314,4.417683 1.715322,5.115234 0.251576,0.257683 0.473571,0.60907 0.493534,0.780859 0.01996,0.171789 0.207299,0.831852 0.415956,1.467161 0.28235,0.859717 0.276964,1.380663 -0.02071,2.036334 -0.538164,1.18521 -0.944907,5.77254 -0.700173,7.897044 0.4501,3.907293 0.175245,6.91191 -0.962321,10.520242 -1.301174,4.127164 -1.821361,9.157401 -0.946955,9.157401 0.664212,0 0.655597,0.305484 -0.0214,0.757067 -0.477783,0.3187 -0.48487,0.628851 -0.0682,2.845869 0.753881,4.011334 0.528855,6.578934 -1.037891,11.858074 -1.717027,5.78557 -1.85706,6.45029 -1.476583,6.98991 0.529708,0.75123 0.958264,0.11395 1.176319,-1.7484 0.236818,-2.0226 1.353807,-5.16635 1.893878,-5.33057 0.19409,-0.059 0.268298,-0.30817 0.165179,-0.55332 -0.103119,-0.24513 0.02465,-0.51941 0.283548,-0.61004 0.374616,-0.13114 0.458177,-1.13669 0.410608,-4.92247 -0.141978,-11.299587 -0.113501,-12.264035 0.410609,-14.127445 0.28991,-1.030734 0.692817,-2.506557 0.896111,-3.279608 0.203298,-0.773049 0.386911,-3.90063 0.407934,-6.950252 0.02404,-3.486309 0.163762,-5.506707 0.375835,-5.442221 0.392567,0.119369 1.894758,2.252042 3.008671,4.271541 1.871664,3.393284 2.926203,4.418109 6.319614,6.142556 3.403725,1.729683 3.68878,1.916945 3.562388,2.332814 -0.07132,0.234667 -0.332507,1.632266 -0.580468,3.105742 -0.666545,3.960878 -1.491877,6.790219 -2.543225,8.721229 -1.451523,2.665994 -1.943066,4.026024 -2.369356,6.553114 -0.403603,2.39265 -1.630573,5.21065 -2.58268,5.93147 -1.198986,0.90774 -2.988128,3.51918 -3.78575,5.52519 -0.986981,2.48226 -1.004774,2.6049 -0.37316,2.6049 0.278844,0 0.573869,-0.48441 0.71355,-1.17129 0.313813,-1.54318 2.203948,-4.76325 2.796009,-4.76325 0.579057,0 0.652337,4.72059 0.11235,7.24674 -0.475025,2.22226 -2.380727,7.47423 -2.923743,8.05811 -0.23965,0.25767 -0.545317,0.89018 -0.67944,1.40554 -0.134123,0.51537 -0.492879,1.19878 -0.797142,1.51841 -0.444825,0.46727 -0.555706,1.35457 -0.566423,4.52896 -0.01821,5.40445 0.0314,5.19999 -1.423084,5.8296 -1.094578,0.47382 -1.483081,0.49658 -2.884286,0.16899 -1.423956,-0.33292 -1.732893,-0.31073 -2.559944,0.18362 -1.290254,0.7712 -7.202736,0.91033 -8.091784,0.19033 -0.532734,-0.43143 -0.613111,-0.43086 -0.798478,0.009 -0.113299,0.26935 -0.462741,0.48869 -0.777078,0.48681 -25.145597,-0.14104 -32.713352,-0.0737 -32.847281,0.29282 -0.09028,0.24709 -0.329944,0.2781 -0.710873,0.0922 -0.31591,-0.15423 -3.307539,-0.3581 -6.6486361,-0.45327 L 3.045279,143.80658 v 2.33038 2.32977 h 19.486526 c 16.955969,0 19.476576,-0.0595 19.41225,-0.45936 -0.04066,-0.25272 -0.181305,-0.55766 -0.312302,-0.67715 -0.349423,-0.31876 -0.290123,-0.73756 0.104324,-0.73756 0.188318,0 0.342397,0.18926 0.342397,0.42033 0,0.23106 0.282216,0.65277 0.627279,0.93764 0.579331,0.47827 4.569487,0.51214 52.093017,0.43924 l 51.46574,-0.0793 0.61056,-0.78087 c 0.33592,-0.42946 0.71349,-1.51876 0.83928,-2.42065 l 0.22871,-1.63981 -1.82968,-0.002 c -2.46989,-0.003 -6.00554,-0.54952 -6.91146,-1.06819 -0.40661,-0.2328 -1.50934,-0.51047 -2.45093,-0.61675 -0.94159,-0.1063 -2.86758,-0.33217 -4.27995,-0.50208 -8.97185,-1.0793 -36.226456,-2.1863 -38.177171,-1.55073 -0.971868,0.31664 3.862091,0.66783 10.914541,0.79305 5.58956,0.0993 7.62649,0.18166 14.25157,0.57894 1.6007,0.096 4.45115,0.25296 6.33433,0.34895 7.40949,0.37764 8.34981,0.45849 10.78949,0.92665 1.38882,0.26651 2.58022,0.53461 2.64688,0.59541 0.0666,0.0608 -0.13728,0.34606 -0.45274,0.63383 -0.49132,0.4482 -1.26676,0.51169 -5.40879,0.44412 -2.65951,-0.0434 -7.3463,-0.0461 -10.41499,-0.006 -4.57465,0.0595 -5.61481,0.15663 -5.77526,0.53806 -0.16058,0.38173 -0.29064,0.39341 -0.72424,0.0664 -0.40668,-0.3066 -3.35791,-0.39836 -12.81043,-0.39836 -9.867564,0 -12.338332,-0.0819 -12.566343,-0.41666 -0.228128,-0.33488 -0.324921,-0.31955 -0.492195,0.0781 -0.246617,0.58627 -2.995065,0.65353 -7.077299,0.17325 -2.958438,-0.34806 -3.42396,-0.71497 -3.42396,-2.69884 0,-1.30573 0.02058,-1.3306 0.833923,-0.99254 0.926805,0.38521 2.072201,0.13967 1.726693,-0.3703 -0.121944,-0.17998 -0.495369,-0.24815 -0.82991,-0.15129 -0.339325,0.0983 -0.961715,-0.0848 -1.407703,-0.41422 -0.781177,-0.57704 -0.790627,-0.65051 -0.432675,-3.20884 0.201483,-1.44003 0.375817,-5.37554 0.387869,-8.74562 0.01674,-4.68821 0.15705,-6.59568 0.597186,-8.12094 0.481108,-1.66724 0.529722,-2.6837 0.298259,-6.21027 -0.396437,-6.0401 -0.430331,-10.84612 -0.09095,-12.81645 0.649067,-3.768221 0.735562,-6.252161 0.247436,-7.08812 -0.372089,-0.637232 -0.38184,-0.840311 -0.04614,-0.943132 0.235397,-0.07209 0.427996,-0.479404 0.427996,-0.9047 0,-0.435971 -0.14935,-0.688988 -0.342397,-0.580152 -0.188318,0.106172 -0.342396,-0.0096 -0.342396,-0.257441 0,-0.247784 0.308157,-0.523856 0.684793,-0.613705 0.45174,-0.107764 0.684791,-0.426023 0.684791,-0.935199 0,-0.909961 0.308116,-1.172342 2.768594,-2.35722 1.864257,-0.897756 6.727693,-4.624359 6.79509,-5.206742 0.0421,-0.363855 1.836635,-2.906631 2.535202,-3.59195 0.262666,-0.257683 0.933156,-1.202975 1.489958,-2.100997 0.776639,-1.252592 1.106442,-1.547375 1.415728,-1.265235 0.221739,0.202276 0.403251,0.470567 0.403251,0.596014 0,0.125445 0.454958,1.125004 1.011136,2.221177 0.556187,1.096173 1.184413,2.686779 1.395663,3.535217 0.46577,1.870541 0.16187,5.007473 -0.693483,7.164989 -0.340533,0.858944 -1.388359,3.529482 -2.328561,5.934526 -0.940186,2.405047 -2.168956,5.287986 -2.731143,6.40671 -2.280806,4.53865 -3.802548,9.54742 -3.799124,12.50654 0.0014,1.2795 -0.03218,2.53694 -0.0749,2.79462 -0.194457,1.17328 0.06025,6.24687 0.313638,6.24687 0.606003,0 1.17511,-3.48627 1.300037,-7.96476 0.154643,-5.54388 0.532916,-7.70133 1.613675,-9.20071 0.43866,-0.60856 1.08434,-1.79496 1.434451,-2.63661 0.35011,-0.84168 1.086731,-2.317494 1.637081,-3.27961 2.027861,-3.545102 4.422479,-10.088783 4.869789,-13.306325 0.58204,-4.186627 0.5865,-4.834612 0.0374,-5.599 -0.30901,-0.430083 -0.56174,-0.915165 -0.56174,-1.077905 0,-0.162743 -0.61632,-1.270901 -1.369583,-2.462756 -0.753277,-1.191856 -1.36959,-2.385234 -1.36959,-2.651869 0,-0.266635 0.462234,-0.631702 1.027187,-0.811362 0.564956,-0.179658 1.027196,-0.461435 1.027196,-0.625909 0,-0.253426 -0.56843,-0.957904 -2.71443,-3.363793 -0.172189,-0.192961 -0.364123,-0.750968 -0.426004,-1.239546 -0.112865,-0.891081 -1.897601,-2.313902 -2.902341,-2.313902 -0.7327,0 -0.548317,0.454158 0.656038,1.61906 1.410222,1.364029 3.453101,4.826472 3.20127,5.425138 -0.104589,0.248622 -0.425093,0.452045 -0.71288,0.452045 -0.984864,0 -3.874399,3.127669 -4.871789,5.273238 -1.392011,2.994471 -5.078462,6.282892 -9.090881,8.10934 -2.715191,1.235953 -3.029801,1.31307 -3.521598,0.864436 -0.297029,-0.270955 -1.417633,-1.014789 -2.490394,-1.652613 -2.649008,-1.575004 -6.895271,-5.553277 -7.145514,-6.694646 -0.108828,-0.496382 -0.314152,-0.902257 -0.456082,-0.902257 -0.14193,0 -0.463793,-0.456803 -0.715553,-1.015118 -0.25176,-0.558313 -1.111842,-1.622702 -1.911265,-2.365149 -1.142924,-1.061474 -1.422923,-1.528641 -1.309398,-2.186404 0.0794,-0.460077 0.236705,-1.500689 0.349084,-2.312683 0.112381,-0.811994 0.32595,-1.544901 0.474807,-1.628824 0.148853,-0.08393 1.282776,0.337812 2.519819,0.937029 2.596409,1.257687 4.720843,1.891154 7.34346,2.190066 l 1.855091,0.211077 -0.207977,2.850134 c -0.193746,2.659708 0.301257,8.151035 0.798477,8.85726 0.121236,0.172198 0.590367,0.418337 1.042569,0.547209 0.707729,0.201694 0.788031,0.153196 0.573113,-0.348337 -0.837279,-1.953868 -1.074391,-11.308925 -0.304277,-12.010583 0.223368,-0.203513 1.211729,-0.427586 2.196148,-0.498407 1.02751,-0.07392 2.189736,-0.388827 2.728468,-0.738768 0.516139,-0.335266 1.078599,-0.609434 1.249879,-0.609434 0.687163,0 5.16447,-2.980139 6.740255,-4.486278 1.448161,-1.384154 2.20196,-2.561223 3.627258,-5.664887 0.62301,-1.356648 1.027856,-2.790086 1.027856,-3.638315 0,-1.182238 0.570746,-1.139499 0.860671,0.06466 0.126524,0.525521 0.759727,1.439126 1.40771,2.030233 0.64798,0.591111 1.09335,1.074903 0.98974,1.074903 -0.21785,0 1.11684,2.321761 2.52384,4.3905 0.53228,0.782626 2.07957,3.382887 3.43866,5.778356 1.3591,2.395468 2.76853,4.588726 3.13173,4.874267 0.36319,0.285541 0.57212,0.729048 0.4641,0.985834 -0.10802,0.256787 0.19693,1.035972 0.67811,1.731311 0.86397,1.248487 0.86689,1.269657 0.19594,1.698368 -0.50924,0.325383 -0.64611,0.700412 -0.54637,1.497662 0.0732,0.585032 0.15015,1.207913 0.1712,1.383585 0.0211,0.175668 0.53888,0.56051 1.15091,0.855284 0.98216,0.473037 1.31376,0.487869 2.82477,0.12872 2.12621,-0.505375 2.78941,-1.412077 2.02228,-2.76534 -0.29592,-0.522019 -0.77911,-0.880906 -1.18635,-0.880906 -0.65967,0 -0.65147,-0.05725 0.1946,-1.439709 1.14981,-1.878741 2.76213,-6.333439 3.27684,-9.053689 0.22441,-1.186009 0.75804,-3.140396 1.18634,-4.342919 0.42831,-1.202523 0.72706,-2.234531 0.66407,-2.293163 -0.34601,-0.321985 -1.59463,0.432402 -2.20351,1.33112 -0.51951,0.76681 -0.70151,1.564713 -0.70151,3.071583 0,1.947693 -0.66689,4.68281 -1.46589,6.011392 -1.0308,1.714064 -1.6256,3.021686 -1.92262,4.227619 -0.18005,0.731012 -0.52612,1.441218 -0.76906,1.578188 -0.54566,0.307636 -1.32077,-0.237975 -1.32077,-0.92971 0,-0.282273 -0.30891,-1.002794 -0.68679,-1.601369 -0.37789,-0.598584 -1.35536,-2.283038 -2.17208,-3.743243 -3.71012,-6.633581 -6.5042,-11.026928 -7.99481,-12.572723 -0.62169,-0.644704 -1.13018,-1.316059 -1.13018,-1.491561 0,-0.175505 -0.65483,-1.264689 -1.455183,-2.420054 -1.276582,-1.842833 -1.440856,-2.282484 -1.338156,-3.58402 0.09417,-1.193355 0.01044,-1.483632 -0.427995,-1.483632 -0.321112,0 -0.566956,0.288753 -0.598524,0.702774 -0.02948,0.386524 -0.08322,1.082376 -0.119705,1.546466 -0.162348,2.065265 -0.958545,5.822977 -1.475245,6.964895 -0.310922,0.687155 -1.293983,2.295173 -2.184781,3.573651 -1.382958,1.984826 -2.050442,2.587522 -4.570186,4.122687 -1.623032,0.988846 -3.6709,2.039079 -4.550121,2.334036 -0.879219,0.29496 -1.744402,0.653939 -1.923304,0.797333 -0.730595,0.585594 -1.186289,0.176442 -1.541449,-1.384194 -0.205877,-0.90466 -0.62577,-2.064239 -0.932896,-2.576835 -0.44456,-0.741971 -0.570257,-1.982937 -0.615913,-6.08582 l -0.05684,-5.153668 0.880064,-0.674712 c 0.985399,-0.755409 0.801056,-1.277198 -0.266829,-0.755846 -1.194918,0.58337 -2.790661,-0.310192 -2.790661,-1.562326 0,-0.449204 1.640936,-0.336235 2.755887,0.189723 1.196514,0.564432 1.295346,0.308792 0.266159,-0.690573 -0.409472,-0.397597 -0.602063,-0.729343 -0.427996,-0.736934 0.174065,-0.0075 1.086707,-0.201253 2.028296,-0.430694 1.8883,-0.460135 2.471839,-0.35826 1.851746,0.323326 -0.330306,0.363065 -0.155619,0.650386 0.924874,1.520845 0.73272,0.590291 1.439063,1.079337 1.569536,1.08649 0.836782,0.04587 2.600991,-1.364151 2.92976,-2.341355 0.326718,-0.97111 0.284936,-1.178845 -0.345741,-1.714838 l -0.717555,-0.610051 1.344842,-1.083442 c 0.739712,-0.595801 1.454283,-1.089098 1.588262,-1.09625 0.13398,-0.0071 0.405394,0.53392 0.602535,1.201787 0.29832,1.010635 0.529023,1.2366 1.376271,1.350034 1.185287,0.158696 2.742513,-1.066809 2.742513,-2.158343 0,-0.785579 -1.766051,-2.592696 -2.533863,-2.592696 -0.866218,0 -0.594389,-0.957467 0.700172,-2.465195 0.05789,-0.06744 0.345097,0.059 0.638651,0.281231 0.80864,0.612209 2.542821,0.437096 3.46074,-0.349557 0.950098,-0.81423 1.038912,-1.722313 0.266158,-2.728737 -0.474752,-0.618317 -0.736815,-0.687152 -1.917951,-0.505115 -1.317667,0.20308 -1.358573,0.183914 -1.119475,-0.52464 0.334015,-0.98982 0.448464,-1.06904 0.922197,-0.636887 0.504269,0.46001 1.637748,0.485799 1.637748,0.03721 0,-0.657206 -2.084744,-1.907116 -6.907439,-4.142212 l -4.905174,-2.273641 0.06553,-1.701419 C 86.591108,17.532614 86.556362,16.277838 85.723268,14.258776 84.095651,10.314129 80.941539,7.434901 75.651339,5.0629423 73.937182,4.2943681 73.018615,3.9082365 72.417974,3.8898241 Z M 130.46681,13.64568 c -1.75099,0.05387 -3.18823,0.221859 -3.71687,0.485597 -0.3374,0.168333 -1.19102,0.390463 -1.89722,0.493527 -1.47894,0.21584 -1.68603,0.911042 -0.6848,2.298653 1.09647,1.519571 1.4353,2.06515 2.26036,3.638925 0.9086,1.733145 2.2764,6.01401 2.2764,7.124726 0,0.393197 0.1399,0.848867 0.31096,1.012066 0.17106,0.163199 0.36366,1.511089 0.42799,2.995935 0.0933,2.153391 0.004,2.817072 -0.43869,3.279608 -0.30561,0.318937 -0.63451,1.257368 -0.73094,2.085137 -0.16059,1.378665 -0.10503,1.529458 0.6634,1.795975 0.46138,0.160018 1.21399,0.290993 1.67252,0.290993 0.75754,0 0.83393,0.125993 0.83393,1.379923 0,1.939332 -0.20729,2.26265 -1.96009,3.061211 -1.65708,0.754946 -3.41601,2.450468 -3.73894,3.60415 -0.19732,0.70495 -0.60807,0.86526 -2.86088,1.115164 -1.67479,0.185782 -4.76876,1.007092 -5.99193,1.59039 -0.56495,0.269413 -1.21482,0.490761 -1.44448,0.491697 -0.22967,9.37e-4 -0.98486,0.292183 -1.67788,0.647261 -1.39627,0.715408 -1.36859,0.730612 -2.51113,-1.354303 -0.35489,-0.647616 -1.08118,-1.689819 -1.61434,-2.315734 -1.75141,-2.056116 -9.661993,-9.15679 -10.200996,-9.15679 -1.199452,0 -0.328286,1.210221 3.153796,4.382569 4.97821,4.535404 7.25873,6.907388 8.43284,8.770022 l 0.98573,1.564158 -0.95631,-0.09639 c -1.15592,-0.116263 -1.35065,0.401784 -1.70261,4.536913 -0.22782,2.676502 -0.25833,2.753929 -1.0185,2.579885 -0.48537,-0.111126 -0.94723,3.12e-4 -1.21376,0.293431 -0.23671,0.260177 -0.37017,0.505394 -0.29626,0.54477 0.0739,0.03937 0.62364,0.38389 1.22179,0.765612 0.59815,0.38172 1.26994,0.732466 1.49264,0.779637 0.42485,0.08999 0.43118,0.0523 0.86066,-5.329971 0.20305,-2.544582 0.37359,-3.263481 0.80517,-3.391248 0.49919,-0.14778 1.89053,-0.703741 4.65645,-1.860639 0.56496,-0.236304 1.25831,-0.552959 1.54079,-0.703992 0.28247,-0.151031 1.36103,-0.450496 2.39677,-0.66495 1.03575,-0.214453 2.0968,-0.462651 2.35798,-0.551481 0.37213,-0.126558 0.42592,0.06898 0.24811,0.903476 -0.1248,0.585719 -0.26853,1.278443 -0.31966,1.539147 -0.0511,0.260704 -0.20375,0.636413 -0.33839,0.835153 -0.13465,0.198739 0.0106,1.812646 0.32233,3.58646 0.31177,1.773812 0.56176,3.529148 0.55573,3.900634 -0.006,0.371485 0.24177,0.752742 0.55038,0.847353 0.30861,0.09461 0.89337,0.39683 1.29937,0.671051 0.72101,0.486997 0.75505,0.457275 1.46655,-1.277437 0.40063,-0.976799 0.80355,-2.845438 0.89545,-4.152583 0.10097,-1.436382 0.35643,-2.549985 0.646,-2.81414 0.59944,-0.546826 4.15924,-0.733195 4.58958,-0.240358 0.3009,0.344593 0.75274,7.590629 0.77239,12.381491 0.012,2.917482 0.17222,3.435779 1.05929,3.435779 0.63888,0 0.68961,0.145437 0.54235,1.543418 l -0.1625,1.543413 1.32611,-0.0488 c 1.04668,-0.03807 1.28085,-0.148854 1.11079,-0.527689 -0.1185,-0.263956 -0.33859,-0.85296 -0.48885,-1.308548 -0.25328,-0.76789 -0.1904,-0.837196 0.86735,-0.949844 0.63153,-0.06725 1.11352,0.01574 1.07935,0.185454 -0.034,0.168641 0.20811,0.360068 0.53767,0.425813 0.74715,0.149056 0.84556,-1.108577 0.10699,-1.367112 -0.2706,-0.09472 -0.40693,-0.373544 -0.30361,-0.619196 0.10334,-0.245656 -0.002,-0.654998 -0.23338,-0.909579 -0.23162,-0.254579 -0.34012,-0.744612 -0.24142,-1.088933 0.0987,-0.344321 0.0602,-0.692943 -0.085,-0.774759 -0.14512,-0.08182 -0.27621,-1.311496 -0.29158,-2.733006 -0.0153,-1.421509 -0.13109,-2.936151 -0.25746,-3.365622 -0.12638,-0.429473 -0.28249,-2.100243 -0.34708,-3.712741 -0.0998,-2.491876 -0.0501,-2.846842 0.33503,-2.366367 0.4268,0.532445 0.48855,0.51691 1.05394,-0.270249 0.46372,-0.645618 0.64058,-1.753378 0.77909,-4.86878 0.16811,-3.781241 0.13403,-4.086 -0.55305,-4.882808 -0.40305,-0.467409 -0.73294,-1.041699 -0.73294,-1.276216 0,-0.279076 -0.41404,-0.426421 -1.19838,-0.426421 -1.62866,0 -1.70915,0.04339 -1.73339,0.937031 -0.0173,0.637362 -0.17319,0.764685 -0.84863,0.693621 -1.16869,-0.122954 -1.2464,-0.267987 -1.50868,-2.819631 l -0.23473,-2.28279 1.64911,0.09639 c 1.53793,0.08957 1.71807,0.220067 1.42108,1.032807 -0.0628,0.171789 0.0397,0.345742 0.22805,0.386768 0.18831,0.04103 0.34239,-0.169802 0.34239,-0.468514 0,-0.384433 0.32512,-0.571268 1.11279,-0.640548 0.90026,-0.07918 1.11278,-0.234549 1.11278,-0.813193 0,-0.393387 0.0999,-1.587864 0.22203,-2.654308 l 0.22202,-1.939338 -0.94293,0.09761 -0.94359,0.097 0.083,-3.59195 c 0.0853,-3.69299 0.16314,-5.037466 0.30828,-5.30984 0.0458,-0.0859 0.12888,-0.788667 0.18458,-1.561718 0.10288,-1.428082 0.58618,-2.924177 1.42776,-4.421003 0.25637,-0.455978 0.46611,-1.050165 0.46611,-1.320138 0,-0.269973 0.30752,-0.95106 0.68346,-1.513525 0.83545,-1.250004 0.84155,-1.346922 0.087,-1.396395 -0.32955,-0.02161 -2.13997,-0.205964 -4.02315,-0.409341 -1.78339,-0.192601 -3.84838,-0.25275 -5.59938,-0.198875 z m -53.429167,0.560022 c -1.041686,-0.0012 -1.695696,0.307289 -2.63685,1.102964 -0.935416,0.790822 -0.99727,0.800101 -1.948717,0.301972 -1.2066,-0.631712 -1.717352,-0.642062 -2.947814,-0.06162 -1.145698,0.540463 -1.910765,1.532958 -2.242293,2.90992 -0.288705,1.199091 0.217329,1.34812 0.77641,0.228767 0.85196,-1.705731 3.876588,-2.558004 5.468305,-1.540976 0.723099,0.462022 0.811423,0.437269 1.631733,-0.452044 0.47707,-0.517202 1.184789,-1.032083 1.572881,-1.144447 0.8624,-0.24969 3.665566,0.40475 4.485923,1.047449 0.534648,0.418865 0.599193,0.416947 0.599193,-0.01952 0,-0.809172 -1.949802,-2.054174 -3.56306,-2.274862 -0.458509,-0.06273 -0.848481,-0.09719 -1.195711,-0.09761 z m 55.512297,0.963262 c 0.44918,-0.004 0.76643,0.06241 1.05194,0.198876 0.41371,0.197752 1.56394,0.393223 2.55593,0.434352 2.24196,0.09296 2.32632,0.798409 0.16384,1.369554 -2.91142,0.76895 -9.25431,0.619002 -10.17558,-0.240358 -0.30641,-0.28582 2.09475,-1.095463 4.56015,-1.537926 0.81364,-0.146025 1.39454,-0.220593 1.84372,-0.224498 z m -53.695992,2.275472 c -0.138479,0.0031 -0.239966,0.04718 -0.29893,0.13421 -0.09992,0.147496 0.282091,0.415639 0.849304,0.596015 1.011948,0.321804 1.663175,1.126746 1.230485,1.521455 -0.120561,0.10998 -0.40176,0.0337 -0.624605,-0.169593 -0.523198,-0.477276 -1.728474,-0.474823 -2.254329,0.0049 -0.281552,0.256842 -0.521678,0.273857 -0.763036,0.05369 -0.241359,-0.220173 -0.116775,-0.593983 0.395228,-1.18776 0.664354,-0.77046 0.678621,-0.854461 0.131743,-0.756457 -0.338284,0.06063 -0.723168,0.32125 -0.855322,0.578934 -0.132154,0.257683 -0.436641,0.809686 -0.676766,1.226803 -0.400792,0.696203 -0.341595,0.829844 0.717559,1.631262 0.634573,0.480155 1.199468,0.876894 1.255898,0.881517 0.399046,0.03268 2.122969,-1.036729 2.949821,-1.830138 l 0.998433,-0.957783 -0.976362,-0.710095 C 80.015944,17.794119 79.269387,17.43529 78.853948,17.444438 Z m 3.692125,0.416661 c -0.214783,-0.02091 -0.256798,1.260206 -0.145786,3.914056 0.173133,4.138998 0.167654,4.179586 -0.813858,5.830208 -0.543598,0.914181 -1.468523,2.128178 -2.055715,2.697623 -0.894626,0.867596 -1.310723,1.035137 -2.56797,1.033419 -1.721527,-0.0023 -2.968666,-0.645602 -4.467868,-2.304754 -0.910301,-1.007426 -1.655136,-1.245428 -1.655136,-0.52891 0,0.137953 0.717881,0.972508 1.595621,1.85515 l 1.596288,1.605031 h 2.527173 c 2.766571,0 2.842014,-0.03759 4.842363,-2.403582 1.897635,-2.244491 2.668793,-6.841951 1.722681,-10.269514 -0.258012,-0.934725 -0.448922,-1.41618 -0.577793,-1.428727 z m -37.008866,0.721075 c 0.257852,0.0031 0.197714,0.426092 -0.185239,1.262185 -0.797725,1.74165 -2.317326,2.407278 -7.188982,3.150278 -1.610806,0.24567 -2.778577,0.58308 -2.868235,0.828442 -0.114173,0.312457 0.132102,0.36718 1.00512,0.222666 0.636025,-0.105283 2.311842,-0.269392 3.724226,-0.364198 l 2.56797,-0.172032 -1.705961,0.65824 c -0.938312,0.361994 -2.445108,0.737561 -3.348393,0.835152 -2.833932,0.306179 -2.336294,0.818165 0.555058,0.571003 1.438694,-0.122982 2.616118,-0.144943 2.616118,-0.0488 0,0.306998 -1.933859,1.099978 -3.430647,1.406766 -0.978966,0.200652 -1.711744,0.187428 -2.261019,-0.04087 -0.986512,-0.410032 -4.08607,0.144231 -5.844138,1.04501 -1.757829,0.900655 -1.80413,0.842331 -0.783098,-0.983395 0.651105,-1.16425 2.329246,-2.390423 4.416375,-3.227143 0.485955,-0.194818 1.268604,-0.586863 1.739398,-0.871145 0.470795,-0.284282 1.78046,-0.679662 2.910367,-0.878467 3.747515,-0.659363 5.03229,-1.179223 7.274577,-2.944691 0.382819,-0.301413 0.651795,-0.450844 0.806503,-0.448994 z m 25.022998,0.07687 c -0.351271,-0.03776 -0.614892,0.0369 -0.961651,0.206195 -0.447258,0.218355 -0.81319,0.573302 -0.81319,0.788789 0,0.29929 0.237544,0.28404 1.005121,-0.06527 0.888264,-0.40423 1.152159,-0.400952 2.277735,0.02806 1.897518,0.72324 1.87923,0.278365 -0.02007,-0.488038 -0.697831,-0.281589 -1.13668,-0.431971 -1.487954,-0.469735 z m 61.482165,0.02561 c 2.01933,-0.0021 4.05602,0.102327 4.12547,0.316004 0.0558,0.171791 -0.15884,1.280931 -0.47681,2.464587 -0.47264,1.759383 -0.54469,3.118989 -0.39523,7.45049 l 0.18256,5.298251 -0.9583,-0.175085 c -0.52726,-0.09619 -1.43317,-0.0504 -2.01291,0.101276 -0.57976,0.151674 -1.12688,0.167818 -1.21578,0.0366 -0.15193,-0.224254 -0.23287,-0.894781 -0.7209,-5.96198 -0.25899,-2.688971 -1.44906,-7.450478 -2.06174,-8.248431 -0.26869,-0.349951 -0.48853,-0.78065 -0.48818,-0.957163 3.4e-4,-0.213745 2.00249,-0.322415 4.02182,-0.324546 z m -52.678173,0.844303 c 0.157245,0.0075 0.29975,0.05626 0.407265,0.154342 0.214758,0.195908 0.287028,0.508696 0.160499,0.695452 -0.315631,0.465874 -1.995392,0.440075 -1.824331,-0.02806 0.181357,-0.496314 0.784834,-0.844351 1.256567,-0.821732 z m 53.620433,0.721076 c -0.69712,0 -1.05448,0.172222 -1.13352,0.5466 -0.0928,0.43989 0.12868,0.546602 1.13352,0.546602 1.00483,0 1.22638,-0.106712 1.13351,-0.546602 -0.079,-0.374378 -0.4364,-0.5466 -1.13351,-0.5466 z m -62.635077,0.07748 c -0.50358,0.0064 -0.888278,0.151947 -1.08002,0.434961 -0.104616,0.154412 -0.0137,0.769821 0.20263,1.367724 0.216312,0.597903 0.53765,1.087102 0.714217,1.087102 0.613533,0 4.077321,-1.935612 4.077321,-2.278522 0,-0.251735 -0.101925,-0.251698 -0.377841,0 -0.275913,0.251697 -0.748002,0.194182 -1.744748,-0.212906 -0.666073,-0.272036 -1.287981,-0.404804 -1.791559,-0.398359 z m 1.239846,0.703382 c 0.372181,0 0.61745,0.163554 0.544358,0.363587 -0.185906,0.508766 -1.636413,1.350132 -1.636413,0.949232 0,-0.758272 0.461218,-1.312819 1.092055,-1.312819 z m 60.711771,1.331731 c -0.1218,0.05006 -0.17254,0.163946 -0.17254,0.349555 0,0.352822 0.30947,0.505119 1.02719,0.505119 0.56496,0 1.02719,-0.140555 1.02719,-0.312344 0,-0.171788 -0.11555,-0.314268 -0.25679,-0.316614 -0.14125,-0.0023 -0.60348,-0.08919 -1.02719,-0.192774 -0.28319,-0.06923 -0.47606,-0.083 -0.59786,-0.03294 z m -54.555996,1.176778 c -0.344154,0.0056 -0.749108,0.121505 -0.993083,0.344066 -0.213377,0.194651 -1.246102,0.336222 -2.294454,0.314174 -1.440135,-0.03028 -1.905917,0.06829 -1.905917,0.40385 0,0.244274 0.269637,0.508302 0.599194,0.586864 1.254207,0.298992 2.36033,0.181402 3.766356,-0.400801 0.800351,-0.331405 1.455183,-0.750131 1.455183,-0.930319 0,-0.218603 -0.283127,-0.323418 -0.627279,-0.317834 z m 55.239456,1.310989 c -0.81277,-0.06136 -1.1639,0.481065 -0.62795,0.969973 0.47595,0.43418 1.48394,0.197585 1.48394,-0.348336 0,-0.368204 -0.2897,-0.578883 -0.85599,-0.621637 z m -55.618633,1.969224 c -1.268402,-0.07297 -3.404396,0.14604 -3.62659,0.474006 -0.08947,0.132066 -0.06877,0.463749 0.04614,0.736935 0.25637,0.609443 0.595382,0.613078 2.43422,0.02867 0.79351,-0.252186 1.67946,-0.375187 1.968778,-0.273911 0.654339,0.229055 0.69064,-0.306419 0.0535,-0.788789 -0.126888,-0.09606 -0.45325,-0.152589 -0.876051,-0.176913 z m 55.678153,0.827833 c -0.6486,-0.07004 -0.91552,0.04369 -0.91552,0.39043 0,0.338333 0.3259,0.489257 1.05595,0.489257 1.30999,0 1.19255,-0.735735 -0.14043,-0.879687 z m -98.002183,0.01769 c 0.298775,0.01023 0.687278,0.04644 1.175649,0.105538 1.864055,0.225572 2.24422,0.563113 0.981713,0.871756 -1.293084,0.316117 -2.205812,0.220719 -2.660256,-0.278792 -0.478177,-0.525595 -0.393429,-0.729355 0.502894,-0.698502 z m 41.826484,0.861996 c -0.448628,0 -0.89277,0.634226 -0.89277,1.274995 0,0.157738 0.308156,0.286722 0.684792,0.286722 0.502182,0 0.684792,-0.20823 0.684792,-0.780859 0,-0.459214 -0.19632,-0.780858 -0.476814,-0.780858 z m -45.067209,0.63872 c -0.627852,-0.08689 -1.894563,0.249028 -1.982152,0.671051 -0.07901,0.380668 0.112034,0.517956 0.682117,0.491087 0.879276,-0.04144 1.647781,-0.471279 1.647781,-0.921779 0,-0.135278 -0.138462,-0.211394 -0.347746,-0.240359 z m 101.318468,1.278662 c -0.14268,-0.01299 -0.3006,0.0074 -0.46744,0.06588 -0.28299,0.09901 -0.39716,0.421957 -0.28623,0.808921 0.23992,0.836924 1.47458,0.868026 1.47458,0.03721 0,-0.53165 -0.29288,-0.873056 -0.72091,-0.912019 z m -96.29287,0.05918 c 0.07972,0.07273 -0.336177,0.500823 -0.923533,0.951671 -1.002518,0.769524 -2.727131,1.127628 -2.727131,0.566122 0,-0.291419 3.431229,-1.717969 3.650664,-1.517793 z m 43.310425,2.107098 c -0.45124,0.02933 -1.172895,0.169305 -2.255,0.426421 -1.041305,0.24742 -2.429056,0.370805 -3.083571,0.273912 -0.654513,-0.09688 -1.461726,-0.08101 -1.794234,0.03538 -0.51837,0.181459 -0.533134,0.256112 -0.100982,0.522809 1.134488,0.700138 7.865748,-0.172207 7.865748,-1.019389 0,-0.186781 -0.180724,-0.268464 -0.631961,-0.239135 z m -43.959774,0.03052 c 0.253377,0.07929 -0.09034,0.541773 -0.79179,0.83332 -1.2859,0.534436 -3.236713,0.470439 -3.236713,-0.10616 0,-0.345763 0.396267,-0.468514 1.512695,-0.468514 0.832029,0 1.756498,-0.08545 2.054376,-0.189724 0.226002,-0.07912 0.376973,-0.09537 0.461432,-0.06893 z M 22.297746,33.83699 c -0.906255,0 -1.441636,0.159692 -1.571544,0.468515 -0.150989,0.358933 0.07053,0.468516 0.948276,0.468516 0.630144,0 1.337779,-0.210832 1.572213,-0.468516 0.366849,-0.403228 0.234345,-0.468515 -0.948945,-0.468515 z m 9.908754,0.554532 c 0.219634,0.01387 0.488808,0.0652 0.807172,0.154341 0.66357,0.185779 1.08747,0.435651 0.941589,0.555143 -0.628083,0.514443 -2.165641,0.62135 -2.357985,0.164103 -0.260833,-0.620061 -0.04968,-0.915163 0.609224,-0.873587 z m 103.44172,0.453255 c 0.53789,0.03838 0.63858,0.202817 0.76371,0.562461 0.17348,0.498608 0.0265,0.805588 -0.56977,1.190811 -0.79972,0.516641 -3.54299,0.919711 -4.9848,0.732667 -0.6536,-0.08479 -0.72868,-0.234629 -0.54971,-1.093201 0.11406,-0.547221 0.22406,-1.011913 0.24409,-1.03281 0.0201,-0.02092 1.29418,-0.13534 2.83145,-0.253777 0.66529,-0.05126 1.1729,-0.08814 1.56419,-0.104929 0.29348,-0.01259 0.52155,-0.014 0.70084,-0.0012 z M 74.956518,35.26083 c -0.259762,0.03397 -0.428734,0.14643 -0.596519,0.349556 -0.22937,0.277683 -0.346422,0.608976 -0.260141,0.736329 0.08628,0.127351 1.610808,0.212334 3.387851,0.188502 3.115403,-0.04175 3.210613,-0.06378 2.660923,-0.618587 -0.409204,-0.413115 -0.874403,-0.530119 -1.649119,-0.415442 -0.593612,0.08789 -1.673982,0.0349 -2.400781,-0.117739 -0.53167,-0.11165 -0.882455,-0.156589 -1.142214,-0.122619 z M 23.937502,35.2785 c -0.146733,0.02557 -0.348149,0.08963 -0.605212,0.190337 -1.241115,0.486238 -1.215143,0.46309 -0.955632,0.846132 0.333152,0.491738 0.905114,0.405722 1.420408,-0.213515 0.527463,-0.633857 0.580635,-0.899699 0.140436,-0.822954 z m 3.210631,0.120193 c -0.378398,0 -2.874254,1.921316 -2.874254,2.212636 0,0.513165 0.698324,0.302729 1.901235,-0.572832 1.039551,-0.756659 1.563793,-1.639804 0.973019,-1.639804 z m 106.692487,0.312343 c -0.18832,0 -0.34239,0.140556 -0.34239,0.312344 0,0.171789 0.15407,0.312345 0.34239,0.312345 0.18831,0 0.34239,-0.140556 0.34239,-0.312345 0,-0.171788 -0.15408,-0.312344 -0.34239,-0.312344 z m -1.76481,0.08052 c -0.21073,0.02746 -0.44791,0.19602 -0.55372,0.485597 -0.0746,0.204001 0.10842,0.370908 0.40659,0.370908 0.29817,0 0.54236,-0.222748 0.54236,-0.494746 0,-0.27579 -0.18451,-0.389222 -0.39523,-0.361759 z m -62.09206,0.231817 c -0.282477,0 -0.513594,0.140554 -0.513594,0.312345 0,0.171788 0.231117,0.312343 0.513594,0.312343 0.282477,0 0.513594,-0.140555 0.513594,-0.312343 0,-0.171791 -0.231117,-0.312345 -0.513594,-0.312345 z M 27.53801,37.17331 c -0.149589,0.0068 -0.331786,0.06152 -0.534325,0.176915 -0.364269,0.207521 -0.737356,0.556326 -0.829241,0.774758 -0.232756,0.553314 0.997557,0.506065 1.510689,-0.05796 0.458036,-0.503458 0.301643,-0.914361 -0.147123,-0.893717 z m 68.582864,2.063785 c 0.08163,-0.0099 0.167845,0.0018 0.260139,0.03417 0.295257,0.103361 0.661762,0.187893 0.814529,0.187893 0.609608,0 0.681826,1.032896 0.100306,1.435437 -0.704421,0.487625 -1.678312,0.563477 -1.956742,0.152511 -0.106618,-0.157374 -0.03713,-0.663573 0.15515,-1.124923 0.180316,-0.432634 0.381731,-0.655388 0.626613,-0.685082 z m -75.630738,1.488514 c -0.293032,0.0503 -0.744561,0.312586 -1.277967,0.763776 -0.63398,0.536262 -0.760699,0.780859 -0.403921,0.780859 0.643466,0 2.041671,-0.867685 2.041671,-1.267065 0,-0.130151 -0.04292,-0.214736 -0.12238,-0.256218 -0.0596,-0.03111 -0.139726,-0.03811 -0.237403,-0.02136 z m 115.747254,2.481665 c 0.18832,0 0.34239,0.128986 0.34239,0.286723 0,0.157739 0.0936,0.509127 0.20798,0.780859 0.13638,0.324209 0.0186,0.494136 -0.34239,0.494136 -0.35865,0 -0.55038,-0.271886 -0.55038,-0.780859 0,-0.429472 0.15408,-0.780859 0.3424,-0.780859 z m -72.757825,0.946183 c 0.28715,0.0308 0.631142,0.157727 1.003781,0.40629 0.515765,0.344035 0.554342,0.531312 0.224698,1.093203 -0.48521,0.827044 -0.784074,0.847944 -1.519383,0.106758 -0.920936,-0.928313 -0.570555,-1.698648 0.290904,-1.606251 z m 67.478775,0.114077 c 0.845,-0.195202 4.59425,1.342119 4.59425,1.883822 0,0.204739 -0.19457,0.614592 -0.432,0.9108 -0.40182,0.501289 -0.51275,0.483889 -1.60699,-0.252561 -1.3261,-0.89249 -1.72736,-0.979006 -1.72736,-0.372738 0,0.23011 0.40871,0.587914 0.90816,0.795501 1.36763,0.568446 0.47916,1.123503 -1.84775,1.154206 -1.11024,0.01465 -1.98754,0.175802 -2.06172,0.378839 -0.18672,0.51095 1.44569,0.801945 2.26235,0.403241 1.30321,-0.636243 1.52105,-0.437311 1.34551,1.229241 -0.0909,0.862721 -0.22594,1.619192 -0.30027,1.680677 -0.0743,0.06148 -1.46974,0.172742 -3.10095,0.247679 l -2.96588,0.13665 -0.14578,-1.113942 c -0.27438,-2.092952 2.95037,-6.589823 5.07843,-7.081415 z m 6.61453,1.313429 c 0.22778,0.04657 0.3765,0.410808 0.3765,1.07856 0,0.715867 -0.31135,1.122441 -1.42108,1.855761 -0.78152,0.516445 -1.62895,0.938861 -1.88318,0.938861 -0.79451,0 -0.50395,-0.754118 0.535,-1.389075 0.54719,-0.334423 1.24135,-1.079648 1.54279,-1.656274 0.31537,-0.603285 0.62217,-0.8744 0.84997,-0.827833 z m -43.597991,0.125059 c 1.086299,0 1.196041,0.07298 0.992414,0.65824 -0.125926,0.361941 -0.479186,0.924159 -0.784436,1.249374 -0.931951,0.992906 -1.42977,0.691229 -1.42977,-0.866265 0,-0.985398 0.06574,-1.041349 1.221792,-1.041349 z m -72.309094,0.402025 c 0.583174,0.23478 2.919164,2.251291 2.97189,2.639669 0.0166,0.122286 -0.117685,0.267194 -0.29826,0.322104 -0.408138,0.124104 -2.804704,-2.391046 -2.804704,-2.943472 0,-0.04912 0.04776,-0.05184 0.131074,-0.01831 z m -0.699504,0.952892 c 0.04125,-0.02581 0.09789,-0.02133 0.172535,0.02073 0.217714,0.122744 0.395895,0.377126 0.395895,0.565511 0,0.18838 0.392999,0.812713 0.873377,1.387244 0.944114,1.129154 0.400301,1.531059 -0.645336,0.477055 -0.603006,-0.60783 -1.085263,-2.269963 -0.796471,-2.450554 z m 36.817604,0.206807 c -0.652552,0 -0.707425,0.123684 -0.517607,1.171287 0.116726,0.644208 0.213949,1.557813 0.216004,2.030232 0.0031,0.665411 0.167497,0.858946 0.72893,0.858946 0.584478,0 0.684776,-0.136 0.518275,-0.702773 -0.113552,-0.386526 -0.208584,-1.300131 -0.211323,-2.030233 -0.004,-1.145068 -0.104935,-1.327459 -0.734279,-1.327459 z m 10.399612,1.307943 c 1.197644,0.105606 1.743234,1.047104 0.892102,1.539144 -0.653428,0.377752 -0.798118,0.348123 -1.435789,-0.294649 -0.899954,-0.907155 -0.704247,-1.354534 0.543687,-1.244495 z m 39.005733,0.628348 c -0.11358,-0.03446 -0.2079,-0.02692 -0.27485,0.03416 -0.11852,0.108111 0.0364,0.547282 0.3444,0.976074 0.77458,1.078397 0.70214,1.426287 -0.29625,1.426287 -0.8313,0 -1.09347,0.304343 -0.62795,0.729004 0.33679,0.307233 2.78289,0.252946 2.99931,-0.06649 0.37232,-0.549555 -1.34961,-2.857787 -2.14466,-3.099032 z m 30.05662,0.08236 c 0.46258,0.04409 0.54497,0.33928 0.007,0.642379 -0.75819,0.427465 -2.38419,0.716479 -2.56128,0.455094 -0.21295,-0.314318 0.60871,-0.751062 1.97345,-1.048669 0.22967,-0.05008 0.42628,-0.0635 0.58047,-0.0488 z m -12.72014,0.167764 c 0.31367,0.0015 0.37808,0.376854 0.54235,1.717889 0.56375,4.602456 0.60766,6.073604 0.23004,7.732942 -0.22313,0.980459 -0.52792,1.851151 -0.67676,1.935064 -0.14885,0.08392 -0.60344,-0.440666 -1.01047,-1.165796 -0.57888,-1.031275 -0.75251,-1.933848 -0.79647,-4.144652 -0.0309,-1.554506 0.0291,-2.960052 0.13307,-3.123436 0.10394,-0.163386 0.29471,-0.831611 0.42398,-1.48485 0.1293,-0.653235 0.46411,-1.267805 0.74432,-1.365894 0.17285,-0.06052 0.30538,-0.101796 0.40994,-0.101276 z m -37.131255,0.302582 c 0.517049,0.03594 0.907483,0.250031 0.907483,0.623465 0,0.337535 -0.297799,0.759199 -0.662054,0.937032 -0.935686,0.456811 -1.579137,0.402429 -2.107875,-0.178742 -0.388281,-0.426786 -0.359115,-0.567677 0.194604,-0.937032 0.50701,-0.338198 1.150793,-0.480658 1.667842,-0.444723 z M 54.53179,50.852385 c -0.131011,0.01303 -0.29455,0.07796 -0.502223,0.179354 -0.56005,0.273423 -0.637113,0.528528 -0.448059,1.484852 0.125515,0.634932 0.299548,1.267194 0.386534,1.405548 0.08698,0.138364 0.413587,0.205611 0.725585,0.149458 0.449816,-0.08096 0.542198,-0.391495 0.44605,-1.50071 -0.115076,-1.327566 -0.214854,-1.757561 -0.607887,-1.718502 z m 81.0208,0.475837 c 0.85282,0 1.32638,0.123428 1.1984,0.312343 -0.1164,0.171789 -0.65567,0.312343 -1.1984,0.312343 -0.54272,0 -1.08199,-0.140554 -1.19838,-0.312343 -0.12799,-0.188915 0.34558,-0.312343 1.19838,-0.312343 z m -0.10499,1.529383 0.018,3.217994 c 0.0235,4.129172 0.35895,7.725416 0.94026,10.08162 0.25334,1.026812 0.38686,1.975557 0.29693,2.108318 -0.26473,0.390723 -2.11313,0.276286 -2.40347,-0.148851 -0.22865,-0.334792 -0.469,-5.602889 -0.59518,-13.040342 -0.0334,-1.962645 -0.005,-2.033115 0.85398,-2.124179 z m -23.02948,1.012678 c -0.096,-0.0041 -0.21364,0.112425 -0.35777,0.325156 -0.28875,0.426205 -0.51457,9.003455 -0.24743,9.397758 0.0981,0.144786 0.43365,0.216394 0.74564,0.15922 0.40793,-0.07475 0.5361,-0.364546 0.45609,-1.032196 -0.0612,-0.51065 -0.13827,-2.720549 -0.1712,-4.910872 -0.0425,-2.830681 -0.13739,-3.926954 -0.42533,-3.939066 z m -61.132405,22.17639 c 0.507571,0.07065 1.045143,0.45004 1.451173,1.115775 0.609144,0.998766 0.607894,1.00542 -0.27619,1.639803 -2.009741,1.442109 -3.541036,0.177249 -2.444255,-2.018641 0.28451,-0.569625 0.761714,-0.807584 1.269272,-0.736937 z m 64.314955,3.314379 c 0.13724,-0.04294 0.2819,0.307734 0.32166,0.779638 0.096,1.138205 -0.86346,1.638536 -1.88785,0.984005 -0.40576,-0.259256 -0.73763,-0.744725 -0.73763,-1.078561 0,-0.466192 0.23826,-0.606996 1.02719,-0.606996 0.56496,0 1.13941,-0.03514 1.27663,-0.07809 z m -19.225006,1.345152 c -0.29341,-0.06306 -0.541013,0.02071 -0.541013,0.294652 0,0.171789 0.154078,0.312343 0.342396,0.312343 0.457503,0 0.440558,1.781873 -0.01938,2.041216 -0.199017,0.112189 -0.754367,0.114026 -1.23383,0.0043 -0.784275,-0.179564 -0.849013,-0.307761 -0.649348,-1.278657 0.261358,-1.270872 -0.08024,-1.365724 -1.156254,-0.320886 -0.94982,0.922298 -0.872757,1.173382 0.662053,2.163227 1.573814,1.015001 1.830257,1.003409 2.879606,-0.134212 0.964574,-1.045716 1.076278,-1.568504 0.532316,-2.495699 -0.1839,-0.313462 -0.523123,-0.523185 -0.816532,-0.586253 z m -26.445413,2.891007 c -0.173554,0.0159 -0.362618,0.05403 -0.583812,0.111638 -1.441512,0.375435 -1.566203,1.365222 -0.370484,2.939202 0.989302,1.302261 2.227444,1.616061 3.29155,0.833933 0.652603,-0.479666 1.069309,-1.483631 0.615911,-1.483631 -0.182407,0 -0.331696,0.140553 -0.331696,0.312344 0,0.440672 -2.17517,0.390044 -2.670956,-0.06223 -0.448617,-0.409241 -0.567867,-1.813315 -0.15381,-1.810006 0.141237,0.0012 0.719031,0.281544 1.283984,0.622858 1.204926,0.727951 1.540782,0.774621 1.540782,0.214736 0,-0.225378 -0.479299,-0.732748 -1.065307,-1.127976 -0.658002,-0.44378 -1.035498,-0.598562 -1.556162,-0.55087 z m 20.817279,1.307331 c -0.267888,-0.02711 -0.589524,0.08243 -1.178326,0.306851 -1.898918,0.723778 -2.380347,2.155489 -1.183673,3.519964 0.623465,0.710889 2.22807,0.445091 3.349061,-0.554531 1.180585,-1.052765 1.151917,-1.661443 -0.129066,-2.759238 -0.375796,-0.322056 -0.590109,-0.485932 -0.857996,-0.513046 z m 0.0027,0.83271 c 0.49212,0.121287 0.608123,0.594278 0.26081,1.289638 -0.479049,0.959122 -1.289329,1.328645 -1.550814,0.707043 -0.337839,-0.803123 0.02757,-1.883359 0.675431,-1.996069 0.244309,-0.0425 0.450534,-0.04102 0.614573,-6.24e-4 z m -14.759809,1.096253 c -0.629537,-0.03229 -0.888778,0.39996 -1.416397,1.758764 -0.397049,1.022544 -0.391154,1.228781 0.04213,1.478749 0.680169,0.392397 2.044344,0.37778 2.044344,-0.02196 0,-0.177184 -0.231117,-0.403186 -0.513594,-0.502068 -0.282477,-0.09888 -0.513595,-0.463823 -0.513595,-0.811362 0,-0.564148 0.16518,-0.614836 1.540783,-0.473394 2.197375,0.225937 1.950863,-0.535541 -0.407263,-1.258525 -0.315761,-0.09681 -0.566567,-0.159439 -0.77641,-0.170204 z m 9.361658,1.663596 c -1.104066,0 -2.528516,0.866493 -2.528516,1.537926 0,0.303417 1.625005,2.203137 2.220226,2.595747 0.485898,0.320492 0.59046,0.294274 1.460532,-0.367859 0.941887,-0.716789 1.067275,-1.757926 0.171198,-1.421408 -1.498853,0.562893 -1.781819,0.52788 -2.180769,-0.270861 -0.314267,-0.629194 -0.307293,-0.910444 0.03208,-1.283535 0.58658,-0.644749 1.149865,-0.600924 1.891872,0.14702 0.876396,0.883408 1.32333,0.776583 0.65336,-0.156172 -0.415419,-0.578361 -0.861557,-0.780858 -1.720003,-0.780858 z m -7.346805,1.027316 c -0.410043,0.02268 -1.002443,0.308145 -1.002443,0.567953 0,0.356003 0.376923,0.348032 1.017155,-0.02136 0.277009,-0.159817 0.414447,-0.371673 0.305616,-0.470955 -0.06743,-0.06151 -0.183644,-0.0832 -0.320328,-0.07564 z m 2.458969,3.401005 c 0.132794,0.196027 0.190204,0.509917 0.12706,0.697285 -0.575617,1.70807 -0.817965,10.079433 -0.416629,14.395873 0.415693,4.47083 0.332354,8.23729 -0.242084,10.93202 -0.292964,1.37432 -0.532952,3.16638 -0.532987,3.98238 -3.1e-5,0.816 -0.115558,1.4761 -0.256797,1.46716 -0.141238,-0.009 -1.221334,-0.38543 -2.400118,-0.83699 l -2.143317,-0.82112 -1.414389,0.68875 c -0.77813,0.37889 -1.480175,0.62995 -1.559509,0.55758 -0.07933,-0.0724 0.009,-0.95446 0.195944,-1.96008 0.186979,-1.00562 0.329481,-3.16445 0.316983,-4.79739 -0.01835,-2.39616 0.118578,-3.25129 0.708198,-4.43199 0.401819,-0.80463 0.867457,-1.54011 1.034543,-1.63431 0.167082,-0.0942 0.410472,-0.82068 0.541014,-1.61479 0.305646,-1.8593 2.268862,-7.3864 3.761675,-10.589194 0.640561,-1.374306 1.361915,-3.37485 1.602308,-4.445401 0.240392,-1.070555 0.545293,-1.785812 0.678105,-1.589783 z m -12.490084,9.716198 c -0.180121,-0.005 -0.375198,0.0138 -0.561745,0.0678 -0.437788,0.12675 -0.681447,0.47317 -0.681447,0.96754 0,0.42342 -0.21772,1.24596 -0.484169,1.82769 -0.266466,0.58174 -0.395073,1.1391 -0.285555,1.23901 0.371901,0.33926 0.790278,0.18359 0.980376,-0.3648 0.437449,-1.26193 1.333099,-3.05925 1.614346,-3.24057 0.364713,-0.23513 -0.04144,-0.4799 -0.581806,-0.49659 z m 16.330685,1.78684 c -0.05295,-0.0157 -0.109478,-0.0139 -0.169192,0.006 -0.06825,0.0227 -0.141228,0.0691 -0.21801,0.1391 -0.126416,0.11532 -0.267624,1.19452 -0.31431,2.39809 -0.08954,2.30832 0.407199,3.7041 1.531422,4.30143 1.274046,0.67693 1.542566,0.10474 0.427995,-0.91201 -0.569812,-0.51981 -0.684792,-1.04128 -0.684792,-3.10514 0,-1.7428 -0.202435,-2.71773 -0.573113,-2.82756 z m -15.459982,3.44492 c -0.321657,-0.0191 -0.733563,0.74868 -0.738963,1.4873 -0.0049,0.6678 -1.300348,2.0712 -2.150672,2.32976 -0.205163,0.0624 -0.258992,0.28039 -0.120375,0.48498 0.327754,0.48379 0.591892,0.46936 1.452508,-0.0805 0.737179,-0.47102 2.087188,-3.79932 1.688574,-4.16295 -0.04081,-0.0372 -0.08513,-0.0559 -0.131072,-0.0585 z m 19.370789,0.0799 c -0.03703,-0.0297 -0.09029,-0.0281 -0.161838,0.0122 -0.195227,0.11007 -0.430529,0.51807 -0.522955,0.90714 -0.09242,0.38906 -0.286893,0.98877 -0.432008,1.33234 -0.238457,0.56461 -0.210316,0.57913 0.290903,0.15191 0.55347,-0.47178 1.085112,-2.19608 0.825898,-2.40358 z m -4.568848,7.81042 c -0.258392,-0.0776 -0.36513,0.96139 -0.342395,3.33267 0.02054,2.14444 0.162056,3.40663 0.375163,3.34244 0.799375,-0.24073 0.768993,-6.43452 -0.03277,-6.67511 z m -22.822168,3.1161 c -0.419322,0.13493 -0.495022,2.33354 -0.111679,3.24484 0.360132,0.85611 0.539674,0.36312 0.539674,-1.48241 0,-1.38529 -0.115959,-1.86283 -0.427995,-1.76243 z m 29.531659,3.81889 c -0.188318,0.10618 -0.342397,0.32517 -0.342397,0.48682 0,0.16165 0.154079,0.29404 0.342397,0.29404 0.188317,0 0.342395,-0.21899 0.342395,-0.48682 0,-0.26783 -0.154078,-0.40021 -0.342395,-0.29404 z m -29.262823,0.24767 c -0.03965,0.017 -0.07882,0.0517 -0.116364,0.10433 -0.143135,0.20078 -2.495365,0.41567 -5.887605,0.53806 -5.654927,0.20402 -8.204864,0.33469 -13.011049,0.66616 -1.412384,0.0975 -6.034731,0.2474 -10.271882,0.33309 -4.237151,0.0857 -8.675288,0.1874 -9.862611,0.22633 l -0.332365,0.011 c 0.198462,0.43979 0.363826,0.90154 0.490189,1.34454 2.281387,-0.16333 18.776809,-0.62897 20.319064,-0.57222 0.282477,0.0104 2.054377,-0.10626 3.937555,-0.25867 4.135404,-0.33465 10.301926,-0.65056 12.732852,-0.65274 1.914915,-0.002 2.741507,-0.50368 2.352634,-1.42812 -0.07179,-0.17068 -0.150859,-0.27499 -0.230713,-0.31051 -0.03993,-0.0177 -0.08006,-0.0183 -0.119705,-10e-4 z m 35.657336,1.02 c -1.898529,0.004 -4.139414,0.0611 -6.274808,0.1702 -0.523198,0.0268 -0.950793,0.45667 -1.477251,1.48608 -0.407476,0.79677 -1.270252,2.3925 -1.917285,3.5462 -0.647029,1.1537 -1.181522,2.34841 -1.187686,2.65492 -0.0061,0.3065 -0.309084,1.33062 -0.673424,2.27547 -0.36434,0.94484 -0.667261,2.10442 -0.673425,2.57683 -0.0061,0.47242 -0.165445,0.85895 -0.353763,0.85895 -0.188318,0 -0.342396,0.50881 -0.342396,1.13103 0,1.10578 0.01736,1.12093 0.770391,0.65641 0.596228,-0.3678 0.748508,-0.72405 0.673425,-1.57515 -0.05336,-0.60483 0.0578,-1.18699 0.247432,-1.2939 0.706965,-0.39858 13.004218,-0.11851 21.420493,0.48804 2.63645,0.18999 7.25879,0.39542 10.27188,0.45631 3.01308,0.0609 6.40281,0.18058 7.53271,0.26598 1.12991,0.0854 3.20997,0.24349 4.62235,0.35139 1.41238,0.10789 3.0302,0.33537 3.59516,0.50512 1.26121,0.37894 5.29161,1.36671 8.73109,2.14004 1.41239,0.31756 3.03021,0.79782 3.59516,1.06697 0.56496,0.26913 1.18127,0.48776 1.36958,0.4862 0.70265,-0.006 1.26159,-0.55543 1.14289,-1.1237 -0.0967,-0.46255 -0.52163,-0.62421 -2.00222,-0.76134 -1.03389,-0.0957 -3.26653,-0.54318 -4.96139,-0.99376 -4.81118,-1.27908 -10.35509,-2.35143 -13.35345,-2.58293 -1.50654,-0.11632 -3.2014,-0.25503 -3.76636,-0.30808 -4.5013,-0.42275 -36.509368,-1.41989 -37.556568,-1.17007 -0.647263,0.1544 -0.638956,0.0868 0.162504,-1.36528 0.463601,-0.83997 1.488057,-3.21867 2.2764,-5.28666 l 1.433112,-3.76032 2.101189,-0.0531 c 1.155812,-0.0293 2.263542,0.0629 2.461643,0.20436 0.340981,0.24361 2.583306,0.50342 7.20838,0.83516 1.1299,0.081 3.44108,0.27969 5.13594,0.44167 1.69486,0.16198 5.08457,0.38303 7.53271,0.49169 2.44814,0.10867 4.56942,0.26369 4.71396,0.34408 0.14455,0.0803 1.06902,0.20441 2.05438,0.27574 3.61232,0.26149 14.35962,1.77268 16.81753,2.36453 1.67996,0.40454 2.94982,0.13468 2.94982,-0.62651 0,-0.4885 -0.40177,-0.61349 -2.65357,-0.82357 -5.27115,-0.49177 -6.82733,-0.70911 -7.7895,-1.08771 -0.37664,-0.14821 -1.76334,-0.34164 -3.08157,-0.43008 -1.31822,-0.0885 -3.24421,-0.30127 -4.27995,-0.47277 -1.03575,-0.17154 -2.44469,-0.37239 -3.13105,-0.44657 -0.68636,-0.0741 -1.39839,-0.21967 -1.58224,-0.32332 -0.18386,-0.10366 -1.54833,-0.26909 -3.03208,-0.36786 -1.48376,-0.0988 -2.92883,-0.25501 -3.2113,-0.34711 -0.28248,-0.0921 -2.51661,-0.23621 -4.96475,-0.32028 -2.44812,-0.0841 -5.29857,-0.26707 -6.33432,-0.40629 -0.76507,-0.1028 -2.321246,-0.15118 -4.219773,-0.14703 z m -23.414671,0.56125 c 1.324223,-0.0771 3.142874,0.0393 5.121895,0.36846 1.133591,0.18856 1.283986,0.31928 1.283986,1.1164 0,0.49656 -0.11556,0.88515 -0.256798,0.86381 -0.141239,-0.0213 -1.027188,-0.23629 -1.968777,-0.47827 -0.941589,-0.24199 -2.752008,-0.52622 -4.023154,-0.6314 -1.271145,-0.10519 -2.311172,-0.30633 -2.311172,-0.44717 0,-0.4443 0.829793,-0.7148 2.15402,-0.79183 z m -11.940394,0.29953 c -0.08435,0.023 -0.164268,0.1151 -0.22871,0.29038 -0.07934,0.21581 -0.03563,0.83479 0.09764,1.37565 0.393043,1.59519 0.0034,1.84945 -2.124594,1.38541 -4.096074,-0.89321 -29.38788,-0.32091 -29.38788,0.66496 0,0.1923 0.984733,0.22282 2.653569,0.083 4.412523,-0.36976 6.088788,-0.42287 14.466233,-0.46118 8.068442,-0.0369 8.622956,-0.007 12.583054,0.68263 l 2.139976,0.37275 -0.008,1.58001 c -0.0046,0.86919 -0.381839,2.77534 -0.837931,4.23555 -0.743086,2.37905 -1.004816,2.80097 -2.518485,4.06046 -0.965395,0.80329 -2.330039,1.58053 -3.185221,1.81367 -2.129251,0.58049 -3.379822,1.10682 -3.379822,1.42263 0,0.14989 0.346676,0.18245 0.770391,0.0726 0.423715,-0.10986 1.821815,-0.43713 3.106977,-0.72718 2.522843,-0.56938 3.521102,-1.34129 5.415473,-4.18979 1.15949,-1.74347 1.967617,-7.1807 1.362897,-9.16778 -0.209094,-0.68708 -0.380823,-1.69802 -0.38185,-2.24619 -0.0014,-0.76729 -0.290643,-1.31665 -0.543688,-1.24754 z m 11.785912,1.8399 c 1.633958,-0.0605 3.173789,0.0945 4.493947,0.45203 1.945574,0.52687 2.006862,0.57574 1.952062,1.57393 -0.06636,1.2087 -0.172695,1.23122 -1.940023,0.40874 -0.966023,-0.44958 -2.01827,-0.62469 -3.752982,-0.62469 -2.906221,0 -3.178131,0.45876 -0.44137,0.74426 1.082828,0.11296 2.931767,0.51762 4.108753,0.8992 1.924163,0.62381 2.139976,0.78017 2.139976,1.55501 0,1.00515 -0.346746,1.05748 -2.439573,0.36846 -3.312137,-1.09044 -7.832309,-1.23248 -7.832309,-0.24645 0,0.29969 0.245314,0.38361 0.770392,0.26414 0.891157,-0.20273 6.815451,0.56813 8.238904,1.07186 0.821264,0.29063 0.947475,0.49052 0.85599,1.35613 -0.120979,1.14464 -0.578013,1.20005 -2.664937,0.32515 -1.347667,-0.56498 -6.509962,-1.21678 -7.33878,-0.92666 -1.189165,0.41628 -0.422106,0.77262 2.107208,0.97852 2.822535,0.22976 6.516417,0.97705 7.13615,1.44398 0.205643,0.15493 0.47528,0.18928 0.599193,0.0762 0.12391,-0.11303 0.225365,0.31935 0.225365,0.96082 0,0.96482 -0.10352,1.13813 -0.599192,1.00293 -0.584248,-0.15939 -5.323242,-0.88597 -8.196774,-1.25671 -0.866487,-0.11177 -1.523884,-0.0527 -1.660487,0.14886 -0.34722,0.5125 -0.11674,0.58474 2.434891,0.765 2.863931,0.2023 7.255567,0.91053 7.600922,1.22558 0.137369,0.12531 0.272034,0.60275 0.299597,1.06086 0.119034,1.97775 0.451263,3.56665 0.833922,3.98726 0.226478,0.24892 0.334908,0.52295 0.240749,0.60883 -0.09416,0.0858 -0.350391,-0.0409 -0.5691,-0.28123 -0.218709,-0.2404 -1.049602,-0.5342 -1.846398,-0.65275 -1.647216,-0.24509 -10.532729,-0.24502 -12.012619,0 l -0.976363,0.16166 0.719566,-0.83514 c 0.395957,-0.4592 0.720237,-1.08172 0.720237,-1.38359 0,-0.48484 0.469247,-0.56434 4.023153,-0.68265 2.212734,-0.0736 4.177232,-0.037 4.36555,0.0812 0.637195,0.39979 3.877187,0.63906 4.104739,0.30319 0.120072,-0.17723 0.01596,-0.37373 -0.231384,-0.4368 -3.779275,-0.96345 -10.10248,-1.23181 -11.111152,-0.47156 -0.524606,0.39539 -0.553915,0.35011 -0.324342,-0.50268 0.138739,-0.51537 0.456099,-2.41286 0.705524,-4.21664 0.27993,-2.02435 0.897948,-4.4153 1.614343,-6.24686 l 1.160939,-2.96727 z m 20.699579,0.82356 c -1.614144,-0.0407 -2.668949,0.20117 -2.668949,0.66678 0,0.32448 0.40628,0.47148 1.369583,0.49475 0.753272,0.0182 3.834836,0.13383 6.847927,0.25744 3.013086,0.12361 6.942086,0.27784 8.731096,0.34224 1.78902,0.0644 4.63947,0.33556 6.33433,0.60272 1.69486,0.26717 4.07368,0.48796 5.28641,0.49108 1.21273,0.003 3.06166,0.14797 4.10875,0.3221 1.04709,0.17415 3.59877,0.53484 5.67027,0.80161 11.96784,1.54122 13.98063,1.88716 15.32155,2.63296 0.61238,0.3406 1.46013,0.61979 1.88384,0.62042 0.64955,9.3e-4 0.7704,-0.16666 0.7704,-1.07063 0,-0.78846 -0.17669,-1.12376 -0.66741,-1.26585 -0.65239,-0.18888 -0.65299,-0.20594 -0.0254,-0.77842 0.73602,-0.67141 0.56914,-1.8477 -0.29624,-2.08696 -0.30343,-0.0839 -0.81923,-0.28243 -1.14623,-0.44168 -0.32701,-0.15925 -1.09739,-0.27371 -1.71198,-0.25378 -0.67857,0.022 -0.84852,0.0908 -0.43268,0.17448 0.37664,0.0758 1.17546,0.36715 1.77485,0.64787 0.89834,0.42074 1.03069,0.61058 0.75434,1.0816 -0.18437,0.31429 -0.24171,0.70962 -0.12773,0.87786 0.47557,0.70195 -8.05809,0.10739 -11.64615,-0.81135 -1.53625,-0.39337 -11.64507,-1.62603 -13.35345,-1.62822 -0.37663,-6.2e-4 -4.22859,-0.23092 -8.55989,-0.51183 -4.33132,-0.28092 -9.33886,-0.57083 -11.12787,-0.6442 -1.789032,-0.0734 -4.177244,-0.24592 -5.307151,-0.38372 -0.644013,-0.0786 -1.244151,-0.12371 -1.782199,-0.13727 z m -48.550018,2.78182 c -10.011831,0.0506 -17.361272,0.42179 -17.529072,0.88456 -0.121446,0.33491 6.019949,0.31302 7.021794,-0.0251 0.523664,-0.17669 14.100279,-0.18456 17.868792,-0.0103 1.412384,0.0652 3.030205,0.2581 3.595158,0.42826 1.308299,0.39401 3.157547,0.45526 2.721783,0.0903 -0.178902,-0.14984 -1.480597,-0.528 -2.89298,-0.84064 -2.152302,-0.47644 -3.89811,-0.56195 -10.785475,-0.52708 z m 46.090385,1.18715 c -1.82066,0.023 -2.578454,0.14589 -2.829448,0.37517 -0.341892,0.31231 0.66568,0.40368 5.03429,0.45692 3.00367,0.0366 6.231345,0.10787 7.172938,0.15861 0.94159,0.0508 4.48539,0.23267 7.8751,0.40386 3.38973,0.17117 7.39576,0.4162 8.9023,0.54477 3.72947,0.31826 5.30714,0.34763 5.30714,0.0983 0,-0.69721 -6.41537,-1.22034 -22.25573,-1.81489 -4.502198,-0.16899 -7.385929,-0.24576 -9.20659,-0.22266 z m -49.037532,1.42933 c -1.787006,-0.0131 -3.881394,0.008 -6.395183,0.0568 -8.570209,0.16466 -10.632787,0.37111 -9.948878,0.99499 0.09898,0.0903 1.629574,0.033 3.401223,-0.1275 1.771648,-0.16053 6.534013,-0.29634 10.582846,-0.30136 6.575726,-0.008 7.726998,0.07 10.785475,0.73145 5.056303,1.09356 6.140222,1.05312 2.396772,-0.0897 -2.865382,-0.87474 -5.461241,-1.22554 -10.822255,-1.26463 z m 81.345812,0.36907 c -0.83485,0.0779 -0.762,0.46094 0.60923,0.67105 10.32797,1.58262 12.81286,2.0227 14.29503,2.52987 0.65911,0.22554 1.96877,0.5713 2.91036,0.76865 0.94159,0.19736 2.40534,0.68613 3.25276,1.0865 2.02397,0.95621 2.87785,0.88533 3.02072,-0.25135 0.14969,-1.1909 -0.46131,-1.79135 -1.60967,-1.58184 -0.50921,0.0929 -1.68965,0.0321 -2.62347,-0.13543 -0.93384,-0.16753 -3.62392,-0.65556 -5.97789,-1.08466 -3.89092,-0.70926 -8.4399,-1.40892 -12.75425,-1.9613 -0.46559,-0.0595 -0.84454,-0.0675 -1.12282,-0.0415 z M 5.0134335,135.18941 c 0.013959,0.042 0.02549,0.0635 0.039456,0.10432 0.00239,-0.003 0.00498,-0.005 0.00736,-0.008 -0.015588,-0.032 -0.031179,-0.0639 -0.046812,-0.0958 z m 33.3047025,0.96447 c -0.957504,-0.0172 -1.932276,-0.0158 -2.900335,0.005 -1.290748,0.0275 -2.569957,0.0894 -3.782407,0.18727 -6.2767,0.50696 -6.806868,0.56004 -7.428389,0.74 -1.246741,0.36097 -0.568229,0.69119 1.179662,0.57405 2.185124,-0.14645 9.749783,-0.50927 10.699875,-0.51305 0.560982,-0.002 3.556441,0.0299 5.991932,0.064 1.070805,0.015 2.930354,0.23654 3.42396,0.40812 0.282476,0.0983 0.975828,0.31926 1.540782,0.49108 1.398297,0.42542 2.040859,0.42531 3.065513,-6.2e-4 1.290226,-0.53626 1.06151,-0.88637 -0.583142,-0.89249 -0.800351,-0.003 -2.456691,-0.19476 -3.680757,-0.42642 -1.934798,-0.36618 -4.654183,-0.58519 -7.526694,-0.63689 z m 47.583017,2.97643 c -0.223078,-0.0496 -0.338383,0.0851 -0.338383,0.40691 0,0.64945 1.982671,2.05828 2.896993,2.05828 0.47227,0 1.02414,0.32491 1.370918,0.80771 0.682085,0.94962 1.040409,0.79727 0.73495,-0.31296 -0.157841,-0.57368 -0.579107,-0.88332 -1.570207,-1.1542 -0.744732,-0.20355 -1.694378,-0.70068 -2.11055,-1.10481 -0.429789,-0.41732 -0.760643,-0.65132 -0.983721,-0.70093 z m 3.27082,0.18851 c -0.51233,0.0138 -0.892099,0.055 -0.99442,0.13055 -0.162491,0.11985 -0.215895,0.33507 -0.119038,0.47888 0.227365,0.33759 5.379364,0.14071 5.379364,-0.20558 0,-0.24239 -2.728924,-0.44519 -4.265906,-0.40385 z m -54.221624,1.19384 c -4.909561,-0.0104 -9.982851,0.0893 -10.395598,0.3087 -0.383026,0.2036 2.798017,0.29032 9.524227,0.25927 5.554524,-0.0257 10.183126,-0.1234 10.285923,-0.21718 0.24091,-0.21977 -4.50499,-0.34037 -9.414552,-0.35079 z m -12.979618,0.80771 c -0.182694,0 -0.482007,0.0918 -0.949614,0.27513 -0.606811,0.23787 -0.577569,0.27094 0.256797,0.29039 0.517874,0.0121 0.941589,-0.1186 0.941589,-0.29039 0,-0.1833 -0.06608,-0.27513 -0.248772,-0.27513 z m -2.845499,0.62896 c -0.209861,-0.0292 -0.557137,-0.0208 -1.048587,0.0335 -0.828567,0.0917 -1.963923,0.33088 -2.522496,0.53197 -0.808744,0.29113 -0.913347,0.42515 -0.513594,0.65578 0.634755,0.36624 0.433615,0.38355 2.412153,-0.2068 1.691691,-0.50475 2.30211,-0.927 1.672524,-1.0145 z m 57.545273,2.45727 c 0.147627,0 0.187434,0.28111 0.08894,0.62468 -0.183127,0.63883 -0.494145,0.78457 -0.894776,0.41911 -0.249141,-0.22728 0.381241,-1.04379 0.805836,-1.04379 z m -22.265775,0.31234 c 0.188318,0 0.342396,0.14056 0.342396,0.31234 0,0.1718 -0.154078,0.31235 -0.342396,0.31235 -0.188317,0 -0.342395,-0.14055 -0.342395,-0.31235 0,-0.17178 0.154078,-0.31234 0.342395,-0.31234 z m 28.076475,0 c 0.188318,0 0.342397,0.13239 0.342397,0.29404 0,0.16165 -0.154079,0.38064 -0.342397,0.48681 -0.188318,0.10618 -0.342395,-0.0263 -0.342395,-0.29404 0,-0.26782 0.154077,-0.48681 0.342395,-0.48681 z m -12.778996,0.0274 c 0.158211,-0.0317 0.400835,0.0513 0.738291,0.24647 0.364316,0.21066 0.341252,0.30437 -0.113686,0.46363 -0.796684,0.27887 -0.856658,0.25988 -0.856658,-0.26904 0,-0.2629 0.07385,-0.40929 0.232053,-0.44106 z m -13.434361,0.13361 c 0.09309,-0.0222 0.221219,-0.011 0.362457,0.0384 0.282476,0.0989 0.513594,0.23507 0.513594,0.30259 0,0.0676 -0.231118,0.12262 -0.513594,0.12262 -0.282477,0 -0.513594,-0.13618 -0.513594,-0.30259 0,-0.0832 0.05804,-0.13879 0.151137,-0.16104 z m -7.170256,0.15128 c 0.282476,0 0.513594,0.14056 0.513594,0.31235 0,0.17178 0.346676,0.31664 0.770391,0.32209 0.751117,0.009 0.753668,0.0214 0.10566,0.46853 -0.928257,0.64047 -2.385261,0.61608 -2.111217,-0.0354 0.114309,-0.27173 0.207978,-0.62311 0.207978,-0.78085 0,-0.15774 0.231117,-0.28673 0.513594,-0.28673 z m 61.953628,0 c 1.12668,0 1.32532,0.40264 0.51225,1.03769 -0.93761,0.73235 -1.34818,0.654 -1.34818,-0.25683 0,-0.61964 0.17269,-0.78086 0.83593,-0.78086 z m -65.299344,0.0177 c 0.160834,-0.0105 0.393601,0.0669 0.681447,0.23364 0.292905,0.16979 0.327249,0.51859 0.115024,1.16703 l -0.30227,0.92422 -0.02941,-0.85895 c -0.01623,-0.47238 -0.183517,-0.85892 -0.371835,-0.85892 -0.188318,0 -0.342396,-0.14057 -0.342396,-0.31235 0,-0.18561 0.0886,-0.28417 0.249442,-0.29466 z m 76.250664,0.1153 c 0.384,-0.0357 0.8814,0.353 0.8814,0.83759 0,0.3252 -0.11555,0.58608 -0.25679,0.57955 -0.45659,-0.0211 -1.15403,-0.92433 -0.94828,-1.22802 0.0802,-0.11838 0.19567,-0.17724 0.32367,-0.18912 z m -49.635391,0.003 c 0.02201,0.0121 0.04513,0.0446 0.06888,0.0983 0.09499,0.21473 0.557732,0.39043 1.028527,0.39043 0.508589,0 0.80143,0.15053 0.720901,0.37092 -0.315504,0.86343 -1.98639,0.45869 -1.949384,-0.47219 0.01117,-0.28044 0.06503,-0.42382 0.131077,-0.38738 z m 28.261061,0.0201 c 0.18831,-0.10617 0.34239,0.0263 0.34239,0.29405 0,0.26782 -0.15408,0.48681 -0.34239,0.48681 -0.18833,0 -0.34241,-0.13239 -0.34241,-0.29404 0,-0.16166 0.15408,-0.38065 0.34241,-0.48682 z m 12.6633,0.003 c 0.19138,-0.1079 0.34774,0.0231 0.34774,0.29099 0,0.54864 -0.20537,0.62905 -0.49888,0.19582 -0.10835,-0.15992 -0.0402,-0.37891 0.15114,-0.48681 z m -104.6822494,0.002 c 0.1798216,0.0433 0.256797,0.29068 0.256797,0.78512 0,1.1218 -0.060597,1.13975 -0.5570622,0.16289 -0.3053769,-0.60088 -0.2874833,-0.79423 0.085599,-0.92483 0.083841,-0.0294 0.1547258,-0.0376 0.2146663,-0.0231 z m 96.4774494,0.26048 c 0.43841,0.004 0.37714,0.28171 -0.14177,0.90531 -0.55596,0.66811 -0.69121,0.67603 -1.24186,0.0707 -0.51065,-0.56128 -0.45871,-0.62143 0.77707,-0.89189 0.25865,-0.0566 0.46041,-0.0855 0.60656,-0.0842 z m -11.5532,0.008 c 0.036,-0.0328 0.08378,0.0108 0.138427,0.13542 0.09892,0.22547 0.08638,0.49467 -0.02743,0.59846 -0.113775,0.10379 -0.194754,-0.0806 -0.179895,-0.40995 0.0083,-0.18193 0.03287,-0.2911 0.06888,-0.32393 z m -68.237792,0.0409 c 0.191389,-0.10791 0.347745,0.0231 0.347745,0.29098 0,0.54865 -0.205365,0.62906 -0.498882,0.19584 -0.108344,-0.15993 -0.04025,-0.37892 0.151137,-0.48682 z m 11.678914,0.05 c 0.05577,0.0174 0.106739,0.0561 0.149798,0.11956 0.136364,0.20128 0.09727,0.45528 -0.08693,0.56491 -0.184207,0.10964 -0.406365,0.40314 -0.494201,0.65213 -0.137498,0.38979 -0.187068,0.38823 -0.35577,-0.0128 -0.227241,-0.5402 0.396717,-1.44633 0.787109,-1.32379 z m -24.382342,0.10311 c 0.166354,0 0.383002,0.2811 0.481494,0.62468 0.211452,0.73763 -0.274106,0.84772 -0.575786,0.13055 -0.275816,-0.65567 -0.263672,-0.75523 0.09429,-0.75523 z m 22.027701,0.0299 c 0.04934,-0.0124 0.138489,0.11434 0.30294,0.37213 0.195921,0.3071 0.303741,0.7024 0.23941,0.87846 -0.182947,0.50067 -0.61745,-0.0627 -0.605881,-0.78574 0.0048,-0.30041 0.01419,-0.45243 0.06353,-0.46485 z m 43.668869,0.0141 c 0.149271,-0.002 0.272086,0.0237 0.332364,0.0787 0.399443,0.36438 -0.401979,0.80166 -0.926876,0.50573 -0.425054,-0.23964 -0.409619,-0.3147 0.102986,-0.49414 0.166203,-0.0581 0.342256,-0.0882 0.491526,-0.0903 z m 55.92291,0.14337 c 0.19874,0.0411 0.29926,0.20557 0.12773,0.45876 -0.10835,0.1599 -0.43785,0.29098 -0.73227,0.29098 -0.43525,0 -0.45638,-0.0866 -0.11235,-0.46485 0.22104,-0.24296 0.51814,-0.32592 0.71689,-0.28489 z m -81.196684,0.12506 c 0.177203,0 0.417268,0.14055 0.533655,0.31234 0.116387,0.17179 -0.02873,0.31234 -0.322335,0.31234 -0.293591,0 -0.533656,-0.14055 -0.533656,-0.31234 0,-0.17179 0.145132,-0.31234 0.322336,-0.31234 z m 15.750217,0 c 0.38775,0 0.704853,0.0551 0.704853,0.12261 0,0.29631 -1.025041,0.44599 -1.207747,0.17631 -0.111306,-0.16429 0.115145,-0.29892 0.502894,-0.29892 z m -36.648414,0.0597 c 0.55757,0.0146 1.231665,0.20916 1.022506,0.37213 -0.07403,0.0577 -0.558132,0.19779 -1.076006,0.31113 -0.995366,0.21783 -1.351674,-0.30685 -0.427995,-0.63017 0.122943,-0.043 0.295637,-0.0579 0.481495,-0.0531 z m 84.741681,0.10676 c 0.12215,0.007 0.19694,0.0407 0.19394,0.097 -0.0224,0.42175 -0.92183,1.28081 -1.13619,1.08527 -0.44101,-0.4023 -0.20947,-0.96654 0.4621,-1.12676 0.18831,-0.0448 0.35801,-0.0631 0.48015,-0.0556 z m -59.230503,0.005 c 0.54892,-0.008 1.062695,0.16032 1.141545,0.37518 0.08791,0.23951 -0.05257,0.32185 -0.363796,0.21291 -0.279162,-0.0977 -0.609287,-0.0273 -0.73361,0.15617 -0.285374,0.42125 -0.870703,0.4356 -0.870703,0.0213 0,-0.17178 -0.03852,-0.41082 -0.0856,-0.53134 -0.04708,-0.12053 0.363245,-0.22594 0.912164,-0.23426 z m -38.870643,0.10921 c 0.06607,-0.006 0.147349,0.0276 0.23941,0.11163 0.110807,0.10101 0.144858,0.44054 0.07557,0.75463 -0.119921,0.54355 -0.138027,0.54275 -0.380515,-0.0202 -0.193873,-0.45001 -0.132681,-0.8274 0.06553,-0.84612 z m 10.481198,0.0317 c 0.282477,0 0.513594,0.14054 0.513594,0.31233 0,0.1718 -0.231117,0.31234 -0.513594,0.31234 -0.282477,0 -0.513594,-0.14054 -0.513594,-0.31234 0,-0.17179 0.231117,-0.31233 0.513594,-0.31233 z m 77.931888,0 c 0.16817,0 0.30561,0.21082 0.30561,0.46851 0,0.25767 -0.22632,0.46851 -0.50289,0.46851 -0.30645,0 -0.42567,-0.18312 -0.30562,-0.46851 0.1084,-0.25769 0.33472,-0.46851 0.5029,-0.46851 z m -9.583753,0.0939 c 0.458759,0.0258 0.987062,0.3395 0.987062,0.68385 0,0.21928 -0.385195,0.46573 -0.85599,0.54783 -0.656955,0.11455 -0.85599,0.0184 -0.85599,-0.41361 0,-0.30962 0.14031,-0.64157 0.311635,-0.73816 0.11533,-0.065 0.260361,-0.0885 0.413283,-0.0799 z m -83.485785,0.002 c 0.07582,-0.0175 0.204302,0.0567 0.41462,0.21589 0.282477,0.21386 0.513594,0.4421 0.513594,0.50696 0,0.0648 -0.231117,0.11774 -0.513594,0.11774 -0.282477,0 -0.513594,-0.22823 -0.513594,-0.50695 0,-0.20752 0.02316,-0.31628 0.09898,-0.3337 z m 46.466887,0.0596 c 0.188318,-0.10618 0.342396,0.0263 0.342396,0.29403 0,0.26783 -0.154078,0.48682 -0.342396,0.48682 -0.188318,0 -0.342396,-0.13239 -0.342396,-0.29404 0,-0.16166 0.154078,-0.38064 0.342396,-0.48681 z m -56.1475999,0.003 c 0.1913896,0.1079 0.2594804,0.32689 0.1511357,0.48681 -0.2935155,0.43302 -0.4988817,0.35275 -0.4988817,-0.1959 0,-0.26782 0.1563564,-0.39889 0.347746,-0.29099 z m 38.5142039,0.15304 c 0.304706,0 0.458783,0.14056 0.342396,0.31235 -0.116387,0.17178 -0.270465,0.31234 -0.342396,0.31234 -0.07193,0 -0.226008,-0.14056 -0.342396,-0.31234 -0.116387,-0.17179 0.0377,-0.31235 0.342396,-0.31235 z m 23.796525,0.31235 c 0.188317,0 0.342396,0.13239 0.342396,0.29403 0,0.16166 -0.154079,0.38066 -0.342396,0.48684 -0.188318,0.10615 -0.342396,-0.0263 -0.342396,-0.29406 0,-0.26782 0.154078,-0.48681 0.342396,-0.48681 z m -21.637156,0.14763 c 0.10542,0.0962 6.85e-4,0.34875 -0.233391,0.56063 -0.338158,0.30619 -0.377742,0.27007 -0.19193,-0.17509 0.12858,-0.30803 0.3199,-0.4817 0.425321,-0.38554 z m 46.254897,0.14702 c 0.0714,-0.007 0.154403,0.023 0.241416,0.1025 0.113775,0.10379 0.14216,0.36619 0.06286,0.5832 -0.115976,0.31741 -0.196895,0.31725 -0.412615,-0.001 -0.214175,-0.31613 -0.105879,-0.66423 0.108338,-0.68447 z m -42.462461,0.0176 c 0.188318,0 0.437333,0.14056 0.55372,0.31234 0.116387,0.1718 0.05725,0.31235 -0.131072,0.31235 -0.188318,0 -0.437333,-0.14055 -0.55372,-0.31235 -0.116387,-0.17178 -0.05725,-0.31234 0.131072,-0.31234 z m 7.467179,0.31722 c 0.224283,-0.002 0.502867,0.13567 0.619254,0.30747 0.26272,0.38779 0.14419,0.38779 -0.513594,0 -0.308598,-0.18193 -0.350682,-0.30465 -0.10566,-0.30747 z" />
    <g
       aria-label="IX"
       id="text1021"
       style="font-size:40px;line-height:1.25;font-family:Hultog;-inkscape-font-specification:Hultog"
       transform="matrix(0.34239604,0,0,0.31234353,3.045325,0.72856621)">
      <path
         d="m 76.484991,314.47433 q -0.415902,2.47095 -1.46789,2.2263 l -4.525994,-1.02752 q 0,0 -3.327217,0.31804 -0.954129,0.66055 -1.663609,0.66055 -1.003058,0 -1.565749,-1.46789 l 1.247706,-1.8104 q 0.587156,0.19572 1.223242,0.19572 2.103975,0 2.103975,-3.40061 0,-0.66055 -0.09786,-1.98165 -0.09786,-1.3211 -0.09786,-1.98165 0,-1.93272 0.09786,-5.82263 0.09786,-3.88991 0.09786,-5.82263 0,-1.66361 -0.978593,-2.61774 -0.66055,0.24465 -1.321101,0.24465 -1.149847,0 -1.932721,-0.92967 0.415902,-2.44648 1.443425,-2.22629 l 4.477064,0.97859 4.256881,-1.02752 1.761468,0.90519 -0.513762,1.76147 q -0.489297,-0.12232 -0.831804,-0.12232 -2.250765,0 -2.250765,3.84098 0,0.39143 0.02447,1.02752 0.02446,0.61162 0.02446,0.8318 0,1.61468 -0.09786,15.43731 l 1.027523,1.10092 q 0.66055,-0.22018 1.198776,-0.22018 1.076453,0 1.688074,0.92966 z"
         id="path1697" />
      <path
         d="m 103.98346,314.0095 q -0.51376,2.71559 -1.54128,2.42202 l -3.571868,-1.00306 q -4.305811,0 -4.892967,1.24771 l -1.663608,-1.17432 q 0.954128,-2.07951 2.17737,-2.07951 0.293578,0 0.562691,0.0979 0.244648,-0.22018 0.244648,-0.56269 0,-0.51376 -0.538226,-1.39449 -1.712538,-1.22325 -4.501529,-6.77676 h -0.171254 q -0.513761,-0.0245 -0.75841,0.46483 -2.495413,5.33333 -4.452599,7.16819 l 0.195719,0.88074 q 2.226299,0.29358 2.226299,1.8104 0,0.61162 -0.415902,1.59021 -0.905199,-0.70948 -1.785933,-0.88073 -0.366972,-0.0489 -1.981651,-0.0489 -3.082569,0 -4.525994,0.73394 l -1.051988,-0.58715 v -1.93273 l 2.88685,-0.73394 q 0.685016,-0.17126 6.948013,-9.17431 1.247706,-0.39144 1.247706,-1.17432 0,-0.78287 -0.905199,-1.49235 -1.247706,-1.02752 -1.37003,-1.19878 -0.782875,-1.07645 -2.103976,-3.40061 -1.321101,-2.32416 -2.07951,-3.37615 0,0 -1.834863,-1.63914 l -3.278287,-0.73394 0.978593,-2.10398 5.357798,0.68502 3.009174,-0.68502 1.370031,0.46483 v 1.66361 q -1.688073,0.31804 -1.663609,1.37003 v 0.17126 l 4.648319,6.87461 0.758409,-0.19572 q 0.929664,-3.57186 3.474006,-5.99388 v -1.24771 l -1.883792,-0.68501 -0.415902,-1.85933 1.051988,-0.53822 3.914373,0.66055 q 1.663609,-0.58716 2.88685,-0.58716 1.49235,0 1.8104,1.00306 -0.80734,2.1529 -3.18043,2.1529 -1.859328,2.42202 -3.718655,4.84404 -2.788991,3.74312 -3.107033,4.89297 1.541284,1.76146 4.403669,5.33333 0.489297,1.07645 1.614679,3.0581 0.954129,1.00306 2.78899,2.93578 z"
         id="path1699" />
    </g>
  </g>
</svg>
