<?xml version="1.0" encoding="UTF-8" standalone="no"?>
<!-- Created with Inkscape (http://www.inkscape.org/) -->

<svg
   version="1.1"
   id="svg2"
   width="4cm"
   height="4cm"
   viewBox="0 0 151.1811 151.1811"
   sodipodi:docname="16.svg"
   inkscape:version="1.1.2 (0a00cf5339, 2022-02-04)"
   xmlns:inkscape="http://www.inkscape.org/namespaces/inkscape"
   xmlns:sodipodi="http://sodipodi.sourceforge.net/DTD/sodipodi-0.dtd"
   xmlns="http://www.w3.org/2000/svg"
   xmlns:svg="http://www.w3.org/2000/svg">
  <defs
     id="defs6" />
  <sodipodi:namedview
     id="namedview4"
     pagecolor="#505050"
     bordercolor="#eeeeee"
     borderopacity="1"
     inkscape:pageshadow="0"
     inkscape:pageopacity="0"
     inkscape:pagecheckerboard="0"
     showgrid="false"
     inkscape:zoom="2.5772408"
     inkscape:cx="87.690681"
     inkscape:cy="108.83733"
     inkscape:window-width="1920"
     inkscape:window-height="1043"
     inkscape:window-x="0"
     inkscape:window-y="0"
     inkscape:window-maximized="1"
     inkscape:current-layer="svg2"
     units="cm"
     inkscape:document-units="cm" />
  <!-- Border -->
  <path
     id="border"
     class="board-border"
     style="fill:none;stroke:#000000;stroke-width:0.1cm"
     d="M 0,0 H 151.18111 V 151.18111 H 0 Z" />
  <g
     inkscape:groupmode="layer"
     inkscape:label="Image"
     id="g8">
    <path
       id="path12"
       style="fill:#000000;stroke-width:0.382172"
       d="m 2.9851486,2.4614502 c -0.2331085,0 -0.423664,0.1642244 -0.423664,0.3649431 0,0.2007187 0.079589,0.3649431 0.1766569,0.3649431 0.097068,0 0.2876238,-0.1642244 0.4236641,-0.3649431 C 3.2978458,2.6256746 3.218257,2.4614502 2.9851486,2.4614502 Z M 37.956974,6.4915054 c -0.207428,0.00869 -1.367293,1.2460748 -2.577941,2.7499031 -1.210647,1.5038285 -3.056634,3.6968805 -4.102193,4.8732735 -1.045559,1.176392 -1.901017,2.312416 -1.901017,2.523951 0,0.211535 -0.237391,0.515915 -0.527625,0.676428 -0.290235,0.160513 -1.183255,1.194761 -1.984656,2.298714 -0.8014,1.103953 -2.451558,3.040314 -3.666804,4.30305 -2.214771,2.301321 -4.475971,5.09644 -5.228577,6.462771 -0.221121,0.401437 -0.970982,0.976223 -1.666516,1.277301 -0.83385,0.360951 -1.34236,0.891987 -1.491423,1.558848 -0.124337,0.556246 -0.689162,1.45948 -1.255359,2.007187 -0.845841,0.818221 -0.974198,1.191021 -0.721479,2.090583 0.169167,0.602156 0.340606,10.619844 0.381454,22.261528 0.129479,36.901844 0.08994,35.002976 0.74493,35.785804 0.438025,0.523519 0.677475,0.592059 0.916896,0.263019 0.178185,-0.244885 0.355023,-13.280517 0.393179,-28.968785 0.03816,-15.688268 0.165727,-28.612405 0.283746,-28.720023 0.118019,-0.107617 0.35003,-0.07282 0.515119,0.07769 0.346324,0.31575 0.385476,2.78205 0.708191,44.553705 0.131808,17.06109 0.368069,32.251847 0.524499,33.757237 0.327756,3.15413 0.217483,4.01438 -0.512774,4.01438 -1.306795,0 -1.41891,-0.95303 -1.400749,-11.86208 0.01792,-10.763285 -0.151189,-12.250246 -1.273337,-11.226993 -0.319371,0.291224 -0.425384,3.248933 -0.359568,10.017403 0.08547,8.78968 0.199361,13.26125 0.353314,13.84218 0.03251,0.12266 2.715828,0.24673 5.962564,0.27585 3.246736,0.0291 8.964793,0.12786 12.706794,0.21953 6.317212,0.15476 21.541951,0.28514 25.913857,0.22168 1.045559,-0.0152 1.901017,-0.16748 1.901017,-0.33786 0,-0.17038 -2.746469,-0.42249 -6.103264,-0.56025 -3.356795,-0.13775 -7.003745,-0.32839 -8.104333,-0.4241 -1.100589,-0.0957 -5.693045,-0.27268 -10.205458,-0.39274 -4.512412,-0.12006 -9.465061,-0.25983 -11.005885,-0.31077 -1.540824,-0.051 -3.701979,-0.11466 -4.802568,-0.14184 l -2.00107,-0.0492 v -5.93103 c 0,-3.26179 -0.08178,-11.84241 -0.181347,-19.068285 -0.177239,-12.862773 -0.164665,-13.136407 0.600321,-13.065959 8.831787,0.81332 10.315172,0.89344 25.795044,1.391346 3.411824,0.109742 7.103798,0.282462 8.204387,0.384187 5.978384,0.552563 6.941059,0.536542 7.129592,-0.119746 0.1,-0.348104 0.20868,2.158865 0.241537,5.571083 0.03286,3.412218 0.126804,8.421062 0.208704,11.130764 0.0819,2.70971 0.190954,8.047 0.242317,11.86065 0.121181,8.99738 0.247785,10.03594 1.224875,10.03594 0.775571,0 1.055681,-0.57114 0.387708,-0.79047 -0.346013,-0.11362 -1.030239,-28.189187 -1.030239,-42.272819 0,-5.860001 0.02273,-6.024455 0.849674,-6.13204 0.846077,-0.110078 0.84951,-0.07485 0.800428,8.211219 -0.05759,9.720759 0.190934,14.525731 0.751182,14.525731 0.220118,0 0.458069,-0.369504 0.528406,-0.821122 0.163604,-1.050423 1.057294,-1.059083 5.603781,-0.05275 3.589143,0.794438 4.328799,1.114212 3.931786,1.699978 -0.138758,0.20473 -1.565197,0.07858 -3.547208,-0.314336 -4.05637,-0.804145 -5.407104,-0.845789 -6.129058,-0.187461 -0.769007,0.701235 -0.667137,25.76513 0.104744,25.76769 0.270953,7.3e-4 0.610679,-0.42545 0.754308,-0.94728 0.258686,-0.93986 0.28927,-0.94685 3.308801,-0.76054 1.676536,0.10345 3.543771,0.30264 4.149094,0.44335 1.687987,0.39238 1.320262,-0.38432 -0.400214,-0.84536 -0.825441,-0.22119 -2.716452,-0.44848 -4.202247,-0.50536 -2.530397,-0.0969 -2.701444,-0.15727 -2.701444,-0.95441 0,-0.46807 0.16095,-0.76039 0.358003,-0.64934 0.19705,0.11105 0.461599,-0.0436 0.587815,-0.34356 0.299588,-0.71191 2.059397,-0.69813 5.8586,0.0463 l 3.020367,0.59232 0.115686,3.14835 c 0.06377,1.73185 0.244707,4.1344 0.401779,5.33871 0.157072,1.20432 0.280366,3.69639 0.274363,5.5383 -0.01265,3.87441 -0.472925,4.72028 -3.502653,6.43854 -1.990164,1.12869 -6.874004,2.42218 -9.182254,2.432 -2.264839,0.01 -2.734274,0.29964 -2.734274,1.68786 0,0.68104 0.180096,1.2381 0.400214,1.2381 0.220118,0 0.400214,-0.39044 0.400214,-0.86745 0,-0.82411 0.194284,-0.88903 3.902086,-1.30154 2.956101,-0.32888 4.654025,-0.75191 7.003745,-1.74488 1.705913,-0.7209 3.101659,-1.44895 3.101659,-1.61801 0,-0.16907 0.270144,-0.30721 0.600321,-0.30721 0.330177,0 0.600321,0.15281 0.600321,0.34 0,0.18719 0.360193,0.44495 0.800428,0.57236 0.440235,0.12741 0.800428,0.47708 0.800428,0.77693 0,0.43692 0.347154,0.49742 1.748591,0.30578 1.699281,-0.23236 1.76149,-0.20569 2.201177,0.94444 0.634215,1.65897 0.566951,2.23276 -0.247788,2.11053 -0.385206,-0.0578 -0.904152,0.0114 -1.152961,0.15397 -0.248809,0.14253 -1.597666,-0.0834 -2.997695,-0.50252 -1.824059,-0.54604 -3.056774,-0.69877 -4.349982,-0.53743 -2.154084,0.26874 -5.177488,1.23543 -5.993049,1.91595 -0.502997,0.41972 -0.429865,0.48897 0.513555,0.48897 0.604535,0 1.745509,-0.24634 2.535732,-0.54742 1.641718,-0.6255 4.879513,-0.70211 8.273172,-0.1953 2.682834,0.40066 4.639413,0.14983 4.970626,-0.63722 0.243934,-0.57966 -1.022803,-4.37352 -1.561771,-4.67726 -0.17537,-0.0988 -1.070285,0.005 -1.988564,0.23022 -1.531483,0.37605 -1.745485,0.33973 -2.587319,-0.43978 -0.902823,-0.83597 -0.911103,-0.91782 -0.504958,-5.04862 0.547941,-5.57301 -0.369142,-16.15417 -1.831448,-21.13676 -0.851759,-2.90226 -0.941779,-3.68205 -0.592504,-5.10279 0.226721,-0.92224 0.383981,-3.15447 0.349402,-4.96094 -0.09582,-5.004057 2.140733,-12.967254 3.805944,-13.54994 0.662262,-0.231735 5.615702,0.775373 7.701774,1.565978 0.73693,0.279291 2.767896,0.488254 4.747851,0.488254 h 3.459662 l -0.276708,1.733479 c -0.390601,2.445291 -3.621549,7.37038 -6.92949,10.563389 -2.358617,2.27667 -1.79237,3.73849 1.455467,3.75564 0.519117,0.003 2.83628,0.58853 5.148849,1.30153 2.312564,0.713 4.291459,1.21662 4.397663,1.11978 0.409299,-0.37323 -4.304189,-2.14479 -9.400338,-3.53325 -1.731594,-0.47178 -2.069243,-1.16866 -0.658168,-1.35856 0.649399,-0.0874 5.775428,1.33045 8.327893,2.30371 0.535666,0.20425 0.704989,0.15162 0.583124,-0.18176 -0.162335,-0.44408 -5.178961,-2.22697 -7.70803,-2.73921 l -1.167028,-0.23593 0.966921,-0.87173 0.966925,-0.87244 2.694409,0.68712 c 1.482056,0.37772 2.791201,0.54526 2.908587,0.37207 0.285381,-0.42107 -0.01857,-0.55209 -2.601391,-1.11907 -1.210647,-0.26575 -2.255438,-0.51434 -2.321553,-0.5524 -0.06612,-0.0381 0.609246,-1.018395 1.500802,-2.178969 0.891557,-1.160574 1.621179,-2.329567 1.621179,-2.597369 0,-0.267803 0.165737,-0.486827 0.368165,-0.486827 0.374604,0 1.229682,2.146372 2.035465,5.109205 1.150507,4.23036 3.374496,9.7679 4.394532,10.94116 0.61428,0.70655 2.02331,1.94133 3.13136,2.7442 1.77025,1.28269 3.16905,2.95788 2.7718,3.32013 -0.18291,0.16679 -4.50755,-1.07613 -6.49801,-1.86748 -1.724633,-0.68567 -6.937768,-1.35294 -7.600151,-0.97295 -0.222279,0.12752 0.226213,0.34122 0.996625,0.47471 4.354841,0.75459 5.871476,1.14036 8.499856,2.16258 1.86256,0.72438 3.28725,1.06139 3.96774,0.93873 0.87701,-0.15808 1.10495,-0.036 1.30852,0.70351 0.13551,0.49237 1.46233,2.02171 2.94845,3.39854 2.92591,2.71073 4.88089,5.88008 6.74345,10.93047 1.24477,3.37527 1.56721,6.13546 1.02789,8.80639 -0.2203,1.09109 -0.31032,2.1996 -0.19933,2.46336 0.32493,0.77213 2.64951,0.55521 4.03419,-0.37634 1.55416,-1.04557 2.57275,-2.23059 3.2619,-3.79698 0.28701,-0.65234 0.67971,-1.18607 0.87313,-1.18607 0.19341,0 0.35175,-0.59511 0.35175,-1.3222 0,-1.1309 -0.0861,-1.25637 -0.5972,-0.86959 -0.3286,0.24868 -0.79639,1.13118 -1.03961,1.96085 -0.24322,0.82968 -0.64295,1.73132 -0.88798,2.00363 -0.24503,0.2723 -0.63752,0.84709 -0.87234,1.2773 -0.46046,0.84357 -3.33679,1.90397 -3.863,1.42413 -0.17631,-0.16076 -0.0544,-1.09971 0.27123,-2.0863 0.32562,-0.9866 0.51743,-2.05044 0.42601,-2.3643 -0.70868,-2.43313 -0.68983,-2.57812 0.33299,-2.57812 0.60665,0 1.52153,-0.49996 2.3669,-1.29369 1.15772,-1.08701 1.55542,-1.25322 2.49039,-1.03924 l 1.11309,0.25447 -0.94034,-1.38707 -0.94035,-1.38707 2.3708,0.24733 c 3.48114,0.36318 9.71862,2.25773 11.70001,3.55392 1.87861,1.22897 2.30308,1.19318 1.92993,-0.16251 -0.19931,-0.72412 -0.87333,-1.08542 -3.74966,-2.00933 -1.92887,-0.61957 -5.12821,-1.38381 -7.10927,-1.69855 -5.70793,-0.90687 -5.70649,-0.90689 -5.94067,-1.7235 -0.21626,-0.7541 -0.15364,-0.76081 4.66186,-0.53102 4.79885,0.229 8.25492,1.04789 10.00379,2.37141 0.81094,0.61371 2.06321,0.15362 1.44139,-0.52959 -0.25268,-0.27764 -0.6446,-0.50465 -0.87155,-0.50465 -0.22696,0 -1.4211,-0.43622 -2.65299,-0.96938 -1.84517,-0.79858 -3.17376,-1.03545 -7.54231,-1.34287 -3.73123,-0.26258 -5.30283,-0.50714 -5.30283,-0.8254 0,-0.24878 -0.10949,-0.71176 -0.2431,-1.02926 -0.20919,-0.49709 0.2076,-0.57735 2.99769,-0.57735 3.41889,0 8.23252,0.98287 10.9371,2.23314 1.7353,0.80219 2.32077,0.86068 2.30592,0.23023 -0.0131,-0.55698 -4.12308,-2.22829 -7.39301,-3.0065 -1.32071,-0.31432 -3.97713,-0.67376 -5.90316,-0.79832 -3.35535,-0.217 -3.50187,-0.26269 -3.50187,-1.09768 v -0.87173 l 3.70198,0.24449 c 2.52601,0.16657 5.02475,0.6353 7.8667,1.47616 2.29075,0.67778 4.25732,1.14868 4.36953,1.04636 0.33316,-0.30379 0.0614,-0.41463 -4.43128,-1.80975 -3.19367,-0.99173 -5.29895,-1.40107 -8.17624,-1.58949 -3.81732,-0.24998 -3.87978,-0.26908 -4.1749,-1.27873 -0.47278,-1.61752 -0.11546,-1.64726 7.44696,-0.61299 1.54051,0.21069 3.53368,0.70677 4.42893,1.10196 1.72283,0.76051 2.57559,0.90331 2.57559,0.43194 0,-0.49468 -2.12045,-1.42706 -4.20224,-1.84824 -1.10059,-0.22265 -3.88573,-0.5844 -6.18925,-0.80401 -4.56615,-0.43531 -4.81664,-0.50198 -4.81664,-1.27944 0,-1.19919 7.96236,-0.39071 12.96631,1.3165 1.26318,0.43097 2.39302,0.69608 2.50994,0.58947 0.5263,-0.47992 -0.57388,-1.01499 -4.38047,-2.13263 -3.3491,-0.98333 -4.72808,-1.2014 -7.59391,-1.20104 -1.92603,3.3e-4 -3.50187,-0.10769 -3.50187,-0.23949 0,-0.95048 10.41653,-1.0148 12.57157,-0.0777 0.74971,0.326 1.64932,0.49247 1.9995,0.36993 0.87626,-0.30661 0.8256,-1.69773 -0.0633,-1.73633 -1.28958,-0.056 -2.28977,-0.26982 -3.90209,-0.83538 -0.88047,-0.30885 -1.92634,-0.56927 -2.3239,-0.57806 -0.8738,-0.0194 -4.70498,-1.72387 -7.84247,-3.48977 -1.26144,-0.70999 -3.44116,-1.66802 -4.844,-2.12836 -2.07622,-0.68131 -2.68242,-1.06946 -3.25799,-2.08773 -1.05267,-1.86237 -1.30751,-5.557878 -0.74884,-10.858483 l 0.49871,-4.730006 2.8992,-0.247333 c 1.59439,-0.136251 3.52976,-0.139711 4.30074,-0.0078 1.13308,0.193832 1.45449,0.113008 1.67902,-0.420538 0.17504,-0.415926 0.0462,-0.814488 -0.34862,-1.077725 -0.80623,-0.537572 -0.10414,-1.136706 1.72201,-1.46975 1.30042,-0.237165 1.41065,-0.408834 1.26552,-1.963707 -0.0906,-0.970289 -0.15612,-1.060514 -3.6926,-5.028661 -5.24511,-5.88532 -6.76247,-8.47423 -4.96515,-8.47423 0.8048,0 3.9202,-3.246121 4.95108,-5.159098 0.89557,-1.661882 2.10547,-6.041042 2.10347,-7.61391 -0.002,-1.296154 -1.02186,-5.58148 -1.5391,-6.46277 -2.01132,-3.426983 -4.73765,-6.280378 -8.37636,-8.766476 -2.13559,-1.459116 -4.11053,-2.652965 -4.38828,-2.652965 -0.27775,0 -0.50496,-0.237158 -0.50496,-0.526744 0,-1.100465 -3.77277,-7.579631 -4.58292,-7.870511 -0.45107,-0.161958 -1.63039,-1.067786 -2.62092,-2.013602 -1.99477,-1.904718 -5.849047,-3.742967 -6.53553,-3.116984 -0.228034,0.207928 -0.336921,0.429176 -0.241534,0.491817 0.09538,0.06264 1.254107,0.762953 2.574813,1.556711 1.320707,0.793758 3.704001,2.675061 5.296581,4.180451 2.28609,2.160926 2.89684,2.96959 2.90155,3.841882 0.003,0.607674 0.24499,1.428796 0.537,1.824715 0.29202,0.395918 0.93664,1.787366 1.43202,3.092037 0.49538,1.304672 1.3267,3.193252 1.84786,4.196846 2.86798,5.522819 3.32784,8.232207 1.89789,11.179947 l -0.7887,1.626563 -3.16029,0.425527 c -1.73815,0.234082 -5.3202,0.528156 -7.960495,0.65362 -2.640304,0.125464 -4.898876,0.373603 -5.019092,0.550977 -0.120221,0.177377 -0.894639,0.222703 -1.720448,0.100501 -1.404131,-0.207776 -1.601929,-0.406473 -3.055542,-3.06281 -1.302124,-2.379498 -1.454114,-2.875587 -0.933311,-3.057825 0.882784,-0.308903 1.513553,0.289108 2.309827,2.19037 0.735257,1.75557 1.53396,1.975466 1.731398,0.476849 0.07283,-0.552896 -0.198827,-1.165624 -0.700375,-1.579517 -0.450653,-0.371896 -0.808888,-0.855796 -0.796522,-1.075586 0.01241,-0.219787 1.292636,-0.952819 2.845274,-1.628701 l 2.823382,-1.228833 1.056036,0.96653 c 0.84083,0.769099 0.943881,1.030446 0.504954,1.279439 -0.303354,0.172086 -0.427176,0.495319 -0.275927,0.718482 0.292136,0.431027 2.323798,0.561761 2.746,0.176771 0.360401,-0.328642 -0.694579,-2.019511 -1.786895,-2.863949 -1.427488,-1.103562 -0.133792,-1.124503 2.552146,-0.04134 2.57648,1.039026 3.1232,1.597152 2.18007,2.226011 -0.86285,0.575325 -0.83396,0.798375 0.16493,1.285855 1.05195,0.513373 1.97528,-0.108421 1.97528,-1.329335 0,-1.663224 -1.94141,-3.070459 -5.198872,-3.768464 -2.958189,-0.633873 -2.979297,-0.646628 -3.630069,-2.246681 -1.757624,-4.321444 -3.177479,-8.686054 -3.177479,-9.767218 0,-0.9512 -0.146058,-1.174248 -0.700374,-1.070595 -0.961875,0.179865 -0.790915,1.482617 0.767598,5.851921 0.697881,1.956514 1.145837,3.668754 0.995845,3.805528 -0.149993,0.136773 -0.819034,-0.119366 -1.486731,-0.569512 -0.667697,-0.450147 -3.349139,-2.125338 -5.958659,-3.722847 l -4.74394,-2.904574 -0.278273,-2.524666 c -0.152942,-1.38862 -0.170111,-2.684444 -0.0383,-2.878916 0.316398,-0.466826 -0.139034,-1.513944 -0.658163,-1.513944 -0.259655,0 -0.340495,1.065215 -0.222776,2.919545 0.101939,1.605749 0.03646,2.919545 -0.145389,2.919545 -0.181838,0 -0.881043,-0.862179 -1.553175,-1.915952 -0.672135,-1.053773 -1.383424,-2.162287 -1.580533,-2.463366 -0.197109,-0.301078 -0.467538,-1.017129 -0.601101,-1.591636 -0.239296,-1.029287 -0.254913,-1.034622 -1.066979,-0.364943 -1.692993,1.396144 -2.345274,3.041487 -6.383882,16.102401 -1.071345,3.464748 -2.355559,7.0682 -2.85387,8.007362 -0.901746,1.699581 -2.848431,3.385676 -3.365079,2.914556 -0.149104,-0.135963 -0.30977,-4.805563 -0.357223,-10.376642 -0.04745,-5.571079 -0.220638,-11.469897 -0.384582,-13.108014 l -0.297815,-2.977993 -2.941417,-2.949481 c -1.617757,-1.622233 -3.20936,-3.40262 -3.536263,-3.955927 -0.326903,-0.553306 -1.321971,-1.650446 -2.212123,-2.438418 -0.890148,-0.787972 -1.618833,-1.546056 -1.618833,-1.684298 0,-0.138242 -0.538492,-0.807323 -1.196732,-1.486858 -0.65824,-0.679535 -1.3011,-1.522639 -1.428108,-1.873897 -0.127004,-0.351258 -0.382721,-0.63865 -0.568276,-0.63865 -0.185551,0 -1.070552,-1.058309 -1.966675,-2.352172 C 45.731893,14.143023 44.409971,12.48362 43.69051,11.74968 40.456032,8.4501126 38.304577,6.4769405 37.956974,6.4915054 Z m 39.782211,0.4519021 c -3.578094,-0.087223 -7.304806,0.3190624 -9.26042,1.1604051 -0.705529,0.303532 -1.823007,0.5427802 -2.48336,0.5317334 -0.660353,-0.01105 -3.091653,0.1630945 -5.402889,0.3870393 -5.328698,0.5163182 -5.602336,0.7666487 -4.003705,3.6544197 1.133062,2.04677 3.172596,4.017225 4.157695,4.017225 0.270925,0 0.811854,0.66012 1.202203,1.4669 1.145012,2.36651 2.599558,3.732277 3.70589,3.479077 0.648687,-0.148462 0.941127,-0.0584 0.941127,0.290101 0,0.278058 0.879282,1.382425 1.954169,2.4541 1.074883,1.071675 2.290533,2.530514 2.701444,3.241721 0.410908,0.711207 1.347489,1.845474 2.080801,2.521101 1.163834,1.072286 1.519897,1.203035 2.801498,1.02569 1.023463,-0.141625 1.892284,0.0063 2.868722,0.489679 0.770412,0.381368 1.501295,0.700803 1.624305,0.709216 0.380351,0.02601 4.95569,-2.546842 5.37944,-3.025036 0.807,-0.910681 3.643805,-2.172329 5.162917,-2.295863 1.887357,-0.153481 2.185733,-0.367023 1.342906,-0.962965 -0.351908,-0.248825 -1.103018,-1.470891 -1.66886,-2.71569 L 89.81439,21.108474 90.8587,18.913113 c 0.660997,-1.389812 0.955299,-2.517949 0.801993,-3.074931 -0.133191,-0.483905 -1.235009,-1.799744 -2.448185,-2.923821 -1.213181,-1.124077 -2.205868,-2.347072 -2.205868,-2.717828 0,-0.9355479 -1.498029,-2.0583515 -3.401819,-2.5503251 C 81.979244,7.2261296 79.886041,6.9957414 77.739185,6.9434075 Z M 38.737079,7.6982408 c 0.07626,0.00899 0.137177,0.047535 0.186037,0.1119065 0.141774,0.1867859 1.0881,1.4817934 2.102687,2.8782037 2.341602,3.222828 7.37956,9.274792 9.751308,11.71453 1.003553,1.032321 2.724229,2.920902 3.823921,4.196846 1.099688,1.275943 2.813629,3.265534 3.809069,4.42137 2.227891,2.586924 2.51671,3.190966 1.525031,3.189689 -0.72538,-9.43e-4 -6.146254,-5.452071 -6.146254,-6.180511 0,-0.193463 -0.237391,-0.483127 -0.527626,-0.64364 C 52.971016,27.226123 52.071643,26.191874 51.262527,25.087921 50.45341,23.983968 49.163448,22.341725 48.39615,21.43849 47.628852,20.535256 46.155916,18.728788 45.123308,17.424117 38.826737,9.4686107 39.217717,9.799798 37.701369,11.132413 c -0.62572,0.549902 -2.326352,2.56016 -3.779365,4.466988 -1.453013,1.906828 -3.05211,3.87752 -3.553462,4.379317 -0.501353,0.501797 -2.09196,2.636714 -3.534703,4.74426 -5.384251,7.865267 -6.755257,9.769304 -7.7135,10.71165 -0.557132,0.54789 -1.415749,0.966529 -1.981528,0.966529 -0.910527,0 -0.955898,-0.07229 -0.519027,-0.821122 0.263472,-0.451617 0.910779,-1.240138 1.438269,-1.752012 0.527489,-0.511873 1.173583,-1.263734 1.435924,-1.671468 0.262341,-0.407733 1.647443,-2.380393 3.078208,-4.383593 1.430765,-2.003201 2.781488,-3.896941 3.001605,-4.20825 0.698483,-0.987855 5.292796,-6.913879 8.438888,-10.884856 2.920152,-3.6857976 4.190587,-5.0445591 4.724401,-4.9816152 z m 36.463248,0.3906033 c 3.460939,-0.2143019 8.415524,0.6066544 9.471473,1.5695403 0.749092,0.6830746 0.712877,0.6896176 -2.153496,0.3849016 -1.603517,-0.1704654 -4.33852,-0.2082545 -6.07747,-0.084109 -1.738954,0.1241455 -3.578661,0.3700755 -4.088122,0.5467015 -0.582683,0.202012 -1.020293,0.182922 -1.179538,-0.05203 C 71.033939,10.248416 70.487371,9.9301389 69.95846,9.7467692 67.75196,8.9817923 69.449412,8.4449417 75.200327,8.0888441 Z M 61.302271,9.5058495 c 0.606048,-0.020623 1.23799,-0.019448 1.873658,0 3.814,0.1166844 7.774626,0.8985645 7.244498,1.6807345 -0.11519,0.169956 -1.014566,0.493219 -1.998725,0.719194 -1.862584,0.427671 -4.694782,1.985245 -5.996958,3.297318 -0.766174,0.771998 -1.480984,0.960366 -1.965892,0.51819 -0.521819,-0.475831 -0.253551,-1.110819 0.633931,-1.501113 0.803358,-0.3533 0.717028,-0.398505 -0.800428,-0.42054 -0.939642,-0.01365 -1.700909,-0.202443 -1.700909,-0.421253 0,-0.256752 0.915269,-0.353034 2.602171,-0.273707 1.614223,0.07591 2.552309,-0.01597 2.470073,-0.242345 -0.07292,-0.200719 -1.545082,-0.447055 -3.271281,-0.547414 -2.209442,-0.128455 -3.19406,-0.334909 -3.325214,-0.697099 -0.155628,-0.429768 0.462551,-0.475683 3.751222,-0.278696 3.463448,0.207455 3.866095,0.171748 3.348666,-0.300081 -0.391249,-0.35677 -1.557301,-0.560134 -3.48233,-0.607288 -3.262645,-0.07992 -3.789058,-0.4603503 -1.102153,-0.7961745 0.533469,-0.066676 1.113623,-0.1091016 1.719671,-0.129726 z m 19.169627,1.3842175 c 1.932889,0.04612 3.626243,0.262264 4.649358,0.662172 2.343013,0.915821 4.986438,3.369816 5.306746,4.926732 0.277188,1.347316 -0.987789,4.101118 -2.055788,4.474829 -0.746239,0.261122 -0.852912,0.160356 -1.026328,-0.970805 -0.09487,-0.618816 0.052,-0.909329 0.461182,-0.912358 2.910268,-0.02166 -3.501416,-2.782793 -8.00428,-3.447001 -5.428803,-0.800793 -9.434881,-0.260046 -12.520759,1.69 -1.45152,0.917254 -2.550364,2.181301 -2.185541,2.513973 0.09145,0.08339 0.961122,-0.391111 1.933062,-1.054914 2.275857,-1.554334 5.198632,-2.449153 7.97067,-2.439844 2.609711,0.0088 2.770457,0.08991 4.145185,2.091295 1.091787,1.589475 5.246433,4.838658 6.187684,4.83906 0.30907,1.35e-4 0.447155,-0.264288 0.333771,-0.63865 -0.106389,-0.351258 -0.312259,-1.459773 -0.457273,-2.463366 l -0.264205,-1.824716 0.902046,0.804728 c 0.711417,0.635191 0.922646,1.278913 1.002096,3.051409 0.07811,1.742663 0.301509,2.441515 0.997409,3.116985 0.493328,0.478843 0.8211,0.930182 0.728514,1.003593 -0.09258,0.07341 -1.941934,1.223617 -4.11001,2.556027 -2.168071,1.332411 -4.183701,2.422738 -4.478959,2.422738 -1.172791,0 -0.935024,-0.749163 0.501833,-1.581658 1.667671,-0.966224 2.662707,-1.910976 3.043035,-2.888895 0.369473,-0.950022 -0.0502,-0.777482 -1.236601,0.508212 -1.383052,1.498806 -3.826967,2.48474 -6.184555,2.494728 -1.604643,0.0068 -1.996476,-0.137308 -2.579508,-0.94871 -0.656887,-0.914182 -0.653009,-0.979951 0.09068,-1.486857 0.562368,-0.383316 1.333529,-0.467308 2.77961,-0.302219 l 2.00107,0.228802 -1.303041,-1.200321 c -1.136728,-1.046754 -1.404259,-1.142147 -2.095652,-0.748418 -0.919596,0.523683 -3.204838,0.608004 -3.204838,0.118322 0,-0.183076 0.719193,-0.444023 1.598511,-0.57949 1.799158,-0.277177 2.110384,-0.529236 1.592259,-1.293695 -0.307204,-0.45326 -0.562709,-0.42977 -1.777514,0.16679 -0.780057,0.383067 -1.50635,0.616487 -1.614143,0.518191 -0.107798,-0.0983 -0.309198,-0.986668 -0.447896,-1.974399 -0.394967,-2.812691 -2.513148,-3.920682 -4.402354,-2.302278 L 65.846892,20.792 64.674389,20.030751 C 63.3475,19.16919 62.769971,17.175784 63.45186,15.811097 c 0.392346,-0.785219 4.489837,-2.904117 7.346116,-3.799115 2.564691,-0.803631 6.452426,-1.198783 9.673925,-1.121915 z m -42.11471,1.059903 c 0.105835,0 1.218762,1.272739 2.47398,2.828309 1.255217,1.55557 2.391548,2.910421 2.524787,3.010781 0.517541,0.389824 4.318237,4.812665 6.017282,7.002345 1.676612,2.160768 6.682033,7.840442 7.980047,9.05515 0.654077,0.612098 -1.329163,0.754571 -17.571896,1.260907 -4.512413,0.140666 -9.465062,0.316705 -11.005886,0.391316 -1.540824,0.07461 -3.973079,0.238964 -5.405234,0.364943 -1.432155,0.125979 -2.731424,0.113091 -2.8867,-0.02851 -0.155275,-0.141591 0.313739,-0.934709 1.041964,-1.76199 2.313243,-2.627892 5.048793,-6.408021 5.048793,-6.976684 0,-0.301988 0.156231,-0.54884 0.347061,-0.54884 0.190829,0 1.17346,-1.123448 2.18398,-2.496867 1.010522,-1.373418 2.124392,-2.714264 2.474761,-2.979418 0.35037,-0.265154 0.985719,-1.179473 1.411692,-2.032134 0.425973,-0.852662 0.923874,-1.60639 1.106842,-1.674319 0.182968,-0.06793 1.172227,-1.313938 2.198832,-2.769148 1.026606,-1.455211 1.953861,-2.645838 2.059695,-2.645838 z m 42.6353,0.435509 c -3.069109,0.16176 -2.8952,0.821596 0.248569,0.944432 1.567875,0.06126 3.224168,0.37694 4.098284,0.781207 1.839547,0.850765 2.067513,0.878652 2.067513,0.253036 0,-0.865143 -4.019761,-2.104885 -6.414366,-1.978675 z m -8.946972,1.094829 c -1.482993,0.04815 -3.183242,0.271833 -3.52298,0.581628 -0.267839,0.244233 0.375473,0.33085 1.937756,0.260877 1.286408,-0.05762 2.754425,-0.122479 3.262681,-0.143981 0.576472,-0.02439 0.819378,-0.193438 0.645661,-0.449764 -0.08424,-0.124291 -0.454107,-0.200101 -0.970835,-0.235217 -0.387543,-0.02634 -0.857955,-0.02959 -1.352283,-0.01354 z m 7.977702,0.298654 c -0.914989,-0.01042 0.564434,0.690364 2.981282,1.412016 1.430765,0.427216 3.14168,1.082694 3.802033,1.456209 1.216291,0.687969 2.028029,0.677897 1.55552,-0.01924 -0.487085,-0.718666 -6.666257,-2.829926 -8.338835,-2.84898 z m -1.054468,0.04063 c -0.139034,-0.0052 -0.297195,0.01785 -0.441644,0.07057 -0.319263,0.116499 -0.224692,0.203452 0.241537,0.220962 0.42189,0.01585 0.658268,-0.07047 0.525281,-0.191738 -0.0665,-0.06063 -0.186144,-0.09457 -0.325174,-0.09979 z m 0.864522,2.874639 c 0.423367,0 0.769944,0.184553 0.769944,0.409849 0,0.280129 0.192551,0.26366 0.609702,-0.05203 0.772081,-0.5843 0.840209,-0.505864 1.1811,1.375664 0.186844,1.031278 0.134724,1.551008 -0.154771,1.551008 -0.239468,0 -0.435389,-0.132736 -0.435389,-0.295091 0,-0.162355 -0.283524,-0.613972 -0.630025,-1.003593 -0.346497,-0.389621 -0.51614,-0.503222 -0.376761,-0.252324 0.139374,0.250898 0.07628,0.456179 -0.140704,0.456179 -0.216988,0 -0.664075,-0.492673 -0.993499,-1.094829 -0.561472,-1.026304 -0.55117,-1.09483 0.170403,-1.09483 z m -5.297364,0.758398 c -0.634892,0.01029 -1.152869,0.201653 -1.605547,0.575213 -0.832481,0.686992 -0.984222,2.527066 -0.231372,2.804074 0.917791,0.337699 3.501873,0.246689 3.501873,-0.123311 0,-0.200718 -0.202392,-0.364943 -0.44946,-0.364943 -0.311959,0 -0.29792,-0.165987 0.04534,-0.543138 0.400546,-0.440094 0.370726,-0.586529 -0.157112,-0.771227 -0.358256,-0.125359 -1.038051,-0.135579 -1.510964,-0.02281 -0.783367,0.186801 -0.803898,0.154269 -0.22825,-0.370646 0.826022,-0.753225 2.709181,-0.348083 2.993789,0.644353 0.242257,0.844744 1.046599,0.741102 1.238162,-0.159662 0.08826,-0.415015 -0.330509,-0.791545 -1.287405,-1.156129 -0.921981,-0.351276 -1.674155,-0.522067 -2.30905,-0.511775 z m 8.584278,0.0064 c 0.143993,-0.01034 0.338453,0.007 0.59485,0.03421 1.013798,0.107793 1.066754,0.212619 1.027894,2.04639 -0.02253,1.063027 -0.138162,2.021265 -0.25717,2.129785 -0.376761,0.34356 -1.375844,-1.453216 -1.611798,-2.898874 -0.163423,-1.001248 -0.185747,-1.280498 0.246224,-1.311515 z m -14.52339,2.884618 c 0.660353,0 1.200642,0.164225 1.200642,0.364943 0,0.200719 -0.165272,0.364943 -0.367385,0.364943 -0.202116,0 -0.616933,0.08728 -0.921584,0.193876 -0.304647,0.106602 -0.679668,0.07947 -0.833258,-0.06059 -0.585869,-0.534235 -0.234737,-0.863176 0.921585,-0.863176 z m 20.367923,1.459773 c 0.373268,0 0.702688,0.596155 1.25614,2.275904 0.404856,1.228762 -0.08186,1.582525 -0.959889,0.697812 -0.685307,-0.690515 -0.912716,-2.973716 -0.296251,-2.973716 z m -13.764392,6.204032 c -0.330177,0 -0.600321,0.164224 -0.600321,0.364943 0,0.200719 0.270144,0.364943 0.600321,0.364943 0.330177,0 0.600321,-0.164224 0.600321,-0.364943 0,-0.200719 -0.270144,-0.364943 -0.600321,-0.364943 z m 1.400749,6.568976 c 0.220118,0 0.400214,0.318157 0.400214,0.707077 0,1.083644 2.747293,4.436784 4.783026,5.837662 1.791241,1.232632 5.284109,3.398715 9.633275,5.97452 2.352174,1.393079 4.298835,3.423298 3.734029,3.893914 -0.187593,0.156305 -1.382956,0.63296 -2.656889,1.059188 -2.919773,0.97688 -4.403235,0.931952 -7.889375,-0.238778 -3.483871,-1.169968 -5.50133,-2.825612 -7.712716,-6.32877 -1.272368,-2.015614 -1.929556,-4.129649 -2.181639,-7.020165 -0.224932,-2.579252 0.449637,-3.574492 0.855146,-1.26162 0.410539,2.341551 2.950593,5.970432 3.700418,5.286686 0.13456,-0.122698 -0.02221,-0.597748 -0.347842,-1.055627 -0.796754,-1.120372 -2.717861,-5.557655 -2.717861,-6.277449 0,-0.317024 0.180096,-0.576638 0.400214,-0.576638 z m -16.664379,0.769801 c 0.101727,-0.0045 0.219373,0.0083 0.353313,0.02566 0.628464,0.08162 0.974213,0.445431 1.152961,1.211724 0.140463,0.602157 0.276451,6.194283 0.302505,12.426598 0.03502,8.376426 -0.07725,11.445688 -0.432263,11.769415 -0.264141,0.240862 -0.57931,0.43695 -0.700374,0.43622 -0.121065,-7.3e-4 -0.271806,-3.161984 -0.334555,-7.025154 -0.06275,-3.863149 -0.287622,-9.158645 -0.499483,-11.767988 -0.50016,-6.160065 -0.554205,-7.044815 0.157896,-7.076475 z m -3.494056,0.325028 h 2.253549 l -0.247789,1.368536 c -0.136437,0.752696 -0.250077,1.738042 -0.252479,2.189659 -0.0024,0.451617 -0.139762,0.81344 -0.304851,0.804013 -0.454639,-0.02598 -7.448507,-3.272302 -7.883903,-3.659408 -0.962587,-0.855818 1.687974,-0.217075 4.00761,0.965817 2.31387,1.179949 3.376026,1.355099 3.376026,0.555255 0,-0.158389 -0.720385,-0.584525 -1.600856,-0.946571 -0.880471,-0.362047 -1.600856,-0.79772 -1.600856,-0.967955 0,-0.170235 1.014102,-0.309346 2.253549,-0.309346 z M 46.39117,36.210118 c 0.796534,-0.06255 3.031149,0.840248 6.197066,2.516824 0.550294,0.29142 2.032811,0.913593 3.294729,1.382793 1.829547,0.68025 2.295788,1.01956 2.301231,1.674319 0.0076,0.920798 -0.06446,0.974752 -0.625334,0.463306 -0.215924,-0.196894 -2.975856,-1.523192 -6.132968,-2.947343 -4.277791,-1.929681 -5.624519,-2.694639 -5.286419,-3.00294 0.05361,-0.04888 0.13793,-0.07802 0.251695,-0.08696 z m -9.146295,0.227377 c 0.679556,-0.0058 3.923662,1.337954 10.808904,4.434912 5.019148,2.257604 9.263397,4.159877 9.431607,4.226782 0.168214,0.06691 0.305632,-0.10718 0.305632,-0.386325 0,-0.509676 -4.012946,-2.613394 -9.605136,-5.035787 -4.141287,-1.793891 -5.510915,-2.479677 -5.798413,-2.903863 -0.378951,-0.559118 0.726833,-0.137607 6.398734,2.439129 7.823699,3.554316 9.37075,4.419936 9.638746,5.393604 0.130353,0.473572 0.176138,1.12324 0.101618,1.443379 -0.119316,0.512559 -0.302514,0.494016 -1.535977,-0.151824 C 54.304658,44.491168 48.770234,41.961149 46.585026,41.140428 43.014472,39.799401 38.027089,37.48981 37.380103,36.878007 37.076582,36.59099 37.018356,36.439453 37.244875,36.437509 Z m -4.991732,0.30792 c 0.924605,-0.07583 3.115316,0.597007 5.850004,1.845387 2.198461,1.003593 4.275143,1.824715 4.614967,1.824715 0.33983,0 0.719877,0.150141 0.844203,0.33358 0.124331,0.183438 1.530535,0.791744 3.125107,1.351432 1.594573,0.559691 4.636968,1.969678 6.760647,3.133375 2.12368,1.163709 4.149763,2.115532 4.502408,2.115532 0.417111,0 0.640967,0.318832 0.640967,0.912357 0,0.501797 -0.135072,0.89857 -0.300161,0.88171 -0.165088,-0.01686 -1.470786,-0.680798 -2.901551,-1.475454 -1.430765,-0.794656 -4.312306,-2.226685 -6.403424,-3.182563 -2.091119,-0.955873 -4.20725,-1.934176 -4.702515,-2.173977 -1.960702,-0.949352 -2.508794,-1.166106 -2.950797,-1.166106 -0.778036,0 -9.555891,-3.736609 -9.555891,-4.067832 0,-0.198032 0.167835,-0.306878 0.476036,-0.332156 z m -5.633481,0.09551 c 0.852311,-0.05946 2.808829,0.48778 4.821328,1.414154 1.27291,0.585934 4.332756,1.814403 6.79973,2.729947 3.820673,1.417928 12.449469,4.998009 14.324067,5.943153 0.317078,0.159867 0.646734,0.484779 0.733204,0.721335 0.278725,0.76248 -2.417549,0.455146 -4.311681,-0.491107 -0.99053,-0.494841 -2.4313,-1.143706 -3.201712,-1.441952 -0.770412,-0.298243 -1.670894,-0.709446 -2.00107,-0.913785 -0.844804,-0.522821 -9.596195,-4.22422 -10.805779,-4.570339 -2.289421,-0.655117 -6.803638,-2.726083 -6.803638,-3.121263 0,-0.163068 0.161447,-0.250323 0.445551,-0.270143 z m -3.566751,0.679279 c 0.543836,0.04624 1.294412,0.232194 2.119884,0.546702 0.823741,0.313848 4.190688,1.791869 7.482125,3.284486 3.291438,1.492621 6.15551,2.713553 6.364341,2.713553 0.39094,0 4.895585,1.898591 5.964909,2.513972 0.330176,0.190012 1.185634,0.543127 1.901016,0.78477 0.715383,0.241647 1.300696,0.557509 1.300696,0.702089 0,0.144576 -0.787505,0.273981 -1.750156,0.28725 -1.894017,0.02613 -5.548702,-1.576269 -5.990702,-2.626594 -0.145158,-0.344937 -0.727874,-0.566658 -1.489859,-0.566658 -0.688312,0 -1.729464,-0.304541 -2.313738,-0.676429 -1.328974,-0.845891 -5.012658,-2.53826 -6.86539,-3.154046 -2.491482,-0.828085 -7.604066,-3.192918 -7.604066,-3.517569 0,-0.244321 0.337104,-0.337766 0.88094,-0.291526 z m -5.048793,0.61299 c 0.248891,-0.035 0.667407,0.01134 1.266302,0.160376 0.825441,0.205407 1.680899,0.485924 1.901016,0.623681 0.220118,0.137759 1.435768,0.557976 2.701445,0.93374 1.265677,0.375774 2.30123,0.820509 2.30123,0.988627 0,0.751724 -3.876174,0.235662 -6.103263,-0.812568 -2.031733,-0.956282 -2.813405,-1.78885 -2.06673,-1.893856 z m 0.01876,1.917377 c 0.139108,0 0.867195,0.345929 1.618053,0.769088 1.266962,0.714015 1.31322,0.804769 0.647222,1.255207 -0.685309,0.463489 -0.681514,0.510289 0.08286,1.043508 l 0.800428,0.558107 -0.800428,-0.01285 c -1.770439,-0.02886 -2.601391,-0.734378 -2.601391,-2.208887 0,-0.772205 0.114154,-1.404177 0.25326,-1.404177 z m 90.412402,1.700693 c 0.21369,-0.0239 0.63175,0.158882 1.10684,0.499658 0.71959,0.516143 1.02885,1.013374 0.88563,1.424844 -0.13139,0.377504 0.12238,0.913405 0.63003,1.331473 2.1122,1.739483 4.31397,8.158813 3.89192,11.346737 -0.0717,0.541725 0.092,1.035278 0.37208,1.1212 0.32792,0.100611 0.51804,-0.265372 0.55186,-1.062754 0.0284,-0.669061 0.0947,-1.709386 0.14695,-2.311542 0.1498,-1.725999 -0.61243,-4.580565 -1.75329,-6.568976 -0.57581,-1.003593 -1.18172,-1.879694 -1.34681,-1.946599 -0.16509,-0.06691 -0.30016,-0.285973 -0.30016,-0.48683 0,-0.734682 3.17197,1.951741 4.56651,3.867542 0.78913,1.0841 1.63046,2.030679 1.86975,2.103412 0.88621,0.269368 1.96016,5.741784 1.7009,8.66811 -0.38404,4.334801 -1.3781,6.300399 -4.59308,9.087225 -3.17045,2.748229 -3.6099,2.948525 -8.74686,3.985865 -7.16968,1.447824 -14.916663,1.312054 -18.810053,-0.330018 -3.143789,-1.325919 -6.355955,-3.295156 -8.167647,-5.007275 l -1.564121,-1.478304 1.478135,-1.645098 c 1.10098,-1.225191 1.857497,-1.707521 2.964869,-1.890288 0.817685,-0.134953 2.011051,-0.487758 2.652198,-0.784059 1.176593,-0.54375 1.936156,-0.51003 6.007121,0.26373 1.601112,0.304322 2.145671,0.269565 2.907022,-0.185325 0.711765,-0.425265 1.980807,-0.548357 5.283296,-0.511063 2.39057,0.02701 4.68422,-0.110789 5.09725,-0.306494 0.41303,-0.195704 1.65166,-0.475002 2.75225,-0.62083 2.99949,-0.397423 3.25728,-0.627571 4.02324,-3.59027 0.65623,-2.538223 0.65592,-2.824437 -0.005,-5.569659 -0.38304,-1.591692 -1.19078,-3.634344 -1.79471,-4.539695 -1.20736,-1.809928 -2.16786,-4.163953 -1.94635,-4.769919 0.0203,-0.05559 0.0687,-0.08683 0.13992,-0.0948 z m -82.77785,0.15467 c 0.631524,-0.02011 1.292184,-0.01573 1.920558,0.01639 0.837833,0.04286 1.618691,0.135701 2.19805,0.286535 0.812853,0.211623 0.587634,0.306527 -1.200642,0.507501 -3.075578,0.345649 -5.915382,0.313457 -6.175177,-0.06985 -0.271566,-0.400678 1.362638,-0.680195 3.257211,-0.740579 z m 47.199457,1.064182 c 0.196905,0 1.052299,2.586534 1.901016,5.747853 1.659216,6.180249 1.737469,6.397949 2.210558,6.131329 0.349663,-0.197059 -0.237943,-3.229874 -1.516434,-7.823468 -1.168337,-4.197816 -1.06936,-4.33321 0.694119,-0.942294 2.12175,4.079823 4.642742,5.930581 9.406594,6.905406 1.783505,0.364961 0.9048,0.700581 -2.543548,0.970807 -1.735905,0.136032 -3.662871,0.478973 -4.281978,0.761961 -0.619103,0.282991 -1.60451,0.801521 -2.189451,1.152567 -0.584941,0.351024 -1.159456,0.495972 -1.277247,0.322175 -0.188769,-0.27851 -0.716775,-2.833024 -1.865061,-9.029491 -0.185976,-1.003593 -0.463852,-2.358445 -0.617514,-3.01078 -0.153662,-0.652336 -0.117963,-1.186065 0.07895,-1.186065 z m -41.147002,0.502508 c 0.406883,0.0708 0.977552,0.2966 1.903362,0.710643 1.201208,0.537207 2.42811,0.976507 2.726458,0.976507 0.298347,0 0.786754,0.268806 1.085736,0.59731 0.298982,0.3285 1.291499,0.889961 2.205867,1.247364 0.914369,0.357404 1.783421,0.827604 1.93072,1.044934 0.353021,0.520865 -2.669068,0.533482 -3.239232,0.01354 -0.229843,-0.209587 -2.163309,-1.169336 -4.296829,-2.133348 -3.384816,-1.529407 -3.797842,-1.814793 -3.23845,-2.23813 0.271757,-0.20566 0.515485,-0.289623 0.922368,-0.218824 z m -1.994817,0.08055 c 0.338281,0.234767 -1.35123,2.302079 -2.009668,2.459088 -0.402041,0.09587 -0.73086,0.373892 -0.73086,0.61798 0,0.33562 0.13405,0.341883 0.551076,0.02639 0.429257,-0.324854 0.599453,-0.274328 0.766035,0.228804 0.117698,0.355491 0.599918,1.612436 1.071667,2.793381 0.471748,1.180944 0.735628,2.412627 0.587032,2.737073 -0.148595,0.324445 -0.318026,1.046927 -0.376763,1.60518 -0.08637,0.820845 0.02714,0.976197 0.592504,0.812568 0.391217,-0.113224 1.120448,0.117515 1.655572,0.523894 l 0.95598,0.72632 -2.144115,0.01212 c -1.716584,0.0097 -2.098941,-0.09387 -1.919776,-0.519616 0.1813,-0.430823 0.03222,-0.465456 -0.784013,-0.182472 -1.467925,0.508917 -2.991264,0.385395 -4.357018,-0.353539 -1.109309,-0.600185 -1.197446,-0.799729 -1.156087,-2.619466 0.02462,-1.083261 0.349625,-2.781366 0.722262,-3.774165 0.425374,-1.133301 0.587386,-2.294528 0.434607,-3.119125 l -0.243881,-1.312937 3.123546,-0.379202 c 1.71764,-0.208459 3.185424,-0.335335 3.2619,-0.282258 z m -11.889951,0.651478 c 0.231572,-0.08532 1.245595,0.297775 2.860904,1.215289 0.833559,0.47347 1.408413,1.018914 1.277246,1.21244 -0.313452,0.462481 -0.160828,0.51819 -2.305139,-0.833954 -1.514153,-0.954782 -2.064584,-1.508459 -1.833011,-1.593775 z m 12.350354,0.931604 c 0.373866,-0.04467 1.186731,0.334963 2.881228,1.296545 1.596029,0.905701 3.143674,1.646521 3.439339,1.646521 0.378573,0 0.495021,0.397003 0.393961,1.342877 -0.07893,0.738725 -0.315801,1.379792 -0.526845,1.424132 -0.969976,0.203799 -5.402467,-1.381904 -5.811701,-2.079175 -0.242142,-0.412572 -0.3577,-0.825681 -0.257169,-0.917351 0.100532,-0.09167 1.217961,0.25095 2.483359,0.76125 2.621395,1.057134 3.764323,1.218162 3.04616,0.429093 -0.405864,-0.445939 -4.44208,-1.825154 -5.441972,-1.859641 -0.483259,-0.01668 -0.754727,-1.140367 -0.450241,-1.863918 0.04346,-0.103275 0.119259,-0.165443 0.243881,-0.180333 z m 41.641016,0.471146 c 0.205249,0.123288 0.565222,1.535071 0.916898,3.644442 1.297374,7.781678 1.321739,8.073661 0.759782,9.115738 -0.42582,0.789649 -0.431363,1.125984 -0.0305,1.711382 0.400506,0.584781 0.395091,0.904355 -0.02501,1.620147 -0.315412,0.537419 -0.417359,1.330006 -0.257169,1.995071 0.155871,0.647088 0.09056,1.201429 -0.157896,1.34145 -0.233005,0.131314 -0.423663,0.556677 -0.423663,0.944433 0,0.534536 -0.99193,1.137228 -4.102194,2.493302 -5.112982,2.229258 -5.473194,2.319775 -6.703584,1.682161 -0.550294,-0.285174 -1.24573,-0.524616 -1.545359,-0.531733 -0.623577,-0.01481 -4.457843,-2.848986 -4.457843,-3.29518 0,-0.293488 1.678405,-1.347874 4.360143,-2.739212 0.77375,-0.401437 2.646571,-1.838375 4.162382,-3.193252 l 2.756162,-2.463366 1.858025,1.447656 c 1.021711,0.796365 2.001591,1.316751 2.177725,1.156129 0.444169,-0.405014 -0.07793,-1.508956 -0.713662,-1.508956 -0.287057,0 -0.993999,-0.510843 -1.570372,-1.135458 -0.819005,-0.887553 -0.946774,-1.246266 -0.587029,-1.641532 0.382024,-0.419725 0.692714,-0.319909 1.826756,0.588043 1.594713,1.276776 2.648064,1.471765 1.475009,0.272996 -0.441928,-0.451617 -1.194295,-1.221917 -1.671206,-1.711382 -0.476911,-0.489466 -0.866871,-1.045296 -0.866871,-1.23596 0,-0.523431 2.388765,-7.953355 2.74209,-8.529122 0.02253,-0.03672 0.04807,-0.04534 0.07739,-0.02781 z m 8.426381,0.51819 c -0.09334,-0.0073 -0.159437,0.0099 -0.189945,0.05489 -0.456752,0.6739 3.520903,3.271492 6.353397,4.149089 0.653029,0.202328 3.818098,0.164144 4.602461,-0.0556 0.472497,-0.132372 -1.49941,-0.685823 -2.527131,-0.709216 -1.364862,-0.03109 -5.086588,-1.541103 -6.891185,-2.796234 -0.54277,-0.377504 -1.067575,-0.620899 -1.347597,-0.642927 z m -62.109774,0.332156 c 0.410524,-0.231359 3.638664,1.588623 3.638664,2.051378 0,0.480758 -0.888043,0.307107 -2.501337,-0.489677 -1.501755,-0.741699 -1.818758,-1.177667 -1.137327,-1.561701 z m 35.539314,2.489025 c 1.167917,1.064988 -11.07146,2.082577 -13.690912,1.138309 -0.656321,-0.236593 -0.710942,-0.200515 -0.303287,0.200292 0.273439,0.268846 1.298619,0.765884 2.27778,1.10481 1.677351,0.580584 2.030464,0.578705 6.106392,-0.03208 2.379344,-0.356564 4.84122,-0.769398 5.470893,-0.918061 1.065442,-0.251541 1.124986,-0.210251 0.866868,0.60016 -0.485392,1.523991 -1.626086,2.650063 -3.591765,3.54394 -2.317715,1.053967 -7.245975,1.390094 -9.405809,0.641501 -1.688837,-0.585325 -3.222036,-2.528169 -3.222036,-4.082798 0,-1.355884 0.824657,-1.686894 3.400256,-1.364971 0.907371,0.11341 3.957851,-0.06533 6.778623,-0.397018 2.820773,-0.331685 5.211367,-0.526758 5.312997,-0.434085 z m -35.22352,0.01496 c 0.747768,0.05043 2.922656,1.018757 2.922656,1.374959 0,0.163546 -0.315168,0.293842 -0.700374,0.289389 -0.83928,-0.0097 -2.792704,-1.308131 -2.445058,-1.625139 0.03807,-0.03471 0.115952,-0.0464 0.222776,-0.0392 z m 38.658953,0.841081 c 0.570149,-0.01555 1.171051,0.05924 1.36479,0.235928 0.101082,0.09217 0.123626,0.488516 0.05081,0.880994 -0.125483,0.676368 -0.200295,0.684404 -1.440614,0.144697 -0.719729,-0.313176 -1.240283,-0.743944 -1.156871,-0.956553 0.07217,-0.183935 0.611736,-0.289527 1.181884,-0.305066 z m -30.333408,0.10122 c -0.618895,0 -0.79543,0.430797 -0.344715,0.841793 0.319743,0.291563 0.945036,-0.03805 0.945036,-0.498232 0,-0.188872 -0.270144,-0.343561 -0.600321,-0.343561 z m 5.538118,0.758396 c 0.568629,0.04384 1.303423,0.225732 1.865841,0.518905 0.550295,0.286853 1.386311,0.527474 1.858025,0.534583 0.838117,0.01263 1.343687,0.64649 1.343687,1.685012 0,0.284659 -0.135072,0.50715 -0.30016,0.494669 -0.590777,-0.04465 -5.505886,-2.595449 -5.636608,-2.925245 -0.102138,-0.257686 0.300586,-0.351761 0.869215,-0.307924 z m -13.916036,0.33645 c 0.889973,0 2.574814,1.10214 2.574814,1.684297 0,0.653222 -0.353033,0.625724 -1.691529,-0.13115 -1.274055,-0.720438 -1.747645,-1.553147 -0.883285,-1.553147 z m 37.22459,0.57949 c 0.225113,0.01715 0.531941,0.126325 0.966925,0.331441 0.633915,0.298903 1.434175,0.445446 1.778295,0.325029 0.468823,-0.164045 0.625335,0.01912 0.625335,0.732025 0,1.116117 -0.543839,1.164603 -2.201177,0.196726 -0.660353,-0.385642 -1.367872,-0.752271 -1.571933,-0.815417 -0.204061,-0.06315 -0.238908,-0.309815 -0.07738,-0.54813 0.110835,-0.163528 0.254848,-0.238826 0.47994,-0.221674 z m -23.20303,1.303675 c 0.497206,0.05151 1.347856,0.381417 2.760851,1.010721 1.320707,0.588201 2.716453,1.157804 3.101659,1.265896 0.385206,0.108093 0.700375,0.374275 0.700375,0.591606 0,0.245701 -0.835899,0.364312 -2.209776,0.313625 -2.532815,-0.09344 -4.994077,-1.336783 -4.994077,-2.523242 0,-0.482911 0.143762,-0.710121 0.640968,-0.658606 z m 22.548777,0.43622 c 0.99963,0.118994 4.009075,1.525408 4.016992,1.968697 0.01076,0.603944 -0.294782,0.562443 -2.181635,-0.295805 -1.805153,-0.821085 -2.464754,-1.329196 -2.126137,-1.637967 0.04616,-0.04209 0.147975,-0.05192 0.29078,-0.03493 z m -36.368667,0.22524 c 0.275225,0.02248 0.667226,0.118752 1.168594,0.31077 0.878232,0.336354 1.598615,0.816845 1.600856,1.067744 0.0052,0.577734 -0.287029,0.549644 -1.897108,-0.181045 -1.473214,-0.668576 -1.698014,-1.264958 -0.872342,-1.197469 z m 34.905384,1.097679 c 0.460306,-0.01602 0.844428,0.139255 1.56021,0.451902 0.81145,0.354432 1.560771,0.770763 1.664951,0.924474 0.226257,0.333828 -6.729359,0.528185 -7.091292,0.198153 -0.137942,-0.125789 0.694699,-0.574975 1.850209,-0.99789 1.019281,-0.373059 1.555616,-0.560614 2.015922,-0.576639 z m 32.189869,0.37207 0.870778,2.419887 c 0.479128,1.330896 0.81961,2.463056 0.756656,2.516111 -0.06295,0.05306 -1.374799,0.438176 -2.915623,0.855335 -3.184463,0.86216 -5.625032,2.490562 -6.458141,4.308752 -0.639762,1.396217 -0.945818,1.540392 -0.945818,0.446913 0,-1.150917 1.172491,-3.174961 2.312957,-3.992992 0.555977,-0.398792 0.890288,-0.835406 0.742585,-0.970092 -0.476411,-0.434424 -3.363062,2.480504 -3.63163,3.667251 -0.221739,0.979807 -0.318887,1.056394 -0.657384,0.518902 -0.52003,-0.825739 0.454612,-2.604135 2.323119,-4.23961 1.063116,-0.930531 1.28343,-1.321298 0.925495,-1.642243 -0.492952,-0.442016 -0.64946,-0.314479 -3.500312,2.847552 -1.064958,1.1812 -1.33042,1.319203 -1.546919,0.804729 -0.190502,-0.452683 0.428661,-1.203481 2.285598,-2.770575 2.107031,-1.778153 2.457706,-2.234342 2.026864,-2.63871 -0.432448,-0.405879 -0.761167,-0.22571 -1.934631,1.062042 -1.437661,1.577682 -2.14724,1.932914 -2.14724,1.074159 0,-0.536503 3.050187,-2.662303 5.194185,-3.619494 0.854673,-0.381567 2.371368,-0.632848 3.854406,-0.638651 z m -67.353203,0.482554 c 0.109513,-0.04937 0.267748,-0.04255 0.462747,0.02566 0.34818,0.121836 0.798421,0.221674 1.000535,0.221674 0.202115,4e-6 0.367384,0.162195 0.367384,0.360666 0,0.198471 -0.450241,0.327354 -1.000535,0.285823 -0.550294,-0.04153 -1.000535,-0.303563 -1.000535,-0.582339 0,-0.156127 0.06089,-0.262121 0.170404,-0.311483 z M 37.069,57.196497 c 21.957783,0.07356 21.92266,0.0727 21.92266,0.575213 0,0.316288 -1.034517,0.527645 -3.301766,0.675002 -3.949656,0.256701 -33.87719,0.517861 -36.01926,0.314336 -0.891239,-0.08468 -1.500803,-0.336817 -1.500803,-0.62083 0,-0.744305 4.933434,-0.99051 18.899169,-0.943721 z m 17.157612,2.18467 c 6.126356,-0.04586 5.209513,0.31115 4.234296,2.155445 -0.500796,0.947086 -4.63349,4.789878 -5.151195,4.789878 -0.176618,0 -0.321263,0.371275 -0.321263,0.825399 0,0.89668 -0.736394,1.135521 -8.604601,2.786253 -2.438491,0.511592 -3.821411,0.999357 -4.281978,1.509667 -1.422242,1.57585 0.579717,2.840685 3.399474,2.148318 1.426855,-0.350353 1.708373,-0.31777 2.162096,0.248048 1.132241,1.411969 0.290351,2.113696 -1.256144,1.047073 -1.03316,-0.712577 -2.09736,-0.678013 -2.564651,0.0834 -0.355475,0.579219 -0.486899,0.575628 -2.023738,-0.05631 -0.903752,-0.371621 -1.84248,-0.89468 -2.086272,-1.162544 -0.62569,-0.687465 -1.152961,-0.264839 -1.152961,0.924474 0,0.951654 1.044395,1.798512 4.238986,3.437023 1.228206,0.62995 5.236877,0.878239 6.962316,0.431231 3.913057,-1.013743 5.752708,-1.273735 9.014977,-1.273735 h 3.396348 v 2.554601 c 0,2.247721 -0.243378,2.940675 -0.841858,2.394939 -0.09632,-0.08782 -4.133991,-0.238147 -8.971982,-0.334295 -13.82471,-0.274747 -30.6505,-1.088432 -31.956152,-1.545304 -0.298973,-0.104615 -0.44652,-1.044759 -0.411157,-2.620178 0.03033,-1.351301 0.07858,-5.8414 0.107088,-9.978201 l 0.05159,-7.521959 6.703585,-0.235217 c 3.686971,-0.129602 12.966226,-0.340583 20.620402,-0.468298 3.865895,-0.0645 6.690674,-0.124417 8.732794,-0.139704 z m 12.573131,1.890292 c -0.132211,-0.02474 -0.204017,-0.0056 -0.204017,0.06272 0,0.690322 1.974972,2.308298 3.601926,2.950908 3.028091,1.19602 2.649301,0.460507 -0.900482,-1.747735 -1.162089,-0.722912 -2.100799,-1.191688 -2.497427,-1.265896 z M 27.49982,61.947173 c -1.639183,0 -4.059031,0.872583 -4.352327,1.56954 -0.117535,0.279298 0.05851,1.227413 0.390834,2.106977 0.332324,0.879564 0.496646,1.990914 0.365039,2.469066 -0.210952,0.766424 -0.134408,0.838464 0.649566,0.611565 0.771443,-0.223265 0.837584,-0.167721 0.497141,0.416265 -0.630402,1.08137 -0.752111,3.867619 -0.176657,4.045737 0.339574,0.105107 0.500267,-0.271138 0.500267,-1.171099 0,-1.238916 1.05247,-3.736072 1.429671,-3.392117 0.206539,0.188336 0.45351,2.071917 0.562801,4.292359 l 0.08051,1.642243 0.395524,-1.255203 c 0.217333,-0.69025 0.336301,-3.276503 0.264204,-5.747854 -0.0721,-2.47135 -0.01705,-4.493642 0.122722,-4.493361 0.139772,2.77e-4 0.561747,0.42933 0.938001,0.952986 0.643429,0.895447 0.643844,1.048084 0.0078,2.566718 -0.631423,1.507649 -0.631956,1.714871 -0.01173,3.128387 0.370016,0.843263 0.615089,2.241057 0.553421,3.155477 -0.06842,1.01456 0.06884,1.695719 0.359567,1.784086 0.729945,0.221871 1.06785,-1.691876 0.63706,-3.609513 -0.214162,-0.95333 -0.241258,-1.649492 -0.06019,-1.547446 0.816856,0.460353 1.594219,2.586869 1.656355,4.53114 0.06085,1.903941 -0.05701,2.244893 -1.132637,3.278784 -2.19323,2.108138 -3.199207,2.599391 -4.440656,2.168988 -3.192038,-1.106653 -5.198036,-6.01689 -3.599581,-8.810668 0.515279,-0.900584 0.465681,-1.394195 -0.139917,-1.394195 -0.133376,0 -0.57981,0.570917 -0.991937,1.268746 -0.600379,1.016586 -0.698815,1.705354 -0.49714,3.464821 0.339746,2.96405 1.155395,4.593878 2.741309,5.475573 0.826284,0.459372 2.02635,0.736996 3.188424,0.737725 1.549872,0.0011 2.155516,-0.219236 3.601926,-1.309375 3.159288,-2.381112 3.436046,-4.162446 1.274119,-8.187695 -0.949778,-1.768372 -1.564619,-3.533266 -1.750155,-5.020106 -0.342532,-2.744971 -1.151069,-3.728551 -3.063357,-3.728551 z M 25.852064,63.0698 c 0.213144,-0.04014 0.322047,0.07181 0.322047,0.337145 0,0.200719 0.346825,0.681199 0.770725,1.067744 0.478712,0.436523 0.688255,0.989605 0.553421,1.459772 -0.234601,0.818053 -0.778692,0.944673 -1.721233,0.401295 -0.475436,-0.274091 -0.495807,-0.436008 -0.100054,-0.796886 0.801869,-0.7312 0.573623,-1.1339 -0.503394,-0.88741 -1.179452,0.269937 -1.294386,-0.159466 -0.268893,-1.005732 0.416605,-0.343799 0.734237,-0.535784 0.947381,-0.575928 z m 33.039542,2.167561 c -0.53471,-0.0104 -0.323461,0.409645 0.934092,1.857506 1.315435,1.514499 1.96746,1.789641 1.96746,0.830388 0,-0.565575 -2.277986,-2.675774 -2.901552,-2.687894 z m 16.125811,0.653621 1.671986,1.37709 c 1.927083,1.587569 1.980691,2.124553 0.719137,7.260372 -0.9946,4.049021 -2.632704,7.130144 -5.320813,10.010275 -0.831257,0.890633 -1.455231,1.772627 -1.386682,1.960142 0.154539,0.422758 2.92031,1.36026 4.388287,1.487571 0.599168,0.05196 1.200554,0.195937 1.33665,0.32004 0.136097,0.124103 -0.207803,1.182715 -0.763688,2.352171 -0.555889,1.169453 -1.123993,2.495726 -1.263175,2.947343 -0.25306,0.821114 -0.642308,1.025888 -1.120912,0.589467 -0.317802,-0.289794 -6.962423,-1.578142 -8.183284,-1.586645 -1.048228,-0.0073 -0.981809,0.869108 -0.902046,-11.843545 0.0491,-7.824606 0.280638,-9.694513 1.200642,-9.694513 0.920424,0 6.4107,-2.671591 7.934715,-3.861127 z m -20.513313,1.308664 c 0.323673,0.06583 0.911516,0.374741 1.507054,0.809717 1.667516,1.217928 4.067779,2.598077 5.081625,2.922395 0.385206,0.123223 0.700375,0.369395 0.700375,0.546703 0,0.746695 -2.281436,-0.04353 -4.338256,-1.50254 -3.078002,-2.183393 -3.450409,-2.506845 -3.176699,-2.757032 0.03978,-0.03635 0.118011,-0.04125 0.225901,-0.01923 z m 46.312266,0.311482 c -0.18612,0.0099 -0.41511,0.04693 -0.70507,0.10264 -1.799523,0.34574 -2.121931,0.712555 -1.579745,1.79763 0.394031,0.788627 0.63947,0.884932 1.770475,0.692111 1.77943,-0.303367 2.01245,-0.570166 1.52503,-1.739184 -0.27937,-0.670061 -0.45233,-0.882746 -1.01069,-0.853197 z m -46.374799,1.065608 1.858806,1.479016 1.858025,1.479016 -2.458346,2.140479 c -1.352275,1.177 -2.650478,2.135442 -2.885135,2.129786 -0.234658,-0.0057 -1.237226,-0.418444 -2.227755,-0.916635 -0.99053,-0.498195 -2.474652,-1.191112 -3.297856,-1.540319 -0.823204,-0.34921 -1.498401,-0.840365 -1.500802,-1.091264 -0.0054,-0.607316 -0.527686,-0.575931 -2.831987,0.170356 -1.68582,0.545987 -2.937242,0.49514 -2.291849,-0.09338 0.554556,-0.505683 4.781937,-1.708021 7.120996,-2.025007 1.430765,-0.193894 3.513358,-0.662733 4.628254,-1.042084 z m 25.426096,0.669299 c 0.727921,0 0.938281,1.26017 0.97005,5.81913 0.02581,3.705979 0.162559,4.945742 0.559676,5.066436 0.42345,0.128715 0.484383,-0.772683 0.312663,-4.633066 -0.129777,-2.917774 -0.06479,-4.792728 0.166497,-4.792728 0.20896,0 0.728762,0.169994 1.154525,0.377775 0.614573,0.299924 0.77385,0.772708 0.77385,2.295149 0,1.054722 0.251711,2.814364 0.558891,3.910306 0.30718,1.095946 0.683205,2.690886 0.835607,3.543941 0.275411,1.541581 0.837516,2.012986 1.245194,1.044222 0.11725,-0.278626 -0.158489,-1.933534 -0.612828,-3.677944 -0.792436,-3.042526 -1.072474,-5.668733 -0.604227,-5.668733 0.252883,0 3.672516,1.331341 4.580573,1.783374 0.392406,0.195343 0.788202,1.44693 1.142799,3.613079 0.378114,2.309816 0.728714,3.37888 1.157651,3.528971 0.338465,0.118438 0.677355,0.159272 0.752747,0.09052 0.0754,-0.06875 -0.127048,-1.263207 -0.450241,-2.654392 -0.919127,-3.956363 -1.386842,-3.624483 5.101164,-3.624483 4.618832,0 6.421562,-0.161564 9.483192,-0.84892 2.07921,-0.466799 4.27678,-1.08264 4.88308,-1.368537 1.46521,-0.690917 1.44866,-0.695862 2.08627,0.666449 0.30531,0.652335 2.4805,3.360366 4.83384,6.017995 2.35332,2.657629 4.17487,4.986097 4.04747,5.174068 -0.1274,0.187968 -0.86641,0.532748 -1.64228,0.766238 -1.69916,0.511351 -2.24863,0.195446 -3.46435,-1.989366 -0.45423,-0.816305 -1.21833,-1.912353 -1.69779,-2.435569 -0.47946,-0.523211 -1.57334,-2.370736 -2.4302,-4.105609 -0.85687,-1.73487 -1.71459,-3.15405 -1.90649,-3.15405 -1.35967,0 3.20883,8.322739 7.07409,12.887053 0.63602,0.751045 1.04665,1.466191 0.91221,1.588787 -0.13444,0.122591 -1.03209,0.02128 -1.99482,-0.224528 -1.35408,-0.345696 -2.10527,-0.349469 -3.31896,-0.01781 -1.04775,0.286247 -2.23215,0.324095 -3.5644,0.114045 -1.09723,-0.172994 -3.0754,-0.267876 -4.39611,-0.21027 -6.498522,0.283444 -20.853786,0.482134 -21.062817,0.291528 -0.13049,-0.11899 -0.08998,-0.909446 0.08989,-1.757 0.179872,-0.847559 0.335151,-2.09996 0.344716,-2.783407 0.01709,-1.218497 0.0016,-1.230238 -0.780886,-0.584478 -0.668469,0.551641 -0.764356,0.975989 -0.590159,2.611624 0.114369,1.07394 0.157488,1.952303 0.09536,1.952303 -0.06213,0 -0.742005,-0.167899 -1.510964,-0.372782 -1.030819,-0.274652 -9.228319,-1.424121 -10.33365,-1.449083 -0.07177,-0.0015 0.257814,-0.454467 0.732424,-1.006444 3.219689,-3.744546 4.86643,-7.430015 5.706175,-12.773008 0.260259,-1.655929 0.60221,-3.01078 0.760563,-3.01078 z m -27.079324,2.554601 c -2.177012,0 -2.404498,0.628243 -0.300161,0.828961 0.825442,0.07874 1.635875,0.170812 1.800963,0.204569 0.165088,0.03372 0.300161,-0.185037 0.300161,-0.486115 0,-0.405492 -0.466918,-0.547415 -1.800963,-0.547415 z m -5.302836,0.02566 c -1.203924,0.02058 -1.342466,0.08769 -0.700374,0.339284 1.11215,0.435789 2.201177,0.435789 2.201177,0 0,-0.200719 -0.675361,-0.353407 -1.500803,-0.339284 z m 12.706795,0.320752 v 2.198924 c 0,1.209466 -0.135072,2.172591 -0.300161,2.140476 -0.165088,-0.03212 -0.930497,-0.120756 -1.700909,-0.196727 -2.453064,-0.241902 -2.538233,-0.355743 -1.321799,-1.773393 0.61673,-0.718745 1.616957,-1.54595 2.22228,-1.838259 z m -12.885014,1.843251 c 0.483414,0 0.878594,0.154904 0.878594,0.344273 0,0.189372 0.540289,0.635059 1.200642,0.990762 0.660353,0.355702 1.200642,0.775584 1.200642,0.933028 0,0.721664 -1.572201,0.165772 -2.801498,-0.990762 -1.257233,-1.182817 -1.292299,-1.277301 -0.47838,-1.277301 z m -8.932903,1.104091 c 0.338524,-0.04779 1.351129,0.347499 3.375243,1.292271 1.998937,0.933021 3.634756,1.760879 3.634756,1.839682 0,0.964249 -6.900307,-1.879297 -7.136629,-2.940927 -0.02461,-0.110549 0.01379,-0.175096 0.12663,-0.191026 z m 4.572759,0.16109 c 1.041225,0.206842 4.43831,1.755763 4.43831,2.095568 0,0.399628 -0.345073,0.342532 -2.289505,-0.37777 -1.795212,-0.665025 -2.805893,-1.37808 -2.434113,-1.717087 0.03582,-0.03266 0.136561,-0.03025 0.285308,-7.3e-4 z m 0.788702,9.358793 c -0.203281,0.02383 -0.392634,0.248771 -0.769163,0.698523 -1.244394,1.48641 -1.692877,2.814409 -1.411691,4.181164 0.145218,0.705862 0.448039,1.283717 0.673016,1.283717 0.224976,0 0.311951,-0.287393 0.193854,-0.638651 -0.306768,-0.912427 0.387549,-3.373636 1.146707,-4.065692 0.568279,-0.518055 0.689132,-0.522788 1.023983,-0.03992 0.597336,0.861379 0.455224,3.039275 -0.25873,3.968756 -0.610214,0.794422 -0.6056,0.838559 0.07817,0.718481 0.400782,-0.07038 1.05566,-0.637891 1.454685,-1.260907 0.652734,-1.019133 0.668266,-1.257174 0.154771,-2.377831 C 45.70754,86.396839 45.061559,85.515392 44.586305,85.123195 44.155907,84.768017 43.939131,84.590443 43.73585,84.61427 Z m -7.894065,1.054201 c -1.688004,0 -2.490694,0.750914 -2.744436,2.567433 -0.125186,0.89619 -0.41674,1.847192 -0.648003,2.113389 -0.303739,0.349615 -0.261068,0.575931 0.153988,0.815421 0.962504,0.555374 1.174847,0.394942 1.174847,-0.889549 0,-1.540709 1.039805,-3.876808 1.725923,-3.876808 0.8384,0 1.475789,0.806798 1.475789,1.868195 0,1.553011 -0.368611,2.083372 -2.04328,2.941642 -0.857336,0.439384 -1.558646,1.014607 -1.558646,1.278724 0,0.720211 0.415649,0.585631 2.501338,-0.809718 1.785627,-1.194601 1.901016,-1.372744 1.901016,-2.934511 0,-2.200136 -0.551207,-3.074218 -1.938536,-3.074218 z m 15.735758,0.794035 c -0.417179,0.07376 -0.9202,0.514085 -1.535977,1.324346 -0.838893,1.10384 -1.055252,1.814264 -1.055252,3.471237 0,1.146067 0.223291,2.410346 0.496357,2.809061 0.751302,1.097001 1.368328,0.884086 2.48805,-0.858185 1.08689,-1.691187 1.349286,-4.144027 0.62768,-5.87473 -0.272366,-0.653241 -0.603679,-0.945484 -1.020858,-0.871729 z m -0.0094,0.907369 0.29938,1.248077 c 0.164852,0.686217 0.209304,1.661071 0.09849,2.166849 -0.110815,0.505775 -0.655182,1.409009 -1.210019,2.007187 l -1.009136,1.087702 0.141484,-2.189658 c 0.0879,-1.36438 0.431171,-2.590826 0.910643,-3.254552 z m 57.827791,2.292299 c 1.31205,0.01945 2.2035,0.06342 2.28403,0.136854 0.10924,0.09961 -0.0811,0.675312 -0.42366,1.279439 -0.81507,1.437259 -1.17659,11.53049 -0.49791,13.90205 0.36018,1.25862 1.16619,2.25957 3.67382,4.56179 2.43893,2.23913 3.33952,3.34495 3.74029,4.59172 0.29035,0.90324 0.76806,2.15689 1.0615,2.78626 0.61453,1.31801 1.92085,7.04199 2.55136,11.17994 0.23763,1.55949 0.70239,3.21231 1.03338,3.67296 0.497,0.69167 0.51573,1.00614 0.10474,1.80404 -0.2737,0.53138 -0.85811,1.12574 -1.29835,1.3215 -2.01742,0.89706 -2.56306,0.8554 -2.82182,-0.21598 -0.56379,-2.33437 -3.17359,-8.79134 -4.10141,-10.14784 -0.54916,-0.80287 -2.20674,-2.52723 -3.68322,-3.8319 -2.01471,-1.78028 -2.85072,-2.8274 -3.35023,-4.19685 -0.64215,-1.76051 -2.60646,-3.70858 -4.32967,-4.29307 -0.37238,-0.1263 -0.97235,-0.64066 -1.33352,-1.14329 -1.00755,-1.4022 -2.943032,-6.35162 -3.439334,-8.79642 -0.244478,-1.20431 -0.674596,-2.928664 -0.956759,-3.831898 -0.707715,-2.265458 -1.723366,-6.204383 -1.873658,-7.268926 -0.100042,-0.708602 0.106429,-0.939889 1.045871,-1.17181 0.958296,-0.236575 8.67838,-0.396974 12.61455,-0.338569 z m -51.824597,3.670101 c -0.848089,0 -1.11947,0.737507 -0.44555,1.210301 0.740464,0.519482 0.516732,1.896865 -0.509648,3.137653 -0.964004,1.165377 -1.625422,0.689239 -1.632902,-1.176084 -0.0045,-1.121951 -0.109374,-1.383773 -0.393962,-0.982211 -0.441572,0.623067 -0.536451,3.039085 -0.133664,3.406371 0.146743,0.133814 0.773558,0.24306 1.392149,0.24306 1.35442,0 2.145083,-1.002554 2.495866,-3.164028 0.280638,-1.729224 0.0074,-2.675062 -0.772289,-2.675062 z m -15.49344,2.191798 c -0.56798,-0.0046 -3.252843,4.189068 -3.182952,4.971634 0.03817,0.42736 0.2481,1.20743 0.467437,1.73348 0.379371,0.90988 1.619617,1.3629 1.619617,0.59161 0,-0.20072 -0.20044,-0.36494 -0.445551,-0.36494 -0.51697,0 -0.152074,-2.854575 0.542478,-4.244606 0.495761,-0.992189 1.305499,-1.13212 1.661045,-0.287251 0.411027,0.976723 0.269184,3.267117 -0.230593,3.722847 -0.260473,0.23752 -0.33569,0.55779 -0.167277,0.71135 0.513007,0.4678 1.318898,-0.90415 1.589911,-2.707133 0.212241,-1.412001 0.100878,-1.914287 -0.646438,-2.915267 -0.496485,-0.665011 -1.039855,-1.210265 -1.207677,-1.211724 z m 25.239276,0.874578 c 1.200794,0.06 2.726946,0.283973 4.432842,0.665737 l 1.751717,0.392741 -0.238408,4.962368 c -0.13137,2.72958 -0.244815,5.00414 -0.251698,5.05432 -0.02641,0.19196 -1.067907,-0.0146 -2.413791,-0.47898 -0.770412,-0.2658 -2.436303,-0.49263 -3.70198,-0.50394 -2.285102,-0.0204 -2.30123,-0.0284 -2.30123,-1.1155 v -1.09483 l 2.501337,0.0157 c 1.375736,0.009 3.176699,0.23604 4.00214,0.50465 0.825442,0.26862 1.500803,0.34962 1.500803,0.17962 0,-0.58336 -1.48162,-1.0307 -4.572757,-1.38065 -1.702262,-0.19271 -3.175142,-0.4234 -3.272846,-0.51249 -0.0977,-0.0891 -0.06375,-0.43216 0.07504,-0.76196 0.194132,-0.46132 0.789838,-0.59945 2.584198,-0.59945 1.282826,0 2.824018,0.17032 3.424487,0.37849 0.727841,0.25235 1.225391,0.25686 1.492202,0.0135 0.61847,-0.56397 -1.529878,-1.18441 -4.833053,-1.39634 -2.538781,-0.16288 -2.901551,-0.27552 -2.901551,-0.89739 0,-0.654357 0.230123,-0.697063 2.901551,-0.543137 1.595854,0.09195 3.420461,0.29245 4.054512,0.445486 0.895904,0.216232 1.112295,0.164421 0.970832,-0.230228 -0.234742,-0.654883 -3.148616,-1.353118 -5.802323,-1.390631 -2.294163,-0.03244 -3.055602,-0.592262 -1.88538,-1.386356 0.407013,-0.276193 1.282566,-0.380749 2.483356,-0.320752 z M 51.589266,96.97387 c -0.383886,-0.08874 -1.242225,0.381428 -2.155061,1.240234 -1.440146,1.354906 -2.007269,2.986326 -1.7439,5.020106 0.163799,1.26487 0.243726,1.32715 1.719667,1.34573 1.155774,0.0146 1.846255,-0.23552 2.730368,-0.98863 l 1.183445,-1.00858 -0.755872,-2.5268 c -0.416063,-1.389811 -0.761976,-2.649974 -0.768379,-2.800513 -0.0068,-0.160148 -0.08231,-0.251968 -0.210268,-0.281547 z m -20.005231,0.43622 c -0.628482,0.06339 -1.116289,0.345036 -1.812688,0.980073 -1.433102,1.306803 -1.523876,2.486927 -0.359567,4.680107 0.459872,0.86624 0.988919,1.57524 1.17641,1.57524 0.70801,0 0.812597,-0.75819 0.211833,-1.54031 -1.442499,-1.87795 -0.06078,-5.538775 1.612581,-4.272401 0.484888,0.366954 0.599768,0.898424 0.452585,2.089161 -0.144972,1.17281 -0.07854,1.48933 0.248571,1.19105 0.244992,-0.2234 0.449658,-1.34582 0.45493,-2.494729 l 0.0094,-2.089157 -1.305385,-0.114756 c -0.253521,-0.02226 -0.479156,-0.0254 -0.68865,-0.0043 z m 19.392403,0.957264 c 0.09405,0.01146 0.188433,0.0569 0.288434,0.132577 0.839201,0.635092 0.657211,3.468539 -0.277492,4.320869 -0.887363,0.80916 -2.247346,0.96924 -2.494302,0.29366 -0.202548,-0.5541 0.478216,-2.32484 1.475789,-3.838313 0.443209,-0.672419 0.725424,-0.94313 1.007571,-0.908793 z m 31.906905,0.07413 c -0.484127,0 -2.321461,4.556696 -2.248862,5.577496 0.01753,0.2466 0.126111,0.20049 0.243882,-0.10335 0.116699,-0.30108 0.73314,-1.57399 1.369485,-2.82902 1.327397,-2.618004 1.333841,-2.645126 0.635495,-2.645126 z m -39.775177,7.097856 c -0.388167,0.008 -0.826883,0.17007 -1.306167,0.49538 -2.014141,1.36709 -2.084071,3.45833 -0.184473,5.51692 1.233399,1.33662 1.483769,1.36777 2.550583,0.3236 0.583572,-0.57119 0.816061,-1.29164 0.816061,-2.53037 0,-2.47167 -0.711497,-3.82997 -1.876004,-3.80553 z m -7.40943,0.28012 c -0.344629,-0.0495 -0.759158,0.0572 -1.507056,0.28226 -1.209599,0.36402 -1.798513,0.83275 -2.427861,1.93377 -0.951984,1.66546 -0.825628,2.3249 0.489324,2.55389 2.310679,0.4024 3.69637,0.24171 4.600898,-0.53316 1.216129,-1.0418 1.187831,-2.50527 -0.06957,-3.58242 -0.466499,-0.39964 -0.741108,-0.6048 -1.085737,-0.65434 z m 49.9095,0.541 c -0.209764,-0.0179 -0.37937,0.0523 -0.548729,0.20671 -0.681873,0.62178 -0.549242,0.99789 0.351748,0.99789 0.443221,0 1.118582,0.16106 1.500803,0.35781 1.060331,0.54584 8.012884,2.92484 8.590533,2.93951 0.279886,0.007 0.959105,0.24773 1.509399,0.53458 0.550295,0.28685 1.360728,0.52445 1.800963,0.52817 1.509147,0.0128 -1.504676,-1.39284 -6.623073,-3.08919 -2.699516,-0.89468 -5.306025,-1.86428 -5.792157,-2.15473 -0.329613,-0.19693 -0.579726,-0.30288 -0.789487,-0.32075 z m -34.314444,0.41983 c -0.305024,0.0314 -0.623246,0.13741 -0.946599,0.33429 -1.362016,0.8293 -1.708513,2.91178 -0.714446,4.29521 0.78907,1.09815 1.710923,1.14081 3.101659,0.14327 2.168219,-1.55521 0.694615,-4.9928 -1.440614,-4.77277 z m -8.374791,0.0549 c 0.670727,0 1.264797,0.93588 1.262395,1.98866 -0.0016,0.61219 -0.343335,1.58443 -0.759782,2.16043 l -0.757437,1.04779 -0.613607,-0.86532 c -1.099,-1.54833 -1.182551,-2.6228 -0.272021,-3.514 0.459402,-0.44965 0.972931,-0.81756 1.140452,-0.81756 z m -7.670506,0.0699 c 2.049688,-0.1278 2.439244,1.22561 0.393179,2.64868 -1.605161,1.11642 -2.101776,1.15827 -2.650636,0.2231 -0.767057,-1.30694 -0.269917,-2.36371 1.280372,-2.7221 0.358342,-0.0828 0.684272,-0.13143 0.977085,-0.14968 z m 16.378291,0.68426 c 0.830456,0.0277 1.348184,1.55474 0.547164,2.91955 -0.414081,0.70553 -1.217251,0.92144 -1.720448,0.46259 -0.458533,-0.41812 -0.291552,-2.14058 0.275928,-2.84826 0.309085,-0.38545 0.620536,-0.54309 0.897356,-0.53388 z m 12.96787,0.009 2.701444,0.18675 c 4.446902,0.30726 5.098443,0.61125 5.608467,2.61661 0.241333,0.94888 0.5607,2.01232 0.709756,2.36358 0.311875,0.73496 -0.571073,0.82685 -2.211339,0.23023 -0.547572,-0.19918 -2.303019,-0.39437 -3.901306,-0.43337 -2.973814,-0.0726 -3.444938,-0.37457 -2.562306,-1.64367 0.32076,-0.46121 2.967591,-0.42129 5.058173,0.0763 2.897809,0.68967 2.869774,0.68931 2.013577,0.057 -1.021379,-0.75427 -3.341167,-1.31556 -5.612377,-1.35714 -1.704908,-0.0312 -1.804089,-0.0898 -1.804089,-1.06489 z m 20.049001,0.33144 c -0.199107,0 -0.945406,0.94429 -1.658699,2.09842 -0.71329,1.15414 -1.631061,2.313 -2.039371,2.57528 -0.764004,0.49076 -1.023827,1.53033 -0.382236,1.53033 0.198378,0 0.740688,-0.58677 1.204552,-1.30367 1.007819,-1.55759 2.027952,-1.54688 2.527131,0.0264 2.03486,6.41298 2.093223,6.98278 1.157651,11.31324 -1.009111,4.67083 -1.341389,5.66169 -2.813224,8.39369 -0.865083,1.60575 -1.696579,3.37116 -1.847864,3.92314 -0.42614,1.55484 0.35555,1.18375 0.908297,-0.43123 0.270157,-0.78933 0.96825,-2.15576 1.551614,-3.03644 1.046092,-1.57925 1.138553,-1.62502 6.724688,-3.30944 5.571659,-1.68006 8.592399,-2.16405 7.993338,-1.28015 -0.159561,0.23541 0.08705,0.18746 0.547949,-0.10692 1.082171,-0.69118 3.863497,-0.40637 13.202367,1.35072 0.79772,0.15009 1.3007,0.0996 1.3007,-0.13044 0,-0.36739 -4.4856,-1.76235 -6.68874,-2.07989 -0.61335,-0.0884 -1.80434,-0.25929 -2.64594,-0.37991 -1.25044,-0.17922 -1.44506,-0.31233 -1.06698,-0.72775 0.3735,-0.41038 0.16659,-0.62273 -1.07166,-1.10338 -3.752541,-1.4566 -5.252699,-1.92117 -6.936524,-2.14618 -0.990529,-0.13237 -2.521348,-0.38904 -3.401819,-0.57094 -0.880471,-0.18189 -2.096121,-0.42548 -2.701444,-0.541 -1.213997,-0.23165 -1.439714,-0.72871 -0.483071,-1.06346 0.771849,-0.27008 8.301387,0.39778 10.18826,0.9038 1.816848,0.48724 4.266088,1.3426 5.905498,2.06278 1.28106,0.56276 2.20435,0.40091 1.47188,-0.25802 -0.7661,-0.68919 -6.482603,-2.54133 -8.98605,-2.9117 -1.426531,-0.21105 -3.903987,-0.38487 -5.505288,-0.38633 -2.804615,-0.003 -2.927065,-0.0397 -3.338505,-1.00645 -0.234918,-0.55197 -0.575516,-1.90682 -0.757437,-3.01078 -0.181925,-1.10395 -0.896639,-3.02693 -1.587565,-4.27311 -1.001515,-1.80636 -1.169841,-2.41173 -0.832477,-2.98655 0.517829,-0.88237 0.531212,-1.13404 0.06097,-1.13404 z m 31.278443,0.36637 c 0.27514,7.3e-4 1.49079,0.56592 2.70144,1.25592 1.21065,0.68999 3.41683,1.87371 4.90262,2.63015 1.4858,0.75644 2.70145,1.47188 2.70145,1.5895 0,0.1176 -1.26481,0.41135 -2.80932,0.65291 -3.66182,0.5726 -3.49186,0.60012 -3.78405,-0.61299 -0.24107,-1.00082 -2.61799,-3.90959 -3.70276,-4.53114 -0.6533,-0.37432 -0.65933,-0.98617 -0.009,-0.98435 z m -3.42527,4.75424 c -0.8508,-0.0138 -0.75403,0.17031 1.48986,2.8169 0.89342,1.05378 1.83225,1.91596 2.08627,1.91596 0.78621,0 -2.78018,-4.71998 -3.57613,-4.73286 z m -47.50196,0.25731 3.101658,0.2673 c 1.705913,0.1467 3.782663,0.28271 4.614968,0.30293 1.242288,0.0302 1.556036,0.19216 1.751717,0.90309 0.416951,1.51487 0.410527,1.51536 -7.767434,0.59445 -1.505405,-0.16951 -1.700909,-0.29957 -1.700909,-1.12975 z m 44.67857,2.18681 c -0.0855,-0.0337 -0.14315,-0.0232 -0.16571,0.0385 -0.19596,0.53608 0.64265,1.76021 2.41066,3.51685 0.71309,0.70851 1.52273,1.288 1.7994,1.288 0.81121,0 0.58027,-0.59983 -0.47369,-1.22955 -0.53739,-0.32108 -1.56088,-1.3577 -2.27465,-2.3037 -0.53533,-0.7095 -1.03947,-1.209 -1.29601,-1.31009 z m 37.02292,1.64296 c -0.0806,-7.3e-4 -0.17732,0.0194 -0.29077,0.0592 -0.34818,0.12183 -1.60886,0.22167 -2.8015,0.22167 -1.93834,0 -2.16835,0.0817 -2.16835,0.76909 0,0.55121 0.17933,0.70622 0.63315,0.54742 0.34818,-0.12184 1.60885,-0.22168 2.8015,-0.22168 1.93833,0 2.16835,-0.0817 2.16835,-0.76909 0,-0.4134 -0.10051,-0.60413 -0.34238,-0.60657 z m -54.928582,0.30079 c -0.959977,0.0255 -1.559426,0.13404 -1.559426,0.34499 0,0.20071 0.270145,0.38545 0.600321,0.41056 5.033116,0.38246 10.226757,1.07606 13.006947,1.73704 1.65089,0.39249 3.06893,0.72669 3.15091,0.74272 0.082,0.016 -0.0669,-0.20775 -0.33065,-0.49752 -0.26373,-0.28977 -1.59172,-0.86099 -2.95079,-1.26947 -2.91345,-0.87564 -9.037376,-1.54473 -11.917312,-1.46832 z m 54.970802,3.51614 c -0.23189,-0.0376 -0.65754,0.0157 -1.38121,0.14327 -0.94633,0.16683 -1.94557,0.31057 -2.22072,0.31932 -0.27515,0.009 -0.50027,0.28058 -0.50027,0.60444 0,0.46889 0.26495,0.54146 1.3007,0.35568 0.71538,-0.12832 1.66089,-0.28343 2.10112,-0.34499 0.44024,-0.0616 0.85417,-0.36544 0.92002,-0.675 0.0504,-0.23673 0.0122,-0.36513 -0.21964,-0.40272 z m -75.29964,1.3664 c -1.80274,-0.0623 -4.417006,0.0473 -7.510264,0.34071 -6.187249,0.58697 -7.3383,0.80262 -7.3383,1.3721 0,0.18307 0.405216,0.24363 0.900481,0.13471 3.237383,-0.71192 10.20691,-1.06389 15.467647,-0.78049 0.528019,0.0284 1.033405,-0.1406 1.123257,-0.37564 0.151053,-0.39512 -0.840077,-0.62909 -2.642821,-0.69139 z m 16.223519,0.57165 c 1.284507,0 9.562621,1.94533 13.318841,3.12981 1.26871,0.40007 -0.43708,0.98206 -3.785619,1.29156 -3.63077,0.33558 -5.736076,0.81221 -9.303411,2.1084 -2.228448,0.80971 -2.8867,0.92853 -2.8867,0.52104 0,-0.59421 2.432961,-7.05081 2.656889,-7.05081 z m -46.954013,0.45404 c -0.711745,0.0398 -0.907506,0.14921 -0.837167,0.34284 0.128486,0.3537 1.726524,0.54057 6.062618,0.70851 3.238128,0.12541 5.996235,0.32793 6.129838,0.44976 0.226045,0.20612 2.118501,-0.0705 2.491961,-0.36423 0.60696,-0.47729 -1.411975,-0.69337 -9.913897,-1.06062 -1.993675,-0.0861 -3.221609,-0.11605 -3.933353,-0.0763 z m 105.747944,0.30435 c -0.15249,-0.0126 -0.342,-0.006 -0.57609,0.0171 -0.31211,0.0313 -0.70387,0.0933 -1.19282,0.18247 -1.21068,0.2208 -1.71114,1.03093 -0.80668,1.30581 0.24417,0.0742 1.0546,0.0702 1.80096,-0.009 1.00815,-0.10732 1.35698,-0.32207 1.35698,-0.83466 0,-0.41674 -0.12487,-0.62367 -0.58235,-0.66146 z m -109.399116,0.0634 c -1.417911,-0.077 -4.834819,0.21951 -9.482414,0.84108 -2.201177,0.29439 -5.062022,0.62162 -6.357305,0.72704 -1.295284,0.10542 -2.647572,0.33424 -3.005514,0.50892 -0.357941,0.17469 -1.099023,0.2417 -1.646974,0.14826 -1.494983,-0.25491 -2.516448,0.59117 -2.181636,1.80761 l 0.273584,0.99361 1.303823,-0.73487 c 0.716804,-0.40397 1.689041,-0.73416 2.161311,-0.73416 0.47227,0 1.171737,-0.14999 1.553956,-0.33287 1.047252,-0.50109 9.388957,-1.77341 15.802982,-2.41062 1.265677,-0.12574 2.30123,-0.40071 2.30123,-0.61086 0,-0.11038 -0.250405,-0.17748 -0.723043,-0.20314 z m -3.127453,2.4983 c -3.217351,0.23176 -9.309644,1.84042 -11.747688,3.3636 -0.995941,0.62222 -3.206871,2.44286 -4.912783,4.04574 -2.995393,2.81447 -3.101659,2.97441 -3.101659,4.6687 0,0.96492 0.09637,1.75415 0.214177,1.75415 0.117803,0 0.666294,-0.27015 1.218621,-0.60016 0.822194,-0.49124 1.613086,-0.55698 4.36327,-0.36423 1.847497,0.12949 3.814077,0.39307 4.370306,0.58591 0.662378,0.22966 1.097141,0.22392 1.260049,-0.0164 0.492202,-0.72621 -0.718877,-1.38825 -2.950015,-1.61231 -3.436341,-0.34508 -4.588939,-0.59218 -4.213972,-0.9038 0.527019,-0.43798 8.586448,-2.20398 10.045215,-2.20106 0.927165,0.002 1.300695,-0.16502 1.300695,-0.58163 0,-0.50571 -0.383931,-0.5495 -2.850743,-0.3236 -1.567999,0.14359 -4.30872,0.72639 -6.090757,1.29512 -1.782036,0.56873 -3.318151,0.96299 -3.413544,0.876 -0.09539,-0.087 0.341909,-0.52992 0.972395,-0.98435 2.491018,-1.79541 4.753906,-2.7167 8.981365,-3.65655 3.52039,-0.78266 4.903392,-1.37292 3.181389,-1.35785 -1.685333,0.0148 -6.477508,1.35391 -8.984492,2.51041 -2.973822,1.37186 -3.284823,1.39107 -2.203522,0.13757 1.423857,-1.65061 3.944065,-2.92375 8.181719,-4.13341 2.214793,-0.63223 4.339837,-1.29734 4.722056,-1.47831 0.382219,-0.18102 1.428233,-0.32931 2.324681,-0.32931 1.110978,0 1.540708,-0.13123 1.349941,-0.4127 -0.191696,-0.28283 -0.944253,-0.3588 -2.016704,-0.28154 z m 28.405034,0.33857 c -4.10058,0.0704 -7.968436,0.33367 -8.051961,0.72917 -0.09679,0.45828 0.336288,0.51739 2.660014,0.35995 1.526597,-0.10342 5.794767,-0.18101 9.48554,-0.17178 6.094111,0.0152 6.58577,-0.0292 5.352082,-0.48825 -1.012337,-0.37667 -5.345098,-0.49955 -9.445675,-0.42909 z m -24.062868,0.0919 c -0.254983,0.005 -0.448595,0.0783 -0.606575,0.22239 -0.326841,0.29804 -0.0247,0.39894 1.135764,0.37778 1.563292,-0.0285 1.567767,-0.0333 0.444769,-0.40629 -0.402936,-0.13384 -0.718976,-0.19852 -0.973958,-0.19388 z m 10.128073,0.26373 c -2.489483,0 -4.216318,0.14645 -4.216318,0.35782 0,0.47113 1.228589,0.70737 4.402354,0.84678 1.430765,0.0629 2.730136,0.14594 2.88748,0.18461 0.157344,0.0387 0.47884,-0.25788 0.714446,-0.65932 0.415774,-0.70843 0.30435,-0.72989 -3.787962,-0.72989 z m -6.317442,0.006 c -0.987017,0.004 -1.155921,0.0908 -0.700374,0.35925 0.786618,0.46355 2.00107,0.46355 2.00107,0 0,-0.20072 -0.585313,-0.36216 -1.300696,-0.35925 z m 103.699982,0.0456 c -0.64395,0.0272 -1.31947,0.23128 -1.44765,0.58733 -0.11086,0.30794 0.30137,0.45618 1.26943,0.45618 1.03377,0 1.43436,-0.15895 1.43436,-0.57022 0,-0.35064 -0.6122,-0.50051 -1.25614,-0.47329 z m 0.39943,2.9281 c -0.44408,0.0272 -0.91992,0.22785 -1.04666,0.57878 -0.10328,0.28599 0.22105,0.45618 0.86922,0.45618 0.67256,0 1.03415,-0.20046 1.03415,-0.57308 0,-0.34316 -0.41265,-0.48909 -0.85671,-0.46188 z m -80.033419,0.0663 c -1.314371,-0.0405 -2.718882,-0.0371 -4.155346,0.0171 -3.081648,0.1163 -6.143285,0.26497 -6.803638,0.33073 -0.660353,0.0658 -1.779628,0.15076 -2.487266,0.18818 -0.856422,0.0453 -1.440242,0.32967 -1.746246,0.85105 -0.42241,0.71972 -0.382937,0.762 0.486196,0.51891 3.525121,-0.98595 17.240615,-1.23147 21.556839,-0.38561 1.045655,0.20491 1.293003,0.16863 0.974741,-0.14399 -0.749917,-0.73661 -3.88216,-1.25479 -7.82528,-1.37637 z m -27.956354,0.0335 c -2.871244,0.0851 -1.235502,0.51857 4.732219,0.88456 2.783905,0.17073 5.466515,0.33397 5.96178,0.3628 0.867644,0.0505 1.230662,-0.4476 0.589379,-0.809 -0.171039,-0.0964 -3.277704,-0.27309 -6.903693,-0.39203 -1.965072,-0.0645 -3.422604,-0.0747 -4.379685,-0.0463 z m 60.05555,1.58807 c -3.673292,0.0371 -6.809561,0.37879 -7.900316,1.0093 -0.473942,0.27396 -1.251718,0.99704 -1.728269,1.60731 -1.069167,1.36918 -0.306419,1.50354 1.17719,0.20742 1.309816,-1.14429 4.727752,-1.62121 12.312838,-1.71922 4.3225,-0.0558 6.12964,0.0782 8.39276,0.62226 1.58626,0.3813 3.01176,0.57664 3.1681,0.43408 0.47189,-0.4303 0.10691,-0.54484 -4.3023,-1.3443 -3.23642,-0.58682 -7.44671,-0.85395 -11.120003,-0.81685 z m 48.214053,0.80687 c -0.66861,0 -1.11998,0.52117 -0.74649,0.86175 0.47832,0.43617 1.32337,0.23535 1.32337,-0.31434 0,-0.30107 -0.25969,-0.54741 -0.57688,-0.54741 z m -110.482506,0.72988 c -0.330176,0 -0.600321,0.16423 -0.600321,0.36495 0,0.20072 0.270145,0.36494 0.600321,0.36494 0.330177,0 0.600321,-0.16422 0.600321,-0.36494 0,-0.20072 -0.270144,-0.36495 -0.600321,-0.36495 z m 22.017242,0.11191 c -5.339203,0.0168 -9.810714,0.67194 -9.810714,1.76841 0,0.2378 0.357899,0.29787 0.900481,0.15182 0.495265,-0.13331 2.4313,-0.53314 4.302301,-0.88884 3.037988,-0.57755 3.958268,-0.59949 8.604601,-0.20243 2.86153,0.24455 5.832226,0.62573 6.601186,0.84679 1.817339,0.52242 2.509638,0.50881 2.306701,-0.0463 -0.0902,-0.24676 -1.501219,-0.66456 -3.135268,-0.92803 -3.049659,-0.49172 -6.565767,-0.71146 -9.769288,-0.70138 z m -12.912373,0.0513 c -1.265677,0.0384 -3.651953,0.10181 -5.302835,0.14113 -1.653702,0.0394 -2.778064,0.20107 -2.503683,0.35995 0.273914,0.15862 2.435069,0.26522 4.802568,0.23665 5.115067,-0.0617 5.305181,-0.0789 5.305181,-0.48897 0,-0.17503 -1.035554,-0.28718 -2.301231,-0.24876 z m 51.208631,1.45835 c -1.875435,0.0402 -3.304067,0.17173 -3.748096,0.42196 -0.188733,0.10637 -1.556709,0.39759 -3.039906,0.64721 -1.96036,0.32992 -2.731733,0.62254 -2.826511,1.0713 -0.165889,0.78549 0.07166,0.77518 2.637346,-0.11404 2.523789,-0.8747 10.280421,-1.18107 16.869173,-0.66645 2.48309,0.19395 4.31627,0.19189 4.53211,-0.005 0.85039,-0.77545 -8.79778,-1.47567 -14.424116,-1.35499 z m 30.684376,0.0991 c -0.2646,0.0184 -0.4433,0.0572 -0.51434,0.11975 -0.51706,0.45567 1.1016,0.93003 4.1233,1.20816 2.85208,0.26252 7.8859,1.52602 8.25598,2.07205 0.28969,0.42742 1.26885,0.46722 1.54301,0.0627 0.36734,-0.54199 -0.34214,-0.98864 -2.95158,-1.85751 -2.55839,-0.85187 -8.60418,-1.7336 -10.45637,-1.60518 z m -85.094719,1.06917 c -1.92603,0.0405 -5.077715,0.0866 -7.003745,0.10193 -2.047361,0.0163 -3.501873,0.17938 -3.501873,0.39274 0,0.20775 1.179615,0.36495 2.738965,0.36495 4.140876,0 11.268526,-0.44534 11.268526,-0.70423 0,-0.12574 -1.575843,-0.19592 -3.501873,-0.15539 z m 104.779459,0.12973 c -0.50466,0 -0.86613,0.57019 -0.54638,0.86175 0.45071,0.41099 0.92315,0.25002 0.92315,-0.31434 0,-0.30107 -0.16964,-0.54741 -0.37677,-0.54741 z m -88.362869,0.46972 c -1.192077,-0.0335 -2.34635,-0.0274 -3.30411,0.0321 -7.05709,0.438 -10.373559,1.22885 -10.404784,2.48119 -0.0032,0.13515 0.489013,0.0227 1.094337,-0.25019 0.605324,-0.27286 1.820974,-0.58878 2.701445,-0.70137 2.450174,-0.31333 5.534623,-0.85237 6.203317,-1.08414 0.650099,-0.22533 5.046346,0.23111 8.103553,0.84108 1.865161,0.37213 3.102439,0.24037 3.102439,-0.33002 0,-0.43292 -3.919968,-0.88821 -7.496197,-0.98862 z m 38.329092,1.7962 c -1.179475,0.019 -2.200593,0.1084 -2.817915,0.28868 -1.290658,0.37691 -1.248227,0.38541 2.981282,0.59446 1.969674,0.0974 4.22088,0.31839 5.00267,0.4911 1.73871,0.38412 2.91441,0.31498 3.09306,-0.18104 0.24215,-0.67232 -4.72068,-1.25022 -8.259097,-1.1932 z m -54.162558,0.11833 c -0.342549,-0.0543 -0.852926,0.005 -1.522689,0.18033 -0.744419,0.19468 -3.693572,0.4297 -6.554286,0.52175 -3.498647,0.11258 -5.253158,0.30817 -5.359115,0.59803 -0.117584,0.32166 0.845148,0.37447 3.796561,0.20884 6.964029,-0.39081 10.156994,-0.70677 10.156994,-1.00502 0,-0.28141 -0.174914,-0.44959 -0.517465,-0.50393 z m 85.413635,0.009 c -0.38857,0.0228 -0.69878,0.0757 -0.83638,0.15324 -0.9474,0.53392 0.46113,0.87823 4.57901,1.11907 6.29962,0.36837 6.89052,0.36856 6.2041,0.002 -0.54946,-0.29356 -4.28758,-0.83291 -8.63978,-1.24666 -0.45196,-0.043 -0.91837,-0.0505 -1.30695,-0.0278 z m -36.470276,0.5738 c -0.181345,0 -0.362694,0.0256 -0.500267,0.0763 -0.275147,0.10124 -0.05003,0.1839 0.500267,0.1839 0.550294,0 0.775415,-0.0827 0.500268,-0.1839 -0.137574,-0.0506 -0.318923,-0.0763 -0.500268,-0.0763 z m -3.511253,0.3179 c -1.858214,0 -2.792386,0.33405 -2.268401,0.81185 0.224384,0.20462 3.79733,-0.34283 4.112355,-0.63009 0.109806,-0.10013 -0.719669,-0.18176 -1.843954,-0.18176 z m -34.108863,0.42909 -1.400749,0.0221 1.200642,0.27869 c 0.660353,0.15322 2.011075,0.27939 3.001605,0.28012 l 1.800963,7.3e-4 -1.600856,-0.3015 c -0.880471,-0.16607 -2.231193,-0.29231 -3.001605,-0.28012 z m -2.779611,0.13115 c -0.542854,-0.061 -2.183627,0.15912 -4.024027,0.57094 -1.024356,0.22921 -0.701732,0.2594 1.200642,0.11333 1.430765,-0.10986 2.766091,-0.34707 2.96721,-0.52674 0.09634,-0.0861 0.03714,-0.13719 -0.143825,-0.15753 z m 89.002273,0.16964 c -0.34317,0 -0.5128,0.16423 -0.37676,0.36495 0.13604,0.20072 0.41664,0.36494 0.62377,0.36494 0.20712,0 0.37676,-0.16422 0.37676,-0.36494 0,-0.20072 -0.2806,-0.36495 -0.62377,-0.36495 z m -95.764485,0.006 c -0.295458,-0.003 -0.979551,0.31119 -1.51956,0.69852 -0.702044,0.50356 -1.35975,0.64797 -2.309048,0.5075 -0.730198,-0.10805 -1.673448,-0.0278 -2.095652,0.17819 -0.422204,0.20605 -3.013103,0.56274 -5.757766,0.79262 -6.307899,0.52836 -6.791132,0.62317 -6.791132,1.33362 0,0.44628 0.258107,0.53124 1.100589,0.36209 0.605324,-0.12154 2.631407,-0.32722 4.502407,-0.45761 1.871001,-0.13038 3.888474,-0.46088 4.482866,-0.73416 0.594393,-0.27328 1.773555,-0.49681 2.620933,-0.49681 0.847378,0 1.757252,-0.19678 2.021393,-0.43765 0.373533,-0.34061 0.479945,-0.31131 0.479945,0.13187 0,0.40727 0.278274,0.52083 0.976303,0.39916 0.949658,-0.16554 2.711408,-1.54769 1.987001,-1.55885 -0.199206,-0.003 -0.09177,-0.16467 0.238408,-0.35924 0.455135,-0.26821 0.470591,-0.35501 0.06331,-0.35925 z m 52.543725,1.53105 c -3.299036,0.0202 -8.983712,0.35943 -8.983712,0.63295 0,0.14488 0.135072,0.38874 0.300161,0.54172 0.165088,0.15296 1.110594,0.15737 2.101123,0.01 0.99053,-0.14731 3.474802,-0.30742 5.52092,-0.35568 3.859264,-0.091 4.768678,-0.29373 3.266591,-0.72846 -0.270557,-0.0783 -1.105407,-0.10723 -2.205083,-0.1005 z m -44.17284,0.88456 c -1.72734,-0.0379 -4.152513,0.0732 -6.723127,0.34498 -2.921975,0.3089 -5.494895,0.45855 -5.717902,0.33287 -0.223006,-0.12568 -1.348451,0.53791 -2.501337,1.47403 l -2.096434,1.70141 -9.004815,-0.22453 c -4.952648,-0.12357 -9.673638,-0.30439 -10.490766,-0.402 -1.663327,-0.19871 -2.316082,0.42933 -2.316082,2.22672 v 0.98791 l 3.934917,-0.24662 c 3.879043,-0.24364 42.080237,-0.27885 99.820556,-0.0919 l 29.51579,0.0955 v -1.0257 -1.02497 l -4.50241,-0.0413 c -18.80254,-0.17245 -88.23032,-0.16747 -90.148201,0.006 -1.320707,0.11971 -3.821324,0.13529 -5.55688,0.0349 -1.73556,-0.10036 -4.707144,-0.0811 -6.603529,0.0428 -1.896386,0.12387 -3.59628,0.10327 -3.777802,-0.0456 -0.640238,-0.52513 3.347406,-1.88008 7.583743,-2.5767 2.358133,-0.38779 5.777878,-0.70494 7.598595,-0.70494 1.820718,0 3.406262,-0.14169 3.523761,-0.31505 0.219125,-0.32331 -0.810738,-0.51026 -2.538077,-0.54813 z m 12.076769,1.61873 c -0.9355,-0.0141 -1.700909,0.13856 -1.700909,0.33928 0,0.43734 1.48529,0.43734 2.601391,0 0.619915,-0.24291 0.416839,-0.31943 -0.900482,-0.33928 z" />
    <g
       aria-label="XVI"
       id="text889"
       style="font-size:40px;line-height:1.25;font-family:Hultog;-inkscape-font-specification:Hultog"
       transform="matrix(0.40021401,0,0,0.36494309,2.5614846,2.4614502)">
      <path
         d="m 288.7091,59.008964 q -0.51376,2.715597 -1.54128,2.422019 l -3.57187,-1.003058 q -4.30581,0 -4.89296,1.247706 l -1.66361,-1.174312 q 0.95413,-2.07951 2.17737,-2.07951 0.29358,0 0.56269,0.09786 0.24465,-0.220184 0.24465,-0.562691 0,-0.513762 -0.53823,-1.394496 -1.71254,-1.223241 -4.50153,-6.776758 h -0.17125 q -0.51376,-0.02446 -0.75841,0.464832 -2.49541,5.333333 -4.4526,7.168195 l 0.19572,0.880734 q 2.2263,0.293578 2.2263,1.810398 0,0.611621 -0.4159,1.590214 -0.9052,-0.70948 -1.78594,-0.880734 -0.36697,-0.04893 -1.98165,-0.04893 -3.08257,0 -4.52599,0.733945 l -1.05199,-0.587156 V 58.9845 l 2.88685,-0.733945 q 0.68502,-0.171254 6.94801,-9.174312 1.24771,-0.391438 1.24771,-1.174312 0,-0.782875 -0.9052,-1.492355 -1.2477,-1.027523 -1.37003,-1.198777 -0.78287,-1.076452 -2.10397,-3.400611 -1.32111,-2.324159 -2.07952,-3.376147 0,0 -1.83486,-1.639144 l -3.27829,-0.733945 0.9786,-2.103975 5.3578,0.685015 3.00917,-0.685015 1.37003,0.464832 v 1.663608 q -1.68807,0.318043 -1.66361,1.370031 v 0.171253 l 4.64832,6.874618 0.75841,-0.195718 q 0.92966,-3.571866 3.47401,-5.993884 V 37.06401 l -1.8838,-0.685015 -0.4159,-1.859327 1.05199,-0.538226 3.91437,0.66055 q 1.66361,-0.587156 2.88685,-0.587156 1.49236,0 1.8104,1.003058 -0.80734,2.152905 -3.18043,2.152905 -1.85932,2.422019 -3.71865,4.844037 -2.78899,3.743119 -3.10704,4.892966 1.54129,1.761468 4.40367,5.333334 0.4893,1.076452 1.61468,3.058104 0.95413,1.003058 2.78899,2.93578 z"
         id="path2159" />
      <path
         d="m 317.23508,34.617527 -0.41591,1.737003 -2.6422,1.443425 q -2.81345,7.241591 -3.74312,9.51682 -3.03364,7.363914 -4.28134,8.978593 l -1.68808,5.7737 q -2.2263,0 -2.66666,-1.712538 l -0.95413,-3.743119 -0.97859,-1.370031 -0.31805,-2.055046 q -0.0245,-0.04893 -1.59021,-3.033639 -1.02752,-1.957186 -0.97859,-3.180428 -0.66056,-1.027523 -1.95719,-3.082569 -0.19572,-0.562691 -0.53823,-1.614678 -0.95413,-2.593273 -1.8104,-3.865444 -1.3211,-1.957186 -3.08256,-1.859327 -0.0979,-0.513762 -0.0979,-1.027523 0,-1.443425 1.39449,-1.908257 l 3.57187,1.370031 3.62079,-1.027523 1.29664,0.880734 q 0.0489,0.269113 0.0489,0.342507 0,1.198777 -2.20184,2.201835 0.34251,1.321101 1.17432,3.767584 1.51682,2.837921 4.20795,8.611621 0,0 0.95412,4.159021 l 0.75841,1.027523 q 0.70948,-0.244648 0.70948,-0.587156 v -2.12844 l 6.263,-14.776758 q 0,-0.318043 -1.68807,-1.418961 -0.0979,-0.415902 -0.0979,-0.831804 0,-0.513761 0.29358,-0.905199 0.31804,-0.391437 0.8318,-0.293578 l 3.1315,0.636086 q 1.07645,-0.70948 1.93272,-0.70948 0.85627,0 1.54129,0.685015 z"
         id="path2161" />
      <path
         d="m 330.2993,59.473796 q -0.4159,2.470948 -1.46789,2.2263 l -4.52599,-1.027523 q 0,0 -3.32722,0.318043 -0.95413,0.66055 -1.66361,0.66055 -1.00305,0 -1.56575,-1.46789 l 1.24771,-1.810397 q 0.58716,0.195718 1.22324,0.195718 2.10398,0 2.10398,-3.400611 0,-0.660551 -0.0979,-1.981652 -0.0979,-1.3211 -0.0979,-1.981651 0,-1.932722 0.0979,-5.82263 0.0979,-3.889908 0.0979,-5.82263 0,-1.663608 -0.9786,-2.617737 -0.66055,0.244648 -1.3211,0.244648 -1.14984,0 -1.93272,-0.929663 0.4159,-2.446483 1.44343,-2.2263 l 4.47706,0.978593 4.25688,-1.027522 1.76147,0.905198 -0.51376,1.761468 q -0.4893,-0.122324 -0.83181,-0.122324 -2.25076,0 -2.25076,3.840979 0,0.391437 0.0245,1.027523 0.0245,0.61162 0.0245,0.831804 0,1.614679 -0.0979,15.437309 l 1.02752,1.100917 q 0.66055,-0.220183 1.19878,-0.220183 1.07645,0 1.68807,0.929663 z"
         id="path2163" />
    </g>
  </g>
</svg>
