<?xml version="1.0" encoding="UTF-8" standalone="no"?>
<!-- Created with Inkscape (http://www.inkscape.org/) -->

<svg
   version="1.1"
   id="svg2"
   width="4cm"
   height="4cm"
   viewBox="0 0 151.1811 151.1811"
   sodipodi:docname="17.svg"
   inkscape:version="1.1.2 (0a00cf5339, 2022-02-04)"
   xmlns:inkscape="http://www.inkscape.org/namespaces/inkscape"
   xmlns:sodipodi="http://sodipodi.sourceforge.net/DTD/sodipodi-0.dtd"
   xmlns="http://www.w3.org/2000/svg"
   xmlns:svg="http://www.w3.org/2000/svg">
  <defs
     id="defs6" />
  <sodipodi:namedview
     id="namedview4"
     pagecolor="#505050"
     bordercolor="#eeeeee"
     borderopacity="1"
     inkscape:pageshadow="0"
     inkscape:pageopacity="0"
     inkscape:pagecheckerboard="0"
     showgrid="false"
     inkscape:zoom="1.8914141"
     inkscape:cx="191.39119"
     inkscape:cy="27.757009"
     inkscape:window-width="1920"
     inkscape:window-height="1043"
     inkscape:window-x="0"
     inkscape:window-y="0"
     inkscape:window-maximized="1"
     inkscape:current-layer="g8"
     units="cm"
     width="4cm"
     inkscape:document-units="cm" />
  <!-- Border -->
    <rect
       x="0"
       y="0"
       width="4cm"
       height="4cm"
       class="board-border"
       stroke-width="0.1cm"
       id="border"
       fill="none"
       stroke="#000000" />
  <g
     inkscape:groupmode="layer"
     inkscape:label="Image"
     id="g8">
    <path
       id="path12"
       style="fill:#000000;stroke-width:0.396412"
       d="m 105.29602,9.4061072 c -2.78426,0.02916 -5.990502,0.8094948 -9.643653,2.3409108 -5.281088,2.213855 -5.852329,3.174733 -4.545749,7.646772 0.819148,2.803711 0.8321,6.258561 0.03703,9.819496 -0.576548,2.58224 -1.001152,5.430512 -1.132697,7.598066 -0.04797,0.790292 0.150216,0.997371 1.04999,1.097398 1.009883,0.112267 1.634857,0.850825 0.719951,0.850825 -0.799227,0 -3.257274,2.467123 -4.397665,4.413938 -0.649175,1.108239 -1.582153,3.593255 -2.073196,5.521994 -0.491041,1.928741 -0.965564,3.581932 -1.053926,3.673463 -0.08836,0.09153 -0.691665,-0.32545 -1.340645,-0.926165 -1.208964,-1.119059 -1.990738,-1.617628 -4.457524,-2.843949 -3.058371,-1.520416 -4.773235,-2.839307 -5.787929,-4.451991 -1.566293,-2.489364 -3.055173,-3.97075 -5.196378,-5.167354 -2.657947,-1.485384 -3.234249,-1.062956 -0.982247,0.719929 1.946855,1.541301 5.917112,6.395534 5.917112,7.234298 0,0.264307 -0.453708,1.001005 -1.00824,1.637723 -0.554532,0.636713 -1.00824,1.407286 -1.00824,1.712304 0,0.663747 0.147284,0.656161 -2.500908,0.130137 -2.69543,-0.535406 -8.802096,-2.669095 -9.583797,-3.348507 -0.774212,-0.672908 -0.111495,-0.649011 2.002301,0.07153 1.986822,0.677263 3.474816,0.751542 3.83289,0.191779 0.295475,-0.461909 0.0751,-0.532434 -3.631242,-1.171218 -1.552691,-0.267604 -3.276781,-0.733158 -3.831313,-1.034232 -0.748966,-0.406638 -0.800822,-0.499123 -0.201649,-0.359966 4.057789,0.942437 8.670867,1.293943 8.670867,0.660573 0,-0.384116 -4.356296,-1.20927 -6.384996,-1.20927 -0.702723,0 -1.277631,-0.197885 -1.277631,-0.439874 0,-0.312841 0.728326,-0.351011 2.520602,-0.131656 1.38633,0.169674 3.277575,0.32372 4.202313,0.342462 1.113513,0.02256 1.998829,0.313866 2.621426,0.86224 0.909525,0.801094 2.461994,1.704695 2.929409,1.704695 0.699615,0 0.04718,-0.848778 -1.082281,-1.407895 -1.684459,-0.833859 -1.949865,-1.255169 -1.689589,-2.683372 0.181439,-0.995573 0.03311,-1.266453 -1.000364,-1.824934 -0.667403,-0.360652 -1.332793,-1.114152 -1.478492,-1.675017 -0.170953,-0.658074 -0.495885,-0.977099 -0.916869,-0.898769 -1.151105,0.214178 -0.941927,1.339864 0.52854,2.846228 1.884654,1.930701 1.830754,2.303723 -0.28278,1.964206 -5.266636,-0.846027 -5.756516,-0.870785 -7.023814,-0.359202 -0.709083,0.286245 -1.403124,0.697959 -1.542289,0.915513 -0.484617,0.757578 -0.851814,0.380387 -1.982611,-2.039547 -0.625884,-1.339403 -1.841705,-3.142649 -2.702557,-4.006793 l -1.565136,-1.570754 2.444983,-2.07988 c 3.385897,-2.879502 5.036636,-5.43369 5.788716,-8.958016 0.338078,-1.584267 0.703671,-2.965964 0.812109,-3.070734 0.432019,-0.417393 -0.690423,-1.684788 -2.107065,-2.378961 -2.873449,-1.408028 -10.304442,-1.728907 -13.782963,-0.595121 -1.007365,0.32834 -2.594731,1.027007 -3.527265,1.552489 -0.932535,0.525482 -1.839952,0.93199 -2.016481,0.903336 -0.926678,-0.150414 -1.35423,0.173034 -1.986549,1.501501 -0.382514,0.803641 -1.050895,1.960586 -1.485579,2.57074 -0.434684,0.610154 -1.305753,2.443239 -1.935349,4.073763 -0.832583,2.15622 -1.505013,3.22956 -2.465462,3.936017 -3.722668,2.738206 -5.928641,5.718833 -7.382211,9.973224 -1.061194,3.105961 -1.063836,3.146539 -0.775872,11.299688 0.15895,4.500393 0.325528,9.686109 0.370213,11.523431 0.04468,1.837317 0.208191,3.539619 0.363911,3.78305 0.267661,0.418424 -0.197619,1.507331 -1.202011,2.811985 -0.247475,0.321458 -0.579244,1.110488 -0.737275,1.7534 -0.158033,0.642914 -1.876998,4.325054 -3.819499,8.182534 -4.643419,9.221045 -4.737352,9.458218 -4.02666,10.13456 0.310216,0.295226 2.106593,1.180938 3.992002,1.968771 2.494102,1.042174 4.04887,1.445568 5.70601,1.479435 l 2.277206,0.04641 0.488366,2.146859 c 0.441329,1.941147 1.396283,4.782307 2.490669,7.407797 1.601526,3.84215 2.515115,8.48366 1.951103,9.91691 -0.291795,0.7415 -0.719715,0.94148 -2.300836,1.07684 -1.689307,0.14465 -9.81452,0.28707 -17.1960128,0.30138 -2.0253148,0.004 -2.3268161,0.0984 -2.1937104,0.68644 0.084891,0.37503 0.3298702,0.65099 0.5442922,0.61339 0.2144219,-0.0376 5.057855,-0.17141 10.763754,-0.29757 l 10.374635,-0.22906 v 1.47487 1.47562 l -4.537081,-0.34855 c -4.312063,-0.33113 -13.678399,0.12636 -15.3614874,0.75037 -1.0756613,0.39879 -0.8533247,1.47929 0.2378817,1.156 2.0003257,-0.59264 9.2760147,-1.02503 14.3989327,-0.85616 5.532481,0.18237 5.844362,0.27775 6.03999,1.84625 0.01559,0.12499 -3.374454,0.17236 -7.533446,0.10578 -8.918387,-0.14277 -12.8046526,0.17008 -12.8046526,1.03043 0,0.39082 0.3340437,0.55059 1.0082403,0.48248 0.5545323,-0.056 5.2931593,-0.15877 10.5305983,-0.2283 8.428584,-0.11191 9.569535,-0.0537 9.93038,0.50456 0.440607,0.68164 1.080717,3.13771 0.81762,3.13771 -0.08827,0 -1.146471,-0.28443 -2.351248,-0.63166 -2.77919,-0.801 -18.9503942,-1.03092 -19.2172194,-0.27321 -0.1200882,0.341 1.7304294,0.46451 7.1884384,0.47793 4.042419,0.01 8.726042,0.20448 10.408506,0.43301 1.682466,0.22855 3.422347,0.45223 3.865973,0.49695 0.747917,0.0754 1.76754,1.1955 1.800654,1.97792 0.0079,0.1857 -0.484901,0.2322 -1.094886,0.10348 -0.609985,-0.12871 -3.105381,-0.50292 -5.545322,-0.83104 -5.306029,-0.71351 -15.930198,-0.43623 -15.930198,0.41552 0,0.38148 1.744592,0.47739 7.763451,0.4277 7.992149,-0.0659 11.263423,0.16004 14.06259,0.97031 1.488927,0.43099 2.600303,1.51197 2.296898,2.2336 -0.06984,0.16611 -1.760168,-0.008 -3.756484,-0.38584 -4.556936,-0.86288 -19.963159,-1.47778 -19.963159,-0.79679 0,0.30485 1.252211,0.45306 3.932137,0.46498 5.598919,0.025 8.812825,0.2825 15.112579,1.21003 l 5.534294,0.8143 0.81762,1.3394 c 0.973153,1.59354 1.009267,1.83865 0.229217,1.54944 -1.444356,-0.53548 -9.940738,-1.56702 -16.796655,-2.03953 -3.940757,-0.27159 -8.425896,0.0383 -8.425896,0.58219 0,0.16493 3.856519,0.424 8.570044,0.57608 4.713523,0.15209 9.477459,0.42667 10.586523,0.61035 8.090821,1.33992 7.575654,1.10315 7.444438,3.42536 -0.02327,0.41194 -0.754939,0.32176 -6.2889,-0.7732 -4.008934,-0.79319 -6.221264,-0.98168 -12.240668,-1.04564 -5.904699,-0.0627 -7.313316,0.0214 -7.171109,0.43149 0.136042,0.39233 1.38136,0.48825 5.385421,0.414 2.864588,-0.0531 6.7508,0.077 8.636209,0.28919 1.88541,0.21217 4.15395,0.46312 5.041202,0.55784 0.887251,0.0947 2.407012,0.44675 3.377605,0.78233 0.970592,0.33557 2.059492,0.61181 2.419777,0.61414 0.360285,0.003 1.266323,0.61258 2.01333,1.35538 0.846446,0.84169 1.910141,1.44457 2.823073,1.60044 0.805684,0.13756 2.456353,0.49239 3.667475,0.78842 2.926599,0.71535 3.59097,0.68315 5.476004,-0.26636 0.94314,-0.47506 2.554667,-0.84951 3.934501,-0.91399 1.285555,-0.0601 2.521129,-0.28665 2.745092,-0.50303 0.564162,-0.54507 -0.0028,-2.47374 -0.798717,-2.71762 -2.915278,-0.89324 -7.719559,-3.18559 -8.657474,-4.13084 -0.942676,-0.95005 -1.101514,-1.37418 -0.888513,-2.37516 0.142614,-0.67021 0.361905,-1.79007 0.48679,-2.48855 0.124889,-0.69848 0.388738,-1.36618 0.586042,-1.48399 0.501443,-0.29943 0.449461,-1.33712 -0.06696,-1.33712 -0.234085,0 -0.873914,0.94576 -1.421776,2.10194 l -0.996423,2.10195 0.842824,2.17578 c 0.801729,2.07027 2.332625,3.75108 3.416991,3.75108 0.275649,0 0.702824,0.23454 0.949162,0.5213 0.246337,0.28678 1.221592,0.74423 2.16693,1.01673 0.945343,0.27251 2.252768,0.76144 2.904995,1.08599 1.144941,0.56971 1.158859,0.60944 0.403296,1.14914 -0.582586,0.41614 -1.385597,0.49209 -3.140512,0.29832 -2.718663,-0.30019 -4.534884,-1.25235 -6.818225,-3.57529 -0.89041,-0.90585 -1.768438,-1.55807 -1.951103,-1.44899 -0.604851,0.36116 0.111266,1.35424 1.799076,2.49616 2.206578,1.4929 3.944559,3.11153 3.719464,3.46342 -0.193619,0.30267 -1.200403,0.26174 -5.691832,-0.22982 -1.919631,-0.2101 -3.250209,-0.59837 -4.133786,-1.20623 -1.185986,-0.81591 -1.302836,-1.08085 -1.302836,-2.94821 0,-1.12837 0.113642,-2.16153 0.252848,-2.29601 0.139205,-0.13449 1.028076,0.17354 1.974733,0.68416 1.686441,0.90966 1.73772,0.91389 2.533204,0.19786 l 0.81132,-0.73134 -1.000365,-3.03725 c -1.034632,-3.14153 -1.036548,-3.57295 -0.02757,-7.07143 0.330756,-1.14685 0.514102,-2.40803 0.407233,-2.80286 -0.106865,-0.39483 0.10816,-2.17423 0.477341,-3.95428 0.564373,-2.72121 0.955989,-3.59363 2.460735,-5.47785 1.628833,-2.0396 1.789627,-2.43746 1.789627,-4.42612 0,-1.6232 -0.202434,-2.39926 -0.787685,-3.01898 -0.636188,-0.67365 -3.959647,-4.88152 -7.637423,-9.671097 -0.308277,-0.40147 -0.466845,-0.82063 -0.352884,-0.93073 0.11396,-0.1101 1.528104,0.0904 3.142874,0.4452 2.497712,0.54886 3.363484,0.57523 5.798171,0.17731 4.564062,-0.74592 4.641995,-0.67877 6.846582,5.817277 2.485873,7.32486 2.783763,8.67968 2.159053,9.82101 -0.273959,0.50052 -1.42128,1.74021 -2.549747,2.75491 -1.747805,1.57158 -2.127412,2.17768 -2.56235,4.09127 -0.525519,2.31207 -2.105956,5.56637 -3.350822,6.89868 -0.388173,0.41544 -0.705769,0.9158 -0.705769,1.11262 0,0.19682 0.317596,0.22455 0.705769,0.0609 1.672453,-0.70516 9.27169,-0.98358 29.037323,-1.06391 11.589522,-0.0471 21.072019,-0.20083 21.072224,-0.34094 8.07e-4,-0.60249 -9.990466,-0.81753 -28.337068,-0.61034 l -19.666201,0.22222 0.926319,-1.14382 c 0.922455,-1.13879 0.947416,-1.14422 5.954132,-1.29222 22.643026,-0.66933 27.814045,-0.72282 27.814045,-0.28919 0,0.34114 0.182169,0.34304 0.738063,0.008 1.137058,-0.68607 12.578149,0.042 13.011813,0.82799 0.177346,0.32146 0.888956,2.05714 1.581676,3.85687 1.00253,2.60461 1.15141,3.33864 0.72783,3.59812 -0.29269,0.1793 -0.34522,0.32869 -0.11658,0.33181 0.22863,0.003 0.62853,0.55244 0.8893,1.21992 l 0.47419,1.21308 -3.30908,-0.23288 c -5.657723,-0.3983 -41.779039,-0.67173 -46.631904,-0.35311 -3.353166,0.22015 -4.655983,0.44867 -4.790719,0.84169 -0.147671,0.43075 0.131083,0.47871 1.37924,0.23744 1.926707,-0.37244 26.226236,-0.27421 41.48201,0.16742 6.206001,0.17966 11.514383,0.24079 11.796413,0.13623 0.35791,-0.13268 0.51277,0.24538 0.51277,1.2519 v 1.44214 l -1.91565,-0.2207 c -2.708124,-0.31187 -27.492802,-0.76964 -39.018901,-0.72069 -11.216735,0.0476 -10.872602,0.0395 -10.651902,0.25266 0.66487,0.64237 31.487806,1.59981 46.04114,1.42996 2.384493,-0.0279 4.335433,0.0983 4.335433,0.28082 0,0.39427 -3.193799,2.36355 -5.374397,3.3135 -2.91127,1.2684 -1.019807,2.16574 4.717467,2.23741 1.79044,0.0224 3.36372,-0.14413 3.60918,-0.38127 0.23934,-0.23124 1.54248,-0.42008 2.89553,-0.42008 1.3757,0 2.67297,-0.20581 2.9436,-0.46727 0.67982,-0.65683 0.60642,-2.93455 -0.10713,-3.32036 -0.35663,-0.19281 -0.50448,-0.64054 -0.37258,-1.12783 0.20431,-0.75482 0.49207,-0.80536 4.37404,-0.77092 l 4.15583,0.0365 0.002,1.9292 c 0.002,1.65511 0.16589,2.05705 1.15712,2.8234 0.63558,0.49138 1.30115,0.89379 1.47928,0.89496 0.17813,8.6e-4 0.9286,0.39918 1.66753,0.88431 l 1.3438,0.88203 -11.74994,0.0495 c -50.688279,0.21355 -87.441795,0.18965 -97.752896,-0.0639 L 3.4448431,146.9719 v 1.16817 1.16817 l 29.6966179,0.0434 c 16.33325,0.0236 29.784398,0.12667 29.891175,0.22983 0.260053,0.25126 47.074874,-0.14601 56.763144,-0.48173 4.21445,-0.14605 12.25155,-0.11763 17.86003,0.0632 5.6085,0.1808 10.46317,0.23008 10.78817,0.10959 0.32912,-0.12202 0.59077,-0.71423 0.59077,-1.33712 v -1.11871 l -6.35191,0.0829 c -3.49356,0.0455 -8.34823,0.19072 -10.78817,0.32268 -3.97529,0.21498 -4.24768,0.18994 -2.62143,-0.24277 2.19097,-0.58296 2.51295,-1.56291 1.19256,-3.62704 -0.48482,-0.7579 -0.79269,-1.46395 -0.6845,-1.56847 0.35476,-0.34275 11.18793,-0.18782 12.718,0.18188 0.82177,0.19856 2.26555,0.46862 3.20826,0.59969 1.48486,0.20647 1.71401,0.14243 1.71401,-0.47868 0,-0.54433 -0.50985,-0.83264 -2.1173,-1.19634 -2.82536,-0.63924 -12.97791,-0.98354 -15.10235,-0.51217 -1.34743,0.29898 -1.88177,0.25076 -2.62142,-0.23744 -1.08235,-0.71438 -1.5467,-1.29711 -1.3186,-1.6537 0.089,-0.13918 3.20748,-0.37368 6.93009,-0.5213 5.33638,-0.21162 7.45121,-0.14141 9.99497,0.3318 3.72433,0.69284 4.6379,0.74058 4.6379,0.24202 0,-0.19713 -1.31575,-0.66239 -2.92389,-1.03348 -4.62042,-1.0662 -15.59159,-1.03078 -19.33695,0.0624 -0.47263,0.13794 -0.88813,-0.17967 -1.34064,-1.02511 -0.36061,-0.67374 -0.53636,-1.34014 -0.3907,-1.48095 0.63584,-0.61466 17.94703,-0.24766 19.95922,0.42313 2.05383,0.68468 3.61595,0.93412 4.0881,0.6522 0.86637,-0.51733 -0.003,-1.03957 -2.87979,-1.72753 -1.84508,-0.44135 -5.43068,-0.69251 -12.12645,-0.85007 -9.36021,-0.22025 -9.50592,-0.23641 -9.44517,-1.04717 0.058,-0.77457 0.35884,-0.83992 5.07035,-1.10043 6.02133,-0.33293 14.20632,-0.0868 17.41736,0.52358 1.28507,0.24426 2.45535,0.32939 2.60015,0.1895 0.5777,-0.55814 -0.70268,-1.04593 -4.33937,-1.65447 -3.06114,-0.51224 -5.50331,-0.59678 -12.38324,-0.42617 -7.21764,0.17899 -8.57004,0.12572 -8.57004,-0.3379 0,-0.30277 -0.0453,-0.68172 -0.10083,-0.84245 -0.18136,-0.52567 9.45663,-1.17966 14.89676,-1.01064 4.48272,0.13927 7.61788,0.57773 9.60348,1.34245 0.22182,0.0854 0.46296,-0.0201 0.53563,-0.2344 0.0727,-0.21431 -1.37918,-0.79359 -3.22637,-1.28689 -3.82959,-1.02272 -11.31956,-1.31109 -18.17983,-0.70091 l -3.93214,0.34931 v -1.19328 -1.19329 l 3.12554,-0.32496 c 4.89223,-0.50944 18.98782,-0.35065 20.80678,0.2344 1.0846,0.34884 1.6768,0.37536 1.97394,0.0883 0.29715,-0.28708 0.13486,-0.46811 -0.54114,-0.60272 -0.53116,-0.10577 -2.31175,-0.49255 -3.95734,-0.8592 -2.56862,-0.57232 -4.23967,-0.6281 -11.80901,-0.39649 -4.84932,0.14837 -9.06227,0.36082 -9.36168,0.47183 -0.34482,0.12784 -0.71015,-0.25919 -0.99721,-1.05478 -0.24923,-0.69079 -0.37639,-1.33038 -0.28199,-1.42159 0.63521,-0.61371 22.54321,-0.88935 25.3407,-0.31888 1.24186,0.25325 1.51237,0.19881 1.51237,-0.3044 0,-0.38106 -0.58646,-0.76525 -1.55018,-1.01597 -2.48466,-0.6464 -12.31657,-0.77281 -19.26211,-0.24734 -5.74168,0.43441 -6.46167,0.42085 -6.90172,-0.12937 -0.81914,-1.02419 -0.58274,-1.45256 0.79399,-1.43985 0.72089,0.007 4.01746,-0.21029 7.32549,-0.48173 5.54695,-0.45517 9.12436,-0.4139 16.5698,0.19102 3.24272,0.26346 3.29533,-0.0185 0.15124,-0.80974 -4.57816,-1.15209 -17.75711,-1.16314 -25.05478,-0.0206 -1.04827,0.16413 -1.21382,-0.0331 -3.02472,-3.60344 -1.78718,-3.52355 -1.92195,-4.00355 -2.01175,-7.15592 l -0.0961,-3.37895 1.30598,-0.21156 c 0.71838,-0.11639 2.07729,-0.32636 3.01999,-0.46651 1.13748,-0.1691 1.71401,-0.45153 1.71401,-0.8394 0,-0.46434 -0.32636,-0.53141 -1.5864,-0.32573 -1.8851,0.30771 -6.34885,0.66559 -7.48776,0.60045 -0.44363,-0.0255 -2.43994,-0.0363 -4.43626,-0.0244 -4.37218,0.0262 -6.25444,0.69186 -7.30895,2.58367 l -0.73491,1.31809 -3.842342,-0.22907 c -3.282568,-0.196 -4.479014,-0.0818 -8.213226,0.7831 -5.570501,1.2902 -5.91317,1.28882 -5.91317,-0.0145 0,-1.57689 0.721155,-3.98456 2.142512,-7.155907 0.586433,-1.308462 1.13166,-4.615396 2.505633,-15.196133 1.949147,-15.010058 1.983634,-15.196133 2.860886,-15.196133 0.692706,0 0.684921,0.215115 -0.234734,6.429133 -0.609512,4.118425 -0.920444,27.7543 -0.36943,28.08331 0.224349,0.13397 0.532113,0.12442 0.68372,-0.022 0.151607,-0.1465 0.289389,-5.994658 0.306406,-12.995247 0.03835,-15.788432 0.604822,-19.529856 2.682075,-17.713603 0.826126,0.722324 0.915812,2.584224 0.300901,6.244964 -0.270792,1.612045 -0.273162,2.66015 -0.0074,3.117156 1.164255,1.999675 2.379964,5.658987 2.623782,7.89715 1.057026,9.702833 2.042716,15.19613 2.726189,15.19613 0.452212,0 0.204312,-4.18551 -0.484427,-8.182529 -1.412245,-8.195754 -1.457215,-9.349184 -0.323736,-8.254067 0.262473,0.253586 1.097149,0.461178 1.855002,0.461178 1.521859,0 1.514569,-0.09325 0.234733,3.117152 -0.975001,2.445738 -1.054244,8.693946 -0.112643,8.874306 0.566519,0.10851 0.648199,-0.355197 0.615969,-3.497667 -0.0296,-2.887076 0.15071,-4.107199 0.88773,-6.005243 0.84994,-2.188846 1.05773,-2.420285 2.56078,-2.855368 0.90499,-0.261966 2.5137,-1.266699 3.6013,-2.24958 1.75655,-1.587452 1.96529,-1.95286 1.96529,-3.436042 0,-0.976557 -0.51315,-2.839132 -1.24612,-4.52505 -2.11207,-4.85795 -3.62216,-8.617929 -3.50443,-8.725144 0.16389,-0.149238 3.56399,-0.323012 4.80884,-0.245811 1.05105,0.06518 1.06926,0.117571 1.32017,3.670419 0.56715,8.03086 0.72809,9.164208 1.11851,7.8903 0.19704,-0.642913 0.30533,-3.433542 0.24103,-6.201588 -0.11321,-4.87358 0.0712,-5.698464 1.11379,-4.994603 0.23293,0.157245 0.72885,1.601197 1.10197,3.20848 0.37313,1.607284 1.12005,4.508603 1.66045,6.4474 0.54039,1.938781 1.17941,4.893405 1.42021,6.566117 0.4622,3.210659 0.64391,3.741193 1.2792,3.741193 0.95419,0 -1.9123,-15.872524 -3.32798,-18.428201 -0.54906,-0.991205 -0.3128,-1.117076 1.43438,-0.766353 l 1.49267,0.299084 0.11657,2.921573 c 0.10427,2.613209 1.25087,8.374234 2.86955,14.415321 3.25856,12.161236 3.29599,12.269076 4.24091,12.405456 0.75228,0.10857 0.85584,0.006 0.59234,-0.58447 -0.17579,-0.39389 -0.51961,-1.592822 -0.76406,-2.664343 -0.24444,-1.071521 -0.55599,-2.123558 -0.69237,-2.337864 -0.13639,-0.214306 -0.37889,-1.091005 -0.53878,-1.94822 -0.15989,-0.857224 -0.43917,-1.733923 -0.62149,-1.948229 -0.18231,-0.214306 -0.52002,-1.266343 -0.74988,-2.337864 -0.22985,-1.071522 -0.70209,-2.912592 -1.04999,-4.091266 -0.34789,-1.178675 -0.82148,-3.808775 -1.05156,-5.844667 -0.23007,-2.035893 -0.58839,-4.315312 -0.79713,-5.065378 -0.20874,-0.750065 -0.38082,-1.847168 -0.38203,-2.438321 -0.002,-0.957048 0.0814,-1.024909 0.7609,-0.61491 0.60985,0.367966 1.31865,0.298188 3.52884,-0.350071 1.52115,-0.446143 3.27099,-0.920528 3.88882,-1.053256 0.73623,-0.158161 1.25873,-0.606205 1.51551,-1.30135 0.21549,-0.583352 0.64111,-1.49922 0.94601,-2.03498 0.81726,-1.436027 0.64039,-4.045558 -0.28593,-4.217598 -0.47577,-0.08837 -0.81207,0.149702 -0.95468,0.676552 -0.12105,0.447246 -0.46684,0.813535 -0.76799,0.813535 -0.30115,0 -0.8321,0.531946 -1.17996,1.181869 -0.6423,1.200015 -1.58922,1.239042 -1.25479,0.05175 0.10057,-0.356997 0.29543,-1.292537 0.43245,-2.07912 l 0.24891,-1.430728 -2.93572,-0.845497 c -1.61488,-0.465372 -3.32066,-0.991107 -3.79035,-1.168174 -0.60061,-0.226418 -1.05188,-0.131349 -1.52024,0.321153 -0.51262,0.495269 -0.82682,0.545292 -1.36427,0.217655 -0.90778,-0.55338 -1.00869,-4.402187 -0.17093,-6.506757 0.53681,-1.348533 0.52921,-1.552761 -0.0819,-2.143044 -0.5934,-0.57316 -0.72261,-0.581163 -1.05865,-0.06773 -0.2104,0.321456 -0.38721,1.285826 -0.39306,2.143044 -0.0163,2.390905 -0.4637,4.491716 -0.90111,4.230533 -0.86578,-0.516968 -2.31926,-4.295511 -2.32289,-6.039489 -0.003,-1.731782 -0.40181,-2.28231 -1.65021,-2.28231 -1.21776,0 0.47037,5.884005 2.61906,9.129248 0.78001,1.178074 1.28872,2.214193 1.13033,2.302857 -0.15838,0.08866 -1.55867,0.281572 -3.11136,0.428457 -1.5527,0.14688 -3.98446,0.5403 -5.40432,0.874416 -2.93628,0.690945 -6.297757,0.479267 -7.268011,-0.458136 -0.85547,-0.826526 -0.809825,-5.351622 0.09453,-9.351466 0.579988,-2.565244 0.970245,-3.389369 2.211831,-4.675733 0.82897,-0.858886 1.86723,-2.256774 2.30713,-3.1065 1.26308,-2.439805 4.61222,-5.526597 7.19473,-6.630044 1.26408,-0.540111 2.56,-0.981722 2.879,-0.981722 0.319,0 1.1895,0.569855 1.93535,1.266345 0.74584,0.696489 2.28745,1.95884 3.42566,2.805135 1.69667,1.261537 4.52132,4.624176 4.52132,5.382724 0,0.103809 0.90436,1.745444 2.00939,3.64759 1.10504,1.902147 2.0147,3.808775 2.022,4.237383 0.0221,1.303708 1.4829,5.412559 1.98103,5.57298 0.257,0.08277 0.73611,0.05039 1.06496,-0.07153 0.50888,-0.188666 0.47679,-0.439328 -0.21504,-1.686428 -0.44707,-0.805913 -0.8129,-1.766164 -0.8129,-2.133915 0,-2.455828 -3.22656,-9.778598 -5.41692,-12.293586 -0.56965,-0.654068 -1.03582,-1.307019 -1.03582,-1.451274 0,-0.144262 0.77131,-0.207302 1.71401,-0.139266 1.00022,0.07219 1.6738,-0.03822 1.61792,-0.265597 -0.0527,-0.214304 -1.05967,-3.107415 -2.23782,-6.429134 -1.17816,-3.321719 -2.37236,-7.091528 -2.65451,-8.377355 -0.52282,-2.382651 -1.47455,-6.06069 -2.12282,-8.203842 -0.38331,-1.267206 -2.42751,-3.314617 -5.92184,-5.931423 -1.96639,-1.472577 -4.32855,-2.1942658 -7.11282,-2.1651138 z m -64.949579,0.457375 -1.429653,1.3021128 c -2.287203,2.08299 -3.860657,5.731193 -3.429593,7.951182 0.449713,2.316031 1.528567,1.499419 1.695892,-1.283087 0.134393,-2.234866 0.787691,-3.270891 3.160204,-5.011345 1.908655,-1.400174 2.173283,-1.478888 5.068772,-1.502262 2.747571,-0.02218 3.364974,0.123886 6.135299,1.446707 3.233823,1.544142 4.567955,2.863286 4.794655,4.73966 0.07487,0.61964 0.363124,1.198169 0.640391,1.28613 0.359304,0.113989 0.504119,-0.414424 0.504119,-1.839395 0,-1.620518 -0.187101,-2.166554 -0.986974,-2.882761 -2.465402,-2.207511 -7.240251,-3.764036 -12.321799,-4.016685 z M 105.8994,10.590261 c 0.50561,0.02811 1.15628,0.112162 1.83136,0.246572 1.88671,0.375642 2.92458,0.876182 4.52448,2.179573 1.14197,0.930334 2.18784,2.029376 2.32368,2.442888 0.13584,0.413512 0.78174,1.340306 1.43517,2.059332 1.20284,1.323587 1.92098,3.395398 2.77109,7.993038 0.25757,1.392979 0.82858,3.321719 1.26896,4.286088 0.44038,0.96437 1.22387,3.33146 1.74079,5.2602 0.51692,1.928741 1.06892,3.813645 1.22722,4.188678 0.15829,0.375033 0.13259,0.661605 -0.0575,0.636979 -1.35774,-0.17603 -3.27686,-0.632937 -3.68638,-0.877463 -0.26973,-0.16106 -0.49073,-0.892482 -0.49073,-1.625547 0,-0.733066 -0.2675,-2.695458 -0.5947,-4.360669 -0.3272,-1.665212 -0.8862,-4.780755 -1.24219,-6.923799 -0.69423,-4.17925 -1.72219,-6.292826 -4.54653,-9.351467 -1.69242,-1.832809 -3.1563,-2.767868 -5.91711,-3.778486 -2.00364,-0.733451 -2.00621,-0.736502 -0.40329,-0.494666 0.88724,0.133863 2.41676,0.584284 3.39887,1.000748 1.11623,0.473341 1.92804,0.619688 2.16536,0.390405 0.50844,-0.491246 -2.33189,-1.870433 -4.98449,-2.420057 -1.14074,-0.236363 -1.91465,-0.577832 -1.72504,-0.761024 0.0948,-0.0916 0.45535,-0.119441 0.96098,-0.09132 z m -8.763033,2.047916 c 0.395482,-0.02792 0.820794,-0.02187 1.309928,0.0137 0.652179,0.04743 1.417652,0.146872 2.375665,0.288428 4.06209,0.600217 8.36201,2.052373 9.90517,3.344702 0.55772,0.467068 1.42687,1.494968 1.93141,2.283834 1.05072,1.642865 1.63874,5.129635 0.93578,5.549389 -0.56627,0.338121 -0.58622,2.173824 -0.0386,3.565399 0.22802,0.579434 0.32438,1.140928 0.21347,1.24808 -0.29377,0.283819 -1.03614,-1.733843 -1.54466,-4.199334 -0.24311,-1.178674 -0.85778,-2.695382 -1.36585,-3.370576 -0.93298,-1.239875 -5.4862,-4.420484 -6.33301,-4.423834 -0.25199,-9.54e-4 -1.54733,-0.435297 -2.8782,-0.964979 -1.52523,-0.607031 -3.222545,-0.96676 -4.590651,-0.972589 -1.972014,-0.0084 -2.29473,0.117777 -3.528839,1.38202 l -1.357976,1.391913 v -1.576082 c 0,-1.376904 0.16581,-1.664283 1.31071,-2.267852 1.552883,-0.818644 2.46923,-1.208468 3.655661,-1.292219 z m -0.319013,3.160534 c 0.157696,-0.04874 0.208599,0.246749 0.03308,0.922362 -0.135766,0.522626 -0.05242,1.065898 0.185106,1.207744 0.238831,0.142614 0.530484,-0.107514 0.652993,-0.560113 0.121868,-0.450171 0.402839,-0.818862 0.624646,-0.818862 0.221814,0 0.311072,0.342995 0.197712,0.761785 -0.139527,0.515514 0.107731,0.959711 0.766419,1.376693 1.02567,0.6493 1.08928,0.600378 1.49346,-1.164367 0.0982,-0.428609 0.19955,-0.06885 0.22528,0.799076 0.0258,0.867932 0.22815,1.753137 0.44977,1.967247 0.26837,0.259291 -0.0597,0.336938 -0.98225,0.232873 -1.322471,-0.149164 -1.398718,-0.09015 -1.670687,1.310484 -0.401432,2.067375 0.159522,2.721633 2.251997,2.625535 0.93797,-0.04308 1.8077,-0.176513 1.93221,-0.296801 0.12449,-0.120287 -0.14606,-0.70531 -0.60102,-1.299829 l -0.82707,-1.080654 0.95705,-0.436828 c 0.76858,-0.350434 0.95624,-0.327149 0.95624,0.115676 0,0.303149 0.54869,1.282814 1.21935,2.17729 0.67065,0.894476 1.68284,3.128111 2.24963,4.964162 0.56679,1.83605 1.37626,3.808975 1.79829,4.38426 l 0.76721,1.046409 -2.26933,0.636977 c -1.24829,0.350604 -3.51385,0.738341 -5.0341,0.86148 -2.351257,0.190448 -2.764004,0.131783 -2.764004,-0.39345 0,-0.431954 0.453561,-0.653593 1.509214,-0.738193 1.07596,-0.08623 1.54829,-0.32325 1.64705,-0.826473 0.12013,-0.612122 -0.0536,-0.671396 -1.30993,-0.443677 -2.464651,0.446722 -4.889207,-0.100627 -5.418497,-1.222966 -0.523366,-1.109779 -0.609998,-2.75768 -0.15833,-3.013657 0.737273,-0.417839 3.036693,0.264551 3.224013,0.956608 0.108332,0.400253 0.357803,0.727539 0.553738,0.727539 0.542116,0 0.434882,-0.357067 -0.478124,-1.595868 -0.678511,-0.920624 -1.129776,-1.131642 -2.419775,-1.131642 -2.185806,0 -2.139544,-0.984022 0.06221,-1.324183 1.454779,-0.224753 1.744473,-0.136082 2.471764,0.757219 0.540161,0.663461 0.959981,0.879949 1.220131,0.628606 0.26015,-0.251342 -4e-5,-0.86425 -0.756975,-1.780796 -1.21487,-1.471045 -1.553887,-1.645309 -1.961342,-1.008357 -0.320889,0.501641 -1.693496,0.505301 -2.013323,0.0053 -0.135248,-0.211425 -0.09005,-0.95662 0.100037,-1.655989 0.190084,-0.699368 0.278313,-1.570322 0.196132,-1.935285 -0.15215,-0.675701 -1.503773,-1.318401 -2.416631,-1.149147 -0.680618,0.126196 -0.646616,-0.04206 0.396997,-1.974096 0.629541,-1.165465 0.941781,-1.462733 1.037383,-0.986288 0.207744,1.035236 0.756536,0.817447 1.227221,-0.487055 0.252335,-0.699358 0.517351,-1.092037 0.675047,-1.140775 z m 6.108516,1.613372 c 0.0405,-0.0287 0.10466,-0.02745 0.1922,7.79e-4 0.26669,0.08589 0.81587,1.096741 1.22012,2.245783 0.77259,2.196001 0.69525,3.252716 -0.0969,1.324942 -0.25354,-0.61703 -0.71873,-1.707513 -1.03423,-2.423861 -0.31069,-0.705414 -0.40258,-1.061531 -0.28121,-1.147625 z m -0.47812,1.235903 c 0.10458,0.05169 0.23186,0.286314 0.32059,0.614147 0.1183,0.437108 0.1357,0.794509 0.0386,0.794509 -0.28672,0 -0.67189,-1.184924 -0.45371,-1.395719 0.0276,-0.0266 0.0597,-0.03017 0.0945,-0.01293 z m -52.378089,0.239722 c 0.490526,0 0.586776,0.237481 0.395416,0.974112 -0.270568,1.041533 0.326226,1.367047 0.714435,0.389644 0.395444,-0.995627 1.099857,-0.663447 0.826286,0.389644 -0.142514,0.548603 -0.07797,0.974112 0.147295,0.974112 0.21999,0 0.491901,-0.339435 0.604158,-0.754176 0.142977,-0.528244 0.444796,-0.693338 1.00824,-0.550981 0.535013,0.135172 0.74073,0.438102 0.614398,0.904857 -0.212017,0.783275 0.489121,1.414221 0.884569,0.796032 0.462759,-0.723412 1.012181,-0.409307 1.012181,0.578379 0,0.76591 -0.204693,0.974111 -0.958615,0.974111 -0.964713,0 -1.976853,0.800499 -1.79514,1.420071 0.05375,0.183286 -0.03557,1.095126 -0.198498,2.026608 -0.244712,1.39911 -0.416943,1.645565 -0.990911,1.417027 -2.430775,-0.967868 -3.036328,-0.214302 -0.694742,0.864524 0.776345,0.357681 1.411536,0.845426 1.411536,1.083699 0,0.572229 -2.695759,3.030188 -4.276358,3.899487 -1.249907,0.687428 -1.255194,0.686794 -4.615063,-0.909423 -1.850131,-0.878969 -3.445089,-1.519252 -3.544593,-1.423116 -0.368493,0.356019 0.943373,1.446731 2.431592,2.022041 1.717864,0.664086 1.902715,1.071119 0.755394,1.664361 -0.429046,0.221844 -0.837382,0.396535 -0.907417,0.388122 -0.234558,-0.02817 -4.965579,-3.974156 -5.070347,-4.229012 -0.05687,-0.138339 0.524487,-0.578264 1.292596,-0.977916 1.855775,-0.965571 4.438245,-3.975629 5.145963,-5.998393 0.389744,-1.11396 0.700827,-1.502469 0.983824,-1.229054 0.282993,0.273412 0.775434,0.266637 1.55726,-0.02055 1.492547,-0.548256 2.505808,-0.223127 1.814042,0.582183 -0.373496,0.4348 -0.682692,0.473195 -1.290233,0.159055 -0.439331,-0.227165 -0.903779,-0.310967 -1.032656,-0.186451 -0.271943,0.262735 -0.315717,0.224409 1.492668,1.294502 l 1.390266,0.822667 1.130334,-0.777005 c 1.288463,-0.886409 1.383593,-1.457379 0.514361,-3.081388 -0.407285,-0.760945 -0.918568,-1.145487 -1.512361,-1.136209 -0.84539,0.0132 -0.827491,0.06962 0.312712,0.972588 l 1.209888,0.95813 -1.00824,-0.01065 c -1.458827,-0.01513 -2.53408,-0.879825 -1.901477,-1.528899 0.395347,-0.405642 0.2692,-0.464743 -0.652993,-0.306692 -1.008289,0.172805 -1.116022,0.09798 -0.912933,-0.633173 0.126643,-0.455932 0.232294,-0.96026 0.23552,-1.120989 0.01165,-0.618409 0.812106,-0.256858 0.812106,0.366814 0,0.574591 0.07602,0.562122 0.592341,-0.09741 0.535767,-0.68437 0.59333,-0.691566 0.604944,-0.07458 0.01794,0.953694 0.819195,0.858417 0.819195,-0.09741 0,-0.456282 0.269249,-0.779289 0.649057,-0.779289 z m 56.058169,0.05099 c 0.0699,-0.0029 0.15595,0.01034 0.25835,0.04262 0.27727,0.0874 0.91067,0.978968 1.4076,1.980947 0.9816,1.979262 1.55258,2.400447 1.14924,0.847781 -0.31464,-1.211167 0.37288,-1.300762 0.74751,-0.09741 0.24038,0.772072 0.34218,4.088112 0.25364,8.279944 -0.0159,0.750065 -0.21604,1.363756 -0.44425,1.363756 -0.25624,0 -0.36522,-1.006081 -0.28515,-2.6301 0.0713,-1.446555 0.0112,-3.33146 -0.13312,-4.188678 -0.26197,-1.555733 -0.26189,-1.55472 -0.31902,0.464224 -0.0916,3.238483 -0.74369,2.737918 -0.95152,-0.730582 -0.15872,-2.648993 -0.33372,-3.28607 -1.05944,-3.853828 -0.82325,-0.644059 -1.11317,-1.45832 -0.62384,-1.47867 z m -61.586165,0.338655 c 0.879427,0 1.180927,0.893991 0.854641,2.532689 -0.192368,0.966148 -0.283453,1.044697 -0.525386,0.452048 -0.160992,-0.394372 -0.197954,-0.864729 -0.08271,-1.044886 0.115242,-0.180157 0.04153,-0.427298 -0.163048,-0.54946 -0.204597,-0.122162 -0.49964,0.698875 -0.656147,1.824176 -0.414121,2.977563 -0.99378,3.6537 -0.751454,0.8767 0.308855,-3.539402 0.487572,-4.091267 1.324102,-4.091267 z m 48.790956,1.948222 c 0.221815,0 0.515121,0.17534 0.652212,0.389645 0.137083,0.214304 0.06739,0.389644 -0.154388,0.389644 -0.221815,0 -0.515121,-0.17534 -0.652212,-0.389644 -0.137083,-0.214305 -0.06739,-0.389645 0.154388,-0.389645 z m 13.169349,0.479445 c 0.0209,0.01575 0.0437,0.08188 0.0677,0.202433 0.0961,0.482185 0.0961,1.271215 0,1.7534 -0.0961,0.482185 -0.17487,0.08767 -0.17487,-0.8767 0,-0.723278 0.0444,-1.126392 0.10713,-1.079133 z m -68.832092,0.731345 c 0.01995,0.05961 -0.0975,0.291913 -0.33713,0.737432 -0.702609,1.306262 -0.81762,1.404577 -0.81762,0.697098 0,-0.330933 0.302074,-0.842088 0.671109,-1.136208 0.306877,-0.244581 0.463696,-0.357924 0.483641,-0.298322 z m 63.677472,0.510647 c 0.11203,0.02556 0.21391,0.0918 0.27884,0.1933 0.12985,0.202992 0.0644,0.471948 -0.14572,0.597404 -0.2101,0.125457 -0.48849,0.0622 -0.61834,-0.140789 -0.12985,-0.202993 -0.0643,-0.471948 0.14572,-0.597405 0.10506,-0.06273 0.22747,-0.07806 0.3395,-0.05251 z m -62.252545,0.01293 c 0.145593,0.06096 0.243396,0.351348 0.243396,0.775485 0,0.548409 -0.181484,0.996942 -0.403297,0.996942 -0.221813,0 -0.403296,-0.340496 -0.403296,-0.756458 0,-0.415961 0.181483,-0.864495 0.403296,-0.996942 0.05718,-0.03415 0.111371,-0.03934 0.159901,-0.01902 z m 71.789075,0.316587 c 0.11091,-0.107153 0.32349,0.272186 0.47183,0.843214 0.14834,0.57103 0.17864,1.126468 0.0677,1.233621 -0.11091,0.107153 -0.32269,-0.272947 -0.47104,-0.843976 -0.14834,-0.571029 -0.17944,-1.125707 -0.0685,-1.232859 z m -69.114087,0.106544 c 0.419707,-0.0012 0.387518,0.279705 0.193771,1.299069 -0.147786,0.777547 -0.438768,1.583844 -0.647479,1.791451 -0.238027,0.236768 -0.283365,-0.09002 -0.120517,-0.8767 0.1661,-0.802388 0.100939,-1.254168 -0.181956,-1.254168 -0.243197,0 -0.628813,0.569855 -0.856216,1.266344 l -0.413536,1.266345 0.20086,-1.315051 c 0.110155,-0.723277 0.200073,-1.447793 0.200073,-1.610326 0,-0.162534 0.469536,-0.382538 1.043686,-0.488578 0.250904,-0.04634 0.441412,-0.07797 0.581314,-0.07839 z m 52.086647,0.251899 c 0.233836,-0.02325 0.353598,1.009783 0.267023,3.315783 -0.170541,4.542794 0.5843,6.361976 3.027872,7.295179 l 1.673047,0.63926 -2.016483,1.15143 c -2.210015,1.261882 -2.237664,1.266284 -4.141659,0.676551 -0.925456,-0.286646 -1.260787,-0.594496 -1.124033,-1.03195 0.107172,-0.342821 0.386991,-2.201338 0.621494,-4.130078 0.596248,-4.90433 1.303,-7.877432 1.692739,-7.916175 z m -58.92299,1.097397 c 0.17755,0 -0.133589,1.271215 -0.690802,2.824923 -0.956571,2.667258 -2.163778,4.61126 -2.163778,3.483969 0,-0.779946 2.5017,-6.308892 2.85458,-6.308892 z m 80.47018,0.20776 c 0.32213,0.04317 0.51413,0.809028 0.69081,2.442127 0.13594,1.25662 0.36298,2.577196 0.50491,2.93451 0.14191,0.357313 0.0931,0.649915 -0.10871,0.649915 -0.20181,0 -0.82936,-1.008206 -1.3942,-2.240456 -0.92832,-2.025204 -0.97053,-2.324665 -0.43874,-3.114112 0.31256,-0.464002 0.55266,-0.697882 0.74593,-0.671984 z m -77.875536,0.332568 c 0.252694,0.210593 -0.188463,2.48592 -0.842038,4.037995 -0.602603,1.431028 -1.218496,1.73269 -0.795564,0.389644 0.151841,-0.482185 0.455579,-1.57806 0.675048,-2.435278 0.219468,-0.857218 0.584178,-1.733918 0.81053,-1.948222 0.06583,-0.06233 0.115925,-0.07422 0.152024,-0.04414 z m 1.102763,0.238961 c 0.21532,0 0.28976,0.394515 0.165415,0.8767 -0.124348,0.482185 -0.349533,1.625516 -0.500182,2.54106 -0.150648,0.915544 -0.462006,1.777179 -0.692377,1.914738 -0.261338,0.156047 -0.316979,-0.0062 -0.148086,-0.431501 0.148881,-0.374846 0.385798,-1.630996 0.526963,-2.791438 0.141166,-1.160441 0.432948,-2.109559 0.648267,-2.109559 z m 15.818347,0.15601 c 0.08886,-0.0072 0.22349,0.143752 0.428502,0.405626 0.325665,0.415993 0.586795,0.942013 0.579737,1.168933 -0.0071,0.22692 -0.279282,0.752941 -0.604944,1.168933 -0.546022,0.697466 -0.591554,0.60646 -0.579737,-1.168933 0.0074,-1.110995 0.02835,-1.562546 0.176442,-1.574559 z m 57.158566,0.966501 c 0.0684,-0.07959 0.20727,0.177075 0.36548,0.705469 0.20479,0.683945 0.87783,1.59156 1.49583,2.016715 0.91445,0.629107 4.51187,6.698057 4.51187,7.611764 0,0.45015 -1.01974,0.220615 -2.11258,-0.475639 -0.83538,-0.532229 -0.99069,-0.812991 -0.63803,-1.153713 0.35267,-0.340723 0.34731,-0.83344 -0.0212,-2.022041 -0.66779,-2.153437 -1.2912,-1.985726 -1.0421,0.280056 0.14267,1.297904 0.0931,1.618009 -0.16542,1.071522 -0.74625,-1.577668 -2.47235,-7.130554 -2.43711,-7.840072 0.005,-0.103687 0.0205,-0.16753 0.0434,-0.194061 z m -72.151416,0.582183 c 0.0731,-0.03114 0.174236,-0.01751 0.285143,0.04871 0.221812,0.132448 0.403296,0.317971 0.403296,0.412476 0,0.0945 -0.181484,0.171991 -0.403296,0.171991 -0.221813,0 -0.403296,-0.185523 -0.403296,-0.412476 0,-0.113475 0.04505,-0.189552 0.118153,-0.220696 z m 71.257386,1.21764 0.79636,2.532689 c 0.43795,1.392978 0.80274,2.751863 0.81052,3.019743 0.0175,0.602389 -0.64735,0.63971 -1.02005,0.05708 -0.1514,-0.236676 -0.34523,-1.595561 -0.43087,-3.019745 z m -62.594394,0.91323 -1.164204,1.077611 c -0.640245,0.592629 -1.164203,1.219986 -1.164203,1.394196 0,0.488458 0.471929,0.377267 1.235881,-0.290711 0.62796,-0.549045 0.837807,-0.548988 2.192137,-0.0023 2.637895,1.064873 3.11672,-0.100918 0.559259,-1.361472 z m -12.866881,0.09208 c 0.02562,0.04672 -0.07932,0.253195 -0.298535,0.650676 -0.50005,0.906686 -0.858579,1.130175 -0.858579,0.535 0,-0.188064 0.302075,-0.582579 0.67111,-0.8767 0.304206,-0.242453 0.460387,-0.355703 0.486004,-0.308976 z m 61.772838,0.818101 c -0.811101,-0.122775 -1.091018,0.319564 -0.539568,0.852348 0.39215,0.378873 1.373924,0.13634 1.367431,-0.337896 -0.0025,-0.214304 -0.375445,-0.44597 -0.827863,-0.514452 z m -63.356879,1.488563 c 0.208722,0 0.491486,0.175341 0.628575,0.389645 0.137088,0.214305 -0.03386,0.389644 -0.379666,0.389644 -0.34581,0 -0.628575,-0.175339 -0.628575,-0.389644 0,-0.214304 0.170944,-0.389645 0.379666,-0.389645 z m 2.243335,0.755698 c 0.707557,0.09158 1.955195,0.707895 2.974309,1.598151 0.971232,0.848428 1.606423,1.542646 1.411537,1.542596 -0.650989,-1.64e-4 -4.759171,-2.246428 -4.910446,-2.684893 -0.130072,-0.377008 0.100065,-0.510802 0.5246,-0.455854 z m 13.105549,0.02359 c -0.221812,0 -0.403296,0.175341 -0.403296,0.389645 0,0.214304 0.181484,0.389644 0.403296,0.389644 0.221813,0 0.403296,-0.17534 0.403296,-0.389644 0,-0.214304 -0.181483,-0.389645 -0.403296,-0.389645 z m -16.947891,0.779293 c 0.176881,0 2.2875,0.893502 4.689894,1.985513 2.584783,1.174915 4.427483,1.812316 4.514239,1.560861 0.08063,-0.233712 1.133044,0.319356 2.338645,1.229054 1.205599,0.909713 2.325685,1.616659 2.488306,1.571514 0.162618,-0.04514 0.386124,-0.644665 0.49703,-1.332552 0.110907,-0.687888 0.406015,-1.316242 0.655356,-1.395719 1.462752,-0.466249 5.777307,5.7966 5.721765,8.305057 -0.02831,1.278513 0.888848,4.336061 2.30241,7.675692 l 0.957042,2.260242 -1.640755,1.44138 c -0.902322,0.792813 -1.800237,1.50008 -1.995211,1.571514 -0.194973,0.07144 -0.354077,-1.068273 -0.353674,-2.532689 8.06e-4,-2.870487 -1.082471,-9.445971 -1.654144,-10.040191 -0.62948,-0.654314 -0.914251,0.147866 -0.389116,1.095875 0.344399,0.621729 0.522813,2.829399 0.543503,6.720604 0.03004,5.652462 -0.0024,5.878997 -1.309923,9.216006 -0.737301,1.881601 -1.495797,3.514437 -1.685652,3.6278 -0.795272,0.474867 -1.009902,-0.33834 -0.638818,-2.419295 0.38095,-2.136295 -0.163928,-13.163458 -0.75224,-15.220485 -0.208246,-0.728125 -1.270721,-1.530446 -1.595068,-1.204703 -0.05837,0.05863 0.150147,1.684605 0.463948,3.613344 1.019314,6.265151 1.3587,12.284601 0.775086,13.753993 -0.188771,0.475297 -0.344814,0.474688 -1.122457,-0.0069 -0.496817,-0.30764 -2.101151,-0.963446 -3.565074,-1.457359 -2.364453,-0.797739 -2.6616,-1.012331 -2.663172,-1.918544 -0.0039,-2.293399 -0.663931,-7.059254 -0.97752,-7.059254 -0.647993,0 -0.826409,1.924162 -0.440318,4.748792 0.214219,1.567216 0.314446,2.9296 0.222915,3.027354 -0.09153,0.09775 -0.749025,-0.104845 -1.46116,-0.449766 -0.712136,-0.344922 -1.630444,-0.732368 -2.040111,-0.861478 -0.699621,-0.220487 -0.726701,-0.61358 -0.452134,-6.467185 0.252594,-5.385151 0.210786,-6.232027 -0.307985,-6.232027 -0.673061,0 -1.103516,2.477682 -1.116942,6.429132 -0.01363,4.010728 -0.344529,5.151283 -1.561985,5.386531 -1.610345,0.31117 -5.062817,2.979837 -4.526054,3.498427 0.444191,0.429158 1.14768,0.153655 4.552836,-1.7846 1.775693,-1.010745 2.217588,-0.762658 1.391056,0.781572 -0.752462,1.405845 -1.077324,7.551006 -0.411173,7.776906 0.301045,0.102087 0.471048,-0.725082 0.510422,-2.479417 0.0325,-1.448015 0.237971,-2.805221 0.456071,-3.01594 0.2181,-0.210717 0.399121,-0.654876 0.402508,-0.987048 0.01611,-1.575407 0.588852,-1.688525 3.468978,-0.682637 2.856569,0.99766 10.181204,3.985813 10.481761,4.276195 0.09287,0.08973 -0.09521,0.774286 -0.418263,1.521285 -0.775563,1.793354 -1.306893,5.593081 -0.734124,5.25107 0.232545,-0.138853 0.646605,-1.173293 0.920019,-2.299053 0.273411,-1.125757 0.661426,-2.354003 0.861731,-2.729035 0.370392,-0.693485 1.349567,-0.920563 1.680136,-0.389644 0.397352,0.638175 -1.432048,5.393165 -2.398507,6.23431 -1.099329,0.956788 -3.217903,1.110253 -5.802108,0.420084 -0.776346,-0.207335 -2.228212,-0.517169 -3.22637,-0.68873 C 27.624011,72.894329 23.183466,70.516699 22.61874,66.543051 22.472395,65.51331 22.317816,60.11209 22.275307,54.540174 l -0.07719,-10.130755 1.213828,-2.337866 c 2.188128,-4.215454 3.886473,-6.295329 6.18256,-7.57067 1.184477,-0.657907 2.298035,-1.196331 2.474915,-1.196331 z m 76.883053,2.446694 c 0.0858,0.08293 -0.85253,0.660863 -2.08501,1.283848 -1.23249,0.622984 -2.80414,1.660204 -3.4926,2.305142 -0.68847,0.644938 -1.74013,2.20613 -2.33707,3.46951 -1.157419,2.449573 -1.69005,2.423771 -1.687228,-0.0822 8.07e-4,-0.789432 -0.238329,-1.990663 -0.530903,-2.669673 -0.292574,-0.679009 -0.425962,-1.336534 -0.29696,-1.461166 0.128995,-0.124631 1.005687,-0.226785 1.948741,-0.226785 1.93755,0 2.99084,-0.297354 2.99084,-0.844738 0,-0.219722 -0.73994,-0.26452 -1.80931,-0.109587 -1.902111,0.275584 -3.836825,-0.0043 -3.836825,-0.554786 0,-0.178764 0.865098,-0.24423 1.921951,-0.146117 1.056874,0.09811 3.526674,-0.112698 5.489394,-0.46803 1.96273,-0.355332 3.63914,-0.578363 3.72498,-0.495427 z m -62.069796,0.03653 c 0.0603,0.05825 -0.400973,0.579373 -1.02557,1.157517 -1.107698,1.02532 -1.153097,1.033293 -1.825859,0.315065 -0.66319,-0.708011 -0.623361,-0.752949 1.026356,-1.157519 0.943649,-0.231414 1.764776,-0.373319 1.825073,-0.315063 z m 49.93389,1.93985 c 0.452204,-0.156596 1.402873,4.1013 1.402873,6.282257 0,2.10761 -0.641111,1.63291 -1.171291,-0.866807 -0.637893,-3.007557 -0.733388,-5.241675 -0.231582,-5.41545 z m 13.808956,0.346266 c -1.50611,0.09685 -4.89363,3.307297 -6.37791,6.275406 -0.43185,0.863588 -0.78533,1.62486 -0.78533,1.691758 0,0.354233 0.76566,0.05075 0.9216,-0.365292 0.14366,-0.383266 0.35835,-0.387041 1.00746,-0.0175 0.66518,0.378689 0.91951,0.359829 1.31229,-0.09741 0.39071,-0.454855 0.36288,-0.566963 -0.13942,-0.566963 -0.49492,0 -0.55758,-0.230062 -0.30012,-1.097399 0.36937,-1.244302 1.54168,-2.533994 3.77066,-4.148342 1.06359,-0.770314 1.40235,-1.232609 1.10986,-1.515199 -0.12735,-0.123035 -0.30393,-0.17289 -0.51909,-0.159055 z m -16.186196,0.800597 c 0.5928,0.572734 1.450599,5.121783 1.447769,7.677975 -0.0058,5.04247 -0.315096,8.735613 -0.804222,9.598037 -0.277235,0.488804 -1.047118,0.936222 -1.869188,1.085222 -1.416911,0.256814 -3.463462,2.121516 -3.463462,3.155968 0,0.292365 -0.163991,0.629763 -0.364699,0.74961 -0.427582,0.255314 -0.218407,-1.888233 0.587608,-6.01666 0.313804,-1.607283 0.766962,-3.928236 1.007456,-5.157462 0.547492,-2.798337 0.547114,-2.805698 -0.161473,-2.94897 -0.859478,-0.173777 -1.741149,2.864409 -2.324469,8.009021 -0.27336,2.410925 -0.646682,4.3835 -0.830225,4.3835 -0.183534,0 -0.333972,-0.344154 -0.333972,-0.76483 0,-0.420675 -0.346415,-1.613435 -0.769571,-2.650645 -0.604847,-1.482567 -0.695947,-2.256431 -0.426143,-3.618671 0.376837,-1.902615 2.351781,-7.346236 3.324042,-9.162735 0.649381,-1.213251 4.628119,-4.679859 4.980549,-4.33936 z m 19.354276,6.509041 c -0.33272,0 -0.71676,0.17534 -0.85386,0.389645 -0.13708,0.214304 0.0233,0.389644 0.35604,0.389644 0.33272,0 0.71676,-0.17534 0.85386,-0.389644 0.13709,-0.214305 -0.0233,-0.389645 -0.35604,-0.389645 z m -59.418438,0.1484 c 0.167678,-0.162003 1.072909,0.40862 2.010964,1.267868 1.508533,1.3818 2.423297,1.864187 6.261334,3.302085 0.509512,0.190882 1.430137,0.347024 2.045623,0.347024 0.61549,0 2.001966,0.290749 3.081437,0.646109 2.223299,0.731912 1.904384,1.020841 -1.664388,1.506829 -1.082902,0.147469 -3.288965,0.688077 -4.901777,1.200896 -1.612814,0.512819 -3.119218,0.932255 -3.347678,0.932255 -0.461774,0 -0.938639,-1.034985 -2.635601,-5.720619 C 54.590071,47.261 54.207484,45.693927 54.375162,45.531925 Z m 12.102821,1.097399 c -0.302694,0.09842 0.02263,0.649217 0.788476,1.006073 1.290378,0.60126 1.915657,0.565795 1.915657,-0.108828 0,-0.321456 -0.348029,-0.584466 -0.77351,-0.584466 -0.425486,0 -1.060677,-0.106596 -1.411537,-0.236678 -0.247389,-0.09172 -0.418189,-0.10891 -0.519086,-0.0761 z m -0.616761,1.171213 c -0.08946,0.01137 -0.161136,0.0385 -0.208734,0.08448 -0.165073,0.159486 0.05185,0.538519 0.482064,0.842454 0.914168,0.645828 1.837675,0.723418 1.837675,0.154491 0,-0.465124 -1.484722,-1.161067 -2.111005,-1.08142 z m 7.005698,1.124794 c 0.07633,-0.01777 0.148659,-0.01555 0.214251,0.0091 0.251838,0.09484 0.272193,0.621772 0.05435,1.417028 -0.366567,1.338187 -1.533625,1.765616 -1.533625,0.561638 0,-0.786985 0.730736,-1.863444 1.265026,-1.987799 z m 2.144084,0.171233 c 0.473421,-0.06437 1.277598,0.247852 2.841979,0.878219 1.908853,0.769174 5.530465,3.410363 5.920262,4.317292 0.35228,0.819785 0.351409,5.584875 -0.0016,7.814198 -0.285707,1.804592 -1.092006,2.51895 -1.547807,1.371365 -0.147081,-0.370321 -1.689577,-1.985838 -3.428017,-3.590511 -1.738372,-1.604677 -3.160955,-3.069794 -3.160955,-3.255662 0,-0.185872 0.50965,-0.337896 1.132694,-0.337896 0.623045,0 1.480016,-0.24574 1.904631,-0.545654 1.238474,-0.874943 0.18948,-2.294826 -2.155114,-2.917767 -1.039875,-0.276289 -2.095523,-0.560838 -2.346522,-0.632412 -0.336232,-0.09587 -0.34077,-0.549118 -0.01734,-1.719914 0.241998,-0.875952 0.384373,-1.316896 0.857791,-1.381258 z m -5.425592,4.283805 c 4.809008,0.01048 8.065923,0.428761 8.065923,1.035753 0,0.283396 -1.578961,0.324589 -5.041202,0.131657 -2.772661,-0.15451 -5.041202,-0.188116 -5.041202,-0.07458 0,0.113543 1.043529,0.408247 2.318953,0.654483 2.415269,0.466291 4.537082,1.201164 4.537082,1.571517 0,0.118402 0.270245,0.557765 0.600218,0.976394 0.329952,0.41862 1.422546,1.862704 2.428443,3.209237 1.005897,1.346533 2.254212,2.604512 2.773448,2.795243 0.519236,0.190731 1.038471,0.698251 1.15475,1.127838 0.219594,0.811309 3.473262,2.006061 5.462614,2.006061 0.938129,0 0.96967,0.08058 0.718371,1.850811 -0.722106,5.086679 -1.19085,7.939924 -1.710858,10.422988 -0.31416,1.500132 -0.830283,4.743922 -1.146874,7.20842 -0.316588,2.464501 -0.965536,5.883629 -1.443043,7.598068 -0.47751,1.71443 -1.043984,4.08152 -1.257936,5.260194 -0.213957,1.178667 -0.718803,3.402437 -1.122455,4.941327 -0.705719,2.69043 -0.706607,2.82173 -0.01105,3.42994 0.669483,0.58537 1.09542,0.55679 5.70916,-0.38813 2.741931,-0.56156 5.653423,-1.11898 6.47007,-1.23818 1.465288,-0.21389 1.488024,-0.19683 1.718734,1.29221 0.46337,2.99063 1.050089,4.86529 1.968435,6.2914 1.089842,1.69243 0.954166,3.41866 -0.218194,2.77925 -0.761777,-0.41548 -16.028989,-1.66707 -16.36579,-1.34168 -0.115287,0.11139 -0.429382,0.0257 -0.698679,-0.19025 -0.290692,-0.23309 -4.340257,-0.4292 -9.966613,-0.48325 l -9.477459,-0.0913 0.196135,-1.41246 c 0.144953,-1.04544 -0.06867,-1.85586 -0.822346,-3.11716 -0.560154,-0.93743 -1.506516,-3.10741 -2.103129,-4.82185 -0.596608,-1.71444 -1.285652,-3.52284 -1.530476,-4.01896 -0.487391,-0.987687 0.06469,-1.613217 1.433593,-1.624787 0.942906,-0.008 0.925544,-0.11813 -0.730189,-4.544069 -0.789956,-2.111639 -1.683874,-4.914125 -1.985761,-6.227469 -0.301879,-1.313352 -1.197391,-4.191884 -1.990485,-6.397167 -0.793093,-2.205274 -1.381051,-4.068211 -1.306776,-4.139972 0.07428,-0.07175 1.012209,0.670087 2.085013,1.649143 1.524895,1.391638 2.155921,1.730688 2.890811,1.552488 0.553452,-0.134206 1.351123,0.03203 1.940076,0.404863 0.963825,0.61014 1.014758,0.597406 1.387908,-0.350831 0.54009,-1.372453 1.832323,-0.975924 3.793504,1.163606 1.496898,1.633031 2.402298,2.058102 2.860091,1.342446 0.367118,-0.573899 -0.70753,-3.020434 -1.88651,-4.294458 -1.143909,-1.236175 -1.410069,-1.984752 -0.705748,-1.984752 0.221813,0 0.403296,-0.360121 0.403296,-0.800599 0,-0.903355 -4.348803,-5.230684 -5.661112,-5.633101 -1.198455,-0.3675 -0.825051,-0.964467 1.657297,-2.646842 1.202795,-0.815176 2.317586,-1.823381 2.477275,-2.240456 0.159693,-0.417072 0.638418,-0.757979 1.063379,-0.757979 0.424965,0 1.429112,-0.701995 2.231523,-1.560101 0.996645,-1.065826 2.03416,-1.708607 3.273627,-2.028891 2.360516,-0.609969 2.310963,-1.086742 -0.112637,-1.086742 -2.023587,0 -3.719463,-0.809494 -3.719463,-1.775469 0,-0.772267 -0.682143,-0.707687 -1.155537,0.109587 -0.367899,0.63516 -0.46965,0.636037 -1.835316,0.0069 -0.795009,-0.366297 -1.445405,-0.85301 -1.445405,-1.081423 0,-1.054051 1.286523,-2.614554 2.884511,-3.49843 1.566713,-0.866577 2.204582,-0.968633 5.988004,-0.960412 z m 30.651298,0.225262 c -0.14581,-7.8e-4 -0.291216,0.08501 -0.468678,0.256468 -0.534705,0.516606 -1.266785,5.0442 -0.906628,5.607224 0.442197,0.691272 1.171846,0.08453 1.277626,-1.062389 0.0578,-0.626384 0.31545,-1.801758 0.57265,-2.611837 0.35594,-1.121011 0.35528,-1.582229 -0.004,-1.929196 -0.17897,-0.172935 -0.32522,-0.259667 -0.47104,-0.26027 z M 59.089473,55.90393 c 0.227652,0 0.413535,0.817381 0.413535,1.816565 0,1.374717 0.310171,2.284329 1.275267,3.737392 1.393271,2.097724 1.158735,2.754996 -0.853064,2.391898 -0.56499,-0.101965 -2.269557,-0.324317 -3.787991,-0.493905 -2.237665,-0.249918 -2.803146,-0.202393 -2.982976,0.250377 -0.33618,0.846409 0.465714,1.128586 4.026662,1.415505 4.778543,0.385027 4.839691,0.533446 1.187832,2.881237 -3.470134,2.230956 -4.116698,2.429737 -5.742244,1.769383 -1.725575,-0.700989 -3.211145,-2.018849 -3.18856,-2.828729 0.03521,-1.261918 1.887894,-5.818073 2.833313,-6.967177 1.303566,-1.584408 2.178203,-1.951542 1.820345,-0.764066 -0.146271,0.48536 -0.364176,1.496476 -0.484427,2.246542 l -0.218977,1.363756 0.830221,-0.974111 c 0.456668,-0.535762 0.834759,-1.285208 0.839679,-1.665882 0.0095,-0.735037 3.331747,-4.178785 4.031385,-4.178785 z m 10.596763,0.01371 c -1.864385,0.01345 -1.888672,0.02884 -0.907416,0.570767 1.136468,0.627675 0.679127,0.678351 -2.117305,0.233635 -1.421099,-0.225994 -1.915657,-0.181033 -1.915657,0.175795 0,0.523387 0.881545,0.954326 1.952679,0.954326 0.37213,0 0.895249,0.338242 1.162627,0.751892 0.267377,0.413647 0.991467,0.826269 1.609244,0.916273 2.372462,0.345642 3.663708,0.259511 4.121974,-0.273971 0.746412,-0.868931 -0.637007,-2.161646 -2.382759,-2.226755 -0.942245,-0.03514 -1.116111,-0.109627 -0.515147,-0.221459 1.630067,-0.303338 0.953118,-0.894647 -1.00824,-0.880503 z m 16.174381,1.162083 c 0.144777,0.152839 0.332911,1.239109 0.462374,2.925377 0.11294,1.471095 0.371339,2.773793 0.574219,2.894938 0.202897,0.121148 0.494162,0.700463 0.646699,1.287654 0.256894,0.988901 0.186818,1.067715 -0.952315,1.067715 -0.676396,0 -1.33661,-0.16653 -1.466677,-0.369858 -0.130071,-0.203332 -0.04723,-1.511502 0.183532,-2.907115 0.230762,-1.395608 0.395432,-2.675641 0.366273,-2.844707 -0.02915,-0.169071 -0.03178,-0.730938 -0.0055,-1.248842 0.03311,-0.652557 0.104537,-0.896865 0.191408,-0.805162 z m -16.120819,0.772424 c 0.33272,0 0.716766,0.17534 0.853855,0.389645 0.137088,0.214304 -0.02331,0.389644 -0.356034,0.389644 -0.33272,0 -0.716767,-0.17534 -0.853855,-0.389644 -0.137088,-0.214305 0.02331,-0.389645 0.356034,-0.389645 z m 24.545928,0.39573 c 0.959754,0.01087 1.430776,0.569692 1.86918,1.946703 0.92725,2.912429 0.934129,2.917767 3.483943,2.917767 h 2.326051 l 0.77508,2.299054 c 0.89974,2.667896 0.81957,2.778114 -2.2835,3.159775 -2.971814,0.365517 -4.562936,0.824055 -5.285388,1.522048 -0.351377,0.339482 -0.853159,0.611384 -1.114586,0.604253 -0.26142,-0.0071 -0.04057,-0.362346 0.489948,-0.789182 1.199038,-0.96474 0.823181,-1.427147 -0.660868,-0.813535 -1.029747,0.425769 -1.053422,0.416043 -0.327686,-0.13166 0.43057,-0.324941 0.929653,-0.590554 1.109065,-0.590554 0.17942,0 0.326105,-0.263009 0.326105,-0.584466 0,-0.735917 -0.774515,-0.730755 -1.791204,0.01215 -0.43057,0.314641 -0.952109,0.57229 -1.158684,0.57229 -0.62871,0 0.635648,-1.226632 1.647053,-1.598151 1.349172,-0.495592 0.68683,-1.22473 -0.853067,-0.939104 -1.203062,0.223149 -1.229394,0.203191 -0.489151,-0.366812 0.430562,-0.331564 0.929644,-0.602733 1.109064,-0.602733 0.17942,0 0.326098,-0.330013 0.326098,-0.733627 0,-0.4223 0.385238,-0.84739 0.907419,-1.000747 0.499099,-0.146568 0.709829,-0.347512 0.467887,-0.446723 -0.241942,-0.09921 -1.570459,0.549126 -2.952258,1.440621 -2.692747,1.73728 -3.084041,1.698931 -3.506786,-0.343223 -0.228175,-1.10223 -0.154659,-1.254148 0.609677,-1.254148 0.478314,0 0.974294,0.26301 1.101972,0.584466 0.291232,0.733253 1.355614,0.770951 1.355614,0.04795 0,-0.295214 -0.272232,-0.755271 -0.604945,-1.022057 -1.444848,-1.158526 0.209265,-1.91583 1.703765,-0.780049 1.098671,0.834954 2.127546,1.0256 2.127546,0.394212 0,-0.212334 -0.633211,-0.782188 -1.406814,-1.266345 -1.650245,-1.032803 -1.80084,-1.746737 -0.439522,-2.076836 0.445497,-0.108033 0.819074,-0.164964 1.138992,-0.16134 z m -51.042957,0.06316 c -0.588305,-0.109514 -0.653558,0.192523 -0.505696,2.337866 0.09339,1.354996 0.183204,2.507273 0.200073,2.560848 0.01687,0.05358 0.283102,0.09741 0.591554,0.09741 0.347171,0 0.6297,-0.556645 0.741216,-1.461166 0.236634,-1.919392 -0.187416,-3.378642 -1.027147,-3.534958 z m 76.382081,1.099681 c 0.19112,0 0.24268,0.26301 0.115,0.584467 -0.12767,0.321457 -0.38862,0.584466 -0.57973,0.584466 -0.19113,0 -0.24268,-0.263009 -0.115,-0.584466 0.12767,-0.321457 0.38862,-0.584467 0.57973,-0.584467 z m -58.23769,0.342463 c 0.239799,0.01215 0.679315,0.227583 1.334341,0.627082 0.882844,0.538445 1.79026,0.978677 2.016481,0.978677 0.526786,0 0.524196,0.626732 -0.0063,1.584455 -0.775679,1.400304 -1.691646,0.945647 -2.960129,-1.468017 -0.629904,-1.198586 -0.784064,-1.742443 -0.38439,-1.722197 z m 60.43928,0.04718 c 0.1031,0 0.18746,0.52602 0.18746,1.168934 0,1.142761 -0.51606,1.548431 -1.00272,0.787659 -0.23427,-0.366235 0.42829,-1.956593 0.81526,-1.956593 z m 2.39458,0.194823 0.13626,1.104244 c 0.075,0.607441 0.0378,1.352635 -0.0827,1.655989 -0.1205,0.303354 -0.39557,0.551744 -0.61125,0.551744 -0.79519,0 -0.85689,-0.790214 -0.15911,-2.034217 z m -8.80321,0.663611 c 0.89397,0.02388 1.41007,0.309526 2.02436,0.86909 0.62909,0.573046 2.93364,2.026198 5.12155,3.22979 l 3.9786,2.188703 -1.37529,0.681878 c -2.42478,1.201873 -11.76615,1.196387 -15.7703,-0.0091 -0.83942,-0.252711 -1.85682,-0.357717 -2.26146,-0.233634 -0.62268,0.190941 -0.81349,-0.129912 -1.24297,-2.08521 -0.27907,-1.270611 -0.40032,-2.478216 -0.26859,-2.684132 0.13171,-0.205915 1.01511,-0.47943 1.96291,-0.608056 0.9478,-0.128648 2.54014,-0.420956 3.53829,-0.649167 2.12701,-0.486299 3.39894,-0.724033 4.2929,-0.700144 z m -11.61603,2.64304 c 0.38069,-0.08495 0.87039,0.619749 0.87039,1.366799 0,0.509159 0.17673,1.375682 0.39306,1.925393 0.33368,0.847932 0.28158,0.999223 -0.34658,0.999223 -0.59145,0 -0.7905,-0.407097 -0.98855,-2.022804 -0.13638,-1.112485 -0.17421,-2.094206 -0.0835,-2.181857 0.0481,-0.04656 0.10078,-0.07462 0.15517,-0.08675 z m -0.98539,5.954254 c 0.12284,-0.118678 0.31634,0.02868 0.43007,0.327239 0.11372,0.298553 0.55728,1.506981 0.98539,2.685655 0.42811,1.178675 1.41668,3.623032 2.19687,5.432193 1.01416,2.351695 1.35318,3.629043 1.18862,4.480911 -0.35737,1.84993 -1.87422,3.524532 -3.66118,4.041802 -2.78235,0.805391 -6.159369,0.342565 -7.943826,-1.08827 -0.621535,-0.49837 -0.681111,-0.982655 -0.450549,-3.653676 0.1462,-1.693765 0.45171,-3.415381 0.67898,-3.825669 0.362543,-0.654478 0.175355,-5.128594 -0.241819,-5.780742 -0.307418,-0.480579 0.555228,-1.267864 1.148447,-1.047929 0.411908,0.15271 0.664835,0.854361 0.746728,2.07227 0.07636,1.135801 0.337346,1.908688 0.68135,2.018237 0.44794,0.142641 0.501205,-0.186574 0.270174,-1.675016 -0.158173,-1.019103 -0.383378,-2.093275 -0.500177,-2.387332 -0.124015,-0.312233 0.04945,-0.535001 0.416688,-0.535001 0.489587,0 0.655619,0.53854 0.749089,2.431471 0.09974,2.019656 0.248163,2.455298 0.879065,2.571501 0.61552,0.113375 0.71678,-0.03374 0.53326,-0.775482 -0.12455,-0.5034 -0.35053,-1.748377 -0.50254,-2.766323 -0.22961,-1.5376 -0.1693,-1.850811 0.3584,-1.850811 0.40653,0 0.8,0.596125 1.09331,1.655988 0.25204,0.910795 0.647,1.878289 0.87748,2.149895 0.23048,0.271601 0.4035,2.094678 0.38439,4.051694 -0.0262,2.685278 0.0794,3.448314 0.43008,3.109542 0.89378,-0.863526 0.84688,-5.165813 -0.0914,-8.396378 -0.48397,-1.66642 -0.77976,-3.127091 -0.65692,-3.245769 z m -52.265455,1.150666 1.899117,0.343223 c 1.04459,0.188541 2.056992,0.248208 2.249634,0.13318 0.466634,-0.278635 1.988698,0.525276 2.988489,1.578364 0.443626,0.467274 1.489075,1.244946 2.32368,1.727524 0.834605,0.482578 1.703023,1.212285 1.929837,1.621743 0.53002,0.956826 0.16942,0.943855 -1.125608,-0.04033 -1.639984,-1.246343 -1.554066,-0.576895 0.186681,1.451274 0.881054,1.026526 1.923284,2.348216 2.315804,2.937553 0.392524,0.589337 0.556569,1.065892 0.364697,1.059345 -0.341722,-0.01165 -3.868385,-3.682334 -4.908868,-5.109516 -0.289845,-0.397566 -0.698183,-0.722973 -0.907417,-0.722973 -0.657006,0 -0.415831,0.887703 0.496243,1.825698 0.482299,0.495998 0.692412,0.901813 0.466312,0.901813 -0.2261,0 -0.739883,-0.350681 -1.141361,-0.779289 -0.776744,-0.829238 -1.814832,-1.045034 -1.814832,-0.377468 0,0.22085 0.635192,0.940348 1.411537,1.598914 0.776345,0.658569 1.411536,1.354298 1.411536,1.546401 0,0.698157 -0.797135,0.320031 -2.138571,-1.014447 -1.591475,-1.583219 -2.276292,-1.789956 -1.335918,-0.403345 0.358232,0.528221 0.651416,1.04879 0.651416,1.156757 0,0.515909 -1.592129,-0.497931 -3.226369,-2.054762 -0.998158,-0.950881 -2.22317,-1.98804 -2.722249,-2.304385 -1.098023,-0.695991 -1.122874,-1.352643 -0.131544,-3.461897 z m -27.198071,0.33181 c 0.25857,0.02884 0.260741,0.249926 0.08586,0.808968 -0.157602,0.503803 -0.436676,1.442293 -0.619911,2.085206 -2.437176,8.551293 -4.347588,13.313296 -6.903296,17.208279 -0.953223,1.452751 -0.365394,2.164348 0.726248,0.87899 0.394083,-0.464015 1.009861,-1.129167 1.368214,-1.477917 0.358352,-0.348742 0.931226,-1.247622 1.272904,-1.997685 1.311625,-2.87934 3.191847,-7.632208 3.313802,-8.377356 0.187731,-1.147047 1.855692,-7.339619 2.065318,-7.667318 0.226201,-0.353614 2.980611,1.189347 2.980611,1.669685 0,0.1949 -0.456704,2.220505 -1.014543,4.501461 -0.557839,2.280955 -0.935129,4.223547 -0.838887,4.316527 0.441469,0.426529 1.759504,-3.223033 2.533204,-7.013599 0.120826,-0.59196 0.399749,-1.184348 0.61991,-1.315811 0.352403,-0.210423 2.719525,0.306722 6.566165,1.433772 0.666402,0.195254 2.662718,0.549671 4.436258,0.787658 1.773541,0.237991 3.276073,0.481706 3.339009,0.541847 0.06293,0.06014 0.226981,1.886254 0.363912,4.057784 0.191901,3.043268 0.380527,3.948194 0.823132,3.948194 0.477733,0 0.530004,-0.7202 0.313503,-4.286089 -0.172926,-2.848196 -0.120566,-4.286089 0.155959,-4.286089 0.59872,0 1.140053,2.25961 1.821922,7.6072 0.328578,2.576883 0.707079,4.961956 0.841252,5.299776 0.134172,0.337812 0.461584,1.985211 0.727824,3.660525 0.582577,3.665861 1.492668,4.444802 1.492668,1.27776 0,-1.972849 -2.360944,-13.995874 -3.228733,-16.441933 -0.220426,-0.621319 -0.400932,-1.186783 -0.400932,-1.256451 0,-0.06967 0.537198,-0.395516 1.194135,-0.723734 1.098813,-0.548986 1.225395,-0.541898 1.576162,0.09132 0.598495,1.080445 2.070075,5.109685 2.881362,7.888777 1.440449,4.934334 1.679147,5.691674 3.047563,9.654356 0.760572,2.202475 1.383181,4.087385 1.383181,4.188674 0,0.101297 -0.317596,0.183423 -0.705768,0.182651 -0.456294,-7.81e-4 -0.969584,-0.620736 -1.451709,-1.753407 -0.410144,-0.963561 -0.878452,-1.751871 -1.041323,-1.751871 -0.698109,0 -0.761415,0.56414 -0.183532,1.643807 0.340229,0.635666 0.555549,1.217417 0.478128,1.292221 -0.07742,0.07478 -1.316012,0.319776 -2.752182,0.544891 -1.43617,0.225119 -3.064893,0.390199 -3.619425,0.366819 -1.915077,-0.0808 -6.362684,-1.075563 -8.118698,-1.815805 -3.192063,-1.34559 -4.53458,-1.61074 -9.223038,-1.824924 -8.727076,-0.398684 -11.495758,-0.682806 -14.035809,-1.440615 -1.398108,-0.417117 -2.625593,-0.969538 -2.727763,-1.226768 -0.102169,-0.257238 0.496274,-1.693853 1.330405,-3.192502 1.522093,-2.734674 2.367946,-4.581606 6.065196,-13.244867 1.369368,-3.208652 2.221732,-4.718898 2.71516,-4.812716 0.146277,-0.02782 0.260393,-0.03928 0.346582,-0.02969 z m 71.276298,1.125554 c 0.153408,-0.02891 0.334688,0.249872 0.512783,0.89192 0.365851,1.318954 0.306003,2.891699 -0.237885,6.231268 -0.611438,3.754372 -1.370986,4.08301 -0.90741,0.392687 0.181707,-1.446555 0.294301,-3.725975 0.249693,-5.065378 -0.04995,-1.499531 0.127126,-2.402317 0.382819,-2.450497 z m 15.544218,12.486885 c -0.47379,-0.0047 0.0808,2.004024 0.75225,2.72447 1.86228,1.998249 3.02076,7.706817 2.2386,11.032567 -0.24268,1.031882 -0.33611,2.040099 -0.20794,2.240449 0.12817,0.20037 0.30619,0.36454 0.39621,0.36454 0.48317,0 1.15626,-2.033947 1.4139,-4.273156 0.23317,-2.026572 0.12928,-3.06178 -0.51121,-5.078315 -0.79663,-2.508102 -3.41447,-7.00397 -4.08181,-7.010555 z m 5.69499,4.340882 c -0.27672,0.06498 -0.28395,0.614291 0.0496,1.538798 0.24745,0.685832 0.44977,2.462939 0.44977,3.948949 0,1.991222 0.13259,2.657918 0.50411,2.534214 0.81036,-0.269809 0.6132,-6.777331 -0.23,-7.591978 -0.3448,-0.333127 -0.60748,-0.468977 -0.77351,-0.429983 z m -83.832823,7.169612 c 1.243989,0.05621 2.927305,0.28479 4.378756,0.638502 l 1.714009,0.417803 v 3.868277 c 0,2.12746 0.211803,4.67951 0.47025,5.67116 0.364227,1.39751 0.353212,2.59572 -0.04726,5.32945 -0.77723,5.30555 -0.783735,5.65935 -0.169353,8.60338 0.313058,1.50014 0.678881,3.86723 0.812894,5.2602 0.313895,3.26278 0.732479,4.34213 1.565135,4.03343 0.405168,-0.15021 0.541016,-0.46989 0.368638,-0.86909 -0.149999,-0.34738 -0.364146,-1.87686 -0.475763,-3.39873 -0.191786,-2.61498 -0.153424,-2.77934 0.698679,-2.99464 0.89695,-0.22661 0.900682,-0.20776 0.738064,3.70391 -0.144575,3.47764 -0.262195,3.99576 -1.018481,4.48091 -0.981866,0.62987 -0.887781,1.16776 0.868032,4.93829 0.588121,1.26296 1.015091,2.59339 0.948376,2.95582 -0.112852,0.61308 -0.233648,0.60986 -1.734489,-0.0456 -0.887251,-0.38752 -1.93344,-0.70975 -2.324466,-0.71537 -0.474574,-0.007 -1.15772,-0.89734 -2.055078,-2.6788 -0.73938,-1.46783 -2.345139,-4.2319 -3.568225,-6.14222 -3.067484,-4.7911 -3.610636,-6.8362 -3.715523,-13.98307 -0.07096,-4.83481 -0.231006,-6.21494 -0.924746,-7.98771 -1.640968,-4.19327 -2.837219,-7.622107 -3.246061,-9.303517 l -0.415112,-1.70546 2.550533,0.251903 c 1.511807,0.149652 2.649011,0.09851 2.792354,-0.12557 0.06836,-0.106858 0.326537,-0.17179 0.716007,-0.200148 0.292103,-0.02125 0.658169,-0.02178 1.072831,-0.0035 z m 7.576769,5.241182 c 1.061699,0 7.388512,9.70396 7.388512,11.3324 0,0.2227 -0.454608,1.3326 -1.009817,2.46648 l -1.009028,2.06162 h -2.834887 c -2.947992,0 -3.619918,-0.30402 -2.79393,-1.26559 0.325562,-0.379 1.274407,-0.56772 2.857732,-0.56772 1.303717,0 2.370153,-0.15342 2.370153,-0.34094 0,-0.3786 -1.944141,-0.82838 -3.579254,-0.82799 l -1.058652,7.6e-4 -0.02048,-4.18944 c -0.01147,-2.30395 -0.173264,-5.19688 -0.359185,-6.42913 -0.210842,-1.39741 -0.192458,-2.24045 0.04884,-2.24045 z m 70.432684,1.06694 c 0.99568,0.0159 1.95028,0.0918 2.74587,0.23896 l 1.46353,0.27017 -0.0481,3.59584 c -0.0519,3.86798 0.0329,4.11795 3.46504,10.22817 1.9225,3.42267 2.19145,4.23945 2.88608,8.75786 1.60245,10.42351 2.02327,12.78392 2.44813,13.73497 0.36591,0.81905 -0.33615,0.89382 -1.76678,0.18873 -0.69645,-0.34324 -1.22199,-1.21489 -1.83295,-3.03876 -1.31415,-3.92316 -4.47672,-8.75948 -7.74375,-11.84306 -0.48095,-0.45394 -1.26201,-1.95854 -1.73528,-3.34319 -0.47327,-1.38463 -1.14291,-3.13115 -1.48794,-3.88122 -0.6195,-1.34672 -0.94546,-1.87612 -3.94159,-6.38956 -1.72593,-2.59997 -2.37559,-6.07534 -1.37294,-7.34768 0.57279,-0.72687 3.93357,-1.2189 6.92063,-1.17123 z m -9.10883,3.09129 c 0.35919,0.0755 0.45997,0.6858 0.69238,2.27089 0.15711,1.07152 0.78853,2.73726 1.40287,3.70163 1.48506,2.33115 3.53161,5.87825 5.10343,8.84614 1.16384,2.19756 1.24629,2.58689 0.91372,4.28609 -0.21856,1.11672 -0.21885,2.88848 -8.1e-4,4.40177 0.20074,1.39298 0.39216,4.02308 0.42535,5.84467 0.0332,1.82158 0.16108,3.79415 0.28357,4.38349 0.12249,0.58934 0.0722,1.05047 -0.11185,1.0251 -1.98099,-0.27301 -2.74328,-0.62926 -2.63639,-1.23285 0.0671,-0.37945 -0.13615,-0.66895 -0.47025,-0.66895 -0.60194,0 -1.07843,-1.05757 -2.80968,-6.23431 -3.27762,-9.80062 -4.346489,-13.65694 -4.245637,-15.32398 0.04707,-0.77767 -0.370755,-1.95802 -1.127974,-3.18413 -1.214237,-1.96613 -2.299882,-4.55537 -2.736426,-6.52655 -0.375347,-1.69484 0.331907,-1.24588 0.920807,0.58447 0.907435,2.82037 1.709064,4.12943 3.017635,4.92991 1.321025,0.80811 2.292175,0.54366 2.292175,-0.62479 0,-0.42885 -0.29753,-0.50485 -1.21698,-0.30974 -1.166649,0.24756 -1.25877,0.16742 -2.218137,-1.92843 -1.18402,-2.58666 -1.250237,-3.33246 -0.29538,-3.33557 0.388176,-8.7e-4 1.201515,-0.25229 1.807744,-0.55784 0.485443,-0.24466 0.794303,-0.3923 1.009813,-0.34702 z m -69.12669,4.0243 c -0.466823,0 -0.534172,0.37767 -0.330041,1.85081 0.141056,1.01794 0.327726,2.06998 0.415112,2.33786 0.36894,1.13097 0.990911,0.35627 0.990911,-1.23438 0,-2.11012 -0.307345,-2.95429 -1.075982,-2.95429 z m 75.58573,0.40639 c -0.13606,0.005 -0.26958,0.0808 -0.41038,0.21689 -0.44743,0.43228 2.70248,5.61684 3.93607,6.4786 0.49813,0.34797 1.83043,7.7e-4 2.56156,-0.66818 0.41151,-0.37642 0.46021,-0.99392 0.20165,-2.55629 -0.42327,-2.55765 -1.34557,-3.13726 -1.05708,-0.66437 0.14637,1.25457 0.0286,1.82335 -0.45843,2.21382 -0.90245,0.72362 -1.94743,-0.22884 -3.23819,-2.95277 -0.6986,-1.47429 -1.12702,-2.08445 -1.5352,-2.0677 z m -74.048951,4.75258 c -0.326399,0.0556 -0.250743,0.98126 0.264664,2.36604 0.661303,1.77675 1.029684,2.16068 1.446982,1.50834 0.251273,-0.39281 -0.671503,-3.0635 -1.252423,-3.62475 -0.196738,-0.19008 -0.350423,-0.26816 -0.459223,-0.24963 z m 27.372151,1.17579 c 0.428389,0.0101 0.947089,0.04 1.588765,0.0868 1.673909,0.12193 6.401068,0.3014 10.504606,0.39801 4.103539,0.0966 7.460979,0.19557 7.460979,0.2207 0,0.24639 16.060751,1.15474 16.739155,0.94672 0.724395,-0.22213 0.80423,-0.0676 0.80423,1.5502 v 1.79678 l -13.812896,-0.11342 c -17.646698,-0.14469 -27.175107,-0.42466 -27.572224,-0.80973 -0.37488,-0.36351 0.868938,-2.52906 2.016481,-3.51137 0.516461,-0.4421 0.985736,-0.5949 2.270904,-0.56468 z m -18.364153,2.3021 c 1.017344,-0.0149 1.420201,0.27399 1.420201,0.93225 0,0.34098 -0.356345,0.53711 -0.907416,0.49923 -3.890418,-0.26734 -4.710455,-0.8873 -1.742365,-1.31733 0.483581,-0.0701 0.890465,-0.10917 1.22958,-0.11415 z m 0.0016,2.19784 c 0.765913,0.095 0.821679,0.49683 0.128392,1.16665 -0.582897,0.56316 -1.098213,0.57468 -2.03696,0.0464 -1.131634,-0.6368 -0.824147,-1.04516 0.907416,-1.2047 0.41185,-0.038 0.745847,-0.04 1.001152,-0.009 z m 5.601244,0.0434 c -0.394331,-0.10282 -0.764755,0.91079 -1.628151,4.22064 -0.332526,1.27476 0.09851,1.07761 1.262664,-0.57761 1.112117,-1.58123 1.296928,-2.80019 0.537207,-3.5342 -0.05882,-0.0568 -0.115383,-0.0941 -0.17172,-0.10883 z m 8.152571,0.86681 c 0.180907,0.004 0.405478,0.0337 0.689226,0.0815 2.692445,0.45255 11.0804,0.70414 25.971643,0.77929 8.471591,0.0428 15.481213,0.16094 15.577317,0.26255 0.0961,0.10162 0.285563,0.53561 0.421411,0.96422 0.243884,0.76946 0.06081,0.77928 -14.569076,0.77928 -8.14901,0 -18.30996,0.15164 -22.579857,0.33714 -7.674925,0.33343 -8.58355,0.22143 -7.197893,-0.88963 0.310953,-0.24935 0.68209,-0.90302 0.824712,-1.45204 0.170764,-0.65736 0.319793,-0.87485 0.862517,-0.86224 z m -21.658263,0.28919 c -0.299784,-0.1527 -0.589112,0.53986 -0.678199,1.95812 -0.109373,1.74121 -0.03285,1.93996 0.806592,2.09509 0.510086,0.0943 0.99387,0.19532 1.075194,0.22451 0.08133,0.0292 0.01984,-0.34124 -0.136269,-0.82343 -0.156113,-0.48218 -0.406897,-1.49039 -0.557684,-2.24046 -0.145944,-0.72598 -0.329764,-1.1222 -0.509634,-1.21383 z m 76.266301,3.5517 c 0.40832,0 3.20196,3.46502 3.22007,3.99386 0.0124,0.36147 -2.98027,0.39072 -3.35082,0.0327 -0.42815,-0.41367 -0.31081,-4.02659 0.13075,-4.02659 z m 1.8558,5.2389 c 2.22863,-0.0243 2.98769,0.14014 2.98769,0.64762 0,0.19137 -1.19503,0.34779 -2.65529,0.34779 -1.94676,0 -2.60872,-0.12993 -2.48279,-0.48705 0.1046,-0.29665 0.94492,-0.49524 2.15039,-0.50836 z M 4.6311009,131.14792 c 6.05e-5,0.0124 -4.96e-5,0.0249 0,0.0373 0.00643,0.004 0.012343,0.009 0.016541,0.0153 -0.00532,-0.0176 -0.011198,-0.035 -0.016541,-0.0525 z m 0.027569,0.0913 c 0.00156,0.0269 -0.00582,0.0594 -0.021267,0.0974 0.044964,0.10655 0.088524,0.21352 0.1283931,0.32191 0.017628,0.048 0.022993,0.0623 0.031508,0.086 0.00186,-0.002 0.00685,-7.8e-4 0.00866,-0.003 -0.048193,-0.16791 -0.096802,-0.33569 -0.1472976,-0.50304 z m 56.1692311,0.4277 c -4.776728,0.0221 -8.318362,0.0707 -9.289992,0.15068 -3.699468,0.30441 -2.285911,0.81701 2.621425,0.95052 8.446518,0.2298 47.686986,0.0983 47.688196,-0.15982 8.1e-4,-0.1378 -0.31602,-0.4008 -0.70419,-0.58446 -0.53725,-0.25419 -25.985259,-0.42338 -40.315439,-0.35692 z m 52.467879,0.49847 c 2.73265,0.0351 3.45364,0.36127 3.46898,1.56999 0.003,0.26788 -0.22055,0.45301 -0.49782,0.41171 -0.27727,-0.0413 -1.63839,-0.13699 -3.02472,-0.21308 -1.86913,-0.10258 -2.5206,-0.28432 -2.5206,-0.70395 0,-0.31123 -0.0453,-0.68634 -0.10082,-0.83332 -0.0555,-0.14698 1.1483,-0.25099 2.67498,-0.23135 z m 0.58998,2.65597 c 0.494,0.005 1.02569,0.0318 1.58482,0.0837 1.7183,0.15952 2.10707,0.3303 2.10707,0.92541 0,0.78922 -0.88792,0.85636 -5.0097,0.37671 -3.75084,-0.43649 -2.14018,-1.42407 1.31781,-1.38583 z m -0.5057,2.35842 c 0.64915,0.006 1.43542,0.0499 2.37882,0.12633 2.34498,0.19009 2.84423,0.3533 2.96564,0.96954 0.1563,0.79328 0.48246,0.79309 -5.52484,-0.004 -0.74422,-0.0988 -1.60627,0.0236 -1.91565,0.27169 -0.44924,0.36021 -0.56241,0.29431 -0.56241,-0.32724 0,-0.74036 0.71102,-1.05436 2.65844,-1.03576 z m 11.16705,2.01823 c 0.19796,0.0741 0.45276,0.45403 0.71522,1.12099 0.20673,0.52531 0.96729,1.19391 1.68959,1.48629 0.7223,0.29238 1.74794,0.97994 2.27957,1.52813 0.80264,0.82764 0.87953,1.09802 0.4545,1.59283 -0.35047,0.40799 -1.22741,0.59298 -2.78133,0.58674 -1.79487,-0.007 -2.75435,-0.27084 -4.58828,-1.26178 -2.52616,-1.36497 -2.50186,-1.33004 -1.91329,-2.82568 l 0.40487,-1.02966 1.40996,0.84169 c 1.53983,0.91945 1.82856,0.72317 1.95583,-1.32647 0.0345,-0.55581 0.1754,-0.78716 0.37336,-0.71308 z m -18.66032,1.52434 c 0.37062,0.004 0.81882,0.0427 1.40681,0.0966 l 2.41978,0.22221 0.12524,1.68339 0.12524,1.68339 -1.77466,-0.25723 c -1.26757,-0.18365 -2.58505,-0.0243 -4.60561,0.55707 -2.89766,0.83375 -3.04108,0.85217 -4.255089,0.54565 -1.068028,-0.26965 -0.848961,-0.77562 0.537988,-1.24275 0.684101,-0.2304 2.090591,-1.09275 3.125551,-1.91626 1.37175,-1.09149 1.78288,-1.38493 2.89475,-1.37212 z" />
    <g
       aria-label="XVII"
       id="text1549"
       style="font-size:40px;line-height:1.25;font-family:Hultog;-inkscape-font-specification:Hultog"
       transform="matrix(0.40329615,0,0,0.38964444,3.4448431,0.57442022)">
      <path
         d="m 160.97645,29.360638 q -0.51376,2.715596 -1.54128,2.422018 l -3.57187,-1.003058 q -4.30581,0 -4.89296,1.247706 l -1.66361,-1.174312 q 0.95413,-2.07951 2.17737,-2.07951 0.29358,0 0.56269,0.09786 0.24465,-0.220184 0.24465,-0.562691 0,-0.513762 -0.53823,-1.394496 -1.71254,-1.223241 -4.50153,-6.776758 h -0.17125 q -0.51376,-0.02446 -0.75841,0.464832 -2.49541,5.333333 -4.4526,7.168196 l 0.19572,0.880733 q 2.2263,0.293578 2.2263,1.810398 0,0.611621 -0.4159,1.590214 -0.9052,-0.70948 -1.78594,-0.880734 -0.36697,-0.04893 -1.98165,-0.04893 -3.08257,0 -4.52599,0.733945 l -1.05199,-0.587156 v -1.932721 l 2.88685,-0.733945 q 0.68502,-0.171254 6.94801,-9.174312 1.24771,-0.391437 1.24771,-1.174312 0,-0.782875 -0.9052,-1.492355 -1.24771,-1.027523 -1.37003,-1.198777 -0.78287,-1.076452 -2.10398,-3.400611 -1.3211,-2.3241592 -2.07951,-3.376147 0,0 -1.83486,-1.6391437 l -3.27829,-0.7339449 0.9786,-2.1039756 5.3578,0.6850153 3.00917,-0.6850153 1.37003,0.4648318 v 1.6636086 q -1.68807,0.3180428 -1.66361,1.3700306 v 0.1712538 l 4.64832,6.8746174 0.75841,-0.195718 q 0.92966,-3.571866 3.47401,-5.9938841 V 7.4156835 l -1.8838,-0.6850153 -0.4159,-1.8593272 1.05199,-0.5382263 3.91437,0.6605504 q 1.66361,-0.5871559 2.88685,-0.5871559 1.49236,0 1.8104,1.0030581 -0.80734,2.1529052 -3.18043,2.1529052 -1.85933,2.4220183 -3.71865,4.8440365 -2.78899,3.743119 -3.10704,4.892967 1.54129,1.761467 4.40367,5.333333 0.4893,1.076452 1.61468,3.058104 0.95413,1.003058 2.78899,2.93578 z"
         id="path1961" />
      <path
         d="m 189.50243,4.9692003 -0.41591,1.737003 -2.6422,1.4434251 q -2.81345,7.2415906 -3.74312,9.5168196 -3.03364,7.363914 -4.28134,8.978593 l -1.68808,5.773701 q -2.2263,0 -2.66666,-1.712539 l -0.95413,-3.743119 -0.9786,-1.370031 -0.31804,-2.055045 q -0.0245,-0.04893 -1.59021,-3.03364 -1.02753,-1.957186 -0.9786,-3.180428 -0.66055,-1.027523 -1.95718,-3.082568 -0.19572,-0.562692 -0.53823,-1.614679 -0.95413,-2.593273 -1.8104,-3.8654438 -1.3211,-1.9571865 -3.08256,-1.8593272 -0.0979,-0.5137615 -0.0979,-1.0275229 0,-1.4434251 1.39449,-1.9082569 l 3.57187,1.3700306 3.62079,-1.027523 1.29664,0.880734 q 0.0489,0.2691131 0.0489,0.3425076 0,1.1987768 -2.20184,2.2018349 0.34251,1.3211009 1.17431,3.7675837 1.51682,2.837921 4.20796,8.611621 0,0 0.95412,4.159022 l 0.75841,1.027523 q 0.70948,-0.244649 0.70948,-0.587156 v -2.128441 l 6.263,-14.7767582 q 0,-0.3180428 -1.68807,-1.4189603 -0.0979,-0.4159021 -0.0979,-0.8318043 0,-0.5137614 0.29358,-0.9051987 0.31804,-0.3914373 0.8318,-0.293578 l 3.1315,0.6360856 q 1.07645,-0.7094801 1.93272,-0.7094801 0.85627,0 1.54129,0.6850153 z"
         id="path1963" />
      <path
         d="m 202.56665,29.825469 q -0.4159,2.470948 -1.46789,2.2263 l -4.52599,-1.027523 q 0,0 -3.32722,0.318043 -0.95413,0.66055 -1.66361,0.66055 -1.00306,0 -1.56575,-1.467889 l 1.24771,-1.810398 q 0.58716,0.195719 1.22324,0.195719 2.10398,0 2.10398,-3.400612 0,-0.66055 -0.0979,-1.981651 -0.0979,-1.321101 -0.0979,-1.981652 0,-1.932721 0.0979,-5.82263 0.0979,-3.889908 0.0979,-5.8226297 0,-1.6636086 -0.9786,-2.617737 -0.66055,0.2446483 -1.3211,0.2446483 -1.14984,0 -1.93272,-0.9296636 0.4159,-2.4464832 1.44343,-2.2262997 l 4.47706,0.9785933 4.25688,-1.0275229 1.76147,0.9051987 -0.51376,1.7614679 q -0.4893,-0.1223241 -0.83181,-0.1223241 -2.25076,0 -2.25076,3.8409788 0,0.391437 0.0245,1.027523 0.0245,0.61162 0.0245,0.831804 0,1.614679 -0.0979,15.437309 l 1.02752,1.100917 q 0.66055,-0.220183 1.19878,-0.220183 1.07645,0 1.68807,0.929663 z"
         id="path1965" />
      <path
         d="m 215.87552,29.825469 q -0.4159,2.470948 -1.46789,2.2263 l -4.52599,-1.027523 q 0,0 -3.32722,0.318043 -0.95413,0.66055 -1.66361,0.66055 -1.00306,0 -1.56575,-1.467889 l 1.24771,-1.810398 q 0.58715,0.195719 1.22324,0.195719 2.10398,0 2.10398,-3.400612 0,-0.66055 -0.0979,-1.981651 -0.0979,-1.321101 -0.0979,-1.981652 0,-1.932721 0.0979,-5.82263 0.0979,-3.889908 0.0979,-5.8226297 0,-1.6636086 -0.9786,-2.617737 -0.66055,0.2446483 -1.3211,0.2446483 -1.14985,0 -1.93272,-0.9296636 0.4159,-2.4464832 1.44342,-2.2262997 l 4.47707,0.9785933 4.25688,-1.0275229 1.76147,0.9051987 -0.51376,1.7614679 q -0.4893,-0.1223241 -0.83181,-0.1223241 -2.25076,0 -2.25076,3.8409788 0,0.391437 0.0245,1.027523 0.0245,0.61162 0.0245,0.831804 0,1.614679 -0.0979,15.437309 l 1.02752,1.100917 q 0.66055,-0.220183 1.19878,-0.220183 1.07645,0 1.68807,0.929663 z"
         id="path1967" />
    </g>
  </g>
</svg>
