<?xml version="1.0" encoding="UTF-8" standalone="no"?>
<!-- Created with Inkscape (http://www.inkscape.org/) -->

<svg
   version="1.1"
   id="svg2"
   width="4cm"
   height="4cm"
   viewBox="0 0 151.1811 151.1811"
   sodipodi:docname="18.svg"
   inkscape:version="1.1.2 (0a00cf5339, 2022-02-04)"
   xmlns:inkscape="http://www.inkscape.org/namespaces/inkscape"
   xmlns:sodipodi="http://sodipodi.sourceforge.net/DTD/sodipodi-0.dtd"
   xmlns="http://www.w3.org/2000/svg"
   xmlns:svg="http://www.w3.org/2000/svg">
  <defs
     id="defs6" />
  <sodipodi:namedview
     id="namedview4"
     pagecolor="#505050"
     bordercolor="#eeeeee"
     borderopacity="1"
     inkscape:pageshadow="0"
     inkscape:pageopacity="0"
     inkscape:pagecheckerboard="0"
     showgrid="false"
     inkscape:zoom="2.6748636"
     inkscape:cx="96.453516"
     inkscape:cy="114.21143"
     inkscape:window-width="1920"
     inkscape:window-height="1043"
     inkscape:window-x="0"
     inkscape:window-y="0"
     inkscape:window-maximized="1"
     inkscape:current-layer="svg2"
     units="cm"
     inkscape:document-units="cm" />
  <!-- Border -->
  <path
     id="border"
     class="board-border"
     style="fill:none;stroke:#000000;stroke-width:0.1cm"
     d="M 0,0 H 151.18111 V 151.18111 H 0 Z" />
  <g
     inkscape:groupmode="layer"
     inkscape:label="Image"
     id="g8">
    <path
       id="path12"
       style="fill:#000000;stroke-width:0.443496"
       d="m 84.018838,3.2631421 c -0.819442,0.025782 -1.749449,0.096071 -2.850025,0.2042855 -4.41289,0.4339033 -8.123083,1.8887177 -10.337514,4.054332 -0.788116,0.7707448 -2.142815,2.0668494 -3.010479,2.8800984 -1.404105,1.316044 -1.543129,1.65573 -1.263156,3.08438 0.173008,0.882831 0.710214,1.945766 1.193185,2.362145 0.482974,0.416379 1.026321,1.439863 1.208114,2.275284 0.329567,1.51453 2.960145,5.044114 4.699039,6.304684 3.423439,2.481744 5.054473,3.9506 5.054473,4.552178 0,0.382026 -0.967235,1.319427 -2.149411,2.083061 -1.182176,0.763635 -2.149411,1.493156 -2.149411,1.621412 0,0.128255 -1.002342,1.159441 -2.227774,2.291368 -1.225433,1.131928 -2.911192,2.984654 -3.745612,4.117068 -1.722715,2.337949 -2.899537,5.797861 -2.220314,6.526663 0.242758,0.260484 0.593763,1.090399 0.780843,1.844191 l 0.340509,1.370483 -2.05519,-0.135122 -2.055186,-0.135114 -0.839612,2.676614 c -1.037747,3.309902 -1.037063,3.294296 -0.133409,3.294296 0.846273,0 2.125157,-2.346477 2.125157,-3.899107 0,-1.186104 0.775619,-1.409247 1.117619,-0.321709 0.644947,2.05091 0.713718,2.914616 0.343309,4.326176 -0.223192,0.850517 -0.228602,1.6407 -0.01117,1.756528 0.806014,0.429457 1.894567,-1.674981 1.915249,-3.703671 l 0.02054,-2.070193 1.007541,1.647148 c 0.592721,0.969025 0.995401,2.366804 0.977681,3.395633 -0.01658,0.96184 0.154007,1.846697 0.378759,1.966444 0.382299,0.203694 1.406542,-2.266476 1.412416,-3.406089 0.0029,-0.563465 0.396495,-0.636898 2.802445,-0.521165 1.154919,0.05556 1.546356,-0.07717 1.391892,-0.472913 -0.134878,-0.34557 -1.039913,-0.564165 -2.433014,-0.587924 -1.782735,-0.03039 -2.4083,-0.245467 -3.183067,-1.094612 -1.128961,-1.237346 -1.22388,-2.315689 -0.300397,-3.404482 0.516422,-0.608869 1.151072,-0.756046 2.865882,-0.665132 2.715801,0.143978 2.91976,-0.564938 0.267744,-0.930543 l -1.934841,-0.266213 1.753856,-1.844998 c 0.964418,-1.014664 1.915604,-1.844999 2.113961,-1.844999 0.198362,0 1.923723,-1.20855 3.83424,-2.685461 3.164287,-2.44613 3.54512,-2.629508 4.276431,-2.058935 0.441545,0.344496 1.069289,0.626526 1.39469,0.626526 0.403206,0 0.475312,0.295085 0.226697,0.92652 -0.396247,1.006371 -0.315042,6.231022 0.115681,7.435489 0.404205,1.130299 1.873895,0.67279 1.76972,-0.550924 -0.213967,-2.513372 -0.605508,-5.231714 -0.910514,-6.320772 -0.253058,-0.90356 -0.177455,-1.141315 0.318117,-0.998904 0.357826,0.102822 0.816223,0.871044 1.017798,1.707467 0.201578,0.836421 0.67558,1.934327 1.054188,2.440158 0.378606,0.505828 1.367058,2.402522 2.196053,4.214386 0.828996,1.811862 2.764106,4.901562 4.299755,6.866065 l 2.791257,3.571772 -1.863012,0.27184 c -1.024745,0.149256 -2.413446,0.644126 -3.086048,1.100246 -1.507785,1.022488 -2.23495,0.616173 -3.039403,-1.698622 -0.627581,-1.805863 -1.324677,-2.395163 -2.071048,-1.751705 -0.334966,0.288778 -0.09532,1.164225 0.755652,2.766694 0.684721,1.289413 1.125584,2.509591 0.980479,2.712005 -0.353529,0.493053 -1.640072,0.471715 -1.640072,-0.02735 0,-0.217711 -1.397116,-2.876986 -3.104705,-5.909785 -1.707587,-3.0328 -3.121677,-5.958653 -3.14202,-6.50173 -0.06198,-1.652896 -1.673059,-5.105516 -2.382641,-5.105516 -0.493554,0 -0.626033,0.47823 -0.51123,1.849019 0.08518,1.017172 0.321756,2.128995 0.525224,2.470721 0.676803,1.136718 1.042403,3.710108 0.527093,3.710108 -0.269274,0 -0.940911,0.763031 -1.492646,1.695405 -1.425877,2.409567 -5.339913,5.414541 -7.764563,5.962062 -2.46592,0.556834 -3.598173,0.294097 -7.514548,-1.744464 l -3.08232,-1.604518 -0.147398,-2.235069 c -0.213824,-3.237534 0.113036,-3.982136 1.884466,-4.287571 1.475949,-0.254489 1.491642,-0.28011 0.649298,-1.082551 -0.474307,-0.45182 -1.27011,-0.82116 -1.767852,-0.82116 -0.497741,0 -1.547194,-0.286185 -2.33226,-0.636179 -1.051965,-0.468984 -2.144448,-0.567315 -4.155156,-0.373182 -2.516507,0.242966 -2.818404,0.180309 -3.886479,-0.805077 -0.636882,-0.587573 -1.44291,-1.068072 -1.791176,-1.068072 -1.266561,0 -0.588524,-0.74976 1.252889,-1.384955 1.850281,-0.638257 2.890139,-1.671266 2.890139,-2.871249 0,-0.715181 -2.998953,-2.332388 -4.324944,-2.332388 -1.498899,0 -4.61019,2.717954 -5.082463,4.43958 -0.343885,1.253599 -0.671075,1.566057 -1.817299,1.737225 -1.151268,0.171922 -1.472656,0.482809 -1.823826,1.762963 -0.234519,0.854907 -0.293641,2.167874 -0.130607,2.917091 0.342841,1.575509 2.627237,3.967474 3.788524,3.967474 0.618008,0 0.808775,0.432162 0.863869,1.955988 0.09109,2.519481 0.164422,3.058094 0.517762,3.80903 0.159852,0.339723 0.54902,2.470722 0.865735,4.73555 0.316717,2.264828 0.875009,5.299352 1.239829,6.743009 0.364823,1.44366 0.882332,4.964442 1.150272,7.82396 0.26794,2.859507 0.723662,7.329804 1.012202,9.934362 0.288539,2.604548 0.623875,8.79211 0.74539,13.750626 0.210769,8.60055 0.18057,9.00231 -0.651167,8.72714 -1.989523,-0.65818 -8.820901,-1.12441 -12.832098,-0.87584 -2.892654,0.17925 -4.141832,0.13095 -3.818379,-0.14879 0.7227,-0.62502 9.045334,-1.6837 13.251906,-1.68576 3.779645,-0.002 4.899006,-0.53285 2.199789,-1.04394 -2.17335,-0.41152 -7.940738,-0.33071 -10.4392,0.14638 -1.182176,0.22574 -4.406293,0.53472 -7.164704,0.68684 -2.758411,0.15213 -5.767588,0.43859 -6.687058,0.63618 -0.919471,0.19759 -2.262853,0.46328 -2.985294,0.59114 -0.722441,0.12786 -1.313531,0.43218 -1.313531,0.67559 0,0.29551 0.809496,0.34658 2.436747,0.15362 1.340399,-0.15895 4.000808,-0.16323 5.911816,-0.008 2.839676,0.22941 3.463848,0.40742 3.414428,0.97157 -0.07056,0.80551 0.347059,0.8149 6.865244,0.15199 2.965072,-0.30153 5.199783,-0.32778 6.448234,-0.0746 1.050823,0.21293 2.716617,0.3919 3.701765,0.39731 l 1.791176,0.009 v 2.85998 2.8608 l -2.507647,-0.64423 c -2.494894,-0.64084 -4.213224,-0.62347 -13.135292,0.13592 -2.556758,0.21762 -2.985295,0.3711 -2.985295,1.06888 0,0.64675 0.221602,0.76192 1.074706,0.55737 4.332377,-1.03882 10.285272,-1.19127 15.866836,-0.40617 1.727942,0.24304 1.533477,0.0473 1.946039,1.95117 l 0.344242,1.59006 -2.03,-0.29598 c -7.023563,-1.02301 -17.941665,-0.74315 -17.201823,0.44074 0.131353,0.21019 0.561236,0.33313 0.955294,0.27344 0.394059,-0.0597 3.080823,-0.22246 5.970588,-0.36192 4.063454,-0.19608 5.940796,-0.10145 8.283257,0.41823 1.665864,0.36962 3.226372,0.56686 3.467605,0.43832 0.254197,-0.13544 0.414172,1.16291 0.381559,3.08761 -0.06387,3.76919 -0.0417,3.75415 -4.027348,2.72004 -3.048303,-0.79091 -13.76092,-0.96052 -14.77627,-0.23405 -1.368939,0.97949 -0.183492,1.24667 4.431294,1.00053 4.574032,-0.24399 13.377916,0.44641 14.14656,1.10908 0.223817,0.19297 -0.875324,7.84423 -1.399355,9.74053 -0.241077,0.87239 -0.107479,0.92651 2.284682,0.92651 1.397347,0 2.75258,-0.18299 3.012348,-0.40695 0.539865,-0.46542 11.241814,-0.62632 13.21832,-0.19866 2.038136,0.44102 1.584686,-0.52348 -0.483243,-1.02785 -0.985148,-0.2403 -4.101794,-0.55504 -6.925883,-0.69972 l -5.134704,-0.263 v -1.18067 c 0,-1.00606 0.158635,-1.15203 1.074706,-0.98925 0.591087,0.10504 2.880373,0.30932 5.087127,0.4536 2.206758,0.1443 4.536361,0.43404 5.177616,0.64423 0.978919,0.32088 1.207841,0.24445 1.426411,-0.47612 0.189599,-0.62504 0.535229,-0.80252 1.270619,-0.65308 0.555346,0.11286 2.72893,0.42663 4.830577,0.6973 2.101647,0.27068 4.772768,0.7481 5.936068,1.06083 2.603545,0.69996 3.996487,0.72765 3.743745,0.074 -0.421504,-1.09015 -15.208405,-3.62858 -16.355675,-2.80772 -0.373099,0.26697 -2.613063,0.30559 -6.266319,0.10859 l -5.686051,-0.30643 v -1.23375 c 0,-1.18598 0.07423,-1.22906 1.910588,-1.10828 1.050823,0.0691 3.200233,0.29841 4.776469,0.50989 3.792097,0.5088 5.146818,0.49519 4.757814,-0.0475 -0.369695,-0.5157 1.684924,-0.25372 6.773818,0.86218 4.80005,1.05256 7.81307,1.40198 7.81307,0.90641 0,-0.22579 -0.483615,-0.49977 -1.074704,-0.60883 -12.453337,-2.29763 -13.319402,-2.42336 -13.89841,-2.00908 -0.41253,0.29517 -1.151282,0.31141 -2.253897,0.0491 -0.902021,-0.21461 -3.141528,-0.5328 -4.977044,-0.70777 -2.729265,-0.26015 -3.369202,-0.46066 -3.51145,-1.09863 -0.164501,-0.73776 0.08123,-0.76468 4.531118,-0.50267 11.194221,0.65914 23.927702,2.98011 23.358986,4.2578 -0.337334,0.75787 1.235214,1.32411 4.490069,1.61741 1.588353,0.1431 2.888274,0.40412 2.888274,0.57988 0,0.53844 -3.357233,2.14374 -5.192543,2.48278 -0.953322,0.17613 -2.636453,0.51678 -3.740015,0.75682 -1.421215,0.30914 -2.396478,0.30708 -3.343528,-0.006 -2.423926,-0.80252 -8.908796,-1.63064 -9.406475,-1.20158 -0.687922,0.59306 -0.25995,0.78345 2.856553,1.27235 4.049271,0.63523 7.404005,1.63882 7.700191,2.30423 0.624407,1.40283 2.98737,1.84456 10.820758,2.02275 10.67885,0.24293 11.50999,-0.14682 9.804832,-4.60284 -1.120197,-2.92787 -1.120233,-3.16844 -0.0021,-2.8624 2.035438,0.55694 9.231098,1.17904 14.264098,1.23294 3.46309,0.0372 5.5773,0.23358 5.94727,0.55254 0.31569,0.27215 1.12128,0.49657 1.79118,0.49945 1.58607,0.006 4.86725,0.80596 10.77131,2.62435 4.88433,1.5043 6.44824,1.77457 6.44824,1.11552 0,-0.55526 -7.72035,-2.92678 -14.21186,-4.36559 -5.26576,-1.16714 -5.92435,-1.44963 -4.46769,-1.91417 0.63795,-0.20346 2.92672,-0.0834 5.69352,0.29759 2.54491,0.35045 6.13179,0.84088 7.97074,1.09059 4.46407,0.60613 4.92904,0.85203 5.10577,2.6927 0.11638,1.21194 0.33896,1.52891 1.03553,1.47825 0.6482,-0.0472 0.74459,0.0577 0.35823,0.39087 -0.71124,0.61318 -0.67098,1.82725 0.0681,2.04607 0.32837,0.0972 0.75225,-0.16737 0.94224,-0.58873 0.18996,-0.42137 0.83479,-0.92798 1.43293,-1.12518 1.53803,-0.50706 2.92681,-1.95424 2.59348,-2.70314 -0.15518,-0.34864 -0.0986,-1.48136 0.12595,-2.51739 0.29942,-1.38188 0.22939,-2.19227 -0.26216,-3.04175 -0.49683,-0.85861 -0.54419,-1.44276 -0.18377,-2.25999 0.65371,-1.48234 0.6132,-1.87235 -0.19592,-1.87235 -1.21712,0 -2.01317,1.08953 -1.84622,2.52702 0.46965,4.04391 0.24237,6.52032 -0.7174,7.82717 l -0.97674,1.32946 -0.29761,-1.62061 c -0.16406,-0.89164 -1.04187,-3.62232 -1.94977,-6.06823 -2.17128,-5.84958 -2.15321,-6.34452 0.25561,-7.21673 1.04815,-0.37951 1.90773,-0.8921 1.91059,-1.13884 0.005,-0.48778 2.03105,-1.40426 3.10378,-1.40426 2.10854,0 0.60559,-2.497 -2.26229,-3.75835 -1.73272,-0.76208 -1.81524,-0.87214 -1.0234,-1.37128 0.79569,-0.50163 0.81283,-0.75588 0.22763,-3.3683 -0.34818,-1.55432 -1.21473,-3.66007 -1.92645,-4.67925 -0.71173,-1.01918 -1.69653,-2.77957 -2.18766,-3.91198 -0.49114,-1.13241 -1.38705,-2.87386 -1.99176,-3.87015 -0.60469,-0.99629 -1.09989,-2.21035 -1.09989,-2.69752 0,-0.487189 -0.24831,-1.099591 -0.55134,-1.36084 -0.30303,-0.261247 -0.532,-1.035897 -0.50936,-1.721945 0.0227,-0.686038 -0.15893,-1.354144 -0.40395,-1.484682 -0.24487,-0.130576 -0.44588,-0.614847 -0.44588,-1.076123 0,-0.461275 -0.29838,-1.330712 -0.66329,-1.931859 -0.68544,-1.12917 -2.89341,-7.150173 -3.42097,-9.328752 -0.392,-1.61875 -1.60542,-5.134223 -2.1317,-6.176801 -0.22863,-0.452968 -0.56252,-1.465901 -0.74259,-2.251159 -0.18004,-0.785248 -0.48721,-1.711775 -0.68195,-2.058933 -0.83428,-1.487355 -1.88426,-4.660939 -1.65029,-4.987283 0.29296,-0.408684 -1.65983,-4.571021 -2.33041,-4.967182 -0.2463,-0.145518 0.0974,-0.885474 0.76591,-1.647148 1.43121,-1.630944 2.33335,-6.041489 2.1149,-10.340519 -0.0779,-1.533121 0.0794,-2.971126 0.35078,-3.205026 0.33766,-0.291108 0.19463,-0.491293 -0.45526,-0.637783 -0.75437,-0.170043 -0.93879,-0.549002 -0.90866,-1.862693 0.0268,-1.172231 -0.20381,-1.760823 -0.79763,-2.034809 -0.45949,-0.212009 -1.08982,-1.081616 -1.40028,-1.932665 -1.02911,-2.821009 -2.12866,-4.617729 -2.97503,-4.861819 -0.45973,-0.132588 -0.83588,-0.510942 -0.83588,-0.840463 0,-0.329525 -0.85978,-1.40346 -1.9106,-2.386276 -1.05081,-0.982822 -1.91058,-1.910823 -1.91058,-2.062956 0,-0.356249 -5.59083,-4.870557 -6.62083,-5.345993 -0.43059,-0.198753 -1.53501,-0.972058 -2.45448,-1.717922 -3.275294,-2.656901 -3.760616,-3.011281 -4.740084,-3.463193 -0.545289,-0.251595 -0.991671,-0.679907 -0.991671,-0.951454 0,-0.271544 -0.59109,-1.474299 -1.31353,-2.672595 -1.128627,-1.872015 -1.212672,-2.232766 -0.597062,-2.56482 0.394058,-0.212551 0.7269,-0.532051 0.739798,-0.710171 0.01289,-0.178126 0.196185,-0.760758 0.406741,-1.294074 C 96.886907,11.39509 96.64837,10.927941 95.315179,9.7106938 94.410934,8.8848716 93.322254,7.5473033 92.896101,6.7378649 92.364723,5.7278617 91.479353,4.9959452 90.074374,4.4045469 87.945559,3.5084653 86.477209,3.1859274 84.018894,3.2632849 Z M 80.716354,4.730938 c 0.229252,-0.00143 0.491474,0.094462 0.850808,0.2879287 0.505895,0.2723747 2.166115,0.4830174 3.689636,0.4680867 1.523518,-0.01493 3.338883,0.1627183 4.034814,0.3948971 1.185123,0.3953871 2.79498,1.9074866 2.79498,2.6251423 0,0.4735206 -0.916046,0.344731 -3.582352,-0.5034741 C 85.493354,7.045698 80.056446,6.96432 76.229084,7.8193398 74.65579,8.1708091 73.155555,8.3966528 72.895819,8.3220109 72.105232,8.0948187 77.092527,5.5327976 78.325318,5.5327976 c 0.633199,0 1.414333,-0.2268449 1.736139,-0.5042791 0.228572,-0.197059 0.42565,-0.2961801 0.654897,-0.2975805 z m 2.681165,3.8122471 c 2.895907,0.046108 5.543595,0.4776603 7.017308,1.2804012 0.525411,0.2861947 1.546384,0.6460607 2.268824,0.7994457 1.450819,0.308028 1.849424,1.758828 0.597059,2.173142 -0.922242,0.305098 -0.906188,0.750096 0.0569,1.580392 0.941871,0.812004 0.494048,1.363202 -0.518696,0.638592 -0.989187,-0.707757 -7.02817,-1.657027 -10.54275,-1.657603 -1.586718,-2.68e-4 -4.166012,0.287089 -5.731763,0.63859 -1.565756,0.351503 -3.760725,1.100062 -4.877226,1.664039 l -2.029999,1.025446 v -1.076115 c 0,-0.591931 -0.333545,-1.363671 -0.740726,-1.714707 -1.625384,-1.401271 -0.12402,-2.482127 5.994844,-4.3181343 2.466197,-0.7399988 5.610316,-1.079604 8.506219,-1.0334886 z m -2.318265,5.7159589 c 1.04785,-0.01844 1.592395,0.318379 3.219452,1.498356 2.286691,1.65836 3.233598,2.089854 7.308372,3.32888 1.423888,0.432966 2.20764,0.930609 2.324799,1.476643 0.174111,0.811521 0.162002,0.812381 -0.834016,0.03941 -0.9981,-0.774583 -1.011269,-0.77329 -1.011269,0.102958 0,0.488068 0.162456,0.887112 0.361035,0.887112 0.198575,0 0.646829,0.557042 0.996341,1.237774 0.89932,1.751553 1.66697,1.106528 1.286477,-1.08094 -0.172623,-0.992398 -0.121958,-1.803983 0.112878,-1.803983 0.234831,0 1.108276,0.730892 1.941381,1.62463 l 1.515035,1.625432 -1.635384,1.07531 c -1.436794,0.944785 -1.76042,1.010417 -2.656916,0.537255 -0.56132,-0.296261 -1.360949,-1.152011 -1.777181,-1.901299 -0.536722,-0.966194 -0.905031,-1.234454 -1.266881,-0.922499 -0.361847,0.311956 -0.253254,0.827939 0.374091,1.774222 0.486508,0.733847 0.596067,1.102656 0.243491,0.819554 -0.874901,-0.702506 -1.434215,-0.647518 -1.098028,0.107767 0.198219,0.445326 0.05816,0.549747 -0.492574,0.367553 -1.029005,-0.340421 -0.992551,0.570119 0.06623,1.654386 0.833839,0.853905 0.833643,0.853571 -0.229494,0.07801 -0.877553,-0.640169 -1.195526,-0.685005 -1.797706,-0.254149 -0.556656,0.39828 -0.601956,0.658002 -0.189376,1.08657 0.298107,0.309675 0.831204,0.56299 1.18385,0.56299 0.352652,0 0.878719,0.382613 1.168931,0.850115 0.410172,0.660732 0.821998,0.794005 1.850883,0.599182 0.82343,-0.155917 1.51408,-0.0493 1.827559,0.282299 0.277146,0.293174 1.953636,2.988512 3.72602,5.98941 2.949516,4.993935 3.992766,6.113439 4.732626,5.081385 0.27105,-0.378097 -3.296276,-6.053305 -6.563916,-10.442658 -0.972739,-1.306675 -1.765168,-2.511151 -1.760391,-2.676616 0.0048,-0.165465 0.879925,-0.924686 1.945104,-1.687362 l 1.936712,-1.386564 1.492646,1.18067 c 6.885705,5.446905 9.761445,8.376279 11.822705,12.044771 1.47937,2.632891 2.70264,3.392888 2.2315,1.386564 -0.58256,-2.480766 -3.98945,-6.552643 -9.12848,-10.909943 -2.87006,-2.433495 -5.088059,-4.537694 -4.928523,-4.675231 0.338818,-0.29209 0.899603,0.04233 5.509723,3.278211 1.8917,1.327788 3.43963,2.556749 3.43963,2.731306 0,0.174559 0.42839,0.413674 0.95156,0.531624 0.52319,0.11795 1.32922,0.816025 1.79118,1.550634 0.46197,0.734611 1.40421,1.910469 2.09436,2.61308 1.85172,1.885137 5.62035,8.8664 6.28031,11.63459 0.72294,3.032312 0.65856,10.22672 -0.10914,12.232164 -0.42462,1.109186 -1.08082,1.738887 -2.43207,2.333194 -2.63369,1.158345 -3.13331,1.00728 -1.28836,-0.38927 1.0476,-0.792954 1.87577,-1.986993 2.43023,-3.503407 0.89879,-2.45817 0.76914,-3.117355 -0.61291,-3.117355 -1.25438,0 -2.09031,1.062778 -1.81451,2.30665 0.18373,0.828553 -0.21468,1.548308 -1.73427,3.127815 -1.90162,1.976599 -5.07921,4.076115 -5.07872,3.356224 1.2e-4,-0.192102 0.44717,-1.363323 0.99353,-2.602625 1.0844,-2.459719 0.96183,-4.945644 -0.35171,-7.135495 -0.81829,-1.364221 -1.89531,-1.259196 -1.70069,0.165679 0.30028,2.198366 0.1197,5.789075 -0.36942,7.355064 -0.39623,1.268588 -0.75533,1.662429 -1.51691,1.662429 -0.89778,0 -0.96694,-0.166379 -0.69034,-1.657603 0.2432,-1.311188 0.14536,-1.711264 -0.46553,-1.913364 -1.0919,-0.361241 -1.59968,0.580532 -1.10921,2.054915 0.84945,2.553489 -0.97248,1.910317 -2.78006,-0.98121 -1.817097,-2.906755 -5.233967,-7.376481 -6.590039,-8.620987 -1.087219,-0.997774 -5.003166,-7.771858 -5.003166,-8.654767 0,-0.24041 -0.446848,-1.192983 -0.993543,-2.11684 -0.600466,-1.014715 -0.821663,-1.829108 -0.557877,-2.05652 0.263779,-0.227411 0.766694,0.3219 1.270618,1.387366 0.873013,1.845871 1.268027,2.53063 3.980699,6.911104 1.966177,3.175018 2.482143,3.769354 3.023543,3.480884 0.223148,-0.11889 -0.03744,-0.904107 -0.579336,-1.745267 -2.055144,-3.190287 -2.811785,-4.496977 -4.225119,-7.294742 -0.800885,-1.58538 -1.652204,-3.182771 -1.891931,-3.550052 -0.275579,-0.42221 -0.249278,-0.829846 0.07277,-1.107484 0.360719,-0.310983 1.108565,0.365148 2.561758,2.315498 1.128614,1.514729 2.622074,3.402391 3.318337,4.195081 0.696265,0.792689 2.124354,2.506752 3.173743,3.809029 1.200567,1.489891 2.247513,2.367776 2.824843,2.367776 1.15713,0 1.18371,-1.006274 0.0522,-1.981726 -0.84879,-0.731767 -5.094709,-5.453843 -8.977333,-9.984224 l -1.961896,-2.289763 1.080302,-1.168606 1.080299,-1.167804 1.835957,2.531045 c 1.796915,2.478275 2.554298,3.069295 2.554298,1.993787 0,-0.684938 -2.451596,-4.020409 -3.501196,-4.7637 -0.438924,-0.310834 -0.797631,-0.842555 -0.797631,-1.182279 0,-0.882865 -1.364997,0.135907 -2.043059,1.524897 -0.480886,0.985081 -0.538185,0.919689 -0.97302,-1.115522 -0.253996,-1.189037 -0.646463,-2.161885 -0.872218,-2.161885 -0.637124,0 -0.485652,1.390971 0.335842,3.085989 0.737894,1.522521 0.651254,2.67903 -0.200573,2.67903 -0.241761,0 -0.416245,-0.231632 -0.387156,-0.514736 0.02908,-0.283103 -0.226162,-1.584732 -0.567206,-2.892964 -0.477476,-1.831567 -0.803388,-2.352438 -1.418947,-2.264829 -0.531849,0.07569 -0.752937,-0.127787 -0.659562,-0.607223 0.104464,-0.536384 -0.184616,-0.720628 -1.132545,-0.720628 -0.944838,0 -1.15539,0.132853 -0.815362,0.514734 0.30095,0.337989 0.24122,0.868222 -0.173521,1.5442 -0.620272,1.011007 -0.631183,1.012854 -0.638107,0.102948 -0.0039,-0.509587 -0.222402,-0.926521 -0.485107,-0.926521 -0.494825,0 -0.623985,0.444529 -0.537353,1.85304 0.04227,0.6875 -0.02919,0.659144 -0.436599,-0.172917 -0.41989,-0.85756 -0.27289,-1.188203 1.053249,-2.367775 1.024826,-0.911561 1.989443,-1.371283 2.879874,-1.371283 1.553589,0 1.695732,-0.418619 0.466455,-1.377718 -1.186198,-0.925477 -1.847214,-0.859702 -3.512387,0.34825 -0.780518,0.566207 -1.931547,1.029468 -2.557093,1.029468 -1.329686,0 -5.251365,-3.020502 -4.778333,-3.680345 0.590965,-0.824358 1.613058,-0.436758 2.645715,1.00373 0.568266,0.792689 1.358882,1.441253 1.756658,1.441253 1.097843,0 3.497459,-1.340826 3.497459,-1.954378 0,-0.87229 -1.299954,-1.0553 -2.472194,-0.347446 -0.596047,0.359924 -1.234909,0.654677 -1.419884,0.654677 -0.184968,0 -1.013007,-1.019172 -1.839685,-2.264829 -1.468574,-2.212875 -1.551837,-2.264828 -3.632729,-2.264828 -1.768021,0 -2.199852,-0.157365 -2.542163,-0.926521 -0.607518,-1.365045 0.347116,-1.987508 1.263152,-0.823574 0.761747,0.967896 2.328462,1.306711 1.904054,0.411787 -0.134243,-0.283104 -0.395606,-0.839016 -0.580265,-1.235361 -0.532872,-1.14371 0.67162,-0.854555 1.286476,0.30884 0.299245,0.566209 0.831965,1.029467 1.183857,1.029467 0.812831,0 0.803489,-0.180931 -0.09143,-1.672884 -0.70289,-1.171826 -0.687734,-1.234744 0.401149,-1.591652 0.623538,-0.204383 2.123708,-0.499108 3.333268,-0.655482 0.519756,-0.06719 0.925064,-0.112887 1.274348,-0.119033 z m 7.340093,1.240989 c 0.09846,0.01079 0.240036,0.09032 0.411407,0.238066 0.310886,0.268004 0.453856,0.582699 0.318123,0.699716 -0.318777,0.274822 -0.883462,-0.212001 -0.883462,-0.761645 0,-0.129015 0.05546,-0.186895 0.153932,-0.176137 z m 4.32401,0.139141 c 0.556945,-0.04083 1.461857,0.295724 1.84342,0.77612 0.627285,0.789791 0.354013,1.286641 -0.299464,0.544492 -0.348989,-0.396344 -0.81492,-0.720626 -1.035525,-0.720626 -0.220611,0 -0.142659,0.222042 0.172589,0.493821 0.315247,0.271781 0.572803,0.73504 0.572803,1.029468 0,0.294428 -0.180612,0.535645 -0.401147,0.535645 -0.549906,0 -1.583142,-2.034628 -1.261289,-2.48359 0.07597,-0.105964 0.222965,-0.16172 0.408613,-0.17533 z m -12.667905,0.468085 c -0.414227,0.02777 -0.78062,0.09495 -1.031795,0.208306 -1.317135,0.594441 -1.750385,2.017502 -1.000073,3.28384 0.356902,0.602366 0.92183,1.173198 1.255691,1.269141 0.604448,0.173701 4.523283,-1.126874 5.328749,-1.768593 0.539789,-0.43005 -0.628316,-1.408643 -1.736136,-1.454123 -2.675345,-0.109832 -3.224118,-0.215016 -3.224118,-0.619289 0,-0.296793 0.665396,-0.351053 1.971226,-0.160855 1.265516,0.184328 1.865759,0.140551 1.677362,-0.122249 -0.32096,-0.447723 -1.998241,-0.71947 -3.240906,-0.636178 z m 10.70134,0.195438 c 0.07683,0.01465 0.204199,0.17317 0.412344,0.481758 0.278783,0.413332 0.415779,0.830266 0.304127,0.92652 -0.338522,0.291846 -0.840113,-0.331964 -0.824686,-1.025445 0.006,-0.267726 0.03139,-0.397496 0.108215,-0.382833 z m -3.472269,4.466119 c -1.468625,0 -1.605155,0.940945 -0.376891,2.599405 1.112124,1.501645 2.293077,1.991609 2.293077,0.951454 0,-0.311992 -0.336305,-0.807823 -0.747255,-1.101853 -0.474274,-0.339334 -0.645177,-0.884424 -0.468316,-1.491922 0.223729,-0.768501 0.08579,-0.957084 -0.700615,-0.957084 z m 9.248814,5.503629 c -0.317275,0.04877 0.06931,0.633363 1.348049,2.252765 2.743984,3.475005 3.070074,3.9547 4.449964,6.553205 1.28973,2.428784 2.15406,3.244786 2.15406,2.033198 0,-1.562411 -6.009089,-10.265629 -7.407248,-10.728178 -0.255424,-0.0845 -0.43906,-0.127245 -0.544825,-0.11099 z m -5.281172,0.0025 c 0.113971,-0.09826 0.563443,0.290512 0.999142,0.863788 0.435715,0.573275 0.624442,1.042334 0.418872,1.042334 -0.465045,0 -1.701354,-1.661849 -1.418014,-1.906122 z m -11.66037,4.788587 c 0.262705,0 0.610084,0.185304 0.772446,0.411785 0.162362,0.226484 0.07985,0.411788 -0.182849,0.411788 -0.262706,0 -0.610084,-0.185304 -0.772445,-0.411788 -0.162362,-0.226481 -0.07985,-0.411785 0.182848,-0.411785 z m 5.640342,0.190611 c 0.105356,0.02526 0.20388,0.165424 0.319987,0.426264 0.520275,1.168875 0.356165,1.579468 -0.411413,1.030273 -0.495014,-0.354179 -0.716472,-0.370017 -0.716472,-0.05066 0,0.898481 -0.846969,0.448423 -1.072838,-0.570227 -0.191111,-0.861895 -0.115476,-0.95163 0.458054,-0.541277 0.535447,0.38311 0.770671,0.375833 1.062579,-0.03137 0.142524,-0.198813 0.254744,-0.288267 0.360103,-0.262997 z m -6.98279,0.857355 c 0.228889,0.121958 0.854273,1.075907 1.390026,2.120059 l 0.973952,1.898078 -2.037461,1.688167 c -1.120815,0.928193 -3.922433,3.253257 -6.22527,5.166642 l -4.186876,3.478471 0.182847,-2.128905 c 0.146724,-1.706985 0.623846,-2.690192 2.403163,-4.955918 2.750166,-3.501989 6.942131,-7.563632 7.499619,-7.266594 z m 3.331404,0.04023 c 0.703129,0.171758 1.584965,1.639964 2.192323,3.72619 0.41337,1.419909 -0.144131,1.153274 -1.521569,-0.727865 -1.689285,-2.307024 -1.817747,-2.707306 -0.959957,-2.991085 0.09182,-0.03039 0.188749,-0.0318 0.289203,-0.0072 z m 23.418689,0.970739 c -0.19537,0 -0.47577,0.10455 -0.6241,0.232434 -0.28563,0.246236 3.126,6.130952 4.16262,7.179732 0.33576,0.339724 0.75836,1.034614 0.93849,1.544202 0.38381,1.085787 2.17368,1.287068 2.17368,0.244499 0,-0.374967 -0.53736,-1.289253 -1.19412,-2.03159 -0.65677,-0.742336 -1.19412,-1.458553 -1.19412,-1.592457 0,-0.463072 -3.90853,-5.57682 -4.26245,-5.57682 z M 47.728858,40.45754 c 2.147105,0.0045 2.626069,0.944471 0.2948,1.536158 -1.068935,0.271303 -1.600249,0.682621 -1.705351,1.320614 -0.09809,0.595428 -0.482138,0.926522 -1.074706,0.926522 -1.837399,0 -0.454929,-3.510276 1.466525,-3.723779 0.3715,-0.04128 0.712003,-0.06016 1.018732,-0.05952 z m -4.481673,5.202834 c 2.143001,0.143311 4.895882,0.710564 4.895882,1.008553 0,0.50723 3.067469,1.847692 4.769941,2.084672 1.656389,0.230567 1.681441,0.265137 1.922715,2.59619 0.272914,2.636724 0.143664,2.70999 -3.349127,1.900495 -3.3017,-0.765206 -5.254117,-1.697351 -5.254117,-2.508522 0,-0.695368 0.241518,-0.754835 2.092505,-0.515536 1.334849,0.17257 2.211372,0.105467 2.41902,-0.184181 0.335203,-0.467588 0.02547,-0.610112 -2.258561,-1.042336 -0.772138,-0.146122 -1.556172,-0.678773 -1.868607,-1.269942 -0.382996,-0.724683 -0.917031,-1.01821 -1.854614,-1.01821 -1.551507,0 -2.828564,-0.370026 -2.828564,-0.81955 0,-0.175752 0.591087,-0.279942 1.313527,-0.231631 z m 14.237985,2.745779 c 0.109157,-0.02013 0.241769,0.07372 0.396486,0.289541 0.138311,0.192939 0.08323,1.539934 -0.122212,2.992695 l -0.373161,2.641226 -0.203374,-2.819777 C 57.042377,49.559355 57.15769,48.46655 57.48517,48.406153 Z m -13.203393,1.238534 c 0.165933,0.0059 0.308728,0.04418 0.388088,0.112597 0.158719,0.136831 -0.123392,0.23422 -0.626912,0.216352 -0.55643,-0.01977 -0.669304,-0.117874 -0.288267,-0.249325 0.1724,-0.0595 0.361158,-0.08553 0.527091,-0.07962 z m 28.768901,0.02653 c -2.294994,-0.142043 -2.646652,0.690385 -0.512162,1.212839 1.654942,0.405079 2.591608,0.234653 2.591608,-0.472105 0,-0.428111 -0.624682,-0.650698 -2.079446,-0.740734 z m 16.019835,0.746384 c -0.817219,0 -0.879233,0.206803 -0.589598,1.955988 0.17813,1.075794 0.672017,2.928834 1.097098,4.117869 0.754378,2.110116 1.553284,2.862937 1.553284,1.462968 0,-0.384592 -0.258401,-2.237633 -0.573735,-4.11787 -0.489741,-2.920161 -0.706453,-3.418955 -1.487049,-3.418955 z m -43.703768,2.058934 c 0.435701,0 0.886613,0.897626 1.293005,2.57367 0.343223,1.415517 0.922589,3.314885 1.287407,4.220817 0.36482,0.905931 0.985303,4.704666 1.379767,8.441633 0.728666,6.903066 1.788274,15.409058 2.614928,21.001142 0.439817,2.975146 0.782672,7.72317 1.220241,16.883233 0.349632,7.31923 0.263378,18.00493 -0.200575,24.91313 -0.510891,7.60708 -0.783294,8.59526 -2.191392,7.94056 -0.525412,-0.24427 -1.016429,-0.48463 -1.091496,-0.53482 -0.07507,-0.0503 0.222719,-1.55203 0.66236,-3.33692 0.921346,-3.74058 0.991093,-7.66451 0.50097,-28.15836 C 50.55284,94.331557 49.120081,74.021139 48.359502,71.229729 48.233543,70.767455 47.503868,66.683187 46.738114,62.153531 45.97236,57.623873 45.200022,53.593508 45.021571,53.197163 44.807047,52.7207 44.924389,52.476535 45.366745,52.476535 Z m 34.932602,0.08446 c 0.09846,0.01079 0.240038,0.09032 0.411408,0.238063 0.310885,0.268006 0.453856,0.582703 0.318122,0.699717 -0.135732,0.117016 -0.390204,0.08987 -0.565338,-0.06113 -0.175139,-0.150986 -0.318122,-0.466485 -0.318122,-0.700519 0,-0.129014 0.05546,-0.186894 0.15393,-0.176134 z m -30.725204,1.683339 c 0.232648,-0.01302 0.570486,0.06404 1.024327,0.135924 2.023064,0.320444 4.664017,1.374047 10.594061,4.225642 4.032029,1.938891 4.650058,2.374324 4.404245,3.106901 -1.375899,4.100574 -3.509773,22.471415 -3.566494,30.707083 -0.05108,7.414588 -0.525091,13.262506 -1.127882,13.915506 -0.34062,0.369 -0.321809,0.67804 0.06157,1.00856 0.304114,0.26218 0.553212,0.71734 0.553212,1.01176 0,0.29443 -0.161206,0.51763 -0.358235,0.49544 -1.820739,-0.20505 -6.215726,-1.08518 -6.694519,-1.34072 -1.253557,-0.669 0.02569,-1.18046 2.302407,-0.92009 1.321992,0.15119 2.412662,0.0923 2.578543,-0.13915 0.261331,-0.3645 -0.906755,-0.64463 -3.955509,-0.94903 -1.088983,-0.10872 -1.113033,-0.20601 -1.119492,-4.64064 -0.006,-4.112362 -0.876441,-13.952729 -1.839686,-20.795247 -0.207239,-1.472135 -0.71387,-6.146966 -1.126011,-10.38878 -0.412144,-4.241802 -0.99248,-8.874407 -1.290207,-10.294672 -0.890386,-4.247512 -1.138276,-5.099423 -0.440332,-5.138489 z m 31.872676,2.024349 c 0.250588,-0.0041 0.628745,0.16566 0.961822,0.452805 0.863291,0.744261 0.346576,0.934816 -0.816289,0.300799 -0.386458,-0.210698 -0.542721,-0.521371 -0.347042,-0.690064 0.04892,-0.04217 0.117978,-0.06223 0.201509,-0.06353 z m 0.311588,1.972882 c 0.599575,0 3.629167,1.297404 3.894877,1.668058 0.175626,0.244984 0.244045,0.502601 0.152064,0.571836 -0.346982,0.261159 -4.22699,-1.401414 -4.22699,-1.811217 0,-0.235773 0.08078,-0.428677 0.180049,-0.428677 z m -6.046152,0.04825 c 0.202441,-0.01115 0.364044,0.01306 0.435667,0.0748 0.143233,0.123495 0.187786,0.526351 0.09888,0.895156 -0.144153,0.598025 -0.264706,0.604177 -1.116686,0.06111 -0.898592,-0.572762 -0.904535,-0.625961 -0.09888,-0.895151 0.235533,-0.07869 0.478578,-0.124749 0.681019,-0.135922 z m 2.289349,0.55897 c 0.08016,-0.02887 0.234328,-0.0108 0.446861,0.05952 0.407707,0.134881 0.741657,0.317948 0.741657,0.40696 0,0.333511 -0.909884,0.145983 -1.190386,-0.245301 -0.08366,-0.116712 -0.07837,-0.192316 0.002,-0.221175 z m 18.768173,0.628136 c 0.543158,0 1.526227,1.869211 1.526227,2.901812 0,0.442297 -0.214939,0.80427 -0.477644,0.80427 -0.262707,0 -0.477646,-0.475717 -0.477646,-1.056814 0,-0.581097 -0.22249,-1.414966 -0.494444,-1.853041 -0.271946,-0.438075 -0.306277,-0.796227 -0.07645,-0.796227 z m -1.871411,0.588727 c 0.22383,0.119253 0.680996,0.786303 1.015001,1.481465 0.563078,1.171959 0.508148,1.3523 -0.747259,2.481985 -1.044525,0.939936 -1.224603,1.329733 -0.787369,1.706679 0.437233,0.376945 0.869848,0.295766 1.892868,-0.356295 1.945505,-1.240044 3.457343,-1.582831 3.457343,-0.78336 0,0.377074 0.4087,0.64583 0.98328,0.64583 0.54091,0 0.87676,0.148594 0.74632,0.330555 -0.49005,0.683596 -0.97685,10.869812 -0.88999,18.611648 0.11314,10.083831 0.56223,14.206656 1.54863,14.206656 0.50368,0 0.65171,-0.305725 0.49908,-1.029466 -0.11938,-0.566212 -0.20161,-7.859807 -0.18283,-16.20768 0.0274,-12.191212 0.15938,-15.244656 0.67169,-15.517619 0.3508,-0.186911 0.78749,-0.259827 0.97022,-0.162463 0.18273,0.09737 0.21452,3.930022 0.07,8.517235 -0.43058,13.664048 -0.4408,13.281747 0.3545,13.281747 1.0106,0 1.37965,-2.761175 1.54115,-11.530042 0.12749,-6.922178 -0.12112,-10.350329 -0.82095,-11.326556 -0.16766,-0.233889 0.28396,-0.409375 1.05511,-0.409375 1.12601,0 1.49815,0.288691 2.25391,1.750094 0.49778,0.962553 1.00482,2.824493 1.12695,4.137985 0.17883,1.923429 0.3726,2.363926 0.9982,2.261606 1.0868,-0.177727 1.27859,-3.593645 0.33585,-5.978957 -0.83055,-2.101416 -0.67538,-2.584488 0.82747,-2.579299 1.27763,0.0044 4.24794,3.774271 5.37354,6.820222 1.21144,3.27819 2.08634,6.475961 2.10463,7.692059 0.0108,0.704666 0.27699,1.132415 0.70528,1.132415 1.1751,0 1.25288,-0.649714 0.45152,-3.77284 -0.42641,-1.661895 -0.92853,-3.796528 -1.11575,-4.743597 -0.18721,-0.947067 -1.23934,-3.06038 -2.33786,-4.696143 -1.09851,-1.635762 -1.91381,-3.046214 -1.8117,-3.134244 0.10213,-0.08803 0.94585,-0.266499 1.87513,-0.396506 l 1.68951,-0.236457 0.30226,2.416032 c 0.38484,3.075633 1.03351,5.436553 2.41714,8.79873 0.60583,1.472144 1.34483,3.695789 1.64191,4.941447 0.69918,2.931613 1.53367,5.45088 1.97777,5.971712 0.19359,0.227064 1.01495,2.358066 1.82568,4.735558 0.81075,2.377493 1.67498,4.693565 1.91991,5.146535 0.24496,0.452961 0.77062,1.750089 1.16895,2.882504 0.87935,2.49999 2.72842,6.890462 3.72883,8.853432 0.40397,0.79269 1.64754,3.17987 2.76324,5.30497 1.11571,2.12508 2.14504,4.60777 2.28655,5.5173 l 0.25655,1.65439 -2.5431,-0.29115 c -1.3988,-0.15997 -2.96651,-0.4865 -3.4844,-0.72544 -0.67886,-0.31322 -1.48938,-0.28698 -2.90319,0.0948 -2.6088,0.70465 -3.19823,1.20455 -1.45907,1.23618 2.29306,0.0417 5.58811,0.40254 7.38114,0.80828 2.16086,0.48898 5.19194,2.64631 4.5358,3.22835 -0.66527,0.59014 -10.09594,0.91076 -12.41883,0.42225 -1.05083,-0.221 -2.98529,-0.56691 -4.29882,-0.76809 -1.31354,-0.20118 -3.61859,-0.74911 -5.12259,-1.21767 -3.27513,-1.02033 -6.09973,-1.08638 -8.27953,-0.19462 -1.08544,0.44406 -2.42332,0.59661 -4.13183,0.4721 -2.4293,-0.17703 -7.928299,-1.40517 -8.566851,-1.91335 -0.169563,-0.13495 -0.439006,-2.09835 -0.597995,-4.36319 -0.158991,-2.26481 -0.397234,-4.95174 -0.529888,-5.9709 -0.132664,-1.01917 -0.339014,-5.46648 -0.458058,-9.882898 -0.188066,-6.976843 -0.562089,-14.578903 -1.448805,-29.440354 -0.121527,-2.03686 -0.421732,-3.761069 -0.667022,-3.831558 -0.706977,-0.203164 -5.195014,1.960097 -5.503207,2.652488 -0.153297,0.344407 -0.282575,1.028209 -0.286397,1.519273 -0.0038,0.491062 -0.236286,1.170698 -0.515898,1.510426 -0.521216,0.633275 -0.357651,-1.243166 0.331184,-3.809039 0.233735,-0.870649 0.128042,-1.132415 -0.456192,-1.132415 -0.911929,0 -1.962629,1.645338 -2.731544,4.277925 -0.319713,1.094626 -0.796477,1.860456 -1.099898,1.766985 -0.805953,-0.248282 -0.45555,-1.86177 0.976756,-4.495882 1.226014,-2.254727 1.294656,-3.183608 0.192176,-2.596187 -0.279458,0.1489 -1.082817,1.283259 -1.785578,2.520583 -0.702767,1.237344 -1.598461,2.477798 -1.990818,2.756247 -0.614575,0.43614 -0.665883,0.33479 -0.371295,-0.729478 0.53722,-1.940817 3.524495,-5.418674 5.154295,-6.000674 0.806186,-0.287889 3.055649,-1.427501 4.998498,-2.531844 1.942863,-1.104342 3.714899,-1.910369 3.938725,-1.791112 z m 4.54045,0.114205 c 0.101922,0.06191 0.322945,0.370072 0.695944,0.944215 0.51492,0.792599 0.83644,1.580142 0.7146,1.750095 -0.41107,0.573425 -1.120358,0.31418 -1.126947,-0.411787 -0.0042,-0.396345 -0.122652,-1.183889 -0.264946,-1.750095 -0.103071,-0.410147 -0.120511,-0.594336 -0.01869,-0.532428 z m -17.171042,0.12065 c 0.343643,0 3.609407,1.713772 3.609407,1.89406 0,0.347173 -1.247276,0.106915 -2.507647,-0.482564 -1.109983,-0.519141 -1.806451,-1.411496 -1.10176,-1.411496 z m -10.427071,0.115012 c 0.103833,0.08951 -0.459741,12.35127 -0.978619,21.297911 -0.411097,7.088182 -1.224017,29.076134 -1.454395,39.325674 -0.056,2.4913 -0.135218,5.1319 -0.175388,5.86796 l -0.07277,1.3383 h -3.408833 -3.408833 l 0.320921,-4.22082 c 0.176399,-2.32145 0.420582,-10.15054 0.542951,-17.39799 0.311078,-18.423977 0.990631,-28.37709 2.319196,-33.972436 0.403339,-1.698618 0.939254,-4.217032 1.190387,-5.596927 0.921195,-5.061649 1.33251,-5.857057 3.267033,-6.31755 0.963027,-0.229241 1.799048,-0.375246 1.858342,-0.324122 z m 2.174602,0.07559 c 0.274886,-0.02907 0.755194,0.132842 1.371367,0.56299 0.590071,0.411928 0.980069,0.99032 0.865735,1.286028 -0.148749,0.384712 -0.598251,0.249044 -1.579406,-0.478538 -1.003111,-0.743873 -1.115846,-1.322002 -0.657696,-1.37048 z m 4.566562,0.48578 c 0.194207,0.0079 0.477123,0.07666 0.84708,0.221979 0.656764,0.257984 1.194116,0.71725 1.194116,1.020622 0,0.691695 -0.03715,0.689355 -1.326588,-0.08927 -1.079172,-0.651656 -1.297227,-1.176813 -0.714608,-1.153325 z m -0.195905,1.803174 c 1.106731,-0.01169 2.714749,0.723571 2.714749,1.240995 0,0.638868 -1.099855,0.442564 -2.388236,-0.426265 -1.004529,-0.677411 -1.0561,-0.807028 -0.326513,-0.81473 z m 4.501259,0.08927 c 0.07263,-0.02129 0.154695,-0.02068 0.243489,0.0048 0.328382,0.09437 0.597059,0.418651 0.597059,0.720627 0,0.301976 -0.268677,0.626259 -0.597059,0.720627 -0.355173,0.102068 -0.597059,-0.189879 -0.597059,-0.720627 0,-0.398062 0.135701,-0.661523 0.35357,-0.725454 z m -8.921361,0.147988 c 0.664626,0.02924 2.358379,1.005645 2.358379,1.448489 0,0.441321 -0.380869,0.428391 -1.791175,-0.06032 -1.065468,-0.369215 -1.346295,-0.850816 -0.780842,-1.338307 0.04499,-0.03878 0.11869,-0.05403 0.213638,-0.04987 z m 28.62896,1.042336 c 0.21644,0 0.43288,0.02895 0.59707,0.08606 0.32838,0.114234 0.0596,0.207503 -0.59707,0.207503 -0.65676,0 -0.92543,-0.09327 -0.59704,-0.207503 0.16418,-0.05711 0.38062,-0.08606 0.59704,-0.08606 z m -24.099712,0.939388 c 0.854973,0.0013 2.605603,0.930261 2.605603,1.487902 0,0.629474 -1.084464,0.456829 -2.334127,-0.371576 -0.786063,-0.521079 -0.964345,-0.848874 -0.575603,-1.056006 0.07785,-0.04148 0.181989,-0.06049 0.304127,-0.06032 z m 19.262613,0.242889 c -1.136991,6.1e-5 -1.426699,1.577473 -1.410557,7.688839 0.02511,9.512388 1.247425,22.088622 2.480601,25.521943 0.861231,2.397748 1.277665,5.672048 0.846141,6.650528 -0.448667,1.01738 0.978874,3.66981 3.146694,5.84706 0.56375,0.5662 1.76521,1.99769 2.66903,3.18088 1.4842,1.94299 2.65776,2.6019 3.43775,1.92945 0.1552,-0.1338 -0.40038,-1.02782 -1.23422,-1.98656 -5.63478,-6.4786 -6.27611,-7.42143 -6.32603,-9.30058 -0.0271,-1.01919 -0.39181,-3.33549 -0.8107,-5.147341 C 98.306642,89.894773 98.094568,87.909572 98.07584,76.463137 98.06571,70.291473 97.922586,65.241928 97.757721,65.241937 Z M 73.9528,65.653726 c 0.879907,0 2.849088,1.313571 2.849088,1.900492 0,0.668357 -0.769054,0.69114 -2.268824,0.06756 -1.07106,-0.445336 -1.52003,-1.968059 -0.580264,-1.968059 z m 4.588019,2.149818 c 0.234152,-0.10167 0.630236,0.07889 1.279946,0.503475 0.818864,0.535125 0.82388,0.645177 0.0849,1.877168 -0.993292,1.655968 -0.616949,2.628123 0.918911,2.37501 0.960184,-0.158234 1.177108,8.27e-4 1.344313,0.98282 0.249256,1.464123 -0.524513,1.517276 -2.026269,0.13914 -0.618529,-0.567612 -2.250319,-1.580114 -3.626202,-2.249543 -2.947162,-1.433934 -3.844,-2.326234 -1.934842,-1.925426 0.695809,0.146084 1.802372,0.379914 2.459137,0.519557 1.081288,0.229909 1.194117,0.132641 1.194117,-1.029465 0,-0.70668 0.07185,-1.091074 0.305992,-1.192736 z m 13.82191,0.732692 c 0.390592,0 0.656745,1.398756 0.843347,4.426707 0.481799,7.81804 1.242175,23.157666 1.515034,30.575187 0.252925,6.87513 0.654979,10.79697 1.668038,16.2656 0.251736,1.35889 0.799285,4.97232 1.216505,8.02984 0.41723,3.05752 0.9394,5.71918 1.160538,5.91461 0.536471,0.47408 1.451599,-0.0433 1.197849,-0.67719 -0.283179,-0.70743 -1.186971,-11.14291 -0.980483,-11.32093 0.09354,-0.0807 0.987594,-0.0145 1.987083,0.14717 2.18419,0.35326 6.15883,3.37457 6.61616,5.02912 0.16926,0.61232 0.41942,1.43739 0.55601,1.83373 0.39923,1.15854 -0.92764,0.85234 -2.47313,-0.57103 l -1.40309,-1.29246 1.32845,0.73029 c 1.47408,0.81018 2.24601,0.57312 1.30794,-0.40134 -0.3323,-0.34521 -0.42533,-0.62734 -0.2071,-0.62734 0.21821,0 -0.55261,-0.83385 -1.71282,-1.85302 -1.16021,-1.0192 -2.26789,-1.85306 -2.461,-1.85306 -0.2976,0 -0.23321,2.6724 0.0793,3.2943 0.0568,0.11324 0.0669,0.52061 0.0224,0.90561 -0.0475,0.41088 0.74178,1.16959 1.91151,1.83695 1.09602,0.62531 1.76558,1.20224 1.48798,1.28201 -0.27761,0.0798 -1.05495,-0.16606 -1.72773,-0.5461 -1.06712,-0.60277 -1.22305,-0.60987 -1.22305,-0.0603 0,0.78392 4.57907,3.73587 5.24478,3.38117 0.28071,-0.14958 0.48699,0.17272 0.48699,0.76083 0,0.56104 0.13067,1.31303 0.29012,1.67127 0.33574,0.75426 -1.04706,0.83082 -3.39483,0.18821 -0.78812,-0.21571 -5.83924,-0.7094 -11.224704,-1.09704 l -9.791765,-0.70453 -0.297597,-4.73555 c -0.334435,-5.32427 -1.620547,-12.30375 -2.632658,-14.28629 -0.369254,-0.72327 -1.150335,-2.85429 -1.736132,-4.73554 -0.906047,-2.90975 -1.061374,-4.44029 -1.041122,-10.248834 0.02471,-7.079995 0.343372,-9.027227 2.48899,-15.202335 1.461948,-4.207514 2.219315,-5.610245 3.835172,-7.099303 1.39725,-1.287614 1.080312,-2.068191 -0.37783,-0.930544 -1.344399,1.048904 -1.5776,0.607246 -0.672621,-1.274769 0.975875,-2.029461 0.879429,-1.966021 2.031863,-1.345553 0.826214,0.444836 1.126333,0.407428 1.961896,-0.244494 0.542382,-0.423163 1.23391,-1.526542 1.537431,-2.452223 0.555422,-1.693986 1.525394,-2.712809 2.582274,-2.712809 z m -0.6465,3.278213 c -0.03869,0.02141 -0.08182,0.06716 -0.130607,0.135924 -0.287774,0.405609 -0.575049,1.154933 -0.638109,1.664834 -0.06305,0.509909 -0.287022,1.166532 -0.497234,1.459755 -0.210209,0.293224 -0.493109,2.648551 -0.628781,5.233395 -0.167772,3.196592 -0.08274,4.699361 0.264948,4.699361 1.033455,0 1.205027,-0.931857 1.747327,-9.4711 0.179185,-2.821481 0.153157,-3.87202 -0.117544,-3.722169 z M 73.88656,71.942325 c 0.540896,0.0859 1.711743,0.689995 4.08799,2.024351 1.924076,1.08045 3.271679,2.146385 3.440547,2.721662 0.373722,1.273173 0.0087,1.485996 -0.962752,0.56057 -0.440975,-0.420079 -2.189889,-1.580066 -3.886482,-2.576881 -1.696592,-0.996824 -3.090051,-2.063652 -3.096308,-2.370995 -0.0055,-0.275719 0.09246,-0.410244 0.417005,-0.358707 z m 0.002,3.034514 c 0.572039,0.09629 1.728981,0.706749 4.331474,2.155451 1.453338,0.809013 2.829739,1.422395 3.058995,1.36244 0.229261,-0.05993 0.282997,0.191463 0.119413,0.558971 -0.16358,0.367508 -0.297599,0.931036 -0.297599,1.252242 0,0.903533 -0.648199,0.699948 -2.179264,-0.684431 -0.771591,-0.697674 -2.407875,-1.831697 -3.63553,-2.519781 -1.377336,-0.771986 -2.135654,-1.465664 -1.98149,-1.812022 0.108226,-0.243145 0.240777,-0.370629 0.584001,-0.31287 z m -0.476716,2.849538 c 0.514455,-0.274112 6.229142,3.34706 6.601235,4.183016 0.41061,0.922485 -0.478455,1.37613 -1.608329,0.820354 -4.367847,-2.148458 -5.423948,-2.889266 -5.423948,-3.807421 0,-0.531317 0.193895,-1.069616 0.431,-1.195949 z m -0.151127,3.953801 c 0.279518,0.02312 0.838313,0.301825 1.955367,0.859761 4.273317,2.134415 4.184986,2.012097 3.463872,4.81437 -0.353138,1.372315 -0.760523,2.494854 -0.905847,2.494854 -0.145325,0 -0.518721,-0.350525 -0.829354,-0.779339 -0.310628,-0.428815 -1.432239,-1.30901 -2.49272,-1.955995 -1.06048,-0.646974 -1.93299,-1.500931 -1.938577,-1.897275 -0.01428,-1.007413 0.501888,-0.907739 2.828568,0.545301 1.114675,0.696132 2.119343,1.185683 2.232441,1.088176 0.512615,-0.441924 -0.536093,-1.542612 -2.476864,-2.60021 -1.225126,-0.667544 -2.116801,-1.465826 -2.116801,-1.894859 0,-0.465452 3.53e-4,-0.697931 0.279873,-0.674784 z m 48.512853,2.403961 0.93105,2.284134 c 1.5509,3.804178 2.39015,7.587332 2.66157,11.994903 l 0.25841,4.191064 -1.64004,-0.64101 -1.63912,-0.6402 1.11016,-0.95789 c 1.19096,-1.026738 1.43124,-2.686989 0.64557,-4.468528 -0.7821,-1.773445 -1.30599,-1.194104 -1.65124,1.826502 -0.32581,2.850636 -0.34484,2.882506 -1.73334,2.882506 -0.77221,0 -1.40402,-0.16482 -1.40402,-0.36674 0,-0.964212 -7.80628,-1.483626 -8.67881,-0.57747 -0.87139,0.90497 0.006,1.2292 4.00495,1.47825 6.10573,0.38032 11.9673,3.19255 14.25665,6.83953 0.51106,0.81413 1.39793,1.98672 1.97029,2.60584 0.57239,0.61912 0.89523,1.25096 0.71742,1.40425 -0.17782,0.15331 -1.52993,0.0455 -3.00396,-0.23886 -1.71318,-0.33053 -2.84503,-0.37428 -3.13829,-0.12145 -0.49037,0.42274 1.65982,1.30087 5.19908,2.12247 2.09461,0.48625 5.86797,2.40699 5.86797,2.98707 0,0.18624 0.32241,0.3386 0.71646,0.3386 1.16173,0 0.84513,-0.61089 -1.46185,-2.82299 -1.19786,-1.14861 -2.7209,-2.96857 -3.38459,-4.0447 -1.31959,-2.13958 -3.63407,-4.89144 -5.01248,-5.95965 -0.74398,-0.57653 -0.81367,-0.97131 -0.46088,-2.5994 0.48176,-2.22312 0.0358,-6.126042 -1.3667,-11.957104 -1.33306,-5.542241 -1.34167,-5.559127 -2.63918,-5.559127 z m -31.442613,2.470726 c -0.590181,0 -0.673005,1.173868 -0.544819,7.721002 0.134778,6.883683 0.053,7.896953 -0.750054,9.342413 -1.183596,2.13046 -1.148904,4.36764 0.116612,7.6438 2.31859,6.0024 2.906258,7.80914 3.883682,11.94182 0.562439,2.37808 1.215797,4.8797 1.452533,5.55913 0.236742,0.67946 0.551508,1.75257 0.699676,2.38468 0.465778,1.98699 1.070833,0.8319 0.648369,-1.23779 -0.22124,-1.08385 -0.611174,-3.08229 -0.866667,-4.44119 -1.171175,-6.22924 -3.564384,-15.1034 -4.835244,-17.93042 -0.354362,-0.78829 -0.264469,-1.44991 0.362902,-2.67661 0.667359,-1.3049 0.851491,-2.98294 0.92451,-8.42395 0.106366,-7.926261 -0.109708,-9.882885 -1.0915,-9.882885 z m -17.417323,1.235366 c 0.856432,0 4.843637,3.398321 4.843637,4.128322 0,1.332309 -0.654886,1.129314 -2.985293,-0.926518 -2.082832,-1.837434 -2.874656,-3.201804 -1.858344,-3.201804 z m -0.01867,3.294288 c 0.731072,0 4.384652,2.943438 4.384652,3.532359 0,0.914513 -1.033813,0.670656 -2.985294,-0.703734 -1.595451,-1.123681 -2.438909,-2.828625 -1.399343,-2.828625 z m 40.533766,2.97179 c -1.01809,0.0038 -1.75853,0.899137 -1.75853,2.354098 0,1.146743 0.45459,1.057942 2.13541,-0.418216 1.17672,-1.033454 1.29911,-1.311798 0.71649,-1.629454 -0.38393,-0.209323 -0.75401,-0.307618 -1.09337,-0.306428 z m -40.591603,0.597568 c 1.138571,-0.06736 3.964842,2.089751 3.964842,3.259717 0,1.31468 -0.473139,1.256417 -2.789382,-0.343429 -2.029188,-1.401579 -2.247254,-1.787819 -1.546755,-2.741756 0.0806,-0.10978 0.208641,-0.164904 0.371295,-0.174532 z m -0.452446,3.431021 c 0.907308,0 4.417301,2.688042 4.417301,3.382762 0,0.99283 -0.963656,0.92453 -2.914392,-0.20509 -1.056305,-0.61167 -1.67602,-1.33056 -1.774385,-2.058927 -0.08314,-0.615512 0.03907,-1.118745 0.271476,-1.118745 z m -0.408615,4.055142 c 0.694815,-0.0653 2.7576,0.74463 3.172809,1.32383 0.152078,0.21214 0.693538,0.38606 1.203446,0.38606 0.67048,0 0.927308,0.28496 0.927308,1.02946 0,1.24773 -0.245939,1.24275 -2.388234,-0.0491 -2.694015,-1.62451 -3.40057,-2.21444 -3.120564,-2.60504 0.03463,-0.0483 0.105978,-0.0759 0.205235,-0.0852 z m 34.464274,2.94525 c -0.34642,0 0.90124,3.37018 2.78192,7.5151 0.57301,1.26288 1.54088,1.45707 2.46661,0.49544 0.50924,-0.52898 0.4412,-0.82504 -0.40209,-1.7501 -0.55823,-0.61236 -1.78606,-2.27126 -2.72781,-3.68678 -0.94173,-1.41552 -1.89501,-2.57366 -2.11863,-2.57366 z m -33.822386,0.13994 c 0.522823,0.0306 1.204731,0.31572 2.007612,0.84368 0.899261,0.59132 1.919649,1.0753 2.266956,1.0753 0.347301,0 0.866217,0.64857 1.154004,1.44126 0.287793,0.79269 0.39479,1.42183 0.236956,1.39782 -0.862735,-0.13131 -3.027236,-1.37386 -4.874425,-2.79806 -1.780502,-1.37277 -1.972362,-1.66266 -1.259417,-1.9053 0.137615,-0.0468 0.294045,-0.0649 0.468314,-0.0547 z m -0.617579,3.12862 c 0.860257,0.038 3.574748,1.43718 5.279302,2.78919 0.394061,0.31259 1.070637,0.79216 1.503844,1.06487 0.433212,0.27269 0.931776,0.91235 1.107358,1.42195 0.398563,1.15673 -0.02135,1.12522 -2.117696,-0.15764 -3.250669,-1.98922 -6.34886,-4.58679 -6.019096,-5.0468 0.03888,-0.0543 0.123395,-0.0771 0.246288,-0.0715 z m -16.283846,0.47451 c 0.663804,-0.0183 1.643769,0.14029 3.279157,0.46809 2.296464,0.46028 2.521641,0.60736 2.521641,1.64715 0,0.62795 -0.161205,1.12001 -0.358234,1.093 -3.10291,-0.42515 -6.510162,-1.17856 -6.916554,-1.52892 -0.371948,-0.32066 -0.345922,-0.6247 0.09329,-1.08094 0.369268,-0.38361 0.716895,-0.5799 1.380701,-0.59838 z m -38.802288,1.66888 c -0.700111,0.0377 -0.921413,0.20603 -1.075638,0.55252 -0.18451,0.41451 -0.04052,0.85304 0.347972,1.06003 0.36448,0.1942 1.094726,0.26006 1.62232,0.14638 1.465177,-0.31572 3.578624,-0.51818 6.213143,-0.59596 2.34538,-0.0693 2.358235,-0.0765 0.71647,-0.41179 -0.91947,-0.18781 -3.227031,-0.46824 -5.128174,-0.62332 -0.752798,-0.0614 -1.347735,-0.10407 -1.82103,-0.12386 -0.35497,-0.0149 -0.641695,-0.0164 -0.875063,-0.004 z m 54.925674,0.35307 c 0.16057,0 1.382349,0.78753 2.715685,1.75008 2.524431,1.82244 3.849878,2.59329 5.184146,3.01602 0.433662,0.1374 0.898503,0.74244 1.032726,1.34475 0.134233,0.60228 0.181042,1.15054 0.104486,1.21766 -0.173376,0.15201 -6.236079,-3.78084 -8.015514,-5.19961 -1.190392,-0.94913 -1.756404,-2.1289 -1.021529,-2.1289 z m -68.7550473,1.1501 c -0.6914038,0.0315 -0.7957673,0.20775 -0.7957673,0.5847 0,0.6314 0.4570744,0.73967 3.2241172,0.76004 1.7732647,0.0131 4.0838811,0.17696 5.1347044,0.36435 2.727591,0.48638 2.72603,0.48599 2.511378,-0.0692 -0.243058,-0.62862 -2.396054,-1.07198 -7.1684346,-1.47664 -0.8429514,-0.0714 -1.4959869,-0.12258 -2.0010804,-0.14879 -0.3788203,-0.0196 -0.6744492,-0.025 -0.9049173,-0.0144 z m 38.1380603,0.12466 c -5.11013,0.017 -10.752655,0.69483 -10.752655,1.51606 0,0.4683 0.354194,0.54186 1.552351,0.32251 2.051659,-0.37559 13.173744,-1.03452 14.824783,-0.87828 2.245974,0.21257 1.403461,-0.46297 -0.919843,-0.73751 -1.356243,-0.16026 -3.001261,-0.22842 -4.704636,-0.22278 z m 14.981509,0.37238 c 2.045972,0 5.31289,1.01628 5.31289,1.65277 0,0.3851 -1.295636,0.46662 -2.865881,0.18016 -0.394058,-0.0719 -1.522502,-0.24425 -2.507648,-0.38284 -2.491601,-0.3505 -2.445735,-1.45009 0.06063,-1.45009 z M 17.95816,113.3052 c -0.751761,0.0153 -1.095996,0.16069 -1.470257,0.44397 -1.509495,1.14247 -0.641716,1.42919 4.212063,1.39137 2.615454,-0.0204 5.184896,0.12723 5.710307,0.32816 1.270458,0.48584 3.104705,0.51615 3.104705,0.0514 0,-0.61713 -2.850794,-1.31845 -7.642352,-1.88039 -2.003849,-0.23501 -3.162706,-0.34983 -3.914466,-0.33459 z m 53.867759,0.70778 c 0.429858,0.0825 1.520469,0.76357 4.280166,2.51092 1.850199,1.17148 3.805028,2.3336 4.344534,2.58251 0.640768,0.29565 0.99543,0.88786 1.022467,1.70748 0.02279,0.69009 -0.01092,1.25466 -0.07556,1.25466 -0.06463,0 -0.749041,-0.58034 -1.520631,-1.28925 -0.77159,-0.7089 -2.961412,-2.29116 -4.866028,-3.51627 -1.904619,-1.22512 -3.462941,-2.50858 -3.462941,-2.85276 0,-0.28045 0.0201,-0.4468 0.278004,-0.39729 z m -69.5368186,0.94179 v 1.08656 c 0,1.06333 0.067611,1.08646 3.2241172,1.11633 1.7732647,0.0168 4.1913527,0.17897 5.3735274,0.36032 1.182177,0.18136 2.287413,0.35288 2.456338,0.38123 0.264102,0.0444 0.887192,-0.94408 0.887192,-1.40748 0,-0.36347 -3.877348,-0.98942 -7.7617628,-1.25304 z m 53.4582136,0.3185 c 0.278778,0.0108 0.641146,0.0464 1.112954,0.0989 2.84757,0.31692 4.179413,0.80724 4.179413,1.53856 0,0.34534 -0.268677,0.59364 -0.597059,0.55174 -0.328382,-0.0419 -1.725501,-0.14363 -3.104706,-0.2268 -2.264776,-0.1366 -2.507647,-0.24542 -2.507647,-1.12035 0,-0.67548 0.0807,-0.87379 0.917045,-0.84207 z m 15.913482,1.52167 c 0.15441,-0.005 0.500579,0.18877 1.187588,0.57747 0.762602,0.43147 3.253727,2.07999 5.535853,3.66346 3.003401,2.08393 4.149558,3.13587 4.149558,3.80903 0,0.5115 -0.05374,0.91798 -0.11941,0.90401 -0.918144,-0.19547 -10.671853,-7.72605 -10.789971,-8.33066 -0.08044,-0.41173 -0.118055,-0.61746 0.0364,-0.62331 z m -51.792981,0.38685 c -1.258994,0.004 -2.338271,0.0991 -2.978763,0.31528 -1.576449,0.53223 -0.09584,0.8473 3.265165,0.69569 1.799629,-0.081 4.073329,0.0927 5.20374,0.39731 2.359236,0.63574 3.679375,0.72913 3.679375,0.25979 0,-0.86265 -5.392533,-1.67883 -9.169517,-1.66807 z m 36.611827,1.18069 c 2.647025,0 4.560039,0.7186 4.560039,1.71308 0,0.41662 -0.268677,0.72563 -0.597059,0.68604 -0.328382,-0.0396 -1.56012,-0.14559 -2.737142,-0.23484 -2.286134,-0.17334 -3.352858,-0.68152 -3.352858,-1.59727 0,-0.39691 0.638863,-0.56701 2.12702,-0.56701 z m -36.997147,0.82355 c -3.065756,0 -3.341663,0.071 -3.341663,0.85656 0,0.75348 0.186393,0.81977 1.552352,0.55415 2.334299,-0.45397 6.565786,-0.24692 8.717058,0.42626 2.193035,0.68624 3.52148,0.81354 2.841627,0.27265 -1.173155,-0.93337 -6.620201,-2.10962 -9.769374,-2.10962 z m -16.7400336,0.31208 c -0.3801026,0.054 -0.4533916,0.2261 -0.4533916,0.55011 0,0.57909 0.5551214,0.77829 2.7464707,0.98443 1.510559,0.14208 3.8211754,0.41136 5.1347035,0.59837 3.504641,0.49901 4.160365,0.49122 3.952716,-0.0459 -0.189342,-0.48971 -4.07406,-1.31369 -9.0874195,-1.92705 -1.2260601,-0.14999 -1.9129765,-0.21398 -2.2930791,-0.16003 z m 68.8287466,0.82276 c 0.533532,-0.0638 1.853457,0.61897 4.3492,2.23426 2.211099,1.43106 4.603447,2.86516 5.316622,3.18653 0.945515,0.42607 1.296734,0.90001 1.296734,1.7501 0,1.39135 -0.487457,1.47369 -1.717474,0.29033 -0.500456,-0.48148 -2.736583,-2.08977 -4.969582,-3.57338 -5.327274,-3.53942 -5.051816,-3.30301 -4.457417,-3.81546 0.04529,-0.0389 0.105699,-0.0632 0.181917,-0.0724 z m -14.71097,1.34151 c 3.490387,0.009 4.179412,0.32239 4.179412,1.89568 0,1.51881 0.08032,1.49868 -4.418236,1.093 -1.686322,-0.15207 -1.791175,-0.24448 -1.791175,-1.57798 0,-1.39269 0.03395,-1.41621 2.029999,-1.4107 z m 59.068712,0.41985 1.57195,0.26379 c 0.86488,0.1451 1.68033,0.3747 1.81169,0.50991 0.45587,0.46927 5.50969,1.67004 8.59765,2.04286 2.26539,0.27349 4.18465,0.2138 7.09939,-0.22038 2.19705,-0.32726 4.13152,-0.46682 4.29882,-0.31045 0.16731,0.15637 0.0763,0.3555 -0.20243,0.44235 -0.27876,0.0869 -1.96296,1.10209 -3.74189,2.25679 -2.72386,1.76806 -3.67051,2.14389 -5.99949,2.38064 -1.52103,0.15461 -3.38429,0.63191 -4.14025,1.06084 -0.75593,0.42892 -2.51404,0.91419 -3.90699,1.07852 -2.04835,0.24164 -2.93961,0.62281 -4.66079,1.99058 -1.17045,0.93011 -2.67727,1.87088 -3.34913,2.0911 -2.26087,0.74107 -2.4494,0.56886 -2.80711,-2.56081 -0.18614,-1.62863 -0.74862,-4.36185 -1.24917,-6.07386 -0.50052,-1.71197 -0.91321,-3.31863 -0.91703,-3.57096 -0.004,-0.2523 0.95996,-0.57372 2.14196,-0.71337 1.18198,-0.13969 2.65018,-0.36198 3.26328,-0.49464 1.11178,-0.24057 1.11506,-0.22959 1.22118,4.21276 0.0586,2.44975 0.27354,4.59929 0.47765,4.77658 0.67203,0.58374 1.96375,-0.1862 1.96375,-1.17021 0,-0.53082 -0.20122,-1.85428 -0.44685,-2.94122 -0.24564,-1.08693 -0.57656,-2.6683 -0.73606,-3.51387 z m -95.724387,0.78255 c -4.500339,0.0839 -5.310249,0.8427 -0.934771,0.87585 1.870974,0.0142 4.465707,0.35557 5.946333,0.78174 1.444883,0.41591 2.895736,0.77462 3.224116,0.79785 1.071074,0.0758 0.628253,-0.74625 -0.716469,-1.33027 -2.106485,-0.91484 -3.955725,-1.19155 -7.519209,-1.12517 z m 85.500677,0.0273 c 0.10422,0.003 0.25301,0.0229 0.4478,0.0555 0.49528,0.0828 0.98961,0.38203 1.09896,0.66514 0.2837,0.73457 -0.6016,0.63663 -1.35924,-0.1504 -0.4155,-0.43162 -0.50009,-0.57864 -0.18752,-0.57024 z m -72.059392,0.40778 c -3.173217,-0.0478 -3.175607,0.12326 -3.175607,0.80588 0,0.81418 0.16435,0.87878 1.552354,0.61124 1.952713,-0.37638 8.837076,-0.26825 12.299409,0.19302 3.693883,0.49213 4.298823,0.50356 4.298823,0.0812 0,-0.85158 -3.546815,-1.37917 -10.627644,-1.5812 -1.879804,-0.0537 -3.289597,-0.0942 -4.347335,-0.11017 z m 37.961742,0.004 c 0.295686,0 2.874981,1.52521 5.731764,3.38919 3.926964,2.56227 5.19441,3.61711 5.19441,4.32377 0,0.51408 -0.08008,0.93456 -0.178186,0.93456 -0.09812,0 -2.483498,-1.57507 -5.300759,-3.50018 -2.817267,-1.9251 -5.316497,-3.50019 -5.553582,-3.50019 -0.23709,0 -0.431,-0.37062 -0.431,-0.82357 0,-0.45299 0.241665,-0.82358 0.537353,-0.82358 z m -67.3678173,0.43591 c -1.2327118,-0.0386 -1.9507029,0.13719 -1.9507029,0.53404 0,0.3979 0.9986887,0.62345 3.4760012,0.78496 1.9116169,0.12465 4.2222333,0.50677 5.134704,0.84933 1.967834,0.73871 2.852821,0.83247 2.852821,0.3024 0,-0.59273 -0.769266,-0.88776 -4.4723419,-1.71713 -2.0605675,-0.4615 -3.8077699,-0.71491 -5.0404814,-0.7536 z m 51.1455443,1.68173 c 0.432003,-0.0851 1.200327,0.0623 2.776323,0.35066 2.270447,0.41539 2.87801,0.68869 2.87801,1.29408 0,0.79526 -1.12315,0.89725 -5.157097,0.46809 -1.366247,-0.14535 -1.531705,-0.28633 -1.253825,-1.06648 0.229239,-0.64355 0.324586,-0.96134 0.756589,-1.04635 z m -36.015704,0.38122 c -1.183549,0.02 -1.981769,0.2054 -2.540298,0.55979 -1.255971,0.79687 -0.555076,0.98709 4.565633,1.23857 2.233,0.10967 4.704823,0.37672 5.492941,0.59275 2.005194,0.54961 2.149412,0.53994 2.149412,-0.13995 0,-0.8389 -1.164394,-1.27799 -4.815651,-1.81603 -2.099796,-0.30943 -3.668488,-0.45513 -4.852037,-0.43513 z m 51.619461,1.04476 c 0.41426,-0.22074 5.041842,2.30195 5.567573,3.03532 0.166015,0.2316 0.235108,0.40885 0.153928,0.39329 -0.08118,-0.0155 -1.490779,-0.40273 -3.132692,-0.85977 -2.242136,-0.62412 -2.985294,-1.02058 -2.985294,-1.59407 0,-0.41998 0.178207,-0.85847 0.396485,-0.97477 z m -67.6411578,0.18658 c -0.8396977,0.0454 -1.0588464,0.28706 -1.0588464,0.74637 0,0.67118 0.5385037,0.80904 4.1794111,1.07049 2.2986761,0.16506 4.6092921,0.45312 5.1347041,0.64019 1.251788,0.4457 1.875993,0.28099 2.061719,-0.54449 0.1633,-0.7258 0.07837,-0.74821 -5.5339874,-1.48227 -2.4835209,-0.32482 -3.9433027,-0.47575 -4.7830004,-0.43029 z m 131.5451138,2.12249 c 0.294,-0.0701 0.78979,0.66886 1.10176,1.64231 0.31196,0.97345 0.68075,2.00185 0.81909,2.28494 0.3011,0.61613 -0.53899,0.59193 -4.12718,-0.11985 -1.44488,-0.28661 -3.27187,-0.54168 -4.05999,-0.567 -1.78586,-0.0575 -3.22168,-0.71962 -2.13635,-0.98524 0.38668,-0.0945 2.31546,-0.61154 4.28576,-1.14929 1.97028,-0.53775 3.82289,-1.03574 4.11691,-1.10587 z M 17.710857,129.5128 c -0.81766,0.045 -1.099167,0.15711 -1.026195,0.34584 0.113739,0.29416 1.45791,0.56981 3.287554,0.67477 1.702072,0.0976 4.061678,0.34391 5.243856,0.54692 2.971284,0.51022 4.298823,0.52927 4.298823,0.0619 0,-0.88235 -2.372173,-1.37578 -7.560257,-1.57315 -2.071672,-0.0788 -3.426123,-0.10124 -4.243781,-0.0563 z m 89.182853,1.20318 c 0.0246,-0.0212 0.21827,0.10344 0.59705,0.35952 0.45976,0.31084 0.83589,0.63512 0.83589,0.72063 0,0.33892 -0.39194,0.12052 -1.01593,-0.56541 -0.29707,-0.32655 -0.44167,-0.49348 -0.41701,-0.51474 z m -70.304603,0.18016 c -2.898427,0.0468 -5.287794,0.33499 -5.51253,0.9225 -0.13874,0.3627 1.618757,0.44134 6.972526,0.31125 3.936998,-0.0957 7.658098,-0.002 8.26833,0.20912 0.610235,0.21094 1.162958,0.3958 1.228637,0.41018 0.06567,0.0143 0.11941,-0.14151 0.11941,-0.34585 0,-0.99238 -6.245661,-1.58499 -11.076373,-1.5072 z m -31.935178,0.23164 c -3.491357,0 -3.1065915,0.95023 0.6203811,1.53212 1.6419124,0.25636 3.8450583,0.64345 4.8958809,0.86058 1.050823,0.21714 2.05931,0.4163 2.240836,0.44235 0.585044,0.084 0.985452,-0.83538 0.533622,-1.2249 -0.730743,-0.62999 -5.7768226,-1.61015 -8.29072,-1.61015 z m 98.749741,0.42289 c -0.31335,0.005 0.18228,0.55683 1.10176,1.2241 1.66487,1.2082 2.86588,1.57073 2.86588,0.86459 0,-0.44341 -3.15524,-2.10451 -3.96764,-2.08869 z m -83.93713,0.81232 c -2.232296,-0.0441 -2.37051,0.1172 -2.37051,0.70213 0,0.77158 0.347977,0.81972 6.209412,0.85333 5.807563,0.0334 7.36349,-0.23839 5.373529,-0.93779 -0.459736,-0.16158 -3.253971,-0.39239 -6.209411,-0.51311 -1.281761,-0.0523 -2.258921,-0.0899 -3.00302,-0.10448 z m 102.00096,0.70937 c 1.65358,-0.0618 4.68562,0.28602 10.02406,1.08495 4.91716,0.7359 6.23996,1.07391 6.36335,1.62624 0.1858,0.83182 -0.83342,0.84992 -4.69066,0.0844 -1.44488,-0.28674 -5.14208,-0.75809 -8.21607,-1.04795 -4.93574,-0.46544 -5.54018,-0.60649 -5.16922,-1.20401 0.20001,-0.32222 0.69641,-0.50664 1.68854,-0.54368 z M 3.1724173,134.061 c -0.8013832,-0.005 -0.8943728,0.21344 -0.7967004,0.65067 0.1090124,0.48801 0.7360371,0.74626 2.0645172,0.85011 1.049632,0.0821 2.5535451,0.30565 3.3416632,0.49704 0.7881171,0.1914 2.2571927,0.36484 3.2642317,0.38524 3.343266,0.0679 1.633539,-0.95957 -2.8257665,-1.69781 -2.7367381,-0.45307 -4.2465622,-0.68042 -5.0479452,-0.68525 z m 34.8290477,0.27185 c -5.592691,0.0315 -6.836355,0.21691 -6.316694,0.94181 0.158945,0.2217 2.532929,0.29189 5.620747,0.16567 2.939755,-0.12015 5.989432,-0.044 6.77755,0.16972 1.918932,0.52027 3.582353,0.54984 3.582353,0.0635 0,-0.79109 -4.184509,-1.37166 -9.663956,-1.34071 z m -14.165219,0.52841 c -3.38294,-0.0687 -6.262587,0.33942 -6.262587,1.03028 0,0.39736 0.468004,0.46396 1.791176,0.25495 2.439268,-0.38534 6.71238,-0.35609 8.597648,0.0587 1.217418,0.26785 1.552352,0.21281 1.552352,-0.25336 0,-0.39499 -0.743041,-0.68172 -2.215649,-0.85574 -1.151566,-0.13607 -2.335293,-0.21196 -3.46294,-0.23485 z m 69.316654,0.46728 c 0.355494,0.005 0.776335,0.0436 1.266887,0.11502 1.964368,0.28612 1.730859,-0.11718 3.46201,5.97896 0.145524,0.51245 -0.516204,0.61766 -3.884617,0.61766 -2.233001,0 -5.99447,-0.0927 -8.358823,-0.20589 -6.33173,-0.30326 -7.144562,-1.12668 -2.244568,-2.27367 5.635532,-1.31916 6.565073,-1.59426 7.379273,-2.18681 0.459736,-0.33459 0.835883,-0.84679 0.835883,-1.13804 0,-0.62906 0.477473,-0.92122 1.543955,-0.90723 z m -70.352178,2.26 c -6.513955,-0.11312 -6.194645,0.64607 0.504702,1.19998 3.021116,0.24979 5.654146,0.48142 5.851176,0.51473 0.197029,0.0334 0.358235,-0.21391 0.358235,-0.54932 0,-0.82863 -1.406857,-1.07322 -6.714113,-1.16539 z m -19.8708599,0.18177 c -0.6581207,0.0381 -0.6409054,0.26417 -0.6409054,0.71902 0,0.65183 0.6186583,0.85536 3.9405872,1.29486 2.1673238,0.28679 4.3704691,0.65725 4.8958811,0.82359 1.163622,0.36839 2.005186,-0.60723 1.223972,-1.41874 -0.287536,-0.29868 -2.4146361,-0.75209 -4.7270258,-1.00775 -2.701286,-0.29866 -4.0343885,-0.44903 -4.6925091,-0.41098 z m 34.3075549,0.0539 c -1.142773,-0.0199 -2.151358,0.005 -2.808975,0.0901 -2.419678,0.31282 -2.694799,0.9319 -0.495373,1.11473 3.601426,0.29935 11.336165,0.10634 11.351579,-0.28311 0.01602,-0.40501 -4.618914,-0.8621 -8.047231,-0.92169 z m 72.542643,0.38284 c -1.17242,0.0512 -2.89233,0.52366 -2.74834,0.89676 0.0989,0.25604 0.92564,0.48434 1.83782,0.50749 2.84252,0.072 9.96388,1.322 10.44294,1.83293 0.13135,0.14011 1.65135,0.55717 3.37805,0.92653 1.72668,0.36935 3.66115,0.8508 4.29881,1.07048 1.48439,0.5114 4.74197,0.5668 4.74197,0.0804 0,-0.3813 -4.58553,-1.6852 -8.83648,-2.51257 -1.31353,-0.25564 -2.74149,-0.62708 -3.17282,-0.82517 -0.43134,-0.1981 -2.54563,-0.64835 -4.69902,-1.00052 -2.15339,-0.35216 -4.10779,-0.74264 -4.34268,-0.86781 -0.17994,-0.0959 -0.50945,-0.12561 -0.90025,-0.10857 z m -6.66093,1.77181 c -0.47616,0.0417 -0.95626,0.13077 -1.3266,0.25815 -1.20557,0.41476 -0.47125,0.60892 7.01172,1.84823 4.59734,0.7614 8.84243,1.38649 9.43352,1.38979 0.59108,0.003 1.07471,0.17777 1.07471,0.38765 0,0.20988 0.37614,0.46666 0.83588,0.57023 1.47229,0.3317 2.98529,0.29519 2.98529,-0.0725 0,-0.50068 -4.89806,-1.92574 -8.59764,-2.50129 -1.7076,-0.26563 -4.39437,-0.73881 -5.9706,-1.05118 -1.57624,-0.3124 -3.44162,-0.67287 -4.14583,-0.80106 -0.35208,-0.0642 -0.8243,-0.0698 -1.30045,-0.028 z m -80.72049,0.0901 c -2.632342,-0.005 -4.003639,0.25958 -4.214862,0.80586 -0.123747,0.32006 1.376144,0.4668 4.909876,0.47935 2.798852,0.0108 5.214132,0.12559 5.366999,0.25738 0.460603,0.3971 1.293005,-0.0118 1.293005,-0.63537 0,-0.44315 -1.033197,-0.63792 -4.298823,-0.81152 -1.161322,-0.0618 -2.178747,-0.0938 -3.056195,-0.0957 z m 35.185417,0.96433 c -1.762508,-0.006 -2.773668,0.10836 -2.276284,0.34904 0.394059,0.19068 3.296123,0.4716 6.449167,0.62412 3.153046,0.15251 6.914518,0.36488 8.358821,0.4721 2.723033,0.20217 10.727126,2.18631 10.30113,2.55357 -0.211411,0.18226 -40.985645,0.10093 -57.589114,-0.11502 -8.70509,-0.11324 -11.689957,-0.13502 -16.3594091,-0.11903 l -4.1794112,0.0137 v 1.4493 1.4485 l 43.5852873,-0.30412 c 23.97191,-0.16695 49.388696,-0.31393 56.481766,-0.32653 12.55094,-0.0222 25.99888,0.35449 26.44691,0.74074 0.40993,0.35342 10.77445,0.17895 14.15309,-0.23807 4.6484,-0.57377 5.09608,-0.73127 4.92387,-1.73562 l -0.14741,-0.85897 -33.04626,-0.009 c -19.096543,-0.005 -33.008645,-0.16499 -32.957656,-0.37718 0.110474,-0.45976 -9.507353,-3.53236 -11.160332,-3.56535 -0.669901,-0.0134 -1.428934,0.15741 -1.68669,0.37962 -0.305924,0.26391 -1.872826,0.26476 -4.513392,0.003 -2.507719,-0.24853 -5.021556,-0.37755 -6.784083,-0.38443 z m 43.551703,1.0962 c -0.36859,-0.007 -0.63087,0.0334 -0.69687,0.12548 -0.21372,0.29811 2.6794,1.27162 5.26064,1.77019 1.73954,0.336 4.06001,0.28592 4.06001,-0.0876 0,-0.20227 -1.23592,-0.56849 -2.74648,-0.81392 -1.51056,-0.24542 -3.55389,-0.61701 -4.54045,-0.82517 -0.49327,-0.10407 -0.96824,-0.16098 -1.33685,-0.16891 z" />
    <g
       aria-label="XVIII"
       id="text823"
       style="font-size:40px;line-height:1.25;font-family:Hultog;-inkscape-font-specification:Hultog"
       transform="matrix(0.47764701,0,0,0.41178699,-111.47051,1.4052816)">
      <path
         d="m 284.53949,50.982498 q -0.51376,2.715596 -1.54129,2.422018 l -3.57186,-1.003058 q -4.30581,0 -4.89297,1.247707 l -1.66361,-1.174312 q 0.95413,-2.079511 2.17737,-2.079511 0.29358,0 0.56269,0.09786 0.24465,-0.220183 0.24465,-0.562691 0,-0.513761 -0.53822,-1.394495 -1.71254,-1.223242 -4.50153,-6.776758 h -0.17126 q -0.51376,-0.02446 -0.75841,0.464831 -2.49541,5.333334 -4.4526,7.168196 l 0.19572,0.880734 q 2.2263,0.293578 2.2263,1.810398 0,0.61162 -0.4159,1.590214 -0.9052,-0.709481 -1.78593,-0.880734 -0.36697,-0.04893 -1.98165,-0.04893 -3.08257,0 -4.526,0.733945 L 258.093,52.890755 v -1.932722 l 2.88685,-0.733945 q 0.68502,-0.171254 6.94802,-9.174312 1.2477,-0.391437 1.2477,-1.174312 0,-0.782874 -0.9052,-1.492354 -1.2477,-1.027523 -1.37003,-1.198777 -0.78287,-1.076453 -2.10397,-3.400612 -1.3211,-2.324159 -2.07951,-3.376146 0,0 -1.83486,-1.639144 l -3.27829,-0.733945 0.97859,-2.103976 5.3578,0.685016 3.00917,-0.685016 1.37003,0.464832 v 1.663609 q -1.68807,0.318043 -1.6636,1.37003 v 0.171254 l 4.64831,6.874618 0.75841,-0.195719 q 0.92967,-3.571865 3.47401,-5.993884 v -1.247706 l -1.88379,-0.685015 -0.4159,-1.859328 1.05198,-0.538226 3.91438,0.660551 q 1.66361,-0.587156 2.88685,-0.587156 1.49235,0 1.81039,1.003058 -0.80734,2.152905 -3.18042,2.152905 -1.85933,2.422018 -3.71866,4.844037 -2.78899,3.743119 -3.10703,4.892966 1.54128,1.761468 4.40367,5.333333 0.48929,1.076453 1.61468,3.058104 0.95413,1.003058 2.78899,2.93578 z"
         id="path1763" />
      <path
         d="m 313.06546,26.591061 -0.4159,1.737003 -2.6422,1.443425 q -2.81346,7.24159 -3.74312,9.516819 -3.03364,7.363915 -4.28135,8.978594 l -1.68807,5.7737 q -2.2263,0 -2.66667,-1.712538 l -0.95413,-3.743119 -0.97859,-1.370031 -0.31804,-2.055046 q -0.0245,-0.04893 -1.59022,-3.033639 -1.02752,-1.957187 -0.97859,-3.180428 -0.66055,-1.027523 -1.95719,-3.082569 -0.19572,-0.562691 -0.53822,-1.614679 -0.95413,-2.593272 -1.8104,-3.865443 -1.3211,-1.957187 -3.08257,-1.859327 -0.0979,-0.513762 -0.0979,-1.027523 0,-1.443426 1.3945,-1.908257 l 3.57186,1.37003 3.6208,-1.027523 1.29663,0.880734 q 0.0489,0.269113 0.0489,0.342508 0,1.198777 -2.20183,2.201835 0.3425,1.321101 1.17431,3.767584 1.51682,2.83792 4.20795,8.611621 0,0 0.95413,4.159021 l 0.75841,1.027523 q 0.70948,-0.244648 0.70948,-0.587156 v -2.12844 l 6.263,-14.776759 q 0,-0.318043 -1.68808,-1.41896 -0.0979,-0.415902 -0.0979,-0.831804 0,-0.513762 0.29358,-0.905199 0.31804,-0.391437 0.8318,-0.293578 l 3.1315,0.636086 q 1.07646,-0.709481 1.93272,-0.709481 0.85627,0 1.54129,0.685016 z"
         id="path1765" />
      <path
         d="m 326.12969,51.44733 q -0.41591,2.470948 -1.46789,2.2263 l -4.526,-1.027523 q 0,0 -3.32721,0.318042 -0.95413,0.660551 -1.66361,0.660551 -1.00306,0 -1.56575,-1.46789 l 1.2477,-1.810398 q 0.58716,0.195719 1.22325,0.195719 2.10397,0 2.10397,-3.400611 0,-0.660551 -0.0979,-1.981652 -0.0979,-1.321101 -0.0979,-1.981651 0,-1.932722 0.0979,-5.82263 0.0979,-3.889908 0.0979,-5.82263 0,-1.663609 -0.97859,-2.617737 -0.66055,0.244648 -1.3211,0.244648 -1.14985,0 -1.93273,-0.929663 0.41591,-2.446484 1.44343,-2.2263 l 4.47706,0.978593 4.25688,-1.027523 1.76147,0.905199 -0.51376,1.761468 q -0.4893,-0.122324 -0.8318,-0.122324 -2.25077,0 -2.25077,3.840978 0,0.391438 0.0245,1.027523 0.0245,0.611621 0.0245,0.831804 0,1.614679 -0.0979,15.437309 l 1.02753,1.100918 q 0.66055,-0.220184 1.19877,-0.220184 1.07646,0 1.68808,0.929664 z"
         id="path1767" />
      <path
         d="m 339.43855,51.44733 q -0.4159,2.470948 -1.46789,2.2263 l -4.52599,-1.027523 q 0,0 -3.32722,0.318042 -0.95413,0.660551 -1.66361,0.660551 -1.00305,0 -1.56574,-1.46789 l 1.2477,-1.810398 q 0.58716,0.195719 1.22324,0.195719 2.10398,0 2.10398,-3.400611 0,-0.660551 -0.0979,-1.981652 -0.0979,-1.321101 -0.0979,-1.981651 0,-1.932722 0.0979,-5.82263 0.0979,-3.889908 0.0979,-5.82263 0,-1.663609 -0.97859,-2.617737 -0.66055,0.244648 -1.32111,0.244648 -1.14984,0 -1.93272,-0.929663 0.41591,-2.446484 1.44343,-2.2263 l 4.47706,0.978593 4.25688,-1.027523 1.76147,0.905199 -0.51376,1.761468 q -0.4893,-0.122324 -0.8318,-0.122324 -2.25077,0 -2.25077,3.840978 0,0.391438 0.0245,1.027523 0.0245,0.611621 0.0245,0.831804 0,1.614679 -0.0979,15.437309 l 1.02752,1.100918 q 0.66055,-0.220184 1.19878,-0.220184 1.07645,0 1.68807,0.929664 z"
         id="path1769" />
      <path
         d="m 352.74742,51.44733 q -0.4159,2.470948 -1.46789,2.2263 l -4.52599,-1.027523 q 0,0 -3.32722,0.318042 -0.95413,0.660551 -1.66361,0.660551 -1.00305,0 -1.56575,-1.46789 l 1.24771,-1.810398 q 0.58716,0.195719 1.22324,0.195719 2.10398,0 2.10398,-3.400611 0,-0.660551 -0.0979,-1.981652 -0.0979,-1.321101 -0.0979,-1.981651 0,-1.932722 0.0979,-5.82263 0.0979,-3.889908 0.0979,-5.82263 0,-1.663609 -0.9786,-2.617737 -0.66055,0.244648 -1.3211,0.244648 -1.14984,0 -1.93272,-0.929663 0.4159,-2.446484 1.44343,-2.2263 l 4.47706,0.978593 4.25688,-1.027523 1.76147,0.905199 -0.51376,1.761468 q -0.4893,-0.122324 -0.83181,-0.122324 -2.25076,0 -2.25076,3.840978 0,0.391438 0.0245,1.027523 0.0245,0.611621 0.0245,0.831804 0,1.614679 -0.0979,15.437309 l 1.02752,1.100918 q 0.66055,-0.220184 1.19878,-0.220184 1.07645,0 1.68807,0.929664 z"
         id="path1771" />
    </g>
  </g>
</svg>
