<?xml version="1.0" encoding="UTF-8" standalone="no"?>
<!-- Created with Inkscape (http://www.inkscape.org/) -->

<svg
   version="1.1"
   id="svg2"
   width="4cm"
   height="4cm"
   viewBox="0 0 151.1811 151.1811"
   sodipodi:docname="19.svg"
   inkscape:version="1.1.2 (0a00cf5339, 2022-02-04)"
   xmlns:inkscape="http://www.inkscape.org/namespaces/inkscape"
   xmlns:sodipodi="http://sodipodi.sourceforge.net/DTD/sodipodi-0.dtd"
   xmlns="http://www.w3.org/2000/svg"
   xmlns:svg="http://www.w3.org/2000/svg">
  <defs
     id="defs6" />
  <sodipodi:namedview
     id="namedview4"
     pagecolor="#505050"
     bordercolor="#eeeeee"
     borderopacity="1"
     inkscape:pageshadow="0"
     inkscape:pageopacity="0"
     inkscape:pagecheckerboard="0"
     showgrid="false"
     inkscape:zoom="1.8914142"
     inkscape:cx="85.121493"
     inkscape:cy="105.47663"
     inkscape:window-width="1920"
     inkscape:window-height="1043"
     inkscape:window-x="0"
     inkscape:window-y="0"
     inkscape:window-maximized="1"
     inkscape:current-layer="g8"
     units="cm"
     inkscape:document-units="cm" />
  <!-- Border -->
    <rect
       x="0"
       y="0"
       width="4cm"
       height="4cm"
       class="board-border"
       stroke-width="0.1cm"
       id="border"
       fill="none"
       stroke="#000000" />
  <g
     inkscape:groupmode="layer"
     inkscape:label="Image"
     id="g8">
    <path
       id="path12"
       style="fill:#000000;stroke-width:0.399233"
       d="m 17.7112,2.6931752 c -0.928479,-0.019424 -2.1507,-0.012608 -3.442873,0.025707 L 9.5696619,2.8584331 9.0837358,7.4335018 C 8.253056,15.256007 7.976374,21.458196 7.5241361,42.42995 7.3005925,52.796397 7.3544991,55.235373 7.8105592,55.491924 c 0.3084264,0.173504 0.9473035,0.317949 1.4196994,0.320969 0.7272097,0.0049 0.8606344,-0.239178 0.8700304,-1.592353 0.118401,-17.048131 0.676424,-45.2111942 0.902316,-45.5354863 0.164512,-0.2361734 0.307033,-1.277285 0.317053,-2.3136081 l 0.01821,-1.8839385 1.844366,-0.1175166 c 1.209618,-0.077059 2.08905,0.078529 2.553803,0.4517045 0.502801,0.4037247 2.031808,0.6234232 5.262408,0.7572478 2.504588,0.1037504 4.745937,0.2941902 4.98095,0.4230598 0.456411,0.2502743 4.31268,0.5500703 8.993359,0.6984894 1.57649,0.049988 3.092447,0.291356 3.369198,0.536904 0.746286,0.6621439 1.353151,0.5446254 1.822843,-0.3532843 0.52583,-1.0052259 3.711614,-1.3154802 5.038898,-0.490632 1.068698,0.6641489 3.931676,0.7110406 4.175489,0.068306 0.138359,-0.3647449 0.339157,-0.3525596 0.895694,0.055086 0.547635,0.4011247 0.953785,0.4300138 1.71771,0.1211892 0.729195,-0.294784 1.702905,-0.2760396 3.590223,0.069041 1.424268,0.2604131 2.589401,0.374936 2.589401,0.254864 0,-0.1200719 0.524502,-0.2461283 1.16556,-0.280571 0.641059,-0.034447 2.405294,-0.1835403 3.920522,-0.3312498 1.515228,-0.1477099 3.041054,-0.2533846 3.390721,-0.2350332 0.349669,0.018351 1.589401,0.1021207 2.754962,0.1865577 1.165561,0.084437 2.487031,-0.015035 2.936251,-0.2210783 0.449219,-0.2060455 1.872813,-0.3665131 3.163903,-0.3562224 1.291089,0.010292 2.707995,-0.1519555 3.149001,-0.3613633 0.552862,-0.2625243 0.945583,-0.2532005 1.264896,0.030115 0.254706,0.2259865 1.571934,0.4105731 2.927146,0.4105731 1.355212,0 2.868233,0.2115298 3.361748,0.4700664 0.671838,0.3519515 0.942379,0.360183 1.076987,0.032318 0.122744,-0.2989795 0.573816,-0.3377995 1.422183,-0.1219235 0.683412,0.1739016 1.325665,0.1970977 1.427145,0.051414 0.101481,-0.1456875 1.296189,-0.2173448 2.654801,-0.1593822 1.358598,0.057963 2.850083,0.1125662 3.314561,0.1211892 0.464474,0.00862 1.280896,0.2690055 1.813736,0.5787695 0.532834,0.3097632 1.135213,0.4721431 1.338575,0.360629 0.203363,-0.1115141 3.092502,-0.2862065 6.420512,-0.3878048 3.32802,-0.1015983 6.40741,-0.2855549 6.84353,-0.4083705 0.43613,-0.1228152 1.08146,-0.010435 1.43378,0.2489885 0.51416,0.3786123 1.19585,0.3735018 3.45528,-0.024973 2.09262,-0.3690503 2.8562,-0.38569 2.97682,-0.064634 0.19107,0.5085777 2.19887,0.5474161 4.43873,0.085934 1.01251,-0.2086084 1.68707,-0.1908753 1.8543,0.049211 0.16123,0.2314475 0.93876,0.2667274 2.01076,0.090341 0.96145,-0.1581954 4.6409,-0.3132771 8.17631,-0.3444707 4.51291,-0.039817 6.62284,-0.2001882 7.08111,-0.5376383 0.35901,-0.2643571 0.85187,-0.3713984 1.0952,-0.2379714 0.26328,0.1443804 0.44205,-0.1470733 0.44205,-0.7197884 0,-0.9586413 -0.015,-0.962288 -3.92052,-1.0231291 -2.1563,-0.033591 -4.68344,-0.1116068 -5.6159,-0.173337 -0.93244,-0.06173 -2.74436,0.078938 -4.02647,0.312888 -2.64024,0.4817677 -6.63717,0.4385028 -10.38408,-0.1123753 C 120.13765,3.6840055 115.46481,3.4195299 111.15223,3.3013238 102.9225,3.0757497 65.420438,3.1397751 61.774853,3.3857888 60.609293,3.4644439 52.789441,3.5336632 44.397405,3.5392949 29.177955,3.5495083 20.19376,3.2930752 19.390834,2.8261159 19.274277,2.7583302 18.639681,2.7125996 17.7112,2.6931752 Z M 69.086096,16.093743 c -0.50598,0.0052 -1.038569,0.03174 -1.605955,0.07565 -3.87039,0.299553 -6.444372,1.515303 -8.475978,4.003644 -1.026142,1.25684 -1.269423,1.901398 -1.169701,3.10097 0.09049,1.088234 0.334474,1.548906 0.86755,1.638622 0.581492,0.09787 0.748167,-0.144714 0.771521,-1.124486 0.04115,-1.726179 0.342864,-2.212275 2.38079,-3.832512 1.452691,-1.154949 2.286088,-1.486907 4.586913,-1.825179 2.54742,-0.374528 3.077631,-0.331467 5.642372,0.455376 3.311634,1.015984 3.981603,1.464579 5.144857,3.444707 0.862303,1.467839 1.20878,4.832135 0.497517,4.832135 -0.201676,0 -0.836259,-0.327765 -1.410596,-0.728602 -0.574337,-0.400837 -1.601349,-0.847526 -2.282278,-0.992281 -0.680941,-0.144755 -1.460252,-0.417666 -1.731786,-0.60668 -1.201434,-0.836316 -7.448342,-0.279406 -11.812061,1.053243 -0.940243,0.287142 -1.999699,0.522214 -2.354301,0.522214 -0.354597,0 -1.342997,0.566984 -2.196187,1.260366 -1.127615,0.916405 -1.628178,1.689394 -1.833605,2.829213 -0.15543,0.862422 -0.448173,1.659057 -0.650663,1.770093 -0.567449,0.311161 -0.437923,2.09859 0.289733,3.993362 0.511804,1.332708 1.124444,1.99575 2.754136,2.981251 1.152756,0.697086 2.096428,1.372798 2.096851,1.501272 4.24e-4,0.128475 -0.917716,0.341585 -2.040561,0.473741 -4.170194,0.490825 -10.776241,5.378542 -12.366695,9.150137 -0.502568,1.191785 -1.067466,2.338566 -1.254965,2.547908 -0.466512,0.520855 -1.234138,4.172073 -1.779798,8.465603 -0.249713,1.964878 -0.671993,4.757073 -0.938739,6.204878 l -0.485098,2.632372 -6.258267,0.104294 c -6.102499,0.101523 -6.282374,0.0819 -7.202799,-0.78442 C 25.198976,68.234167 21.564541,66.125592 18.239345,64.582571 16.588122,63.81634 15.165343,63.49225 12.82131,63.347909 L 9.6425093,63.151804 9.5117143,61.336175 c -0.072466,-1.007842 0.090641,-2.050927 0.3658941,-2.345192 0.8273576,-0.884508 0.2020686,-1.566905 -1.2607593,-1.376415 -1.6084883,0.209462 -2.1296469,0.813843 -0.9395676,1.089968 0.7791953,0.180791 0.805534,0.265083 0.2375823,0.768999 -0.535808,0.475398 -0.6184444,1.833033 -0.5148996,8.483966 0.092177,5.920724 0.2569831,7.958007 0.6531443,8.074859 0.3367,0.09932 0.5298004,-0.214888 0.5298004,-0.861542 0,-0.876711 0.090853,-0.950324 0.6572836,-0.533232 0.400178,0.294671 0.6074756,0.937523 0.5298002,1.643762 -0.1071941,0.974621 -0.2892294,1.144363 -1.1398986,1.061324 -0.9882975,-0.09648 -1.0059224,-0.04818 -0.7350979,1.996311 0.3540596,2.672841 0.35256,60.333307 -0.00165,64.119267 -0.2581064,2.75864 -0.2344399,2.85857 0.8344355,3.47996 1.0143285,0.58968 4.7499083,0.65344 47.7921223,0.81381 25.680341,0.0957 46.745726,0.22166 46.812816,0.28056 0.0671,0.0589 9.57877,0.1623 21.13654,0.22916 l 21.01403,0.12119 v -2.09547 -2.0962 h -3.62748 c -2.40525,0 -3.53589,0.13196 -3.35513,0.39148 0.18681,0.26818 -1.5734,0.31713 -5.59105,0.15644 -8.14214,-0.32565 -9.98545,-0.53367 -10.86918,-1.22951 -0.55571,-0.43757 -0.85192,-0.48417 -1.07201,-0.1682 -0.19752,0.28357 -1.78616,0.43768 -4.53641,0.44068 -4.19242,0.004 -4.25114,-0.008 -6.08775,-1.29708 -1.0199,-0.71609 -2.06591,-1.29663 -2.32449,-1.28975 -0.48075,0.0128 0.45864,0.80309 2.30794,1.94196 l 1.03642,0.63826 -1.5894,0.0198 c -1.11775,0.0139 -1.5894,-0.14228 -1.5894,-0.52662 0,-0.30059 -0.48373,-0.85057 -1.0745,-1.22217 -2.84547,-1.78984 -4.2235,-2.84988 -4.2235,-3.24787 0,-0.31357 -2.17767,-0.44963 -7.735079,-0.48329 -4.760594,-0.0288 -7.735083,0.0939 -7.735083,0.31877 0,0.20099 1.271025,1.53373 2.824496,2.96142 l 2.824498,2.59566 h -4.125819 -4.126649 l -3.148169,-2.53028 c -1.731811,-1.39166 -3.149002,-2.64231 -3.149002,-2.77926 0,-0.353 7.286314,-0.0584 7.594356,0.30701 0.139876,0.16594 0.8242,0.72492 1.521519,1.242 l 1.26821,0.94013 -0.953641,-0.96437 c -0.524502,-0.5304 -0.95364,-1.2496 -0.95364,-1.59822 0,-0.57716 -0.976074,-0.63664 -10.913885,-0.66691 -6.002637,-0.0182 -14.380902,-0.10183 -18.618338,-0.18582 -4.237435,-0.084 -8.147361,0.004 -8.688724,0.19684 -0.944163,0.33588 -0.947249,0.35171 -0.08361,0.37458 1.689084,0.0447 4.495753,1.14805 5.801313,2.28056 0.716807,0.6218 1.932872,1.51046 2.701981,1.97501 0.769109,0.46456 1.399791,0.97156 1.401487,1.12669 0.008,0.77608 -2.182857,0.0768 -5.46191,-1.74365 -2.006701,-1.11403 -4.25102,-2.29487 -4.987573,-2.62429 -0.736554,-0.32942 -1.410752,-0.79 -1.498339,-1.02313 -0.111126,-0.2958 -3.420097,-0.45665 -10.951966,-0.5325 -5.936112,-0.0597 -13.680988,-0.22395 -17.211057,-0.36504 -4.350453,-0.17387 -6.507747,-0.1283 -6.695351,0.14102 -0.375493,0.53906 0.500344,1.917 1.218541,1.917 0.318369,0 1.721231,0.7615 3.116715,1.69223 1.395485,0.93074 2.701224,1.69571 2.902312,1.70032 0.201121,0.005 0.823049,0.32038 1.38162,0.70143 l 1.015726,0.69262 -1.89983,0.25265 c -1.044943,0.13904 -3.670974,0.21866 -5.835253,0.17628 l -3.9354224,-0.0771 0.3203634,-2.85125 c 0.176073,-1.56815 0.374338,-4.28965 0.440396,-6.04769 0.06606,-1.75806 0.154712,-4.1272 0.19702,-5.26475 0.04231,-1.13756 0.04473,-7.20242 0.0058,-13.47768 -0.06321,-10.18939 0.0039,-11.45812 0.624999,-11.86111 0.494717,-0.32096 1.635285,-0.36839 3.949496,-0.16525 1.789488,0.15707 4.683764,0.18726 6.432105,0.0676 2.722815,-0.18643 13.850224,-0.18885 19.28473,-0.004 l 1.69536,0.0573 0.899833,-3.76054 c 2.292223,-9.577545 4.34497,-15.05186 5.319527,-14.187182 0.289135,0.256528 0.277463,0.630273 -0.03476,1.147989 -0.604443,1.002068 -0.583996,1.193528 0.125826,1.193528 0.337105,0 0.70733,-0.56236 0.866719,-1.316186 0.317049,-1.499467 0.206397,-1.460662 2.522349,-0.874031 2.30906,0.584891 2.793692,0.953713 3.740055,2.847577 0.511868,1.024353 1.284846,1.8166 2.155626,2.207842 0.746908,0.335583 1.644534,0.822515 1.994202,1.082623 0.349668,0.260113 1.576694,0.911809 2.726814,1.447659 1.422373,0.662696 2.138163,1.248327 2.23758,1.831788 0.148653,0.872462 0.298976,1.58429 1.816223,8.566963 1.113674,5.12534 1.702337,12.2342 1.307115,15.79422 -0.17219,1.55123 -0.185994,3.24346 -0.03064,3.76054 0.224135,0.74558 0.384308,0.42789 0.77483,-1.53506 1.068878,-5.3727 0.39819,-13.26509 -1.923836,-22.62856 L 65.636605,94.547556 64.30548,94.221447 c -3.100429,-0.759598 -7.404781,-4.740257 -7.404781,-6.84829 0,-0.872071 -1.262407,-2.973903 -1.786418,-2.973903 -0.475545,0 -0.418571,0.26585 0.334436,1.55783 0.366854,0.629438 0.594368,1.208954 0.505794,1.287541 -0.149858,0.132962 -3.355814,-0.545682 -3.625822,-0.767531 -0.228751,-0.187948 0.892319,-2.07784 1.232611,-2.07784 0.186613,0 0.694684,-0.337674 1.12831,-0.750636 0.546114,-0.520097 1.588362,-0.82564 3.393205,-0.993019 2.490558,-0.230964 2.657999,-0.192433 3.784762,0.861546 1.713798,1.603108 4.357607,2.981869 4.357607,2.272478 0,-0.303324 -0.488222,-0.835425 -1.085264,-1.182514 -0.641995,-0.373226 -1.018268,-0.890339 -0.920526,-1.265506 0.09089,-0.348894 -0.251532,-1.142261 -0.760759,-1.762749 -1.225496,-1.49325 -2.743374,-4.161735 -2.743374,-4.822588 0,-0.290279 -0.449016,-0.931319 -0.997516,-1.424889 -1.522289,-1.369834 -1.717913,-2.547858 -1.774,-10.674916 l -0.05215,-7.521063 -1.233442,0.122657 c -0.678798,0.0674 -1.253194,0.152001 -1.275657,0.188026 -0.127183,0.203825 1.057515,10.389981 1.308771,11.252952 0.232375,0.798135 0.151692,1.034146 -0.355131,1.034146 -0.361184,0 -0.765439,-0.15611 -0.898177,-0.346676 -0.372755,-0.535123 -6.87376,-2.355657 -7.922997,-2.21886 -1.39752,0.182205 -1.510613,1.061323 -0.136591,1.061323 1.734231,0 8.460685,2.021106 8.919683,2.680112 0.112347,0.161282 -1.395278,0.192916 -3.350156,0.07051 -1.954878,-0.122401 -4.296663,-0.09152 -5.204461,0.06831 -1.53899,0.270954 -1.578169,0.308852 -0.57947,0.561143 0.589096,0.148815 2.472141,0.301718 4.184595,0.340065 2.134574,0.04779 3.596789,0.297826 4.650655,0.793972 l 1.537247,0.723459 -2.013241,-0.225486 c -2.227657,-0.249496 -2.879571,0.42209 -0.84768,0.873297 1.623562,0.360534 3.435339,1.390153 4.240885,2.410562 0.625292,0.792058 0.624456,0.843277 -0.0058,0.628711 -1.540676,-0.524552 -4.22856,-1.064907 -4.426316,-0.889452 -0.474476,0.420981 0.399681,0.938979 1.985094,1.176633 1.795956,0.269212 4.27211,1.557341 4.576978,2.380447 0.12911,0.348583 -0.30683,0.276696 -1.450326,-0.237971 -3.65093,-1.643198 -11.633612,-2.160083 -11.931271,-0.772672 -0.120697,0.562568 0.110237,0.571206 2.652315,0.09842 2.686681,-0.499677 2.884691,-0.483359 5.637406,0.453908 1.569239,0.534308 3.382076,1.146116 4.028135,1.360255 1.716786,0.569034 1.824043,1.034926 0.221029,0.958496 -0.767792,-0.03663 -2.301652,-0.03219 -3.408935,0.0096 -2.067471,0.07795 -2.268006,0.193021 -4.740055,2.716101 -0.69667,0.711053 -1.316846,1.075102 -1.409768,0.827761 -0.213951,-0.569484 2.037417,-4.251041 2.747514,-4.49281 0.587862,-0.200146 0.760369,-1.607774 0.197018,-1.607774 -0.803818,0 -2.791598,2.356767 -3.45612,4.098393 l -0.717714,1.883204 -2.297181,-3.01577 c -2.680064,-3.518576 -2.820726,-3.736581 -4.869194,-7.573211 -1.0859,-2.033812 -1.429968,-3.057204 -1.137415,-3.384479 0.532904,-0.596153 1.21823,-3.345644 1.85099,-7.426317 0.272607,-1.758048 0.767538,-3.873348 1.099335,-4.700664 0.331797,-0.827318 0.69714,-2.168523 0.812085,-2.980516 0.114944,-0.811996 0.388247,-1.77364 0.607614,-2.137335 0.219368,-0.363678 0.399815,-0.968544 0.400664,-1.344093 8.47e-4,-0.37555 0.763916,-1.57464 1.69536,-2.66469 0.931449,-1.090047 1.693704,-2.100089 1.693704,-2.243834 0,-0.143743 1.154295,-1.211686 2.56539,-2.373836 3.08337,-2.539412 6.706902,-3.842098 7.85512,-2.823336 0.372928,0.330878 1.383749,0.58538 2.325326,0.58538 0.932771,0 1.664731,0.182983 1.664731,0.415714 0,0.228502 -0.481682,1.266371 -1.070363,2.306263 -1.091303,1.927766 -1.074468,3.294873 0.03972,3.294873 0.333957,0 0.606787,-0.253189 0.606787,-0.562609 0,-0.438493 1.643822,-5.131716 1.858442,-5.305877 0.02674,-0.0217 0.973493,0.06291 2.103472,0.188026 1.927896,0.213475 2.093814,0.320386 2.689563,1.731902 0.349176,0.827317 0.831948,2.467135 1.072845,3.644485 0.258518,1.263475 0.6964,2.228714 1.068705,2.355473 0.533009,0.181476 0.584035,-0.112932 0.331956,-1.903036 -0.164077,-1.165148 -0.66331,-2.874175 -1.10927,-3.797253 -0.97964,-2.028104 -0.977372,-1.991912 -0.126622,-1.991912 1.386596,0 10.759928,5.570318 10.759912,6.394374 0,0.179979 -0.667549,0.231314 -1.483441,0.113842 -1.563779,-0.225154 -1.829302,0.09664 -1.072846,1.300028 0.562436,0.894736 2.556287,9.89828 2.556287,11.543069 0,1.229235 -0.09805,1.331612 -1.271521,1.331612 -0.699336,0 -1.27152,-0.135756 -1.27152,-0.301869 0,-0.534086 -4.81087,-3.333087 -8.135744,-4.732983 -3.34326,-1.407639 -5.448255,-1.676419 -7.291378,-0.931318 -1.080199,0.43668 -1.693873,1.284837 -1.319533,1.822241 0.115148,0.165312 0.830451,0.387549 1.590226,0.494303 0.759777,0.10675 2.812082,0.555678 4.560423,0.997424 1.86213,0.470495 3.725976,0.715765 4.499993,0.591986 1.139113,-0.182167 1.577426,0.0123 3.178801,1.412403 1.021624,0.893221 2.181065,1.734231 2.576152,1.868515 1.458798,0.495829 1.298675,4.805681 -0.17798,4.790275 -0.297158,-0.003 -2.066386,-0.426197 -3.931282,-0.940134 -1.864897,-0.513959 -3.772178,-0.937109 -4.238403,-0.94087 -1.140591,-0.0088 -2.832663,-1.632281 -2.500822,-2.399542 0.289666,-0.669751 0.839594,-0.785804 1.209432,-0.254862 0.133166,0.191174 -0.09416,0.418994 -0.504963,0.506054 -0.701888,0.148752 -0.702541,0.174978 -0.01572,0.440689 0.47262,0.182848 0.995041,0.04846 1.479299,-0.381197 0.458511,-0.406811 0.568391,-0.717679 0.283113,-0.802051 -0.929223,-0.274815 -2.061775,-1.183518 -1.783109,-1.430765 0.157012,-0.139313 0.978427,-0.03128 1.824501,0.240178 1.313426,0.421393 1.595572,0.412692 1.92963,-0.05949 0.310714,-0.439189 0.02234,-0.630476 -1.400656,-0.929115 -0.985539,-0.206829 -2.048818,-0.523303 -2.362579,-0.702895 -1.013614,-0.58019 -1.757067,0.595894 -1.816223,2.872545 -0.0477,1.83581 0.08898,2.24684 0.953641,2.86961 0.80219,0.577779 4.912659,1.914716 9.993359,3.25007 0.838148,0.220288 1.476854,2.952089 0.967712,4.140254 -0.256152,0.597764 -0.325306,1.960953 -0.163081,3.233178 l 0.280625,2.199765 H 75.760772 72.47187 l 0.240894,-1.316186 c 0.205714,-1.124753 0.121319,-1.316187 -0.580296,-1.316187 -0.675314,0 -0.821191,0.266975 -0.821191,1.504213 0,1.086377 -0.176602,1.504213 -0.635761,1.504213 -0.448931,0 -0.640558,-0.414411 -0.653146,-1.410199 -0.0242,-1.918075 -1.413206,-6.905996 -1.911417,-6.864441 -0.576389,0.04807 -0.325908,3.45509 0.417215,5.675319 0.631832,1.887723 0.631599,1.888715 -0.305462,1.629811 -2.423641,-0.669676 -2.739651,-0.898489 -3.162246,-2.291578 -2.743445,-9.043699 -3.157651,-10.863214 -2.993371,-13.15231 0.130072,-1.8124 0.03569,-2.389261 -0.391556,-2.389261 -0.309739,0 -0.674123,0.255983 -0.809599,0.569221 -0.348019,0.804667 0.667367,9.093367 1.335262,10.900401 0.305784,0.827317 0.69041,2.096496 0.854301,2.820399 0.632174,2.792281 2.475185,5.919024 3.886585,6.593415 0.746747,0.356811 1.548144,1.134425 1.781451,1.728232 0.596894,1.519202 1.314956,1.362215 1.024833,-0.224019 l -0.23841,-1.302964 1.430461,0.37532 c 0.786834,0.206457 4.196018,0.335597 7.576143,0.28718 8.354662,-0.119663 12.971189,-0.048 14.627454,0.227689 1.983831,0.330209 5.109949,3.254473 6.603465,6.176967 0.678141,1.326975 1.232611,2.636855 1.232611,2.911476 0,0.465892 0.88538,2.489547 1.75414,4.008783 0.41453,0.724917 1.49951,5.277394 1.5447,6.481774 0.0707,1.88433 2.74932,10.5277 4.83691,15.60621 0.46761,1.13756 1.26867,3.08363 1.77979,4.32461 0.51112,1.24098 1.3446,2.95865 1.85182,3.81709 l 0.92218,1.56076 -1.51986,0.63973 c -1.76765,0.74423 -7.06215,1.91313 -10.09435,2.22842 -1.15689,0.12028 -2.247417,0.44743 -2.423836,0.72713 -0.176415,0.2797 -1.47649,0.72631 -2.889069,0.99228 -2.421408,0.45592 -3.351381,0.9126 -2.818703,1.38522 0.128543,0.11405 1.190619,-0.0976 2.360095,-0.47079 1.668481,-0.53234 2.334614,-0.58808 3.093538,-0.25928 1.723885,0.74689 5.090465,1.18182 10.715215,1.38377 3.03045,0.10878 6.30853,0.30777 7.28474,0.44215 2.16094,0.29745 8.18542,-0.15996 8.18542,-0.62137 0,-0.43669 -4.11013,-2.79761 -7.84104,-4.50382 -2.50659,-1.14631 -2.94937,-1.49249 -2.8543,-2.23429 0.0619,-0.48291 -0.14128,-1.14844 -0.45116,-1.47851 -1.06941,-1.1391 -4.80296,-11.45483 -6.27399,-17.33443 -0.18112,-0.72391 -1.00497,-2.99724 -1.83113,-5.05174 -0.82614,-2.05451 -1.45445,-3.77817 -1.39569,-3.83031 0.0588,-0.0522 1.53417,0.0692 3.27814,0.26955 3.37668,0.38794 17.11906,0.48466 20.38158,0.14323 1.91326,-0.20024 1.95286,-0.18349 1.92798,0.84171 -0.0248,1.02103 0.57349,11.39747 0.7649,13.26835 0.0529,0.51708 0.12575,1.57473 0.16225,2.35034 0.0365,0.77561 0.28079,1.4102 0.54304,1.4102 0.29607,0 0.38729,-0.39865 0.24007,-1.05178 -0.13041,-0.5785 -0.0717,-1.28997 0.1308,-1.5806 0.20244,-0.29063 0.27217,-0.66484 0.15562,-0.83216 -0.11655,-0.16731 -0.23954,-3.83781 -0.27401,-8.15639 l -0.0629,-7.8523 -2.65066,-1.826656 c -2.29461,-1.581894 -3.4147,-2.682454 -3.0058,-2.95187 0.0638,-0.04202 1.35564,0.04188 2.87086,0.185823 1.565,0.148676 2.97613,0.109566 3.26655,-0.09034 0.28117,-0.193555 0.71031,-0.242862 0.95364,-0.109435 0.24332,0.133427 0.44206,-0.0022 0.44206,-0.301873 0,-0.319991 -0.56785,-0.631799 -1.37749,-0.756514 -2.23599,-0.344434 -8.98768,-0.41863 -9.55958,-0.105028 -0.29004,0.159044 -1.04674,0.199673 -1.68211,0.09034 -1.38341,-0.238053 -7.86944,-0.596639 -14.29468,-0.790298 -3.31122,-0.0998 -4.74415,-0.284395 -4.94452,-0.637527 -0.15517,-0.27347 -0.61626,-1.681811 -1.02484,-3.129616 -0.61029,-2.162607 -1.04161,-2.875995 -2.415552,-3.996299 -2.91814,-2.379431 -8.845528,-3.428372 -16.319505,-2.887972 -5.779099,0.417855 -9.721623,0.536929 -9.966039,0.300403 -0.105125,-0.10173 -0.329548,-0.60815 -0.499173,-1.125223 -0.285779,-0.871146 -0.264875,-0.889038 0.290563,-0.243848 0.569782,0.661851 0.87067,0.67115 6.083599,0.188028 5.516263,-0.511234 16.82905,-0.616608 20.725951,-0.193168 1.607326,0.174654 2.273086,0.08514 2.858426,-0.384868 0.59773,-0.479938 1.91175,-0.6419 6.06043,-0.745495 3.21457,-0.08028 5.29635,0.01019 5.29635,0.229892 0,0.666457 -3.13934,1.144999 -7.52317,1.147256 -2.42219,0.0011 -4.34437,0.158712 -4.34437,0.355487 0,0.206441 2.68268,0.333167 6.46357,0.30628 5.25532,-0.03738 13.6594,0.522642 14.13159,0.941599 0.0588,0.05217 -0.0375,1.532774 -0.21357,3.289732 -0.3472,3.46541 0.167,5.737102 1.34437,5.941934 0.55572,0.09669 0.63366,-0.24912 0.48758,-2.162306 -0.0957,-1.252565 -0.25151,-3.293766 -0.34603,-4.535408 -0.13386,-1.758515 -0.027,-2.32901 0.48345,-2.582425 1.45736,-0.72362 0.0203,-1.101411 -3.68792,-0.96878 -2.14345,0.07666 -3.90988,-0.02099 -4.0513,-0.224016 -0.13794,-0.198014 -0.62121,-0.359894 -1.07368,-0.359894 -0.96462,0 -1.08644,-0.842249 -0.21441,-1.484383 0.40671,-0.299482 0.86377,-0.330746 1.37749,-0.09474 0.42285,0.194265 2.4832,0.274635 4.57863,0.178478 2.09542,-0.09615 5.20615,-0.05886 6.91224,0.083 2.8632,0.238053 3.09221,0.319905 2.97185,1.069401 -0.11779,0.733484 -0.38695,0.812045 -2.7798,0.808661 -1.45695,-0.0019 -2.649,0.115069 -2.649,0.260007 0,0.535229 1.08578,0.824805 4.00247,1.067197 1.64477,0.136689 3.32467,0.378269 3.73261,0.536907 0.56645,0.220269 0.74173,0.11162 0.74173,-0.458315 0,-0.410462 -0.2861,-0.956616 -0.63577,-1.214095 -0.34967,-0.25748 -0.63575,-0.770124 -0.63575,-1.139178 0,-0.592806 -0.99927,-2.758023 -3.28311,-7.114163 -0.38528,-0.734872 -1.616,-2.842243 -2.7351,-4.683035 -1.11909,-1.840792 -2.03476,-3.484618 -2.03476,-3.653297 0,-0.168675 -1.04901,-1.73479 -2.33112,-3.479962 -1.28211,-1.745173 -2.33113,-3.358907 -2.33113,-3.585727 0,-0.532315 0.28294,-0.585248 -3.83939,0.728603 -3.98518,1.270145 -6.17324,2.158785 -7.29469,2.963622 -0.65972,0.47347 -0.88985,0.448587 -1.90727,-0.205653 -2.0257,-1.302583 -4.0235,-1.819517 -6.66721,-1.72676 -3.070587,0.107736 -4.736177,0.268404 -6.145684,0.594194 -1.1224,0.259432 -1.489708,-0.268208 -4.413897,-6.338553 C 88.8627,54.221091 88.093443,52.8673 87.651433,52.246812 86.723422,50.944085 84.153984,48.674307 83.60757,48.674307 c -0.204266,0 -0.783614,-0.514271 -1.288077,-1.142848 -0.841259,-1.048233 -3.568717,-3.001096 -8.052136,-5.765659 -1.11971,-0.690436 -1.604736,-1.210053 -1.344371,-1.441046 0.26037,-0.231021 0.706393,-0.195729 1.235927,0.09768 1.437729,0.796646 4.481356,0.138719 5.940387,-1.283868 2.000013,-1.950076 2.5864,-2.955075 2.664726,-4.566256 0.138295,-2.84469 -0.01208,-3.447961 -1.287245,-5.156042 -0.997304,-1.335879 -1.274085,-2.115377 -1.256623,-3.543125 0.05781,-4.72949 0.09193,-4.595408 -1.494202,-5.831028 -3.853411,-3.001878 -6.098005,-3.98448 -9.639881,-3.947824 z m -0.521522,9.640769 c 0.941324,0 1.03395,0.117241 0.787249,0.989343 -0.211759,0.748591 -0.135785,0.947286 0.310433,0.81674 0.324273,-0.09487 0.650672,-0.540177 0.725161,-0.989343 0.07449,-0.449165 0.332664,-0.81674 0.574503,-0.81674 0.247951,0 0.31193,0.286994 0.146521,0.658093 -0.926086,2.077732 -0.772342,3.041556 0.67136,4.211502 1.307906,1.059903 1.584471,1.131058 3.512409,0.904144 1.939481,-0.228273 2.068714,-0.193857 1.76738,0.468596 -0.178817,0.39312 -0.523446,1.222321 -0.765726,1.842808 -0.242276,0.620488 -0.670761,1.381996 -0.951984,1.692239 -0.281226,0.310245 -0.629911,0.860377 -0.774835,1.222908 -0.144923,0.362532 -1.164844,1.166344 -2.266553,1.786253 -1.679416,0.944971 -2.434454,1.127425 -4.674657,1.127425 -1.469589,0 -2.67218,0.147074 -2.67218,0.326842 0,0.380442 2.469704,0.790957 4.793035,0.79691 0.967351,0.0026 1.509608,0.155129 1.352648,0.380461 -0.306292,0.439715 -1.876303,0.415065 -5.801314,-0.09181 L 62.46442,40.694378 62.51326,38.19715 c 0.03645,-1.854188 -0.230729,-3.142819 -1.036416,-5.004738 -0.726559,-1.679048 -0.943946,-2.632893 -0.65894,-2.885767 0.285008,-0.252874 0.125801,-0.751547 -0.481787,-1.50862 -0.600209,-0.747877 -0.751906,-1.215557 -0.447846,-1.382289 0.468716,-0.257021 1.117962,0.329221 2.406449,2.173323 0.501933,0.718371 1.075075,1.034147 1.877482,1.034147 0.635318,0 1.273143,0.169224 1.417215,0.376053 0.405721,0.582454 2.16425,0.443762 2.784762,-0.219609 0.718685,-0.768327 0.06027,-1.766454 -1.220194,-1.850152 -1.235384,-0.08075 -1.456816,-0.326819 -1.583607,-1.756874 -0.08255,-0.931071 -0.01492,-1.062271 0.2947,-0.571425 0.553854,0.878098 1.63162,0.802405 1.63162,-0.114579 0,-0.553061 0.282765,-0.752106 1.067878,-0.752106 z m 4.261582,0.376053 c 0.405263,0 0.611076,0.256364 0.524833,0.653686 -0.07804,0.359577 -0.501942,0.71524 -0.941223,0.7903 -0.601103,0.10271 -0.730866,-0.02013 -0.524832,-0.496508 0.150569,-0.348137 0.274004,-0.703801 0.274004,-0.790299 0,-0.0865 0.30046,-0.157179 0.667218,-0.157179 z m -9.431271,0.07712 c 0.08737,0.0099 0.212996,0.08248 0.365062,0.217406 0.275864,0.244748 0.402728,0.532135 0.282286,0.638996 -0.282867,0.250975 -0.783939,-0.193602 -0.783939,-0.695551 0,-0.117817 0.04922,-0.170678 0.136591,-0.160851 z m -1.892383,0.298932 c 0.216371,0 0.513614,0.277851 0.660597,0.617697 0.403806,0.933651 -0.04145,1.061452 -0.581127,0.166727 -0.260365,-0.431646 -0.29598,-0.784424 -0.07947,-0.784424 z m 6.960253,0.14249 c -0.04456,0.03954 -0.07509,0.170967 -0.08527,0.390008 -0.0184,0.396422 0.08184,0.618529 0.222686,0.49357 0.140821,-0.12496 0.156321,-0.449061 0.03395,-0.720524 -0.06765,-0.149995 -0.126797,-0.202593 -0.171355,-0.163054 z m 5.815384,0.609617 c 0.233112,0 0.42384,0.169224 0.42384,0.376053 0,0.206829 -0.190728,0.376053 -0.42384,0.376053 -0.233112,0 -0.423841,-0.169224 -0.423841,-0.376053 0,-0.206829 0.190729,-0.376053 0.423841,-0.376053 z M 57.92966,27.655911 c 0.105973,0.0053 0.03653,0.371556 -0.24834,1.096577 -0.633964,1.613546 -0.102582,3.635171 1.146521,4.361336 0.571867,0.332466 1.039731,0.754152 1.039731,0.937194 0,0.965998 -1.913744,-0.163935 -2.726814,-1.609977 -0.832617,-1.480871 -0.836381,-2.311322 -0.01737,-3.716463 0.418636,-0.718276 0.700321,-1.07401 0.806289,-1.068667 z m 18.25576,0.334922 c 0.349668,0 0.63576,0.169224 0.63576,0.376053 0,0.206829 -0.286092,0.376054 -0.63576,0.376054 -0.349669,0 -0.635761,-0.169225 -0.635761,-0.376054 0,-0.206829 0.286092,-0.376053 0.635761,-0.376053 z m -3.178801,0.424529 c 0.19205,0 0.384104,0.02643 0.5298,0.07859 0.291389,0.104322 0.05298,0.189495 -0.5298,0.189495 -0.582781,0 -0.821191,-0.08517 -0.5298,-0.189495 0.145694,-0.05216 0.337749,-0.07859 0.5298,-0.07859 z m 5.091876,0.336392 c 0.439997,-0.02552 0.83892,0.0583 0.828641,0.273226 -0.0074,0.155122 -0.268731,0.580295 -0.580296,0.944539 -0.493333,0.576742 -0.633307,0.590695 -1.082781,0.110172 -0.283858,-0.303478 -0.392929,-0.728651 -0.242547,-0.94454 0.155575,-0.223348 0.63699,-0.357883 1.076983,-0.383397 z m -12.29716,0.743292 c 0.233112,0 0.42384,0.169224 0.42384,0.376053 0,0.206829 -0.190728,0.376053 -0.42384,0.376053 -0.233112,0 -0.42384,-0.169224 -0.42384,-0.376053 0,-0.206829 0.190728,-0.376053 0.42384,-0.376053 z m 31.813678,1.142849 c 0.0039,0.0038 0.0081,0.0073 0.01157,0.01102 l 8.48e-4,7.52e-4 c 0.01441,0.0075 0.0281,0.0157 0.04141,0.02498 4.24e-4,-0.0014 0.0017,-0.0042 0.0025,-0.0058 -0.02048,-0.0061 -0.03484,-0.02883 -0.05629,-0.03085 z m -30.017325,2.090327 c -0.173024,0.03572 -0.350139,0.152077 -0.535594,0.350346 -0.650789,0.695743 -0.206469,1.179561 1.282282,1.39551 0.923649,0.133979 3.389285,-0.05065 3.718537,-0.278367 0.06376,-0.04411 -0.01234,-0.376209 -0.168875,-0.738151 -0.22414,-0.518238 -0.602777,-0.612221 -1.783935,-0.442157 -0.824937,0.118775 -1.725628,0.04987 -2.000827,-0.152772 -0.169684,-0.124947 -0.338563,-0.170131 -0.511588,-0.134409 z m -27.837691,0.475942 c -0.01159,6.02e-4 -0.02319,9.41e-4 -0.03477,0.0015 0.0095,0.01865 -0.0036,0.03052 0.0099,0.04994 0.0013,0.0019 0.0027,0.0017 0.0042,0.0037 0.01525,-0.0054 0.03027,-0.01147 0.04553,-0.0169 -0.008,-0.01287 -0.0168,-0.02533 -0.02484,-0.03819 z m 17.832744,1.384493 c 0.166934,0.01494 0.39944,0.08605 0.660598,0.210061 0.510888,0.242592 1.416847,0.572443 2.013241,0.73301 0.82823,0.222983 0.884215,0.292495 0.236752,0.294526 -1.203672,0.0037 -3.178801,-0.686946 -3.178801,-1.111267 0,-0.100638 0.101275,-0.141269 0.26821,-0.12633 z m 8.177963,0.221077 c -0.393485,-0.03227 -0.415898,0.196837 -0.32119,0.932789 0.125766,0.977279 0.330595,1.108038 2.047182,1.311044 3.658449,0.432657 3.715341,0.423562 3.504133,-0.556733 -0.156504,-0.726398 -0.525045,-0.934354 -1.954468,-1.103922 -0.968873,-0.114936 -2.206087,-0.327965 -2.749166,-0.473005 -0.223081,-0.05957 -0.395325,-0.09942 -0.526491,-0.110173 z m 12.13491,0.326109 c 0.33591,0 0.610927,0.169224 0.610927,0.376053 0,0.206831 -0.392531,0.376054 -0.872513,0.376054 -0.479982,0 -0.754999,-0.169223 -0.610927,-0.376054 0.144071,-0.206829 0.536602,-0.376053 0.872513,-0.376053 z m -20.093501,1.237598 c 0.03132,-0.01811 0.284388,0.08565 0.783938,0.296729 0.58278,0.246256 1.138796,0.509247 1.235927,0.584645 0.581645,0.451512 -0.797502,0.03264 -1.472679,-0.447298 -0.387882,-0.275717 -0.578487,-0.415962 -0.547186,-0.434076 z m 18.973473,0.688941 c 0.147238,0.0053 0.273949,0.04035 0.34437,0.102827 0.140838,0.124959 -0.109495,0.213903 -0.55629,0.197575 -0.493752,-0.01804 -0.593906,-0.107643 -0.255796,-0.227689 0.152981,-0.05431 0.320474,-0.07809 0.467716,-0.07271 z m -8.840217,0.329781 c -0.931453,0 -1.475765,0.56636 -1.084434,1.128159 0.488514,0.701313 1.907281,0.421578 1.907281,-0.376053 0,-0.493781 -0.282743,-0.752106 -0.822847,-0.752106 z m -11.384907,0.177009 c 0.225521,-0.200096 4.15479,1.249546 4.15479,1.53286 0,0.309356 -0.612784,0.1633 -2.499995,-0.596399 -1.025436,-0.412792 -1.770037,-0.834213 -1.654795,-0.936461 z m 19.100125,0.591991 c 0.531343,0 1.166764,0.119672 1.584433,0.359159 0.4729,0.271155 0.228611,0.365895 -0.953641,0.370177 -0.87417,0.0031 -1.5894,-0.163348 -1.5894,-0.370177 0,-0.239487 0.427265,-0.359159 0.958608,-0.359159 z m -1.360099,0.785894 c 0.360578,0.04065 0.825332,0.390692 0.825332,0.723458 0,0.194622 -0.179654,0.35402 -0.399008,0.35402 -0.500072,0 -1.03456,-0.73319 -0.730959,-1.002565 0.0759,-0.06734 0.184447,-0.08847 0.304635,-0.07492 z m -12.419675,2.608131 c 0.524502,-0.01454 0.95364,0.142784 0.95364,0.349613 0,0.206829 -0.04768,0.364151 -0.105959,0.349612 -0.05827,-0.01452 -0.487416,-0.171855 -0.953641,-0.349612 -0.80884,-0.308383 -0.803982,-0.324379 0.10596,-0.349613 z m 6.004129,0.771939 c 0.147238,0.0053 0.27395,0.04035 0.34437,0.102825 0.140837,0.124962 -0.109495,0.213899 -0.55629,0.197578 -0.493752,-0.01805 -0.593907,-0.107645 -0.255796,-0.227688 0.152981,-0.05432 0.320473,-0.0781 0.467716,-0.07271 z m -1.864236,2.5861 c -0.336618,0 -0.484238,0.929433 -0.462748,2.914412 0.01733,1.602926 -0.122189,3.188746 -0.31043,3.524028 -0.217514,0.387425 -0.110461,0.815689 0.293874,1.174433 0.377841,0.335244 1.075859,0.489606 1.719367,0.38046 1.085463,-0.184104 1.455433,-0.976098 0.659766,-1.412403 -0.233111,-0.127828 -0.423839,-1.006743 -0.423839,-1.952979 0,-2.103996 -0.804936,-4.627951 -1.47599,-4.627951 z m 8.348491,0.752105 c -0.875993,0 -0.838665,0.57543 0.147352,2.301856 0.992401,1.737603 1.892074,2.39374 1.871687,1.364663 -0.01517,-0.765087 -1.612983,-3.666519 -2.019039,-3.666519 z m 68.001513,4.799086 c -0.0202,0.03414 -0.0477,0.05858 -0.0654,0.09622 -8.5e-4,0.07422 -0.003,0.148071 -0.003,0.222548 1.6e-4,0.01647 -5e-5,0.02253 0,0.03746 0.0105,-0.08013 0.0216,-0.160127 0.0381,-0.239436 0.004,-0.02088 0.0194,-0.07538 0.0306,-0.116783 z M 81.556272,50.93081 c 0.147407,-0.0061 0.37153,0.14307 0.653142,0.469334 1.016458,1.177629 2.275894,6.74436 2.395689,10.589718 0.05307,1.703122 -0.426282,2.487716 -1.13493,1.858966 -0.160266,-0.142197 -0.291941,-1.372106 -0.292217,-2.733733 -4.24e-4,-2.385306 -0.733056,-6.416638 -1.629135,-8.962845 -0.27091,-0.769796 -0.238271,-1.2112 0.0075,-1.22144 z M 8.2832407,51.823201 c 0.076821,-0.03004 0.1831121,-0.01693 0.2996682,0.04701 0.2331123,0.127828 0.4238397,0.306879 0.4238397,0.398086 0,0.09121 -0.1907274,0.165994 -0.4238397,0.165994 -0.2331122,0 -0.4238403,-0.17905 -0.4238403,-0.398086 0,-0.109518 0.047351,-0.182942 0.1241721,-0.213001 z m 76.7324573,1.806082 c 0.279014,0.01658 0.959273,0.81158 1.937912,2.283497 1.175851,1.768533 1.998919,2.821237 5.472671,6.998116 1.065467,1.281116 0.935055,1.334008 -1.830295,0.744025 -0.932448,-0.19894 -2.401588,-0.266298 -3.264892,-0.149097 l -1.569535,0.212997 0.240894,-1.805349 c 0.141406,-1.059308 -0.04205,-3.019245 -0.44371,-4.742531 -0.376526,-1.615416 -0.684599,-3.09796 -0.684599,-3.294873 0,-0.171123 0.04855,-0.252313 0.141554,-0.246785 z m 59.670402,2.80204 c -0.0108,0.05975 -0.021,0.119676 -0.033,0.179212 0.008,-0.02001 0.0165,-0.03708 0.0323,-0.05802 3.4e-4,-0.04038 4.3e-4,-0.08081 8.5e-4,-0.121187 z m -78.120695,2.680112 c 1.680144,0.01072 4.972934,0.96692 6.002471,1.828852 0.725788,0.607635 0.689596,0.605307 -1.256618,-0.06463 -0.815893,-0.280855 -2.62781,-0.712809 -4.026482,-0.959965 -2.328781,-0.411516 -2.440654,-0.474388 -1.329468,-0.7477 0.162898,-0.04007 0.37008,-0.05808 0.610097,-0.05655 z m 51.715125,2.162307 c 0.63269,0.150278 1.22975,0.959037 3.07118,3.663581 3.02568,4.443876 3.49167,5.185789 4.54801,7.239757 0.42548,0.827317 0.98831,1.842661 1.25,2.256319 0.40578,0.641438 3.07529,5.508656 3.07532,5.607013 3e-5,0.0921 -12.25681,0.01816 -13.40312,-0.0808 -1.07182,-0.09254 -1.44939,-0.378486 -1.98675,-1.504212 -4.8491,-10.158415 -6.42741,-13.969538 -5.94535,-14.358328 0.43265,-0.348932 7.11754,-2.501231 8.69866,-2.800566 0.26613,-0.05038 0.48115,-0.07294 0.69205,-0.02275 z m -20.016512,1.201606 c 2.189682,0.0807 6.481572,0.423493 7.193692,0.624308 0.63914,0.180232 1.65914,1.842503 3.7831,6.165949 1.59946,3.25579 3.06536,6.08037 3.25744,6.276857 0.19209,0.196489 0.34935,0.626261 0.34935,0.954822 0,0.328562 0.35515,1.216521 0.78973,1.972813 0.93243,1.622707 0.74334,1.728716 -2.4851,1.389633 -1.28211,-0.134661 -3.57669,-0.162591 -5.09933,-0.0617 -3.17053,0.210134 -3.19792,0.185774 -4.40975,-3.943414 -0.35086,-1.195518 -1.57044,-4.664508 -2.711087,-7.70909 -1.140651,-3.044583 -2.016432,-5.58656 -1.946189,-5.64888 0.05222,-0.04633 0.54825,-0.04826 1.278144,-0.02129 z m -3.747509,0.113846 c 0.486962,7.52e-4 1.022319,0.614441 1.557943,1.786252 0.448706,0.981665 1.426239,2.969351 2.173007,4.417156 1.089308,2.111903 3.607211,9.968865 3.585261,11.187581 -0.005,0.302625 -1.977974,0.282665 -6.326977,-0.06464 -2.289929,-0.182856 -2.614894,-0.293366 -2.059597,-0.699222 0.928893,-0.6789 2.316787,-3.702905 2.669698,-5.817072 0.32434,-1.943014 1.049666,-2.440988 1.049666,-0.720526 0,1.045759 1.399058,5.252538 2.177974,6.549351 0.47513,0.791039 1.212746,0.867964 1.212746,0.126331 0,-0.575576 -1.422771,-4.075744 -4.698666,-11.560699 -1.14569,-2.617747 -2.082776,-4.859953 -2.082776,-4.982705 0,-0.122748 0.333774,-0.222563 0.741721,-0.221811 z m 24.148121,0.346673 c -0.169,0.01553 -0.60428,0.02791 -0.9677,0.02791 -0.36344,0 -0.54309,0.169224 -0.39901,0.376053 0.35359,0.50763 2.0178,0.48219 1.82615,-0.02791 -0.0835,-0.222341 -0.29043,-0.391584 -0.45944,-0.376053 z m -4.09684,0.403963 c -0.88466,0 -1.44438,0.495917 -1.00248,0.887986 0.33134,0.293983 0.32736,0.293547 1.15479,0.01174 0.9363,-0.318687 0.8379,-0.899719 -0.15231,-0.899719 z m -14.27315,0.376054 c -0.349654,0 -0.518241,0.169224 -0.374169,0.376053 0.144069,0.206829 0.547679,0.376053 0.897349,0.376053 0.34965,0 0.51824,-0.169224 0.37417,-0.376053 -0.14407,-0.206829 -0.54769,-0.376053 -0.89735,-0.376053 z m 3.60016,0 c -0.51322,0 -0.79553,0.26705 -0.79553,0.752106 0,0.413658 0.2018,0.752107 0.44867,0.752107 0.24687,0 0.34106,0.155783 0.20861,0.345938 -0.13246,0.190155 0.0603,0.613215 0.42881,0.940133 0.36846,0.326918 1.02778,0.594194 1.46522,0.594194 0.70981,0 0.74542,-0.131472 0.33196,-1.222173 -0.61777,-1.629682 -1.13217,-2.162305 -2.08774,-2.162305 z m -13.639043,0.651481 c 0.377621,0.0237 0.854687,0.101196 1.405624,0.243848 2.561546,0.663241 3.562928,2.366661 3.56208,6.061655 -4.23e-4,2.154555 -0.236825,3.076058 -1.300494,5.076718 -1.743458,3.279266 -3.055905,4.30902 -5.586082,4.381899 -1.088536,0.03136 -2.980623,0.181615 -4.204462,0.33419 l -2.22516,0.277633 -0.0066,-1.275057 c -0.005,-0.961289 -0.10735,-1.135676 -0.417228,-0.710241 -0.225975,0.310245 -0.413825,0.944835 -0.41722,1.4102 -0.0039,0.52042 -0.265795,0.84612 -0.680459,0.84612 -0.596729,0 -0.641575,-0.572409 -0.389903,-4.982705 0.298688,-5.234295 0.925035,-11.189376 1.202812,-11.435837 0.09004,-0.07987 0.429384,-0.05513 0.754139,0.05509 0.474683,0.161093 0.57232,1.324188 0.499173,5.931652 -0.06864,4.323702 0.01976,5.50024 0.359268,4.791004 0.247536,-0.517073 0.447101,-3.013126 0.443711,-5.546785 l -0.0058,-4.60665 h 1.46357 c 0.804661,0 1.924079,0.268324 2.488405,0.596397 0.564326,0.328069 1.195059,0.503934 1.401491,0.390742 0.495232,-0.271564 3.069472,2.101136 3.261582,3.006222 0.08257,0.38903 0.165102,1.178614 0.182946,1.754672 0.02874,0.928144 0.128784,1.00156 0.879965,0.64487 1.118823,-0.531265 1.0537,-1.274139 -0.331126,-3.760532 -0.740694,-1.329886 -1.583035,-2.249715 -2.359268,-2.576551 -1.350859,-0.56878 -1.113776,-0.979595 0.01903,-0.908552 z m 20.684553,0.476678 c -0.34967,0 -0.63576,0.248575 -0.63576,0.552328 0,0.336572 0.2485,0.467509 0.63576,0.335658 0.34967,-0.119055 0.63576,-0.367627 0.63576,-0.552328 0,-0.184699 -0.28609,-0.335658 -0.63576,-0.335658 z m 5.1548,0.08667 c -0.67258,0.01669 -1.55215,0.348391 -1.55215,0.691145 0,0.192888 0.57218,0.350346 1.27152,0.350346 1.25088,0 1.68241,-0.482334 0.84353,-0.942337 -0.13798,-0.07566 -0.33871,-0.104716 -0.5629,-0.09916 z m -15.32696,0.289385 c -1.209397,0 -1.432714,0.610401 -0.31788,0.868889 1.27674,0.296033 1.37747,0.273781 1.37747,-0.30481 0,-0.350982 -0.40028,-0.564079 -1.05959,-0.564079 z m 18.62414,0 c -0.59654,0 -0.97823,0.153384 -0.84768,0.340798 0.13054,0.187413 0.61926,0.252075 1.08526,0.143956 1.16621,-0.270589 1.06108,-0.484754 -0.23758,-0.484754 z m -107.23323,0.04994 c 1.479498,0.0026 3.137413,0.107656 3.993369,0.312154 2.305473,0.550809 18.284731,10.04021 18.284731,10.858536 0,0.138451 -1.478142,0.290485 -3.284761,0.337861 -1.806619,0.04737 -5.001315,0.179028 -7.099324,0.293055 -2.098008,0.114034 -4.683878,0.297973 -5.746676,0.408371 L 16.373455,77.680534 12.584556,74.556058 8.7948287,71.431587 8.938041,68.612654 c 0.078568,-1.550189 0.2126832,-2.919255 0.2988399,-3.042943 0.1412113,-0.20273 1.4426801,-0.302302 2.9221791,-0.299669 z m 2.305459,1.078216 c -1.523263,0 -1.534994,0.30628 -0.0538,1.382289 1.387712,1.008104 1.746693,1.060827 2.073671,0.30481 0.366867,-0.848248 -0.637637,-1.687099 -2.019863,-1.687099 z m 97.323471,0 c -0.34967,0 -0.63576,0.169223 -0.63576,0.376052 0,0.206831 0.28609,0.376054 0.63576,0.376054 0.34967,0 0.63577,-0.169223 0.63577,-0.376054 0,-0.206829 -0.2861,-0.376052 -0.63577,-0.376052 z m 8.92548,0 c -0.33591,0 -0.72844,0.169223 -0.87251,0.376052 -0.14407,0.206831 0.13094,0.376054 0.61092,0.376054 0.47999,0 0.87251,-0.169223 0.87251,-0.376054 0,-0.206829 -0.27501,-0.376052 -0.61092,-0.376052 z m -19.33439,0.752106 c -0.45247,0 -0.82285,0.169224 -0.82285,0.376053 0,0.20683 0.4879,0.376053 1.08443,0.376053 0.61515,0 0.97141,-0.162771 0.82285,-0.376053 -0.14407,-0.206829 -0.63196,-0.376053 -1.08443,-0.376053 z m 15.91884,0 c -0.69066,0 -1.0596,0.210574 -1.0596,0.604476 0,0.396547 0.23058,0.525838 0.67052,0.376053 0.36874,-0.125546 0.84556,-0.228423 1.0596,-0.228423 0.21405,0 0.38908,-0.169223 0.38908,-0.376053 0,-0.206829 -0.47683,-0.376053 -1.0596,-0.376053 z m -12.45031,0.477411 c -0.55502,0.02798 -0.68655,0.339809 -0.19453,0.776343 0.1554,0.137887 0.86159,0.250458 1.5687,0.250458 1.49555,0 1.08936,-0.565184 -0.68543,-0.954088 -0.27186,-0.05957 -0.50373,-0.08203 -0.68874,-0.07271 z m 16.92546,0.650748 c -0.45247,0 -0.94036,0.169224 -1.08443,0.376053 -0.14856,0.213283 0.2077,0.376054 0.82284,0.376054 0.59654,0 1.08444,-0.169224 1.08444,-0.376054 0,-0.206829 -0.37039,-0.376053 -0.82285,-0.376053 z m -7.87829,0.04407 c -0.74354,0.01233 -1.89487,0.377507 -1.89487,0.71538 0,0.202889 0.33378,0.365832 0.74172,0.362836 0.96168,-0.0075 2.07109,-0.632481 1.70282,-0.959234 -0.0995,-0.08835 -0.30183,-0.123093 -0.54967,-0.118982 z m 4.1341,0.384863 c -0.34484,0.02911 -0.51904,0.190776 -0.51904,0.484759 0,0.383958 0.38292,0.59052 1.09519,0.59052 1.32778,0 1.18226,-0.883435 -0.17466,-1.060586 -0.15283,-0.01997 -0.28655,-0.0244 -0.40149,-0.0147 z M 101.99,68.980627 c -0.59847,0 -0.94596,0.163655 -0.79801,0.376053 0.14407,0.206829 0.73841,0.376053 1.32119,0.376053 0.59847,0 0.94596,-0.163654 0.79801,-0.376053 -0.14407,-0.206829 -0.73841,-0.376053 -1.32119,-0.376053 z M 10.899957,69.35668 c -0.284996,0 -0.742801,0.240419 -1.0173817,0.533966 -0.3943576,0.421596 -0.3379071,0.616385 0.2665547,0.928381 0.856895,0.442291 2.67218,0.55451 2.67218,0.165257 0,-0.451095 -1.388996,-1.627604 -1.921353,-1.627604 z m 95.138873,0.376053 c -0.73947,0 -0.40098,0.635188 0.55712,1.045165 1.23577,0.528791 2.01324,0.557055 2.01324,0.07345 0,-0.366584 -1.7281,-1.118612 -2.57036,-1.118612 z m 8.7831,0.116047 c -0.6003,0.140989 -1.55049,0.683457 -1.55049,0.990079 0,0.409534 1.62005,0.05792 1.95611,-0.42453 0.13629,-0.195622 0.14978,-0.442979 0.0298,-0.549391 -0.0742,-0.06583 -0.23533,-0.06311 -0.43543,-0.01617 z m 8.40975,0.824087 c -0.42737,0 -0.85651,0.21153 -0.95364,0.470066 -0.11185,0.29771 0.23781,0.470066 0.95364,0.470066 0.71582,0 1.06548,-0.172356 0.95363,-0.470066 -0.0971,-0.258536 -0.52626,-0.470066 -0.95363,-0.470066 z m -2.94205,0.188026 c -0.8194,0 -1.22491,0.639565 -0.55712,0.878437 0.92526,0.330972 1.16804,0.265509 1.16804,-0.314357 0,-0.310245 -0.27501,-0.56408 -0.61092,-0.56408 z m -82.830953,0.417186 c 1.76714,-0.03678 2.006886,0.0615 2.413075,0.993014 0.248017,0.56878 0.963667,2.218713 1.591057,3.666518 0.627389,1.447805 1.984752,3.647716 3.015722,4.888692 l 1.874168,2.256318 -1.140726,0.124128 c -0.627187,0.06812 -2.321712,-0.0588 -3.766549,-0.28204 -3.236337,-0.500041 -7.301827,-0.50798 -12.306266,-0.0235 -4.342206,0.420363 -15.43793,0.731604 -17.440362,0.489162 -1.4036,-0.169942 -1.8272685,-0.826118 -1.8385718,-2.846106 -0.00639,-1.141407 0.4653298,-1.325674 1.2491688,-0.487695 1.111836,1.188655 8.709721,2.479563 13.579443,2.306999 1.748341,-0.06195 3.178801,-0.150428 3.178801,-0.196105 0,-0.04568 0.572184,-0.149529 1.271521,-0.230628 3.752087,-0.435091 4.905697,-0.663325 5.15479,-1.020925 0.188717,-0.270924 -0.510805,-0.304178 -2.227644,-0.106498 -4.883679,0.562324 -7.212489,0.593784 -11.050474,0.151301 -3.590436,-0.413944 -3.898801,-0.516596 -4.079462,-1.355112 -0.107504,-0.498965 0.01888,-0.964854 0.281457,-1.035616 0.262576,-0.07077 4.292209,-0.223796 8.954452,-0.340065 4.662241,-0.116268 8.847668,-0.256213 9.301305,-0.311417 0.537988,-0.06547 1.127517,0.319122 1.695361,1.10686 1.058923,1.46898 1.409225,1.525475 1.760758,0.282773 0.229532,-0.811417 -0.115362,-1.287628 -2.301319,-3.17956 -1.413962,-1.223771 -3.39112,-2.696853 -4.394032,-3.273573 l -1.823671,-1.048834 2.54304,-0.243848 c 1.398674,-0.134154 3.425957,-0.261794 4.504958,-0.28424 z m 65.165423,0.04921 c -0.94198,0.145025 -0.91128,0.194296 0.47517,0.752843 1.68222,0.677698 2.17152,0.546598 1.19454,-0.320235 -0.36759,-0.326132 -1.11028,-0.518732 -1.66971,-0.432608 z m 13.51653,0.675723 c -0.52866,0.0091 -1.19209,0.12688 -1.58112,0.345205 -0.44824,0.251554 -0.23965,0.337274 0.75662,0.312155 0.75672,-0.0191 1.47568,-0.177408 1.59768,-0.352551 0.14921,-0.214206 -0.24451,-0.313895 -0.77318,-0.304809 z m -8.60925,0.410575 c -0.43152,0.02251 -0.61755,0.177531 -0.61755,0.490629 0,0.407344 0.40342,0.589053 1.30712,0.589053 1.6216,0 1.47623,-0.885804 -0.17384,-1.05912 -0.20072,-0.0211 -0.37189,-0.02805 -0.51573,-0.02057 z m 16.7599,0.752106 c -0.19206,0 -0.3841,0.02644 -0.52981,0.07858 -0.29138,0.10432 -0.053,0.189497 0.52981,0.189497 0.58278,0 0.82118,-0.08517 0.5298,-0.189497 -0.14569,-0.05216 -0.33775,-0.07858 -0.5298,-0.07858 z m -2.55712,0.07711 c -0.55998,0.02087 -1.25745,0.335691 -1.25745,0.666907 0,0.445055 1.57742,0.432781 1.88907,-0.0147 0.13413,-0.19254 0.0677,-0.446436 -0.14817,-0.564814 -0.12527,-0.06869 -0.29678,-0.09435 -0.48345,-0.08741 z m -95.966684,1.002572 c -1.474528,0 -1.60251,0.442212 -0.336092,1.162681 1.39664,0.794555 1.666774,0.838207 2.024002,0.325373 0.407235,-0.584631 -0.617317,-1.488054 -1.68791,-1.488054 z m 78.129804,0 c -0.73975,0 -1.16232,0.157269 -1.00993,0.376053 0.14407,0.206829 0.83377,0.376053 1.53311,0.376053 0.73976,0 1.16233,-0.157269 1.00993,-0.376053 -0.14407,-0.206829 -0.83377,-0.376053 -1.53311,-0.376053 z m 13.63987,0 c -0.95601,0 -2.59803,0.784657 -2.35926,1.127426 0.30262,0.434435 0.49884,0.449443 1.80215,0.13955 0.91456,-0.217461 1.37603,-1.266976 0.55711,-1.266976 z m -8.92796,0.225484 c -0.86128,-0.07642 -0.44044,0.722982 0.50497,0.95923 1.50579,0.376282 1.61423,0.3598 1.61423,-0.244582 0,-0.310243 -0.38145,-0.58961 -0.84768,-0.620634 -0.46622,-0.03102 -1.03841,-0.07334 -1.27152,-0.09402 z M 18.391663,75.03567 c -0.253248,-0.01583 -0.493755,0.105085 -0.90811,0.351084 -0.550285,0.326692 -0.52503,0.4522 0.187085,0.934256 0.452501,0.306314 1.06129,0.556735 1.352646,0.556735 0.938722,0 1.155997,-0.851207 0.350994,-1.373474 -0.463674,-0.300821 -0.729366,-0.452787 -0.982615,-0.468601 z m -7.105946,0.827025 c 0.26176,0.0792 0.475993,0.705246 0.475993,1.391102 0,1.44808 0.93274,1.981741 1.134931,0.64928 0.130713,-0.861414 0.19535,-0.878443 1.51407,-0.397353 1.183516,0.431765 1.37748,0.687173 1.37748,1.8171 0,0.91828 -0.191836,1.315452 -0.635759,1.315452 -0.607943,0 -0.795687,-0.231204 -0.686258,-0.846119 0.05012,-0.28169 -0.653177,-0.432119 -1.409765,-0.301869 -1.169961,0.201414 -2.159112,-0.818221 -2.201982,-2.268809 -0.02838,-0.960326 0.12715,-1.450812 0.43129,-1.358784 z m 93.484083,0.262944 c -0.75643,0 -1.1876,0.156656 -1.03477,0.376053 0.14407,0.206829 0.72733,0.376053 1.29635,0.376053 0.56903,0 1.03477,-0.169224 1.03477,-0.376053 0,-0.20683 -0.58326,-0.376053 -1.29635,-0.376053 z m 18.27479,0 c -1.24417,0 -1.93925,0.432882 -1.42632,0.887985 0.3296,0.292363 0.50256,0.291979 1.71937,0.003 1.36406,-0.324695 1.17761,-0.890993 -0.29305,-0.890993 z m 3.15397,0 c -0.34966,0 -0.63576,0.253835 -0.63576,0.564079 0,0.310244 0.2861,0.564079 0.63576,0.564079 0.34967,0 0.63576,-0.253835 0.63576,-0.564079 0,-0.310244 -0.28609,-0.564079 -0.63576,-0.564079 z m -17.96519,0.156446 c -0.28724,0.0168 -0.47186,0.07321 -0.47186,0.180677 0,0.20431 0.81059,0.436437 1.80132,0.515607 0.99072,0.07918 1.88682,0.173921 1.99172,0.21006 0.1049,0.03614 0.009,-0.08341 -0.21192,-0.265148 -0.46582,-0.38228 -2.24755,-0.691648 -3.10926,-0.641196 z m 10.34269,0.452436 c -0.33469,0.05697 -0.73746,0.167456 -1.12831,0.318029 l -1.42136,0.547924 1.27153,0.0088 c 1.45161,0.01023 2.65021,-0.512722 1.99668,-0.871089 -0.11696,-0.06414 -0.38384,-0.0603 -0.71854,-0.0037 z m -36.244957,0.143224 c -0.233113,0 -0.42384,0.263662 -0.42384,0.586113 0,0.322458 0.190727,0.481847 0.42384,0.35402 0.233112,-0.127828 0.42384,-0.391491 0.42384,-0.586113 0,-0.194623 -0.190728,-0.35402 -0.42384,-0.35402 z m -45.961827,3.384478 c -0.335911,0 -0.728444,0.169224 -0.872515,0.376053 -0.144072,0.20683 0.130944,0.376054 0.610926,0.376054 0.479981,0 0.872514,-0.169224 0.872514,-0.376054 0,-0.206829 -0.275015,-0.376053 -0.610925,-0.376053 z m 2.518206,3.752455 c 6.778589,-0.01441 7.239348,0.02993 7.786407,0.748431 0.319825,0.420045 0.844327,0.763859 1.165561,0.763859 0.759279,0 0.75686,1.003313 -0.0043,1.391837 -0.957458,0.489087 -2.248818,3.431496 -3.230126,7.360947 l -0.918044,3.676067 -1.34023,-0.03084 c -0.73662,-0.01711 -4.868596,0.104746 -9.18117,0.271011 -4.312574,0.166264 -9.891207,0.302587 -12.397326,0.303339 -2.50612,7.53e-4 -4.556447,0.108442 -4.556282,0.23944 8.05e-4,0.630506 2.86008,0.773391 14.304606,0.713916 6.81853,-0.03542 12.393545,0.07424 12.389048,0.243847 -0.0045,0.169606 -0.255149,1.154598 -0.557118,2.188748 l -0.54884,1.88027 -13.535568,0.0308 c -7.444512,0.0171 -14.536892,-0.0343 -15.760731,-0.11383 l -2.22516,-0.14469 -0.0505,-1.5784 c -0.08625,-2.71133 0.151386,-3.331686 0.990065,-2.587567 0.275849,0.244746 0.939833,0.44509 1.47599,0.44509 1.811418,0 0.908641,-1.189905 -1.249998,-1.647433 l -1.16556,-0.247519 v -6.166685 c 0,-3.391827 0.111942,-6.424959 0.248344,-6.740313 0.179193,-0.414321 0.502506,-0.488648 1.165561,-0.267352 0.943653,0.314945 12.663801,0.193435 14.372487,-0.149097 1.960827,-0.393081 5.821474,-0.569055 12.822821,-0.583909 z m 47.864969,1.309575 c -0.321584,0.03512 -0.96544,0.451463 -1.824501,1.236861 -1.769083,1.617386 -4.199226,5.02761 -6.096839,8.55521 -0.333783,0.620488 -0.922993,1.36064 -1.308772,1.644499 -0.861578,0.633966 -0.906277,1.1759 -0.09685,1.1759 0.571719,0 1.723521,-1.576381 4.237575,-5.799447 1.247222,-2.095045 3.205635,-4.484423 3.477643,-4.243084 0.09953,0.08832 -0.03187,0.649681 -0.29222,1.247147 -1.288073,2.956011 -3.391239,15.116411 -4.024825,23.273431 -0.160653,2.06829 -0.33018,4.09898 -0.376654,4.51263 -0.04647,0.41366 -0.23816,2.14821 -0.426324,3.85455 -0.188164,1.70634 -0.508079,3.10244 -0.711094,3.10244 -0.203011,0 -0.369202,-0.35291 -0.369202,-0.78442 0,-0.91885 -1.277909,-5.15079 -2.999166,-9.9331 -1.626839,-4.51997 -2.934597,-9.20812 -2.934597,-10.51921 0,-1.04299 -0.01895,-1.05178 -0.847681,-0.38632 -0.466225,0.37435 -0.84768,0.96301 -0.84768,1.3081 0,0.34508 1.050695,3.32285 2.335261,6.61692 1.284563,3.29407 2.631201,7.25812 2.991715,8.80934 1.039612,4.47326 2.28641,9.0693 2.958604,10.90554 0.340712,0.93073 0.618819,2.12965 0.617547,2.66395 -0.0013,0.53431 0.119142,1.07963 0.268211,1.21189 0.149069,0.13225 0.453416,0.14063 0.676326,0.0183 0.488259,-0.26774 0.248595,-1.77072 -0.788907,-4.94745 -0.512664,-1.56974 -0.626207,-2.45831 -0.337749,-2.63237 0.483614,-0.29183 0.943188,-3.55827 2.518208,-17.89778 0.588269,-5.35579 1.351757,-11.109397 1.697013,-12.785811 1.055977,-5.127362 1.877982,-8.271944 2.394867,-9.15822 0.430766,-0.738643 0.431681,-1.084676 0.110097,-1.049568 z m -17.427944,1.549016 c -0.09443,0.08545 -0.185698,0.437996 -0.336093,1.113471 l -0.331951,1.488786 -0.560431,-1.128159 c -0.308476,-0.620488 -0.568743,-0.874324 -0.577813,-0.564079 -0.009,0.310243 0.27177,1.054493 0.624172,1.654046 0.779412,1.326043 0.544558,1.613536 -0.855958,1.047365 -0.840136,-0.339632 -1.061258,-0.705006 -1.061258,-1.753201 0,-0.973903 -0.18262,-1.324264 -0.691223,-1.324264 -0.582535,0 -0.639902,0.251971 -0.36341,1.598226 0.180531,0.879024 0.370852,2.359733 0.423014,3.290465 0.05216,0.930732 0.120379,1.819157 0.151488,1.974279 0.03111,0.155122 0.342383,0.28204 0.692051,0.28204 0.470933,0 0.635761,-0.43873 0.635761,-1.692239 0,-1.913351 0.186375,-2.021143 1.540562,-0.892393 1.592109,1.327073 2.218528,0.740656 1.791385,-1.676081 -0.200993,-1.137207 -0.527231,-2.455829 -0.725165,-2.93057 -0.163267,-0.3916 -0.260704,-0.573154 -0.355131,-0.487692 z m 23.074457,1.06793 c -0.419584,-0.372274 -1.683777,4.109156 -2.658936,9.424833 -0.569835,3.106248 -1.23045,6.464088 -1.467711,7.462298 -0.237266,0.99822 -0.431292,2.47579 -0.431292,3.28312 0,0.80734 -0.271872,2.78286 -0.604303,4.38999 -0.591252,2.85841 -1.191499,6.67411 -1.760759,11.19492 -0.156261,1.24098 -0.179284,2.17023 -0.05132,2.06535 0.322696,-0.26447 2.668723,-11.14818 3.241716,-15.03918 0.258895,-1.75805 0.74679,-4.38102 1.084434,-5.82882 0.818868,-3.51127 2.885644,-16.741812 2.648173,-16.952511 z m -43.559515,2.286434 c -0.767286,0 -1.422997,3.9741 -2.110096,12.785807 -0.258043,3.30927 -0.650057,6.93633 -0.870858,8.06016 -0.220803,1.12384 -0.401489,4.32475 -0.401489,7.11344 0,2.78868 0.08157,4.99847 0.181291,4.90998 0.511505,-0.45383 1.547141,-7.6926 1.932115,-13.50265 0.613997,-9.2664 0.823327,-11.556913 1.269037,-13.913966 0.699637,-3.69992 0.699561,-5.452771 0,-5.452771 z m 21.102605,3.202326 c -0.05703,0.0191 -0.116132,0.05897 -0.179636,0.115316 -0.267786,0.237595 1.017615,7.638645 1.437912,8.279045 0.113636,0.17315 0.398537,0.14437 0.633277,-0.0639 0.286511,-0.25421 0.141507,-1.63701 -0.442053,-4.206361 -0.766456,-3.374604 -1.05028,-4.257896 -1.4495,-4.1241 z m 35.528896,1.253757 c 1.19849,0.0078 2.89963,0.07701 5.04221,0.208594 3.66229,0.224909 6.84588,0.306768 7.07448,0.181415 0.2286,-0.125369 1.81067,-0.111676 3.51574,0.03012 l 3.10015,0.257066 2.86506,2.420109 c 1.57573,1.330938 2.73561,2.53424 2.57781,2.67424 -0.28534,0.25317 -18.33426,0.40715 -21.78638,0.18582 -1.7805,-0.11415 -1.83126,-0.15712 -3.31622,-2.773391 -0.97063,-1.710106 -1.36213,-2.78628 -1.0985,-3.020177 0.1318,-0.116949 0.82717,-0.171503 2.02565,-0.163791 z m -29.059538,4.477383 c -0.186546,0.01565 -0.405451,0.09948 -0.637413,0.270288 -0.523575,0.385537 -0.553087,0.597883 -0.145696,1.033413 0.444426,0.47512 0.58629,0.45895 1.066221,-0.12339 0.545135,-0.66147 0.276526,-1.227254 -0.283112,-1.180311 z m -1.168045,2.979781 c -0.499403,-0.0474 -1.39142,0.75312 -1.122511,1.13917 0.153117,0.21981 0.527465,0.12988 0.923836,-0.22181 0.36647,-0.32516 0.53943,-0.7039 0.384105,-0.84171 -0.0508,-0.045 -0.114085,-0.0689 -0.18543,-0.0757 z m 21.989194,1.06059 c -0.509952,0 -2.610093,3.53594 -2.610093,4.39439 0,0.39601 -0.151683,0.88099 -0.336919,1.07747 -0.333816,0.3541 -1.25391,2.92583 -2.212742,6.18578 -0.273763,0.93073 -0.745417,2.19992 -1.048013,2.8204 -0.302596,0.62049 -0.8759,2.39734 -1.274004,3.94856 -0.398105,1.55122 -1.276077,4.32367 -1.951983,6.16081 -0.675911,1.83714 -1.229303,3.48708 -1.229303,3.66652 0,0.17943 0.381457,0.3261 0.847681,0.3261 0.661776,0 0.847681,-0.25041 0.847681,-1.14284 0,-0.62872 0.347069,-1.77099 0.77152,-2.53836 0.424446,-0.76737 0.982838,-2.07241 1.240894,-2.89972 0.258055,-0.82732 0.867122,-2.60417 1.353474,-3.94856 0.75511,-2.0873 2.872259,-9.00289 4.30297,-14.05646 0.227182,-0.80246 0.693073,-1.81319 1.034768,-2.24604 0.6856,-0.86846 0.818096,-1.74805 0.264069,-1.74805 z m -55.081012,2.63237 c -0.508791,0 -1.234089,2.07098 -1.97599,5.64079 -1.251095,6.01993 -2.15641,9.58967 -2.621683,10.34147 -0.256003,0.41365 -0.595972,1.55193 -0.755793,2.52954 -0.15982,0.97762 -0.423071,1.84997 -0.584437,1.93829 -0.374173,0.2048 -7.565877,0.80461 -16.928773,1.41167 -5.41109,0.35084 -7.311243,0.59948 -7.311243,0.9585 0,0.77663 16.91076,0.13846 21.19201,-0.79985 2.973656,-0.65174 2.966899,-0.65298 2.964398,0.44142 -0.0013,0.57272 -0.194898,1.65736 -0.430463,2.40982 -0.428205,1.36781 -0.428803,1.36804 -3.282278,1.58647 -3.477667,0.26622 -5.495219,0.5116 -8.682101,1.05619 -1.927016,0.32929 -2.437081,0.56308 -2.437081,1.11715 0,0.55111 0.339352,0.71047 1.5894,0.74548 0.874171,0.0245 2.161585,0.17337 2.860921,0.33125 2.915304,0.65819 10.266167,0.23029 12.715206,-0.74035 0.753246,-0.29853 2.972635,-0.65237 6.145683,-0.97979 1.926858,-0.19884 9.81073,-0.17061 10.18872,0.0368 0.5239,0.2872 5.917207,-0.6365 5.917207,-1.0136 0,-0.17108 -0.487166,-0.31142 -1.082779,-0.31142 -1.057986,0 -1.042385,-0.0386 0.692881,-1.68122 0.976904,-0.92477 2.047042,-2.02471 2.378307,-2.44434 0.331269,-0.41963 0.952072,-0.76313 1.379133,-0.76313 0.556032,0 0.85781,-0.38435 1.062911,-1.35438 0.368313,-1.74192 0.114183,-1.93617 -0.841056,-0.64267 -0.420199,0.569 -2.067759,2.2208 -3.660589,3.67093 -1.592825,1.45012 -2.895689,2.83945 -2.895689,3.08775 0,0.34136 -1.6795,0.40043 -6.887403,0.24091 -5.551622,-0.17005 -7.317278,-0.0966 -9.103458,0.37899 -3.508288,0.93418 -3.370744,0.34255 0.902316,-3.87732 2.011493,-1.98645 3.568505,-2.95572 4.427142,-2.7565 0.614653,0.14262 1.042126,-0.35715 2.097679,-2.45169 0.729216,-1.44698 1.455648,-3.1097 1.614237,-3.69443 0.158584,-0.58472 0.643008,-1.69093 1.076155,-2.4583 0.931584,-1.6504 0.953027,-1.80138 0.257449,-1.798 -0.29139,0.001 -1.383426,1.56678 -2.426319,3.4785 -2.279015,4.17763 -3.464343,5.90924 -4.049661,5.91548 -0.547613,0.006 -5.261629,4.29037 -6.52151,5.92725 -1.016321,1.32045 -1.195421,1.39232 -2.144035,0.86007 -0.547974,-0.30745 -0.539193,-0.59652 0.0745,-2.34445 1.1235,-3.19996 2.330529,-7.89759 3.930455,-15.29993 1.532989,-7.09264 1.745872,-8.69329 1.155627,-8.69329 z m 95.409571,9.80529 c -4.31605,-0.0279 -5.77698,0.38552 -3.86671,1.09437 0.53947,0.2002 1.55314,0.2809 2.25247,0.17921 0.69934,-0.10167 3.1788,-0.30079 5.50993,-0.44215 3.76403,-0.22825 4.02493,-0.28746 2.33112,-0.53029 -1.04901,-0.1504 -3.85117,-0.28579 -6.22681,-0.30114 z m 2.59933,2.60447 c -3.44075,0 -5.23057,0.13296 -5.06125,0.37605 0.15098,0.21673 2.40598,0.37605 5.32284,0.37605 3.09149,0 5.06125,-0.14634 5.06125,-0.37605 0,-0.23074 -2.05672,-0.37605 -5.32284,-0.37605 z m -68.194393,2.00805 c -0.04679,-0.0182 -0.104053,-0.009 -0.170528,0.0272 -0.199726,0.10953 -0.705215,1.97 -1.123342,4.13439 l -0.759933,3.93534 -1.973505,-0.20787 -1.973506,-0.20712 -0.533111,1.45354 c -0.293289,0.79968 -0.628148,1.7081 -0.744204,2.01834 -0.212725,0.56868 0.668341,-0.29619 1.683768,-1.65257 0.518794,-0.69299 0.625021,-0.69433 3.885755,-0.0507 1.843684,0.36393 3.794366,0.91874 4.335258,1.23319 0.540897,0.31444 1.08342,0.48271 1.206122,0.37385 0.293526,-0.26044 -1.793548,-1.52456 -3.533933,-2.14028 -1.60112,-0.56645 -1.657012,-0.91776 -0.749172,-4.72049 0.623592,-2.61209 0.777888,-4.06882 0.450331,-4.19681 z m 60.198553,0.47301 c -0.47386,-0.082 -0.71609,0.35426 -0.41474,1.05104 0.19944,0.46112 0.92392,0.59315 3.28559,0.59713 1.66663,0.003 4.65181,0.24278 6.63326,0.53324 1.98146,0.29045 3.65033,0.54435 3.70861,0.56481 0.0583,0.0205 0.10596,-0.21638 0.10596,-0.52662 0,-0.40654 -0.46953,-0.56408 -1.68046,-0.56408 -3.50161,0 -10.41655,-0.86671 -11.09849,-1.3911 -0.19773,-0.15207 -0.38178,-0.23709 -0.53973,-0.26442 z m -37.524756,1.73852 c -0.427803,0.005 -0.530682,0.54225 -0.884936,2.59344 -0.227983,1.32007 -0.805559,3.3783 -1.283935,4.5736 -0.478371,1.19529 -0.897955,2.50225 -0.932118,2.90486 -0.07369,0.86794 -1.795781,1.4864 -4.290555,1.5402 -0.955942,0.0207 -2.215226,0.173 -2.798006,0.33859 -1.372416,0.38998 3.021786,0.42434 6.386577,0.05 2.494108,-0.27752 5.937005,-1.99495 8.02399,-4.00291 0.58278,-0.56073 2.170599,-1.69279 3.528969,-2.5156 1.35836,-0.82281 2.38677,-1.57014 2.28476,-1.66065 -0.3944,-0.34993 -5.62056,2.33801 -7.263229,3.73556 -0.95097,0.80906 -2.349168,1.89471 -3.106783,2.41276 l -1.37748,0.94233 v -0.98126 c 0,-0.53969 0.665904,-2.54832 1.48013,-4.46343 1.650527,-3.88212 1.814108,-4.98236 0.79056,-5.33085 -0.236105,-0.0804 -0.415347,-0.13823 -0.557944,-0.1366 z m -30.145633,1.09143 c -0.147243,-0.005 -0.31474,0.0183 -0.467717,0.0727 -0.33811,0.12004 -0.237957,0.20963 0.255796,0.22769 0.446796,0.0163 0.697128,-0.0726 0.55629,-0.19757 -0.07042,-0.0625 -0.197132,-0.0974 -0.344369,-0.10283 z m 68.558629,0.0991 c -1.0033,0.0975 -1.05999,0.51598 0.2144,0.93425 1.30648,0.42881 9.673,0.49925 9.673,0.0815 0,-0.18988 -1.47814,-0.44777 -3.28477,-0.57362 -1.80662,-0.12584 -4.19071,-0.31511 -5.298,-0.42085 -0.53071,-0.0507 -0.9702,-0.0539 -1.30463,-0.0213 z m 11.0629,0.62944 c -0.21517,0 -0.32782,0.11771 -0.32782,0.35329 0,0.20682 0.42913,0.37334 0.95364,0.37018 0.77115,-0.005 0.83198,-0.0754 0.31788,-0.37018 -0.41086,-0.23558 -0.72854,-0.35329 -0.9437,-0.35329 z m -36.45275,0.92104 c -0.13605,-0.0154 -0.23111,-0.007 -0.27069,0.0308 -0.14665,0.1412 -0.0758,0.3189 0.15729,0.39516 0.23311,0.0763 0.99601,0.46342 1.69536,0.8608 1.35535,0.77016 2.33111,0.96986 2.33111,0.47668 0,-0.38159 -2.96074,-1.65522 -3.91307,-1.76349 z m -33.183702,0.18435 c -0.343684,0 -0.625,0.16923 -0.625,0.37606 0,0.20682 0.190729,0.37605 0.423841,0.37605 0.233112,0 0.42384,0.23795 0.42384,0.52883 0,0.33754 -0.296006,0.45986 -0.818706,0.33859 -0.658458,-0.15278 -0.774323,-0.0378 -0.590232,0.58685 0.125932,0.42726 0.550034,0.8672 0.942053,0.97759 0.848053,0.23881 3.433766,4.09674 3.433766,5.12299 0,0.40901 0.293438,0.71831 0.681289,0.71831 0.484513,0 0.591131,-0.18994 0.370034,-0.65808 -0.170947,-0.36195 -0.765637,-1.8966 -1.32119,-3.41019 -1.293806,-3.52496 -2.136981,-4.957 -2.919695,-4.957 z m 48.965122,0.8564 c -3.93302,-0.0126 -7.56697,0.23042 -8.38988,0.62284 -0.30162,0.14384 2.75003,0.26325 6.78145,0.26588 8.21889,0.005 9.34358,0.23788 10.22597,2.11163 0.50383,1.0699 2.43226,3.60346 6.00413,7.8883 0.81368,0.97611 1.48343,1.32883 1.48343,0.78075 0,-0.22323 -1.92195,-3.29853 -4.06787,-6.50895 -0.34562,-0.51707 -1.12513,-1.8071 -1.73261,-2.86667 l -1.1043,-1.92654 -5.26075,-0.26587 c -1.28429,-0.0649 -2.62855,-0.0972 -3.93957,-0.10137 z m -40.982524,1.02387 c -0.664641,0 -0.735673,1.62984 -0.115891,2.65734 0.662229,1.09788 1.576906,0.87342 1.908934,-0.46786 0.228488,-0.923 0.121476,-1.30783 -0.471027,-1.69224 -0.421801,-0.27365 -1.016902,-0.49724 -1.322016,-0.49724 z m 55.772234,0.0419 c -0.69139,-3.8e-4 -1.39978,0.0184 -1.95695,0.0573 -1.11431,0.0777 -0.3091,0.1421 1.78891,0.14323 2.098,0.001 3.00935,-0.0622 2.02566,-0.14102 -0.49185,-0.0395 -1.16623,-0.0591 -1.85762,-0.0594 z m 5.92217,0.003 c -0.30728,-0.001 -0.6296,0.0204 -0.89321,0.0654 -0.52721,0.09 -0.19569,0.16696 0.73676,0.17113 0.93243,0.004 1.36384,-0.0697 0.95861,-0.1638 -0.20262,-0.047 -0.49487,-0.0713 -0.80216,-0.0727 z m -86.652133,0.20272 c -0.887911,-0.003 -2.030682,0.008 -3.503306,0.0279 -6.537778,0.0882 -10.071285,0.55772 -9.573655,1.27212 0.147169,0.21127 0.550539,0.28791 0.895694,0.1704 0.345154,-0.11784 3.96306,-0.2138 8.040547,-0.2138 6.832491,0 7.402433,-0.0516 7.270678,-0.65809 -0.0973,-0.4479 -0.466228,-0.58925 -3.129958,-0.5986 z m 78.369873,1.42563 c -0.29918,7.4e-4 -0.48708,0.0168 -0.52732,0.0522 -0.43194,0.37947 0.63675,0.73232 2.85843,0.94381 3.73575,0.35561 7.27814,0.37094 7.27814,0.0315 0,-0.27454 -7.51496,-1.0319 -9.60925,-1.02753 z m -22.33937,2.15348 c 0.76211,-0.0536 1.50808,0.31395 3.14735,1.24054 1.27131,0.71861 2.69271,1.31606 3.15894,1.32794 0.92196,0.0235 2.61391,1.00065 2.26655,1.30884 -0.7746,0.68726 -19.51103,0.27557 -20.32364,-0.44656 -0.7104,-0.63132 0.64655,-1.09439 5.20529,-1.77377 2.02309,-0.3015 4.25504,-0.81232 4.95943,-1.13551 0.66571,-0.30544 1.12882,-0.48929 1.58608,-0.52148 z m -44.088475,0.38267 c -0.185785,-0.0398 -0.512075,-0.0257 -0.995858,0.0698 -0.641059,0.12644 -2.214566,0.41564 -3.496682,0.64266 -2.268186,0.40164 -3.390722,0.88956 -3.390722,1.4741 0,0.82064 2.551294,1.70438 5.509923,1.90891 5.172321,0.35756 6.781442,0.36362 6.781442,0.0243 0,-0.1763 -1.853185,-0.43676 -4.118369,-0.57803 -4.817258,-0.30045 -6.146765,-0.54579 -5.939557,-1.09732 0.155524,-0.41398 0.914133,-0.67511 4.018204,-1.38303 1.484936,-0.33864 2.188982,-0.9419 1.631619,-1.06132 z m -31.691161,1.6467 c 0.07641,0.0515 -0.587855,0.53174 -1.47599,1.0672 -1.448087,0.87306 -1.987641,0.96843 -5.225155,0.9225 -1.985618,-0.0285 -4.086912,-0.12691 -4.669692,-0.21967 -1.25467,-0.19972 -2.163734,-0.84343 -1.249998,-0.88506 0.338013,-0.0154 3.284431,-0.2418 6.548,-0.50311 3.263569,-0.26131 5.996428,-0.43343 6.072835,-0.38193 z m 102.265516,0.19022 c -2.02248,0.0393 -1.18479,0.31138 2.13493,0.69336 1.48063,0.17036 2.83509,0.33148 3.00993,0.35769 0.17483,0.0262 0.31788,-0.0982 0.31788,-0.2769 0,-0.36909 -3.17015,-0.81863 -5.46274,-0.77415 z m -60.994905,1.55417 c -0.05752,0.062 0.135976,0.20486 0.53311,0.48108 0.875295,0.6088 1.514356,0.60651 1.638245,-0.006 0.04077,-0.20166 -0.497682,-0.41295 -1.197018,-0.46934 -0.607995,-0.0491 -0.916805,-0.0679 -0.974337,-0.006 z m 61.795395,0.34953 c -1.20219,1e-5 -1.32273,0.0613 -0.63575,0.32317 0.46622,0.17776 1.51522,0.32317 2.33112,0.32318 1.2022,-1e-5 1.32273,-0.0613 0.63576,-0.32318 -0.46622,-0.17775 -1.51524,-0.32316 -2.33113,-0.32317 z m -56.07852,0.70731 c -1.048296,0 -1.946655,0.1225 -1.775657,0.36798 0.144071,0.20683 1.347197,0.37334 2.673834,0.37018 1.713704,-0.004 2.228179,-0.1112 1.776488,-0.37018 -0.42813,-0.24548 -1.626364,-0.36798 -2.674665,-0.36798 z m 6.841875,0.0279 c -0.526499,0 -1.241,0.11318 -1.836089,0.34007 -0.683171,0.26046 -0.543897,0.32831 0.716887,0.34961 0.860413,0.0145 1.682083,-0.14278 1.826154,-0.34961 0.158041,-0.22689 -0.180454,-0.34007 -0.706952,-0.34007 z m 48.600895,1.4954 2.54304,0.47521 c 1.39867,0.26135 2.62223,0.42486 2.71936,0.36283 0.51102,-0.32636 -0.6605,-0.62751 -2.82615,-0.7264 z m -120.351577,0.79103 c 0.793183,0.049 2.094562,0.66015 3.22516,1.57913 0.829335,0.67412 2.392985,1.72168 3.475158,2.32831 1.082173,0.60662 1.968122,1.2301 1.968538,1.38522 4.17e-4,0.15513 0.334603,0.28491 0.742549,0.28791 0.578022,0.004 0.614703,0.0771 0.16639,0.32906 -0.316402,0.17787 -1.43098,0.33833 -2.476816,0.35695 -1.461214,0.026 -1.848771,-0.0873 -1.674665,-0.4899 0.214851,-0.49676 -3.635623,-3.97062 -5.489228,-4.95258 -0.442235,-0.23428 -0.682921,-0.53873 -0.535595,-0.67646 0.126233,-0.11803 0.334115,-0.16397 0.598509,-0.14764 z m 87.158757,0.0323 c -0.60024,0.026 -0.92632,0.0986 -0.92632,0.2152 0,0.50178 2.10183,0.74633 8.90065,1.03414 4.60025,0.19476 5.888,0.37234 6.56952,0.90636 0.46622,0.36531 2.08741,1.27167 3.60264,2.01393 3.15383,1.54499 2.96688,1.48052 2.96688,1.0246 0,-0.19166 -1.00132,-0.76491 -2.22516,-1.27359 -4.49499,-1.86828 -4.91925,-2.83974 -0.97765,-2.23721 1.2955,0.19802 2.35531,0.25886 2.35513,0.13514 -1.9e-4,-0.12373 2.67,-0.18868 5.93377,-0.14469 3.58257,0.0483 5.93375,-0.0635 5.93375,-0.28205 0,-0.21624 -2.6879,-0.36577 -6.67547,-0.37164 -5.95296,-0.009 -11.61395,-0.2454 -22.88738,-0.95629 -1.09573,-0.0691 -1.97012,-0.09 -2.57036,-0.0639 z m -77.479141,0.29014 c 0.779036,0.021 1.682303,0.18252 2.180459,0.47006 0.459815,0.26543 1.599004,0.7146 2.531453,0.99816 1.592839,0.48439 5.787691,2.96616 6.330284,3.74511 0.14332,0.20575 -0.812296,0.35879 -2.283108,0.36504 -2.329536,0.0101 -2.729825,-0.11966 -5.043035,-1.63055 -1.381953,-0.90263 -2.64792,-1.8351 -2.812908,-2.07196 -0.16499,-0.23686 -0.75857,-0.58519 -1.318706,-0.77414 -0.560137,-0.18895 -1.01821,-0.51665 -1.01821,-0.72861 0,-0.27414 0.654737,-0.39407 1.433771,-0.37311 z m -13.855932,7.6e-4 c 1.553855,0.0103 2.340257,0.24137 3.309596,0.97097 0.699337,0.52639 2.194626,1.61982 3.322842,2.43039 1.998481,1.43584 2.020308,1.47366 0.84768,1.45648 -0.661992,-0.0101 -1.775825,-0.41354 -2.475161,-0.89754 -0.699336,-0.48401 -2.464812,-1.42421 -3.923005,-2.08959 -1.458193,-0.66538 -2.756685,-1.36152 -2.885756,-1.54682 -0.12907,-0.18528 0.682764,-0.33135 1.803804,-0.32389 z m 27.137362,0.12559 c 1.344333,0.0143 2.053119,0.16986 2.662247,0.52955 1.680658,0.99245 3.390866,1.83231 6.446176,3.16635 1.56417,0.68295 2.851598,1.3701 2.860922,1.52624 0.01585,0.26511 -4.288903,0.24751 -7.582764,-0.0308 -1.044711,-0.0883 -2.034435,-0.61621 -3.513238,-1.87365 -2.171261,-1.84625 -3.310675,-2.56423 -3.276484,-2.06463 0.01131,0.1654 1.07339,1.06192 2.360095,1.99264 1.968436,1.42387 2.19891,1.71144 1.45364,1.81344 -0.533792,0.073 -1.971204,-0.56616 -3.617543,-1.60851 -1.502516,-0.95129 -3.548767,-2.05162 -4.547176,-2.44508 l -1.815393,-0.71542 1.907281,-0.0661 c 1.049003,-0.0366 3.337741,-0.1242 5.086082,-0.1939 0.609127,-0.0243 1.128044,-0.0349 1.576155,-0.0301 z m 12.430441,0.17619 c 0.647111,-0.0101 1.516793,0.009 2.451979,0.061 3.130221,0.17308 3.596839,0.30956 5.868364,1.71795 1.357288,0.84154 3.516716,1.98896 4.798833,2.54937 l 2.331121,1.01873 -4.512406,-0.0639 c -4.414236,-0.0625 -4.550513,-0.091 -6.271513,-1.29929 -0.967618,-0.67938 -2.703214,-1.77215 -3.856779,-2.42892 -1.153567,-0.65678 -2.021253,-1.30404 -1.927978,-1.43812 0.04664,-0.067 0.471263,-0.10668 1.118379,-0.11678 z m -30.04216,0.061 c 0.530518,0 3.812103,2.2206 4.296349,2.90706 0.187335,0.26557 1.100789,0.82628 2.028969,1.24642 0.928181,0.42013 1.573976,0.92705 1.435427,1.12595 -0.317907,0.45639 -0.927298,0.46569 -1.238407,0.0191 -0.131188,-0.18834 -1.866221,-1.29416 -3.855952,-2.45682 -3.181447,-1.85907 -4.103445,-2.84171 -2.666386,-2.84171 z m 39.275582,0 c 1.125791,0 1.876133,0.19138 2.015724,0.51413 0.122308,0.2828 1.356111,1.24304 2.741717,2.13367 1.385605,0.89062 2.519034,1.75923 2.519034,1.9302 0,0.54914 -0.563389,0.32218 -4.450321,-1.79066 -4.893574,-2.66002 -5.022511,-2.78734 -2.826154,-2.78734 z m 5.475155,0.0176 c 2.178128,-0.0125 3.077169,0.11925 3.08857,0.45244 0.0088,0.25854 0.724076,0.93115 1.589401,1.49466 0.865325,0.56353 2.078457,1.38703 2.695357,1.83033 0.616898,0.4433 1.364706,0.7341 1.661424,0.64634 0.296721,-0.0878 -0.85998,-1.08048 -2.569532,-2.20638 l -3.107609,-2.04699 2.035591,-0.11678 c 1.815176,-0.10409 2.195521,0.0183 3.498338,1.12816 0.80383,0.6847 2.016521,1.86175 2.695357,2.61547 1.21899,1.35351 1.222596,1.371 0.280629,1.41021 -0.524562,0.0219 -2.443528,0.11309 -4.264892,0.20271 l -3.312079,0.16305 -2.211916,-1.76128 c -1.216832,-0.9686 -2.873958,-2.21873 -3.682111,-2.77779 l -1.46937,-1.01653 z m 19.727608,0.058 c 0.289529,-0.022 0.706902,0.003 1.252482,0.075 0.990726,0.12993 3.375035,0.25018 5.298002,0.26662 1.922963,0.0164 3.602914,0.1828 3.733435,0.37018 0.130526,0.18738 0.559446,0.34294 0.953636,0.3452 0.86672,0.005 6.11832,3.19716 5.93377,3.60703 -0.0718,0.15941 -2.80099,0.30071 -6.06456,0.31361 l -5.933761,0.0235 -1.483441,-1.25742 c -0.815892,-0.69164 -2.103307,-1.68493 -2.860921,-2.20712 -1.415957,-0.97592 -1.697222,-1.47072 -0.828642,-1.53652 z m 50.705185,0.53177 c -0.54857,-0.0441 -0.43437,0.30123 0.26656,1.18912 0.53051,0.672 1.07035,0.83584 2.75497,0.83584 1.5508,0 2.09519,-0.14228 2.09519,-0.54719 0,-0.34339 -0.59168,-0.62662 -1.5894,-0.76092 -0.87417,-0.11768 -2.11391,-0.36468 -2.75496,-0.54866 -0.33295,-0.0955 -0.5895,-0.15348 -0.77236,-0.16819 z m -55.964279,0.14469 c -0.461931,0 2.037485,2.72537 3.362575,3.66651 0.726686,0.51614 1.34768,0.61432 1.34768,0.213 0,-0.42295 -4.19673,-3.87951 -4.710255,-3.87951 z m -40.369952,0.38853 c -0.265564,0.007 -0.03211,0.34533 0.518211,0.75211 0.550328,0.40678 1.217874,0.73402 1.483441,0.72714 0.265566,-0.007 0.03212,-0.34534 -0.518211,-0.75211 -0.550327,-0.40678 -1.217875,-0.73402 -1.483441,-0.72714 z m 16.685398,0.0316 c -0.232668,-10e-4 0.04435,0.42054 0.940394,1.26551 0.763608,0.72008 1.7397,1.31234 2.169699,1.31618 0.566376,0.005 0.292894,-0.35609 -0.993377,-1.30958 -1.141838,-0.8464 -1.88405,-1.27074 -2.116716,-1.27211 z m 16.771487,0.34374 c -0.215471,-0.006 0.05598,0.4113 0.603477,0.92837 0.547496,0.51707 1.066335,0.94014 1.153142,0.94014 0.352126,0 -1.394215,-1.85757 -1.756619,-1.86851 z m 49.980866,0.32463 1.04717,0.805 c 0.66405,0.51076 1.10629,0.64694 1.20944,0.37237 0.20263,-0.53933 0.11334,-0.60762 -1.19702,-0.9225 z m -44.503227,0.30629 0.84768,0.90046 c 0.466225,0.49546 1.038409,1.02542 1.271521,1.17738 0.233112,0.15195 0.709932,0.27545 1.059601,0.27395 0.662949,-0.003 -0.673571,-1.11026 -2.331122,-1.93167 z m 47.550397,0.10943 c -0.23311,0 -0.0784,0.33844 0.34354,0.7521 0.42193,0.41366 0.95811,0.75211 1.19123,0.75211 0.23311,0 0.0784,-0.33845 -0.34355,-0.75211 -0.42193,-0.41366 -0.95811,-0.7521 -1.19122,-0.7521 z m 7.86091,0.22769 c -0.0646,0.0101 -0.10015,0.0364 -0.10015,0.0815 0,0.18054 0.42915,0.51151 0.95364,0.73595 1.94732,0.83327 2.23469,0.39837 0.31788,-0.48108 -0.52449,-0.24066 -0.97764,-0.36523 -1.17135,-0.33639 z m -65.535459,0.18435 c -0.226775,0.006 0.01106,0.37584 0.912248,1.10319 0.761294,0.61442 1.619565,1.11014 1.907281,1.10171 0.287728,-0.008 -0.137443,-0.51608 -0.944532,-1.12815 -0.957061,-0.72582 -1.648221,-1.08295 -1.874997,-1.07675 z m -26.107565,0.33712 c -0.03573,0.0143 0.09438,0.16863 0.363414,0.47301 0.319936,0.36195 0.780582,0.65809 1.024002,0.65809 0.243437,0 0.362858,-0.048 0.26573,-0.1065 -0.09713,-0.0585 -0.557782,-0.35466 -1.024005,-0.65809 -0.392053,-0.25515 -0.593393,-0.3808 -0.629141,-0.36651 z m 42.925413,0.14396 c -0.07682,0.03 -0.124173,0.10348 -0.124173,0.213 0,0.21904 0.190728,0.39809 0.423841,0.39809 0.233111,0 0.423839,-0.0748 0.423839,-0.16599 0,-0.0912 -0.190728,-0.27026 -0.423839,-0.39809 -0.116557,-0.0639 -0.222847,-0.0771 -0.299668,-0.0471 z m 44.461001,0.0368 c -0.14347,0.1273 0.30398,0.64089 0.9942,1.14138 1.80967,1.3122 2.36481,1.12707 0.68461,-0.22843 -0.77987,-0.62914 -1.53534,-1.04024 -1.67881,-0.91295 z m -97.402948,0.1983 c -0.349665,0 -0.518242,0.16922 -0.374171,0.37605 0.144071,0.20683 0.547681,0.37605 0.89735,0.37605 0.349666,0 0.518243,-0.16922 0.374171,-0.37605 -0.144071,-0.20683 -0.54768,-0.37605 -0.89735,-0.37605 z m 89.816038,3.14944 c 0.0768,-0.03 0.18311,-0.0169 0.29967,0.047 0.23311,0.12783 0.42384,0.30688 0.42384,0.39808 0,0.0912 -0.19073,0.166 -0.42384,0.166 -0.23311,0 -0.42384,-0.17905 -0.42384,-0.39809 0,-0.10951 0.0473,-0.18294 0.12417,-0.213 z" />
    <g
       aria-label="XIX"
       id="text1417"
       style="font-size:40px;line-height:1.25;font-family:Hultog;-inkscape-font-specification:Hultog"
       transform="matrix(0.4238402,0,0,0.37605318,3.4968264,1.2910551)">
      <path
         d="m 267.73372,63.903717 q -0.51376,2.715596 -1.54129,2.422018 l -3.57186,-1.003058 q -4.30581,0 -4.89297,1.247707 l -1.66361,-1.174312 q 0.95413,-2.079511 2.17737,-2.079511 0.29358,0 0.56269,0.09786 0.24465,-0.220183 0.24465,-0.562691 0,-0.513761 -0.53822,-1.394495 -1.71254,-1.223242 -4.50153,-6.776759 h -0.17126 q -0.51376,-0.02446 -0.75841,0.464832 -2.49541,5.333334 -4.4526,7.168196 l 0.19572,0.880734 q 2.2263,0.293578 2.2263,1.810397 0,0.611621 -0.4159,1.590214 -0.9052,-0.70948 -1.78593,-0.880733 -0.36698,-0.04893 -1.98165,-0.04893 -3.08257,0 -4.526,0.733945 l -1.05199,-0.587156 v -1.932722 l 2.88685,-0.733945 q 0.68502,-0.171254 6.94802,-9.174312 1.2477,-0.391437 1.2477,-1.174312 0,-0.782874 -0.9052,-1.492354 -1.2477,-1.027523 -1.37003,-1.198777 -0.78287,-1.076453 -2.10397,-3.400612 -1.3211,-2.324159 -2.07951,-3.376147 0,0 -1.83487,-1.639143 l -3.27828,-0.733945 0.97859,-2.103976 5.3578,0.685015 3.00917,-0.685015 1.37003,0.464832 v 1.663609 q -1.68807,0.318042 -1.6636,1.37003 v 0.171254 l 4.64831,6.874618 0.75841,-0.195719 q 0.92967,-3.571865 3.47401,-5.993884 v -1.247706 l -1.88379,-0.685015 -0.41591,-1.859328 1.05199,-0.538226 3.91438,0.66055 q 1.6636,-0.587155 2.88685,-0.587155 1.49235,0 1.81039,1.003058 -0.80734,2.152905 -3.18042,2.152905 -1.85933,2.422018 -3.71866,4.844037 -2.78899,3.743119 -3.10703,4.892966 1.54128,1.761468 4.40367,5.333333 0.48929,1.076453 1.61468,3.058104 0.95412,1.003058 2.78899,2.93578 z"
         id="path2687" />
      <path
         d="m 280.9447,64.368549 q -0.4159,2.470948 -1.46789,2.226299 l -4.52599,-1.027522 q 0,0 -3.32722,0.318042 -0.95413,0.660551 -1.66361,0.660551 -1.00305,0 -1.56575,-1.46789 l 1.24771,-1.810398 q 0.58716,0.195719 1.22324,0.195719 2.10398,0 2.10398,-3.400612 0,-0.66055 -0.0979,-1.981651 -0.0979,-1.321101 -0.0979,-1.981651 0,-1.932722 0.0979,-5.82263 0.0979,-3.889909 0.0979,-5.82263 0,-1.663609 -0.97859,-2.617737 -0.66056,0.244648 -1.32111,0.244648 -1.14984,0 -1.93272,-0.929664 0.4159,-2.446483 1.44343,-2.226299 l 4.47706,0.978593 4.25688,-1.027523 1.76147,0.905199 -0.51376,1.761468 q -0.4893,-0.122324 -0.83181,-0.122324 -2.25076,0 -2.25076,3.840978 0,0.391437 0.0245,1.027523 0.0245,0.611621 0.0245,0.831804 0,1.614679 -0.0979,15.437309 l 1.02752,1.100918 q 0.66055,-0.220184 1.19878,-0.220184 1.07645,0 1.68807,0.929664 z"
         id="path2689" />
      <path
         d="m 308.44317,63.903717 q -0.51376,2.715596 -1.54128,2.422018 l -3.57187,-1.003058 q -4.30581,0 -4.89296,1.247707 l -1.66361,-1.174312 q 0.95413,-2.079511 2.17737,-2.079511 0.29358,0 0.56269,0.09786 0.24465,-0.220183 0.24465,-0.562691 0,-0.513761 -0.53823,-1.394495 -1.71254,-1.223242 -4.50153,-6.776759 h -0.17125 q -0.51376,-0.02446 -0.75841,0.464832 -2.49541,5.333334 -4.4526,7.168196 l 0.19572,0.880734 q 2.2263,0.293578 2.2263,1.810397 0,0.611621 -0.4159,1.590214 -0.9052,-0.70948 -1.78594,-0.880733 -0.36697,-0.04893 -1.98165,-0.04893 -3.08257,0 -4.52599,0.733945 l -1.05199,-0.587156 v -1.932722 l 2.88685,-0.733945 q 0.68502,-0.171254 6.94801,-9.174312 1.24771,-0.391437 1.24771,-1.174312 0,-0.782874 -0.9052,-1.492354 -1.24771,-1.027523 -1.37003,-1.198777 -0.78287,-1.076453 -2.10397,-3.400612 -1.32111,-2.324159 -2.07952,-3.376147 0,0 -1.83486,-1.639143 l -3.27829,-0.733945 0.9786,-2.103976 5.3578,0.685015 3.00917,-0.685015 1.37003,0.464832 v 1.663609 q -1.68807,0.318042 -1.66361,1.37003 v 0.171254 l 4.64832,6.874618 0.75841,-0.195719 q 0.92966,-3.571865 3.47401,-5.993884 v -1.247706 l -1.8838,-0.685015 -0.4159,-1.859328 1.05199,-0.538226 3.91437,0.66055 q 1.66361,-0.587155 2.88685,-0.587155 1.49236,0 1.8104,1.003058 -0.80734,2.152905 -3.18043,2.152905 -1.85932,2.422018 -3.71865,4.844037 -2.78899,3.743119 -3.10704,4.892966 1.54129,1.761468 4.40367,5.333333 0.4893,1.076453 1.61468,3.058104 0.95413,1.003058 2.78899,2.93578 z"
         id="path2691" />
    </g>
  </g>
</svg>
