<?xml version="1.0" encoding="UTF-8" standalone="no"?>
<!-- Created with Inkscape (http://www.inkscape.org/) -->

<svg
   version="1.1"
   id="svg2"
   width="4cm"
   height="4cm"
   viewBox="0 0 151.1811 151.1811"
   sodipodi:docname="20.svg"
   inkscape:version="1.1.2 (0a00cf5339, 2022-02-04)"
   xmlns:inkscape="http://www.inkscape.org/namespaces/inkscape"
   xmlns:sodipodi="http://sodipodi.sourceforge.net/DTD/sodipodi-0.dtd"
   xmlns="http://www.w3.org/2000/svg"
   xmlns:svg="http://www.w3.org/2000/svg">
  <defs
     id="defs6" />
  <sodipodi:namedview
     id="namedview4"
     pagecolor="#505050"
     bordercolor="#eeeeee"
     borderopacity="1"
     inkscape:pageshadow="0"
     inkscape:pageopacity="0"
     inkscape:pagecheckerboard="0"
     showgrid="false"
     inkscape:zoom="2.6748635"
     inkscape:cx="121.87538"
     inkscape:cy="134.77323"
     inkscape:window-width="1920"
     inkscape:window-height="1043"
     inkscape:window-x="0"
     inkscape:window-y="0"
     inkscape:window-maximized="1"
     inkscape:current-layer="g8"
     units="cm"
     inkscape:document-units="cm" />
  <!-- Border -->
  <path
     id="border"
     class="board-border"
     style="fill:none;stroke:#000000;stroke-width:0.1cm"
     d="M 0,0 H 151.18111 V 151.18111 H 0 Z" />   
  <g
     inkscape:groupmode="layer"
     inkscape:label="Image"
     id="g8">
    <path
       id="path12"
       style="fill:#000000;stroke-width:0.400463"
       d="m 43.855397,2.9176086 c -2.367967,-0.017507 -4.835587,-0.018687 -7.333936,0.00146 -7.444024,0.060011 -13.900224,0.2405743 -14.201557,0.5007664 -0.921177,0.7954072 5.16914,1.6910023 11.811063,1.7363295 2.310375,0.015771 4.201236,-0.1169838 4.201882,-0.2943549 6.47e-4,-0.1773707 0.437191,-0.2080779 0.970507,-0.068319 0.533316,0.1397592 2.424164,0.3114033 4.201883,0.380844 3.644895,0.1423759 5.02063,0.314487 5.445951,0.6817404 0.0098,0.00841 0.03486,-2.907e-4 0.04629,0.00654 -0.0082,-0.4862998 0.01026,-0.9750314 -0.04461,-1.4397946 0.03042,-0.4425906 -0.0043,-0.3834895 0.182654,-0.8619869 0.02211,-0.056653 0.05569,-0.1103418 0.0968,-0.1584428 0.01953,-0.022821 0.07154,-0.021483 0.0808,-0.048696 0.02254,-0.06615 -0.07232,-0.1974578 0.0067,-0.2071385 8.62e-4,-1.017e-4 0.0017,1.013e-4 0.0026,0 4.1e-4,-0.030776 0.0013,-0.061531 0.0017,-0.092304 0.443783,0.024072 0.795289,0.022977 1.09929,0.018897 0.04616,-0.015489 0.112671,-0.041198 0.166661,-0.060325 -2.098661,-0.043876 -4.366794,-0.077708 -6.734759,-0.095215 z M 6.5123392,3.3129888 c -1.3481589,-0.00793 -2.3258554,0.016451 -2.5478967,0.087216 -0.2962866,0.094428 -0.538703,0.6512839 -0.538703,1.2370167 0,1.001589 0.121827,1.0735334 2.0470713,1.2130321 3.0744851,0.2227708 9.2933352,-0.075473 9.7471572,-0.4673335 0.219357,-0.18941 0.94913,-0.2492056 1.622,-0.1330048 C 17.7452,5.405898 18.138207,5.2967983 18.344444,4.8327314 18.498082,4.4870185 18.452683,4.0674178 18.243438,3.9002446 17.935004,3.6538269 10.556815,3.336784 6.5123392,3.3129888 Z m 56.1008618,0.044335 c 0.191693,0.038735 0.383893,0.075622 0.5749,0.1162883 0.159576,0.033977 0.212128,0.044352 0.350157,0.073407 -0.08462,-0.053182 -0.162197,-0.1087273 -0.236525,-0.1649841 -0.277018,-0.00865 -0.421847,-0.016101 -0.688532,-0.024711 z m 38.623319,0.9869968 c 0.007,0.042085 0.0112,0.085323 0.0143,0.1300976 0.004,-2.674e-4 0.009,-4.763e-4 0.0135,-7.256e-4 0.009,-5.284e-4 0.0146,0.054637 0.0185,0.117015 0.48384,0.5444372 0.86687,1.1412351 1.26175,1.7370564 0.0852,0.1285759 0.16831,0.2557945 0.24915,0.3830243 0.12192,0.079274 0.22054,0.1627943 0.29543,0.2805458 5.66625,-0.010944 12.17591,-0.114709 13.3531,-0.3379629 2.26755,-0.4300381 14.64131,0.1623914 15.30169,0.7326163 0.12424,0.107273 2.86643,0.1178531 6.09324,0.023983 3.22681,-0.093861 6.788,-0.164092 7.91388,-0.1562625 2.03906,0.014178 2.04708,0.00935 2.04708,-1.2355633 V 4.7680458 L 129.37453,4.7048147 C 118.0471,4.6657475 108.5373,4.5306929 101.23652,4.3443207 Z M 22.266875,4.7753142 c -1.006769,0.1162265 -1.847467,0.7161926 -2.517595,1.7973808 -0.434192,0.7005281 0.583723,2.8912185 1.343391,2.8912185 0.681804,0 -0.06256,1.2164535 -1.797079,2.9362785 -0.906334,0.898651 -1.648094,2.001866 -1.648094,2.451502 0,0.75856 0.287511,0.842068 3.986402,1.157069 3.236178,0.275596 3.948498,0.444464 3.783546,0.8976 -0.1747,0.479914 -0.262105,6.503825 -0.445272,30.667404 -0.01848,2.438102 -0.115148,4.54669 -0.214639,4.685692 -0.0995,0.139003 -1.364024,-0.237441 -2.809673,-0.83655 l -2.628702,-1.089478 0.233999,-6.387134 c 0.128487,-3.512993 0.360363,-10.573511 0.515135,-15.690197 0.15477,-5.116684 0.3035,-9.805429 0.330798,-10.419431 0.03923,-0.88257 -0.13085,-1.116367 -0.812264,-1.116367 -0.969648,0 -0.900344,-0.374796 -1.29878,7.047071 -0.14215,2.647915 -0.341685,4.929701 -0.442746,5.070896 -0.31924,0.446016 -0.256663,19.133427 0.06649,19.860588 0.284195,0.639485 0.136983,0.674434 -1.867783,0.444801 -2.301316,-0.263596 -2.706142,-0.01558 -2.706142,1.656381 0,0.508714 0.302442,0.71372 1.052155,0.71372 1.236124,0 1.833352,0.634431 1.151477,1.223208 -0.783058,0.676146 -0.55025,1.996876 0.552171,3.128155 l 1.032795,1.059678 -0.132992,18.784192 c -0.13107,18.512057 0.334938,36.714078 1.014276,39.623778 l 0.347632,1.48849 -6.222861,-0.12864 c -4.4367194,-0.0918 -6.138968,-0.0117 -5.9307828,0.2791 0.1883274,0.26311 2.3479699,0.40773 6.0839758,0.40773 3.185907,0 5.809089,0.12559 5.828935,0.27909 0.01985,0.1535 0.06833,0.94891 0.10774,1.76758 l 0.07155,1.48849 -2.154807,-0.10321 c -4.967097,-0.23764 -11.6740099,-0.94978 -12.1746885,-1.29298 -0.3958828,-0.27136 -0.538703,-0.16144 -0.538703,0.41574 0,0.7184 0.2297065,0.78301 2.6935148,0.75659 1.4814332,-0.0159 3.9540797,0.15852 5.4947697,0.38739 1.54069,0.22888 3.660609,0.46061 4.711126,0.5153 1.050517,0.0547 1.979893,0.28096 2.065589,0.50295 0.19016,0.49259 -1.707328,0.95056 -2.648062,0.63886 -0.374379,-0.12405 -0.680954,-0.0405 -0.680954,0.18606 0,0.22657 0.581799,0.43302 1.292887,0.45861 2.534281,0.0912 2.386985,-0.0434 2.766745,2.52346 l 0.29797,2.01179 -5.097477,-0.23621 c -2.803234,-0.13015 -5.7227082,-0.34462 -6.488003,-0.47679 -0.838979,-0.14488 -1.3913689,-0.0903 -1.3913689,0.1381 0,0.65821 1.2617749,0.84366 7.3903309,1.08439 5.495899,0.21587 5.969502,0.29059 5.969502,0.94557 0,0.53167 -0.208695,0.6546 -0.825731,0.48549 -0.454111,-0.12444 -0.950206,-0.0523 -1.102657,0.16063 -0.168418,0.2353 0.228377,0.38739 1.011751,0.38739 1.257332,0 2.169544,1.01291 1.612743,1.79083 -0.121674,0.17 0.15675,0.58881 0.618666,0.93031 1.068397,0.78989 1.125748,1.86462 0.08586,1.61059 -0.414801,-0.10132 -1.820816,-0.2872 -3.124477,-0.41282 -1.909373,-0.184 -2.212125,-0.14431 -1.557189,0.20569 0.447172,0.23896 2.020099,0.51841 3.495678,0.62068 l 2.683413,0.18607 0.941048,1.67236 c 0.517644,0.92001 0.831791,1.76671 0.69863,1.8817 -0.362634,0.31311 -11.443061,-0.64976 -12.36155,-1.07421 -1.012826,-0.46805 -1.033366,0.0746 -0.04125,1.1011 0.657423,0.68022 1.307107,0.79519 5.063808,0.89396 2.370294,0.0624 5.410982,0.14832 6.757355,0.19116 l 2.448572,0.0777 -0.345107,-1.02334 c -0.189418,-0.56284 -1.044196,-2.11878 -1.899769,-3.45812 -1.977509,-3.09564 -3.803556,-7.23401 -3.934215,-8.91495 -0.05568,-0.71634 -0.241422,-4.73525 -0.412445,-8.93094 -0.358895,-8.80473 -0.477012,-11.07587 -0.917478,-17.58279 -0.289571,-4.277771 -0.251406,-4.744563 0.391401,-4.744563 0.897636,0 0.93381,-0.694596 0.05135,-0.986995 -0.572414,-0.189663 -0.630727,-1.093939 -0.431804,-6.699661 0.126482,-3.564312 0.255442,-11.623645 0.287027,-17.909852 l 0.05808,-11.429684 2.664897,1.107646 2.665737,1.106919 -0.07912,2.957359 c -0.08294,3.09511 0.344636,5.34273 0.821522,4.317201 0.142761,-0.307001 0.312028,-1.767195 0.376251,-3.244443 0.09336,-2.147556 0.234091,-2.623077 0.700313,-2.373007 0.461516,0.247547 0.591828,2.146369 0.624559,9.105373 0.03342,7.106499 0.152748,8.79212 0.622034,8.79212 0.472894,0 0.568144,-1.708637 0.516818,-9.210032 -0.03466,-5.065518 0.102381,-9.146988 0.303862,-9.069761 0.201481,0.07723 0.560082,0.177376 0.797112,0.222403 0.679225,0.129022 6.878345,1.811589 7.0427,1.911488 0.23703,0.144079 -2.113724,6.995224 -2.526012,7.361776 -0.628254,0.558563 -0.977693,-1.535798 -0.467157,-2.800368 0.56814,-1.407267 0.570851,-1.439794 0.130467,-1.439794 -0.189797,0 -0.764441,0.744885 -1.276894,1.655655 l -0.931787,1.656381 1.492374,1.542273 c 0.820766,0.848265 1.492377,1.658852 1.492377,1.801017 0,0.142162 1.061398,0.661764 2.358508,1.154886 1.762859,0.670186 2.356287,1.089407 2.34925,1.660016 -0.0051,0.419851 0.227202,2.270238 0.516818,4.112245 0.289617,1.842006 0.503791,4.934516 0.476416,6.871913 -0.04715,3.336851 0.36103,4.736386 1.243225,4.265599 0.210172,-0.112158 0.382143,-1.451594 0.382143,-2.976255 0,-2.665409 0.03253,-2.753856 0.849298,-2.313411 0.714043,0.385046 1.229532,0.296839 3.231377,-0.550913 1.309832,-0.554704 3.139341,-1.112773 4.065521,-1.240653 1.472173,-0.203267 1.751147,-0.122458 2.22215,0.646128 0.296322,0.483536 1.312832,1.632978 2.258347,2.553981 2.251493,2.193137 3.855316,5.285546 5.642913,10.880216 2.506107,7.843437 4.204822,13.035867 5.044449,15.418377 0.445119,1.26305 1.085935,3.69116 1.424193,5.39578 0.991536,4.99675 1.416745,6.08582 2.793683,7.15682 0.501261,0.38989 0.93272,0.64107 0.958723,0.55818 0.02599,-0.0829 0.106853,-0.65281 0.179285,-1.26682 0.07244,-0.61399 0.437086,-3.29328 0.81058,-5.95395 0.373493,-2.66068 0.680481,-6.88892 0.682635,-9.3961 0.0034,-3.80241 0.11143,-4.5585 0.650655,-4.5585 0.383366,0 0.646034,-0.34074 0.645603,-0.83727 -8.62e-4,-0.66019 -0.256302,-0.84458 -1.207875,-0.87289 l -1.207031,-0.0363 -0.106056,6.35807 c -0.05825,3.49674 -0.285568,7.95016 -0.505036,9.89685 -0.219467,1.94671 -0.403799,3.66512 -0.409919,3.81862 -0.0061,0.1535 -0.220182,0.27909 -0.475571,0.27909 -0.315874,0 -0.419223,-1.60674 -0.323221,-5.02438 0.07761,-2.7633 -0.0039,-5.02394 -0.181815,-5.02365 -0.177772,2.9e-4 -0.344696,0.46123 -0.3712,1.02406 -0.07631,1.62099 -0.367987,3.55347 -0.561428,3.7205 -0.09745,0.0841 -0.395714,-0.82308 -0.662437,-2.01614 -0.73258,-3.27692 -2.112983,-8.00676 -3.499888,-11.99224 -0.710214,-2.04091 -1.062357,-3.62712 -0.821523,-3.69796 0.603318,-0.17747 0.521267,-2.154897 -0.228948,-5.517886 -0.357863,-1.604145 -0.846587,-5.344754 -1.085823,-8.312431 -0.4105,-5.092263 -0.674404,-7.55334 -1.715432,-16.00127 -0.239599,-1.94434 -0.703529,-4.37244 -1.031108,-5.395776 -0.327579,-1.023337 -0.718708,-2.614161 -0.869501,-3.535165 -0.373572,-2.28162 -1.496594,-5.189218 -2.465407,-6.383501 -0.440736,-0.543173 -0.801323,-1.146762 -0.801323,-1.340932 0,-0.194167 1.793881,-0.461786 3.986402,-0.595252 2.192522,-0.133462 5.053034,-0.354364 6.356695,-0.490591 1.303662,-0.136226 3.194509,-0.256671 4.201884,-0.267463 1.007374,-0.01079 1.833645,-0.191111 1.8358,-0.401196 0.0072,-0.648048 2.089891,-4.289364 2.45362,-4.289584 0.188683,-1.15e-4 0.220441,2.051211 0.06987,4.558501 -0.175479,2.921892 -0.114709,4.728473 0.169187,5.032377 0.603688,0.646229 0.286582,0.833153 -1.670819,0.984816 -1.2101,0.09375 -1.6623,0.296123 -1.636313,0.731164 0.133043,2.227265 0.24227,2.506048 1.090874,2.77711 1.660273,0.530319 2.030703,2.486307 1.81139,9.558168 -0.139334,4.492921 -0.05825,6.49979 0.261775,6.49979 0.579671,0 0.519423,0.589282 0.717993,-7.070329 0.15425,-5.950205 0.234542,-6.504579 0.926736,-6.426381 2.725265,0.30788 6.5995,1.095034 6.917283,1.405634 0.218713,0.21377 -0.129991,4.67729 -0.828258,10.602586 -0.663276,5.628353 -1.298749,11.238101 -1.41157,12.466105 -0.288198,3.136747 -3.158545,12.921536 -4.775938,16.280366 -0.209672,0.43541 -0.117743,0.65121 0.277768,0.65121 1.122304,0 5.800681,-14.437906 5.388715,-16.629953 -0.127349,-0.677612 -0.06366,-1.23193 0.141408,-1.23193 0.205073,0 0.494606,-0.962867 0.643077,-2.139704 0.148471,-1.176838 0.536199,-3.395618 0.861925,-4.930624 0.325721,-1.535006 0.712256,-5.464065 0.858559,-8.73107 0.146299,-3.267005 0.329014,-5.993849 0.405712,-6.060074 0.0767,-0.06623 1.359354,0.01135 2.850915,0.172251 l 2.712034,0.292176 -0.0808,2.976979 c -0.04435,1.63734 -0.192377,3.675619 -0.329113,4.529432 -0.235361,1.469638 -0.171419,1.58673 1.196089,2.202206 1.767536,0.795513 4.41848,1.343552 6.292723,1.300978 1.095885,-0.0249 1.400627,0.120619 1.400627,0.667204 0,0.910663 1.148067,3.272918 1.745734,3.591853 0.900344,0.480485 0.903834,-0.152841 0.0093,-1.899135 -0.496741,-0.969639 -0.840959,-1.816933 -0.764286,-1.88314 0.07668,-0.0662 1.633391,-0.312149 3.45864,-0.546556 3.05289,-0.392064 3.34009,-0.504288 3.58827,-1.403456 0.14837,-0.537594 0.44382,-1.169097 0.65654,-1.403453 0.21272,-0.234355 0.56067,-1.3505 0.77355,-2.479846 0.21287,-1.129348 0.89977,-3.158815 1.52604,-4.510535 1.24608,-2.689438 1.20642,-3.474958 -0.32659,-6.4838 -0.99091,-1.944875 -3.75317,-5.595056 -4.80372,-6.347886 -0.38049,-0.272649 -0.6919,-0.746581 -0.6919,-1.053136 0,-1.103153 -2.44486,-3.986876 -6.46443,-7.624151 -5.399821,-4.886259 -6.299576,-6.151178 -6.611739,-9.295066 -0.246119,-2.478763 -0.242132,-2.491237 0.595943,-1.767584 0.644405,0.556423 1.43036,0.727518 3.32228,0.723168 1.362918,-0.0031 2.768934,-0.167909 3.124478,-0.366308 0.453377,-0.25299 -0.206341,-0.362312 -2.209523,-0.366308 -3.262747,-0.0065 -4.024344,-0.456442 -3.570592,-2.109906 0.306207,-1.115817 1.764713,-2.733501 2.464566,-2.733501 0.532191,0 1.932302,1.387991 2.721291,2.697888 0.339011,0.562835 0.917863,1.023337 1.286154,1.023337 0.658149,0 0.627516,-0.824745 -0.114475,-3.091089 -0.272321,-0.831787 -1.842356,-1.374382 -3.977982,-1.374382 -1.825337,0 -3.289488,1.055571 -3.61352,2.604858 -0.107012,0.511668 -0.198545,-0.158152 -0.202854,-1.48849 -0.0043,-1.330338 0.116049,-2.915872 0.266826,-3.523536 l 0.274402,-1.104738 5.599986,0.106839 c 3.080325,0.05905 7.928019,0.283643 10.772379,0.498587 4.22531,0.319301 7.41922,0.471174 14.00627,0.667204 0.11852,0.0035 0.16157,1.220631 0.096,2.704429 -0.0657,1.483798 -0.16652,6.664882 -0.22475,11.513267 -0.0582,4.848388 -0.23082,8.922393 -0.38297,9.053771 -0.15216,0.131382 -0.66766,0.05772 -1.14643,-0.163529 -1.5398,-0.711562 -4.13095,-0.490766 -5.11263,0.435354 -1.43683,1.355493 -1.55028,2.28101 -0.46127,3.767014 1.14774,1.566145 2.51208,1.999601 4.41906,1.404179 0.75139,-0.234613 1.90797,-0.426631 2.57062,-0.426631 1.05938,0 1.16487,0.10106 0.87623,0.837275 -0.18054,0.460502 -0.31218,1.507096 -0.29292,2.325767 0.36611,15.572007 0.58185,21.945971 0.74829,22.089688 0.24154,0.208564 0.36827,-17.495468 0.16329,-22.833934 -0.0785,-2.046674 -0.10126,-4.725956 -0.0505,-5.95396 0.30919,-7.478885 0.32782,-31.444354 0.0244,-31.444354 -0.41853,0 -0.39611,-0.114436 -0.53618,2.70661 -0.0587,1.181455 -0.315,2.328119 -0.56984,2.548167 -0.33049,0.285366 -4.09062,0.281788 -13.11321,-0.01235 -14.6745,-0.478414 -17.176879,-0.663738 -17.16779,-1.268996 0.0172,-1.142022 0.639471,-1.29425 4.087411,-1.002259 4.606362,0.390094 23.014119,0.418384 22.194559,0.03416 -1.10649,-0.518756 -4.61146,-0.751987 -14.65271,-0.975368 -5.333114,-0.118645 -9.959336,-0.290883 -10.280765,-0.3823 -0.393188,-0.111827 -0.493973,-0.477521 -0.30807,-1.117094 0.436893,-1.503056 -1.444891,-3.115502 -4.864319,-4.169662 -4.295867,-1.324353 -6.883719,-1.518157 -13.619083,-1.017523 -6.49512,0.482777 -9.708151,1.413978 -11.192399,3.243717 -0.895346,1.103761 -0.843113,2.879695 0.117003,3.957436 l 0.775223,0.869254 3.632879,-0.927398 c 1.998166,-0.510064 4.947314,-1.020693 6.553658,-1.135265 2.525443,-0.180125 3.384731,-0.06098 6.349963,0.883064 1.886077,0.600473 4.244173,1.431852 5.240571,1.847531 0.996385,0.415679 2.096602,0.755873 2.444363,0.755873 1.256868,0 -0.838149,-1.436221 -4.188416,-2.871594 -3.154812,-1.351631 -3.488636,-1.412687 -8.359152,-1.532098 -4.260357,-0.104451 -5.500205,-8.6e-5 -7.733758,0.651215 -3.368014,0.982106 -3.785228,0.971918 -3.785228,-0.09013 0,-1.477633 2.673237,-3.137186 6.664763,-4.138409 3.040422,-0.762651 8.043159,-0.864958 11.651136,-0.238391 3.946267,0.685314 3.803015,0.570912 2.814724,2.243637 -0.933736,1.580597 -1.125312,2.626659 -0.479765,2.626659 0.533998,0 2.190164,-2.354323 2.190164,-3.113618 0,-0.777656 1.216016,-0.782436 2.206157,-0.0087 0.717267,0.560493 0.722551,0.696452 0.07408,2.139705 -0.380862,0.847649 -0.886833,1.757454 -1.123703,2.021962 -0.291323,0.325314 -0.272028,0.61765 0.05892,0.903415 0.365034,0.315196 0.715954,-0.01971 1.38127,-1.318419 0.622878,-1.215859 1.145131,-1.740689 1.73311,-1.740689 0.462966,0 0.841722,0.07889 0.841722,0.175159 0,0.430805 -2.198469,4.270041 -2.553788,4.459657 -0.218029,0.116351 -0.523685,0.71185 -0.679271,1.323506 -0.354043,1.391871 -0.608768,1.388541 -2.180066,-0.02762 -2.943042,-2.652469 -8.560111,-3.570046 -14.687228,-2.399173 -1.862718,0.355958 -3.954933,0.898915 -4.648838,1.206491 -1.144576,0.507335 -1.311074,0.500428 -1.794557,-0.0705 -0.293115,-0.346129 -1.082806,-0.694443 -1.754991,-0.77477 -0.672181,-0.08033 -2.773648,-0.344392 -4.669883,-0.586529 -2.900722,-0.370403 -10.620028,-0.583967 -24.672595,-0.682467 -2.09721,-0.0147 -2.693515,-0.14247 -2.693515,-0.577081 0,-0.479869 1.284893,-0.55301 9.15795,-0.519663 5.036873,0.02133 11.728046,0.146925 14.869042,0.279092 4.066639,0.171117 5.710682,0.12134 5.710252,-0.172979 -0.0012,-0.760699 -11.603976,-1.447062 -24.45795,-1.447062 h -6.572176 c 0.05888,0 1.37595,-5.823411 1.429246,-6.319542 0.04359,-0.405846 -0.114811,-0.755058 -0.35184,-0.776225 -1.180857,-0.105463 -2.044693,-0.7617 -2.840822,-2.157893 -1.22711,-2.152013 -1.940187,-3.210296 -2.475509,-3.6725285 -0.326603,-0.282012 -0.216437,-0.666098 0.38046,-1.321325 0.958196,-1.0518351 1.097511,-2.414892 0.30302,-2.9675331 -0.296446,-0.2060951 -1.181845,-0.4936115 -1.968108,-0.6388598 -0.37236,-0.068786 -0.726666,-0.083804 -1.062256,-0.045061 z m 0.88381,1.5153816 c 0.163364,0.011528 0.261751,0.1287934 0.362783,0.3561331 0.134139,0.3018353 0.118151,0.7238327 -0.03536,0.9383011 -0.393386,0.5496036 -1.951957,0.4869739 -1.951957,-0.078494 0,-0.2577688 0.392588,-0.6797666 0.872025,-0.938301 0.361105,-0.1947242 0.589136,-0.2891671 0.752501,-0.2776383 z M 102.85768,6.811086 c 0.0328,0.052685 0.065,0.1055746 0.0968,0.1584428 -0.0201,-0.079749 -0.0414,-0.1149383 -0.0968,-0.1584428 z m 23.00261,0.8866985 c -0.14625,-0.024511 -0.29843,-0.00101 -0.45284,0.081399 -0.39698,0.2118472 -0.41032,0.3596321 -0.0506,0.551643 0.63493,0.338836 0.12217,1.505207 -0.66159,1.505207 -0.33019,0 -0.60015,-0.241457 -0.60015,-0.536379 0,-0.906359 -0.79108,-1.01651 -1.30804,-0.182428 -0.40993,0.661378 -0.34346,0.878546 0.40908,1.3336805 0.6244,0.377638 0.89896,0.947469 0.89896,1.864974 0,0.991377 0.15385,1.269991 0.6153,1.117094 0.33821,-0.112065 0.84621,0.03732 1.12959,0.332149 0.28338,0.294835 0.68591,0.536379 0.89392,0.536379 0.57933,0 2.16057,1.477339 1.92838,1.801742 -0.11277,0.157555 -0.87943,0.218998 -1.70365,0.135912 -1.14901,-0.115826 -1.5593,-0.359558 -1.75836,-1.044414 -0.32679,-1.124287 -0.93918,-1.152523 -1.21461,-0.05597 -0.11567,0.460501 -0.35341,1.130323 -0.52776,1.48849 -0.28747,0.590535 0.0235,0.651215 3.33828,0.651215 3.64741,0 3.65626,0.0022 3.87445,1.023336 0.27842,1.302986 0.57281,18.236214 0.41749,24.009897 -0.0981,3.644822 -0.007,4.417481 0.5387,4.598479 0.81502,0.270048 0.86341,0.882336 0.0699,0.882336 -0.77959,0 -1.05887,2.425312 -0.89981,7.814573 0.0695,2.353675 0.15722,11.724048 0.19444,20.822872 l 0.0674,16.543463 -8.11421,-0.0705 c -4.46308,-0.03858 -10.11118,-0.177081 -12.55094,-0.308165 l -4.43588,-0.238389 -0.95115,-1.615682 c -0.63987,-1.086873 -1.12636,-1.522305 -1.48648,-1.330048 -0.41039,0.219102 -0.33499,0.625188 0.32322,1.739963 0.47218,0.79971 0.85979,2.130071 0.86109,2.956633 0.001,0.826562 0.29358,3.168675 0.64896,5.204627 0.35539,2.035957 0.61115,4.810107 0.56901,6.164727 -0.0749,2.40872 0.23782,3.52993 0.88718,3.1834 0.37542,-0.20035 0.19105,-3.39774 -0.40235,-6.98094 -0.50499,-3.049247 -0.50814,-3.277877 -0.0413,-3.277877 0.2043,0 0.50558,1.04661 0.66916,2.325777 0.50567,3.95398 0.63006,4.77163 1.54373,10.14033 0.48763,2.86535 1.10116,5.96326 1.36359,6.88427 0.26243,0.921 0.63459,2.51183 0.82657,3.53517 0.19201,1.02333 0.58867,2.53043 0.88213,3.3491 0.29346,0.81866 0.49494,1.62403 0.44695,1.79011 -0.0479,0.16609 0.20689,1.1581 0.56648,2.20366 0.3596,1.04557 0.56626,1.97637 0.45959,2.06848 -0.3693,0.31888 -2.41387,-0.31599 -3.19771,-0.99281 -0.60554,-0.52287 -0.85563,-1.52987 -1.0833,-4.36299 -0.40633,-5.05626 -0.74522,-7.21859 -1.13128,-7.21859 -0.57134,0 -0.42212,6.45013 0.19612,8.47377 0.5852,1.91549 0.58018,1.94565 -0.3611,1.94565 -0.52581,0 -1.33276,-0.25118 -1.79287,-0.55818 -0.7922,-0.5286 -0.79668,-0.58469 -0.0825,-1.06404 0.41479,-0.27839 0.75418,-0.61331 0.75418,-0.74424 0,-0.45421 -3.28746,-0.23591 -4.09161,0.27182 -0.75419,0.47618 -0.68042,0.56529 1.10265,1.32859 3.1278,1.33897 6.6009,2.99161 6.98714,3.32512 0.1985,0.17142 -0.76475,0.15556 -2.14134,-0.0348 -1.37659,-0.19058 -3.97,-0.26581 -5.76243,-0.16789 -1.79245,0.0979 -4.69204,0.0418 -6.444234,-0.12429 -3.409136,-0.32328 -7.750591,-0.0927 -7.750591,0.41136 0,0.16856 4.315011,0.36993 9.588913,0.4477 9.816212,0.14475 17.018662,0.68104 18.331882,1.36494 0.53179,0.27694 0.1349,0.30585 -1.41661,0.10393 -3.37538,-0.4393 -14.546,-0.1721 -14.924599,0.35686 -0.34724,0.48514 -2.337753,0.46508 -7.916405,-0.0785 -1.896235,-0.18477 -5.483996,-0.43495 -7.972804,-0.55672 -2.488808,-0.12178 -5.300838,-0.30015 -6.248954,-0.39612 -0.948118,-0.096 -3.275315,-0.15839 -5.171549,-0.13881 -1.896235,0.0195 -3.835565,0.0331 -4.309624,0.0298 -0.474058,-0.003 -1.901914,0.0811 -3.173296,0.18751 -4.756665,0.39808 -1.237776,0.79553 8.991288,1.01534 5.807219,0.12479 14.340273,0.54391 18.962345,0.93104 4.622071,0.38712 8.479918,0.64255 8.572948,0.56835 0.0931,-0.0742 -0.0782,-0.392 -0.38046,-0.70645 -0.48832,-0.50806 -0.0513,-0.57107 3.92496,-0.564 2.46098,0.004 4.86246,-0.0294 5.33652,-0.0756 0.7751,-0.0755 1.8959,0.0197 7.73628,0.65994 2.18732,0.23976 2.27616,0.3436 1.39894,1.62586 -0.40234,0.58812 -0.72119,1.29447 -0.70873,1.56989 0.0124,0.27543 0.35182,0.0897 0.75419,-0.41282 0.40236,-0.50257 1.52969,-1.76224 2.50581,-2.79891 0.97612,-1.03669 2.41399,-2.80257 3.19518,-3.92401 0.78119,-1.12143 1.80963,-2.41481 2.28528,-2.8745 0.47565,-0.45969 0.78317,-0.90501 0.68348,-0.98991 -0.48006,-0.40884 -7.14602,-1.33157 -11.28583,-1.5619 -4.55301,-0.25331 -4.64546,-0.27631 -4.87357,-1.22611 -0.12788,-0.53245 -0.40739,-1.64351 -0.6212,-2.46894 -0.21382,-0.82543 -0.5083,-3.00235 -0.65402,-4.8376 -0.14571,-1.83525 -0.43164,-3.83911 -0.63634,-4.45311 -0.2047,-0.614 -0.47321,-2.03737 -0.59594,-3.16304 -0.59945,-5.49844 -1.58513,-10.018827 -2.6287,-12.054736 -1.04727,-2.043124 -1.17355,-3.526676 -0.25925,-3.038761 0.44161,0.235684 18.91222,0.263423 22.15416,0.03345 2.58485,-0.183475 2.50646,0.321629 -0.28282,1.814097 -1.96726,1.052626 -2.19548,1.083844 -8.80022,1.217392 -8.17954,0.165207 -11.30603,0.420654 -11.30603,0.923012 0,0.246372 3.21633,0.336834 9.28758,0.260921 8.15931,-0.102017 9.37,-0.194646 9.96432,-0.761686 0.58811,-0.561127 3.71953,-2.162237 4.22882,-2.162237 0.65855,0 1.10809,4.138191 1.51173,13.915338 0.47014,11.38771 0.73541,14.60168 1.17505,14.22206 0.2964,-0.25594 0.20537,-14.0486 -0.14899,-22.55556 -0.19392,-4.655573 -0.41069,-6.291732 -0.89559,-6.766523 -0.75229,-0.736609 -0.89724,-2.878264 -1.10687,-16.305074 -0.14272,-9.141372 0.21225,-28.395483 0.73735,-40.003172 0.14096,-3.11578 0.0574,-6.814868 -0.18855,-8.372757 -0.24228,-1.535006 -0.47479,-4.854516 -0.51681,-7.377039 -0.061,-3.665839 -0.21109,-4.675848 -0.74913,-5.029469 -0.37024,-0.243331 -1.81485,-1.497426 -3.2095,-2.787284 -1.89008,-1.748066 -2.41131,-2.452427 -2.04707,-2.766935 0.98451,-0.850088 0.26121,-3.3563461 -0.7626,-3.5278957 z M 23.195296,11.7279 c 0.469007,-0.05119 0.875861,0.148681 1.032795,0.619962 0.119267,0.358168 0.356994,0.944261 0.52776,1.302428 0.269267,0.564764 0.04684,0.651215 -1.675029,0.651215 -2.148725,0 -2.360206,-0.276663 -1.289521,-1.687634 0.404089,-0.532516 0.934987,-0.83478 1.403995,-0.885971 z m 2.766745,2.30687 c 0.09607,-0.01166 0.25805,0.07889 0.520185,0.266735 0.355543,0.254789 0.646444,0.610427 0.646444,0.790034 0,0.38534 -0.596581,0.431894 -1.00586,0.07849 -0.158019,-0.136445 -0.287028,-0.492084 -0.287028,-0.790034 0,-0.219672 0.03018,-0.333567 0.126259,-0.345229 z m 1.382109,2.49729 c 0.257255,-4.46e-4 0.4803,1.834666 0.553013,4.552687 0.067,2.504337 0.307773,4.714506 0.535336,4.911 0.248524,0.214592 6.776573,0.365858 16.347109,0.378663 18.433725,0.02466 17.816898,-0.08774 16.925374,3.08382 -1.3566,4.826077 -1.499192,6.228128 -0.785329,7.703374 1.102901,2.27922 0.986059,2.449187 -1.276049,1.861338 -1.079143,-0.280428 -3.69724,-0.622726 -5.817993,-0.760961 -2.348494,-0.15308 -3.858789,-0.412054 -3.862667,-0.662843 -0.0047,-0.296651 -0.09511,-0.295813 -0.323223,0.0044 -0.353505,0.465172 -3.77282,0.863517 -7.535109,0.877249 l -2.478034,0.0087 v 3.296046 c 0,1.812702 0.208133,5.454852 0.462948,8.093666 0.324401,3.359459 0.327876,5.104416 0.01095,5.820956 -0.530419,1.199202 -1.168454,1.321318 -1.545404,0.295808 -0.459822,-1.250968 -4.385482,-3.9738 -7.32131,-5.078163 -1.546799,-0.581858 -2.812197,-1.188369 -2.812197,-1.347493 0,-0.159127 -0.397826,-0.289266 -0.88381,-0.289266 -0.879408,0 -0.882992,-0.078 -0.754184,-16.374118 0.08372,-10.592712 0.281787,-16.374356 0.560588,-16.374845 z m 97.92104,1.178873 c -0.15007,-0.07731 -0.34111,0.05234 -0.57573,0.372122 -0.42281,0.57625 -0.81066,11.196051 -0.43938,12.031478 0.6826,1.535958 1.04226,0.0095 1.32402,-5.626173 0.22231,-4.446534 0.14129,-6.545504 -0.30891,-6.777427 z m -3.47294,0.0109 c -0.47297,-0.06845 -0.93474,0.94854 -0.79796,1.960184 0.098,0.724578 0.33062,1.317692 0.51682,1.317692 0.36094,0 0.80145,-2.903459 0.4823,-3.179031 -0.0664,-0.05728 -0.1336,-0.08906 -0.20116,-0.09884 z m -45.964833,8.115468 c 0.677577,0 0.50311,1.012725 -0.215481,1.250826 -0.820734,0.271945 -0.849005,1.354032 -0.03536,1.354032 1.43548,0 1.971175,-0.441784 1.693549,-1.396914 -0.192443,-0.662063 -0.127225,-0.867426 0.218006,-0.683193 0.271597,0.14494 0.494089,0.583081 0.494089,0.973915 0,0.478763 0.210909,0.640718 0.646444,0.496404 0.355545,-0.117806 0.646444,-0.447511 0.646444,-0.732616 0,-0.285103 0.252487,-0.518209 0.560587,-0.518209 0.916166,0 4.16454,1.975209 4.428307,2.6928 0.134262,0.365259 0.811553,0.918283 1.505843,1.228295 0.694289,0.310013 1.262586,0.738181 1.262586,0.951385 0,0.679433 -1.789503,-0.06614 -3.310499,-1.37947 -0.802529,-0.692959 -1.694716,-1.255155 -1.983098,-1.248646 -0.348761,0.0079 -0.307932,0.163631 0.122048,0.465153 1.403757,0.984383 1.918964,2.446076 1.425038,4.043926 -0.364767,1.180005 -0.337017,1.72352 0.128784,2.494383 0.685399,1.13428 0.786252,2.287972 0.199488,2.287972 -0.221058,0 -0.525442,-0.334909 -0.675904,-0.744245 -0.365361,-0.993985 -0.836468,-0.938675 -1.419986,0.167165 -0.334746,0.634377 -0.356419,1.568124 -0.07155,3.070012 0.519034,2.736462 0.516336,3.187311 -0.01685,2.902845 -0.237029,-0.126491 -0.433405,-0.764172 -0.436853,-1.417262 -0.01064,-2.148449 -0.42727,-2.910273 -1.447766,-2.644835 -1.419953,0.369339 -1.574991,0.638198 -1.163263,2.026326 0.210642,0.710174 0.506472,1.919483 0.657386,2.686986 0.153569,0.780877 0.09855,1.395459 -0.125414,1.395459 -0.539208,0 -0.918744,-1.33458 -0.925898,-3.256072 -0.0034,-0.869836 -0.205853,-1.581521 -0.45032,-1.581521 -0.758227,0 -0.943644,1.012836 -0.508402,2.774929 0.22969,0.92992 0.269872,1.690542 0.08922,1.690542 -0.455622,0 -0.847324,-1.40701 -0.854348,-3.070011 -0.0046,-1.106838 -0.170184,-1.39546 -0.801319,-1.39546 -0.915433,0 -3.509318,-1.046996 -3.523454,-1.422353 -0.0052,-0.138511 -0.842889,-1.039479 -1.86105,-2.00161 -2.448332,-2.313591 -3.680259,-4.530823 -3.79449,-6.82903 -0.116041,-2.334577 0.100371,-2.639735 2.269284,-3.200835 1.380635,-0.357172 1.808128,-0.353566 2.073165,0.01672 0.183677,0.256615 0.798919,0.517969 1.366962,0.581442 0.568038,0.06347 1.395107,0.244424 1.837481,0.401921 0.707218,0.251788 0.746242,0.192634 0.323222,-0.489864 -0.657304,-1.060718 -0.614368,-1.197042 0.380475,-1.197042 0.474059,0 0.861925,-0.167456 0.861925,-0.372123 0,-0.204667 0.193933,-0.372122 0.430962,-0.372122 z m -3.472949,0.744245 c 0.251018,0 0.456213,0.167455 0.456213,0.372122 0,0.204668 -0.08571,0.372123 -0.190232,0.372123 -0.104525,0 -0.30972,-0.167455 -0.456212,-0.372123 -0.146493,-0.204667 -0.06079,-0.372122 0.190231,-0.372122 z m -43.914393,0.568359 c -0.452123,-0.241277 -0.876476,6.983577 -0.87876,14.967757 -0.0012,4.280537 0.157642,6.791236 0.429279,6.791236 0.259463,0 0.446247,-1.665948 0.469682,-4.186379 0.02141,-2.302508 0.09765,-7.160044 0.169186,-10.79446 0.07153,-3.634416 -0.01368,-6.68439 -0.189387,-6.778154 z m 50.968031,1.336588 c -0.993385,-0.02422 -1.925828,0.123119 -2.07232,0.327787 -0.30071,0.420124 0.673646,0.420124 2.585773,0 1.22121,-0.268319 1.192573,-0.2862 -0.513453,-0.327787 z m -8.905432,0.03198 c -0.439977,-0.08053 -0.988148,0.01596 -1.217972,0.214406 -0.269844,0.233 0.01318,0.285266 0.799637,0.146814 0.901987,-0.158795 1.010831,-0.252778 0.418335,-0.36122 z m -6.54524,0.08503 c 0.359301,-0.0014 0.768625,0.140388 1.04963,0.383026 0.595727,0.514385 0.522998,0.571991 -0.723043,0.571991 -1.480727,0 -1.853969,-0.509333 -0.662437,-0.904141 0.10225,-0.03389 0.216085,-0.0504 0.33585,-0.05088 z M 36.803438,29.35647 c -0.267628,0.02547 -0.573502,0.09004 -0.964615,0.180974 -2.530126,0.588274 -3.61909,1.818183 -3.69264,4.171116 -0.05953,1.90418 -0.01062,1.991385 1.446922,2.596863 0.829602,0.344625 2.090167,0.791763 2.801256,0.993538 1.762474,0.500108 1.760955,0.500056 2.945189,0.03416 0.783078,-0.308082 1.110528,-0.800295 1.299621,-1.953644 0.139029,-0.847989 0.371672,-1.970494 0.516818,-2.49511 0.222848,-0.805461 -0.04103,-1.170396 -1.698597,-2.34321 -1.391306,-0.984415 -1.851071,-1.2611 -2.653954,-1.184687 z m 34.315379,0.415731 c -2.662761,-0.03401 -3.539761,0.561751 -2.411536,1.638211 0.843902,0.80519 2.576823,1.008654 3.042827,0.357586 0.15553,-0.217292 0.779856,-0.558404 1.388004,-0.758053 1.652522,-0.542507 0.571776,-1.204651 -2.019295,-1.237744 z m 8.438277,0.105387 c -0.451385,-0.04418 -0.899482,-0.03968 -1.292886,0.0298 -1.744972,0.308159 -1.917706,1.156188 -0.400662,1.968179 0.657924,0.352153 1.429467,0.644313 1.714588,0.649761 0.983077,0.01878 2.713719,-0.85488 2.713719,-1.370021 0,-0.574148 -1.38061,-1.14517 -2.734759,-1.277717 z m -26.887173,0.05305 c -1.836653,0 -2.512002,0.17542 -3.302921,0.858353 -1.361018,1.175198 -1.809323,3.398208 -0.921686,4.567949 0.591887,0.780003 1.010438,0.898961 3.150571,0.891786 3.011018,-0.01012 4.307444,-0.750847 4.832334,-2.760393 0.311065,-1.190907 0.221455,-1.606853 -0.537862,-2.493657 -0.805305,-0.940523 -1.179928,-1.064038 -3.220436,-1.064038 z m 11.471008,0.372122 c 0.474058,0 0.981417,0.167455 1.12791,0.372123 0.146492,0.204668 -0.121881,0.372122 -0.595939,0.372122 -0.474059,0 -0.981418,-0.167454 -1.12791,-0.372122 -0.146494,-0.204668 0.121879,-0.372123 0.595939,-0.372123 z m 7.376864,0 c 0.474059,0 0.861925,0.167455 0.861925,0.372123 0,0.204668 -0.387866,0.372122 -0.861925,0.372122 -0.474059,0 -0.861925,-0.167454 -0.861925,-0.372122 0,-0.204668 0.387866,-0.372123 0.861925,-0.372123 z m 43.752777,0 c -3.20222,0 -5.82809,1.782071 -5.82809,3.955256 0,1.192739 0.28783,1.651466 1.77014,2.821444 1.64534,1.298646 1.83403,1.357958 2.68173,0.845271 0.50152,-0.303315 1.34639,-0.551643 1.87788,-0.551643 1.18076,0 1.85853,-1.005079 1.85853,-2.755305 0,-1.502106 -1.53873,-4.315023 -2.36019,-4.315023 z m -79.324006,0.372123 c 0.549962,0 2.45914,1.080833 2.919096,1.652747 0.416258,0.517581 0.421531,3.095741 0.0067,3.30186 -0.177772,0.08834 -1.200618,0.270124 -2.272653,0.404102 -2.202912,0.27531 -3.006638,-0.144405 -3.006638,-1.568438 0,-1.07429 1.686363,-3.790271 2.353459,-3.790271 z m 44.215727,0.372122 c 0.251018,0 0.336724,0.167455 0.19023,0.372122 -0.146492,0.204669 -0.351686,0.372124 -0.456211,0.372124 -0.104527,0 -0.190232,-0.167455 -0.190232,-0.372124 0,-0.204667 0.205194,-0.372122 0.456213,-0.372122 z m -28.620276,0.06105 c 0.355885,0.01995 0.835671,0.135877 1.526042,0.353226 2.499569,0.786938 2.872804,1.43677 1.539514,2.678992 -0.998712,0.9305 -2.680797,1.261371 -3.991452,0.784946 -0.593444,-0.215716 -0.479687,-3.054833 0.143932,-3.593308 0.194274,-0.167749 0.426075,-0.24381 0.781964,-0.223856 z m 11.868299,0.543648 c 0.212939,-0.07757 0.504436,0.01388 1.02522,0.218768 0.95531,0.37584 1.014826,0.479936 0.382139,0.671565 -0.642793,0.194699 -0.572878,0.339693 0.49746,1.028424 0.685544,0.441128 1.052659,0.78352 0.81563,0.760962 -1.727818,-0.164447 -3.694476,-0.524846 -3.707793,-0.67956 -0.0089,-0.102334 0.186443,-0.645427 0.433488,-1.206491 0.206953,-0.470003 0.340917,-0.716092 0.553856,-0.793668 z m 21.766124,0.29799 c 0.06779,-0.004 0.1477,0.01722 0.239891,0.06251 0.95591,0.469567 2.047072,1.373937 2.047072,1.697083 0,0.172946 -0.145449,0.2917 -0.323222,0.263828 -2.114276,-0.331487 -2.262553,-0.416583 -2.262553,-1.299521 0,-0.475621 0.09545,-0.71188 0.298812,-0.723894 z m 28.636262,0.213679 c 1.41288,0 1.75297,0.154731 2.106,0.956471 0.59124,1.342778 0.0673,2.757047 -1.17168,3.163768 -3.21104,1.054151 -5.1354,-0.804772 -3.31556,-3.203015 0.54333,-0.715996 1.06594,-0.917224 2.38124,-0.917224 z M 75.389723,33.859 c -2.463006,0.0221 -3.352439,0.547438 -1.634628,0.965193 0.547306,0.1331 1.736775,0.258692 2.643011,0.279093 1.349645,0.03038 1.621212,-0.08074 1.501632,-0.614148 C 77.781155,33.960153 77.30972,33.841775 75.389723,33.859 Z m 9.57376,0.739885 c 0.206491,-0.01556 0.673715,0.117271 1.207031,0.355406 1.605438,0.716855 1.749215,1.646441 0.215481,1.393279 -0.592574,-0.09781 -1.077406,-0.07021 -1.077406,0.06105 0,0.13126 0.484832,0.397808 1.077406,0.592344 0.592573,0.194536 1.077406,0.61216 1.077406,0.928126 0,0.426965 -0.27666,0.514407 -1.077406,0.340872 -1.572211,-0.340736 -1.327179,0.39074 0.430962,1.286438 1.593643,0.811894 2.20998,1.88818 0.675064,1.178873 -0.967174,-0.446945 -2.616131,-0.51398 -2.610184,-0.106115 0.0021,0.153501 0.827681,0.591434 1.834111,0.973186 1.006431,0.381757 2.569699,1.428352 3.473794,2.325767 1.7133,1.70064 1.677823,1.970091 -0.140567,1.075668 -0.592573,-0.291472 -2.386454,-0.885953 -3.986402,-1.320599 -1.599948,-0.434647 -2.908996,-0.868278 -2.908996,-0.963738 0,-0.09546 0.322632,-0.709203 0.717147,-1.364209 0.417637,-0.693399 0.767096,-2.279437 0.835834,-3.796085 0.06493,-1.432673 0.129324,-2.734642 0.143933,-2.893399 0.0034,-0.03969 0.04397,-0.06168 0.112792,-0.06687 z m -21.032145,0.612694 c 0.428085,0.0104 0.917248,0.04992 1.450292,0.122103 1.12298,0.152069 1.848088,0.324507 1.611059,0.383024 -1.299003,0.320695 -4.57264,0.402779 -4.775098,0.119923 -0.302591,-0.422761 0.429506,-0.656237 1.713747,-0.62505 z m 61.040942,0.300896 c -0.8383,0 -0.88105,0.240841 -0.96125,5.488807 -0.24688,16.153639 0.27564,40.777485 0.88212,41.584694 0.3815,0.507757 0.74441,-10.67857 0.56144,-17.303699 -0.23316,-8.441815 -0.14697,-26.046683 0.13719,-28.00222 0.23281,-1.60215 0.17521,-1.767582 -0.6195,-1.767582 z m -49.766056,1.116378 c -2.571273,0 -3.599532,0.338684 -3.10764,1.023336 0.110284,0.153501 1.479076,0.282431 3.041987,0.28636 2.433902,0.0061 2.841657,-0.08732 2.841657,-0.651214 0,-0.561591 -0.408194,-0.658482 -2.776004,-0.658482 z m -9.771564,0.126463 c 1.016946,-0.0067 1.773509,0.236868 1.773509,0.635951 0,0.473095 -0.480613,0.555753 -2.478033,0.428087 -2.195003,-0.140294 -2.393277,-0.644366 -0.381302,-0.97028 0.378354,-0.06129 0.74684,-0.09151 1.085826,-0.09376 z m 3.607625,0.245659 c 0.277561,0 0.343059,0.712871 0.176764,1.925299 -0.333436,2.430946 -1.151424,3.303004 -1.143063,1.218846 0.0075,-1.865711 0.400407,-3.144145 0.966299,-3.144145 z m -5.906373,1.24792 c 0.248962,-0.0793 1.218627,0.09791 2.154811,0.393925 1.950842,0.616838 1.158065,0.716039 -1.09929,0.137366 -0.829603,-0.212668 -1.30448,-0.451981 -1.055521,-0.531291 z m 11.831266,0.293627 c -0.297119,-0.02054 -0.577253,-0.02139 -0.800484,0.0022 -0.297634,0.03114 -0.494089,0.105158 -0.494089,0.232577 0,0.182909 0.08187,0.402405 0.181814,0.487681 0.09995,0.08528 0.89248,0.197604 1.760882,0.250021 1.110043,0.067 1.525659,-0.0435 1.400629,-0.372122 -0.113814,-0.299149 -1.157406,-0.538729 -2.048752,-0.600338 z m 7.413056,0.133004 0.353523,1.300249 c 0.36868,1.354362 0.330289,1.661754 -0.154875,1.242829 -0.158021,-0.136443 -0.267524,-0.764399 -0.243261,-1.39546 z m -18.883223,0.733342 c 0.118648,-0.03718 0.307077,0.0095 0.586682,0.133734 0.4148,0.184211 1.045083,0.427636 1.400627,0.541468 0.355544,0.113828 0.01616,0.220773 -0.754184,0.236937 -0.986736,0.02069 -1.400628,-0.139735 -1.400628,-0.542197 0,-0.211793 0.04886,-0.332759 0.167503,-0.369942 z m 6.977888,0.01816 c 0.112886,0.0088 0.227009,0.117952 0.329953,0.349591 0.147997,0.333017 -0.003,1.142521 -0.335844,1.798837 l -0.60436,1.193408 -0.02862,-1.302429 c -0.02603,-1.187871 0.300204,-2.065696 0.638867,-2.039407 z m 27.868617,0.09667 c -0.995364,-0.0018 -1.795307,0.02605 -2.260867,0.09085 -1.818494,0.253155 -1.845489,0.273212 -0.428438,0.316884 0.831168,0.02561 2.188699,0.21914 3.016737,0.430267 1.834402,0.467725 7.993012,1.237907 9.485372,1.186141 l 1.0833,-0.03779 -0.006,5.839124 c -0.007,6.403131 1.34847,37.729001 1.77435,41.004707 0.14636,1.12567 0.35787,2.183362 0.47053,2.350478 0.11265,0.167068 0.27687,0.242073 0.36446,0.166436 0.37214,-0.321324 0.20082,-19.860098 -0.21295,-24.286083 -0.24875,-2.660676 -0.58245,-9.633106 -0.74156,-15.494687 l -0.28955,-10.657824 -1.76342,-0.243476 c -2.76015,-0.381452 -7.50598,-0.659316 -10.492074,-0.665024 z m -57.20857,0.02399 7.640325,0.01235 c 4.201961,0.0068 8.435804,0.197511 9.408784,0.423725 0.972979,0.226228 2.229062,0.35941 2.791153,0.295812 0.562088,-0.0636 1.03028,0.01002 1.041209,0.163529 0.147778,2.074913 -0.01698,2.511756 -0.949461,2.514733 -2.997955,0.0094 -9.816866,5.309522 -12.115766,9.417171 -1.856814,3.317733 -3.291139,6.20252 -3.291139,6.618985 0,0.173535 1.259647,0.283613 2.799571,0.244205 2.349817,-0.06013 2.706823,-0.152768 2.218784,-0.574174 -0.319831,-0.276163 -0.939317,-0.54715 -1.376218,-0.602519 -1.307092,-0.165646 -1.215871,-0.910431 0.255884,-2.09755 1.009209,-0.81403 1.637148,-1.053662 2.300429,-0.877975 0.501843,0.132926 0.973147,0.286836 1.047105,0.342323 0.123574,0.09272 -0.454924,4.375871 -1.042054,7.714275 -0.196204,1.115627 -0.108555,1.395459 0.438539,1.395459 0.452933,0 0.69322,-0.346022 0.710415,-1.023336 0.04172,-1.645218 0.388138,-4.670466 0.645599,-5.635622 0.345856,-1.296526 1.157987,-0.425529 1.244912,1.335136 0.03849,0.779283 0.107754,2.115948 0.154036,2.971164 0.04627,0.855219 0.374902,1.805668 0.729774,2.112088 0.981037,0.847097 1.882675,4.798685 2.180061,9.550901 0.147054,2.349846 0.625896,6.030421 1.063938,8.179429 0.438044,2.149008 0.908676,4.995745 1.046261,6.326083 0.137597,1.330338 0.520069,3.590982 0.849302,5.023653 0.329233,1.432672 0.729231,3.735181 0.88886,5.11668 0.472933,4.093007 -0.147937,3.128497 -1.856,-2.883944 -1.2081,-4.252542 -2.814089,-6.910189 -5.881964,-9.734056 l -2.681732,-2.468222 -2.97549,0.197691 c -2.910517,0.193619 -4.386031,0.566144 -5.863446,1.478316 -0.403432,0.249088 -0.854693,0.348567 -1.002493,0.220947 -0.366151,-0.316162 -1.710585,-8.797757 -1.432613,-9.03778 0.290923,-0.251202 5.700377,1.343642 8.014048,2.362833 1.664032,0.733025 1.774932,0.87067 1.348443,1.678912 -0.576029,1.091641 0.145631,2.463132 1.296252,2.463132 0.692773,0 0.7755,-0.343604 0.742403,-3.070012 -0.03409,-2.810205 0.685661,-9.846161 1.316451,-12.874568 0.221515,-1.063467 0.144791,-1.226997 -0.520184,-1.116368 -1.009271,0.167905 -1.299412,1.188931 -1.625366,5.715571 -0.367408,5.102374 -0.662643,6.239695 -1.536989,5.929249 -1.005724,-0.3571 -8.878257,-2.618812 -11.847255,-3.403612 -1.39307,-0.36823 -2.631129,-0.88941 -2.750753,-1.158522 -0.119623,-0.269111 0.564459,-2.111118 1.520153,-4.093348 1.633714,-3.388525 2.655359,-5.979948 3.290297,-8.348773 0.206712,-0.771198 0.112896,-1.023337 -0.380459,-1.023337 -0.360712,0 -0.654861,0.324469 -0.654861,0.722442 0,0.397256 -0.193933,0.825617 -0.430962,0.95211 -0.237029,0.126491 -0.434067,0.512989 -0.437696,0.859078 -0.01656,1.578726 -0.581669,1.565448 -5.393764,-0.127917 -2.596833,-0.913821 -5.079705,-1.661468 -5.518339,-1.661468 -0.438633,0 -0.899565,-0.334911 -1.023536,-0.744245 -0.135323,-0.44683 -0.592751,-0.747327 -1.144743,-0.752238 -1.025674,-0.0091 -3.922418,-1.132135 -5.197641,-2.014697 -1.544758,-1.069105 -0.354331,-1.003902 2.568097,0.140274 3.323663,1.301264 3.649713,1.351978 3.649713,0.570539 0,-0.312066 -0.533317,-0.732315 -1.185147,-0.933942 -4.273068,-1.321764 -6.095423,-2.071305 -6.544399,-2.692072 -0.460975,-0.63736 -0.412254,-0.682831 0.483991,-0.447712 0.548262,0.143829 2.156994,0.74474 3.575641,1.335135 2.913354,1.212442 3.669914,1.318672 3.669914,0.515304 0,-0.307002 -0.35125,-0.558184 -0.780278,-0.558184 -0.910748,0 -6.813306,-2.447376 -7.197576,-2.984248 -0.510739,-0.713564 1.335429,-0.338955 3.883711,0.787854 3.791166,1.67639 6.772668,2.682058 7.79941,2.631022 0.635438,-0.0316 1.304739,0.489706 2.254976,1.755954 1.775781,2.366334 2.40511,2.782557 3.761662,2.488568 1.160334,-0.251465 1.242108,-1.21828 0.08838,-1.044414 -0.843612,0.127137 -3.34585,-2.316756 -3.34585,-3.267701 0,-0.461014 -0.586654,-0.983962 -1.61611,-1.439794 -0.888859,-0.393575 -2.086053,-1.150234 -2.660687,-1.681818 L 26.54788,50.769504 h 0.964614 c 1.232805,0 2.097358,0.380238 6.18835,2.724052 1.836978,1.052441 3.339958,2.120603 3.339958,2.37301 0,0.603989 1.394373,1.22902 2.741494,1.22902 0.979985,0 1.106241,-0.188625 1.429246,-2.139704 0.386131,-2.332389 0.486085,-12.660186 0.138885,-14.355787 z m 30.709435,0.85254 c 0.09087,-0.02013 0.174233,0.105821 0.297972,0.366307 0.157357,0.331252 2.88e-4,1.168528 -0.349317,1.860613 l -0.635501,1.258094 -0.005,-1.116368 c -0.0026,-0.614002 0.154388,-1.451278 0.349317,-1.860613 0.153284,-0.321889 0.251708,-0.487893 0.342581,-0.508033 z m -7.271645,0.559635 c 0.171384,0.02192 0.400377,0.08591 0.682636,0.196965 0.585143,0.230207 0.961744,0.561507 0.836674,0.736249 -0.314887,0.439933 -0.774616,0.397363 -1.383794,-0.128643 -0.64519,-0.557101 -0.649681,-0.870287 -0.135516,-0.804571 z m 10.176434,0.567633 c 0.291525,0.03271 0.434225,1.468027 0.09427,2.624484 -0.227665,0.774464 -0.592488,1.407813 -0.811425,1.407813 -0.370951,0 -0.172984,-1.807079 0.388039,-3.535164 0.117791,-0.362894 0.231935,-0.508036 0.329112,-0.497133 z m 4.593284,0.01381 c 0.02193,-0.0173 0.05504,-0.01686 0.09932,7.45e-4 0.05903,0.02348 0.138015,0.07739 0.23905,0.158446 0.28781,0.230902 0.440746,0.900722 0.339215,1.48849 -0.10153,0.587768 -0.2163,0.817214 -0.255044,0.510213 -0.03874,-0.307001 -0.191687,-0.976821 -0.339214,-1.48849 -0.116524,-0.404143 -0.149148,-0.617522 -0.08333,-0.669385 z m -5.819677,0.01816 c 0.12391,0 0.110258,0.279093 -0.04038,0.837276 -0.165891,0.614002 -0.495276,1.283822 -0.732296,1.48849 -0.287318,0.248083 -0.330711,0 -0.129629,-0.744245 0.165886,-0.614003 0.49527,-1.283823 0.732299,-1.48849 0.07183,-0.06202 0.128729,-0.09303 0.170028,-0.09303 z m -5.560423,1.301718 c 0.296286,0.08556 0.538703,0.312721 0.538703,0.504401 0,0.872393 2.225429,3.31058 3.021787,3.31058 1.013805,0 1.039895,0.13257 0.276083,1.431072 -1.594194,2.710195 -2.04558,3.690139 -1.923338,4.176931 0.111365,0.443469 -0.729588,0.513123 -5.037712,0.417187 -2.844352,-0.06334 -6.529081,0.0564 -8.188285,0.266734 -1.659205,0.21033 -3.862742,0.496303 -4.897147,0.635223 -1.833094,0.246186 -1.872617,0.230404 -1.555506,-0.632314 0.617081,-1.678797 7.194835,-7.002486 10.539219,-8.529748 1.436604,-0.656044 6.552149,-1.774701 7.226196,-1.580066 z m 15.194789,0.851811 1.614428,0.592345 c 0.887924,0.325975 2.196223,0.816497 2.907311,1.0902 0.711088,0.273707 2.12186,0.701373 3.135419,0.950657 1.453521,0.357495 2.455141,1.049769 4.740586,3.275698 1.593677,1.552176 3.141359,3.044607 3.439282,3.316394 0.688612,0.628217 1.513961,1.948817 1.321501,2.114995 -0.0808,0.06971 -1.405922,-0.107982 -2.944345,-0.394655 C 95.114504,54.238091 85.01591,53.572437 78.689274,53.4267 c -0.677749,-0.01563 -1.484351,-0.209904 -1.792867,-0.430992 -0.40364,-0.289274 -0.645949,-0.282922 -0.863611,0.02106 -0.542978,0.758605 0.541237,1.191637 3.317234,1.324961 1.499512,0.07201 4.015138,0.326177 5.589884,0.564726 l 2.862702,0.433899 0.692737,1.850438 c 0.380747,1.017949 0.691898,2.082967 0.691898,2.366465 0,0.514467 -0.516681,0.689852 -0.944416,0.32052 -0.124259,-0.107294 -1.608744,-0.525931 -3.298711,-0.930305 -3.189682,-0.763109 -7.82382,-0.993798 -7.82382,-0.388824 0,0.371062 -1.664872,0.944168 -1.972157,0.678833 -0.101022,-0.08722 -0.291525,-1.902115 -0.423386,-4.033749 -0.131862,-2.131633 -0.42776,-4.700652 -0.657386,-5.708304 -0.280211,-1.229712 -0.272432,-1.95742 0.02439,-2.213839 0.302608,-0.261293 0.442744,0.03857 0.442744,0.949203 0,1.524509 1.087431,4.027211 1.749945,4.027211 0.277604,0 0.397188,-1.013904 0.31733,-2.689166 l -0.127944,-2.689166 1.536988,0.106837 c 1.342509,0.09356 1.765464,-0.107212 3.34164,-1.583702 z m -56.890399,8.033341 1.398103,1.09311 c 0.769162,0.601126 1.48081,1.134973 1.580756,1.18614 0.587647,0.300861 -0.385824,0.286404 -1.578231,-0.02325 -1.102468,-0.286307 -1.400628,-0.565001 -1.400628,-1.309696 z m 91.438926,0.968098 c 1.21039,0.09692 2.14637,0.629282 1.84759,1.519746 -0.15034,0.448039 -0.78943,1.190352 -1.42084,1.649838 -1.31157,0.954468 -1.15288,0.940201 -2.92582,0.268918 -1.71874,-0.650764 -1.98745,-1.285947 -0.99324,-2.346117 0.79761,-0.850523 2.28192,-1.189307 3.49231,-1.092385 z m -27.095908,2.605587 c 0.503106,0.01875 1.17867,0.06136 2.079057,0.118469 7.296822,0.462694 8.017381,0.67026 10.769011,3.098357 4.08879,3.608055 5.38745,6.612777 4.12612,9.547268 -0.92356,2.148688 -1.92708,5.338871 -2.24319,7.131378 -0.15132,0.858055 -0.58006,1.778084 -0.95283,2.045219 -1.06295,0.761739 -9.702927,0.775622 -12.442352,0.01961 l -2.1969,-0.60688 0.199488,-4.485822 c 0.109973,-2.467462 0.365327,-4.640419 0.567324,-4.828144 0.507285,-0.471439 0.709864,0.20773 1.100134,3.6907 l 0.333319,2.976981 0.34006,-4.465471 c 0.425549,-5.591123 0.148121,-8.233624 -0.889705,-8.467968 -0.506402,-0.11435 -0.925698,-0.828632 -1.276894,-2.176772 -0.287568,-1.103901 -0.639742,-2.389625 -0.7828,-2.857057 -0.194644,-0.636005 -0.239158,-0.796096 1.270158,-0.739883 z m 0.555537,0.808202 c -0.315818,0.09742 0.137187,1.535538 1.358543,4.316477 0.912719,2.078185 1.070994,3.100015 1.125386,7.25639 0.03482,2.660676 -0.104229,5.633004 -0.308914,6.605175 -0.23496,1.115965 -0.217964,1.767581 0.04629,1.767581 0.230207,0 0.713333,-1.297777 1.07404,-2.88395 0.655942,-2.884433 0.474516,-8.997134 -0.350997,-11.81489 -0.48111,-1.64214 -2.217741,-4.916524 -2.761698,-5.206809 -0.07647,-0.04081 -0.137537,-0.05389 -0.182654,-0.03997 z m -12.019808,3.213199 c 1.407803,-0.05963 5.010696,0.518954 7.923139,1.367841 3.903175,1.137649 4.415904,1.671562 4.186735,4.365172 l -0.128784,1.510292 -3.016736,0.06687 c -2.978791,0.06607 -5.645776,-0.358733 -6.442552,-1.026243 -0.225177,-0.188648 -1.422137,-0.343053 -2.659003,-0.343053 -1.23687,0 -2.555111,-0.101801 -2.93004,-0.226034 -1.289276,-0.427192 -0.679481,-0.920024 1.030272,-0.832914 0.941661,0.04798 1.846402,-0.02951 2.010874,-0.171527 0.164477,-0.142017 -0.993795,-0.258014 -2.573987,-0.258014 -1.734645,0 -2.872804,-0.15602 -2.872804,-0.393926 0,-0.263868 1.316969,-0.32573 3.986402,-0.18679 3.02998,0.157701 3.79396,0.108462 3.184239,-0.205684 -0.441203,-0.227318 -2.719916,-0.426865 -5.063808,-0.44335 -2.343896,-0.01647 -4.261645,-0.186381 -4.261645,-0.377935 0,-0.205411 1.944748,-0.278988 4.740587,-0.17952 3.856862,0.137214 4.740585,0.07188 4.740585,-0.349594 0,-0.319005 0.28978,-0.444009 0.754185,-0.324877 2.577318,0.661146 3.124476,0.676179 3.124476,0.08359 0,-0.426757 -0.401971,-0.599578 -1.400627,-0.601068 -1.822954,-0.0026 -4.520447,-0.655862 -4.900512,-1.186865 -0.125462,-0.175285 0.09974,-0.266485 0.569004,-0.28636 z m -37.30518,0.359039 c -0.204578,0 -0.494093,1.046595 -0.643078,2.325765 -0.148985,1.279172 -0.435163,3.119716 -0.636342,4.090442 -0.201179,0.970726 -0.263169,1.853594 -0.138042,1.961636 0.447395,0.386316 1.124361,-0.07557 1.41157,-0.963012 0.432831,-1.337412 0.437622,-7.414831 0.0059,-7.414831 z m 1.557187,0.113381 c -0.46183,0.01425 -0.369601,0.407222 0.269352,1.199222 0.325694,0.403708 1.104925,1.844552 1.732267,3.201563 0.87985,1.903214 1.047823,2.678493 0.733983,3.391257 -0.223772,0.508204 -0.395069,2.45378 -0.380459,4.323744 0.04465,5.715248 0.99084,3.982131 1.417463,-2.596135 0.166722,-2.570753 0.03762,-3.632207 -0.652337,-5.363797 -0.473098,-1.187342 -0.767724,-2.238488 -0.65486,-2.335943 0.112863,-0.09746 1.003429,0.445541 1.978891,1.206491 0.975462,0.76095 1.901569,1.273255 2.058014,1.13817 0.156448,-0.135084 -0.542194,-0.859926 -1.552977,-1.61059 -1.010793,-0.750665 -1.835256,-1.493618 -1.831593,-1.650568 0.0036,-0.156947 0.969969,0.136099 2.147238,0.651214 2.374339,1.038903 2.600082,1.090662 2.600082,0.591619 0,-0.425016 -4.346101,-1.864062 -5.448475,-1.803923 -0.440174,0.02401 -1.236828,-0.07991 -1.770145,-0.231122 -0.277309,-0.07862 -0.4925,-0.11595 -0.646444,-0.111202 z m 33.030069,0.54292 c 1.506377,0.01328 3.07246,0.163076 3.621936,0.439715 0.523977,0.263812 -0.431255,0.37277 -3.338277,0.380845 -3.199365,0.0089 -3.96076,-0.08537 -3.548704,-0.44117 0.311595,-0.269052 1.758667,-0.392664 3.265045,-0.37939 z m -11.912912,1.210124 c -0.32286,-0.0057 -0.07711,11.165924 0.323222,14.693028 0.116148,1.023336 0.316572,4.121257 0.44527,6.884266 0.128698,2.76301 0.433393,6.781934 0.677589,8.930942 0.244197,2.149007 0.411862,5.246926 0.372041,6.884271 -0.03982,1.637337 -0.05309,3.213967 -0.02948,3.503917 0.02371,0.28994 0.129672,0.45276 0.235684,0.36121 0.430466,-0.37169 0.62168,-13.448333 0.252514,-17.261544 C 66.573534,83.311629 66.31032,77.137777 66.205661,71.843133 66.015718,62.233705 65.909942,61.591448 64.514638,61.56688 Z m 30.490588,0.008 1.017644,0.737704 c 0.559578,0.405501 1.30501,0.736978 1.656512,0.736978 1.175962,0 5.185771,2.340192 5.966981,3.482106 0.51938,0.759209 0.75221,1.795413 0.7104,3.166677 -0.0793,2.600902 0.64844,2.094075 1.00502,-0.69991 0.21578,-1.690746 0.0891,-2.329409 -0.73819,-3.716139 -0.91138,-1.527686 -1.2448,-1.74272 -3.80038,-2.452957 -1.540686,-0.428183 -3.480016,-0.885976 -4.309619,-1.016796 z m -14.04247,2.636838 c -0.149716,-0.0054 -0.320028,0.01819 -0.475576,0.07195 -0.343791,0.118789 -0.241954,0.207443 0.260095,0.225309 0.454303,0.01615 0.708843,-0.07186 0.565638,-0.195513 -0.0716,-0.06182 -0.200445,-0.09643 -0.350157,-0.101749 z M 34.19157,65.4233 c -0.05151,-8.57e-4 -0.108245,0.01344 -0.167502,0.04506 -0.23703,0.126491 -0.430963,0.480853 -0.430963,0.787854 0,0.30699 0.193933,0.455006 0.430963,0.328513 0.237029,-0.126491 0.430962,-0.480853 0.430962,-0.787854 0,-0.230239 -0.108919,-0.371006 -0.26346,-0.373573 z m -9.224446,3.208101 c -0.37694,0 -0.502041,19.486003 -0.130467,20.322107 0.12638,0.284376 0.413876,0.516756 0.63971,0.516756 0.251361,0 0.375932,-3.49978 0.320696,-9.023972 -0.09454,-9.454551 -0.260014,-11.814891 -0.829939,-11.814891 z m 15.523062,0.0022 c -0.02416,-0.02471 -0.222719,0.105363 -0.616141,0.369889 -2.037351,1.369866 -4.126128,3.131497 -4.126128,3.479927 0,0.322363 0.967263,-0.334236 3.209491,-2.178952 0.249748,-0.205471 0.744589,-0.707836 1.100132,-1.116368 0.306355,-0.352009 0.45681,-0.530271 0.432646,-0.554548 z m 93.655184,1.88387 c -0.004,0.0061 -0.008,0.01243 -0.011,0.0189 -0.003,0.006 0.004,-0.0098 0.011,-0.0189 z m -93.190552,1.09088 c -0.750958,0 -2.655364,1.334643 -2.318948,1.625129 0.461496,0.398487 0.802207,0.270645 1.852632,-0.694823 0.586219,-0.538807 0.782456,-0.930306 0.466316,-0.930306 z m -8.08307,8.191783 c -1.143951,-0.0062 -3.588267,2.023245 -3.588267,2.97916 0,1.03491 1.724062,3.362388 2.758328,3.723406 2.864963,1.000034 5.120755,-0.391782 4.717017,-2.910114 -0.482196,-3.007717 -1.271711,-3.778274 -3.887078,-3.792452 z m 0.23905,0.367035 c 0.568998,0 3.068081,3.242352 3.068081,3.980695 0,0.382915 -0.563241,0.984007 -1.251643,1.335135 -0.688402,0.351131 -1.437536,0.638131 -1.664928,0.638131 -0.755432,0 -2.685939,-1.949926 -2.685939,-2.713154 0,-0.770743 1.931562,-3.240807 2.534429,-3.240807 z m 40.117377,0 c -0.335431,0 -0.110145,13.49525 0.240732,14.419748 0.532117,1.402016 0.688259,-0.203893 0.593417,-6.10877 -0.109938,-6.844797 -0.25706,-8.310978 -0.834149,-8.310978 z M 3.7767382,81.892621 c -0.00228,0.0033 -0.00416,0.007 -0.00674,0.01017 0.00182,0.0022 0.00363,0.0058 0.00506,0.0073 0.00165,0.0018 0.00335,0.0033 0.00505,0.0051 0.00157,-0.0086 5.262e-4,-0.01619 -0.00336,-0.02255 z m 23.2635498,0.740611 c -0.300856,0.160551 -0.34659,1.141501 -0.134676,2.889036 0.17647,1.455256 0.299867,3.038894 0.273561,3.519903 -0.0263,0.48101 0.0601,1.025239 0.191913,1.209398 0.675531,0.943799 1.093502,0.174686 0.879601,-1.618587 -0.128167,-1.074504 -0.350718,-2.918836 -0.494092,-4.098436 -0.166149,-1.366973 -0.425979,-2.056252 -0.716307,-1.901314 z M 4.3465849,83.386199 c 7.7e-5,0.0092 3.225e-4,0.01839 0,0.02761 0.00909,0.0048 0.018184,0.0095 0.026935,0.01381 5.473e-4,-0.009 0.00114,-0.01794 0.00168,-0.0269 -0.00929,-0.005 -0.018798,-0.01002 -0.028618,-0.01455 z m 90.4861041,0.594525 c -0.441444,0.0323 -1.056655,0.164847 -1.941015,0.405555 -4.796676,1.30558 -8.907031,6.297961 -11.231957,13.642796 -0.550671,1.739678 -1.818851,5.758595 -2.81893,8.930935 -1.95416,6.19882 -3.152704,9.46812 -4.977951,13.58248 -0.635571,1.43267 -1.606507,3.99467 -2.158182,5.69377 -0.972457,2.99504 -0.978987,3.09716 -0.190227,3.3491 0.910046,0.29067 19.245883,0.35702 19.485054,0.0705 0.251868,-0.30172 1.635469,-2.98489 1.635469,-3.17176 0,-0.5863 -1.212362,0.003 -1.939332,0.94266 -0.570745,0.73782 -1.225902,1.11593 -1.93933,1.11928 -0.592573,0.003 -1.827707,0.11265 -2.744859,0.24348 l -1.667454,0.23766 0.170028,-1.54445 c 0.191407,-1.7331 -0.301718,-2.0397 -0.941891,-0.5858 -0.789015,1.79193 -1.5037,2.11499 -3.982191,1.79956 -1.239732,-0.15778 -3.247521,-0.24844 -4.461977,-0.20133 -2.779454,0.10783 -3.050744,-0.36573 -1.850109,-3.22845 3.180675,-7.58382 4.844685,-11.95095 5.982973,-15.70183 4.430155,-14.598214 5.071798,-16.373388 5.918997,-16.373388 0.333009,0 0.582463,0.490048 0.615302,1.209399 0.160576,3.516669 0.01259,6.785579 -0.450326,9.954279 -1.741587,11.92184 -1.76867,17.30146 -0.08922,17.78484 0.409173,0.11777 0.492775,-0.057 0.290395,-0.60761 -0.512759,-1.39498 -0.339637,-5.73777 0.440224,-11.03721 0.800112,-5.43705 1.106091,-17.265525 0.481463,-18.620662 -0.2831,-0.61418 0.13974,-1.220163 2.224675,-3.184848 2.291306,-2.159155 3.859418,-3.058884 6.708537,-3.851323 0.624339,-0.17365 0.704076,-0.334713 0.328272,-0.659207 -0.187906,-0.162286 -0.454996,-0.23076 -0.896439,-0.198457 z m 2.692674,0.0066 c -0.350204,-0.0018 -0.574252,0.05059 -0.569008,0.175887 0.0065,0.15592 0.714277,0.702092 1.572341,1.21376 0.858059,0.511668 2.059574,1.390808 2.669944,1.953643 0.61037,0.562835 1.47011,1.023338 1.91071,1.023338 0.75221,0 0.7418,-0.08518 -0.16161,-1.39546 -0.52916,-0.767503 -1.2716,-1.668073 -1.65062,-2.001614 -0.53503,-0.470828 -2.721156,-0.964005 -3.771757,-0.969554 z m 23.835077,0.08721 c -0.0421,-0.150301 -0.12887,0.257751 -0.28955,1.116367 -0.19151,1.023338 -0.3423,2.865344 -0.33502,4.093348 0.0101,1.675791 0.0883,1.954262 0.31313,1.116368 0.16473,-0.614002 0.31553,-2.456009 0.335,-4.093348 0.0164,-1.373787 0.0185,-2.082435 -0.0236,-2.232735 z m 3.61099,0.930307 c -0.26103,0 -0.44527,1.001642 -0.44527,2.418796 0,1.330338 0.16602,2.418796 0.36867,2.418796 0.20266,0 0.40287,-1.088458 0.44528,-2.418796 0.0465,-1.460068 -0.0998,-2.418796 -0.36868,-2.418796 z m -31.066318,4.627547 c -0.267464,-3.71e-4 -0.597969,0.05979 -0.984819,0.186788 -1.080758,0.3548 -1.538151,1.422799 -0.860239,2.008151 0.646491,0.558229 1.917063,0.188614 2.382076,-0.692639 0.501571,-0.950531 0.265365,-1.50083 -0.537018,-1.5023 z m 4.373591,0.795123 c -0.324924,0.280557 -0.399981,10.275749 -0.0808,10.764659 0.133612,0.20467 0.511212,-1.531837 0.839201,-3.859316 0.489021,-3.470247 0.497498,-4.49214 0.04461,-5.677049 C 98.777962,90.861089 98.416562,90.30848 98.27871,90.427511 Z M 50.862745,91.76119 c -0.04021,0.04557 0.108111,0.236126 0.410759,0.609061 0.349721,0.43094 1.42009,1.754966 2.37871,2.942093 1.659148,2.054631 2.912871,4.605309 4.078994,8.298626 0.290796,0.921 0.596142,1.88387 0.67927,2.1397 0.08312,0.25583 0.36412,0.46515 0.62456,0.46515 0.260434,0 0.375419,-0.29305 0.255039,-0.65122 -0.120381,-0.35816 -0.433673,-1.36833 -0.696104,-2.24508 C 57.288075,98.956653 53.547382,92.93204 51.579893,92.022841 51.131136,91.81546 50.902959,91.71562 50.862745,91.76119 Z m -27.331601,0.776226 c -0.505683,0.0077 -0.852366,0.03289 -0.982291,0.07849 -0.775914,0.272413 -0.77368,0.295321 0.05471,0.589439 0.474058,0.168315 2.219456,0.337452 3.878661,0.375758 1.659205,0.0383 4.277302,0.197485 5.817992,0.353951 2.9736,0.301986 5.133368,0.182687 5.711093,-0.316158 0.407473,-0.351843 -10.940388,-1.135644 -14.480167,-1.081481 z m 23.046387,0.263082 c -0.246735,0.04433 0.209418,0.829655 1.663243,2.467493 1.195546,1.346863 2.457037,2.92274 2.803781,3.501722 0.346748,0.57899 0.877142,1.13817 1.178415,1.242837 2.007384,0.69739 1.528266,-0.331107 -1.836641,-3.941445 -2.012701,-2.159509 -3.491584,-3.327613 -3.808798,-3.270607 z m -6.843212,0.396832 c -0.644525,0.0049 -0.66019,0.05803 -0.107741,0.36631 0.813318,0.453844 0.861924,0.453844 0.861924,0 0,-0.204667 -0.339382,-0.369444 -0.754183,-0.36631 z m 3.885395,0.135914 c -0.279416,0.164002 -0.543244,1.031884 -0.685163,2.541627 -0.453392,4.823189 -1.490412,11.551639 -2.36861,15.364589 -0.471391,2.04667 -0.98499,4.36606 -1.141377,5.15447 -0.569309,2.87015 -0.746409,0.92522 -0.239049,-2.62448 0.611588,-4.2789 1.65955,-18.762194 1.390527,-19.215179 -0.570926,-0.961342 -1.089023,0.940227 -1.190197,4.368072 -0.06348,2.150957 -0.212383,4.045647 -0.330798,4.211087 -0.118413,0.16545 -0.337744,1.89 -0.488199,3.8317 -0.150454,1.94171 -0.590288,5.79073 -0.97724,8.55373 -0.386958,2.76302 -0.709386,6.2377 -0.716307,7.72155 -0.0074,1.58614 -0.19749,2.71554 -0.461264,2.74077 -0.246763,0.0236 -2.436453,0.007 -4.866003,-0.0356 -2.618134,-0.0466 -4.417364,0.0681 -4.417364,0.28127 0,0.39161 6.810271,1.25652 7.530898,0.95647 0.24318,-0.10124 0.05404,0.091 -0.42002,0.42664 -0.832445,0.58944 -0.817707,0.60125 0.430963,0.34741 1.54226,-0.31351 3.512855,-1.13659 3.850043,-1.60768 0.133052,-0.18589 0.454661,-1.65185 0.713781,-3.25826 0.25912,-1.6064 0.9358,-4.76302 1.504159,-7.01437 2.164598,-8.57421 3.981898,-19.028038 3.661497,-21.061978 -0.205685,-1.305714 -0.500861,-1.84582 -0.780277,-1.681818 z m 30.052891,2.091008 c -0.237029,0 -0.430962,0.679545 -0.430962,1.510293 0,0.912207 0.170691,1.419518 0.430962,1.280628 0.237029,-0.126494 0.430962,-0.806038 0.430962,-1.510295 0,-0.704257 -0.193933,-1.280626 -0.430962,-1.280626 z m -52.595085,0.48405 c -0.088,0.07062 0.251597,0.368367 0.948622,0.813292 l 1.57739,1.006622 -0.02694,5.453184 c -0.05251,10.47302 0.655969,21.17772 1.616951,24.43144 0.897485,3.03875 2.830575,7.97517 3.201073,8.17289 0.189334,0.10104 0.482389,1.38986 0.650653,2.86434 0.210247,1.84236 0.429844,2.5139 0.701997,2.14769 0.545115,-0.73353 0.07878,-5.4435 -0.656545,-6.63207 -1.969327,-3.18325 -2.919795,-6.25094 -3.067239,-9.90194 -0.08266,-2.04668 -0.274043,-5.47951 -0.425912,-7.62851 -0.151868,-2.14901 -0.417603,-5.91676 -0.59089,-8.37276 -0.173287,-2.45602 -0.198442,-4.67004 -0.05556,-4.92046 0.142886,-0.25041 0.152289,-1.56094 0.02105,-2.91156 l -0.238208,-2.455133 2.382078,0.229666 c 4.151782,0.40036 9.885046,0.37952 10.368348,-0.03779 0.324254,-0.279982 -1.157456,-0.464428 -5.056232,-0.627957 -3.033252,-0.127225 -6.581605,-0.49844 -7.885266,-0.825647 -1.303661,-0.327207 -2.758159,-0.686219 -3.232218,-0.797299 -0.126955,-0.02973 -0.203824,-0.03156 -0.233157,-0.008 z m 48.947898,0.151175 c -0.217627,0.119413 -0.39811,1.358548 -0.91832,5.411763 -0.188348,1.46753 -0.123411,2.13971 0.206224,2.13971 0.264339,0 0.486763,-0.29305 0.494089,-0.65122 0.0074,-0.35816 0.19851,-1.88439 0.425071,-3.391257 0.235896,-1.56901 0.251855,-2.986584 0.03702,-3.317848 -0.0948,-0.146271 -0.171562,-0.230951 -0.244101,-0.191148 z m 3.636245,2.713876 c -0.231103,0 -0.42002,0.61376 -0.42002,1.364207 0,1.59484 0.200204,1.54106 0.574055,-0.154807 0.153193,-0.69492 0.0874,-1.2094 -0.154035,-1.2094 z m 52.789517,0.91577 c -0.078,-0.0251 -0.13299,0.18897 -0.13299,0.572717 0,0.51167 0.0976,0.72099 0.21717,0.46516 0.11954,-0.25584 0.11954,-0.67448 0,-0.930307 -0.0299,-0.064 -0.0582,-0.0992 -0.0842,-0.10757 z m 0.30133,1.673817 c -0.37882,-0.0921 -0.35569,1.17219 -0.0126,6.34135 0.22412,3.37702 0.42254,6.3912 0.44021,6.69821 0.0176,0.307 -0.0215,2.14901 -0.0859,4.09334 -0.0645,1.94435 0.0274,4.24686 0.20371,5.1167 0.17632,0.86983 0.50604,1.58151 0.73229,1.58151 0.60136,0 -0.46382,-23.17556 -1.09003,-23.71627 -0.0708,-0.061 -0.13359,-0.10168 -0.18771,-0.11484 z m -72.766133,0.14391 c -0.121461,0.10488 0.350998,1.16577 1.050471,2.35702 0.699479,1.19126 1.919351,3.88228 2.710353,5.98013 0.790988,2.09784 1.616187,3.81426 1.834112,3.81426 0.518305,0 0.02246,-2.25176 -1.06562,-4.8376 -0.473662,-1.12567 -0.898277,-2.29785 -0.943575,-2.60486 -0.111007,-0.75244 -3.307024,-4.94961 -3.585741,-4.70895 z m 52.803823,7.68594 c -0.39022,0 -0.25511,2.89105 0.32575,6.97729 0.38272,2.69237 1.13157,1.85716 0.83415,-0.9303 -0.51752,-4.85036 -0.74695,-6.04699 -1.1599,-6.04699 z m -98.0321428,4.8703 c -3.6097405,-0.0269 -4.4668901,0.0759 -4.9560673,0.5967 -0.3253096,0.34629 -0.3977984,0.53464 -0.1607691,0.41864 0.2370292,-0.11602 0.8188284,-0.0696 1.2928871,0.10319 0.4740586,0.17274 1.4437239,0.23258 2.1548118,0.13229 0.7110879,-0.10033 3.3291843,-0.29747 5.8179913,-0.43753 4.116849,-0.2317 4.330698,-0.27808 2.370294,-0.51749 -1.185147,-0.14474 -4.118621,-0.27788 -6.5191478,-0.2958 z m 50.8291508,0.33941 c -0.520728,0 -0.603632,0.26209 -0.382143,1.2094 0.155525,0.66517 0.479416,3.80495 0.720513,6.97729 0.241102,3.17235 0.518404,5.97722 0.615302,6.23306 0.0969,0.25583 0.363508,0.46515 0.592573,0.46515 0.522353,0 0.173454,-10.18881 -0.442749,-12.93126 -0.303035,-1.34866 -0.64456,-1.95364 -1.103496,-1.95364 z m 86.267382,1.27336 c -0.0952,-0.003 -0.17779,0.0112 -0.24242,0.0458 -0.36232,0.19336 -0.21008,0.47995 0.51093,0.95865 1.12333,0.74583 1.67503,0.87218 1.67503,0.38449 0,-0.51946 -1.27764,-1.36937 -1.94354,-1.38892 z m -5.72373,0.27981 c -1.71616,0.014 -3.22546,0.17255 -3.35425,0.3525 -0.12881,0.17995 0.0836,0.32707 0.47219,0.32707 0.97773,0 4.65561,2.18254 7.74807,4.59774 1.42218,1.11072 2.65831,1.84882 2.74739,1.64039 0.16755,-0.39208 -1.07957,-1.44001 -5.32222,-4.47056 -2.3765,-1.69754 -2.42552,-1.76757 -1.23818,-1.76757 0.72159,0 1.71991,0.38732 2.39808,0.93029 0.63906,0.51167 1.30354,0.93031 1.47638,0.93031 0.17284,0 0.76206,0.36323 1.30972,0.80748 0.54766,0.44426 1.11404,0.70608 1.25838,0.58144 0.14433,-0.12463 -0.47191,-0.7809 -1.36948,-1.45868 -0.89758,-0.67779 -1.94124,-1.51686 -2.31896,-1.86426 -0.52928,-0.4868 -1.40225,-0.62569 -3.80712,-0.60615 z m -1.7836,3.87822 c -0.10572,0.0913 0.66086,0.91627 1.7028,1.83299 1.68366,1.48132 2.57652,2.00135 2.57652,1.50085 0,-0.31471 -4.08773,-3.49927 -4.27932,-3.33384 z m -55.457783,0.13009 c -0.379833,-0.13335 -0.592457,1.14058 -0.580791,3.64856 0.01633,3.5108 0.03723,3.58752 0.646443,2.37591 0.638049,-1.26898 0.846475,-4.33838 0.367836,-5.4154 -0.161564,-0.36354 -0.306876,-0.56461 -0.433488,-0.60907 z m -78.7432222,2.02488 c -1.0201531,0.0966 -1.0777957,0.51058 0.2180063,0.92448 1.3284403,0.42433 9.8355379,0.49404 9.8355379,0.0807 0,-0.18789 -1.502982,-0.44309 -3.33996,-0.56763 -1.8369756,-0.12453 -4.261139,-0.31181 -5.3870282,-0.41646 -0.5396352,-0.0502 -0.986505,-0.0533 -1.326556,-0.0211 z m 74.6760142,0.95065 c -0.241111,0.0593 -0.38057,0.72549 -0.618668,2.53363 -0.194717,1.47873 -0.149432,2.32577 0.124575,2.32577 0.475812,0 1.193727,-4.37666 0.776912,-4.73657 -0.110335,-0.0953 -0.202448,-0.14261 -0.282819,-0.12283 z m 1.966266,0.69846 c -0.07368,-0.066 -0.129767,0.16528 -0.136361,0.62578 -0.0088,0.61399 0.08059,0.91041 0.198648,0.65848 0.118071,-0.25194 0.125289,-0.75431 0.01599,-1.11637 -0.02732,-0.0905 -0.05373,-0.14589 -0.07828,-0.16789 z m 53.678385,0.0705 c -0.29909,0.0786 -0.70208,0.45289 -0.98061,1.02044 -0.27623,0.56284 -1.03002,1.5257 -1.67587,2.1397 -0.64587,0.61401 -1.7253,1.89571 -2.39808,2.84834 -0.67278,0.95263 -2.56029,3.45679 -4.19514,5.56513 -3.30431,4.26126 -4.76319,6.80091 -4.38959,7.64158 0.31953,0.71901 -0.51945,2.08578 -1.09256,1.77994 -0.24096,-0.12859 -0.37642,-0.84471 -0.30134,-1.59169 0.12217,-1.21541 -0.0101,-1.41706 -1.25501,-1.91658 -0.76521,-0.307 -1.39549,-0.71268 -1.40063,-0.90124 -0.005,-0.18854 -0.32991,-0.64905 -0.7222,-1.02334 -0.67286,-0.64199 -0.65255,-0.68028 0.36195,-0.68028 0.75031,0 1.42156,0.42055 2.2213,1.3911 1.20719,1.46501 1.49987,1.21489 0.62793,-0.53638 -0.28503,-0.57247 -0.55178,-1.09019 -0.59341,-1.15053 -0.0416,-0.0603 -1.16655,-0.16398 -2.49909,-0.23039 -2.9458,-0.14682 -3.05899,0.21059 -0.69862,2.20076 1.04708,0.88284 1.72385,1.79758 1.72385,2.33012 0,0.48222 -0.17578,0.78327 -0.39056,0.66865 -0.21476,-0.11461 -0.29633,-0.52032 -0.18097,-0.90123 0.24399,-0.80564 -0.98924,-1.37533 -1.76846,-0.81692 -0.61875,0.4434 -2.53194,-0.34488 -4.22797,-1.74215 -1.73784,-1.4317 -2.02611,-0.67909 -0.32155,0.83946 1.0927,0.97346 1.27343,1.29661 0.72472,1.29661 -0.40204,0 -0.73061,-0.13163 -0.73061,-0.29218 0,-0.16054 -0.5818,-0.58867 -1.29289,-0.95137 -1.8834,-0.96065 -1.5822,-0.24511 0.64645,1.53573 1.06663,0.85232 1.93933,1.837 1.93933,2.18767 0,0.5442 -0.12874,0.51852 -0.87876,-0.17661 -0.48329,-0.44793 -1.10105,-0.81475 -1.37285,-0.81475 -0.2718,0 -1.37932,-0.64252 -2.4612,-1.42816 -2.57347,-1.86879 -4.84106,-2.92567 -4.12192,-1.92094 0.1465,0.20467 0.12976,0.37212 -0.0371,0.37212 -0.51529,0 -4.055397,-2.02983 -4.056259,-2.32577 -0.0013,-0.49546 0.9129,-0.29769 2.154819,0.46588 l 1.21123,0.74499 -0.4823,-0.8838 c -0.42067,-0.76968 -0.87313,-0.91167 -3.509989,-1.10255 -1.732409,-0.12541 -3.204602,-0.066 -3.441808,0.13881 -0.265352,0.22912 0.0896,0.35759 0.986498,0.35759 1.041228,0 2.273616,0.56657 4.800349,2.20729 4.22288,2.74211 5.29094,3.26151 5.51496,2.68118 0.0908,-0.2353 0.35713,-0.32508 0.59174,-0.19987 0.24556,0.13105 0.0247,0.59732 -0.52103,1.09892 -0.82996,0.76283 -1.02629,0.80365 -1.5757,0.32924 -0.34515,-0.29802 -0.77865,-0.46101 -0.96293,-0.36268 -0.18428,0.0983 -1.2732,-0.56558 -2.41996,-1.47468 -2.243392,-1.77844 -3.247241,-1.96871 -1.345909,-0.25511 1.499289,1.35127 1.454959,1.58784 -0.246626,1.30971 -1.434338,-0.23446 -3.214557,-1.34521 -6.993881,-4.36445 -2.152843,-1.71975 -2.81053,-2.03372 -2.81053,-1.34168 0,0.20467 0.164153,0.37213 0.364464,0.37213 0.200307,0 1.289664,1.08846 2.420798,2.4188 1.131134,1.33034 2.227545,2.41879 2.436791,2.41879 0.209249,0 0.380457,0.14377 0.380457,0.31906 0,0.1753 -0.581497,0.30091 -1.292047,0.2791 -0.710549,-0.0218 -1.292456,-0.19664 -1.292887,-0.38812 -0.0013,-0.4658 -1.768466,-2.07065 -2.280226,-2.07065 -0.223117,0 -1.347835,-0.85252 -2.499077,-1.89478 -1.151243,-1.04226 -2.324891,-1.82861 -2.607659,-1.74722 -0.282767,0.0814 1.053824,1.53102 2.969598,3.22118 2.74857,2.42489 3.331076,3.1209 2.764223,3.30113 -0.395102,0.12562 -0.881486,0.40836 -1.081616,0.62796 -0.218787,0.24007 -0.266822,0.13848 -0.120368,-0.25438 0.173095,-0.46433 -0.220675,-0.92466 -1.360225,-1.5917 -0.881952,-0.51625 -2.654112,-1.60407 -3.938423,-2.41661 -1.284311,-0.81254 -2.447909,-1.37968 -2.585775,-1.26028 -0.250759,0.21718 0.510635,0.8477 3.562176,2.94864 l 1.627051,1.12 -3.568907,-0.13954 c -3.423155,-0.13423 -3.726941,-0.22123 -7.460195,-2.13899 l -3.89213,-1.99943 2.264238,1.83373 c 2.208751,1.78886 2.371651,2.56755 0.425911,2.03432 -0.530906,-0.1455 -2.322701,-1.053 -3.982195,-2.01688 -1.659494,-0.96389 -3.64786,-1.98495 -4.418205,-2.26908 -1.482204,-0.54669 -1.747074,-0.91027 -0.861925,-1.18323 0.296278,-0.0913 0.433049,-0.26633 0.303863,-0.38884 -0.305255,-0.28949 -34.852948,-0.4058 -35.185721,-0.11847 -0.139228,0.12022 0.297889,0.39888 0.971349,0.61996 1.394226,0.45772 7.083102,4.37002 7.083102,4.87103 0,0.39594 -7.181692,0.52329 -19.992613,0.35468 -7.463618,-0.0982 -9.3656433,-0.0269 -9.1023966,0.34087 0.258183,0.36071 -0.4037577,0.4325 -2.9552909,0.32125 l -3.2886132,-0.14319 v 1.78358 1.78285 l 10.2353557,0.0327 c 5.629446,0.0181 10.914122,0.0378 11.743725,0.0436 0.829602,0.006 2.187134,-0.005 3.016736,-0.0233 0.829603,-0.0186 1.993201,-0.0244 2.585775,-0.0131 2.489778,0.0474 18.533885,0.0207 26.719666,-0.0444 10.280241,-0.0818 10.362792,-0.0812 34.8726,0.16934 10.291232,0.10519 18.761022,0.23246 18.821772,0.28346 0.14932,0.12533 14.46832,0.0935 19.56923,-0.0436 2.25177,-0.0605 6.95465,0.004 10.45083,0.14464 l 6.3567,0.25511 v -1.8766 -1.87588 l -1.83159,-0.19333 c -1.00738,-0.10606 -6.75202,-0.26997 -12.76558,-0.36485 -6.01356,-0.0949 -11.09169,-0.31137 -11.28499,-0.48114 -0.19329,-0.16977 0.31279,-0.93222 1.12455,-1.69418 1.04749,-0.98325 1.69605,-1.31399 2.23477,-1.13963 0.67545,0.21862 0.69113,0.17341 0.14394,-0.407 -0.6824,-0.72384 -0.50394,-1.09103 2.39891,-4.94589 0.79673,-1.05793 1.4486,-2.0342 1.4486,-2.1695 0,-0.25548 2.23219,-3.32765 4.37023,-6.015 0.67795,-0.85213 1.23229,-1.73127 1.23229,-1.95364 0,-0.19683 -0.0555,-0.31953 -0.14647,-0.37721 -0.0682,-0.0433 -0.15619,-0.0501 -0.25587,-0.024 z m -71.017044,0.1381 c -0.04532,0.0392 -0.07635,0.16918 -0.08671,0.38593 -0.0187,0.39228 0.08322,0.61207 0.226428,0.48842 0.143187,-0.12366 0.158909,-0.44438 0.03452,-0.713 -0.06879,-0.14842 -0.128927,-0.20047 -0.174234,-0.16135 z m 71.998484,0.20351 c -0.37687,-0.0182 1.44837,1.90334 5.06213,5.1443 1.88272,1.6885 3.73689,3.07001 4.12107,3.07001 0.76686,0 -1.71112,-2.44312 -6.03768,-5.9525 -1.90008,-1.54121 -2.9194,-2.2509 -3.14552,-2.26181 z m 3.6211,0.0828 c -0.0684,0.009 -0.12916,0.0353 -0.17845,0.0792 -0.19715,0.17556 0.12626,0.59152 0.71883,0.92449 0.59257,0.33298 2.04708,1.39952 3.23222,2.3701 1.18515,0.97058 2.21312,1.76824 2.28444,1.77268 0.44358,0.0274 -2.43065,-2.76661 -3.53272,-3.43414 -0.73571,-0.44564 -1.56394,-1.06673 -1.84085,-1.38093 -0.20771,-0.23568 -0.47824,-0.35887 -0.68347,-0.33142 z m -45.118054,0.34232 c -0.263684,0.0373 -0.647228,0.22628 -1.126226,0.56328 -0.76551,0.53857 -0.769526,0.57018 -0.04714,0.37211 0.434185,-0.11904 0.967502,-0.21658 1.185146,-0.21658 0.21764,0 0.395611,-0.16746 0.395611,-0.37212 0,-0.26941 -0.143709,-0.38389 -0.407391,-0.34669 z m -90.5063068,0.16062 -0.00925,1.86207 c -0.01001,1.90472 0.4120299,2.54653 5.8078912,8.83209 0.8398936,0.97839 1.5099176,1.31147 1.5066846,0.74861 -9.05e-4,-0.1535 -0.416412,-0.86518 -0.9233706,-1.58152 -0.8831116,-1.24783 -1.8446063,-2.72615 -4.9619589,-7.62851 z m 140.4954108,0.28786 c -0.13005,0.079 0.6688,0.94603 2.13377,2.17168 0.8296,0.69408 1.57468,1.23212 1.65567,1.19632 0.32806,-0.14508 -0.68311,-1.18514 -2.49487,-2.56634 -0.80387,-0.61282 -1.21654,-0.84905 -1.29457,-0.80166 z m -80.281889,0.0843 -0.329113,1.11637 c -0.180939,0.614 -0.337939,1.53501 -0.349317,2.04668 -0.01879,0.84414 0.01323,0.86137 0.349317,0.18605 0.203712,-0.40933 0.360694,-1.33034 0.349317,-2.04667 z m -54.2440198,0.59961 c -0.7030074,-3.7e-4 -1.4233135,0.0182 -1.9898338,0.0567 -1.1330412,0.0769 -0.3142996,0.14061 1.8189641,0.14173 2.1332635,10e-4 3.0599195,-0.0615 2.0596965,-0.13954 -0.500111,-0.0391 -1.18582,-0.0585 -1.8888268,-0.0589 z m 6.5090468,0 c -0.429616,0 -0.859231,0.0214 -1.185146,0.064 -0.651831,0.0852 -0.118515,0.15554 1.185146,0.15554 1.303661,0 1.836977,-0.0703 1.185146,-0.15554 -0.325915,-0.0426 -0.755531,-0.064 -1.185146,-0.064 z m 98.329282,0.64976 c 0.68334,10e-4 1.60082,0.0375 2.58829,0.1083 1.97495,0.14167 4.99682,0.27082 6.71527,0.28708 2.41728,0.0229 3.12448,0.15133 3.12448,0.56618 0,0.29492 -0.2085,0.64697 -0.46295,0.78277 -0.25445,0.13578 -1.29187,1.36443 -2.30548,2.72986 -1.18705,1.59908 -2.13405,2.48878 -2.66153,2.5002 -0.4504,0.0101 -2.18859,-0.39996 -3.86267,-0.91069 l -3.04366,-0.92885 -0.72642,-2.39117 c -0.39952,-1.31528 -0.64576,-2.5041 -0.54711,-2.64192 0.0493,-0.069 0.49843,-0.10303 1.18178,-0.10176 z m 19.75441,0.20496 c 0,0.14286 1.08874,1.42295 2.41911,2.8447 1.33035,1.42175 2.60652,2.58524 2.8366,2.58524 0.23009,0 0.35425,-0.14325 0.27524,-0.31835 -0.22519,-0.49905 -5.53095,-5.40253 -5.53095,-5.11159 z m -102.03792,2.08083 c -0.605155,0 -3.116901,1.82622 -3.116901,2.26617 0,0.42396 0.534072,0.40766 5.602511,-0.16643 4.629386,-0.52437 3.977339,-1.09709 -0.822364,-0.72245 l -2.840817,0.22168 0.820681,-0.79948 c 0.451538,-0.43969 0.61247,-0.79949 0.35689,-0.79949 z m 100.98323,0.71809 c -0.44978,-0.0679 -0.23711,0.43267 0.81985,1.3453 0.90273,0.77948 2.38964,1.25172 2.38964,0.75878 0,-0.0851 -0.77573,-0.68528 -1.72384,-1.33368 -0.70778,-0.48403 -1.21578,-0.72963 -1.48565,-0.7704 z m 13.47432,0.7704 c -0.28578,0 -0.25323,0.21325 0.0867,0.56691 0.29983,0.31195 0.63393,0.49049 0.7424,0.39683 0.29887,-0.25807 -0.30826,-0.96374 -0.82909,-0.96374 z m -80.672458,0.0756 c -2.54953,-0.0408 -5.727727,0.11075 -8.242996,0.47533 -1.896234,0.27485 -4.029498,0.43683 -4.740586,0.36049 -6.159551,-0.66119 -11.988522,-0.90461 -12.520635,-0.52329 -0.324233,0.23235 -1.905572,0.8053 -3.515036,1.27336 -2.494621,0.72546 -2.926673,0.97864 -2.926673,1.71743 0,0.60732 0.32238,0.94447 1.077406,1.12581 1.610665,0.38684 2.79392,0.3762 3.263362,-0.029 0.230565,-0.19909 3.405394,-0.4084 7.054483,-0.46515 4.651801,-0.0723 6.685073,-0.23557 6.804492,-0.54583 0.126449,-0.32852 -0.80811,-0.39522 -3.627828,-0.26019 -2.088951,0.10002 -4.994956,0.0474 -6.457702,-0.11629 l -2.659004,-0.29728 1.049629,-1.05095 1.050471,-1.05023 3.764187,0.55891 c 2.070366,0.30736 4.309845,0.73783 4.977109,0.9572 0.667259,0.21936 1.742113,0.39902 2.387971,0.39902 0.645858,0 2.232618,0.23112 3.52682,0.51384 4.369699,0.95457 5.585677,1.05971 5.585677,0.48187 0,-0.34899 -0.661183,-0.59091 -1.960374,-0.71735 -3.517464,-0.34234 -3.064444,-1.03031 1.151479,-1.7465 1.456515,-0.24743 2.835664,-0.29426 3.277671,-0.11121 0.917718,0.38005 6.150471,0.14951 6.150471,-0.2711 0,-0.40478 -1.920863,-0.63807 -4.470394,-0.67883 z m -54.447718,1.54446 c -1.8458884,-0.009 -1.184707,0.21632 2.095051,0.58362 3.925569,0.43959 5.784071,0.46207 5.301174,0.0633 -0.225179,-0.18597 -2.348409,-0.4364 -4.718702,-0.55601 -1.168263,-0.0589 -2.062225,-0.0878 -2.677523,-0.0908 z m 123.471556,0.61269 c -0.91279,0 -0.0499,0.88673 2.9999,3.08309 1.83698,1.32292 4.11569,3.00506 5.06381,3.73867 0.94812,0.7336 2.11171,1.33122 2.58577,1.32787 0.8489,-0.006 0.84939,-0.0134 0.0236,-0.4499 -1.59121,-0.84114 -4.97965,-3.70957 -4.97965,-4.21545 0,-0.27899 -0.34673,-0.5073 -0.77101,-0.5073 -0.42429,0 -1.62903,-0.66982 -2.67669,-1.48849 -1.04765,-0.81867 -2.05845,-1.48849 -2.24571,-1.48849 z m -4.45692,0.40192 c -0.0767,-0.0259 -0.12277,-0.0243 -0.13468,0.006 -0.0954,0.24689 1.76148,2.09809 4.12697,4.11369 2.3655,2.01561 4.64746,3.66454 5.07054,3.66454 0.4894,0 -1.01232,-1.49649 -4.12781,-4.11371 -2.35659,-1.97968 -4.39764,-3.48988 -4.93502,-3.67106 z m -92.461629,0.004 c 0.71857,0.006 0.762486,0.17111 0.605199,0.69047 -0.127293,0.4203 -0.257942,0.7421 -0.289554,0.71516 -0.03161,-0.0269 -0.695025,-0.15253 -1.474699,-0.27909 -2.027385,-0.32909 -1.913733,-0.95456 0.197806,-1.08729 0.407151,-0.0256 0.721724,-0.0414 0.961248,-0.0393 z m 103.258409,0.35832 c -0.23702,-0.003 1.1205,1.23265 3.01674,2.74586 1.89623,1.51321 3.54467,2.66736 3.66318,2.56415 0.27296,-0.2377 -6.09907,-5.30297 -6.67992,-5.31001 z m -129.073224,0.40434 c -1.222397,1e-5 -1.344956,0.0607 -0.646443,0.3198 0.474059,0.1759 1.540691,0.31979 2.370293,0.31979 1.222398,0 1.344956,-0.0606 0.646443,-0.31979 -0.474058,-0.1759 -1.54069,-0.31979 -2.370293,-0.3198 z m 134.228774,0.13592 c -0.07,-0.0117 -0.12509,-0.004 -0.15992,0.0261 -0.13935,0.12032 0.12274,0.45616 0.58247,0.74642 1.18079,0.74553 1.3684,0.65478 0.45285,-0.21876 -0.32275,-0.30794 -0.66535,-0.51855 -0.8754,-0.55383 z m -18.40764,1.30897 c -0.79716,-0.0207 -0.1454,0.7042 2.09421,2.33013 1.32939,0.96511 2.53612,1.75449 2.68256,1.75449 0.37902,0 -4.38592,-4.0745 -4.77677,-4.08462 z m -115.633429,0.84527 c -0.17728,0.0272 0.229527,0.11803 1.105182,0.28999 1.066633,0.20947 3.199897,0.51841 4.740587,0.6861 1.54069,0.16769 3.043672,0.32705 3.339958,0.35396 0.296286,0.0269 0.538703,-0.0972 0.538703,-0.27546 0,-0.36278 -2.502613,-0.69158 -7.32636,-0.96301 -1.459426,-0.0821 -2.220791,-0.11886 -2.39807,-0.0916 z m 55.000729,0.6345 c -0.223041,0 -0.525201,0.16745 -0.671694,0.37212 -0.146493,0.20467 0.03616,0.37212 0.405712,0.37212 0.369533,0 0.671694,-0.16745 0.671694,-0.37212 0,-0.20467 -0.182672,-0.37212 -0.405712,-0.37212 z m 2.503288,0.1817 c -0.566126,0.0287 -0.947648,0.0898 -1.009228,0.17589 -0.12316,0.17206 1.500593,0.3711 3.609309,0.44261 l 3.834053,0.1301 2.597557,2.13971 c 2.374947,1.95646 3.559456,2.58601 3.500729,1.86061 -0.01242,-0.1535 -1.171964,-1.0964 -2.576518,-2.09537 -1.404553,-0.99897 -2.449624,-1.96184 -2.322313,-2.1397 0.127306,-0.17787 -0.410074,-0.32775 -1.194408,-0.33288 -0.784334,-0.005 -2.730888,-0.0786 -4.325617,-0.16353 -0.797362,-0.0424 -1.547443,-0.0461 -2.113564,-0.0174 z m 11.046777,0.19042 c -1.540692,0 -2.801257,0.12559 -2.801257,0.27909 0,0.15351 1.260565,0.27909 2.801257,0.27909 1.54069,0 2.801255,-0.12558 2.801255,-0.27909 0,-0.1535 -1.260565,-0.27909 -2.801255,-0.27909 z m -46.758576,0.0443 c 0.13943,0.0127 0.318841,0.0453 0.537861,0.0967 0.533316,0.12511 2.327197,0.3333 3.986402,0.46297 2.662259,0.20807 3.392306,0.44875 6.210235,2.05103 1.756224,0.9986 3.265555,1.75335 3.354268,1.67673 0.157848,-0.13629 -1.835406,-1.6579 -3.82395,-2.91956 -0.99681,-0.63242 -0.993233,-0.63512 0.939364,-0.65048 1.629697,-0.013 2.48979,0.29689 5.38703,1.93765 1.896234,1.07388 3.401271,2.11965 3.344168,2.32432 -0.06186,0.22172 -2.674436,0.41084 -6.464436,0.46805 l -6.360905,0.096 -3.754086,-2.51474 c -3.332463,-2.23215 -4.33196,-3.1174 -3.355951,-3.02858 z m 28.879528,0.23258 2.90647,1.71234 c 1.598259,0.94178 3.390463,2.04779 3.983037,2.45805 0.592573,0.41026 1.319822,0.74988 1.616109,0.75442 0.296286,0.004 0.538703,0.25917 0.538703,0.56618 0,0.307 0.279638,0.55818 0.621194,0.55818 0.341554,0 0.727132,0.14798 0.856873,0.32924 0.129741,0.18127 -0.248941,0.41019 -0.841726,0.50804 -0.815773,0.13465 -1.050255,0.032 -0.964614,-0.42083 0.08024,-0.4243 -0.410535,-0.70764 -1.687653,-0.97536 -0.990378,-0.2076 -2.250943,-0.7344 -2.801256,-1.17088 -1.534924,-1.21742 -5.462064,-3.18796 -6.028426,-3.02495 -0.277592,0.0799 0.449425,0.62261 1.615268,1.20649 1.165844,0.5839 2.667416,1.45346 3.337434,1.93257 l 1.218817,0.87144 h -2.624496 c -2.334889,0 -2.895727,-0.15903 -5.096634,-1.44343 -2.931829,-1.71095 -5.273458,-2.77488 -5.561268,-2.52637 -0.113869,0.0983 0.957249,0.98999 2.380395,1.98127 1.725961,1.20219 2.59785,2.08126 2.61776,2.63974 0.01643,0.4605 -0.14626,0.83728 -0.361099,0.83728 -0.214839,0 -0.288947,-0.33491 -0.164977,-0.74425 0.181621,-0.59969 0.01327,-0.74424 -0.866976,-0.74424 -1.5288,0 -2.456148,-0.36298 -2.456148,-0.96156 0,-0.28039 -0.533317,-0.79088 -1.185147,-1.13454 -3.366945,-1.77513 -4.479803,-2.43902 -4.319725,-2.57723 0.09707,-0.0838 3.12168,-0.26071 6.722004,-0.39248 z m 25.815659,0.14101 c -0.149716,-0.005 -0.320028,0.0182 -0.475576,0.072 -0.343791,0.11879 -0.241955,0.20744 0.260095,0.22531 0.454302,0.0162 0.708842,-0.0719 0.565637,-0.19551 -0.0716,-0.0619 -0.200444,-0.0965 -0.350156,-0.10175 z m -81.8466575,0.32632 c -1.8962344,0 -3.447699,0.15856 -3.447699,0.35251 0,0.19433 1.5476537,0.34434 3.447699,0.33359 1.8962345,-0.0107 3.4476985,-0.17001 3.4476985,-0.35322 0,-0.18321 -1.551464,-0.33288 -3.4476985,-0.33288 z m 119.9674515,0.0523 c -0.187,0.002 0.22386,0.42188 1.34845,1.25883 0.94812,0.70561 1.98094,1.28492 2.29538,1.28789 0.31444,0.003 -0.31715,-0.58028 -1.404,-1.29661 -1.26777,-0.83559 -2.05281,-1.25185 -2.23983,-1.25011 z m -20.00944,1.80829 c -0.25101,0 -0.33672,0.16745 -0.19023,0.37212 0.1465,0.20467 0.35169,0.37212 0.45621,0.37212 0.10453,0 0.19024,-0.16745 0.19024,-0.37212 0,-0.20467 -0.20519,-0.37212 -0.45622,-0.37212 z m -97.2703886,0.2253 c -0.065655,0.009 -0.1018487,0.036 -0.1018487,0.0807 0,0.17865 0.4363497,0.50617 0.9696643,0.72825 1.980037,0.82456 2.27223,0.39421 0.323223,-0.47605 -0.533317,-0.23813 -0.9940756,-0.36141 -1.1910386,-0.33288 z M 112.7656,139.74881 c -0.17125,0.04 -0.13952,0.27601 0.12458,0.70209 0.25371,0.40934 0.74535,0.74425 1.09256,0.74425 0.84339,0 0.79685,-0.36742 -0.1229,-0.97028 -0.54873,-0.35968 -0.92298,-0.51601 -1.09424,-0.47606 z m -107.5326803,0.506 c -0.1458809,0.12596 0.3090849,0.6342 1.0109097,1.12945 1.8400893,1.29847 2.4045436,1.11528 0.6961052,-0.22604 -0.7929732,-0.62257 -1.561134,-1.02937 -1.7070149,-0.90341 z m 98.5565503,0.56836 c 0.23702,0 0.55044,0.16745 0.69694,0.37212 0.14649,0.20467 0.0721,0.37212 -0.16498,0.37212 -0.23702,0 -0.55045,-0.16745 -0.69695,-0.37212 -0.14648,-0.20467 -0.0721,-0.37212 0.16499,-0.37212 z m -56.836532,2.97698 c 0.237029,0 0.430962,0.25118 0.430962,0.55818 0,0.307 -0.193933,0.55818 -0.430962,0.55818 -0.237029,0 -0.430962,-0.25118 -0.430962,-0.55818 0,-0.307 0.193933,-0.55818 0.430962,-0.55818 z m 69.815902,0.37212 c 0.23702,0 0.43096,0.16745 0.43096,0.37212 0,0.20467 -0.19394,0.37212 -0.43096,0.37212 -0.23703,0 -0.43096,-0.16745 -0.43096,-0.37212 0,-0.20467 0.19393,-0.37212 0.43096,-0.37212 z" />
    <g
       aria-label="XX"
       id="text1981"
       style="font-size:40px;line-height:1.25;font-family:Hultog;-inkscape-font-specification:Hultog"
       transform="matrix(0.43096237,0,0,0.37212254,3.4257395,0.90509426)">
      <path
         d="m 165.55101,32.935593 q -0.51376,2.715596 -1.54129,2.422018 l -3.57186,-1.003058 q -4.30581,0 -4.89297,1.247706 l -1.66361,-1.174312 q 0.95413,-2.07951 2.17737,-2.07951 0.29358,0 0.56269,0.09786 0.24465,-0.220184 0.24465,-0.562691 0,-0.513762 -0.53822,-1.394496 -1.71254,-1.223241 -4.50153,-6.776758 h -0.17126 q -0.51376,-0.02447 -0.75841,0.464832 -2.49541,5.333333 -4.4526,7.168196 l 0.19572,0.880733 q 2.2263,0.293578 2.2263,1.810398 0,0.611621 -0.4159,1.590214 -0.9052,-0.70948 -1.78593,-0.880734 -0.36697,-0.04893 -1.98165,-0.04893 -3.08257,0 -4.526,0.733945 l -1.05198,-0.587156 v -1.932721 l 2.88685,-0.733945 q 0.68501,-0.171254 6.94801,-9.174312 1.2477,-0.391437 1.2477,-1.174312 0,-0.782875 -0.90519,-1.492355 -1.24771,-1.027523 -1.37004,-1.198777 -0.78287,-1.076452 -2.10397,-3.400611 -1.3211,-2.324159 -2.07951,-3.376147 0,0 -1.83486,-1.639144 l -3.27829,-0.7339447 0.97859,-2.1039755 5.3578,0.6850153 3.00917,-0.6850153 1.37003,0.4648318 v 1.6636084 q -1.68807,0.318043 -1.6636,1.370031 v 0.171254 l 4.64831,6.874617 0.75841,-0.195718 q 0.92967,-3.571866 3.47401,-5.993884 v -1.247707 l -1.88379,-0.685015 -0.4159,-1.8593271 1.05198,-0.5382263 3.91438,0.6605505 q 1.66361,-0.587156 2.88685,-0.587156 1.49235,0 1.81039,1.0030581 -0.80733,2.1529048 -3.18042,2.1529048 -1.85933,2.422019 -3.71866,4.844037 -2.78899,3.743119 -3.10703,4.892967 1.54128,1.761467 4.40367,5.333333 0.48929,1.076452 1.61468,3.058104 0.95413,1.003058 2.78899,2.93578 z"
         id="path2921" />
      <path
         d="m 192.9516,32.935593 q -0.51376,2.715596 -1.54129,2.422018 l -3.57186,-1.003058 q -4.30581,0 -4.89297,1.247706 l -1.66361,-1.174312 q 0.95413,-2.07951 2.17737,-2.07951 0.29358,0 0.56269,0.09786 0.24465,-0.220184 0.24465,-0.562691 0,-0.513762 -0.53822,-1.394496 -1.71254,-1.223241 -4.50153,-6.776758 h -0.17126 q -0.51376,-0.02447 -0.75841,0.464832 -2.49541,5.333333 -4.4526,7.168196 l 0.19572,0.880733 q 2.2263,0.293578 2.2263,1.810398 0,0.611621 -0.4159,1.590214 -0.9052,-0.70948 -1.78593,-0.880734 -0.36698,-0.04893 -1.98165,-0.04893 -3.08257,0 -4.526,0.733945 l -1.05199,-0.587156 v -1.932721 l 2.88685,-0.733945 q 0.68502,-0.171254 6.94802,-9.174312 1.2477,-0.391437 1.2477,-1.174312 0,-0.782875 -0.9052,-1.492355 -1.2477,-1.027523 -1.37003,-1.198777 -0.78287,-1.076452 -2.10397,-3.400611 -1.3211,-2.324159 -2.07951,-3.376147 0,0 -1.83487,-1.639144 l -3.27828,-0.7339447 0.97859,-2.1039755 5.3578,0.6850153 3.00917,-0.6850153 1.37003,0.4648318 v 1.6636084 q -1.68807,0.318043 -1.6636,1.370031 v 0.171254 l 4.64831,6.874617 0.75841,-0.195718 q 0.92967,-3.571866 3.47401,-5.993884 v -1.247707 l -1.88379,-0.685015 -0.4159,-1.8593271 1.05198,-0.5382263 3.91438,0.6605505 q 1.6636,-0.587156 2.88685,-0.587156 1.49235,0 1.81039,1.0030581 -0.80734,2.1529048 -3.18042,2.1529048 -1.85933,2.422019 -3.71866,4.844037 -2.78899,3.743119 -3.10703,4.892967 1.54128,1.761467 4.40367,5.333333 0.48929,1.076452 1.61468,3.058104 0.95412,1.003058 2.78899,2.93578 z"
         id="path2923" />
    </g>
  </g>
</svg>
