<?xml version="1.0" encoding="UTF-8" standalone="no"?>
<!-- Created with Inkscape (http://www.inkscape.org/) -->

<svg
   version="1.1"
   id="svg2"
   width="4cm"
   height="4cm"
   viewBox="0 0 151.1811 151.1811"
   sodipodi:docname="21.svg"
   inkscape:version="1.1.2 (0a00cf5339, 2022-02-04)"
   xmlns:inkscape="http://www.inkscape.org/namespaces/inkscape"
   xmlns:sodipodi="http://sodipodi.sourceforge.net/DTD/sodipodi-0.dtd"
   xmlns="http://www.w3.org/2000/svg"
   xmlns:svg="http://www.w3.org/2000/svg">
  <defs
     id="defs6" />
  <sodipodi:namedview
     id="namedview4"
     pagecolor="#505050"
     bordercolor="#eeeeee"
     borderopacity="1"
     inkscape:pageshadow="0"
     inkscape:pageopacity="0"
     inkscape:pagecheckerboard="0"
     showgrid="false"
     inkscape:zoom="1.8914141"
     inkscape:cx="134.81976"
     inkscape:cy="200.11482"
     inkscape:window-width="1920"
     inkscape:window-height="1043"
     inkscape:window-x="0"
     inkscape:window-y="0"
     inkscape:window-maximized="1"
     inkscape:current-layer="g8"
     units="cm"
     inkscape:document-units="cm" />
  <!-- Border -->
  <rect
     x="0"
     y="0"
     width="4cm"
     height="4cm"
     class="board-border"
     stroke-width="0.1cm"
     id="border"
     fill="none"
     stroke="#000000" />
  <g
     inkscape:groupmode="layer"
     inkscape:label="Image"
     id="g8">
    <path
       id="path68"
       style="fill:#000000;stroke-width:0.407577"
       d="m 102.39349,2.7674628 c -4.531238,0.016312 -7.443188,0.059126 -7.642455,0.125005 C 94.352495,3.0242249 85.086746,3.1972654 74.160428,3.2769307 63.23411,3.3565959 43.24531,3.5280623 29.740873,3.6584865 16.236435,3.7889107 4.7246878,3.8944497 4.1593457,3.8925074 3.2343476,3.8893296 3.1449691,4.0384944 3.2664903,5.3809386 l 0.135149,1.4913381 4.0178493,-0.021802 c 4.2741484,-0.023 9.3792484,-0.2795757 12.7955584,-0.6439206 1.185939,-0.1264791 2.470938,-0.048956 2.986357,0.1809664 0.497578,0.2219634 1.011522,0.2608617 1.141356,0.085759 0.129833,-0.175102 2.803787,-0.248959 5.942196,-0.1642509 3.13841,0.084708 6.107689,0.1617009 6.59876,0.1715186 1.03907,0.020775 21.113583,-0.4113641 23.462739,-0.5051073 0.873066,-0.034841 1.777082,0.029274 2.008925,0.1424473 0.231843,0.1131732 3.434529,0.1354461 7.117557,0.049421 20.409679,-0.4767155 31.815833,-0.550058 41.964213,-0.268906 2.70088,0.074826 7.12052,0.1376055 9.8214,0.1395405 2.70089,0.00193 6.51785,0.027115 8.48213,0.055961 3.19464,0.046917 6.35252,2.35e-5 8.25891,-0.1228245 0.36831,-0.023733 1.93228,-0.016976 3.47551,0.015264 2.58015,0.053903 2.77041,0.1144723 2.36467,0.7463958 -0.30679,0.4778053 -0.27755,0.8237424 0.0959,1.1352197 0.69018,0.5756303 0.92426,11.1489721 0.51879,23.4100851 -0.11716,3.542819 -0.36616,7.059238 -0.55367,7.814264 -0.3317,1.335605 -0.39344,10.656361 -0.15869,23.885396 0.0635,3.581537 0.008,8.93989 -0.12381,11.907449 -0.72605,16.36782 -1.03311,34.615107 -0.61995,36.838677 l 0.31128,1.67448 -5.44519,-0.10393 c -2.99479,-0.0574 -9.66394,-0.0716 -14.82018,-0.0312 -5.15624,0.0404 -12.28793,0.0877 -15.84819,0.10465 l -6.4732,0.0305 0.0985,0.93027 c 0.26095,2.45995 0.22851,4.42313 -0.0977,5.91012 -0.28801,1.31301 -0.23707,1.5979 0.25896,1.46009 0.33889,-0.0942 0.79168,-0.79248 1.00708,-1.55166 l 0.39237,-1.38015 1.48403,0.94336 c 1.35493,0.86141 2.43704,1.20511 2.43704,0.77329 0,-0.0941 -1.00447,-0.95497 -2.23214,-1.91215 -1.82223,-1.42072 -2.23214,-1.96976 -2.23214,-2.99139 0,-0.68831 0.18614,-1.25151 0.41416,-1.25151 0.22802,0 2.45441,1.26546 4.94733,2.81189 2.49292,1.54643 4.74933,2.75109 5.01447,2.67743 0.36387,-0.1011 -3.31837,-2.82158 -6.76705,-4.99947 -0.59448,-0.37543 0.54616,-0.46807 2.12577,-0.17225 1.70564,0.31944 4.16612,1.89572 6.91091,4.42678 0.99007,0.91298 1.6401,1.07753 1.6401,0.41498 0,-0.41806 -0.29546,-0.67315 -3.93676,-3.39184 l -1.86942,-1.39541 h 1.36457 c 0.98292,0 2.22302,0.57097 4.43637,2.04296 1.68981,1.12381 3.19773,2.21222 3.35083,2.4187 0.35381,0.47719 1.56511,0.49262 1.56511,0.0196 0,-0.19594 -1.45528,-1.32443 -3.23398,-2.50737 -2.30937,-1.53585 -3.01189,-2.18633 -2.45623,-2.27553 0.80893,-0.12984 6.11568,2.34204 6.68421,3.1135 0.17846,0.24216 0.82568,0.7137 1.43781,1.04801 2.22453,1.21492 0.69032,-0.40257 -2.12838,-2.24428 l -2.75704,-1.80167 1.49885,-0.11992 c 1.04943,-0.0838 1.74438,0.10051 2.31846,0.61413 0.45085,0.40336 2.03019,1.50986 3.50951,2.45867 1.47933,0.94882 2.89007,2.01185 3.13546,2.36274 0.289,0.41325 0.45071,0.46446 0.45951,0.14463 0.0147,-0.53369 -1.30572,-1.69535 -4.41546,-3.8817 -2.00631,-1.41058 -2.20053,-2.19794 -0.37056,-1.50297 1.32533,0.50334 4.35354,2.74889 4.35354,3.22833 0,0.55898 2.30815,2.46376 2.98548,2.46376 0.32237,0 0.58594,-0.0618 0.58594,-0.13736 0,-0.0755 -1.40625,-1.30725 -3.12499,-2.73702 -1.71875,-1.42978 -3.125,-2.70756 -3.125,-2.83951 0,-0.70984 1.67209,-0.0499 3.28892,1.29802 2.3562,1.96436 6.97892,4.93751 6.97892,4.48855 0,-0.3526 -3.28671,-3.00399 -5.46874,-4.41151 -0.67522,-0.43556 -1.22768,-0.89345 -1.22768,-1.01748 0,-0.12404 0.55246,-0.21905 1.22768,-0.2115 0.90746,0.0102 2.21621,0.78662 5.01708,2.97687 3.46756,2.71191 4.91594,3.48994 4.91594,2.64185 0,-0.3004 -2.58789,-2.38617 -5.60302,-4.51617 l -1.31661,-0.93027 1.20064,-0.11556 c 1.15153,-0.11083 1.58434,0.12245 7.16988,3.86426 0.59973,0.40177 0.78125,1.08606 0.78125,2.9456 0,1.55509 -0.1813,2.42234 -0.50572,2.42234 -0.61955,0 -3.67815,-1.52839 -3.88619,-1.94194 -0.26432,-0.52541 -1.79179,-1.0529 -2.04816,-0.70715 -0.13456,0.18148 1.14795,1.21276 2.85033,2.29152 l 3.09535,1.96156 -0.0567,2.52408 c -0.0628,2.82324 -0.12433,2.83923 -3.32553,0.84887 -0.78161,-0.48597 -1.98696,-0.87804 -2.67857,-0.87067 l -1.25732,0.0138 1.33928,0.92518 c 0.73661,0.50898 2.39397,1.37551 3.68303,1.92523 1.98115,0.84484 2.34375,1.15996 2.34375,2.03787 0,0.57122 -0.11469,1.03856 -0.2546,1.03856 -0.36664,0 -3.98419,-2.09077 -7.20999,-4.16659 -2.5315,-1.62904 -4.16963,-2.22757 -4.12597,-1.50806 0.0183,0.30041 2.84841,2.08116 5.08335,3.19853 0.75534,0.37764 1.77507,0.9859 2.26614,1.3518 0.49108,0.36589 1.54576,0.94003 2.34375,1.27621 0.79799,0.33619 1.46662,0.90006 1.48576,1.25296 0.0735,1.35314 0.0731,3.29142 -8.9e-4,4.36282 -0.0763,1.10856 -0.096,1.09887 -2.87388,-1.39541 -2.58434,-2.32049 -3.69971,-2.89028 -4.44422,-2.26971 -0.25975,0.21651 1.67832,1.99063 2.17459,1.99063 0.11076,0 0.91922,0.66255 1.79705,1.47244 0.87783,0.8099 1.98251,1.57507 2.45448,1.69993 0.59261,0.15677 0.85798,0.56881 0.85798,1.33145 0,0.93883 -0.11709,1.05091 -0.78125,0.7493 -0.42969,-0.19513 -1.24194,-0.7163 -1.80489,-1.15848 -2.07392,-1.62896 -6.15984,-4.3587 -7.23963,-4.83667 -0.61168,-0.27076 -1.37419,-0.80053 -1.69503,-1.17737 -0.70045,-0.82295 -1.42558,-0.89354 -1.42558,-0.13881 0,0.30045 0.48471,0.76093 1.07683,1.02329 1.17213,0.51936 7.09329,4.58335 9.50403,6.52352 l 1.50233,1.20935 -3.25142,-0.003 c -1.78832,-0.001 -4.93293,-0.16422 -6.98851,-0.36121 -3.14461,-0.30135 -15.81062,-0.73515 -27.28964,-0.93536 -7.535786,-0.13143 -7.523983,-0.13049 -7.276256,-0.92009 0.126121,-0.402 -0.29453,-1.60663 -0.934708,-2.67743 -0.640181,-1.07002 -1.164024,-2.14303 -1.164024,-2.38229 0,-0.23927 0.653472,-1.6101 1.45176,-3.04663 l 1.45089,-2.61203 1.953997,1.44555 c 1.720771,1.27283 3.179051,1.84329 3.179051,1.24351 0,-0.11121 -1.10672,-1.07404 -2.45971,-2.13962 l -2.460583,-1.93757 1.135247,-2.60476 c 0.624222,-1.43261 1.243596,-2.85593 1.376776,-3.16291 0.20094,-0.46319 0.37026,-0.43153 0.99226,0.18605 1.81471,1.80182 5.43386,3.47245 5.43386,2.50809 0,-0.15568 -1.12702,-1.03252 -2.50418,-1.94847 -1.37714,-0.91596 -2.77858,-1.99274 -3.11453,-2.39254 -0.33596,-0.39979 -0.68532,-0.65323 -0.77689,-0.56325 -0.600529,0.59012 -2.626342,4.78655 -3.671693,7.60568 -0.68295,1.8418 -1.590144,4.01863 -2.015902,4.8374 -1.3661,2.62711 -1.513627,4.48401 -0.454272,5.72406 2.12771,2.49065 0.999043,2.96117 -6.429608,2.68107 l -5.797457,-0.21876 2.268763,-1.21153 c 1.795443,-0.9585 2.559844,-1.1633 3.66123,-0.97969 1.659282,0.27661 4.548852,-0.1147 4.548852,-0.6163 0,-0.19539 -1.179506,-0.35539 -2.621017,-0.35539 h -2.620981 l 0.381035,-1.69775 c 0.209258,-0.93363 0.725552,-2.48253 1.147457,-3.44199 0.587767,-1.33666 0.782115,-3.09263 0.833566,-7.51193 0.04905,-4.21389 0.264945,-6.26889 0.799556,-7.62821 1.059694,-2.69441 0.916659,-4.67705 -0.627789,-8.69584 -1.248823,-3.24954 -1.377903,-4.05511 -1.462225,-9.15516 -0.0627,-3.792413 -0.345057,-6.48759 -0.878029,-8.375334 -0.432236,-1.530959 -0.820262,-4.377584 -0.861467,-6.325832 -0.06208,-2.933899 0.135397,-4.101488 1.146587,-6.798235 0.671481,-1.790768 1.414662,-3.255943 1.652304,-3.255943 0.237647,0 0.450665,0.167449 0.472584,0.372108 0.05133,0.479193 0.242424,3.027711 0.334821,4.465293 0.04612,0.717636 0.310656,1.116324 0.741142,1.116324 0.368302,0 0.669641,-0.147712 0.669641,-0.328501 0,-0.180788 0.388901,-0.413888 0.864083,-0.517464 0.556182,-0.121229 0.803869,-0.434432 0.694927,-0.88012 -0.09307,-0.380778 -0.404298,-1.822893 -0.69144,-3.204343 -0.47745,-2.297037 -0.61528,-2.511728 -1.613068,-2.511728 -1.356775,0 -4.971312,0.683182 -6.198546,1.171559 -0.504682,0.200834 -1.10736,0.334759 -1.339283,0.297251 -1.574305,-0.254611 -5.606485,0.08557 -5.74427,0.484756 -0.08828,0.255824 -0.397486,1.469826 -0.687079,2.697781 -0.895914,3.798908 -1.412198,5.14902 -2.633227,6.883994 -0.648151,0.920967 -1.206511,2.009383 -1.240752,2.418701 -0.0537,0.642355 -0.798217,2.411467 -2.763142,6.566393 -0.448289,0.947926 -0.30808,1.433924 0.414164,1.433924 0.188067,0 0.480852,-0.366273 0.651329,-0.813985 0.170478,-0.447709 1.389029,-2.712767 2.707343,-5.033629 l 2.396933,-4.219646 1.326203,0.571245 c 1.553747,0.669712 2.701454,0.757261 5.157458,0.392458 l 1.793559,-0.266727 0.564142,3.450719 c 0.310093,1.897947 0.781088,3.669646 1.047185,3.936931 0.702977,0.706015 0.09755,2.852284 -1.547675,5.4835 -1.890452,3.02341 -6.741634,8.5543 -9.218036,10.50987 -2.268732,1.79157 -2.189736,2.56108 0.112482,1.09742 1.742064,-1.10753 2.107452,-1.18321 2.107452,-0.43388 0,0.29396 0.624217,1.84286 1.387238,3.442 0.763021,1.59914 1.632791,3.45658 1.933068,4.12734 0.41436,0.92561 1.183002,1.49486 3.188645,2.36056 1.453439,0.62736 2.893932,1.3126 3.200851,1.52332 0.654168,0.44913 0.752717,1.78059 0.13166,1.78059 -0.554521,0 -5.077744,-2.21751 -5.405087,-2.64981 -0.138138,-0.18243 -0.710642,0.34972 -1.272145,1.18246 -0.744257,1.10382 -0.946882,1.84227 -0.748115,2.7254 0.149951,0.66624 0.0544,1.73259 -0.211879,2.36928 -0.26628,0.63668 -0.407816,1.62995 -0.314767,2.20721 l 0.169156,1.04946 0.341794,-1.11633 c 0.790253,-2.58107 0.659865,-2.56082 4.223626,-0.64464 l 3.275837,1.76097 -0.266812,1.65922 c -0.146602,0.9127 -0.433455,1.79885 -0.637378,1.96883 -0.203928,0.16998 -1.850523,-0.45096 -3.658614,-1.38014 -1.80809,-0.92919 -3.431645,-1.68975 -3.608042,-1.68975 -0.37074,0 -1.318028,2.23898 -1.368059,3.23341 -0.01866,0.37053 0.126598,0.99187 0.322615,1.38087 0.333035,0.6609 0.200379,0.69027 -2.026362,0.44406 -3.325136,-0.36767 -4.160898,-0.78542 -3.532185,-1.76461 1.084261,-1.68869 0.228366,-10.77403 -0.957378,-10.16319 -0.238334,0.12277 -1.384001,-0.47421 -2.546035,-1.32709 -2.520263,-1.84975 -3.53114,-2.34503 -3.866131,-1.89324 -0.29091,0.39234 5.191245,4.49461 6.063395,4.53724 0.387981,0.019 0.419079,0.0919 0.08806,0.20495 -0.375647,0.12829 -0.352535,0.44343 0.08632,1.17955 0.809168,1.35727 0.957364,5.8289 0.217982,6.57148 -0.743565,0.74679 -1.198337,0.72288 -2.28271,-0.11919 -2.349924,-1.82482 -5.746573,-3.45073 -6.964098,-3.33443 -1.207154,0.1153 -1.158238,0.17199 1.178851,1.37433 2.500758,1.28653 5.80931,3.4372 5.798328,3.76904 -0.0036,0.10233 -0.280736,0.48903 -0.617325,0.85905 -0.570561,0.62723 -0.856552,0.50833 -4.220139,-1.75516 -4.239483,-2.85292 -5.797614,-3.74057 -6.109609,-3.48051 -0.216249,0.18024 4.933299,4.12823 7.482026,5.73642 l 1.199774,0.75729 -1.549416,0.61558 c -1.905394,0.75736 -2.232317,0.77312 -1.536341,0.0741 0.603503,-0.60612 0.277705,-1.24655 -1.03411,-2.03351 -0.484927,-0.2909 -2.8554,-1.8398 -5.268195,-3.442 -2.412798,-1.60215 -4.589575,-2.9129 -4.837459,-2.9129 -1.09123,0 -0.246348,1.04036 1.904291,2.34457 9.321245,5.65264 9.256884,5.58931 6.649331,6.56348 -2.749254,1.02712 -0.820976,1.61726 3.219163,0.98551 0.775574,-0.12128 2.472196,-0.99477 3.77022,-1.94121 l 2.359442,-1.721 1.741242,0.65482 c 1.213047,0.45594 2.416049,0.59983 3.970765,0.47531 l 2.231268,-0.17879 0.71498,1.49061 c 0.542053,1.12919 0.586932,1.55731 0.183107,1.76534 -0.355602,0.18318 -0.103634,0.46841 0.756833,0.85686 0.709419,0.32027 1.08869,0.59451 0.843155,0.60976 -3.511627,0.21842 -25.841864,-0.078 -26.991438,-0.35829 -0.849963,-0.20728 -6.073167,-0.37895 -11.607119,-0.38156 -5.533947,-0.003 -12.271879,-0.0751 -14.972766,-0.16062 -3.885504,-0.12305 -21.6408766,-0.28983 -24.2186989,-0.22746 -0.3698632,0.009 -0.5580346,0.64119 -0.5580346,1.87435 0,1.76749 0.0614,1.86335 1.2276762,1.91868 0.6752218,0.032 1.8303535,0.10354 2.5669592,0.15916 1.2380248,0.0935 35.3259701,0.62762 36.8302841,0.57706 6.604956,-0.22195 85.684455,0.91718 86.071615,1.23988 0.0884,0.0737 2.50492,0.0802 5.37021,0.0138 2.8653,-0.0664 6.32979,-0.1358 7.69826,-0.15407 l 2.48761,-0.0334 0.061,-12.55864 c 0.0924,-19.19071 0.3776,-31.57001 0.73939,-32.05796 0.17982,-0.24251 0.0916,-0.67755 -0.19618,-0.96661 -0.28781,-0.28905 -0.38931,-0.70615 -0.22583,-0.92663 0.16348,-0.22048 0.35808,-3.032271 0.43248,-6.248797 0.0744,-3.21653 0.15184,-6.518138 0.17264,-7.336775 0.0208,-0.818637 0.2569,-2.744295 0.52403,-4.279239 0.26713,-1.534945 0.47825,-4.169245 0.4691,-5.854156 -0.009,-1.684908 0.18799,-3.513301 0.43858,-4.062662 0.28704,-0.629249 0.29827,-1.079715 0.0296,-1.218073 -0.25885,-0.133348 -0.2809,-0.876756 -0.0558,-1.891788 0.44679,-2.014677 0.55394,-9.745749 0.21623,-15.625621 -0.13517,-2.353582 -0.22231,-4.530412 -0.19356,-4.837401 0.0288,-0.306989 0.0962,-2.488229 0.14997,-4.846849 0.0538,-2.358617 0.20195,-4.451723 0.32959,-4.651348 0.12768,-0.199621 0.17247,-2.037145 0.0994,-4.083738 -0.0731,-2.046592 -0.11793,-7.070047 -0.0994,-11.163233 0.0185,-4.093186 -0.002,-8.279398 -0.0462,-9.302695 -0.0441,-1.023296 -0.0714,-3.860464 -0.061,-6.3047554 0.0118,-2.7849689 -0.17059,-4.6340403 -0.48741,-4.9522315 -0.27803,-0.2792977 -1.22414,-0.7753734 -2.10306,-1.1025447 -1.38353,-0.5150099 -4.85673,-0.6147318 -25.87362,-0.7442155 -6.67572,-0.041129 -12.82626,-0.051198 -17.3575,-0.034885 z M 79.855868,12.248943 c -4.332532,-0.02553 -5.439271,0.260289 -8.011284,2.069123 -1.461773,1.028028 -2.442539,2.890376 -1.522389,2.890376 0.33216,0 0.876855,-0.274212 1.210238,-0.609035 1.295551,-1.301169 4.016849,-2.383622 6.536853,-2.600394 2.913825,-0.250649 7.01029,0.56579 8.687028,1.731173 1.140212,0.792483 1.386578,0.696413 -2.328049,0.904106 -3.66368,0.204844 -11.331839,0.990759 -11.744883,1.203536 -0.246919,0.1272 -1.161333,0.208991 -2.032469,0.181693 -0.871137,-0.0273 -1.693756,0.09535 -1.827564,0.273267 -0.133807,0.177915 -1.850407,1.034682 -3.814689,1.903418 -4.106773,1.816289 -4.687406,2.154886 -4.68749,2.732667 -4.5e-5,0.289305 1.198024,0.377622 3.859157,0.285622 l 3.860033,-0.133 -0.296459,1.542212 c -0.275808,1.437681 -0.203938,1.585954 1.052422,2.180319 0.940283,0.444837 1.249979,0.806157 1.02364,1.195542 -0.554342,0.953679 -0.168111,4.953042 0.622562,6.442116 0.71107,1.339211 1.852456,2.022704 4.833972,2.895464 1.070279,0.313296 3.796198,0.01503 4.575884,-0.500747 0.306919,-0.203033 0.558035,-0.588269 0.558035,-0.855411 0,-0.3645 -0.595173,-0.434406 -2.383853,-0.280535 -3.499502,0.301054 -5.307824,-0.508258 -6.007595,-2.68906 -0.90998,-2.836049 -0.787869,-3.151288 1.222449,-3.151288 0.967649,0 1.883331,0.167449 2.03508,0.372108 0.161205,0.217411 -0.29778,0.372108 -1.103864,0.372108 -1.553809,0 -2.204812,0.817279 -1.341899,1.683933 0.407999,0.409764 0.709709,0.45111 1.136998,0.155529 0.414254,-0.286566 0.839351,-0.288391 1.47443,-0.0051 0.490624,0.218862 1.005061,0.398272 1.143971,0.398272 0.470289,0 0.256156,-1.390402 -0.422883,-2.745022 -0.617874,-1.232598 -0.82907,-1.348164 -2.47279,-1.348164 h -1.79792 l 0.129919,-2.323494 c 0.117071,-2.104169 0.03424,-2.358 -0.875418,-2.692694 -1.33781,-0.492216 -1.267997,-0.862064 0.18921,-1.005854 0.656288,-0.06476 1.272421,-0.320292 1.3698,-0.567609 0.126625,-0.321601 -0.874475,-0.480568 -3.514747,-0.558162 l -3.691747,-0.108289 2.879981,-1.162837 c 3.573814,-1.443224 6.194322,-1.915892 13.279482,-2.395444 4.765897,-0.322575 5.874842,-0.29038 7.737499,0.2253 1.576755,0.436529 2.174589,0.794597 2.174589,1.303104 0,0.647794 1.190176,1.471715 2.125764,1.471715 0.219115,0 0.423963,-1.130277 0.456017,-2.511727 0.0929,-4.006334 -0.588709,-4.888442 -1.941787,-2.511728 -0.407802,0.716308 -0.819266,1.302377 -0.913779,1.302377 -0.09451,0 -0.961337,-0.639012 -1.926965,-1.420114 -0.965628,-0.781101 -2.571669,-1.891416 -3.568806,-2.467395 -1.658099,-0.95777 -2.166009,-1.049723 -5.945684,-1.07199 z m -4.193108,9.08539 c -0.883364,0.005 -1.540283,0.04262 -1.756934,0.111923 -1.409895,0.450958 -0.0096,1.0081 2.905267,1.156296 1.527247,0.07765 3.365158,0.249048 4.084987,0.380829 l 1.308765,0.239835 -0.185718,3.088785 c -0.171044,2.837308 -0.07642,3.281787 1.164024,5.458066 0.742749,1.3031 1.499654,2.453004 1.681952,2.555334 0.182295,0.102329 0.661557,0.722898 1.064623,1.378688 l 0.732423,1.191908 -1.674979,0.207857 c -0.921261,0.11408 -2.478544,0.383249 -3.460685,0.598861 -0.982141,0.215612 -2.604736,0.517983 -3.606296,0.671538 -1.806881,0.277023 -4.202211,1.60006 -7.468075,4.125891 -2.093706,1.619279 -4.071541,4.937304 -4.997896,8.384053 -1.036646,3.857117 -2.079684,6.470222 -2.774482,6.950858 -0.726842,0.5028 -2.940918,-0.26356 -5.467864,-1.892518 -0.867891,-0.559475 -2.482209,-1.397532 -3.587118,-1.861993 -1.104908,-0.464458 -2.511156,-1.216145 -3.124994,-1.67085 -0.613838,-0.454701 -1.694063,-1.032052 -2.400419,-1.282756 -1.178362,-0.418231 -1.264903,-0.577742 -1.046316,-1.936121 0.13103,-0.814277 0.645788,-2.131415 1.143097,-2.926718 0.497329,-0.795302 0.802619,-1.530937 0.678365,-1.634509 -0.124272,-0.103573 0.08967,-0.697713 0.47607,-1.320547 0.38641,-0.622834 0.702776,-1.362908 0.702776,-1.644687 0,-0.658977 -4.29053,-1.332246 -11.36298,-1.782776 -4.962777,-0.316139 -5.470542,-0.285924 -7.25445,0.433885 -2.034147,0.820784 -2.363575,1.425236 -1.21111,2.22247 0.389024,0.269112 1.29304,1.198935 2.008925,2.066218 1.423205,1.724191 1.635075,3.412671 0.810894,6.466098 -0.846611,3.136526 -1.020513,2.919029 4.062318,5.077236 3.418204,1.451395 5.747342,2.161511 8.60158,2.622924 3.637364,0.588013 3.976676,0.721224 4.799099,1.883071 0.486744,0.687632 0.885007,1.502124 0.885007,1.809664 0,0.307543 1.004462,1.444277 2.232138,2.526262 1.227676,1.081985 2.232139,2.160123 2.232139,2.396169 0,0.236051 0.191647,0.429525 0.426374,0.429525 0.234732,0 1.449332,0.502345 2.69862,1.116323 1.710706,0.840748 2.824949,1.116323 4.513107,1.116323 2.105397,0 2.374986,-0.113909 4.438987,-1.88016 l 2.197263,-1.880889 0.956507,1.787862 c 0.525995,0.983057 1.12531,2.038306 1.332306,2.345295 0.206999,0.306989 0.725498,1.137035 1.152689,1.844549 0.427187,0.707511 1.571095,1.928665 2.541674,2.713771 1.812371,1.466038 2.177348,1.519197 5.324873,0.777646 1.301359,-0.306598 0.605352,-1.015523 -1.018413,-1.037105 -1.640983,-0.02181 -2.380549,-0.754724 -0.85798,-0.850322 1.231926,-0.07735 1.467635,-0.301236 1.117814,-1.061088 -0.216289,-0.469808 -0.645789,-0.573511 -1.758679,-0.422982 -1.133413,0.153308 -1.596238,0.03594 -2.005438,-0.510197 -0.776275,-1.036079 -1.569461,-0.894603 -1.233779,0.220213 0.548762,1.822454 -0.224375,0.875309 -2.377754,-2.911453 -3.279329,-5.766759 -3.601132,-8.643037 -2.000202,-17.883705 0.252344,-1.456545 0.192991,-1.784067 -0.2982,-1.647593 -0.805789,0.223883 -2.63941,6.7479 -2.647178,9.418979 -0.01839,6.320421 0.0096,6.177424 -1.483153,7.659459 -1.716104,1.703781 -3.568774,2.101888 -5.939578,1.276214 -3.04161,-1.059298 -5.446409,-3.054506 -7.094017,-5.885405 l -1.542443,-2.650543 1.191926,-1.037105 c 0.655744,-0.570486 1.406149,-1.037266 1.66713,-1.037106 0.260982,1.6e-4 1.729908,0.495931 3.264503,1.10106 2.591932,1.022057 2.790236,1.186841 2.787557,2.324948 -0.0013,0.673831 -0.302852,1.705307 -0.669642,2.291514 -0.87869,1.404328 -0.841525,1.724634 0.199674,1.724634 1.131958,0 1.396801,-0.40975 1.598243,-2.470301 0.09185,-0.939523 0.263557,-1.788052 0.381034,-1.885976 0.473169,-0.394393 1.623689,2.162862 1.362824,3.029188 -0.336464,1.117406 0.06262,1.737517 0.939069,1.457182 0.757396,-0.242257 0.922186,-2.925791 0.20229,-3.296644 -0.24954,-0.128549 -0.332763,-0.397196 -0.184852,-0.596679 0.14791,-0.199483 0.07197,-0.564223 -0.168281,-0.81108 -0.765142,-0.786185 -0.840066,-1.905761 -0.200544,-2.990671 0.851489,-1.444504 2.346361,-5.408125 2.346361,-6.221177 0,-0.366072 0.296459,-1.13942 0.658307,-1.718818 0.361843,-0.579398 1.002877,-1.723614 1.424734,-2.542251 1.420233,-2.756054 2.759597,-4.184114 4.829615,-5.148461 2.495147,-1.162409 2.98503,-0.699593 1.620041,1.530583 -2.134977,3.488213 -2.810954,5.507765 -3.080525,9.199494 -0.539293,7.385622 -0.255888,11.349288 0.811767,11.349288 0.26999,0 0.327655,-0.618045 0.148227,-1.581458 -0.289285,-1.553267 -0.278165,-1.569852 0.588552,-0.93027 1.30923,0.966126 2.374264,0.835721 2.374264,-0.290709 0,-1.13712 -1.119739,-1.583947 -2.355951,-0.940443 -0.883847,0.460082 -0.892449,0.412262 -0.570245,-3.011022 0.588593,-6.253613 0.909579,-8.305538 1.410783,-9.011259 0.476062,-0.670327 0.537075,-0.671662 1.71247,-0.02981 1.03311,0.564227 1.279672,0.585604 1.620042,0.137363 0.899502,-1.184586 0.275892,-1.711011 -1.752577,-1.478257 -0.332964,0.0382 -0.515191,-0.15102 -0.404575,-0.420802 0.130589,-0.31848 0.773203,-0.447765 1.832795,-0.368476 1.494198,0.111829 1.632251,0.04117 1.632251,-0.837243 0,-0.775175 -0.214187,-0.959338 -1.116069,-0.959338 -1.248917,0 -1.313774,-0.113382 -0.653945,-1.141035 0.432066,-0.672916 0.533227,-0.680693 1.552033,-0.124277 1.045895,0.571208 1.11077,0.555762 1.623532,-0.382281 0.716834,-1.311368 -0.08097,-2.105345 -1.416885,-1.409943 -0.993213,0.517014 -1.090521,0.356993 -0.419397,-0.688254 0.265009,-0.412738 0.931503,-0.719504 1.562497,-0.719504 0.701508,0 1.100373,-0.21177 1.100373,-0.583598 0,-0.380423 0.271669,-0.516047 0.781248,-0.391005 0.79374,0.194771 4.742625,-0.528529 5.265579,-0.964427 0.157402,-0.131196 1.622903,0.315725 3.25753,0.992772 1.63463,0.677049 3.424412,1.345303 3.976867,1.485524 1.101658,0.279617 1.229685,0.779934 0.569369,2.22756 -0.279638,0.613055 -0.798641,0.969408 -1.45089,0.99713 -0.756083,0.03215 -0.816217,0.08697 -0.234549,0.213672 1.041208,0.226796 0.985418,0.704616 -0.336566,2.876568 -0.612807,1.006816 -1.114324,2.114547 -1.114324,2.461582 0,0.992825 1.576551,2.418932 5.158334,4.665882 3.259293,2.044647 3.301493,2.092396 2.707343,3.071341 -0.331937,0.546924 -0.735601,1.603356 -0.897217,2.348204 -0.562294,2.591381 -3.035744,5.992614 -6.717344,9.23656 -4.314362,3.801487 -5.470043,4.582229 -8.398421,5.673915 -0.675222,0.25172 -1.227676,0.671785 -1.227676,0.933905 0,0.706342 0.495557,0.594583 2.83028,-0.639561 1.161507,-0.613977 2.227482,-1.116323 2.369031,-1.116323 0.43016,0 4.727549,-3.035611 6.698161,-4.731291 2.026728,-1.743965 2.445951,-1.874854 3.288043,-1.029112 0.458043,0.460014 0.431383,0.68607 -0.143866,1.215892 -1.138016,1.048145 -2.521459,3.886513 -2.532084,5.1957 -0.0088,1.088404 -0.141085,1.20935 -1.322717,1.20935 -1.897683,0 -2.049362,0.571089 -0.57024,2.146161 0.717312,0.763841 1.438681,1.849346 1.602604,2.412159 0.315924,1.084698 1.173619,1.416243 1.173619,0.453507 0,-0.313561 -0.301339,-1.1716 -0.669642,-1.906327 -0.77007,-1.53621 -0.831967,-1.989177 -0.271169,-1.989177 0.582137,0 1.005721,1.041556 1.327073,3.266846 0.156063,1.080627 0.484272,1.962355 0.729807,1.959378 0.752414,-0.0094 0.773476,-3.235503 0.02875,-4.435495 l -0.687079,-1.10833 2.833771,-2.073481 c 1.558776,-1.140701 3.039816,-2.074211 3.291526,-2.074211 1.08441,0 3.09886,4.746867 3.42408,8.069362 l 0.26157,2.673795 -1.77001,0.82925 c -0.9737,0.456148 -2.40952,1.491776 -3.1904,2.301691 -0.86648,0.898726 -2.394765,1.841912 -3.921932,2.419427 -2.685561,1.015575 -3.154436,1.375053 -3.165105,2.429603 -0.0056,0.556908 0.327513,0.450503 1.890344,-0.605405 1.844367,-1.246122 2.279822,-1.414515 4.957793,-1.91359 0.96598,-0.180041 1.22124,-0.405445 1.0559,-0.93245 -0.15764,-0.502453 0.32423,-1.020238 1.73776,-1.866355 1.07582,-0.643977 2.18769,-1.051528 2.47105,-0.905558 0.28336,0.145967 0.75561,-0.0079 1.04893,-0.342309 0.46748,-0.532892 0.77433,-0.550094 2.48761,-0.136634 l 1.95487,0.472402 0.14997,2.352562 c 0.12985,2.0441 -0.004,2.536938 -1.01318,3.750876 -0.98728,1.187474 -1.47716,1.431179 -3.26276,1.623611 -1.15574,0.124551 -2.55336,0.334424 -3.10581,0.465864 -0.93615,0.222728 -1.00446,0.124228 -1.00446,-1.44846 0,-0.9281 -0.12213,-1.952527 -0.27117,-2.276254 -0.47427,-1.030679 -1.0681,-0.634053 -1.0681,0.713699 0,0.990905 -0.18684,1.303408 -0.78125,1.306013 -1.44149,0.0067 -5.302818,1.751329 -6.889109,3.112767 -1.911171,1.640281 -2.311558,1.688793 -1.927836,0.232568 0.17654,-0.669973 0.112366,-1.116324 -0.160437,-1.116324 -0.697521,0 -1.16944,3.319745 -0.545825,3.839542 0.397205,0.33108 0.92465,0.06952 2.218188,-1.098153 0.942864,-0.851122 2.996003,-2.048703 4.620352,-2.694875 3.390467,-1.348742 3.465917,-1.360199 3.465917,-0.55235 0,0.33559 0.34874,0.822266 0.77515,1.082168 0.73533,0.448159 0.7349,0.510111 -0.0148,1.200628 -0.43478,0.400451 -0.98915,1.75335 -1.23117,3.005935 -0.24201,1.252589 -0.63646,2.709346 -0.87716,3.237046 -0.24071,0.52769 -0.43771,1.4503 -0.43771,2.05096 0,0.60065 -0.18825,1.09234 -0.41852,1.09234 -0.46605,0 -0.516,0.34606 -0.49613,3.47252 0.008,1.19352 0.1669,2.36566 0.35313,2.60476 0.18624,0.23909 0.45111,-0.6609 0.58943,-2.00008 0.28218,-2.73198 0.58027,-3.32824 1.67235,-3.34461 0.69252,-0.0104 0.69057,-0.0423 -0.0262,-0.39028 -1.05177,-0.51062 -0.99762,-0.99659 0.53711,-4.814878 2.12288,-5.281441 2.73066,-6.152348 4.20183,-6.020588 0.68699,0.06153 1.96923,-0.08636 2.84947,-0.328501 1.32671,-0.364963 1.68294,-0.346354 2.08391,0.106836 0.26603,0.300678 0.91654,0.737931 1.44478,0.972422 0.59654,0.264807 1.25323,1.202931 1.7334,2.475387 1.39801,3.704702 2.64334,3.480982 3.13458,-0.563248 0.35641,-2.934137 -0.62111,-6.494204 -2.00456,-7.30189 -0.50735,-0.296213 -0.9225,-0.766043 -0.9225,-1.044372 0,-0.27833 -0.2432,-0.573646 -0.5406,-0.656276 -0.53269,-0.148002 -0.90388,-2.884985 -0.39236,-2.893283 0.45037,-0.0073 1.75408,-2.683932 2.44401,-5.019094 1.28894,-4.362536 1.61732,-5.610466 2.10833,-8.000317 0.83086,-4.044049 0.90006,-5.97297 0.25199,-7.021354 -0.33297,-0.538611 -1.02634,-1.648758 -1.54158,-2.467395 -0.51523,-0.818637 -1.64876,-2.744295 -2.51813,-4.27924 -0.86932,-1.534944 -3.08537,-4.80019 -4.92465,-7.256101 -1.8393,-2.455912 -3.48308,-4.700198 -3.65339,-4.987115 -0.89603,-1.509552 -7.271915,-5.609931 -8.729756,-5.614322 -0.660731,-0.0019 -1.363069,-0.212946 -1.560752,-0.46877 -0.197682,-0.255824 -0.367972,-2.558241 -0.378419,-5.116482 -0.01954,-4.778644 -0.290262,-5.953725 -1.371541,-5.953725 -0.342031,0 -0.621687,-0.215389 -0.621687,-0.478943 0,-1.234699 -2.601401,-2.869402 -6.919629,-4.348283 -3.702711,-1.268082 -5.161235,-1.56749 -8.550135,-1.753704 -1.123627,-0.06174 -2.233781,-0.08929 -3.11715,-0.08431 z m 0.552807,2.090199 c -1.437551,0.08625 -2.121929,0.497772 -1.255578,0.755117 0.379664,0.112779 0.431843,0.317902 0.151714,0.600315 -0.234,0.235922 -0.319705,0.889279 -0.19008,1.452092 0.217495,0.944351 0.398307,1.023297 2.346361,1.023297 1.546096,0 2.328197,-0.199637 2.921834,-0.746396 0.932315,-0.858693 0.731195,-1.124876 -1.252091,-1.659223 -0.786084,-0.211792 -1.43431,-0.636362 -1.440426,-0.943351 -0.0076,-0.381554 -0.41299,-0.533974 -1.281734,-0.481851 z m 7.815971,0.15771 c 0.235526,0.0032 0.574776,0.164483 1.05852,0.45932 0.809284,0.49325 0.806043,0.555106 -0.113348,2.185407 -1.046931,1.85647 -2.635102,2.852833 -1.868545,1.172285 0.234991,-0.515175 0.427245,-1.595217 0.427245,-2.400532 0,-0.987457 0.10358,-1.421819 0.496128,-1.41648 z m 2.843361,0.696248 c 0.452534,0 0.67836,0.36357 0.67836,1.09234 0,1.411632 0.729512,3.000846 1.377649,3.000846 0.337825,0 0.409749,-0.434844 0.214495,-1.302377 -0.176245,-0.783065 -0.114955,-1.302377 0.15346,-1.302377 0.661297,0 1.136546,2.584028 0.563266,3.061894 -0.302356,0.252016 -0.332553,0.633111 -0.08109,1.02475 0.313004,0.487487 -0.0018,0.881592 -1.441297,1.803851 -1.012971,0.648931 -2.010755,1.179552 -2.217317,1.179552 -0.582365,0 0.973807,-1.802267 1.668002,-1.931762 0.484128,-0.09031 0.438668,-0.309797 -0.215366,-1.027657 -0.741177,-0.813509 -0.959529,-0.863866 -2.003693,-0.467315 -1.096881,0.416572 -1.140743,0.397086 -0.694927,-0.29725 0.26187,-0.407856 0.695021,-0.741309 0.96261,-0.741309 0.30249,0 0.385388,-0.422269 0.218852,-1.116323 -0.165758,-0.690823 -0.08395,-1.116324 0.215366,-1.116324 0.292986,0 0.373713,-0.366744 0.204031,-0.930269 -0.206714,-0.686489 -0.102835,-0.93027 0.397602,-0.93027 z M 80.883,24.445648 c -0.0022,0.0054 -0.008,0.0056 -0.0096,0.01163 0.0027,-0.0013 0.0052,-0.0024 0.0079,-0.0036 4.46e-4,-0.0021 0.0045,-0.0051 0.0052,-0.0073 -0.0013,-2.13e-4 -0.0022,-4.84e-4 -0.0036,-7.44e-4 z m 0.185723,0.468769 c -4.47e-4,7.07e-4 -0.0013,0.0015 -0.0018,0.0022 0.0013,1.6e-4 0.0022,-1.67e-4 0.0036,0 -4.46e-4,-6.7e-4 -8.93e-4,-0.0015 -0.0018,-0.0022 z m 10.620095,2.380182 c 0.08964,-0.02612 0.262178,0.154639 0.599016,0.518915 0.378486,0.409319 0.881624,1.037251 1.117815,1.395405 0.312415,0.473755 0.266241,0.651188 -0.16741,0.651188 -0.942324,0 -1.668626,-0.809026 -1.65318,-1.841643 0.007,-0.464452 0.01411,-0.697745 0.103759,-0.723865 z M 3.4391323,29.766354 c -0.061935,-0.117122 -0.1060312,0.540283 -0.1072473,1.768238 -0.00162,1.637275 0.074971,2.353696 0.1708981,1.591633 0.095927,-0.762062 0.097791,-2.10165 0.00349,-2.976862 -0.023576,-0.218803 -0.046491,-0.343969 -0.067139,-0.383009 z m 82.8227987,0.48185 c 0.236915,-0.03107 0.398472,0.05437 0.398472,0.266726 0,0.155429 -0.401784,0.491499 -0.892855,0.747122 -0.977516,0.508839 -1.210998,0.12782 -0.35749,-0.583598 0.302338,-0.252009 0.614958,-0.39918 0.851873,-0.43025 z m 7.618048,2.030604 0.406316,1.116323 c 0.362883,0.997406 0.251798,1.2241 -1.042829,2.129445 -1.504073,1.051811 -2.565213,1.317705 -2.565213,0.642468 0,-0.215103 0.703123,-0.636065 1.562497,-0.935357 1.312943,-0.457257 1.56863,-0.736613 1.600863,-1.748616 z M 88.797502,32.5012 c 0.499785,0.02443 1.205609,0.259023 2.210339,0.707877 0.942253,0.420945 1.329234,0.744216 0.891115,0.744216 -0.426062,0 -1.1964,0.351852 -1.71247,0.782007 l -0.938195,0.782008 0.304303,-1.154115 c 0.236718,-0.898352 0.15225,-1.154116 -0.379289,-1.154116 -0.375616,0 -0.887601,0.293035 -1.137869,0.651189 -0.496749,0.710884 -0.646324,0.138842 -0.211008,-0.806718 0.179986,-0.390948 0.473289,-0.576776 0.973074,-0.552348 z m -13.409398,0.778374 c -0.769525,-0.123525 -1.087649,0.666155 -0.474329,1.177373 0.46795,0.390046 1.255578,0.05768 1.255578,-0.529818 0,-0.287132 -0.351562,-0.578581 -0.781249,-0.647555 z M 3.4461077,36.158322 c -0.057762,-0.115339 -0.098528,0.867186 -0.098528,2.632372 0,2.353582 0.071841,3.316411 0.160435,2.13962 0.088594,-1.176791 0.088594,-3.102449 0,-4.27924 -0.022149,-0.294197 -0.042653,-0.454305 -0.061907,-0.492752 z m 90.3806793,0.06759 c 0.243968,0.03691 0.425436,0.2986 0.579833,0.790729 0.350013,1.115638 -0.236611,1.521156 -1.279988,0.88521 -0.72399,-0.441261 -0.762659,-0.609269 -0.256348,-1.117777 0.405633,-0.407392 0.712539,-0.595076 0.956503,-0.558162 z m -59.340876,4.915167 c 2.689151,-0.07927 7.97567,0.24625 9.763862,0.713692 1.952306,0.510338 1.971179,0.529379 0.669641,0.683893 -1.697767,0.201552 -9.958649,-0.207937 -11.287994,-0.559616 -0.551047,-0.145781 -0.885204,-0.422179 -0.742883,-0.614123 0.09349,-0.126093 0.70099,-0.197422 1.597374,-0.223846 z m 64.309129,0.691161 1.54331,0.75875 c 0.92427,0.454541 2.41993,1.897009 3.73012,3.596072 1.2031,1.560196 2.65023,3.327529 3.21568,3.927482 0.56544,0.599953 1.61005,1.939541 2.32107,2.976863 7.2263,10.542587 7.20278,10.493406 7.11058,15.117604 -0.0725,3.637424 -1.26559,9.510003 -2.3978,11.803523 -0.39976,0.809815 -0.4788,0.822481 -1.7395,0.279081 -0.72635,-0.31308 -1.53147,-0.569064 -1.7892,-0.569064 -0.78727,0 -0.52032,1.050363 0.31302,1.231881 0.52531,0.114427 0.56187,0.174608 0.11161,0.183873 -1.0076,0.02076 -1.94939,-0.352512 -2.52162,-1.000039 -0.33248,-0.376242 -0.50556,-2.46191 -0.49177,-5.934829 l 0.0218,-5.354866 1.73078,0.193325 c 0.95186,0.106404 2.52307,0.520479 3.49208,0.920093 1.86512,0.769105 2.23302,0.719775 2.23302,-0.297977 0,-0.785352 -3.15821,-1.84891 -5.48967,-1.84891 -1.59576,0 -1.71219,-0.08874 -2.81458,-2.13962 -2.01116,-3.74154 -3.66071,-7.486582 -3.9699,-9.011986 -0.16479,-0.813007 -0.6846,-1.886482 -1.15531,-2.38527 -0.47071,-0.498788 -0.85623,-1.060719 -0.85623,-1.248597 0,-0.187862 -0.47677,-0.714603 -1.0594,-1.170829 -0.582622,-0.456227 -1.417839,-1.492618 -1.856334,-2.303143 -0.719395,-1.329742 -0.743052,-1.778686 -0.23978,-4.598292 z m -61.610509,2.040051 c 0.838666,0.0069 1.952394,0.03159 3.419706,0.06614 3.355339,0.07901 6.14014,0.171873 6.188081,0.206404 0.04794,0.03453 -0.419181,1.230319 -1.038467,2.657084 -0.619287,1.426762 -1.234943,2.888599 -1.368057,3.248676 -0.204215,0.552394 -0.705535,0.639601 -3.206084,0.558162 -5.716608,-0.186188 -5.566558,-0.108291 -5.67713,-2.938346 -0.05307,-1.358387 -0.29936,-2.78651 -0.547571,-3.173089 -0.325637,-0.507165 -0.286474,-0.64567 2.229522,-0.625026 z m 59.56671,0.352487 c 0.137843,-0.04645 0.03661,0.596771 -0.335696,1.941208 -0.459093,1.657796 -0.421499,2.10082 0.285995,3.408567 0.893262,1.651124 0.820628,2.035366 -0.258964,1.372147 -1.67088,-1.026463 -1.837304,-1.977608 -0.789096,-4.523435 0.582748,-1.415349 0.959913,-2.152037 1.097761,-2.198487 z m -20.720526,5.023455 c -0.232451,0.03416 -0.45545,0.122349 -0.637379,0.27399 -0.252057,0.210096 -0.332146,0.65549 -0.177874,0.990592 0.405771,0.881393 2.293174,0.578773 2.293174,-0.367747 0,-0.615697 -0.780566,-0.999277 -1.477921,-0.896835 z m -36.205982,2.658535 c 0.05892,-0.07745 0.220541,0.03144 0.519669,0.279806 0.369733,0.306989 0.777565,1.269818 0.906807,2.13962 0.129239,0.869802 0.149059,1.581458 0.0436,1.581458 -0.27727,0 -1.086285,-1.860989 -1.375032,-3.162916 -0.110168,-0.49673 -0.153965,-0.760521 -0.09504,-0.837968 z m 35.807514,0.04506 c -1.12173,-0.04085 -1.537131,1.099444 -0.244143,1.534944 0.694137,0.233795 0.669249,0.298929 -0.223214,0.58578 -0.950993,0.30566 -1.353492,1.420625 -0.707132,1.959378 0.454834,0.379118 1.400667,0.29539 1.733394,-0.153346 0.163642,-0.220697 0.387142,-1.120632 0.496999,-1.999353 0.155334,-1.242494 0.03665,-1.649513 -0.534495,-1.832196 -0.186133,-0.05954 -0.361169,-0.08937 -0.521409,-0.09521 z m -32.413095,0.271813 c 0.538004,-0.0204 1.102085,0.130383 1.253835,0.335042 0.151749,0.20466 0.213639,0.355441 0.137764,0.335042 -0.07587,-0.0204 -0.639996,-0.171184 -1.253834,-0.335042 -1.038952,-0.277339 -1.048295,-0.30051 -0.137765,-0.335042 z m -6.483664,0.271084 c 0.104356,-0.04839 0.339719,0.234611 0.61907,0.771108 0.36246,0.69611 0.597605,1.316637 0.523157,1.378689 -0.268735,0.223998 -1.216836,-1.346866 -1.199775,-1.987725 0.0025,-0.09272 0.02276,-0.14593 0.05755,-0.162072 z m 9.959174,0.09884 c 0.404507,-0.06785 1.936281,0.612159 3.690875,1.703558 l 1.449145,0.901197 -0.974815,1.098883 c -1.007123,1.135423 -1.412238,1.199716 -5.270811,0.8307 -1.396183,-0.133527 -3.086684,-1.250036 -3.115403,-2.057495 -0.0055,-0.153495 0.786923,-0.279081 1.760425,-0.279081 1.319139,0 1.893262,-0.191829 2.253065,-0.752209 0.265529,-0.413545 0.360492,-0.915891 0.211878,-1.116323 -0.149369,-0.201452 -0.13904,-0.306613 -0.0044,-0.32923 z m 6.037237,4.058301 c 0.02304,0.0192 -0.112103,0.170042 -0.389754,0.465135 -0.5832,0.619838 -0.949529,0.817182 -0.949529,0.510922 0,-0.07727 0.351562,-0.370303 0.781248,-0.651188 0.354031,-0.231429 0.53499,-0.344077 0.558035,-0.324869 z m 22.044983,0.38083 c -0.35474,0.07224 -0.616454,0.453071 -0.616454,1.107601 0,0.856938 0.201531,1.116323 0.866699,1.116323 1.159668,0 1.512305,-0.564562 0.924244,-1.480438 C 75.57968,57.197294 75.131623,56.9605 74.776882,57.032696 Z m 6.461867,0.396816 c -0.0013,-3.72e-4 -0.0027,2.01e-4 -0.0036,7.44e-4 0.01429,0.0072 0.02848,0.01455 0.04272,0.02181 0.0045,2.87e-4 0.0094,2.42e-4 0.01393,7.45e-4 -0.02031,-0.0092 -0.03973,-0.01834 -0.05319,-0.02326 z m 20.524341,1.065448 c 0.29903,0.181876 1.19143,1.872171 2.15192,4.11063 1.62438,3.785676 2.0422,5.291943 2.24522,8.093345 0.13719,1.893098 0.15714,3.441997 0.0445,3.441997 -0.11264,0 -0.45563,-0.460483 -0.76294,-1.023297 -0.93111,-1.705247 -4.33814,-5.792054 -5.79136,-6.947222 -0.936895,-0.74474 -1.231756,-1.221794 -0.937324,-1.517504 0.364232,-0.365812 0.884717,-1.445605 2.959324,-6.140504 0.017,-0.03838 0.048,-0.04333 0.0907,-0.01745 z m -26.208446,4.19639 c -0.681445,0.08169 -1.309939,0.409021 -1.117815,0.82634 0.134862,0.292938 0.680285,0.603283 1.21198,0.689709 0.531695,0.08643 1.117641,0.179985 1.301792,0.207856 0.453468,0.06863 0.411446,-0.760205 -0.07063,-1.394679 -0.133482,-0.175679 -0.374084,-0.279155 -0.65482,-0.323414 -0.210553,-0.03319 -0.443365,-0.03304 -0.670512,-0.0058 z m -2.253067,1.943389 c -0.35883,0.184852 0.153192,2.900986 0.680976,3.612791 0.241094,0.325155 1.07073,0.436144 1.07073,0.143176 0,-0.09271 -0.18737,-0.553191 -0.415909,-1.023297 -0.228545,-0.470117 -0.535763,-1.322062 -0.682722,-1.893247 -0.14696,-0.571182 -0.440513,-0.948901 -0.653075,-0.839423 z m 3.373493,0.575606 c -1.220381,0 -1.845299,0.513743 -1.382876,1.1374 0.448758,0.605225 2.188469,0.246234 2.35595,-0.486211 0.109853,-0.480425 -0.144959,-0.651189 -0.973074,-0.651189 z m 33.05484,0.400451 c -1.39426,-0.02337 -1.67953,0.09091 -1.55814,0.622845 0.11653,0.51061 0.7426,0.691354 2.89829,0.837243 1.51206,0.10233 2.89926,0.31164 3.08314,0.465135 0.5949,0.496596 1.14759,0.295993 0.99575,-0.361205 -0.17087,-0.73952 -2.8801,-1.521478 -5.41904,-1.564018 z m -32.689501,1.832196 c -1.296399,0 -1.789479,0.603506 -1.077703,1.318366 0.645592,0.648391 1.40868,0.694368 2.091759,0.125006 0.747775,-0.623288 0.171384,-1.443372 -1.014056,-1.443372 z m 22.503621,1.122865 c 0.157473,0.0037 0.76705,0.429014 1.35498,0.945529 1.05894,0.930314 1.06098,0.945563 0.19531,1.617798 -0.48064,0.373232 -1.300616,0.868716 -1.821464,1.10106 -1.23806,0.552282 -1.45176,0.53294 -1.45176,-0.128638 0,-0.743862 1.364484,-3.543787 1.722934,-3.535749 z m -21.142539,1.20063 c -1.51447,-0.161409 -2.186201,0.427034 -1.574702,1.379415 0.323745,0.504213 0.78594,0.737506 1.198899,0.6054 0.369553,-0.118196 0.870052,-0.215123 1.112583,-0.215123 0.862989,0 0.166303,-1.673443 -0.73678,-1.769692 z m 8.789916,7.418899 c 0.286531,-0.02787 0.247901,0.121973 -0.03924,0.550894 -0.2517,0.376041 -0.811329,1.730447 -1.243368,3.009567 -0.432044,1.279121 -0.955025,2.325674 -1.162284,2.325674 -1.029248,0 -2.086638,-0.87941 -2.568704,-2.136714 -0.83299,-2.172581 -1.475301,-2.426217 -1.185824,-0.468041 0.199486,1.349427 0.588526,1.92731 2.006313,2.976863 1.096333,0.811589 1.859934,1.752564 2.026362,2.497193 0.146893,0.657205 0.12292,1.243275 -0.05319,1.302377 -0.782338,0.262541 -5.705212,-0.161688 -6.249988,-0.538541 -0.465753,-0.322193 -0.53028,-1.062769 -0.281633,-3.234867 0.177365,-1.549412 0.324718,-3.066216 0.327843,-3.370771 0.0074,-0.713346 0.945864,-1.492793 1.797045,-1.492793 0.365379,0 0.730794,-0.15525 0.812642,-0.345215 0.08184,-0.189961 1.150261,-0.442574 2.374263,-0.561072 1.223975,-0.118498 2.593298,-0.312232 3.042159,-0.430975 0.170656,-0.04515 0.302089,-0.07429 0.397597,-0.08358 z m 4.125969,0.02906 c 0.106313,-0.01913 0.232871,0.596541 0.311281,1.859084 0.0598,0.962956 -0.02951,1.866251 -0.197928,2.006621 -0.168406,0.14049 -0.306049,-0.721918 -0.306049,-1.915763 0,-1.276653 0.08638,-1.9308 0.192696,-1.94993 z M 114.4017,89.025244 c 0.59016,0 2.0361,2.65778 2.37863,4.372267 0.17377,0.869802 0.22201,1.581458 0.10724,1.581458 -0.21898,0 -3.05832,-2.847067 -3.5906,-3.600433 -0.34412,-0.487059 0.53209,-2.353292 1.10473,-2.353292 z M 3.5969514,92.661289 c -0.4565682,-0.009 -0.4494229,2.098763 -0.2014156,13.108811 0.1682673,7.47006 0.5011191,14.33201 0.7393959,15.24915 0.2914803,1.12192 0.2832763,1.70964 -0.024414,1.79513 -0.8464537,0.23518 -1.0882609,2.60032 -0.3304612,3.23196 0.3823607,0.3187 1.6381941,1.58006 2.7910451,2.80316 1.3179809,1.39831 2.4289515,2.22393 2.9924602,2.22393 1.019389,0 1.059361,0.0509 -2.5390573,-3.23269 -2.7397001,-2.49999 -2.9523099,-2.8268 -2.3106121,-3.55828 0.4914393,-0.5602 1.0482246,-0.19197 4.9386063,3.26612 2.4864731,2.21018 4.7398631,3.89696 5.2054161,3.89696 0.451485,0 0.820485,-0.12935 0.820485,-0.28708 0,-0.41086 -9.5722665,-8.27147 -10.0733958,-8.27213 C 5.3559721,122.88601 5.1600566,118.10606 5.1193396,111.04574 5.0364741,96.676805 4.8159307,93.570899 3.8219091,92.774667 3.7371153,92.706746 3.6621755,92.66258 3.5969514,92.661289 Z M 69.922852,98.36428 c -0.06863,-0.0061 -0.156951,0.0066 -0.264192,0.03632 -0.613512,0.170459 -1.641827,2.22029 -3.570551,7.11584 l -1.000105,2.53716 1.023645,2.48629 c 0.563044,1.36746 1.315185,2.87727 1.670618,3.35551 0.355436,0.47824 0.565231,0.93735 0.466481,1.01966 -0.09875,0.0823 -1.895184,0.21072 -3.991689,0.28563 -2.096505,0.0749 -3.991831,0.22946 -4.212291,0.34303 -0.220455,0.11357 -1.302868,0.0661 -2.405651,-0.10465 -1.160109,-0.17965 -2.181139,-0.16782 -2.422219,0.0276 -0.706614,0.57294 0.06504,0.82241 2.410009,0.77838 1.604028,-0.0301 2.247835,0.0999 2.247835,0.45496 0,0.27365 1.155132,1.17334 2.566959,1.99935 1.411828,0.826 2.949347,1.85484 3.417092,2.28642 0.46774,0.43161 1.245953,0.78492 1.729032,0.78492 0.765878,0 0.80028,-0.0783 0.266812,-0.61412 -0.33649,-0.33795 -2.219286,-1.55195 -4.183514,-2.69778 -3.018378,-1.76078 -3.408962,-2.10252 -2.522491,-2.20721 1.622591,-0.19162 2.828526,0.19836 4.52967,1.4659 0.859373,0.64032 2.453084,1.80219 3.541774,2.5815 1.640997,1.17465 1.885831,1.51056 1.431707,1.96664 -0.486606,0.48872 -0.354852,2.05063 0.248504,2.94707 0.103308,0.15349 0.479464,0.27908 0.836177,0.27908 0.710686,0 0.72249,0.11872 -0.714981,-7.15363 -0.602387,-3.04753 -1.111364,-4.42766 -2.153665,-5.83962 -0.771749,-1.04544 -1.473854,-2.60614 -1.615684,-3.59098 -0.137969,-0.958 -0.348388,-1.87407 -0.468227,-2.03569 -0.119839,-0.16163 -0.0237,-0.34998 0.214495,-0.41863 0.357973,-0.10316 1.277297,-2.37872 3.039543,-7.524281 0.124781,-0.364323 0.09081,-0.546529 -0.115093,-0.564699 z m 16.837824,2.51246 c 0.0515,-0.0109 0.09108,7.4e-4 0.121196,0.0349 0.144584,0.16322 0.06195,0.83198 -0.0558,1.89397 -0.297271,2.68097 0.262357,5.53127 1.823207,9.29107 0.996132,2.39953 1.009127,4.89538 0.03576,6.79024 -0.477525,0.9295 -1.021292,0.81527 -4.023956,-0.84742 -1.467943,-0.81285 -2.874191,-1.48281 -3.124994,-1.48843 -0.738583,-0.0164 -2.46495,-3.22352 -2.46495,-4.57865 0,-1.34137 0.715315,-2.52507 4.318665,-7.14709 2.083291,-2.67224 3.010334,-3.87242 3.370878,-3.94855 z m 5.666667,1.17228 c -0.291477,0 -0.401423,0.50063 -0.278147,1.26313 0.218732,1.35289 0.509714,1.8962 1.567729,2.92308 0.61587,0.59775 1.872032,0.908 1.872032,0.46223 0,-0.1041 -0.602677,-0.88287 -1.339283,-1.73044 -0.736605,-0.84758 -1.339283,-1.85113 -1.339283,-2.22974 0,-0.37862 -0.217482,-0.68826 -0.483048,-0.68826 z m -47.712832,0.15916 c -1.462935,-0.0727 -2.950428,0.003 -3.805099,0.26092 -1.667289,0.50252 -3.229074,2.44145 -2.770118,3.43836 0.346089,0.75175 1.199774,0.79987 1.199774,0.0676 0,-0.80518 2.666273,-2.31042 4.603786,-2.59894 2.094079,-0.31184 4.771196,0.35782 4.771196,1.19336 0,0.33128 0.544374,1.25693 1.209363,2.05677 1.304257,1.56872 1.512444,3.5863 0.566758,5.48931 -0.630762,1.26928 -3.788269,2.1911 -8.482128,2.47612 -3.174687,0.19277 -3.436724,0.1488 -4.799098,-0.80672 -1.217299,-0.85377 -1.441298,-1.2622 -1.441298,-2.63019 0,-0.8907 0.182964,-1.7135 0.406318,-1.82856 0.223355,-0.11506 1.344528,0.12566 2.491974,0.53563 3.331979,1.19048 6.961239,0.85919 8.213572,-0.75003 l 0.718469,-0.923 -1.211981,0.65119 c -2.199444,1.18176 -5.162059,0.77752 -6.324973,-0.86341 -0.832628,-1.17487 -1.614813,-1.43272 -1.614813,-0.532 0,0.34333 -0.418686,0.55817 -1.087296,0.55817 -3.597641,0 -4.661462,2.01967 -2.482382,4.71094 0.735847,0.9088 1.337539,1.68976 1.337539,1.73553 0,0.0458 -3.709872,0.10736 -8.244089,0.13736 -4.534217,0.03 -8.471805,0.17249 -8.75068,0.31615 -0.301978,0.15556 0.440226,0.69332 1.83541,1.32926 2.639736,1.20323 4.315993,2.21802 8.373135,5.07143 1.579661,1.11099 3.032414,1.86342 3.315946,1.71737 0.526535,-0.27125 0.314373,-0.4425 -6.01631,-4.85776 -1.902898,-1.32715 -3.459815,-2.48154 -3.459815,-2.5655 0,-0.084 0.553871,-0.15263 1.230292,-0.15263 1.165612,0 5.086698,2.1642 9.64092,5.32071 2.38346,1.65196 3.76816,2.32303 4.145151,2.0088 0.357026,-0.29759 0.546794,-0.15977 -5.354517,-3.90568 -2.353092,-1.49365 -4.39535,-2.87234 -4.537518,-3.06407 -0.14991,-0.20219 0.471268,-0.29014 1.477919,-0.20932 1.417639,0.11382 2.628526,0.76044 6.606607,3.52921 2.678947,1.86457 5.153161,3.3904 5.498385,3.3904 0.952904,0 -0.491755,-1.20288 -4.858389,-4.04667 -3.763615,-2.45108 -3.776904,-2.46576 -2.347233,-2.5815 1.525255,-0.12348 1.783409,0.0182 8.209212,4.52125 1.934735,1.35582 3.354751,2.0916 3.777197,1.95648 0.491069,-0.15707 -0.09726,-0.759 -2.14233,-2.19122 -1.550471,-1.08584 -3.52207,-2.37609 -4.381444,-2.86785 -2.077637,-1.18887 -2.912331,-2.23265 -1.78571,-2.23265 0.245535,0 0.396204,0.20931 0.33482,0.46514 -0.07339,0.30585 0.588038,0.50276 1.931323,0.5756 1.614096,0.0875 2.494033,0.42194 4.192235,1.59164 1.182126,0.81422 2.271699,1.37228 2.421348,1.2406 0.149648,-0.13169 -0.100878,-0.42882 -0.557163,-0.66064 -1.748888,-0.88854 -2.965311,-1.79435 -2.767503,-2.06113 0.27758,-0.37436 4.852714,0.13376 5.031901,0.55889 0.267544,0.63475 0.799507,1.0822 2.359442,1.98409 0.859373,0.49685 2.26562,1.31629 3.124994,1.8213 1.025297,0.60251 0.603213,0.11987 -1.227677,-1.40413 -1.534595,-1.27738 -2.790173,-2.37177 -2.790173,-2.43251 0,-0.0607 0.315817,-0.21155 0.701905,-0.33504 0.898061,-0.28725 1.853184,0.15031 5.917779,2.71086 1.820599,1.1469 3.680452,2.31033 4.132072,2.58586 0.451624,0.27552 1.071002,0.43162 1.376779,0.34667 0.713784,-0.19832 -3.26961,-3.4039 -5.157464,-4.1506 -0.772494,-0.30555 -1.873536,-0.97262 -2.447504,-1.48189 -0.911775,-0.80896 -1.403934,-0.92109 -3.896648,-0.88957 -2.671785,0.0338 -4.240074,-0.35564 -2.962816,-0.7355 0.311339,-0.0926 1.366024,-0.76701 2.343746,-1.4986 1.613443,-1.2073 1.777862,-1.49851 1.777862,-3.15274 0,-3.2206 -1.64834,-6.30067 -3.912345,-7.31061 -0.756982,-0.33768 -2.19568,-0.55961 -3.658615,-0.6323 z m -1.933939,2.85331 c -0.667919,0.0162 -0.762938,0.21123 -0.762938,0.81036 0,0.48989 0.142631,1.00991 0.317383,1.15557 0.17475,0.14566 0.634979,-0.086 1.022772,-0.51456 0.486264,-0.53732 0.961211,-0.69701 1.529364,-0.51528 0.595018,0.19032 0.765986,0.11787 0.616454,-0.26091 -0.115421,-0.29237 -0.932662,-0.5759 -1.846746,-0.64029 -0.367614,-0.0259 -0.653649,-0.0405 -0.876289,-0.0349 z m 53.239992,4.77127 c -0.450379,0.0417 -1.120056,0.53736 -1.487511,1.2704 -0.341843,0.68194 -1.165131,1.59586 -1.829309,2.03133 -0.664173,0.43546 -1.078596,0.96595 -0.920757,1.17882 0.157839,0.21288 0.470093,0.38738 0.693182,0.38738 0.519642,0 4.005644,-3.83488 4.005644,-4.40643 0,-0.34835 -0.191027,-0.48653 -0.461249,-0.4615 z m 4.479096,1.89106 c -0.24553,0 -0.44643,0.16745 -0.44643,0.37211 0,0.20466 0.2009,0.37211 0.44643,0.37211 0.24554,0 0.44643,-0.16745 0.44643,-0.37211 0,-0.20466 -0.20089,-0.37211 -0.44643,-0.37211 z m -3.619375,2.23265 c -0.462624,0 -0.540802,1.24624 -0.101143,1.61271 0.430964,0.35922 1.041954,0.30419 1.041954,-0.0937 0,-0.64387 -0.542075,-1.51896 -0.940811,-1.51896 z m 45.255735,0.40772 c 0.33236,0.01 0.56668,0.0399 0.62343,0.0872 0.11351,0.0946 0.14389,0.87667 0.0671,1.73844 l -0.13951,1.56693 -1.69415,-1.62071 -1.69416,-1.62143 1.62702,-0.11774 c 0.44751,-0.0324 0.87789,-0.0425 1.21023,-0.0327 z m -125.715608,0.35467 c -0.171604,-0.0219 -0.331916,-0.0159 -0.475201,0.0196 -0.191047,0.0474 -0.35141,0.14714 -0.466483,0.30233 -0.138788,0.18718 0.502446,0.72611 1.424733,1.197 2.197244,1.12185 9.16483,5.82704 9.622609,6.49808 0.376454,0.55187 1.652306,0.73032 1.652306,0.23111 0,-0.28991 -5.109421,-3.9611 -7.74709,-5.56635 -0.754613,-0.45926 -1.804556,-1.25464 -2.333282,-1.76752 -0.548032,-0.5316 -1.162781,-0.84878 -1.677592,-0.91428 z m 68.900708,0.0509 c -1.350443,-0.009 -2.857137,0.12717 -3.348207,0.30306 -0.917333,0.32857 -0.854342,0.35288 1.440425,0.55453 0.546647,0.048 1.450663,0.35293 2.008925,0.67735 1.482926,0.8618 2.485236,0.82799 1.530238,-0.0516 -0.935476,-0.8616 -0.927878,-1.08442 0.04272,-1.29583 0.429687,-0.0936 -0.32366,-0.17817 -1.674104,-0.18751 z m -72.098072,0.1032 -3.2366002,0.13082 c -2.422583,0.0976 -3.2366008,0.2628 -3.2366008,0.65773 0,0.29252 0.4290966,0.52764 0.9634816,0.52764 1.0266431,0 3.9593654,1.72095 8.1891574,4.80615 2.447716,1.78535 3.793764,2.33281 3.793764,1.54221 0,-0.19246 -1.757809,-1.55416 -3.906243,-3.02556 -4.010678,-2.74678 -4.883867,-3.57807 -3.40837,-3.24649 1.123115,0.25239 10.007643,5.84842 10.302713,6.48935 0.219501,0.47679 1.476177,0.73421 1.476177,0.30234 0,-0.34568 -4.665029,-3.9766 -7.876136,-6.13033 z m 52.72032,1.31619 h 1.58168 c 1.261435,0 1.686354,0.19171 2.099603,0.94771 0.284951,0.52127 0.517928,1.19107 0.517928,1.48843 0,0.86888 -0.597178,0.63844 -2.455352,-0.94771 z m 37.628972,0 c -0.24553,0 -0.32264,0.16745 -0.17089,0.3721 0.15175,0.20466 0.47642,0.37211 0.72196,0.37211 0.24553,0 0.32264,-0.16745 0.17089,-0.37211 -0.15175,-0.20465 -0.47642,-0.3721 -0.72196,-0.3721 z M 6.7428716,117.3098 c -0.1057503,-0.0269 -0.1552686,0.007 -0.2153665,0.0574 -0.12444,0.10372 1.0238313,1.30415 2.5521365,2.66798 1.6821954,1.50116 3.1357104,2.47702 3.6839004,2.47248 0.701851,-0.006 0.303457,-0.47373 -1.772632,-2.08002 -3.1103107,-2.40647 -3.9307874,-3.03728 -4.2480384,-3.11786 z m 75.0966354,0.54363 c 0.07333,-0.0596 1.48943,0.56602 3.146793,1.39031 2.607155,1.29668 3.013387,1.64355 3.013387,2.57133 0,0.58978 -0.05022,1.05907 -0.111607,1.04292 -0.814807,-0.21448 -1.493846,-0.50463 -1.674104,-0.71515 -0.122768,-0.14338 -1.051918,-0.69305 -2.064728,-1.2217 -1.131168,-0.59043 -1.957572,-1.34652 -2.142331,-1.96011 -0.165214,-0.54939 -0.240745,-1.04796 -0.16741,-1.1076 z m 23.794083,0.0945 0.88239,0.88811 c 0.48523,0.48848 1.16736,1.09236 1.51628,1.34163 0.34893,0.2493 0.81544,0.35964 1.03672,0.24565 0.55992,-0.28844 -0.42861,-1.19429 -2.06385,-1.89107 z m -57.215125,1.71227 c -0.129937,0.1083 0.435897,0.70672 1.257324,1.32927 1.258596,0.95388 2.609682,1.48697 2.609682,1.02984 0,-0.30447 -3.656082,-2.53491 -3.867006,-2.35911 z m 81.011815,1.6992 c -0.23545,-0.003 -0.35924,0.10457 -0.35924,0.3285 0,0.1591 1.73282,1.5953 3.85044,3.19126 2.84112,2.14124 3.98121,2.79228 4.35005,2.48484 0.36885,-0.30744 -0.43572,-1.13929 -3.06919,-3.17382 -2.35796,-1.82168 -4.06575,-2.82223 -4.77206,-2.83078 z m -14.08689,0.0487 c -1.55418,-0.0148 -1.20136,0.58742 1.11607,1.90415 1.16629,0.66267 2.62276,1.58217 3.2366,2.04369 0.61384,0.46151 1.61691,1.16742 2.22952,1.5691 0.61261,0.40168 1.28305,0.64402 1.48926,0.53781 0.6453,-0.33243 -6.96898,-6.04425 -8.07145,-6.05475 z m 9.47438,0.0458 c -0.63616,0.10212 -0.29467,0.46746 1.50931,1.61416 1.28278,0.81541 2.63075,1.86221 2.99507,2.32568 0.69052,0.87841 1.08817,1.06854 1.08817,0.52109 0,-0.17658 -1.07374,-1.28232 -2.3856,-2.45722 -1.57751,-1.41282 -2.66298,-2.09103 -3.20695,-2.00371 z m 9.13433,0.0153 c -0.34149,0.0949 0.56558,0.95557 2.20336,2.09165 1.53095,1.06197 2.92139,1.93104 3.09012,1.93104 0.16873,0 -0.8229,-0.94173 -2.20336,-2.09238 -1.38047,-1.15066 -2.77091,-2.019 -3.09012,-1.93031 z m -14.40514,0.001 c -1.13226,0.1356 -1.091,0.17159 3.36564,2.92962 1.64631,1.01883 3.11445,2.01663 3.26276,2.21666 0.33118,0.44665 1.5564,0.48385 1.5564,0.0472 0,-0.17408 -1.1394,-1.05318 -2.53209,-1.95357 -1.39267,-0.90039 -3.02019,-2.02375 -3.61676,-2.49574 -0.60788,-0.48094 -1.50275,-0.80807 -2.03595,-0.74421 z m -9.65051,0.30012 c -0.8855,0 -0.0756,0.69539 3.70308,3.18036 3.77343,2.48149 5.26229,3.11227 3.38396,1.43393 -1.60902,-1.43771 -6.48803,-4.61429 -7.08704,-4.61429 z m -5.80269,0.37502 c -0.77199,-0.004 -0.80342,-0.0306 3.54875,3.12004 3.08908,2.23626 4.9107,3.00867 4.9107,2.08292 0,-0.50246 -7.63621,-5.19913 -8.45945,-5.20296 z m -43.7133,0.71951 c -0.148513,-0.0326 -0.245053,-0.0291 -0.279018,0.0167 -0.136562,0.18418 1.614426,1.43298 3.890551,2.77482 4.434205,2.61411 6.10284,3.19546 3.348207,1.16647 -2.342825,-1.72565 -5.920131,-3.72952 -6.95974,-3.958 z m -3.726622,0.0923 c -0.73316,0.0914 0.09288,0.83306 3.93676,3.53576 2.675401,1.88111 5.015159,3.43001 5.199311,3.44199 1.191319,0.0775 -0.237888,-1.38769 -3.93676,-4.03577 -2.918307,-2.08926 -4.565415,-3.02096 -5.199311,-2.94198 z m -47.7677648,0.15481 c -0.2987164,0.0731 0.7118656,1.12282 2.7622708,2.59457 2.313022,1.66026 3.011197,2.37775 2.82941,2.91073 -0.179902,0.52746 -0.06552,0.65135 0.450787,0.48621 0.436126,-0.13949 1.384377,0.32219 2.561728,1.24642 1.746663,1.37115 2.652408,1.79037 2.652408,1.22897 0,-0.32831 -6.941422,-5.90131 -9.246807,-7.42399 -1.179944,-0.77933 -1.8305668,-1.08675 -2.0097968,-1.04291 z m 4.7284708,0.2551 c -0.165255,0.13774 1.788186,2.08119 4.341335,4.31921 4.18641,3.66969 5.75822,4.71383 5.75822,3.82573 0,-0.16775 -0.452008,-0.63673 -1.004462,-1.04219 -0.552455,-0.40546 -1.626942,-1.31452 -2.388214,-2.02043 -2.758264,-2.55767 -6.413195,-5.32712 -6.706879,-5.08232 z m 37.924554,0.0175 c -0.114326,0.0953 0.326861,0.48296 0.980051,0.86122 0.653191,0.37827 1.515319,0.98057 1.915626,1.33872 0.753949,0.67455 1.442359,0.85834 1.394216,0.37211 -0.03848,-0.38882 -4.034684,-2.78478 -4.289893,-2.57205 z m -5.28476,0.0269 c -0.08442,0.002 -0.148684,0.0272 -0.1988,0.0712 -0.217399,0.19105 1.623523,1.81271 4.294249,3.78286 5.185986,3.8256 7.217174,4.38724 2.481513,0.68607 -4.420344,-3.45473 -5.986,-4.55516 -6.576962,-4.54015 z m -27.108276,0.21946 c -0.716812,0 -0.295748,0.81541 0.885008,1.71446 3.232845,2.46156 7.25445,5.87506 7.25445,6.15722 0,0.17324 0.429826,0.31469 0.955635,0.31469 0.740817,0 -0.136028,-0.92137 -3.897523,-4.09318 -2.669789,-2.25125 -5.008966,-4.09319 -5.19757,-4.09319 z m 13.01267,0 c -0.936839,0 -0.252549,0.7203 2.381238,2.50737 1.534596,1.04125 3.378489,2.40829 4.097195,3.03791 0.718705,0.62962 1.4164,1.05277 1.551162,0.94045 0.291601,-0.24306 -7.437087,-6.48573 -8.029595,-6.48573 z m 9.436016,0 c -1.009481,0 -0.362562,0.70496 2.166744,2.36129 1.450249,0.9497 3.509398,2.39335 4.575884,3.20798 1.825381,1.39429 3.05524,1.87752 3.05524,1.20135 0,-0.62816 -8.888911,-6.77062 -9.797868,-6.77062 z m -4.823511,0.15553 c -0.178497,0.14878 1.648098,1.84907 4.05883,3.7785 4.085334,3.26969 5.531917,4.13851 5.102529,3.0648 -0.3069,-0.76743 -8.820861,-7.12711 -9.161359,-6.8433 z m -8.449865,0.21658 c -0.324336,0 -0.589424,0.0976 -0.589424,0.21658 0,0.11901 1.757809,1.7898 3.906242,3.71308 3.516839,3.1483 5.022312,4.10704 5.022312,3.1978 0,-0.53496 -7.713222,-7.12746 -8.33913,-7.12746 z m -4.526184,0.0145 c -0.455625,0.009 1.06808,1.471 3.879213,3.72108 4.521736,3.61927 7.107764,5.09113 4.060574,2.31114 -3.566658,-3.25391 -7.24153,-6.04606 -7.939787,-6.03222 z m 58.050421,0.0502 3.335132,1.68756 c 3.14944,1.59376 4.174059,2.45203 3.548752,2.97323 -0.1505,0.12545 -1.294212,-0.30034 -2.540803,-0.94626 -1.246596,-0.64597 -2.453705,-1.17446 -2.682928,-1.17446 -0.827293,0 -0.391789,0.63394 0.727191,1.05891 1.683403,0.63932 4.213148,2.40551 4.213161,2.94125 2.7e-5,0.98742 -3.376806,-0.12257 -5.697185,-1.87289 -0.465664,-0.35137 -1.103551,-0.63885 -1.417756,-0.63885 -0.393236,0 -0.479959,-0.30366 -0.278147,-0.97388 0.161254,-0.53553 0.405888,-1.44156 0.543213,-2.01389 z m -25.171718,2.54005 c -0.794047,0 -0.189522,0.63262 1.861568,1.94921 1.104908,0.70924 2.108652,1.21765 2.230393,1.12941 0.292486,-0.21201 -3.517712,-3.07862 -4.091961,-3.07862 z m 69.411659,1.48844 c -1.1224,0 -0.5741,0.99937 1.19978,2.18758 0.98214,0.65788 1.78571,1.39661 1.78571,1.64106 0,0.24444 0.75335,1.05152 1.6741,1.79367 3.02331,2.43673 3.24852,1.73919 0.33482,-1.0371 -1.1049,-1.0528 -2.00892,-2.04605 -2.00892,-2.20649 0,-0.49468 -2.36473,-2.37872 -2.98549,-2.37872 z m 3.28456,0.0327 c -0.20806,-0.013 -0.29702,0.13492 -0.29297,0.43243 0.004,0.25583 1.01312,1.13493 2.24348,1.95357 1.23035,0.81864 3.38733,2.27731 4.79299,3.24141 3.66747,2.5154 4.39118,2.19223 0.97482,-0.43534 -1.58578,-1.21963 -3.09374,-2.22431 -3.35083,-2.23264 -0.25708,-0.008 -1.25217,-0.68507 -2.21121,-1.5037 -1.13143,-0.9658 -1.80952,-1.4341 -2.15628,-1.45573 z m -9.18229,0.3394 c -1.17366,0 -0.16852,1.11894 3.42058,3.8083 3.76,2.8174 4.65359,3.27094 3.74145,1.89833 -0.65555,-0.98651 -6.57941,-5.70663 -7.16203,-5.70663 z m -116.7748456,0.0494 c -0.082615,0.0266 -0.1340307,0.0928 -0.1621788,0.19623 -0.082906,0.30473 0.1990376,0.87631 0.626917,1.2704 0.4278797,0.39409 1.2993875,0.71376 1.9365545,0.71079 1.1255564,-0.005 1.1080363,-0.0413 -0.626917,-1.2704 -1.0003671,-0.70869 -1.526531,-0.98671 -1.7743757,-0.90702 z m 106.4782456,0.32306 c -1.11904,0 -0.68824,0.75061 1.01666,1.77115 1.04372,0.62476 2.75801,1.83126 3.80946,2.68179 1.71917,1.39065 2.84103,1.79586 2.79715,1.00949 -0.0216,-0.38685 -7.10495,-5.46243 -7.62327,-5.46243 z m 5.24029,0 c -1.02012,0 -1.02794,0.62825 -0.0113,0.91356 0.42969,0.12058 2.07044,1.21991 3.64641,2.4434 4.08645,3.17248 4.44198,2.75589 0.48305,-0.56615 -1.82923,-1.53494 -3.6823,-2.79081 -4.11813,-2.79081 z m -15.11926,0.37211 c -0.801992,0 -0.29418,0.54078 2.27312,2.42161 1.35045,0.98934 2.72019,2.10779 3.04391,2.48556 0.32372,0.37776 0.80358,0.5758 1.06637,0.44042 0.51199,-0.26374 -5.55661,-5.34759 -6.3834,-5.34759 z m 4.30821,0 c -1.20086,0 -0.76605,0.55859 1.26779,1.63015 1.07977,0.56889 2.33535,1.31647 2.79017,1.6614 0.45482,0.34494 1.41371,1.0064 2.131,1.46954 0.87975,0.56804 1.45129,0.71916 1.75606,0.46513 0.24847,-0.20712 0.36449,-0.43451 0.25809,-0.50583 -3.1957,-2.14192 -7.67652,-4.72039 -8.20311,-4.72039 z m -63.172139,1.16647 c -0.126597,-0.0134 -0.240924,0.007 -0.32087,0.0741 -0.131019,0.10921 -0.106041,0.37695 0.0558,0.59523 0.363709,0.49052 1.13438,0.52205 1.13438,0.0465 0,-0.32927 -0.489523,-0.67565 -0.869313,-0.71587 z m 40.373802,0.32196 c -0.572637,0 0.368178,0.80881 1.9383,1.66649 2.041952,1.11542 2.708964,1.18087 1.596501,0.15626 -0.789806,-0.72744 -2.913896,-1.82275 -3.534801,-1.82275 z m -76.9704092,0.74131 c -0.2759308,-0.003 -0.3765333,0.14489 -0.2040314,0.46804 0.3940844,0.73825 10.0258136,7.5093 11.0630356,7.7772 0.515306,0.13309 0.987547,0.25869 1.048931,0.27908 0.06138,0.0204 0.111607,-0.0945 0.111607,-0.2551 0,-0.16054 -1.155132,-1.0987 -2.566959,-2.08511 -1.411828,-0.98641 -2.67312,-2.14235 -2.803252,-2.56842 -0.135152,-0.4425 -0.763207,-0.89179 -1.463969,-1.048 -0.6747375,-0.15041 -1.9308801,-0.78925 -2.7919168,-1.41939 -0.986026,-0.72161 -1.9335607,-1.14362 -2.3934454,-1.1483 z m 25.8213072,0.0487 c -0.155087,-0.005 -0.331507,0.0182 -0.49264,0.072 -0.35613,0.11879 -0.250636,0.20743 0.269427,0.2253 0.470609,0.0161 0.73428,-0.0719 0.585936,-0.1955 -0.07417,-0.0618 -0.207635,-0.0964 -0.362723,-0.10175 z m -19.150178,0.35031 c -0.321708,-0.0675 -0.506987,0.0308 -0.381033,0.33141 0.08184,0.19532 2.307286,2.03725 4.945582,4.09318 2.638296,2.05593 5.11626,3.7378 5.506232,3.7378 1.134544,0 0.659648,-0.46251 -3.829513,-3.72762 -2.332585,-1.69657 -4.600498,-3.39404 -5.039749,-3.77196 -0.421431,-0.36258 -0.879811,-0.59531 -1.201519,-0.66281 z m 5.148741,0.72822 c -0.169425,0.007 -0.246756,0.10959 -0.246756,0.30089 0,0.16996 0.853793,0.83252 1.897318,1.47244 1.043525,0.63992 3.203118,2.16841 4.799097,3.39621 1.703646,1.31063 3.316519,2.23915 3.906243,2.24864 1.379089,0.0222 1.27094,-0.16154 -0.669642,-1.13668 -0.920757,-0.46268 -3.310674,-2.06727 -5.31092,-3.56555 -2.533409,-1.89763 -3.867064,-2.73731 -4.37534,-2.71595 z m 5.010105,0.002 c -0.235644,-0.0224 -0.346156,0.0856 -0.346156,0.31318 0,0.1778 2.012524,1.85228 4.472124,3.72108 3.540098,2.68976 4.749478,3.39767 5.80356,3.39767 1.700075,0 1.677781,-0.2034 -0.106375,-0.97243 -0.790856,-0.34088 -2.548665,-1.48447 -3.906243,-2.5408 -3.374484,-2.62566 -5.20998,-3.85321 -5.91691,-3.91876 z m 10.682003,0.15916 c -0.14248,-0.0218 -0.258284,-0.0119 -0.34354,0.032 -0.37676,0.19409 0.917228,1.45534 4.052726,3.94929 4.11841,3.27533 5.798329,4.25316 5.798329,3.37437 0,-0.26741 -3.794267,-3.41843 -7.662513,-6.36363 -0.755775,-0.57543 -1.417562,-0.92653 -1.845002,-0.99204 z m 5.05806,0.25074 c -0.630898,-0.11874 -0.235359,0.584 1.114326,1.53276 0.946961,0.66567 3.139502,2.25148 4.872339,3.52412 2.999909,2.20265 4.26635,2.78653 4.26635,1.96515 0,-0.20466 -0.15067,-0.37318 -0.334821,-0.37429 -0.184152,-0.001 -2.042407,-1.27735 -4.129456,-2.8366 -2.08705,-1.55925 -4.252932,-3.08836 -4.813049,-3.39766 -0.440902,-0.24348 -0.765389,-0.37396 -0.975689,-0.41353 z m 9.136945,0.22234 0.892856,0.84015 c 0.49107,0.4622 1.997764,1.47535 3.348207,2.25154 1.350444,0.7762 3.158476,1.92121 4.01785,2.54443 1.52826,1.1083 3.124993,1.51947 3.124993,0.80454 0,-0.19746 -0.452008,-0.55997 -1.004462,-0.80599 -0.552454,-0.24602 -2.410709,-1.3211 -4.129456,-2.3889 -1.718747,-1.06781 -3.828117,-2.23521 -4.687491,-2.59386 z m -42.7838156,0.97969 c -0.1229838,0.0111 -0.1864345,0.0979 -0.2153665,0.24637 -0.096964,0.49743 0.7539581,1.43755 2.6785661,2.9587 1.551371,1.22615 3.1722525,2.23255 3.6019391,2.23628 0.4296867,0.004 0.7812489,-0.0566 0.7812489,-0.13373 0,-0.0771 -1.556917,-1.41149 -3.459815,-2.96523 -2.113164,-1.72543 -3.0176213,-2.37563 -3.3865726,-2.34239 z m 76.3129776,0.12573 c 0.439316,-0.0406 1.284096,0.32424 3.01949,1.25295 1.628242,0.87138 2.960199,1.82658 2.960199,2.12218 0,0.2956 -0.531088,1.06367 -1.179721,1.70719 -0.648628,0.64353 -1.55172,1.38864 -2.007179,1.65559 -0.733708,0.43004 -0.883507,0.36641 -1.313127,-0.55816 -0.266691,-0.57394 -0.869418,-1.66257 -1.340153,-2.41943 -0.91303,-1.46799 -1.080949,-2.77521 -0.461249,-3.59026 0.07443,-0.0979 0.175298,-0.15653 0.32174,-0.17006 z m -49.84993,0.85686 c -0.260026,0 -0.348806,0.16745 -0.197056,0.37211 0.151749,0.20466 0.364308,0.37211 0.472585,0.37211 0.108277,0 0.197056,-0.16745 0.197056,-0.37211 0,-0.20466 -0.21256,-0.37211 -0.472585,-0.37211 z m 15.393036,0.36121 c -0.251156,-0.0503 0.192345,0.36622 1.37416,1.30529 1.227676,0.9755 2.7112,2.08827 3.296766,2.47248 0.966882,0.6344 2.28358,0.94236 2.28358,0.53417 0,-0.22208 -4.803181,-3.27064 -6.473201,-4.10844 -0.236363,-0.11858 -0.397587,-0.18674 -0.481305,-0.2035 z m 68.251125,0.0109 c -0.98604,0 -0.64343,1.02187 0.42201,1.25877 0.55246,0.12284 2.8125,1.46592 5.02232,2.98413 4.71705,3.24075 7.37044,3.97065 3.15725,0.8685 -3.26663,-2.40522 -7.82043,-5.1114 -8.60158,-5.1114 z m 5.22983,0 c -1.10495,0 -0.24953,0.78595 2.33851,2.14834 1.53663,0.80891 3.99756,2.32922 5.46874,3.37877 1.47118,1.04956 2.71906,1.90955 2.77274,1.91141 0.30788,0.0104 -0.57475,-1.38595 -1.17362,-1.8569 -2.95206,-2.32148 -8.44622,-5.58162 -9.40637,-5.58162 z m 5.7434,0 c -0.91854,0 -0.26155,0.66607 1.64969,1.67303 1.12468,0.59255 2.27981,1.33809 2.56696,1.65632 0.28715,0.31823 1.59837,1.37334 2.91398,2.3453 2.26096,1.67036 3.63508,2.20463 3.63508,1.41357 0,-0.19449 -0.27727,-0.48752 -0.61646,-0.65119 -1.16998,-0.56454 -4.49755,-2.90511 -5.86198,-4.12371 -1.30148,-1.16238 -3.43457,-2.31332 -4.28727,-2.31332 z m -15.87696,0.10102 c -0.1091,-0.004 -0.14404,0.0473 -0.0933,0.15989 0.0956,0.21201 1.6802,1.39488 3.52172,2.62874 1.84151,1.23387 3.85044,2.66127 4.46427,3.17237 0.61384,0.51109 1.51786,0.94285 2.00893,0.95934 0.70639,0.0237 0.50681,-0.25954 -0.95651,-1.35616 -3.80081,-2.84837 -8.1814,-5.53924 -8.94512,-5.56418 z m -5.19844,0.0698 c -0.15252,-0.007 -0.267,0.0241 -0.34616,0.0901 -0.31663,0.26392 0.14138,0.67923 1.46572,1.32854 1.05977,0.5196 3.09396,1.7975 4.52008,2.84023 2.33717,1.70888 3.91685,2.37118 3.85828,1.61707 -0.0266,-0.34276 -3.83866,-2.94669 -7.02513,-4.79888 -1.21602,-0.70683 -2.01522,-1.05742 -2.47279,-1.07708 z m -2.98026,0.45206 c 0,0.18025 0.45201,0.64497 1.00446,1.03202 0.55246,0.38705 1.9865,1.43361 3.18691,2.32567 1.20042,0.89206 2.28829,1.5332 2.41786,1.4252 0.12957,-0.108 0.152,-0.2446 0.0497,-0.30379 -0.10231,-0.0592 -1.64219,-1.16504 -3.42232,-2.45722 -1.78014,-1.29218 -3.23661,-2.20213 -3.23661,-2.02188 z m -3.938504,0.12137 c -0.44636,0 0.378602,0.92661 2.152795,2.4187 3.041929,2.55825 3.124999,2.61326 3.124999,2.07639 0,-0.62624 -4.542594,-4.49509 -5.277794,-4.49509 z m -65.495823,0.0741 c -0.147967,0.12333 0.5983,0.90609 1.658409,1.73989 2.679886,2.10781 3.278816,1.92698 0.70975,-0.21439 -1.154446,-0.96226 -2.220192,-1.64883 -2.368159,-1.5255 z m 27.766581,1.56765 c -0.101822,-0.0125 -0.175527,-0.006 -0.210134,0.0225 -0.131401,0.10952 0.218665,0.605 0.777762,1.10106 0.888512,0.78832 2.266375,0.94966 2.258295,0.26454 -0.0036,-0.31255 -2.113166,-1.30063 -2.825923,-1.38813 z m -55.5096202,0.2953 c -0.092026,-0.01 -0.1438683,0.0426 -0.1438683,0.15916 0,0.21148 0.1336376,0.49658 0.2973278,0.63302 0.1636902,0.13644 0.4015291,0.16098 0.528389,0.0552 0.1268599,-0.10573 -0.00678,-0.39011 -0.2973278,-0.63229 -0.1601701,-0.1335 -0.292495,-0.2054 -0.3845207,-0.21512 z m 72.1826492,3.02701 c -0.273794,-0.0127 -0.45166,0.01 -0.45166,0.0807 0,0.10381 0.452009,0.34036 1.004463,0.52546 1.317591,0.44143 2.874588,0.48247 2.321076,0.061 -0.364866,-0.27779 -2.052492,-0.62918 -2.873879,-0.66717 z m -2.7117,0.28852 c -0.356785,-0.038 -1.038859,-0.0127 -2.144071,0.0654 -1.562993,0.11048 -3.069686,0.40312 -3.348208,0.65046 -0.393892,0.34978 0.124593,0.40552 2.335022,0.24928 1.562993,-0.11048 3.069686,-0.40313 3.348208,-0.65046 0.196946,-0.17489 0.165834,-0.27668 -0.190951,-0.3147 z" />
    <text
       xml:space="preserve"
       style="font-size:16.3031px;line-height:1.25;font-family:Hultog;-inkscape-font-specification:Hultog;stroke-width:0.407577"
       x="14.305856"
       y="30.957945"
       id="text1021"
       transform="scale(1.0953204,0.91297486)"><tspan
         sodipodi:role="line"
         id="tspan1019"
         x="14.305856"
         y="30.957945"
         style="stroke-width:0.407577">XXI</tspan></text>
  </g>
</svg>
