<?xml version="1.0" encoding="UTF-8" standalone="no"?>
<!-- Created with Inkscape (http://www.inkscape.org/) -->

<svg
   version="1.1"
   id="svg2"
   width="4cm"
   height="4cm"
   viewBox="0 0 151.1811 151.1811"
   sodipodi:docname="22.svg"
   inkscape:version="1.1.2 (0a00cf5339, 2022-02-04)"
   xmlns:inkscape="http://www.inkscape.org/namespaces/inkscape"
   xmlns:sodipodi="http://sodipodi.sourceforge.net/DTD/sodipodi-0.dtd"
   xmlns="http://www.w3.org/2000/svg"
   xmlns:svg="http://www.w3.org/2000/svg">
  <defs
     id="defs6" />
  <sodipodi:namedview
     id="namedview4"
     pagecolor="#505050"
     bordercolor="#eeeeee"
     borderopacity="1"
     inkscape:pageshadow="0"
     inkscape:pageopacity="0"
     inkscape:pagecheckerboard="0"
     showgrid="false"
     inkscape:zoom="3.7828284"
     inkscape:cx="88.02937"
     inkscape:cy="84.460612"
     inkscape:window-width="1920"
     inkscape:window-height="1043"
     inkscape:window-x="0"
     inkscape:window-y="0"
     inkscape:window-maximized="1"
     inkscape:current-layer="g8"
     units="cm"
     inkscape:document-units="cm" />
  <!-- Border -->
  <path
     id="border"
     class="board-border"
     style="fill:none;stroke:#000000;stroke-width:0.1cm"
     d="M 0,0 H 151.18111 V 151.18111 H 0 Z" />
  <g
     inkscape:groupmode="layer"
     inkscape:label="Image"
     id="g8">
    <path
       id="path12"
       style="fill:#000000;stroke-width:0.421831"
       d="m 148.63485,2.2146853 -13.76939,0.211885 c -23.65174,0.364155 -67.108796,0.315016 -89.726666,0.02406 0.148109,0.438436 0.400328,1.17014 0.432045,1.261219 0.0082,0.05466 0.01523,0.0955 0.0236,0.148241 13.330291,0.114785 38.308423,0.416218 38.40106,0.499055 0.04545,0.04063 3.978767,0.02331 8.740558,-0.03803 13.363023,-0.172128 44.295523,-0.140156 50.413413,0.052 l 5.48538,0.1723 V 3.3804393 Z M 11.062532,3.9850483 c 0.08274,0.03161 0.174522,0.06972 0.241385,0.06908 -0.0807,-0.02215 -0.16078,-0.04649 -0.241385,-0.06908 z m 111.889398,2.293477 c -0.46049,-0.0089 -1.02794,0.01242 -1.77539,0.04346 -2.94816,0.122447 -3.1144,0.185311 -4.81369,1.818483 -0.96804,0.930374 -1.75966,1.82993 -1.75966,1.9993227 0,0.169393 0.30912,1.230798 0.68655,2.358673 0.50853,1.519656 1.14628,2.379068 2.46281,3.317974 1.64742,1.174874 1.77714,1.414042 1.78327,3.28693 0.007,2.270721 1.03076,6.518404 1.94332,8.064037 0.54101,0.91633 0.48362,1.209468 -0.56148,2.85307 -1.06088,1.668422 -1.17726,1.743019 -1.30225,0.838225 -0.27085,-1.960784 -2.40973,-5.303152 -4.8408,-7.564982 -2.17721,-2.025644 -2.74194,-2.33518 -4.6895,-2.572886 -1.21785,-0.148643 -3.44435,-0.144033 -4.94837,0.01086 -2.38678,0.245833 -2.92157,0.466085 -4.20498,1.727676 -0.80874,0.794991 -2.496982,2.445593 -3.751072,3.668787 -2.31502,2.257975 -2.69916,3.293012 -1.7859,4.807377 0.37233,0.617395 0.35592,0.894212 -0.0656,1.125395 -0.30758,0.168707 -0.43672,0.591007 -0.28686,0.937571 0.17158,0.396787 -0.0634,0.789522 -0.63495,1.060975 -0.7157,0.339915 -0.84719,0.675035 -0.62182,1.585643 0.1572,0.635149 0.12309,1.383172 -0.0761,1.661704 -0.19918,0.278533 -0.36672,0.684863 -0.37169,0.903422 -0.005,0.218643 -0.612717,0.318529 -1.350353,0.221973 -1.842031,-0.241127 -3.115141,-0.156079 -6.387057,0.4261 -2.152507,0.382999 -3.145063,0.392012 -4.253958,0.04036 -1.637469,-0.519282 -6.378804,-1.094336 -10.178363,-1.23483 -1.676292,-0.06198 -1.722257,-0.642743 -0.111946,-1.414118 1.833787,-0.878424 6.627227,-5.018879 7.391076,-6.384482 1.000715,-1.789072 0.409544,-4.912421 -1.259395,-6.654577 -2.617299,-2.732114 -7.662846,-4.755286 -12.01498,-4.818243 -4.606056,-0.06662 -7.124501,0.215121 -9.229445,1.031484 -2.301238,0.892493 -4.925634,3.513969 -4.925634,4.920693 0,0.771429 -0.231971,0.951305 -1.231409,0.953093 -0.677275,0.0012 -1.97402,0.185288 -2.881743,0.409023 -2.535157,0.624861 -5.257538,3.959838 -3.232448,3.959838 0.902963,0 3.395325,1.551334 3.122253,1.943441 -0.112273,0.161217 -1.323648,0.240874 -2.691958,0.176958 -1.368309,-0.06392 -2.48818,0.04694 -2.48818,0.246035 0,0.646833 1.796983,0.890184 4.509333,0.610818 1.72357,-0.177525 2.655227,-0.130105 2.655227,0.135823 0,0.719685 -1.807825,0.952984 -5.20375,0.67058 -2.267354,-0.188551 -3.304165,-0.139976 -3.304165,0.156003 0,0.237208 0.35263,0.434393 0.783624,0.43774 0.430993,0.0033 1.083477,0.174626 1.450053,0.380306 0.554495,0.311118 0.422805,0.596678 -0.783624,1.701287 -0.797569,0.730256 -1.450053,1.483953 -1.450053,1.674898 0,0.190945 -0.279898,0.629773 -0.621827,0.974827 -0.341929,0.345046 -1.1884,1.968275 -1.881221,3.607471 -1.10661,2.618207 -1.258317,3.511507 -1.245402,7.351545 0.01085,3.228076 0.260219,5.119947 0.952417,7.235125 0.969983,2.96402 4.793994,9.653561 5.5186,9.653561 0.84636,0 0.365717,1.332009 -0.96641,2.678439 -0.949565,0.959758 -1.23327,1.521126 -0.913937,1.804514 0.584173,0.518419 1.653224,-0.220173 2.552026,-1.762603 l 0.648061,-1.112976 1.561126,0.661266 c 1.81258,0.767064 1.871594,0.935267 0.665557,1.903859 -0.924958,0.742852 -1.208245,1.788214 -0.484517,1.788214 0.22614,0 0.729898,0.108712 1.119462,0.241377 0.493988,0.168223 0.70841,0.01097 0.70841,-0.520008 0,-1.316976 0.98334,-2.079518 2.158462,-1.674122 0.829464,0.286146 0.971358,0.538884 0.705785,1.255008 -0.503458,1.357604 -0.459311,2.387444 0.109323,2.563571 0.285776,0.08851 0.685782,-0.505631 0.909567,-1.350471 0.316616,-1.195373 0.628659,-1.530472 1.504276,-1.612035 1.923353,-0.179159 2.410288,0.388531 1.781521,2.079268 -0.394239,1.060093 -0.412235,1.596235 -0.06297,1.906184 0.349268,0.309953 0.677315,0.02372 1.167564,-1.017513 0.375074,-0.796634 0.682173,-1.656669 0.682173,-1.910842 0,-0.312898 0.542281,-0.382531 1.679194,-0.215766 0.923557,0.135471 2.304364,0.248307 3.068904,0.250692 1.339199,0.0042 1.424726,0.110082 2.335127,2.885668 1.004296,3.061851 1.186034,4.396725 1.057368,7.776092 l -0.08046,2.113414 -1.903086,-0.186272 c -2.987402,-0.292361 -3.998048,-0.850916 -6.157044,-3.40102 L 54.82389,79.38728 52.13718,79.36554 c -2.837112,-0.02309 -12.228111,1.251686 -14.253031,1.934902 -2.599259,0.876996 -0.381494,4.697773 3.618137,6.233134 0.800416,0.307258 1.455302,0.755723 1.455302,0.99656 0,0.24083 0.680915,1.72793 1.513025,3.30478 0.832105,1.57684 1.664408,3.29977 1.849737,3.82867 0.429865,1.22675 1.633108,2.78052 4.305556,5.557904 l 2.128729,2.2112 -1.764031,2.0684 c -0.970162,1.1376 -1.764026,2.42194 -1.764026,2.85463 0,0.43724 -0.300522,0.787 -0.676926,0.787 -1.042999,0 -3.777769,4.1089 -4.093032,6.15009 -0.185383,1.20026 -0.494852,1.79753 -0.932307,1.79753 -0.706671,0 -1.104802,-0.15323 -9.495313,-3.65249 -3.063391,-1.27759 -6.69045,-2.59917 -8.06013,-2.93767 -1.36968,-0.33849 -3.094439,-0.76915 -3.833284,-0.95697 -0.738846,-0.18782 -3.660643,-0.91045 -6.492883,-1.60582 -2.83224,-0.69537 -5.547833,-1.45193 -6.0346015,-1.68111 -1.176971,-0.55414 -3.816668,-1.07054 -3.816668,-0.74664 0,0.66936 6.1566015,2.76573 12.5379795,4.26951 2.685145,0.63276 7.690418,2.2129 10.522947,3.32186 0.985127,0.38569 2.590749,0.93098 3.568287,1.21232 0.977539,0.28134 3.899336,1.34795 6.492883,2.37032 4.783718,1.88572 5.549587,2.55716 4.522453,3.96604 -0.466474,0.63984 -2.80643,-0.0879 -12.792483,-3.98001 -1.195858,-0.4661 -5.33907,-1.90187 -7.836237,-2.7157 -1.108268,-0.36118 -2.216536,-0.76221 -2.462817,-0.891 -0.246282,-0.1288 -1.656805,-0.55017 -3.134495,-0.9368 -1.477691,-0.38662 -3.574987,-0.95519 -4.660637,-1.26354 -1.297903,-0.36864 -2.12514,-0.42696 -2.41559,-0.1692 -0.2904495,0.25776 0.0022,0.476 0.854464,0.63643 3.098183,0.58319 10.129005,2.77072 15.784421,4.91138 1.811331,0.68561 3.557711,1.24647 3.881387,1.24647 0.323675,0 1.1595,0.2548 1.856733,0.5658 1.541437,0.68756 4.422123,1.84808 7.885214,3.17672 2.443187,0.93735 2.571223,1.05522 2.287901,2.10255 -0.165062,0.61017 -0.343955,1.15887 -0.397934,1.21931 -0.214769,0.24046 -7.514378,-2.36605 -13.561238,-4.8423 -3.518018,-1.44067 -6.501167,-2.61946 -6.629317,-2.61946 -0.12815,0 -1.130264,-0.36237 -2.226681,-0.80563 -2.625494,-1.06141 -10.9486305,-3.5671 -11.8234475,-3.55935 -1.164366,0.0103 0.310806,0.67735 3.5674115,1.61281 1.600832,0.45984 3.515113,1.07101 4.253958,1.35823 0.738845,0.28722 2.350871,0.91554 3.58228,1.39704 1.231408,0.4815 2.843434,1.09917 3.58228,1.37221 1.211991,0.4479 3.321865,1.27507 7.164559,2.80883 0.738846,0.2949 2.350872,0.92093 3.58228,1.39084 4.634339,1.76844 7.836238,3.24639 7.836238,3.61756 0,0.2112 -0.301409,0.90122 -0.669929,1.53364 -0.398846,0.68446 -0.497869,1.24461 -0.244008,1.38385 0.808368,0.44336 1.891047,-1.75733 2.968325,-6.03367 1.898071,-7.53452 2.356863,-8.88774 3.634756,-10.73317 0.688514,-0.99429 1.773242,-2.60538 2.411215,-3.58108 1.893243,-2.89547 3.817783,-4.25153 5.967263,-4.20432 l 1.828745,0.0404 -1.455301,-0.55571 c -1.836734,-0.70119 -1.944489,-1.50683 -0.1548,-1.158 0.718145,0.13998 1.42629,0.0745 1.580364,-0.14668 0.397803,-0.57122 -1.213646,-1.23561 -2.997187,-1.23561 -1.01138,0 -1.817393,-0.29865 -2.412965,-0.89411 -1.875189,-1.874834 -6.199015,-8.711804 -7.56162,-11.956354 -0.715216,-1.703015 -1.074684,-2.026844 -3.150235,-2.841427 -2.254638,-0.884872 -3.489177,-2.289196 -2.587883,-2.943877 1.254576,-0.911302 8.480559,-2.31923 12.277355,-2.39205 l 2.941213,-0.05588 2.208315,2.368764 c 1.214594,1.303023 2.639419,2.856711 3.165978,3.452246 0.911637,1.03106 3.744078,10.214874 3.744078,12.139514 0,0.46727 0.648187,1.763274 1.440435,2.880244 2.613054,3.68408 1.659984,7.11916 -2.388481,8.60733 -0.897862,0.33004 -1.290879,0.75506 -1.290879,1.39626 0,0.50699 -0.212111,1.0383 -0.471396,1.1805 -0.25929,0.14221 -0.389842,0.46554 -0.290362,0.71871 0.09948,0.25317 -0.291589,0.99671 -0.868457,1.65239 -0.576877,0.65567 -1.402579,1.61847 -1.835743,2.1398 -0.433165,0.52133 -1.569115,1.72838 -2.524039,2.68232 -0.954924,0.95395 -1.600634,1.73466 -1.434314,1.73466 0.166321,0 0.751455,-0.46283 1.299629,-1.02838 l 0.996147,-1.02838 10.705733,3.82479 c 5.887759,2.10373 10.963868,3.73698 11.280331,3.62921 0.364828,-0.12424 0.743319,0.34313 1.035503,1.27674 0.725698,2.31882 0.49821,3.03932 -0.676048,2.14058 -0.233968,-0.17907 -1.936321,-0.82375 -3.783434,-1.43197 -3.026046,-0.99642 -13.92944,-5.31919 -17.188124,-6.81446 -0.710635,-0.32618 -1.415896,-0.47355 -1.567247,-0.32753 -0.151356,0.14603 -0.004,0.35162 0.327971,0.45637 0.332126,0.10475 3.538966,1.51013 7.126077,3.12394 3.587116,1.6138 6.766385,2.93456 7.064856,2.93456 0.830691,0 5.458884,1.88954 5.788848,2.36334 0.160316,0.2302 0.642424,0.41833 1.071361,0.41833 1.231741,0 3.189936,0.94046 3.193966,1.53364 0.0045,0.67704 -1.359798,0.40075 -4.681628,-0.94766 -1.33221,-0.54077 -2.698411,-0.98336 -3.036542,-0.98336 -0.338132,0 -1.006097,-0.26276 -1.484161,-0.58365 -0.478064,-0.32089 -1.137652,-0.58912 -1.465797,-0.59607 -0.643467,-0.0136 -5.672509,-1.89446 -9.179593,-3.43363 -1.190073,-0.52229 -2.368017,-0.94998 -2.617616,-0.94998 -0.2496,0 -1.054256,-0.37967 -1.788521,-0.84366 -0.920798,-0.58187 -1.479096,-0.71621 -1.799007,-0.43231 -0.685326,0.60818 -0.111105,1.15835 1.770147,1.69508 0.920127,0.26251 4.441974,1.53514 7.825742,2.82824 3.383772,1.2931 7.01083,2.58215 8.06013,2.86393 4.039078,1.08465 8.830651,3.21101 8.839383,3.92258 0.0084,0.68181 -0.899838,0.94931 -1.478918,0.43541 -0.744277,-0.66049 -3.888417,-1.64801 -4.132388,-1.29769 -0.146591,0.21049 0.856859,0.83944 2.229302,1.39704 1.372443,0.5576 2.495179,1.18366 2.495179,1.39161 0,0.52359 -2.328715,1.26289 -2.649978,0.84133 -0.3535,-0.46387 -7.680171,-3.44332 -16.380884,-6.66156 -7.930308,-2.93329 -9.627377,-3.45866 -9.627377,-2.97881 0,0.45535 2.426909,1.42704 8.591874,3.43906 2.92473,0.95452 6.066828,2.08837 6.982647,2.5201 0.915819,0.43174 3.433383,1.53188 5.594689,2.44405 2.161306,0.91217 4.036911,1.81229 4.168247,2.00088 0.450395,0.64672 2.301162,0.34284 3.947856,-0.64885 1.564775,-0.94236 1.703289,-0.9599 2.762797,-0.34383 0.613569,0.35677 1.236626,0.54099 1.384462,0.4098 0.147836,-0.1312 0.670652,-0.0476 1.161442,0.1855 0.49079,0.23309 1.37727,0.47154 1.970429,0.52932 1.39258,0.13566 1.485486,0.23588 1.799012,1.95042 0.285207,1.55972 0.194204,1.60702 -2.764549,1.45448 -1.341474,-0.0692 -1.341738,-0.068 -0.353329,0.5658 0.630338,0.40422 1.402776,0.54238 2.126979,0.38108 0.64014,-0.14258 1.136953,-0.0825 1.136953,0.13738 0,0.3876 8.104501,4.06694 8.958331,4.06694 0.24482,0 0.44516,0.14903 0.44516,0.33141 0,0.18239 -5.72092,0.31114 -12.7129,0.28562 l -12.712898,-0.0466 -2.317637,-1.27906 c -1.274785,-0.70325 -2.382019,-1.2783 -2.461066,-1.2783 -0.07905,0 -2.231837,-0.87013 -4.783956,-1.93335 -5.175647,-2.15619 -10.561784,-3.8726 -10.982101,-3.49959 -0.151459,0.13441 0.30658,0.43435 1.018012,0.66592 2.258995,0.73533 7.718259,2.91057 12.644678,5.03867 l 4.769085,2.06063 -3.694227,0.0256 c -2.664544,0.0189 -3.698417,-0.11207 -3.70997,-0.47034 -0.01603,-0.49629 -11.799282,-5.87051 -12.858074,-5.86447 -0.307852,0.002 -0.559731,-0.46266 -0.559731,-1.03149 0,-0.56882 -0.492201,-1.86528 -1.0941,-2.88101 -0.6019,-1.01573 -1.200149,-2.15936 -1.329362,-2.54184 -0.129217,-0.38248 -0.456172,-0.69541 -0.726777,-0.69541 -0.59752,0 -0.260374,1.05685 1.203422,3.76658 1.366828,2.53023 1.142537,3.1097 -1.069611,2.76071 -1.614825,-0.25476 -2.468106,-0.86987 -4.323048,-3.11773 -0.465491,-0.56392 -1.032927,-1.02526 -1.261145,-1.02526 -0.228216,0 -1.106509,-0.46845 -1.952062,-1.04079 -2.497754,-1.69068 -2.01497,-3.46803 1.148323,-4.22839 0.507199,-0.12191 0.427229,-0.27626 -0.326218,-0.6341 -0.739793,-0.35137 -1.201651,-0.35917 -1.796388,-0.0295 -0.862409,0.47795 -1.520649,0.25585 -10.638391,-3.59661 -2.462818,-1.0406 -5.434991,-2.2729 -6.604829,-2.7382 -1.169838,-0.4653 -3.041763,-1.22683 -4.159503,-1.69198 -1.11774,-0.46513 -2.136648,-0.7528 -2.264288,-0.63953 -0.231718,0.20563 15.854045,7.37052 20.305126,9.04429 1.292979,0.48621 2.344709,0.99616 2.336878,1.13316 -0.0078,0.13701 -0.305985,0.59065 -0.662058,1.0082 -0.618299,0.72506 -0.731464,0.73011 -2.527536,0.104 -1.03434,-0.36056 -1.97402,-0.57348 -2.087622,-0.47266 -0.113603,0.10081 0.30549,0.35616 0.931427,0.56735 0.625937,0.21119 1.26729,0.56875 1.424691,0.79476 0.157404,0.22602 1.133475,0.62427 2.169833,0.8848 1.847911,0.46453 4.863768,2.59162 5.773978,4.07238 0.360405,0.58631 -0.108778,0.46092 -2.161962,-0.57745 -3.442065,-1.74079 -4.216116,-2.08827 -8.346118,-3.74485 -3.349019,-1.34339 -4.792287,-1.82922 -14.20318,-4.78177 -2.339676,-0.73405 -5.511575,-1.77788 -7.04824,-2.31987 -1.5539015,-0.54806 -2.9066535,-0.82266 -3.0487865,-0.61858 -0.140556,0.20183 0.310174,0.56398 1.002269,0.80486 2.4962235,0.86876 12.5015055,4.00444 14.6562125,4.59316 1.211924,0.33113 4.133721,1.48591 6.492882,2.5659 2.359161,1.07999 5.045453,2.16504 5.969009,2.41145 0.923557,0.2464 1.679194,0.57209 1.679194,0.72413 0,0.15204 1.964656,1.05314 4.365903,2.00243 2.401247,0.94929 5.071945,2.18262 5.934902,2.74053 2.150255,1.39016 2.985284,1.84171 5.707508,3.08591 1.292979,0.59097 2.350871,1.21625 2.350871,1.38928 0,0.41888 -1.946127,0.40352 -2.485556,-0.0194 -0.233967,-0.18347 -2.233309,-1.01105 -4.443742,-1.83944 -2.210432,-0.82839 -5.132229,-2.00114 -6.492882,-2.60626 -1.360653,-0.6052 -3.481703,-1.49777 -4.713112,-1.98303 -1.231408,-0.48527 -2.390052,-0.96085 -2.574763,-1.0571 -0.184712,-0.0962 -0.335839,-0.008 -0.335839,0.19559 0,0.20385 1.259395,0.92285 2.798656,1.59806 1.539261,0.6752 4.434274,2.02123 6.433412,2.99122 1.999132,0.96999 3.997838,1.82605 4.441118,1.90231 0.443276,0.0762 0.885934,0.35279 0.9839,0.61392 0.26036,0.69397 -4.248055,0.55011 -4.548689,-0.14514 -0.125729,-0.29077 -0.688783,-0.52966 -1.25065,-0.53165 -0.561863,-0.002 -3.232667,-0.97576 -5.9349,-2.16386 -2.702233,-1.18811 -5.019521,-2.06562 -5.149528,-1.94966 -0.370859,0.33083 1.788549,1.73234 2.669218,1.73234 0.435124,0 1.042009,0.26823 1.348603,0.59607 0.306593,0.32784 1.036797,0.59607 1.622346,0.59607 1.273233,0 1.444606,1.03194 0.228265,1.37453 -0.825618,0.23255 -1.350257,0.10315 -4.649267,-1.14635 -2.181806,-0.82636 -2.181806,-0.20585 0,0.7839 l 1.679193,0.76139 -1.659952,0.12961 c -0.91313,0.0713 -2.097301,-0.0776 -2.631612,-0.33141 -0.641907,-0.30487 -1.066668,-0.3252 -1.251524,-0.0598 -0.265532,0.38128 -5.211994,0.52142 -18.174648,0.51613 -4.9814785,-0.002 -6.0521155,0.0986 -5.5745735,0.52234 0.376003,0.33368 33.3745315,1.36837 34.6036345,1.08504 0.212266,-0.0489 7.869392,-0.0581 17.015831,-0.0209 9.146442,0.037 18.695547,0.0601 21.219935,0.0512 2.524388,-0.009 4.589796,0.11398 4.589796,0.2732 0,0.15921 12.644331,0.24994 28.098513,0.20179 40.26431,-0.12543 36.38253,-0.0213 36.38253,-0.98181 0,-0.77733 -0.22124,-0.80954 -4.84517,-0.71093 l -4.84517,0.10322 -5.22125,-2.30434 c -2.87157,-1.26766 -5.47703,-2.22324 -5.78972,-2.12351 -0.31268,0.0997 0.64054,0.65996 2.11824,1.2457 5.40865,2.14393 6.02239,2.42609 6.03372,2.76925 0.0249,0.75159 -4.15924,-0.12492 -7.33597,-1.53675 -2.67508,-1.18888 -3.27519,-1.61627 -2.99981,-2.1367 0.18929,-0.35774 0.68442,-1.25237 1.10022,-1.98768 0.67914,-1.20102 0.68331,-1.3121 0.0394,-1.09279 -0.39427,0.13426 -0.89925,0.24448 -1.12209,0.24448 -0.22283,0 -0.71134,0.65002 -1.08535,1.44439 -1.14365,2.42903 -3.74927,4.68244 -5.71626,4.94319 -2.12218,0.28133 -2.42982,-0.0877 -1.25852,-1.51113 1.33037,-1.61671 2.39592,-6.56059 1.82175,-8.45288 -0.54261,-1.78829 -2.44189,-4.97121 -3.79393,-6.35809 -0.53266,-0.5464 -1.30154,-1.44051 -1.70892,-1.98691 -0.40739,-0.5464 -1.44344,-1.886 -2.3019,-2.97725 -0.85846,-1.09125 -1.88758,-2.70064 -2.28703,-3.57643 -0.39945,-0.87579 -1.01277,-2.0985 -1.36259,-2.71724 -0.34986,-0.61888 -0.63583,-1.33899 -0.63583,-1.60041 0,-0.52249 -2.1064,-2.69231 -3.17385,-3.26908 -0.81598,-0.44089 -4.14868,-6.37214 -3.83416,-6.82377 0.35769,-0.51361 -0.957212,-5.51206 -2.151462,-8.178134 -2.21705,-4.94935 -2.6536,-8.85482 -1.13958,-10.19841 0.49256,-0.43712 1.0467,-0.8083 1.23141,-0.82503 0.18471,-0.0167 0.71348,-0.0935 1.17543,-0.17075 0.461962,-0.0772 1.205682,0.0615 1.652082,0.3089 0.96429,0.53442 2.24987,0.0266 4.45337,-1.759492 l 1.42993,-1.158771 -0.23351,-3.263645 c -0.12832,-1.795248 -0.53654,-4.514636 -0.90694,-6.042983 -0.3704,-1.52835 -0.62051,-2.825516 -0.55623,-2.88256 0.0643,-0.05704 1.35639,1.550814 2.87212,3.57332 1.51575,2.022509 3.04305,4.00778 3.39337,4.411551 0.72932,0.840611 0.39433,2.026388 -1.3591,4.810478 -0.77245,1.226504 -1.6417,1.912262 -3.29454,2.599272 -1.23476,0.51323 -2.24505,1.08157 -2.24505,1.26278 0,0.54876 0.75948,0.37926 3.33565,-0.74199 1.35313,-0.58893 2.59526,-0.95042 2.76018,-0.80408 0.50038,0.44407 -1.70073,1.76732 -4.19274,2.52089 -1.29298,0.39099 -2.35087,0.84237 -2.35087,1.00277 0,0.66837 0.82412,0.63646 2.68584,-0.10323 1.08619,-0.43157 2.38763,-0.73224 2.89136,-0.66825 0.88126,0.11192 0.9171,0.37928 0.94979,7.07058 0.0359,7.339464 -0.3692,11.888634 -1.0941,12.286214 -0.55911,0.30665 -1.16778,2.41688 -0.69704,2.41688 0.19554,0 0.78116,-0.35403 1.3005,-0.787 l 0.94367,-0.78777 2.25554,2.27795 c 4.68672,4.73358 6.29573,7.39348 7.14707,11.81432 0.4663,2.42142 1.58857,4.73013 2.00716,4.12903 0.26823,-0.38515 1.2755,-0.14022 4.23472,1.02993 3.9228,1.55118 4.79512,2.25873 3.83502,3.11075 -0.40369,0.35826 -0.86193,0.29147 -1.96254,-0.28717 -3.28478,-1.72692 -5.46433,-2.57991 -5.80985,-2.27329 -0.20223,0.17947 0.0718,1.5135 0.60871,2.96483 0.72833,1.9689 1.35804,2.89787 2.48206,3.6587 1.16565,0.78901 1.5069,0.88045 1.5069,0.40359 0,-0.33897 -0.18485,-0.61625 -0.41106,-0.61625 -0.22619,0 -0.85984,-0.644 -1.40807,-1.4312 -0.75573,-1.08516 -0.86215,-1.5057 -0.43904,-1.73776 0.40611,-0.22274 0.27882,-0.47964 -0.4679,-0.94378 -0.56434,-0.3508 -0.89168,-0.7563 -0.72765,-0.90187 0.16403,-0.14556 1.74891,0.48065 3.52193,1.39161 3.16754,1.62744 3.93215,1.66572 3.95486,0.19947 0.004,-0.24373 0.38165,-0.8696 0.8396,-1.39083 0.45793,-0.52124 0.97473,-1.80051 1.14832,-2.84299 0.31128,-1.86936 0.35765,-1.91432 3.39949,-3.27373 1.69633,-0.7581 3.77849,-1.91909 4.62654,-2.57987 1.94112,-1.5125 3.4266,-4.27681 3.4266,-6.37595 0,-1.57317 -0.0649,-1.6421 -2.47243,-2.62023 -2.68689,-1.09163 -4.24434,-3.01017 -4.24434,-5.22959 0,-0.84413 -0.30261,-1.26682 -1.15445,-1.61126 -1.34358,-0.54327 -1.23603,-1.33431 0.22302,-1.63997 l 1.01714,-0.21344 -0.93843,-0.75362 c -1.17931,-0.94712 -1.19374,-1.42499 -0.0428,-1.42499 1.26718,0 1.11024,-0.57053 -0.33584,-1.22086 l -1.23141,-0.55416 1.90308,-0.12884 c 2.25857,-0.15298 2.4906,-0.71007 0.44778,-1.07494 -0.80041,-0.14296 -1.77804,-0.33958 -2.17245,-0.43696 -0.62825,-0.15512 -0.71149,0.36638 -0.67168,4.20277 0.0402,3.87182 0.13506,4.37891 0.82035,4.37895 0.48185,2e-5 0.87714,0.41344 1.04425,1.09279 0.76703,3.11806 2.34725,4.91577 5.0061,5.6945 1.25125,0.36647 1.4588,0.61193 1.4588,1.72767 0,0.7154 -0.22358,1.86969 -0.49677,2.56513 -0.58705,1.49447 -0.71369,1.47737 -5.95064,-0.80873 -1.94517,-0.84913 -3.61656,-1.47295 -3.71434,-1.38618 -0.20413,0.18117 2.57805,1.65567 6.05385,3.20777 1.97703,0.88283 2.29295,1.16261 1.84799,1.63842 -0.2952,0.3157 -0.77079,0.57434 -1.05736,0.57434 -0.71867,0 -10.81081,-4.63796 -13.10734,-6.02358 -1.79084,-1.08052 -4.17349,-1.52282 -4.17349,-0.77459 0,0.19528 2.16616,1.2952 4.81369,2.44405 2.64753,1.14885 5.31744,2.39668 5.93315,2.77235 0.6157,0.37568 1.62322,0.82001 2.23892,0.98802 0.61571,0.16802 1.56358,0.61311 2.10599,0.9888 l 0.98565,0.683 -1.05299,0.5006 c -1.06995,0.50817 -1.21826,0.46931 -4.72536,-1.22086 -1.29001,-0.62169 -5.48388,-2.3447 -5.70663,-2.3447 -0.79809,0 1.15039,1.20962 2.90798,1.80529 1.16273,0.39407 2.78712,1.0685 3.61026,1.49949 l 1.49641,0.7839 -0.90519,0.80407 c -0.66462,0.58981 -1.06173,0.69194 -1.49028,0.38419 -0.98793,-0.70944 -11.97565,-5.69475 -12.30272,-5.58196 -0.16917,0.0583 -0.45022,-0.34072 -0.62445,-0.88712 -0.73244,-2.29703 -2.18202,-4.65743 -3.6024,-5.86447 -0.83498,-0.70957 -2.27382,-1.92856 -3.19746,-2.70871 -1.56837,-1.32471 -1.65943,-1.52826 -1.37834,-3.07893 0.36142,-1.99398 0.36915,-13.206304 0.0131,-18.747534 -0.21808,-3.393945 -0.13291,-4.186092 0.58335,-5.429055 1.39681,-2.42396 1.55242,-4.013948 0.47752,-4.87723 -0.50991,-0.409485 -0.92706,-0.923486 -0.92706,-1.141691 0,-0.21821 -0.98997,-1.326072 -2.20044,-2.461902 -1.31245,-1.231511 -2.42836,-2.73768 -2.76368,-3.730877 -0.42979,-1.273042 -0.72847,-1.602812 -1.26901,-1.400923 -0.38895,0.145271 -3.02483,0.341795 -5.85707,0.436964 -5.283542,0.177538 -10.218479,0.833896 -14.021271,1.864277 l -2.154965,0.583653 0.304355,-2.15688 c 0.188781,-1.340894 0.1231,-2.349995 -0.173168,-2.666799 -0.262142,-0.280297 -0.607904,-2.112552 -0.767884,-4.070825 -0.324178,-3.96869 0.8117,-10.100015 2.471567,-13.346406 1.070892,-2.094471 1.125696,-2.731218 0.236135,-2.731218 -1.94469,0 1.120014,-1.488668 3.58228,-1.740095 5.884959,-0.600923 8.714199,-2.158827 9.602019,-5.287804 0.27728,-0.977219 0.899442,-2.154396 1.383582,-2.615572 1.34053,-1.276916 1.06277,-1.541353 -0.891192,-0.847538 -1.44939,0.514656 -2.06098,0.544523 -3.35839,0.164539 -1.69019,-0.495021 -2.00814,-1.187088 -0.91481,-1.992336 0.36942,-0.272083 0.67168,-0.818245 0.67168,-1.213875 0,-0.395629 0.40301,-0.832984 0.89557,-0.97172 1.04976,-0.295677 1.08753,-0.536553 0.23964,-1.529761 -0.48228,-0.564924 -0.51481,-0.955466 -0.13906,-1.687316 0.39089,-0.761341 0.33927,-1.09913 -0.25976,-1.68654 -0.70819,-0.694466 -0.6606,-0.818216 0.86846,-2.256999 0.88969,-0.83716 2.10811,-2.21197 2.707702,-3.054865 1.37336,-1.930664 3.84803,-3.083394 5.11367,-2.381957 0.72069,0.399416 0.87283,0.379171 0.87283,-0.115644 0,-0.329692 0.25188,-0.598917 0.55973,-0.5984 0.49235,7.95e-4 1.29728,1.319823 3.51669,5.761246 l 0.59559,1.192143 0.15568,-1.299249 c 0.10549,-0.880386 -0.266,-1.990093 -1.1527,-3.442933 -0.97591,-1.599001 -1.12537,-2.083608 -0.58859,-1.908514 0.64147,0.209244 3.87232,1.966393 4.55656,2.478197 0.1461,0.10928 0.14157,1.316324 -0.0105,2.682321 -0.28124,2.524039 -0.10104,2.932065 0.84747,1.917828 0.33043,-0.353327 0.4158,-1.09979 0.22827,-1.986904 -0.41205,-1.949168 0.23336,-1.781185 1.7579,0.458695 1.18348,1.73879 1.2646,2.112209 1.07836,4.967261 -0.11092,1.697921 -0.0508,3.087463 0.13379,3.087463 0.29815,0 2.32093,-2.375819 3.89101,-4.56988 0.59622,-0.833176 1.55382,-2.658747 2.05963,-3.925688 0.24042,-0.602192 0.59935,-0.702767 1.85761,-0.521563 1.12586,0.162136 1.55938,0.07817 1.55938,-0.303468 0,-0.951035 -2.94501,-1.417732 -3.85428,-0.610818 -0.30262,0.268558 -0.80179,-0.02168 -1.51827,-0.881689 -0.86394,-1.037007 -1.10348,-1.898849 -1.25852,-4.520207 -0.10535,-1.781337 -0.0171,-3.33074 0.19678,-3.443708 0.21389,-0.112969 1.22579,-0.328763 2.24855,-0.478875 1.81086,-0.265785 1.89511,-0.227919 3.20446,1.444386 0.7395,0.944498 1.77033,2.116341 2.2914,2.603931 0.52106,0.48759 1.06541,1.41026 1.20954,2.049771 0.14413,0.63951 0.94574,1.750771 1.78152,2.46966 1.20316,1.034879 1.52002,1.621353 1.52002,2.818144 0,1.123425 -0.18497,1.51191 -0.71978,1.51191 -0.41253,0 -0.62259,0.224322 -0.49238,0.525443 0.12491,0.288885 -0.15559,0.737191 -0.62358,0.996557 -0.99478,0.551319 -1.09866,1.377217 -0.25188,2.000874 0.78983,0.581717 2.17202,-0.706038 3.39774,-3.165076 0.75369,-1.512038 0.82448,-2.046259 0.42067,-3.17439 -1.05323,-2.942453 -2.71141,-5.302658 -6.09669,-8.679512 -2.10362,-2.098375 -2.34798,-3.275113 -1.38446,-6.670875 l 0.5195,-1.8285727 -1.9748,-1.539075 c -1.44971,-1.130291 -1.87109,-1.429473 -3.25257,-1.456028 z m -1.60573,0.893331 c 1.29055,0.06066 2.64856,0.670353 3.17385,1.541403 0.40203,0.666634 0.63467,5.8026717 0.27463,6.0616097 -0.0639,0.04597 -1.32534,0.185656 -2.80303,0.31123 -2.61851,0.22252 -2.71727,0.195952 -3.89538,-1.071066 -1.29367,-1.391286 -1.9139,-3.259672 -1.21042,-3.645503 0.23612,-0.129508 0.79348,0.164162 1.23928,0.652729 1.10615,1.212287 2.09647,0.668493 1.14045,-0.626341 -1.00704,-1.3639327 -0.65551,-2.6488667 0.84572,-3.0905667 0.38197,-0.112386 0.80473,-0.153716 1.2349,-0.133495 z M 63.386032,19.967209 c 3.429285,-0.08911 7.466533,0.836424 6.261122,1.435072 -0.420622,0.208896 -0.718032,0.871804 -0.718032,1.601942 0,0.714267 -0.397042,1.621137 -0.929678,2.12428 -1.262247,1.192363 -0.436294,1.523461 1.095847,0.439292 0.875388,-0.61944 1.306717,-1.362496 1.487662,-2.559692 0.140206,-0.927653 0.390599,-1.68654 0.556234,-1.68654 0.165636,0 1.211456,0.511814 2.323758,1.137813 2.253868,1.268467 3.859007,2.888606 4.256582,4.294352 0.40357,1.426967 -0.224291,3.651923 -1.155321,4.094109 -0.798912,0.379437 -0.807697,0.308519 -0.2099,-1.684211 0.343205,-1.144064 0.626563,-2.124746 0.629698,-2.179386 0.0031,-0.05464 -0.294669,-0.09935 -0.661181,-0.09935 -0.42974,0 -0.766604,0.557532 -0.94892,1.569344 -0.271111,1.504582 -0.357757,1.573917 -2.11736,1.688868 -1.488683,0.09725 -2.006874,0.353985 -2.745307,1.362892 -0.500601,0.683964 -1.11194,1.525627 -1.358221,1.869708 -0.405752,0.566878 -0.568611,0.567131 -1.736918,0.0078 -1.071138,-0.512843 -1.357792,-0.526302 -1.691436,-0.08072 -0.305752,0.408337 -0.874641,0.06208 -2.383233,-1.450595 -2.049198,-2.054751 -2.115838,-2.361426 -1.063489,-4.894304 0.274631,-0.661004 0.617522,-0.855107 1.214796,-0.686879 0.480119,0.135233 1.071048,-0.02106 1.397577,-0.370216 0.311211,-0.33277 0.919849,-0.605384 1.3521,-0.605384 0.841885,0 2.083459,-1.065448 1.669576,-1.432745 -0.137144,-0.121706 -0.619278,-0.05297 -1.071362,0.152899 -0.452088,0.205864 -1.556456,0.474641 -2.454072,0.596847 -1.589292,0.216374 -1.652246,0.1759 -2.387603,-1.532865 -0.415325,-0.965095 -1.089183,-1.920391 -1.498159,-2.123504 -1.210851,-0.60135 -0.325186,-0.905374 2.88524,-0.988795 z M 6.4115165,20.762746 c -0.110443,0.01305 -0.224565,0.02239 -0.32447,0.04346 -0.166342,0.03509 -0.3356,0.05938 -0.505507,0.07839 -0.0143,0.08225 -0.07831,0.145939 -0.178414,0.195585 -0.158845,3.830084 -0.340689,8.138819 -0.497636,10.77197 -0.208433,3.496952 -0.399976,11.275682 -0.425921,17.286067 -0.02595,6.010385 -0.162234,13.252651 -0.303479,16.093924 -0.753041,15.148095 -0.964292,26.949374 -0.796742,44.506668 0.180404,18.90436 0.314502,23.15708 0.868457,27.51862 0.145736,1.14744 0.44093,2.08625 0.655936,2.08625 0.220171,0 0.295538,-7.94082 0.173167,-18.18018 -0.148773,-12.44846 -0.05968,-18.93187 0.281614,-20.56445 0.274141,-1.311364 0.587126,-7.033654 0.696166,-12.716199 0.109041,-5.682546 0.269522,-12.120116 0.356829,-14.305711 0.08731,-2.185594 0.292608,-8.533753 0.455656,-14.10702 0.163049,-5.573266 0.42239,-12.368479 0.576348,-15.100472 0.153958,-2.731993 0.23918,-5.906073 0.188909,-7.05351 -0.06499,-1.483431 0.07598,-2.088131 0.488891,-2.092458 0.461179,-0.0048 0.464733,-0.0709 0.01749,-0.322872 -0.414935,-0.23378 -0.506921,-1.356998 -0.350705,-4.266411 0.116603,-2.171668 0.217325,-4.127018 0.224767,-4.345577 0.0074,-0.21856 -0.06977,-0.933845 -0.172292,-1.589524 -0.160853,-1.028699 -0.202078,-2.28631 -0.190659,-3.746397 -0.470633,-0.07033 -0.912463,-0.139018 -1.238405,-0.190153 z M 58.569719,21.01499 c 0.278921,0.0797 0.75339,0.423005 1.214792,0.89954 0.907221,0.936953 1.104188,1.534411 1.040751,3.161972 -0.08534,2.189333 -0.7322,4.192678 -1.353847,4.192678 -0.932051,0 -0.14815,0.898095 3.825414,4.382055 l 4.218972,3.699833 -1.103719,1.284502 -1.103722,1.284501 1.359099,0.859182 c 1.44017,0.910061 2.252193,0.80038 2.275656,-0.307347 0.0078,-0.36958 0.297948,-1.004157 0.644565,-1.410237 0.556413,-0.651867 0.882732,-0.689952 2.784662,-0.323651 3.346683,0.644564 8.580139,1.365624 11.78147,1.6229 l 2.910602,0.233616 -2.462817,1.608928 c -1.35455,0.885122 -3.075656,1.988609 -3.824541,2.451808 -1.076546,0.665859 -2.342121,0.89996 -6.045097,1.119187 l -4.683374,0.277857 -2.436582,-1.626782 c -3.50154,-2.337394 -7.205022,-6.135485 -9.833775,-10.085089 -1.25562,-1.886518 -2.282656,-3.58656 -2.282656,-3.778223 0,-0.191663 -0.423644,-0.751292 -0.941047,-1.244143 -0.644299,-0.613729 -1.014748,-1.61965 -1.175435,-3.192241 -0.220145,-2.154535 -0.147904,-2.379569 1.170187,-3.649385 l 1.40545,-1.353578 1.44918,1.490178 c 1.354191,1.391889 3.0173,1.994202 3.0173,1.092797 0,-0.218559 -0.196685,-0.397381 -0.437289,-0.397381 -0.60613,0 -1.992329,-1.95039 -1.620596,-2.280283 0.0416,-0.03692 0.113428,-0.03977 0.206397,-0.01319 z m 6.90219,0.854524 c -0.04708,0.04178 -0.07931,0.180664 -0.09009,0.412128 -0.01943,0.418905 0.08647,0.653608 0.235266,0.521562 0.148777,-0.132047 0.165099,-0.474529 0.03587,-0.761388 -0.07147,-0.158502 -0.133959,-0.214083 -0.181035,-0.172302 z m 6.367816,0.644192 c -0.452142,0 -0.671678,0.401211 -0.671678,1.227844 0,0.865439 -0.394328,1.534976 -1.335483,2.267865 l -1.335483,1.04002 1.223537,0.481204 c 1.626091,0.639907 1.737392,0.639467 3.203588,-0.03337 0.695312,-0.319087 1.383983,-0.987493 1.530511,-1.484745 0.263011,-0.89254 0.275187,-0.893622 0.938428,-0.114869 0.658042,0.772618 0.672618,0.768683 0.686544,-0.161435 0.01437,-0.958959 -1.074886,-1.994668 -2.121731,-2.01795 -0.374926,-0.0083 -0.478198,0.305837 -0.303482,0.9236 0.288745,1.020951 -0.731367,2.243029 -1.872475,2.243029 -0.578664,0 -0.57424,-0.114823 0.03238,-0.883241 0.917699,-1.162881 0.934706,-3.48795 0.02535,-3.48795 z m 52.745055,0.513025 c -0.48255,0.01414 -0.92427,0.0783 -1.23928,0.205675 -0.62129,0.251211 -1.13,0.594335 -1.12996,0.76294 10e-5,0.453087 5.35382,0.356127 5.48536,-0.09934 0.14556,-0.503995 -1.66848,-0.911689 -3.11612,-0.86927 z m -17.46974,1.21465 c -0.0903,0.09711 -0.10348,0.467127 -0.1102,1.186709 -0.01,1.045941 0.16141,1.471022 0.54574,1.35746 0.83365,-0.24633 0.89721,-1.203884 0.13906,-2.094011 -0.31668,-0.371803 -0.48429,-0.547268 -0.5746,-0.450158 z m -2.10686,0.267766 c -0.56449,-0.01291 -1.17097,0.09499 -1.33724,0.333738 -0.13097,0.188075 -0.10305,0.461926 0.0621,0.60849 0.16515,0.146561 0.5792,0.171182 0.92006,0.0551 0.34086,-0.116076 0.80498,-0.211108 1.03113,-0.211108 0.22613,0 0.41105,-0.178822 0.41105,-0.397381 0,-0.242548 -0.52262,-0.375937 -1.0871,-0.388844 z m -54.892149,2.035025 c 0.826983,0.04952 1.206476,0.351083 1.980047,1.251129 0.638201,0.742539 1.16057,1.467189 1.16057,1.610479 0,0.419153 -2.159157,0.299427 -2.462818,-0.1366 -0.152211,-0.218559 0.150044,-0.397381 0.671678,-0.397381 0.521633,0 0.823888,-0.178821 0.671677,-0.397381 -0.152211,-0.218559 -1.082381,-0.397381 -2.067508,-0.397381 -1.195618,0 -1.689556,-0.146391 -1.485035,-0.440068 0.208592,-0.299518 -0.01397,-0.349419 -0.697917,-0.156779 -0.739101,0.208176 -0.95243,0.140771 -0.805489,-0.255348 0.113634,-0.306337 0.987594,-0.590425 2.027279,-0.658938 0.406083,-0.02676 0.731855,-0.03824 1.007516,-0.02173 z m 51.075479,0.738104 c -0.6775,0 -0.57973,0.419962 0.31397,1.344264 0.7791,0.805774 0.77659,0.806283 -0.43204,0.130391 -1.686502,-0.943133 -1.924892,-0.873693 -2.475062,0.717148 -0.45097,1.303975 -0.40402,1.434424 0.70841,1.970606 0.65533,0.315868 1.498902,0.581887 1.875102,0.590638 1.04381,0.02428 2.67637,-1.138357 2.66047,-1.894544 -0.0162,-0.772913 -1.95027,-2.858503 -2.65085,-2.858503 z m 4.66676,0.189376 c -0.0832,-0.0239 -0.16306,-0.01698 -0.23789,0.02406 -0.3589,0.196838 -0.36293,0.394419 -0.0122,0.705506 0.9821,0.871684 0.45593,3.849626 -0.68045,3.849626 -0.34307,0 -0.62357,0.168436 -0.62357,0.374097 0,0.583702 0.90565,0.938694 2.30364,0.90342 0.70336,-0.01775 1.27864,0.170683 1.27864,0.418337 0,0.279839 0.14818,0.306796 0.39094,0.07218 0.21483,-0.207631 0.51572,-1.383906 0.66905,-2.614797 0.21509,-1.726764 0.12553,-2.350835 -0.39094,-2.731217 -0.55821,-0.411127 -0.66905,-0.353321 -0.66905,0.350037 0,1.242085 -0.73666,1.02622 -1.28826,-0.377978 -0.21622,-0.550429 -0.4902,-0.901575 -0.73989,-0.973273 z m -40.918984,0.187825 c -1.429889,-0.157211 -2.1042,1.055989 -1.202544,2.971043 0.750152,1.593268 1.372649,1.735513 2.841509,0.648072 1.282591,-0.949535 1.287776,-2.187594 0.01223,-2.980356 -0.61433,-0.381859 -1.174576,-0.586355 -1.651208,-0.638759 z m -17.256339,0.444725 c 0.208144,-0.01063 0.162237,0.102553 0.0036,0.33141 -0.35547,0.509374 -2.937796,1.257904 -2.937796,0.851419 0,-0.18581 0.634229,-0.533866 1.409824,-0.773806 0.854495,-0.264348 1.31625,-0.398395 1.52439,-0.409023 z m 17.523089,0.767597 c 0.509477,0 1.177567,0.268232 1.484161,0.596071 0.756658,0.809095 -0.330058,0.800402 -1.541012,-0.01242 -0.85449,-0.573554 -0.853791,-0.583653 0.05685,-0.583653 z M 48.438584,29.40578 c 0.195163,-0.03891 0.47407,0.1104 0.999649,0.416008 0.604993,0.351786 1.864979,0.639535 2.799529,0.639535 2.271112,0 3.302231,1.23849 1.806006,2.168519 -1.097373,0.682111 -3.276299,0.820673 -3.684603,0.234393 -0.145105,-0.20836 0.548447,-0.573099 1.541007,-0.810285 2.479081,-0.592405 2.267673,-0.95454 -0.375194,-0.643415 -2.967659,0.349361 -4.100228,-0.05893 -3.581402,-1.290712 0.188701,-0.448009 0.29985,-0.675135 0.495008,-0.714043 z m 63.520756,0.291826 c -0.39282,0.01725 -0.51303,0.106682 -0.26675,0.198691 0.50809,0.189825 0.53481,2.695967 0.0429,4.042108 -0.45103,1.234172 -1.1486,1.121499 -1.22965,-0.198691 l -0.0665,-1.092797 -0.18366,1.06408 c -0.10086,0.585045 -0.47343,1.276984 -0.82823,1.538299 -0.3548,0.261315 -0.64544,0.733528 -0.64544,1.049334 0,0.883225 1.8205,0.25952 3.14849,-1.078827 0.62334,-0.628208 1.39691,-1.789938 1.71942,-2.581423 0.51732,-1.269597 0.49453,-1.528816 -0.19503,-2.204998 -0.42988,-0.421544 -1.10271,-0.75303 -1.49553,-0.735776 z m -39.292261,1.178949 c 0.565624,0.05076 1.211093,0.32177 1.531389,0.77691 0.498416,0.70826 0.449083,0.791672 -0.45216,0.763716 -1.467369,-0.04552 -2.130476,-0.355954 -2.130476,-0.99578 0,-0.426394 0.485623,-0.595611 1.051247,-0.544846 z m 43.503361,0.77691 c -0.44663,0 -0.67168,0.396211 -0.67168,1.182829 0,0.830697 -0.34171,1.381528 -1.14657,1.849528 -0.82678,0.480747 -0.98897,0.752355 -0.58335,0.974825 0.7087,0.388699 2.01619,-0.215499 2.615,-1.208441 0.69655,-1.155017 0.57132,-2.798741 -0.2134,-2.798741 z m 14.41221,1.589523 c -1.37898,0 -9.26268,8.693291 -9.26268,10.213928 0,0.28346 -0.29721,0.515355 -0.66031,0.515355 -0.77585,0 -1.85341,1.722718 -2.74618,4.390594 -0.808,2.414561 -3.51447,7.306288 -5.04633,9.120355 -0.64595,0.764958 -1.45614,1.837886 -1.80076,2.384285 -0.34462,0.546399 -1.70477,2.269057 -3.02255,3.827894 -1.31778,1.558838 -2.39635,3.094921 -2.39635,3.413442 0,0.434039 -1.0651,0.694761 -4.2522,1.042346 -3.697792,0.403278 -8.166412,1.49133 -7.726922,1.881352 0.0814,0.0722 2.35642,-0.129705 5.05595,-0.448607 5.603822,-0.661989 7.370962,-0.500927 7.370962,0.67058 0,0.471234 0.198,0.678075 0.49326,0.51613 0.27126,-0.148787 0.38291,-0.758203 0.24838,-1.355132 -0.1999,-0.887006 0.0814,-1.366959 1.54451,-2.634198 0.98399,-0.852247 2.08128,-2.040924 2.43833,-2.641963 0.35705,-0.601038 0.97931,-1.652143 1.38271,-2.336166 0.4034,-0.684024 1.05828,-1.331643 1.4553,-1.438952 0.77724,-0.210079 4.99898,-7.432134 5.50811,-9.422273 1.0199,-3.986724 1.43581,-4.930904 2.25467,-5.120936 0.47369,-0.109931 0.971,-0.571155 1.10459,-1.024495 0.13359,-0.453337 0.38883,-0.824256 0.5676,-0.824256 0.17877,0 0.70916,-0.67058 1.17894,-1.490178 0.46977,-0.819598 1.15672,-1.777755 1.52614,-2.128936 0.78428,-0.745542 1.80964,-1.826573 4.18137,-4.410773 1.6167,-1.761543 1.8263,-2.699396 0.60346,-2.699396 z m -59.509932,0.04036 c 0.271474,-0.05381 0.533361,0.159551 0.744268,0.647297 0.209255,0.483923 -0.140721,1.009672 -1.183308,1.777347 -0.814373,0.59964 -1.682167,1.084308 -1.928448,1.077274 -0.539765,-0.01542 -2.963432,-2.435199 -2.685837,-2.681543 0.107455,-0.09536 0.698016,0.119101 1.312744,0.476546 1.569357,0.912537 2.446089,0.809824 2.94034,-0.343827 0.247925,-0.578692 0.528767,-0.899281 0.800241,-0.953094 z m 31.832092,0.189377 c -0.28065,-0.0077 -0.54328,0.0135 -0.74427,0.07296 -0.99136,0.293257 -0.56229,2.144632 0.86934,3.748728 l 1.41244,1.582538 -1.21654,0.86151 c -0.88921,0.629093 -1.12958,1.062433 -0.89294,1.609702 0.31311,0.724079 0.34377,0.724727 0.92355,0.02094 0.32981,-0.400135 0.59996,-0.88486 0.59996,-1.07726 0,-0.883242 2.50626,-2.280282 4.09129,-2.280282 0.9338,0 0.87479,-0.12843 -0.7329,-1.589524 -1.95852,-1.779941 -2.12409,-1.833467 -3.07065,-0.993452 -0.89991,0.79861 -1.18331,0.751008 -1.18331,-0.19869 0,-0.529841 0.29853,-0.794762 0.89557,-0.794762 0.49257,0 0.89557,-0.157732 0.89557,-0.350813 0,-0.303545 -1.00515,-0.588568 -1.84711,-0.611594 z m -47.845653,0.366336 c 0.43119,0.113095 0.946344,0.626852 1.705429,1.667136 0.766107,1.049904 2.010613,2.535166 2.766299,3.300124 0.755682,0.764958 2.1211,2.250149 3.033918,3.300125 0.912815,1.049976 2.634785,2.464322 3.82716,3.143342 1.78566,1.01687 2.040301,1.298597 1.440435,1.596509 -1.079829,0.536282 -3.222959,-0.0182 -3.967093,-1.026049 -1.024057,-1.386978 -7.058815,-6.493413 -9.474329,-8.017468 -2.31975,-1.463636 -3.307796,-1.677886 -4.179616,-0.904197 -0.640153,0.568096 -0.719913,1.260703 -0.106698,0.924376 0.929445,-0.509768 5.675491,2.158473 8.397715,4.721226 1.530784,1.441109 2.970803,2.62023 3.199218,2.62023 0.688926,0 1.009034,1.25537 0.467899,1.834004 -0.589625,0.63048 -0.161861,0.831356 2.281778,1.071068 1.383665,0.135734 1.44923,0.189158 0.559732,0.458693 -0.554134,0.167917 -1.007517,0.463545 -1.007517,0.656612 0,0.538658 1.485599,0.416348 2.48381,-0.204122 0.998386,-0.620586 8.868059,-2.226732 10.909511,-2.226732 1.031683,0 1.471619,0.272778 2.0229,1.253459 0.387459,0.689257 0.704039,1.48533 0.704039,1.769584 0,0.284255 -2.67955,1.687867 -5.954143,3.11851 -7.629997,3.333485 -8.173751,3.350385 -13.811364,0.430753 -5.085029,-2.633447 -11.376717,-6.757708 -12.656052,-8.2961 -1.169274,-1.406045 -3.791651,-2.469949 -4.488343,-1.820811 -0.346006,0.322391 -0.24224,0.575336 0.370821,0.903421 0.4682,0.250565 2.382481,1.681283 4.253958,3.179047 1.871472,1.49776 4.209004,3.196563 5.194131,3.775118 0.985127,0.578551 2.319343,1.498714 2.964825,2.045113 1.991165,1.685518 3.683506,2.861289 4.722734,3.281495 1.065845,0.430968 1.165679,0.877834 1.73604,7.789289 0.183977,2.229374 0.08267,3.895449 -0.306974,5.066605 -0.663,1.992675 -0.932804,2.044807 -5.534345,1.074943 -1.477691,-0.311451 -3.587,-0.736597 -4.686876,-0.945329 -1.099876,-0.208728 -2.1674,-0.646101 -2.372732,-0.971723 -0.205381,-0.325626 -0.930856,-0.592189 -1.611851,-0.592189 -0.976436,0 -1.397197,-0.296565 -1.992294,-1.404026 -0.415034,-0.772373 -0.754764,-1.720437 -0.754764,-2.106429 0,-0.385991 -0.183771,-0.871972 -0.40843,-1.079604 -0.538098,-0.497314 -1.688879,-6.286755 -2.069256,-10.411068 -0.30463,-3.303018 -0.684249,-3.923444 -1.536637,-2.51002 -0.908943,1.507198 -0.64099,3.060309 1.959059,11.336997 0.615313,1.958714 1.051979,3.620791 0.969909,3.693623 -0.08207,0.07283 -0.651993,-0.636024 -1.266391,-1.574776 -4.688248,-7.163283 -5.53342,-11.811876 -3.431852,-18.876365 1.734436,-5.830368 5.718758,-10.690847 8.452817,-10.311723 1.22029,0.169214 5.597295,-0.292945 6.784117,-0.716372 0.131063,-0.04676 0.265573,-0.05398 0.409303,-0.0163 z m 61.675393,1.903858 c -0.13441,-0.0086 -0.30103,0.0256 -0.51426,0.08537 -0.51987,0.145743 -1.89816,0.476008 -3.06278,0.733446 -1.16462,0.257452 -2.47439,0.801303 -2.9106,1.208443 -0.76696,0.715838 -0.74594,0.732203 0.64457,0.503713 1.5684,-0.257718 2.46577,0.313271 1.01976,0.648847 -1.16875,0.271236 -1.14908,1.075722 0.0262,1.075722 0.54939,0 1.22188,-0.476607 1.67919,-1.189814 0.41953,-0.654296 0.91376,-1.19095 1.09847,-1.192143 0.52659,-0.004 0.39561,0.569999 -0.32185,1.411787 -0.77255,0.906434 -0.85599,1.367551 -0.24838,1.367551 0.2404,0 0.83568,-0.670581 1.32324,-1.490179 0.82772,-1.391389 0.88758,-1.421542 0.90607,-0.458696 0.0109,0.567166 -0.3782,1.350725 -0.86496,1.741648 -0.48676,0.390924 -0.76999,0.87582 -0.6297,1.077272 0.44583,0.640169 1.71253,0.149435 2.25817,-0.874703 0.30803,-0.578177 0.4233,-1.785587 0.27724,-2.908176 -0.16901,-1.299002 -0.27722,-1.71434 -0.68042,-1.740092 z m -11.56108,0.679117 c 1.12623,0 1.56993,0.641178 0.65856,0.951541 -0.87418,0.297689 -0.86632,0.298544 -1.22966,-0.02408 -0.56218,-0.498717 -0.2981,-0.927459 0.5711,-0.927459 z M 68.859156,38.01156 c 0.325786,0 0.239932,0.490236 -0.244007,1.390833 -0.803927,1.496083 -1.48619,1.82027 -1.463173,0.695416 0.01751,-0.854921 1.02515,-2.086249 1.70718,-2.086249 z m 39.429574,0.882463 c -0.91797,-0.158169 -2.39064,0.896929 -2.01154,1.441285 0.39287,0.564114 0.40829,0.564348 1.8235,-0.0077 1.19964,-0.485063 1.29912,-1.242078 0.18804,-1.43352 z M 92.473693,39.21612 c 0.714985,0.01049 0.638165,0.160685 -0.457408,0.894107 -0.724234,0.484837 -1.73042,0.97859 -2.236301,1.097455 -0.505881,0.11886 -0.988781,0.534215 -1.073108,0.922821 -0.130346,0.600646 0.111996,0.550965 1.614476,-0.331407 2.282933,-1.340716 4.633586,-1.6932 5.927906,-0.888675 l 0.97778,0.607715 -1.04076,0.494397 c -1.11169,0.527988 -3.972336,1.189921 -3.972336,0.918943 0,-0.08947 0.654886,-0.517676 1.455296,-0.950765 1.42952,-0.773502 1.43513,-0.786961 0.30961,-0.788551 -0.63021,-7.95e-4 -1.492774,0.223718 -1.917082,0.499055 -0.654693,0.424836 -0.695101,0.695516 -0.265872,1.788214 0.553709,1.409577 0.835321,1.538376 1.728164,0.790879 0.43234,-0.361954 0.64475,-0.373129 0.78275,-0.04191 0.10417,0.2501 0.58274,0.363035 1.06349,0.251467 0.48076,-0.111561 0.87371,-0.0974 0.87371,0.03183 0,0.515812 -2.91164,1.524079 -5.449509,1.886784 -1.47812,0.211248 -3.766234,0.894469 -5.084809,1.518893 L 83.312464,49.05286 82.83757,47.844417 c -0.714141,-1.81799 -0.651187,-1.969165 1.758779,-4.188021 2.351919,-2.165411 6.425383,-4.461526 7.877344,-4.440266 z m 13.184297,1.206115 c -0.28868,0.04475 -0.73884,0.381736 -1.18418,0.984912 -0.64597,0.87489 -0.66481,1.147612 -0.13993,2.017952 0.64648,1.071994 1.44554,1.574351 2.86249,1.799078 0.77837,0.12345 0.86155,-0.05983 0.74252,-1.628332 -0.11949,-1.574685 -0.0561,-1.71076 0.57635,-1.244918 0.39046,0.287572 1.1136,0.428952 1.60748,0.314336 1.08742,-0.252357 1.09538,-0.183304 0.15568,1.425759 -0.83239,1.425293 -1.13499,2.417152 -2.38499,7.828867 -0.47958,2.076315 -1.30111,5.116279 -1.82612,6.755474 -0.52501,1.639196 -1.15265,3.740348 -1.39495,4.669225 -0.43844,1.680762 -0.45055,1.688869 -2.46894,1.688869 -2.341902,0 -12.290925,2.632219 -12.781993,3.38162 -0.450172,0.686988 -2.647498,1.139052 -3.009429,0.619353 -0.464089,-0.666387 -0.06161,-9.230108 0.505509,-10.756447 0.284214,-0.764958 0.566739,-1.748476 0.627947,-2.185595 0.114525,-0.817925 0.790296,-3.287873 1.331986,-4.867915 0.225334,-0.657268 0.124376,-0.894107 -0.381316,-0.894107 -0.740735,0 -1.44978,1.647414 -2.980569,6.929328 -1.229138,4.241099 -1.146047,9.452284 0.203774,12.840369 0.108843,0.273199 0.279261,0.496726 0.378696,0.496726 0.182606,0 3.085167,-0.820564 11.265463,-3.184479 2.46282,-0.711697 5.310382,-1.29932 6.327592,-1.306235 l 1.84886,-0.01319 0.54661,-2.218195 c 0.30047,-1.220289 0.92345,-3.202485 1.38446,-4.404562 1.07674,-2.807535 2.00646,-6.52826 2.62637,-10.511188 0.2705,-1.738017 0.67881,-3.262711 0.90694,-3.387827 0.22812,-0.125119 0.60503,-0.979675 0.83784,-1.899202 0.39995,-1.579688 0.35768,-1.700118 -0.75913,-2.17628 -1.87469,-0.799292 -3.45941,-0.43818 -4.22335,0.96163 -0.62564,1.146396 -0.6857,1.169539 -0.96991,0.374873 -0.16653,-0.465627 -0.1747,-1.204406 -0.0184,-1.641525 0.20224,-0.565489 0.0753,-0.813128 -0.2134,-0.768371 z m -24.862566,5.536941 c 0.369423,0 0.671678,0.24588 0.671678,0.546399 0,0.300519 0.125939,1.105216 0.279866,1.788214 0.403705,1.791309 -0.579904,1.579215 -1.151824,-0.248363 -0.608697,-1.945104 -0.59521,-2.08625 0.20028,-2.08625 z m 3.291045,4.638182 c 0.801325,0.185966 0.972764,0.429529 0.757389,1.0796 -0.15295,0.461661 -0.517824,1.683095 -0.810738,2.714918 -0.611222,2.153113 -0.433738,2.086595 -7.174182,2.693964 -3.7095,0.334257 -4.544467,0.301362 -5.43114,-0.214212 -0.992945,-0.577371 -1.109866,-0.544428 -2.221434,0.627894 -1.170345,1.234316 -1.415081,2.139546 -0.900818,3.328839 0.442331,1.02295 1.071361,0.718182 1.071361,-0.519234 0,-0.631462 0.395224,-1.570274 0.87808,-2.086249 l 0.878079,-0.938347 -0.183663,1.753288 c -0.182235,1.744239 0.325033,3.213972 1.108966,3.213972 0.231612,0 0.291445,-0.894075 0.137309,-2.048995 l -0.273745,-2.048995 1.58824,0.228184 c 0.873217,0.125755 2.366083,0.08344 3.317281,-0.09391 0.951194,-0.177355 2.749203,-0.432501 3.995957,-0.567352 l 2.266912,-0.24526 -0.626201,3.282271 c -0.344302,1.805197 -0.725837,3.371685 -0.848342,3.480964 -0.122505,0.10928 -2.641139,0.26253 -5.596439,0.340723 l -5.37342,0.142031 -1.316242,-1.119183 c -0.723952,-0.615519 -1.544603,-1.796988 -1.824374,-2.625662 -0.826889,-2.449245 -1.292505,-1.732573 -1.115088,1.716808 0.169872,3.30272 -0.209339,6.068773 -1.097597,8.002722 -0.311488,0.678186 -0.841361,1.092797 -1.395831,1.092797 -0.742504,0 -0.846694,-0.184619 -0.619201,-1.092797 1.207528,-4.820595 1.239809,-5.40037 0.536988,-9.666754 -0.388422,-2.357947 -0.706251,-4.343575 -0.704908,-4.413101 0.0013,-0.06953 1.462099,-0.138734 3.246441,-0.153675 3.133309,-0.02627 3.474521,-0.131235 9.970211,-3.066509 4.881707,-2.205944 7.009147,-2.973024 7.760149,-2.798737 z M 80.63625,65.232922 c 0.945059,-0.324175 1.266063,2.050879 1.395831,10.331902 0.088,5.615711 0.03246,6.047974 -0.944548,7.450891 -0.570461,0.819125 -1.219292,1.489403 -1.442182,1.489403 -0.222889,0 -0.703927,0.58117 -1.068737,1.291488 -0.967301,1.883407 -4.098101,6.32976 -5.106674,7.2522 -0.477917,0.43712 -1.010678,1.59946 -1.184181,2.58298 -0.173503,0.98351 -0.617393,2.77173 -0.985651,3.9738 -1.122902,3.665424 -1.134163,3.830724 -0.364699,5.151214 0.723321,1.2413 0.718852,1.27097 -0.14518,1.0276 -1.46093,-0.41149 -1.527014,0.46326 -0.06909,0.91429 0.73855,0.22847 1.342482,0.60889 1.342482,0.84443 0,0.26426 -0.51442,0.19181 -1.343355,-0.1886 -1.064076,-0.48832 -1.343355,-0.50703 -1.343355,-0.09 0,0.28955 0.719855,0.75772 1.599609,1.04002 0.980725,0.31472 1.513961,0.71084 1.378336,1.0245 -0.121663,0.28135 0.01487,0.73484 0.303477,1.00742 0.413566,0.39058 0.263799,0.45432 -0.706658,0.30191 -0.677275,-0.10636 -1.231409,-0.0392 -1.231409,0.14902 0,0.18825 0.378061,0.34228 0.84047,0.34228 0.462405,0 1.091861,0.26823 1.398455,0.59607 0.472977,0.50575 0.362827,0.60014 -0.728524,0.62168 l -1.286508,0.0248 1.455301,0.64341 c 1.777129,0.78489 1.896934,1.37908 0.223892,1.11065 l -1.231408,-0.19791 1.231408,0.46568 c 0.677275,0.25597 1.231409,0.60985 1.231409,0.78622 0,0.45785 -2.579524,0.39783 -2.903608,-0.0675 -0.148571,-0.21335 -0.390455,-1.28628 -0.536988,-2.38428 -0.146538,-1.09801 -0.412845,-1.99622 -0.592093,-1.99622 -0.179253,0 -0.879024,-0.74201 -1.555005,-1.64851 -0.999505,-1.34032 -1.184306,-1.94684 -0.987397,-3.24968 0.174408,-1.15393 -0.01178,-2.04407 -0.665556,-3.18137 -1.43242,-2.49172 -2.143346,-4.534474 -3.093389,-8.888294 -0.486379,-2.22893 -1.170357,-4.77153 -1.520024,-5.651038 l -0.635819,-1.599613 3.22283,0.18084 c 5.255984,0.294007 6.580339,0.569821 6.580339,1.371429 0,0.998842 1.745359,4.386712 2.259917,4.386712 0.541986,0 0.535829,-0.0486 -0.439917,-3.37774 L 72.172943,86.293342 69.166139,86.0248 c -1.653706,-0.147829 -3.089936,-0.342312 -3.191346,-0.432306 -0.10141,-0.09 0.02046,-1.123726 0.27112,-2.296584 0.489071,-2.288575 0.137551,-4.818274 -1.094973,-7.880868 -0.384884,-0.956357 -0.699664,-1.979021 -0.699664,-2.272522 0,-0.911457 1.07502,-0.217296 2.068382,1.335728 1.219721,1.906931 4.049499,8.251264 4.427998,9.927535 0.160387,0.710318 0.492702,1.291488 0.73902,1.291488 0.899013,0 -0.164306,-5.197996 -1.735167,-8.480823 -0.853201,-1.783051 -1.66259,-3.599555 -1.798134,-4.036674 -0.135545,-0.437119 -0.547883,-1.104039 -0.916563,-1.482417 -0.567092,-0.582016 -0.57698,-0.788423 -0.06297,-1.338057 0.901597,-0.96407 1.694557,-3.260112 1.432563,-4.149212 -0.25655,-0.870614 0.312406,-1.026665 1.122959,-0.30735 0.9493,0.842443 7.708516,0.427307 10.906887,-0.669806 z m 11.577692,5.009173 c -1.50171,0.02368 -6.825676,2.015388 -7.056111,2.639634 -0.258681,0.700781 0.24827,0.609626 2.802153,-0.505262 1.231409,-0.537565 2.552917,-0.979047 2.936838,-0.981034 0.383922,-0.002 1.089184,-0.266647 1.567248,-0.587536 0.838408,-0.562588 0.829668,-0.58285 -0.250128,-0.565802 z m 9.006428,2.963281 c 0.98911,-0.04497 1.68399,-0.04472 1.813,0.02249 0.16328,0.08525 0.43805,0.914036 0.61046,1.841769 0.17242,0.927733 0.51129,1.904221 0.75301,2.170073 0.24188,0.265852 0.35248,0.712905 0.24576,0.993452 -0.10671,0.280547 0.056,1.046383 0.36208,1.702062 0.69191,1.482179 0.55744,6.393818 -0.19329,7.058942 -0.85989,0.761839 -4.5935,0.49222 -6.351192,-0.458693 -2.09636,-1.134133 -2.59371,-1.05236 -1.28651,0.211105 l 1.08535,1.049336 -2.23892,-0.226631 c -1.23141,-0.124455 -2.59156,-0.346993 -3.02255,-0.495176 -0.452162,-0.155459 -0.783626,-0.08724 -0.783626,0.162215 0,0.237777 0.503758,0.545079 1.119466,0.682219 0.6157,0.137137 1.11946,0.420627 1.11946,0.630227 0,0.20959 -0.35263,0.29091 -0.78363,0.18084 -0.43099,-0.11008 -1.641042,-0.41859 -2.689329,-0.686106 -1.048283,-0.267513 -2.026241,-0.380449 -2.172456,-0.250692 -0.521933,0.463183 0.279884,0.982158 2.287026,1.480868 1.120958,0.27852 2.147159,0.66324 2.280909,0.85529 0.13375,0.19206 -0.36376,0.92771 -1.106346,1.63454 -2.25608,2.14751 -10.034025,10.034254 -11.62667,11.789494 -1.558865,1.718 -1.611906,2.80805 -0.137309,2.80805 0.604707,0 1.21279,0.67282 2.065757,2.28494 1.672047,3.16021 1.837558,3.55327 2.632488,6.25875 1.102384,3.75187 1.136353,4.03857 1.228785,10.23954 0.04811,3.22762 0.18279,6.31018 0.299107,6.85017 0.341203,1.58396 1.016875,0.70186 0.934925,-1.22087 -0.104092,-2.44224 0.306594,-2.5662 1.469295,-0.44239 1.0977,2.00507 0.814476,2.77795 -1.276013,3.48329 -0.917507,0.30957 -0.99998,0.52587 -0.744268,1.94499 l 0.287738,1.59729 -1.513025,-0.0543 c -3.107556,-0.11119 -3.327602,-0.25209 -4.130642,-2.64662 -0.418043,-1.24654 -0.94625,-3.29632 -1.174558,-4.55513 -0.228308,-1.25882 -0.706349,-2.77881 -1.061743,-3.37774 -0.355393,-0.59894 -0.944396,-1.8042 -1.309243,-2.67844 -0.36485,-0.87424 -1.108263,-2.61189 -1.652084,-3.86127 -0.543817,-1.24939 -1.165016,-3.21642 -1.380087,-4.37119 -0.997858,-5.35781 -1.427284,-7.09361 -2.515294,-10.16348 l -1.168436,-3.29624 1.156194,-2.465784 c 0.635864,-1.35647 1.506219,-3.45007 1.933697,-4.65215 0.901883,-2.5361 2.857781,-5.37682 6.516494,-9.464187 2.759605,-3.08292 2.740216,-3.024 2.804777,-8.417953 l 0.021,-1.788214 3.358388,-0.491293 c 1.847113,-0.270319 3.862145,-0.66911 4.47785,-0.886346 0.877645,-0.309648 6.486893,-0.846116 9.454215,-0.981034 z m 41.16124,11.801126 c -0.54002,-0.06423 -1.08776,0.162811 -2.00017,0.637983 -1.73286,0.902448 -1.87878,1.447956 -0.4163,1.555372 0.65492,0.0481 1.46818,0.292282 1.80688,0.541742 0.97326,0.716807 1.27294,0.03302 0.37257,-0.849867 -1.41789,-1.390396 -0.11223,-0.858958 1.65733,0.674459 1.39226,1.206475 1.69844,1.750705 1.69844,3.022265 0,2.11865 -1.12002,5.78316 -2.70858,8.86113 -0.72728,1.409184 -1.53041,3.317174 -1.78414,4.240024 -0.25373,0.92285 -0.59323,2.12506 -0.75476,2.67146 -0.54457,1.84209 -0.229,5.4514 0.5711,6.53505 0.42237,0.57205 0.87382,0.946 1.00314,0.83124 0.12932,-0.11476 -0.12848,-0.56546 -0.57285,-1.00121 -0.66526,-0.65237 -0.75991,-1.20574 -0.53262,-3.13559 0.31422,-2.66785 1.91299,-7.19376 3.64613,-10.322594 3.05251,-5.5107 3.04051,-10.76087 -0.0297,-13.153145 -0.88408,-0.68886 -1.41642,-1.044087 -1.95643,-1.108319 z m -4.01345,2.458794 c -0.22298,0.02011 -0.40131,0.10647 -0.51688,0.272424 -0.39035,0.560496 0.40329,1.229946 1.0425,0.879356 0.6334,-0.347394 2.51458,0.98738 3.31116,2.34936 0.41425,0.70826 0.83391,1.07643 0.9323,0.81805 0.52516,-1.37898 -3.20821,-4.459994 -4.76908,-4.31919 z m 4.68775,1.18593 c -0.32371,-0.0604 -0.32583,0.36366 0.0297,1.18594 0.14949,0.34571 0.45174,0.62866 0.67168,0.62866 0.64069,0 0.46102,-1.04965 -0.27199,-1.58952 -0.17802,-0.13111 -0.32152,-0.20493 -0.42942,-0.22508 z m -4.77696,1.5057 c -0.64403,-0.0664 -1.21765,0.0844 -1.58998,0.53631 -0.32586,0.39547 -0.5921,1.30169 -0.5921,2.01329 0,1.25561 0.0532,1.29182 1.79552,1.23018 1.32022,-0.0467 2.05774,0.16907 2.78641,0.81571 1.30955,1.16215 1.54697,1.11358 1.79201,-0.36788 0.30947,-1.87121 -2.25975,-4.02849 -4.19186,-4.22761 z m 0.35508,1.51346 c 1.37651,0.0137 2.83626,0.79651 2.83626,1.52123 0,0.53037 -0.16586,0.52037 -2.21881,-0.13738 -1.96298,-0.62892 -2.30753,-1.40069 -0.61745,-1.38385 z m -44.516132,0.4036 c 0.22009,-0.0287 0.33341,0.12885 0.32885,0.47809 -0.004,0.2732 0.3917,1.65907 0.87895,3.07971 0.48725,1.42063 1.60678,4.689544 2.48731,7.264614 0.88053,2.57508 1.48152,4.8538 1.33548,5.06351 -0.69093,0.9921 1.864502,6.11459 3.861272,7.73961 2.95481,2.40469 3.5333,3.01791 3.5333,3.74562 0,0.79225 -0.0765,0.80973 -1.23141,0.28484 -2.055,-0.93393 -8.549782,-2.72768 -9.163842,-2.53097 -0.68022,0.21791 -0.0172,0.48335 6.350322,2.54572 3.74274,1.21223 4.8248,1.7403 5.37342,2.62101 0.60962,0.97863 0.61094,1.14557 0.0149,1.48397 -0.57673,0.32741 -0.56371,0.38208 0.0936,0.38729 0.95846,0.008 3.15115,2.05439 2.66397,2.48673 -0.19797,0.17568 -1.11976,0.0377 -2.04827,-0.30657 -3.08763,-1.14488 -2.6852,-0.36692 0.45566,0.88091 2.92768,1.16313 5.09302,2.65098 4.55394,3.12938 -0.13559,0.12032 -3.18728,-0.85251 -6.78062,-2.16232 -3.91515,-1.42712 -6.64405,-2.22182 -6.81036,-1.98302 -0.152622,0.21917 -0.206922,0.44202 -0.120692,0.49595 0.571762,0.35764 5.738412,2.23372 6.151802,2.23372 0.2804,0 0.85973,0.15775 1.28738,0.35081 1.31565,0.59394 2.92053,1.14782 5.21862,1.80141 1.21099,0.34441 2.57114,0.92274 3.02255,1.28528 1.0732,0.8619 1.09799,1.90752 0.0367,1.54761 -0.431,-0.14618 -4.06925,-1.43684 -8.0855,-2.86782 -4.01624,-1.43097 -7.42848,-2.48924 -7.582602,-2.35246 -0.399,0.35408 0.313472,0.8255 2.122602,1.40403 2.27439,0.7273 3.21931,1.05447 4.47785,1.55071 1.85719,0.73228 7.27454,2.47504 9.10525,2.92913 1.27536,0.31635 1.90088,0.76768 2.43133,1.75484 0.39278,0.73095 0.59705,1.433 0.45391,1.56003 -0.21498,0.19078 -5.47335,-1.67958 -13.70642,-4.87567 -0.82041,-0.31849 -1.59326,-0.48917 -1.71767,-0.37876 -0.30495,0.27073 13.66023,6.22538 14.60025,6.22538 0.26153,0 0.47577,0.44705 0.47577,0.99345 0,1.16625 0.0193,1.1611 -1.60747,0.41213 -0.69418,-0.31962 -1.37252,-0.47402 -1.50691,-0.34305 -0.13438,0.13096 -0.003,0.3151 0.29299,0.40902 0.29549,0.0939 1.02193,0.50919 1.61447,0.92282 1.0316,0.72012 1.05363,0.833 0.516,2.65593 -0.34481,1.16914 -0.78164,1.85642 -1.13258,1.78123 -0.3143,-0.0673 -3.00461,-1.17524 -5.97863,-2.46267 -2.97402,-1.28743 -5.55944,-2.20649 -5.74511,-2.04201 -0.28917,0.25615 8.02039,4.00732 8.9592,4.04443 0.71874,0.0284 2.40171,1.57714 2.1331,1.96285 -0.48541,0.69699 -2.16476,0.4043 -4.13327,-0.72025 -1.03744,-0.59267 -3.70736,-1.87014 -5.93315,-2.83833 -4.10288,-1.78469 -4.87091,-2.39127 -3.02692,-2.39127 1.12605,0 3.0103,-1.01675 3.0103,-1.62445 0,-0.81535 -1.31707,-0.78317 -2.26166,0.0551 -0.89459,0.79389 -1.24393,0.84686 -3.728332,0.5658 -1.5079,-0.17059 -4.24022,-0.32734 -6.07134,-0.34848 -3.268089,-0.0378 -3.345081,-0.0624 -4.18749,-1.33651 l -0.85796,-1.29847 1.612724,-1.58409 c 0.887009,-0.8713 1.612725,-1.67258 1.612725,-1.78123 0,-0.46687 -0.921788,-0.12727 -2.15759,0.79554 -2.215725,1.65455 -2.629133,1.05764 -0.686544,-0.99113 0.914789,-0.96478 1.426854,-1.19761 2.238925,-1.01673 1.287315,0.28673 1.375377,-0.20513 0.157424,-0.88014 -0.492564,-0.27298 -0.89557,-0.73832 -0.89557,-1.03381 0,-0.29549 -0.47733,-1.16171 -1.060866,-1.92481 -0.831299,-1.0871 -1.126631,-2.15256 -1.364347,-4.92302 -0.166867,-1.94476 -0.515149,-4.49838 -0.774001,-5.67432 -0.349379,-1.58722 -0.337132,-2.21133 0.04897,-2.4231 0.533786,-0.29276 0.368531,-0.66109 -3.728334,-8.28911 -0.98172,-1.82788 -1.5954,-3.43117 -1.368718,-3.57643 0.225979,-0.14481 2.019878,-1.96191 3.986339,-4.03823 1.966452,-2.076314 3.79522,-3.953944 4.064173,-4.172494 0.268948,-0.21856 1.145456,-1.15738 1.94769,-2.08625 0.91287,-1.05699 1.57738,-1.62234 1.94418,-1.67024 z m 42.693502,2.90739 c -1.14425,0.10079 -1.6101,0.76375 -1.6101,2.13438 0,1.3531 0.0356,1.38014 1.47717,1.14014 0.97959,-0.16309 1.77135,-0.0482 2.35087,0.34072 1.07944,0.72442 1.67663,0.77187 1.44393,0.11487 -0.0968,-0.2732 -0.8686,-0.80887 -1.71592,-1.19059 -0.84732,-0.38172 -1.54101,-0.91575 -1.54101,-1.18671 0,-0.90581 1.43322,-0.75145 2.85113,0.30735 0.96805,0.72287 1.40282,0.87124 1.40282,0.47809 0,-0.88236 -1.39489,-1.75738 -3.28055,-2.05753 -0.53993,-0.0859 -0.99692,-0.11431 -1.37834,-0.0807 z m -0.85708,4.30212 c -0.53747,0.0679 -0.97691,0.39164 -0.97691,0.719474 0,0.45477 0.44004,0.56519 1.85586,0.46646 1.02065,-0.0712 1.98949,0.063 2.15321,0.29804 0.37069,0.53227 0.69267,0.55108 0.69267,0.0404 0,-0.59099 -2.62152,-1.663724 -3.72483,-1.524334 z m -70.086229,9.064474 c 0.466887,0 3.929412,6.15091 3.95485,7.02557 0.0013,0.0392 -1.357429,-0.27372 -3.019047,-0.69541 -5.043308,-1.27992 -5.114595,-0.8073 -0.113697,0.75517 2.585959,0.80796 4.828784,1.31158 4.984232,1.11919 0.373659,-0.46246 3.607916,0.49198 3.277052,0.96706 -0.139942,0.20095 -0.569126,0.36556 -0.954167,0.36556 -0.571522,0 -0.597636,0.10946 -0.142557,0.59607 0.306594,0.32784 0.811548,0.59607 1.122087,0.59607 0.310543,0 0.685849,0.40235 0.834348,0.89411 0.423435,1.40218 0.335526,1.59468 -0.421549,0.92283 -0.73233,-0.6499 -1.534886,-0.83003 -1.534886,-0.34383 0,0.1547 0.746238,0.9594 1.658202,1.78821 2.179974,1.9812 1.393363,1.91074 -3.897127,-0.35081 -3.647603,-1.55926 -8.826335,-3.5249 -10.299055,-3.90861 -2.161422,-0.56317 -2.18095,-0.82168 -0.3131,-4.1694 1.608753,-2.88334 3.951371,-5.56178 4.864414,-5.56178 z m 82.417799,3.81393 c -0.31685,0.0536 -0.91816,0.34736 -2.05613,0.92515 -1.32296,0.67172 -2.78386,1.23944 -3.24644,1.26122 -0.63459,0.0299 -0.56653,0.11774 0.27811,0.3578 0.61571,0.17498 1.23289,0.33601 1.37134,0.35779 0.13845,0.0218 1.0956,-0.32227 2.12698,-0.76449 1.29736,-0.55625 1.8751,-1.05542 1.8751,-1.61902 0,-0.3854 -0.0321,-0.57202 -0.34896,-0.51845 z M 6.8103245,114.86129 c -0.474619,0.4212 0.38555,0.89957 3.6828565,2.04745 1.723972,0.60015 4.142011,1.52216 5.37342,2.04899 1.231408,0.52683 4.354709,1.73705 6.940667,2.68931 2.585958,0.95226 6.011514,2.36963 7.612345,3.15033 1.600831,0.78069 3.414361,1.61576 4.030065,1.85573 0.615704,0.23997 1.824724,0.76008 2.68671,1.15567 0.861986,0.39558 1.819126,0.73849 2.126979,0.76216 1.791033,0.13791 -0.564149,-1.07829 -10.075163,-5.20476 -11.270862,-4.88998 -21.8993245,-8.92954 -22.3778795,-8.50488 z m 54.5694205,0.72724 c -0.171305,-0.0257 -0.282441,-0.0263 -0.31572,0.004 -0.236175,0.2096 3.279004,1.86363 4.39389,2.06762 0.308381,0.0564 1.064363,0.28376 1.680067,0.50449 0.615705,0.22077 1.421718,0.50216 1.79114,0.62557 1.026104,0.34277 1.420862,0.32307 1.155321,-0.0582 -0.132392,-0.19011 -0.899734,-0.568 -1.705434,-0.83901 -0.805699,-0.271 -2.726688,-0.94787 -4.268824,-1.50414 -1.156606,-0.41722 -2.216481,-0.72314 -2.73044,-0.8002 z m 73.090415,0.38652 c -0.15995,0.0462 -0.2743,0.157 -0.38657,0.31821 -0.15141,0.21742 1.49841,1.18506 3.66711,2.14989 3.94953,1.75711 5.35697,2.17254 4.83906,1.42887 -0.15222,-0.21856 -0.48184,-0.39738 -0.73203,-0.39738 -0.25019,0 -1.85595,-0.8047 -3.56916,-1.78822 -2.45114,-1.40715 -3.33859,-1.85004 -3.81841,-1.71137 z m -45.024264,0.0714 c -0.167695,-0.0886 -0.432856,0.0227 -0.589469,0.24759 -0.157445,0.22607 0.579815,0.74928 1.648584,1.17041 2.358967,0.92952 4.395637,1.04532 4.395637,0.24991 0,-0.37197 -0.88827,-0.73005 -2.57476,-1.03769 -1.41612,-0.25833 -2.712301,-0.54165 -2.879992,-0.63022 z m 40.154594,0.2926 c -0.40929,-0.0762 -0.66818,0.0289 -0.66818,0.33452 0,0.20769 0.35263,0.55957 0.78363,0.78234 0.43099,0.22277 1.18663,0.40626 1.67919,0.40825 0.81853,0.003 0.79927,-0.0636 -0.22389,-0.77381 -0.60177,-0.41773 -1.16146,-0.67504 -1.57075,-0.7513 z m -71.585254,1.91861 c 1.097938,0.0113 4.42155,1.07397 12.033349,3.81625 2.216535,0.79855 4.302067,1.65023 4.6344,1.89221 0.332328,0.24199 1.138341,0.44807 1.79114,0.45793 0.95581,0.0144 1.214388,0.23062 1.328488,1.11064 0.07793,0.60104 -0.02284,1.07707 -0.223892,1.05788 -0.201069,-0.0192 -2.179106,-0.81488 -4.395641,-1.76804 -2.216536,-0.95316 -4.337792,-1.74212 -4.713985,-1.75329 -0.376198,-0.0112 -1.081459,-0.26265 -1.567248,-0.55881 -0.485793,-0.29616 -2.29385,-0.94964 -4.017822,-1.45215 -2.621884,-0.76424 -4.420856,-1.49932 -5.584192,-2.28184 -0.116008,-0.078 0.05267,-0.28646 0.375194,-0.46335 0.07203,-0.0395 0.183364,-0.0591 0.340209,-0.0574 z m -49.7872175,1.04079 c -0.126636,0.0232 -0.197655,0.0896 -0.197655,0.2018 0,0.21874 0.453383,0.55906 1.007517,0.75673 1.6026845,0.57169 2.4749905,0.49896 1.4430565,-0.1203 -0.9897425,-0.59394 -1.8730075,-0.90786 -2.2529185,-0.83823 z m 113.4514015,0.17619 c -0.77072,0 -0.008,0.56415 2.09637,1.54916 0.98148,0.45947 1.989,0.83149 2.23893,0.82736 0.63889,-0.0106 -3.67704,-2.37652 -4.3353,-2.37652 z m -29.606284,0.90264 c -0.287075,0.0849 0.382739,0.43016 1.488532,0.7676 2.54724,0.7773 2.68234,0.79451 2.68234,0.33218 0,-0.43868 -3.38674,-1.33174 -4.170872,-1.09978 z m -79.143375,0.2895 c -0.260817,0 -0.349866,0.17882 -0.197655,0.39738 0.15221,0.21856 0.365416,0.39738 0.474022,0.39738 0.108607,0 0.197655,-0.17882 0.197655,-0.39738 0,-0.21856 -0.213206,-0.39738 -0.474022,-0.39738 z m 85.939737,0 c -1.1018,0 0.29114,0.74575 3.643502,1.95042 1.84711,0.66377 3.62197,1.21168 3.94435,1.21776 0.95108,0.0179 0.19132,-0.67382 -1.04162,-0.94844 -0.62459,-0.13911 -2.22558,-0.69561 -3.55779,-1.23638 -1.33221,-0.54077 -2.677122,-0.98336 -2.988442,-0.98336 z m -5.8868,1.19214 c -0.916933,0 -0.11249,0.78661 1.35822,1.32797 1.92591,0.70891 2.79866,0.80757 2.79866,0.31588 0,-0.30947 -3.37412,-1.64385 -4.15688,-1.64385 z m -86.0717965,0.74975 1.119462,0.6046 c 1.244641,0.67228 2.6822485,0.86202 1.9922935,0.26311 -0.2339675,-0.20309 -1.0295555,-0.48136 -1.7684005,-0.61857 z m 45.0023915,0.045 c -0.246282,0 -0.447785,0.17882 -0.447785,0.39738 0,0.21856 0.201503,0.39738 0.447785,0.39738 0.246281,0 0.447785,-0.17882 0.447785,-0.39738 0,-0.21856 -0.201504,-0.39738 -0.447785,-0.39738 z m 69.622697,0.39738 c 0.11885,0 2.73839,1.10635 5.8212,2.4588 5.18919,2.27652 5.60519,2.54191 5.60519,3.57642 0,0.61459 -0.15113,1.10448 -0.33584,1.08814 -0.69965,-0.0618 -6.26168,-2.66043 -8.73181,-4.07936 -1.69863,-0.97574 -2.57476,-1.74538 -2.57476,-2.26165 0,-0.43041 0.0972,-0.78235 0.21602,-0.78235 z m -21.30565,0.68223 c -0.244872,-0.01 -0.404052,0.0322 -0.404052,0.14591 0,0.21423 0.453382,0.5513 1.007512,0.74897 1.32838,0.47384 2.24129,0.49792 1.9302,0.0512 -0.29329,-0.42114 -1.79904,-0.91658 -2.53366,-0.9461 z m -49.540584,0.12185 c -0.343532,0.0166 -0.922267,0.58566 -1.566374,1.61436 -0.559136,0.893 -1.3684,2.18946 -1.799012,2.88101 -0.430608,0.69155 -0.783239,1.77173 -0.783624,2.40058 -8.96e-4,1.1325 -0.02212,1.14143 -2.239798,0.95232 -1.231409,-0.105 -2.238925,-0.0811 -2.238925,0.0528 0,0.39997 1.919372,1.3458 3.358387,1.65472 0.738845,0.15861 1.471301,0.30671 1.627596,0.32908 0.15629,0.0224 0.284236,-0.86126 0.284236,-1.96362 0,-1.15501 0.270896,-2.2916 0.63932,-2.68232 0.351632,-0.37292 1.010131,-1.43834 1.463169,-2.36721 0.453033,-0.92888 0.994548,-1.68887 1.203422,-1.68887 0.208878,0 0.37957,-0.26823 0.37957,-0.59607 0,-0.40755 -0.121847,-0.5967 -0.327967,-0.58676 z m -39.512653,0.16299 c -0.193314,-0.0307 -0.319727,-0.032 -0.359453,0.004 -0.130945,0.11621 0.951118,0.66541 2.405095,1.22086 1.453977,0.55544 3.046862,1.17155 3.539426,1.3691 1.341665,0.53809 1.842151,0.48123 1.10372,-0.12573 -0.728329,-0.59866 -5.335594,-2.25299 -6.688788,-2.46811 z m 81.484624,0.45326 c 0,0.10177 1.057891,0.61358 2.350871,1.13781 2.60609,1.05663 3.62641,1.23513 3.38462,0.59142 -0.0883,-0.23495 -0.35721,-0.43908 -0.59733,-0.45326 -0.24013,-0.0142 -1.49431,-0.34877 -2.78729,-0.74354 -1.29298,-0.39478 -2.350871,-0.6342 -2.350871,-0.53243 z m 55.771103,1.96517 c -0.18874,0.0212 -0.55291,0.2551 -1.25328,0.72103 -1.43755,0.95637 -4.68902,1.92385 -8.17207,2.43085 -2.92458,0.42571 -3.33511,0.6142 -4.06943,1.87437 -0.84781,1.45495 -1.12855,2.37972 -1.40895,4.63119 -0.23647,1.89888 -1.0648,2.46891 -2.46106,1.69508 -1.10979,-0.61505 -1.73041,-0.14393 -0.69529,0.52777 0.50841,0.32991 0.61671,0.63165 0.32184,0.89333 -0.29487,0.26168 -0.12753,0.7527 0.49589,1.45603 0.94407,1.0651 1.7719,1.3863 1.7719,0.68765 0,-0.20566 -0.20151,-0.48427 -0.44779,-0.61935 -0.24628,-0.13508 -0.44778,-0.68192 -0.44778,-1.21542 0,-1.14689 0.87698,-1.25996 2.49255,-0.32055 1.55367,0.90341 1.70015,0.54176 0.43204,-1.06796 -1.00921,-1.28107 -1.04305,-1.49163 -0.52562,-3.25588 0.72205,-2.46193 1.35013,-3.03286 2.4051,-2.1856 1.0037,0.80609 6.83568,3.14542 7.41469,2.97415 0.23797,-0.0704 -1.40635,-0.9168 -3.654,-1.88058 -2.24764,-0.96377 -4.08691,-1.86616 -4.08691,-2.00553 0,-0.42717 2.05188,-1.11437 5.79846,-1.94188 4.52784,-1.00007 6.29173,-1.79635 6.29173,-2.84066 0,-0.3873 -0.0133,-0.57923 -0.20202,-0.55804 z m -25.96366,0.19093 c 0.13948,0 2.45736,1.02822 5.1504,2.28494 3.08878,1.4414 4.85488,2.49317 4.78395,2.84841 -0.16105,0.80651 -0.88833,0.91644 -1.9127,0.2895 -0.48798,-0.29865 -2.54923,-1.29922 -4.58106,-2.22362 -2.67687,-1.21788 -3.69422,-1.89012 -3.69422,-2.44017 0,-0.4175 0.11415,-0.75906 0.25363,-0.75906 z m -68.372926,0.0854 c -0.120642,-0.001 -0.207087,0.0154 -0.247504,0.0512 -0.161677,0.14348 -0.209317,0.31709 -0.106703,0.38574 0.438924,0.2936 15.197026,5.38473 18.993258,6.55212 1.820841,0.55994 1.852795,0.55705 1.103718,-0.0955 -0.584548,-0.50918 -2.648205,-1.25507 -13.417806,-4.85239 -1.600831,-0.53472 -3.668102,-1.26046 -4.594171,-1.61203 -0.694546,-0.26367 -1.368869,-0.42537 -1.730792,-0.42921 z m -9.216324,0.0636 c -0.08116,0.0317 -0.131187,0.10935 -0.131187,0.22508 0,0.23146 0.201503,0.42066 0.447785,0.42066 0.246281,0 0.447785,-0.079 0.447785,-0.17541 0,-0.0964 -0.201504,-0.28558 -0.447785,-0.42066 -0.123141,-0.0675 -0.235437,-0.0814 -0.316598,-0.0497 z m -25.191404,0.26466 c -0.294875,0.005 -0.463528,0.13225 -0.463528,0.38108 0,0.21856 0.213972,0.39738 0.475772,0.39738 0.261799,0 1.82345,0.55232 3.470333,1.22707 4.347066,1.78106 6.486655,2.62744 7.24852,2.86859 1.029861,0.32598 1.043465,0.31642 0.447785,-0.32054 -0.306593,-0.32784 -0.722628,-0.59607 -0.924431,-0.59607 -0.339482,0 -7.264907,-2.76359 -9.032663,-3.60437 -0.505773,-0.24054 -0.926914,-0.35797 -1.221788,-0.35314 z m 72.275297,0.1886 c -0.121743,0.0283 -0.197656,0.0991 -0.197656,0.2049 0,0.2117 0.302255,0.38496 0.671677,0.38496 0.369423,0 0.671674,-0.0701 0.671674,-0.156 0,-0.0859 -0.302251,-0.25916 -0.671674,-0.38496 -0.184711,-0.0629 -0.352281,-0.0772 -0.474021,-0.0489 z m 1.989675,0.70551 c -0.13681,-0.008 -0.23026,0.002 -0.2685,0.0365 -0.22648,0.20098 2.04224,1.22103 4.35016,1.95586 1.3727,0.43706 2.018202,0.2925 1.10722,-0.24759 -1.14887,-0.68111 -4.23125,-1.68593 -5.18888,-1.74475 z m 53.214692,1.15954 c -0.0783,0.001 -0.14305,0.0206 -0.18891,0.0613 -0.18344,0.16279 -0.0369,0.46259 0.32535,0.66592 1.09016,0.61183 1.57457,0.42795 0.76525,-0.29028 -0.31225,-0.27709 -0.66677,-0.44075 -0.90169,-0.43696 z m -55.932895,0.31434 c -1.222471,0 0.51506,0.813 4.560933,2.13437 4.453472,1.45448 5.373422,1.64797 5.373422,1.12772 0,-0.17297 -1.763152,-0.82446 -3.918122,-1.44749 -2.15496,-0.62302 -4.26796,-1.28636 -4.695616,-1.47388 -0.427653,-0.18752 -1.021738,-0.34072 -1.320617,-0.34072 z m -40.430959,0.79476 c -1.20361,0 -0.338167,0.71217 1.226161,1.00897 0.79759,0.15133 2.944195,0.96948 4.770835,1.81848 1.826641,0.84901 3.57109,1.54374 3.876139,1.54374 0.305054,0 1.329698,0.34492 2.27653,0.76604 3.362879,1.49571 5.810225,2.46514 10.452981,4.14223 4.069537,1.47003 5.136448,1.69641 7.935941,1.68266 2.108978,-0.0104 3.081746,-0.15081 2.796032,-0.40436 -0.240993,-0.21387 -1.584988,-0.3652 -2.987567,-0.33607 -1.402584,0.0291 -2.963822,-0.15028 -3.468583,-0.39893 -0.504761,-0.24866 -1.175736,-0.40546 -1.49116,-0.34849 -0.315424,0.057 -3.143419,-1.04046 -6.284734,-2.43861 -6.006082,-2.67322 -17.850434,-7.03566 -19.102575,-7.03566 z m 92.687124,0.10633 c -0.14204,0.0149 -0.23002,0.0739 -0.23002,0.17463 0,0.20149 0.95714,0.73946 2.12698,1.19524 1.16984,0.45579 2.40381,0.84672 2.74181,0.8685 1.12226,0.0723 -0.36898,-1.10876 -1.89434,-1.50027 -0.77376,-0.1986 -1.75983,-0.4886 -2.19082,-0.64497 -0.2155,-0.0782 -0.41158,-0.108 -0.55361,-0.0931 z m -132.178788,0.3035 c -1.270687,0.0187 -0.09152,0.50274 4.777831,1.96207 2.339677,0.70119 4.533552,1.48238 4.87491,1.73621 0.341358,0.25383 1.449626,0.76444 2.462817,1.13471 2.194525,0.80198 2.174641,0.79821 1.910083,0.41833 -0.558033,-0.80128 -12.503542,-5.27377 -14.025641,-5.25132 z m 129.515688,0.78234 c -1.29133,0 -0.36509,0.6162 1.9853,1.32098 1.10827,0.33233 2.72029,0.87924 3.58228,1.21543 1.90312,0.74224 2.36624,0.7829 2.14272,0.18782 -0.19873,-0.52908 -6.41166,-2.72423 -7.7103,-2.72423 z m -47.113632,1.71448 c -0.11191,0.0993 0.46216,0.4014 1.27514,0.67136 0.81299,0.26996 2.1833,0.73006 3.04529,1.02217 0.86198,0.29211 1.970252,0.53352 2.462822,0.53631 0.7982,0.005 0.81368,-0.0368 0.14255,-0.38419 -1.097642,-0.56826 -6.686802,-2.05774 -6.925802,-1.84565 z m -43.63017,0.0481 c -0.413369,0.14165 6.423829,3.23573 10.561425,4.74529 1.723708,0.62888 3.939635,1.46984 4.924762,1.86815 0.985127,0.39832 3.440739,1.26039 5.456506,1.91628 2.015762,0.65589 4.030795,1.36143 4.47785,1.56779 0.447051,0.20636 2.021503,0.92604 3.499193,1.59884 3.040246,1.38424 3.358388,1.4526 3.358388,0.72413 0,-0.45995 -1.666736,-1.24325 -8.284022,-3.89386 -0.985127,-0.39461 -4.612186,-1.64647 -8.06013,-2.78167 -3.447945,-1.13521 -8.11776,-2.83507 -10.377767,-3.77745 -2.260006,-0.94237 -4.678045,-1.82219 -5.37342,-1.95508 -0.09495,-0.0182 -0.155229,-0.0219 -0.182785,-0.0124 z m -37.525609,0.79244 c -0.509889,0.0807 0.752916,0.98892 2.670093,1.67179 1.335686,0.47575 2.479085,0.88144 2.540655,0.90187 0.06157,0.0204 0.111946,-0.10124 0.111946,-0.2701 0,-0.33891 -2.20348,-1.42921 -4.180493,-2.06917 -0.60542,-0.19598 -0.972238,-0.26129 -1.142201,-0.23439 z m 80.968619,0.23516 c -0.24542,0.01 -0.27818,0.27516 0.0332,0.79166 0.56268,0.93304 3.44896,2.62652 5.76785,3.38395 1.584872,0.51767 4.079922,0.76324 4.079922,0.40126 0,-0.10081 -0.95714,-0.43632 -2.12698,-0.74509 -2.497192,-0.65913 -5.379842,-2.02652 -6.510372,-3.08824 -0.54026,-0.50738 -0.99824,-0.75332 -1.24366,-0.74354 z m 43.606572,0.52778 c -0.28835,0.25589 1.74516,1.26743 4.56006,2.26864 1.47769,0.52558 3.29121,1.27143 4.03006,1.65705 0.73885,0.38562 1.59523,0.7016 1.90309,0.70239 0.89787,0.002 0.64619,-0.62065 -0.44779,-1.10831 -2.1066,-0.93906 -9.88315,-3.66378 -10.04542,-3.51977 z m -34.25468,7.9e-4 c -0.1677,-0.084 -0.42707,0.0224 -0.57635,0.23672 -0.29605,0.42511 2.95628,1.9961 5.80721,2.80495 0.98513,0.2795 2.18868,0.75104 2.67447,1.04779 0.87536,0.5347 2.47506,0.74187 2.47506,0.32054 0,-0.12043 -0.75564,-0.49792 -1.6792,-0.839 -1.5485,-0.57189 -7.99951,-3.21945 -8.70119,-3.571 z m -94.8753235,0.25766 c -0.231747,0 -0.421548,0.17882 -0.421548,0.39738 0,0.21856 0.313958,0.39738 0.697915,0.39738 0.383959,0 0.573759,-0.17882 0.421548,-0.39738 -0.152211,-0.21856 -0.466168,-0.39738 -0.697915,-0.39738 z m 118.5432035,0.4292 c -0.21977,-0.002 -0.20855,0.18507 0.14606,0.56425 0.30659,0.32784 0.87393,0.59607 1.26027,0.59607 0.56232,0 0.52879,-0.11659 -0.16705,-0.58365 -0.5686,-0.38166 -1.0195,-0.57413 -1.23928,-0.57667 z m 9.32478,0.44628 c -0.10894,-0.009 -0.20823,-0.001 -0.29124,0.0264 -0.39751,0.13135 -0.22111,0.34212 0.516,0.61703 1.55049,0.57828 1.63838,0.55985 0.81161,-0.17385 -0.2985,-0.26491 -0.70957,-0.44313 -1.03637,-0.46957 z m -125.689405,0.33607 c -0.8362865,0.0273 6.289023,3.01157 10.411001,4.36032 1.914834,0.62655 4.858791,1.75704 6.541859,2.51235 1.683068,0.7553 3.143824,1.30201 3.246441,1.21465 0.257716,-0.21943 0.229944,-0.23588 -3.544673,-2.02572 -1.847113,-0.87586 -4.1644,-1.81779 -5.149527,-2.09323 -0.985127,-0.27544 -3.845005,-1.28563 -6.355573,-2.24458 -2.510569,-0.95895 -4.827857,-1.73433 -5.149528,-1.72379 z m 41.854776,0.13582 c -0.380738,0.33788 1.906261,1.36852 10.622651,4.7872 4.802494,1.88359 10.14233,4.11858 11.866303,4.96726 1.723972,0.84867 3.310568,1.55914 3.525433,1.57866 0.841827,0.0765 -0.729786,-1.09827 -2.745307,-2.05211 -1.167841,-0.55267 -3.231749,-1.54701 -4.586299,-2.20965 -3.101824,-1.51739 -18.41162,-7.31201 -18.682781,-7.07136 z m -32.887707,0.33063 c -0.306375,0.0906 1.650121,1.09942 4.348412,2.24148 2.698291,1.14205 5.410153,2.3319 6.025857,2.64429 1.285444,0.6522 3.32484,0.78651 2.910602,0.1917 -0.15221,-0.21856 -0.453861,-0.39738 -0.670803,-0.39738 -0.216941,0 -2.371398,-0.82157 -4.787451,-1.82547 -2.416052,-1.00389 -5.040615,-2.09388 -5.8317,-2.42231 -0.791084,-0.32844 -1.688542,-0.52293 -1.994917,-0.43231 z m 9.702591,0.7187 c -0.246281,0 -0.14553,0.1731 0.223893,0.38496 0.369423,0.21187 0.873181,0.38497 1.119462,0.38497 0.246282,0 0.145531,-0.1731 -0.223892,-0.38497 -0.369423,-0.21186 -0.873181,-0.38496 -1.119463,-0.38496 z m 111.722355,0.59763 c 0,0.12289 0.85639,0.56871 1.90309,0.99034 2.00767,0.80874 3.3481,1.04352 2.01066,0.35237 -1.34987,-0.69759 -3.91375,-1.57717 -3.91375,-1.34271 z m -109.48343,0.53242 1.119463,0.60694 c 1.300641,0.70512 2.238925,0.80454 2.238925,0.2375 0,-0.21856 -0.251879,-0.39964 -0.559731,-0.40282 -0.307853,-0.003 -1.06349,-0.10353 -1.679194,-0.22352 z m -21.5129195,0.0543 c -0.226142,0.008 -0.102944,0.17373 0.4792695,0.51924 1.183919,0.70258 5.482597,2.31143 7.152316,2.67689 0.738845,0.16171 1.405433,0.31291 1.481538,0.33529 0.07611,0.0224 0.02778,-0.11844 -0.107573,-0.31279 -0.135349,-0.19434 -0.787307,-0.47428 -1.449179,-0.62168 -0.661872,-0.14742 -2.469351,-0.79332 -4.016072,-1.43507 -1.815548,-0.75329 -3.1633965,-1.17578 -3.5402995,-1.16188 z m 126.9925195,0.008 c -0.55805,0.0101 -0.52348,0.12964 0.17142,0.59607 0.47807,0.32089 1.18333,0.57819 1.56725,0.57124 0.55806,-0.0101 0.52348,-0.12964 -0.17142,-0.59607 -0.47806,-0.32089 -1.18332,-0.57819 -1.56725,-0.57124 z m 2.89224,1.30701 c -0.1066,0.0217 -0.0292,0.10495 0.21602,0.25225 0.36943,0.22185 1.0576,0.40583 1.52965,0.40902 1.14563,0.008 0.7885,-0.21956 -0.85797,-0.5464 -0.49053,-0.0974 -0.78109,-0.13656 -0.8877,-0.11487 z M 4.6719765,140.231 c -0.425221,0.10119 -0.743957,6.91827 -0.35333,7.55722 0.100212,0.16392 0.36001,0.29804 0.577222,0.29804 0.718075,0 0.784257,-0.56108 0.502884,-4.27883 -0.162442,-2.14633 -0.465822,-3.63853 -0.726776,-3.57643 z m 103.7164535,0.12418 c -0.31794,0.28214 1.40813,1.34602 2.20744,1.36056 0.38173,0.007 0.89661,0.19263 1.14482,0.41291 0.24822,0.22027 1.34693,0.64935 2.44095,0.95387 2.44936,0.68176 2.66048,0.70845 2.66048,0.33218 0,-0.31528 -0.64043,-0.58294 -5.35156,-2.23526 -1.58889,-0.55727 -2.98503,-0.92818 -3.10213,-0.82426 z m 27.97956,0.23051 c -0.17411,-0.009 -0.26665,0.018 -0.26587,0.0862 0.003,0.25295 1.56439,1.02139 3.47033,1.70749 1.90595,0.6861 3.62957,1.16016 3.83067,1.05321 0.52421,-0.27879 0.4441,-0.31961 -3.62077,-1.84099 -1.63956,-0.61364 -2.89202,-0.97739 -3.41436,-1.00587 z m -41.383382,0.28872 c 1.34121,0.0402 2.98458,0.24412 3.27443,0.45171 0.24628,0.17641 3.439312,1.65972 7.095472,3.29625 l 6.64768,2.9757 -1.87772,0.15911 c -1.57003,0.13287 -2.73154,-0.2074 -7.09547,-2.07927 -5.280892,-2.26519 -9.999582,-4.71274 -9.223322,-4.78332 0.31861,-0.029 0.73186,-0.0336 1.17893,-0.0202 z m -47.168723,0.45948 c 0.742925,-0.0917 2.53599,0.41604 4.94575,1.43041 6.801478,2.86303 10.794067,4.62948 10.794067,4.77556 0,0.23362 -4.175648,0.11323 -4.925635,-0.14203 -0.369422,-0.12574 -2.585958,-1.21527 -4.925635,-2.42077 -2.339676,-1.2055 -4.705763,-2.38494 -5.257976,-2.621 -0.552213,-0.23607 -1.005725,-0.56332 -1.007516,-0.72724 -0.0018,-0.1672 0.129302,-0.26437 0.376945,-0.29493 z m 42.967245,0.0264 c 0.572283,0.09 2.136018,0.72345 4.384268,1.78744 2.68532,1.27083 6.041422,2.8204 7.457542,3.44293 1.41612,0.62254 2.57477,1.21311 2.57477,1.31322 0,0.4772 -3.48575,0.0622 -4.44462,-0.52932 -0.59756,-0.36863 -2.914842,-1.38868 -5.149522,-2.26632 -4.840323,-1.90095 -6.064459,-2.55258 -5.320075,-2.83289 0.294002,-0.11071 0.414716,-0.47942 0.267623,-0.8196 -0.04106,-0.0949 0.03927,-0.12546 0.230014,-0.0955 z m 55.85418,0.0854 c -0.0997,0.0259 -0.19324,0.0807 -0.28599,0.16298 -0.371,0.32924 -0.16702,0.60147 0.77925,1.04235 1.63988,0.76404 1.95036,0.48901 0.70054,-0.62013 -0.54175,-0.48077 -0.89473,-0.66306 -1.1938,-0.5852 z m -11.43251,0.28096 c -0.23909,0.0632 -0.45128,0.3538 -0.45128,0.78079 0,0.57171 0.47199,0.89238 1.7719,1.20301 1.54786,0.36988 3.20292,1.3953 1.78764,1.10754 -0.29537,-0.06 -0.62964,0.1141 -0.74252,0.3873 -0.11288,0.27319 0.0897,0.49672 0.44953,0.49672 0.35979,0 0.9047,0.26823 1.2113,0.59607 0.77709,0.83094 1.49193,0.74475 1.22878,-0.14824 -0.1687,-0.57249 -0.0259,-0.69922 0.6192,-0.5495 0.54533,0.12655 0.83873,-0.015 0.83873,-0.40359 0,-0.36146 -1.19469,-1.044 -3.02255,-1.7269 -1.6624,-0.62109 -3.09001,-1.26661 -3.1721,-1.43508 -0.0747,-0.15332 -0.17228,-0.24812 -0.27724,-0.29182 -0.0787,-0.0328 -0.16169,-0.0374 -0.24139,-0.0163 z m 9.56003,2.18016 c -0.53838,-0.005 0.30115,0.88551 1.87686,1.67412 0.95883,0.47988 1.84928,0.77809 1.97917,0.66282 0.27375,-0.24294 -0.99431,-1.13609 -2.83452,-1.99622 -0.50932,-0.23806 -0.84204,-0.33893 -1.02151,-0.34072 z m -56.755867,0.60306 c -1.303363,0 -0.727758,0.57906 1.645081,1.65627 2.114553,0.95996 3.455464,1.34554 3.455464,0.99345 0,-0.33272 -4.460159,-2.64972 -5.100545,-2.64972 z m -61.189121,0.5526 c -0.116495,0.0207 0.135035,0.23591 0.689169,0.56891 1.500529,0.90174 2.015032,1.0333 2.015032,0.51458 0,-0.19307 -0.352631,-0.44108 -0.783624,-0.55105 -0.430993,-0.10998 -1.18663,-0.32815 -1.679193,-0.48509 -0.123141,-0.0392 -0.202553,-0.0542 -0.241384,-0.0473 z m 98.399878,0.64575 c 0.41643,0.0505 0.89644,0.26253 1.69756,0.6667 l 1.79114,0.90342 -3.27268,0.007 c -3.37298,0.007 -3.74448,-0.30249 -1.53226,-1.27597 0.54679,-0.24061 0.89981,-0.35166 1.31624,-0.30114 z" />
    <g
       aria-label="XXII"
       id="text855"
       style="font-size:40px;line-height:1.25;font-family:Hultog;-inkscape-font-specification:Hultog"
       transform="matrix(0.44778499,0,0,0.39738084,-1.3731209,-3.316049)">
      <path
         d="m 48.239468,48.938 q -0.513762,2.715596 -1.541285,2.422018 L 43.126318,50.35696 q -4.30581,0 -4.892966,1.247706 l -1.663609,-1.174312 q 0.954128,-2.07951 2.17737,-2.07951 0.293578,0 0.562691,0.09786 0.244648,-0.220183 0.244648,-0.562691 0,-0.513762 -0.538226,-1.394496 -1.712538,-1.223241 -4.501529,-6.776758 h -0.171254 q -0.513761,-0.02447 -0.758409,0.464832 -2.495413,5.333333 -4.4526,7.168196 l 0.195719,0.880734 q 2.226299,0.293578 2.226299,1.810397 0,0.611621 -0.415902,1.590214 -0.905198,-0.70948 -1.785932,-0.880734 -0.366973,-0.04893 -1.981652,-0.04893 -3.082569,0 -4.525994,0.733944 l -1.051987,-0.587155 v -1.932722 l 2.88685,-0.733945 q 0.685015,-0.171254 6.948012,-9.174312 1.247706,-0.391437 1.247706,-1.174312 0,-0.782875 -0.905198,-1.492355 -1.247707,-1.027523 -1.370031,-1.198776 -0.782875,-1.076453 -2.103976,-3.400612 -1.3211,-2.324159 -2.07951,-3.376147 0,0 -1.834863,-1.639144 l -3.278287,-0.733945 0.978593,-2.103975 5.357798,0.685015 3.009175,-0.685015 1.37003,0.464832 v 1.663608 q -1.688073,0.318043 -1.663608,1.370031 v 0.171254 l 4.648318,6.874617 0.75841,-0.195718 q 0.929663,-3.571866 3.474006,-5.993884 v -1.247706 l -1.883792,-0.685016 -0.415903,-1.859327 1.051988,-0.538226 3.914373,0.66055 q 1.663609,-0.587156 2.88685,-0.587156 1.492355,0 1.810398,1.003058 -0.807339,2.152906 -3.180428,2.152906 -1.859327,2.422018 -3.718655,4.844036 -2.78899,3.743119 -3.107033,4.892967 1.541284,1.761467 4.40367,5.333333 0.489296,1.076453 1.614678,3.058104 0.954129,1.003058 2.788991,2.93578 z"
         id="path1135" />
      <path
         d="m 75.640057,48.938 q -0.513762,2.715596 -1.541285,2.422018 L 70.526907,50.35696 q -4.305811,0 -4.892966,1.247706 l -1.663609,-1.174312 q 0.954128,-2.07951 2.17737,-2.07951 0.293578,0 0.562691,0.09786 0.244648,-0.220183 0.244648,-0.562691 0,-0.513762 -0.538226,-1.394496 -1.712538,-1.223241 -4.501529,-6.776758 h -0.171254 q -0.513761,-0.02447 -0.75841,0.464832 -2.495412,5.333333 -4.452599,7.168196 l 0.195719,0.880734 q 2.226299,0.293578 2.226299,1.810397 0,0.611621 -0.415902,1.590214 -0.905198,-0.70948 -1.785932,-0.880734 -0.366973,-0.04893 -1.981652,-0.04893 -3.082569,0 -4.525994,0.733944 l -1.051987,-0.587155 v -1.932722 l 2.88685,-0.733945 q 0.685015,-0.171254 6.948012,-9.174312 1.247706,-0.391437 1.247706,-1.174312 0,-0.782875 -0.905198,-1.492355 -1.247707,-1.027523 -1.370031,-1.198776 -0.782875,-1.076453 -2.103976,-3.400612 -1.3211,-2.324159 -2.07951,-3.376147 0,0 -1.834863,-1.639144 l -3.278287,-0.733945 0.978593,-2.103975 5.357798,0.685015 3.009175,-0.685015 1.37003,0.464832 v 1.663608 q -1.688073,0.318043 -1.663608,1.370031 v 0.171254 l 4.648318,6.874617 0.75841,-0.195718 q 0.929663,-3.571866 3.474006,-5.993884 v -1.247706 l -1.883792,-0.685016 -0.415903,-1.859327 1.051988,-0.538226 3.914373,0.66055 q 1.663609,-0.587156 2.88685,-0.587156 1.492355,0 1.810398,1.003058 -0.807339,2.152906 -3.180428,2.152906 -1.859327,2.422018 -3.718655,4.844036 -2.78899,3.743119 -3.107033,4.892967 1.541284,1.761467 4.40367,5.333333 0.489296,1.076453 1.614678,3.058104 0.954129,1.003058 2.788991,2.93578 z"
         id="path1137" />
      <path
         d="m 88.851043,49.402831 q -0.415902,2.470948 -1.46789,2.2263 l -4.525994,-1.027523 q 0,0 -3.327217,0.318043 -0.954128,0.66055 -1.663608,0.66055 -1.003058,0 -1.565749,-1.467889 l 1.247706,-1.810398 q 0.587156,0.195719 1.223242,0.195719 2.103975,0 2.103975,-3.400612 0,-0.66055 -0.09786,-1.981651 -0.09786,-1.321101 -0.09786,-1.981652 0,-1.932721 0.09786,-5.82263 0.09786,-3.889908 0.09786,-5.82263 0,-1.663608 -0.978593,-2.617737 -0.660551,0.244649 -1.321101,0.244649 -1.149847,0 -1.932722,-0.929664 0.415902,-2.446483 1.443425,-2.2263 l 4.477065,0.978594 4.25688,-1.027523 1.761468,0.905198 -0.513761,1.761468 q -0.489297,-0.122324 -0.831805,-0.122324 -2.250764,0 -2.250764,3.840979 0,0.391437 0.02446,1.027523 0.02447,0.611621 0.02447,0.831804 0,1.614679 -0.09786,15.437309 l 1.027523,1.100917 q 0.660551,-0.220183 1.198777,-0.220183 1.076452,0 1.688073,0.929663 z"
         id="path1139" />
      <path
         d="m 102.15991,49.402831 q -0.4159,2.470948 -1.46789,2.2263 l -4.525992,-1.027523 q 0,0 -3.327217,0.318043 -0.954129,0.66055 -1.663609,0.66055 -1.003058,0 -1.565749,-1.467889 l 1.247706,-1.810398 q 0.587156,0.195719 1.223242,0.195719 2.103976,0 2.103976,-3.400612 0,-0.66055 -0.09786,-1.981651 -0.09786,-1.321101 -0.09786,-1.981652 0,-1.932721 0.09786,-5.82263 0.09786,-3.889908 0.09786,-5.82263 0,-1.663608 -0.978594,-2.617737 -0.66055,0.244649 -1.321101,0.244649 -1.149847,0 -1.932721,-0.929664 0.415902,-2.446483 1.443425,-2.2263 l 4.477064,0.978594 4.25688,-1.027523 1.76147,0.905198 -0.51376,1.761468 q -0.4893,-0.122324 -0.83181,-0.122324 -2.250762,0 -2.250762,3.840979 0,0.391437 0.02447,1.027523 0.02446,0.611621 0.02446,0.831804 0,1.614679 -0.09786,15.437309 l 1.027523,1.100917 q 0.66055,-0.220183 1.198779,-0.220183 1.07645,0 1.68807,0.929663 z"
         id="path1141" />
    </g>
  </g>
</svg>
