<?xml version="1.0" encoding="UTF-8" standalone="no"?>
<!-- Created with Inkscape (http://www.inkscape.org/) -->

<svg
   version="1.1"
   id="svg2"
   width="4cm"
   height="4cm"
   viewBox="0 0 151.1811 151.1811"
   sodipodi:docname="24.svg"
   inkscape:version="1.1.2 (0a00cf5339, 2022-02-04)"
   xmlns:inkscape="http://www.inkscape.org/namespaces/inkscape"
   xmlns:sodipodi="http://sodipodi.sourceforge.net/DTD/sodipodi-0.dtd"
   xmlns="http://www.w3.org/2000/svg"
   xmlns:svg="http://www.w3.org/2000/svg">
  <defs
     id="defs6" />
  <sodipodi:namedview
     id="namedview4"
     pagecolor="#505050"
     bordercolor="#eeeeee"
     borderopacity="1"
     inkscape:pageshadow="0"
     inkscape:pageopacity="0"
     inkscape:pagecheckerboard="0"
     showgrid="false"
     inkscape:zoom="1.9454545"
     inkscape:cx="181.96262"
     inkscape:cy="192.5"
     inkscape:window-width="1920"
     inkscape:window-height="1043"
     inkscape:window-x="0"
     inkscape:window-y="0"
     inkscape:window-maximized="1"
     inkscape:current-layer="g8"
     units="cm"
     inkscape:document-units="cm" />
  <!-- Border -->
    <rect
       x="0"
       y="0"
       width="4cm"
       height="4cm"
       class="board-border"
       stroke-width="0.1cm"
       id="border"
       fill="none"
       stroke="#000000" />
  <g
     inkscape:groupmode="layer"
     inkscape:label="Image"
     id="g8">
    <path
       id="path32"
       style="fill:#000000;stroke-width:0.385733"
       d="m 7.9935461,2.1563961 c -0.6448668,0 -1.1724851,0.1713165 -1.1724851,0.3807033 0,0.2093868 0.5276183,0.3807033 1.1724851,0.3807033 0.6448668,0 1.1724851,-0.1713165 1.1724851,-0.3807033 0,-0.2093868 -0.5276183,-0.3807033 -1.1724851,-0.3807033 z m 41.2094949,0 c -0.567233,0 -0.895752,0.1647843 -0.758758,0.3807033 0.13285,0.2093868 0.582744,0.3807033 0.999969,0.3807033 0.417225,0 0.758758,-0.1713165 0.758758,-0.3807033 0,-0.2093868 -0.449894,-0.3807033 -0.999969,-0.3807033 z M 116.78886,4.6874783 C 105.17606,4.731383 79.279136,5.1867715 76.779339,5.4109633 76.026995,5.4784365 59.779755,5.6244996 40.674279,5.7351559 21.568802,5.8458123 5.850622,6.0209154 5.7447563,6.1240384 c -0.1058658,0.1031234 -0.09847,0.4264327 0.016794,0.7190237 0.1640362,0.4163973 1.3844,0.5433847 5.6173947,0.584439 2.974408,0.028847 6.023795,0.134394 6.776139,0.234222 0.752345,0.099826 1.892153,0.2535674 2.532752,0.3412944 0.640598,0.087728 1.60077,-0.00244 2.134288,-0.2000181 0.533519,-0.1975888 2.999866,-0.3303351 5.479994,-0.29445 2.480129,0.035886 4.860775,0.059683 5.290687,0.052049 1.306915,-0.023204 10.753972,-0.052117 13.874407,-0.042383 1.612167,0.00503 6.624541,-0.081821 11.138608,-0.1925822 4.514068,-0.1107611 17.528653,-0.1912208 28.9213,-0.1791982 11.392647,0.012026 21.06565,-7.614e-4 21.49556,-0.028256 0.9453,-0.060483 4.04843,-0.085096 7.79443,-0.092201 -0.003,-0.5234755 -0.004,-1.0468989 -0.008,-1.5704013 -0.001,-0.012953 -0.004,-0.025705 -0.005,-0.038665 -0.0223,-0.2416875 -0.0219,-0.4852662 -0.016,-0.7294335 z m 28.45567,10.9422457 c 0.0106,0.117207 0.0199,0.234504 0.0305,0.351705 0.0501,0.002 0.0968,0.0014 0.1458,0.003 -0.001,-0.09796 -0.002,-0.23134 -0.003,-0.32791 -0.0575,-0.009 -0.1147,-0.01838 -0.17328,-0.02677 z m -75.777191,0.719767 c -0.780832,-0.04198 -1.037301,0.124999 -1.363322,0.633514 -0.348963,0.544306 -0.918897,0.784589 -1.873225,0.790406 -2.820757,0.0172 -6.668111,2.667455 -6.029599,4.153533 0.141062,0.328306 0.24999,0.854054 0.241978,1.168134 -0.0081,0.31408 0.167888,1.041181 0.390828,1.615759 0.324446,0.836188 0.262473,1.254084 -0.308387,2.093868 -0.789067,1.160782 -4.069348,7.562306 -4.069348,7.941233 0,0.131657 -0.594055,1.03286 -1.319808,2.003154 -1.174752,1.570587 -3.352248,5.718272 -3.380817,6.439241 -0.006,0.150834 -0.533598,0.94717 -1.172486,1.769672 -1.737462,2.2368 -1.441574,3.970979 0.808374,4.734998 1.385792,0.470576 2.719767,-0.08876 2.719767,-1.139879 0,-0.344914 0.580357,-1.460203 1.290038,-2.478288 0.709682,-1.01808 2.128733,-3.478231 3.153344,-5.467405 1.024612,-1.989175 2.167175,-3.873657 2.538857,-4.187737 0.371681,-0.31408 1.265318,-1.77027 1.986205,-3.235978 1.547837,-3.14707 2.231001,-3.997385 3.210593,-3.997385 0.398172,0 1.615504,-0.469158 2.705263,-1.042472 1.831152,-0.963357 2.01044,-0.992222 2.361764,-0.380704 0.209081,0.363928 0.699039,0.66177 1.089282,0.66177 0.390242,0 1.157227,0.342633 1.703769,0.761406 0.546542,0.418774 1.185777,0.761407 1.420567,0.761407 0.23479,0 0.426707,0.07155 0.426707,0.159122 0,0.08757 0.100501,0.413553 0.222893,0.724228 0.14923,0.378821 -0.32291,0.881529 -1.432019,1.525788 -1.522933,0.88464 -1.724975,1.196265 -2.554888,3.939387 -0.792428,2.619223 -0.847679,3.220012 -0.46029,4.977398 0.391462,1.775882 0.675844,2.171738 2.552598,3.551993 2.058641,1.514023 3.768742,3.62356 3.403716,4.198891 -0.354411,0.558587 0.54093,0.704396 1.767889,0.287754 1.085326,-0.368543 1.315036,-0.325227 1.790025,0.335347 0.299633,0.416706 1.078667,0.861805 1.731245,0.988937 0.673972,0.131305 1.186226,0.471901 1.186226,0.78892 0,0.306958 0.213487,0.68634 0.474032,0.843197 0.771538,0.464481 3.162665,0.15334 3.914393,-0.509339 0.383414,-0.338 0.784396,-0.529718 0.890811,-0.42606 0.106415,0.103658 -0.102765,1.358269 -0.464871,2.787609 -0.643511,2.540124 -0.639751,2.650597 0.191596,4.916429 0.499639,1.361772 0.931774,3.65348 1.047299,5.5544 0.108165,1.779788 0.29726,4.285832 0.419835,5.568529 l 0.222894,2.331807 -4.201405,0.278839 -4.200639,0.278835 -0.794636,-1.08783 c -0.436864,-0.598583 -1.391854,-1.681905 -2.122073,-2.406909 -0.730224,-0.725 -1.132246,-1.381218 -0.893106,-1.458866 0.239136,-0.07765 0.429728,-0.427302 0.422888,-0.776277 -0.01133,-0.577843 -0.059,-0.575247 -0.530518,0.02973 -0.480578,0.616617 -0.607293,0.621235 -1.766361,0.058 l -1.248821,-0.606746 1.368665,-1.295282 c 1.386792,-1.311968 1.962353,-1.473257 4.678489,-1.310899 1.873147,0.111969 1.611776,-0.546156 -0.453423,-1.141367 -1.233236,-0.355429 -1.729029,-0.296983 -3.326618,0.39632 -1.208359,0.524388 -2.037634,1.178528 -2.326652,1.835108 -0.246968,0.561057 -0.468728,1.059942 -0.493116,1.10865 -0.180653,0.360762 -2.474073,-0.938468 -2.760225,-1.563709 -0.197853,-0.432304 -1.09169,-1.28428 -1.986202,-1.893108 -1.32311,-0.900535 -2.160866,-1.143846 -4.493764,-1.306437 -2.59163,-0.180628 -2.817962,-0.141267 -2.351075,0.406729 0.28414,0.333492 0.765219,0.513009 1.069435,0.399293 0.8342,-0.311819 4.539413,0.647915 5.598312,1.449942 1.018839,0.771686 0.823901,0.934867 -0.371748,0.311553 -0.415818,-0.216777 -1.66743,-0.489657 -2.781596,-0.606746 -1.114162,-0.117089 -2.444448,-0.368068 -2.956406,-0.55767 -1.099337,-0.407139 -3.759428,-0.458781 -4.14797,-0.08031 -0.149524,0.145653 -0.503716,0.297931 -0.786238,0.338319 -0.282518,0.04039 -1.241232,0.520943 -2.130472,1.067755 -0.889244,0.546812 -1.774212,0.994142 -1.967117,0.994142 -0.192909,0 -0.563856,0.250377 -0.824406,0.556185 -0.260545,0.305804 -1.511567,0.669939 -2.780071,0.809737 -1.416073,0.156062 -3.317629,0.750271 -4.925809,1.53843 -1.440593,0.70604 -2.897533,1.283392 -3.238076,1.283392 -0.529252,0 -3.236946,1.761971 -5.572357,3.626348 -0.371308,0.296419 -1.369349,0.986486 -2.217494,1.533221 -1.179159,0.760117 -1.518275,1.211041 -1.441179,1.915414 0.158458,1.447735 0.498253,1.471479 1.428203,0.09964 1.057951,-1.560667 4.711817,-4.509698 5.587624,-4.509698 0.864363,0 0.827529,1.409273 -0.04427,1.696807 -0.80535,0.265616 -2.231867,2.06128 -1.896892,2.387577 0.127284,0.123987 0.553648,-0.05904 0.948064,-0.406729 0.90222,-0.795346 2.023606,-0.818679 2.023606,-0.04238 0,0.324191 0.34981,1.294155 0.777076,2.155584 0.969883,1.955421 0.678866,2.359816 -2.28314,3.174262 -2.937968,0.807837 -4.309587,2.021611 -4.947948,4.378831 -0.475849,1.757124 -0.458639,1.921063 0.235108,2.282735 0.891699,0.464857 0.821362,0.576571 0.961804,-1.533226 0.08921,-1.340178 0.350587,-1.890869 1.219812,-2.57049 1.103823,-0.863043 1.381712,-0.980109 3.289981,-1.390461 1.628578,-0.350205 3.040673,-1.672636 3.316698,-3.105854 0.289265,-1.50197 0.347914,-1.521271 2.267872,-0.739844 1.573084,0.640248 1.568046,0.626802 1.038904,2.424011 -0.36854,1.251741 -0.359785,1.265781 0.379377,0.614181 0.616168,-0.54318 0.74325,-1.118263 0.683187,-3.092472 -0.08003,-2.630477 -0.310192,-2.959489 -1.015239,-1.452174 -0.523483,1.119157 -1.233552,0.912523 -1.233552,-0.35914 0,-0.902762 1.828131,-3.858817 3.020525,-4.883708 0.883964,-0.759785 3.232729,-1.275752 3.232729,-0.710103 0,0.226027 -0.263809,0.41119 -0.586243,0.41119 -0.322433,0 -0.586242,0.187382 -0.586242,0.416394 0,0.279158 0.68912,0.338019 2.091541,0.178455 1.188111,-0.135184 2.569099,-0.06119 3.196093,0.171019 2.878377,1.066008 7.071566,1.899055 9.556973,1.899055 3.129636,0 3.652248,0.581444 0.886235,0.985961 -1.345185,0.196728 -3.040387,0.02406 -6.155547,-0.626821 -4.667081,-0.975152 -7.860082,-1.032269 -9.5669,-0.172508 -1.564498,0.788079 -1.953954,3.434329 -0.817531,5.55812 1.090149,2.037319 1.033811,2.476003 -0.565634,4.377346 -1.288776,1.532038 -1.352681,1.733768 -1.012183,3.209953 0.464241,2.012664 0.598174,2.12024 1.896889,1.532479 l 1.076306,-0.487033 -1.273244,-0.597076 c -1.40366,-0.658057 -1.42448,-1.569218 -0.06489,-2.83297 0.899508,-0.8361 1.528518,-3.005847 1.531254,-5.28077 0.0016,-1.220911 0.259842,-2.075404 0.845776,-2.800998 0.782849,-0.969453 0.984274,-1.025949 2.812898,-0.789662 2.567613,0.331783 3.719513,0.940866 1.815214,0.959939 -2.431988,0.02437 -5.277661,1.087137 -4.622003,1.725805 0.08035,0.07827 1.180692,-0.190801 2.444967,-0.59708 1.264272,-0.406283 2.696243,-0.738355 3.182352,-0.738355 0.486108,0 0.942056,-0.17014 1.013711,-0.37773 0.08342,-0.241697 0.763022,-0.256625 1.889256,-0.04164 0.967301,0.184649 1.354604,0.354774 0.86028,0.377727 -0.494324,0.02296 -1.395285,0.292094 -2.002233,0.597826 -0.606933,0.305727 -1.178066,0.483082 -1.268664,0.394831 -0.09061,-0.08825 -0.09535,0.417928 -0.01067,1.124262 0.129337,1.079138 -0.02384,1.393717 -0.959515,1.971183 -0.612436,0.37797 -1.501367,1.078274 -1.97475,1.556273 -0.960129,0.969492 -2.070171,1.151255 -2.070171,0.339062 0,-0.291432 0.791427,-1.387161 1.758728,-2.435161 0.9673,-1.047996 1.758727,-2.008488 1.758727,-2.134763 -1.5e-5,-0.126276 -0.527618,-0.229762 -1.172485,-0.229762 -0.921085,0 -1.172485,0.167498 -1.172485,0.779996 0,0.428817 -0.462088,1.166471 -1.026686,1.639552 -0.740714,0.62063 -1.058051,1.294487 -1.140426,2.421033 -0.11325,1.548793 -0.09952,1.565894 1.702241,2.143688 2.014916,0.646152 2.636063,0.484901 1.44118,-0.374753 -0.744731,-0.535791 -0.747831,-0.580211 -0.07328,-0.952501 0.708966,-0.391283 2.434477,-1.811196 4.643377,-3.821161 l 1.180102,-1.074448 h -1.018292 c -1.090614,0 -1.376626,-0.545517 -0.46487,-0.886323 0.514506,-0.192319 3.561763,0.127772 6.286075,0.661023 0.742418,0.145322 0.550525,0.0034 -0.522885,-0.38665 -1.97316,-0.717184 -1.703742,-1.478522 0.322891,-0.912351 0.903345,0.252349 1.413489,0.244552 1.584688,-0.02528 0.138857,-0.21887 0.676094,-0.301136 1.193093,-0.182917 0.517,0.118224 1.950937,-0.0206 3.186932,-0.308579 1.235995,-0.287979 2.247263,-0.381244 2.247263,-0.20671 0,0.668739 -1.847676,1.232824 -4.039579,1.232824 -2.081442,0 -2.202802,0.04346 -1.369423,0.493726 l 0.914476,0.494469 -0.977071,0.05205 c -0.816116,0.04382 -0.757148,0.103368 0.356478,0.35914 1.526674,0.350639 2.772036,0.08718 1.944219,-0.41119 -0.339067,-0.204125 -0.128723,-0.376001 0.651124,-0.532391 0.633658,-0.127075 1.801941,-0.567746 2.596875,-0.978525 1.801574,-0.930964 2.971808,-0.934296 4.202929,-0.01264 0.851537,0.637483 0.895141,0.789944 0.396171,1.375591 -2.107194,2.473235 -6.542311,3.499097 -9.178358,2.122866 -1.657441,-0.865331 -2.532752,-1.020947 -2.532752,-0.450604 0,0.19548 -0.470459,0.409625 -1.045008,0.475879 -1.221316,0.140838 -1.740422,1.072217 -0.59769,1.072217 0.753529,0 5.231706,3.121261 5.484572,3.822649 0.07097,0.196839 -0.23681,0.810716 -0.683949,1.364434 -0.851803,1.054837 -1.090447,2.426983 -0.422126,2.426983 0.214955,0 0.390828,-0.233904 0.390828,-0.519747 0,-0.572437 1.463484,-2.529222 1.88468,-2.519933 0.145615,0.003 0.517316,0.161483 0.82593,0.351705 0.414157,0.255277 0.449707,0.477973 0.135871,0.850636 -0.699606,0.830752 -1.383876,3.794444 -0.969438,4.198145 0.233192,0.227151 0.46056,-0.107861 0.614488,-0.904913 0.291847,-1.511243 1.514652,-2.79151 4.957873,-5.190056 4.337945,-3.021805 4.296439,-3.010727 6.772321,-1.790497 l 2.144213,1.0566 -1.54881,1.948132 c -0.851775,1.071683 -2.046842,2.671878 -2.655647,3.555708 -1.414357,2.053281 -3.697475,4.517524 -4.61208,4.978145 -0.390484,0.196648 -1.369427,0.473922 -2.175511,0.615665 -2.206617,0.388013 -1.86506,1.137196 0.390829,0.857329 1.698215,-0.210681 2.099366,-0.482336 4.708262,-3.19211 1.568578,-1.629231 3.367002,-3.733271 3.996064,-4.675512 0.629058,-0.942241 1.281784,-1.884482 1.450341,-2.093868 0.584073,-0.725552 1.667891,-2.448749 1.667891,-2.651538 0,-0.11206 -0.360156,-0.203737 -0.800741,-0.203737 -0.773387,0 -2.825337,-0.867239 -3.75409,-1.58676 -0.323876,-0.250914 -0.128489,-0.694167 0.69311,-1.570401 1.008252,-1.075297 1.115706,-1.410293 0.899211,-2.816611 -0.339923,-2.208026 0.730165,-4.91617 2.072461,-5.244337 0.540297,-0.132092 1.059836,-0.164753 1.154163,-0.07287 0.09433,0.09188 -0.387788,0.939324 -1.07096,1.883438 -1.309322,1.80943 -1.284227,3.137738 0.0374,1.972668 0.394073,-0.347396 0.638723,-0.829408 0.543498,-1.071471 -0.22142,-0.562816 1.639005,-2.534056 2.391534,-2.534056 0.674573,0 0.70942,0.355405 0.170987,1.734728 -0.282811,0.724581 -0.26991,1.174131 0.04427,1.542891 0.463018,0.543447 1.136607,0.379101 1.136607,-0.27735 0,-0.209387 -0.175873,-0.274403 -0.390828,-0.144994 -0.47513,0.286037 -0.506354,-0.565573 -0.04656,-1.272235 0.277292,-0.426003 0.470748,-0.426799 1.166376,-0.0038 0.88915,0.540896 1.084678,1.270651 0.4435,1.656654 -0.214955,0.129408 -0.390828,0.40305 -0.390828,0.608234 0,0.205188 0.393502,0.01671 0.874021,-0.419371 0.495184,-0.449383 0.933939,-0.616804 1.012945,-0.385908 0.137072,0.400568 -0.895567,1.72266 -4.083848,5.228724 l -1.610642,1.771161 -1.905289,-0.736124 c -1.047658,-0.405152 -2.037708,-0.794223 -2.199933,-0.864017 -0.162222,-0.0698 -0.29465,0.03133 -0.29465,0.224554 0,0.338871 0.746451,0.745253 3.395322,1.848493 1.156492,0.481674 1.329047,0.451446 2.401456,-0.427549 1.499089,-1.228723 2.560442,-1.272455 2.208333,-0.09071 -0.90048,3.022206 -1.868801,5.900262 -2.175507,6.466752 -0.196849,0.363587 -0.358007,1.42176 -0.358007,2.351883 0,0.939084 -0.242259,1.927588 -0.545022,2.222504 -0.316164,0.307993 -0.463444,0.948884 -0.350373,1.525044 0.120531,0.6142 -0.204642,1.838759 -0.851119,3.207722 -0.575155,1.217932 -1.57206,3.584862 -2.215966,5.259952 -0.643905,1.6751 -1.411218,3.64524 -1.705293,4.37809 -0.294075,0.73285 -0.736153,1.9749 -0.981652,2.7601 -0.445638,1.42534 -0.902117,1.77243 -1.367137,1.0395 -0.343299,-0.54108 -3.607697,-2.11089 -5.37389,-2.58462 -2.020844,-0.54203 -1.509414,0.0427 0.773262,0.88409 2.575289,0.9493 3.5689,1.63342 4.260182,2.93558 0.55761,1.05037 0.544978,1.12639 -0.211446,1.31908 -0.441523,0.11247 -0.713895,0.34492 -0.605327,0.51603 0.108564,0.17111 -0.0147,0.43872 -0.274037,0.59485 -0.293262,0.17655 0.08478,0.43809 0.999973,0.69225 1.80952,0.50255 1.712579,1.20147 -0.150379,1.08412 -1.257068,-0.0792 -1.177984,0.0282 0.380143,0.51752 0.506502,0.15906 0.506502,0.22334 0,0.53536 -0.316407,0.19492 -0.436324,0.35684 -0.266404,0.35989 0.376559,0.007 2.706006,-1.55959 3.104491,-2.08793 0.514564,-0.68225 0.321917,-0.78328 -1.218287,-0.6402 -1.674301,0.15553 -2.55676,-0.54879 -1.446522,-1.15401 0.36453,-0.19871 0.829959,-0.78954 1.034319,-1.31313 0.471179,-1.20719 1.269274,-0.96941 1.590031,0.47365 0.232543,1.04621 0.249563,1.05507 0.293121,0.14871 0.02544,-0.52922 -0.232507,-1.35123 -0.574029,-1.82618 -0.585746,-0.81461 -0.530366,-1.06414 0.977071,-4.41229 0.87891,-1.95214 1.597663,-3.72352 1.597663,-3.93642 0,-0.2129 0.262844,-0.87771 0.583953,-1.47746 0.321108,-0.59974 0.58505,-1.43343 0.587004,-1.8522 0.002,-0.41878 0.533036,-1.789311 1.180118,-3.045632 l 1.177066,-2.28422 -0.209918,1.713165 c -0.239664,1.955857 -1.197439,6.231047 -1.961775,8.756177 -1.143774,3.77867 -2.651688,13.45693 -2.170164,13.92987 0.125053,0.12283 0.35624,-0.88539 0.513724,-2.24034 0.299519,-2.57703 1.062483,-5.875 2.835796,-12.26059 0.581483,-2.09386 1.367771,-5.00624 1.747277,-6.471952 0.581627,-2.246336 1.425304,-4.614585 2.949534,-8.280297 0.16937,-0.407329 0.100092,-0.666231 -0.177858,-0.666231 -0.25004,0 -0.819149,0.813754 -1.264849,1.808341 -0.977056,2.180326 -1.019988,2.232414 -1.464841,1.783058 -0.209574,-0.211697 -0.03439,-1.509545 0.432811,-3.210695 0.431287,-1.570401 0.864059,-3.369225 0.962568,-3.997385 0.474278,-3.024322 1.010002,-4.209227 2.323596,-5.139495 0.739169,-0.523467 1.880076,-1.784345 2.535041,-2.80174 0.654962,-1.017388 1.307091,-1.7367 1.448813,-1.598653 0.438212,0.426863 0.08301,5.605163 -0.558764,8.147941 -0.434339,1.720901 -0.488445,2.531914 -0.189305,2.823304 0.299136,0.291386 0.469252,0.254367 0.593113,-0.130125 0.09559,-0.296746 0.365331,-1.121871 0.599218,-1.833623 0.77134,-2.347302 0.43927,-11.07906 -0.421364,-11.07906 -0.194468,0 -0.681866,0.746186 -1.083173,1.658142 -0.926665,2.105997 -3.544993,4.813906 -4.654062,4.813906 -1.064706,0 -1.055358,-0.222876 0.06793,-1.677474 0.500358,-0.647923 1.213037,-1.777409 1.583926,-2.510263 0.663646,-1.31134 0.659906,-1.341515 -0.22595,-1.903516 -1.472872,-0.934421 -2.6587,-2.208209 -2.6587,-2.856018 0,-0.471733 0.384872,-0.349131 1.731249,0.553208 0.952288,0.638219 1.919588,1.1607 2.149556,1.1607 0.894207,0 0.347165,-0.751946 -1.139664,-1.56594 -2.389266,-1.308054 -3.513539,-3.153856 -3.335778,-5.477072 0.161162,-2.106305 -0.359519,-8.377521 -0.782423,-9.422407 -0.226376,-0.559321 -0.04517,-0.66623 1.128974,-0.66623 0.769213,0 2.360404,-0.414605 3.53654,-0.921272 1.688019,-0.727185 2.513851,-1.417336 3.919734,-3.277619 0.979555,-1.296158 1.780865,-2.509052 1.780865,-2.69541 0,-0.864753 -0.89607,-0.160117 -2.167878,1.705729 -1.516504,2.224861 -4.221732,3.964317 -6.912011,4.443524 -2.431625,0.433134 -2.721682,-1.00299 -1.197678,-5.921722 0.565404,-1.824818 0.552983,-1.969557 -0.271747,-3.331154 -0.953871,-1.57481 -1.806076,-1.919247 -1.401483,-0.566593 0.140905,0.47112 0.356998,1.393347 0.480136,2.049253 0.216086,1.150992 0.15489,1.214745 -1.764832,1.835854 -2.157419,0.698016 -2.78847,0.567861 -2.78847,-0.576259 0,-0.529634 -0.270391,-0.739101 -0.954173,-0.739101 -1.330188,0 -1.631329,-0.687737 -0.429759,-0.981499 1.072613,-0.26224 1.382384,-1.302721 0.387776,-1.302721 -0.333106,0 -1.114599,0.256255 -1.736591,0.569567 -1.313898,0.661845 -1.774829,0.269876 -0.980885,-0.834274 0.460052,-0.639954 0.901219,-0.74737 2.62206,-0.642436 1.957632,0.119369 1.995178,0.104857 0.700743,-0.266196 -2.98143,-0.854633 -2.982689,-0.854763 -3.883095,0.376984 -1.113872,1.523754 -2.219819,1.514438 -3.07243,-0.02604 -0.366171,-0.661586 -1.68322,-2.148583 -2.927395,-3.305129 -1.244175,-1.156546 -2.211475,-2.351589 -2.149556,-2.655257 0.15138,-0.742351 2.58023,-1.973395 3.89378,-1.973395 0.581795,0 1.166349,-0.171317 1.2992,-0.380703 0.366558,-0.577737 -1.475041,-0.457514 -3.096096,0.202248 -0.78805,0.320744 -1.616181,0.472565 -1.840403,0.337577 -0.952343,-0.573331 0.637398,-1.008467 5.766247,-1.580067 5.232691,-0.583174 8.62752,-0.459042 8.147091,0.298168 -0.126136,0.198807 0.176928,0.366898 0.673264,0.373267 0.838374,0.01075 0.850712,0.04033 0.17175,0.424574 -0.585653,0.331439 -0.625689,0.477901 -0.199233,0.734638 0.292699,0.176211 0.905491,0.22904 1.361795,0.117483 0.524507,-0.128233 0.912443,0.0061 1.054165,0.365832 0.143685,0.364737 1.039385,0.667125 2.49535,0.841711 1.249314,0.149815 3.208404,0.673837 4.353308,1.164415 1.259218,0.539563 2.018785,0.708653 1.922844,0.428291 -0.08723,-0.254907 -0.848074,-0.710053 -1.69079,-1.011243 -2.020977,-0.72229 -2.049437,-0.758965 -1.140425,-1.446968 0.628811,-0.475927 0.647587,-0.546237 0.09695,-0.361371 -0.376173,0.126301 -0.68395,0.12517 -0.68395,-0.0022 0,-0.509067 1.429803,-1.243722 2.442677,-1.255131 0.591128,-0.0066 1.074778,-0.183198 1.074778,-0.392585 0,-0.628595 -1.291594,-0.433 -3.141892,0.475879 -1.090544,0.535682 -1.706545,1.079818 -1.644993,1.452919 0.08521,0.516496 -0.1391,0.542843 -1.672468,0.1963 l -1.771707,-0.400036 1.631251,-1.381537 c 0.946,-0.80147 1.515605,-1.563436 1.356448,-1.814289 -0.436915,-0.688628 -0.944538,-0.503449 -1.08012,0.394087 -0.06869,0.45472 -0.36369,0.902852 -0.654943,0.996372 -0.394932,0.126813 -0.456057,-0.0585 -0.240449,-0.73092 0.159008,-0.495894 0.485448,-1.034791 0.72517,-1.197134 0.478851,-0.324281 -1.904983,-2.559844 -3.778517,-3.543812 -0.598155,-0.314148 -1.004956,-0.701315 -0.904556,-0.859557 0.1004,-0.158241 1.072542,-0.693839 2.161007,-1.190441 1.73076,-0.789642 2.099206,-0.839935 2.937321,-0.40301 1.588944,0.828347 9.403744,8.840811 11.354634,11.641935 3.23694,4.64766 6.73368,15.662842 5.25481,16.553159 -0.29291,0.176342 -0.37807,0.663326 -0.22214,1.268515 0.22812,0.885318 0.3473,0.940919 1.20913,0.558415 1.25769,-0.558194 2.25586,0.07757 4.43346,2.827019 1.80376,2.27744 2.36731,3.8885 3.6289,10.371192 1.95137,10.027101 2.72463,13.882823 3.32128,16.560595 0.34991,1.570401 0.85995,4.225806 1.13356,5.900901 l 0.49769,3.045626 0.042,-2.474571 c 0.0476,-2.789181 -0.95446,-8.810381 -2.50299,-15.037781 -1.52881,-6.14813 -2.52277,-10.910466 -2.50221,-11.992154 0.0416,-2.18574 3.71263,6.775475 4.99069,12.182506 0.22272,0.94224 0.86866,4.111595 1.43507,7.043011 1.22661,6.348186 2.41189,11.402978 3.1419,13.396737 0.5089,1.38991 0.53238,1.40415 0.54884,0.3465 0.0181,-1.16501 -0.77309,-5.600758 -1.73812,-9.745852 -0.31686,-1.361015 -0.74023,-3.331154 -0.94043,-4.378088 -0.95585,-4.998536 -2.39205,-10.597859 -3.51593,-13.70532 -0.68157,-1.884481 -1.41306,-4.079137 -1.62514,-4.877018 -0.21208,-0.797882 -1.16595,-2.596705 -2.11979,-3.997385 -1.83298,-2.691664 -5.77613,-6.924784 -6.4502,-6.924784 -0.21977,0 -0.40108,-0.556779 -0.40304,-1.237286 -0.002,-0.680507 -0.62321,-2.950451 -1.38087,-5.044319 -0.75766,-2.093868 -1.45103,-4.116274 -1.54118,-4.494084 -0.15261,-0.639593 -1.33145,-3.245226 -2.86862,-6.340344 -0.35967,-0.724207 -1.31213,-2.060918 -2.11673,-2.970528 -0.8046,-0.909611 -1.66636,-2.030131 -1.91445,-2.490186 -0.2481,-0.460056 -0.79318,-1.093482 -1.21141,-1.407562 -0.41824,-0.31408 -1.931531,-1.654013 -3.362502,-2.977218 -1.430967,-1.323207 -3.392879,-2.829902 -4.360179,-3.348256 -0.9673,-0.518355 -2.726028,-1.498096 -3.908284,-2.177147 -1.182256,-0.679052 -3.99622,-1.798926 -6.253254,-2.4887 -2.257034,-0.689774 -4.882325,-1.496626 -5.83418,-1.793469 -0.951855,-0.296843 -1.94205,-0.539826 -2.199938,-0.539826 -0.257892,0 -1.112207,-0.261907 -1.899183,-0.582208 l -1.431253,-0.582209 0.683184,-1.127238 c 0.839952,-1.385095 0.526657,-1.724489 -1.906051,-2.062639 -0.398629,-0.05541 -0.717557,-0.09308 -0.977833,-0.107073 z m 0.150375,1.470021 c 0.753975,0.01784 1.724953,0.413978 1.595374,0.792636 -0.179961,0.5259 -0.591515,0.620397 -1.761781,0.404497 -0.935002,-0.172496 -1.148343,-0.6639 -0.466398,-1.074446 0.15422,-0.09284 0.381479,-0.128634 0.632805,-0.122687 z m -3.74111,0.726459 c 0.421164,0.04846 0.866833,0.240463 1.132026,0.551722 0.413813,0.485699 0.313851,0.571055 -0.668684,0.571055 -1.250467,0 -1.776319,-0.295603 -1.447284,-0.814199 0.166004,-0.261645 0.562773,-0.357037 0.983942,-0.308578 z m 3.245704,1.438791 c 0.725538,-0.01953 1.619476,0.428857 3.618219,1.544376 1.164926,0.650159 1.561019,1.083456 1.392326,1.522814 -0.205631,0.535553 -0.14975,0.546354 0.433573,0.08402 0.871055,-0.690384 1.315935,-0.254986 0.525938,0.514544 -0.673905,0.656447 -1.227053,2.063018 -0.926689,2.355602 0.106387,0.103629 0.766715,-0.637685 1.467134,-1.646988 1.638001,-2.36035 1.535666,-2.263279 1.852617,-1.763727 0.272133,0.428911 4.495851,1.641783 5.717393,1.641783 0.354133,0 0.975566,0.299804 1.380874,0.666231 0.405309,0.366427 1.629372,0.973039 2.719767,1.348076 2.19694,0.755632 2.404326,1.080736 1.103023,1.726549 -0.48365,0.240027 -1.375708,0.82358 -1.982387,1.297515 -0.863054,0.674217 -1.798424,0.91212 -4.299112,1.093778 -1.757832,0.127694 -3.477649,0.351243 -3.822024,0.495955 -0.423388,0.177915 -0.83051,-0.04043 -1.256454,-0.673666 -0.346454,-0.515057 -1.383173,-1.434394 -2.304512,-2.043306 -1.354033,-0.894883 -1.6544,-1.300334 -1.565604,-2.112458 0.107506,-0.983225 0.08659,-0.992537 -0.977071,-0.452085 -0.597807,0.303749 -1.452236,0.553403 -1.898417,0.554697 -0.446178,0.0013 -1.224106,0.430522 -1.728958,0.953989 -0.620581,0.643466 -1.336692,0.951758 -2.211385,0.951758 h -1.293857 l 1.55568,-1.998692 c 0.855598,-1.099281 1.556423,-2.108449 1.557205,-2.242581 0.0023,-0.320833 -3.604813,-0.934356 -6.237984,-1.061061 -0.502492,-0.02418 -0.502492,-0.09515 0,-0.581465 0.455276,-0.440618 0.922988,-0.47666 2.285427,-0.176968 0.941928,0.207193 1.806386,0.285207 1.92132,0.17325 0.379858,-0.370015 -0.176322,-0.597405 -1.861015,-0.760663 -1.918877,-0.185953 -2.380883,-0.476887 -1.566366,-0.985962 0.62096,-0.388101 2.638569,-0.112222 3.370895,0.461008 0.291816,0.228418 0.893789,0.09093 1.703766,-0.388883 0.516702,-0.306084 0.891358,-0.485725 1.326678,-0.497442 z m -6.368517,3.895517 c 0.139885,-0.01847 0.317071,-0.0054 0.531284,0.03792 0.567589,0.114895 0.573428,0.210983 0.05801,0.890042 -0.543611,0.716213 -0.594102,0.720948 -0.84959,0.07882 -0.245378,-0.616722 -0.159357,-0.951369 0.260296,-1.006782 z m 2.522066,0.178454 c 0.177663,0.01161 0.352786,0.07048 0.532809,0.164328 l 0.855699,0.446136 -0.853409,1.401613 c -0.469154,0.771189 -1.369744,2.258939 -2.001471,3.305873 -0.631727,1.046934 -1.91833,3.102732 -2.859457,4.56844 -0.941122,1.465707 -2.572924,4.206771 -3.625851,6.091253 -1.052927,1.884481 -2.483613,4.411399 -3.179295,5.615373 -0.855199,1.480042 -1.508094,2.189044 -2.016737,2.189044 -0.413766,0 -0.75265,-0.162282 -0.75265,-0.360628 0,-0.416357 4.571551,-9.118584 5.150997,-9.80534 0.212693,-0.252087 0.991637,-1.622619 1.731249,-3.045626 4.385321,-8.437324 5.774477,-10.651758 7.018116,-10.570466 z m 78.174063,2.537775 c -0.0326,-5.71e-4 -0.0838,0.03072 -0.11984,0.05725 -8e-5,0.0046 8e-5,0.0081 0,0.01264 0.0396,-0.02393 0.0794,-0.04746 0.11984,-0.06989 z m -52.938154,1.450687 c 0.210395,0.03336 0.376622,0.131687 0.483193,0.299656 0.105489,0.166261 -0.895571,0.762932 -2.224364,1.326513 l -2.415961,1.024627 1.459502,-1.326513 c 1.034312,-0.940169 2.066443,-1.424373 2.69763,-1.324283 z m 54.993824,0.633515 c -0.003,0.0077 -0.005,0.01297 -0.008,0.02082 0.006,0.01934 0.0125,0.03861 0.0153,0.05874 7.8e-4,0.0051 7.8e-4,0.0098 0.002,0.01487 0.008,0.0036 0.0157,0.0075 0.0237,0.01115 -1.4e-4,-0.03359 -7.8e-4,-0.05784 -7.8e-4,-0.09146 -0.0117,-0.0025 -0.0224,-0.0072 -0.032,-0.01413 z m -63.059239,2.980193 c 3.293565,0 4.075464,0.119758 4.970848,0.761406 0.584371,0.418774 1.068017,0.876451 1.074778,1.017192 0.0068,0.140741 -2.529418,0.266456 -5.635714,0.279579 -4.944096,0.02088 -5.808475,0.119317 -6.937203,0.789662 -1.588229,0.943239 -2.363988,0.979606 -2.197648,0.102611 0.0706,-0.372227 1.161534,-1.170236 2.471685,-1.80834 2.13653,-1.040589 2.692373,-1.14211 6.253254,-1.14211 z m 60.791369,0.254298 c -0.0751,4.238995 -0.15748,8.857481 -0.20458,11.64268 l -0.16946,9.993462 h 0.98318 c 0.55572,0 0.87777,0.16545 0.7412,0.380703 -0.13285,0.209387 -0.59647,0.380704 -1.03051,0.380704 -0.78216,0 -0.78698,0.125647 -0.53051,14.181198 0.41115,22.533068 0.48237,30.753077 0.29083,33.422332 l -0.17862,2.49019 -2.59764,-0.28181 c -1.42877,-0.15492 -4.4443,-0.29763 -6.70133,-0.3175 -3.77489,-0.0332 -5.79978,-0.27535 -8.10969,-0.96961 -1.39392,-0.41895 -1.03718,0.45781 0.38243,0.93987 2.77909,0.9437 5.62541,5.4612 6.68988,10.61731 0.35959,1.74176 0.88621,3.62624 1.1702,4.18773 0.28399,0.56149 0.55092,2.39144 0.59311,4.06654 0.0422,1.67509 0.20415,3.81655 0.35953,4.75879 0.26511,1.60758 0.28981,1.53745 0.39923,-1.13319 0.15787,-3.85302 -0.57319,-8.97661 -2.09154,-14.666 -0.2828,-1.05966 -0.25444,-1.10191 0.38548,-0.58815 0.65805,0.52829 0.65887,0.48458 0.0221,-0.95176 -1.25614,-2.8337 -1.25459,-2.84182 0.64197,-2.80546 3.04414,0.0584 8.5755,0.90802 8.46158,1.29975 -0.0609,0.20938 -0.37449,0.3455 -0.69692,0.30262 -0.32243,-0.0429 -1.64148,-0.1736 -2.93121,-0.29073 l -2.34497,-0.2134 1.75872,0.56808 c 0.9673,0.31228 2.33032,0.60678 3.02892,0.65434 0.79153,0.0539 1.2702,0.28881 1.2702,0.62384 0,0.38297 -0.25299,0.46108 -0.87937,0.27066 -0.48365,-0.14703 -2.37428,-0.32893 -4.2014,-0.40376 l -3.32204,-0.13607 2.55794,0.34874 c 5.2847,0.72037 5.58624,0.83515 5.74487,2.18829 0.13819,1.17884 0.10562,1.21005 -0.88089,0.84469 -0.56323,-0.20859 -1.67196,-0.36613 -2.46405,-0.35022 l -1.4404,0.029 1.3679,0.51306 c 0.75234,0.28222 1.85155,0.52614 2.44267,0.54206 0.77062,0.0208 1.07478,0.22631 1.07478,0.72645 0,0.61491 -0.26119,0.6768 -2.20528,0.51976 -1.58424,-0.12798 -2.12829,-0.0563 -1.93124,0.25429 0.15087,0.23779 0.83541,0.43595 1.52133,0.44093 1.40274,0.0102 4.11657,0.56576 4.47621,0.91607 0.50479,0.49172 -0.60003,1.05105 -1.3305,0.67367 -1.16183,-0.60024 -7.27128,-0.7401 -7.46696,-0.17102 -0.1195,0.34753 0.55646,0.48608 2.5068,0.5138 3.90732,0.0555 5.3815,0.62461 1.88926,0.72943 -1.50469,0.0452 -2.38406,0.14953 -1.95414,0.23199 3.98735,0.76486 4.88535,1.00653 4.88535,1.31239 0,0.4223 -0.87376,0.49425 -4.44643,0.36583 -1.89187,-0.068 -2.60861,0.0281 -2.41978,0.32568 0.16267,0.2564 1.57823,0.42309 3.59607,0.42309 2.95845,0 3.31315,0.0739 3.19686,0.66623 -0.0849,0.43262 -0.60924,0.73475 -1.49461,0.86178 -1.06505,0.15281 -1.20654,0.25697 -0.64731,0.47588 0.39375,0.15415 1.11227,0.28033 1.5969,0.28033 0.78136,0 0.8772,0.18319 0.8473,1.61799 -0.0307,1.47377 0.0579,1.6283 0.99387,1.73398 l 1.02745,0.116 0.0282,-18.38976 c 0.0156,-10.114383 0.12773,-18.903707 0.24885,-19.531867 0.26335,-1.365868 0.28712,-36.401918 0.0267,-39.402793 -0.0824,-0.949779 -0.16397,-8.707873 -0.21449,-17.71237 -0.0623,-0.0094 -0.12999,-0.02079 -0.20534,-0.03495 -0.0677,-0.0017 -0.1403,-0.0044 -0.1916,-0.0045 -0.23388,0.0013 -0.46771,0.02392 -0.70151,0.01115 -0.41077,0.02612 -0.81842,-0.02521 -1.22363,-0.08848 z m -54.95108,2.670128 c 1.321105,0.01935 2.250237,0.08045 2.415198,0.195556 0.527868,0.368356 0.230471,2.780919 -0.342741,2.780919 -0.220599,0 -0.626979,-0.299804 -0.903791,-0.666231 -0.437997,-0.57979 -1.153909,-0.659047 -5.515104,-0.611207 -2.842975,0.03119 -6.072034,0.298263 -7.462379,0.617156 -1.347932,0.309167 -2.519026,0.453541 -2.602979,0.321218 -0.277293,-0.437046 0.799873,-1.527093 1.959484,-1.983077 0.995084,-0.39129 8.488999,-0.712378 12.452312,-0.654334 z m -4.132705,3.021832 c -0.283351,-0.0014 -0.580564,0.02065 -0.82364,0.06618 -0.486155,0.09106 -0.180453,0.169024 0.679369,0.17325 0.859807,0.0042 1.257612,-0.07053 0.883945,-0.165814 -0.186836,-0.04764 -0.456324,-0.07222 -0.739674,-0.07361 z m 14.407981,0.735382 c -0.295247,0 -0.686341,0.120688 -1.068673,0.361371 -0.456828,0.287578 -0.348986,0.370212 0.488535,0.374755 0.591128,0.0032 1.074778,-0.165368 1.074778,-0.374755 0,-0.240683 -0.1994,-0.361371 -0.49464,-0.361371 z M 82.94939,38.75745 c -3.373595,-0.04324 -4.607077,0.09981 -6.350961,0.735383 -1.190319,0.433817 -2.16406,0.947767 -2.16406,1.142111 0,0.452397 -0.146084,0.478932 2.292298,-0.423832 1.271307,-0.470676 3.733537,-0.898751 6.253254,-1.08783 l 4.15637,-0.312295 z m 4.380025,0.988193 c -0.228326,-0.02787 -0.456429,-0.02628 -0.674026,0.0074 -0.290132,0.04495 -0.561261,0.147254 -0.788528,0.310809 -0.548356,0.394631 -0.587595,0.588246 -0.196176,0.974808 0.394385,0.389578 0.488535,0.389452 0.488535,-7.61e-4 0,-0.684087 1.590539,-0.377304 2.09307,0.403755 0.313663,0.487509 0.251928,0.818257 -0.253429,1.362202 -0.367136,0.395174 -0.667156,0.919174 -0.667156,1.164415 0,0.659195 0.426285,0.546686 1.440418,-0.381446 1.047482,-0.958565 1.136494,-1.726645 0.329761,-2.848582 -0.401576,-0.558475 -1.087484,-0.909049 -1.772469,-0.992654 z m 13.261445,0.837994 c -0.0537,0.0061 -0.11371,0.03641 -0.16793,0.08923 -0.35097,0.341868 0.62439,2.531418 1.22821,2.757122 0.38232,0.142912 0.49968,0.484155 0.33739,0.982245 -0.3528,1.082777 0.14045,2.326108 0.87402,2.201683 0.42073,-0.07137 1.16883,0.874792 2.32284,2.940042 1.72754,3.091665 1.879,3.39134 3.07777,6.091253 0.37187,0.837548 0.74099,1.34496 0.82058,1.12724 0.27631,-0.755726 -2.86637,-7.613807 -4.68306,-10.219504 -1.00473,-1.441088 -1.82667,-2.775929 -1.82667,-2.966068 0,-0.190138 -0.39491,-0.895399 -0.87783,-1.567427 -0.48293,-0.672029 -0.92261,-1.292804 -0.97708,-1.38005 -0.0272,-0.04361 -0.0746,-0.06183 -0.12824,-0.05577 z m -19.12158,0.175481 -1.954142,1.786778 c -1.074778,0.982911 -1.954142,1.879612 -1.954142,1.992742 0,0.113129 0.48365,0.277114 1.074778,0.364344 0.591128,0.08723 1.28844,0.184264 1.549572,0.215634 0.261132,0.03137 0.656846,-0.273862 0.879364,-0.67887 0.546925,-0.995467 0.510113,-1.182834 -0.181673,-0.924248 -0.322433,0.120526 -0.586242,0.02954 -0.586242,-0.202249 0,-0.231791 0.263809,-0.421599 0.586242,-0.421599 0.38157,0 0.586243,-0.372213 0.586243,-1.066266 z m -1.569418,0.290732 c -0.239058,-0.07762 -0.659726,0.158871 -0.935089,0.525698 -0.358784,0.477954 -0.787867,0.597007 -1.514459,0.419367 -0.557662,-0.136337 -1.12312,-0.07632 -1.256455,0.13384 -0.133339,0.210156 0.109768,0.382192 0.539679,0.382192 0.429911,0 0.898976,0.185376 1.042719,0.411933 0.164648,0.259502 0.686243,0.01504 1.409882,-0.660281 0.631758,-0.589584 0.952765,-1.135132 0.713723,-1.212749 z m 21.526088,7.924876 c -0.082,-0.0077 -0.17132,0.02486 -0.25877,0.110046 -0.129,0.125663 -0.0974,0.445495 0.071,0.710845 0.24624,0.388082 0.3386,0.388306 0.47098,0.0015 0.14169,-0.414056 -0.0373,-0.799302 -0.2832,-0.822376 z m 4.08462,7.974691 c -0.36192,0.02741 -0.59417,2.544789 -0.29236,3.169058 0.23669,0.489573 0.88701,0.312938 1.13127,-0.30709 0.29807,-0.756652 -0.33027,-2.900503 -0.83891,-2.861968 z m -2.15643,3.461279 c -0.38078,-0.04738 -0.94145,0.342454 -1.22515,1.040241 -0.59028,1.45182 -1.96949,7.881495 -2.184675,10.183814 -0.28122,3.008896 0.433015,1.576024 1.423625,-2.855275 0.49148,-2.198562 1.2275,-4.716145 1.63583,-5.594554 0.40833,-0.878404 0.74273,-1.863474 0.74273,-2.189044 0,-0.370789 -0.16389,-0.556755 -0.39236,-0.585182 z m 6.01815,0.150198 c -0.0695,0.01416 -0.1415,0.05901 -0.21832,0.13384 -0.30726,0.299306 -0.20494,0.767628 0.36717,1.680448 1.3331,2.127027 3.18652,8.145844 3.64722,11.844932 0.24013,1.928049 0.49024,3.848522 0.55571,4.267296 0.0655,0.418774 0.13324,2.260426 0.15114,4.092561 0.0274,2.801687 0.13318,3.331154 0.66487,3.331154 0.55086,0 0.5978,-0.379413 0.36563,-2.950451 -0.6245,-6.915696 -2.35698,-15.633372 -3.74111,-18.821762 -0.42622,-0.981823 -0.95751,-2.251487 -1.18012,-2.821815 -0.21902,-0.561134 -0.40382,-0.798674 -0.61219,-0.756203 z m 1.99154,0.0632 c -0.029,-0.0083 -0.0507,0.0023 -0.0634,0.03495 -0.0952,0.245161 0.25047,1.27306 0.76792,2.284219 1.01465,1.98276 2.62286,6.287491 3.77852,10.113178 0.39627,1.311797 1.20409,3.670216 1.7946,5.240617 2.46691,6.560451 3.63791,13.957482 3.77546,23.843772 l 0.11222,8.0446 -1.2702,1.7258 c -1.7385,2.36174 -1.61566,4.03988 0.67403,9.21496 1.31518,2.97252 1.43685,3.28428 2.21215,5.68006 0.48824,1.50872 0.77038,1.97982 0.85417,1.4254 0.12557,-0.83084 -1.85761,-7.25444 -3.40295,-11.0218 -1.05921,-2.58221 -1.0486,-2.71953 0.33434,-4.19443 0.63818,-0.68062 1.34909,-1.91897 1.57935,-2.75192 0.63016,-2.27963 0.0784,-12.570784 -1.02975,-19.212881 -0.92502,-5.544212 -3.82335,-16.082663 -6.02044,-21.89044 -1.45998,-3.859315 -3.66019,-8.411057 -4.09606,-8.536084 z m -5.65174,0.193329 c -0.10328,0.0041 -0.23713,0.0585 -0.40304,0.158376 -0.24393,0.146837 -0.34703,0.511624 -0.229,0.811226 0.13541,0.343756 -0.1519,0.680248 -0.77861,0.912351 -0.54622,0.202291 -0.89846,0.516504 -0.78318,0.698203 0.11528,0.181709 0.63513,0.251454 1.15493,0.15466 0.68028,-0.126675 1.01157,-0.502658 1.18393,-1.342127 0.19944,-0.971338 0.16482,-1.405192 -0.14503,-1.392689 z m 0.62364,2.690202 c -0.30987,0.141633 -0.43059,3.796605 -0.12823,6.918095 0.48161,4.972126 0.0615,16.663806 -0.69999,19.482788 -0.68505,2.5359 -1.25705,3.863618 -2.08467,4.83984 -0.30403,0.35863 -0.44893,0.915409 -0.32212,1.237286 0.35941,0.912347 1.7721,0.720922 2.00299,-0.2714 0.10962,-0.47112 0.68053,-2.741064 1.26866,-5.044319 1.00767,-3.946249 1.06935,-4.692667 1.07783,-12.943913 0.008,-8.033616 -0.1496,-10.520184 -0.87249,-13.705319 -0.0888,-0.391218 -0.17047,-0.545742 -0.24198,-0.513058 z m -41.983513,0.358398 c 0.547331,0.01157 0.993669,0.08532 1.264087,0.232735 0.516433,0.281522 -0.61906,0.740194 -4.928103,1.989026 -3.079763,0.892567 -6.127454,1.8737 -6.772321,2.180863 l -1.172485,0.558416 1.563313,-0.237198 c 1.681871,-0.255269 3.073244,-0.64734 6.448668,-1.81726 3.078548,-1.06702 6.77655,-1.786454 7.194447,-1.399386 0.195406,0.180998 1.162707,0.251581 2.149556,0.15615 l 1.794606,-0.173993 -1.790788,0.514543 c -0.984864,0.282707 -2.831528,1.108227 -4.103697,1.834366 -2.670671,1.524381 -5.640924,2.584625 -7.365435,2.629232 l -1.20073,0.03122 1.277825,0.543545 c 1.411321,0.600982 0.721208,0.837486 7.80283,-2.669385 2.494384,-1.235245 3.378277,-1.48354 5.124276,-1.438792 4.661445,0.119465 4.80434,1.016211 0.219841,1.378565 -3.94469,0.311769 -4.910806,0.620637 -6.683775,2.136994 -0.72578,0.620737 -1.753229,1.128724 -2.283141,1.128724 -0.529909,0 -0.96333,0.192731 -0.96333,0.428292 0,0.698168 2.215513,0.07508 4.024313,-1.131702 1.813373,-1.209833 3.401426,-1.815627 3.401426,-1.297513 0,0.444494 -2.069405,1.917466 -3.370894,2.399474 -1.8898,0.699885 -0.62576,0.833527 1.470187,0.155403 1.465903,-0.47428 2.101124,-0.540081 2.20757,-0.229016 0.08219,0.240194 0.322043,0.436469 0.533571,0.436469 0.211528,0 0.273087,-0.342633 0.136637,-0.761407 -0.185327,-0.568789 -0.06802,-0.764242 0.462581,-0.773303 0.675582,-0.0115 0.676024,-0.03727 0.02138,-0.521236 -0.604541,-0.446923 -0.617376,-0.565946 -0.106102,-0.979272 0.632036,-0.510953 1.419094,-0.541809 4.108278,-0.16135 1.782487,0.252182 3.042349,0.850115 4.580783,2.173428 l 0.860279,0.739101 -0.957987,1.372614 c -0.526586,0.754874 -0.957228,1.761039 -0.957228,2.235898 0,0.735568 -0.205607,0.863275 -1.390036,0.863275 -0.764636,0 -2.183617,-0.194342 -3.152582,-0.432011 -1.314266,-0.32236 -1.87435,-0.32236 -2.205276,0 -0.330958,0.322365 -0.323915,0.432011 0.02595,0.432011 0.257946,0 0.468689,0.134175 0.468689,0.298167 0,0.163995 -1.879611,0.339111 -4.176978,0.388884 -2.297368,0.04978 -4.08137,-0.003 -3.964008,-0.117485 0.117366,-0.114321 1.689195,-0.571926 3.493028,-1.016447 1.803833,-0.444517 3.337909,-0.853598 3.409063,-0.909375 0.177475,-0.139124 -0.757019,-1.831183 -1.15111,-2.084202 -0.175349,-0.112578 -1.540411,-0.04041 -3.033501,0.160611 -2.945177,0.396526 -6.322634,-0.22444 -9.320342,-1.713165 -0.794878,-0.394755 -1.925412,-0.717538 -2.512139,-0.717538 -0.586731,0 -1.188904,-0.192346 -1.33813,-0.427549 -0.173942,-0.274152 -0.959878,-0.348629 -2.190015,-0.20671 -1.055353,0.121753 -2.380512,0.05112 -2.944188,-0.157634 -0.996397,-0.369016 -1.003092,-0.394169 -0.253429,-0.905655 0.424096,-0.28935 1.904765,-0.728427 3.289982,-0.975552 2.497694,-0.445602 4.057205,-1.055295 7.357039,-2.876096 1.408049,-0.777 3.955578,-1.302451 5.597546,-1.267772 z m 18.462826,1.119804 c -0.290757,-0.02193 -0.577484,-0.01751 -0.825168,0.01858 -0.330246,0.04816 -0.59071,0.151688 -0.699215,0.322707 -0.123807,0.195137 0.260924,0.426232 0.855699,0.513801 1.968762,0.289872 2.449548,0.277282 2.449548,-0.06618 0,-0.417834 -0.908594,-0.723154 -1.780864,-0.788917 z m -15.79878,0.850632 c -0.321335,0.01165 -1.013535,0.195602 -2.04574,0.592618 -1.136244,0.437032 -3.472573,1.17273 -5.192218,1.63509 -1.719644,0.462357 -3.302499,1.005857 -3.517455,1.207546 -1.053826,0.988781 5.471152,-0.622294 9.134085,-2.255222 1.662846,-0.74129 2.156888,-1.199455 1.621328,-1.180032 z m 17.936122,1.439535 c -0.493241,-0.02543 -1.157336,0.04691 -1.838116,0.224554 -0.492257,0.128456 -1.174717,0.768541 -1.516751,1.422433 l -0.621354,1.188955 1.00913,-1.046934 c 0.733499,-0.760561 1.389591,-1.046934 2.396877,-1.046934 0.762611,0 1.386221,-0.171316 1.386221,-0.380703 0,-0.212722 -0.322766,-0.335952 -0.816007,-0.361371 z m 1.593845,2.05223 c -0.22548,-0.004 -0.496055,0.05507 -0.809136,0.176966 -0.888528,0.345949 -0.864672,0.369911 0.40228,0.392601 0.925489,0.01656 1.22221,-0.09953 0.945773,-0.368807 -0.133342,-0.129888 -0.313432,-0.196724 -0.538917,-0.20076 z m -2.221308,0.627563 c -0.163562,-0.222159 -1.683157,1.162725 -1.683157,1.533968 0,0.169455 0.404695,-0.07099 0.89921,-0.534622 0.494519,-0.463639 0.847238,-0.913383 0.783947,-0.999346 z M 47.57408,70.77222 c 0.544338,-0.0087 0.913084,0.01576 0.97478,0.07584 0.123385,0.120192 -0.133886,0.603411 -0.571738,1.073706 -0.437849,0.470294 -1.107374,1.668847 -1.487743,2.663434 -0.380374,0.994588 -0.840979,1.808341 -1.023636,1.808341 -0.182658,0 -0.531216,-0.770924 -0.774787,-1.713165 -0.243569,-0.942241 -0.598326,-1.713165 -0.787763,-1.713165 -0.477821,0 -0.430648,1.549135 0.0916,3.008447 0.239809,0.670095 0.352838,1.299577 0.251138,1.398639 -0.68629,0.668512 -2.127913,-3.693697 -1.730484,-5.236155 0.231004,-0.896552 0.473699,-0.996411 3.029683,-1.241748 0.764202,-0.07335 1.484608,-0.11544 2.02895,-0.124174 z m 2.918233,2.195733 c -0.277449,0.146685 -0.648126,0.76853 -0.861042,1.522071 -0.245784,0.869866 -0.204118,0.853484 0.488536,-0.190351 0.416822,-0.628161 0.69161,-1.216446 0.609907,-1.307179 -0.06242,-0.06932 -0.144915,-0.07342 -0.237401,-0.02456 z m 31.12887,0.527929 c 0.404066,-0.0093 0.907402,0.02634 1.552628,0.087 1.319413,0.124052 2.43714,0.259419 2.483898,0.300397 0.04676,0.04098 -0.0786,0.665279 -0.278617,1.387485 -0.200015,0.722206 -0.468385,1.970037 -0.596932,2.772738 -0.169897,1.060899 -0.387342,1.401998 -0.79616,1.249183 -0.635945,-0.237715 -0.786969,0.727867 -0.17175,1.098242 0.803887,0.483957 0.287009,1.003195 -3.810577,3.826365 -2.310772,1.592086 -4.260283,3.052346 -4.331933,3.245644 v 7.62e-4 c -0.168987,0.455759 -0.846542,0.457003 -0.846542,0.0015 0,-0.192392 -1.357031,-1.414042 -3.015945,-2.713999 -2.508235,-1.965499 -2.817755,-2.320726 -1.83735,-2.11097 2.5586,0.547402 5.577714,0.330321 6.897511,-0.495953 0.702705,-0.439937 2.283223,-1.271492 3.512112,-1.847751 1.22889,-0.576256 2.24015,-1.171874 2.247263,-1.323538 0.0071,-0.151665 -0.523549,-0.545571 -1.179355,-0.875915 -0.950163,-0.47862 -1.142052,-0.77124 -0.945774,-1.438046 0.545233,-1.852316 0.535752,-2.293284 -0.02368,-1.104934 -0.704058,1.495658 -1.520944,1.31236 -0.927455,-0.208195 0.541625,-1.387675 0.856453,-1.822054 2.068643,-1.849982 z M 54.17847,74.21119 c 0.406332,-0.04922 0.814302,-0.05001 1.194621,0.0082 3.905591,0.597441 8.255417,1.419399 8.434104,1.593452 0.381394,0.371514 -4.540957,0.203365 -6.441798,-0.220096 -1.205893,-0.268647 -2.379593,-0.297314 -3.254103,-0.07882 -0.965174,0.241153 -1.555806,0.704153 -2.006814,1.57189 l -0.639673,1.22984 -0.249614,-0.96886 c -0.137294,-0.532855 -0.07607,-1.284279 0.135876,-1.670038 0.403233,-0.733928 1.608399,-1.317893 2.827401,-1.46556 z m -16.553721,2.93558 c -0.152076,0.0084 -0.579905,0.390849 -1.293093,1.216465 -1.010253,1.169517 -2.934266,4.68224 -2.934266,5.357356 0,0.182559 0.175873,0.226073 0.390829,0.09666 0.214955,-0.129408 0.390828,-0.445335 0.390828,-0.701921 0,-0.256587 0.876962,-1.702825 1.948799,-3.213673 1.237395,-1.744211 1.750363,-2.768851 1.496903,-2.754891 z m 40.545388,1.911694 c -0.09479,0 -0.280876,0.171317 -0.413727,0.380703 -0.13285,0.209387 -0.05513,0.380704 0.172516,0.380704 0.227642,0 0.413727,-0.171317 0.413727,-0.380704 0,-0.209386 -0.07772,-0.380703 -0.172516,-0.380703 z m -14.388131,0.09592 c -0.186402,0.02328 -0.290831,0.09658 -0.290831,0.217865 0,0.218178 0.48365,0.454846 1.074778,0.525698 1.816328,0.217709 1.815839,-0.215417 -7.82e-4,-0.659538 -0.32837,-0.08028 -0.596783,-0.107301 -0.783185,-0.08403 z m 13.271371,0.884096 c -0.151966,-0.08509 -0.829319,-0.0019 -1.973989,0.282554 -1.027593,0.255353 -1.739702,0.589584 -1.582397,0.742817 0.409088,0.39849 0.782743,0.351766 2.377796,-0.297424 0.957021,-0.389509 1.330559,-0.642856 1.17859,-0.727947 z M 29.50819,80.961983 c -1.144929,0 -4.303159,6.642694 -6.066236,12.759507 -0.783637,2.718762 -1.693579,5.714121 -2.022079,6.65636 -0.3285,0.94224 -0.738153,2.48409 -0.910661,3.42633 -0.172508,0.94225 -0.801009,3.47174 -1.396906,5.62132 -0.982339,3.54361 -1.159936,3.89053 -1.899945,3.71558 -0.448897,-0.10611 -0.596166,-0.0949 -0.327471,0.0253 0.645724,0.28889 0.618224,0.92763 -0.191598,4.43832 -0.570199,2.47189 -0.807756,2.95222 -1.465606,2.96234 -0.677898,0.0105 -0.705355,0.0755 -0.199231,0.47588 0.335259,0.26522 0.533304,0.9122 0.462582,1.51092 -0.228723,1.93631 0.600822,1.06872 1.274009,-1.33246 0.366894,-1.30867 1.096154,-3.6487 1.620564,-5.19972 0.524409,-1.55103 1.215615,-3.94946 1.535833,-5.32985 0.320219,-1.38039 1.011633,-3.88005 1.536597,-5.55515 0.524963,-1.67509 1.219275,-3.98787 1.543467,-5.139496 0.324191,-1.151627 1.047791,-3.721374 1.607587,-5.710549 0.903624,-3.21094 1.426393,-4.728727 2.557177,-7.423715 0.175713,-0.418773 0.439066,-1.189698 0.58548,-1.713165 0.146412,-0.523467 0.47686,-1.208733 0.733566,-1.522813 0.256707,-0.31408 0.76739,-1.042175 1.135082,-1.617989 0.64495,-1.010006 0.640795,-1.046934 -0.112211,-1.046934 z m 16.916303,2.089406 c -0.175966,0.0591 -0.48562,0.374151 -0.916003,0.962913 -1.154254,1.579005 -0.890374,3.816867 0.632805,5.365537 0.967511,0.983703 1.716745,1.391718 1.716745,0.934657 0,-0.09078 -0.536701,-1.006572 -1.193093,-2.035129 l -1.193861,-1.870057 0.656472,-1.597168 c 0.511813,-1.246015 0.590213,-1.859256 0.296935,-1.760753 z m -14.77438,0.886327 c -0.337547,-0.06718 -1.044306,0.459101 -1.299199,1.116827 -2.317717,5.98064 -4.514368,11.455329 -4.820471,12.015206 -1.17982,2.157945 -5.171769,19.991551 -6.024253,26.911711 -0.410163,3.32956 0.463289,1.81103 0.985468,-1.71316 1.157792,-7.81396 3.989565,-19.64905 6.032649,-25.214167 0.555869,-1.514122 1.010658,-3.015506 1.010658,-3.336358 0,-0.320853 0.171255,-0.881134 0.380905,-1.244721 0.620036,-1.075297 3.918207,-8.022687 3.918207,-8.25353 0,-0.171427 -0.07145,-0.259415 -0.183964,-0.281808 z m 25.555748,2.699868 c -0.178663,0.03095 -0.350362,0.130311 -0.567924,0.269168 -1.007173,0.642826 -1.123264,1.157361 -1.754147,7.76055 -0.414532,4.338719 -0.665202,6.139818 -1.554915,11.164568 -0.410972,2.321 -0.343843,3.38354 0.182435,2.8709 0.641721,-0.6251 2.447492,-9.295822 2.48695,-11.9416 0.06865,-4.601865 0.474927,-8.062554 1.033562,-8.806737 0.457699,-0.609731 0.671095,-0.497062 2.464813,1.29677 1.659204,1.659311 2.004895,2.260651 2.233522,3.8799 0.148808,1.053935 0.430357,2.012276 0.625173,2.129559 0.19482,0.117284 0.354188,0.535208 0.354188,0.929453 0,0.529657 -0.484701,0.850225 -1.856435,1.22762 -1.021039,0.280909 -1.795031,0.67651 -1.719797,0.878888 0.07523,0.202382 0.329679,0.313745 0.565634,0.247605 0.235943,-0.06614 2.034602,-0.128651 3.99683,-0.139044 4.051769,-0.02147 5.353,0.436244 6.899797,2.426246 1.528128,1.96597 1.661584,4.28241 0.512963,8.92645 -0.538523,2.17732 -1.309146,4.94105 -1.712161,6.14107 -0.403018,1.20002 -0.918896,3.12385 -1.146534,4.27548 -0.227634,1.15162 -0.625271,3.12176 -0.883178,4.37808 -0.257908,1.25633 -0.583214,3.34311 -0.723646,4.6376 -0.140429,1.29448 -0.115904,2.2696 0.05496,2.16673 0.170866,-0.10286 0.310677,-0.55009 0.310677,-0.99414 0,-1.53875 3.355797,-15.1271 4.114383,-16.66023 0.25901,-0.52347 0.687405,-1.85117 0.952644,-2.95045 0.26524,-1.09928 0.70176,-1.99869 0.969438,-1.99869 0.817461,0 1.816426,1.35839 1.569423,2.13402 -0.126343,0.39671 0.0509,0.25013 0.39388,-0.32568 0.748507,-1.25663 1.446882,-1.29676 4.323539,-0.24835 1.205151,0.43922 2.278252,0.71412 2.384663,0.61046 0.303717,-0.29585 -3.777016,-2.00574 -6.06013,-2.53926 -1.135083,-0.26525 -2.158475,-0.7225 -2.27398,-1.0157 -0.115506,-0.29321 -0.01169,-1.29968 0.23053,-2.23664 0.331235,-1.28144 0.327373,-1.91678 -0.01602,-2.56305 -0.251096,-0.47254 -0.574909,-1.11579 -0.719062,-1.42987 -0.509089,-1.10923 -4.421054,-3.343064 -6.273866,-3.582481 -2.350727,-0.303755 -2.967337,-0.831505 -3.266317,-2.794301 -0.299687,-1.967448 0.166927,-2.085984 2.115968,-0.538338 1.691549,1.34319 5.477249,3.040118 7.474593,3.351229 1.787583,0.278442 2.092827,-0.414213 0.33358,-0.756945 -0.644863,-0.125632 -1.954326,-0.575338 -2.909838,-0.999346 -0.955529,-0.424012 -1.826091,-0.771073 -1.935066,-0.771073 -0.553413,0 -5.469835,-3.725505 -7.998244,-6.060766 -2.078894,-1.920089 -2.676897,-2.442551 -3.212883,-2.349655 z m -23.516113,2.944504 c -0.245395,-0.01169 -0.533789,0.294181 -0.932797,0.968117 -1.398488,2.362081 -3.386887,7.809199 -3.046477,8.345728 0.118486,0.186747 0.556793,0.339809 0.974018,0.339809 0.616007,0 0.758597,-0.268339 0.758757,-1.427638 2.01e-4,-1.460164 1.134193,-4.789655 2.267109,-6.657846 0.450791,-0.743357 0.511811,-1.161823 0.212971,-1.45292 -0.07471,-0.07278 -0.151782,-0.111359 -0.233581,-0.11525 z m 18.703277,0.84617 c -0.144544,0.09542 -0.195149,0.88488 -0.175568,2.525879 l 0.03588,3.045626 0.352664,-2.395754 c 0.226204,-1.53747 0.21365,-2.62873 -0.03588,-3.045627 -0.06984,-0.116681 -0.128915,-0.161928 -0.177092,-0.130124 z m 36.766108,0.02528 c -0.02329,-0.108881 -0.118488,0.108264 -0.296174,0.59708 -0.228337,0.62816 -0.565208,1.656059 -0.748835,2.284219 -0.585539,2.00306 -3.779654,10.934513 -5.00367,13.990853 -0.649889,1.62274 -1.051735,2.95045 -0.892339,2.95045 0.365061,0 6.267722,-14.321127 6.433398,-15.608841 0.06735,-0.523467 0.236107,-1.808341 0.374801,-2.855275 0.107923,-0.814693 0.156128,-1.249605 0.132819,-1.358486 z m -12.252317,0.819403 c -0.108744,-0.05571 -0.376325,0.147435 -0.755702,0.634259 -0.285559,0.366427 -0.525207,1.223009 -0.532046,1.903517 -0.0099,0.983094 0.146635,1.237285 0.761048,1.237285 0.682992,0 0.721438,-0.111123 0.328233,-0.951758 -0.333028,-0.711976 -0.333028,-1.19154 0,-1.903516 0.257029,-0.549504 0.307211,-0.864075 0.198467,-0.919787 z M 42.176525,91.87746 c -0.198844,0.01252 -0.34921,0.08305 -0.436628,0.220834 -0.150231,0.236779 -0.06264,0.498417 0.195414,0.58221 1.379787,0.448011 4.286628,2.765904 5.27542,4.206326 1.274514,1.856678 2.317745,1.714611 1.299199,-0.17697 -1.174619,-2.181426 -4.94149,-4.920236 -6.333405,-4.8324 z m 28.248801,0.217861 c -0.872145,-0.190439 -3.416696,0.613138 -3.416696,1.078909 0,0.526239 0.899968,0.425345 2.59,-0.289243 1.074649,-0.454388 1.31463,-0.683119 0.826696,-0.789662 z m 2.951059,1.537683 c -0.08713,0.01196 -0.114501,0.128461 -0.114501,0.353198 0,0.304821 0.116995,0.66866 0.2603,0.808248 0.371161,0.36155 0.912185,0.313924 0.912185,-0.0803 0,-0.183746 -0.263809,-0.547588 -0.586242,-0.808252 -0.237726,-0.192183 -0.384611,-0.284819 -0.471742,-0.272888 z m 39.908765,0.217123 c -0.50238,0.140266 -1.99921,3.698948 -3.09381,7.510713 -1.0925,3.8045 -2.34045,6.69183 -4.45482,10.30873 -0.63165,1.08052 -1.04112,2.0694 -0.9099,2.19722 0.13122,0.12783 0.42578,0.18113 0.65418,0.11897 0.47172,-0.12839 3.38821,-5.69196 4.33957,-8.27806 0.34662,-0.94224 0.9534,-2.56975 1.34805,-3.61669 1.31054,-3.476712 2.41096,-7.399788 2.26711,-8.082507 -0.0271,-0.128696 -0.0786,-0.178416 -0.15038,-0.158376 z m -72.280346,0.817176 c -0.837037,0 -0.699756,0.671012 0.193887,0.947296 1.143463,0.353521 4.447422,4.864131 6.471568,8.835741 1.904413,3.73668 2.341132,5.05522 3.944924,11.91705 0.562804,2.40795 1.120946,4.63507 1.240422,4.94915 0.413473,1.08691 0.463226,2.66492 0.08397,2.66492 -0.457918,0 -1.64078,2.63123 -1.442704,3.20921 0.07686,0.22428 0.45245,-0.23497 0.835091,-1.02017 0.960211,-1.97042 1.55187,-1.83563 1.253398,0.28553 -0.133124,0.94608 -0.08167,1.71317 0.114501,1.71317 0.579732,0 0.900316,-3.86454 0.49006,-5.90908 -0.597729,-2.97883 -1.645149,-6.73723 -2.225127,-7.98659 -0.291601,-0.62816 -0.794507,-2.25567 -1.118289,-3.61669 -0.998621,-4.19769 -2.907841,-8.69981 -4.762454,-11.231488 -1.947814,-2.658897 -4.188612,-4.758049 -5.079243,-4.758049 z M 116.253,95.901615 c -0.50718,-0.09324 -0.59125,1.137923 -0.62517,9.131675 -0.0283,6.65813 -0.22595,10.41035 -0.70685,13.42797 -1.1504,7.2187 -1.41716,9.10236 -1.45721,10.27899 -0.0214,0.62816 -0.18948,1.48474 -0.37327,1.90352 -0.40576,0.92452 -1.10709,5.98433 -0.88166,6.36042 0.0887,0.1479 0.39544,0.18089 0.68243,0.0736 0.33535,-0.12535 0.61802,-1.22313 0.79005,-3.07239 0.14722,-1.58257 0.59871,-4.69926 1.00379,-6.92627 2.06117,-11.33168 3.04558,-30.905859 1.56789,-31.177525 z m -63.850818,0.945066 c -0.07371,0.07503 -0.209933,0.534161 -0.467923,1.437303 -0.299066,1.046934 -0.53316,2.160496 -0.519833,2.474576 0.05003,1.18053 1.097454,-1.770773 1.080883,-3.045631 -0.0082,-0.632203 -0.01942,-0.941277 -0.09313,-0.866248 z m -11.623326,4.284399 c -0.06423,0.0158 -0.138924,0.0595 -0.208391,0.12715 -0.256193,0.24955 1.344543,2.86659 2.605268,4.25912 0.379136,0.41877 1.166402,1.66082 1.749568,2.7601 0.583163,1.09928 1.312337,1.99869 1.619798,1.99869 0.45623,0 0.473235,-0.15563 0.09465,-0.84468 -0.820269,-1.49299 -3.181591,-5.0114 -4.415138,-6.57904 -0.659054,-0.83754 -1.243997,-1.59394 -1.299963,-1.68119 -0.02798,-0.0436 -0.08157,-0.056 -0.145797,-0.0401 z m 10.559999,0.76959 c -0.194832,0 -0.354188,0.34263 -0.354188,0.7614 0,0.41878 0.06721,0.76141 0.149613,0.76141 0.08241,0 0.241763,-0.34263 0.354188,-0.76141 0.112426,-0.41877 0.04522,-0.7614 -0.149613,-0.7614 z m -18.032302,2.66492 c -0.55905,0 -1.863304,3.17504 -1.863304,4.53572 0,0.35286 -0.144001,0.80489 -0.319838,1.00381 -0.175838,0.19892 -0.725048,1.7319 -1.220576,3.407 -0.495528,1.67509 -1.055019,3.54201 -1.243475,4.14907 -0.188457,0.60706 -0.342738,1.51716 -0.342738,2.02174 0,1.46803 0.667751,0.65641 0.945774,-1.14954 0.211513,-1.37394 0.922091,-3.58292 2.29001,-7.11514 2.208364,-5.70241 2.502776,-6.85266 1.754147,-6.85266 z m 25.558801,0 c -0.352989,0 -1.227319,2.22476 -1.234314,3.1408 -0.0051,0.66585 0.705847,0.21359 0.897682,-0.57105 0.115181,-0.47112 0.331766,-1.24205 0.481668,-1.71317 0.165422,-0.51989 0.108689,-0.85658 -0.145036,-0.85658 z m -2.533514,0.22381 c -0.0774,0.0516 -0.273158,0.45376 -0.652652,1.24919 -0.436419,0.91473 -1.052602,2.1996 -1.369427,2.85527 -0.56746,1.17435 -1.748954,4.72758 -1.7572,5.28449 -0.0023,0.15704 0.156757,0.28553 0.354188,0.28553 0.197431,0 0.741109,-1.15639 1.207597,-2.56975 0.466489,-1.41336 1.097693,-3.11276 1.403016,-3.77655 0.305323,-0.66379 0.644909,-1.77735 0.754939,-2.47457 0.09567,-0.60628 0.136943,-0.90519 0.05954,-0.85361 z m 55.8938,0.26248 c -0.0265,-0.0345 -0.0628,-0.0336 -0.10839,0.008 -0.55892,0.51276 -1.27663,3.70085 -1.6969,7.53897 -0.22012,2.01024 -0.66885,4.65839 -0.99692,5.88529 -0.32807,1.2269 -0.59616,2.69747 -0.59616,3.26795 0,0.57048 -0.24482,2.20525 -0.54426,3.63229 -0.29945,1.42706 -0.66645,3.62219 -0.81525,4.87851 -0.18581,1.56884 -0.14378,2.16499 0.13359,1.90351 0.61227,-0.57719 2.32511,-9.40818 3.38463,-17.44914 0.51965,-3.94369 1.06146,-7.79831 1.20378,-8.56583 0.10675,-0.57564 0.11527,-0.99613 0.0359,-1.09973 z m 23.37947,0.0491 c 2.64824,0.006 5.70148,0.0748 7.32193,0.20299 0.16122,0.0128 0.29312,0.45134 0.29312,0.97481 0,0.74941 -0.18696,0.93979 -0.87936,0.89673 -10.51109,-0.65365 -11.62715,-0.8354 -11.62715,-1.89831 0,-0.12462 2.24323,-0.18204 4.89146,-0.17622 z m -0.62517,3.31851 c -0.13577,-0.005 -0.29022,0.0186 -0.43128,0.0736 -0.31178,0.12153 -0.21943,0.21223 0.23587,0.23051 0.41199,0.0165 0.64283,-0.0735 0.51296,-0.20002 -0.0649,-0.0632 -0.18178,-0.0987 -0.31755,-0.1041 z m -107.367115,0.0483 c -0.09808,0.022 -0.176117,0.12668 -0.243504,0.31676 -0.105204,0.29674 -0.561074,1.56772 -1.012948,2.82404 -0.824689,2.29284 -1.297357,7.07132 -0.893867,9.0365 0.118793,0.57858 0.47008,1.05214 0.78013,1.05214 0.381217,0 0.48508,-0.24036 0.321365,-0.74282 -0.417663,-1.28184 -0.302833,-6.61169 0.180911,-8.39778 0.254648,-0.94021 0.728456,-2.11342 1.053404,-2.60692 0.416282,-0.63222 0.468314,-1.01607 0.176331,-1.30049 -0.145991,-0.14221 -0.263746,-0.20343 -0.361822,-0.18143 z m 29.774709,0.67962 c -0.307301,0.14175 -0.921671,1.34198 -1.824375,3.57132 -0.798326,1.97158 -1.447668,3.81323 -1.442704,4.09256 0.01305,0.73507 3.478099,-6.21676 3.494553,-7.01104 0.0077,-0.37116 -0.03103,-0.587 -0.114497,-0.64838 -0.03131,-0.023 -0.06907,-0.0247 -0.112977,-0.004 z m 6.192953,0.38293 c -0.968309,-0.0115 -1.705638,0.36703 -3.034266,1.55999 -2.126545,1.9094 -4.871614,5.90043 -4.871614,7.08242 0,0.47287 0.175873,0.85956 0.390829,0.85956 0.214955,0 0.390828,-0.28207 0.390828,-0.62682 0,-1.60099 4.695975,-6.96624 7.230325,-8.26097 l 1.172485,-0.59931 z m -57.7906938,1.24249 c -0.3448412,0.33591 1.2396752,1.25477 3.5227987,2.04331 2.0994131,0.72507 4.5807921,1.1667 4.1197281,0.73315 -0.349892,-0.32901 -7.4915647,-2.92351 -7.6425268,-2.77646 z m 133.8663468,0.69374 c -0.21251,-0.003 -0.43962,0.0201 -0.62975,0.0684 -0.38027,0.0965 -0.16397,0.18184 0.4809,0.18961 0.64487,0.008 0.95619,-0.0712 0.69158,-0.17548 -0.1323,-0.0522 -0.33022,-0.08 -0.54273,-0.0825 z m -125.126905,0.35172 c -0.186807,0 -0.23987,0.12046 -0.08702,0.36137 0.13285,0.20938 0.538777,0.37796 0.902264,0.37475 0.569544,-0.005 0.580025,-0.0567 0.07481,-0.37475 -0.382694,-0.24091 -0.703244,-0.36137 -0.890051,-0.36137 z m 119.827825,0.43944 c -0.0806,-0.01 -0.12595,0.0436 -0.12595,0.16284 0,0.21637 0.11699,0.50805 0.2603,0.64764 0.1433,0.13959 0.35152,0.1647 0.46258,0.0565 0.11106,-0.10818 -0.006,-0.39912 -0.2603,-0.6469 -0.14022,-0.13658 -0.25607,-0.21014 -0.33663,-0.22009 z m -60.479164,0.1331 c -0.476471,-0.16727 -2.585087,3.56157 -2.954111,5.33802 -0.214147,1.03088 -0.740917,3.33071 -1.170961,5.1105 -0.43004,1.77979 -1.146355,4.94914 -1.591555,7.04301 -0.445204,2.09387 -1.035418,4.14967 -1.311413,4.56844 -0.275999,0.41877 -0.598596,1.4763 -0.716771,2.3504 -0.273021,2.01948 0.557481,2.85784 3.931182,3.96764 1.430459,0.47056 2.41596,1.01351 2.41596,1.33098 0,0.55883 -0.322374,0.65336 -1.954142,0.57179 -0.976566,-0.0488 -0.976132,-0.0486 0.136638,0.56065 1.222402,0.66931 2.78022,0.4846 3.116704,-0.36955 0.186202,-0.47266 -2.78296,-2.68998 -6.215852,-4.64131 -0.683207,-0.38835 -0.69746,-0.55873 -0.203047,-2.47457 0.292031,-1.13163 0.604744,-2.18293 0.694635,-2.33627 0.08989,-0.15334 0.814901,0.12492 1.610643,0.61864 0.795742,0.49373 2.501759,1.28505 3.791492,1.75852 1.289734,0.47349 3.19766,1.19249 4.239574,1.59717 1.041909,0.40468 1.989625,0.64282 2.106045,0.52942 0.116416,-0.1134 -0.208656,-0.36452 -0.722118,-0.55842 -3.894488,-1.47065 -5.567714,-2.18624 -7.870764,-3.36387 -2.241076,-1.14594 -2.637063,-1.49884 -2.631987,-2.34816 0.01216,-2.03172 0.378752,-1.9987 5.470835,0.49818 6.157978,3.01954 8.194937,4.1371 8.199001,4.49781 0.0061,0.54205 -0.730583,0.2762 -6.080742,-2.19425 -2.953568,-1.36382 -5.445072,-2.40672 -5.536479,-2.31768 -0.262406,0.25561 3.305904,2.21201 6.325769,3.46871 3.943794,1.64119 4.461274,1.98268 3.731191,2.45821 -0.322433,0.21001 -0.41037,0.39186 -0.195414,0.4045 0.214956,0.0126 -0.13679,0.24344 -0.781657,0.51231 l -1.172485,0.48852 0.859518,0.52496 0.859517,0.52569 -1.332787,1.58453 c -0.733218,0.87162 -1.252109,1.66386 -1.152639,1.76076 0.09947,0.0969 1.280334,0.022 2.623588,-0.16731 1.343254,-0.18927 5.206936,-0.25624 8.586777,-0.14797 3.37984,0.10828 6.233736,0.058 6.3418,-0.11227 0.231964,-0.36561 -8.044827,-0.87302 -12.396588,-0.75992 -1.670236,0.0434 -3.137832,-0.0191 -3.260974,-0.13905 -0.123142,-0.11995 0.539683,-0.76296 1.473239,-1.42912 l 1.697661,-1.21126 4.103698,0.24314 c 2.257034,0.1338 5.202903,0.42702 6.546375,0.65136 2.364645,0.39488 2.442677,0.4441 2.442677,1.55702 0,0.97874 0.08715,1.07938 0.586243,0.6759 0.322433,-0.26067 0.586243,-0.94573 0.586243,-1.52208 0,-1.30553 -0.237507,-1.35809 -8.698984,-1.94738 -3.491512,-0.24316 -6.414607,-0.49796 -6.495997,-0.56585 -0.08139,-0.0679 0.383695,-0.9441 1.033557,-1.94664 1.206108,-1.86067 1.996398,-3.897 3.736534,-9.62689 1.833849,-6.03847 2.366493,-10.03534 0.725933,-5.44882 -0.763468,2.13444 -0.793089,2.16442 -0.822878,0.83725 -0.02857,-1.27362 -0.162964,-1.42578 -1.812924,-2.03958 -2.236499,-0.832 -2.670526,-0.55656 -0.574029,0.36434 1.482455,0.65117 1.555571,0.76285 1.467897,2.24853 -0.07357,1.24651 -0.235412,1.55185 -0.799213,1.50645 -0.645637,-0.052 -0.654313,7.7e-4 -0.09618,0.60155 0.33621,0.36188 0.611432,1.01342 0.611432,1.44845 0,0.62088 -0.189107,0.75163 -0.879364,0.60749 l -0.879364,-0.18366 0.879364,0.7562 c 0.935311,0.80429 1.15827,1.58602 0.452657,1.58602 -0.234552,0 -1.958312,-0.77092 -3.831185,-1.71317 -1.872869,-0.94224 -3.572113,-1.71328 -3.775464,-1.71316 -0.572181,3.3e-4 4.547897,2.99819 6.008224,3.51779 1.204603,0.42861 1.279794,0.55278 1.049589,1.74811 -0.136341,0.70792 -0.411691,1.70731 -0.612198,2.22102 -0.379541,0.9724 -0.488754,0.95841 -2.365578,-0.30561 -1.70957,-1.15136 -8.681338,-4.64553 -8.407391,-4.21376 0.14096,0.22217 2.451878,1.56722 5.135727,2.98912 3.426369,1.81528 4.880012,2.78729 4.880012,3.26349 0,0.373 -0.106665,0.67813 -0.237397,0.67813 -0.130732,0 -2.197237,-1.0923 -4.592233,-2.42773 -2.394996,-1.33543 -5.469358,-2.97325 -6.831101,-3.63899 -1.589077,-0.77689 -2.404635,-1.3897 -2.277795,-1.71168 0.108693,-0.27591 0.575092,-2.27932 1.03661,-4.4517 0.904716,-4.25856 1.98141,-8.02165 2.382372,-8.32788 0.496231,-0.379 1.574859,-2.72637 1.437365,-3.12817 -0.01626,-0.0475 -0.04075,-0.0758 -0.07252,-0.087 z m 17.375835,0.93094 c -0.447487,0 -1.94366,2.83397 -1.959489,3.71185 -0.01657,0.91894 0.418237,0.45881 1.258745,-1.33246 0.466684,-0.99458 0.914413,-1.93683 0.995389,-2.09387 0.08098,-0.15704 -0.05127,-0.28552 -0.294645,-0.28552 z m -12.003469,0.45878 c -0.08057,-0.01 -0.125952,0.0436 -0.125952,0.16283 0,0.21637 0.116994,0.50806 0.260299,0.64764 0.143301,0.1396 0.351519,0.1647 0.462581,0.0565 0.111061,-0.10818 -0.0059,-0.39913 -0.2603,-0.6469 -0.140221,-0.13659 -0.256067,-0.21015 -0.336628,-0.22009 z m -71.6895278,0.30262 c -1.0824904,0 0.3417333,0.74906 3.1686108,1.66632 3.071343,0.99659 4.329286,1.22762 3.693023,0.67813 -0.456727,-0.39443 -6.1638226,-2.34445 -6.8616338,-2.34445 z m 34.1417588,0.0149 c -1.379286,-0.0161 -1.836233,0.92338 -0.496932,1.02166 0.813067,0.0597 4.629465,1.8115 5.264734,2.41657 0.587661,0.55973 1.065503,0.41273 0.927455,-0.28553 -0.181657,-0.91882 -4.185201,-3.13507 -5.695257,-3.1527 z m -35.7470558,0.94284 c -0.1981237,-0.0416 -0.3068613,-0.0337 -0.3068613,0.0312 0,0.25205 0.8176941,0.77502 1.8175046,1.16219 0.9998104,0.38717 2.9783785,1.23785 4.3968195,1.89013 1.41844,0.65228 2.667251,1.10002 2.774728,0.99489 0.107478,-0.10514 -0.06839,-0.28201 -0.390828,-0.39261 -0.322433,-0.11059 -2.388938,-1.0813 -4.5922333,-2.15707 -1.7034039,-0.8317 -3.1047583,-1.40398 -3.6991295,-1.52876 z m 73.1238368,1.1607 c -0.447095,-0.0614 -0.789391,0.12105 -1.332025,0.6298 -0.498122,0.467 -0.847144,0.93912 -0.775548,1.04916 0.0716,0.11004 0.891843,0.22795 1.822847,0.26248 1.459986,0.0542 1.599289,-0.004 1.011421,-0.42234 -0.867682,-0.61801 -0.866963,-0.96569 0.0023,-0.99638 0.504051,-0.0178 0.441847,-0.1185 -0.235873,-0.38293 -0.183658,-0.0717 -0.344081,-0.11933 -0.493112,-0.13979 z m -42.769754,0.92722 c -1.673321,0 -3.272899,1.08284 -4.523533,3.06273 -0.655409,1.03757 -1.352293,1.88641 -1.548811,1.88641 -0.196517,0 -0.357241,0.25249 -0.357241,0.56139 0,0.46109 0.192411,0.48664 1.074778,0.14054 0.591128,-0.23187 3.009379,-0.46608 5.37389,-0.5205 2.364512,-0.0544 4.255144,-0.20358 4.201405,-0.33088 -0.05374,-0.12731 -0.09771,-0.42231 -0.09771,-0.65582 0,-0.28922 -0.685275,-0.3499 -2.149556,-0.19035 l -4.299112,0.46844 c -1.585001,0.1727 -2.149556,0.10918 -2.149556,-0.24092 0,-0.85511 2.659125,-2.94049 4.080798,-3.20028 1.599508,-0.2923 1.876688,-0.98076 0.394645,-0.98076 z m -30.4449198,1.48415 c -0.1393688,-0.0127 -0.2160243,0.008 -0.2160243,0.0677 0,0.20663 0.3077773,0.47006 0.6839496,0.58593 1.819116,0.56035 3.8235465,1.5378 5.8654785,2.85973 2.596153,1.68073 2.334256,1.56763 2.613665,1.12724 0.1211,-0.19086 -0.647058,-0.8668 -1.706821,-1.50199 -2.2234,-1.33263 -6.2646668,-3.04935 -7.2402478,-3.13857 z m 70.8414588,0.52124 c -0.134578,0.0196 -0.35012,0.14306 -0.6496,0.39854 -0.424271,0.36195 -0.912631,0.44526 -1.426676,0.2424 -0.429911,-0.16965 -1.133402,-0.31396 -1.563313,-0.32047 -0.538804,-0.008 -0.387018,0.155 0.488535,0.5257 1.451072,0.61435 1.773877,1.53985 0.390829,1.12054 -0.878332,-0.26629 -0.87818,-0.26519 -0.115263,0.5666 l 0.763334,0.83279 1.249584,-1.44846 c 0.944429,-1.09463 1.2663,-1.9763 0.86257,-1.91764 z m 3.093039,0.32419 c -0.208534,0 -0.28396,0.11192 -0.28396,0.33534 0,0.20939 0.48365,0.36866 1.074778,0.35394 0.952386,-0.0237 0.985767,-0.064 0.293121,-0.35394 -0.53375,-0.22342 -0.875401,-0.33534 -1.083939,-0.33534 z m -66.920197,0.34724 c -0.214956,0 -0.127019,0.16583 0.195414,0.36881 0.322433,0.20297 0.762115,0.3688 0.977071,0.3688 0.214955,0 0.127019,-0.16583 -0.195414,-0.3688 -0.322434,-0.20298 -0.762116,-0.36881 -0.977071,-0.36881 z m 65.317191,0.19035 c -0.683828,-0.0796 0.21274,0.55731 2.2007,1.38451 1.342324,0.55855 2.61626,1.02896 2.831215,1.04545 0.673515,0.0516 -2.258167,-1.56147 -3.802943,-2.09238 -0.597198,-0.20525 -1.001029,-0.31105 -1.228972,-0.33758 z m -72.2543948,1.15996 c -0.2786883,-0.0388 -0.2931213,0.11236 -0.2931213,0.36286 0,0.30733 0.1989706,0.55915 0.4419719,0.55915 0.2430013,0 2.0896653,0.88675 4.1036982,1.97044 2.659797,1.43116 3.661726,2.17173 3.661726,2.70582 0,0.49397 -0.190906,0.66404 -0.580899,0.51826 -0.481778,-0.18009 -0.500623,-0.0928 -0.112211,0.51306 0.732625,1.14273 0.239076,1.18718 -1.934295,0.17399 -3.7488402,-1.74765 -5.6459599,-2.45692 -5.5097641,-2.05892 0.074654,0.21816 1.6284365,1.01611 3.4525717,1.7734 1.8241354,0.75728 3.3769164,1.42318 3.4502814,1.47894 0.07337,0.0557 0.01639,0.4584 -0.12595,0.89525 -0.32777,1.00595 -2.139446,1.94748 -4.8929883,2.54223 l -2.149556,0.46395 1.7984212,0.032 c 2.078242,0.0369 4.1172911,-0.54738 5.2364891,-1.50051 0.429912,-0.36611 1.792932,-1.21536 3.02892,-1.88715 2.462222,-1.33829 3.372302,-2.21282 1.819795,-1.74886 -2.761456,0.82525 -2.756668,0.82669 -2.112153,-0.6759 0.970488,-2.26253 0.546392,-4.51786 -0.505329,-2.68723 -0.300805,0.52359 -0.844576,0.35726 -4.025074,-1.23059 -3.0893434,-1.54235 -4.2880535,-2.13545 -4.7525338,-2.2002 z m 71.9017348,0.56064 c -0.186808,0 -0.239871,0.12046 -0.08702,0.36137 0.132851,0.20939 0.538777,0.37797 0.902263,0.37476 0.569542,-0.005 0.580028,-0.0567 0.07481,-0.37476 -0.382695,-0.24091 -0.703245,-0.36137 -0.890049,-0.36137 z m -4.652538,0.74208 c -0.245284,0 -0.195954,0.25991 0.120606,0.63426 0.489211,0.57853 0.399129,0.61334 -1.026687,0.39854 l -1.563313,-0.23496 0.922874,0.74282 c 1.162504,0.93652 1.486407,0.9323 2.012919,-0.026 0.446174,-0.81205 0.229612,-1.51462 -0.466399,-1.51462 z m 10.968383,0 c -0.214955,0 -0.282463,0.17131 -0.149613,0.3807 0.132851,0.20939 0.417088,0.3807 0.632044,0.3807 0.214956,0 0.282463,-0.17131 0.149613,-0.3807 -0.13285,-0.20939 -0.417088,-0.3807 -0.632044,-0.3807 z m 53.556463,0.0468 c -0.13577,-0.005 -0.29022,0.0186 -0.43129,0.0736 -0.31177,0.12152 -0.21942,0.21222 0.23588,0.2305 0.41199,0.0165 0.64283,-0.0735 0.51296,-0.20002 -0.0649,-0.0632 -0.18178,-0.0987 -0.31755,-0.1041 z M 29.028815,122.8899 c -0.187275,-0.0669 -1.080799,0.12502 -3.252578,0.66846 -3.024099,0.75672 -7.446302,3.20114 -7.016591,3.87842 0.343767,0.54181 0.685189,0.41889 1.683921,-0.60675 0.506212,-0.51984 1.253672,-0.94506 1.661021,-0.94506 0.407349,0 0.740436,-0.15112 0.740436,-0.33609 0,-0.18498 0.395714,-0.42422 0.879364,-0.53165 1.4025,-0.31154 4.958042,-1.64349 5.27771,-1.97713 0.07329,-0.0765 0.08914,-0.12788 0.02672,-0.1502 z m 52.394664,0.33014 c -0.214956,0 -0.282464,0.17132 -0.149613,0.38071 0.13285,0.20938 0.417088,0.3807 0.632043,0.3807 0.214956,0 0.282464,-0.17132 0.149613,-0.3807 -0.13285,-0.20939 -0.417088,-0.38071 -0.632043,-0.38071 z m 1.563313,0.76141 c -0.214955,0 -0.282463,0.17132 -0.149613,0.3807 0.132851,0.20939 0.417088,0.38071 0.632044,0.38071 0.214955,0 0.282463,-0.17132 0.149613,-0.38071 -0.132851,-0.20938 -0.417088,-0.3807 -0.632044,-0.3807 z m -77.2420357,0.006 c -0.1603082,0.003 0.9395148,0.67556 2.444204,1.49381 2.5746937,1.40014 3.7128697,1.81179 3.7128697,1.34288 0,-0.2242 -5.6909105,-2.84613 -6.1570737,-2.83669 z m 132.6488237,0.42607 c -0.41043,0 -0.64502,0.11001 -0.64502,0.3294 0,0.20938 0.74746,0.36365 1.66102,0.34278 1.41106,-0.0322 1.51399,-0.0838 0.68395,-0.34278 -0.70324,-0.21939 -1.28952,-0.3294 -1.69995,-0.3294 z m -5.9067,0.0349 c -0.17349,0.0374 -0.4575,1.06523 -0.65341,2.68723 -0.15719,1.30133 -0.41027,3.05128 -0.56258,3.88883 -0.16111,0.88594 -0.13143,1.39033 0.071,1.20605 0.39886,-0.36313 1.24943,-4.75817 1.29538,-6.69428 0.0184,-0.77582 -0.0463,-1.11029 -0.15038,-1.08783 z m -56.902924,0.67515 c -0.227642,0 -0.305366,0.17132 -0.172516,0.3807 0.13285,0.20939 0.318936,0.38071 0.413727,0.38071 0.09479,0 0.172516,-0.17132 0.172516,-0.38071 0,-0.20938 -0.186085,-0.3807 -0.413727,-0.3807 z m -0.924403,0.13161 c -0.141378,-0.0875 -0.508976,0.11241 -0.990047,0.67069 l -0.784709,0.91086 -0.246558,-0.85212 c -0.285086,-0.98498 -0.939668,-0.78198 -0.939668,0.29148 0,0.40136 0.481238,0.98088 1.074778,1.29454 1.345434,0.71101 1.885907,0.75035 1.328968,0.0967 -0.315699,-0.37054 -0.26631,-0.72548 0.187782,-1.357 0.425956,-0.59238 0.510832,-0.96762 0.369454,-1.05511 z m 52.150397,0.43944 c -0.5874,0 -0.74437,0.66964 -1.31981,5.61538 -0.19426,1.66968 -0.13415,2.18904 0.25343,2.18904 0.34644,0 0.64054,-1.06001 0.92516,-3.33115 0.22961,-1.83214 0.48629,-3.58813 0.57022,-3.90221 0.085,-0.3183 -0.10493,-0.57106 -0.429,-0.57106 z m -45.070448,0.57701 c -0.27968,0.003 -0.231644,0.15301 0.120606,0.37475 0.750828,0.47266 0.886125,0.47266 0.586243,0 -0.132851,-0.20938 -0.45084,-0.37779 -0.706849,-0.37475 z m 58.002898,0.10112 c -0.39669,-0.009 -0.70882,0.0153 -0.82669,0.0862 -0.21908,0.1319 -0.30319,0.38946 -0.18702,0.57255 0.22135,0.34887 3.55072,0.27691 3.92202,-0.0848 0.23453,-0.22845 -1.71823,-0.5481 -2.90831,-0.57403 z m -80.210653,0.72795 c -0.230424,-0.052 -1.175506,0.83647 -1.547281,1.51315 -0.577907,1.05185 0.233539,0.84971 0.967147,-0.24092 0.347158,-0.5161 0.631278,-1.05126 0.631278,-1.18895 0,-0.0492 -0.01821,-0.0759 -0.05114,-0.0833 z m -8.919586,0.36732 c -0.161745,0.0256 -0.407716,0.11653 -0.74044,0.28999 -0.434191,0.22635 -1.274046,0.41119 -1.865592,0.41119 -4.252687,0 -14.791203,4.67677 -19.298679,8.56433 -1.612167,1.39045 -2.987711,2.85905 -3.0564,3.26349 -0.170947,1.00655 -0.510604,0.93875 -2.96938,-0.59336 -1.172916,-0.73087 -3.090767,-1.67826 -4.261709,-2.10502 -1.877644,-0.68432 -2.537894,-0.7365 -5.593731,-0.44168 -1.905689,0.18386 -3.825497,0.20589 -4.2662881,0.0491 -1.026945,-0.36533 -2.9862191,-0.008 -2.8083156,0.51157 0.074775,0.21852 2.02104,1.34152 4.3243027,2.49539 2.341469,1.17302 4.039201,2.2422 3.851033,2.4255 -0.188167,0.18329 -2.087328,-0.58661 -4.3075088,-1.74588 -2.1839528,-1.14037 -3.9708773,-1.94643 -3.9708773,-1.79199 0,0.15445 1.8026958,1.22898 4.0059908,2.38832 2.2032953,1.15935 4.0632043,2.38795 4.1327043,2.72962 0.231703,1.13904 -1.703487,0.68569 -4.6639866,-1.0923 -2.9518595,-1.77279 -3.4747085,-1.97455 -3.4747085,-1.33915 0,0.20586 0.8670959,0.80275 1.9266617,1.32577 2.7474514,1.35617 2.7999384,1.72655 0.2457944,1.72655 -1.8462323,0 -2.1724561,0.1051 -2.1724561,0.6982 0,0.38388 0.114038,0.80855 0.2534278,0.94432 0.1393896,0.13577 0.7109761,0.13538 1.2701922,-0.002 0.5592159,-0.13682 4.0285851,-0.25584 7.7097001,-0.26471 6.644536,-0.016 6.692936,-0.0229 6.692936,-0.8603 0,-0.72467 1.478087,-3.56166 1.855672,-3.56166 0.07212,0 0.967948,0.3492 1.990782,0.77628 1.022833,0.42708 2.087679,0.69158 2.366343,0.58741 0.278665,-0.10416 1.036039,-0.01 1.682394,0.20969 0.646356,0.21949 1.398445,0.32573 1.671708,0.23645 0.273262,-0.0893 -0.631725,-0.49116 -2.011393,-0.89302 -1.379667,-0.40185 -2.571288,-0.91417 -2.648014,-1.13839 -0.07673,-0.22421 1.051931,-1.59359 2.508324,-3.04339 4.060521,-4.04215 11.845034,-7.86925 17.752156,-8.72792 0.998824,-0.1452 2.381872,-0.59949 3.073196,-1.00901 1.003773,-0.59463 1.281386,-1.10072 0.796161,-1.02389 z M 140.063,128.1692 c -0.23168,0 0.298,0.81375 1.17706,1.80834 l 1.59843,1.80834 -1.07936,0.88112 c -1.35728,1.1083 -2.57743,1.59345 -4.00828,1.59345 -1.04815,0 -1.14806,-0.13862 -1.58087,-2.18904 -0.67532,-3.19929 -0.74252,-3.22749 -0.68089,-0.28553 l 0.0557,2.66492 -1.73125,0.0967 c -2.91383,0.16254 -4.27239,0.48523 -4.27239,1.01495 0,0.39702 0.74063,0.46443 3.43959,0.31453 l 3.44036,-0.19035 0.73281,1.08857 c 0.40294,0.59904 1.14086,1.51853 1.6404,2.04331 1.59851,1.67926 1.24257,2.16909 -1.72972,2.37791 -2.04833,0.1439 -3.36525,0.53274 -5.89067,1.73993 -1.7889,0.85512 -3.76747,1.66477 -4.39682,1.79942 -0.62935,0.13465 -1.14424,0.40284 -1.14424,0.59559 0,0.19275 -0.35174,0.35022 -0.78165,0.35022 -0.42991,0 -0.78166,-0.17132 -0.78166,-0.3807 0,-0.20939 -0.26381,-0.38071 -0.58624,-0.38071 -0.96395,0 -0.6745,-0.56471 0.93509,-1.8247 1.20578,-0.94389 3.55943,-4.17413 3.55943,-4.88519 0,-0.5154 -0.82158,0.0343 -1.42743,0.95547 -0.39729,0.60403 -1.92098,2.3451 -3.38617,3.86875 l -2.66404,2.76977 -29.774711,-0.29668 c -37.715442,-0.37589 -43.421603,-0.45472 -56.391495,-0.77926 -8.542637,-0.21376 -10.755217,-0.16616 -11.431729,0.24538 -0.461381,0.28067 -0.838907,0.6146 -0.838907,0.74207 0,0.12747 1.187141,0.25547 2.638091,0.28479 3.855747,0.0779 10.208831,0.36448 15.340014,0.69151 2.471989,0.15755 6.165317,0.28411 8.207395,0.28107 2.042079,-0.003 12.154763,-0.0193 22.472632,-0.0364 30.90792,-0.0513 47.52504,0.22107 50.41686,0.82684 0.42991,0.0901 4.60593,0.19908 9.27988,0.2424 4.67395,0.0433 9.1587,0.20361 9.96612,0.35617 2.40997,0.45535 4.27555,0.39739 4.73956,-0.14723 0.24,-0.28169 0.54757,-1.05261 0.68319,-1.71316 0.25643,-1.24893 -0.39555,-1.66099 -1.27401,-0.80528 -0.22352,0.21773 -1.70934,0.41978 -3.30219,0.44837 -4.29318,0.0771 -13.73276,-0.53176 -13.37137,-0.86253 0.91903,-0.84117 7.49981,-2.64634 9.64781,-2.64634 2.73156,0 3.75867,-0.6633 3.75867,-2.42847 0,-0.86694 -0.37144,-1.49077 -1.43889,-2.41583 -0.79139,-0.68582 -1.58282,-1.24695 -1.75873,-1.24695 -0.95512,0 -0.0616,-0.77166 1.73201,-1.49605 1.12852,-0.45577 2.4036,-0.97556 2.83351,-1.15475 2.28862,-0.95386 2.26594,-0.97054 1.94727,1.40831 -0.35649,2.66115 -0.36278,2.47694 0.1687,5.02424 0.23739,1.1378 0.34572,2.33701 0.24121,2.66492 -0.10451,0.32791 -0.0296,0.84416 0.16565,1.14732 0.27853,0.43241 0.41093,0.33419 0.61448,-0.4558 0.30467,-1.18245 0.0357,-14.26316 -0.29999,-14.59016 -0.12588,-0.12262 -0.69048,0.0715 -1.25416,0.43126 -0.97375,0.6215 -1.09212,0.61834 -2.37856,-0.0565 -0.7447,-0.39066 -1.35416,-0.84204 -1.35416,-1.00381 0,-0.16177 -0.18968,-0.29445 -0.42136,-0.29445 z m -65.12712,0.002 c -0.425792,0.003 1.948557,1.86642 2.429702,1.90723 0.214956,0.0182 1.270192,0.61183 2.34497,1.31908 2.334418,1.53615 2.264421,1.50918 1.722088,0.66326 -0.410499,-0.64028 -5.844506,-3.8936 -6.49676,-3.88957 z m 42.78731,0.0758 c -0.0602,-0.0234 -0.14764,0.0196 -0.25572,0.13161 -0.4259,0.44136 -1.61524,5.50298 -1.57858,6.71808 0.0249,0.82632 0.0451,0.83298 0.3519,0.11525 0.38051,-0.89043 1.57553,-5.97107 1.57553,-6.69805 0,-0.15408 -0.0329,-0.24349 -0.0931,-0.26694 z m -64.137834,0.42532 c -0.124651,-0.12142 -0.447092,0.2723 -0.716775,0.87517 -0.269683,0.60287 -1.067567,1.79912 -1.773231,2.65823 -0.705664,0.85912 -1.283168,1.67096 -1.283168,1.80463 0,0.13366 -0.616458,1.03013 -1.37019,1.992 -0.753732,0.96185 -1.285207,1.88333 -1.18088,2.04776 0.104328,0.16444 1.617893,0.31706 3.364024,0.33907 2.71589,0.0343 3.107832,-0.0385 2.709844,-0.50562 -0.38148,-0.44775 -0.265314,-0.58971 0.644257,-0.78669 2.301659,-0.49846 3.825983,-1.06352 3.317461,-1.22985 -0.28996,-0.0948 -1.823828,0.20261 -3.409063,0.66102 -3.14867,0.91052 -5.696664,0.95285 -3.489973,0.058 1.67094,-0.67759 5.457723,-3.59987 4.899859,-3.78101 -0.257205,-0.0835 -0.936789,0.27785 -1.510646,0.80305 -1.295041,1.18512 -3.954585,2.93627 -4.460176,2.93627 -0.207225,0 0.194296,-0.63451 0.893105,-1.40979 1.353357,-1.50146 3.744714,-6.09296 3.365552,-6.46229 z m -34.037183,0.31899 c -0.37117,-0.071 -0.968806,0.1475 -1.327442,0.4848 -0.358636,0.33729 -1.13554,0.96403 -1.726668,1.39343 -0.591128,0.4294 -1.074778,0.93975 -1.074778,1.13394 0,0.56013 0.226903,0.44896 2.580842,-1.2648 1.596364,-1.16222 2.032802,-1.65465 1.548046,-1.74737 z m -13.5644923,0.0208 c -0.2618005,0.085 0.4792995,0.50993 1.6465172,0.94507 2.2036308,0.82153 4.0327341,1.14208 2.3174901,0.40599 -0.537389,-0.23062 -1.5422982,-0.66415 -2.2327598,-0.96291 -0.6904615,-0.29878 -1.469447,-0.47315 -1.7312475,-0.38815 z m 50.8428033,1.87824 c -0.639403,-0.20761 -1.290242,0.56 -0.941197,1.11014 0.222171,0.35016 0.438592,0.28669 0.839672,-0.24761 0.375609,-0.50037 0.406508,-0.7635 0.101525,-0.86253 z m -50.8099799,0.32413 c -0.2022695,0 -0.3679282,0.17132 -0.3679282,0.38071 0,0.20938 0.2740231,0.3807 0.6091427,0.3807 0.3351192,0 0.5007781,-0.17132 0.3679282,-0.3807 -0.1328499,-0.20939 -0.406873,-0.38071 -0.6091427,-0.38071 z m 1.9541419,0 c -0.2276416,0 -0.305364,0.17132 -0.1725141,0.38071 0.1328499,0.20938 0.3189367,0.3807 0.4137285,0.3807 0.094792,0 0.1725141,-0.17132 0.1725141,-0.3807 0,-0.20939 -0.1860868,-0.38071 -0.4137285,-0.38071 z m 53.826687,0.174 c -0.06161,0.0387 -0.148844,0.18967 -0.257248,0.45134 -0.185897,0.44871 -0.657979,1.04999 -1.049585,1.33618 -0.39161,0.28618 -1.046959,0.90429 -1.456449,1.37336 -1.316904,1.50852 -0.224289,0.90803 1.361028,-0.74803 0.843025,-0.88063 1.521996,-1.8657 1.508356,-2.18904 -0.0079,-0.18856 -0.0445,-0.26252 -0.106102,-0.22381 z m -16.675092,0.77776 c -0.214955,0.12941 -0.390828,1.00589 -0.390828,1.94813 0,1.04517 0.152392,1.62175 0.390828,1.4782 0.214956,-0.12941 0.390829,-1.00589 0.390829,-1.94813 0,-1.04517 -0.152392,-1.62174 -0.390829,-1.4782 z m 64.590489,0 -0.88088,0.76141 c -3.23035,2.79144 -5.47618,5.44486 -5.47618,6.47047 0,0.10545 0.25557,0.19184 0.56792,0.19184 0.31235,0 0.86241,-0.60377 1.2221,-1.34213 0.35969,-0.73836 1.39721,-1.98041 2.30604,-2.7601 0.90883,-0.7797 1.78985,-1.84626 1.9572,-2.36973 z m -95.089605,0.69151 c -0.549762,0.0376 -1.774942,0.37568 -3.285401,0.9882 -1.594361,0.64653 -3.4283304,1.17557 -4.0754544,1.17557 -0.647124,0 -1.2867258,0.17375 -1.4213329,0.3859 -0.3536529,0.5574 5.3274433,0.0131 6.0608933,-0.58072 0.322433,-0.26103 1.201797,-0.78018 1.954142,-1.15326 1.191089,-0.59066 1.316915,-0.85332 0.767153,-0.81569 z m 111.104415,2.17715 c -0.27056,-0.008 -1.22041,0.50057 -2.11063,1.12873 -0.89021,0.62816 -1.7633,1.14211 -1.93964,1.14211 -0.17633,0 -1.28156,0.42829 -2.45641,0.95175 -1.17485,0.52347 -2.40083,0.95176 -2.72435,0.95176 -0.32352,0 -0.6969,0.17132 -0.82975,0.38071 -0.35427,0.55837 1.13234,0.46394 2.41138,-0.15318 0.60855,-0.29361 2.18939,-1.00287 3.51364,-1.57635 2.47916,-1.07363 5.00784,-2.80124 4.13576,-2.82553 z m -54.274765,1.62245 c -0.106513,0.10375 0.564563,0.44948 1.491561,0.76884 2.001393,0.68951 2.57681,0.77547 2.056429,0.30635 -0.509745,-0.45953 -3.309128,-1.30787 -3.54799,-1.07519 z m -31.018947,0.0781 c -0.298343,-3.7e-4 -0.519772,0.0828 -0.632806,0.26099 -0.113484,0.17887 0.439238,0.58827 1.228208,0.90938 0.788971,0.32111 2.31171,1.25956 3.384635,2.08569 1.933956,1.4891 2.812182,1.80868 3.216701,1.17111 0.1154,-0.18188 0.961774,-0.44093 1.8801,-0.57552 4.074421,-0.59715 8.333586,-1.51717 8.553947,-1.84775 0.132151,-0.19824 0.747705,-0.41178 1.367899,-0.47439 4.244064,-0.42849 6.012805,-0.73249 6.012805,-1.03355 0,-0.41974 -5.627327,-0.0154 -9.078365,0.6521 -2.02111,0.39086 -2.21119,0.48622 -1.083173,0.54355 1.326319,0.0674 1.3382,0.0814 0.390828,0.46026 -0.902817,0.36103 -6.992966,1.45916 -8.109688,1.46258 -0.281311,7.7e-4 -0.488536,-0.47729 -0.488536,-1.12723 0,-0.76049 -0.270547,-1.26962 -0.828982,-1.56074 -0.615671,-0.32111 -0.758119,-0.32095 -0.554947,-7.6e-4 0.344795,0.54344 0.984968,2.69021 0.802267,2.69021 -0.07492,0 -1.042359,-0.75316 -2.149556,-1.67376 -1.429646,-1.18871 -3.01631,-1.94107 -3.911337,-1.94218 z m 27.224402,0.0907 c -0.570094,0.32202 0.340169,0.88236 2.912129,1.79198 2.76921,0.97939 3.082353,1.05795 3.082353,0.77925 0,-0.33814 -5.654246,-2.76342 -5.994482,-2.57123 z m -57.9059562,0.42383 1.3190462,0.21786 c 0.725475,0.12006 1.455795,0.21861 1.622853,0.21861 0.289951,0 1.161799,2.04221 1.161799,2.72143 0,0.41044 -0.422874,0.3807 -1.172485,-0.0833 -0.322434,-0.19957 -1.905289,-0.95464 -3.5174558,-1.67748 -1.8288827,-0.82 -2.5949616,-1.31947 -2.0365822,-1.328 0.4922135,-0.008 1.584715,0.32925 2.4274106,0.74802 1.9558114,0.97193 2.2776344,0.96358 1.1182884,-0.0282 z m 5.1128292,0.0558 c 0.703527,-0.0753 2.110896,0.33134 3.828133,1.17333 3.481828,1.70722 3.508903,1.74802 2.734272,4.08439 l -0.655706,1.97564 h -3.02434 c -2.947734,0 -3.031597,-0.0255 -3.285401,-1.0105 -0.161815,-0.62802 -0.08292,-1.11768 0.208391,-1.29305 0.478542,-0.2881 0.338601,-2.92043 -0.226711,-4.26358 -0.169373,-0.40243 -7.43e-4,-0.62107 0.421362,-0.66623 z m 115.089787,0 c -0.41722,0 -0.86711,0.17131 -0.99997,0.3807 -0.13699,0.21592 0.19153,0.3807 0.75876,0.3807 0.55008,0 0.99997,-0.17131 0.99997,-0.3807 0,-0.20939 -0.34153,-0.3807 -0.75876,-0.3807 z m -54.140408,0.91562 c 0.02849,0.0463 0.280787,0.17448 0.769443,0.40375 0.644867,0.30256 1.348358,0.5524 1.563314,0.55544 0.593473,0.008 -0.651316,-0.60928 -1.758728,-0.87294 -0.407216,-0.0969 -0.602521,-0.13254 -0.574029,-0.0863 z m 48.255088,1.34882 c 0,-0.29943 -7.98401,2.34023 -8.44937,2.79356 -0.58841,0.57316 1.42635,0.23355 3.81057,-0.64244 3.40864,-1.25235 4.6388,-1.82271 4.6388,-2.15112 z M 76.802238,139.971 c -0.442597,0 -0.804555,0.17132 -0.804555,0.3807 0,0.20939 0.253596,0.38071 0.563344,0.38071 0.309747,0 0.671705,-0.17132 0.804555,-0.38071 0.13285,-0.20938 -0.120746,-0.3807 -0.563344,-0.3807 z m -19.642178,0.42978 c -0.05547,0.008 -0.203352,0.17334 -0.476322,0.49967 -0.339982,0.40645 -0.618302,1.03361 -0.618302,1.39418 0,0.57097 0.151927,0.59999 1.177065,0.22306 1.064101,-0.39124 1.10182,-0.45982 0.396934,-0.71381 -0.523511,-0.18864 -0.707013,-0.5043 -0.55876,-0.96143 0.09751,-0.30065 0.134855,-0.44979 0.07939,-0.44167 z m 47.57038,0.26024 c -1.63871,-0.0398 -3.36945,-0.0364 -5.087641,0.0193 -1.956815,0.0635 -2.23963,0.15408 -1.708346,0.54801 0.435828,0.32315 2.773947,0.50569 7.411997,0.57774 3.72645,0.0579 6.8546,0.18277 6.95171,0.27735 0.32157,0.31324 2.05105,0.17814 1.84651,-0.14425 -0.41261,-0.65031 -4.49813,-1.15882 -9.41423,-1.27818 z m -40.54463,0.14203 c -1.026546,-0.0779 -2.091303,0.0138 -3.039605,0.28552 -0.735383,0.21073 -0.252003,0.35419 1.954141,0.58072 1.612167,0.16554 3.282959,0.43993 3.71287,0.60972 0.85736,0.33862 1.758728,0.44387 1.758728,0.20522 0,-0.0836 -0.709088,-0.51184 -1.575527,-0.95175 -0.795903,-0.4041 -1.784057,-0.65154 -2.810607,-0.72943 z m 11.053115,0.31006 c -0.227642,0 -0.413727,0.17132 -0.413727,0.3807 0,0.20939 0.07772,0.38071 0.172515,0.38071 0.09479,0 0.280877,-0.17132 0.413727,-0.38071 0.13285,-0.20938 0.05513,-0.3807 -0.172515,-0.3807 z m -33.326514,0.98819 c -1.025081,-0.007 -1.859367,0.10664 -2.789995,0.34055 -1.106493,0.27811 -2.451838,0.59545 -2.989227,0.7049 -0.537389,0.10945 1.636133,0.1352 4.829631,0.0572 5.849613,-0.14276 7.296722,-0.35467 4.883064,-0.71456 -1.693113,-0.25245 -2.908393,-0.38089 -3.933473,-0.38814 z" />
    <g
       aria-label="XXIV"
       id="text789"
       style="font-size:40px;line-height:1.25;font-family:Hultog;-inkscape-font-specification:Hultog"
       transform="matrix(0.39082837,0,0,0.38070331,6.821061,2.5370994)">
      <path
         d="m 284.26132,55.297298 q -0.51376,2.715597 -1.54128,2.422019 l -3.57187,-1.003058 q -4.30581,0 -4.89297,1.247706 l -1.6636,-1.174312 q 0.95412,-2.079511 2.17737,-2.079511 0.29357,0 0.56269,0.09786 0.24464,-0.220184 0.24464,-0.562691 0,-0.513762 -0.53822,-1.394496 -1.71254,-1.223241 -4.50153,-6.776758 h -0.17125 q -0.51377,-0.02447 -0.75841,0.464832 -2.49542,5.333333 -4.4526,7.168195 l 0.19572,0.880734 q 2.22629,0.293578 2.22629,1.810398 0,0.611621 -0.4159,1.590214 -0.9052,-0.70948 -1.78593,-0.880734 -0.36697,-0.04893 -1.98165,-0.04893 -3.08257,0 -4.526,0.733945 l -1.05198,-0.587156 v -1.932721 l 2.88685,-0.733945 q 0.68501,-0.171254 6.94801,-9.174312 1.24771,-0.391438 1.24771,-1.174312 0,-0.782875 -0.9052,-1.492355 -1.24771,-1.027523 -1.37003,-1.198777 -0.78288,-1.076452 -2.10398,-3.400611 -1.3211,-2.324159 -2.07951,-3.376147 0,0 -1.83486,-1.639144 l -3.27829,-0.733945 0.97859,-2.103975 5.3578,0.685015 3.00918,-0.685015 1.37003,0.464831 v 1.663609 q -1.68808,0.318043 -1.66361,1.370031 v 0.171253 l 4.64832,6.874618 0.75841,-0.195719 q 0.92966,-3.571865 3.474,-5.993883 v -1.247707 l -1.88379,-0.685015 -0.4159,-1.859327 1.05199,-0.538227 3.91437,0.660551 q 1.66361,-0.587156 2.88685,-0.587156 1.49235,0 1.8104,1.003058 -0.80734,2.152905 -3.18043,2.152905 -1.85933,2.422019 -3.71866,4.844037 -2.78899,3.743119 -3.10703,4.892966 1.54128,1.761468 4.40367,5.333334 0.4893,1.076452 1.61468,3.058104 0.95413,1.003058 2.78899,2.935779 z"
         id="path1267" />
      <path
         d="m 311.66191,55.297298 q -0.51376,2.715597 -1.54129,2.422019 l -3.57186,-1.003058 q -4.30581,0 -4.89297,1.247706 l -1.66361,-1.174312 q 0.95413,-2.079511 2.17737,-2.079511 0.29358,0 0.5627,0.09786 0.24464,-0.220184 0.24464,-0.562691 0,-0.513762 -0.53822,-1.394496 -1.71254,-1.223241 -4.50153,-6.776758 h -0.17126 q -0.51376,-0.02447 -0.75841,0.464832 -2.49541,5.333333 -4.45259,7.168195 l 0.19571,0.880734 q 2.2263,0.293578 2.2263,1.810398 0,0.611621 -0.4159,1.590214 -0.9052,-0.70948 -1.78593,-0.880734 -0.36697,-0.04893 -1.98165,-0.04893 -3.08257,0 -4.526,0.733945 l -1.05198,-0.587156 v -1.932721 l 2.88685,-0.733945 q 0.68501,-0.171254 6.94801,-9.174312 1.2477,-0.391438 1.2477,-1.174312 0,-0.782875 -0.90519,-1.492355 -1.24771,-1.027523 -1.37003,-1.198777 -0.78288,-1.076452 -2.10398,-3.400611 -1.3211,-2.324159 -2.07951,-3.376147 0,0 -1.83486,-1.639144 l -3.27829,-0.733945 0.97859,-2.103975 5.3578,0.685015 3.00918,-0.685015 1.37003,0.464831 v 1.663609 q -1.68808,0.318043 -1.66361,1.370031 v 0.171253 l 4.64832,6.874618 0.75841,-0.195719 q 0.92966,-3.571865 3.474,-5.993883 v -1.247707 l -1.88379,-0.685015 -0.4159,-1.859327 1.05198,-0.538227 3.91438,0.660551 q 1.66361,-0.587156 2.88685,-0.587156 1.49235,0 1.8104,1.003058 -0.80734,2.152905 -3.18043,2.152905 -1.85933,2.422019 -3.71866,4.844037 -2.78899,3.743119 -3.10703,4.892966 1.54128,1.761468 4.40367,5.333334 0.4893,1.076452 1.61468,3.058104 0.95413,1.003058 2.78899,2.935779 z"
         id="path1269" />
      <path
         d="m 324.8729,55.76213 q -0.41591,2.470948 -1.46789,2.2263 l -4.526,-1.027523 q 0,0 -3.32722,0.318043 -0.95412,0.66055 -1.6636,0.66055 -1.00306,0 -1.56575,-1.46789 l 1.2477,-1.810397 q 0.58716,0.195718 1.22325,0.195718 2.10397,0 2.10397,-3.400611 0,-0.660551 -0.0979,-1.981652 -0.0979,-1.321101 -0.0979,-1.981651 0,-1.932722 0.0979,-5.82263 0.0979,-3.889908 0.0979,-5.82263 0,-1.663608 -0.97859,-2.617737 -0.66055,0.244648 -1.3211,0.244648 -1.14985,0 -1.93273,-0.929663 0.41591,-2.446483 1.44343,-2.2263 l 4.47706,0.978593 4.25688,-1.027523 1.76147,0.905199 -0.51376,1.761468 q -0.4893,-0.122324 -0.8318,-0.122324 -2.25077,0 -2.25077,3.840979 0,0.391437 0.0245,1.027522 0.0245,0.611621 0.0245,0.831805 0,1.614679 -0.0979,15.437309 l 1.02753,1.100917 q 0.66055,-0.220183 1.19877,-0.220183 1.07645,0 1.68808,0.929663 z"
         id="path1271" />
      <path
         d="m 353.49675,30.905861 -0.4159,1.737003 -2.64221,1.443425 q -2.81345,7.24159 -3.74311,9.51682 -3.03364,7.363914 -4.28135,8.978593 l -1.68807,5.7737 q -2.2263,0 -2.66667,-1.712538 l -0.95413,-3.743119 -0.97859,-1.370031 -0.31804,-2.055046 q -0.0245,-0.04893 -1.59022,-3.033639 -1.02752,-1.957186 -0.97859,-3.180428 -0.66055,-1.027523 -1.95719,-3.082569 -0.19572,-0.562691 -0.53822,-1.614679 -0.95413,-2.593272 -1.8104,-3.865443 -1.3211,-1.957187 -3.08257,-1.859327 -0.0979,-0.513762 -0.0979,-1.027523 0,-1.443425 1.3945,-1.908257 l 3.57186,1.370031 3.6208,-1.027523 1.29663,0.880734 q 0.0489,0.269113 0.0489,0.342507 0,1.198777 -2.20183,2.201835 0.3425,1.321101 1.17431,3.767584 1.51682,2.837921 4.20795,8.611621 0,0 0.95413,4.159021 l 0.75841,1.027523 q 0.70948,-0.244648 0.70948,-0.587156 v -2.12844 l 6.26299,-14.776758 q 0,-0.318043 -1.68807,-1.418961 -0.0979,-0.415902 -0.0979,-0.831804 0,-0.513761 0.29358,-0.905199 0.31804,-0.391437 0.8318,-0.293578 l 3.1315,0.636086 q 1.07646,-0.70948 1.93272,-0.70948 0.85627,0 1.54129,0.685015 z"
         id="path1273" />
    </g>
  </g>
</svg>
