<?xml version="1.0" encoding="UTF-8" standalone="no"?>
<!-- Created with Inkscape (http://www.inkscape.org/) -->

<svg
   version="1.1"
   id="svg2"
   width="4cm"
   height="4cm"
   viewBox="0 0 151.1811 151.1811"
   sodipodi:docname="25.svg"
   inkscape:version="1.1.2 (0a00cf5339, 2022-02-04)"
   xmlns:inkscape="http://www.inkscape.org/namespaces/inkscape"
   xmlns:sodipodi="http://sodipodi.sourceforge.net/DTD/sodipodi-0.dtd"
   xmlns="http://www.w3.org/2000/svg"
   xmlns:svg="http://www.w3.org/2000/svg">
  <defs
     id="defs6" />
  <sodipodi:namedview
     id="namedview4"
     pagecolor="#505050"
     bordercolor="#eeeeee"
     borderopacity="1"
     inkscape:pageshadow="0"
     inkscape:pageopacity="0"
     inkscape:pagecheckerboard="0"
     showgrid="false"
     inkscape:zoom="3.8909091"
     inkscape:cx="100.23365"
     inkscape:cy="65.922897"
     inkscape:window-width="1920"
     inkscape:window-height="1043"
     inkscape:window-x="0"
     inkscape:window-y="0"
     inkscape:window-maximized="1"
     inkscape:current-layer="g8"
     units="cm"
     inkscape:document-units="cm" />
  <!-- Border -->
  <path
     id="border"
     class="board-border"
     style="fill:none;stroke:#000000;stroke-width:0.1cm"
     d="M 0,0 H 151.18111 V 151.18111 H 0 Z" />
  <g
     inkscape:groupmode="layer"
     inkscape:label="Image"
     id="g8">
    <path
       id="path130"
       style="fill:#000000;stroke-width:0.398444"
       d="m 9.1035559,3.2726999 c -0.2961671,0.00827 -0.474913,0.02973 -0.5143053,0.066009 C 8.1382412,3.7540924 6.7256917,27.178489 6.2155375,42.704216 5.7278582,57.545955 5.7019318,58.192151 5.4800096,60.946421 5.3608747,62.424999 5.1518295,70.720403 5.0157629,79.380649 4.8796953,88.040896 4.6774996,97.514629 4.5668562,100.43343 4.409856,104.57522 4.2491165,125.81196 4.363395,127.31594 c 0.013104,0.17245 0.535781,0.25887 1.1610214,0.19203 1.0187611,-0.10888 1.1418076,-0.28102 1.1868563,-1.6577 C 7.1018424,113.91439 7.3538759,100.43931 7.5251178,82.272998 7.6685659,67.055091 7.8715287,60.122117 8.1799076,59.945051 8.4258945,59.803809 8.6879127,59.059989 8.7620328,58.292598 8.8361579,57.525208 9.040545,56.685176 9.2165904,56.425625 9.3926368,56.166076 9.4772033,54.953837 9.4039036,53.732049 9.3306069,52.510258 9.4498416,51.300513 9.6687254,51.043723 10.305412,50.296767 10.168707,44.243624 9.4749544,42.458188 9.0088057,41.258489 8.9682465,40.675683 9.3094393,40.083398 9.558156,39.651647 9.7615752,38.875845 9.7615752,38.359691 c 0,-0.516155 0.2768198,-1.554083 0.6152278,-2.306528 0.531147,-1.181009 0.535167,-1.44255 0.02907,-1.912733 -0.5060979,-0.470181 -0.5053877,-0.689263 0.005,-1.602942 0.65076,-1.165333 0.807002,-2.26676 0.193772,-1.365916 -0.6989643,1.026792 -1.0119618,0.01773 -0.445677,-1.437174 0.855845,-2.198843 0.933846,-4.350514 0.184891,-5.119368 -0.4716725,-0.484208 -0.537487,-0.856349 -0.242215,-1.368915 0.22306,-0.387216 0.429146,-0.83242 0.457787,-0.988621 0.02862,-0.156202 0.153582,-0.531549 0.278548,-0.8341 0.124968,-0.30255 0.02034,-0.908957 -0.232527,-1.347913 -0.252865,-0.438958 -0.301477,-0.798097 -0.10819,-0.798097 0.40486,0 0.432412,-3.267985 0.03068,-3.640941 -0.146957,-0.136427 -0.191281,-2.699535 -0.0985,-5.6961862 0.125454,-4.0520707 0.299935,-5.4275383 0.680624,-5.3653993 0.281535,0.045954 1.34898,0.2546772 2.372099,0.463556 1.023119,0.2088788 2.826027,0.3875988 4.006248,0.396798 1.180221,0.0092 2.262139,0.1912076 2.404395,0.405049 0.156138,0.2347103 0.513676,0.2562433 0.902657,0.054006 0.386834,-0.2011213 1.821509,-0.1245971 3.589635,0.1912733 1.619848,0.2893796 3.968463,0.5201495 5.218942,0.5130619 2.427382,-0.013761 6.261318,0.1882632 10.95461,0.5768196 4.718713,0.3906611 22.93068,0.289702 25.836339,-0.1432672 3.198693,-0.4766345 6.939649,-0.458993 7.986657,0.038254 0.414085,0.196657 3.48344,0.4138538 6.820795,0.4823083 3.337352,0.068455 6.396606,0.2481354 6.797379,0.3990483 0.400776,0.1509139 0.987687,0.074182 1.304734,-0.1702709 0.417856,-0.3221802 1.297428,-0.3423779 3.198056,-0.073508 1.442101,0.204002 2.994439,0.3761858 3.449152,0.3825464 6.868956,0.096053 21.205066,0.5018016 22.942666,0.6495783 1.25048,0.1063478 4.62962,0.2310339 7.50951,0.2767834 2.87988,0.045756 5.37414,0.2117078 5.54268,0.3682939 0.16856,0.1565862 0.54225,0.1026101 0.83,-0.1192635 0.36792,-0.2836689 1.05397,-0.2602806 2.31155,0.078009 2.33813,0.6289609 8.12212,0.6802877 8.37259,0.074266 0.19969,-0.4831977 1.74616,-0.2696742 2.61351,0.3607944 0.72458,0.5266873 1.75686,-0.3514602 1.75686,-1.494182 0,-0.9078415 -0.0279,-0.913256 -4.85724,-0.9443643 -6.56465,-0.042288 -20.04111,-0.323635 -25.11297,-0.524313 C 115.58732,6.7261758 111.0298,6.553096 107.73306,6.4313379 104.43625,6.3095739 90.17286,6.143771 76.036632,6.0630371 61.900402,5.9823037 50.175326,5.8252542 49.980683,5.713495 49.786039,5.6017353 45.07523,5.4022355 39.512121,5.2701912 33.949012,5.1381471 27.350956,4.7891355 24.849999,4.4945975 18.991174,3.8046032 11.17673,3.2148998 9.1035559,3.2726999 Z M 69.835911,8.3170603 c -0.567341,0.00235 -1.034408,0.04371 -1.305541,0.1327651 -0.864302,0.2838878 0.293344,0.8282034 1.791585,0.8423525 0.682081,0.00634 1.984233,0.2263156 2.893672,0.4890591 1.637247,0.473013 5.238486,2.486856 5.520097,3.086623 0.08033,0.171085 0.58625,0.751959 1.12388,1.290905 0.537632,0.538949 1.093556,1.321446 1.236106,1.738712 0.374132,1.095136 -0.153018,3.269734 -0.853405,3.519424 -0.485442,0.173064 -0.562731,-0.128802 -0.409348,-1.595443 l 0.188929,-1.808468 -0.447291,1.440174 c -0.245915,0.792097 -0.597294,1.440174 -0.780741,1.440174 -0.183447,0 -0.986849,-0.845636 -1.785936,-1.878977 -1.247713,-1.61348 -1.825782,-1.993745 -4.09183,-2.694326 -2.195097,-0.678644 -2.864598,-0.74268 -3.981219,-0.381046 -1.729005,0.559963 -1.330656,0.898393 1.155366,0.981868 2.287186,0.07681 5.963937,1.647584 6.652053,2.842095 0.421371,0.731469 0.336765,0.719337 -1.122266,-0.16277 -2.409658,-1.456845 -4.794513,-1.893086 -8.698773,-1.590943 -2.545631,0.197002 -3.657971,0.46069 -4.350194,1.030625 -0.847229,0.697552 -0.856464,0.742621 -0.103346,0.510062 3.079749,-0.951012 8.43182,-1.061037 7.833255,-0.16127 -0.129082,0.194037 -4.09e-4,0.352544 0.285812,0.352544 0.387644,0 0.401256,0.111027 0.05247,0.435051 -0.581833,0.540544 -1.924149,0.116259 -1.52596,-0.482308 0.176952,-0.265994 0.06569,-0.367903 -0.2842,-0.261031 -0.315848,0.09647 -0.630167,0.701543 -0.699193,1.344162 -0.148959,1.386677 0.89975,1.830147 2.840381,1.201645 1.068136,-0.34593 1.746607,-1.469426 0.887315,-1.469426 -0.178642,0 -0.325376,-0.345644 -0.325376,-0.768093 0,-0.917859 0.233768,-0.939931 2.131498,-0.203276 1.387655,0.538654 1.441416,0.631446 1.18363,2.016244 -0.535746,2.87798 -1.49367,5.4818 -2.141188,5.818453 -1.086858,0.565073 4.85951,4.042025 6.951588,4.06474 0.889031,0.0096 1.616367,0.146869 1.617194,0.305289 0.0019,0.487601 -2.693474,0.318789 -4.531045,-0.283535 -2.266608,-0.742955 -4.975113,-2.749106 -4.975113,-3.685195 0,-0.486534 -0.288055,-0.735839 -0.850176,-0.735839 -0.81578,0 -0.82255,0.04267 -0.173587,1.056128 0.371962,0.58087 1.299196,1.488179 2.060445,2.016243 0.761253,0.528062 1.232362,1.104401 1.047183,1.281155 -0.449258,0.428815 -6.670037,0.809981 -8.033489,0.492059 -2.105815,-0.491018 -1.112029,-0.996775 1.467021,-0.746339 1.879456,0.1825 2.468002,0.130618 2.249377,-0.198025 -0.162843,-0.244788 -1.093254,-0.444803 -2.067717,-0.444803 -2.281576,0 -2.863422,-0.616107 -3.916628,-4.148002 -0.713645,-2.393198 -0.748294,-2.835178 -0.236562,-3.017614 0.329737,-0.117554 0.599887,-0.461593 0.599887,-0.765093 0,-0.303499 0.232528,-0.524096 0.516727,-0.489809 1.013821,0.122307 1.55018,-0.03486 1.55018,-0.454555 0,-0.454271 -2.096493,-0.310816 -3.466913,0.237028 -0.56682,0.226597 -0.729045,0.170956 -0.595044,-0.202525 0.21669,-0.603934 0.848039,-0.934962 2.821812,-1.479178 1.383362,-0.381425 1.347603,-0.395507 -0.819495,-0.320289 -1.843913,0.064 -2.291778,-0.04307 -2.402781,-0.573069 -0.139085,-0.664082 1.993186,-1.774194 4.669111,-2.431045 0.8425,-0.206804 1.015791,-0.354044 0.540142,-0.459054 -0.385086,-0.08501 -1.866132,0.282947 -3.290905,0.817599 -2.840944,1.066083 -3.387389,0.880981 -2.820196,-0.956365 0.448693,-1.453466 1.60079,-2.837324 3.015584,-3.621439 1.361233,-0.7544251 1.7697,-0.567437 1.141645,0.522814 -0.570075,0.989588 -0.579872,2.746832 -0.01534,2.746832 0.237328,0 0.384914,-0.216026 0.3278,-0.480059 -0.168531,-0.779127 0.46296,-2.592312 0.902656,-2.592312 0.223027,0 0.405309,0.594835 0.405309,1.32166 0,0.726822 0.176806,1.423192 0.393194,1.547436 0.229346,0.131683 0.363863,-0.459679 0.322149,-1.417671 -0.03936,-0.903873 0.0658,-2.118707 0.234144,-2.6995757 0.392707,-1.3551032 -0.366187,-1.3905754 -3.231965,-0.1507693 -2.473733,1.070198 -4.545329,2.89948 -5.376382,4.747324 -0.538322,1.196958 -0.53165,1.497654 0.06216,2.742332 1.27121,2.664528 1.719238,3.71447 2.643382,6.198748 0.51074,1.372967 1.270234,3.12755 1.688241,3.898971 0.882528,1.62868 0.801029,1.737277 -2.332539,3.094875 -1.127364,0.488423 -2.920361,1.447753 -3.984445,2.131758 -1.064082,0.684004 -2.071753,1.243651 -2.238881,1.243651 -0.167127,0 -1.574741,0.897753 -3.128618,1.995239 -2.844113,2.00877 -4.554856,3.911309 -5.11156,5.685688 -0.490907,1.564655 -3.444616,7.218886 -3.910974,7.486655 -0.236672,0.135891 -0.692803,0.79664 -1.014079,1.468678 -0.321272,0.672039 -1.266545,1.913181 -2.100814,2.758084 -0.834275,0.8449 -1.836604,2.005536 -2.22758,2.578809 -0.390974,0.573274 -1.44242,1.564264 -2.336573,2.203018 -2.730848,1.950825 -2.740237,1.961762 -2.268754,2.489549 0.237696,0.266079 2.339133,0.792442 4.670727,1.170143 2.33159,0.3777 4.704636,0.859293 5.273036,1.070381 0.568399,0.211086 1.880695,0.428829 2.916277,0.483806 1.035586,0.05497 2.762867,0.377879 3.838309,0.717088 1.07544,0.339212 2.31014,0.616575 2.743497,0.616575 0.433355,0 0.899877,0.168938 1.037492,0.375797 0.717122,1.077986 -2.244806,3.23397 -6.136941,4.466037 -1.054929,0.333943 -1.918347,0.757424 -1.918347,0.941363 0,0.503196 1.238992,1.008237 3.221469,1.313412 l 1.774635,0.27303 -0.850177,1.338912 c -0.856262,1.348269 -1.892556,4.790887 -3.043038,10.109723 -0.648979,3.000329 -1.399702,6.418318 -1.770594,8.064975 -0.132841,0.589756 0.205149,1.811942 0.876013,3.168382 l 1.092389,2.208267 h 4.911327 4.912138 l 0.188926,1.248151 c 1.187655,7.825765 1.314273,10.135825 0.666901,12.195725 -0.589813,1.87676 -0.690761,9.7715 -0.13322,10.42176 0.245846,0.28674 0.684754,1.20625 0.975323,2.04325 0.290569,0.837 1.059124,2.20242 1.707622,3.03411 1.422246,1.82404 1.474594,2.24237 0.248672,1.98025 -1.301767,-0.27835 -21.419398,-0.67168 -38.031092,-0.7441 -11.079273,-0.0483 -13.9516231,0.0403 -13.9516231,0.42981 0,0.26981 0.4185477,0.50239 0.9301075,0.5168 0.5115614,0.0144 7.2548436,0.10586 14.9850786,0.20403 25.174974,0.31971 35.946598,0.51038 36.927396,0.65259 0.918075,0.1331 1.703703,0.85236 1.717311,1.57219 0.0037,0.18844 -2.836742,0.20521 -6.504301,0.0383 -8.147057,-0.37084 -48.8649722,-0.46503 -48.6304508,-0.11251 0.603822,0.90761 4.5138968,1.07097 29.0125948,1.21365 25.031484,0.14579 26.189782,0.18361 26.753531,0.87535 1.296377,1.59071 0.969599,1.67947 -6.515602,1.76497 -15.183233,0.1734 -28.750528,0.11581 -31.520336,-0.13352 -1.591518,-0.14325 -4.846898,-0.3611 -7.234176,-0.4838 -2.387277,-0.12273 -5.456634,-0.39721 -6.820793,-0.60983 -3.3351403,-0.51981 -3.5524417,-0.47768 -1.8505275,0.35854 1.1178765,0.54927 2.7033915,0.76394 6.8207945,0.92336 2.9504,0.11424 7.131475,0.38883 9.291393,0.60982 2.159919,0.22103 8.0196,0.36351 13.021514,0.3173 5.001918,-0.0463 12.861332,-0.0883 17.465369,-0.0937 l 8.370973,-0.009 v -1.39216 c 0,-0.76556 -0.651076,-2.89178 -1.446835,-4.72559 -0.79576,-1.83378 -1.446834,-3.6106 -1.446834,-3.94846 0,-0.33787 -0.438024,-1.14961 -0.97371,-1.80323 -0.535688,-0.65361 -1.099295,-1.55612 -1.252256,-2.00574 -0.267532,-0.78643 -0.155129,-0.81756 2.969568,-0.8191 1.786473,-7.6e-4 4.05253,-0.12784 5.034857,-0.28203 l 1.785936,-0.28054 -0.238987,1.36816 c -0.131423,0.75239 -0.553547,1.98263 -0.937376,2.7341 -0.594216,1.16336 -0.61359,1.46043 -0.13241,2.00048 0.39954,0.44842 0.537483,1.60125 0.471514,3.93423 -0.07209,2.54981 0.103578,3.79968 0.771053,5.49966 0.537196,1.36819 0.761548,2.57607 0.594235,3.19539 -0.240518,0.89029 -0.409541,0.96892 -1.597009,0.73658 -0.730513,-0.14293 -1.504548,-0.41485 -1.720538,-0.60381 -0.653288,-0.57157 -1.412305,-0.38866 -1.899778,0.45756 -0.520174,0.90297 -0.134107,1.58613 0.423073,0.74859 0.303163,-0.45573 0.630665,-0.42658 2.091126,0.18526 1.621852,0.67947 1.807407,0.6851 2.91224,0.096 1.172145,-0.62498 1.186536,-0.61991 2.32931,0.7861 2.690069,3.3097 2.682051,4.1419 -0.03795,3.74595 -2.20088,-0.32037 -6.811994,-2.31262 -7.129213,-3.08062 -0.303655,-0.73517 -0.983398,-0.7819 -0.983398,-0.0675 0,0.64064 -3.92955,0.98057 -11.781371,1.01865 -2.955676,0.0144 -8.550928,0.14738 -12.433735,0.29628 -8.917965,0.34194 -12.162462,0.20059 -12.162462,-0.53107 0,-0.29808 -0.186021,-0.54232 -0.41338,-0.54232 -0.22736,0 -0.413381,0.17282 -0.413381,0.38405 0,0.21122 -0.744087,0.38405 -1.653527,0.38405 -0.909438,0 -1.653525,0.15052 -1.653525,0.33452 0,0.69506 4.735642,0.8553 19.397441,0.6571 23.071756,-0.31191 21.208488,-0.38703 25.454446,1.03061 l 3.720433,1.24215 -7.440867,0.22128 c -14.21914,0.42298 -41.33974,0.10934 -46.505413,-0.53781 -2.614636,-0.32757 -6.012024,-0.71287 -7.549862,-0.8566 -1.5378392,-0.14376 -2.9029526,-0.42206 -3.0333475,-0.61807 -0.1303968,-0.19603 -0.3604322,-2.89786 -0.5110753,-6.00373 -0.2573635,-5.30617 -0.3236062,-5.64669 -1.1004668,-5.64669 -0.7827599,0 -0.8327864,0.29133 -0.9414109,5.47791 -0.1202823,5.74319 0.1592294,7.0036 1.5550252,7.0036 0.4353208,0 1.6031023,0.50852 2.5949371,1.13038 l 1.8036972,1.13114 6.794959,0.0278 c 3.737278,0.0152 19.630451,0.19231 35.318278,0.39455 15.687826,0.20223 29.603745,0.3724 30.924482,0.37804 1.382967,0.006 2.29986,0.16284 2.162179,0.36981 -0.146529,0.22024 0.243222,0.23093 1.006005,0.0277 1.203801,-0.32074 12.628293,-0.17801 26.261037,0.32779 3.63776,0.13497 12.99008,0.24528 20.7829,0.24528 12.26682,0 14.15266,-0.0756 14.05092,-0.56631 -0.079,-0.38107 -0.72551,-0.59842 -1.97405,-0.66234 -1.02108,-0.0523 -4.60666,-0.24727 -7.96809,-0.43355 -3.36142,-0.18627 -6.57142,-0.25654 -7.13326,-0.15676 -0.56182,0.0998 -1.27051,-0.0111 -1.5752,-0.24603 -0.39185,-0.30214 -1.20773,-0.31717 -2.78789,-0.0509 -2.93751,0.49477 -36.327465,0.22392 -42.449924,-0.34431 -2.672609,-0.24803 -4.967816,-0.29184 -5.373959,-0.10279 -0.389906,0.18154 -1.170811,0.22031 -1.73588,0.0864 -0.854538,-0.20272 -1.145271,-0.66014 -1.725379,-2.72133 -0.383593,-1.36295 -0.62181,-2.5487 -0.529646,-2.63431 0.09216,-0.0857 0.764092,0.003 1.493663,0.19801 0.992157,0.26437 1.409123,0.64954 1.654334,1.52869 0.180316,0.64647 0.671616,1.46438 1.091587,1.81746 0.72066,0.60591 0.825778,0.57753 1.866673,-0.5078 0.606587,-0.63249 1.102889,-1.23822 1.102889,-1.34567 0,-0.44279 -1.434392,-0.1505 -2.129076,0.43356 -0.666804,0.56064 -0.773486,0.56426 -0.992275,0.0345 -0.134874,-0.32654 0.05807,-1.13962 0.429527,-1.80697 0.371457,-0.66735 1.15313,-2.54062 1.736685,-4.16301 0.583555,-1.62239 1.699187,-4.13197 2.478678,-5.57617 0.779487,-1.4442 1.358106,-2.9098 1.286164,-3.25689 -0.07195,-0.34709 -0.866422,0.77824 -1.765754,2.5008 -1.30008,2.49016 -1.849909,3.17042 -2.68294,3.31915 -0.576251,0.1029 -1.124859,0.11735 -1.218347,0.0315 -0.397739,-0.36504 2.333024,-5.78263 4.014322,-7.96445 2.241537,-2.90886 3.634197,-5.65693 4.025624,-7.94196 0.425138,-2.4818 1.931972,-5.31056 3.862534,-7.25113 1.334771,-1.3417 1.593035,-1.82245 1.27486,-2.37478 -0.219439,-0.38094 -0.398847,-1.36877 -0.398847,-2.19477 0,-0.82601 -0.385862,-2.52263 -0.857443,-3.76996 -0.471577,-1.24734 -1.035592,-3.196964 -1.25387,-4.333283 -0.218278,-1.13632 -0.5709,-2.36786 -0.783164,-2.736331 -0.212263,-0.368468 -0.277846,-1.514917 -0.146138,-2.548056 0.190507,-1.494388 0.01611,-2.387999 -0.850983,-4.369276 -0.599461,-1.369744 -1.257396,-2.769693 -1.462176,-3.111378 -0.204775,-0.341691 -0.586864,-1.378616 -0.849372,-2.304279 -0.420084,-1.481322 -1.344289,-3.547586 -3.08744,-6.903085 -0.385012,-0.741128 -0.414859,-1.620763 -0.117882,-3.443664 0.421968,-2.5901 -0.164066,-7.534211 -1.048793,-8.850322 -0.34877,-0.51884 -0.267787,-0.995667 0.352023,-2.077 0.442428,-0.771868 0.93728,-1.481528 1.099657,-1.57744 0.162372,-0.09591 0.751974,0.497595 1.310391,1.319411 2.035631,2.995811 4.681606,4.594658 13.482527,8.145232 2.159919,0.871383 4.10352,1.744396 4.31951,1.939734 0.216,0.195338 0.80082,0.354795 1.29909,0.354795 0.63991,0 0.98863,0.305118 1.18686,1.038876 0.15436,0.571356 0.90505,1.565077 1.66886,2.208266 0.76383,0.64319 1.50539,1.552589 1.64786,2.020744 l 0.25918,0.851351 -4.73369,-0.236276 c -4.699905,-0.234 -6.559493,-0.03375 -5.820442,0.625578 0.208531,0.186042 3.913892,0.534358 8.233722,0.77409 4.31982,0.239736 8.50531,0.533387 9.30107,0.65258 1.38039,0.206763 1.40152,0.232662 0.45698,0.565569 -0.5445,0.191912 -1.31687,0.252099 -1.71649,0.134266 -0.39963,-0.11784 -3.76774,-0.376054 -7.48447,-0.573821 -3.71673,-0.197766 -7.269375,-0.470836 -7.894617,-0.606821 -0.929605,-0.20219 -1.136441,-0.116644 -1.13438,0.469553 0.002,0.631298 0.409262,0.73199 3.409607,0.843855 1.87381,0.06986 3.47709,0.192487 3.56298,0.27228 0.17707,0.164511 -0.61204,2.069681 -2.14119,5.169627 -0.57305,1.16174 -1.36019,3.06277 -1.74879,4.22451 -0.388607,1.161742 -0.869577,2.276136 -1.06899,2.4768 -0.199409,0.200665 -0.362511,0.587371 -0.362511,0.858854 0,0.271486 -0.9055,2.439936 -2.012009,4.819333 -2.307614,4.962218 -3.327348,7.561838 -3.766454,9.600418 -0.169783,0.78823 -0.489827,1.65233 -0.711306,1.92023 -0.380223,0.45992 -1.024177,1.9546 -3.064834,7.1116 -0.480606,1.21455 -1.116332,2.72672 -1.412925,3.36042 -0.937521,2.00303 -2.260462,5.36199 -2.26068,5.74118 -4.13e-4,0.88507 0.853355,-0.63244 2.473021,-4.39703 0.954214,-2.21786 1.877533,-4.20531 2.051569,-4.41653 0.174033,-0.21122 0.929892,-2.02584 1.680171,-4.03248 0.750275,-2.00665 2.079189,-5.03042 2.953419,-6.71931 0.874226,-1.68891 1.58974,-3.26346 1.58974,-3.49919 0,-0.23571 0.538417,-1.53248 1.196543,-2.88184 1.763118,-3.614936 5.515816,-12.307916 7.063806,-16.363231 1.19656,-3.134664 1.43712,-3.49758 2.09922,-3.168382 0.41126,0.204477 1.5034,0.372044 2.4278,0.372044 0.9244,0 1.68099,0.178243 1.68099,0.396048 0,0.217808 -0.90811,2.334863 -2.01847,4.704569 -3.439,7.339403 -4.28487,9.411928 -4.01028,9.824686 0.1457,0.219057 -0.11298,0.585345 -0.57406,0.814601 -0.4611,0.229244 -0.83807,0.628327 -0.83807,0.886606 0,0.258283 -0.46504,1.281559 -1.03345,2.273519 -0.56839,0.99198 -1.03344,1.96685 -1.03344,2.16701 0,0.20019 -0.72796,1.8071 -1.618007,3.57045 -0.890058,1.76333 -2.087687,4.2428 -2.661144,5.51017 -0.573459,1.26734 -4.12401,7.99384 -7.88978,14.9478 -6.401914,11.82193 -7.474394,14.06921 -6.428404,13.46863 0.652831,-0.37484 3.271683,-4.31956 4.65942,-7.0186 1.084796,-2.10985 1.375172,-2.40903 2.120197,-2.18577 0.474771,0.14228 3.653421,0.40499 7.063815,0.58357 3.410402,0.17858 7.017593,0.43466 8.015733,0.56932 1.27265,0.1717 1.91237,0.0974 2.14279,-0.24902 0.25004,-0.37588 0.55789,-0.39392 1.28617,-0.0743 1.23084,0.54022 3.76475,1.14259 6.12403,1.45518 1.02312,0.13557 2.79031,0.40252 3.92711,0.59331 1.13681,0.1908 3.55508,0.53564 5.37397,0.7666 8.10077,1.02866 10.54122,1.56991 10.54122,2.33804 0,0.50139 -0.2897,0.72606 -0.9301,0.72082 -1.13396,-0.009 -5.89788,-0.60398 -8.99106,-1.12213 -1.25047,-0.20947 -4.04079,-0.65104 -6.2007,-0.98112 -2.15994,-0.33007 -4.81295,-0.78509 -5.89554,-1.01187 -2.2152,-0.46401 -3.93291,-0.17294 -2.71848,0.46056 0.37778,0.19705 3.44713,0.77615 6.8208,1.28716 5.47684,0.82957 8.52657,1.22639 15.11508,1.96749 2.19553,0.24696 2.58826,0.55214 1.85696,1.44467 -0.45472,0.55499 -0.82402,0.56145 -3.81085,0.0644 -9.36385,-1.55793 -24.08336,-2.8249 -34.887935,-3.00262 -6.477063,-0.1065 -7.883221,-0.0394 -7.314107,0.34729 0.487778,0.33137 2.793267,0.49195 7.494155,0.52283 3.734478,0.0246 7.270327,0.21417 7.857477,0.42156 0.58714,0.20738 2.8339,0.37728 4.99205,0.37728 2.15818,0 5.16835,0.16389 6.69001,0.36455 1.52164,0.20067 6.16179,0.74899 10.31112,1.21815 4.14932,0.46914 7.53853,0.95335 7.5313,1.07562 -0.007,0.12229 -0.27804,0.54674 -0.6015,0.94361 -0.57433,0.70468 -0.73001,0.70164 -6.61734,-0.14477 -3.31585,-0.4767 -6.13153,-0.77161 -6.25724,-0.65482 -0.1257,0.11679 0.67222,0.32689 1.77302,0.46655 1.10079,0.13969 3.31581,0.58438 4.92182,0.98863 1.60602,0.40424 3.40227,0.73509 3.99172,0.73509 0.87087,0 1.03039,0.14532 0.85341,0.77409 -0.39154,1.39099 0.82199,0.46017 2.77579,-2.12951 1.17596,-1.55869 2.0883,-2.40957 2.48029,-2.31252 0.34104,0.0846 3.36388,0.27128 6.71744,0.4148 5.29337,0.22653 6.09738,0.1838 6.09738,-0.32105 0,-0.65966 -4.62249,-1.15854 -10.64458,-1.14914 -2.49005,0.004 -3.41039,-0.12655 -3.41039,-0.4838 0,-0.26912 0.22374,-0.55884 0.49735,-0.64359 0.38732,-0.11993 0.38933,-1.33066 0.007,-5.46665 -0.26993,-2.92177 -0.58244,-5.39719 -0.69435,-5.50117 -0.4723,-0.43877 -1.43506,0.78979 -1.09806,1.40117 0.19154,0.34747 0.45777,2.14834 0.59183,4.00174 0.21649,2.99343 0.17466,3.30516 -0.37545,2.79408 -0.82884,-0.77003 -2.69863,-1.20531 -9.07339,-2.11225 -2.94636,-0.41918 -7.68228,-1.09984 -10.52428,-1.51293 -3.31496,-0.48186 -8.69232,-0.84995 -15.000423,-1.02688 -5.408076,-0.15166 -9.779584,-0.38136 -9.714458,-0.51006 0.285228,-0.5637 4.580922,-7.64048 5.270613,-8.68304 1.166734,-1.76369 3.735769,-6.58837 3.735769,-7.01561 0,-0.2087 0.258117,-0.57849 0.574061,-0.8221 0.315932,-0.2436 0.997799,-1.51793 1.514659,-2.83158 0.516839,-1.31366 1.074769,-2.56111 1.240139,-2.77234 0.16537,-0.21122 0.98601,-1.93943 1.82389,-3.84046 0.83786,-1.90105 1.84876,-3.976294 2.24614,-4.611568 0.39738,-0.635277 1.21372,-2.477042 1.81419,-4.092494 0.60048,-1.615454 1.81414,-4.379194 2.69667,-6.141744 0.88255,-1.762555 1.93651,-4.046881 2.34222,-5.076614 l 0.73796,-1.872226 2.86944,0.190523 c 2.74683,0.182587 2.88722,0.150814 3.25376,-0.74484 0.57654,-1.408766 0.47914,-1.65395 -0.65558,-1.65395 -0.9878,0 -1.02544,-0.07945 -0.77187,-1.632197 0.14659,-0.897708 0.5208,-1.904796 0.83161,-2.238268 0.92897,-0.996727 0.68024,-2.841291 -0.56033,-4.154753 -0.61903,-0.655397 -1.36685,-1.191896 -1.6616,-1.191896 -0.36519,0 -0.45289,-0.305817 -0.27612,-0.960116 0.28337,-1.0489 -0.51,-1.379624 -0.92121,-0.384046 -0.26309,0.636903 -0.90174,0.730311 -1.7157,0.250529 -0.39737,-0.234214 -0.4265,-0.574195 -0.11384,-1.338161 0.499,-1.219353 1.20295,-1.292093 2.60461,-0.267784 1.03088,0.753339 1.03918,0.753339 1.77302,0 0.40558,-0.416363 0.92097,-0.75684 1.14487,-0.75684 0.66623,0 1.5046,-1.273897 1.51871,-2.30803 0.007,-0.530222 -0.4599,-1.437532 -1.03751,-2.016244 -0.82704,-0.828622 -1.41994,-1.051007 -2.79032,-1.046377 -2.75279,0.0092 -3.33261,0.6969 -3.80037,4.507296 -0.1621,1.32054 -0.46285,2.497485 -0.6685,2.615567 -0.66364,0.381036 -4.09183,-0.279405 -4.09183,-0.788343 0,-0.524181 -6.59515,-5.621749 -9.307549,-7.194123 -0.912778,-0.529135 -1.927479,-1.263125 -2.255841,-1.630695 -0.32828,-0.367572 -1.013998,-0.815423 -1.523448,-0.995372 -0.608071,-0.214779 -1.079338,-0.855097 -1.371751,-1.863972 -0.244991,-0.845256 -0.602343,-1.626614 -0.793659,-1.736463 -0.191318,-0.109852 -0.470027,-0.912705 -0.620072,-1.784465 -0.150051,-0.871754 -0.547136,-2.076811 -0.881669,-2.677825 -0.334538,-0.601013 -0.60796,-1.697949 -0.60796,-2.437791 0,-0.73984 -0.213149,-1.780786 -0.473933,-2.312532 -0.371173,-0.756825 -0.352818,-1.101997 0.08396,-1.590943 0.473236,-0.52975 0.457737,-0.676828 -0.10011,-0.966863 -0.361767,-0.188088 -0.784437,-0.810342 -0.938987,-1.382418 -0.154552,-0.572086 -0.826271,-1.616958 -1.492859,-2.322281 -0.666585,-0.705325 -1.211884,-1.431934 -1.211884,-1.614948 0,-0.388896 -1.803543,-1.458069 -6.820793,-4.042986 -3.597973,-1.853699 -4.186485,-2.933242 -1.175555,-2.156513 2.69187,0.694423 4.780244,0.514647 5.816406,-0.501059 0.897401,-0.879685 0.901147,-0.918732 0.145328,-1.554188 -1.625632,-1.366794 -2.146248,-8.262427 -0.79285,-10.504269 0.673825,-1.116161 0.69666,-1.401329 0.197807,-2.496302 -0.30975,-0.679905 -0.96074,-1.565106 -1.446834,-1.967488 -0.486099,-0.402383 -0.884087,-0.963124 -0.884087,-1.2459 0,-0.599133 -3.158565,-2.8233425 -4.009477,-2.8233425 -0.318217,0 -1.132377,-0.2654736 -1.808543,-0.5903215 C 74.139787,8.6513271 71.537719,8.3101532 69.835697,8.3173443 Z M 78.31911,20.045477 c 1.532848,0 2.142105,1.252601 2.403588,4.939347 l 0.248676,3.509675 -1.190895,-0.03151 c -1.342811,-0.03532 -3.877874,-0.96542 -3.877874,-1.422922 0,-0.165135 0.372044,-1.283851 0.826764,-2.485801 0.45472,-1.20195 0.826764,-2.70795 0.826764,-3.346904 0,-0.873173 0.189728,-1.161891 0.762977,-1.161891 z m -2.363213,1.15214 c 0.557075,0 0.425268,2.183635 -0.217999,3.613936 -0.639538,1.422013 -1.028485,1.743409 -1.798854,1.48668 -0.772291,-0.257369 -0.623888,-0.760628 0.28985,-0.982618 0.614595,-0.149315 0.87341,-0.663194 1.086744,-2.157261 0.154008,-1.078584 0.442189,-1.960737 0.640259,-1.960737 z m -10.454841,1.209147 c -0.203247,-0.02139 -0.463219,0.0454 -0.825956,0.195772 l -0.955134,0.396048 1.233682,0.620325 c 1.617026,0.812798 3.869672,0.839511 4.195984,0.0495 0.424262,-1.027157 -0.522358,-1.530988 -1.739914,-0.925611 -0.910862,0.452875 -1.121471,0.452916 -1.424227,-0.0022 -0.134867,-0.202732 -0.281183,-0.312404 -0.484435,-0.333788 z m 2.804049,2.459546 c -0.329203,-3.38e-4 -0.722908,0.0268 -1.186855,0.0795 -1.213492,0.137861 -1.550179,0.343923 -1.550179,0.947364 0,0.612001 0.191685,0.723162 0.930107,0.539315 0.511559,-0.127364 1.441668,-0.234149 2.066908,-0.237028 0.693393,-0.0031 1.136798,-0.213753 1.136798,-0.540066 0,-0.540197 -0.40916,-0.788081 -1.396779,-0.789095 z m -0.670128,2.092003 c -0.227359,0 -0.413382,0.172821 -0.413382,0.384047 0,0.211225 0.186023,0.384046 0.413382,0.384046 0.22736,0 0.413383,-0.172821 0.413383,-0.384046 0,-0.211226 -0.186023,-0.384047 -0.413383,-0.384047 z m -4.374414,3.194635 c 0.117988,-0.04382 0.299177,-0.01332 0.550636,0.08852 0.397878,0.161117 2.769655,0.351094 5.270615,0.422301 4.822018,0.137289 5.580648,0.258548 5.580648,0.891106 0,0.521794 -8.431552,0.453833 -10.231191,-0.08251 -0.738919,-0.220219 -1.343489,-0.653486 -1.343489,-0.962365 0,-0.195213 0.0548,-0.313225 0.172781,-0.357045 z m -1.33784,1.381667 c 0.350763,0.02991 0.689228,0.145363 1.111769,0.309789 0.96664,0.376152 3.338152,0.641179 6.667392,0.74484 5.790003,0.180283 7.854249,0.404638 7.854249,0.853602 0,0.16775 0.450737,0.495349 1.001158,0.728339 1.080477,0.457365 2.659681,1.667168 5.440163,4.165254 1.79727,1.614735 3.066452,4.397077 3.066452,6.72306 0,1.836645 2.326308,9.028739 3.2578,10.071469 0.488948,0.547338 0.324716,0.71337 -1.385473,1.394418 -1.067445,0.425089 -2.102432,0.772593 -2.300243,0.772593 -0.662547,0 -2.465755,0.887467 -2.465755,1.213648 0,0.561638 1.069332,0.355125 4.11363,-0.795847 1.627423,-0.615288 2.887964,-0.917725 2.801629,-0.672081 -0.08633,0.245643 -1.259228,0.825204 -2.606242,1.287908 -1.347014,0.4627 -3.057112,0.851545 -3.800365,0.864104 -1.27371,0.0215 -1.334514,-0.03817 -1.05606,-1.033627 0.540972,-1.933912 0.378112,-11.690641 -0.227682,-13.62765 -0.503378,-1.609525 -0.491528,-1.927373 0.103346,-2.770832 0.922592,-1.308136 0.841984,-2.233152 -0.278549,-3.211138 -1.158758,-1.011345 -3.809426,-1.624449 -3.518586,-0.813849 0.104152,0.290268 0.547957,0.61915 0.985818,0.730589 1.731053,0.440563 2.367251,1.035508 2.112929,1.976488 -0.13594,0.502963 -0.507023,1.24415 -0.82434,1.647198 -0.567679,0.72106 -0.594623,0.72106 -1.654335,0 -0.592347,-0.403048 -1.037853,-0.924917 -0.990661,-1.159638 0.166267,-0.82701 -5.059127,-6.973551 -6.143398,-7.226373 -1.494457,-0.348467 -1.827511,-0.0086 -1.387895,1.415421 0.504445,1.634076 0.486302,1.82122 -0.177625,1.82122 -0.394883,0 -0.643722,0.823467 -0.839681,2.784336 -0.369788,3.700245 -0.93969,5.544977 -2.181555,7.057602 -1.48343,1.806866 -4.634891,3.554914 -6.936252,3.847965 l -1.97648,0.252029 0.289045,-1.222645 0.289044,-1.222646 -1.129531,0.972117 c -0.621289,0.534927 -1.335515,0.992004 -1.586512,1.015622 -0.251003,0.02362 -1.071693,0.108586 -1.823884,0.189024 l -1.367715,0.146268 1.07463,-1.82122 c 1.229743,-2.083979 4.031473,-4.125577 5.505562,-4.012239 1.188616,0.09138 3.99618,-1.856133 4.790219,-3.3229 0.756612,-1.397626 1.11487,-3.833029 0.676591,-4.601807 -0.199813,-0.350489 -0.491581,-0.983218 -0.648332,-1.40567 -0.464141,-1.250908 -0.663431,-0.04376 -0.264818,1.604445 0.583544,2.41287 -0.546665,4.699337 -2.854112,5.772696 -1.856619,0.863648 -3.552658,1.093937 -4.312246,0.585824 -1.259098,-0.84226 -2.209654,-5.253253 -1.437145,-6.670557 0.272207,-0.499417 1.081253,-1.385472 1.797238,-1.968239 0.90643,-0.737774 1.050415,-0.97972 0.474743,-0.798097 -1.624626,0.512569 -2.891454,1.752763 -3.399095,3.328904 -0.743626,2.30884 -0.665143,2.93942 0.662059,5.350396 l 1.189278,2.161759 -2.64903,2.584814 c -2.492602,2.432522 -3.502255,3.71208 -4.097482,5.192879 -0.263403,0.65528 -1.872817,1.097384 -3.995753,1.097384 -0.677681,0 -2.349495,0.269145 -3.714784,0.597819 -1.365286,0.328678 -2.587251,0.4992 -2.716044,0.379546 -0.128793,-0.119653 0.234532,-0.690489 0.808195,-1.269155 2.254425,-2.274106 4.446703,-5.628999 6.346049,-9.711422 2.202538,-4.734082 3.785387,-6.52294 8.213534,-9.283871 3.8972,-2.429886 5.062852,-3.109595 6.115138,-3.019866 z m 11.062799,3.104627 c 0.760927,0 1.393464,0.833631 1.456524,1.920231 0.01839,0.316839 0.320342,0.532437 0.670935,0.479308 0.732934,-0.111067 3.322691,4.721613 4.120091,7.68843 0.270629,1.006912 0.64227,1.916775 0.825956,2.022243 0.749263,0.430209 0.726399,-0.584772 -0.05571,-2.497052 -0.456063,-1.115085 -0.774676,-2.076135 -0.708078,-2.135509 0.0666,-0.05937 0.835526,0.657292 1.708428,1.592445 1.229289,1.316953 1.652584,2.152691 1.87879,3.707696 0.349018,2.399239 -0.242815,10.687662 -0.800121,11.205606 -0.215914,0.200663 -0.392389,0.644958 -0.392389,0.987119 0,0.766277 -2.153259,3.064871 -2.871063,3.064871 -0.287941,0 -1.084796,0.439122 -1.771405,0.97587 -0.686612,0.536742 -1.331866,0.898907 -1.433111,0.804847 -0.101242,-0.09405 0.192809,-1.354084 0.653177,-2.800091 1.289989,-4.051809 1.746886,-7.523654 1.471058,-11.187602 -0.236638,-3.14334 -1.826199,-9.936972 -2.779829,-11.881436 -0.501889,-1.023363 -1.279576,-1.187155 -0.9616,-0.202524 1.797127,5.564768 1.991049,6.887197 1.960335,13.345612 -0.03043,6.388255 -0.06127,6.611455 -1.44199,10.369254 l -1.41131,3.840465 -3.044653,0.08249 C 65.69999,66.139482 62.313448,64.856613 59.78073,62.127794 58.757613,61.025458 57.433891,59.915479 56.839427,59.661499 55.592124,59.128592 51.95461,56.950046 51.224864,56.298842 c -0.56759,-0.506504 -3.40709,-0.0064 -10.303856,1.814469 -6.062635,1.600747 -6.989702,1.461166 -3.049493,-0.459807 1.023118,-0.498803 2.139249,-1.104352 2.480288,-1.345659 0.708494,-0.501366 6.139851,-1.330012 8.192543,-1.249653 1.167028,0.04569 1.650564,-0.241707 3.235998,-1.925482 1.0251,-1.088688 1.989118,-1.978757 2.141995,-1.97799 0.152893,7.68e-4 0.285191,0.657407 0.294698,1.459676 0.01786,1.50792 0.944487,3.693813 2.359988,5.569422 0.447552,0.593029 0.897211,1.001183 0.999545,0.906112 0.254944,-0.236852 -1.069187,-4.491788 -1.693088,-5.440409 -1.227627,-1.86657 -1.140234,-2.010718 1.227226,-2.030496 2.38954,-0.01992 3.031467,0.559513 2.463333,2.222519 -0.144325,0.42245 -0.08202,0.768094 0.13806,0.768094 0.220096,0 0.560056,-0.628811 0.755715,-1.397419 0.329631,-1.294908 0.520175,-1.436871 2.597359,-1.930737 3.27112,-0.777734 5.361866,-2.005509 6.85228,-4.024983 1.108441,-1.501909 1.383651,-2.341519 1.739112,-5.299391 0.306895,-2.553731 0.617234,-3.646473 1.133568,-3.997233 0.65456,-0.444662 0.660392,-0.595414 0.07267,-1.902231 -0.601177,-1.336715 -0.594683,-1.418421 0.122724,-1.418421 z m -11.377679,2.467797 c -0.08457,0.0024 -0.1709,0.02647 -0.256747,0.07575 -0.254379,0.146058 -0.237153,0.385001 0.04683,0.648828 0.541041,0.502647 0.599369,1.800217 0.08073,1.800217 -0.203036,0 -0.476281,-0.25923 -0.607153,-0.576069 -0.281078,-0.680504 -1.090778,-0.77398 -1.090778,-0.126016 0,0.2474 0.314492,0.772295 0.698388,1.166392 1.02693,1.054218 1.96599,0.708 2.120196,-0.780845 0.120736,-1.165658 -0.399458,-2.225569 -0.991471,-2.208267 z m 19.238384,2.621566 c -0.140016,-0.0019 -0.279553,0.0282 -0.402882,0.09902 -0.231068,0.132673 -0.31328,0.401938 -0.182471,0.598571 0.310314,0.46646 1.429073,0.46391 1.429073,-0.0038 0,-0.388947 -0.423658,-0.687907 -0.84372,-0.693833 z M 60.927219,45.4563 c -0.05551,-0.02819 -0.154352,0.08255 -0.319727,0.320287 -0.220398,0.316838 -0.390339,1.008121 -0.377855,1.536186 0.02078,0.879305 0.05249,0.895465 0.377855,0.192022 0.195402,-0.422449 0.365372,-1.113733 0.377856,-1.536185 0.0094,-0.316979 -0.0023,-0.484117 -0.05813,-0.51231 z m -2.843615,2.395789 c -0.53486,0.109714 -1.196543,0.617059 -1.196543,1.044127 0,0.476667 0.498198,0.39851 1.368519,-0.214528 0.496669,-0.349844 0.594334,-0.615193 0.291462,-0.789094 -0.120789,-0.06935 -0.285149,-0.07708 -0.463438,-0.04049 z m 1.187667,7.743185 c -0.05255,-0.02624 -0.128002,-0.02029 -0.22526,0.0195 -0.129687,0.05303 -0.298909,0.165407 -0.505424,0.33904 -0.454722,0.382316 -0.826765,0.840887 -0.826765,1.019375 0,0.575341 1.143186,0.344859 1.402431,-0.282785 0.266225,-0.64454 0.312677,-1.016394 0.155018,-1.095131 z m -9.160599,1.766466 c 0.727196,0.03372 1.147662,0.227047 1.450063,0.565565 0.309119,0.34603 1.61602,1.083982 2.904166,1.64045 l 2.342228,1.011872 -1.09724,1.497181 c -1.274011,1.738777 -1.562693,1.852604 -2.956644,1.167893 -0.968066,-0.475537 -6.972786,-1.863843 -12.608133,-2.914856 l -2.48029,-0.462053 5.373961,-1.275157 c 3.794992,-0.900056 5.859895,-1.287105 7.071889,-1.230895 z m 40.963516,1.530182 c 0.678083,-0.04911 0.939843,0.131394 1.099661,0.518313 0.13087,0.316839 0.57978,0.576069 0.997123,0.576069 0.417344,0 1.638896,0.518463 2.714431,1.152141 1.075524,0.633677 2.111842,1.152138 2.303471,1.152138 0.19163,0 0.586617,0.266817 0.877628,0.592573 0.291015,0.325759 1.785898,1.375558 3.321588,2.332783 4.21124,2.62493 4.3368,2.81226 2.87833,4.295766 -0.66393,0.675326 -1.45016,1.214853 -1.74718,1.198646 -0.29701,-0.0162 -1.45472,-0.546543 -2.57234,-1.178393 -1.117617,-0.631847 -2.884819,-1.41504 -3.927126,-1.740209 -4.152762,-1.295554 -8.684588,-3.566885 -10.641337,-5.333146 l -2.001511,-1.806216 3.100361,-0.901611 c 1.824546,-0.530651 2.91882,-0.809739 3.596901,-0.858854 z m -33.86498,3.560683 c 0.209481,0.02362 0.504487,0.221222 1.038299,0.611321 2.076729,1.517632 0.611303,3.47014 -4.348584,5.794449 -2.998087,1.404965 -5.767687,1.932933 -6.259657,1.193394 -0.111058,-0.16694 0.678765,-0.593659 1.755254,-0.948863 1.076492,-0.355205 2.440192,-1.126416 3.030121,-1.713208 3.252175,-3.23487 3.87936,-3.897645 4.25815,-4.502041 0.193107,-0.308129 0.316933,-0.458687 0.526417,-0.435052 z m 58.118852,0.618072 c 1.43956,0.02002 2.27161,0.847819 2.03058,2.019243 -0.22161,1.076906 -0.66707,1.196912 -2.59575,0.698335 -1.85436,-0.47936 -1.38327,-2.744615 0.56517,-2.717578 z m -54.641442,1.271405 c 0.123163,-0.03372 0.232495,0.0983 0.399652,0.375793 0.208614,0.346311 1.961992,1.087854 3.895638,1.647952 2.867242,0.830649 4.045856,0.983254 6.391266,0.827347 2.125074,-0.141248 2.875906,-0.06728 2.875906,0.285035 0,0.262231 -0.581318,0.585071 -1.291816,0.717087 -2.199592,0.4087 -4.480348,0.166243 -9.24941,-0.984119 -1.818879,-0.438734 -3.463454,-0.929353 -3.655036,-1.08988 -0.191582,-0.160524 -0.123283,-0.683737 0.152597,-1.16264 0.221063,-0.383746 0.358038,-0.582866 0.481203,-0.616575 z m 18.833076,0.111762 c 0.380448,-0.02799 0.755309,0.234699 0.83322,0.58357 0.09978,0.446741 -0.529175,0.929388 -2.128266,1.632198 -2.604121,1.144522 -3.148804,1.220298 -3.148804,0.438054 0,-0.600261 3.297399,-2.569486 4.44385,-2.653822 z M 59.411753,66.89164 c 0.479597,-6.3e-5 1.467116,0.2283 2.64742,0.626325 2.919218,0.984427 9.506557,1.843834 11.16695,1.456677 0.770729,-0.179714 1.022957,-0.08662 1.022957,0.378793 0,0.518939 -0.512249,0.609509 -3.203705,0.565569 -4.003915,-0.06537 -4.51556,-0.146344 -8.577665,-1.364413 -3.747539,-1.123743 -3.681666,-1.092672 -3.354687,-1.584191 0.03523,-0.05295 0.138867,-0.07875 0.29873,-0.07877 z m 21.133321,0.075 c 0.35943,-0.0063 0.31811,0.224657 0.31811,0.685586 0,0.56484 -0.491078,0.89149 -1.963561,1.306655 -1.079962,0.304496 -2.264886,0.66676 -2.632885,0.804847 -0.45468,0.170612 -0.736414,0.01071 -0.880053,-0.49956 -0.178695,-0.634845 0.197275,-0.875699 2.434268,-1.557938 1.604316,-0.489284 2.364691,-0.733236 2.724121,-0.73959 z m -22.568849,1.6322 c 0.526784,-0.0015 1.017022,0.143154 1.855372,0.433553 4.10117,1.420602 6.132203,1.787931 10.281247,1.858723 3.865345,0.06595 4.354716,0.151933 4.486644,0.788346 0.135486,0.65361 -0.06507,0.693512 -2.355952,0.471056 -1.577494,-0.15318 -2.601699,-0.09495 -2.770139,0.158271 -0.409906,0.616171 -0.04913,0.763924 2.458487,1.004368 1.560919,0.149671 2.317196,0.392983 2.317196,0.74484 0,1.152134 -9.93607,0.488509 -14.73721,-0.98412 -1.170819,-0.359122 -2.797104,-0.580647 -3.613858,-0.492055 -1.612403,0.174863 -1.647548,0.846101 -0.04442,0.846101 0.541563,0 1.103799,0.178495 1.249025,0.396797 0.14522,0.218303 0.536821,3.458694 0.870362,7.20087 0.333544,3.742179 0.639554,7.131727 0.679818,7.53241 0.08829,0.878489 2.087515,2.8137 3.093098,2.993614 0.73517,0.131533 0.647544,0.865703 -0.104968,0.879104 -0.227359,0.004 -0.487327,0.180323 -0.577279,0.391548 -0.126089,0.296084 2.821738,1.073095 3.124583,0.823601 0.218872,-0.180315 1.256455,-13.802135 1.371747,-18.009678 0.0043,-0.158419 1.945989,-0.288035 4.314668,-0.288035 2.368683,0 4.600945,-0.105064 4.960578,-0.233276 0.490163,-0.174746 0.653982,-0.779977 0.653982,-2.416794 v -2.183512 l 1.963563,-0.506312 c 1.079957,-0.278495 2.289098,-0.593802 2.686977,-0.700585 0.513842,-0.137908 0.723419,0.02388 0.723419,0.558069 0,0.5861 -0.549996,0.907072 -2.493207,1.453676 -1.371431,0.385768 -2.341065,0.843429 -2.154106,1.01712 0.186961,0.173693 0.982277,0.144674 1.767368,-0.06452 2.029095,-0.540641 2.466563,-0.478456 2.466563,0.350293 0,0.734132 -1.784112,1.573692 -3.34419,1.573692 -0.40737,0 -0.867546,0.1899 -1.02215,0.422303 -0.195676,0.29414 0.442576,0.381671 2.100009,0.288032 1.799376,-0.101657 2.464944,0.0064 2.723312,0.441804 0.551517,0.929289 1.899406,3.951596 2.226771,4.992604 0.166058,0.528062 0.529855,1.478578 0.808192,2.112256 0.635778,1.447429 1.305211,3.226605 2.276017,6.04873 0.826754,2.403359 0.559558,2.724587 -1.213498,1.458928 -0.806251,-0.57553 -1.152036,-0.635716 -1.613158,-0.279787 -0.364662,0.281476 -2.681863,0.504038 -6.119981,0.587322 l -5.533821,0.133518 0.243828,-4.166005 c 0.336543,-5.756886 0.532899,-6.774329 1.259524,-6.515286 0.697681,0.248728 1.835187,-0.09068 1.835187,-0.547568 0,-0.174597 -0.488012,-0.371966 -1.084322,-0.438801 l -1.084315,-0.121516 0.819496,-0.934611 0.818691,-0.934615 1.140832,0.833349 c 0.948243,0.692959 1.027383,0.873712 0.471515,1.071881 -1.159522,0.413375 -0.726732,0.924112 0.783163,0.924112 1.355924,0 1.51668,0.134546 2.421349,2.034996 0.53284,1.119346 1.209633,2.717938 1.504159,3.552431 0.565279,1.601626 1.653489,3.370939 1.920773,3.122626 0.435473,-0.404573 -2.756159,-7.653108 -4.141888,-9.406886 -2.350776,-2.975146 -4.783282,-3.182789 -6.485731,-0.553567 -0.817043,1.261825 -0.958942,2.112729 -1.131149,6.786821 -0.162898,4.421296 -0.09117,5.416234 0.414193,5.760696 0.8875,0.604935 11.56711,0.196867 11.799134,-0.450805 0.124993,-0.348903 0.506739,-0.261682 1.377397,0.314288 1.445093,0.955973 1.527276,1.356303 0.274512,1.335909 -0.51156,-0.0083 -0.930109,0.157821 -0.930109,0.369046 0,0.211226 0.543307,0.39296 1.207852,0.404296 0.834181,0.01425 1.334652,0.282954 1.615576,0.867859 0.519684,1.082008 0.05575,1.520546 -0.97613,0.92186 -0.933456,-0.541586 -1.366249,-0.600874 -1.063328,-0.145519 0.331052,0.497643 -9.973302,1.217416 -17.422573,1.216648 -4.203109,-3.46e-4 -6.717449,0.142998 -6.717449,0.383297 0,0.211226 0.790593,0.393674 1.756872,0.405799 2.180228,0.02735 5.366828,0.324169 5.57661,0.519062 0.08618,0.08006 0.192578,1.80511 0.235761,3.833728 0.07038,3.30622 0.157273,3.68893 0.842908,3.68971 0.693168,7.5e-4 0.756489,-0.31429 0.671746,-3.35966 -0.122784,-4.412373 -0.144601,-4.320546 1.010845,-4.320546 0.7913,0 1.062552,0.259141 1.294238,1.239149 0.184527,0.780517 1.194236,2.071667 2.728159,3.487927 3.925303,3.6242 4.457807,5.63698 2.406818,9.09862 -0.688326,1.16172 -1.908516,3.40841 -2.711204,4.9926 -1.414766,2.79219 -1.446181,2.95188 -1.022146,5.21613 0.563674,3.00988 0.552975,4.49806 -0.04198,5.71118 -0.403617,0.823 -0.756158,0.97813 -2.221924,0.97813 -1.620546,0 -1.760378,-0.0839 -2.000699,-1.20014 -0.421105,-1.95611 -0.286528,-4.26261 0.347983,-5.95423 0.463707,-1.23625 0.49581,-1.91282 0.145329,-3.07236 -0.562767,-1.86192 -0.662299,-7.36422 -0.18166,-10.03172 0.34022,-1.88819 0.309415,-2.01625 -0.486857,-2.01625 -0.729311,0 -0.887405,0.31417 -1.110963,2.20827 -0.143352,1.21454 -0.492184,2.81314 -0.775089,3.55243 -0.441559,1.1539 -0.401785,1.6361 0.279353,3.40616 0.964627,2.50674 0.894426,2.56638 -3.391824,2.91185 -1.730174,0.13946 -3.7118,0.34322 -4.403482,0.45231 l -1.257099,0.19803 0.07025,-4.76607 c 0.03865,-2.62128 0.275776,-5.12319 0.527223,-5.55969 0.313393,-0.54401 0.337089,-1.43922 0.07589,-2.84659 -0.209573,-1.12921 -0.498534,-3.17634 -0.64268,-4.54931 -0.144143,-1.372974 -0.354024,-2.798747 -0.466668,-3.168392 -0.149535,-0.490726 0.03469,-0.672082 0.683854,-0.672082 0.527296,0 0.819661,-0.19534 0.717766,-0.480056 -0.123398,-0.344813 -1.671041,-0.504341 -5.49345,-0.56557 -2.926907,-0.04688 -5.56251,-0.171125 -5.856777,-0.276034 -0.927379,-0.330615 -0.580857,-0.982618 0.522379,-0.982618 0.611287,0 0.948544,-0.164506 0.798504,-0.390044 -0.142808,-0.214671 -0.432641,-0.29105 -0.644292,-0.169522 -0.211649,0.121525 -0.385123,0.03767 -0.385123,-0.186024 0,-0.223692 0.289834,-0.406548 0.644292,-0.406548 0.354467,0 0.529679,-0.172821 0.389161,-0.384047 -0.140516,-0.211226 -0.802394,-0.384045 -1.471055,-0.384045 -0.66866,0 -1.215923,-0.172822 -1.215923,-0.384049 0,-0.238987 2.615327,-0.400801 6.924139,-0.428298 4.817936,-0.03073 6.421164,-0.140451 5.270613,-0.361546 -0.909439,-0.174761 -4.025302,-0.327619 -6.92414,-0.339792 -2.898838,-0.01217 -5.270612,-0.165332 -5.270612,-0.339789 0,-2.941151 2.944702,-15.730545 4.221014,-18.332967 0.467603,-0.953448 0.621182,-1.000404 2.582016,-0.780095 1.914139,0.215066 2.018868,0.186875 1.282126,-0.345042 -0.441333,-0.318636 -0.989775,-0.57907 -1.219146,-0.57907 -0.880166,0 0.434186,-0.693848 2.485938,-1.311909 0.981632,-0.295702 1.544963,-0.443267 2.071751,-0.444802 z m 49.634035,0.564814 2.85168,0.486062 c 3.31167,0.564713 4.9441,1.698189 4.48422,3.112877 -0.47728,1.468206 -0.9193,1.576906 -1.93692,0.477807 -0.73973,-0.798962 -1.40566,-1.080196 -2.72087,-1.14914 -0.95782,-0.0502 -2.07853,-0.374971 -2.4908,-0.721588 -0.76002,-0.638996 -1.71811,-0.84504 -1.71811,-0.369795 0,0.14304 0.58268,0.712161 1.29504,1.264654 1.01077,0.78393 1.232,1.190475 1.006,1.851975 -0.15927,0.466213 -0.44962,0.847602 -0.64509,0.847602 -0.36778,0 -2.8961,-2.692641 -2.8961,-3.084374 0,-0.121661 0.62349,-0.782544 1.38547,-1.468677 z m -51.574183,2.344039 c -0.240779,0 -0.322987,0.172822 -0.18247,0.384046 0.140515,0.211226 0.337339,0.384047 0.437601,0.384047 0.100261,0 0.18247,-0.172821 0.18247,-0.384047 0,-0.211224 -0.196823,-0.384046 -0.437601,-0.384046 z m 60.008143,0.568569 c 0.40241,-0.02458 0.80003,0.564402 0.70242,1.49643 -0.0974,0.930497 -0.34729,1.228434 -1.11419,1.329162 -0.7823,0.102743 -0.93287,-0.005 -0.72181,-0.516062 0.14665,-0.355052 0.3759,-1.049308 0.50947,-1.543688 0.13907,-0.51482 0.38266,-0.751107 0.62411,-0.765842 z m -63.6107,0.366796 c -0.11681,0.03068 -0.224905,0.103424 -0.296308,0.210776 -0.142806,0.214667 0.03067,0.390046 0.385123,0.390046 0.726116,0 0.832545,-0.230351 0.259169,-0.559567 -0.105826,-0.06076 -0.231171,-0.07195 -0.347984,-0.04126 z m 58.07687,0.627823 c 0.27502,0.05162 0.58586,0.248627 0.95836,0.561818 0.83562,0.702553 1.09142,1.936765 0.4481,2.163263 -0.19997,0.0704 -0.71153,0.733138 -1.1368,1.472427 -0.59892,1.041185 -0.99125,1.315142 -1.73992,1.216648 -0.81992,-0.107871 -0.92645,-0.282604 -0.7008,-1.15214 0.84654,-3.26209 1.34597,-4.416859 2.17106,-4.262016 z m -52.337165,0.504814 c 0.08965,-0.10081 0.335692,0.01871 0.822725,0.264032 0.545176,0.274613 1.921579,0.695933 3.058379,0.936862 l 2.066906,0.43805 -0.206691,3.619189 c -0.113679,1.990505 -0.196621,5.822654 -0.184083,8.515781 0.01253,2.693125 -0.09559,4.896592 -0.2406,4.896592 -0.145002,0 -0.861321,-0.691285 -1.592168,-1.536187 -0.730845,-0.844903 -1.599323,-1.536186 -1.929652,-1.536186 -0.468693,0 -0.603544,-0.611474 -0.614417,-2.784336 -0.01542,-3.085373 -0.617947,-9.751278 -1.062523,-11.757669 -0.140665,-0.63484 -0.207521,-0.95532 -0.117876,-1.056128 z m -5.936707,0.626322 c -0.752121,0.0047 -0.811451,0.07701 -0.310036,0.378048 0.801448,0.481179 1.240144,0.481179 1.240144,0 0,-0.211226 -0.418549,-0.381121 -0.930108,-0.378048 z M 55.6122,74.62732 c -0.143609,-0.0054 -0.306973,0.01878 -0.456175,0.07427 -0.329767,0.122596 -0.232084,0.214086 0.249484,0.23253 0.435769,0.01667 0.679927,-0.07417 0.542563,-0.201779 -0.06868,-0.06379 -0.192268,-0.09951 -0.335872,-0.105011 z m 57.70869,1.102633 c 0.35352,0.04977 0.81134,0.313808 1.43958,0.770342 l 1.03344,0.750842 -1.24013,0.02101 c -1.18032,0.01974 -1.20132,0.04767 -0.43762,0.58432 0.752,0.52841 0.70583,0.564069 -0.73148,0.564069 -1.46345,0 -1.52121,-0.0484 -1.26193,-1.05613 0.31015,-1.205505 0.60895,-1.717404 1.19814,-1.634447 z m -61.394408,0.386295 c -0.909439,0 -1.653525,0.172821 -1.653525,0.384046 0,0.211226 0.744086,0.384047 1.653525,0.384047 0.90944,0 1.653527,-0.172821 1.653527,-0.384047 0,-0.211225 -0.744087,-0.384046 -1.653527,-0.384046 z m 3.951344,0 c -0.554982,0 -1.123848,0.172821 -1.264363,0.384046 -0.149059,0.224061 0.271471,0.384047 1.009233,0.384047 0.695498,0 1.264365,-0.172821 1.264365,-0.384047 0,-0.211225 -0.454254,-0.384046 -1.009235,-0.384046 z m -3.744654,1.920232 c -0.89182,0 -1.392482,0.155048 -1.240143,0.384047 0.140516,0.211225 0.698581,0.384046 1.240143,0.384046 0.541564,0 1.09963,-0.172821 1.240146,-0.384046 0.152338,-0.228999 -0.348324,-0.384047 -1.240146,-0.384047 z m 3.489524,0 c -0.695497,0 -1.1755,0.134028 -1.066556,0.297786 0.297725,0.447544 2.330921,0.518832 2.330921,0.08176 0,-0.208859 -0.568867,-0.379544 -1.264365,-0.379544 z m -3.410399,1.554939 c -0.529809,0 -1.12025,0.121711 -1.52596,0.365293 -0.45337,0.2722 -0.141375,0.373739 1.161021,0.378049 1.08363,0.0035 1.681382,-0.144413 1.52596,-0.378049 -0.162041,-0.243582 -0.631213,-0.365293 -1.161021,-0.365293 z m 24.954673,0.365293 c -0.695497,0 -1.264365,0.17282 -1.264365,0.384047 0,0.211225 0.454253,0.384047 1.009235,0.384047 0.554981,0 1.123848,-0.172822 1.264362,-0.384047 0.149059,-0.22406 -0.27147,-0.384047 -1.009232,-0.384047 z m -21.520055,0.04651 c -0.262241,0 -0.524476,0.02446 -0.723418,0.07276 -0.397879,0.09659 -0.07234,0.175522 0.723418,0.175522 0.79576,0 1.121298,-0.07892 0.723418,-0.175522 -0.19894,-0.0483 -0.461177,-0.07276 -0.723418,-0.07276 z m 18.395476,0.337542 c -0.568401,0 -1.033456,0.17282 -1.033456,0.384047 0,0.211225 0.465055,0.384046 1.033456,0.384046 0.568399,0 1.033453,-0.172821 1.033453,-0.384046 0,-0.211227 -0.465054,-0.384047 -1.033453,-0.384047 z m -22.760201,1.15214 c -1.0097,0 -1.835996,0.172821 -1.835996,0.384047 0,0.211226 0.94091,0.384046 2.091127,0.384046 1.288936,0 1.993458,-0.147347 1.835997,-0.384046 -0.140516,-0.211226 -1.081427,-0.384047 -2.091128,-0.384047 z m 4.595636,0 c -1.629182,0 -2.367976,0.648351 -0.960785,0.843102 2.040695,0.282423 2.3834,0.240198 2.3834,-0.291036 0,-0.373249 -0.46114,-0.552066 -1.422615,-0.552066 z m 21.520059,0 c -0.341038,0 -0.73469,0.172821 -0.875206,0.384047 -0.140516,0.211226 0.02389,0.384046 0.364936,0.384046 0.341041,0 0.73469,-0.17282 0.875208,-0.384046 0.140517,-0.211226 -0.02389,-0.384047 -0.364938,-0.384047 z m -2.917894,1.920232 c -0.327622,0 -0.710466,0.172822 -0.850983,0.384046 -0.140517,0.211227 0.127716,0.384046 0.595852,0.384046 0.468138,0 0.850984,-0.172819 0.850984,-0.384046 0,-0.211224 -0.268231,-0.384046 -0.595853,-0.384046 z m 3.440272,0.04875 c -0.224776,-0.0026 -0.464989,0.02032 -0.666093,0.06901 -0.402209,0.09736 -0.173427,0.183439 0.508653,0.191273 0.682078,0.0078 1.011361,-0.07182 0.73149,-0.177022 -0.139933,-0.05259 -0.349274,-0.08068 -0.57405,-0.08327 z m -26.820542,0.335292 c -1.622825,0 -2.066908,0.132766 -2.066908,0.617325 0,0.404977 0.224897,0.537016 0.653982,0.384046 0.359634,-0.128215 1.289742,-0.233278 2.066907,-0.233278 0.777162,0 1.412924,-0.172821 1.412924,-0.384047 0,-0.211224 -0.930108,-0.384046 -2.066905,-0.384046 z m 4.778105,0 c -0.78234,0 -1.537229,0.172822 -1.677746,0.384046 -0.154293,0.231938 0.409269,0.384047 1.422616,0.384047 0.922857,0 1.677745,-0.172821 1.677745,-0.384047 0,-0.211224 -0.640274,-0.384046 -1.422615,-0.384046 z m 22.78523,0.967617 c -0.276432,0.0042 -0.584563,0.03437 -0.914768,0.09301 -1.059696,0.188197 -1.106006,0.248453 -0.387544,0.50931 1.138799,0.413449 2.675677,0.418031 2.675677,0.0075 0,-0.399555 -0.544056,-0.622397 -1.373365,-0.609824 z m -3.208547,0.23178 c -0.143609,-0.0054 -0.306973,0.01878 -0.456175,0.07427 -0.329766,0.122597 -0.232083,0.214089 0.249485,0.23253 0.43577,0.01667 0.679926,-0.07417 0.542563,-0.201778 -0.06869,-0.0638 -0.19227,-0.09952 -0.335873,-0.10501 z m -24.354788,0.720836 c -1.1368,0 -2.066908,0.172821 -2.066908,0.384047 0,0.211225 0.930108,0.384046 2.066908,0.384046 1.136797,0 2.066905,-0.172821 2.066905,-0.384046 0,-0.211226 -0.930108,-0.384047 -2.066905,-0.384047 z m 4.753886,0 c -0.768923,0 -1.51301,0.172821 -1.653527,0.384047 -0.156234,0.234855 0.486116,0.384046 1.653527,0.384046 1.167408,0 1.809759,-0.149191 1.653524,-0.384046 -0.140515,-0.211226 -0.884602,-0.384047 -1.653524,-0.384047 z m 18.991325,1.152139 c -0.875553,0 -1.367965,0.155493 -1.215924,0.384047 0.140517,0.211224 0.802394,0.384046 1.471055,0.384046 0.668661,0 1.215925,-0.172822 1.215925,-0.384046 0,-0.211225 -0.661878,-0.384047 -1.471056,-0.384047 z m 3.951344,0 c -0.909438,0 -1.653526,0.172822 -1.653526,0.384047 0,0.211224 0.744088,0.384046 1.653526,0.384046 0.909441,0 1.653526,-0.172822 1.653526,-0.384046 0,-0.211225 -0.744085,-0.384047 -1.653526,-0.384047 z m -21.609675,1.123636 c -0.164837,0.01586 -0.950618,0.02849 -1.746376,0.02849 -0.795759,0 -1.446835,0.172821 -1.446835,0.384047 0,0.211225 0.852869,0.384046 1.894933,0.384046 1.167507,0 1.837653,-0.15815 1.746374,-0.41255 -0.08147,-0.227068 -0.283261,-0.399908 -0.448096,-0.384046 z m -6.293572,0.02849 c -1.745388,0 -2.273598,0.133832 -2.273598,0.57607 0,0.622501 1.101645,0.73622 3.255379,0.33604 2.06391,-0.383489 1.494915,-0.91211 -0.981781,-0.91211 z m 24.079468,0.774092 c -1.01949,0.0044 -1.193952,0.09555 -0.723417,0.378047 0.812497,0.487816 2.066908,0.487816 2.066908,0 0,-0.211225 -0.604571,-0.381119 -1.343491,-0.378047 z m 4.158035,0.04427 -1.78109,0.05101 1.446834,0.282785 c 0.79576,0.155613 1.482539,0.305986 1.525961,0.33379 0.04343,0.0278 0.193738,-0.122564 0.334256,-0.33379 0.156961,-0.235942 -0.431614,-0.364858 -1.525961,-0.333791 z m -9.517458,2.439294 c -0.148107,-0.01482 -0.284754,-0.005 -0.406118,0.03077 -1.114518,0.328631 -4.052268,2.1705 -4.052268,2.540555 0,0.43423 1.135804,0.399024 1.430689,-0.04426 0.684125,-1.028418 4.356652,-2.019796 4.356652,-1.176149 0,0.211225 0.325537,0.383555 0.723416,0.383297 0.560709,-3.64e-4 0.452227,-0.216897 -0.483623,-0.964618 -0.573383,-0.458117 -1.124438,-0.725145 -1.568748,-0.769593 z m 10.399126,0.58282 c -1.172783,0 -1.529506,0.34925 -0.927685,0.908358 0.158643,0.147387 0.546002,0.175942 0.860672,0.06375 0.314674,-0.112184 0.846962,-0.204025 1.182818,-0.204025 0.335872,0 0.495768,-0.172821 0.35525,-0.384045 -0.140516,-0.211227 -0.802393,-0.384049 -1.471055,-0.384048 z m -4.109595,0.03826 c -0.151573,0 -0.302822,0.09006 -0.495734,0.269282 -0.385821,0.358442 -0.275911,0.460555 0.495734,0.460555 0.771649,0 0.881557,-0.102118 0.495737,-0.460555 -0.192913,-0.179224 -0.344161,-0.269288 -0.495737,-0.269288 z M 51.587382,92.28371 c -0.521754,0.003 -0.901045,0.110536 -0.901045,0.321034 0,0.197196 0.511561,0.418085 1.1368,0.491312 1.606136,0.188109 2.557716,-0.128752 1.520306,-0.506312 -0.569752,-0.207351 -1.234311,-0.308916 -1.756061,-0.306034 z m 5.919749,0.346539 c -0.568398,0 -1.033453,0.172821 -1.033453,0.384047 0,0.211224 0.465055,0.384046 1.033453,0.384046 0.568401,0 1.033456,-0.172822 1.033456,-0.384046 0,-0.211226 -0.465055,-0.384047 -1.033456,-0.384047 z m -4.753886,1.15214 c -0.909439,0 -1.653524,0.17282 -1.653524,0.384045 0,0.211227 0.744085,0.384048 1.653524,0.384048 0.90944,0 1.653527,-0.172821 1.653527,-0.384048 0,-0.211225 -0.744087,-0.384045 -1.653527,-0.384045 z m 19.635619,0.384045 c -0.89182,0 -1.392483,0.155048 -1.240144,0.384048 0.140516,0.211225 0.698582,0.384047 1.240144,0.384047 0.541563,0 1.099627,-0.172822 1.240144,-0.384047 0.152339,-0.229 -0.348323,-0.384048 -1.240144,-0.384048 z m -11.075716,0.03976 c -0.424808,0 -0.705656,0.114991 -0.705656,0.34429 0,0.211226 0.697581,0.371891 1.550181,0.357042 1.243535,-0.02165 1.386635,-0.09228 0.723418,-0.357042 -0.574368,-0.229302 -1.143135,-0.34429 -1.567943,-0.34429 z m 24.570359,1.972742 c 0.433066,0.0394 0.751749,0.123835 0.884087,0.246779 0.247544,0.229979 0.777048,1.500919 1.177168,2.824096 0.400122,1.323169 1.202276,3.847799 1.781902,5.610669 1.149623,3.49646 1.06308,4.89048 -0.339105,5.48617 -1.090116,0.4631 -3.563799,4.54139 -3.563799,5.87545 0,0.98121 -0.01976,0.98705 -3.203706,0.92037 -4.730432,-0.0991 -6.717449,-0.31597 -6.717449,-0.73285 0,-0.61151 2.878364,-5.72918 3.222277,-5.72918 0.174865,0 0.571987,-0.79929 0.882474,-1.7762 0.542952,-1.70839 0.518137,-1.85711 -0.633801,-3.88398 -0.658727,-1.15908 -2.486994,-3.2947 -4.063568,-4.74583 -1.576571,-1.451127 -2.785714,-2.69706 -2.686981,-2.769332 0.155536,-0.113852 4.879009,-0.640448 11.690946,-1.302909 0.589121,-0.05728 1.136488,-0.06259 1.569555,-0.02327 z m -24.862632,5.092374 c -0.461871,-0.2652 -0.594151,3.35299 -0.138062,3.7767 0.15157,0.14081 0.627149,0.25578 1.056868,0.25578 0.724823,0 0.735054,-0.0618 0.138061,-0.8536 -0.353929,-0.46945 -0.643485,-1.32352 -0.643485,-1.89775 0,-0.57421 -0.186023,-1.1506 -0.413382,-1.28113 z m 84.247455,3.04386 c -0.49036,-0.0255 -1.02275,-0.0256 -1.57116,0.005 -0.79578,0.0448 -2.452,0.11178 -3.68088,0.14852 -2.20666,0.066 -2.22534,0.0761 -1.4864,0.83484 0.41152,0.42247 0.55611,0.76811 0.32135,0.76811 -0.23476,0 -0.65837,-0.25923 -0.94142,-0.57608 -0.28303,-0.31683 -0.73535,-0.57607 -1.00519,-0.57607 -0.93122,0 -4.29083,4.06523 -4.78861,5.79447 -0.26825,0.93189 -0.66882,1.89922 -0.88974,2.14976 -0.26434,0.29978 -0.22518,0.7593 0.11466,1.34416 0.31475,0.54168 0.52805,2.49289 0.54581,4.99784 0.0194,2.74308 0.20084,4.26939 0.54577,4.58981 0.2842,0.26401 0.51674,0.79068 0.51674,1.17089 0,0.38022 0.18305,0.69158 0.40691,0.69158 0.23629,0 0.32839,-0.76519 0.21962,-1.82422 -0.10304,-1.00333 -0.29318,-3.24998 -0.42308,-4.9926 l -0.23657,-3.16839 h 5.53949 c 6.82641,0 9.37535,-0.28559 9.37535,-1.05088 0,-0.47723 -1.0615,-0.54259 -6.99601,-0.42831 l -6.99599,0.13502 -0.18005,-1.14087 c -0.18777,-1.18975 0.5803,-2.76493 2.47143,-5.06839 0.74927,-0.91265 1.38242,-1.27963 2.20737,-1.27963 0.63616,0 1.2265,-0.1952 1.31202,-0.43356 0.0944,-0.26328 1.73095,-0.51012 4.16852,-0.62857 2.82709,-0.13739 4.01271,-0.33695 4.01271,-0.67585 0,-0.40355 -1.09152,-0.7105 -2.56265,-0.78684 z m -82.80062,3.03786 c -0.837467,0.2501 -0.66746,1.71698 0.269663,2.32679 0.51524,0.33528 1.091681,0.46496 1.281323,0.28878 0.429533,-0.39904 -0.985051,-2.78457 -1.550986,-2.61557 z m 13.486568,9.87196 c 0.292816,0.005 0.706057,0.12879 1.189279,0.36904 0.425358,0.21147 2.22737,0.56975 4.003825,0.79658 1.776458,0.22685 3.405943,0.572 3.621934,0.76735 0.442987,0.40066 -0.449957,0.39712 -3.90936,-0.0181 -2.770586,-0.3324 -5.370731,-1.09606 -5.370731,-1.57668 0,-0.23143 0.172238,-0.34365 0.465053,-0.33828 z m -7.88735,0.84009 c 0.243508,0.0221 0.394812,0.0853 0.394812,0.18377 0,0.19715 -1.648747,0.56233 -3.663915,0.8116 -4.344474,0.53737 -6.257238,0.57465 -6.257238,0.12226 0,-0.18194 1.627687,-0.44101 3.617086,-0.57533 1.989399,-0.13428 4.221658,-0.35059 4.960577,-0.4808 0.36946,-0.0651 0.705171,-0.0835 0.948678,-0.0615 z m 7.245481,0.63608 c 0.0527,-0.0104 0.111475,-0.005 0.176816,0.012 0.34104,0.0877 2.480289,0.59228 4.753887,1.12138 2.273598,0.52911 4.205428,1.01347 4.292871,1.07638 0.336695,0.24224 -0.99112,2.62497 -2.406819,4.31903 -1.701747,2.03632 -3.149202,4.9261 -3.580755,7.14912 -0.463289,2.38648 -0.506029,2.55686 -0.681435,2.71983 -0.09047,0.0841 -0.708668,0.24947 -1.37417,0.36828 -1.64733,0.29411 -3.075418,-0.66832 -2.833114,-1.90974 0.263138,-1.34803 -0.811022,-2.13847 -2.905783,-2.13847 -1.929391,0 -1.846844,0.15846 -1.51062,-2.90961 0.03208,-0.29264 0.651155,-0.29807 2.118581,-0.0188 2.471723,0.4704 2.519092,1.22968 0.0662,1.06515 -1.033899,-0.0694 -1.72619,0.0501 -1.72619,0.29777 0,0.22738 0.348792,0.4133 0.775091,0.4133 0.426299,0 1.356407,0.10801 2.066906,0.24002 1.230909,0.22871 1.291817,0.182 1.291817,-0.98561 0,-0.67397 0.232527,-1.60288 0.516728,-2.06425 0.323244,-0.52476 0.516727,-2.34852 0.516727,-4.87109 0,-2.97436 0.07444,-3.81189 0.443255,-3.88472 z M 5.2256829,129.60224 c -0.2141701,0.0355 -0.4349189,0.12922 -0.6418714,0.28879 -0.4712765,0.36336 -0.5076061,0.60365 -0.1509805,1.00286 0.7300625,0.81725 2.0216925,0.65432 2.0216925,-0.25503 0,-0.72697 -0.5863295,-1.14317 -1.2288406,-1.03662 z m 64.1257951,2.38079 c 0.867277,-0.004 2.663395,0.33956 3.135886,0.68483 0.660837,0.4829 0.266931,1.08785 -0.5248,0.80559 -0.333756,-0.11899 -0.607153,-0.0254 -0.607153,0.20853 0,0.23382 0.186021,0.42531 0.41338,0.42531 0.22736,0 0.413383,0.25922 0.413383,0.57605 0,0.38201 -0.411274,0.57608 -1.220766,0.57608 -1.058496,0 -1.277816,-0.1914 -1.651106,-1.44018 -0.236778,-0.79209 -0.431519,-1.55906 -0.432758,-1.7042 -8.28e-4,-0.0911 0.184843,-0.1308 0.473934,-0.13201 z m 19.629967,0.63532 c -0.173454,0.0376 -0.189325,0.13824 -0.07671,0.30754 0.60585,0.91071 2.57491,1.35048 7.046859,1.57519 4.828456,0.24262 7.192846,0.11002 7.833266,-0.4403 0.23023,-0.19784 -0.45391,-0.34829 -1.65353,-0.3638 -1.12543,-0.0145 -2.510965,-0.0808 -3.079366,-0.14702 -0.568404,-0.0661 -2.52163,-0.23648 -4.340509,-0.37878 -1.818879,-0.14234 -3.938503,-0.35929 -4.710289,-0.48232 -0.515442,-0.0822 -0.846274,-0.10802 -1.019729,-0.0706 z m -9.752407,3.00861 c 0.601657,-0.0718 0.79773,0.34961 0.590196,1.26464 -0.155697,0.6865 -0.449771,1.41204 -0.653176,1.6127 -0.203408,0.20068 -0.369683,0.63272 -0.369782,0.96012 -1.47e-4,0.48369 -0.585402,0.59836 -3.121353,0.61133 -3.387109,0.0174 -4.161799,-0.36005 -3.763225,-1.83472 0.498889,-1.84581 1.142889,-2.21744 3.019621,-1.74171 1.446708,0.36672 1.882073,0.33326 2.775793,-0.21078 0.65372,-0.39793 1.160924,-0.6185 1.521926,-0.66158 z m -70.0528169,0.15153 c -0.4516863,0.0135 -0.7468179,0.0763 -0.8203045,0.18677 -0.4903057,0.73703 5.1322784,1.18174 15.0472464,1.19039 8.623509,0.007 25.574678,0.64497 25.956642,0.97587 0.06631,0.0576 1.089422,0.048 2.273598,-0.021 1.18418,-0.069 4.463945,-0.22127 7.288272,-0.33827 4.96411,-0.20566 6.158932,-0.38564 4.948465,-0.7456 -0.734675,-0.21848 -28.608063,-0.77117 -41.08705,-0.8146 -5.229274,-0.0183 -10.559679,-0.16411 -11.845154,-0.32404 -0.701754,-0.0874 -1.3100295,-0.12299 -1.7617149,-0.10951 z m 61.4904869,0.24902 c 0.936823,0 1.03765,0.38634 0.407731,1.55945 -0.78514,1.46215 -0.959173,1.42296 -0.959173,-0.21529 0,-0.86412 0.197117,-1.34416 0.551442,-1.34416 z m -57.80881,2.70108 c -0.781375,0.004 -1.031971,0.1379 -0.748445,0.4013 0.245297,0.22788 2.374924,0.57704 4.732894,0.77559 2.357971,0.19854 5.589368,0.49443 7.180889,0.65708 4.473228,0.4572 38.975788,0.54721 38.243434,0.0998 -0.363628,-0.22217 -5.591567,-0.38091 -12.814824,-0.38855 -13.016721,-0.0139 -28.251217,-0.55932 -32.662786,-1.17014 -1.837949,-0.25448 -3.149783,-0.37953 -3.931162,-0.37505 z m 81.32472,0.33078 c -0.419623,-0.0378 -0.931047,-0.0277 -1.538063,0.0278 -0.648355,0.0593 -0.536855,0.19301 0.516727,0.62108 0.738922,0.30022 1.343494,0.70475 1.343494,0.8986 0,0.63282 -2.356361,0.85212 -4.820905,0.44855 -2.12175,-0.34743 -6.837288,-0.6147 -8.303962,-0.47031 -0.284199,0.028 -0.516725,0.29728 -0.516725,0.59783 0,0.44029 0.582284,0.50839 2.997015,0.35104 2.005871,-0.13072 3.748919,-0.003 5.270613,0.3878 1.250479,0.32102 2.330516,0.59516 2.400357,0.60906 0.06984,0.0139 0.955682,-0.16812 1.968407,-0.40504 1.418003,-0.33172 1.900096,-0.64759 2.095975,-1.37266 0.280043,-1.03662 -0.154044,-1.58022 -1.412933,-1.69371 z m 3.41363,0.0832 c -1.244905,0.0272 -0.04539,0.42543 3.170602,0.89037 3.99005,0.57684 6.3394,0.64437 9.23972,0.26551 1.81157,-0.23663 1.47961,-0.30194 -2.68698,-0.53254 -2.61463,-0.14474 -6.05603,-0.37664 -7.647549,-0.51532 -0.973964,-0.085 -1.660821,-0.11707 -2.075793,-0.10802 z m -87.126595,1.12588 c -0.403736,0 -0.6645008,0.12237 -0.5013862,0.36756 0.1405152,0.21122 0.7558882,0.38128 1.3677112,0.37804 0.87007,-0.004 0.977496,-0.0869 0.492503,-0.37804 -0.408392,-0.24519 -0.955093,-0.36756 -1.358828,-0.36756 z m 3.127812,0.90012 c -0.196446,0.1825 2.011959,0.79678 4.018357,1.11764 1.864702,0.29819 2.657454,0.28028 2.252607,-0.0519 -0.474984,-0.38955 -5.989898,-1.32699 -6.270964,-1.06587 z m 133.954965,0.34578 c -0.35672,-0.0603 -0.97828,0.003 -1.73021,0.21228 -0.88047,0.24508 -2.5091,0.4533 -3.61953,0.46282 -1.11041,0.009 -2.54227,0.22554 -3.18109,0.48004 l -1.16103,0.46281 0.83726,0.83411 c 0.49235,0.49036 1.73817,0.99693 3.02205,1.22865 1.20126,0.2168 2.55602,0.4691 3.01074,0.56107 2.00685,0.40592 3.10036,0.25949 3.10036,-0.41555 0,-0.5684 -0.39862,-0.67208 -2.58364,-0.67208 -2.39813,0 -5.2706,-0.71407 -5.2706,-1.31041 0,-0.14155 1.67497,-0.43848 3.72205,-0.65933 2.04705,-0.22085 3.845,-0.51628 3.99575,-0.65634 0.30628,-0.28455 0.21463,-0.46782 -0.14211,-0.52807 z m -63.345056,0.70585 c -0.735715,0.003 -1.277283,0.10931 -1.277283,0.31429 0,0.19909 0.790592,0.41577 1.756871,0.48156 2.253351,0.1534 3.37955,-0.13314 1.963561,-0.49956 -0.777562,-0.20123 -1.707429,-0.29985 -2.443149,-0.29629 z m 14.796149,0.0825 c -1.743772,-0.0123 -2.821592,0.0197 -2.721694,0.11252 0.407717,0.37878 7.297741,0.99543 12.484611,1.11764 7.60979,0.17927 12.21293,0.51586 15.50179,1.13263 3.22832,0.60541 4.54721,0.68387 4.54721,0.27154 0,-0.42213 -3.76502,-1.09795 -9.92116,-1.78147 -3.43093,-0.38096 -14.65944,-0.8159 -19.890757,-0.85286 z" />
    <g
       aria-label="XXV"
       id="text757"
       style="font-size:40px;line-height:1.25;font-family:Hultog;-inkscape-font-specification:Hultog"
       transform="matrix(0.41338146,0,0,0.38404641,-2.6398673,1.9952955)">
      <path
         d="m 280.60296,80.116768 q -0.51376,2.715596 -1.54128,2.422018 l -3.57187,-1.003058 q -4.30581,0 -4.89296,1.247706 l -1.66361,-1.174311 q 0.95413,-2.079511 2.17737,-2.079511 0.29358,0 0.56269,0.09786 0.24465,-0.220183 0.24465,-0.562691 0,-0.513761 -0.53823,-1.394495 -1.71254,-1.223242 -4.50153,-6.776759 h -0.17125 q -0.51376,-0.02446 -0.75841,0.464832 -2.49541,5.333333 -4.4526,7.168196 l 0.19572,0.880734 q 2.2263,0.293578 2.2263,1.810397 0,0.611621 -0.4159,1.590214 -0.9052,-0.70948 -1.78594,-0.880734 -0.36697,-0.04893 -1.98165,-0.04893 -3.08257,0 -4.52599,0.733945 l -1.05199,-0.587156 v -1.932722 l 2.88685,-0.733945 q 0.68502,-0.171254 6.94801,-9.174312 1.24771,-0.391437 1.24771,-1.174312 0,-0.782874 -0.9052,-1.492355 -1.24771,-1.027523 -1.37003,-1.198776 -0.78287,-1.076453 -2.10397,-3.400612 -1.32111,-2.324159 -2.07952,-3.376147 0,0 -1.83486,-1.639143 l -3.27829,-0.733945 0.9786,-2.103976 5.3578,0.685015 3.00917,-0.685015 1.37003,0.464832 v 1.663608 q -1.68807,0.318043 -1.66361,1.370031 v 0.171254 l 4.64832,6.874618 0.75841,-0.195719 q 0.92966,-3.571866 3.47401,-5.993884 v -1.247706 l -1.8838,-0.685016 -0.4159,-1.859327 1.05199,-0.538226 3.91437,0.66055 q 1.66361,-0.587156 2.88685,-0.587156 1.49236,0 1.8104,1.003058 -0.80734,2.152906 -3.18043,2.152906 -1.85932,2.422018 -3.71865,4.844036 -2.78899,3.74312 -3.10704,4.892967 1.54129,1.761468 4.40367,5.333333 0.4893,1.076453 1.61468,3.058104 0.95413,1.003058 2.78899,2.93578 z"
         id="path1103" />
      <path
         d="m 308.00355,80.116768 q -0.51376,2.715596 -1.54128,2.422018 l -3.57187,-1.003058 q -4.30581,0 -4.89296,1.247706 l -1.66361,-1.174311 q 0.95413,-2.079511 2.17737,-2.079511 0.29358,0 0.56269,0.09786 0.24465,-0.220183 0.24465,-0.562691 0,-0.513761 -0.53823,-1.394495 -1.71254,-1.223242 -4.50153,-6.776759 h -0.17125 q -0.51376,-0.02446 -0.75841,0.464832 -2.49541,5.333333 -4.4526,7.168196 l 0.19572,0.880734 q 2.2263,0.293578 2.2263,1.810397 0,0.611621 -0.4159,1.590214 -0.9052,-0.70948 -1.78594,-0.880734 -0.36697,-0.04893 -1.98165,-0.04893 -3.08257,0 -4.52599,0.733945 l -1.05199,-0.587156 v -1.932722 l 2.88685,-0.733945 q 0.68502,-0.171254 6.94801,-9.174312 1.24771,-0.391437 1.24771,-1.174312 0,-0.782874 -0.9052,-1.492355 -1.24771,-1.027523 -1.37003,-1.198776 -0.78287,-1.076453 -2.10398,-3.400612 -1.3211,-2.324159 -2.07951,-3.376147 0,0 -1.83486,-1.639143 l -3.27829,-0.733945 0.9786,-2.103976 5.3578,0.685015 3.00917,-0.685015 1.37003,0.464832 v 1.663608 q -1.68807,0.318043 -1.66361,1.370031 v 0.171254 l 4.64832,6.874618 0.75841,-0.195719 q 0.92966,-3.571866 3.47401,-5.993884 v -1.247706 l -1.8838,-0.685016 -0.4159,-1.859327 1.05199,-0.538226 3.91437,0.66055 q 1.66361,-0.587156 2.88685,-0.587156 1.49236,0 1.8104,1.003058 -0.80734,2.152906 -3.18043,2.152906 -1.85933,2.422018 -3.71865,4.844036 -2.78899,3.74312 -3.10704,4.892967 1.54129,1.761468 4.40367,5.333333 0.4893,1.076453 1.61468,3.058104 0.95413,1.003058 2.78899,2.93578 z"
         id="path1105" />
      <path
         d="m 336.52952,55.725331 -0.4159,1.737003 -2.6422,1.443425 q -2.81345,7.24159 -3.74312,9.516819 -3.03364,7.363915 -4.28134,8.978593 l -1.68808,5.773701 q -2.2263,0 -2.66666,-1.712538 l -0.95413,-3.74312 -0.9786,-1.37003 -0.31804,-2.055046 q -0.0245,-0.04893 -1.59021,-3.033639 -1.02753,-1.957187 -0.9786,-3.180428 -0.66055,-1.027523 -1.95718,-3.082569 -0.19572,-0.562691 -0.53823,-1.614679 -0.95413,-2.593272 -1.8104,-3.865444 -1.3211,-1.957186 -3.08257,-1.859327 -0.0978,-0.513761 -0.0978,-1.027523 0,-1.443425 1.39449,-1.908257 l 3.57187,1.370031 3.62079,-1.027523 1.29664,0.880734 q 0.0489,0.269113 0.0489,0.342508 0,1.198776 -2.20184,2.201834 0.34251,1.321101 1.17431,3.767585 1.51682,2.83792 4.20796,8.61162 0,0 0.95412,4.159022 l 0.75841,1.027523 q 0.70948,-0.244649 0.70948,-0.587156 v -2.128441 l 6.263,-14.776758 q 0,-0.318043 -1.68807,-1.41896 -0.0979,-0.415902 -0.0979,-0.831805 0,-0.513761 0.29358,-0.905198 0.31804,-0.391438 0.8318,-0.293578 l 3.1315,0.636085 q 1.07645,-0.70948 1.93272,-0.70948 0.85627,0 1.54128,0.685016 z"
         id="path1107" />
    </g>
  </g>
</svg>
