<?xml version="1.0" encoding="UTF-8" standalone="no"?>
<!-- Created with Inkscape (http://www.inkscape.org/) -->

<svg
   version="1.1"
   id="svg2"
   width="4cm"
   height="4cm"
   viewBox="0 0 151.1811 151.1811"
   sodipodi:docname="27.svg"
   inkscape:version="1.1.2 (0a00cf5339, 2022-02-04)"
   xmlns:inkscape="http://www.inkscape.org/namespaces/inkscape"
   xmlns:sodipodi="http://sodipodi.sourceforge.net/DTD/sodipodi-0.dtd"
   xmlns="http://www.w3.org/2000/svg"
   xmlns:svg="http://www.w3.org/2000/svg">
  <defs
     id="defs6" />
  <sodipodi:namedview
     id="namedview4"
     pagecolor="#505050"
     bordercolor="#eeeeee"
     borderopacity="1"
     inkscape:pageshadow="0"
     inkscape:pageopacity="0"
     inkscape:pagecheckerboard="0"
     showgrid="false"
     inkscape:zoom="3.8909091"
     inkscape:cx="93.551402"
     inkscape:cy="81.086449"
     inkscape:window-width="1920"
     inkscape:window-height="1043"
     inkscape:window-x="0"
     inkscape:window-y="0"
     inkscape:window-maximized="1"
     inkscape:current-layer="g8"
     units="cm"
     inkscape:document-units="cm" />
  <!-- Border -->
  <path
     id="border"
     class="board-border"
     style="fill:none;stroke:#000000;stroke-width:0.1cm"
     d="M 0,0 H 151.18111 V 151.18111 H 0 Z" />
  <g
     inkscape:groupmode="layer"
     inkscape:label="Image"
     id="g8">
    <path
       id="path12"
       style="fill:#000000;stroke-width:0.419573"
       d="M 4.2277277,2.5313632 4.091837,3.502723 C 3.9605702,4.4416773 4.065851,4.4817361 7.2138372,4.6830053 9.0056538,4.7975626 12.378378,4.858616 14.708729,4.8186887 c 2.33035,-0.039927 4.789868,0.083114 5.465242,0.2736711 0.778528,0.219669 2.047172,0.1725106 3.466083,-0.1287428 1.793714,-0.3808173 2.375385,-0.3743473 2.93123,0.033907 0.570477,0.4190145 0.76516,0.4090985 1.098449,-0.057019 0.281341,-0.3934875 0.407287,-0.4158315 0.412028,-0.073239 0.0037,0.2713668 0.508719,0.4933955 1.121969,0.4933955 0.613249,0 1.115,-0.2020789 1.115,-0.4486798 0,-0.3023329 0.617349,-0.3691435 1.8955,-0.2058363 2.612057,0.3337419 3.833697,0.5698247 4.319754,0.8356764 0.227428,0.1243972 0.531755,0.056673 0.67684,-0.1511007 0.145085,-0.2077531 1.618942,-0.3087614 3.275313,-0.224333 1.656371,0.084422 3.271865,0.01121 3.589777,-0.1626637 0.317913,-0.1738876 1.41652,-0.1642621 2.441676,0.02159 2.89007,0.5239118 5.209141,0.652537 5.209141,0.2890953 0,-0.1815132 1.113475,-0.2543441 2.474778,-0.1618956 1.361309,0.092456 2.914512,0.024634 3.451273,-0.1511007 0.570127,-0.1866477 1.287915,-0.1471011 1.725637,0.094829 0.690475,0.38162 4.137212,0.1733617 13.198817,-0.796365 2.257072,-0.2415424 2.450399,0.2624126 0.558368,1.4547285 -0.735318,0.4633774 -1.456291,1.3192734 -1.602814,1.9018651 -0.377335,1.5003091 -1.486162,4.324334 -2.46694,6.284554 -1.345872,2.68992 -0.871853,7.939535 0.86587,9.590273 0.535202,0.508405 0.973012,1.068881 0.973012,1.245038 0,0.677656 1.833031,1.898779 2.85022,1.898779 0.754842,0 1.145579,0.277422 1.336258,0.949777 0.148194,0.522562 0.383981,1.213829 0.52353,1.535676 0.175207,0.404068 -0.482761,0.957853 -2.126343,1.790083 -1.30912,0.662868 -2.837179,1.635674 -3.395521,2.161662 -1.02795,0.968377 -4.487516,6.47837 -6.676939,10.634097 -0.925543,1.756771 -1.418307,2.269597 -2.179473,2.269597 -0.540851,0 -1.09931,-0.166698 -1.241311,-0.370043 -0.142007,-0.203345 -0.805932,-0.619509 -1.475632,-0.925108 -1.494769,-0.682098 -9.145391,-4.249019 -10.52804,-4.908462 -0.55351,-0.263991 -1.839781,-1.240907 -2.85893,-2.170914 -1.019149,-0.930014 -2.277866,-2.016575 -2.797083,-2.4153 -0.721347,-0.553944 -0.869968,-0.972924 -0.630671,-1.776202 0.172243,-0.57819 0.351027,-4.603949 0.397219,-8.945777 0.04619,-4.341834 0.173658,-8.16067 0.283105,-8.486309 0.159585,-0.474816 -0.276908,-0.592072 -2.203868,-0.592072 h -2.403347 l -0.147215,2.170921 c -0.456694,6.718397 -0.491171,10.681802 -0.09495,10.898523 0.240649,0.131622 0.311937,0.681773 0.158539,1.22268 -0.153398,0.5409 -0.0431,1.617102 0.245649,2.391399 0.498012,1.335466 0.455373,1.460631 -0.831024,2.427632 -1.836944,1.380852 -2.649782,2.971403 -2.839766,5.556037 -0.157716,2.14565 -0.14178,2.176602 1.482602,2.948776 1.743231,0.828666 1.682442,0.588951 1.048796,4.142931 -0.131138,0.73554 -0.06509,1.527913 0.47736,1.776209 7.898125,3.61511 1.656285,0.717818 1.366747,-2.313538 -0.270189,-2.828765 -0.249158,-2.914467 0.658546,-2.704396 0.871388,0.201671 0.916272,0.397017 0.641125,2.773781 -0.24322,2.100968 -0.161557,2.688688 0.459938,3.29646 1.280828,1.252546 1.527791,0.845316 1.2265,-2.023674 -0.328647,-3.129472 -0.349941,-3.114387 3.226532,-2.317385 1.455242,0.324296 2.174424,0.74374 2.639414,1.539531 0.351446,0.601468 1.447076,1.705681 2.434707,2.453843 0.987632,0.748155 1.795324,1.509789 1.795324,1.692943 0,0.677586 4.565007,4.038629 6.596796,4.856805 2.192076,0.882718 7.481547,1.448584 7.902562,0.845704 0.133751,-0.191534 -0.514974,-0.447718 -1.441663,-0.569714 -4.404991,-0.579873 -5.5696,-1.036545 -8.741427,-3.427515 -1.760652,-1.327203 -3.834949,-3.104512 -4.608955,-3.949433 l -1.406818,-1.536452 0.830153,-1.471682 c 0.456713,-0.809512 0.933625,-1.782533 1.05925,-2.162443 0.320505,-0.969284 0.738028,-0.881091 3.427756,0.720814 1.303269,0.77618 3.015388,1.649542 3.804063,1.941184 1.124799,0.415921 1.381378,0.707065 1.191659,1.349111 -0.315826,1.068846 0.249024,4.376524 0.747397,4.376524 0.212546,0 0.272524,-0.97691 0.133279,-2.170914 -0.174087,-1.492808 -0.09436,-2.170921 0.255232,-2.170921 0.279607,0 0.508717,0.263118 0.508717,0.584363 0,1.363214 1.45223,3.757472 2.278783,3.757472 1.01478,0 1.061449,-0.258621 0.18641,-1.033036 -0.925034,-0.818654 -1.730578,-3.648776 -1.202977,-4.226966 0.2325,-0.254794 1.589937,-2.455159 3.016596,-4.889184 1.426655,-2.434025 2.666833,-4.360739 2.756143,-4.281701 0.0893,0.07904 -0.09961,1.182773 -0.419867,2.4523 -0.655032,2.596599 -0.791206,11.673375 -0.214292,14.274396 0.340518,1.535219 0.29625,1.691448 -0.446868,1.578849 -0.572117,-0.0867 -0.803782,0.09796 -0.756112,0.602084 0.04535,0.479875 -0.436614,0.913379 -1.419009,1.276648 -0.818246,0.302568 -1.627472,0.749615 -1.797938,0.993717 -0.381232,0.54591 2.509852,0.191693 5.896429,-0.72235 2.096251,-0.56559 2.436159,-0.565645 3.791003,0.0014 0.81856,0.342592 2.067009,0.750673 2.773564,0.906604 2.10608,0.464775 1.214344,-0.573506 -1.297055,-1.510239 -1.219685,-0.454935 -2.311296,-0.893685 -2.426001,-0.974446 -0.114706,-0.08075 0.617198,-1.602861 1.627205,-3.382806 2.891618,-5.095947 3.161103,-5.671335 3.495697,-7.466379 0.173359,-0.930042 0.465224,-1.868249 0.648964,-2.085344 0.183739,-0.217088 0.469215,-0.927571 0.634159,-1.578849 0.39366,-1.554353 1.670845,-3.836378 2.448643,-4.375748 0.449299,-0.311571 1.085745,-0.285892 2.329311,0.09328 1.189775,0.362784 2.054216,0.40559 2.838017,0.141856 0.997641,-0.335874 1.127196,-0.605248 1.127196,-2.347501 0,-1.082685 -0.41471,-2.949301 -0.92162,-4.148329 -0.506911,-1.199028 -0.938935,-2.716076 -0.959945,-3.370467 -0.02104,-0.654399 -0.129719,-1.189535 -0.241292,-1.189535 -0.111573,0 -1.435681,0.513491 -2.942552,1.140964 -1.506871,0.627474 -3.241343,1.263625 -3.85459,1.413874 -1.078714,0.264274 -1.071459,0.240809 0.223001,-0.731609 1.449541,-1.08892 0.661887,-1.496033 -0.917262,-0.474117 -1.027112,0.664681 -1.981742,0.161467 -1.981742,-1.044599 0,-0.597061 0.185588,-0.712601 0.780505,-0.484137 1.623738,0.623557 3.602452,0.62993 4.945198,0.01543 2.415372,-1.105403 6.543956,-3.834239 6.416478,-4.240839 -0.06752,-0.215338 0.383928,-0.924119 1.003499,-1.57577 0.619572,-0.651644 1.252951,-1.882123 1.40682,-2.733687 0.153855,-0.851564 0.422121,-1.548008 0.596693,-1.548008 0.573814,0 1.385802,2.048517 1.113256,2.80847 -0.200634,0.559459 -0.04542,0.743934 0.624578,0.743934 0.56097,0 0.972711,0.328981 1.112385,0.888107 0.122039,0.488455 0.181649,0.133213 0.131535,-0.789424 -0.109423,-2.014298 0.230833,-2.14502 0.957337,-0.366964 0.92896,2.273583 0.695735,3.351542 -0.913783,4.220032 -1.540201,0.831089 -3.4565,1.047222 -3.4565,0.390083 0,-0.217088 0.46196,-0.394712 1.026148,-0.394712 0.564194,0 1.266641,-0.212832 1.561003,-0.473342 1.006278,-0.890564 0.535424,-1.116565 -1.081027,-0.518833 -0.888512,0.328552 -2.058673,0.597463 -2.60109,0.597463 -1.266333,0 -1.537679,0.260253 -1.257859,1.207262 0.199953,0.67668 0.63701,0.766299 3.722184,0.766299 4.401747,0 5.503613,-0.429754 6.173443,-2.40836 0.286452,-0.846146 0.714046,-1.538763 0.949492,-1.538763 0.956455,0 0.335656,-1.156492 -1.02179,-1.904176 -0.797229,-0.439116 -2.450714,-1.416732 -3.674272,-2.172457 l -2.224777,-1.374555 0.146346,-2.793046 c 0.140232,-2.686386 0.101153,-2.810659 -1.025282,-3.264874 -0.99945,-0.403009 -1.283536,-0.364044 -1.935566,0.266737 -0.64222,0.621315 -0.647404,0.662363 -0.03224,0.255175 0.627134,-0.415057 0.802721,-0.304983 1.2265,0.770927 0.54614,1.386486 0.664063,3.506152 0.19513,3.506152 -0.164663,0 -0.616229,-0.23171 -1.0035,-0.514979 -2.697992,-1.973512 -13.860836,-4.7829296 -13.860836,-3.488422 0,0.248019 0.376555,0.450991 0.83712,0.450991 1.283725,0 2.087095,1.03588 1.38417,1.785453 -0.3103,0.330884 -0.452877,0.700083 -0.317076,0.820266 0.135794,0.120183 0.741419,-0.42664 1.34671,-1.214978 l 1.101061,-1.433139 0.297043,1.403072 c 0.316407,1.492628 1.148973,1.936637 1.148973,0.612887 0,-0.894696 0.462858,-1.011952 1.249149,-0.316076 0.90622,0.802005 0.619093,1.86137 -0.576666,2.126973 -0.611556,0.135836 -1.000628,0.406621 -0.864126,0.602085 0.292632,0.419035 -1.053299,0.958897 -1.470401,0.58976 -0.157041,-0.138984 -0.0481,-0.463149 0.242163,-0.720046 0.860162,-0.76124 0.611465,-1.09856 -0.810119,-1.09856 -1.541408,0 -1.733051,0.678175 -0.617605,2.184795 0.863504,1.166325 2.552548,1.281325 3.384196,0.230506 0.323112,-0.408255 0.986742,-0.813409 1.474765,-0.900439 0.754586,-0.134563 0.866172,-0.421969 0.743045,-1.921912 -0.136063,-1.657548 -0.103092,-1.716311 0.543558,-0.974446 0.901724,1.034496 0.892719,2.133658 -0.02438,3.030498 -0.407331,0.398331 -0.616832,0.83405 -0.465165,0.968274 0.421145,0.372721 2.855685,-1.591319 2.649867,-2.137761 -0.354097,-0.940138 0.815474,-0.4607 1.229981,0.504183 0.464162,1.080437 0.221559,2.005295 -0.804012,3.062101 -0.97047,1.000021 -1.600435,0.84944 -0.780505,-0.186565 0.381858,-0.48249 0.678776,-1.237377 0.659423,-1.677525 -0.0249,-0.565223 -0.106821,-0.626318 -0.278751,-0.208148 -0.133881,0.325632 -0.738583,1.062508 -1.343225,1.637439 -1.085083,1.031756 -1.088485,1.059927 -0.289204,2.170914 0.44538,0.619073 1.090326,1.280433 1.433819,1.469378 0.468429,0.257672 0.08156,0.620553 -1.549678,1.453185 -5.411091,2.761982 -5.479562,2.784714 -8.074164,2.662766 -1.505344,-0.07075 -2.577674,-0.314823 -2.688198,-0.611343 -0.107687,-0.288909 0.200706,-0.493389 0.744788,-0.493389 0.511046,0 0.929458,-0.167307 0.929458,-0.371586 0,-0.644282 -0.906442,-0.898529 -1.540968,-0.432487 -0.718994,0.528098 -1.355283,-0.09163 -0.980851,-0.955168 0.174348,-0.402102 0.636302,-0.456741 1.835396,-0.217399 1.193222,0.238165 1.770753,0.171299 2.259615,-0.261347 1.055554,-0.934166 0.794726,-1.114614 -1.684692,-1.162547 -4.332758,-0.08377 -6.5785,-0.275401 -6.5785,-0.56123 0,-0.156229 0.451574,-0.562794 1.0035,-0.903525 l 1.003499,-0.619045 -1.226501,-0.02083 c -1.541309,-0.02602 -1.557575,-0.522618 -0.05138,-1.57114 1.111363,-0.773668 1.123467,-0.817948 0.223002,-0.817948 -1.076846,0 -1.280737,-0.593691 -0.316212,-0.921254 0.948169,-0.322006 2.924609,0.624394 2.928619,1.402311 0.002,0.44138 -0.230223,0.598819 -0.665517,0.450984 -0.81533,-0.276888 -0.862967,0.585076 -0.08275,1.492511 0.693606,0.80671 3.918972,1.639812 4.467838,1.15407 0.626944,-0.554857 -0.0909,-1.210356 -1.325799,-1.210356 -1.090542,0 -1.12002,-0.06844 -0.947755,-2.210232 0.156365,-1.944069 0.06649,-2.25063 -0.74391,-2.540957 -0.864094,-0.309564 -0.852213,-0.333091 0.193379,-0.381606 l 1.115,-0.05162 -1.115,-0.455613 c -1.543957,-0.631092 -1.769225,-1.013003 -1.777037,-3.008908 -0.0046,-1.1540286 0.369137,-2.309365 1.108034,-3.4252102 0.986958,-1.4904415 1.388908,-1.7384056 3.494831,-2.1554964 3.08988,-0.6119662 8.039778,-0.3027966 10.46532,0.653741 l 1.917282,0.7562717 -2.025296,2.3089153 c -1.11399,1.2696226 -1.895831,2.4935616 -1.737834,2.7198116 0.174742,0.25022 0.511354,0.117325 0.859769,-0.339208 2.098767,-2.7500596 3.372963,-3.8617321 5.613331,-4.8945812 2.317751,-1.0685207 2.855286,-1.1570526 6.360728,-1.0530826 2.393947,0.071011 4.035127,0.3047548 4.380727,0.6236745 0.45001,0.415264 0.19015,0.4578277 -1.39897,0.2289692 -2.498361,-0.3598088 -2.135535,0.2420753 0.71081,1.1795073 1.17319,0.3863877 2.32363,0.8568233 2.55666,1.045374 0.23304,0.1885437 1.43724,0.3374993 2.676,0.3307248 l 2.25265,-0.012317 -1.784,-1.0045126 c -0.9812,-0.5524974 -3.08855,-1.558387 -4.683,-2.2356692 -2.43922,-1.0361222 -3.4311,-1.23389 -6.251846,-1.2435016 -2.156608,-0.00733 -4.088058,0.2377297 -5.414715,0.6861257 C 89.776293,5.7733995 89.696662,5.7699742 87.90155,4.9419096 86.893522,4.4769199 86.068769,3.9204781 86.068769,3.7053485 c 0,-0.2157247 0.950082,-0.3518441 2.118499,-0.3037445 1.165173,0.047954 2.419546,0.059303 2.787497,0.024704 0.594668,-0.055912 0.594668,-0.097133 0,-0.3685 C 90.606814,2.8899056 88.298769,2.8516945 85.845767,2.9730124 80.56338,3.2342486 24.123164,3.0929879 23.30907,2.8165143 23.000594,2.7117485 18.581474,2.6045124 13.488359,2.5783002 Z m 93.6600053,0.066292 c -0.613247,0 -1.115,0.1776174 -1.115,0.3947122 0,0.2170879 0.501753,0.3947122 1.115,0.3947122 0.613254,0 1.115,-0.1776243 1.115,-0.3947122 0,-0.2170948 -0.501746,-0.3947122 -1.115,-0.3947122 z m 2.415547,0.048577 c -0.15494,-0.00554 -0.331202,0.019306 -0.492171,0.076325 -0.355787,0.1260026 -0.250394,0.2200496 0.269171,0.2389822 0.47015,0.017161 0.73358,-0.076215 0.58538,-0.2073725 -0.0741,-0.0656 -0.20744,-0.1022816 -0.36238,-0.1079347 z m 9.39126,0.059372 c -3.77302,0.018614 -6.36432,0.089065 -6.60376,0.2274192 -0.75423,0.4358089 2.73534,1.2959606 6.1055,1.5048416 1.31349,0.081412 3.1703,0.303281 4.12637,0.4933886 0.95607,0.1901145 2.43092,0.2076078 3.27792,0.038543 1.00899,-0.2013939 1.59637,-0.1581728 1.70299,0.1248885 0.11695,0.3104983 0.96388,0.2998348 3.0105,-0.037021 2.10077,-0.3457478 2.92847,-0.3524807 3.15685,-0.025465 0.17027,0.243826 0.62475,0.3365375 1.00959,0.2058363 0.38486,-0.1307011 0.81899,-0.066707 0.96518,0.1426171 0.14619,0.2093446 0.80541,0.2760238 1.4643,0.1480214 1.69356,-0.3290088 11.17283,-0.5462904 12.87564,-0.2952609 0.78115,0.1151524 1.78465,0.535627 2.23,0.9343527 1.40472,1.2576664 2.29141,0.9759407 2.21519,-0.7038473 -0.053,-1.16728 -0.3081,-1.5779216 -1.2204,-1.9643093 C 142.973,3.0602226 121.01359,2.6497748 109.69454,2.7055553 Z M 96.381616,6.7614221 c -0.955974,0.014047 -1.440865,0.288182 -1.210825,0.8187229 0.141758,0.3269328 -0.06931,0.5545596 -0.530497,0.5712501 -0.637114,0.023043 -0.615992,0.083079 0.12544,0.3569371 0.490599,0.1812087 1.308301,0.2460403 1.817099,0.1441601 0.533662,-0.1068486 1.185201,0.092587 1.540097,0.4710376 0.45314,0.4832095 1.031909,0.5953725 2.1969,0.4247788 0.86993,-0.1273935 2.17362,-0.2334948 2.89726,-0.2359029 1.94551,-0.00623 0.93414,-0.661249 -2.79621,-1.8093543 C 98.765327,6.9935122 97.337583,6.7473403 96.381616,6.7614221 Z m 48.502504,0.6128866 c -0.16503,-0.00913 -0.35216,0.014116 -0.52179,0.071696 -0.60676,0.2060578 -0.81123,3.0261873 -1.4617,20.1349383 -0.0891,2.343549 -0.26669,4.410763 -0.39459,4.593923 -0.12791,0.18316 -0.33631,4.216115 -0.46256,8.961962 -0.34767,13.069756 -0.63805,19.162064 -0.9765,20.470293 -0.39655,1.532874 -0.42142,1.937018 -0.76046,12.383318 -0.15764,4.856847 -0.39259,8.983088 -0.52265,9.169349 -0.13008,0.186253 -0.21398,3.405821 -0.18642,7.154926 0.0466,6.335151 0.0647,13.282546 0.0601,22.407616 -6.6e-4,2.06237 0.0339,4.9931 0.0767,6.51275 0.0512,1.81698 -0.0897,2.73644 -0.41028,2.68511 -2.13774,-0.34218 -17.57519,-0.47083 -17.57519,-0.14647 0,0.79728 1.66284,1.13989 4.78754,0.98678 2.32598,-0.11399 3.30083,-0.015 3.55667,0.36156 0.19385,0.28534 0.95489,0.78758 1.69079,1.11552 0.7359,0.32795 2.18645,0.99515 3.22392,1.48326 1.03746,0.48811 2.14132,0.80943 2.453,0.71387 0.31168,-0.0956 -1.0887,-0.84643 -3.11242,-1.66904 -2.02372,-0.82261 -3.6795,-1.64868 -3.6795,-1.83557 0,-0.4319 1.46939,-0.4442 2.02965,-0.0169 0.38267,0.29186 7.70188,2.8556 9.72402,3.40594 0.47599,0.12954 0.72533,0.45804 0.58799,0.77477 -0.13122,0.30258 -0.11257,0.6613 0.041,0.79714 0.15349,0.13583 0.45623,-0.0336 0.67336,-0.37699 0.26067,-0.41222 0.15231,-0.95288 -0.31969,-1.59041 -0.39319,-0.53106 -0.55985,-0.97767 -0.37022,-0.99294 0.74484,-0.0599 -1.50563,-0.70799 -2.55405,-0.73547 -1.35035,-0.0354 -4.47867,-1.65253 -3.67165,-1.89801 0.31072,-0.0945 1.27529,0.19872 2.14376,0.65221 1.86518,0.97393 2.82992,1.03308 4.00703,0.24515 0.8173,-0.54709 0.81983,-0.58023 0.0479,-0.59207 -0.46226,-0.007 -0.72882,-0.2268 -0.61326,-0.50573 0.11243,-0.27136 0.4305,-0.44898 0.70646,-0.39471 0.27596,0.0542 0.50175,-0.0789 0.50175,-0.29603 0,-0.21709 -0.32271,-0.39472 -0.71691,-0.39472 -0.43759,0 -0.62125,-0.21962 -0.47213,-0.56354 0.13433,-0.30981 0.0226,-1.08253 -0.24827,-1.71762 -0.27747,-0.65057 -0.3363,-1.4822 -0.13501,-1.90417 0.1965,-0.41192 0.39364,-3.23525 0.43815,-6.27453 0.0445,-3.03929 0.22539,-5.91074 0.40245,-6.38093 0.18733,-0.49751 0.11895,-0.96551 -0.16376,-1.12015 -0.34321,-0.18772 -0.34717,-0.41387 -0.013,-0.77014 0.2601,-0.27737 0.45141,-1.54975 0.42509,-2.826972 -0.0446,-2.163945 0.3061,-10.665063 0.49478,-11.99246 0.0463,-0.325639 0.0562,-1.21374 0.0218,-1.973561 -0.0344,-0.759822 0.0431,-2.980074 0.1716,-4.9339 0.12858,-1.953826 0.30883,-5.162958 0.40071,-7.131032 0.0919,-1.968067 0.38616,-3.940997 0.65419,-4.384231 0.33966,-0.561653 0.35122,-1.24299 0.0375,-2.248776 -0.24764,-0.793721 -0.32845,-1.617572 -0.17944,-1.830944 0.33253,-0.476165 0.62649,-4.842585 0.90245,-13.416354 0.11529,-3.582006 0.31222,-7.756091 0.43816,-9.275727 0.12595,-1.519643 0.29825,-5.269253 0.38241,-8.332897 0.0842,-3.063644 0.2991,-5.780578 0.47823,-6.037088 0.17913,-0.25651 0.0857,-0.722759 -0.20819,-1.036122 -0.31096,-0.331597 -0.39081,-0.860138 -0.19077,-1.265085 0.18904,-0.382672 0.31096,-0.83176 0.27091,-0.997572 -0.04,-0.165805 -0.16824,-2.830114 -0.28485,-5.920676 -0.22566,-5.981543 -0.7534,-10.7527371 -1.23608,-11.1799101 -0.0808,-0.071488 -0.22348,-0.1134224 -0.38851,-0.1225773 z M 92.878946,8.8976469 c -0.672091,-0.044218 -0.432077,0.396975 1.107155,1.1347981 1.576246,0.755559 3.232635,1.092401 3.232635,0.657596 0,-0.108032 -1.003238,-0.624519 -2.229135,-1.1479048 C 94.013174,9.1252599 93.282194,8.9241774 92.878946,8.8976469 Z M 74.765418,10.886625 c -0.713364,0 -0.797806,0.104953 -0.381536,0.473349 0.294362,0.26051 0.534848,0.793369 0.534848,1.184137 0,1.216604 0.666749,0.775709 0.716909,-0.474117 0.03795,-0.944553 -0.138042,-1.183369 -0.870221,-1.183369 z m -3.147262,1.987435 c 0.331775,-6.92e-4 0.624578,0.177611 0.624578,0.535794 0,0.573589 -1.077396,1.128854 -1.486955,0.766298 -0.129831,-0.114813 -0.128068,-0.458028 0.0046,-0.762444 0.155481,-0.358556 0.526263,-0.538831 0.858032,-0.539648 z m -0.267421,1.959687 c 0.245296,0 0.445996,0.177618 0.445996,0.394713 0,0.217087 -0.2007,0.394712 -0.445996,0.394712 -0.245303,0 -0.446003,-0.177625 -0.446003,-0.394712 0,-0.217095 0.2007,-0.394713 0.446003,-0.394713 z m 2.19254,0.837995 c 0.154937,0.0055 0.288274,0.04235 0.362381,0.107928 0.1482,0.131158 -0.115223,0.224513 -0.585375,0.207372 -0.519572,-0.01896 -0.624958,-0.112979 -0.269171,-0.238982 0.16098,-0.05702 0.337228,-0.08197 0.492165,-0.07632 z m 16.468904,0.938207 0.03572,1.404622 c 0.01933,0.772603 -0.216035,1.686943 -0.522659,2.032151 -0.646866,0.72826 -2.267865,1.233115 -2.708232,0.843385 -0.558427,-0.49417 -0.309337,-0.925108 0.534841,-0.925108 0.987909,0 1.547339,-0.554262 2.189932,-2.170913 z m -50.299574,0.646807 c 0.127733,0.01681 0.275336,0.06428 0.412899,0.139538 0.337927,0.184828 0.464772,1.959113 0.391121,5.467374 -0.11357,5.409712 -0.419941,7.482724 -0.986949,6.67079 -0.347892,-0.49817 -0.44969,-11.929068 -0.108887,-12.230675 0.05624,-0.04975 0.164084,-0.0638 0.291816,-0.04705 z m 52.405877,3.680378 c -0.306774,-0.02629 -0.903258,0.232554 -1.648983,0.787881 l -1.435563,1.0685 1.259603,-0.131054 c 0.692963,-0.07238 1.473854,-0.433809 1.735219,-0.803305 0.413006,-0.583865 0.396498,-0.895706 0.08972,-0.922022 z m -19.754666,1.167944 c 0.672601,0.132023 1.14837,0.844901 1.303156,2.018277 0.189598,1.437284 0.07112,1.568857 -0.914647,1.016076 -0.379721,-0.212936 -0.492723,-0.651769 -0.304016,-1.177971 0.240467,-0.670508 0.116062,-0.838763 -0.621091,-0.838763 -1.097771,0 -1.222674,-0.602943 -0.196866,-0.951313 0.263259,-0.08941 0.509263,-0.110309 0.733464,-0.06629 z m 15.983704,5.946896 c -0.313839,0.07399 -0.117871,0.663775 0.832762,1.710678 5.161063,5.683735 7.674422,16.899898 5.145551,22.963448 -0.407435,0.976909 -0.746158,2.353472 -0.752626,3.059021 -0.0076,0.831442 -0.2312,1.282813 -0.635896,1.282813 -1.202063,0 -0.593967,0.796836 3.277925,4.294808 2.146371,1.939086 4.069604,3.542141 4.273584,3.56243 0.69372,0.06892 -1.641902,-2.91617 -3.797966,-4.854502 -1.181511,-1.062196 -2.14472,-2.127914 -2.141155,-2.368266 0.0033,-0.240353 0.505469,-1.858077 1.115,-3.594815 0.609558,-1.736731 1.108001,-3.664836 1.108034,-4.284781 3.9e-5,-0.619937 0.318354,-2.213885 0.707329,-3.54239 0.532646,-1.819152 0.596725,-2.758993 0.258717,-3.806809 -0.246836,-0.765198 -0.80854,-2.546043 -1.248278,-3.957142 -0.439737,-1.411092 -1.012929,-2.920868 -1.273541,-3.355051 -1.152591,-1.920223 -3.002437,-4.202559 -4.642055,-5.727953 -1.089979,-1.014041 -1.913572,-1.455489 -2.227385,-1.381489 z m -3.951287,0.269824 c 0.183975,-0.07361 0.334502,0.334233 0.334502,0.905829 0,0.571603 0.310909,1.570919 0.690774,2.221027 0.450014,0.77016 0.644271,1.967063 0.557503,3.434462 -0.146089,2.470638 0.03637,2.37347 -3.581068,1.893381 -1.93575,-0.256904 -2.051438,-0.215261 -2.88245,1.032261 -0.476155,0.714815 -1.593167,3.164791 -2.482616,5.444255 -1.900368,4.87021 -3.668329,8.511297 -4.300587,8.857121 -0.247649,0.135455 -0.343376,0.493119 -0.212555,0.794815 0.130826,0.301724 0.01409,0.918001 -0.258712,1.369165 -0.69468,1.148763 -2.24829,1.087931 -2.24829,-0.08789 0,-0.499312 -0.236272,-1.116475 -0.525267,-1.372238 -1.041883,-0.92207 -0.997496,-6.771465 0.08014,-10.579368 0.548027,-1.936499 1.068201,-4.19409 1.155939,-5.017159 0.254249,-2.38497 3.111048,-5.089947 6.315437,-5.979266 1.409624,-0.391218 3.566251,-1.177321 4.792752,-1.74691 1.2265,-0.569589 2.380526,-1.095881 2.564502,-1.169487 z M 39.63682,30.227517 c 0.637614,0 0.93991,1.091806 0.93991,3.395912 0,1.876476 0.133538,2.200406 1.058379,2.573335 1.121543,0.452243 3.863357,3.411896 4.734395,5.109669 0.405654,0.790677 0.390454,1.273568 -0.07143,2.197901 -0.563455,1.127595 -0.678359,1.168456 -2.376344,0.857259 -1.672921,-0.306596 -1.784,-0.412676 -1.784,-1.713751 0,-1.308257 0.07002,-1.374244 1.2265,-1.149447 1.590573,0.309176 1.546421,0.0055 -0.223,-1.531822 -0.797225,-0.69272 -1.650201,-1.551668 -1.8955,-1.909574 -0.2453,-0.357906 -0.927543,-0.77665 -1.516575,-0.930505 -0.869991,-0.227239 -1.019897,-0.160256 -0.795309,0.357712 0.208518,0.480898 0.0064,0.637549 -0.824054,0.637549 -1.208154,0 -1.492758,-0.681414 -0.434676,-1.040745 0.366542,-0.12448 0.569766,-0.365275 0.451226,-0.535018 -0.11854,-0.169743 0.08336,-0.528091 0.448614,-0.796365 0.461087,-0.338662 0.663773,-1.257258 0.663773,-3.005054 0,-1.384513 0.179034,-2.517056 0.39809,-2.517056 z m -1.204722,8.689828 c 0.414798,-0.0035 0.878028,0.171458 1.029632,0.388546 0.348854,0.499547 -0.241566,0.499547 -1.115,0 -0.576538,-0.329742 -0.564578,-0.383336 0.08537,-0.388546 z m -0.73172,0.922021 c 0.886059,0.116744 2.467899,0.634207 3.027052,1.063878 0.205349,0.157792 0.205349,0.368327 0,0.467176 -0.813704,0.391702 -4.178419,-1.000084 -3.617653,-1.496358 0.07713,-0.06823 0.295248,-0.07359 0.590601,-0.03467 z m -0.879804,1.632048 c 0.177922,-0.01557 0.720597,0.141808 1.796196,0.45715 1.200661,0.352017 2.373277,0.793922 2.606312,0.982155 0.251812,0.203407 0.07088,0.320262 -0.446,0.288327 -1.883449,-0.116405 -2.816013,-0.416773 -3.563645,-1.147898 -0.384362,-0.375876 -0.570785,-0.564157 -0.392863,-0.579734 z m 12.107333,0.603628 c 1.953814,0.01495 2.189606,0.843579 0.867608,3.052849 -0.422188,0.70555 -0.812581,1.270517 -0.867608,1.255833 -1.438508,-0.384104 -2.086327,-0.989939 -1.831911,-1.713757 0.734015,-2.088305 1.095397,-2.600564 1.831911,-2.594925 z m 40.597329,1.975873 c -0.561546,0.0085 -3.010504,2.787267 -3.010504,3.415958 0,0.185845 -0.789948,1.533877 -1.755254,2.995795 -0.965306,1.461932 -1.617578,2.648145 -1.449502,2.635786 0.754494,-0.0555 6.772757,-7.769764 6.772757,-8.681351 0,-0.206216 -0.250873,-0.370804 -0.557497,-0.366188 z m -0.498266,6.819579 c -0.294408,-0.260552 -2.899934,4.594434 -4.067139,7.57893 -0.424508,1.08546 -0.979586,2.471385 -1.233467,3.079829 -0.269767,0.646517 -1.142295,1.413493 -2.099337,1.845593 -0.900689,0.406656 -2.25103,1.246456 -3.000917,1.866401 l -1.363265,1.12709 -1.58103,-0.88579 C 74.812,64.995359 73.963313,64.400921 73.795892,64.161184 c -0.170679,-0.244414 0.635024,-1.199381 1.834524,-2.174 2.519781,-2.047388 2.496045,-2.577085 -0.04266,-0.944379 -3.67013,2.360336 -4.457313,2.699289 -7.763188,3.340401 -3.69549,0.716684 -4.518895,1.116599 -3.732637,1.812441 0.37121,0.328538 0.886215,0.319895 1.984352,-0.03162 0.815812,-0.261112 2.561216,-0.730523 3.878108,-1.043056 2.339581,-0.555244 2.416453,-0.546553 3.375487,0.369275 0.539822,0.515491 1.268384,1.02267 1.619368,1.127083 0.501268,0.149136 0.524434,0.311772 0.108014,0.75859 -0.29157,0.312858 -0.647115,2.340539 -0.790951,4.505266 -0.143835,2.164727 -0.456619,4.912468 -0.695132,6.106473 -0.23852,1.194004 -0.626984,3.414256 -0.863256,4.933899 -0.236272,1.519643 -0.837696,4.272761 -1.336258,6.118036 -0.498581,1.845282 -0.993662,4.47084 -1.100195,5.834338 -0.232825,2.979983 -0.53302,4.312515 -1.635044,7.255909 -0.691613,1.84723 -0.760851,2.60294 -0.396347,4.34801 0.652587,3.12421 0.283464,10.35305 -0.671612,13.15192 -0.444482,1.30255 -0.83232,2.72351 -0.862381,3.15769 -0.03733,0.53915 -0.335566,0.76275 -0.93904,0.7054 -2.450484,-0.23288 -4.320759,-0.17279 -7.57329,0.24361 -1.9624,0.25123 -6.47815,0.7228 -10.035,1.04768 -3.556851,0.32489 -8.873732,0.84261 -11.815517,1.15099 -5.471134,0.57357 -9.536557,0.81111 -20.519485,1.19725 -3.434201,0.12074 -7.4983763,0.3233 -9.0315016,0.45022 -2.4974181,0.20674 -2.7875198,0.32137 -2.7875198,1.10087 0,0.84356 0.1175163,0.86421 3.8519767,0.69075 3.2085517,-0.14904 3.9181097,-0.073 4.2509387,0.4533 0.219748,0.34751 1.0953,0.92399 1.946023,1.28127 0.850723,0.35727 1.547063,0.81083 1.547063,1.0076 0,0.19676 -0.817578,-0.012 -1.817102,-0.46333 -0.999524,-0.45128 -2.053199,-0.74784 -2.3415,-0.65991 -0.288301,0.0879 0.967434,0.82687 2.790985,1.64283 1.82355,0.81597 4.613203,2.0926 6.198703,2.83699 3.185955,1.49583 4.809272,1.62572 2.043586,0.16344 -2.430522,-1.28507 -1.224359,-1.46049 1.638528,-0.23821 2.323044,0.9918 3.986073,1.29025 3.962605,0.71079 -0.0066,-0.16282 -1.361319,-0.8137 -3.0105,-1.44625 -1.649181,-0.63255 -4.403205,-1.73434 -6.120305,-2.44845 -1.7171,-0.71411 -3.905778,-1.57556 -4.863317,-1.9142 -0.957538,-0.33865 -1.659988,-0.68288 -1.561,-0.76552 0.09899,-0.0826 1.484867,-0.241 3.079317,-0.35155 2.64329,-0.18325 3.15471,-0.0847 5.798,1.11862 9.315211,4.2404 11.958865,4.94622 4.469582,1.19338 -2.466953,-1.23618 -4.375363,-2.40564 -4.240484,-2.59878 0.327447,-0.46889 1.162105,-0.156 5.122902,1.92114 6.017375,3.15567 8.474001,4.21471 8.474001,3.65263 0,-0.18656 -2.188211,-1.34948 -4.862446,-2.58413 -2.674234,-1.23465 -5.23316,-2.49371 -5.6865,-2.79768 -0.768443,-0.51524 -0.737466,-0.55336 0.452969,-0.56508 0.73074,-0.007 2.991035,0.84302 5.284926,1.98743 2.204592,1.09986 4.083685,1.93348 4.175153,1.85253 0.223926,-0.19818 -3.826518,-2.84142 -4.902516,-3.19933 -0.659061,-0.21922 -0.733153,-0.39113 -0.32579,-0.75165 0.611896,-0.54153 2.582863,0.25709 4.776208,1.93502 1.538342,1.17684 4.642579,2.6492 4.971332,2.35825 0.125671,-0.11123 -0.855969,-0.81625 -2.181219,-1.56651 -2.856941,-1.6174 -3.971852,-2.62807 -2.898129,-2.62807 0.383509,0 0.825749,0.18399 0.982594,0.40858 0.330278,0.47295 7.400862,3.62483 7.64559,3.40824 0.194252,-0.1719 -3.878368,-2.59927 -6.096785,-3.63412 l -1.558387,-0.72698 1.884176,-0.34151 c 1.74693,-0.3162 2.072555,-0.2297 4.46,1.18568 3.651578,2.16479 5.53027,3.11845 6.812825,3.45758 l 1.115,0.29448 -0.868481,-0.86034 c -0.477571,-0.47309 -2.021429,-1.40415 -3.431238,-2.06915 -1.40981,-0.66502 -2.907044,-1.54466 -3.326707,-1.95507 -0.724684,-0.70867 -0.716812,-0.74624 0.150699,-0.74624 0.502374,0 1.015985,0.23744 1.142004,0.52807 0.12602,0.29064 1.36566,1.00464 2.754398,1.58656 1.388739,0.58192 3.55434,1.67119 4.811922,2.4207 1.257578,0.74951 2.382635,1.27725 2.50091,1.17257 0.274392,-0.24284 -1.20045,-1.28101 -2.507007,-1.76464 -0.551925,-0.2043 -1.0035,-0.55308 -1.0035,-0.77555 0,-0.55805 0.171184,-0.5214 1.981738,0.42401 2.882463,1.50512 1.646281,0.19289 -1.524414,-1.61817 -1.710316,-0.97691 -3.114631,-1.90941 -3.121128,-2.07224 -0.02761,-0.69155 1.21023,-0.1828 3.601974,1.48018 1.405025,0.9769 2.68624,1.7762 2.846733,1.7762 0.160493,0 1.194852,0.54971 2.298814,1.22191 1.103971,0.6722 2.126395,1.11625 2.272687,0.98678 0.311843,-0.27598 0.480582,-0.15099 -2.335403,-1.73458 -2.72139,-1.53039 -6.127911,-4.12665 -4.926909,-3.75516 0.478901,0.14814 2.768861,1.12477 5.088931,2.17015 4.09813,1.84655 5.763258,2.32619 5.182137,1.49405 -0.155912,-0.22326 -2.095683,-1.2113 -4.310171,-2.19559 -2.214493,-0.98428 -3.908869,-1.89314 -3.765739,-2.01981 0.235872,-0.20875 4.653069,1.31361 6.677807,2.3012 0.453163,0.22103 0.92524,0.3121 1.048796,0.20275 0.12356,-0.10935 -0.899609,-0.76001 -2.273557,-1.44625 -2.337387,-1.16745 -2.876677,-1.96199 -1.331029,-1.96199 0.367937,0 0.545338,0.17761 0.393734,0.39471 -0.151605,0.21709 0.08101,0.39471 0.516557,0.39471 0.43555,0 1.644108,0.28786 2.685585,0.63986 2.120984,0.71687 4.417077,0.40133 2.372858,-0.32609 -0.61325,-0.21823 -1.666925,-0.38996 -2.341501,-0.38162 -0.674575,0.008 -1.226379,-0.19491 -1.226499,-0.45176 -1.52e-4,-0.32222 1.002233,-0.44855 3.2335,-0.40626 l 3.2335,0.0617 -0.156796,1.12247 c -0.503846,3.61692 -3.192597,7.35867 -8.048909,11.19841 -1.503337,1.18864 -3.684062,2.9224 -4.845893,3.85306 l -2.112403,1.69218 2.23,-0.91663 c 3.420687,-1.40604 5.603888,-2.76852 7.84507,-4.89535 2.395368,-2.27315 5.152013,-6.98532 6.004449,-10.26329 1.754629,-6.74727 2.084963,-7.93209 2.515722,-9.01824 0.258279,-0.65128 0.560649,-4.11487 0.671612,-7.69688 0.152113,-4.9103 0.398838,-6.99835 1.001756,-8.48631 0.444902,-1.09798 0.818574,-3.170296 0.84235,-4.671013 0.06514,-4.112409 2.548557,-13.974879 3.8363,-15.234193 0.955266,-0.934159 0.939708,-2.453518 -0.02176,-2.126966 -0.610233,0.207234 -0.680761,0.01052 -0.4643,-1.295151 0.140388,-0.846762 0.388863,-3.404548 0.552273,-5.684005 0.253888,-3.541559 0.437615,-4.259322 1.260481,-4.933906 1.788906,-1.466547 8.943959,-5.95423 11.309406,-7.09325 2.823757,-1.359706 3.566015,-2.039306 2.885064,-2.641944 -0.264805,-0.234346 -0.375369,-0.670639 -0.24565,-0.969824 0.29064,-0.6703 -0.820199,-0.72114 -1.554901,-0.07093 -0.294362,0.26051 -0.534854,0.860968 -0.534854,1.333694 0,0.472733 -0.301047,1.080402 -0.668998,1.350662 -0.558689,0.410344 -0.669004,0.354128 -0.669004,-0.340752 0,-0.457654 0.189382,-1.589761 0.420739,-2.515519 0.231364,-0.925752 0.654292,-2.625725 0.939911,-3.778286 0.2856,-1.152555 0.402554,-2.199348 0.25959,-2.325869 z m -8.149954,5.013304 c -0.472617,0 -1.470428,1.339846 -1.469536,1.973561 4.45e-4,0.411361 0.26862,0.307439 0.878059,-0.339977 0.87608,-0.930685 1.130427,-1.633584 0.591477,-1.633584 z m 14.803366,1.211117 c -0.173012,-0.0048 -0.24565,0.101977 -0.24565,0.304512 0,0.182524 1.358697,1.559086 3.019214,3.059022 1.660514,1.499928 3.598324,3.41811 4.306694,4.262422 1.41579,1.687525 1.31243,2.17097 -0.75612,3.537761 -1.3141,0.868303 -5.243826,0.957382 -8.657794,0.196592 -1.748851,-0.38973 -4.572857,-0.17851 -4.030552,0.301426 0.479458,0.424322 5.991774,1.39079 8.237064,1.443934 l 2.34149,0.0555 v 2.870138 2.870914 l -2.277902,1.995151 c -1.720593,1.506793 -2.97524,3.249973 -5.129004,7.126403 -1.568172,2.822461 -2.851091,5.276443 -2.851091,5.4535 0,0.534983 -3.172788,5.712805 -4.019227,6.559 -0.434298,0.434183 -1.43901,1.943958 -2.232609,3.35506 -0.793604,1.41108 -1.869428,3.09848 -2.390284,3.74975 -0.619964,0.77521 -1.039511,2.07017 -1.214305,3.74977 -0.98627,9.47694 -2.28134,14.38447 -4.160342,15.76458 -0.385875,0.28342 -0.701234,0.9463 -0.701234,1.47323 0,1.24509 -0.995642,2.93923 -3.40423,5.79348 -1.07159,1.26987 -2.275272,2.91922 -2.675131,3.66496 -0.83887,1.5645 -2.050931,2.26749 -3.303188,1.91574 -0.935378,-0.26274 -1.165523,0.36958 -0.481716,1.32445 0.31299,0.43706 0.633869,0.4151 1.818845,-0.1272 0.791252,-0.36213 1.493691,-0.60145 1.561002,-0.53117 0.06731,0.0703 0.254556,0.77666 0.416381,1.56959 l 0.294428,1.44163 -4.227417,0.13722 c -2.555308,0.0829 -4.444926,0.32933 -4.776205,0.62291 -0.433789,0.38443 0.190116,0.45368 2.989591,0.33304 1.945358,-0.0838 4.64049,-0.26658 5.989645,-0.40628 2.285521,-0.23665 2.666153,-0.14763 5.575,1.30594 1.7171,0.85805 3.270474,1.47907 3.452142,1.37996 0.181669,-0.0991 -0.101093,-0.69598 -0.628057,-1.32676 -0.733248,-0.87772 -1.666081,-1.30883 -3.976545,-1.83557 -2.891251,-0.65915 -3.033467,-0.74749 -3.350223,-2.08842 -0.181911,-0.77011 -0.289446,-1.552 -0.239555,-1.73766 0.04987,-0.18567 -0.130381,-0.57363 -0.400705,-0.8619 -0.368639,-0.3931 -0.288982,-0.71137 0.31882,-1.27356 2.315666,-2.14195 3.876623,-3.97892 5.314545,-6.25449 1.558781,-2.46683 2.089657,-2.9026 2.616766,-2.14778 0.377145,0.54005 4.212089,2.78379 4.75792,2.78379 0.253849,0 -0.373475,-0.83905 -1.393751,-1.86486 -1.020283,-1.0258 -1.631735,-1.93084 -1.358907,-2.01133 0.732972,-0.21623 3.133133,0.88433 5.389458,2.47158 1.092417,0.76848 2.151325,1.39878 2.352825,1.40076 0.439783,0.005 -0.230872,-0.60538 -2.978275,-2.70979 -2.360093,-1.80776 -2.188687,-2.07807 1.413786,-2.22719 2.03799,-0.0844 3.149045,0.15108 6.082847,1.29052 1.974087,0.7667 4.2879,1.81319 5.142065,2.3251 1.643596,0.98501 4.122169,1.39143 2.590637,0.42478 -0.419002,-0.26446 -1.917137,-1.10273 -3.329324,-1.86255 l -2.56711,-1.38149 1.408562,-0.12181 c 1.027708,-0.089 2.380815,0.37362 5.000074,1.71067 4.1218,2.10406 5.69771,2.23584 2.16728,0.18118 -1.29958,-0.75636 -2.36328,-1.64176 -2.36328,-1.9674 0,-0.93894 2.87177,-0.49402 4.68301,0.72544 2.18498,1.47111 4.29932,2.43226 5.35025,2.43226 1.90836,0 0.79619,-0.77803 -3.67775,-2.57257 -2.786,-1.11749 -2.0245,-2.16398 1.57493,-2.16398 1.14321,0 1.67664,-0.139 1.41292,-0.3685 -0.6176,-0.53745 -27.356329,0.47002 -28.603237,1.07776 -1.040729,0.50722 -3.709123,0.65485 -3.709123,0.20506 0,-0.14855 0.388306,-0.99225 0.863261,-1.87488 0.474943,-0.88264 1.096251,-2.7596 1.379813,-4.17069 0.283555,-1.4111 0.701168,-3.18731 0.92858,-3.94712 0.227418,-0.75982 0.589045,-2.80246 0.803153,-4.53919 0.4284,-3.475 1.259792,-5.32875 4.250938,-9.473085 1.096781,-1.519643 2.00266,-2.961092 2.013093,-3.203174 0.02995,-0.695855 1.833889,-2.549891 2.256135,-2.318935 0.209777,0.114737 0.804674,1.226652 1.322319,2.470804 1.198197,2.879819 3.894187,7.50272 5.100254,8.7461 0.511242,0.52705 1.932958,1.7704 3.159458,2.76299 4.721136,3.82075 6.751696,5.91282 8.106406,8.35293 0.84063,1.51417 2.41241,3.40174 3.91556,4.70109 3.0715,2.65503 3.69139,3.52128 2.85371,3.99106 -0.47522,0.2665 -0.48107,0.33982 -0.0252,0.3446 0.31833,0.003 1.07096,0.47634 1.6725,1.05077 2.41687,2.30797 0.57218,-1.09141 -3.57323,-6.58445 -4.05846,-5.37783 -4.17212,-5.53817 -4.71262,-6.65228 -0.72626,-1.49704 -2.57808,-3.25286 -4.6708,-4.42741 -1.86906,-1.04901 -5.260222,-4.43971 -6.069785,-6.06946 -0.21747,-0.4378 -1.280868,-2.26173 -2.363284,-4.052735 -1.082416,-1.791003 -1.880196,-3.256374 -1.772673,-3.256374 0.107529,0 -0.11095,-0.524369 -0.485199,-1.164865 -0.393372,-0.673096 -0.680322,-2.187875 -0.680322,-3.589411 0,-2.092872 0.122111,-2.452978 0.891999,-2.631156 0.490599,-0.113547 0.904063,-0.496509 0.919005,-0.851101 0.01494,-0.354591 0.988538,-2.154264 2.163797,-3.999539 1.905905,-2.992481 2.28944,-3.368669 3.544481,-3.479171 1.564171,-0.137718 1.490041,-0.250185 2.270071,3.479171 0.53216,2.544299 1.11432,4.406209 2.74482,8.783881 0.46525,1.249141 0.84583,3.247371 0.84583,4.440511 0,1.193139 0.2007,2.169377 0.44599,2.169377 0.69274,0 0.52632,0.84607 -0.33101,1.684462 -0.7424,0.72601 -0.73015,0.79236 0.27266,1.511 0.57696,0.41347 1.34148,0.75165 1.69863,0.75165 0.35714,0 1.30665,0.44405 2.11066,0.98678 0.80401,0.54273 1.66853,0.98678 1.92076,0.98678 0.70689,0 3.97297,3.29307 4.95217,4.99326 1.35326,2.34968 3.10903,8.95581 3.65598,13.75556 0.43627,3.82845 0.63283,4.47018 1.66466,5.42729 1.12206,1.04082 2.3415,1.43914 2.3415,0.76476 0,-0.17648 -0.6021,-0.83155 -1.338,-1.4555 -1.4704,-1.24674 -1.50494,-1.32686 -0.92336,-2.14008 0.34146,-0.47746 0.57243,-0.46128 1.55403,0.10792 0.63418,0.36776 1.15333,0.49579 1.15333,0.28448 0,-0.21131 -0.34979,-0.55702 -0.77702,-0.76861 -1.5738,-0.77946 -0.15254,-0.85851 1.48348,-0.0825 3.04747,1.44551 2.55761,0.20127 -0.6237,-1.58425 -2.45605,-1.37846 -2.75691,-1.40646 -2.76573,-0.25749 -0.005,0.71816 -0.0894,0.77481 -0.43903,0.29604 -0.23779,-0.32564 -0.43761,-2.27946 -0.44426,-4.34183 -0.0135,-4.16329 -0.60642,-6.55743 -2.48175,-10.02892 -1.75589,-3.25041 -4.1121,-5.17987 -9.58725,-7.84876 -1.08922,-0.53094 -1.32488,-0.82108 -0.94253,-1.15946 0.38236,-0.33839 0.35001,-0.60639 -0.12805,-1.073896 -0.35056,-0.342813 -0.8569,-2.188711 -1.12545,-4.101309 -0.26855,-1.912597 -0.76695,-4.218849 -1.10803,-5.125086 -0.60086,-1.596488 -1.45924,-5.05274 -1.90073,-7.652937 -0.11851,-0.697945 -0.49588,-1.474817 -0.83799,-1.726096 -0.87547,-0.643029 -0.77435,-1.053594 0.33537,-1.365304 1.31291,-0.368783 2.92657,-2.070355 3.53839,-3.731266 0.27989,-0.759821 0.82601,-1.602971 1.21342,-1.874109 0.63301,-0.443013 0.6094,-0.571423 -0.22909,-1.262774 -1.26892,-1.046232 -2.59767,-4.618383 -1.96781,-5.29006 0.26147,-0.278813 0.35584,-1.142577 0.21082,-1.933475 -0.21696,-1.183147 -1.02457,-2.047354 -4.67952,-5.007906 -3.097941,-2.509362 -4.522861,-3.536059 -5.041895,-3.550867 z m -33.024036,2.390631 c -0.243967,0.01301 -0.632683,0.107381 -1.168137,0.287552 -0.592739,0.199442 -2.124727,1.195222 -3.404234,2.213318 L 55.757282,63.8374 52.558624,63.5961 c -1.759586,-0.132833 -3.377282,-0.338551 -3.594132,-0.457157 -0.533466,-0.291794 -4.799394,0.666135 -6.046261,1.357595 -0.663471,0.367926 -1.0035,0.942366 -1.0035,1.695254 0,1.09373 0.08373,1.139089 2.1185,1.150216 l 2.1185,0.01156 -1.464309,1.178739 c -1.014034,0.816253 -1.575933,1.709481 -1.828425,2.905602 -0.410422,1.944249 -0.0097,2.886054 1.435562,3.372786 1.508127,0.507893 4.641394,0.144409 5.98703,-0.694602 0.672023,-0.419008 2.098202,-1.154631 3.169035,-1.634353 2.258611,-1.011841 5.32355,-3.715094 5.694341,-5.022555 0.217612,-0.767336 0.391209,-0.838334 1.158556,-0.474892 0.923809,0.43756 3.02756,-0.07306 3.01137,-0.730834 -0.01254,-0.508841 -3.560159,-3.437992 -3.560159,-2.939524 0,0.255244 0.168646,0.464083 0.374569,0.46409 0.205927,0 0.603,0.444051 0.882419,0.986784 0.713248,1.385399 0.07472,1.22713 -1.32842,-0.329181 l -1.186427,-1.315966 2.489586,-1.71993 c 1.829737,-1.264711 2.401786,-1.953328 1.669887,-1.914196 z m 15.715404,4.059672 c -0.11226,-0.09935 -0.458015,0.09004 -0.768308,0.420925 -0.351784,0.375129 -0.385462,0.601317 -0.08972,0.601317 0.539016,0 1.16733,-0.748508 0.858032,-1.022242 z m -20.941968,0.672245 c 0.484035,-0.01467 1.43295,0.834978 1.43295,1.385351 0,0.299053 -0.193649,0.543494 -0.430319,0.543494 -0.531913,0 -1.519031,-1.564338 -1.177721,-1.866401 0.04604,-0.04076 0.105943,-0.06034 0.17509,-0.06242 z m -3.976545,0.469488 c 2.29373,0.01045 2.51119,0.205435 3.176881,0.954406 0.867988,0.976563 0.872737,1.052557 0.117597,2.091509 -0.431019,0.593006 -1.386084,1.511768 -2.121983,2.041403 -0.735901,0.529641 -2.140801,1.384139 -3.122001,1.898778 -1.594383,0.836251 -1.70079,0.850256 -1.000017,0.136458 0.750498,-0.764451 0.746988,-0.828908 -0.09407,-1.502529 -0.847903,-0.679103 -0.92797,-0.667415 -2.26833,0.330724 -0.764004,0.568946 -1.557548,1.034579 -1.763965,1.034579 -0.206417,0 -0.74319,0.122169 -1.192527,0.27136 -0.744058,0.24705 -0.757374,0.206092 -0.148086,-0.4587 0.36795,-0.401459 1.2711,-1.055767 2.007,-1.453953 0.882217,-0.477362 1.080904,-0.724648 0.583633,-0.725437 -0.414798,-6.92e-4 -0.878029,0.176075 -1.029633,0.393169 -0.151604,0.217088 -0.596329,0.394713 -0.987821,0.394713 -0.633721,0 -0.627801,-0.08205 0.05139,-0.746252 0.419585,-0.410317 1.654582,-1.244955 2.744816,-1.854838 2.240509,-1.253356 2.612517,-1.992709 0.75611,-1.503299 -1.509355,0.397916 -4.425979,0.417866 -4.860704,0.03315 -0.893463,-0.790718 1.057447,-1.207837 6.072396,-1.298237 1.319326,-0.02374 2.31474,-0.04055 3.079314,-0.03695 z m 34.362908,3.827631 c -1.724328,0 -10.667415,8.718634 -10.667415,10.399736 0,0.358667 0.0818,0.652198 0.182061,0.652198 0.100255,0 1.213964,-1.161958 2.474779,-2.581818 2.51425,-2.831422 7.905661,-7.680692 8.539335,-7.680692 0.219712,0 0.399827,-0.177624 0.399827,-0.394712 0,-0.217095 -0.417764,-0.394712 -0.928587,-0.394712 z m 14.557725,0.789424 c 0.36446,0 0.64959,0.384457 0.65855,0.888101 0.009,0.488455 0.30275,1.33215 0.65332,1.874884 0.8193,1.268406 0.83495,2.914363 0.041,4.262423 -0.34529,0.586224 -1.28167,1.404311 -2.08105,1.817838 -1.42922,0.739339 -1.44715,0.739339 -1.09322,0 1.13493,-2.370792 1.57003,-4.777263 1.16813,-6.461874 -0.4576,-1.918105 -0.3309,-2.381372 0.65332,-2.381372 z M 50.119561,70.6377 c 0.0795,0.04436 -0.126659,0.278322 -0.560983,0.614422 -1.11235,0.860789 -1.845847,1.046343 -1.845847,0.466409 0,-0.191769 0.351225,-0.458838 0.7805,-0.59284 0.429275,-0.134002 1.08155,-0.343277 1.4495,-0.465633 0.09199,-0.03059 0.150333,-0.03716 0.17683,-0.02235 z m -3.52183,1.824003 c 0.36795,0 0.669,0.06963 0.669,0.154955 0,0.08532 -0.30105,0.257417 -0.669,0.382375 -0.36795,0.124957 -0.669,0.05529 -0.669,-0.154956 0,-0.210278 0.30105,-0.382374 0.669,-0.382374 z M 16.469209,100.42458 c 0.0037,0.0332 0.0086,0.0663 0.01307,0.0994 0.04406,0.0273 0.0745,0.0787 0.121953,0.0956 0.0048,0.001 0.0066,6.9e-4 0.01132,0.002 -0.02041,-0.0248 -0.04138,-0.0495 -0.06098,-0.0748 -0.02901,-0.0375 -0.05694,-0.0793 -0.08537,-0.12258 z m 62.205685,1.64052 c -0.684549,0 -3.756164,3.42701 -3.756164,4.19073 0,0.48264 -0.596143,1.31395 -1.337995,1.8664 -0.735902,0.54802 -1.338001,1.09704 -1.338001,1.2196 0,0.48177 1.7819,0.18796 2.324081,-0.38315 0.316297,-0.33317 0.828607,-0.8555 1.138514,-1.161 0.309913,-0.30551 0.685283,-1.09581 0.834512,-1.75616 0.149229,-0.66036 0.43376,-1.11163 0.632409,-1.00298 0.481581,0.26341 1.760484,-1.38696 1.760484,-2.2719 0,-0.38588 -0.116016,-0.70154 -0.25784,-0.70154 z m 26.605816,1.34449 c -0.98042,0.0966 -2.26397,0.56747 -2.26397,0.94823 0,0.18629 0.13351,0.45736 0.29704,0.60209 0.4945,0.43763 1.20674,0.28414 2.37635,-0.51112 0.91747,-0.62384 0.98922,-0.79741 0.41115,-0.99372 -0.20072,-0.0682 -0.49376,-0.0777 -0.82057,-0.0455 z m -17.425362,21.26742 c -0.15921,-0.0272 -0.273024,-0.006 -0.347569,0.0601 -0.174277,0.15424 -0.0175,0.43769 0.348441,0.62984 0.365906,0.19215 1.267617,0.68768 2.003512,1.10088 1.531663,0.86 2.14761,0.75549 0.859769,-0.1457 -1.495829,-1.04674 -2.386536,-1.56352 -2.864153,-1.64515 z m 41.252392,0.70154 c -0.2453,0 -0.0563,0.26023 0.41987,0.57896 0.47615,0.31874 1.06656,0.57974 1.31186,0.57974 0.2453,0 0.0563,-0.261 -0.41986,-0.57974 -0.47616,-0.31873 -1.06657,-0.57896 -1.31187,-0.57896 z m -85.679049,1.46398 c 0.339727,0.0118 1.134164,0.26896 2.05404,0.68149 1.2265,0.55005 2.23,1.08619 2.23,1.19108 0,0.39296 -1.168946,0.13022 -2.7875,-0.62599 -0.919875,-0.42978 -1.6725,-0.95778 -1.6725,-1.17334 0,-0.0539 0.06272,-0.0772 0.17596,-0.0732 z m 82.234739,0.0894 c -0.70891,0 -0.31361,0.67766 0.65681,1.12631 0.55192,0.25518 1.90665,0.90054 3.0105,1.43392 2.3315,1.12658 3.7317,1.35263 2.66032,0.4294 -0.70001,-0.60321 -5.751,-2.98963 -6.32763,-2.98963 z m 10.35992,0.38777 c -0.28458,-0.0284 -0.51515,-0.0297 -0.66029,6.9e-4 -0.19352,0.0407 -0.23504,0.13774 -0.0505,0.30221 0.18267,0.16281 1.26952,0.75237 2.41555,1.30979 1.14605,0.55742 2.33941,1.47884 2.65248,2.04833 0.31306,0.5695 0.96534,1.14682 1.44949,1.28282 0.48417,0.13599 0.88068,0.43191 0.88068,0.6576 0,0.22569 -0.3188,0.30262 -0.7082,0.17037 -0.38939,-0.13224 -1.52362,-0.3561 -2.52094,-0.49724 -1.31373,-0.18591 -1.72579,-0.13139 -1.49567,0.19813 0.17469,0.25015 0.55629,0.4585 0.84844,0.46332 0.73894,0.0122 2.80633,1.46505 2.48698,1.74768 -0.14368,0.12716 -1.54615,-0.29496 -3.1159,-0.93821 -1.56976,-0.64326 -3.45581,-1.29762 -4.19171,-1.45396 -1.19938,-0.25481 -1.27627,-0.21802 -0.74043,0.35771 0.32877,0.35324 1.03123,0.75979 1.561,0.90351 1.55414,0.42163 6.53843,2.52856 6.53843,2.76376 0,0.11859 -0.21028,0.56405 -0.46778,0.98987 -0.42889,0.70923 -0.56922,0.72577 -1.67249,0.20275 -3.13122,-1.48426 -7.22573,-2.3265 -7.22573,-1.48635 0,0.18273 0.75263,0.5338 1.6725,0.78017 0.91988,0.24636 2.77493,0.95455 4.12202,1.57345 l 2.44864,1.12478 -0.15244,2.93027 c -0.0838,1.61137 -0.33946,3.24034 -0.56882,3.62024 -0.49812,0.82505 -1.49149,0.85957 -21.17542,0.73393 l -6.73966,-0.0432 -1.73434,-1.17489 c -0.95361,-0.64628 -2.06648,-1.46032 -2.47391,-1.80858 -0.40744,-0.34827 -1.19929,-0.57455 -1.75961,-0.50264 -0.88842,0.114 -0.72398,0.30781 1.28661,1.51254 1.26806,0.75983 2.31077,1.50816 2.3171,1.66289 0.007,0.15471 -1.1427,0.22223 -2.55317,0.15032 -1.41047,-0.0719 -3.10979,-0.15416 -3.77619,-0.1827 -0.74111,-0.0318 -1.82927,-0.59821 -2.80231,-1.45936 -0.874957,-0.77434 -1.920477,-1.3516 -2.323207,-1.28281 -0.576102,0.0984 -0.428551,0.37739 0.691646,1.30902 l 1.423369,1.18414 -1.679472,0.19735 c -0.924058,0.10853 -4.138913,0.14301 -7.14384,0.0763 -5.458905,-0.12114 -5.463499,-0.12205 -5.463499,-1.08546 0,-0.59395 -0.256909,-0.96443 -0.668998,-0.96443 -0.757384,0 -0.897071,0.6181 -0.223001,0.98679 0.928836,0.50803 0.387893,0.98677 -1.115,0.98677 -1.367734,0 -1.561002,-0.12217 -1.561002,-0.98677 0,-0.6195 -0.252381,-0.98679 -0.677707,-0.98679 -0.489649,0 -0.60423,0.25893 -0.412901,0.93359 0.246993,0.87093 0.150624,0.92651 -1.440786,0.83259 -12.168874,-0.71806 -23.392821,-0.81413 -52.546996,-0.45098 -7.643711,0.0952 -9.575428,0.009 -10.517586,-0.46949 -1.13792,-0.57798 -2.642028,-0.4205 -2.642028,0.27676 0,0.67767 2.925739,0.92659 12.488001,1.06155 5.27395,0.0744 12.699851,0.26939 16.502001,0.43326 9.03514,0.38943 16.240444,0.4676 36.126003,0.39472 7.235844,-0.0265 40.289493,0.57386 40.494533,0.73545 0.31635,0.24932 23.2729,0.1391 23.44376,-0.11255 0.10451,-0.15396 0.059,-0.98301 -0.10105,-1.8425 -0.16009,-0.85949 -0.12835,-3.07975 0.0706,-4.9339 0.1989,-1.85416 0.35141,-3.78845 0.33972,-4.29866 -0.0117,-0.51021 0.1184,-1.1266 0.28833,-1.36993 0.16994,-0.24333 0.31943,-1.86876 0.33276,-3.61177 l 0.0244,-3.16926 -1.38068,-0.027 c -0.75937,-0.0149 -2.22083,-0.41453 -3.24744,-0.8881 -0.98039,-0.45224 -2.32053,-0.78262 -3.17427,-0.86805 z m -5.25008,0.1141 c -0.59494,0.12534 -0.47577,0.27164 0.51481,0.63138 0.7087,0.25737 1.87787,0.90655 2.59848,1.44316 1.08991,0.81166 3.02618,1.34599 3.02618,0.83492 0,-0.4419 -5.49392,-3.04547 -6.13947,-2.90946 z m -17.89053,1.24195 c -0.17122,-0.0173 -0.31526,-0.009 -0.42334,0.0278 -0.55681,0.18909 -0.13925,0.57794 1.71256,1.59812 1.34651,0.74181 2.61661,1.3527 2.82322,1.3576 0.20661,0.005 0.88591,0.36449 1.5096,0.79867 1.32417,0.92181 1.43282,0.93216 2.46346,0.23975 0.99951,-0.67148 0.99145,-1.02917 -0.0227,-1.02917 -0.44154,0 -1.01055,-0.18432 -1.26483,-0.40936 -0.25427,-0.22503 -1.04669,-0.50036 -1.76135,-0.61211 -0.71466,-0.11176 -2.06972,-0.65138 -3.01137,-1.19879 -0.75419,-0.43843 -1.51162,-0.7205 -2.02529,-0.77246 z m -51.370139,0.22973 c -0.259778,0 -0.348473,0.17763 -0.196869,0.39472 0.151604,0.21709 0.363958,0.39471 0.472131,0.39471 0.108173,0 0.196869,-0.17762 0.196869,-0.39471 0,-0.21709 -0.212354,-0.39472 -0.472131,-0.39472 z m 45.331719,0.1064 c -0.21585,-0.0258 -0.38662,0.004 -0.56621,0.0648 -0.63724,0.21641 -0.59339,0.3419 0.31882,0.90737 0.58195,0.36074 2.07132,1.14995 3.31016,1.75462 3.54454,1.73006 4.62514,1.47418 1.52703,-0.36156 -2.89209,-1.71366 -3.94224,-2.28795 -4.5898,-2.36519 z m -6.898192,0.72543 c -0.367496,0.0686 0.131042,0.64638 1.516572,1.45859 1.18429,0.69422 2.35025,1.26199 2.59151,1.26199 0.6809,0 -1.11215,-1.59292 -2.51659,-2.23567 -0.83934,-0.38412 -1.371,-0.52606 -1.591492,-0.48491 z m -11.672656,0.35231 c -0.778007,0 -0.430667,0.40126 1.028763,1.18877 0.797223,0.43018 1.549849,0.77695 1.672497,0.77092 0.403621,-0.0199 -2.270212,-1.95969 -2.70126,-1.95969 z m -4.753556,0.2174 c -0.252439,-0.024 -0.548839,-0.0184 -0.919005,0.002 -0.91356,0.0507 -1.75608,0.11147 -1.871984,0.13413 -0.329253,0.0643 1.728398,1.27276 3.507021,2.05991 2.297035,1.01656 2.429442,0.92866 1.158561,-0.77093 -0.757371,-1.01285 -1.117294,-1.35338 -1.874593,-1.42543 z m 10.744937,0.68613 c -0.130643,0.11562 0.527135,0.6699 1.461698,1.23193 1.539723,0.92595 2.830186,1.31017 2.830186,0.84185 0,-0.33056 -4.050264,-2.28762 -4.291884,-2.07378 z m -70.636124,1.63589 c -0.61325,-0.10754 0.390251,0.49953 2.23,1.34911 1.839751,0.84959 3.646051,1.56144 4.014001,1.58194 0.953996,0.0531 -4.901655,-2.69565 -6.244001,-2.93105 z m 102.168851,0.22357 c -0.22618,0 -1.12933,0.74233 -2.007,1.64977 -1.59606,1.65023 -2.07438,3.27427 -1.05315,3.57554 0.65402,0.19294 0.5279,2.98905 -0.16812,3.73126 -0.27612,0.29443 -0.91395,0.41177 -1.51483,0.2783 -0.74065,-0.16451 -1.5243,0.1078 -2.73611,0.95055 -1.9601,1.36314 -3.50547,1.86717 -3.91731,1.27742 -0.15777,-0.22593 -0.46179,-0.41091 -0.67509,-0.41091 -0.51754,0 -1.78923,1.14471 -1.78923,1.61046 0,0.4548 4.76451,0.0254 6.021,-0.54273 0.4906,-0.22182 1.15423,-0.73044 1.47476,-1.13017 0.32054,-0.39972 0.95033,-0.72698 1.39985,-0.72698 1.48031,0 2.82953,-1.35571 3.10719,-3.123 l 0.2622,-1.67059 2.007,1.36838 c 2.02643,1.38172 5.3558,2.41566 4.68474,1.45473 -0.54474,-0.78005 -5.64776,-3.55549 -6.53756,-3.55549 -1.17739,0 -1.01968,-0.68432 0.51482,-2.23104 1.30834,-1.31877 1.74737,-2.5055 0.92684,-2.5055 z m 2.20474,0.11949 c -1.13933,-0.0917 0.42517,0.8375 2.78924,1.5218 2.2876,0.66216 3.89118,0.89242 3.89118,0.55815 0,-0.21177 -4.22787,-1.59811 -6.021,-1.97434 -0.27866,-0.0585 -0.49666,-0.0925 -0.65942,-0.10561 z m -92.040645,0.0123 c -0.103173,0.011 -0.186082,0.039 -0.240421,0.0871 -0.14957,0.13237 0.117441,0.49233 0.593214,0.80022 1.023373,0.66225 1.436247,0.6996 1.810133,0.1642 0.266899,-0.38219 -1.440714,-1.12859 -2.162926,-1.05154 z m -28.3000956,0.0525 c -0.1305559,0.11554 -0.1536028,0.26258 -0.051394,0.32609 0.201893,0.12547 7.6048596,2.98936 11.5585436,4.47135 1.34915,0.50572 2.61823,0.87452 2.820603,0.82026 0.903867,-0.24231 0.382759,-0.80657 -1.259602,-1.36376 -0.9812,-0.33288 -4.269704,-1.47373 -7.307606,-2.53479 -3.037903,-1.06105 -5.6299883,-1.8347 -5.7605446,-1.71915 z m 104.5608806,0.34306 c -0.56495,0.0626 -0.008,0.6003 1.62284,1.511 1.93059,1.07833 3.64275,1.39653 4.08718,0.76013 0.26992,-0.38652 -2.76383,-1.76785 -4.76924,-2.17169 -0.43959,-0.0885 -0.75246,-0.12032 -0.94078,-0.0994 z m -6.14296,0.0971 c -0.61529,0.33655 -0.097,0.7594 2.31711,1.89262 3.43675,1.61325 3.59988,1.31955 0.3981,-0.71619 -1.23765,-0.7869 -2.45966,-1.31619 -2.71521,-1.17643 z m -56.6089,0.16498 c -0.230823,0 -0.419869,0.17762 -0.419869,0.39471 0,0.21709 0.312704,0.39471 0.695131,0.39471 0.382436,0 0.571474,-0.17762 0.419869,-0.39471 -0.151604,-0.21709 -0.464308,-0.39471 -0.695131,-0.39471 z m 6.949586,0.1457 c -1.354864,-0.0282 -2.463455,0.0161 -2.463455,0.0979 0,0.0819 0.652276,0.4043 1.449501,0.71695 1.770731,0.69445 3.181581,0.6226 3.351096,-0.17114 0.099,-0.46358 -0.40833,-0.60355 -2.337142,-0.64372 z m -49.9990442,0.24901 c -0.1435485,0 -0.1809202,0.21117 -0.083625,0.46949 0.097295,0.25832 2.1706142,1.21578 4.6080872,2.12775 4.613711,1.72618 5.101125,1.87381 5.101125,1.54723 0,-0.20223 -9.1559527,-4.14447 -9.6255872,-4.14447 z m 40.0720582,0 c -0.410611,0 0.800208,0.898 2.689939,1.99592 1.889712,1.09792 3.435592,2.16364 3.435592,2.36827 0,0.20463 0.301051,0.37236 0.669,0.37236 0.36795,0 0.669,-0.15811 0.669,-0.35154 0,-0.51522 -6.586602,-4.38501 -7.463531,-4.38501 z m 53.84666,0 c -1.371546,0 -1.043938,0.46248 1.46867,2.07224 2.35661,1.50981 2.99221,1.75053 2.99221,1.13172 0,-0.64579 -3.56158,-3.20396 -4.46088,-3.20396 z m -56.901586,0.19504 c -0.186587,0.006 -0.31911,0.0709 -0.404188,0.19273 -0.13575,0.19439 1.012193,0.97804 2.550563,1.74151 1.538369,0.76348 3.499532,1.9221 4.358082,2.57411 1.494207,1.13477 2.694059,1.55029 2.659449,0.92126 -0.009,-0.16282 -0.86193,-0.79163 -1.8955,-1.39691 -1.03357,-0.60527 -2.782099,-1.68136 -3.885949,-2.39217 -1.769536,-1.13947 -2.822698,-1.65808 -3.382457,-1.64053 z m 49.96681,0.45176 c -0.485015,0.12946 0.183858,0.74724 1.907694,1.6968 1.159433,0.63867 2.198766,1.0815 2.309271,0.9837 0.391864,-0.3468 -2.286085,-2.46233 -3.343257,-2.64118 -0.421676,-0.0713 -0.712034,-0.0825 -0.873708,-0.0393 z m -53.121041,0.0293 c -0.396164,0.0514 -0.147204,0.48773 1.072316,1.26585 0.920251,0.58718 2.977921,1.71984 4.572372,2.51707 1.59445,0.79721 2.99935,1.44857 3.122,1.44778 0.44022,-0.003 -3.78958,-2.972 -5.968734,-4.18919 -1.360368,-0.75984 -2.40179,-1.09294 -2.797954,-1.04151 z m 45.582597,0.21663 c -0.520581,0.13535 -0.01324,0.79299 1.34061,1.44085 0.722827,0.34589 1.810781,0.93983 2.417291,1.31905 1.177435,0.7362 1.801377,0.87317 1.788349,0.39317 -0.01501,-0.55336 -3.440084,-2.81995 -4.676028,-3.09448 -0.408674,-0.0908 -0.696693,-0.10371 -0.870222,-0.0586 z m -9.007108,0.29142 c -1.557916,0 -2.830697,0.13321 -2.827571,0.29603 0.0033,0.16282 0.655313,0.70002 1.449502,1.19416 0.794188,0.49414 2.12808,1.33928 2.964328,1.87796 2.277277,1.46694 2.291754,0.77228 0.02176,-1.04922 l -1.987836,-1.59504 1.561002,0.27522 c 0.85855,0.15136 2.213276,0.5209 3.010498,0.8218 0.797223,0.30091 2.202128,0.82858 3.121999,1.17258 l 1.672503,0.62598 -0.891999,-0.79327 c -1.924602,-1.71172 -5.115746,-2.8262 -8.094191,-2.8262 z m -25.269563,0.0347 c -0.238181,0.003 -0.0194,0.38719 0.805762,1.14945 0.705037,0.65127 1.595744,1.17675 1.979126,1.16795 0.451699,-0.0104 0.153048,-0.42721 -0.847575,-1.18414 -1.004307,-0.75973 -1.69913,-1.13663 -1.937313,-1.13326 z m -17.972407,0.75473 c -0.09748,0 -0.176832,0.17405 -0.176832,0.38701 0,0.21295 0.506242,0.49943 1.124582,0.63678 0.61834,0.13735 2.357683,0.95588 3.865915,1.8186 1.50823,0.86272 3.762485,1.99092 5.008789,2.50704 2.243901,0.92924 2.934715,1.11847 2.934715,0.8033 0,-0.35167 -12.028018,-6.15273 -12.757169,-6.15273 z m -28.5196117,0.0139 c -0.236496,0.0175 -0.3938534,0.10032 -0.5400781,0.22973 -0.584899,0.51764 -0.5646828,0.65096 0.1733476,1.1456 0.4591985,0.30775 0.9685093,0.56511 1.132422,0.57202 0.1639126,0.007 0.6656625,0.12113 1.1150001,0.2544 0.5030607,0.1492 0.3029708,-0.15338 -0.5209141,-0.78788 -1.6300996,-1.25537 -0.851686,-1.02675 3.7910002,1.11398 1.839751,0.8483 4.047451,1.86019 4.906001,2.24801 1.827764,0.82564 2.36649,0.90125 2.140277,0.30066 -0.09029,-0.23972 -2.844653,-1.56021 -6.120305,-2.93413 -3.9485082,-1.65613 -5.3672625,-2.19485 -6.0767507,-2.14239 z m 66.1778657,0.2837 c -1.182769,0.27373 -1.005465,0.72163 0.504368,1.2751 0.726648,0.26637 1.92875,0.99832 2.671638,1.62665 1.352877,1.14419 2.250912,1.45669 2.250912,0.78326 0,-0.74688 -4.606568,-3.87487 -5.426918,-3.68501 z m -33.511847,0.0971 c -0.61421,0 4.008873,2.6699 5.204785,3.00582 0.47173,0.13251 1.771798,0.75395 2.888547,1.38073 2.228959,1.25101 3.910116,1.59953 2.73175,0.56662 -0.782401,-0.68581 -10.108724,-4.95317 -10.825082,-4.95317 z m 89.884691,0.17269 c -0.1065,0.0943 1.18237,0.79785 2.86328,1.56343 1.68092,0.76558 3.55755,1.74958 4.1708,2.1871 1.20929,0.86277 2.03448,1.01826 2.42687,0.45639 0.13717,-0.19644 -0.60379,-0.79896 -1.64637,-1.3391 -2.26561,-1.1737 -7.54115,-3.10982 -7.81458,-2.86782 z m -93.09293,1.7392 1.513961,1.11629 c 0.832846,0.61385 2.940195,1.86901 4.683,2.7892 1.742805,0.92019 3.464639,1.67516 3.825844,1.67753 0.992223,0.007 -0.939921,-1.09541 -8.238805,-4.70109 z m 70.23891,0.0616 c -0.99968,0 -0.18576,0.7671 2.4591,2.31739 2.77952,1.62923 5.44064,2.36354 3.2936,0.90892 -2.3374,-1.5836 -5.26665,-3.22631 -5.7527,-3.22631 z m -5.535804,0.39472 c -1.167854,0 -1.25609,0.0723 -0.686423,0.56431 0.359195,0.31022 1.656827,1.18693 2.883327,1.94889 3.22743,2.00504 3.87815,1.74272 1.338,-0.53964 -1.66751,-1.49828 -2.51849,-1.97356 -3.534904,-1.97356 z m 13.088184,0.067 c -0.52843,0.0149 -0.85628,0.0507 -0.85628,0.1033 0,0.10515 0.89703,0.65687 1.99393,1.22577 1.98304,1.02849 1.99064,1.03964 1.25525,2.03292 -0.70525,0.95257 -0.69931,0.99246 0.12108,0.85264 0.87382,-0.14893 1.69485,-1.31167 2.18819,-3.09756 0.26767,-0.969 0.22006,-0.98908 -2.6429,-1.09625 -0.80177,-0.03 -1.53083,-0.0357 -2.05927,-0.0208 z m -85.906399,0.0115 c -2.354354,0.2646 -0.267261,1.44053 4.101109,2.31046 0.9812,0.1954 2.68715,0.61342 3.791,0.92973 1.10385,0.31631 2.503299,0.58757 3.109805,0.60209 l 1.102805,0.0262 -0.987821,-0.61211 c -1.492258,-0.92502 -9.913032,-3.39167 -11.116898,-3.25637 z m 95.546799,0.0786 c -0.13592,0.0286 -0.30732,0.22456 -0.43293,0.51652 -0.24204,0.56254 -0.19048,0.60818 0.25,0.22126 0.30481,-0.26775 0.44133,-0.58696 0.30401,-0.70848 -0.0343,-0.0304 -0.0758,-0.0388 -0.12108,-0.0293 z M 4.1798175,139.22738 c -0.1542183,0.0377 -0.1750899,0.19654 -0.1750899,0.45638 0,0.28355 1.1540251,0.89339 2.5645002,1.35528 4.2300392,1.38523 4.2355742,1.04762 0.014809,-0.90044 -1.5196393,-0.70137 -2.1471885,-0.97411 -2.4042193,-0.91122 z m 14.3251385,0.12797 c -0.07484,0.0277 -0.07988,0.10013 -0.0018,0.212 0.149868,0.21461 0.460826,0.39009 0.69165,0.39009 0.64154,0 0.500005,-0.28264 -0.272652,-0.54504 -0.198454,-0.0674 -0.342417,-0.0847 -0.417255,-0.057 z m -8.9017088,0.12566 c -0.1585388,-0.0293 -0.246519,-0.022 -0.246519,0.0278 0,0.19906 1.1540258,0.89964 2.5644998,1.55726 2.365014,1.10251 3.679501,1.49592 3.679501,1.10011 0,-0.0878 -1.4049,-0.80323 -3.122001,-1.58964 -1.287824,-0.58981 -2.399863,-1.00743 -2.8754808,-1.09548 z m 83.1520018,0.0817 c -1.381621,0 -1.066058,0.5618 1.191656,2.11849 1.867476,1.28762 4.469535,1.97771 4.089782,1.08469 -0.299467,-0.70425 -4.419585,-3.20318 -5.281438,-3.20318 z m -5.571513,0.37543 c -0.142204,0.0288 -0.217411,0.13146 -0.208197,0.31531 0.02307,0.46002 1.428832,1.80425 2.661192,2.54482 2.325621,1.39754 2.393771,0.70581 0.132412,-1.34372 -1.132569,-1.02648 -2.158809,-1.60288 -2.585407,-1.51641 z m -7.034955,0.88117 c -1.609898,0.20252 -1.15261,0.84271 1.428597,1.99977 2.559685,1.14742 3.153357,1.29017 3.153357,0.75705 0,-0.70485 -3.612932,-2.87872 -4.581954,-2.75682 z m -76.0316823,1.27588 c -0.4006119,0.35454 0.3510255,0.93832 1.5514181,1.20494 1.1573008,0.25707 1.8818905,0.82707 1.8972423,1.49252 0.00376,0.16281 -0.7958313,0.29602 -1.7770314,0.29602 -1.2598233,0 -1.7840001,0.16773 -1.7840001,0.57126 0,0.40781 0.6704958,0.6135 2.3415002,0.71695 1.287825,0.0797 2.6479365,0.17725 3.0226957,0.2174 0.9125785,0.0978 2.4237695,-1.48137 1.8789495,-1.96353 -0.579144,-0.51255 -6.8836563,-2.75427 -7.1307743,-2.53556 z m 97.3987413,1.42621 c -0.85731,0.0104 -0.80331,0.13086 0.54008,1.21188 1.71577,1.38068 2.26932,1.28461 1.16814,-0.20275 -0.43026,-0.58113 -1.16625,-1.01573 -1.70822,-1.00913 z m -7.407785,0.37543 c -0.365795,-0.0585 -0.375874,0.52454 0.08363,1.42389 0.558964,1.09404 0.577707,1.10011 0.723004,0.20353 0.0821,-0.50656 -0.06468,-1.11109 -0.326657,-1.34295 -0.19684,-0.1742 -0.358036,-0.26497 -0.479976,-0.28447 z m 2.315372,0.0455 c -0.06429,0.0157 -0.07649,0.20782 -0.08276,0.58744 -0.0075,0.45228 0.132117,0.95184 0.310981,1.11013 0.537207,0.47544 0.665282,-0.46863 0.16638,-1.22731 -0.214214,-0.32575 -0.330334,-0.48596 -0.394604,-0.47026 z m -5.17691,0.42479 c -0.219318,0.0861 -0.320766,0.43343 -0.117602,0.90197 0.145251,0.335 0.47088,0.60903 0.723883,0.60903 0.566442,0 0.577373,-0.40851 0.03132,-1.17257 -0.128461,-0.17977 -0.262761,-0.28633 -0.385894,-0.33227 -0.09235,-0.0345 -0.178641,-0.0349 -0.251745,-0.006 z m -15.632655,0.32686 c -0.108171,0 -0.320523,0.17763 -0.472131,0.39471 -0.151601,0.2171 -0.06291,0.39472 0.196873,0.39472 0.259772,0 0.472131,-0.17762 0.472131,-0.39472 0,-0.21708 -0.0887,-0.39471 -0.196873,-0.39471 z m -34.282764,0.006 c -0.794431,0.005 -0.852254,0.0775 -0.308367,0.38855 0.878671,0.50255 1.911945,0.50255 1.561,0 -0.151604,-0.21708 -0.715185,-0.39169 -1.252633,-0.38854 z"
       sodipodi:nodetypes="ccsssscssssssssscssssssssssssssssssssssssssccssssssssssssssssssscscccsssssssssssssssssssccssssssssscsscsssssssssssssssssssssssssssscccssccscsssscccsssssssssssssssssscssssssssssssssscccssscsssssscccssscccsssssssssccssssssssssccsssssssssssssssssssssssssssssssssscssscssssssscsssssssssssssssscsssssssssssssssssscssscsssssssscssssssssssssscsccccssssssssssccscsccssssssscccssssssssssssssscsscsssssssssssssssscssssssssssssssssssssssssscsscsssssscsscsccscsccsscscsssscccssssscsssssssssssssssscssssssssssssssssssssssssssssssssssssssccsccssssssssssssssssssssssssssssssssscccsccsssssssssssssssssssssssscssssssssscccccsssssssssssssscccsssssssssscsssssscssssscccssssssssssssssssssssssscssssssscssssssssssssssssssssssssssscssssssssssssssssscscccssscccssssssssssscccssssssssscssssssssssscsssssccccssssssssssssssscssssccsssssccccsccssssssssssssssssssssssssssssssssssssssscsssssssssssssssscssccsscccsssssssscccssssssssssssssssssssscccsssssssssssssssssssssssssscssssssssssscsccsssccsssssscssssssssssssscccsssssssssssssssssssssssssssssssssssssssssssssssssssssssssssssssssssssssscssssssssssssccsscccscssscsssssssssssssssssssscssssssssssscsccscccssssssssssssssssssssscccsssssssssssssssssssscssssssssssssssssssssssssssssssssssssssssssssssssssssssss" />
    <g
       aria-label="XXVII"
       id="text3640"
       style="font-size:40px;line-height:1.25;font-family:Hultog;-inkscape-font-specification:Hultog"
       transform="matrix(0.44600003,0,0,0.39471202,4.0047276,-1.3494604)">
      <path
         d="m 47.486948,249.5975 q -0.513761,2.71559 -1.541284,2.42201 l -3.571866,-1.00305 q -4.30581,0 -4.892966,1.2477 l -1.663609,-1.17431 q 0.954129,-2.07951 2.17737,-2.07951 0.293578,0 0.562692,0.0979 0.244648,-0.22018 0.244648,-0.56269 0,-0.51376 -0.538226,-1.3945 -1.712539,-1.22324 -4.501529,-6.77676 h -0.171254 q -0.513762,-0.0245 -0.75841,0.46484 -2.495413,5.33333 -4.452599,7.16819 l 0.195718,0.88074 q 2.2263,0.29357 2.2263,1.81039 0,0.61162 -0.415902,1.59022 -0.905199,-0.70948 -1.785933,-0.88074 -0.366972,-0.0489 -1.981651,-0.0489 -3.082569,0 -4.525994,0.73395 l -1.051988,-0.58716 v -1.93272 l 2.88685,-0.73394 q 0.685015,-0.17126 6.948012,-9.17432 1.247707,-0.39143 1.247707,-1.17431 0,-0.78287 -0.905199,-1.49235 -1.247706,-1.02753 -1.370031,-1.19878 -0.782874,-1.07645 -2.103975,-3.40061 -1.321101,-2.32416 -2.079511,-3.37615 0,0 -1.834862,-1.63914 l -3.278288,-0.73395 0.978594,-2.10397 5.357798,0.68501 3.009174,-0.68501 1.370031,0.46483 v 1.66361 q -1.688074,0.31804 -1.663609,1.37003 v 0.17125 l 4.648318,6.87462 0.75841,-0.19572 q 0.929664,-3.57186 3.474006,-5.99388 v -1.24771 l -1.883792,-0.68501 -0.415902,-1.85933 1.051988,-0.53823 3.914373,0.66055 q 1.663608,-0.58715 2.88685,-0.58715 1.492355,0 1.810397,1.00306 -0.807339,2.1529 -3.180428,2.1529 -1.859327,2.42202 -3.718654,4.84404 -2.788991,3.74312 -3.107034,4.89296 1.541285,1.76147 4.40367,5.33334 0.489297,1.07645 1.614679,3.0581 0.954128,1.00306 2.788991,2.93578 z"
         id="path4250" />
      <path
         d="m 74.887537,249.5975 q -0.513761,2.71559 -1.541284,2.42201 l -3.571866,-1.00305 q -4.30581,0 -4.892966,1.2477 l -1.663609,-1.17431 q 0.954129,-2.07951 2.17737,-2.07951 0.293578,0 0.562692,0.0979 0.244648,-0.22018 0.244648,-0.56269 0,-0.51376 -0.538226,-1.3945 -1.712539,-1.22324 -4.50153,-6.77676 h -0.171253 q -0.513762,-0.0245 -0.75841,0.46484 -2.495413,5.33333 -4.4526,7.16819 l 0.195719,0.88074 q 2.2263,0.29357 2.2263,1.81039 0,0.61162 -0.415902,1.59022 -0.905199,-0.70948 -1.785933,-0.88074 -0.366972,-0.0489 -1.981651,-0.0489 -3.082569,0 -4.525994,0.73395 l -1.051988,-0.58716 v -1.93272 l 2.88685,-0.73394 q 0.685015,-0.17126 6.948012,-9.17432 1.247707,-0.39143 1.247707,-1.17431 0,-0.78287 -0.905199,-1.49235 -1.247706,-1.02753 -1.370031,-1.19878 -0.782874,-1.07645 -2.103975,-3.40061 -1.321101,-2.32416 -2.079511,-3.37615 0,0 -1.834862,-1.63914 l -3.278288,-0.73395 0.978594,-2.10397 5.357798,0.68501 3.009174,-0.68501 1.370031,0.46483 v 1.66361 q -1.688074,0.31804 -1.663609,1.37003 v 0.17125 l 4.648318,6.87462 0.75841,-0.19572 q 0.929664,-3.57186 3.474006,-5.99388 v -1.24771 l -1.883792,-0.68501 -0.415902,-1.85933 1.051988,-0.53823 3.914373,0.66055 q 1.663608,-0.58715 2.88685,-0.58715 1.492355,0 1.810397,1.00306 -0.807339,2.1529 -3.180428,2.1529 -1.859327,2.42202 -3.718654,4.84404 -2.788991,3.74312 -3.107034,4.89296 1.541285,1.76147 4.40367,5.33334 0.489297,1.07645 1.614679,3.0581 0.954128,1.00306 2.788991,2.93578 z"
         id="path4252" />
      <path
         d="m 103.41351,225.20606 -0.4159,1.737 -2.64221,1.44343 q -2.813451,7.24159 -3.743115,9.51682 -3.033639,7.36391 -4.281345,8.97859 l -1.688074,5.7737 q -2.2263,0 -2.666666,-1.71254 l -0.954129,-3.74312 -0.978593,-1.37003 -0.318043,-2.05504 q -0.02447,-0.0489 -1.590214,-3.03364 -1.027523,-1.95719 -0.978593,-3.18043 -0.660551,-1.02752 -1.957187,-3.08257 -0.195719,-0.56269 -0.538226,-1.61468 -0.954129,-2.59327 -1.810398,-3.86544 -1.321101,-1.95719 -3.082569,-1.85933 -0.09786,-0.51376 -0.09786,-1.02752 0,-1.44343 1.394496,-1.90826 l 3.571865,1.37003 3.620795,-1.02752 1.296636,0.88073 q 0.04893,0.26912 0.04893,0.34251 0,1.19878 -2.201835,2.20183 0.342508,1.32111 1.174312,3.76759 1.516819,2.83792 4.207951,8.61162 0,0 0.954128,4.15902 l 0.75841,1.02752 q 0.70948,-0.24464 0.70948,-0.58715 v -2.12844 l 6.262997,-14.77676 q 0,-0.31804 -1.688073,-1.41896 -0.09786,-0.4159 -0.09786,-0.83181 0,-0.51376 0.293578,-0.90519 0.318042,-0.39144 0.831804,-0.29358 l 3.131498,0.63608 q 1.07645,-0.70948 1.93272,-0.70948 0.85627,0 1.54129,0.68502 z"
         id="path4254" />
      <path
         d="m 116.47774,250.06233 q -0.41591,2.47095 -1.46789,2.2263 l -4.526,-1.02753 q 0,0 -3.32722,0.31805 -0.95412,0.66055 -1.6636,0.66055 -1.00306,0 -1.56575,-1.46789 l 1.2477,-1.8104 q 0.58716,0.19572 1.22324,0.19572 2.10398,0 2.10398,-3.40061 0,-0.66055 -0.0979,-1.98165 -0.0979,-1.3211 -0.0979,-1.98166 0,-1.93272 0.0979,-5.82263 0.0979,-3.8899 0.0979,-5.82263 0,-1.6636 -0.97859,-2.61773 -0.66055,0.24465 -1.3211,0.24465 -1.14985,0 -1.93273,-0.92967 0.41591,-2.44648 1.44343,-2.2263 l 4.47706,0.9786 4.25688,-1.02753 1.76147,0.9052 -0.51376,1.76147 q -0.4893,-0.12232 -0.8318,-0.12232 -2.25077,0 -2.25077,3.84097 0,0.39144 0.0245,1.02753 0.0245,0.61162 0.0245,0.8318 0,1.61468 -0.0979,15.43731 l 1.02752,1.10092 q 0.66056,-0.22019 1.19878,-0.22019 1.07645,0 1.68808,0.92967 z"
         id="path4256" />
      <path
         d="m 129.7866,250.06233 q -0.4159,2.47095 -1.46789,2.2263 l -4.52599,-1.02753 q 0,0 -3.32722,0.31805 -0.95413,0.66055 -1.66361,0.66055 -1.00305,0 -1.56575,-1.46789 l 1.24771,-1.8104 q 0.58716,0.19572 1.22324,0.19572 2.10398,0 2.10398,-3.40061 0,-0.66055 -0.0979,-1.98165 -0.0979,-1.3211 -0.0979,-1.98166 0,-1.93272 0.0979,-5.82263 0.0979,-3.8899 0.0979,-5.82263 0,-1.6636 -0.97859,-2.61773 -0.66056,0.24465 -1.32111,0.24465 -1.14984,0 -1.93272,-0.92967 0.4159,-2.44648 1.44343,-2.2263 l 4.47706,0.9786 4.25688,-1.02753 1.76147,0.9052 -0.51376,1.76147 q -0.4893,-0.12232 -0.83181,-0.12232 -2.25076,0 -2.25076,3.84097 0,0.39144 0.0245,1.02753 0.0245,0.61162 0.0245,0.8318 0,1.61468 -0.0979,15.43731 l 1.02752,1.10092 q 0.66055,-0.22019 1.19878,-0.22019 1.07645,0 1.68807,0.92967 z"
         id="path4258" />
    </g>
  </g>
</svg>
