<?xml version="1.0" encoding="UTF-8" standalone="no"?>
<!-- Created with Inkscape (http://www.inkscape.org/) -->

<svg
   version="1.1"
   id="svg2"
   width="4cm"
   height="4cm"
   viewBox="0 0 151.1811 151.1811"
   sodipodi:docname="28.svg"
   inkscape:version="1.1.2 (0a00cf5339, 2022-02-04)"
   xmlns:inkscape="http://www.inkscape.org/namespaces/inkscape"
   xmlns:sodipodi="http://sodipodi.sourceforge.net/DTD/sodipodi-0.dtd"
   xmlns="http://www.w3.org/2000/svg"
   xmlns:svg="http://www.w3.org/2000/svg">
  <defs
     id="defs6" />
  <sodipodi:namedview
     id="namedview4"
     pagecolor="#505050"
     bordercolor="#eeeeee"
     borderopacity="1"
     inkscape:pageshadow="0"
     inkscape:pageopacity="0"
     inkscape:pagecheckerboard="0"
     showgrid="false"
     inkscape:zoom="2.7512881"
     inkscape:cx="18.536772"
     inkscape:cy="75.782684"
     inkscape:window-width="1920"
     inkscape:window-height="1043"
     inkscape:window-x="0"
     inkscape:window-y="0"
     inkscape:window-maximized="1"
     inkscape:current-layer="g8"
     units="cm"
     inkscape:document-units="cm" />
  <!-- Border -->
  <path
     id="border"
     class="board-border"
     style="fill:none;stroke:#000000;stroke-width:0.1cm"
     d="M 0,0 H 151.18111 V 151.18111 H 0 Z" />
  <g
     inkscape:groupmode="layer"
     inkscape:label="Image"
     id="g8">
    <path
       id="path12"
       style="fill:#000000;stroke-width:0.407939"
       d="m 16.718097,2.6499071 c -0.01566,0.00614 -0.05358,0.015555 -0.0632,0.020812 -0.121641,0.066436 -0.253266,0.1783624 -0.379208,0.301775 0.321023,0.06081 0.642197,0.1212338 0.963392,0.1813623 0.240545,-0.2070503 0.482636,-0.3440456 0.714004,-0.4244175 -0.42641,-0.026905 -0.761116,-0.050955 -1.234987,-0.079532 z m 62.97491,0.4370534 c -0.179156,2.448e-4 -0.358127,0.00339 -0.537213,0.00595 0.173077,0.079681 0.369234,0.1216946 0.573936,0.1174396 C 79.71552,3.1697141 79.70341,3.128409 79.693,3.0869602 Z m 66.263923,0.5098957 c 0.0139,0.024497 0.0128,0.039978 0.0282,0.065409 0.005,-0.018888 0.0114,-0.03716 0.0136,-0.057976 -0.0139,-0.00237 -0.0279,-0.00504 -0.0418,-0.00743 z M 43.611931,4.8136188 c -0.0092,0.2771448 -0.185003,0.5277125 -0.365542,0.7685599 0.07594,0.2322282 0.115793,0.4806441 0.105051,0.7596405 -0.0062,0.159984 -0.05875,0.3145061 -0.108467,0.4697581 0.334902,0.1985936 0.561746,0.2027448 0.766955,-0.086222 0.428389,-0.6032374 2.645914,0.2681077 2.721923,1.0695916 0.03664,0.3863758 0.120997,0.3462991 0.26049,-0.1233859 0.121224,-0.4080147 0.461003,-0.6088856 0.82418,-0.487597 0.339726,0.1134543 0.617494,0.034688 0.617494,-0.1754158 0,-0.2535181 0.272008,-0.2555518 0.807952,-0.00595 0.550235,0.2562794 0.962109,0.2411989 1.293063,-0.046827 0.356133,-0.3099378 0.665332,-0.2924954 1.159826,0.064666 0.49927,0.3606102 0.674717,0.3693966 0.674717,0.03419 0,-0.6059172 1.796648,-0.1330914 2.514384,0.6615263 0.300633,0.3328352 0.546605,0.4280209 0.546605,0.2118369 0,-0.4128711 2.81946,-1.2747355 4.170428,-1.2747355 0.434171,0 1.169661,0.2996938 1.634691,0.6659861 0.625732,0.492872 1.658265,0.6766903 3.970576,0.7076103 1.718466,0.022982 3.626171,0.2201872 4.239606,0.4377968 1.102381,0.3910537 3.476034,0.2279872 3.476069,-0.2385958 2.1e-5,-0.2606769 4.246943,-0.4638818 8.636363,-0.413268 1.526315,0.017601 2.733027,-0.1334183 2.733027,-0.3426559 0,-0.2381791 0.517705,-0.2523422 1.421173,-0.037908 0.781646,0.185524 1.81473,0.3306157 2.295743,0.3218437 0.481012,-0.00877 2.350402,0.075091 4.1542,0.1865652 11.846622,0.7321155 24.067212,0.9829818 24.798792,0.5091525 0.31656,-0.2050282 1.10831,-0.1940958 1.96778,0.026757 0.79095,0.2032578 2.22537,0.3858594 3.18739,0.4058352 0.96203,0.019976 2.7836,0.1072283 4.0483,0.1939983 1.2647,0.086769 2.4103,0.00255 2.54513,-0.1873088 0.13483,-0.1898566 0.44007,-0.2400008 0.67899,-0.1114933 0.23892,0.128508 3.81684,0.2879572 7.95054,0.3545486 4.1337,0.066591 7.99134,0.2784515 8.57231,0.4705013 1.58749,0.5247759 2.22314,0.4250219 2.22314,-0.3486023 0,-0.5717471 -0.37497,-0.7067901 -2.0771,-0.7470042 -1.1424,-0.02699 -2.56904,-0.090246 -3.17031,-0.1404816 C 141.411,8.2431826 132.35645,7.8253003 126.70789,7.6195296 122.34397,7.4605576 116.49344,7.3337131 89.32009,6.8100889 68.81958,6.4150488 66.870618,6.3552075 66.417329,6.1113983 66.173696,5.9803558 63.651427,5.792617 60.812062,5.6936703 57.972692,5.5947405 53.976592,5.4074978 51.932289,5.2781738 47.976908,5.0279539 45.773201,4.9054332 43.611931,4.8136188 Z m -4.830624,1.9028176 c -0.235198,0.00449 -0.470787,0.0094 -0.706316,0.014123 0.01771,0.026453 0.01341,0.020227 0.05722,0.084735 0.01631,0.011942 0.02451,0.025437 0.03758,0.037908 0.09498,0.00526 0.193129,-0.00247 0.28526,-0.05203 0.06851,-0.036846 0.228444,-0.053486 0.326255,-0.084735 z m -0.709733,0.014123 c -0.02078,4.187e-4 -0.04156,3.045e-4 -0.06235,7.612e-4 0.03667,0.02474 0.07012,0.046001 0.108467,0.072842 -0.02545,-0.04147 -0.0293,-0.047065 -0.04612,-0.073585 z m 47.028553,7.5607256 c -1.048848,-0.0229 -1.302915,0.181871 -1.828565,0.880053 -0.413754,0.549559 -1.484624,1.298534 -2.380296,1.664222 -1.302713,0.531874 -1.655352,0.903715 -1.761949,1.857477 -0.102841,0.920131 0.134285,1.375367 1.039407,1.994985 0.955728,0.65426 1.074652,0.906052 0.642261,1.359474 -0.291817,0.306033 -0.420807,0.710164 -0.286968,0.898635 0.133844,0.188472 -0.138754,1.505054 -0.605538,2.925582 -0.910159,2.769831 -0.847304,3.23479 0.437285,3.23479 0.452624,0 0.920492,0.137304 1.039402,0.304748 0.39764,0.559938 3.33344,0.425674 3.33344,-0.152374 0,-0.33539 -0.473273,-0.532938 -1.275982,-0.532938 -2.097268,0 -2.659576,-0.356618 -2.659576,-1.685777 0,-0.980548 1.096459,-4.59869 1.541597,-5.087064 0.09697,-0.106383 3.012854,1.008663 6.985445,2.671378 1.421747,0.595067 1.58544,0.611916 0.874569,0.09217 -0.481013,-0.351688 -2.252014,-1.217844 -3.935558,-1.925117 -3.306822,-1.389228 -6.469008,-3.471032 -6.087819,-4.007809 0.420313,-0.591841 3.915828,-0.353655 6.566951,0.447459 1.420247,0.429168 3.27058,0.958754 4.112352,1.177369 1.666604,0.432828 6.992975,2.853875 9.663805,4.392089 l 1.67483,0.964045 -0.88823,1.514078 -0.88738,1.514077 1.01293,-0.27353 c 1.51275,-0.4089 1.84271,-1.18929 1.9823,-4.688661 l 0.1264,-3.182759 -1.70985,-1.488063 c -1.25174,-1.08938 -2.511185,-1.701255 -4.702509,-2.284125 -1.646126,-0.437853 -4.173332,-1.131401 -5.61637,-1.541579 -1.443038,-0.410179 -3.71654,-0.839257 -5.052683,-0.953638 -0.565829,-0.04844 -1.004084,-0.08156 -1.353701,-0.0892 z m 1.368223,1.114932 c 2.20201,0 11.833956,2.792358 14.06568,4.077678 1.46556,0.844057 1.68594,1.1601 1.68594,2.420146 0,0.797073 -0.14758,1.526704 -0.32796,1.621855 -0.18038,0.09515 -1.938225,-0.561944 -3.906516,-1.460561 -1.968291,-0.898617 -6.002238,-2.280879 -8.964327,-3.071267 -2.962085,-0.790387 -5.552862,-1.561282 -5.757293,-1.713279 -0.780285,-0.580151 1.4325,-1.874572 3.204476,-1.874572 z m -2.958503,8.53369 c -0.326564,-0.0043 0.0708,0.219606 1.32808,0.799035 1.142405,0.526489 2.0771,1.119864 2.0771,1.318593 0,0.41296 -1.077919,0.123084 -2.510969,-0.674905 -0.902996,-0.502828 -1.011609,-0.474869 -1.378469,0.352318 -0.318605,0.718385 -0.2098,1.027452 0.54319,1.545296 1.01488,0.697949 2.684366,0.570549 3.733997,-0.284679 1.171305,-0.954364 -0.495373,-2.491819 -3.230097,-2.979842 -0.264688,-0.04724 -0.453979,-0.0744 -0.562832,-0.07582 z m -74.5065713,0.03345 c -0.01664,0.03484 -0.051442,0.107535 -0.067472,0.141225 0.061982,-0.01661 0.124135,-0.03273 0.186188,-0.04906 -0.03816,-0.03121 -0.07833,-0.06179 -0.118716,-0.09217 z M 91.673908,25.30087 c -0.240506,0 -0.316038,0.171254 -0.167397,0.380563 0.148642,0.20931 0.466666,0.380564 0.707172,0.380564 0.240506,0 0.316038,-0.171254 0.167397,-0.380564 -0.148642,-0.209309 -0.466666,-0.380563 -0.707172,-0.380563 z m -7.408207,1.14169 c 0.226312,0 0.532905,0.171254 0.681547,0.380564 0.148642,0.20931 -0.03669,0.380563 -0.411664,0.380563 -0.374954,0 -0.681547,-0.171253 -0.681547,-0.380563 0,-0.20931 0.185352,-0.380564 0.411664,-0.380564 z m 9.320473,0.156091 c -0.130341,0.113437 0.08651,0.31474 0.481695,0.446716 1.118324,0.373477 0.844496,0.834668 -0.374937,0.631795 -0.601265,-0.10003 -1.09321,-0.01039 -1.09321,0.199201 0,0.209593 1.094706,0.500464 2.432393,0.645918 2.696807,0.293238 3.188738,0.78193 2.417876,2.401563 -0.697254,1.464974 -3.345592,3.891113 -4.248151,3.891113 -0.415065,0 -2.224823,0.44161 -4.020964,0.981141 -2.63064,0.790199 -3.336776,0.882708 -3.630652,0.475704 -0.268362,-0.371662 0.153534,-0.648968 1.593695,-1.048036 2.601312,-0.720824 2.487321,-1.18896 -0.221205,-0.909785 -2.583571,0.266296 -3.700627,-0.293991 -3.306962,-1.659019 0.203255,-0.704796 0.07767,-0.884513 -0.619203,-0.884513 -0.569388,0 -0.970871,0.33398 -1.150433,0.956612 -0.283273,0.982255 0.398436,2.083229 1.296482,2.093843 0.271186,0.0032 0.772777,0.159616 1.114563,0.347859 0.527907,0.290792 0.507075,0.494014 -0.138361,1.351297 -1.414396,1.878643 -2.205469,2.481096 -3.255717,2.481096 -0.858179,0 -1.002229,0.148593 -0.799412,0.823563 0.427642,1.423181 -4.408783,9.409949 -5.3815,8.886751 -0.196096,-0.10547 -0.497852,-1.580317 -0.670444,-3.277154 -0.292228,-2.87303 -0.438579,-3.217676 -2.12322,-5.014967 -2.215037,-2.363152 -5.066708,-3.735443 -7.490203,-3.604947 -2.138726,0.115163 -2.389194,0.772644 -0.986452,2.586643 0.876904,1.133999 1.348414,1.356324 3.462404,1.634489 2.612117,0.34371 3.42397,1.083815 3.42397,3.12107 0,0.604027 0.248649,0.933568 0.703757,0.933568 0.547405,0 0.637512,-0.231991 0.407391,-1.04655 -0.531667,-1.881936 -1.567721,-2.798005 -4.422382,-3.912668 -2.514061,-0.981672 -3.306848,-1.713378 -2.561357,-2.36217 0.137254,-0.11945 0.776783,0.02257 1.421173,0.315155 0.644391,0.292586 1.379352,0.53313 1.632986,0.534424 0.253633,0.0013 1.168865,0.566133 2.033542,1.255413 1.737335,1.384925 2.971311,4.254061 2.971311,6.908119 0,1.335287 -0.269305,1.781425 -1.911408,3.166406 -1.051048,0.886488 -2.27596,1.611451 -2.722781,1.611451 -1.134049,0 -5.745749,-4.386855 -6.104042,-5.806566 -0.239667,-0.949654 -0.103457,-1.292455 0.739627,-1.856735 1.348453,-0.902518 1.361073,-0.899641 2.127488,0.535909 0.430524,0.806403 0.918896,1.190563 1.421174,1.117164 0.551533,-0.08059 0.765247,0.142235 0.765247,0.799035 0,1.423547 0.896219,3.308375 1.5732,3.308375 0.776053,0 0.768737,-0.157119 -0.07686,-1.580229 -0.569769,-0.958856 -0.597597,-1.356675 -0.159714,-2.276695 0.611148,-1.284063 0.297497,-1.796956 -0.670444,-1.097834 -0.864363,0.624307 -1.786114,0.0023 -2.643348,-1.783149 l -0.614931,-1.280684 -2.218877,0.978908 c -2.190317,0.96595 -2.215177,0.996974 -1.925078,2.391903 0.161655,0.777305 0.556466,1.864601 0.877131,2.41643 0.819978,1.411083 5.99323,5.275858 7.062311,5.275858 0.488455,0 1.873461,-0.770641 3.077217,-1.712536 3.425295,-2.680171 4.438684,-2.060922 1.492915,0.912013 -1.492023,1.505802 -1.753431,1.628001 -2.621996,1.223455 -1.200542,-0.55917 -1.237751,-0.06589 -0.09053,1.203383 0.481013,0.532188 0.874568,1.068508 0.874568,1.192233 0,0.123729 0.800104,0.942458 1.778177,1.81957 4.20765,3.773306 4.300953,5.254729 0.145192,2.304194 -1.398317,-0.992791 -2.894647,-2.104398 -3.325752,-2.470691 -0.43111,-0.366292 -1.075544,-0.665986 -1.431424,-0.665986 -0.355884,0 -1.678546,-0.679606 -2.939709,-1.510361 -2.02477,-1.333708 -2.534149,-1.497544 -4.350637,-1.401098 -2.641065,0.140226 -3.431658,0.727976 -3.431658,2.552451 0,2.415014 0.592092,3.23262 2.802205,3.86584 1.894639,0.542836 2.171213,0.523728 5.349045,-0.373127 3.77779,-1.066172 3.79867,-1.062404 7.945423,1.666449 1.03695,0.682385 2.061887,1.294742 2.276952,1.360218 0.480287,0.146227 -0.187726,2.900906 -0.84126,3.469669 -0.757578,0.659312 -0.922009,0.125879 -0.434722,-1.410018 0.251517,-0.792771 0.344471,-1.539109 0.206687,-1.659021 -0.438684,-0.381777 -0.754092,0.18167 -1.001827,1.789098 -0.185387,1.202862 -0.403675,1.523304 -0.947166,1.390689 -0.388427,-0.09477 -2.182149,-0.287904 -3.985947,-0.429618 -3.986134,-0.313169 -5.861051,-1.323394 -6.308166,-3.397572 -0.33977,-1.57621 -0.945627,-1.726753 -1.6364,-0.407321 -0.435251,0.83136 -0.305295,1.137314 1.126518,2.657997 l 1.617611,1.718483 -0.953144,0.862217 c -0.524156,0.474288 -1.445894,1.783872 -2.048913,2.909971 -0.983912,1.837379 -1.073039,2.381357 -0.863466,5.304846 0.216526,3.020452 0.323206,3.31451 1.460459,4.041257 1.791978,1.145146 4.953206,2.115784 6.894062,2.116142 1.455649,2.67e-4 1.616675,-0.08014 1.148724,-0.570845 -0.299405,-0.313965 -0.905135,-0.570845 -1.346014,-0.570845 -0.440883,0 -1.526734,-0.428134 -2.41275,-0.951409 -0.886013,-0.523275 -1.848777,-0.951409 -2.139449,-0.951409 -0.290671,0 -0.872587,-0.663923 -1.293062,-1.475426 -0.666185,-1.285703 -0.697385,-1.762899 -0.244267,-3.710494 0.579883,-2.492443 3.318051,-6.603286 4.401882,-6.608576 0.37571,-0.0019 1.484843,0.334188 2.464849,0.746262 1.414855,0.594912 1.833843,1.006404 2.033542,1.997958 0.138322,0.686803 0.490519,2.307376 0.783181,3.601231 0.465458,2.057524 0.432587,2.640665 -0.266468,4.65001 -0.594012,1.707402 -0.674874,2.427805 -0.314298,2.805914 0.357427,0.374809 0.333118,0.953958 -0.09138,2.200133 -0.666657,1.957047 -1.812547,14.560462 -1.379326,15.170509 0.160033,0.225347 1.054402,0.71444 1.987422,1.086688 l 1.696186,0.67639 -0.682404,1.227171 c -0.375574,0.67489 -0.855415,1.22717 -1.06588,1.22717 -0.210469,0 -0.382624,0.30855 -0.382624,0.68531 0,0.37676 -0.218152,0.87442 -0.484257,1.10601 -0.304743,0.26521 -0.426138,1.63135 -0.327963,3.69117 l 0.156294,3.27047 h -1.592843 c -1.012593,-4e-5 -1.684799,-0.208 -1.844792,-0.57085 -0.145459,-0.32989 -0.799688,-0.57084 -1.549285,-0.57084 -0.713408,0 -1.791038,-0.16369 -2.394814,-0.36347 -1.669984,-0.55257 -25.707647,-0.81748 -26.436052,-0.29137 -0.385322,0.27831 -3.719033,0.45068 -9.622815,0.49726 -11.587795,0.0914 -11.43857,0.0838 -11.43857,0.57233 0,0.29719 4.738009,0.32925 16.726122,0.11298 17.746857,-0.32015 29.157605,-0.24582 32.03107,0.20961 1.465576,0.23228 1.040234,0.31893 -2.623705,0.53145 -2.405064,0.1395 -7.127733,0.4285 -10.494822,0.64295 -5.983531,0.38108 -26.276292,0.92454 -34.982738,0.93654 -4.204292,0.006 -4.378561,-0.0271 -4.51291,-0.85032 -0.132795,-0.81375 -1.118109,-1.18042 -1.5339113,-0.57085 -0.107081,0.15698 -0.336985,1.37657 -0.511589,2.71003 -0.257095,1.96345 -0.203972,2.39168 0.278428,2.25365 0.327617,-0.0937 0.6575453,-0.62757 0.7336463,-1.18703 0.131342,-0.96556 0.264537,-1.01922 2.623706,-1.04358 1.366936,-0.0141 4.059569,-0.0914 5.983619,-0.17244 6.539739,-0.2754 13.976395,-0.5507 20.771001,-0.76931 3.727848,-0.11993 8.647296,-0.40528 10.932106,-0.63328 2.28481,-0.22798 7.499424,-0.44877 11.588032,-0.49131 4.088608,-0.0425 7.720192,-0.14616 8.070115,-0.22968 0.502978,-0.12005 0.743471,0.64543 1.147872,3.65401 0.281348,2.0931 0.655419,4.27658 0.831863,4.85218 0.176444,0.5756 0.186611,1.04655 0.02221,1.04655 -0.164489,0 -1.646935,-0.68501 -3.29415,-1.52225 -1.647214,-0.83724 -3.255489,-1.51748 -3.574287,-1.51185 -0.797239,0.0141 2.113548,2.07848 4.115768,2.91889 0.899139,0.37741 1.637192,0.8145 1.639815,0.97148 0.0026,0.15698 0.296335,0.28542 0.652512,0.28542 0.631224,0 1.431502,1.74295 0.980474,2.13547 -0.246764,0.21476 -4.498387,-1.58789 -10.062662,-4.26647 -4.424136,-2.12974 -6.055941,-2.04484 -1.841378,0.0959 3.560342,1.80841 9.525231,4.4833 11.260069,5.04916 0.767512,0.25034 1.202532,0.6707 1.202532,1.1625 0,0.4238 -0.06471,0.77079 -0.143482,0.77079 -0.163658,0 -7.683049,-2.79887 -9.761177,-3.6332 -0.757962,-0.30426 -1.487872,-0.553 -1.621891,-0.553 -0.134006,0 -2.326247,-0.87181 -4.871618,-1.93775 -4.945824,-2.0712 -6.010178,-2.31199 -8.214454,-1.85599 l -1.405799,0.29062 1.449357,0.0394 c 0.797055,0.0214 2.469668,0.44319 3.716916,0.93728 1.247244,0.4941 4.131396,1.54469 6.408947,2.33542 2.277555,0.79072 6.096757,2.27071 8.487757,3.2883 2.391,1.01759 4.709546,1.85005 5.151755,1.85005 0.56609,0 0.80368,0.28153 0.80368,0.9514 0,0.79917 -0.205974,0.95141 -1.286232,0.95141 -0.707325,0 -1.398413,-0.15837 -1.535616,-0.35157 -0.13722,-0.19321 -0.88655,-0.47022 -1.66544,-0.61619 -0.778887,-0.14597 -3.868278,-1.20691 -6.865022,-2.35771 -2.996744,-1.15079 -6.14519,-2.31147 -6.996547,-2.57921 -0.851358,-0.26774 -3.871356,-1.44672 -6.711286,-2.61935 -5.538875,-2.28703 -5.549753,-2.29066 -5.549753,-1.81957 0,1.16211 20.779593,9.1391 27.98619,10.74349 2.631122,0.58576 2.605834,0.56121 2.094181,2.01208 -0.583683,1.65513 -3.307946,4.25572 -4.786212,4.56899 -0.639047,0.13543 -1.48346,0.35415 -1.876395,0.48537 -0.432452,0.14442 -0.664598,0.0629 -0.587601,-0.20589 0.07438,-0.25969 -1.689683,-0.96741 -4.248146,-1.70436 -3.754535,-1.08146 -9.701618,-3.14604 -17.216358,-5.97678 -2.190974,-0.82532 -2.677512,-0.88312 -2.677512,-0.31887 0,0.22108 0.934695,0.74584 2.0771,1.16622 1.142405,0.42037 2.470656,0.91644 2.951669,1.1023 2.336541,0.90279 14.590373,4.91463 15.742232,5.15396 0.721519,0.14991 1.689303,0.44163 2.150551,0.64814 0.799263,0.35787 0.788996,0.3994 -0.218642,0.88526 -0.581501,0.28039 -1.390276,0.51585 -1.796967,0.52327 -0.406692,0.007 -0.871149,0.19935 -1.032568,0.42665 -0.206066,0.29017 0.470286,0.33593 2.270117,0.15312 3.235733,-0.32866 6.073913,-1.13133 7.53205,-2.12952 1.105608,-0.75687 1.142689,-0.75843 1.504875,-0.052 0.585506,1.14197 2.816385,2.11025 4.277186,1.85599 1.255277,-0.2185 1.274272,-0.19666 1.274272,1.48137 0,1.99509 -0.08046,2.01304 -3.96545,0.9031 -2.529445,-0.72267 -3.156515,-0.75985 -6.522541,-0.39097 -4.250223,0.46577 -7.348312,0.0272 -9.189799,-1.30076 -0.360759,-0.26014 -2.328538,-1.07276 -4.372842,-1.80545 -3.481946,-1.24794 -8.554749,-3.19827 -9.29229,-3.57298 -0.18038,-0.0916 -0.327963,-0.0875 -0.327963,0.01 0,0.31945 3.654109,2.00013 7.21519,3.31878 1.92405,0.71246 4.482163,1.79079 5.684694,2.39562 3.641896,1.83173 6.005981,2.26954 10.729692,1.98903 3.231316,-0.19188 4.604878,-0.11342 6.102336,0.34638 1.062863,0.32636 2.826356,0.6307 3.919331,0.67713 l 1.987421,0.0847 -0.120423,-2.25587 c -0.06609,-1.24067 -0.339635,-2.48574 -0.608101,-2.76727 -0.404422,-0.42409 0.02882,-0.46943 2.525491,-0.26238 1.657334,0.13745 3.483192,0.4031 4.057688,0.59017 0.574495,0.18707 1.142916,0.2548 1.263169,0.15015 0.254001,-0.22106 -1.764822,-0.93329 -3.510229,-1.23832 -0.661392,-0.11559 -1.202531,-0.39675 -1.202531,-0.62436 0,-0.22761 -0.524037,-0.77706 -1.164099,-1.22123 -1.957621,-1.35848 -0.863409,-1.82855 1.622735,-0.6972 1.190721,0.54185 2.165069,1.11158 2.165069,1.26582 0,0.15424 0.836306,0.49201 1.858458,0.75072 1.022152,0.2587 4.613349,1.65019 7.980437,3.09208 3.367089,1.44188 7.499419,3.1276 9.182969,3.74617 1.68354,0.61858 3.06099,1.35202 3.06099,1.63003 0,0.65901 -1.4437,0.45707 -2.84235,-0.39766 -1.01272,-0.61888 -4.488865,-1.95113 -5.091115,-1.95113 -0.681179,0 0.898225,1.09698 2.464845,1.7118 0.96341,0.37808 1.7517,0.8457 1.7517,1.03985 0,0.66058 -2.7099,-0.16103 -7.813037,-2.36885 -4.712979,-2.03903 -8.882515,-3.58123 -12.083392,-4.4694 -1.41918,-0.39378 -2.405063,-0.25615 -2.405063,0.33523 0,0.20422 0.182977,0.27262 0.406539,0.15237 0.352866,-0.1898 3.275429,0.7956 13.487485,4.54595 1.268194,0.46574 2.448862,0.97384 2.623706,1.1298 0.354895,0.31657 -5.584933,-0.0156 -11.270319,-0.63031 -2.044304,-0.22104 -5.389528,-0.44119 -7.433832,-0.48983 -2.044304,-0.0486 -6.766974,-0.27938 -10.494822,-0.51286 -3.727848,-0.23349 -12.040791,-0.50426 -18.473549,-0.60132 -6.432779,-0.0971 -11.854333,-0.26179 -12.047523,-0.3657 -0.19319,-0.10392 -2.112697,-0.28954 -4.26523,-0.41253 -2.152532,-0.12298 -5.094019,-0.32863 -6.537057,-0.45712 -1.443038,-0.12849 -2.918873,-0.22768 -3.279632,-0.22075 -0.36076,0.007 -2.820483,-0.2317 -5.466053,-0.52997 -4.681617,-0.52782 -9.0834803,-1.78418 -10.7954546,-3.08093 -0.8697334,-0.65879 -1.6671461,-0.34833 -1.6671461,0.64889 0,1.02109 -0.4596322,1.91174 -0.9864517,1.91174 -0.4960284,0 -0.1693984,-8.90666 0.5508755,-15.03226 0.2215041,-1.88379 0.6179194,-5.39449 0.881401,-7.80155 0.2634817,-2.40707 0.6572815,-5.31838 0.8754225,-6.46958 0.9184084,-4.84676 1.8488731,-18.131596 2.3589441,-33.679872 0.102998,-3.139649 0.215161,-5.708453 0.248534,-5.708453 0.03337,0 0.1447943,-2.825684 0.2476813,-6.279297 0.185966,-6.242364 0.613405,-12.21583 1.526224,-21.311556 0.328259,-3.270921 0.513923,-7.126127 0.673008,-11.697125 -0.575563,-0.03913 -1.150814,-0.0796 -1.726931,-0.11298 -0.09245,-0.0054 -0.185086,-0.0092 -0.277573,-0.01412 -0.164142,0.01919 -0.32864,0.0313 -0.4962153,0.03568 -0.02505,3.215904 -0.216697,7.220986 -0.451804,9.124605 -0.245582,1.988444 -0.5022286,4.129114 -0.5705188,4.757044 -0.068292,0.62793 -0.2559556,4.738015 -0.416787,9.133524 -0.160831,4.395508 -0.369789,8.848101 -0.4637601,9.894651 -0.093971,1.046549 -0.2998283,4.985382 -0.4577819,8.75296 -0.1579596,3.767222 -0.3518191,6.941765 -0.4313121,7.054191 -0.3537559,0.500319 -1.1797539,13.105693 -1.3579722,20.726588 -0.2774691,11.86498 -0.4024669,14.25661 -1.0154902,19.40874 -0.2988554,2.51172 -0.6039063,6.70743 -0.6772781,9.32381 -0.073372,2.61637 -0.3492143,6.20852 -0.6132229,7.98217 -0.2640084,1.77364 -0.4799877,3.35598 -0.4799877,3.51649 0,0.16052 1.4266398,0.19664 3.1703107,0.0803 4.3626046,-0.29114 6.6385476,-0.22081 13.2278486,0.40806 3.126582,0.2984 7.211639,0.63396 9.077918,0.74626 1.866279,0.1123 4.326002,0.38877 5.466053,0.61396 1.171595,0.23142 8.632074,0.4722 17.159135,0.55375 8.297468,0.0794 15.67664,0.21888 16.398159,0.31069 0.721519,0.0918 4.066743,0.35814 7.433832,0.59166 3.367088,0.23352 6.810702,0.52644 7.652474,0.65038 2.749577,0.40482 4.579485,0.60982 5.24741,0.58794 3.830002,-0.12546 9.794288,-0.009 10.180524,0.19846 0.268694,0.14452 4.434071,0.30366 9.256411,0.3538 4.82235,0.0502 10.14534,0.18289 11.82888,0.29509 1.68355,0.1122 7.58688,0.3152 13.11853,0.45117 5.53165,0.13598 10.13924,0.31474 10.23946,0.39692 0.1002,0.0822 1.42845,0.1494 2.95166,0.1494 2.47795,0 2.76975,-0.0801 2.76975,-0.76113 0,-0.58998 -0.29153,-0.76112 -1.29647,-0.76112 -0.78507,0 -1.4602,-0.2627 -1.71156,-0.66599 -0.22832,-0.36629 -1.16992,-1.00059 -2.09248,-1.40927 -0.92255,-0.4087 -3.29544,-1.55845 -5.27303,-2.55543 -4.28072,-2.15805 -7.11783,-3.43846 -7.11783,-3.21249 0,0.17997 3.65214,2.23058 10.04046,5.6371 l 4.13797,2.20608 -3.48204,-0.002 c -3.21552,-0.002 -3.66495,-0.10237 -5.88626,-1.31933 -1.32278,-0.72469 -3.92949,-2.10861 -5.79316,-3.07572 -1.86367,-0.96712 -3.55396,-2.01569 -3.7562,-2.33021 -0.20226,-0.31453 -0.54722,-0.56412 -0.7661,-0.5545 -0.87171,0.0384 -2.36578,-0.43164 -2.36578,-0.74403 0,-0.18238 0.31807,-1.02452 0.70717,-1.87086 0.68445,-1.4887 0.75915,-1.53014 2.29574,-1.2896 0.87356,0.13674 2.57246,0.5683 3.77499,0.95959 1.20254,0.39128 2.3832,0.70916 2.62371,0.70612 0.8118,-0.0105 -0.85976,-0.73282 -3.16519,-1.36765 -1.25978,-0.3469 -2.514,-0.86451 -2.78683,-1.15061 -1.10923,-1.16317 2.94375,-0.30081 8.97116,1.90876 3.10999,1.14009 2.05029,0.40524 -2.06941,-1.43454 -4.51853,-2.01789 -5.40947,-2.81732 -4.61711,-4.14309 0.27858,-0.46613 0.55699,-0.90048 0.6192,-0.96553 0.1851,-0.19355 10.73223,4.49046 13.18856,5.85711 3.65218,2.03198 5.82145,2.91004 5.81708,2.35548 -0.002,-0.26589 -1.33028,-1.08253 -2.95167,-1.81511 -1.62139,-0.73259 -3.93214,-1.85762 -5.13467,-2.49968 -1.20254,-0.64206 -4.05582,-1.99096 -6.34063,-2.99768 -4.43961,-1.95617 -5.12215,-2.34928 -4.70507,-2.71226 0.27044,-0.23536 5.33647,1.91308 13.30386,5.6423 5.41191,2.53314 5.83159,2.68078 5.83159,2.05445 0,-0.73957 -20.3765,-9.51046 -21.50037,-9.25468 -0.93776,0.21342 -2.11297,-0.49164 -2.11297,-1.26731 0,-0.25386 0.34712,-0.33772 0.83784,-0.20217 0.46078,0.12728 0.96323,0.0557 1.11627,-0.15981 0.18177,-0.25597 0.61138,-0.20293 1.23925,0.15386 0.5286,0.30038 2.77852,1.15635 4.99974,1.90208 4.27697,1.4359 4.98817,1.75001 10.17283,4.49466 3.03359,1.60591 6.7848,2.98627 4.6581,1.71402 -5.3782,-3.21737 -9.42371,-5.07565 -16.24613,-7.46261 -6.28785,-2.19993 -9.05438,-3.44424 -8.84049,-3.97585 0.10218,-0.25396 0.52881,-0.40749 0.94888,-0.34117 1.43497,0.22658 0.21906,-0.6661 -1.52794,-1.12162 -0.95193,-0.24804 -1.7312,-0.6678 -1.7312,-0.93279 0,-0.35726 0.62853,-0.28939 2.4324,0.26238 1.33798,0.40926 2.76462,0.90816 3.17031,1.10898 1.07137,0.53034 8.32325,3.25697 13.6378,5.12795 2.52532,0.88903 5.31921,1.89395 6.20824,2.23284 1.01238,0.3859 1.71633,0.47481 1.88408,0.23859 0.14731,-0.20744 -0.008,-0.37684 -0.34419,-0.37684 -0.33654,0 -1.77461,-0.49944 -3.19593,-1.10974 -4.70707,-2.02112 -11.05744,-4.59872 -11.32925,-4.59872 -0.14722,0 -1.09292,-0.32764 -2.10187,-0.72768 -1.00896,-0.40003 -3.38421,-1.34193 -5.27816,-2.0931 -1.89395,-0.75117 -3.64972,-1.36542 -3.90139,-1.36542 -0.56408,0 -2.05661,-1.14367 -2.05661,-1.57576 0,-0.17382 1.03309,0.0468 2.29575,0.48982 2.88819,1.01338 5.9689,2.05522 7.10587,2.40305 l 0.87456,0.26758 -0.87456,-0.637 c -0.48102,-0.35033 -1.95685,-1.09229 -3.27964,-1.64861 l -2.40506,-1.01161 3.57344,-0.11001 3.57428,-0.11 5.1714,2.3525 c 2.84459,1.29413 5.66419,2.64478 6.26546,3.0014 2.09445,1.24225 6.23676,3.07543 6.47727,2.86612 0.35189,-0.30625 -0.2973,-0.75904 -2.76035,-1.92289 -1.20254,-0.56823 -3.17031,-1.58411 -4.37285,-2.25811 -1.20253,-0.67399 -3.21889,-1.72317 -4.48131,-2.33169 -1.26241,-0.60853 -2.29549,-1.2352 -2.29574,-1.39218 -8.7e-4,-0.51493 5.9688,-0.29843 7.87026,0.28542 1.02251,0.31397 2.0247,0.57085 2.22742,0.57085 0.20272,0 0.25545,-0.25688 0.11701,-0.57085 -0.20129,-0.45651 0.15173,-0.57084 1.7628,-0.57084 1.4992,0 2.01475,-0.14604 2.01475,-0.57085 0,-0.48218 -1.03574,-0.57213 -6.66858,-0.57753 -3.66772,-0.003 -9.95897,-0.11409 -13.98028,-0.24603 -5.59986,-0.18374 -7.46809,-0.127 -7.98044,0.24305 -0.54291,0.39213 -0.806,0.38524 -1.39641,-0.0386 -0.66358,-0.47642 -0.70243,-0.38883 -0.4407,0.99972 0.15782,0.83724 0.95318,3.06354 1.76707,4.94733 1.26344,2.92424 1.75961,3.61248 3.39237,4.70576 2.86602,1.91903 2.73864,2.30645 -0.71058,2.15925 -1.59202,-0.068 -2.93226,-0.18458 -2.97815,-0.25941 -0.0459,-0.0748 -0.74613,-1.22058 -1.55526,-2.5465 -0.80913,-1.32593 -2.35034,-3.12409 -3.42568,-3.99592 -2.07566,-1.68283 -6.12333,-3.26021 -9.09585,-3.544 -1.66569,-0.15902 -1.61353,-0.11467 1.09321,0.9254 5.70103,2.19063 7.99757,3.47438 9.52716,5.32566 1.90142,2.30131 2.07457,2.71133 2.89615,6.8546 0.68441,3.45152 0.57842,5.0045 -0.57137,8.36273 -0.5975,1.74514 -2.63312,5.41709 -3.00291,5.41709 -0.36165,0 -2.12413,-0.73512 -15.888275,-6.6227 -5.675482,-2.42767 -10.536333,-4.41365 -10.801437,-4.41365 -0.265103,0 -0.639532,-0.23394 -0.831863,-0.51955 -0.393079,-0.58372 -3.169611,-1.91012 -3.463256,-1.65456 -0.10445,0.0909 0.553724,0.65128 1.462169,1.245 0.908445,0.59373 1.75016,1.17797 1.870413,1.29853 0.531559,0.53288 2.592483,1.47744 4.810127,2.20459 2.439241,0.79982 3.425273,1.23486 10.045572,4.43223 3.77396,1.82268 9.65238,4.03011 10.73225,4.03011 0.64432,0 1.31009,0.69279 0.95913,0.99823 -0.36385,0.31666 -8.48194,-2.47817 -15.833615,-5.45127 -3.848101,-1.55622 -7.390104,-2.97188 -7.871116,-3.1456 -6.760882,-2.44166 -9.014125,-3.52686 -8.717502,-4.19883 0.138589,-0.31397 0.361035,-1.0418 0.494507,-1.6174 0.339538,-1.46425 2.07581,-1.39019 5.996431,0.25495 1.7055,0.71565 3.396299,1.39902 3.757058,1.51928 0.36076,0.12026 0.951094,0.37947 1.311853,0.57531 0.912446,0.4953 4.586032,1.9318 4.939948,1.9318 0.359657,0 6.511586,2.51476 12.272986,5.01719 2.37218,1.03035 4.42167,1.77858 4.55476,1.66274 0.1331,-0.11583 0.16,-0.25316 0.0598,-0.30549 -3.64123,-1.90135 -15.359835,-6.8396 -21.827484,-9.19819 -1.803797,-0.6578 -3.771576,-1.47405 -4.372842,-1.81362 -0.601266,-0.33958 -2.158934,-1.00934 -3.461551,-1.48881 -3.066928,-1.12889 -2.138534,-1.40149 1.27342,-0.37387 1.445955,0.43549 2.934527,0.7916 3.307819,0.7916 0.373292,0 1.848374,0.50509 3.277922,1.12236 1.429548,0.61728 2.597271,1.0026 2.595522,0.85627 -0.0049,-0.38586 -3.327545,-1.97863 -4.127727,-1.97863 -0.373235,0 -0.678984,-0.14761 -0.678984,-0.32779 0,-0.18018 -1.561293,-0.94832 -3.469234,-1.70733 -3.315231,-1.31887 -4.673396,-2.16351 -3.443613,-2.14067 0.314827,0.006 2.241501,0.50873 4.281454,1.11716 5.776735,1.72293 5.270443,0.57465 -0.605534,-1.3736 -3.121365,-1.03492 -4.580674,-1.83046 -4.109789,-2.24027 0.139673,-0.12155 2.084927,0.39411 4.32245,1.14615 2.237522,0.75205 4.330718,1.31826 4.651269,1.25839 0.320552,-0.0599 -1.488428,-1.01843 -4.020111,-2.13026 -4.274383,-1.87718 -4.60344,-2.10136 -4.60344,-3.13965 0,-1.71753 1.091291,-1.45312 7.172485,1.73632 2.993127,1.56982 5.593372,2.85422 5.777788,2.85422 0.184416,0 4.38096,1.77681 9.3256,3.94835 9.26583,4.0693 11.7604,5.00497 10.52044,3.94537 -0.70229,-0.60013 -1.38556,-0.91016 -11.80667,-5.3591 -3.72785,-1.59148 -7.26985,-3.15355 -7.871116,-3.47116 -0.941394,-0.49728 -3.115357,-1.58482 -10.399165,-5.20153 -0.788962,-0.39175 -1.822046,-0.71207 -2.295743,-0.71207 -0.473696,0 -0.860903,-0.23046 -0.860903,-0.51212 0,-0.38685 1.310327,-0.57692 5.356732,-0.77674 8.687994,-0.42904 9.883118,-0.97571 1.59882,-0.73139 -6.670421,0.19671 -7.280375,0.15984 -7.553403,-0.45936 -0.163338,-0.37048 -0.178355,-0.77756 -0.03245,-0.90458 0.145817,-0.12703 4.77479,-0.23116 10.286429,-0.23116 5.51164,0 10.021559,-0.12044 10.021669,-0.26758 4.3e-4,-0.66062 -3.386655,-0.94032 -10.057539,-0.831 -3.968354,0.065 -7.84379,0.21594 -8.612449,0.33596 -1.112324,0.17369 -1.494751,0.0605 -1.873832,-0.55597 -0.26196,-0.42599 -0.420467,-0.79431 -0.351879,-0.81836 0.06859,-0.0241 1.206975,-0.0933 2.52976,-0.15387 6.884336,-0.31513 15.718029,-1.11741 15.395479,-1.39812 -0.202275,-0.17605 -2.813994,-0.1329 -5.804266,0.0959 -6.588356,0.50406 -10.903525,0.21968 -10.902213,-0.71876 8.74e-4,-0.57132 0.822391,-0.63449 8.117945,-0.62733 l 8.117949,0.007 2.267555,1.95782 c 1.24691,1.07655 2.76482,2.44277 3.37357,3.03633 1.68427,1.64222 5.31032,4.37376 5.54036,4.17356 0.11211,-0.0976 -0.89139,-1.26189 -2.23083,-2.58739 -1.33945,-1.32549 -2.97939,-2.96224 -3.64432,-3.63765 -1.35427,-1.37558 -4.980425,-3.65763 -6.731789,-4.23674 -0.767464,-0.25376 -3.206456,-0.2507 -7.337319,0.01 -3.403321,0.21452 -6.474452,0.29438 -6.824025,0.17764 -0.928381,-0.31004 -0.37432,-1.29039 1.963506,-3.47562 2.329824,-2.17775 3.734434,-3.92641 3.392373,-4.2241 -0.129196,-0.11243 -1.386253,1.0429 -2.792812,2.56731 -1.40656,1.52442 -2.815223,3.03459 -3.131025,3.35595 -2.305739,2.34625 -3.174312,3.65758 -2.899571,4.37648 0.162867,0.42618 0.439974,2.05891 0.615784,3.62873 0.175814,1.56983 0.533041,3.53924 0.794287,4.37648 0.947464,3.03643 0.773609,4.9251 -1.066733,11.60719 -1.145094,4.15771 -1.809307,5.44906 -3.374435,6.55655 -2.29513,1.62405 -3.83057,0.14916 -3.166038,-3.04154 0.423645,-2.0341 -0.02235,-8.22114 -1.0488,-14.55135 -0.220614,-1.36051 -0.584955,-3.77163 -0.810515,-5.35837 -0.22556,-1.58673 -0.720443,-3.67989 -1.099188,-4.65075 -0.644798,-1.65285 -0.635812,-1.8721 0.140066,-3.44737 0.455738,-0.92528 1.045162,-1.79894 1.310147,-1.94147 0.649967,-0.34958 2.651889,-3.82948 2.651889,-4.609872 0,-0.443786 0.221187,-0.546051 0.765247,-0.353806 0.420886,0.148721 4.405639,0.33764 8.855006,0.41996 4.449367,0.08232 9.550012,0.338206 11.334372,0.567873 1.784365,0.229665 4.269513,0.305795 5.523273,0.169465 2.24587,-0.2442 2.28669,-0.230538 2.74584,0.91573 0.25632,0.63991 0.77119,1.16325 1.14446,1.16325 0.37327,0 0.67898,0.22875 0.67898,0.50841 0,0.27966 1.76462,1.92934 3.92104,3.6659 2.70187,2.17578 4.07789,3.5854 4.4275,4.53405 0.52638,1.42829 1.57282,2.70855 2.21376,2.70855 0.71631,0 0.35352,-1.16893 -1.17264,-3.77516 -1.56471,-2.67205 -2.60215,-3.60759 -6.95983,-6.27484 -1.63541,-1.00079 -2.42984,-1.74791 -2.42984,-2.28634 0,-1.323307 -1.27264,-1.74738 -6.965795,-2.320547 -1.065473,-0.107265 -1.979712,-0.235911 -2.030984,-0.285422 -0.05127,-0.04951 0.171761,-1.203087 0.49536,-2.563602 0.323599,-1.360514 0.67623,-3.07305 0.783185,-3.805635 0.106959,-0.732585 0.509509,-2.584403 0.895069,-4.115585 0.823135,-3.268976 0.808205,-3.115121 0.307465,-3.115121 -0.216595,0 -0.588875,0.899081 -0.826745,1.997958 -0.622588,2.876135 -2.752752,11.488607 -2.850888,11.526169 -0.04565,0.01747 -2.316731,-0.137369 -5.046701,-0.344144 -3.743595,-0.283546 -5.169496,-0.263521 -5.803414,0.08102 -0.593132,0.322368 -1.08676,0.34234 -1.676539,0.06764 -0.459664,-0.214094 -1.930784,-0.389484 -3.269381,-0.389484 -1.655344,0 -2.433872,-0.152157 -2.434104,-0.475705 -4.37e-4,-0.806235 1.344024,-6.746264 2.434104,-10.750919 0.56975,-2.093099 1.350631,-5.603797 1.734614,-7.801551 1.426133,-8.162543 3.334354,-16.192608 3.970576,-16.707629 0.154786,-0.1253 0.139791,1.228208 -0.03332,3.007343 -0.774784,7.969368 -0.07397,15.156462 1.788423,18.343606 0.710906,1.216593 0.770254,3.033281 0.158856,4.872997 -0.243003,0.731204 -0.624669,2.271637 -0.848091,3.422842 -0.223426,1.151204 -0.54141,2.649673 -0.706314,3.32993 -0.1778,0.733464 -0.125059,1.236832 0.129816,1.236832 0.41685,0 1.724798,-3.898344 2.872241,-8.562679 0.522655,-2.124595 0.488765,-2.466562 -0.481695,-4.916108 -0.574893,-1.451092 -1.233028,-4.354666 -1.466442,-6.46958 -0.535026,-4.847701 -0.518894,-4.1784 -0.232307,-9.60551 l 0.244267,-4.627713 -1.711561,-0.985598 C 85.081007,60.756259 83.98052,60.31224 83.577327,60.31224 c -0.682037,0 -0.681762,0.05015 0.01023,0.715787 0.686567,0.660228 0.695046,0.990511 0.108468,4.281339 -0.349587,1.961253 -0.77014,4.593074 -0.934354,5.848934 -0.164213,1.255859 -0.97834,5.023438 -1.809775,8.372397 -0.831435,3.348959 -1.682713,6.945284 -1.891766,7.991833 -0.209057,1.04655 -0.686903,3.015966 -1.061608,4.376481 -0.374713,1.360514 -0.838864,3.244304 -1.031719,4.186198 -0.33796,1.650546 -0.411992,1.716973 -2.036958,1.833692 -2.188087,0.157169 -2.69772,-0.304013 -1.87298,-1.694699 0.355617,-0.59965 0.785857,-2.46043 0.956559,-4.13491 0.170707,-1.674479 0.587636,-4.328909 0.925814,-5.898734 0.338178,-1.569824 0.917121,-4.652389 1.287085,-6.850143 0.369964,-2.197754 0.943913,-5.023438 1.27513,-6.279298 0.331212,-1.255859 1.04259,-4.338424 1.580883,-6.850143 0.884827,-4.12871 1.754288,-6.516624 2.563919,-7.040424 0.398065,-0.257532 2.365271,-4.561971 2.155676,-4.716906 -0.09157,-0.06769 -0.707683,-0.236528 -1.369076,-0.374619 -0.925708,-0.193269 -1.202531,-0.112959 -1.202531,0.349346 0,0.330306 -0.175264,0.506925 -0.389454,0.391714 -0.992539,-0.533855 -2.029301,2.337915 -1.243532,3.444396 0.161161,0.226942 -0.009,1.422703 -0.377498,2.657254 -1.281055,4.292136 -1.865367,6.44323 -2.317091,8.524029 -0.249916,1.151205 -0.964356,4.405023 -1.586865,7.230707 -0.622505,2.825684 -1.323493,7.043819 -1.557825,9.373606 -0.456498,4.538676 -1.422315,9.911247 -1.849065,10.282647 -0.534912,0.465528 -1.668357,-0.250784 -1.441669,-0.911271 0.126069,-0.367324 0.342476,-1.866991 0.480842,-3.332161 1.013021,-10.72719 2.930491,-20.358446 5.644552,-28.35198 0.604073,-1.779135 1.004228,-3.577297 0.889943,-3.995917 -0.418039,-1.531247 2.882569,-12.748877 3.751077,-12.748877 0.185229,0 0.462406,-0.58251 0.615788,-1.294065 0.251845,-1.168315 1.339712,-2.465043 1.753405,-2.090127 0.260359,0.235953 -0.940485,5.304572 -1.691914,7.142256 -0.374503,0.915883 -0.670116,1.943405 -0.656779,2.283381 0.01334,0.339977 0.521763,-0.580359 1.129081,-2.045529 0.607318,-1.465169 1.467089,-3.434585 1.911409,-4.37648 0.44432,-0.941895 1.03419,-2.568804 1.310147,-3.615353 0.275953,-1.04655 0.895987,-2.459392 1.378468,-3.139649 0.672255,-0.947807 0.735241,-1.236832 0.267325,-1.236832 -0.335829,0 -0.981322,0.642201 -1.433986,1.427114 -0.754866,1.308936 -0.836774,1.353059 -0.991577,0.532195 -0.32927,-1.746035 0.235041,-2.618257 1.866998,-2.884702 0.84416,-0.1378 1.534781,-0.395797 1.534781,-0.573075 0,-0.309043 4.100807,-1.250599 7.543153,-1.731861 1.464053,-0.204685 1.696225,-0.122526 2.1608,0.764843 0.353995,0.676158 0.770416,0.937214 1.302447,0.81613 1.615455,-0.367656 5.622865,6.087644 8.228975,13.256543 0.53263,1.46517 1.12695,3.006452 1.32125,3.425072 0.19429,0.41862 0.57766,2.81617 0.8515,5.327889 0.85248,7.819008 1.39488,11.302546 2.28123,14.651695 1.23063,4.650071 2.05755,9.418193 1.78842,10.313864 -0.12761,0.424694 -0.0212,1.146824 0.23658,1.604018 0.25777,0.457194 0.56294,1.430382 0.67813,2.162967 0.2732,1.737505 0.95713,3.95106 2.56477,8.299554 0.72034,1.948431 1.21374,3.626416 1.09663,3.728334 -0.1171,0.101919 -1.12424,-0.200792 -2.23852,-0.671934 l -2.02585,-0.856268 -0.67727,0.840661 c -0.74876,0.930337 -1.1274,0.906502 -5.53011,-0.350834 -3.0129,-0.860435 -2.96533,-0.85822 -2.96533,-0.133791 0,0.319145 0.53749,0.757973 1.19399,0.975194 0.65649,0.217226 1.32117,0.575132 1.47754,0.795322 0.15785,0.22228 2.49538,0.48567 5.25595,0.5924 3.80534,0.1471 5.29197,0.35986 6.3355,0.90755 2.55309,1.33997 3.01859,0.67756 1.42886,-2.034376 -1.3255,-2.261183 -2.34426,-5.741977 -3.63237,-12.413654 -0.62011,-3.211895 -1.22007,-5.969851 -1.3332,-6.129154 -0.20957,-0.295108 -0.57068,-2.384223 -0.89933,-5.199301 -0.10052,-0.860926 -0.40318,-2.059701 -0.67216,-2.663944 -0.26898,-0.604244 -1.25765,-5.294293 -2.19752,-10.422386 -0.93988,-5.128094 -2.01912,-10.436954 -2.39824,-11.797469 -1.54198,-5.533694 -4.0827,-10.279975 -7.4697,-13.954491 -0.80419,-0.872465 -1.46217,-1.865819 -1.46217,-2.207565 0,-0.348049 -0.660045,-0.861315 -1.500595,-1.166962 -1.952238,-0.709892 -2.163424,-1.070189 -1.112857,-1.897615 0.475341,-0.374379 0.864318,-0.985169 0.864318,-1.357244 0,-0.372075 0.419489,-0.792063 0.931789,-0.93357 0.776535,-0.214497 0.369025,-0.507687 -2.449471,-1.763079 -1.859416,-0.828202 -3.487499,-1.413449 -3.617845,-1.300011 z m -6.040841,2.507854 c -0.346565,0 -0.630306,0.171254 -0.630306,0.380563 0,0.20931 0.404982,0.380564 0.900189,0.380564 0.495207,0 0.778947,-0.171254 0.630306,-0.380564 -0.148642,-0.209309 -0.553624,-0.380563 -0.900189,-0.380563 z m 8.056446,0.442999 c -0.08473,-0.0078 -0.243415,0.06156 -0.487673,0.237109 -0.300633,0.216071 -1.221794,0.544443 -2.047207,0.729909 -0.825413,0.185467 -1.572098,0.522634 -1.658606,0.748492 -0.280234,0.731653 2.254362,0.451427 3.268529,-0.361239 0.767285,-0.614835 1.179146,-1.330943 0.924957,-1.354271 z m -7.74642,0.72545 c -0.122471,-0.02333 -0.236812,-0.005 -0.323691,0.07061 -0.109912,0.09566 -0.07564,0.455855 0.07601,0.799778 0.340063,0.771242 1.056488,0.823044 1.056488,0.07656 0,-0.428466 -0.44139,-0.876955 -0.808805,-0.946949 z m 11.678566,7.573362 c -0.4118,0.01286 -0.36266,0.898949 0.22462,2.220202 0.436745,0.982604 0.825985,2.129371 0.865165,2.547991 0.0392,0.41862 0.19187,0.932381 0.33907,1.141691 0.1472,0.20931 0.50743,1.065578 0.80026,1.902817 0.29283,0.83724 0.8218,2.083079 1.17606,2.768748 0.35425,0.685669 0.52609,1.57239 0.38091,1.970455 -0.14516,0.398077 -0.0373,2.919817 0.24,5.603649 0.2773,2.683837 0.57501,12.671726 0.6619,22.195328 0.14321,15.693605 0.24502,18.814895 0.63458,19.408738 0.45175,0.688649 1.2309,-18.451298 1.27,-31.206207 0.0333,-10.85756 -0.14425,-12.171646 -2.57246,-19.028175 -1.00071,-2.825684 -2.07893,-5.963441 -2.39567,-6.972786 -0.31674,-1.009346 -0.79439,-2.025549 -1.06161,-2.258109 -0.236855,-0.206137 -0.425565,-0.29863 -0.562825,-0.294342 z m -16.056534,1.723685 -0.282695,1.134258 c -0.155533,0.623923 -1.349333,3.044744 -2.653598,5.379174 -1.30427,2.33443 -2.371756,4.425025 -2.371756,4.646296 0,0.757923 -0.757253,0.810026 -1.492914,0.102573 -0.956612,-0.919932 -0.571286,-2.278707 1.235839,-4.354183 0.756786,-0.869161 1.960529,-2.401428 2.674951,-3.405 0.714422,-1.003569 1.657386,-2.202344 2.095033,-2.663946 z m -16.016387,2.415688 c -0.07171,-0.03589 -0.122134,0.269663 -0.122134,0.819102 0,0.732585 0.08986,1.032279 0.199852,0.665986 0.109986,-0.366292 0.109986,-0.96568 0,-1.331972 -0.02751,-0.09157 -0.05382,-0.141151 -0.07772,-0.153116 z m -4.032924,3.600485 c -0.09683,0.0212 -0.126401,0.153732 -0.126401,0.406578 0,0.339592 0.295166,0.617674 0.655926,0.617674 0.360759,0 0.655926,-0.06443 0.655926,-0.143453 0,-0.07902 -0.295167,-0.357106 -0.655926,-0.617674 -0.268602,-0.194007 -0.432693,-0.284334 -0.529525,-0.263125 z m 11.64013,4.85293 1.293063,1.12608 1.293919,1.126084 -0.612368,2.001672 c -0.336818,1.101126 -0.614433,2.549049 -0.617494,3.216953 -0.0063,1.483258 -0.538581,1.839929 -1.439111,0.964786 -0.633087,-0.615238 -3.813424,-4.629715 -3.813424,-4.813535 0,-0.04617 0.876125,-0.880099 1.947279,-1.853017 z m -14.475643,4.580139 c 0.969726,0.01507 2.401675,0.460052 4.359177,1.336432 l 3.213869,1.439006 -2.978146,0.859986 c -3.788395,1.093317 -3.686166,1.097366 -5.11759,-0.20292 -0.867463,-0.787987 -1.168646,-1.40603 -1.06588,-2.18824 0.110891,-0.844204 0.61884,-1.25935 1.58857,-1.244264 z M 102.372,55.457555 c -0.306,0.09239 -0.98102,1.099186 -2.27013,3.332903 -1.268347,2.197754 -2.882686,4.815597 -3.587943,5.816974 -0.705252,1.001377 -1.603276,2.673124 -1.995109,3.715697 -0.391833,1.042576 -0.884998,1.988935 -1.096626,2.102761 -0.211628,0.113827 -0.385186,0.720396 -0.385186,1.348325 0,1.533751 0.700341,1.076169 1.080398,-0.706124 0.167869,-0.787226 0.568658,-1.688454 0.889944,-2.002418 1.358458,-1.32749 7.704952,-12.587663 7.556812,-13.407431 -0.0291,-0.160929 -0.0902,-0.231486 -0.19216,-0.200687 z m -29.921513,11.71273 c 0.656761,-0.01568 1.349083,0.07217 1.491205,0.277991 0.108402,0.156982 -0.06173,1.371558 -0.378352,2.69888 -0.608201,2.549703 -0.942894,3.173199 -1.236697,2.302706 -0.29026,-0.860016 -1.153848,-4.553454 -1.153848,-4.935433 0,-0.209211 0.620917,-0.328464 1.277692,-0.344144 z m 28.954703,4.749612 c -0.23576,0.20931 -0.54484,2.264353 -0.68667,4.566762 -0.15281,2.480532 -0.10032,3.953609 0.12811,3.615353 0.56024,-0.829967 1.09483,-8.658215 0.55856,-8.182115 z m -0.93436,8.943242 c -0.2405,0 -0.43728,0.171254 -0.43728,0.380564 0,0.20931 0.19678,0.380563 0.43728,0.380563 0.24051,0 0.43729,-0.171253 0.43729,-0.380563 0,-0.20931 -0.19678,-0.380564 -0.43729,-0.380564 z m -0.32369,1.28143 c -0.0597,0.05198 -0.0732,0.365786 -0.0863,0.982626 -0.019,0.901182 0.11432,1.19011 0.42362,0.920933 0.29839,-0.259681 0.30736,-0.702935 0.0273,-1.312647 -0.19869,-0.432594 -0.30496,-0.642893 -0.36469,-0.590912 z m -6.350864,18.138461 c -0.162858,0.009 -0.311696,0.21902 -0.414226,0.65483 -0.213478,0.90742 1.102411,3.86423 2.194961,4.93172 1.364064,1.33277 1.478082,1.04657 0.330526,-0.83174 -0.572384,-0.93687 -1.174817,-2.39252 -1.338326,-3.23479 -0.192401,-0.9911 -0.501508,-1.53494 -0.772935,-1.52002 z m -62.956973,4.73103 c -0.0031,7.6e-4 -0.0062,0.002 -0.0094,0.002 -0.0076,0.002 -0.01059,0.003 -0.01708,0.004 0.0069,3.7e-4 0.01606,0.001 0.02391,0.002 7.87e-4,-0.003 0.0017,-0.006 0.0026,-0.008 z m 35.486642,9.00493 c -0.151912,-0.005 -0.324723,0.0186 -0.482552,0.0736 -0.348835,0.12148 -0.245504,0.21214 0.26391,0.23042 0.460967,0.0165 0.719241,-0.0735 0.573935,-0.19995 -0.07265,-0.0632 -0.203385,-0.0986 -0.355293,-0.10406 z m -3.659693,0.0483 c -0.622666,-0.0276 -1.379553,-0.0119 -2.141158,0.0528 -1.479066,0.12559 -7.407481,0.32908 -13.17404,0.45192 -5.766571,0.12283 -10.637246,0.30483 -10.82364,0.40509 -0.186394,0.10026 -4.869324,0.1814 -10.406852,0.17988 -5.537528,-0.002 -9.969476,0.13707 -9.84829,0.30772 0.121187,0.17065 4.301424,0.34066 9.288874,0.37833 4.987449,0.0377 9.170008,0.15745 9.294852,0.2661 0.124844,0.10866 0.820513,0.10896 1.545868,0.002 0.725355,-0.10783 6.139744,-0.38601 12.032149,-0.61842 14.439261,-0.56949 16.556761,-0.73543 15.565438,-1.21824 -0.222438,-0.10834 -0.710556,-0.17901 -1.333201,-0.20664 z m -50.126269,1.47394 c -0.151911,-0.005 -0.324718,0.0186 -0.48255,0.0736 -0.348836,0.12149 -0.245503,0.21215 0.263908,0.23042 0.46097,0.0165 0.719241,-0.0735 0.573936,-0.19994 -0.07265,-0.0632 -0.203383,-0.0986 -0.355294,-0.10406 z m 57.821444,0.0379 c -0.243235,-0.032 -0.598848,-0.0127 -1.04709,0.0595 -0.781646,0.12589 -5.750288,0.39667 -11.041427,0.60206 -5.291139,0.20539 -13.063866,0.5408 -17.272727,0.74477 -19.624771,0.95108 -30.565795,1.08986 -31.0599913,0.39394 -0.460273,-0.64805 -1.299042,-0.093 -1.299042,0.85999 0,0.79317 0.052314,0.79666 9.7295743,0.5478 19.749588,-0.50787 31.588066,-0.98733 44.275028,-1.7928 7.053902,-0.44784 8.089758,-0.5979 8.089758,-1.1692 0,-0.1311 -0.130848,-0.21406 -0.374083,-0.24602 z m 67.314433,1.58172 c -0.0184,0.0433 0.18498,0.17899 0.59444,0.44523 0.94007,0.61124 1.73979,0.7386 1.36993,0.21778 -0.1307,-0.18404 -0.68326,-0.43275 -1.22816,-0.55226 -0.47789,-0.10482 -0.71785,-0.15406 -0.73621,-0.11075 z m -40.05591,0.31069 c -0.403399,-0.015 -0.642589,0.0475 -0.636283,0.20664 0.0063,0.15945 2.117598,1.14615 4.691403,2.1927 2.57381,1.04655 6.45539,2.68914 8.62527,3.65029 4.12408,1.82675 5.03816,2.10165 5.03816,1.51482 0,-0.19414 -2.01698,-1.28683 -4.48217,-2.42833 -2.46519,-1.1415 -5.76122,-2.67392 -7.32451,-3.40574 -2.009,-0.94047 -4.701668,-1.68532 -5.91187,-1.73038 z m -7.570483,0.30624 c -1.253974,0 -0.205449,0.69366 3.430801,2.26852 2.155492,0.93354 5.348262,2.41971 7.094762,3.30317 1.7465,0.88345 4.3561,2.08076 5.79914,2.66097 1.44304,0.58021 4.19793,1.78197 6.12198,2.66989 3.77124,1.74037 4.32191,1.90289 4.05257,1.19967 -0.0961,-0.25084 -4.29429,-2.26958 -9.32902,-4.48649 -5.03473,-2.2169 -10.842643,-4.83704 -12.906712,-5.82292 -2.064073,-0.98587 -3.982658,-1.79281 -4.263521,-1.79281 z m 4.102955,0.0119 c -0.894128,0.0121 -0.894439,0.0139 -0.02221,0.58794 0.807402,0.53136 5.996978,2.79625 16.398148,7.15713 3.63812,1.52534 5.37102,2.10745 4.7734,1.60327 -0.10021,-0.0845 -4.51103,-2.0753 -9.80217,-4.42405 -5.29114,-2.34876 -9.806839,-4.42011 -10.03532,-4.60319 -0.228481,-0.18307 -0.818815,-0.32776 -1.311853,-0.3211 z m 47.944118,0.75518 c -0.63725,0.005 -0.64898,0.0567 -0.0837,0.37462 0.85637,0.48164 1.43525,0.48164 1.09322,0 -0.14865,-0.20931 -0.60282,-0.37766 -1.00951,-0.37462 z m -11.51203,0.0743 c -0.20894,0.0606 1.539,0.99592 3.88432,2.07824 4.51724,2.08457 5.70325,2.47745 3.99534,1.32305 -1.40518,-0.94978 -7.40398,-3.53928 -7.87966,-3.40129 z m -94.948745,0.70018 c -0.239888,0.0306 -0.326334,0.1544 -0.240848,0.37759 0.108008,0.282 0.675013,0.62556 1.260608,0.76336 0.585594,0.1378 4.803806,1.83065 9.373427,3.76178 4.56962,1.93113 8.701956,3.66218 9.182968,3.84652 2.029314,0.77768 8.977717,3.02889 9.348661,3.02889 0.221882,0 1.751126,0.50789 3.398345,1.12831 3.23481,1.2184 4.255843,1.40186 3.994491,0.71951 -0.09169,-0.23939 -2.814073,-1.26722 -6.049386,-2.28487 -3.235317,-1.01765 -6.690571,-2.19224 -7.678951,-2.60968 -0.988319,-0.41723 -1.925564,-0.75888 -2.082221,-0.75888 -0.156657,0 -1.119063,-0.32887 -2.138595,-0.73065 -1.019528,-0.40179 -3.450798,-1.3209 -5.403705,-2.04256 -1.952911,-0.72165 -5.197045,-2.1177 -7.209212,-3.10248 -2.939802,-1.43879 -5.035919,-2.18855 -5.755582,-2.09682 z m 108.486625,0.12413 c -0.13935,-0.009 -0.23636,0.002 -0.27672,0.0372 -0.11282,0.0982 0.36345,0.35432 1.0582,0.56936 0.69474,0.21504 1.55833,0.55285 1.91909,0.74998 0.85414,0.46672 1.31185,0.48668 1.31185,0.058 0,-0.33657 -3.03698,-1.35368 -4.01242,-1.41448 z M 31.851377,119.6806 c -0.776937,0 -0.179909,0.63881 1.176909,1.25838 2.663526,1.21627 6.518783,3.051 7.753255,3.69043 0.721519,0.37374 2.689298,1.15307 4.372842,1.73112 1.683544,0.57805 6.504603,2.50879 10.713464,4.291 4.20886,1.78222 8.93153,3.62551 10.494821,4.09626 3.363166,1.01275 3.621964,1.04988 3.406033,0.48611 -0.09068,-0.23675 -1.729922,-0.89797 -3.643465,-1.46948 -1.913538,-0.57151 -5.939208,-2.06629 -8.945537,-3.32175 -3.006329,-1.25547 -6.941887,-2.84128 -8.745684,-3.52393 -1.803798,-0.68266 -6.155073,-2.5906 -9.669789,-4.23972 -3.514716,-1.64911 -6.625397,-2.99842 -6.912849,-2.99842 z m -19.38399,0.38651 c -0.795612,0.005 -0.858371,0.0763 -0.327963,0.37462 0.847789,0.47681 1.311852,0.47681 1.311852,0 0,-0.20931 -0.44275,-0.37783 -0.983889,-0.37462 z m 11.839983,0.0587 c -0.800731,0.0987 -0.552113,0.27374 1.169223,0.82133 2.541337,0.80845 2.798566,0.90275 7.433832,2.73828 1.92405,0.7619 4.875719,1.81917 6.559263,2.34953 1.683544,0.53036 3.299303,1.13109 3.590514,1.33494 0.29121,0.20386 1.963827,0.86312 3.716917,1.46503 2.94228,1.01019 5.883751,1.58348 3.406033,0.66375 -0.601266,-0.22319 -3.097779,-1.2396 -5.548044,-2.25811 -2.450264,-1.0185 -4.590767,-1.85153 -4.75632,-1.85153 -0.165553,0 -1.40782,-0.48332 -2.760357,-1.07405 -4.314695,-1.88448 -11.75898,-4.31888 -12.811061,-4.18917 z m -15.1648813,0.0438 c -0.634576,-0.0416 -0.7634559,0.36311 -0.8421133,2.63421 -0.05111,1.47573 -0.2995371,3.3503 -0.5517298,4.16539 -0.4958664,1.60264 -0.2965002,2.22541 0.7122953,2.22541 0.8298878,0 7.4528711,1.93339 11.1123151,3.24371 1.563291,0.55976 5.596594,1.85652 8.962618,2.88247 6.343464,1.93345 7.216898,2.11566 7.216898,1.5007 0,-0.2009 -1.272453,-0.708 -2.827828,-1.12609 -1.555375,-0.41809 -3.409309,-1.02177 -4.120038,-1.34163 -0.710727,-0.31986 -2.242359,-0.85606 -3.403471,-1.19223 -1.161113,-0.33619 -3.193542,-1.01756 -4.516327,-1.51334 -1.322784,-0.49578 -4.274453,-1.51512 -6.559263,-2.26554 -5.9072437,-1.94018 -5.4892529,-1.57819 -5.3140283,-4.60616 0.08347,-1.44235 0.223422,-2.68753 0.311736,-2.76726 0.08831,-0.0797 0.9061093,0.1462 1.8166083,0.50172 0.910498,0.35552 2.048745,0.78093 2.529758,0.94546 0.481012,0.16453 1.814786,0.66644 2.963625,1.11568 1.148839,0.44925 2.388429,0.81687 2.755232,0.81687 0.366804,0 1.395219,0.32597 2.28464,0.72396 0.88942,0.398 2.403867,0.93078 3.365893,1.1848 0.962025,0.25403 2.33947,0.67469 3.060989,0.93432 2.108015,0.75854 8.211284,2.55825 9.401611,2.77246 2.041229,0.36735 0.500751,-0.36638 -3.018286,-1.43826 -4.224214,-1.28667 -9.041725,-2.93976 -10.537525,-3.61535 -1.355513,-0.61224 -3.376205,-1.34019 -6.777906,-2.4417 -5.1621,-1.67156 -7.4322403,-2.57587 -7.3544033,-2.93005 0.04348,-0.19786 -0.258962,-0.38253 -0.6713,-0.40955 z m 8.6696733,0.886 c -0.613982,0.10011 6.618242,3.06659 11.599989,4.72285 2.405063,0.79961 5.061565,1.71743 5.903337,2.03959 0.841772,0.32214 2.022439,0.58053 2.623705,0.57456 l 1.093211,-0.0104 -1.093211,-0.40063 c -0.601266,-0.22023 -1.486766,-0.54822 -1.967779,-0.72917 -0.481012,-0.18094 -2.645569,-0.86182 -4.810126,-1.51258 -3.605639,-1.08402 -7.967567,-2.68685 -10.713464,-3.93646 -0.601266,-0.27362 -1.683544,-0.60119 -2.405063,-0.72842 -0.113666,-0.0201 -0.189667,-0.026 -0.230599,-0.0193 z m 122.407978,1.09709 c -0.23967,-0.0296 -0.0342,0.20524 0.69948,0.7366 0.72152,0.52256 1.47087,0.95651 1.66544,0.96405 0.19457,0.008 0.23234,0.18463 0.0837,0.39394 -0.14864,0.20931 0.11074,0.38056 0.5765,0.38056 0.46575,0 1.11681,0.28279 1.44679,0.62882 0.32999,0.34604 1.19066,0.85313 1.91227,1.12683 1.60756,0.60973 1.53049,0.60056 1.53049,0.18508 0,-0.18836 -1.52502,-1.18259 -3.38895,-2.2098 -2.49007,-1.37227 -4.12627,-2.15668 -4.52572,-2.20608 z m -129.817896,3.12033 c -0.09882,0.0334 0.421636,0.26591 1.627859,0.71058 0.901898,0.33248 3.11565,1.01915 4.919447,1.52597 1.803798,0.50682 3.565784,1.08147 3.915061,1.27771 0.349276,0.19625 0.830861,0.25107 1.071005,0.1219 0.253834,-0.13652 0.171515,-0.30968 -0.197291,-0.41401 -0.348913,-0.0987 -3.045104,-0.90408 -5.991306,-1.78984 -3.295393,-0.99074 -5.180075,-1.48796 -5.344775,-1.43231 z m 84.821183,0.71132 c -0.876435,-0.14088 0.190862,0.3981 2.497304,1.26137 2.215224,0.82912 4.576559,1.76921 5.247409,2.08863 1.16609,0.55522 5.1945,2.20228 10.83986,4.43223 2.34252,0.92531 3.97046,1.13809 2.9901,0.39097 -0.37295,-0.28422 -6.99719,-2.96336 -13.70356,-5.5427 -5.665849,-2.17914 -6.223465,-2.36564 -7.871113,-2.6305 z m -0.710587,1.79876 c -0.118456,0.10309 1.026158,0.83273 2.543425,1.62111 1.517267,0.78839 3.053805,1.64742 3.414565,1.90877 0.36076,0.26135 3.90276,1.76465 7.87112,3.34108 7.28704,2.89476 8.3084,3.20837 8.3084,2.55022 0,-0.32697 -1.78212,-1.11459 -5.45837,-2.41197 -0.71729,-0.25314 -2.92808,-1.18419 -4.91261,-2.06932 -9.798252,-4.37014 -11.567452,-5.11315 -11.76653,-4.93989 z m 46.51611,0.12041 c -0.11421,0.0264 -0.1511,0.0902 -0.0837,0.18508 0.13478,0.18979 0.52801,0.34489 0.87457,0.34489 0.90507,0 0.77594,-0.25894 -0.24511,-0.49132 -0.24067,-0.0548 -0.43154,-0.0651 -0.54575,-0.0386 z m -13.60877,0.14941 c 0.0901,0 -0.22996,0.63935 -0.71144,1.42116 -0.48148,0.78181 -0.87832,1.68089 -0.88225,1.99796 -0.008,0.61219 -0.97302,2.08246 -3.54098,5.39107 -1.7029,2.19404 -3.88602,4.14096 -3.88602,3.46595 0,-0.22844 0.39355,-1.21461 0.87456,-2.19121 1.07163,-2.17573 1.20248,-6.46369 0.23402,-7.66702 -0.85657,-1.06429 -0.4767,-1.29042 1.72351,-1.02797 1.34977,0.16101 2.40337,0.004 3.93386,-0.58497 1.14984,-0.44265 2.1646,-0.80497 2.25474,-0.80497 z m 16.20685,0.76707 c -0.31292,0.003 -0.25918,0.15295 0.13494,0.37462 0.84008,0.47248 0.99146,0.47248 0.65593,0 -0.14864,-0.20931 -0.50443,-0.37766 -0.79087,-0.37462 z m -120.562333,0.37462 c -1.344079,0 0.600365,0.85894 5.691528,2.5138 2.25909,0.73431 2.669715,0.59149 0.655926,-0.22819 -4.322285,-1.75932 -5.78324,-2.28561 -6.347454,-2.28561 z m -15.7354,0.26907 v 1.34163 c 0,1.34005 0.00271,1.34187 2.951669,1.97046 1.623418,0.34604 4.033947,0.98405 5.356732,1.41819 1.322784,0.43414 4.372842,1.43988 6.777905,2.23432 5.648407,1.86579 7.230442,2.28041 8.695295,2.28041 0.659471,0 2.415947,0.48672 3.903957,1.08149 1.48801,0.59477 3.394419,1.35426 4.236191,1.688 1.591848,0.63113 2.623705,0.80625 2.623705,0.44524 0,-0.18223 -2.424797,-1.20032 -7.215189,-3.02891 -0.721519,-0.27542 -3.771577,-1.18435 -6.777906,-2.02025 -3.006329,-0.8359 -8.319332,-2.39118 -11.806674,-3.45629 -3.487342,-1.06511 -6.3988303,-1.93773 -6.4704403,-1.9385 -0.07161,-7.6e-4 -0.61275,-0.4548 -1.2025318,-1.00864 z m 139.275023,0.11149 c -1.76409,0 -1.95204,0.2576 -0.54661,0.74923 1.46328,0.51188 2.0771,0.45918 2.0771,-0.17839 0,-0.39868 -0.46158,-0.57084 -1.53049,-0.57084 z m -106.352303,0.90533 c -0.247297,0.21522 9.724242,4.50769 12.117556,5.21639 0.601266,0.17804 2.667434,0.82693 4.591484,1.44124 3.777515,1.20607 4.591485,1.36154 4.591485,0.87782 0,-0.17177 -2.312141,-1.05295 -5.13809,-1.95782 -2.825949,-0.90488 -5.925201,-1.96934 -6.887227,-2.36589 -4.426847,-1.82474 -9.035346,-3.42049 -9.275208,-3.21174 z m 56.406249,1.49029 c -0.07981,-0.006 -0.122986,0.005 -0.122986,0.0387 0,0.0887 1.229862,0.82921 2.733025,1.64564 2.691745,1.462 4.793025,2.44701 12.134635,5.68615 3.97544,1.75398 4.37284,1.86775 4.37284,1.25765 0,-0.21607 -2.90247,-1.61821 -6.44994,-3.11587 -3.54747,-1.49765 -7.22308,-3.14055 -8.16834,-3.65103 -1.604905,-0.86672 -3.94056,-1.81628 -4.499234,-1.86119 z m -64.859842,0.37164 c -0.148179,-0.007 -0.250082,0.004 -0.290383,0.0394 -0.139096,0.12105 0.02109,0.30765 0.356147,0.41475 0.335056,0.1071 1.396064,0.44159 2.358089,0.74329 2.114771,0.6632 2.533658,0.71059 2.206919,0.25049 -0.290813,-0.40951 -3.593519,-1.39573 -4.630772,-1.44793 z m 29.535476,1.41894 c -0.36076,0 -0.655927,0.16593 -0.655927,0.36867 0,0.20274 0.295167,0.26988 0.655927,0.1494 0.360759,-0.12048 0.655926,-0.28641 0.655926,-0.36867 0,-0.0823 -0.295167,-0.1494 -0.655926,-0.1494 z m -53.9422559,0.0342 c -0.2606183,0.0525 -0.5239457,0.37979 -0.6917972,0.96182 -0.158038,0.54797 -0.2289804,1.04245 -0.157149,1.09858 0.2755253,0.21528 8.0562491,2.42498 9.0950001,2.58293 4.814109,0.73202 3.819555,-0.087 -2.147988,-1.76829 -3.8919443,-1.0965 -5.2622623,-1.6493 -5.4242039,-2.18824 -0.155319,-0.5169 -0.4132437,-0.73932 -0.673862,-0.6868 z m 29.8779579,0.34639 c -0.11281,0 -0.204977,0.32863 -0.204977,0.72991 0,0.56097 0.480051,0.82088 2.0771,1.12608 1.142405,0.21831 4.733602,1.16658 7.980437,2.10722 3.246836,0.94065 6.050921,1.71856 6.2313,1.72815 0.870371,0.0462 0.127779,-0.36476 -1.749137,-0.96776 -1.142405,-0.36703 -4.789018,-1.57971 -8.103423,-2.69516 -3.314406,-1.11546 -6.118491,-2.02844 -6.2313,-2.02844 z m 26.340397,0.42293 c -0.27674,0.007 -0.09958,0.1894 0.78489,0.54186 v 7.6e-4 c 0.721519,0.28753 1.60702,0.52362 1.967779,0.52476 0.36076,0.001 -0.0064,-0.24797 -0.815635,-0.55375 -0.929837,-0.35134 -1.660294,-0.52048 -1.937034,-0.51361 z m 60.669771,2.62158 c -0.10737,0 -0.19559,0.15966 -0.19559,0.35455 0,0.19489 1.13147,0.86275 2.51439,1.48434 2.53948,1.14145 3.17031,1.34744 3.17031,1.03392 0,-0.17918 -5.14669,-2.87281 -5.48911,-2.87281 z m 8.62696,0.078 c -0.0321,0.0317 0.16173,0.15067 0.55771,0.37981 0.46932,0.27164 3.71616,1.81002 7.21519,3.41913 3.49903,1.60911 6.55875,2.92631 6.79926,2.92707 0.47731,0.002 0.47442,-2.3e-4 -4.72729,-2.90477 -3.26843,-1.82504 -6.15499,-2.99869 -9.04717,-3.67853 -0.50731,-0.11926 -0.76555,-0.17446 -0.7977,-0.14271 z m -96.67397,0.30251 c -1.119733,0 -0.188197,0.73611 2.581002,2.03959 2.72503,1.28268 3.498274,1.55685 3.498274,1.2398 0,-0.29022 -5.541253,-3.27939 -6.079276,-3.27939 z m 105.49054,0.12487 c -0.13017,0.1133 1.11165,0.80866 2.75951,1.54456 3.20109,1.42954 3.652,1.55914 3.652,1.05101 0,-0.40876 -6.09093,-2.87452 -6.41151,-2.59557 z m -101.283388,0.35456 c -0.841003,0.24397 2.477168,1.71645 4.495829,1.99498 1.082278,0.14933 2.951669,0.49835 4.1542,0.77599 2.22889,0.51462 4.481744,0.7132 4.074772,0.35901 -0.123935,-0.10786 -1.386309,-0.45532 -2.805624,-0.77228 -1.419316,-0.31695 -4.126206,-1.00765 -6.015219,-1.53488 -1.889013,-0.52726 -3.645959,-0.89767 -3.903958,-0.82282 z m 81.950648,1.06215 1.48352,0.84661 c 7.15861,4.08388 10.37786,6.18249 9.66723,6.30159 -0.43428,0.0728 -1.22762,-0.22619 -1.76281,-0.66375 -0.53518,-0.43756 -1.18171,-0.79532 -1.4374,-0.79532 -0.25568,0 -0.72689,-0.27447 -1.04709,-0.61024 -0.3202,-0.33577 -0.98408,-0.7623 -1.47498,-0.94769 -0.49089,-0.18539 -1.38445,-0.6325 -1.98571,-0.99378 l -1.09321,-0.65707 0.87457,0.88972 c 0.48101,0.48942 1.90764,1.39869 3.17031,2.021 1.26266,0.62232 2.18593,1.28684 2.05148,1.47617 -0.13446,0.18933 -0.38042,0.32434 -0.54661,0.30029 -0.16618,-0.0241 -1.06984,-0.17261 -2.00792,-0.33002 -0.93808,-0.15741 -2.06127,-0.20533 -2.49645,-0.10629 -0.52124,0.11863 -1.67805,-0.51232 -3.38981,-1.85005 l -2.59893,-2.03066 1.29733,-1.42488 z m -0.0811,3.02518 c -0.2547,0 -0.34166,0.17126 -0.19302,0.38057 0.14864,0.20931 0.35685,0.38056 0.46291,0.38056 0.10606,0 0.19302,-0.17125 0.19302,-0.38056 0,-0.20931 -0.20821,-0.38057 -0.46291,-0.38057 z m 12.25677,0.76559 c -0.077,-0.001 -0.0774,0.0375 0.0128,0.12041 0.36076,0.33158 1.73273,1.11471 3.04904,1.74004 1.3163,0.62533 2.48115,1.06061 2.58783,0.96776 0.25633,-0.22308 0.29492,-0.20057 -3.2318,-1.86565 -1.26266,-0.59614 -2.18677,-0.95858 -2.41788,-0.96256 z m -15.45014,0.10704 c 0.14356,-0.0115 0.28572,0.004 0.43045,0.0468 0.82562,0.24172 3.66311,2.326 3.66311,2.69071 0,0.1076 -0.14758,0.16215 -0.32796,0.12115 -0.18038,-0.041 -1.65621,-0.1349 -3.27963,-0.20812 -1.62342,-0.0732 -2.94495,-0.25321 -2.9363,-0.40063 0.009,-0.14742 0.4764,-0.75764 1.03855,-1.35576 0.5408,-0.5754 0.9811,-0.85954 1.41178,-0.89417 z m 5.41225,1.02722 c -0.0369,0.0145 0.0974,0.17066 0.37494,0.47868 0.33008,0.36629 0.80534,0.66598 1.05648,0.66598 0.25116,0 0.37437,-0.0486 0.27416,-0.10777 -0.10021,-0.0592 -0.57548,-0.35892 -1.05649,-0.66599 -0.40449,-0.25822 -0.61222,-0.38537 -0.64909,-0.3709 z" />
    <g
       aria-label="XXVIII"
       id="text1422"
       style="font-size:40px;line-height:1.25;font-family:Hultog;-inkscape-font-specification:Hultog"
       transform="matrix(0.43728423,0,0,0.3805635,1.2073178,2.4670582)">
      <path
         d="m 46.332907,55.622578 q -0.513762,2.715596 -1.541285,2.422018 l -3.571865,-1.003058 q -4.30581,0 -4.892966,1.247706 l -1.663609,-1.174312 q 0.954129,-2.07951 2.17737,-2.07951 0.293578,0 0.562691,0.09786 0.244649,-0.220184 0.244649,-0.562691 0,-0.513762 -0.538227,-1.394496 -1.712538,-1.223241 -4.501529,-6.776758 h -0.171254 q -0.513761,-0.02446 -0.758409,0.464832 -2.495413,5.333333 -4.4526,7.168196 l 0.195719,0.880733 q 2.2263,0.293578 2.2263,1.810398 0,0.611621 -0.415903,1.590214 -0.905198,-0.70948 -1.785932,-0.880734 -0.366973,-0.04893 -1.981652,-0.04893 -3.082568,0 -4.525994,0.733945 l -1.051987,-0.587156 v -1.932721 l 2.88685,-0.733945 q 0.685015,-0.171254 6.948012,-9.174312 1.247706,-0.391437 1.247706,-1.174312 0,-0.782875 -0.905198,-1.492355 -1.247707,-1.027523 -1.370031,-1.198777 -0.782874,-1.076452 -2.103975,-3.400611 -1.321101,-2.324159 -2.079511,-3.376147 0,0 -1.834862,-1.639144 l -3.278288,-0.733945 0.978593,-2.103975 5.357798,0.685015 3.009175,-0.685015 1.37003,0.464832 v 1.663608 q -1.688073,0.318043 -1.663608,1.370031 v 0.171254 l 4.648318,6.874617 0.75841,-0.195718 q 0.929663,-3.571866 3.474006,-5.993884 v -1.247707 l -1.883792,-0.685015 -0.415902,-1.859327 1.051987,-0.538226 3.914373,0.66055 q 1.663609,-0.587156 2.886851,-0.587156 1.492354,0 1.810397,1.003058 -0.807339,2.152905 -3.180428,2.152905 -1.859327,2.422019 -3.718654,4.844037 -2.788991,3.743119 -3.107034,4.892967 1.541284,1.761467 4.40367,5.333333 0.489296,1.076452 1.614679,3.058104 0.954128,1.003058 2.78899,2.93578 z"
         id="path1900" />
      <path
         d="m 73.733496,55.622578 q -0.513762,2.715596 -1.541285,2.422018 l -3.571865,-1.003058 q -4.30581,0 -4.892966,1.247706 l -1.663609,-1.174312 q 0.954129,-2.07951 2.17737,-2.07951 0.293578,0 0.562691,0.09786 0.244649,-0.220184 0.244649,-0.562691 0,-0.513762 -0.538227,-1.394496 -1.712538,-1.223241 -4.501529,-6.776758 h -0.171254 q -0.513761,-0.02446 -0.758409,0.464832 -2.495413,5.333333 -4.4526,7.168196 l 0.195719,0.880733 q 2.2263,0.293578 2.2263,1.810398 0,0.611621 -0.415903,1.590214 -0.905198,-0.70948 -1.785932,-0.880734 -0.366973,-0.04893 -1.981652,-0.04893 -3.082568,0 -4.525994,0.733945 l -1.051987,-0.587156 v -1.932721 l 2.88685,-0.733945 q 0.685015,-0.171254 6.948012,-9.174312 1.247706,-0.391437 1.247706,-1.174312 0,-0.782875 -0.905198,-1.492355 -1.247707,-1.027523 -1.370031,-1.198777 -0.782875,-1.076452 -2.103975,-3.400611 -1.321101,-2.324159 -2.079511,-3.376147 0,0 -1.834863,-1.639144 l -3.278287,-0.733945 0.978593,-2.103975 5.357798,0.685015 3.009175,-0.685015 1.37003,0.464832 v 1.663608 q -1.688073,0.318043 -1.663608,1.370031 v 0.171254 l 4.648318,6.874617 0.75841,-0.195718 q 0.929663,-3.571866 3.474006,-5.993884 v -1.247707 l -1.883792,-0.685015 -0.415902,-1.859327 1.051987,-0.538226 3.914373,0.66055 q 1.663609,-0.587156 2.886851,-0.587156 1.492354,0 1.810397,1.003058 -0.807339,2.152905 -3.180428,2.152905 -1.859327,2.422019 -3.718654,4.844037 -2.788991,3.743119 -3.107034,4.892967 1.541284,1.761467 4.40367,5.333333 0.489296,1.076452 1.614679,3.058104 0.954128,1.003058 2.78899,2.93578 z"
         id="path1902" />
      <path
         d="m 102.25947,31.23114 -0.41591,1.737003 -2.642197,1.443425 q -2.813456,7.241591 -3.743119,9.51682 -3.033639,7.363914 -4.281346,8.978593 l -1.688073,5.773701 q -2.2263,0 -2.666667,-1.712539 L 85.86803,53.225024 84.889437,51.854993 84.571394,49.799948 q -0.02446,-0.04893 -1.590214,-3.03364 -1.027523,-1.957186 -0.978594,-3.180428 -0.66055,-1.027523 -1.957186,-3.082568 -0.195719,-0.562692 -0.538226,-1.614679 -0.954129,-2.593273 -1.810398,-3.865444 -1.321101,-1.957186 -3.082569,-1.859327 -0.09786,-0.513761 -0.09786,-1.027523 0,-1.443425 1.394495,-1.908257 l 3.571866,1.370031 3.620795,-1.027523 1.296636,0.880734 q 0.04893,0.269113 0.04893,0.342507 0,1.198777 -2.201835,2.201835 0.342507,1.321101 1.174312,3.767584 1.516819,2.837921 4.207951,8.611621 0,0 0.954128,4.159022 l 0.75841,1.027523 q 0.70948,-0.244649 0.70948,-0.587156 v -2.128441 l 6.262997,-14.776758 q 0,-0.318043 -1.688073,-1.41896 -0.09786,-0.415903 -0.09786,-0.831805 0,-0.513761 0.293578,-0.905199 0.318043,-0.391437 0.831805,-0.293578 l 3.131498,0.636086 q 1.076453,-0.70948 1.93272,-0.70948 0.85627,0 1.54129,0.685015 z"
         id="path1904" />
      <path
         d="m 115.32369,56.087409 q -0.4159,2.470948 -1.46789,2.2263 l -4.52599,-1.027523 q 0,0 -3.32722,0.318043 -0.95413,0.66055 -1.66361,0.66055 -1.00305,0 -1.56574,-1.467889 l 1.2477,-1.810398 q 0.58716,0.195719 1.22324,0.195719 2.10398,0 2.10398,-3.400612 0,-0.66055 -0.0979,-1.981651 -0.0979,-1.321101 -0.0979,-1.981652 0,-1.932721 0.0979,-5.82263 0.0979,-3.889908 0.0979,-5.82263 0,-1.663608 -0.97859,-2.617737 -0.66056,0.244649 -1.32111,0.244649 -1.14984,0 -1.93272,-0.929664 0.4159,-2.446483 1.44343,-2.2263 l 4.47706,0.978594 4.25688,-1.027523 1.76147,0.905198 -0.51376,1.761468 q -0.4893,-0.122324 -0.83181,-0.122324 -2.25076,0 -2.25076,3.840979 0,0.391437 0.0245,1.027523 0.0245,0.61162 0.0245,0.831804 0,1.614679 -0.0979,15.437309 l 1.02752,1.100917 q 0.66055,-0.220183 1.19878,-0.220183 1.07645,0 1.68807,0.929663 z"
         id="path1906" />
      <path
         d="m 128.63256,56.087409 q -0.4159,2.470948 -1.46789,2.2263 l -4.52599,-1.027523 q 0,0 -3.32722,0.318043 -0.95413,0.66055 -1.66361,0.66055 -1.00306,0 -1.56575,-1.467889 l 1.24771,-1.810398 q 0.58716,0.195719 1.22324,0.195719 2.10398,0 2.10398,-3.400612 0,-0.66055 -0.0979,-1.981651 -0.0979,-1.321101 -0.0979,-1.981652 0,-1.932721 0.0979,-5.82263 0.0979,-3.889908 0.0979,-5.82263 0,-1.663608 -0.9786,-2.617737 -0.66055,0.244649 -1.3211,0.244649 -1.14984,0 -1.93272,-0.929664 0.4159,-2.446483 1.44343,-2.2263 l 4.47706,0.978594 4.25688,-1.027523 1.76147,0.905198 -0.51376,1.761468 q -0.4893,-0.122324 -0.83181,-0.122324 -2.25076,0 -2.25076,3.840979 0,0.391437 0.0245,1.027523 0.0245,0.61162 0.0245,0.831804 0,1.614679 -0.0979,15.437309 l 1.02752,1.100917 q 0.66055,-0.220183 1.19878,-0.220183 1.07645,0 1.68807,0.929663 z"
         id="path1908" />
      <path
         d="m 141.94143,56.087409 q -0.4159,2.470948 -1.46789,2.2263 l -4.52599,-1.027523 q 0,0 -3.32722,0.318043 -0.95413,0.66055 -1.66361,0.66055 -1.00306,0 -1.56575,-1.467889 l 1.24771,-1.810398 q 0.58715,0.195719 1.22324,0.195719 2.10398,0 2.10398,-3.400612 0,-0.66055 -0.0979,-1.981651 -0.0979,-1.321101 -0.0979,-1.981652 0,-1.932721 0.0979,-5.82263 0.0979,-3.889908 0.0979,-5.82263 0,-1.663608 -0.9786,-2.617737 -0.66055,0.244649 -1.3211,0.244649 -1.14985,0 -1.93272,-0.929664 0.4159,-2.446483 1.44342,-2.2263 l 4.47707,0.978594 4.25688,-1.027523 1.76147,0.905198 -0.51376,1.761468 q -0.4893,-0.122324 -0.83181,-0.122324 -2.25076,0 -2.25076,3.840979 0,0.391437 0.0245,1.027523 0.0245,0.61162 0.0245,0.831804 0,1.614679 -0.0979,15.437309 l 1.02752,1.100917 q 0.66055,-0.220183 1.19878,-0.220183 1.07645,0 1.68807,0.929663 z"
         id="path1910" />
    </g>
  </g>
</svg>
