<?xml version="1.0" encoding="UTF-8" standalone="no"?>
<!-- Created with Inkscape (http://www.inkscape.org/) -->

<svg
   version="1.1"
   id="svg2"
   width="4cm"
   height="4cm"
   viewBox="0 0 151.1811 151.1811"
   sodipodi:docname="31.svg"
   inkscape:version="1.1.2 (0a00cf5339, 2022-02-04)"
   xmlns:inkscape="http://www.inkscape.org/namespaces/inkscape"
   xmlns:sodipodi="http://sodipodi.sourceforge.net/DTD/sodipodi-0.dtd"
   xmlns="http://www.w3.org/2000/svg"
   xmlns:svg="http://www.w3.org/2000/svg">
  <defs
     id="defs6" />
  <sodipodi:namedview
     id="namedview4"
     pagecolor="#505050"
     bordercolor="#eeeeee"
     borderopacity="1"
     inkscape:pageshadow="0"
     inkscape:pageopacity="0"
     inkscape:pagecheckerboard="0"
     showgrid="false"
     inkscape:zoom="1.9454545"
     inkscape:cx="144.95327"
     inkscape:cy="173.99533"
     inkscape:window-width="1920"
     inkscape:window-height="1043"
     inkscape:window-x="0"
     inkscape:window-y="0"
     inkscape:window-maximized="1"
     inkscape:current-layer="g8"
     units="cm"
     inkscape:document-units="cm" />
  <!-- Border -->
    <rect
       x="0"
       y="0"
       width="4cm"
       height="4cm"
       class="board-border"
       stroke-width="0.1cm"
       id="border"
       fill="none"
       stroke="#000000" />
  <g
     inkscape:groupmode="layer"
     inkscape:label="Image"
     id="g8">
    <path
       id="path12"
       style="fill:#000000;stroke-width:0.412035"
       d="m 47.654085,2.4604811 c 0.0082,0.019319 0.01619,0.038586 0.0247,0.057738 0.01092,0.055895 0.02361,0.1114464 0.0358,0.1671366 0.06983,0.019892 0.138364,0.042856 0.20118,0.075211 0.121902,0.062787 0.24873,0.4281258 0.156007,0.3623825 0.01096,0.015005 0.02502,0.032419 0.03238,0.044064 0.2447,0.3851671 0.323107,0.4775463 0.346104,0.5872572 6.171178,0.1690216 15.291864,0.3557127 29.400949,0.5515509 8.873006,0.1231596 16.181871,0.2676178 16.242175,0.3213582 0.187681,0.1672609 34.37826,-0.068343 43.53238,-0.3000863 8.34383,-0.2112281 9.45824,-0.3182712 8.85976,-0.8516368 -0.1488,-0.132635 -18.79108,-0.2863873 -41.4276,-0.341111 C 70.453646,3.0506898 57.77177,2.8988439 47.654085,2.4604811 Z m 0.417717,0.6624687 c -0.05955,-0.081567 -0.156876,-0.1930314 -0.208007,-0.2074015 0.0062,0.010619 0.01375,0.021346 0.01959,0.031908 0.05768,0.060585 0.118016,0.118799 0.183285,0.1732144 0.0023,0.00194 0.003,7.973e-4 0.0051,0.00228 z M 47.717173,2.6967514 c 0.0018,0.00732 0.0027,0.014709 0.0043,0.022031 0.0055,0.00217 0.0092,0.00392 0.01449,0.00608 -0.0069,-0.00939 -0.01157,-0.018722 -0.01877,-0.028109 z m 0.238689,0.3965696 c 0.142462,0.3139952 0.167979,0.5748982 0.183281,0.6510731 0.006,1.689e-4 0.01017,5.911e-4 0.01619,7.584e-4 0.0065,-0.017385 0.01366,-0.046723 0.02986,-0.1261122 -8.72e-4,-0.1460052 0.0089,-0.2574708 -0.08355,-0.4064459 -0.02977,-0.048008 -0.09015,-0.083399 -0.14577,-0.1192746 z m 78.511918,9.241895 c -0.6391,-0.06513 -1.31071,0.38874 -1.06559,0.957995 0.28779,0.668373 -1.28237,3.259164 -1.97518,3.259164 -0.47856,0 0.25144,-1.380005 0.92664,-1.751896 0.23876,-0.131507 0.43391,-0.403421 0.43391,-0.60473 0,-0.827925 -0.90104,-0.251726 -2.61965,1.675924 -2.01178,2.256475 -2.89908,2.717832 -4.02538,2.091487 -0.92108,-0.512218 -1.89557,0.176811 -1.51143,1.068914 0.39156,0.909364 2.59466,2.083068 2.81316,1.498911 0.0984,-0.26289 0.37912,-0.477859 0.62485,-0.477859 0.24574,0 0.33097,0.26954 0.18926,0.598653 -0.16665,0.387026 0.0874,0.722939 0.71778,0.951919 1.62994,0.591977 2.29882,0.296307 2.14653,-0.94888 -0.0834,-0.681896 0.21582,-1.546407 0.76381,-2.206963 0.49551,-0.59728 0.90107,-1.208739 0.90107,-1.359124 0,-0.150385 0.61745,-1.130695 1.37162,-2.178093 0.97752,-1.357551 1.23623,-2.024509 0.90193,-2.322439 -0.17057,-0.151996 -0.3803,-0.231275 -0.59333,-0.252983 z m -47.974628,2.763071 c -1.91774,0.0738 -3.736028,0.390502 -4.89234,0.913174 -2.883619,1.303436 -5.644863,3.472214 -6.522273,5.121976 -0.785487,1.476916 -0.824633,1.854654 -0.347807,3.37236 0.295344,0.94015 0.411265,1.892005 0.256595,2.115038 -0.154676,0.223033 0.118086,0.761634 0.606959,1.197306 0.488868,0.435673 0.914448,1.273733 0.945394,1.862053 0.03094,0.588321 0.09485,1.594787 0.142362,2.236592 0.0499,0.674131 -0.32996,1.723375 -0.900211,2.484257 -1.046717,1.396628 -7.73723,5.481933 -8.985068,5.48664 -0.926252,0.0035 -5.864064,4.040444 -6.696179,5.474483 -0.340661,0.587084 -0.873298,1.302389 -1.184084,1.590076 -1.502675,1.39099 -2.549246,2.902724 -2.966605,4.284014 -0.670398,2.218761 -4.44472,8.225857 -6.432762,10.238634 -1.838784,1.861657 -2.659182,3.662853 -4.873589,10.700541 -2.951725,9.380992 -5.40916,15.558898 -6.188955,15.558898 -0.178452,0 -0.940115,1.093985 -1.693011,2.431079 -0.752902,1.337092 -1.698572,2.657228 -2.101347,2.934011 -0.603306,0.414576 -0.732273,1.22457 -0.732273,4.597769 0,3.231242 -0.138038,4.165262 -0.654701,4.429872 -1.324173,0.67822 -3.427543,2.19378 -6.044885,4.35468 l -2.684439,2.21608 -0.006,4.39645 c -0.0031,2.41806 0.225481,7.33605 0.508074,10.92846 l 0.514042,6.53124 1.128674,-0.0752 c 0.620871,-0.0413 3.486927,-0.0482 6.368825,-0.0159 l 5.2393,0.0584 0.932606,2.2366 c 0.512681,1.23013 1.045368,2.54291 1.184084,2.91729 0.419787,1.13297 1.152539,0.76372 1.15766,-0.58345 0.0028,-0.69529 0.125054,-1.91574 0.272791,-2.71218 l 0.268529,-1.44801 5.510386,0.23779 c 3.03037,0.1309 5.607739,0.31613 5.727767,0.41177 0.120028,0.0957 -0.233872,0.50073 -0.786831,0.90025 -0.963756,0.69632 -0.975119,0.76752 -0.277057,1.71695 0.400528,0.54476 0.885508,0.99067 1.078378,0.99067 0.192871,0 0.755078,0.58251 1.248875,1.29455 1.013792,1.46186 3.101297,2.57065 3.101297,1.64705 0,-0.29848 -0.176892,-0.60103 -0.39299,-0.67234 -0.514218,-0.16969 -3.971672,-3.91698 -3.971672,-4.30453 0,-0.77017 1.09742,-0.0699 4.10466,2.61873 1.794591,1.60451 3.459326,2.9173 3.699731,2.9173 0.977514,0 0.873159,-0.77264 -0.193512,-1.43435 -0.624966,-0.38769 -2.073606,-1.40516 -3.219789,-2.2609 -1.146182,-0.85575 -2.518803,-1.87095 -3.049298,-2.25558 -0.530494,-0.38464 -0.881107,-0.90974 -0.780012,-1.16692 0.278142,-0.70758 1.691407,-0.31814 2.833622,0.78023 0.559776,0.53828 1.132853,0.87602 1.273595,0.75059 0.140739,-0.12542 -0.21355,-0.57672 -0.787687,-1.00282 l -1.04428,-0.7749 1.11333,-0.013 c 0.612143,-0.007 1.356589,0.20464 1.654651,0.47026 0.431605,0.38465 0.618447,0.37239 0.91726,-0.0584 0.285589,-0.41181 0.964504,-0.47935 2.842997,-0.28261 2.188128,0.22919 2.846851,0.53389 5.810457,2.68407 1.838422,1.33382 4.109531,3.08138 5.046642,3.88364 1.58929,1.36058 2.473877,1.79418 2.473877,1.21251 0,-0.28221 -0.996557,-1.08158 -3.086807,-2.47667 -0.801348,-0.53483 -2.498516,-1.80386 -3.77219,-2.82005 -1.273675,-1.01624 -2.510008,-1.84762 -2.747524,-1.84762 -0.237513,0 -0.432203,-0.17504 -0.432203,-0.38897 0,-0.21395 0.416306,-0.38898 0.924934,-0.38898 0.917945,0 3.432797,1.63592 9.118904,5.93184 2.773736,2.09558 3.923082,2.6594 3.923082,1.9251 0,-0.52022 -1.005675,-1.24441 -1.727961,-1.24441 -0.374357,0 -0.917417,-0.3369 -1.206253,-0.74907 -0.288836,-0.41218 -2.128149,-1.83718 -4.087606,-3.16648 -2.881608,-1.95488 -3.427986,-2.48396 -2.859196,-2.76763 0.516515,-0.2576 1.313179,0.0442 3.000705,1.13653 1.263653,0.81796 2.788439,1.78995 3.388581,2.16062 0.600142,0.37067 2.561193,1.71044 4.357844,2.97655 1.796645,1.26611 3.323399,2.25137 3.39284,2.18948 0.389136,-0.34677 -0.549659,-1.39102 -1.250576,-1.39102 -0.454427,0 -0.826047,-0.17276 -0.826047,-0.38366 0,-0.2109 -0.834741,-0.86672 -1.854981,-1.45788 -1.02024,-0.59116 -2.051392,-1.26758 -2.291448,-1.50272 -0.240056,-0.23514 -1.392986,-1.0226 -2.561682,-1.75036 -2.357777,-1.46824 -1.816127,-2.07374 0.84736,-0.94737 0.828238,0.35027 1.677038,0.54234 1.886521,0.42696 0.775784,-0.42729 5.404744,1.28799 6.853886,2.53971 0.887117,0.76627 1.485006,1.06261 1.485006,0.73541 0,-0.30136 -0.540127,-0.94201 -1.200282,-1.42371 l -1.200282,-0.87594 1.429597,-0.0144 c 1.163248,-0.0114 1.904921,0.40277 3.982754,2.22291 1.404278,1.23014 2.826167,2.41163 3.160116,2.62557 0.333975,0.21394 1.684218,1.18077 3.000706,2.14846 3.502548,2.57457 5.547257,3.88061 6.074722,3.88061 0.944133,0 0.369281,-0.62359 -2.062132,-2.23887 -1.370673,-0.91059 -3.179211,-2.19097 -4.019409,-2.84511 -0.840196,-0.65416 -2.656987,-1.99145 -4.037311,-2.972 -1.380324,-0.98056 -2.509681,-1.93266 -2.509681,-2.11503 0,-0.82625 1.931323,-0.19467 3.610221,1.17982 3.019116,2.47175 9.660023,7.03387 10.247579,7.04025 0.98627,0.0107 0.555552,-0.55956 -1.314508,-1.73973 -3.229799,-2.03828 -8.196778,-6.08136 -7.934825,-6.45908 0.309369,-0.4461 2.37772,0.58832 4.350173,2.17582 2.988587,2.40531 12.007178,7.97393 12.914098,7.97393 0.40231,0 -9.053633,-6.45603 -11.218525,-7.65942 -0.81285,-0.4518 -0.811796,-0.46343 0.03916,-0.48393 0.717399,-0.0173 5.378777,2.8095 8.599755,5.21542 0.40885,0.3054 1.30675,0.81526 1.99562,1.13273 0.6889,0.31748 1.50805,0.8509 1.82005,1.18591 0.31198,0.33501 1.18177,0.59911 1.93256,0.5865 1.23533,-0.0207 1.28522,-0.0669 0.53023,-0.48622 -3.17474,-1.76319 -11.188846,-6.59674 -11.369431,-6.85715 -0.121441,-0.17511 0.383399,-0.42662 1.122707,-0.5584 1.370627,-0.24428 2.381913,0.32921 4.885524,2.77068 0.49361,0.48135 1.06625,0.87518 1.27275,0.87518 0.20648,0 0.90788,0.32303 1.55832,0.71793 5.7703,3.50335 7.95643,4.51014 7.94334,3.65801 -0.003,-0.16045 -1.81926,-1.29851 -4.03732,-2.52908 -6.76012,-3.75064 -9.878451,-6.12555 -8.04136,-6.12555 0.4968,0 7.44531,4.29134 10.55533,6.51908 1.24683,0.8931 3.76816,2.0861 4.16178,1.96917 0.4217,-0.12526 -0.94518,-1.14318 -4.60848,-3.43161 -4.58917,-2.86682 -8.0036,-5.52206 -7.77711,-6.04807 0.37319,-0.86669 0.82954,-0.6919 2.40653,0.9223 0.79889,0.81773 2.63108,2.26073 4.07141,3.20673 1.44034,0.94602 2.71701,1.81546 2.83703,1.93194 0.68232,0.66221 5.75341,3.87682 6.11564,3.87682 0.92442,0 0.34472,-0.70121 -1.61628,-1.95627 -1.12615,-0.72071 -2.97419,-2.01957 -4.10722,-2.88614 -1.13302,-0.86656 -2.7857,-2.01323 -3.67244,-2.54807 -0.88677,-0.53484 -2.40161,-1.58132 -3.36643,-2.32548 -0.96483,-0.74415 -2.85982,-1.66017 -4.21036,-2.03602 -2.713008,-0.75501 -8.733777,-0.91556 -11.620921,-0.30997 -1.088869,0.22835 -2.731357,0.22846 -4.364662,0.002 -1.440339,-0.20052 -4.877511,-0.38685 -7.63816,-0.41404 l -5.019361,-0.0493 0.03496,-7.64421 c 0.04234,-9.177 0.491269,-18.37752 1.13805,-23.34063 0.391367,-3.003198 0.369016,-3.697223 -0.125314,-3.969492 -1.141856,-0.628921 -1.433005,0.968566 -1.531039,8.386462 -0.149954,11.34608 -0.103832,10.69559 -0.753586,10.47338 -0.435536,-0.14894 -0.528814,0.12306 -0.372533,1.08183 0.197942,1.21437 -0.0045,1.08736 -3.892393,-2.45311 -2.255386,-2.05389 -4.82475,-4.16349 -5.709864,-4.68742 -4.307066,-2.54948 -8.697458,-6.83987 -9.860558,-9.63542 -0.140529,-0.33777 -0.633604,-1.075559 -1.095425,-1.640216 -0.540541,-0.66091 -0.921664,-1.942509 -1.070708,-3.59724 -0.277287,-3.078525 0.601471,-5.535667 2.403973,-6.720411 2.449234,-1.609821 7.393659,-4.562526 10.06856,-6.013121 l 2.763721,-1.498909 4.36722,0.584217 c 3.975622,0.532154 9.895217,2.312639 11.032705,3.318421 0.561275,0.496283 1.986262,0.466425 1.986262,-0.04179 0,-0.22485 -0.736536,-0.680524 -1.636748,-1.012697 -0.900212,-0.332175 -2.618797,-1.009734 -3.81908,-1.505748 -3.050893,-1.260784 -6.098432,-1.944497 -9.300479,-2.085409 -1.329704,-0.05853 -0.901739,-0.589411 1.473924,-1.830146 1.296698,-0.677228 2.293417,-0.940688 2.980244,-0.787059 0.567647,0.126964 3.390086,1.807754 6.2725,3.7355 2.882419,1.927747 5.361735,3.505311 5.50868,3.505311 0.146948,0 0.266824,-0.262557 0.266824,-0.583459 0,-0.320903 -0.147202,-0.583458 -0.327349,-0.583458 -0.180151,0 -1.211303,-0.725928 -2.291448,-1.613629 -2.083923,-1.712739 -4.822064,-3.365346 -7.554612,-4.558368 l -1.663178,-0.725523 1.444944,-0.81669 c 0.794403,-0.448959 2.622547,-1.60872 4.062885,-2.577701 3.171521,-2.133619 5.74057,-3.683752 6.582797,-3.971774 0.684702,-0.234158 2.439096,2.888926 3.26753,5.817114 0.847888,2.996931 1.75497,8.236362 1.625667,9.391556 l -0.127872,1.139569 -1.635897,-1.379639 c -0.937621,-0.790446 -1.756148,-1.91394 -1.917208,-2.631639 -0.154593,-0.688766 -0.547836,-1.343379 -0.873788,-1.454851 -0.404548,-0.138793 -0.592476,-0.91524 -0.592476,-2.446305 0,-2.93808 -0.415294,-4.691448 -1.172152,-4.950282 -0.949516,-0.324714 -1.020664,-0.03418 -0.582239,2.366501 0.228941,1.253599 0.250685,2.990517 0.04945,3.950501 -0.405548,1.934562 -0.252907,2.255917 0.827748,1.7405 0.589362,-0.281094 0.861638,-0.147052 1.251433,0.615367 0.274131,0.536178 0.501591,1.185343 0.505514,1.442693 0.01135,0.778615 3.212278,3.777324 4.030496,3.775768 0.499623,-7.78e-4 0.766273,0.301192 0.770633,0.873667 0.0034,0.481354 0.174644,1.111815 0.380206,1.400907 0.664681,0.934759 0.85732,-1.88704 0.360595,-5.285314 -0.257562,-1.762065 -0.332474,-3.325251 -0.166233,-3.473404 0.166242,-0.148151 0.88152,0.111986 1.589019,0.578142 0.707488,0.46616 1.441015,0.848209 1.630776,0.848599 0.332541,7.78e-4 3.7118,1.927685 7.316787,4.171577 0.95354,0.59353 2.2302,1.271332 2.83703,1.50651 2.083,0.807277 6.1982,3.335021 7.90327,4.854558 3.11419,2.775319 7.31328,10.980644 11.03186,21.556824 0.60175,1.71148 1.61637,4.33704 2.25479,5.83459 0.63841,1.49754 1.312,3.16041 1.49693,3.69525 0.18495,0.53482 0.75672,1.66967 1.27019,2.52223 0.51348,0.85258 0.93346,1.74795 0.93346,1.98968 0,0.24173 0.36912,0.8581 0.82008,1.369 0.45095,0.5109 1.2237,1.56972 1.71773,2.3536 0.7738,1.22777 0.80701,1.45713 0.23614,1.65236 -1.16361,0.39794 -2.55954,0.2472 -5.39615,-0.58269 -2.54068,-0.74331 -4.06101,-1.04606 -9.59885,-1.90916 -1.08025,-0.16835 -3.04435,-0.49629 -4.36466,-0.72856 -1.32031,-0.23227 -3.088,-0.51976 -3.9282,-0.63892 -4.33939,-0.61541 -4.4122,-0.64409 -5.16172,-2.05502 -0.55781,-1.05004 -0.60153,-1.41388 -0.185,-1.53917 0.73887,-0.22226 0.69441,-0.87747 -0.0596,-0.87747 -0.37069,0 -0.98572,-1.09393 -1.5856,-2.82005 -0.539035,-1.55103 -1.458059,-4.16689 -2.041681,-5.81332 -0.897356,-2.5315 -0.976312,-3.13182 -0.512333,-3.88972 0.771672,-1.26051 0.834645,-21.455882 0.06904,-22.138769 -1.027923,-0.916863 -1.331409,1.319371 -1.194314,8.795189 0.07455,4.06476 -0.01896,8.00311 -0.208007,8.75188 l -0.344394,1.3614 -0.530239,-1.16692 c -0.291835,-0.64179 -0.638347,-1.69202 -0.769785,-2.33383 -0.131429,-0.6418 -0.875456,-3.17984 -1.653798,-5.6401 -1.549934,-4.899167 -1.552293,-6.347511 -0.01963,-12.21769 0.444642,-1.703101 0.549084,-2.823765 0.28558,-3.0586 -1.060963,-0.945518 -1.6149,0.660794 -2.081741,6.03819 -0.125356,1.44406 -0.384182,2.625566 -0.575422,2.625566 -0.191231,0 -0.609741,-0.568874 -0.930047,-1.264162 -0.3203,-0.695288 -0.933256,-1.603827 -1.362249,-2.018553 -0.429113,-0.414727 -0.780023,-0.891548 -0.780023,-1.059798 0,-0.336511 -3.588184,-1.881047 -4.369778,-1.881047 -0.269007,0 -0.918041,-0.212703 -1.442385,-0.472541 -0.524344,-0.25984 -1.444088,-0.50816 -2.044229,-0.55155 -0.600141,-0.04339 -1.633444,-0.201048 -2.295712,-0.350989 -1.838443,-0.416236 -9.569775,0.188698 -9.360154,0.732365 0.0951,0.24664 0.841564,0.418308 1.658913,0.382134 7.457422,-0.330082 9.95977,-0.281036 11.129889,0.215759 0.69728,0.29604 1.689534,0.709386 2.20535,0.919251 1.484871,0.60414 4.811865,3.712633 5.651042,5.28 0.421163,0.786627 1.237984,2.568281 1.814916,3.958862 0.57694,1.390571 1.639478,3.928613 2.361354,5.640093 0.721866,1.71148 1.594624,4.42457 1.939377,6.02908 0.592816,2.75904 2.510417,9.35295 4.464405,15.34922 0.485232,1.48906 0.800385,2.82555 0.699885,2.97046 -0.10052,0.14494 -2.001864,-0.25956 -4.224866,-0.89948 -4.984675,-1.43494 -6.380186,-1.71594 -5.787442,-1.16314 0.240056,0.2239 1.693045,0.78212 3.229173,1.23986 4.185294,1.24715 10.157855,3.86329 9.846065,4.31288 -0.1501,0.21642 -0.65604,0.28519 -1.12441,0.15271 -1.66399,-0.47067 -14.733249,-1.20018 -14.304508,-0.79846 0.145876,0.13669 3.673962,0.49361 7.840199,0.79313 6.566929,0.47213 7.775449,0.47003 9.077989,-0.0152 1.50687,-0.56111 5.14013,-0.42461 6.61519,0.24842 0.3662,0.1671 3.41055,0.59845 6.76522,0.95877 3.35468,0.36029 6.34749,0.77706 6.65015,0.92608 0.30264,0.14902 -1.95606,0.1993 -5.01936,0.11168 -3.06332,-0.0876 -5.42728,-0.0266 -5.25294,0.13523 0.17434,0.16188 3.1205,0.53535 6.54699,0.83036 10.47469,0.90184 11.0729,0.99742 10.5971,1.68353 -0.15641,0.22552 0.13483,0.34973 0.68794,0.294 0.5276,-0.0531 1.04607,0.12231 1.15254,0.38973 0.29187,0.73302 -1.63466,0.60928 -7.52648,-0.48318 -6.26849,-1.16229 -12.93362,-1.29146 -12.84507,-0.24918 0.031,0.36433 4.05238,3.16369 4.26834,2.97123 0.10161,-0.0906 -0.45712,-0.6458 -1.2412,-1.23377 l -1.42534,-1.06891 1.24206,-0.29629 c 0.90027,-0.21457 1.46188,-0.11911 2.03911,0.34643 0.7192,0.58004 0.86287,0.58407 1.47307,0.0403 0.61021,-0.5438 1.0134,-0.52685 4.15155,0.1755 3.41092,0.76338 3.54481,0.84012 7.16674,4.09712 2.03004,1.8255 3.69121,3.46474 3.69121,3.64283 0,0.17808 0.39281,0.32362 0.87293,0.32362 0.48011,0 0.87293,-0.13683 0.87293,-0.30388 0,-0.16704 -1.42396,-1.4185 -3.16438,-2.78129 -4.46611,-3.49712 -4.58681,-3.70192 -2.24882,-3.80693 1.84169,-0.0827 2.00494,0.0107 5.40212,3.08747 1.92671,1.74496 3.50281,3.31471 3.50281,3.4886 0,0.17388 0.58922,0.31603 1.3094,0.31603 1.64696,0 1.66735,-0.49583 0.0588,-1.42065 -2.35172,-1.35213 -7.52443,-5.89876 -7.02437,-6.17418 0.26658,-0.14684 1.14292,0.15052 1.94789,0.66095 1.95187,1.23765 6.64772,5.24783 7.49579,6.40133 0.69795,0.9493 1.0903,1.11223 1.59498,0.66247 0.36712,-0.32716 -9.47612,-9.22608 -11.38393,-10.29182 -0.78017,-0.43582 -1.41851,-0.95093 -1.41851,-1.14412 0,-0.4744 5.31363,0.0425 5.93492,0.57738 0.76649,0.65979 3.38043,2.67627 4.56074,3.51898 0.58897,0.42052 -0.0968,-0.31835 -1.52337,-1.6425 -1.42661,-1.32414 -2.46768,-2.52017 -2.31361,-2.65746 0.51939,-0.46288 2.94313,0.57156 5.05175,2.15605 1.15207,0.86574 2.22915,1.57413 2.39375,1.57413 0.72639,0 0.1884,-1.11556 -1.04342,-2.16366 l -1.34265,-1.1426 1.45175,-0.24083 1.45176,-0.24008 -1.74586,-0.057 c -2.87097,-0.0929 -3.70997,-0.42135 -3.70997,-1.45256 0,-1.10307 0.80724,-1.18779 3.43718,-0.36087 0.99041,0.3114 1.80043,0.44157 1.80043,0.2887 0,-0.15288 -1.25717,-0.67966 -2.79357,-1.17072 -2.76406,-0.88343 -2.7957,-0.91043 -2.98536,-2.52528 -0.10542,-0.89762 -0.12623,-1.70338 -0.0469,-1.79065 0.0794,-0.0873 1.42204,-0.1218 2.98451,-0.0768 1.7562,0.0509 2.8413,-0.0743 2.8413,-0.32741 0,-0.24772 -1.20719,-0.40949 -3.05527,-0.40949 -2.42482,0 -3.05526,-0.12039 -3.05526,-0.58346 0,-0.46307 0.63044,-0.58346 3.05526,-0.58346 1.74587,0 3.05527,-0.1667 3.05527,-0.38896 0,-0.21892 -1.22466,-0.38897 -2.80123,-0.38897 -1.54074,0 -3.14292,-0.11646 -3.55993,-0.25907 -0.70528,-0.2412 -0.73605,0.0882 -0.44755,4.71553 l 0.3103,4.97459 -3.8438,-0.27806 c -3.43206,-0.24826 -3.96217,-0.39252 -4.95883,-1.35076 -0.61384,-0.59016 -1.47965,-1.93064 -1.92403,-2.97883 -0.79831,-1.883 -3.39898,-7.10704 -4.18991,-8.41609 -0.22445,-0.37147 -0.40834,-1.08068 -0.40834,-1.57565 0,-0.49495 -0.16587,-1.06623 -0.36826,-1.26946 -0.20242,-0.20325 -0.70707,-1.41946 -1.12186,-2.70306 -0.41479,-1.28361 -1.06784,-2.99605 -1.45092,-3.8054 -0.73226,-1.54714 -0.53829,-2.01055 0.97695,-2.33535 0.69528,-0.14905 0.64212,-0.19653 -0.26001,-0.23247 -0.62295,-0.0249 -1.43243,-0.35114 -1.79872,-0.72553 -0.94339,-0.96423 -2.63203,-5.21437 -2.21643,-5.57856 0.19066,-0.16708 2.90028,-0.40953 6.02102,-0.53863 3.12073,-0.12912 6.02005,-0.32782 6.44298,-0.4414 0.87504,-0.23498 3.65376,2.20029 4.94094,4.33035 0.71009,1.17507 2.0015,1.93661 2.51225,1.48145 0.36506,-0.32534 -1.84109,-3.4177 -3.73129,-5.23062 l -1.87202,-1.795966 -2.83703,0.302375 c -1.56037,0.166185 -4.99233,0.361781 -7.62623,0.434551 -4.50736,0.12455 -4.79777,0.0864 -4.93923,-0.645751 -0.59429,-3.076164 -5.0846,-8.372411 -8.82138,-10.404264 -0.84021,-0.456852 -2.31329,-1.382859 -3.27351,-2.058056 -0.96022,-0.675202 -3.02153,-1.823255 -4.58118,-2.551115 -1.559652,-0.727861 -3.032722,-1.524009 -3.273505,-1.769365 -0.240774,-0.245357 -2.046884,-1.185414 -4.01344,-2.088449 -3.804814,-1.747189 -5.242415,-3.316409 -4.824149,-5.266324 0.114833,-0.535347 -0.04329,-0.993381 -0.381909,-1.109178 -0.317341,-0.108524 -0.70828,-0.686432 -0.869523,-1.283912 -0.161249,-0.597482 -0.658755,-1.736109 -1.104806,-2.529842 -0.446046,-0.793733 -0.810701,-1.776962 -0.810701,-2.184929 0,-0.718719 2.246143,-2.32078 4.952876,-3.533421 0.683539,-0.306235 1.34307,-0.789381 1.465401,-1.073475 0.32408,-0.752638 0.972202,-0.640851 2.790998,0.48242 0.88993,0.549613 2.570385,1.12751 3.733828,1.283911 1.96129,0.263658 2.2442,0.191982 3.88386,-0.983065 0.97267,-0.697045 2.2286,-2.106363 2.79101,-3.131531 0.56242,-1.025164 1.26794,-2.126132 1.56855,-2.447033 0.3006,-0.320903 0.8678,-1.712281 1.25995,-3.092027 0.70941,-2.496007 3.63442,-6.632284 4.69031,-6.632284 0.80046,0 6.47112,-5.166803 6.47112,-5.896122 0,-0.372098 -0.49102,-1.148208 -1.09116,-1.725306 -0.63401,-0.609652 -1.09118,-1.514854 -1.09118,-2.15986 0,-0.932419 -0.17956,-1.10994 -1.12014,-1.10994 -1.46368,0 -2.80804,-0.658398 -2.80804,-1.375077 0,-0.313376 0.18951,-0.569785 0.42112,-0.569785 0.2316,0 0.64944,-0.379623 0.92833,-0.844039 0.42154,-0.701934 0.37035,-0.933703 -0.30348,-1.3728 -0.44581,-0.290518 -1.79659,-1.369446 -3.00156,-2.39765 -1.20495,-1.028206 -3.02498,-2.403931 -4.04413,-3.057081 l -1.85242,-1.18743 1.07328,-0.627521 c 0.59059,-0.344864 1.24227,-0.626762 1.44749,-0.626762 0.20521,0 0.77368,-0.393835 1.26337,-0.875188 1.14815,-1.128624 3.33253,-2.777395 5.43791,-4.103963 1.61127,-1.015227 2.20583,-2.022353 1.19347,-2.022353 -0.67236,0 -6.16564,3.603201 -9.15812,6.007041 -1.34674,1.081825 -2.96711,2.281456 -3.60085,2.665829 -1.19591,0.725347 -1.49078,1.59735 -0.68879,2.039066 0.25518,0.140551 0.84441,-0.05118 1.30939,-0.426198 0.9606,-0.774727 1.09636,-0.519858 0.31628,0.593335 -0.83582,1.192734 -0.11325,1.327091 1.13804,0.211959 1.11586,-0.994438 1.15853,-1.000486 2.2224,-0.31528 1.31678,0.848093 1.23947,1.680672 -0.21653,2.335354 -0.59801,0.268894 -1.03757,0.723282 -0.97693,1.009657 0.0606,0.286373 -1.81038,2.433525 -4.15836,4.771749 -11.750638,11.701665 -10.973057,11.021297 -11.591986,10.130706 -0.280099,-0.403045 -0.950851,-1.21529 -1.490979,-1.805831 -0.540126,-0.590546 -0.993196,-1.223933 -1.00677,-1.406989 -0.02566,-0.345613 -3.786165,-2.974152 -7.153957,-5.000423 -1.066724,-0.641803 -1.950192,-1.28948 -1.963242,-1.439653 -0.01305,-0.150174 0.897838,-0.838411 2.024623,-1.5293 2.717177,-1.666041 4.917023,-3.722547 5.769538,-5.393953 0.381916,-0.748772 1.299919,-2.149073 2.04082,-3.11178 0.740901,-0.962706 1.813596,-2.59364 2.383523,-3.624584 l 1.036605,-1.874969 -0.968411,-1.625783 c -0.532728,-0.89447 -1.947533,-2.521343 -3.143071,-3.614709 -1.866796,-1.707257 -2.544856,-2.058259 -4.805393,-2.485777 -0.769908,-0.145606 -1.607029,-0.236927 -2.461089,-0.278055 -0.640544,-0.03084 -1.290752,-0.03295 -1.930001,-0.0083 z m 1.026381,1.166918 c 2.017312,0.04079 4.147373,0.335533 4.945193,0.855435 0.692293,0.45113 0.398957,0.494118 -2.132884,0.313001 -3.439109,-0.246019 -4.149423,0.478163 -0.863557,0.880506 5.720209,0.700419 7.965509,2.055972 7.965509,4.807455 0,1.719161 -0.775195,2.377138 -2.798669,2.377138 -1.232538,0 -2.212038,1.071148 -2.668241,2.917294 -0.65112,2.634914 -0.532833,2.530125 -2.167841,1.921311 -1.013238,-0.377291 -1.575,-0.422079 -1.769734,-0.141306 -0.328581,0.473819 -0.363568,0.443452 1.241205,1.058278 1.923258,0.736856 2.876007,0.586077 3.18313,-0.504448 0.25075,-0.890364 1.051954,-1.392594 1.051954,-0.65943 0,0.668653 -2.543053,3.839831 -3.888128,4.84848 -1.707378,1.280334 -2.896909,1.327148 -5.766129,0.227154 -1.558713,-0.597576 -2.311356,-0.715383 -2.648635,-0.414803 -0.555543,0.495091 1.574308,2.354585 2.809752,2.45311 0.420099,0.03351 1.009328,0.08265 1.309398,0.109399 0.300071,0.02674 0.545583,0.251597 0.545583,0.499889 0,0.535361 -2.990889,2.722423 -4.18479,3.060118 -0.998269,0.282363 -1.121588,1.35077 -0.156002,1.35077 0.37306,0 1.719132,-0.516351 2.991326,-1.147165 l 2.31276,-1.146404 1.420222,1.305944 c 1.367505,1.257377 1.40069,1.360906 0.886572,2.799536 -0.857892,2.400597 -3.652327,4.690668 -6.390141,5.236692 -2.781302,0.554702 -7.066135,0.0401 -9.918525,-1.190466 -1.022094,-0.440946 -2.07789,-0.801496 -2.346005,-0.801496 -0.268117,0 -0.6029,-0.306316 -0.744206,-0.680702 -0.332737,-0.881521 -3.298406,-3.723941 -3.602553,-3.45289 -0.555133,0.494731 0.419868,2.136635 2.283775,3.845663 1.106197,1.014276 2.157657,1.843818 2.33663,1.843818 0.178973,0 1.19713,0.393835 2.262462,0.875188 1.634798,0.73866 2.651747,0.877079 6.519714,0.888865 l 4.582896,0.01443 0.08184,4.84772 c 0.04512,2.666503 0.0039,5.064044 -0.09207,5.327856 -0.323997,0.889923 -1.496241,0.03758 -2.852372,-2.074771 -0.91087,-1.418749 -1.626016,-2.09984 -2.204499,-2.09984 -0.747964,0 -0.791178,0.11069 -0.3461,0.875188 0.280237,0.481353 1.183892,1.619097 2.008425,2.528321 l 1.499501,1.653132 -1.230118,0.06609 c -3.876147,0.208104 -9.46859,-0.556141 -12.468274,-1.703272 -2.225393,-0.851025 -2.364386,-1.066379 -1.534449,-2.375621 0.60355,-0.952115 1.662635,-4.655347 1.398905,-4.891784 -0.346314,-0.310478 -1.501205,0.854249 -1.501205,1.514107 0,0.375478 -0.294613,0.900591 -0.654699,1.166916 -0.360085,0.266327 -0.654698,0.631967 -0.654698,0.812133 0,0.180159 -0.60057,1.07744 -1.334121,1.994242 -4.501814,5.626408 -5.499977,7.491768 -4.155804,7.764255 0.498508,0.101055 0.404625,0.57923 -0.476534,2.433357 -1.127214,2.371867 -1.879018,6.448556 -1.187494,6.440076 0.438465,-0.0054 3.666547,-8.723181 3.663929,-9.895245 -8.73e-4,-0.417472 0.62883,-1.686432 1.39976,-2.82005 1.144825,-1.683402 1.564744,-2.017148 2.291447,-1.818749 1.330773,0.363316 1.330197,0.343347 0.08781,2.962115 -1.250834,2.636567 -2.220741,5.468469 -2.669092,7.794641 -0.155792,0.808254 -0.663223,2.530589 -1.127825,3.826668 -0.970796,2.708189 -1.19693,3.934787 -1.570256,8.512573 -0.299808,3.676267 -0.897501,4.667668 -2.815718,4.667668 -0.870859,0 -1.494618,0.355845 -2.214726,1.264161 -1.263452,1.593674 -2.412156,2.459049 -4.076524,3.069997 -0.720169,0.264357 -1.916888,0.885159 -2.659717,1.37963 -0.742829,0.49448 -1.551828,0.898744 -1.797865,0.898744 -1.052692,0 0.256413,-7.748296 1.528483,-9.046647 0.368254,-0.375857 0.883504,-1.016147 1.144873,-1.423702 0.261369,-0.407552 1.113159,-1.553517 1.893342,-2.545793 0.780183,-0.992273 1.418516,-1.999369 1.418516,-2.238112 0,-0.238747 0.2853,-0.711073 0.634237,-1.049923 0.348956,-0.338849 1.085478,-1.053718 1.636749,-1.588554 0.551282,-0.534838 1.010131,-1.147469 1.019559,-1.361404 0.0094,-0.213936 0.275292,-1.455644 0.590764,-2.759274 1.021022,-4.219168 0.405256,-4.151175 -2.092819,0.230953 -3.198847,5.611378 -6.083529,9.442072 -6.899919,9.162883 -2.845858,-0.973228 -3.97789,-0.246943 -1.217332,0.780983 1.813063,0.675113 1.885297,1.141568 0.446696,2.87931 -1.340184,1.618853 -2.410794,4.806699 -2.410794,7.176993 0,1.911856 -0.555604,3.089464 -1.964099,4.162459 -1.329819,1.013068 -1.326731,0.57408 0.01279,-1.785316 0.672097,-1.183827 1.082339,-2.277122 0.911294,-2.429559 -0.617235,-0.550071 -1.780697,0.578734 -2.52673,2.451594 -0.424741,1.066286 -0.769887,1.54477 -0.780014,1.081822 -0.02036,-0.930899 -1.013161,-1.284357 -2.620502,-0.932921 -1.317835,0.288131 -1.942304,2.389509 -1.362252,4.582571 0.375252,1.41876 0.387005,1.39794 0.429647,-0.755147 0.02409,-1.217497 0.239884,-2.321652 0.479941,-2.453867 0.240056,-0.132224 0.436466,-0.06028 0.436466,0.15954 0,0.219843 0.294614,0.298635 0.6547,0.175487 0.507382,-0.173513 0.654698,0.09172 0.654698,1.179076 0,0.831922 0.212855,1.403191 0.523419,1.403191 0.407369,0 0.407369,0.103425 0,0.46646 -0.288068,0.25672 -0.523419,0.78184 -0.523419,1.16692 0,0.7824 -0.704584,0.95529 -0.972672,0.23854 -0.110044,-0.2942 -0.535357,-0.13901 -1.171297,0.42772 -1.041187,0.9279 -0.86134,1.41343 0.616337,1.66149 0.940489,0.15789 0.960923,0.37941 0.4305,4.69351 l -0.275349,2.23659 -3.132839,-0.0752 c -5.981794,-0.14309 -8.588667,-0.35283 -8.588667,-0.69133 0,-0.18719 1.129357,-1.18485 2.509682,-2.21761 1.380324,-1.03272 2.607885,-1.96789 2.727913,-2.0778 0.120029,-0.10991 1.212562,-0.92994 2.427844,-1.82256 l 2.209611,-1.6235 -0.442433,-2.38321 c -0.32874,-1.771446 -0.307733,-2.575614 0.08183,-3.13153 0.28828,-0.411385 0.524271,-1.019209 0.524271,-1.351533 0,-0.859219 1.593179,-3.531431 3.467861,-5.81559 0.881968,-1.074614 2.050043,-3.004204 2.594927,-4.287814 0.544886,-1.283609 1.175961,-2.645405 1.403171,-3.025933 0.227211,-0.380524 0.715938,-2.110895 1.085199,-3.845661 0.369261,-1.734767 1.188314,-4.311317 1.82003,-5.725947 1.402551,-3.140792 6.318735,-12.189253 7.024379,-12.928016 1.270212,-1.329834 2.785249,-3.697715 3.402219,-5.317222 0.370368,-0.97219 0.949528,-2.013119 1.286383,-2.313319 0.336862,-0.300206 0.612075,-0.72 0.612075,-0.932928 0,-0.212928 0.491025,-0.960284 1.091166,-1.661493 0.600141,-0.701207 1.096926,-1.433561 1.103954,-1.627299 0.02234,-0.615324 2.610997,-2.924299 3.02372,-2.696977 0.217744,0.119929 0.45815,-0.255849 0.534501,-0.834925 0.09716,-0.736927 0.614357,-1.292812 1.723701,-1.853694 0.871724,-0.440741 2.639411,-1.378223 3.928196,-2.08313 1.288785,-0.704907 2.736268,-1.488019 3.216381,-1.740501 4.393631,-2.31052 5.137134,-2.894277 4.782374,-3.752217 -0.125227,-0.302846 -0.32295,-1.472016 -0.439875,-2.598214 -0.185022,-1.782034 -0.0892,-2.124223 0.738239,-2.640757 0.795102,-0.496309 0.85907,-0.691958 0.391287,-1.194267 -0.351198,-0.377125 -0.385169,-0.600933 -0.09122,-0.600933 0.257533,0 0.6483,0.28722 0.868673,0.638158 0.494748,0.787864 1.388679,0.362439 1.388679,-0.66095 0,-0.415243 0.271464,-0.755152 0.603549,-0.755152 0.332085,0 0.721872,-0.306316 0.866115,-0.680702 0.453685,-1.177546 2.329172,-3.754306 2.843848,-3.907198 0.807341,-0.239829 0.0795,-0.857715 -1.010179,-0.857715 -0.555335,0 -2.535411,0.444298 -4.400466,0.986866 -1.865055,0.542568 -3.608424,0.906141 -3.874489,0.808333 -0.266091,-0.09781 -0.14049,-0.192031 0.27961,-0.20892 0.420099,-0.01688 0.763815,-0.201044 0.763815,-0.409485 0,-0.557513 2.132844,-1.434169 4.252989,-1.748096 1.018982,-0.150881 1.964189,-0.434481 2.099642,-0.629802 0.376932,-0.543528 -1.571672,-0.422998 -4.134497,0.255263 -2.601007,0.688365 -3.325113,0.475823 -1.779961,-0.521922 1.638258,-1.057867 4.846171,-1.999363 6.872636,-2.017034 1.020241,-0.0089 1.854983,-0.203165 1.854983,-0.431516 0,-0.228352 -0.365262,-0.311605 -0.811558,-0.18537 -0.955765,0.27034 -2.334086,-0.120437 -2.020357,-0.572823 0.344528,-0.496801 2.248464,-0.7101 4.265775,-0.669306 z m 42.742147,1.489035 c 0.0748,0.01406 0.14191,0.04442 0.19863,0.09496 0.0917,0.0817 -0.22431,0.567131 -0.70244,1.078791 -0.85605,0.916067 -0.86971,0.91807 -0.88401,0.09725 -0.0111,-0.639682 0.8648,-1.369402 1.38782,-1.270997 z m -41.999643,2.146944 c -0.28854,0.0093 -0.499265,0.05748 -0.606108,0.152703 -0.457468,0.407688 -0.202333,0.506034 3.012638,1.160839 1.200283,0.244466 2.869767,0.776336 3.709963,1.181352 1.810091,0.872552 2.318159,0.941484 2.07833,0.282612 -0.363232,-0.997884 -6.175054,-2.842359 -8.194823,-2.777506 z m -0.452664,1.569565 c -0.263538,-0.01234 -0.448325,0.0136 -0.529386,0.08584 -0.223248,0.198955 0.900915,0.624826 2.669948,1.011176 1.680835,0.367089 3.694279,1.08688 4.47463,1.599953 1.366492,0.898465 2.065502,1.006183 1.53104,0.23551 -0.62113,-0.895652 -6.301472,-2.846126 -8.146232,-2.932487 z m 42.032037,0.922291 c -0.8851,0.0161 -1.50351,0.852829 -2.49008,3.36932 -0.59279,1.512083 -1.66509,3.602906 -2.38265,4.646398 -0.71757,1.043491 -1.43293,2.378354 -1.59072,2.966674 -0.28548,1.064468 0.0237,1.316658 0.94625,0.771867 0.53617,-0.316656 2.78929,-3.966783 2.78929,-4.518764 0,-0.347997 1.31212,-3.002575 2.45512,-4.967756 0.6542,-1.124785 0.79266,-2.2772 0.27279,-2.267739 z m -42.868315,1.295307 c -0.50012,-0.0035 -0.962635,0.216997 -1.547238,0.711091 -1.260284,1.06516 -1.31543,1.412277 -0.406629,2.568586 0.80456,1.023679 2.613023,1.140136 4.024525,0.259061 1.69736,-1.059509 0.921427,-2.790575 -1.552355,-3.462766 -0.181046,-0.04919 -0.351594,-0.07478 -0.518303,-0.07597 z m -4.569256,0.413284 c 0.118026,-0.01718 0.190103,0.02674 0.190103,0.135228 0,0.213935 -0.294615,0.606584 -0.6547,0.872909 -0.365208,0.270116 -0.654698,0.311944 -0.654698,0.09496 0,-0.213934 0.294614,-0.606583 0.654698,-0.872908 0.182605,-0.135058 0.346577,-0.21302 0.464597,-0.230193 z m 4.616997,0.232471 c 0.669028,-0.0013 1.269139,0.26597 1.428745,0.636639 0.386461,0.897512 0.215633,0.909693 -1.272743,0.08813 l -1.309399,-0.723245 z m -8.669651,0.92305 c 0.04589,-0.04089 0.106794,0.01352 0.176458,0.168656 0.1261,0.280791 0.110256,0.616025 -0.03496,0.745278 -0.145038,0.129252 -0.248254,-0.100485 -0.229319,-0.510527 0.01047,-0.226564 0.0419,-0.36251 0.08782,-0.403407 z m 8.298825,0.387453 c 0.07911,-0.03109 0.188567,-0.0175 0.308594,0.04862 0.240056,0.132218 0.436466,0.317421 0.436466,0.411763 0,0.09434 -0.19641,0.171695 -0.436466,0.171695 -0.240056,0 -0.436466,-0.185204 -0.436466,-0.411764 0,-0.11328 0.04876,-0.189226 0.127872,-0.220316 z m -9.608224,0.0016 c 0.04589,-0.04089 0.106795,0.01352 0.176459,0.168656 0.126099,0.28079 0.110256,0.616025 -0.03496,0.745277 -0.145039,0.129253 -0.248254,-0.100484 -0.22932,-0.510526 0.01047,-0.226565 0.04191,-0.36251 0.08782,-0.403407 z m 17.502126,0.781744 c 0.159065,0.0048 0.271084,0.159339 0.271084,0.409483 0,0.683241 -0.261792,0.783391 -0.635944,0.243868 -0.138115,-0.199152 -0.05132,-0.471873 0.192661,-0.606248 0.06098,-0.0336 0.119177,-0.0487 0.172199,-0.04711 z m -80.8494048,1.06584 c -0.1401991,0.06258 -0.2839768,0.118777 -0.4262354,0.177772 0.00551,0.02171 0.00474,0.05174 0.011081,0.07217 0.3481828,-0.144821 0.5571999,-0.11509 0.8754905,-0.06077 0.015171,0.0026 0.030176,0.0047 0.045183,0.0091 4.795e-4,-0.0064 0.00126,-0.0133 0.00174,-0.01975 -0.06832,-0.02455 -0.1328634,-0.04752 -0.2028881,-0.07141 -0.012076,-0.0045 -0.193196,-0.07827 -0.3043335,-0.107119 z m -0.3137095,0.401887 c -0.00522,6.22e-4 -0.013139,0.0049 -0.018757,0.006 0.013363,-9.34e-4 0.030573,-0.0021 0.044332,-0.003 -0.00851,-0.0012 -0.015644,-0.0042 -0.025575,-0.003 z m 73.3416693,3.437695 c -1.241545,0 -0.493668,1.33873 0.895952,1.603752 1.99342,0.380176 2.321796,0.373276 2.619649,-0.05622 0.2864,-0.41298 -2.291204,-1.547533 -3.515601,-1.547533 z m -72.827628,0.35249 c -0.010636,0.0075 -0.032352,0.01941 -0.022161,0.019 0.00773,-3.11e-4 0.038569,-0.01098 0.050297,-0.01291 -0.00937,-0.0021 -0.018767,-0.004 -0.028126,-0.006 z m 103.520931,0.547725 c 0.21873,-0.02781 0.47503,0.08187 0.89168,0.31376 0.99008,0.551032 1.26618,1.677507 0.51318,2.092246 -0.65965,0.363328 -0.52295,0.972432 0.21824,0.972432 0.36009,0 0.6547,-0.262556 0.6547,-0.583459 0,-0.320902 0.19642,-0.583458 0.43647,-0.583458 0.24006,0 0.43577,0.04376 0.43476,0.09725 -0.0103,0.548875 -2.43766,4.131425 -3.66563,5.409906 -1.7166,1.787239 -1.91229,2.2723 -0.91556,2.2723 0.36009,0 0.6547,-0.1376 0.6547,-0.305407 0,-0.460803 2.63649,-1.753596 2.97002,-1.456366 0.15983,0.142441 -0.17184,0.570038 -0.73654,0.94964 -0.73351,0.493077 -0.94598,0.9164 -0.74421,1.482958 0.19252,0.540578 0.0555,0.870808 -0.4305,1.037005 -0.39215,0.134105 -0.60621,0.49152 -0.47568,0.794659 0.38107,0.884985 -0.49705,3.031681 -1.81833,4.445075 l -1.22245,1.307464 -1.25995,-0.966355 -1.26081,-0.966351 1.33157,-1.186673 c 1.69935,-1.514432 2.64978,-3.457184 1.98285,-4.051541 -0.34975,-0.311687 -0.69367,-0.08623 -1.26337,0.827325 -1.90883,3.06096 -4.61005,5.871936 -7.43867,7.740704 -2.33023,1.53949 -3.120164,2.30696 -3.328064,3.233332 -0.392893,1.750731 -0.335548,3.451371 0.116789,3.451371 0.485318,0 0.919827,-0.967937 0.919827,-2.049701 0,-1.138301 1.664056,-3.187524 3.253886,-4.007481 0.731149,-0.37709 1.883972,-1.094157 2.562532,-1.593115 1.42615,-1.048662 1.93577,-1.099552 3.10726,-0.30996 0.65923,0.444315 0.73255,0.676675 0.32735,1.037762 -0.61668,0.549591 -0.69905,1.865855 -0.11678,1.865855 0.22291,0 0.70038,-0.262557 1.06047,-0.583459 0.36009,-0.320903 0.95319,-0.583458 1.31793,-0.583458 0.55082,0 0.58533,0.214159 0.2063,1.26416 -0.92655,2.566701 -3.16911,6.085897 -5.16173,8.100046 -2.31777,2.342812 -3.585081,2.598804 -6.775454,1.369001 l -1.745864,-0.673109 1.091168,-0.738441 c 0.600136,-0.406421 1.856514,-1.225796 2.79184,-1.821028 2.44287,-1.554621 6.12091,-4.744274 5.80023,-5.030051 -0.15002,-0.133683 -1.70212,0.787276 -3.44824,2.046663 -3.294055,2.375796 -5.335844,3.688096 -6.899073,4.433678 -0.777579,0.370863 -1.231976,0.217895 -3.070612,-1.031686 -1.186896,-0.806651 -2.15761,-1.527487 -2.15761,-1.602236 0,-0.175399 3.203566,-4.283905 4.287086,-5.498032 0.457036,-0.51212 1.05194,-0.809039 1.322184,-0.660191 0.313629,0.172734 0.398299,0.05357 0.233581,-0.328954 -0.163153,-0.378898 0.501648,-1.351527 1.808943,-2.645316 1.137298,-1.125546 2.380624,-2.484258 2.762024,-3.019095 0.381377,-0.534837 1.543437,-1.754436 2.582987,-2.710651 1.03955,-0.956219 3.30388,-3.38205 5.0313,-5.390155 4.25953,-4.951677 4.38602,-5.115849 4.12511,-5.348371 -0.35676,-0.317938 -2.68279,1.744588 -4.85824,4.308325 -1.08921,1.283609 -3.18368,3.646616 -4.6545,5.251127 -1.470815,1.604512 -3.492147,3.837556 -4.492534,4.962437 -5.137993,5.777376 -9.064026,9.889981 -11.731738,12.28986 -1.629822,1.466189 -2.963196,2.921494 -2.963196,3.234092 0,0.312594 0.426423,1.45248 0.947953,2.532879 0.699619,1.449381 0.830873,2.131177 0.498692,2.600492 -0.77474,1.094572 -1.608317,0.711609 -1.987112,-0.913172 -0.567594,-2.434578 -1.205398,-2.595951 -1.205398,-0.304643 0,3.389723 0.07243,3.310718 -6.714078,7.331974 -0.691907,0.409982 -1.602306,0.926972 -2.02377,1.148687 -0.421466,0.22171 -1.525459,0.858647 -2.452566,1.415341 -0.927107,0.556694 -3.649437,2.105404 -6.050003,3.442254 -2.400563,1.336852 -5.183211,3.019162 -6.183839,3.738543 -2.572136,1.849194 -2.879826,1.737572 -2.550601,-0.928368 0.452079,-3.660717 1.906651,-10.29878 2.797819,-12.767716 0.457557,-1.267642 0.969395,-2.891665 1.1372,-3.608629 0.167803,-0.716962 0.781702,-2.230587 1.363957,-3.364005 0.861549,-1.677097 1.220298,-2.023618 1.926588,-1.859016 1.43367,0.334115 1.461433,0.867373 0.171348,3.272841 -1.151011,2.146136 -1.183793,2.340178 -0.502962,2.946921 0.960828,0.856276 1.135694,0.636149 1.624815,-2.042105 0.227102,-1.243541 0.585546,-2.415032 0.796211,-2.602774 0.210669,-0.187746 1.37754,-0.223488 2.59322,-0.07977 l 2.210466,0.261343 -0.283873,1.412304 c -0.543942,2.705389 -0.36482,4.496036 0.464597,4.641837 0.662262,0.116417 0.764836,-0.192124 0.770632,-2.324716 0.0034,-1.352776 0.176232,-2.698517 0.383614,-2.990225 0.231442,-0.325556 1.733457,-0.652665 3.888985,-0.846318 4.368268,-0.392451 5.424494,-0.845215 5.241004,-2.247989 -0.108667,-0.830741 0.06344,-1.068671 0.845653,-1.167677 1.215012,-0.153783 1.310569,-1.236811 0.109116,-1.236811 -1.195991,0 -1.106682,-0.693958 0.109117,-0.847839 1.284464,-0.162575 1.30382,-1.301109 0.0213,-1.262639 -0.528189,0.01583 -0.859712,-0.115437 -0.737387,-0.29173 0.122257,-0.176295 0.521501,-0.320598 0.887422,-0.320598 0.36592,0 0.581422,-0.218797 0.479087,-0.486217 -0.102334,-0.267418 -0.623858,-0.428947 -1.159363,-0.359344 -0.836724,0.108738 -0.954264,-0.02812 -0.832864,-0.972431 0.102242,-0.795331 0.412848,-1.13394 1.123559,-1.223894 0.540127,-0.06837 0.982049,-0.377444 0.982049,-0.68754 0,-0.407172 -0.303157,-0.496099 -1.091165,-0.319839 -0.973761,0.217804 -1.091166,0.124047 -1.091166,-0.87063 0,-0.747757 0.649537,-1.818186 1.974328,-3.251566 1.086103,-1.175124 2.120572,-2.628165 2.298266,-3.229535 0.177698,-0.601371 0.516186,-1.115457 0.751883,-1.142607 0.2357,-0.02715 1.082327,0.72725 1.88141,1.676685 0.799086,0.949439 2.124844,2.410442 2.946997,3.24701 0.822151,0.836571 1.495237,1.658197 1.495237,1.825586 0,0.482599 -1.799969,3.071514 -2.135445,3.071514 -0.16673,0 -0.883504,0.871836 -1.593272,1.937266 -0.709772,1.065426 -1.407005,1.940622 -1.548945,1.944862 -0.141939,0.0042 -0.240143,-1.436464 -0.218232,-3.201426 0.05244,-4.22463 -0.746367,-4.575129 -1.108214,-0.486215 -0.276768,3.127493 -0.713208,4.793602 -1.675961,6.396772 -0.285847,0.476012 -0.425372,0.950414 -0.30945,1.053722 0.296678,0.264392 5.442512,-4.592684 6.804443,-6.422603 0.621764,-0.835417 2.791636,-3.128836 4.822433,-5.096909 2.030804,-1.968072 4.014406,-4.045605 4.40729,-4.616768 0.392884,-0.571163 1.627809,-1.786383 2.744967,-2.700014 1.117156,-0.913625 2.031436,-1.760644 2.031436,-1.882567 0,-0.121924 0.84985,-1.124439 1.88824,-2.228235 1.03838,-1.103794 2.3257,-2.573117 2.86089,-3.264481 0.53519,-0.691364 1.14468,-1.216476 1.35459,-1.166917 0.20988,0.04956 0.65508,-0.236847 0.98972,-0.636639 0.26683,-0.318791 0.44874,-0.484232 0.66749,-0.512045 z M 5.6450646,35.757888 c -0.1334967,0.0059 -0.2184259,0.0056 -0.311153,0.006 -0.064791,2.888935 -0.1070099,6.830898 -0.1457732,13.74319 -0.2576128,45.938642 -0.086836,67.482772 0.6282727,79.263772 0.1038878,1.71148 0.3194701,6.61253 0.4782374,10.89123 0.1587681,4.27869 0.4258574,7.90899 0.5941736,8.06736 0.1683172,0.1584 0.9229722,0.13039 1.6768152,-0.0623 1.4266262,-0.36463 48.4499767,-0.25798 54.2437167,0.12307 1.800423,0.11841 21.026114,0.30193 42.724246,0.40796 21.69813,0.10604 39.55562,0.28568 39.68262,0.39885 0.53255,0.4746 1.39465,0.15255 1.39465,-0.52115 0,-0.67493 -0.47886,-0.7336 -6.65611,-0.81062 -3.66086,-0.0456 -8.91483,-0.13702 -11.67547,-0.2036 -15.80512,-0.38118 -76.079435,-1.11783 -90.566745,-1.1069 -4.080959,0.003 -11.249917,0.0202 -15.931017,0.0387 -4.681101,0.0186 -9.49314,-0.0857 -10.693423,-0.23171 l -2.1823313,-0.26514 0.146626,-2.23659 c 0.1069374,-1.63107 -0.00503,-2.23659 -0.4143021,-2.23659 -0.43034,0 -0.4414679,-0.10647 -0.047735,-0.45735 0.3499627,-0.31188 0.4446265,-1.51984 0.2975131,-3.79248 -0.11873,-1.83406 -0.312832,-4.91043 -0.4313517,-6.83584 C 8.3380047,128.01236 8.1349048,114.44694 8.0055666,99.792409 7.8762275,85.137868 7.7312161,70.522228 7.6833312,67.313206 7.6354511,64.104184 7.6422483,59.815763 7.6986757,57.783382 7.755103,55.751001 7.7081512,50.06228 7.5938219,45.141778 7.4130793,37.363828 7.295305,36.178154 6.6901999,36.063223 6.5112944,36.029247 6.395188,35.913537 6.3193746,35.757819 c -0.2247706,-7.3e-5 -0.4495345,-3.7e-5 -0.674306,0 z M 113.14619,38.154779 c 0.41975,0.03303 0.3564,0.357761 -0.23017,0.880506 -0.69723,0.621355 -1.22245,0.590638 -1.22245,-0.07141 0,-0.295952 0.39282,-0.629589 0.87293,-0.741479 0.24577,-0.05728 0.43977,-0.07863 0.57969,-0.06761 z m 1.48501,1.324179 c 0.34676,0.06924 0.18303,0.627903 -0.68028,1.324175 -0.87912,0.709019 -1.23753,0.791745 -1.51996,0.351748 -0.103,-0.160451 0.37662,-0.698921 1.06558,-1.196545 0.53492,-0.386348 0.92658,-0.520929 1.13466,-0.479378 z m 0.69306,2.013235 c 0.29352,-0.05643 0.23068,0.11721 -0.10316,0.673106 -0.27642,0.46031 -0.66713,0.837201 -0.86781,0.837201 -0.20069,0 -0.49336,0.863025 -0.65044,1.918272 -0.21619,1.452427 -0.59046,2.146953 -1.53871,2.858037 -0.68896,0.516629 -1.56614,1.479993 -1.94961,2.140865 -0.8525,1.469173 -1.21562,1.690836 -2.03315,1.237571 -0.55303,-0.306604 -0.55231,-0.464437 -0.004,-1.238329 2.34814,-3.304123 3.51723,-5.202102 3.52923,-5.726709 0.0176,-0.768259 1.12505,-2.091088 1.84134,-2.199363 0.30002,-0.04535 0.91253,-0.212943 1.36055,-0.37302 0.18036,-0.06444 0.31732,-0.108819 0.41516,-0.127631 z m 1.61543,1.121334 c 0.73762,0 0.46706,1.406859 -0.47654,2.475899 -0.8179,0.92665 -1.71431,1.353002 -1.71431,0.815174 0,-0.561711 1.81683,-3.291073 2.19085,-3.291073 z m -47.034351,1.904596 c -0.878206,-0.0085 -1.770844,0.08232 -2.622207,0.285654 -1.842581,0.44006 -1.064576,1.037082 1.01956,0.782503 2.578455,-0.314962 5.517853,0.352807 6.766077,1.536897 1.143874,1.085108 1.56028,0.976869 0.842245,-0.218797 -0.866595,-1.443053 -3.371051,-2.360628 -6.005675,-2.386257 z m 8.871687,0.573584 c -0.105795,0.01256 -0.263339,0.08947 -0.473121,0.244628 -0.360085,0.266325 -0.648699,0.769347 -0.64106,1.117537 0.01165,0.53185 0.116345,0.512004 0.6547,-0.122316 0.625556,-0.737073 0.776874,-1.277525 0.459481,-1.239849 z m 9.372942,4.523324 c -0.254224,0 -0.462039,0.175038 -0.462039,0.388972 0,0.213935 0.08679,0.388974 0.19266,0.388974 0.105862,0 0.313676,-0.175039 0.462039,-0.388974 0.148363,-0.213934 0.06156,-0.388972 -0.19266,-0.388972 z m 42.466802,8.871914 c 0.003,0.0012 0.007,0.0072 0.0102,0.0083 0.0214,-0.0027 0.0426,-0.005 0.0639,-0.0076 -0.0249,-7.77e-4 -0.0494,-3.26e-4 -0.0742,-7.77e-4 z m -43.34911,1.124374 c 0.608967,0.04083 1.324828,0.681978 2.988773,1.979807 1.090672,0.850695 1.104905,0.911693 0.32138,1.361404 -0.451155,0.258942 -1.814793,1.214932 -3.029688,2.124155 -1.214899,0.909223 -2.370142,1.653132 -2.567648,1.653132 -0.197511,0 -0.790904,-0.791955 -1.318779,-1.760251 l -0.959885,-1.76101 2.216432,-1.975253 c 1.237918,-1.103215 1.740449,-1.662825 2.349415,-1.621984 z m -10.915919,5.562609 c -0.277855,0 -0.340406,4.018949 -0.07161,4.603093 0.205231,0.445991 1.175111,-0.336789 1.291499,-1.042322 0.166342,-1.008315 -0.708096,-3.560771 -1.219891,-3.560771 z m -13.496354,3.889724 c -0.603754,0 -0.945084,0.459631 -1.315364,1.770128 -0.275114,0.973681 -0.378556,1.946948 -0.229315,2.162142 0.149237,0.215192 0.681087,0.336932 1.181527,0.271215 0.768708,-0.100949 0.930585,-0.436139 1.04428,-2.161378 0.117156,-1.777733 0.02889,-2.042107 -0.681128,-2.042107 z m -12.703553,6.612532 c -0.240057,0 -0.436467,0.410058 -0.436467,0.910895 0,0.500838 -0.294348,1.76986 -0.653849,2.82005 -0.773094,2.258401 -1.326124,6.832441 -0.936014,7.738424 0.44761,1.039525 1.152109,0.265676 1.167036,-1.281633 0.0077,-0.789629 0.298369,-3.186233 0.646176,-5.32558 0.76007,-4.6752 0.768494,-4.862156 0.213118,-4.862156 z m -2.644371,1.944861 c -0.254224,0 -0.341024,0.175039 -0.192661,0.388974 0.148364,0.213934 0.35618,0.388972 0.46204,0.388972 0.10586,0 0.19266,-0.175038 0.19266,-0.388972 0,-0.213935 -0.207814,-0.388974 -0.462039,-0.388974 z m 6.728568,12.871798 c -0.103377,-0.01727 -0.244501,-0.003 -0.427086,0.02812 -0.939087,0.160151 -1.39009,2.400619 -1.111627,5.520829 0.204065,2.286613 0.555704,2.060751 0.972673,-0.625247 0.174329,-1.122978 0.461812,-2.71545 0.638502,-3.538738 0.214489,-0.999402 0.237669,-1.333137 -0.07246,-1.384952 z m 1.533598,0.733883 c -0.06656,0.01187 -0.132017,0.047 -0.19692,0.104839 -0.976144,0.869929 2.704856,9.171745 5.640815,12.721375 2.295311,2.77507 2.568517,1.95965 0.343546,-1.02561 -2.108148,-2.82852 -2.931358,-4.51298 -4.052658,-8.291496 -0.74984,-2.526786 -1.268851,-3.592154 -1.734783,-3.509108 z m -9.144478,1.000538 c 0.453061,-0.05966 0.492958,0.265232 0.548992,1.448772 0.04281,0.90393 0.07676,1.949572 0.07502,2.323961 -0.0018,0.37438 0.14613,0.680702 0.329057,0.680702 0.182928,0 0.470978,0.393827 0.640205,0.875188 0.169226,0.48135 0.67306,1.292589 1.12015,1.802798 1.367619,1.560665 1.069495,2.022015 -1.259955,1.948665 -1.140268,-0.0359 -4.430132,0.0307 -7.310809,0.14737 -2.880678,0.11665 -5.54269,0.32045 -5.915311,0.45355 -1.807711,0.64574 -1.790056,-2.162314 0.02301,-3.671681 0.72017,-0.599533 1.309398,-1.293004 1.309398,-1.540699 0,-0.247686 0.19641,-0.341898 0.436467,-0.209684 0.240056,0.132225 0.436467,0.667495 0.436467,1.189714 0,0.522208 -0.196411,0.949637 -0.436467,0.949637 -0.831736,0 -0.431708,0.688235 0.530239,0.912411 1.155365,0.269264 1.710166,-0.375905 1.368219,-1.590076 -0.175821,-0.624301 -0.05452,-0.878225 0.418564,-0.878225 0.366104,0 0.730683,-0.149592 0.810702,-0.331999 0.251442,-0.573148 5.141112,-3.957749 6.269939,-4.340229 0.258734,-0.08767 0.455091,-0.150291 0.606108,-0.170175 z m 21.831836,5.620348 c -0.633527,0 -0.912765,1.527405 -0.658109,3.601798 0.137611,1.12095 0.343347,3.40402 0.456928,5.07335 0.18635,2.73879 0.832769,5.78076 1.406579,6.61785 0.423376,0.61766 0.439394,0.0451 0.06394,-2.26242 -0.208858,-1.28361 -0.500519,-4.7406 -0.648733,-7.6822 -0.148211,-2.94161 -0.427493,-5.348378 -0.620603,-5.348378 z m -38.697163,1.703275 c -0.04589,0.04092 -0.07733,0.176838 -0.08781,0.403413 -0.01895,0.41003 0.08428,0.63978 0.229315,0.51052 0.145035,-0.12925 0.161024,-0.46449 0.03495,-0.745278 -0.06967,-0.15515 -0.130571,-0.20955 -0.176461,-0.168655 z m 25.992757,2.225953 c -0.068,-0.006 -0.127404,0.0102 -0.173906,0.0517 -0.17532,0.15623 0.228351,0.98723 0.896803,1.84685 1.201015,1.54449 2.17739,2.11014 1.690456,0.97928 -0.138182,-0.32091 -0.426686,-0.58346 -0.64106,-0.58346 -0.21437,0 -0.389582,-0.229 -0.389582,-0.50901 0,-0.65264 -0.906718,-1.74466 -1.382711,-1.78533 z m -39.085039,0.56903 c -0.0063,0.002 -0.01247,0.004 -0.01876,0.006 0.0064,0.008 0.005,0.0188 0.01193,0.0257 0.0025,-0.0113 0.0043,-0.0204 0.0069,-0.0319 z m 25.400289,0.34947 7.847865,0.0144 0.881461,1.30746 c 0.485128,0.71916 1.641165,2.07296 2.568499,3.00846 2.69751,2.72129 2.37195,2.88 -5.928097,2.88311 -3.908449,0.002 -8.382881,0.10469 -9.943246,0.22943 -4.057458,0.32441 -4.528861,-0.0772 -4.730374,-4.03178 -0.140258,-2.75246 -0.06922,-3.10947 0.649585,-3.25841 0.443962,-0.092 4.338309,-0.16071 8.654307,-0.1527 z m 22.776377,1.39483 c -0.167896,-0.11278 -0.179733,0.0162 -0.05967,0.36998 0.181503,0.53484 0.744183,1.42662 1.250576,1.98209 1.483854,1.62762 1.321209,0.56693 -0.195213,-1.27328 -0.504093,-0.61173 -0.827794,-0.96602 -0.995689,-1.07879 z m -33.694,0.55839 c 0.153397,-0.13354 0.396131,0.71819 0.676863,2.60048 0.201957,1.35412 0.506157,3.29366 0.676011,4.30985 0.279449,1.67187 0.227054,1.84763 -0.550698,1.84763 -0.472733,0 -0.985393,-0.11163 -1.138904,-0.24842 -0.487061,-0.43408 0.131827,-0.89292 0.911295,-0.6754 0.66278,0.18496 0.672887,0.14939 0.0861,-0.30844 -0.48551,-0.37881 -0.700577,-1.51089 -0.801326,-4.21337 -0.07679,-2.05983 -0.01274,-3.17881 0.140658,-3.31233 z m 78.592052,2.3194 c -0.0796,-0.0251 -0.1468,-0.0265 -0.19692,0.002 -0.20035,0.11035 -0.49127,2.61073 -0.64617,5.55578 -0.15491,2.94503 -0.49822,7.12105 -0.76297,9.27987 l -0.48164,3.92467 -2.23604,-0.17778 c -1.65259,-0.13175 -2.11466,-0.0639 -1.77144,0.26135 0.55428,0.5252 6.76877,1.64464 10.44705,1.8818 1.44035,0.0928 2.80505,0.32906 3.03311,0.52496 0.22805,0.19591 1.30294,0.35631 2.38862,0.35631 1.78683,0 1.89266,-0.0496 1.11334,-0.52116 -0.92346,-0.55925 -9.10529,-2.20168 -10.96366,-2.20168 -0.97451,0 -1.08622,-0.12574 -0.85162,-0.95876 0.14854,-0.52743 0.56888,-3.45931 0.93431,-6.51529 0.36542,-3.05597 0.87005,-6.4843 1.12185,-7.61839 0.38301,-1.72514 0.34208,-2.21939 -0.25147,-3.02669 -0.29265,-0.39804 -0.63764,-0.69149 -0.87635,-0.76655 z m 24.30998,0.16865 c -5.22906,-0.0515 -5.54207,-0.037 -7.08235,0.32364 -0.8661,0.20278 -0.59603,0.31297 1.3094,0.53408 1.32031,0.15321 3.78687,0.29563 5.4814,0.3168 4.31805,0.0539 4.62953,0.33481 4.82841,4.34782 0.0893,1.8018 0.27869,4.71309 0.42026,6.46971 l 0.25746,3.19384 3.56248,0.13066 c 1.95969,0.0718 3.61244,0.16614 3.67245,0.20968 0.06,0.0435 0.10912,-0.18355 0.10912,-0.50445 0,-0.46664 -0.65385,-0.58346 -3.26582,-0.58346 h -3.26583 l 0.0579,-6.20228 c 0.0784,-8.34373 0.20398,-8.17413 -6.08495,-8.23604 z m -30.61998,2.16822 c -0.53836,0.29652 -1.06382,10.14948 -0.69306,12.99639 0.5887,4.52048 1.0836,1.93922 1.07752,-5.62263 -0.004,-4.17545 -0.17617,-7.48849 -0.38446,-7.37376 z m -45.961945,0.0175 1.096281,0.97243 c 1.081416,0.95935 1.090804,1.02477 0.726306,4.86216 -0.475346,5.00439 -0.47099,11.2471 0.0068,9.9188 0.412872,-1.14718 1.327312,-8.85614 1.327312,-11.18904 v -1.62351 l 1.603502,0.96939 c 0.882016,0.53343 2.256885,1.65 3.055264,2.48122 1.568848,1.6334 1.807175,3.03525 1.029786,6.05567 -0.543104,2.11015 -0.760194,3.23369 -1.119297,5.79507 l -0.305185,2.17887 h -1.695567 c -1.94317,0 -2.103195,-0.41617 -0.822638,-2.13936 0.965786,-1.2996 1.080127,-1.75037 0.44499,-1.75037 -0.235177,0 -0.82805,0.70015 -1.317923,1.55589 -0.872792,1.52465 -1.773576,1.89911 -2.958079,1.22922 -0.656782,-0.37146 -0.688897,-0.84543 -0.566045,-8.23072 0.05161,-3.10205 -0.04147,-6.86537 -0.206301,-8.36291 z m -1.207955,1.34013 0.03496,3.80313 c 0.01902,2.09166 0.06812,6.34115 0.109117,9.44321 l 0.07417,5.6401 -1.324744,0.11548 c -0.728799,0.0637 -1.424348,0.0274 -1.545532,-0.0805 -0.121181,-0.10799 -4.382427,-0.22559 -9.469271,-0.26134 -6.24253,-0.0439 -9.378968,-0.20746 -9.649145,-0.50292 -0.243265,-0.26604 -0.233687,-1.3531 0.02472,-2.77143 0.432973,-2.37646 0.217898,-11.41044 -0.326497,-13.71736 l -0.299218,-1.271 2.346859,0.0547 c 1.291096,0.0298 6.32501,-0.06 11.186151,-0.19905 z m -38.312699,0.72704 5.735439,0.21348 5.734586,0.21425 -0.11764,2.20012 c -0.102525,1.92012 -0.0246,2.16943 0.612075,1.9517 1.052374,-0.35989 3.651995,0.49977 3.651995,1.20794 0,0.4193 -0.261538,0.52734 -0.872932,0.35934 -0.480114,-0.13192 -1.296412,-0.35542 -1.814063,-0.49608 -1.503427,-0.40855 -0.51366,0.6303 1.21307,1.27327 1.424448,0.53041 1.473925,0.62269 1.473925,2.71445 v 2.16443 L 32.1476,122.94928 c -1.322087,-0.22716 -1.362049,-0.20442 -0.592468,0.34339 0.454142,0.32327 1.04337,0.6576 1.309399,0.743 0.931499,0.299 0.03529,0.58023 -1.184085,0.3715 -1.149166,-0.19671 -1.215776,-0.30959 -0.997394,-1.701 0.128678,-0.81986 0.0442,-1.59539 -0.187545,-1.72302 -0.231733,-0.12764 -0.42112,-0.39658 -0.42112,-0.5979 0,-0.52342 1.474548,-0.45299 2.095377,0.10029 0.317505,0.28295 0.52342,0.30816 0.52342,0.0631 0,-0.22238 -0.535021,-0.62172 -1.1892,-0.88734 -1.061852,-0.43117 -1.27577,-0.38914 -1.989673,0.39656 -0.573904,0.63165 -0.734303,1.27229 -0.569451,2.26851 0.126329,0.76343 0.356903,2.56949 0.512336,4.01355 l 0.282169,2.62557 -4.960542,-0.006 c -5.157758,-0.006 -6.361329,-0.27133 -5.916162,-1.30519 0.144966,-0.33666 0.07189,-2.11329 -0.161972,-3.94746 -0.233859,-1.83417 -0.498597,-5.3556 -0.588206,-7.82579 z m 14.114398,2.79499 c 0.77443,0 1.06559,0.21246 1.06559,0.77794 0,0.82352 -1.05269,1.03401 -2.129477,0.4262 -0.847183,-0.47821 -0.205632,-1.20414 1.063887,-1.20414 z m 32.156992,1.16691 c -0.369111,0 -1.117501,2.31823 -1.664026,5.15388 -0.408468,2.1193 0.434073,1.79595 1.013587,-0.38896 0.812826,-3.06457 1.045066,-4.76492 0.650439,-4.76492 z m 3.925639,2.87475 c 0.0541,-0.0213 0.111059,-0.0183 0.17305,0.006 0.165312,0.0632 0.364214,0.2733 0.626569,0.55991 0.56182,0.61378 0.714792,1.12175 0.46886,1.55589 -0.200835,0.35452 -0.607749,1.78198 -0.904475,3.17255 -0.296731,1.39058 -0.750302,3.44727 -1.007622,4.57044 -0.360372,1.57294 -0.65215,2.04209 -1.271037,2.04209 -0.882849,0 -1.01481,-0.47827 -0.409188,-1.48676 0.217155,-0.36161 0.717665,-2.66909 1.111623,-5.12805 0.608958,-3.80086 0.833455,-5.14226 1.21222,-5.29139 z m 2.171245,2.31332 c 0.247175,-0.0622 0.288011,1.20315 0.312007,5.21695 l 0.03581,5.93183 h -1.582191 c -1.499079,0 -1.568172,-0.0562 -1.317923,-1.06968 1.273145,-5.15609 1.593254,-6.64558 1.61032,-7.48771 0.01083,-0.53492 0.289985,-1.49755 0.619747,-2.13936 0.135235,-0.26319 0.239852,-0.43128 0.322235,-0.45203 z m -39.220581,4.54233 c 0.847905,0.01 1.463956,0.54195 1.456876,1.25807 -0.0099,0.9988 -0.874715,0.82382 -1.456876,-0.29476 -0.381713,-0.73344 -0.381713,-0.96781 0,-0.96331 z m 0.620601,2.75775 c 0.231904,-0.005 0.593799,0.16844 1.112477,0.51888 0.690639,0.46662 0.730015,0.73734 0.3103,2.12643 -0.264588,0.87568 -0.523944,1.59236 -0.576271,1.59236 -0.185666,0 -1.180676,-3.10901 -1.180676,-3.68916 0,-0.36121 0.102265,-0.5437 0.33417,-0.54851 z m 112.736165,0.34794 c -1.18612,0 -2.27779,0.17504 -2.42614,0.38898 -0.16749,0.2415 0.65035,0.38897 2.15675,0.38897 1.33448,0 2.42614,-0.17504 2.42614,-0.38897 0,-0.21394 -0.97064,-0.38898 -2.15675,-0.38898 z m -58.974095,1.55586 c -0.225888,0 -0.410893,0.17503 -0.410893,0.38897 0,0.21393 0.30602,0.38896 0.680271,0.38896 0.374262,0 0.559257,-0.17503 0.410894,-0.38896 -0.148363,-0.21394 -0.454383,-0.38897 -0.680272,-0.38897 z m 19.440645,2.71217 c -0.13767,0.0189 -0.20043,0.11908 -0.18328,0.30236 0.0149,0.16044 2.02822,1.73322 4.47378,3.49544 2.44555,1.76222 4.93753,3.60309 5.53767,4.09028 0.60013,0.4872 2.33842,1.71428 3.86255,2.72736 1.52414,1.0131 2.94811,1.84231 3.16438,1.84231 0.83943,0 0.32829,-0.75081 -1.02553,-1.50651 -0.78018,-0.4355 -1.90954,-1.19579 -2.50968,-1.6896 -0.60014,-0.49379 -2.5917,-1.89739 -4.42603,-3.11938 -1.83433,-1.22197 -4.41538,-3.1017 -5.73544,-4.17689 -1.65487,-1.34787 -2.74539,-2.02191 -3.15842,-1.96537 z m -51.582292,0.5675 c -0.149862,0.0402 -0.165829,0.24554 0.06905,0.58422 0.158237,0.22816 0.496603,0.4148 0.751882,0.4148 0.289422,0 0.25646,-0.2229 -0.08781,-0.59257 -0.299315,-0.32142 -0.583263,-0.44663 -0.733127,-0.40645 z m 57.951122,0.22108 c -0.9973,0 -1.02667,0.0439 -0.63338,0.95724 0.33235,0.77186 1.20395,0.57954 1.3972,-0.30844 0.0951,-0.43724 -0.15365,-0.6488 -0.76382,-0.6488 z m -17.505537,0.0358 c 3.856118,-0.0161 7.865317,0.93658 6.121617,1.91902 -0.358075,0.20175 -2.615395,0.35839 -5.015955,0.3472 -5.79277,-0.027 -8.240158,-1.0143 -4.692014,-1.89245 1.032723,-0.2556 2.300986,-0.36843 3.586352,-0.37377 z m -22.144691,0.35326 c -0.865221,0 1.029191,1.88657 3.565893,3.55089 1.928822,1.2655 1.867613,1.24439 2.212168,0.74755 0.140707,-0.2029 -0.879034,-1.11019 -2.265875,-2.01703 -1.386837,-0.90684 -2.587368,-1.79151 -2.667385,-1.96538 -0.08001,-0.17386 -0.459813,-0.31603 -0.844801,-0.31603 z m -14.50398,0.26134 c 0,0.42141 4.650462,4.45472 5.84967,5.07335 1.113159,0.57424 2.44319,0.63961 2.44319,0.12004 0,-0.5314 -2.059083,-1.67874 -2.538667,-1.41458 -0.217007,0.11953 -1.600064,-0.7554 -3.074018,-1.94411 -1.473952,-1.18871 -2.680175,-2.01447 -2.680175,-1.8347 z m -2.031444,0.65335 c -0.04877,0.0421 0.03811,0.20569 0.23443,0.51432 0.24848,0.39058 0.976078,1.14383 1.616292,1.67365 l 1.163623,0.96331 -1.251428,0.45584 -1.251431,0.45582 1.086902,0.18081 c 1.815869,0.30204 2.370656,0.28998 3.001561,-0.0661 0.48301,-0.2726 0.417204,-0.43041 -0.32735,-0.78554 -0.512547,-0.24445 -0.931756,-0.62907 -0.931756,-0.85467 0,-0.43328 -1.423438,-1.62952 -2.761159,-2.32092 -0.346323,-0.179 -0.530908,-0.25868 -0.579684,-0.21652 z m 24.94933,2.30117 c -0.216927,0.049 -0.113576,0.39637 0.50552,0.99826 0.440102,0.42787 1.090311,0.79204 1.44494,0.80986 0.421404,0.0212 0.23738,-0.33089 -0.531943,-1.0165 -0.663993,-0.59174 -1.201583,-0.84066 -1.418517,-0.79162 z m 64.157122,2.11732 1.05793,1.02865 c 1.14407,1.11207 1.34264,1.21339 1.34264,0.68449 0,-0.18933 -0.54012,-0.65229 -1.20029,-1.02865 z m -70.962411,0.54927 c -0.151629,-0.006 -0.324116,0.019 -0.481649,0.0752 -0.348182,0.12418 -0.245046,0.21684 0.263415,0.23552 0.460106,0.0169 0.717896,-0.0752 0.572863,-0.20437 -0.07252,-0.0646 -0.203005,-0.10079 -0.354629,-0.10635 z m 51.296721,1.89699 c -0.69462,0 0.0486,0.77159 1.34093,1.3918 0.98789,0.47412 1.44949,0.93556 1.2949,1.29454 -0.13207,0.30676 0.0124,0.70015 0.32053,0.87444 1.27554,0.72128 1.80573,0.12308 0.93773,-1.05752 -0.56313,-0.76593 -3.26562,-2.50326 -3.89409,-2.50326 z m -2.1525,0.96256 c -0.0732,0.0273 -0.0776,0.0987 -0.002,0.20893 0.14666,0.21147 0.45097,0.3844 0.67686,0.3844 0.62783,0 0.48933,-0.27852 -0.26682,-0.53711 -0.1942,-0.0664 -0.33509,-0.0835 -0.40834,-0.0563 z m 8.46165,1.23302 c -0.52712,-0.0717 -0.52499,0.25385 0.13127,0.83871 0.60095,0.53556 1.65892,0.62453 1.65892,0.1398 0,-0.1796 -0.49103,-0.52591 -1.09117,-0.7696 -0.2888,-0.11727 -0.52332,-0.18501 -0.69902,-0.20891 z" />
    <g
       aria-label="XXXI"
       id="text1026"
       style="font-size:40px;line-height:1.25;font-family:Hultog;-inkscape-font-specification:Hultog"
       transform="matrix(0.43646624,0,0,0.38897242,-0.04178382,0.21553285)">
      <path
         d="m 47.156141,55.423798 q -0.513761,2.715596 -1.541284,2.422018 l -3.571865,-1.003058 q -4.305811,0 -4.892967,1.247706 l -1.663608,-1.174312 q 0.954128,-2.07951 2.17737,-2.07951 0.293578,0 0.562691,0.09786 0.244648,-0.220184 0.244648,-0.562691 0,-0.513762 -0.538226,-1.394496 -1.712538,-1.223241 -4.501529,-6.776758 h -0.171254 q -0.513762,-0.02446 -0.75841,0.464832 -2.495413,5.333333 -4.452599,7.168195 l 0.195718,0.880734 q 2.2263,0.293578 2.2263,1.810398 0,0.611621 -0.415902,1.590214 -0.905199,-0.70948 -1.785933,-0.880734 -0.366972,-0.04893 -1.981651,-0.04893 -3.082569,0 -4.525994,0.733945 l -1.051988,-0.587156 v -1.932721 l 2.88685,-0.733945 q 0.685016,-0.171254 6.948013,-9.174312 1.247706,-0.391437 1.247706,-1.174312 0,-0.782875 -0.905199,-1.492355 -1.247706,-1.027523 -1.37003,-1.198777 -0.782875,-1.076452 -2.103976,-3.400611 -1.321101,-2.324159 -2.079511,-3.376147 0,0 -1.834862,-1.639144 l -3.278287,-0.733945 0.978593,-2.103975 5.357798,0.685015 3.009174,-0.685015 1.370031,0.464832 v 1.663608 q -1.688073,0.318043 -1.663609,1.370031 v 0.171254 l 4.648318,6.874617 0.75841,-0.195718 q 0.929664,-3.571866 3.474006,-5.993884 v -1.247707 l -1.883792,-0.685015 -0.415902,-1.859327 1.051988,-0.538226 3.914373,0.66055 q 1.663609,-0.587156 2.88685,-0.587156 1.492355,0 1.810398,1.003058 -0.80734,2.152905 -3.180428,2.152905 -1.859328,2.422019 -3.718655,4.844037 -2.788991,3.743119 -3.107034,4.892966 1.541285,1.761468 4.40367,5.333334 0.489297,1.076452 1.614679,3.058104 0.954129,1.003058 2.788991,2.93578 z"
         id="path2032" />
      <path
         d="m 74.55673,55.423798 q -0.513761,2.715596 -1.541284,2.422018 l -3.571865,-1.003058 q -4.305811,0 -4.892967,1.247706 l -1.663608,-1.174312 q 0.954128,-2.07951 2.17737,-2.07951 0.293578,0 0.562691,0.09786 0.244648,-0.220184 0.244648,-0.562691 0,-0.513762 -0.538226,-1.394496 -1.712538,-1.223241 -4.501529,-6.776758 h -0.171254 q -0.513762,-0.02446 -0.75841,0.464832 -2.495413,5.333333 -4.452599,7.168195 l 0.195718,0.880734 q 2.2263,0.293578 2.2263,1.810398 0,0.611621 -0.415902,1.590214 -0.905199,-0.70948 -1.785933,-0.880734 -0.366972,-0.04893 -1.981651,-0.04893 -3.082569,0 -4.525994,0.733945 l -1.051988,-0.587156 v -1.932721 l 2.88685,-0.733945 q 0.685016,-0.171254 6.948013,-9.174312 1.247706,-0.391437 1.247706,-1.174312 0,-0.782875 -0.905199,-1.492355 -1.247706,-1.027523 -1.37003,-1.198777 -0.782875,-1.076452 -2.103976,-3.400611 -1.321101,-2.324159 -2.079511,-3.376147 0,0 -1.834862,-1.639144 l -3.278287,-0.733945 0.978593,-2.103975 5.357798,0.685015 3.009174,-0.685015 1.370031,0.464832 v 1.663608 q -1.688073,0.318043 -1.663609,1.370031 v 0.171254 l 4.648318,6.874617 0.75841,-0.195718 q 0.929664,-3.571866 3.474006,-5.993884 v -1.247707 l -1.883792,-0.685015 -0.415902,-1.859327 1.051988,-0.538226 3.914373,0.66055 q 1.663609,-0.587156 2.88685,-0.587156 1.492355,0 1.810398,1.003058 -0.80734,2.152905 -3.180428,2.152905 -1.859328,2.422019 -3.718655,4.844037 -2.788991,3.743119 -3.107034,4.892966 1.541285,1.761468 4.40367,5.333334 0.489297,1.076452 1.614679,3.058104 0.954129,1.003058 2.788991,2.93578 z"
         id="path2034" />
      <path
         d="m 101.95732,55.423798 q -0.51376,2.715596 -1.54129,2.422018 l -3.57186,-1.003058 q -4.305811,0 -4.892967,1.247706 l -1.663608,-1.174312 q 0.954128,-2.07951 2.17737,-2.07951 0.293578,0 0.562691,0.09786 0.244648,-0.220184 0.244648,-0.562691 0,-0.513762 -0.538226,-1.394496 -1.712538,-1.223241 -4.501529,-6.776758 h -0.171254 q -0.513762,-0.02446 -0.75841,0.464832 -2.495413,5.333333 -4.452599,7.168195 l 0.195718,0.880734 q 2.2263,0.293578 2.2263,1.810398 0,0.611621 -0.415902,1.590214 -0.905199,-0.70948 -1.785933,-0.880734 -0.366972,-0.04893 -1.981651,-0.04893 -3.082569,0 -4.525994,0.733945 l -1.051988,-0.587156 v -1.932721 l 2.88685,-0.733945 q 0.685016,-0.171254 6.948013,-9.174312 1.247706,-0.391437 1.247706,-1.174312 0,-0.782875 -0.905199,-1.492355 -1.247706,-1.027523 -1.37003,-1.198777 -0.782875,-1.076452 -2.103976,-3.400611 -1.321101,-2.324159 -2.079511,-3.376147 0,0 -1.834862,-1.639144 l -3.278287,-0.733945 0.978593,-2.103975 5.357798,0.685015 3.009174,-0.685015 1.370031,0.464832 v 1.663608 q -1.688073,0.318043 -1.663609,1.370031 v 0.171254 l 4.648318,6.874617 0.75841,-0.195718 q 0.929664,-3.571866 3.474006,-5.993884 v -1.247707 l -1.883792,-0.685015 -0.415902,-1.859327 1.051988,-0.538226 3.914373,0.66055 q 1.663609,-0.587156 2.88685,-0.587156 1.492352,0 1.810402,1.003058 -0.807344,2.152905 -3.180432,2.152905 -1.859328,2.422019 -3.718655,4.844037 -2.788991,3.743119 -3.107034,4.892966 1.541285,1.761468 4.40367,5.333334 0.489297,1.076452 1.614679,3.058104 0.954129,1.003058 2.788991,2.93578 z"
         id="path2036" />
      <path
         d="m 115.16831,55.888629 q -0.41591,2.470948 -1.46789,2.2263 l -4.526,-1.027523 q 0,0 -3.32721,0.318043 -0.95413,0.66055 -1.66361,0.66055 -1.00306,0 -1.56575,-1.46789 l 1.2477,-1.810397 q 0.58716,0.195719 1.22325,0.195719 2.10397,0 2.10397,-3.400612 0,-0.660551 -0.0979,-1.981651 -0.0979,-1.321101 -0.0979,-1.981652 0,-1.932722 0.0979,-5.82263 0.0979,-3.889908 0.0979,-5.82263 0,-1.663608 -0.97859,-2.617737 -0.66055,0.244649 -1.3211,0.244649 -1.14985,0 -1.93273,-0.929664 0.41591,-2.446483 1.44343,-2.2263 l 4.47706,0.978594 4.25688,-1.027523 1.76147,0.905198 -0.51376,1.761468 q -0.4893,-0.122324 -0.8318,-0.122324 -2.25077,0 -2.25077,3.840979 0,0.391437 0.0245,1.027523 0.0245,0.61162 0.0245,0.831804 0,1.614679 -0.0979,15.437309 l 1.02753,1.100917 q 0.66055,-0.220183 1.19877,-0.220183 1.07646,0 1.68808,0.929663 z"
         id="path2038" />
    </g>
  </g>
</svg>
