<?xml version="1.0" encoding="UTF-8" standalone="no"?>
<!-- Created with Inkscape (http://www.inkscape.org/) -->

<svg
   version="1.1"
   id="svg2"
   width="4cm"
   height="4cm"
   viewBox="0 0 151.1811 151.1811"
   sodipodi:docname="32.svg"
   inkscape:version="1.1.2 (0a00cf5339, 2022-02-04)"
   xmlns:inkscape="http://www.inkscape.org/namespaces/inkscape"
   xmlns:sodipodi="http://sodipodi.sourceforge.net/DTD/sodipodi-0.dtd"
   xmlns="http://www.w3.org/2000/svg"
   xmlns:svg="http://www.w3.org/2000/svg">
  <defs
     id="defs6" />
  <sodipodi:namedview
     id="namedview4"
     pagecolor="#505050"
     bordercolor="#eeeeee"
     borderopacity="1"
     inkscape:pageshadow="0"
     inkscape:pageopacity="0"
     inkscape:pagecheckerboard="0"
     showgrid="false"
     inkscape:zoom="3.8909091"
     inkscape:cx="75.046729"
     inkscape:cy="89.310748"
     inkscape:window-width="1920"
     inkscape:window-height="1043"
     inkscape:window-x="0"
     inkscape:window-y="0"
     inkscape:window-maximized="1"
     inkscape:current-layer="g8"
     units="cm"
     inkscape:document-units="cm" />
  <!-- Border -->
  <path
     id="border"
     class="board-border"
     style="fill:none;stroke:#000000;stroke-width:0.1cm"
     d="M 0,0 H 151.18111 V 151.18111 H 0 Z" />
  <g
     inkscape:groupmode="layer"
     inkscape:label="Image"
     id="g8">
    <path
       id="path12"
       style="fill:#000000;stroke-width:0.410732"
       d="M 2.5665386,2.3945937 C 1.0192158,2.5067406 1.8435185,3.1739807 3.6707331,3.2883077 6.0289779,3.4358608 14.756861,3.2083294 15.005979,2.9928897 15.107975,2.9046923 15.106866,2.7593523 15.003391,2.6698695 14.823347,2.5141708 4.1700565,2.2783738 2.5665386,2.3945937 Z M 22.623195,2.5303666 c -6.150903,-0.042251 -7.168246,0.148607 -6.511296,0.7161649 0.101317,0.087531 6.889622,0.1942835 15.085194,0.2372295 8.195571,0.042946 14.720885,-0.0685 14.501178,-0.2469276 C 45.478564,3.0584058 38.690259,2.7919316 30.613077,2.6445053 27.293896,2.583923 24.673497,2.5444501 22.623195,2.5303666 Z m 28.573621,0.302132 c -2.611561,0 -3.615278,0.6106949 -1.370756,0.8340337 3.274365,0.3258124 9.385653,0.3355922 9.385653,0.01492 0,-0.4071208 -4.170392,-0.8489538 -8.014897,-0.8489537 z m 17.937117,0.151439 c -5.434058,0.00339 -9.038865,0.2448654 -9.038865,0.6564845 0,0.180042 2.732882,0.2609938 6.07307,0.1797872 3.340188,-0.081207 10.048169,-0.035921 14.906625,0.1007111 4.858455,0.1366323 9.529197,0.2154303 10.379427,0.1753112 0.85023,-0.040119 3.732177,-0.087891 6.404328,-0.1066787 1.835087,-0.012903 2.842592,-0.046146 3.468722,-0.1074248 0.007,-0.119901 0.029,-0.238443 0.0776,-0.3543524 0.0172,-0.040961 0.039,-0.078311 0.063,-0.1141388 -1.694799,-0.3767421 -8.804893,-0.5172014 -15.092944,-0.2678162 -1.70046,0.067441 -6.768712,0.029964 -11.262783,-0.083553 -2.152031,-0.054358 -4.166824,-0.07946 -5.97818,-0.07833 z m 3.325525,3.3003264 c -1.648068,-0.028463 -3.497942,0.040034 -4.30377,0.2267856 -1.814655,0.4205507 -1.02941,0.8667642 1.766711,1.0041231 1.518267,0.074585 3.02229,0.1684046 3.341915,0.2088814 0.772313,0.097806 2.289476,-0.6214347 2.289476,-1.0854374 0,-0.2006698 -1.446265,-0.3258882 -3.094332,-0.3543527 z m -5.884146,2.4528647 c -1.731072,0.062574 -3.338545,0.341919 -4.535828,0.8787944 -3.029649,1.3585319 -4.712746,4.2696699 -4.283064,7.4070839 0.16873,1.232031 0.46146,1.851585 0.87473,1.851585 0.459203,0 0.553475,-0.323438 0.362312,-1.241353 -0.296056,-1.421607 0.853269,-4.563835 2.218742,-6.065021 1.425299,-1.566961 2.58847,-1.8955399 6.464714,-1.8239819 3.17012,0.05853 3.963232,0.227694 6.622578,1.4106949 1.661539,0.73913 3.021006,1.489528 3.021006,1.667322 0,0.177793 0.347821,0.32026 0.772936,0.317052 0.436479,-0.0032 0.580673,-0.128001 0.331258,-0.286466 -0.242923,-0.15434 -0.656982,-0.61747 -0.920448,-1.029487 -1.106729,-1.73074 -5.207844,-2.9060953 -9.167402,-3.0780169 -0.593937,-0.025789 -1.184522,-0.029063 -1.761534,-0.00821 z m 12.215146,5.1720533 c -0.702069,0 -0.73368,0.379173 -0.144062,1.720287 0.702966,1.598925 0.126651,2.863168 -1.305189,2.863168 -1.611046,0 -2.574208,1.003926 -2.74841,2.86466 -0.12814,1.368719 -0.266027,1.527818 -1.318996,1.527818 -1.341689,0 -2.126979,0.471387 -1.205988,0.723625 0.338423,0.09269 1.481622,0.254909 2.540513,0.36032 l 1.925437,0.191724 -0.257931,-1.115277 c -0.215322,-0.931037 -0.114121,-1.115278 0.614206,-1.115278 1.027426,0 0.999945,-0.172033 0.370077,2.36782 -0.615067,2.480159 -3.061988,5.271272 -4.621226,5.271272 -0.953229,0 -6.727481,-1.449268 -7.243687,-1.818014 -0.121462,-0.08677 0.205579,-0.457087 0.727213,-0.822844 0.816079,-0.572215 0.901615,-0.88748 0.611622,-2.258903 -0.307222,-1.452877 -0.254,-1.597093 0.59782,-1.637481 0.89173,-0.04228 0.893846,-0.05283 0.0509,-0.232008 -0.485846,-0.103274 -1.114504,-0.349823 -1.396634,-0.547568 -0.38024,-0.26651 -0.453201,0.06525 -0.283813,1.282383 0.227362,1.633685 0.224098,1.63768 -0.537429,0.744513 -0.671276,-0.787315 -0.695232,-1.080876 -0.196688,-2.387217 0.600774,-1.57421 1.2873,-1.861331 2.193725,-0.916839 0.696667,0.725924 1.473569,0.72358 3.113311,-0.0097 0.910356,-0.407106 1.303466,-0.867581 1.303466,-1.527819 0,-0.519798 -0.198755,-0.945188 -0.441677,-0.945188 -0.242923,0 -0.441678,0.171879 -0.441678,0.381955 0,0.210075 -0.391331,0.381954 -0.869553,0.381954 -0.563479,0 -0.78597,0.187886 -0.632324,0.53414 0.130397,0.293863 0.0231,0.648926 -0.238091,0.788527 -0.668881,0.357494 -1.134007,-0.900011 -0.52708,-1.42487 0.882428,-0.763107 0.540454,-1.001545 -1.10506,-0.770622 -1.256503,0.17633 -1.560223,0.109034 -1.400083,-0.310338 0.414408,-1.085247 2.262565,-1.472515 6.318063,-1.32416 2.186305,0.07998 4.449303,0.273492 5.0284,0.429699 0.79877,0.215461 1.003081,0.154704 0.84712,-0.249912 -0.289537,-0.75115 -4.608496,-1.553907 -6.979714,-1.297302 -1.093153,0.118296 -2.285683,0.2178 -2.650067,0.220817 -1.751712,0.01459 -5.528189,1.417954 -6.886551,2.558798 -1.67717,1.408593 -1.850507,2.031461 -0.778974,2.800502 0.645569,0.46333 0.69089,0.426334 0.411484,-0.334956 -0.191621,-0.522111 -0.130414,-0.856413 0.157004,-0.856413 0.498199,0 0.559862,0.189078 0.559862,1.718795 0,1.779483 -0.07127,1.946953 -0.570215,1.336842 -0.352596,-0.431155 -0.524126,-0.454785 -0.69271,-0.09549 -0.42845,0.913134 -0.890546,0.469233 -0.950641,-0.91311 -0.07305,-1.680368 -0.1936,-1.807488 -1.400083,-1.476344 -1.156304,0.317372 -1.701815,1.481555 -1.824509,3.892654 -0.05147,1.011498 -0.26475,2.246709 -0.473598,2.7453 -0.504347,1.204069 0.01531,3.486081 0.793642,3.486081 0.337349,0 0.613345,-0.346418 0.613345,-0.769877 0,-0.936505 1.006106,-3.813578 1.333659,-3.813578 0.251407,0 0.0861,2.695722 -0.250171,4.080648 -0.111369,0.458667 -0.567613,0.934438 -1.014476,1.05709 -0.446863,0.12265 -2.086296,1.077501 -3.64298,2.122384 -1.556685,1.044886 -3.036628,1.901186 -3.288428,1.903058 -1.466234,0.01093 -5.908885,7.011551 -5.941084,9.361619 -0.0086,0.630224 -0.408422,2.5209 -0.888531,4.2015 -1.055061,3.693195 -1.071498,4.010524 -0.207037,4.010524 0.372008,0 0.744561,-0.21485 0.828146,-0.477444 0.08358,-0.262594 0.788164,-2.625937 1.565714,-5.251876 0.777546,-2.625937 1.585189,-5.118191 1.794315,-5.538341 0.209125,-0.42015 0.502059,-1.141743 0.651302,-1.603912 0.149247,-0.462169 1.304425,-1.564632 2.567252,-2.449134 1.262832,-0.884501 2.595515,-1.880959 2.960624,-2.214889 1.021481,-0.934262 5.575435,-3.805555 6.803732,-4.28953 0.8979,-0.353791 1.759675,-0.248907 4.77133,0.580393 l 3.675757,1.012328 0.728941,2.381995 c 0.400818,1.309888 0.964545,3.412526 1.252572,4.672976 0.288027,1.26045 1.104238,3.447683 1.814156,4.860223 1.039391,2.068097 1.192786,2.704048 0.785877,3.267504 -0.40368,0.55899 -0.305862,1.038053 0.486535,2.381245 0.72531,1.229486 0.842805,1.724021 0.439089,1.840395 -0.918451,0.264756 -5.324964,3.537893 -6.211955,4.5842 0.0044,-0.03859 0.0276,-0.06199 0.0276,-0.103693 0,-0.277329 -0.518053,-1.483587 -1.151639,-2.680397 -0.633592,-1.196805 -1.378923,-3.341155 -1.656292,-4.764735 -0.277374,-1.423579 -0.703407,-2.607764 -0.94633,-2.631903 -0.607788,-0.06042 -0.460895,4.078202 0.163902,4.618515 0.274353,0.237254 0.498615,0.891432 0.498615,1.453963 0,1.051598 1.071165,3.613287 1.862467,4.453652 0.408309,0.433626 0.925261,0.346933 1.129211,-0.06789 0.373778,0.05018 4.485719,-2.339693 5.407098,-2.798265 2.16207,-1.07608 2.570366,-1.069404 3.06414,0.05371 0.330569,0.751863 0.820615,0.953153 2.859691,1.173468 1.659335,0.179285 2.461148,0.438694 2.461148,0.796731 0,0.292057 -0.720103,1.442776 -1.600221,2.556559 l -1.600216,2.024657 -4.914531,1.054852 c -2.702993,0.58017 -5.338298,1.050578 -5.856541,1.045154 -1.133553,-0.01184 -1.484872,-0.938584 -1.290529,-3.409242 l 0.140612,-1.785936 -2.279989,0.126075 -2.279989,0.126072 -0.979973,-1.744906 c -0.539231,-0.959822 -0.980834,-2.170522 -0.980834,-2.690091 0,-0.51957 -0.219107,-0.944445 -0.4874,-0.944445 -0.588951,0 -0.259287,2.843642 0.555551,4.792339 0.404078,0.966357 0.814286,1.318935 1.535519,1.318935 0.839029,0 1.058861,0.314551 1.494974,2.131337 0.592749,2.46917 1.053247,2.454907 0.944607,-0.0291 -0.04138,-0.946254 0.125194,-1.72029 0.370077,-1.72029 0.244889,0 0.588205,-0.0026 0.762584,-0.0053 0.174378,-0.0026 0.388239,1.014708 0.476186,2.26114 0.150263,2.129768 0.09839,2.273978 -0.868692,2.392438 -0.897799,0.109976 -1.04713,0.369667 -1.170619,2.035849 -0.175041,2.361686 0.275033,5.156387 0.830735,5.156387 0.228038,0 0.414934,-1.354766 0.414934,-3.010876 0,-2.812366 0.06559,-3.023503 0.993775,-3.19887 0.546576,-0.103269 2.953349,-0.639177 5.348444,-1.190625 4.477936,-1.031002 6.0302,-1.215773 6.016994,-0.716165 -0.004,0.157557 -0.399511,1.575563 -0.879041,3.151126 -0.479529,1.575563 -1.001919,4.030155 -1.161131,5.454789 -0.323944,2.898715 -0.826693,3.581023 -1.259471,1.709842 -0.518626,-2.242008 -1.613612,-4.87288 -2.028096,-4.87288 -0.751435,0 -0.415433,1.949389 0.886806,5.139974 1.266687,3.103522 1.285322,3.255418 0.870418,7.322039 -0.461208,4.520471 -1.180984,8.948788 -1.699426,10.455263 -0.180739,0.525187 -0.367873,2.158043 -0.415795,3.628569 -0.04799,1.470525 -0.302744,3.27526 -0.565904,4.010523 -1.102021,3.079887 -2.830399,6.361017 -3.789626,7.193737 l -1.027418,0.89147 0.706508,9.36609 c 0.513839,6.80829 0.578876,9.683 0.238095,10.52838 -0.257834,0.6396 -0.468421,1.21721 -0.468421,1.28387 0,0.0666 1.310749,-0.68918 2.913174,-1.68 1.602429,-0.99082 3.222481,-1.97348 3.599846,-2.18356 0.377361,-0.21007 1.501369,-1.08674 2.497379,-1.94857 0.996014,-0.86182 2.07513,-1.64014 2.398173,-1.72924 0.329408,-0.0909 0.83232,-1.29094 1.145602,-2.73261 0.453753,-2.08819 0.452013,-2.64688 -0.0095,-2.97806 -0.439722,-0.31559 -0.683877,-0.0349 -1.081766,1.24359 -0.727938,2.33917 -2.301654,4.50574 -4.6911,6.45892 -2.152768,1.75972 -4.100567,3.01629 -4.6842,3.02057 -0.188111,0.002 -0.31353,-1.35597 -0.278637,-3.0161 0.03489,-1.66012 -0.03816,-3.16407 -0.162175,-3.3421 -0.124019,-0.17803 -0.352777,-2.53893 -0.508106,-5.24591 l -0.282087,-4.92139 1.326761,-2.20594 c 0.730133,-1.21322 1.509407,-2.86534 1.731341,-3.67184 0.221934,-0.8065 0.90222,-3.01356 1.511368,-4.904239 2.255331,-7.000086 2.654917,-8.875396 2.807932,-13.177434 0.08593,-2.415863 0.352772,-5.337815 0.593504,-6.493228 0.809922,-3.887244 2.216445,-9.752126 2.658693,-11.085637 0.24131,-0.727631 0.439089,-1.71697 0.439089,-2.198477 0,-0.481508 0.866011,-2.458974 1.924576,-4.394716 1.058564,-1.935746 2.04616,-3.82044 2.194586,-4.188071 0.572105,-1.417048 1.046405,-0.530066 1.633863,3.055636 0.33557,2.048232 0.569385,3.854231 0.519316,4.013507 -0.05007,0.159279 0.310239,1.584581 0.800541,3.166793 0.912445,2.944488 1.514871,6.325588 1.970298,11.058033 0.141518,1.470525 0.477719,3.919313 0.747058,5.442108 0.269358,1.522792 0.384697,3.894065 0.25707,5.269033 -0.200742,2.162673 -0.134296,2.489195 0.491711,2.423025 1.390729,-0.147003 3.228338,0.762171 2.982186,1.475598 -0.126788,0.367467 -0.465294,1.527818 -0.75223,2.578193 -0.75734,2.772364 -1.137404,2.844596 -1.726169,0.327495 -0.287797,-1.23039 -0.982981,-2.924786 -1.544145,-3.765086 -0.95107,-1.424156 -5.2013,-5.185886 -8.504886,-7.527192 -1.574471,-1.115853 -1.738329,-1.659504 -0.841087,-2.796025 2.270405,-2.875894 2.262927,-2.854217 1.008443,-2.854217 -0.96019,0 -1.367169,0.373903 -2.480126,2.280536 -0.732267,1.254461 -1.331071,2.362764 -1.331071,2.462565 0,0.09979 1.0645,0.792285 2.365392,1.539009 2.766528,1.588011 4.701452,3.073322 4.701452,3.60917 0,0.208597 -0.928561,0.432063 -2.063466,0.496093 -3.108762,0.17539 -3.051768,1.071265 0.06815,1.071265 5.957792,0 7.98534,3.011861 6.904665,10.254593 -0.302576,2.02788 -0.653166,4.38619 -0.779835,5.24068 -0.340989,2.30028 1.610472,7.95125 4.234758,12.26209 1.229776,2.02013 2.235993,3.7576 2.235993,3.86132 0,0.10372 -0.61633,-0.47989 -1.36989,-1.29655 -1.536128,-1.66477 -3.246336,-4.5196 -4.83085,-8.06432 -1.194739,-2.67273 -2.15946,-2.7032 -1.111959,-0.035 0.769623,1.96036 4.457544,8.22164 5.376044,9.12737 0.823689,0.81224 0.769955,1.11603 -0.198406,1.11603 -0.739037,0 -0.777494,0.20983 -0.43909,2.38721 0.204047,1.31297 0.491442,2.64504 0.639223,2.96015 0.147781,0.31511 0.613097,1.74103 1.034321,3.16829 0.693615,2.3502 0.699547,2.58407 0.06039,2.47971 -0.388155,-0.0634 -1.301916,-1.1792 -2.030684,-2.47971 -0.728768,-1.30051 -1.521236,-2.37414 -1.760673,-2.38499 -1.096925,-0.0497 -5.096971,-2.12194 -5.332049,-2.76245 -0.263819,-0.71882 1.244347,-2.18255 2.276535,-2.20967 0.761938,-0.02 2.06332,-1.44802 1.736518,-1.90529 -0.31746,-0.44421 -1.70807,0.28219 -3.876756,2.0254 -1.640546,1.31868 -1.695265,3.33521 -0.110419,4.06871 0.607306,0.28107 1.104194,0.62744 1.104194,0.76988 0,0.14243 -2.434749,0.4698 -5.410553,0.72735 -2.975804,0.25755 -6.801837,0.61875 -8.502297,0.8027 -1.700459,0.18396 -4.284274,0.3426 -5.741811,0.35212 l -2.650066,0.0171 1.325033,-0.59232 c 0.728768,-0.32578 1.616311,-0.84047 1.97202,-1.14363 1.115087,-0.95033 -0.273919,-0.66172 -3.684383,0.7654 -3.093423,1.29446 -4.580013,1.56189 -7.920007,1.42562 -1.137156,-0.0464 -1.581157,-0.21018 -1.369894,-0.50579 0.22219,-0.3109 -0.05776,-0.35996 -0.967893,-0.17009 -0.70414,0.1469 -1.947534,0.3865 -2.763074,0.53265 l -1.482898,0.26558 0.938565,0.73332 c 0.516066,0.40347 2.393929,1.60662 4.173511,2.67369 1.779573,1.06705 4.987178,3.10053 7.127226,4.51854 3.694922,2.44828 5.374578,3.15792 4.97319,2.10076 -0.0997,-0.2626 -0.86102,-0.87372 -1.692522,-1.35773 -0.831503,-0.48402 -3.845031,-2.37471 -6.695906,-4.20151 l -5.182806,-3.32121 1.796038,-0.11861 c 1.091249,-0.0723 2.216061,0.11516 2.864868,0.47744 0.587467,0.32803 1.61454,0.88661 2.282578,1.24211 l 1.214614,0.64678 -1.214614,-1.14511 c -1.520816,-1.43327 -1.519964,-1.67554 0.0078,-1.67554 0.750225,0 2.02356,0.5535 3.294466,1.43233 7.022138,4.85587 12.611676,8.19209 13.464273,8.03672 0.499657,-0.091 -2.913876,-2.4284 -13.0502,-8.9364 -1.213302,-0.77899 2.21557,-0.32648 4.216645,0.55652 2.532986,1.11772 2.852169,1.015 1.011027,-0.32525 l -1.545873,-1.12498 1.923715,-0.0104 c 1.419234,-0.007 2.267715,0.24001 3.235806,0.94444 2.150295,1.5647 3.003157,1.20257 0.913549,-0.38792 -1.040346,-0.79185 -1.094986,-0.92662 -0.383019,-0.93698 0.882274,-0.0127 3.43999,1.19187 4.910216,2.31262 0.485845,0.37036 2.27464,1.31196 3.9751,2.09254 1.700459,0.78059 3.502063,1.73922 4.003566,2.12984 0.501503,0.39065 1.05334,0.7102 1.225828,0.7102 0.172488,0 1.572161,0.68753 3.110723,1.52783 1.538567,0.84029 3.023969,1.52781 3.301369,1.52781 1.170212,0 0.294295,-0.66314 -2.705276,-2.04779 -3.461742,-1.59798 -14.267451,-7.69028 -14.690962,-8.28289 -0.145909,-0.20415 0.419059,-0.36405 1.286214,-0.36405 0.85023,0 1.665452,0.16706 1.811572,0.37151 0.146112,0.20446 1.002366,0.67071 1.903009,1.03545 0.900642,0.36475 3.028597,1.49377 4.729057,2.50957 4.416729,2.63841 7.707851,4.48647 7.98988,4.48647 0.133709,0 1.128677,0.52751 2.211843,1.17198 1.083161,0.64446 2.312152,1.10734 2.730293,1.02874 0.576314,-0.10833 0.385973,-0.33795 -0.785878,-0.94817 -1.716973,-0.8941 -9.275705,-5.0156 -14.483925,-7.89721 -3.193375,-1.76684 -3.320251,-1.88846 -2.29983,-2.21489 1.200043,-0.3839 1.451755,-0.29581 6.625167,2.32604 1.821921,0.92334 4.20698,2.1121 5.300133,2.6416 2.459165,1.19119 3.435056,1.6974 7.731949,4.00606 1.875938,1.00791 4.034608,1.92205 4.796338,2.03211 l 1.38455,0.19994 -1.30864,-0.88627 c -1.67945,-1.13783 -2.48221,-1.54885 -5.97903,-3.0586 l -2.870906,-1.23986 1.665779,-0.13204 c 1.869074,-0.14834 1.821307,-0.84895 -0.0578,-0.84895 -1.592045,0 -2.270498,-0.64124 -2.270498,-2.14552 0,-0.67583 -0.412209,-2.05976 -0.916136,-3.07503 -1.16027,-2.3376 -1.721462,-4.88423 -1.220652,-5.54057 0.306617,-0.40185 0.522571,-0.35288 1.04122,0.23499 0.359769,0.40778 0.653891,1.0264 0.653891,1.37489 0,1.10063 2.489914,3.66224 5.613272,5.77482 4.21274,2.84942 5.90595,3.8544 6.14553,3.64721 0.33406,-0.28888 -3.36634,-3.27423 -6.34825,-5.12131 -2.815196,-1.74383 -3.564012,-2.67309 -1.766711,-2.19252 2.560911,0.68477 4.880011,2.08013 9.089761,5.46972 2.50944,2.02053 5.38867,4.27565 6.39829,5.01091 l 1.83572,1.33684 -0.87732,-1.1854 c -1.88582,-2.54817 -7.43614,-7.0676 -11.14632,-9.0759 -1.03243,-0.55884 -1.87713,-1.09942 -1.87713,-1.20181 0,-0.10241 0.83107,-0.1865 1.84693,-0.1865 1.74032,0 2.06565,0.1937 5.63139,3.35105 2.08141,1.84302 5.05352,4.67903 6.60447,6.30225 1.55095,1.62322 3.00346,2.9512 3.22804,2.9512 0.73422,0 -1.25296,-2.39777 -5.37518,-6.48503 -3.3337,-3.30542 -4.19613,-4.01167 -5.86258,-4.80054 -1.74852,-0.82768 -1.4972,-1.31893 0.67459,-1.31893 2.39725,0 3.35148,0.59242 5.87035,3.64497 1.11936,1.35654 2.16656,2.46988 2.32743,2.4745 0.16087,0.005 0.8887,0.77779 1.61747,1.71806 0.72877,0.94025 1.4741,1.7102 1.65629,1.71059 0.1822,3.8e-4 0.33126,0.23728 0.33126,0.52667 0,0.28939 0.29813,0.74036 0.66252,1.00189 0.96575,0.69312 0.81671,0.1764 -0.53053,-1.84189 -1.94629,-2.91573 -4.33724,-5.57161 -6.49664,-7.21536 -1.11484,-0.84864 -2.02723,-1.65039 -2.02723,-1.78146 0,-0.13107 0.78425,-0.23797 1.74256,-0.23797 1.62553,0 1.94394,0.20138 4.74804,2.99893 3.67738,3.66881 5.56721,5.80024 7.24541,8.17324 0.70569,0.99785 1.50496,1.81428 1.77707,1.81428 0.29792,0 0.20776,-0.34187 -0.22688,-0.8594 -0.39698,-0.47266 -1.23859,-1.76014 -1.87023,-2.86093 -0.63164,-1.10079 -2.81573,-3.53302 -4.85328,-5.4048 -2.03755,-1.87181 -3.70423,-3.5063 -3.70423,-3.6323 0,-0.12601 0.65015,-0.22902 1.44494,-0.22902 1.99628,0 3.86867,1.5674 11.01521,9.22136 0.65855,0.70532 1.48689,1.62573 1.84089,2.04555 0.35401,0.41982 0.77984,0.64529 0.94633,0.50131 0.47425,-0.41012 -4.51111,-5.93489 -8.17535,-9.06023 l -3.31776,-2.83034 1.85039,0.25289 c 1.08891,0.14876 1.96287,0.0955 2.12385,-0.1298 0.15046,-0.21053 1.07006,-0.3827 2.04362,-0.3827 2.20664,0 3.54412,0.82575 9.56767,5.90687 2.49916,2.10814 4.98359,3.88095 5.52098,3.93965 0.90676,0.0991 0.88959,0.0486 -0.23896,-0.70124 -0.66882,-0.44435 -3.25264,-2.52044 -5.74181,-4.61405 -6.65824,-5.60013 -5.35121,-5.26635 -20.71141,-5.28992 -7.13061,-0.0109 -14.12879,0.0476 -15.55102,0.13055 l -2.585365,0.1507 -0.827285,-1.57557 c -1.054431,-2.00798 -1.049161,-2.39535 0.03622,-2.64085 0.602302,-0.13621 0.883355,-0.52163 0.883355,-1.21003 0,-1.12667 0.931304,-2.85666 2.494791,-4.63567 0.571305,-0.65006 1.038624,-1.27823 1.038624,-1.39578 0,-0.11755 0.69564,-1.26175 1.54587,-2.54238 0.85023,-1.28063 2.21905,-3.34127 3.04171,-4.57973 0.82266,-1.23845 2.10387,-3.7506 2.84761,-5.58236 0.74375,-1.83175 1.41217,-3.38162 1.48549,-3.4443 0.72364,-0.618491 18.70839,-0.885462 19.39932,-0.28796 0.37873,0.32752 0.70328,7.91803 0.79968,18.70161 l 0.0311,3.50697 6.51474,0.0276 c 8.1253,0.0339 14.24411,-0.33108 14.24411,-0.84895 0,-0.26317 -2.95154,-0.322 -8.94397,-0.17905 -4.91919,0.11736 -9.30618,0.0949 -9.74883,-0.05 -0.74355,-0.24337 -0.8187,-1.01894 -0.98601,-10.17998 -0.0996,-5.45388 -0.33532,-10.59335 -0.52363,-11.421349 -0.3646,-1.603087 -0.1886,-1.478015 -8.82666,-6.263456 -2.75232,-1.524778 -3.25729,-1.667212 -6.28787,-1.769527 -1.81235,-0.06119 -3.36319,-0.287211 -3.44629,-0.502805 -0.44144,-1.145257 -3.19355,-4.217902 -5.36311,-5.986692 -8.491739,-6.923117 -10.449312,-8.189649 -14.335537,-9.277317 -2.323588,-0.65032 -2.398059,-0.716105 -2.886435,-2.539403 -0.275718,-1.029306 -0.405054,-1.954874 -0.287263,-2.056738 0.117787,-0.101863 0.803792,0.02613 1.524305,0.284228 1.40359,0.502771 3.474577,0.277971 5.343267,-0.579643 3.317164,-1.522429 9.875153,-3.988156 10.606313,-3.988156 1.33522,0 1.64878,-1.063828 1.50447,-5.102677 -0.12198,-3.413631 -0.0572,-3.782737 0.69271,-3.952333 0.45499,-0.102891 0.73213,-0.401339 0.61593,-0.663199 -0.17454,-0.393348 2.40546,-2.504339 3.06069,-2.504339 0.85684,0 5.66858,-3.01243 6.8184,-4.26864 3.04262,-3.324128 1.60434,-7.33042 -2.62332,-7.307121 -2.27909,0.01257 -6.33315,1.800745 -8.97072,3.956065 -4.75432,3.885036 -7.236058,5.526146 -10.193952,6.740903 -1.774993,0.72896 -3.566796,1.267543 -3.981999,1.197336 -0.542274,-0.0917 -1.049351,-1.085172 -1.798631,-3.52711 C 89.716551,46.104052 85.981468,38.757864 84.484909,37.679877 83.82419,37.203956 82.985104,36.583452 82.62072,36.300514 82.256336,36.017575 81.063806,35.306734 79.970653,34.721221 78.877501,34.135708 77.883726,33.538996 77.762264,33.39557 77.640803,33.252142 76.497962,32.814635 75.222617,32.422779 72.696446,31.6466 72.32461,31.009169 73.95452,30.249666 c 2.43092,-1.132758 4.969061,-5.350875 4.621226,-7.680123 -0.06818,-0.456557 0.0063,-1.011355 0.16563,-1.232399 0.159339,-0.221045 0.589176,-1.152784 0.954955,-2.070911 0.536489,-1.34661 0.570401,-2.025567 0.17339,-3.512938 -0.284283,-1.064716 -0.740478,-1.844107 -1.079263,-1.844107 z M 64.348805,18.62468 c 0.266456,0.03867 0.604719,0.553628 0.604719,1.227179 0,0.938144 -0.838486,1.345806 -0.935977,0.455062 -0.02875,-0.262593 -0.183217,0.0382 -0.343334,0.668422 -0.241531,0.950673 -0.345118,1.026588 -0.609895,0.44611 -0.449557,-0.985592 -0.397333,-2.546861 0.0854,-2.546861 0.222676,0 0.505482,0.214849 0.628008,0.477444 0.129244,0.276986 0.237702,0.187502 0.257936,-0.213359 0.01961,-0.38888 0.153266,-0.537194 0.31314,-0.513997 z m 12.945819,0.631866 c 0.471508,0 0.979937,0.17188 1.130072,0.381955 0.154817,0.216628 -0.216444,0.381955 -0.857478,0.381955 -0.621643,0 -1.130072,-0.17188 -1.130072,-0.381955 0,-0.210075 0.385969,-0.381955 0.857478,-0.381955 z m -1.611435,1.289097 c 0.08005,-0.03053 0.190818,-0.01718 0.312279,0.04775 0.242923,0.129834 0.441678,0.311696 0.441678,0.404336 0,0.09264 -0.198755,0.168597 -0.441678,0.168597 -0.242923,0 -0.441678,-0.181862 -0.441678,-0.404336 0,-0.111236 0.04935,-0.185812 0.129399,-0.216341 z m -17.04514,1.555421 c 0.07883,0.04784 0.126929,0.146733 0.125087,0.284227 -0.0037,0.274992 -0.199294,0.757643 -0.434779,1.072756 -0.348081,0.465785 -0.429249,0.416265 -0.434778,-0.264086 -0.0037,-0.46027 0.191856,-0.942921 0.434778,-1.072755 0.121462,-0.06491 0.230865,-0.068 0.309692,-0.02014 z m 4.221821,0.758687 c 0.106828,-0.0048 0.31265,0.159412 0.708234,0.487888 0.452596,0.375814 0.922542,1.159947 1.044674,1.742667 0.122133,0.58272 0.06619,1.143597 -0.125087,1.245829 -0.435265,0.232631 -1.742556,-1.981936 -1.742556,-2.951942 0,-0.346167 0.0079,-0.519664 0.114735,-0.524442 z m -0.638366,1.834427 c 0.253028,3.24e-4 0.400743,0.112116 0.565038,0.336448 0.717722,0.979992 0.340419,3.392831 -0.53053,3.392831 -0.21693,0 -0.394232,-0.429699 -0.394232,-0.954887 0,-0.525187 -0.198755,-0.954886 -0.441678,-0.954886 -0.242923,0 -0.441678,0.677536 -0.441678,1.505438 0,1.450607 -0.454217,2.176442 -1.042947,1.667322 -0.155342,-0.134339 -0.282086,-1.118915 -0.282086,-2.188034 0,-1.807668 0.09625,-1.981161 1.373344,-2.470022 0.583544,-0.223373 0.941745,-0.334534 1.194769,-0.33421 z m 8.90861,0.03506 c -0.306052,0.04809 -0.472679,0.172905 -0.566766,0.384939 -0.136827,0.308348 -0.178031,0.621888 -0.09144,0.696768 0.394343,0.341021 5.537645,0.166344 5.402788,-0.183517 -0.08132,-0.210969 -0.479547,-0.425972 -0.885078,-0.477443 -0.405527,-0.05147 -1.511691,-0.20644 -2.457699,-0.344654 -0.650503,-0.09504 -1.095771,-0.124179 -1.401805,-0.07609 z m 2.292064,1.838156 c -0.381167,-0.07273 -0.626184,0.250364 -0.311418,0.690801 0.162573,0.227478 0.498027,0.305994 0.745332,0.173819 0.301679,-0.16123 0.293715,-0.375458 -0.02328,-0.64977 -0.141725,-0.122559 -0.28357,-0.190608 -0.410623,-0.21485 z m -8.716237,1.994072 c 0.50062,0.109794 2.163365,0.448399 3.694741,0.751974 3.051574,0.604932 3.408582,0.770091 2.975287,1.376378 -0.319377,0.446886 -2.56564,0.559406 -3.036534,0.152186 -0.162149,-0.140223 -1.406325,-0.385162 -2.764802,-0.544584 -1.358477,-0.159421 -2.579561,-0.384395 -2.713041,-0.499824 -0.511979,-0.442753 0.960906,-1.429883 1.844349,-1.23613 z m 6.98403,4.111233 c 0.228237,-0.0019 0.475674,0.08546 0.802268,0.261848 0.462825,0.249954 1.400662,0.454317 2.084167,0.454317 0.831414,0 2.149354,0.632091 3.982865,1.909773 1.507322,1.050375 2.938897,1.909772 3.180596,1.909772 0.2417,0 0.43909,0.173699 0.43909,0.385686 0,0.211987 0.620946,0.942475 1.379382,1.623307 2.041015,1.832181 2.366509,2.378059 4.12175,6.906516 0.882781,2.277549 2.192639,5.215713 2.910586,6.529781 0.717947,1.314069 1.305193,2.502158 1.305193,2.639367 0,0.137214 -0.462454,0.249165 -1.027418,0.249165 -1.060711,0 -2.947682,1.42175 -2.947682,2.220856 0,0.639071 0.31065,0.566137 1.325033,-0.311083 1.379016,-1.192527 1.616453,-0.9352 1.410436,1.527819 -0.179352,2.144243 -0.130096,2.291727 0.761722,2.291727 0.728102,0 0.925532,-0.202917 0.837633,-0.859397 -0.266292,-1.988789 0.583527,-4.107365 1.99963,-4.987044 1.544053,-0.959162 3.806949,-1.774653 5.772008,-2.079862 1.07932,-0.167639 1.23842,-0.09407 0.99377,0.4573 -0.16022,0.361057 -0.29158,1.051772 -0.29158,1.535277 0,0.533503 -0.32028,0.951881 -0.815201,1.063805 -0.639881,0.144703 -0.770732,0.448513 -0.607307,1.411441 0.114562,0.675013 0.469088,1.314412 0.788458,1.420393 0.31937,0.105985 0.93537,1.381175 1.36816,2.834073 0.45734,1.535247 1.02273,2.641605 1.35092,2.641605 0.75484,0 0.71396,-1.448711 -0.0975,-3.437591 -1.08588,-2.661528 -0.91253,-3.362205 0.90406,-3.656917 0.86154,-0.139769 1.68103,-0.155639 1.82106,-0.0343 0.14003,0.121095 0.35406,1.736099 0.47618,3.588284 0.25734,3.903103 0.39044,3.732243 -4.08466,5.251131 -1.70045,0.577149 -3.303353,1.195912 -3.56188,1.375632 -0.258528,0.179722 -1.74919,0.587726 -3.312584,0.906394 -1.563393,0.318677 -3.77271,0.581812 -4.909354,0.584872 l -2.06605,0.006 L 87.27721,67.19339 C 86.543581,65.010934 86.049631,62.215725 85.251723,55.733219 84.555188,50.074317 83.448692,44.847512 82.946717,44.847512 c -0.272666,0 -0.319333,0.547785 -0.121634,1.43233 0.407646,1.823921 1.014401,7.845486 0.823831,8.174723 -0.123679,0.213665 -4.032165,-0.618549 -4.400387,-0.936981 -0.07163,-0.06194 -0.564769,-2.25336 -1.095564,-4.869177 -0.905117,-4.460503 -1.465315,-5.698272 -2.265326,-5.006439 -0.292625,0.253057 0.555189,3.907393 1.870227,8.061332 0.442486,1.397725 0.340737,1.772086 -0.378703,1.387568 -0.496097,-0.265145 -1.319667,-2.564416 -3.226319,-9.007264 -1.849822,-6.250927 -1.923167,-6.468632 -2.911448,-8.676786 -0.780056,-1.742901 -0.810452,-2.052016 -0.241544,-2.460324 0.252467,-0.181196 0.461889,-0.271887 0.690121,-0.273784 z m -12.935465,9.883076 c -0.588001,0 -0.866965,0.415498 -1.091254,1.623307 -0.165797,0.892818 -0.612916,2.138945 -0.992913,2.76917 -0.532036,0.88238 -0.670741,2.199792 -0.602992,5.72932 0.04945,2.576012 -0.0748,4.376279 -0.283813,4.110488 -0.418419,-0.532082 -4.348216,-1.650518 -4.70749,-1.339824 -0.406203,0.351276 0.208971,0.857904 1.04122,0.857904 0.441766,0 1.04989,0.257617 1.351777,0.572187 0.482599,0.502862 0.137017,0.541524 -2.86228,0.322275 -3.195874,-0.233623 -3.401595,-0.203643 -3.250475,0.478188 0.13431,0.605982 0.594212,0.741102 2.746684,0.804193 2.969528,0.08704 3.417336,0.292749 2.246347,1.033218 -0.595342,0.376459 -1.146565,0.426323 -1.916811,0.173071 -1.484744,-0.488164 -4.912804,-0.01086 -4.912804,0.684089 0,0.430405 0.457017,0.490361 2.208389,0.289449 1.456441,-0.167078 2.208389,-0.114315 2.208389,0.155169 0,0.224742 -0.179061,0.503828 -0.397683,0.620676 -0.640865,0.342518 -4.019095,6.381125 -4.019095,7.184028 0,1.407301 1.072076,0.406484 2.848477,-2.659508 1.991349,-3.43716 4.933457,-6.662254 5.970415,-6.543956 0.372316,0.04247 1.4722,-0.124112 2.443891,-0.370018 2.785843,-0.705023 2.823196,-0.66611 1.852975,1.924692 -0.664513,1.774466 -0.963966,2.192102 -1.183559,1.650911 -0.288433,-0.711253 -0.299824,-0.71141 -0.615933,0.0015 -0.33799,0.761694 0.955799,1.976543 1.507919,1.415918 0.371817,-0.378094 2.192859,-4.830175 2.192859,-5.361574 0,-0.226414 -0.447199,-0.466267 -0.993775,-0.533395 -0.740406,-0.09094 -1.028181,-0.414486 -1.127484,-1.268208 -0.0733,-0.630225 -0.421126,-1.687196 -0.772936,-2.34917 -0.934678,-1.758721 -0.779424,-4.248771 0.400271,-6.439518 0.566774,-1.052533 1.136591,-2.728358 1.266369,-3.724057 0.203415,-1.560682 0.126598,-1.810552 -0.554685,-1.810552 z m 56.702104,1.393538 c 0.25513,-0.01723 0.43139,0.0238 0.50983,0.133535 0.13837,0.193605 -1.33989,1.003135 -3.28498,1.799362 -1.94509,0.796226 -3.54151,1.576907 -3.54809,1.734463 -0.0205,0.49046 1.73547,0.314467 3.14265,-0.314814 1.66296,-0.74367 2.12174,-0.439241 1.00154,0.663943 -0.83313,0.820481 -0.83221,0.826932 0.0397,0.525936 0.48584,-0.167674 1.32417,-0.388092 1.86333,-0.489379 0.53915,-0.101283 1.22613,-0.439473 1.52603,-0.751972 0.46051,-0.479843 0.37622,-0.549102 -0.53916,-0.445368 -1.41704,0.16059 -1.69583,-0.501644 -0.44426,-1.054106 0.53977,-0.238268 1.20322,-0.624997 1.47427,-0.859398 0.87049,-0.752783 1.11754,-0.462696 1.02138,1.19734 -0.11089,1.914238 -1.16978,2.548572 -4.53583,2.717694 -1.86598,0.09375 -2.12194,0.219704 -2.49478,1.224195 -0.22851,0.615616 -0.71958,1.420749 -1.09126,1.789668 -0.37169,0.368918 -0.53118,0.796169 -0.35455,0.948917 0.17663,0.152747 1.02034,-0.450528 1.87454,-1.339825 0.85421,-0.889297 1.89609,-1.616592 2.31536,-1.616592 0.41927,0 1.14765,-0.252564 1.6192,-0.560996 1.39299,-0.911137 2.03096,-0.751946 1.44494,0.360321 -0.45157,0.857076 -2.90127,2.339434 -8.68001,5.25262 -1.13623,0.572799 -2.3166,1.045448 -2.62332,1.050376 -0.30672,0.0049 -1.058,-0.96895 -1.66923,-2.164159 l -1.1111,-2.173116 2.33089,-2.056733 c 2.79023,-2.461801 8.42701,-5.451242 10.21294,-5.571912 z m -12.82159,8.961014 c 0.13914,0.05657 0.30036,0.384464 0.45807,1.008597 0.14597,0.577707 0.39214,1.437104 0.54778,1.909773 0.22307,0.677423 0.10397,0.859398 -0.56331,0.859398 -0.72139,0 -0.84626,-0.282326 -0.84626,-1.909773 0,-1.302374 0.17181,-1.962292 0.40372,-1.867995 z M 43.4502,53.525778 c -0.692903,-0.08343 -1.46392,0.731928 -1.46392,1.678511 0,0.364125 -0.597153,1.951395 -1.326759,3.527114 -1.413301,3.052291 -1.47795,4.664853 -0.276911,6.912485 2.360222,4.416926 2.877892,5.500482 3.129701,6.555147 0.155989,0.653318 0.893153,1.727481 1.638176,2.386467 1.302807,1.152357 1.341763,1.281637 1.013614,3.395068 -0.583332,3.757078 -0.647015,4.366307 -0.931662,8.908794 l -0.276911,4.419333 -2.478399,-0.142485 c -1.363069,-0.07861 -3.670929,-0.285537 -5.128466,-0.45954 -1.457536,-0.173999 -3.842596,-0.177494 -5.300133,-0.0075 -1.457537,0.169867 -3.885212,0.389995 -5.395025,0.48938 -2.39748,0.157812 -2.996745,0.367337 -4.733371,1.651655 -1.302725,0.963424 -1.99359,1.783908 -2.003078,2.379013 l -0.01467,0.907875 1.435453,-1.015312 c 0.789499,-0.558414 2.32985,-1.370132 3.423003,-1.803842 4.04581,-1.605172 18.77226,-1.885378 20.695881,-0.39389 0.448757,0.347949 1.753235,1.796955 2.89851,3.219759 l 2.081579,2.586397 -6.985754,-0.125327 c -3.842266,-0.06908 -11.358365,-0.0089 -16.702666,0.133536 -5.344301,0.142423 -9.803892,0.191394 -9.910145,0.108914 -0.106253,-0.08249 0.473529,-0.631879 1.288802,-1.220463 0.886429,-0.639961 1.353338,-1.250668 1.161129,-1.519614 -0.484235,-0.677565 -0.964497,-0.555427 -2.462009,0.62739 -1.299282,1.026248 -1.336588,1.13554 -0.775523,2.28949 0.353329,0.726697 0.755993,1.077567 1.005852,0.877307 0.237764,-0.19055 1.649007,-0.19016 3.287566,0.004 1.578998,0.18552 5.156588,0.21349 7.9502,0.0619 2.793612,-0.15158 5.675559,-0.2475 6.404328,-0.21335 0.728768,0.0341 5.41559,0.0867 10.415658,0.11712 5.000066,0.0304 9.277848,0.16897 9.505564,0.3081 0.949333,0.58 1.501528,2.5987 1.774471,6.48502 0.197408,2.81077 0.129624,4.38341 -0.213935,4.93856 -0.27725,0.44799 -0.333922,0.90594 -0.125083,1.01755 0.208838,0.11162 0.483729,2.09876 0.610756,4.41635 0.127027,2.31759 0.427579,4.42813 0.667693,4.69013 0.240114,0.262 0.448957,1.02094 0.464106,1.68597 0.01515,0.66504 0.345953,1.74113 0.734979,2.3917 0.684105,1.14403 0.673832,1.19369 -0.301066,1.51289 -1.522136,0.49838 -6.366785,0.82408 -14.699588,0.98772 -4.129687,0.0811 -11.583,0.26964 -16.562916,0.41926 l -9.054395,0.27228 -0.118183,-1.67776 c -0.06511,-0.92274 -0.313554,-3.80799 -0.552097,-6.41192 -0.238543,-2.60539 -0.433914,-7.70745 -0.433914,-11.34086 0,-3.6334 -0.180042,-6.70228 -0.400271,-6.81998 -0.626284,-0.33473 -1.07686,6.74353 -0.748781,11.76376 0.267062,4.08657 0.225368,4.51555 -0.417524,4.30221 -0.39274,-0.13034 -2.980106,-0.23723 -5.7495749,-0.23723 H 4.4591969 l 0.05866,-6.09039 c 0.049524,-5.11076 -0.059206,-6.24713 -0.6797697,-7.06616 -0.4067171,-0.5368 -1.0335361,-0.97577 -1.3923202,-0.97577 -0.768868,0 -0.8690833,1.1873 -0.1526894,1.80683 0.2746125,0.23747 0.571809,1.86144 0.6607914,3.60916 0.088982,1.74774 0.2795044,4.59599 0.4235621,6.32911 l 0.2622462,3.15113 3.6041597,0.0731 c 1.982306,0.0403 4.101047,0.052 4.708354,0.0254 1.862616,-0.0818 3.9751,0.29683 3.9751,0.71243 0,0.25786 -2.082789,0.35113 -6.0213101,0.26931 l -6.0221731,-0.12533 0.3010655,4.67895 0.3019281,4.67894 H 3.1402021 c -2.1220314,0 -1.8354887,0.43816 2.3731554,3.62857 2.2373492,1.69605 2.261096,1.50248 0.059523,-0.48043 -4.3358662,-3.9052 -1.6784386,-3.66728 3.930242,0.35212 1.8571035,1.33087 4.6082565,3.23387 6.1144765,4.22836 1.506221,0.99442 3.505428,2.3265 4.442658,2.96015 1.767867,1.19524 4.674431,1.71722 3.360029,0.60351 -0.355708,-0.30139 -2.163849,-1.46158 -4.01737,-2.57819 -4.883596,-2.94202 -7.90319,-5.00143 -9.6349591,-6.57081 l -1.5225808,-1.37951 h 1.6390384 c 1.6206625,0 2.5888695,0.52993 8.1218675,4.44544 1.80611,1.27812 6.916795,3.94408 7.159149,3.73451 0.101217,-0.0876 0.101217,-0.2161 0,-0.28572 -0.101218,-0.0696 -2.071918,-1.3342 -4.379684,-2.8102 -2.307767,-1.47601 -4.677569,-3.13761 -5.26649,-3.69273 -0.588921,-0.55512 -1.334252,-1.00934 -1.656292,-1.00934 -0.322039,0 -0.58574,-0.17189 -0.58574,-0.38196 0,-0.21334 -1.218635,-0.38412 -2.760486,-0.38717 -3.8352246,-0.007 -4.7480365,-0.27202 -4.7480365,-1.37639 0,-1.08859 0.8160354,-1.1663 3.5334221,-0.33719 1.0327744,0.31511 2.3990384,0.55559 3.0365344,0.53414 1.031909,-0.0347 0.989792,-0.0809 -0.386468,-0.41925 -0.850229,-0.20904 -2.6691111,-0.72215 -4.0423866,-1.13989 -2.4304126,-0.73933 -2.5022315,-0.80169 -2.6897485,-2.34992 -0.1059542,-0.87482 -0.1258202,-1.66163 -0.043995,-1.74864 0.2022069,-0.21503 5.3046431,-0.0623 7.2178081,0.21634 1.221055,0.17778 1.436828,0.12564 1.028281,-0.24917 -0.301619,-0.27671 -2.188786,-0.55685 -4.5271969,-0.67215 -2.9764053,-0.14676 -4.0096061,-0.33171 -4.0096061,-0.71766 0,-0.40807 1.0784363,-0.51996 5.0111448,-0.51996 6.3294402,0 6.2836562,-0.0357 6.7122942,5.26157 0.30034,3.71174 0.383735,3.96545 1.542422,4.67895 1.761357,1.08461 2.66418,0.92807 1.088667,-0.18874 l -1.325034,-0.93922 1.325034,-0.0821 c 0.728768,-0.045 1.722543,-0.0473 2.208388,-0.005 0.485846,0.0421 1.507258,0.0686 2.269638,0.0589 1.273464,-0.0162 6.43782,2.26167 7.040964,3.10562 0.130717,0.18291 0.548421,0.33272 0.928214,0.33272 0.997542,0 0.141851,-0.79289 -2.290341,-2.12238 -1.092081,-0.59678 -1.985825,-1.19471 -1.985825,-1.32788 0,-0.63061 3.003305,-0.18467 4.276166,0.63485 0.772899,0.49761 1.866051,1.06888 2.429228,1.2697 0.563176,0.20082 1.836294,0.84586 2.828635,1.43308 5.517696,3.26508 10.85857,6.22392 11.23518,6.22392 1.060728,0 0.231302,-0.77814 -2.124713,-1.99183 -1.405969,-0.72429 -5.070882,-2.76334 -8.144297,-4.53199 -5.009292,-2.88268 -5.456246,-3.22796 -4.313259,-3.33389 1.418662,-0.1315 5.473196,1.63366 7.845819,3.41595 0.794628,0.59692 3.477849,2.22451 5.962648,3.61663 2.48483,1.39213 5.249177,2.95555 6.142947,3.4749 0.893766,0.51933 1.986918,0.87755 2.429228,0.79598 0.589105,-0.10864 0.0952,-0.54134 -1.846076,-1.61883 -1.457537,-0.809 -5.808037,-3.28507 -9.66774,-5.50254 -6.519719,-3.74566 -6.932574,-4.05197 -5.815137,-4.31041 1.172362,-0.27114 2.449959,-0.0724 2.89506,0.44984 0.846899,0.99364 14.467138,8.22954 14.856592,7.89274 0.133483,-0.11543 -0.322143,-0.48585 -1.012754,-0.82285 -3.534549,-1.72472 -12.518805,-7.11221 -12.518805,-7.50705 0,-0.18683 2.534127,-0.34338 5.631392,-0.34838 3.097265,-0.005 6.376723,-0.15873 7.287683,-0.34168 0.966373,-0.19405 1.656292,-0.1902 1.656292,0.009 0,0.18796 0.375956,0.34168 0.835045,0.34168 1.407256,0 2.485387,-2.781 3.363482,-8.67679 0.651983,-4.37751 0.708332,-5.71952 0.292439,-6.91994 -0.283756,-0.81878 -0.515866,-2.37099 -0.515866,-3.44951 0,-1.8813 0.04933,-1.96169 1.214614,-1.97468 0.668037,-0.007 1.688459,-0.24071 2.267913,-0.51847 l 1.054157,-0.50505 -1.136971,-0.24693 -1.136115,-0.24618 -0.0095,-4.96466 c -0.0052,-2.730285 0.107381,-4.963921 0.251041,-4.963921 0.143651,0 0.931282,0.357956 1.749455,0.795241 2.746136,1.467714 1.521173,-0.0044 -1.738241,-2.088814 -1.7741,-1.1346 -3.855511,-2.682998 -4.62468,-3.440574 -0.769164,-0.757573 -1.602632,-1.377126 -1.852975,-1.377126 -1.037201,0 -0.299047,1.070794 2.305006,3.342847 l 2.760486,2.40885 v 5.112377 c 0,2.81213 -0.160015,5.25194 -0.355414,5.42122 -0.500756,0.43382 -1.175516,-0.62159 -1.183559,-1.85083 -0.0035,-0.56915 -0.536934,-1.79367 -1.184421,-2.72069 -0.947054,-1.3559 -1.827097,-1.9668 -4.503042,-3.126511 -3.304929,-1.432307 -6.790663,-4.088976 -8.510923,-6.486513 -0.911618,-1.270538 -1.062327,-3.504018 -0.374392,-5.54058 0.247909,-0.733877 0.545927,-2.108061 0.662516,-3.053399 0.347548,-2.81795 0.91078,-7.109535 1.058477,-8.061331 0.01974,-0.127176 1.278449,-0.337174 2.796717,-0.466997 3.01074,-0.25756 3.395322,-0.315785 8.281458,-1.239863 5.173456,-0.978419 5.507735,-1.098624 5.667622,-2.042564 0.124019,-0.732153 -2.21e-4,-0.825071 -0.80744,-0.603515 -0.878316,0.241072 -0.943017,0.145762 -0.814343,-1.205544 0.07686,-0.807127 -0.03304,-3.272128 -0.244133,-5.477916 -0.305332,-3.190772 -0.469177,-3.815345 -0.80399,-3.055637 -0.438856,0.995793 -0.196291,8.504624 0.310552,9.612277 0.309651,0.676709 -1.22066,1.049948 -9.872187,2.411089 -5.495306,0.864573 -6.037227,0.811142 -6.679515,-0.660217 -0.297972,-0.682743 -1.329734,-2.673758 -2.292927,-4.424554 -0.963192,-1.7508 -1.967238,-4.075078 -2.23168,-5.165341 -0.433509,-1.787298 -0.370675,-2.225671 0.643538,-4.455889 2.264186,-4.978855 2.369386,-5.343324 1.652841,-5.733796 -0.09332,-0.05085 -0.190865,-0.08133 -0.289851,-0.09324 z m 26.0495,0.249913 c -0.08005,0.03052 -0.129398,0.105107 -0.129398,0.216343 0,0.222473 0.198755,0.404333 0.441677,0.404333 0.242923,0 0.441678,-0.07596 0.441678,-0.168598 0,-0.09264 -0.198755,-0.2745 -0.441678,-0.404333 -0.121461,-0.06491 -0.232225,-0.07827 -0.312279,-0.04775 z m -14.885058,0.759433 c -0.353876,-7.64e-4 -0.689521,0.334653 -0.463245,0.651262 0.139761,0.195558 0.44083,0.355845 0.669416,0.355845 0.474843,0 0.553656,-0.517873 0.133714,-0.881032 -0.101962,-0.08817 -0.221926,-0.125808 -0.339885,-0.126075 z m 0.128533,2.91688 c 0.242923,0 0.564142,0.171879 0.714277,0.381955 0.150135,0.210075 0.07384,0.381954 -0.169079,0.381954 -0.242923,0 -0.564142,-0.171879 -0.714277,-0.381954 -0.150135,-0.210076 -0.07384,-0.381955 0.169079,-0.381955 z m 40.218559,0 c -0.257259,0 -0.345096,0.171879 -0.194961,0.381955 0.150136,0.210075 0.360432,0.381954 0.467556,0.381954 0.107125,0 0.194961,-0.171879 0.194961,-0.381954 0,-0.210076 -0.210296,-0.381955 -0.467556,-0.381955 z M 56.094091,61.27155 c -0.25726,0 -0.345096,0.17188 -0.194961,0.381954 0.150135,0.210076 0.360431,0.381956 0.467555,0.381956 0.107125,0 0.194961,-0.17188 0.194961,-0.381956 0,-0.210074 -0.210296,-0.381954 -0.467555,-0.381954 z m 2.234266,3.437591 c -0.242922,0 -0.441677,0.34376 -0.441677,0.76391 0,0.42015 0.198755,0.763909 0.441677,0.763909 0.242923,0 0.441678,-0.343759 0.441678,-0.763909 0,-0.42015 -0.198755,-0.76391 -0.441678,-0.76391 z m 62.917513,4.314899 c -0.0862,0.111427 -0.10776,0.200296 0.009,0.234245 0.007,-0.01012 0.014,-0.02204 0.0207,-0.02983 -0.01,-0.0597 -0.0196,-0.122775 -0.0293,-0.204403 z m -56.69952,6.576032 c -0.720752,0.039 -0.917859,0.237939 -0.917859,0.637834 0,0.247502 0.512726,0.31879 1.307781,0.181279 0.719347,-0.124414 1.412499,-0.07941 1.540696,0.09997 0.128197,0.179382 0.895833,0.433378 1.705463,0.564728 0.809631,0.131346 2.142252,0.666442 2.961481,1.189132 1.747511,1.114929 2.398089,1.215982 1.815883,0.281989 -1.04679,-1.679287 -2.612542,-2.450999 -5.627938,-2.774392 -0.769937,-0.08258 -1.386444,-0.13975 -1.877996,-0.16785 -0.368664,-0.02108 -0.667238,-0.02567 -0.907511,-0.01268 z m 25.258448,0.603519 c 1.145597,0.207974 4.907384,1.956204 7.097037,3.355532 1.255116,0.802098 4.617085,3.440987 7.471425,5.864344 5.15659,4.377976 5.18972,4.416965 5.18972,6.188861 0,4.776223 -4.65489,15.533492 -9.597005,22.177992 -0.93751,1.26045 -1.981257,2.89331 -2.31967,3.62857 -0.338409,0.73526 -0.899631,1.72356 -1.24653,2.19624 -0.346902,0.47266 -0.761479,0.85939 -0.922174,0.85939 -0.160709,0 -0.841286,-0.73049 -1.511368,-1.6233 -1.51344,-2.01651 -2.887606,-5.78559 -3.22632,-8.84688 -0.1415,-1.27885 -0.535525,-2.59642 -0.875591,-2.92806 -0.849319,-0.82834 -0.817479,-3.74776 0.04399,-4.03366 0.364384,-0.12092 0.662516,-0.56742 0.662516,-0.99219 0,-1.56295 2.915277,-7.78754 4.277892,-9.134087 0.563422,-0.556775 0.521913,-0.724109 -0.35714,-1.432329 -0.547363,-0.441051 -1.14679,-0.801956 -1.331928,-0.801956 -0.185138,0 -0.21731,-2.062555 -0.07074,-4.583456 0.228201,-3.924991 0.171406,-4.583455 -0.396821,-4.583455 -0.527699,0 -0.724025,0.798896 -0.959267,3.903099 -0.162688,2.14684 -0.459954,4.045724 -0.66079,4.219402 -0.200831,0.173691 -0.500752,-2.158601 -0.66597,-5.182493 -0.165219,-3.023893 -0.490519,-6.070771 -0.722903,-6.77149 -0.232402,-0.700719 -0.320782,-1.362317 -0.196684,-1.469632 0.04469,-0.03865 0.154663,-0.04039 0.318318,-0.01043 z m -38.148191,0.179786 c -0.21754,0.116263 -0.395094,1.490234 -0.395094,3.053398 0,2.995494 0.672291,3.916697 0.959271,1.314463 0.234134,-2.123289 -0.08886,-4.621903 -0.564177,-4.367861 z m 55.362403,4.338768 c 0.001,0.0019 0.001,0.0034 0.003,0.0053 0.0357,0.0038 0.0461,0.02387 0.0863,0.02387 0.004,0 0.006,-0.0023 0.0103,-0.0023 -0.0335,-0.0091 -0.0719,-0.02001 -0.0992,-0.02685 z m -42.978173,0.411047 c -0.226678,0 -0.412346,0.515639 -0.412346,1.145865 0,0.630225 0.168438,1.145864 0.374392,1.145864 0.205955,0 0.391631,-0.515639 0.412346,-1.145864 0.02072,-0.630226 -0.147719,-1.145865 -0.374392,-1.145865 z M 53.88829,82.661011 c -0.867994,0 -0.893505,0.141595 -0.604723,3.342103 0.165876,1.838156 0.499228,3.556952 0.740159,3.819546 1.005025,1.095369 1.33657,0.437758 1.059333,-2.100751 -0.154861,-1.418006 -0.282908,-3.136802 -0.284674,-3.819545 -0.0026,-0.996352 -0.18259,-1.241353 -0.910095,-1.241353 z m 5.903986,4.766973 c -0.392837,-0.02922 -0.465228,0.767687 0.06556,2.06867 0.61217,1.500466 3.929572,5.004949 4.737683,5.004949 0.192567,0 1.263278,0.602462 2.379194,1.33908 1.115913,0.736618 2.211282,1.242273 2.433543,1.123485 0.819529,-0.43801 0.360538,-1.240733 -1.252571,-2.191765 -2.578065,-1.519932 -6.526708,-4.910979 -7.371359,-6.330597 -0.405514,-0.681552 -0.756351,-0.996278 -0.992053,-1.013822 z m -10.435498,1.743413 c -0.200694,0.0427 -0.294396,0.196209 -0.282948,0.460285 0.0114,0.262595 1.017877,1.079023 2.236855,1.814285 1.218973,0.735262 3.743771,2.570364 5.610686,4.077663 2.110822,1.704228 3.553311,2.606547 3.814647,2.386472 0.511118,-0.43042 -1.690871,-2.451767 -6.657948,-6.112018 -2.556784,-1.88411 -4.119215,-2.754757 -4.721292,-2.626687 z m 49.67322,2.27457 c -0.206074,0 -0.736657,0.730488 -1.179245,1.623308 -0.442587,0.892818 -0.963939,1.924096 -1.157677,2.291727 -0.738066,1.400513 0.0333,0.582026 1.344012,-1.426364 1.473322,-2.257577 1.56581,-2.488671 0.99291,-2.488671 z m 14.920422,0.381955 c 1.93856,0 3.09667,0.247663 4.72216,1.009345 2.74236,1.285033 7.92669,4.253287 8.53422,4.886334 0.37302,0.388692 -1.32391,0.476607 -8.58943,0.445363 -5.72233,-0.0246 -9.04746,-0.179332 -9.038,-0.420746 0.0315,-0.804549 1.18513,-5.056445 1.48634,-5.477917 0.18106,-0.253334 1.41445,-0.442379 2.88471,-0.442379 z m -12.92253,4.22164 c -0.6381,-0.173747 -3.210722,3.623018 -3.542899,5.518208 l -0.268284,1.52782 0.60558,-1.37265 c 0.845857,-1.91921 2.028259,-3.842821 2.743233,-4.461118 0.33288,-0.287872 0.60558,-0.682977 0.60558,-0.878048 0,-0.204011 -0.052,-0.309388 -0.14321,-0.334212 z m -6.050631,2.462565 -0.815204,1.453963 c -0.448453,0.79986 -1.042324,1.65112 -1.319857,1.89113 -0.55764,0.48224 -0.688342,2.67074 -0.185469,3.10562 0.382581,0.33085 1.424176,-0.81494 1.503599,-1.6539 0.108264,-1.14357 0.262895,-2.13301 0.53916,-3.45997 z m -19.865146,0.190978 c -0.242923,0 -0.441678,0.515638 -0.441678,1.145865 0,0.63022 0.198755,1.14586 0.441678,1.14586 0.242922,0 0.441677,-0.51564 0.441677,-1.14586 0,-0.630227 -0.198755,-1.145865 -0.441677,-1.145865 z m 2.46287,1.217475 c -0.154481,-0.005 -0.307368,0.0753 -0.43909,0.25962 -0.676142,0.94609 1.453081,9.05964 3.155581,12.02485 0.584922,1.01876 1.157619,1.77107 1.272411,1.6718 0.114792,-0.0993 -0.376256,-2.05007 -1.091253,-4.33504 -1.922292,-6.14315 -1.968226,-6.32552 -1.959084,-7.85841 0.0058,-0.97781 -0.475121,-1.74915 -0.938565,-1.76282 z m -2.424051,1.83817 c -0.308234,0 -0.480497,1.14377 -0.480497,3.18693 0,1.75296 -0.125203,5.06164 -0.277776,7.35263 -0.232543,3.49177 -0.180571,4.08721 0.320044,3.67929 0.776209,-0.63249 1.194938,-14.21885 0.438229,-14.21885 z m -17.077056,0.0589 c 0.622916,0.0996 1.570063,3.60009 1.796904,7.00722 0.05595,0.84031 0.348329,2.81692 0.649576,4.39249 0.301246,1.57556 0.456544,4.12251 0.345922,5.65993 -0.12727,1.76886 -0.442327,3.00474 -0.859201,3.36524 -0.583937,0.50498 -0.725111,0.0789 -1.237042,-3.75017 -0.605085,-4.52585 -1.254285,-15.91689 -0.940292,-16.49865 0.07273,-0.13476 0.155144,-0.19029 0.244133,-0.17606 z m -56.0697864,0.65649 c -0.2323036,0.0258 -0.3028115,0.43529 -0.034506,1.03994 0.1426605,0.32151 0.4556336,0.4802 0.6952974,0.35211 0.2766469,-0.14786 0.2377399,-0.5071 -0.1061062,-0.98324 -0.2179362,-0.30178 -0.415303,-0.42429 -0.5546852,-0.40881 z m 83.3615014,16.64487 c -0.121461,0.10504 0.03463,0.4573 0.346788,0.78256 0.312156,0.32527 0.667004,0.50564 0.788466,0.4006 0.121461,-0.10503 -0.03463,-0.45729 -0.346788,-0.78256 -0.312156,-0.32526 -0.667004,-0.50564 -0.788466,-0.4006 z m -20.8779,0.55428 c -0.06661,0.0129 -0.1342,0.0467 -0.200999,0.10445 -0.180129,0.15576 -0.363987,6.37101 -0.207036,6.99901 0.180098,0.72064 1.230876,-3.43733 1.273277,-5.03852 0.03193,-1.2054 -0.398976,-2.15569 -0.865242,-2.06494 z m 65.552919,2.44765 c -0.34088,-0.10419 -0.50815,0.64093 -0.51932,2.31783 l -0.0164,2.47152 1.84435,0.7736 c 2.47001,1.03647 2.87068,1.00116 1.46047,-0.12905 -0.65195,-0.52251 -1.46559,-0.84445 -1.82968,-0.72362 -0.54349,0.18031 -0.63739,-0.19127 -0.54692,-2.1694 0.0694,-1.51765 -0.0731,-2.44326 -0.39251,-2.54088 z m -115.033768,1.07424 c -0.153437,-0.005 -0.327981,0.0187 -0.487399,0.0739 -0.352341,0.12193 -0.247969,0.21292 0.26656,0.23126 0.465602,0.0166 0.726468,-0.0738 0.579702,-0.20068 -0.07338,-0.0635 -0.205426,-0.099 -0.358863,-0.10444 z m 132.228138,1.2421 c -0.08,0.0306 -0.12939,0.1051 -0.12939,0.21634 0,0.22248 0.19875,0.40433 0.44167,0.40433 0.24293,0 0.44168,-0.0759 0.44168,-0.16859 0,-0.0926 -0.19875,-0.2745 -0.44168,-0.40434 -0.12146,-0.0649 -0.23222,-0.0782 -0.31228,-0.0478 z m -135.911662,0.70127 c -2.608903,-0.0657 -4.5572749,0.0499 -4.8308505,0.28646 -0.3169275,0.27408 0.4213765,0.40406 2.3904082,0.41926 1.5668523,0.0121 3.6434963,0.16413 4.6151883,0.33794 0.971691,0.1738 1.930746,0.33541 2.13075,0.35958 0.200003,0.0241 0.297019,-0.25678 0.215663,-0.62442 -0.12698,-0.57378 -0.767519,-0.68434 -4.521159,-0.77882 z m 129.020802,1.45321 c -0.31607,0.003 -0.26178,0.15352 0.1363,0.37599 0.84852,0.47421 1.00142,0.47421 0.66252,0 -0.15014,-0.21007 -0.5095,-0.37903 -0.79882,-0.37599 z m -15.67352,1.86576 c -0.20132,-10e-4 0.16438,0.36365 1.32244,1.18913 0.88788,0.6329 3.66159,2.95328 6.16365,5.1564 4.5603,4.01541 4.84397,4.21403 5.36742,3.76135 0.36874,-0.31887 -5.69446,-5.88653 -8.15982,-7.49287 -2.44691,-1.59433 -4.35817,-2.61211 -4.69369,-2.61401 z m -38.653706,0.69901 c 1.90924,-0.20615 3.228907,0.46231 3.228907,1.63599 0,0.28503 0.431944,0.91628 0.960133,1.40249 1.542895,1.42026 0.01157,1.10376 -3.115039,-0.64381 -1.503391,-0.8403 -2.965438,-1.52781 -3.248747,-1.52781 -1.237961,0 0.477281,-0.68359 2.174746,-0.86686 z m 60.018136,0.24468 c -0.83623,-0.11626 0.27661,0.88975 1.98411,1.64495 2.28493,1.01059 2.17819,0.98408 2.17819,0.54309 0,-0.34821 -2.1922,-1.57865 -3.68093,-2.06568 -0.20298,-0.0664 -0.3619,-0.10575 -0.48137,-0.12236 z m -91.277187,0.28722 c -0.153439,-0.005 -0.327985,0.0187 -0.4874,0.0739 -0.35234,0.12192 -0.247971,0.21292 0.266561,0.23126 0.465599,0.0166 0.726467,-0.0738 0.579702,-0.20068 -0.07338,-0.0635 -0.205428,-0.099 -0.358863,-0.10444 z m -10.195685,0.40061 c -0.335985,-0.0182 -0.592648,0.002 -0.681495,0.0791 -0.123277,0.1066 0.443334,0.36012 1.259472,0.56323 1.965557,0.48914 2.146278,0.49721 2.146278,0.0985 0,-0.2823 -1.716299,-0.68608 -2.724255,-0.74078 z m 93.268192,0.53041 c 0,0.31055 2.71149,2.48328 5.14658,4.12391 2.02491,1.36428 4.20874,1.82432 4.79117,1.00934 0.15014,-0.21007 -0.0705,-0.38194 -0.49085,-0.38194 -0.42032,0 -1.07868,-0.23678 -1.46219,-0.52594 -1.09048,-0.82221 -7.98471,-4.47051 -7.98471,-4.22537 z m 7.31356,0.94369 c -0.25722,0.007 -0.0816,0.26451 0.38993,0.57293 0.47154,0.30844 1.06781,0.55574 1.32503,0.54906 0.25722,-0.007 0.0816,-0.2645 -0.38992,-0.57293 -0.47155,-0.30843 -1.06781,-0.55574 -1.32504,-0.54906 z m -119.313375,0.84522 c -0.455157,0.39361 1.66056,2.11394 3.858642,3.1377 1.297617,0.60437 3.051572,1.49972 3.897461,1.98959 1.729642,1.00169 1.774475,1.01581 1.774475,0.56698 0,-0.40141 -9.256077,-5.93165 -9.530578,-5.69427 z m 121.937565,0.64977 1.1042,0.76616 c 1.26376,0.87655 1.32503,0.89748 1.32503,0.46177 0,-0.17636 -0.54658,-0.5248 -1.21461,-0.77435 z M 1.8738291,135.00595 c -0.052745,-0.008 -0.080227,0.008 -0.080227,0.0478 0,0.32059 1.2050138,1.57681 2.6776715,2.79155 1.4726578,1.21475 2.9862784,2.61599 3.3634796,3.11383 0.3772017,0.49783 0.8500628,0.9049 1.0507103,0.9049 1.1353215,0 0.3873258,-0.94877 -3.1495422,-3.99635 -1.8972667,-1.6348 -3.4928802,-2.80851 -3.8620926,-2.86168 z m 100.7663609,0.22008 c -0.1567,-0.0144 -0.29427,0.0113 -0.42183,0.0731 -0.55265,0.26746 -0.007,0.84074 2.7415,2.8766 3.1793,2.3553 4.60312,3.03757 4.60312,2.20594 0,-0.18514 -0.64596,-0.76403 -1.43546,-1.28612 -0.7895,-0.52209 -2.28676,-1.66528 -3.32724,-2.54014 -1.04898,-0.882 -1.68996,-1.2863 -2.16009,-1.32938 z m -94.000582,0.51474 1.942692,1.5405 c 1.068561,0.84736 2.041006,1.45622 2.160943,1.35251 0.361604,-0.31271 -0.76314,-1.26533 -2.482712,-2.10299 z m 98.689102,0.0119 c -0.25726,0 -0.3451,0.17189 -0.19496,0.38196 0.15013,0.21008 0.36043,0.38196 0.46755,0.38196 0.10713,0 0.19496,-0.17188 0.19496,-0.38196 0,-0.21007 -0.21029,-0.38196 -0.46755,-0.38196 z m -29.440582,0.035 c -0.09614,0.0523 0.01731,0.22691 0.315729,0.53787 0.609361,0.63496 1.325033,0.76034 1.325033,0.232 0,-0.1876 -0.314492,-0.44542 -0.698747,-0.57293 -0.540234,-0.17927 -0.845875,-0.2493 -0.942015,-0.19694 z m -4.26064,0.35883 c -0.276742,0.007 0.06652,0.44495 0.762583,0.97428 0.696067,0.52933 1.391709,0.85304 1.545872,0.71915 0.33731,-0.29296 -1.59515,-1.71054 -2.308455,-1.69343 z m -46.668604,0.015 c -0.317262,-0.0687 -0.441551,0.0322 -0.225152,0.33495 0.142236,0.19903 2.065321,1.39974 4.273577,2.66846 2.208256,1.26873 4.203738,2.20593 4.434031,2.08284 0.230293,-0.12308 -1.035296,-1.00385 -2.812245,-1.95752 -1.77695,-0.95365 -3.704593,-2.05364 -4.28393,-2.44465 -0.558437,-0.3769 -1.069018,-0.61534 -1.386281,-0.68408 z m 36.893034,0.53189 c -0.06799,-0.0153 -0.120463,-0.0114 -0.151827,0.0157 -0.125459,0.1085 0.154724,0.44796 0.622836,0.75421 1.194332,0.78139 1.346345,0.71245 0.40717,-0.18501 -0.330773,-0.31607 -0.674221,-0.53887 -0.878179,-0.58487 z m 84.948782,0.0403 c -0.49587,-0.0269 -0.43142,0.61937 0.35713,1.37489 0.75924,0.72743 0.83038,0.73439 0.97739,0.0985 0.0871,-0.37694 -0.20862,-0.91732 -0.65734,-1.20106 -0.28381,-0.17947 -0.51189,-0.26332 -0.67718,-0.2723 z m -40.25738,0.17083 c -0.31607,0.003 -0.26178,0.15351 0.1363,0.37599 0.84852,0.47421 1.00142,0.47421 0.66252,0 -0.15014,-0.21008 -0.5095,-0.37904 -0.79882,-0.37599 z m -27.463381,0.7199 c -0.143651,-0.0392 -0.226015,-0.0391 -0.226015,0.0104 0,0.18165 1.043463,0.9428 2.318808,1.69121 2.352848,1.38071 2.997437,1.62133 2.961485,1.10557 -0.02509,-0.36004 -4.048719,-2.5347 -5.054278,-2.80721 z m 64.497891,0.0425 c -0.70441,0.003 -0.36972,0.41709 1.52776,1.89261 2.34745,1.82545 3.09174,2.22275 3.09174,1.65017 0,-0.63611 -3.79527,-3.54664 -4.6195,-3.54278 z m -35.44378,0.13874 c -0.08,0.0305 -0.1294,0.10511 -0.1294,0.21634 0,0.22248 0.19876,0.40434 0.44168,0.40434 0.24292,0 0.44168,-0.076 0.44168,-0.1686 0,-0.0926 -0.19876,-0.27449 -0.44168,-0.40433 -0.12146,-0.0649 -0.23222,-0.0782 -0.31228,-0.0478 z M 1.8565761,137.92284 c -0.2559344,0.14237 0.1279027,0.98013 1.1516403,2.147 0.8677082,0.98902 1.5615195,1.38808 2.4292277,1.39802 0.6680377,0.008 1.2146139,-0.13787 1.2146139,-0.32378 0,-0.18591 -0.5465762,-0.63765 -1.2146139,-1.00411 -0.6680376,-0.36648 -1.7611901,-1.10616 -2.4292277,-1.64346 -0.6142426,-0.49402 -0.9980797,-0.65909 -1.1516403,-0.57367 z m 74.7962319,0.12458 c -0.143342,0.019 -0.215662,0.0945 -0.215662,0.22827 0,0.325 2.091539,1.74522 3.715442,2.52224 1.650519,0.78977 1.479515,0.75833 1.787412,0.3275 0.140273,-0.19627 -0.812846,-0.96972 -2.117809,-1.71879 -1.670801,-0.95905 -2.739356,-1.41621 -3.169383,-1.35922 z m -35.686183,0.003 c -0.316072,0.002 -0.261781,0.15344 0.136299,0.37591 0.848518,0.4742 1.001418,0.4742 0.662517,0 -0.150135,-0.21007 -0.509499,-0.37904 -0.798816,-0.37599 z m 100.862115,0.75786 c -0.84619,0 -0.48435,0.68171 0.89371,1.68448 1.30561,0.95005 2.61645,1.30227 2.61643,0.70274 -2e-5,-0.39233 -2.93332,-2.38722 -3.51014,-2.38722 z m -105.107225,0.05 c -0.05297,0.0243 0.07541,0.17218 0.350237,0.4603 0.333398,0.3495 0.780597,0.63558 0.993775,0.63558 0.674656,0 0.421321,-0.33955 -0.606444,-0.81314 -0.450561,-0.20761 -0.684601,-0.307 -0.737568,-0.28274 z m 74.809175,0.12385 c -0.33725,-0.017 -0.21492,0.32618 0.52966,1.03769 0.40204,0.38417 1.14737,0.69301 1.6563,0.68632 0.92123,-0.0121 0.92172,-0.0151 0.0423,-0.60128 -1.09385,-0.72906 -1.89098,-1.10578 -2.22822,-1.12273 z m -97.302823,0.20813 c -0.488952,0 -0.391186,0.25016 0.374391,0.95489 0.570535,0.52518 1.33504,0.95488 1.699424,0.95488 0.488952,0 0.391186,-0.25016 -0.374391,-0.95488 -0.570535,-0.5252 -1.33504,-0.95489 -1.699424,-0.95489 z m 28.862607,0.3357 1.104195,0.77883 c 1.063127,0.74946 1.766711,0.9938 1.766711,0.61396 0,-0.0996 -0.645954,-0.45388 -1.435453,-0.78703 z m 78.397806,1.24135 c -0.20014,0 -0.40027,0.0268 -0.5521,0.0799 -0.30366,0.10596 -0.0552,0.19247 0.5521,0.19247 0.6073,0 0.85575,-0.0865 0.55209,-0.19247 -0.15182,-0.0529 -0.35196,-0.0799 -0.55209,-0.0799 z M 97.276228,143.112 c -1.92008,-0.0177 -2.543848,0.10041 -3.178009,0.34317 -1.394522,0.53381 -1.681516,1.00499 -0.766898,1.26001 0.303653,0.0846 7.402399,0.25988 15.775309,0.3894 8.37292,0.12948 15.30915,0.31005 15.41387,0.40061 0.10471,0.0906 0.60834,0.0745 1.11886,-0.035 0.51051,-0.10951 6.24453,-0.23478 12.74223,-0.279 11.67095,-0.0795 11.814,-0.09 11.81488,-0.88103 l 8.8e-4,-0.80121 -18.43832,0.12906 c -11.87975,0.083 -18.49183,0.26563 -18.58756,0.51399 -0.0817,0.21202 -0.34268,0.38569 -0.5797,0.38569 -0.23702,0 -0.308,-0.17188 -0.15787,-0.38195 0.15865,-0.22199 -0.33933,-0.40463 -1.18873,-0.43567 -0.80384,-0.0294 -2.16039,-0.0899 -3.01497,-0.13428 -5.81758,-0.30242 -9.033867,-0.45596 -10.95395,-0.47372 z m -29.893476,0.20367 c -12.874907,0.013 -26.390247,0.11908 -30.034089,0.23648 -3.643841,0.11741 -13.134393,0.22387 -21.090113,0.23649 -12.1541113,0.0192 -14.4649475,0.10905 -14.4649475,0.56248 0,0.41584 0.9372839,0.57182 4.0855194,0.68036 3.2354253,0.11154 31.5544851,0.0163 34.3404471,-0.11563 0.364384,-0.0173 6.128279,-0.0253 12.808655,-0.0171 6.680376,0.008 17.910034,-0.0266 24.954794,-0.0776 12.205955,-0.0883 12.808656,-0.12628 12.808656,-0.81091 0,-0.69452 -0.778758,-0.71729 -23.408922,-0.69453 z m -3.312584,4.70878 c -0.200133,0 -0.40027,0.0268 -0.552097,0.0799 -0.303653,0.10596 -0.05521,0.19248 0.552097,0.19248 0.607307,0 0.855751,-0.0866 0.552098,-0.19248 -0.151827,-0.0529 -0.351965,-0.0799 -0.552098,-0.0799 z" />
    <g
       aria-label="XXXII"
       id="text1519"
       style="font-size:40px;line-height:1.25;font-family:Hultog;-inkscape-font-specification:Hultog"
       transform="matrix(0.44167777,0,0,0.3819546,1.7936025,1.3046802)">
      <path
         d="m 241.05119,42.920612 q -0.51376,2.715597 -1.54128,2.422019 l -3.57187,-1.003058 q -4.30581,0 -4.89296,1.247706 l -1.66361,-1.174312 q 0.95413,-2.079511 2.17737,-2.079511 0.29357,0 0.56269,0.09786 0.24465,-0.220184 0.24465,-0.562692 0,-0.513761 -0.53823,-1.394495 -1.71254,-1.223242 -4.50153,-6.776758 h -0.17125 q -0.51376,-0.02446 -0.75841,0.464831 -2.49542,5.333334 -4.4526,7.168196 l 0.19572,0.880734 q 2.2263,0.293578 2.2263,1.810398 0,0.61162 -0.41591,1.590214 -0.90519,-0.70948 -1.78593,-0.880734 -0.36697,-0.04893 -1.98165,-0.04893 -3.08257,0 -4.52599,0.733945 l -1.05199,-0.587156 v -1.932722 l 2.88685,-0.733945 q 0.68501,-0.171253 6.94801,-9.174311 1.24771,-0.391438 1.24771,-1.174312 0,-0.782875 -0.9052,-1.492355 -1.24771,-1.027523 -1.37003,-1.198777 -0.78288,-1.076452 -2.10398,-3.400611 -1.3211,-2.32416 -2.07951,-3.376147 0,0 -1.83486,-1.639144 l -3.27829,-0.733945 0.97859,-2.103976 5.3578,0.685016 3.00918,-0.685016 1.37003,0.464832 v 1.663609 q -1.68808,0.318043 -1.66361,1.37003 v 0.171254 l 4.64832,6.874618 0.75841,-0.195719 q 0.92966,-3.571865 3.474,-5.993883 v -1.247707 l -1.88379,-0.685015 -0.4159,-1.859327 1.05199,-0.538227 3.91437,0.660551 q 1.66361,-0.587156 2.88685,-0.587156 1.49235,0 1.8104,1.003058 -0.80734,2.152905 -3.18043,2.152905 -1.85933,2.422018 -3.71865,4.844037 -2.789,3.743119 -3.10704,4.892966 1.54129,1.761468 4.40367,5.333334 0.4893,1.076452 1.61468,3.058103 0.95413,1.003059 2.78899,2.93578 z"
         id="path1997" />
      <path
         d="m 268.45178,42.920612 q -0.51376,2.715597 -1.54128,2.422019 l -3.57187,-1.003058 q -4.30581,0 -4.89297,1.247706 l -1.6636,-1.174312 q 0.95412,-2.079511 2.17737,-2.079511 0.29357,0 0.56269,0.09786 0.24465,-0.220184 0.24465,-0.562692 0,-0.513761 -0.53823,-1.394495 -1.71254,-1.223242 -4.50153,-6.776758 h -0.17125 q -0.51377,-0.02446 -0.75841,0.464831 -2.49542,5.333334 -4.4526,7.168196 l 0.19572,0.880734 q 2.2263,0.293578 2.2263,1.810398 0,0.61162 -0.41591,1.590214 -0.9052,-0.70948 -1.78593,-0.880734 -0.36697,-0.04893 -1.98165,-0.04893 -3.08257,0 -4.52599,0.733945 l -1.05199,-0.587156 v -1.932722 l 2.88685,-0.733945 q 0.68501,-0.171253 6.94801,-9.174311 1.24771,-0.391438 1.24771,-1.174312 0,-0.782875 -0.9052,-1.492355 -1.24771,-1.027523 -1.37003,-1.198777 -0.78288,-1.076452 -2.10398,-3.400611 -1.3211,-2.32416 -2.07951,-3.376147 0,0 -1.83486,-1.639144 L 241.516,19.9726 l 0.97859,-2.103976 5.3578,0.685016 3.00918,-0.685016 1.37003,0.464832 v 1.663609 q -1.68808,0.318043 -1.66361,1.37003 v 0.171254 l 4.64832,6.874618 0.75841,-0.195719 q 0.92966,-3.571865 3.474,-5.993883 v -1.247707 l -1.88379,-0.685015 -0.4159,-1.859327 1.05199,-0.538227 3.91437,0.660551 q 1.66361,-0.587156 2.88685,-0.587156 1.49235,0 1.8104,1.003058 -0.80734,2.152905 -3.18043,2.152905 -1.85933,2.422018 -3.71866,4.844037 -2.78899,3.743119 -3.10703,4.892966 1.54128,1.761468 4.40367,5.333334 0.4893,1.076452 1.61468,3.058103 0.95413,1.003059 2.78899,2.93578 z"
         id="path1999" />
      <path
         d="m 295.85237,42.920612 q -0.51376,2.715597 -1.54128,2.422019 l -3.57187,-1.003058 q -4.30581,0 -4.89297,1.247706 l -1.66361,-1.174312 q 0.95413,-2.079511 2.17737,-2.079511 0.29358,0 0.5627,0.09786 0.24464,-0.220184 0.24464,-0.562692 0,-0.513761 -0.53822,-1.394495 -1.71254,-1.223242 -4.50153,-6.776758 h -0.17126 q -0.51376,-0.02446 -0.7584,0.464831 -2.49542,5.333334 -4.4526,7.168196 l 0.19571,0.880734 q 2.2263,0.293578 2.2263,1.810398 0,0.61162 -0.4159,1.590214 -0.9052,-0.70948 -1.78593,-0.880734 -0.36697,-0.04893 -1.98165,-0.04893 -3.08257,0 -4.526,0.733945 l -1.05198,-0.587156 v -1.932722 l 2.88685,-0.733945 q 0.68501,-0.171253 6.94801,-9.174311 1.24771,-0.391438 1.24771,-1.174312 0,-0.782875 -0.9052,-1.492355 -1.24771,-1.027523 -1.37003,-1.198777 -0.78288,-1.076452 -2.10398,-3.400611 -1.3211,-2.32416 -2.07951,-3.376147 0,0 -1.83486,-1.639144 l -3.27829,-0.733945 0.97859,-2.103976 5.3578,0.685016 3.00918,-0.685016 1.37003,0.464832 v 1.663609 q -1.68808,0.318043 -1.66361,1.37003 v 0.171254 l 4.64832,6.874618 0.75841,-0.195719 q 0.92966,-3.571865 3.474,-5.993883 v -1.247707 l -1.88379,-0.685015 -0.4159,-1.859327 1.05198,-0.538227 3.91438,0.660551 q 1.66361,-0.587156 2.88685,-0.587156 1.49235,0 1.8104,1.003058 -0.80734,2.152905 -3.18043,2.152905 -1.85933,2.422018 -3.71866,4.844037 -2.78899,3.743119 -3.10703,4.892966 1.54128,1.761468 4.40367,5.333334 0.4893,1.076452 1.61468,3.058103 0.95413,1.003059 2.78899,2.93578 z"
         id="path2001" />
      <path
         d="m 309.06336,43.385444 q -0.41591,2.470948 -1.46789,2.2263 l -4.526,-1.027523 q 0,0 -3.32721,0.318043 -0.95413,0.66055 -1.66361,0.66055 -1.00306,0 -1.56575,-1.46789 l 1.2477,-1.810397 q 0.58716,0.195718 1.22325,0.195718 2.10397,0 2.10397,-3.400611 0,-0.660551 -0.0979,-1.981652 -0.0979,-1.321101 -0.0979,-1.981651 0,-1.932722 0.0979,-5.82263 0.0979,-3.889908 0.0979,-5.82263 0,-1.663609 -0.97859,-2.617737 -0.66055,0.244648 -1.3211,0.244648 -1.14985,0 -1.93273,-0.929663 0.41591,-2.446483 1.44343,-2.2263 l 4.47706,0.978593 4.25688,-1.027523 1.76147,0.905199 -0.51376,1.761468 q -0.4893,-0.122324 -0.8318,-0.122324 -2.25077,0 -2.25077,3.840978 0,0.391438 0.0245,1.027523 0.0245,0.611621 0.0245,0.831805 0,1.614679 -0.0979,15.437309 l 1.02753,1.100917 q 0.66055,-0.220184 1.19877,-0.220184 1.07646,0 1.68808,0.929664 z"
         id="path2003" />
      <path
         d="m 322.37222,43.385444 q -0.4159,2.470948 -1.46789,2.2263 l -4.52599,-1.027523 q 0,0 -3.32722,0.318043 -0.95412,0.66055 -1.66361,0.66055 -1.00305,0 -1.56574,-1.46789 l 1.2477,-1.810397 q 0.58716,0.195718 1.22324,0.195718 2.10398,0 2.10398,-3.400611 0,-0.660551 -0.0979,-1.981652 -0.0979,-1.321101 -0.0979,-1.981651 0,-1.932722 0.0979,-5.82263 0.0979,-3.889908 0.0979,-5.82263 0,-1.663609 -0.97859,-2.617737 -0.66055,0.244648 -1.3211,0.244648 -1.14985,0 -1.93273,-0.929663 0.41591,-2.446483 1.44343,-2.2263 l 4.47706,0.978593 4.25688,-1.027523 1.76147,0.905199 -0.51376,1.761468 q -0.4893,-0.122324 -0.8318,-0.122324 -2.25077,0 -2.25077,3.840978 0,0.391438 0.0245,1.027523 0.0245,0.611621 0.0245,0.831805 0,1.614679 -0.0979,15.437309 l 1.02752,1.100917 q 0.66055,-0.220184 1.19878,-0.220184 1.07645,0 1.68807,0.929664 z"
         id="path2005" />
    </g>
  </g>
</svg>
