<?xml version="1.0" encoding="UTF-8" standalone="no"?>
<!-- Created with Inkscape (http://www.inkscape.org/) -->

<svg
   version="1.1"
   id="svg2"
   width="430.07999"
   height="225.60001"
   viewBox="0 0 430.07999 225.60001"
   sodipodi:docname="cerone-dice.jpg"
   inkscape:version="1.1.2 (0a00cf5339, 2022-02-04)"
   xmlns:inkscape="http://www.inkscape.org/namespaces/inkscape"
   xmlns:sodipodi="http://sodipodi.sourceforge.net/DTD/sodipodi-0.dtd"
   xmlns="http://www.w3.org/2000/svg"
   xmlns:svg="http://www.w3.org/2000/svg">
  <defs
     id="defs6" />
  <sodipodi:namedview
     id="namedview4"
     pagecolor="#505050"
     bordercolor="#eeeeee"
     borderopacity="1"
     inkscape:pageshadow="0"
     inkscape:pageopacity="0"
     inkscape:pagecheckerboard="0"
     showgrid="false"
     inkscape:zoom="3.3200354"
     inkscape:cx="83.734048"
     inkscape:cy="93.5231"
     inkscape:window-width="1850"
     inkscape:window-height="1009"
     inkscape:window-x="0"
     inkscape:window-y="0"
     inkscape:window-maximized="1"
     inkscape:current-layer="g8" />
  <g
     inkscape:groupmode="layer"
     inkscape:label="Image"
     id="g8">
    <path
       id="path30"
       style="fill:#000000;stroke-width:0.96"
       d="m 112.24023,0.11914062 c -0.3335,-0.0137368 -0.71405,0.046889 -1.06054,0.18554688 -0.76582,0.30645735 -0.53827,0.53401363 0.58008,0.58007812 1.01199,0.0416842 1.57876,-0.18490623 1.25976,-0.50390624 -0.1595,-0.15950002 -0.4458,-0.24798191 -0.7793,-0.26171876 z M 124.28711,11.78125 c -4.29025,-0.06466 -6.84037,0.03246 -7.08789,0.298828 -0.44978,0.484036 -1.07101,5.892641 -1.37891,12.019531 -0.30791,6.12689 -0.98725,14.118656 -1.50976,17.759766 -0.52251,3.641111 -1.13136,9.321094 -1.35352,12.621094 -0.39507,5.868355 -0.35225,6 1.99609,6 1.81086,0 2.15774,-0.296131 1.40821,-1.201172 -1.29033,-1.558031 0.0881,-9.306965 1.85156,-10.410156 1.76124,-1.101785 2.2247,2.67391 0.91211,7.427734 -1.10299,3.994683 -0.86536,4.688037 1.31445,3.851563 0.91112,-0.349627 1.52581,-1.873936 1.59961,-3.958985 0.066,-1.864572 0.22933,-3.821609 0.36133,-4.349609 0.132,-0.528 0.29338,-4.462134 0.35938,-8.742188 l 0.12109,-7.78125 8.39844,0.582032 c 4.62,0.320573 13.34376,0.824395 19.38476,1.11914 6.04102,0.294745 11.22455,0.683886 11.51953,0.865234 0.295,0.181349 6.13686,0.594622 12.98243,0.917969 6.84556,0.323346 12.82099,0.961626 13.27734,1.417969 0.45634,0.456344 0.52992,2.825929 0.16406,5.265625 -0.52061,3.471741 -1.05917,4.435547 -2.47656,4.435547 -1.50986,0 -1.82352,-0.758818 -1.88672,-4.560547 -0.0816,-4.911275 -0.38403,-4.69281 -1.33008,0.962891 l -0.60156,3.603515 -4.99609,-0.46875 c -30.06413,-2.82172 -55.77619,-3.339455 -53.39649,-1.076172 0.22001,0.209236 11.41686,0.873073 24.88086,1.47461 13.464,0.601536 26.66578,1.315198 29.33789,1.585937 l 4.85742,0.492188 -0.53906,4.033203 L 181.91992,60 170.40039,60.173828 c -15.65181,0.237214 -14.69652,0.144013 -12.96094,1.265625 0.792,0.51183 4.68063,0.985391 8.64063,1.050781 3.96,0.06539 9.79098,0.438965 12.95898,0.832032 3.168,0.393067 7.12233,0.779793 8.78516,0.857422 l 3.02148,0.140624 0.57032,-11.759765 c 0.31353,-6.468 0.82526,-17.938385 1.13671,-25.488281 l 0.56641,-13.726563 -13.75976,0.177735 c -7.56783,0.09789 -24.46522,-0.384238 -37.55079,-1.072266 -7.20121,-0.378635 -13.23124,-0.605263 -17.52148,-0.669922 z m 2.41797,1.423828 c 1.82499,-0.02164 5.7397,0.270439 10.0957,0.779297 5.808,0.678478 18.9833,1.42402 29.2793,1.65625 10.296,0.232231 18.82698,0.696528 18.95898,1.03125 0.132,0.334723 0.24024,2.551734 0.24024,4.927734 0,3.885714 -0.22543,4.320313 -2.24024,4.320313 -1.23201,0 -2.41868,-0.179517 -2.63867,-0.398438 -0.22,-0.218921 -9.90353,-0.660809 -21.51953,-0.982422 -11.616,-0.321614 -24.19628,-0.821299 -27.95508,-1.111328 l -6.83398,-0.527343 0.4707,-4.490235 c 0.25913,-2.469436 0.74256,-4.752787 1.07422,-5.074218 0.0829,-0.08036 0.46003,-0.123647 1.06836,-0.13086 z m -4.8086,0.275391 c 0.95079,0.146585 1.00367,1.572225 0.4668,5.152343 -0.59692,3.980552 -2.41283,5.833142 -3.61328,3.6875 -0.85473,-1.527706 0.58563,-8.09327 1.88477,-8.591796 0.52803,-0.202625 0.94479,-0.296909 1.26171,-0.248047 z m 66.74414,2.839843 c 1.06666,0 1.43946,1.120313 1.43946,4.320313 0,3.759348 -0.263,4.320313 -2.03125,4.320313 -1.63874,0 -1.91996,-0.418163 -1.45313,-2.160157 0.31837,-1.188 0.5838,-3.132312 0.5918,-4.320312 0.008,-1.274175 0.60368,-2.160157 1.45312,-2.160157 z m -63.36132,8.503907 c 0.528,-0.04007 7.11662,0.235203 14.64062,0.611328 l 13.67969,0.683594 v 4.71875 4.716797 l -4.56055,-0.257813 c -2.508,-0.141698 -7.15036,-0.359132 -10.31836,-0.484375 -3.168,-0.125244 -7.93803,-0.468719 -10.59961,-0.763672 l -4.83984,-0.537109 0.51953,-4.306641 c 0.28558,-2.36897 0.95052,-4.340789 1.47852,-4.380859 z m -4.86719,0.136719 c 1.10604,0 1.38675,1.093133 1.23047,4.798828 -0.11132,2.639805 -0.20313,4.741632 -0.20313,4.669922 0,-0.07171 -0.95507,-0.316774 -2.12304,-0.542969 -1.8054,-0.349641 -2.04541,-0.868957 -1.59766,-3.46875 0.82237,-4.77493 1.15992,-5.457031 2.69336,-5.457031 z m 37.50781,1.439453 4.08008,0.04297 c 2.244,0.024 9.49203,0.132235 16.10742,0.240235 l 12.0293,0.197265 -0.45117,4.558594 c -0.24758,2.508001 -0.47602,5.099766 -0.50782,5.759766 -0.0318,0.66 -0.97642,1.201172 -2.09961,1.201172 -1.87205,0 -2.00485,-0.400541 -1.58203,-4.800782 0.25367,-2.64 0.0931,-4.798828 -0.35742,-4.798828 -0.4505,0 -0.81836,1.999601 -0.81836,4.44336 v 4.441406 L 171.59961,37 c -6.996,-0.377311 -13.07208,-1.02093 -13.50195,-1.431641 -0.4299,-0.41071 -0.64438,-2.641296 -0.47852,-4.957031 z m 270.85156,4.449218 c -0.98455,0.0077 -2.63073,0.609619 -5.27734,1.810547 -2.30167,1.044404 -5.00167,1.900391 -6,1.900391 -0.99834,0 -2.74452,0.92811 -3.88086,2.064453 -1.891,1.891003 -2.16312,1.932145 -3.22461,0.480469 -1.57712,-2.156835 -2.88605,-1.993425 -4.95898,0.61914 -2.49485,3.144316 -4.04305,3.879253 -5.54492,2.632813 -0.99078,-0.822271 -2.67787,-0.643458 -6.91797,0.732422 -6.20241,2.012631 -7.41965,3.953072 -3.72266,5.93164 1.33952,0.71689 2.43555,1.662784 2.43555,2.101563 0,1.074682 -4.4165,1.014882 -6.49219,-0.08789 -10.51613,-5.587039 -25.75515,-12.108552 -35.86328,-15.347656 -5.78879,-1.854988 -19.45942,-0.427458 -36.62891,3.826172 -21.44213,5.312152 -39.406,10.756241 -41.44726,12.560547 -0.5016,0.443374 -1.70361,0.80664 -2.66993,0.80664 -1.67481,0 -9.25638,2.90004 -17.53906,6.710938 -2.112,0.971742 -7.18658,3.139455 -11.27734,4.816406 -10.72118,4.394995 -13.6212,9.126326 -9.1836,14.982422 1.15427,1.523206 2.21651,2.931789 2.36133,3.130859 0.14482,0.199069 2.11789,0.724425 4.38282,1.167969 3.12056,0.611104 5.39738,0.379821 9.39843,-0.955078 2.904,-0.968881 7.00714,-2.297179 9.11914,-2.953125 3.32359,-1.032241 20.91413,-7.327179 31.19922,-11.164062 3.8125,-1.422262 6.08056,-1.679377 5.4375,-0.617188 -0.23974,0.396 0.13419,1.24587 0.83008,1.888672 1.0216,0.943671 1.85378,0.111469 4.32422,-4.320313 1.6828,-3.018802 4.17446,-6.676905 5.53516,-8.128906 1.36068,-1.452 2.04343,-2.638672 1.51953,-2.638672 -0.52389,0 -3.0207,2.158827 -5.55078,4.798828 -2.53008,2.64 -5.31469,4.866846 -6.1875,4.947266 -0.87281,0.08042 -2.14602,0.191847 -2.82813,0.248047 -0.68211,0.05619 -1.54603,0.553024 -1.91992,1.103516 -0.82752,1.218389 -8.73342,4.261718 -11.07031,4.261718 -0.92737,0 -3.37928,0.863922 -5.44922,1.919922 -2.06993,1.056 -4.05178,1.919922 -4.4043,1.919922 -0.35247,0 -0.37605,-1.655544 -0.0527,-3.677734 0.40799,-2.5514 0.14767,-4.240407 -0.85157,-5.519532 -1.36009,-1.741059 -1.40692,-1.696808 -0.83984,0.802735 0.33041,1.45547 0.33203,4.077166 0.004,5.826172 -0.5407,2.882212 -1.15773,3.378736 -6.58594,5.285156 -3.294,1.156868 -6.20875,2.09915 -6.47656,2.09375 -0.2678,-0.0053 -0.33488,-1.908784 -0.15039,-4.228516 0.18451,-2.319731 -0.13458,-5.092433 -0.70704,-6.162109 -0.77889,-1.455361 -0.73988,-2.067308 0.15235,-2.427734 0.70319,-0.284063 0.50253,-0.511941 -0.48828,-0.556641 -2.01584,-0.09094 -2.07601,-0.909854 -0.24805,-3.324219 1.15573,-1.52648 2.12676,-1.709097 6.2207,-1.166016 2.66836,0.35397 5.49373,0.889956 6.2793,1.191407 0.78556,0.301451 1.42969,0.07082 1.42969,-0.513672 0,-0.58449 -0.64941,-1.0625 -1.44141,-1.0625 -0.792,0 -1.43945,-0.432938 -1.43945,-0.960938 0,-0.528 1.28218,-0.958984 2.84961,-0.958984 2.1388,0 2.71157,-0.360695 2.29687,-1.441406 -0.45207,-1.178061 0.4704,-1.441095 5.07032,-1.453125 3.98447,-0.01042 5.20404,-0.285853 4.18359,-0.945313 -2.94248,-1.901583 4.30204,-0.986254 8.03711,1.015625 2.02881,1.087374 3.94052,1.725488 4.24804,1.417969 0.56333,-0.563327 -2.80249,-3.317082 -5.5332,-4.527344 -0.84278,-0.373518 0.37482,-0.73615 2.84766,-0.849609 2.376,-0.109015 3.34815,-0.386417 2.16015,-0.615234 -4.14284,-0.797948 -2.11941,-2.204225 3.35938,-2.333985 3.036,-0.0719 4.54933,-0.316103 3.36133,-0.544922 -3.40236,-0.655324 -2.52041,-2.203125 1.25586,-2.203125 1.87916,0 3.17769,-0.384645 2.88672,-0.855468 -0.2941,-0.475867 2.30777,-0.766763 5.85742,-0.654297 3.60409,0.114191 5.58737,-0.111878 4.55273,-0.517579 -1.76872,-0.693555 -1.76663,-0.725342 0.0859,-0.919921 1.056,-0.110921 3.59172,-0.09803 5.63477,0.02734 2.51168,0.15413 3.50179,-0.116882 3.05859,-0.833984 -0.77443,-1.253056 1.5084,-2.309382 3.9668,-1.835938 1.22241,0.235413 -0.73707,2.127348 -6.66407,6.433594 -4.61748,3.354822 -8.39648,6.319105 -8.39648,6.585938 0,0.266833 0.97216,-0.220304 2.16016,-1.082032 1.18799,-0.861728 3.16263,-1.996208 4.38671,-2.519531 1.22409,-0.523323 3.61812,-2.012218 5.32032,-3.310547 6.68685,-5.100314 13.60896,-7.437479 22.03711,-7.4375 8.30859,-2e-5 10.14188,0.544002 39.2832,11.636719 5.66903,2.157929 11.36824,3.923828 12.66406,3.923828 1.29581,0 2.57687,0.356783 2.84766,0.794922 0.49319,0.798012 1.3682,12.166507 2.04492,26.564453 0.50829,10.814639 0.52926,10.909679 1.53125,7.439453 0.98674,-3.41739 2.37701,-4.070074 3.06445,-1.439453 0.33545,1.283598 0.46373,1.177442 0.54883,-0.447265 0.0612,-1.169548 -0.49072,-3.977783 -1.22851,-6.240235 -0.73782,-2.262452 -1.85701,-8.43289 -2.48633,-13.71289 -1.18331,-9.928196 -2.77821,-14.763849 -6.09766,-18.480469 -1.43225,-1.603615 -1.57764,-2.157244 -0.5625,-2.152344 3.55721,0.01707 6.7324,8.638952 9.54102,25.912109 0.64389,3.960001 2.02128,9.36 3.0625,12 3.69196,9.361003 5.56386,14.37996 5.54297,14.867188 -0.0116,0.27146 -1.40858,-1.883109 -3.10352,-4.787109 -2.06757,-3.542433 -3.18814,-4.735597 -3.4043,-3.626953 -0.1772,0.90884 1.08883,3.701759 2.8125,6.207031 2.3813,3.461099 3.07284,5.403921 2.87891,8.089841 -0.14038,1.94417 0.23852,3.84004 0.8418,4.21289 0.73925,0.45687 0.447,1.13263 -0.89454,2.07227 -1.09477,0.76681 -1.99023,2.00793 -1.99023,2.75781 0,0.74989 -1.05911,2.05812 -2.35352,2.90625 -2.18313,1.43044 -2.52804,1.41379 -4.76953,-0.21875 -3.64517,-2.6549 -3.28732,-4.21351 0.50196,-2.18555 5.50669,2.94709 8.00889,-3.33312 4.15625,-10.43359 -1.34295,-2.47507 -2.15426,-3.636082 -1.80078,-2.58008 1.56332,4.67047 1.60192,5.3039 0.30078,4.97071 -0.72364,-0.18524 -0.99171,-0.15507 -0.59571,0.0664 1.0988,0.6145 0.85698,4.8439 -0.31836,5.57031 -1.18553,0.7327 -6.64062,-4.12101 -6.64062,-5.9082 0,-0.64921 -0.48598,-1.34102 -1.08008,-1.53906 -0.70174,-0.23391 -0.83927,-1.46318 -0.39062,-3.505861 0.85313,-3.884285 4.0235,-5.434605 6.55078,-3.203125 1.59347,1.406976 1.67127,1.381875 1.04101,-0.345703 -0.37446,-1.026394 -1.20315,-2.642048 -1.84179,-3.589843 -1.06042,-1.573743 -1.2138,-1.584164 -1.77149,-0.13086 -0.85253,2.221647 -3.19577,0.181048 -4.3457,-3.785156 -0.60277,-2.079014 -0.89508,-2.393506 -0.95508,-1.023438 -0.0476,1.087084 0.54706,2.814928 1.32227,3.839844 1.72266,2.277557 1.82973,3.302734 0.3457,3.302734 -0.61842,10e-7 -1.88874,0.692286 -2.82227,1.53711 -1.61264,1.459431 -1.53434,1.842246 1.5625,7.679688 1.79268,3.37917 2.88662,6.14453 2.43164,6.14453 -0.89929,0 -6.76757,-8.46821 -6.76757,-9.76562 0,-0.43748 -0.83845,-0.794926 -1.86329,-0.794926 -2.21643,0 -3.05339,-1.182869 -4.05078,-5.726563 -0.54297,-2.473631 -0.62099,-1.897811 -0.28711,2.126953 0.25185,3.036001 0.074,5.519536 -0.39453,5.519536 -0.86654,0 -2.582,-3.718694 -3.32226,-7.199223 -0.22462,-1.056 -0.26823,-0.408547 -0.0957,1.439453 0.17253,1.848001 0.60198,4.33153 0.95508,5.51953 0.96397,3.24326 -1.19498,2.65926 -2.98828,-0.80859 -0.84449,-1.633068 -1.76281,-2.741097 -2.04297,-2.46094 -0.28015,0.280157 0.15041,1.83231 0.95703,3.44922 1.23108,2.46774 1.24874,2.9414 0.11719,2.9414 -0.74141,1e-5 -2.41517,-2.05254 -3.7207,-4.56054 -1.30553,-2.507998 -2.39337,-3.896348 -2.41797,-3.083986 -0.0246,0.812362 0.76337,3.064846 1.75195,5.003906 0.98859,1.93906 1.56389,3.75839 1.2793,4.04297 -1.19378,1.19379 -2.90501,0.36918 -3.41016,-1.64258 -0.29831,-1.188 -1.23893,-3.02408 -2.08984,-4.08008 -1.50537,-1.868201 -1.53258,-1.851151 -1.00586,0.63086 0.29771,1.40294 0.80421,3.23902 1.12695,4.08008 0.42551,1.10886 0.0156,1.5293 -1.49219,1.5293 -1.14364,0 -1.81264,0.43098 -1.48632,0.95898 0.33382,0.54013 -0.43378,0.96094 -1.75586,0.96094 -1.92544,0 -2.46397,-0.60814 -2.98047,-3.36133 -0.34668,-1.848 -1.0113,-3.35937 -1.47852,-3.35937 -0.48371,0 -0.46551,1.34032 0.043,3.11328 1.17362,4.09219 1.13316,4.5664 -0.39258,4.5664 -1.473,0 -3.51562,-3.96277 -3.51562,-6.82226 0,-1.06232 -0.38681,-1.69246 -0.85938,-1.40039 -0.50383,0.31137 -0.4882,2.17462 0.0352,4.5039 0.49088,2.18478 0.63719,4.22804 0.32617,4.53907 -0.83854,0.83853 -2.35029,-1.94788 -2.36719,-4.36329 -0.008,-1.15684 -0.51267,-2.4111 -1.12109,-2.7871 -0.80571,-0.49796 -0.92673,0.43858 -0.44531,3.44921 0.58336,3.64817 0.48913,3.99042 -0.8125,2.91016 -0.81111,-0.67316 -1.47461,-2.03404 -1.47461,-3.02539 0,-0.99135 -0.40144,-1.80274 -0.89258,-1.80274 -0.54719,0 -0.55472,1.18371 -0.0176,3.05665 0.48186,1.68103 0.6964,3.23523 0.47657,3.45507 -0.78539,0.78539 -2.44654,-0.89427 -2.46094,-2.48828 -0.008,-0.89283 -0.47738,-2.27245 -1.04102,-3.06445 -0.77344,-1.08677 -0.9021,-0.55679 -0.52539,2.16016 0.66349,4.78526 -0.95282,4.61335 -2.25976,-0.24024 -1.33626,-4.9625 -2.34432,-4.9625 -1.55079,0 0.57345,3.58616 -0.54767,5.3783 -1.65234,2.64063 -0.26631,-0.66 -0.51885,-0.14126 -0.56055,1.15234 -0.0978,3.03575 -1.47395,1.69575 -3.42773,-3.33594 l -1.48242,-3.8164 0.47851,4.56054 0.47852,4.5586 h -3.3418 c -3.18956,0 -3.34179,-0.15484 -3.34179,-3.41602 0,-1.87916 -0.40325,-3.16812 -0.89649,-2.86328 -0.49323,0.30483 -0.65183,2.06012 -0.35351,3.89844 0.59643,3.67543 -0.19642,4.24226 -2.32227,1.66211 -1.26164,-1.53119 -1.33929,-1.53528 -0.875,-0.0488 0.61087,1.95578 -3.37865,3.68631 -4.02539,1.74609 -0.31213,-0.93637 -0.56658,-0.92348 -1.16992,0.0527 -1.19299,1.93028 -3.47788,-0.46424 -4.22071,-4.42383 -0.36637,-1.95295 -1.19,-3.32617 -1.99609,-3.32617 -1.07688,0 -1.17,0.53114 -0.43555,2.46289 1.83652,4.83041 1.29801,5.44073 -2.90429,3.29687 -2.112,-1.07746 -3.83985,-1.77726 -3.83985,-1.55469 0,0.75308 6.81971,4.4336 8.21485,4.4336 0.76181,0 1.38476,0.43294 1.38476,0.96094 0,0.528 -0.97215,0.96756 -2.16015,0.97656 -1.188,0.009 -5.39938,0.86443 -9.35938,1.90234 -3.96,1.0379 -7.63216,1.89435 -8.16016,1.90235 -0.528,0.007 -0.96093,-2.35765 -0.96093,-5.25391 0,-5.8889 0.49339,-6.04967 7.01758,-2.30664 1.74773,1.00269 2.90773,1.38412 2.57617,0.84766 -0.33154,-0.53645 -2.41097,-1.92821 -4.61914,-3.0918 -3.50189,-1.8453 -3.73628,-2.15913 -1.83985,-2.45508 1.19583,-0.18662 1.92605,-0.74022 1.62305,-1.23047 -0.93215,-1.50825 2.32784,-0.99089 6.9082,1.09571 2.39842,1.09262 4.55706,1.79254 4.79492,1.55468 0.23786,-0.23786 -1.53237,-1.23981 -3.93164,-2.22656 -4.52372,-1.86047 -6.25424,-3.90505 -1.90625,-2.25195 3.34654,1.27236 3.73897,1.18398 2.32032,-0.52539 -1.02568,-1.23587 -0.94568,-1.35914 0.51953,-0.79688 1.23582,0.47422 1.52125,0.3251 0.99804,-0.52148 -0.45666,-0.73889 -0.24422,-1.10684 0.5625,-0.97266 2.35252,0.39129 4.55502,-1.14428 4.02539,-2.80664 -0.41864,-1.313976 -0.33364,-1.35416 0.46876,-0.222656 0.8067,1.137556 1.23835,1.162066 2.47851,0.132812 1.84038,-1.527379 0.96942,-3.279577 -1.33203,-2.677734 -1.37948,0.360749 -1.68164,-0.203123 -1.68164,-3.146484 0,-1.972388 -0.8117,-4.961582 -1.80469,-6.642579 -1.78692,-3.025017 -1.78353,-3.095516 0.32422,-6.757812 1.89241,-3.288137 1.95574,-3.765533 0.57617,-4.294922 -0.85386,-0.327639 -1.61566,-0.478412 -1.69336,-0.333984 -2.04282,3.796812 -8.72287,11.302734 -10.05859,11.302734 -0.97425,0 -2.31143,0.652493 -2.97266,1.449219 -0.66122,0.796725 -2.88432,1.718247 -4.93945,2.046875 -4.09427,0.654702 -5.44432,1.754751 -3.20703,2.613281 0.78897,0.302755 1.43359,0.06592 1.43359,-0.527344 0,-0.612245 0.75939,-0.392027 1.75586,0.509766 0.96558,0.873834 2.52948,1.58789 3.47656,1.58789 1.45256,10e-7 1.52891,-0.234351 0.47852,-1.5 -1.09135,-1.314995 -0.9279,-1.42072 1.33203,-0.853515 2.04047,0.512082 2.46526,0.350523 2.0332,-0.775391 -0.30627,-0.798125 0.11057,-1.674271 0.94922,-1.996094 0.82235,-0.315563 1.49414,-0.155961 1.49414,0.355469 0,0.511428 1.18863,0.924116 2.64063,0.916016 1.9024,-0.01059 2.26631,-0.251912 1.30078,-0.863281 -0.75534,-0.47826 -1.07579,-1.538038 -0.73438,-2.427735 0.46868,-1.221338 1.01741,-1.356352 2.42774,-0.601562 2.26309,1.211167 3.57839,7.341451 1.98633,9.259765 -0.88803,1.070016 -0.8495,1.366593 0.18164,1.367188 1.81507,0.001 -9.83836,5.508028 -17.16211,8.109378 -3.30004,1.17216 -5.67534,2.48714 -5.2793,2.92382 0.39603,0.4367 0.23275,0.5168 -0.36133,0.17774 -1.38834,-0.79241 -10.11941,2.15395 -9.47461,3.19726 0.2677,0.43314 0.0671,0.93228 -0.44726,1.10938 -1.49439,0.51451 0.15593,2.10907 4.04297,3.90625 4.42762,2.04713 4.68305,1.3847 0.47851,-1.23828 l -3.11914,-1.94727 2.7832,0.66211 c 1.76839,0.41967 2.56696,0.31003 2.18946,-0.30078 -1.33919,-2.16684 4.14627,0.0944 6.69922,2.76172 2.6593,2.7784 2.67983,2.87824 0.80859,3.9668 -3.13642,1.82458 -11.9766,4.36573 -12.46094,3.58203 -0.24657,-0.39894 -0.55627,-2.18758 -0.6875,-3.97656 -0.13283,-1.8108 -1.10177,-4.0265 -2.18554,-4.9961 -1.37962,-1.2343 -1.59651,-1.88514 -0.7461,-2.23828 2.46216,-1.02245 1.08692,-2.18927 -1.91992,-1.62891 -1.716,0.3198 -3.55208,0.63232 -4.08008,0.69532 -0.528,0.063 -1.28368,0.54622 -1.67969,1.07422 -0.41491,0.5532 -0.97138,0.0455 -1.3125,-1.19922 -0.32556,-1.188 -0.91344,-2.16016 -1.30664,-2.16016 -0.39323,0 -0.54069,0.97216 -0.32812,2.16016 0.32777,1.83198 -0.41818,2.50496 -4.91211,4.42968 -6.34822,2.71891 -9.42859,2.23592 -11.4375,-1.79101 -1.30895,-2.62386 -1.29399,-2.88123 0.16992,-2.89453 1.38801,-0.0127 1.41024,-0.14124 0.16602,-0.94531 -1.10756,-0.71575 -0.77567,-0.93629 1.43945,-0.95899 2.21513,-0.0226 2.54898,-0.24518 1.44141,-0.96094 -1.0943,-0.70719 -0.69967,-0.93421 1.64843,-0.94531 2.34884,-0.0112 2.95913,-0.36043 2.53907,-1.45508 -0.36504,-0.95125 0.0509,-1.46136 1.22851,-1.50586 1.63859,-0.062 1.62806,-0.13228 -0.13672,-0.85547 -1.78398,-0.73107 -1.72784,-0.86132 0.78321,-1.85156 1.48637,-0.58615 4.42636,-1.0664 6.53515,-1.0664 2.51669,0 3.61287,-0.35788 3.18946,-1.04297 -0.4153,-0.67197 0.33405,-0.978773 2.10351,-0.859378 4.01781,0.271108 5.55266,0.06633 4.83789,-0.648438 -0.34741,-0.347424 -0.18984,-1.16602 0.35156,-1.818359 0.60333,-0.72695 -1.90821,-0.32787 -6.48828,1.03125 -11.27474,3.345755 -13.71289,4.366765 -13.71289,5.742185 0,0.74424 -0.71409,1.06879 -1.7539,0.79688 -2.15157,-0.56266 -10.09531,5.27458 -10.57617,7.77148 -0.78782,4.09079 5.19942,9.1875 10.79101,9.1875 1.86126,0 2.15674,0.39815 1.77734,2.38281 -0.52704,2.75703 2.08404,4.22072 9.36133,5.2461 6.15988,0.86794 11.84176,0.22721 20.64063,-2.32813 14.4968,-4.21011 36.71574,-8.23227 53.27929,-9.64258 3.90415,-0.33243 12.80579,-2.04953 19.68164,-3.79882 2.64,-0.67165 8.04001,-1.99735 12,-2.94532 3.96001,-0.94796 9.93985,-2.94617 13.28907,-4.43945 3.34922,-1.49328 6.42903,-2.71484 6.84375,-2.71484 0.41472,0 1.27302,1.25517 1.9082,2.78906 0.6352,1.53352 3.36764,4.98921 6.07227,7.67969 6.07661,6.04484 8.56006,6.31044 13.21679,1.41211 3.77416,-3.96997 12.48643,-9.94111 16.75,-11.48047 2.45727,-0.8872 2.91616,-1.59057 3.12891,-4.79883 l 0.24805,-3.759766 -3.35352,3.839844 c -4.28411,4.903352 -4.29272,3.857552 -0.0234,-2.816406 3.92122,-6.129838 4.64811,-9.912017 1.08789,-5.658203 -1.24915,1.492511 -3.40044,4.950914 -4.78125,7.685547 -1.3808,2.734634 -2.94651,5.241524 -3.47851,5.570314 -1.20721,0.74609 -0.29408,-1.77906 2.15234,-5.951174 0.99614,-1.698826 1.66816,-3.819305 1.49414,-4.71289 -0.18036,-0.926097 -1.54156,1.125173 -3.16601,4.769531 -3.00297,6.737033 -4.83167,8.542243 -3.32227,3.279293 1.31737,-4.594081 0.98238,-4.596891 -1.05664,-0.008 -1.65123,3.71631 -3.81055,5.48577 -3.81055,3.12109 0,-0.528 0.33683,-0.96093 0.74805,-0.96093 0.41121,0 1.77545,-3.66344 3.03125,-8.140628 2.16309,-7.711879 2.22179,-8.642292 1.12695,-17.675781 -0.63562,-5.244443 -2.3838,-14.217071 -3.88476,-19.939453 -1.50097,-5.722382 -2.99727,-11.699203 -3.32617,-13.283203 l -0.59961,-2.880859 2.49023,2.880859 2.49024,2.878906 -1.54297,-3.11914 c -2.46003,-4.974317 -0.27541,-3.609133 3.07226,1.919921 2.99171,4.941137 4.29781,8.159507 5.45313,13.439454 0.31771,1.452 0.9479,2.640625 1.40039,2.640625 1.70927,0 -1.70291,-11.879696 -4.58789,-15.972657 -1.62335,-2.303064 -2.55432,-4.1875 -2.06836,-4.1875 0.48596,0 1.15024,0.430985 1.47656,0.958985 0.32632,0.528 1.02669,0.960937 1.55469,0.960937 1.65145,0 -0.18207,-1.988883 -2.84766,-3.089844 -2.15632,-0.890619 -2.27401,-1.11607 -0.76562,-1.470703 1.10664,-0.260178 3.01689,0.776427 5.04101,2.738282 3.75223,3.636801 4.44916,2.6079 0.85742,-1.265625 -2.46995,-2.663734 -3.09417,-4.591797 -1.48632,-4.591797 0.50259,0 2.51861,1.619609 4.47851,3.599609 3.60084,3.637781 3.64832,2.54792 0.0625,-1.435547 -2.90894,-3.231523 -1.18067,-3.754988 2.67969,-0.810547 3.57526,2.726982 4.71966,2.070841 1.48828,-0.853515 -2.034,-1.840742 -1.6625,-3.846913 0.55469,-2.996094 0.87027,0.333953 1.34375,-0.15026 1.34375,-1.375 0,-1.180341 -0.32404,-1.767424 -1.3086,-1.759766 z m -309.17187,4.669922 c 1.72855,0 1.90345,8.674666 0.20898,10.369141 -1.37521,1.375209 -3.64843,1.523298 -3.64843,0.238281 0,-3.578751 2.279,-10.607422 3.43945,-10.607422 z m 285.36914,5.779297 c 0.31441,-0.05833 0.77312,0.01393 1.37305,0.244141 0.71752,0.275336 1.90067,2.983942 2.6289,6.019531 1.16724,4.865652 1.13179,6.456683 -0.30273,13.425781 -2.01149,9.772101 -2.0372,13.478027 -0.13867,20.804688 1.57144,6.064406 1.44329,9.296395 -0.24024,6.044922 -2.11397,-4.082831 -4.0932,-12.009655 -5.97461,-23.923829 -1.51283,-9.580152 -2.52719,-13.263568 -4.44922,-16.167968 -2.91174,-4.399925 -2.37279,-5.628642 1.4961,-3.408203 2.19422,1.259293 2.64983,1.305314 2.23437,0.222656 -0.76394,-1.990808 1.03619,-1.661036 3.04492,0.558594 0.95568,1.056 2.17664,1.919921 2.71485,1.919921 0.5382,10e-7 -0.0334,-1.076613 -1.27149,-2.394531 -1.70606,-1.816023 -2.05846,-3.170727 -1.11523,-3.345703 z m -102.64844,2.980469 c -0.3335,-0.01374 -0.71404,0.04689 -1.06054,0.185547 -0.76582,0.306457 -0.53829,0.534018 0.58007,0.580078 1.01199,0.04168 1.57876,-0.186859 1.25977,-0.50586 -0.1595,-0.1595 -0.44579,-0.246028 -0.7793,-0.259765 z m 32.28321,7.896484 c -0.31628,-0.07012 -1.05362,0.812667 -2.00782,2.695313 -0.89461,1.765066 -2.28945,3.964672 -3.09961,4.888672 -1.82416,2.080476 -4.48122,2.252629 -3.70898,0.240234 0.30391,-0.792 0.1628,-1.439453 -0.31445,-1.439453 -0.47725,0 -1.41574,1.511375 -2.08399,3.359375 -1.33339,3.687437 -2.38349,4.270621 -3.02344,1.679687 -0.29434,-1.191637 -0.94275,-0.496424 -2.23046,2.390625 -2.02568,4.541614 -3.2281,5.344996 -2.5293,1.689454 0.25234,-1.320001 0.0213,-2.400391 -0.51172,-2.400391 -1.30796,0 -2.20342,2.543197 -1.52148,4.320312 0.30392,0.792 0.0714,1.439453 -0.51758,1.439453 -0.75469,10e-7 -0.72714,0.553516 0.0957,1.871094 1.11973,1.792965 1.27883,1.746651 3.84961,-1.132812 1.47433,-1.651347 2.67969,-3.2937 2.67969,-3.648438 0,-0.795756 12.01568,-6.265253 15.50586,-7.058594 3.67803,-0.836041 11.72824,0.400656 10.51367,1.615235 -1.39381,1.393802 0.50453,4.513672 2.74609,4.513672 0.99971,0 2.51624,-0.697877 3.3711,-1.552735 0.85486,-0.854857 1.81284,-1.298471 2.12695,-0.984375 0.82081,0.820812 -1.61452,3.498047 -3.18164,3.498047 -0.72735,0 -1.32227,0.66208 -1.32227,1.472656 0,1.170703 0.39045,1.266043 1.89844,0.458985 1.45313,-0.777663 1.7891,-0.730434 1.43359,0.205078 -0.78599,2.068189 7.77179,6.701791 13.78125,7.460937 2.99571,0.37843 6.09472,0.563901 6.88672,0.414063 0.792,-0.149838 3.2295,-0.549405 5.41602,-0.888672 6.17763,-0.958546 12.83596,-7.542929 12.81836,-12.675781 -0.005,-1.326022 -0.29882,-1.17017 -1.26758,0.671875 -3.13397,5.959128 -3.70896,6.857448 -4.12305,6.443359 -0.24267,-0.242676 0.47568,-2.115565 1.59571,-4.162109 1.56165,-2.853466 1.62698,-3.200903 0.27929,-1.492188 -5.00001,6.339445 -7.07131,8.49569 -8.19726,8.53711 -0.68257,0.02511 -2.10416,0.399948 -3.16016,0.832031 -1.59435,0.652358 -1.46783,0.244233 0.75391,-2.402344 2.53293,-3.017278 5.86969,-9.610772 5.20117,-10.279297 -0.17037,-0.170353 -1.58023,1.905925 -3.13281,4.613282 -3.62252,6.31688 -6.88758,8.812303 -10.38086,7.935547 -2.52548,-0.633856 -2.55129,-0.703752 -0.72852,-1.980469 1.03901,-0.727759 2.85487,-2.943434 4.03516,-4.923828 1.1803,-1.980393 2.66464,-4.034426 3.29883,-4.564453 0.63417,-0.530028 1.43373,-2.041402 1.77734,-3.359376 0.61302,-2.351282 0.60454,-2.355737 -0.48633,-0.236328 -1.37713,2.675561 -3.08857,2.857733 -2.25781,0.240235 0.33517,-1.056 0.19383,-1.919922 -0.3125,-1.919922 -0.50634,0 -1.18,1.035534 -1.49805,2.302734 -0.47272,1.883507 -1.19206,2.304688 -3.9414,2.304688 -1.84972,0 -3.12376,-0.388081 -2.83008,-0.863281 0.29369,-0.475201 0.12647,-0.865235 -0.3711,-0.865235 -1.26823,0 -2.09561,3.677113 -0.91601,4.070313 0.53207,0.177357 -0.19989,1.71029 -1.62695,3.40625 -3.70877,4.407637 -2.24041,3.808513 2.4414,-0.996094 l 3.97656,-4.080078 -2.11914,3.839844 -2.11914,3.839843 3.47071,-3.599609 c 3.96811,-4.115951 4.95386,-4.537501 3.36328,-1.439453 -3.04324,5.927491 -9.44013,10.077452 -11.83789,7.679687 -0.396,-0.396 -1.00933,-0.722762 -1.36133,-0.726562 -1.05064,-0.01151 -5.46743,-3.353171 -4.45313,-3.369141 0.51349,-0.0081 0.28614,-0.425201 -0.50586,-0.927734 -1.22526,-0.777438 -1.09797,-1.240696 0.85352,-3.105469 2.1102,-2.016444 2.23986,-2.038032 1.62305,-0.271484 -0.51436,1.473132 -0.40707,1.658071 0.46289,0.794922 0.62361,-0.618734 1.68513,-0.913032 2.35937,-0.654297 0.67426,0.258735 1.49799,0.03146 1.83008,-0.50586 0.34505,-0.558302 -0.84778,-1.250195 -2.7832,-1.613281 -1.86267,-0.34944 -3.38672,-1.064115 -3.38672,-1.589844 0,-0.52573 -0.59988,-0.727005 -1.33399,-0.445312 -0.73409,0.281695 -2.24546,-0.337227 -3.35937,-1.375 -1.11392,-1.037772 -2.02539,-1.449966 -2.02539,-0.917969 0,0.531998 -0.64941,0.717982 -1.44141,0.414063 -0.792,-0.30392 -1.44923,-1.477866 -1.46094,-2.609376 l -0.0215,-2.058593 -1.6582,2.095703 c -1.23923,1.565286 -2.32639,1.962104 -4.29883,1.568359 -2.99881,-0.598635 -3.01477,-0.635681 -1.59375,-3.486328 0.68613,-1.376433 0.21943,-1.107277 -1.35547,0.783203 -2.78512,3.343238 -4.0296,2.8773 -2.57031,-0.960937 0.73431,-1.931392 0.83971,-2.953321 0.52344,-3.023438 z m -148.78907,0.625 c 2.29477,0 2.43606,0.266667 2.16016,4.080078 -0.24541,3.391703 -0.65948,4.131701 -2.45508,4.386719 -1.96963,0.279731 -2.16015,-0.07994 -2.16015,-4.080078 0,-4.06552 0.17966,-4.386719 2.45507,-4.386719 z m 165.36133,0 c -0.12925,0 -0.36178,0.318985 -0.77539,0.958985 -0.51183,0.792 -0.93164,2.088858 -0.93164,2.880859 0,1.279999 0.10444,1.279999 0.93164,0 0.51184,-0.792001 0.92969,-2.088859 0.92969,-2.880859 0,-0.64 -0.0251,-0.958985 -0.1543,-0.958985 z m 2.87305,1.021485 c -0.13449,-0.02609 -0.36854,0.277948 -0.76953,0.898437 -0.51183,0.792 -0.93732,1.789636 -0.94532,2.216797 -0.008,0.427161 0.41732,0.507963 0.94532,0.181641 0.528,-0.326323 0.95331,-1.322004 0.94531,-2.214844 -0.006,-0.699492 -0.0413,-1.055946 -0.17578,-1.082031 z m 3.57226,0.164062 c -0.11257,-0.105291 -0.44167,0.313402 -1.07226,1.175781 -0.74209,1.014875 -1.34961,2.435958 -1.34961,3.158203 0,2.218707 1.66098,0.427986 2.19531,-2.367187 0.2355,-1.231918 0.33914,-1.861506 0.22656,-1.966797 z m 1.96289,2.195313 c -0.2394,-0.120085 -0.54813,0.368209 -0.80273,1.341797 -0.41757,1.596811 -0.29246,1.97215 0.41992,1.259765 0.55784,-0.557858 0.82657,-1.582808 0.59571,-2.275391 -0.0599,-0.179747 -0.13309,-0.286143 -0.2129,-0.326171 z m -222.65625,2.513671 c -1.5806,0.04695 -2.84365,0.174558 -3.39843,0.402344 -1.30235,0.534729 -1.24349,0.735037 0.38867,1.341797 2.6353,0.97968 15.36133,0.537708 15.36133,-0.533203 0,-0.768849 -7.60976,-1.351792 -12.35157,-1.210938 z m 243.61329,1.291016 c -0.10916,-0.08114 -0.3982,0.109771 -0.86133,0.494141 -0.79211,0.657392 -1.43946,1.756453 -1.43946,2.443359 0,0.686907 -1.50901,3.226135 -3.35351,5.642578 -1.84452,2.416443 -2.94685,4.394532 -2.44922,4.394532 1.31538,-10e-7 5.36877,-5.647581 7.14844,-9.958985 0.82249,-1.992562 1.13699,-2.880386 0.95508,-3.015625 z m 31,0.01367 1.52343,6.720703 c 2.33762,10.30895 3.03265,21.617338 1.67578,27.273438 -1.32221,5.511578 -2.90014,6.471999 -2.90039,1.765625 -10e-5,-1.716 -0.64755,-6.506085 -1.43945,-10.644532 -1.74662,-9.127666 -1.79015,-18.34487 -0.10547,-22.234375 z m -157.56641,0.0039 c -1.71186,-0.137648 -2.63408,0.369564 -2.0332,1.341797 0.24937,0.403482 1.87793,0.52026 3.61718,0.257813 L 258.7207,61.125 255.92188,60.363281 c -0.7194,-0.195916 -1.37665,-0.313492 -1.94727,-0.359375 z m 131.95898,1.435547 c -0.53508,0 -0.97265,0.574828 -0.97265,1.277344 0,0.702515 -1.0787,3.402516 -2.39649,6 -1.31779,2.597485 -2.39176,4.939125 -2.38476,5.203125 0.0244,0.96184 3.78242,-5.435146 5.23437,-8.910156 0.86506,-2.070386 1.0837,-3.570313 0.51953,-3.570313 z m -139.95703,1.919922 c 1.96147,0 4.58399,5.151935 4.58399,9.005859 0,2.517138 -0.5749,3.78941 -2.16016,4.779297 -1.188,0.741827 -4.02129,1.625568 -6.29492,1.962891 -3.70295,0.549379 -4.42748,0.318619 -6.95899,-2.212891 C 232.31122,74.059266 231.51333,72 233.25,72 c 0.51142,0 0.69322,-0.616216 0.4043,-1.369141 -0.36514,-0.951533 0.30199,-1.463486 2.18945,-1.679687 1.49349,-0.171075 2.57163,-0.695094 2.39453,-1.164063 -0.48208,-1.276606 1.89319,-2.475587 4.9375,-2.492187 1.5504,-0.0085 2.44464,-0.422673 2.10352,-0.97461 -0.32632,-0.527999 -0.0121,-0.960937 0.69726,-0.960937 z m 105.10156,0.34375 c 0.174,0.06646 0.28126,0.239906 0.28126,0.503906 0,0.528 -0.43099,1.226413 -0.95899,1.552735 -0.528,0.326322 -0.96094,0.160812 -0.96094,-0.367188 0,-0.528 0.43294,-1.226412 0.96094,-1.552734 0.264,-0.163161 0.50374,-0.203181 0.67773,-0.136719 z m -62.21679,4.208984 c -0.73889,-0.02151 -1.89704,0.390499 -3.57422,1.232422 -1.93998,0.97385 -7.1995,3.112195 -11.6875,4.751953 -4.488,1.639759 -9.02408,3.366323 -10.08008,3.835938 -1.056,0.469615 -3.64776,1.371739 -5.75976,2.005859 -2.112,0.634121 -4.27083,1.409313 -4.79883,1.720703 -0.528,0.311392 -1.7102,0.683316 -2.62696,0.826172 -2.9275,0.456188 -19.43466,8.690148 -21.08007,10.515625 -0.87186,0.967282 -1.87573,2.928004 -2.23243,4.357422 -0.51651,2.069751 -0.12537,3.085247 1.92383,4.984377 1.41522,1.31158 3.50995,2.57647 4.6543,2.81054 3.93301,0.80447 9.77327,-0.48714 17.43945,-3.85742 4.224,-1.856993 9.9908,-4.272957 12.81446,-5.367184 3.0616,-1.186439 5.45926,-2.791934 5.93945,-3.978516 0.71836,-1.775071 0.81103,-1.797405 0.86523,-0.207031 0.0443,1.2965 0.52039,1.605489 1.74219,1.132812 5.73934,-2.220365 10.77626,-0.815519 5.57422,1.554688 -3.53026,1.608492 -3.14475,3.705417 0.66601,3.623047 2.44282,-0.05283 2.71706,-0.225777 1.26368,-0.794922 -1.27609,-0.499719 -1.50183,-0.946929 -0.72071,-1.429688 0.62495,-0.386323 1.64204,-0.389589 2.25977,-0.0078 0.74608,0.461109 0.9246,0.178188 0.5332,-0.841797 -0.32407,-0.844503 -0.10355,-1.697257 0.48828,-1.894531 0.6845,-0.228171 0.76214,-0.862184 0.21485,-1.742188 -0.9829,-1.580379 -0.6666,-5.39041 0.65234,-7.863281 0.49284,-0.924 0.52181,-1.679688 0.0645,-1.679688 -1.29282,0 -3.39279,4.510804 -2.80859,6.033203 0.36571,0.953031 -0.24606,1.39596 -2.0332,1.47461 -6.72008,0.295758 -10.08204,1.102597 -11.99219,2.876953 -2.1742,2.019639 -12.47507,6.896484 -14.56836,6.896484 -0.76486,0 -1.22722,-1.443885 -1.26172,-3.939453 -0.0319,-2.309121 -0.73738,-4.694585 -1.70312,-5.761718 -1.56271,-1.726787 -1.55294,-1.82066 0.18164,-1.84961 2.13321,-0.03561 5.18945,-2.13912 5.18945,-3.572266 0,-0.545301 0.68239,-1.253728 1.51758,-1.574218 2.26313,-0.868441 3.47211,-0.706126 2.80273,0.376953 -0.32632,0.528 0.0665,0.958984 0.87305,0.958984 0.82134,0 1.25125,-0.556858 0.97852,-1.267578 -0.49247,-1.283359 4.16696,-4.071313 5.15429,-3.083984 0.28562,0.28562 1.53011,-0.143576 2.76563,-0.953125 1.69881,-1.113097 2.71364,-1.222323 4.1582,-0.449219 1.52138,0.814217 1.91016,0.722606 1.91016,-0.451172 0,-1.349082 2.80052,-2.019928 6.46484,-1.548828 0.69469,0.0893 0.94987,-0.459218 0.61719,-1.326172 -0.50981,-1.328536 0.55047,-1.942278 2.75781,-1.59375 0.396,0.06253 0.71875,-0.534172 0.71875,-1.326172 0,-0.896 0.90706,-1.439453 2.40039,-1.439453 1.32,0 2.40039,-0.360781 2.40039,-0.800781 0,-0.890745 -0.3197,-1.345679 -1.05859,-1.367188 z m 4.93555,2.167969 c -0.42134,0 -2.35773,1.944313 -4.30469,4.320313 -4.26653,5.20675 -3.47059,5.816839 0.9375,0.71875 l 3.11328,-3.59961 1.99609,2.400391 c 2.17546,2.61441 2.55229,3.839844 1.17969,3.839844 -0.48493,0 -1.84777,1.562124 -3.02734,3.470703 -1.17956,1.908578 -3.58992,4.073992 -5.35743,4.8125 -1.76749,0.738507 -3.21484,1.599908 -3.21484,1.914062 0,1.584379 5.62421,-1.04803 8.00781,-3.748047 5.68516,-6.439849 5.86072,-6.971828 3.5293,-10.74414 -1.1507,-1.861872 -2.43804,-3.384766 -2.85937,-3.384766 z m -166.89063,5.009766 c -2.1367,-0.03485 -2.93497,0.247419 -3.48828,0.832031 -1.33467,1.410172 -2.01459,9.648182 -3.05664,36.970705 l -0.55274,14.49219 7.53516,5.26367 c 14.70885,10.27129 14.38226,10.15446 31.05664,11.14258 20.06946,1.18931 33.38357,1.33643 33.97656,0.37695 0.26922,-0.43562 0.99014,-8.31915 1.60352,-17.51953 l 1.11523,-16.72852 -6.54101,-11.039061 c -3.59744,-6.072 -7.96211,-13.030616 -9.69922,-15.46289 -3.03198,-4.245308 -3.39521,-4.448055 -9.06836,-5.041016 -3.25033,-0.339726 -8.54503,-0.614028 -11.76758,-0.611328 -3.22254,0.0027 -12.03728,-0.716438 -19.58789,-1.597656 -5.91291,-0.690086 -9.38869,-1.043273 -11.52539,-1.078125 z m 143.88281,3.640625 c -0.15175,0.01118 -0.0181,0.430161 0.27539,1.267578 0.33896,0.967185 0.61524,2.241616 0.61524,2.832031 0,0.744166 0.35485,0.719363 1.1582,-0.08398 0.90514,-0.905142 0.77128,-1.525198 -0.61523,-2.832032 -0.84534,-0.796762 -1.28185,-1.194772 -1.4336,-1.183593 z m -140.17383,0.626953 c 5.62141,0.166148 18.34777,0.906815 34.50391,2.02539 l 10.08008,0.697266 5.76172,8.837891 C 188.45226,102.41311 192,108.13618 192,108.7207 c 0,0.54267 -8.06155,0.48551 -31.46875,-0.2207 l -16.58789,-0.5 -2.21289,-3.83984 c -1.21705,-2.112 -5.06752,-8.474074 -8.55469,-14.138676 -3.48717,-5.664601 -6.04175,-10.448503 -5.67773,-10.630859 0.1583,-0.0793 1.24338,-0.08859 3.11718,-0.0332 z m -5.77343,1.761719 1.72461,2.242187 c 0.9483,1.23277 2.53971,3.824536 3.53711,5.759766 0.99738,1.935232 3.16998,5.678359 4.82617,8.318359 9.09232,14.493357 8.61978,12.900307 8.32422,28.080077 -0.20536,10.54723 -0.55551,13.67969 -1.53125,13.67969 -1.1901,0 -16.09715,-10.28103 -18.51758,-12.77149 -0.80989,-0.83331 -0.88818,-3.64456 -0.28516,-10.26757 0.87904,-9.65439 1.71197,-23.531618 1.84375,-30.720707 z m 13.35156,3.361328 c -2.02074,0 -3.22359,1.471103 -2.35352,2.878906 0.64847,1.04924 3.65715,1.303789 4.57422,0.386719 1.05908,-1.059078 -0.44181,-3.265625 -2.2207,-3.265625 z m 119.00781,0.117187 c -0.3335,-0.01374 -0.71405,0.04884 -1.06055,0.1875 -0.76581,0.306458 -0.53827,0.532065 0.58008,0.578125 1.01199,0.04168 1.57877,-0.184905 1.25977,-0.503906 -0.1595,-0.1595 -0.4458,-0.247982 -0.7793,-0.261719 z m 15.33594,0.103516 c -0.14177,-0.124875 -0.47354,0.144281 -0.85742,0.738281 -0.51183,0.792 -0.92969,1.872391 -0.92969,2.400391 0,0.528 0.41786,0.311531 0.92969,-0.480469 0.51184,-0.792 0.93164,-1.870437 0.93164,-2.398437 0,-0.132001 -0.027,-0.218141 -0.0742,-0.259766 z m 117.48828,2.878906 c -0.11813,-0.04476 -0.14309,0.561728 -0.18359,1.779297 -0.0454,1.364 0.20659,2.769094 0.55859,3.121094 1.11467,1.114671 1.24372,0.152249 0.37109,-2.769531 -0.41523,-1.390261 -0.62796,-2.086097 -0.74609,-2.13086 z m -146.18555,0.767578 c 1.94133,-0.11693 4.71125,3.080117 4.9336,6.757813 0.21245,3.514154 -0.41403,5.093931 -2.53321,6.380861 -2.74285,1.6657 -10.85461,0.84265 -13.01757,-1.32031 -1.28517,-1.285175 0.0797,-5.117204 1.84961,-5.193364 1.33644,-0.05751 1.31479,-0.167064 -0.14063,-0.742187 -1.3,-0.513702 -0.6862,-0.975966 2.57031,-1.9375 2.35271,-0.694675 4.51291,-1.874056 4.79883,-2.619141 0.33781,-0.880319 0.89196,-1.287195 1.53906,-1.326172 z m 143.13086,1.41211 -0.0449,3.408203 c -0.0252,1.8744 0.46505,3.920125 1.08984,4.544922 1.84364,1.843632 1.97455,0.664636 0.41797,-3.779297 z m -228.51367,1.439453 c -3.60403,0 -4.54702,1.530548 -2.40234,3.90039 2.0232,2.235626 1.8486,2.219761 3.71679,0.351563 2.42246,-2.422453 1.85716,-4.251953 -1.31445,-4.251953 z m -29.11523,2.992187 c -0.85979,-0.07508 -1.66211,0.643226 -1.66211,2.21875 0,1.858061 0.49202,2.470703 1.98633,2.470703 1.50898,0 1.91464,-0.517295 1.68164,-2.15039 -0.22762,-1.595401 -1.14608,-2.463982 -2.00586,-2.539063 z m 154.3164,0.02344 c -0.45225,0.148391 -0.43932,0.971294 -0.0586,2.863281 0.35886,1.783268 0.89323,4.641745 1.18945,6.353515 0.29642,1.71301 0.96789,2.84748 1.49219,2.52344 0.52392,-0.3238 0.70439,-1.8316 0.40039,-3.35156 -0.30397,-1.51997 -0.45432,-2.763676 -0.33203,-2.763676 0.12228,0 1.68258,0.417986 3.4668,0.929686 4.03242,1.15648 3.059,-0.0165 -1.14258,-1.376952 -2.03958,-0.660412 -3.07513,-1.615124 -3.07813,-2.835937 -0.002,-1.011794 -0.5986,-2.038729 -1.32617,-2.28125 -0.2573,-0.08577 -0.46058,-0.110011 -0.61133,-0.06055 z m 3.57813,1.55664 c -0.55215,0.0751 -0.36603,0.494827 0.79101,1.226563 0.77671,0.491203 2.4925,0.875215 3.8125,0.853515 2.0794,-0.03421 1.95218,-0.200692 -0.95898,-1.242187 -1.80064,-0.644196 -3.09238,-0.912992 -3.64453,-0.837891 z m 112.58203,1.189454 c -0.71087,0 -3.33789,3.075872 -3.33789,3.908202 0,1.71683 1.44931,0.85305 2.54883,-1.517578 0.61033,-1.315881 0.96567,-2.390624 0.78906,-2.390624 z m -6.16211,0.958984 c 0.55916,0 0.75015,0.432937 0.42383,0.960937 -0.32632,0.528 -0.78474,0.958985 -1.01758,0.958985 -0.23284,0 -0.42188,-0.430985 -0.42188,-0.958985 10e-6,-0.528 0.45647,-0.960937 1.01563,-0.960937 z m -117.25586,2.039062 c -0.3335,-0.01373 -0.71405,0.04689 -1.06055,0.185546 -0.76582,0.30645 -0.53828,0.53398 0.58008,0.58008 1.01199,0.0417 1.57877,-0.1849 1.25977,-0.50391 -0.1595,-0.15946 -0.4458,-0.247991 -0.7793,-0.261716 z m -97.17773,0.193356 c -0.95784,0.10645 -1.62305,1.21483 -1.62305,3.10352 0,1.71541 0.52361,2.34375 1.95117,2.34375 2.55482,0 3.50817,-2.63244 1.63281,-4.50781 -0.70646,-0.70646 -1.38623,-1.00332 -1.96093,-0.93946 z m 183.41015,0.66797 c -0.49288,0.16062 -0.56878,1.33503 0.20313,2.77735 0.58936,1.10123 1.27216,2.00195 1.51758,2.00195 0.75576,0 0.46524,-2.32328 -0.47657,-3.8125 -0.50323,-0.79572 -0.94841,-1.06317 -1.24414,-0.9668 z m 38.93946,0.1211 c -0.82849,-0.0644 -2.17434,1.7375 -2.19727,3.18359 -0.008,0.50914 0.71484,0.1953 1.60742,-0.69727 0.8925,-0.89258 1.30149,-1.9446 0.9082,-2.33789 -0.0918,-0.0918 -0.2,-0.13924 -0.31835,-0.14843 z m -131.14844,0.91406 c -1.958,0.0891 -1.9373,0.14973 0.29687,0.86523 1.32,0.42274 2.53216,0.81068 2.69532,0.86328 0.16316,0.0526 0.0294,-0.33528 -0.29688,-0.86328 -0.32632,-0.528 -1.53847,-0.91783 -2.69531,-0.86523 z m -8.5586,0.86523 c -0.53102,0 -0.64322,0.74137 -0.2539,1.67969 0.38338,0.924 0.71709,2.23451 0.74219,2.91211 0.0251,0.67761 0.39174,0.8856 0.81445,0.46289 0.99079,-0.9908 -0.0565,-5.05469 -1.30274,-5.05469 z m 2.82813,0.0488 c -0.45886,0 -0.58834,0.30267 -0.21289,0.91016 0.32633,0.528 1.32396,0.95331 2.2168,0.94531 1.39898,-0.0127 1.42458,-0.14332 0.18359,-0.94531 -0.94002,-0.60749 -1.72864,-0.91016 -2.1875,-0.91016 z m 65.67969,4.75 c -0.45479,0 -0.61952,1.08039 -0.36719,2.40039 0.25234,1.32 0.62371,2.40039 0.82617,2.40039 0.20244,0 0.36719,-1.08039 0.36719,-2.40039 0,-1.32 -0.37139,-2.40039 -0.82617,-2.40039 z m -192.19727,0.96094 c -1.29709,0 -2.18684,2.55079 -1.50781,4.32031 0.62542,1.62982 1.4722,1.77683 3.35156,0.58594 1.0133,-0.64211 1.05754,-1.27242 0.20508,-2.86524 -0.60108,-1.12314 -1.52284,-2.04101 -2.04883,-2.04101 z m 150.56641,1.91992 c 1.90166,0 3.89452,2.81896 3.38086,4.7832 -0.61205,2.34046 -0.66539,2.34838 -2.32422,0.34961 -0.72444,-0.87289 -2.61502,-2.15136 -4.19922,-2.84179 -2.23166,-0.9726 -2.44161,-1.26387 -0.93359,-1.29297 1.07053,-0.0207 3.01484,0.68867 4.32031,1.57617 l 2.37305,1.61328 -1.82813,-2.09375 c -1.00583,-1.1515 -1.36117,-2.09375 -0.78906,-2.09375 z m -142.94336,0.48047 14.70117,0.3125 c 30.0454,0.63951 32.00321,0.80866 31.76367,2.74414 -0.11863,0.95858 -0.74985,7.68336 -1.40429,14.94336 l -1.19141,13.19922 -4.35352,-0.14063 c -9.18992,-0.29547 -32.36981,-1.7439 -36.03515,-2.25195 l -3.83985,-0.53125 0.17969,-14.13867 z m -14.2793,1.43945 c -2.5018,0 -3.17079,1.47882 -1.7207,3.80078 0.67289,1.07749 1.44671,1.95899 1.7207,1.95899 0.99463,0 2.93125,-3.94298 2.37695,-4.83985 -0.31304,-0.50651 -1.38328,-0.91992 -2.37695,-0.91992 z m 139.78125,2.9375 c 0.44254,0.076 1.02416,0.25061 1.74024,0.52539 0.83519,0.32048 1.51953,1.18441 1.51953,1.91992 0,1.89002 -1.33246,1.65788 -3.36133,-0.58398 -1.3021,-1.43881 -1.22605,-2.08941 0.10156,-1.86133 z m -4.48242,1.04883 c 0.75211,0.13426 2.10991,0.87054 4.53711,2.29297 3.14356,1.84225 4.16406,3.02619 4.16406,4.83008 0,1.31432 -0.53922,2.55691 -1.19922,2.75976 -2.6162,0.80406 -12.85971,1.22091 -15.12109,0.61524 -1.54072,-0.41265 -2.5163,-1.45031 -2.72461,-2.89844 -0.25052,-1.74167 0.0241,-2.11557 1.20117,-1.64063 0.83847,0.33833 2.24249,0.90409 3.1211,1.25782 1.0806,0.43504 1.37384,0.27926 0.90429,-0.48047 -0.42074,-0.68077 -0.0821,-1.12305 0.85938,-1.12305 0.85433,0 1.31361,-0.38669 1.02148,-0.85937 -0.29212,-0.47266 0.11534,-1.10741 0.9043,-1.41016 0.78897,-0.30276 1.43359,-1.21095 1.43359,-2.01953 0,-0.98915 0.14632,-1.45848 0.89844,-1.32422 z m 1.04492,1.92969 c -0.0415,0.0915 0.41503,0.60261 1.32617,1.62695 1.95656,2.19963 2.49024,2.48562 2.49024,1.32813 0,-0.40099 -0.97216,-1.32684 -2.16016,-2.05664 -1.07616,-0.6611 -1.6147,-0.9899 -1.65625,-0.89844 z m -140.82422,1.30859 c -0.6164,-0.0953 -1.23334,0.0188 -1.74023,0.43946 -1.95193,1.61995 -1.8467,3.61403 0.2207,4.15429 0.924,0.24147 1.95185,0.48948 2.2832,0.55078 0.33135,0.0612 1.085,-0.47173 1.67579,-1.18359 1.24209,-1.49663 -0.59025,-3.67509 -2.43946,-3.96094 z m 39.85742,3.54492 c -0.3914,0.007 -0.79808,0.0595 -1.21484,0.16407 -2.35647,0.59144 -3.37431,3.2136 -1.8418,4.74609 1.17219,1.17219 4.86948,0.66046 6.1211,-0.84766 1.60208,-1.93038 -0.32465,-4.10892 -3.06446,-4.0625 z m -29.71484,5.55078 c -1.55214,0 -2.10658,2.81983 -0.85156,4.33204 1.51054,1.82013 4.78906,1.85894 4.78906,0.0566 0,-1.55334 -2.5434,-4.38868 -3.9375,-4.38868 z m -63.820312,10.86133 c -0.345746,0.0858 -0.642994,0.27307 -0.808594,0.54102 -0.3312,0.53589 -0.812106,9.53023 -1.068359,19.98633 -0.256253,10.45611 -0.658877,20.30662 -0.894531,21.89062 -0.372566,2.50428 0.159978,3.34519 4.089844,6.44922 2.485699,1.96333 5.910391,4.77156 7.609374,6.24024 1.698984,1.46865 5.412863,4.54003 8.251954,6.82421 l 5.160156,4.15235 15.269528,0.48828 c 8.39793,0.26816 15.34004,0.55888 15.42774,0.64648 0.0876,0.0877 3.26478,0.1139 7.05859,0.0586 4.76729,-0.0695 7.15991,-0.51371 7.74609,-1.43946 1.47404,-2.3277 0.9594,-3.00863 -1.75976,-2.32617 -1.4506,0.36405 -11.60315,0.35168 -22.56055,-0.0273 l -19.921872,-0.68945 v -3.55079 c -10e-7,-1.95382 0.644713,-7.83631 1.433593,-13.07031 0.788889,-5.23399 1.436553,-10.06633 1.439453,-10.74023 0.0045,-0.97074 3.845196,-1.10816 18.486326,-0.66016 10.164,0.31101 19.34439,0.7348 20.40039,0.94141 1.79254,0.35072 1.89884,1.01559 1.61524,10.01953 -0.17019,5.40323 0.0828,9.64453 0.57422,9.64453 0.4824,0 1.15313,-4.84965 1.49218,-10.77539 l 0.61719,-10.77344 -3.66992,-3.86523 c -2.01842,-2.12626 -6.92735,-7.75386 -10.9082,-12.50586 -3.98085,-4.752 -8.04795,-9.35841 -9.03907,-10.23633 -1.86129,-1.64873 -13.37084,-3.58669 -33.279293,-5.60352 -5.696632,-0.57711 -10.946103,-1.27528 -11.664063,-1.55078 -0.35898,-0.13775 -0.75191,-0.15416 -1.097656,-0.0684 z m 6.515625,3.72461 c 3.988071,-0.0627 12.852718,0.64782 19.962891,1.7168 3.432006,0.516 8.259176,0.94633 10.726566,0.95703 5.21748,0.0225 5.68154,0.4131 19.74609,16.58008 l 8.97852,10.32031 -9.40625,-0.20703 c -31.907665,-0.70033 -31.554529,-0.67007 -33.623051,-2.94336 -1.066347,-1.17191 -4.000115,-5.15361 -6.519531,-8.84961 -2.519417,-3.696 -6.246094,-8.9206 -8.28125,-11.60937 -2.035159,-2.68878 -3.701172,-5.22173 -3.701172,-5.62891 0,-0.2081 0.78783,-0.31503 2.117187,-0.33594 z m -3.712891,2.05078 c 0.42848,-0.42847 7.076032,8.55102 10.78125,14.5625 0.97631,1.584 3.705936,5.38047 6.064454,8.43555 l 4.287109,5.55469 -1.197266,11.72461 c -0.658808,6.44892 -1.489577,12.01462 -1.847656,12.36719 -0.358079,0.35257 -2.019202,-0.51135 -3.689453,-1.91993 -1.670251,-1.40857 -6.315533,-4.50681 -10.324219,-6.88281 -6.414888,-3.80219 -7.225645,-4.59085 -6.757812,-6.58984 0.29235,-1.24917 0.916111,-10.04218 1.384765,-19.53907 0.468653,-9.4969 1.05311,-17.46716 1.298828,-17.71289 z m 13.115235,0.64258 c -0.262584,0 -0.52518,0.32094 -0.945313,0.96094 -0.519914,0.792 -0.950884,1.7622 -0.958984,2.1582 -0.0081,0.396 0.848297,0.72071 1.904297,0.72071 2.125334,0 2.362202,-0.72053 0.945312,-2.87891 -0.420132,-0.64 -0.682729,-0.96094 -0.945312,-0.96094 z m 19.367183,2.99024 c -0.50274,0.0924 -0.98424,0.32409 -1.3789,0.71875 -0.70579,0.7058 -0.63123,1.46708 0.25195,2.53125 1.67092,2.01333 4.32031,1.42394 4.32031,-0.96094 0,-1.59062 -1.68512,-2.56636 -3.19336,-2.28906 z m 150.8379,3.57617 -16.22266,0.14844 c -8.92237,0.0815 -19.24421,0.43998 -22.9375,0.79687 l -6.71484,0.64844 -1.10157,8.64062 c -0.60649,4.752 -1.5818,12.29928 -2.16601,16.77344 -1.6824,12.88444 -1.49687,14.87902 1.50781,16.24805 1.41323,0.6439 5.56557,2.98247 9.22851,5.19531 3.66298,2.21284 7.39338,4.45442 8.28907,4.98242 0.99141,0.58442 9.75304,0.85167 22.39648,0.6836 l 20.76953,-0.2754 0.48438,-4.04492 c 0.2666,-2.22415 1.18912,-9.38728 2.04883,-15.91992 l 1.5625,-11.8789 -3.12891,-3.22657 c -3.70566,-3.82326 -4.96923,-3.472 -1.99219,0.55469 1.1505,1.55612 2.0918,3.24175 2.0918,3.74609 0,0.50433 -3.34745,1.18441 -7.43945,1.50977 -4.092,0.32534 -12.31115,1.01969 -18.26563,1.54297 -12.19332,1.07153 -10.15461,1.89009 -18.38281,-7.38477 -1.80859,-2.03864 -5.15604,-5.73922 -7.43945,-8.22461 -2.28342,-2.48538 -4.15235,-4.91407 -4.15235,-5.39648 0,-1.18521 10.19227,-2.04573 26.19922,-2.21094 12.30058,-0.12695 13.39355,0.009 15.42188,1.91406 2.1565,2.02593 4.49082,2.72949 4.42382,1.33203 -0.019,-0.39599 -1.03518,-1.94311 -2.25781,-3.4375 z m -164.378911,2.34961 c -0.392376,-0.12329 -0.753668,0.0291 -1.15625,0.43164 -0.596132,0.59613 -0.823399,1.76039 -0.50586,2.58789 0.317537,0.82749 1.454774,1.50391 2.527344,1.50391 2.294203,0 2.402126,-0.75999 0.474609,-3.3086 -0.524854,-0.69398 -0.947467,-1.09156 -1.339843,-1.21484 z m 21.968751,2.60351 c -2.11649,0 -3.2013,1.49724 -2.46875,3.40625 0.65481,1.70641 4.1159,1.84883 4.69336,0.19336 0.68091,-1.95203 -0.33744,-3.59961 -2.22461,-3.59961 z m 136.68945,1.33789 c -0.46642,-0.0374 -0.90019,0.33574 -1.65625,1.0918 -1.24901,1.249 -1.36337,1.91754 -0.5039,2.95313 1.32722,1.5992 4.34168,1.76041 5.25586,0.28125 0.35923,-0.58125 -0.19964,-1.91058 -1.24219,-2.95313 -0.8879,-0.8879 -1.3871,-1.33564 -1.85352,-1.37305 z m -23.14453,0.58204 c -1.53745,-10e-6 -2.52987,2.39489 -1.79102,4.32031 0.61352,1.5988 4.01835,1.95936 4.90821,0.51953 0.76277,-1.23419 -1.55945,-4.83984 -3.11719,-4.83984 z m -14.87109,0.15429 c 0.85683,0.12443 2.58163,1.9455 5.75,5.84571 2.68078,3.3 7.05321,8.26901 9.71484,11.04101 2.66164,2.772 4.48668,5.03906 4.05664,5.03906 -0.43003,0 -1.06937,2.7 -1.42187,6 -0.35248,3.3 -0.89724,8.05255 -1.20899,10.56055 -0.54203,4.36087 -1.74324,5.55775 -3.72656,3.71094 -0.5016,-0.46707 -4.47603,-2.69215 -8.83203,-4.94336 -4.98504,-2.57629 -7.91048,-4.66302 -7.89258,-5.63086 0.0156,-0.84572 0.65646,-7.58456 1.42188,-14.97656 0.76539,-7.392 1.39915,-14.1971 1.41015,-15.1211 0.0126,-1.06413 0.21442,-1.60005 0.72852,-1.52539 z m 50.78515,2.72656 c -1.03844,0 -0.67895,2.43042 0.53907,3.64844 1.29415,1.29414 2.70255,1.52293 2.65625,0.43164 -0.0426,-1.00543 -2.45055,-4.08008 -3.19532,-4.08008 z m -142.77148,1.95508 c -0.39601,0.0312 -0.76212,0.45902 -1.39063,1.30664 -0.74281,1.00179 -1.122,2.18847 -0.84375,2.63867 0.72414,1.17171 4.00018,1.01241 4.76954,-0.23242 0.35764,-0.57867 -0.0762,-1.76729 -0.9629,-2.64062 -0.75029,-0.73895 -1.17625,-1.10348 -1.57226,-1.07227 z m -22,0.21094 c -0.4325,-0.001 -0.86402,0.234 -1.43164,0.70508 -0.786187,0.65249 -1.191699,1.56893 -0.902346,2.03711 0.682136,1.10395 5.212886,1.11233 5.212886,0.01 0,-0.46335 -0.6494,-1.3798 -1.4414,-2.03711 -0.57182,-0.47468 -1.005,-0.71349 -1.4375,-0.71484 z m 117.01953,3.58008 c -0.95531,-0.062 -1.82031,0.5509 -1.82031,1.88672 0,1.02976 0.75568,2.29895 1.67968,2.82031 2.1671,1.22274 3.20515,0.16064 2.4961,-2.55078 -0.35536,-1.35888 -1.40016,-2.09423 -2.35547,-2.15625 z m 21.98633,0.74023 -1.94141,1.93946 c -1.06707,1.06706 -1.64438,2.41679 -1.28515,2.99804 0.8097,1.31012 4.06168,1.38695 4.84765,0.11524 0.31957,-0.51709 0.0839,-1.86485 -0.52148,-2.9961 z m 22.13476,0.36524 c -0.36332,0.0406 -0.84038,0.14601 -1.45703,0.30078 -3.39459,0.85198 -3.57993,1.0448 -2.84765,2.95312 0.92583,2.41264 4.857,1.39968 5.24609,-1.35156 0.21968,-1.5534 0.14856,-2.02428 -0.94141,-1.90234 z m -170.845699,2.74804 c -2.007326,0 -2.075716,0.12977 -1.234375,2.32227 0.660319,1.72076 0.657183,1.71935 2.638672,0.95898 1.959979,-0.75211 0.877475,-3.28125 -1.404297,-3.28125 z m -5.4375,2.17969 c -0.619212,-0.0913 -1.179688,0.41029 -1.179688,1.58008 0,1.1792 0.621189,2 1.511719,2 0.893989,0 1.382937,-0.65232 1.199219,-1.59961 -0.233545,-1.20421 -0.912039,-1.88919 -1.53125,-1.98047 z m -7.736329,3.19922 c -1.054229,-0.0728 -2.082031,0.83066 -2.082031,2.4043 0,1.12222 0.672923,1.8164 1.759766,1.8164 2.483976,0 3.121706,-0.93317 2.03125,-2.9707 -0.434574,-0.81201 -1.076447,-1.20634 -1.708985,-1.25 z m 139.066408,1.3418 c -1.96844,0 -2.43692,1.45257 -1.36719,4.24023 0.72883,1.89926 1.72402,1.92815 3.24805,0.0918 1.58703,-1.91226 0.5359,-4.33203 -1.88086,-4.33203 z m 54.6914,0.18164 -0.0195,3.98828 c -0.0195,4.05544 -2.30123,19.59933 -2.97265,20.25 -0.20231,0.19606 -8.25267,0.54345 -17.88867,0.77148 l -17.51954,0.41407 0.002,-2.48243 c 0.003,-2.32338 2.78184,-19.5084 3.22656,-19.95312 0.1117,-0.11171 1.91572,-0.267 4.00781,-0.3457 3.73942,-0.14063 20.50051,-1.51606 27.5625,-2.26172 z m -140.04296,0.48828 c -0.37694,-0.0452 -0.84554,-0.0361 -1.4336,0.006 -3.5968,0.25667 -3.77291,0.51857 -2.38867,3.55664 0.71626,1.57203 1.68656,2.36231 2.51367,2.04492 0.74113,-0.2844 1.77308,-0.51758 2.29297,-0.51758 0.51989,0 0.80965,-1.18862 0.64258,-2.64062 -0.19439,-1.68949 -0.49616,-2.31361 -1.62695,-2.44922 z m 97.16406,0.91406 c -0.74105,0.003 -1.43398,0.30644 -1.70313,1.00781 -0.29984,0.78129 -0.32641,1.77567 -0.0586,2.20899 0.79036,1.27886 3.81595,0.4226 4.12695,-1.16797 0.23905,-1.22256 -1.13016,-2.05376 -2.36523,-2.04883 z m 35.23437,4.17578 c -2.43433,0 -3.72878,2.73696 -1.85547,3.92188 1.92847,1.2198 3.21412,0.55627 3.56641,-1.83789 0.23183,-1.57553 -0.18673,-2.08399 -1.71094,-2.08399 z m -35.55664,2.87891 c -1.408,0 -1.91992,0.64039 -1.91992,2.40039 0,1.76 0.51192,2.40039 1.91992,2.40039 1.40801,0 1.91993,-0.64039 1.91993,-2.40039 -10e-6,-1.76 -0.51192,-2.40039 -1.91993,-2.40039 z m -13.25976,0.12695 c -0.83503,0.0829 -1.14063,0.57528 -1.14063,1.64649 0,1.04873 0.54117,2.12271 1.20117,2.38672 1.97287,0.78914 3.11915,0.11278 3.11915,-1.83985 -10e-6,-1.17726 -0.77816,-1.95021 -2.16016,-2.14648 -0.40449,-0.0575 -0.74119,-0.0745 -1.01953,-0.0469 z m -111.31446,3.33203 c -0.23999,-0.0584 -0.4666,-0.0565 -0.66992,0.0215 -1.63686,0.62813 -2.82621,3.75228 -1.96093,5.15234 0.78659,1.27278 4.99874,1.24676 5.79101,-0.0352 0.82851,-1.34056 -1.48019,-4.72999 -3.16016,-5.13868 z m 122.57618,4.22266 c -1.6254,0 -0.90215,3.69382 0.79882,4.08008 2.14736,0.48762 3.11915,-0.0221 3.11915,-1.63477 -10e-6,-1.21015 -1.97935,-2.44531 -3.91797,-2.44531 z m -86.26563,0.95898 c -1.28866,0 -2.19613,1.74818 -1.49609,2.88086 1.00331,1.6234 2.40039,1.06379 2.40039,-0.96093 0,-1.056 -0.40747,-1.91993 -0.9043,-1.91993 z m 101.51367,0.50586 c -1.08669,0.0739 -2.22921,0.51186 -2.47461,1.24805 -0.29663,0.8899 0.34077,1.18021 2.11133,0.96094 1.39396,-0.17263 2.52031,-0.74739 2.50391,-1.27539 -0.0223,-0.71798 -1.05394,-1.00751 -2.14063,-0.9336 z" />
  </g>
</svg>
