<?xml version="1.0" encoding="UTF-8" standalone="no"?>
<!-- Created with Inkscape (http://www.inkscape.org/) -->

<svg
   version="1.1"
   id="svg2"
   width="1477.3333"
   height="586.66669"
   viewBox="0 0 1477.3333 586.66669"
   sodipodi:docname="separator_steganographia.png"
   inkscape:version="1.1.2 (0a00cf5339, 2022-02-04)"
   xmlns:inkscape="http://www.inkscape.org/namespaces/inkscape"
   xmlns:sodipodi="http://sodipodi.sourceforge.net/DTD/sodipodi-0.dtd"
   xmlns="http://www.w3.org/2000/svg"
   xmlns:svg="http://www.w3.org/2000/svg">
  <defs
     id="defs6" />
  <sodipodi:namedview
     id="namedview4"
     pagecolor="#505050"
     bordercolor="#eeeeee"
     borderopacity="1"
     inkscape:pageshadow="0"
     inkscape:pageopacity="0"
     inkscape:pagecheckerboard="0"
     showgrid="false"
     inkscape:zoom="0.5601309"
     inkscape:cx="598.07449"
     inkscape:cy="277.61368"
     inkscape:window-width="1854"
     inkscape:window-height="995"
     inkscape:window-x="0"
     inkscape:window-y="0"
     inkscape:window-maximized="1"
     inkscape:current-layer="g8" />
  <g
     inkscape:groupmode="layer"
     inkscape:label="Image"
     id="g8">
    <path
       style="fill:#000000;stroke-width:1.33333"
       d="m 843.30863,575.96009 c -1.45338,-2.35163 1.69652,-4.82009 4.16434,-3.26343 1.13645,0.71684 2.16993,1.90336 2.29664,2.6367 0.32921,1.90541 -5.33135,2.4545 -6.46098,0.62673 z m 84.11559,-69.14631 c -0.41539,-0.67211 -14.00947,-0.93704 -31.16712,-0.60741 -19.8436,0.38121 -32.48769,0.0685 -36.34377,-0.89871 -3.25234,-0.81581 -8.01335,-2.01095 -10.58002,-2.65585 -2.56666,-0.64491 -8.26666,-2.03159 -12.66666,-3.08154 -8.62218,-2.05744 -10.35007,-2.64536 -18.98364,-6.45928 -5.24044,-2.31498 -7.17487,-2.39048 -26.66667,-1.04074 -30.82329,2.13441 -44.16196,1.756 -50.77802,-1.44054 -2.99358,-1.44633 -7.12184,-2.62672 -9.17392,-2.62309 -2.0521,0.004 -6.59479,-1.01983 -10.09487,-2.27435 -6.15409,-2.20578 -6.65933,-2.18706 -15.33333,0.568 -22.22951,7.06063 -23.99739,7.38735 -59.45233,10.98708 -7.91567,0.80368 -12.97712,0.73598 -15.33334,-0.20513 -1.93446,-0.77264 -11.31721,-1.885 -20.85054,-2.47189 -14.75792,-0.90854 -18.52199,-1.61611 -25.33334,-4.76214 -10.04976,-4.64181 -18.08668,-4.82806 -36,-0.83434 -7.33333,1.63494 -21.60918,3.55624 -31.7241,4.26954 -10.11493,0.71331 -18.97913,1.66055 -19.69824,2.10498 -0.71911,0.44442 -5.04325,-0.38326 -9.60923,-1.8393 -11.85617,-3.78082 -23.47909,-4.84034 -24.48017,-2.23157 -1.08395,2.82471 -3.15492,2.51615 -3.15492,-0.47007 0,-1.9896 -3.01715,-3.46969 -15.11251,-7.41356 -8.31188,-2.71021 -17.16188,-6.17662 -19.66666,-7.70316 -2.50479,-1.52653 -6.20416,-2.73056 -8.22083,-2.67561 -2.01667,0.0549 -3.66667,-0.45997 -3.66667,-1.14425 0,-2.03099 -9.03426,-1.41659 -14.37616,0.97766 -2.72644,1.22202 -7.35717,2.39856 -10.2905,2.61456 -16.01036,1.17895 -22.03164,1.79896 -28.66667,2.95183 -25.58444,4.44541 -103.1579,7.83885 -122.66666,5.36604 -20.36736,-2.58165 -26.57324,-3.65628 -36.54661,-6.32847 -5.80064,-1.55418 -12.19938,-2.82578 -14.21942,-2.82578 -4.0981,0 -24.78678,-7.44455 -27.90064,-10.03967 -1.1,-0.91676 -5.3,-3.04792 -9.33333,-4.73592 -4.03333,-1.68802 -9.17453,-4.44228 -11.42489,-6.1206 -2.25036,-1.67832 -6.57185,-3.9266 -9.60332,-4.99616 -5.17928,-1.82736 -11.46252,-5.68548 -25.63846,-15.74287 -3.299996,-2.34125 -12.219382,-10.58111 -19.820854,-18.3108 -13.24523,-13.46865 -19.557438,-21.71736 -26.540467,-34.68273 -1.766116,-3.27914 -4.355564,-7.5693 -5.754328,-9.53369 -3.736081,-5.24684 -10.551012,-20.96285 -10.551012,-24.33185 0,-1.6018 -0.811627,-4.09588 -1.803616,-5.54237 -0.991988,-1.44651 -1.861034,-3.53002 -1.931212,-4.63002 -0.07017,-1.1 -0.557714,-5.6 -1.083414,-10 -0.818743,-6.85272 -0.960662,-20.2501 -0.451967,-42.66667 0.06656,-2.93333 1.022291,-7.31398 2.123835,-9.73478 1.101542,-2.4208 2.341279,-6.6208 2.754971,-9.33334 0.413691,-2.71253 1.49864,-5.83188 2.410999,-6.93188 2.803569,-3.38017 5.980404,-10.39257 5.980404,-13.20086 0,-1.46664 0.929716,-3.18692 2.066036,-3.82284 3.189348,-1.78486 13.9332,-15.37523 13.940133,-17.63351 0.0069,-2.24704 7.424301,-10.67612 9.394745,-10.67612 0.696164,0 1.265752,-0.88617 1.265752,-1.96927 0,-1.08309 1.65,-3.01555 3.666667,-4.29435 2.016666,-1.27881 6.405281,-4.59264 9.752475,-7.36408 3.347195,-2.77144 6.574475,-5.03897 7.171732,-5.03897 0.597258,0 3.3953,-1.95 6.217871,-4.33333 10.66049,-9.00155 14.13129,-11.36703 23.85792,-16.26003 5.5,-2.76679 10.7692,-5.65455 11.70933,-6.41724 2.62998,-2.13363 18.69847,-7.23484 27.624,-8.76972 4.4,-0.75665 10.4,-1.98135 13.33334,-2.72156 14.85562,-3.74873 49.92994,-8.43309 62.66666,-8.36945 9.22544,0.0461 10.90652,-0.65263 12.48853,-5.19079 0.83675,-2.40029 2.8446,-4.50604 5.11144,-5.36064 2.05335,-0.77411 5.53336,-3.07513 7.73336,-5.11339 2.2,-2.03826 7.3,-5.6669 11.33334,-8.06364 4.03333,-2.39673 8.53333,-5.41836 10,-6.71473 1.46666,-1.29636 5.06666,-3.10912 8,-4.02835 2.93333,-0.91923 5.9987,-2.19636 6.81193,-2.83807 2.40745,-1.8997 14.18437,-5.12239 18.77604,-5.13796 2.34005,-0.008 4.5932,-0.56223 5.00699,-1.23175 0.96793,-1.56615 7.88616,-2.65099 22.0717,-3.461049 6.23334,-0.355952 16.95452,-1.33198 23.82487,-2.168954 20.13601,-2.453054 52.54617,1.307486 66.30378,7.693203 7.82808,3.63348 12.28578,3.96788 15.94984,1.19652 1.4235,-1.07668 4.1649,-1.97668 6.09202,-2 1.9271,-0.0233 5.8271,-1.01993 8.66666,-2.21468 2.83955,-1.19475 9.87126,-2.704911 15.626,-3.355911 5.75475,-0.650999 11.58052,-1.781623 12.94618,-2.512497 4.25296,-2.276113 47.28295,-0.775058 56.40789,1.967729 7.37968,2.218199 8.46181,2.225319 19.33333,0.127186 6.33385,-1.222389 13.91609,-3.333899 16.84943,-4.692243 7.49074,-3.468752 17.10954,-6.218592 28,-8.004687 15.93473,-2.613384 31.6981,-5.626889 38.98148,-7.452139 3.83981,-0.962277 13.73981,-1.854028 21.99999,-1.981666 64.62322,-0.998587 109.99554,1.658204 141.68519,8.296416 7.33333,1.536156 16.03333,3.257745 19.33333,3.825754 3.3,0.568009 9.3,2.312873 13.33333,3.877477 4.03334,1.564603 10.33334,3.421596 14,4.126651 3.66667,0.705056 11.01728,3.163564 16.33468,5.46335 9.5328,4.12296 9.74726,4.15141 15.33334,2.03422 3.11593,-1.18097 11.36532,-3.603979 18.33198,-5.38447 20.27431,-5.181564 51.96655,-3.630366 71.33333,3.49146 2.93334,1.07868 9.02396,3.27387 13.53476,4.87819 l 8.2014,2.91694 7.7524,-2.72475 c 4.2638,-1.4986 10.3626,-2.72474 13.5529,-2.72474 3.1903,0 6.9058,-0.59151 8.2566,-1.31447 1.3509,-0.72296 8.3615,-1.41416 15.579,-1.53599 7.2176,-0.12183 13.8556,-0.7894 14.7511,-1.483476 1.5043,-1.166008 8.6198,-0.844571 18.3718,0.829946 2.2,0.37776 12.1,1.41986 22,2.31578 9.9,0.89592 21.244,2.72978 25.2088,4.07525 3.9648,1.34546 8.3239,2.4463 9.6868,2.4463 1.363,0 5.6241,1.77548 9.4692,3.94551 3.8451,2.17003 9.5426,4.84574 12.6611,5.94602 6.979,2.46233 16.1729,8.66393 24.9741,16.84596 3.6667,3.4087 8.1667,6.65946 10,7.2239 1.8334,0.56444 12.9334,1.80884 24.6667,2.76532 11.7333,0.95648 24.9333,2.61206 29.3333,3.67908 29.0802,7.05198 35.487,8.82429 39.3334,10.88058 1.8333,0.98014 6.0333,2.48842 9.3333,3.35175 7.2273,1.89076 30.5301,13.97091 33.3333,17.27993 1.1,1.29848 4.7,4.21786 8,6.48751 3.3,2.26965 8.7,6.62655 12,9.68197 3.3,3.05544 8.1403,6.99279 10.7562,8.74968 2.6158,1.75688 6.5158,5.63606 8.6666,8.62041 2.1508,2.98433 5.2448,6.83426 6.8758,8.55541 1.6308,1.72116 5.7666,7.52233 9.1908,12.89151 3.424,5.36917 7.5925,11.26213 9.263,13.09546 1.6707,1.83334 4.3752,7.50244 6.0104,12.59802 1.6351,5.09558 4.13,11.22606 5.5444,13.6233 1.4144,2.39724 2.3308,5.42814 2.0363,6.73532 -0.2944,1.30719 0.6255,5.3767 2.0441,9.04336 3.6211,9.35853 3.9827,41.16739 0.6215,54.66667 -4.1281,16.5791 -14.8031,39.87367 -22.3684,48.81171 -10.4277,12.31975 -14.7567,16.57854 -23.8421,23.45536 -5.4275,4.1081 -10.917,8.42859 -12.1988,9.60111 -11.7552,10.75252 -32.6249,24.30451 -44.2664,28.74501 -4.0506,1.54506 -6.3334,3.21551 -6.3334,4.63463 0,3.943 -2.7611,5.3549 -8.8422,4.52139 -6.1922,-0.84873 -21.4918,3.81256 -22.6804,6.90999 -0.3791,0.98788 -3.8793,1.65202 -9.183,1.7424 -5.4112,0.0923 -9.7765,0.9363 -11.8423,2.2899 -1.9995,1.31012 -8.5684,2.6422 -16.8914,3.42534 -7.4907,0.70481 -14.2744,1.68626 -15.0749,2.18101 -0.8005,0.49473 -4.4623,1.05233 -8.1373,1.23912 -3.675,0.18677 -15.9818,0.90596 -27.3485,1.59817 -20.9592,1.27642 -69.1269,0.99966 -94.6666,-0.54392 -7.7,-0.46537 -18.7325,-1.99328 -24.5165,-3.39534 -5.7841,-1.40206 -11.8419,-2.5492 -13.4618,-2.5492 -1.62,0 -4.8245,-0.93743 -7.1212,-2.08318 -5.028,-2.50832 -14.1738,-2.84646 -16.8528,-0.6231 -1.5933,1.32229 -2.0919,0.99461 -2.804,-1.84272 -0.9002,-3.58686 -4.5771,-4.85827 -4.5771,-1.58271 0,2.32261 -6.4419,6.19165 -16.6986,10.02917 -4.31,1.61256 -10.23417,4.69532 -13.16485,6.85058 -2.93068,2.15524 -6.6878,3.91862 -8.34916,3.91862 -1.66136,0 -6.19316,1.13751 -10.07067,2.5278 -3.8775,1.39028 -10.95001,3.24248 -15.71668,4.116 -4.76666,0.87351 -11.96666,2.66243 -15.99999,3.97538 -9.40919,3.06289 -18.30068,4.38502 -19.24243,2.86125 z m 13.75436,-18.19459 c 6.14823,-1.16765 16.34823,-3.82876 22.66666,-5.91356 6.31844,-2.0848 13.58807,-4.21572 16.15474,-4.73537 2.56666,-0.51967 5.32961,-1.47677 6.13988,-2.12691 0.81026,-0.65014 6.51026,-2.83086 12.66666,-4.84604 7.78978,-2.54982 11.32478,-4.3747 11.62538,-6.00132 0.2375,-1.28556 -0.3625,-2.57276 -1.3334,-2.86044 -0.9708,-0.28769 -5.1699,-1.52749 -9.33131,-2.75511 -4.16136,-1.22761 -9.83823,-3.39042 -12.61525,-4.80622 -6.54916,-3.33896 -7.32406,-3.28312 -17.71228,1.27626 -18.49959,8.11947 -47.38485,13.1181 -80.77301,13.97787 -4.5718,0.11774 -7.98827,1.11436 -10.8725,3.17167 -2.3132,1.65 -5.193,3 -6.39954,3 -1.20655,0 -3.8519,0.85748 -5.87856,1.90551 -2.02667,1.04802 -8.14687,2.94633 -13.60046,4.21845 -11.90709,2.77749 -14.53441,4.54271 -6.76129,4.54271 3.12821,0 6.85005,0.62209 8.27075,1.38242 1.4207,0.76035 6.62754,1.45136 11.57076,1.53559 4.94322,0.0843 10.49138,0.60121 12.32925,1.14885 5.72092,1.70466 51.77419,0.17971 63.85352,-2.11436 z m -311.51193,-7.27422 c 13.87875,1.20552 49.7778,-1.46836 56.76217,-4.22786 1.96415,-0.77601 5.18192,-1.38606 7.15064,-1.35566 1.96871,0.0304 4.26322,-0.7686 5.0989,-1.77554 1.21118,-1.45938 0.48504,-2.36757 -3.57948,-4.47681 -2.80439,-1.45531 -7.08592,-4.49021 -9.51452,-6.74421 -5.12812,-4.75949 -9.53162,-5.19719 -16.50723,-1.64082 -2.65101,1.35158 -7.72788,3.24658 -11.28192,4.21112 -3.55404,0.96456 -9.16189,3.07562 -12.46189,4.69123 -3.3,1.61563 -9.65271,3.25491 -14.11713,3.64284 -4.46443,0.38795 -9.98463,1.67107 -12.26712,2.85139 -2.2825,1.18032 -6.54438,2.14604 -9.47084,2.14604 -2.92648,0 -5.66767,0.56113 -6.09154,1.24697 -1.06949,1.73047 6.40663,2.59964 15.94663,1.85395 4.4,-0.34392 9.05,-0.53412 10.33333,-0.42264 z m -74.66666,-3.58235 c 2.59553,-1.52264 0.26573,-4.45791 -8,-10.07903 -8.71634,-5.92754 -9.52438,-6.18785 -25.63711,-8.25889 -17.36965,-2.23259 -19.21066,-2.64638 -33.36289,-7.49854 -4.76667,-1.63428 -10.46667,-2.99858 -12.66667,-3.0318 -3.14928,-0.0476 -23.9904,4.66366 -35.18737,7.95423 -3.50356,1.02964 8.07165,9.53454 15.18737,11.15895 3.66667,0.83705 10.06347,2.98756 14.21512,4.77891 4.15164,1.79134 11.85176,3.79734 17.11136,4.45777 5.25962,0.66041 9.9628,1.60537 10.45156,2.09991 0.9325,0.94353 56.15615,-0.56518 57.88863,-1.58151 z m 235.66666,1.16976 c 0,-0.58721 -2.85,-2.44403 -6.33333,-4.12628 -3.48334,-1.68224 -9.71182,-5.1018 -13.84108,-7.59901 -8.69479,-5.25828 -9.61554,-5.37904 -15.84534,-2.07836 -2.5558,1.35413 -6.22105,2.84652 -8.14498,3.31642 -4.54304,1.1096 -10.15034,5.67414 -8.7303,7.10676 0.60775,0.61312 11.10775,1.77854 23.33334,2.5898 30.31524,2.01167 29.56169,1.99151 29.56169,0.79067 z m 33.9228,-2.80745 c 0.41076,-0.66463 3.85805,-1.63632 7.66064,-2.15931 4.51492,-0.62096 7.78249,-1.93651 9.4175,-3.79157 1.75411,-1.99019 2.71095,-2.3417 3.19584,-1.17403 0.92219,2.22073 4.28887,2.09233 8.95563,-0.34155 2.10049,-1.09548 4.80049,-2.00097 6,-2.0122 1.19951,-0.0107 3.08092,-0.61122 4.18092,-1.33333 3.11459,-2.0446 -0.74385,-3.93453 -8.08289,-3.95917 -3.34559,-0.0107 -8.56662,-1.22042 -11.60226,-2.68709 -3.03565,-1.46666 -6.41294,-2.66666 -7.50509,-2.66666 -1.09215,0 -2.35653,-0.6 -2.80976,-1.33334 -0.45323,-0.73333 -2.13864,-1.33702 -3.74536,-1.34154 -1.60672,-0.004 -4.72131,-0.96654 -6.92131,-2.13782 -2.2,-1.17128 -6.4,-2.98389 -9.33333,-4.02802 -2.93333,-1.04414 -8.36405,-3.47388 -12.06826,-5.39944 l -6.73494,-3.50102 -8.79482,5.20392 c -4.83715,2.86216 -10.64978,6.2222 -12.91694,7.46675 -6.92469,3.80131 -3.1191,7.14844 14.08507,12.38827 3.06355,0.93305 7.26355,2.84341 9.33333,4.24525 10.19146,6.90251 25.73987,11.71086 27.68603,8.5619 z m -221.7625,-5.54403 c 1.4584,-0.78052 6.36896,-1.99336 10.91234,-2.6952 9.6851,-1.49612 24.40543,-4.98535 27.45746,-6.50836 1.17512,-0.58642 3.63657,-1.65304 5.4699,-2.37028 1.83334,-0.71724 5.73334,-2.42671 8.66667,-3.79882 2.93333,-1.3721 7.38643,-2.80526 9.89577,-3.18481 2.50935,-0.37955 4.78855,-1.37767 5.06488,-2.21805 0.67376,-2.049 -18.4212,-15.34703 -20.96065,-14.59732 -1.70188,0.50244 -12.56683,4.80705 -22,8.71625 -1.46667,0.6078 -5.06667,1.74489 -8,2.52688 -2.93333,0.78197 -8.63333,2.31083 -12.66667,3.39744 -20.03385,5.39728 -25.45394,6.53277 -34.89152,7.30968 -5.62368,0.46293 -10.63036,1.2484 -11.12597,1.74545 -0.49561,0.49707 1.70557,2.51623 4.89152,4.48703 3.18595,1.97082 7.59264,4.70402 9.79264,6.0738 4.5676,2.84391 22.87655,3.5873 27.49363,1.11631 z m 563.83965,-2.20237 c 25.6692,0.43081 34.612,-0.0443 45.3946,-2.41127 5.4663,-1.2 15.0388,-2.72847 21.2721,-3.3966 13.9412,-1.49431 30.2075,-4.43448 34.6667,-6.26607 1.8333,-0.75304 7.112,-2.43331 11.7303,-3.73392 4.6184,-1.30063 8.7038,-2.86109 9.0787,-3.46771 0.3749,-0.60662 1.8932,-1.10294 3.3738,-1.10294 2.3043,0 13.1474,-4.91454 26.2535,-11.89918 1.96,-1.04453 6.4676,-4.19453 10.0167,-7 3.5492,-2.80545 7.025,-5.10082 7.7239,-5.10082 1.6947,0 15.8231,-10.70992 15.8231,-11.9946 0,-0.55415 2.85,-2.97396 6.3333,-5.37738 3.4833,-2.4034 7.9417,-6.82792 9.9075,-9.83225 1.9657,-3.00435 6.1657,-8.5846 9.3333,-12.40057 10.0113,-12.06066 17.012,-25.49506 17.9236,-34.39521 0.2253,-2.2 1.1599,-7.6 2.0768,-12 2.4572,-11.79148 0.7476,-45.85512 -2.6117,-52.03883 -0.7851,-1.4453 -2.1647,-5.52657 -3.0655,-9.06946 -0.9008,-3.54291 -4.0963,-10.09567 -7.1009,-14.56171 -3.0047,-4.46605 -6.2891,-9.66731 -7.2987,-11.55837 -1.0096,-1.89107 -3.1873,-4.9383 -4.8392,-6.77163 -1.652,-1.83333 -4.5473,-5.82611 -6.4341,-8.87283 -4.712,-7.60858 -21.1476,-23.76929 -31.2374,-30.71501 -4.5904,-3.16002 -8.7904,-5.75132 -9.3333,-5.75844 -0.5429,-0.007 -3.6871,-2.16086 -6.9871,-4.78608 -7.2263,-5.74871 -24.9586,-14.26891 -44,-21.14152 -7.7,-2.77918 -15.4185,-5.71754 -17.1522,-6.52968 -1.7337,-0.81215 -5.6337,-1.39886 -8.6666,-1.30379 -3.5789,0.11213 -6.4505,-0.65487 -8.1812,-2.18527 -2.5909,-2.2912 -14.3077,-4.34942 -17.6666,-3.10342 -3.8051,1.4115 -1.6923,10.21757 4.7267,19.70117 l 6.2982,9.30513 15.9875,5.40996 c 8.7932,2.97547 19.2876,6.58519 23.3209,8.02159 12.3396,4.39455 35.0317,16.59279 40.6667,21.86054 2.9333,2.74218 8.3627,7.1485 12.0652,9.7918 6.3276,4.51736 23.2681,22.26648 23.2681,24.37872 0,0.53157 0.9577,1.66678 2.1283,2.52272 3.9761,2.90745 13.1836,28.49792 14.6081,40.60069 0.4836,4.10872 1.7157,8.79928 2.7381,10.42348 2.2451,3.56671 2.4279,13.46294 0.3442,18.62678 -0.833,2.06441 -1.4182,5.47402 -1.3002,7.57693 0.1174,2.10291 -0.3493,4.50291 -1.0382,5.33333 -0.6891,0.83043 -2.7335,5.44411 -4.5432,10.25263 -7.1175,18.91064 -16.5294,30.52592 -38.2704,47.23004 -7.1437,5.48866 -18.563,11.36054 -22.0933,11.36054 -0.9649,0 -3.7386,1.1511 -6.1638,2.55802 -5.0826,2.94843 -19.6922,5.27115 -35.0763,5.57659 -7.7655,0.15419 -14.293,-0.73763 -24,-3.27897 -14.8971,-3.9002 -18.1082,-4.21404 -20.3348,-1.98748 -0.8441,0.84414 -4.1141,1.98537 -7.2667,2.53605 -3.1525,0.55068 -9.9318,2.49363 -15.0651,4.31767 -8.5652,3.04345 -29.5177,6.15348 -58,8.60905 -11.0784,0.95512 -29.1634,0.79557 -45.475,-0.40117 l -12.8083,-0.93972 -2.525,3.632 c -4.267,6.13753 -5.0855,6.79593 -24.9523,20.07098 -5.0017,3.34214 -8.8541,6.80343 -8.561,7.69179 0.3387,1.0264 5.1118,1.92848 13.094,2.47466 6.9085,0.47269 17.9609,1.60069 24.5609,2.50664 6.6,0.90596 17.8496,1.76878 24.9991,1.9174 7.1495,0.1486 13.4352,0.70632 13.9682,1.23936 0.5331,0.53302 7.8835,0.65566 16.3343,0.27253 8.4508,-0.38313 22.8651,-0.57075 32.0317,-0.41689 z m -440.20146,-2.54471 c 16.14231,-7.18287 21.53484,-10.1158 21.53484,-11.71256 0,-0.98875 -1.90802,-2.58806 -4.24005,-3.55402 -2.33203,-0.96594 -6.68203,-3.59408 -9.66667,-5.84028 -6.04576,-4.54997 -11.81029,-7.39361 -14.98806,-7.39361 -2.62383,0 -22.91011,10.0768 -26.10254,12.96591 -2.24978,2.03602 -2.2504,2.25409 -0.0135,4.76829 2.82185,3.17164 22.49986,12.93247 26.07209,12.93247 1.39464,0 4.72637,-0.97479 7.40387,-2.1662 z m -387.41929,-0.60921 c 2.1273,-0.61011 11.46224,-1.51628 20.74432,-2.01372 10.29911,-0.55195 18.34939,-1.64975 20.65574,-2.81678 2.07857,-1.05179 5.67857,-1.80995 8,-1.6848 7.39205,0.39852 10.22075,-0.004 10.22075,-1.45535 0,-2.11205 -9.48291,-13.07106 -13.55104,-15.6604 -1.95308,-1.24312 -5.25308,-4.40066 -7.33334,-7.01677 -2.08026,-2.61609 -6.22861,-7.53279 -9.21855,-10.92596 l -5.43627,-6.16941 -12.56373,1.9882 c -6.91006,1.09352 -16.27736,2.61809 -20.81624,3.38794 -4.53887,0.76987 -8.85758,1.02579 -9.59712,0.56872 -0.73955,-0.45706 -6.68764,-0.18137 -13.218,0.61264 -9.80182,1.19179 -13.43412,1.0817 -20.81895,-0.63096 -4.92007,-1.14104 -11.45833,-2.09589 -14.52949,-2.1219 -17.24064,-0.146 -45.51194,-7.19824 -61.02419,-15.22242 l -11.44026,-5.9178 -17.89307,-0.80382 c -9.8412,-0.44211 -20.76448,-0.92492 -24.27396,-1.07291 -3.50948,-0.148 -6.80948,-0.92295 -7.33333,-1.72209 -0.52386,-0.79916 -5.35011,-3.19916 -10.725,-5.33334 -8.42687,-3.34601 -11.18088,-5.36029 -20.00001,-14.62804 -5.62509,-5.91125 -12.55515,-14.61125 -15.40013,-19.33333 -2.84497,-4.7221 -6.67231,-10.82948 -8.505197,-13.57196 -5.155364,-7.7138 -7.169026,-18.30078 -7.528896,-39.58368 -0.305884,-18.09029 -0.498129,-19.35145 -3.225912,-21.16263 -1.595354,-1.05927 -2.900644,-2.97931 -2.900644,-4.26674 0,-2.67321 3.325064,-5.90846 5.005255,-4.87005 1.957601,1.20987 3.728345,-0.94403 6.205839,-7.54864 1.324134,-3.52995 4.299211,-8.92995 6.611283,-12 2.312072,-3.07007 5.353782,-7.38193 6.759362,-9.58193 1.40557,-2.2 4.84736,-6.4 7.64841,-9.33334 2.80105,-2.93333 5.40798,-6.23333 5.79317,-7.33333 0.6289,-1.79593 5.56192,-5.23368 20.47021,-14.26536 9.00276,-5.45402 23.48062,-12.51876 28.17314,-13.74762 2.56666,-0.67214 7.96666,-2.11873 12,-3.21464 9.84984,-2.6763 32.78013,-6.42216 39.10182,-6.38761 4.74337,0.0259 5.27291,-0.37123 7.53677,-5.65261 1.33922,-3.12428 3.3183,-6.01948 4.39796,-6.43379 1.07967,-0.41429 2.30176,-2.45092 2.71578,-4.52583 0.414,-2.0749 1.15904,-5.42254 1.65564,-7.43921 0.87268,-3.54396 0.72262,-3.66667 -4.48415,-3.66667 -2.96288,0 -8.28283,0.58119 -11.8221,1.29152 -3.53928,0.71034 -12.73506,2.24095 -20.43506,3.40138 -7.7,1.16041 -17.3,3.24764 -21.33333,4.63826 -4.03333,1.39063 -11.38869,3.45262 -16.34524,4.5822 -4.95656,1.12959 -11.85656,3.47535 -15.33333,5.2128 -3.47679,1.73747 -8.12143,3.58936 -10.32143,4.11535 -2.2,0.52597 -8.6168,3.91181 -14.25955,7.52408 -5.64276,3.61225 -10.61679,6.56775 -11.05341,6.56775 -0.43662,0 -3.07549,2.25 -5.86416,5 -2.78866,2.75 -9.959684,9.8 -15.9356,15.66667 -5.975916,5.86666 -10.870246,11.27996 -10.87629,12.02954 -0.006,0.74958 -1.835355,3.57615 -4.065135,6.28126 -11.795154,14.30957 -21.206394,51.09845 -18.443434,72.09607 0.694268,5.27622 1.851842,14.04562 2.572388,19.48757 0.720544,5.44195 1.812458,10.54195 2.426477,11.33333 0.614017,0.79139 2.799572,5.9389 4.856787,11.4389 2.057215,5.5 4.863475,11.5 6.236134,13.33333 1.372659,1.83333 5.197197,6.93333 8.498973,11.33334 3.301777,4.4 7.424671,10.1 9.161985,12.66666 7.600301,11.2285 33.988455,34.16816 42.153495,36.64472 1.7919,0.54351 4.75801,2.36939 6.59134,4.05751 4.19613,3.86376 24.82628,14.48557 33.84801,17.42728 3.75026,1.22284 7.41866,2.69081 8.15199,3.26216 0.73333,0.57135 4.33333,1.65432 8,2.4066 3.66667,0.75229 10.92696,2.58464 16.13397,4.07191 5.20702,1.48725 13.60702,3.28311 18.66667,3.99077 5.05965,0.70768 11.29936,1.82283 13.86602,2.47811 5.91886,1.51112 97.85916,1.70639 103.04586,0.21887 z m 695.04075,-13.72863 c 3.7143,-1.72956 9.7143,-6.14167 13.3333,-9.80468 3.619,-3.66302 7.9307,-7.0827 9.5815,-7.59928 3.3886,-1.06046 6.4967,-5.85414 4.7888,-7.38604 -0.618,-0.55427 -4.4236,-1.71442 -8.4569,-2.57812 -12.5386,-2.68504 -18.0686,-3.92879 -19.3918,-4.3614 -1.255,-0.41031 -2.965,0.67234 -14.5199,9.19265 -3.2016,2.36083 -10.7449,6.89012 -16.7629,10.06508 -6.01798,3.17497 -11.02808,6.30021 -11.13358,6.94499 -0.10546,0.64477 1.60819,1.70864 3.80819,2.36413 2.2,0.65551 6.09999,1.80953 8.66669,2.56452 4.5967,1.35213 15.4535,3.22656 20.6666,3.56809 1.4667,0.0961 5.7057,-1.24038 9.42,-2.96994 z m -468.75328,-1.61046 c 11.39817,-1.4851 22.80829,-3.32884 28,-4.52446 3.3,-0.75998 8.1,-1.73435 10.66667,-2.1653 2.56666,-0.43093 6.55734,-1.62626 8.86817,-2.65629 2.31083,-1.03004 4.87976,-1.87279 5.70872,-1.87279 2.58251,0 17.93631,-5.43369 21.08977,-7.46364 1.65,-1.06214 3,-2.51464 3,-3.22777 0,-0.71312 -4.26149,-4.74929 -9.47,-8.96925 -5.20849,-4.21998 -14.35849,-11.71654 -20.33333,-16.65904 -5.97483,-4.94251 -11.33952,-8.99251 -11.92152,-9 -0.58201,-0.008 -2.67588,1.48637 -4.65305,3.3197 -1.97716,1.83334 -4.09786,3.33334 -4.71264,3.33334 -1.05867,0 -5.0181,1.80757 -33.57612,15.32825 -6.6,3.12473 -15.45,7.02387 -19.66667,8.66473 -4.21667,1.64087 -7.65005,3.66371 -7.62976,4.4952 0.0416,1.70446 16.17868,17.8792 21.29643,21.34615 2.17208,1.47145 4.49458,1.94935 6.66666,1.3718 1.83334,-0.48747 4.83334,-1.08176 6.66667,-1.32063 z m 374.89498,-1.16069 c 4.10039,-1.06801 9.54416,-1.60285 12.09727,-1.18855 2.6356,0.42771 5.98318,0.0355 7.74494,-0.90734 l 3.10293,-1.66064 -3.06777,-2.48415 c -1.68728,-1.36627 -4.1659,-2.48413 -5.50805,-2.48413 -1.34215,0 -2.85387,-0.66922 -3.35937,-1.48715 -1.46772,-2.37483 -12.33386,-0.53437 -15.74056,2.66605 -1.6516,1.5516 -4.18074,2.8211 -5.6203,2.8211 -2.98189,0 -8.54408,3.52121 -8.54408,5.40893 0,1.89116 10.46212,1.51237 18.89499,-0.68412 z m -496.33234,-2.09957 c 4.70946,-0.74031 9.20946,-1.8556 10,-2.47844 0.79055,-0.62283 3.68736,-1.53786 6.43736,-2.03336 2.75,-0.49552 5,-1.3467 5,-1.89151 0,-1.14757 -10.94074,-10.54817 -15.9369,-13.69344 -1.86804,-1.176 -7.68575,-6.126 -12.92826,-11 -10.0324,-9.32723 -12.59154,-10.24549 -19.13009,-6.86428 -2.12456,1.09865 -8.39476,2.67159 -13.93379,3.49541 -8.1007,1.20483 -10.07096,1.95115 -10.07096,3.81482 0,5.13761 19.77524,25.1754 30.05144,30.45044 2.90504,1.49122 6.7819,2.44921 8.61523,2.12885 1.83333,-0.32036 7.18652,-1.18819 11.89597,-1.92849 z m 78.77069,1.84541 c 0,-2.30221 -9.66607,-12.26508 -12.6187,-13.00615 -4.06932,-1.02133 -12.71463,2.32686 -12.71463,4.92416 0,1.71803 3.68603,3.99047 12,7.398 3.72791,1.52791 13.33333,2.02066 13.33333,0.68399 z m 242.76,-2.58311 c 0.96424,-1.16185 5.88511,-4.19326 10.93525,-6.73646 7.3659,-3.70942 8.88423,-4.9829 7.67631,-6.43836 -1.85441,-2.23443 -14.76209,-9.90534 -22.22959,-13.21084 l -5.5247,-2.44551 -8.4753,3.74431 c -10.71512,4.73384 -18.4753,9.73153 -18.4753,11.8984 0,0.92292 2.55,2.6918 5.66666,3.93084 3.11667,1.23904 8.42571,3.94268 11.79788,6.00808 9.22939,5.65288 15.69778,6.7812 18.62879,3.24954 z m -79.63239,-2.8728 c 2.31315,-1.27521 5.10572,-3.0194 6.20572,-3.87596 1.1,-0.85656 4.45472,-2.21066 7.45494,-3.00913 3.0002,-0.79845 6.58476,-2.7002 7.96566,-4.22608 2.47059,-2.72997 2.45798,-2.81571 -0.78825,-5.35925 -6.91543,-5.4185 -18.65673,-13.21099 -19.90561,-13.21099 -0.71688,0 -4.85686,2.25 -9.19995,5 -4.34308,2.75 -9.76332,6.02209 -12.04499,7.27132 -5.23587,2.86669 -5.20583,4.14767 0.18487,7.88343 2.38333,1.65165 6.58507,4.99252 9.33717,7.42413 2.75212,2.43161 5.35954,4.42112 5.79428,4.42112 0.43474,0 2.68302,-1.04336 4.99616,-2.31859 z m 222.28385,-1.77504 c 6.19036,-2.25149 12.88288,-5.64236 14.87226,-7.53525 l 3.61706,-3.44164 -8.94998,-4.50299 c -4.92248,-2.47665 -11.27918,-5.13018 -14.12598,-5.89676 -2.8468,-0.76656 -8.0616,-3.37869 -11.58845,-5.80473 -3.52684,-2.42604 -9.29783,-5.80441 -12.82441,-7.50749 -3.52658,-1.70308 -9.11196,-5.15416 -12.41196,-7.66908 -10.45552,-7.96811 -11.1197,-8.03283 -17.93812,-1.74783 -3.30127,3.043 -6.61571,5.53273 -7.36543,5.53273 -0.74972,0 -2.43331,1.05 -3.74132,2.33334 -1.308,1.28333 -4.908,4.06493 -8,6.18133 -3.09199,2.1164 -5.6218,4.57341 -5.6218,5.46001 0,2.71518 4.3374,5.739 12.69128,8.84774 4.38647,1.63233 8.87539,3.70826 9.97539,4.61318 2.89078,2.3781 17.28017,8.00752 23.40516,9.15658 2.88265,0.54078 5.84577,1.37878 6.58468,1.8622 1.91512,1.25293 12.71673,3.86641 16.75496,4.0539 1.87629,0.0871 8.47629,-1.68374 14.66666,-3.93524 z m 84.68212,-6.51962 c 10.59597,-5.2164 23.90637,-14.27386 23.90637,-16.26782 0,-0.85985 -5.4,-3.28236 -12,-5.38334 -6.59996,-2.10099 -15.67872,-5.00099 -20.17498,-6.44444 -4.49627,-1.44347 -9.07254,-2.62448 -10.16947,-2.62448 -1.09695,0 -6.678,5.15884 -12.40235,11.46409 -11.61083,12.78912 -11.89609,14.78512 -2.45843,17.20257 2.8629,0.73334 5.95701,1.81982 6.87578,2.4144 9.23208,5.97451 13.67723,5.91378 26.42308,-0.36098 z m -497.72525,-3.5968 c 10.0259,-2.81314 10.89877,-4.99959 4.28,-10.72107 -2.83426,-2.45001 -6.38959,-6.45365 -7.90075,-8.89696 -6.97607,-11.2792 -10.93877,-17.38935 -13.18996,-20.33771 l -2.44239,-3.19877 -6.22428,3.25384 c -3.42336,1.7896 -9.02137,4.22605 -12.44005,5.41432 -3.41867,1.18827 -6.58039,3.11067 -7.02603,4.27199 -0.906,2.36102 17.59799,21.17824 26.10915,26.55109 2.69967,1.70423 5.29435,3.72291 5.76593,4.48596 1.18479,1.91703 3.91712,1.74501 13.06838,-0.82269 z m 242.70255,-13.6647 c 5.86919,-2.8011 8.92321,-5.03774 8.91189,-6.52669 -0.0193,-2.53581 -16.49934,-13.51791 -24.00724,-15.99809 -4.32716,-1.42947 -5.48497,-1.14848 -14.92296,3.62146 -5.6275,2.84414 -11.01649,5.49616 -11.97553,5.8934 -2.15088,0.8909 4.13861,6.53395 10.84699,9.73212 2.52489,1.20372 6.12489,3.64706 8,5.42963 4.46146,4.24128 11.03098,3.63055 23.14685,-2.15183 z m -76.64164,0.29714 c 10.66341,-6.11623 17.39496,-11.32907 16.76148,-12.97991 -0.33423,-0.87099 -2.53887,-2.70101 -4.8992,-4.06675 -2.36033,-1.36573 -7.07479,-4.78398 -10.47656,-7.5961 -3.40177,-2.81214 -6.77636,-5.11296 -7.49908,-5.11296 -0.72272,0 -3.60669,-2.1 -6.40884,-4.66667 -2.80216,-2.56667 -5.55688,-4.66667 -6.12162,-4.66667 -0.56475,0 -2.86818,-1.8 -5.11875,-4 -4.43325,-4.33364 -8.59463,-5.18156 -9.81551,-2 -0.4221,1.1 -1.54937,2 -2.50504,2 -2.11132,0 -14.34612,11.02923 -14.34612,12.93251 0,0.74613 3.15,3.52773 7,6.18132 9.46448,6.52335 21.90224,16.5156 28.09494,22.57092 2.80221,2.74005 5.99537,4.98192 7.0959,4.98192 1.10054,0 4.80782,-1.60992 8.2384,-3.57761 z m 277.40693,1.66233 c 4.12863,-2.135 11.94261,-11.163 15.29045,-17.66604 1.98328,-3.85244 1.99283,-4.44208 0.10254,-6.33239 -3.16355,-3.16356 -13.08215,-8.70036 -20.90262,-11.66837 -3.84626,-1.45972 -7.78649,-3.31029 -8.75606,-4.1124 -2.10759,-1.74356 -16.27606,-7.6239 -18.39066,-7.63268 -0.81777,-0.004 -2.91777,-1.11924 -4.66666,-2.47967 -4.75984,-3.70255 -11.90684,-4.58899 -17.65042,-2.18916 -6.31516,2.63864 -21.62132,17.02323 -20.33261,19.10839 0.52833,0.85485 1.97519,1.55651 3.21524,1.55925 1.24005,0.003 4.35464,1.34559 6.92131,2.98411 15.91301,10.1586 54.70142,29.56689 60.39954,30.22172 0.58642,0.0673 2.73291,-0.73936 4.76996,-1.79276 z m -401.55998,-4.93981 c 33.44755,-14.42324 55.05715,-26.25316 55.05715,-30.14036 0,-2.13024 -8.34564,-10.71007 -15.89196,-16.33789 -2.45831,-1.83333 -7.40832,-5.88333 -11.00003,-9 -3.59169,-3.11666 -7.30864,-5.66666 -8.25988,-5.66666 -0.95124,0 -4.68121,1.57457 -8.28883,3.49905 -16.45641,8.77863 -21.34406,11.15793 -22.93066,11.1626 -0.93758,0.003 -5.27047,1.80501 -9.62864,4.00501 -4.35817,2.2 -8.72639,4 -9.70713,4 -0.98076,0 -2.8322,0.76706 -4.11434,1.70458 -2.16653,1.58421 -1.88761,2.64336 3.95028,15 3.45479,7.31248 8.37712,16.19569 10.93853,19.74047 4.32728,5.98858 4.9697,6.38638 9.07107,5.61696 2.42768,-0.45543 7.28968,-2.06812 10.80444,-3.58376 z m 626.03256,-2.40783 c 3.4698,-0.93936 7.1854,-1.37151 8.2569,-0.96033 1.0715,0.41117 3.9326,0.17816 6.3579,-0.51783 2.4254,-0.69597 9.3522,-1.87989 15.393,-2.63092 6.0408,-0.75103 11.8908,-1.71376 13,-2.1394 3.4747,-1.33337 2.2243,-4.00053 -3.6499,-7.78528 C 1196.3063,394.1535 1176,373.67265 1176,371.47709 c 0,-0.71786 -1.2074,-2.59037 -2.683,-4.16112 -2.4357,-2.5927 -3.3881,-2.74574 -10.3333,-1.66057 -4.2077,0.65745 -10.9504,2.02505 -14.9837,3.03913 -7.171,1.80294 -18.6811,3.58664 -22.6667,3.51262 -5.1548,-0.0957 -7.9637,1.49804 -10.7809,6.11721 -1.6803,2.75495 -3.9919,6.50899 -5.137,8.34232 -1.1452,1.83334 -3.2821,5.35182 -4.7488,7.81886 -1.4666,2.46702 -4.0544,6.59929 -5.7505,9.1828 -1.7965,2.73632 -2.5896,5.19152 -1.8999,5.8812 0.6511,0.65116 6.509,1.789 13.0174,2.52854 6.5084,0.73954 12.0046,1.51576 12.2138,1.72495 1.1638,1.16377 35.4109,-0.29312 40.728,-1.7326 z m -10.8681,-14.86224 c -2.3503,-0.93943 -2.8271,-1.68844 -1.7563,-2.7592 1.9032,-1.90319 5.649,-0.4604 5.649,2.17585 0,1.12302 -0.15,2.00382 -0.3334,1.95732 -0.1833,-0.0465 -1.785,-0.66477 -3.5593,-1.37397 z m -794.98976,11.38347 c 0.94872,-0.80439 -6.95431,-12.88122 -9.40057,-14.36528 -1.414,-0.85783 -3.7272,-4.07331 -5.14044,-7.14551 -1.41323,-3.07219 -3.1711,-5.9576 -3.90636,-6.41201 -0.73527,-0.45443 -1.33684,-2.25679 -1.33684,-4.00526 0,-3.54888 -4.47311,-7.33944 -8.63002,-7.31316 -1.48682,0.009 -6.90332,-0.85157 -12.03665,-1.91325 -5.13333,-1.0617 -13.23333,-2.61927 -18,-3.4613 -4.76667,-0.84201 -10.53749,-2.68105 -12.82404,-4.08674 -5.71809,-3.51527 -7.93776,-3.22087 -11.44093,1.51744 -1.65631,2.24026 -5.94023,5.99026 -9.51983,8.33333 -3.57959,2.34305 -9.89239,6.50176 -14.02844,9.24159 -12.69773,8.41129 -17.23419,10.39205 -27.56497,12.03575 -9.76896,1.55432 -12.25537,3.01108 -7.62179,4.46554 1.28334,0.40283 4.83516,1.90204 7.89296,3.33156 8.40153,3.92775 17.23648,6.24211 29.77371,7.79936 6.23333,0.77426 13.13333,1.96592 15.33333,2.64815 3.45468,1.07131 87.1448,0.43716 88.45088,-0.67021 z m 465.57383,-2.61532 c 1.89998,-1.82031 4.06788,-3.30966 4.81753,-3.30966 0.74965,0 4.4132,-3.3 8.14121,-7.33333 3.728,-4.03333 7.43183,-7.33333 8.2307,-7.33333 3.12553,0 1.16748,-2.6224 -4.88083,-6.53686 -3.48333,-2.25441 -8.56569,-5.67535 -11.29413,-7.60208 -6.28462,-4.438 -9.75466,-3.62868 -14.98572,3.49515 -2.17059,2.95596 -8.32059,8.14504 -13.66667,11.53127 -5.34608,3.38624 -9.72014,6.85182 -9.72014,7.70132 0,2.04376 2.77436,4.74453 4.87378,4.74453 0.92059,0 5.15059,2.10235 9.4,4.67188 8.86535,5.36068 13.46603,5.35372 19.08427,-0.0289 z m 254.94343,-0.18524 c 2.8113,-1.94824 7.2243,-6.42056 9.8067,-9.93851 4.3515,-5.92792 11.2251,-20.57318 11.2251,-23.91675 0,-0.95004 -4.0252,-1.38052 -11.6666,-1.24767 -6.4167,0.1116 -14.8167,-0.23122 -18.6667,-0.76173 -5.7918,-0.79805 -7,-0.61547 -7,1.05792 0,1.11236 -0.9,2.7694 -2,3.68232 -1.1,0.91292 -2,2.79772 -2,4.18846 0,2.49733 -6.9651,16.62352 -9.4067,19.07821 -2.8059,2.82083 -0.8274,4.6772 7.74,7.26237 8.462,2.55335 12.6422,3.62098 15.595,3.98296 0.694,0.0851 3.5619,-1.43934 6.3732,-3.38758 z M 1254,406.48443 c 1.4666,0.0209 6.8666,0.19221 12,0.38063 7.3117,0.26838 11.0661,-0.35134 17.3333,-2.86102 4.4,-1.76198 8.57,-3.68369 9.2667,-4.27048 0.6966,-0.58678 2.5074,-1.06688 4.0238,-1.06688 3.6304,0 12.7095,-6.22542 12.7095,-8.71473 0,-1.07881 1.2225,-1.95193 2.7329,-1.95193 4.8281,0 9.834,-3.582 13.7938,-9.87022 2.123,-3.37139 4.4036,-6.12979 5.068,-6.12979 0.6644,0 2.1341,-2.25 3.2661,-5 1.1319,-2.75 3.8012,-6.61617 5.9319,-8.5915 2.6822,-2.48671 3.874,-4.87204 3.874,-7.75432 0,-2.28955 0.7044,-5.47338 1.5654,-7.07516 0.861,-1.60179 2.6719,-9.51235 4.0243,-17.57902 2.0796,-12.40408 2.2224,-16.10649 0.9256,-24 -3.2575,-19.82767 -10.5095,-34.6976 -24.7885,-50.82736 -3.8169,-4.31161 -8.5383,-9.81085 -10.4921,-12.22053 -1.9538,-2.40967 -5.4309,-5.34143 -7.7269,-6.51503 -2.296,-1.1736 -6.3928,-4.00205 -9.1041,-6.28544 -2.7112,-2.2834 -6.6976,-5.49457 -8.8586,-7.13593 -4.3278,-3.28723 -22.617,-12.34905 -24.9237,-12.34905 -0.7997,0 -4.1166,-1.28874 -7.371,-2.86388 -3.2544,-1.57513 -8.4671,-3.15316 -11.5838,-3.50673 -6.6661,-0.75625 -7.075,0.46179 -3.1338,9.33495 1.3931,3.13628 3.1944,7.38351 4.003,9.43828 0.936,2.37849 3.2858,4.48364 6.4672,5.79371 10.5325,4.33728 13.5275,6.14706 23.8786,14.42897 22.7197,18.17797 40.142,38.19191 42.4689,48.78629 0.477,2.17172 1.8417,5.89255 3.0326,8.26851 4.01,8.00004 1.654,36.07862 -3.8866,46.31991 -9.1412,16.89665 -18.7687,28.10708 -33.8299,39.39203 -5.1333,3.84628 -10.6582,8.25655 -12.2775,9.8006 -1.6194,1.54405 -4.3194,2.81015 -6,2.81355 -1.6807,0.004 -6.6558,1.53082 -11.0558,3.39428 -4.4,1.86345 -9.65,4.01937 -11.6667,4.79092 -2.0166,0.77156 -3.6666,1.90013 -3.6666,2.50796 0,1.6081 4.1506,2.51373 8,1.74554 1.8333,-0.36585 4.5333,-0.64806 6,-0.62713 z m -855.33334,-5.10136 c 4.03333,-0.70919 10.23665,-1.70039 13.78516,-2.20267 3.54852,-0.50228 6.71406,-1.59658 7.03457,-2.43181 0.32051,-0.83521 -3.13488,-7.98083 -7.67863,-15.87912 l -8.26134,-14.36055 -5.43988,1.07888 c -2.99194,0.59339 -13.69038,1.07888 -23.77432,1.07888 -10.08395,0 -18.33395,0.45 -18.33333,1 6.1e-4,0.55 0.53274,1 1.18252,1 0.64977,0 2.22673,2.20285 3.50434,4.89524 2.14135,4.51254 9.67783,15.68139 16.81516,24.91958 3.20411,4.14722 2.80379,4.13017 21.16575,0.90157 z m 297.55348,-6.94131 c 4.35972,-2.3237 8.4938,-5.28442 9.18683,-6.57937 2.82615,-5.28069 -3.97948,-13.13007 -17.87783,-20.61967 -3.77437,-2.03395 -9.61424,-6.14563 -12.97749,-9.13707 -10.85398,-9.65405 -11.7754,-9.84192 -20.94672,-4.27064 -4.37457,2.65742 -8.42804,4.83167 -9.0077,4.83167 -1.45571,0 -5.93058,4.16516 -5.93058,5.52011 0,1.69398 25.66668,18.47989 28.25691,18.47989 1.25249,0 2.85038,1.05 3.55089,2.33334 1.00965,1.84972 15.33543,13.04158 17.33889,13.54584 0.26402,0.0664 4.04708,-1.78039 8.4068,-4.1041 z m 534.64746,0.90462 c 3.9228,-1.82618 8.0497,-3.32618 9.1708,-3.33334 2.6879,-0.0172 19.7005,-7.21866 21.6437,-9.1618 0.8348,-0.83484 2.2796,-1.51789 3.2106,-1.51789 1.8524,0 9.7308,-4.19622 15.3131,-8.15611 1.9465,-1.38081 4.1478,-2.51056 4.8918,-2.51056 1.7671,0 17.569,-19.64932 17.569,-21.84668 0,-0.92867 1.5,-3.09765 3.3334,-4.81999 1.8333,-1.72233 3.3333,-4.47717 3.3333,-6.12188 0,-1.6447 1.2,-5.78985 2.6667,-9.21145 3.0657,-7.15196 3.2185,-12.1328 0.7887,-25.70951 -1.1243,-6.28224 -2.7468,-10.78365 -4.5966,-12.7526 -1.5723,-1.67371 -2.8588,-4.72404 -2.8588,-6.77852 0,-7.7656 -20.7626,-29.88628 -39.9881,-42.60371 -12.9375,-8.55794 -16.8153,-9.51838 -15.4329,-3.82233 0.4894,2.01667 1.1906,6.96667 1.5581,11 1.0798,11.84864 1.6021,13.02577 7.615,17.16273 11.7502,8.08439 20.0819,17.87567 23.5356,27.65858 4.0118,11.36395 4.046,18.40796 0.1511,31.17869 -3.1587,10.35735 -7.8281,16.76215 -19.1854,26.31594 -4.6679,3.92661 -5.8997,4.30438 -13.6555,4.18804 -7.332,-0.11 -9.0238,-0.62063 -12.0906,-3.64927 -4.9215,-4.86023 -8.7896,-13.93232 -7.7339,-18.13863 1.3202,-5.26009 7.9045,-10.04941 13.8158,-10.04941 6.8997,0 11.6077,3.93995 12.7438,10.66497 1.7052,10.09239 6.9889,8.64647 12.8557,-3.51801 3.858,-7.99927 4.1203,-9.40756 3.3855,-18.17327 -0.5465,-6.51766 -1.6516,-10.65844 -3.5188,-13.18388 -1.4971,-2.02501 -2.7221,-4.59558 -2.7221,-5.71241 0,-1.11682 -2.6819,-4.82959 -5.9598,-8.25059 -5.1625,-5.38789 -6.2458,-5.98268 -8.0974,-4.44595 -2.7076,2.24708 -6.2706,9.22016 -10.6325,20.80887 -1.8819,4.99964 -4.4733,10.30227 -5.7587,11.7836 -1.2854,1.48134 -4.9887,6.59334 -8.2296,11.36 -3.2408,4.76667 -8.0582,10.76667 -10.7053,13.33334 -5.6901,5.51718 -19.4843,14.95716 -26.7377,18.29778 -2.8289,1.30288 -5.159,3.30142 -5.1779,4.44118 -0.1176,7.08565 28.3192,35.79963 38.1665,38.53848 0.1106,0.0308 3.4106,-1.43824 7.3334,-3.26441 z m 20.2812,-96.01303 c -1.0857,-2.82935 0.3988,-6.00001 2.8093,-6.00001 2.131,0 2.6116,2.29711 1.2326,5.89095 -1.0221,2.66347 -3.0408,2.71794 -4.0419,0.10907 z m -214.3928,94.71747 c 1.1829,-1.8054 2.493,-5.83376 2.9112,-8.95194 0.4182,-3.11816 1.7914,-6.77598 3.0514,-8.12848 1.8965,-2.03571 4.5907,-11.43887 3.5699,-12.45967 -0.1628,-0.1628 -5.3943,-1.31306 -11.6256,-2.55616 -6.2313,-1.2431 -16.3756,-3.99141 -22.543,-6.10737 -14.37776,-4.93285 -17.17044,-4.9606 -18.16651,-0.18052 -0.42023,2.01667 -2.23167,7.42855 -4.0254,12.0264 -4.21699,10.80931 -4.12572,11.91566 1.07199,12.99442 2.38333,0.49465 7.33333,2.55374 11.00002,4.57577 3.6666,2.02204 9.6666,4.40395 13.3333,5.29313 3.6667,0.88919 8.7667,2.75262 11.3333,4.14094 6.1722,3.33856 7.5355,3.2512 10.0894,-0.64652 z m -577.42268,-8.33198 c 14.38178,-4.4939 14.46762,-4.6503 9.3588,-17.05216 -1.81252,-4.4 -3.30974,-9.51649 -3.32714,-11.36999 -0.0175,-1.8535 -0.92335,-4.64305 -2.01319,-6.19902 -1.95215,-2.7871 -2.05187,-2.79316 -6.72767,-0.40931 -2.61037,1.33085 -5.46869,2.96536 -6.3518,3.63224 -2.27948,1.72136 -11.0735,4.05265 -19.32078,5.12196 -4.7613,0.61732 -7.46507,1.69229 -8.33234,3.31279 -1.00862,1.88464 -0.70348,2.58314 1.4234,3.25818 1.489,0.4726 3.95463,3.51288 5.47918,6.7562 1.52453,3.24332 3.26537,5.89695 3.86853,5.89695 0.60316,0 1.50805,1.35 2.01087,3 1.86438,6.11794 4.60534,7.82088 11.1792,6.94564 3.34745,-0.44569 9.08628,-1.74774 12.75294,-2.89348 z m -276.66666,1.09239 c 0,-0.65384 -1.44325,-1.55103 -3.20722,-1.99376 -3.90802,-0.98084 -23.44854,-21.49251 -29.70884,-31.18532 -6.99396,-10.82874 -16.11487,-29.63172 -17.60678,-36.2968 -1.58637,-7.08712 1.4717,-32.44726 4.82368,-40.00201 6.85922,-15.4594 25.81008,-35.0794 40.02043,-41.43352 7.86741,-3.51789 19.60119,-6.31733 28.93472,-6.90321 l 5.25597,-0.32993 2.33032,-9.26387 c 1.28167,-5.09513 3.33003,-11.88159 4.5519,-15.08102 1.22188,-3.19942 1.83876,-6.19997 1.37085,-6.66786 -0.46791,-0.46791 -3.68145,-0.0475 -7.14121,0.93445 -3.45976,0.98187 -9.59048,2.2484 -13.62382,2.81452 -4.03333,0.56612 -10.93333,2.35699 -15.33333,3.97971 -4.4,1.62272 -11.23548,4.07294 -15.18995,5.44495 -3.95448,1.37201 -7.85448,3.00638 -8.66666,3.63194 -0.8122,0.62558 -6.24382,3.6928 -12.07027,6.81606 -11.75303,6.3002 -26.30789,18.40452 -29.65272,24.66021 -5.38387,10.06923 -10.84614,21.84017 -12.40438,26.73091 -0.93459,2.93333 -2.60907,7.57761 -3.72107,10.32062 -1.59147,3.92574 -1.853746,8.32475 -1.23219,20.66667 1.2641,25.1003 7.64395,42.33391 20.6597,55.80714 15.17199,15.70525 30.09335,23.8772 49.61087,27.17027 8.73447,1.4737 12,1.52265 12,0.17985 z m 600.12603,-0.96309 c 0.98225,-1.18352 4.80572,-3.88248 8.4966,-5.99768 3.69088,-2.1152 9.58735,-6.39686 13.10325,-9.51479 6.12808,-5.43444 6.30608,-5.79047 4.30235,-8.60528 -2.59853,-3.65038 -24.57843,-20.39704 -26.771,-20.39704 -0.88412,0 -3.32868,1.68297 -5.43236,3.73993 -6.24175,6.10313 -16.88944,14.25401 -20.86229,15.97023 -5.88015,2.54012 -5.91388,5.19988 -0.14134,11.14378 6.05606,6.23585 20.19039,15.81273 23.3377,15.81273 1.19966,0 2.98485,-0.96835 3.96709,-2.15188 z m -568.12603,-5.13906 c 2.56667,-0.97752 7.41461,-2.74761 10.77323,-3.93353 3.3586,-1.18591 7.82085,-3.94556 9.91612,-6.13254 2.09525,-2.18698 4.9392,-3.97633 6.31988,-3.97633 3.12676,0 13.30121,-6.79979 20.19908,-13.49945 5.92178,-5.75163 5.49802,-7.35879 -3.11911,-11.82959 -7.56473,-3.92477 -28.23592,-25.07533 -33.23359,-34.00429 -4.89283,-8.74166 -12.18894,-27.62013 -12.18894,-31.53854 0,-6.31409 -9.60623,-0.91924 -17.11455,9.61151 -7.85392,11.01549 -9.32524,14.65432 -9.70614,24.00477 -0.3538,8.68531 2.44888,17.25559 5.64298,17.25559 0.78126,0 3.87384,-2.1 6.87242,-4.66667 4.59577,-3.9338 6.46121,-4.66666 11.87862,-4.66666 10.89657,0 15.70663,8.77249 11.23299,20.48654 -5.76111,15.08526 -30.48656,13.32264 -38.25615,-2.72718 -6.51864,-13.46572 -7.83689,-31.10534 -3.01508,-40.34502 0.98,-1.87789 1.80424,-4.31435 1.83164,-5.41435 0.10347,-4.15461 6.58763,-12.39425 13.32308,-16.93017 4.05512,-2.73088 7.59979,-6.32292 8.44239,-8.55524 0.83837,-2.22109 2.43824,-3.84792 3.78416,-3.84792 1.91168,0 2.34916,-1.26099 2.42857,-7 0.0533,-3.85 0.22244,-9.4 0.37596,-12.33333 0.26954,-5.15036 0.1244,-5.34812 -4.22832,-5.76414 -2.47908,-0.23693 -8.17908,0.89724 -12.66666,2.52038 -24.38924,8.8215 -42.14091,24.89861 -48.01516,43.48582 -3.17686,10.05215 -5.26147,21.32686 -4.37184,23.64521 1.08988,2.84016 -0.29222,6.11273 -2.58156,6.11273 -2.91715,0 -2.223,1.97671 2.80932,8 2.56666,3.07209 4.66666,6.44384 4.66666,7.49277 0,3.00368 8.8725,19.8472 15.5998,29.61463 7.54584,10.95588 11.03435,14.8926 13.19699,14.8926 0.91591,0 3.54987,1.58577 5.85325,3.52395 10.72566,9.02505 12.17932,9.65437 20.6833,8.95433 4.4,-0.36221 10.1,-1.45836 12.66666,-2.43588 z m 397.33333,-7.72676 c 11.29873,-7.39513 11.59766,-9.54032 2.40458,-17.25549 -3.88918,-3.26395 -9.32125,-7.28667 -12.07125,-8.93938 -2.75,-1.65272 -5,-3.47573 -5,-4.05114 0,-1.89644 -12.38296,-10.7363 -15.03951,-10.7363 -1.43104,0 -4.78257,2.33075 -7.44785,5.17946 -2.66529,2.84869 -6.19597,5.8698 -7.84597,6.71357 -4.29204,2.19485 -3.79519,3.43435 3.33333,8.31569 6.94115,4.75304 21.4974,16.80115 27.43589,22.7085 2.07308,2.0622 4.17308,3.74677 4.66667,3.74348 0.4936,-0.003 4.79744,-2.55856 9.56411,-5.67839 z m 244.35728,1.68436 c 1.2558,-1.46667 3.48915,-2.66667 4.96299,-2.66667 1.47385,0 2.67972,-0.48237 2.67972,-1.07194 0,-0.58956 4.2,-4.26495 9.33333,-8.16751 5.13334,-3.90256 9.33334,-7.56889 9.33334,-8.1474 0,-0.99427 -5.21219,-4.23996 -18.49414,-11.51652 -6.44194,-3.52924 -7.55861,-3.22699 -15.87309,4.29639 -1.99803,1.8079 -6.93277,5.71514 -10.96611,8.68274 -4.03333,2.9676 -7.33333,6.07503 -7.33333,6.9054 0,0.83036 2.45567,3.0493 5.45704,4.93096 3.00137,1.88167 7.50137,4.76898 10,6.41623 5.60463,3.69494 7.96355,3.76815 10.90025,0.33832 z M 518.9246,362.50701 c 9.50008,-3.68226 27.86649,-14.65653 28.82508,-17.22352 0.229,-0.61322 -1.40852,-2.74093 -3.63892,-4.72822 -2.23041,-1.98731 -4.36687,-4.57522 -4.74769,-5.75094 -0.38082,-1.1757 -2.90952,-3.63765 -5.61935,-5.47098 -2.70981,-1.83334 -6.28344,-4.68334 -7.9414,-6.33334 -1.65795,-1.65 -3.75273,-3 -4.65507,-3 -2.17996,0 -19.82462,9.08106 -22.91587,11.79395 -1.33942,1.17547 -4.33942,2.75271 -6.66667,3.50497 -4.96107,1.60362 -6.28977,6.66283 -3.05287,11.62416 1.10411,1.69231 1.97451,4.87692 1.93423,7.07692 -0.0935,5.09996 2.02987,10.47595 5.51329,13.95938 2.59704,2.59704 2.97984,2.62818 7.71992,0.62809 2.74306,-1.15745 9.60346,-3.89367 15.24532,-6.08047 z m 451.50896,5.10718 c 1.63175,-1.96614 3.99499,-10.65436 5.44836,-20.0304 1.17906,-7.60635 0.30695,-8.55346 -14.93444,-16.2186 -5.28778,-2.65934 -11.41417,-5.99779 -13.61417,-7.41882 -6.69004,-4.3212 -7.41476,-4.41426 -11.1041,-1.42597 -1.95942,1.58707 -6.1849,4.51924 -9.38998,6.51593 -6.59044,4.1057 -9.50592,6.64126 -9.50592,8.26718 0,1.75762 13.24592,10.93912 21.62263,14.98785 4.19244,2.02635 11.97177,6.68976 17.28741,10.36312 10.27492,7.10049 11.93265,7.67989 14.19021,4.95971 z M 331.34602,355.66668 c -0.77665,-3.88688 -3.79787,-14.42757 -7.38383,-25.76133 -0.71254,-2.25207 -1.30426,-5.55207 -1.31493,-7.33334 -0.0107,-1.78126 -0.93983,-5.88186 -2.0648,-9.11244 -1.68452,-4.83746 -1.81028,-8.01321 -0.71281,-18 0.7329,-6.66943 1.72012,-19.73524 2.19378,-29.03513 0.85171,-16.72175 0.83022,-16.9008 -1.94153,-16.17598 -4.70344,1.22998 -7.06689,-1.92368 -6.10311,-8.14361 0.46347,-2.99099 1.11526,-6.41252 1.44843,-7.60337 0.65644,-2.3464 0.41656,-2.38842 -29.46723,-5.16146 -25.23913,-2.34205 -57.68553,-1.69596 -63.20617,1.2586 C 220.30036,231.93309 220,233.28968 220,243.217 c 0,7.72968 0.55098,11.58044 1.80602,12.62202 1.84401,1.5304 7.78283,0.81614 21.10424,-2.53824 5.32888,-1.34182 6.81473,-1.189 12.17325,1.2521 3.35694,1.52925 7.67832,2.78046 9.6031,2.78046 4.3064,0 13.01174,5.87046 19.54916,13.18298 2.69634,3.01602 5.47354,5.48369 6.17157,5.48369 2.41128,0 7.90045,18.23211 9.00976,29.92567 0.48757,5.13965 0.0816,8.50941 -1.36117,11.29949 -1.13076,2.18667 -2.05594,5.51463 -2.05594,7.3955 0,1.88085 -1.8,6.60917 -4,10.50736 -2.2,3.89817 -4,8.24345 -4,9.65617 0,4.20144 10.31452,9.44449 22.09202,11.22976 5.69264,0.86291 11.60074,2.07475 13.12912,2.69297 1.52837,0.61823 4.17653,1.16208 5.88481,1.20856 2.80292,0.0763 3.02145,-0.33825 2.24008,-4.24881 z m 50.82064,3 c 15.78614,0 16.5,-0.1192 16.5,-2.75432 0,-1.51488 -0.72015,-4.06488 -1.60031,-5.66667 -1.72865,-3.14589 -2.92245,-10.10861 -5.30011,-30.91234 -1.3032,-11.40263 -1.18193,-15.55366 0.83746,-28.66667 1.29872,-8.43334 2.83584,-18.43472 3.4158,-22.2253 0.57997,-3.79058 1.46062,-8.74108 1.95701,-11.0011 0.72085,-3.28207 0.41149,-4.27767 -1.537,-4.94646 -1.34173,-0.46053 -5.48609,-2.27984 -9.20968,-4.04292 -3.72359,-1.76308 -9.72359,-3.71902 -13.33333,-4.34656 -3.60975,-0.62752 -11.36317,-2.3985 -17.22984,-3.9355 -15.3252,-4.01504 -14.80211,-4.19383 -18.03601,6.1645 -5.90018,18.89847 -4.51047,58.52598 2.7547,78.55077 1.55299,4.28041 3.93879,11.54852 5.3018,16.15133 1.36302,4.60281 4.4108,10.80885 6.77287,13.7912 3.7472,4.73123 4.79892,5.32159 8.25064,4.63124 2.1758,-0.43516 11.381,-0.7912 20.456,-0.7912 z m 364.52954,-2.41379 c 2.55041,-2.0609 6.73712,-5.02558 9.30378,-6.58817 2.56667,-1.56259 7.64226,-5.87449 11.27908,-9.58203 l 6.6124,-6.74094 -7.94573,-7.37232 c -4.37016,-4.05478 -12.97796,-10.80324 -19.12844,-14.9966 -6.15049,-4.19338 -12.00891,-8.88524 -13.01871,-10.42639 -1.0098,-1.54115 -3.38389,-3.50736 -5.27578,-4.36936 -3.21459,-1.46467 -4.10856,-0.9762 -13.65508,7.46116 -10.61468,9.38141 -12.67778,10.90084 -19.80912,14.58899 -4.18395,2.16384 -6.90588,5.77278 -4.35395,5.77278 0.70821,0 3.53937,2.02147 6.29149,4.49214 4.50608,4.04528 10.7854,8.52218 24.18026,17.23958 2.48036,1.61422 7.28036,5.47104 10.66666,8.57071 3.38631,3.09967 7.07022,5.64967 8.18647,5.66667 1.11624,0.0171 4.11624,-1.6553 6.66667,-3.71622 z m 397.9704,-0.25558 c 3.6667,-0.63676 10.1815,-1.5479 14.4773,-2.02476 l 7.8105,-0.86704 -0.9276,-4.21942 c -1.7435,-7.93068 -2.8577,-28.21257 -1.8067,-32.88608 0.5773,-2.56666 1.0639,-7.08316 1.0814,-10.03665 0.017,-2.95351 0.8039,-6.55351 1.7476,-8 0.9437,-1.44651 3.1442,-6.23002 4.8901,-10.63002 5.3597,-13.5076 14.4007,-21.93968 29.3941,-27.41418 6.9434,-2.53524 11.4504,-3.1867 22.6667,-3.27631 13.4693,-0.1076 14.0165,-0.22579 14.4357,-3.11741 0.2396,-1.65304 -0.1322,-3.72252 -0.8262,-4.59882 -0.694,-0.8763 -1.6718,-3.86761 -2.1729,-6.64734 -0.5011,-2.77975 -2.058,-7.72975 -3.4598,-11 -2.5414,-5.9289 -2.5682,-5.94594 -9.3504,-5.94594 -3.741,0 -7.8515,-0.5618 -9.1345,-1.24845 -1.4096,-0.75437 -4.409,-0.77911 -7.579,-0.0625 -3.3512,0.75757 -8.8586,0.62734 -15.2463,-0.36052 -11.6017,-1.79423 -39.0926,-1.20408 -42.5177,0.91272 -0.5509,0.34049 -7.5598,1.27253 -15.5753,2.0712 -20.1071,2.00349 -19.6187,1.78021 -18.542,8.47477 0.4906,3.05035 2.8793,10.04608 5.3083,15.54608 9.0549,20.50331 10.6265,28.70416 10.6039,55.33334 -0.019,22.67557 -1.9959,42.04592 -4.867,47.69422 -2.6782,5.26864 0.4173,5.63256 19.5898,2.30307 z m -500.22436,-6.37582 c 5.00992,-3.2841 9.43268,-6.81477 9.82839,-7.84594 1.02105,-2.66084 -2.18227,-5.75099 -14.66776,-14.14959 -6.01492,-4.04604 -12.88075,-9.21708 -15.25742,-11.4912 -5.12957,-4.90825 -9.41322,-5.24148 -14.58704,-1.13475 -4.87729,3.87136 -8.07654,5.83628 -13.42509,8.24542 -4.71427,2.12344 -5.71124,5.64468 -2,7.06392 2.28083,0.87222 12.35627,8.1728 16.33333,11.83498 7.83252,7.21239 21.19407,15.3955 23.25296,14.24099 0.77754,-0.436 5.51272,-3.47972 10.52263,-6.76383 z m 461.19696,2.11672 c 4.5288,-9.64392 6.9927,-36.68934 4.7135,-51.7382 -1.5659,-10.33945 -6.037,-30.25579 -7.6328,-34 -0.6251,-1.46667 -2.1573,-6.56667 -3.4049,-11.33333 -1.2476,-4.76667 -2.7212,-9.26667 -3.2745,-10 -0.5534,-0.73334 -1.4068,-3.00903 -1.8964,-5.0571 -1.2946,-5.415 -3.6095,-5.61086 -12.191,-1.0315 -4.214,2.24873 -8.7276,4.0886 -10.0303,4.0886 -3.0913,0 -14.0463,4.70909 -15.1647,6.51865 -0.4779,0.77332 0.1307,2.93168 1.3525,4.79636 2.1479,3.27813 4.0793,11.11555 7.5618,30.68499 1.4854,8.34713 1.8024,36.60151 0.688,61.33333 l -0.3604,8 11.3333,1.5147 c 6.2333,0.83308 14.6314,1.43308 18.6624,1.33333 7.08,-0.1752 7.4078,-0.34889 9.6435,-5.10983 z m -274.67495,-2.7382 c 3.73586,-3.11666 8.22449,-7.01666 9.97472,-8.66666 1.75022,-1.65 4.65494,-3 6.45494,-3 1.8,0 3.27274,-0.40276 3.27274,-0.89502 0,-1.33021 -4.24283,-5.77165 -5.51356,-5.77165 -0.60515,0 -5.75802,-3.3 -11.45082,-7.33333 -5.6928,-4.03334 -11.28469,-7.33334 -12.42641,-7.33334 -1.14173,0 -2.78979,-0.7139 -3.66235,-1.58646 -1.78897,-1.78898 -8.87145,1.5991 -15.75417,7.53638 -2.12265,1.83107 -5.65936,4.80178 -7.85936,6.60156 l -4,3.27235 7.85828,7.08808 c 9.15798,8.2604 20.43477,15.68159 23.89427,15.72464 1.33056,0.0165 5.47584,-2.51988 9.21172,-5.63655 z m -403.56426,1.74138 c 0.69667,-0.69224 5.18437,-1.88262 9.97267,-2.64528 4.7883,-0.76267 12.5883,-2.78262 17.33333,-4.48878 8.44779,-3.03754 8.62219,-3.19753 8.38027,-7.68804 -0.13588,-2.52226 -0.75787,-7.28594 -1.38219,-10.58594 -0.84251,-4.45332 -0.34937,-10.46819 1.91303,-23.33334 1.67648,-9.53333 2.81228,-17.96611 2.524,-18.73948 -0.28828,-0.77339 -3.43796,-2.79764 -6.9993,-4.49833 -11.1227,-5.31159 -16.85408,-8.20062 -25.77964,-12.9948 l -8.63781,-4.63963 -2.36219,2.91716 c -1.2992,1.60444 -2.36217,4.53071 -2.36217,6.50279 0,1.97209 -0.57307,4.15869 -1.27348,4.8591 -0.70041,0.70042 -1.56637,4.27042 -1.92436,7.93334 -0.35799,3.66292 -1.2696,9.81094 -2.0258,13.66228 -0.88475,4.50597 -0.96151,11.87391 -0.21533,20.66667 0.63777,7.51533 1.1652,15.98934 1.17204,18.83113 0.0179,7.41829 3.94714,15.49977 7.53609,15.49977 1.57529,0 3.43417,-0.56637 4.13084,-1.25862 z m 623.39071,-5.06759 c 0.8718,-2.29308 1.1119,-11.13017 0.643,-23.66667 -0.4115,-11.00392 -0.7246,-23.69677 -0.6957,-28.20634 0.038,-5.97877 -0.6851,-9.4091 -2.6711,-12.66667 -1.498,-2.4571 -2.7259,-5.94739 -2.7286,-7.7562 -0.01,-5.75147 -4.1344,-14.71124 -6.7741,-14.71124 -1.3238,0 -2.7777,0.6 -3.2309,1.33333 -0.4532,0.73333 -1.7176,1.33333 -2.8097,1.33333 -1.0922,0 -4.4695,1.2 -7.5051,2.66667 -3.0357,1.46667 -5.9789,2.66667 -6.5406,2.66667 -0.5617,0 -5.5376,2.85 -11.0575,6.33333 -12.3632,7.80171 -13.89172,10.69057 -11.32948,21.41235 0.9973,4.17321 1.86255,8.48765 1.92278,9.58765 0.0603,1.1 0.596,7.1689 1.19058,13.48643 l 1.08112,11.48643 7.0876,1.58613 c 3.8982,0.87237 7.8525,2.50781 8.7874,3.63431 2.0617,2.48424 27.5518,14.90337 30.8726,15.04156 1.4051,0.0585 2.9315,-1.38807 3.7577,-3.56107 z m 132.6346,2.17736 c 0.5038,-0.81521 4.2892,-2.96924 8.412,-4.78675 7.7075,-3.39776 25.2186,-18.66821 27.2133,-23.73106 0.5778,-1.46667 1.7778,-3.27268 2.6667,-4.01338 3.7795,-3.14961 10.3616,-12.82269 12.378,-18.191 1.1974,-3.1876 3.7147,-9.56667 5.5941,-14.17572 2.5113,-6.15881 3.0233,-8.77385 1.9316,-9.86555 -4.0796,-4.0796 -26.2143,-3.12208 -32.3288,1.39851 -1.8687,1.38159 -5.3127,2.9326 -7.6534,3.44669 -8.6983,1.91048 -20.0983,20.43394 -24.311,39.5023 -2.0144,9.11759 -1.3128,26.70311 1.1853,29.71319 2.1189,2.55304 3.6346,2.76989 4.9122,0.70277 z M 274.74925,335.69041 c 8.58204,-11.37744 9.4432,-14.6464 9.78424,-37.14096 0.11573,-7.63559 -0.37082,-9.51073 -3.72202,-14.34369 -4.56049,-6.57699 -14.47058,-14.00388 -23.21165,-17.39544 -3.58991,-1.3929 -11.73841,-2.77654 -19.07748,-3.2394 -15.61604,-0.98488 -17.82552,0.0443 -16.88213,7.86316 1.69068,14.01248 7.68782,28.91532 13.61578,33.83509 1.25695,1.04316 3.72198,4.7317 5.47784,8.19674 1.75587,3.46502 5.15906,7.65808 7.56266,9.31788 2.4036,1.6598 7.77562,6.21246 11.93785,10.11702 4.16223,3.90456 8.3994,7.0992 9.41592,7.0992 1.01653,0 3.31108,-1.93932 5.09899,-4.3096 z m 291.57252,-1.85277 c 3.85635,-2.65597 7.01155,-5.35597 7.01155,-6 0,-0.64403 0.9,-1.17096 2,-1.17096 1.1,0 2,-0.66419 2,-1.47599 0,-0.81178 -0.86928,-1.14241 -1.93175,-0.7347 -1.1453,0.4395 -2.24712,-0.2524 -2.70642,-1.69954 -0.8649,-2.72505 -19.42666,-18.44213 -22.23412,-18.82664 -4.01878,-0.5504 -6.43988,0.22256 -10.0254,3.20075 -2.07294,1.72179 -5.44467,3.53967 -7.49274,4.03973 -2.04806,0.50006 -4.07397,1.82184 -4.50201,2.9373 -0.85641,2.23177 4.34047,8.55909 7.02992,8.55909 0.91996,0 3.96537,2.21801 6.76759,4.92892 6.7711,6.55048 12.64422,10.81683 15.08338,10.95689 1.09366,0.0628 5.14366,-2.05888 9,-4.71485 z m 355.04888,-11.27088 c 5.47946,-4.45495 10.14356,-8.88692 10.36465,-9.84881 0.22109,-0.96191 -1.57891,-2.99346 -4,-4.51455 -2.42109,-1.52109 -6.16503,-4.30607 -8.31984,-6.18881 -6.76892,-5.91427 -9.29552,-5.73998 -17.80756,1.22842 -4.18436,3.42554 -9.25412,7.24722 -11.26616,8.49262 -5.97207,3.6966 -4.63387,6.28157 6.65824,12.86157 5.68333,3.31172 11.25013,6.03215 12.37067,6.0454 1.12053,0.0133 6.52053,-3.62088 12,-8.07584 z m -423.44138,0.76659 c 4.05151,-3.3 8.21067,-6 9.24256,-6 1.03191,0 2.25115,-0.97711 2.70941,-2.17136 0.96672,-2.51922 -6.35522,-9.6705 -14.19664,-13.86575 l -4.98205,-2.66545 -2.68461,2.68461 c -2.28538,2.28537 -2.68462,4.43615 -2.68462,14.46239 0,16.21605 1.13059,16.89422 12.59595,7.55556 z m 293.17626,-4.72938 c 4.15861,-3.10998 7.56112,-6.19937 7.56112,-6.86528 0,-0.6659 1.8,-1.83821 4,-2.60513 5.10105,-1.77824 5.24908,-5.70788 0.33333,-8.84919 -2.01666,-1.2887 -5.68324,-4.12989 -8.14794,-6.31373 -2.46471,-2.18384 -7.86471,-6.97799 -12,-10.65367 -7.1603,-6.36444 -16.4951,-13.81756 -19.65044,-15.68937 -1.48859,-0.88306 -4.97932,1.62113 -17.24666,12.37241 -3.76533,3.3 -7.99556,6.72363 -9.4005,7.60805 -2.41814,1.52224 -2.30542,1.82658 2.11221,5.70276 5.11008,4.48378 17.79191,13.35586 19.09097,13.35586 0.92123,0 5.33471,3.74509 12.72088,10.79441 5.9292,5.65879 9.6434,7.9904 11.62703,7.29898 0.79139,-0.27586 4.84139,-3.0461 9,-6.1561 z m -195.81798,-3.17821 c 7.0415,-3.744 16.71244,-11.13225 16.71244,-12.76772 0,-0.61484 -2.1,-1.81095 -4.66667,-2.65803 -2.56667,-0.84708 -4.66667,-2.05317 -4.66667,-2.68021 0,-0.62705 -1.27462,-1.54464 -2.8325,-2.03909 -1.55788,-0.49446 -4.62003,-2.93489 -6.80479,-5.42318 -2.18476,-2.48831 -4.71713,-4.52419 -5.62751,-4.52419 -0.91038,0 -2.6896,-1.14296 -3.95381,-2.5399 -1.90519,-2.10522 -2.79628,-2.27592 -5.20665,-0.99746 -6.61335,3.50772 -18.04208,11.76145 -18.7154,13.51609 -0.91212,2.37696 4.85212,8.21685 12.99804,13.16864 3.45085,2.09772 7.21365,5.24772 8.3618,7 2.66805,4.07198 6.66874,4.05672 14.40172,-0.0549 z m 93.53358,-3.83595 c 13.75083,-9.67522 28.33741,-21.21119 28.9984,-22.93367 0.50737,-1.32221 -0.92019,-3.10413 -4.19173,-5.23224 -2.72863,-1.77496 -8.86115,-6.87136 -13.62782,-11.32536 -4.76666,-4.454 -9.78845,-8.46148 -11.15953,-8.9055 -1.60003,-0.51818 -4.31313,0.55624 -7.57517,2.99982 -2.79527,2.09394 -10.07347,7.5184 -16.1738,12.05438 -6.10032,4.53597 -12.29149,9.17465 -13.75816,10.30818 -2.98973,2.31064 -4.29616,0.7037 11.22359,13.80541 8.98369,7.58398 16.48862,12.30212 19.44307,12.22328 1.46667,-0.0392 4.53619,-1.38656 6.82115,-2.9943 z m 289.84551,-2.92313 c 0,-2.48011 -0.5225,-4.83221 -1.16112,-5.22689 -0.63861,-0.3947 -1.52361,-2.53011 -1.96666,-4.74536 -1.01046,-5.05227 -4.52996,-5.31654 -8.89702,-0.66802 l -3.15629,3.35972 6.48144,6.58039 c 3.56479,3.61921 6.98053,6.27192 7.59055,5.89492 0.61001,-0.37701 1.1091,-2.71465 1.1091,-5.19476 z m -92.97295,-4.77791 c 0.90178,-1.46033 4.65944,-4.36437 8.35032,-6.45341 11.03434,-6.24546 11.13745,-6.82868 2.52452,-14.28003 -4.1251,-3.56876 -9.60055,-8.43865 -12.1677,-10.82199 -2.56713,-2.38333 -5.68574,-4.33333 -6.93025,-4.33333 -1.24451,0 -4.60628,2.4 -7.4706,5.33333 -2.86432,2.93334 -5.88323,5.33334 -6.70867,5.33334 -2.91241,0 -13.95792,8.28037 -13.95164,10.45898 0.007,2.17915 21.87262,17.38114 27.32698,18.99835 3.27346,0.97059 6.84789,-0.70644 9.02704,-4.23524 z M 530.8532,303.33335 c 3.89729,-2.56667 7.54965,-4.66667 8.11639,-4.66667 1.30544,0 1.313,-5.55727 0.009,-7.34092 -1.22679,-1.6802 -10.53763,-8.65908 -11.55181,-8.65908 -0.41295,0 -4.88243,-2.94811 -9.93216,-6.55135 -19.83372,-14.15231 -22.284,-14.17521 -26.71839,-0.24969 -2.24064,7.03642 -1.77654,9.26893 2.8901,13.90253 6.04801,6.00519 25.14905,17.88396 29.21695,18.16976 0.48599,0.0341 4.07231,-2.03792 7.96959,-4.60458 z m 427.15855,-10.01906 c 0.45971,-0.74381 3.19512,-2.55601 6.07869,-4.02709 2.88358,-1.4711 5.24287,-3.57184 5.24287,-4.66832 0,-3.7885 -10.8044,-23.28554 -12.90382,-23.28554 -3.86044,0 -25.72939,13.87343 -25.74656,16.33334 -0.009,1.28333 0.92374,2.33333 2.07268,2.33333 2.10192,0 8.1788,4.08743 16.29077,10.95747 4.56923,3.86969 7.54663,4.65239 8.96537,2.35681 z m -401.45362,-7.86103 c 1.26763,-1.40072 3.91062,-2.9452 5.87332,-3.43217 3.65159,-0.90604 9.56854,-5.60299 9.56854,-7.59565 0,-1.29218 -5.3195,-6.09508 -9.15072,-8.26207 -1.45539,-0.82319 -5.84186,-4.28377 -9.74772,-7.6902 -3.90586,-3.40643 -9.80156,-7.57841 -13.10156,-9.27109 -3.3,-1.69267 -9,-4.93116 -12.66667,-7.19663 -11.94621,-7.38103 -13.67704,-7.80215 -17.90508,-4.35632 -2.91122,2.37263 -9.90644,14.91377 -10.72345,19.22521 -0.0824,0.43518 3.62523,2.09428 8.23929,3.68692 5.06967,1.74988 10.47081,4.84971 13.6498,7.8339 2.89331,2.716 5.89331,4.96014 6.66667,4.987 0.77336,0.0268 6.2061,3.2973 12.07277,7.26769 5.86667,3.97039 11.62368,7.24841 12.79335,7.28452 1.16968,0.0361 3.16384,-1.0804 4.43146,-2.48111 z m 87.95383,-5.67977 c 3.01841,-0.85792 6.68803,-2.53805 8.15469,-3.73364 1.46667,-1.19557 5.36667,-3.91324 8.66667,-6.03925 3.3,-2.12603 8.77141,-6.67763 12.1587,-10.1147 l 6.1587,-6.2492 -9.49203,-6.83358 c -5.22063,-3.75847 -12.08868,-8.92672 -15.26236,-11.48502 -3.17368,-2.55828 -7.12837,-4.65142 -8.78821,-4.65142 -4.00731,0 -40.67127,25.95204 -40.73933,28.83674 -0.0524,2.21944 4.73982,5.64951 21.2884,15.23747 1.82813,1.05919 4.75904,2.97579 6.51314,4.25912 3.77698,2.76331 4.23174,2.79432 11.34163,0.77348 z m 89.56032,-2.60648 c 3.6269,-2.29148 8.8461,-6.19148 11.59821,-8.66667 2.75212,-2.47518 5.90212,-4.50033 7,-4.50033 3.62488,0 2.004,-4.60948 -2.81312,-8 -2.60473,-1.83333 -6.33821,-4.72675 -8.29663,-6.42981 -1.95841,-1.70306 -7.37326,-5.80543 -12.033,-9.11636 l -8.47225,-6.01991 -3.60071,3.44971 c -1.9804,1.89734 -3.94518,3.4497 -4.36621,3.4497 -1.65669,0 -16.51725,9.50915 -18.03692,11.54168 -2.42795,3.24732 0.15132,6.80759 6.09037,8.40682 3.58383,0.96502 6.80176,3.39449 10.84082,8.18457 4.95906,5.88116 12.37914,11.84592 14.7561,11.86195 0.40643,0.003 3.70643,-1.86987 7.33334,-4.16135 z m 110.65545,0.11773 c 2.80193,-2.22669 8.91872,-5.8737 13.59286,-8.10446 5.50464,-2.62712 9.04691,-5.25971 10.05539,-7.4731 1.42539,-3.12837 1.16771,-3.71112 -3.04915,-6.89553 -2.53336,-1.91309 -5.81826,-4.73131 -7.29981,-6.26269 -1.48153,-1.53139 -4.49371,-3.91344 -6.69371,-5.29346 -2.2,-1.38001 -7.9,-5.89885 -12.66666,-10.04186 -12.04192,-10.4664 -13.96543,-11.33388 -18.42275,-8.30844 -4.47243,3.0357 -11.49542,6.96033 -23.91058,13.36185 -5.31667,2.74139 -9.66667,5.78067 -9.66667,6.75397 0,0.9733 1.88195,2.79172 4.18209,4.04095 2.30016,1.24923 6.65016,4.19969 9.66667,6.5566 3.01652,2.35691 8.78457,6.54227 12.8179,9.30081 4.03334,2.75855 7.93383,5.79186 8.66776,6.74068 1.62506,2.10087 14.08502,9.51258 16.14891,9.60606 0.81583,0.0369 3.77581,-1.75467 6.57775,-3.98138 z m 152.98582,-5.85605 c 5.65765,-3.64892 20.34785,-11.60715 29.23305,-15.83665 9.3408,-4.4464 10.5005,-6.29087 7.5534,-12.01307 -2.5904,-5.02957 -6.695,-8.74328 -10.6152,-9.60432 -3.3021,-0.72527 -3.6864,-1.30009 -3.0376,-4.54395 1.1703,-5.8518 -2.3959,-6.01948 -13.2466,-0.62284 -13.05137,6.49116 -28.89569,16.82287 -28.91673,18.85592 -0.009,0.91511 2.08277,5.69144 4.64944,10.61407 2.56667,4.92264 4.66667,9.60392 4.66667,10.40284 0,2.00745 2.83142,4.6526 4.98024,4.6526 0.97913,0 3.10913,-0.85707 4.73333,-1.9046 z m -526.44813,-5.09535 c 1.2854,-3.11666 3.20869,-7.70449 4.274,-10.19517 1.06529,-2.49067 1.42918,-5.03621 0.80864,-5.65676 -0.62055,-0.62055 -5.30272,-3.30564 -10.40483,-5.96688 -5.10212,-2.66123 -11.59021,-6.05988 -14.41801,-7.55255 -2.82779,-1.49266 -8.02904,-2.9914 -11.55834,-3.33052 l -6.41689,-0.61657 -2.95827,5.82589 c -1.62704,3.20424 -4.07886,7.26072 -5.44849,9.01439 -1.89608,2.42773 -2.13152,3.62071 -0.98681,5 0.82689,0.99633 2.20309,1.81151 3.05824,1.81151 0.85516,0 3.65008,1.06822 6.21096,2.37384 2.56088,1.3056 7.63774,3.50589 11.28192,4.88952 3.64418,1.38362 9.32578,4.204 12.62578,6.26749 8.54708,5.34451 11.09991,5.00292 13.9321,-1.86419 z m 107.06853,1.33334 c -0.30522,-0.91667 -1.68612,-1.88587 -3.06867,-2.15379 -2.1748,-0.42144 -2.27273,-0.19672 -0.72625,1.66667 2.11493,2.54834 4.58686,2.86564 3.79492,0.48712 z m 357.52214,-4.23767 c 8.63617,-5.74133 16.14389,-11.93449 16.14389,-13.31723 0,-2.76046 -11.58207,-22.22261 -13.60739,-22.86542 -2.479,-0.7868 -5.64133,0.96676 -29.39261,16.2986 -4.95,3.19529 -9,6.41073 -9,7.1454 0,1.46437 0.66448,2.05032 13.33333,11.75732 4.76667,3.65226 9.78598,6.69565 11.15403,6.76308 1.36804,0.0675 6.48397,-2.53436 11.36875,-5.78175 z M 604.66665,247.34642 c 2.2,-1.12224 9.55411,-6.23429 16.34247,-11.36009 6.78836,-5.12581 13.14536,-9.31965 14.12668,-9.31965 0.98132,0 2.82103,-1.14567 4.08824,-2.54591 2.20019,-2.43119 2.16443,-2.58741 -0.79335,-3.46673 -3.15562,-0.93812 -7.88172,-3.79468 -21.29438,-12.87079 -4.1417,-2.8026 -8.6417,-5.48908 -10,-5.96995 -1.35831,-0.48088 -4.26966,-2.19156 -6.46966,-3.80155 -7.73405,-5.65982 -31.57056,-19.52868 -33.8606,-19.70118 -2.99482,-0.22559 -18.47125,10.16418 -29.2202,19.61638 -4.62777,4.06948 -9.57777,8.02182 -11,8.78296 -3.62784,1.94156 -3.21734,3.75593 1.0808,4.77711 2.01667,0.47914 4.56667,1.64318 5.66667,2.58676 1.1,0.94359 5,3.29548 8.66667,5.22643 3.66666,1.93095 9.06666,4.95928 12,6.72963 2.93333,1.77034 9.13769,5.11986 13.78746,7.44336 4.64979,2.3235 11.84979,7.35221 16,11.17489 8.87534,8.17487 10.65111,8.99463 14.21254,6.561 1.46666,-1.00221 4.46666,-2.74041 6.66666,-3.86267 z m 92.76661,-8.01308 c 5.95234,-4.76666 11.68374,-8.66666 12.73643,-8.66666 1.05269,0 2.25989,-0.90142 2.68265,-2.00312 0.9382,-2.44492 -3.56022,-6.57159 -10.92829,-10.02516 -2.97509,-1.3945 -8.78591,-5.85862 -12.91292,-9.92026 -4.127,-4.06164 -8.466,-7.3848 -9.64221,-7.3848 -2.01452,0 -26.47017,17.46708 -28.06216,20.04298 -0.40687,0.65833 2.73267,3.45517 6.97673,6.2152 4.24407,2.76004 10.98327,7.94358 14.97599,11.519 5.9271,5.30761 9.76298,7.89653 13.04593,8.80497 0.16797,0.0465 5.17551,-3.81548 11.12785,-8.58215 z m -372.34969,0.48712 -0.47552,-3.15378 -1.69902,3.02756 c -0.93446,1.66514 -1.30356,3.66742 -0.82021,4.4495 1.41183,2.28438 3.53,-0.77345 2.99475,-4.32328 z m 577.2074,-0.82045 c 4.24286,-2.75 9.86973,-6.65 12.50417,-8.66667 2.63444,-2.01666 5.22328,-3.66666 5.75299,-3.66666 2.36877,0 10.11852,-7.22602 10.11852,-9.43471 0,-1.3768 -8.01115,-10.41648 -18.2741,-20.62026 -17.05652,-16.95817 -18.5433,-18.11489 -22.31446,-17.36066 -2.22222,0.44445 -6.27826,2.60649 -9.01344,4.80454 -2.73519,2.19806 -6.04367,4.43475 -7.3522,4.97044 -7.13347,2.92032 -31.0458,18.16792 -31.0458,19.79623 0,1.05074 1.35,2.43156 3,3.06852 2.85313,1.10142 13.03056,7.30991 24.509,14.95114 2.89876,1.92972 7.28756,5.82972 9.75288,8.66666 8.64288,9.94571 11.67418,10.41899 22.36244,3.49143 z m -499.94609,1.32177 c 1.2897,-1.28969 4.1086,-5.8308 6.26424,-10.09134 4.56175,-9.01614 4.81899,-8.6556 -9.2374,-12.94663 -15.93468,-4.86443 -30.56301,-9.52876 -33.76779,-10.76706 -5.16762,-1.9967 -7.92935,-1.39128 -8.76055,1.92051 -0.42847,1.70715 -2.29481,4.73948 -4.14745,6.7385 -1.85263,1.99901 -4.27062,5.37926 -5.37332,7.51165 -1.83306,3.54473 -1.80424,3.97999 0.33624,5.07761 1.28762,0.6603 5.35305,1.53867 9.03426,1.95194 3.68123,0.41326 9.38123,1.74326 12.66667,2.95556 3.28545,1.21229 8.07354,2.65286 10.64021,3.20126 2.56667,0.5484 5.86667,1.63056 7.33333,2.40482 2.63224,1.38957 9.72395,3.97068 11.66667,4.24624 0.55,0.078 2.0552,-0.91336 3.34489,-2.20306 z m 82.57762,-1.98844 c 4.37874,-4.61412 8.4525,-11.7401 8.34676,-14.60045 -0.1152,-3.11628 -22.33194,-15.71992 -27.7482,-15.74167 -1.20326,-0.005 -3.98774,-1.20088 -6.18774,-2.65788 -2.2,-1.457 -4.74486,-2.65305 -5.65526,-2.65788 -0.9104,-0.005 -3.44372,3.16017 -5.6296,7.03335 -2.18588,3.87317 -5.19102,8.34808 -6.67807,9.94425 -3.79655,4.07511 -3.45876,4.9526 2.96293,7.69711 12.82206,5.47992 24.49391,11.15619 27,13.13069 4.31424,3.3991 9.0332,2.65335 13.58918,-2.14752 z m 575.7881,1.15274 c 1.4506,-1.016 8.0341,-3.7499 14.6301,-6.07531 6.5959,-2.32541 12.4838,-4.71532 13.0841,-5.31089 0.6003,-0.59559 -1.4997,-6.4117 -4.6667,-12.92471 L 1078,203.33334 l -5.3334,0.10413 c -2.9333,0.0572 -9.2333,1.12616 -14,2.37532 -4.7666,1.24916 -11.2713,2.94556 -14.4547,3.76981 -3.1834,0.82424 -6.0679,2.22797 -6.41,3.11942 -0.3421,0.89146 2.4126,5.62996 6.1214,10.53002 3.7088,4.90005 6.7433,9.64392 6.7433,10.5419 0,2.4382 3.915,7.5594 5.779,7.5594 0.8952,0 2.8145,-0.83126 4.265,-1.84726 z m -270.81656,-6.76104 c 3.72493,-2.35635 9.77261,-5.91543 13.43928,-7.90907 3.66666,-1.99363 7.81125,-5.18105 9.21018,-7.08317 l 2.54352,-3.45839 -4.54352,-3.73573 c -2.49893,-2.05466 -6.0285,-4.51639 -7.84349,-5.47054 -1.815,-0.95413 -7.90563,-5.1848 -13.53475,-9.40147 -5.62912,-4.21666 -10.80952,-7.66666 -11.51201,-7.66666 -0.70249,0 -6.61185,3.87105 -13.13193,8.60233 -6.52007,4.73128 -13.20467,9.55929 -14.85467,10.72892 -4.14947,2.94138 -3.82672,3.96688 2.66667,8.47339 4.98954,3.46281 18.07897,14.99184 23.6226,20.80653 2.38457,2.50118 4.98881,1.77507 13.93812,-3.88614 z m 189.19359,1.77502 c 1.60179,-0.82497 4.11235,-2.54573 5.57901,-3.8239 1.46667,-1.27818 7.76667,-4.33011 14,-6.78207 14.48286,-5.69703 15.00226,-6.08056 13.13726,-9.70076 -1.3221,-2.56627 -10.8005,-12.20295 -16.25536,-16.52666 -3.47467,-2.75416 -7.2384,-1.9558 -20.42884,4.33334 -6.92122,3.3 -13.08108,6 -13.68862,6 -0.60752,0 -1.77593,0.80892 -2.59646,1.79761 -1.13799,1.37119 -0.86377,2.36606 1.15596,4.19388 1.45632,1.31795 5.06972,6.80903 8.02976,12.20239 2.96005,5.39337 6.00584,9.80612 6.76842,9.80612 0.76259,0 2.69708,-0.67497 4.29887,-1.49995 z M 336.99999,215.47393 c 3.11667,-5.37297 5.66667,-10.6968 5.66667,-11.83072 0,-1.33982 -2.45092,-2.77414 -7,-4.09651 -14.83501,-4.31237 -26.65613,-5.17359 -63.73532,-4.64331 -45.00877,0.64367 -43.48347,0.1423 -47.92883,15.75445 -1.8129,6.36694 -2.58173,11.27072 -1.87249,11.94326 0.66795,0.63338 4.16933,0.56762 7.86997,-0.14782 6.29387,-1.21679 27.25131,-3.46878 36,-3.86839 5.55616,-0.2538 33.55968,2.4528 48,4.63929 18.08214,2.73792 16.63294,3.22626 23,-7.75025 z m 786.11821,5.19275 c 4.2232,-1.1 9.5127,-2 11.7544,-2 2.2417,0 7.7624,-0.95852 12.2683,-2.13004 6.6349,-1.72511 13.274,-2.015 34.9221,-1.5249 16.3395,0.36991 27.8373,1.1979 29.579,2.13004 3.9362,2.10656 13.2419,1.95259 14.0806,-0.23298 0.918,-2.39248 -0.9143,-11.12443 -3.6571,-17.42774 l -2.2564,-5.18561 -41.5712,0.84802 c -57.176,1.16638 -82.2379,2.32596 -82.2379,3.80507 0,0.68908 2.3062,5.25756 5.1248,10.15217 2.8187,4.89462 5.4999,9.9493 5.9582,11.23263 1.0389,2.90915 5.7686,3.00747 16.0352,0.33334 z m -702.78208,-9.6751 c 1.28487,-2.01204 4.17231,-6.20495 6.41655,-9.31759 2.24423,-3.11264 3.70875,-6.2607 3.25451,-6.99569 -1.50754,-2.43924 -15.91367,-8.34293 -22.00719,-9.01863 -3.3,-0.36593 -6.99935,-1.53621 -8.22077,-2.60061 -2.57615,-2.24499 -17.31394,-7.05905 -21.61055,-7.05905 -1.81051,0 -3.79143,1.46326 -5.19301,3.83594 -1.24627,2.10978 -4.07564,5.77323 -6.28748,8.14102 -5.2062,5.57326 -5.35252,10.13834 -0.35485,11.07216 8.50258,1.58873 33.80025,8.73286 35.33411,9.97846 1.73582,1.40961 12.67816,5.47089 14.99922,5.56701 0.73333,0.0304 2.38458,-1.59099 3.66946,-3.60302 z m 228.73323,1.8116 c 1.98198,-1.02492 4.74517,-3.12492 6.14044,-4.66667 1.39525,-1.54174 3.29384,-2.80317 4.21906,-2.80317 0.92524,0 1.88224,-0.47556 2.1267,-1.05679 0.24444,-0.58124 2.69444,-2.43017 5.44443,-4.10874 2.75,-1.67858 5,-3.71435 5,-4.52395 0,-2.65311 -5.73292,-7.64385 -8.78055,-7.64385 -1.67694,0 -4.45567,-1.7509 -6.34818,-4 -1.85117,-2.2 -3.75881,-4 -4.2392,-4 -0.48037,0 -3.96912,-2.62223 -7.75274,-5.82716 -3.78363,-3.20494 -9.57932,-7.27407 -12.87932,-9.04251 -5.27108,-2.82473 -14.13956,-8.48056 -19.51904,-12.44817 -1.22155,-0.90095 -3.85128,-0.5846 -8.31283,1 -3.58932,1.27481 -7.55087,2.31784 -8.80344,2.31784 -1.25259,0 -3.80297,1.2 -5.66753,2.66666 -1.86456,1.46667 -4.07548,2.66667 -4.91316,2.66667 -2.36156,0 -10.38955,7.85003 -9.80903,9.59159 0.28439,0.85317 1.66777,2.19409 3.07419,2.97982 1.4064,0.78572 6.47069,3.89084 11.25397,6.90027 4.78328,3.00944 10.94687,6.20596 13.69687,7.10341 2.75,0.89744 5,2.13151 5,2.74238 0,0.61086 2.85,2.54084 6.33333,4.28881 8.02071,4.02488 12.5004,6.92713 21.66667,14.03713 8.26421,6.4103 8.14193,6.3745 13.06936,3.82643 z m 388.96725,-6.62039 c 1.4465,-0.99946 9.53,-3.50382 17.9634,-5.56522 8.4333,-2.06142 15.8042,-4.14456 16.3797,-4.62923 0.5756,-0.48467 -1.6744,-4.38519 -5,-8.66783 -3.3255,-4.28264 -6.0464,-8.58174 -6.0464,-9.55356 0,-0.97182 -0.6538,-1.76694 -1.4529,-1.76694 -0.7992,0 -2.4492,-1.20411 -3.6667,-2.6758 -2.2058,-2.66623 -2.258,-2.66163 -14.5614,1.2858 -11.641,3.73486 -17.3898,5.3458 -25.9857,7.28169 -2.0166,0.45417 -3.6497,1.56435 -3.6289,2.46704 0.042,1.83061 20.6142,23.64127 22.2988,23.64127 0.5886,0 2.2536,-0.81775 3.7001,-1.81722 z m -77.11284,-2.44582 c 2.79192,-1.61135 6.90851,-4.29278 9.14799,-5.95875 2.23947,-1.66597 6.28947,-3.95565 9,-5.08819 6.38004,-2.66574 6.35983,-5.83893 -0.0717,-11.26802 -13.03552,-11.00364 -18.2441,-14.9793 -24.05003,-18.35716 -3.45581,-2.01058 -8.32213,-5.02614 -10.81404,-6.70124 l -4.53072,-3.04566 -4.36417,3.32872 c -3.37292,2.57264 -5.30908,3.13972 -8.52432,2.49668 -5.20559,-1.0411 -14.71676,2.94418 -14.71676,6.16646 0,1.23098 2.56012,4.07668 5.68915,6.32378 3.12904,2.2471 9.87904,8.46484 15,13.81722 12.4094,12.97014 21.03978,21.21586 22.20557,21.21586 0.52407,0 3.23715,-1.31837 6.02906,-2.9297 z m -26.25711,-39.14899 c 0,-1.14328 0.6,-1.70787 1.33333,-1.25464 0.73333,0.45323 1.33333,1.38864 1.33333,2.07869 0,0.69006 -0.6,1.25464 -1.33333,1.25464 -0.73333,0 -1.33333,-0.93541 -1.33333,-2.07869 z m -186.92684,33.04277 c 4.17643,-2.76976 9.22472,-5.86109 11.21843,-6.86964 5.23584,-2.6486 9.50862,-7.62126 8.59481,-10.00261 -0.99996,-2.60587 -17.7972,-13.42884 -28.19005,-18.16372 -5.92048,-2.69732 -8.75435,-3.33312 -11.01882,-2.47217 -4.20486,1.59869 -23.01086,17.45332 -23.01086,19.3996 0,0.86989 3.87788,3.75025 8.61752,6.40081 4.73962,2.65056 9.4963,6.07384 10.57038,7.60731 2.18658,3.12178 11.20794,9.03069 13.88526,9.09473 0.9569,0.0229 5.1569,-2.22455 9.33333,-4.99431 z m -229.456,-2.75913 c 4.31231,-4.37967 14.94883,-12.22743 22.82548,-16.84093 7.98819,-4.67883 10.87359,-6.90444 10.88159,-8.39338 0.0133,-2.48214 -11.91933,-9.6373 -16.07212,-9.6373 -1.95753,0 -5.17131,-1.26812 -7.14172,-2.81806 -3.65855,-2.8778 -13.89462,-6.51528 -18.33442,-6.51528 -1.3568,0 -4.35043,1.8 -6.65252,4 -2.30208,2.2 -4.95688,4 -5.89955,4 -2.20436,0 -17.07581,11.47087 -23.55377,18.16786 -6.12194,6.3289 -6.06207,6.39057 12.77336,13.15785 7.45608,2.67885 15.65652,5.96153 18.22318,7.29483 6.61666,3.43712 7.31632,3.30661 12.95049,-2.41559 z m 327.53433,-0.40056 c 5.11863,-3.04093 11.30059,-6.88211 13.73767,-8.53596 2.43709,-1.65385 8.33401,-4.96824 13.10429,-7.36531 10.68537,-5.3694 11.01777,-7.56509 1.98652,-13.12209 -3.67769,-2.26289 -6.95104,-4.11436 -7.27412,-4.11436 -0.32309,0 -2.7978,-1.5 -5.49937,-3.33333 -2.70156,-1.83334 -5.83954,-3.33334 -6.97328,-3.33334 -1.13374,0 -3.3,-1.11688 -4.81394,-2.48197 -1.51393,-1.36508 -4.80244,-3.16867 -7.30778,-4.00797 -3.83766,-1.28564 -5.07478,-1.15722 -7.8537,0.81529 -1.81417,1.28773 -3.96433,2.68895 -4.77814,3.11383 -0.8138,0.42488 -4.17964,2.1708 -7.47964,3.87981 -3.3,1.70901 -8.3336,4.66139 -11.18579,6.56083 -2.85218,1.89944 -6.52532,4.19941 -8.1625,5.11106 -1.63719,0.91166 -3.78412,2.63042 -4.77096,3.81948 -2.02924,2.44508 -3.47832,1.01987 15.44409,15.18964 14.01532,10.49516 18.08197,13.10836 20.5976,13.23588 1.05734,0.0536 6.11041,-2.39057 11.22905,-5.43149 z m -495.39519,-4.46864 c 0.83472,-1.832 3.93103,-5.94911 6.8807,-9.14911 2.94965,-3.2 5.36301,-6.37922 5.36301,-7.06493 0,-1.30075 -14.12029,-4.41209 -23.33333,-5.1414 -2.93334,-0.2322 -11.63334,-1.05799 -19.33334,-1.83507 -7.7,-0.77706 -20.13249,-2.01182 -27.62776,-2.74388 -17.31528,-1.69118 -20.09274,-2.42029 -21.08097,-5.5339 -1.10171,-3.47118 -6.84452,-3.37551 -7.95793,0.13253 -0.6339,1.9972 -2.01738,2.66667 -5.51084,2.66667 -2.56546,0 -5.78079,0.59744 -7.14518,1.32762 -2.50436,1.3403 -8.99476,10.21776 -12.6787,17.34174 -4.17516,8.07386 -4.78524,7.91004 26.33472,7.07169 18.8314,-0.50729 31.46338,-0.24252 37.66666,0.78952 5.13334,0.85403 13.83334,1.84875 19.33334,2.21049 5.5,0.36174 12.4,1.17399 15.33333,1.80499 9.63405,2.07243 12.1108,1.73449 13.75629,-1.87697 z m 767.63055,0.0597 c 22.8049,-3.02414 60.4945,-4.19337 86.2273,-2.67496 4.9212,0.29038 9.269,0.008 9.6619,-0.62789 0.8178,-1.32312 -14.2154,-16.67129 -24.5795,-25.09453 -6.6223,-5.38219 -7.3213,-5.63444 -13.8356,-4.99322 -3.7735,0.37144 -8.061,0.6726 -9.5276,0.66923 -1.4667,-0.004 -8.0667,-0.0615 -14.6667,-0.12907 -6.6,-0.0676 -15.9,0.5237 -20.6667,1.31411 -9.7387,1.61488 -13.7795,1.99647 -37.0059,3.49465 -19.8744,1.28198 -20.9678,2.07366 -14.7697,10.69422 2.4433,3.39828 6.0861,8.63845 8.0952,11.64484 2.0091,3.00637 4.4091,5.94618 5.3333,6.5329 2.4678,1.56659 9.329,1.34523 25.734,-0.83022 z m -99.6447,-16.27668 c 6.3751,-2.68464 15.1888,-5.56472 19.5858,-6.40016 5.0588,-0.96118 8.1172,-2.22889 8.3285,-3.45216 0.1837,-1.06324 -2.9639,-4.28806 -6.9946,-7.16629 -4.0307,-2.87821 -7.3285,-5.63177 -7.3285,-6.11901 0,-1.30122 -19.4394,-14.86632 -28.3505,-19.78345 -8.83712,-4.87627 -10.37046,-4.75615 -23.64952,1.85265 -4.76667,2.3723 -10.85638,4.69733 -13.5327,5.16673 -2.6763,0.4694 -5.64673,1.79416 -6.60094,2.94392 -2.01087,2.42295 -1.31635,3.08408 14.8003,14.08883 10.61396,7.24741 17.29972,12.39701 25.16208,19.38073 2.66088,2.36349 5.32188,4.31349 5.91338,4.33333 0.5915,0.0199 6.2915,-2.16045 12.6667,-4.8451 z M 469.08719,160.74589 c 7.56463,-6.27691 14.41191,-11.41255 15.21619,-11.41255 3.25616,0 12.90672,-6.76969 12.21612,-8.56937 -0.82044,-2.13802 -11.02868,-6.72955 -17.85284,-8.02998 -2.56667,-0.48911 -5.86667,-1.37237 -7.33334,-1.96281 -15.98436,-6.43482 -29.46497,-6.6401 -37.45918,-0.57043 -2.26923,1.72292 -5.26923,3.13842 -6.66667,3.14554 -1.39745,0.007 -5.17525,2.1071 -8.39512,4.66666 -3.21987,2.55955 -6.37665,4.65372 -7.01508,4.65372 -0.63843,0 -4.67677,2.4 -8.97411,5.33334 -4.29733,2.93333 -8.53454,5.33333 -9.41601,5.33333 -0.88148,0 -1.40869,1.00028 -1.17159,2.22284 0.5516,2.8442 13.05982,6.91196 38.4311,12.49805 6.96666,1.53388 14.46666,3.57659 16.66666,4.53936 4.92587,2.15567 4.78555,2.2321 21.75387,-11.8477 z m 235.32159,8.6973 c 2.59551,-2.87292 5.70944,-6.73493 6.91986,-8.58226 1.21042,-1.84732 3.94976,-3.74292 6.08742,-4.21243 2.13767,-0.46951 4.16854,-1.30972 4.51303,-1.86712 1.01164,-1.63687 -3.21897,-6.78137 -5.57672,-6.78137 -1.18968,0 -4.00565,-0.56112 -6.25772,-1.24694 -13.72765,-4.18045 -21.57388,-5.52446 -33.428,-5.72602 -14.10866,-0.2399 -26,2.01309 -26,4.92608 0,0.95544 3.3,3.07653 7.33334,4.71354 4.03333,1.63702 7.33333,3.41558 7.33333,3.95236 0,0.53679 2.47434,2.09175 5.49856,3.45548 4.91637,2.21698 11.69289,6.81351 17.06649,11.57624 7.13129,6.32062 10.6526,6.27635 16.51041,-0.20756 z m 92.68711,-7.7125 c 3.43059,-1.98146 6.59016,-4.1095 7.02128,-4.72896 0.76505,-1.0993 4.01272,-3.0155 15.54948,-9.17454 3.11666,-1.66388 5.66666,-3.50566 5.66666,-4.09288 0,-0.5872 0,-1.51764 0,-2.06764 0,-1.18892 -2.6263,-1.48104 -22.25821,-2.47574 -8.42222,-0.42674 -18.58837,-0.1316 -23.33333,0.67728 -13.26948,2.26218 -21.45696,4.06848 -22.29887,4.9195 -0.93429,0.94442 5.61703,6.48988 11.36726,9.622 5.88548,3.2058 21.10748,10.8846 21.61906,10.90583 0.23608,0.009 3.23608,-1.60339 6.66667,-3.58485 z m -227.31388,-2.97582 c 3.05323,-2.15149 8.04412,-4.55922 11.09091,-5.35052 9.12275,-2.36929 20.70863,-7.9879 20.13768,-9.76585 -0.2894,-0.90117 -3.78517,-3.61643 -7.76839,-6.03391 -5.58677,-3.39069 -8.45441,-4.30502 -12.54526,-4 -4.65434,0.34704 -5.5203,-0.0547 -7.07911,-3.28451 -0.97684,-2.02396 -4.10085,-4.86594 -6.94225,-6.31552 -4.31996,-2.20388 -6.21802,-2.43521 -11.58756,-1.41227 -8.93484,1.70216 -10.62656,2.50481 -13.03879,6.18634 -1.53755,2.34659 -3.32531,3.22138 -6.5834,3.22138 -2.45996,0 -5.25244,0.93956 -6.20548,2.08792 -0.95305,1.14834 -3.42652,2.96376 -5.4966,4.03424 -2.07008,1.07048 -3.75353,2.3809 -3.74101,2.91208 0.012,0.53117 3.4625,2.38868 7.66666,4.1278 4.20415,1.73912 10.64391,4.49416 14.31058,6.12229 3.66666,1.62815 9.22012,4.04791 12.341,5.37725 3.12089,1.32935 6.34436,3.22432 7.16326,4.21104 1.9665,2.36948 1.87758,2.39223 8.27776,-2.11776 z m 350.2008,-8.07953 c 8.69112,-4.38727 9.73577,-6.08792 4.87484,-7.93605 -1.72828,-0.6571 -6.53843,-3.36716 -10.6892,-6.02239 -11.64512,-7.44929 -27.61468,-14.428 -32.64395,-14.26542 -4.23195,0.1368 -20.48508,8.12133 -22.20876,10.91029 -0.44081,0.71325 5.38281,4.28162 12.94139,7.92973 7.55857,3.64811 17.04285,8.48375 21.07618,10.74587 8.92644,5.00645 14.60894,4.71602 26.6495,-1.36203 z m 167.99629,3.27267 c 8.4448,-1.12862 20.506,-2.92862 26.8026,-4 6.4596,-1.09915 20.6944,-1.99387 32.6666,-2.05327 11.6701,-0.0579 20.3183,-0.44785 19.2183,-0.86659 -1.1,-0.41873 -2.3,-1.20994 -2.6666,-1.75826 -1.204,-1.80043 -13.6767,-7.93655 -16.1324,-7.93655 -1.321,0 -2.8816,-0.81241 -3.468,-1.80536 -1.6047,-2.71691 -5.3816,-4.37547 -23.1722,-10.17559 -14.296,-4.6608 -18.6763,-5.46392 -36.406,-6.67492 -11.0851,-0.75715 -21.783,-1.71221 -23.773,-2.12235 -3.3461,-0.68963 -27.4936,1.48013 -31.4556,2.82642 -2.5976,0.88268 -0.062,4.5886 5.375,7.8565 10.4094,6.2563 15.4934,10.27869 24.3655,19.27738 5.1333,5.2066 10.2239,9.4706 11.3124,9.47556 1.0886,0.005 8.8886,-0.91437 17.3334,-2.04297 z m -702.83082,-5.68712 c 5.36542,-4.40026 17.77147,-13.21459 26.20884,-18.62102 1.45358,-0.93141 4.44287,-2.5529 6.64287,-3.60331 6.16476,-2.94343 11.45051,-7.83853 10.32748,-9.56423 -0.60745,-0.93346 -11.11364,-2.33613 -27.0106,-3.60618 -22.27184,-1.77934 -27.64531,-1.82099 -37.33333,-0.28931 -6.22428,0.98405 -17.20531,2.46022 -24.40228,3.28036 -8.36101,0.95279 -16.78533,2.9304 -23.33333,5.47752 -5.63636,2.19249 -11.92774,3.98911 -13.98082,3.99248 -4.2385,0.007 -11.60045,3.41726 -11.60045,5.37371 0,0.7145 -0.81908,1.2991 -1.82019,1.2991 -1.0011,0 -3.31597,1.17658 -5.14414,2.61462 -1.82819,1.43806 -6.23207,3.75695 -9.7864,5.15311 -7.8562,3.08593 -9.19906,5.56063 -3.02704,5.5784 28.72978,0.0827 68.80446,2.86452 94.44444,6.55595 12.54903,1.8067 13.35203,1.65914 19.81495,-3.6412 z m 368.48614,-13.58923 c 2.41256,-1.47094 6.75151,-2.67161 9.6989,-2.68387 2.93333,-0.0123 9.19506,-1.23258 13.91496,-2.71196 10.86692,-3.40606 38.35689,-5.02996 47.2483,-2.79107 9.81685,2.47191 26.17007,3.52315 26.17007,1.6823 0,-0.85667 3.9,-3.42051 8.66666,-5.69741 12.40976,-5.9278 11.48039,-8.28106 -5.1894,-13.14 -4.47916,-1.3056 -10.84393,-3.54759 -14.14393,-4.98221 -6.98832,-3.03805 -21.01919,-5.807003 -28.66666,-5.657295 -2.93334,0.05743 -9.23334,-0.468324 -14,-1.168328 -4.76667,-0.700004 -14.96667,-1.958351 -22.66667,-2.796325 -7.7,-0.837975 -17.6,-2.104426 -22,-2.814335 -19.02279,-3.069197 -60.9868,-2.010641 -88.84044,2.241028 -11.46224,1.749633 -23.32038,3.181152 -26.35142,3.181152 -3.03104,0 -6.55284,0.54735 -7.82623,1.216334 -3.00019,1.576179 -25.46495,6.761359 -29.71296,6.858159 -4.38533,0.0999 -15.36543,4.62981 -13.70692,5.65483 2.39152,1.47803 19.65393,10.60211 26.43797,13.97382 3.66667,1.82236 7.99907,4.52271 9.62755,6.00079 l 2.96087,2.68739 17.03913,-3.48405 c 27.33692,-5.58967 36.69492,-6.46477 53.08573,-4.96421 15.18571,1.39023 29.84027,4.64449 41.28672,9.16833 8.65581,3.42093 11.66316,3.46116 16.96777,0.22693 z m 202.51908,-1.06541 c 3.27096,-2.46238 11.29449,-6.06841 17.17981,-7.72117 4.61521,-1.29608 9.44859,-4.61991 8.6342,-5.9376 -0.37193,-0.6018 -4.11677,-1.47308 -8.32188,-1.93617 -4.20511,-0.4631 -9.74565,-1.64342 -12.31232,-2.62292 -6.26909,-2.39245 -34.06708,-5.06232 -41.06189,-3.9438 -3.08263,0.49293 -5.60477,1.60552 -5.60477,2.47243 0,2.63329 31.13612,21.96983 35.48685,22.03848 1.55111,0.0245 4.25111,-1.03268 6,-2.34925 z M 521.10208,128.3965 c 33.04105,-14.10501 29.74093,-19.36018 -10.39957,-16.56046 -23.76303,1.65744 -34.36997,3.17859 -38.83803,5.56982 l -3.14309,1.68213 3.30597,1.26666 c 1.81828,0.69666 4.80596,2.03259 6.6393,2.96872 1.83333,0.93614 5.43333,2.14063 8,2.67665 2.56666,0.53602 5.41098,1.57404 6.32069,2.30672 2.20517,1.77603 11.06591,4.89481 14.11473,4.96807 1.33948,0.0322 7.63948,-2.16305 14,-4.87831 z"
       id="path148" />
  </g>
</svg>
