<?xml version="1.0" encoding="UTF-8" standalone="no"?>
<!-- Created with Inkscape (http://www.inkscape.org/) -->

<svg
   version="1.1"
   id="svg2"
   width="559.35999"
   height="396.79999"
   viewBox="0 0 559.35999 396.79999"
   sodipodi:docname="wois-logo-icon-black.png"
   inkscape:version="1.1.2 (0a00cf5339, 2022-02-04)"
   xmlns:inkscape="http://www.inkscape.org/namespaces/inkscape"
   xmlns:sodipodi="http://sodipodi.sourceforge.net/DTD/sodipodi-0.dtd"
   xmlns="http://www.w3.org/2000/svg"
   xmlns:svg="http://www.w3.org/2000/svg">
  <defs
     id="defs6" />
  <sodipodi:namedview
     id="namedview4"
     pagecolor="#505050"
     bordercolor="#eeeeee"
     borderopacity="1"
     inkscape:pageshadow="0"
     inkscape:pageopacity="0"
     inkscape:pagecheckerboard="0"
     showgrid="false"
     inkscape:zoom="1.8876009"
     inkscape:cx="279.72015"
     inkscape:cy="198.39999"
     inkscape:window-width="1920"
     inkscape:window-height="1043"
     inkscape:window-x="0"
     inkscape:window-y="0"
     inkscape:window-maximized="1"
     inkscape:current-layer="g8" />
  <g
     inkscape:groupmode="layer"
     inkscape:label="Image"
     id="g8">
    <path
       style="fill:#000000;stroke-width:0.32"
       d="m 142.54136,345.16172 c -0.65523,-0.45895 -0.7112,-0.7529 -0.7112,-3.73485 v -3.2367 l 1.36,-1.30903 c 0.748,-0.71993 1.61532,-1.70326 1.92737,-2.18512 0.6798,-1.04976 1.25222,-1.08432 3.57334,-0.2159 2.30341,0.86182 3.17808,1.94598 2.94991,3.65648 -0.20824,1.56109 -1.15064,2.40326 -2.68923,2.40326 h -1.1277 l 0.84315,0.66323 c 1.16641,0.91751 1.13023,2.29892 -0.0922,3.52138 -0.85189,0.8519 -1.13116,0.93539 -3.12879,0.93539 -1.46731,0 -2.42886,-0.16489 -2.90462,-0.49814 z m 3.54601,-1.94573 c 0.11213,-0.11213 -0.081,-0.60403 -0.42928,-1.09309 -0.34824,-0.48905 -0.72431,-1.34493 -0.83571,-1.90192 -0.14277,-0.71385 -0.28221,-0.88707 -0.47248,-0.58694 -0.42592,0.67187 -0.33444,3.39043 0.12026,3.57389 0.58814,0.23731 1.38398,0.24128 1.61721,0.008 z m 2.74939,-5.2087 c 0.34346,-0.21751 0.20766,-0.40637 -0.58809,-0.81786 -0.97885,-0.50618 -1.05789,-0.50362 -1.46456,0.0477 -0.4345,0.58906 -0.3473,0.65056 1.44605,1.02 0.088,0.0182 0.36097,-0.0943 0.6066,-0.24982 z m 202.80674,6.47923 c -0.41651,-0.41651 -0.204,-1.8936 0.44733,-3.10877 l 0.66064,-1.23267 -0.67332,-0.71671 c -0.94624,-1.00723 -1.16147,-2.76678 -0.53958,-4.41145 0.28224,-0.74637 0.74282,-2.36506 1.02355,-3.59706 0.28071,-1.232 0.784,-2.708 1.11843,-3.28 l 0.608,-1.04 h -3.11254 c -1.7119,0 -11.82304,0.14667 -22.4692,0.32593 -21.2957,0.35858 -29.77853,0.15269 -31.16602,-0.75643 -0.82761,-0.54227 -0.83063,-0.54091 -0.83063,0.37353 0,1.2625 -0.8973,1.97697 -2.48287,1.97697 h -1.31246 l 0.29766,1.03789 c 0.4376,1.52582 0.36375,2.88534 -0.20048,3.69091 -0.40962,0.58483 -0.80355,0.7112 -2.21677,0.7112 -2.3337,0 -3.04585,-0.85251 -3.0433,-3.64317 0.002,-2.59073 0.46591,-4.13831 1.64012,-5.47566 1.19381,-1.35968 2.38403,-1.59952 4.91546,-0.9905 1.05455,0.2537 1.93815,0.43609 1.96356,0.4053 0.0254,-0.0308 -0.0872,-2.23153 -0.25015,-4.89055 -0.3761,-6.13572 0.48437,-39.20674 1.16058,-44.60542 0.25352,-2.024 0.46718,-4.0797 0.4748,-4.56821 0.0135,-0.86547 -0.009,-0.8767 -0.86615,-0.43854 -2.67448,1.36665 -4.33127,0.92386 -6.17449,-1.65016 -1.11851,-1.56198 -1.26551,-1.97868 -1.26551,-3.58717 0,-1.51 0.16176,-2.0432 0.94995,-3.13127 1.16636,-1.61011 1.83131,-1.98465 3.52355,-1.98465 0.98233,0 1.52159,0.20601 2.1288,0.81322 0.72111,0.72111 0.79882,1.02009 0.68613,2.64 -0.0699,1.00473 -0.22925,2.04613 -0.35414,2.31422 -0.16313,0.35016 0.0399,0.58819 0.72082,0.84522 0.94516,0.35675 0.9488,0.35355 1.26186,-1.11431 0.17268,-0.80965 0.20062,-1.694 0.0621,-1.96522 -0.35525,-0.69549 -0.80986,-7.27443 -0.75272,-10.89313 0.0264,-1.672 0.0667,-11.968 0.0896,-22.88 0.0334,-15.94771 0.136,-20.43472 0.52297,-22.87146 0.26477,-1.66731 0.61709,-3.19496 0.78293,-3.39478 0.87615,-1.0557 14.06159,-1.55628 38.14478,-1.44817 l 15.92659,0.0715 -0.64538,-1.05854 c -1.24691,-2.04517 -0.56803,-4.69881 1.38259,-5.40416 1.00627,-0.36387 1.10183,-0.52709 1.46471,-2.50182 0.4183,-2.27644 1.3358,-4.62268 2.16675,-5.54086 0.8743,-0.9661 4.72499,-0.48457 6.41817,0.80259 0.58791,0.44693 0.48637,1.52011 -0.25958,2.74367 -0.57872,0.94925 -0.61677,1.26634 -0.31878,2.65575 0.43136,2.01135 0.43401,4.77305 0.006,5.89963 -0.18298,0.48125 -0.86698,1.38198 -1.52,2.00163 -0.65303,0.61963 -0.93136,1.03025 -0.61847,0.91247 0.31287,-0.11778 13.20087,-0.30819 28.64,-0.42313 15.43911,-0.11494 28.10371,-0.23451 28.14352,-0.2657 0.0398,-0.0312 0.30246,-1.63213 0.58365,-3.55765 0.33187,-2.27248 0.80829,-4.11854 1.35773,-5.26095 0.46553,-0.968 0.92291,-2.408 1.01635,-3.2 0.16205,-1.37362 0.2215,-1.44491 1.28989,-1.54646 2.56313,-0.24362 5.12,1.49382 5.12,3.47916 0,0.50798 -0.30183,1.68493 -0.67069,2.61545 -0.64842,1.63561 -0.65258,1.74258 -0.1256,3.2182 0.36771,1.02959 0.47309,1.91044 0.32371,2.70653 -0.34246,1.82559 -1.92077,5.0541 -2.75715,5.63993 -1.07386,0.75215 -2.88103,0.66247 -4.16563,-0.20672 l -1.08464,-0.73391 -0.0723,14.25391 c -0.0397,7.83965 -0.29485,20.2299 -0.56694,27.5339 -0.2721,7.304 -0.52759,14.1803 -0.56775,15.28068 -0.0662,1.81203 -0.0128,2.00055 0.56695,1.99942 1.06108,-0.002 2.28963,-2.37358 2.50339,-4.8324 0.45824,-5.27112 3.05555,-7.54442 6.57075,-5.75108 1.5839,0.80805 2.03446,1.39188 1.90899,2.4737 -0.11753,1.0131 -1.82835,2.34968 -3.00761,2.34968 -1.17117,0 -1.6706,0.73831 -1.44506,2.13633 l 0.19741,1.22367 2.07318,0.16 c 2.28048,0.176 2.47591,0.39664 2.10448,2.37637 -0.28669,1.52829 -0.89261,2.16327 -2.27926,2.38866 -1.49607,0.24318 -1.21859,-0.80972 -3.17159,12.03497 -1.92688,12.67298 -1.71558,11.81878 -2.95344,11.93869 -1.60588,0.15557 -1.79542,-0.548 -1.53084,-5.68288 0.22195,-4.30757 0.21235,-4.40475 -0.45184,-4.57844 -0.54999,-0.14382 -0.67856,-0.42211 -0.67856,-1.46852 0,-0.71009 0.151,-1.3844 0.33555,-1.49845 0.23097,-0.14277 0.22333,-0.34255 -0.0246,-0.64127 -0.58419,-0.70389 -0.24707,-1.89548 0.56902,-2.01138 0.57315,-0.0814 0.7209,-0.30982 0.72439,-1.12 0.003,-0.55976 0.0866,-1.32411 0.18707,-1.69855 0.15853,-0.59072 0.073,-0.65983 -0.64621,-0.52234 -0.4559,0.0872 -1.02112,-9.6e-4 -1.25603,-0.19601 -0.35424,-0.29399 -0.46029,1.6244 -0.62154,11.24234 -0.31046,18.51872 -1.18953,42.48657 -1.61072,43.91681 -0.29241,0.99289 -0.55641,1.30482 -1.17696,1.39066 -0.44,0.0609 -0.94595,0.23023 -1.12432,0.37638 -0.17837,0.14613 -2.41036,0.31234 -4.96,0.36933 -5.55104,0.1241 -33.95913,-0.58751 -40.9502,-1.02577 -7.13799,-0.44747 -8.49671,-0.42251 -8.02375,0.1474 0.23888,0.28784 0.3569,1.44699 0.31767,3.11999 -0.0344,1.46412 0.0455,3.67779 0.17756,4.91929 0.27952,2.62839 -0.14572,3.75559 -2.36774,6.27591 -1.82858,2.07411 -5.02042,3.48896 -5.89587,2.61347 z m 3.16521,-7.17671 c 0.11898,-0.19251 0.77255,-0.29699 1.45236,-0.23216 1.52358,0.14532 1.69052,-0.19651 1.07955,-2.21011 -0.25495,-0.84022 -0.46509,-1.83533 -0.46701,-2.21136 -0.003,-0.5088 -0.24102,-0.71856 -0.93216,-0.82 -0.86109,-0.12637 -0.94288,-0.0475 -1.12378,1.08362 -0.10726,0.67094 -0.41606,1.87085 -0.68617,2.66646 -0.47338,1.39434 -0.41488,2.0736 0.17865,2.0736 0.15524,0 0.37959,-0.1575 0.49856,-0.35005 z m -64.12088,-6.74038 c -0.24422,-0.88259 -0.33842,-0.9681 -0.53888,-0.48915 -0.13673,0.32669 -0.0663,0.95616 0.16109,1.44 0.51394,1.09344 0.76712,0.45622 0.37779,-0.95085 z m 2.09566,-3.9829 c -0.10633,-0.10634 -0.38234,-0.1177 -0.61333,-0.0253 -0.25528,0.10215 -0.17945,0.17798 0.19333,0.19333 0.33733,0.0139 0.52633,-0.0617 0.42,-0.16807 z m 119.9969,-12.68667 c 0.0349,-6.204 0.20877,-14.664 0.38643,-18.8 0.1777,-4.136 0.42144,-12.07016 0.54167,-17.63147 l 0.21862,-10.11146 -2.36848,-0.20422 c -2.2822,-0.19679 -9.31398,-0.0117 -10.1216,0.26641 -0.21619,0.0745 -3.31219,-0.0123 -6.88,-0.1929 -3.56777,-0.18055 -7.16892,-0.28284 -8.00252,-0.22732 l -1.51562,0.10096 1.92938,2.69576 c 2.51676,3.51644 4.66291,7.90526 5.33222,10.90424 0.8233,3.689 0.79971,16.58921 -0.036,19.68 -1.51766,5.61298 -5.46432,12.78391 -8.70765,15.82139 -3.18112,2.97923 -5.84518,4.88458 -9.08041,6.49433 l -3.04628,1.51572 15.36,0.0324 c 12.63066,0.0267 22.00423,0.35176 25.6034,0.88794 0.21167,0.0315 0.34534,-3.8496 0.38684,-11.23182 z m -66.47024,10.83731 c 0,-0.0675 -0.36,-0.19152 -0.8,-0.27563 -0.44,-0.0841 -0.8,-0.0289 -0.8,0.1227 0,0.15159 0.36,0.27562 0.8,0.27562 0.44,0 0.8,-0.0552 0.8,-0.12269 z m 19.04,-2.11049 c 5.35341,-1.71521 11.18996,-5.25533 15.09847,-9.15785 1.9503,-1.94731 2.31385,-2.48234 2.4,-3.53196 0.088,-1.07153 0.21581,-1.25022 0.95565,-1.33576 1.79081,-0.20707 4.47894,-7.00646 5.56387,-14.07335 0.50857,-3.31282 0.50902,-3.7669 0.007,-7.23451 -0.62083,-4.28998 -1.36119,-6.75077 -3.05552,-10.1563 -3.41703,-6.8679 -9.22151,-12.74603 -15.4392,-15.63507 -2.85095,-1.3247 -7.84656,-2.54922 -11.77047,-2.88517 -7.35142,-0.62941 -12.26563,-2.76728 -17.23654,-7.4985 -3.76068,-3.57937 -5.67641,-6.77164 -6.975,-11.6228 -0.7078,-2.64414 -0.83508,-3.7934 -0.8412,-7.59555 -0.009,-5.2874 0.42113,-6.96446 3.16042,-12.33604 3.34357,-6.55653 8.9106,-10.73316 16.4313,-12.32745 4.84333,-1.02673 8.79555,-0.33163 15.02538,2.64262 2.60188,1.2422 3.39491,1.83074 5.92,4.39356 3.39081,3.44149 5.44851,6.02231 6.48099,8.12863 l 0.73465,1.49868 0.01,-1.79305 c 0.005,-0.98619 -0.0833,-2.68549 -0.19728,-3.77624 -0.18534,-1.77353 -0.30608,-2.03426 -1.14188,-2.46648 -0.51405,-0.26582 -2.47277,-1.63304 -4.35271,-3.03826 -3.83168,-2.86408 -9.41225,-5.78906 -12.51904,-6.56167 -8.04886,-2.00162 -19.09942,1.52928 -25.66341,8.20002 -3.52548,3.58282 -6.39538,8.25686 -8.19201,13.34182 -0.85416,2.41752 -0.88117,2.69959 -0.88239,9.21386 l -0.001,6.72 1.14587,3.24714 c 1.20167,3.40525 4.14625,9.02179 6.06141,11.56163 1.73736,2.30405 4.57651,4.39382 8.88859,6.5425 2.16474,1.07867 4.00922,2.07991 4.09888,2.22498 0.0897,0.14506 0.55053,0.26506 1.02413,0.26665 0.47363,0.002 2.44512,0.3703 4.38112,0.81934 1.936,0.44904 5.176,1.16779 7.2,1.59721 6.58768,1.39768 13.18461,5.29343 16.9536,10.01179 2.12509,2.6604 4.31917,7.25298 4.94713,10.35527 0.66096,3.26524 0.6648,10.04344 0.007,12.56831 -0.81628,3.13389 -3.84908,8.57733 -6.18384,11.09909 -2.53273,2.7356 -4.79308,4.2978 -9.47804,6.55058 -4.6929,2.25661 -7.16874,2.78272 -12.16602,2.58521 -8.74576,-0.34566 -16.40343,-4.39092 -21.5612,-11.38996 -1.85505,-2.51728 -2.85524,-4.44676 -4.04316,-7.79974 -0.48324,-1.364 -1.00396,-2.48 -1.15713,-2.48 -0.15318,0 -0.28627,0.036 -0.29576,0.08 -0.01,0.044 -0.13904,1.232 -0.28789,2.64 -0.20861,1.97328 -0.16695,2.8098 0.18178,3.64991 0.71576,1.72435 3.83572,5.31546 6.43412,7.40577 8.16642,6.56956 13.34514,8.3868 23.28924,8.17235 3.89462,-0.084 5.22253,-0.23889 7.04,-0.82121 z m 9.57357,-50.68031 c -0.0997,-0.25985 -0.13456,-0.88061 -0.0774,-1.37948 0.0948,-0.82755 0.21603,-0.90703 1.38387,-0.90703 h 1.28 v 1.28 c 0,1.24862 -0.0294,1.28244 -1.20256,1.37947 -0.83452,0.069 -1.25808,-0.0451 -1.38387,-0.37296 z m -7.808,-2.59978 c -0.28531,-0.34381 -0.55289,-0.38758 -0.97814,-0.16 -0.9688,0.51849 -1.95226,0.37096 -2.13293,-0.31997 -0.15094,-0.57712 -0.22547,-0.5913 -0.84125,-0.16 -1.47001,1.02964 -2.77325,0.29676 -2.77325,-1.55955 0,-0.43717 -0.10752,-1.05864 -0.23897,-1.38103 -0.1793,-0.43984 -0.27917,-0.26663 -0.4,0.69382 -0.14803,1.17669 -0.24666,1.28822 -1.22192,1.38184 -1.30611,0.12537 -1.97911,-0.39051 -1.97911,-1.51702 0,-1.13992 0.54436,-1.62482 1.824,-1.62482 0.82864,0 1.056,-0.13251 1.056,-0.61544 0,-0.3385 0.35504,-1.0374 0.789,-1.55312 l 0.78899,-0.93767 3.96099,-0.0487 c 3.6593,-0.045 4.04397,0.008 5.05101,0.69343 1.07257,0.73025 1.08937,0.77766 1.04947,2.96182 -0.0224,1.22083 -0.26694,2.75969 -0.54365,3.41969 -0.46022,1.09765 -0.61037,1.2 -1.76029,1.2 -0.71913,0 -1.42524,-0.20254 -1.64995,-0.47327 z m 1.59443,-4.37249 c 0,-0.62943 -0.6423,-0.91424 -2.06179,-0.91424 -0.91577,0 -1.03193,0.0917 -0.91181,0.72 0.11805,0.61764 0.33924,0.72 1.55562,0.72 1.10195,0 1.41798,-0.11717 1.41798,-0.52576 z m -31.06017,57.28589 c -3.07883,-1.68422 -11.53276,-7.81098 -12.86682,-9.32488 -0.44492,-0.50489 -0.55935,-1.16791 -0.53147,-3.07934 0.0303,-2.07892 -0.13054,-2.86212 -1.09768,-5.34418 -1.43964,-3.69467 -1.79874,-5.95518 -1.80015,-11.33173 -0.002,-6.65597 1.03929,-11.72815 3.34958,-16.32 1.06407,-2.11491 3.79872,-6.33347 5.39055,-8.31562 0.66477,-0.82777 1.03356,-1.55498 0.87101,-1.71753 -0.30586,-0.30586 -10.36763,-0.0569 -12.1403,0.30036 -0.60775,0.1225 -1.0088,0.0942 -0.91129,-0.0642 0.0987,-0.16041 -3.43579,-0.31895 -8.15962,-0.36601 l -8.3338,-0.083 0.25039,1.84302 c 0.32909,2.42228 0.29277,4.28127 -0.0884,4.52599 -0.26041,0.16718 -1.51723,30.73774 -1.44867,35.23702 0.0308,2.01777 -0.54158,13.13045 -0.72024,13.98467 -0.13763,0.65803 -0.0149,0.71225 1.85487,0.81907 1.10123,0.0629 10.08316,0.10581 19.95982,0.0953 l 17.95758,-0.0191 -1.53533,-0.83988 z m 17.62017,-3.64013 c 0,-1.37455 -0.042,-1.44 -0.92499,-1.44 -0.82969,0 -0.93997,0.12363 -1.0704,1.2 -0.15648,1.29121 0.12986,1.6673 1.27539,1.6751 0.64074,0.004 0.72,-0.15365 0.72,-1.4351 z m 7.36,0.40132 c 9.00516,-2.74822 15.73168,-10.03484 17.48064,-18.93622 0.47402,-2.41253 0.49904,-3.23889 0.18036,-5.95537 -0.4409,-3.75767 -1.02935,-5.41514 -3.19626,-9.00256 -2.78554,-4.61156 -5.06474,-6.77411 -9.53082,-9.043 -2.59088,-1.31623 -6.8056,-2.81181 -7.21353,-2.55969 -0.15421,0.0953 -0.28039,3.46635 -0.28039,7.49118 v 7.31789 l -0.7695,0.60529 c -0.74176,0.58348 -0.74755,0.61902 -0.16,0.98594 0.90682,0.56632 0.84186,2.73619 -0.1017,3.39708 -1.62352,1.13715 -3.4488,0.21527 -3.4488,-1.74186 0,-0.81186 0.19444,-1.3889 0.56,-1.66185 0.49319,-0.36827 0.57047,-1.14344 0.64784,-6.49815 0.0832,-5.75748 0.0602,-6.031 -0.43308,-5.15634 -0.38272,0.67857 -0.51085,1.67496 -0.48285,3.75502 0.0328,2.4425 -0.0505,2.91993 -0.60691,3.47634 -0.91514,0.91513 -2.58116,0.84966 -3.5089,-0.1379 -0.64947,-0.69132 -0.71379,-1.00008 -0.54982,-2.64 0.483,-4.83083 0.81321,-7.46536 1.01568,-8.1033 0.19523,-0.61511 0.13292,-0.67045 -0.53037,-0.47099 -1.51715,0.45622 -5.91309,2.79242 -7.47898,3.97466 -5.54915,4.18967 -9.54572,10.6648 -10.43062,16.89943 -0.45504,3.20599 -0.17308,7.42374 0.65519,9.80073 1.78711,5.12877 6.4587,10.15365 12.02282,12.93206 l 1.92,0.95874 0.039,-1.32422 c 0.10842,-3.68202 0.69862,-8.46237 1.15133,-9.32498 0.72633,-1.38412 1.60992,-2.08058 2.90649,-2.29098 0.93568,-0.15184 1.28151,-0.0391 1.95968,0.63913 l 0.82352,0.82351 v -4.25212 c 0,-2.33867 0.10068,-4.35281 0.22375,-4.47586 0.12307,-0.12306 0.18512,-0.85193 0.13789,-1.61971 -0.0706,-1.14811 0.0443,-1.48716 0.64745,-1.90959 0.84208,-0.5898 1.95741,-0.66112 2.85194,-0.18237 0.85545,0.45782 0.85213,2.55855 -0.005,3.33447 -0.56733,0.51341 -0.58077,0.63129 -0.14739,1.29269 0.424,0.6471 0.40854,1.7552 -0.13949,9.99791 -0.35389,5.32271 -0.77811,9.57245 -0.99626,9.98007 -0.37433,0.69944 -0.35715,0.70659 1.16371,0.4848 0.849,-0.12381 2.47965,-0.51076 3.62365,-0.85988 z m -10.24,-4.86243 c 0,-0.42961 0.144,-0.87011 0.32,-0.97889 0.176,-0.10877 0.32,-0.60448 0.32,-1.10158 0,-0.70766 -0.172,-0.93669 -0.79248,-1.0553 -0.43587,-0.0833 -0.86787,-0.0761 -0.96,0.016 -0.0921,0.0921 -0.16752,1.00752 -0.16752,2.03419 0,1.65333 0.0732,1.86667 0.64,1.86667 0.46522,0 0.64,-0.21334 0.64,-0.78112 z m -26.31061,-20.97889 c 0.2235,-3.87664 0.25379,-4.00328 0.98193,-4.10636 0.99558,-0.14094 2.20167,1.02167 2.66534,2.56926 0.20124,0.67168 0.41448,1.17263 0.47388,1.11324 0.0594,-0.0594 0.3869,-1.19852 0.72779,-2.53138 0.62625,-2.44864 1.779,-5.04477 3.02147,-6.80476 0.37274,-0.528 0.60627,-0.98393 0.51896,-1.01319 -0.0873,-0.0292 0.17251,-0.50125 0.5774,-1.0489 0.40489,-0.54763 0.84704,-0.92718 0.98256,-0.84342 0.13552,0.0838 1.67625,-1.29033 3.42384,-3.05352 3.629,-3.66139 4.77719,-4.42858 8.50026,-5.67958 2.27642,-0.76492 2.57613,-0.94545 2.03354,-1.22492 -0.34999,-0.18029 -1.3394,-0.4196 -2.19866,-0.5318 -0.85923,-0.11221 -2.92035,-0.84735 -4.58026,-1.63364 -4.11018,-1.94702 -4.73032,-2.0335 -6.42423,-0.89585 -0.77552,0.52085 -1.6939,1.53169 -2.12666,2.34077 -0.41892,0.78323 -0.95627,1.42405 -1.19411,1.42405 -1.35208,0 -7.16564,11.35292 -8.11881,15.8547 -0.7178,3.39014 -0.64105,10.43141 0.12715,11.6653 0.23297,0.37421 0.29943,-0.23723 0.60861,-5.6 z m 97.3334,-28.05972 c 0.21865,-0.50163 0.64928,-0.73553 1.52112,-0.82621 1.1263,-0.11714 1.10313,-0.13045 -0.31396,-0.18027 -1.06774,-0.0375 -1.58902,-0.20755 -1.72531,-0.56267 -0.15603,-0.40658 -0.31369,-0.32185 -0.78438,0.42156 -0.47725,0.75377 -0.52941,1.13859 -0.27469,2.02676 0.17293,0.60298 0.32736,1.96128 0.34314,3.01844 l 0.0288,1.92211 0.45017,-2.56 c 0.24759,-1.408 0.58743,-2.87487 0.75517,-3.25972 z m -3.74298,2.73481 c -0.23251,-0.9035 -0.43971,-1.09109 -1.29824,-1.17536 -0.90915,-0.0892 -1.02157,-0.01 -1.02157,0.72 0,0.69997 0.14227,0.82027 0.97005,0.82027 0.5791,0 1.0464,0.19901 1.15952,0.49381 0.33651,0.87688 0.47546,0.2496 0.19024,-0.85872 z m -125.78092,-3.63509 c 1.03471,-2.01361 -0.24821,-2.4273 -1.52838,-0.49283 l -0.83857,1.26717 0.74881,1.21159 0.7488,1.21159 0.18802,-1.11876 c 0.10341,-0.61532 0.41001,-1.55076 0.68132,-2.07876 z m 105.70111,-0.97393 c 6.512,-0.0965 12.42477,-0.24552 13.13949,-0.33125 l 1.29949,-0.15589 0.38979,-18.30946 c 0.46304,-21.75122 0.91936,-36.47365 1.17504,-37.90946 l 0.18518,-1.04 h -21.81913 -21.81917 l 1.08467,0.74576 c 2.36016,1.62276 9.46106,6.67543 10.3896,7.39277 0.56119,0.43353 1.23565,1.42795 1.56759,2.31119 0.32041,0.85265 1.41001,3.49427 2.42131,5.87027 2.06678,4.85591 2.79926,7.89938 3.08064,12.8 0.53363,9.29486 -1.94099,17.122 -7.91379,25.03107 l -2.48375,3.28893 0.85152,0.40821 c 0.58797,0.28187 1.74285,0.35637 3.73152,0.24072 1.584,-0.0921 8.208,-0.24641 14.72,-0.34286 z m -17.76848,-52.64189 c -0.19302,-0.3607 -0.30611,-1.0447 -0.25126,-1.52 0.0919,-0.7961 0.21318,-0.86418 1.53974,-0.86418 1.32656,0 1.44788,0.0681 1.53975,0.86418 0.15254,1.32207 -0.45162,2.17582 -1.53975,2.17582 -0.6175,0 -1.05728,-0.22383 -1.28848,-0.65582 z m -49.7483,49.05582 c -3.11432,-3.85391 -4.94513,-6.89043 -5.78238,-9.59045 -1.30854,-4.21986 -2.0532,-13.54702 -1.45061,-18.16955 0.63729,-4.88877 1.46937,-7.33756 4.12428,-12.13755 3.62826,-6.55981 7.19348,-10.1385 13.18549,-13.23536 1.144,-0.59125 1.77421,-0.9883 1.40048,-0.88233 -0.37372,0.10597 -10.00289,0.22476 -21.39813,0.26396 l -20.71861,0.0713 0.24026,3.35999 c 0.13215,1.848 0.29133,11.424 0.35375,21.28 0.0624,9.856 0.17237,18.352 0.24434,18.88 0.072,0.528 0.23399,1.5 0.36001,2.16 0.18807,0.98498 0.13674,1.2 -0.28648,1.2 -0.44652,0 -0.51562,0.53347 -0.51562,3.98112 0,2.30889 0.13442,4.06418 0.32,4.17888 0.176,0.10878 0.31998,0.51328 0.31994,0.89889 l -7e-5,0.70111 10.00007,0.0201 c 5.50004,0.0111 12.44806,0.16894 15.44006,0.35085 2.992,0.18192 5.83638,0.35287 6.32083,0.3799 0.82575,0.0461 0.69084,-0.18596 -2.15761,-3.71086 z m 46.3611,-0.74792 c 3.2177,-3.57884 5.73456,-8.16732 7.44452,-13.57208 0.86492,-2.73388 0.91116,-3.18034 0.91116,-8.8 0,-5.26979 -0.0834,-6.21153 -0.75894,-8.57439 -0.41741,-1.45992 -0.82237,-2.59095 -0.8999,-2.51341 -0.0775,0.0775 0.10076,2.16836 0.39628,4.64627 0.29549,2.47792 0.45296,4.72495 0.34996,4.99342 -0.30368,0.79141 -1.5418,0.56092 -2.62464,-0.48862 l -1.00775,-0.97672 -0.2032,2.17672 c -0.76803,8.22666 -5.61827,15.25046 -13.30323,19.26492 -1.43795,0.75114 -2.23277,1.32902 -1.94858,1.4167 2.84164,0.8766 5.97924,2.08461 7.68,2.95688 1.144,0.58671 2.17466,1.07384 2.29034,1.0825 0.11571,0.009 0.86899,-0.71683 1.67398,-1.61219 z m 46.91568,-3.17208 c 0,-0.176 -0.13549,-0.32 -0.30112,-0.32 -0.1656,0 -0.39011,0.144 -0.49888,0.32 -0.10877,0.176 0.0266,0.32 0.30112,0.32 0.27437,0 0.49888,-0.144 0.49888,-0.32 z m -72.23827,-2.38218 c -0.0945,-0.49452 -0.40185,-0.81816 -0.83561,-0.88 -0.8753,-0.12479 -1.05613,-1.23983 -0.37072,-2.28589 0.82684,-1.2619 2.91142,-2.55199 3.83756,-2.37495 0.45456,0.0869 0.83428,-9.6e-4 0.86938,-0.20135 0.0343,-0.19559 0.0703,-2.94763 0.08,-6.11563 l 0.0176,-5.76 1.26723,-0.10332 c 0.92599,-0.0755 1.3784,0.0487 1.68,0.46116 0.4969,0.67954 0.54458,2.24293 0.0772,2.53177 -0.20711,0.128 -0.22359,0.34956 -0.0431,0.57888 0.16083,0.20433 0.38054,2.89151 0.48822,5.97151 0.10765,3.08 0.2911,6.356 0.40765,7.28 0.208,1.6491 0.23155,1.68 1.28086,1.68 0.58791,0 1.63991,-0.22845 2.33776,-0.50767 1.11824,-0.44744 1.28039,-0.64679 1.36647,-1.68 l 0.0977,-1.17233 1.63402,-0.0162 c 1.42973,-0.0141 1.84794,-0.18649 3.34534,-1.37874 0.94122,-0.74942 2.61936,-2.54215 3.72916,-3.98384 3.16937,-4.11712 4.45526,-9.01409 4.17488,-15.89879 -0.18228,-4.4752 -0.7881,-6.25109 -3.22128,-9.44247 -3.48884,-4.57599 -10.4456,-9.25937 -14.15738,-9.53089 l -0.94474,-0.0691 -0.16848,8 c -0.0927,4.4 -0.28115,8.18 -0.41888,8.4 -0.42976,0.68648 -1.72697,0.44985 -2.4294,-0.44315 -0.43322,-0.55072 -0.67636,-1.35537 -0.70109,-2.32 -0.0208,-0.81227 -0.13619,-1.90885 -0.25639,-2.43685 -0.20336,-0.89358 -0.2312,-0.85515 -0.4023,0.55539 -0.23462,1.93438 -0.9752,3.05354 -2.42006,3.65725 -1.55428,0.64941 -3.04442,0.32375 -4.0642,-0.88818 -0.90851,-1.07969 -1.2464,-2.07832 -1.08572,-3.20864 0.14425,-1.01459 1.06371,-1.12517 2.52531,-0.30371 1.40025,0.78699 1.59965,0.55741 1.21907,-1.40385 -0.43155,-2.22395 -0.32157,-4.76343 0.24106,-5.56671 0.4648,-0.6636 0.46809,-0.79169 0.0314,-1.22834 -0.6945,-0.6945 -2.23309,-0.14072 -2.47418,0.89052 -0.26646,1.13989 -1.73219,1.2484 -2.29718,0.17008 l -0.42167,-0.80479 -1.66598,1.2704 c -2.99859,2.28658 -6.52458,8.22783 -7.58777,12.78535 -0.41109,1.76216 -0.4144,2.5034 -0.0256,5.72962 0.56979,4.72823 1.16853,6.93115 2.65115,9.75429 1.29552,2.46687 4.34624,5.91677 6.87117,7.77023 1.49165,1.09497 5.27891,3.27761 5.71536,3.29383 0.10762,0.004 0.12835,-0.34472 0.0461,-0.77492 z m 3.64787,-19.96301 c -1.37772,-1.52237 -0.18444,-3.35723 2.0777,-3.1948 1.63222,0.11719 1.8951,0.74108 1.10701,2.62727 -0.41901,1.00279 -0.62301,1.15272 -1.56839,1.15272 -0.6464,0 -1.30131,-0.23711 -1.61632,-0.58519 z m -0.67008,-16.9193 c -0.32016,-0.83437 -0.5496,-0.24316 -0.28976,0.74673 0.1776,0.67662 0.27287,0.76571 0.36263,0.33907 0.0669,-0.31828 0.0342,-0.80689 -0.0729,-1.0858 z m 0.30896,-6.4337 c -0.0985,-0.0985 -0.35673,-2.1e-4 -0.57382,0.21849 -0.31366,0.31603 -0.27693,0.35279 0.17914,0.17913 0.31558,-0.12017 0.49318,-0.2991 0.39468,-0.39762 z m 66.23152,-6.4618 c 0.10877,-0.176 -0.0906,-0.32 -0.44297,-0.32 -0.35242,0 -0.84986,-0.29858 -1.10548,-0.66351 -0.26067,-0.37218 -0.55097,-0.52393 -0.66118,-0.34562 -0.10806,0.17483 0.18432,0.61741 0.64973,0.9835 0.94467,0.74307 1.26976,0.8151 1.5599,0.34563 z m -64.12428,-4.01848 c 0.7006,-0.36229 0.93667,-0.69013 0.86412,-1.2 -0.0858,-0.60262 -0.331,-0.71496 -1.73961,-0.79685 -1.54087,-0.0896 -1.64928,-0.0455 -1.79779,0.73141 -0.11364,0.59433 0.0301,0.95846 0.51097,1.29532 0.83575,0.58539 0.97629,0.58345 2.16231,-0.0299 z m 64.92428,-2.41514 c 0,-0.39626 -0.22534,-0.60638 -0.6503,-0.60638 -0.37533,0 -0.77271,-0.30447 -0.93971,-0.72 -0.1592,-0.396 -0.30199,-0.576 -0.31735,-0.4 -0.0154,0.176 -0.14557,0.82561 -0.28934,1.4436 l -0.26144,1.1236 1.22909,-0.11722 c 0.95177,-0.0908 1.22905,-0.25401 1.22905,-0.7236 z m 0.8,-5.72638 c -0.10877,-0.176 -0.33328,-0.32 -0.49888,-0.32 -0.16563,0 -0.30112,0.144 -0.30112,0.32 0,0.176 0.22451,0.32 0.49888,0.32 0.2744,0 0.40989,-0.144 0.30112,-0.32 z m -63.77171,-1.65744 c -0.30157,-0.11967 -0.76429,-0.21857 -1.02829,-0.21979 -0.264,-0.001 -0.156,0.12803 0.24,0.2872 0.396,0.15917 0.72221,0.47404 0.7249,0.69972 0.004,0.28627 0.0966,0.26523 0.30829,-0.0696 0.2192,-0.34675 0.15123,-0.5403 -0.2449,-0.69751 z M 245.58549,343.3462 c -1.78832,-0.58477 -2.63533,-1.62016 -2.63533,-3.22147 0,-1.90122 0.74504,-2.57184 2.68569,-2.41751 1.18226,0.094 1.46837,0.01 1.59346,-0.46845 0.11648,-0.44544 0.40369,-0.55897 1.21666,-0.48099 0.89875,0.0862 1.08022,0.24189 1.16731,1.00144 0.0567,0.49463 -0.0676,1.10506 -0.27625,1.35645 -0.30418,0.36653 -0.17829,0.68614 0.63506,1.61251 0.70372,0.80151 0.98436,1.41514 0.91625,2.00352 -0.0942,0.81399 -0.18196,0.85034 -2.17818,0.90215 -1.144,0.0298 -2.5501,-0.0998 -3.12467,-0.28765 z m 31.69505,-2.56634 c -1.07051,-1.16576 -2.40089,-4.00336 -2.55708,-5.45408 -0.10993,-1.02102 0.0494,-1.70752 0.66019,-2.8439 0.70683,-1.31517 0.74646,-1.54669 0.3247,-1.89671 -1.6695,-1.38556 -1.90318,-4.80372 -0.48165,-7.04525 1.18269,-1.86491 2.50134,-2.89696 3.54596,-2.77528 0.78974,0.092 0.8175,0.17129 0.8175,2.33522 0,2.47593 0.63086,4.12643 2.52894,6.61642 1.5825,2.07597 2.1118,3.28544 2.10403,4.80768 -0.009,1.79357 -0.8994,3.70493 -2.56953,5.5168 -1.13071,1.22669 -1.53348,1.4591 -2.52842,1.4591 -0.81806,0 -1.38761,-0.2223 -1.84464,-0.72 z m 2.28713,-2.44361 c 0.0964,-0.156 -0.10032,-0.35568 -0.43717,-0.44378 -0.4288,-0.11213 -0.56139,-0.0272 -0.44217,0.28362 0.19335,0.50384 0.61902,0.58137 0.87934,0.16016 z m 2.00424,-4.11031 c -0.0811,-0.31133 -0.15285,-0.13408 -0.15937,0.39392 -0.007,0.528 0.0599,0.78275 0.14752,0.56608 0.0876,-0.21664 0.093,-0.64864 0.0119,-0.96 z m -1.82175,-3.1072 c 0,-0.0776 -0.144,-0.23011 -0.32,-0.33888 -0.176,-0.10877 -0.32,-0.0453 -0.32,0.14112 0,0.18637 0.144,0.33888 0.32,0.33888 0.176,0 0.32,-0.0635 0.32,-0.14112 z m -1.79509,-2.97888 c -0.40969,-0.836 -0.75378,-1.736 -0.76464,-2 -0.0157,-0.38196 -0.0859,-0.36648 -0.34353,0.0758 -0.22396,0.38441 -0.20864,0.77906 0.0497,1.28 0.31905,0.61865 1.5647,2.16424 1.74423,2.16424 0.0325,0 -0.27608,-0.684 -0.68578,-1.52 z m -123.63675,9.20051 c -3.03201,-0.46403 -2.76089,2.18244 -2.98882,-29.17411 -0.11045,-15.19452 -0.34927,-31.0104 -0.5307,-35.1464 -0.9495,-21.64508 -1.70387,-52.3805 -1.40145,-57.10002 0.30583,-4.77289 -0.21714,-4.51148 9.56903,-4.78318 4.39108,-0.12191 12.13334,-0.2929 17.20502,-0.37999 8.37814,-0.14385 9.32857,-0.21586 10.39526,-0.78757 1.63382,-0.87567 2.98604,-0.8156 3.84367,0.17076 0.675,0.77632 0.81646,0.79971 4.77771,0.79002 3.76915,-0.009 4.18025,-0.0704 5.36212,-0.79836 1.43271,-0.88243 2.89545,-1.01867 3.6548,-0.3404 0.80618,0.72009 7.21992,1.17867 8.78113,0.62784 1.6474,-0.58124 3.27178,-0.55436 5.14877,0.0852 1.28929,0.4393 2.21925,0.48354 5.73701,0.27294 2.30905,-0.13824 5.42229,-0.23964 6.91829,-0.22534 7.9385,0.0759 18.87084,0.31131 24.96912,0.53761 3.78901,0.14061 8.69206,0.15166 10.89567,0.0246 l 4.00656,-0.23109 0.67058,-1.33148 c 0.58763,-1.16679 0.65018,-1.71874 0.50569,-4.46205 -0.20053,-3.80727 0.2428,-5.64494 1.7695,-7.33481 1.00667,-1.11426 1.23697,-1.21463 2.78696,-1.21463 1.52642,0 1.78345,0.10687 2.66113,1.10649 1.26409,1.43972 1.56447,3.31813 0.86144,5.38685 -0.51781,1.52368 -0.51594,1.53946 0.29613,2.50455 0.48254,0.57347 0.81722,1.36803 0.81722,1.94019 0,1.36039 -1.40108,4.01452 -2.96773,5.62192 -1.57782,1.61885 -2.42423,1.71944 -4.71227,0.56 -0.8683,-0.44 -1.63865,-0.8 -1.71188,-0.8 -0.0732,0 -0.042,9.036 0.0694,20.08 0.11139,11.044 0.20252,33.65203 0.20252,50.24006 0,21.30813 0.10102,30.16004 0.34422,30.16 0.57016,-1.1e-4 1.73578,1.43522 1.73578,2.1374 0,0.78099 -1.15588,2.34254 -1.73398,2.34254 -0.31174,0 -0.4603,1.73304 -0.63209,7.37375 -0.12352,4.05556 -0.30662,7.58756 -0.4069,7.8489 -0.10028,0.26131 -0.46718,0.62758 -0.81534,0.81389 -0.95627,0.51181 -8.0686,0.9056 -21.21549,1.17465 -11.63327,0.23812 -11.86522,0.25565 -13.04878,0.98714 -0.99094,0.61242 -1.47341,0.70973 -2.7162,0.54778 -0.83117,-0.10832 -3.68259,-0.28135 -6.33649,-0.38448 -4.45093,-0.17296 -4.93987,-0.1353 -6.30245,0.48544 -1.75051,0.79744 -2.14096,0.81504 -4.20314,0.18947 -2.11371,-0.64122 -7.25608,-0.6241 -9.46372,0.0314 -1.11784,0.33197 -2.21928,0.43766 -3.17808,0.30496 -0.80704,-0.11168 -3.17788,-0.2808 -5.26854,-0.37578 -3.12526,-0.14198 -4.05824,-0.0745 -5.2467,0.37933 -1.28447,0.49056 -1.73439,0.50746 -4.0388,0.15181 -2.45871,-0.37949 -12.6642,-0.3344 -28.6733,0.12665 -2.552,0.0735 -5.42833,0.0131 -6.39184,-0.13449 z m 37.91184,-2.56051 c 0.42252,-0.18157 -0.35695,-0.28265 -2.29383,-0.2975 -1.61361,-0.0125 -3.16161,-0.10989 -3.44,-0.21674 -0.2784,-0.10681 -0.50617,-0.0414 -0.50617,0.14538 0,0.19488 0.92048,0.38733 2.16,0.45155 1.188,0.0616 2.448,0.13005 2.8,0.15216 0.352,0.0221 0.928,-0.0836 1.28,-0.23485 z m 26.72,-0.32 c 0,-0.176 -0.324,-0.31779 -0.72,-0.3151 -0.58222,0.004 -0.62815,0.0643 -0.24,0.3151 0.6204,0.40093 0.96,0.40093 0.96,0 z m -22.08,-0.32278 c 0,-0.20368 -0.67908,-0.24634 -1.84,-0.11555 -2.47406,0.27865 -2.52263,0.43833 -0.13334,0.43833 1.11362,0 1.97334,-0.14064 1.97334,-0.32278 z m 37.6,-0.31722 c 0.25347,-0.41014 -1.12536,-0.41014 -1.76,0 -0.36524,0.23603 -0.23587,0.31136 0.54111,0.31511 0.56161,0.003 1.11011,-0.13911 1.21889,-0.31511 z m -6.26667,-0.11405 c -0.35994,-0.30784 -2.21333,-0.4736 -2.21333,-0.19795 0,0.17159 0.528,0.312 1.17333,0.312 0.64533,0 1.11333,-0.0513 1.04,-0.11405 z m -58.08618,-0.56492 11.80715,0.0719 -1.65168,-1.8072 c -3.0639,-3.35241 -4.20658,-6.26306 -4.19789,-10.69296 0.01,-4.96014 1.39511,-8.40981 4.71079,-11.73001 2.87874,-2.88267 5.4664,-4.0892 9.07904,-4.2332 4.81655,-0.192 8.72043,1.12037 11.56544,3.88794 l 1.52,1.47863 -0.007,-1.18806 c -0.004,-0.65344 -0.22046,-4.42807 -0.48168,-8.38807 -0.26123,-3.96 -0.54508,-11.808 -0.63078,-17.44 -0.27642,-18.16437 -0.8101,-30.97517 -1.3141,-31.54519 -0.51866,-0.58659 -0.59148,-1.76755 -0.1267,-2.05481 0.35422,-0.21891 0.44272,-9.13469 0.11062,-11.14459 l -0.20234,-1.22461 -1.79414,1.7703 c -2.93717,2.89814 -6.28697,3.89666 -12.29045,3.66357 -2.96108,-0.11497 -3.44762,-0.22546 -5.24748,-1.19164 -2.35165,-1.26239 -5.44934,-4.37096 -6.57939,-6.60249 -2.32629,-4.5938 -2.42476,-8.75791 -0.3437,-14.5352 0.66186,-1.83742 1.24686,-2.78513 2.54919,-4.12971 l 1.69022,-1.74505 -5.31737,0.20971 c -2.92454,0.11534 -8.69246,0.20971 -12.8176,0.20971 h -7.50023 l 0.212,8.72 c 0.26067,10.72142 0.68295,22.33061 1.12035,30.8 0.50357,9.75089 0.63757,11.04 1.1476,11.04 0.24346,0 0.37232,0.1833 0.28635,0.40732 -0.086,0.22402 -0.21653,1.19602 -0.29015,2.16 -0.21132,2.76714 -0.16264,64.60852 0.0513,65.16603 0.15624,0.40716 0.46621,0.45337 1.66363,0.24809 0.80939,-0.13878 6.78484,-0.21997 13.27877,-0.18041 z m 43.93967,-0.99879 7.74683,-0.0822 -1.22151,-1.28 c -1.53883,-1.61251 -3.03333,-3.82969 -4.0424,-5.9971 -0.74662,-1.60369 -0.78364,-1.97672 -0.78662,-7.92608 -0.002,-3.43375 -0.22452,-8.9726 -0.49511,-12.30856 -0.27059,-3.33595 -0.47959,-6.71852 -0.46445,-7.51681 0.0151,-0.7983 -0.062,-8.21945 -0.17153,-16.49145 -0.16183,-12.22603 -0.28448,-15.1726 -0.65555,-15.74874 -0.54778,-0.85048 -0.60098,-2.52418 -0.0903,-2.83982 0.4424,-0.27342 0.23409,-8.00594 -0.5251,-19.49144 -0.55232,-8.35584 -0.42057,-15.52945 0.34859,-18.97977 0.6196,-2.7794 1.80041,-5.14304 3.45924,-6.92434 0.76995,-0.8268 1.23592,-1.55257 1.03549,-1.61282 -0.67006,-0.20142 -18.64955,-0.49128 -18.83714,-0.30369 -0.10171,0.10171 0.44609,0.76658 1.21734,1.4775 0.77125,0.71091 1.80121,2.10494 2.28882,3.09784 l 0.88655,1.80528 0.19363,9.6 c 0.10649,5.28 0.35927,14.136 0.56172,19.68 1.2657,34.66015 1.69306,51.9097 1.58561,64 -0.11502,12.94179 -0.10604,12.89337 -2.95833,15.94269 -0.80445,0.86003 -1.46263,1.64618 -1.46263,1.74704 0,0.35258 1.13424,0.49686 2.88,0.36634 0.968,-0.0724 5.24607,-0.16858 9.50682,-0.21383 z m -6.17326,-65.31573 c -0.0997,-0.25985 -0.13455,-0.88061 -0.0774,-1.37948 0.0948,-0.82755 0.21602,-0.90703 1.38387,-0.90703 h 1.28 v 1.28 c 0,1.24862 -0.0295,1.28244 -1.20258,1.37947 -0.83452,0.069 -1.25805,-0.0451 -1.38386,-0.37296 z m -14.96022,65.04581 c 3.33421,-0.46374 4.13367,-0.84256 6.52836,-3.09341 1.86053,-1.74875 2.02804,-2.01464 1.95477,-3.10265 -0.0651,-0.96714 0.0426,-1.22208 0.57519,-1.36136 0.85865,-0.22454 1.09677,-1.28919 0.87001,-3.88991 -0.3764,-4.31705 -2.23435,-8.10832 -4.80062,-9.79596 -2.25138,-1.48056 -6.16934,-2.29478 -8.60571,-1.78842 -2.16008,0.44894 -4.66779,1.88179 -6.6449,3.79677 -1.28207,1.24178 -1.68026,1.91924 -2.29383,3.90262 -1.61079,5.20699 -0.78171,8.65925 3.02091,12.57891 2.87914,2.96778 4.48057,3.43706 9.39582,2.75341 z m -2.37501,-9.30199 c -0.50778,-0.50777 -0.51688,-2.26378 -0.0143,-2.76633 0.53229,-0.53229 2.65622,-0.4821 3.11747,0.0737 0.2089,0.25172 0.33454,1.00772 0.27918,1.68 -0.0992,1.20442 -0.12177,1.22371 -1.54231,1.31666 -0.84449,0.0553 -1.60667,-0.0707 -1.84,-0.304 z m 42.58556,8.55044 c 2.9572,-0.56579 4.65446,-1.40739 6.33895,-3.14314 3.42295,-3.52711 4.19653,-8.30321 2.12628,-13.12766 -0.60288,-1.40493 -0.70084,-1.48996 -1.19804,-1.04 -0.64676,0.58531 -1.97177,0.64135 -2.50708,0.10603 -0.56338,-0.56338 -0.48571,-2.47706 0.10981,-2.70558 0.43278,-0.16607 0.42289,-0.26792 -0.08,-0.824 -1.57834,-1.74531 -6.0815,-2.83256 -9.08013,-2.19232 -2.46242,0.52575 -4.2279,1.46106 -5.83513,3.09132 -2.40123,2.43564 -3.99836,6.58514 -3.55747,9.24269 0.77911,4.69624 5.24509,9.71916 9.55984,10.75202 1.43575,0.34368 1.50852,0.34086 4.12297,-0.15936 z m -2.65264,-10.39973 c -0.92606,-1.73037 0.3392,-3.66907 2.27373,-3.48392 1.02144,0.0978 1.08,0.17229 1.17501,1.49559 0.12509,1.74211 -0.55793,2.60729 -2.05833,2.60729 -0.71964,0 -1.16533,-0.1984 -1.39041,-0.61896 z m 34.295,9.7004 3.10625,-0.18851 0.37774,-1.14458 c 0.2647,-0.80205 0.31481,-2.63535 0.16743,-6.12645 -0.20133,-4.76896 -0.91155,-70.75722 -0.96975,-90.1019 -0.0154,-5.104 0.0817,-11.008 0.21562,-13.12 0.13395,-2.112 0.1304,-4.01199 -0.008,-4.2222 -0.18576,-0.28237 -3.91527,-0.4253 -14.27785,-0.54719 l -14.02641,-0.16499 1.64984,1.74446 c 1.9323,2.04313 3.57776,5.33804 3.79504,7.59928 0.23435,2.43894 -0.51134,6.65095 -1.57603,8.90225 -1.22405,2.58826 -5.16489,6.56929 -7.64025,7.71819 -3.54109,1.64353 -7.78525,1.98088 -11.25149,0.89433 -1.11568,-0.34973 -2.24112,-0.63773 -2.50098,-0.64 -0.25986,-0.002 -1.48386,-1.00941 -2.72,-2.23808 l -2.24753,-2.23396 0.0799,3.11396 c 0.044,1.71267 0.29663,5.92195 0.56148,9.35395 0.26485,3.432 0.62479,13.872 0.79986,23.2 0.17508,9.328 0.41365,21.67395 0.53016,27.43544 l 0.21184,10.47544 1.94837,-1.96852 c 2.86793,-2.8976 5.16409,-3.88964 9.37332,-4.04969 2.65373,-0.1009 3.67934,0.002 5.47841,0.54817 4.19782,1.27505 7.73258,4.34584 9.62217,8.35916 0.76767,1.63047 0.82887,2.08971 0.83156,6.24 0.003,5.20148 -0.37486,6.58099 -2.53275,9.23774 -0.73365,0.90325 -1.455,1.84044 -1.60299,2.08268 -0.22722,0.3719 1.26875,0.40845 9.61478,0.23497 5.43612,-0.11299 11.28167,-0.29027 12.99011,-0.39395 z m -73.35048,-92.18126 c 2.48415,-0.68211 3.23467,-1.13121 5.62106,-3.36356 2.97341,-2.78148 3.34317,-3.63573 3.34317,-7.72364 0,-3.8189 -0.40461,-5.29063 -2.08312,-7.57723 -2.02205,-2.75458 -6.18259,-4.86166 -9.6174,-4.87066 -6.90841,-0.0181 -12.36038,5.35606 -12.42753,12.25019 -0.0206,2.10933 0.10937,2.68524 1.02556,4.54629 1.73991,3.53426 5.57158,6.58338 9.10879,7.2485 1.52096,0.28599 2.48805,0.18795 5.02947,-0.50989 z m -4.34714,-10.14652 c -0.0942,-0.2455 -0.12568,-1.0015 -0.07,-1.68 0.10124,-1.2327 0.10242,-1.23366 1.53361,-1.23366 1.26898,0 1.46706,0.0989 1.73724,0.86711 0.20705,0.58875 0.18604,1.12807 -0.0654,1.68 -0.30796,0.67588 -0.58897,0.81289 -1.66729,0.81289 -0.81414,0 -1.36066,-0.16614 -1.46818,-0.44634 z m 44.19137,9.61135 c 2.44527,-0.65319 4.27227,-1.71335 5.98769,-3.4745 3.26722,-3.35434 4.31153,-6.54 3.29665,-10.05643 -0.77043,-2.66945 -2.00688,-4.79149 -3.61834,-6.20996 -3.73718,-3.2896 -11.99913,-3.63912 -14.16375,-0.59919 -0.36621,0.51429 -0.92461,0.93507 -1.24089,0.93507 -1.6628,0 -3.21769,2.39837 -3.99518,6.16245 -0.59582,2.88454 -0.62767,4.09975 -0.15297,5.83755 0.5206,1.90591 1.56782,3.08351 4.53362,5.0981 4.05275,2.75292 5.94047,3.21852 9.35317,2.30691 z m -3.12,-8.71021 c -0.132,-0.1328 -0.24,-0.86214 -0.24,-1.62075 0,-1.64998 0.9219,-2.45869 2.61735,-2.29601 1.02842,0.0987 1.06172,0.14633 1.03373,1.47945 -0.0159,0.75761 -0.24187,1.59044 -0.50216,1.85073 -0.54227,0.54227 -2.55048,0.94723 -2.90892,0.58658 z m -4.08,-15.69212 c 0,-0.0675 -0.288,-0.12268 -0.64,-0.12268 -0.352,0 -0.64,0.13052 -0.64,0.29005 0,0.15952 0.288,0.21473 0.64,0.12267 0.352,-0.0921 0.64,-0.22256 0.64,-0.29004 z m 11.52,0.22545 c 0,-0.30522 -1.20007,-0.53522 -4.16,-0.79725 l -1.76,-0.15582 1.6,0.31626 c 0.88,0.17393 2.032,0.43934 2.56,0.5898 1.32283,0.37694 1.76,0.38862 1.76,0.047 z m 40.61005,-2.39204 c 0.30073,-0.36236 0.14628,-0.47174 -0.84082,-0.59539 -1.55425,-0.1947 -1.98207,0.0561 -1.01247,0.59357 0.98687,0.54701 1.40048,0.54742 1.85329,0.002 z m 0.0559,-4.35608 c 0.83737,0 1.33728,0.16454 1.45833,0.47999 0.10131,0.264 0.33973,0.48 0.52983,0.48 0.1901,0 -0.0682,-0.432 -0.5741,-0.95999 -0.70706,-0.73801 -1.20189,-0.96 -2.13987,-0.96 -1.16523,0 -1.2197,0.0468 -1.2104,1.04 0.008,0.86145 0.0657,0.94386 0.3359,0.47999 0.22422,-0.38495 0.72443,-0.55999 1.60031,-0.55999 z m 1.57406,-5.71685 c 0,-0.32827 -0.30537,-0.98505 -0.67859,-1.45953 l -0.67859,-0.86268 -0.76141,0.7153 c -0.99975,0.93922 -0.96072,1.24376 0.1594,1.24376 0.50645,0 1.10008,0.216 1.31919,0.48 0.52058,0.62726 0.64,0.60545 0.64,-0.11685 z M 417.69448,335.8581 c -1.49142,-1.89606 -1.54019,-4.55318 -0.14221,-7.74676 l 0.74791,-1.70852 -0.66183,-1.45281 c -0.95219,-2.09017 -1.10755,-3.44875 -0.50035,-4.37546 0.6032,-0.9206 4.47165,-2.83152 5.4497,-2.69203 0.99965,0.14258 1.1303,2.2708 0.21539,3.50829 l -0.67181,0.90866 1.28944,2.50441 c 1.45984,2.83537 1.61712,4.27637 0.77597,7.10891 -0.56288,1.89539 -2.04765,4.27622 -2.86157,4.58858 -0.28451,0.10918 -1.07107,0.19849 -1.7479,0.19849 -0.94778,0 -1.38279,-0.19344 -1.89274,-0.84176 z m 3.46359,-9.47824 c -0.55095,-1.05897 -0.60791,-1.07146 -0.60791,-0.13333 0,0.55388 0.17239,0.85333 0.49127,0.85333 0.4071,0 0.4271,-0.12332 0.11664,-0.72 z m -1.24791,-3.76 c 0,-0.352 -0.13053,-0.64 -0.29005,-0.64 -0.15952,0 -0.21472,0.288 -0.12265,0.64 0.092,0.352 0.22256,0.64 0.29001,0.64 0.0675,0 0.12269,-0.288 0.12269,-0.64 z M 143.22308,210.47094 c -0.87643,-0.61388 -1.71292,-2.40869 -1.71292,-3.67533 0,-1.27327 0.60799,-2.45011 2.24,-4.33574 0.70904,-0.81924 1.50555,-1.90795 1.77,-2.41935 0.59773,-1.15587 1.81172,-1.8019 3.90884,-2.08009 1.46591,-0.19446 1.6555,-0.14643 2.00586,0.50823 0.37479,0.70029 0.29245,2.90792 -0.18068,4.84473 -0.17731,0.72582 -0.096,0.86944 0.54373,0.96 0.67334,0.0953 0.74727,0.26056 0.70482,1.57538 -0.11725,3.63109 -3.55463,6.66694 -4.77224,4.21477 l -0.35568,-0.71632 -0.74811,0.79632 c -0.85863,0.91398 -2.35999,1.05839 -3.40362,0.3274 z m 1.35972,-3.42158 c -0.35191,-0.50241 -0.51264,-0.57914 -0.51264,-0.2447 0,0.5135 0.66268,1.33919 0.8913,1.11056 0.0737,-0.0737 -0.0967,-0.46332 -0.37866,-0.86586 z m 3.96736,-2.96332 c 0,-0.60161 0.0801,-1.30268 0.1781,-1.55795 0.27132,-0.70705 -0.96627,-0.89686 -1.39296,-0.21363 -0.27531,0.44085 -0.25063,0.60855 0.10992,0.74691 0.2651,0.10172 0.46494,0.59535 0.46494,1.14845 0,0.53353 0.144,0.97005 0.32,0.97005 0.176,0 0.32,-0.49223 0.32,-1.09383 z m 87.62947,-2.27994 c -0.36791,-0.62357 -1.24445,-1.42737 -1.94786,-1.78623 -1.2576,-0.64158 -1.27621,-0.67665 -1.11546,-2.10279 0.0899,-0.79768 0.44802,-1.82988 0.79581,-2.29377 0.55335,-0.73809 0.85943,-0.84344 2.45041,-0.84344 1.77829,0 1.81378,-0.0175 1.62179,-0.8 -0.26636,-1.08564 -0.72737,-1.49512 -2.23416,-1.98438 -1.1911,-0.38676 -1.2867,-0.50719 -1.37636,-1.73385 -0.0917,-1.25464 -0.0191,-1.37372 1.50453,-2.46836 1.72821,-1.24159 2.06338,-1.97157 2.4581,-5.35354 0.32683,-2.80026 -0.50147,-3.22002 -5.23274,-2.65175 -1.5668,0.18818 -1.6406,0.23469 -1.04,0.65536 0.73081,0.51188 0.89055,2.28443 0.26247,2.91252 -0.29867,0.29866 -0.22533,0.384 0.33004,0.384 0.39272,0 0.80108,0.22681 0.90745,0.50402 0.31757,0.82755 -0.45326,2.81937 -1.4669,3.7905 -0.85261,0.81685 -1.11823,0.89361 -2.64715,0.76499 -0.93469,-0.0786 -2.13144,-0.35447 -2.65944,-0.613 -0.81946,-0.40123 -0.95487,-0.6416 -0.92495,-1.64191 0.0288,-0.96201 -0.0858,-1.18913 -0.64,-1.26824 -1.39558,-0.19922 -0.91516,-3.14884 0.72826,-4.47138 l 0.83669,-0.67331 -2.72,0.20224 c -1.496,0.11124 -3.55157,0.20311 -4.56792,0.20417 -1.65687,0.002 -1.87821,0.0816 -2.14081,0.77227 -0.19356,0.50909 -0.65136,0.8491 -1.34979,1.0025 -1.0567,0.23209 -1.05676,0.23222 -0.33919,0.70867 0.77972,0.51771 0.96382,1.80269 0.31771,2.21752 -0.25761,0.16539 -0.001,0.31451 0.72,0.41889 1.51985,0.21992 1.6518,1.31278 0.37185,3.07969 -1.19608,1.65115 -2.92454,2.50543 -4.49265,2.22048 -4.51388,-0.82026 -4.99577,-0.99609 -5.09841,-1.8603 -0.12424,-1.04608 0.70286,-2.69236 1.47593,-2.93772 0.50171,-0.15924 0.56413,-0.45631 0.44422,-2.11407 -0.111,-1.53458 -0.0232,-2.05728 0.42937,-2.55741 0.56059,-0.61944 0.53434,-0.62858 -1.80072,-0.62663 -1.47602,0.001 -2.71523,0.18223 -3.28617,0.48 -1.07986,0.56318 -2.68266,0.6164 -3.94259,0.13091 -1.30315,-0.50215 -6.20015,-0.0756 -5.97154,0.52018 0.11394,0.29692 0.85823,0.46942 2.29959,0.53297 2.00578,0.0884 2.13662,0.14103 2.22468,0.89427 0.0689,0.58968 -0.41319,1.39787 -1.832,3.07096 -2.6163,3.08518 -4.68112,4.66642 -5.93324,4.54366 -0.90555,-0.0888 -0.97448,-0.18928 -1.06322,-1.55042 l -0.0949,-1.4555 -2.37987,0.48474 c -2.79963,0.57023 -3.22557,0.36731 -2.8977,-1.38042 0.39542,-2.10777 2.69516,-4.03332 4.81709,-4.03332 0.65976,0 0.81028,-0.15492 0.81028,-0.83398 v -0.83397 l -2.9321,0.23207 c -1.61265,0.12764 -3.44116,0.44477 -4.06336,0.70474 -1.06841,0.44641 -2.30892,0.41324 -4.44454,-0.11885 -0.55556,-0.13842 -0.72,-0.0416 -0.72,0.42409 0,0.33192 -0.25083,0.95953 -0.55741,1.39469 -0.39575,0.56175 -0.52776,1.25716 -0.45519,2.3979 0.0879,1.3811 -0.0474,1.83041 -0.96329,3.2 l -1.06551,1.59331 -2.0793,0.0598 c -1.14362,0.0329 -2.44015,0.0689 -2.88119,0.08 -0.56806,0.0143 -0.92244,0.29256 -1.21531,0.95421 -0.22739,0.51369 -1.05388,1.4588 -1.83667,2.10023 -0.78277,0.64143 -1.8628,1.80513 -2.40006,2.586 -0.58215,0.84614 -1.22464,1.41977 -1.59019,1.41977 -0.33735,0 -0.77212,0.29663 -0.96614,0.65917 -0.24853,0.46438 -0.60649,0.62987 -1.21127,0.56 -0.84771,-0.0979 -0.86099,-0.13727 -1.05956,-3.13917 -0.11061,-1.672 -0.43461,-3.67011 -0.72,-4.44024 -1.03955,-2.80514 -0.40999,-6.59831 1.35589,-8.16936 0.37686,-0.33528 0.6852,-0.73128 0.6852,-0.88 0,-0.44576 -2.4967,-0.30544 -3.72936,0.2096 -1.44463,0.6036 -2.606,0.60805 -4.02436,0.0154 -0.92226,-0.38534 -1.93462,-0.4125 -5.93625,-0.15924 -2.86442,0.18129 -5.13094,0.18878 -5.57899,0.0184 -0.71587,-0.27217 -0.7479,-0.22932 -0.62371,0.83448 0.0848,0.72631 -0.1107,1.60517 -0.55491,2.49461 -0.63736,1.27619 -0.66249,1.57912 -0.35572,4.28716 0.42863,3.78377 0.18853,5.25638 -1.02326,6.27603 -1.58122,1.33052 -5.53385,0.90448 -6.13466,-0.66123 -0.10933,-0.28491 -0.19878,-1.28718 -0.19878,-2.22728 0,-1.365 0.16424,-1.90447 0.81544,-2.67838 l 0.81545,-0.96911 -0.66822,-0.66823 c -2.04204,-2.04203 -1.56727,-6.30925 0.93635,-8.4159 1.35632,-1.14127 2.6939,-1.12157 4.56855,0.0673 l 1.47288,0.93407 -0.29216,-1.01407 c -0.16069,-0.55774 -0.43252,-6.91807 -0.60408,-14.13407 -0.3325,-13.98488 -0.85523,-28.41269 -1.3043,-36 -0.15105,-2.552 -0.49259,-12.848 -0.75899,-22.88001 -0.26639,-10.032 -0.57131,-19.40768 -0.6776,-20.83484 l -0.19325,-2.59485 -2.06592,1.38535 c -1.13625,0.76194 -3.03302,1.69305 -4.21503,2.06912 -2.94766,0.93783 -7.70512,1.17968 -10.00988,0.50887 -3.54346,-1.03135 -7.62106,-5.45657 -9.2901,-10.08209 -0.65103,-1.80425 -0.76914,-2.7212 -0.76914,-5.97156 0,-5.30673 0.59016,-6.57483 4.95893,-10.65552 4.60233,-4.29884 6.98455,-5.19327 12.06599,-4.53032 1.84136,0.24024 4.09684,0.29785 6.01888,0.15375 l 3.07395,-0.23046 -1.71229,-1.80872 c -4.51675,-4.77113 -4.68206,-5.913 -1.47785,-10.20872 1.64069,-2.1996 2.59315,-2.27509 4.25209,-0.33699 1.51674,1.77197 1.94162,3.37062 1.44547,5.43878 -0.36115,1.50547 -0.3402,1.62779 0.41821,2.44154 1.10371,1.18423 1.51662,2.07839 1.51662,3.28426 v 1.02966 l 3.41401,-0.20888 c 2.56269,-0.1568 3.68439,-0.36842 4.49829,-0.84863 1.4634,-0.86343 3.78103,-0.87172 4.23944,-0.0152 0.36792,0.68747 0.14249,0.68899 6.88826,-0.0465 4.31016,-0.46993 12.36933,-0.60833 28.05363,-0.48179 4.3415,0.035 7.99948,-0.0423 8.12885,-0.17183 0.12937,-0.12953 -0.14676,-0.53598 -0.61363,-0.90322 -0.7046,-0.55424 -0.84885,-0.92478 -0.84885,-2.18048 0,-0.83203 0.1728,-1.68558 0.384,-1.89678 0.29866,-0.29866 0.18977,-0.384 -0.49004,-0.384 -1.57878,0 -1.52555,-1.93764 0.0978,-3.561 0.78715,-0.78715 1.16919,-0.919 2.66286,-0.919 1.64837,0 1.81424,0.0764 3.02917,1.3944 2.16233,2.34586 2.16775,4.45947 0.0174,6.79232 l -1.26791,1.37552 1.14239,0.21431 c 0.62831,0.11788 2.76282,0.12272 4.74335,0.0108 1.98053,-0.11195 6.08848,-0.26465 9.12877,-0.33934 4.9282,-0.12107 5.66162,-0.21101 6.76149,-0.82917 1.26547,-0.71123 1.25149,-0.71093 5.28123,-0.11603 1.48988,0.21994 6.43871,-0.34126 10.61806,-1.2041 1.58721,-0.32768 3.01141,-0.02 3.01141,0.65057 0,0.21987 8.57637,-0.50111 13.08758,-1.10023 1.44273,-0.1916 1.7946,-0.13778 2.13404,0.32644 0.23826,0.32584 0.71515,0.51214 1.15242,0.4502 0.63445,-0.0899 0.77274,-0.33883 0.92509,-1.66543 0.21133,-1.84037 0.85099,-2.44025 2.60203,-2.44025 0.67036,0 1.21884,-0.144 1.21884,-0.32 0,-0.176 -0.58052,-0.32 -1.29005,-0.32 -1.98607,0 -2.14324,-1.57252 -0.35699,-3.57168 0.75188,-0.84151 1.18409,-1.02954 2.63328,-1.14561 0.95357,-0.0764 2.11033,0.007 2.57058,0.18488 0.79181,0.30633 0.8492,0.48204 1.06705,3.26687 l 0.23024,2.94314 -1.22706,1.2567 c -0.81112,0.83072 -1.71239,1.37892 -2.65885,1.61727 -2.96692,0.74716 -0.57392,0.56197 2.81081,-0.21752 7.62541,-1.75611 12.95538,-0.53205 17.02956,3.91096 3.15861,3.44455 3.63224,4.46263 3.77929,8.12372 0.10631,2.64695 -9.6e-4,3.54754 -0.72346,6.06581 -1.08753,3.79135 -2.81058,7.07065 -4.35987,8.29772 -1.67217,1.32438 -3.21053,1.90849 -6.38258,2.42343 -5.52569,0.89703 -9.84834,0.39646 -12.91946,-1.49608 l -1.55751,-0.95981 0.1855,1.0501 c 0.10202,0.57756 0.26926,3.2101 0.37164,5.8501 0.10238,2.64 0.39888,8.472 0.65889,12.96 0.49402,8.52713 0.94382,21.45039 1.4145,40.64001 0.15324,6.248 0.28895,11.612 0.30156,11.92 0.014,0.34202 0.27595,0.56 0.67297,0.56 0.98095,0 1.10999,0.83611 0.43748,2.83462 -0.54939,1.63261 -0.60752,2.84654 -0.60752,12.68538 v 10.88 l -3.36,0.34954 c -1.848,0.19225 -3.76538,0.51625 -4.26084,0.72 -0.49545,0.20375 -1.39545,0.37046 -2,0.37046 -0.91424,0 -1.09916,0.11672 -1.09916,0.69378 0,0.38159 -0.16494,1.64092 -0.36653,2.79853 -0.44546,2.55805 -1.87401,4.30359 -3.37989,4.12989 -0.75714,-0.0873 -0.91878,-0.28838 -1.11135,-1.3822 -0.12395,-0.704 -0.23365,-2.127 -0.24379,-3.16222 -0.0172,-1.75414 0.0593,-1.95555 1.12434,-2.96 l 1.14278,-1.07778 h -4.00122 c -4.56851,0 -4.46069,-0.0737 -4.43281,3.02909 0.0215,2.39419 0.88682,4.30438 2.19803,4.85224 0.92372,0.38595 1.07044,0.60018 1.07044,1.56296 0,0.97251 0.10123,1.11571 0.78874,1.11571 0.96671,0 1.52551,0.93833 1.39043,2.33478 -0.0955,0.98705 -0.15279,1.02522 -1.53917,1.02522 -1.3843,0 -1.44382,-0.0394 -1.53865,-1.01821 l -0.0986,-1.0182 -1.10135,0.64981 c -0.60575,0.3574 -1.10847,0.74359 -1.11718,0.8582 -0.009,0.11462 -0.0574,1.3604 -0.10827,2.7684 -0.10862,3.00777 -0.71584,4.63631 -2.35647,6.32 -1.51379,1.5535 -2.44156,1.57195 -3.32996,0.0662 z m 2.0799,-3.62254 c -0.30948,-0.064 -0.89719,-0.33547 -1.30602,-0.60334 -1.20915,-0.79227 -1.25637,-0.14609 -0.0633,0.86642 1.01059,0.85765 1.13377,0.88962 1.516,0.39336 0.3524,-0.45752 0.32997,-0.55792 -0.14666,-0.65644 z m -72.4544,-6.58769 c -0.16223,-0.1672 -0.29497,-0.59015 -0.29497,-0.93987 0,-0.58125 -0.0771,-0.56201 -0.89751,0.224 -0.49363,0.47292 -1.23043,0.85987 -1.63732,0.85987 -0.61105,0 -0.70623,0.12531 -0.54687,0.72 0.10613,0.396 0.19493,1.26671 0.19733,1.93492 l 0.004,1.21492 1.73498,-1.85492 c 1.0737,-1.14793 1.62254,-1.97079 1.44,-2.15892 z m 75.94536,-2.096 c 0.19317,0 0.0578,-0.324 -0.30085,-0.72 -0.35865,-0.396 -0.81137,-1.008 -1.00605,-1.36 -0.19469,-0.352 -0.35835,-0.46502 -0.3637,-0.25114 -0.005,0.21388 -0.45708,0.89837 -1.00384,1.52109 l -0.99411,1.13222 0.74769,0.60544 c 0.73883,0.59827 0.75848,0.59637 1.65866,-0.16108 0.50103,-0.4216 1.06902,-0.76653 1.2622,-0.76653 z m -28.10248,-1.24416 c 0.0966,-0.15629 -0.25157,-0.34686 -0.77367,-0.42349 -1.17934,-0.17309 -2.04473,0.26606 -0.93606,0.47501 1.31613,0.24806 1.52853,0.24165 1.70973,-0.0515 z m -49.22174,-0.88508 c 1.09738,-0.83702 1.10102,-1.62284 0.006,-1.20248 -0.52125,0.20003 -1.70222,2.05172 -1.30854,2.05172 0.10426,0 0.6906,-0.38216 1.30298,-0.84924 z m 7.80389,-2.07897 c 0,-0.8055 0.26421,-1.49669 0.82844,-2.16724 l 0.82845,-0.98455 h -2.93167 -2.93167 l 0.66322,0.84315 c 0.47717,0.60662 0.66323,1.30834 0.66323,2.50134 v 1.65819 l 1.44,-0.3341 c 1.38665,-0.32172 1.44,-0.37791 1.44,-1.51679 z m 22.02588,-0.59895 c -1.27016,-0.1992 -1.52801,0.11677 -1.30229,1.59581 l 0.1692,1.10867 1.09949,-1.26867 1.09948,-1.26865 z m 35.65412,1.39523 c -0.22,-0.0888 -0.58,-0.0888 -0.8,0 -0.22,0.0888 -0.04,0.1614 0.4,0.1614 0.44,0 0.62,-0.0726 0.4,-0.1614 z m -90.64,-1.72696 c 0,-0.16561 -0.144,-0.30111 -0.32,-0.30111 -0.176,0 -0.32,0.22449 -0.32,0.49888 0,0.27439 0.144,0.40989 0.32,0.30112 0.176,-0.10878 0.32,-0.33328 0.32,-0.49889 z m 15.52,-5.26629 c 1.584,-0.11601 3.744,-0.37993 4.8,-0.58648 l 1.92,-0.37555 2.95974,-9.11639 c 1.62786,-5.01402 4.99055,-15.1644 7.47264,-22.5564 2.48209,-7.392 7.52578,-22.44 11.2082,-33.44 6.72756,-20.09637 9.71205,-28.60416 10.30499,-29.37618 0.18644,-0.24275 0.79781,-0.3761 1.46704,-0.32 0.97196,0.0815 1.21828,0.26741 1.61109,1.21617 0.25504,0.616 1.64186,3.424 3.08183,6.24 6.14339,12.014 14.79394,29.50459 16.9893,34.35069 1.30326,2.87688 3.03442,6.54888 3.84703,8.16 0.81261,1.61112 3.02019,6.24132 4.90574,10.28932 7.94896,17.06525 14.1132,29.99735 14.87019,31.1965 l 0.81023,1.2835 4.87599,-0.0379 c 2.68179,-0.0208 5.28503,-0.12883 5.78497,-0.24 l 0.90899,-0.20214 -1.47397,-1.03693 c -1.78671,-1.25692 -3.72694,-4.16422 -4.71301,-7.06213 -1.28485,-3.77598 -0.98837,-8.63799 2.33553,-38.30094 1.22275,-10.912 2.50274,-23.00801 2.84442,-26.88001 1.12655,-12.76611 1.89936,-20.76774 2.22525,-23.04 0.17669,-1.232 0.4614,-4.66058 0.63268,-7.61908 0.27786,-4.79954 0.43314,-5.75564 1.44127,-8.87408 0.62142,-1.92225 1.12986,-3.84415 1.12986,-4.27089 0,-0.87988 -0.3787,-0.96191 -6.23774,-1.35123 l -3.19774,-0.21248 1.93016,2.06336 c 2.68454,2.86977 3.37129,4.73093 3.58268,9.70934 0.10929,2.57392 -0.009,5.21846 -0.35889,8 -0.28718,2.28529 -1.1688,11.13906 -1.95914,19.67506 -1.91815,20.71672 -2.87524,30.22232 -4.02749,40.00001 -0.52889,4.488 -1.1359,10.608 -1.34891,13.6 l -0.38729,5.44 h -0.89047 c -0.81819,0 -1.08377,-0.3637 -3.27142,-4.48 -5.80698,-10.92646 -14.64244,-28.85538 -23.6952,-48.08231 -2.3416,-4.97327 -4.48248,-9.26734 -4.75752,-9.54238 -0.27504,-0.27504 -0.59214,-0.886 -0.70468,-1.35769 -0.11253,-0.4717 -0.30876,-1.00163 -0.43607,-1.17763 -0.46761,-0.64648 -10.18997,-21.21386 -11.38347,-24.08142 l -1.23257,-2.96143 -0.41352,1.36143 c -0.22744,0.74878 -0.98372,3.44942 -1.68063,6.00142 -0.69691,2.552 -1.64982,5.576 -2.11758,6.72 -0.46777,1.144 -2.18174,5.968 -3.80883,10.72 -1.62709,4.752 -4.41264,12.744 -6.19011,17.76 -1.77747,5.01601 -4.40446,12.50401 -5.83774,16.64001 -1.43329,4.136 -3.65348,10.544 -4.93377,14.24 -4.57617,13.21077 -7.04608,20.1662 -7.30095,20.56 -0.30557,0.47212 -2.0181,0.53792 -2.29603,0.0882 -0.10598,-0.17148 -0.84193,-5.03148 -1.63544,-10.8 -0.7935,-5.76851 -1.786,-12.64821 -2.20554,-15.28821 -0.41954,-2.64 -0.92435,-6.24 -1.1218,-8 -0.19744,-1.76 -1.06857,-7.808 -1.93584,-13.44 -0.86726,-5.63201 -2.2412,-15.42401 -3.0532,-21.76001 -1.32172,-10.31337 -1.4612,-12.006 -1.33159,-16.16 0.17156,-5.49859 0.6985,-7.23986 3.0079,-9.93957 l 1.48881,-1.74042 -1.08919,-0.10748 c -0.59906,-0.0591 -3.12628,0.0489 -5.61607,0.24 -2.48978,0.19111 -5.85949,0.34748 -7.48826,0.34748 h -2.96139 l 0.20136,3.06533 c 0.13625,2.0743 0.51396,4.04122 1.16826,6.08383 0.61707,1.92637 0.96691,3.68896 0.96691,4.8716 0,1.71986 4.20657,32.06167 5.25837,37.92841 0.25744,1.43596 0.63011,3.97883 0.82816,5.65083 0.19805,1.672 1.20623,8.44 2.24041,15.04 1.03417,6.6 2.25952,14.664 2.72298,17.92 0.46347,3.256 1.20072,7.144 1.63833,8.64 2.03793,6.96678 0.95868,13.0997 -3.11863,17.7219 -0.97453,1.10476 -1.19512,1.5095 -0.7537,1.38288 0.34324,-0.0985 1.92008,-0.27394 3.50408,-0.38996 z m 24.33277,-0.98127 c 1.45163,-0.38546 2.65203,-0.45582 5.02514,-0.2945 3.93852,0.26772 13.60008,-0.33643 15.92994,-0.99613 1.55373,-0.43994 1.98006,-0.44587 3.52,-0.049 1.47341,0.37975 2.89753,0.3917 8.95215,0.0751 3.96,-0.20704 7.60537,-0.54129 8.10083,-0.74276 1.21803,-0.49531 2.37264,-0.46148 2.68327,0.0786 0.21399,0.37209 1.25157,0.396 6.3359,0.14603 3.344,-0.16441 6.26761,-0.36304 6.4969,-0.44139 0.29038,-0.0992 -0.35861,-1.6246 -2.1384,-5.02603 -1.40543,-2.68595 -3.99162,-7.97955 -5.74711,-11.76355 -1.75549,-3.784 -4.1557,-8.896 -5.33381,-11.36 -1.1781,-2.464 -2.90403,-6.208 -3.83538,-8.32 -0.93135,-2.112 -3.62571,-7.872 -5.98747,-12.8 -2.36176,-4.928 -4.97979,-10.4 -5.81786,-12.16 -0.83806,-1.76 -4.01188,-8.15664 -7.05294,-14.21474 l -5.52919,-11.01474 -0.53647,1.41474 c -0.6513,1.71758 -3.2771,10.04174 -6.30088,19.97474 -1.23229,4.048 -2.82068,9.016 -3.52975,11.04 -0.70908,2.024 -2.33286,6.848 -3.6084,10.72 -1.27555,3.872 -2.83203,8.408 -3.45884,10.08 -1.34091,3.57679 -3.15624,9.11239 -6.4538,19.68 -4.05127,12.98299 -5.0066,16.09122 -5.0066,16.28929 0,0.10489 2.56174,0.19071 5.69277,0.19071 4.17562,0 6.20105,-0.13497 7.6,-0.50645 z m -32.96279,-0.31974 c 1.34392,-0.63773 4.03636,-3.4629 4.88439,-5.12516 0.35477,-0.69542 0.82227,-2.16526 1.03889,-3.26631 0.78977,-4.01432 -0.20826,-7.83519 -2.67186,-10.22899 -1.31504,-1.27778 -4.08338,-2.95335 -4.87946,-2.95335 -0.36084,0 -0.42729,8.1122 -0.16972,20.72 0.0307,1.50328 0.22982,1.59785 1.79776,0.85381 z m 115.67002,-1.41381 c 0,-0.176 -0.0635,-0.32 -0.14112,-0.32 -0.0776,0 -0.23011,0.144 -0.33888,0.32 -0.10878,0.176 -0.0453,0.32 0.14111,0.32 0.18639,0 0.33889,-0.144 0.33889,-0.32 z m -1.42375,-2.78197 c 0.4318,-0.4318 0.50428,-0.90338 0.35657,-2.32 -0.10197,-0.97792 -0.28248,-3.00203 -0.40114,-4.49803 -0.13382,-1.68704 -0.3981,-2.92957 -0.69592,-3.27184 -0.34446,-0.39586 -0.42195,-0.91592 -0.27419,-1.84 0.18319,-1.14561 0.13475,-1.28816 -0.43779,-1.28816 -0.35408,0 -0.64378,0.1909 -0.64378,0.42422 0,0.73405 -1.48336,1.87614 -2.28869,1.76214 -0.66483,-0.0941 -0.76247,-0.30034 -0.84822,-1.79155 -0.0912,-1.58622 -0.0396,-1.71776 0.87798,-2.24 1.13872,-0.64806 1.18398,-0.91447 0.33893,-1.99481 -0.72779,-0.93042 -0.88095,-3.77544 -0.24,-4.45793 0.22,-0.23426 -0.65978,0.33597 -1.95507,1.26718 -3.98076,2.86185 -5.03429,4.87198 -4.76021,9.08245 0.38956,5.98458 2.91259,9.40927 8.17054,11.09044 2.27516,0.72746 2.15274,0.72414 2.80099,0.0759 z m 1.25246,-17.94401 c 0.10575,-0.27557 0.0435,-0.64976 -0.13822,-0.83153 -0.18177,-0.18177 -0.33049,-0.68054 -0.33049,-1.10836 0,-0.71397 -0.0944,-0.76256 -1.14856,-0.59149 -1.82003,0.29535 -2.17131,0.75023 -1.4076,1.82275 0.34988,0.49137 0.63616,1.02226 0.63616,1.17975 0,0.49021 2.1852,0.0592 2.38871,-0.47112 z M 148.33566,141.25987 c -1.11805,-7.7 -3.10841,-20.84 -4.42303,-29.2 -2.35276,-14.96181 -2.38784,-15.13231 -2.23844,-10.88001 0.43722,12.44534 0.88708,22.349 1.4501,31.92397 0.34423,5.85417 0.62587,12.42454 0.62587,14.60081 0,4.41623 3.2e-4,4.41703 2.28564,5.1048 0.77875,0.23437 2.04467,0.88159 2.81315,1.43828 0.76848,0.55668 1.42475,1.01215 1.45838,1.01215 0.0336,0 -0.85362,-6.3 -1.97167,-14 z m 108.52142,6.32435 c 1.71668,-0.57128 2.13153,-0.84616 2.30198,-1.52529 0.26855,-1.06997 -0.0961,-25.38078 -0.51481,-34.31906 -0.17724,-3.78401 -0.54186,-12.97927 -0.81026,-20.43393 -0.2684,-7.45466 -0.5839,-13.7091 -0.70112,-13.89876 -0.40487,-0.65511 -0.6976,0.87621 -0.72117,3.77268 -0.0129,1.584 -0.23248,5.05287 -0.48797,7.7086 -0.2555,2.65572 -0.69371,7.98372 -0.9738,11.84 -0.54219,7.46455 -3.06593,31.43035 -3.87226,36.77141 -0.52256,3.46139 -1.3903,11.83485 -1.40095,13.51867 l -0.007,1.03867 2.54644,-1.88807 c 1.59408,-1.18194 3.3296,-2.14869 4.64049,-2.58492 z m -75.2721,-44.16436 c 6.00751,-16.66451 14.85079,-43.42104 14.47519,-43.79665 -0.0814,-0.0814 -2.48843,0.0133 -5.34899,0.21054 -2.86057,0.19718 -7.00102,0.27495 -9.20102,0.17282 l -4,-0.18569 1.52,1.2023 c 0.836,0.66126 1.52,1.33904 1.52,1.50616 0,0.16712 0.18,0.24335 0.4,0.16939 0.37335,-0.1255 1.17835,1.23506 1.37332,2.32114 0.0474,0.264 0.31328,1.488 0.59087,2.72 0.9494,4.21374 0.57282,8.78685 -0.98818,11.99999 -1.09485,2.25365 -3.92269,5.08138 -6.17601,6.1758 -4.03543,1.95996 -9.60685,2.67369 -12.70882,1.62807 -0.84215,-0.28388 -2.44815,-1.15492 -3.56888,-1.93564 -1.12073,-0.78072 -2.09943,-1.35776 -2.17489,-1.28231 -0.13831,0.13831 0.97527,8.68056 2.13454,16.37408 0.34475,2.288 0.8548,6.104 1.13344,8.48001 0.27863,2.376 1.137,8.496 1.90749,13.6 0.77049,5.104 1.84531,12.664 2.38849,16.8 0.54319,4.136 1.07781,7.808 1.18805,8.16 0.1323,0.4224 2.07192,-4.96302 5.70494,-15.84 3.02747,-9.064 7.45118,-21.88 9.83046,-28.48001 z m 61.83083,34.08001 c 0.4412,-4.576 1.38271,-14.584 2.09225,-22.24 0.70954,-7.65601 1.63955,-17.23201 2.06668,-21.28001 1.03207,-9.78094 1.21248,-12 0.9756,-12 -0.10922,0 -0.86331,0.50757 -1.67576,1.12792 -2.22055,1.69551 -5.32451,2.55365 -9.20442,2.54471 -5.51073,-0.0127 -8.47308,-1.49074 -11.19555,-5.58592 -2.41745,-3.63637 -3.34641,-6.12206 -3.35106,-8.96671 -0.007,-4.51969 1.46524,-8.71824 3.9368,-11.22395 l 1.39674,-1.41604 -4.03346,0.24016 c -2.21841,0.13209 -8.30719,0.34981 -13.53062,0.48381 -5.22343,0.13401 -9.58608,0.33259 -9.69478,0.44128 -0.36639,0.36639 2.81301,7.74163 6.80897,15.79474 2.18328,4.4 5.60425,11.48069 7.60217,15.73486 1.99791,4.25417 5.09746,10.66185 6.88789,14.2393 1.79043,3.57746 3.81708,7.80077 4.50366,9.38515 1.97006,4.54617 15.46126,31.80841 15.54097,31.40433 0.0395,-0.2 0.43272,-4.10763 0.87392,-8.68363 z m -9.40243,-42.60316 c -0.72578,-0.92268 -0.83199,-1.87128 -0.35114,-3.13601 0.27103,-0.71288 0.50102,-0.82084 1.74874,-0.82084 1.63119,0 2.09918,0.51449 2.09918,2.30776 0,2.36634 -2.13908,3.37513 -3.49678,1.64909 z M 129.19016,84.63414 c 3.62612,-1.11617 6.58647,-3.15359 7.39549,-5.08986 0.82754,-1.98058 0.29282,-10.07274 -0.8082,-12.23091 -2.60972,-5.11548 -10.17218,-6.73152 -15.22678,-3.25385 -7.33442,5.0462 -7.12716,14.07691 0.44259,19.28504 3.08795,2.12457 4.67376,2.37406 8.1969,1.28958 z m -3.9288,-9.23242 c -0.8966,-0.628 -0.96673,-2.37141 -0.12601,-3.13226 0.87563,-0.79243 2.78596,-0.69029 3.39666,0.18161 1.52474,2.17687 -1.05397,4.50327 -3.27065,2.95065 z m 45.17514,7.98725 c 3.75817,-0.91568 6.79177,-3.29251 8.44644,-6.61778 1.13312,-2.27714 1.22687,-4.19316 0.37407,-7.64454 -0.66968,-2.71025 -0.88213,-3.13501 -2.33785,-4.67422 -2.10359,-2.22424 -5.51845,-3.95699 -7.74796,-3.93143 -3.42116,0.0392 -5.79138,0.25766 -6.41453,0.59116 -0.35907,0.19216 -1.59895,1.35231 -2.75529,2.5781 -2.90739,3.08198 -3.56896,4.82927 -3.59304,9.4896 -0.0219,4.23778 0.49195,5.48831 3.10636,7.55988 4.48994,3.55769 5.84465,3.88629 10.9218,2.64923 z m -4.28634,-9.40911 c -0.69932,-0.69931 -0.81278,-1.7439 -0.32792,-3.01916 0.2686,-0.70647 0.50489,-0.82084 1.696,-0.82084 1.73331,0 2.15192,0.41354 2.15192,2.12586 0,1.04041 -0.16627,1.47431 -0.71121,1.856 -0.97006,0.67946 -2.04159,0.62534 -2.80879,-0.14186 z m 76.21422,7.0764 c 3.34566,-1.15108 5.27777,-2.76915 6.62178,-5.54551 2.27856,-4.70688 0.92989,-11.48098 -2.96696,-14.90246 -2.13702,-1.87632 -4.91427,-2.88607 -5.46904,-1.98842 -0.30639,0.49573 -1.63382,0.37761 -2.10248,-0.18709 -0.52256,-0.62964 -2.63457,-0.38701 -4.77752,0.54884 -3.05693,1.335 -5.86909,5.30355 -6.74591,9.51994 -1.16712,5.61234 2.68641,11.74629 8.26094,13.14957 1.66083,0.41809 5.05161,0.13712 7.17919,-0.59487 z m -5.51662,-9.50338 c -0.23142,-0.27885 -0.42906,-1.17885 -0.43918,-2 l -0.0184,-1.49301 1.48233,0.0486 c 2.80366,0.0919 3.65371,1.37743 2.05295,3.10469 -0.89753,0.96844 -2.41672,1.13614 -3.07768,0.33974 z m 37.87914,6.26317 c 2.3917,-0.89485 4.22971,-2.29185 5.35974,-4.07372 2.39142,-3.77087 3.01404,-7.92153 1.61471,-10.76431 -1.668,-3.3886 -6.22986,-6.69707 -9.82058,-7.12233 -2.97475,-0.35232 -7.53952,1.43803 -9.49689,3.72478 -1.44756,1.69114 -1.75778,3.0255 -1.99039,8.56121 -0.17013,4.04914 -0.12338,4.71445 0.41604,5.92 0.33424,0.747 0.88062,1.59881 1.21417,1.89291 0.8639,0.76172 3.66786,2.12376 5.12625,2.49011 1.78095,0.44738 5.53306,0.13607 7.57695,-0.62865 z m -5.96341,-7.88952 c -0.39418,-0.39418 -0.218,-2.1976 0.28481,-2.91546 0.55985,-0.7993 2.60192,-1.00314 3.27786,-0.3272 0.63825,0.63825 0.48005,2.74207 -0.23497,3.12474 -0.68873,0.3686 -2.99529,0.45033 -3.3277,0.11792 z m -128.55792,6.21333 c -0.0135,-0.748 -0.21443,-1.936 -0.44645,-2.64 -0.42122,-1.27807 -0.42191,-1.27603 -0.45541,1.36 -0.0273,2.14825 0.0559,2.64 0.44645,2.64 0.35523,0 0.4736,-0.35351 0.45541,-1.36 z m 34.10459,-17.51999 c 0.11751,-0.19014 -0.23196,-0.31088 -0.86112,-0.29751 -0.88231,0.0188 -0.95216,0.0684 -0.41888,0.29751 0.86813,0.37304 1.04944,0.37304 1.28,0 z m -37.28,-5.76 c 0,-0.176 -0.1525,-0.32 -0.33889,-0.32 -0.18639,0 -0.24989,0.144 -0.14111,0.32 0.10877,0.176 0.26127,0.32 0.33888,0.32 0.0776,0 0.14112,-0.144 0.14112,-0.32 z m 63.04,-2.98014 c 0,-0.0551 -0.45879,-0.52307 -1.01952,-1.04 l -1.01953,-0.93986 0.77953,1.02229 c 0.66217,0.8684 1.25952,1.32254 1.25952,0.95757 z m -63.1041,-2.1236 c -0.30932,-0.49529 -0.48336,-0.54585 -0.84519,-0.24556 -0.38106,0.31625 -0.33083,0.41314 0.30681,0.59183 0.41936,0.11752 0.7997,0.22803 0.84519,0.24557 0.0455,0.0175 -0.0926,-0.24878 -0.30681,-0.59184 z m 127.1041,-0.97626 c 0,-0.176 -0.1525,-0.32 -0.33889,-0.32 -0.18639,0 -0.24989,0.144 -0.14111,0.32 0.10877,0.176 0.26127,0.32 0.33888,0.32 0.0776,0 0.14112,-0.144 0.14112,-0.32 z m 30.96814,155.21216 c -1.67735,-1.31941 -1.95334,-5.29696 -0.55739,-8.03325 1.48133,-2.90363 3.27242,-3.60168 5.45957,-2.12776 0.90078,0.60704 1.12269,0.99491 1.3072,2.28485 0.12224,0.85454 0.53168,2.27297 0.90986,3.15209 0.756,1.75736 0.66301,3.46108 -0.24406,4.47191 -0.56241,0.62674 -2.32409,0.75123 -2.87236,0.20296 -0.26271,-0.26271 -0.55204,-0.22044 -1.0952,0.16 -0.98313,0.68862 -1.93756,0.65224 -2.90762,-0.1108 z m 4.66758,-3.69216 c -0.10131,-0.264 -0.24079,-0.48 -0.30996,-0.48 -0.0692,0 -0.12576,0.216 -0.12576,0.48 0,0.264 0.13948,0.48 0.30995,0.48 0.17048,0 0.22707,-0.216 0.12577,-0.48 z m -1.24833,-4.2088 c -0.8003,-0.58519 -0.96912,-0.29584 -0.25406,0.43546 0.32267,0.33 0.64248,0.46256 0.7107,0.29457 0.0682,-0.16798 -0.13727,-0.4965 -0.45664,-0.73003 z m -33.7007,-0.5112 c -0.22071,-0.22 -1.14951,-0.4 -2.064,-0.4 h -1.66269 l 0.004,-1.76225 c 0.004,-1.4151 0.17374,-1.98425 0.86395,-2.88917 0.78992,-1.03564 0.83193,-1.23573 0.51857,-2.47025 -0.4663,-1.83707 -0.10814,-3.38789 1.04985,-4.54588 0.95655,-0.95655 2.29451,-1.2814 2.68375,-0.65159 0.13256,0.21449 0.39708,0.21449 0.79785,0 1.15959,-0.62059 1.87317,-0.34592 3.02696,1.16515 0.95445,1.25 1.13466,1.74332 1.13466,3.10607 0,1.39447 -0.2514,2.04529 -1.80551,4.67398 -0.99304,1.67967 -2.02335,3.30594 -2.2896,3.61394 -0.56478,0.65335 -1.68369,0.73263 -2.25819,0.16 z m 1.49444,-4.04367 0.69898,-1.24368 -0.96006,-0.1409 c -0.73105,-0.1073 -0.96005,-0.0167 -0.96005,0.37967 0,0.28632 -0.1667,0.68727 -0.37044,0.89101 -0.28059,0.28059 -0.27108,0.49016 0.0392,0.864 0.59559,0.71764 0.77663,0.63016 1.55239,-0.7501 z m -0.90113,-4.49745 c 0,-0.16561 -0.144,-0.39011 -0.32,-0.49888 -0.176,-0.10878 -0.32,0.0267 -0.32,0.30111 0,0.27439 0.144,0.49889 0.32,0.49889 0.176,0 0.32,-0.13551 0.32,-0.30112 z m 2.87358,-0.82662 c -0.22263,-0.26825 -0.48809,-0.40442 -0.58992,-0.3026 -0.10182,0.10182 0.0267,0.3191 0.2856,0.48283 0.67743,0.42842 0.76595,0.376 0.30432,-0.18023 z m -120.47358,9.14245 c -1.089,-0.45045 -2.14114,-1.81258 -2.02636,-2.6234 0.0894,-0.63183 0.33536,-0.77676 1.54636,-0.91131 1.43724,-0.1597 1.44033,-0.16276 1.61468,-1.6 0.0961,-0.792 0.35726,-1.77171 0.58042,-2.17713 0.63346,-1.15083 2.26721,-1.98121 3.8849,-1.97456 2.37307,0.01 3.52,1.35534 3.52,4.12973 0,1.42219 -0.1466,1.78271 -1.2,2.95105 -0.66,0.73202 -1.776,1.59327 -2.48,1.91389 -1.33722,0.60902 -4.29008,0.76737 -5.44,0.29173 z m 146.50091,-5.13695 c -1.10692,-0.44599 -1.31418,-1.20687 -1.34192,-4.92636 l -0.026,-3.48859 1.39141,-1.39141 c 1.37336,-1.37336 1.42008,-1.3914 3.60231,-1.3914 2.90238,0 3.6333,0.48281 3.6333,2.4 0,1.64327 -0.77917,2.4 -2.4712,2.4 -0.82458,0 -1.04879,0.13269 -1.04879,0.62068 0,0.48624 0.25991,0.64219 1.2,0.72 1.15594,0.0957 1.19877,0.14209 1.16658,1.26449 -0.0824,2.87445 -3.34877,4.90337 -6.10567,3.79259 z m 2.40613,-2.51827 c 0.32706,-0.20731 0.2772,-0.30989 -0.21288,-0.43805 -0.35197,-0.092 -0.70453,-0.50802 -0.78348,-0.92439 -0.0974,-0.51358 -0.15754,-0.37113 -0.18711,0.44295 -0.0441,1.21404 0.29868,1.48035 1.18347,0.91949 z m 1.73296,-6.33142 c -0.22,-0.0888 -0.58,-0.0888 -0.8,0 -0.22,0.0888 -0.04,0.1614 0.4,0.1614 0.44,0 0.62,-0.0726 0.4,-0.1614 z m 23.93125,1.83296 c -0.59794,-1.11726 -0.39881,-2.24398 0.46624,-2.63812 0.63767,-0.29054 0.72265,-0.45355 0.42404,-0.81336 -0.31872,-0.38404 -0.41449,-0.37668 -0.6534,0.0502 -0.42716,0.7633 -1.7804,0.59705 -2.71043,-0.33298 l -0.8332,-0.8332 -8.2201,0.23237 c -8.90334,0.25169 -9.35764,0.18856 -9.96964,-1.38542 -0.18403,-0.4733 -0.82483,-9.06854 -1.42401,-19.10054 -0.59918,-10.032 -1.30795,-21.912 -1.57504,-26.4 -0.86186,-14.48215 -1.06973,-20.44441 -2.09079,-59.97037 -0.33366,-12.9164 -0.32442,-13.43236 0.25091,-14.0077 0.80999,-0.80998 4.17695,-1.41957 11.12416,-2.01402 3.168,-0.27108 7.2,-0.63466 8.96,-0.80797 7.71603,-0.75979 26.65213,-2.3346 31.04,-2.58142 2.64,-0.1485 7.536,-0.42352 10.88,-0.61117 3.344,-0.18764 7.304,-0.47899 8.8,-0.64745 9.48071,-1.06756 47.17712,-2.85156 48.23955,-2.28296 0.50736,0.27154 0.86948,0.0921 2.10656,-1.04363 l 1.49389,-1.37153 0.003,-3.81089 c 0.003,-4.63632 0.34605,-5.99402 1.91571,-7.56368 1.07184,-1.07325 1.38272,-1.20721 2.80029,-1.20721 2.69731,0 4.24211,1.8327 4.23962,5.02972 0,1.52912 -0.79747,3.34987 -1.81251,4.14444 -0.4176,0.3269 -0.39799,0.45416 0.15529,1.00742 1.3833,1.38331 1.15552,4.00959 -0.55219,6.36705 -2.09053,2.8859 -4.64906,3.66344 -7.25747,2.20557 l -1.5105,-0.84424 0.22183,5.20502 c 0.21388,5.01825 0.39584,8.58581 1.12233,22.00501 0.18579,3.432 0.62647,8.976 0.97923,12.32 1.28288,12.15989 2.07831,25.35117 2.89245,47.96813 0.18944,5.26246 0.4225,9.69445 0.51795,9.84886 0.27847,0.45058 0.75476,23.43841 0.49111,23.70343 -0.2968,0.29836 -6.14922,1.04895 -11.88634,1.52446 -2.376,0.19693 -5.328,0.55535 -6.56,0.79649 -1.232,0.24114 -4.184,0.52043 -6.56,0.62065 -2.376,0.10021 -6.984,0.3271 -10.24,0.50419 -3.256,0.17709 -15.496,0.46118 -27.2,0.63131 -11.704,0.17013 -21.856,0.38122 -22.56,0.4691 -0.704,0.0879 -3.008,0.3181 -5.12,0.51161 -3.7888,0.34715 -3.856,0.3673 -5.04,1.51175 -0.66,0.63795 -1.2,1.45862 -1.2,1.82371 0,0.36509 -0.4468,1.05586 -0.9929,1.53506 -1.18755,1.04205 -2.66975,1.16055 -3.15584,0.25229 z m -5.78076,-8.56149 c 0.0828,-0.0736 0.10981,-0.60621 0.0601,-1.18352 -0.0754,-0.87501 0.0957,-1.1916 1.02815,-1.90284 0.61522,-0.46925 1.40079,-0.85318 1.7457,-0.85318 0.34491,0 0.71,-0.216 0.81131,-0.48 0.11685,-0.30452 0.60827,-0.48 1.34419,-0.48 0.89088,0 1.19883,0.14848 1.32736,0.64 0.17,0.65005 0.19064,0.65459 3.45272,0.75902 l 1.28,0.041 v 1.56066 1.56068 l 2.36829,-0.20068 c 1.30255,-0.11036 4.18255,-0.21737 6.4,-0.23778 2.21744,-0.0204 3.74371,-0.10666 3.39171,-0.19165 -0.352,-0.085 -2.224,-0.66165 -4.16,-1.28146 -5.90258,-1.88974 -11.40444,-4.72643 -15.72463,-8.10745 l -1.96464,-1.53754 -5.07536,5.7902 c -2.79145,3.18461 -5.19437,5.98942 -5.33982,6.2329 -0.22259,0.37261 0.46136,0.40809 4.32,0.22412 2.52145,-0.12022 4.65218,-0.27883 4.73495,-0.35246 z m 48.0095,-0.2495 c 0,-0.27551 -0.18886,-0.39748 -0.45648,-0.29479 -0.25107,0.0964 -3.67107,0.2852 -7.6,0.41967 l -7.14352,0.24451 7.6,0.0503 c 6.49287,0.043 7.6,-0.0182 7.6,-0.41967 z m -58.69157,-3.61004 c 1.02628,-1.364 3.09073,-3.776 4.58766,-5.36 1.49694,-1.584 3.14669,-3.34361 3.66611,-3.91023 l 0.94441,-1.03023 -2.88064,-3.12977 c -3.9041,-4.24176 -5.01792,-5.76854 -6.82115,-9.35016 -0.84723,-1.68279 -1.92485,-3.70761 -2.39472,-4.49961 l -0.85429,-1.44 0.17812,2.08 c 0.098,1.144 0.39993,7.408 0.67101,13.92 0.46553,11.18298 0.71377,15.2 0.93932,15.2 0.054,0 0.93789,-1.116 1.96417,-2.48 z m 79.17157,1.51461 c 10.97818,-0.4792 30.82669,-1.91808 33.52,-2.42996 0.68179,-0.12959 0.71971,-0.28515 0.71431,-2.93075 -0.003,-1.53665 -0.14752,-4.0899 -0.32087,-5.6739 -0.45568,-4.16355 -1.26096,-18.22376 -1.732,-30.24 -0.22422,-5.72 -0.42877,-10.08752 -0.45456,-9.70559 -0.0972,1.43975 -2.34809,8.67517 -3.37757,10.85712 -0.58944,1.24934 -2.21398,3.98534 -3.61007,6.08 -1.3961,2.09466 -3.6794,5.68047 -5.07402,7.96847 -2.84445,4.66664 -5.36736,7.50128 -11.50522,12.92685 -7.5327,6.65856 -12.25324,9.8984 -17.99744,12.35219 -1.5414,0.65845 -2.84483,1.23431 -2.89651,1.27969 -0.0517,0.0454 1.17232,0.0257 2.72,-0.0437 1.54768,-0.0694 6.05395,-0.2676 10.01395,-0.44045 z m -24.44438,-0.31486 c 1.95558,-0.17313 4.7951,-0.67397 6.31005,-1.11298 6.60745,-1.91477 15.36339,-6.83996 21.20883,-11.92994 1.54746,-1.34744 1.52352,-1.33928 -2.07504,0.70741 -4.01978,2.28625 -5.86019,2.98165 -11.07946,4.18639 -3.52928,0.81464 -10.8207,1.55888 -14.38166,1.46795 -3.16195,-0.0807 -13.98867,-2.46961 -18.4977,-4.08143 -3.58551,-1.2817 -9.03594,-4.18273 -11.86832,-6.317 -3.73369,-2.81342 -10.16586,-9.15794 -12.67388,-12.50118 -5.00707,-6.67452 -7.83641,-12.47043 -9.28648,-19.02336 -2.16101,-9.76572 -2.17718,-19.70844 -0.0466,-28.62186 0.69032,-2.88791 0.51446,-2.84207 -1.02133,0.26624 -2.43041,4.91899 -4.9649,11.79159 -5.36946,14.56 -0.84236,5.76437 -0.37246,18.61072 0.86026,23.51821 0.53977,2.14883 3.75888,9.06865 5.79814,12.46373 3.94773,6.57241 10.95283,14.02352 15.28698,16.2603 0.528,0.27249 1.51773,0.93981 2.19939,1.48293 2.02427,1.61286 9.2537,5.11282 13.26471,6.42179 7.01824,2.29036 13.37648,2.96059 21.37152,2.2528 z m 11.48438,-11.78834 c 1.232,-0.35289 3.176,-0.80835 4.32,-1.01213 4.37168,-0.77872 10.84432,-4.46961 14.4329,-8.23006 7.79565,-8.16902 11.7496,-14.99412 13.6225,-23.51448 0.89974,-4.0932 0.81104,-14.26896 -0.16359,-18.76884 -1.57744,-7.28292 -4.46816,-14.17046 -8.61478,-20.52591 -2.09533,-3.21146 -5.96717,-7.68 -6.65447,-7.68 -0.31228,0 -1.73072,1.6478 -6.19785,7.2 -1.13283,1.408 -4.58983,5.43592 -7.68221,8.95094 -7.49338,8.51749 -9.23309,10.61852 -9.94019,12.00452 -0.32727,0.64154 -1.39479,1.84965 -2.37219,2.6847 -1.05482,0.90116 -2.02493,2.07837 -2.38672,2.89627 -0.33527,0.7579 -1.01111,1.64925 -1.50192,1.98079 -0.49082,0.33153 -1.33543,1.09164 -1.87693,1.68913 -0.54151,0.59748 -2.33843,2.53864 -3.99319,4.31367 -4.09337,4.39094 -4.16838,4.58801 -4.21622,11.07999 -0.0214,2.904 -0.1385,5.64 -0.26016,6.08 -0.24566,0.88841 -1.39165,1.2403 -2.10669,0.64687 -0.44864,-0.37234 -0.98585,-3.01184 -1.38288,-6.7945 l -0.22541,-2.14763 -1.44,1.70348 c -3.45697,4.0895 -7.72637,8.9246 -10.70548,12.12394 -1.76798,1.8987 -3.25963,3.58205 -3.31478,3.74079 -0.12268,0.35316 7.86345,5.736 10.41534,7.02019 3.3496,1.68561 4.33817,1.99574 11.92492,3.74104 l 7.52,1.72994 5.28,-0.13554 c 4.0097,-0.10293 5.81892,-0.28991 7.52,-0.77717 z m 25.44925,-8.93029 c 1.38794,-1.44698 1.53034,-1.64897 0.43191,-0.61255 -1.47863,1.39514 -1.76669,1.53708 -2.94637,1.4519 -0.71914,-0.0519 -1.40967,0.008 -1.5345,0.13256 -0.12483,0.12483 0.16157,0.22697 0.63642,0.22697 0.47485,0 0.94627,0.216 1.04758,0.48 0.10131,0.264 0.20893,0.48 0.2392,0.48 0.0301,0 0.98685,-0.97149 2.12576,-2.15888 z m 3.83075,-4.99562 c 0,-0.40657 -0.1478,-0.22503 -0.6143,0.7545 -0.35926,0.75432 -0.35258,0.76453 0.11664,0.17883 0.27373,-0.34163 0.49766,-0.76163 0.49766,-0.93333 z m -72.28615,-3.8055 c 4.5584,-5.57004 9.42363,-10.94699 11.98356,-13.244 3.19674,-2.86841 3.66259,-3.80072 3.66259,-7.32992 0,-2.08267 -0.0981,-2.71874 -0.4,-2.59354 -1.41312,0.58599 -2.82342,0.90694 -3.25596,0.74095 -1.17126,-0.44944 -0.28176,-2.73216 1.73843,-4.46137 1.49485,-1.27953 1.72848,-1.93576 2.39789,-6.73523 0.26768,-1.91917 0.55955,-3.60729 0.6486,-3.75137 0.089,-0.14409 -0.23654,-0.30777 -0.72352,-0.36375 -0.6271,-0.0721 -0.91452,-0.30611 -0.98512,-0.8021 -0.0621,-0.43629 -0.36371,-0.7379 -0.8,-0.8 -0.62345,-0.0887 -0.70032,-0.29284 -0.70032,-1.85968 v -1.76 h 1.12 c 0.98394,0 1.13229,0.10691 1.22125,0.88 0.1712,1.48794 0.65984,0.97496 0.76202,-0.8 l 0.0967,-1.68 h 1.12 c 1.10589,0 1.12122,0.0187 1.21632,1.49042 0.076,1.1758 -0.033,1.58111 -0.51648,1.92 -0.83446,0.58497 -0.6016,2.50958 0.30362,2.50958 0.33597,0 1.25056,0.58969 2.03248,1.31041 0.78189,0.72073 1.55731,1.26073 1.72314,1.2 0.16585,-0.0607 0.92691,-1.04641 1.69123,-2.19041 1.30883,-1.95896 1.46134,-2.08 2.62125,-2.08 h 1.23155 l -0.24403,-1.28 c -0.54173,-2.84154 -0.31802,-4.42065 0.95638,-6.75125 2.00986,-3.67556 2.59008,-3.98509 4.73642,-2.52662 0.64921,0.44116 1.72665,0.91482 2.39427,1.05257 1.01107,0.20861 1.23097,0.39761 1.31641,1.13129 0.0585,0.50238 -0.22336,1.4594 -0.65593,2.22742 -0.70861,1.25802 -0.73642,1.49146 -0.42256,3.54903 l 0.33593,2.20243 1.58436,-2.04243 c 3.93673,-5.07492 12.17414,-14.53313 16.6087,-19.07015 2.52979,-2.58824 2.55952,-2.63749 1.97926,-3.27868 -0.8407,-0.92896 -6.5016,-4.35246 -9.56899,-5.78698 -3.24137,-1.51588 -8.1976,-3.00022 -13.00333,-3.89436 -2.89984,-0.53954 -4.76544,-0.67403 -8.8,-0.6344 -5.7023,0.056 -7.90419,0.33514 -13.28,1.68345 -7.96825,1.99852 -11.42233,3.87774 -17.55586,9.55142 -4.7369,4.38175 -9.01152,10.33136 -10.65165,14.82543 -2.62908,7.20385 -3.36736,16.28608 -1.91854,23.60184 1.85813,9.38256 4.43846,15.88507 8.62216,21.72805 2.01526,2.81454 6.00271,7.39195 6.43923,7.39195 0.13982,0 1.46216,-1.476 2.93851,-3.28 z m 80.04001,-10.87964 c 4.4839,-8.8032 6.61846,-22.34322 4.95782,-31.44823 -0.65702,-3.60216 -2.44928,-9.80545 -3.7248,-12.89198 -1.90979,-4.62133 -5.73961,-10.26946 -11.28204,-16.63843 -4.8928,-5.62247 -11.94983,-9.57173 -21.54484,-12.05694 -6.26454,-1.62259 -8.46515,-1.92204 -13.92,-1.89419 -7.67273,0.0392 -14.40268,1.72266 -22.24,5.56325 -4.10366,2.01097 -8.94047,4.77235 -8.72921,4.98361 0.0705,0.0705 1.48743,-0.35743 3.14871,-0.95098 9.51158,-3.39836 20.23324,-4.21839 29.67046,-2.26931 12.27872,2.53595 19.08716,6.26157 27.59004,15.09747 4.43319,4.60682 7.34903,8.61066 9.87975,13.56623 5.00957,9.8096 7.20102,22.85851 5.62329,33.48395 -0.43468,2.92733 -1.56576,7.94222 -2.22278,9.85519 -0.51437,1.49759 1.02346,-0.92434 2.7936,-4.39964 z m -58.01894,-13.43669 0.30924,-0.87633 -0.92992,0.68751 c -0.92284,0.6823 -1.92528,2.3652 -1.90224,3.19351 0.0166,0.60105 2.1449,-1.93354 2.52292,-3.00469 z m -3.41098,-3.10617 c -0.63789,-1.53993 -0.63405,-1.53975 -1.03488,-0.0511 -0.25587,0.95029 -0.25667,1.49098 -0.003,1.96527 0.34934,0.65278 0.35152,0.65264 0.9295,-0.0612 0.52916,-0.65347 0.53853,-0.81406 0.1082,-1.85297 z m 6.78256,-0.76562 c 0.44742,-0.76346 0.8135,-1.47202 0.8135,-1.57457 0,-0.10255 -0.42809,-0.28049 -0.95132,-0.39541 -0.52327,-0.11492 -1.38221,-0.61142 -1.90877,-1.10332 -0.52659,-0.49191 -1.0329,-0.81892 -1.12515,-0.72668 -0.0922,0.0922 -0.65834,0.25329 -1.25799,0.3579 l -1.09033,0.1902 0.46307,1.15505 c 0.41987,1.04728 0.57353,1.15179 1.64678,1.12 1.10544,-0.0327 1.19024,0.0324 1.2825,0.9851 0.0611,0.63092 0.30531,1.07462 0.64,1.16288 0.29766,0.0785 0.57113,0.15943 0.60771,0.17985 0.0366,0.0204 0.43261,-0.58754 0.88,-1.351 z m -55.08046,-4.61189 c 0.11375,-0.59758 0.0652,-1.04 -0.11403,-1.04 -0.1716,0 -0.312,0.528 -0.312,1.17334 0,1.37145 0.14844,1.325 0.42603,-0.13334 z m 59.93883,-3.12007 c -0.79005,-0.25922 -1.02839,-0.23587 -1.11488,0.10918 -0.0605,0.24138 0.0475,0.59638 0.24,0.78888 0.19251,0.19251 0.35651,0.78921 0.36448,1.32601 0.0144,0.96294 0.0246,0.95679 0.76486,-0.45918 l 0.7504,-1.43519 z m -4.68976,1.84007 c -0.004,-0.68574 -0.0734,-0.77403 -0.31511,-0.4 -0.4046,0.62609 -0.4046,1.28 0,1.28 0.176,0 0.3178,-0.396 0.31511,-0.88 z m -6.07511,-0.70111 c 0,-0.16561 -0.144,-0.39011 -0.32,-0.49889 -0.176,-0.10877 -0.32,0.0267 -0.32,0.30112 0,0.27438 0.144,0.49888 0.32,0.49888 0.176,0 0.32,-0.1355 0.32,-0.30111 z m 6.72,-0.97889 c 0.18839,-0.352 0.27053,-0.64 0.18253,-0.64 -0.088,0 -0.31414,0.288 -0.50253,0.64 -0.18838,0.352 -0.27052,0.64 -0.18252,0.64 0.088,0 0.31414,-0.288 0.50252,-0.64 z m 62.31335,-3.39333 c -0.10634,-0.10633 -0.38234,-0.1177 -0.61335,-0.0252 -0.25526,0.10215 -0.17945,0.17798 0.19335,0.19333 0.33731,0.0139 0.52633,-0.0617 0.42,-0.16807 z M 303.63582,91.02121 c 1.29012,-3.03525 2.92523,-6.47263 3.63359,-7.6386 3.1171,-5.13086 9.58645,-12.24726 14.40074,-15.84107 4.73871,-3.5374 14.79326,-9.4882 19.708,-11.66422 1.85101,-0.81953 2.23079,-1.07679 1.412,-0.95649 -1.67808,0.24654 -7.55461,0.76211 -12.96,1.13703 -2.64,0.18311 -7.752,0.61107 -11.36,0.95101 -3.608,0.33995 -9.152,0.78008 -12.32,0.97807 -3.168,0.19799 -6.04799,0.3854 -6.39999,0.41645 -0.74293,0.0656 -0.73359,-0.30935 -0.19669,7.89648 0.20152,3.07999 0.45988,11.70081 0.57414,19.15737 0.19135,12.48687 0.24544,13.45967 0.68514,12.32 0.26257,-0.68056 1.53294,-3.72077 2.82307,-6.75603 z m 56.27433,6.31865 c 0.10877,-0.176 0.0453,-0.32 -0.14112,-0.32 -0.18636,0 -0.33888,0.144 -0.33888,0.32 0,0.176 0.0635,0.32 0.14112,0.32 0.0776,0 0.23012,-0.144 0.33888,-0.32 z m 2.72439,-2.16 c 0.003,-0.66 0.0794,-1.488 0.17107,-1.84 0.20816,-0.79906 -1.40477,-1.71977 -1.82413,-1.04125 -0.1536,0.24855 -0.0147,0.48211 0.37216,0.62517 0.69949,0.25876 1.10259,1.48222 0.87706,2.662 -0.0835,0.43674 -0.0278,0.79408 0.12384,0.79408 0.15158,0 0.27757,-0.54 0.28,-1.2 z m 51.68579,-17.88665 c -0.28042,-4.72634 -0.64794,-10.24934 -0.81671,-12.27334 -0.16876,-2.024 -0.32272,-5.264 -0.34208,-7.2 -0.0192,-1.936 -0.13772,-3.88 -0.26304,-4.32 -0.22377,-0.78566 -0.26,-0.76727 -2.02012,1.02564 -3.7361,3.80571 -9.52784,10.26162 -9.51907,10.61067 0.005,0.20002 1.09782,1.65969 2.42841,3.24368 1.33059,1.584 3.24624,3.9727 4.25696,5.30821 1.81136,2.39336 4.83715,7.95753 5.94858,10.93893 0.31312,0.83992 0.6295,1.46693 0.70307,1.39334 0.0736,-0.0736 -0.0956,-4.0008 -0.376,-8.72713 z m -98.58418,3.56665 0.92011,-1.28 -1.01306,0.93987 c -0.55717,0.51693 -1.01305,1.15293 -1.01305,1.41334 0,0.2604 0.0418,0.41346 0.0929,0.34013 0.0511,-0.0733 0.50699,-0.70934 1.01305,-1.41334 z m 5.454,-6.89311 c -0.352,-0.0952 -0.68497,-0.48326 -0.73993,-0.86231 -0.18555,-1.27959 -0.88231,-0.46051 -0.75388,0.88622 0.081,0.84915 -0.0676,1.57145 -0.44285,2.15346 -0.41655,0.64599 -0.15264,0.49796 1.00598,-0.56426 1.38007,-1.26524 1.49302,-1.461 0.93068,-1.61311 z m 77.99748,-12.22688 c 0.28592,-0.22 1.06944,-1.06795 1.74118,-1.88432 0.67174,-0.81637 2.85715,-3.22792 4.85645,-5.359 l 3.6351,-3.87469 -2.8351,0.16569 c -5.8968,0.34463 -19.97261,1.09675 -24.36682,1.30201 -2.51443,0.11745 -4.49776,0.2875 -4.40736,0.37789 0.0904,0.0904 2.07565,0.80245 4.41171,1.58239 5.26413,1.75751 8.40448,3.22601 12.72736,5.95161 1.848,1.16517 3.44048,2.12297 3.53885,2.12845 0.0983,0.005 0.41274,-0.17003 0.69863,-0.39003 z M 354.95015,52.8862 c 1.43044,-0.27438 1.42564,-0.27645 -0.72,-0.31127 -1.73408,-0.0282 -2.16,0.0608 -2.16,0.45103 0,0.34257 0.21261,0.43448 0.72,0.31127 0.396,-0.0961 1.368,-0.29912 2.16,-0.45103 z m 3.76,-0.56692 c -0.308,-0.0805 -0.812,-0.0805 -1.12,0 -0.308,0.0805 -0.056,0.14635 0.56,0.14635 0.616,0 0.868,-0.0659 0.56,-0.14635 z m 10.96,-0.36868 c 0,-0.52477 -0.16636,-0.56189 -1.52,-0.33908 -0.836,0.13761 -2.528,0.28697 -3.76,0.33191 -2.04777,0.0747 -1.95164,0.0984 1.12,0.27644 1.848,0.10709 3.54,0.2229 3.76,0.25736 0.22,0.0345 0.4,-0.20254 0.4,-0.52663 z m 51.12,-3.27637 c -0.308,-0.17939 -0.56,-0.62933 -0.56,-0.99986 0,-0.658 -0.0154,-0.65992 -0.65328,-0.0825 l -0.65331,0.59122 0.73331,0.40703 c 0.91018,0.50522 1.99443,0.58567 1.13328,0.0841 z m 0.30058,-10.13436 c -0.0805,-0.308 -0.14634,-0.056 -0.14634,0.56 0,0.616 0.0659,0.868 0.14634,0.56 0.0805,-0.308 0.0805,-0.812 0,-1.12 z m 3.89273,-2.28281 c -0.66944,-1.76073 -1.65097,-2.12687 -2.67331,-0.99719 -0.56937,0.62916 -0.55891,0.64 0.61821,0.64 1.03402,0 1.24637,0.12973 1.55632,0.95091 0.21856,0.57903 0.44694,0.80849 0.58403,0.58671 0.12378,-0.20031 0.0854,-0.7315 -0.0853,-1.18043 z m 1.75997,141.96881 c -1.12905,-1.78856 -1.9327,-3.65434 -2.20029,-5.10827 -0.21907,-1.19047 0.0453,-2.00979 1.22906,-3.80817 0.53674,-0.81544 0.52342,-0.86456 -0.73696,-2.72 -1.50022,-2.2085 -1.68045,-3.8601 -0.64314,-5.89341 1.40717,-2.75827 3.43098,-4.31718 5.32365,-4.10073 0.84656,0.0968 0.91255,0.20282 0.88941,1.42908 -0.0182,0.97264 -0.28714,1.65546 -1.01171,2.57033 -1.17107,1.47861 -1.2177,1.3505 1.90192,5.22517 2.45571,3.05008 3.77478,5.43132 3.77478,6.81447 0,1.4381 -0.93648,3.09422 -2.88701,5.10553 -1.67251,1.72462 -1.87846,1.84 -3.28467,1.84 -1.416,0 -1.54832,-0.0761 -2.35504,-1.354 z m 3.74307,-2.406 c 0.60602,-0.66 0.89348,-1.02 0.63876,-0.8 -0.25469,0.22 -0.90951,0.4 -1.45511,0.4 -0.5456,0 -1.19123,-0.18 -1.43469,-0.4 -0.33337,-0.30122 -0.32371,-0.20244 0.0391,0.4 0.26499,0.44 0.5879,0.98 0.7176,1.2 0.31177,0.52895 0.23753,0.56868 1.49433,-0.8 z m 2.12224,-3.34 c -0.10214,-0.25528 -0.17798,-0.17945 -0.19334,0.19333 -0.0138,0.33733 0.0618,0.52633 0.1681,0.42 0.10633,-0.10633 0.11769,-0.38234 0.0253,-0.61333 z m -3.09171,-4.73033 c -0.96886,-1.36066 -1.17001,-1.38956 -1.02499,-0.14723 0.10714,0.91773 0.25702,1.09756 0.91491,1.09756 h 0.78679 z M 281.45905,83.72209 c -0.20138,-0.52481 0.0785,-3.18871 0.38751,-3.68876 0.0997,-0.16141 0.67687,-0.29347 1.28248,-0.29347 2.23073,0 3.23181,2.4844 1.53796,3.81678 -1.01171,0.79581 -2.92812,0.89465 -3.20795,0.16545 z m 5.67433,-27.54538 c -0.36477,-0.46373 -0.66322,-1.02433 -0.66322,-1.24576 0,-0.22144 -0.216,-0.4855 -0.48,-0.58681 -0.6148,-0.23591 -0.61319,-1.50608 0.004,-2.98269 0.75333,-1.80295 5.06916,-6.97817 6.21532,-7.45293 0.72267,-0.29934 1.46779,-0.33612 2.67155,-0.13189 l 1.66936,0.28324 -0.012,1.28 c -0.007,0.704 -0.1241,1.87326 -0.2611,2.59837 l -0.2491,1.31837 1.2211,-0.0384 1.2211,-0.0384 -0.0232,1.29974 c -0.0567,3.17904 -5.60926,7.82091 -6.80325,5.68738 -0.27159,-0.48531 -0.37682,-0.47103 -1.17905,0.16 -1.21515,0.95584 -2.50709,0.89756 -3.33131,-0.15028 z m 2.47348,-2.76058 c 0.24738,-0.29807 0.14643,-0.49275 -0.38572,-0.74389 -0.6514,-0.30741 -0.70709,-0.26855 -0.57858,0.40374 0.15914,0.83248 0.4659,0.94069 0.9643,0.34015 z m 3.64284,-6.20118 c -0.44616,-0.33537 -0.60933,-0.3137 -0.94272,0.12518 -0.33019,0.43466 -0.31571,0.57969 0.08,0.80114 0.54165,0.30312 0.65684,2.34848 0.17517,3.11015 -0.19615,0.31016 -0.16894,0.55145 0.0795,0.70498 0.26563,0.16417 0.49192,-0.44447 0.76265,-2.05123 0.34505,-2.04784 0.32902,-2.32671 -0.15459,-2.69022 z"
       id="path12" />
  </g>
</svg>
