<?xml version="1.0" encoding="UTF-8"?>
<svg viewBox="0mm 0mm 290mm 290mm" width="290mm" height="290mm" 
     xmlns="http://www.w3.org/2000/svg">

  <!-- Document Title -->
  <title>Collection of 36 tiles 40mm</title>
  <!-- Board background -->
  <!--<rect x="0" y="0" width="290" height="290" class="board-border"/> -->
  <line x1="0" y1="5mm" x2="290mm" y2="5mm" stroke="#000000" stroke-width="10mm"/>
  <line x1="0" y1="285mm" x2="290mm" y2="285mm" stroke="#000000" stroke-width="10mm"/>
  <line x1="5mm" y1="0" x2="5mm" y2="290mm" stroke="#000000" stroke-width="10mm"/>
  <line x1="285mm" y1="0" x2="285mm" y2="290mm" stroke="#000000" stroke-width="10mm"/>
  
  <!-- Horizontal grid lines (spacing/cut lines) -->
  <line x1="0" y1="52.5mm" x2="290mm" y2="52.5mm" stroke="#000000" stroke-width="2.5mm"/>
  <line x1="0" y1="97.5mm" x2="290mm" y2="97.5mm" stroke="#000000" stroke-width="2.5mm"/>
  <line x1="0" y1="142.5mm" x2="290mm" y2="142.5mm" stroke="#000000" stroke-width="2.5mm"/>
  <line x1="0" y1="187.5mm" x2="290mm" y2="187.5mm" stroke="#000000" stroke-width="2.5mm"/>
  <line x1="0" y1="232.5mm" x2="290mm" y2="232.5mm" stroke="#000000" stroke-width="2.5mm"/>

  
  <!-- Vertical grid lines (spacing/cut lines) -->
  <line x1="52.5mm" y1="0" x2="52.5mm" y2="290mm" stroke="#000000" stroke-width="2.5mm"/>
  <line x1="97.5mm" y1="0" x2="97.5mm" y2="290mm" stroke="#000000" stroke-width="2.5mm"/>
  <line x1="142.5mm" y1="0" x2="142.5mm" y2="290mm" stroke="#000000" stroke-width="2.5mm"/>
  <line x1="187.5mm" y1="0" x2="187.5mm" y2="290mm" stroke="#000000" stroke-width="2.5mm"/>
  <line x1="232.5mm" y1="0" x2="232.5mm" y2="290mm" stroke="#000000" stroke-width="2.5mm"/>




</svg>