<?xml version="1.0" encoding="UTF-8" standalone="no"?>
<!-- Created with Inkscape (http://www.inkscape.org/) -->

<svg
   version="1.1"
   id="svg2"
   width="458.66666"
   height="344"
   viewBox="0 0 458.66666 344"
   sodipodi:docname="DARE 2025 locandina ig.png"
   inkscape:version="1.1.2 (0a00cf5339, 2022-02-04)"
   xmlns:inkscape="http://www.inkscape.org/namespaces/inkscape"
   xmlns:sodipodi="http://sodipodi.sourceforge.net/DTD/sodipodi-0.dtd"
   xmlns="http://www.w3.org/2000/svg"
   xmlns:svg="http://www.w3.org/2000/svg">
  <defs
     id="defs6" />
  <sodipodi:namedview
     id="namedview4"
     pagecolor="#505050"
     bordercolor="#eeeeee"
     borderopacity="1"
     inkscape:pageshadow="0"
     inkscape:pageopacity="0"
     inkscape:pagecheckerboard="0"
     showgrid="false"
     inkscape:zoom="2.1773256"
     inkscape:cx="229.18024"
     inkscape:cy="172"
     inkscape:window-width="1854"
     inkscape:window-height="995"
     inkscape:window-x="0"
     inkscape:window-y="0"
     inkscape:window-maximized="1"
     inkscape:current-layer="g8" />
  <g
     inkscape:groupmode="layer"
     inkscape:label="Image"
     id="g8">
    <path
       style="fill:#000000;stroke-width:1.33333"
       d="m 394.66666,325.12873 c -5.47275,-1.59013 -8.80112,-4.28289 -9.74225,-7.88174 -0.57355,-2.1933 0.0344,-2.58032 4.05342,-2.58032 2.91119,0 5.36511,0.87105 6.38562,2.26666 1.04768,1.43279 3.48917,2.26667 6.63654,2.26667 5.93196,0 8.66667,-2.996 8.66667,-9.49476 v -4.45173 l -3.91392,2.89368 c -5.06079,3.7416 -13.6642,2.88074 -18.38451,-1.83956 -6.63133,-6.63132 -6.62498,-20.65188 0.0133,-28.36882 4.27568,-4.97076 13.11265,-5.97414 18.37166,-2.086 3.14056,2.32228 3.91343,2.49087 3.91343,0.85378 0,-1.44246 1.36683,-2.03992 4.66667,-2.03992 h 4.66666 v 19.93726 c 0,11.49539 -0.61266,21.28192 -1.44694,23.11298 -2.90934,6.38528 -14.7618,10.06304 -23.88639,7.41182 z m 13.9244,-25.42541 c 1.14157,-1.62983 2.0756,-5.09633 2.0756,-7.70332 0,-6.80459 -3.13793,-10.66667 -8.66667,-10.66667 -5.52873,0 -8.66666,3.86208 -8.66666,10.66667 0,6.80459 3.13793,10.66667 8.66666,10.66667 3.15466,0 5.14098,-0.89306 6.59107,-2.96335 z m -227.71789,12.2104 c -10.45341,-2.98783 -9.89964,-17.99369 0.75957,-20.58284 1.66866,-0.40532 5.67238,-1.17668 8.89716,-1.71413 6.74598,-1.12431 9.60732,-4.23826 6.89619,-7.50499 -2.57331,-3.10063 -10.32679,-2.74484 -12.09276,0.55491 -1.0056,1.87897 -2.79176,2.66666 -6.04691,2.66666 -5.59408,0 -6.11085,-2.63012 -1.4354,-7.30557 5.45372,-5.45372 19.59176,-6.21697 26.86644,-1.45041 3.13136,2.05174 3.28338,2.77877 3.30074,15.78672 0.0107,7.49976 0.38,14.98593 0.82218,16.63593 0.71891,2.68261 0.32202,3 -3.75154,3 -2.50554,0 -5.2111,-0.65559 -6.01236,-1.45685 -0.96444,-0.96444 -2.2939,-1.02792 -3.93334,-0.1878 -3.99632,2.04788 -10.19062,2.72433 -14.26997,1.55837 z m 14.52076,-8.51979 c 1.8,-1.8 3.27273,-4.72725 3.27273,-6.50502 0,-3.14915 -0.16293,-3.19895 -6.33333,-1.93587 -5.69464,1.16568 -9.66667,3.85292 -9.66667,6.53989 0,1.95219 4.2482,5.17374 6.82251,5.17374 1.44763,0 4.10476,-1.47274 5.90476,-3.27274 z m 84.18447,7.9759 c -2.79854,-0.98062 -6.25107,-2.83528 -7.67228,-4.12146 -3.45872,-3.13009 -5.62322,-11.69765 -4.55406,-18.02596 2.77895,-16.44842 23.49192,-21.58794 33.86354,-8.40257 3.84833,4.89235 3.52153,5.84683 -2.00188,5.84683 -3.27146,0 -5.5124,-0.89674 -7.08058,-2.83334 -3.07314,-3.79518 -9.25281,-3.72149 -12.3859,0.14771 -5.35666,6.6152 -1.19184,21.38257 6.0162,21.33188 3.67216,-0.0259 5.42992,-1.20591 7.4172,-4.97959 1.18316,-2.2467 2.76241,-3 6.28945,-3 4.27624,0 4.62231,0.27606 3.76092,3 -3.11767,9.8588 -13.36624,14.64088 -23.65261,11.0365 z M 29.333333,286 v -26 h 19.333333 19.333333 v 4 4 h -9.833333 c -5.408333,0 -11.708333,0.375 -14,0.83333 -3.904761,0.78095 -4.166667,1.2 -4.166667,6.66667 v 5.83333 h 12.666667 12.666666 v 4 4 H 52.666666 39.999999 V 296 302.66667 H 54.666666 69.333332 V 307.33333 312 h -19.999999 -20 z m 50.666666,7.33333 v -18.66666 h 4.666666 c 3.238735,0 4.666667,0.60597 4.666667,1.9804 0,1.61592 0.797532,1.49413 4.333333,-0.66168 7.283565,-4.44088 15.973745,-3.17086 19.053395,2.78453 1.36202,2.63387 1.94661,8.18873 1.94661,18.4972 V 312 h -4.5453 -4.5453 l -0.4547,-14.05065 c -0.499,-15.4194 -1.2775,-16.91998 -8.454705,-16.29671 -5.192833,0.45095 -7.155006,5.8616 -7.258077,20.01403 L 89.333332,312 H 84.666665 79.999999 Z M 126.66666,286 V 260 H 132 h 5.33333 v 9.53999 c 0,9.13258 0.10333,9.44642 2.42083,7.34916 3.01381,-2.72747 9.71765,-4.14479 14.23814,-3.01022 6.42879,1.61352 8.6638,7.74611 8.66938,23.78774 L 162.66666,312 H 157.33333 152 v -13.73333 c 0,-14.91547 -0.8172,-16.93334 -6.85774,-16.93334 -6.04029,0 -7.80893,4.14399 -7.80893,18.29668 V 312 H 132 126.66666 Z m 94.66667,7.33333 V 274.66667 H 226 c 3.35498,0 4.66666,0.58934 4.66666,2.09677 0,1.73813 0.60091,1.62411 3.51315,-0.66667 4.91279,-3.8644 12.62292,-3.66452 17.41251,0.4514 3.65948,3.14476 3.7507,3.56615 4.18601,19.33334 L 256.22333,312 h -5.445 -5.445 v -13.73333 c 0,-14.91547 -0.8172,-16.93334 -6.85773,-16.93334 -6.0403,0 -7.80894,4.14399 -7.80894,18.29668 V 312 H 226 221.33333 Z m 93.33333,0 V 274.66667 H 319.33333 324 V 293.33333 312 h -4.66667 -4.66667 z m 22.66667,0 V 274.66667 H 342 c 3.35498,0 4.66666,0.58934 4.66666,2.09677 0,1.73813 0.60091,1.62411 3.51315,-0.66667 4.91278,-3.8644 12.62292,-3.66452 17.4125,0.4514 3.65948,3.14476 3.75071,3.56615 4.18602,19.33334 L 372.22333,312 h -4.62326 -4.62326 l -0.52928,-13.17765 c -0.5843,-14.54728 -1.90782,-17.48902 -7.86852,-17.48902 -6.15498,0 -7.91235,4.0638 -7.91235,18.29668 V 312 H 342 337.33333 Z M 314.66666,264 c 0,-3.68253 0.37038,-4 4.66667,-4 4.29629,0 4.66667,0.31747 4.66667,4 0,3.68253 -0.37038,4 -4.66667,4 -4.29629,0 -4.66667,-0.31747 -4.66667,-4 z M 95.333332,235.29488 c -2.933333,-1.05676 -5.434397,-1.93043 -5.557921,-1.94147 -0.12352,-0.0107 -1.473523,-2.0409 -3,-4.51078 -3.726026,-6.02884 -3.7678,-16.92215 -0.08773,-22.87663 8.161974,-13.20636 29.169999,-10.28981 33.313319,4.62487 2.66058,9.57729 2.88698,9.40913 -12.66767,9.40913 -7.699994,0 -13.999994,0.33944 -13.999994,0.75432 0,1.45287 3.079728,6.58827 4.532939,7.5586 2.733035,1.82489 8.424915,1.03288 11.830885,-1.64625 3.4526,-2.71582 10.30284,-3.67035 10.30284,-1.43564 0,2.87748 -7.21827,9.46321 -11.75237,10.72253 -6.12222,1.70039 -6.40634,1.68589 -12.914294,-0.65868 z m 15.333338,-23.52323 c 0,-6.15828 -11.537737,-8.78601 -15.257733,-3.47497 -1.141582,1.62983 -2.075605,3.42983 -2.075605,4 0,0.57016 3.9,1.03665 8.666668,1.03665 5.7337,0 8.66667,-0.5285 8.66667,-1.56168 z m 29.11041,24.04183 c -5.33654,-1.48376 -8.29354,-4.16796 -9.70922,-8.81348 -0.81578,-2.67695 -0.45438,-3 3.35606,-3 2.84229,0 5.30333,1.11468 7.35952,3.33333 3.71578,4.0094 8.6003,4.29426 11.86058,0.69168 3.37263,-3.72672 0.9522,-6.14321 -8.20608,-8.19274 -9.69482,-2.16962 -13.77128,-5.4346 -13.77128,-11.02996 0,-6.66758 4.93866,-10.51134 14.3516,-11.16988 6.39208,-0.4472 8.41495,-0.0153 12.31507,2.62872 2.56667,1.7401 4.8584,4.4932 5.09273,6.118 0.36687,2.54374 -0.19062,2.95418 -4.0126,2.95418 -2.99466,0 -4.98045,-0.86753 -6.10404,-2.66666 -1.95166,-3.12512 -8.52958,-3.61454 -10.85885,-0.80794 -2.24341,2.70315 1.48412,5.9394 8.05039,6.98939 10.6367,1.70088 15.96484,7.7968 13.92356,15.92991 -1.49836,5.96997 -14.04938,9.70408 -23.64744,7.03545 z m 43.55625,-0.93133 c -6.89293,-3.25448 -10,-8.72203 -10,-17.59716 0,-8.49471 3.48483,-14.77064 9.88919,-17.80971 12.40504,-5.88657 25.3318,1.65748 26.42509,15.42167 l 0.35239,4.43638 -13.74146,0.3808 c -13.48492,0.3737 -13.72509,0.43592 -12.86536,3.33334 1.80232,6.07409 9.41188,8.31689 14.68531,4.32826 1.42349,-1.07666 4.61136,-1.97666 7.08413,-2 4.34614,-0.0409 4.43058,0.0561 2.53363,2.91304 -5.29341,7.97231 -15.55851,10.75036 -24.36292,6.59338 z M 200,211.77165 c 0,-6.15828 -11.53774,-8.78601 -15.25774,-3.47497 -1.14157,1.62983 -2.0756,3.42983 -2.0756,4 0,0.57016 3.9,1.03665 8.66667,1.03665 5.73371,0 8.66667,-0.5285 8.66667,-1.56168 z m 25.36286,23.22508 c -9.919,-4.98409 -7.81181,-16.96337 3.43158,-19.50837 C 242.96866,212.27993 244,211.87707 244,209.54861 c 0,-5.67085 -9.2197,-7.8294 -12.30943,-2.88194 -1.18561,1.89846 -3.10937,2.66666 -6.67797,2.66666 -6.00128,0 -6.29104,-1.59334 -1.21322,-6.67117 4.37323,-4.37324 11.03474,-6.00639 19.3893,-4.75355 9.46708,1.41968 10.70452,3.81604 11.47798,22.22767 l 0.66667,15.86935 -4.88889,-0.003 c -2.68888,-0.001 -5.11756,-0.68885 -5.39707,-1.52735 -0.35856,-1.07568 -1.27452,-1.12734 -3.11111,-0.17549 -5.43657,2.81763 -11.81864,3.08593 -16.5734,0.69676 z m 16.84339,-7.1679 C 243.19281,227.01005 244,224.37741 244,221.97852 v -4.36164 l -5.66667,1.38677 c -6.74635,1.651 -9,3.2101 -9,6.22627 0,5.26795 7.76741,6.83611 12.87292,2.59891 z m 67.50896,8.59758 c -1.62331,-0.32953 -4.72108,-2.25224 -6.88395,-4.27265 -9.79228,-9.14736 -7.17638,-28.02679 4.56295,-32.9318 8.96272,-3.74485 19.51616,-1.01705 23.74199,6.13671 3.00606,5.08886 2.88984,5.308 -2.81547,5.308 -3.5686,0 -5.49236,-0.7682 -6.67797,-2.66667 -2.46379,-3.94516 -8.78838,-3.50679 -12.21266,0.84648 -5.9251,7.53255 -1.67041,20.48685 6.72868,20.48685 3.00927,0 4.51283,-0.96232 6.23656,-3.99157 1.78924,-3.14436 3.19106,-3.99336 6.60466,-4 2.58492,-0.005 4.33132,0.66404 4.32834,1.65824 -0.008,2.61596 -4.9329,10.03033 -7.59033,11.42673 -3.10301,1.63055 -12.23007,2.76962 -16.0228,1.99968 z M 29.333333,210 v -26 h 15.246533 c 8.385595,0 16.727977,0.56324 18.538629,1.25165 5.851317,2.22467 8.881504,6.70486 8.881504,13.13148 0,4.80998 -0.7256,6.55812 -3.986393,9.60416 l -3.986394,3.72384 3.257416,2.13435 c 3.193967,2.09276 3.569184,3.25679 5.341288,16.57007 l 0.765222,5.74888 -4.968416,-0.41555 -4.968415,-0.41555 -1.508419,-8.38126 c -0.82963,-4.6097 -2.177089,-9.04994 -2.994352,-9.8672 -0.817262,-0.81726 -5.265693,-1.5457 -9.885401,-1.61874 l -8.399469,-0.1328 -0.389419,10.33334 L 39.887827,236 h -5.277246 -5.277248 z m 29.420987,-3.38024 c 1.878102,-1.00513 2.579012,-2.80421 2.579012,-6.61976 0,-6.57809 -2.354262,-8 -13.245678,-8 h -8.087655 v 8 8 h 8.087655 c 4.448211,0 9.24821,-0.62111 10.666666,-1.38024 z m 207.91234,10.71357 v -18.66666 h 4.66667 c 4.11604,0 4.66667,0.40208 4.66667,3.40768 v 3.40769 l 3,-3.40912 c 1.65,-1.875 4.95,-3.78347 7.33333,-4.24101 4.24495,-0.81494 4.33333,-0.73332 4.33333,4.00142 0,4.37356 -0.3488,4.83738 -3.66666,4.87574 -7.7404,0.0895 -10.90474,6.32812 -10.96819,21.62426 L 276,236 h -4.66667 -4.66667 z M 344,210 v -26 h 4.66666 4.66667 v 9.33333 c 0,5.33334 0.57142,9.33334 1.33333,9.33334 0.73333,0 1.33333,-0.5037 1.33333,-1.11931 0,-1.59667 6.21108,-4.21403 10,-4.21403 4.86964,0 9.53763,2.59131 11.18631,6.20976 0.8142,1.78698 1.48036,9.82082 1.48036,17.85298 V 236 h -4.66667 -4.66666 v -12.36999 c 0,-14.81897 -1.80743,-18.68598 -8.43102,-18.03826 -5.8626,0.57329 -7.52568,4.70196 -7.54933,18.74158 L 353.33333,236 H 348.66666 344 Z M 175.08388,159.86336 c -4.36602,-1.26319 -9.75055,-6.80932 -9.75055,-10.04317 0,-3.24151 8.02671,-2.18078 11.45011,1.51314 3.48624,3.76171 8.69004,4.33604 11.73133,1.29475 3.35493,-3.35492 1.03393,-5.78775 -8.26051,-8.65851 -10.75574,-3.3221 -13.5876,-5.70069 -13.5876,-11.41278 0,-7.61779 9.8963,-12.6653 20.81564,-10.61681 5.181,0.97196 11.18436,5.98144 11.18436,9.33275 0,3.0525 -7.43029,2.63031 -10.66666,-0.60606 -3.02366,-3.02365 -8.30871,-3.50784 -10.42714,-0.95529 -2.33114,2.80885 0.17547,4.9217 9.01366,7.59769 10.3029,3.11946 13.41348,5.76696 13.41348,11.41653 0,9.6352 -11.83076,14.92367 -24.91612,11.13776 z m 97.4697,-0.35312 c -16.10008,-7.29229 -13.19064,-34.35201 4.04108,-37.5847 6.825,-1.28038 14.49124,1.26984 18.6404,6.20084 4.75847,5.65511 4.45368,7.87362 -1.08172,7.87362 -3.34289,0 -5.0797,-0.86443 -6.6974,-3.33333 C 282.60494,125.26311 272,130.93575 272,140.93413 c 0,4.72423 1.96894,9.66676 4.53293,11.37879 0.80689,0.53877 3.14497,0.98877 5.19575,1 2.75797,0.0151 4.31998,-1.01872 6,-3.97116 2.27494,-3.99795 5.85473,-5.07665 9.39705,-2.83161 1.47973,0.93781 1.41673,1.86245 -0.36108,5.30036 -1.18441,2.29041 -3.52997,5.06629 -5.21235,6.16862 -4.5056,2.95219 -14.14594,3.7291 -18.99872,1.53111 z M 34.06612,134.40139 43.780022,108.66667 h 5.728373 5.728372 L 64.764479,134 l 9.527712,25.33333 -3.939692,0.42728 c -5.8695,0.63658 -7.373089,-0.40738 -9.155576,-6.35678 L 59.577899,148 H 49.397822 39.217745 l -2.058458,5.66667 c -1.910841,5.2603 -2.443856,5.69545 -7.432763,6.06805 l -5.374308,0.4014 z m 21.933879,4.52417 c 0,-2.28888 -5.626169,-17.59223 -6.467662,-17.59223 -0.837547,0 -6.866535,15.51311 -6.865946,17.66667 1.51e-4,0.55 3.000275,1 6.666942,1 3.666666,0 6.666666,-0.48349 6.666666,-1.07444 z m 26.666666,2.40777 v -18.66666 h 4.666667 c 4.192191,0 4.670789,0.3728 4.707212,3.66666 0.03467,3.13474 0.237704,3.32817 1.399603,1.33331 1.537572,-2.63985 8.046033,-6.33331 11.160303,-6.33331 1.4725,0 2.06622,1.34095 2.06622,4.66667 0,4.0605 -0.42332,4.66667 -3.25899,4.66667 -1.79244,0 -4.850667,1.36911 -6.796065,3.04248 -3.186558,2.74096 -3.608955,4.19444 -4.262295,14.66666 L 91.624113,160 h -4.478724 -4.478724 z m 37.921505,16.77599 c -2.2045,-1.61041 -2.65611,-3.88343 -3.04645,-15.33333 -0.415,-12.17323 -0.6983,-13.44266 -3,-13.44266 -1.82228,0 -2.54172,-0.9435 -2.54172,-3.33333 0,-2.44444 0.71111,-3.33333 2.66667,-3.33333 2.2716,0 2.66666,-0.88889 2.66666,-6 v -6 H 122.66666 128 v 6 c 0,5.77777 0.14815,6 4,6 3.37777,0 4,0.51852 4,3.33333 0,2.81481 -0.62223,3.33333 -4,3.33333 h -4 v 10.61976 c 0,9.64847 0.27438,10.7666 3,12.22531 1.65,0.88305 3.3,1.35416 3.66666,1.04691 0.36667,-0.30726 0.85652,1.09136 1.08856,3.10802 0.4092,3.5563 0.22623,3.66667 -6.07849,3.66667 -3.57521,0 -7.66506,-0.85081 -9.08856,-1.89068 z m 24.74516,-16.77599 V 122.66667 H 150 154.66666 V 141.33333 160 H 150 145.33333 Z m 70.66667,16 c -2.2924,-2.2924 -2.66667,-4.44444 -2.66667,-15.33333 0,-12.62222 -0.012,-12.66667 -3.33333,-12.66667 -2.66667,0 -3.33334,-0.66666 -3.33334,-3.33333 0,-2.66667 0.66667,-3.33333 3.33334,-3.33333 3.06826,0 3.33333,-0.48353 3.33333,-6.08049 v -6.08049 l 5,0.41382 c 4.85337,0.40169 5.01203,0.57999 5.41,6.08049 0.36235,5.00808 0.78849,5.66667 3.66667,5.66667 2.58489,0 3.25666,0.68759 3.25666,3.33333 0,2.66667 -0.66666,3.33333 -3.33333,3.33333 -3.29075,0 -3.33333,0.14297 -3.33333,11.18879 0,10.82272 0.10906,11.21616 3.33333,12.0254 2.43503,0.61116 3.33333,1.72808 3.33333,4.14455 0,3.03162 -0.50117,3.30793 -6,3.30793 -4.22222,0 -6.79012,-0.79012 -8.66666,-2.66667 z m 24,-16 v -18.66666 h 5.33333 5.33333 V 141.33333 160 H 245.33333 240 Z M 145.33333,112 c 0,-3.68254 0.37037,-4 4.66667,-4 4.29629,0 4.66666,0.31746 4.66666,4 0,3.68254 -0.37037,4 -4.66666,4 -4.2963,0 -4.66667,-0.31746 -4.66667,-4 z M 240,112 c 0,-3.77778 0.29629,-4 5.33333,-4 5.03704,0 5.33333,0.22222 5.33333,4 0,3.77778 -0.29629,4 -5.33333,4 C 240.29629,116 240,115.77778 240,112 Z m -4.82894,-15.249228 c -3.8534,-1.677092 -8.5044,-6.625081 -8.5044,-9.047447 0,-2.247797 9.39888,-0.971109 12,1.630008 6.10396,6.103963 14.66667,1.619083 14.66667,-7.681948 v -4.421932 l -2.91808,2.718607 c -3.49215,3.253428 -11.46932,3.620993 -16.96033,0.781484 -7.01406,-3.627112 -9.59342,-18.104056 -4.85736,-27.262561 4.02624,-7.785915 16.04549,-10.251618 22.31494,-4.577831 2.24623,2.032804 2.42083,2.031661 2.42083,-0.01584 0,-1.632997 1.21317,-2.20665 4.66667,-2.20665 h 4.66666 V 66.73288 c 0,14.958993 -0.49409,21.021673 -1.94126,23.820207 -3.7129,7.179954 -16.28922,10.230083 -25.55434,6.197685 z m 15.05152,-24.185476 c 2.97863,-2.978635 3.34264,-4.251437 2.74142,-9.585584 -0.77259,-6.854307 -3.41903,-9.646379 -9.14324,-9.646379 -7.77716,0 -10.84784,13.094132 -4.54803,19.39394 4.16411,4.164115 6.66069,4.127184 10.94985,-0.161977 z M 114,83.793691 c -4.16739,-2.279386 -6,-5.27757 -6,-9.816112 0,-5.998586 4.49937,-9.580611 14.5776,-11.60549 9.77097,-1.96314 13.1795,-5.223497 8.83422,-8.450181 -3.66708,-2.723081 -8.43573,-2.381195 -10.38792,0.744759 -1.18561,1.898465 -3.10937,2.666666 -6.67796,2.666666 -6.1951,0 -6.57935,-2.444624 -1.1079,-7.048542 6.94929,-5.847443 20.74962,-6.266634 26.60852,-0.808244 2.46025,2.29208 2.8201,4.130669 2.8201,14.408726 0,6.479767 0.375,13.656394 0.83334,15.94806 C 144.30869,83.876828 144.19277,84 139.57869,84 c -2.61505,0 -5.08323,-0.531647 -5.48481,-1.181437 -0.40335,-0.65263 -2.97496,-0.380426 -5.74536,0.608142 -6.1149,2.181992 -10.81058,2.302091 -14.34852,0.366986 z M 130.66666,76 c 1.46667,-1.466667 2.66667,-4.219405 2.66667,-6.117197 0,-3.309808 -0.2311,-3.414327 -5.66667,-2.562814 -6.89773,1.08057 -10.93685,5.06096 -8.93373,8.803824 1.81628,3.393748 8.48537,3.324555 11.93373,-0.123813 z m 56.10303,6.979027 c -8.64269,-4.769378 -12.05841,-17.717108 -7.3124,-27.718586 4.38288,-9.236242 19.74603,-12.621166 28.42727,-6.26331 10.53077,7.712384 10.46818,25.002532 -0.11854,32.760936 -5.1482,3.772805 -15.30206,4.363265 -20.99629,1.22096 z m 16.48804,-8.609035 c 1.17543,-1.678168 2.0756,-5.725949 2.0756,-9.333333 0,-7.512147 -3.26844,-11.703326 -9.12668,-11.703326 -5.65548,0 -8.87332,4.351704 -8.87332,12 0,7.97051 3.17805,12 9.46437,12 3.01924,0 5.0307,-0.922697 6.46003,-2.963341 z m 79.26825,9.477852 C 277.31332,81.934795 276,77.39124 276,61.270596 V 46.666667 h 4.66666 4.66667 v 12.369992 c 0,13.574706 1.83436,18.31285 7.0756,18.276257 6.59741,-0.04606 8.9244,-5.514069 8.9244,-20.97078 V 46.666667 H 306 310.66666 V 65.333333 84 H 306 c -3.23874,0 -4.66667,-0.605975 -4.66667,-1.980403 0,-1.615917 -0.79753,-1.494137 -4.33333,0.661683 -4.66404,2.843721 -8.96055,3.190007 -14.47402,1.166564 z m 48.71026,-1.204683 c -9.18207,-4.545138 -12.62616,-16.627737 -7.56751,-26.548381 8.49209,-16.654019 32.09986,-12.319217 34.60448,6.353987 L 359.01778,68 h -14.14256 -14.14256 l 1.38375,3.639531 c 0.76107,2.001741 2.09621,4.092554 2.967,4.646249 2.71749,1.727929 9.84514,1.141849 11.58325,-0.952447 1.69185,-2.038564 10.66667,-2.849108 10.66667,-0.963341 0,2.515541 -4.7208,7.400584 -8.7981,9.104185 -6.12493,2.559159 -10.91505,2.32905 -17.29899,-0.831016 z m 16.76375,-23.214589 c 0,-5.471311 -8.97057,-8.043477 -13.56167,-3.888588 -4.60862,4.170737 -3.0509,5.793349 5.56168,5.793349 6.04443,0 7.99999,-0.465608 7.99999,-1.904761 z m 27.10499,24.034967 c -4.31407,-1.951976 -7.10499,-5.634924 -7.10499,-9.375884 0,-3.316148 8.82431,-2.844828 9.70379,0.518294 1.39641,5.339911 15.1128,4.548566 14.05781,-0.811044 -0.52636,-2.67409 -2.25666,-3.608617 -12.40369,-6.699133 -8.99888,-2.740824 -12.40124,-6.757285 -10.87509,-12.837964 1.35246,-5.388653 6.7485,-8.213364 15.68996,-8.213364 8.4042,0 13.97232,2.902557 15.98012,8.330141 0.99794,2.697716 0.68658,2.958748 -3.52919,2.958748 -2.89124,0 -5.65315,-1.029445 -7.37115,-2.747436 -3.65321,-3.653224 -9.75646,-3.062752 -10.33469,0.99985 -0.36397,2.557318 0.74455,3.264548 8.94477,5.70668 11.686,3.480241 13.73039,5.400602 13.20602,12.40484 -0.30048,4.013672 -1.31387,6.047618 -4.01336,8.055157 -4.61814,3.434383 -16.1542,4.333665 -21.95031,1.711115 z M 29.333333,57.856099 V 31.712197 l 15,0.483426 c 17.403169,0.560877 22.389759,2.602829 27.380519,11.212012 2.610716,4.503548 2.993903,6.806484 2.66741,16.031057 -0.329662,9.314124 -0.86733,11.40908 -3.972668,15.479031 C 64.772528,82.304524 59.742736,84 43.465161,84 H 29.333333 Z m 29.448875,15.101497 c 8.397715,-6.44756 6.872424,-26.873711 -2.266203,-30.348211 -1.84595,-0.701828 -6.317211,-1.276052 -9.936139,-1.276052 H 39.999999 V 58 74.666667 l 8.333334,-0.0424 C 52.916666,74.600947 57.61866,73.850944 58.782208,72.9576 Z M 86.666665,65.333333 V 46.666667 h 5.333334 5.333333 V 65.333333 84 H 91.999999 86.666665 Z M 156,58 V 32 h 4.66666 4.66667 V 58 84 H 160.66666 156 Z M 86.666665,36 c 0,-3.777777 0.296296,-4 5.333334,-4 5.037037,0 5.333333,0.222223 5.333333,4 0,3.777777 -0.296296,4 -5.333333,4 -5.037038,0 -5.333334,-0.222223 -5.333334,-4 z"
       id="path12" />
  </g>
</svg>
